<?xml version="1.0" encoding="utf-8"?>
<!-- Generator: Adobe Illustrator 26.0.3, SVG Export Plug-In . SVG Version: 6.00 Build 0)  -->
<svg version="1.1" id="Quake_x5F_9" xmlns="http://www.w3.org/2000/svg" xmlns:xlink="http://www.w3.org/1999/xlink" x="0px"
	 y="0px" viewBox="0 0 1920 1080" style="enable-background:new 0 0 1920 1080;" xml:space="preserve">
<style type="text/css">
	.st0{clip-path:url(#SVGID_00000102519754734077088450000005522487039685022338_);}
	.st1{fill:url(#sky_00000147218236525228230440000009441426617810230709_);}
	.st2{fill:url(#SVGID_00000125574900808481571780000010635288897277114545_);}
	.st3{fill:url(#SVGID_00000031208317586632787620000001416527479513625774_);}
	.st4{opacity:0.5;fill:url(#SVGID_00000029020685069676127690000002882366790653708194_);}
	.st5{opacity:0.5;fill:url(#SVGID_00000178190166547053492330000001073266746216104099_);}
	.st6{fill:#927FB6;}
	.st7{fill:#745DA1;}
	.st8{fill:#5C3D8D;}
	.st9{clip-path:url(#SVGID_00000099641167283694419160000013845350497991007629_);fill:#684C98;}
	.st10{clip-path:url(#SVGID_00000099641167283694419160000013845350497991007629_);fill:#5C3D8D;}
	.st11{clip-path:url(#SVGID_00000099641167283694419160000013845350497991007629_);fill:#4D2A84;}
	.st12{clip-path:url(#SVGID_00000099641167283694419160000013845350497991007629_);fill:#38185B;}
	.st13{fill:#38185B;}
	.st14{fill:#472476;}
	.st15{fill:#684C98;}
	.st16{fill:#FFFFFF;}
	.st17{fill:#CCC1DF;}
	.st18{fill:#775C9F;}
	.st19{fill:#A292BF;}
	.st20{fill:#E1DDEE;}
	.st21{fill:#B5A9D1;}
	.st22{fill:#4D2A84;}
	.st23{fill:#F7931E;}
	.st24{fill:#F7DDBE;}
	.st25{fill:#311150;}
	.st26{opacity:0.5;clip-path:url(#SVGID_00000054982096635362879350000001211263553851390874_);}
	.st27{fill:none;stroke:#CCC1DF;stroke-width:20;stroke-miterlimit:10;}
	.st28{fill:none;stroke:#CCC1DF;stroke-width:10;stroke-miterlimit:10;}
	.st29{fill:none;stroke:#CCC1DF;stroke-width:5;stroke-miterlimit:10;}
</style>
<g>
	<defs>
		<rect id="SVGID_1_" width="1920" height="1080"/>
	</defs>
	<clipPath id="SVGID_00000171711893807095092810000013763978159820273032_">
		<use xlink:href="#SVGID_1_"  style="overflow:visible;"/>
	</clipPath>
	<g style="clip-path:url(#SVGID_00000171711893807095092810000013763978159820273032_);">
		
			<linearGradient id="sky_00000047046209935576863340000006795333962662298276_" gradientUnits="userSpaceOnUse" x1="960.6698" y1="1078.8497" x2="960.6698" y2="-173.1928">
			<stop  offset="0.2654" style="stop-color:#EDEBF5"/>
			<stop  offset="0.4658" style="stop-color:#EBE8F3"/>
			<stop  offset="0.6117" style="stop-color:#E3DFEE"/>
			<stop  offset="0.7404" style="stop-color:#D5CFE4"/>
			<stop  offset="0.8591" style="stop-color:#C2B8D7"/>
			<stop  offset="0.9699" style="stop-color:#AA9CC5"/>
			<stop  offset="0.9988" style="stop-color:#A393C0"/>
		</linearGradient>
		
			<rect id="sky_1_" x="-41" y="-64.1" style="fill:url(#sky_00000047046209935576863340000006795333962662298276_);" width="2003.3" height="1252"/>
		
			<linearGradient id="SVGID_00000106115229761507966870000008436370030722193324_" gradientUnits="userSpaceOnUse" x1="305.0203" y1="617.9689" x2="305.0203" y2="290.5713">
			<stop  offset="2.235566e-02" style="stop-color:#846FAA;stop-opacity:0"/>
			<stop  offset="1" style="stop-color:#846FAA"/>
		</linearGradient>
		<polygon style="fill:url(#SVGID_00000106115229761507966870000008436370030722193324_);" points="-83.6,290.6 70.3,322.8 
			118,381.4 377.8,407.6 412.1,454.6 599.6,454.6 693.6,564 -74.4,618 		"/>
		
			<linearGradient id="SVGID_00000031204701325967904060000009809631311494598273_" gradientUnits="userSpaceOnUse" x1="1400.7714" y1="517.5753" x2="1400.7714" y2="43.7302">
			<stop  offset="0" style="stop-color:#846FAA;stop-opacity:0"/>
			<stop  offset="1" style="stop-color:#846FAA"/>
		</linearGradient>
		<polygon style="fill:url(#SVGID_00000031204701325967904060000009809631311494598273_);" points="1973,43.7 1706.5,75.5 
			1673.8,191.9 1362.4,205.2 1281.2,327.4 1130.5,338.5 1069,373.8 1030.9,439.5 890.1,439.5 828.6,517.6 1946.3,451.3 		"/>
		
			<linearGradient id="SVGID_00000163053315052378360870000007899610753653502124_" gradientUnits="userSpaceOnUse" x1="1195.1394" y1="223.1517" x2="1195.1394" y2="85.2841">
			<stop  offset="0" style="stop-color:#CCC1DF"/>
			<stop  offset="0.3483" style="stop-color:#B6A8CF"/>
			<stop  offset="1" style="stop-color:#846FAA"/>
		</linearGradient>
		<polygon style="opacity:0.5;fill:url(#SVGID_00000163053315052378360870000007899610753653502124_);" points="1142.8,103 
			1165.8,183.9 1184.7,169.4 1205.6,223.2 1247.5,103 1195.1,85.3 		"/>
		
			<linearGradient id="SVGID_00000075158666318426695200000003670495278162700723_" gradientUnits="userSpaceOnUse" x1="204.5246" y1="337.1783" x2="204.5246" y2="249.9878">
			<stop  offset="0" style="stop-color:#CCC1DF"/>
			<stop  offset="0.3483" style="stop-color:#B6A8CF"/>
			<stop  offset="1" style="stop-color:#846FAA"/>
		</linearGradient>
		<polygon style="opacity:0.5;fill:url(#SVGID_00000075158666318426695200000003670495278162700723_);" points="238.3,250 
			204.5,251.2 170.7,258.3 176.3,298.8 189,298.8 196,325.2 207.3,337.2 218.5,312.1 232.1,290.6 		"/>
		<polygon id="ground" class="st6" points="1953.3,447.6 -41,561.9 -41,1214.6 1962.3,1214.6 		"/>
		<g id="quake">
			<polygon class="st7" points="-41,580.4 1194,539 529.2,640.5 1100.1,714 864.1,804.8 1011.3,818.1 960.7,835.8 1216.8,858.7 
				1110.2,896.7 1922.2,1031.2 1920.7,1161.9 1574.6,1161.9 973.2,977.9 1051.9,955.1 828.6,917 902.2,894.2 585,850.4 645.9,825.7 
				465.1,804.8 699.2,747 158.7,648.1 486,599.9 -41,589.4 			"/>
			<polygon class="st8" points="486,599.9 486,708 158.7,648.1 			"/>
			<g>
				<defs>
					<polygon id="SVGID_00000126288737595331222730000000946422619417185719_" points="-3.7,574.6 1194,539 529.2,640.5 1100.1,714 
						864.1,804.8 1011.3,818.1 960.7,835.8 1216.8,858.7 1110.2,896.7 1922.2,1031.2 1920.7,1161.9 1574.6,1161.9 973.2,977.9 
						1051.9,955.1 828.6,917 902.2,894.2 585,850.4 645.9,825.7 465.1,804.8 699.2,747 158.7,648.1 486,599.9 -3.7,599.9 					"/>
				</defs>
				<clipPath id="SVGID_00000093859823248284183980000000950901725605502897_">
					<use xlink:href="#SVGID_00000126288737595331222730000000946422619417185719_"  style="overflow:visible;"/>
				</clipPath>
				<polygon style="clip-path:url(#SVGID_00000093859823248284183980000000950901725605502897_);fill:#684C98;" points="
					529.2,640.5 529.2,936.7 1088,936.7 1100.1,714 				"/>
				<polygon style="clip-path:url(#SVGID_00000093859823248284183980000000950901725605502897_);fill:#5C3D8D;" points="
					864.1,804.8 864.1,974.8 1006.2,974.8 1011.3,818.1 				"/>
				<polygon style="clip-path:url(#SVGID_00000093859823248284183980000000950901725605502897_);fill:#4D2A84;" points="
					960.7,835.8 1216.8,858.7 1216.8,1161.9 959.3,1161.9 				"/>
				<polygon style="clip-path:url(#SVGID_00000093859823248284183980000000950901725605502897_);fill:#38185B;" points="
					1110.2,896.7 1110.2,1019.9 1574.6,1161.9 1920.7,1161.9 1922.2,1031.2 				"/>
				<polygon style="clip-path:url(#SVGID_00000093859823248284183980000000950901725605502897_);fill:#5C3D8D;" points="699.2,747 
					699.2,906.3 475.2,913.9 465.1,804.8 				"/>
			</g>
			<polygon class="st13" points="1051.9,955.1 1051.9,1002 973.2,977.9 			"/>
			<polygon class="st14" points="902.2,894.2 902.2,929.6 828.6,917 			"/>
			<polygon class="st14" points="645.9,825.7 645.9,858.8 585,850.4 			"/>
		</g>
		<g id="foreground">
			<polygon class="st15" points="455.3,1167 851.1,1041.4 851.1,1167 			"/>
			<g>
				<polygon class="st15" points="520.8,911.9 520.8,955.1 671.2,978.5 671.2,1161.9 415.5,1161.9 420.6,929.6 				"/>
				<polygon class="st16" points="521.9,911.9 454.7,927.2 672.2,978.5 604.9,997.6 851.1,1041.4 455.3,1167 -41,1161.9 -41,760 
									"/>
			</g>
		</g>
		<g>
			<g id="platform-3">
				<polygon class="st17" points="785.6,112.4 811.4,246 855.9,272.6 837.2,123.7 				"/>
				<polygon class="st6" points="816.3,137.4 855.9,314.4 930.8,368.8 936.1,140.4 				"/>
				<polygon class="st17" points="979.4,316.4 1017.8,146.8 925.6,151.7 925.6,338.9 				"/>
				<polygon class="st17" points="1065,102.5 1010.1,257.4 968.3,287.8 978,117.5 				"/>
				<polygon class="st18" points="876.2,149.2 891,308 930.8,368.8 931.5,338.9 964.6,309.9 994.2,133 936.1,140.4 				"/>
				<polygon class="st19" points="925.6,151.7 942.6,233.7 964.8,239.2 971.7,255.1 1005.2,223.8 1017.8,146.8 				"/>
				<path class="st20" d="M971.7,149.2"/>
				<polygon class="st16" points="1022.8,83.4 853.7,88.5 785.6,112.4 837.2,123.7 816.3,137.4 876.2,149.2 936.1,140.4 
					925.6,151.7 955.5,158.8 995.3,158.8 1017.8,146.8 1002.5,136.4 1026.6,133 1065,102.5 				"/>
			</g>
			<g id="platform-2">
				<polygon class="st21" points="764.2,286 751.5,377.4 710.3,407.2 660.8,399.6 603.7,391.3 595.4,338.7 583.4,331.1 579.6,292.8 
					615.3,286 611.9,272.7 724.8,266.7 722.6,281.3 				"/>
				<polygon class="st6" points="620.8,319 631.2,421.9 644.3,426 650,443.4 686.2,471 720.1,432.4 741.4,313 				"/>
				<polygon class="st16" points="724.8,266.7 611.9,272.7 638.6,281.6 579.6,292.8 650.6,305.1 620.8,319 698.2,325 741.4,313 
					717.2,300.6 764.2,286 696.9,278.4 				"/>
			</g>
			<g id="platform-1">
				<polygon class="st6" points="357.2,134.8 369.5,194 385.2,199.5 382.4,138.1 				"/>
				<polygon class="st17" points="543.3,137.7 529.8,208.4 511.6,210.5 515.4,149.2 				"/>
				<polygon class="st17" points="406.7,161.2 423.5,331.5 447.3,343.5 470.2,327.7 482.4,163.5 				"/>
				<polygon class="st17" points="332.3,155.5 369.3,276.3 406.7,280.5 398.5,160.6 				"/>
				<polygon class="st17" points="355.1,171.6 385.2,306.8 423.5,331.5 430.8,322.8 430.8,171.6 				"/>
				<polygon class="st17" points="465.1,177.9 465.1,315.9 498.7,305.8 507.3,280.5 526.3,271.2 543.3,171.6 				"/>
				<polygon class="st17" points="424.9,174.1 430.8,189.4 414.9,243.7 437.8,307.7 455.2,286.2 482.4,280.5 495.5,157.4 				"/>
				<polygon class="st18" points="424.9,174.1 406.7,243.7 425.8,307.7 447.3,343.5 460.8,334.2 465.1,294.6 482.4,280.5 
					482.4,280.5 482.4,193.8 482.4,163.5 				"/>
				<polygon class="st16" points="493.6,124.4 371.6,124.4 357.2,134.8 382.4,138.1 349.6,142.8 332.3,155.5 368.7,160.1 
					355.1,171.6 430.8,189.4 424.9,174.1 482.4,163.5 465.1,177.9 543.3,171.6 515.4,149.2 543.3,137.7 				"/>
				<polygon class="st6" points="465.1,177.9 482.4,280.5 504.2,253.7 511.6,218 537.6,204.8 543.3,171.6 				"/>
				<polygon class="st6" points="425.8,251.5 430.8,189.4 355.1,171.6 369.5,243.7 396.9,253.7 425.8,307.7 				"/>
			</g>
		</g>
		<g id="rocket">
			<path class="st14" d="M1682.2,523.4l-105.4-47.6c0,0,0,0,0,0l0,0l0,0c-1.2-0.5-2.6-0.6-3.9-0.3v0c-3.2,0.9-5.3,4.2-4.8,7.7
				l17.2,110.8c0.7,4.3,5,6.9,8.8,5.2l0.1-0.1l54-10.9c13.3,0,24.1,11.3,24.5,25.5l2.3,99.9c0.1,4.5,3.5,8.1,7.8,8.1
				c3.9,0,7.2-3.1,7.7-7.3l16.4-148.5C1708.8,547.4,1698.7,529.8,1682.2,523.4z"/>
			<path class="st14" d="M1300.4,475.6L1300.4,475.6c-1.4-0.4-2.7-0.2-3.9,0.3v0l0,0c0,0,0,0,0,0L1191,523.4
				c-16.4,6.4-26.6,24-24.6,42.5l16.4,148.5c0.5,4.2,3.8,7.3,7.7,7.3c4.2,0,7.7-3.6,7.8-8.1l2.3-99.9c0.3-14.2,11.2-25.5,24.5-25.5
				l54,10.9l0.1,0.1c3.8,1.7,8.1-0.9,8.8-5.2l17.2-110.8C1305.7,479.8,1303.6,476.4,1300.4,475.6z"/>
			<path class="st16" d="M1436.6,707.1c-62,0.9-125.8-13.4-149.2-50.4c-6.7-10.6-8.8-23.8-6.2-36.3c7.7-37.6,14.8-91.6,23-151.5
				c0.7-5,1.4-10,2.1-15.1c2-14.9,4.1-30,6.3-45.3c0.1-0.6,0.2-1.2,0.3-1.8c18.6-129.4,43.8-268.7,90-324.8
				c11.8-13.2,23.2-18.7,33.8-18.4c10.6-0.2,22,5.2,33.8,18.4c46.2,56.2,71.4,195.4,90,324.8c0.1,0.7,0.2,1.4,0.3,2.1
				c2.2,15.3,4.3,30.5,6.3,45.4c0.7,4.9,1.3,9.8,2,14.7c8.1,59.9,15.2,113.9,23,151.6C1602.8,688.6,1502.7,708.5,1436.6,707.1z"/>
			<path class="st8" d="M1436.6,675.3c-67.3,0.9-136.6-13.4-161.9-50.4c-7.3-10.6-9.5-23.8-6.7-36.3c8.4-37.6,16.1-91.6,24.9-151.5
				c0.3-1.8,0.5-3.7,0.8-5.5c0.5-3.2,0.9-6.4,1.4-9.6c2.2-14.9,4.5-30,6.9-45.3c0.1-0.6,0.2-1.2,0.3-1.8c0.9-5.7,1.8-11.3,2.7-17
				c19.9-124.4,47.1-254.1,95-307.8c12.9-13.2,25.1-18.7,36.7-18.4c11.6-0.2,23.8,5.2,36.7,18.4c47.9,53.7,75.1,183.3,95,307.7
				c0.9,5.7,1.8,11.4,2.7,17.1c0.1,0.7,0.2,1.4,0.3,2.1c2.4,15.3,4.7,30.5,6.9,45.4c0.5,3.1,0.9,6.1,1.4,9.2
				c0.3,1.8,0.5,3.7,0.8,5.5c8.8,59.9,16.6,113.9,24.9,151.6C1617,656.9,1508.4,676.7,1436.6,675.3z"/>
			<path class="st22" d="M1579.6,431.5c-0.3,0.1-0.7,0.3-1.1,0.4c-92.9,27.7-190.8,27.7-283.7,0.1c-0.4-0.1-0.7-0.2-1.1-0.4
				c0.5-3.2,0.9-6.4,1.4-9.6c2.2-14.9,4.5-30,6.9-45.3c0.1-0.6,0.2-1.2,0.3-1.8c0.9-5.7,1.8-11.3,2.7-17c0.9,0.1,1.8,0.3,2.6,0.5
				c84.4,26.1,173.7,26.1,258.1-0.1c0.9-0.3,1.8-0.5,2.6-0.5c0.9,5.7,1.8,11.4,2.7,17.1c0.1,0.7,0.2,1.4,0.3,2.1
				c2.4,15.3,4.7,30.5,6.9,45.4C1578.7,425.4,1579.1,428.5,1579.6,431.5z"/>
			<g>
				<path class="st23" d="M1307.6,358.3c84.4,21.7,173.7,21.7,258.1-0.1c9.1-2.4,18.3,3.6,19.8,12.9l4.9,30.2
					c1.3,8.2-3.9,16.1-12,18.1c-92.9,23-190.8,23.1-283.7,0.1c-8.1-2-13.3-9.9-12-18.1l4.9-30.2
					C1289.3,361.9,1298.5,356,1307.6,358.3z"/>
				<g>
					<path class="st16" d="M1326.4,392.4c1.2-5,6.4-8,11.5-6.8c5.2,1.1,8.6,6.1,7.6,11.1c-1,5-6.1,8.2-11.5,7
						C1328.5,402.5,1325.2,397.4,1326.4,392.4z"/>
					<path class="st16" d="M1393.1,403.6c0.5-5.1,5.1-8.8,10.4-8.5c5.2,0.4,9.3,4.7,9,9.9c-0.2,5.1-4.9,9.1-10.4,8.7
						C1396.6,413.3,1392.6,408.7,1393.1,403.6z"/>
					<path class="st16" d="M1460.5,405.1c-0.2-5.1,3.8-9.5,9-9.9c5.2-0.4,9.9,3.3,10.4,8.5c0.5,5.1-3.5,9.7-9,10.1
						C1465.4,414.1,1460.7,410.2,1460.5,405.1z"/>
					<path class="st16" d="M1527.5,396.6c-1-5,2.4-9.9,7.6-11.1c5.2-1.1,10.3,1.9,11.5,6.8c1.2,5-2.2,10.1-7.6,11.3
						C1533.6,404.9,1528.5,401.7,1527.5,396.6z"/>
				</g>
			</g>
			<ellipse class="st22" cx="1436.6" cy="247.3" rx="76.1" ry="84.6"/>
			<circle class="st23" cx="1436.6" cy="238.9" r="76.1"/>
			<circle class="st16" cx="1436.6" cy="238.9" r="57.4"/>
			<path class="st23" d="M1516.5,130.7c-5.5-4.6-11.2-8.8-17.1-12.7c-22-13.2-43-18.7-62.7-18.4c-19.7-0.2-40.7,5.2-62.7,18.4
				c-6,3.9-11.8,8.2-17.4,12.9c12.3-33.9,26.5-62,43.3-80.8c12.9-13.2,25.1-18.7,36.7-18.4c11.6-0.2,23.8,5.2,36.7,18.4
				C1490.1,68.8,1504.3,96.9,1516.5,130.7z"/>
			<path class="st24" d="M1457.3,89.1c0.4,1.6,1.6,2.8,3.2,3.1c9.1,1.8,18.4,5.4,28.1,11.2c0,0,0.1,0.1,0.1,0.1
				c3.5,2.3,7.8-1.3,6.2-5.1c-7.1-17-15.1-31.2-24.2-41.4c-6-6.1-12.1-12.4-17.9-15.8c-3.2-1.8-7,1.1-6.1,4.7L1457.3,89.1z"/>
			<path class="st25" d="M1459.1,651.5h-45.2l14.7,126.2c0.3,2.8,3.8,5,8,5h0c4.2,0,7.7-2.2,8-5L1459.1,651.5z"/>
			<path class="st14" d="M1436.5,670.6L1436.5,670.6c-11.2,0-20.7-8.5-22.9-20.3l-19.9-110.7c-4.5-25.2,15.9-48.3,42.8-48.3h0
				c26.9,0,47.3,23,42.8,48.3l-19.9,110.7C1457.2,662.1,1447.6,670.6,1436.5,670.6z"/>
			<g>
				<defs>
					<circle id="SVGID_00000083795998241022582650000003360323594293349515_" cx="1436.6" cy="238.9" r="57.4"/>
				</defs>
				<clipPath id="SVGID_00000128452498348299744510000001068765648897802905_">
					<use xlink:href="#SVGID_00000083795998241022582650000003360323594293349515_"  style="overflow:visible;"/>
				</clipPath>
				<g style="opacity:0.5;clip-path:url(#SVGID_00000128452498348299744510000001068765648897802905_);">
					<line class="st27" x1="1476.9" y1="196.2" x2="1392" y2="281.2"/>
					<line class="st28" x1="1499.8" y1="211.7" x2="1411.4" y2="300.1"/>
					<line class="st29" x1="1464.7" y1="168.5" x2="1366.3" y2="267"/>
				</g>
			</g>
		</g>
	</g>
</g>
</svg>
