<svg xmlns="http://www.w3.org/2000/svg" xmlns:xlink="http://www.w3.org/1999/xlink" viewBox="0 0 180 252"><defs><style>.cls-1,.cls-13,.cls-23,.cls-27{fill:none;}.cls-2{fill:#eaeaea;}.cls-3{fill:#323232;}.cls-4{fill:#fd8638;}.cls-5{fill:#aa1a88;}.cls-6{fill:#f7ec17;}.cls-7{fill:#ed6100;}.cls-8{fill:#febc90;}.cls-9{fill:url(#radial-gradient);}.cls-10{fill:url(#radial-gradient-2);}.cls-11{fill:url(#radial-gradient-3);}.cls-12{fill:#1b8b79;}.cls-13,.cls-23{stroke:#33d08c;}.cls-13,.cls-27{stroke-linecap:round;}.cls-13,.cls-23,.cls-27{stroke-miterlimit:10;}.cls-13{stroke-width:0.47px;}.cls-14{fill:#33d08c;}.cls-15{clip-path:url(#clip-path);}.cls-16{fill:#44f5a0;}.cls-17{clip-path:url(#clip-path-2);}.cls-18{fill:#f5faff;}.cls-19{fill:#9629ff;}.cls-20{fill:#023533;}.cls-21{clip-path:url(#clip-path-3);}.cls-22{clip-path:url(#clip-path-4);}.cls-23{stroke-width:0.37px;}.cls-24{clip-path:url(#clip-path-5);}.cls-25{fill:#fff;}.cls-26{fill:#a87df1;}.cls-27{stroke:#323232;stroke-width:0.5px;}</style><radialGradient id="radial-gradient" cx="-837.35" cy="1068.12" r="35.03" gradientTransform="matrix(0.84, 0.16, 0.16, 0.84, 605.88, -605.88)" gradientUnits="userSpaceOnUse"><stop offset="0" stop-color="#75d5d8" stop-opacity="0.5"/><stop offset="1" stop-color="#75d5d8" stop-opacity="0"/></radialGradient><radialGradient id="radial-gradient-2" cx="154.93" cy="67.23" r="56.45" gradientUnits="userSpaceOnUse"><stop offset="0" stop-color="#fd7922"/><stop offset="0.17" stop-color="#fd7922" stop-opacity="0.78"/><stop offset="0.39" stop-color="#fd7922" stop-opacity="0.51"/><stop offset="0.6" stop-color="#fd7922" stop-opacity="0.29"/><stop offset="0.78" stop-color="#fd7922" stop-opacity="0.13"/><stop offset="0.91" stop-color="#fd7922" stop-opacity="0.04"/><stop offset="1" stop-color="#fd7922" stop-opacity="0"/></radialGradient><radialGradient id="radial-gradient-3" cx="522.17" cy="-154.19" r="35.03" gradientTransform="matrix(1.06, -0.06, -0.06, 1.06, -394.85, 394.85)" xlink:href="#radial-gradient"/><clipPath id="clip-path"><path class="cls-1" d="M50.6,42.62c-1,1-2.37,4.29-3,5.77C46.38,51,45,52.61,42.69,52.61S39,51,37.83,48.41c-.7-1.47-2-4.74-3.08-5.79C32,39.87,31,36,31.63,31.74c1-7.06,4.57-10.27,11.06-10.27s10.22,3.37,11.05,10.27C54.25,36,53.33,39.89,50.6,42.62Z"/></clipPath><clipPath id="clip-path-2"><path class="cls-1" d="M45.52,37c-.74,1.72-.62,3,.17,3.75,1.43.13,4-.08,5-1.7.75-1.28,1.14-2.93-.16-4.22A4.47,4.47,0,0,0,45.52,37Z"/></clipPath><clipPath id="clip-path-3"><path class="cls-1" d="M39.8,37c.74,1.72.62,3-.18,3.72-1.43.13-4-.05-4.95-1.67-.74-1.28-1.14-2.93.16-4.22A4.48,4.48,0,0,1,39.8,37Z"/></clipPath><clipPath id="clip-path-4"><path class="cls-1" d="M31.64,31.74c-.06,1.67.9,2.48.79,2.8s-.5.32-.95.12c0,0-4.32-1.45-4.3-3.91,0-4.48,5.89-6.36,7.45-6.32A13.44,13.44,0,0,0,31.64,31.74Z"/></clipPath><clipPath id="clip-path-5"><path class="cls-1" d="M53.74,31.74c.06,1.67-.9,2.48-.79,2.8s.49.32.95.12c0,0,4.31-1.45,4.3-3.91,0-4.48-5.9-6.36-7.45-6.32A13.44,13.44,0,0,1,53.74,31.74Z"/></clipPath></defs><g id="Layer_2" data-name="Layer 2"><g id="content"><rect id="card" class="cls-2" width="180" height="252"/><g id="background"><polygon class="cls-3" points="169 11 169 224 152 241 11 241 11 28.26 28.26 11 169 11"/><polygon class="cls-4" points="60.02 252 25.02 252 25.02 58.51 42.52 76.02 60.02 58.51 60.02 252"/><polygon class="cls-4" points="25.02 0 60.02 0 60.02 30.51 42.52 13.01 25.02 30.51 25.02 0"/><path class="cls-5" d="M54.09,57.44c-1.17-.65-3.08-1-4.11-1.65L42,55,35.78,56a42,42,0,0,0-2.12,4.11L42.52,69Z"/><path class="cls-6" d="M38.93,55.45a9.65,9.65,0,0,0-5,4.92L30.31,56.8C33.73,56.16,38.93,55.45,38.93,55.45Z"/><path id="shoulder" class="cls-6" d="M54.46,57.07c-1.39-.27-2.41-.45-2.41-.45s-1.15.7-2,3.86c-.11.42-.21.86-.29,1.29Z"/><path class="cls-7" d="M42.52,71.13l-24-24V34.89l24-24,24,24V47.13Zm-21-25.25,21,21,21-21V36.13l-21-21-21,21Z"/><circle class="cls-8" cx="25.02" cy="90.79" r="1.13"/><circle class="cls-8" cx="149.51" cy="58.99" r="1.75"/><circle class="cls-8" cx="91.75" cy="218.37" r="1.75"/><circle class="cls-8" cx="157.26" cy="131.11" r="1.13"/><circle class="cls-8" cx="161.11" cy="68.91" r="1.13"/><circle class="cls-8" cx="76.15" cy="30.85" r="1.13"/><circle class="cls-8" cx="67.52" cy="157.5" r="1.13"/><path class="cls-9" d="M71.25,146.75c3.2,3.2,3.12,4.95,3.12,4.95s-1.75.08-5-3.12S51.66,129,51.66,129,68.05,143.55,71.25,146.75Z"/><path id="planet" class="cls-10" d="M150,23.19A26.64,26.64,0,1,1,99.65,11H147A26.57,26.57,0,0,1,150,23.19Z"/><path class="cls-11" d="M162.89,192.32c3.2,3.2,2.51,5.55,2.51,5.55s-2.34.68-5.55-2.52-17.16-20.19-17.16-20.19S159.69,189.12,162.89,192.32Z"/></g><path class="cls-12" d="M47.87,31.38a30.21,30.21,0,0,0,7.81,18.68l1.44,1.56c3.2,3.61,6.14,7.83,6.79,12.75.05.81.38,3.9-1.08,3.62a.9.9,0,0,1-.57-.74C60.49,62.24,55.69,59,51.49,56a32.93,32.93,0,0,1-6.66-6,31.89,31.89,0,0,1-7.37-18.56c.06-7,10.19-7.13,10.41-.11Z"/><path class="cls-13" d="M48.93,33.23l-1.87.61a36.45,36.45,0,0,1-4,1,23.05,23.05,0,0,1-4.12.33c-1.16,0-2-.12-2-.12"/><path class="cls-13" d="M49.17,36.2s-.67.34-1.65.79a29.72,29.72,0,0,1-3.6,1.42,19.78,19.78,0,0,1-3.8.72c-1.09.1-1.86.09-1.86.09"/><path class="cls-13" d="M49.76,39.18s-.58.4-1.44.93a26,26,0,0,1-3.16,1.71,17.79,17.79,0,0,1-3.43,1c-1,.19-1.71.25-1.71.25"/><path class="cls-13" d="M50.67,42.12s-.48.43-1.2,1a20.3,20.3,0,0,1-2.67,1.92,14.46,14.46,0,0,1-3,1.29,16,16,0,0,1-1.56.39"/><path class="cls-13" d="M51.93,45s-.39.47-1,1.09a17.37,17.37,0,0,1-2.17,2.05,12,12,0,0,1-2.62,1.47,13.52,13.52,0,0,1-1.39.51"/><path class="cls-13" d="M53.56,47.64s-.28.47-.71,1.1a13.3,13.3,0,0,1-1.69,2.1A10,10,0,0,1,49,52.41a10.79,10.79,0,0,1-1.21.57"/><path class="cls-13" d="M55.52,50.17l-.13.31c-.07.2-.18.48-.32.8a8.87,8.87,0,0,1-1.24,2,9.91,9.91,0,0,1-1.78,1.55c-.28.2-.53.36-.7.47l-.3.16"/><path class="cls-13" d="M58.06,53.1a8.7,8.7,0,0,1-.4,1,6.58,6.58,0,0,1-1.15,1.69A7.48,7.48,0,0,1,54.83,57c-.52.28-.92.46-.92.46"/><path class="cls-13" d="M60.39,56.25a5.72,5.72,0,0,1-.38.83,4.33,4.33,0,0,1-1,1.36,5.35,5.35,0,0,1-1.52.81c-.48.17-.85.27-.85.27"/><path class="cls-13" d="M62.33,59.72a6.11,6.11,0,0,1-.35.68,2.84,2.84,0,0,1-.9,1,3.66,3.66,0,0,1-1.31.39c-.41,0-.73.07-.73.07"/><path class="cls-13" d="M63.61,63.52s-.46,1-1,1.16a1.89,1.89,0,0,1-.94-.06c-.31-.07-.56-.15-.56-.15"/><g id="character_headshot" data-name="character headshot"><path class="cls-14" d="M38.1,55.83c.12,0,6.24-1.37,10.71-.38s-7.21,8.64-7.21,8.64a6.51,6.51,0,0,1-3-2.58C36.66,57.83,38.1,55.83,38.1,55.83Z"/><path class="cls-6" d="M36.77,54c.16-1.74,1.24-6.41,6.92-6.61s-4.67,8.26-4.27,11S36.77,54,36.77,54Z"/><path class="cls-14" d="M46.82,61s-2,2.66-4.69,2.66A2.61,2.61,0,0,1,39.46,61s0-2.72,0-7.78.11-9.22.11-9.22l8.35-4.31A50.17,50.17,0,0,0,46.08,53.2,39.28,39.28,0,0,0,46.82,61Z"/><path class="cls-6" d="M41.6,64.09s1.62.44,5.85-3.31A13.88,13.88,0,0,0,50,56.85a12.54,12.54,0,0,0,1.34-3.93,2.72,2.72,0,0,0-.67-2.46,6.17,6.17,0,0,0-3.84-2.18l-.53-.06a39.73,39.73,0,0,0-.15,7.23,5.61,5.61,0,0,1,.08,1.29,7.77,7.77,0,0,1-1.1,3.57C43.79,62.43,41.93,63.46,41.6,64.09Z"/><path class="cls-6" d="M41.6,64.09s-1.78-.64-2.14-5.23c-.07-.89-.15-2.23-.15-2.23L36.77,54a16,16,0,0,0,.44,5.32C38.38,64.11,41.6,64.09,41.6,64.09Z"/><g class="cls-15"><rect class="cls-16" x="30.91" y="20.23" width="23.57" height="33.28"/><path class="cls-6" d="M37.86,22.5c-.16.32.15,1.16.61,1.84a15.41,15.41,0,0,0,1.62,2.06c.6.67,1.25,1.31,1.91,1.93s1.35,1.24,2,1.78l-2.73,0h0c.66-.56,1.35-1.19,2-1.82s1.29-1.27,1.89-1.94a17.32,17.32,0,0,0,1.63-2.06c.47-.67.8-1.56.67-1.8l-.07-.13a.65.65,0,0,1,1.09-.71,2.19,2.19,0,0,1,.31,1.9A6.4,6.4,0,0,1,48.27,25a18.55,18.55,0,0,1-1.52,2.47,43.4,43.4,0,0,1-3.61,4.39h0l-.47.51-.48-.5a42.65,42.65,0,0,1-3.67-4.37A15.91,15.91,0,0,1,37,25a6,6,0,0,1-.52-1.48,2.31,2.31,0,0,1,.34-1.87.65.65,0,0,1,.92-.12.66.66,0,0,1,.18.82Z"/></g><g class="cls-17"><rect class="cls-18" x="43.75" y="33.63" width="8.3" height="8.12"/><circle class="cls-19" cx="47.42" cy="38.48" r="2.84"/><circle cx="47.42" cy="38.48" r="1.42"/><path class="cls-20" d="M45.59,41.68s-1.9-4,1.83-6a3.89,3.89,0,0,1,2.5-.2c.37.27.77.55.79,2a3.76,3.76,0,0,1-1.48,2.91l2.49-.73,1-8.31-6.51.33L43.05,41Z"/></g><g class="cls-21"><rect class="cls-18" x="33.27" y="33.63" width="8.3" height="8.12" transform="translate(74.84 75.37) rotate(-180)"/><circle class="cls-19" cx="37.89" cy="38.48" r="2.84"/><circle cx="37.89" cy="38.48" r="1.42"/><path class="cls-20" d="M39.73,41.68s1.9-4-1.84-6a3.86,3.86,0,0,0-2.49-.2c-.38.27-.78.55-.79,2a3.73,3.73,0,0,0,1.48,2.91l-2.49-.73-1-8.31,6.5.33L42.26,41Z"/></g><path class="cls-12" d="M45.84,45s-1.52,1.9-3,1.91S39.67,45,39.67,45a9,9,0,0,0,3.08.81A9.08,9.08,0,0,0,45.84,45Z"/><path class="cls-14" d="M33.82,33.43A3.31,3.31,0,0,1,36,31.87a5.74,5.74,0,0,1,1.43-.14,9.67,9.67,0,0,1,1.42.18.6.6,0,1,1-.23,1.17l-.12,0h0a7.21,7.21,0,0,0-1.18-.42,4.67,4.67,0,0,0-1.23-.16A3.07,3.07,0,0,0,33.82,33.43Z"/><path class="cls-14" d="M51.55,33.32a3.05,3.05,0,0,0-2.35-.87,5.13,5.13,0,0,0-1.22.22,8.34,8.34,0,0,0-1.16.48h0a.6.6,0,0,1-.53-1.08l.13,0a8.32,8.32,0,0,1,1.41-.25,5.7,5.7,0,0,1,1.43.07A3.37,3.37,0,0,1,51.55,33.32Z"/><g class="cls-22"><path class="cls-12" d="M31.64,31.74c-.06,1.67.9,2.48.79,2.8s-.5.32-.95.12c0,0-4.32-1.45-4.3-3.91,0-4.48,5.89-6.36,7.45-6.32A13.44,13.44,0,0,0,31.64,31.74Z"/><path class="cls-23" d="M32.24,32.37a3.7,3.7,0,0,0-3.09-.74c-1.89.37-.57,2.3,1.24,3"/><path class="cls-23" d="M32.69,31.26A4.23,4.23,0,0,0,30.91,29a2.47,2.47,0,0,0-4,2"/><path class="cls-23" d="M29.64,26.1a1.77,1.77,0,0,1,1.27,0,3.34,3.34,0,0,1,2,2.44"/><path class="cls-23" d="M33.21,24.27s1.42.16,1.42,2.48"/></g><g class="cls-24"><path class="cls-12" d="M53.74,31.74c.06,1.67-.9,2.48-.79,2.8s.49.32.95.12c0,0,4.31-1.45,4.3-3.91,0-4.48-5.9-6.36-7.45-6.32A13.44,13.44,0,0,1,53.74,31.74Z"/><path class="cls-23" d="M53.14,32.37a3.68,3.68,0,0,1,3.09-.74c1.89.37.57,2.3-1.24,3"/><path class="cls-23" d="M52.69,31.26A4.23,4.23,0,0,1,54.47,29a2.47,2.47,0,0,1,4,2"/><path class="cls-23" d="M55.74,26.1a1.77,1.77,0,0,0-1.27,0,3.37,3.37,0,0,0-2,2.44"/><path class="cls-23" d="M52.16,24.27s-1.41.16-1.41,2.48"/></g></g><path class="cls-25" d="M76.87,63.12a1.12,1.12,0,0,1-1.15,1.12h-.6v1.14h-.79V62h1.39A1.11,1.11,0,0,1,76.87,63.12Zm-.79,0a.41.41,0,0,0-.44-.43h-.52v.87h.52A.42.42,0,0,0,76.08,63.12Z"/><path class="cls-25" d="M77.61,62h.8v2.68h1.08v.7H77.61Z"/><path class="cls-25" d="M82.68,62v3.38h-.79v-1H81v1h-.79V62ZM81,63.66h.88v-1H81Z"/><path class="cls-25" d="M86.06,63.08a1,1,0,0,0-.85-.45,1.06,1.06,0,0,0,0,2.1,1,1,0,0,0,.85-.45l.52.47a1.57,1.57,0,0,1-1.37.7,1.76,1.76,0,0,1,0-3.52,1.6,1.6,0,0,1,1.39.7Z"/><path class="cls-25" d="M87.29,62h2v.69H88.08v.65h1.13V64H88.08v.67h1.25v.7h-2Z"/><path class="cls-25" d="M91.4,63.69a1.72,1.72,0,1,1,1.72,1.76A1.66,1.66,0,0,1,91.4,63.69Zm2.63,0a.92.92,0,0,0-.91-1c-.57,0-.91.42-.91,1s.34,1.05.91,1.05S94,64.32,94,63.68Z"/><path class="cls-25" d="M95.64,62h2v.69H96.44v.79h1.14v.68H96.44v1.22h-.8Z"/><path class="cls-25" d="M99.56,63.69a1.73,1.73,0,1,1,1.72,1.76A1.66,1.66,0,0,1,99.56,63.69Zm2.64,0a.92.92,0,1,0-1.83,0c0,.64.35,1.05.91,1.05A.92.92,0,0,0,102.2,63.68Z"/><path class="cls-25" d="M104.81,64.11h-.21v1.27h-.79V62h2.37v2.11h-.5l.73,1.27h-.87Zm.58-1.42h-.79v.78h.79Z"/><path class="cls-25" d="M107.16,62H108v3.38h-.79Z"/><path class="cls-25" d="M110.34,63.48h1.75a1.78,1.78,0,0,1,0,.33,1.54,1.54,0,0,1-1.63,1.64,1.76,1.76,0,0,1,0-3.52,1.6,1.6,0,0,1,1.38.7l-.54.45a1,1,0,0,0-.84-.45,1.06,1.06,0,0,0,0,2.11.79.79,0,0,0,.83-.57h-1Z"/><path class="cls-25" d="M112.89,62h.8v3.38h-.8Z"/><path class="cls-25" d="M116.63,65.38l-1.21-2h0v2h-.76V62h.81l1.2,2h0V62h.75v3.38Z"/><path class="cls-25" d="M118.3,63.41a.44.44,0,0,1,.44-.44.43.43,0,0,1,.44.44.44.44,0,0,1-.44.44A.44.44,0,0,1,118.3,63.41Zm0,1.59a.44.44,0,0,1,.44-.44.43.43,0,0,1,.44.44.44.44,0,0,1-.44.44A.44.44,0,0,1,118.3,65Z"/><path class="cls-25" d="M122.87,63.66h1.78a.62.62,0,0,1,0,.16A1.54,1.54,0,0,1,123,65.45a1.76,1.76,0,0,1,0-3.52,1.63,1.63,0,0,1,1.37.69l-.26.2a1.32,1.32,0,0,0-1.11-.56,1.43,1.43,0,0,0,0,2.85A1.18,1.18,0,0,0,124.28,64h-1.41Z"/><path class="cls-25" d="M126.2,63.07v.32h-.67v2h-.36V63.07Z"/><path class="cls-25" d="M127.6,63a.93.93,0,0,1,.89.49h0c0-.07,0-.13,0-.25v-.16h.34v2.31h-.34v-.22c0-.1,0-.18,0-.25h0a.94.94,0,0,1-.9.54,1.16,1.16,0,0,1-1.2-1.23A1.18,1.18,0,0,1,127.6,63Zm.89,1.23a.87.87,0,1,0-1.73,0,.87.87,0,1,0,1.73,0Z"/><path class="cls-25" d="M129.74,66.09h1.31v-1h0a.66.66,0,0,1-.66.34.87.87,0,0,1-.87-.93V63.07h.36v1.42a.59.59,0,1,0,1.18,0V63.07h.36v3.34h-1.67Z"/><path class="cls-25" d="M132.12,62h.36v2.06h.23a.71.71,0,0,0,.8-.75,1.1,1.1,0,0,0,0-.25h.37a1.93,1.93,0,0,1,0,.26,1,1,0,0,1-.53.93l.65,1.12h-.42l-.58-1-.27,0h-.24v1h-.36Z"/><path class="cls-25" d="M134.26,64.22a1.22,1.22,0,1,1,1.22,1.23A1.2,1.2,0,0,1,134.26,64.22Zm2.08,0a.86.86,0,1,0-1.71,0,.86.86,0,1,0,1.71,0Z"/><path class="cls-25" d="M138.27,63.07v.32h-.67v2h-.36V63.07Z"/><path class="cls-25" d="M139.85,64.69a.84.84,0,0,0,.74.42.73.73,0,0,0,.77-.74.72.72,0,0,0-.76-.74.77.77,0,0,0-.6.28l-.25-.11V62h1.83v.32H140.1v1.15a1,1,0,0,1,.58-.17,1,1,0,0,1,1.06,1.07,1.08,1.08,0,0,1-1.15,1.08,1.11,1.11,0,0,1-1-.55Z"/><path class="cls-25" d="M74.64,74.42a.48.48,0,0,0,.46.32.44.44,0,0,0,.47-.48V72.69H74.33V72h2v2.19a1.17,1.17,0,0,1-1.25,1.26A1.08,1.08,0,0,1,74,74.8Z"/><path class="cls-25" d="M77.13,73.69a1.72,1.72,0,1,1,1.72,1.76A1.66,1.66,0,0,1,77.13,73.69Zm2.63,0a.92.92,0,0,0-.91-1.05c-.57,0-.91.42-.91,1.05s.34,1,.91,1S79.76,74.32,79.76,73.68Z"/><path class="cls-25" d="M82.74,75.38H81.38V72h1.3a.92.92,0,0,1,1,.91.75.75,0,0,1-.46.72.86.86,0,0,1,.53.83A1,1,0,0,1,82.74,75.38Zm-.57-2h.41a.32.32,0,0,0,.35-.34.32.32,0,0,0-.34-.34h-.42Zm.83,1a.34.34,0,0,0-.36-.34h-.47v.69h.48A.34.34,0,0,0,83,74.34Z"/><path class="cls-25" d="M86.4,72.69h-.79V72H88v.69h-.8v2.69H86.4Z"/><path class="cls-25" d="M88.71,72h.8v3.38h-.8Z"/><path class="cls-25" d="M91,72.69h-.78V72h2.37v.69h-.79v2.69H91Z"/><path class="cls-25" d="M93.33,72h.8v2.68h1.08v.7H93.33Z"/><path class="cls-25" d="M97,75.45c-.78,0-1.25-.42-1.25-1a.83.83,0,0,1,.59-.85.8.8,0,0,1-.5-.77c0-.55.46-.9,1.18-.9a1.34,1.34,0,0,1,1,.38l-.41.54a.76.76,0,0,0-.58-.22c-.31,0-.43.13-.43.32s.19.37.55.37h.46V74h-.52c-.35,0-.54.14-.54.37s.17.39.49.39a.78.78,0,0,0,.58-.21l.39.52A1.19,1.19,0,0,1,97,75.45Z"/><path class="cls-25" d="M98.68,73.41a.44.44,0,0,1,.44-.44.43.43,0,0,1,.44.44.44.44,0,0,1-.44.44A.44.44,0,0,1,98.68,73.41Zm0,1.59a.44.44,0,0,1,.44-.44.43.43,0,0,1,.44.44.44.44,0,0,1-.44.44A.44.44,0,0,1,98.68,75Z"/><path class="cls-25" d="M104.21,73.05a1,1,0,0,1-1.1,1h-.86v1.28h-.37V72h1.23A1,1,0,0,1,104.21,73.05Zm-.38,0a.71.71,0,0,0-.76-.73h-.82v1.46h.82A.71.71,0,0,0,103.83,73.05Z"/><path class="cls-25" d="M105.63,73a1,1,0,0,1,.9.49h0v-.41h.33v2.31h-.33v-.47h0a1,1,0,0,1-.91.54,1.16,1.16,0,0,1-1.2-1.23A1.18,1.18,0,0,1,105.63,73Zm.89,1.23a.87.87,0,1,0-.87.9A.86.86,0,0,0,106.52,74.22Z"/><path class="cls-25" d="M107.57,72h.36v3.06h.67v.32h-1Z"/><path class="cls-25" d="M110,75.45A1.23,1.23,0,0,1,110,73a1.15,1.15,0,0,1,1.14,1.23s0,.12,0,.16h-2a.82.82,0,0,0,.85.74.91.91,0,0,0,.73-.35l.21.21A1.11,1.11,0,0,1,110,75.45Zm-.84-1.38h1.61a.76.76,0,0,0-.78-.76A.83.83,0,0,0,109.14,74.07Z"/><path class="cls-25" d="M111.46,74.22a1.22,1.22,0,1,1,1.22,1.23A1.2,1.2,0,0,1,111.46,74.22Zm2.07,0a.85.85,0,1,0-1.7,0,.85.85,0,1,0,1.7,0Z"/><path class="cls-25" d="M116.33,73.07v2.31H116v-2h-1.18v2h-.36V73.07Z"/><path class="cls-25" d="M117.12,73.38h-.26v-.31h.26v-.62h.36v.62h.71v.31h-.71v1.68h.64v.32h-1Z"/><path class="cls-25" d="M118.43,74.22a1.22,1.22,0,1,1,1.22,1.23A1.2,1.2,0,0,1,118.43,74.22Zm2.07,0a.85.85,0,1,0-1.7,0,.85.85,0,1,0,1.7,0Z"/><path class="cls-25" d="M121.4,72h.36v3.06h.67v.32h-1Z"/><path class="cls-25" d="M122.59,74.22a1.22,1.22,0,1,1,1.22,1.23A1.2,1.2,0,0,1,122.59,74.22Zm2.07,0a.85.85,0,1,0-1.7,0,.85.85,0,1,0,1.7,0Z"/><path class="cls-25" d="M126.54,73a1,1,0,0,1,.91.49h0a1.7,1.7,0,0,1,0-.24v-.17h.33v3.34h-1.73v-.32h1.37v-1c0-.12,0-.17,0-.25h0a.91.91,0,0,1-.87.49,1.15,1.15,0,0,1-1.17-1.19A1.13,1.13,0,0,1,126.54,73Zm-.78,1.19a.85.85,0,1,0,.84-.87A.83.83,0,0,0,125.76,74.18Z"/><path class="cls-25" d="M128.45,72.4a.23.23,0,1,1,.23.23A.23.23,0,0,1,128.45,72.4Zm.05,3V73.07h.36v2.31Z"/><path class="cls-25" d="M130.15,74l.31.14a.68.68,0,0,1-.29,1.32.78.78,0,0,1-.81-.61l.28-.15a.55.55,0,0,0,.55.44c.24,0,.41-.12.41-.34s-.11-.27-.35-.38l-.29-.13a.71.71,0,0,1-.5-.66.66.66,0,0,1,.72-.63.79.79,0,0,1,.78.53l-.27.14a.52.52,0,0,0-.5-.36c-.23,0-.38.13-.38.32S129.92,73.88,130.15,74Z"/><path class="cls-25" d="M131.58,73.38h-.26v-.31h.26v-.62h.36v.62h.72v.31h-.72v1.68h.65v.32h-1Z"/><path class="cls-25" d="M74.33,85.38V82h1.18a1.69,1.69,0,1,1,0,3.38Zm2.1-1.7a.88.88,0,0,0-.92-1h-.38v2h.38A.89.89,0,0,0,76.43,83.68Z"/><path class="cls-25" d="M79,84.11h-.17v1.27h-.8V82h1.34a1.09,1.09,0,0,1,1.16,1.07,1,1,0,0,1-.7,1l.77,1.35h-.89Zm.74-1a.41.41,0,0,0-.45-.4h-.46v.8h.46A.41.41,0,0,0,79.76,83.09Z"/><path class="cls-25" d="M81.38,82h2v.69H82.18v.65h1.13V84H82.18v.67h1.24v.7h-2Z"/><path class="cls-25" d="M86.69,85.38H85.9V84.5H85v.88h-.78V83.12a1.22,1.22,0,0,1,2.44,0ZM85,83.82h.87v-.64c0-.39-.19-.54-.43-.54s-.44.15-.44.54Z"/><path class="cls-25" d="M89,84.67l-.59-1.3h0v2h-.76V82h1l.72,1.66h0L90.09,82H91v3.38h-.76v-2h0l-.6,1.3Z"/><path class="cls-25" d="M93.64,84.42a.48.48,0,0,0,.46.32.44.44,0,0,0,.47-.48V82.69H93.33V82h2v2.19a1.17,1.17,0,0,1-1.25,1.26A1.08,1.08,0,0,1,93,84.8Z"/><path class="cls-25" d="M96.13,83.69a1.72,1.72,0,1,1,1.72,1.76A1.66,1.66,0,0,1,96.13,83.69Zm2.63,0a.92.92,0,0,0-.91-1.05c-.57,0-.91.42-.91,1.05s.34,1,.91,1S98.76,84.32,98.76,83.68Z"/><path class="cls-25" d="M100.37,82h1.3c.63,0,1,.33,1,.85a.67.67,0,0,1-.37.65v0a1.19,1.19,0,0,1,.28,0h.13v1.88h-2.39ZM102,84.69V84h-.83v.72Zm-.41-1.33a.32.32,0,0,0,.35-.34.32.32,0,0,0-.35-.34h-.41v.68Z"/><path class="cls-25" d="M105.46,82.69h-.79V82H107v.69h-.79v2.69h-.79Z"/><path class="cls-25" d="M107.77,82h.79v3.38h-.79Z"/><path class="cls-25" d="M110.08,82.69h-.79V82h2.38v.69h-.8v2.69h-.79Z"/><path class="cls-25" d="M112.39,82h.8v2.68h1.08v.7h-1.88Z"/><path class="cls-25" d="M115,82h2v.69h-1.22v.65h1.13V84h-1.13v.67H117v.7h-2Z"/><path class="cls-25" d="M117.8,83.41a.45.45,0,0,1,.45-.44.44.44,0,0,1,.44.44.44.44,0,0,1-.44.44A.45.45,0,0,1,117.8,83.41Zm0,1.59a.45.45,0,0,1,.45-.44.44.44,0,0,1,.44.44.44.44,0,0,1-.44.44A.45.45,0,0,1,117.8,85Z"/><path class="cls-25" d="M120.81,83.69a1.72,1.72,0,1,1,1.71,1.76A1.68,1.68,0,0,1,120.81,83.69Zm3,0a1.34,1.34,0,1,0-1.34,1.42A1.34,1.34,0,0,0,123.86,83.69Z"/><path class="cls-25" d="M124.76,82h.36v3.06h.67v.32h-1Z"/><path class="cls-25" d="M126.33,86.09h1.31v-.78c0-.09,0-.16,0-.23h0a.66.66,0,0,1-.67.34.86.86,0,0,1-.86-.93V83.07h.35v1.42a.59.59,0,1,0,1.18,0V83.07H128v3.34h-1.67Z"/><path class="cls-25" d="M131.86,85.38h-.36V83.84a.51.51,0,0,0-.53-.53.5.5,0,0,0-.52.53v1.54h-.36V83.84a.5.5,0,0,0-.52-.53.51.51,0,0,0-.53.53v1.54h-.36V83.84a.84.84,0,0,1,.89-.85.79.79,0,0,1,.71.39A.79.79,0,0,1,131,83a.83.83,0,0,1,.88.85Z"/><path class="cls-25" d="M133.79,85.45a1,1,0,0,1-.89-.45h0a1.49,1.49,0,0,1,0,.24v1.17h-.36V83.07h.34v.15a1.57,1.57,0,0,1,0,.25h0a1,1,0,0,1,.92-.48,1.23,1.23,0,0,1,0,2.46Zm-.9-1.23a.87.87,0,1,0,1.73,0,.87.87,0,1,0-1.73,0Z"/><path class="cls-25" d="M135.47,82.4a.23.23,0,1,1,.23.23A.23.23,0,0,1,135.47,82.4Zm.05,3V83.07h.36v2.31Z"/><path class="cls-25" d="M137.64,83a.93.93,0,0,1,.89.49h0a1.7,1.7,0,0,1,0-.25v-.16h.34v2.31h-.34v-.22a1.85,1.85,0,0,1,0-.25h0a.94.94,0,0,1-.9.54,1.16,1.16,0,0,1-1.2-1.23A1.18,1.18,0,0,1,137.64,83Zm.88,1.23a.87.87,0,1,0-.87.9A.86.86,0,0,0,138.52,84.22Z"/><path class="cls-25" d="M141.48,83.07v2.31h-.36v-2h-1.18v2h-.36V83.07Z"/><path class="cls-25" d="M145,82.72h0l-.72,2.66h-.42L143,82h.4l.65,2.77h0l.73-2.77h.35l.77,2.77h0l.65-2.77H147l-.83,3.38h-.41Z"/><path class="cls-25" d="M148.38,83a1,1,0,0,1,.9.49h0a1.7,1.7,0,0,1,0-.25v-.16h.33v2.31h-.33v-.22a1.85,1.85,0,0,1,0-.25h0a1,1,0,0,1-.9.54,1.17,1.17,0,0,1-1.21-1.23A1.18,1.18,0,0,1,148.38,83Zm.89,1.23a.87.87,0,1,0-.87.9A.86.86,0,0,0,149.27,84.22Z"/><path class="cls-25" d="M150.4,83.38h-.26v-.31h.26v-.62h.36v.62h.72v.31h-.72v1.68h.65v.32h-1Z"/><path class="cls-25" d="M152.93,85.45a1.23,1.23,0,0,1,0-2.46,1.14,1.14,0,0,1,1.14,1.23.86.86,0,0,1,0,.16h-2a.82.82,0,0,0,.84.74.93.93,0,0,0,.74-.35l.21.21A1.13,1.13,0,0,1,152.93,85.45Zm-.84-1.38h1.61a.76.76,0,0,0-.78-.76A.82.82,0,0,0,152.09,84.07Z"/><path class="cls-25" d="M155.62,83.07v.32h-.68v2h-.36V83.07Z"/><path class="cls-25" d="M76.75,89.05a1,1,0,0,1-1.1,1h-.87v1.28h-.37V88h1.24A1,1,0,0,1,76.75,89.05Zm-.38,0a.71.71,0,0,0-.76-.73h-.83v1.46h.83A.71.71,0,0,0,76.37,89.05Z"/><path class="cls-25" d="M77,90.22a1.22,1.22,0,1,1,1.22,1.23A1.2,1.2,0,0,1,77,90.22Zm2.08,0a.86.86,0,1,0-1.71,0,.86.86,0,1,0,1.71,0Z"/><path class="cls-25" d="M79.93,88h.36v3.06H81v.32h-1Z"/><path class="cls-25" d="M81.11,90.22a1.22,1.22,0,1,1,1.22,1.23A1.2,1.2,0,0,1,81.11,90.22Zm2.08,0a.86.86,0,1,0-1.71,0,.86.86,0,1,0,1.71,0Z"/><path class="cls-25" d="M84,88.4a.23.23,0,0,1,.23-.23.23.23,0,0,1,0,.46A.23.23,0,0,1,84,88.4Zm0,3V89.07h.36v2.31Z"/><path class="cls-25" d="M85.74,90l.31.14a.72.72,0,0,1,.5.66.7.7,0,0,1-.79.66.77.77,0,0,1-.81-.61l.28-.15a.55.55,0,0,0,.55.44c.24,0,.41-.12.41-.34s-.12-.27-.36-.38l-.28-.13a.69.69,0,0,1-.5-.66.66.66,0,0,1,.72-.63.79.79,0,0,1,.78.53l-.27.14a.53.53,0,0,0-.5-.36c-.23,0-.38.13-.38.32S85.51,89.88,85.74,90Z"/><path class="cls-25" d="M87.17,89.38h-.26v-.31h.26v-.62h.36v.62h.71v.31h-.71v1.68h.64v.32h-1Z"/><path class="cls-25" d="M77.89,104.11a1.71,1.71,0,0,0-1.41-.72,1.83,1.83,0,0,0,0,3.65,1.69,1.69,0,0,0,1.4-.72l.31.28a2,2,0,0,1-1.71.87,2.25,2.25,0,0,1,0-4.5,2.1,2.1,0,0,1,1.74.87Z"/><path class="cls-25" d="M78.79,107.38v-4.32h.46v1.36h2v3h-.46v-2.55H79.25v2.55Z"/><path class="cls-25" d="M83.45,104.33a1.19,1.19,0,0,1,1.14.62h0c0-.08,0-.16,0-.31v-.22H85v3h-.43v-.28c0-.13,0-.22,0-.32h0a1.19,1.19,0,0,1-1.15.69,1.48,1.48,0,0,1-1.53-1.57A1.5,1.5,0,0,1,83.45,104.33Zm1.13,1.57a1.11,1.11,0,1,0-1.11,1.15A1.1,1.1,0,0,0,84.58,105.9Z"/><path class="cls-25" d="M87.25,104.42v.41h-.86v2.55h-.46v-3Z"/><path class="cls-25" d="M91.76,107.38H91.3v-2a.65.65,0,0,0-.68-.68.64.64,0,0,0-.66.68v2H89.5v-2a.67.67,0,1,0-1.34,0v2H87.7v-2a1.08,1.08,0,0,1,1.13-1.09,1,1,0,0,1,.91.49,1,1,0,0,1,.9-.49,1.06,1.06,0,0,1,1.12,1.09Z"/><path class="cls-25" d="M94,104.33a1.22,1.22,0,0,1,1.14.62h0a2.55,2.55,0,0,1,0-.31v-.22h.43v3H95.1v-.28a3.11,3.11,0,0,1,0-.32h0a1.2,1.2,0,0,1-1.15.69,1.57,1.57,0,0,1,0-3.14Zm1.13,1.57A1.11,1.11,0,1,0,94,107.05,1.1,1.1,0,0,0,95.09,105.9Z"/><path class="cls-25" d="M96.37,103.57a.3.3,0,1,1,.3.3A.29.29,0,0,1,96.37,103.57Zm.07,3.81v-3h.46v3Z"/><path class="cls-25" d="M100.24,104.42v3h-.46v-2.55H98.27v2.55h-.46v-3Z"/><path class="cls-25" d="M102.48,107.47a1.57,1.57,0,0,1,0-3.14,1.47,1.47,0,0,1,1.46,1.57s0,.15,0,.2H101.4a1.05,1.05,0,0,0,1.09,1,1.14,1.14,0,0,0,.93-.45l.27.28A1.45,1.45,0,0,1,102.48,107.47Zm-1.08-1.76h2.07a1,1,0,0,0-1-1A1.06,1.06,0,0,0,101.4,105.71Z"/><path class="cls-25" d="M106.07,103.06h.46V107h.85v.41h-1.31Z"/><path class="cls-25" d="M107.59,105.9a1.56,1.56,0,1,1,1.56,1.57A1.53,1.53,0,0,1,107.59,105.9Zm2.65,0a1.09,1.09,0,1,0-1.09,1.15A1.09,1.09,0,0,0,110.24,105.9Z"/><path class="cls-25" d="M112.08,107.38l-1.11-3h.51l.89,2.55h0l.9-2.55h.5l-1.11,3Z"/><path class="cls-25" d="M115.61,107.47a1.57,1.57,0,0,1,0-3.14,1.47,1.47,0,0,1,1.46,1.57,1.36,1.36,0,0,1,0,.2h-2.51a1.05,1.05,0,0,0,1.08,1,1.14,1.14,0,0,0,.94-.45l.27.28A1.47,1.47,0,0,1,115.61,107.47Zm-1.08-1.76h2.07a1,1,0,0,0-1-1A1.06,1.06,0,0,0,114.53,105.71Z"/><path class="cls-25" d="M118.45,105.61l.39.18a.86.86,0,0,1-.36,1.68,1,1,0,0,1-1-.77l.36-.2a.7.7,0,0,0,.7.56c.31,0,.52-.15.52-.44s-.14-.34-.45-.48l-.36-.17a.87.87,0,0,1-.64-.83.84.84,0,0,1,.92-.81,1,1,0,0,1,1,.67l-.34.19a.66.66,0,0,0-.64-.47.43.43,0,0,0-.48.41C118,105.35,118.15,105.47,118.45,105.61Z"/><path class="cls-25" d="M121.43,104.42h.34v-1.36h1.32v.4h-.86v1h.82v.41h-.82v2.55h-.46v-2.55h-.34Z"/><path class="cls-25" d="M123.25,105.9a1.56,1.56,0,1,1,1.56,1.57A1.53,1.53,0,0,1,123.25,105.9Zm2.66,0a1.09,1.09,0,1,0-2.18,0,1.09,1.09,0,1,0,2.18,0Z"/><path class="cls-25" d="M127.79,105.61l.39.18a.88.88,0,0,1,.64.83c0,.5-.39.85-1,.85a1,1,0,0,1-1-.77l.36-.2a.7.7,0,0,0,.7.56c.31,0,.52-.15.52-.44s-.14-.34-.45-.48l-.36-.17a.87.87,0,0,1-.64-.83.84.84,0,0,1,.92-.81,1,1,0,0,1,1,.67l-.34.19a.67.67,0,0,0-.64-.47.44.44,0,0,0-.49.41C127.35,105.35,127.49,105.47,127.79,105.61Z"/><path class="cls-25" d="M130.25,105.61l.39.18a.86.86,0,0,1-.36,1.68,1,1,0,0,1-1-.77l.36-.2a.7.7,0,0,0,.7.56c.31,0,.52-.15.52-.44s-.14-.34-.45-.48L130,106a.87.87,0,0,1-.64-.83.84.84,0,0,1,.92-.81,1,1,0,0,1,1,.67l-.34.19a.67.67,0,0,0-.64-.47.44.44,0,0,0-.49.41C129.81,105.35,130,105.47,130.25,105.61Z"/><path class="cls-25" d="M131.91,103.57a.3.3,0,1,1,.3.3A.29.29,0,0,1,131.91,103.57Zm.07,3.81v-3h.46v3Z"/><path class="cls-25" d="M133.35,103.06h.46V107h.85v.41h-1.31Z"/><path class="cls-25" d="M135.88,105.61l.39.18a.88.88,0,0,1,.64.83c0,.5-.39.85-1,.85a1,1,0,0,1-1-.77l.36-.2a.7.7,0,0,0,.7.56c.31,0,.52-.15.52-.44s-.14-.34-.45-.48l-.36-.17a.87.87,0,0,1-.64-.83.84.84,0,0,1,.92-.81,1,1,0,0,1,1,.67l-.34.19a.67.67,0,0,0-.64-.47.44.44,0,0,0-.49.41C135.44,105.35,135.58,105.47,135.88,105.61Z"/><path class="cls-25" d="M138.85,104.42h.35v-1.36h1.32v.4h-.86v1h.82v.41h-.82v2.55h-.46v-2.55h-.35Z"/><path class="cls-25" d="M142.31,104.42v.41h-.86v2.55H141v-3Z"/><path class="cls-25" d="M142.54,105.9a1.56,1.56,0,1,1,1.56,1.57A1.53,1.53,0,0,1,142.54,105.9Zm2.65,0a1.09,1.09,0,1,0-1.09,1.15A1.09,1.09,0,0,0,145.19,105.9Z"/><path class="cls-25" d="M150.36,107.38h-.46v-2a.65.65,0,0,0-.68-.68.64.64,0,0,0-.66.68v2h-.46v-2a.67.67,0,1,0-1.34,0v2h-.46v-2a1.07,1.07,0,0,1,1.13-1.09,1,1,0,0,1,.91.49,1,1,0,0,1,.9-.49,1.06,1.06,0,0,1,1.12,1.09Z"/><path class="cls-25" d="M75.81,115.47a1.57,1.57,0,0,1,0-3.14,1.46,1.46,0,0,1,1.45,1.57s0,.15,0,.2H74.74a1.05,1.05,0,0,0,1.08,1,1.14,1.14,0,0,0,.93-.45l.28.28A1.48,1.48,0,0,1,75.81,115.47Zm-1.07-1.76H76.8a1,1,0,0,0-1-1A1,1,0,0,0,74.74,113.71Z"/><path class="cls-25" d="M78.62,115.38l-1.11-3H78l.89,2.55h0l.9-2.55h.5l-1.11,3Z"/><path class="cls-25" d="M82.15,115.47a1.57,1.57,0,0,1,0-3.14,1.47,1.47,0,0,1,1.46,1.57s0,.15,0,.2H81.07a1.05,1.05,0,0,0,1.08,1,1.14,1.14,0,0,0,.94-.45l.27.28A1.47,1.47,0,0,1,82.15,115.47Zm-1.08-1.76h2.07a1,1,0,0,0-1-1A1.06,1.06,0,0,0,81.07,113.71Z"/><path class="cls-25" d="M85.58,112.42v.41h-.86v2.55h-.46v-3Z"/><path class="cls-25" d="M86.36,116.29H88v-1a2.54,2.54,0,0,1,0-.3h0c-.06.17-.31.43-.85.43a1.11,1.11,0,0,1-1.11-1.18v-1.83h.46v1.82a.76.76,0,1,0,1.51,0v-1.82h.46v4.28H86.36Z"/><path class="cls-25" d="M91.62,113.61l.4.18a.86.86,0,0,1-.37,1.68,1,1,0,0,1-1-.77l.36-.2a.71.71,0,0,0,.71.56c.3,0,.51-.15.51-.44s-.14-.34-.44-.48l-.37-.17a.87.87,0,0,1-.64-.83.84.84,0,0,1,.92-.81,1,1,0,0,1,1,.67l-.34.19a.66.66,0,0,0-.64-.47.43.43,0,0,0-.48.41C91.19,113.35,91.33,113.47,91.62,113.61Z"/><path class="cls-25" d="M93.12,113.9a1.56,1.56,0,1,1,1.56,1.57A1.53,1.53,0,0,1,93.12,113.9Zm2.66,0a1.09,1.09,0,1,0-2.18,0,1.09,1.09,0,1,0,2.18,0Z"/><path class="cls-25" d="M99.19,113.22a1.16,1.16,0,1,0,0,1.32l.29.27a1.44,1.44,0,0,1-1.23.66,1.57,1.57,0,0,1,0-3.14,1.46,1.46,0,0,1,1.21.61Z"/><path class="cls-25" d="M100,111.57a.3.3,0,1,1,.3.3A.29.29,0,0,1,100,111.57Zm.07,3.81v-3h.46v3Z"/><path class="cls-25" d="M102.8,115.47a1.57,1.57,0,0,1,0-3.14,1.47,1.47,0,0,1,1.46,1.57,1.36,1.36,0,0,1,0,.2h-2.51a1.05,1.05,0,0,0,1.08,1,1.14,1.14,0,0,0,.94-.45l.27.28A1.47,1.47,0,0,1,102.8,115.47Zm-1.08-1.76h2.07a1,1,0,0,0-1-1A1.06,1.06,0,0,0,101.72,113.71Z"/><path class="cls-25" d="M105,112.83h-.34v-.41H105v-.78h.46v.78h.9v.41h-.9V115h.82v.41H105Z"/><path class="cls-25" d="M107.15,116.29h1.68v-1a2.54,2.54,0,0,1,0-.3h0c-.06.17-.31.43-.85.43a1.11,1.11,0,0,1-1.11-1.18v-1.83h.46v1.82a.76.76,0,1,0,1.51,0v-1.82h.46v4.28h-2.14Z"/><path class="cls-25" d="M113,112.33a1.19,1.19,0,0,1,1.14.62h0a2.55,2.55,0,0,1,0-.31v-.22h.43v3h-.43v-.28a3.11,3.11,0,0,1,0-.32h0a1.2,1.2,0,0,1-1.15.69,1.57,1.57,0,0,1,0-3.14Zm1.13,1.57a1.11,1.11,0,1,0-1.11,1.15A1.1,1.1,0,0,0,114.14,113.9Z"/><path class="cls-25" d="M117.91,112.42v3h-.46v-2.55H116v2.55h-.46v-3Z"/><path class="cls-25" d="M120.14,112.33a1.29,1.29,0,0,1,1.13.55h0c0-.08,0-.16,0-.31v-1.51h.46v4.32h-.43v-.25a2.41,2.41,0,0,1,0-.31h0a1.24,1.24,0,0,1-1.17.65,1.57,1.57,0,0,1,0-3.14Zm1.15,1.57a1.11,1.11,0,1,0-1.11,1.15A1.1,1.1,0,0,0,121.29,113.9Z"/><path class="cls-25" d="M125.72,115.47a1.22,1.22,0,0,1-1.14-.58h0a2.55,2.55,0,0,1,0,.31v1.5h-.46v-4.28h.43v.21a2.82,2.82,0,0,1,0,.31h0a1.35,1.35,0,0,1,1.19-.61,1.57,1.57,0,0,1,0,3.14Zm-1.15-1.57a1.1,1.1,0,1,0,1.11-1.16A1.09,1.09,0,0,0,124.57,113.9Z"/><path class="cls-25" d="M127.93,111.06h.46V115h.86v.41h-1.32Z"/><path class="cls-25" d="M131,112.33a1.19,1.19,0,0,1,1.14.62h0c0-.08,0-.16,0-.31v-.22h.43v3h-.43v-.28c0-.13,0-.22,0-.32h0a1.19,1.19,0,0,1-1.15.69,1.49,1.49,0,0,1-1.54-1.57A1.51,1.51,0,0,1,131,112.33Zm1.13,1.57a1.11,1.11,0,1,0-1.11,1.15A1.1,1.1,0,0,0,132.14,113.9Z"/><path class="cls-25" d="M135.92,112.42v3h-.46v-2.55H134v2.55h-.46v-3Z"/><path class="cls-25" d="M138.16,115.47a1.57,1.57,0,0,1,0-3.14,1.47,1.47,0,0,1,1.46,1.57s0,.15,0,.2h-2.52a1.05,1.05,0,0,0,1.09,1,1.14,1.14,0,0,0,.93-.45l.27.28A1.46,1.46,0,0,1,138.16,115.47Zm-1.08-1.76h2.07a1,1,0,0,0-1-1A1.06,1.06,0,0,0,137.08,113.71Z"/><path class="cls-25" d="M140.34,112.83H140v-.41h.34v-.78h.46v.78h.91v.41h-.91V115h.82v.41h-1.28Z"/><path class="cls-25" d="M142.52,115.7l-.24.56-.21-.08.22-.55c0-.07.05-.13.07-.19a.29.29,0,0,1-.25-.31.28.28,0,0,1,.28-.29.27.27,0,0,1,.29.3A1.43,1.43,0,0,1,142.52,115.7Z"/><path class="cls-25" d="M146.29,112.33a1.19,1.19,0,0,1,1.14.62h0a2.16,2.16,0,0,1,0-.31v-.22h.44v3h-.44v-.28a2.88,2.88,0,0,1,0-.32h0a1.19,1.19,0,0,1-1.15.69,1.57,1.57,0,0,1,0-3.14Zm1.13,1.57a1.11,1.11,0,1,0-1.11,1.15A1.1,1.1,0,0,0,147.42,113.9Z"/><path class="cls-25" d="M151.2,112.42v3h-.46v-2.55h-1.51v2.55h-.46v-3Z"/><path class="cls-25" d="M153.43,112.33a1.28,1.28,0,0,1,1.12.55h0a2.55,2.55,0,0,1,0-.31v-1.51H155v4.32h-.42v-.25a2.73,2.73,0,0,1,0-.31h0a1.24,1.24,0,0,1-1.17.65,1.57,1.57,0,0,1,0-3.14Zm1.15,1.57a1.11,1.11,0,1,0-1.11,1.15A1.1,1.1,0,0,0,154.58,113.9Z"/><path class="cls-25" d="M74.48,123.38v-4.32h.46v1.36h2v3h-.46v-2.55h-1.5v2.55Z"/><path class="cls-25" d="M79.15,123.47a1.57,1.57,0,0,1,0-3.14,1.47,1.47,0,0,1,1.46,1.57,1.36,1.36,0,0,1,0,.2H78.07a1.05,1.05,0,0,0,1.08,1,1.14,1.14,0,0,0,.94-.45l.27.28A1.47,1.47,0,0,1,79.15,123.47Zm-1.08-1.76h2.07a1,1,0,0,0-1-1A1.06,1.06,0,0,0,78.07,121.71Z"/><path class="cls-25" d="M81.26,119.06h.46V123h.85v.41H81.26Z"/><path class="cls-25" d="M84.67,123.47a1.22,1.22,0,0,1-1.14-.58h0a2.55,2.55,0,0,1,0,.31v1.5h-.46v-4.28h.43v.21a2.82,2.82,0,0,1,0,.31h0a1.35,1.35,0,0,1,1.19-.61,1.57,1.57,0,0,1,0,3.14Zm-1.15-1.57a1.1,1.1,0,1,0,1.11-1.16A1.09,1.09,0,0,0,83.52,121.9Z"/><path class="cls-25" d="M86.82,119.57a.3.3,0,1,1,.3.3A.29.29,0,0,1,86.82,119.57Zm.06,3.81v-3h.46v3Z"/><path class="cls-25" d="M90.69,120.42v3h-.46v-2.55H88.72v2.55h-.46v-3Z"/><path class="cls-25" d="M92.85,120.33A1.22,1.22,0,0,1,94,121h0a2.82,2.82,0,0,1,0-.31v-.22h.42v4.28H92.23v-.41H94v-1.22a2.73,2.73,0,0,1,0-.32h0a1.15,1.15,0,0,1-1.11.63,1.53,1.53,0,0,1,0-3Zm-1,1.52a1.08,1.08,0,1,0,1.07-1.11A1.06,1.06,0,0,0,91.85,121.85Z"/><path class="cls-25" d="M96.94,120.83H96.6v-.41h.34v-.78h.46v.78h.9v.41h-.9V123h.82v.41H96.94Z"/><path class="cls-25" d="M98.6,121.9a1.56,1.56,0,1,1,1.56,1.57A1.53,1.53,0,0,1,98.6,121.9Zm2.65,0a1.09,1.09,0,1,0-1.09,1.15A1.09,1.09,0,0,0,101.25,121.9Z"/><path class="cls-25" d="M105.48,123.47a1.2,1.2,0,0,1-1.13-.58h0a2.16,2.16,0,0,1,0,.31v1.5h-.46v-4.28h.43v.21a2.54,2.54,0,0,1,0,.31h0a1.32,1.32,0,0,1,1.18-.61,1.57,1.57,0,0,1,0,3.14Zm-1.15-1.57a1.11,1.11,0,1,0,1.11-1.16A1.1,1.1,0,0,0,104.33,121.9Z"/><path class="cls-25" d="M107.64,119.57a.28.28,0,0,1,.29-.28.28.28,0,0,1,.29.28.29.29,0,0,1-.29.3A.28.28,0,0,1,107.64,119.57Zm.06,3.81v-3h.46v3Z"/><path class="cls-25" d="M110.41,123.47a1.57,1.57,0,0,1,0-3.14,1.47,1.47,0,0,1,1.46,1.57s0,.15,0,.2h-2.52a1.05,1.05,0,0,0,1.08,1,1.14,1.14,0,0,0,.94-.45l.27.28A1.46,1.46,0,0,1,110.41,123.47Zm-1.08-1.76h2.07a1,1,0,0,0-1-1A1.06,1.06,0,0,0,109.33,121.71Z"/><path class="cls-25" d="M114.79,121.22a1.12,1.12,0,0,0-.93-.48,1.16,1.16,0,0,0,0,2.31,1.13,1.13,0,0,0,1-.51l.28.27a1.44,1.44,0,0,1-1.23.66,1.57,1.57,0,1,1,0-3.14,1.45,1.45,0,0,1,1.21.61Z"/><path class="cls-25" d="M117,123.47a1.57,1.57,0,0,1,0-3.14,1.46,1.46,0,0,1,1.45,1.57,1.34,1.34,0,0,1,0,.2h-2.51a1.05,1.05,0,0,0,1.08,1,1.14,1.14,0,0,0,.94-.45l.27.28A1.48,1.48,0,0,1,117,123.47Zm-1.07-1.76H118a1,1,0,0,0-1-1A1,1,0,0,0,115.92,121.71Z"/><path class="cls-25" d="M120.69,120.83h-.34v-.41h.34v-.78h.46v.78h.91v.41h-.91V123H122v.41h-1.28Z"/><path class="cls-25" d="M122.36,121.9a1.56,1.56,0,1,1,1.56,1.57A1.52,1.52,0,0,1,122.36,121.9Zm2.65,0a1.09,1.09,0,1,0-1.09,1.15A1.09,1.09,0,0,0,125,121.9Z"/><path class="cls-25" d="M127.41,120.33a1.21,1.21,0,0,1,1.16.62h0a2.82,2.82,0,0,1,0-.31v-.22H129v4.28h-2.21v-.41h1.75v-1.22a2.73,2.73,0,0,1,0-.32h0a1.13,1.13,0,0,1-1.11.63,1.53,1.53,0,0,1,0-3Zm-1,1.52a1.08,1.08,0,1,0,1.08-1.11A1.06,1.06,0,0,0,126.41,121.85Z"/><path class="cls-25" d="M131.25,123.47a1.57,1.57,0,0,1,0-3.14,1.47,1.47,0,0,1,1.46,1.57,1.36,1.36,0,0,1,0,.2h-2.51a1.05,1.05,0,0,0,1.08,1,1.14,1.14,0,0,0,.94-.45l.27.28A1.47,1.47,0,0,1,131.25,123.47Zm-1.08-1.76h2.07a1,1,0,0,0-1-1A1.06,1.06,0,0,0,130.17,121.71Z"/><path class="cls-25" d="M133.43,120.83h-.34v-.41h.34v-.78h.46v.78h.9v.41h-.9V123h.82v.41h-1.28Z"/><path class="cls-25" d="M135.36,123.38v-4.32h.46v1.36h2v3h-.46v-2.55h-1.51v2.55Z"/><path class="cls-25" d="M140,123.47a1.57,1.57,0,0,1,0-3.14,1.47,1.47,0,0,1,1.46,1.57s0,.15,0,.2H139a1.05,1.05,0,0,0,1.08,1,1.14,1.14,0,0,0,.94-.45l.27.28A1.47,1.47,0,0,1,140,123.47ZM139,121.71H141a1,1,0,0,0-1-1A1.06,1.06,0,0,0,139,121.71Z"/><path class="cls-25" d="M143.46,120.42v.41h-.86v2.55h-.46v-3Z"/><path class="cls-25" d="M145.43,120.83h-.34v-.41h.34v-.78h.46v.78h.91v.41h-.91V123h.82v.41h-1.28Z"/><path class="cls-25" d="M147.36,123.38v-4.32h.46v1.36h2v3h-.46v-2.55h-1.51v2.55Z"/><path class="cls-25" d="M152,123.47a1.57,1.57,0,0,1,0-3.14,1.46,1.46,0,0,1,1.45,1.57,1.34,1.34,0,0,1,0,.2H151a1.05,1.05,0,0,0,1.08,1,1.14,1.14,0,0,0,.94-.45l.27.28A1.48,1.48,0,0,1,152,123.47ZM151,121.71H153a1,1,0,0,0-1-1A1,1,0,0,0,151,121.71Z"/><path class="cls-25" d="M75.21,129.61l.39.18a.86.86,0,0,1-.36,1.68,1,1,0,0,1-1-.77l.36-.2a.7.7,0,0,0,.7.56c.31,0,.52-.15.52-.44s-.14-.34-.45-.48L75,130a.87.87,0,0,1-.64-.83.84.84,0,0,1,.92-.81,1,1,0,0,1,1,.67l-.34.19a.66.66,0,0,0-.64-.47.43.43,0,0,0-.48.41C74.78,129.35,74.91,129.47,75.21,129.61Z"/><path class="cls-25" d="M77,128.83H76.7v-.41H77v-.78h.46v.78h.91v.41H77.5V131h.82v.41H77Z"/><path class="cls-25" d="M78.71,129.9a1.56,1.56,0,1,1,1.56,1.57A1.53,1.53,0,0,1,78.71,129.9Zm2.65,0a1.09,1.09,0,1,0-1.09,1.15A1.09,1.09,0,0,0,81.36,129.9Z"/><path class="cls-25" d="M83.83,128.42v.41H83v2.55h-.46v-3Z"/><path class="cls-25" d="M84.3,127.57a.3.3,0,1,1,.3.3A.29.29,0,0,1,84.3,127.57Zm.07,3.81v-3h.46v3Z"/><path class="cls-25" d="M87.08,131.47a1.57,1.57,0,0,1,0-3.14,1.47,1.47,0,0,1,1.46,1.57,1.36,1.36,0,0,1,0,.2H86a1.05,1.05,0,0,0,1.08,1,1.14,1.14,0,0,0,.94-.45l.27.28A1.47,1.47,0,0,1,87.08,131.47ZM86,129.71h2.07a1,1,0,0,0-1-1A1.06,1.06,0,0,0,86,129.71Z"/><path class="cls-25" d="M89.92,129.61l.39.18a.86.86,0,0,1-.36,1.68,1,1,0,0,1-1-.77l.36-.2a.7.7,0,0,0,.7.56c.31,0,.52-.15.52-.44s-.14-.34-.45-.48l-.36-.17a.87.87,0,0,1-.64-.83.84.84,0,0,1,.92-.81,1,1,0,0,1,1,.67l-.34.19a.67.67,0,0,0-.64-.47.44.44,0,0,0-.49.41C89.48,129.35,89.62,129.47,89.92,129.61Z"/><path class="cls-25" d="M93.23,128.83h-.34v-.41h.34v-.78h.46v.78h.91v.41h-.91V131h.83v.41H93.23Z"/><path class="cls-25" d="M95.17,131.38v-4.32h.46v1.36h2v3h-.46v-2.55h-1.5v2.55Z"/><path class="cls-25" d="M99.83,131.47a1.57,1.57,0,0,1,0-3.14,1.47,1.47,0,0,1,1.46,1.57,1.36,1.36,0,0,1,0,.2H98.76a1.05,1.05,0,0,0,1.08,1,1.14,1.14,0,0,0,.94-.45l.27.28A1.48,1.48,0,0,1,99.83,131.47Zm-1.07-1.76h2.06a1,1,0,0,0-1-1A1,1,0,0,0,98.76,129.71Z"/><path class="cls-25" d="M102.19,132.29h1.68v-1a2.54,2.54,0,0,1,0-.3h0c-.06.17-.31.43-.85.43a1.11,1.11,0,0,1-1.11-1.18v-1.83h.46v1.82a.76.76,0,1,0,1.51,0v-1.82h.46v4.28h-2.14Z"/><path class="cls-25" d="M106.82,128.83h-.34v-.41h.34v-.78h.46v.78h.91v.41h-.91V131h.82v.41h-1.28Z"/><path class="cls-25" d="M110.05,131.47a1.57,1.57,0,0,1,0-3.14,1.47,1.47,0,0,1,1.46,1.57s0,.15,0,.2H109a1.05,1.05,0,0,0,1.08,1,1.14,1.14,0,0,0,.94-.45l.27.28A1.47,1.47,0,0,1,110.05,131.47ZM109,129.71H111a1,1,0,0,0-1-1A1.06,1.06,0,0,0,109,129.71Z"/><path class="cls-25" d="M112.16,127.06h.46V131h.85v.41h-1.31Z"/><path class="cls-25" d="M114,127.06h.46V131h.86v.41H114Z"/><path class="cls-25" d="M116.89,129.9a1.56,1.56,0,1,1,1.56,1.57A1.53,1.53,0,0,1,116.89,129.9Zm2.65,0a1.09,1.09,0,1,0-1.09,1.15A1.09,1.09,0,0,0,119.54,129.9Z"/><path class="cls-25" d="M120.41,128.42h.35v-1.36h1.32v.4h-.86v1H122v.41h-.82v2.55h-.46v-2.55h-.35Z"/><path class="cls-25" d="M125.21,128.33a1.19,1.19,0,0,1,1.14.62h0a2.55,2.55,0,0,1,0-.31v-.22h.43v3h-.43v-.28a3.11,3.11,0,0,1,0-.32h0a1.19,1.19,0,0,1-1.15.69,1.57,1.57,0,0,1,0-3.14Zm1.13,1.57a1.11,1.11,0,1,0-1.11,1.15A1.1,1.1,0,0,0,126.34,129.9Z"/><path class="cls-25" d="M130.12,128.42v3h-.46v-2.55h-1.51v2.55h-.46v-3Z"/><path class="cls-25" d="M133.84,131.47a1.57,1.57,0,0,1,0-3.14,1.47,1.47,0,0,1,1.46,1.57s0,.15,0,.2h-2.52a1.07,1.07,0,0,0,1.09,1,1.14,1.14,0,0,0,.93-.45l.27.28A1.45,1.45,0,0,1,133.84,131.47Zm-1.08-1.76h2.07a1,1,0,0,0-1-1A1.06,1.06,0,0,0,132.76,129.71Z"/><path class="cls-25" d="M137.28,128.33a1.19,1.19,0,0,1,1.14.62h0a2.55,2.55,0,0,1,0-.31v-.22h.43v3h-.43v-.28a3.11,3.11,0,0,1,0-.32h0a1.2,1.2,0,0,1-1.15.69,1.57,1.57,0,0,1,0-3.14Zm1.13,1.57a1.11,1.11,0,1,0-1.11,1.15A1.1,1.1,0,0,0,138.41,129.9Z"/><path class="cls-25" d="M141.08,128.42v.41h-.86v2.55h-.46v-3Z"/><path class="cls-25" d="M141.61,127.06h.46V131h.86v.41h-1.32Z"/><path class="cls-25" d="M143.37,127.57a.28.28,0,0,1,.29-.28.29.29,0,0,1,.3.28.29.29,0,0,1-.3.3A.28.28,0,0,1,143.37,127.57Zm.06,3.81v-3h.46v3Z"/><path class="cls-25" d="M146.14,131.47a1.57,1.57,0,0,1,0-3.14,1.47,1.47,0,0,1,1.46,1.57s0,.15,0,.2h-2.52a1.05,1.05,0,0,0,1.09,1,1.14,1.14,0,0,0,.93-.45l.27.28A1.45,1.45,0,0,1,146.14,131.47Zm-1.08-1.76h2.07a1,1,0,0,0-1-1A1.06,1.06,0,0,0,145.06,129.71Z"/><path class="cls-25" d="M149.57,128.42v.41h-.86v2.55h-.46v-3Z"/><path class="cls-25" d="M74.58,136.83h-.34v-.41h.34v-.78H75v.78H76v.41H75V139h.82v.41H74.58Z"/><path class="cls-25" d="M76.45,135.57a.28.28,0,0,1,.29-.28.29.29,0,0,1,.3.28.29.29,0,0,1-.3.3A.29.29,0,0,1,76.45,135.57Zm.06,3.81v-3H77v3Z"/><path class="cls-25" d="M81.9,139.38h-.46v-2a.67.67,0,1,0-1.33,0v2h-.46v-2a.67.67,0,1,0-1.34,0v2h-.46v-2A1.07,1.07,0,0,1,79,136.33a1,1,0,0,1,.91.49,1,1,0,0,1,.91-.49,1.05,1.05,0,0,1,1.11,1.09Z"/><path class="cls-25" d="M84.11,139.47a1.57,1.57,0,0,1,0-3.14,1.47,1.47,0,0,1,1.46,1.57s0,.15,0,.2H83a1.05,1.05,0,0,0,1.08,1,1.14,1.14,0,0,0,.94-.45l.27.28A1.47,1.47,0,0,1,84.11,139.47ZM83,137.71H85.1a1,1,0,0,0-1-1A1.06,1.06,0,0,0,83,137.71Z"/><path class="cls-25" d="M86,139.13a.3.3,0,0,1,.29-.29.29.29,0,0,1,0,.58A.3.3,0,0,1,86,139.13Z"/><path class="cls-25" d="M88.57,137.22a2.19,2.19,0,1,1,2.19,2.25A2.16,2.16,0,0,1,88.57,137.22Zm3.9,0A1.71,1.71,0,1,0,90.76,139,1.72,1.72,0,0,0,92.47,137.22Z"/><path class="cls-25" d="M96.05,136.42v3h-.46v-2.55H94.08v2.55h-.46v-3Z"/><path class="cls-25" d="M99.23,137.22a1.12,1.12,0,0,0-.92-.48,1.16,1.16,0,0,0,0,2.31,1.13,1.13,0,0,0,.94-.51l.28.27a1.43,1.43,0,0,1-1.22.66,1.57,1.57,0,1,1,0-3.14,1.45,1.45,0,0,1,1.2.61Z"/><path class="cls-25" d="M101.43,139.47a1.57,1.57,0,0,1,0-3.14,1.46,1.46,0,0,1,1.45,1.57,1.34,1.34,0,0,1,0,.2h-2.51a1.05,1.05,0,0,0,1.08,1,1.14,1.14,0,0,0,.94-.45l.27.28A1.48,1.48,0,0,1,101.43,139.47Zm-1.07-1.76h2.06a1,1,0,0,0-1-1A1,1,0,0,0,100.36,137.71Z"/><path class="cls-25" d="M107.29,137.22a1.13,1.13,0,1,0-.92,1.83,1.13,1.13,0,0,0,.95-.51l.28.27a1.44,1.44,0,0,1-1.23.66,1.57,1.57,0,0,1,0-3.14,1.46,1.46,0,0,1,1.21.61Z"/><path class="cls-25" d="M107.94,137.9a1.56,1.56,0,1,1,1.56,1.57A1.53,1.53,0,0,1,107.94,137.9Zm2.65,0a1.09,1.09,0,1,0-1.09,1.15A1.09,1.09,0,0,0,110.59,137.9Z"/><path class="cls-25" d="M115.76,139.38h-.46v-2a.65.65,0,0,0-.68-.68.64.64,0,0,0-.66.68v2h-.46v-2a.67.67,0,1,0-1.34,0v2h-.46v-2a1.08,1.08,0,0,1,1.13-1.09,1,1,0,0,1,.91.49,1,1,0,0,1,.9-.49,1.06,1.06,0,0,1,1.12,1.09Z"/><path class="cls-25" d="M118.22,139.47a1.2,1.2,0,0,1-1.13-.58h0a2.16,2.16,0,0,1,0,.31v1.5h-.46v-4.28h.43v.21a1.42,1.42,0,0,1,0,.31h0a1.34,1.34,0,0,1,1.19-.61,1.57,1.57,0,0,1,0,3.14Zm-1.15-1.57a1.11,1.11,0,1,0,1.11-1.16A1.1,1.1,0,0,0,117.07,137.9Z"/><path class="cls-25" d="M120.44,135.06h.46V139h.85v.41h-1.31Z"/><path class="cls-25" d="M123.52,139.47a1.57,1.57,0,0,1,0-3.14A1.47,1.47,0,0,1,125,137.9s0,.15,0,.2h-2.52a1.05,1.05,0,0,0,1.08,1,1.14,1.14,0,0,0,.94-.45l.27.28A1.45,1.45,0,0,1,123.52,139.47Zm-1.08-1.76h2.07a1,1,0,0,0-1-1A1.06,1.06,0,0,0,122.44,137.71Z"/><path class="cls-25" d="M125.7,136.83h-.34v-.41h.34v-.78h.46v.78h.91v.41h-.91V139H127v.41H125.7Z"/><path class="cls-25" d="M127.57,135.57a.28.28,0,0,1,.29-.28.28.28,0,0,1,.29.28.29.29,0,0,1-.29.3A.28.28,0,0,1,127.57,135.57Zm.06,3.81v-3h.46v3Z"/><path class="cls-25" d="M131.43,136.42v3H131v-2.55h-1.51v2.55H129v-3Z"/><path class="cls-25" d="M133.59,136.33a1.21,1.21,0,0,1,1.16.62h0c0-.09,0-.18,0-.31v-.22h.43v4.28H133v-.41h1.76v-1.22a3,3,0,0,1,0-.32h0a1.16,1.16,0,0,1-1.12.63,1.53,1.53,0,0,1,0-3Zm-1,1.52a1.08,1.08,0,1,0,1.08-1.11A1.06,1.06,0,0,0,132.59,137.85Z"/><path class="cls-25" d="M137.58,139.38v-3H138V139h1.47v-2.55H140v3Z"/><path class="cls-25" d="M143.3,136.42v3h-.46v-2.55h-1.5v2.55h-.46v-3Z"/><path class="cls-25" d="M144.15,135.57a.28.28,0,0,1,.29-.28.29.29,0,0,1,.3.28.29.29,0,0,1-.3.3A.29.29,0,0,1,144.15,135.57Zm.06,3.81v-3h.46v3Z"/><path class="cls-25" d="M146.35,139.38l-1.11-3h.51l.89,2.55h0l.9-2.55h.5l-1.11,3Z"/><path class="cls-25" d="M149.88,139.47a1.57,1.57,0,0,1,0-3.14,1.47,1.47,0,0,1,1.46,1.57,1.36,1.36,0,0,1,0,.2H148.8a1.05,1.05,0,0,0,1.08,1,1.14,1.14,0,0,0,.94-.45l.27.28A1.47,1.47,0,0,1,149.88,139.47Zm-1.08-1.76h2.07a1,1,0,0,0-1-1A1,1,0,0,0,148.8,137.71Z"/><path class="cls-25" d="M153.31,136.42v.41h-.86v2.55H152v-3Z"/><path class="cls-25" d="M153.76,137h2v.4h-2Z"/><path class="cls-25" d="M75.21,145.61l.39.18a.86.86,0,0,1-.36,1.68,1,1,0,0,1-1-.77l.36-.2a.7.7,0,0,0,.7.56c.31,0,.52-.15.52-.44s-.14-.34-.45-.48L75,146a.87.87,0,0,1-.64-.83.84.84,0,0,1,.92-.81,1,1,0,0,1,1,.67l-.34.19a.66.66,0,0,0-.64-.47.43.43,0,0,0-.48.41C74.78,145.35,74.91,145.47,75.21,145.61Z"/><path class="cls-25" d="M76.87,143.57a.3.3,0,1,1,.3.3A.29.29,0,0,1,76.87,143.57Zm.07,3.81v-3h.46v3Z"/><path class="cls-25" d="M78.42,144.83h-.34v-.41h.34v-.78h.46v.78h.9v.41h-.9V147h.82v.41H78.42Z"/><path class="cls-25" d="M80.59,148.29h1.68v-1a2.54,2.54,0,0,1,0-.3h0c-.06.17-.31.43-.85.43a1.11,1.11,0,0,1-1.11-1.18v-1.83h.46v1.82a.76.76,0,1,0,1.51,0v-1.82h.46v4.28H80.59Z"/><path class="cls-25" d="M85.86,145.61l.39.18a.88.88,0,0,1,.64.83c0,.5-.4.85-1,.85a1,1,0,0,1-1-.77l.37-.2a.69.69,0,0,0,.7.56c.3,0,.52-.15.52-.44s-.15-.34-.45-.48l-.37-.17a.87.87,0,0,1-.64-.83.85.85,0,0,1,.92-.81,1,1,0,0,1,1,.67l-.35.19a.66.66,0,0,0-.64-.47.43.43,0,0,0-.48.41C85.42,145.35,85.56,145.47,85.86,145.61Z"/><path class="cls-25" d="M87.68,144.83h-.34v-.41h.34v-.78h.46v.78h.91v.41h-.91V147H89v.41H87.68Z"/><path class="cls-25" d="M89.62,147.38v-3h.46V147h1.47v-2.55H92v3Z"/><path class="cls-25" d="M94.23,144.33a1.28,1.28,0,0,1,1.13.55h0a2.55,2.55,0,0,1,0-.31v-1.51h.45v4.32H95.4v-.25a2.73,2.73,0,0,1,0-.31h0a1.25,1.25,0,0,1-1.17.65,1.57,1.57,0,0,1,0-3.14Zm1.15,1.57a1.1,1.1,0,1,0-1.1,1.15A1.09,1.09,0,0,0,95.38,145.9Z"/><path class="cls-25" d="M96.67,143.57a.3.3,0,0,1,.59,0,.3.3,0,1,1-.59,0Zm.06,3.81v-3h.46v3Z"/><path class="cls-25" d="M99.44,147.47a1.57,1.57,0,0,1,0-3.14,1.46,1.46,0,0,1,1.45,1.57,1.34,1.34,0,0,1,0,.2H98.37a1.05,1.05,0,0,0,1.08,1,1.14,1.14,0,0,0,.94-.45l.27.28A1.48,1.48,0,0,1,99.44,147.47Zm-1.07-1.76h2.06a1,1,0,0,0-1-1A1,1,0,0,0,98.37,145.71Z"/><path class="cls-25" d="M102.29,145.61l.39.18a.88.88,0,0,1,.64.83c0,.5-.39.85-1,.85a1,1,0,0,1-1-.77l.36-.2a.7.7,0,0,0,.7.56c.31,0,.52-.15.52-.44s-.15-.34-.45-.48l-.36-.17c-.38-.17-.65-.39-.65-.83a.85.85,0,0,1,.92-.81,1,1,0,0,1,1,.67l-.35.19a.65.65,0,0,0-.64-.47.44.44,0,0,0-.48.41C101.85,145.35,102,145.47,102.29,145.61Z"/><path class="cls-25" d="M105.43,143.57a.3.3,0,1,1,.3.3A.29.29,0,0,1,105.43,143.57Zm.07,3.81v-3H106v3Z"/><path class="cls-25" d="M109.3,144.42v3h-.46v-2.55h-1.51v2.55h-.46v-3Z"/><path class="cls-25" d="M113.28,147.47a1.2,1.2,0,0,1-1.13-.58h0a2.16,2.16,0,0,1,0,.31v1.5h-.46v-4.28h.43v.21a1.42,1.42,0,0,1,0,.31h0a1.34,1.34,0,0,1,1.19-.61,1.57,1.57,0,0,1,0,3.14Zm-1.15-1.57a1.11,1.11,0,1,0,1.11-1.16A1.1,1.1,0,0,0,112.13,145.9Z"/><path class="cls-25" d="M116.83,144.33A1.19,1.19,0,0,1,118,145h0c0-.08,0-.16,0-.31v-.22h.43v3H118v-.28c0-.13,0-.22,0-.32h0a1.19,1.19,0,0,1-1.15.69,1.49,1.49,0,0,1-1.54-1.57A1.51,1.51,0,0,1,116.83,144.33ZM118,145.9a1.11,1.11,0,1,0-1.11,1.15A1.1,1.1,0,0,0,118,145.9Z"/><path class="cls-25" d="M119.31,143.06h.46V147h.85v.41h-1.31Z"/><path class="cls-25" d="M122.38,147.47a1.57,1.57,0,0,1,0-3.14,1.46,1.46,0,0,1,1.45,1.57,1.34,1.34,0,0,1,0,.2h-2.51a1.05,1.05,0,0,0,1.08,1,1.14,1.14,0,0,0,.94-.45l.27.28A1.48,1.48,0,0,1,122.38,147.47Zm-1.07-1.76h2.06a1,1,0,0,0-1-1A1,1,0,0,0,121.31,145.71Z"/><path class="cls-25" d="M124.27,145.9a1.56,1.56,0,1,1,1.56,1.57A1.53,1.53,0,0,1,124.27,145.9Zm2.65,0a1.09,1.09,0,1,0-1.09,1.15A1.09,1.09,0,0,0,126.92,145.9Z"/><path class="cls-25" d="M130.5,144.42v3H130v-2.55h-1.51v2.55h-.46v-3Z"/><path class="cls-25" d="M131.51,144.83h-.34v-.41h.34v-.78H132v.78h.91v.41H132V147h.82v.41h-1.28Z"/><path class="cls-25" d="M133.18,145.9a1.56,1.56,0,1,1,1.56,1.57A1.52,1.52,0,0,1,133.18,145.9Zm2.65,0a1.09,1.09,0,1,0-1.09,1.15A1.09,1.09,0,0,0,135.83,145.9Z"/><path class="cls-25" d="M137,143.06h.46V147h.85v.41H137Z"/><path class="cls-25" d="M138.5,145.9a1.56,1.56,0,1,1,1.56,1.57A1.52,1.52,0,0,1,138.5,145.9Zm2.65,0a1.09,1.09,0,1,0-1.09,1.15A1.09,1.09,0,0,0,141.15,145.9Z"/><path class="cls-25" d="M143.55,144.33a1.21,1.21,0,0,1,1.16.62h0a2.82,2.82,0,0,1,0-.31v-.22h.42v4.28h-2.21v-.41h1.75v-1.22a2.73,2.73,0,0,1,0-.32h0a1.13,1.13,0,0,1-1.11.63,1.53,1.53,0,0,1,0-3Zm-1,1.52a1.08,1.08,0,1,0,1.08-1.11A1.06,1.06,0,0,0,142.55,145.85Z"/><path class="cls-25" d="M146.3,148.29H148v-1a2.23,2.23,0,0,1,0-.3h0a.85.85,0,0,1-.85.43,1.11,1.11,0,0,1-1.11-1.18v-1.83h.46v1.82a.75.75,0,1,0,1.5,0v-1.82h.46v4.28H146.3Z"/><path class="cls-25" d="M77.7,155.38H77l-.71-2.55h0l-.7,2.55H75l-.8-3h.49l.63,2.55h0l.68-2.55h.7l.68,2.55h0l.63-2.55h.47Z"/><path class="cls-25" d="M79,151.57a.3.3,0,0,1,.59,0,.3.3,0,1,1-.59,0Zm.07,3.81v-3h.46v3Z"/><path class="cls-25" d="M80.54,152.83H80.2v-.41h.34v-.78H81v.78h.91v.41H81V155h.83v.41H80.54Z"/><path class="cls-25" d="M82.47,155.38v-4.32h.46v1.36h2v3h-.46v-2.55H82.93v2.55Z"/><path class="cls-25" d="M88.62,152.33a1.19,1.19,0,0,1,1.14.62h0c0-.08,0-.16,0-.31v-.22h.43v3h-.43v-.28c0-.13,0-.22,0-.32h0a1.19,1.19,0,0,1-1.15.69,1.49,1.49,0,0,1-1.54-1.57A1.51,1.51,0,0,1,88.62,152.33Zm1.13,1.57a1.11,1.11,0,1,0-1.11,1.15A1.1,1.1,0,0,0,89.75,153.9Z"/><path class="cls-25" d="M96.6,155.38h-.46v-2a.65.65,0,0,0-.68-.68.64.64,0,0,0-.66.68v2h-.46v-2a.64.64,0,0,0-.66-.68.65.65,0,0,0-.68.68v2h-.46v-2a1.08,1.08,0,0,1,1.13-1.09,1,1,0,0,1,.91.49,1,1,0,0,1,.9-.49,1.06,1.06,0,0,1,1.12,1.09Z"/><path class="cls-25" d="M97.41,151.57a.28.28,0,0,1,.29-.28.28.28,0,0,1,.29.28.29.29,0,0,1-.29.3A.28.28,0,0,1,97.41,151.57Zm.06,3.81v-3h.46v3Z"/><path class="cls-25" d="M101.27,152.42v3h-.46v-2.55H99.3v2.55h-.46v-3Z"/><path class="cls-25" d="M102,153.9a1.56,1.56,0,1,1,1.55,1.57A1.52,1.52,0,0,1,102,153.9Zm2.65,0a1.09,1.09,0,1,0-2.18,0,1.09,1.09,0,1,0,2.18,0Z"/><path class="cls-25" d="M107.08,152.42v.41h-.86v2.55h-.46v-3Z"/><path class="cls-25" d="M108.88,151.57a.3.3,0,1,1,.3.3A.29.29,0,0,1,108.88,151.57Zm.07,3.81v-3h.46v3Z"/><path class="cls-25" d="M112.75,152.42v3h-.46v-2.55h-1.51v2.55h-.46v-3Z"/><path class="cls-25" d="M115.88,153.61l.39.18a.88.88,0,0,1,.64.83c0,.5-.4.85-1,.85a1,1,0,0,1-1-.77l.37-.2a.69.69,0,0,0,.7.56c.3,0,.52-.15.52-.44s-.15-.34-.45-.48l-.37-.17a.87.87,0,0,1-.64-.83.85.85,0,0,1,.92-.81,1,1,0,0,1,1,.67l-.35.19a.66.66,0,0,0-.64-.47.43.43,0,0,0-.48.41C115.44,153.35,115.58,153.47,115.88,153.61Z"/><path class="cls-25" d="M120.77,155.38h-.67l-.7-2.55h0l-.7,2.55H118l-.8-3h.49l.62,2.55h0l.67-2.55h.7l.68,2.55h0l.63-2.55h.48Z"/><path class="cls-25" d="M122.07,151.57a.3.3,0,1,1,.3.3A.29.29,0,0,1,122.07,151.57Zm.07,3.81v-3h.46v3Z"/><path class="cls-25" d="M127.53,155.38h-.46v-2a.65.65,0,0,0-.68-.68.64.64,0,0,0-.66.68v2h-.46v-2a.67.67,0,1,0-1.34,0v2h-.46v-2a1.07,1.07,0,0,1,1.13-1.09,1,1,0,0,1,.91.49,1,1,0,0,1,.9-.49,1.06,1.06,0,0,1,1.12,1.09Z"/><path class="cls-25" d="M132.41,155.38H132v-2a.67.67,0,1,0-1.33,0v2h-.46v-2a.67.67,0,1,0-1.34,0v2h-.46v-2a1.07,1.07,0,0,1,1.13-1.09,1,1,0,0,1,.9.49,1.1,1.1,0,0,1,2,.6Z"/><path class="cls-25" d="M133.22,151.57a.3.3,0,1,1,.3.3A.29.29,0,0,1,133.22,151.57Zm.07,3.81v-3h.46v3Z"/><path class="cls-25" d="M137.09,152.42v3h-.46v-2.55h-1.51v2.55h-.46v-3Z"/><path class="cls-25" d="M139.25,152.33a1.21,1.21,0,0,1,1.16.62h0a2.82,2.82,0,0,1,0-.31v-.22h.42v4.28h-2.21v-.41h1.75v-1.22a2.73,2.73,0,0,1,0-.32h0a1.13,1.13,0,0,1-1.11.63,1.53,1.53,0,0,1,0-3Zm-1,1.52a1.08,1.08,0,1,0,1.07-1.11A1.06,1.06,0,0,0,138.25,153.85Z"/><path class="cls-25" d="M144.56,152.33a1.19,1.19,0,0,1,1.14.62h0c0-.08,0-.16,0-.31v-.22h.43v3h-.43v-.28c0-.13,0-.22,0-.32h0a1.19,1.19,0,0,1-1.15.69A1.49,1.49,0,0,1,143,153.9,1.51,1.51,0,0,1,144.56,152.33Zm1.13,1.57a1.11,1.11,0,1,0-1.11,1.15A1.1,1.1,0,0,0,145.69,153.9Z"/><path class="cls-25" d="M148.36,152.42v.41h-.86v2.55H147v-3Z"/><path class="cls-25" d="M149,152.83h-.34v-.41H149v-.78h.46v.78h.91v.41h-.91V155h.82v.41H149Z"/><path class="cls-25" d="M151.67,153.61l.39.18a.88.88,0,0,1,.64.83c0,.5-.39.85-1,.85a1,1,0,0,1-1-.77l.36-.2a.7.7,0,0,0,.7.56c.31,0,.52-.15.52-.44s-.15-.34-.45-.48l-.36-.17c-.38-.17-.65-.39-.65-.83a.85.85,0,0,1,.92-.81,1,1,0,0,1,1,.67l-.35.19a.65.65,0,0,0-.64-.47.44.44,0,0,0-.48.41C151.23,153.35,151.37,153.47,151.67,153.61Z"/><path class="cls-25" d="M153.65,155.7l-.25.56-.21-.08.22-.55c0-.07.05-.13.08-.19a.29.29,0,0,1-.25-.31.27.27,0,0,1,.27-.29.28.28,0,0,1,.3.3A1.43,1.43,0,0,1,153.65,155.7Z"/><path class="cls-25" d="M77.89,160.11a1.71,1.71,0,0,0-1.41-.72,1.83,1.83,0,0,0,0,3.65,1.69,1.69,0,0,0,1.4-.72l.31.28a2,2,0,0,1-1.71.87,2.25,2.25,0,0,1,0-4.5,2.1,2.1,0,0,1,1.74.87Z"/><path class="cls-25" d="M78.79,163.38v-4.32h.46v1.36h2v3h-.46v-2.55H79.25v2.55Z"/><path class="cls-25" d="M83.45,160.33a1.19,1.19,0,0,1,1.14.62h0c0-.08,0-.16,0-.31v-.22H85v3h-.43v-.28c0-.13,0-.22,0-.32h0a1.19,1.19,0,0,1-1.15.69,1.48,1.48,0,0,1-1.53-1.57A1.5,1.5,0,0,1,83.45,160.33Zm1.13,1.57a1.11,1.11,0,1,0-1.11,1.15A1.1,1.1,0,0,0,84.58,161.9Z"/><path class="cls-25" d="M87.25,160.42v.41h-.86v2.55h-.46v-3Z"/><path class="cls-25" d="M91.76,163.38H91.3v-2a.65.65,0,0,0-.68-.68.64.64,0,0,0-.66.68v2H89.5v-2a.67.67,0,1,0-1.34,0v2H87.7v-2a1.08,1.08,0,0,1,1.13-1.09,1,1,0,0,1,.91.49,1,1,0,0,1,.9-.49,1.06,1.06,0,0,1,1.12,1.09Z"/><path class="cls-25" d="M94,160.33a1.22,1.22,0,0,1,1.14.62h0a2.55,2.55,0,0,1,0-.31v-.22h.43v3H95.1v-.28a3.11,3.11,0,0,1,0-.32h0a1.2,1.2,0,0,1-1.15.69,1.57,1.57,0,0,1,0-3.14Zm1.13,1.57A1.11,1.11,0,1,0,94,163.05,1.1,1.1,0,0,0,95.09,161.9Z"/><path class="cls-25" d="M96.37,159.57a.3.3,0,1,1,.3.3A.29.29,0,0,1,96.37,159.57Zm.07,3.81v-3h.46v3Z"/><path class="cls-25" d="M100.24,160.42v3h-.46v-2.55H98.27v2.55h-.46v-3Z"/><path class="cls-25" d="M102.48,163.47a1.57,1.57,0,0,1,0-3.14,1.47,1.47,0,0,1,1.46,1.57s0,.15,0,.2H101.4a1.05,1.05,0,0,0,1.09,1,1.14,1.14,0,0,0,.93-.45l.27.28A1.45,1.45,0,0,1,102.48,163.47Zm-1.08-1.76h2.07a1,1,0,0,0-1-1A1.06,1.06,0,0,0,101.4,161.71Z"/><path class="cls-25" d="M106,159.57a.28.28,0,0,1,.29-.28.29.29,0,0,1,.3.28.29.29,0,0,1-.3.3A.29.29,0,0,1,106,159.57Zm.06,3.81v-3h.46v3Z"/><path class="cls-25" d="M111.46,163.38H111v-2a.67.67,0,1,0-1.33,0v2h-.46v-2a.67.67,0,1,0-1.34,0v2h-.46v-2a1.07,1.07,0,0,1,1.12-1.09,1,1,0,0,1,.91.49,1,1,0,0,1,.91-.49,1.05,1.05,0,0,1,1.11,1.09Z"/><path class="cls-25" d="M116.35,163.38h-.46v-2a.67.67,0,1,0-1.34,0v2h-.46v-2a.64.64,0,0,0-.66-.68.65.65,0,0,0-.68.68v2h-.46v-2a1.08,1.08,0,0,1,1.13-1.09,1,1,0,0,1,.91.49,1,1,0,0,1,.9-.49,1.06,1.06,0,0,1,1.12,1.09Z"/><path class="cls-25" d="M118.56,163.47a1.57,1.57,0,0,1,0-3.14A1.47,1.47,0,0,1,120,161.9a1.36,1.36,0,0,1,0,.2h-2.51a1.05,1.05,0,0,0,1.08,1,1.14,1.14,0,0,0,.94-.45l.27.28A1.47,1.47,0,0,1,118.56,163.47Zm-1.08-1.76h2.06a1,1,0,0,0-1-1A1,1,0,0,0,117.48,161.71Z"/><path class="cls-25" d="M122,160.33a1.28,1.28,0,0,1,1.13.55h0a2.55,2.55,0,0,1,0-.31v-1.51h.45v4.32h-.43v-.25a2.41,2.41,0,0,1,0-.31h0a1.22,1.22,0,0,1-1.16.65,1.57,1.57,0,0,1,0-3.14Zm1.15,1.57a1.09,1.09,0,0,0-1.1-1.16,1.16,1.16,0,0,0,0,2.31A1.09,1.09,0,0,0,123.13,161.9Z"/><path class="cls-25" d="M124.42,159.57a.3.3,0,0,1,.59,0,.3.3,0,1,1-.59,0Zm.06,3.81v-3h.46v3Z"/><path class="cls-25" d="M127.19,160.33a1.22,1.22,0,0,1,1.14.62h0a2.55,2.55,0,0,1,0-.31v-.22h.43v3h-.43v-.28a3.11,3.11,0,0,1,0-.32h0a1.22,1.22,0,0,1-1.16.69,1.49,1.49,0,0,1-1.53-1.57A1.5,1.5,0,0,1,127.19,160.33Zm1.12,1.57a1.11,1.11,0,1,0-1.11,1.15A1.1,1.1,0,0,0,128.31,161.9Z"/><path class="cls-25" d="M129.77,160.83h-.34v-.41h.34v-.78h.46v.78h.91v.41h-.91V163h.82v.41h-1.28Z"/><path class="cls-25" d="M133,163.47a1.57,1.57,0,0,1,0-3.14,1.46,1.46,0,0,1,1.45,1.57,1.34,1.34,0,0,1,0,.2h-2.51a1.05,1.05,0,0,0,1.08,1,1.14,1.14,0,0,0,.94-.45l.27.28A1.48,1.48,0,0,1,133,163.47Zm-1.07-1.76H134a1,1,0,0,0-1-1A1,1,0,0,0,131.92,161.71Z"/><path class="cls-25" d="M135.1,159.06h.46V163h.86v.41H135.1Z"/><path class="cls-25" d="M137.11,164.29h1.68v-1a2.54,2.54,0,0,1,0-.3h0c-.06.17-.31.43-.85.43a1.11,1.11,0,0,1-1.11-1.18v-1.83h.46v1.82a.72.72,0,0,0,.75.77.73.73,0,0,0,.76-.77v-1.82h.46v4.28h-2.14Z"/><path class="cls-25" d="M141.74,160.83h-.34v-.41h.34v-.78h.46v.78h.91v.41h-.91V163H143v.41h-1.28Z"/><path class="cls-25" d="M145,160.42v.41h-.86v2.55h-.46v-3Z"/><path class="cls-25" d="M146.78,160.33a1.19,1.19,0,0,1,1.14.62h0c0-.08,0-.16,0-.31v-.22h.43v3h-.43v-.28c0-.13,0-.22,0-.32h0a1.19,1.19,0,0,1-1.15.69,1.48,1.48,0,0,1-1.53-1.57A1.5,1.5,0,0,1,146.78,160.33Zm1.13,1.57a1.11,1.11,0,1,0-1.11,1.15A1.1,1.1,0,0,0,147.91,161.9Z"/><path class="cls-25" d="M151.69,160.42v3h-.46v-2.55h-1.51v2.55h-.46v-3Z"/><path class="cls-25" d="M152.52,161h2v.4h-2Z"/><path class="cls-25" d="M75.21,169.61l.39.18a.86.86,0,0,1-.36,1.68,1,1,0,0,1-1-.77l.36-.2a.7.7,0,0,0,.7.56c.31,0,.52-.15.52-.44s-.14-.34-.45-.48L75,170a.87.87,0,0,1-.64-.83.84.84,0,0,1,.92-.81,1,1,0,0,1,1,.67l-.34.19a.66.66,0,0,0-.64-.47.43.43,0,0,0-.48.41C74.78,169.35,74.91,169.47,75.21,169.61Z"/><path class="cls-25" d="M76.87,167.57a.3.3,0,1,1,.3.3A.29.29,0,0,1,76.87,167.57Zm.07,3.81v-3h.46v3Z"/><path class="cls-25" d="M78.42,168.83h-.34v-.41h.34v-.78h.46v.78h.9v.41h-.9V171h.82v.41H78.42Z"/><path class="cls-25" d="M80.28,167.57a.3.3,0,1,1,.3.3A.29.29,0,0,1,80.28,167.57Zm.07,3.81v-3h.46v3Z"/><path class="cls-25" d="M81.5,169.9a1.56,1.56,0,1,1,1.56,1.57A1.52,1.52,0,0,1,81.5,169.9Zm2.65,0a1.09,1.09,0,1,0-1.09,1.15A1.09,1.09,0,0,0,84.15,169.9Z"/><path class="cls-25" d="M87.73,168.42v3h-.46v-2.55H85.76v2.55H85.3v-3Z"/><path class="cls-25" d="M90,171.47a1.57,1.57,0,0,1,0-3.14,1.47,1.47,0,0,1,1.46,1.57s0,.15,0,.2H88.89a1.05,1.05,0,0,0,1.08,1,1.14,1.14,0,0,0,.94-.45l.27.28A1.47,1.47,0,0,1,90,171.47Zm-1.08-1.76H91a1,1,0,0,0-1-1A1.06,1.06,0,0,0,88.89,169.71Z"/><path class="cls-25" d="M93.39,168.33a1.28,1.28,0,0,1,1.13.55h0a2.55,2.55,0,0,1,0-.31v-1.51H95v4.32h-.42v-.25a2.73,2.73,0,0,1,0-.31h0a1.24,1.24,0,0,1-1.17.65,1.57,1.57,0,0,1,0-3.14Zm1.15,1.57a1.1,1.1,0,1,0-1.1,1.15A1.09,1.09,0,0,0,94.54,169.9Z"/><path class="cls-25" d="M97.48,168.83h-.34v-.41h.34v-.78h.46v.78h.91v.41h-.91V171h.82v.41H97.48Z"/><path class="cls-25" d="M99.15,169.9a1.56,1.56,0,1,1,1.56,1.57A1.53,1.53,0,0,1,99.15,169.9Zm2.65,0a1.09,1.09,0,1,0-1.09,1.15A1.09,1.09,0,0,0,101.8,169.9Z"/><path class="cls-25" d="M107.56,171.38h-.67l-.7-2.55h0l-.71,2.55h-.64l-.8-3h.49l.63,2.55h0l.68-2.55h.69l.68,2.55h0l.62-2.55h.48Z"/><path class="cls-25" d="M108.68,169.9a1.56,1.56,0,1,1,1.56,1.57A1.52,1.52,0,0,1,108.68,169.9Zm2.65,0a1.09,1.09,0,1,0-1.09,1.15A1.09,1.09,0,0,0,111.33,169.9Z"/><path class="cls-25" d="M113.8,168.42v.41h-.86v2.55h-.46v-3Z"/><path class="cls-25" d="M114.34,167.06h.46v2.63h.3a.91.91,0,0,0,1-.95c0-.11,0-.2,0-.33h.46a3,3,0,0,1,0,.34,1.24,1.24,0,0,1-.69,1.19l.85,1.43h-.54l-.75-1.29a3.31,3.31,0,0,1-.34,0l-.31,0v1.28h-.46Z"/><path class="cls-25" d="M117.29,167.57a.3.3,0,0,1,.59,0,.3.3,0,1,1-.59,0Zm.06,3.81v-3h.46v3Z"/><path class="cls-25" d="M121.16,168.42v3h-.46v-2.55h-1.51v2.55h-.46v-3Z"/><path class="cls-25" d="M123.32,168.33a1.22,1.22,0,0,1,1.16.62h0a2.82,2.82,0,0,1,0-.31v-.22h.42v4.28H122.7v-.41h1.75v-1.22a2.73,2.73,0,0,1,0-.32h0a1.16,1.16,0,0,1-1.12.63,1.53,1.53,0,0,1,0-3Zm-1,1.52a1.08,1.08,0,1,0,1.07-1.11A1.06,1.06,0,0,0,122.32,169.85Z"/><path class="cls-25" d="M127.08,169.9a1.56,1.56,0,1,1,1.56,1.57A1.53,1.53,0,0,1,127.08,169.9Zm2.65,0a1.09,1.09,0,1,0-1.09,1.15A1.09,1.09,0,0,0,129.73,169.9Z"/><path class="cls-25" d="M133.31,168.42v3h-.46v-2.55h-1.51v2.55h-.46v-3Z"/><path class="cls-25" d="M135.8,168.83h-.34v-.41h.34v-.78h.46v.78h.91v.41h-.91V171h.82v.41H135.8Z"/><path class="cls-25" d="M137.73,171.38v-4.32h.46v1.36h2v3h-.46v-2.55h-1.51v2.55Z"/><path class="cls-25" d="M142.4,171.47a1.57,1.57,0,0,1,0-3.14,1.46,1.46,0,0,1,1.45,1.57,1.34,1.34,0,0,1,0,.2h-2.51a1.05,1.05,0,0,0,1.08,1,1.16,1.16,0,0,0,.94-.45l.27.28A1.48,1.48,0,0,1,142.4,171.47Zm-1.07-1.76h2.06a1,1,0,0,0-1-1A1,1,0,0,0,141.33,169.71Z"/><path class="cls-25" d="M76.9,176.42v3h-.46v-2.55h-1.5v2.55h-.46v-3Z"/><path class="cls-25" d="M77.59,177.9a1.56,1.56,0,1,1,1.56,1.57A1.52,1.52,0,0,1,77.59,177.9Zm2.65,0a1.09,1.09,0,1,0-1.09,1.15A1.09,1.09,0,0,0,80.24,177.9Z"/><path class="cls-25" d="M84.58,179.38h-.67l-.7-2.55h0l-.7,2.55h-.64l-.8-3h.49l.62,2.55h0l.68-2.55h.69l.68,2.55h0l.63-2.55h.48Z"/><path class="cls-25" d="M85.87,177h2v.4h-2Z"/><path class="cls-25" d="M88.47,176.42h.34v-1.36h1.32v.4h-.86v1h.82v.41h-.82v2.55h-.46v-2.55h-.34Z"/><path class="cls-25" d="M91.85,176.33A1.19,1.19,0,0,1,93,177h0c0-.08,0-.16,0-.31v-.22h.43v3H93v-.28c0-.13,0-.22,0-.32h0a1.19,1.19,0,0,1-1.15.69,1.48,1.48,0,0,1-1.53-1.57A1.5,1.5,0,0,1,91.85,176.33ZM93,177.9a1.11,1.11,0,1,0-1.11,1.15A1.1,1.1,0,0,0,93,177.9Z"/><path class="cls-25" d="M98.35,179.38h-.46v-2a.65.65,0,0,0-.68-.68.64.64,0,0,0-.66.68v2h-.46v-2a.67.67,0,1,0-1.34,0v2h-.46v-2a1.07,1.07,0,0,1,1.13-1.09,1,1,0,0,1,.91.49,1,1,0,0,1,.9-.49,1.06,1.06,0,0,1,1.12,1.09Z"/><path class="cls-25" d="M99,177.9a1.56,1.56,0,1,1,1.56,1.57A1.53,1.53,0,0,1,99,177.9Zm2.66,0a1.09,1.09,0,1,0-2.18,0,1.09,1.09,0,1,0,2.18,0Z"/><path class="cls-25" d="M102.8,179.38v-3h.46V179h1.47v-2.55h.46v3Z"/><path class="cls-25" d="M106.83,177.61l.39.18a.86.86,0,0,1-.36,1.68,1,1,0,0,1-1-.77l.36-.2a.7.7,0,0,0,.7.56c.31,0,.52-.15.52-.44s-.14-.34-.45-.48l-.36-.17a.87.87,0,0,1-.64-.83.84.84,0,0,1,.92-.81,1,1,0,0,1,1,.67l-.34.19a.67.67,0,0,0-.64-.47.44.44,0,0,0-.49.41C106.39,177.35,106.53,177.47,106.83,177.61Z"/><path class="cls-25" d="M110.09,179.38v-4.32h1.4a2.16,2.16,0,1,1,0,4.32Zm3.13-2.17a1.61,1.61,0,0,0-1.73-1.74h-.93V179h.93A1.62,1.62,0,0,0,113.22,177.21Z"/><path class="cls-25" d="M114.32,175.57a.3.3,0,1,1,.3.3A.29.29,0,0,1,114.32,175.57Zm.07,3.81v-3h.46v3Z"/><path class="cls-25" d="M117,176.33a1.23,1.23,0,0,1,1.16.62h0c0-.09,0-.18,0-.31v-.22h.43v4.28h-2.22v-.41h1.76v-1.22a1.52,1.52,0,0,1,0-.32h0a1.16,1.16,0,0,1-1.12.63,1.53,1.53,0,0,1,0-3Zm-1,1.52a1.08,1.08,0,1,0,1.08-1.11A1.06,1.06,0,0,0,116,177.85Z"/><path class="cls-25" d="M120.78,177.9a1.56,1.56,0,1,1,1.55,1.57A1.52,1.52,0,0,1,120.78,177.9Zm2.65,0a1.09,1.09,0,1,0-2.18,0,1.09,1.09,0,1,0,2.18,0Z"/><path class="cls-25" d="M124.3,176.42h.35v-1.36H126v.4h-.85v1h.82v.41h-.82v2.55h-.46v-2.55h-.35Z"/><path class="cls-25" d="M130.8,176.4a1.33,1.33,0,0,1-1.41,1.34h-1.1v1.64h-.48v-4.32h1.58A1.32,1.32,0,0,1,130.8,176.4Zm-.48,0a.92.92,0,0,0-1-.94h-1.05v1.86h1.05A.92.92,0,0,0,130.32,176.41Z"/><path class="cls-25" d="M131.4,175.06h.46V179h.85v.41H131.4Z"/><path class="cls-25" d="M134.48,179.47a1.57,1.57,0,0,1,0-3.14,1.47,1.47,0,0,1,1.46,1.57s0,.15,0,.2H133.4a1.05,1.05,0,0,0,1.08,1,1.14,1.14,0,0,0,.94-.45l.27.28A1.47,1.47,0,0,1,134.48,179.47Zm-1.08-1.76h2.07a1,1,0,0,0-1-1A1.06,1.06,0,0,0,133.4,177.71Z"/><path class="cls-25" d="M136.36,177.9a1.56,1.56,0,1,1,1.56,1.57A1.53,1.53,0,0,1,136.36,177.9Zm2.65,0a1.09,1.09,0,1,0-1.09,1.15A1.09,1.09,0,0,0,139,177.9Z"/><path class="cls-25" d="M141.49,176.42v.41h-.87v2.55h-.46v-3Z"/><path class="cls-25" d="M142,175.57a.28.28,0,0,1,.29-.28.28.28,0,0,1,.29.28.29.29,0,0,1-.29.3A.28.28,0,0,1,142,175.57Zm.06,3.81v-3h.46v3Z"/><path class="cls-25" d="M144.72,176.33a1.19,1.19,0,0,1,1.14.62h0a2.16,2.16,0,0,1,0-.31v-.22h.43v3h-.43v-.28a2.88,2.88,0,0,1,0-.32h0a1.19,1.19,0,0,1-1.15.69,1.57,1.57,0,0,1,0-3.14Zm1.13,1.57a1.11,1.11,0,1,0-1.11,1.15A1.1,1.1,0,0,0,145.85,177.9Z"/><path class="cls-25" d="M147.05,179.13a.29.29,0,1,1,.28.29A.29.29,0,0,1,147.05,179.13Z"/><path class="cls-26" d="M81.29,38.77A2.62,2.62,0,0,0,79,37.57c-1.49,0-2.44,1.12-2.44,2.8s1,2.79,2.44,2.79A2.68,2.68,0,0,0,81.29,42l1.38,1.25A4.14,4.14,0,0,1,79,45.07a4.39,4.39,0,0,1-4.6-4.69A4.45,4.45,0,0,1,79,35.69a4.28,4.28,0,0,1,3.69,1.88Z"/><path class="cls-26" d="M84.58,35.88h2.11v3.56h2.89V35.88h2.11v9H89.58V41.29H86.69v3.59H84.58Z"/><path class="cls-26" d="M100.67,44.88H98.58V42.55H96.27v2.33H94.18v-6a3.25,3.25,0,0,1,6.49,0Zm-4.4-4.15h2.31V39c0-1-.5-1.43-1.15-1.43S96.27,38,96.27,39Z"/><path class="cls-26" d="M105.74,41.49h-.47v3.39h-2.11v-9h3.56a2.91,2.91,0,0,1,3.08,2.85,2.68,2.68,0,0,1-1.87,2.56L110,44.88h-2.39Zm2-2.71a1.07,1.07,0,0,0-1.17-1.06h-1.25v2.14h1.25A1.08,1.08,0,0,0,107.69,38.78Z"/><path class="cls-26" d="M118.33,37.72v7.16h-2.12V37.72h-2v7.16H112v-9h10.47v9h-2.12V37.72Z"/><path class="cls-26" d="M127,35.88h2.77l2.68,9H130.2l-.45-1.74H127l-.46,1.74h-2.18Zm.43,5.42h1.81l-.88-3.36h0Z"/><path class="cls-26" d="M134.32,35.88h2.11v9h-2.11Z"/><path class="cls-26" d="M144.29,44.88l-3.23-5.21h0v5.21h-2v-9h2.16l3.19,5.21h0V35.88h2v9Z"/><path class="cls-26" d="M149,35.88h5.36v1.84h-3.25v1.72h3v1.8h-3V43h3.32v1.86H149Z"/><g id="stargazers_logo" data-name="stargazers logo"><path class="cls-3" d="M50,229.68a1.76,1.76,0,0,0,1.62-.78,1.18,1.18,0,0,0-.1-1.22L43.8,216a1.59,1.59,0,0,0-2.56,0l-7.7,11.71a1.18,1.18,0,0,0-.1,1.23,1.76,1.76,0,0,0,1.62.77h7.06l.32,1.19.34-1.19ZM51.09,228a.67.67,0,0,1,.08.72,1.32,1.32,0,0,1-1.19.52H42.92l.18-.64a1.38,1.38,0,0,0,.71-1.22.91.91,0,0,0,0-.17H44l0-.07a1.47,1.47,0,0,0,.07-.17c.56,0,1.43.61,1.6.38s-.82-1.82-1.15-2.36c0-.21,0-.43.05-.66s0-.42,0-.64A12.47,12.47,0,0,1,49.83,226ZM46,222.35h.31V222a.07.07,0,1,1,.14,0v.31h.31a.07.07,0,0,1,0,.14h-.31v.3a.07.07,0,0,1-.14,0v-.3H46a.07.07,0,0,1,0-.14Zm-1.11-1.76.18-.48.18.48.48.18-.48.18-.18.49-.18-.49-.48-.18Zm-2.71-3.41.19-.63.2.63.63.19-.63.2-.2.63-.19-.63-.64-.2Zm-3.67,4.73H39v-.47a.1.1,0,0,1,.1-.11.11.11,0,0,1,.11.11v.47h.47a.11.11,0,0,1,.11.11.1.1,0,0,1-.11.1h-.47v.48a.1.1,0,0,1-.11.1.09.09,0,0,1-.1-.1v-.48h-.48a.09.09,0,0,1-.1-.1A.1.1,0,0,1,38.54,221.91Zm-2.76,3.25a10.53,10.53,0,0,1,4.54-2.37,5.92,5.92,0,0,1,2-4l.17-.15.17.16a6.79,6.79,0,0,1,2,3.92A9.1,9.1,0,0,1,49.12,225l.39.58a9,9,0,0,0-5-2.58,6.65,6.65,0,0,0-1.95-4l-.07-.07-.08.06a5.8,5.8,0,0,0-2,4,10.7,10.7,0,0,0-5,2.7Zm1,4,.29-1.57.15-.07.56,1.64Zm2.33,0-1.41-2-.22,0,.13.37,1.09,1.62h-.57l-.77-2-.45.28-.43,1.74H35.06a1.34,1.34,0,0,1-1.19-.51A.68.68,0,0,1,34,228L35.2,226a16.33,16.33,0,0,1,5.21-2.34c0,.14,0,.28,0,.43s0,.52.07.76c-.3.47-1.36,2.2-1.19,2.41s1.09-.42,1.65-.38l.06.17,0,.07h.11c0,.05,0,.11,0,.17a1.37,1.37,0,0,0,.67,1.19l.18.67ZM41.78,227a8.35,8.35,0,0,1-.58-3.71.09.09,0,0,0-.09-.1.11.11,0,0,0-.1.09,8.35,8.35,0,0,0,.57,3.72h-.4a10.23,10.23,0,0,1-.55-2.84A6.41,6.41,0,0,1,41.74,220a2.09,2.09,0,0,0,1.36.08c.46.68,1.62,2.94.16,6.87Z"/><path class="cls-3" d="M42.53,221.47c-.52,0-.94.91-.94,1.43a.95.95,0,1,0,1.89,0C43.48,222.38,43.06,221.47,42.53,221.47ZM42.14,223a.24.24,0,1,1,.24-.24A.24.24,0,0,1,42.14,223Z"/><path class="cls-3" d="M42.53,224.36a.5.5,0,0,0-.49.5c0,.27.22,1.14.49,1.14s.5-.87.5-1.14A.5.5,0,0,0,42.53,224.36Z"/><path class="cls-3" d="M41.15,222.82a.11.11,0,0,0,0,.22.11.11,0,0,0,0-.22Z"/><path class="cls-3" d="M46.16,228.54a2,2,0,0,0,.51-.09l.34-.12a1.23,1.23,0,0,0,.75.25A1.25,1.25,0,0,0,49,227.33a.28.28,0,0,0,0-.09c.45-.32.79-.67.67-.88s-.34-.16-.79,0l-.26.09a1.22,1.22,0,0,0-.86-.35,1.25,1.25,0,0,0-1.25,1.25,1.94,1.94,0,0,0,0,.24l-.24.18c-.35.3-.49.52-.4.68A.29.29,0,0,0,46.16,228.54Zm1.6-.16a1.08,1.08,0,0,1-.53-.14,8.36,8.36,0,0,0,.8-.39c.23-.13.51-.29.78-.47A1.06,1.06,0,0,1,47.76,228.38Zm1.64-1.94a.22.22,0,0,1,.1,0c0,.07-.17.28-.53.56a1.3,1.3,0,0,0-.2-.43A2.48,2.48,0,0,1,49.4,226.44Zm-.61.71a9,9,0,0,1-.86.53,8.35,8.35,0,0,1-.88.42,1,1,0,0,1-.29-.45,8.23,8.23,0,0,1,.86-.54c.36-.19.68-.34,1-.45A1,1,0,0,1,48.79,227.15Zm-1-.87a1.08,1.08,0,0,1,.66.23,7.19,7.19,0,0,0-.89.43,7.73,7.73,0,0,0-.82.5v-.11A1,1,0,0,1,47.76,226.28Zm-1.17,1.49a1.33,1.33,0,0,0,.25.41c-.45.16-.73.2-.78.15S46.22,228.05,46.59,227.77Z"/><path class="cls-3" d="M35.82,227.21l-.63.41c0,.31.21.29.21.29l.59-.39A.4.4,0,0,1,35.82,227.21Z"/><path class="cls-3" d="M37,226.32,35.9,227a.6.6,0,0,0,.26.48l1.15-.64A.76.76,0,0,1,37,226.32Z"/><path class="cls-3" d="M38.33,225.87a.57.57,0,0,1,0-.43l-1.14.7a.77.77,0,0,0,.37.67l1.2-.65A.5.5,0,0,1,38.33,225.87Z"/><path class="cls-3" d="M38.37,225.43s0,.12,0,.19a.19.19,0,0,1,.22.1c.08.13.09.23,0,.3a.58.58,0,0,0,.18.07s.13-.16,0-.46A.38.38,0,0,0,38.37,225.43Z"/><path class="cls-3" d="M33.33,231.28a.82.82,0,0,0-.81.82v.36a.64.64,0,0,0,.13.45l1,1.8s0,0,0,.12v.35a.37.37,0,1,1-.73,0v-.24a.11.11,0,0,0-.11-.11h-.23a.11.11,0,0,0-.11.11v.24a.82.82,0,1,0,1.63,0v-.35a.61.61,0,0,0-.14-.45l-1-1.8s0,0,0-.12v-.36a.37.37,0,0,1,.73,0v.24a.1.1,0,0,0,.11.11H34a.11.11,0,0,0,.11-.11v-.24A.82.82,0,0,0,33.33,231.28Z"/><path class="cls-3" d="M35.59,231.28H34.5a.12.12,0,0,0-.12.12v.22a.12.12,0,0,0,.12.12h.32v4.14a.11.11,0,0,0,.11.12h.23a.11.11,0,0,0,.11-.12v-4.14h.32a.11.11,0,0,0,.11-.12v-.22A.12.12,0,0,0,35.59,231.28Z"/><path class="cls-3" d="M39.08,231.28h-.59a.23.23,0,0,0-.22.23v4.37a.11.11,0,0,0,.11.12h.23a.12.12,0,0,0,.11-.12v-2h.36a.37.37,0,0,1,.36.37v1.65a.12.12,0,0,0,.12.12h.22a.12.12,0,0,0,.12-.12v-1.65a.82.82,0,0,0-.25-.59.84.84,0,0,0,.25-.59v-.94A.82.82,0,0,0,39.08,231.28Zm.36,1.77a.36.36,0,0,1-.36.36h-.36v-1.67h.36a.36.36,0,0,1,.36.37Z"/><path class="cls-3" d="M41.3,231.28a.82.82,0,0,0-.82.82v3.08a.82.82,0,0,0,.82.82.82.82,0,0,0,.81-.82v-1.66a.11.11,0,0,0-.11-.12h-.59a.11.11,0,0,0-.11.12v.22a.11.11,0,0,0,.11.12h.25v1.32a.36.36,0,0,1-.72,0V232.1a.36.36,0,1,1,.72,0v.24a.11.11,0,0,0,.11.11H42a.1.1,0,0,0,.11-.11v-.24A.82.82,0,0,0,41.3,231.28Z"/><path class="cls-3" d="M46.45,231.28H45a.12.12,0,0,0-.11.12v.22a.11.11,0,0,0,.11.12H46.1v.73a.31.31,0,0,1,0,.11l-1,1.81a.64.64,0,0,0-.13.45v1A.11.11,0,0,0,45,236h1.41a.11.11,0,0,0,.11-.12v-.22a.12.12,0,0,0-.11-.12H45.38v-.7c0-.08,0-.08,0-.12l1-1.8c.14-.25.14-.25.14-.45V231.4A.12.12,0,0,0,46.45,231.28Z"/><path class="cls-3" d="M48.15,231.28H47.3a.23.23,0,0,0-.22.23v4.26a.22.22,0,0,0,.22.23h.85a.11.11,0,0,0,.11-.12v-.22a.12.12,0,0,0-.11-.12h-.62v-1.67h.62a.12.12,0,0,0,.11-.11v-.23a.11.11,0,0,0-.11-.11h-.62v-1.68h.62a.11.11,0,0,0,.11-.12v-.22A.12.12,0,0,0,48.15,231.28Z"/><path class="cls-3" d="M49.59,231.28H49a.23.23,0,0,0-.22.23v4.37a.11.11,0,0,0,.11.12h.23a.12.12,0,0,0,.11-.12v-2h.36a.37.37,0,0,1,.36.37v1.65a.12.12,0,0,0,.12.12h.22a.12.12,0,0,0,.12-.12v-1.65a.82.82,0,0,0-.25-.59.84.84,0,0,0,.25-.59v-.94A.82.82,0,0,0,49.59,231.28Zm.36,1.77a.36.36,0,0,1-.36.36h-.36v-1.67h.36a.36.36,0,0,1,.36.37Z"/><path class="cls-3" d="M52.18,232.45h.23a.11.11,0,0,0,.11-.11v-.24a.82.82,0,1,0-1.63,0v.36a.64.64,0,0,0,.13.45l1,1.8s0,0,0,.12v.35a.37.37,0,1,1-.73,0v-.24a.11.11,0,0,0-.11-.11H51a.11.11,0,0,0-.11.11v.24a.82.82,0,1,0,1.63,0v-.35a.61.61,0,0,0-.14-.45l-1-1.8s0,0,0-.12v-.36a.37.37,0,0,1,.73,0v.24A.1.1,0,0,0,52.18,232.45Z"/><path class="cls-3" d="M43.53,231.28a.83.83,0,0,0-.83.83v3.77a.12.12,0,0,0,.12.12H43a.12.12,0,0,0,.12-.12v-1.79l.73-.45v2.24A.11.11,0,0,0,44,236h.23a.11.11,0,0,0,.11-.12v-3.77A.82.82,0,0,0,43.53,231.28Zm.36,1.91-.73.45v-1.53a.36.36,0,0,1,.37-.37.37.37,0,0,1,.36.37Z"/><path class="cls-3" d="M36.9,231.28a.83.83,0,0,0-.82.83v3.77a.11.11,0,0,0,.11.12h.23a.11.11,0,0,0,.11-.12v-1.79l.73-.45v2.24a.11.11,0,0,0,.11.12h.23a.11.11,0,0,0,.11-.12v-3.77A.82.82,0,0,0,36.9,231.28Zm.36,1.91-.73.45v-1.53a.37.37,0,1,1,.73,0Z"/></g><g id="big_star_logo" data-name="big star logo"><path class="cls-2" d="M138.92,232.19s0,0,0,0a.44.44,0,0,1-.31.33c-.18.05-.3,0-.3-.21a.55.55,0,0,1,.37-.54c.16,0,.28,0,.28.18v0l-.07,0h0a.13.13,0,0,0-.19-.13.43.43,0,0,0-.27.43c0,.14.08.2.2.16a.29.29,0,0,0,.22-.23h0Z"/><path class="cls-2" d="M139.75,232.23c-.18,0-.29,0-.29-.21a.57.57,0,0,1,.39-.55c.18-.05.29,0,.29.21A.58.58,0,0,1,139.75,232.23Zm0-.08a.45.45,0,0,0,.3-.44.15.15,0,0,0-.2-.16.44.44,0,0,0-.3.44A.15.15,0,0,0,139.75,232.15Z"/><path class="cls-2" d="M140.62,232h0l.09-.38.07-.34s0,0,0,0l.08,0h0l-.08.34-.07.32.31-.09a0,0,0,0,1,0,0v.06h0Z"/><path class="cls-2" d="M141.56,231.73h0l.09-.38.07-.34s0,0,0,0l.07,0h0l-.08.34-.06.32.31-.09h0l0,.06h0Z"/><path class="cls-2" d="M142.49,231.48h0l.09-.38.07-.34v0l.42-.11h0v.07l-.34.09-.05.23.31-.09h0V231h0l-.32.09-.06.27.35-.09h0l0,.06a0,0,0,0,1,0,0Z"/><path class="cls-2" d="M144.12,230.8s0,0,0,0a.46.46,0,0,1-.32.34c-.18,0-.3,0-.3-.22a.55.55,0,0,1,.38-.53c.15,0,.27,0,.27.18s0,0,0,0l-.07,0h0c0-.1-.07-.15-.19-.12a.42.42,0,0,0-.27.42c0,.14.08.2.2.17a.29.29,0,0,0,.22-.23l0,0Z"/><path class="cls-2" d="M144.73,230.88s0,0,0,0l.08-.36.06-.3-.19.06a0,0,0,0,1,0,0v-.06h0l.48-.13h0v.07l-.19.05-.08.3-.07.35v0Z"/><path class="cls-2" d="M145.56,230.66h0l.08-.37.08-.35s0,0,0,0l.08,0s0,0,0,0l-.08.36-.07.36,0,0Z"/><path class="cls-2" d="M146.53,230.4l-.29.07s0,0,0,0l.08-.37.07-.35h0l.24-.07c.15,0,.24,0,.22.13a.29.29,0,0,1-.17.19c.1,0,.13.06.12.15A.4.4,0,0,1,146.53,230.4Zm-.18,0,.18-.05a.22.22,0,0,0,.19-.17c0-.11-.05-.13-.14-.1l-.18,0Zm.07-.35.19-.05a.22.22,0,0,0,.17-.15c0-.09,0-.11-.14-.09l-.16.05Z"/><path class="cls-2" d="M147.34,230.18s0,0,0,0l.09-.38.07-.34v0l.08,0s0,0,0,0l-.08.34-.06.32.31-.09h0l0,.06h0Z"/><path class="cls-2" d="M148.27,229.93a0,0,0,0,1,0,0l.09-.37.07-.35v0l.43-.11s0,0,0,0v.06h0l-.33.09-.06.23.31-.09h0v.06a0,0,0,0,1,0,0l-.32.09-.05.28.34-.1h0l0,.06h0Z"/><path class="cls-2" d="M149.83,229.3a.35.35,0,0,1-.28.3c-.17,0-.29,0-.28-.17a0,0,0,0,1,0,0l.08,0s0,0,0,0,.06.16.19.12a.2.2,0,0,0,.17-.18c0-.16-.38,0-.38-.2a.33.33,0,0,1,.27-.29c.16,0,.26,0,.26.14v0l-.08,0h0c0-.09-.05-.12-.16-.09s-.18.1-.18.17S149.83,229.07,149.83,229.3Z"/><path class="cls-2" d="M150.88,226.37a1.56,1.56,0,0,1-1.49,1.26,1.17,1.17,0,0,1-.91-.41,1.09,1.09,0,0,1-.24-.48l.79-.21a.33.33,0,0,0,.07.17.41.41,0,0,0,.29.12.73.73,0,0,0,.68-.59.33.33,0,0,0-.29-.44l-.26,0a1,1,0,0,1-.7-.4,1.06,1.06,0,0,1-.18-.8,1.32,1.32,0,0,1,1.26-1.06,1,1,0,0,1,.78.35,1.2,1.2,0,0,1,.2.39l-.79.21,0-.07a.22.22,0,0,0-.16-.06.49.49,0,0,0-.45.38.21.21,0,0,0,0,.17.23.23,0,0,0,.14.08l.26,0a1.12,1.12,0,0,1,.79.46A1.17,1.17,0,0,1,150.88,226.37Z"/><polygon class="cls-2" points="154.19 222.31 154.03 223.2 153.11 223.44 152.51 226.84 151.64 227.08 152.24 223.68 151.32 223.93 151.47 223.04 154.19 222.31"/><path class="cls-2" d="M159.88,222.43a1.11,1.11,0,0,0-.24-.92,1.07,1.07,0,0,0-.85-.39,1.4,1.4,0,0,0-.34,0l-.9.24-.75,4.29.87-.24.29-1.67.21,0,.84,1.36.82-.22-.85-1.37A1.47,1.47,0,0,0,159.88,222.43Zm-.81-.14a.61.61,0,0,1-.43.47l-.52.14.14-.84.4-.1a.32.32,0,0,1,.13,0,.29.29,0,0,1,.23.09A.32.32,0,0,1,159.07,222.29Z"/><polygon class="cls-2" points="157.18 227.89 158.02 231.01 154.74 229.81 150.7 232.99 152.44 228.97 150.44 228.24 151.82 227.88 153.53 228.5 152.73 230.35 154.59 228.89 156.83 229.7 156.26 227.58 157.98 226.22 159.98 225.69 157.18 227.89"/><path class="cls-2" d="M155.82,226h0l.79-.22-1.06-3.94-2.07,4.78,1-.27.89-2Z"/><polygon class="cls-2" points="143.11 225.28 142.35 229.57 141.48 229.8 142.24 225.51 143.11 225.28"/><path class="cls-2" d="M140.84,226.52a1.11,1.11,0,0,0-1.12-.33l-1,.26-.76,4.29,1.89-.51a1.47,1.47,0,0,0,1.06-1.14,1.17,1.17,0,0,0-.24-1h0a1.35,1.35,0,0,0,.39-.72A1.08,1.08,0,0,0,140.84,226.52Zm-.72,2.42a.68.68,0,0,1-.46.51l-.65.17.16-.9.52-.14h.13a.3.3,0,0,1,.25.1A.33.33,0,0,1,140.12,228.94Zm.14-1.67a.54.54,0,0,1-.38.42l-.56.15.13-.74.48-.12H140a.24.24,0,0,1,.2.07A.29.29,0,0,1,140.26,227.27Z"/><path class="cls-2" d="M147.23,226.85a2.41,2.41,0,0,1-.73,1.38,2.05,2.05,0,0,1-1.38.52,1.58,1.58,0,0,1-1.25-.55,1.87,1.87,0,0,1-.35-1.56,2.29,2.29,0,0,1,2.18-2,1.47,1.47,0,0,1,1.17.52,1.32,1.32,0,0,1,.19.29l-.82.22a.7.7,0,0,0-.54-.21,1.48,1.48,0,0,0-1.37,1.3,1.07,1.07,0,0,0,.17.9.76.76,0,0,0,.62.26,1.29,1.29,0,0,0,1.26-1.05l-1,.26h0l.1-.56,1.74-.47A2.57,2.57,0,0,1,147.23,226.85Z"/></g><g id="favorites"><path class="cls-3" d="M29.63,87.56h2v.69H30.42V89h1.14v.68H30.42v1.22h-.79Z"/><path class="cls-3" d="M33,87.56h1l1,3.38h-.86L34,90.28H33l-.17.66H32Zm.16,2h.68l-.33-1.25h0Z"/><path class="cls-3" d="M37.22,90.94h-1l-1-3.38H36l.68,2.6h0l.68-2.6h.82Z"/><path class="cls-3" d="M38.61,89.25A1.72,1.72,0,1,1,40.33,91,1.66,1.66,0,0,1,38.61,89.25Zm2.63,0a.92.92,0,0,0-.91-1c-.57,0-.91.41-.91,1s.34,1.05.91,1.05S41.24,89.88,41.24,89.24Z"/><path class="cls-3" d="M43.78,89.67H43.6v1.27h-.79V87.56h1.34a1.09,1.09,0,0,1,1.15,1.07,1,1,0,0,1-.7,1l.78,1.35h-.9Zm.73-1a.4.4,0,0,0-.44-.4H43.6v.8h.47A.4.4,0,0,0,44.51,88.65Z"/><path class="cls-3" d="M46.09,87.56h.8v3.38h-.8Z"/><path class="cls-3" d="M48.36,88.25h-.79v-.69h2.37v.69h-.79v2.69h-.79Z"/><path class="cls-3" d="M51.68,91c-.78,0-1.26-.42-1.26-1a.84.84,0,0,1,.6-.85.8.8,0,0,1-.5-.77c0-.55.46-.9,1.18-.9a1.3,1.3,0,0,1,1,.39l-.41.53a.81.81,0,0,0-.58-.22c-.31,0-.44.14-.44.32s.2.37.56.37h.46v.66h-.52c-.35,0-.54.15-.54.37s.17.39.49.39a.78.78,0,0,0,.58-.21l.39.52A1.19,1.19,0,0,1,51.68,91Z"/><path class="cls-3" d="M54.3,88.7l.63.38a1,1,0,0,1,.55.93,1,1,0,0,1-1.12,1,1.08,1.08,0,0,1-1.15-1l.69-.26c0,.2.16.52.48.52a.27.27,0,0,0,.3-.28c0-.12,0-.22-.23-.33l-.55-.34a1,1,0,0,1,.46-1.86,1,1,0,0,1,1.1.81l-.68.25c-.12-.3-.27-.37-.44-.37a.22.22,0,0,0-.25.22C54.09,88.55,54.18,88.62,54.3,88.7Z"/><path class="cls-3" d="M34.89,109.56h2v.69H35.68V111h1.14v.68H35.68v1.22h-.79Z"/><path class="cls-3" d="M37.46,111.25A1.73,1.73,0,1,1,39.18,113,1.66,1.66,0,0,1,37.46,111.25Zm2.64,0a.92.92,0,1,0-1.83,0c0,.64.35,1.05.91,1.05A.92.92,0,0,0,40.1,111.24Z"/><path class="cls-3" d="M41.51,111.25A1.73,1.73,0,1,1,43.23,113,1.66,1.66,0,0,1,41.51,111.25Zm2.64,0a.92.92,0,1,0-1.83,0c0,.64.35,1.05.91,1.05A.92.92,0,0,0,44.15,111.24Z"/><path class="cls-3" d="M45.72,112.94v-3.38H46.9a1.69,1.69,0,1,1,0,3.38Zm2.1-1.7a.89.89,0,0,0-.92-1h-.39v2h.39A.9.9,0,0,0,47.82,111.24Z"/><path class="cls-3" d="M49.3,110.72a.45.45,0,0,1,.45-.44.44.44,0,0,1,.44.44.44.44,0,0,1-.44.44A.45.45,0,0,1,49.3,110.72Zm0,1.59a.45.45,0,0,1,.45-.44.44.44,0,0,1,.44.44.44.44,0,0,1-.44.44A.45.45,0,0,1,49.3,112.31Z"/><path class="cls-3" d="M32.67,117.25a.88.88,0,1,0-.72,1.43.86.86,0,0,0,.74-.4l.22.22a1.12,1.12,0,0,1-1,.51,1.23,1.23,0,1,1,0-2.45,1.14,1.14,0,0,1,.95.47Z"/><path class="cls-3" d="M33.37,118.94v-3.38h.36v1.07h1.54v2.31h-.36v-2H33.73v2Z"/><path class="cls-3" d="M35.81,117.78A1.22,1.22,0,1,1,37,119,1.19,1.19,0,0,1,35.81,117.78Zm2.07,0a.85.85,0,1,0-.85.9A.85.85,0,0,0,37.88,117.78Z"/><path class="cls-3" d="M40.56,117.25a.86.86,0,0,0-.72-.37.9.9,0,1,0,.73,1.4l.22.22a1.12,1.12,0,0,1-.95.51,1.23,1.23,0,1,1,0-2.45,1.12,1.12,0,0,1,.94.47Z"/><path class="cls-3" d="M41.06,117.78A1.22,1.22,0,1,1,42.28,119,1.19,1.19,0,0,1,41.06,117.78Zm2.08,0a.86.86,0,1,0-.86.9A.85.85,0,0,0,43.14,117.78Z"/><path class="cls-3" d="M44,115.56h.36v3.06h.66v.32H44Z"/><path class="cls-3" d="M46.45,116.56a.94.94,0,0,1,.89.48h0a1.7,1.7,0,0,1,0-.25v-.16h.34v2.31h-.34v-.22a1.93,1.93,0,0,1,0-.25h0a1,1,0,0,1-.9.54,1.23,1.23,0,0,1,0-2.45Zm.88,1.22a.87.87,0,1,0-.87.9A.85.85,0,0,0,47.33,117.78Z"/><path class="cls-3" d="M48.47,116.94H48.2v-.31h.27V116h.36v.62h.71v.31h-.71v1.68h.64v.32h-1Z"/><path class="cls-3" d="M51,119a1.23,1.23,0,0,1,0-2.45,1.14,1.14,0,0,1,1.14,1.22s0,.12,0,.16h-2a.82.82,0,0,0,.85.74.91.91,0,0,0,.73-.35l.21.22A1.13,1.13,0,0,1,51,119Zm-.84-1.38h1.62a.76.76,0,0,0-.79-.75A.82.82,0,0,0,50.15,117.63Z"/><path class="cls-3" d="M52.58,117.08h1.58v.32H52.58Z"/><path class="cls-3" d="M36,123.25a.88.88,0,1,0-.72,1.43.87.87,0,0,0,.74-.4l.22.22a1.12,1.12,0,0,1-1,.51,1.23,1.23,0,1,1,0-2.45,1.14,1.14,0,0,1,1,.47Z"/><path class="cls-3" d="M36.49,123.78A1.22,1.22,0,1,1,37.71,125,1.19,1.19,0,0,1,36.49,123.78Zm2.08,0a.86.86,0,1,0-.86.9A.85.85,0,0,0,38.57,123.78Z"/><path class="cls-3" d="M40,124.94l-.87-2.31h.4l.7,2h0l.7-2h.39l-.87,2.31Z"/><path class="cls-3" d="M42.76,125a1.23,1.23,0,0,1,0-2.45,1.14,1.14,0,0,1,1.14,1.22s0,.12,0,.16h-2a.82.82,0,0,0,.85.74.91.91,0,0,0,.73-.35l.21.22A1.13,1.13,0,0,1,42.76,125Zm-.84-1.38h1.62a.76.76,0,0,0-.79-.75A.82.82,0,0,0,41.92,123.63Z"/><path class="cls-3" d="M45.45,122.63V123h-.68v2h-.36v-2.31Z"/><path class="cls-3" d="M46.85,125a1.23,1.23,0,0,1,0-2.45A1.14,1.14,0,0,1,48,123.78a.86.86,0,0,1,0,.16H46a.82.82,0,0,0,.84.74.93.93,0,0,0,.74-.35l.21.22A1.14,1.14,0,0,1,46.85,125ZM46,123.63h1.61a.75.75,0,0,0-.78-.75A.81.81,0,0,0,46,123.63Z"/><path class="cls-3" d="M49.53,122.56a1,1,0,0,1,.88.43h0a1.7,1.7,0,0,1,0-.25v-1.18h.35v3.38h-.33v-.19c0-.11,0-.18,0-.25h0a1,1,0,0,1-.91.51,1.23,1.23,0,0,1,0-2.45Zm.9,1.22a.87.87,0,1,0-.86.9A.85.85,0,0,0,50.43,123.78Z"/><path class="cls-3" d="M36.63,129.25a.86.86,0,0,0-.72-.37.9.9,0,0,0,0,1.8.89.89,0,0,0,.74-.4l.22.22a1.14,1.14,0,0,1-1,.51,1.23,1.23,0,1,1,0-2.45,1.12,1.12,0,0,1,.94.47Z"/><path class="cls-3" d="M38.37,128.63V129h-.68v2h-.36v-2.31Z"/><path class="cls-3" d="M38.73,128a.23.23,0,0,1,.46,0,.23.23,0,1,1-.46,0Zm.05,3v-2.31h.36v2.31Z"/><path class="cls-3" d="M41.63,129.25a.88.88,0,1,0-.72,1.43.86.86,0,0,0,.74-.4l.22.22a1.12,1.12,0,0,1-1,.51,1.23,1.23,0,1,1,0-2.45,1.14,1.14,0,0,1,1,.47Z"/><path class="cls-3" d="M42.33,127.56h.36v2.06h.24a.71.71,0,0,0,.8-.75,2.29,2.29,0,0,0,0-.25h.37c0,.07,0,.15,0,.26a1,1,0,0,1-.54.93l.66,1.12h-.42l-.58-1-.27,0h-.25v1h-.36Z"/><path class="cls-3" d="M45.7,131a1.23,1.23,0,0,1,0-2.45,1.13,1.13,0,0,1,1.13,1.22v.16h-2a.82.82,0,0,0,.84.74.93.93,0,0,0,.74-.35l.21.22A1.14,1.14,0,0,1,45.7,131Zm-.84-1.38h1.61a.75.75,0,0,0-.78-.75A.82.82,0,0,0,44.86,129.63Z"/><path class="cls-3" d="M47.4,128.94h-.26v-.31h.26V128h.36v.62h.72v.31h-.72v1.68h.65v.32h-1Z"/><path class="cls-3" d="M49.49,129.55l.31.14a.68.68,0,0,1-.29,1.32.78.78,0,0,1-.81-.6l.28-.16a.55.55,0,0,0,.55.44c.24,0,.41-.12.41-.34s-.11-.27-.35-.38l-.29-.13c-.29-.14-.5-.31-.5-.65a.66.66,0,0,1,.72-.63.79.79,0,0,1,.78.52l-.27.15a.52.52,0,0,0-.5-.37.34.34,0,0,0-.38.32C49.15,129.35,49.26,129.45,49.49,129.55Z"/><path class="cls-3" d="M36.24,150.25v2.69h-.8v-2.69h-.77v2.69h-.8v-3.38H37.8v3.38H37v-2.69Z"/><path class="cls-3" d="M41.33,151.7a1.33,1.33,0,0,1-2.65,0v-2.14h.8v2.22a.53.53,0,0,0,1.05,0v-2.22h.8Z"/><path class="cls-3" d="M43.13,150.7l.63.38a1,1,0,0,1,.55.93,1,1,0,0,1-1.12,1A1.07,1.07,0,0,1,42,152l.68-.26c.05.2.17.52.49.52a.27.27,0,0,0,.3-.28c0-.12,0-.22-.23-.33l-.56-.34a1,1,0,0,1-.58-.9,1,1,0,0,1,1-1,1.05,1.05,0,0,1,1.11.81l-.68.25c-.12-.3-.28-.37-.44-.37a.23.23,0,0,0-.26.22C42.91,150.55,43,150.62,43.13,150.7Z"/><path class="cls-3" d="M45.1,149.56h.79v3.38H45.1Z"/><path class="cls-3" d="M49.22,150.65a1,1,0,0,0-.85-.45.92.92,0,0,0-.91,1c0,.64.35,1,.91,1a1,1,0,0,0,.85-.45l.52.47a1.57,1.57,0,0,1-1.37.7,1.64,1.64,0,0,1-1.72-1.76,1.66,1.66,0,0,1,1.72-1.76,1.59,1.59,0,0,1,1.39.71Z"/><path class="cls-3" d="M50.32,150.72a.44.44,0,1,1,.88,0,.44.44,0,0,1-.88,0Zm0,1.59a.44.44,0,1,1,.88,0,.44.44,0,0,1-.88,0Z"/><path class="cls-3" d="M38.13,160v-.32h.6v-3h.36V160Zm.55-4a.23.23,0,0,1,.46,0,.23.23,0,1,1-.46,0Z"/><path class="cls-3" d="M40.85,156.56a.93.93,0,0,1,.89.48h0a1.7,1.7,0,0,1,0-.25v-.16h.34v2.31h-.34v-.22a1.93,1.93,0,0,1,0-.25h0a.94.94,0,0,1-.9.54,1.23,1.23,0,0,1,0-2.45Zm.88,1.22a.87.87,0,1,0-.87.9A.85.85,0,0,0,41.73,157.78Z"/><path class="cls-3" d="M42.6,156.63h1.81l-1.28,2h1.21v.32H42.53l1.29-2H42.6Z"/><path class="cls-3" d="M44.71,156.63h1.74v.29l-1.34,1.7h1.37v.32H44.66v-.3l1.34-1.7H44.71Z"/><path class="cls-3" d="M34.15,178.68A1.12,1.12,0,0,1,33,179.8h-.59v1.14h-.8v-3.38H33A1.11,1.11,0,0,1,34.15,178.68Zm-.79,0a.41.41,0,0,0-.44-.44h-.51v.87h.51A.42.42,0,0,0,33.36,178.69Z"/><path class="cls-3" d="M37.26,180.94h-.79v-.88h-.86v.88h-.79v-2.25a1.22,1.22,0,0,1,2.44,0Zm-1.65-1.56h.86v-.64c0-.39-.18-.54-.43-.54s-.43.15-.43.54Z"/><path class="cls-3" d="M39.06,178.7l.64.38a1.05,1.05,0,0,1,.55.93,1,1,0,0,1-1.13,1A1.09,1.09,0,0,1,38,180l.69-.26c0,.2.17.52.48.52a.27.27,0,0,0,.3-.28c0-.12,0-.22-.23-.33l-.55-.34a1,1,0,0,1,.46-1.86,1,1,0,0,1,1.1.81l-.68.25c-.11-.3-.27-.37-.43-.37a.23.23,0,0,0-.26.22C38.85,178.55,38.94,178.62,39.06,178.7Z"/><path class="cls-3" d="M41.54,178.25h-.79v-.69h2.37v.69h-.79v2.69h-.79Z"/><path class="cls-3" d="M43.8,177.56h.8v3.38h-.8Z"/><path class="cls-3" d="M46.88,180.23l-.59-1.3h0v2h-.76v-3.38h1l.72,1.66h0l.76-1.66h.92v3.38h-.75v-2h0l-.6,1.3Z"/><path class="cls-3" d="M49.82,177.56h2v.69H50.61v.65h1.13v.67H50.61v.67h1.24v.7h-2Z"/><path class="cls-3" d="M52.58,178.72a.44.44,0,1,1,.88,0,.44.44,0,0,1-.88,0Zm0,1.59a.44.44,0,1,1,.88,0,.44.44,0,0,1-.88,0Z"/><path class="cls-3" d="M32.2,185.25a.88.88,0,1,0-.72,1.43.86.86,0,0,0,.74-.4l.22.22a1.12,1.12,0,0,1-1,.51,1.23,1.23,0,0,1,0-2.45,1.14,1.14,0,0,1,.95.47Z"/><path class="cls-3" d="M33.93,184.56a.93.93,0,0,1,.89.48h0a1.7,1.7,0,0,1,0-.25v-.16h.34v2.31h-.34v-.22a1.93,1.93,0,0,1,0-.25h0a1,1,0,0,1-.9.54,1.23,1.23,0,0,1,0-2.45Zm.88,1.22a.87.87,0,1,0-.87.9A.85.85,0,0,0,34.81,185.78Z"/><path class="cls-3" d="M35.87,183.56h.36v3.06h.66v.32h-1Z"/><path class="cls-3" d="M37.29,183.56h.36v3.06h.67v.32h-1Z"/><path class="cls-3" d="M38.66,184a.23.23,0,0,1,.46,0,.23.23,0,1,1-.46,0Zm.05,3v-2.31h.36v2.31Z"/><path class="cls-3" d="M40.77,184.56a1,1,0,0,1,.91.48h0c0-.07,0-.14,0-.24v-.17H42V188H40.28v-.32h1.37v-1a1.69,1.69,0,0,1,0-.25h0a.89.89,0,0,1-.87.49,1.14,1.14,0,0,1-1.16-1.19A1.12,1.12,0,0,1,40.77,184.56ZM40,185.74a.85.85,0,1,0,1.69,0,.85.85,0,1,0-1.69,0Z"/><path class="cls-3" d="M43.76,184.63V185h-.68v2h-.36v-2.31Z"/><path class="cls-3" d="M45.16,184.56a.93.93,0,0,1,.89.48h0c0-.07,0-.13,0-.25v-.16h.34v2.31h-.34v-.22c0-.1,0-.17,0-.25h0a.94.94,0,0,1-.9.54,1.23,1.23,0,0,1,0-2.45Zm.88,1.22a.87.87,0,1,0-.87.9A.85.85,0,0,0,46,185.78Z"/><path class="cls-3" d="M48.35,187a.94.94,0,0,1-.89-.45h0a1.49,1.49,0,0,1,0,.24V188H47.1v-3.34h.34v.16a1.54,1.54,0,0,1,0,.24h0a1,1,0,0,1,.92-.47,1.23,1.23,0,0,1,0,2.45Zm-.9-1.23a.86.86,0,1,0,.86-.9A.85.85,0,0,0,47.45,185.78Z"/><path class="cls-3" d="M50.08,186.94v-3.38h.36v1.07H52v2.31h-.36v-2H50.44v2Z"/><path class="cls-3" d="M52.89,187.65H54.2v-.78a1.62,1.62,0,0,1,0-.23h0a.66.66,0,0,1-.66.34.87.87,0,0,1-.87-.93v-1.42H53v1.42a.59.59,0,1,0,1.18,0v-1.42h.36V188H52.89Z"/><line class="cls-27" x1="47.52" y1="99.58" x2="37.52" y2="99.58"/><line class="cls-27" x1="47.52" y1="139.53" x2="37.52" y2="139.53"/><line class="cls-27" x1="47.52" y1="167.49" x2="37.52" y2="167.49"/></g></g></g></svg>