<?xml version="1.0" encoding="utf-8"?>
<!-- Generator: Adobe Illustrator 25.2.0, SVG Export Plug-In . SVG Version: 6.00 Build 0)  -->
<svg version="1.1" id="Layer_1" xmlns="http://www.w3.org/2000/svg" xmlns:xlink="http://www.w3.org/1999/xlink" x="0px" y="0px"
	 viewBox="0 0 275.1 447" style="enable-background:new 0 0 275.1 447;" xml:space="preserve">
<style type="text/css">
	.st0{fill:#00D0D0;}
	.st1{fill:#00A0A0;}
	.st2{fill:#4D4D4D;}
	.st3{fill:#CBCBCB;}
	.st4{fill:#02799E;}
	.st5{fill:#02526B;}
	.st6{fill:#023E51;}
	.st7{fill:#989898;}
	.st8{fill:#B2B2B2;}
	.st9{fill:#C0272D;}
	.st10{fill:#808080;}
	.st11{fill:none;stroke:#CBCBCB;stroke-width:6.07;stroke-linecap:round;stroke-miterlimit:10;}
	.st12{fill:#9D2025;}
	.st13{clip-path:url(#SVGID_2_);}
	.st14{fill:#008181;}
	.st15{fill:#FFFFFF;}
	.st16{fill:#D43D40;}
	.st17{fill:#782224;}
</style>
<g id="l-arm">
	<path class="st0" d="M82.4,209.1c1.6-0.7,3.4-0.7,5-0.2c1.8,0.5,3.4,1.7,4.4,3.2c1.1,1.6,1.4,3.7,0.7,5.5c-0.8,2.1-2.4,3.8-4.4,4.6
		L82.4,209.1z"/>
	<path class="st0" d="M71.2,226.4l-0.9-14.4c2.1-0.1,4.2-0.5,6.2-0.9c2-0.5,4-1.2,5.9-2l5.7,13.2c-2.7,1.1-5.5,2.1-8.3,2.8
		C77,225.8,74.2,226.2,71.2,226.4z"/>
	<path class="st1" d="M77.3,210.9c-0.1,1.2,0,2.5,0.1,3.7c0.1,1.2,0.3,2.4,0.6,3.5c0.3,1.2,0.7,2.3,1.2,3.4c0.5,1.1,1.2,2.2,1.8,3.3
		c-1.3-0.6-2.4-1.5-3.2-2.6c-0.8-1.1-1.4-2.3-1.6-3.6c-0.3-1.3-0.3-2.7-0.1-4c0.1-0.6,0.3-1.3,0.5-1.9
		C76.7,212,76.9,211.5,77.3,210.9z"/>
	<path class="st0" d="M53.9,224.6l3.9-13.8c4,1.2,8.2,1.6,12.4,1.3l0.9,14.4C65.4,226.8,59.6,226.2,53.9,224.6z"/>
	<path class="st1" d="M64.8,212c-0.5,1.1-0.9,2.3-1.2,3.5c-0.3,1.1-0.5,2.3-0.6,3.5c-0.1,1.2-0.1,2.4,0,3.6c0.1,1.2,0.4,2.5,0.6,3.8
		c-1-1-1.7-2.2-2.2-3.5c-0.4-1.3-0.5-2.7-0.3-4c0.3-2,1.1-3.9,2.3-5.5C63.9,212.8,64.3,212.4,64.8,212z"/>
	<path class="st0" d="M38.2,217.1l8.3-11.7c3.4,2.4,7.3,4.2,11.3,5.4l-3.9,13.8C48.3,223,43,220.4,38.2,217.1z"/>
	<path class="st1" d="M52.7,208.9c-0.8,0.9-1.6,1.9-2.3,2.9c-0.7,1-1.3,2-1.8,3.1c-0.5,1.1-0.9,2.2-1.2,3.4
		c-0.3,1.2-0.5,2.4-0.7,3.8c-0.6-1.3-0.9-2.7-0.8-4.1c0-1.4,0.4-2.7,1-3.9c0.6-1.2,1.5-2.3,2.5-3.2c0.5-0.4,1-0.8,1.5-1.2
		C51.5,209.3,52.1,209,52.7,208.9z"/>
	<path class="st0" d="M26,204.7l11.8-8.2c1.2,1.7,2.5,3.3,4,4.8c1.5,1.5,3.1,2.8,4.8,4.1l-8.3,11.7c-2.4-1.7-4.6-3.6-6.7-5.6
		C29.5,209.3,27.7,207.1,26,204.7z"/>
	<path class="st1" d="M42.4,201.8c-1.1,0.6-2.1,1.3-3.2,2c-1,0.7-1.9,1.4-2.7,2.3c-0.8,0.9-1.6,1.8-2.2,2.8c-0.7,1-1.2,2.1-1.9,3.3
		c-0.2-1.4,0-2.8,0.6-4.1c0.5-1.3,1.3-2.4,2.3-3.3c1-0.9,2.1-1.7,3.4-2.2c0.6-0.2,1.2-0.4,1.9-0.6C41.1,201.9,41.7,201.8,42.4,201.8
		z"/>
	<path class="st0" d="M18.5,189.9l13.3-5.5l1.4,3.5l0.7,1.7l0.7,1.4c0.9,1.9,1.9,3.7,3.1,5.4L26,204.7c-1.7-2.4-3.1-4.9-4.4-7.6
		l-0.9-2l-0.8-1.8L18.5,189.9z"/>
	<path class="st1" d="M35,191.8c-1.2,0.2-2.4,0.4-3.6,0.8c-1.2,0.3-2.3,0.7-3.4,1.2c-1.1,0.5-2.1,1.2-3,1.9c-1,0.7-1.9,1.6-2.9,2.5
		c0.3-1.4,1-2.6,1.9-3.7c0.9-1,2-1.8,3.2-2.3c1.2-0.5,2.6-0.8,3.9-0.9c0.7,0,1.3,0,2,0.1C33.8,191.4,34.4,191.5,35,191.8z"/>
	<path class="st0" d="M18.6,189.9c-1.6-3.7,0.1-8.1,3.8-9.7c0,0,0,0,0,0c3.8-1.5,8,0.4,9.5,4.2L18.6,189.9z"/>
</g>
<path id="l-hand" class="st0" d="M36.1,166.4c0.1-1.6,0-3.5-1.3-4.5c-2-1.6-5.2,0.3-6.2,2.7s-1,5.2-2.1,7.5c-0.6,1.2-1.7,2.3-3,2.1
	s-2.1-1.3-2.8-2.4l-5.9-9.5c-0.7-1.2-1.6-2.3-2.7-3.1c-1.2-0.8-2.8-0.7-3.8,0.4c-1,1.3-0.4,3.2,0.3,4.6l5,10.7c0.6,0.9,0.7,2,0.5,3
	c-0.8,2-3.8,1.4-5.4,0.1s-3.1-3.3-5.2-3.2s-3.7,2.6-3.4,4.8s2,3.9,3.7,5.3c6.8,5,15.5,4.2,22.5,0.4
	C32.9,181.6,35.6,173.7,36.1,166.4z"/>
<g id="body">
	<polygon class="st2" points="146,323.1 170.1,303.8 94.7,303.8 70.6,323.1 70.6,371 85.2,387.2 162.6,378.5 146,371 	"/>
	<polygon class="st3" points="86.4,387.2 76.9,387.2 62.4,371 71.8,371 	"/>
	<polygon class="st3" points="94.7,297.6 102.4,298.6 71.8,323.1 62.4,323.1 	"/>
	<rect x="62.4" y="323.1" class="st3" width="9.4" height="47.9"/>
	<polygon class="st4" points="116.3,446.4 47.6,437.5 48.8,343.8 116.8,343.8 	"/>
	<polygon class="st4" points="129.6,320.3 200.3,329.7 200.3,424.1 130.7,416.7 	"/>
	<path class="st4" d="M116,420.7l-56.5,15.5c-20.5,5.6-37.1-8.2-37.1-30.9v-17.4c0-22.7,16.6-45.6,37.1-51.3l56.5-15.5
		c20.5-5.6,37.1,8.2,37.1,30.9v17.4C153.1,392.1,136.5,415.1,116,420.7z"/>
	<path class="st4" d="M125,383.7l-74.4,20.4c-7.6,2.1-13.7-3-13.7-11.5l0,0c0-8.4,6.2-16.9,13.7-19l74.4-20.4
		c7.6-2.1,13.7,3,13.7,11.5l0,0C138.7,373.1,132.6,381.6,125,383.7z"/>
	<path class="st5" d="M187.3,430.2l-56.5,15.5c-20.5,5.6-37.1-8.2-37.1-30.9v-17.4c0-22.7,16.6-45.6,37.1-51.3l56.5-15.5
		c20.5-5.6,37.1,8.2,37.1,30.9v17.4C224.4,401.6,207.8,424.6,187.3,430.2z"/>
	<path class="st6" d="M196.3,393.2l-74.4,20.4c-7.6,2.1-13.7-3-13.7-11.5l0,0c0-8.4,6.2-16.9,13.7-19l74.4-20.4
		c7.6-2.1,13.7,3,13.7,11.5l0,0C210,382.6,203.9,391.1,196.3,393.2z"/>
	<path class="st3" d="M76.7,316.7L76.7,316.7c28.6,11.4,62.9,12.6,92.3,3.3l0,0l0.5-15.1L95,302.2L76.7,316.7z"/>
	<polygon class="st3" points="187.9,325.8 163.5,304.1 121.9,313 147,333 147,381 132.4,397.1 173.4,384.8 187.7,369.8 187.7,325.8 
			"/>
	<polygon class="st7" points="199.6,369.8 158.9,381 158.9,333 199.6,325.8 	"/>
	<polygon class="st8" points="133.9,313 158.9,333 199.8,325.8 175.4,304.1 	"/>
	<path class="st8" d="M98.7,205c-2-5.2-10-12.6-15.6-10.5s-6.8,13-4.9,18.2s12.6,19.7,18.2,17.6S100.6,210.2,98.7,205z"/>
	<path class="st9" d="M169,196.3H93c-4.5-0.1-8.1,3.5-8.2,7.9v95.6c0.1,4.5,3.8,8,8.2,7.9h76c4.5,0.1,8.1-3.5,8.2-7.9c0,0,0,0,0,0
		v-95.6C177.1,199.8,173.5,196.2,169,196.3C169,196.3,169,196.3,169,196.3z"/>
	<path class="st8" d="M167.6,197.4c0,3.2-17.3,5.9-38.4,5.9c-20.7,0.1-37.2-2.3-37.2-5.5s16.5-5.8,37.2-5.9
		C150.2,191.8,167.6,194.2,167.6,197.4z"/>
	<polygon class="st8" points="167.6,176.8 167.6,197.4 92,197.9 92,177.9 	"/>
	<path class="st3" d="M167.6,176.8c0,3.2-17.3,6-38.4,6.3c-20.7,0.3-37.2-2-37.2-5.1s16.5-5.9,37.2-6.2
		C150.2,171.3,167.6,173.6,167.6,176.8z"/>
	<path class="st10" d="M155.6,176.1c0,1.3-7.1,2.5-17,3c-2.9,0.1-6.1,0.3-9.5,0.3s-6.5,0-9.4-0.1c-9.7-0.3-16.5-1.3-16.5-2.6
		s6.8-2.4,16.5-3c2.9-0.2,6.1-0.3,9.4-0.3c3.3-0.1,6.5,0,9.5,0.1C148.6,173.8,155.6,174.8,155.6,176.1z"/>
	<path class="st1" d="M138.7,142.4V179c-2.9,0.2-6.1,0.3-9.5,0.3s-6.5,0-9.4-0.1v-36.3L138.7,142.4z"/>
	<path class="st11" d="M177.2,303.1L177.2,303.1c-29,10.4-63.3,10.4-92.3,0l0,0"/>
	<path class="st8" d="M171.9,205c1.9-5.2,9.9-12.6,15.6-10.5s6.8,13,4.9,18.2s-12.6,19.7-18.2,17.6S170,210.2,171.9,205z"/>
	<polygon class="st8" points="199.6,369.8 185.3,384.8 144.4,397.1 158.9,381 	"/>
	<polygon class="st3" points="132.4,397.1 144.4,397.1 158.9,381 147,381 	"/>
	<rect x="147" y="333" class="st3" width="11.9" height="47.9"/>
	<path class="st12" d="M88.8,246.3v47.4c0,0,21.9,9.5,49.8,5v-49.5c0-3.1-2.4-5.6-5.4-5.9l-38.1-2.9c-3.2-0.2-6.1,2.2-6.3,5.4
		C88.9,246,88.9,246.1,88.8,246.3z"/>
	<g>
		<defs>
			<path id="SVGID_1_" d="M199.2,329.5c-0.4,0-0.8-0.1-1.2-0.1c-0.2,0-0.3,0-0.5,0c-0.4,0-0.8,0-1.1,0c-3,0-6.1,0.4-9,1.2l-35.8,9.8
				l-20.7,5.7l-0.8,0.2h-0.1c-0.6,0.2-1.2,0.4-1.7,0.6c-0.3,0.1-0.6,0.2-0.9,0.3l-0.8,0.3c-0.3,0.1-0.5,0.2-0.8,0.3
				c-1.5,0.6-3,1.4-4.4,2.2c-0.4,0.2-0.7,0.4-1.1,0.6c-0.5,0.3-1,0.6-1.4,0.9l-0.7,0.5c-0.4,0.3-0.8,0.6-1.3,0.9s-0.8,0.6-1.2,0.9
				l-1.1,0.9c-0.4,0.3-0.8,0.6-1.1,1l-0.2,0.2l-0.9,0.8l0,0l-0.9,0.9c-0.3,0.3-0.6,0.6-0.9,0.9l-0.9,0.9c-0.3,0.3-0.6,0.6-0.9,0.9
				l-0.8,0.9l-0.7,0.8c-0.5,0.5-0.9,1.1-1.3,1.7c-0.2,0.3-0.4,0.6-0.7,0.9c-0.5,0.6-1,1.3-1.4,2c-0.2,0.3-0.4,0.6-0.6,0.8
				c-1.2,1.7-2.3,3.5-3.2,5.3c-0.2,0.3-0.3,0.6-0.5,1s-0.3,0.6-0.4,0.9s-0.3,0.7-0.5,1.1s-0.3,0.7-0.4,1c-0.5,1.1-0.9,2.1-1.3,3.2
				c-0.2,0.4-0.3,0.8-0.4,1.2c-0.1,0.4-0.3,0.8-0.4,1.2s-0.2,0.7-0.3,1.1c-0.5,1.7-0.9,3.4-1.2,5.1c-0.1,0.4-0.1,0.8-0.2,1.2
				s-0.1,0.6-0.1,0.9c-0.1,0.5-0.2,1.1-0.2,1.7s-0.1,1.4-0.2,2c0,0.3,0,0.6-0.1,1s0,0.6,0,0.9s0,0.9,0,1.3v17.4c0,0.5,0,1,0,1.6
				s0,0.9,0.1,1.4c0,0.1,0,0.2,0,0.2c0,0.4,0,0.7,0.1,1.1c0,0.2,0,0.4,0,0.5c0,0.3,0.1,0.7,0.1,1s0.1,0.5,0.1,0.7
				c0,0.3,0.1,0.5,0.1,0.8c0,0.2,0.1,0.5,0.1,0.7s0.1,0.6,0.2,0.9c0,0.1,0,0.1,0.1,0.2c0.2,0.9,0.4,1.7,0.7,2.5
				c0,0.1,0.1,0.2,0.1,0.3c0.1,0.4,0.2,0.8,0.4,1.2c0.1,0.4,0.3,0.8,0.4,1.2s0.3,0.8,0.5,1.2s0.2,0.5,0.4,0.8
				c0.2,0.4,0.4,0.8,0.6,1.2s0.4,0.7,0.6,1s0.5,0.8,0.7,1.2s0.7,1,1,1.4l0.7,0.9l0.2,0.2c0.3,0.3,0.5,0.6,0.8,1s0.6,0.6,0.9,1
				l0.1,0.1c0.3,0.3,0.6,0.6,0.9,0.9l0.1,0.1c0.3,0.3,0.6,0.5,0.9,0.8c0,0,0.1,0.1,0.1,0.1c0.3,0.3,0.7,0.6,1.1,0.8l0,0
				c0.4,0.3,0.8,0.5,1.1,0.8s0.8,0.5,1.2,0.7l0,0c0.8,0.4,1.6,0.8,2.4,1.2c0.5,0.2,0.9,0.4,1.4,0.6s0.8,0.3,1.3,0.4s0.8,0.2,1.2,0.4
				l0.4,0.1c0.3,0.1,0.6,0.1,0.8,0.2c0.2,0.1,0.4,0.1,0.6,0.1l-68.7-9v-0.1c-0.9-0.1-1.8-0.2-2.7-0.4c-0.3-0.1-0.6-0.1-0.9-0.2
				c-0.1,0-0.3-0.1-0.4-0.1l-0.8-0.2l-0.6-0.2c-0.3-0.1-0.6-0.2-0.9-0.3l-0.2-0.1c-0.2-0.1-0.5-0.2-0.7-0.3s-0.6-0.2-0.9-0.4
				s-0.8-0.3-1.1-0.5s-0.6-0.3-0.9-0.5c-0.3-0.1-0.5-0.3-0.8-0.5c-0.3-0.2-0.7-0.4-1-0.6s-0.5-0.4-0.8-0.5l-0.3-0.2
				c-0.3-0.2-0.5-0.4-0.8-0.6c-0.1-0.1-0.2-0.2-0.3-0.2c-0.2-0.1-0.4-0.3-0.5-0.5s-0.4-0.4-0.6-0.5c-0.6-0.6-1.2-1.2-1.8-1.8
				c-0.3-0.4-0.6-0.7-0.9-1.1s-0.8-1-1.1-1.5l-0.5-0.8c-0.3-0.4-0.5-0.8-0.8-1.2s-0.4-0.8-0.6-1.1s-0.3-0.5-0.4-0.7
				s-0.2-0.3-0.2-0.5s-0.3-0.5-0.4-0.8s-0.3-0.7-0.5-1.1s-0.3-0.8-0.5-1.2s-0.3-0.9-0.5-1.4c0-0.1-0.1-0.2-0.1-0.2
				c-0.1-0.4-0.2-0.7-0.3-1s-0.1-0.5-0.2-0.7s-0.1-0.4-0.1-0.6s-0.1-0.6-0.2-0.9s-0.1-0.7-0.2-1c0-0.1,0-0.2-0.1-0.4
				c-0.1-0.5-0.1-0.9-0.2-1.4c0-0.1,0-0.2,0-0.3c-0.1-0.5-0.1-1-0.1-1.5c0,0,0-0.1,0-0.1c0-0.3,0-0.6-0.1-1s0-0.6,0-0.9
				c0-0.6,0-1.1,0-1.7v-17.4c0-22.7,16.6-45.6,37.1-51.3l56.5-15.5c0.8-0.2,1.5-0.4,2.3-0.5s1.5-0.3,2.3-0.4
				c1.5-0.2,2.9-0.3,4.4-0.3c0.5,0,1,0,1.5,0s0.8,0,1.2,0.1l0.6,0.1l0.4,0c0.3,0,0.6,0.1,0.9,0.1h0.1l35.2,4.7L199.2,329.5z"/>
		</defs>
		<clipPath id="SVGID_2_">
			<use xlink:href="#SVGID_1_"  style="overflow:visible;"/>
		</clipPath>
		<g class="st13">
			<path class="st5" d="M27.6,413.1c2.1,0.9,4.2,1.8,6.3,2.7s4.2,1.9,6.2,2.9s4.1,1.9,6.2,2.9s4.1,2,6.1,3l-0.5-0.1
				c6.3-0.8,12.6-1.5,18.9-2.1c3.2-0.3,6.3-0.6,9.5-0.8s6.3-0.5,9.5-0.6c-3.1,0.6-6.2,1.1-9.4,1.6s-6.3,1-9.4,1.4
				c-6.3,0.9-12.6,1.6-18.9,2.3h-0.3l-0.2-0.1c-2-1-4-2.1-6.1-3.2s-4-2.2-6-3.2s-4-2.2-6-3.3S29.6,414.3,27.6,413.1z"/>
			<path class="st5" d="M27.6,389.8c2,0.9,4,2,6.1,3s4,2,6,3s4,2.1,6,3.1s4,2.1,5.9,3.2l-0.5-0.1c6.5-0.3,12.9-0.5,19.4-0.7
				c3.2-0.1,6.5-0.1,9.7-0.1s6.5,0,9.7,0.1c-3.2,0.4-6.4,0.6-9.7,0.9s-6.4,0.5-9.7,0.7c-6.5,0.4-12.9,0.7-19.3,0.9h-0.3l-0.2-0.1
				c-2-1.1-3.9-2.2-5.8-3.4S41,398.1,39,397s-3.8-2.3-5.7-3.5S29.5,391.1,27.6,389.8z"/>
			<path class="st5" d="M31.7,368.7c2,0.9,3.9,2,5.8,3s3.8,2,5.8,3.1c3.8,2.1,7.6,4.2,11.4,6.4l-0.5-0.1c5.9-0.1,11.9-0.1,17.8-0.1
				c3,0,5.9,0.1,8.9,0.2s5.9,0.2,8.9,0.4c-3,0.3-5.9,0.4-8.9,0.6s-5.9,0.3-8.9,0.4c-5.9,0.2-11.8,0.3-17.8,0.3H54l-0.2-0.1
				c-3.7-2.2-7.5-4.5-11.1-6.8c-1.8-1.2-3.7-2.3-5.5-3.5S33.5,370,31.7,368.7z"/>
			<path class="st5" d="M41.5,348.9c2,1,3.9,2,5.8,3s3.8,2,5.8,3.1c3.8,2.1,7.6,4.2,11.4,6.4l-0.5-0.1c5.9-0.1,11.8-0.1,17.8-0.1
				c3,0,5.9,0.1,8.9,0.2s5.9,0.2,8.9,0.4c-3,0.3-5.9,0.4-8.9,0.6s-5.9,0.3-8.9,0.4c-5.9,0.2-11.8,0.3-17.8,0.3h-0.3l-0.2-0.1
				c-3.7-2.2-7.5-4.5-11.1-6.8c-1.8-1.2-3.7-2.3-5.5-3.5S43.3,350.1,41.5,348.9z"/>
			<path class="st5" d="M63.4,333c1.7,0.8,3.3,1.6,4.9,2.4s3.3,1.7,4.9,2.5c3.2,1.7,6.4,3.5,9.6,5.3l-0.5-0.1
				c5.9-0.1,11.8-0.1,17.8-0.1c3,0,5.9,0.1,8.9,0.2s5.9,0.2,8.9,0.4c-3,0.3-5.9,0.4-8.9,0.6s-5.9,0.3-8.9,0.4
				c-5.9,0.2-11.8,0.3-17.8,0.3h-0.3l-0.2-0.1c-3.2-1.9-6.3-3.8-9.4-5.8c-1.5-1-3.1-2-4.6-3S64.9,334.1,63.4,333z"/>
			<path class="st5" d="M92.3,324.1c1.3,0.6,2.6,1.3,3.8,2s2.5,1.4,3.8,2.1s2.5,1.4,3.8,2.1l3.8,2.1l-0.2-0.1c3-0.1,5.9-0.1,8.9-0.1
				l8.9,0c5.9,0,11.8,0,17.8,0.2c-5.9,0.3-11.8,0.5-17.8,0.6l-8.9,0.2c-3,0.1-5.9,0.1-8.9,0.1h-0.1l-0.1-0.1l-3.7-2.2
				c-1.2-0.7-2.4-1.5-3.7-2.3s-2.4-1.5-3.7-2.3S93.5,324.9,92.3,324.1z"/>
		</g>
	</g>
</g>
<g id="head">
	<path class="st1" d="M94.7,27.6c-5.7-5.5-9.2-12.8-9.8-20.7c-0.1-1-0.3-2.3-1.3-2.4c-0.6,0-1.2,0.3-1.5,0.8
		c-5.2,5.3-10,11-14.2,17.1c1.7,1,3.7-0.2,5.3-1.4s3.6-2.5,5.3-1.7c1,0.6,1.8,1.6,2.3,2.7l6.7,12.5L94.7,27.6z"/>
	<path class="st1" d="M195.6,35.9c7.2-4.6,12.5-11.7,14.9-20c0.3-1,0.8-2.3,1.9-2.3c0.6,0,1.1,0.6,1.5,1.1
		c4.9,6.4,9.1,13.3,12.7,20.4c-2.1,0.7-4.2-0.9-5.7-2.4s-3.5-3.3-5.6-2.7c-1.2,0.5-2.3,1.3-3.1,2.5l-9.9,11.9L195.6,35.9z"/>
	<path class="st0" d="M265.8,79.8c-6-8.9-18-10.3-27.4-14.9c-29.2-14.3-35.9-56.5-69.8-62.3l-1.7-0.2l-17.2-0.5L121.9,0
		c-0.5,0-1.1,0-1.7,0c-32.5,1.2-36,40.4-63.5,49c-8.6,2.7-18.6,2-24.8,9c-9,10.1-2.3,28,8.2,36s14.7,10.4,25.1,19.3
		c9.3,7.9,15.3,19.8,23.3,29.5c3,3.8,6.2,7.4,9.6,10.8c4.3,4.2,10,6.8,16,7.3l27.4,1.9c0.9,0,1.7,0,2.6,0h0.1
		c2.7,0.2,12.6-0.1,15.2-0.9c5.5-1.7,10.7-5.5,15.5-9.1c10.3-7.7,18.9-18.3,30.5-24c13.3-6.6,29.2-6.2,43.1-12.1
		C262.8,110.7,274.6,92.8,265.8,79.8z"/>
	<path class="st14" d="M168.3,74.1c-2.3,25.6-23.7,44-47.5,41.3c-23.2-2.7-40-24.9-37.8-49.5c0.2-2.3,0.6-4.5,1.1-6.7
		c4.9-21.2,23.6-36.3,44.8-34.7c21.6,1.7,38.2,20.1,39.4,42.6C168.6,69.4,168.5,71.7,168.3,74.1z"/>
	<path class="st1" d="M145.4,128.7c-3.5,3.3-7.8,5.7-12.5,7.1c-4.7,1.4-9.7,1.7-14.5,1c-4.9-0.5-9.6-2-13.8-4.5
		c-4.2-2.4-7.8-5.7-10.5-9.8c3.6,3,7.5,5.5,11.7,7.4c4.1,1.9,8.5,3,13.1,3.5c4.5,0.7,9,0.6,13.5-0.2
		C136.8,132.3,141.2,130.8,145.4,128.7z"/>
	<path class="st15" d="M166.3,72.1c-2.2,25.1-23.3,43.3-46.6,40.6C96.8,110,80.4,88.3,82.6,64c0.2-2.2,0.5-4.4,1-6.6
		c4.8-20.8,23.2-35.7,44.1-34.1c21.2,1.6,37.6,19.7,38.8,41.8C166.5,67.4,166.5,69.8,166.3,72.1z"/>
	<path class="st16" d="M99.2,65.6c1.3-14.4,13.2-25.2,26.8-24.1c13.8,1.2,24,14.1,22.7,28.8s-13.6,25.5-27.4,24
		C107.7,93,97.9,80.1,99.2,65.6z"/>
	<path class="st17" d="M107.2,66.4c0.9-9.7,8.9-16.9,18.1-16.1s16,9.5,15.2,19.3s-9.1,17.1-18.3,16.1S106.3,76.1,107.2,66.4z"/>
	<path class="st1" d="M81.7,56.4c12.9-50.6,82.8-45.7,87.1,8.1c0.1,1-0.6,1.9-1.6,2c-0.3,0-0.7,0-1-0.2
		c-26.2-13.3-55.6-15.9-82.4-7.7c-0.9,0.2-1.9-0.3-2.1-1.3C81.5,57,81.6,56.7,81.7,56.4z"/>
</g>
<g id="r-arm">
	<path class="st0" d="M179.1,221.3c-1.8-1.3-2.9-3.3-3.2-5.5c-0.2-2,0.6-3.9,2-5.2c1.4-1.3,3.2-2,5.1-2.1c1.7-0.1,3.4,0.4,4.8,1.4
		L179.1,221.3z"/>
	<path class="st0" d="M198.9,215.6l-4.3,13.7c-2.8-0.9-5.5-2-8.1-3.3c-2.6-1.4-5.1-2.9-7.4-4.7l8.7-11.4c1.7,1.2,3.5,2.4,5.3,3.4
		C194.9,214.2,196.9,215,198.9,215.6z"/>
	<path class="st1" d="M185.5,225.5c1-0.8,1.9-1.7,2.7-2.6c0.7-0.9,1.4-1.9,1.9-3c0.5-1.1,0.9-2.2,1.3-3.3c0.4-1.2,0.7-2.4,1.1-3.6
		c0.3,1.3,0.3,2.5,0.2,3.8c-0.1,1.3-0.4,2.7-0.9,3.9c-0.5,1.3-1.3,2.4-2.4,3.2c-0.5,0.4-1.1,0.8-1.8,1.1
		C186.9,225.3,186.2,225.4,185.5,225.5z"/>
	<path class="st0" d="M211.3,217.3l0.5,14.4c-5.8,0.2-11.7-0.6-17.2-2.3l4.3-13.7C202.9,216.9,207.1,217.4,211.3,217.3z"/>
	<path class="st1" d="M202,231.1c1.3-2.1,2.1-4.5,2.4-6.9c0.1-1.2,0.1-2.4,0.1-3.6c-0.1-1.2-0.1-2.4-0.2-3.7
		c0.7,1.1,1.2,2.3,1.5,3.5c0.4,1.3,0.5,2.7,0.4,4c-0.1,1.4-0.5,2.7-1.1,3.9c-0.3,0.6-0.8,1.1-1.3,1.6
		C203.3,230.4,202.7,230.8,202,231.1z"/>
	<path class="st0" d="M223.5,214.7l5.3,13.4c-5.4,2.1-11.2,3.3-17,3.6l-0.5-14.4C215.5,217.1,219.6,216.3,223.5,214.7z"/>
	<path class="st1" d="M219.3,230.8c0.3-1.2,0.4-2.5,0.4-3.8c0-1.2-0.2-2.4-0.4-3.5c-0.3-1.2-0.7-2.3-1.1-3.4l-1.4-3.5
		c1,0.8,1.9,1.7,2.6,2.8c0.8,1.1,1.4,2.3,1.7,3.6c0.4,1.3,0.5,2.7,0.2,4c-0.1,0.7-0.3,1.4-0.6,2
		C220.3,229.7,219.9,230.3,219.3,230.8z"/>
	<path class="st0" d="M234.2,208.2l9.5,10.8c-2.2,1.9-4.5,3.7-7,5.2c-2.5,1.5-5.1,2.8-7.8,3.9l-5.3-13.4c1.9-0.8,3.8-1.7,5.6-2.8
		C230.9,210.8,232.6,209.6,234.2,208.2z"/>
	<path class="st1" d="M235.7,224.8c-0.2-1.2-0.4-2.5-0.9-3.6c-0.4-1.1-1-2.2-1.6-3.2c-0.7-1-1.4-1.9-2.2-2.8l-2.5-2.8
		c1.2,0.4,2.3,1,3.4,1.8c1.1,0.8,2.1,1.7,2.9,2.8c0.8,1.1,1.3,2.4,1.6,3.7c0.1,0.7,0.1,1.4,0,2.1C236.2,223.4,236,224.1,235.7,224.8
		z"/>
	<path class="st0" d="M242.8,197.9l11.6,8.5l-2.2,3l-1.1,1.6l-1.3,1.7c-1.8,2.3-3.8,4.4-6,6.3l-9.5-10.8c1.6-1.4,3-2.9,4.3-4.5
		l1-1.2l1.1-1.5L242.8,197.9z"/>
	<path class="st1" d="M249,213.6c-0.6-1.1-1.3-2.2-2.1-3.1c-0.8-0.9-1.6-1.7-2.6-2.4c-1-0.7-2-1.4-3-1.9l-3.3-1.8
		c1.3,0,2.6,0.2,3.8,0.5c1.3,0.4,2.5,0.9,3.6,1.7c1.1,0.8,2.1,1.8,2.7,3c0.3,0.6,0.6,1.3,0.7,1.9C249.1,212.1,249.1,212.8,249,213.6
		z"/>
	<path class="st0" d="M242.8,197.9c2.2-3.3,6.6-4.3,10-2.1c3.3,2.2,4.3,6.6,2.1,10c-0.1,0.2-0.3,0.4-0.5,0.7L242.8,197.9z"/>
</g>
<path id="r-hand" class="st0" d="M242.9,179.4c0.3-1.6,0.9-3.4,2.3-4.1c2.4-1.1,4.9,1.5,5.4,4.1s-0.3,5.3,0.3,7.8
	c0.3,1.3,1.1,2.6,2.4,2.8s2.4-0.8,3.3-1.7l8-7.8c0.9-1.1,2.1-1.9,3.4-2.4c1.4-0.5,2.9,0,3.6,1.3c0.7,1.5-0.4,3.1-1.4,4.4l-7.4,9.2
	c-0.8,0.7-1.2,1.8-1.2,2.8c0.3,2.1,3.3,2.3,5.2,1.4s3.8-2.5,5.8-1.9s3,3.4,2.2,5.4s-2.8,3.4-4.9,4.2c-7.7,3.2-16,0.4-22-4.9
	C242.4,194.9,241.7,186.6,242.9,179.4z"/>
</svg>
