<?xml version="1.0" encoding="utf-8"?>
<!-- Generator: Adobe Illustrator 25.2.0, SVG Export Plug-In . SVG Version: 6.00 Build 0)  -->
<svg version="1.1" id="Layer_1" xmlns="http://www.w3.org/2000/svg" xmlns:xlink="http://www.w3.org/1999/xlink" x="0px" y="0px"
	 viewBox="0 0 279.6 447" style="enable-background:new 0 0 279.6 447;" xml:space="preserve">
<style type="text/css">
	.st0{fill:#00D0D0;}
	.st1{fill:#00A0A0;}
	.st2{fill:#4D4D4D;}
	.st3{fill:#CBCBCB;}
	.st4{fill:#02799E;}
	.st5{fill:#02526B;}
	.st6{fill:#023E51;}
	.st7{fill:#989898;}
	.st8{fill:#B2B2B2;}
	.st9{fill:#C0272D;}
	.st10{fill:#808080;}
	.st11{fill:none;stroke:#CBCBCB;stroke-width:6.07;stroke-linecap:round;stroke-miterlimit:10;}
	.st12{fill:#9D2025;}
	.st13{clip-path:url(#SVGID_2_);}
	.st14{fill:#008181;}
	.st15{fill:#FFFFFF;}
	.st16{fill:#D43D40;}
	.st17{fill:#782224;}
</style>
<g id="l-arm">
	<path class="st0" d="M98.7,206.7c2.1-0.6,4.3-0.4,6.1,0.7c1.7,1,2.7,2.8,2.8,4.8c0.1,1.8-0.4,3.7-1.3,5.2c-0.7,1.4-2,2.5-3.6,3
		L98.7,206.7z"/>
	<path class="st0" d="M90,225.1l-5-13.5c4.3-1.5,8.6-3.4,13.7-4.9l4.1,13.8C98.9,221.6,94.5,223.5,90,225.1z"/>
	<path class="st1" d="M92.4,208.8c0,1.2,0.1,2.5,0.4,3.7c0.2,1.2,0.6,2.3,1,3.4c0.4,1.1,1,2.2,1.6,3.2c0.6,1,1.3,2.1,2,3.2
		c-1.2-0.6-2.2-1.4-3.1-2.3c-0.9-1-1.6-2.1-2.1-3.4c-0.5-1.3-0.8-2.6-0.8-3.9c0-0.7,0.1-1.3,0.2-2C91.9,210,92.1,209.4,92.4,208.8z"
		/>
	<path class="st0" d="M75.4,229.4l-2.8-14.1c4.2-0.9,8.4-2.2,12.4-3.7l5,13.5C85.3,226.9,80.4,228.4,75.4,229.4z"/>
	<path class="st1" d="M79.6,213.5c0,1.2,0.1,2.5,0.2,3.7c0.2,1.2,0.4,2.3,0.8,3.5c0.4,1.2,0.9,2.3,1.4,3.3c0.6,1.1,1.2,2.1,1.9,3.3
		c-1.2-0.6-2.3-1.4-3.1-2.5c-0.8-1-1.5-2.2-1.9-3.5c-0.4-1.3-0.5-2.7-0.4-4c0-0.7,0.2-1.3,0.3-1.9C79,214.7,79.2,214.1,79.6,213.5z"
		/>
	<path class="st0" d="M59.5,230.5l1.1-14.3c4,0.3,8.1,0,12-0.8l2.8,14.1C70.2,230.5,64.8,230.9,59.5,230.5z"/>
	<path class="st1" d="M67.3,216.1c-0.3,1.2-0.4,2.4-0.5,3.6c-0.1,1.2-0.1,2.4,0,3.6c0.1,1.2,0.3,2.4,0.6,3.5
		c0.3,1.2,0.8,2.4,1.2,3.6c-1.1-0.8-2-1.9-2.6-3.1c-0.6-1.2-0.9-2.5-1-3.9c-0.1-1.4,0.1-2.7,0.5-4c0.2-0.6,0.4-1.2,0.7-1.8
		C66.6,217.1,66.9,216.6,67.3,216.1z"/>
	<path class="st0" d="M43.7,226.8l5.4-13.4c3.7,1.5,7.6,2.4,11.5,2.7l-1.1,14.3C54,230.1,48.7,228.8,43.7,226.8z"/>
	<path class="st1" d="M55.5,215.4c-0.6,1.1-1.1,2.2-1.6,3.4c-0.5,1.1-0.8,2.2-1.1,3.4c-0.3,1.2-0.4,2.4-0.5,3.6c0,1.2,0,2.4,0.1,3.8
		c-0.8-1.1-1.3-2.4-1.5-3.8c-0.2-1.3-0.1-2.7,0.2-4c0.5-1.9,1.5-3.7,2.9-5.1C54.5,216.1,55,215.7,55.5,215.4z"/>
	<path class="st0" d="M29.9,219.1l8.4-11.7c3.3,2.4,6.9,4.5,10.8,6l-5.4,13.4C38.8,224.7,34.2,222.2,29.9,219.1z"/>
	<path class="st1" d="M44.3,211.1c-0.9,0.9-1.7,1.8-2.5,2.8c-0.8,0.9-1.4,1.9-2,3c-0.6,1.1-1,2.2-1.4,3.3c-0.4,1.1-0.7,2.4-1,3.6
		c-0.5-1.3-0.6-2.7-0.4-4c0.2-1.4,0.6-2.7,1.4-3.8c0.7-1.1,1.6-2.2,2.6-3c0.5-0.4,1-0.8,1.6-1.1C43.1,211.6,43.7,211.3,44.3,211.1z"
		/>
	<path class="st0" d="M18.4,209.2L28.5,199l2.3,2.3l2.4,2.1c0.8,0.7,1.6,1.4,2.5,2s1.7,1.4,2.5,1.9L29.9,219
		c-1.1-0.7-2.1-1.5-3.1-2.3s-2-1.6-3-2.4l-2.9-2.5L18.4,209.2z"/>
	<path class="st1" d="M33.9,204c-1.1,0.6-2.1,1.4-3,2.2c-1.8,1.5-3.4,3.4-4.5,5.5c-0.6,1.1-1.1,2.2-1.7,3.4c-0.1-1.4,0-2.7,0.5-4
		c0.4-1.3,1.1-2.4,2-3.5c0.9-1,1.9-1.9,3.1-2.5c0.6-0.3,1.2-0.6,1.8-0.8C32.7,204.1,33.3,204,33.9,204z"/>
	<path class="st0" d="M18.4,209.2c-1.4-1.4-2.2-3.3-2.1-5.2c0.1-1.9,0.9-3.7,2.3-4.9c1.4-1.3,3.2-2,5.1-2c1.8,0,3.5,0.7,4.8,2
		L18.4,209.2z"/>
</g>
<g id="l-hand">
	<path class="st1" d="M17,194.2c0.6,2-2,3.5-4.1,3.5s-4.5-0.6-6.1,0.8s-1.3,4.4,0.4,5.8s4,1.8,6.2,1.7c4.8-0.3,9.4-2.4,12.7-6
		L17,194.2z"/>
	<path class="st0" d="M18.9,192.3c-4.1-0.7-8.1-1.8-12.1-3.1c-1.7-0.6-3.4-1.1-5.1-0.4c-0.9,0.3-1.5,1-1.7,1.9
		c-0.3,1.9,1.5,3.1,3.1,3.9l10.6,5.1l0,0c1.4,0.7,2,2.4,1.3,3.9c-0.4,0.9-1.3,1.5-2.3,1.6c-2.4,0.2-5.4-0.9-7.2,1.1
		c-1.1,1.3-1.2,3.2-0.2,4.6c1.6,2.3,4.4,2.8,7,2.7c4.1-0.2,8-1.8,11.1-4.5c4-3.5,4.4-9.6,0.9-13.6c-1.4-1.6-3.3-2.7-5.4-3.1
		L18.9,192.3z"/>
</g>
<g id="body">
	<polygon class="st2" points="156.7,323.1 180.9,303.8 105.4,303.8 81.3,323.1 81.3,371 95.9,387.2 173.3,378.5 156.7,371 	"/>
	<polygon class="st3" points="97.1,387.2 87.7,387.2 73.1,371 82.6,371 	"/>
	<polygon class="st3" points="105.5,297.6 113.1,298.6 82.6,323.1 73.1,323.1 	"/>
	<rect x="73.1" y="323.1" class="st3" width="9.4" height="47.9"/>
	<polygon class="st4" points="127,446.4 58.3,437.5 59.5,343.8 127.6,343.8 	"/>
	<polygon class="st4" points="140.4,320.3 211,329.7 211,424.1 141.4,416.7 	"/>
	<path class="st4" d="M126.8,420.7l-56.5,15.5c-20.5,5.6-37.1-8.2-37.1-30.9v-17.4c0-22.7,16.6-45.6,37.1-51.3l56.5-15.5
		c20.5-5.6,37.1,8.2,37.1,30.9v17.4C163.9,392.1,147.3,415.1,126.8,420.7z"/>
	<path class="st4" d="M135.8,383.7l-74.4,20.4c-7.6,2.1-13.7-3-13.7-11.5l0,0c0-8.4,6.2-16.9,13.7-19l74.4-20.4
		c7.6-2.1,13.7,3,13.7,11.5l0,0C149.5,373.1,143.3,381.6,135.8,383.7z"/>
	<path class="st5" d="M198,430.2l-56.5,15.5c-20.5,5.6-37.1-8.2-37.1-30.9v-17.4c0-22.7,16.6-45.6,37.1-51.3l56.5-15.5
		c20.5-5.6,37.1,8.2,37.1,30.9v17.4C235.1,401.6,218.5,424.6,198,430.2z"/>
	<path class="st6" d="M207,393.2l-74.4,20.4c-7.6,2.1-13.7-3-13.7-11.5l0,0c0-8.4,6.2-16.9,13.7-19l74.4-20.4
		c7.6-2.1,13.7,3,13.7,11.5l0,0C220.7,382.6,214.6,391.1,207,393.2z"/>
	<path class="st3" d="M87.4,316.7L87.4,316.7c28.6,11.4,62.9,12.6,92.3,3.3l0,0l0.5-15.1l-74.5-2.7L87.4,316.7z"/>
	<polygon class="st3" points="198.6,325.8 174.2,304.1 132.7,313 157.8,333 157.8,381 143.2,397.1 184.1,384.8 198.4,369.8 
		198.4,325.8 	"/>
	<polygon class="st7" points="210.3,369.8 169.7,381 169.7,333 210.3,325.8 	"/>
	<polygon class="st8" points="144.6,313 169.7,333 210.6,325.8 186.2,304.1 	"/>
	<path class="st8" d="M109.4,205c-2-5.2-10-12.6-15.6-10.5s-6.8,13-4.9,18.2s12.6,19.7,18.2,17.6S111.4,210.2,109.4,205z"/>
	<path class="st9" d="M179.7,196.3h-75.9c-4.5-0.1-8.1,3.5-8.2,7.9v95.6c0.1,4.5,3.8,8,8.2,7.9h75.9c4.5,0.1,8.1-3.5,8.2-7.9v-95.6
		C187.8,199.8,184.2,196.2,179.7,196.3z"/>
	<path class="st8" d="M178.3,197.4c0,3.2-17.3,5.9-38.4,5.9c-20.7,0.1-37.2-2.4-37.2-5.4s16.5-5.8,37.2-5.9
		C161,191.8,178.3,194.2,178.3,197.4z"/>
	<polygon class="st8" points="178.3,176.8 178.3,197.4 102.8,197.9 102.8,177.9 	"/>
	<path class="st3" d="M178.3,176.8c0,3.2-17.3,6-38.4,6.3c-20.7,0.3-37.2-2-37.2-5.1s16.5-5.9,37.2-6.2
		C161,171.3,178.3,173.6,178.3,176.8z"/>
	<path class="st10" d="M166.4,176.1c0,1.3-7.1,2.5-17,3c-3,0.1-6.1,0.3-9.5,0.3s-6.5,0-9.4-0.1c-9.7-0.3-16.5-1.3-16.5-2.6
		s6.8-2.4,16.5-3c2.9-0.2,6.1-0.3,9.4-0.3s6.5,0,9.5,0.1C159.3,173.8,166.4,174.8,166.4,176.1z"/>
	<path class="st1" d="M149.4,142.4V179c-2.9,0.2-6.1,0.3-9.5,0.3s-6.5,0-9.4-0.1v-36.3L149.4,142.4z"/>
	<path class="st11" d="M187.9,303.1L187.9,303.1c-29,10.4-63.3,10.4-92.3,0l0,0"/>
	<path class="st8" d="M182.7,205c2-5.2,10-12.6,15.6-10.5s6.8,13,4.9,18.2s-12.6,19.7-18.2,17.6S180.7,210.2,182.7,205z"/>
	<polygon class="st8" points="210.3,369.8 196.1,384.8 155.1,397.1 169.7,381 	"/>
	<polygon class="st3" points="143.2,397.1 155.1,397.1 169.7,381 157.8,381 	"/>
	<rect x="157.8" y="333" class="st3" width="11.9" height="47.9"/>
	<path class="st12" d="M99.6,246.3v47.4c0,0,21.9,9.5,49.8,5v-49.5c0-3.1-2.4-5.6-5.4-5.9l-38.1-2.9c-3.2-0.2-6.1,2.2-6.3,5.4
		C99.6,246,99.6,246.1,99.6,246.3z"/>
	<g>
		<defs>
			<path id="SVGID_1_" d="M210,329.5c-0.4,0-0.8-0.1-1.2-0.1c-0.2,0-0.3,0-0.5,0c-0.4,0-0.8,0-1.1,0c-3,0-6.1,0.4-9,1.2l-35.8,9.8
				l-20.7,5.7l-0.8,0.2h-0.1c-0.6,0.2-1.2,0.4-1.7,0.6c-0.3,0.1-0.6,0.2-0.9,0.3l-0.9,0.3c-0.3,0.1-0.5,0.2-0.8,0.3
				c-1.5,0.6-3,1.4-4.4,2.2c-0.4,0.2-0.7,0.4-1.1,0.6c-0.5,0.3-1,0.6-1.4,0.9l-0.7,0.5c-0.4,0.3-0.8,0.6-1.3,0.9s-0.8,0.6-1.2,0.9
				l-1.1,0.9c-0.4,0.3-0.8,0.6-1.1,1l-0.2,0.2l-0.9,0.8l0,0l-0.9,0.9c-0.3,0.3-0.6,0.6-0.9,0.9l-0.9,0.9c-0.3,0.3-0.6,0.6-0.9,0.9
				l-0.8,0.9L118,362c-0.5,0.5-0.9,1.1-1.3,1.7c-0.2,0.3-0.4,0.6-0.7,0.9c-0.5,0.6-1,1.3-1.4,2c-0.2,0.3-0.4,0.6-0.6,0.8
				c-1.2,1.7-2.2,3.5-3.2,5.4c-0.2,0.3-0.3,0.6-0.5,1s-0.3,0.6-0.4,0.9s-0.3,0.7-0.5,1.1s-0.3,0.7-0.4,1c-0.5,1.1-0.9,2.1-1.3,3.2
				c-0.2,0.4-0.3,0.8-0.4,1.2c-0.1,0.4-0.3,0.8-0.4,1.2s-0.2,0.7-0.3,1.1c-0.5,1.7-0.9,3.4-1.2,5.1c-0.1,0.4-0.1,0.8-0.2,1.2
				s-0.1,0.6-0.1,0.9c-0.1,0.5-0.2,1.1-0.2,1.7s-0.1,1.4-0.2,2c0,0.3,0,0.6-0.1,1s0,0.6,0,0.9s0,0.9,0,1.3v17.4c0,0.5,0,1,0,1.6
				s0,0.9,0.1,1.4c0,0.1,0,0.2,0,0.2c0,0.4,0,0.7,0.1,1.1c0,0.2,0,0.4,0,0.5c0,0.3,0.1,0.7,0.1,1s0.1,0.5,0.1,0.7
				c0,0.3,0.1,0.5,0.1,0.8c0,0.2,0.1,0.5,0.1,0.7s0.1,0.6,0.2,0.9c0,0.1,0,0.1,0.1,0.2c0.2,0.9,0.4,1.7,0.7,2.5
				c0,0.1,0.1,0.2,0.1,0.3c0.1,0.4,0.2,0.8,0.4,1.2c0.1,0.4,0.3,0.8,0.4,1.2s0.3,0.8,0.5,1.2s0.2,0.5,0.4,0.8
				c0.2,0.4,0.4,0.8,0.6,1.2s0.4,0.7,0.6,1s0.5,0.8,0.7,1.2s0.7,1,1,1.4l0.7,0.9l0.2,0.2c0.3,0.3,0.5,0.6,0.8,1s0.6,0.6,0.9,1
				l0.1,0.1c0.3,0.3,0.6,0.6,0.9,0.9l0.1,0.1c0.3,0.3,0.6,0.5,0.9,0.8c0,0,0.1,0.1,0.1,0.1c0.3,0.3,0.7,0.6,1.1,0.8l0,0
				c0.4,0.3,0.8,0.5,1.1,0.8s0.8,0.5,1.2,0.7l0,0c0.8,0.4,1.6,0.8,2.4,1.2c0.5,0.2,0.9,0.4,1.4,0.6s0.8,0.3,1.3,0.4s0.8,0.2,1.2,0.4
				l0.4,0.1c0.3,0.1,0.6,0.1,0.8,0.2c0.2,0.1,0.4,0.1,0.6,0.1l-68.7-9v-0.1c-0.9-0.1-1.8-0.2-2.7-0.4c-0.3-0.1-0.6-0.1-0.9-0.2
				c-0.1,0-0.3-0.1-0.4-0.1l-0.8-0.2l-0.6-0.2c-0.3-0.1-0.6-0.2-0.9-0.3l-0.2-0.1c-0.2-0.1-0.5-0.2-0.7-0.3s-0.6-0.2-0.9-0.4
				s-0.8-0.3-1.1-0.5s-0.6-0.3-0.9-0.5c-0.3-0.1-0.5-0.3-0.8-0.5c-0.3-0.2-0.7-0.4-1-0.6s-0.5-0.4-0.8-0.5l-0.3-0.2
				c-0.3-0.2-0.5-0.4-0.8-0.6c-0.1-0.1-0.2-0.2-0.3-0.2c-0.2-0.1-0.4-0.3-0.5-0.5s-0.4-0.4-0.6-0.5c-0.6-0.6-1.2-1.2-1.8-1.8
				c-0.3-0.4-0.6-0.7-0.9-1.1s-0.8-1-1.2-1.5l-0.5-0.8c-0.3-0.4-0.5-0.8-0.8-1.2s-0.4-0.8-0.6-1.1s-0.3-0.5-0.4-0.7
				s-0.2-0.3-0.2-0.5s-0.3-0.5-0.4-0.8s-0.3-0.7-0.5-1.1s-0.3-0.8-0.5-1.2s-0.3-0.9-0.5-1.4c0-0.1-0.1-0.2-0.1-0.2
				c-0.1-0.4-0.2-0.7-0.3-1s-0.1-0.5-0.2-0.7s-0.1-0.4-0.1-0.6s-0.1-0.6-0.2-0.9s-0.1-0.7-0.2-1c0-0.1,0-0.2-0.1-0.4
				c-0.1-0.5-0.1-0.9-0.2-1.4c0-0.1,0-0.2,0-0.3c-0.1-0.5-0.1-1-0.2-1.5c0,0,0-0.1,0-0.1c0-0.3,0-0.6-0.1-1s0-0.6,0-0.9
				c0-0.6,0-1.1,0-1.7v-17.4c0-22.7,16.6-45.6,37.1-51.3l56.5-15.5c0.8-0.2,1.5-0.4,2.3-0.5s1.5-0.3,2.3-0.4
				c1.5-0.2,2.9-0.3,4.4-0.3c0.5,0,1,0,1.5,0s0.8,0,1.2,0.1l0.6,0.1l0.4,0c0.3,0,0.6,0.1,0.9,0.1h0.1l35.2,4.7L210,329.5z"/>
		</defs>
		<clipPath id="SVGID_2_">
			<use xlink:href="#SVGID_1_"  style="overflow:visible;"/>
		</clipPath>
		<g class="st13">
			<path class="st5" d="M38.4,413.1c2.1,0.9,4.2,1.8,6.3,2.7s4.2,1.9,6.2,2.9s4.1,1.9,6.2,2.9s4.1,2,6.1,3l-0.5-0.1
				c6.3-0.8,12.6-1.5,18.9-2.1c3.2-0.3,6.3-0.6,9.5-0.8s6.3-0.5,9.5-0.6c-3.1,0.6-6.2,1.1-9.4,1.6s-6.3,1-9.4,1.4
				c-6.3,0.9-12.6,1.6-18.9,2.3h-0.3l-0.2-0.1c-2-1-4-2.1-6.1-3.2s-4-2.2-6-3.2s-4-2.2-6-3.3S40.3,414.3,38.4,413.1z"/>
			<path class="st5" d="M38.4,389.8c2,0.9,4,2,6.1,3s4,2,6,3s4,2.1,6,3.1s4,2.1,5.9,3.2l-0.5-0.1c6.4-0.3,12.9-0.5,19.4-0.7
				c3.2-0.1,6.4-0.1,9.7-0.1s6.5,0,9.7,0.1c-3.2,0.4-6.4,0.6-9.7,0.9s-6.4,0.5-9.7,0.7c-6.4,0.4-12.9,0.7-19.3,0.9h-0.3l-0.2-0.1
				c-2-1.1-3.9-2.2-5.8-3.4s-3.8-2.3-5.8-3.4s-3.8-2.3-5.7-3.5S40.2,391.1,38.4,389.8z"/>
			<path class="st5" d="M42.5,368.7c2,0.9,3.9,2,5.8,3s3.9,2,5.8,3.1c3.8,2.1,7.6,4.2,11.4,6.4L65,381c5.9-0.1,11.8-0.1,17.8-0.1
				c3,0,5.9,0.1,8.9,0.2s5.9,0.2,8.9,0.4c-3,0.3-5.9,0.4-8.9,0.6s-5.9,0.3-8.9,0.4c-5.9,0.2-11.8,0.3-17.8,0.3h-0.3l-0.2-0.1
				c-3.7-2.2-7.5-4.5-11.1-6.8c-1.8-1.2-3.7-2.3-5.5-3.5S44.3,370,42.5,368.7z"/>
			<path class="st5" d="M52.3,348.9c2,1,3.9,2,5.8,3s3.8,2,5.8,3.1c3.8,2.1,7.6,4.2,11.4,6.4l-0.5-0.1c5.9-0.1,11.8-0.1,17.8-0.1
				c3,0,5.9,0.1,8.9,0.2s5.9,0.2,8.9,0.4c-3,0.3-5.9,0.4-8.9,0.6s-5.9,0.3-8.9,0.4c-5.9,0.2-11.8,0.3-17.8,0.3h-0.3l-0.2-0.1
				c-3.7-2.2-7.4-4.5-11.1-6.8c-1.8-1.2-3.7-2.3-5.5-3.5S54.1,350.1,52.3,348.9z"/>
			<path class="st5" d="M74.1,333c1.7,0.8,3.3,1.6,5,2.4s3.2,1.7,4.9,2.6c3.2,1.7,6.4,3.5,9.6,5.3l-0.5-0.1
				c5.9-0.1,11.8-0.1,17.8-0.1c3,0,5.9,0.1,8.9,0.2s5.9,0.2,8.9,0.4c-3,0.3-5.9,0.4-8.9,0.6s-5.9,0.3-8.9,0.4
				c-5.9,0.2-11.8,0.3-17.8,0.3h-0.3l-0.2-0.1c-3.2-1.9-6.3-3.8-9.4-5.8c-1.5-1-3.1-2-4.6-3S75.6,334.1,74.1,333z"/>
			<path class="st5" d="M103.1,324.1c1.3,0.6,2.6,1.3,3.8,2s2.5,1.4,3.8,2.1s2.5,1.4,3.8,2.1l3.7,2.1l-0.2-0.1
				c3-0.1,5.9-0.1,8.9-0.1l8.9,0c5.9,0,11.8,0,17.8,0.2c-5.9,0.3-11.8,0.5-17.8,0.6l-8.9,0.2c-3,0.1-5.9,0.1-8.9,0.1h-0.1l-0.1-0.1
				l-3.7-2.2c-1.2-0.7-2.4-1.5-3.7-2.3s-2.4-1.5-3.7-2.3S104.3,324.9,103.1,324.1z"/>
		</g>
	</g>
</g>
<g id="r-arm">
	<path class="st0" d="M187,221.8c-1.9-3.3-0.8-7.5,2.4-9.5c3.1-2.2,7.4-1.5,9.6,1.7c0.1,0.1,0.1,0.2,0.2,0.2L187,221.8z"/>
	<path class="st0" d="M206.3,226.4l-12.7,6.8c-2-3.8-4.2-7.6-6.6-11.3l12.2-7.7C201.7,218.1,204.1,222.2,206.3,226.4z"/>
	<path class="st1" d="M190,226.7c1.2-0.3,2.4-0.6,3.6-1.1c1.1-0.4,2.2-1,3.2-1.6c1-0.6,2-1.3,2.9-2.1c0.9-0.8,1.8-1.6,2.8-2.6
		c-0.3,1.3-1,2.4-1.8,3.5c-0.8,1-1.8,1.9-3,2.6c-1.2,0.7-2.4,1.2-3.8,1.4c-0.7,0.1-1.3,0.2-2,0.1C191.2,227,190.6,226.9,190,226.7z"
		/>
	<path class="st0" d="M212.5,239.3l-13.3,5.5c-1.6-3.9-3.5-7.8-5.5-11.7l12.7-6.8C208.6,230.6,210.6,234.9,212.5,239.3z"/>
	<path class="st1" d="M196.2,238.1c1.2-0.2,2.4-0.4,3.6-0.8c1.1-0.3,2.2-0.8,3.3-1.3c1.1-0.5,2.1-1.2,3.1-1.9c1-0.7,1.9-1.5,3-2.3
		c-0.4,1.2-1.1,2.4-2.1,3.3c-0.9,1-2,1.8-3.2,2.4c-1.2,0.6-2.5,0.9-3.9,1.1c-0.7,0.1-1.3,0.1-2,0
		C197.4,238.6,196.8,238.4,196.2,238.1z"/>
	<path class="st0" d="M217.1,253.2l-13.9,3.6c-1.1-4.1-2.4-8.1-4-12l13.3-5.5C214.4,243.8,215.9,248.5,217.1,253.2z"/>
	<path class="st1" d="M201.1,250c1.2,0,2.5-0.2,3.7-0.4c2.4-0.4,4.6-1.2,6.7-2.4c1.1-0.6,2.1-1.3,3.2-2c-0.6,1.2-1.4,2.2-2.4,3.1
		c-1,0.9-2.2,1.5-3.5,1.9c-1.3,0.4-2.6,0.6-4,0.6c-0.7,0-1.3-0.1-1.9-0.2C202.3,250.5,201.7,250.3,201.1,250z"/>
	<path class="st0" d="M219.4,268.1l-14.4,0.7c-0.2-4.1-0.9-8.1-1.9-12l13.9-3.6C218.4,258.1,219.2,263.1,219.4,268.1z"/>
	<path class="st1" d="M204.3,262c1.2,0.2,2.5,0.2,3.7,0.2c1.2,0,2.4-0.1,3.5-0.3c1.2-0.2,2.3-0.5,3.5-0.9c1.1-0.4,2.3-0.9,3.5-1.4
		c-0.8,1.1-1.8,2-2.9,2.7c-1.2,0.7-2.4,1.1-3.8,1.3c-1.3,0.2-2.7,0.2-4-0.1c-0.6-0.1-1.3-0.3-1.9-0.5
		C205.4,262.7,204.8,262.4,204.3,262z"/>
	<path class="st0" d="M218.2,283.6l-14-3.2c0.8-3.8,1.1-7.7,0.9-11.6l14.4-0.7C219.7,273.3,219.3,278.5,218.2,283.6z"/>
	<path class="st1" d="M205.1,273.9c1.2,0.4,2.3,0.7,3.6,1c1.2,0.3,2.3,0.5,3.5,0.5c1.2,0.1,2.4,0,3.6-0.1c1.2-0.1,2.4-0.4,3.7-0.6
		c-1,0.9-2.2,1.6-3.4,2c-1.3,0.4-2.7,0.5-4,0.4c-2-0.2-3.9-0.9-5.5-2C205.9,274.8,205.5,274.4,205.1,273.9z"/>
	<path class="st0" d="M212.2,298.3l-12.3-7.4c2-3.2,3.4-6.8,4.2-10.5l14,3.2C217,288.8,215,293.7,212.2,298.3z"/>
	<path class="st1" d="M202.7,285.1c1,0.8,2.1,1.4,3.1,2c1,0.6,2.1,1.2,3.2,1.6c1.1,0.4,2.3,0.8,3.4,1c1.2,0.2,2.4,0.4,3.8,0.5
		c-1.2,0.6-2.6,0.9-3.9,0.9c-1.3,0-2.7-0.3-3.9-0.9c-1.2-0.6-2.4-1.3-3.4-2.2c-0.5-0.4-0.9-0.9-1.3-1.4
		C203.3,286.1,203,285.6,202.7,285.1z"/>
	<path class="st0" d="M202.3,310.3l-9.8-10.5c2.9-2.6,5.3-5.6,7.4-8.9l12.3,7.4C209.5,302.7,206.2,306.8,202.3,310.3z"/>
	<path class="st1" d="M197.1,295c0.7,1,1.5,2,2.3,2.9c0.8,0.9,1.6,1.7,2.6,2.5c0.9,0.8,1.9,1.4,3,2c1.1,0.6,2.2,1.1,3.4,1.6
		c-1.3,0.2-2.7,0.1-4-0.4c-1.3-0.4-2.5-1.1-3.5-2c-1-0.9-1.9-1.9-2.6-3.1c-0.3-0.6-0.6-1.1-0.8-1.8
		C197.3,296.2,197.1,295.6,197.1,295z"/>
	<path class="st0" d="M202.3,310.3c-0.8,0.7-1.6,1.2-2.6,1.6c-0.9,0.3-1.9,0.4-2.8,0.3c-1.9-0.2-3.6-1.2-4.7-2.8
		c-1.1-1.5-1.7-3.4-1.6-5.2c0-0.8,0.2-1.7,0.6-2.4c0.3-0.8,0.8-1.5,1.4-2L202.3,310.3z"/>
</g>
<g id="head">
	<path class="st1" d="M105.4,27.6c-5.7-5.5-9.2-12.8-9.8-20.7c-0.1-1-0.3-2.3-1.3-2.4c-0.6,0-1.2,0.3-1.5,0.8
		c-5.2,5.3-10,11-14.2,17.1c1.7,1,3.7-0.2,5.3-1.4s3.6-2.5,5.3-1.7c1,0.7,1.8,1.6,2.3,2.7l6.7,12.5L105.4,27.6z"/>
	<path class="st1" d="M206.3,35.9c7.2-4.6,12.5-11.7,14.9-20c0.3-1,0.8-2.3,1.9-2.3c0.6,0,1.1,0.6,1.5,1.1
		c4.9,6.4,9.1,13.3,12.7,20.4c-2.1,0.7-4.2-0.9-5.7-2.4s-3.5-3.3-5.6-2.7c-1.2,0.5-2.3,1.3-3.1,2.5L213,44.3L206.3,35.9z"/>
	<path class="st0" d="M276.5,79.8c-6-8.9-18-10.3-27.4-14.9C220,50.5,213.3,8.4,179.4,2.6l-1.7-0.2l-17.2-0.5L132.7,0
		c-0.6,0-1.1,0-1.6,0C98.6,1.2,95,40.4,67.6,49C59,51.7,49,51,42.8,58c-9,10.1-2.3,28,8.2,36s14.7,10.4,25.1,19.3
		c9.3,7.9,15.3,19.8,23.3,29.5c3,3.8,6.2,7.4,9.6,10.9c4.3,4.2,10,6.8,16,7.3l27.4,1.9c0.9,0,1.7,0,2.6,0h0.1
		c2.7,0.2,12.6-0.1,15.2-0.9c5.5-1.7,10.7-5.5,15.5-9.1c10.3-7.7,18.9-18.3,30.5-24c13.3-6.6,29.2-6.2,43.1-12.1
		C273.3,110.7,285.3,92.8,276.5,79.8z"/>
	<path class="st14" d="M179.1,74.1c-2.3,25.6-23.7,44-47.5,41.3c-23.3-2.7-40-24.9-37.8-49.5c0.2-2.3,0.6-4.5,1.1-6.7
		c4.9-21.2,23.6-36.3,44.8-34.7c21.6,1.7,38.3,20.1,39.5,42.6C179.3,69.4,179.3,71.7,179.1,74.1z"/>
	<path class="st1" d="M156.1,128.7c-3.5,3.3-7.8,5.7-12.5,7.1c-4.7,1.4-9.7,1.7-14.5,1c-4.9-0.5-9.6-2-13.8-4.5
		c-4.2-2.4-7.8-5.7-10.5-9.8c3.6,3,7.5,5.5,11.7,7.4c4.1,1.9,8.5,3,13,3.5c4.5,0.7,9,0.6,13.5-0.2
		C147.5,132.3,152,130.8,156.1,128.7z"/>
	<path class="st15" d="M177.1,72.1c-2.2,25.1-23.3,43.3-46.6,40.6C107.6,110,91.1,88.3,93.3,64c0.2-2.2,0.5-4.4,1-6.6
		c4.9-20.8,23.3-35.7,44.1-34.1c21.2,1.6,37.6,19.7,38.8,41.8C177.3,67.4,177.3,69.8,177.1,72.1z"/>
	<path class="st16" d="M109.9,65.6c1.3-14.5,13.2-25.2,26.9-24.1c13.8,1.2,24,14.1,22.7,28.8s-13.6,25.5-27.4,24
		C118.5,93,108.6,80.1,109.9,65.6z"/>
	<path class="st17" d="M117.9,66.4c0.9-9.7,8.9-16.9,18.1-16.1s16,9.5,15.1,19.3s-9.1,17.1-18.3,16.1S117.1,76.1,117.9,66.4z"/>
	<path class="st1" d="M92.4,56.4c12.9-50.6,82.8-45.7,87.1,8.1c0.1,1-0.6,1.9-1.6,2c-0.3,0-0.7,0-1-0.2
		c-26.3-13.3-55.6-15.9-82.4-7.7c-0.9,0.2-1.9-0.3-2.1-1.3C92.3,57,92.3,56.7,92.4,56.4z"/>
</g>
<path id="r-hand" class="st0" d="M201.6,306.8c2,3.6,4.3,7.1,6.8,10.4c1.1,1.4,2.2,2.9,2.1,4.7c0,0.8-0.4,1.6-1.2,2.1
	c-1.6,0.9-3.3-0.6-4.5-1.9l-8.2-8.5l0,0c-0.9-1.1-2.6-1.2-3.7-0.3c-0.8,0.7-1.1,1.8-0.8,2.8c0.7,2.3,2.6,4.8,1.5,7
	c-0.8,1.4-2.5,2-4,1.4c-2.6-0.8-4-3.4-4.8-5.8c-1.2-3.8-1.1-7.8,0.3-11.5c2.6-7.1,12.5-7.3,16.4-0.4L201.6,306.8z"/>
</svg>
