<?xml version="1.0" encoding="utf-8"?>
<!-- Generator: Adobe Illustrator 25.2.0, SVG Export Plug-In . SVG Version: 6.00 Build 0)  -->
<svg version="1.1" id="Layer_1" xmlns="http://www.w3.org/2000/svg" xmlns:xlink="http://www.w3.org/1999/xlink" x="0px" y="0px"
	 viewBox="0 0 238.9 401.9" style="enable-background:new 0 0 238.9 401.9;" xml:space="preserve">
<style type="text/css">
	.st0{fill:#721267;}
	.st1{fill:#DDCD00;}
	.st2{fill:none;stroke:#DDCD00;stroke-miterlimit:10;}
	.st3{fill:#44F5A0;}
	.st4{clip-path:url(#SVGID_2_);}
	.st5{fill:#F7EC17;}
	.st6{fill:none;stroke:#DDCD00;stroke-width:0.95;stroke-miterlimit:10;}
	.st7{fill:#33D08C;}
	.st8{fill:#1B8B79;}
	.st9{fill:none;stroke:#33D08C;stroke-width:1.02;stroke-linecap:round;stroke-miterlimit:10;}
	.st10{fill:#891B6A;}
	.st11{fill:#AA1A88;}
	.st12{clip-path:url(#SVGID_4_);}
	.st13{clip-path:url(#SVGID_6_);}
	.st14{fill:none;stroke:#33D08C;stroke-miterlimit:10;}
	.st15{clip-path:url(#SVGID_8_);}
	.st16{clip-path:url(#SVGID_10_);}
	.st17{fill:#F5FAFF;}
	.st18{fill:#9629FF;}
	.st19{fill:#022538;}
	.st20{clip-path:url(#SVGID_12_);}
	.st21{clip-path:url(#SVGID_14_);}
</style>
<g id="l-thigh">
	<path class="st0" d="M154.6,241.7c-47.7,6.5-76.6,15.9-76.6,15.9s-9.3,0-13.5-7.1c-6.2-10.6,3.5-18,3.5-18s12-9.9,38.5-21.1
		c11.8-5,21.3-10.8,40.8-10.3c20.1,0.5,21.8,17.2,22.1,20.2C169.7,223.7,171.7,239.4,154.6,241.7z"/>
</g>
<g id="l-calf">
	<path class="st0" d="M114.2,358.2c0.3,3.5-37.8,1.1-37.8,1.1s-2.1-24.9-2.8-32.5c-2.4-28.1-11.2-81.3-11.2-81.3s18.1-0.7,22.2-1.1
		c2.1-0.2,3.9,0,4.4,1c11.7,23.1,12.5,34.8,14.2,51.1c1.3,12.9,3.6,25.7,6.8,38.3C112.1,342.3,114.2,357.9,114.2,358.2z"/>
	<path class="st1" d="M69.7,359.3c-4,8.1-45.8,10.2-38.3,30.5l18.5-0.6c0.1,2.1,0.3,4.3,0.8,6.4c0.6,2.3,11.8,1.1,17.6,0
		c15.4-3.1,14-9.6,34.5-14.1c0,0,22.4,1.4,28.4,0.3c4.3-0.8-0.7-8.1-8-10.5c-6.3-2.1-6.8-12-9.7-25c-6-26.5-10.3-50.6-10.1-49.6
		c0,0-12.7,13.8-23.8,24.3c-3.8-3.1-5.6-6.2-8.4-16.4C71.6,317.3,75.4,347.8,69.7,359.3z"/>
	<path class="st2" d="M79.6,320.8c0,0,2.1,25-3.2,38.5c-3.8,9.6-7.7,12.3-15,15.8c-6.9,3.3-12.7,10.6-10.8,20.5"/>
</g>
<path id="l-arm" class="st3" d="M134.8,115.8c-0.3,0.3-0.6,0.5-0.9,0.7c-5.2,3.5-10.4,7-15.5,10.6l-7.7,5.5l-7.6,5.5
	c-5,3.8-10.1,7.4-15,11.3s-9.7,7.8-14.3,12.2c-2.7,2.5-7,2.2-10.1-0.6c-0.3-0.2-0.5-0.4-0.7-0.7c-3.1-3.4-3.3-8.4-0.4-11.1
	c0.3-0.3,0.6-0.5,0.9-0.7c5.4-3.4,10.4-7.1,15.3-10.9s9.8-7.9,14.6-11.8l7.2-6l7.1-6.1c4.8-4.1,9.4-8.3,14.1-12.5
	c3.4-3.1,9.1-2.4,12.7,1.6c0.7,0.8,1.3,1.8,1.8,2.8C138,109.2,137.5,113.3,134.8,115.8z"/>
<g id="l-forearm">
	<g>
		<defs>
			<path id="SVGID_1_" d="M84.3,165.9c0,0-19.4,21.5-58.1,16.4c-12.1-1.6-12.6-7.2-12.8-10.7c-0.4-7.6,15.5-14.8,17.9-16
				c3.5-1.7,18.2-10.1,24.7-13.9c8.5-5,11.3-1.2,18.7,0.7c4.4,1.1,11.6-3.6,16,3.1S90,157.1,84.3,165.9z"/>
		</defs>
		<clipPath id="SVGID_2_">
			<use xlink:href="#SVGID_1_"  style="overflow:visible;"/>
		</clipPath>
		<g class="st4">
			<rect x="11.9" y="138" transform="matrix(0.9698 -0.244 0.244 0.9698 -37.417 18.316)" class="st5" width="86.7" height="44.5"/>
			<path class="st6" d="M96.5,144.1c-9.2,2.1-18,5.5-26.2,10.1c-11.8,6.6-23.5,11.2-39.7,10.2c-6.2-0.4-18.1,11.8-18.1,11.8
				l-2.2-28.3l58.4-19l21.6,2.9L96.5,144.1z"/>
		</g>
	</g>
</g>
<g id="l-hand">
	<path class="st3" d="M14.4,182.5c-2.5,2.3-4.9,7.4-6.7,9.9c-1,1.4-1.4,3.1-1.2,4.8c0,1.2,0.6,2.2,1.6,2.8c2.5,1,3.5-1.5,5.2-4.6
		c1.3-2.1,3.1-3.8,5.3-4.9C18.5,190.5,16.4,180.7,14.4,182.5z"/>
	<path class="st7" d="M11.2,187.2l-4.7,8.6c0,1.2,0.6,2.2,1.6,2.8c0,0,2.5-8.1,6-8.8C13.9,188.8,11.2,187.2,11.2,187.2z"/>
	<path class="st3" d="M25.7,161.7l-1.2,0.3c-3.2,0.8-12.2,3.4-16.2,7.1c-4.9,4.6-1.9,16.8,5.7,20.6s14.6-0.6,17.9-4.3
		s3.5-16.1,2.6-20.2C31.5,161.7,25.7,161.7,25.7,161.7z"/>
	<path class="st3" d="M11.4,159.4c-5.5-0.6-10.8-0.3-9.2,3.5s10.6,4.4,13.4,7.8c1.9,2.4,9,5.1,11.4,3.7s4-10.5,0.4-12.2
		C23.4,160.4,11.4,159.4,11.4,159.4z"/>
	<path class="st3" d="M4,197.8c-0.2,0-0.3,0-0.5-0.1c-1.3-0.4-2.1-2.1-2.4-4.1c-0.2-1.9,0.2-3.8,1.2-5.4c1-1.6,2.2-4.1,3.5-6.4
		c1.4-2.4,3-4.6,4.7-5.1c3.2-0.9,2.7,10.3,2.7,10.3c-0.8,0.3-1.5,0.8-1.9,1.5c-0.7,0.9-1.3,1.9-1.7,2.9C7.8,195.3,6.8,198.3,4,197.8
		z"/>
	<path class="st7" d="M1.1,193.6c-0.2-1.9,0.2-3.8,1.2-5.4c1-1.6,2.2-4.1,3.5-6.4c1.2-0.5,2.5-0.9,3.8-1.1l1.2,1.7
		c-2.2,1.8-3.2,6.5-3.8,7.8C5.4,193.9,3.8,194.1,1.1,193.6z"/>
	<path class="st3" d="M12.2,178.5c0,0-1.8,0.3-3.6,4.4s-2.8,7.3-6.1,6.3c-2.5-0.8-3.3-6.2-1.2-9.6s5-10.6,8.2-11.5
		S12.2,178.5,12.2,178.5z"/>
</g>
<g id="tail">
	<path class="st8" d="M174.8,29.3L174.8,29.3v0.3c0,0.2,0,0.4,0,0.6c0,0.4,0.1,0.9,0.1,1.3c0.1,0.9,0.2,1.9,0.3,2.9s0.3,2,0.4,2.9
		s0.3,2,0.5,3c0.8,4,1.8,7.9,3.1,11.7c0.3,1,0.7,1.9,1.1,2.8s0.7,1.9,1.1,2.8s0.9,1.8,1.3,2.8l0.6,1.4l0.7,1.3l1.4,2.7
		c0.5,0.9,1.1,1.7,1.6,2.6s1,1.8,1.7,2.6l1.9,2.5c1.2,1.7,2.6,3.3,4,4.8l1,1.2l1.3,1.4l2.6,2.8c0.9,0.9,1.7,1.9,2.5,2.9l2.4,3
		c0.8,1,1.5,2.1,2.3,3.1s1.5,2.1,2.2,3.2c2.9,4.4,5.3,9.2,7,14.1c0.4,1.3,0.8,2.6,1.1,3.9s0.6,2.6,0.7,4c0.1,0.7,0.1,1.3,0.1,2
		c0,0.7,0.1,1.4,0,2.1c0,0.7-0.1,1.4-0.2,2.1c-0.1,0.8-0.3,1.5-0.5,2.2c-0.3,1-1.3,1.5-2.3,1.3c0,0,0,0,0,0
		c-0.5-0.1-0.9-0.5-1.1-0.9l-0.5-1c-0.1-0.3-0.3-0.9-0.4-1.3l-0.3-0.7l-0.3-0.7c-0.2-0.5-0.4-1-0.7-1.4s-0.5-0.9-0.8-1.4
		c-0.5-0.9-1.2-1.8-1.7-2.7c-0.3-0.4-0.7-0.9-1-1.3s-0.6-0.9-1-1.3c-2.8-3.4-6-6.4-9.3-9.2c-0.4-0.4-0.8-0.7-1.2-1.1l-1.3-1
		c-0.9-0.7-1.7-1.4-2.6-2.1c-1.9-1.3-3.5-2.7-5.4-3.9l-2.8-1.9c-0.5-0.3-0.9-0.6-1.4-1l-1.6-1.2c-2.2-1.6-4.3-3.3-6.3-5.1l-3-2.8
		c-1-0.9-1.9-2-2.8-3s-1.9-2-2.7-3.1l-2.5-3.2l-1.2-1.6l-1.1-1.7l-2.3-3.5c-0.7-1.2-1.4-2.4-2-3.6s-1.3-2.4-1.9-3.7
		s-1.2-2.5-1.8-3.7l-1.5-3.8c-0.5-1.3-0.9-2.6-1.4-3.9c-0.2-0.7-0.4-1.3-0.6-2l-0.6-2c-0.4-1.3-0.7-2.7-1-4s-0.6-2.7-0.8-4.1
		s-0.4-2.8-0.6-4.2c-0.1-0.7-0.1-1.5-0.2-2.2c0-0.4-0.1-0.8-0.1-1.2v-0.6v-0.8c-0.2-7.6,5.8-13.9,13.4-14.1
		c6.4-0.2,12.1,4.2,13.7,10.4L174.8,29.3z"/>
	<path class="st9" d="M174.8,34.7c0,0-1.6,0.7-4.1,1.5c-2.9,1-5.9,1.9-8.9,2.5c-3,0.5-6.1,0.7-9.2,0.6c-1.5-0.1-2.9-0.2-4.4-0.4"/>
	<path class="st9" d="M176,42.9c0,0-1.5,0.8-3.7,1.9c-2.6,1.3-5.4,2.5-8.2,3.4c-2.8,0.8-5.8,1.3-8.7,1.5c-1.4,0.1-2.8,0.1-4.2,0.1"
		/>
	<path class="st9" d="M178.1,51c0,0-1.3,1-3.3,2.3c-2.3,1.6-4.8,2.9-7.3,4.1c-2.6,1.1-5.3,1.9-8.1,2.3c-1.3,0.2-2.7,0.4-4,0.5"/>
	<path class="st9" d="M181,58.9c0,0-1.1,1.1-2.8,2.5c-2,1.7-4.1,3.3-6.3,4.7c-2.3,1.3-4.8,2.3-7.3,3c-1.2,0.3-2.5,0.6-3.8,0.8"/>
	<path class="st9" d="M184.8,66.4c0,0-0.9,1.2-2.3,2.7c-1.6,1.9-3.3,3.6-5.2,5.1c-2,1.5-4.2,2.6-6.5,3.5c-1.1,0.5-2.2,0.8-3.4,1.1"
		/>
	<path class="st9" d="M189.5,73.5c0,0-0.7,1.2-1.7,2.8c-1.2,1.9-2.6,3.7-4.2,5.3c-1.6,1.5-3.5,2.8-5.5,3.9c-1,0.5-2,1-3,1.4"/>
	<path class="st9" d="M195.1,80.1l-0.3,0.8c-0.2,0.5-0.4,1.2-0.8,2c-0.8,1.9-1.9,3.7-3.2,5.3c-1.4,1.5-2.9,2.9-4.6,4
		c-0.7,0.5-1.4,0.9-1.8,1.2s-0.8,0.4-0.8,0.4"/>
	<path class="st9" d="M202.1,87.8c-0.3,0.9-0.6,1.7-1,2.6c-0.8,1.7-1.8,3.2-3.1,4.5c-1.3,1.3-2.8,2.3-4.5,3.2
		c-1.4,0.8-2.4,1.2-2.4,1.2"/>
	<path class="st9" d="M208.6,96.1c-0.3,0.8-0.6,1.5-1.1,2.2c-0.7,1.4-1.7,2.7-2.9,3.7c-1.3,1-2.7,1.7-4.2,2.2
		c-1.3,0.5-2.3,0.8-2.3,0.8"/>
	<path class="st9" d="M213.8,105.3c-0.3,0.6-0.6,1.3-1,1.9c-0.6,1.1-1.5,2.1-2.6,2.8c-1.1,0.6-2.4,1-3.7,1.1
		c-1.2,0.2-2.1,0.2-2.1,0.2"/>
	<path class="st9" d="M217.4,115.6c-0.3,0.5-0.6,1-0.9,1.5c-0.5,0.8-1.2,1.4-2.1,1.8c-0.9,0.2-1.8,0.1-2.7-0.1
		c-0.9-0.2-1.6-0.4-1.6-0.4"/>
</g>
<g id="torso">
	<path class="st10" d="M178.8,194.8c0,0,13.1,19,12.6,33.3c-0.5,13.3-13.6,21.2-47.4,21.2c-7.1,0-20.8-27.5-19.9-41.2
		c0.8-2.9,1.8-5.8,3-8.6L178.8,194.8z"/>
	<path class="st10" d="M175.3,180.1c-0.3-16.1,17.4-43.7,9.4-81.5c-15.6-5.7-39.5-8.2-54-2.5c-17,41,0.8,65.1-0.4,81.2
		c-0.8,11.3-4.5,29-4.5,29s8.7,15,18,32c9.2-17.1,39.5-32.6,39.5-32.6C178.8,194.8,175.4,187,175.3,180.1z"/>
	<path class="st11" d="M155.4,166.2c4-14.9,11.2-22.7,16.3-31c3.6-5.9,16-30.1,14.9-33.7s-9.9-4.8-13.9-7.2l-23,22.8l1-25l-17,2.9
		c-14,24.1-10.3,32.9-9.6,39.8c1.1,9.7,7.8,19,10.8,28.3c1.3,3.9,8.8,48.2,8.8,48.2S152.3,177.6,155.4,166.2z"/>
	<path class="st7" d="M140.1,94.3c0.3,0,17.1-3.8,29.4-1.1S149.7,117,149.7,117s-5.8-2.3-8.3-7.1C136.1,99.8,140.1,94.3,140.1,94.3z
		"/>
	<path class="st5" d="M142.3,93.3c0,0-21.6,6.8-18.7,44.5c0,0-18.6-28.8-10.3-39.7C121,96.2,142.3,93.3,142.3,93.3z"/>
	<path class="st5" d="M136.4,89.2c0.4-4.8,3.4-17.6,19-18.1s-12.8,22.7-11.7,30.3S136.4,89.2,136.4,89.2z"/>
	<path class="st7" d="M164,108.5c0,0-5.6,7.3-12.9,7.3s-7.3-7.3-7.3-7.3s0-7.5,0-21.3s0.3-25.3,0.3-25.3L167,50
		c0,0-5.4,18.1-5.1,37.2C162.2,101,164,108.5,164,108.5z"/>
	<path class="st5" d="M149.7,117c0,0,4.4,1.2,16-9.1c3-2.6,5.2-7.3,7-10.8c1.8-3.4,3.1-7,3.8-10.8c0.6-3.5-0.4-4.7-1.8-6.8
		c-2.3-3.3-6.7-5.2-10.6-6c-0.3-0.1-1.2-0.1-1.5-0.2c-0.7,6.6-0.9,13.2-0.4,19.8c0.2,1.2,0.3,2.4,0.2,3.6c-0.2,3.5-1.2,6.8-3,9.8
		C155.7,112.4,150.6,115.3,149.7,117z"/>
	<path class="st5" d="M178.4,96.5c0,0-3.1,1.9-5.5,10.6c-3.6,13.5-1.2,28.1,5.4,34.4c0,0,29.4-23.6,22.6-40.4
		C193.2,99.1,178.4,96.5,178.4,96.5z"/>
	<path class="st1" d="M178.3,141.5c-0.8-5.1-0.8-10.3,0-15.4c1.6-8.2,9.8-23.8,17.1-20C208.2,112.7,178.3,141.5,178.3,141.5z"/>
	<path class="st5" d="M149.7,117c0,0-4.9-1.8-5.9-14.4c-0.2-2.4-0.4-6.1-0.4-6.1l-7-7.2c-0.4,4.9,0,9.8,1.2,14.6
		C140.8,117,149.7,117,149.7,117z"/>
</g>
<g id="r-calf">
	<path class="st10" d="M136.7,363.2c0.3,3.5-37.9,1.1-37.9,1.1s-2.1-24.9-2.8-32.5c-2.4-28.1-11.2-81.4-11.2-81.4s18.1-0.7,22.2-1.1
		c2.1-0.2,3.9,0,4.4,1c11.7,23.1,12.5,34.8,14.3,51.1c1.3,12.9,3.6,25.7,6.8,38.3C134.5,347.3,136.7,363,136.7,363.2z"/>
	<path class="st5" d="M92.1,364.3c-4,8.1-45.8,10.2-38.3,30.5l18.4-0.5c0.1,2.1,0.3,4.3,0.8,6.4c0.6,2.3,11.8,1.1,17.6,0
		c15.4-3.1,14-9.6,34.5-14.1c0,0,22.4,1.4,28.4,0.3c4.3-0.8-0.7-8.1-7.9-10.5c-6.3-2.1-6.8-12-9.7-25c-6-26.5-10.3-50.6-10.1-49.6
		c0,0-12.7,13.8-23.8,24.3c-3.8-3.1-5.6-6.2-8.4-16.4C94,322.3,97.8,352.8,92.1,364.3z"/>
	<path class="st2" d="M102,325.9c0,0,2.1,25-3.2,38.5c-3.8,9.6-7.7,12.3-15.1,15.8c-6.9,3.3-12.7,10.6-10.8,20.5"/>
</g>
<g id="r-thigh">
	<path class="st10" d="M177,246.8c-47.7,6.5-76.6,15.9-76.6,15.9s-9.3,0-13.5-7.1c-6.2-10.6,3.5-18,3.5-18s12-9.9,38.5-21.1
		c11.8-5,21.3-10.8,40.8-10.3c20.1,0.5,21.8,17.2,22.1,20.2C192.2,228.7,194.2,244.4,177,246.8z"/>
	<path class="st7" d="M184.7,223.1c-8.8,8.7-16.9,19.6-24.8,24.1s-7,0.3-11.1,1.5s-4.4,2.5-12.1,5.5c-3.9,1.6-4.9-1.3-4.9-4.6
		c-2.9,2.2-5.8,4-7.6,4.1c-4.4,0.2-2.7-7.2-2.7-7.2C143.1,240.5,164.3,232.6,184.7,223.1z"/>
</g>
<path id="r-arm" class="st3" d="M197.6,108.2c0.2,0.3,0.4,0.7,0.5,1c2.4,5.8,5,11.5,7.5,17.2l3.9,8.5l4,8.5
	c2.7,5.6,5.4,11.3,8.3,16.8s5.9,11,9.3,16.3c2,3.1,0.9,7.3-2.4,9.8c-0.3,0.2-0.5,0.4-0.8,0.6c-3.9,2.4-8.9,1.7-11-1.7
	c-0.2-0.3-0.4-0.7-0.5-1c-2.3-5.9-5-11.5-7.9-17.1s-5.9-11-8.9-16.6l-4.6-8.2l-4.7-8.2c-3.1-5.4-6.4-10.8-9.7-16.1
	c-2.4-3.9-0.7-9.4,4-12.2c0.9-0.6,1.9-1,3-1.3C191.7,103.8,195.7,105.1,197.6,108.2z"/>
<g id="r-forearm">
	<g>
		<defs>
			<path id="SVGID_3_" d="M232.8,186.4c0,0-16.5,23.9-55.6,23.6c-12.2-0.1-13.4-5.5-14.1-9c-1.4-7.5,13.5-16.7,15.7-18.1
				c3.3-2.1,16.8-12.4,22.8-17c7.8-6,11-2.7,18.6-1.7c4.5,0.6,11.1-5,16.3,1.1S237.4,176.9,232.8,186.4z"/>
		</defs>
		<clipPath id="SVGID_4_">
			<use xlink:href="#SVGID_3_"  style="overflow:visible;"/>
		</clipPath>
		<g class="st12">
			
				<rect x="159.9" y="162.3" transform="matrix(0.9308 -0.3655 0.3655 0.9308 -53.3909 87.0675)" class="st5" width="86.7" height="44.5"/>
			<path class="st6" d="M242.1,163.3c-8.8,3.3-17.1,7.8-24.7,13.4c-10.9,8-21.8,14.1-38.1,15.2c-6.2,0.4-16.4,14-16.4,14l-5.8-27.8
				l55.5-26.3l21.8,0.1L242.1,163.3z"/>
		</g>
	</g>
</g>
<g id="r-hand">
	<path class="st3" d="M170.8,219.9c-3.4,0.6-8.8-0.7-11.9-0.8c-1.7-0.1-3.3-0.8-4.6-2c-0.9-0.7-1.4-1.8-1.2-3
		c0.8-2.6,3.3-1.8,6.8-1.3s4.5-0.5,4.5-0.5S173.4,219.4,170.8,219.9z"/>
	<path class="st7" d="M163.4,216.8l-9.1,0.3c-0.9-0.7-1.4-1.8-1.2-3L163.4,216.8z"/>
	<path class="st3" d="M174.1,189.8l-1.2,0.4c-3.1,1.2-11.7,4.9-15.1,9.1c-4.2,5.2,0.2,16.9,8.3,19.7s14.4-2.4,17.2-6.6
		s1.4-16.4,0-20.4C179.9,189,174.1,189.8,174.1,189.8z"/>
	<path class="st3" d="M167,215.9c-2.7,2-10.2-0.2-14.1-0.6s-7.8-4.4-6.8-6.8c0.1-0.2,0.1-0.3,0.2-0.4c1.4-2.6,4.4-1.5,8.5-0.5
		c1.1,0.3,2.2,0.4,3.4,0.4c0.8,0.1,1.7-0.1,2.4-0.6C160.6,207.4,169.7,213.9,167,215.9z"/>
	<path class="st3" d="M159.7,189.3c-5.5,0.1-10.7,1.1-8.7,4.7s9.8,2.5,12.6,3.6s7.6,1.7,9.8,0s4.4-6.6,0.7-7.8
		C169.9,188.4,159.7,189.3,159.7,189.3z"/>
	<path class="st7" d="M161.8,209.1c0,0-1.7,1.6-6.3,1.4c-3.2-0.4-6.3-1.2-9.3-2.4c1.4-2.6,4.4-1.5,8.5-0.5c1.1,0.3,2.2,0.4,3.4,0.4
		L161.8,209.1z"/>
	<path class="st3" d="M157.8,199.9c0,0-1.4,1.2-5.7,0.1s-7.5-2.2-8.7,0.9c-0.9,2.4,2.9,6.4,6.8,6.8s11.4,2.6,14.1,0.6
		S157.8,199.9,157.8,199.9z"/>
</g>
<g id="head">
	<g>
		<defs>
			<path id="SVGID_5_" d="M113.8,29.8c-0.2,4.5,2.4,6.7,2.1,7.5c-0.2,0.7-1.3,0.9-2.6,0.3c0,0-11.6-3.9-11.6-10.5
				c0.1-12,15.8-17.1,20-17C116.8,16.3,115,22.1,113.8,29.8z"/>
		</defs>
		<clipPath id="SVGID_6_">
			<use xlink:href="#SVGID_5_"  style="overflow:visible;"/>
		</clipPath>
		<g class="st13">
			<path class="st8" d="M113.8,29.8c-0.2,4.5,2.4,6.7,2.1,7.5c-0.2,0.7-1.3,0.9-2.6,0.3c0,0-11.6-3.9-11.6-10.5
				c0.1-12,15.8-17.1,20-17C116.8,16.3,115,22.1,113.8,29.8z"/>
			<path class="st14" d="M115.5,31.5c-2.3-1.9-5.4-2.6-8.3-2c-5.1,1-1.6,6.2,3.3,8.1"/>
			<path class="st14" d="M116.7,28.5c0,0-0.6-3.1-4.8-6.1s-10.7-0.7-10.7,5.3"/>
			<path class="st14" d="M108.5,14.6c1.1-0.5,2.3-0.5,3.4-0.1c2.7,1.2,4.7,3.6,5.3,6.6"/>
			<path class="st14" d="M118.1,9.7c0,0,3.8,0.4,3.8,6.7"/>
		</g>
	</g>
	<g>
		<defs>
			<path id="SVGID_7_" d="M181.8,30.9c-0.3,11.4-17,25.6-24.2,31.2c-2.2,1.7-3.6,6.2-7.1,11.7c-4,6.3-8.7,12.5-13.8,12.5
				s-10.1-4-13-10.7c-1.6-3.8-5.9-9.4-8.6-12.9c-5.6-7.4-7.3-15.4-5.4-26.7c1.2-7.3,3.2-15,7-20.1c2.9-3.8,6.5-7,10.6-9.4l0,0
				c1.4-0.9,2.9-1.6,4.4-2.3c2.9-1.3,5.8-2.3,8.9-3c0.9-0.2,1.8-0.4,2.7-0.6c2.4-0.4,4.8-0.6,7.2-0.6c4.1-0.1,8.2,0.3,12.3,1.1
				c2.2,0.5,4.3,1.2,6.4,2.2C176.7,7,182.2,14.8,181.8,30.9z"/>
		</defs>
		<clipPath id="SVGID_8_">
			<use xlink:href="#SVGID_7_"  style="overflow:visible;"/>
		</clipPath>
		<g class="st15">
			<rect x="105.1" y="-4.7" class="st3" width="79.2" height="93.4"/>
			<path class="st8" d="M141.5,70.9c-2.2,0.9-4.4,1.4-6.8,1.4c-2.4-0.1-4.8-0.6-7-1.4H141.5z"/>
			<path class="st7" d="M111.6,37.7c-0.1-1.3,0.4-2.6,1.3-3.6c1-1,2.3-1.6,3.7-1.7c1.3-0.1,2.7,0.1,3.9,0.6c0.6,0.3,1.2,0.5,1.7,0.8
				s1,0.7,1.5,1.1c0.3,0.2,0.4,0.7,0.1,1c-0.2,0.2-0.5,0.3-0.8,0.2h-0.1c-0.6-0.2-1.1-0.4-1.6-0.6l-1.6-0.5c-1-0.3-2-0.4-3-0.4
				c-1,0.1-1.9,0.3-2.7,0.8C113.2,36.1,112.3,36.8,111.6,37.7z"/>
			<path class="st7" d="M157.6,39.2c-1.8-0.7-3.3-1.3-4.9-1.8c-1.5-0.5-3-0.8-4.5-1c-1.5-0.2-3.1,0-4.6,0.3
				c-0.8,0.2-1.6,0.4-2.3,0.7c-0.8,0.3-1.5,0.6-2.4,0.9h-0.1c-0.4,0.1-0.7-0.1-0.9-0.4c-0.1-0.2,0-0.5,0.2-0.7c0.3-0.3,0.7-0.7,1-1
				c0.3-0.3,0.7-0.6,1.1-0.9c0.8-0.5,1.6-1,2.5-1.4c3.7-1.5,7.8-1.1,11.2,0.9C155.6,35.9,156.9,37.4,157.6,39.2z"/>
			<g>
				<defs>
					<path id="SVGID_9_" d="M126,46.6c0.7,4.8-0.6,8.6-3.1,9.9c-3.6-0.6-8.7-3.6-9.4-8.4s0.2-7.9,4.1-10
						C120.7,37.6,125.3,41.8,126,46.6z"/>
				</defs>
				<clipPath id="SVGID_10_">
					<use xlink:href="#SVGID_9_"  style="overflow:visible;"/>
				</clipPath>
				<g class="st16">
					
						<rect x="108.9" y="36.7" transform="matrix(0.2529 -0.9675 0.9675 0.2529 44.6732 151.1595)" class="st17" width="22.6" height="19.9"/>
					<circle class="st18" cx="120.1" cy="49" r="7.3"/>
					<circle cx="120.1" cy="49" r="3.7"/>
					<path class="st19" d="M122.8,58.2c0,0,7.3-9.3-0.6-17c-1.4-1.2-3.2-1.8-5-1.6c0,0-2.2,0.1-3.2,3.3c-0.7,2.5-0.6,5.2,0.3,7.6
						l-5.4-1.5l2.8-21.4l16,5.1l1.8,25.6L122.8,58.2z"/>
				</g>
			</g>
			<g>
				<defs>
					<path id="SVGID_11_" d="M139.9,46c-2,4.6-1.7,8.8,0.5,10.8c3.9,0.3,9.7-1.4,11.8-6c1.6-3.6,3.2-8,0.2-10.8
						C149.3,38.8,141.9,41.4,139.9,46z"/>
				</defs>
				<clipPath id="SVGID_12_">
					<use xlink:href="#SVGID_11_"  style="overflow:visible;"/>
				</clipPath>
				<g class="st20">
					<rect x="135.2" y="37" class="st17" width="22.3" height="21.8"/>
					<circle class="st18" cx="145" cy="50" r="7.6"/>
					<circle cx="145" cy="50" r="3.8"/>
					<path class="st19" d="M140.1,58.7c0,0-4.9-11.4,5.1-17c1.7-0.9,3.7-1,5.4-0.3c0,0,2.2,0.7,2.3,4.2c0.1,2.7-0.7,5.4-2.3,7.6
						l5.9-0.1l2.8-22.3l-17.5,0.9l-8.6,25.3L140.1,58.7z"/>
				</g>
			</g>
			<path class="st5" d="M137.6,1.5c-2,1.5-3.6,3.5-4.7,5.7c-1,2.1-1.5,4.4-1.3,6.7c0.1,2.3,0.7,4.6,1.6,6.8c0.5,1.1,1,2.2,1.6,3.2
				c0.3,0.5,0.6,1,0.9,1.5l0.5,0.7c0.1,0.2,0.3,0.4,0.4,0.6l-7-1.5l0,0c3.5-2,7.1-4,10.7-6.1s7-4.3,10.5-6.5s6.8-4.5,10-7
				c1.6-1.2,3.1-2.5,4.5-3.8c0.7-0.6,1.2-1.3,1.8-2c0.2-0.3,0.4-0.5,0.5-0.8c0-0.1,0-0.1,0.1-0.1s0.1,0.1,0.1,0.2
				c-0.6-0.8-0.5-1.9,0.2-2.5c0.8-0.6,1.9-0.5,2.5,0.2c0.4,0.5,0.6,1,0.7,1.6c0.1,0.5,0,0.9-0.1,1.4c-0.2,0.7-0.4,1.3-0.8,1.9
				c-0.6,1-1.3,1.9-2.1,2.8c-1.4,1.6-3,3.1-4.6,4.5c-3.2,2.8-6.5,5.4-9.8,7.9c-6.7,5-13.5,9.7-20.5,14.3l0,0l-1.5,1l-0.9-1.5
				c-0.8-1.3-1.5-2.6-2.1-4c-0.6-1.4-1.1-2.7-1.5-4.2c-0.9-2.9-1.2-5.9-1-8.9c0.2-3.1,1.2-6.1,2.9-8.7c1.7-2.5,3.9-4.7,6.5-6.3
				c0.8-0.5,1.9-0.3,2.4,0.5c0.5,0.7,0.3,1.7-0.3,2.3L137.6,1.5z"/>
		</g>
	</g>
	<g>
		<defs>
			<path id="SVGID_13_" d="M173.7,27.6c-3,4.8-6.9,9.3-6.6,10.2c0.2,0.7,1.3,0.9,2.6,0.3c0,0,15.2-4,18.6-9.8
				c8-13.6-7.3-18.8-11.5-18.7C181.8,15.8,177.1,22.2,173.7,27.6z"/>
		</defs>
		<clipPath id="SVGID_14_">
			<use xlink:href="#SVGID_13_"  style="overflow:visible;"/>
		</clipPath>
		<g class="st21">
			
				<rect x="161.8" y="12.9" transform="matrix(0.4529 -0.8916 0.8916 0.4529 74.5872 173.758)" class="st8" width="34.1" height="26.4"/>
			<path class="st8" d="M169.2,30.3c0.2,4.5-2.4,6.7-2.1,7.5c0.2,0.7,1.3,0.9,2.6,0.3c0,0,11.6-3.9,11.6-10.5
				c-0.1-12-15.8-17.1-20-17C166.2,16.8,168.1,22.6,169.2,30.3z"/>
			<path class="st14" d="M169.9,31.6c3,0.6,5.5,2.4,6.9,5.1c2.5,4.5-3.7,5.2-8.4,2.7"/>
			<path class="st14" d="M171.4,28.8c3-1.4,6.5-1.8,9.8-1.2c5,1.3,5.3,8.7,0.8,12.5"/>
			<path class="st14" d="M188.8,30.9c0,0,5.2-7.6-1.4-10.5c-1.7-0.8-7.7-0.1-11.3,1.8"/>
			<path class="st14" d="M190.4,18c0,0-4.1-9.8-13-1"/>
		</g>
	</g>
</g>
<path id="shoulder" class="st5" d="M195.4,106c0.6,0.3,1.2,0.8,1.7,1.3c1.5,1.1,2.9,2.2,4.2,3.5c0.9-3.2,0.7-6.7-0.5-9.8
	c-7.7-1.9-22.5-4.6-22.5-4.6s-3.1,1.9-5.5,10.6c-3.6,13.4-1.2,28,5.4,34.4c-0.8-5.1-0.8-10.3,0-15.4
	C179.8,117.9,188.1,102.2,195.4,106z"/>
</svg>
