<?xml version="1.0" encoding="utf-8"?>
<!-- Generator: Adobe Illustrator 25.2.0, SVG Export Plug-In . SVG Version: 6.00 Build 0)  -->
<svg version="1.1" id="Layer_1" xmlns="http://www.w3.org/2000/svg" xmlns:xlink="http://www.w3.org/1999/xlink" x="0px" y="0px"
	 viewBox="0 0 177 469.3" style="enable-background:new 0 0 177 469.3;" xml:space="preserve">
<style type="text/css">
	.st0{fill:#44F5A0;}
	.st1{clip-path:url(#SVGID_2_);}
	.st2{fill:#F7EC17;}
	.st3{fill:none;stroke:#DDCD00;stroke-width:0.95;stroke-miterlimit:10;}
	.st4{fill:#33D08C;}
	.st5{fill:#721267;}
	.st6{fill:#DDCD00;}
	.st7{fill:#1B8B79;}
	.st8{fill:none;stroke:#33D08C;stroke-width:1.02;stroke-linecap:round;stroke-miterlimit:10;}
	.st9{fill:#891B6A;}
	.st10{clip-path:url(#SVGID_4_);}
	.st11{fill:#AA1A88;}
	.st12{clip-path:url(#SVGID_6_);}
	.st13{clip-path:url(#SVGID_8_);}
	.st14{clip-path:url(#SVGID_10_);}
	.st15{fill:#F5FAFF;}
	.st16{fill:#9629FF;}
	.st17{fill:#022538;}
	.st18{clip-path:url(#SVGID_12_);}
	.st19{fill:none;stroke:#33D08C;stroke-miterlimit:10;}
</style>
<path id="b-arm" class="st0" d="M100.1,122c-0.3,0.2-0.7,0.3-1.1,0.5c-5.9,2.1-11.7,4.3-17.5,6.6l-8.7,3.5l-8.6,3.5
	c-5.7,2.4-11.5,4.8-17.1,7.4s-11.2,5.3-16.7,8.4c-3.2,1.8-7.3,0.5-9.6-2.9c-0.2-0.3-0.4-0.5-0.5-0.8c-2.2-4-1.2-8.9,2.2-10.8
	c0.3-0.2,0.7-0.3,1.1-0.5c5.9-2,11.7-4.4,17.3-6.9s11.3-5.3,16.9-8l8.4-4.1l8.3-4.2c5.5-2.8,11.1-5.7,16.5-8.8
	c4-2.2,9.4-0.2,11.9,4.6c0.5,1,0.9,2,1.1,3.1C104.8,116.3,103.3,120.2,100.1,122z"/>
<g id="b-forearm">
	<g>
		<defs>
			<path id="SVGID_1_" d="M12.4,144c0,0-12.2-26,7.5-59.5c6.1-10.4,11.5-8.8,14.7-7.6c7.2,2.5,7.6,19.9,7.7,22.5
				c0.2,3.8,2.2,20.6,3.2,28c1.3,9.7-0.6,17.1-5.2,23.1c-2.7,3.6-3.9,5.7-11.7,7.1S21.9,145,12.4,144z"/>
		</defs>
		<clipPath id="SVGID_2_">
			<use xlink:href="#SVGID_1_"  style="overflow:visible;"/>
		</clipPath>
		<g class="st1">
			
				<rect x="-14.2" y="97.5" transform="matrix(0.1521 -0.9884 0.9884 0.1521 -93.7067 129.845)" class="st2" width="86.1" height="44.1"/>
			<path class="st3" d="M27.7,163.5c0,0,12.1-20.1,10.4-35.9c-1.4-13.4-3.6-25.6-3.6-32.3c0-6.2-3.8-21.1-3.8-21.1l26.8,8.9
				L52.3,144l-11,18.6L27.7,163.5z"/>
		</g>
	</g>
</g>
<g id="b-hand">
	<path class="st0" d="M38.9,92c0,0,0.1-0.4,0.2-1.2c0.5-3.3,1.6-12.5-0.3-17.5C36.5,67,24.2,65,17.7,70.4s-5.1,13.6-3,18
		s13.4,9.4,17.5,10.2C36.7,97.3,38.9,92,38.9,92z"/>
	<path class="st0" d="M46.5,79.8c2.6-4.8,4.4-9.8,0.3-9.8s-7,7.1-9.4,9s-5.2,5.7-4.9,8.4s3.5,7.1,6.4,4.5
		C42.1,89,46.5,79.8,46.5,79.8z"/>
	<path class="st0" d="M41.1,68c-3.1,3.2-2.7,5-2.7,5s-10.1,4.6-10.5,1.3c0-1.4,0.5-2.9,1.4-4c1.8-2.7,4.7-5.7,6.2-7.8
		c0.8-1.1,1.9-1.9,3.1-2.5c2.4-1.2,5.1-1.3,6.2,0.1C46.8,62.6,44.2,64.7,41.1,68z"/>
	<path class="st4" d="M34.6,67.3l-4.1,4.2c-0.6-0.3-1-0.7-1.2-1.3c1.8-2.7,4.7-5.7,6.2-7.8c0.8-1.1,1.9-1.9,3.1-2.5
		C39.8,62.3,37.4,64.3,34.6,67.3z"/>
	<path class="st0" d="M33.2,66.5c-0.8,0.8-1.4,1.7-2,2.7c-0.5,0.7-0.7,1.5-0.7,2.3c0,0-8.1,3.7-10.1,2.1c-0.2-0.2-0.4-0.5-0.4-0.8
		c-0.4-3.3,5.3-8.6,7.6-11.8c0.2-0.3,0.4-0.5,0.7-0.8c2.5-2.6,7.1-3.5,8.6-1.7c0.1,0.1,0.2,0.3,0.3,0.4
		C38.6,61.4,36.1,63.4,33.2,66.5z"/>
	<path class="st4" d="M27.8,67.3c-1.3,1.6-2.4,3.2-3.4,5c0,0-1.9,0.7-3.9,1.2c-0.2-0.2-0.4-0.5-0.4-0.8c-0.4-3.3,5.3-8.6,7.6-11.8
		c0.2-0.3,0.4-0.5,0.7-0.8c0.7-0.1,1.4,0.1,1.9,0.6C31.9,62.8,30,64.6,27.8,67.3z"/>
	<path class="st0" d="M14.7,74c1.2-3.2,5-7.2,6.7-9.9c0.9-1.4,2.4-2.5,4-2.9c1.1-0.4,2.3-0.3,3.2,0.4c1.8,2-0.1,3.8-2.3,6.5
		s-1.8,4.1-1.8,4.1S13.8,76.5,14.7,74z"/>
</g>
<g id="b-thigh">
	<path class="st5" d="M123.3,228.7c-12.9,52.4-15.7,86.3-15.7,86.3s-3.6,9.7-11.9,11.2c-12.3,2.2-15.2-10.8-15.2-10.8
		s-4.4-16.6-4.2-48.6c0.1-14.3,0.7-31.6,8.9-51.8c8.4-20.8,30.2-13,30.2-13S128,209.8,123.3,228.7z"/>
</g>
<g id="b-calf">
	<path class="st5" d="M125.7,426.2c0.1,3.6-37.8-1.1-37.8-1.1s-0.7-24.9-0.9-32.6c-0.8-28.2-6.4-76.5-6.4-76.5s18-5,22.1-5.2
		c2.1-0.1,3.9,0.2,4.4,1.3c10.3,23.8,10.5,35.4,11.3,51.9c0.5,13,2.1,25.9,4.6,38.6C124.5,410.2,125.7,426,125.7,426.2z"/>
	<path class="st6" d="M81.2,424.8c-4.5,7.9-46.3,7.6-40,28.2l18.4,0.5c0,0,13.3,3.9,19.1,3.1c15.6-2.2,13.4-4.5,34.1-7.8
		c0,0,22.2,2.7,28.4,1.9c4.3-0.6-0.2-8.2-7.3-11c-6.1-2.4-6.1-12.4-8.3-25.5c-4.5-26.8-7.4-51.1-7.2-50.1c0,0-18.4,12.2-31.4,28.6
		C86,401.3,87.5,413.6,81.2,424.8z"/>
</g>
<g id="tail">
	<path class="st7" d="M133.7,27.3C133.7,27.3,133.7,27.3,133.7,27.3v0.3c0,0.2,0,0.4,0,0.6c0,0.5,0.1,0.9,0.1,1.3
		c0.1,0.9,0.2,1.9,0.3,2.9c0.2,1,0.3,1.9,0.4,2.9s0.3,2,0.5,3c0.8,4,1.8,7.9,3.1,11.7c0.3,1,0.7,1.9,1.1,2.8s0.7,1.9,1.1,2.8
		s0.9,1.8,1.3,2.8l0.6,1.4l0.7,1.3l1.4,2.7c0.5,0.9,1.1,1.7,1.6,2.6s1,1.8,1.7,2.6l1.9,2.5c1.2,1.7,2.6,3.3,4,4.8l1,1.2L156,79
		l2.6,2.8c0.9,0.9,1.7,1.9,2.5,2.9l2.4,3c0.8,1,1.5,2.1,2.3,3.1s1.5,2.1,2.2,3.2c2.9,4.4,5.3,9.2,7,14.2c0.4,1.3,0.8,2.6,1.1,3.9
		s0.6,2.6,0.7,4c0.1,0.7,0.1,1.3,0.1,2c0,0.7,0,1.4,0,2.1c0,0.7-0.1,1.4-0.2,2.1c-0.1,0.8-0.3,1.5-0.5,2.2c-0.3,1-1.3,1.5-2.3,1.2
		c-0.5-0.1-0.9-0.5-1.1-0.9l-0.5-1c-0.1-0.3-0.3-0.9-0.4-1.3l-0.3-0.7l-0.3-0.7c-0.2-0.5-0.4-1-0.7-1.4s-0.5-0.9-0.8-1.4
		c-0.5-0.9-1.2-1.8-1.7-2.7c-0.3-0.4-0.7-0.9-1-1.3s-0.6-0.9-1-1.3c-2.8-3.4-6-6.4-9.3-9.2c-0.4-0.4-0.8-0.7-1.2-1.1l-1.3-1
		c-0.9-0.7-1.7-1.4-2.6-2.1c-1.9-1.3-3.5-2.7-5.4-3.9l-2.8-1.9c-0.5-0.3-0.9-0.6-1.4-1l-1.6-1.2c-2.2-1.6-4.3-3.3-6.3-5.1l-3-2.8
		c-1-0.9-1.9-2-2.8-3s-1.9-2-2.7-3.1l-2.5-3.2l-1.3-1.6l-1.2-1.7l-2.3-3.4c-0.7-1.2-1.4-2.4-2-3.6s-1.3-2.4-1.9-3.7
		s-1.2-2.5-1.8-3.7l-1.5-3.8c-0.5-1.3-0.9-2.6-1.4-3.9c-0.2-0.7-0.4-1.3-0.6-2l-0.6-2c-0.4-1.3-0.7-2.7-1-4s-0.6-2.7-0.8-4.1
		s-0.4-2.8-0.6-4.2c-0.1-0.7-0.1-1.5-0.2-2.2c0-0.3-0.1-0.8-0.1-1.2v-0.6v-0.8c0-7.6,6.2-13.8,13.8-13.8c6.2,0,11.6,4.1,13.3,10.1
		L133.7,27.3z"/>
	<path class="st8" d="M133.8,32.7c0,0-1.6,0.7-4.1,1.5c-2.9,1.1-5.8,1.9-8.9,2.5c-3,0.5-6.1,0.7-9.2,0.6c-1.5-0.1-2.9-0.2-4.4-0.4"
		/>
	<path class="st8" d="M135,40.9c0,0-1.5,0.8-3.7,1.9c-2.6,1.3-5.4,2.5-8.2,3.4c-2.8,0.8-5.8,1.3-8.7,1.5c-1.4,0.1-2.8,0.1-4.2,0.1"
		/>
	<path class="st8" d="M137.1,49c0,0-1.3,1-3.3,2.3c-2.3,1.6-4.8,2.9-7.3,4.1c-2.6,1.1-5.3,1.9-8.1,2.3c-1.3,0.2-2.7,0.4-4,0.5"/>
	<path class="st8" d="M140,56.9c0,0-1.1,1.1-2.8,2.5c-2,1.7-4.1,3.3-6.3,4.7c-2.3,1.3-4.8,2.3-7.3,3c-1.2,0.3-2.5,0.6-3.8,0.8"/>
	<path class="st8" d="M143.8,64.5c0,0-0.9,1.2-2.3,2.7c-1.6,1.9-3.3,3.6-5.2,5.1c-3,2.2-6.3,3.8-9.9,4.7"/>
	<path class="st8" d="M148.5,71.5c0,0-0.7,1.2-1.7,2.8c-1.2,1.9-2.6,3.7-4.2,5.3c-1.6,1.5-3.5,2.9-5.5,3.9c-1,0.5-2,1-3,1.4"/>
	<path class="st8" d="M154,78.2l-0.3,0.8c-0.2,0.5-0.4,1.2-0.8,2c-0.8,1.9-1.9,3.7-3.2,5.3c-1.4,1.5-2.9,2.9-4.6,4
		c-0.7,0.5-1.4,0.9-1.8,1.2s-0.8,0.4-0.8,0.4"/>
	<path class="st8" d="M161,85.8c-0.3,0.9-0.6,1.7-1,2.6c-0.8,1.7-1.8,3.2-3.1,4.5c-1.3,1.3-2.8,2.3-4.5,3.2
		c-1.4,0.8-2.4,1.2-2.4,1.2"/>
	<path class="st8" d="M167.5,94.1c-0.3,0.8-0.6,1.5-1.1,2.3c-0.7,1.4-1.7,2.7-2.9,3.7c-1.3,1-2.7,1.7-4.2,2.2
		c-1.3,0.5-2.3,0.8-2.3,0.8"/>
	<path class="st8" d="M172.8,103.3c-0.3,0.7-0.6,1.3-1,1.9c-0.6,1.1-1.5,2.1-2.6,2.8c-1.1,0.6-2.4,1-3.7,1.1c-1.2,0.2-2,0.2-2,0.2"
		/>
	<path class="st8" d="M176.3,113.6c-0.3,0.5-0.6,1-0.9,1.4c-0.5,0.8-1.2,1.4-2.1,1.8c-0.9,0.2-1.8,0.1-2.7-0.1
		c-0.9-0.2-1.6-0.4-1.6-0.4"/>
</g>
<g id="torso">
	<path class="st9" d="M86.3,197.9c0,0-3.2,18.6,0,36.5c3.9,21.9,43.4,15.2,48.9,2.3c7-16.5-7-28.8-11.1-40.1
		C119.8,185,86.3,197.9,86.3,197.9z"/>
	<path class="st2" d="M110.2,112c-1.2,9.3-6.8,17.5-14.9,22.1c-6.1-3.2-14-9.4-16.3-21.1s6.4-19.1,15-19.4S111.9,100.2,110.2,112z"
		/>
	<g>
		<defs>
			<path id="SVGID_3_" d="M124.8,193c-7,23.1-21.6,11.4-35.5,24c-4.1-14.7-5.1-43.1-7.7-56c-3.1-7.4-10.1-26,13.3-64.4
				c14.3-6.1,14.3-9.4,30.1-4.2C144.6,120.2,132,170.5,124.8,193z"/>
		</defs>
		<clipPath id="SVGID_4_">
			<use xlink:href="#SVGID_3_"  style="overflow:visible;"/>
		</clipPath>
		<g class="st10">
			
				<rect x="65" y="89.1" transform="matrix(0.9995 -3.088741e-02 3.088741e-02 0.9995 -4.6679 3.2715)" class="st9" width="77.2" height="127.3"/>
			<path class="st11" d="M121.7,88.5c-2.9,2.5-21.8,12.7-26.7,40.9c-1.7,9.6-3.2,13.7-1.8,23.4c1.2,8.3-2.3,41.7-3.1,57
				c0,0-10.9-57.8-16.1-73.5s18.3-51.5,18.3-51.5L121.7,88.5z"/>
		</g>
	</g>
	<path class="st6" d="M93.4,114.7c0,0-3.8-21.7,9.9-34.9s22.2-8.7,22.2-8.7l-5.3,17.3L93.4,114.7z"/>
	<path class="st4" d="M119,92.6c-3.8,2.2-7.4,4.7-10.9,7.4c-5.8,4.4-7.1,6.9-7.1,6.9s-2.2-4.4-4.2-18.2c-2.3-15.9-3.3-34.1-3.3-34.1
		l22.6-7.5c0,0-7.1,10.8-2,34.1C117,94.8,119,92.6,119,92.6z"/>
	<path class="st2" d="M93.4,114.7c0,0,2.1-26.2,21.9-38.9c19.4-12.5,7,2,9.6,16.5C114,99.1,103.5,106.6,93.4,114.7z"/>
	<path class="st2" d="M137.9,111.1c-1.2,9.3-6.8,17.5-15,22.1c-6.1-3.2-14-9.4-16.3-21.1s6.4-19.1,15-19.4S139.6,99.3,137.9,111.1z"
		/>
	<path class="st6" d="M134.1,116.3c-1.4,9.3-6.7,14.5-11.1,17.1c-6.1-3.7-10.2-10-11.1-17.1c-1.4-9.3,3.2-14.8,11.1-14.8
		S135.5,107,134.1,116.3z"/>
</g>
<g id="f-calf">
	<path class="st9" d="M140.5,433c0.2,3.5-37.9-0.5-37.9-0.5s-1.1-24.9-1.4-32.6c-1.2-28.2-7.7-76.4-7.7-76.4s17.9-5.3,22-5.6
		c2.1-0.1,3.9,0.1,4.4,1.2c10.7,23.6,11.1,35.2,12.2,51.6c0.7,13,2.5,25.9,5.3,38.5C138.9,417,140.5,432.7,140.5,433z"/>
	<path class="st2" d="M95.9,432.3c-4.3,8-46.1,8.4-39.5,28.9l18.4,0.2c0,2.1,0.2,4.3,0.5,6.4c0.5,2.3,11.8,1.6,17.6,0.7
		c15.6-2.5,14.4-9,35.1-12.8c0,0,22.3,2.3,28.4,1.4c4.3-0.6-0.4-8.2-7.5-10.9c-6.2-2.3-6.3-12.3-8.7-25.4c-4.9-26.7-8.3-51-8.1-50
		c0,0-18.2,12.6-30.9,29.1C100.3,408.7,102,421,95.9,432.3z"/>
</g>
<g id="f-thigh">
	<path class="st9" d="M136.1,236c-12.9,52.4-15.7,86.3-15.7,86.3s-3.6,9.7-11.9,11.2c-12.3,2.2-15.2-10.8-15.2-10.8
		s-4.4-16.6-4.2-48.6c0.1-14.3,0.7-31.6,8.9-51.8c8.4-20.8,30.2-13,30.2-13S140.8,217.2,136.1,236z"/>
	<path class="st0" d="M117.5,226c0,0,5.1,24.4,4.8,33.5s-2.5,6.2-3.5,10.4s-0.2,5-1.4,13.3c-0.6,4.2-2.7,3.6-4.6,2
		c0.2,3.6,0.1,7.1-0.5,8.7c-1.6,3.9-5.4-1.2-5.4-1.2l2.9-10.7c-0.3-0.4-0.5-0.7-0.5-0.7L117.5,226z"/>
</g>
<path id="f-arm" class="st0" d="M131.7,118.3c-0.2,0.3-0.5,0.6-0.8,0.9c-4.6,4.3-9.1,8.6-13.6,13l-6.7,6.6l-6.6,6.7
	c-4.3,4.5-8.7,9-13,13.6s-8.3,9.4-12.1,14.4c-2.2,2.9-6.6,3.4-10.1,1.1c-0.3-0.2-0.5-0.4-0.8-0.6c-3.6-2.9-4.6-7.7-2.2-10.9
	c0.2-0.3,0.5-0.6,0.8-0.9c4.7-4.2,9.1-8.7,13.3-13.3s8.4-9.3,12.5-14l6.1-7.1l6.1-7.2c4-4.8,8-9.7,11.8-14.6
	c2.9-3.7,8.6-3.8,12.8-0.4c0.9,0.7,1.6,1.5,2.2,2.4C133.7,111.2,133.9,115.4,131.7,118.3z"/>
<g id="f-forearm">
	<g>
		<defs>
			<path id="SVGID_5_" d="M90.4,177.5c0,0-17.9,22.8-56.9,20.2c-12.2-0.8-13.1-6.4-13.5-9.8c-1-7.6,14.5-15.8,16.8-17.1
				c3.4-1.9,17.5-11.3,23.8-15.6c8.1-5.5,11.2-2,18.7-0.6c4.4,0.8,11.4-4.3,16.2,2.1S95.5,168.3,90.4,177.5z"/>
		</defs>
		<clipPath id="SVGID_6_">
			<use xlink:href="#SVGID_5_"  style="overflow:visible;"/>
		</clipPath>
		<g class="st12">
			
				<rect x="17.6" y="151.5" transform="matrix(0.9516 -0.3074 0.3074 0.9516 -50.445 27.1535)" class="st2" width="86.7" height="44.5"/>
			<path class="st3" d="M101.1,154.9c-9,2.7-17.6,6.7-25.5,11.8C64.3,174,53,179.5,36.7,179.6c-6.2,0-17.3,13-17.3,13l-4.1-28.1
				l57-22.9l21.7,1.5L101.1,154.9z"/>
		</g>
	</g>
</g>
<g id="f-hand">
	<path class="st0" d="M26.4,207c-3.4,0.4-8.8-1.3-11.9-1.5c-1.7-0.2-3.3-1-4.4-2.3c-0.8-0.7-1.2-1.9-1-3c0.9-2.5,3.4-1.6,6.9-0.8
		s4.5-0.2,4.5-0.2S29,206.7,26.4,207z"/>
	<path class="st4" d="M19.2,203.4l-9.1-0.2c-0.8-0.7-1.2-1.9-1-3L19.2,203.4z"/>
	<path class="st0" d="M31.6,177.1l-1.2,0.4c-3.2,1.1-12,4.2-15.7,8.2c-4.5,4.9-0.8,16.9,7.1,20.2s14.5-1.5,17.6-5.5
		s2.4-16.3,1.2-20.4C37.4,176.7,31.6,177.1,31.6,177.1z"/>
	<path class="st0" d="M22.9,202.8c-2.8,1.8-10.1-0.9-14-1.5s-7.5-4.8-6.4-7.2c0.1-0.2,0.1-0.3,0.2-0.4c1.5-2.5,4.5-1.2,8.5,0
		c1.1,0.4,2.2,0.6,3.3,0.6c0.8,0.1,1.7,0,2.4-0.4C17,193.9,25.7,201,22.9,202.8z"/>
	<path class="st0" d="M17.2,175.8c-5.5-0.2-10.8,0.4-8.9,4.1s9.6,3.1,12.4,4.4s7.5,2.1,9.8,0.6s4.8-6.3,1.2-7.8
		C27.5,175.5,17.2,175.8,17.2,175.8z"/>
	<path class="st4" d="M18.2,195.7c0,0-1.8,1.5-6.3,1c-3.2-0.6-6.2-1.6-9.1-3c1.5-2.5,4.5-1.2,8.5,0c1.1,0.4,2.2,0.6,3.3,0.6
		L18.2,195.7z"/>
	<path class="st0" d="M14.7,186.2c0,0-1.4,1.1-5.7-0.2s-7.3-2.7-8.8,0.4c-1.1,2.4,2.5,6.6,6.4,7.2s11.2,3.3,14,1.5
		S14.7,186.2,14.7,186.2z"/>
</g>
<g id="head">
	<g>
		<defs>
			<path id="SVGID_7_" d="M135.1,28.6c-0.3,10.6-15.6,22.3-28.8,26c-2.5,0.7-6.3,12.9-12.1,20.2c-4.3,5.4-7.9,8.9-12.7,8.9
				s-6.5-2.1-8.6-8.6c-1.2-3.7-6.7-24.1-5.5-34.6c1.4-12.3,5.4-27.6,16.2-33.9C92,1.5,99.6-0.1,111.7,0c7.3,0,15.4,3.8,19.2,9.6
				C134.5,15.1,135.2,22.1,135.1,28.6z"/>
		</defs>
		<clipPath id="SVGID_8_">
			<use xlink:href="#SVGID_7_"  style="overflow:visible;"/>
		</clipPath>
		<g class="st13">
			<rect x="53.1" y="-1.2" class="st0" width="87.4" height="88.5"/>
			<path class="st7" d="M77.8,68.6c-2,0.8-4.1,1.2-6.2,1.3c-2.2-0.1-4.4-0.5-6.5-1.3H77.8z"/>
			<path class="st4" d="M82.8,34.9c-1.6-1.4-3.3-2.4-4.9-2.3c-0.8,0.1-1.7,0.3-2.4,0.7c-0.4,0.2-0.8,0.4-1.2,0.7s-0.8,0.5-1.2,0.8
				l-0.1,0.1c-0.6,0.3-1.3,0.1-1.6-0.5c-0.3-0.5-0.2-1.1,0.2-1.4c0.4-0.4,0.9-0.7,1.3-1c0.5-0.3,1-0.6,1.5-0.8
				c1.1-0.5,2.4-0.7,3.6-0.6c1.2,0.1,2.4,0.7,3.2,1.5C82,32.7,82.5,33.8,82.8,34.9z"/>
			<g>
				<defs>
					<path id="SVGID_9_" d="M72.8,43c-1,4.3-0.8,8.1,0.2,10c1.9,0.3,4.2-0.2,6.1-4.2c1.3-2.8,2-8.5,0.3-11.6
						C77.9,36,73.7,38.7,72.8,43z"/>
				</defs>
				<clipPath id="SVGID_10_">
					<use xlink:href="#SVGID_9_"  style="overflow:visible;"/>
				</clipPath>
				<g class="st14">
					<rect x="70.4" y="34.7" class="st15" width="10.9" height="20.1"/>
					<ellipse class="st16" cx="75.3" cy="46.7" rx="2.8" ry="7"/>
					<ellipse cx="75.3" cy="46.7" rx="1.4" ry="3.5"/>
					<path class="st17" d="M72.9,54.6c0,0-3.5-9.1,1.4-14.3c0.6-0.7,2.7-2.4,3.7-1.7c0,0,1.6,1.3,1.7,4.6c-0.1,2.8-0.6,5.6-1.6,8.2
						l2.8-2l1.4-20.6l-8.5,0.8L69.5,53L72.9,54.6z"/>
				</g>
			</g>
			<path class="st2" d="M56.7,3.5c-0.2,0.6-0.1,1.3,0.2,1.9c0.4,0.9,0.8,1.8,1.4,2.6c1.3,1.8,2.7,3.5,4.3,5.1
				c1.6,1.6,3.3,3.2,5.1,4.7s3.6,3,5.4,4.3l0,0L66.3,22c1.3-1,2.4-1.8,3.6-2.6s2.4-1.6,3.6-2.3c2.4-1.5,4.8-2.9,7.3-4.2
				c5-2.7,10.2-4.9,15.6-6.7c5.4-1.8,11-3,16.7-3.5c5.7-0.5,11.5,0.1,16.9,1.8h0.1c0.9,0.3,1.5,1.3,1.2,2.2
				c-0.3,0.9-1.3,1.5-2.2,1.2c-5.1-1.3-10.3-1.6-15.5-0.9c-5.2,0.7-10.4,2-15.3,4c-5,2-9.8,4.3-14.3,7.1c-4.6,2.7-9,5.8-13.1,9.1
				l-1.2,1l-1.1-1.1l0,0c-1.8-1.7-3.5-3.5-5.1-5.2s-3.2-3.7-4.8-5.6c-1.6-2-2.9-4.1-4.1-6.3c-0.6-1.2-1.1-2.5-1.4-3.8
				c-0.2-0.8-0.2-1.6-0.1-2.4c0.1-0.9,0.5-1.8,1-2.5c0.5-0.8,1.5-1.1,2.4-0.7s1.1,1.5,0.7,2.4L56.7,3.5z"/>
		</g>
	</g>
	<g>
		<defs>
			<path id="SVGID_11_" d="M93.3,35c0,0,30.4-2.7,41.5-13.5c-0.2-2.3-0.7-4.6-1.4-6.8c0,0,13.6,3,11.9,14
				c-1.4,9-19.7,12.2-28.7,12.4C108.3,41.2,97.3,38.8,93.3,35z"/>
		</defs>
		<clipPath id="SVGID_12_">
			<use xlink:href="#SVGID_11_"  style="overflow:visible;"/>
		</clipPath>
		<g class="st18">
			<path class="st7" d="M89.9,33.7l40.6-11.8l3.1-11.3l16.5,11.5c0,0,7.4,18.3-15.7,21.1S92.7,39.7,89.9,33.7z"/>
			<path class="st19" d="M104.8,32c0,0,8.6-1.3,9.4,5.1s-8,6-8,6"/>
			<path class="st19" d="M120.7,28.3c0,0,8.6-1.3,9.5,5.1s-8.3,8.4-8.3,8.4"/>
			<path class="st19" d="M130.9,23.8c0,0,9.7-3.4,11.7,2.8c2.3,7.2-6.7,11.4-6.7,11.4"/>
			<path class="st19" d="M132.2,20c0,0,1.9-2.7,4.9-2.7c3.7-0.1,7,2.1,8.5,5.6"/>
		</g>
	</g>
</g>
</svg>
