<?xml version="1.0" encoding="utf-8"?>
<!-- Generator: Adobe Illustrator 25.2.0, SVG Export Plug-In . SVG Version: 6.00 Build 0)  -->
<svg version="1.1" id="Layer_1" xmlns="http://www.w3.org/2000/svg" xmlns:xlink="http://www.w3.org/1999/xlink" x="0px" y="0px"
	 viewBox="0 0 223.2 472.4" style="enable-background:new 0 0 223.2 472.4;" xml:space="preserve">
<style type="text/css">
	.st0{fill:#1B8B79;}
	.st1{fill:none;stroke:#33D08C;stroke-width:1.26;stroke-linecap:round;stroke-miterlimit:10;}
	.st2{fill:#44F5A0;}
	.st3{fill:#891B6A;}
	.st4{fill:#F7EC17;}
	.st5{fill:none;stroke:#DDCD00;stroke-miterlimit:10;}
	.st6{fill:#520551;}
	.st7{fill:#AA1A88;}
	.st8{fill:#33D08C;}
	.st9{fill:#C1983D;}
	.st10{clip-path:url(#SVGID_2_);}
	.st11{fill:none;stroke:#DDCD00;stroke-width:0.95;stroke-miterlimit:10;}
	.st12{clip-path:url(#SVGID_4_);}
	.st13{clip-path:url(#SVGID_6_);}
	.st14{clip-path:url(#SVGID_8_);}
	.st15{fill:#F5FAFF;}
	.st16{fill:#9629FF;}
	.st17{fill:#023533;}
	.st18{clip-path:url(#SVGID_10_);}
	.st19{clip-path:url(#SVGID_12_);}
	.st20{fill:none;stroke:#33D08C;stroke-miterlimit:10;}
	.st21{clip-path:url(#SVGID_14_);}
</style>
<g id="tail">
	<path class="st0" d="M106.8,31.9L106.8,31.9v0.3c0,0.2,0,0.4,0,0.6c0,0.5,0.1,0.9,0.1,1.4c0.1,0.9,0.2,1.9,0.3,2.9s0.3,2,0.4,2.9
		s0.3,2,0.5,3c0.8,4,1.8,7.9,3.2,11.7c0.3,1,0.7,1.9,1,2.8s0.7,1.9,1.1,2.8s0.9,1.8,1.3,2.8l0.6,1.4l0.7,1.3l1.4,2.7
		c0.5,0.9,1.1,1.7,1.6,2.6s1.1,1.8,1.7,2.6l1.9,2.5c1.2,1.7,2.6,3.3,4,4.8l1,1.2l1.3,1.4l2.6,2.8c0.9,0.9,1.7,1.9,2.5,2.9l2.4,3
		c0.8,1,1.5,2.1,2.3,3.1s1.5,2.1,2.2,3.2c2.9,4.4,5.3,9.2,7,14.1c0.4,1.3,0.8,2.6,1.1,3.9s0.6,2.6,0.7,4c0.1,0.7,0.1,1.3,0.1,2
		c0,0.7,0,1.4,0,2.1c0,0.7-0.1,1.4-0.2,2.1c-0.1,0.8-0.2,1.5-0.5,2.3c-0.3,1-1.3,1.5-2.3,1.3c0,0,0,0,0,0c-0.5-0.1-0.9-0.5-1.1-0.9
		l-0.5-1c-0.1-0.3-0.3-0.9-0.4-1.3l-0.3-0.7l-0.3-0.7c-0.2-0.5-0.4-1-0.7-1.4s-0.5-1-0.8-1.4c-0.5-0.9-1.2-1.8-1.8-2.7
		c-0.3-0.4-0.7-0.9-1-1.3s-0.6-0.9-1-1.3c-2.8-3.4-6-6.4-9.3-9.2c-0.4-0.4-0.8-0.7-1.2-1.1l-1.3-1c-0.9-0.7-1.7-1.4-2.6-2.1
		c-1.9-1.3-3.5-2.7-5.4-3.9l-2.8-1.9c-0.5-0.3-0.9-0.6-1.4-1l-1.6-1.2c-2.2-1.6-4.3-3.3-6.3-5.1l-3-2.8c-1-0.9-1.9-2-2.8-3
		s-1.9-2-2.7-3.1L96,78.8l-1.2-1.6l-1.1-1.7l-2.3-3.4c-0.7-1.2-1.4-2.4-2-3.6s-1.3-2.4-1.9-3.7s-1.2-2.5-1.8-3.7l-1.5-3.8
		c-0.5-1.3-0.9-2.6-1.4-3.9c-0.2-0.7-0.4-1.3-0.6-2l-0.6-2c-0.4-1.3-0.7-2.7-1-4s-0.6-2.7-0.8-4.1s-0.4-2.8-0.6-4.2
		c-0.1-0.7-0.1-1.5-0.2-2.2c0-0.4-0.1-0.8-0.1-1.2V33v-0.8c-0.2-7.6,5.8-13.9,13.4-14.1c6.4-0.2,12.1,4.2,13.7,10.4L106.8,31.9z"/>
	<path class="st1" d="M109.6,36.9c0,0-2,0.7-5,1.6c-3.5,1.1-7.1,2.1-10.8,2.8c-3.7,0.6-7.4,0.9-11.1,0.9c-3.1,0-5.3-0.3-5.3-0.3"/>
	<path class="st1" d="M110.3,44.8c0,0-1.8,0.9-4.5,2.1c-3.1,1.5-6.4,2.8-9.7,3.8c-3.3,1-6.8,1.6-10.2,1.9c-2.9,0.3-5,0.2-5,0.2"/>
	<path class="st1" d="M111.8,52.9c0,0-1.6,1.1-3.9,2.5c-2.7,1.7-5.5,3.3-8.5,4.6c-3,1.2-6.1,2.2-9.2,2.8c-2.7,0.5-4.6,0.7-4.6,0.7"
		/>
	<path class="st1" d="M114.3,60.8c0,0-1.3,1.2-3.2,2.8c-2.3,1.9-4.7,3.6-7.2,5.2c-2.6,1.5-5.3,2.6-8.2,3.5c-1.4,0.4-2.8,0.8-4.2,1.1
		"/>
	<path class="st1" d="M117.7,68.4c0,0-1.1,1.3-2.6,2.9c-1.8,2-3.7,3.8-5.8,5.5c-2.2,1.6-4.5,3-7,4c-1.2,0.5-2.5,1-3.7,1.3"/>
	<path class="st1" d="M122,75.6c0,0-0.8,1.3-1.9,3c-1.3,2-2.8,3.9-4.5,5.7c-1.8,1.7-3.7,3.1-5.9,4.2c-1,0.6-2.1,1.1-3.2,1.6"/>
	<path class="st1" d="M127.3,82.4l-0.3,0.8c-0.2,0.5-0.5,1.3-0.9,2.1c-0.9,2-2,3.8-3.3,5.5c-1.4,1.6-3,3-4.8,4.2
		c-0.7,0.5-1.4,1-1.9,1.2l-0.8,0.4"/>
	<path class="st1" d="M134.1,90.3c-0.3,0.9-0.7,1.8-1.1,2.6c-0.8,1.7-1.8,3.2-3.1,4.6c-1.3,1.3-2.9,2.3-4.5,3.2
		c-1.4,0.8-2.5,1.2-2.5,1.2"/>
	<path class="st1" d="M140.4,98.8c-0.3,0.8-0.6,1.5-1,2.2c-0.7,1.4-1.7,2.6-2.8,3.7c-1.2,0.9-2.6,1.7-4.1,2.2
		c-1.3,0.5-2.3,0.7-2.3,0.7"/>
	<path class="st1" d="M145.6,108.1c-0.3,0.6-0.6,1.2-0.9,1.8c-0.6,1.1-1.4,2-2.4,2.7c-1.1,0.5-2.3,0.9-3.5,1c-1.1,0.1-2,0.2-2,0.2"
		/>
	<path class="st1" d="M149.1,118.3c-0.2,0.5-0.5,1-0.8,1.4c-0.4,0.8-1.1,1.4-1.9,1.7c-0.8,0.2-1.7,0.1-2.5-0.2
		c-0.8-0.2-1.5-0.4-1.5-0.4"/>
</g>
<path id="r-arm" class="st2" d="M125.8,125c0.3-0.1,0.7-0.3,1-0.5c5.5-3.1,11-6,16.6-9l8.4-4.3l8.4-4.2c5.6-2.8,11.2-5.6,16.9-8.2
	s11.5-5.1,17.4-7.1c3.5-1.2,5.2-5.2,4.1-9.2c-0.1-0.3-0.2-0.6-0.3-0.9c-1.6-4.3-5.9-6.8-9.7-5.5c-0.4,0.1-0.7,0.3-1.1,0.5
	c-5.4,3.2-11,6-16.7,8.6s-11.4,5.1-17.2,7.6l-8.7,3.7l-8.6,3.6c-5.8,2.3-11.7,4.6-17.6,6.8c-4.4,1.6-6.3,7-4.4,12c0.4,1,1,2,1.6,2.9
	C118.5,124.8,122.4,126.3,125.8,125z"/>
<g id="r-calf">
	<path class="st3" d="M98.9,440.1c0.1,3.6,37.7-3.5,37.7-3.5s-0.9-24.9-1.2-32.6c-1-28.2,1.6-76.8,1.6-76.8s-18.3-3.9-22.4-3.8
		c-2.1,0-3.8,0.4-4.3,1.6c-8.8,24.4-8.2,36-8,52.5c0.3,13-0.4,26-2.2,38.9C99.2,424,98.9,439.8,98.9,440.1z"/>
	<path class="st4" d="M135.2,381.8c0,0,1,43.3,8.1,54c5,7.6,31.9,17.2,29.4,28.2c-3.9,1.8-8.1,2.9-12.4,3.2
		c-7.3,0.6-15.6-3.5-15.6-3.5c0.5,2,0.6,4,0.4,6c-0.3,2.4-4.4,2.6-10.2,2.6c-12.2,0.1-11.7-7.1-21.8-10.6
		c-4.7,5.4-11.7,8.1-18.8,7.2c-4.4-0.5-5.9-8.1-2.7-15c2.3-5,5.3-12.7,6.7-26c2.8-27,4.2-51.5,4.1-50.5c0,0,5.6,13.1,21.8,26.5
		C133,395.4,135.2,381.8,135.2,381.8z"/>
	<path class="st5" d="M124.1,404.1c0,0,0.2,25.1,3.9,34.1s12.5,16.4,10.3,34.2"/>
</g>
<g id="l-calf">
	<path class="st3" d="M86.7,440.1c-0.1,3.6-37.7-3.5-37.7-3.5s0.9-24.9,1.2-32.6c1-28.2-1.6-76.8-1.6-76.8s18.3-3.9,22.4-3.8
		c2.1,0,3.8,0.4,4.3,1.6c8.8,24.4,8.2,36,8,52.5c-0.3,13,0.4,26,2.2,38.9C86.5,424,86.7,439.8,86.7,440.1z"/>
	<path class="st4" d="M91.3,469c-3.3,0.4-6.6,0-9.8-1.1l0,0c-3.5-1.2-6.6-3.3-9.1-6.2c-6.2,2.2-8.4,5.8-12.1,8.2
		c-2.2,1.5-5,2.5-9.7,2.4c-5.9,0-10-0.2-10.2-2.6c-0.1-1.4-0.1-2.8,0.1-4.2c0.1-0.6,0.2-1.1,0.3-1.7c0,0-8.3,4-15.6,3.4l-1.4-0.1
		c-3.8-0.4-7.5-1.4-11-3c-2.4-11.1,24.5-20.7,29.4-28.3c7-10.7,8.1-54,8.1-54s2.3,13.6,11.1,22.3c16.2-13.5,21.8-26.6,21.8-26.6
		c0,1,1.4,24.5,4.1,50.5c1.4,13.3,4.4,21,6.7,26C97.2,461,95.7,468.6,91.3,469z"/>
	<path class="st5" d="M61.5,404.1c0,0-0.2,25.1-3.9,34.1s-12.5,16.4-10.3,34.2"/>
</g>
<path id="l-arm" class="st2" d="M69,118.7c-0.2,0.3-0.5,0.6-0.8,0.9c-4.6,4.3-9,8.7-13.5,13.1l-6.6,6.7l-6.5,6.8
	c-4.3,4.6-8.6,9.1-12.8,13.7s-8.2,9.4-12,14.5c-2.2,3-6.5,3.4-10.1,1.2c-0.3-0.2-0.6-0.3-0.8-0.6c-3.6-2.8-4.7-7.7-2.3-10.9
	c0.2-0.3,0.5-0.6,0.8-0.9c4.7-4.2,9-8.8,13.2-13.4s8.3-9.4,12.3-14.2l6-7.2l6-7.3c4-4.9,7.9-9.8,11.7-14.8c2.8-3.7,8.6-3.9,12.8-0.6
	c0.9,0.7,1.6,1.5,2.3,2.4C71,111.7,71.3,115.8,69,118.7z"/>
<g id="l-thigh">
	<path class="st2" d="M59.8,218c0,0-16.4,22.7-19,31.6s1.7,6.6,1.7,11s-1.4,5-2.5,13.3c-0.6,4.2,2.9,4.1,6.4,3
		c-1.5,3.5-2.7,6.9-2.2,8.6c1.1,4.2,8.6,0,8.6,0l-0.7-11l1-0.6L59.8,218z"/>
	<path class="st3" d="M90.4,237.1c-12.9,52.4-14.6,89.8-14.6,89.8s-3.7,9.7-11.9,11.2c-12.3,2.2-15.2-10.8-15.2-10.8
		s-2-19.1-0.6-50.2c0.6-17.3,3.5-34.5,8.6-51.1c2.4-8.1,7.4-15.5,8.7-17.6c5.4-8.2,13.6-4.2,13.6-4.2S95.1,218.3,90.4,237.1z"/>
	<path class="st6" d="M54.3,334c1,1.2,2.3,2.1,3.8,2.7c0.6,0.3,1.3,0.5,1.9,0.5c0.2,0,0.4-0.1,0.6-0.2c0.2-0.1,0.4-0.3,0.6-0.5
		c0.4-0.6,0.8-1.2,1.2-1.9c0.4-0.7,0.8-1.4,1.1-2c0.7-1.4,1.3-2.9,1.9-4.5c0.3,1.7,0.3,3.4-0.2,5.1c-0.2,0.8-0.5,1.7-0.8,2.5
		c-0.4,0.8-0.8,1.6-1.4,2.3c-0.3,0.4-0.8,0.8-1.3,1c-0.6,0.3-1.2,0.4-1.8,0.3c-0.5-0.1-1-0.2-1.5-0.4c-0.4-0.2-0.8-0.4-1.2-0.7
		C55.7,337.3,54.7,335.8,54.3,334z"/>
</g>
<g id="r-thigh">
	<path class="st2" d="M125.6,218c0,0,16.4,22.7,19.1,31.6s-1.7,6.6-1.7,11s1.4,5,2.5,13.3c0.6,4.2-2.9,4.1-6.4,3
		c1.5,3.5,2.6,6.9,2.2,8.6c-1.1,4.2-8.6,0-8.6,0l0.7-11l-1-0.6L125.6,218z"/>
	<path class="st3" d="M95.2,237.1c12.9,52.4,14.6,89.8,14.6,89.8s3.6,9.7,11.9,11.2c12.3,2.2,15.2-10.8,15.2-10.8s2-19.1,0.6-50.2
		c-0.6-17.3-3.5-34.5-8.6-51.1c-2.5-8.1-7.4-15.5-8.7-17.6c-5.4-8.2-13.6-4.2-13.6-4.2S90.6,218.3,95.2,237.1z"/>
	<path class="st6" d="M122.6,329.5c0.6,1.5,1.1,2.9,1.7,4.3c0.2,0.6,0.6,1.2,1,1.6c0.4,0.3,0.9,0.5,1.4,0.5c0.6,0,1.3-0.1,1.9-0.2
		c0.7-0.2,1.3-0.4,1.9-0.8c1.3-0.7,2.6-1.6,3.7-2.6c-0.5,1.6-1.5,3-2.8,4c-0.7,0.6-1.4,1-2.2,1.3c-0.8,0.3-1.8,0.5-2.7,0.5
		c-0.5,0-1-0.1-1.5-0.3c-0.5-0.2-0.9-0.6-1.3-1c-0.6-0.7-0.9-1.6-1.1-2.5C122.4,332.7,122.3,331.1,122.6,329.5z"/>
</g>
<g id="torso">
	<path class="st0" d="M115.9,172.9c0-12.1-10.4-23.2-23.1-23.2s-23.1,11.1-23.1,23.2c2,5,6.5,10,23.1,10S113,179.7,115.9,172.9z"/>
	<path class="st3" d="M118.3,204.4c2.1,3.2,3.8,6.6,5.1,10.1c-1.3,3.1-10,9.1-13,13.6c-4.9,7.2-3.7,17-9.4,21.4
		c-2.4,1.7-5.3,2.5-8.3,2.4c-2.9,0.1-5.8-0.6-8.2-2.2c-5.7-4.1-4.5-13.5-9.5-21.6c-2.8-4.5-11.8-10.3-13.2-13.6
		c2.7-5.2,5.3-10.1,5.3-10.1H118.3z"/>
	<path class="st3" d="M114.2,184.9c0-15.5,17.4-45.9,9.4-83.7c-15.6-5.8-47.2-5.7-61.7,0c-8.1,35.9,9.4,67.6,9.4,83.7
		c0,0.5,0,1,0.1,1.5c-1.2,11-6.8,22.4-6.8,22.4s18.3,15,27.6,32c9.2-17.1,28.3-32,28.3-32s-5.1-10.5-6.6-21.1
		C114.1,186.7,114.1,185.8,114.2,184.9z"/>
	<path class="st7" d="M109.5,166.3c3.1-9.3,9.6-20,10.7-29.7c0.8-6.9,1-13.8,0.7-20.7c0-3.8-0.5-7.7-1.5-11.4c-1.1-3.7-2-4.6-5.9-7
		l-20.7,20.9L72.6,97.5c-3,1.2-5.3,3.8-6.2,7c-1,3.7-1.5,7.5-1.5,11.4c-0.3,6.9,0,13.8,0.7,20.7c1.1,9.7,7.6,20.4,10.7,29.7
		c1.3,3.9,16.4,47.5,16.4,47.5S108.2,170.2,109.5,166.3z"/>
	<path class="st8" d="M103.8,87.5c0,0-3.6-2.2-11.1-2.2s-11.1,2.2-11.1,2.2l1.3-11.3c0,0,2.4-0.7,9.8-0.6s9.4,0.6,9.4,0.6
		L103.8,87.5z"/>
	<path class="st9" d="M108.3,90.1c1.7-15.9-25.6-11.4-28.7-7c-1,1.4-2.8,11.8,0,14.1C87.2,103.4,107.2,101.6,108.3,90.1z"/>
	<polygon class="st8" points="74,96.8 92.3,94.7 110.5,96.5 92.9,117.8 	"/>
	<path class="st8" d="M102.9,111.1c0,0-2.8,7.3-10.1,7.3s-10.1-7.3-10.1-7.3c0.8-7.1,1.1-14.2,1-21.3c0-13.9-0.7-25.3-0.7-25.3h19.6
		c0,0-0.7,11.4-0.7,25.3C101.7,96.9,102.1,104,102.9,111.1z"/>
	<path class="st4" d="M93.3,118.9c0,0,0,0.1,0.1,0.1c-2,0-4-0.6-5.6-1.7c-3-1.9-5.7-4.2-8-6.9c-2.7-2.9-5.1-6.1-6.9-9.6
		c-1.9-3.5-2.8-7.4-2.8-11.4c0-2.5,0.7-5,2.1-7.2c2.3-3.3,6.7-5.2,10.5-6l1-0.2c0,1.4,0,2.8,0,4.3c0,2,0,13.7-0.1,15.4
		c0,0.1-2.7,1.2-2,3.7c0.7,2.6,1.7,5.1,3,7.4c1.4,2.4,2.9,5.1,4.4,7.3C90.3,115.8,92.4,117.1,93.3,118.9z"/>
	<path class="st4" d="M92.3,118.9c0,0,0,0.1-0.1,0.1c2,0,4-0.6,5.6-1.7c3-1.9,5.7-4.2,8-6.9c2.7-2.9,5.1-6.1,6.9-9.6
		c1.9-3.5,2.8-7.4,2.8-11.4c0-2.5-0.7-5-2.1-7.2c-2.3-3.3-6.7-5.2-10.6-6l-1-0.2c0,1.4,0,2.8,0,4.3c0,2,0,13.8,0.1,15.5
		c0,0.1,2.7,1,2,3.6c-0.7,2.6-1.7,5.1-3,7.4c-1.3,2.4-2.9,5.1-4.4,7.3C95.3,115.8,93.2,117.1,92.3,118.9z"/>
	<path class="st4" d="M77.9,95.9c0,0-18.7,13.9-16,46.2c0,0-18-30.4-9.6-41.3C59.9,98.8,77.9,95.9,77.9,95.9z"/>
	<path class="st4" d="M107.7,95.9c0,0,18.7,13.9,16,46.2c0,0,18-30.4,9.6-41.3C125.7,98.8,107.7,95.9,107.7,95.9z"/>
</g>
<g id="l-forearm">
	<g>
		<defs>
			<path id="SVGID_1_" d="M1.5,175.8c0,0,8,27.8,45,40.2c11.6,3.9,14.5-0.9,16.2-4c3.8-6.7-7.4-20.1-9.1-22.2
				c-2.4-3-12-17.1-16.1-23.4c-5.4-8.2-9.6-6.1-17.1-7.6c-4.4-0.9-8.9-8.3-15.8-4.2S0.2,165.3,1.5,175.8z"/>
		</defs>
		<clipPath id="SVGID_2_">
			<use xlink:href="#SVGID_1_"  style="overflow:visible;"/>
		</clipPath>
		<g class="st10">
			
				<rect x="7.9" y="140.1" transform="matrix(0.644 -0.765 0.765 0.644 -129.6402 88.3406)" class="st4" width="44.5" height="86.7"/>
			<path class="st11" d="M0.1,150.9c7.3,5.9,13.8,12.8,19.1,20.6c7.8,11.1,16.1,20.3,31.2,26.6c5.8,2.4,11.1,18.6,11.1,18.6
				l14.4-24.5l-44.2-42.7L11,142.5L0.1,150.9z"/>
		</g>
	</g>
</g>
<g id="r-forearm">
	<g>
		<defs>
			<path id="SVGID_3_" d="M199,98.5c0,0,22.7-28.2,18.8-67.1c-1.2-12.1-6.8-12.8-10.2-13.2c-7.6-0.7-15.3,15-16.6,17.3
				c-1.8,3.4-10.7,17.9-14.8,24.3c-5.3,8.3-6.3,19.7-4.1,25.7c0,0,8.6-7.1,15.1-2.5S189.9,95.6,199,98.5z"/>
		</defs>
		<clipPath id="SVGID_4_">
			<use xlink:href="#SVGID_3_"  style="overflow:visible;"/>
		</clipPath>
		<g class="st12">
			
				<rect x="151.5" y="37.5" transform="matrix(0.2765 -0.961 0.961 0.2765 83.5512 230.4687)" class="st4" width="86.7" height="44.5"/>
			<path class="st11" d="M184.7,92.7c0,0-8.6-14.9-1.8-29.4c5.8-12.2,14.1-21.9,16.9-28c2.6-5.6,12.4-17.7,12.4-17.7l-28.2-3.2
				l-21,57.7l2.2,21.7L184.7,92.7z"/>
		</g>
	</g>
</g>
<g id="r-hand">
	<path class="st8" d="M216.8,11.3c-0.6-1.4-0.9-2.9-0.7-4.4c0.5-2,1.4-2.8,2.4-2.4s3.4,5.7,3.4,5.7l-3.8,4.3L216.8,11.3z"/>
	<path class="st8" d="M204.7,3.9c3.6-1.1,3.4,1.8,3,6.2c-0.3,2.4,1.7,3.4,3.7,3.1c2.7-0.3,2.8-6.4,2.2-8.9c-0.8-3.5,0.9-4.9,3.2-4.4
		c2.8,0.6,3.3,6,3.3,6c0.9,1.1-2.9,26.7-5.3,29.9c-4,5.3-14.5-1-14.5-1C192.5,17.7,199,5.7,204.7,3.9z"/>
	<path class="st2" d="M200.3,35c0,0-1.9-1.2,2-6.8s9.9-8.1,11.5-13.7s0.3-10.9,3.9-13.2c2.2-1.4,5.6,0,5.5,5.5
		c-0.2,8.2-1.7,22.7-6.2,28.2C212.6,40.3,207.8,40.1,200.3,35z"/>
	<path class="st8" d="M208.9,21.3c3.5-3.2,5.8-7.5,6.7-12.1c0.6-3.3,3.3-2.3,3.3-2.3s-2.3,0.2-2.8,3.7S211.2,19.5,208.9,21.3z"/>
</g>
<g id="head">
	<g>
		<defs>
			<path id="SVGID_5_" d="M114.1,62.1c-2.7,2.7-6.4,11.6-8.2,15.5C102.7,84.7,99,89,92.8,89S83,84.6,79.7,77.7
				c-1.9-4-5.4-12.8-8.3-15.6c-7.4-7.4-10-17.8-8.4-29.2c2.7-19,12.3-27.6,29.7-27.6s27.5,9.1,29.7,27.6
				C123.9,44.3,121.4,54.8,114.1,62.1z"/>
		</defs>
		<clipPath id="SVGID_6_">
			<use xlink:href="#SVGID_5_"  style="overflow:visible;"/>
		</clipPath>
		<g class="st13">
			<rect x="61.1" y="1.9" class="st2" width="63.4" height="89.4"/>
			<path class="st4" d="M79.8,8c-0.2,0.7-0.1,1.4,0.2,2.1c0.4,1,0.9,2,1.5,2.9c1.3,2,2.8,3.8,4.4,5.5c1.6,1.8,3.4,3.5,5.1,5.2
				s3.6,3.3,5.4,4.8L89,28.6c1.8-1.5,3.6-3.2,5.4-4.9s3.5-3.4,5.1-5.2c1.6-1.7,3.1-3.6,4.4-5.5c0.6-0.9,1.1-1.8,1.5-2.8
				c0.3-0.6,0.4-1.3,0.3-2l-0.2-0.5c-0.3-0.9,0.1-1.9,1-2.2c0.7-0.3,1.5-0.1,1.9,0.5c0.6,0.8,0.9,1.7,1,2.7c0.1,0.8,0,1.6-0.2,2.4
				c-0.3,1.4-0.8,2.7-1.4,3.9c-1.2,2.3-2.5,4.5-4.1,6.7c-1.5,2.1-3.1,4.1-4.7,6s-3.3,3.8-5,5.7l-1.3,1.4l-1.3-1.3
				c-1.8-1.9-3.5-3.7-5.1-5.7s-3.2-4-4.8-6c-1.6-2.1-2.9-4.4-4.1-6.7c-0.6-1.3-1.1-2.6-1.4-4C76,10.1,75.9,9.3,76,8.5
				c0.1-0.9,0.4-1.9,1-2.6c0.5-0.8,1.6-1,2.4-0.4c0.7,0.5,0.9,1.4,0.6,2.2L79.8,8z"/>
		</g>
	</g>
	<g>
		<defs>
			<path id="SVGID_7_" d="M100.4,46.9c-2,4.6-1.7,8.8,0.5,10.8c3.8,0.3,10.8-1,13.3-5.3c2-3.4,3.1-7.9-0.4-11.3
				C109.4,39.6,102.4,42.3,100.4,46.9z"/>
		</defs>
		<clipPath id="SVGID_8_">
			<use xlink:href="#SVGID_7_"  style="overflow:visible;"/>
		</clipPath>
		<g class="st14">
			<rect x="95.7" y="37.9" class="st15" width="22.3" height="21.8"/>
			<circle class="st16" cx="105.5" cy="51" r="7.6"/>
			<circle cx="105.5" cy="51" r="3.8"/>
			<path class="st17" d="M100.6,59.6c0,0-5.1-10.6,4.9-16.3c1.3-0.8,5.2-1.3,6.7-0.5c1,0.7,2.1,1.5,2.1,5.3c-0.1,3.1-1.5,6-4,7.8
				l6.7-2l2.8-22.3l-17.5,0.9l-8.6,25.3L100.6,59.6z"/>
		</g>
	</g>
	<g>
		<defs>
			<path id="SVGID_9_" d="M85,46.9c2,4.6,1.7,8.8-0.5,10.8c-3.8,0.3-10.8-1-13.3-5.3c-2-3.4-3-7.9,0.4-11.3
				C76,39.6,83.1,42.3,85,46.9z"/>
		</defs>
		<clipPath id="SVGID_10_">
			<use xlink:href="#SVGID_9_"  style="overflow:visible;"/>
		</clipPath>
		<g class="st18">
			<rect x="67.5" y="37.9" class="st15" width="22.3" height="21.8"/>
			<circle class="st16" cx="79.9" cy="51" r="7.6"/>
			<circle cx="79.9" cy="51" r="3.8"/>
			<path class="st17" d="M84.9,59.6c0,0,5.1-10.6-4.9-16.3c-1.3-0.8-5.2-1.3-6.7-0.5c-1,0.7-2.1,1.5-2.1,5.3c0.1,3.1,1.5,6,4,7.8
				l-6.7-2l-2.8-22.3l17.5,0.9l8.6,25.4L84.9,59.6z"/>
		</g>
	</g>
	<path class="st0" d="M101.3,70.6c-2.6,0.9-5.4,1.4-8.1,1.4c-2.9-0.1-5.7-0.6-8.5-1.4H101.3z"/>
	<path class="st8" d="M68.8,36.7c0.7-1,1.7-1.8,2.8-2.4c1.1-0.6,2.4-1,3.6-1.1c1.3-0.1,2.6-0.1,3.9,0.1c0.6,0.1,1.3,0.2,1.9,0.4
		l1.8,0.5c0.8,0.3,1.2,1.3,0.9,2.1s-1.3,1.2-2.1,0.9l-0.1-0.1L80,36.3c-0.5-0.2-1-0.5-1.5-0.7c-1-0.4-2.1-0.7-3.2-0.8
		c-1.1-0.1-2.3,0-3.4,0.2C70.7,35.3,69.7,35.9,68.8,36.7z"/>
	<path class="st8" d="M116.7,36.7c-0.9-0.8-1.9-1.4-3.1-1.7c-1.1-0.3-2.2-0.4-3.4-0.2c-1.1,0.1-2.2,0.4-3.2,0.8
		c-0.5,0.2-1,0.5-1.5,0.7l-1.5,0.8l-0.1,0c-0.8,0.4-1.8,0.1-2.2-0.6c-0.4-0.8-0.1-1.8,0.6-2.2l0,0c0.1-0.1,0.2-0.1,0.3-0.1l1.9-0.5
		c0.6-0.1,1.3-0.3,1.9-0.4c1.3-0.2,2.6-0.2,3.9-0.1c1.3,0.1,2.5,0.5,3.6,1.1C115.1,34.8,116,35.6,116.7,36.7z"/>
	<g>
		<defs>
			<path id="SVGID_11_" d="M63.1,32.9c-0.2,4.5,2.4,6.6,2.1,7.5c-0.2,0.7-1.3,0.9-2.6,0.3c0,0-11.6-3.9-11.5-10.5
				c0.1-12,15.8-17.1,20-17C66.1,19.4,64.2,25.2,63.1,32.9z"/>
		</defs>
		<clipPath id="SVGID_12_">
			<use xlink:href="#SVGID_11_"  style="overflow:visible;"/>
		</clipPath>
		<g class="st19">
			<path class="st0" d="M63.1,32.9c-0.2,4.5,2.4,6.6,2.1,7.5c-0.2,0.7-1.3,0.9-2.6,0.3c0,0-11.6-3.9-11.5-10.5
				c0.1-12,15.8-17.1,20-17C66.1,19.4,64.2,25.2,63.1,32.9z"/>
			<path class="st20" d="M64.7,34.6c-2.3-1.9-5.4-2.6-8.3-2c-5.1,1-1.6,6.2,3.3,8.1"/>
			<path class="st20" d="M65.9,31.6c0,0-0.6-3.1-4.8-6.1s-10.7-0.7-10.7,5.3"/>
			<path class="st20" d="M57.7,17.7c1.1-0.5,2.3-0.5,3.4-0.1c2.7,1.2,4.7,3.6,5.3,6.6"/>
			<path class="st20" d="M67.3,12.8c0,0,3.8,0.4,3.8,6.7"/>
		</g>
	</g>
	<g>
		<defs>
			<path id="SVGID_13_" d="M122.5,32.9c0.1,4.5-2.4,6.6-2.1,7.5c0.2,0.7,1.3,0.9,2.6,0.3c0,0,11.6-3.9,11.5-10.5
				c-0.1-12-15.8-17.1-20-17C119.5,19.4,121.4,25.2,122.5,32.9z"/>
		</defs>
		<clipPath id="SVGID_14_">
			<use xlink:href="#SVGID_13_"  style="overflow:visible;"/>
		</clipPath>
		<g class="st21">
			<path class="st0" d="M122.5,32.9c0.1,4.5-2.4,6.6-2.1,7.5c0.2,0.7,1.3,0.9,2.6,0.3c0,0,11.6-3.9,11.5-10.5
				c-0.1-12-15.8-17.1-20-17C119.5,19.4,121.4,25.2,122.5,32.9z"/>
			<path class="st20" d="M120.9,34.6c2.3-1.9,5.4-2.6,8.3-2c5.1,1,1.6,6.2-3.3,8.1"/>
			<path class="st20" d="M119.7,31.6c0,0,0.6-3.1,4.8-6.1s10.7-0.7,10.7,5.3"/>
			<path class="st20" d="M127.9,17.7c-1.1-0.5-2.3-0.5-3.4-0.1c-2.7,1.2-4.7,3.6-5.3,6.6"/>
			<path class="st20" d="M118.3,12.8c0,0-3.8,0.4-3.8,6.7"/>
		</g>
	</g>
</g>
<g id="l-hand">
	<path class="st2" d="M49.6,227.3c3,1.6,8.6,2.1,11.6,3.1c1.7,0.5,3.4,0.3,5-0.4c1.2-0.6,2.1-1.4,2.1-2.4c0.1-2.7-2.6-2.8-6.1-3.4
		s-4.1-1.9-4.1-1.9S47.2,226,49.6,227.3z"/>
	<path class="st8" d="M57.5,226.7l8.6,3.2c1.2-0.6,2.1-1.4,2.1-2.4L57.5,226.7z"/>
	<path class="st2" d="M56,197.7l1,0.8c2.6,2.2,9.5,8.4,11.4,13.5c2.4,6.2-5.6,15.9-14.2,16s-12.8-6.9-14.2-11.7s4-16,6.6-19.3
		C50.8,195.1,56,197.7,56,197.7z"/>
	<path class="st2" d="M54.4,224.8c1.9,2.8,9.7,3,13.6,3.9s8.7-1.6,8.6-4.3c0-0.2,0-0.3-0.1-0.5c-0.4-2.9-3.7-2.8-7.9-3.2
		c-1.1-0.1-2.2-0.3-3.3-0.7c-0.8-0.2-1.5-0.7-2.1-1.3C63.2,218.8,52.5,222,54.4,224.8z"/>
	<path class="st2" d="M69.9,201.9c5.2,1.9,9.8,4.5,6.7,7.2s-10-0.7-13.1-0.6s-7.7-0.9-9.3-3.2s-2.1-7.7,1.9-7.6
		C60.4,197.8,69.9,201.9,69.9,201.9z"/>
	<path class="st8" d="M61.4,220c0,0,1.1,2.1,5.5,3.3c3.2,0.6,6.4,0.9,9.6,0.7c-0.4-2.9-3.7-2.8-7.9-3.2c-1.1-0.1-2.2-0.3-3.3-0.7
		L61.4,220z"/>
	<path class="st2" d="M68.2,212.5c0,0,0.9,1.6,5.4,2s7.8,0.3,8,3.7c0.1,2.6-4.8,5.1-8.6,4.3s-11.6-1.2-13.5-3.9
		S68.2,212.5,68.2,212.5z"/>
</g>
</svg>
