<?xml version="1.0" encoding="utf-8"?>
<!-- Generator: Adobe Illustrator 26.0.0, SVG Export Plug-In . SVG Version: 6.00 Build 0)  -->
<svg version="1.1" id="Layer_1" xmlns="http://www.w3.org/2000/svg" xmlns:xlink="http://www.w3.org/1999/xlink" x="0px" y="0px"
	 viewBox="0 0 700 700" style="enable-background:new 0 0 700 700;" xml:space="preserve">
<style type="text/css">
	.st0{fill:#534741;}
	.st1{fill:#004E2A;}
	.st2{fill:#D99D36;}
	.st3{fill:#2D9B02;}
	.st4{fill:#4AFF03;}
	.st5{fill:#D8FF03;}
	.st6{fill:#268202;}
	.st7{fill:#736357;}
	.st8{fill:#FFFFFF;}
	.st9{fill:#38302C;}
</style>
<g>
	<g>
		<g>
			<g>
				<g>
					<g>
						<g>
							<path class="st0" d="M585,513c3.5,48.2,15.9,95.5,36.9,139.4c21.3,44.5,51.4,84.1,88.8,116.3c6.8,5.6,7.5,15.4,2.1,22.1
								c-5.1,6.3-14.3,7.5-21,2.8c-45.3-31-83.7-71.1-112.4-117.7c-29.2-47.3-49.6-99.5-59.6-154v-0.2c-3.3-17.9,8.4-35,26.4-38.2
								c18-3.3,35.1,8.4,38.3,26.3C584.7,510.4,585,511.6,585,513z"/>
							<path class="st0" d="M191.1,521.6c-10.1,54.5-30.2,107-59.6,154C102.7,722.3,64.4,762.4,19,793.4c-7.2,4.9-17.1,3-22-4
								c-4.7-6.8-3.3-15.6,2.8-21c37.4-32.2,67.8-71.8,89.1-116.3c20.8-43.8,33.4-90.9,36.9-139.4c1.4-18.2,17.1-31.7,35.3-30.3
								c18.2,1.4,31.8,17,30.4,35.2c0,1.2-0.2,2.3-0.5,3.5V521.6z"/>
							<path class="st1" d="M63.2,888.7c23.6,0,42.8,19.1,42.8,42.6v295c0,23.5-19.2,42.7-42.8,42.7c-23.6,0-42.8-19.1-42.8-42.7
								v-295C20.5,907.8,39.6,888.7,63.2,888.7z"/>
							<path class="st1" d="M651.3,1269c-23.6,0-42.8-19.1-42.8-42.7v-295c0-23.5,19.2-42.6,42.8-42.6c23.6,0,42.8,19.1,42.8,42.6
								v295C694.4,1249.9,675.2,1269,651.3,1269z"/>
							<path class="st2" d="M486.6,512.5c13.3-45.4,59.6-79,107.1-77.4c10.5,0.2,21.5,2.6,28.5,10.3c6.3,7,7.7,17.2,5.8,26.6
								c-1.9,9.3-6.8,17.5-11.9,25.4c-29.2,42.9-72.2,74.8-122,90.7L486.6,512.5z"/>
							<path class="st2" d="M224.1,512.5c-13.3-45.4-59.6-79-107.1-77.4c-10.3,0.2-21.5,2.6-28.5,10.3c-6.3,7-7.7,17.2-5.8,26.6
								c1.9,9.3,6.8,17.2,11.9,25.2c29.2,42.9,72.2,74.8,122,90.7L224.1,512.5z"/>
							<path class="st3" d="M596.4,1140.4c-15.2,44-53.5,79.7-98.9,100.7c-43.5,20-93.3,27.7-142.1,28c-48.9-0.2-98.6-7.7-142.1-28
								c-45.3-21-83.7-56.6-98.9-100.7c-18-52.2-22-106.5-6.3-156.6c7.5-24,19.2-46.4,34.6-66.4c50.7-65.7,110.1-133.3,113.4-213.5
								l99.3-1.4l99.3,1.4c3,80.2,62.4,147.8,113.4,213.5c12.6,16.3,22.9,34.3,30.2,53.4C618.9,1024.5,616.1,1083.5,596.4,1140.4z"
								/>
							<path class="st4" d="M520.9,589.2l-94.7,178.3c-27.3,55.9-114.5,55.9-141.9,0l-94.4-178.3c-15.7-29.6-11.2-65.7,11-90.7
								c11.7-16.1,23.4-26.8,35.8-33.8c11-6.1,22.9-9.8,35.3-11c24.8-3,51.9,0.7,83.2-0.5c22.4,1.2,54.7-2.6,83.4,0.9
								c12.2,1.2,24.1,4.2,35.1,9.6c7.7,3.7,14.3,9.3,19.2,16.1C523.7,507.4,542.7,550.3,520.9,589.2z"/>
							<path class="st0" d="M319,505.5L332,357.8c1.4-12.8,13.1-22.1,25.9-20.7c11,1.2,19.6,9.8,20.8,20.7l13.1,147.8
								c1.9,20-13.1,37.8-33.2,39.6c-20.1,1.9-37.9-13.1-39.7-33.1C318.7,509.7,318.7,507.6,319,505.5z"/>
							<path class="st5" d="M473.7,463.6c-11-5.4-22.9-8.6-34.8-9.6c7.9,17,12.2,35.9,12.2,54.8c0,62-42.8,112.3-95.6,112.3
								c-52.8,0-95.6-50.3-95.6-112.3c0-19.1,4.2-37.8,12.2-55c-12.4,1.4-24.5,5.1-35.5,11.2c-4.2,14.2-6.3,29.1-6.1,44
								c0,78.1,56.1,141.5,124.8,141.5c68.7,0,124.8-63.4,124.8-141.5C480.2,493.4,478.1,478.3,473.7,463.6z"/>
							<path class="st6" d="M596.4,1140.4c-15.2,44-53.5,79.7-98.9,100.7c-43.5,20-93.3,27.7-142.1,28c-48.9-0.2-98.6-7.7-142.1-28
								c-45.3-21-83.7-56.6-98.9-100.7c-18-52.2-22-106.5-6.3-156.6c22.2,5.1,43.9,13,64.3,23.5c33.7,17.2,63.6,40.8,96.8,59
								c33.2,18.2,71.5,30.8,108.7,23.3c48.2-9.8,82.7-50.3,123.4-77.8c29.5-19.6,62.4-33.6,97-40.8
								C618.9,1024.5,616.1,1083.5,596.4,1140.4z"/>
							<path class="st7" d="M617.7,157.1c-19.6-20.7-53.8-15.4-80.6-5.4c-17.5,6.5-35.8,14.4-54.9,15.8
								c-23.8,1.6-25.5-5.4-31.6-25.4c-11.2-37.1-25.2-74.8-51-104.6c-11.2-13.3-27.6-25.2-44.2-26.1c-16.6,0.9-33,12.8-44.4,26.1
								c-25.7,29.8-39.7,67.6-51,104.6c-6.1,20.3-7.7,27-31.6,25.4c-18.9-1.2-37.2-9.3-54.7-15.8c-26.6-10-61-15.4-80.6,5.4
								c-18.9,20.3-12.4,52.7-1.4,78.1c28.8,66.9,81.3,124.2,147.3,155.9c36.5,17.5,76.2,26.6,116.6,27c40.4-0.5,80.2-9.6,116.6-27
								c65.9-31.7,118.3-88.8,147.3-155.9C630.1,209.8,636.6,177.2,617.7,157.1z"/>
							<path class="st5" d="M304.2,148c16.8-4.7,27.1-8.9,34.4-16.1c7.2-7.2,11.5-17.5,16.1-34.3c4.7,16.8,8.9,27,16.1,34.3
								c7.2,7.2,17.5,11.4,34.4,16.1c-16.8,4.7-27.1,8.9-34.4,16.1c-7.2,7.2-11.5,17.5-16.1,34.3c-4.7-16.8-8.9-27-16.1-34.3
								C331.3,156.9,321.1,152.7,304.2,148z"/>
							<path class="st5" d="M426.9,198.4c0,7.2-5.9,13.1-13.1,13.1c-7.2,0-13.1-5.8-13.1-13.1s5.9-13.1,13.1-13.1
								C421.1,185.3,426.9,191.2,426.9,198.4z"/>
							<path class="st5" d="M308.9,198.4c0,7.2-5.9,13.1-13.1,13.1c-7.2,0-13.1-5.8-13.1-13.1s5.9-13.1,13.1-13.1
								C303,185.3,308.9,191.2,308.9,198.4z"/>
							<path class="st8" d="M276.6,274.4c0,17.2-12.2,31.2-27.3,31.2s-27.3-14-27.3-31.2c0-17.2,12.2-31.2,27.3-31.2
								c0.9,0,2.1,0,3,0.2c12.6,1.6,22.7,13.1,24.1,27.5C276.6,272,276.6,273.2,276.6,274.4z"/>
							<path class="st3" d="M276.6,270.9c-1.4,12.1-10.5,21.4-21.3,21.4c-11.9,0-21.5-11-21.5-24.7c0-12.6,8.2-22.8,18.9-24.5
								C265.2,245,275.2,256.4,276.6,270.9z"/>
							<path d="M264.3,267.6c0,5.8-4.1,10.5-9.1,10.5c-5,0-9.1-4.7-9.1-10.5s4.1-10.5,9.1-10.5C260.2,257.1,264.3,261.8,264.3,267.6
								z"/>
							<path class="st9" d="M222.2,274.4c-1.2-7.9,0.7-16.1,5.6-22.8c2.6-3.5,5.6-6.3,9.4-8.4c7.7-4.2,17.1-4.2,24.8,0
								c3.7,2.1,6.8,4.9,9.4,8.2c4.7,6.5,6.8,14.7,5.6,22.8c-1.2-7.2-4.2-14.2-9.1-19.8c-8.4-10-23.4-11.2-33.2-2.8
								c-0.9,0.9-1.9,1.9-2.8,2.8C226.4,260.1,223.3,266.9,222.2,274.4z"/>
							<path class="st9" d="M228,256c-4.4-0.5-8.6-3.3-10.8-7.2c-1.9-3.7-1.9-8.2,0.2-11.9c-1.2,3.5-0.5,7.5,1.9,10.5
								c2.1,2.6,5.4,4,8.9,3.7c1.4-0.2,2.6,0.9,2.8,2.1c0.2,1.4-0.9,2.6-2.1,2.8H228z"/>
							<path class="st9" d="M222.2,265.5c-4.9-0.9-9.1-3.5-12.2-7.5c-1.4-1.9-2.3-4.2-2.6-6.5c-0.2-2.3,0.2-4.4,1.4-6.5
								c-1.2,4,0,8.4,3.3,11.2c2.8,2.6,6.5,4,10.5,4c1.4-0.2,2.8,0.7,3,2.1c0.2,1.4-0.7,2.8-2.1,3c-0.2,0-0.5,0-0.9,0
								C222.4,265.5,222.2,265.5,222.2,265.5z"/>
							<path class="st8" d="M431.6,274.4c0,17.2,12.2,31.2,27.3,31.2s27.3-14,27.3-31.2c0-17.2-12.2-31.2-27.3-31.2
								c-0.9,0-2.1,0-3,0.2c-12.6,1.6-22.7,13.1-24.1,27.5C431.6,272,431.6,273.2,431.6,274.4z"/>
							<path class="st3" d="M431.6,270.9c1.4,12.1,10.3,21.4,21.3,21.4c11.9,0,21.5-11,21.5-24.7c0-12.6-8.2-22.8-18.9-24.5
								C443.1,245,433,256.4,431.6,270.9z"/>
							<path d="M462.2,267.6c0,5.8-4.1,10.5-9.1,10.5c-5,0-9.1-4.7-9.1-10.5s4.1-10.5,9.1-10.5C458.2,257.1,462.2,261.8,462.2,267.6
								z"/>
							<path class="st9" d="M486.1,274.4c-1.2-7.2-4.2-14.2-9.1-19.8c-8.4-10-23.4-11.2-33.2-2.8c-0.9,0.9-1.9,1.9-2.8,2.8
								c-4.9,5.6-8.2,12.4-9.1,19.8c-1.2-7.9,0.7-16.1,5.6-22.8c2.6-3.5,5.6-6.3,9.4-8.2c7.7-4.2,17.1-4.2,24.8,0
								c3.7,2.1,6.8,4.9,9.4,8.4C485.4,258,487.3,266.2,486.1,274.4z"/>
							<path class="st9" d="M480.2,251.1c3.3,0.2,6.8-1.2,8.9-3.7c2.3-3,3-7,1.9-10.5c2.1,3.7,2.1,8.2,0.2,11.9
								c-2.1,4-6.1,6.8-10.8,7.2c-1.4,0.2-2.6-0.7-2.8-2.1c-0.2-1.4,0.7-2.6,2.1-2.8H480.2z"/>
							<path class="st9" d="M485.9,260.1c4,0.2,7.7-1.2,10.5-4c3.3-2.8,4.4-7.2,3.3-11.2c1.2,1.9,1.6,4.2,1.4,6.5
								c-0.2,2.3-1.2,4.7-2.6,6.5c-3,4-7.2,6.5-12.2,7.5c-1.4,0.2-2.8-0.5-3.3-2.1c-0.2-1.4,0.5-2.8,2.1-3.3h0.2H485.9z"/>
							<path class="st0" d="M333.2,327.7c1.6-0.2,3.3-0.2,4.7,0.5c1.4,0.5,2.8,1.2,4,2.1c1.2,0.9,2.3,2.1,3,3.5
								c0.7,1.4,1.2,3,0.7,4.7l-3.7-2.3c-0.9-0.7-2.1-1.4-3-2.3c-0.9-0.9-2.1-1.6-2.8-2.6C334.8,330.1,334.1,328.9,333.2,327.7z"/>
							<path class="st0" d="M377.4,327.7c-0.7,1.4-1.6,2.6-2.6,3.7c-0.9,0.9-1.9,1.9-2.8,2.6c-0.9,0.9-2.1,1.4-3,2.3l-3.7,2.3
								c-0.2-1.6,0-3.3,0.7-4.7c0.7-1.4,1.6-2.6,3-3.5c1.2-0.9,2.6-1.6,4-2.1C374.4,327.7,376,327.5,377.4,327.7z"/>
							<path class="st0" d="M438.4,345.4c-7.2-0.5-14.5,1.2-20.8,4.4c-6.5,3-12.6,7-19.2,10.3c-6.5,3.5-13.8,5.8-21,7.5
								c-14.7,2.8-29.7,2.8-44.4,0c-7.2-1.4-14.5-4-21-7.5c-6.5-3.3-12.6-7.2-19.2-10.3c-6.3-3.5-13.6-4.9-20.8-4.4
								c7.2-1.9,15-0.2,21.7,2.3c6.8,2.6,13.3,6.1,19.9,9.1c13.1,5.8,27.3,8.6,41.6,8.2c14.3,0.5,28.5-2.3,41.6-7.9
								c6.5-3,13.1-6.5,19.9-9.1C423.4,345.4,431.4,343.6,438.4,345.4z"/>
							<path class="st0" d="M-21.4,894.3c0,10-8.2,18.2-18.2,18.2c-10.1,0-18.2-8.1-18.2-18.2s8.2-18.2,18.2-18.2
								C-29.6,876.1-21.4,884.2-21.4,894.3z"/>
							<path class="st0" d="M-42.9,842.8c-5.8,13.8-8.9,31.2-4.2,46.6l15,7c-0.9-22.6,4-38.9,14.5-54.8L-42.9,842.8z"/>
							<path class="st9" d="M-6.4,858.9C2.2,859,9.2,866,9.1,874.7C9,883.3,2,890.2-6.7,890.1c-8.6-0.1-15.6-7.1-15.5-15.8
								S-15.1,858.8-6.4,858.9z"/>
							<path class="st9" d="M-25.6,836c-0.7,13.3,3.3,26.1,11.2,36.8l14.3,1.4c-7.2-17.9-7.9-32.6-4-48.5L-25.6,836z"/>
							<path class="st0" d="M19.6,844c10.1,0.2,18.1,8.4,17.9,18.5c-0.2,10-8.5,18-18.5,17.9C8.9,880.2,0.9,872,1.1,861.9
								C1.2,851.9,9.5,843.9,19.6,844z"/>
							<path class="st0" d="M-12.3,823.2c2.8,15.1,10.8,28.9,22.7,38.7l16.6-2.1c-12.9-18.4-17.8-35-17.3-53.8L-12.3,823.2z"/>
							<path class="st0" d="M-36.3,850.7c-13.3-10.7-17.8-42.2,0.2-63.9c18-21.7,49.6-23.5,62.6-12.6c13.6,11-7.7,20-25.5,41.9
								C-16.7,838.1-22.8,861.9-36.3,850.7z"/>
							<path class="st9" d="M733.2,874.7c0,8.6-7,15.6-15.7,15.6c-8.6,0-15.7-7-15.7-15.6c0-8.6,7-15.6,15.7-15.6
								C726.2,859.1,733.2,866.1,733.2,874.7z"/>
							<path class="st9" d="M736.4,836c0.7,13.3-3.3,26.1-11.2,36.8l-14,1.4c7.2-17.9,7.9-32.6,4-48.5L736.4,836z"/>
							<path class="st0" d="M709.6,862.1c0,10-8.2,18.2-18.2,18.2c-10.1,0-18.2-8.1-18.2-18.2s8.2-18.2,18.2-18.2
								C701.4,843.9,709.6,852.1,709.6,862.1z"/>
							<path class="st0" d="M723.1,823.2c-2.8,15.1-10.8,28.9-22.7,38.7l-16.4-2.1c12.9-18.4,17.8-35,17.3-53.8L723.1,823.2z"/>
							<path class="st0" d="M768.7,894.3c0,10-8.2,18.2-18.2,18.2c-10.1,0-18.2-8.1-18.2-18.2s8.2-18.2,18.2-18.2
								C760.5,876.1,768.7,884.2,768.7,894.3z"/>
							<path class="st0" d="M753.7,842.8c5.8,13.8,8.9,31.2,4.2,46.6l-15,7c0.9-22.4-3.7-38.9-14.5-54.8L753.7,842.8z"/>
							<path class="st0" d="M747.2,850.7c13.3-10.7,17.8-42.2-0.2-63.9c-18-21.7-49.6-23.5-62.6-12.6c-13.6,11,7.7,20,25.5,41.9
								C727.6,838.1,733.6,861.9,747.2,850.7z"/>
						</g>
					</g>
				</g>
			</g>
		</g>
	</g>
</g>
</svg>
