<?xml version="1.0" encoding="utf-8"?>
<!-- Generator: Adobe Illustrator 25.2.0, SVG Export Plug-In . SVG Version: 6.00 Build 0)  -->
<svg version="1.1" id="Layer_1" xmlns="http://www.w3.org/2000/svg" xmlns:xlink="http://www.w3.org/1999/xlink" x="0px" y="0px"
	 viewBox="0 0 404.4 539.6" style="enable-background:new 0 0 404.4 539.6;" xml:space="preserve">
<style type="text/css">
	.st0{fill:#534741;}
	.st1{fill:#38302C;}
	.st2{fill:#004E2A;}
	.st3{fill:#D99D36;}
	.st4{fill:#2D9B02;}
	.st5{fill:#4AFF03;}
	.st6{fill:#D8FF03;}
	.st7{fill:#268202;}
	.st8{fill:#736357;}
	.st9{fill:#FFFFFF;}
</style>
<g id="r-arm">
	<path class="st0" d="M275.3,215.2c0.7,10,2.4,19.8,5.3,29.4c1.4,4.6,3.1,9.1,5.2,13.4c1.9,4,4.4,7.7,7.4,11c2.5,2.8,5.7,5,9.3,6.3
		c3.7,1.1,7.7,1.2,11.4,0.2c4.5-1.2,8.8-3.1,12.7-5.6l3.1-2c1-0.7,2-1.5,3-2.2l1.5-1.1l1.5-1.2l3-2.5l0.3-0.2c2.8-2.4,7.1-2,9.5,0.8
		c2.2,2.6,2.1,6.5-0.3,9l-3,3.1l-1.5,1.6l-1.6,1.5c-1.1,1-2.1,2-3.2,3l-3.5,2.9c-5,4-10.5,7.1-16.4,9.4l-2.4,0.9
		c-0.8,0.2-1.7,0.4-2.5,0.6s-1.7,0.4-2.5,0.6l-2.6,0.3l-1.3,0.2c-0.5,0-0.9,0-1.4,0h-2.7c-0.9,0-1.8-0.1-2.7-0.2
		c-0.9-0.1-1.8-0.2-2.7-0.4c-7.1-1.5-13.6-4.7-19.1-9.4c-4.9-4.3-9.2-9.3-12.8-14.8c-3.3-5.2-6.2-10.6-8.7-16.3
		c-4.7-11-8.1-22.5-10.2-34.3v-0.1c-1.4-7.7,3.6-15,11.3-16.5c7.7-1.4,15,3.6,16.5,11.3C275.2,214.1,275.2,214.6,275.3,215.2z"/>
</g>
<g id="r-hand">
	<circle class="st1" cx="383.9" cy="260.9" r="6.7"/>
	<path class="st1" d="M370.9,274c5.4-1.6,10.1-5,13.3-9.7l-1.4-5.9c-6.2,5.4-12.1,7.8-19.1,8.4L370.9,274z"/>
	<circle class="st0" cx="375.3" cy="252.1" r="7.8"/>
	<path class="st0" d="M363.9,270.4c5.7-3.3,10.2-8.4,12.5-14.6l-3.1-6.4c-5.7,7.8-11.7,12.1-19.5,14.6L363.9,270.4z"/>
	<circle class="st0" cx="396.5" cy="271.4" r="7.8"/>
	<path class="st0" d="M376.1,280c6.3,0.4,13.9-0.8,19.5-4.8l0.8-7.1c-9,3.6-16.3,3.9-24.2,1.9L376.1,280z"/>
	<path class="st0" d="M378.4,276.2c-2.5,6.9-14.6,13.1-25.9,8.9s-16.4-16.7-13.8-23.6c2.6-7,9.2,0.3,20.5,4.4
		S381.1,269.2,378.4,276.2z"/>
</g>
<g id="l-arm">
	<path class="st0" d="M106.5,218.9c-4.3,23.4-12.9,45.9-25.5,66.1c-12.3,20-28.7,37.2-48.1,50.5c-3.1,2.1-7.3,1.3-9.4-1.7
		c-2-2.9-1.4-6.7,1.2-9h0c16-13.8,29-30.8,38.1-49.9c8.9-18.8,14.3-39,15.8-59.8c0.6-7.8,7.3-13.6,15.1-13c7.8,0.6,13.6,7.3,13,15.1
		c0,0.5-0.1,1-0.2,1.5L106.5,218.9z"/>
</g>
<g id="body">
	<path class="st2" d="M51.8,376.4L51.8,376.4c10.1,0,18.3,8.2,18.3,18.3v126.6c0,10.1-8.2,18.3-18.3,18.3l0,0
		c-10.1,0-18.3-8.2-18.3-18.3V394.7C33.5,384.6,41.7,376.4,51.8,376.4z"/>
	<path class="st2" d="M303.4,539.6L303.4,539.6c-10.1,0-18.3-8.2-18.3-18.3V394.7c0-10.1,8.2-18.3,18.3-18.3l0,0
		c10.1,0,18.3,8.2,18.3,18.3v126.6C321.8,531.4,313.6,539.6,303.4,539.6z"/>
	<path class="st3" d="M232.9,215c5.7-19.5,25.5-33.9,45.8-33.2c4.5,0.1,9.2,1.1,12.2,4.4c2.7,3,3.3,7.4,2.5,11.4s-2.9,7.5-5.1,10.9
		c-12.5,18.4-30.9,32.1-52.2,38.9L232.9,215z"/>
	<path class="st3" d="M120.6,215c-5.7-19.5-25.5-33.9-45.8-33.2c-4.4,0.1-9.2,1.1-12.2,4.4c-2.7,3-3.3,7.4-2.5,11.4
		s2.9,7.4,5.1,10.8c12.5,18.4,30.9,32.1,52.2,38.9L120.6,215z"/>
	<path class="st4" d="M279.9,484.4c-6.5,18.9-22.9,34.2-42.3,43.2c-18.6,8.6-39.9,11.9-60.8,12c-20.9-0.1-42.2-3.3-60.8-12
		c-19.4-9-35.8-24.3-42.3-43.2C66,462,64.3,438.7,71,417.2c3.2-10.3,8.2-19.9,14.8-28.5c21.7-28.2,47.1-57.2,48.5-91.6l42.5-0.6
		l42.5,0.6c1.3,34.4,26.7,63.4,48.5,91.6c5.4,7,9.8,14.7,12.9,22.9C289.5,434.7,288.3,460,279.9,484.4z"/>
	<path class="st5" d="M247.6,247.9l-40.5,76.5c-11.7,24-49,24-60.7,0L106,247.9c-6.7-12.7-4.8-28.2,4.7-38.9
		c5-6.9,10-11.5,15.3-14.5c4.7-2.6,9.8-4.2,15.1-4.7c10.6-1.3,22.2,0.3,35.6-0.2c9.6,0.5,23.4-1.1,35.7,0.4c5.2,0.5,10.3,1.8,15,4.1
		c3.3,1.6,6.1,4,8.2,6.9C248.8,212.8,256.9,231.2,247.6,247.9z"/>
	<path class="st0" d="M161.2,212l5.6-63.4c0.6-5.5,5.6-9.5,11.1-8.9c4.7,0.5,8.4,4.2,8.9,8.9l5.6,63.4c0.8,8.6-5.6,16.2-14.2,17
		s-16.2-5.6-17-14.2l0,0C161.1,213.8,161.1,212.9,161.2,212z"/>
	<path class="st6" d="M227.4,194c-4.7-2.3-9.8-3.7-14.9-4.1c3.4,7.3,5.2,15.4,5.2,23.5c0,26.6-18.3,48.2-40.9,48.2
		s-40.9-21.6-40.9-48.2c0-8.2,1.8-16.2,5.2-23.6c-5.3,0.6-10.5,2.2-15.2,4.8c-1.8,6.1-2.7,12.5-2.6,18.9c0,33.5,24,60.7,53.4,60.7
		s53.4-27.2,53.4-60.7C230.2,206.8,229.3,200.3,227.4,194z"/>
	<path class="st7" d="M279.9,484.4c-6.5,18.9-22.9,34.2-42.3,43.2c-18.6,8.6-39.9,11.9-60.8,12c-20.9-0.1-42.2-3.3-60.8-12
		c-19.4-9-35.8-24.3-42.3-43.2C66,462,64.3,438.7,71,417.2c9.5,2.2,18.8,5.6,27.5,10.1c14.4,7.4,27.2,17.5,41.4,25.3
		s30.6,13.2,46.5,10c20.6-4.2,35.4-21.6,52.8-33.4c12.6-8.4,26.7-14.4,41.5-17.5C289.5,434.7,288.3,460,279.9,484.4z"/>
</g>
<g id="head">
	<path class="st8" d="M289,62.5c-8.4-8.9-23-6.6-34.5-2.3C247,63,239.2,66.4,231,67c-10.2,0.7-10.9-2.3-13.5-10.9
		c-4.8-15.9-10.8-32.1-21.8-44.9C190.9,5.5,183.9,0.4,176.8,0c-7.1,0.4-14.1,5.5-19,11.2c-11,12.8-17,29-21.8,44.9
		c-2.6,8.7-3.3,11.6-13.5,10.9c-8.1-0.5-15.9-4-23.4-6.8c-11.4-4.3-26.1-6.6-34.5,2.3c-8.1,8.7-5.3,22.6-0.6,33.5
		c12.3,28.7,34.8,53.3,63,66.9c15.6,7.5,32.6,11.4,49.9,11.6c17.3-0.2,34.3-4.1,49.9-11.6c28.2-13.6,50.6-38.1,63-66.9
		C294.3,85.1,297.1,71.1,289,62.5z"/>
	<path class="st6" d="M154.9,58.6c7.2-2,11.6-3.8,14.7-6.9s4.9-7.5,6.9-14.7c2,7.2,3.8,11.6,6.9,14.7s7.5,4.9,14.7,6.9
		c-7.2,2-11.6,3.8-14.7,6.9c-3.1,3.1-4.9,7.5-6.9,14.7c-2-7.2-3.8-11.6-6.9-14.7S162.1,60.6,154.9,58.6z"/>
	<circle class="st6" cx="201.8" cy="80.2" r="5.6"/>
	<circle class="st6" cx="151.3" cy="80.2" r="5.6"/>
	<path class="st9" d="M143.1,112.8c0,7.4-5.2,13.4-11.7,13.4s-11.7-6-11.7-13.4s5.2-13.4,11.7-13.4c0.4,0,0.9,0,1.3,0.1
		c5.4,0.7,9.7,5.6,10.3,11.8C143.1,111.8,143.1,112.3,143.1,112.8z"/>
	<path class="st4" d="M143.1,111.3c-0.6,5.2-4.5,9.2-9.1,9.2c-5.1,0-9.2-4.7-9.2-10.6c0-5.4,3.5-9.8,8.1-10.5
		C138.2,100.2,142.5,105.1,143.1,111.3z"/>
	<ellipse cx="133.9" cy="109.9" rx="3.9" ry="4.5"/>
	<path class="st1" d="M119.8,112.8c-0.5-3.4,0.3-6.9,2.4-9.8c1.1-1.5,2.4-2.7,4-3.6c3.3-1.8,7.3-1.8,10.6,0c1.6,0.9,2.9,2.1,4,3.5
		c2,2.8,2.9,6.3,2.4,9.8c-0.5-3.1-1.8-6.1-3.9-8.5c-3.6-4.3-10-4.8-14.2-1.2c-0.4,0.4-0.8,0.8-1.2,1.2
		C121.6,106.7,120.3,109.6,119.8,112.8z"/>
	<path class="st1" d="M122.3,104.9c-1.9-0.2-3.7-1.4-4.6-3.1c-0.8-1.6-0.8-3.5,0.1-5.1c-0.5,1.5-0.2,3.2,0.8,4.5
		c0.9,1.1,2.3,1.7,3.8,1.6c0.6-0.1,1.1,0.4,1.2,0.9c0.1,0.6-0.4,1.1-0.9,1.2L122.3,104.9L122.3,104.9z"/>
	<path class="st1" d="M119.8,109c-2.1-0.4-3.9-1.5-5.2-3.2c-0.6-0.8-1-1.8-1.1-2.8c-0.1-1,0.1-1.9,0.6-2.8c-0.5,1.7,0,3.6,1.4,4.8
		c1.2,1.1,2.8,1.7,4.5,1.7c0.6-0.1,1.2,0.3,1.3,0.9s-0.3,1.2-0.9,1.3c-0.1,0-0.2,0-0.4,0C119.9,109,119.8,109,119.8,109L119.8,109z"
		/>
	<path class="st9" d="M209.4,112.8c0,7.4,5.2,13.4,11.7,13.4s11.7-6,11.7-13.4s-5.2-13.4-11.7-13.4c-0.4,0-0.9,0-1.3,0.1
		c-5.4,0.7-9.7,5.6-10.3,11.8C209.4,111.8,209.4,112.3,209.4,112.8z"/>
	<path class="st4" d="M209.4,111.3c0.6,5.2,4.4,9.2,9.1,9.2c5.1,0,9.2-4.7,9.2-10.6c0-5.4-3.5-9.8-8.1-10.5
		C214.3,100.2,210,105.1,209.4,111.3z"/>
	<ellipse cx="218.6" cy="109.9" rx="3.9" ry="4.5"/>
	<path class="st1" d="M232.7,112.8c-0.5-3.1-1.8-6.1-3.9-8.5c-3.6-4.3-10-4.8-14.2-1.2c-0.4,0.4-0.8,0.8-1.2,1.2
		c-2.1,2.4-3.5,5.3-3.9,8.5c-0.5-3.4,0.3-6.9,2.4-9.8c1.1-1.5,2.4-2.7,4-3.5c3.3-1.8,7.3-1.8,10.6,0c1.6,0.9,2.9,2.1,4,3.6
		C232.4,105.8,233.2,109.3,232.7,112.8z"/>
	<path class="st1" d="M230.2,102.8c1.4,0.1,2.9-0.5,3.8-1.6c1-1.3,1.3-3,0.8-4.5c0.9,1.6,0.9,3.5,0.1,5.1c-0.9,1.7-2.6,2.9-4.6,3.1
		l0,0c-0.6,0.1-1.1-0.3-1.2-0.9s0.3-1.1,0.9-1.2L230.2,102.8z"/>
	<path class="st1" d="M232.6,106.7c1.7,0.1,3.3-0.5,4.5-1.7c1.4-1.2,1.9-3.1,1.4-4.8c0.5,0.8,0.7,1.8,0.6,2.8c-0.1,1-0.5,2-1.1,2.8
		c-1.3,1.7-3.1,2.8-5.2,3.2l0,0c-0.6,0.1-1.2-0.2-1.4-0.9c-0.1-0.6,0.2-1.2,0.9-1.4c0,0,0.1,0,0.1,0L232.6,106.7z"/>
	<path class="st0" d="M167.3,135.7c0.7-0.1,1.4-0.1,2,0.2c0.6,0.2,1.2,0.5,1.7,0.9c0.5,0.4,1,0.9,1.3,1.5c0.3,0.6,0.5,1.3,0.3,2
		l-1.6-1c-0.4-0.3-0.9-0.6-1.3-1c-0.4-0.4-0.9-0.7-1.2-1.1C168,136.7,167.7,136.2,167.3,135.7z"/>
	<path class="st0" d="M186.2,135.7c-0.3,0.6-0.7,1.1-1.1,1.6c-0.4,0.4-0.8,0.8-1.2,1.1c-0.4,0.4-0.9,0.6-1.3,1l-1.6,1
		c-0.1-0.7,0-1.4,0.3-2c0.3-0.6,0.7-1.1,1.3-1.5c0.5-0.4,1.1-0.7,1.7-0.9C184.9,135.7,185.6,135.6,186.2,135.7z"/>
	<path class="st0" d="M212.3,143.3c-3.1-0.2-6.2,0.5-8.9,1.9c-2.8,1.3-5.4,3-8.2,4.4c-2.8,1.5-5.9,2.5-9,3.2c-6.3,1.2-12.7,1.2-19,0
		c-3.1-0.6-6.2-1.7-9-3.2c-2.8-1.4-5.4-3.1-8.2-4.4c-2.7-1.5-5.8-2.1-8.9-1.9c3.1-0.8,6.4-0.1,9.3,1s5.7,2.6,8.5,3.9
		c5.6,2.5,11.7,3.7,17.8,3.5c6.1,0.2,12.2-1,17.8-3.4c2.8-1.3,5.6-2.8,8.5-3.9S209.3,142.5,212.3,143.3z"/>
</g>
<g id="l-hand">
	<circle class="st0" cx="7.8" cy="378.8" r="7.8"/>
	<path class="st0" d="M6.4,356.7c-2.5,5.9-3.8,13.4-1.8,20l6.4,3c-0.4-9.7,1.7-16.7,6.2-23.5L6.4,356.7z"/>
	
		<ellipse transform="matrix(9.089791e-03 -1 1 9.089791e-03 -348.6536 388.8627)" class="st1" cx="21.9" cy="370.4" rx="6.7" ry="6.7"/>
	<path class="st1" d="M13.8,353.8c-0.3,5.7,1.4,11.2,4.8,15.8l6.1,0.6c-3.1-7.7-3.4-14-1.7-20.8L13.8,353.8z"/>
	
		<ellipse transform="matrix(1.612273e-02 -0.9999 0.9999 1.612273e-02 -332.4851 392.1704)" class="st0" cx="33" cy="365" rx="7.8" ry="7.8"/>
	<path class="st0" d="M19.5,348.3c1.2,6.5,4.6,12.4,9.7,16.6l7.1-0.9c-5.5-7.9-7.6-15-7.4-23.1L19.5,348.3z"/>
	<path class="st0" d="M9.2,360.1c-5.7-4.6-7.6-18.1,0.1-27.4s21.2-10.1,26.8-5.4c5.8,4.7-3.3,8.6-10.9,18S15,364.9,9.2,360.1z"/>
</g>
</svg>
