<?xml version="1.0" encoding="utf-8"?>
<!-- Generator: Adobe Illustrator 25.2.0, SVG Export Plug-In . SVG Version: 6.00 Build 0)  -->
<svg version="1.1" id="Layer_1" xmlns="http://www.w3.org/2000/svg" xmlns:xlink="http://www.w3.org/1999/xlink" x="0px" y="0px"
	 viewBox="0 0 410.4 537.3" style="enable-background:new 0 0 410.4 537.3;" xml:space="preserve">
<style type="text/css">
	.st0{fill:#534741;}
	.st1{fill:#268202;}
	.st2{fill:#2D9B02;}
	.st3{fill:#D99D36;}
	.st4{fill:#004E2A;}
	.st5{fill:#006837;}
	.st6{fill:#D8FF03;}
	.st7{fill:#4AFF03;}
	.st8{clip-path:url(#SVGID_2_);}
	.st9{fill:#736357;}
	.st10{fill:#FFFFFF;}
	.st11{fill:#38302C;}
</style>
<g id="l-hand">
	<circle class="st0" cx="27.6" cy="113.4" r="7.8"/>
	<path class="st0" d="M48.1,143.8c-2.4-4.1-6-7.5-9.5-10.7c-2.5-2.2-5.5-4.5-8.7-3.8c-2.8,0.7-4.4,3.4-5.6,6
		c-2.1,4.5-3.5,9.2-4.4,14.1c-1.9,11.1,6.6,20.4,18.4,18.5C49.7,166.1,53.4,152.8,48.1,143.8z"/>
	<path class="st0" d="M23.2,137.8l8.5-1.6l8.5-1.6c0,0-8.4-8.1-9.3-18.3l-2.9,0.6l-2.9,0.6C28,127.2,23.2,137.8,23.2,137.8z"/>
	<circle class="st0" cx="53.5" cy="124.1" r="7.8"/>
	<path class="st0" d="M49.7,148.7l-7.5-4.3l-7.5-4.3c0,0,10.6-4.9,14.7-14.2l2.5,1.5l2.5,1.5C48.5,137.1,49.7,148.7,49.7,148.7z"/>
	<circle class="st0" cx="7.8" cy="132.8" r="7.8"/>
	<path class="st0" d="M20.4,154.2l5.4-6.8l5.4-6.7c0,0-11.6-0.7-18.9-7.8l-1.8,2.3l-1.8,2.3C17.2,143,20.4,154.2,20.4,154.2z"/>
</g>
<g id="l-arm">
	<path class="st0" d="M122.5,219.5c-4.5,4.2-9.8,7.6-15.4,10c-5.8,2.5-12.1,3.8-18.4,3.8c-6.1,0-12.2-1.1-17.9-3.4
		c-5.4-2.2-10.4-5.2-14.8-8.9c-8.3-7-14.7-16-18.8-26c-2-4.8-3.6-9.7-4.7-14.7c-1-4.9-1.7-10-2-15c-0.2-3.6,2.5-6.7,6.1-6.9
		c3.3-0.2,6.2,2,6.8,5.3v0.2c0.8,4.2,1.9,8.4,3.3,12.5c1.4,4,3.2,7.8,5.3,11.4c3.9,6.9,9.4,12.8,16,17.2c6.3,4,13.3,5.8,19.5,4.8
		s11.5-4.2,15.8-9.4c4.8-5.8,13.4-6.5,19.2-1.7s6.5,13.4,1.7,19.2c-0.4,0.5-0.8,0.9-1.2,1.3L122.5,219.5z"/>
</g>
<g id="body">
	<path class="st1" d="M410.3,464.2c0,0.4,0.1,0.7,0.1,1.1c0,6.1-6,9.4-10.9,11c-50.2,17.1-74.3,8.1-165.9,33.8
		c-12.2,3.4-25.7,7.5-40.6,12.3l81.2-87.6l13.7-14.8l0.2-0.2c33.9,9.7,27.6,28.5,45.6,32c8.2,1.6,16.8-2.2,24.8,0.7
		c5.3,2,9.6,6.7,15,8.1c8.6,2.3,17.1-4.4,25.9-4.6C404.2,455.9,409.7,458.9,410.3,464.2z"/>
	<path class="st2" d="M286.8,407.5c0.6,6.8,4.9,12.8,11.1,15.6c23,10.2,19.8,25.4,35.9,28.5c8.2,1.6,16.8-2.2,24.8,0.7
		c5.3,2,9.6,6.7,15,8.1c8.6,2.3,17.1-4.4,25.9-4.6c4.7-0.1,10.2,2.9,10.8,8.2c-64,11.4-102.2-2.7-124.2-19l0,0
		c-4.3-3.1-8.2-6.6-11.9-10.5C263,423.1,259.3,413,259.3,413l4.5-14.1l22.5,4.6L286.8,407.5z"/>
	<path class="st3" d="M153.6,216.4c0.3-3.8-0.2-7.6-1.7-11.1c-7.6-18.4-25.8-31.4-44.5-30.8c-4.5,0.1-9.4,1.2-12.4,4.9
		c-2.7,3.3-3.4,8.2-2.6,12.6s2.9,8.4,5.2,12.1c6.5,10.5,14.8,19.9,24.5,27.6C134.6,241.5,152,233,153.6,216.4L153.6,216.4z"/>
	<path class="st4" d="M133.1,447.2c0-31.2-11.4-58.2-27.9-70.8v-7.5H84.1c-26.9,0.1-48.7,35.2-48.7,78.3s21.9,78.3,48.8,78.3
		c0.6,0,1.1,0,1.6-0.1l19.3,0.1V518C121.7,505.5,133.1,478.5,133.1,447.2z"/>
	<ellipse class="st5" cx="105.2" cy="447.2" rx="48.8" ry="78.3"/>
	<ellipse class="st6" cx="105.2" cy="447.2" rx="30.6" ry="49.1"/>
	<path class="st2" d="M299.8,410.8c-0.7-2.7-1.6-5.4-2.6-8.1c-3.2-8.6-7.7-16.8-13.2-24.2c-22.1-29.7-47.9-60.3-49.3-96.5l0,0v-71.4
		h-86.3V282h-0.1c-1.4,36.2-27.2,66.8-49.3,96.5c-6.8,9-11.9,19.2-15.1,30c-0.6,2.1-1.2,4.3-1.7,6.5c-0.1,0.2-0.1,0.5-0.1,0.7
		c-4.6,20.6-2.5,42.5,4.5,63.7c6.6,19.9,23.3,36,43,45.5c14.7,7,30.9,10.7,47.3,12c3.9,0.3,7.9,0.5,11.9,0.6c0.9,0,1.8,0,2.7,0
		c4.8,0,9.7-0.2,14.5-0.6c16.5-1.3,32.7-5,47.4-12c19.7-9.5,36.4-25.6,43-45.5C304,456.4,305.8,432.7,299.8,410.8z"/>
	<path class="st7" d="M149.9,311.6c8.8,26.9,47.6,29.3,62.5,3.8l43.1-71.1c14.4-22.4-8.9-60.3-33.9-64c-23.7-2.2-37.8-2.8-59-3.5
		C92.6,184.4,137.9,269.2,149.9,311.6z"/>
	<path class="st3" d="M239.4,216.4c-0.4-3.8,0.2-7.6,1.6-11.1c7.6-18.4,25.9-31.4,44.5-30.8c4.5,0.1,9.4,1.2,12.4,4.9
		c2.7,3.3,3.4,8.2,2.6,12.6s-2.9,8.4-5.2,12.1c-6.5,10.5-14.8,19.9-24.5,27.6C258.4,241.5,240.9,233,239.4,216.4L239.4,216.4z"/>
	<path class="st0" d="M166,209.4l5.7-64.4c0.5-5.6,5.5-9.8,11.1-9.3c4.9,0.4,8.8,4.4,9.3,9.3l5.7,64.4c0.8,8.8-5.7,16.5-14.5,17.3
		s-16.5-5.7-17.3-14.5l0,0C166,211.3,165.9,210.4,166,209.4z"/>
	<g>
		<defs>
			<path id="SVGID_1_" d="M149.9,311.6c8.8,26.9,47.6,29.3,62.5,3.8l43.1-71.1c14.4-22.4-8.9-60.3-33.9-64
				c-23.7-2.2-37.8-2.8-59-3.5C92.6,184.4,137.9,269.2,149.9,311.6z"/>
		</defs>
		<clipPath id="SVGID_2_">
			<use xlink:href="#SVGID_1_"  style="overflow:visible;"/>
		</clipPath>
		<g class="st8">
			<path class="st6" d="M224.3,218.6l0.1-0.5c0.1-0.8,0.3-1.5,0.4-2.3l0.1-0.8c0.1-0.7,0.2-1.4,0.3-2.2c0-0.3,0.1-0.5,0.1-0.8
				c0.1-1,0.2-1.9,0.3-2.9l0,0c0.1-1,0.1-2,0.2-2.9v-0.8c0-0.7,0.1-1.5,0.1-2.2c0-0.3,0-0.5,0-0.8c0-0.8,0-1.6,0-2.4
				c0-0.2,0-0.3,0-0.5c-0.1-3-0.3-5.9-0.7-8.9c0-0.1,0-0.2,0-0.2c0-0.4-0.1-0.8-0.2-1.2l0,0c-3.7-25-18-44.6-36.7-47.3l0,0h-0.2H188
				h-0.1h-0.2l0,0c-18.7-2.1-36,13.3-43.6,36.8l0,0l-0.4,1.2c0,0.1,0,0.1-0.1,0.2c-0.9,2.8-1.6,5.6-2.1,8.5l-0.1,0.5
				c-0.1,0.8-0.3,1.5-0.4,2.3l-0.1,0.8c-0.1,0.7-0.2,1.4-0.3,2.2c0,0.3-0.1,0.5-0.1,0.8c-0.1,1-0.2,1.9-0.3,2.9l0,0
				c-0.1,1-0.1,2-0.2,2.9v0.8c0,0.7-0.1,1.5-0.1,2.2c0,0.3,0,0.5,0,0.8c0,0.8,0,1.6,0,2.4c0,0.2,0,0.4,0,0.5c0.1,3,0.3,5.9,0.7,8.9
				c0,0.1,0,0.2,0,0.2c0,0.4,0.1,0.8,0.2,1.2l0,0c3.7,25,18.1,44.6,36.7,47.3l0,0h0.2h0.1h0.1h0.2l0,0c18.7,2.1,36-13.3,43.6-36.8
				l0,0l0.4-1.2c0-0.1,0-0.2,0.1-0.2C223,224.3,223.7,221.4,224.3,218.6z M178.8,252.6c-12.3-1.7-22.2-13.3-26.5-29.1
				c-0.2-0.8-0.4-1.6-0.6-2.5c0-0.2-0.1-0.3-0.1-0.5c-0.2-0.7-0.3-1.4-0.4-2.1l-0.2-1.1c-0.1-0.5-0.2-1.1-0.3-1.6
				c-0.1-0.4-0.1-0.8-0.2-1.1c-0.1-0.6-0.1-1.2-0.2-1.8c0-0.3-0.1-0.6-0.1-1c-0.1-0.9-0.1-1.8-0.2-2.7c0-0.3,0-0.6,0-0.9
				c0-0.7-0.1-1.3-0.1-2c0-0.4,0-0.7,0-1.1c0-0.6,0-1.3,0-2c0-0.3,0-0.6,0-1c0-1,0.1-1.9,0.2-2.9v-0.1c0.1-1,0.2-1.9,0.3-2.9
				c0-0.3,0.1-0.6,0.1-1c0.1-0.6,0.2-1.3,0.3-1.9l0.2-1.1c0.1-0.6,0.2-1.3,0.4-1.9c0.1-0.3,0.1-0.6,0.2-0.9c0.2-0.9,0.4-1.7,0.6-2.6
				c0.1-0.3,0.2-0.6,0.3-0.9c0.2-0.6,0.3-1.1,0.5-1.7c0.1-0.4,0.2-0.7,0.3-1.1s0.3-1,0.5-1.5l0.4-1c0.3-0.7,0.5-1.3,0.8-2l0.2-0.5
				c0.3-0.8,0.7-1.5,1-2.3c6.8-14.3,18.4-23.2,30.7-21.6s22.2,13.3,26.5,29.1c0.2,0.8,0.4,1.6,0.6,2.5c0,0.2,0.1,0.3,0.1,0.5
				c0.2,0.7,0.3,1.4,0.4,2.1l0.2,1.1c0.1,0.5,0.2,1.1,0.3,1.6c0.1,0.4,0.1,0.8,0.2,1.1c0.1,0.6,0.1,1.2,0.2,1.8c0,0.3,0.1,0.6,0.1,1
				c0.1,0.9,0.1,1.8,0.2,2.7c0,0.3,0,0.6,0,0.9c0,0.6,0,1.3,0.1,2v1.1c0,0.6,0,1.3,0,2c0,0.3,0,0.6,0,1c0,1-0.1,1.9-0.2,2.9v0.1
				c-0.1,1-0.2,1.9-0.3,2.9c0,0.3-0.1,0.6-0.1,0.9c-0.1,0.6-0.2,1.3-0.3,1.9l-0.2,1.1c-0.1,0.6-0.2,1.3-0.4,1.9
				c-0.1,0.3-0.1,0.6-0.2,0.9c-0.2,0.9-0.4,1.7-0.6,2.6c-0.1,0.3-0.2,0.6-0.3,0.9c-0.2,0.6-0.3,1.1-0.5,1.7
				c-0.1,0.4-0.2,0.7-0.3,1.1c-0.2,0.5-0.3,1-0.5,1.5l-0.4,1c-0.2,0.7-0.5,1.3-0.8,2c-0.1,0.2-0.1,0.3-0.2,0.5
				c-0.3,0.8-0.7,1.5-1,2.3C202.6,245.2,191.1,254.1,178.8,252.6L178.8,252.6z"/>
		</g>
	</g>
	<path class="st1" d="M296.4,479.2c-6.6,19.9-23.3,36-43,45.5c-14.7,7-30.9,10.7-47.4,12H177c-16.4-1.3-32.6-5-47.3-12
		c-19.7-9.5-36.4-25.6-43-45.5c-7-21.2-9.1-43.1-4.5-63.7c6.5,2,12.5,5.8,17.8,10.1c7.1,5.8,13.3,12.6,20.4,18.5
		c11.7,9.7,26,16.6,41,18.8s30.9-0.4,44.1-8.1c9.9-5.9,18-14.4,27.1-21.5c19.3-14.8,43-22.7,67.3-22.5
		C305.8,432.7,304,456.4,296.4,479.2z"/>
	<path class="st4" d="M341.8,454.7c0-32.2-11.8-60.1-28.8-73.1v-7.8h-21.8c-27.8,0.1-50.2,36.3-50.2,80.9s22.6,80.9,50.4,80.9
		c0.6,0,1.1,0,1.7-0.1l19.9,0.1v-7.8C330,514.8,341.8,487,341.8,454.7z"/>
	<ellipse class="st5" cx="313" cy="454.7" rx="50.4" ry="80.9"/>
	<ellipse class="st6" cx="313" cy="454.7" rx="31.6" ry="50.7"/>
</g>
<g id="head">
	<path class="st0" d="M178.5,62.7c8.6,13,25.6,16.6,40.2,14.6S246.9,69,261.5,67s31.6,1.6,40.2,14.6c9.5,14.3,4.8,34.2-4.9,47.6
		c-11.9,16.4-30.1,26.6-49.2,31.7s-39.1,9.8-59,9.9L178.5,62.7z"/>
	<path class="st9" d="M302.5,62.1c-10.1-9.7-27.5-7.2-40.8-2.8c-8.6,2.9-17.2,6.4-26.2,6.8c-11,0.6-11.7-2.5-14.5-11.3
		c-5.1-16.1-11.4-32.3-22.8-44.7c-5-5.4-11.9-10.1-19-10.2c-7,0.7-13.7,6-18.4,11.6c-10.4,12.5-16,28-20.4,43
		c-2.4,8.2-3,10.9-12.2,10.2c-7.2-0.6-14-3.9-20.6-6.5c-9.8-3.9-22-6.1-28.8,1.8c-6.5,7.5-4.3,19.9-0.5,29.6
		c10.1,26.1,29,49.8,53.9,64.6c14.4,8.5,30.4,14,47,16c17.4,1.7,35-0.4,51.5-6.2c31.3-11.1,57.6-35.3,72.5-65.6
		C308.9,86.8,312.4,71.7,302.5,62.1z"/>
	<path class="st6" d="M157,58.5c12.9-3.8,15.9-6.9,19.5-21c3.7,14.1,6.7,17.2,20.3,21.2c-13.6,3.8-16.6,7-20.3,21
		C172.9,65.6,169.9,62.5,157,58.5z"/>
	<path class="st6" d="M205.7,80.5c0-3.1-2.4-5.6-5.4-5.8c-3,0-5.4,2.4-5.4,5.3c0,0.1,0,0.1,0,0.2c0,3,2.3,5.6,5.4,5.8
		c2.9,0.1,5.4-2.3,5.4-5.2C205.7,80.7,205.7,80.6,205.7,80.5z"/>
	<path class="st6" d="M148.9,76.9c-0.1-2.8,2-5.1,4.8-5.2c0,0,0.1,0,0.1,0c2.9,0.2,5.1,2.6,5,5.5c0.1,2.8-2,5.1-4.8,5.2
		c-0.1,0-0.1,0-0.2,0C151,82.2,148.8,79.8,148.9,76.9z"/>
	<path class="st10" d="M147,108.4c0,7-4.8,12.3-10.7,12s-10.5-6.2-10.5-13.1s4.7-12.2,10.5-12c0.4,0,0.8,0.1,1.2,0.1
		c4.9,0.8,8.9,5.7,9.5,11.6C147,107.5,147,107.9,147,108.4z"/>
	<path class="st2" d="M146.9,107c-0.5,4.9-4.1,8.5-8.4,8.2c-4.6-0.3-8.4-4.9-8.4-10.4c0-5,3.2-9,7.3-9.5
		C142.4,96.2,146.4,101.1,146.9,107z"/>
	<path d="M142,105.5c0,2.3-1.6,4.1-3.6,4s-3.5-2.1-3.5-4.4s1.6-4.1,3.5-4S142,103.2,142,105.5z"/>
	<path class="st11" d="M125.8,107.2c-0.5-3.2,0.2-6.5,2.2-9.1c1-1.4,2.3-2.4,3.8-3.2c1.6-0.7,3.3-1,5-0.9c1.7,0.2,3.3,0.8,4.8,1.7
		c1.4,0.9,2.6,2.1,3.5,3.5c1.7,2.7,2.4,5.9,1.9,9.1c-0.5-2.9-1.7-5.7-3.5-8c-1.7-2.2-4.2-3.5-6.9-3.9c-2.7-0.2-5.4,0.8-7.2,2.9
		C127.4,101.6,126.2,104.3,125.8,107.2z"/>
	<path class="st11" d="M127.9,100.1c-1.8-0.3-3.3-1.5-4.1-3.2c-0.7-1.5-0.6-3.3,0.2-4.7c-0.4,1.4-0.1,3,0.8,4.2c0.8,1,2,1.7,3.3,1.6
		c0.6,0,1.1,0.4,1.2,1c0,0.6-0.4,1.1-1,1.2C128.1,100.2,128,100.2,127.9,100.1L127.9,100.1z"/>
	<path class="st11" d="M125.6,103.8c-1.9-0.5-3.6-1.6-4.6-3.3c-0.5-0.8-0.8-1.7-0.9-2.6c-0.1-0.9,0.1-1.8,0.6-2.6
		c-0.4,1.6,0.1,3.3,1.3,4.4c1.1,1,2.5,1.6,4,1.7c0.7,0,1.2,0.5,1.2,1.2c0,0.7-0.5,1.2-1.2,1.2C125.8,103.9,125.7,103.9,125.6,103.8
		L125.6,103.8z"/>
	<path class="st10" d="M212.3,111.9c0,7.4,5.5,13.8,12.4,14.3s12.6-5.3,12.6-12.9s-5.7-14-12.6-14.3c-0.5,0-0.9,0-1.4,0
		c-5.8,0.4-10.3,5.2-10.9,11.4C212.3,110.9,212.3,111.4,212.3,111.9z"/>
	<path class="st2" d="M212.3,110.4c0.6,5.3,4.7,9.6,9.7,9.9c5.4,0.3,9.9-4.2,9.9-10.2c0-5.5-3.8-10.2-8.7-11.1
		C217.5,99.5,213,104.2,212.3,110.4z"/>
	<path d="M217.9,109.4c-0.1,2.4,1.7,4.5,4.1,4.7c2.3,0,4.1-1.8,4.2-4c0-0.1,0-0.2,0-0.3c0.1-2.4-1.7-4.5-4.2-4.7
		c-2.3,0-4.1,1.8-4.1,4C217.9,109.2,217.9,109.3,217.9,109.4z"/>
	<path class="st11" d="M237.2,113.3c-0.5-3.3-1.9-6.4-4.1-8.8c-2.1-2.3-5-3.8-8.1-4.1c-3.1-0.3-6.2,0.8-8.4,3
		c-2.4,2.3-3.9,5.4-4.3,8.7c-0.5-3.6,0.5-7.2,2.9-10c1.2-1.4,2.8-2.5,4.5-3.3c1.8-0.7,3.7-1,5.6-0.8c1.9,0.2,3.7,0.8,5.3,1.7
		C235.3,102.4,237.9,107.8,237.2,113.3L237.2,113.3z"/>
	<path class="st11" d="M234.6,102.9c1.5,0.2,3-0.3,4.1-1.4c1.1-1.3,1.4-3.1,0.9-4.7c0.9,1.6,0.9,3.7,0,5.3c-1.1,1.8-2.9,2.9-5,3
		h-0.1c-0.6,0-1.1-0.4-1.2-1c0-0.6,0.4-1.1,1-1.2L234.6,102.9z"/>
	<path class="st11" d="M237.2,107c1.7,0.2,3.5-0.3,4.9-1.4c0.7-0.6,1.2-1.3,1.5-2.2c0.3-0.9,0.3-1.9,0-2.8c0.5,0.9,0.7,1.9,0.6,2.9
		c-0.1,1.1-0.6,2.1-1.3,2.9c-1.4,1.7-3.5,2.8-5.7,3l0,0c-0.7,0.1-1.3-0.4-1.4-1.1s0.4-1.3,1.1-1.4l0,0H237.2z"/>
	<path class="st0" d="M165.1,131.7c0.7-0.1,1.4,0,2,0.3c0.6,0.2,1.2,0.6,1.6,1c0.5,0.4,0.9,1,1.2,1.6c0.3,0.6,0.4,1.4,0.3,2.1
		c-0.6-0.4-1.1-0.7-1.6-1c-0.5-0.3-0.9-0.6-1.3-1c-0.4-0.4-0.8-0.8-1.2-1.2C165.7,132.9,165.4,132.3,165.1,131.7z"/>
	<path class="st0" d="M183.8,133.1c-0.3,0.5-0.7,1-1.1,1.5c-0.4,0.4-0.8,0.7-1.2,1c-0.4,0.3-0.9,0.6-1.3,0.8l-1.6,0.8
		c-0.2-0.7,0-1.4,0.3-2c0.3-0.6,0.8-1,1.3-1.4c0.5-0.4,1.1-0.6,1.7-0.8C182.5,132.9,183.1,132.9,183.8,133.1z"/>
	<path class="st0" d="M210.6,142.7c-3-0.4-6.1,0-8.9,1.1c-2.9,1-5.6,2.4-8.4,3.6c-2.9,1.2-6,2.1-9.1,2.5c-3.1,0.4-6.3,0.4-9.4,0.1
		c-3.1-0.2-6.2-0.8-9.3-1.6c-3-0.9-5.9-2.1-8.6-3.8c-2.7-1.6-5.2-3.4-7.8-4.9c-2.6-1.7-5.5-2.6-8.6-2.7c3.1-0.5,6.3,0.5,9.1,1.8
		s5.4,3,8.1,4.4c5.4,2.8,11.3,4.4,17.3,4.7c6,0.7,12.1,0,17.7-2c2.9-1,5.7-2.3,8.8-3.1C204.3,141.9,207.6,141.9,210.6,142.7z"/>
</g>
<g id="r-hand">
	<circle class="st0" cx="352.4" cy="119" r="7.8"/>
	<path class="st0" d="M331.8,149.4c2.4-4.1,6-7.5,9.5-10.7c2.5-2.2,5.5-4.5,8.7-3.8c2.8,0.7,4.4,3.4,5.6,6c2.1,4.5,3.5,9.2,4.4,14.1
		c1.9,11.1-6.6,20.4-18.4,18.5C330.3,171.7,326.5,158.4,331.8,149.4z"/>
	<path class="st0" d="M356.7,143.4l-8.5-1.6l-8.5-1.6c0,0,8.4-8.1,9.3-18.3l2.9,0.6l2.9,0.6C351.9,132.8,356.7,143.4,356.7,143.4z"
		/>
	<circle class="st0" cx="326.5" cy="129.8" r="7.8"/>
	<path class="st0" d="M330.3,154.3l7.5-4.3l7.5-4.3c0,0-10.6-4.9-14.7-14.2l-2.5,1.5l-2.5,1.5C331.4,142.7,330.3,154.3,330.3,154.3z
		"/>
	<circle class="st0" cx="372.1" cy="138.4" r="7.8"/>
	<path class="st0" d="M359.5,159.9l-5.4-6.7l-5.4-6.8c0,0,11.6-0.7,18.9-7.8l1.8,2.3l1.8,2.3C362.8,148.7,359.5,159.9,359.5,159.9z"
		/>
</g>
<g id="r-arm">
	<path class="st0" d="M276.6,205.9c4.3,5.2,9.7,8.5,15.8,9.4s13.2-0.8,19.5-4.8c6.6-4.4,12.1-10.3,16-17.2c2.1-3.6,3.9-7.4,5.3-11.4
		c1.4-4.1,2.5-8.2,3.3-12.5v-0.2c0.7-3.5,4.1-5.8,7.6-5.2c3.2,0.6,5.5,3.5,5.3,6.8c-0.3,5-1,10.1-2,15c-1.1,5-2.7,10-4.7,14.7
		c-4.1,10-10.6,19-18.8,26c-4.4,3.7-9.4,6.7-14.8,8.9c-5.7,2.3-11.8,3.5-17.9,3.4c-6.3,0-12.6-1.3-18.4-3.8
		c-5.7-2.4-10.9-5.8-15.4-10l-0.4-0.4c-5.6-5.1-6-13.7-0.9-19.2c5.1-5.6,13.7-6,19.2-0.9C275.8,205,276.2,205.4,276.6,205.9z"/>
</g>
<path id="sleeve" class="st3" d="M250.1,232.7c0,0,6.6-19.7,41.8-23.7l3-22.2l-37.2,6.8l-14.5,16.2L250.1,232.7z"/>
</svg>
