<?xml version="1.0" encoding="utf-8"?>
<!-- Generator: Adobe Illustrator 25.2.0, SVG Export Plug-In . SVG Version: 6.00 Build 0)  -->
<svg version="1.1" id="Layer_1" xmlns="http://www.w3.org/2000/svg" xmlns:xlink="http://www.w3.org/1999/xlink" x="0px" y="0px"
	 viewBox="0 0 288.5 385.8" style="enable-background:new 0 0 288.5 385.8;" xml:space="preserve">
<style type="text/css">
	.st0{fill:#E82169;}
	.st1{fill:#FF4280;}
	.st2{fill:#43DCFF;}
	.st3{fill:#ED6100;}
	.st4{clip-path:url(#SVGID_2_);}
	.st5{fill:#FFA400;}
	.st6{fill:none;stroke:#ED6100;stroke-width:2;stroke-miterlimit:10;}
	.st7{fill:#9AE0E2;fill-opacity:0.2;stroke:#9AE0E2;stroke-width:3.14;stroke-miterlimit:10;}
	.st8{fill:#0049FF;}
	.st9{fill:#E9FCFF;}
	.st10{fill:#00B0FF;}
	.st11{fill:#FFFFFF;}
	.st12{opacity:0.7;fill:#FFFFFF;enable-background:new    ;}
	.st13{fill:none;stroke:#E82169;stroke-width:2;stroke-miterlimit:10;}
	.st14{clip-path:url(#SVGID_4_);}
</style>
<path id="l-thigh" class="st0" d="M116.3,288.9c1.8,2.7,1.1,6.4-1.6,8.2c-0.5,0.3-1.1,0.6-1.7,0.8h-0.1c-3.2,0.8-12.5,1-17.4-0.9
	c-7.8-3-39.7-23.1-12.9-62.5c21-30.9,34.9-34.8,49.1-40.1c42-15.6,63.1,58.5,13.4,68.2c-15.3,3-26.5,8.4-34.7,14.4
	C111.9,281.3,113.9,285.3,116.3,288.9z"/>
<g id="l-calf">
	<path class="st1" d="M72.9,345.5c-4.1,8-30.4-21.5-30.4-21.5s18.8-15.9,29.7-27c1.1-1.1,2.2-2.2,3.4-3.4
		c10.2-10.1,26.7-10,36.8,0.2c0.8,0.8,1.6,1.8,2.3,2.7l0.3,0.5C115,297,83,325.7,72.9,345.5z"/>
	<path class="st1" d="M77.5,348c-4,7.9-4.9,15.2-13.3,19.7s-8.2-18.1-14.6-30.5s-21-26.2-8.3-23.3c6.4,1.4,13.2-2.7,17.2-5.5
		c14.4-9.8,17.5-16,27.5-11.5c0,0,22.8-2.9,18.3,10C104.4,307,87.5,328.2,77.5,348z"/>
	<path class="st2" d="M82.4,342.3c0,0,4.8-21.8-4.8-31.4c-10.2-10.2-17.8-3.1-17.8-3.1l8.5-7c0,0,7-5,16.4,4.6
		c10.3,10.6,1.7,31.2,1.7,31.2L82.4,342.3z"/>
	<path class="st0" d="M31.3,328.9c-11.5-14.9-20.5-32-14-37.3c4.2-3.5,9.7,0.7,15.6,7s2.8,3.9,5.6,6.8c6.6-7.2,15.6-5.1,20,3.1
		c5.3,9.8-0.1,15.1,6.5,17.5s3.9-8.2,16.7,4.8c5.9,6,5.5,13.9-8.4,30.5c-0.5,15.6-14.9,8.9-19.1,2.5
		C48.6,355.1,39.4,339.4,31.3,328.9z"/>
</g>
<g id="l-arm">
	<path class="st3" d="M54.3,148c0,0,3.3,2.8,4,15.1S54.1,182,54.1,182s-7.1-2.4-9.4-13.1S51.6,148.6,54.3,148z"/>
	<path class="st2" d="M91.4,152.9c0,0-29.1-1.5-44.8-2.2s-19,16.8-8.3,23.4s27.3,10.8,40.5,10.9S118.4,165.2,91.4,152.9z"/>
</g>
<g id="l-hand">
	<g>
		<defs>
			<path id="SVGID_1_" d="M54.3,148c0,0-28.5,2.7-37.6-2.5S2,140.7,1.9,143.8c-0.1,4.3,6.9,7.4,6.8,9.2c-0.4,4-10.2,0.3-8.4,7.9
				c0.8,3.6,15.6,3.9,13,11.4c-2.2,6.4-2.9,11,2.2,11.3c4.9,0.3,8.1-7.9,21-7.6c0.6,0,18.1,6.3,17.7,5.9
				C47.1,173.9,47.7,152.7,54.3,148z"/>
		</defs>
		<clipPath id="SVGID_2_">
			<use xlink:href="#SVGID_1_"  style="overflow:visible;"/>
		</clipPath>
		<g class="st4">
			<path class="st5" d="M59.6,147.1c0,0-33.8,3.6-43-1.6s-14.7-4.8-14.7-1.6c-0.1,4.3,6.9,7.4,6.8,9.2c-0.4,4-10.2,0.3-8.4,7.9
				c0.8,3.6,15.6,3.9,13,11.4c-2.2,6.4-2.9,11,2.2,11.3c4.9,0.3,8.1-7.9,21-7.6c0.6,0,18.9,8.5,19.4,8.1
				C67.2,173.3,63.7,150.6,59.6,147.1z"/>
			<path class="st6" d="M46.2,145c0,0-6.1,6.1-7.2,13.8c-1.7,11.9,3.5,19.3,3.5,19.3c-6.2,1.4-13.2,3.2-13.2,3.2"/>
		</g>
	</g>
</g>
<path id="tail" class="st0" d="M227.9,225.5c0,0,8.4,52.3,12.4,73.1s52.5,38.8,47.9,72.6c-1.8,13.2-6.1,14.6-6.1,14.6
	s-3.2-17.2-11.6-23.4c-12.6-9.4-36.3-14.3-55.2-33.4c-21.3-21.5-20.8-35-60.6-67.6S215.5,176,227.9,225.5z"/>
<g id="head">
	<path class="st7" d="M199.9,83.9c0,68.7-43.8,98.9-89.3,98.9s-97.7-32.4-89.3-98.9C26.5,42,65,1.6,110.5,1.6S199.9,38.4,199.9,83.9
		z"/>
	<path class="st8" d="M102.2,57.8l0.6,4.3c0,0-12.4,1.2-15.4,4c-1.7,1.5-2.9,3.6-3.2,5.9c0,0-0.9-11,3.8-12.6S102.2,57.8,102.2,57.8
		z"/>
	<ellipse transform="matrix(0.5264 -0.8503 0.8503 0.5264 -24.9393 114.0912)" class="st9" cx="89.9" cy="79.4" rx="17.9" ry="13"/>
	<ellipse transform="matrix(0.4732 -0.881 0.881 0.4732 -23.4942 122.2398)" class="st5" cx="90.5" cy="80.8" rx="13.6" ry="9.9"/>
	<ellipse transform="matrix(0.4732 -0.881 0.881 0.4732 -23.4942 122.2398)" cx="90.5" cy="80.8" rx="7.7" ry="5.7"/>
	<path class="st2" d="M169.3,81.4c-6.9-10.2-17-30-39-30S91.1,69.6,82,78c-16.7,15.2-29.9,42.2-29.9,42.2s35.3,57.7,78.2,57.7
		s55.2-42.9,55.2-42.9S181.9,100.2,169.3,81.4z"/>
	<path class="st10" d="M46.2,120.9c0,0,10,41.8,29.4,59.7c16.9,15.5,61.6,4.7,68.7-4.3s-2.8-46.1-2.8-46.1s-9,10.4-23.7-11.3
		c-4.1-6.1-12.4-8.6-33.4,1.1S46.2,120.9,46.2,120.9z"/>
	<path class="st8" d="M144.3,125.9c-0.6,2.4-1.8,4.5-3.5,6.4c-1,1-2.1,1.8-3.4,2.3c-0.7,0.3-1.5,0.4-2.2,0.5c-0.7,0-1.5,0-2.2-0.1
		c-2.7-0.6-5.2-1.7-7.4-3.4c-2.1-1.5-3.9-3.2-5.7-4.7c-1.5-1.4-3.2-2.7-5-3.8c-1.2-0.8-2.7-1.3-4.2-1.3c-0.5,0-1,0.1-1.5,0.3
		c-0.4,0.1-0.9,0.3-1.5,0.6c-1.2,0.5-3,1.5-4.9,2.6c-4.5,2.6-9.2,4.6-14.2,6.1c-2.6,0.8-5.3,1.3-8,1.7c-2.7,0.4-5.4,0.6-8.1,0.6
		c-5.2,0-10.4-0.5-15.6-1.6c-4.9-1-9.8-2.3-14.5-4c-5.8-2-8.8-8.3-6.8-14.1c2-5.8,8.3-8.8,14.1-6.8l0,0c8,2.8,15.9,5,23.5,5.7
		c3.7,0.4,7.5,0.4,11.2,0c1.9-0.2,3.8-0.6,5.7-1c1.9-0.5,3.9-1.1,6.2-1.8c2.6-0.9,5.3-1.5,8-2c1.8-0.3,3.6-0.3,5.3-0.2
		c1.8,0.3,3.6,0.8,5.2,1.5c2.9,1.4,5.4,3.4,7.4,5.9c1.6,2,3,4.1,4.2,6.3c2.4,4,4.5,7.7,7.7,9.2c0.4,0.2,0.8,0.3,1.1,0.4
		c0.4,0.1,0.8,0.2,1.2,0.1c0.9,0,1.9-0.3,2.7-0.8c1-0.5,1.9-1.1,2.6-1.8C142.8,127.7,143.6,126.9,144.3,125.9z"/>
	<ellipse transform="matrix(0.9274 -0.3741 0.3741 0.9274 -20.8383 57.8937)" class="st9" cx="138.7" cy="82.6" rx="13" ry="17.9"/>
	<ellipse transform="matrix(0.9485 -0.3166 0.3166 0.9485 -19.4557 47.9967)" class="st5" cx="138" cy="83.9" rx="9.9" ry="13.6"/>
	<ellipse transform="matrix(0.9485 -0.3166 0.3166 0.9485 -19.4557 47.9967)" cx="138" cy="83.9" rx="5.7" ry="7.7"/>
	<path class="st5" d="M92.5,76.3c0,0,18-21.4,38.6-23.7s38.1,28.8,41.4,34.4c0,0-0.8-25.7-7.1-36.5S144,26.2,128,26.2
		C109.1,26.2,95.8,60.1,92.5,76.3z"/>
	<ellipse transform="matrix(0.6343 -0.7731 0.7731 0.6343 -33.5143 97.008)" class="st10" cx="85.8" cy="83.9" rx="3.2" ry="2.3"/>
	<ellipse transform="matrix(0.6343 -0.7731 0.7731 0.6343 -43.6329 91.8288)" class="st10" cx="75.3" cy="92" rx="3.2" ry="2.3"/>
	
		<ellipse transform="matrix(0.6343 -0.7731 0.7731 0.6343 -42.4502 101.2471)" class="st10" cx="85.8" cy="95.5" rx="3.2" ry="2.3"/>
	<circle class="st11" cx="68.8" cy="57.8" r="6.3"/>
	<circle class="st11" cx="61.8" cy="89.8" r="3.7"/>
	<circle class="st11" cx="54" cy="73.2" r="4.3"/>
	<path class="st11" d="M49.8,60c-2.6-2.9-4.9-6-7-9.2c-22,43.7-10.5,71.4-10.5,71.4C34.1,94.1,41.1,74.2,49.8,60z"/>
	<path class="st11" d="M98.4,11.9c0,0-33.3,2.8-51.8,31.9c2.1,3.5,4.5,6.9,7.3,10c17-23.4,37.7-27.3,37.7-27.3
		C91.6,22.1,98.4,11.9,98.4,11.9z"/>
	<path class="st12" d="M180.8,84.4c0,0,4,35.7-35.3,64.2c0,0,35.7-14.3,43.5-41.8S180.8,84.4,180.8,84.4z"/>
	<path class="st8" d="M130.2,56.2l-0.6,4.3c0,0,12.4,1.2,15.4,4c1.7,1.5,2.8,3.6,3.2,5.9c0,0,0.9-11-3.8-12.6S130.2,56.2,130.2,56.2
		z"/>
</g>
<g id="torso">
	<path class="st1" d="M148.2,261.4c-32-3.2-61.2-42.7-80.6-80.1c0,0,49.5,21.8,76.7-5c31.9-31.4,44.8-38.3,44.8-38.3
		s38.8,61.6,38.8,87.6s-9.2,35-23.9,40S170.6,263.6,148.2,261.4z"/>
	<path class="st13" d="M87.2,201c0,0,15.6,29.5,37.2,46.8s48.2,16.5,48.2,16.5"/>
	<path class="st13" d="M147.8,188.3c0,0,4.8,26.2-0.9,48.4s21.5,26.9,38.6,30.5"/>
	<path class="st0" d="M189.1,126.2c0,0,4.2-2,5.6,6.2c1.8,10.2,4.2,7.9,0.9,15.2c-2,4.3-16.9,5.9-31.8,29
		c-11.7,18.2-41.6,35.6-55.9,35.6c0,0-7.5-20.9-10-28.7c19.8,0,43.7-2.8,65.2-33.5C179.9,126.4,189.1,126.2,189.1,126.2z"/>
	<path class="st0" d="M98,183.6c-10.9,0.1-21.5-0.7-31.9-14.4l-6.7-11.9c-0.3,4.5-0.4,9.1-0.2,13.6c0.3,8,5.4,15.4,10.1,22.4
		c4.5,6.6,23.4,18.7,38.6,19L98,183.6z"/>
</g>
<path id="r-thigh" class="st1" d="M183.1,297.6c3,4.8-8.4,8.8-12.3,9.8c0,0-4.7,2.4-18.8-5c-7.4-3.9-44.1-21.4-17.3-60.7
	c21-30.9,34.9-34.8,49.1-40.1c42-15.6,65.9,51,13.4,68.2c-6.3,2.1-11.9,6.2-18.3,10.3C177.4,286.1,181.1,294.5,183.1,297.6z"/>
<g id="r-calf">
	<path class="st1" d="M160.9,359.2c-1.2,8.9-35.9-10.1-35.9-10.1s12.3-21.3,18.9-35.3c6.2-13.2,15.5-31,15.5-31l23.5,18.3
		C182.9,301,163.8,337.1,160.9,359.2z"/>
	<path class="st1" d="M166.1,360c-1.1,8.8,0.5,16-5.9,23s-13.8-14.3-24-23.8s-28.5-17.6-15.6-19.2c6.5-0.8,11.5-7,14.4-10.9
		c10.3-14,11.1-21,22.1-20c0,0,20.6-10.3,20.6,3.3C177.7,312.3,168.9,338,166.1,360z"/>
	<path class="st2" d="M168.8,353c0,0-2.7-22.1-15.1-28c-13.1-6.2-17.8,3.1-17.8,3.1l5.7-9.4c0,0,4.9-7.1,17-1.2
		c13.3,6.5,12,28.9,12,28.9L168.8,353z"/>
	<path class="st0" d="M116.2,357.5c-15.8-10.1-30.1-23.2-25.7-30.5c2.8-4.7,9.3-2.6,17,1.4s4,2.7,7.5,4.6c3.8-9,13-10,19.9-3.8
		c8.3,7.4,5,14.2,12.1,14.3s1-9,17.4-1.1c7.6,3.7,9.9,11.3,2.3,31.5c4.8,14.8-11.1,13.4-17.1,8.8
		C141.3,376.4,127.3,364.6,116.2,357.5z"/>
</g>
<g id="r-arm">
	<path class="st0" d="M188.6,198.4c0,0,9.5,1.8,19.2-9s8.7-16.6,3.9-20.4s-18.4-13.9-26.1-3.8S177.3,191.4,188.6,198.4z"/>
	<path class="st2" d="M192.6,158.8c0,0,22.6,18.3,34.8,28.3c12.2,10,2.9,25.2-9.4,22.9s-27.5-10.2-37.4-18.9
		S164.3,149.9,192.6,158.8z"/>
	<path class="st1" d="M188.6,198.4c0,0-4.7-18,5.3-27.8s17.7-1.6,17.7-1.6s-19.7-16.9-28.2-14.4s-13.6,8.4-13.3,19.3
		S175.7,191,188.6,198.4z"/>
</g>
<g id="r-hand">
	<g>
		<defs>
			<path id="SVGID_3_" d="M226.6,208.4c0,0-17.2,13.1-20.4,23.2s-7.6,13.4-9.8,11.1c-3-3.1,0.1-10.1-1.2-11.4
				c-3-2.7-7.7,6.7-11.6-0.1c-1.8-3.2,8.9-13.4,1.9-17.2c-6-3.2-9.6-6.2-6-9.9c3.4-3.5,11.4,0.4,20.6-8.5c0.4-0.4,3.5-7,3.9-7.4
				C215.4,175.8,230.8,190.4,226.6,208.4z"/>
		</defs>
		<clipPath id="SVGID_4_">
			<use xlink:href="#SVGID_3_"  style="overflow:visible;"/>
		</clipPath>
		<g class="st14">
			<path class="st5" d="M226.6,208.4c0,0-17.2,13.1-20.4,23.2s-7.6,13.4-9.8,11.1c-3-3.1,0.1-10.1-1.2-11.4c-3-2.7-7.7,6.7-11.6-0.1
				c-1.8-3.2,8.9-13.4,1.9-17.2c-6-3.2-9.6-6.2-6-9.9c3.4-3.5,11.4,0.4,20.6-8.5c0.4-0.4,3.5-7,3.9-7.4
				C215.4,175.8,230.8,190.4,226.6,208.4z"/>
			<path class="st6" d="M220.7,216.5c0,0,1.4-9.5-1.6-16.7s-12-10-17.5-6.9c-3.1,1.8-6.6,3-10.2,3.5"/>
		</g>
	</g>
</g>
</svg>
