<?xml version="1.0" encoding="utf-8"?>
<!-- Generator: Adobe Illustrator 26.0.0, SVG Export Plug-In . SVG Version: 6.00 Build 0)  -->
<svg version="1.1" id="Layer_1" xmlns="http://www.w3.org/2000/svg" xmlns:xlink="http://www.w3.org/1999/xlink" x="0px" y="0px"
	 viewBox="0 0 700 1708.1" style="enable-background:new 0 0 700 1708.1;" xml:space="preserve">
<style type="text/css">
	.st0{fill:#ADDFE7;}
	.st1{fill:#C7E9F4;}
	.st2{fill:#4D4D4D;}
	.st3{fill:#808080;}
	.st4{fill:#989898;}
	.st5{fill:#89F6E3;}
	.st6{fill:#EE3B24;}
	.st7{fill:#172EA0;}
	.st8{fill:#172EA1;}
	.st9{fill:#175884;}
	.st10{fill:#485AB5;}
	.st11{fill:#BE9C29;}
	.st12{fill:#F8CB35;}
	.st13{fill:#C1301D;}
	.st14{fill:#F37229;}
	.st15{fill:#D56424;}
	.st16{fill:#FFF3CB;}
	.st17{fill:#2541EA;}
</style>
<g>
	<g transform="matrix(1 0 0 1 0 -633)">
		<g>
			<g>
				<g>
					<g>
						<g>
							<g>
								<path class="st0" d="M505.2,2149.1c38.2,31.8,41.6,189.2-5.9,93c-19.2,110.4-37.4,146.1-69,14.2c-5.2,9.9-8.3,20.7-9.3,31.8
									c-0.4,3.8-3.8,6.3-7.3,5.9c-2.2-0.2-4.2-1.6-5.4-3.8c-20.6-43.4-4.4-97.8,12.1-141.4h84.8V2149.1z"/>
								<path class="st1" d="M488.5,2149.1c21.8,18.2,23.8,108-3.4,52.9c-5.2,21.9-7.9,44.8-18.4,64.8
									c-13.5-22.7-25.4-85.3-25.6-25.5c-22.4-26.1-11.5-63.2-0.6-92.2H488.5z"/>
								<path class="st2" d="M412.4,2152.1c34.9,12,72.7,12,107.4,0c5-1.6,7.5-6.7,5.9-11.7c0-0.2,0-0.2-0.2-0.4l-19.6-53.5h-79.7
									l-19.6,53.5c-2,4.5,0.2,9.9,4.8,11.7C411.8,2151.9,412.2,2152.1,412.4,2152.1z"/>
								<path class="st0" d="M195,2149.1c-38.2,31.8-41.6,189.2,6.1,93c19.2,110.4,37.4,146.1,69,14.2c5.2,9.9,8.3,20.7,9.3,31.8
									c0.4,3.8,3.8,6.3,7.3,5.9c2.2-0.2,4.2-1.6,5.4-3.8c20.6-43.4,4.4-97.8-12.1-141.4h-85V2149.1z"/>
								<path class="st1" d="M211.9,2149.1c-21.8,18.2-23.8,108,3.4,52.9c5.2,21.9,7.9,44.8,18.4,64.8
									c13.5-22.7,25.4-85.3,25.6-25.5c22.4-26.1,11.5-63.2,0.6-92.2H211.9z"/>
								<path class="st2" d="M287.8,2152.1c-34.9,12-72.7,12-107.4,0c-5-1.6-7.5-6.7-5.9-11.7c0-0.2,0-0.2,0.2-0.4l19.6-53.5h79.9
									l19.6,53.5c1.8,4.7-0.6,10.1-5.5,11.9C288,2152.1,288,2152.1,287.8,2152.1z"/>
								<path class="st3" d="M696.8,2019.4H3.2v36.5h693.5V2019.4z"/>
								<path class="st3" d="M3.6,2055.9c0,31.7,155.2,57.5,346.6,57.5c191.4,0,346.6-25.7,346.6-57.5s-155.2-57.5-346.6-57.5
									C158.8,1998.4,3.6,2024.2,3.6,2055.9z"/>
								<path class="st4" d="M3.6,2019.4c0,31.7,155.2,57.5,346.6,57.5c191.4,0,346.6-25.7,346.6-57.5s-155.2-57.5-346.6-57.5
									C158.8,1961.9,3.6,1987.6,3.6,2019.4z"/>
								<path class="st5" d="M585.8,1344.6l10.9-32.4h46.8c7.3,24.1,4.6,54.5,4.6,54.5h-0.2c0.8,12-3.2,24.5-9.7,35
									c-5,7.9-11.5,15-20,17.8c-8.5,2.8-19.2-0.4-22.8-8.9c-3-7.1-0.6-15.4,1.2-22.9c1.2-5.3,2-11.5,0.2-16.4
									c-3.2,3.9-5.4,8.7-6.1,13.6c-0.4,1.8-0.8,3.8-1.2,5.7c-0.6,2.4-3.2,3.8-5.5,3.2c-1.4-0.4-2.4-1.2-3-2.6
									C575.5,1377.9,580.6,1360,585.8,1344.6z"/>
								<path class="st6" d="M620.1,1336.9c10.1,0,20-1.6,29.5-5.1c3.6-1.4,6.1-4.3,7.3-7.9c0.8-3,8.3-29.8,9.7-41.5
									c9.5-81.6-2-159.6-33.5-225.5c-35.1-73.3-95.3-130.5-165.5-157.2l-16.4-6.3l4.4,188.8l4,3.4
									c77.3,66.9,125,129.9,124.6,236.2c0,5.1,3.2,9.5,7.9,11.3l3.4,1.2l0.8,0.2C603.8,1335.9,612,1336.7,620.1,1336.9z"/>
								<path class="st5" d="M119,1344.6l-10.9-32.4H61.3c-7.3,24.1-4.6,54.5-4.6,54.5c-0.8,12,3.2,24.5,9.7,35
									c5,7.9,11.5,15,20,17.8c8.5,2.8,19-0.4,22.8-8.9c3-7.1,0.6-15.4-1.2-22.9c-1.2-5.3-2-11.5-0.2-16.4
									c3.2,3.9,5.4,8.7,6.1,13.6c0.4,1.8,0.8,3.8,1.2,5.7c0.6,2.4,3.2,3.8,5.5,3.2c1.2-0.4,2.4-1.2,3-2.4
									C129.3,1377.9,124.1,1360,119,1344.6z"/>
								<path class="st6" d="M84.7,1336.9c-10.1,0-20-1.6-29.5-5.1c-3.6-1.4-6.3-4.3-7.3-7.9c-0.8-3-8.3-29.8-9.7-41.5
									c-9.5-81.6,2-159.6,33.5-225.5c34.9-73.3,95.3-130.5,165.5-157.2l16.4-6.3l-4.4,188.8l-4,3.4
									c-77.3,66.9-125,129.9-124.6,236.2c0,5.1-3.2,9.5-7.9,11.3l-3.4,1.2l-0.8,0.2C100.7,1335.9,92.8,1336.7,84.7,1336.9z"/>
								<path class="st6" d="M139.4,1349.9l14.3,168.7c4.4,50.6,44.6,89.1,92.9,89.1c48,0,88.2-38.1,92.9-88.1l15.7-167.5
									c14.7-62.4-35.5-122-104.4-123.6C180.2,1226.3,125.9,1285.7,139.4,1349.9z"/>
								<path class="st6" d="M156.8,1535.5l37.5,292.5h105.2l37.4-290.5L156.8,1535.5z"/>
								<path class="st5" d="M172.9,1971.4v26.7c0.6,7.1,3,13.2,8.9,17c9.7,6.5,38,9.3,66.4,9.1c28.7,0.2,56.7-2.2,66.4-9.1
									c5.7-4,8.3-10.1,8.7-17v-26.7H172.9z"/>
								<path class="st7" d="M309.2,1919.3c-2.6-11.5-10.7-58.3-10.7-58.3l-50.3,0.2l-50.5-0.2c0,0-8.3,47-10.7,58.3
									c-2.8,12-26.9,57.7-5.2,72.5c9.7,6.5,38,9.3,66.4,9.1c28.7,0.2,56.7-2.2,66.4-9.1C336.1,1976.9,311.8,1931.3,309.2,1919.3z"
									/>
								<path class="st8" d="M301.7,1880.5H194.3l-7.3-71.5h120.7L301.7,1880.5z"/>
								<path class="st9" d="M248,1874.8c-12.5,0-22.6-9.9-22.6-22.3v-0.2v-43.8h45.4v43.8C270.7,1864.7,260.4,1874.8,248,1874.8z"
									/>
								<path class="st10" d="M200.6,1940.6c7.9-2,15.5-4,22.8-4.9c7.3-1.2,14.9-1.8,22.4-2c7.5,0,14.9,0.6,22.4,1.6
									c7.5,1,14.9,3,22.8,4.9c-5.9-5.7-12.9-10.1-20.6-12.8c-7.9-3-16.2-4.3-24.6-4.1c-8.3,0-16.6,1.6-24.6,4.3
									C213.5,1930.5,206.5,1935.1,200.6,1940.6z"/>
								<path class="st5" d="M305.8,1811c-39.6,5.1-79.9,5.1-119.7,0c-6.5-0.6-11.5-6.5-10.7-13.2v-0.2c0.4-1.4,0.6-2.8,0.6-4.1
									c1-6.5,7.1-11.1,13.7-10.1c37.3,4.9,75.1,4.9,112.3,0c6.5-1,12.7,3.6,13.7,10.1c0.4,1.4,0.6,2.8,0.6,4.1
									C317.1,1804.1,312.6,1810.2,305.8,1811C306,1811,305.8,1811,305.8,1811z"/>
								<path class="st6" d="M561.4,1349.9l-14.3,168.7c-4.4,50.6-44.6,89.1-92.9,89.1c-48,0-88.2-38.1-92.9-88.1l-15.7-167.5
									c-14.7-62.4,35.5-122,104.4-123.6C521,1226.3,575.3,1285.7,561.4,1349.9z"/>
								<path class="st6" d="M544.4,1535.5L506.7,1828H401.3l-37.1-290.5L544.4,1535.5z"/>
								<path class="st5" d="M528.1,1971.4v26.7c-0.6,7.1-3,13.2-8.7,17c-9.7,6.5-38,9.3-66.4,9.1c-28.7,0.2-56.7-2.2-66.4-9.1
									c-5.7-4-8.3-10.1-8.7-17v-26.7H528.1z"/>
								<path class="st7" d="M392,1919.3c2.4-11.5,10.7-58.3,10.7-58.3l50.3,0.2l50.3-0.2c0,0,8.3,47,10.7,58.3
									c2.8,12,26.9,57.7,5.4,72.5c-9.7,6.5-38,9.3-66.4,9.1c-28.7,0.2-56.7-2.2-66.4-9.1C365.1,1976.9,389.2,1931.3,392,1919.3z"
									/>
								<path class="st8" d="M399.1,1880.5h107.8l7.1-71.5H393.4L399.1,1880.5z"/>
								<path class="st9" d="M452.8,1874.8c12.5,0,22.6-10.1,22.6-22.3c0,0,0,0,0-0.2v-43.8h-45.6v43.8
									C430.3,1864.7,440.4,1874.6,452.8,1874.8z"/>
								<path class="st10" d="M500.6,1940.6c-5.9-5.5-12.9-9.9-20.6-12.6c-7.9-2.8-16.1-4.3-24.6-4.3c-8.3,0-16.6,1.4-24.6,4.1
									c-7.7,2.8-14.9,7.1-20.6,12.8c7.9-2,15.5-4,22.8-4.9c7.3-1,14.9-1.6,22.4-1.6c7.5,0,14.9,0.6,22.4,2
									C485.5,1937,493.1,1938.6,500.6,1940.6z"/>
								<path class="st5" d="M395.4,1811c39.6,5.1,79.9,5.1,119.5,0c6.5-0.6,11.5-6.5,10.7-13.2v-0.2c-0.4-1.4-0.6-2.8-0.6-4.1
									c-1-6.5-7.3-11.1-13.9-10.1c-37.3,4.9-75.1,4.9-112.3,0c-6.5-1-12.9,3.6-13.9,10.1c-0.4,1.4-0.6,2.8-0.6,4.1
									c-0.8,6.5,3.8,12.6,10.5,13.4C395,1811,395.2,1811,395.4,1811z"/>
								<path class="st11" d="M245.6,924.1c15.9,26.5,75.1,40.9,106.8,48.2c82.8-11.7,182.9-81,30.1-82.6
									C352.8,896.5,229.7,873.1,245.6,924.1z"/>
								<path class="st6" d="M136.4,1314.3c-0.6-26.7,4.4-54.1,13.9-81.6l3.4-9.1c7.3-19,15.9-37.3,25.6-55.3c0.8-2,2-3.6,2.8-5.1
									c55.9-3.6,112.2-5.1,168-5.1c55.9,0,112.2,2,168,5.1c0.8,2,2,3.6,2.8,5.1c9.5,17.6,17.8,35.7,25.2,54.3c0.6,2,1.4,3.9,2,5.5
									c10.5,29,16.4,57.9,15.9,86.1v0.2c0,0.4,0,0.6,0,1c0,1.4,0,2.8-0.2,4.1c-1.4,9.3-5.5,18.2-11.9,25.1
									c-29.1,34.4-108.4,59-201.7,59c-93.3,0-172.4-24.7-201.7-59c-6.3-6.9-10.3-15.6-11.7-24.7c-0.2-1.6-0.2-3-0.2-4.5
									C136.4,1315.1,136.4,1314.7,136.4,1314.3L136.4,1314.3z"/>
								<path class="st12" d="M153,1216.8c-2,4.5-1.2,9.9,2,13.8c11.9,14.8,31.5,24.1,49.9,31c85.8,31,179.1,34,266.7,8.5
									c28.1-8.3,56.3-20.3,76.9-40.1c4.2-3.9,5.5-10.1,3.4-15.4c-5.5-13.6-11.9-27.1-18.6-40.1c-2.4-4.5-7.1-7.5-12.5-7.5H185.3
									c-5.2,0-9.9,3-12.5,7.5C165.3,1188.1,158.6,1202.2,153,1216.8z"/>
								<path class="st13" d="M165.5,1191.9c19.8,25.5,83.8,51.9,186.5,51.9h0.6c103,0,166.6-26.1,186.5-51.9c0,0-3.4-42.9-3.4-64.2
									c0-106.1-44.8-210.5-44.8-210.5H213.3c0,0-44.8,104.3-44.8,210.5C168.9,1149.2,165.5,1191.9,165.5,1191.9z"/>
								<path class="st14" d="M456.2,912.4c0,0-80.6-31.6-214.6,0v35.7L352,973.7l104.2-32.4V912.4z"/>
								<path class="st7" d="M312.7,1266.5c0,21.8,17.7,39.5,39.6,39.5c21.9,0,39.6-17.7,39.6-39.5c0-21.8-17.7-39.5-39.6-39.5
									C330.5,1227.1,312.7,1244.7,312.7,1266.5z"/>
								<path class="st5" d="M352.4,1241.7l-6.3,19h-20l16.2,11.8l-6.3,19.2l16.4-11.8l16.2,11.8l-6.1-19.2l16.2-11.8h-20.2
									L352.4,1241.7z"/>
								<path class="st12" d="M204.4,902.6c7.1-19.6,32.5-30.8,56.7-36.3c19.8-4.7,40.2-6.9,60.6-8.7c10.1-1.2,20.8-2,30.5-0.2
									c9.7-2,20.4-1,30.5,0.2c20.4,2,40.8,4.1,60.6,8.7c24.2,5.5,49.5,16.8,56.7,36.3c5.7,15.4-2.2,32.8-15.7,44.2
									c-13.5,11.5-32.3,18.4-51.3,23.3c-25.4,6.3-51.3,9.5-77.5,9.3c-1.2,0-2.4,0-3.6-0.2c-1.2,0.2-2.4,0.2-3.6,0.2
									c-26.2,0.2-52.1-3-77.5-9.3c-19-4.9-37.8-11.8-51.3-23.3C206.1,935.4,198.6,918,204.4,902.6z M256.5,924.9
									c11.9,20.9,61.6,36.3,88,41.3c2.8,0.4,5.4,1.2,7.9,2.2c2.6-1,5.2-1.6,7.9-2.2c26-4.9,76.1-20.3,88-41.3
									c16-28-47.4-32.2-69-30.8c-9.1,0.6-18,1.8-26.9,1.2c-8.9,1-17.8-0.6-27.1-1.2C303.8,892.7,240.4,896.8,256.5,924.9z"/>
								<path class="st13" d="M410.4,1385.4c-9.7,4.1-19.8,7.7-30.1,10.5c-10.1,2.6-20.4,3.8-30.9,3.8c-2.6,0-5.2,0-7.7-0.2
									c-2.4-0.2-5.2-0.2-7.7-0.8c-5.2-0.6-10.3-1.6-15.5-2.8c-10.3-2.8-20.2-6.1-29.9-10.1c8.5,6.9,18,12.2,28.3,16
									c5.2,1.8,10.5,3.4,16,4.3c5.5,1,11.1,1.4,16.6,1.4c2.8,0,5.5-0.2,8.3-0.2c2.8,0,5.5-0.6,8.3-1.2l7.9-2
									c2.8-0.8,5.2-1.6,7.9-2.4C392.2,1397.7,401.9,1392.4,410.4,1385.4z"/>
								<path class="st14" d="M202.4,724.4c0-50.6,67-91.4,149.6-91.4c82.6,0,149.8,40.9,149.8,91.4c0,21.1-11.9,40.7-31.5,56.1
									c-36.7,39.1-72.7,116.1-35.1,155.4H269.4c37.4-39.7,0.6-117.3-36.1-156C213.9,764.5,202.4,745.2,202.4,724.4z"/>
								<path class="st15" d="M243.2,727.2c2.8-18.8,18.4-31,35.3-29c48.7,6.1,98.1,6.1,146.8,0c16.8-2,32.5,10.7,35.3,29
									c3,18.2-9.3,35.4-27.5,38.3c-0.2,0-0.4,0-0.8,0.2c-53.3,6.5-107.2,6.5-160.3,0c-18.4-2.6-31.3-19.7-28.7-38.1
									C243.2,727.4,243.2,727.4,243.2,727.2z"/>
								<path class="st7" d="M305,806c0,5.9,5,10.9,10.9,10.9h72.3c5.9,0.4,11.1-4.1,11.5-10.3c0.4-6.1-4.2-11.1-10.3-11.5
									c-0.4,0-0.8,0-1.4,0h-72.3C309.8,795.1,305,800.1,305,806z"/>
								<path class="st5" d="M305,806h94.1c0-5.9-5-10.9-10.9-10.9l0,0h-72.3C309.8,795.1,305,799.9,305,806L305,806z"/>
								<path class="st12" d="M271.9,758.4c53.3,6.1,107,6.1,160.3,0c18.4-2,31.5-18.2,28.3-34.6c-3-16.6-18.4-28-35.3-26.1
									c-48.7,5.5-98.1,5.5-146.8,0c-16.8-2-32.3,9.5-35.3,26.1C240.4,740.6,253.1,756.6,271.9,758.4z"/>
								<path class="st16" d="M430.8,747.1c11.3-1.4,19.2-11.1,17.8-21.3c-1.8-10.5-11.5-17.8-22-16.4c-49.5,5.5-99.7,5.5-149.4,0
									c-10.5-1.2-20.2,6.1-22,16.4c-1.6,10.5,6.3,20.1,17.8,21.3C325.6,753.1,378.5,753.1,430.8,747.1z"/>
								<path class="st17" d="M418,729.4c-0.6-4.9-5.2-8.5-10.1-7.9c0,0,0,0-0.2,0c-5,0.2-8.7,4.3-8.5,9.3v0.2
									c0.6,5.1,5.2,8.7,10.3,8.1C414.4,738.7,418.2,734.3,418,729.4z"/>
								<path class="st17" d="M361.5,732.3c-0.2-4.9-4.4-8.9-9.5-8.9c-5-0.2-9.1,3.8-9.3,8.7v0.2c0,5.1,4.2,9.3,9.3,9.3
									C357.1,741.8,361.3,737.7,361.5,732.3z"/>
								<path class="st17" d="M305,731c0-5.1-4-9.5-9.3-9.5c-4.8,0-8.7,3.4-9.5,7.9c-0.4,4.9,3.2,9.1,7.9,9.7c0.2,0,0.4,0,0.6,0
									c5,0.8,9.5-2.8,10.1-7.5C304.8,731.3,305,731.2,305,731z"/>
							</g>
						</g>
					</g>
				</g>
			</g>
		</g>
	</g>
</g>
</svg>
