<?xml version="1.0" encoding="utf-8"?>
<!-- Generator: Adobe Illustrator 25.2.0, SVG Export Plug-In . SVG Version: 6.00 Build 0)  -->
<svg version="1.1" id="Layer_1" xmlns="http://www.w3.org/2000/svg" xmlns:xlink="http://www.w3.org/1999/xlink" x="0px" y="0px"
	 viewBox="0 0 350 602.4" style="enable-background:new 0 0 350 602.4;" xml:space="preserve">
<style type="text/css">
	.st0{fill:#ADDFE7;}
	.st1{fill:#C7E9F4;}
	.st2{fill:#4D4D4D;}
	.st3{fill:#808080;}
	.st4{fill:#989898;}
	.st5{fill:#EE3B24;}
	.st6{fill:#89F6E3;}
	.st7{fill:#172EA0;}
	.st8{fill:#172EA1;}
	.st9{fill:#175884;}
	.st10{fill:#485AB5;}
	.st11{fill:#F8CB35;}
	.st12{fill:#C1301D;}
	.st13{fill:#D53520;}
	.st14{fill:#BE9C29;}
	.st15{fill:#F37229;}
	.st16{fill:#D56424;}
	.st17{fill:#FFF3CB;}
	.st18{fill:#2541EA;}
</style>
<g id="ride">
	<path class="st0" d="M96.7,505.2c-19.3,16.1-21,95.8,3,47.1c9.7,55.9,18.9,74,34.8,7.2c2.6,5,4.2,10.5,4.7,16.1
		c0.2,1.9,1.9,3.2,3.7,3c1.1-0.1,2.1-0.8,2.6-1.9c10.4-22,2.2-49.5-6.1-71.6L96.7,505.2z"/>
	<path class="st1" d="M105.1,505.2c-11,9.2-12,54.6,1.7,26.8c2.6,11.1,4,22.7,9.3,32.8c6.8-11.5,12.8-43.2,12.9-12.9
		c11.3-13.2,5.8-32,0.3-46.7H105.1z"/>
	<path class="st2" d="M143.5,506.7L143.5,506.7c-17.6,6.1-36.7,6.1-54.2,0l0,0c-2.5-0.8-3.8-3.5-3-5.9c0-0.1,0-0.1,0.1-0.2l9.9-27.1
		h40.2l9.9,27.1c1,2.3-0.1,5-2.4,6C143.8,506.6,143.6,506.6,143.5,506.7z"/>
	<path class="st0" d="M253.2,505.2c19.3,16.1,21,95.8-3.1,47.1c-9.7,55.9-18.9,74-34.8,7.2c-2.6,5-4.2,10.5-4.7,16.1
		c-0.2,1.9-1.9,3.2-3.7,3c-1.1-0.1-2.1-0.8-2.6-1.9c-10.4-22-2.2-49.5,6.1-71.6L253.2,505.2z"/>
	<path class="st1" d="M244.7,505.2c11,9.2,12,54.6-1.7,26.8c-2.6,11.1-4,22.7-9.3,32.8c-6.8-11.5-12.8-43.2-12.9-12.9
		c-11.3-13.2-5.8-32-0.3-46.7H244.7z"/>
	<path class="st2" d="M206.4,506.7L206.4,506.7c17.6,6.1,36.7,6.1,54.2,0l0,0c2.5-0.8,3.8-3.5,3-5.9c0-0.1,0-0.1-0.1-0.2l-9.9-27.1
		h-40.3l-9.9,27.1c-0.9,2.4,0.3,5.2,2.8,6.1C206.3,506.7,206.3,506.7,206.4,506.7z"/>
	<rect y="439.5" class="st3" width="350" height="18.5"/>
	<ellipse class="st3" cx="174.9" cy="458" rx="174.9" ry="29.1"/>
	<ellipse class="st4" cx="174.9" cy="439.5" rx="174.9" ry="29.1"/>
</g>
<g id="body">
	<path class="st5" d="M76.1,301.4c0,0-87.8,47.3-59.7,115.1l78.1-16.9L76.1,301.4z"/>
	<path class="st5" d="M272.9,301.4c0,0,85.6,47.3,58.3,115.1l-76.1-16.9L272.9,301.4z"/>
	<path class="st5" d="M260,299.6l61.3,59.9c18.3,18,20.4,46,5,64.8l0,0c-15.4,18.7-43.2,22-64.3,7.8l-70.5-47.9
		c-29-14.4-36.2-53.1-14.8-80.5l0,0C198.7,275.6,239.3,273.5,260,299.6z"/>
	<polygon class="st5" points="289,440.9 139.7,439.1 133.6,386.4 277.5,350.7 	"/>
	<path class="st6" d="M106.6,376l0.1,2.1c5.7,1.8,10.8,4.1,13.2,4.6c5.3,1.1,26.6,4.6,26.6,4.6l0.7,25.4l0.9,25.4
		c0,0-21.2,4.8-26.2,6.2c-2.3,0.6-7.4,3.4-12.9,5.4l0.1,2.1l-9.3,0.3l-2.7,0.1l0,0c-3.2-0.2-6-1.3-7.9-4.2c-3.1-4.8-4.8-19-5.2-33.4
		C83.3,400.2,84,386,87,381.1c1.6-2.7,4.4-4.5,7.6-4.7l0,0L106.6,376z"/>
	<path class="st7" d="M130.5,382.5c5.3,1.1,26.6,4.6,26.6,4.6l0.7,25.4l0.9,25.4c0,0-21.2,4.8-26.2,6.2c-5.4,1.6-25.7,14.4-32.8,3.7
		c-3.1-4.8-4.8-19-5.2-33.4c-0.6-14.5,0.1-28.7,3.1-33.6C103.9,369.7,125,381.3,130.5,382.5z"/>
	<polygon class="st8" points="148.2,385.5 149.9,439.9 182.4,442.5 180.5,381.6 	"/>
	<path class="st9" d="M151.6,412.6L151.6,412.6c0.2,6.4,5,11.2,10.6,11.1l19.9-0.6l-0.7-22.9l-19.9,0.6
		C155.9,401,151.4,406.3,151.6,412.6z"/>
	<path class="st10" d="M122.5,437.5c2.5-3.1,4.3-6.7,5.4-10.6c1.2-4,1.7-8.2,1.6-12.4c-0.1-4.2-0.9-8.3-2.3-12.3
		c-1.3-3.8-3.4-7.3-6.2-10.2c1,4,2,7.7,2.6,11.5c0.6,3.7,1,7.5,1.1,11.2c0.1,3.8,0,7.5-0.5,11.3
		C123.9,429.9,123.3,433.7,122.5,437.5z"/>
	<path class="st6" d="M179.6,382.6c-1.7,20.1-1.1,40.4,1.9,60.3c0.5,3.5,3.4,5.9,6.3,5.2c0.6-0.2,1.2-0.3,1.9-0.3
		c3-0.6,4.9-3.8,4.4-7.1c-2.8-18.8-3.4-37.8-1.8-56.7c0.3-3.4-1.8-6.4-4.8-6.8c-0.6-0.1-1.2-0.2-1.9-0.2
		C182.7,376.5,179.9,379.1,179.6,382.6z"/>
	<path class="st5" d="M281.2,382.9c-35.5,3.3-70.8,5-106.2,5s-70.8-1.7-106.2-5c-3.6-23.7-0.8-47.9,6.4-72.5l0,0
		c0.3-1,0.7-2.2,1-3.4c3.6-11.5,7.9-22.9,12.7-34c0.4-1,1-2.1,1.4-3.3c28.2-2.1,56.6-3.3,84.8-3.3s56.6,1,84.8,3.3
		c0.4,1,1,2.1,1.4,3.3c4.9,11.3,9.2,22.8,12.9,34.5c0.6,1.9,1.1,3.8,1.7,5.7C282.3,336.9,284.6,360.2,281.2,382.9z"/>
	<path class="st5" d="M89.4,303.2l-61.3,59.9c-18.3,18-20.4,46-5,64.8l0,0c15.4,18.7,43.2,22,64.3,7.8l70.5-47.9
		c29-14.4,36.2-53.1,14.8-80.5l0,0C150.7,279.2,110.1,277.2,89.4,303.2z"/>
	<path class="st11" d="M275.8,296.2c1,2.3,0.6,5-1,7c-6,7.5-15.9,12.2-25.2,15.7c-43.3,15.7-90.4,17.2-134.6,4.3
		c-14.2-4.2-28.4-10.3-38.8-20.3c-2.1-2-2.8-5.1-1.7-7.8c2.8-6.9,6-13.7,9.5-20.3c1.2-2.3,3.6-3.8,6.2-3.8h169.2
		c2.6,0,5,1.5,6.3,3.8C269.6,281.7,272.9,288.8,275.8,296.2z"/>
	<polygon class="st5" points="60.4,444.5 209.7,439.4 214.6,386.5 69.9,354.1 	"/>
	<path class="st12" d="M268.1,283.6c-10,12.9-42.3,26.3-94.1,26.3h-0.3c-52,0-84.1-13.2-94.1-26.3c0,0,1.7-21.7,1.7-32.5
		c0-53.7,47.4-96.6,47.4-96.6h90.5c0,0,47.4,42.8,47.4,96.6C266.4,262,268.1,283.6,268.1,283.6z"/>
	<path class="st13" d="M226.4,139.9c0,0,50.2,9.9,74.3,95.4l-42.6,6.8c0,0-21.7-81.1-45-83.2L226.4,139.9z"/>
	<path class="st5" d="M126.1,139.9c0,0-48.1,5.6-77.3,88.7L88.6,239c0,0,26.6-79,48.7-79L126.1,139.9z"/>
	<path class="st6" d="M235.3,196.5c5.1,0.4,10.4,1.5,14.2,5.1s4.7,10.7,0.8,14c-3.3,2.9-8.3,2.1-12.5,1c-8.2-2.1-8.5-4.6-16.7-6.7
		c-2.8-0.7-17-5.3-17-5.3s4.3-4.3,8.6-5.8C219.9,196.2,227.6,195.8,235.3,196.5z"/>
	<path class="st13" d="M248.6,191.9c4.2,6.1,8.2,15.9,1.7,21.4c-4.2,3.5-10.4,2.4-15.9,2.1c-24.2-1.7-63.3-7.4-86.9-12.8
		c-9.7-2.2-13.2-2.6-23.1-0.7s-19.3,9.7-19.9,20.2c20.2,1.7,31,6.7,46.6,20.2s40.3,28.5,59.2,36c14.2,5.7,29.8,6.8,45.1,6.4
		c13.6-0.3,23.1-1.8,33.1-11.1c10.7-10,13.6-26.6,11.3-41.2s-10.7-28.6-17.7-41.6L248.6,191.9z"/>
	<rect x="113.1" y="131.4" class="st14" width="121.4" height="23.1"/>
	<path class="st15" d="M121.4,144.7c0,0,40.7-14.6,108.3,0v16.6L174,173.1l-52.6-15L121.4,144.7L121.4,144.7z"/>
	<path class="st11" d="M169.8,169.2c1.8,0.4,3.9,0.7,5.3,1.8s2,3.1,0.6,4.2c-1.1,0.6-2.4,0.9-3.6,0.8c-13.2,0.1-26.3-1.5-39.1-4.7
		c-9.6-2.5-19-6-25.9-11.8s-10.8-14.6-7.9-22.4c3.6-9.9,16.4-15.6,28.6-18.3c10-2.4,20.3-3.5,30.6-4.4c6.2-0.7,12.9-1.2,18.6,0.8
		s10.3,7.5,8.1,12.2c-1.7,3.5-6.4,5.4-11,6s-9.2-0.3-13.9-0.6c-10.8-0.7-42.8,1.4-34.8,15.6C131.4,158.9,156.7,166.7,169.8,169.2z"
		/>
	<path class="st11" d="M177.9,169.2c-1.8,0.4-3.9,0.7-5.3,1.8s-1.9,3.1-0.6,4.2c1.1,0.6,2.4,0.9,3.6,0.8c13.2,0.1,26.3-1.5,39.1-4.7
		c9.6-2.5,19-6,25.9-11.8s10.9-14.6,7.9-22.4c-3.6-9.9-16.4-15.6-28.6-18.3c-10-2.4-20.3-3.5-30.6-4.4c-6.3-0.7-12.9-1.2-18.6,0.8
		s-10.3,7.5-8.1,12.2c1.7,3.5,6.4,5.4,11,6s9.2-0.3,13.9-0.6c10.9-0.7,42.8,1.4,34.8,15.6C216.2,158.9,191.1,166.7,177.9,169.2z"/>
	<path class="st5" d="M98.6,192.6c-6.8,9.9-6.3,17.9-1.5,20.6s10.4,2.4,15.9,2.1c24.2-1.7,53.7-13.1,77.3-18.4
		c9.7-2.2,19.6-3.2,29.5-1.2s19.3,9.7,19.9,20.2c-20.2,1.7-37.7,12.9-53.1,26.4s-30.6,28.5-49.5,36c-14.2,5.7-29.8,6.8-45,6.4
		c-13.6-0.3-22.4-1.8-32.4-11.1c-10.7-10-13.6-26.6-11.3-41.2s10.7-28.6,17.6-41.6L98.6,192.6z"/>
	<path class="st6" d="M111.7,199.8c-5.1,0.1-10.6,0.8-14.5,4.2s-5.4,10.3-1.7,13.9c3.2,3.1,8.2,2.5,12.5,1.8c8.3-1.5,8.8-4,17.1-5.6
		c2.8-0.6,17.2-4.2,17.2-4.2s-4-4.6-8.2-6.4C127.1,200.6,119.2,199.7,111.7,199.8z"/>
	<circle class="st7" cx="174.9" cy="321.4" r="20"/>
	<polygon class="st6" points="174.9,308.8 178.1,318.4 188.3,318.4 180,324.4 183.2,334.1 174.9,328.1 166.7,334.1 169.9,324.4 
		161.6,318.4 171.8,318.4 	"/>
	<path class="st12" d="M121.3,369.9c8.8,2.1,17.5,3.9,26.5,5.3c9,1.3,18.1,1.9,27.3,2c2.2,0,4.6,0,6.8-0.1s4.6-0.1,6.8-0.4
		c4.6-0.3,9-0.8,13.6-1.4c9-1.2,17.8-3.2,26.5-5.1c-8,3.7-16.4,6.4-25.1,8.1c-4.6,1-9.2,1.7-14.1,2.2c-4.9,0.5-9.7,0.7-14.6,0.7
		c-2.4,0-4.9-0.1-7.3-0.1s-4.9-0.3-7.3-0.5l-7.1-1c-2.4-0.4-4.6-0.8-7.1-1.2C137.8,376.3,129.4,373.5,121.3,369.9z"/>
	<path class="st6" d="M242.2,376.3l-0.1,2.1c-5.7,1.8-10.9,4.1-13.2,4.6c-5.3,1.1-26.6,4.6-26.6,4.6l-0.7,25.4l-0.9,25.4
		c0,0,21.2,4.8,26.2,6.2c2.4,0.6,7.4,3.4,12.9,5.4l-0.1,2.1l9.3,0.3l2.7,0.1l0,0c3.2-0.2,6-1.3,7.9-4.2c3.1-4.8,4.8-19,5.1-33.4
		c0.6-14.5-0.1-28.7-3.1-33.6c-1.6-2.7-4.4-4.5-7.6-4.7l0,0L242.2,376.3z"/>
	<path class="st7" d="M218.3,382.8c-5.3,1.1-26.6,4.6-26.6,4.6l-0.7,25.4l-0.9,25.4c0,0,21.2,4.8,26.2,6.2
		c5.4,1.6,25.7,14.4,32.8,3.7c3.1-4.8,4.8-19,5.1-33.4c0.6-14.5-0.1-28.7-3.1-33.6C244.9,370,223.8,381.6,218.3,382.8z"/>
	<polygon class="st8" points="200.6,385.9 198.9,440.2 166.4,442.8 168.3,381.9 	"/>
	<path class="st9" d="M197.1,412.9L197.1,412.9c-0.2,6.4-5,11.3-10.6,11.1l-19.9-0.6l0.7-22.9l19.9,0.6
		C192.9,401.3,197.4,406.6,197.1,412.9z"/>
	<path class="st10" d="M226.3,437.9c-2.5-3.1-4.3-6.8-5.4-10.6c-1.2-4-1.7-8.2-1.6-12.4c0.1-4.2,0.9-8.3,2.2-12.3
		c1.3-3.8,3.4-7.3,6.2-10.2c-1,4-2,7.7-2.6,11.5c-0.6,3.7-1,7.5-1.1,11.3c-0.1,3.8,0,7.5,0.5,11.3
		C224.9,430.2,225.5,434,226.3,437.9z"/>
	<path class="st6" d="M169.2,382.9c1.7,20.1,1.1,40.4-1.9,60.3c-0.5,3.5-3.4,5.9-6.3,5.2c-0.6-0.2-1.2-0.3-1.9-0.3
		c-3-0.6-4.9-3.8-4.4-7.1c2.8-18.8,3.4-37.8,1.8-56.7c-0.3-3.3,1.8-6.3,4.8-6.8c0.6-0.1,1.2-0.2,1.9-0.2
		C166.1,376.9,168.9,379.4,169.2,382.9z"/>
</g>
<g id="head">
	<path class="st15" d="M249.5,46.3C249.5,20.7,215.7,0,174,0S98.4,20.7,98.4,46.3c0,10.7,6,20.6,15.9,28.4
		c18.5,19.8,36.7,58.8,17.7,78.7h83.7c-18.9-20.1-0.3-59.4,18.2-79C243.7,66.6,249.5,56.8,249.5,46.3z"/>
	<path class="st16" d="M228.9,47.7c-1.4-9.5-9.3-15.7-17.8-14.7c-24.6,3.1-49.5,3.1-74.1,0c-8.5-1-16.4,5.4-17.8,14.7
		c-1.5,9.2,4.7,17.9,13.9,19.4c0.1,0,0.2,0,0.4,0.1c26.9,3.3,54.1,3.3,80.9,0c9.3-1.3,15.8-10,14.5-19.3
		C228.9,47.8,228.9,47.8,228.9,47.7z"/>
	<path class="st7" d="M197.7,87.6c0,3-2.5,5.5-5.5,5.5h-36.5c-3,0.2-5.6-2.1-5.8-5.2s2.1-5.6,5.2-5.8c0.2,0,0.4,0,0.7,0h36.5
		C195.3,82.1,197.7,84.6,197.7,87.6z"/>
	<path class="st6" d="M197.7,87.6h-47.5c0-3,2.5-5.5,5.5-5.5c0,0,0,0,0,0h36.5C195.3,82.1,197.7,84.5,197.7,87.6
		C197.7,87.6,197.7,87.6,197.7,87.6z"/>
	<path class="st11" d="M214.4,63.5c-26.9,3.1-54,3.1-80.9,0c-9.3-1-15.9-9.2-14.3-17.5l0,0c1.5-8.4,9.3-14.2,17.8-13.2
		c24.6,2.8,49.5,2.8,74.1,0c8.5-1,16.3,4.8,17.8,13.2l0,0C230.3,54.5,223.9,62.6,214.4,63.5z"/>
	<path class="st17" d="M134.2,57.8c-5.7-0.7-9.7-5.6-9-10.8c0.9-5.3,5.8-9,11.1-8.3c25,2.8,50.3,2.8,75.4,0
		c5.3-0.6,10.2,3.1,11.1,8.3c0.8,5.3-3.2,10.2-9,10.8C187.3,60.8,160.6,60.8,134.2,57.8z"/>
	<path class="st18" d="M140.7,48.8c0.3-2.5,2.6-4.3,5.1-4c0,0,0,0,0.1,0c2.5,0.1,4.4,2.2,4.3,4.7c0,0,0,0.1,0,0.1
		c-0.3,2.6-2.6,4.4-5.2,4.1C142.5,53.5,140.6,51.3,140.7,48.8z"/>
	<path class="st18" d="M169.2,50.3c0.1-2.5,2.2-4.5,4.8-4.5c2.5-0.1,4.6,1.9,4.7,4.4c0,0,0,0.1,0,0.1c0,2.6-2.1,4.7-4.7,4.7
		C171.4,55.1,169.3,53,169.2,50.3L169.2,50.3z"/>
	<path class="st18" d="M197.7,49.6c0-2.6,2-4.8,4.7-4.8c2.4,0,4.4,1.7,4.8,4c0.2,2.5-1.6,4.6-4,4.9c-0.1,0-0.2,0-0.3,0
		c-2.5,0.4-4.8-1.4-5.1-3.8C197.8,49.8,197.7,49.7,197.7,49.6z"/>
</g>
</svg>
