<?xml version="1.0" encoding="utf-8"?>
<!-- Generator: Adobe Illustrator 25.2.0, SVG Export Plug-In . SVG Version: 6.00 Build 0)  -->
<svg version="1.1" id="Layer_1" xmlns="http://www.w3.org/2000/svg" xmlns:xlink="http://www.w3.org/1999/xlink" x="0px" y="0px"
	 viewBox="0 0 305.5 579.3" style="enable-background:new 0 0 305.5 579.3;" xml:space="preserve">
<style type="text/css">
	.st0{fill:#F473C2;}
	.st1{fill:#F4A8D7;}
	.st2{fill:#F486CA;}
	.st3{fill:#C15B9A;}
	.st4{fill:#491D87;}
	.st5{fill:none;stroke:#66419B;stroke-width:5.18;stroke-linecap:round;stroke-linejoin:round;}
	.st6{fill:#66419B;}
	.st7{fill:#989898;}
	.st8{opacity:0.5;fill:#68DFE7;enable-background:new    ;}
	.st9{fill:#808080;}
	.st10{fill:#DB67AE;}
	.st11{fill:#FFFFFF;}
	.st12{fill:#7A0406;}
	.st13{fill:#CD539D;}
	.st14{opacity:0.5;fill:#FFFFFF;enable-background:new    ;}
	.st15{fill:#4AA6C0;}
	.st16{fill:#A54E83;}
</style>
<g id="legs">
	<path class="st0" d="M188.1,574.8L188.1,574.8c-12.2-2-22.2-13.6-22.2-26V429.2l44.4,7.4v119.6
		C210.2,568.5,200.3,576.8,188.1,574.8z"/>
	<path class="st0" d="M104.8,540.5c4.9,5,10,7.7,15.3,8.6c2.6,0.4,5.3,0.5,7.9,0.3c1.3-0.1,2.6-0.4,3.9-0.6c0.8-0.3,1.6-0.6,2.3-1.1
		c2.9-1.8,5.8-5.8,7.8-10.7c1-2.5,1.8-5.1,2.3-7.8c0.3-1.4,0.5-2.9,0.6-4.3c0.3-1.5,0.4-3.1,0.4-4.6c0.3-6.6,0.1-13.2-0.6-19.8
		c-0.1-1.7-0.4-3.5-0.5-5.3l-0.6-5.6c-0.2-2.2-0.4-4-0.5-6l-0.5-5.9c-1.2-15.6-2.3-31.1-3.2-46.7l0,0c-0.7-13.8,8.5-25.7,20.5-26.6
		s22.5,9.7,23.2,23.5v3.1c-0.9,15.3-2,30.6-3.2,46l-0.5,5.7c-0.1,1.8-0.4,3.9-0.4,5.6l-0.4,6l-0.4,6.3c-0.5,8.9-1.9,17.8-4,26.4
		c-0.6,2.2-1.2,4.5-1.9,6.7s-1.6,4.5-2.4,6.7c-1.9,4.5-4.3,8.8-7.1,12.8c-2.8,4-6.1,7.6-9.8,10.7c-3.9,3.3-8.4,5.6-13.4,6.8
		c-2.5,0.6-5.1,0.8-7.6,0.7c-2.1-0.2-4.2-0.5-6.2-1.1c-4.1-1.1-8.1-2.8-11.7-5.2c-3.7-2.4-6.8-5.6-9.3-9.2c-2.5-3.6-4.4-7.7-5.5-12
		c-0.6-1.9,0.4-3.9,2.3-4.6C102.8,539.3,104,539.7,104.8,540.5L104.8,540.5z"/>
	<path class="st0" d="M295.9,549.5c-3.4,0.4-6.7,1.5-9.6,3.4c-3.1,2.1-6,4.4-8.8,6.9c-3.6,3.1-7.5,5.9-11.6,8.3
		c-2.8,1.5-5.8,2.7-8.8,3.4c-1.8,0.4-3.6,0.6-5.5,0.7c-1.7,0-3.4,0-5-0.2c-6.4-0.6-12.5-2.6-18-5.9c-5-2.9-9.5-6.5-13.4-10.7
		c-3.7-3.9-7-8.3-9.6-13c-2.5-4.5-4.5-9.3-6.1-14.2c-2.9-9-4.8-18.4-5.5-27.8c-0.4-4.4-0.8-8.9-0.9-13l-0.1-2.7l-0.3-3l-0.6-6
		c-1.5-16-2.9-32.2-4-48.2c-0.9-14.2,10.5-26.5,25.8-27.4s28.2,9.9,29.1,24.2v3.1c-1.1,16.3-2.4,32.6-4,49l-0.6,6.2l-0.3,3l-0.5,3.3
		c-0.6,3.9-1.1,7.6-1.5,11.2c-0.8,6.8-1,13.7-0.5,20.5c0.3,3,0.8,6,1.5,9c0.8,2.8,1.8,5.5,3.2,8c1.3,2.4,2.9,4.5,4.9,6.4
		c1.6,1.6,3.4,2.8,5.5,3.7c0.5,0.1,0.9,0.3,1.4,0.6c0.3,0.2,0.6,0.3,0.9,0.3c1.2,0.1,2.4,0,3.5-0.3c3-0.6,6.7-2.2,11-3.7
		c4.6-1.9,9.3-3.3,14.2-4.2c2.7-0.5,5.4-0.6,8.1-0.3c2.7,0.2,5.3,0.9,7.8,2c1.9,0.8,2.7,3,1.9,4.8c0,0.1-0.1,0.1-0.1,0.2
		c-0.7,1.2-1.8,2-3.2,2.2L295.9,549.5z"/>
	<path class="st1" d="M108.8,558.9c1.6-1.4,3.4-2.5,5.3-3.5c1.9-1,4-1.7,6.1-2.1c4.2-0.8,8.6-0.7,12.8,0.3c3.8,1,7.6,2.2,11.3,3.6
		c1.7,0.7,3.4,1.3,4.7,1.7s2.7,0.7,3,0.4c0.9-0.9,1.8-1.9,2.6-2.9c1.5-2.3,2.7-4.8,3.5-7.4c2.1-6,2.8-12.5,3.2-19.9
		c0.2-7.5,0-15-0.7-22.4c-0.4-3.9-0.7-7.8-1.1-11.8c-0.2-2.2-0.4-4.3-0.5-6.4l-0.5-6.2c-1.2-16.5-2.3-33.1-3-49.8l0,0
		c-0.6-12.7,7.8-23.4,18.8-24.1s20.4,8.9,21,21.6v2.6c-0.9,16.4-1.9,32.8-3,49.2l-0.5,6.1c-0.1,2.1-0.4,4.2-0.4,6
		c-0.2,4.2-0.5,8.5-0.7,12.9c-0.6,9.1-1.8,18.1-3.6,27c-1.8,9-4.9,18.6-9.8,27.1c-2.6,4.5-5.8,8.7-9.6,12.2c-2.2,2-4.7,3.5-7.4,4.7
		c-1.5,0.6-3,1-4.6,1.3c-0.8,0.1-1.6,0.2-2.4,0.1c-0.9,0.1-1.7,0-2.6-0.3c-2.6-0.5-5.1-1.5-7.4-2.9c-1.9-1.1-3.5-2.2-5.1-3.3
		c-3-2.1-5.8-4.2-8.6-5.7c-2.7-1.5-5.6-2.6-8.6-3.2c-1.5-0.3-3.1-0.3-4.6-0.1c-1.6,0.1-3.2,0.4-4.7,0.8h-0.1c-1.6,0.4-3-0.7-3.4-2.5
		C107.4,561,107.7,559.6,108.8,558.9z"/>
	<path class="st2" d="M266.3,561.5c-3.6-0.1-7.1,0.7-10.3,2.1c-3.2,1.6-6.3,3.6-9.1,5.9c-1.5,1.1-3.2,2.4-5.2,3.9
		c-2.2,1.5-4.5,2.8-7,3.9c-1.6,0.7-3.2,1.1-4.9,1.4c-1,0.2-1.9,0.3-2.9,0.3H224c-3.5-0.3-7-1.2-10.2-2.7c-2.7-1.3-5.3-3-7.6-5
		c-2.1-1.8-4-3.7-5.8-5.7c-3.2-3.9-6-8-8.4-12.5c-1.1-2.1-2.1-4.3-3-6.6c-0.5-1.2-0.9-2.3-1.2-3.3l-1.1-3.3
		c-1.4-4.4-2.4-8.7-3.4-13.2c-1.7-8.5-2.8-17.1-3.4-25.7l-0.5-6.3c-0.1-2.1-0.1-3.7-0.5-5.9l-1.1-12c-1.4-16-2.6-31.9-3.5-47.8
		c-0.8-12.2,9.1-22.5,21.9-23.2c13-0.7,23.9,8.6,24.7,20.6v2.6l0,0c-0.9,16.2-2.1,32.2-3.5,48.4l-1.1,12c-0.1,2-0.5,4.3-0.6,6.1
		l-0.6,5.7c-0.8,7.4-1.3,14.8-1.2,22.2c0,3.6,0.3,7.2,0.6,10.6l0.3,2.6c0.1,0.9,0.3,1.6,0.4,2.4c0.3,1.6,0.6,3.3,1.1,4.9
		c0.9,3,2,5.9,3.5,8.7c1.2,2.2,2.7,4.3,4.6,6c0.6,0.5,1.2,0.9,1.8,1.3l0.3,0.1c0.1,0.1,0.2,0.1,0.3,0.1c0.4,0.1,0.8,0.1,1.2,0
		c1.6-0.3,3.1-0.7,4.6-1.3l5.8-2.3c4.5-2,9.3-3.3,14.2-3.9c5.1-0.6,10.2,0.2,14.9,2.3c1.7,0.7,2.5,2.6,1.8,4.3
		c0,0.1-0.1,0.2-0.1,0.3c-0.7,1.2-2,1.9-3.4,1.9L266.3,561.5z"/>
</g>
<g id="b-arm">
	<path class="st3" d="M64.3,278.2c2.3-3.1,6.1-4.9,9.9-4.6c1.5,0.1,2.8,0.9,3.6,2.1c1.1,1.9,0,3.2-1.2,4.1c-3.1,2.2-7.8,2.2-12,0
		l0,0C64.1,279.4,64,278.7,64.3,278.2z"/>
	<path class="st3" d="M58.7,275.4c-2.8,0.4-5.6-0.6-7.7-2.5c-0.7-0.7-1-1.8-0.7-2.8c0.4-1.2,1.6-1.8,2.8-1.4c3,0.6,5.5,2.9,6.3,5.9
		l0,0C59.4,274.9,59.1,275.2,58.7,275.4z"/>
	<path class="st3" d="M39.3,255.1c-1.2,0.2-2.4-0.2-3.3-1c-0.6-0.6-1.2-1.5-1-2.1c0.2-0.9,1.4-1,2.5-0.7c0.7,0.2,1.3,0.6,1.8,1
		c0.5,0.5,0.9,1.2,1,1.9C40.3,254.7,39.8,255.2,39.3,255.1c-0.1,0-0.1,0-0.2,0"/>
	<path class="st3" d="M44.5,264.3c-1.3-0.5-2.6-1.3-3.5-2.4c-0.4-0.5-0.7-1.1-0.7-1.8c-0.1-2.3,3-2,4.6-0.4c1,1.3,1.7,2.8,1.8,4.5
		c0,0.5-0.2,0.7-0.7,0.6l0,0C45.5,264.6,45,264.4,44.5,264.3z"/>
	<path class="st0" d="M102.4,256.1l40.6,45.4c-13.4,28.4-68.5,35.5-105.9-11.6C26,275.9,21,253.2,2.3,246.1c-1.9-0.7-3-3.1-1.8-4
		c14.8-10.5,33.4,2.4,45.7,20.8c18.2,25.7,37.8,8.8,37.8,8.8L102.4,256.1z"/>
	<path class="st3" d="M27.3,245.2c-1-0.5-1.1-2.1-0.1-2.2c1,0,2.1,0.2,3,0.6c1.2,0.5,2.1,1.4,2.6,2.6c0.4,1.3-0.6,2.4-1.7,1.7
		C29.9,247.1,28.5,246.2,27.3,245.2L27.3,245.2z"/>
	<path class="st3" d="M39.1,259.6c1,1,0.4,2.3-0.8,1.9c-1.2-0.5-2.3-1.2-3.3-2c-1-0.9-2-2.3-1.8-3.5c0.3-0.9,1.1-1.3,2-1.1
		c0.3,0.1,0.6,0.3,0.8,0.5C36.9,256.9,38,258.2,39.1,259.6L39.1,259.6z"/>
	<path class="st3" d="M47.9,268.1c1,0.9,0.8,3-0.5,3c-1.2-0.1-2.4-0.6-3.4-1.3c-1.3-0.9-2.2-2.3-2.3-3.9c-0.1-1.6,1.4-3.1,2.5-2
		C45.4,265.3,46.6,266.8,47.9,268.1L47.9,268.1z"/>
	<path class="st3" d="M53.9,274.5c0.6,0,1.5,1.3,1.1,1.9c-0.4,0.5-0.9,0.7-1.5,0.7c-0.9,0.1-1.8-0.4-2.2-1.1
		c-0.8-0.9-0.9-2.2-0.2-2.1C52,273.9,53,274.2,53.9,274.5L53.9,274.5z"/>
	<path class="st3" d="M62.4,278c0.8,0,1.7,1.4,1.3,2.1c-0.5,0.5-1.1,0.8-1.8,0.8c-1,0.1-2-0.4-2.6-1.3c-0.8-1-1-2.6-0.2-2.4
		C60.3,277.6,61.3,277.8,62.4,278z"/>
	<path class="st3" d="M29.2,249.8c1-0.1,2.4,1.7,1.9,2.5c-0.6,0.7-1.4,1.2-2.3,1.4c-1.3,0.2-2.7-0.3-3.6-1.3
		c-1.2-1.2-1.5-3.2-0.4-3.1C26.3,249.5,27.8,249.5,29.2,249.8z"/>
	<path class="st3" d="M18.1,240.7c-2,0.4-4,0.5-6,0.1c-1-0.3-2-0.7-2.9-1.4c-2.8-2.3,0.4-4.1,3.8-3.5c2.5,0.5,4.9,1.6,7,3.1
		c0.5,0.4,0.6,0.9,0.1,1.1l0,0C19.4,240.4,18.7,240.6,18.1,240.7z"/>
	<path class="st3" d="M19.4,247.2c-0.7,0.8-1.8,1.1-2.8,0.7c-0.9-0.2-1.6-0.8-1.9-1.6c-0.4-1,0.4-1.8,1.4-2c0.6-0.2,1.3-0.2,1.9,0
		c0.7,0.2,1.3,0.7,1.6,1.4c0.3,0.6,0.2,1.5-0.3,1.6"/>
	
		<ellipse transform="matrix(0.6815 -0.7318 0.7318 0.6815 -171.3988 94.4247)" class="st3" cx="22.8" cy="244.1" rx="0.9" ry="1.3"/>
</g>
<g id="body">
	<path class="st4" d="M294.9,292.7c0-17-4.4-33.8-12.7-48.7c-0.3-0.6-0.7-1.1-1-1.7c-5.2-8.6-11.6-16.5-19-23.2
		c-41.2-37.1-103.7-37.1-144.9,0c-6.8,6.1-12.8,13.2-17.7,21c-0.4,0.7-1,1.5-1.4,2.2c-13.8,23.1-17.5,50.8-10.3,76.8
		c2.1,7.5,5.1,14.7,8.8,21.4l37.3,74.5c36,12,75,12,111,0l36.6-73.1c3.5-6.1,6.4-12.6,8.6-19.3C293.3,312.9,294.9,302.8,294.9,292.7
		z"/>
	<path class="st5" d="M88.3,271.1L88.3,271.1c66.9,12.8,135.7,12.8,202.6,0l0,0"/>
	<path class="st6" d="M119.8,388.9l-8.7-22c-2.9-7-2.8-13.2,0.3-20.2l13.6-25.9c1.4-2.6,4.1-4.2,7.1-4.2l21.6,1.4h31.8
		c2.9,0,5.6,1.6,7.1,4.2l13.6,30.8c3.1,6.9,3.2,14.7,0.3,21.7l-6.3,15.2l-3.9,9c-16.7,2.8-28,1.6-43.2,0.2
		c-13.9-1.3-21.7-3-26.1-4.2C123.8,393.9,121.3,391.8,119.8,388.9z"/>
	<path class="st7" d="M249.8,419.8v0.4c0,7.1-5,13.4-12.6,15.3c-31.3,8-64.1,8-95.4,0c-7.6-2-12.8-8.5-12.6-15.6
		c0-1.8,0-3.5-0.1-5.1c-0.1-1.4,0.9-2.7,2.4-2.9c0.3,0,0.7,0,1,0.1c12.2,3.6,53.1,12.8,114.6-0.4c1.4-0.3,2.7,0.6,3,1.9
		c0.1,0.3,0.1,0.6,0,0.9C250,416,249.8,418,249.8,419.8z"/>
	<path class="st6" d="M272.8,247.6c2.5,1.5,4.9,3.2,7.2,5.1c0.5,0.4,1,0.8,1.5,1.3l1.4,1.3c1,0.8,1.7,1.7,2.6,2.5
		c3,3,5.7,6.4,7.9,10.1c3.7,6.1,5.9,13.1,6.2,20.2c0.3,7.1-1.5,14.1-5.2,20.2c-2.2,3.7-4.9,7.1-8,10.1c-0.9,0.8-1.8,1.7-2.7,2.5
		l-1.5,1.3c-0.5,0.4-1,0.8-1.6,1.3s-1.1,0.9-1.7,1.3L277,326l-2,1.3l-1,0.6l-1.2,0.6c-1.9,1-4.2,1-6.2,0l-1.2-0.6l-1-0.6l-2.1-1.3
		l-1.8-1.3c-0.6-0.4-1.1-0.9-1.7-1.3s-1.1-0.8-1.6-1.3l-1.5-1.3c-0.9-0.8-1.9-1.7-2.7-2.5c-3.1-3-5.8-6.4-8-10.1
		c-3.7-6.1-5.5-13.1-5.2-20.2c0.3-7.2,2.5-14.1,6.2-20.2c2.2-3.7,4.9-7.1,7.9-10.1c0.9-0.8,1.6-1.7,2.6-2.5l1.4-1.3
		c0.5-0.4,1-0.8,1.5-1.3c2.3-1.9,4.7-3.6,7.2-5.1C268.6,246.6,270.9,246.6,272.8,247.6z"/>
</g>
<path id="f-arm" class="st0" d="M248.8,271c-8.3,10.9-9.2,29.1-2.1,42.3c17.6,25,10.5,17.1-2.9,45.3c-4.1,8.7-1.7,23.2,4.4,30.1
	c3.7,4.1,8,7.2,9.7,4.4c1.5-10.2-7.2-21.9,5.6-28.2c19.1-9.4,43.8-26.7,41.9-50.4c-2.1-19.1-12.9-56-35.3-62.4
	C262.4,252.9,253.1,265.3,248.8,271z"/>
<g id="head">
	<path class="st8" d="M273.8,205.3H105.7V84.1c0-46.5,37.7-84.1,84.1-84.1l0,0C236.3,0,274,37.6,274,84.1c0,0,0,0,0,0L273.8,205.3
		L273.8,205.3z"/>
	<path class="st7" d="M220.1,197.6c-9.4-0.4-19.6-0.6-30.3-0.6s-20.9,0.3-30.3,0.6c-31.4,1.2-53.8,4.6-53.8,8.3s22.2,7,53.8,8.4
		c9.4,0.4,19.6,0.6,30.3,0.6s20.9-0.3,30.3-0.6c31.4-1.2,53.7-4.6,53.7-8.4S251.6,199,220.1,197.6z M217.2,210.1
		c-8.5,0.1-17.8,0.3-27.5,0.3s-18.9-0.1-27.5-0.3c-25.9-0.7-44.9-2.2-48.3-4c-0.3-0.1-0.6-0.4-0.6-0.6c0-2.1,20.2-3.9,48.8-4.7
		c8.5-0.1,17.8-0.3,27.5-0.3s18.9,0.1,27.5,0.3c28.5,0.7,48.7,2.5,48.7,4.7c0,0.1-0.1,0.4-0.6,0.6
		C262.3,207.9,243.2,209.4,217.2,210.1L217.2,210.1z"/>
	<path class="st7" d="M273.8,206c0,3.8-22.2,7.1-53.7,8.4c-9.4,0.4-19.6,0.6-30.3,0.6s-20.9-0.3-30.3-0.6
		c-31.4-1.2-53.8-4.6-53.8-8.4s22.2-7.1,53.8-8.3c9.4-0.4,19.6-0.6,30.3-0.6s20.9,0.3,30.3,0.6C251.6,199,273.8,202.2,273.8,206z"/>
	<path class="st9" d="M266,205.4c0,2.1-20.2,3.9-48.7,4.7c-8.5,0.1-17.8,0.3-27.5,0.3s-18.9-0.1-27.5-0.3
		c-28.5-0.7-48.8-2.5-48.8-4.7s20.2-3.9,48.8-4.7c8.5-0.1,17.8-0.3,27.5-0.3s18.9,0.1,27.5,0.3C245.7,201.5,266,203.3,266,205.4z"/>
	<path class="st0" d="M261,222.5l-47.9-2.3l-95.6-2.6c0,0-1-3.9,2.9-10.6l0,0c0.3-0.6,0.6-1.2,1-1.9h0.1l0.3-0.5
		c10.6-18.3,21.5-37.9,20.6-59.6c-0.4-10-3.5-20.1-4.6-30.1s0-21,6.7-28.3c0.1-0.1,0.1-0.2,0.2-0.2l0,0c3.3-3.5,7.6-5.8,11.5-8.6
		c2.1-1.4,4.1-3.1,5.8-4.9c6.3-6.8,7.5-16.9,11.4-25.3c0.6-1.4,1.4-2.7,2.3-4c1-1.3,2.1-2.6,3.3-3.7c2.1-2.3,5.1-3.6,8.2-3.5l0,0
		c1.7-0.1,3.4-0.1,5-0.1c20.1,0.1,29.1,7.1,36.4,18.1c0.9,1.3,0.6,3-0.6,4c-0.6,0.4-1.3,0.6-2.1,0.5c-0.8-0.2-1.6-0.4-2.3-0.7
		c-2.4-1-4.6-2.4-7-3.3h-0.1h-0.1c-2.6-0.7-5.2,0.7-6,3.3c-0.3,0.9-0.2,1.9,0.1,2.9c1.7,5.2,3.6,10.4,7.2,14.7
		c5,6.1,12.5,9.5,17.5,15.4c6.7,8,7.8,19,6.7,29s-4.2,19.5-4.6,29.7c-1,21.8,10.2,42.6,20.9,62.1C261.9,218.6,260.9,222.5,261,222.5
		z"/>
	<path class="st10" d="M176.6,78.5c2-0.7,4.4-2,5.8,0.3c1.7,2.4,0.5,7.4-1.4,9.8c-3,3.7-7.3,3-10.9,2c-1.8-0.4-3.5-1.3-4.9-2.6
		c-2.6-2.7-3.9-10.3,0.1-11.9C168.4,74.6,172.8,79.9,176.6,78.5z"/>
	<path class="st10" d="M189.2,66.7c0.4,1.5,1.1,3.3,0.2,4.5s-2.2,0.5-3.3-0.3c-1.1-0.7-2-1.6-2.8-2.6c-0.9-1.2-1.3-2.6-1.1-4
		c0.2-1.4,0.9-2.8,2-3.8C189.1,55.5,188.2,63,189.2,66.7z"/>
	<path class="st10" d="M178.7,60.7c0.1-2.1,0.5-4.8-0.9-5.8s-3.1,0.8-4.2,2.3c-1.1,1.5-2.1,3.1-2.9,4.7c-0.8,1.9-0.9,3.9-0.4,5.9
		c0.7,1.6,1.9,2.9,3.6,3.5C181.6,74.9,178.4,66.2,178.7,60.7z"/>
	<path class="st10" d="M184.7,48.6c-0.6-0.2-1.2-0.1-1.7,0.1c-0.6,0.3-1,0.8-1.1,1.5c0,0.5,0.1,1,0.2,1.5l0.7,2.4
		c0.1,0.6,0.6,1.1,1.3,1.1c0.2,0,0.4-0.1,0.5-0.2c0.8-0.6,1.4-1.4,1.6-2.4c0.4-1.6-0.4-3.7-1.8-3.8L184.7,48.6z"/>
	<path class="st10" d="M184.7,42.2c-0.3-0.1-0.6-0.1-0.8,0c-0.3,0.1-0.5,0.4-0.6,0.8c0,0.3,0.1,0.5,0.2,0.7l0.4,1.2
		c0.2,0.5,0.5,0.7,0.9,0.4c0.4-0.3,0.7-0.8,0.7-1.3c0.2-0.8-0.3-1.9-0.9-2L184.7,42.2z"/>
	<path class="st10" d="M179.5,38.6c0.8-0.3,1.1-0.2,1.2,0.4c0.2,0.7,0.2,1.5,0.1,2.2c-0.3,1.2-0.8,2.3-1.5,3.3
		c-1,1.5-1.9,2.9-2.9,4.5c-0.2,0.4-0.5,0.8-0.9,0.8c-0.3-0.1-0.6-0.4-0.7-0.7c-0.1-0.4-0.1-0.8,0-1.2c0.1-1.4,0.4-3.7,0.5-4.4
		c0-0.2,0.1-0.4,0.2-0.6l0,0c0.6-1.9,2-3.3,3.8-4L179.5,38.6z"/>
	<path class="st11" d="M159.2,124.5c0.2,6.3-2.1,11.5-4.9,11.6s-5.3-5-5.5-11.3c-0.1-0.8-0.1-1.6,0-2.4c0.4-5.2,2.3-9.1,4.8-9.2
		C156.5,113.1,159,118.2,159.2,124.5z"/>
	
		<ellipse transform="matrix(0.9996 -2.861949e-02 2.861949e-02 0.9996 -3.451 4.5012)" class="st12" cx="155.5" cy="122.8" rx="2.9" ry="6.4"/>
	<path class="st13" d="M159.9,124.5c0,0-8-11.8-11.8-2.5c0.5-5.9,2.7-10.5,5.5-10.6C156.9,111.3,159.7,117.1,159.9,124.5z"/>
	<path class="st12" d="M159.9,124.5c-0.9-0.9-1.9-1.8-2.9-2.6c-0.9-0.8-2-1.5-3.1-2c-1-0.5-2.1-0.6-3.1-0.2c-1,0.6-1.8,1.5-2.3,2.7
		l-0.2,0.4H148c-1.2-0.2-2.2-1-2.7-2.1c-0.2-0.6-0.3-1.2-0.4-1.8c0-0.6,0.1-1.3,0.4-1.8c-0.2,1.1,0,2.2,0.6,3.2
		c0.5,0.7,1.3,1.2,2.2,1.2l-0.4,0.3c0.5-1.4,1.5-2.5,2.7-3.3c1.2-0.5,2.7-0.5,3.9,0.1c1.2,0.7,2.3,1.5,3.2,2.5
		C158.4,122.1,159.2,123.3,159.9,124.5z"/>
	<path class="st12" d="M148.5,121.1c-0.8-0.7-1.3-1.6-1.4-2.7c-0.1-1,0.2-2,0.8-2.7c-0.4,0.8-0.5,1.7-0.3,2.6
		c0.2,0.7,0.7,1.4,1.3,1.8c0.3,0.2,0.4,0.5,0.3,0.8C149,121.1,148.7,121.3,148.5,121.1C148.6,121.2,148.5,121.2,148.5,121.1z"/>
	<path class="st10" d="M164.2,120.1c-0.7-1.9-1.4-3.8-2.2-5.8c-0.8-1.8-1.8-3.5-2.9-5.1c-1-1.5-2.1-3-3.3-4.4
		c-1.2-1.4-2.5-2.6-4-3.6c-1.3-1-2.8-1.9-4.3-2.6c-1.4-0.7-3-1-4.6-0.9c-1.6,0-3.1,0.8-4,2.1c-1,1.7-1.4,3.7-1.1,5.7
		c-0.8-2.1-0.7-4.4,0.1-6.5c0.9-1.9,2.6-3.2,4.7-3.5c1.8-0.3,3.7,0,5.4,0.6c1.7,0.7,3.4,1.6,4.9,2.7c3.2,2.5,5.7,5.6,7.5,9.2
		c1,1.9,1.8,3.8,2.4,5.9C163.5,115.9,164,118,164.2,120.1z"/>
	<path class="st11" d="M183.1,125.6c0.2,6.8,3.6,12.3,7.3,12.2s6.8-5.8,6.6-12.6c0-0.9-0.1-1.8-0.2-2.6c-0.9-5.5-3.8-9.6-7.1-9.5
		C186,113.2,182.9,118.8,183.1,125.6z"/>
	
		<ellipse transform="matrix(0.9996 -2.861949e-02 2.861949e-02 0.9996 -3.4584 5.4293)" class="st12" cx="187.9" cy="123.5" rx="3.9" ry="6.9"/>
	<path class="st13" d="M182.2,125.7c0,0,9.9-13.2,15.6-3.5c-1-6.4-4.4-11.1-8.1-11C185.4,111.2,181.9,117.7,182.2,125.7z"/>
	<path class="st12" d="M182.2,125.7c0.8-1.4,1.8-2.7,3.1-3.7c1.2-1.2,2.6-2.2,4.1-2.9c1.6-0.8,3.4-1,5.1-0.4c1.6,0.6,3,1.8,3.9,3.4
		l-0.6-0.3c1.1-0.1,2.2-0.6,2.9-1.5c0.7-1,0.9-2.3,0.6-3.5c0.3,0.6,0.6,1.2,0.6,1.9c0,0.7-0.1,1.4-0.4,2c-0.7,1.3-2,2.2-3.4,2.5
		h-0.4l-0.3-0.4c-0.8-1.2-1.9-2.2-3.3-2.7c-1.4-0.4-2.9-0.2-4.2,0.4c-1.4,0.6-2.8,1.4-4,2.3C184.6,123.5,183.3,124.5,182.2,125.7z"
		/>
	<path class="st12" d="M196.6,120.1c0.9-0.3,1.5-1.1,1.6-2c0.3-1,0-2-0.6-2.8c0.8,0.7,1.2,1.8,1.2,2.9c-0.1,1.2-0.7,2.3-1.7,3l0,0
		c-0.3,0.1-0.7,0.2-0.8-0.1C196.1,120.7,196.2,120.3,196.6,120.1C196.5,120.2,196.5,120.1,196.6,120.1z"/>
	<path class="st10" d="M176.2,121.2c0.1-2.3,0.5-4.6,1.2-6.8c0.7-2.2,1.6-4.4,2.7-6.5c2.4-4.1,5.6-7.6,9.4-10.4
		c2-1.3,4.1-2.4,6.3-3.2c2.3-0.8,4.8-1.2,7.2-1c2.6,0.1,5,1.4,6.5,3.4c1.4,2.1,1.6,4.7,0.6,6.9c0.3-2.2-0.4-4.4-1.8-6.1
		c-1.5-1.4-3.5-2.1-5.5-1.9c-2.1,0.1-4.1,0.5-6.1,1.3c-2,0.8-3.9,1.8-5.6,3.1c-1.8,1.2-3.5,2.6-5,4.2c-1.5,1.6-2.9,3.2-4.2,5
		c-1.2,1.8-2.4,3.7-3.5,5.7C177.7,117,177,119.1,176.2,121.2z"/>
	<path class="st9" d="M256.1,210.4l-66.3,2l-71.8-2l-12.4-4.4v29.5l0,0c0,3.8,22.4,7.1,53.8,8.3c9.4,0.3,19.6,0.6,30.3,0.6
		s20.9-0.1,30.3-0.6c31.4-1.2,53.7-4.6,53.7-8.3V206L256.1,210.4z"/>
	<path class="st7" d="M261,201.2c0.5,0.8,1,1.8,1.5,2.6c2.2,0.4,3.5,1,3.5,1.5c0,0.1-0.1,0.4-0.5,0.6c-0.5,0.2-1.1,0.4-1.7,0.6
		c-5.8,1.7-23.5,2.9-46.6,3.5c-8.5,0.1-17.8,0.3-27.5,0.3s-18.9-0.1-27.5-0.3c-23.2-0.6-41-1.9-46.7-3.5c-0.5-0.1-1-0.3-1.5-0.6
		c-0.3-0.1-0.6-0.4-0.6-0.6c0-0.6,1.2-1,3.5-1.5c0.6-0.8,1-1.8,1.5-2.6c-8.2,1.4-12.8,3.1-12.8,4.7c0,1.4,3.1,2.8,8.5,3.9
		c9.3,1.9,25.4,3.6,45.3,4.4c9.4,0.4,19.6,0.6,30.3,0.6s20.9-0.3,30.3-0.6c19.6-0.8,35.7-2.4,45.1-4.4c5.6-1.3,8.6-2.5,8.6-3.9
		C273.8,204.3,269.1,202.6,261,201.2z"/>
	<path class="st14" d="M261.6,195.5L261.6,195.5c0,1.5-1.1,2.9-2.6,3.1c-9,1.5-23.1,2.8-39.4,3.5c-9.6,0.4-19.6,0.6-29.9,0.6
		s-20.3-0.1-29.9-0.6c-18.1-0.7-33.2-2.2-42-3.9v-114c0-19,7.5-37.3,21-50.8c3.8-3.7,7.9-7.1,12.4-10c0.5-0.3,1.3-0.1,1.6,0.4
		c0.3,0.5,0.2,1-0.2,1.4l-0.1,0.1c-13.5,13.4-21.1,31.7-21,50.8v114c8.8,1.8,23.9,3.2,42,3.9c9.6,0.4,19.6,0.6,29.9,0.6
		s20.3-0.1,29.9-0.6c9.2-0.4,17.7-1,24.9-1.7c1.8-0.1,3.3,1.2,3.5,3C261.6,195.4,261.6,195.5,261.6,195.5z"/>
	<path class="st15" d="M189.8,2.5c45.1,0,81.6,36.6,81.6,81.6v121.3c-2.6,1.9-18.1,5-51.5,6.4c-9.9,0.4-20,0.6-30.3,0.6
		s-20.3-0.1-30.2-0.6c-33.4-1.4-48.8-4.6-51.5-6.4V84.1C108.2,39.1,144.7,2.6,189.8,2.5 M189.8,0.1L189.8,0.1
		c-46.5,0-84.1,37.7-84.1,84.1v121.8c0,3.8,22.2,7.1,53.8,8.4c9.4,0.4,19.6,0.6,30.3,0.6s20.9-0.3,30.3-0.6
		c31.4-1.3,53.7-4.6,53.7-8.4V84.3c0.1-46.4-37.5-84.1-83.9-84.1C189.9,0.1,189.9,0.1,189.8,0.1z"/>
	<path class="st16" d="M190.8,153.3c-1.5,2.2-3.6,3.9-6,5c-2.4,1-4.9,1.5-7.5,1.4c-2.4-0.1-4.8-0.4-7.1-1c-2-0.4-4.1-0.8-6-1
		s-3.8-0.3-5.6-0.4c-1.9,0.1-3.7-0.1-5.5-0.6c-1.8-0.4-3.5-1.3-4.9-2.5c-1.5-1.2-2.6-2.8-3.2-4.5c2.1,2.6,5.1,4.2,8.4,4.4
		c0.8,0.1,1.6,0.1,2.5,0c0.9,0,1.8-0.1,2.7-0.2c2-0.2,3.9-0.2,5.9,0.1c2.2,0.2,4.3,0.6,6.4,1.1c1.2,0.2,2.1,0.6,3.3,0.9
		c1.1,0.3,2.2,0.5,3.3,0.6C182.1,157.4,187,156.2,190.8,153.3z"/>
	<path class="st10" d="M159.8,167.1c1.2,0.5,2.3,1,3.6,1.3c1.2,0.3,2.4,0.5,3.6,0.6c1.2,0.1,2.3,0.1,3.5,0c1.2-0.2,2.5-0.4,3.7-0.6
		c-0.9,1-2,1.9-3.2,2.4c-1.3,0.5-2.6,0.6-4,0.5C164.1,171,161.5,169.4,159.8,167.1L159.8,167.1z"/>
</g>
</svg>
