<?xml version="1.0" encoding="utf-8"?>
<!-- Generator: Adobe Illustrator 25.2.0, SVG Export Plug-In . SVG Version: 6.00 Build 0)  -->
<svg version="1.1" id="Layer_1" xmlns="http://www.w3.org/2000/svg" xmlns:xlink="http://www.w3.org/1999/xlink" x="0px" y="0px"
	 viewBox="0 0 210.6 587.9" style="enable-background:new 0 0 210.6 587.9;" xml:space="preserve">
<style type="text/css">
	.st0{fill:#DB67AE;}
	.st1{fill:#F473C2;}
	.st2{fill:#F4A8D7;}
	.st3{fill:#F486CA;}
	.st4{fill:#491D87;}
	.st5{fill:none;stroke:#66419B;stroke-width:5.18;stroke-linecap:round;stroke-linejoin:round;}
	.st6{fill:#989898;}
	.st7{fill:#66419B;}
	.st8{opacity:0.5;fill:#68DFE7;enable-background:new    ;}
	.st9{fill:#808080;}
	.st10{fill:#FFFFFF;}
	.st11{fill:#7A0406;}
	.st12{fill:#CD539D;}
	.st13{fill:#4AA6C0;}
	.st14{opacity:0.5;fill:#FFFFFF;enable-background:new    ;}
	.st15{clip-path:url(#SVGID_2_);}
	.st16{fill:#A54E83;}
</style>
<g id="legs">
	<path class="st0" d="M119.7,572L119.7,572c-12.3,0-22.2-9.9-22.2-22.2c0,0,0,0,0-0.1V430.2h44.4v119.6
		C141.8,562,131.9,572,119.7,572z"/>
	<path class="st1" d="M16,539.7c4.9,4.5,11,7.6,17.5,8.6c3,0.4,6,0.5,9,0.3c1.5-0.1,2.9-0.4,4.5-0.6c0.9-0.2,1.8-0.6,2.7-1.1
		c3.3-1.8,6.7-5.8,8.9-10.7c1.1-2.5,2-5.1,2.6-7.8c0.3-1.4,0.6-2.9,0.7-4.3c0.3-1.5,0.4-3,0.4-4.6c0.3-6.6,0.1-13.2-0.7-19.8
		c-0.1-1.7-0.4-3.5-0.6-5.3l-0.7-5.6c-0.3-2.2-0.4-4-0.6-6l-0.6-5.8c-1.4-15.6-2.6-31.1-3.6-46.7l0,0c-1.1-13.8,9.3-25.9,23.1-26.9
		s25.9,9.3,26.9,23.1c0,0.3,0,0.5,0,0.8v3.1c-1,15.3-2.2,30.6-3.6,46l-0.6,5.7c-0.1,1.8-0.4,3.9-0.4,5.6l-0.4,6l-0.4,6.3
		c-0.6,8.9-2.2,17.8-4.6,26.4c-0.7,2.2-1.4,4.5-2.2,6.7s-1.8,4.5-2.8,6.7c-2.2,4.6-4.9,8.8-8.1,12.8c-3.2,4.1-7,7.7-11.3,10.7
		c-4.5,3.3-9.8,5.7-15.3,6.8c-2.9,0.6-5.8,0.8-8.8,0.7c-2.4-0.2-4.8-0.5-7.1-1.1c-4.7-1-9.2-2.8-13.4-5.2c-4.1-2.4-7.7-5.5-10.7-9.2
		c-2.9-3.5-5-7.6-6.3-12c-0.6-2,0.6-4,2.5-4.6c0,0,0.1,0,0.1,0C13.8,538.5,15,538.9,16,539.7L16,539.7z"/>
	<path class="st1" d="M205.1,548.9c-3.2,0.3-6.2,1.5-8.8,3.3c-2.8,2-5.5,4.3-8.1,6.7c-3.3,3-6.8,5.7-10.6,8.1
		c-2.5,1.5-5.2,2.6-8.1,3.3c-1.6,0.4-3.3,0.6-5,0.7c-1.5,0-3.1,0-4.6-0.1c-5.8-0.6-11.5-2.6-16.4-5.7c-4.6-2.9-8.7-6.4-12.2-10.4
		c-3.5-3.8-6.4-8.1-8.8-12.7c-2.3-4.4-4.1-9-5.6-13.8c-2.7-8.8-4.4-17.8-5-27c-0.4-4.3-0.7-8.6-0.8-12.7l-0.1-2.6l-0.3-2.9l-0.6-5.8
		c-1.4-15.6-2.6-31.3-3.6-46.9c-1.1-13.8,9.3-25.9,23.1-26.9c13.8-1.1,25.9,9.3,26.9,23.1c0,0.3,0,0.5,0,0.8v3.1
		c-1,15.9-2.2,31.7-3.6,47.6l-0.6,6l-0.3,2.9l-0.4,3.2c-0.6,3.8-1,7.4-1.4,10.9c-0.8,6.6-0.9,13.3-0.4,19.9c0.3,2.9,0.8,5.9,1.4,8.8
		c0.7,2.7,1.7,5.3,2.9,7.8c1.2,2.3,2.7,4.4,4.4,6.2c1.4,1.5,3.1,2.7,5,3.6c0.4,0.1,0.9,0.3,1.3,0.6c0.3,0.2,0.5,0.2,0.8,0.3
		c1.1,0.1,2.2,0,3.2-0.3c2.8-0.6,6.1-2.1,10-3.6c4.2-1.8,8.5-3.1,12.9-4c2.4-0.4,4.9-0.5,7.4-0.3c2.5,0.2,4.9,0.9,7.1,2
		c1.8,0.9,2.5,3.1,1.7,4.9c-0.6,1.1-1.7,1.9-2.9,2.1L205.1,548.9z"/>
	<path class="st2" d="M20.6,558.1c1.9-1.4,3.9-2.6,6.1-3.5c2.2-1,4.6-1.7,7-2.1c4.8-0.8,9.8-0.7,14.6,0.3c4.4,1,8.7,2.2,12.9,3.6
		c2,0.7,3.9,1.2,5.4,1.7c1.7,0.4,3.1,0.7,3.5,0.4c1-0.9,2-1.9,2.9-2.9c1.7-2.3,3-4.7,4-7.4c2.4-6,3.2-12.5,3.6-19.9
		c0.3-7.5,0-15-0.8-22.4c-0.4-3.9-0.8-7.8-1.3-11.8c-0.3-2.2-0.4-4.3-0.6-6.4l-0.6-6.3c-1.4-16.5-2.6-33.1-3.5-49.8l0,0
		c-0.8-12.6,8.8-23.4,21.4-24.2s23.4,8.8,24.2,21.4c0,0.1,0,0.2,0,0.4v2.6c-1,16.4-2.2,32.8-3.5,49.2l-0.6,6.1
		c-0.1,2.1-0.4,4.2-0.4,6c-0.3,4.2-0.6,8.5-0.8,12.9c-0.7,9.1-2.1,18.1-4.2,27c-2.1,9.6-5.9,18.8-11.3,27.1c-3,4.6-6.7,8.8-11,12.2
		c-2.6,2-5.4,3.6-8.5,4.7c-1.7,0.6-3.5,1-5.3,1.2c-0.9,0.1-1.9,0.2-2.8,0.1c-1,0.1-2,0-2.9-0.3c-3-0.5-5.8-1.5-8.5-2.9
		c-2.2-1.1-4-2.2-5.8-3.3c-3.5-2.1-6.7-4.2-9.9-5.7c-3.1-1.5-6.4-2.6-9.9-3.2c-1.7-0.3-3.5-0.3-5.3-0.1c-1.8,0.1-3.6,0.4-5.4,0.8
		h-0.1c-1.7,0.4-3.5-0.7-3.9-2.4c0,0,0-0.1,0-0.1C19,560.2,19.4,558.8,20.6,558.1C20.5,558.1,20.6,558.1,20.6,558.1z"/>
	<path class="st3" d="M178.1,560.6c-3.3-0.1-6.5,0.7-9.5,2.1c-3,1.6-5.8,3.5-8.3,5.7c-1.4,1.1-2.9,2.4-4.7,3.8
		c-2,1.5-4.1,2.7-6.4,3.8c-1.4,0.6-2.9,1.1-4.4,1.4c-0.9,0.2-1.8,0.3-2.6,0.3h-2.6c-3.2-0.3-6.4-1.2-9.3-2.6c-2.5-1.3-4.9-3-6.9-4.9
		c-1.9-1.7-3.7-3.6-5.3-5.6c-3-3.8-5.5-7.8-7.7-12.1c-1-2.1-1.9-4.2-2.8-6.4c-0.4-1.1-0.8-2.2-1.1-3.2l-1-3.2
		c-1.3-4.3-2.2-8.5-3.1-12.8c-1.6-8.3-2.6-16.6-3.1-25l-0.4-6.1c-0.1-2.1-0.1-3.6-0.4-5.7l-1-11.7c-1.2-15.6-2.4-31-3.2-46.5
		c-0.9-11.7,7.9-22,19.6-22.9c11.7-0.9,22,7.9,22.9,19.6c0,0.3,0,0.5,0,0.8v2.5l0,0c-0.8,15.7-1.9,31.3-3.2,47l-1,11.7
		c-0.1,2-0.4,4.2-0.6,6l-0.6,5.6c-0.8,7.2-1.1,14.4-1.1,21.6c0,3.5,0.3,7,0.6,10.3l0.3,2.5c0.1,0.8,0.3,1.5,0.4,2.4
		c0.3,1.5,0.6,3.2,1,4.7c0.8,2.9,1.9,5.8,3.2,8.5c1,2.2,2.5,4.1,4.2,5.8c0.5,0.5,1.1,0.9,1.7,1.2l0.3,0.1c0.1,0.1,0.2,0.1,0.3,0.1
		c0.4,0.1,0.7,0.1,1.1,0c1.4-0.3,2.8-0.7,4.2-1.2l5.3-2.2c4.1-1.9,8.4-3.2,12.9-3.8c4.7-0.6,9.4,0.2,13.6,2.2
		c1.6,0.8,2.3,2.8,1.6,4.4c0,0,0,0,0,0c-0.6,1.1-1.8,1.8-3.1,1.8L178.1,560.6z"/>
	<path class="st1" d="M115.3,567.5c3-11.8,2.6-27.3,3.6-40.3c1.9-25.8,2-51.7,0.5-77.5c-0.9-15.6-21-36.5-35.2-19.5
		c-5.2,6.2-2.7,15.2-1.9,23.2c2.9,31.1,6.1,57,12.9,87.5c3.6,16.2-0.1,25.8-12.4,31.8c-8.1,4-13-5.6-14.4-2
		c-0.4,1.3-0.5,2.7-0.3,4.1c0.8,5.4,4.6,9.8,9.7,11.5c7.4,2.5,15.6,2.1,22.6-1.3C108.8,581,112.8,577.6,115.3,567.5z"/>
</g>
<g id="body">
	<path class="st4" d="M210.6,296.4c0,10.1-1.6,20.2-4.6,29.9c-2.2,6.7-5,13.2-8.6,19.3l-36.6,73.1c-36,12-75,12-111,0l-9.5-18.9
		l-27.8-55.6c-3.8-6.8-6.7-14-8.8-21.4c0-0.2-0.1-0.3-0.1-0.5c-7.1-25.8-3.3-53.4,10.4-76.3c0.4-0.7,1-1.5,1.4-2.2
		c4.9-7.8,10.8-14.9,17.7-21c41.2-37.1,103.7-37.1,144.9,0c7.4,6.8,13.9,14.6,19,23.2c0.3,0.6,0.7,1.1,1,1.7
		C206.1,262.6,210.5,279.3,210.6,296.4z"/>
	<path class="st5" d="M4,274.8L4,274.8c66.9,12.8,135.7,12.8,202.6,0l0,0"/>
	<path class="st6" d="M165.5,423.5v0.4c0,7.1-5,13.4-12.6,15.3c-31.3,8-64.1,8-95.4,0c-7.7-1.9-12.8-8.5-12.7-15.6
		c0-1.8,0-3.5-0.1-5.1c-0.1-1.4,0.9-2.7,2.4-2.9c0.3,0,0.7,0,1,0.1c12.2,3.6,53.1,12.8,114.6-0.4c1.4-0.3,2.7,0.6,3,1.9
		c0.1,0.3,0.1,0.6,0,0.8C165.6,419.7,165.5,421.7,165.5,423.5z"/>
	<path class="st7" d="M55.6,378.4l-8,21.9c-2.5,0.3-5,0.2-7.3-0.5l-27.8-55.6c-3.8-6.8-6.7-14-8.8-21.4c0-0.2-0.1-0.3-0.1-0.5
		l-0.9-3.5l32,2.8c2.9,0,5.6,1.6,7.1,4.2l13.6,30.9C58.4,363.6,58.5,371.4,55.6,378.4z"/>
	<path class="st7" d="M108.3,251.3c2.5,1.5,4.8,3.1,7,4.9c0.5,0.4,1,0.8,1.5,1.2l1.4,1.2c1,0.8,1.7,1.6,2.5,2.5
		c2.9,3,5.5,6.3,7.7,9.8c3.6,5.9,5.7,12.7,6,19.7c0.3,6.9-1.5,13.8-5.1,19.7c-2.2,3.6-4.8,6.9-7.8,9.8c-0.9,0.8-1.8,1.6-2.7,2.5
		l-1.5,1.2c-0.5,0.4-1,0.8-1.6,1.2s-1.1,0.8-1.7,1.2l-1.8,1.2l-2,1.2l-1,0.6l-1.1,0.6c-1.9,1-4.1,1-6,0l-1.1-0.6l-1-0.6l-2-1.2
		l-1.8-1.2c-0.6-0.4-1.1-0.8-1.7-1.2s-1.1-0.8-1.6-1.2l-1.5-1.2l-2.6-2.5c-3-2.9-5.6-6.2-7.8-9.8c-3.6-5.9-5.4-12.8-5.1-19.7
		c0.3-7,2.4-13.7,6-19.7c2.2-3.6,4.7-6.9,7.7-9.8c0.8-0.8,1.6-1.6,2.5-2.5l1.4-1.2c0.5-0.4,1-0.8,1.5-1.2c2.2-1.8,4.5-3.5,7-4.9
		C104.1,250.2,106.4,250.2,108.3,251.3z"/>
</g>
<g id="head">
	<path class="st8" d="M189.3,205.3H21.1V84.1C21.2,37.7,58.8,0,105.3,0l0,0c46.5,0,84.1,37.7,84.1,84.1L189.3,205.3L189.3,205.3z"/>
	<path class="st6" d="M135.6,197.6c-9.4-0.4-19.6-0.6-30.3-0.6s-20.9,0.3-30.3,0.6c-31.4,1.2-53.8,4.6-53.8,8.3s22.2,7,53.8,8.4
		c9.5,0.4,19.6,0.6,30.3,0.6s20.9-0.3,30.3-0.6c31.4-1.2,53.7-4.6,53.7-8.4S167,199,135.6,197.6z M132.7,210.1
		c-8.5,0.1-17.8,0.3-27.5,0.3s-18.9-0.1-27.5-0.3c-25.9-0.7-44.9-2.2-48.3-4c-0.3-0.1-0.5-0.4-0.5-0.6c0-2.1,20.2-3.9,48.8-4.7
		c8.5-0.1,17.8-0.3,27.5-0.3s18.9,0.1,27.5,0.3c28.5,0.7,48.7,2.5,48.7,4.7c0,0.1-0.1,0.4-0.6,0.6
		C177.7,207.9,158.7,209.4,132.7,210.1L132.7,210.1z"/>
	<path class="st6" d="M189.3,206c0,3.8-22.2,7.1-53.7,8.4c-9.4,0.4-19.6,0.6-30.3,0.6s-20.9-0.3-30.3-0.6
		c-31.4-1.2-53.8-4.6-53.8-8.4s22.2-7.1,53.8-8.3c9.5-0.4,19.6-0.6,30.3-0.6s20.9,0.3,30.3,0.6C167,199,189.3,202.2,189.3,206z"/>
	<path class="st9" d="M181.5,205.4c0,2.1-20.2,3.9-48.7,4.7c-8.5,0.1-17.8,0.3-27.5,0.3s-18.9-0.1-27.5-0.3
		c-28.5-0.7-48.8-2.5-48.8-4.7s20.2-3.9,48.8-4.7c8.5-0.1,17.8-0.3,27.5-0.3s18.9,0.1,27.5,0.3C161.2,201.5,181.5,203.3,181.5,205.4
		z"/>
	<path class="st0" d="M70.1,125.9c0,7.4,3.5,13.5,7.8,13.5s7.8-6,7.8-13.5c0-1,0-2-0.1-2.9c-0.7-6-3.9-10.6-7.7-10.6
		C73.6,112.4,70.1,118.5,70.1,125.9z"/>
	<path class="st1" d="M173.6,204.9c-10.7-18.9-21.8-39.2-20.9-61c0.4-10.1,3.5-19.9,4.6-29.9s0-21-6.7-28.7
		c-5-5.7-12.5-8.8-17.5-14.6c-3.1-3.6-5-7.9-6.5-12.4c-1.7-4.9,2.8-9.8,7.7-8.3h0.1c2.5,0.8,4.7,2.2,7.1,3.1
		c0.8,0.3,1.5,0.5,2.4,0.6c1.6,0.2,3.1-0.9,3.3-2.5c0.1-0.7-0.1-1.4-0.5-2c-8-11.6-18.1-18.6-42-16.8l0,0c-3.8,0.2-7.4,1.8-10.1,4.5
		c-2.4,2.2-4.3,4.9-5.6,7.9c-3.9,8.6-5.2,18.8-11.4,25.9c-3,3.4-6.8,5.9-10.5,8.6c-2.6,1.7-4.9,3.7-7,6c-0.9,1-1.7,2.1-2.4,3.3
		c-4.5,7.3-5.2,16.7-4.2,25.3c1.1,10,4.2,19.9,4.6,29.9c1,21.8-10.1,42.1-20.9,61h-0.1c-3.9,6.8-2.9,10.7-2.9,10.7h142.5
		C176.3,215.6,177.3,211.7,173.6,204.9z"/>
	<path class="st10" d="M66.1,125.9c0,6.8,3.2,12.4,7,12.4s7-5.6,7-12.4c0-0.9,0-1.8-0.1-2.6c-0.7-5.6-3.5-9.7-6.8-9.7
		C69.3,113.5,66.1,119,66.1,125.9z"/>
	<ellipse class="st11" cx="71" cy="123.9" rx="3.9" ry="6.9"/>
	<path class="st12" d="M65.1,125.9c0,0,10.3-12.9,15.7-3.1c-0.8-6.4-4-11.3-7.8-11.3C68.8,111.5,65.1,117.9,65.1,125.9z"/>
	<path class="st11" d="M65.1,125.9c0.8-1.4,1.9-2.6,3.2-3.6c1.2-1.2,2.6-2.1,4.2-2.8c1.6-0.8,3.5-0.9,5.2-0.3
		c1.6,0.7,2.9,1.9,3.8,3.5l-0.6-0.3c1.1,0,2.2-0.5,2.9-1.4c0.7-1,1-2.3,0.7-3.5c0.3,0.6,0.5,1.3,0.6,1.9c0,0.7-0.1,1.4-0.4,2
		c-0.8,1.2-2,2.1-3.5,2.4h-0.4l-0.3-0.4c-0.7-1.2-1.9-2.2-3.2-2.8c-1.4-0.4-2.9-0.3-4.2,0.3c-1.4,0.6-2.8,1.3-4,2.2
		C67.6,123.9,66.3,124.8,65.1,125.9z"/>
	<path class="st11" d="M79.7,120.7c0.9-0.3,1.5-1,1.7-1.9c0.3-1,0.1-2-0.6-2.8c0.8,0.8,1.2,1.8,1.2,2.9c-0.1,1.2-0.8,2.3-1.8,2.9
		l0,0c-0.3,0.1-0.7,0.1-0.8-0.1C79.2,121.3,79.4,120.9,79.7,120.7C79.6,120.8,79.6,120.7,79.7,120.7z"/>
	<path class="st0" d="M59.3,121.3c0.2-2.3,0.7-4.6,1.4-6.8c0.8-2.2,1.8-4.4,2.9-6.4c2.5-4,5.8-7.5,9.7-10.2c2-1.3,4.2-2.3,6.4-3.1
		c2.3-0.8,4.8-1.1,7.3-0.8c2.6,0.2,4.9,1.5,6.4,3.6c1.3,2.1,1.5,4.7,0.4,7c0.3-2.2-0.3-4.4-1.7-6.1c-1.4-1.4-3.4-2.2-5.4-2.1
		c-2.1,0-4.2,0.4-6.1,1.1c-2,0.7-3.9,1.7-5.7,2.9c-1.8,1.2-3.6,2.5-5.2,4c-1.5,1.5-3,3.1-4.3,4.9c-1.2,1.8-2.5,3.6-3.6,5.6
		C61,117.1,60.1,119.2,59.3,121.3z"/>
	<path class="st0" d="M75.2,91.1c-4.7,3.6-10.2,2-14.9,0.2l-2.3-1c-1.1-0.5-1.6-1.7-1.1-2.8c0.1-0.2,0.2-0.4,0.4-0.6l1.5-1.7
		c1.9-2.1,4.1-4.1,6.5-5.8c0.9-0.7,2.1-0.9,3.3-0.6c0.8,0.2,1.7,0.3,2.6,0.2c2.8-0.4,6.2-1.4,7.8,1.4C80.6,83.4,78.2,88.8,75.2,91.1
		z"/>
	<path class="st0" d="M96.1,71c0,1.6,0.2,3.5-1.2,4.4s-2.6-0.4-3.6-1.5c-1-1-1.7-2.2-2.3-3.4c-0.6-1.3-0.6-2.8,0-4.2
		c0.7-1.3,1.9-2.3,3.4-2.9C99.5,60.4,96.1,67.1,96.1,71z"/>
	<path class="st0" d="M86.3,61.6c0.8-1.9,2.1-4.4,0.8-5.8s-3.7-0.4-5.4,0.7c-1.7,1-3.3,2.1-4.7,3.4c-1.3,1.5-2.4,3.5-2.3,5.4
		c0.3,1.9,1.3,3.5,2.9,4.6C85.1,76,84.2,66.6,86.3,61.6z"/>
	<path class="st0" d="M96.7,52.3c-0.6-0.4-1.3-0.5-1.9-0.5c-0.7,0-1.4,0.4-1.7,1c-0.2,0.5-0.2,1-0.2,1.4v2.5c0,0.8,0.6,1.5,1.4,1.5
		c0.1,0,0.3,0,0.4,0c1-0.2,1.9-0.8,2.5-1.7c1-1.4,0.7-3.7-0.8-4.2"/>
	<path class="st0" d="M98.7,46.2c-0.3-0.2-0.6-0.3-0.9-0.3c-0.4,0-0.7,0.2-0.9,0.5c-0.1,0.2-0.1,0.4-0.1,0.7v1.2
		c0,0.4,0.3,0.7,0.8,0.7c0,0,0.1,0,0.1,0c0.6-0.1,1-0.5,1.2-1c0.4-0.7,0.3-1.6-0.3-2.1"/>
	<path class="st0" d="M87.8,40.3c0.1,1.1,0.3,2.1,0.5,3.2c0.1,1.7-1.2,3.1-2,4.8c-0.2,0.3-0.3,0.7-0.3,1.1c0,0.4,0.2,0.7,0.5,0.9
		c0.4,0.2,0.8-0.1,1.1-0.4c1.4-1,2.8-1.9,4.2-2.9c1-0.6,1.8-1.4,2.5-2.3c1.1-1.6,0.7-5.1-1-6.3C91.3,36.8,88,37.6,87.8,40.3z"/>
	<path class="st9" d="M189.3,235.4c0,3.8-22.2,7.1-53.7,8.3c-9.4,0.4-19.6,0.6-30.3,0.6s-20.9-0.3-30.3-0.6
		c-31.4-1.2-53.8-4.6-53.8-8.3s22.2-7.1,53.8-8.4c9.5-0.4,19.6-0.6,30.3-0.6s20.9,0.3,30.3,0.6C167,228.4,189.3,231.7,189.3,235.4z"
		/>
	<polygon class="st9" points="21.1,206 21.1,235.4 189.3,235.4 189.3,206 171.6,210.4 105.3,212.4 33.5,210.4 	"/>
	<path class="st6" d="M176.5,201.2c0.6,0.8,1,1.8,1.5,2.6c2.2,0.4,3.5,1,3.5,1.5c0,0.1-0.1,0.4-0.6,0.6c-0.5,0.3-1.1,0.4-1.7,0.6
		c-5.8,1.7-23.5,2.9-46.6,3.5c-8.5,0.1-17.8,0.3-27.5,0.3s-18.9-0.1-27.5-0.3c-23.2-0.6-41-1.9-46.7-3.5c-0.5-0.1-1-0.3-1.5-0.6
		c-0.3-0.1-0.5-0.4-0.5-0.6c0-0.6,1.2-1,3.5-1.5c0.6-0.8,1-1.8,1.5-2.6c-8.2,1.4-12.8,3.1-12.8,4.8c0,1.4,3.1,2.8,8.5,3.9
		c9.3,1.9,25.5,3.6,45.3,4.4c9.5,0.4,19.6,0.6,30.3,0.6s20.9-0.3,30.3-0.6c19.6-0.8,35.8-2.4,45.1-4.4c5.6-1.3,8.6-2.5,8.6-3.9
		C189.3,204.3,184.6,202.6,176.5,201.2z"/>
	<path class="st13" d="M105.3,2.5c45.1,0,81.6,36.6,81.6,81.6v121.3c-2.6,1.9-18.1,5-51.5,6.4c-9.9,0.4-20,0.6-30.3,0.6
		s-20.3-0.1-30.2-0.6c-33.4-1.4-48.8-4.6-51.5-6.4V84.1C23.5,39.2,60.2,2.5,105.3,2.5 M105.3,0.1L105.3,0.1
		c-46.5,0-84.1,37.7-84.1,84.1v121.8c0,3.8,22.2,7.1,53.8,8.4c9.5,0.4,19.6,0.6,30.3,0.6s20.9-0.3,30.3-0.6
		c31.4-1.3,53.7-4.6,53.7-8.4V84.3c0.1-46.4-37.5-84.1-83.9-84.1C105.4,0.1,105.3,0.1,105.3,0.1L105.3,0.1z"/>
	<path class="st14" d="M177,195.5L177,195.5c0,1.6-1.1,2.9-2.6,3.1c-9,1.5-23.1,2.8-39.4,3.5c-9.6,0.4-19.6,0.6-29.9,0.6
		s-20.3-0.1-29.9-0.6c-18.1-0.7-33.2-2.2-42-3.9v-114c0-19,7.5-37.3,21-50.8c3.8-3.7,7.9-7.1,12.4-10c0.6-0.3,1.3-0.1,1.6,0.4
		c0.2,0.4,0.2,1-0.1,1.3l-0.1,0.1C54.3,38.7,46.8,57,46.9,76.1v114c8.8,1.8,23.9,3.2,42,3.9c9.6,0.4,19.6,0.6,29.9,0.6
		c10.2,0,20.3-0.1,29.9-0.6c9.2-0.4,17.7-1,24.9-1.7c1.8-0.1,3.3,1.2,3.4,3C177,195.4,177,195.4,177,195.5z"/>
	<g>
		<defs>
			<path id="SVGID_1_" d="M173.6,204.9c-10.7-18.9-21.8-39.2-20.9-61c0.4-10.1,3.5-19.9,4.6-29.9s0-21-6.7-28.7
				c-5-5.7-12.5-8.8-17.5-14.6c-3.1-3.6-5-7.9-6.5-12.4c-1.7-4.9,2.8-9.8,7.7-8.3h0.1c2.5,0.8,4.7,2.2,7.1,3.1
				c0.8,0.3,1.5,0.5,2.4,0.6c1.6,0.2,3.1-0.9,3.3-2.5c0.1-0.7-0.1-1.4-0.5-2c-8-11.6-18.1-18.6-42-16.8l0,0
				c-3.8,0.2-7.4,1.8-10.1,4.5c-2.4,2.2-4.3,4.9-5.6,7.9c-3.9,8.6-5.2,18.8-11.4,25.9c-3,3.4-6.8,5.9-10.5,8.6c-2.6,1.7-4.9,3.7-7,6
				c-0.9,1-1.7,2.1-2.4,3.3c-4.5,7.3-5.2,16.7-4.2,25.3c1.1,10,4.2,19.9,4.6,29.9c1,21.8-10.1,42.1-20.9,61h-0.1
				c-3.9,6.8-2.9,10.7-2.9,10.7h142.5C176.3,215.6,177.3,211.7,173.6,204.9z"/>
		</defs>
		<clipPath id="SVGID_2_">
			<use xlink:href="#SVGID_1_"  style="overflow:visible;"/>
		</clipPath>
		<g class="st15">
			<path class="st16" d="M84.3,152.4c-1.2,2.1-3,3.9-5.2,5.1c-2.2,1.2-4.6,2-7.1,2.2c-2.5,0.2-4.9,0.2-7.4-0.1
				c-2.2-0.1-4.6-0.3-6.8-0.3s-4.6,0.1-6.8,0.3c-2.4,0.3-4.9,0.4-7.4,0.1c-2.5-0.2-4.9-1-7.1-2.2c-2.2-1.2-4-3-5.1-5.1
				c3.5,3.2,8.1,4.3,12.5,4.3c1.1,0,2.2-0.1,3.3-0.3c1.2-0.1,2.3-0.3,3.5-0.6c2.4-0.4,4.8-0.6,7.2-0.6c2.4,0,4.8,0.2,7.2,0.6
				c1.3,0.1,2.2,0.4,3.5,0.6c1.1,0.2,2.2,0.3,3.3,0.3C76.5,157,81,155.5,84.3,152.4z"/>
			<path class="st0" d="M49.5,170.8c1.4,0.4,2.8,0.8,4.2,1c1.4,0.2,2.8,0.3,4.2,0.3c1.3,0,2.7-0.1,4-0.4c1.4-0.3,2.8-0.7,4.2-1.1
				c-1,1.2-2.2,2.2-3.6,2.9c-1.4,0.7-3,1-4.6,1c-1.6,0-3.1-0.3-4.6-0.8C51.8,172.9,50.5,172,49.5,170.8z"/>
		</g>
	</g>
	<path class="st1" d="M57.9,148.4c0,0-6.1,2.4-0.6,6.9l8.9-1.5l-0.2-4.8L57.9,148.4z"/>
	<path class="st1" d="M56.6,159.4c0,0-10.2,5.2-2.9,12.4l12.1-6.2l-1-4.2L56.6,159.4z"/>
</g>
<path id="f-arm" class="st1" d="M84.8,274.1c-8.1,10.6-9,28.4-2,41.2c6.4,11.9,18.7,19.8,21.5,33.4c1.9,9.4-1.4,18.6-3.3,27.8
	s-0.6,19.7,5.4,26.3c3.6,4,7.8,7,9.4,4.3c1.7-2.8-1.8-11.3-2.3-14.9c-0.8-5.2,1-10.4,3.5-14.5s5.8-7.4,8.6-11.3
	c8.8-12.5,15.8-33,14.4-49.9c-1.2-14.4-7.2-34-17.6-47.7c-3.8-5-10.8-13.6-16.7-13.1C98.2,256.5,89.1,268.5,84.8,274.1z"/>
</svg>
