<?xml version="1.0" encoding="utf-8"?>
<!-- Generator: Adobe Illustrator 25.2.0, SVG Export Plug-In . SVG Version: 6.00 Build 0)  -->
<svg version="1.1" id="Layer_1" xmlns="http://www.w3.org/2000/svg" xmlns:xlink="http://www.w3.org/1999/xlink" x="0px" y="0px"
	 viewBox="0 0 277.6 597.2" style="enable-background:new 0 0 277.6 597.2;" xml:space="preserve">
<style type="text/css">
	.st0{fill:#F473C2;}
	.st1{fill:#F4A8D7;}
	.st2{fill:#F486CA;}
	.st3{fill:#DB67AE;}
	.st4{fill:#C15B9A;}
	.st5{fill:#491D87;}
	.st6{fill:none;stroke:#66419B;stroke-width:5.18;stroke-linecap:round;stroke-linejoin:round;}
	.st7{fill:#66419B;}
	.st8{fill:#989898;}
	.st9{opacity:0.5;fill:#68DFE7;enable-background:new    ;}
	.st10{fill:#808080;}
	.st11{fill:#FFFFFF;}
	.st12{fill:#7A0406;}
	.st13{fill:#CD539D;}
	.st14{fill:#4AA6C0;}
	.st15{opacity:0.5;fill:#FFFFFF;enable-background:new    ;}
	.st16{clip-path:url(#SVGID_2_);}
	.st17{fill:#A54E83;}
</style>
<g id="legs">
	<path class="st0" d="M83.1,542.3c4.9,4.5,11,7.5,17.5,8.6c3,0.4,6,0.5,9,0.3c1.5-0.1,2.9-0.4,4.4-0.5c0.9-0.3,1.8-0.6,2.7-1.1
		c3.3-1.8,6.7-5.8,8.9-10.7c1.1-2.5,2-5.1,2.6-7.8c0.3-1.4,0.6-2.9,0.7-4.3c0.3-1.5,0.4-3.1,0.4-4.6c0.3-6.6,0.1-13.2-0.7-19.8
		c-0.1-1.7-0.4-3.5-0.6-5.3l-0.7-5.6c-0.3-2.2-0.4-4-0.6-6l-0.6-5.8c-1.4-15.6-2.6-31.1-3.6-46.7l0,0c-1.1-13.8,9.3-25.9,23.1-26.9
		s25.9,9.3,26.9,23.1c0,0.3,0,0.5,0,0.8v3.1c-1,15.3-2.2,30.6-3.6,46l-0.6,5.7c-0.1,1.8-0.4,3.9-0.4,5.6l-0.4,6
		c-0.1,2.1-0.3,4.2-0.4,6.3c-0.6,9-2.1,17.8-4.6,26.5c-0.7,2.2-1.4,4.5-2.2,6.7s-1.8,4.5-2.8,6.7c-2.2,4.6-4.9,8.8-8.1,12.8
		c-3.2,4.1-7,7.7-11.3,10.7c-4.6,3.3-9.8,5.7-15.3,6.8c-2.9,0.6-5.8,0.8-8.8,0.7c-2.4-0.2-4.8-0.5-7.1-1.1c-4.7-1-9.2-2.8-13.3-5.1
		c-4.1-2.4-7.7-5.5-10.7-9.2c-2.9-3.5-5-7.6-6.3-12c-0.6-2,0.6-4,2.6-4.6c0,0,0.1,0,0.1,0C80.9,541.1,82.1,541.5,83.1,542.3
		L83.1,542.3z"/>
	<path class="st0" d="M272.2,555.7c-3.2,0.3-6.2,1.5-8.8,3.3c-2.8,2-5.5,4.3-8.1,6.7c-3.3,3-6.8,5.7-10.6,8.1
		c-2.5,1.5-5.2,2.6-8.1,3.3c-1.6,0.4-3.3,0.6-5,0.7c-1.5,0-3.1,0-4.6-0.1c-5.8-0.6-11.5-2.6-16.4-5.7c-4.6-2.9-8.7-6.4-12.2-10.4
		c-3.5-3.8-6.4-8.1-8.8-12.7c-2.3-4.4-4.1-9-5.6-13.8c-2.7-8.8-4.4-17.8-5-27c-0.4-4.3-0.7-8.6-0.8-12.7l-0.1-2.6l-0.3-2.9l-0.6-5.8
		c-1.4-15.6-2.6-31.3-3.6-46.9c-0.8-13.8,9.7-25.7,23.5-26.6c13.8-0.8,25.7,9.7,26.6,23.5v3.1c-1,15.9-2.2,31.7-3.6,47.6l-0.6,6
		l-0.3,2.9l-0.4,3.2c-0.6,3.8-1,7.4-1.4,10.9c-0.8,6.6-0.9,13.3-0.4,19.9c0.3,2.9,0.8,5.9,1.4,8.8c0.7,2.7,1.7,5.3,2.9,7.8
		c1.2,2.3,2.7,4.4,4.4,6.2c1.4,1.5,3.1,2.7,5,3.6c0.4,0.1,0.9,0.3,1.2,0.6c0.3,0.2,0.5,0.3,0.8,0.3c1.1,0.1,2.2,0,3.2-0.3
		c2.8-0.6,6.1-2.1,10-3.6c4.1-1.8,8.5-3.1,12.9-4c2.4-0.4,4.9-0.5,7.4-0.3c2.5,0.2,4.9,0.9,7.1,2c1.8,0.9,2.5,3.1,1.7,4.9
		c-0.6,1.1-1.7,1.9-2.9,2.1L272.2,555.7z"/>
	<path class="st1" d="M87.6,566.1c1.9-1.4,3.9-2.6,6.1-3.5c2.2-1,4.6-1.7,6.9-2.1c4.8-0.8,9.8-0.7,14.6,0.3c4.6,1,9,2.4,12.9,3.6
		c1.9,0.7,3.9,1.2,5.4,1.7s3.1,0.7,3.5,0.4c1-0.9,2-1.9,2.9-2.9c1.7-2.3,3-4.7,4-7.4c2.4-6,3.2-12.5,3.6-19.9c0.3-7.5,0-15-0.8-22.4
		c-0.4-3.9-0.8-7.8-1.2-11.8c-0.3-2.2-0.4-4.3-0.6-6.4l-0.6-6.3c-1.4-16.5-2.6-33.1-3.5-49.8l0,0c-0.7-12.6,9-23.4,21.6-24.1
		s23.4,9,24.1,21.6v2.6c-1,16.4-2.2,32.8-3.5,49.2l-0.6,6.1c-0.1,2.1-0.4,4.2-0.4,6c-0.3,4.2-0.6,8.5-0.8,12.9
		c-0.7,9.1-2.1,18.1-4.2,27c-2.1,9.6-5.9,18.8-11.3,27.1c-3,4.6-6.7,8.8-11,12.2c-2.6,2-5.4,3.6-8.5,4.7c-1.7,0.6-3.5,1-5.3,1.2
		c-0.9,0.1-1.9,0.2-2.8,0.1c-1,0.1-2,0-2.9-0.3c-3-0.5-5.8-1.5-8.5-2.9c-2.2-1.1-4-2.2-5.8-3.3c-3.5-2.1-6.7-4.2-9.9-5.7
		c-3.1-1.5-6.4-2.6-9.9-3.2c-1.8-0.3-3.5-0.3-5.3-0.1c-1.8,0.1-3.6,0.4-5.4,0.8h-0.1c-1.7,0.4-3.5-0.7-3.9-2.4c0,0,0-0.1,0-0.1
		C86,568.2,86.4,566.8,87.6,566.1C87.6,566.2,87.6,566.2,87.6,566.1z"/>
	<path class="st2" d="M245.2,567.4c-3.3,0-6.5,0.7-9.4,2.1c-3,1.6-5.8,3.5-8.4,5.7c-1.4,1.1-2.9,2.4-4.7,3.8c-2,1.5-4.1,2.7-6.4,3.8
		c-1.4,0.6-2.9,1.1-4.4,1.4c-0.9,0.2-1.8,0.3-2.6,0.3h-2.6c-3.2-0.3-6.4-1.2-9.3-2.6c-2.5-1.3-4.9-2.9-7-4.9
		c-1.9-1.7-3.7-3.6-5.3-5.6c-3-3.8-5.5-7.8-7.6-12.1c-1-2.1-2-4.2-2.8-6.4c-0.4-1.1-0.8-2.2-1.1-3.2l-1-3.2
		c-1.2-4.3-2.2-8.5-3.1-12.8c-1.5-8.3-2.6-16.6-3.1-25l-0.4-6.1c-0.1-2.1-0.1-3.6-0.4-5.7l-1-11.7c-1.2-15.6-2.4-31-3.2-46.5
		c-0.7-11.7,8.3-21.8,20-22.5c11.7-0.7,21.8,8.3,22.5,20v2.5l0,0c-0.8,15.7-2,31.3-3.2,47l-1,11.7c-0.1,2-0.4,4.2-0.6,6l-0.6,5.6
		c-0.8,7.2-1.2,14.4-1.1,21.6c0,3.5,0.3,7,0.6,10.3l0.3,2.5c0.1,0.8,0.3,1.5,0.4,2.4c0.3,1.5,0.6,3.2,1,4.7c0.8,2.9,1.9,5.8,3.2,8.5
		c1,2.2,2.5,4.1,4.2,5.8c0.5,0.5,1.1,0.9,1.7,1.2l0.3,0.1c0.1,0.1,0.2,0.1,0.3,0.1c0.4,0.1,0.7,0.1,1.1,0c1.4-0.3,2.8-0.7,4.2-1.2
		l5.3-2.2c4.1-1.9,8.5-3.2,12.9-3.8c4.7-0.6,9.4,0.2,13.6,2.2c1.6,0.8,2.3,2.8,1.6,4.4c0,0,0,0,0,0c-0.6,1.1-1.8,1.8-3.1,1.8
		L245.2,567.4z"/>
	<path class="st0" d="M182.3,560.2c-0.1-10.4,2.4-20.5,4.2-30.8c5.1-28.2,5.8-56.9,2.1-85.3c-1.6-12.2-8.5-16.8-15.9-16.1
		c-7.4-0.7-14.2,3.9-15.9,16.1c-3.7,28.4-3,57.1,2.1,85.3c1.8,10.2,4.3,20.4,4.2,30.8c0,6.2-1.2,12.3-3.5,18
		c-2.9,6.9,0.3,14.9,7.3,17.8c1.8,0.7,3.7,1.1,5.6,1.1h0.4c7.5,0.2,13.7-5.8,13.9-13.3c0-1.9-0.3-3.8-1.1-5.6
		C183.5,572.5,182.3,566.4,182.3,560.2z"/>
	<path class="st3" d="M162.3,592.1c1.1-1.9,2.4-3.7,3.8-5.4l0.5-0.6c0.2-0.2,0.4-0.5,0.6-0.7s0.5-0.4,0.7-0.6s0.5-0.4,0.8-0.5
		c1.2-0.6,2.4-1,3.8-1c1.3,0,2.6,0.3,3.8,0.9c0.6,0.3,1.1,0.7,1.6,1.1c0.5,0.4,0.9,0.9,1.2,1.3c1.4,1.7,2.6,3.6,3.6,5.5
		c-1.9-1.1-3.7-2.4-5.4-3.9c-0.4-0.3-0.7-0.6-1.1-0.9c-0.4-0.2-0.8-0.4-1.2-0.6c-0.8-0.3-1.7-0.5-2.5-0.5c-0.9,0-1.7,0.2-2.5,0.5
		c-0.2,0.1-0.4,0.2-0.6,0.3l-0.6,0.3c-0.2,0.1-0.4,0.2-0.6,0.4l-0.6,0.5C166,589.7,164.2,591,162.3,592.1z"/>
</g>
<g id="b-arm">
	<path class="st0" d="M99.1,310.5c-20,4.1-54.9,5.9-77-50.4c-6.6-16.7-2.7-40.9-20.6-52.4c-1.8-1.2-2-3.7-0.4-4.5
		c20.8-7.4,35.9,10,42.1,31.4c7.7,20.6,24.2,22.7,37.5,12l2.6-3.5l1.6,2.7C96.4,265.2,101.4,287.9,99.1,310.5z"/>
	<path class="st4" d="M39.7,288.5c0.6,0.7,0.5,1.7-0.2,2.2c-0.3,0.2-0.7,0.4-1,0.4c-1.3-0.3-2.5-0.9-3.5-1.8
		c-1.2-0.8-1.8-2.3-1.6-3.7c0.3-1.4,2.3-2.5,3.2-1.3L39.7,288.5L39.7,288.5z"/>
	<path class="st4" d="M13.3,216c3.7,2.7,6.2,6.8,6.9,11.4c0.2,1.5-0.4,3-1.7,3.9c-1.9,1-3.7-0.3-4.8-1.7c-3-3.8-3.8-8.9-2.2-13.4
		l0,0C12.1,215.7,12.8,215.6,13.3,216z"/>
	<path class="st4" d="M16.9,240c-0.1-0.8,0.4-1.6,1.3-1.8c0.5-0.1,1,0.1,1.4,0.5c0.9,1.2,1.6,2.6,1.9,4.1c0.3,1.5,0.2,3.4-1,4.4
		s-3.5,0.4-3.6-1.2C16.8,244,16.8,242.1,16.9,240L16.9,240z"/>
	<path class="st4" d="M23.6,236.2c-0.7-1.2,0.8-3.1,2-2.8c1.2,0.4,2.3,1.2,3.2,2.2c1,1.3,1.3,3,0.5,4.5c-0.8,1.7-3.1,2.6-3.8,1.4
		C25,239.7,24.3,237.9,23.6,236.2L23.6,236.2z"/>
	<path class="st4" d="M23.8,253.4c1.6,1.2,2.8,2.9,3.4,4.9c0.2,1,0,2-0.4,2.9c-1.9,3.2-6.4,1.3-7.4-1.8c-0.7-2.2,0-4.7,1-6.9
		c0.3-0.5,1-0.8,1.6-0.5l0,0C22.6,252.5,23.2,253,23.8,253.4z"/>
	<path class="st4" d="M28.5,246.7c1.3,0.5,2.3,1.7,2.6,3.1c0.2,0.9-0.1,1.9-0.8,2.6c-1.1,0.6-2.5-0.1-3.4-1
		c-0.5-0.6-0.9-1.3-1.1-2.1c-0.2-0.8,0.1-1.7,0.8-2.3c0.7-0.5,1.6-0.6,2.3-0.1"/>
	<path class="st4" d="M28.7,268.6c3.4,1.3,5.9,4.3,6.6,7.9c0.1,1.4-0.5,2.7-1.7,3.3c-1.5,0.9-3.4,0.7-4.6-0.6
		c-2.8-2.5-3.5-6.5-1.9-10.2l0,0C27.5,268.5,28.2,268.3,28.7,268.6z"/>
	<path class="st4" d="M32.1,265.5c-1.2-0.6-1.1-3,0.2-3.4c1.3-0.3,2.6-0.2,3.9,0.2c1.5,0.5,2.6,1.9,2.8,3.5c0.3,1.8-1.2,3.9-2.5,3.1
		C35.2,267.7,33.7,266.6,32.1,265.5L32.1,265.5z"/>
	<path class="st4" d="M44.4,284.5c2,0.4,4,0.8,5.5,2.3c0.7,0.7,1.1,1.7,1.2,2.7c0.2,3.7-4.7,4.5-7.1,2.4c-1.7-1.7-2.7-4-2.9-6.4
		c-0.1-0.6,0.3-1.1,0.9-1.2c0.1,0,0.1,0,0.2,0l0,0C42.9,284.4,43.6,284.4,44.4,284.5z"/>
	<path class="st4" d="M45.8,276.1c1.4-0.2,2.9,0.2,3.9,1.2c0.8,0.7,1,1.7,0.7,2.7c-0.5,1.2-2.2,1.3-3.4,0.9
		c-0.8-0.2-1.5-0.7-2.1-1.2c-0.5-0.6-0.7-1.5-0.6-2.3c0.3-0.8,1-1.4,1.9-1.3"/>
	<circle class="st4" cx="38.9" cy="276.9" r="1.4"/>
</g>
<g id="body">
	<path class="st5" d="M277.6,296.4c0,10.1-1.6,20.2-4.6,29.9c-2.2,6.7-5,13.2-8.6,19.3l-36.6,73.1c-36,12-75,12-111,0l-9.5-18.9
		l-27.8-55.6c-3.8-6.8-6.7-14-8.8-21.4c0-0.2-0.1-0.3-0.1-0.5c-7.1-25.8-3.3-53.4,10.5-76.3c0.4-0.7,1-1.5,1.4-2.2
		c4.9-7.8,10.8-14.9,17.7-21c41.2-37.1,103.7-37.1,144.9,0c7.5,6.8,13.9,14.6,19,23.2c0.3,0.6,0.7,1.1,1,1.7
		C273.2,262.6,277.6,279.3,277.6,296.4z"/>
	<path class="st6" d="M71,274.8L71,274.8c66.9,12.8,135.7,12.8,202.6,0l0,0"/>
	<path class="st7" d="M122.7,378.4l-8,21.9c-2.5,0.3-5,0.2-7.3-0.5l-27.8-55.6c-3.8-6.8-6.7-14-8.8-21.4c0-0.2-0.1-0.3-0.1-0.5
		l-0.9-3.5l32,2.8c2.9,0,5.6,1.6,7.1,4.2l13.6,30.9C125.5,363.6,125.6,371.4,122.7,378.4z"/>
	<path class="st7" d="M175,252.1c2.2,1.4,4.3,3.1,6.2,4.8c0.4,0.4,0.9,0.8,1.3,1.2l1.2,1.2c0.9,0.8,1.5,1.6,2.2,2.4
		c2.6,2.9,4.9,6.2,6.8,9.6c3.2,5.9,5,12.5,5.3,19.3c0.3,6.7-1.3,13.4-4.5,19.3c-1.9,3.5-4.2,6.7-6.9,9.6c-0.8,0.8-1.6,1.6-2.4,2.4
		s-1.7,1.6-2.7,2.4c-2.1,1.8-4.3,3.4-6.7,4.8c-1.6,1-3.7,1-5.3,0c-2.4-1.4-4.6-3-6.7-4.8c-1-0.8-1.8-1.6-2.7-2.4s-1.6-1.6-2.4-2.4
		c-2.7-2.9-5-6.2-6.9-9.6c-3.2-5.9-4.7-12.6-4.4-19.3c0.3-6.8,2.1-13.4,5.4-19.3c1.9-3.5,4.2-6.7,6.8-9.6c0.8-0.8,1.4-1.6,2.2-2.4
		l1.2-1.2c0.4-0.4,0.9-0.8,1.3-1.2c1.9-1.8,4-3.4,6.2-4.8C171.3,251,173.4,251,175,252.1z"/>
	<path class="st8" d="M232.6,423.5v0.4c0,7.1-5,13.4-12.7,15.3c-31.3,8-64.1,8-95.4,0c-7.7-1.9-12.8-8.5-12.7-15.6
		c0-1.8,0-3.5-0.1-5.1c-0.1-1.4,0.9-2.7,2.4-2.9c0.3,0,0.7,0,1,0.1c12.2,3.6,53.1,12.8,114.6-0.4c1.4-0.3,2.7,0.6,3,1.9
		c0.1,0.3,0.1,0.6,0,0.8C232.7,419.7,232.6,421.7,232.6,423.5z"/>
</g>
<g id="head">
	<path class="st9" d="M256.3,205.3H88.2V84.1C88.2,37.7,125.9,0,172.3,0l0,0c46.5,0,84.1,37.7,84.1,84.1L256.3,205.3L256.3,205.3z"
		/>
	<path class="st8" d="M202.6,197.6c-9.5-0.4-19.6-0.6-30.3-0.6s-20.9,0.3-30.3,0.6c-31.4,1.2-53.8,4.6-53.8,8.3s22.3,7,53.8,8.4
		c9.5,0.4,19.6,0.6,30.3,0.6s20.9-0.3,30.3-0.6c31.4-1.2,53.7-4.6,53.7-8.4S234.1,199,202.6,197.6z M199.7,210.1
		c-8.5,0.1-17.8,0.3-27.5,0.3s-18.9-0.1-27.5-0.3c-25.9-0.7-44.9-2.2-48.3-4c-0.3-0.1-0.6-0.4-0.6-0.6c0-2.1,20.2-3.9,48.8-4.7
		c8.5-0.1,17.8-0.3,27.5-0.3s18.9,0.1,27.5,0.3c28.5,0.7,48.7,2.5,48.7,4.7c0,0.1-0.1,0.4-0.6,0.6
		C244.8,207.9,225.7,209.4,199.7,210.1L199.7,210.1z"/>
	<path class="st8" d="M256.3,206c0,3.8-22.2,7.1-53.7,8.4c-9.5,0.4-19.6,0.6-30.3,0.6s-20.9-0.3-30.3-0.6
		c-31.4-1.2-53.8-4.6-53.8-8.4s22.3-7.1,53.8-8.3c9.5-0.4,19.6-0.6,30.3-0.6s20.9,0.3,30.3,0.6C234.1,199,256.3,202.2,256.3,206z"/>
	<path class="st10" d="M248.5,205.4c0,2.1-20.2,3.9-48.7,4.7c-8.5,0.1-17.8,0.3-27.5,0.3s-18.9-0.1-27.5-0.3
		c-28.5-0.7-48.8-2.5-48.8-4.7s20.2-3.9,48.8-4.7c8.5-0.1,17.8-0.3,27.5-0.3s18.9,0.1,27.5,0.3C228.2,201.5,248.5,203.3,248.5,205.4
		z"/>
	<path class="st0" d="M240.6,204.9c-10.7-18.9-21.8-39.2-20.9-61c0.4-10.1,3.5-19.9,4.6-29.9s0-21-6.7-28.7
		c-5-5.7-12.5-8.8-17.5-14.6c-3.1-3.6-5-7.9-6.5-12.4c-1.7-4.9,2.8-9.8,7.7-8.3h0.1c2.5,0.8,4.7,2.2,7.1,3.1
		c0.8,0.3,1.5,0.5,2.4,0.6c1.6,0.2,3-0.9,3.2-2.5c0.1-0.7-0.1-1.4-0.5-2c-8-11.6-18.1-18.6-42-16.8l0,0c-3.8,0.2-7.4,1.8-10.1,4.5
		c-2.4,2.2-4.3,4.9-5.6,7.9c-3.9,8.6-5.1,18.8-11.4,25.9c-3,3.4-6.8,5.9-10.5,8.6c-2.6,1.7-4.9,3.7-7.1,6c-0.9,1-1.7,2.1-2.4,3.3
		c-4.5,7.3-5.2,16.7-4.2,25.3c1.1,10,4.2,19.9,4.6,29.9c1,21.8-10.2,42.1-20.9,61h-0.1c-3.9,6.9-2.9,10.8-2.9,10.8h142.5
		C243.4,215.6,244.4,211.7,240.6,204.9z"/>
	<path class="st11" d="M133.2,125.9c0,6.8,3.2,12.4,7,12.4s6.9-5.6,6.9-12.4c0-0.9,0-1.8-0.1-2.6c-0.7-5.6-3.5-9.7-6.8-9.7
		C136.4,113.5,133.2,119,133.2,125.9z"/>
	<ellipse class="st12" cx="138" cy="123.9" rx="3.9" ry="6.9"/>
	<path class="st13" d="M132.2,125.9c0,0,10.3-12.9,15.7-3.1c-0.8-6.4-4-11.3-7.8-11.3C135.8,111.5,132.2,117.9,132.2,125.9z"/>
	<path class="st12" d="M132.2,125.9c0.8-1.4,1.9-2.6,3.2-3.6c1.2-1.2,2.6-2.1,4.2-2.8c1.6-0.8,3.5-0.9,5.1-0.3
		c1.6,0.7,2.9,1.9,3.8,3.5l-0.6-0.3c1.1,0,2.2-0.5,2.9-1.4c0.7-1,1-2.3,0.7-3.5c0.3,0.6,0.5,1.3,0.6,1.9c0,0.7-0.1,1.4-0.4,2
		c-0.8,1.2-2,2.1-3.5,2.4h-0.4l-0.3-0.4c-0.7-1.2-1.9-2.2-3.2-2.8c-1.4-0.4-2.9-0.3-4.2,0.3c-1.4,0.6-2.8,1.3-4,2.2
		C134.7,123.9,133.4,124.8,132.2,125.9z"/>
	<path class="st12" d="M146.8,120.7c0.9-0.3,1.5-1,1.7-1.9c0.3-1,0.1-2-0.6-2.8c0.8,0.8,1.2,1.8,1.1,2.9c-0.1,1.2-0.8,2.3-1.8,2.9
		l0,0c-0.3,0.1-0.7,0.1-0.8-0.1C146.2,121.3,146.4,120.9,146.8,120.7C146.6,120.8,146.6,120.7,146.8,120.7z"/>
	<path class="st3" d="M126.3,121.3c0.2-2.3,0.7-4.6,1.4-6.8c0.8-2.2,1.7-4.4,2.9-6.4c2.5-4,5.8-7.5,9.7-10.2c2-1.3,4.2-2.3,6.4-3.1
		c2.3-0.8,4.8-1.1,7.2-0.8c2.6,0.2,4.9,1.5,6.4,3.6c1.3,2.1,1.5,4.7,0.4,7c0.3-2.2-0.3-4.4-1.7-6.1c-1.4-1.4-3.4-2.2-5.4-2.1
		c-2.1,0-4.2,0.4-6.1,1.1c-2,0.7-3.9,1.7-5.7,2.9c-1.8,1.2-3.6,2.5-5.1,4c-1.5,1.5-3,3.1-4.3,4.9c-1.2,1.8-2.5,3.6-3.6,5.6
		C128,117.1,127.2,119.2,126.3,121.3z"/>
	<path class="st3" d="M142.3,91.1c-4.7,3.6-10.2,2-14.9,0.2l-2.3-1c-1.1-0.5-1.6-1.7-1.1-2.8c0.1-0.2,0.2-0.4,0.4-0.6l1.5-1.7
		c1.9-2.1,4.1-4.1,6.5-5.8c1-0.7,2.2-0.9,3.3-0.6c0.8,0.2,1.7,0.3,2.6,0.2c2.8-0.4,6.2-1.4,7.8,1.4
		C147.7,83.4,145.3,88.8,142.3,91.1z"/>
	<path class="st3" d="M163.2,71c0,1.6,0.2,3.5-1.2,4.4s-2.6-0.3-3.6-1.4c-1-1-1.8-2.2-2.4-3.5c-0.6-1.3-0.6-2.8,0-4.2
		c0.7-1.3,1.9-2.3,3.4-2.9C166.5,60.4,163.2,67.1,163.2,71z"/>
	<path class="st3" d="M153.3,61.6c0.8-1.9,2.1-4.4,0.8-5.8s-3.7-0.4-5.4,0.7c-1.7,1-3.2,2.1-4.7,3.4c-1.4,1.4-2.2,3.4-2.3,5.4
		c0.3,1.9,1.3,3.5,2.9,4.6C152.1,76,151.2,66.6,153.3,61.6z"/>
	<path class="st3" d="M163.8,52.3c-0.6-0.4-1.3-0.5-1.9-0.5c-0.7,0-1.4,0.4-1.7,1c-0.2,0.5-0.2,1-0.2,1.4v2.5c0,0.8,0.6,1.5,1.3,1.5
		c0.1,0,0.3,0,0.4,0c1-0.2,1.9-0.8,2.5-1.7c1-1.4,0.7-3.7-0.8-4.2"/>
	<path class="st3" d="M165.8,46.2c-0.3-0.2-0.6-0.3-0.9-0.3c-0.4,0-0.7,0.2-0.9,0.5c-0.1,0.2-0.1,0.5-0.1,0.7v1.2
		c0,0.4,0.4,0.8,0.8,0.7c0,0,0.1,0,0.1,0c0.5-0.1,1-0.5,1.2-1c0.5-0.7,0.3-1.7-0.4-2.2"/>
	<path class="st3" d="M154.9,40.3c0.1,1.1,0.3,2.1,0.5,3.2c0.1,1.7-1.2,3.1-2,4.8c-0.2,0.3-0.3,0.7-0.4,1.1c0,0.3,0.2,0.7,0.5,0.9
		c0.4,0.2,0.8-0.1,1.1-0.4c1.4-1,2.8-1.9,4.2-2.9c1-0.6,1.8-1.4,2.5-2.3c1.1-1.6,0.7-5.1-1-6.3C158.4,36.8,155.1,37.6,154.9,40.3z"
		/>
	<path class="st10" d="M238.7,210.4l-66.3,2l-71.8-2L88.2,206v29.5l0,0c0,3.8,22.4,7.1,53.8,8.3c9.5,0.3,19.6,0.6,30.3,0.6
		s20.9-0.1,30.3-0.6c31.4-1.2,53.7-4.6,53.7-8.3V206L238.7,210.4z"/>
	<path class="st8" d="M243.5,201.2c0.6,0.8,1,1.8,1.5,2.6c2.2,0.4,3.5,1,3.5,1.5c0,0.1-0.1,0.4-0.6,0.6c-0.5,0.2-1.1,0.4-1.7,0.6
		c-5.8,1.7-23.5,2.9-46.6,3.5c-8.5,0.1-17.8,0.3-27.5,0.3s-18.9-0.1-27.5-0.3c-23.2-0.6-41-1.9-46.7-3.5c-0.5-0.1-1-0.3-1.5-0.5
		c-0.3-0.1-0.6-0.4-0.6-0.6c0-0.6,1.3-1,3.5-1.5c0.6-0.8,1-1.8,1.5-2.6c-8.2,1.4-12.8,3.1-12.8,4.7c0,1.4,3.1,2.8,8.5,3.9
		c9.3,1.9,25.4,3.6,45.3,4.4c9.4,0.4,19.6,0.6,30.3,0.6s20.9-0.3,30.3-0.6c19.6-0.8,35.7-2.4,45.1-4.4c5.6-1.3,8.6-2.5,8.6-3.9
		C256.3,204.3,251.6,202.6,243.5,201.2z"/>
	<path class="st14" d="M172.3,2.5C217.4,2.5,254,39,254,84.1v121.3c-2.6,1.9-18.1,5-51.5,6.4c-9.9,0.4-20,0.6-30.3,0.6
		s-20.3-0.1-30.2-0.6c-33.4-1.4-48.8-4.6-51.4-6.4V84.1C90.7,39.1,127.3,2.6,172.3,2.5 M172.3,0.1L172.3,0.1
		c-46.5,0-84.1,37.7-84.1,84.1v121.8c0,3.8,22.3,7.1,53.8,8.4c9.5,0.4,19.6,0.6,30.3,0.6s20.9-0.3,30.3-0.6
		c31.4-1.3,53.7-4.6,53.7-8.4V84.3c0.1-46.4-37.5-84.1-83.9-84.1C172.4,0.1,172.4,0.1,172.3,0.1L172.3,0.1z"/>
	<path class="st15" d="M244.1,195.5L244.1,195.5c0,1.5-1.1,2.9-2.6,3.1c-9,1.5-23.1,2.8-39.4,3.5c-9.6,0.4-19.6,0.6-29.9,0.6
		s-20.3-0.1-29.9-0.6c-18.1-0.7-33.2-2.2-42-3.9v-114c0-19,7.5-37.3,21-50.8c3.8-3.7,7.9-7.1,12.4-10c0.5-0.3,1.3-0.1,1.6,0.4
		c0.3,0.5,0.2,1-0.2,1.4l-0.1,0.1c-13.5,13.4-21.1,31.7-21,50.8v114c8.8,1.8,23.9,3.2,42,3.9c9.6,0.4,19.6,0.6,29.9,0.6
		s20.3-0.1,29.9-0.6c9.2-0.4,17.7-1,24.9-1.7c1.8-0.1,3.3,1.2,3.5,3C244.1,195.4,244.1,195.5,244.1,195.5z"/>
	<g>
		<defs>
			<path id="SVGID_1_" d="M240.6,204.9c-10.7-18.9-21.8-39.2-20.9-61c0.4-10.1,3.5-19.9,4.6-29.9s0-21-6.7-28.7
				c-5-5.7-12.5-8.8-17.5-14.6c-3.1-3.6-5-7.9-6.5-12.4c-1.7-4.9,2.8-9.8,7.7-8.3h0.1c2.5,0.8,4.7,2.2,7.1,3.1
				c0.8,0.3,1.5,0.5,2.4,0.6c1.6,0.2,3-0.9,3.2-2.5c0.1-0.7-0.1-1.4-0.5-2c-8-11.6-18.1-18.6-42-16.8l0,0c-3.8,0.2-7.4,1.8-10.1,4.5
				c-2.4,2.2-4.3,4.9-5.6,7.9c-3.9,8.6-5.1,18.8-11.4,25.9c-3,3.4-6.8,5.9-10.5,8.6c-2.6,1.7-4.9,3.7-7.1,6c-0.9,1-1.7,2.1-2.4,3.3
				c-4.5,7.3-5.2,16.7-4.2,25.3c1.1,10,4.2,19.9,4.6,29.9c1,21.8-10.2,42.1-20.9,61h-0.1c-3.9,6.9-2.9,10.8-2.9,10.8h142.5
				C243.4,215.6,244.4,211.7,240.6,204.9z"/>
		</defs>
		<clipPath id="SVGID_2_">
			<use xlink:href="#SVGID_1_"  style="overflow:visible;"/>
		</clipPath>
		<g class="st16">
			<path class="st17" d="M151.3,152.4c-1.2,2.1-3,3.9-5.1,5.1c-2.2,1.2-4.6,2-7.1,2.2c-2.5,0.2-4.9,0.2-7.4-0.1
				c-2.2-0.1-4.6-0.3-6.8-0.3s-4.6,0.1-6.8,0.3c-2.4,0.3-4.9,0.4-7.4,0.1c-2.5-0.2-4.9-1-7.1-2.2c-2.2-1.2-4-3-5.1-5.1
				c3.5,3.2,8.1,4.3,12.5,4.3c1.1,0,2.2-0.1,3.3-0.3c1.1-0.1,2.2-0.3,3.5-0.6c2.4-0.4,4.8-0.6,7.2-0.6c2.4,0,4.8,0.2,7.2,0.6
				c1.2,0.1,2.2,0.4,3.5,0.6c1.1,0.2,2.2,0.3,3.3,0.3C143.6,157,148,155.5,151.3,152.4z"/>
			<path class="st3" d="M116.6,170.8c1.4,0.4,2.8,0.8,4.2,1c1.4,0.2,2.8,0.3,4.2,0.3c1.3,0,2.7-0.1,4-0.4c1.4-0.3,2.8-0.7,4.2-1.1
				c-1,1.2-2.2,2.2-3.6,2.9c-1.4,0.7-3,1-4.6,1c-1.6,0-3.1-0.3-4.6-0.8C118.9,172.9,117.6,172,116.6,170.8z"/>
		</g>
	</g>
	<path class="st0" d="M124.9,148.4c0,0-6.1,2.4-0.6,6.9l8.9-1.5l-0.2-4.8L124.9,148.4z"/>
	<path class="st0" d="M123.7,159.4c0,0-10.2,5.2-2.9,12.4l12.1-6.2l-1-4.2L123.7,159.4z"/>
</g>
<path id="f-arm" class="st0" d="M180.6,261.5c-3.8-4.5-10.5-5-15-1.3c-0.3,0.2-0.5,0.5-0.8,0.7c-7.5,7.8-18.2,19.7-22.9,29.5
	c-7.1,14.8-5.8,33.2-17.5,45c-8,8.2-30,9.9-40.6,14s-20.2,12.2-22.4,23.1c-1.3,6.4-1.2,13,2.7,13c4.1,0,10.1-9.3,13.2-12.2
	c4.7-4.3,11.2-5.8,17.2-5.7s11.8,1.5,17.8,1.9c19.2,1.3,45.1-4.5,61-17.1c11.8-9.4,18-21.1,23.4-37.3c2.7-8,3.5-16.5,2.4-24.8
	C198.1,283.3,187.9,270.2,180.6,261.5z"/>
</svg>
