<?xml version="1.0" encoding="utf-8"?>
<!-- Generator: Adobe Illustrator 25.2.0, SVG Export Plug-In . SVG Version: 6.00 Build 0)  -->
<svg version="1.1" id="Layer_1" xmlns="http://www.w3.org/2000/svg" xmlns:xlink="http://www.w3.org/1999/xlink" x="0px" y="0px"
	 viewBox="0 0 322.3 452.7" style="enable-background:new 0 0 322.3 452.7;" xml:space="preserve">
<style type="text/css">
	.st0{fill:#7333A3;}
	.st1{fill:#612B89;}
	.st2{fill:#90BD4A;}
	.st3{fill:#7EA540;}
	.st4{fill:#FAAA2D;}
	.st5{fill:#7356A4;}
	.st6{fill:#8463BE;}
	.st7{fill:#2E047A;}
	.st8{fill:#FAAF3B;}
	.st9{fill:#FAC26C;}
	.st10{fill:#5907E8;}
	.st11{fill:#F1F1F1;}
	.st12{fill:#EE8031;}
	.st13{fill:#A87DF1;}
	.st14{fill:#612B88;}
	.st15{fill:#7333A2;}
	.st16{fill:#3B224D;}
	.st17{fill:#FFFFFF;}
	.st18{fill:#261234;}
	.st19{fill:#8F5CB5;}
	.st20{fill:#853BBC;}
	.st21{fill:#472063;}
</style>
<g id="r-leg">
	<path class="st0" d="M189.9,266.7c7.5,26.3,9.1,54,4.7,81l-27.2-1.7c-1.2-22.3-7.3-44-17.8-63.6L189.9,266.7z"/>
	<path class="st1" d="M190.7,315.4c0.2,2.5-0.5,4.9-2,6.9c-3,4.3-8.6,6.1-13.5,4.3c-2.4-0.8-4.3-2.3-5.6-4.5c1.9,1.2,4,2,6.2,2.3
		c4.1,0.7,8.3-0.7,11.3-3.6C188.6,319.3,189.9,317.5,190.7,315.4z"/>
</g>
<g id="b-leg">
	<path class="st0" d="M107.1,277.1c-6.8,14-11.1,29.2-12.7,44.7c-0.7,7.8-0.7,15.7,0,23.5c0.2,2,0.4,4,0.7,5.9s0.6,4,0.9,6
		s0.8,4,1.2,6l2,8.4l-26.8,3.7c1.1,4.8,0.3,1.3,0.6,2.4l0,0v0v-0.1l-0.1-0.2l-0.2-0.4l-0.3-0.8l-0.6-1.7l-1.3-3.3
		c-0.8-2.3-1.5-4.5-2.2-6.8s-1.3-4.6-2-7s-1.1-4.7-1.7-7.1c-4.2-19.4-4.6-39.3-1.4-58.8c1.6-9.7,4-19.3,7.2-28.7L107.1,277.1z"/>
	<path class="st1" d="M76.7,311.7c-0.3,1.6-1.2,3.1-2.5,4c-1.3,1-3,1.6-4.6,1.7c-1.7,0.1-3.3-0.3-4.8-1c-1.5-0.7-2.7-1.9-3.4-3.3
		c1.2,0.9,2.5,1.6,3.9,2c1.3,0.4,2.7,0.6,4.2,0.5c1.4-0.1,2.8-0.4,4-1.1C74.7,313.9,75.9,312.9,76.7,311.7z"/>
</g>
<g id="l-arm">
	<path class="st0" d="M53.1,171.2c-4-1.7-7.8-4-11.1-6.9c-1.5-1.3-2.9-2.8-4.2-4.3c-0.6-0.7-1.3-1.5-1.8-2.2l-1.6-2.3
		c-3.7-5.6-6.5-11.8-8.4-18.3c-1.7-5.9-3-11.9-3.9-17.9l-0.6-4.4l-0.4-4.4c-0.2-1.5-0.3-2.9-0.3-4.4l-0.1-2.2l-0.1-1.1v-0.5v-0.5
		c3.2-0.5-7.1,1,7.2-1.1s4-0.6,7.2-1.1l0,0l0,0v0.1v0.1L35,100l0.1,0.5l0.3,1l0.5,2c0.3,1.3,0.7,2.6,1.2,3.9l1.2,3.8l1.3,3.8
		c1.8,4.8,3.9,9.5,6.3,14c2.1,4,4.9,7.6,8.1,10.8l1.1,1c0.4,0.3,0.7,0.5,1.1,0.8c0.7,0.5,1.4,0.9,2.1,1.3c1.1,0.5,2.4,0.9,3.6,0.9
		c8.1,0.5,14.4,7.4,13.9,15.6c-0.5,8.1-7.4,14.4-15.6,13.9l0,0c-1.6-0.1-3.2-0.4-4.7-1L53.1,171.2z"/>
</g>
<g id="l-hand">
	<path class="st2" d="M23.9,67c6.9-2.8,14.8,0.5,17.6,7.4c0.2,0.4,0.3,0.8,0.4,1.2v0.3c1,12.3-2.1,18.7-11.9,22.4l0,0
		c-9.8,3.6-17.5,0.9-21.1-10l0,0c-2.3-7.4-1.4-14.5,5.4-17.3L23.9,67z"/>
	<path class="st2" d="M42,77.2c-0.4-5.7-1.8-12.9-2.7-18.4c-0.3-1.8-0.3-3.7-1.5-5.3s-3.5-2.5-5.3-1.6s-2.1,3.1-2.2,5
		c-0.3,6.7-0.3,13.5-0.1,20.3H42z"/>
	<path class="st2" d="M22.4,75.6c-2.1-5.5-4.3-11-6.4-16.5c-0.7-1.8-1.5-3.6-3-4.8s-3.9-1.4-5.3,0.1s-1,3.8-0.4,5.7
		c1.9,6.8,3.9,13.6,6.2,20.3L22.4,75.6z"/>
	<path class="st2" d="M15.7,81.9c-2.5-4.1-5-8.2-7.6-12.3C7.5,68.2,6.4,67,5,66.2c-1.6-0.7-3.4-0.3-4.5,1.1c-1,1.5-0.4,3.3,0.3,4.7
		c2.4,5.2,5.1,10.4,7.8,15.4L15.7,81.9z"/>
	<path class="st2" d="M31.2,75.1c-1.4-6.5-2.8-12.9-4.2-19.4c-0.5-2.1-1-4.3-2.3-5.9s-3.7-2.3-5.2-1s-1.4,3.9-1.2,6.1
		c1,7.9,2.1,15.7,3.5,23.5L31.2,75.1z"/>
	<path class="st2" d="M29.5,97.9C42,96,51,85,53.2,75.6c0.2-0.9,0.9-3.1,0.7-4.1c-0.4-1.8-2.6-2.9-3.8-3c-0.5-0.1-1,0-1.5,0.2
		c-0.7,0.3-1.9,2.1-2.3,2.7c-1.6,2.4-7.3,10.1-11.9,9.3L29.5,97.9z"/>
	<path class="st3" d="M41.8,76.8c-1.8,0.1-3.6,0.1-5.3,0.2c-1.7,0.1-3.4,0.4-5,0.9c-1.6,0.5-3.1,1.3-4.4,2.4c-1.3,1.1-2.4,2.5-3.2,4
		c0.2-1.9,1-3.6,2.3-5c1.3-1.4,2.9-2.4,4.8-3c1.8-0.6,3.7-0.8,5.5-0.6C38.3,75.8,40.1,76.1,41.8,76.8z"/>
	<path class="st4" d="M38.2,91.1c-6.7-0.8-13.4-0.2-19.8,1.6c-4.6,1.3-6.9,6-5.4,9.7l0,0c1.3,3.5,5.1,5.4,8.7,4.5
		c5-1.4,10.3-1.8,15.5-1.3c3.7,0.3,7.1-2.2,7.9-5.8l0,0C45.9,96,42.9,91.7,38.2,91.1z"/>
</g>
<g id="l-shoe">
	<path class="st5" d="M44,441.8l-10.9-1.4c-5-0.6-8.7-5.1-8.1-10.1c0,0,0-0.1,0-0.1l0.8-5.8l29.6,3.7l-0.8,5.8
		C53.8,439,49.1,442.6,44,441.8z"/>
	<path class="st5" d="M78.4,440.6l10.8-2.2c5-0.9,8.3-5.7,7.4-10.6c0,0,0-0.1,0-0.1l-1.2-5.8l-29.3,5.9l1.2,5.8
		C68.4,438.5,73.4,441.6,78.4,440.6z"/>
	<path class="st6" d="M111.1,401.6l-0.5-10.2c-0.2-4.8-4.8-8.6-10.3-8.4l-6.4,0.2l1.2,27.6l6.4-0.2
		C107.1,410.5,111.3,406.4,111.1,401.6z"/>
	<path class="st6" d="M103.2,413.7c-0.6,2.3-1.3,4.7-2.1,6.9c-5.6,15.3-76.8,20.4-87.7,3.2c-0.9-1.9-1.5-4-1.6-6.2
		c-1.8-24.3,50.9-43.1,50.9-43.1l36.7-1.3C105.1,386.6,106.4,400.5,103.2,413.7z"/>
	<path class="st7" d="M103.2,413.7c-16.6,10.3-71,13.7-91.4,3.9c-1.8-24.3,50.9-43.1,50.9-43.1l36.7-1.3
		C105.1,386.6,106.4,400.5,103.2,413.7z"/>
	<path class="st8" d="M95.9,377.8c-11.7,2.2-23.7,2.4-35.4,0.5C52.2,377,47.3,370,49.3,364l0,0c2-6,8.5-9.2,14.7-8.3
		c9.2,1.4,18.5,1.3,27.6-0.4c6.2-1.1,12.8,1.9,15,7.9l0,0C108.8,369,104.1,376.2,95.9,377.8z"/>
	<path class="st9" d="M95.6,363c-11.7,2.2-23.7,2.4-35.4,0.5c-8.3-1.3-13.2-8.3-11.2-14.3l0,0c2-6,8.5-9.2,14.7-8.3
		c9.2,1.4,18.5,1.3,27.6-0.4c6.2-1.1,12.8,1.9,15,7.9l0,0C108.6,354.3,103.9,361.4,95.6,363z"/>
</g>
<g id="r-shoe">
	<path class="st5" d="M165.3,438.3h0.6l15.7-0.1l15.7,0.1h0.6c0.3,1.9,0.3,3.8-0.1,5.7c-0.1,0.7-0.3,1.3-0.5,1.9
		c-0.2,0.6-0.6,1.1-1,1.6l0,0c-2.6,3.1-8.6,5-14.6,5.1c-6.1-0.1-12.1-2-14.6-5.1l0,0c-0.4-0.5-0.8-1-1-1.6c-0.2-0.6-0.4-1.3-0.5-1.9
		C165,442.1,165,440.2,165.3,438.3z"/>
	<path class="st6" d="M146.7,414.8h1.2l33.7-0.2l33.7,0.2h1.2c0,0,1.1,4.1-0.2,12.3c-0.2,1.4-0.5,2.8-1.1,4.1
		c-0.5,1.3-1.2,2.5-2.1,3.5l0,0c-5.5,6.7-18.5,10.9-31.5,11c-13-0.2-26-4.3-31.5-11l0,0c-0.9-1-1.6-2.2-2.1-3.5
		c-0.5-1.3-0.9-2.7-1.1-4.1C145.6,419,146.7,414.8,146.7,414.8z"/>
	<path class="st7" d="M147.6,405.6l13.8-34h40c3,12.3,22.9,40.6,11.6,52.6l0,0c-5.6,6.2-19.2,10-32.6,10.1
		C160.5,434.4,140.9,426.3,147.6,405.6z"/>
	<path class="st8" d="M162.6,379.2c11.8,1.9,23.8,1.9,35.5,0c8.3-1.3,13.1-7.8,11-13.3l0,0c-2.1-5.5-8.7-8.4-14.9-7.4
		c-9.2,1.4-18.5,1.4-27.7,0c-6.2-1-12.8,1.9-14.9,7.4l0,0C149.5,371.4,154.3,377.9,162.6,379.2z"/>
	<path class="st9" d="M162.6,365.6c11.8,1.9,23.8,1.9,35.5,0c8.3-1.3,13.1-7.8,11-13.3l0,0c-2.1-5.5-8.7-8.4-14.9-7.4
		c-9.2,1.4-18.5,1.4-27.7,0c-6.2-1-12.8,1.9-14.9,7.4l0,0C149.5,357.8,154.3,364.3,162.6,365.6z"/>
	<path class="st10" d="M163.2,406.2c2.6-2.5,5.7-4.3,9.1-5.3c6.8-2.2,14.1-2.1,20.9,0.2c3.4,1.1,6.4,3,8.9,5.6l0,0
		c0.1,0.1,0.1,0.2,0,0.2c0,0,0,0,0,0c-0.1,0-0.1,0-0.2,0c-1.5-0.8-3-1.4-4.6-1.9c-1.6-0.5-3.2-1-4.8-1.4c-6.5-1.4-13.2-1.5-19.8-0.2
		c-1.6,0.3-3.2,0.7-4.8,1.2c-1.6,0.5-3.1,1.1-4.6,1.8c-0.1,0-0.2,0-0.2-0.1C163,406.3,163,406.2,163.2,406.2L163.2,406.2z"/>
</g>
<g id="body">
	<path class="st6" d="M98.3,239.6c17.5,7.1,28.3,23,23.9,35.3s-22.1,16.2-39.5,8.9c-17.1-7.2-27.3-22.7-23.2-34.8
		S81,232.6,98.3,239.6z"/>
	
		<ellipse transform="matrix(0.1714 -0.9852 0.9852 0.1714 -110.4157 195.6615)" class="st6" cx="61.1" cy="163.5" rx="28" ry="19.6"/>
	<path class="st6" d="M157.9,238.4c-21.3,9.2-33.9,27.6-28.4,41.3s27.4,17.8,49,8.9c21.9-9.1,35.1-27.9,29.2-42
		S179.5,229,157.9,238.4z"/>
	<path class="st7" d="M131.9,277.8h-1.1l0,0C98,276.5,68.6,257.4,54.2,228c-10.5-21-12.1-45.3-4.6-67.5c2.5-7.4,5.3-14.6,8.5-21.7
		c50,17.9,101.6,20.2,156.2,1.5c3,6.7,5.6,13.6,7.8,20.7C240.7,220.7,193.7,279.7,131.9,277.8z"/>
	<path class="st11" d="M178.7,243.9c-9.8,27.4-33.4,40.2-74,31.4c-34.4-7.4-56.4-38.5-45.9-69c2.3-6.7,10.7-9.2,17.3-6.8
		c27.6,10,56.7,13.3,87.2,10C181.1,210.5,184.8,227,178.7,243.9z"/>
	<path class="st2" d="M128.5,225c1.1-6.9,11.9-5.1,10.6,1.7C138,233.6,127.2,231.8,128.5,225z"/>
	<path class="st12" d="M143.7,225.1c1.1-6.9,12-5.1,10.7,1.7C153.4,233.7,142.5,232,143.7,225.1z"/>
	<path class="st2" d="M159.2,224.5c1.1-6.9,12.1-5.2,10.8,1.7C169,233.1,157.9,231.4,159.2,224.5z"/>
	<path class="st13" d="M193.4,160.9c-14.5,6.3-34.7,10.1-57.5,9.6c-53.6-1.2-91.7-25.4-75.9-48.1c0.2-0.3,0.3-0.5,0.5-0.8l0.1-0.1
		c3.5-4.9,9.5-7.3,15.4-6.4c40.4,6.6,81.6,7.5,122.3,2.7c6-0.6,11.8,2.1,15.1,7.1l0.1,0.1c0.2,0.3,0.4,0.5,0.5,0.8
		C222.4,139.2,213.1,152.4,193.4,160.9z"/>
	<ellipse transform="matrix(0.9854 -0.17 0.17 0.9854 -26.6053 39.554)" class="st6" cx="217.6" cy="175.1" rx="20.2" ry="31.9"/>
</g>
<g id="r-arm">
	<path class="st0" d="M224.7,157.9c2.3,0,4.5-0.3,6.8-0.8c2.4-0.6,4.8-1.5,7-2.6c4.9-2.5,9.2-5.9,12.8-10c3.9-4.6,7.2-9.7,9.7-15.1
		l1.9-4.3c0.6-1.5,1.1-3,1.6-4.5l0.8-2.3l0.6-2.4l0.6-2.4l0.3-1.2l0.2-0.6l0.1-0.3v-0.2v-0.1v-0.1c3.6,0.5-8-1.1,8,1s4.4,0.6,8,1.1
		v0.2v0.2v0.3l0,0.7l-0.1,1.4l-0.2,2.8l-0.2,2.8l-0.4,2.8c-0.3,1.9-0.5,3.8-0.9,5.7l-1.3,5.7c-1.9,7.8-5,15.4-9,22.4
		c-4.3,7.5-10,14.1-16.8,19.5c-3.6,2.8-7.4,5.3-11.5,7.3c-4.3,2.1-8.8,3.6-13.5,4.7l-1,0.2c-8.7,1.9-17.3-3.6-19.2-12.3
		s3.6-17.3,12.3-19.2C222.4,158,223.5,157.9,224.7,157.9z"/>
</g>
<g id="head">
	<path class="st14" d="M43.8,56.7c-0.2-7.2-2.7-12.7-6.6-13.6c-5.4-1.1-11.5,6.8-13.6,17.7s0.5,20.8,5.9,21.9
		c4,0.8,8.3-3.2,11.1-9.8c7-2,16.3,1.4,16.3,1.4l1.2-6.1l1.2-6.1C59.4,62.1,49.6,61.5,43.8,56.7z"/>
	<path class="st15" d="M226.3,76.6c0,6.4-7.2,11.8-8.9,17.8s1.4,14.2-2,19.6s-12.2,6.4-16.8,10.8s-5.5,12.7-10.9,16
		c-5.2,3.1-13.6,0.4-19.5,2.5c-5.7,2-10,9.1-16.1,9.9c-5.9,0.8-12.4-4.6-18.6-4.9s-12.5,4.6-18.2,3.2c-5.8-1.4-9.9-8.6-15.1-10.9
		c-5.4-2.4-13-0.4-17.6-3.7s-5.7-11.4-9.5-15.6s-11.5-5.7-14.2-10.6s-0.2-12.3-1.6-17.9s-7.3-10.4-7.3-16.2s5.9-10.7,7.3-16.2
		S56,47.6,58.8,42.6S69.1,36.2,73,32s4.8-12.2,9.5-15.5s12.2-1.3,17.6-3.7c5.2-2.3,9.3-9.6,15.1-10.9c5.7-1.3,12.1,3.5,18.2,3.2
		c6.1-0.2,12.7-5.7,18.6-4.9c6.1,0.9,10.4,8,16.1,9.9c5.9,2.1,14.3-0.6,19.5,2.5c5.4,3.2,6.5,11.7,10.9,16s13.5,5.5,16.8,10.8
		s0.2,13.5,2,19.6S226.3,70.2,226.3,76.6z"/>
	<path class="st1" d="M96.1,35.3c-1.1-0.8-2.5-0.9-3.7-0.2c-1.2,0.6-2.1,1.5-2.8,2.6c-0.8,1.1-1.4,2.3-2.2,3.6
		c-0.4,0.6-0.9,1.2-1.4,1.7c-0.6,0.6-1.2,1-1.9,1.4c-1.3,0.8-2.7,1.2-3.9,1.8c-1.1,0.4-2.1,1-2.9,1.8c-1.8,1.8-2.6,4.3-2.3,6.8
		l-0.3,0.1c-0.9-1.2-1.3-2.8-1.2-4.3c0.1-1.6,0.7-3.2,1.7-4.4c0.5-0.7,1.2-1.2,1.9-1.6c0.7-0.4,1.4-0.7,2.2-0.9
		c1.3-0.3,2.6-0.7,3.9-1.2c1.1-0.5,2.1-1.3,2.9-2.3c0.8-1,1.6-2.2,2.5-3.3c0.9-1.2,2.2-2.1,3.6-2.6c0.7-0.2,1.5-0.3,2.2-0.2
		c0.7,0.1,1.4,0.4,1.9,1L96.1,35.3z"/>
	<path class="st1" d="M172.4,33.2c0.5-0.6,1.3-1,2.1-1.2c0.8-0.1,1.6-0.1,2.4,0.1c1.6,0.4,2.9,1.3,4,2.5c1.1,1.2,1.9,2.4,2.9,3.5
		c0.9,1,2,1.8,3.3,2.3c1.3,0.5,2.8,0.7,4.3,1c0.8,0.2,1.6,0.5,2.4,0.8c0.8,0.4,1.6,1,2.2,1.7c2.4,2.6,2.8,6.8,0.8,9.4l-0.2-0.1
		c0.5-2.7-0.5-5.5-2.5-7.3c-1.7-1.6-4.7-2.1-7.7-3.4c-0.8-0.4-1.5-0.8-2.1-1.3c-0.6-0.5-1.2-1.2-1.7-1.8c-1-1.3-1.7-2.6-2.5-3.8
		c-0.8-1.2-1.9-2.1-3.2-2.6c-1.3-0.6-2.9-0.4-4,0.4L172.4,33.2z"/>
	<path class="st1" d="M204.9,68.2c0.8,0,1.6,0.3,2.2,0.9c0.6,0.5,1.1,1.2,1.4,1.9c0.6,1.5,0.8,3.1,0.6,4.7c-0.3,1.6-0.7,3-0.9,4.4
		c-0.3,1.3-0.2,2.7,0.3,4c0.4,1.3,1.2,2.6,1.9,4c0.4,0.8,0.6,1.5,0.8,2.4c0.2,0.9,0.2,1.8,0.1,2.7c-0.5,3.6-3.6,6.5-6.8,6.5
		l-0.1-0.3c2.4-1.3,4-3.8,4.1-6.5c0.2-2.3-1.3-5-2.2-8.2c-0.2-0.8-0.3-1.7-0.3-2.5c0-0.8,0.2-1.6,0.4-2.4c0.4-1.6,1-2.9,1.3-4.3
		c0.4-1.4,0.4-2.8,0-4.2c-0.3-1.4-1.4-2.5-2.9-2.8L204.9,68.2z"/>
	<path class="st1" d="M85.2,115.4c-0.4,0.4-0.9,0.7-1.4,0.7c-0.5,0.1-1.1,0-1.6-0.2c-1-0.4-1.9-1-2.6-1.9c-1.3-1.7-2.3-3.5-3.9-4.1
		c-0.9-0.3-1.9-0.6-2.8-0.9c-0.5-0.2-1.1-0.4-1.6-0.7c-0.5-0.3-1-0.7-1.4-1.2c-1.5-1.8-1.7-4.4-0.4-6.4l0.2,0.1
		c-0.2,1.8,0.4,3.7,1.7,5c1.1,1.1,3,1.6,5,2.6c1,0.6,1.8,1.4,2.4,2.3c0.6,0.9,1,1.8,1.6,2.6c0.5,0.8,1.2,1.5,2.1,1.9
		c0.8,0.5,1.9,0.5,2.7-0.1L85.2,115.4z"/>
	<path class="st1" d="M164.1,130.3c0.8,0.6,1.9,0.7,2.8,0.3c0.9-0.4,1.7-1,2.2-1.8c0.6-0.8,1.1-1.7,1.8-2.6c0.7-1,1.6-1.7,2.6-2.2
		c2.1-0.9,4.1-1.3,5.4-2.3c1.4-1.3,2.1-3.2,1.7-5.1l0.2-0.1c1.4,2,1.1,4.7-0.6,6.5c-0.4,0.5-0.9,0.8-1.5,1.1
		c-0.5,0.2-1.1,0.4-1.6,0.6c-1.1,0.2-2.1,0.4-3,0.7c-0.9,0.3-1.7,0.9-2.3,1.6c-0.7,0.7-1.3,1.6-2,2.4c-0.7,0.8-1.7,1.5-2.8,1.7
		c-0.5,0.1-1.1,0.2-1.7,0.1c-0.5-0.1-1-0.4-1.4-0.8L164.1,130.3z"/>
	<path class="st1" d="M118.2,24.6c-0.1-1.7,0.5-3.4,1.7-4.6c0.7-0.6,1.5-1.1,2.3-1.4c0.9-0.2,1.8-0.3,2.7-0.2
		c1.7,0.1,3.3,0.6,4.7,0.9c1.3,0.3,2.7,0.2,4-0.2c1.4-0.4,2.8-1.1,4.3-1.6c0.8-0.3,1.6-0.5,2.4-0.7c0.9-0.2,1.8-0.2,2.7-0.1
		c1.8,0.2,3.4,1,4.7,2.2c1.2,1.2,2,2.6,2.5,4.2c-0.9-1.2-2-2.3-3.3-3.2c-1.2-0.8-2.6-1.2-4-1.1c-0.7,0-1.3,0.1-2,0.3
		c-0.7,0.2-1.4,0.5-2,0.8c-1.5,0.7-3,1.3-4.5,1.9c-0.9,0.3-1.8,0.4-2.7,0.4c-0.9,0-1.8-0.1-2.6-0.3c-1.6-0.4-3.1-1-4.5-1.3
		c-0.7-0.2-1.3-0.2-2-0.1c-0.7,0.1-1.3,0.3-1.9,0.6C119.6,21.9,118.7,23.2,118.2,24.6z"/>
	<path class="st1" d="M103.6,130.2c0.2,0.9,0.7,1.8,1.4,2.4c0.7,0.5,1.6,0.7,2.4,0.6c0.9-0.1,1.8-0.4,2.9-0.5c1.1-0.2,2.3,0,3.4,0.4
		c0.9,0.4,1.8,0.9,2.7,1.4c0.4,0.2,0.8,0.5,1.2,0.6c0.4,0.2,0.8,0.3,1.2,0.3c1.9,0.1,3.7-0.8,4.9-2.3c-0.4,1-1,1.9-1.8,2.5
		c-0.9,0.7-2,1.1-3.1,1.1c-0.6,0-1.2-0.1-1.7-0.2c-0.5-0.2-1-0.4-1.5-0.6c-0.9-0.5-1.8-1-2.6-1.3c-0.8-0.3-1.7-0.5-2.5-0.4
		c-1,0.1-2,0.2-3,0.3c-0.6,0-1.2-0.1-1.7-0.3c-0.5-0.2-1-0.6-1.4-1C103.7,132.4,103.4,131.3,103.6,130.2z"/>
	<path class="st16" d="M101.9,81.2c0,0-9-21.4-29.8-6.3C72.1,74.9,85.6,103.7,101.9,81.2z"/>
	<path class="st17" d="M101.1,81c0,0-7.5-19.4-26.7-5.5C74.4,75.5,85,98.9,101.1,81z"/>
	<ellipse transform="matrix(0.9863 -0.1649 0.1649 0.9863 -11.7694 15.87)" class="st2" cx="89.7" cy="78.8" rx="7.4" ry="8.1"/>
	<path class="st18" d="M89.9,74.3c0.5,0.7,0.9,1.5,1.1,2.4c0.2,0.8,0.3,1.6,0.2,2.4c0,0.8-0.2,1.6-0.4,2.4c-0.3,0.9-0.7,1.7-1.2,2.3
		c-0.5-0.7-0.9-1.5-1.1-2.4c-0.2-0.8-0.3-1.6-0.2-2.4c0-0.8,0.2-1.6,0.4-2.4C88.9,75.8,89.3,75,89.9,74.3z"/>
	<path class="st15" d="M69.6,71.1c0.1,2.5,2.6,3.6,4.9,3.8s4.5-0.6,6.8-0.9c4-0.5,8.1,0.3,11.6,2.5c1.8,1.3,3.6,2.4,5.5,3.5
		c1.9,0.9,4.3,1.2,6,0s2.3-5,0.6-6.4l-2.5-1.9c-4.2-3.3-9.3-5.4-14.6-5.8l0,0c-6.2-0.7-10.3,0-15.6,3.5L69.6,71.1z"/>
	<path class="st16" d="M69.6,71.1c0.5,1.7,2,3.1,3.8,3.4c1.6,0.4,3.3-0.1,5.1-0.6c1.9-0.7,3.9-1,5.9-1.1c2,0,4.1,0.3,6,0.9
		c1.9,0.7,3.7,1.6,5.3,2.8c1.4,1.1,2.9,2,4.6,2.6c1.5,0.6,3.2,0.3,4.4-0.7c1.3-1.3,1.4-3.3,0.4-4.8c0.8,0.6,1.4,1.5,1.4,2.6
		c0.3,2.3-1.2,4.5-3.4,5c-1.1,0.3-2.2,0.3-3.3,0.1c-2-0.5-3.8-1.4-5.5-2.5c-1.5-1-3.1-1.8-4.8-2.4c-1.6-0.6-3.4-0.9-5.1-0.9
		c-1.8,0-3.6,0.2-5.3,0.6c-2,0.5-4.1,0.5-6-0.2c-1-0.4-1.8-1.1-2.4-1.9c-0.3-0.4-0.5-0.9-0.7-1.3C69.7,72,69.6,71.6,69.6,71.1z"/>
	<path class="st19" d="M72.3,69.3c1.8-2.2,4.2-3.9,6.9-4.7c2.7-0.9,5.7-1.2,8.5-0.7c2.8,0.5,5.5,1.4,8,2.7c1.2,0.7,2.4,1.5,3.6,2.3
		s2.2,1.8,3.2,2.7c-1.3-0.6-2.4-1.3-3.6-2s-2.5-1.2-3.7-1.7c-0.6-0.2-1.3-0.5-1.9-0.7l-0.9-0.4l-1-0.3L89.4,66l-2-0.3
		c-2.6-0.4-5.3-0.3-7.9,0.3C77,66.6,74.5,67.7,72.3,69.3z"/>
	<path class="st16" d="M111.7,99.2c-1.4-0.9-2.5-1.7-3.8-2.4c-0.6-0.4-1.2-0.7-1.9-1c-0.7-0.3-1.3-0.6-2.1-1c0.8-0.2,1.6-0.2,2.4,0
		c0.8,0.2,1.6,0.5,2.3,0.9c0.7,0.4,1.3,0.9,1.8,1.6C111,97.7,111.4,98.4,111.7,99.2z"/>
	<path class="st16" d="M116.2,99.6c0.5-0.8,1.1-1.4,1.8-1.9c0.7-0.5,1.5-0.9,2.3-1.2c0.8-0.3,1.7-0.5,2.6-0.5c0.9,0,1.8,0.1,2.6,0.4
		c-0.8,0.2-1.6,0.4-2.4,0.6s-1.5,0.5-2.3,0.7C119.2,98.3,117.8,98.9,116.2,99.6z"/>
	<path class="st14" d="M239.4,112.7l9.2-26.2l-8-26.6C240.2,75,220,77,207.3,76.8c-5.6-0.1-10.2,3.7-10.3,8.5l0,0
		c-0.1,4.8,4.3,8.8,9.9,8.9C219.6,94.6,239.7,97.6,239.4,112.7z"/>
	
		<ellipse transform="matrix(2.233833e-02 -0.9998 0.9998 2.233833e-02 154.8084 331.1297)" class="st20" cx="246.7" cy="86.4" rx="29.6" ry="16.6"/>
	
		<ellipse transform="matrix(2.233833e-02 -0.9998 0.9998 2.233833e-02 155.7883 332.1123)" class="st21" cx="247.7" cy="86.4" rx="20.6" ry="11.5"/>
	<path class="st16" d="M134.7,84.8c0,0,17.4-24,41.9,1.4C176.6,86.2,151.2,118,134.7,84.8z"/>
	<path class="st17" d="M135.8,84.8c0,0,15-22,37.6,1.4C173.4,86.2,153.3,112.2,135.8,84.8z"/>
	<circle class="st2" cx="151.8" cy="85.6" r="10.3"/>
	<path class="st18" d="M152.7,79.8c0.7,1,1.1,2.1,1.3,3.3c0.2,1,0.2,2.1,0,3.1c-0.2,1-0.5,2-1,2.9c-0.6,1.1-1.3,2-2.3,2.7
		c-0.7-1-1.1-2.1-1.3-3.3c-0.3-2.1,0-4.2,1-6C150.9,81.5,151.7,80.5,152.7,79.8z"/>
	<path class="st15" d="M180.9,82.1c-0.8,3.1-4.5,3.7-7.6,3.3s-6-2.1-9-3.2c-5.2-1.9-11-2.1-16.3-0.5c-2.8,0.8-5.4,2.2-8.3,2.7
		s-6.1,0.2-8.1-1.9s-1.8-6.9,0.7-8.2l3.9-1.7c6.7-3.1,13.9-3.6,21.3-2.7l0,0c8.6,1,14,3.2,20.2,9.2L180.9,82.1z"/>
	<path class="st16" d="M180.9,82.1c-0.3,1.3-1.1,2.5-2.2,3.2c-1.1,0.8-2.5,1.3-3.8,1.4c-2.8,0.3-5.5-0.8-7.9-1.8
		c-1.2-0.5-2.3-1-3.5-1.4c-1.1-0.4-2.3-0.8-3.5-1c-2.4-0.5-4.8-0.7-7.3-0.5c-1.2,0.1-2.4,0.2-3.6,0.5c-1.2,0.3-2.4,0.6-3.6,1
		c-2.4,0.7-5,1.7-7.9,1.6c-1.4,0-2.8-0.3-4.1-0.9c-1.3-0.6-2.5-1.6-3.2-2.8c-0.7-1.3-0.9-2.7-0.5-4.1c0.2-0.7,0.4-1.3,0.9-1.8
		c0.4-0.5,1-0.9,1.6-1.2c-1,0.7-1.7,1.9-1.7,3.1c-0.1,1.2,0.3,2.3,0.9,3.3c0.7,0.9,1.6,1.5,2.7,1.8c1.1,0.3,2.3,0.5,3.4,0.4
		c2.4-0.3,4.8-0.9,7.1-1.9c2.5-1,5.1-1.6,7.8-1.8c2.7-0.2,5.4,0.1,8,0.7c2.6,0.7,5.1,1.7,7.4,3c1.1,0.6,2.2,1.1,3.4,1.6
		c1.1,0.5,2.3,0.7,3.5,0.8c1.2,0,2.4-0.2,3.5-0.7C179.5,84.1,180.4,83.2,180.9,82.1z"/>
	<path class="st19" d="M177.8,79.1c-2.6-2.7-5.6-4.9-9-6.4c-3.3-1.5-6.9-2.5-10.5-2.8l-2.7-0.2c-0.9,0-1.8,0.1-2.8,0.1
		c-1.8,0.1-3.7,0.2-5.5,0.5c-0.9,0.1-1.8,0.4-2.7,0.5l-2.8,0.5c-1.8,0.5-3.6,1-5.5,1.4c1.7-0.9,3.4-1.7,5.2-2.5
		c1.8-0.6,3.6-1.3,5.5-1.7c0.9-0.2,1.9-0.4,2.9-0.6c0.5-0.1,0.9-0.2,1.4-0.2l1.4-0.1c1-0.1,1.9-0.2,2.9-0.1l2.9,0.2
		c0.5,0,1,0.1,1.4,0.2l1.4,0.3c0.5,0.1,1,0.2,1.4,0.3l1.4,0.4l1.4,0.4c0.5,0.2,0.9,0.4,1.4,0.6l1.3,0.6c0.4,0.2,0.9,0.5,1.3,0.7
		C173,72.9,175.8,75.7,177.8,79.1z"/>
	<path class="st16" d="M97.8,103.6c2.5,1.5,5.2,2.6,8,3.4c2.8,0.8,5.6,1.3,8.5,1.6c2.9,0.2,5.7,0.2,8.6,0.1c2.9-0.1,5.8-0.3,8.6-0.8
		l0.1,0.2c-2.6,1.4-5.6,2.3-8.6,2.6c-3,0.2-6,0.1-8.9-0.5c-2.9-0.5-5.8-1.2-8.6-2.2c-2.8-1-5.4-2.4-7.8-4.1L97.8,103.6z"/>
</g>
<g id="r-hand">
	<path class="st4" d="M283.5,128.4c-8.3-1.8-16.2-5.3-23.2-10.1c-5-3.4-5.8-10.1-2.5-13.9l0,0c3.1-3.7,8.4-4.4,12.4-1.8
		c5.5,3.8,11.6,6.5,18.1,7.9c4.6,1.1,7.7,5.5,7.1,10.2l0,0C294.9,125.8,289.4,129.7,283.5,128.4z"/>
	<path class="st2" d="M289.7,75.5c-9.3-5.7-21.6-2.9-27,6.5l-0.1,0.4c-4.4,15.7-1.7,25,11,32.3l0,0c12.7,7.3,24.1,5.7,31.7-7.6l0,0
		c5-9,5.5-18.5-3.3-24L289.7,75.5z"/>
	<path class="st2" d="M262,84.1c1.9-7.3,5.6-16.4,8.3-23.3c0.9-2.3,1.4-4.8,3.3-6.5s5.4-2.3,7.7-0.7s2.2,4.6,1.8,7
		c-1.3,8.9-2.9,17.7-4.8,26.5L262,84.1z"/>
	<path class="st2" d="M289.6,87.1c4.3-6.6,8.6-13.2,13-19.8c1.4-2.1,2.9-4.3,5.3-5.5s5.8-0.8,7.3,1.5c1.5,2.3,0.4,5.2-0.8,7.5
		c-4.2,8.4-8.8,16.7-13.6,24.9L289.6,87.1z"/>
	<path class="st2" d="M297.3,97c4.5-4.7,9-9.3,13.5-14c1.5-1.5,3-3.1,5.2-3.6s5,0.4,6,2.6s-0.3,4.3-1.6,6
		c-4.7,6.2-9.5,12.2-14.6,18.1L297.3,97z"/>
	<path class="st2" d="M277.5,84.2c3.5-8.1,7-16.1,10.6-24.2c1.2-2.6,2.4-5.3,4.6-7.1s5.7-2.1,7.5,0s1,5.5,0.1,8.2
		c-3.2,10-6.8,19.9-10.6,29.8L277.5,84.2z"/>
	<path class="st2" d="M274.3,114.4c-16.9-5.7-26.6-22.4-27.4-35.2c-0.1-1.2-0.5-4.2,0-5.5c1-2.3,4.3-3.1,6-3c0.7,0.1,1.4,0.3,2,0.7
		c0.9,0.5,2.2,3.2,2.6,4.1c1.7,3.5,7.6,15,14.2,15.2L274.3,114.4z"/>
	<path class="st3" d="M262.3,83.6c2.5-0.2,5-0.2,7.5,0.1c2.5,0.3,5,1,7.3,2.2c2.3,1.2,4.3,2.9,5.9,5c1.6,2.1,2.4,4.6,2.4,7.2
		c-0.6-2.4-1.8-4.5-3.4-6.3c-1.6-1.8-3.5-3.2-5.6-4.3c-2.2-1.1-4.4-1.8-6.8-2.3C267.2,84.4,264.8,84.1,262.3,83.6z"/>
</g>
</svg>
