<?xml version="1.0" encoding="utf-8"?>
<!-- Generator: Adobe Illustrator 25.2.0, SVG Export Plug-In . SVG Version: 6.00 Build 0)  -->
<svg version="1.1" id="Layer_1" xmlns="http://www.w3.org/2000/svg" xmlns:xlink="http://www.w3.org/1999/xlink" x="0px" y="0px"
	 viewBox="0 0 358.8 445.2" style="enable-background:new 0 0 358.8 445.2;" xml:space="preserve">
<style type="text/css">
	.st0{fill:#7333A3;}
	.st1{fill:#612B89;}
	.st2{fill:#7356A4;}
	.st3{fill:#8463BE;}
	.st4{fill:#2E047A;}
	.st5{fill:#5907E8;}
	.st6{fill:#FAAF3B;}
	.st7{fill:#FAC26C;}
	.st8{fill:#FAAA2D;}
	.st9{fill:#90BD4A;}
	.st10{fill:#7EA540;}
	.st11{fill:#F1F1F1;}
	.st12{fill:#A87DF1;}
	.st13{fill:#EE8031;}
	.st14{fill:#612B88;}
	.st15{fill:none;stroke:#853BBC;stroke-width:5.61;stroke-linecap:round;stroke-miterlimit:10;}
	.st16{fill:#7333A2;}
	.st17{fill:#3B224D;}
	.st18{fill:#FFFFFF;}
	.st19{fill:#261234;}
	.st20{fill:#8F5CB5;}
</style>
<g id="l-leg">
	<path class="st0" d="M124.1,274.9c-10.5,19.7-16.6,41.4-17.8,63.6L79,340.3c-4.4-27-2.7-54.7,4.7-81L124.1,274.9z"/>
	<path class="st1" d="M82.9,303c0.8,2.1,2.1,3.9,3.7,5.5c1.5,1.4,3.3,2.5,5.2,3.2c2,0.6,4.1,0.7,6.1,0.4c2.2-0.4,4.3-1.1,6.2-2.3
		c-1.3,2.1-3.3,3.7-5.6,4.5c-5,1.7-10.5,0-13.5-4.3C83.5,307.9,82.8,305.5,82.9,303z"/>
	<path class="st2" d="M108.3,430.8h-0.6l-15.7-0.1l-15.7,0.1h-0.6c-0.3,1.9-0.3,3.8,0.1,5.7c0.1,0.7,0.2,1.3,0.5,1.9
		c0.2,0.6,0.6,1.2,1,1.6l0,0c2.6,3.1,8.6,5,14.7,5.1c6-0.1,12.1-2,14.7-5.1l0,0c0.4-0.5,0.8-1,1-1.6c0.3-0.6,0.4-1.2,0.5-1.9
		C108.6,434.6,108.7,432.7,108.3,430.8z"/>
	<path class="st3" d="M127,407.3h-1.2l-33.7-0.2l-33.7,0.2h-1.2c0,0-1.1,4.1,0.2,12.3c0.2,1.4,0.6,2.8,1.1,4.1
		c0.5,1.3,1.2,2.5,2.1,3.5l0,0c5.5,6.7,18.5,10.9,31.5,11c13-0.2,26-4.3,31.5-11l0,0c0.9-1,1.6-2.2,2.1-3.5c0.5-1.3,0.9-2.7,1.1-4.1
		C128.1,411.5,127,407.3,127,407.3z"/>
	<path class="st4" d="M126.1,398.1l-13.8-34h-40c-3,12.3-23,40.6-11.6,52.6l0,0c5.6,6.2,19.2,10,32.6,10.1
		C113.1,426.9,132.7,418.8,126.1,398.1z"/>
	<path class="st5" d="M72.7,398.7c2.6-2.5,5.7-4.3,9.1-5.3c3.4-1.1,6.9-1.6,10.4-1.6c3.5,0,7.1,0.6,10.4,1.8c3.4,1.1,6.4,3,8.9,5.6
		l0,0c0.1,0.1,0.1,0.2,0,0.2c-0.1,0-0.1,0-0.2,0c-1.5-0.8-3-1.4-4.6-1.9c-1.6-0.5-3.2-1-4.8-1.4c-6.5-1.4-13.2-1.5-19.8-0.2
		c-1.6,0.3-3.2,0.7-4.8,1.2c-1.6,0.5-3.1,1.2-4.6,1.9c-0.1,0-0.2,0-0.2-0.1C72.6,398.9,72.6,398.8,72.7,398.7L72.7,398.7z"/>
	<path class="st6" d="M111,371.7c-11.8,1.9-23.8,1.9-35.5,0c-8.3-1.3-13.1-7.8-11-13.3l0,0c2.1-5.5,8.7-8.4,14.9-7.4
		c9.2,1.4,18.5,1.4,27.7,0c6.2-1,12.8,1.9,14.9,7.4l0,0C124.1,363.9,119.3,370.4,111,371.7z"/>
	<path class="st7" d="M111,358.1c-11.8,1.9-23.8,1.9-35.5,0c-8.3-1.3-13.1-7.8-11-13.3l0,0c2.1-5.5,8.7-8.4,14.9-7.4
		c9.2,1.4,18.5,1.4,27.7,0c6.2-1,12.8,1.9,14.9,7.4l0,0C124.1,350.3,119.3,356.8,111,358.1z"/>
</g>
<g id="r-leg">
	<path class="st0" d="M219.6,259.2c7.5,26.3,9.1,54,4.7,81l-27.2-1.7c-1.2-22.3-7.3-44-17.8-63.6L219.6,259.2z"/>
	<path class="st1" d="M220.4,303c0.2,2.5-0.5,4.9-2,6.9c-3,4.3-8.6,6.1-13.5,4.3c-2.4-0.7-4.4-2.3-5.6-4.5c1.9,1.2,4,2,6.2,2.3
		c2,0.3,4.1,0.2,6.1-0.4c2-0.6,3.7-1.7,5.2-3.2C218.3,306.9,219.6,305,220.4,303z"/>
	<path class="st2" d="M195.1,430.8h0.6l15.7-0.1l15.7,0.1h0.6c0.3,1.9,0.3,3.8-0.1,5.7c-0.1,0.7-0.2,1.3-0.5,1.9
		c-0.2,0.6-0.6,1.2-1,1.6l0,0c-2.6,3.1-8.6,5-14.6,5.1c-6-0.1-12.1-2-14.6-5.1l0,0c-0.4-0.5-0.8-1-1-1.6c-0.3-0.6-0.4-1.2-0.5-1.9
		C194.7,434.6,194.7,432.7,195.1,430.8z"/>
	<path class="st3" d="M176.4,407.3h1.2l33.7-0.2l33.7,0.2h1.2c0,0,1.1,4.1-0.2,12.3c-0.2,1.4-0.6,2.8-1.1,4.1
		c-0.5,1.3-1.2,2.5-2.1,3.5l0,0c-5.5,6.7-18.5,10.9-31.5,11c-13-0.2-26-4.3-31.5-11l0,0c-0.9-1-1.6-2.2-2.1-3.5
		c-0.5-1.3-0.9-2.7-1.1-4.1C175.3,411.5,176.4,407.3,176.4,407.3z"/>
	<path class="st4" d="M177.3,398.1l13.8-34h40c3,12.3,23,40.6,11.6,52.6l0,0c-5.6,6.2-19.2,10-32.6,10.1
		C190.3,426.9,170.7,418.8,177.3,398.1z"/>
	<path class="st5" d="M192.9,398.7c2.6-2.5,5.7-4.3,9.1-5.3c3.4-1.1,6.9-1.6,10.4-1.6c3.5,0,7.1,0.6,10.4,1.8c3.4,1.1,6.4,3,8.9,5.6
		l0,0c0.1,0.1,0.1,0.2,0,0.2c-0.1,0-0.1,0-0.2,0c-1.5-0.8-3-1.4-4.6-1.9c-1.6-0.5-3.2-1-4.8-1.4c-6.5-1.4-13.2-1.5-19.8-0.2
		c-1.6,0.3-3.2,0.7-4.8,1.2c-1.6,0.5-3.1,1.1-4.6,1.8c-0.1,0-0.2,0-0.2-0.1c0-0.1,0-0.1,0-0.2L192.9,398.7z"/>
	<path class="st6" d="M192.4,371.7c11.8,1.9,23.8,1.9,35.5,0c8.3-1.3,13.1-7.8,11-13.3l0,0c-2.1-5.5-8.7-8.4-14.9-7.4
		c-9.2,1.4-18.6,1.4-27.7,0c-6.2-1-12.8,1.9-14.9,7.4l0,0C179.2,363.9,184.1,370.4,192.4,371.7z"/>
	<path class="st7" d="M192.4,358.1c11.8,1.9,23.8,1.9,35.5,0c8.3-1.3,13.1-7.8,11-13.3l0,0c-2.1-5.5-8.7-8.4-14.9-7.4
		c-9.2,1.4-18.6,1.4-27.7,0c-6.2-1-12.8,1.9-14.9,7.4l0,0C179.2,350.3,184.1,356.8,192.4,358.1z"/>
</g>
<g id="r-arm">
	<path class="st0" d="M248.1,145.2c4.2,2.1,8.8,3.3,13.5,3.5c4.9,0.3,9.9-0.3,14.5-1.9c4.9-1.8,9.4-4.7,13.1-8.5
		c4.1-4,7.3-8.8,9.5-14.1l0.1-0.3c1.9-4.5,7.1-6.6,11.5-4.7c3.7,1.6,5.9,5.5,5.2,9.5c-1.3,8.1-4.2,15.9-8.5,23
		c-4.5,7.4-10.5,13.8-17.7,18.8c-7.5,5-16,8.3-24.9,9.9c-9.1,1.8-18.5,1.6-27.5-0.4l-2.1-0.5c-10-2.3-16.3-12.2-14.1-22.2
		c2.3-10,12.2-16.3,22.2-14.1C244.9,143.8,246.5,144.4,248.1,145.2z"/>
</g>
<g id="r-hand">
	<path class="st8" d="M324,121.3c-6.7-2.1-12.9-5.6-18.2-10.3c-3.6-3.1-9.4-3-13.5,1.1c-4.3,4.5-4.1,11.6,0.3,15.8
		c0.1,0.1,0.1,0.1,0.2,0.2c5.7,7.4,14.1,12.1,23.3,13.2c5.9,1.7,12.1-1.7,13.8-7.7c0-0.1,0-0.1,0.1-0.2
		C331.4,127.8,328.5,122.8,324,121.3z"/>
	<path class="st9" d="M305,98.7c5.9-7.1,10.3-15.3,12.8-24.2v-0.1c0.9-3.4,3.9-5.7,6.6-5.2c2.4,0.4,3.8,3,3.4,5.9
		c-0.8,5.9-2.2,11.6-4.3,17.2c-2.1,5.7-4.8,11.2-8,16.3l-0.1,0.2c-2.7,4.2-7.4,5.7-10.5,3.3s-3.5-7.8-0.8-12
		C304.4,99.5,304.7,99.1,305,98.7z"/>
	<path class="st9" d="M310.9,97c8.2-6,14.9-13.7,19.7-22.7l0.1-0.1c1.8-3.4,5.6-5.1,8.5-3.8c2.6,1.2,3.6,4.3,2.5,7.4
		c-2.2,6.1-5.1,12-8.7,17.4c-3.6,5.6-7.9,10.8-12.6,15.4l-0.2,0.2c-3.9,3.8-9.5,4-12.4,0.5s-2.1-9.5,1.9-13.3
		C310,97.7,310.4,97.3,310.9,97z"/>
	<path class="st9" d="M320.3,98.1c8.6-5.3,15.8-12.7,21-21.4l0.1-0.1c2-3.3,6-4.7,8.9-3c2.6,1.5,3.5,4.9,2.3,7.9
		c-2.5,6.1-5.6,11.9-9.5,17.2c-3.9,5.4-8.4,10.3-13.5,14.7l-0.2,0.2c-4.2,3.6-9.9,3.2-12.8-0.8s-1.9-10.1,2.3-13.6
		C319.3,98.7,319.8,98.4,320.3,98.1z"/>
	<path class="st9" d="M324.9,105.8c8.9-5,16.3-12.2,21.5-21l0.1-0.1c1.7-3.2,5.8-4.4,9-2.6c0.1,0,0.1,0.1,0.2,0.1
		c2.7,1.9,3.8,5.4,2.5,8.5c-2.4,6.2-5.7,12-9.7,17.4c-4,5.4-8.6,10.2-13.8,14.4l-0.2,0.2c-3.8,3.2-9.5,2.8-12.7-1
		c-0.2-0.2-0.4-0.5-0.6-0.7c-3-4.6-2.1-10.7,2.2-14.1C323.9,106.4,324.4,106.1,324.9,105.8z"/>
	<path class="st9" d="M302.4,116.1L302.4,116.1c-3.6-5.4-3-12.3,1.4-15.8l10.5-8.5c6.8-4.8,17.9-1.2,23,5.3l0,0
		c6.5,8.2,4.7,21.2-4.5,26.3l-0.8,0.4C321.9,129.3,308.8,125.8,302.4,116.1z"/>
	<path class="st9" d="M301,113.5c-8.2-12.5-3.3-26.4,2.8-35.3c0.5-0.9,1.3-1.6,2.3-2c1.3-0.4,2.7-0.1,3.8,0.8c0.5,0.4,0.8,0.9,1,1.5
		c0.3,0.8,0.3,1.7,0.1,2.5c-0.7,3.2-2.7,13.8,1.5,17.4L301,113.5z"/>
	<path class="st10" d="M335.5,98.3l4.2-5.6c1.4-1.9,2.8-3.7,4.1-5.6c0.6-1,1.3-1.9,1.9-2.9c0.7-1.1,1.7-2,2.9-2.7
		c2.3-1.3,5.2-1,7.1,0.7c-2.1-0.8-4.4-0.5-6.2,0.8c-0.8,0.6-1.5,1.4-2,2.3c-0.6,1-1.2,2.1-1.9,3c-1.4,2-2.9,3.8-4.6,5.5
		C339.3,95.5,337.5,97,335.5,98.3z"/>
	<path class="st10" d="M310,92c2.1,0.3,4.1,0.8,6.1,1.6c2,0.8,3.9,1.9,5.5,3.3c1.6,1.5,2.9,3.3,3.7,5.3c0.8,2,0.9,4.2,0.3,6.3
		c0-2-0.6-4-1.5-5.8c-0.9-1.7-2.2-3.3-3.6-4.6c-1.5-1.3-3.2-2.4-4.9-3.3C313.7,93.8,311.8,93,310,92z"/>
	<path class="st10" d="M329.1,92.3c1.6-2,3.2-4,4.7-6s3.1-4,4.5-6c0.7-1,1.4-2,2.1-3.1l0.5-0.8c0.2-0.3,0.4-0.6,0.6-0.8
		c0.4-0.5,0.9-1,1.5-1.4c1.1-0.8,2.4-1.3,3.8-1.5c0.7,0,1.3,0,2,0.2c0.6,0.2,1.2,0.5,1.7,0.9c-2.3-0.8-4.9-0.3-6.7,1.4
		c-0.4,0.4-0.8,0.8-1.1,1.3c-0.2,0.2-0.3,0.5-0.5,0.7l-0.5,0.8c-0.7,1.1-1.4,2.2-2.2,3.2c-1.5,2.1-3.2,4-4.9,5.9
		C332.9,88.9,331.1,90.7,329.1,92.3z"/>
	<path class="st10" d="M320.6,88.6c2.7-3.8,5.2-7.6,7.6-11.5c0.6-1,1.2-2,1.7-3c0.6-1.1,1.4-2,2.4-2.8c1-0.8,2.1-1.3,3.4-1.4
		c0.6-0.1,1.2-0.1,1.8,0c0.6,0.1,1.1,0.3,1.6,0.6c-2.2-0.5-4.5,0.1-6.1,1.8c-0.8,0.7-1.4,1.6-1.9,2.6c-0.5,1-1.1,2.1-1.7,3
		c-1.2,2-2.5,3.9-4,5.7C323.9,85.3,322.3,87,320.6,88.6z"/>
</g>
<g id="l-arm">
	<path class="st0" d="M71.3,178.5c-4.9-1.3-10-1-14.8,0.7c-4.8,1.8-9.5,5.6-13.5,10.9c-4.1,5.7-7.1,12-9,18.8
		c-2,7-2.8,14.2-2.3,21.5v0.4c0.4,4.8-3.2,9.1-8,9.5c-4.2,0.4-8.1-2.3-9.2-6.4c-2.5-9.3-3.4-19-2.5-28.7c0.8-9.9,3.4-19.6,7.6-28.5
		c2.3-4.8,5.1-9.3,8.5-13.5c3.6-4.4,7.8-8.3,12.6-11.5c5-3.3,10.5-5.8,16.2-7.4c5.7-1.6,11.6-2.3,17.5-2.2h1.2
		c10.2,0.1,18.3,8.5,18.2,18.7s-8.5,18.3-18.7,18.2C73.9,178.9,72.6,178.7,71.3,178.5L71.3,178.5z"/>
</g>
<g id="body">
	<ellipse transform="matrix(0.866 -0.5 0.5 0.866 -103.0727 130.93)" class="st3" cx="192.8" cy="257.8" rx="41.4" ry="25.8"/>
	<ellipse transform="matrix(0.5 -0.866 0.866 0.5 -168.1541 224.3391)" class="st3" cx="110.2" cy="257.8" rx="25.8" ry="41.4"/>
	<ellipse transform="matrix(0.229 -0.9734 0.9734 0.229 -107.9235 190.3021)" class="st3" cx="66.2" cy="163.3" rx="28" ry="16.1"/>
	<ellipse transform="matrix(0.9734 -0.229 0.229 0.9734 -31.0944 58.5804)" class="st3" cx="236.8" cy="163.3" rx="16.1" ry="28"/>
	<path class="st4" d="M230.5,135.8c-52.7,18.1-105.3,18.1-158,0c-3,6.5-5.7,13.1-7.9,19.9C45.7,213,89.8,271.6,151.5,271.6l0,0
		c61.6,0,105.8-58.6,86.9-115.9C236.2,148.9,233.5,142.3,230.5,135.8z"/>
	<path class="st11" d="M193.8,199.6c-27.8,6.6-56.8,6.6-84.6,0c-6.7-1.6-13.6,2-16.2,8.4v0.1c-12.7,32.9,17,66.5,58.6,66.5l0,0
		c41.6,0,71.3-33.6,58.6-66.5l-0.1-0.1C207.6,201.6,200.6,198,193.8,199.6z"/>
	<path class="st12" d="M212.3,158.7c-15.3,6.6-36.6,10.9-60.8,10.9c-57,0-97.9-23.3-81.8-46.4c0.2-0.3,0.4-0.5,0.6-0.8l0.1-0.1
		c3.8-5,10-7.6,16.2-6.8c43.1,5.7,86.8,5.7,129.9,0c6.2-0.8,12.4,1.8,16.2,6.8l0.1,0.1c0.2,0.3,0.4,0.5,0.6,0.8
		C242.6,136.4,233,149.7,212.3,158.7z"/>
	<circle class="st9" cx="168.2" cy="218.4" r="5.1"/>
	<circle class="st13" cx="182.6" cy="216.8" r="5.1"/>
	<circle class="st9" cx="197" cy="214.4" r="5.1"/>
</g>
<g id="l-hand">
	<path class="st9" d="M36,269.3c4.2,4.4,4.8,6.8,5.5,11c0.2,0.7,0.6,1.3,1.2,1.7c1.7,1.1,4.2,0.1,5.5-1.2c2.2-2.3,3.4-5.4,3.3-8.6
		c0.3-9.1-4.8-23-14.5-29.1L36,269.3z"/>
	<path class="st9" d="M39.2,271.1l-2.2-28l-30.4-2.5c-5.9,6-10.7,27.9-1.4,39.3L39.2,271.1z"/>
	<path class="st9" d="M37.6,272.9c-2.3,6.2-2.6,12.9-0.8,19.3v0.1c0.7,2.4-1,4.8-3.8,5.3c-2.3,0.5-4.7-0.6-5.9-2.7
		c-3.8-7.7-5.2-16.5-3.8-25v-0.2c0.5-3.5,4.3-5.9,8.3-5.3s6.8,3.9,6.3,7.4C37.8,272.2,37.7,272.5,37.6,272.9z"/>
	<path class="st9" d="M28.1,269.6c-2.4,6.2-2.7,13-0.7,19.3v0.1c0.8,2.4-1.1,4.8-4,5.3c-2.5,0.5-5-0.6-6.4-2.7
		c-2.1-3.8-3.5-8-4.3-12.2c-0.7-4.2-0.8-8.6-0.1-12.8v-0.2c0.6-3.5,4.6-5.8,8.9-5.2s7.5,3.9,6.9,7.4
		C28.3,268.9,28.2,269.3,28.1,269.6z"/>
	<path class="st9" d="M20.8,266.3c-2.4,6.2-2.7,13-0.7,19.3v0.1c0.7,2.4-1.1,4.8-4,5.3c-2.5,0.5-5-0.6-6.4-2.7
		c-2.1-3.8-3.5-8-4.3-12.2c-0.7-4.2-0.8-8.6-0.1-12.8V263c0.6-3.5,4.6-5.8,8.9-5.2s7.4,3.9,6.9,7.4C21,265.6,20.9,265.9,20.8,266.3z
		"/>
	<path class="st10" d="M27.7,294.9c-1.3-1.8-2.4-3.7-3.2-5.8c-0.8-2.1-1.5-4.2-1.8-6.4c-0.8-4.4-0.6-8.9,0.7-13.1
		c0,2.2,0,4.4,0.1,6.5c0.3,4.3,1,8.5,2.2,12.6C26.2,290.8,27,292.9,27.7,294.9z"/>
	<path class="st10" d="M16.6,291.2c-1.3-1.8-2.4-3.7-3.2-5.8c-0.8-2-1.5-4.2-1.8-6.4c-0.8-4.4-0.6-8.9,0.7-13.1c0,2.2,0,4.4,0.1,6.5
		c0.1,2.1,0.4,4.2,0.7,6.4c0.4,2.1,0.8,4.2,1.4,6.2C15.2,287.1,15.9,289.1,16.6,291.2z"/>
	<path class="st10" d="M9.1,287.2c-1.2-1.6-2.2-3.3-3-5.2c-0.8-1.8-1.4-3.8-1.8-5.7c-0.4-2-0.7-4-0.7-6c0.1-2,0.4-4,1.1-5.9
		c0,2,0,4,0.2,5.9s0.6,3.8,0.9,5.7s0.8,3.8,1.4,5.6S8.4,285.3,9.1,287.2z"/>
	<path class="st8" d="M34.7,246.3c-8.4,1.2-17,0.7-25.3-1.3c-5.8-1.5-8.9-7.4-7.2-12.2l0,0c1.6-4.5,6.3-7.1,11-6
		c6.4,1.6,13.1,2,19.7,1.1c4.7-0.6,9.1,2.5,10.2,7.1l0,0C44.4,239.9,40.6,245.5,34.7,246.3z"/>
</g>
<g id="head">
	<path class="st14" d="M36.1,53.7l-7.4,26.4l7.4,26.4c0-22,36.7-17.3,36.7-17.3V71C72.8,71,36.1,75.7,36.1,53.7z"/>
	<path class="st15" d="M33.6,52.4L33.6,52.4c-5.1,18.1-5.1,37.3,0,55.3l0,0"/>
	<path class="st14" d="M266.7,53.7l7.4,26.4l-7.4,26.4c0-22-36.7-17.3-36.7-17.3V71C230,71,266.7,75.7,266.7,53.7z"/>
	<path class="st15" d="M269.2,52.4L269.2,52.4c5.1,18.1,5.1,37.3,0,55.3l0,0"/>
	<path class="st16" d="M239.6,76c0,6.1-6.5,11.3-8.1,17s1.3,13.6-1.8,18.7s-11.2,6.4-15.5,10.7s-5.1,12.5-10.3,15.8
		c-4.9,3.2-12.9,0.9-18.6,3.1c-5.5,2.2-9.6,9.4-15.7,10.5c-5.8,1.1-12.3-4.1-18.4-4.1s-12.6,5.2-18.4,4.1c-6-1.1-10.2-8.3-15.7-10.5
		c-5.7-2.2-13.7,0.1-18.6-3.1c-5.1-3.3-6.1-11.6-10.2-15.8s-12.4-5.6-15.5-10.8S72.9,98.8,71.3,93s-8.1-10.9-8.1-17s6.5-11.3,8.1-17
		S70,45.5,73.1,40.3s11.2-6.4,15.5-10.7s5.1-12.5,10.2-15.8c4.9-3.2,12.9-0.9,18.6-3.2c5.5-2.2,9.7-9.4,15.7-10.5
		c5.8-1.1,12.3,4.1,18.4,4.1s12.6-5.2,18.4-4.1c6,1.1,10.2,8.3,15.7,10.5c5.7,2.2,13.7-0.1,18.6,3.1c5.1,3.3,6.1,11.6,10.2,15.8
		s12.5,5.6,15.5,10.8s0.2,12.9,1.8,18.7S239.6,69.9,239.6,76z"/>
	<path class="st1" d="M113,33.7c-1.1-0.8-2.6-1-3.8-0.3c-1.2,0.6-2.3,1.5-3,2.6c-0.8,1.1-1.4,2.4-2.3,3.7c-0.5,0.6-1,1.3-1.6,1.8
		c-0.6,0.6-1.3,1-2,1.4c-2.9,1.4-5.7,2-7.3,3.5c-1.9,1.8-2.8,4.5-2.4,7.1l-0.3,0.1c-1-1.3-1.4-2.9-1.3-4.5c0.1-1.7,0.8-3.3,1.9-4.6
		c0.6-0.7,1.2-1.2,2-1.6c0.7-0.4,1.5-0.7,2.3-0.9c1.4-0.3,2.7-0.7,4.1-1.1c2.4-0.8,3.8-3.4,5.8-5.7c1-1.2,2.3-2.1,3.8-2.6
		c0.7-0.2,1.5-0.3,2.3-0.2c0.8,0.1,1.5,0.5,2,1.1L113,33.7z"/>
	<path class="st1" d="M189.5,33.5c0.5-0.6,1.2-1,2-1.1c0.8-0.1,1.6-0.1,2.3,0.2c1.5,0.5,2.8,1.4,3.8,2.6c2,2.3,3.3,4.9,5.8,5.7
		c1.3,0.4,2.7,0.8,4.1,1.1c0.8,0.2,1.5,0.5,2.3,0.9c0.8,0.4,1.4,1,2,1.6c1.1,1.3,1.8,2.9,1.9,4.6c0.2,1.6-0.3,3.2-1.3,4.5l-0.3-0.1
		c0.4-2.6-0.5-5.2-2.4-7.1c-1.6-1.5-4.4-2.1-7.3-3.5c-0.7-0.4-1.4-0.8-2-1.4c-0.6-0.5-1.1-1.1-1.6-1.8c-0.9-1.3-1.5-2.5-2.3-3.7
		c-0.7-1.1-1.8-2.1-3-2.6c-1.2-0.6-2.7-0.5-3.8,0.3L189.5,33.5z"/>
	<path class="st1" d="M106.9,122.3c-0.4,0.4-0.9,0.7-1.5,0.8c-0.6,0.1-1.1,0-1.7-0.1c-1.1-0.3-2.1-1-2.8-1.9
		c-1.4-1.7-2.4-3.6-4.2-4.2c-1-0.3-2-0.6-3-0.8c-0.6-0.2-1.1-0.4-1.7-0.7c-2.7-1.5-3.7-4.8-2.2-7.5c0.1-0.1,0.1-0.3,0.2-0.4l0.2,0.1
		c-0.3,1.9,0.4,3.8,1.8,5.2c1.2,1.1,3.2,1.6,5.3,2.6c1.1,0.5,2,1.3,2.6,2.3c0.7,0.9,1.1,1.9,1.7,2.7c0.5,0.8,1.3,1.5,2.2,1.9
		c0.9,0.5,2,0.4,2.8-0.2L106.9,122.3z"/>
	<path class="st1" d="M197,121.4c0.8,0.6,1.8,0.7,2.6,0.2c0.9-0.4,1.6-1,2.1-1.8c0.6-0.8,1-1.7,1.6-2.5c0.6-0.9,1.5-1.7,2.5-2.2
		c2-1,3.9-1.3,5-2.4c1.3-1.3,1.9-3.1,1.7-4.9l0.2-0.1c1.3,1.9,1.1,4.5-0.4,6.3c-0.8,0.9-1.8,1.5-3,1.7c-1,0.2-1.9,0.5-2.8,0.8
		c-1.7,0.6-2.6,2.3-4,3.9c-0.7,0.8-1.6,1.5-2.6,1.8c-0.5,0.2-1.1,0.2-1.6,0.1c-0.5-0.1-1-0.4-1.4-0.8L197,121.4z"/>
	<path class="st1" d="M135.9,23.4c-0.1-1.7,0.5-3.4,1.7-4.6c0.7-0.6,1.5-1.1,2.4-1.3c0.9-0.2,1.8-0.3,2.7-0.1c1.7,0.2,3.3,0.7,4.7,1
		c1.3,0.3,2.7,0.3,4,0c1.4-0.3,2.8-1,4.3-1.5c0.8-0.3,1.6-0.5,2.5-0.6c0.9-0.2,1.8-0.2,2.7,0c1.8,0.3,3.4,1.1,4.6,2.4
		c1.2,1.2,2,2.7,2.4,4.3c-0.9-1.3-2-2.3-3.3-3.2c-1.2-0.8-2.6-1.2-4-1.3c-0.7,0-1.3,0.1-2,0.2c-0.7,0.2-1.4,0.4-2,0.7
		c-1.5,0.7-3,1.3-4.6,1.7c-1.8,0.5-3.6,0.4-5.3-0.1c-1.6-0.5-3-1-4.4-1.4c-0.7-0.2-1.3-0.3-2-0.2c-0.7,0-1.3,0.2-1.9,0.6
		C137.2,20.7,136.3,22,135.9,23.4z"/>
	<path class="st1" d="M141.7,136.7c0.3,0.9,1,1.6,1.8,2.1c0.8,0.3,1.7,0.3,2.5,0c0.9-0.3,1.8-0.8,2.8-1.1c1.1-0.4,2.2-0.5,3.4-0.4
		c2.2,0.4,3.9,1.5,5.6,1.3c1.9-0.3,3.5-1.5,4.4-3.2c-0.2,1-0.6,2-1.3,2.8c-0.7,0.9-1.7,1.5-2.8,1.8c-0.6,0.1-1.2,0.2-1.7,0.1
		c-0.5-0.1-1.1-0.1-1.6-0.3c-1-0.3-1.9-0.6-2.8-0.7c-0.9-0.2-1.7-0.1-2.6,0.2c-0.9,0.2-1.9,0.7-2.9,0.9c-0.6,0.1-1.1,0.1-1.7,0.1
		c-0.6-0.1-1.1-0.3-1.6-0.7C142.2,138.8,141.7,137.8,141.7,136.7z"/>
	<path class="st17" d="M149.2,106.2c-1.5-0.7-2.8-1.3-4.1-1.9c-0.7-0.3-1.3-0.6-2-0.8s-1.4-0.5-2.2-0.8c0.8-0.3,1.6-0.4,2.4-0.3
		c0.8,0.1,1.6,0.3,2.4,0.6c0.7,0.3,1.4,0.8,2,1.3C148.3,104.8,148.8,105.4,149.2,106.2z"/>
	<path class="st17" d="M153.6,106.2c0.4-0.7,0.9-1.4,1.5-1.9c0.6-0.5,1.3-1,2-1.3c0.7-0.3,1.5-0.5,2.4-0.6c0.8-0.1,1.6,0,2.4,0.3
		c-0.8,0.3-1.5,0.5-2.2,0.8s-1.4,0.5-2,0.8C156.4,104.8,155.1,105.5,153.6,106.2z"/>
	<path class="st17" d="M134.8,112.3c2.6,1.1,5.3,1.9,8.1,2.2c2.8,0.4,5.6,0.6,8.4,0.5c2.8-0.2,5.6-0.5,8.3-1c2.8-0.4,5.5-1,8.2-1.8
		l0.1,0.2c-2.4,1.7-5.1,3-7.9,3.6c-2.9,0.6-5.8,0.8-8.7,0.7c-2.9-0.1-5.8-0.5-8.6-1.1c-2.8-0.6-5.5-1.6-8.1-3L134.8,112.3z"/>
	<path class="st17" d="M135.7,85c0,0-14.4-23.5-38.9-1.8C96.8,83.2,117.9,114.6,135.7,85z"/>
	<path class="st18" d="M134.7,85c0,0-12.2-21.5-34.9-1.5C99.8,83.4,116.5,109,134.7,85z"/>
	<circle class="st9" cx="119.8" cy="84.5" r="9.6"/>
	<path class="st19" d="M119.5,79.1c0.9,0.7,1.6,1.6,2.1,2.7c0.8,1.8,1,3.8,0.5,5.6c-0.3,1.1-0.9,2.1-1.6,2.9
		c-0.9-0.7-1.6-1.6-2.1-2.7c-0.8-1.8-1-3.8-0.4-5.6C118.2,80.9,118.7,79.9,119.5,79.1z"/>
	<path class="st16" d="M93.1,79.1c0.5,2.9,3.9,3.7,6.8,3.6s5.7-1.5,8.6-2.3c5-1.4,10.3-1.1,15.1,0.7c2.5,1,4.9,2.4,7.4,3.1
		s5.6,0.6,7.7-1.1s2.2-6.3-0.1-7.7l-3.5-1.8c-6-3.4-12.6-4.4-19.5-4.1l0,0c-8.1,0.3-13.2,1.9-19.4,7L93.1,79.1z"/>
	<path class="st17" d="M93.1,79.1c0.4,1.1,1.2,2,2.2,2.6c1,0.5,2.1,0.8,3.2,0.9c1.1,0,2.2-0.1,3.2-0.5c1.1-0.3,2.2-0.8,3.2-1.2
		c2.2-1.1,4.6-1.8,7-2.3c2.5-0.4,5-0.4,7.5-0.1c2.5,0.4,4.9,1.2,7.1,2.2c2,1.1,4.2,1.9,6.4,2.3c1.1,0.2,2.1,0.1,3.2-0.1
		c1-0.2,1.9-0.7,2.6-1.5c0.7-0.8,1.1-1.9,1.1-3c0.1-1.2-0.4-2.3-1.3-3c0.6,0.3,1,0.7,1.4,1.2c0.4,0.5,0.6,1.1,0.7,1.8
		c0.2,1.3-0.1,2.7-0.8,3.8c-0.8,1.1-1.9,2-3.2,2.4c-1.3,0.4-2.6,0.6-3.9,0.5c-2.7-0.1-5-1.2-7.2-2c-1.1-0.5-2.1-0.8-3.2-1.2
		c-1.1-0.3-2.2-0.6-3.3-0.7c-2.2-0.3-4.5-0.4-6.7-0.1c-2.3,0.3-4.5,0.9-6.7,1.7c-2.3,0.8-4.8,1.5-7.4,1c-1.3-0.3-2.4-0.8-3.4-1.6
		C93.9,81.5,93.2,80.3,93.1,79.1z"/>
	<path class="st20" d="M96.3,76.5c2-3,4.9-5.4,8.2-6.9c0.4-0.2,0.8-0.4,1.2-0.6l1.3-0.4c0.4-0.2,0.9-0.3,1.3-0.4l1.3-0.3l1.3-0.3
		c0.4-0.1,0.9-0.1,1.4-0.2c0.9-0.1,1.8-0.2,2.7-0.2c3.6,0,7.2,0.6,10.7,1.7c1.7,0.6,3.3,1.3,5,2c1.6,0.9,3.1,1.8,4.6,2.7
		c-1.7-0.5-3.4-1.1-5-1.7l-2.5-0.7c-0.8-0.2-1.6-0.5-2.5-0.7c-1.7-0.4-3.4-0.7-5.1-0.8c-0.8-0.1-1.7-0.2-2.5-0.3h-2.5
		c-3.4,0.1-6.7,0.7-9.9,1.8C101.9,72.4,98.9,74.2,96.3,76.5z"/>
	<path class="st17" d="M166.6,85c0,0,14.4-23.5,38.9-1.8C205.5,83.2,184.4,114.6,166.6,85z"/>
	<path class="st18" d="M167.6,85c0,0,12.3-21.5,34.9-1.5C202.5,83.4,185.8,109,167.6,85z"/>
	<circle class="st9" cx="182.5" cy="84.5" r="9.6"/>
	<path class="st19" d="M182.9,79.1c0.8,0.9,1.3,1.9,1.6,3c0.3,0.9,0.4,1.9,0.3,2.8c-0.1,1-0.3,1.9-0.7,2.8c-0.5,1-1.2,1.9-2,2.6
		c-0.8-0.8-1.3-1.9-1.6-2.9c-0.5-1.9-0.4-3.9,0.5-5.6C181.3,80.7,182,79.8,182.9,79.1z"/>
	<path class="st16" d="M209.2,79.1c-0.5,2.9-3.9,3.7-6.8,3.6s-5.7-1.5-8.6-2.3c-5-1.4-10.3-1.1-15.1,0.7c-2.5,1-4.9,2.4-7.5,3.1
		s-5.6,0.6-7.7-1.1s-2.2-6.3,0-7.7l3.5-1.8c6-3.4,12.6-4.4,19.5-4.1l0,0c8.1,0.3,13.2,1.9,19.4,7L209.2,79.1z"/>
	<path class="st17" d="M209.2,79.1c-0.1,1.3-0.8,2.4-1.8,3.2c-1,0.8-2.2,1.4-3.4,1.6c-2.6,0.5-5.1-0.3-7.4-1
		c-2.1-0.8-4.4-1.4-6.7-1.7c-2.2-0.3-4.5-0.3-6.7,0.1c-1.1,0.2-2.2,0.4-3.3,0.7c-1.1,0.3-2.2,0.7-3.2,1.2c-2.2,0.8-4.5,1.9-7.2,2
		c-1.3,0.1-2.7-0.1-3.9-0.5c-1.3-0.4-2.4-1.3-3.2-2.4c-0.7-1.1-1-2.5-0.8-3.8c0.1-0.6,0.3-1.2,0.7-1.8c0.4-0.5,0.8-0.9,1.4-1.2
		c-0.9,0.7-1.4,1.8-1.3,3c0,1.1,0.4,2.1,1.1,2.9c0.7,0.8,1.6,1.3,2.6,1.5c1,0.2,2.1,0.3,3.2,0.1c2.2-0.5,4.4-1.2,6.4-2.3
		c2.3-1.1,4.7-1.8,7.1-2.2c2.5-0.4,5-0.3,7.5,0.1c2.4,0.5,4.8,1.2,7,2.3c1.1,0.5,2.1,0.9,3.2,1.2c1,0.4,2.2,0.5,3.3,0.5
		c1.1-0.1,2.2-0.4,3.2-0.9C208,81,208.8,80.1,209.2,79.1z"/>
	<path class="st20" d="M206.1,76.5c-2.6-2.3-5.6-4.1-8.9-5.2c-3.2-1.1-6.5-1.8-9.9-1.8h-2.5c-0.8,0-1.7,0.2-2.5,0.3
		c-1.7,0.2-3.4,0.5-5.1,0.8c-0.9,0.1-1.7,0.5-2.5,0.7l-2.5,0.7c-1.6,0.6-3.3,1.2-5,1.7c1.5-1,3-1.8,4.6-2.7c1.6-0.7,3.3-1.5,5-2
		c3.4-1.1,7.1-1.7,10.7-1.7c0.9,0,1.8,0.1,2.7,0.2c0.4,0.1,0.9,0.1,1.4,0.2l1.3,0.3l1.3,0.3c0.4,0.1,0.9,0.3,1.3,0.4l1.3,0.4
		c0.4,0.2,0.8,0.4,1.2,0.6C201.2,71.1,204,73.5,206.1,76.5z"/>
</g>
</svg>
