<?xml version="1.0" encoding="utf-8"?>
<!-- Generator: Adobe Illustrator 25.2.0, SVG Export Plug-In . SVG Version: 6.00 Build 0)  -->
<svg version="1.1" id="Layer_1" xmlns="http://www.w3.org/2000/svg" xmlns:xlink="http://www.w3.org/1999/xlink" x="0px" y="0px"
	 viewBox="0 0 243.2 444.2" style="enable-background:new 0 0 243.2 444.2;" xml:space="preserve">
<style type="text/css">
	.st0{fill:#7333A3;}
	.st1{fill:#7EA540;}
	.st2{fill:#90BD4A;}
	.st3{fill:#FAAA2D;}
	.st4{fill:#612B89;}
	.st5{fill:#61498A;}
	.st6{fill:#8463BE;}
	.st7{fill:#7256A5;}
	.st8{fill:#240360;}
	.st9{fill:#E19D35;}
	.st10{fill:#FAAF3B;}
	.st11{fill:#2E047A;}
	.st12{fill:#A87DF1;}
	.st13{fill:#F1F1F1;}
	.st14{fill:#EE8031;}
	.st15{fill:#7333A2;}
	.st16{fill:#853BBC;}
	.st17{fill:#472063;}
	.st18{fill:#3B224D;}
	.st19{clip-path:url(#SVGID_2_);}
	.st20{fill:#FFFFFF;}
	.st21{fill:#261234;}
	.st22{fill:#8F5CB5;}
	.st23{clip-path:url(#SVGID_4_);}
	.st24{fill:#7356A4;}
	.st25{fill:#FAC26C;}
</style>
<g id="b-arm">
	<path class="st0" d="M126.3,181.3c-7.5,0.7-15.1,0.8-22.7,0.2c-7.6-0.6-15.1-2-22.4-4.2c-7.1-2.2-13.9-5-20.5-8.4
		c-3.2-1.7-6.3-3.5-9.3-5.3c-1.5-0.9-3-1.9-4.5-2.9l-2.2-1.5l-1.1-0.7l-0.5-0.4l-0.3-0.2l-0.1-0.1h-0.1l0,0l0,0c1.8-3.1-4,7,4-7
		s2.2-3.9,4-7l0,0l0,0h0.1l0.1,0.1l0.3,0.1l0.5,0.2l1.1,0.5l2.2,0.9c1.5,0.6,3,1.1,4.5,1.7c3,1.1,5.9,2.1,8.9,3
		c5.8,1.7,11.7,2.9,17.7,3.5c5.8,0.5,11.6,0.5,17.4-0.3c5.8-0.7,11.5-2,17.1-3.7c8.5-2.5,17.5,2.3,20,10.8s-2.3,17.5-10.8,20
		c-1,0.3-2,0.5-3.1,0.6L126.3,181.3z"/>
</g>
<g id="b-hand">
	<path class="st1" d="M36.2,148.8c-8.5-3.2-17.6-4.6-26.7-4.2H9.4c-3.4,0.2-6.6-1.8-7.2-4.3c-0.5-2.3,1.2-4.2,4-4.8
		c5.6-1,11.4-1.4,17.1-1.2c6,0.2,11.9,1,17.7,2.3l0.2,0.1c4.8,1.1,8,4.8,7,8.3s-5.7,5.4-10.5,4.2C37.2,149.1,36.7,149,36.2,148.8z"
		/>
	<path class="st2" d="M37.5,148.1c-8.1-4.1-16.9-6.6-26-7.3h-0.1c-3.4-0.2-6.4-2.5-6.7-5.1c-0.3-2.3,1.7-4.1,4.5-4.3
		c5.7-0.3,11.5-0.1,17.1,0.8c5.9,0.9,11.7,2.4,17.4,4.4l0.2,0.1c4.7,1.7,7.3,5.7,6,9.1s-6.2,4.7-10.9,3
		C38.5,148.6,38,148.3,37.5,148.1z"/>
	<path class="st2" d="M58.3,156.5c0,0,0.5-20.3-28.5-22.7l-9.3,9.4c0,0,14.2,26,27,23L58.3,156.5z"/>
	<path class="st2" d="M32.8,148.1c-8.1-4.2-16.9-6.7-26-7.4H6.7c-3.4-0.3-6.3-2.6-6.7-5.2c-0.3-2.3,1.7-4.1,4.5-4.2
		c5.7-0.3,11.5,0,17.1,0.9c5.9,0.9,11.7,2.4,17.4,4.5l0.2,0.1c4.7,1.7,7.3,5.8,5.9,9.1s-6.3,4.6-10.9,2.9
		C33.7,148.6,33.3,148.4,32.8,148.1z"/>
	<path class="st2" d="M45.3,158.5c-5.9,12.9-24.4,4.6-33.7-0.6c-0.9-0.4-1.7-1.1-2.3-2c-0.6-1.2-0.5-2.5,0.2-3.6
		c0.3-0.4,0.7-0.8,1.2-1c0.7-0.3,1.6-0.4,2.3-0.3c3.1,0.5,13.4,1.8,16.1-2.5L45.3,158.5z"/>
	<path class="st3" d="M44.5,140.4c-3.6,7.7-5.6,16.1-6,24.6c-0.3,6,4.5,10.7,9.6,10.4l0,0c4.8-0.2,8.6-4,8.9-8.8
		c0.3-6.6,1.9-13.2,4.7-19.2c1.9-4.4,0.3-9.5-3.9-11.9l0,0C53.5,132.9,47.1,134.9,44.5,140.4z"/>
</g>
<g id="b-leg">
	<path class="st4" d="M178.8,267c-6,14.4-9.5,29.8-10.2,45.4c-0.3,7.9,0.2,15.7,1.3,23.5c0.4,2,0.6,3.9,1,5.9s0.8,3.9,1.3,5.9
		s1,3.9,1.5,5.9l2.5,8.2l-26.5,5.3c1.4,4.7,0.4,1.3,0.7,2.3l0,0l0,0v-0.1l-0.1-0.2l-0.2-0.4l-0.4-0.8l-0.7-1.6l-1.4-3.3
		c-0.9-2.2-1.8-4.5-2.6-6.7s-1.6-4.6-2.4-6.8s-1.4-4.6-2.1-7c-2.6-9.5-4.3-19.2-5.1-29c-0.8-9.9-0.7-19.8,0.4-29.7
		c1.1-9.8,2.9-19.5,5.6-29L178.8,267z"/>
</g>
<g id="b-shoe">
	<path class="st5" d="M123.5,439.4l-10.9-1.2c-5-0.5-8.7-5-8.3-10c0,0,0-0.1,0-0.1l0.7-5.9l29.7,3.3l-0.7,5.9
		C133.2,436.4,128.6,440,123.5,439.4z"/>
	<path class="st5" d="M157.8,439.2l10.8-2.3c5-1,8.2-5.8,7.2-10.7c0,0,0-0.1,0-0.1l-1.3-5.8l-29.2,6.2l1.3,5.7
		C147.8,437.2,152.8,440.3,157.8,439.2z"/>
	<path class="st6" d="M190,398.3l-0.6-10.2c-0.3-4.8-4.9-8.5-10.4-8.3l-6.4,0.3l1.6,27.6l6.4-0.3C186.1,407.2,190.3,403.1,190,398.3
		z"/>
	<path class="st7" d="M182.3,410.5c-0.5,2.4-1.2,4.7-2,7c-5.4,15.3-76.6,21.4-87.6,4.3c-0.9-1.9-1.5-4-1.7-6.2
		c-2.1-24.2,50.3-43.7,50.3-43.7l36.7-1.8C183.8,383.4,185.3,397.2,182.3,410.5z"/>
	<path class="st8" d="M182.3,410.5c-16.5,10.5-70.8,14.6-91.3,5.1c-2.1-24.2,50.3-43.7,50.3-43.7l36.7-1.8
		C183.8,383.4,185.3,397.2,182.3,410.5z"/>
	<path class="st9" d="M174.5,374.6c-11.7,2.4-23.6,2.7-35.4,1c-8.3-1.2-13.3-8.2-11.4-14.1l0,0c2-6,8.4-9.3,14.6-8.5
		c9.2,1.3,18.5,1,27.6-0.8c6.1-1.2,12.8,1.8,15.1,7.6l0,0C187.3,365.7,182.7,373,174.5,374.6z"/>
	<path class="st10" d="M174.1,359.9c-11.7,2.4-23.6,2.7-35.4,1c-8.3-1.2-13.3-8.1-11.4-14.1l0,0c1.9-6,8.4-9.4,14.6-8.5
		c9.2,1.3,18.5,1.1,27.6-0.8c6.1-1.2,12.8,1.8,15.1,7.6l0,0C186.9,351,182.3,358.2,174.1,359.9z"/>
</g>
<g id="body">
	
		<ellipse transform="matrix(8.385172e-02 -0.9965 0.9965 8.385172e-02 -118.6232 396.2832)" class="st6" cx="156.2" cy="262.7" rx="21.6" ry="40.4"/>
	<path class="st11" d="M229.8,135.8c-48.8,20-92.2,19.8-142.1,2.6c-2.7,6.8-4.9,13.7-6.8,20.7c-16,59.4,27,118.5,84.8,116.9l0,0
		c57.7-1.6,91.5-61.4,72.2-119.9C235.5,149.2,232.8,142.4,229.8,135.8z"/>
	
		<ellipse transform="matrix(0.9902 -0.1399 0.1399 0.9902 -35.7063 26.5623)" class="st6" cx="171.1" cy="267.3" rx="40.4" ry="21.6"/>
	<path class="st12" d="M214.8,151.7c-12.6,8-30.9,14.5-52.2,17.3c-50.3,6.7-89.5-10.2-78.3-33.7c0.1-0.3,0.2-0.5,0.4-0.8
		c0,0,0-0.1,0-0.1c2.6-5,7.7-8.2,13.4-8.2c38.7,0.3,77.3-4.9,114.6-15.3c5.5-1.5,11.4,0.2,15.3,4.4l0.1,0.1c0.2,0.2,0.4,0.4,0.6,0.7
		C238.6,127.3,231.9,140.9,214.8,151.7z"/>
	
		<ellipse transform="matrix(0.9996 -2.809610e-02 2.809610e-02 0.9996 -5.0497 4.6445)" class="st6" cx="162.7" cy="182" rx="27.4" ry="33.6"/>
	<path class="st13" d="M71.2,193.3c0-4.4,3.9-7.1,7.1-5.1c7.5,4.7,20.1,8.3,33.2,8.6c16.8,0.3,19,41.7,9.4,61
		c-2.9,5.8-9,7.9-14.2,5.3C94.8,256.8,71.1,238.9,71.2,193.3z"/>
	
		<ellipse transform="matrix(0.9966 -8.280820e-02 8.280820e-02 0.9966 -17.0288 9.9336)" class="st2" cx="111.2" cy="210.3" rx="3.9" ry="4.2"/>
	
		<ellipse transform="matrix(0.9966 -8.280820e-02 8.280820e-02 0.9966 -16.8828 8.9871)" class="st14" cx="99.9" cy="208" rx="3.9" ry="4.2"/>
	
		<ellipse transform="matrix(0.9966 -8.280820e-02 8.280820e-02 0.9966 -16.7347 8.0837)" class="st2" cx="89.1" cy="205.8" rx="3.9" ry="4.2"/>
</g>
<g id="head">
	<path class="st15" d="M234.4,89.2c1.5-5.6,8.1-10.9,8-16.8s-7.1-10.9-8.9-16.4s0.9-13.3-2.4-18.3s-11.9-5.9-16.4-10.1
		s-5.7-12.1-11.1-15.2c-5.2-3-13.5-0.5-19.5-2.5c-5.8-2-10.4-8.9-16.7-9.8c-6-0.9-12.7,4.3-19.1,4.5S135,0,129,1.2
		c-6.2,1.3-10.4,8.4-16,10.7c-5.9,2.4-14.3,0.3-19.3,3.6c-4.7,3.1-5.8,10-9.1,14.4c-1,1.3-1.9,2.7-2.6,4.2
		c-3.7,7.7-12.9,30.4-8.3,56.8c-0.9,1-6.6,8.2,2.9,11.8c0.2,0.5,0.3,1,0.5,1.5c2,5.7,4.6,11.1,7.7,16.2l0.2,0.3
		c0.6,0.9,1.3,1.8,2,2.6c3.7,4.2,5.1,11.3,10.1,14.2c5.2,3,13.5,0.5,19.5,2.5c5.8,1.9,10.3,8.9,16.6,9.8c6,0.9,12.7-4.4,19.1-4.5
		s13.3,4.7,19.3,3.4c6.2-1.3,10.4-8.4,16.1-10.7c5.9-2.4,14.2-0.3,19.3-3.6s6-11.5,10.2-15.8s12.8-5.9,15.8-11
		S232.9,94.9,234.4,89.2z"/>
	<path class="st4" d="M192.4,32c0.5-0.6,1.2-1,1.9-1.1c0.8-0.1,1.6-0.1,2.3,0.1c1.5,0.4,2.9,1.2,3.9,2.4c2,2.2,3.5,4.7,5.9,5.4
		c1.3,0.4,2.7,0.7,4.1,1c0.8,0.2,1.5,0.4,2.3,0.8c0.8,0.4,1.5,0.9,2.1,1.5c1.2,1.2,1.9,2.8,2.1,4.5c0.2,1.6-0.2,3.2-1.1,4.5
		l-0.2-0.1c0.3-2.6-0.7-5.2-2.6-6.9c-1.6-1.4-4.4-1.9-7.4-3.2c-0.7-0.3-1.4-0.8-2.1-1.3c-0.6-0.5-1.1-1.1-1.6-1.7
		c-0.9-1.2-1.6-2.5-2.4-3.6c-0.8-1.1-1.9-2-3.1-2.5c-1.2-0.6-2.7-0.4-3.8,0.4L192.4,32z"/>
	<path class="st4" d="M202.2,117.8c0.8,0.5,1.8,0.6,2.6,0.1c0.8-0.4,1.5-1,2-1.8c0.5-0.8,1-1.7,1.6-2.5c0.6-0.9,1.4-1.7,2.4-2.2
		c1.9-1,3.9-1.4,4.9-2.5c1.3-1.3,1.9-3.1,1.6-4.8l0.2-0.1c1.4,1.9,1.2,4.5-0.3,6.2c-0.8,0.9-1.8,1.5-2.9,1.8
		c-0.9,0.2-1.9,0.5-2.8,0.8c-1.6,0.6-2.6,2.4-3.9,4c-0.7,0.8-1.6,1.5-2.6,1.8c-0.5,0.2-1,0.2-1.6,0.2c-0.5-0.1-1-0.3-1.4-0.7
		L202.2,117.8z"/>
	<path class="st4" d="M138.5,23.7c-0.2-1.7,0.5-3.4,1.7-4.6c0.7-0.6,1.5-1.1,2.4-1.3c0.9-0.2,1.8-0.3,2.7-0.2
		c1.7,0.1,3.2,0.6,4.7,0.9c1.3,0.3,2.7,0.2,4-0.1c1.3-0.4,2.7-1,4.3-1.6c0.8-0.3,1.6-0.5,2.4-0.7c0.9-0.2,1.8-0.2,2.7-0.1
		c1.8,0.2,3.4,1,4.7,2.2c1.2,1.1,2.1,2.6,2.6,4.1c-0.9-1.2-2.1-2.3-3.4-3.1c-1.2-0.7-2.6-1.1-4-1.1c-0.7,0-1.3,0.1-2,0.3
		c-0.7,0.2-1.4,0.5-2,0.8c-1.5,0.7-3,1.3-4.5,1.8c-0.9,0.2-1.8,0.4-2.7,0.4c-0.9,0-1.8-0.1-2.6-0.4c-1.6-0.4-3.1-0.9-4.5-1.3
		c-0.7-0.2-1.3-0.2-2-0.2c-0.7,0.1-1.3,0.3-1.9,0.6C139.8,21,138.9,22.3,138.5,23.7z"/>
	<path class="st4" d="M104.9,121.4c0.8,0.4,1.8,0.6,2.7,0.4c0.8-0.3,1.5-0.9,1.9-1.6c0.4-0.8,0.8-1.7,1.3-2.6c0.5-1,1.3-1.9,2.3-2.5
		c1.9-1.1,3.9-1.5,5-2.7c1.2-1.5,1.7-3.4,1.2-5.2c0.5,0.9,0.8,1.9,0.8,3c0,1.1-0.3,2.2-1,3.1c-0.3,0.5-0.7,0.9-1.2,1.2
		c-0.4,0.3-0.9,0.6-1.4,0.8c-0.9,0.5-1.8,0.8-2.6,1.3c-0.7,0.4-1.4,1.1-1.8,1.8c-0.5,0.8-1,1.7-1.6,2.6c-0.3,0.5-0.8,0.9-1.2,1.2
		c-0.5,0.3-1.1,0.5-1.6,0.5C106.6,122.7,105.6,122.2,104.9,121.4z"/>
	
		<ellipse transform="matrix(0.9996 -2.809610e-02 2.809610e-02 0.9996 -2.13 4.4559)" class="st16" cx="157.5" cy="78" rx="23.1" ry="29.6"/>
	
		<ellipse transform="matrix(0.9996 -2.809610e-02 2.809610e-02 0.9996 -2.13 4.4559)" class="st17" cx="157.5" cy="78" rx="16.1" ry="20.6"/>
	<path class="st18" d="M77,80.1c0,0,5.1-26.1,26.3-12.5C103.3,67.6,95.1,102.9,77,80.1z"/>
	<g>
		<defs>
			<path id="SVGID_1_" d="M77.7,79.8c0,0,4.1-23.6,23.7-11.1C101.3,68.6,95,97.3,77.7,79.8z"/>
		</defs>
		<clipPath id="SVGID_2_">
			<use xlink:href="#SVGID_1_"  style="overflow:visible;"/>
		</clipPath>
		<g class="st19">
			<path class="st20" d="M77.7,79.8c0,0,4.1-23.6,23.7-11.1C101.3,68.6,95,97.3,77.7,79.8z"/>
			
				<ellipse transform="matrix(4.363309e-03 -1 1 4.363309e-03 7.0868 159.4843)" class="st2" cx="83.6" cy="76.2" rx="9.4" ry="6.8"/>
			<path class="st21" d="M80.2,71.1c0.8,0.7,1.5,1.5,1.9,2.5c0.8,1.7,1.1,3.6,0.8,5.4c-0.2,1-0.5,2-1.1,2.9
				c-0.8-0.7-1.5-1.6-1.9-2.5c-0.4-0.8-0.7-1.7-0.8-2.6c-0.1-0.9-0.1-1.9,0-2.8C79.3,73,79.7,72,80.2,71.1z"/>
		</g>
	</g>
	<path class="st15" d="M108.3,71.3c-0.4,2.9-3.2,3.9-5.7,4.1s-4.8-1-7.1-1.5c-4.3-0.9-8.8-0.2-12.6,2c-2.1,1.2-3.9,3-6.2,3.7
		s-3.5,0-6.1-0.8c-2.2-0.7-2.1-5.5-0.2-7l2.9-2.1c4.7-3.5,10.3-5.5,16.2-5.7l0,0c6.7-0.4,11,0.7,16.2,5.1L108.3,71.3z"/>
	<path class="st18" d="M108.3,71.3c0,0.9-0.3,1.8-0.8,2.6c-0.5,0.8-1.2,1.5-2,2c-0.8,0.5-1.8,0.9-2.7,1c-1,0.1-1.9,0.1-2.9-0.1
		c-1.8-0.3-3.5-1-5-1.3c-1.6-0.4-3.1-0.5-4.7-0.4c-1.6,0.1-3.2,0.5-4.7,1c-1.6,0.5-3.1,1.2-4.5,2.1c-0.8,0.4-1.6,0.8-2.4,1.2
		c-0.9,0.4-1.8,0.7-2.7,0.8c-1.8,0-3.6-0.4-5.2-1.3c1.7,0.2,3.4,0.2,5-0.1c0.7-0.3,1.4-0.6,2.1-1.1c0.7-0.4,1.4-0.9,2.1-1.4
		c1.5-1.1,3.1-2,4.7-2.7c1.7-0.7,3.6-1.1,5.4-1.2c1.9-0.1,3.8,0.1,5.6,0.6c1.8,0.5,3.4,1.3,4.9,1.8c1.4,0.5,3,0.5,4.5,0
		C106.5,74,107.7,72.8,108.3,71.3z"/>
	<path class="st22" d="M105.7,69.1c-2.1-2-4.7-3.5-7.5-4.4c-2.7-0.9-5.6-1.1-8.4-0.8c-0.7,0.1-1.4,0.2-2.1,0.3l-2.1,0.5
		c-0.7,0.1-1.4,0.3-2.1,0.6c-0.7,0.2-1.4,0.5-2.1,0.7l-4,1.8c-1.3,0.7-2.6,1.3-4,2c1.1-1,2.3-1.9,3.5-2.9s2.6-1.6,3.9-2.3
		c2.8-1.4,5.8-2.3,8.8-2.7c0.8-0.1,1.5-0.1,2.3-0.1h1.2c0.4,0,0.8,0.1,1.2,0.2c0.8,0.1,1.5,0.3,2.3,0.5c0.8,0.2,1.5,0.5,2.2,0.8
		C101.7,64.4,104.1,66.4,105.7,69.1z"/>
	<path class="st18" d="M75.1,99c0-0.5,0.1-1.1,0.4-1.6c0.2-0.5,0.5-0.9,0.9-1.3c0.4-0.4,0.9-0.7,1.4-0.8c0.6-0.2,1.1-0.1,1.7,0.1
		c-0.5,0.3-0.8,0.6-1.2,0.9s-0.7,0.6-1,0.9C76.6,97.8,75.9,98.5,75.1,99z"/>
	<g>
		<defs>
			<path id="SVGID_3_" d="M234.4,89.2c-1.5,5.7,1.7,13.2-1.3,18.4s-11.6,6.6-15.8,11s-5,12.4-10.2,15.8s-13.4,1.3-19.3,3.6
				c-5.6,2.3-9.8,9.4-16.1,10.7c-6,1.2-12.9-3.6-19.3-3.4s-13,5.4-19.1,4.5c-6.3-0.9-10.9-7.8-16.6-9.8c-6-2-14.2,0.5-19.5-2.5
				c-5-2.9-6.5-9.9-10.1-14.2c-0.7-0.8-1.4-1.7-2-2.6l-0.2-0.3c-3.1-5.1-5.7-10.5-7.7-16.2c-11.2-31.8,0.6-61,4.9-70
				c0.7-1.5,1.6-2.9,2.6-4.2c3.2-4.4,4.4-11.3,9.1-14.4c5-3.3,13.4-1.3,19.3-3.6c5.7-2.3,9.8-9.4,16-10.7c6-1.2,13,3.6,19.4,3.4
				s13-5.4,19.1-4.5c6.3,0.9,10.9,7.8,16.6,9.8c6,2,14.2-0.5,19.5,2.5c5.4,3.1,6.7,11.2,11.1,15.2s13.1,5.2,16.4,10.1
				s0.5,12.7,2.4,18.3s8.7,10.4,8.9,16.4S235.9,83.6,234.4,89.2z"/>
		</defs>
		<clipPath id="SVGID_4_">
			<use xlink:href="#SVGID_3_"  style="overflow:visible;"/>
		</clipPath>
		<g class="st23">
			<path class="st18" d="M74.3,107.3c1.3-0.1,2.6-0.2,3.8-0.4c1.2-0.2,2.5-0.4,3.7-0.8c1.2-0.4,2.3-0.8,3.5-1.1
				c1.3-0.2,2.7-0.3,4-0.2l0.1,0.3c-0.8,1.2-2,2.1-3.3,2.6c-1.3,0.5-2.6,0.7-4,0.6c-1.3,0.1-2.7,0.1-4-0.1c-1.3-0.1-2.6-0.4-3.9-0.8
				L74.3,107.3z"/>
		</g>
	</g>
</g>
<g id="f-leg">
	<path class="st0" d="M193.8,271.7c-6,14.4-9.5,29.7-10.2,45.3c-0.3,7.9,0.2,15.7,1.3,23.5c0.4,2,0.6,3.9,1,5.9s0.8,3.9,1.3,5.9
		s1,3.9,1.5,5.9l2.5,8.2l-26.5,5.2c1.4,4.7,0.4,1.3,0.7,2.4l0,0v0l-0.1-0.1l-0.1-0.2l-0.2-0.4l-0.4-0.8l-0.7-1.6l-1.4-3.3
		c-0.9-2.2-1.7-4.5-2.6-6.7s-1.6-4.5-2.4-6.8s-1.4-4.6-2.1-7c-5.3-19.1-6.9-39-4.7-58.7c1.1-9.8,2.9-19.5,5.5-29L193.8,271.7z"/>
	<path class="st4" d="M165.1,310.8c0.1,1.6-0.5,3.3-1.7,4.5c-1.1,1.3-2.6,2.1-4.2,2.6c-1.6,0.4-3.3,0.4-4.9,0c-1.6-0.4-3-1.3-4-2.6
		c1.3,0.6,2.8,1,4.3,1.2c1.4,0.1,2.8,0,4.2-0.3c1.3-0.3,2.6-1,3.7-1.8C163.6,313.3,164.5,312.1,165.1,310.8z"/>
</g>
<g id="f-shoe">
	<path class="st24" d="M133.4,444.2l-10.9-1.2c-5-0.5-8.7-5-8.3-10c0,0,0-0.1,0-0.1l0.7-5.9l29.7,3.3l-0.7,5.9
		C143.2,441.2,138.5,444.8,133.4,444.2z"/>
	<path class="st24" d="M172.8,442.3l10.8-2.3c5-1,8.2-5.8,7.2-10.7c0,0,0-0.1,0-0.1l-1.3-5.8l-29.2,6.2l1.3,5.8
		C162.8,440.4,167.7,443.5,172.8,442.3z"/>
	<path class="st6" d="M205,403l-0.6-10.2c-0.3-4.8-4.9-8.5-10.4-8.3l-6.4,0.3l1.6,27.6l6.4-0.3C201,411.8,205.2,407.8,205,403z"/>
	<path class="st6" d="M197.2,415.1c-0.5,2.4-1.2,4.7-2,7c-5.4,15.4-76.6,21.4-87.6,4.3c-0.9-1.9-1.5-4-1.7-6.2
		c-2.1-24.2,50.3-43.7,50.3-43.7l36.7-1.8C198.7,388,200.2,401.9,197.2,415.1z"/>
	<path class="st11" d="M197.2,415.1c-16.5,10.5-70.8,14.6-91.3,5.1c-2.1-24.2,50.3-43.7,50.3-43.7l36.7-1.8
		C198.7,388,200.2,401.9,197.2,415.1z"/>
	<path class="st10" d="M189.4,379.3c-11.7,2.4-23.6,2.7-35.4,1c-8.3-1.2-13.3-8.1-11.4-14.1l0,0c1.9-6,8.4-9.4,14.6-8.5
		c9.2,1.3,18.5,1.1,27.6-0.8c6.1-1.2,12.8,1.8,15.1,7.6l0,0C202.2,370.4,197.6,377.6,189.4,379.3z"/>
	<path class="st25" d="M189,364.5c-11.7,2.4-23.6,2.7-35.4,1c-8.3-1.2-13.3-8.1-11.4-14.1l0,0c2-6,8.4-9.4,14.6-8.5
		c9.2,1.3,18.5,1.1,27.6-0.8c6.1-1.2,12.8,1.8,15.1,7.7l0,0C201.8,355.6,197.2,362.9,189,364.5z"/>
</g>
<path id="shorts" class="st6" d="M148.6,275.5c0,0,41.2-11,43.8,1.2s7.6-21.5,7.6-21.5l-31.6-5.5l-22,6.8L148.6,275.5z"/>
<g id="f-arm">
	<path class="st0" d="M169.6,199.6c-6,4.6-12.5,8.6-19.2,12.1c-6.8,3.5-13.9,6.2-21.3,8.2c-7.2,1.9-14.5,3.1-21.8,3.6
		c-3.6,0.3-7.2,0.4-10.7,0.4c-1.8,0-3.5,0-5.3-0.1l-2.6-0.1l-1.3-0.1h-0.7h-0.6c-0.1-3.6,0.3,8-0.3-8s-0.2-4.4-0.3-8l0,0h0.1h0.1H86
		l0.6-0.1l1.2-0.2l2.4-0.4c1.6-0.3,3.1-0.6,4.7-0.9c3.1-0.6,6.2-1.3,9.1-2.2c5.8-1.6,11.5-3.7,16.9-6.4c5.2-2.6,10.1-5.9,14.7-9.6
		c4.5-3.7,8.8-7.7,12.6-12.1c6-6.5,16.2-6.9,22.8-0.9c6.4,5.9,6.9,15.7,1.3,22.3c-0.7,0.8-1.5,1.5-2.3,2.1L169.6,199.6z"/>
</g>
<g id="f-hand">
	<path class="st2" d="M55.9,211.5c-5.4-2.7-8.6-2.4-12.8-1.8c-0.7,0.1-1.5-0.2-2-0.7c-1.5-1.3-1.3-4-0.5-5.6
		c1.6-2.8,4.2-4.8,7.3-5.6c8.6-2.9,23.4-2,32,5.4L55.9,211.5z"/>
	<path class="st2" d="M90.3,233.3c-4,7.4-13.6,12.6-21.6,14.3l-0.6,0.1l-15.5-38.6l27.4-6L90.3,233.3z"/>
	<path class="st2" d="M51.3,211.1c-5.3,3.9-11.6,6.1-18.2,6.4H33c-2.4,0.2-4.3,2.3-4.1,4.7c0,0.1,0,0.1,0,0.2
		c0.2,2.3,1.9,4.1,4.1,4.4c4.2,0.6,8.5,0.5,12.7-0.2c4.2-0.7,8.3-2,12.2-3.8l0.2-0.1c3.2-1.7,4.5-5.7,2.9-8.9
		c-1.4-3.3-5.3-4.8-8.6-3.4c0,0,0,0-0.1,0C51.9,210.7,51.6,210.8,51.3,211.1z"/>
	<path class="st2" d="M56.9,218.6c-5.2,4-11.6,6.2-18.2,6.4h-0.1c-2.5,0.1-4.3,2.4-4,5.1c0.2,2.4,1.9,4.4,4.3,4.9
		c4.2,0.7,8.6,0.8,12.8,0.2c4.2-0.6,8.4-1.8,12.2-3.7l0.2-0.1c3.2-1.5,4.4-5.8,2.7-9.5s-5.7-5.5-8.9-4
		C57.5,218.2,57.2,218.4,56.9,218.6z"/>
	<path class="st2" d="M61.2,226.7c-5.2,4-11.6,6.2-18.2,6.4h-0.1c-2.5,0.1-4.3,2.4-4,5.1c0.2,2.4,1.9,4.4,4.3,4.9
		c4.2,0.7,8.5,0.8,12.8,0.2c4.3-0.6,8.4-1.8,12.2-3.7l0.2-0.1c3.1-1.5,4.3-5.8,2.6-9.5s-5.7-5.4-8.9-3.9
		C61.8,226.3,61.5,226.5,61.2,226.7z"/>
	<path class="st2" d="M66.2,232.8c-5.2,4-11.6,6.2-18.2,6.3h-0.1c-2.5,0.1-4.3,2.4-4,5.1c0.2,2.4,1.9,4.4,4.3,4.9
		c8.5,1.4,17.3,0.2,25-3.5l0.2-0.1c3.2-1.5,4.4-5.8,2.7-9.5s-5.7-5.4-8.9-3.9C66.8,232.3,66.5,232.5,66.2,232.8z"/>
	<path class="st1" d="M32.8,226.4c2.2,0,4.3,0.1,6.4,0c2.1-0.1,4.2-0.3,6.3-0.6c2.1-0.3,4.2-0.7,6.2-1.2c2.1-0.5,4.1-1.1,6.2-1.8
		c-3.7,2.4-7.9,4-12.2,4.5c-2.2,0.3-4.4,0.4-6.6,0.2C37,227.5,34.9,227.1,32.8,226.4z"/>
	<path class="st1" d="M39.3,235.1c2.2,0,4.3,0.1,6.5,0s4.2-0.3,6.3-0.6s4.2-0.7,6.2-1.2s4.1-1.1,6.2-1.8c-3.7,2.4-7.9,3.9-12.2,4.5
		c-2.2,0.3-4.4,0.4-6.6,0.3C43.5,236.1,41.4,235.8,39.3,235.1z"/>
	<path class="st1" d="M44.3,243.3c2.2,0.1,4.3,0.1,6.4,0c2.1-0.1,4.2-0.3,6.3-0.6c2.1-0.3,4.2-0.7,6.2-1.2c2.1-0.5,4.1-1.1,6.2-1.8
		c-3.7,2.4-7.9,4-12.2,4.5c-2.2,0.3-4.4,0.4-6.6,0.2C48.5,244.3,46.3,243.9,44.3,243.3z"/>
	<path class="st3" d="M77.9,207.4c1.3,8.4,4.2,16.5,8.6,23.8c3.1,5.2,9.7,6.4,13.7,3.4l0,0c3.8-2.8,4.9-8.1,2.6-12.2
		c-3.4-5.7-5.7-12-6.7-18.6c-0.8-4.7-5-8-9.8-7.7l0,0C81.2,196.3,77,201.5,77.9,207.4z"/>
</g>
</svg>
