<?xml version="1.0" encoding="utf-8"?>
<!-- Generator: Adobe Illustrator 25.2.0, SVG Export Plug-In . SVG Version: 6.00 Build 0)  -->
<svg version="1.1" id="Layer_1" xmlns="http://www.w3.org/2000/svg" xmlns:xlink="http://www.w3.org/1999/xlink" x="0px" y="0px"
	 viewBox="0 0 313.2 543.7" style="enable-background:new 0 0 313.2 543.7;" xml:space="preserve">
<style type="text/css">
	.st0{fill:#060B47;}
	.st1{fill:#2DB6E0;}
	.st2{fill:#841263;}
	.st3{fill:none;stroke:#60024E;stroke-width:3;stroke-linecap:round;stroke-miterlimit:10;}
	.st4{fill:#43DCFF;}
	.st5{fill:#FF4280;}
	.st6{fill:#F2D3DF;}
	.st7{fill:#E82169;}
	.st8{fill:none;stroke:#FF4DA2;stroke-width:3;stroke-linecap:round;stroke-miterlimit:10;}
	.st9{fill:#FDFFFD;}
	.st10{clip-path:url(#SVGID_2_);}
	.st11{fill:#94B700;}
	.st12{fill:#140B2D;}
	.st13{fill:none;stroke:#060B47;stroke-width:4.14;stroke-linecap:round;stroke-miterlimit:10;}
</style>
<g id="rockets">
	<path class="st0" d="M127.8,267.1c0,0-4.7,5.8-19.4,5.8S89,267.1,89,267.1l5.9-18.1h27L127.8,267.1z"/>
	<path class="st1" d="M128.1,255.2c0,0-8.7,6.8-19.7,6.8s-19.8-6.8-19.8-6.8S74.9,167.9,80,139.4c2.3-13,18.6-38.6,28.3-38.6
		s26,25.6,28.3,38.6C141.8,167.9,128.1,255.2,128.1,255.2z"/>
	<path class="st0" d="M188.6,267.1c0,0-4.7,5.9-19.4,5.9s-19.4-5.8-19.4-5.8l5.9-18.2h27L188.6,267.1z"/>
	<path class="st1" d="M188.9,255.2c0,0-8.7,6.8-19.7,6.8s-19.8-6.8-19.8-6.8s-13.7-87.3-8.6-115.8c2.4-13,18.6-38.6,28.4-38.6
		s26,25.6,28.3,38.6C202.7,167.9,188.9,255.2,188.9,255.2z"/>
</g>
<path id="hips" class="st2" d="M187.8,320.2c0,0-20.2,8-49,8s-49.2-8-49.2-8l0.9-67.7h96.3L187.8,320.2z"/>
<g id="r-thigh">
	<path class="st2" d="M153.3,405.2c0,0,3.8,10.4,17.9,10.4s17.9-10.4,17.9-10.4s15.9-65.6,3.2-118.8c-2.5-10.2-13.7-15.8-26.8-12.1
		c-16.1,4.6-21.2,36.1-21.2,36.1L153.3,405.2z"/>
	<path class="st3" d="M170.8,277.9c8.7,31.1,13.4,90.2,5.1,130"/>
</g>
<g id="r-calf">
	<path class="st0" d="M148.1,495.8c-4,5.4-4.9,19.6-5,28c-0.1,3.6,2.6,6.8,6.2,7.3c8.7,1.2,17.2,3.1,25.6,5.7
		c5.4,1.6,13.9,4.4,19,4.7c7.8,0.5,15.7-0.5,23.1-2.9c0.6-3.4,0.6-6.9,0-10.3c-1-5.6-11.7-5.3-21.6-9.6s-15.8-15.1-15.8-15.1
		C172.6,497.1,157.1,483.5,148.1,495.8z"/>
	<path class="st4" d="M143,525.3c0,2.2,2.2,4.4,4.1,5.4c3.4,1.7,10.1,3.4,23.4,6.8c10.2,2.7,15.3,5.5,21.6,6
		c17.1,1.3,24.8-4.8,24.8-4.8c0.5-1.9,0.6-3.8,0.4-5.8c-0.1,0.7-0.5,1.4-1.1,1.8c0,0-7.1,6-24.4,4.4c-6.1-0.6-10.8-3.5-20.6-6
		c-6.7-1.8-11.3-2.8-14.5-3.5c-8-1.7-10.4-2.3-12.4-4.3c-0.7-0.8-1.2-1.8-1.4-2.8C143.1,523.1,143,524.8,143,525.3z"/>
	<path class="st2" d="M141.9,504.8l37.5-5.7l10.1-96.1c0,0-32.8-7.5-35.4,1C139.6,451.3,141.9,504.8,141.9,504.8z"/>
	<path class="st3" d="M176,407.9c0,0-5.2,67.9-8.5,96.2"/>
	
		<ellipse transform="matrix(0.1172 -0.9931 0.9931 0.1172 -248.1224 533.3995)" class="st4" cx="176" cy="406.3" rx="16.9" ry="11.8"/>
	<path class="st4" d="M139.9,504.4c0,1.3,0.9,2.5,2.2,2.9c12.5,4,26,3.6,38.3-1.1c1.2-0.5,2-1.7,2-3.1l-0.2-6.6c0-1.1-0.9-1.9-2-1.9
		c-0.2,0-0.4,0.1-0.7,0.1c-12,4.4-25.1,4.8-37.3,1.1c-1-0.3-2.1,0.2-2.4,1.2c-0.1,0.2-0.1,0.4-0.1,0.6L139.9,504.4z"/>
</g>
<g id="l-thigh">
	<path class="st2" d="M124.3,405.2c0,0-3.8,10.4-17.9,10.4s-17.9-10.4-17.9-10.4s-15.9-65.6-3.2-118.8c2.5-10.2,13.7-15.8,26.8-12.1
		c16.1,4.6,21.2,36.1,21.2,36.1L124.3,405.2z"/>
	<path class="st3" d="M106.7,277.9c-8.7,31.1-13.4,90.2-5.1,130"/>
</g>
<g id="l-calf">
	<path class="st0" d="M130.7,495.8c4,5.4,4.9,19.6,5,28c0.1,3.6-2.6,6.8-6.2,7.3c-8.7,1.2-17.2,3.1-25.6,5.7
		c-5.4,1.6-13.9,4.4-19,4.7c-7.8,0.4-15.7-0.5-23.1-2.9c-0.6-3.4-0.6-6.9,0-10.3c1-5.6,11.7-5.3,21.6-9.6s15.8-15.1,15.8-15.1
		C106.2,497.1,121.7,483.5,130.7,495.8z"/>
	<path class="st4" d="M135.8,525.3c0,2.2-2.2,4.4-4.1,5.4c-3.4,1.7-10.1,3.4-23.3,6.8c-10.2,2.7-15.3,5.5-21.6,6
		c-17.1,1.3-24.8-4.8-24.8-4.8c-0.5-1.9-0.6-3.8-0.4-5.8c0.1,0.7,0.5,1.4,1.1,1.8c0,0,7,6,24.4,4.4c6.1-0.6,10.8-3.5,20.6-6
		c6.7-1.8,11.3-2.8,14.5-3.5c8-1.7,10.4-2.3,12.4-4.3c0.7-0.8,1.2-1.8,1.4-2.8C135.7,523.1,135.8,524.8,135.8,525.3z"/>
	<path class="st2" d="M135.6,504.8l-37.5-5.7L88.1,403c0,0,32.8-7.5,35.4,1C137.9,451.3,135.6,504.8,135.6,504.8z"/>
	<path class="st3" d="M101.5,407.9c0,0,5.2,67.9,8.5,96.1"/>
	
		<ellipse transform="matrix(0.9931 -0.1172 0.1172 0.9931 -46.9045 14.7075)" class="st4" cx="101.6" cy="406.2" rx="11.8" ry="16.9"/>
	<path class="st4" d="M137.7,504.4c0,1.3-0.9,2.5-2.2,2.9c-12.5,4-26,3.6-38.3-1.1c-1.2-0.5-2-1.7-2-3.1l0.2-6.6
		c0-1.1,0.9-1.9,2-1.9c0.2,0,0.4,0.1,0.7,0.1c12,4.4,25.1,4.8,37.3,1.1c1-0.3,2.1,0.2,2.4,1.2c0.1,0.2,0.1,0.4,0.1,0.6L137.7,504.4z
		"/>
</g>
<g id="toro">
	<path class="st5" d="M210.3,197.5c-15.9,69.4-42.9,86.1-71.6,86.1S77.1,262.1,67,197.5c-7.3-46.9,10.5-86.1,71.6-86.1
		S220.9,151.4,210.3,197.5z"/>
	<rect x="98" y="150.1" class="st4" width="78.6" height="40.9"/>
	<path class="st2" d="M210.3,197.5c-1.1,4.6-2.1,8.9-3,12.9c-6.5,26.9-10.9,40.4-17.3,57.5c-6.7,18-37.6,22.5-51.4,22.5
		c-13.6,0-45.5-5-52.7-23.6c-6.7-17.2-12-31.2-16.8-56.8l0,0c-0.7-3.9-1.4-8-2.1-12.5c-3-19.3-1.8-37.3,5-51.8
		c2.7-5.8,6.4-11.2,11-15.7c9.7,20.4,29.1,52.9,56.2,59c0,0,38.6-22.8,60.6-53.9c2.5,3.1,4.7,6.5,6.5,10.1
		C213.6,159.9,214.8,178.1,210.3,197.5z"/>
	<path class="st3" d="M85.2,145c0,0,12.9,103,25.1,138.1"/>
	<path class="st3" d="M192.4,145c0,0-12.9,103-25.1,138.1"/>
	<path class="st4" d="M69.2,210c-1.6-3.4-22.7-47.7-18.9-62.6c1.8-7.3,23.1-15.5,29.5-17.4c3.5,2.1-0.1,21.2,2,26.1
		c4.3,9.8,4.6,20.9,1,31C76.2,205.6,69.2,210,69.2,210z"/>
	<path class="st4" d="M207.3,210c1.6-3.4,23.4-47.7,19.6-62.6c-1.8-7.3-22.7-15.5-29.1-17.4c-3.5,2.1,0.1,21.2-1.9,26.1
		c-4.3,9.8-4.7,20.9-1,31C201.3,205.6,207.3,210,207.3,210z"/>
	<path class="st4" d="M192.2,283.2c0,0-10.4,7.2-53.2,7.2c-43,0-53.9-7.2-53.9-7.2v-17.9c0,0,10.4,7.2,53.2,7.2
		c43,0,53.9-7.2,53.9-7.2L192.2,283.2z"/>
</g>
<g id="head">
	<path class="st5" d="M169.4,43.5c0,0-1.6,12.9-1.9,18.3c-0.3,7.1,9.1,60.1,9.1,60.1s-10.7,20.9-37.8,20.9S101,121.9,101,121.9
		s9.4-53.7,9-61c-0.2-5.2-1.9-17.3-1.9-17.3c0-15.2,15.5-30.8,30.6-30.8S169.4,28.3,169.4,43.5z"/>
	<path class="st6" d="M109,68.5l2.9-0.8c1-0.3,2,0.3,2.3,1.2l2.1,7.1c0.3,1-0.3,2-1.2,2.3l-2.9,0.8c-1,0.3-2-0.3-2.3-1.2l-2.1-7.1
		C107.5,69.8,108,68.7,109,68.5z"/>
	<path class="st6" d="M165.5,79.1l-2.9-0.8c-1-0.3-1.5-1.3-1.2-2.3l2.1-7.1c0.3-1,1.3-1.5,2.3-1.2l2.9,0.8c1,0.3,1.5,1.3,1.2,2.3
		l-2.1,7.1C167.4,78.8,166.4,79.4,165.5,79.1z"/>
	<path class="st7" d="M172.9,99.7c-4.3,12.6-19.9,22.2-34.1,22.2s-29.8-9.6-34.1-22.2c-3.3-9.5-1.4-16.8,0-23.2
		c11.6,0,12.6-10.8,34.1-10.6c20.3,0.2,22.6,10.6,34.1,10.6C174.3,83.2,176.1,90.2,172.9,99.7z"/>
	<path class="st7" d="M139.1,58.5c-11.8,0-22.2-17.9-22.2-17.9s13.8-4.3,22.2-4.3s22.2,4.3,22.2,4.3S150.9,58.5,139.1,58.5z"/>
	<path class="st7" d="M195.3,35.8c0,0,3.8,8-2.2,12.6s-13.3,0-13.3,0c-0.2,0.6-0.4,1.2-0.8,1.7c-0.8,1.4-2.3,2.3-3.9,2.3
		c-6.8,0-8-16.6-8-16.6l28.1-15.7C195.3,20.1,199.7,30.5,195.3,35.8z"/>
	<path class="st5" d="M173.2,41.5c2.1,2.5,4.3,4.8,6.6,7l-0.8,1.7c-0.8,1.4-2.3,2.3-3.9,2.3c-6.8,0-8-16.6-8-16.6l28.1-15.7
		C192.4,30.8,169.9,37.5,173.2,41.5z"/>
	<path class="st7" d="M82.2,35.8c0,0-3.8,8,2.2,12.6s13.3,0,13.3,0c0.2,0.6,0.4,1.2,0.8,1.7c0.8,1.4,2.3,2.3,3.9,2.3
		c6.8,0,8-16.6,8-16.6L82.2,20.1C82.2,20.1,77.8,30.5,82.2,35.8z"/>
	<path class="st5" d="M104.4,41.5c-2.1,2.5-4.3,4.8-6.6,7l0.7,1.7c0.8,1.4,2.3,2.3,3.9,2.3c6.8,0,8-16.6,8-16.6L82.2,20.1
		C85.1,30.8,107.7,37.5,104.4,41.5z"/>
	<path class="st7" d="M124.7,30.8c4.5-1.4,9.2-2.2,14-2.3c4.7,0.1,9.4,0.9,13.8,2.3c0,0-8.5-5.5-13.5-5.5
		C133.8,25.3,124.7,30.8,124.7,30.8z"/>
	<path class="st8" d="M104.7,76.4c11.6,0,12.6-10.8,34.1-10.6c20.3,0.2,22.6,10.6,34.1,10.6"/>
	<path class="st9" d="M153.9,48.3c-2.5,6.2-8.5,10.2-15.2,10.2c-8.4,0-14.1-6.4-15.2-10.2c0-6.4,6.8-9.4,15.2-9.4
		S153.9,41.2,153.9,48.3z"/>
	<g>
		<defs>
			<path id="SVGID_1_" d="M153.9,48.3c-2.5,6.2-8.5,10.2-15.2,10.2c-8.4,0-14.1-6.4-15.2-10.2c0-6.4,6.8-9.4,15.2-9.4
				S153.9,41.2,153.9,48.3z"/>
		</defs>
		<clipPath id="SVGID_2_">
			<use xlink:href="#SVGID_1_"  style="overflow:visible;"/>
		</clipPath>
		<g class="st10">
			<circle class="st11" cx="138.7" cy="45.4" r="10.3"/>
			<ellipse class="st12" cx="138.7" cy="45.4" rx="6.1" ry="3.2"/>
		</g>
	</g>
</g>
<g id="l-hand">
	<path class="st5" d="M96.2,290c-4,2.1-13.2-10.9-13.2-10.9l-2.1,10.3c0,0,18.1,17.8,2.8,17.6c-0.6,0.4-1.3,0.7-2.1,0.8
		c-3,0.6-6.6-0.8-9.3-2.9c-1.3-0.5-2.6-1-3.8-1.7c-5.8-3.3-8.5-8.4-10.3-13.7c-2.2-6.3,0.9-17.7,2.6-23c0.1-0.3,0.2-0.6,0.3-0.9
		c0.4-1.2,0.7-1.9,0.7-1.9l12-7.6c2.6-1.6,6-0.9,7.7,1.7c0.1,0.2,0.2,0.3,0.3,0.5v0.1c0.3,0.5,0.5,1,0.8,1.6c3,6,7.3,13.9,9.9,17.3
		C96.9,282.9,100.2,287.9,96.2,290z"/>
	<path class="st7" d="M83.7,307c-0.6,0.4-1.3,0.7-2.1,0.8c-4.4-3.5-7.5-8.3-8.7-13.8C72.9,294,78.1,303.8,83.7,307z"/>
	<path class="st7" d="M72.3,304.9c-1.3-0.5-2.6-1-3.8-1.7c-2.1-3.2-4.4-7.7-3.7-10.9C66.5,296.9,69.1,301.2,72.3,304.9z"/>
</g>
<path id="l-arm" class="st4" d="M5.5,200.9c0,0-3.7,10.5,5,17.6s18.3,1.6,18.3,1.6s22.3-17.4,30.5-27.3s14.8-18.5,18-25.6
	c2.2-5,5.1-13.4-5.8-22.4s-18.6-4.6-23.1-1.4c-6.4,4.5-13.6,12.6-21.8,22.5S5.5,200.9,5.5,200.9z"/>
<g id="l-forearm">
	<path class="st4" d="M57.8,268c0,0,6,2.4,12-2.8c7.5-6.5,7.2-12.6,7.2-12.6s-9.6-15.4-17.3-26.2s-20.2-21.5-20.2-21.5
		c-5.6-3.6-12.4-4.8-18.9-3.2c-12.7,3.1-14.5,10.4-14.5,10.4s3.9,11.5,15.3,25.2S57.8,268,57.8,268z"/>
	<path class="st13" d="M58.4,270c0,0,12.2,0,20.5-16.5"/>
</g>
<g id="r-hand">
	<path class="st5" d="M290.8,6.8c1-1.6,2.8-2.3,4.6-1.9c0.8,0.2,1.5,0.5,2.2,0.9c0.3-0.3,0.7-0.6,1.2-0.7c0.7-0.3,1.5-0.4,2.3-0.2
		c1.6,0.6,3.1,1.5,4.2,2.8c0.6,0.7,1.1,1.4,1.5,2.2c1.1,0.6,2.1,1.4,2.9,2.3c4.3,4.8,4.1,13,2.3,19.1c-2.5,8.5-16.3,22.7-16.3,22.7
		s-20.1,0.3-18.1-12.2c0.8-5.7,3.8-10.8,8.4-14.2c2.2-2.7,4-5.7,5.4-8.9C292.4,16,288.9,9.6,290.8,6.8z"/>
	<path class="st5" d="M277.5,41.5c0,0-2-8.2-2.1-12.4s-2.5-16,2.1-16.2s7,2.8,7.6,7.1s7.9,6.4,8,8.6S292.9,49.6,277.5,41.5z"/>
	<path class="st7" d="M302.2,10.2c0.9-0.9,2.1-1.8,3.1-2.6c0.6,0.7,1.1,1.4,1.5,2.2c-1.7,0.7-4.5,1.8-3.7,5.1
		c0.6,2.5,0.9,5.1,1.1,7.8c0,0.2-2.7,5.7-2.7,5.7s1.6-6.1,1.4-8.1C302.2,14,300.8,11.6,302.2,10.2z"/>
	<path class="st7" d="M297.6,5.7c-0.8,0.6-1.5,1.3-1.9,2.3c-0.6,1.5,0.6,4.8,1,7c0.3,1.7,1.1,3.4,0.4,5.5s-1.7,4.2-1.8,4.4
		c0.4-2.2,0.5-4.5,0.4-6.7c-0.3-3.2-2.2-9.5-1.3-11.4c0.3-0.7,0.7-1.3,1.1-1.9C296.2,5.1,296.9,5.3,297.6,5.7z"/>
</g>
<path id="r-arm" class="st4" d="M277,128.3c0,0,6-9.4-0.9-18.3s-17.5-5.6-17.5-5.6s-25.6,12-35.8,19.8s-18.6,14.7-23.2,20.9
	c-3.3,4.4-8,12,0.6,23.2s17.1,8.6,22.2,6.6c7.2-2.9,16-9.2,26.2-17S277,128.3,277,128.3z"/>
<g id="r-forearm">
	<path class="st4" d="M299,53.7c0,0-1.1-6.4-8.6-8.8c-9.4-3-14.5,0.4-14.5,0.4s-8.2,16.1-13.5,28.4s-10.5,37.7-10.5,37.7
		s1.6,0.7,9.5,8.6c9.2,9.3,14.5,9.5,14.5,9.5c6.7-8.7,11.9-18.3,15.5-28.6C297.1,84,299,53.7,299,53.7z"/>
	<path class="st13" d="M300.4,52.1c0,0-6.3-10.4-24.7-8.9"/>
</g>
<g id="collar">
	<path class="st0" d="M96.3,117.6l-45.8,15c0,0,31,56.1,88.3,71.6v-25.5C138.8,178.6,105.9,166.2,96.3,117.6z"/>
	<path class="st0" d="M181.3,117.6l43.2,5.6c0,0-28.3,65.6-85.7,81v-25.5C138.8,178.6,171.7,166.2,181.3,117.6z"/>
</g>
</svg>
