<?xml version="1.0" encoding="utf-8"?>
<!-- Generator: Adobe Illustrator 25.2.0, SVG Export Plug-In . SVG Version: 6.00 Build 0)  -->
<svg version="1.1" id="Layer_1" xmlns="http://www.w3.org/2000/svg" xmlns:xlink="http://www.w3.org/1999/xlink" x="0px" y="0px"
	 viewBox="0 0 191 519.2" style="enable-background:new 0 0 191 519.2;" xml:space="preserve">
<style type="text/css">
	.st0{fill:#BCFC30;}
	.st1{fill:#E1FF8F;}
	.st2{fill:#060B47;}
	.st3{fill:#0292AA;}
	.st4{fill:#2DB6E0;}
	.st5{fill:#FF4280;}
	.st6{fill:#E82169;}
	.st7{fill:#43DCFF;}
	.st8{fill:none;stroke:#060B47;stroke-width:4.13;stroke-linecap:round;stroke-miterlimit:10;}
	.st9{fill:#841263;}
	.st10{fill:none;stroke:#60024E;stroke-width:3;stroke-linecap:round;stroke-miterlimit:10;}
	.st11{fill:#F2D3DF;}
	.st12{fill:#FDFFFD;}
	.st13{clip-path:url(#SVGID_2_);}
	.st14{fill:#94B700;}
	.st15{fill:#140B2D;}
	.st16{fill:none;stroke:#FF4DA2;stroke-width:3;stroke-linecap:round;stroke-miterlimit:10;}
	.st17{fill:none;stroke:#060B47;stroke-width:4.14;stroke-linecap:round;stroke-miterlimit:10;}
</style>
<g id="rockets">
	<path class="st0" d="M139.8,236.8c-9.8,6.5-16.1,16.9-17.4,28.6c-1.9,17.4,2.2,27.7,2.2,27.7l8.8-15c0,0,3,26.3,8.9,43.4l12.2-28.5
		l5.2,13.8c0,0,7.5-15.3,7.5-38.4C167.3,248.9,158.9,232,139.8,236.8z"/>
	<path class="st1" d="M143.9,299.7c-2.4-11.8-3.6-22.3-3.6-22.5l-2.4-21l-9.1,15.5c0.1-1.8,0.2-3.6,0.4-5.6
		c1-9.1,5.8-17.4,13.2-22.8c1.1-0.2,2.3-0.4,3.5-0.4c2.8,0,6.8,0.6,10.1,6.3c2.7,4.6,4.1,11.4,4.1,19.1c0,5.5-0.5,10.9-1.4,16.3
		l-4-10.5L143.9,299.7z"/>
	<path class="st2" d="M144.6,248.2c0,0-4.7,5.8-19.4,5.8s-19.4-5.8-19.4-5.8l5.9-18.1h27L144.6,248.2z"/>
	<path class="st3" d="M144.9,236.3c0,0-8.7,6.8-19.7,6.8s-19.8-6.8-19.8-6.8S91.7,149,96.8,120.4c2.4-13,18.6-38.6,28.4-38.6
		s26,25.6,28.3,38.6C158.7,149,144.9,236.3,144.9,236.3z"/>
	<path class="st2" d="M167,249.6c0,0-4.7,5.8-19.4,5.8s-19.5-5.8-19.5-5.8l5.9-18.1h27L167,249.6z"/>
	<path class="st4" d="M167.3,237.6c0,0-8.7,6.8-19.7,6.8s-19.8-6.8-19.8-6.8s-13.7-87.3-8.6-115.8c2.4-13,18.6-38.6,28.4-38.6
		s26,25.6,28.3,38.6C181,150.3,167.3,237.6,167.3,237.6z"/>
</g>
<g id="b-hand">
	<path class="st5" d="M62.6,302L62.6,302c-2.2,1.4-6.3,1.8-9.6-2c-3.6-4-6.1-10-7.4-13.2c-0.6-1.5-0.8-2.4-0.8-2.4
		c-0.8-10.1,8.6-7.3,8.6-7.3s2.9,11.2,3.9,14.3c1,3,6.4,5.2,6.9,7.9C64.5,300.2,63.8,301.3,62.6,302z"/>
	<path class="st6" d="M62.6,302L62.6,302c-2.2,1.4-6.3,1.8-9.6-2c-3.6-4-6.1-10-7.4-13.2c0.2-0.6,0.5-1.1,1-1.5
		c0,0,3.7,10.2,8.5,12.1C57.9,298.4,60.4,300,62.6,302z"/>
	<path class="st5" d="M33.3,256.5L28,280.7c0,0,8.8,9.4,27.8,6c-2.4-10.5,1-18.9-2.4-26.5C51.2,255.4,38.8,241,33.3,256.5z"/>
	<path class="st5" d="M54,303.6c-0.1,1.3-1.7,2.5-3.8,2.6c-2.4,0.2-5.4-0.8-7.3-4.4c-2.4-4.5-3.6-10.5-4.2-14c-0.3-1.8-0.4-3-0.4-3
		c1.5-10.1,11.5-6,11.5-6s-0.4,10.2,0,13.3C50.2,295.3,54.1,300.8,54,303.6z"/>
	<path class="st6" d="M50.6,305.8l-0.5,0.4c-2.4,0.2-5.4-0.9-7.3-4.4c-2.4-4.5-3.6-10.5-4.2-14l2.1-2.1c0,0,3.1,10.9,5.1,13.8
		C47.8,302.3,50.6,305.8,50.6,305.8z"/>
	<path class="st5" d="M29.7,282.3c0,0-0.5,10.4,2.3,17.5s10.4,5.9,10.9,3.2c0.5-2.7-2.8-8.7-2.7-11.9s1.7-13.2,1.7-13.2
		S32.4,272.5,29.7,282.3z"/>
	<polygon class="st6" points="29.8,288.4 42.4,275.6 28.4,274.7 	"/>
	<path class="st5" d="M34.3,259c0,0-6.5,3.9-11.3,15.3s-6.4,14.7-3.1,17s7.7-1.5,10.7-6.7c2.9-5.3,11-2.5,14.9-11.9
		C49.3,263.3,40.6,253.8,34.3,259z"/>
</g>
<g id="b-arm">
	<path id="b-arm-2" class="st7" d="M33.2,190.4c0,0,0.6,11.1,11.4,14.4s17.5-5.6,17.5-5.6s13.9-24.6,17.6-36.9s6.5-22.8,6.7-30.5
		c0.1-5.4-0.5-14.4-14-18.4s-19,2.9-21.9,7.6c-4.2,6.6-7.7,16.8-11.4,29.1S33.2,190.4,33.2,190.4z"/>
	<g id="b-forearm">
		<path class="st7" d="M31,257.1c0,0,2.6,5.9,10.6,6.4c9.9,0.6,13.9-4,13.9-4s3.9-17.6,6-30.8s0.6-29.5,0.6-29.5
			c-1.4-6.5-5.5-12.1-11.2-15.5c-11.2-6.7-16.4-5.6-16.4-5.6c-4.3,10-6.9,20.7-7.8,31.5C25.3,227.4,31,257.1,31,257.1z"/>
		<path class="st8" d="M30.1,258.9c0,0,8.7,8.5,26.2,2.5"/>
	</g>
</g>
<path id="hips" class="st9" d="M129.5,295c-5.3,24-26.1,20.3-42.2,20.3s-32.7-1.7-38.8-12.8c-4.8-8.9-9.8-40.4-9.8-40.4l88.9,3.6
	C127.6,265.7,132.4,281.8,129.5,295z"/>
<g id="b-thigh">
	<path class="st9" d="M82.2,383.5c0,0-3.8,10.4-17.9,10.4s-17.9-10.4-17.9-10.4s-16-65.6-3.2-118.8c2.5-10.2,13.7-15.8,26.8-12.1
		c16.1,4.6,31.9,45.3,31.9,45.3L82.2,383.5z"/>
	<path class="st10" d="M46,260.4c-7.1,31.8-4.2,84.4,4.1,124.2"/>
</g>
<g id="b-calf">
	<path class="st2" d="M90,479.5c4.2,6.2,4.3,23.2,4.1,30.8c-0.1,2.1-1.8,3.8-3.9,3.9c-5,0.1-15,0.4-30.8,0.9
		c-39,1.3-50.4-2.8-50.4-2.8c-0.5-3.4-0.4-6.9,0.3-10.3c1.2-5.6,19.7-4,29.7-8s19.2-7.6,19.2-7.6C62.6,466.4,81.4,466.9,90,479.5z"
		/>
	<path class="st7" d="M94.1,511.8c0,1.3-1.1,2.3-2.4,2.4c-4.3,0.1-14.7,0.3-32.2,0.9c-39,1.2-50.4-2.9-50.4-2.9
		c-0.4-2.4-0.4-4.9-0.1-7.3c-0.2,3.3,0.9,3.4,0.9,3.4s10.8,3.6,49.8,2.3c23.9-0.8,33.8-1.2,33.8-1.2s0.8-0.1,0.8-0.8
		C94.2,509.9,94.1,510.9,94.1,511.8z"/>
	<path class="st9" d="M93.6,483.1l-37.5-5.7L46,381.3c0,0,32.9-7.5,35.4,1C95.9,429.6,93.6,483.1,93.6,483.1z"/>
	<path class="st10" d="M51.5,386.2c0,0,5.2,67.9,8.5,96.2"/>
	<path class="st7" d="M55.3,383.2c0.8,4.8,0.9,14.4-3.9,18.2c-6.5,0.8-11.9-6.1-13-15.4c-1.1-9.3,2.6-17.4,9-18.2
		C52.9,371.8,54.5,378.4,55.3,383.2z"/>
	<path class="st7" d="M95.7,482.7c0,1.3-0.9,2.5-2.2,2.9c-12.5,4-26,3.6-38.3-1.1c-1.2-0.5-2-1.7-2-3.1l0.2-6.6c0-1.1,0.9-1.9,2-1.9
		c0.2,0,0.4,0.1,0.7,0.1c12,4.4,25.1,4.8,37.3,1.1c1-0.3,2.1,0.2,2.4,1.2c0.1,0.2,0.1,0.4,0.1,0.6L95.7,482.7z"/>
</g>
<g id="f-thigh">
	<path class="st9" d="M105.6,387.6c0,0-3.8,10.4-17.9,10.4s-17.9-10.4-17.9-10.4s-15.9-65.6-3.2-118.8c2.5-10.2,13.7-15.8,26.8-12.1
		c16.1,4.6,31.9,45.3,31.9,45.3L105.6,387.6z"/>
	<path class="st10" d="M69.4,264.5c-7,31.8-4.2,84.4,4.1,124.2"/>
</g>
<g id="f-calf">
	<path class="st2" d="M113.4,483.6c4.2,6.2,4.3,23.2,4.1,30.8c-0.1,2.1-1.8,3.8-3.9,3.9c-5,0.1-15,0.4-30.8,0.9
		c-39,1.3-50.4-2.8-50.4-2.8c-0.5-3.4-0.4-6.9,0.3-10.3c1.2-5.6,19.7-4,29.7-8s19.2-7.5,19.2-7.5C85.9,470.5,104.8,471,113.4,483.6z
		"/>
	<path class="st7" d="M117.4,515.9c0,1.3-1.1,2.3-2.4,2.4c-4.3,0.1-14.7,0.3-32.2,0.9c-39,1.2-50.4-2.9-50.4-2.9
		c-0.4-2.4-0.4-4.9-0.1-7.3c-0.2,3.3,0.9,3.4,0.9,3.4s10.8,3.6,49.8,2.3c23.9-0.8,33.8-1.2,33.8-1.2s0.8-0.1,0.9-0.8
		C117.5,514,117.5,515.1,117.4,515.9z"/>
	<path class="st9" d="M117,487.2l-37.5-5.6l-10.1-96.1c0,0,32.8-7.5,35.4,1C119.3,433.7,117,487.2,117,487.2z"/>
	<path class="st10" d="M74.9,390.3c0,0,5.2,67.9,8.5,96.2"/>
	<path class="st7" d="M78.6,387.3c0.9,4.8,0.9,14.4-3.9,18.2c-6.5,0.8-11.9-6.1-13-15.4c-1.1-9.3,2.6-17.4,9-18.2
		C76.3,376,77.8,382.6,78.6,387.3z"/>
	<path class="st7" d="M119,486.8c0,1.3-0.9,2.5-2.2,2.9c-12.5,4-26,3.6-38.3-1.1c-1.2-0.5-2-1.7-2-3.1l0.2-6.6c0-1.1,0.9-1.9,2-1.9
		c0.2,0,0.4,0.1,0.7,0.1c12,4.4,25.1,4.8,37.3,1.1c1-0.3,2.1,0.2,2.4,1.2c0.1,0.2,0.1,0.4,0.1,0.6L119,486.8z"/>
</g>
<g id="torso">
	<path class="st5" d="M67.8,100c0,0-18,3.6-24.2,16.9s-15.4,26.4-8.6,56.5c0,0,68.3-59,81.1-63.1s10.1-0.5,3.9-10.3
		S67.8,100,67.8,100z"/>
	<path class="st2" d="M36.2,119.9c0,0,7.7-16.7,28.6-26.1s45.8-5.9,58.5,6.2s18.4,18.4,18.4,18.4s-6.4-9.4-20.6-5.9
		S106.4,91.9,86,95.6c-30.4,5.7-38.3,17.9-42.5,28.4L36.2,119.9z"/>
	<path class="st9" d="M143.4,179.7c-0.9,4.6-11.5,52.5-16.7,69.1c-5.5,17.6-31.3,19-42.2,19.2c-11.2,0.2-39.2,0.3-45-18.7
		C34,231.6,28.3,183.6,28.3,179c-0.1-16,6.7-39.2,6.7-39.2s-1.7,22.9,0,25.2c0,0,17.9-29.2,85-65c4.7,2.3,20.3,14.7,21.8,18.4
		C147.8,133.6,147,160.7,143.4,179.7z"/>
	<path class="st10" d="M98.4,115c-52,58.4-35.6,109.8-31.8,153.8"/>
	<path class="st7" d="M39,121.4c0,0-0.7,14.3,6.3,16.4s17.3,1.3,17.3,1.3L35,173.4C35,173.4,30,156.1,39,121.4z"/>
	<path class="st7" d="M143.1,151c0,14.9-12.1,27-27,27s-27-12.1-27-27c0-14.9,8.4-31.1,27-31.1S143.1,136.1,143.1,151z"/>
	<path class="st2" d="M35,161c0,0-2.2-12.9,8.5-37l-7.3-4.1c0,0-15,33.1-3.9,66.2L35,161z"/>
	<path class="st7" d="M127.6,265.7c0,0-8.6,11.3-44.3,11.3s-44.9-11.3-44.9-11.3v-17.9c0,0,8.7,11.3,44.3,11.3
		c35.8,0,44.9-11.3,44.9-11.3L127.6,265.7z"/>
</g>
<g id="head">
	<path class="st5" d="M120,100c0,0-17.1,25.2-44.2,25.2s-30.2-20.9-30.2-20.9C43.8,93.8,21,77,39.6,52.9c1-1.3,5.1-5.6,5.6-7.2
		c2.3-7.8-0.6-18.6-1.6-21.8c-0.2-0.6-7.8-12.5,12.1-14.4c1.8-0.9,3.8-1.7,5.9-2.5C72,2.9,84.7,0,92.1,0c15.2,0,25.2,17.7,20.1,33.3
		c-1.5,4.6-10.3,10.7-10.6,16.2C100.3,73.3,120,100,120,100z"/>
	<path class="st6" d="M67.8,33.6c0,0-13.4,16.6-22.2,10.3c2.3-7.8-1-16.8-2-20.1c2.4-0.5,8.5-1.6,12.5-0.5
		C61.2,24.7,67.8,33.6,67.8,33.6z"/>
	<path class="st6" d="M114.1,19.5c0,0,3.8,8-2.2,12.6s-13.3,0-13.3,0c-0.2,0.6-0.4,1.2-0.8,1.7c-0.8,1.4-2.3,2.3-3.9,2.3
		c-6.8,0-8-16.6-8-16.6l28.1-15.7C114.1,3.8,118.6,14.2,114.1,19.5z"/>
	<path class="st5" d="M92,25.1c2.1,2.5,4.3,4.8,6.6,7l-0.8,1.7c-0.8,1.4-2.3,2.2-3.9,2.3c-6.8,0-8-16.6-8-16.6l28.1-15.7
		C111.2,14.5,88.7,21.1,92,25.1z"/>
	<path class="st11" d="M58.1,69.8l-2.8-1.1c-0.9-0.4-1.4-1.4-1-2.4l2.7-6.9c0.4-0.9,1.4-1.4,2.4-1l2.8,1.1c0.9,0.4,1.4,1.4,1,2.4
		l-2.7,6.9C60.1,69.7,59.1,70.2,58.1,69.8z"/>
	<path class="st6" d="M74.6,81.7c-4.2,13.1-16.1,23.9-25,22.6C36.4,102.3,22.8,92.5,19,85.6c-2.7-5-6.8-12.9-5-25.4
		c1.6-10.6,9.4-11.4,22.2-6.6c14.3,5.3,22.5,20.9,40.7,6.6C78.3,66.9,77.5,72.9,74.6,81.7z"/>
	<path class="st12" d="M62.1,35.6c0,0-1.3-9.4-14-9.5c-7.4,0-4.7,17.9-0.2,18.6C55.7,45.9,62.1,35.6,62.1,35.6z"/>
	<g>
		<defs>
			<path id="SVGID_1_" d="M62.1,35.6c0,0-1.3-9.4-14-9.5c-7.4,0-4.7,17.9-0.2,18.6C55.7,45.9,62.1,35.6,62.1,35.6z"/>
		</defs>
		<clipPath id="SVGID_2_">
			<use xlink:href="#SVGID_1_"  style="overflow:visible;"/>
		</clipPath>
		<g class="st13">
			<ellipse class="st14" cx="48.8" cy="33.2" rx="4" ry="10.3"/>
			<ellipse class="st15" cx="48.8" cy="33.2" rx="2.4" ry="3.2"/>
		</g>
	</g>
	<path class="st6" d="M67.8,14.6c-3.1-4.7-12.1-5.1-12.1-5.1c1.8-0.9,3.8-1.7,5.9-2.5C65.1,7.7,67.7,10.9,67.8,14.6z"/>
	<path class="st16" d="M17,53.2c3.6-3.6,10.2-3,19.2,0.3c14.3,5.3,22.5,20.9,40.7,6.6"/>
</g>
<g id="f-hand">
	<path class="st5" d="M116,305c4.4,0.9,9.7-14.2,9.7-14.2l4.9,9.3c0,0-12.4,22.1,2.2,17.7c0.7,0.2,1.5,0.3,2.2,0.2
		c3.1-0.2,6.1-2.6,8.1-5.4c1.1-0.8,2.2-1.7,3.2-2.7c4.7-4.8,5.8-10.4,6-16c0.3-6.7-5.8-16.7-8.9-21.3l-0.6-0.8
		c-0.7-1-1.1-1.6-1.1-1.6l-19.5-5.7c0,0-0.4,2.5-1.1,6.1c-0.1,0.6-0.2,1.1-0.3,1.8c-1.3,6.6-3.1,15.4-4.7,19.4
		C113.4,298.4,111.6,304.1,116,305z"/>
	<path class="st6" d="M132.8,317.8c0.7,0.2,1.5,0.3,2.2,0.2c3.3-4.5,4.9-10.1,4.5-15.7C139.5,302.4,137.2,313.2,132.8,317.8z"/>
	<path class="st6" d="M143,312.6c1.1-0.8,2.2-1.7,3.2-2.7c1.1-3.6,2.1-8.6,0.5-11.5C146.4,303.4,145.1,308.2,143,312.6z"/>
</g>
<path id="f-arm" class="st7" d="M145.6,202.3c0,0-1.3,11-12.3,13.6s-17.1-6.6-17.1-6.6s-12.4-25.5-15.3-38s-5.1-23.1-4.8-30.9
	c0.2-5.4,1.4-14.3,15.1-17.6s18.8,4.1,21.4,8.9c3.8,6.8,6.6,17.3,9.6,29.8S145.6,202.3,145.6,202.3z"/>
<g id="f-forearm">
	<path class="st7" d="M143.7,269.1c0,0-3,5.7-10.9,5.7c-9.9,0-13.7-4.8-13.7-4.8s-2.8-17.9-4.1-31.2s1.2-29.5,1.2-29.5
		c1.8-6.4,6.2-11.7,12.1-14.8c11.6-6,16.7-4.6,16.7-4.6c3.7,10.3,5.7,21.1,5.9,32C151.2,239.7,143.7,269.1,143.7,269.1z"/>
	<path class="st17" d="M144.6,271c0,0-9.2,8-26.3,0.9"/>
</g>
<g id="collar">
	<path class="st2" d="M110.6,100l12.8,15c0,0-58.3,18.3-91.1,71c-0.1-15.1,2.7-25,2.7-25S67.7,112.6,110.6,100z"/>
	<path class="st2" d="M110.6,100c0,0,11.9-5.5,18.6,0c6.6,5.5,24.2,20.6,23.6,29.2s-6.8,27.9-6.8,27.9s0.5-31.1-4.2-35
		s-10.2-10.1-18.4-7L110.6,100z"/>
</g>
</svg>
