<?xml version="1.0" encoding="utf-8"?>
<!-- Generator: Adobe Illustrator 26.0.0, SVG Export Plug-In . SVG Version: 6.00 Build 0)  -->
<svg version="1.1" id="Layer_1" xmlns="http://www.w3.org/2000/svg" xmlns:xlink="http://www.w3.org/1999/xlink" x="0px" y="0px"
	 viewBox="0 0 698.5 1665.2" style="enable-background:new 0 0 698.5 1665.2;" xml:space="preserve">
<style type="text/css">
	.st0{fill:#FFA400;}
	.st1{fill:#A1B200;}
	.st2{fill:#953DBA;}
	.st3{fill:#DAE78D;}
	.st4{fill:#FBFF43;}
	.st5{fill:#430B60;}
	.st6{fill:none;stroke:#A1B200;stroke-width:0.3583;stroke-linecap:round;stroke-miterlimit:10;}
	.st7{fill:none;stroke:#953DBA;stroke-width:0.3583;stroke-miterlimit:10;}
	.st8{fill:#ED6100;}
	.st9{clip-path:url(#SVGID_00000165951992334202225890000017101146790853222530_);}
	.st10{fill:#FFFFFF;}
	.st11{fill:#77185E;}
	.st12{fill:#130E19;}
	.st13{fill:#933B00;}
	.st14{clip-path:url(#SVGID_00000116950419558497548810000005252382870103017884_);}
	.st15{fill:#AF4700;}
</style>
<g>
	<g transform="translate(-17 -790)">
		<g>
			<g>
				<g>
					<g>
						<g>
							<g>
								<path class="st0" d="M167.1,1539.9c0,0-11.7,32.1-34.7,26.4c-23-5.7-19.1-39.5-19.1-39.5s25.5-209.5,56.6-262.9
									c15.9-27.1,62.3-19.9,65.1,15.7C241.1,1356.8,167.1,1539.9,167.1,1539.9z"/>
								<path class="st0" d="M105.5,1758.6l-33.3-7.8c0,0,6-151.4,41.1-224.1c6-12.5,52.7-2.1,54.5,12.1
									C174.2,1599.3,105.5,1758.6,105.5,1758.6z"/>
								<path class="st0" d="M39,1779.9c0,0-27.6,36.7-21.9,57.4c4.2,15.7,20.5-3.2,25.8-21c4.2-13.9,24.8-28.9,24.8-28.9L39,1779.9
									z"/>
								<path class="st0" d="M83.2,1732.9c0,0-40.7,34.6-48.9,54.9c-8.1,20.3,34.7,30.3,55.6,24.6c8.5-2.5,20.5-13.5,25.1-27.1
									C121.5,1765.7,115.1,1741.1,83.2,1732.9z"/>
								<path class="st0" d="M150.1,1785.6c0,0-18.8-25.6-39.3-39.2c-20.5-13.5-20.5,29.2-20.5,29.2s41.8,37,54.2,32.4
									C156.9,1803.1,163.9,1802.4,150.1,1785.6z"/>
								<path class="st0" d="M72.2,1798.5c0,0-19.1,47-7.1,67.3c9.2,15.3,21.2-9.3,21.6-29.6c0.4-16,18.4-37.8,18.4-37.8H72.2z"/>
								<path class="st0" d="M44.3,1798.5c0,0-19.1,47-7.1,67.3c9.2,15.3,21.2-9.3,21.6-29.6c0.4-16,18.4-37.8,18.4-37.8H44.3z"/>
								<path class="st0" d="M565.4,1539.9c0,0,11.7,32.1,35,26.4c23.4-5.7,19.1-39.5,19.1-39.5s-25.5-209.5-56.6-262.9
									c-15.9-27.1-62.3-19.9-65.1,15.7C491.4,1356.8,565.4,1539.9,565.4,1539.9z"/>
								<path class="st0" d="M627,1758.6l33.3-7.8c0,0-6-151.4-41.1-224.1c-6-12.5-52.7-2.1-54.5,12.1
									C558.3,1599.3,627,1758.6,627,1758.6z"/>
								<path class="st0" d="M693.5,1779.9c0,0,27.6,36.7,21.9,57.4c-4.2,15.7-20.5-3.2-25.8-21c-4.2-13.9-24.8-28.9-24.8-28.9
									L693.5,1779.9z"/>
								<path class="st0" d="M649.6,1732.9c0,0,40.7,34.6,48.9,54.9c8.1,20.3-34.3,30.3-55.6,24.6c-8.5-2.5-20.5-13.5-25.1-27.1
									C611.1,1765.7,617.4,1741.1,649.6,1732.9z"/>
								<path class="st0" d="M582.7,1785.6c0,0,18.8-25.6,39.3-39.2c20.5-13.5,20.5,29.2,20.5,29.2s-41.8,37-54.5,32.4
									C575.3,1803.5,568.6,1802.4,582.7,1785.6z"/>
								<path class="st0" d="M660.3,1798.5c0,0,19.1,47,7.1,67.3c-9.2,15.3-21.2-9.3-21.6-29.6c-0.4-16-18.1-37.8-18.1-37.8H660.3z"
									/>
								<path class="st0" d="M688.2,1798.5c0,0,19.1,47,7.1,67.3c-9.2,15.3-21.2-9.3-21.6-29.6c-0.4-16-18.1-37.8-18.1-37.8H688.2z"
									/>
								<path class="st1" d="M541.3,2097.3c0,0-11.7-25.3-91.3-28.5c-61.6-2.5-66.6,10.3-66.6,10.3s38.6,110.1,71.5,111.9
									C513,2194.2,541.3,2097.3,541.3,2097.3z"/>
								<path class="st2" d="M426.6,2323.5l28.3,1.1l45.3-270c0,0-61.2-49.2-74-36.7C372.8,2072.1,426.6,2323.5,426.6,2323.5z"/>
								<path class="st3" d="M383.4,2079.5l1.4,69.8l4.2,198.1c0,0,70.8,46.3,108-22.5l31.9-164.6l12-62.7
									c-6.7,23.2-54.5,27.8-103,18.2C392.6,2106.6,383.4,2079.5,383.4,2079.5z"/>
								<path class="st3" d="M497.4,2324.6c0,0,10.3,19.9,37.2,43.8c26.9,23.9,65.8,17.8,65.8,39.2c0,21.4,1.8,29.6-13.8,36.7
									c-15.6,7.1-88.5,15.3-115.4,8.2c-26.9-7.1-18.8-21.4-52.7-20c-34,1.4-34.7-16.4-34.7-16.4c-1.8-31,2.5-61.6,12.4-90.8
									C412.8,2277.2,497.4,2324.6,497.4,2324.6z"/>
								<path class="st4" d="M383.4,2079.5l1.4,69.8c11.7,10.7,31.9,22.8,65.1,27.1c42.5,5.3,67.3-7.1,78.9-16l12-62.7
									c-6.7,23.2-54.5,27.8-103,18.2C392.6,2106.6,383.4,2079.5,383.4,2079.5z"/>
								<path class="st5" d="M383.8,2390.2c0,0,0.7,17.8,34.7,16.4c34-1.4,25.8,12.8,52.7,19.9c26.9,7.1,99.8-1.1,115.4-8.2
									c8.9-3.9,12-8.2,13.1-15c0.4,1.4,0.7,2.5,0.7,3.9c0,21.4,1.8,29.6-13.8,36.7c-15.6,7.1-88.5,15.3-115.4,8.2
									c-26.9-7.1-18.8-21.4-52.7-19.9c-34,1.4-34.7-16.4-34.7-16.4c-0.7-8.9-0.7-17.8,0-27.1
									C383.4,2389.4,383.8,2390.2,383.8,2390.2z"/>
								<path class="st6" d="M417.1,2168.2l-9.9,165.6"/>
								<path class="st6" d="M497.4,2324.6c0,0-58.8,32.8-108.7,0"/>
								<path class="st2" d="M426.6,2021.1c0,0,29,43.1,46.7,47.7c29.7,7.5,39.3-47.7,39.3-47.7s25.1-198.8,3.5-334.1
									c-5.7-33.8-33.3-78.4-70.4-76.6c-33.6,1.4-59.8,29.9-58.4,63.4c0,0.4,0,1.1,0,1.4C393,1761.8,426.6,2021.1,426.6,2021.1z"/>
								<path class="st5" d="M463.4,2031.8c2.1,5.3,3.9,10.3,6,15.3c0.7,2.1,2.1,3.9,3.5,5.7c1.4,1.1,3.2,1.8,5,1.8
									c2.1,0,4.6-0.4,6.7-0.7c2.5-0.7,4.6-1.4,6.7-2.5c4.6-2.5,9.2-5.7,13.1-9.3c-1.8,5.7-5.3,10.7-9.9,14.2
									c-2.5,2.1-5,3.6-7.8,4.6c-2.8,1.1-6.4,1.8-9.6,1.8c-1.8,0-3.5-0.4-5.3-1.1c-1.8-0.7-3.2-2.1-4.6-3.6
									c-2.1-2.5-3.2-5.7-3.9-8.9C462.7,2043.2,462.7,2037.5,463.4,2031.8z"/>
								<path class="st1" d="M191.2,2097.3c0,0,11.7-25.3,91.3-28.5c61.6-2.5,66.6,10.3,66.6,10.3s-38.6,110.1-71.5,111.9
									C219.5,2194.2,191.2,2097.3,191.2,2097.3z"/>
								<path class="st2" d="M305.9,2323.5l-28.7,1.1l-45-270c0,0,61.2-49.2,74-36.7C359.7,2072.1,305.9,2323.5,305.9,2323.5z"/>
								<path class="st3" d="M349.1,2079.5l-1.4,69.8l-4.2,198.1c0,0-70.8,46.3-108-22.5l-31.9-164.6l-12.4-63.1
									c6.7,23.2,54.5,27.8,103,18.2C339.9,2106.6,349.1,2079.5,349.1,2079.5z"/>
								<path class="st3" d="M235.1,2324.6c0,0-10.3,19.9-37.2,43.8c-26.9,23.9-65.8,17.8-65.8,39.2c0,21.4-1.8,29.6,13.8,36.7
									c15.6,7.1,88.5,15.3,115.4,8.2c26.9-7.1,18.8-21.4,52.7-20c34,1.4,34.7-16.4,34.7-16.4c1.8-31-2.5-61.6-12.4-90.8
									C319.7,2277.2,235.1,2324.6,235.1,2324.6z"/>
								<path class="st4" d="M349.1,2079.5l-1.4,69.8c-11.7,10.7-31.9,22.8-65.1,27.1c-42.5,5.3-67.3-7.1-78.9-16l-12.4-63.1
									c6.7,23.2,54.5,27.8,103,18.2C339.9,2106.6,349.1,2079.5,349.1,2079.5z"/>
								<path class="st5" d="M349.1,2390.2c0,0-0.7,17.8-34.7,16.4c-34-1.4-25.8,12.8-52.7,19.9c-26.9,7.1-99.8-1.1-115.4-8.2
									c-8.9-3.9-12-8.2-13.1-15c-0.4,1.4-0.7,2.5-0.7,3.9c0,21.4-1.8,29.6,13.8,36.7c15.6,7.1,88.5,15.3,115.4,8.2
									c26.9-7.1,18.8-21.4,52.7-19.9c34,1.4,34.7-16.4,34.7-16.4c0.7-8.9,0.7-17.8,0-27.1V2390.2z"/>
								<path class="st6" d="M315.5,2168.2l9.9,165.6"/>
								<path class="st6" d="M235.1,2324.6c0,0,58.8,32.8,108.7,0"/>
								<path class="st2" d="M305.9,2021.1c0,0-29,43.1-46.7,47.7c-29.4,7.5-39.3-47.7-39.3-47.7s-25.1-198.8-3.5-334.1
									c5.7-33.8,33.3-78.4,70.4-76.6c33.6,1.4,59.8,29.6,58.4,63.4c0,0.4,0,1.1,0,1.4C339.5,1761.8,305.9,2021.1,305.9,2021.1z"/>
								<path class="st5" d="M269.1,2031.8c1.1,5.7,0.7,11.4-0.4,17.1c-0.4,3.2-1.8,6.4-3.9,8.9c-1.1,1.4-2.8,2.9-4.6,3.6
									c-1.8,0.7-3.5,1.1-5.3,1.1c-3.2,0-6.4-0.4-9.6-1.8c-2.8-1.1-5.7-2.9-7.8-5c-4.6-3.6-8.1-8.6-9.9-14.3
									c3.9,3.6,8.5,6.8,13.1,9.3c2.1,1.1,4.6,2.1,7.1,2.5c2.1,0.7,4.6,1.1,6.7,0.7c1.8,0,3.5-0.7,5-1.8c1.4-1.8,2.8-3.6,3.5-5.7
									C264.8,2042.1,267,2037.1,269.1,2031.8z"/>
								<path class="st5" d="M394.4,1763.9c-18.1,5-37.2,5-55.2,0c-8.5-19.2-98.8-52.7-117.5-99c5-17.1,9.9-31,9.9-43.5
									c0-68,270.8-68,270.8,0c0,10.7,5.7,26.7,10.6,43.5C488.6,1729,402.5,1744.3,394.4,1763.9z"/>
								<path class="st5" d="M499.2,1599.3c0,0-54.2,53.4-132.8,53.4s-133.1-53.4-133.1-53.4s-9.6-65.2-16.3-107.2
									c-7.1-43.8-12-138.9-12-138.9l-56.6-124.3c0,0,144.1-41.7,218.4-41.7c74.3,0,218.1,41.7,218.1,41.7l-56.6,124.3
									c0,0-5.3,95.5-12,138.9C508.7,1534.5,499.2,1599.3,499.2,1599.3z"/>
								<path class="st3" d="M148,1228.9c0,0-41.4,7.8-18.1,42.7c23.4,34.9,74.7,81.6,74.7,81.6L148,1228.9z"/>
								<path class="st3" d="M584.5,1228.9c0,0,41.4,7.8,18.1,42.7c-23.4,34.9-74.7,81.6-74.7,81.6L584.5,1228.9z"/>
								<path class="st7" d="M366.4,1340v427.5"/>
								<path class="st8" d="M468,1250.2c5,33.5-102,89.4-102,89.4s-106.6-55.9-101.6-89.4c2.8-18.9,31.9-39.2,34.3-68.4
									c3.5-43.8-4.6-154.6-4.6-154.6h144.1c0,0-7.8,111.1-4.6,155C436.2,1211.4,465.2,1231.4,468,1250.2z"/>
								<path class="st3" d="M295.3,1194.7c0,0-19.1,13.9-7.8,50.9c11.3,37,78.9,107.6,78.9,107.6s-108.7-64.1-128.2-95.8
									c0,0-13.5-34.6,19.1-55.6C290,1180.8,295.3,1194.7,295.3,1194.7z"/>
								<path class="st3" d="M437.2,1194.7c0,0,19.1,13.9,7.8,50.9c-11.3,37-78.9,107.6-78.9,107.6s108.7-64.1,128.2-95.8
									c0,0,13.5-34.6-19.1-55.6C442.5,1180.8,437.2,1194.7,437.2,1194.7z"/>
								<path class="st3" d="M222,1664.9c0,0-28-10.3-28.3,25.3c-0.7,41,142.7,100.1,153.6,85.1c11-15-37.9-36-62.7-54.5
									C262.7,1703,241.8,1684.5,222,1664.9z"/>
								<path class="st3" d="M513,1664.9c0,0,28-10.3,28.3,25.3c0.7,41-142.7,100.1-154,85.1c-11.3-15,37.9-36,62.7-54.5
									C471.9,1703,492.8,1684.5,513,1664.9z"/>
								<path class="st4" d="M502.4,1621.4c0,0-40,46.7-135.2,46.7c-95.2,0-135.6-46.3-135.6-46.3v-30.3c0,0,40,46.3,134.5,46.3
									c95.2,0,136.3-46.3,136.3-46.3V1621.4z"/>
								<path class="st0" d="M658.8,1077.5c-5.3,22.4-24.8,55.6-56.3,61.6c-44.6,8.9-89.2,0.7-132-8.2c-35.8-7.5-70.4-16-103.4-16
									c-33.3,0-68.3,8.9-104.8,17.1c-41.8,9.3-85.7,17.1-130.6,7.5c-26.2-5.3-49.9-39.5-56.3-61.6
									C41.1,960.6,142,871.9,253.5,852.3c39.6-6.8,80-11.8,113.3-11.8s74,5,113.3,11.8C591.9,871.9,687.9,951,658.8,1077.5z"/>
								<path class="st0" d="M528.6,913.6c0,57.7-72.2,104.7-161.4,104.7c-89.2,0-161.8-46.7-161.8-104.7
									c0-58.1,95.6-123.6,161.4-123.6S528.6,855.9,528.6,913.6z"/>
								<path class="st8" d="M268,945.7c0,0-10.3-23.5-36.5-25.3c-26.2-1.8-64.8,33.8-53.5,78c0,0-3.2-31.7,32.9-56.6
									C247.1,916.8,268,945.7,268,945.7z"/>
								<g>
									<defs>
										<path id="SVGID_1_" d="M269.4,1013c-12,26-40.7,38.5-64.4,27.4c-23.7-11-33.3-41-21.2-67c12-26,48.1-50.6,71.9-39.2
											S281.1,987,269.4,1013z"/>
									</defs>
									<clipPath id="SVGID_00000137130784711154476550000005751515034741477302_">
										<use xlink:href="#SVGID_1_"  style="overflow:visible;"/>
									</clipPath>
									<g style="clip-path:url(#SVGID_00000137130784711154476550000005751515034741477302_);">
										<path class="st10" d="M152.2,1021.9l57.5-121.6l96.6,46.2l-57.5,121.6L152.2,1021.9z"/>
										<path class="st11" d="M282.9,985.9c0,21.4-17.3,38.8-38.6,38.8s-38.6-17.4-38.6-38.8c0-21.4,17.3-38.8,38.6-38.8
											S282.9,964.5,282.9,985.9z"/>
										<path class="st12" d="M244.3,946.7c2.1,6.4,3.5,12.8,4.2,19.2c0.7,6.4,1.1,12.8,1.1,19.6c0,6.4-0.4,13.2-1.1,19.6
											c-0.7,6.8-2.1,13.2-4.2,19.6c-2.1-6.4-3.5-12.8-4.2-19.2c-1.8-13.2-1.8-26,0-39.2C240.4,959.6,242.2,953.2,244.3,946.7z"
											/>
										<path class="st12" d="M263.4,985.9c0,10.6-8.6,19.2-19.1,19.2s-19.1-8.6-19.1-19.2c0-10.6,8.6-19.2,19.1-19.2
											S263.4,975.3,263.4,985.9z"/>
									</g>
								</g>
								<path class="st13" d="M205,1040.4c-10.3-3.9-18.8-11.4-23.4-21.4c-2.5-5-4.2-10.3-5-15.7c-0.7-5.7-0.7-11,0-16.7
									c1.8-11,6.7-21.4,14.2-29.9c7.1-8.5,15.6-15.7,25.5-21c9.9-5.7,21.2-8.2,32.6-6.8c5.7,0.7,11.3,3.6,15.6,7.5
									c4.2,3.9,7.4,8.5,9.9,13.9c2.1,5,3.5,10.3,4.2,16c0.7,5.3,0.7,10.7,0.4,16.4c-0.7,10.7-3.5,21.4-8.5,31
									c3.5-10,5.3-20.3,5.3-31c0-10.3-2.1-20.7-6.4-29.9c-2.1-4.6-5-8.5-8.8-11.4c-3.5-3.2-8.1-5-12.7-5.7
									c-9.9-0.7-19.8,1.4-28.3,6.8c-17,10-32.6,26-36.5,46c-2.1,10-1.1,20.3,2.8,29.9C188.7,1027.2,195.8,1035.1,205,1040.4z"/>
								<path class="st8" d="M465.6,945.7c0,0,10.3-23.5,36.5-25.3c26.2-1.8,64.8,33.8,53.5,78c0,0,3.2-31.7-32.9-56.6
									C486.4,916.8,465.6,945.7,465.6,945.7z"/>
								<g>
									<defs>
										<path id="SVGID_00000173144656008291779120000011307741861179190422_" d="M464.5,1013c12,26,40.7,38.5,64.4,27.4
											c23.7-11,33.3-41,21.2-67c-12-26-48.1-50.6-71.9-39.2C454.6,945.3,452.8,987,464.5,1013z"/>
									</defs>
									<clipPath id="SVGID_00000088831305939770521980000006302776016820305596_">
										<use xlink:href="#SVGID_00000173144656008291779120000011307741861179190422_"  style="overflow:visible;"/>
									</clipPath>
									<g style="clip-path:url(#SVGID_00000088831305939770521980000006302776016820305596_);">
										<path class="st10" d="M427.5,946.5l96.6-46.2l57.5,121.6l-96.6,46.2L427.5,946.5z"/>
										<path class="st11" d="M553,985.9c0,21.4-17.3,38.8-38.6,38.8c-21.3,0-38.6-17.4-38.6-38.8c0-21.4,17.3-38.8,38.6-38.8
											C535.7,947.1,553,964.5,553,985.9z"/>
										<path class="st12" d="M514.4,946.7c2.1,6.4,3.5,12.8,4.2,19.2c1.4,12.8,1.4,26,0,38.8c-0.7,6.8-2.1,13.2-4.2,19.6
											c-2.1-6.4-3.5-12.8-4.2-19.6c-1.8-12.8-1.8-26,0-38.8C510.9,959.6,512.3,953.2,514.4,946.7z"/>
										<path class="st12" d="M533.5,985.9c0,10.6-8.6,19.2-19.1,19.2c-10.6,0-19.1-8.6-19.1-19.2c0-10.6,8.6-19.2,19.1-19.2
											C525,966.7,533.5,975.3,533.5,985.9z"/>
									</g>
								</g>
								<path class="st13" d="M528.9,1040.4c9.2-5,16.3-13.2,20.2-23.2c3.9-9.6,4.6-19.9,2.5-29.9c-3.9-19.9-19.1-36-36.5-46
									c-8.5-5.3-18.4-7.5-28.3-6.8c-4.6,0.7-9.2,2.5-12.7,5.7c-3.9,3.2-6.7,7.1-8.9,11.4c-4.2,9.3-6,19.6-6,29.9
									c0,10.7,1.8,21,5.3,31c-5-9.6-7.8-19.9-8.5-31c-0.4-5.3-0.4-11,0.4-16.4c0.7-5.3,2.1-11,4.2-16c2.1-5.3,5.7-10,9.9-13.9
									s9.9-6.4,15.6-7.5c11.3-1.4,22.7,1.1,32.6,6.8c9.6,5.3,18.4,12.5,25.1,21c7.1,8.5,12,18.9,13.8,29.9c0.7,5.7,0.7,11,0,16.7
									c-0.7,5.3-2.5,10.7-5,15.7C547.7,1028.7,539.2,1036.5,528.9,1040.4z"/>
								<path class="st8" d="M148.7,931.4c0,0,20.5-38.5,76.5-50.9c55.9-12.5,62,4.6,62,4.6l-10.3,18.5
									C276.9,903.6,230.8,886.2,148.7,931.4z"/>
								<path class="st8" d="M583.8,931.4c0,0-20.9-38.5-76.5-50.9c-55.6-12.5-62,4.6-62,4.6l10.6,18.5
									C455.6,903.6,501.7,886.2,583.8,931.4z"/>
								<path class="st15" d="M458.8,1107c-11.3,6.4-59.1-8.9-92-8.9c-33.3,0-86,17.1-93.5,10c-8.5-8.2-19.1-19.6-8.5-25.6
									c25.8-15.3,67.6-13.9,101.2-13.9c33.6,0,76.8-1.1,101.2,13.9C477.9,1088.2,468.7,1101.7,458.8,1107z"/>
								<path class="st0" d="M447.9,971.3c-1.4,35.3-4.2,70.2-7.4,105.4c-1.4,17.5-3.5,35.3-5.3,52.7l-6,52.7
									c-2.1,17.5-5.3,35.3-8.9,52.7c-3.5,17.5-7.4,35.3-10.3,52.7c-2.8,17.5-4.2,35.3-5,52.7c-1.1,17.5-0.4,35.3,2.1,52.7
									c2.8,22.8-13.1,43.5-35.8,46.3c-21.6,2.8-41.8-12.1-45.7-33.8c-0.7-4.3-0.7-8.5,0-12.5c2.5-17.5,3.2-35.3,2.1-52.7
									c-0.7-17.8-2.5-35.3-5-52.7c-2.5-17.5-6.4-35.3-10.3-52.7c-3.9-17.5-6.7-35.3-8.9-52.7l-6-52.7c-1.8-17.5-3.5-35.3-5.3-52.7
									c-3.2-35.3-6-70.2-7.4-105.4c-2.1-45.2,32.9-83.4,77.9-85.5c45-2.1,82.8,33.1,85,78.4C447.9,966.7,447.9,968.8,447.9,971.3z
									"/>
								<path class="st0" d="M427.7,1443.3c-8.5,12.8-46,0-61.6,0c-15.6,0-53.1,12.8-61.6,0c-7.4-11.4,19.1-37,20.9-50.6
									c2.8-21,78.2-21,81.4,0C408.9,1406.3,435.5,1431.9,427.7,1443.3z"/>
								<path class="st8" d="M295.3,1022.3c-0.4-8.9,1.8-17.5,5.7-25.6c4.2-7.8,9.9-15,16.6-20.3c29-22.4,69.7-22.4,98.8,0
									c7.1,5.7,12.7,12.5,16.6,20.3c3.9,7.8,6,16.7,5.7,25.6c-1.1-17.5-9.9-33.5-24.1-43.8c-28.3-20.7-66.9-20.7-95.2,0
									C305.2,988.8,296.3,1004.8,295.3,1022.3z"/>
								<path class="st8" d="M304.5,1091.4c-0.4-7.5,1.8-14.6,5.7-20.7c3.9-6.1,9.2-11.4,15.2-15.3c25.5-16,57.7-16,83.2,0
									c6,3.9,11.3,9.3,15.6,15.3c3.9,6.1,6,13.5,5.7,20.7c-0.4-7.1-2.8-13.9-7.1-19.9c-4.2-5.7-9.2-10.7-15.6-14.2
									c-24.8-14.2-55.2-14.2-80.4,0c-6,3.6-11.3,8.5-15.2,14.2C307.3,1077.5,304.8,1084.2,304.5,1091.4z"/>
								<path class="st8" d="M313.3,1159.8c0-6.1,2.1-11.8,6-16c3.9-4.3,8.5-8.2,13.8-10.7c21.2-10,46-10,67.6,0
									c5.3,2.5,9.9,6.4,13.8,10.7c3.9,4.3,6,10.3,5.7,16c-0.7-5.7-3.2-11-7.1-15c-3.9-3.9-8.5-7.1-13.8-9.3
									c-20.9-8.5-44.3-8.5-65.1,0c-5,2.1-9.9,5.3-13.8,9.3C316.5,1148.7,314,1154.1,313.3,1159.8z"/>
							</g>
						</g>
					</g>
				</g>
			</g>
		</g>
	</g>
</g>
</svg>
