<?xml version="1.0" encoding="utf-8"?>
<!-- Generator: Adobe Illustrator 26.0.0, SVG Export Plug-In . SVG Version: 6.00 Build 0)  -->
<svg version="1.1" id="Layer_1" xmlns="http://www.w3.org/2000/svg" xmlns:xlink="http://www.w3.org/1999/xlink" x="0px" y="0px"
	 viewBox="0 0 700 700" style="enable-background:new 0 0 700 700;" xml:space="preserve">
<style type="text/css">
	.st0{fill:#FFA400;}
	.st1{fill:#A1B200;}
	.st2{fill:#953DBA;}
	.st3{fill:#DAE78D;}
	.st4{fill:#FBFF43;}
	.st5{fill:#430B60;}
	.st6{fill:none;stroke:#A1B200;stroke-width:0.3583;stroke-linecap:round;stroke-miterlimit:10;}
	.st7{fill:none;stroke:#953DBA;stroke-width:0.3583;stroke-miterlimit:10;}
	.st8{fill:#ED6100;}
	.st9{clip-path:url(#SVGID_00000124128740977603802120000012154482548620489140_);}
	.st10{fill:#FFFFFF;}
	.st11{fill:#77185E;}
	.st12{fill:#130E19;}
	.st13{fill:#933B00;}
	.st14{clip-path:url(#SVGID_00000080183323812272146640000008186536812443010481_);}
	.st15{fill:#AF4700;}
</style>
<g>
	<g transform="translate(-17 -790)">
		<g>
			<g>
				<g>
					<g>
						<g>
							<g>
								<path class="st0" d="M215.8,1382.7c0,0-9.1,25-27,20.6c-17.9-4.4-14.9-30.8-14.9-30.8s19.8-163.4,44.1-205.1
									c12.4-21.1,48.5-15.6,50.7,12.2C273.4,1239.8,215.8,1382.7,215.8,1382.7z"/>
								<path class="st0" d="M167.9,1553.3l-25.9-6.1c0,0,4.7-118.1,32-174.8c4.7-9.7,41.1-1.7,42.4,9.4
									C221.3,1429.1,167.9,1553.3,167.9,1553.3z"/>
								<path class="st0" d="M116.1,1570c0,0-21.5,28.6-17.1,44.7c3.3,12.2,16-2.5,20.1-16.4c3.3-10.8,19.3-22.5,19.3-22.5
									L116.1,1570z"/>
								<path class="st0" d="M150.5,1533.3c0,0-31.7,27-38,42.8c-6.3,15.8,27,23.6,43.3,19.2c6.6-1.9,16-10.6,19.6-21.1
									C180.3,1558.9,175.3,1539.7,150.5,1533.3z"/>
								<path class="st0" d="M202.6,1574.5c0,0-14.6-20-30.6-30.6c-16-10.6-16,22.8-16,22.8s32.5,28.9,42.2,25.3
									C207.8,1588.1,213.3,1587.5,202.6,1574.5z"/>
								<path class="st0" d="M142,1584.5c0,0-14.9,36.7-5.5,52.5c7.2,12,16.5-7.2,16.8-23.1c0.3-12.5,14.3-29.5,14.3-29.5H142z"/>
								<path class="st0" d="M120.2,1584.5c0,0-14.9,36.7-5.5,52.5c7.2,12,16.5-7.2,16.8-23.1c0.3-12.5,14.3-29.5,14.3-29.5H120.2z"
									/>
								<path class="st0" d="M525.9,1382.7c0,0,9.1,25,27.3,20.6c18.2-4.4,14.9-30.8,14.9-30.8s-19.8-163.4-44.1-205.1
									c-12.4-21.1-48.5-15.6-50.7,12.2C468.3,1239.8,525.9,1382.7,525.9,1382.7z"/>
								<path class="st0" d="M573.8,1553.3l25.9-6.1c0,0-4.7-118.1-32-174.8c-4.7-9.7-41.1-1.7-42.4,9.4
									C520.4,1429.1,573.8,1553.3,573.8,1553.3z"/>
								<path class="st0" d="M625.6,1570c0,0,21.5,28.6,17.1,44.7c-3.3,12.2-16-2.5-20.1-16.4c-3.3-10.8-19.3-22.5-19.3-22.5
									L625.6,1570z"/>
								<path class="st0" d="M591.5,1533.3c0,0,31.7,27,38,42.8c6.3,15.8-26.7,23.6-43.3,19.2c-6.6-1.9-16-10.6-19.6-21.1
									C561.4,1558.9,566.4,1539.7,591.5,1533.3z"/>
								<path class="st0" d="M539.4,1574.5c0,0,14.6-20,30.6-30.6c16-10.6,16,22.8,16,22.8s-32.5,28.9-42.4,25.3
									C533.6,1588.3,528.4,1587.5,539.4,1574.5z"/>
								<path class="st0" d="M599.7,1584.5c0,0,14.9,36.7,5.5,52.5c-7.2,12-16.5-7.2-16.8-23.1c-0.3-12.5-14.1-29.5-14.1-29.5H599.7
									z"/>
								<path class="st0" d="M621.5,1584.5c0,0,14.9,36.7,5.5,52.5c-7.2,12-16.5-7.2-16.8-23.1c-0.3-12.5-14.1-29.5-14.1-29.5H621.5
									z"/>
								<path class="st1" d="M507.1,1817.6c0,0-9.1-19.7-71.1-22.2c-48-1.9-51.8,8.1-51.8,8.1s30,85.9,55.7,87.3
									C485.1,1893.2,507.1,1817.6,507.1,1817.6z"/>
								<path class="st2" d="M417.8,1994.1l22,0.8l35.3-210.7c0,0-47.7-38.3-57.6-28.6C375.9,1797.9,417.8,1994.1,417.8,1994.1z"/>
								<path class="st3" d="M384.2,1803.7l1.1,54.5l3.3,154.5c0,0,55.1,36.1,84.1-17.5l24.8-128.4l9.4-48.9
									c-5.2,18.1-42.4,21.7-80.2,14.2C391.4,1824.9,384.2,1803.7,384.2,1803.7z"/>
								<path class="st3" d="M473,1994.9c0,0,8,15.6,28.9,34.2c20.9,18.6,51.3,13.9,51.3,30.6c0,16.7,1.4,23.1-10.7,28.6
									c-12.1,5.6-68.9,11.9-89.8,6.4c-20.9-5.6-14.6-16.7-41.1-15.6c-26.5,1.1-27-12.8-27-12.8c-1.4-24.2,1.9-48.1,9.6-70.9
									C407.1,1958,473,1994.9,473,1994.9z"/>
								<path class="st4" d="M384.2,1803.7l1.1,54.5c9.1,8.3,24.8,17.8,50.7,21.1c33.1,4.2,52.4-5.6,61.5-12.5l9.4-48.9
									c-5.2,18.1-42.4,21.7-80.2,14.2C391.4,1824.9,384.2,1803.7,384.2,1803.7z"/>
								<path class="st5" d="M384.5,2046.1c0,0,0.6,13.9,27,12.8c26.5-1.1,20.1,10,41.1,15.6c20.9,5.6,77.7-0.8,89.8-6.4
									c6.9-3.1,9.4-6.4,10.2-11.7c0.3,1.1,0.6,1.9,0.6,3.1c0,16.7,1.4,23.1-10.7,28.6c-12.1,5.6-68.9,12-89.8,6.4
									c-20.9-5.6-14.6-16.7-41.1-15.6c-26.5,1.1-27-12.8-27-12.8c-0.6-7-0.6-13.9,0-21.1C384.2,2045.5,384.5,2046.1,384.5,2046.1z
									"/>
								<path class="st6" d="M410.4,1872.9l-7.7,129.2"/>
								<path class="st6" d="M473,1994.9c0,0-45.7,25.6-84.6,0"/>
								<path class="st2" d="M417.8,1758.2c0,0,22.6,33.6,36.4,37.2c23.2,5.8,30.6-37.2,30.6-37.2s19.6-155.1,2.8-260.7
									c-4.4-26.4-25.9-61.1-54.8-59.8c-26.2,1.1-46.6,23.3-45.5,49.5c0,0.3,0,0.8,0,1.1C391.7,1555.8,417.8,1758.2,417.8,1758.2z"
									/>
								<path class="st5" d="M446.5,1766.5c1.7,4.2,3,8.1,4.7,12c0.6,1.7,1.7,3.1,2.8,4.4c1.1,0.8,2.5,1.4,3.9,1.4
									c1.7,0,3.6-0.3,5.2-0.6c1.9-0.6,3.6-1.1,5.2-1.9c3.6-1.9,7.2-4.5,10.2-7.2c-1.4,4.4-4.1,8.3-7.7,11.1
									c-1.9,1.7-3.9,2.8-6.1,3.6c-2.2,0.8-5,1.4-7.4,1.4c-1.4,0-2.8-0.3-4.1-0.8c-1.4-0.6-2.5-1.7-3.6-2.8c-1.7-1.9-2.5-4.4-3-6.9
									C445.9,1775.4,445.9,1770.9,446.5,1766.5z"/>
								<path class="st1" d="M234.6,1817.6c0,0,9.1-19.7,71.1-22.2c48-1.9,51.8,8.1,51.8,8.1s-30,85.9-55.7,87.3
									C256.6,1893.2,234.6,1817.6,234.6,1817.6z"/>
								<path class="st2" d="M323.9,1994.1l-22.3,0.8l-35-210.7c0,0,47.7-38.3,57.6-28.6C365.7,1797.9,323.9,1994.1,323.9,1994.1z"
									/>
								<path class="st3" d="M357.5,1803.7l-1.1,54.5l-3.3,154.5c0,0-55.1,36.1-84.1-17.5l-24.8-128.4l-9.6-49.2
									c5.2,18.1,42.4,21.7,80.2,14.2C350.3,1824.9,357.5,1803.7,357.5,1803.7z"/>
								<path class="st3" d="M268.7,1994.9c0,0-8,15.6-28.9,34.2c-20.9,18.6-51.3,13.9-51.3,30.6c0,16.7-1.4,23.1,10.7,28.6
									c12.1,5.6,68.9,11.9,89.8,6.4c20.9-5.6,14.6-16.7,41.1-15.6c26.5,1.1,27-12.8,27-12.8c1.4-24.2-1.9-48.1-9.6-70.9
									C334.6,1958,268.7,1994.9,268.7,1994.9z"/>
								<path class="st4" d="M357.5,1803.7l-1.1,54.5c-9.1,8.3-24.8,17.8-50.7,21.1c-33.1,4.2-52.4-5.6-61.5-12.5l-9.6-49.2
									c5.2,18.1,42.4,21.7,80.2,14.2C350.3,1824.9,357.5,1803.7,357.5,1803.7z"/>
								<path class="st5" d="M357.5,2046.1c0,0-0.6,13.9-27,12.8c-26.5-1.1-20.1,10-41.1,15.6c-20.9,5.6-77.7-0.8-89.8-6.4
									c-6.9-3.1-9.4-6.4-10.2-11.7c-0.3,1.1-0.6,1.9-0.6,3.1c0,16.7-1.4,23.1,10.7,28.6c12.1,5.6,68.9,12,89.8,6.4
									c20.9-5.6,14.6-16.7,41.1-15.6c26.5,1.1,27-12.8,27-12.8c0.6-7,0.6-13.9,0-21.1V2046.1z"/>
								<path class="st6" d="M331.3,1872.9l7.7,129.2"/>
								<path class="st6" d="M268.7,1994.9c0,0,45.8,25.6,84.6,0"/>
								<path class="st2" d="M323.9,1758.2c0,0-22.6,33.6-36.4,37.2c-22.9,5.8-30.6-37.2-30.6-37.2s-19.6-155.1-2.8-260.7
									c4.4-26.4,25.9-61.1,54.8-59.8c26.2,1.1,46.6,23.1,45.5,49.5c0,0.3,0,0.8,0,1.1C350,1555.8,323.9,1758.2,323.9,1758.2z"/>
								<path class="st5" d="M295.2,1766.5c0.8,4.4,0.6,8.9-0.3,13.3c-0.3,2.5-1.4,5-3,6.9c-0.8,1.1-2.2,2.2-3.6,2.8
									c-1.4,0.6-2.8,0.8-4.1,0.8c-2.5,0-5-0.3-7.4-1.4c-2.2-0.8-4.4-2.2-6.1-3.9c-3.6-2.8-6.3-6.7-7.7-11.1
									c3,2.8,6.6,5.3,10.2,7.2c1.7,0.8,3.6,1.7,5.5,1.9c1.7,0.6,3.6,0.8,5.2,0.6c1.4,0,2.8-0.6,3.9-1.4c1.1-1.4,2.2-2.8,2.8-4.4
									C291.9,1774.6,293.5,1770.7,295.2,1766.5z"/>
								<path class="st5" d="M392.8,1557.5c-14.1,3.9-28.9,3.9-43,0c-6.6-15-76.9-41.1-91.5-77.3c3.9-13.3,7.7-24.2,7.7-33.9
									c0-53.1,210.8-53.1,210.8,0c0,8.3,4.4,20.8,8.3,33.9C466.1,1530.3,399.1,1542.2,392.8,1557.5z"/>
								<path class="st5" d="M474.3,1429.1c0,0-42.2,41.7-103.4,41.7s-103.6-41.7-103.6-41.7s-7.4-50.9-12.7-83.7
									c-5.5-34.2-9.4-108.4-9.4-108.4l-44.1-97c0,0,112.2-32.5,170-32.5c57.9,0,169.8,32.5,169.8,32.5l-44.1,97
									c0,0-4.1,74.5-9.4,108.4C481.8,1378.5,474.3,1429.1,474.3,1429.1z"/>
								<path class="st3" d="M200.9,1140.1c0,0-32.2,6.1-14.1,33.3c18.2,27.2,58.2,63.6,58.2,63.6L200.9,1140.1z"/>
								<path class="st3" d="M540.8,1140.1c0,0,32.2,6.1,14.1,33.3c-18.2,27.2-58.2,63.6-58.2,63.6L540.8,1140.1z"/>
								<path class="st7" d="M371,1226.8v333.5"/>
								<path class="st8" d="M450.1,1156.8c3.9,26.1-79.4,69.8-79.4,69.8s-83-43.6-79.1-69.8c2.2-14.7,24.8-30.6,26.7-53.4
									c2.8-34.2-3.6-120.6-3.6-120.6h112.2c0,0-6.1,86.7-3.6,120.9C425.3,1126.5,447.9,1142,450.1,1156.8z"/>
								<path class="st3" d="M315.6,1113.4c0,0-14.9,10.8-6.1,39.7c8.8,28.9,61.5,83.9,61.5,83.9s-84.6-50-99.8-74.8
									c0,0-10.5-27,14.9-43.4C311.5,1102.6,315.6,1113.4,315.6,1113.4z"/>
								<path class="st3" d="M426.1,1113.4c0,0,14.9,10.8,6.1,39.7c-8.8,28.9-61.5,83.9-61.5,83.9s84.6-50,99.8-74.8
									c0,0,10.5-27-14.9-43.4C430.2,1102.6,426.1,1113.4,426.1,1113.4z"/>
								<path class="st3" d="M258.5,1480.2c0,0-21.8-8.1-22,19.7c-0.6,32,111.1,78.1,119.6,66.4c8.5-11.7-29.5-28.1-48.8-42.5
									C290.2,1510,274,1495.5,258.5,1480.2z"/>
								<path class="st3" d="M485.1,1480.2c0,0,21.8-8.1,22,19.7c0.6,32-111.1,78.1-119.9,66.4c-8.8-11.7,29.5-28.1,48.8-42.5
									C453.1,1510,469.4,1495.5,485.1,1480.2z"/>
								<path class="st4" d="M476.8,1446.3c0,0-31.1,36.4-105.3,36.4c-74.1,0-105.6-36.1-105.6-36.1V1423c0,0,31.1,36.1,104.7,36.1
									c74.1,0,106.1-36.1,106.1-36.1V1446.3z"/>
								<path class="st0" d="M598.6,1022c-4.1,17.5-19.3,43.4-43.8,48.1c-34.7,6.9-69.5,0.6-102.8-6.4
									c-27.8-5.8-54.8-12.5-80.5-12.5c-25.9,0-53.2,6.9-81.6,13.3c-32.5,7.2-66.7,13.3-101.7,5.8c-20.4-4.2-38.9-30.8-43.8-48.1
									c-26.7-91.4,51.8-160.6,138.6-175.9c30.9-5.3,62.3-9.2,88.2-9.2c25.9,0,57.6,3.9,88.2,9.2
									C546.5,861.6,621.2,923.3,598.6,1022z"/>
								<path class="st0" d="M497.2,894.1c0,45-56.2,81.7-125.7,81.7c-69.5,0-125.9-36.4-125.9-81.7c0-45.3,74.4-96.4,125.7-96.4
									C422.5,797.7,497.2,849.1,497.2,894.1z"/>
								<path class="st8" d="M294.4,919.1c0,0-8-18.3-28.4-19.7c-20.4-1.4-50.4,26.4-41.6,60.9c0,0-2.5-24.7,25.6-44.2
									C278.1,896.6,294.4,919.1,294.4,919.1z"/>
								<g>
									<defs>
										<path id="SVGID_1_" d="M295.5,971.7c-9.4,20.3-31.7,30-50.2,21.4c-18.5-8.6-25.9-32-16.5-52.2
											c9.4-20.3,37.5-39.5,55.9-30.6C303.2,919.1,304.6,951.4,295.5,971.7z"/>
									</defs>
									<clipPath id="SVGID_00000156580014533107290570000004507782189702539942_">
										<use xlink:href="#SVGID_1_"  style="overflow:visible;"/>
									</clipPath>
									<g style="clip-path:url(#SVGID_00000156580014533107290570000004507782189702539942_);">
										<path class="st10" d="M204.2,978.6l44.7-94.9l75.2,36l-44.7,94.9L204.2,978.6z"/>
										<path class="st11" d="M305.9,950.5c0,16.7-13.4,30.3-30,30.3s-30-13.6-30-30.3c0-16.7,13.5-30.3,30-30.3
											S305.9,933.8,305.9,950.5z"/>
										<path class="st12" d="M275.9,920c1.7,5,2.8,10,3.3,15c0.6,5,0.8,10,0.8,15.3c0,5-0.3,10.3-0.8,15.3
											c-0.6,5.3-1.7,10.3-3.3,15.3c-1.7-5-2.8-10-3.3-15c-1.4-10.3-1.4-20.3,0-30.6C272.9,930,274.2,925,275.9,920z"/>
										<path class="st12" d="M290.8,950.5c0,8.3-6.7,15-14.9,15s-14.9-6.7-14.9-15c0-8.3,6.7-15,14.9-15S290.8,942.3,290.8,950.5
											z"/>
									</g>
								</g>
								<path class="st13" d="M245.3,993.1c-8-3.1-14.6-8.9-18.2-16.7c-1.9-3.9-3.3-8.1-3.9-12.2c-0.6-4.4-0.6-8.6,0-13.1
									c1.4-8.6,5.2-16.7,11-23.3c5.5-6.7,12.1-12.2,19.8-16.4c7.7-4.4,16.5-6.4,25.4-5.3c4.4,0.6,8.8,2.8,12.1,5.8
									c3.3,3.1,5.8,6.7,7.7,10.8c1.7,3.9,2.8,8.1,3.3,12.5c0.6,4.2,0.6,8.3,0.3,12.8c-0.6,8.3-2.8,16.7-6.6,24.2
									c2.8-7.8,4.1-15.8,4.1-24.2c0-8.1-1.7-16.1-5-23.3c-1.7-3.6-3.9-6.7-6.9-8.9c-2.8-2.5-6.3-3.9-9.9-4.4
									c-7.7-0.6-15.4,1.1-22,5.3c-13.2,7.8-25.4,20.3-28.4,35.9c-1.7,7.8-0.8,15.8,2.2,23.3C232.6,982.8,238.1,988.9,245.3,993.1z
									"/>
								<path class="st8" d="M448.2,919.1c0,0,8-18.3,28.4-19.7c20.4-1.4,50.4,26.4,41.6,60.9c0,0,2.5-24.7-25.6-44.2
									C464.4,896.6,448.2,919.1,448.2,919.1z"/>
								<g>
									<defs>
										<path id="SVGID_00000018225680825219658150000000524968841531932343_" d="M447.3,971.7c9.4,20.3,31.7,30,50.2,21.4
											c18.5-8.6,25.9-32,16.5-52.2c-9.4-20.3-37.5-39.5-55.9-30.6C439.6,918.9,438.2,951.4,447.3,971.7z"/>
									</defs>
									<clipPath id="SVGID_00000019655527353568266610000017980209707985770411_">
										<use xlink:href="#SVGID_00000018225680825219658150000000524968841531932343_"  style="overflow:visible;"/>
									</clipPath>
									<g style="clip-path:url(#SVGID_00000019655527353568266610000017980209707985770411_);">
										<path class="st10" d="M418.5,919.8l75.2-36l44.7,94.9l-75.2,36L418.5,919.8z"/>
										<path class="st11" d="M516.2,950.5c0,16.7-13.4,30.3-30,30.3s-30-13.6-30-30.3c0-16.7,13.5-30.3,30-30.3
											S516.2,933.8,516.2,950.5z"/>
										<path class="st12" d="M486.2,920c1.7,5,2.8,10,3.3,15c1.1,10,1.1,20.3,0,30.3c-0.6,5.3-1.7,10.3-3.3,15.3
											c-1.7-5-2.8-10-3.3-15.3c-1.4-10-1.4-20.3,0-30.3C483.4,930,484.5,925,486.2,920z"/>
										<path class="st12" d="M501.1,950.5c0,8.3-6.7,15-14.9,15s-14.9-6.7-14.9-15c0-8.3,6.7-15,14.9-15S501.1,942.3,501.1,950.5
											z"/>
									</g>
								</g>
								<path class="st13" d="M497.5,993.1c7.2-3.9,12.7-10.3,15.7-18.1c3-7.5,3.6-15.6,1.9-23.3c-3-15.6-14.9-28.1-28.4-35.9
									c-6.6-4.2-14.3-5.8-22-5.3c-3.6,0.6-7.2,1.9-9.9,4.4c-3,2.5-5.2,5.6-6.9,8.9c-3.3,7.2-4.7,15.3-4.7,23.3
									c0,8.3,1.4,16.4,4.1,24.2c-3.9-7.5-6.1-15.6-6.6-24.2c-0.3-4.2-0.3-8.6,0.3-12.8c0.6-4.2,1.7-8.6,3.3-12.5
									c1.7-4.2,4.4-7.8,7.7-10.8c3.3-3.1,7.7-5,12.1-5.8c8.8-1.1,17.6,0.8,25.4,5.3c7.4,4.2,14.3,9.7,19.6,16.4
									c5.5,6.7,9.4,14.7,10.7,23.3c0.6,4.4,0.6,8.6,0,13.1c-0.6,4.2-1.9,8.3-3.9,12.2C512.1,983.9,505.5,990,497.5,993.1z"/>
								<path class="st8" d="M201.5,908c0,0,16-30,59.5-39.7c43.5-9.7,48.2,3.6,48.2,3.6l-8,14.5C301.3,886.3,265.4,872.7,201.5,908
									z"/>
								<path class="st8" d="M540.2,908c0,0-16.3-30-59.5-39.7c-43.3-9.7-48.2,3.6-48.2,3.6l8.3,14.5
									C440.4,886.3,476.3,872.7,540.2,908z"/>
								<path class="st15" d="M442.9,1045c-8.8,5-46-6.9-71.7-6.9c-25.9,0-67,13.3-72.8,7.8c-6.6-6.4-14.9-15.3-6.6-20
									c20.1-12,52.6-10.8,78.8-10.8c26.2,0,59.8-0.8,78.8,10.8C457.8,1030.3,450.6,1040.9,442.9,1045z"/>
								<path class="st0" d="M434.4,939.1c-1.1,27.5-3.3,54.7-5.8,82.3c-1.1,13.6-2.8,27.5-4.1,41.1l-4.7,41.1
									c-1.7,13.6-4.1,27.5-6.9,41.1c-2.8,13.6-5.8,27.5-8,41.1c-2.2,13.6-3.3,27.5-3.9,41.1c-0.8,13.6-0.3,27.5,1.7,41.1
									c2.2,17.8-10.2,33.9-27.8,36.1c-16.8,2.2-32.5-9.4-35.6-26.4c-0.6-3.3-0.6-6.7,0-9.7c1.9-13.6,2.5-27.5,1.7-41.1
									c-0.6-13.9-1.9-27.5-3.9-41.1c-1.9-13.6-5-27.5-8-41.1c-3-13.6-5.2-27.5-6.9-41.1l-4.7-41.1c-1.4-13.6-2.8-27.5-4.1-41.1
									c-2.5-27.5-4.7-54.7-5.8-82.3c-1.7-35.3,25.6-65,60.6-66.7c35-1.7,64.5,25.8,66.1,61.1C434.4,935.5,434.4,937.2,434.4,939.1
									z"/>
								<path class="st0" d="M418.7,1307.4c-6.6,10-35.8,0-48,0c-12.1,0-41.3,10-48,0c-5.8-8.9,14.9-28.9,16.3-39.5
									c2.2-16.4,60.9-16.4,63.4,0C404.1,1278.5,424.7,1298.5,418.7,1307.4z"/>
								<path class="st8" d="M315.6,978.9c-0.3-6.9,1.4-13.6,4.4-20c3.3-6.1,7.7-11.7,13-15.8c22.6-17.5,54.3-17.5,76.9,0
									c5.5,4.4,9.9,9.7,13,15.8c3,6.1,4.7,13.1,4.4,20c-0.8-13.6-7.7-26.1-18.7-34.2c-22-16.1-52.1-16.1-74.1,0
									C323.3,952.8,316.4,965.3,315.6,978.9z"/>
								<path class="st8" d="M322.8,1032.8c-0.3-5.8,1.4-11.4,4.4-16.1c3-4.7,7.2-8.9,11.9-12c19.8-12.5,44.9-12.5,64.8,0
									c4.7,3.1,8.8,7.2,12.1,12c3,4.7,4.7,10.6,4.4,16.1c-0.3-5.6-2.2-10.8-5.5-15.6c-3.3-4.4-7.2-8.3-12.1-11.1
									c-19.3-11.1-43-11.1-62.6,0c-4.7,2.8-8.8,6.7-11.9,11.1C325,1022,323,1027.2,322.8,1032.8z"/>
								<path class="st8" d="M329.6,1086.2c0-4.7,1.7-9.2,4.7-12.5c3-3.3,6.6-6.4,10.7-8.3c16.5-7.8,35.8-7.8,52.6,0
									c4.1,1.9,7.7,5,10.7,8.3c3,3.3,4.7,8.1,4.4,12.5c-0.6-4.4-2.5-8.6-5.5-11.7c-3-3.1-6.6-5.6-10.7-7.2
									c-16.3-6.7-34.5-6.7-50.7,0c-3.9,1.7-7.7,4.2-10.7,7.2C332.1,1077.5,330.2,1081.7,329.6,1086.2z"/>
							</g>
						</g>
					</g>
				</g>
			</g>
		</g>
	</g>
</g>
</svg>
