<svg id="character_art" data-name="character art" xmlns="http://www.w3.org/2000/svg" xmlns:xlink="http://www.w3.org/1999/xlink" viewBox="0 0 1103 1000"><defs><style>.cls-1,.cls-12,.cls-16,.cls-20,.cls-29,.cls-31{fill:none;}.cls-2{fill:#d0f6ff;}.cls-3{fill:url(#radial-gradient);}.cls-4{fill:#febc90;}.cls-5{fill:#fd8638;}.cls-6{fill:#fd9a59;}.cls-7{fill:#ed6100;}.cls-8{fill:#fea164;}.cls-9{fill:#44f5a0;}.cls-10{clip-path:url(#clip-path);}.cls-11{fill:#f7ec17;}.cls-12,.cls-20{stroke:#ddcd00;}.cls-12,.cls-16,.cls-20,.cls-29,.cls-31{stroke-miterlimit:10;}.cls-12{stroke-width:1.61px;}.cls-13{fill:#33d08c;}.cls-14{fill:#ddcd00;}.cls-15{fill:#1b8b79;}.cls-16,.cls-29{stroke:#33d08c;}.cls-16{stroke-linecap:round;stroke-width:1.68px;}.cls-17{fill:#891b6a;}.cls-18{fill:#aa1a88;}.cls-19{fill:#c1983d;}.cls-20,.cls-29{stroke-width:1.68px;}.cls-21{fill:#520551;}.cls-22{clip-path:url(#clip-path-2);}.cls-23{clip-path:url(#clip-path-3);}.cls-24{fill:#f5faff;}.cls-25{fill:#9629ff;}.cls-26{fill:#023533;}.cls-27{clip-path:url(#clip-path-4);}.cls-28{clip-path:url(#clip-path-5);}.cls-30{clip-path:url(#clip-path-6);}.cls-31{stroke:#662d91;stroke-width:2.3px;}.cls-32{fill:#662d91;}</style><radialGradient id="radial-gradient" cx="393.23" cy="291.28" r="292.4" gradientTransform="translate(-0.12)" gradientUnits="userSpaceOnUse"><stop offset="0" stop-color="#fd7922"/><stop offset="0.17" stop-color="#fd7922" stop-opacity="0.78"/><stop offset="0.39" stop-color="#fd7922" stop-opacity="0.51"/><stop offset="0.6" stop-color="#fd7922" stop-opacity="0.29"/><stop offset="0.78" stop-color="#fd7922" stop-opacity="0.13"/><stop offset="0.91" stop-color="#fd7922" stop-opacity="0.04"/><stop offset="1" stop-color="#fd7922" stop-opacity="0"/></radialGradient><clipPath id="clip-path"><path class="cls-1" d="M926.31,348.83s48.87,36.42,59,101.43c3.17,20.32-5.61,23.83-11.13,25.82-12.14,4.38-31.36-17.92-34.35-21.27-4.36-4.86-25.06-24.63-34.36-33.32-12.12-11.32-23.06-31.69-17.94-44.81,0,0,17.46,12.59,26.17,2.29S912.76,357.54,926.31,348.83Z"/></clipPath><clipPath id="clip-path-2"><path class="cls-1" d="M852.22,186.52c-4.59,4.24-10.73,18-13.74,24.13-5.39,11.07-11.64,17.65-22.1,17.65s-16.55-6.71-22-17.54c-3.13-6.18-9.15-19.84-13.91-24.24C768,175,763.6,158.75,766.31,141c4.53-29.56,20.68-43,50.07-43s46.31,14.13,50.07,43C868.76,158.77,864.57,175.11,852.22,186.52Z"/></clipPath><clipPath id="clip-path-3"><path class="cls-1" d="M803.28,148.78c3.36,7.8,2.8,14.86-.8,18.27-6.48.58-18.15-1.66-22.42-9-3.36-5.77-5.16-13.28.74-19.1C788.07,136.43,799.92,141,803.28,148.78Z"/></clipPath><clipPath id="clip-path-4"><path class="cls-1" d="M829.48,148.78c-3.36,7.8-2.8,14.86.8,18.27,6.48.58,18.16-1.66,22.42-9,3.36-5.77,5.16-13.28-.74-19.1C844.69,136.43,832.84,141,829.48,148.78Z"/></clipPath><clipPath id="clip-path-5"><path class="cls-1" d="M765.54,147.22c-.25,5.17,4.88,9.39,4.36,10.38-.4.78-2.17.74-4.31.36-5.64-1-17.63-2.8-19.44-12.12-2.64-13.59,16.83-19.7,23.87-19.56C767.59,133.12,766.51,139.44,765.54,147.22Z"/></clipPath><clipPath id="clip-path-6"><path class="cls-1" d="M867.22,147.22c.25,5.17-4.87,9.39-4.36,10.38.4.78,2.17.74,4.31.36,5.64-1,17.64-2.8,19.45-12.12,2.64-13.59-16.84-19.7-23.88-19.56C865.17,133.12,866.25,139.44,867.22,147.22Z"/></clipPath></defs><g id="sky"><g id="clouds"><polygon class="cls-2" points="989.24 165.01 493.61 213.1 432.45 213.1 670.36 166.39 256.33 141.38 567.12 88.44 320.15 46.27 762.36 0.01 565.94 47.38 820.64 84.14 661.07 119.21 989.24 165.01"/><polygon class="cls-2" points="0 684.77 126.47 646.53 126.47 663.57 0 684.77"/><polygon class="cls-2" points="949.27 482.36 391.98 570.42 418.5 573.46 172.5 573.46 171.39 574.56 162.05 573.3 302.28 529.75 613.6 529.75 659.71 483.64 659.71 414.82 949.27 482.36"/><polygon class="cls-2" points="659.71 392.04 659.71 391.78 172.5 391.78 148.09 416.18 14.56 387.39 466.89 351.06 613.6 351.06 626.41 338.25 1103 299.97 659.71 392.04"/><path class="cls-2" d="M817.6,675.12l106.49,14.53L672,739.15q-30-1.89-60.19-2.85l140.32-44.51L645.45,679.58l7.5-7.5,392.28-65.79Z"/></g><path id="planet" class="cls-3" d="M367.53,63.12A138,138,0,1,1,106.81,0H352.26A137,137,0,0,1,367.53,63.12Z"/><g id="stars"><path class="cls-4" d="M277.28,210.91a5.82,5.82,0,0,1-.44,2.19H266.22a5.82,5.82,0,0,1-.44-2.19,5.75,5.75,0,1,1,11.5,0Z"/><circle class="cls-4" cx="118.43" cy="487.99" r="5.75"/><circle class="cls-4" cx="512.86" cy="94.83" r="5.75"/><circle class="cls-4" cx="696.7" cy="327.86" r="9.2"/><circle class="cls-4" cx="983.54" cy="647.07" r="9.2"/><circle class="cls-4" cx="627.34" cy="10.52" r="9.2"/><circle class="cls-4" cx="98.12" cy="552.73" r="9.2"/><circle class="cls-4" cx="1050.98" cy="412.97" r="5.75"/><circle class="cls-4" cx="557.25" cy="545.7" r="5.75"/></g></g><g id="land"><path id="land-2" data-name="land" class="cls-5" d="M1059.21,896.64c1.61,24.65-250.31,103.47-487.82,103.36-203-.09-389.41-34-388.19-62.06.62-14.44,51-34.29,50-44.61-1.79-19-162.78-20.37-164.06-36.54-.79-10,47.73-17.89,47.2-30.42C115.9,816.3,86.77,812,34.62,807.84a1879.77,1879.77,0,0,1,1034.11,0c-70.82,22.24-99.86,32.08-98.6,47.83C971.6,873.88,1058.22,881.21,1059.21,896.64Z"/><g id="highlight"><polygon class="cls-6" points="299.13 861.43 448.91 861.43 368.81 878.59 635.52 889.72 500.65 911.79 551.92 948.39 267.01 911.79 385.95 898.22 299.13 861.43"/><polygon class="cls-6" points="444.3 764.79 505.17 771.15 451.27 779.01 568.06 783.8 373.62 812.06 433.93 794.02 413.95 777.2 444.3 764.79"/></g><g id="shadows"><ellipse id="shadow" class="cls-7" cx="816.45" cy="871.75" rx="153.69" ry="28.79"/><ellipse id="shadow-2" data-name="shadow" class="cls-7" cx="568.06" cy="866.89" rx="25.95" ry="4.86"/><ellipse id="shadow-3" data-name="shadow" class="cls-7" cx="593.35" cy="866.12" rx="16.42" ry="3.08"/><ellipse id="shadow-4" data-name="shadow" class="cls-7" cx="628.67" cy="797.21" rx="93.28" ry="6.38"/><path id="shadow-5" data-name="shadow" class="cls-7" d="M216.43,815.17c-20.63,0-37.34-2-37.34-4.48,0-2.25,13.77-4.12,31.73-4.44Z"/></g><g id="rocks"><g id="rocks-2" data-name="rocks"><g id="rock"><path class="cls-7" d="M373.62,715.91l-29.34,84.23q-28.77,2.48-57.28,5.7c-1.06.11-2.12.23-3.17.37s-2.3.25-3.45.39Q250,810.08,220,814.32l-3.6.85-43-68.5,90,33,10.11-34.08,23.09,34.15Z"/><polygon class="cls-4" points="173.41 746.67 254.59 809.28 263.41 779.65 173.41 746.67"/><path class="cls-4" d="M296.61,779.72l-12.78,26.49c-1.15.11-2.3.25-3.45.39l-6.86-61Z"/><path class="cls-8" d="M373.62,715.91,287,805.84c-1.06.11-2.12.23-3.17.37l12.78-26.49Z"/></g><g id="rock-2" data-name="rock"><path class="cls-7" d="M415.51,750.24l-23.73,46.24c-3.63.23-7.24.48-10.85.76-1.1.07-2.23.14-3.34.23l-1.79.14q-23.49,1.73-46.79,3.9l-16.17-66.17,41.07,35.8,12.19-15.75,13.47,26.3Z"/><polygon class="cls-4" points="353.91 771.15 341.83 786.77 312.84 735.33 353.91 771.15"/><path class="cls-4" d="M379.57,781.69l-2,15.78-1.79.14-9.7-42.22Z"/><path class="cls-8" d="M415.51,750.24l-34.58,47c-1.1.07-2.23.14-3.34.23l2-15.78Z"/></g></g><g id="rocks-3" data-name="rocks"><g id="rock-3" data-name="rock"><path class="cls-7" d="M675.78,728.85,658,793.51q-36.22-1.62-72.78-2.14l-21.11-70.84,35.94,40.91,16.28-52.78,24-24,14.26,55.28Z"/><polygon class="cls-4" points="654.61 739.94 632.78 781.79 632.78 692.22 640.35 684.66 654.61 739.94"/><polygon class="cls-8" points="675.77 728.86 632.78 781.8 654.6 739.94 675.77 728.86"/><polygon class="cls-4" points="564.12 720.52 594.68 778.85 600.05 761.42 564.12 720.52"/></g><g id="rock-4" data-name="rock"><path class="cls-7" d="M761.76,674.2l-39.83,123c-8.58-.62-17.15-1.19-25.77-1.7a.13.13,0,0,0-.12,0s-.07,0-.11,0q-19.77-1.2-39.67-2.07l-19.64-56.33,39.16,23.73L683.46,739l19.18,14.81Z"/><polygon class="cls-4" points="675.77 760.82 667.66 783.8 636.63 737.08 675.77 760.82"/><path class="cls-4" d="M702.64,753.8,696,795.51s-.07,0-.11,0L683.46,739Z"/><path class="cls-8" d="M761.76,674.2l-65.6,121.31a.13.13,0,0,0-.12,0l6.6-41.71Z"/></g></g></g></g><g id="character"><g id="character-2" data-name="character"><g id="character-3" data-name="character"><g id="right_arm" data-name="right arm"><path id="l-arm" class="cls-9" d="M854.51,284.94a10,10,0,0,0,.83,1.75c5.22,9.22,10.25,18.51,15.21,27.83l7.31,14.07,7.19,14.11c4.66,9.45,9.44,18.88,13.86,28.45s8.61,19.27,12.16,29.26c2.06,5.83,8.83,8.74,15.6,6.89a12.08,12.08,0,0,0,1.59-.49c7.25-2.76,11.34-10.09,9.12-16.39a14.06,14.06,0,0,0-.84-1.8c-5.4-9.12-10.11-18.57-14.62-28.1s-8.65-19.26-12.89-28.91L902.82,317l-6.05-14.64c-4-9.78-7.86-19.62-11.54-29.53-2.74-7.34-11.83-10.58-20.3-7.24a19.06,19.06,0,0,0-4.84,2.76C854.79,272.57,852.35,279.16,854.51,284.94Z"/><g id="l-forearm"><g class="cls-10"><rect class="cls-11" x="898.44" y="340.84" width="74.91" height="146.08" transform="translate(1952.17 293.98) rotate(149.41)"/><path class="cls-12" d="M905.46,364.46s-7.71,28,9.58,48.74c14.57,17.51,32.31,29.72,39.41,38.48,6.61,8.16,27.75,23.58,27.75,23.58l-44.69,17.16-58.68-85.29-5.62-36.28Z"/></g></g><g id="l-hand"><path class="cls-13" d="M976,492.53s-2.9,3.51-2.9,6.9,1.21,5.08,2.9,4.95,7.87-8,7.87-8l-4.48-8.59Z"/><path class="cls-9" d="M953.36,499.57c5.44,3.33,6.33-1.47,7.39-9,.57-4.06,4.13-4.79,7.34-3.6,4.36,1.61,6.84,9.57,6.84,13.8,0,6,3.15,7.73,6.78,6,4.39-2.05,3.31-11.13,3.31-11.13,1.08-2.06,1.91-3.72,2.55-5.22,1.81-4.17,2.14-7.07,2.13-13.29-.05-9.45-1.77-20.73-4.36-26.9-4.36-10.34-22.25-12.41-22.25-12.41C943.24,463,944.65,494.25,953.36,499.57Z"/><path class="cls-13" d="M982.2,475.26A78.53,78.53,0,0,1,985,495.68c1.08-2.06,1.91-3.72,2.55-5.22A43.28,43.28,0,0,0,982.2,475.26Z"/></g></g><g id="left_arm" data-name="left arm"><path id="r-arm" class="cls-9" d="M778.74,284.94a10,10,0,0,1-.83,1.75c-5.22,9.22-10.25,18.51-15.21,27.83l-7.31,14.07L748.2,342.7c-4.66,9.45-9.44,18.88-13.86,28.45s-8.61,19.27-12.16,29.26c-2.06,5.83-8.83,8.74-15.6,6.89a12.08,12.08,0,0,1-1.59-.49c-7.25-2.76-11.34-10.09-9.12-16.39a14.06,14.06,0,0,1,.84-1.8c5.4-9.12,10.11-18.57,14.62-28.1s8.65-19.26,12.89-28.91L730.43,317l6.05-14.64c4-9.78,7.86-19.62,11.54-29.53,2.74-7.34,11.83-10.58,20.3-7.24a19.06,19.06,0,0,1,4.84,2.76C778.46,272.57,780.89,279.16,778.74,284.94Z"/><path class="cls-11" d="M710.09,419.67s-19.84,10-50.4,6.56V391.55H594.91a21.35,21.35,0,0,1,1.27-6.28c4-12.18,33.15-13.65,37.59-14,6.46-.43,34.59-4.62,47.05-6.62,16.28-2.6,28.83.21,39.2,7.75,6.12,4.44,9.75,6.28,12.54,19.38S711.52,403.74,710.09,419.67Z"/><path class="cls-14" d="M731.31,386.86C720.46,382.08,703.61,376,688.2,376a50.36,50.36,0,0,0-6.78.44c-8.44,1.13-16.77,2.46-24.12,3.63-12.35,2-23,3.66-30,3.8-8.27.16-25.2,4.57-32.35,6.51a10.13,10.13,0,0,0-.07,1.67c6.76-1.83,24.28-6.43,32.45-6.59,7.06-.14,17.77-1.84,30.19-3.82,7.33-1.17,15.66-2.51,24.07-3.63,17.23-2.3,38.1,5.4,50.25,10.85C731.68,388.15,731.5,387.48,731.31,386.86Z"/><path class="cls-9" d="M632.9,388.22c-.16.92-.42,2-.78,3.33H579.37c1.81-6.09,5.63-11.27,10.39-13.2,8.4-3.4,23.94-1.93,29.53-1.26l2,.27S630.48,380.88,632.9,388.22Z"/></g><path class="cls-15" d="M839.86,143V143l0,.43.07,1.05c0,.72.11,1.5.18,2.28.15,1.56.31,3.2.52,4.83.45,3.27.94,6.6,1.6,9.92s1.43,6.63,2.32,9.91c.41,1.65.91,3.27,1.38,4.91s1,3.26,1.59,4.86c1.09,3.23,2.35,6.39,3.67,9.54.71,1.55,1.37,3.14,2.13,4.67l1.1,2.31,1.19,2.27a120.79,120.79,0,0,0,11.08,17.45c1.08,1.36,2.11,2.79,3.26,4.11s2.23,2.71,3.44,4l1.79,2,2.17,2.33,4.39,4.73c1.48,1.54,2.86,3.24,4.24,4.91s2.77,3.34,4.12,5,2.6,3.53,3.89,5.29l1.9,2.66c.62.89,1.2,1.85,1.79,2.77a103.88,103.88,0,0,1,11.8,23.84c.72,2.13,1.3,4.34,1.85,6.52a60.79,60.79,0,0,1,1.15,6.74,32.56,32.56,0,0,1,.26,3.44c0,1.15.08,2.29,0,3.47,0,.58,0,1.15-.1,1.74l-.22,1.76c-.06.57-.21,1.2-.32,1.78,0,.29-.14.61-.23.93l-.29,1.07a3,3,0,0,1-5.5.73L905,305.42c0-.06-.06,0-.09-.14l-.08-.28-.17-.58c-.14-.42-.22-.8-.4-1.23l-.46-1.24-.54-1.24a25.58,25.58,0,0,0-1.16-2.43c-.22-.4-.39-.8-.63-1.19l-.71-1.18c-.85-1.57-2-3.07-3-4.56-.52-.74-1.13-1.47-1.67-2.19s-1-1.46-1.69-2.15a123.06,123.06,0,0,0-15.72-15.57c-.7-.61-1.37-1.23-2.1-1.81l-2.22-1.74c-1.47-1.16-2.89-2.34-4.37-3.48s-3.06-2.22-4.56-3.33l-2.26-1.66c-.74-.57-1.57-1.06-2.34-1.61l-4.67-3.19L853.87,253l-2.76-2c-1.86-1.31-3.64-2.72-5.42-4.15s-3.52-2.91-5.24-4.43c-3.43-3-6.7-6.29-9.85-9.66s-6.1-6.94-8.86-10.66a144.84,144.84,0,0,1-14.52-23.67c-2.06-4.15-3.89-8.42-5.54-12.75s-3.12-8.74-4.33-13.23-2.31-9-3.09-13.7c-.38-2.34-.77-4.68-1-7.11-.13-1.22-.25-2.44-.34-3.72l-.14-2,0-1.07,0-1.43a23.59,23.59,0,1,1,47.17-.49Z"/><path class="cls-16" d="M839.47,152.12s-2.71,1.11-6.73,2.53a100,100,0,0,1-14.67,4.15,69.61,69.61,0,0,1-15.24.9,64.12,64.12,0,0,1-7.26-.72"/><path class="cls-16" d="M841.59,165.92s-2.47,1.4-6.15,3.24a88.81,88.81,0,0,1-13.51,5.62,64.77,64.77,0,0,1-14.46,2.48,63.65,63.65,0,0,1-7,.07"/><path class="cls-16" d="M845.15,179.6s-2.21,1.64-5.45,3.8a81.43,81.43,0,0,1-12.14,6.84,59.21,59.21,0,0,1-13.43,3.81,58.15,58.15,0,0,1-6.69.75"/><path class="cls-16" d="M850.14,192.88s-1.85,1.81-4.66,4.24a71.73,71.73,0,0,1-10.55,7.82,56.34,56.34,0,0,1-18.42,6.31"/><path class="cls-16" d="M856.58,205.59s-1.5,1.95-3.77,4.55a62.94,62.94,0,0,1-8.79,8.51,46.9,46.9,0,0,1-10.77,5.88,48.79,48.79,0,0,1-5.71,1.88"/><path class="cls-16" d="M864.53,217.57s-1.1,2-2.84,4.68a52.35,52.35,0,0,1-7,8.87,39.47,39.47,0,0,1-9.25,6.51,43.28,43.28,0,0,1-5.12,2.3"/><path class="cls-16" d="M874,228.66l-.52,1.33c-.3.86-.74,2.07-1.33,3.44a35.49,35.49,0,0,1-5.3,8.83,39.89,39.89,0,0,1-7.77,6.67c-1.21.83-2.27,1.5-3,1.95s-1.29.66-1.29.66"/><path class="cls-16" d="M885.85,241.47a36.21,36.21,0,0,1-1.76,4.31,28.29,28.29,0,0,1-5.13,7.6,33.12,33.12,0,0,1-7.5,5.32c-2.34,1.27-4.13,2-4.13,2"/><path class="cls-16" d="M896.74,255.43a31.46,31.46,0,0,1-1.75,3.8,21.73,21.73,0,0,1-4.93,6.29,25.81,25.81,0,0,1-7,3.76c-2.19.83-3.87,1.28-3.87,1.28"/><path class="cls-16" d="M905.74,271a24,24,0,0,1-1.68,3.16,14.1,14.1,0,0,1-4.41,4.7,18,18,0,0,1-6.19,1.93c-2,.31-3.47.41-3.47.41"/><path class="cls-16" d="M911.57,288.35a19.9,19.9,0,0,1-1.49,2.45,7.83,7.83,0,0,1-3.54,3,9.6,9.6,0,0,1-4.51-.17c-1.5-.29-2.69-.61-2.69-.61"/><g id="torso"><path class="cls-15" d="M855,380.53c0-20.39-17.46-39-39-39s-39,18.66-39,39c3.45,8.39,11,16.78,39,16.78S850.19,391.9,855,380.53Z"/><path class="cls-17" d="M859.13,433.52a81.91,81.91,0,0,1,8.63,17.1c-2.17,5.22-16.85,15.4-21.93,22.93-8.19,12.14-6.21,28.59-15.94,36.06-3.24,2.49-8,4-13.95,4s-10.68-1.36-13.89-3.69c-9.63-7-7.51-22.65-16-36.35-4.71-7.61-19.91-17.37-22.22-22.93,4.63-8.75,8.92-17.1,8.92-17.1Z"/><path class="cls-17" d="M852.1,400.66c0-26.09,29.25-77.33,15.92-141.06-26.38-9.68-79.62-9.53-104,0C750.44,320.07,780,373.45,780,400.66c0,.83,0,1.7.1,2.59-2.06,18.47-11.38,37.68-11.38,37.68s30.84,25.33,46.46,53.84c15.49-28.87,47.74-53.84,47.74-53.84s-8.61-17.73-11.11-35.5A42.2,42.2,0,0,0,852.1,400.66Z"/><path class="cls-18" d="M844.21,369.39c5.19-15.64,16.19-33.72,18-50.1a238.15,238.15,0,0,0,1.24-34.82c-.22-6.45-.69-13-2.51-19.16s-3.3-7.75-10-11.82L816,288.64l-34-35.15c-5,2.4-8.61,5.63-10.43,11.82s-2.29,12.71-2.52,19.16a238.16,238.16,0,0,0,1.25,34.82c1.84,16.38,12.84,34.46,18,50.1,2.18,6.55,27.58,80.1,27.58,80.1S842,375.94,844.21,369.39Z"/><path class="cls-13" d="M834.6,236.61s-6.1-3.74-18.67-3.75c-12.73,0-18.67,3.73-18.67,3.73l2.18-19s4-1.09,16.49-1.08c12.33,0,15.85,1,15.85,1Z"/><path class="cls-19" d="M842.32,241c2.79-26.83-43.18-19.18-48.37-11.74-1.6,2.3-4.79,19.82,0,23.76C806.71,263.46,840.29,260.47,842.32,241Z"/><polygon class="cls-13" points="784.4 252.34 815.25 248.8 845.93 251.86 816.29 287.61 784.4 252.34"/><path class="cls-13" d="M833.06,276.34s-4.69,12.3-17,12.3-17-12.3-17-12.3,1.74-12.59,1.74-36-1.2-42.67-1.2-42.67h33s-1.19,19.3-1.19,42.67S833.06,276.34,833.06,276.34Z"/><path class="cls-11" d="M816.94,289.47s0,.1.08.16c-3.35.28-6.6-1.16-9.47-2.9a63.45,63.45,0,0,1-13.42-11.55A73.43,73.43,0,0,1,782.43,259a40.18,40.18,0,0,1-4.7-19.25,22.17,22.17,0,0,1,3.59-12.06c3.93-5.64,11.22-8.73,17.77-10.08.57-.12,1.12-.22,1.63-.3q0,3.54,0,7.26c0,3.35,0,23-.1,25.89,0,.1-4.56,2-3.3,6.3a50.5,50.5,0,0,0,5.09,12.43c2.26,4,4.85,8.57,7.49,12.34C811.87,284.3,815.43,286.55,816.94,289.47Z"/><path class="cls-11" d="M815.33,289.47s-.05.1-.07.16c3.34.28,6.59-1.16,9.46-2.9a63.2,63.2,0,0,0,13.42-11.55A73.11,73.11,0,0,0,849.84,259a40.18,40.18,0,0,0,4.7-19.25A22.24,22.24,0,0,0,851,227.7c-3.94-5.64-11.23-8.73-17.77-10.08-.57-.12-1.13-.22-1.64-.3,0,2.36,0,4.78,0,7.26,0,3.35,0,23.28.1,26.18,0,.09,4.56,1.68,3.3,6a50.12,50.12,0,0,1-5.09,12.43c-2.26,4-4.84,8.57-7.49,12.34C820.4,284.3,816.84,286.55,815.33,289.47Z"/><path class="cls-11" d="M791,250.76s-31.53,23.39-27,77.82c0,0-30.3-51.27-16.22-69.65C760.66,255.7,791,250.76,791,250.76Z"/><path class="cls-11" d="M841.28,250.76s31.53,23.39,27,77.82c0,0,30.3-51.27,16.22-69.65C871.61,255.7,841.28,250.76,841.28,250.76Z"/></g><g id="left_leg" data-name="left leg"><g id="l-calf"><path class="cls-17" d="M805.88,830.69c-.18,6-63.5-5.85-63.5-5.85s1.48-42,2-54.88c1.72-47.47-2.63-129.34-2.63-129.34s30.78-6.48,37.68-6.4c3.55,0,6.46.71,7.17,2.64,14.82,41,13.86,60.68,13.52,88.39a418.3,418.3,0,0,0,3.68,65.46C805.46,803.55,805.89,830.21,805.88,830.69Z"/><path class="cls-11" d="M813.62,879.41a37.1,37.1,0,0,1-16.46-1.83l0,0a34.94,34.94,0,0,1-15.26-10.4c-10.53,3.69-14.17,9.79-20.41,13.82-3.77,2.44-8.49,4.13-16.27,4.06-9.88-.08-16.8-.42-17.26-4.41a29.17,29.17,0,0,1,.17-7.17,28.62,28.62,0,0,1,.53-2.84s-13.94,6.77-26.22,5.79c-.81-.06-1.62-.15-2.39-.23A59.8,59.8,0,0,1,681.54,871c-4.12-18.6,41.2-34.76,49.56-47.55,11.84-18.09,13.57-91,13.57-91s3.81,23,18.72,37.52c27.33-22.66,36.68-44.73,36.68-44.73,0,1.62,2.41,41.35,6.88,85,2.27,22.36,7.38,35.33,11.23,43.84C823.46,865.83,821,878.64,813.62,879.41Z"/><path class="cls-20" d="M763.39,770s-.37,42.31-6.52,57.4-21.1,27.53-17.39,57.54"/></g><g id="l-thigh"><path class="cls-9" d="M760.47,456.54s-27.64,38.23-32.11,53.32,2.8,11.18,2.8,18.45-2.35,8.38-4.25,22.36c-1,7.15,4.84,7,10.76,5.11-2.55,5.83-4.47,11.58-3.72,14.45,1.87,7.09,14.54,0,14.54,0l-1.17-18.61c1.07-.57,1.73-1,1.73-1Z"/><path class="cls-17" d="M812.09,488.76C790.32,577,787.47,640,787.47,640s-6.14,16.4-20.09,18.88c-20.67,3.68-25.68-18.25-25.68-18.25s-3.45-32.25-1.06-84.54c1.09-24,3.78-51,14.45-86.13,4.13-13.61,12.49-26.16,14.73-29.59,9-13.86,22.94-7,22.94-7S819.92,457,812.09,488.76Z"/><path class="cls-21" d="M751.2,651.91a18.38,18.38,0,0,0,6.34,4.62,16.1,16.1,0,0,0,1.72.62,5.31,5.31,0,0,0,1.52.29,1.69,1.69,0,0,0,.93-.26,4.15,4.15,0,0,0,1-.9,11.36,11.36,0,0,0,1-1.45c.36-.54.68-1.1,1-1.66.66-1.12,1.27-2.28,1.85-3.46,1.17-2.37,2.15-4.86,3.18-7.54a19.4,19.4,0,0,1-.3,8.57,22.66,22.66,0,0,1-1.45,4.12,18.75,18.75,0,0,1-2.32,3.91,7.34,7.34,0,0,1-2.13,1.78,5.4,5.4,0,0,1-3.07.56,7.74,7.74,0,0,1-2.46-.78,12.31,12.31,0,0,1-2-1.16A11.5,11.5,0,0,1,751.2,651.91Z"/></g></g><g id="right_leg" data-name="right leg"><g id="r-calf"><path class="cls-17" d="M826.39,830.69c.18,6,63.5-5.85,63.5-5.85s-1.47-42-1.94-54.88c-1.73-47.47,2.63-129.34,2.63-129.34s-30.79-6.48-37.68-6.4c-3.55,0-6.47.71-7.17,2.64-14.83,41-13.87,60.68-13.53,88.39a418.3,418.3,0,0,1-3.68,65.46C826.82,803.55,826.38,830.21,826.39,830.69Z"/><path class="cls-11" d="M887.6,732.45s1.73,72.94,13.57,91c8.37,12.79,53.68,29,49.55,47.55a60.77,60.77,0,0,1-20.87,5.38c-12.27,1-26.21-5.81-26.21-5.81a31.63,31.63,0,0,1,.69,10c-.46,4-7.39,4.33-17.25,4.41-20.62.17-19.78-12-36.68-17.88a36.09,36.09,0,0,1-31.75,12.25c-7.32-.77-9.84-13.57-4.55-25.28,3.84-8.5,8.95-21.46,11.23-43.83,4.65-45.52,7-86.72,6.87-85,0,0,9.36,22.08,36.68,44.74C883.79,755.46,887.6,732.45,887.6,732.45Z"/><path class="cls-20" d="M868.89,770s.37,42.31,6.52,57.4,21.1,27.53,17.39,57.54"/></g><g id="r-thigh"><path class="cls-9" d="M871.41,456.54s27.64,38.23,32.11,53.32-2.79,11.18-2.79,18.45,2.35,8.38,4.25,22.36c1,7.15-4.85,7-10.76,5.11,2.55,5.83,4.47,11.58,3.71,14.45-1.86,7.09-14.53,0-14.53,0l1.17-18.61c-1.07-.57-1.73-1-1.73-1Z"/><path class="cls-17" d="M820.18,488.76C842,577,844.8,640,844.8,640s6.15,16.4,20.1,18.88c20.67,3.68,25.68-18.25,25.68-18.25s3.44-32.25,1.06-84.54c-1.1-24-3.79-51-14.46-86.13-4.13-13.61-12.49-26.16-14.72-29.59-9.05-13.86-22.94-7-22.94-7S812.35,457,820.18,488.76Z"/><path class="cls-21" d="M866.24,644.35c1,2.51,1.92,4.94,2.89,7.31a7.87,7.87,0,0,0,1.6,2.73,3.34,3.34,0,0,0,2.29.88,10.78,10.78,0,0,0,3.23-.43,16.2,16.2,0,0,0,3.27-1.26,33.23,33.23,0,0,0,6.25-4.36A14.31,14.31,0,0,1,881.1,656a13.4,13.4,0,0,1-3.77,2.16,11.53,11.53,0,0,1-4.49.78,7.36,7.36,0,0,1-2.53-.58,6.26,6.26,0,0,1-2.16-1.64,9.05,9.05,0,0,1-1.79-4.27A23.63,23.63,0,0,1,866.24,644.35Z"/></g></g><g id="head"><g class="cls-22"><rect class="cls-9" x="763.01" y="92.89" width="106.74" height="139.2"/><path class="cls-11" d="M794.44,102.61a1.09,1.09,0,0,0-.11.86,1.65,1.65,0,0,0,.36.42,10.87,10.87,0,0,0,1.89,1.61,33.8,33.8,0,0,0,6.76,3.34c2.51,1,5.16,1.79,7.85,2.52,1.34.37,2.69.71,4,1l2,.46c.65.13,1.39.29,1.94.37l-6.07.07c1.19-.22,2.63-.58,3.94-.91s2.69-.71,4-1.1c2.67-.78,5.3-1.65,7.81-2.63a37.15,37.15,0,0,0,6.83-3.38,12.38,12.38,0,0,0,2-1.66,2,2,0,0,1,.39-.29c.1-.07.15-.3,0-.65l-.38-.86a2.91,2.91,0,0,1,4.83-3.11,7.37,7.37,0,0,1,1.71,3.22,7,7,0,0,1-.2,3.73,12.75,12.75,0,0,1-3.11,4.77,39.89,39.89,0,0,1-7.53,5.71c-2.6,1.58-5.24,3-7.93,4.29s-5.36,2.5-8.19,3.64l-1,.42-1.07-.39c-2.89-1.08-5.6-2.24-8.35-3.51a87.43,87.43,0,0,1-8.07-4.22,36.48,36.48,0,0,1-7.64-5.83,11.75,11.75,0,0,1-3-5,7.14,7.14,0,0,1,0-3.67,7.86,7.86,0,0,1,1.65-3.07,2.93,2.93,0,0,1,4.89,3.12Z"/></g><g class="cls-23"><rect class="cls-24" x="773.71" y="133.59" width="37.59" height="36.76" transform="translate(1585.02 303.95) rotate(-180)"/><circle class="cls-25" cx="791.72" cy="146.5" r="12.87"/><circle cx="791.72" cy="146.5" r="6.44"/><path class="cls-26" d="M803,170.07s8.61-17.89-8.3-27.39c-2.25-1.26-8.77-2.17-11.31-.91-1.69,1.19-3.51,2.49-3.58,8.91-.06,5.32,2.74,9.94,6.7,13.17l-11.28-3.28-4.66-37.64L800,124.42l14.45,42.7Z"/></g><g class="cls-27"><rect class="cls-24" x="821.46" y="133.59" width="37.59" height="36.76"/><circle class="cls-25" cx="841.04" cy="146.5" r="12.87"/><circle cx="841.04" cy="146.5" r="6.44"/><path class="cls-26" d="M829.79,170.07s-8.6-17.89,8.31-27.39c2.24-1.26,8.76-2.17,11.3-.91,1.7,1.19,3.51,2.49,3.58,8.91.06,5.32-2.74,9.94-6.7,13.17l11.28-3.28,4.66-37.64-29.44,1.49-14.46,42.7Z"/></g><path class="cls-15" d="M830.64,186.58s-6.94,7.81-13.71,7.81c-7,0-14.24-7.81-14.24-7.81a78.13,78.13,0,0,0,27.95,0Z"/><path class="cls-13" d="M775.87,131.44a12.87,12.87,0,0,1,4.67-4,17.59,17.59,0,0,1,6.13-1.85l1.63-.16h1.62l.82,0,.81.08,1.62.17c1.07.18,2.13.41,3.2.63l3.11.9a2.72,2.72,0,1,1-1.51,5.22,3.32,3.32,0,0,1-.55-.22l-.16-.1-2.49-1.37c-.85-.38-1.71-.79-2.58-1.14l-1.34-.46-.67-.23-.68-.16-1.38-.32-1.4-.18a15.56,15.56,0,0,0-5.67.41A12.24,12.24,0,0,0,775.87,131.44Z"/><path class="cls-13" d="M856.67,131.44a12.15,12.15,0,0,0-5.17-2.78,15.56,15.56,0,0,0-5.67-.41l-1.4.18-1.38.32-.68.16-.68.23-1.33.46c-.88.35-1.74.76-2.59,1.14l-2.48,1.37-.16.09a2.72,2.72,0,0,1-2.63-4.76,3,3,0,0,1,.56-.23l3.12-.9c1.07-.22,2.12-.45,3.19-.63l1.62-.17.81-.08.82,0h1.62l1.63.16a17.46,17.46,0,0,1,6.13,1.85A12.87,12.87,0,0,1,856.67,131.44Z"/><g class="cls-28"><path class="cls-15" d="M766.32,148.94c-.26,5.17,4.1,7.67,3.58,8.66-.4.78-1.59,2.75-3.67,2.11,0,0-20.65-3-21.16-10.6-1.73-25.81,28-25.44,34.8-22.83C771.37,133.42,768.15,140.07,766.32,148.94Z"/><path class="cls-29" d="M769,150.88s-4.55-7.81-12.61-4.66c-7.64,3-4,9.5,4.23,11.74"/><path class="cls-29" d="M770,148.36s0-7.93-7.06-11.37S745,139.68,745,146.56"/><path class="cls-29" d="M748.51,133.12s7.2-6.31,15-3.49c4.38,1.59,6.88,4.78,8.42,9.3"/><path class="cls-29" d="M773.47,125.77s6.4.51,6.4,7.7"/></g><g class="cls-30"><path class="cls-15" d="M866.45,148.94c.25,5.17-4.1,7.67-3.59,8.66.4.78,1.59,2.75,3.67,2.11,0,0,20.65-3,21.16-10.6,1.74-25.81-28-25.44-34.8-22.83C861.39,133.42,864.61,140.07,866.45,148.94Z"/><path class="cls-29" d="M863.72,150.88s4.55-7.81,12.61-4.66c7.64,3,4,9.5-4.23,11.74"/><path class="cls-29" d="M862.74,148.36s0-7.93,7.07-11.37,17.92,2.69,17.92,9.57"/><path class="cls-29" d="M884.26,133.12s-7.21-6.31-15-3.49c-4.38,1.59-6.88,4.78-8.42,9.3"/><path class="cls-29" d="M859.29,125.77s-6.4.51-6.4,7.7"/></g></g></g><g id="post"><polygon class="cls-17" points="593.26 144.54 605.13 156.4 605.13 168.31 593.43 180 581.56 168.13 581.56 156.25 593.26 144.54"/><rect class="cls-17" x="582.7" y="178.99" width="21.29" height="33.87"/><rect class="cls-17" x="582.7" y="350.83" width="21.29" height="40.72"/><rect class="cls-17" x="582.7" y="529.52" width="21.29" height="43.71"/><rect class="cls-17" x="582.7" y="711.19" width="21.29" height="154.84"/><rect id="shadow-6" data-name="shadow" class="cls-21" x="582.71" y="711.19" width="21.27" height="9.2"/><rect id="shadow-7" data-name="shadow" class="cls-21" x="582.71" y="529.52" width="21.27" height="9.2"/><rect id="shadowf" class="cls-21" x="582.71" y="350.83" width="21.27" height="9.2"/></g><path id="left_hand" data-name="left hand" class="cls-9" d="M614,388.31c-4.6.74-11.08-3.84-14.39-7.82a18.63,18.63,0,0,0-3.57-3,7.85,7.85,0,0,1,.4,2.33,7.59,7.59,0,0,1-4.42,6.9,7.59,7.59,0,0,1,4.12,4.8H571.89a7.6,7.6,0,0,1,5.66-5.33,7.61,7.61,0,0,1,4.16-14h6.95c-2.55-2.14-4.56-4.53-4.62-7.27-.19-6.87,8.3-4.09,16.46.12,0,0,15.8,7,20.83,12.27C625.86,382.15,618.62,387.57,614,388.31Z"/><g id="sign"><polygon class="cls-31" points="138.07 518.03 138.07 442.35 177.35 403.06 648.19 403.06 648.19 478.66 608.83 518.03 138.07 518.03"/><polygon class="cls-31" points="138.07 699.7 138.07 624.02 177.35 584.73 648.19 584.73 648.19 660.33 608.83 699.7 138.07 699.7"/><polygon class="cls-31" points="138.07 339.33 138.07 263.66 177.35 224.36 648.19 224.36 648.19 299.96 608.83 339.33 138.07 339.33"/><path class="cls-32" d="M179.58,448.9h-10v-8.72h30v8.72h-10v34h-10Z"/><path class="cls-32" d="M205,461.56c0-13.11,9-22.29,21.78-22.29s21.83,9.18,21.83,22.29-9,22.29-21.83,22.29C213.71,483.85,205,474.67,205,461.56Zm33.35-.06c0-8-4.39-13.28-11.57-13.28s-11.52,5.3-11.52,13.28,4.39,13.29,11.52,13.29S238.39,469.6,238.39,461.5Z"/><path class="cls-32" d="M283.19,448.9h-10v-8.72h30.05v8.72h-10v34h-10Z"/><path class="cls-32" d="M311.18,440.18h10v16.93H335V440.18h10v42.76H335V465.89H321.21v17.05h-10Z"/><path class="cls-32" d="M356.51,440.18H382v8.72H366.54v8.21h14.31v8.56H366.54v8.43h15.73v8.84H356.51Z"/><path class="cls-32" d="M440.36,448.9v34H430.27v-34h-9.75v34H410.43V440.18H460.2v42.76H450.11v-34Z"/><path class="cls-32" d="M469.78,461.56c0-13.11,9-22.29,21.78-22.29s21.83,9.18,21.83,22.29-9,22.29-21.83,22.29C478.45,483.85,469.78,474.67,469.78,461.56Zm33.35-.06c0-8-4.39-13.28-11.57-13.28S480,453.52,480,461.5s4.39,13.29,11.52,13.29S503.13,469.6,503.13,461.5Z"/><path class="cls-32" d="M520.92,461.56c0-13.11,9-22.29,21.78-22.29s21.83,9.18,21.83,22.29-9,22.29-21.83,22.29C529.59,483.85,520.92,474.67,520.92,461.56Zm33.35-.06c0-8-4.39-13.28-11.57-13.28s-11.52,5.3-11.52,13.28,4.39,13.29,11.52,13.29S554.27,469.6,554.27,461.5Z"/><path class="cls-32" d="M599.28,482.94,584,458.2h-.23v24.74h-9.63V440.18h10.26l15.16,24.74h.23V440.18h9.58v42.76Z"/><path class="cls-32" d="M255.3,664.61h-9.92V653.55h-11v11.06h-9.92V636.1c0-10.88,7.87-15.16,15.45-15.16s15.39,4.28,15.39,15.16Zm-20.92-19.73h11v-8.09c0-5-2.39-6.79-5.47-6.79s-5.53,1.83-5.53,6.79Z"/><path class="cls-32" d="M291.84,664.61,276.5,639.87h-.23v24.74h-9.63V621.85H276.9l15.16,24.74h.23V621.85h9.58v42.76Z"/><path class="cls-32" d="M313.42,664.61V621.85h14.94c12.77,0,22,8.32,22,21.38s-9.24,21.38-22,21.38ZM340,643.17c0-8-4.62-12.6-11.63-12.6h-4.85v25.2h4.85C335.37,655.77,340,651.15,340,643.17Z"/><path class="cls-32" d="M377.83,621.85h16.48c7.92,0,13.28,4.16,13.28,10.83,0,3.31-1.37,6.56-4.79,8.16l.06.22a21.65,21.65,0,0,1,3.59-.22H408v23.77H377.83Zm20.47,34v-9.07H387.81v9.07Zm-5.19-16.82a4.13,4.13,0,0,0,4.45-4.33,4,4,0,0,0-4.39-4.28h-5.3v8.61Z"/><path class="cls-32" d="M428.21,621.85h13.16l12.77,42.76H443.26l-2.17-8.27H428l-2.17,8.27H415.44Zm2.05,25.77h8.61l-4.17-16h-.22Z"/><path class="cls-32" d="M491.29,635.59a12.51,12.51,0,0,0-10.72-5.7c-7.07,0-11.57,5.3-11.57,13.28s4.5,13.29,11.57,13.29a12.72,12.72,0,0,0,10.72-5.71l6.56,5.93c-3.65,5.59-9.58,8.84-17.28,8.84-13.39,0-21.83-9.18-21.83-22.29s9-22.29,21.83-22.29c7.7,0,13.86,3.36,17.56,8.95Z"/><path class="cls-32" d="M505.9,621.85h10v17A13.16,13.16,0,0,0,518,639c5.88,0,9-3.93,9-9.75,0-2.33,0-5.18-.17-7.41h10c.11,2.28.17,4.73.17,6.79,0,8-3,14-9,17.1l11.57,18.87H527.51L517.87,648h-.62a10.17,10.17,0,0,1-1.32-.06v16.65h-10Z"/><path class="cls-32" d="M546.36,659.82a5.71,5.71,0,0,1,5.7-5.65,5.65,5.65,0,0,1,0,11.29A5.7,5.7,0,0,1,546.36,659.82Zm.85-38h9.92v27.76h-9.92Z"/><path class="cls-32" d="M221.53,261.49h10v42.75h-10Z"/><path class="cls-32" d="M261,261.49h10V295.4h13.74v8.84H261Z"/><path class="cls-32" d="M290.27,282.86c0-13.11,9-22.29,21.78-22.29s21.83,9.18,21.83,22.29-9,22.29-21.83,22.29C298.94,305.15,290.27,296,290.27,282.86Zm33.35-.05c0-8-4.39-13.29-11.57-13.29s-11.52,5.31-11.52,13.29,4.39,13.28,11.52,13.28S323.62,290.9,323.62,282.81Z"/><path class="cls-32" d="M364,304.24H350.84l-12.77-42.75H349l8.55,32.95h.23l8.66-32.95h10.38Z"/><path class="cls-32" d="M397.65,305.15c-9.86,0-15.9-5.3-15.9-12.6,0-5.47,2.73-9.12,7.52-10.83A10.06,10.06,0,0,1,383,272c0-6.9,5.82-11.41,14.94-11.41,6.55,0,10.6,2.68,12.6,4.91l-5.19,6.72a10.1,10.1,0,0,0-7.3-2.79c-3.93,0-5.53,1.77-5.53,4.1,0,2.74,2.45,4.68,7.07,4.68h5.82v8.38h-6.62c-4.39,0-6.84,1.82-6.84,4.67s2.17,5,6.16,5a9.9,9.9,0,0,0,7.35-2.62l5,6.56C409,302.13,405.12,305.15,397.65,305.15Z"/><path class="cls-32" d="M447.3,288.16l-14.25-26.67h11.23l8,16.93h.22l8-16.93h11.17l-14.36,26.79v16H447.3Z"/><path class="cls-32" d="M474.26,282.86c0-13.11,8.95-22.29,21.78-22.29s21.83,9.18,21.83,22.29-9,22.29-21.83,22.29C482.93,305.15,474.26,296,474.26,282.86Zm33.35-.05c0-8-4.39-13.29-11.57-13.29s-11.52,5.31-11.52,13.29,4.39,13.28,11.52,13.28S507.61,290.9,507.61,282.81Z"/><path class="cls-32" d="M537.55,261.49V295.4h12.77V261.49h10v42.75H527.51V261.49Z"/></g></g><g id="rock-5" data-name="rock"><polygon class="cls-7" points="546.83 867.14 525.9 800.64 563 830.09 571.77 808.27 578.17 832.9 621.11 796.92 590.09 867.14 546.83 867.14"/><polygon class="cls-4" points="525.9 800.64 555.37 849.04 563 830.09 525.9 800.64"/><polygon class="cls-4" points="578.17 832.9 568.06 861.8 571.77 808.27 578.17 832.9"/><polygon class="cls-8" points="621.11 796.92 568.06 861.8 578.17 832.9 621.11 796.92"/></g></g></svg>