<?xml version="1.0" encoding="utf-8"?>
<!-- Generator: Adobe Illustrator 26.0.0, SVG Export Plug-In . SVG Version: 6.00 Build 0)  -->
<svg version="1.1" id="Layer_1" xmlns="http://www.w3.org/2000/svg" xmlns:xlink="http://www.w3.org/1999/xlink" x="0px" y="0px"
	 viewBox="0 0 700 866.7" style="enable-background:new 0 0 700 866.7;" xml:space="preserve">
<style type="text/css">
	.st0{fill:none;stroke:#2E3191;stroke-width:2.8034;stroke-linecap:round;stroke-miterlimit:10;}
	.st1{fill:#D0A109;}
	.st2{fill:#04A65A;}
	.st3{fill:#FFC50B;}
	.st4{fill:#EC1E79;}
	.st5{fill:#1B1464;}
	.st6{fill:#D01A6B;}
	.st7{fill:#FF2081;}
	.st8{fill:#BE1862;}
	.st9{fill:#4AA6C0;}
	.st10{fill:#68DFE7;fill-opacity:0.5;}
	.st11{fill:#FFFFFF;}
	.st12{clip-path:url(#SVGID_00000169533984907591967180000017933383215631106698_);}
	.st13{fill:#328545;}
	.st14{fill:#2E3191;}
	.st15{clip-path:url(#SVGID_00000037652478419269399140000012672060989665180326_);}
	.st16{fill:#006837;}
	.st17{fill:#FFFFFF;fill-opacity:0.5;}
	.st18{fill:#FFF100;}
	.st19{fill:none;stroke:#2E3191;stroke-width:0.7965;stroke-linecap:round;stroke-miterlimit:10.0029;}
	.st20{fill:none;stroke:#2E3191;stroke-width:1.0029;stroke-linecap:round;stroke-miterlimit:10.0069;}
	.st21{fill:none;stroke:#2E3191;stroke-width:0.7962;stroke-linecap:round;stroke-miterlimit:10;}
	.st22{fill:none;stroke:#2E3191;stroke-width:1.0022;stroke-linecap:round;stroke-miterlimit:10;}
</style>
<g>
	<g transform="translate(-8 -700)">
		<path class="st0" d="M585.4,1108.6c52.9,23.3,87.8,79.5,83.9,135.2"/>
		<path class="st1" d="M653.7,1362.8c-1.3,2.4-1.9,5.2-2.2,7.8c-0.6,6.7,0.6,13.4,3.2,19.4c0.6,1.9,1.9,3.7,3.2,5.2
			c1.3,1.5,3.2,1.9,5.2,1.5c1.7-1.1,2.6-2.8,2.8-4.7c1.9-8.2,2.4-16.6,0.9-24.8C665.7,1358.7,657.3,1356.7,653.7,1362.8z"/>
		<path class="st1" d="M641.6,1349.8c-2.2,1.7-3.7,3.9-4.7,6.2c-3,6-4.5,12.5-4.3,19.4c0,2.2,0.4,4.1,1.3,6c0.6,1.7,2.4,3,4.3,3.2
			c1.7,0,3.2-1.7,4.5-3.7c4.9-6.7,8.4-14.2,10.5-22.4C654.3,1350.7,647.4,1346,641.6,1349.8z"/>
		<path class="st1" d="M674.1,1364.1c-1.3,2.4-1.9,5.2-2.2,7.8c-0.6,6.7,0.6,13.4,3.2,19.4c0.6,1.9,1.9,3.7,3.2,5.2
			c1.3,1.5,3.2,1.9,5.2,1.5c1.7-1.1,2.6-2.8,2.8-4.7c1.9-8.2,2.4-16.6,0.9-24.8C686.1,1359.8,677.8,1358,674.1,1364.1z"/>
		<path class="st2" d="M705.9,1249.1c0-5.4-16.1-9.7-36.1-9.7s-36.1,4.3-36.1,9.7h-0.2v89.4c0,20,16.1,36.2,36.1,36.2h0.2
			c20,0,36.1-16.2,36.1-36.2V1249.1z"/>
		<path class="st3" d="M685.9,1353.7c-0.9,3-0.9,6-0.2,9c1.1,7.1,4.1,13.6,8.8,19c1.3,1.7,3,3.2,5.2,4.3c1.9,1.1,4.3,0.9,6-0.6
			c1.7-1.5,1.7-4.3,1.7-6.2c0-9-1.7-18.1-5.2-26.5C698.2,1344,688.3,1346,685.9,1353.7z"/>
		<path class="st0" d="M130.6,1087.1c-52.9,23.3-87.8,79.5-83.9,135.2"/>
		<path class="st1" d="M62.4,1341.4c1.3,2.4,1.9,5.2,2.2,7.8c0.6,6.7-0.6,13.1-3.2,19.4c-0.6,1.9-1.9,3.7-3.2,5.2
			c-1.3,1.5-3.2,1.9-5.2,1.5c-1.7-1.1-2.6-2.8-2.8-4.7c-1.9-8.2-2.4-16.6-0.9-24.8C50.3,1337.1,58.7,1335.4,62.4,1341.4z"/>
		<path class="st1" d="M74.4,1328.5c2.2,1.7,3.7,3.9,4.7,6.2c3.2,6,4.5,12.5,4.3,19.4c0,2.2-0.4,4.1-1.3,6c-0.6,1.9-2.4,3.2-4.3,3.4
			c-1.7,0-3.2-1.7-4.5-3.7c-4.9-6.7-8.4-14.2-10.5-22.2C61.7,1329.4,68.6,1324.4,74.4,1328.5z"/>
		<path class="st1" d="M41.9,1342.5c1.3,2.4,1.9,5.2,2.2,7.8c0.6,6.7-0.6,13.1-3.2,19.4c-0.6,1.9-1.9,3.7-3.2,5.2
			c-1.3,1.5-3.2,1.9-5.2,1.5c-1.7-1.1-2.6-2.8-2.8-4.7c-1.9-8.2-2.4-16.6-0.9-24.8C29.9,1338.4,38.3,1336.5,41.9,1342.5z"/>
		<path class="st2" d="M82.2,1227.5c0-5.4-16.1-9.7-36.1-9.7c-20,0-36.1,4.3-36.1,9.7v89.4c0,20,16.1,36.2,36.1,36.2h0.2
			c20,0,36.1-16.2,36.1-36.2v-89.4H82.2z"/>
		<path class="st3" d="M30.1,1332.4c0.9,3,0.9,6,0.2,9c-1.1,7.1-4.1,13.6-8.8,19c-1.3,1.9-3,3.2-5.2,4.3c-1.9,1.1-4.3,0.9-6-0.6
			c-1.7-1.5-1.7-4.3-1.7-6.2c-0.2-9,1.7-18.1,5.2-26.7C17.8,1322.7,27.7,1324.4,30.1,1332.4z"/>
		<path class="st1" d="M177.4,1102.5c9.2,40.7,3.1,76.8-13.6,80.6c-16.7,3.8-37.7-26.2-46.8-66.9c-9.2-40.7-3.1-76.8,13.6-80.6
			S168.2,1061.8,177.4,1102.5z"/>
		<path class="st1" d="M585.4,1035.5c16.7,3.8,22.8,39.8,13.6,80.6c-9.2,40.7-30.1,70.7-46.8,66.9c-16.7-3.8-22.8-39.8-13.6-80.6
			S568.7,1031.7,585.4,1035.5z"/>
		<path class="st4" d="M553.2,1301.4c-2.4-87,2.4-174.2,14.2-260.6H148.6c11.8,86.4,16.6,173.6,14.2,260.6
			c-2.4,59.7,18.1,111.8,54.4,142.4c59,58.8,237.1,56.6,286.8-4.7c32.7-31,50.8-80.1,49.3-136.1
			C553.2,1302.5,553,1301.8,553.2,1301.4z"/>
		<path class="st5" d="M138.1,1566.7h59.4c2.2,0,4.3-4.5,5.2-11.2c7.3-58.6,7.3-118,0-176.6c-0.9-6.7-3-11.2-5.2-11.2h-59.4
			c-2.2,0-4.3,4.5-5.2,11.2c-7.3,58.6-7.3,118,0,176.6C134,1562.4,136.2,1566.7,138.1,1566.7z"/>
		<path class="st6" d="M147.1,1041c0,0,207.4,114.4,418.9,0H147.1z"/>
		<path class="st3" d="M400,1162.7h104.8v29.5H400V1162.7z"/>
		<path class="st3" d="M426.9,1222.8c0,6.2-5,11.2-11.2,11.2s-11.2-5-11.2-11.2c0-6.2,5-11.2,11.2-11.2S426.9,1216.6,426.9,1222.8z"
			/>
		<path class="st3" d="M469.7,1222.8c0,9.6-7.8,17.4-17.4,17.4s-17.4-7.8-17.4-17.4c0-9.6,7.8-17.4,17.4-17.4
			S469.7,1213.1,469.7,1222.8z"/>
		<path class="st3" d="M500,1222.8c0,6.2-5,11.2-11.2,11.2c-6.2,0-11.2-5-11.2-11.2c0-6.2,5-11.2,11.2-11.2
			C495,1211.6,500,1216.6,500,1222.8z"/>
		<path class="st7" d="M164.1,1269.5l-31.6,43.9c-2.2,3-3.4,6.7-3.7,10.6l-4.3,93l15.7,20.5l70.8,0.6
			C211.3,1438.1,214.7,1269.5,164.1,1269.5z"/>
		<path class="st8" d="M128.2,1437.5h12.9c1.5-78-2.4-112.6-8.6-119.3c-6.2-6.7-10.3,37.9-11.8,111.6c-0.2,4.1,3,7.5,7.1,7.7
			C128,1437.5,128.2,1437.5,128.2,1437.5z"/>
		<path class="st5" d="M577.9,1566.7h-59.4c-2.2,0-4.3-4.5-5.2-11.2c-7.3-58.6-7.3-118,0-176.6c0.9-6.7,3-11.2,5.2-11.2h59.2
			c2.2,0,4.3,4.5,5.2,11.2c7.3,58.6,7.3,118,0,176.6C582,1562.4,579.8,1566.7,577.9,1566.7z"/>
		<path class="st7" d="M551.9,1269.5l31.6,43.9c2.2,3,3.4,6.7,3.7,10.6l4.3,93l-15.7,20.5l-70.8,0.6
			C504.8,1438.1,501.3,1269.5,551.9,1269.5z"/>
		<path class="st8" d="M587.8,1437.5h-12.9c-1.5-78,2.4-112.6,8.6-119.3s10.3,37.9,11.8,111.6c0.2,4.1-3,7.5-7.1,7.7
			C588,1437.5,587.8,1437.5,587.8,1437.5z"/>
		<path class="st9" d="M475.5,700.1v5c60.2,0,89.1,28.6,102.9,52.8c18.1,31.4,23.2,75.4,13.6,115c-11.2,45.4-22.8,89.2-35.3,133.1
			h-397c-12.3-44.4-24.1-87.7-35.3-133.1c-3.2-13.4-4.9-27.1-4.7-40.9c0-27.4,6.7-53.8,18.3-74.3c13.6-24.1,42.4-52.8,102.9-52.8
			c8.4,0,16.8,0.6,25.4,1.5c11.2,1.3,22.6,2.4,34,3.2c18.9,1.5,38.5,2.2,58.1,2.2c19.6,0,39.2-0.6,58.1-2.2
			c11.4-0.9,22.8-1.7,34-3.2c8.4-0.9,16.8-1.5,25.4-1.5L475.5,700.1 M475.5,700.1c-8.6,0-17.2,0.6-25.8,1.5
			c-11.2,1.3-22.6,2.4-33.8,3.2c-19.1,1.5-38.5,2.2-57.9,2.2c-19.4,0-38.5-0.6-57.9-2.2c-11.2-0.9-22.6-1.7-33.8-3.2
			c-8.6-1.1-17.2-1.5-25.8-1.5c-45.2,0-84.6,15.9-106.9,55.1c-12.7,21.8-18.9,49.1-18.9,76.9c0,14.2,1.7,28.2,5.2,41.8
			c12,48.5,24.1,93.9,36.4,136.8h404.1c12-42.9,24.3-88.3,36.4-136.8c9.9-40.3,5.2-85.9-13.8-118.7
			C560.1,716,520.7,700.1,475.5,700.1z"/>
		<path class="st10" d="M596.2,873.9c-12,48.5-24.1,93.9-36.4,136.8H156c-12-42.9-24.3-88.3-36.4-136.8c-3.2-13.8-4.9-27.8-5.2-41.8
			c0-27.8,6.2-55.1,18.9-76.9c26.5-46.3,77-60.3,132.8-53.6c11.2,1.3,22.6,2.4,33.8,3.2c19.4,1.5,38.5,2.2,57.9,2.2
			c19.4,0,38.5-0.6,57.9-2.2c11.2-0.9,22.6-1.7,33.8-3.2c55.9-6.7,106.5,6.9,132.8,53.6C601.4,788.2,606.1,833.6,596.2,873.9z"/>
		<path class="st2" d="M539.8,914.6c-9.3,34.2-18.3,66.3-27.8,96.5H203.7c-9.3-30.2-18.7-62-27.8-96.5c-2.6-9.7-3.9-19.6-3.9-29.5
			c0-19.6,4.7-38.8,14.4-53.8c20-33,58.7-42.6,101.3-37.7c8.8,0.9,17.2,1.7,25.8,2.4c14.8,0.9,29.5,1.5,44.3,1.5
			c14.8,0,29.5-0.6,44.3-1.5c8.8-0.6,17.2-1.3,25.8-2.4c42.8-4.7,81.3,4.7,101.3,37.7C543.7,854.1,547.8,885.9,539.8,914.6z"/>
		<path class="st11" d="M311.7,912.4c-4.3,18.3-24.1,33.4-44.3,28.6c-20.2-4.7-32.7-25.6-28.4-41.8
			C262,908.8,286.8,913.3,311.7,912.4z"/>
		<path class="st11" d="M311.7,912.4c-4.3,18.3-24.1,33.4-44.3,28.6c-20.2-4.7-32.7-25.6-28.4-41.8
			C262,908.8,286.8,913.3,311.7,912.4z"/>
		<g>
			<defs>
				<path id="SVGID_1_" d="M311.7,912.4c-4.3,18.3-24.1,33.4-44.3,28.6c-20.2-4.7-32.7-25.6-28.4-41.8
					C262,908.8,286.8,913.3,311.7,912.4z"/>
			</defs>
			<clipPath id="SVGID_00000024704954744001678880000011231672345790111673_">
				<use xlink:href="#SVGID_1_"  style="overflow:visible;"/>
			</clipPath>
			<g style="clip-path:url(#SVGID_00000024704954744001678880000011231672345790111673_);">
				<path class="st7" d="M302.7,908.6c-3,12.9-16.8,23.5-31.2,20.2c-14.4-3.2-23.2-18.1-20.2-29.5
					C267.6,906,285.1,909.2,302.7,908.6z"/>
			</g>
		</g>
		<path class="st13" d="M316,910.7c-7.3,2.6-14.8,4.1-22.6,4.3c-7.7,0.4-15.3-0.4-22.8-2.2c-7.5-1.7-14.8-4.3-21.7-7.8
			c-6.9-3.2-13.1-7.8-18.7-13.4c6.9,3.2,13.8,6,20.9,8.6c6.9,2.4,14,4.5,21.1,6c7.1,1.5,14.4,2.6,21.7,3.2
			C301.2,910.5,308.5,910.9,316,910.7z"/>
		<path class="st14" d="M238.2,875.2c4.9-3.7,10.3-6.7,15.9-9.3c2.8-1.3,5.8-2.4,8.6-3.7l9-2.8c3-0.9,6-1.7,9.3-2.6
			c3-0.9,6.2-0.9,9.3-0.2c3.2,0.4,6.5,1.5,9.5,2.8c3.2,1.5,6.2,3.9,8.4,6.7c0.4,0.4,0.4,1.1,0,1.5l-0.2,0.2c-2.8,1.9-5.8,3.7-9,5.2
			c-2.8,1.1-5.6,1.9-8.4,2.8c-2.6,0.6-5.4,0.6-8.2,0.2c-2.8-0.2-5.8-0.9-8.4-1.3h-8.4c-3,0-5.8,0-8.8,0.2
			c-5.8,0.2-11.8,0.9-17.9,1.7c-0.6,0-1.3-0.2-1.3-0.9C237.7,875.6,237.9,875.4,238.2,875.2z"/>
		<path class="st11" d="M404.3,912.4c4.3,18.3,24.1,33.4,44.3,28.6c20.2-4.7,32.7-25.6,28.6-41.8C454,908.8,429.2,913.3,404.3,912.4
			z"/>
		<path class="st11" d="M404.3,912.4c4.3,18.3,24.1,33.4,44.3,28.6c20.2-4.7,32.7-25.6,28.6-41.8C454,908.8,429.2,913.3,404.3,912.4
			z"/>
		<g>
			<defs>
				<path id="SVGID_00000060730646579415144460000011591653571890541211_" d="M404.3,912.4c4.3,18.3,24.1,33.4,44.3,28.6
					c20.2-4.7,32.7-25.6,28.6-41.8C454,908.8,429.2,913.3,404.3,912.4z"/>
			</defs>
			<clipPath id="SVGID_00000049902896831751681070000012808697536927466652_">
				<use xlink:href="#SVGID_00000060730646579415144460000011591653571890541211_"  style="overflow:visible;"/>
			</clipPath>
			<g style="clip-path:url(#SVGID_00000049902896831751681070000012808697536927466652_);">
				<path class="st7" d="M413.3,908.6c3,12.9,16.8,23.5,31.2,20.2c14.4-3.2,23.2-18.1,20.2-29.5C448.4,906,431,909.2,413.3,908.6z"
					/>
			</g>
		</g>
		<path class="st13" d="M400,910.7c7.5,0,15.1,0,22.4-0.6s14.4-1.7,21.7-3.2c7.1-1.5,14.2-3.7,21.1-6c7.1-2.6,14-5.4,20.7-8.6
			c-5.6,5.4-11.8,9.7-18.7,13.1c-6.9,3.4-14.2,6-21.7,7.8c-7.5,1.5-15.3,2.4-22.8,2.2C414.8,914.8,407.3,913.3,400,910.7z"/>
		<path class="st14" d="M477.4,876.9c-5.8-0.9-11.8-1.5-17.9-1.7c-2.8-0.2-5.8-0.4-8.8-0.2h-8.4c-2.8,0-5.6,0.4-8.4,1.3
			c-2.8,0.4-5.4,0.4-8.2-0.2c-2.8-0.6-5.6-1.5-8.4-2.8c-3.2-1.3-6.2-3-9-5.2c-0.6-0.2-0.6-1.3-0.2-1.7c2.4-2.8,5.2-5,8.4-6.7
			c2.8-1.5,6-2.6,9.3-3c3-0.4,6.2-0.4,9.3,0.2c3,1.1,6.2,1.9,9.3,2.8l9,2.8c3,1.3,5.6,2.4,8.8,3.7c5.6,2.6,11,5.6,15.9,9.3
			c0.4,0.4,0.4,1.1,0.2,1.5C478.1,876.9,477.6,876.9,477.4,876.9z"/>
		<path class="st13" d="M328.7,954.4c4.3,2.4,9,4.1,13.8,5.4c4.1,1.1,8.2,1.7,12.3,1.7c4.1,0,8.2-0.6,12.3-1.5
			c4.7-1.3,9.5-3,13.8-5.2c-1.1,5.8-4.5,11-9.3,14.2c-5.2,3.4-11,5.4-17.2,5.4c-6,0-12-2.2-16.8-5.8
			C333,965.2,329.8,960,328.7,954.4z"/>
		<path class="st16" d="M385.6,798.7c-0.2-7.8-3.2-15.1-6.7-22.2c-2.6-6-9.9-17.2-21.1-16.8h-2.4c-11.4-0.2-18.3,11.2-21.1,16.8
			c-3.2,7.1-6.7,14.4-6.7,22.2c-0.6,8.2,3.2,16.2,9.9,20.7c11.8,7.3,26.7,7.3,38.5,0C382.5,814.4,386,806.7,385.6,798.7z"/>
		<path class="st17" d="M152.1,859.9c-6.2,0-11.4-4.5-12.3-10.8c-1.1-7.1-1.7-14.2-1.7-21.5c0-21.1,4.7-41.8,14.4-58.4
			c9.7-17.4,25.8-30.6,44.8-36.4c2.2-1.3,4.7-0.4,5.8,1.5c1.1,1.9,0.4,4.7-1.5,5.8c-9,6.9-16.6,15.5-22.4,25.2
			c-9.9,17.2-15.1,39.2-15.1,61.2c0,6.2,0.4,12.5,1.3,18.7c0.9,7.1-4.3,13.6-11.2,14.4C153.4,859.7,152.7,859.9,152.1,859.9z"/>
		<path class="st18" d="M556.8,1049.2c-132.8,18.7-267.7,18.7-400.4,0c-14.2-2.4-25-14.6-25.4-29.3v-2.2c-0.4-11.8,8.8-21.5,20.7-22
			c1.5,0,3.2,0,4.7,0.4c132.8,18.7,267.7,18.7,400.4,0c14.2-2.2,25.2,7.5,25.2,21.8v2.2C582.2,1033.9,570.8,1047,556.8,1049.2z"/>
		<path class="st17" d="M147.1,888.1v0.9c0.9,5.4,4.7,9,9.3,8.6c1.5,0,2.8-0.2,4.3-0.6c5.2-0.9,8.4-6.7,7.7-12.7v-0.9
			c-0.9-6.2-5.8-10.6-10.8-9c-0.9,0.2-1.7,0.2-2.8,0.6C149.5,875.8,146.1,881.9,147.1,888.1z"/>
		<path class="st14" d="M152.3,800.2l-86.9-45.9c-1.7-0.9-2.6-3-1.7-4.7c0,0,0-0.2,0.2-0.2c1.1-1.7,3.2-2.6,5.2-1.7l88.4,42.4
			c2.8,1.3,3.9,4.7,2.6,7.5c-1.3,2.8-4.7,4.1-7.5,2.8C152.5,800.2,152.5,800.2,152.3,800.2z"/>
		<path class="st14" d="M78.7,751.1c0,6.4-5.2,11.6-11.6,11.6s-11.6-5.2-11.6-11.6c0-6.4,5.2-11.6,11.6-11.6S78.7,744.7,78.7,751.1z
			"/>
		<path class="st19" d="M103,749.3c4.7,1.7,5.8,10.4,2.6,19.5c-3.3,9.1-9.7,15-14.4,13.3c-4.7-1.7-5.8-10.4-2.6-19.5
			C91.9,753.6,98.3,747.6,103,749.3z"/>
		<path class="st20" d="M134.8,753.4c4.7,1.7,4.3,14.8-1,29.2c-5.2,14.4-13.3,24.7-18,23c-4.7-1.7-4.3-14.8,1-29.2
			C122.1,762,130.1,751.7,134.8,753.4z"/>
		<path class="st14" d="M558.5,790.1l88.4-42.4c1.9-0.9,4.3,0,5.2,1.7c0.9,1.9,0,4.3-1.7,5.2l-86.9,45.7c-2.8,1.5-6,0.4-7.5-2.4l0,0
			C554.7,795.1,555.7,791.8,558.5,790.1z"/>
		<path class="st14" d="M660.8,751.1c0,6.5-5.3,11.8-11.8,11.8c-6.5,0-11.8-5.3-11.8-11.8s5.3-11.8,11.8-11.8
			C655.5,739.3,660.8,744.6,660.8,751.1z"/>
		<path class="st21" d="M627.9,762.9c3.3,9.1,2.1,17.8-2.6,19.5c-4.7,1.7-11.2-4.3-14.4-13.3c-3.3-9.1-2.1-17.8,2.6-19.5
			C618.2,747.9,624.7,753.9,627.9,762.9z"/>
		<path class="st22" d="M599.6,776.9c5.2,14.4,5.7,27.5,1,29.2c-4.7,1.7-12.7-8.6-18-23c-5.2-14.4-5.7-27.5-1-29.2
			C586.3,752.2,594.4,762.5,599.6,776.9z"/>
	</g>
</g>
</svg>
