<?xml version="1.0" encoding="utf-8"?>
<!-- Generator: Adobe Illustrator 25.2.0, SVG Export Plug-In . SVG Version: 6.00 Build 0)  -->
<svg version="1.1" id="Layer_1" xmlns="http://www.w3.org/2000/svg" xmlns:xlink="http://www.w3.org/1999/xlink" x="0px" y="0px"
	 viewBox="0 0 371.5 402.7" style="enable-background:new 0 0 371.5 402.7;" xml:space="preserve">
<style type="text/css">
	.st0{fill:none;stroke:#2E3191;stroke-width:8.71;stroke-linecap:round;stroke-miterlimit:10;}
	.st1{fill:#D0A109;}
	.st2{fill:#04A65A;}
	.st3{fill:#FFC50B;}
	.st4{fill:#1B1464;}
	.st5{fill:#2E3191;}
	.st6{fill:#0071BC;}
	.st7{fill:#FF2081;}
	.st8{fill:#BE1862;}
	.st9{fill:#EC1E79;}
	.st10{fill:#D01A6B;}
	.st11{fill:none;stroke:#2E3191;stroke-width:2.59;stroke-linecap:round;stroke-miterlimit:10;}
	.st12{fill:none;stroke:#2E3191;stroke-width:3.26;stroke-linecap:round;stroke-miterlimit:10;}
	.st13{fill:#5EC2D2;}
	.st14{opacity:0.5;fill:#68DFE7;enable-background:new    ;}
	.st15{fill:#FFFFFF;}
	.st16{clip-path:url(#SVGID_2_);}
	.st17{clip-path:url(#SVGID_4_);}
	.st18{fill:#328545;}
	.st19{clip-path:url(#SVGID_6_);}
	.st20{clip-path:url(#SVGID_8_);}
	.st21{fill:#FFF100;}
	.st22{opacity:0.5;fill:#FFFFFF;enable-background:new    ;}
	.st23{fill:#006837;}
	.st24{fill:none;stroke:#2E3191;stroke-width:9.12;stroke-linecap:round;stroke-miterlimit:10;}
</style>
<path id="b-arm" class="st0" d="M106.8,183.4c-25.5,2.9-51.4-11-62.3-33.2"/>
<g id="b-hand">
	<path class="st1" d="M11.6,107.9c-1-0.7-1.8-1.6-2.4-2.6c-1.6-2.5-2.5-5.3-2.7-8.3c-0.1-0.9,0-1.8,0.2-2.7c0.2-0.8,0.9-1.5,1.7-1.7
		c0.9,0.1,1.6,0.6,2.1,1.3c2.4,2.8,4.3,6,5.5,9.5C17.2,107.1,14.3,109.5,11.6,107.9z"/>
	<path class="st1" d="M9.6,115.5c-1.2-0.2-2.3-0.7-3.2-1.5c-2.4-1.7-4.4-4-5.6-6.7c-0.5-0.8-0.7-1.7-0.8-2.6c-0.1-0.9,0.3-1.7,1-2.2
		c0.7-0.4,1.7,0,2.5,0.5c3.3,1.6,6.3,3.9,8.7,6.6C14.4,112.5,12.6,115.8,9.6,115.5z"/>
	<path class="st1" d="M19.4,103.2c-1-0.7-1.8-1.6-2.4-2.6c-1.6-2.5-2.5-5.3-2.7-8.2c-0.1-0.9,0-1.8,0.2-2.7c0.2-0.8,0.9-1.4,1.7-1.6
		c0.9,0.1,1.6,0.6,2.1,1.3c2.4,2.8,4.3,6,5.4,9.5C25,102.4,22.1,104.8,19.4,103.2z"/>
	<path class="st2" d="M27.3,156.7c1.1,2.1,8.3,0.4,16.2-3.7s13.3-9.1,12.2-11.2l-18.4-35.1c-4.1-7.8-13.8-10.8-21.6-6.7l-0.1,0.1
		c-7.8,4.1-10.8,13.8-6.7,21.6l18.4,35.1L27.3,156.7z"/>
	<path class="st3" d="M26.2,104.8c-0.9-1-1.6-2.2-2-3.5c-1-3-1.2-6.2-0.5-9.2c0.2-1,0.5-1.9,1.1-2.7c0.5-0.8,1.5-1.2,2.5-1
		c1,0.2,1.6,1.3,2,2.1c1.9,3.5,3.1,7.4,3.5,11.5C33,106,28.7,107.4,26.2,104.8z"/>
</g>
<g id="body">
	<polygon class="st4" points="119.2,271.9 136.1,271.9 136.1,397.7 118.6,397.7 	"/>
	<ellipse class="st4" cx="119.3" cy="334.8" rx="39.2" ry="62.9"/>
	<ellipse class="st5" cx="136.1" cy="334.8" rx="39.2" ry="62.9"/>
	<ellipse class="st6" cx="136.1" cy="334.8" rx="28.6" ry="45.9"/>
	<path class="st7" d="M130.7,259.9c-32.3,0-53.6,27.3-53.6,79.1h99.8C177.1,295.7,163,259.9,130.7,259.9z"/>
	<path class="st8" d="M168.1,339h-67.4c0-31,15.6-56.1,35-56.1S168.1,308,168.1,339z"/>
	
		<ellipse transform="matrix(0.9756 -0.2197 0.2197 0.9756 -38.8982 26.576)" class="st1" cx="100.1" cy="188.2" rx="13.8" ry="33.5"/>
	<path class="st9" d="M278,279c-1.1-40.4,1.1-80.9,6.6-121H90.1c5.5,40.1,7.7,80.6,6.6,121c-1.1,27.6,8.4,51.8,25.4,66.1
		c27.4,27.3,110.2,26.3,133.3-2.2c15.3-14.4,23.6-37.2,22.9-63.2C278.1,279.5,278,279.2,278,279z"/>
	<path class="st10" d="M89.4,158.1c0,0,76,53.1,153.6,0H89.4z"/>
	<rect x="174.9" y="214.6" class="st3" width="48.7" height="13.7"/>
	<circle class="st3" cx="182.1" cy="242.4" r="5.2"/>
	<circle class="st3" cx="199.2" cy="242.4" r="8.1"/>
	<circle class="st3" cx="216.1" cy="242.4" r="5.2"/>
	<polygon class="st4" points="243.7,276.9 260.6,276.9 260.6,402.7 243,402.6 	"/>
	<ellipse class="st4" cx="243.8" cy="339.8" rx="39.2" ry="62.9"/>
	<ellipse class="st5" cx="260.6" cy="339.8" rx="39.2" ry="62.9"/>
	<ellipse class="st6" cx="260.6" cy="339.8" rx="28.6" ry="45.9"/>
	<path class="st7" d="M255.1,264.8c-32.3,0-53.6,27.3-53.6,79.1h99.8C301.5,300.6,287.4,264.8,255.1,264.8z"/>
	<path class="st8" d="M292.5,343.9h-67.4c0-31,15.6-56.1,35-56.1S292.5,312.9,292.5,343.9z"/>
</g>
<g id="head">
	<path class="st5" d="M102.3,36.8L62.4,14.7c-0.9-0.5-1.9-0.2-2.4,0.7c-0.5,0.9-0.2,1.9,0.7,2.4l0,0l39.1,23.6
		c1.2,0.7,2.8,0.3,3.5-0.9c0,0,0,0,0,0C104,39.2,103.5,37.6,102.3,36.8L102.3,36.8z"/>
	<circle class="st5" cx="61.4" cy="16.2" r="5.4"/>
	<ellipse transform="matrix(0.3955 -0.9184 0.9184 0.3955 23.1859 83.0787)" class="st11" cx="74.7" cy="23.9" rx="8.1" ry="4.2"/>
	<ellipse transform="matrix(0.3955 -0.9184 0.9184 0.3955 24.2856 99.1451)" class="st12" cx="87.5" cy="31.1" rx="12.9" ry="4.2"/>
	<path class="st13" d="M292.3,29.9c-9.6-17.9-27-27.3-50.4-27.3c-3.2,0-6.4,0.2-9.5,0.5c-3,0.4-14.6,0.7-23.1,0.8
		c-4.6,0.1-8.6,0.2-10.3,0.3c-6.2,0.3-11.8,0.4-17.1,0.4c-2.6,0-5.1,0-7.5-0.1C167,4.4,158.9,3.8,149.7,3c-4.4-0.5-8.7-1.1-13.2-1.7
		l-1.2-0.2C131,0.4,126.5,0,122.1,0c-19.2,0-33,8.1-42.2,24.8c-5.5,9.5-8.5,22-8.5,35.3c0,6.5,0.7,13,2.3,19.4
		c4.6,19.8,9.7,39.9,15.6,61.3l0.6,2.1l84.2,2.3l108.1,2.3l0.6-2.2c4.7-16.9,9.6-36.1,15.6-60.5C302.9,66.2,300.5,45.2,292.3,29.9z
		 M295.4,84.1c-5.2,21.5-10.3,41.6-15.5,60.4l-105.8-2.2l-82-2.2c-5.2-19.1-10.5-39.4-15.5-61.2c-1.5-6.1-2.2-12.4-2.2-18.7
		c0-12.4,2.7-24.5,8.1-33.8c11.4-20.4,28.5-26,52.5-22.3c4.9,0.7,9.6,1.4,14.5,1.9c8.3,0.8,16.6,1.4,24.8,1.6s16.6,0,24.8-0.3
		c4.9-0.2,28.8-0.5,33.7-1.1c24-2.4,45.6,4.2,56.9,25.2C297.6,46,299.8,66.2,295.4,84.1z"/>
	<path class="st14" d="M292.3,29.9c-9.6-17.9-27-27.3-50.4-27.3c-3.2,0-6.4,0.2-9.5,0.5c-3,0.4-14.6,0.7-23.1,0.8
		c-4.6,0.1-8.6,0.2-10.3,0.3c-6.2,0.3-11.8,0.4-17.1,0.4c-2.6,0-5.1,0-7.5-0.1C167,4.4,158.9,3.8,149.7,3c-4.4-0.5-8.7-1.1-13.2-1.7
		l-1.2-0.2C131,0.4,126.5,0,122.1,0c-19.2,0-33,8.1-42.2,24.8c-5.5,9.5-8.5,22-8.5,35.3c0,6.5,0.7,13,2.3,19.4
		c4.6,19.8,9.7,39.9,15.6,61.3l0.6,2.1l84.2,2.3l108.1,2.3l0.6-2.2c4.7-16.9,9.6-36.1,15.6-60.5C302.9,66.2,300.5,45.2,292.3,29.9z"
		/>
	<path class="st2" d="M261.5,103.3c-3.9,15.8-7.6,30.6-11.4,44.5l-77.9-1.7l-60.3-1.6c-3.8-14.1-7.7-29-11.4-45
		c-1.1-4.5-1.6-9.1-1.6-13.8c0-9.1,2-18,6-24.9c8.3-15,20.9-19.1,38.6-16.4c3.6,0.5,7.1,1,10.7,1.4c6.1,0.6,12.2,1,18.3,1.2
		s12.2,0,18.3-0.2c3.6-0.2,21.2-0.4,24.8-0.8c17.6-1.8,33.6,3,41.8,18.5C263.1,75.2,264.8,90.1,261.5,103.3z"/>
	<path class="st15" d="M142.2,95.2c-1.4,8-8.1,14.7-14.9,12.5s-11-11.2-9.6-18.3C125.2,93.4,133.6,95.5,142.2,95.2z"/>
	<g>
		<defs>
			<path id="SVGID_1_" d="M142.2,95.2c-1.4,8-8.1,14.7-14.9,12.5s-11-11.2-9.6-18.3C125.2,93.4,133.6,95.5,142.2,95.2z"/>
		</defs>
		<clipPath id="SVGID_2_">
			<use xlink:href="#SVGID_1_"  style="overflow:visible;"/>
		</clipPath>
		<g class="st16">
			<path class="st15" d="M139.1,93.4c-1,5.7-5.7,10.3-10.5,8.8s-7.8-7.9-6.8-12.9C127.1,92.2,133.1,93.7,139.1,93.4z"/>
		</g>
	</g>
	<g>
		<defs>
			<path id="SVGID_3_" d="M142.2,95.2c-1.4,8-8.1,14.7-14.9,12.5s-11-11.2-9.6-18.3C125.2,93.4,133.6,95.5,142.2,95.2z"/>
		</defs>
		<clipPath id="SVGID_4_">
			<use xlink:href="#SVGID_3_"  style="overflow:visible;"/>
		</clipPath>
		<g class="st17">
			<path class="st7" d="M139.1,93.4c-1,5.7-5.7,10.3-10.5,8.8s-7.8-7.9-6.8-12.9C127.1,92.2,133.1,93.7,139.1,93.4z"/>
		</g>
	</g>
	<path class="st18" d="M143.6,94.4c-2.4,1.1-5,1.8-7.6,1.8c-2.6,0.1-5.2-0.2-7.7-0.9c-2.6-0.8-5.1-1.9-7.3-3.4
		c-2.4-1.5-4.5-3.5-6.3-5.8c2.3,1.4,4.7,2.6,7,3.8c2.3,1.1,4.6,2,7.1,2.6c2.4,0.7,4.8,1.2,7.3,1.5C138.6,94.3,141.1,94.4,143.6,94.4
		z"/>
	<path class="st5" d="M117.4,78.8c1.6-1.6,3.4-2.9,5.4-4.1c0.9-0.5,1.9-1.1,2.9-1.6l3-1.2c1-0.4,2-0.8,3.1-1.2
		c1-0.4,2.1-0.4,3.1-0.1c1.1,0.3,2.2,0.7,3.1,1.3c1.2,0.7,2.1,1.7,2.8,2.9c0.2,0.2,0.1,0.6-0.1,0.8l0,0c-1.6,1.6-3.6,2.8-5.8,3.4
		c-0.9,0.2-1.8,0.3-2.7,0.1c-0.9-0.1-1.9-0.4-2.8-0.5h-2.8c-1,0-2,0-2.9,0.1c-2,0.1-4,0.4-6,0.8c-0.2,0-0.4-0.1-0.4-0.4c0,0,0,0,0,0
		C117.3,79,117.3,78.9,117.4,78.8z"/>
	<path class="st15" d="M179.2,98c2,8.5,11.2,15.5,20.6,13.3s15.2-11.9,13.3-19.4C202.3,96.3,190.8,98.4,179.2,98z"/>
	<g>
		<defs>
			<path id="SVGID_5_" d="M179.2,98c2,8.5,11.2,15.5,20.6,13.3s15.2-11.9,13.3-19.4C202.3,96.3,190.8,98.4,179.2,98z"/>
		</defs>
		<clipPath id="SVGID_6_">
			<use xlink:href="#SVGID_5_"  style="overflow:visible;"/>
		</clipPath>
		<g class="st19">
			<path class="st15" d="M183.4,96.2c1.4,6,7.8,10.9,14.5,9.4s10.8-8.4,9.4-13.7C199.7,95,191.6,96.5,183.4,96.2z"/>
		</g>
	</g>
	<g>
		<defs>
			<path id="SVGID_7_" d="M179.2,98c2,8.5,11.2,15.5,20.6,13.3s15.2-11.9,13.3-19.4C202.3,96.3,190.8,98.4,179.2,98z"/>
		</defs>
		<clipPath id="SVGID_8_">
			<use xlink:href="#SVGID_7_"  style="overflow:visible;"/>
		</clipPath>
		<g class="st20">
			<path class="st7" d="M183.4,96.2c1.4,6,7.8,10.9,14.5,9.4s10.8-8.4,9.4-13.7C199.7,95,191.6,96.5,183.4,96.2z"/>
		</g>
	</g>
	<path class="st18" d="M177.2,97.2c3.5,0,7,0,10.4-0.3c3.4-0.3,6.7-0.8,10.1-1.5c3.3-0.7,6.6-1.7,9.8-2.8c3.3-1.2,6.5-2.5,9.6-4
		c-2.6,2.5-5.5,4.6-8.7,6.2c-3.2,1.6-6.6,2.8-10.1,3.6c-3.5,0.7-7.1,1.1-10.6,1C184.2,99.2,180.6,98.4,177.2,97.2z"/>
	<path class="st5" d="M213.2,81.5c-2.7-0.4-5.5-0.7-8.2-0.8c-1.3-0.1-2.7-0.2-4.1-0.1H197c-1.3,0-2.6,0.2-3.9,0.6
		c-1.3,0.2-2.5,0.2-3.8-0.1c-1.3-0.3-2.6-0.7-3.9-1.2c-1.5-0.6-2.9-1.4-4.2-2.4l0,0c-0.3-0.1-0.3-0.6-0.1-0.8l0,0
		c1.1-1.3,2.4-2.3,3.9-3.1c1.3-0.7,2.8-1.2,4.3-1.4c1.4-0.2,2.9-0.2,4.3,0.1c1.4,0.5,2.9,0.9,4.4,1.3l4.2,1.3c1.4,0.6,2.6,1.1,4,1.7
		c2.6,1.2,5.1,2.6,7.4,4.3c0.2,0.2,0.2,0.5,0.1,0.7C213.6,81.5,213.4,81.5,213.2,81.5z"/>
	<path class="st18" d="M149.2,114.2c1.6,1.2,3.4,2.2,5.2,2.9c1.5,0.6,3.1,1,4.7,1.2c1.6,0.1,3.2-0.1,4.8-0.4c1.9-0.5,3.7-1.2,5.4-2
		c-0.7,5.4-5.7,9.1-11,8.4c-2.2-0.3-4.3-1.4-5.8-3C150.6,119.2,149.5,116.8,149.2,114.2z"/>
	<path class="st21" d="M279.7,161.9c-61.7,8.7-124.4,8.7-186.1,0c-6.6-1.1-11.6-6.8-11.8-13.6v-1c-0.2-5.5,4.1-10,9.5-10.2
		c0.7,0,1.5,0,2.2,0.2c61.7,8.7,124.4,8.7,186.1,0c6.6-1,11.7,3.5,11.7,10.1v1C291.6,154.8,286.3,160.9,279.7,161.9z"/>
	<path class="st5" d="M246.5,41.6l41.1-19.7c0.9-0.4,2,0,2.4,0.8c0.4,0.9,0,2-0.8,2.4l-40.4,21.3c-1.3,0.7-2.8,0.2-3.5-1.1
		c0,0,0,0,0,0C244.7,43.9,245.2,42.3,246.5,41.6L246.5,41.6z"/>
	<circle class="st5" cx="288.5" cy="23.4" r="5.5"/>
	<ellipse transform="matrix(0.9401 -0.341 0.341 0.9401 6.1063 95.5248)" class="st11" cx="274.8" cy="30.4" rx="4.2" ry="8.1"/>
	<ellipse transform="matrix(0.9401 -0.341 0.341 0.9401 3.1255 91.426)" class="st12" cx="261.6" cy="36.8" rx="4.2" ry="12.9"/>
	<path class="st22" d="M92,73.9c-2.9,0-5.3-2.2-5.7-5c-0.5-3.3-0.8-6.6-0.8-9.9c0-9.8,2.2-19.4,6.7-27.1c4.5-8.1,11.9-14.2,20.8-17
		c1-0.6,2.2-0.2,2.8,0.8s0.2,2.2-0.8,2.8c-4.2,3.2-7.7,7.2-10.3,11.7c-4.6,8-7,18.2-7,28.4c0,2.9,0.2,5.8,0.6,8.7
		c0.4,3.3-1.9,6.3-5.2,6.7C92.7,73.9,92.3,73.9,92,73.9z"/>
	<path class="st22" d="M89.8,87.1v0.4c0.4,2.5,2.2,4.2,4.3,4.1c0.7,0,1.3-0.1,2-0.3c2.4-0.4,3.9-3.1,3.6-5.9V85
		c-0.4-2.9-2.7-4.9-5-4.2c-0.4,0.1-0.8,0.1-1.3,0.3C90.9,81.3,89.2,84.1,89.8,87.1z"/>
	<path class="st23" d="M178.1,46.4c0.1-3.6-1.1-7.1-2.4-10.5c-1.1-2.9-4.1-8.2-9.3-8.4l-1.1-0.1c-5.3-0.5-8.8,4.6-10.3,7.2
		c-1.7,3.2-3.5,6.5-3.7,10.1c-0.5,3.8,1,7.5,4,9.9c5.3,3.7,12.2,4.1,17.9,1.1C176.3,53.6,178.1,50.1,178.1,46.4z"/>
</g>
<ellipse id="armhole" transform="matrix(8.663414e-02 -0.9962 0.9962 8.663414e-02 49.9609 433.8921)" class="st1" cx="261.6" cy="189.7" rx="35.1" ry="14.4"/>
<path id="f-arm" class="st24" d="M264.4,189.4c26.8,1.2,52.9-15.1,62.7-39.1"/>
<g id="f-hand">
	<path class="st1" d="M359.3,104.8c1-0.7,1.9-1.7,2.5-2.8c1.6-2.6,2.6-5.6,2.7-8.7c0.1-0.9,0-1.9-0.3-2.8c-0.2-0.9-0.9-1.5-1.8-1.7
		c-0.9,0.1-1.7,0.6-2.1,1.4c-2.5,2.9-4.4,6.3-5.6,10C353.5,104,356.6,106.5,359.3,104.8z"/>
	<path class="st1" d="M361.6,112.7c1.2-0.3,2.4-0.8,3.3-1.6c2.5-1.8,4.5-4.2,5.8-7.1c0.5-0.8,0.7-1.8,0.8-2.8c0.1-0.9-0.3-1.7-1-2.3
		c-0.8-0.4-1.8,0.1-2.6,0.5c-3.4,1.7-6.5,4.1-9.1,7C356.5,109.6,358.4,113.1,361.6,112.7z"/>
	<path class="st1" d="M351.1,99.9c1-0.7,1.9-1.7,2.5-2.8c1.6-2.6,2.6-5.6,2.7-8.7c0.1-0.9,0-1.9-0.3-2.8c-0.2-0.9-0.9-1.5-1.8-1.7
		c-0.9,0.1-1.7,0.6-2.1,1.4c-2.5,2.9-4.4,6.3-5.6,10C345.3,99.1,348.4,101.7,351.1,99.9z"/>
	<path class="st2" d="M313.6,140.7c-1.1,2.2,4.6,7.4,12.9,11.6s15.9,5.9,17,3.7l0.1,0.1l18.9-37c4.2-8.3,0.9-18.3-7.3-22.6l-0.1-0.1
		c-8.3-4.2-18.3-0.9-22.6,7.3L313.6,140.7L313.6,140.7z"/>
	<path class="st3" d="M344.1,101.7c1-1,1.6-2.3,2-3.7c1-3.1,1.2-6.5,0.4-9.7c-0.2-1-0.6-2-1.2-2.8c-0.6-0.8-1.6-1.2-2.6-1
		c-1.1,0.2-1.6,1.4-2.1,2.2c-2,3.7-3.2,7.8-3.5,12C337,103,341.5,104.4,344.1,101.7z"/>
</g>
</svg>
