<?xml version="1.0" encoding="utf-8"?>
<!-- Generator: Adobe Illustrator 25.2.0, SVG Export Plug-In . SVG Version: 6.00 Build 0)  -->
<svg version="1.1" id="Layer_1" xmlns="http://www.w3.org/2000/svg" xmlns:xlink="http://www.w3.org/1999/xlink" x="0px" y="0px"
	 viewBox="0 0 241.1 385.7" style="enable-background:new 0 0 241.1 385.7;" xml:space="preserve">
<style type="text/css">
	.st0{fill:#2A3D9B;}
	.st1{fill:#16254F;}
	.st2{fill:none;stroke:#16254F;stroke-miterlimit:10;}
	.st3{fill:#438BFF;}
	.st4{fill:#D552C0;}
	.st5{fill:#BCFC30;}
	.st6{fill:none;stroke:#D552C0;stroke-width:7;stroke-linecap:round;stroke-miterlimit:10;}
	.st7{fill:#F8FFE1;}
	.st8{fill:#A8E00E;}
	.st9{clip-path:url(#SVGID_2_);}
	.st10{fill:#FFFFFF;}
	.st11{fill:#A114A5;}
	.st12{fill:#470B35;}
	.st13{clip-path:url(#SVGID_4_);}
	.st14{fill:#74B221;}
	.st15{fill:#B23BA4;}
</style>
<g id="torso">
	<path class="st0" d="M160.1,331.7c0,0-25.6-8-48.4-8s-48.4,8-48.4,8S43,298.2,42,285.6s13.9-49.2,13.9-49.2l-8.1-74.1l21.5-16.8
		h84.6l21.5,16.8l-8.1,74.1c0,0,14.9,35.8,14,48.3C180.3,297.6,160.1,331.7,160.1,331.7z"/>
	<ellipse transform="matrix(0.9901 -0.14 0.14 0.9901 -26.828 9.2338)" class="st1" cx="52.2" cy="195.3" rx="13.8" ry="33.1"/>
	
		<ellipse transform="matrix(0.1428 -0.9898 0.9898 0.1428 -46.9564 335.6468)" class="st1" cx="170.3" cy="194.9" rx="33.1" ry="13.8"/>
	<line class="st2" x1="111.6" y1="170" x2="111.6" y2="323.7"/>
	<path class="st3" d="M170.2,240.8c0,0-18.8,6.7-58.7,6.7s-58.7-6.7-58.7-6.7l1.8-10.2c0,0,17.6,6.7,56.8,6.7s56.8-6.7,56.8-6.7
		L170.2,240.8z"/>
	<circle class="st4" cx="111.6" cy="244.2" r="13.6"/>
</g>
<path id="l-arm" class="st1" d="M57.6,227.7L46,239.9c0,0-8.7,6.3-17.1-1.3c-6.6-6-8-14-5.7-20.1c2.1-5.9,5.1-18.3,8.6-28.8
	c5.5-16.4,12.2-25,12.2-25s8.5,2.7,13.7,26.3C64.6,223.1,57.6,227.7,57.6,227.7z"/>
<path id="l-forearm" class="st1" d="M25.3,215.3c0,0-7.8,10.1-8.4,27c-0.3,10.4,1.2,16.3,1.2,16.3c1.8-0.3,3.7-0.3,5.6,0.1
	c2.4,0.4,4.6,1.5,6.3,3.2c0,0,9.7-7.7,21.2-27.4S31.1,204.2,25.3,215.3z"/>
<g id="l-hand">
	<path class="st5" d="M21.7,257.4c-4.3,1.4-8.7,2.3-13.2,2.6c-6.6,0.3-11,4.6-7,6.6s5.2-0.3,8.7,0s-3.8,3.6-2.1,8.6s6,8,10.6,3
		s1.7-9.1,5.6-9.2s1,9.2,6,8.5s10,0-2-17.9L21.7,257.4z"/>
	<path class="st6" d="M16.2,256.4c0,0,3.8,1.3,7.5,2.4c2.8,0.9,5.5,2,8.2,3.2"/>
</g>
<path id="r-arm" class="st1" d="M165.6,227.7l11.6,12.2c0,0,8.7,6.3,17.1-1.3c6.6-6,8-14,5.8-20.1c-2.1-5.9-5.1-18.3-8.6-28.8
	c-5.5-16.4-12.1-25-12.1-25s-8.5,2.7-13.7,26.3C158.5,223.1,165.6,227.7,165.6,227.7z"/>
<path id="r-forearm" class="st1" d="M194.6,247.2c0,0,11.8-4.9,20.6-19.4c5.4-8.9,7-14.8,7-14.8c-1.8-0.6-3.4-1.6-4.8-2.8
	c-1.9-1.5-3.3-3.5-3.9-5.9c0,0-12.2,1.9-32,13.4S184.1,254.1,194.6,247.2z"/>
<g id="r-hand">
	<path class="st5" d="M218.5,212.4c4.4,0.8,8.7,2.2,12.8,4.2c5.9,3,11.8,1.4,9.3-2.3s-4.7-2.3-7.6-4.3s5.1-1.3,6.1-6.5
		s-1.3-9.9-7.8-7.8s-5.9,7.1-9.4,5.2s3.6-8.5-1-10.3s-8.7-4.9-7.1,16.6L218.5,212.4z"/>
	<path class="st6" d="M222.8,216c0,0-2.7-3-5.4-5.7c-2-2.2-3.8-4.4-5.6-6.8"/>
</g>
<g id="l-calf">
	<path class="st0" d="M41.3,318.6c0,0,8.6,34.4,1.1,49.4c0,0,8.1,3.3,10.4,4.6s7.2,7.8,7.2,7.8s22.3-10,33.9-45.7
		c6.1-18.8-8.8-22.3-24.4-21.3C60,314.2,50.5,315.9,41.3,318.6z"/>
	<path class="st1" d="M59.4,371.6c0,0-9.7-2.6-15-2.6c-3.4,0-8.7,3.3-13.1,4.1c-7.7-1.3-17.6-6.5-19.5-2.6
		c-3.4,7,0.4,15.9,18.6,15.3s20.8,0.3,30.1,0c0,0,1.8-3.6,0.6-10.1C60.7,374.2,60.1,372.8,59.4,371.6z"/>
	<path class="st6" d="M41.4,366.2c3.2,0.8,6.2,1.9,9.2,3.3c4.5,2.4,8.6,5.6,12,9.4"/>
</g>
<g id="l-thigh">
	<path class="st0" d="M53.9,241.8c0,0-13.3,18.7-14.7,58.5s29.8,49.9,48.2,42.7c1.5-0.6,6.1-7.7,6.8-9.2c2.7-5.9,7.2-14.7,13.4-26.7
		C120.4,281.9,70.5,246,53.9,241.8z"/>
	<path class="st2" d="M53.7,254.9c10.9,1.3,21.5,4.1,31.6,8.3c0,0-20,42.1-20.1,57.7c-7.6-0.2-14.9-2.9-20.7-7.8
		C44.4,313.2,43.6,276.1,53.7,254.9z"/>
</g>
<g id="r-calf">
	<path class="st0" d="M181.8,318.6c0,0-8.6,34.4-1.1,49.4c0,0-8.1,3.3-10.4,4.6s-7.2,7.8-7.2,7.8s-22.3-10-33.9-45.7
		c-6.1-18.8,8.9-22.3,24.4-21.3C163.2,314.2,172.6,315.9,181.8,318.6z"/>
	<path class="st1" d="M163.8,371.6c0,0,9.7-2.6,15.1-2.6c3.4,0,8.7,3.3,13.1,4.1c7.6-1.3,17.6-6.5,19.5-2.6
		c3.4,7-0.4,15.9-18.6,15.3s-20.8,0.3-30.1,0c0,0-1.8-3.6-0.6-10.1C162.5,374.2,163,372.8,163.8,371.6z"/>
	<path class="st6" d="M181.7,366.2c-3.2,0.8-6.2,1.9-9.2,3.3c-4.5,2.4-8.6,5.6-12,9.4"/>
</g>
<g id="r-thigh">
	<path class="st0" d="M169.2,241.8c0,0,13.3,18.7,14.7,58.5s-29.9,49.9-48.2,42.7c-1.5-0.6-6.1-7.7-6.8-9.2
		c-2.7-5.9-7.2-14.7-13.3-26.7C102.8,281.9,152.6,246,169.2,241.8z"/>
	<path class="st2" d="M169.5,254.9c-10.9,1.3-21.5,4.1-31.6,8.3c0,0,20,42.1,20.1,57.7c7.6-0.2,14.9-2.9,20.7-7.8
		C178.7,313.2,179.5,276.1,169.5,254.9z"/>
</g>
<g id="head">
	<path class="st5" d="M202,57.7l-4,29c-1.2,8.5-7.6,15.2-16,16.8c-11.1,2.1-19.9,10.4-22.7,21.3l-5.4,21.6c0,0-11.4,27.5-42.3,27.5
		s-42.3-27.5-42.3-27.5l-5.4-21.6c-2.7-10.9-11.6-19.3-22.7-21.3c-8.4-1.6-14.8-8.3-16-16.8l-4-28.9c-1.2-8.9,2-17.9,8.7-23.9
		c8.1-7.3,17.1-13.6,26.8-18.6c12.3-6.2,21.6-9.6,32-11.4c3.1-0.5,13.5-1.8,18.8,2.8c6.3,5.4-2.6,11.5-6.2,13.5
		c-11.3,6.3-22.2,15.5-21.7,33l32.1,7.2l32.1-7.2c0.5-17.5-10.4-26.7-21.7-33c-3.6-2-12.5-8.1-6.2-13.5c5.3-4.5,15.7-3.3,18.8-2.8
		c10.3,1.8,19.7,5.1,32,11.4c9.7,5,18.7,11.2,26.8,18.6C200,39.8,203.3,48.7,202,57.7z"/>
	<path class="st7" d="M59.3,38.3c0,3.5-5,6.3-11.2,6.3s-11.2-2.8-11.2-6.3s5-14.9,11.2-14.9S59.3,34.8,59.3,38.3z"/>
	<path class="st7" d="M71.7,19.3c0,2.2-3.3,4.1-7.3,4.1s-7.3-1.8-7.3-4.1s3.2-9.7,7.3-9.7S71.7,17,71.7,19.3z"/>
	<path class="st7" d="M96.1,9.7c0,2.3-3.3,4.1-7.3,4.1s-7.3-1.8-7.3-4.1S84.8,0,88.8,0C92.8,0,96.1,7.4,96.1,9.7z"/>
	<path class="st7" d="M163.9,38.3c0,3.5,5,6.3,11.2,6.3s11.2-2.8,11.2-6.3s-5-14.9-11.2-14.9S163.9,34.8,163.9,38.3z"/>
	<path class="st7" d="M151.4,19.3c0,2.2,3.2,4.1,7.3,4.1s7.3-1.8,7.3-4.1s-3.3-9.7-7.3-9.7S151.4,17,151.4,19.3z"/>
	<path class="st7" d="M127.1,9.7c0,2.3,3.2,4.1,7.3,4.1s7.3-1.8,7.3-4.1S138.4,0,134.3,0S127.1,7.4,127.1,9.7z"/>
	<path class="st8" d="M79.5,53c0,0-5.1-1.6-11.2-4c0,0,9-22.3,32.9-29C89.9,26.3,79.1,35.5,79.5,53z"/>
	<path class="st8" d="M143.7,53c0,0,5.1-1.6,11.2-4c0,0-9-22.3-32.9-29C133.3,26.3,144.1,35.5,143.7,53z"/>
	<g>
		<defs>
			<path id="SVGID_1_" d="M57.2,83.4c0,0,13.6-11.1,24.5,0.7c6.4,6.8,9.3,16.2,7.7,25.4c0,0-14,6.8-26.9-5.8
				C54,95.3,57.2,83.4,57.2,83.4z"/>
		</defs>
		<clipPath id="SVGID_2_">
			<use xlink:href="#SVGID_1_"  style="overflow:visible;"/>
		</clipPath>
		<g class="st9">
			<rect x="54.7" y="76.8" class="st10" width="37.1" height="36.5"/>
			<circle class="st11" cx="80.1" cy="92.1" r="13.4"/>
			<circle cx="80.1" cy="92.1" r="6.1"/>
			<path class="st12" d="M91.8,108.9c0,0-1.9-19-11.6-25c-9.6-5.9-16.8-1.1-23.3,1.6c-6.7,2.8,10.4-13.7,10.4-13.7l27.2,8.8
				L91.8,108.9z"/>
		</g>
	</g>
	<g>
		<defs>
			<path id="SVGID_3_" d="M163.4,83.4c0,0-13.5-11.1-24.5,0.7c-6.4,6.8-9.3,16.2-7.7,25.4c0,0,14,6.8,26.9-5.8
				C166.6,95.3,163.4,83.4,163.4,83.4z"/>
		</defs>
		<clipPath id="SVGID_4_">
			<use xlink:href="#SVGID_3_"  style="overflow:visible;"/>
		</clipPath>
		<g class="st13">
			<rect x="128.9" y="76.8" class="st10" width="37.1" height="36.5"/>
			<circle class="st11" cx="152" cy="92.1" r="13.4"/>
			<circle cx="152" cy="92.1" r="6.1"/>
			<path class="st12" d="M128.9,108.9c0,0,1.9-19,11.6-25c9.6-5.9,16.8-1.1,23.3,1.6c6.7,2.8-10.4-13.7-10.4-13.7l-27.2,8.8
				L128.9,108.9z"/>
		</g>
	</g>
	<path class="st12" d="M161.6,84.6c0.1,0.2,0.3,0.3,0.4,0.5l0,0l-0.1-0.1l-0.1-0.1L161.6,84.6l-0.7-0.4c-0.4-0.3-0.9-0.6-1.3-0.9
		c-0.9-0.5-1.8-1-2.8-1.5c-1.9-0.9-3.9-1.4-6-1.5c-2.1-0.1-4.1,0.2-6,1c-1.9,0.9-3.7,2.1-5.2,3.6c-3.1,3.1-5.5,7-7,11.1
		c-0.7,2.1-1.2,4.3-1.4,6.5c-0.3,2.2-0.2,4.5,0.1,6.8l0,0l-0.1-0.1c4,1.4,8.2,1.8,12.4,1.1c4.1-0.8,7.8-2.6,11-5.3
		c0.8-0.6,1.5-1.4,2.2-2.1c0.4-0.3,0.7-0.7,1-1.1c0.3-0.4,0.6-0.8,0.9-1.2c1.1-1.6,2-3.4,2.5-5.3c0.5-1.9,0.8-3.8,0.8-5.8
		c0-1-0.1-2-0.2-2.9c-0.1-0.5-0.1-1-0.2-1.4c0-0.2-0.1-0.5-0.2-0.7l-0.1-0.3l-0.1-0.2l0,0c0,0,0,0.1,0,0.1
		C161.4,84.4,161.5,84.5,161.6,84.6z M165.2,82.3c0.1,0.2,0.2,0.4,0.2,0.6l0.1,0.2l0,0v0.2l0.1,0.4c0.1,0.3,0.1,0.6,0.1,0.9
		c0.1,0.6,0.1,1.2,0.1,1.7c0.1,1.1,0,2.3-0.1,3.4c-0.2,2.3-0.7,4.6-1.5,6.7c-0.8,2.2-2,4.2-3.4,5.9c-0.7,0.9-1.5,1.7-2.4,2.4
		c-0.9,0.7-1.7,1.4-2.6,2.1c-3.6,2.6-7.8,4.2-12.2,4.7c-4.3,0.5-8.7-0.2-12.6-2H131v-0.1l0,0c-0.5-2.3-0.7-4.6-0.6-6.9
		c0.1-2.3,0.4-4.6,1-6.9c1.2-4.5,3.5-8.8,6.5-12.3c1.6-1.9,3.5-3.4,5.6-4.6c1.1-0.6,2.3-1,3.5-1.3c1.2-0.3,2.5-0.5,3.7-0.5
		c2.5,0,5,0.4,7.3,1.3c1.2,0.4,2.3,0.9,3.4,1.5c0.5,0.3,1.1,0.6,1.6,0.9l0.8,0.5l0.4,0.3l0.2,0.1l0.1,0.1l0,0
		C164.8,81.9,165,82.1,165.2,82.3z"/>
	<path class="st12" d="M55.4,82.3c0.1-0.2,0.3-0.4,0.5-0.5H56l0.1-0.1l0.2-0.1l0.4-0.3l0.8-0.5c0.5-0.3,1.1-0.6,1.6-0.9
		c1.1-0.6,2.2-1,3.4-1.5c2.3-0.9,4.8-1.3,7.3-1.3c1.3,0,2.5,0.2,3.7,0.5c1.2,0.3,2.4,0.8,3.5,1.3c2.2,1.2,4.1,2.7,5.6,4.6
		c3.1,3.6,5.3,7.8,6.5,12.3c0.6,2.2,0.9,4.5,1,6.9c0.1,2.3-0.1,4.6-0.6,6.9l0,0v0.1h-0.1c-4,1.8-8.3,2.5-12.7,2.1
		c-4.4-0.5-8.6-2.1-12.2-4.7c-0.9-0.6-1.7-1.4-2.6-2.1c-0.4-0.4-0.8-0.8-1.2-1.2c-0.4-0.4-0.8-0.8-1.2-1.2c-1.5-1.8-2.7-3.8-3.4-5.9
		c-0.8-2.2-1.3-4.4-1.5-6.7c-0.1-1.1-0.1-2.3,0-3.4c0-0.6,0.1-1.1,0.2-1.7c0-0.3,0-0.6,0.1-0.9l0.1-0.4v-0.2l0,0c0,0,0-0.2,0.1-0.2
		C55.3,82.7,55.3,82.5,55.4,82.3z M59.1,84.6c0.1-0.1,0.1-0.2,0.2-0.4c0,0,0-0.1,0-0.2l0,0v0.2l-0.1,0.3L59,85.3
		c-0.1,0.5-0.2,1-0.2,1.4c-0.1,1-0.2,2-0.2,2.9c0,2,0.2,3.9,0.8,5.8c0.5,1.9,1.4,3.7,2.5,5.3c0.3,0.4,0.6,0.8,0.9,1.2
		c0.3,0.4,0.6,0.8,1,1.1c0.8,0.7,1.4,1.5,2.2,2.1c3.2,2.7,6.9,4.5,11,5.3c4.1,0.7,8.4,0.4,12.4-1.1l-0.1,0.1l0,0
		c0.3-2.2,0.4-4.5,0.1-6.8c-0.2-2.2-0.7-4.4-1.5-6.5c-1.5-4.2-3.9-8-7-11.2c-1.5-1.5-3.2-2.8-5.2-3.6c-1.9-0.8-3.9-1.1-6-1
		c-2.1,0.1-4.1,0.7-6,1.5c-1,0.4-1.9,0.9-2.8,1.5c-0.4,0.3-0.9,0.6-1.3,0.9L59.1,84.6l-0.2,0.3L58.7,85l-0.1,0.1l0,0
		C58.8,84.9,59,84.8,59.1,84.6z"/>
	<path class="st12" d="M46,77.1c2.4-3.8,6-6.8,10.1-8.5c7.1-3.1,12.3-1.6,12.3-1.6s-3.9-6.1-11.2-4.8S46.7,72,46,77.1z"/>
	<path class="st12" d="M177.2,77.1c-2.4-3.8-6-6.8-10.1-8.5c-7.1-3.1-12.2-1.6-12.2-1.6s3.9-6.1,11.1-4.8S176.4,72,177.2,77.1z"/>
	<path class="st14" d="M82.3,122.9c0,0,22.8,8.3,57.7,1.1c0,0-11.6,4.9-29.5,6.1C98.2,130.8,85.4,126.5,82.3,122.9z"/>
</g>
<g id="scarf">
	<path class="st14" d="M66.8,139.8c0,0,10,23.4,44.3,23.4s44.9-22,44.9-22s-3.8,53.4-44.9,53.4S66.8,139.8,66.8,139.8z"/>
	<path class="st4" d="M158.5,153.2c0,23.9-21.2,56.5-47.3,56.5s-47.3-32.6-47.3-56.5c0-5.2,1-10.4,3-15.2
		c4.9,15.3,18.3,31.2,42.4,31.2c24.7,0,43.1-14.6,46.9-29.8C157.6,143.8,158.5,148.5,158.5,153.2z"/>
	<path class="st15" d="M66.8,139.8c0,0,6.4,43.9,44.6,43.9s44.6-44.3,44.6-44.3s-5.8,55.2-44.9,55.2S66.8,139.8,66.8,139.8z"/>
</g>
</svg>
