<?xml version="1.0" encoding="utf-8"?>
<!-- Generator: Adobe Illustrator 25.2.0, SVG Export Plug-In . SVG Version: 6.00 Build 0)  -->
<svg version="1.1" id="Layer_1" xmlns="http://www.w3.org/2000/svg" xmlns:xlink="http://www.w3.org/1999/xlink" x="0px" y="0px"
	 viewBox="0 0 209.7 382.8" style="enable-background:new 0 0 209.7 382.8;" xml:space="preserve">
<style type="text/css">
	.st0{fill:#ED6100;}
	.st1{fill:#311D44;}
	.st2{fill:#49ED00;}
	.st3{clip-path:url(#SVGID_2_);}
	.st4{fill:none;stroke:#35BA00;stroke-miterlimit:10;}
	.st5{fill:#FF8E06;}
	.st6{clip-path:url(#SVGID_4_);}
	.st7{fill:none;stroke:#ED6100;stroke-width:2;stroke-miterlimit:10;}
	.st8{fill:#1E122B;}
	.st9{fill:#35BA00;}
	.st10{fill:#FBFF43;stroke:#9AE0E2;stroke-width:0.92;stroke-miterlimit:10;}
	.st11{fill:#EFDD00;}
	.st12{opacity:0.35;fill:#9AE0E2;enable-background:new    ;}
	.st13{fill:#FBFF43;}
	.st14{fill:none;stroke:#1B264C;stroke-width:3;stroke-linecap:round;stroke-miterlimit:10;}
	.st15{fill:none;stroke:#1B264C;stroke-width:2;stroke-linecap:round;stroke-miterlimit:10;}
	.st16{fill:#D85092;}
	.st17{fill:#FFFFFF;}
	.st18{fill:none;stroke:#9AE0E2;stroke-width:3;stroke-miterlimit:10;}
	.st19{clip-path:url(#SVGID_6_);}
</style>
<path id="l-thigh" class="st0" d="M88.7,313.7c-18.1,5.7-25-1.6-27.1-8.7c-3-9.8,17-21.5,31.9-27.5c4.6-1.9,25-1,37.8-8.5
	c2.9,10,0,22.9-7.9,30.7C108,314.8,98,310.8,88.7,313.7z"/>
<g id="l-calf">
	<path class="st0" d="M61.9,309l11.9,54.8l8.1,1.1c0,0,8.5-28.6,1.9-54C76.5,282.5,61.9,309,61.9,309z"/>
	<path class="st1" d="M95.4,319c0.1,1.3,0.2,2.6,0.3,4c0.7,18.1-4.3,38.7-4.3,38.7L70.7,359l-11.4-40.3l-1.4-4.9
		c0,0,3.9-16.8,16.3-13.2C83,303.2,94.8,312.6,95.4,319z"/>
	<path class="st1" d="M91.5,359.1l0.2,8.7c0,1.4-0.7,1.9-2.3,2.8c-9.5,5.1-6,6.2-16.7,6.2c-10.4,0.1-13.3-1.6-13.8-5.8
		c-0.3-2.7,1.3-1.3,6.2-4.3c4-2.4,3.7-4.1,6-8.9c3.4-7,13-3.4,18.6-1.2C90.8,357,91.5,358,91.5,359.1z"/>
	<path class="st2" d="M95.4,319c0.1,1.3,0.2,2.6,0.3,4c-7.4-9.3-18.6-18-27-16.5c-5.5,1-9.3,12.2-9.3,12.2l-1.4-4.9
		c0,0,3.9-16.8,16.3-13.2C83,303.2,94.8,312.6,95.4,319z"/>
	<path class="st2" d="M91.7,367.8c0,1.4-0.7,2-2.3,2.8c-9.5,5.1-6,6.2-16.7,6.2c-10.4,0.1-13.3-1.6-13.8-5.8c-0.1-0.8,0-1.3,0.3-1.6
		c1,3.3,4.3,4.5,13.5,4.5c10.6-0.1,7.2-1.1,16.7-6.2c1.3-0.7,2.1-1.2,2.3-2.2L91.7,367.8z"/>
</g>
<path id="l-arm" class="st1" d="M48.2,217.3c14.5,0.7,33,4.1,43.4,1.1s17.7-20.3,9.1-25.1c0,0-22.5-9.1-54.5-8.7
	c0,0-15.2,2.9-12.7,17.1C36.2,216,48.2,217.3,48.2,217.3z"/>
<g id="l-hand">
	<g>
		<defs>
			<path id="SVGID_1_" d="M47.1,184.4c-9.9-7.4-11.4-12.9-20-13.1s-0.8,14.3-0.8,14.3S6.6,177,0.8,193s19.6,27,47.4,24.3
				c0,0,8.5-4,7.4-15.8S47.1,184.4,47.1,184.4z"/>
		</defs>
		<clipPath id="SVGID_2_">
			<use xlink:href="#SVGID_1_"  style="overflow:visible;"/>
		</clipPath>
		<g class="st3">
			<polygon class="st2" points="22.2,159.5 3.8,176.8 -6.9,210 52.1,225.5 60.8,188.6 			"/>
			<path class="st4" d="M33.8,223.3c0,0,8.7-7.3,12.8-14.6c3.9-6.9,5.8-19.5-6.9-32.9"/>
			<path class="st4" d="M8.3,219.1c0,0-10.4-12.6-3.6-26.7s28.5-2.3,28.5-2.3s-13.8-16.2-6.2-18.8s12.6,4.6,12.6,4.6"/>
		</g>
	</g>
</g>
<g id="torso">
	<path class="st0" d="M181.5,198c0,0,5.2,15.9,1.4,27.2s-20.2,43.8-20.2,43.8l-14.1-0.9c0,0,24.8-74,10-80.8c0,0,9.7-0.1,13.9,3
		C175.7,192.7,178.6,195.3,181.5,198z"/>
	<path class="st1" d="M174.6,247.5c0,2-0.1,4-0.2,5.9c-0.2,2.9-0.4,5.6-0.8,8.2c-2.3,16.4-8.3,28.6-14.7,36
		c-5.8,6.8-22.9,17-30.8,17c-8.7,0-19-6.8-25.4-12.2c-7.3-6.1-16.6-17.5-19-26.7c-4.1-15.1-5.7-30.8-4.9-46.4
		c0.8-12.2,5-28.8,13.9-38.4l0.4-0.4c13.3-13.5,56.8-13.5,70.1,0c6.4,6.6,9.4,20.4,10.6,36.3C174.5,233.5,174.6,240.5,174.6,247.5z"
		/>
	<path class="st5" d="M103.2,184.5c-1.9,1.5-5.7,3.8-7.9,7.3c-6.4,10.4-7.1,25.2-7.6,30.5c-1.3,11.9-0.6,23.9,2.1,35.5
		c0.7,2.9,1.5,5.8,2.5,8.6c0.9,2.6,3.2,7.2-0.9,9.1c-7.2,3.3-15-21.5-17.8-38.7c-1-5.7-4.6-26.6,0.3-40c2.2-6.1,7.8-9.9,15.2-12.1
		C93.7,183.2,98.6,183.1,103.2,184.5z"/>
	<g>
		<defs>
			<path id="SVGID_3_" d="M173.7,261.6c-2.3,16.4-8.3,28.6-14.7,36c-5.8,6.8-20,17-30.8,17s-27.6-10.3-33.4-17
				c-6.3-7.4-12.4-19.6-14.7-35.9c4.1,3.5,25.5,9,48.1,9C150.9,270.7,169.8,265.1,173.7,261.6z"/>
		</defs>
		<clipPath id="SVGID_4_">
			<use xlink:href="#SVGID_3_"  style="overflow:visible;"/>
		</clipPath>
		<g class="st6">
			<rect x="80.5" y="260" class="st5" width="95.3" height="54.6"/>
			<path class="st7" d="M79.2,268.5c0,0,21.8,13,48.6,12.6c25.1-0.4,38.9-4.1,49.4-12.6"/>
			<path class="st7" d="M109.7,279.5c0,15.4,8.9,33,24.3,39.8"/>
		</g>
	</g>
	<path class="st2" d="M91.8,277.4c0.3,4.6-0.1,10.4-2.6,12.5c-3,2.6-11.7-3.6-12.7-9.9s5.1-13.3,9.2-13
		C89.2,267.3,91.5,272.8,91.8,277.4z"/>
	<path class="st8" d="M174.6,247.5c0,2-0.1,4-0.2,5.9c-2.8,4.6-6,8.5-9,9.4c-8.1,2.4-13.9-18.1-14-27.9s6.6-22.9,6.6-22.9l15.9,14.8
		C174.5,233.5,174.6,240.5,174.6,247.5z"/>
</g>
<path id="r-arm" class="st1" d="M159.6,250.4c9-23.7-7.1-26.6-5.6-37.4s17.6-20.4,23.5-12.6c0,0,26.6,25.4,6.6,62.2
	c0,0-5.9,5.7-11.9,3S159.6,250.4,159.6,250.4z"/>
<g id="suspender">
	<path class="st5" d="M181.5,198c-2.1,0.4-4.8-1-7.9,1.2c-9,6.3-15.9,21.5-18.1,26.1c-5.2,10.7-8.6,22.2-10,34.1
		c-0.4,3.1-0.6,6.2-0.7,9.2c-0.1,2.9,0.2,7.1-3.8,8c-10.4,2.5-8.5-30.1-5.2-47.6c1.1-5.8,5.1-24.5,13.9-34.6c4-4.6,9.2-9.5,16.3-7.7
		C171.8,188.2,179.6,193,181.5,198z"/>
	<path class="st9" d="M143.2,281.9c1.1,6.4-1.2,12-5,12.6s-11.1-3.3-12.1-9.6s4.5-12.8,8.3-13.4S142.1,275.5,143.2,281.9z"/>
</g>
<path id="r-leg" class="st5" d="M127.7,319.7c-18.1,5.7-25-1.6-27.2-8.7c-3-9.8,17-21.5,31.9-27.5c4.6-1.9,25-1,37.8-8.5
	c2.9,9.9,0,22.9-7.9,30.6C146.9,320.7,136.9,316.8,127.7,319.7z"/>
<g id="r-calf">
	<path class="st5" d="M100.9,315l11.9,54.8l8.1,1.1c0,0,8.5-28.6,1.9-54C115.4,288.5,100.9,315,100.9,315z"/>
	<path class="st1" d="M134.3,325c0.1,1.3,0.2,2.6,0.3,4c0.7,18.1-4.3,38.7-4.3,38.7l-20.7-2.8l-11.4-40.2l-1.4-4.9
		c0,0,3.9-16.8,16.3-13.2C122,309.1,133.7,318.5,134.3,325z"/>
	<path class="st1" d="M130.5,365l0.2,8.7c0,1.4-0.7,2-2.3,2.8c-9.5,5.1-6,6.1-16.7,6.2c-10.4,0.1-13.3-1.5-13.8-5.8
		c-0.3-2.7,1.3-1.3,6.2-4.3c4-2.4,3.7-4.1,6-8.9c3.4-7,13-3.4,18.6-1.3C129.8,362.9,130.5,363.9,130.5,365z"/>
	<path class="st2" d="M134.3,325c0.1,1.3,0.2,2.6,0.3,4c-7.4-9.3-18.6-18-27-16.5c-5.5,1-9.3,12.2-9.3,12.2l-1.4-4.9
		c0,0,3.9-16.8,16.3-13.2C122,309.1,133.7,318.5,134.3,325z"/>
	<path class="st2" d="M130.7,373.8c0,1.4-0.7,2-2.4,2.8c-9.5,5.1-6,6.2-16.7,6.2c-10.4,0.1-13.3-1.6-13.8-5.8
		c-0.1-0.8,0-1.3,0.3-1.6c1,3.3,4.3,4.5,13.5,4.5c10.6-0.1,7.2-1.1,16.7-6.2c1.3-0.7,2.1-1.2,2.3-2.2L130.7,373.8z"/>
</g>
<g id="head">
	<ellipse class="st10" cx="128.1" cy="188.8" rx="25.3" ry="6.8"/>
	<path class="st11" d="M138.7,188.2c-5.3,5.8-14.4,6.2-20.2,0.8c-0.3-0.3-0.6-0.5-0.8-0.8v-36h21V188.2z"/>
	<path class="st12" d="M208.2,110.1c0,53.6-35.8,85.5-80,85.5s-80-31.9-80-85.5S88.4,1.5,128.2,1.5S208.2,56.5,208.2,110.1z"/>
	<path class="st13" d="M173.7,121.6c0,25.2-20.4,45.6-45.5,45.6s-45.6-20.4-45.6-45.5c0,0,0,0,0,0c0-11.6,6.8-27.4,13.5-41
		c7.9-15.9,6.6-28.8,32-28.8c25.8,0,24.4,13.2,32.3,29.3C167,94.6,173.7,110.1,173.7,121.6z"/>
	<path class="st5" d="M165,96.2C136,63.2,138,52.6,138,52.6l34.8,4.4c1.1,0.1,2.2,0.6,3,1.4c0.2,0.2,0.4,0.4,0.6,0.7
		c0.2,0.3,0.4,0.6,0.5,0.9l0,0c0.2,0.4,0.3,0.7,0.4,1.1C180.1,75.9,165,96.2,165,96.2z"/>
	<path class="st0" d="M165,96.2c0,0,0.8-17.4,4.6-27.1c3.2-8.1,5.2-11.1,6.3-10.7c0.3,0.1,0.5,0.4,0.6,0.7c0.1,0.3,0.3,0.6,0.5,0.9
		l0,0c0.2,0.4,0.3,0.7,0.4,1.1C180.1,75.9,165,96.2,165,96.2z"/>
	<line class="st14" x1="169.6" y1="79.1" x2="176.4" y2="82.6"/>
	<path class="st5" d="M187.9,84.6c-0.1,0.2-0.2,0.5-0.2,0.8c-0.2,0.5-0.4,1-0.5,1.5c-0.1,0.2-0.2,0.4-0.2,0.6
		c-1.9,4.4-4.7,8.2-7.6,9.7h-0.1c-1.8,0.9-8-1-8-1l10.3-27c0,0,5.9,2.7,6.6,4.6l0.1,0.2C189.4,76.8,189.1,80.8,187.9,84.6z"/>
	
		<ellipse transform="matrix(0.3566 -0.9343 0.9343 0.3566 36.3186 217.9214)" class="st5" cx="176.4" cy="82.6" rx="14.4" ry="3.8"/>
	<path class="st0" d="M187.9,84.6c-0.1,0.2-0.2,0.5-0.2,0.8c-0.2,0.5-0.4,1-0.5,1.5c-0.1,0.2-0.2,0.4-0.2,0.6
		c-1.9,4.4-4.7,8.2-7.6,9.7c-1.3-1.2-0.7-6.6,1.6-12.6s5.5-10.7,7.3-10.5C189.4,76.8,189.1,80.8,187.9,84.6z"/>
	<line class="st15" x1="190.7" y1="89.7" x2="183.8" y2="86.2"/>
	<path class="st5" d="M195.3,90.4c0,0.1-0.1,0.2-0.1,0.3s-0.1,0.4-0.2,0.6l-0.1,0.2c-0.6,1.5-1.6,2.8-2.9,3.8l0,0
		c-0.7,0.4-3.1-0.4-3.1-0.4l4-10.5c0,0,2.3,1.1,2.6,1.8v0.1C195.9,87.6,195.8,89.1,195.3,90.4z"/>
	<ellipse transform="matrix(0.3566 -0.9343 0.9343 0.3566 39.0708 235.9534)" class="st5" cx="190.8" cy="89.6" rx="5.6" ry="1.5"/>
	<path class="st0" d="M195.3,90.4c0,0.1-0.1,0.2-0.1,0.3s-0.1,0.4-0.2,0.6l-0.1,0.2c-0.6,1.5-1.6,2.8-2.9,3.8
		c-0.5-0.5-0.3-2.6,0.6-4.9s2.1-4.2,2.8-4.1C195.9,87.6,195.8,89.1,195.3,90.4z"/>
	<path class="st5" d="M64.4,95.2c0.7,0.3,3.1-0.4,3.1-0.4l-4-10.5c0,0-2.3,1.1-2.6,1.8C59.7,88.9,62,94.1,64.4,95.2z"/>
	<ellipse transform="matrix(0.9343 -0.3566 0.3566 0.9343 -27.653 29.2252)" class="st0" cx="65.4" cy="89.6" rx="1.4" ry="5.6"/>
	<line class="st15" x1="73.8" y1="85.5" x2="65.6" y2="89.7"/>
	<path class="st5" d="M77,97.1c1.8,0.9,8-1,8-1l-10.3-27c0,0-5.9,2.7-6.6,4.6C65.1,80.8,71.1,94.2,77,97.1z"/>
	<ellipse transform="matrix(0.9343 -0.3566 0.3566 0.9343 -24.2067 33.9108)" class="st0" cx="79.9" cy="82.6" rx="3.8" ry="14.4"/>
	<line class="st14" x1="93.6" y1="75.6" x2="79.9" y2="82.6"/>
	<path class="st5" d="M118.3,52.6c0,0-10.9,4.6-28.4,41.4c0,0-13.7-17.9-10.9-32.9c0.4-2.2,2.2-3.9,4.4-4.1L118.3,52.6z"/>
	<path class="st11" d="M105.6,131.7c0,0-6.9,1.3-5.2,5.5c1,2.5,2.9,4.6,5.2,6c0,0-2.2-5-2.1-6.7
		C103.6,135.2,105.6,131.7,105.6,131.7z"/>
	<path class="st11" d="M137.3,132.9c0,0,6.9,1.3,5.2,5.5c-1,2.5-2.9,4.6-5.2,6V132.9z"/>
	<path class="st16" d="M132.1,108.6l-23.1,0.9c-2.7,1.8-5.2,3.9-7.5,6.3c-1.6,5.5,9,18.2,18.6,18.2c9.5,0,16.4-10.1,15.8-14.6
		C135.4,115.5,134.1,111.9,132.1,108.6z"/>
	<path class="st13" d="M132.7,112.3c0.3,2.1,0.4,4.1,0.3,6.2c-0.2,1.7-7.5,6.8-17.8,5.9s-14.4-7-13.8-8.7c1.1-2,2.3-4,3.6-5.9
		c6.8-9.9,10.4-14.3,11.4-22.2s5.5-7.3,7.5-7.5s6.2-0.3,5.8,5.8C129.6,89.9,131.5,101.5,132.7,112.3z"/>
	<path class="st0" d="M139.6,137.5c-4.7,3.8-12.8,6.7-21.7,6.1s-12.3-3.3-14.4-7.1c0,0,6,13.6,14.4,14.2S139.6,137.5,139.6,137.5z"
		/>
	
		<ellipse transform="matrix(0.9857 -0.1687 0.1687 0.9857 -13.4492 25.2047)" class="st1" cx="141.6" cy="91.8" rx="10.6" ry="16.3"/>
	<path class="st1" d="M95.2,87.1c-2.5,8.5,0.5,16.9,5.4,18.8s11.1-3.6,13.6-12.1s0.5-16.9-4.4-18.8S97.8,78.6,95.2,87.1z"/>
	
		<ellipse transform="matrix(4.414246e-02 -0.999 0.999 4.414246e-02 17.7475 191.4102)" class="st17" cx="108.9" cy="86.4" rx="5.4" ry="3.2"/>
	
		<ellipse transform="matrix(0.9954 -9.567202e-02 9.567202e-02 0.9954 -7.6801 14.1901)" class="st17" cx="144.1" cy="87.2" rx="3.5" ry="5.4"/>
	<polygon class="st16" points="97.2,72.3 110.7,68.3 110.6,63.8 96.3,68.3 	"/>
	<polygon class="st16" points="150.8,71.6 137,68.3 136.9,63.8 151.4,67.5 	"/>
	<path class="st18" d="M208.2,110.1c0,53.6-35.8,85.5-80,85.5s-80-31.9-80-85.5S88.4,1.5,128.2,1.5S208.2,56.5,208.2,110.1z"/>
	
		<ellipse transform="matrix(0.6899 -0.7239 0.7239 0.6899 27.3289 114.5665)" class="st17" cx="147.4" cy="25.4" rx="6.9" ry="8.7"/>
	<path class="st17" d="M164.5,33.5c0.9,0.8,1.7,1.4,2.4,2.2s1.5,1.5,2.2,2.2s1.4,1.5,2,2.3s1.4,1.5,2,2.3l1.9,2.4
		c0.6,0.8,1.2,1.7,1.8,2.5s1.2,1.6,1.7,2.5l1.6,2.6c4.2,6.9,7.7,14.1,10.4,21.7c1.2,3.8,2.5,7.6,3.4,11.5l0.7,2.9
		c0.2,1,0.5,1.9,0.6,2.9l1.1,5.9c0.2,1,0.4,2,0.5,2.9l0.3,3l0.7,5.9c0.3,3.9,0.4,7.9,0.6,11.8c-0.4-3.9-0.8-7.9-1.3-11.8l-1-5.8
		l-0.5-2.9c-0.2-1-0.4-1.9-0.7-2.9l-1.4-5.7c-0.2-1-0.5-1.9-0.8-2.8l-0.9-2.8c-1.1-3.8-2.6-7.4-4-11c-3.1-7.1-6.9-13.9-11.3-20.3
		l-1.7-2.3c-0.6-0.8-1.2-1.5-1.8-2.3s-1.2-1.5-1.8-2.2l-1.9-2.1c-0.6-0.7-1.3-1.4-2-2.1s-1.3-1.4-2-2s-1.4-1.3-2.1-1.9
		s-1.5-1.2-2.1-1.7l-0.1-0.1c-1.3-1-1.7-2.8-0.7-4.2C161.2,32.8,163.1,32.5,164.5,33.5L164.5,33.5L164.5,33.5z"/>
	<path class="st17" d="M66.9,130c-0.1,5.1,0.8,10.2,2.8,14.9c2,4.9,4.6,9.6,7.7,13.9c3.1,4.4,6.7,8.5,10.6,12.2c2,1.9,4,3.6,6.2,5.3
		c2.2,1.7,4.5,3.1,7,4.2c-2.6-0.9-5.1-2.1-7.4-3.6c-2.3-1.5-4.6-3-6.7-4.8c-4.3-3.4-8.4-7.3-12-11.5c-3.7-4.2-6.9-8.9-9.5-13.9
		c-2.7-5.2-4.4-10.9-4.7-16.7l0,0c-0.1-1.7,1.2-3.1,2.9-3.1c1.7-0.1,3.1,1.2,3.1,2.9L66.9,130z"/>
</g>
<g id="r-hand">
	<g>
		<defs>
			<path id="SVGID_5_" d="M160.1,240.6c-12.2,1.7-17.2-1.2-23.5,4.7s9.5,10.8,9.5,10.8s-20.1,7.7-13,23.1s33,5,51-16.5
				c0,0,3.1-8.3-6-15.8S160.1,240.6,160.1,240.6z"/>
		</defs>
		<clipPath id="SVGID_6_">
			<use xlink:href="#SVGID_5_"  style="overflow:visible;"/>
		</clipPath>
		<g class="st19">
			<polygon class="st2" points="124.8,240.3 123.9,265.5 139.5,296.7 192.5,266.4 172.7,234 			"/>
			<path class="st4" d="M177.8,277.7c0,0,1.1-11.3-1.1-19.4c-2-7.6-9.6-18-27.9-18.6"/>
			<path class="st4" d="M156.8,292.5c0,0-16.2-1.7-21.3-16.5s18.7-21.6,18.7-21.6s-21.2-1.8-17.6-9.1s12.2-5.6,12.2-5.6"/>
		</g>
	</g>
</g>
</svg>
