<?xml version="1.0" encoding="utf-8"?>
<!-- Generator: Adobe Illustrator 25.2.0, SVG Export Plug-In . SVG Version: 6.00 Build 0)  -->
<svg version="1.1" id="Layer_1" xmlns="http://www.w3.org/2000/svg" xmlns:xlink="http://www.w3.org/1999/xlink" x="0px" y="0px"
	 viewBox="0 0 215.5 379.1" style="enable-background:new 0 0 215.5 379.1;" xml:space="preserve">
<style type="text/css">
	.st0{fill:#311D44;}
	.st1{fill:#FF8E06;}
	.st2{fill:#49ED00;}
	.st3{clip-path:url(#SVGID_2_);}
	.st4{fill:none;stroke:#ED6100;stroke-width:2;stroke-miterlimit:10;}
	.st5{clip-path:url(#SVGID_4_);}
	.st6{fill:none;stroke:#35BA00;stroke-miterlimit:10;}
	.st7{clip-path:url(#SVGID_6_);}
	.st8{fill:#FBFF43;stroke:#9AE0E2;stroke-width:0.92;stroke-miterlimit:10;}
	.st9{fill:#EFDD00;}
	.st10{opacity:0.35;fill:#9AE0E2;enable-background:new    ;}
	.st11{fill:#FBFF43;}
	.st12{fill:#ED6100;}
	.st13{fill:none;stroke:#1B264C;stroke-width:2;stroke-linecap:round;stroke-miterlimit:10;}
	.st14{fill:none;stroke:#1B264C;stroke-width:3;stroke-linecap:round;stroke-miterlimit:10;}
	.st15{fill:#D85092;}
	.st16{fill:#FFFFFF;}
	.st17{fill:none;stroke:#9AE0E2;stroke-width:3;stroke-miterlimit:10;}
</style>
<path id="r-arm" class="st0" d="M185.4,251.3c-8-12.1-20.4-26.3-23.1-36.8s8.5-25.6,16.9-20.6c0,0,19.3,14.8,35.2,42.5
	c0,0,5.3,14.6-8.2,19.6S185.4,251.3,185.4,251.3z"/>
<path id="l-arm" class="st0" d="M48.5,196.5c14.5-0.4,33.1-3.3,43.4-0.1s17.2,20.8,8.5,25.3c0,0-22.8,8.5-54.7,7.3
	c0,0-15.2-3.3-12.2-17.4S48.5,196.5,48.5,196.5z"/>
<path id="r-thigh" class="st1" d="M186.5,306.5c-0.5,11.1-4.7,24.2-22.5,21.6c-8.1-1.2-11.6-5.7-19.3-11.4c-5.4-4-8.5-7-3.8-17.8
	c4.5-10.2,30-26.4,34-21.7C176.9,279.7,187.2,291.5,186.5,306.5z"/>
<g id="r-calf">
	<path class="st1" d="M176.1,314.1l-11.9,54.8l-8.1,1.1c0,0-8.5-28.6-1.9-54C161.6,287.6,176.1,314.1,176.1,314.1z"/>
	<path class="st0" d="M149.4,324.1c-0.1,1.3-0.2,2.6-0.3,4c-0.7,18.1,4.3,38.7,4.3,38.7l20.7-2.8l11.4-40.2l1.4-4.9
		c0,0-3.9-16.8-16.3-13.2C161.8,308.3,150,317.7,149.4,324.1z"/>
	<path class="st0" d="M153.3,364.2l-0.2,8.7c0,1.4,1,2.6,2.3,2.8c3.2,0.5,7.2,0.2,12.6,1.3c4.3,0.9,13.9,3.6,21.9,0.6
		c0.6-0.2,1.9-2.1,2.6-3.4c0-0.3-0.2-0.5-0.4-0.6c-0.9-0.7-3.4-1.2-6.7-2.6c-4.1-1.6-6.8-4.5-11.6-8.1c-6.2-4.7-13-3.4-18.6-1.3
		C154.1,362.1,153.4,363.1,153.3,364.2z"/>
	<path class="st2" d="M153.2,370.7l-0.1,2.2c0,1.4,1,2.6,2.3,2.8c3.2,0.5,7.2,0.2,12.6,1.3c4.3,0.9,13.9,3.6,21.9,0.6
		c0.6-0.2,1.9-2.1,2.6-3.4c0-0.3-0.2-0.5-0.4-0.6c-1.3,1.1-3.6,2.1-7.6,2.5C174.9,376.9,157.4,372.8,153.2,370.7z"/>
	<path class="st2" d="M149.4,324.1c-0.1,1.3-0.2,2.6-0.3,4c7.4-9.3,18.6-18,27-16.5c5.5,1,9.3,12.2,9.3,12.2l1.4-4.9
		c0,0-3.9-16.8-16.3-13.2C161.8,308.3,150,317.7,149.4,324.1z"/>
</g>
<path id="l-thigh" class="st1" d="M77.8,306.5c0.5,11.1,4.7,24.2,22.5,21.6c8.1-1.2,11.6-5.7,19.3-11.4c5.4-4,8.5-7,3.8-17.8
	c-4.5-10.2-30-26.4-34-21.7C87.3,279.7,77.1,291.5,77.8,306.5z"/>
<g id="l-calf">
	<path class="st1" d="M88.1,314.1l11.9,54.8l8.1,1.1c0,0,8.5-28.6,1.9-54C102.7,287.6,88.1,314.1,88.1,314.1z"/>
	<path class="st0" d="M114.8,324.1c0.1,1.3,0.2,2.6,0.2,4c0.7,18.1-4.3,38.7-4.3,38.7l-20.7-2.8l-11.4-40.2l-1.4-4.9
		c0,0,3.9-16.8,16.3-13.2C102.5,308.3,114.2,317.7,114.8,324.1z"/>
	<path class="st0" d="M110.9,364.2l0.2,8.7c0,1.4-1,2.6-2.3,2.8c-3.2,0.5-7.2,0.2-12.6,1.3c-4.3,0.9-14,3.6-21.9,0.6
		c-0.7-0.2-1.9-2.1-2.6-3.4c0-0.3,0.2-0.5,0.4-0.6c0.9-0.7,3.3-1.2,6.7-2.6c4.1-1.6,6.8-4.5,11.6-8.1c6.2-4.7,13-3.4,18.6-1.3
		C110.2,362.1,110.9,363.1,110.9,364.2z"/>
	<path class="st2" d="M111.1,370.7l0.1,2.2c0,1.4-1,2.6-2.3,2.8c-3.2,0.5-7.2,0.2-12.6,1.3c-4.3,0.9-14,3.6-21.9,0.6
		c-0.7-0.2-1.9-2.1-2.6-3.4c0-0.3,0.2-0.5,0.4-0.6c1.3,1.1,3.6,2.1,7.6,2.5C89.4,376.9,106.9,372.8,111.1,370.7z"/>
	<path class="st2" d="M114.8,324.1c0.1,1.3,0.2,2.6,0.2,4c-7.4-9.3-18.6-18-27-16.5c-5.5,1-9.3,12.2-9.3,12.2l-1.4-4.9
		c0,0,3.9-16.8,16.3-13.2C102.5,308.3,114.2,317.7,114.8,324.1z"/>
</g>
<g id="torso">
	<path class="st0" d="M178.6,247.4c0,4.7-0.3,9.4-1,14.1c-2.3,16.4-12.6,28.6-18.2,36c-5.1,6.8-19.3,17-27.2,17s-22-10.3-27.2-17
		c-5.6-7.4-15.9-19.6-18.2-35.9c-0.7-4.7-1-9.4-1-14.2c0-23.6,2.2-47.6,11.3-57c13.3-13.5,56.8-13.5,70.1,0
		C176.4,199.8,178.6,223.8,178.6,247.4z"/>
	<path class="st1" d="M100.9,187.2c-1.6,1.4-5,3.7-6.5,7.1c-4.5,10-2.3,24.5-1.9,29.6c1,11.9,4,23.5,8.8,34.4
		c1.3,2.8,2.6,5.6,4.1,8.3c1.4,2.5,3.8,6,0.8,8.8c-7.7,7.4-20.1-21.4-26.2-38.1c-2-5.6-10.6-23.9-8.3-36.9c1.1-5.9,8-10.9,15-13.1
		C91.3,185.9,96.3,185.8,100.9,187.2z"/>
	<path class="st1" d="M163.4,187.2c1.6,1.4,5,3.7,6.5,7.1c4.5,10,2.3,24.5,1.9,29.6c-1,11.9-4,23.5-8.8,34.4
		c-1.2,2.8-2.6,5.6-4.1,8.3c-1.4,2.5-3.8,6-0.8,8.8c7.6,7.4,20.1-21.4,26.2-38.1c2.1-5.6,10.6-23.9,8.3-36.9
		c-1.1-5.9-8-10.9-15-13.1C172.9,185.9,168,185.8,163.4,187.2z"/>
	<g>
		<defs>
			<path id="SVGID_1_" d="M177.6,261.5c-2.3,16.4-8.3,28.6-14.7,36c-5.8,6.8-20,17-30.8,17s-24.9-10.3-30.7-17
				c-6.3-7.4-12.4-19.6-14.7-35.9c4.1,3.5,22.8,9,45.4,9C154.9,270.6,173.8,265,177.6,261.5z"/>
		</defs>
		<clipPath id="SVGID_2_">
			<use xlink:href="#SVGID_1_"  style="overflow:visible;"/>
		</clipPath>
		<g class="st3">
			<rect x="84.5" y="259.9" class="st1" width="95.3" height="54.6"/>
			<path class="st4" d="M83.1,268.4c0,0,21.8,13,48.6,12.6c25.1-0.4,38.9-4.1,49.4-12.6"/>
			<line class="st4" x1="132.1" y1="281" x2="132.1" y2="326.4"/>
		</g>
	</g>
	<g id="buttons">
		<path class="st2" d="M110.4,278.1c2,6.1,0.7,12.1-3,13.3S96,289.9,94,283.8s2.4-13.3,6.1-14.5S108.4,272,110.4,278.1z"/>
		<path class="st2" d="M152.8,278.1c-2,6.1-0.7,12.1,3,13.3s11.4-1.5,13.4-7.6s-2.4-13.3-6.1-14.5S154.8,272,152.8,278.1z"/>
	</g>
</g>
<g id="l-hand">
	<g>
		<defs>
			<path id="SVGID_3_" d="M48.5,196.5c-8.8-8.6-9.6-14.4-18.1-15.7s-2.7,14.1-2.7,14.1s-18.4-11.2-26.2,3.9
				c-7.9,15.1,16.3,29.2,44.3,30.3c0,0,8.4-2.6,8.9-14.4S48.5,196.5,48.5,196.5z"/>
		</defs>
		<clipPath id="SVGID_4_">
			<use xlink:href="#SVGID_3_"  style="overflow:visible;"/>
		</clipPath>
		<g class="st5">
			<polygon class="st2" points="27.2,168.4 6.7,183.1 -8.5,214.6 48,237.9 61.5,202.5 			"/>
			<path class="st6" d="M30,233.2c0,0,9.6-6.1,14.7-12.7c4.8-6.3,8.4-18.5-2.3-33.5"/>
			<path class="st6" d="M5.4,225.7c0,0-8.6-13.9,0.1-27s28.6,1.6,28.6,1.6s-11.5-17.9-3.6-19.5s11.9,6.2,11.9,6.2"/>
		</g>
	</g>
</g>
<g id="r-hand">
	<g>
		<defs>
			<path id="SVGID_5_" d="M191.2,227.2c-12.3-0.7-16.6-4.6-23.9-0.1s7.2,12.4,7.2,12.4s-21.2,3.6-17.3,20.1s31.4,11.4,53.3-6.1
				c0,0,4.6-7.5-2.7-16.7S191.2,227.2,191.2,227.2z"/>
		</defs>
		<clipPath id="SVGID_6_">
			<use xlink:href="#SVGID_5_"  style="overflow:visible;"/>
		</clipPath>
		<g class="st7">
			<polygon class="st2" points="156.7,220 150.8,244.5 159.9,278.2 217.9,259 204.9,223.3 			"/>
			<path class="st6" d="M201.3,267.1c0,0,3.3-10.9,2.8-19.2c-0.5-7.9-5.8-19.5-23.7-23.8"/>
			<path class="st6" d="M177.7,277.5c0,0-15.6-4.9-17.6-20.5s22.6-17.5,22.6-17.5s-20.4-6-15.5-12.4s13.1-3.1,13.1-3.1"/>
		</g>
	</g>
</g>
<g id="head">
	<ellipse class="st8" cx="132.1" cy="188.8" rx="25.3" ry="6.8"/>
	<path class="st9" d="M142.6,188.3c-5.3,5.8-14.4,6.2-20.2,0.8c-0.3-0.3-0.6-0.5-0.8-0.8v-36h21V188.3z"/>
	<path class="st10" d="M212.2,110.1c0,53.6-35.8,85.5-80,85.5s-80-31.9-80-85.5S92.3,1.5,132.1,1.5S212.2,56.5,212.2,110.1z"/>
	<path class="st11" d="M177.6,121.6c0,25.2-20.4,45.5-45.6,45.5c-25.2,0-45.5-20.4-45.5-45.5c0-11.6,6.8-27.4,13.5-41.1
		c7.9-15.9,6.6-28.8,32-28.8c25.8,0,24.4,13.2,32.3,29.3C171,94.6,177.6,110.2,177.6,121.6z"/>
	<path class="st1" d="M195.9,95.3c-0.7,0.3-3.1-0.4-3.1-0.4l4-10.5c0,0,2.3,1.1,2.6,1.8C200.5,89,198.2,94.2,195.9,95.3z"/>
	
		<ellipse transform="matrix(0.3566 -0.9343 0.9343 0.3566 41.5464 239.6367)" class="st12" cx="194.8" cy="89.7" rx="5.6" ry="1.4"/>
	<line class="st13" x1="194.7" y1="89.8" x2="186.4" y2="85.6"/>
	<path class="st1" d="M183.2,97.2c-1.8,0.9-8-1-8-1l10.3-27c0,0,5.9,2.7,6.6,4.6C195.1,80.9,189.1,94.3,183.2,97.2z"/>
	<ellipse transform="matrix(0.361 -0.9326 0.9326 0.361 37.0243 221.92)" class="st12" cx="180.4" cy="83.9" rx="14.4" ry="3.7"/>
	<line class="st14" x1="166.7" y1="75.7" x2="180.3" y2="82.7"/>
	<path class="st1" d="M142,52.7c0,0,10.9,4.6,28.4,41.4c0,0,13.7-17.9,10.9-32.9c-0.4-2.2-2.2-3.9-4.4-4.1L142,52.7z"/>
	<path class="st1" d="M68.3,95.3c0.7,0.3,3.1-0.4,3.1-0.4l-4-10.5c0,0-2.3,1.1-2.6,1.8C63.7,89,66,94.2,68.3,95.3z"/>
	<ellipse transform="matrix(0.9343 -0.3566 0.3566 0.9343 -27.4156 30.6399)" class="st12" cx="69.4" cy="89.7" rx="1.4" ry="5.6"/>
	<line class="st13" x1="77.8" y1="85.6" x2="69.5" y2="89.8"/>
	<path class="st1" d="M81,97.2c1.8,0.9,8-1,8-1l-10.3-27c0,0-5.9,2.7-6.7,4.6C69,80.9,75,94.3,81,97.2z"/>
	
		<ellipse transform="matrix(0.9343 -0.3566 0.3566 0.9343 -23.9657 35.3248)" class="st12" cx="83.8" cy="82.7" rx="3.8" ry="14.4"/>
	<line class="st14" x1="97.5" y1="75.7" x2="83.8" y2="82.7"/>
	<path class="st1" d="M122.2,52.7c0,0-10.9,4.6-28.4,41.4c0,0-13.7-17.9-10.9-32.9c0.4-2.2,2.2-3.9,4.4-4.1L122.2,52.7z"/>
	<path class="st9" d="M114.3,134.9c0,0-6.9,1.3-5.2,5.5c1,2.5,2.8,4.6,5.2,6V134.9z"/>
	<path class="st9" d="M148.6,134.9c0,0,6.9,1.3,5.2,5.5c-1,2.5-2.8,4.6-5.2,6V134.9z"/>
	<path class="st11" d="M145.9,112c0.8,2,1.5,4.1,2,6.2c0.2,1.8-5.5,7.5-15.9,7.5s-16.1-5.8-15.8-7.5c0.5-2.1,1.2-4.2,2-6.2
		c4-10.6,6.8-16.5,7.3-24.3s5-6.7,7-6.7s6.3,0.3,6.3,6.5C138.8,91.3,141.8,101.2,145.9,112z"/>
	<path class="st15" d="M145.9,112c0.7,2,1.3,4.1,1.7,6.2c0.2,1.8-5.2,7.5-15.5,7.5s-15.8-5.8-15.5-7.5c0.4-2.1,1-4.2,1.7-6.2
		c0,0-1.9,2.8-2.7,8.4c-0.7,4.6,8.5,16.1,16.6,16.1c7.8,0,17.3-11.2,16.7-15.6C147.9,114.6,145.9,112,145.9,112z"/>
	<path class="st12" d="M150.6,138.4c-4.6,4.1-9.9,7.5-18.7,7.5c-7.3-0.1-14.3-2.4-20.3-6.5c0,0,12.1,12.9,20.3,12.9
		S150.6,138.4,150.6,138.4z"/>
	
		<ellipse transform="matrix(0.9857 -0.1687 0.1687 0.9857 -13.3967 26.8458)" class="st0" cx="151.3" cy="92.3" rx="10.6" ry="16.3"/>
	
		<ellipse transform="matrix(0.1687 -0.9857 0.9857 0.1687 2.8532 187.9449)" class="st0" cx="112.8" cy="92.3" rx="16.3" ry="10.6"/>
	
		<ellipse transform="matrix(0.9954 -9.567202e-02 9.567202e-02 0.9954 -7.856 11.522)" class="st16" cx="116.2" cy="87.7" rx="3.5" ry="5.4"/>
	
		<ellipse transform="matrix(0.9954 -9.567202e-02 9.567202e-02 0.9954 -7.683 15.1181)" class="st16" cx="153.8" cy="87.7" rx="3.5" ry="5.4"/>
	<polygon class="st15" points="104.1,73.3 117.7,69.4 117.6,65 103.2,69.3 	"/>
	<polygon class="st15" points="160.8,71.7 146.8,69.3 146.4,64.9 161.2,67.6 	"/>
	<path class="st17" d="M212.2,110.1c0,53.6-35.8,85.5-80,85.5s-80-31.9-80-85.5S92.3,1.5,132.1,1.5S212.2,56.5,212.2,110.1z"/>
	
		<ellipse transform="matrix(0.6899 -0.7239 0.7239 0.6899 28.5131 117.4431)" class="st16" cx="151.3" cy="25.4" rx="6.9" ry="8.7"/>
	<path class="st16" d="M168.4,33.6c0.9,0.8,1.7,1.4,2.4,2.2s1.5,1.5,2.2,2.2s1.4,1.5,2.1,2.3s1.4,1.5,2,2.3L179,45
		c0.6,0.8,1.2,1.7,1.8,2.5s1.2,1.6,1.7,2.5l1.6,2.6c4.2,6.9,7.6,14.1,10.3,21.7c1.2,3.8,2.6,7.6,3.4,11.5l0.7,2.9
		c0.2,1,0.5,1.9,0.6,2.9l1.1,5.9c0.2,1,0.4,1.9,0.5,2.9l0.3,2.9l0.7,5.9c0.3,3.9,0.4,7.9,0.6,11.8c-0.4-3.9-0.8-7.9-1.3-11.7l-1-5.8
		l-0.5-2.9c-0.2-1-0.4-1.9-0.7-2.9l-1.4-5.7c-0.2-1-0.5-1.9-0.8-2.8l-0.9-2.8c-1.1-3.8-2.6-7.4-4-11c-3.1-7.1-6.9-13.9-11.3-20.3
		l-1.7-2.3c-0.6-0.8-1.2-1.5-1.8-2.3s-1.2-1.5-1.8-2.2l-1.9-2.1c-0.6-0.7-1.3-1.4-2-2.1s-1.3-1.4-2-2s-1.4-1.3-2.1-1.9
		s-1.5-1.2-2.1-1.7l-0.1-0.1c-1.4-0.9-1.7-2.8-0.8-4.2s2.8-1.7,4.2-0.8c0.1,0,0.1,0.1,0.1,0.1C168.4,33.5,168.4,33.5,168.4,33.6z"/>
	<path class="st16" d="M70.9,130c-0.1,5.1,0.8,10.2,2.8,14.9c2,4.9,4.6,9.6,7.7,13.9c3.1,4.4,6.7,8.5,10.6,12.2c2,1.9,4,3.6,6.2,5.3
		c2.2,1.7,4.5,3.1,7,4.2c-2.6-0.9-5.1-2.1-7.4-3.6c-2.3-1.5-4.6-3-6.7-4.8c-4.3-3.4-8.4-7.3-12-11.5c-3.7-4.2-6.9-8.9-9.5-13.9
		c-2.7-5.2-4.4-10.9-4.7-16.7l0,0c-0.1-1.7,1.2-3.1,2.9-3.1c1.7-0.1,3.1,1.2,3.1,2.9L70.9,130z"/>
</g>
</svg>
