<?xml version="1.0" encoding="utf-8"?>
<!-- Generator: Adobe Illustrator 25.2.0, SVG Export Plug-In . SVG Version: 6.00 Build 0)  -->
<svg version="1.1" id="Layer_1" xmlns="http://www.w3.org/2000/svg" xmlns:xlink="http://www.w3.org/1999/xlink" x="0px" y="0px"
	 viewBox="0 0 170.7 418.2" style="enable-background:new 0 0 170.7 418.2;" xml:space="preserve">
<style type="text/css">
	.st0{fill:#311D44;}
	.st1{clip-path:url(#SVGID_2_);}
	.st2{fill:#49ED00;}
	.st3{fill:none;stroke:#35BA00;stroke-miterlimit:10;}
	.st4{fill:#FF8E06;}
	.st5{fill:#ED6100;}
	.st6{fill:#1E122B;}
	.st7{clip-path:url(#SVGID_4_);}
	.st8{fill:none;stroke:#ED6100;stroke-width:2;stroke-miterlimit:10;}
	.st9{fill:#FBFF43;stroke:#9AE0E2;stroke-width:0.92;stroke-miterlimit:10;}
	.st10{fill:#EFDD00;}
	.st11{opacity:0.35;fill:#9AE0E2;enable-background:new    ;}
	.st12{fill:#FBFF43;}
	.st13{fill:none;stroke:#1B264C;stroke-width:3;stroke-linecap:round;stroke-miterlimit:10;}
	.st14{fill:none;stroke:#1B264C;stroke-width:2;stroke-linecap:round;stroke-miterlimit:10;}
	.st15{fill:#D85092;}
	.st16{fill:#FFFFFF;}
	.st17{fill:none;stroke:#9AE0E2;stroke-width:3;stroke-miterlimit:10;}
	.st18{clip-path:url(#SVGID_6_);}
</style>
<path id="l-arm" class="st0" d="M16.9,177.5c7.7,12.3,15.4,29.5,23.8,36.4s26.8,3,25.8-6.8c0,0-5.4-23.7-23.9-49.7
	c0,0-11-10.9-21.2-0.7S16.9,177.5,16.9,177.5z"/>
<g id="l-hand">
	<g>
		<defs>
			<path id="SVGID_1_" d="M43.3,157.9c0.4-12.3,4.1-16.8-0.6-23.9s-12.2,7.5-12.2,7.5s-4.2-21.1-20.6-16.7s-11.1,31.4,7,52.8
				c0,0,8.2,4.7,17.2-2.9S43.3,157.9,43.3,157.9z"/>
		</defs>
		<clipPath id="SVGID_2_">
			<use xlink:href="#SVGID_1_"  style="overflow:visible;"/>
		</clipPath>
		<g class="st1">
			<polygon class="st2" points="49.6,123.2 24.9,117.9 -8.6,128 12.3,185.4 47.6,171.4 			"/>
			<path class="st3" d="M3.7,169.1c0,0,11,3,19.3,2.2c7.9-0.7,19.3-6.4,23.1-24.4"/>
			<path class="st3" d="M-7.3,145.8c0,0,4.5-15.7,19.9-18.2s18.1,22.1,18.1,22.1s5.4-20.6,12-15.8s3.5,13,3.5,13"/>
		</g>
	</g>
</g>
<path id="_-thigh" class="st4" d="M47.3,295.3c0,0,3.2,28.2,8.6,41.8c8.8,22.2,11.7,25.9,20.3,26.5s10.1-19.9,11.3-37.2
	c0.4-6,4.6-28.2-4.2-38.1c-12.4-14-38.4-29.5-38-19.2C45.4,275.6,45.6,287.6,47.3,295.3z"/>
<g id="l-calf">
	<path class="st4" d="M62.6,350.4l11.9,54.8l8.1,1.1c0,0,8.5-28.6,1.9-54C77.2,323.9,62.6,350.4,62.6,350.4z"/>
	<path class="st0" d="M89.4,360.4c0.1,1.3,0.2,2.6,0.2,4c0.7,18.1-4.3,38.7-4.3,38.7l-20.7-2.7l-11.4-40.2l-1.4-4.9
		c0,0,3.9-16.8,16.3-13.2C77,344.5,88.8,353.9,89.4,360.4z"/>
	<path class="st0" d="M85.4,400.4l0.2,8.7c0,1.4-1,2.6-2.3,2.8c-3.2,0.5-7.2,0.2-12.6,1.3c-4.3,0.9-13.9,3.6-21.9,0.6
		c-0.7-0.2-1.9-2.1-2.6-3.4c0-0.3,0.2-0.5,0.4-0.6c0.9-0.7,3.3-1.2,6.7-2.6c4.1-1.6,6.8-4.5,11.6-8.1c6.3-4.7,13-3.4,18.6-1.3
		C84.7,398.3,85.4,399.3,85.4,400.4z"/>
	<path class="st2" d="M85.6,406.9l0.1,2.2c0,1.4-1,2.6-2.3,2.8c-3.2,0.5-7.2,0.2-12.6,1.3c-4.3,0.9-13.9,3.6-21.9,0.6
		c-0.7-0.2-1.9-2.1-2.6-3.4c0-0.3,0.2-0.5,0.4-0.6c1.3,1.1,3.6,2.1,7.6,2.5C63.9,413.1,81.4,409,85.6,406.9z"/>
	<path class="st2" d="M89.4,360.4c0.1,1.3,0.2,2.6,0.2,4c-7.4-9.3-18.6-18-27-16.5c-5.5,1-9.3,12.2-9.3,12.2l-1.4-4.9
		c0,0,3.9-16.8,16.3-13.2C77,344.5,88.8,353.9,89.4,360.4z"/>
</g>
<path id="r0thigh" class="st4" d="M131.1,295.3c0,0-3.2,28.2-8.6,41.8c-8.8,22.2-11.7,25.9-20.3,26.5s-10.1-19.9-11.3-37.1
	c-0.4-6-4.6-28.2,4.2-38.1c12.4-14,38.4-29.5,38.1-19.2C133,275.6,132.8,287.6,131.1,295.3z"/>
<g id="r-calf">
	<path class="st4" d="M93.5,350.4l11.9,54.8l8.1,1.1c0,0,8.5-28.6,1.9-54C108,323.9,93.5,350.4,93.5,350.4z"/>
	<path class="st0" d="M127,360.4c0.1,1.3,0.2,2.6,0.3,4c0.7,18.1-4.3,38.7-4.3,38.7l-20.7-2.7l-11.4-40.2l-1.4-4.9
		c0,0,3.9-16.8,16.3-13.2C114.6,344.5,126.4,353.9,127,360.4z"/>
	<path class="st0" d="M123.1,400.4l0.2,8.7c0,1.4-0.7,1.9-2.3,2.8c-9.5,5.1-6.1,6.2-16.7,6.2c-10.4,0.1-13.3-1.6-13.8-5.8
		c-0.3-2.8,1.3-1.3,6.2-4.3c4-2.4,3.6-4.1,6-8.9c3.4-7,13-3.4,18.6-1.3C122.3,398.3,123,399.3,123.1,400.4z"/>
	<path class="st2" d="M127,360.4c0.1,1.3,0.2,2.6,0.3,4c-7.4-9.3-18.6-18-27-16.5c-5.5,1-9.4,12.2-9.4,12.2l-1.4-4.9
		c0,0,3.9-16.8,16.3-13.2C114.6,344.5,126.4,353.9,127,360.4z"/>
	<path class="st2" d="M123.3,409.1c0,1.4-0.7,2-2.4,2.8c-9.5,5.1-6,6.2-16.7,6.2c-10.4,0.1-13.3-1.6-13.8-5.8
		c-0.1-0.8,0-1.3,0.3-1.6c1,3.3,4.3,4.5,13.5,4.5c10.6-0.1,7.2-1.1,16.7-6.2c1.3-0.7,2.1-1.2,2.3-2.2L123.3,409.1z"/>
</g>
<g id="torso">
	<path class="st5" d="M142.5,198c0,0,5.2,15.9,1.4,27.2S123.8,269,123.8,269l-14.1-0.9c0,0,24.8-74,10-80.8c0,0,9.7-0.1,13.9,3
		C136.7,192.7,139.7,195.3,142.5,198z"/>
	<path class="st0" d="M135.6,247.5c0,2-0.1,4-0.2,5.9c-0.2,2.9-0.4,5.6-0.8,8.2c-2.3,16.4-8.3,28.6-14.7,36
		c-5.8,6.8-22.9,17-30.8,17c-8.7,0-19-6.8-25.4-12.2c-7.3-6.1-16.6-17.5-19-26.7c-4.1-15.1-5.7-30.8-4.9-46.4
		c0.8-12.2,5.1-28.8,13.9-38.4l0.4-0.4c13.3-13.5,56.3-13,70.1,0c19.2,18,19.2,21.5,13.6,35.4C135.3,232.1,135.6,240.5,135.6,247.5z
		"/>
	<path class="st4" d="M64.2,184.5c-1.9,1.5-5.7,3.8-7.9,7.3c-6.4,10.4-7.1,25.2-7.6,30.5c-1.3,11.9-0.6,23.9,2.1,35.5
		c0.7,2.9,1.5,5.8,2.5,8.6c0.9,2.6,3.2,7.2-0.9,9.1c-7.2,3.3-15-21.5-17.8-38.7c-1-5.7-4.6-26.6,0.3-40c2.2-6.1,7.8-9.9,15.2-12.1
		C54.6,183.2,59.6,183.1,64.2,184.5z"/>
	<path class="st6" d="M135.6,247.5c0,2-0.1,4-0.2,5.9c-2.8,4.6-6,8.5-9,9.4c-8.1,2.4-13.9-18.1-14-27.9s6.6-22.9,6.6-22.9l20.4,9.6
		C136.4,230.3,135.6,240.5,135.6,247.5z"/>
	<g>
		<defs>
			<path id="SVGID_3_" d="M134.7,261.6c-2.3,16.4-8.3,28.6-14.7,36c-5.8,6.8-20,17-30.8,17s-27.6-10.3-33.5-17
				c-6.3-7.4-12.4-19.6-14.7-35.9c4.1,3.5,25.5,9,48.1,9C111.9,270.7,130.8,265.1,134.7,261.6z"/>
		</defs>
		<clipPath id="SVGID_4_">
			<use xlink:href="#SVGID_3_"  style="overflow:visible;"/>
		</clipPath>
		<g class="st7">
			<rect x="41.5" y="260" class="st4" width="95.3" height="54.6"/>
			<path class="st8" d="M40.2,268.5c0,0,21.8,13,48.6,12.6c25.1-0.4,38.9-4.1,49.4-12.6"/>
			<path class="st8" d="M70.7,279.5c0,15.5,9,33,24.3,39.8"/>
		</g>
	</g>
	<path class="st2" d="M52.8,277.4c0.3,4.6-0.1,10.4-2.6,12.5c-3,2.6-11.7-3.6-12.7-9.9s5.1-13.3,9.2-13
		C50.2,267.3,52.6,272.8,52.8,277.4z"/>
	<path class="st4" d="M142.5,198c-2.1,0.4-4.8-1-7.8,1.2c-9,6.4-15.9,21.5-18.1,26.1c-5.2,10.7-8.6,22.2-10,34.1
		c-0.4,3.1-0.6,6.2-0.7,9.2c-0.1,2.9,0.2,7.1-3.8,8c-10.4,2.5-8.5-30.1-5.2-47.6c1.1-5.8,5.1-24.5,13.9-34.5c4-4.6,9.2-9.5,16.3-7.7
		C132.8,188.1,140.6,193,142.5,198z"/>
	<path class="st2" d="M93.4,283.5c-1.1,6.4,1.2,12,5,12.6s11.1-3.3,12.1-9.6s-4.5-12.8-8.3-13.4S94.5,277.1,93.4,283.5z"/>
</g>
<g id="head">
	<ellipse class="st9" cx="89.2" cy="188.7" rx="25.3" ry="6.8"/>
	<path class="st10" d="M99.7,188.2c-5.4,5.8-14.4,6.2-20.2,0.8c-0.3-0.3-0.5-0.5-0.8-0.8v-36h21V188.2z"/>
	<path class="st11" d="M169.2,110.1c0,53.6-35.8,85.5-80,85.5s-80-31.9-80-85.5S49.4,1.5,89.2,1.5S169.2,56.5,169.2,110.1z"/>
	<path class="st12" d="M134.7,121.6c0,25.2-20.4,45.6-45.5,45.6s-45.6-20.4-45.6-45.5c0,0,0,0,0,0c0-11.6,6.8-27.4,13.5-41.1
		c7.8-15.9,6.6-28.8,32-28.8c25.8,0,24.4,13.2,32.3,29.3C128.1,94.5,134.7,110.1,134.7,121.6z"/>
	<path class="st4" d="M126,96.2C97.1,63.2,99,52.6,99,52.6l34.8,4.4c1.1,0.1,2.2,0.6,3,1.4c0.2,0.2,0.4,0.4,0.6,0.7
		c0.2,0.3,0.4,0.6,0.5,0.9l0,0c0.2,0.4,0.3,0.7,0.4,1.1C141.1,75.9,126,96.2,126,96.2z"/>
	<path class="st5" d="M126,96.2c0,0,0.8-17.3,4.6-27.1c3.2-8.1,5.2-11.1,6.3-10.7c0.3,0.1,0.5,0.4,0.6,0.7c0.1,0.3,0.3,0.6,0.5,0.9
		l0,0c0.2,0.4,0.3,0.7,0.4,1.1C141.1,75.9,126,96.2,126,96.2z"/>
	<line class="st13" x1="130.6" y1="79.1" x2="137.4" y2="82.6"/>
	<path class="st4" d="M148.9,84.5c-0.1,0.2-0.2,0.5-0.2,0.8c-0.2,0.5-0.4,1-0.5,1.5c-0.1,0.2-0.2,0.4-0.2,0.6
		c-1.9,4.4-4.7,8.2-7.6,9.7h-0.1c-1.8,0.9-8-1-8-1l10.3-27c0,0,5.9,2.7,6.6,4.6l0.1,0.2C150.4,76.8,150.1,80.7,148.9,84.5z"/>
	
		<ellipse transform="matrix(0.3566 -0.9343 0.9343 0.3566 11.2493 181.4829)" class="st4" cx="137.4" cy="82.6" rx="14.4" ry="3.8"/>
	<path class="st5" d="M148.9,84.5c-0.1,0.2-0.2,0.5-0.2,0.8c-0.2,0.5-0.4,1-0.5,1.5c-0.1,0.2-0.2,0.4-0.2,0.6
		c-1.9,4.4-4.7,8.2-7.6,9.7c-1.3-1.2-0.7-6.6,1.6-12.6s5.5-10.7,7.3-10.5C150.4,76.8,150.1,80.7,148.9,84.5z"/>
	<line class="st14" x1="151.7" y1="89.7" x2="144.8" y2="86.2"/>
	<path class="st4" d="M156.4,90.4c0,0.1-0.1,0.2-0.1,0.3l-0.2,0.6c0,0.1-0.1,0.2-0.1,0.2c-0.6,1.5-1.6,2.8-2.9,3.8l0,0
		c-0.7,0.3-3.1-0.4-3.1-0.4l4-10.5c0,0,2.3,1,2.6,1.8c0,0,0,0.1,0,0.1C156.9,87.6,156.8,89,156.4,90.4z"/>
	<ellipse transform="matrix(0.3566 -0.9343 0.9343 0.3566 13.9969 199.5269)" class="st4" cx="151.9" cy="89.6" rx="5.6" ry="1.5"/>
	<path class="st5" d="M156.4,90.4c0,0.1-0.1,0.2-0.1,0.3l-0.2,0.6c0,0.1-0.1,0.2-0.1,0.2c-0.6,1.5-1.6,2.8-2.9,3.8
		c-0.5-0.5-0.3-2.6,0.6-4.9s2.1-4.2,2.8-4.1C156.9,87.6,156.8,89,156.4,90.4z"/>
	<path class="st4" d="M25.4,95.2c0.7,0.3,3.1-0.4,3.1-0.4l-4-10.5c0,0-2.3,1.1-2.6,1.8C20.7,88.9,23.1,94.1,25.4,95.2z"/>
	<ellipse transform="matrix(0.9343 -0.3566 0.3566 0.9343 -30.2128 15.3295)" class="st5" cx="26.5" cy="89.6" rx="1.4" ry="5.6"/>
	<line class="st14" x1="34.8" y1="85.5" x2="26.6" y2="89.7"/>
	<path class="st4" d="M38,97.1c1.8,0.9,8-1,8-1l-10.3-27c0,0-5.9,2.7-6.6,4.6C26.1,80.8,32.1,94.2,38,97.1z"/>
	<ellipse transform="matrix(0.9343 -0.3566 0.3566 0.9343 -26.7624 20.0059)" class="st5" cx="40.9" cy="82.6" rx="3.8" ry="14.4"/>
	<line class="st13" x1="54.6" y1="75.6" x2="40.9" y2="82.6"/>
	<path class="st4" d="M79.3,52.6c0,0-10.9,4.6-28.4,41.4c0,0-13.7-17.9-10.9-32.9c0.4-2.2,2.2-3.9,4.4-4.1L79.3,52.6z"/>
	<path class="st10" d="M66.6,131.7c0,0-6.9,1.3-5.2,5.5c1,2.5,2.8,4.6,5.2,6c0,0-2.2-5-2.1-6.7C64.6,135.2,66.6,131.7,66.6,131.7z"
		/>
	<path class="st10" d="M98.3,132.9c0,0,6.9,1.3,5.2,5.5c-1,2.5-2.8,4.6-5.2,6V132.9z"/>
	<path class="st15" d="M93.1,108.6l-23.1,0.9c-2.7,1.9-5.2,4-7.5,6.3c-1.6,5.5,9,18.2,18.6,18.2c9.5,0,16.4-10.1,15.8-14.6
		C96.5,115.5,95.2,111.8,93.1,108.6z"/>
	<path class="st12" d="M93.8,112.3c0.3,2.1,0.4,4.1,0.3,6.2c-0.2,1.7-7.4,6.8-17.8,5.9s-14.4-7-13.8-8.7c1.1-2,2.3-4,3.6-5.9
		c6.8-9.9,10.4-14.3,11.4-22.2s5.5-7.3,7.5-7.5s6.2-0.3,5.8,5.8C90.6,89.9,92.5,101.5,93.8,112.3z"/>
	<path class="st5" d="M100.6,137.4c-4.7,3.8-12.7,6.7-21.7,6.1s-12.3-3.2-14.4-7.1c0,0,6,13.6,14.4,14.1S100.6,137.4,100.6,137.4z"
		/>
	
		<ellipse transform="matrix(0.9857 -0.1687 0.1687 0.9857 -14.0042 18.6283)" class="st0" cx="102.7" cy="91.8" rx="10.6" ry="16.3"/>
	<path class="st0" d="M56.2,87.1c-2.5,8.5,0.5,16.9,5.5,18.8s11.1-3.6,13.6-12.1s0.5-16.9-4.5-18.8S58.8,78.6,56.2,87.1z"/>
	
		<ellipse transform="matrix(3.996804e-02 -0.9992 0.9992 3.996804e-02 -19.0461 151.8096)" class="st16" cx="69.5" cy="85.8" rx="5.4" ry="3.2"/>
	
		<ellipse transform="matrix(0.9954 -9.567202e-02 9.567202e-02 0.9954 -7.8567 10.4593)" class="st16" cx="105.1" cy="87.2" rx="3.5" ry="5.4"/>
	<polygon class="st15" points="58.2,72.3 71.8,68.3 71.6,63.8 57.3,68.3 	"/>
	<polygon class="st15" points="111.8,71.6 98,68.3 97.9,63.8 112.4,67.5 	"/>
	<path class="st17" d="M169.2,110.1c0,53.6-35.8,85.5-80,85.5s-80-31.9-80-85.5S49.4,1.5,89.2,1.5S169.2,56.5,169.2,110.1z"/>
	<ellipse transform="matrix(0.6899 -0.7239 0.7239 0.6899 15.2457 86.3303)" class="st16" cx="108.4" cy="25.4" rx="6.9" ry="8.7"/>
	<path class="st16" d="M125.5,33.5c0.9,0.8,1.6,1.4,2.4,2.2s1.5,1.5,2.2,2.2s1.4,1.5,2.1,2.3s1.4,1.5,2,2.3l1.9,2.4
		c0.6,0.8,1.2,1.7,1.8,2.5s1.2,1.6,1.7,2.5l1.6,2.6c4.2,6.9,7.6,14.1,10.3,21.7c1.2,3.8,2.6,7.6,3.4,11.5l0.7,2.9
		c0.2,1,0.5,1.9,0.6,2.9l1.1,5.9c0.2,1,0.4,2,0.5,2.9l0.3,3l0.7,5.9c0.3,3.9,0.4,7.9,0.6,11.8c-0.4-3.9-0.8-7.9-1.3-11.8l-1-5.8
		l-0.5-2.9c-0.2-1-0.5-1.9-0.7-2.9l-1.4-5.7c-0.2-1-0.5-1.9-0.8-2.8l-0.9-2.8c-1.1-3.8-2.6-7.4-4-11c-3.1-7.1-6.9-13.9-11.3-20.3
		l-1.7-2.3c-0.6-0.8-1.2-1.5-1.8-2.3s-1.2-1.5-1.8-2.2l-1.9-2.1c-0.6-0.7-1.3-1.4-2-2.1s-1.3-1.4-2-2s-1.4-1.3-2.1-1.9
		s-1.5-1.2-2.1-1.7l-0.1-0.1c-1.3-1-1.7-2.8-0.7-4.2C122.2,32.7,124.1,32.4,125.5,33.5L125.5,33.5z"/>
	<path class="st16" d="M28,130c-0.1,5.1,0.8,10.2,2.8,14.9c2,4.9,4.6,9.6,7.7,13.9c3.1,4.4,6.7,8.5,10.6,12.2c2,1.9,4,3.6,6.2,5.3
		c2.2,1.7,4.5,3.1,7,4.2c-2.6-0.9-5.1-2.1-7.4-3.6c-2.3-1.4-4.6-3-6.7-4.8c-4.3-3.4-8.4-7.3-12-11.5c-3.7-4.2-6.9-8.9-9.5-13.9
		c-2.7-5.2-4.3-10.9-4.7-16.7l0,0c-0.1-1.7,1.2-3.1,2.9-3.1c1.7-0.1,3.1,1.2,3.1,2.9C28,129.8,28,129.9,28,130z"/>
</g>
<path id="r-arm" class="st0" d="M130.1,171.9c4.3,13.9,12.2,30.9,12,41.8s-15.3,22.2-22,15.1c0,0-14.4-19.6-22-50.6
	c0,0-1-15.5,13.3-16.5S130.1,171.9,130.1,171.9z"/>
<g id="r-hand">
	<g>
		<defs>
			<path id="SVGID_5_" d="M130.1,171.9c5.9-10.9,11.2-13.1,10.2-21.7s-14.3,1.3-14.3,1.3s5.7-20.7-10.9-24.2s-23.6,23.7-17,50.9
				c0,0,4.8,7.4,16.3,4.6S130.1,171.9,130.1,171.9z"/>
		</defs>
		<clipPath id="SVGID_6_">
			<use xlink:href="#SVGID_5_"  style="overflow:visible;"/>
		</clipPath>
		<g class="st18">
			<polygon class="st2" points="151.3,143.7 131.6,127.9 97.1,122 90.2,182.7 128,186 			"/>
			<path class="st3" d="M89.7,164.2c0,0,8.5,7.6,16.3,10.6c7.4,2.9,20.1,3,31.6-11.4"/>
			<path class="st3" d="M90.3,138.4c0,0,11-12,26-7.3s6.3,27.9,6.3,27.9s14-16,17.8-8.8s-2.7,13.2-2.7,13.2"/>
		</g>
	</g>
</g>
</svg>
