<?xml version="1.0" encoding="utf-8"?>
<!-- Generator: Adobe Illustrator 25.2.0, SVG Export Plug-In . SVG Version: 6.00 Build 0)  -->
<svg version="1.1" id="Layer_1" xmlns="http://www.w3.org/2000/svg" xmlns:xlink="http://www.w3.org/1999/xlink" x="0px" y="0px"
	 viewBox="0 0 169.5 416.3" style="enable-background:new 0 0 169.5 416.3;" xml:space="preserve">
<style type="text/css">
	.st0{fill:#ED6100;}
	.st1{fill:#311D44;}
	.st2{fill:#49ED00;}
	.st3{clip-path:url(#SVGID_2_);}
	.st4{fill:none;stroke:#35BA00;stroke-miterlimit:10;}
	.st5{fill:#FF8E06;}
	.st6{fill:#1E122B;}
	.st7{clip-path:url(#SVGID_4_);}
	.st8{fill:none;stroke:#ED6100;stroke-width:2;stroke-miterlimit:10;}
	.st9{clip-path:url(#SVGID_6_);}
	.st10{fill:#FBFF43;stroke:#9AE0E2;stroke-width:0.92;stroke-miterlimit:10;}
	.st11{fill:#EFDD00;}
	.st12{opacity:0.35;fill:#9AE0E2;enable-background:new    ;}
	.st13{fill:none;stroke:#1B264C;stroke-width:3;stroke-linecap:round;stroke-miterlimit:10;}
	.st14{fill:#FFFFFF;}
	.st15{fill:#FBFF43;}
	.st16{fill:none;stroke:#1B264C;stroke-width:2;stroke-linecap:round;stroke-miterlimit:10;}
	.st17{fill:#D85092;}
	.st18{fill:none;stroke:#9AE0E2;stroke-width:3;stroke-miterlimit:10;}
</style>
<path id="b-thigh" class="st0" d="M49.1,290.5c0,0,3.7,29.9,8.1,43.9c7.2,22.8,9.8,26.6,18.4,27.9c8.6,1.3,11.5-19.1,13.9-36.3
	c0.8-6,10.2-25.6,2.1-36.1C80.1,275,64,273,55.8,274.6C52.1,275.4,47.4,281.7,49.1,290.5z"/>
<g id="b-calf">
	<path class="st0" d="M63.3,349l13.2,54.5l8.1,0.9c0,0,7.8-28.8,0.6-54C77.2,322.2,63.3,349,63.3,349z"/>
	<path class="st1" d="M93.6,358.4c0.1,1.3,0.3,2.6,0.3,4c1.1,18-3.5,38.8-3.5,38.8l-19.9,0.5l-13.1-42.8l-1.5-4.9
		c0,0-4.8-11.6,8.2-11C75.5,343.5,92.9,352,93.6,358.4z"/>
	<path class="st1" d="M90.7,398.8l0.1,8.3v4.7c-6.6,1-13.2,1.5-19.8,1.5c-12,0.1-19.6-2.8-19.6-2.8l-1.4-4.3c0,0,13.3-2.1,20.3-7.2
		C77.3,393.9,84.9,396.2,90.7,398.8z"/>
	<path class="st2" d="M90.8,407.1v4.7c-6.6,1-13.2,1.5-19.8,1.5c-12,0.1-19.6-2.8-19.6-2.8l-1.4-4.3c0,0,3,1.6,12.5,2.5
		C72,409.6,86.5,409.1,90.8,407.1z"/>
	<path class="st2" d="M93.1,353.4c0.1,1.3,0.6,4.8,0.7,6.1c-17.5-14.4-29.5-15.8-33.2-15.6c-5.1,0.3-5.1,8-5.1,8s-4.7-14.5,8.2-13.9
		C75,338.5,92.3,347,93.1,353.4z"/>
</g>
<path id="b-arm" class="st1" d="M50.6,251.9c9.3-11.1,23.2-23.8,27.1-33.9s-5.5-26.4-14.5-22.4c0,0-20.8,12.5-39.8,38.2
	c0,0-6.9,13.9,5.9,20.4C42.2,260.7,50.6,251.9,50.6,251.9z"/>
<g id="b-hand">
	<g>
		<defs>
			<path id="SVGID_1_" d="M23.7,232.9c-11.8,3.5-17.2,1.3-22.5,8s10.9,9.3,10.9,9.3S-6.7,260.7,2.6,275s33.3,0.7,48-23.1
				c0,0,1.9-9.2-8.1-15.4S23.7,232.9,23.7,232.9z"/>
		</defs>
		<clipPath id="SVGID_2_">
			<use xlink:href="#SVGID_1_"  style="overflow:visible;"/>
		</clipPath>
		<g class="st3">
			<polygon class="st2" points="-11.2,237.7 -8.5,262.8 11.5,291.5 59.5,253.7 35.2,224.6 			"/>
			<path class="st4" d="M46.6,267.1c0,0-0.6-11.3-3.9-19c-3.1-7.3-12-16.4-30.4-14.4"/>
			<path class="st4" d="M27.9,284.8c0,0-16.3,0.7-23.5-13.3s15.4-24.1,15.4-24.1s-21.3,1.3-18.8-6.4s11.3-7.3,11.3-7.3"/>
		</g>
	</g>
</g>
<path id="f-thigh" class="st5" d="M78.2,298.6c0,0,3.3,25.2,8,39.1c7.7,22.6,10.4,26.4,19,27.5c8.6,1.1,11.1-19.4,13.1-36.6
	c0.7-6,13.4-28.1,12.8-51.1c-18.7,1.2-29.2,1.9-37.8,4C89.1,282.5,76.8,290.8,78.2,298.6z"/>
<g id="f-calf">
	<path class="st5" d="M92.5,352.2l14.5,54.1l8.1,0.7c0,0,7.1-29-0.7-54C105.8,325.1,92.5,352.2,92.5,352.2z"/>
	<path class="st1" d="M123.1,360.9c0.2,1.3,0.3,2.6,0.4,4c1.5,18-2.5,38.9-2.5,38.9l-19.9,1L87,362.2l-1.6-4.8
		c0,0-5.1-11.5,7.9-11.2C104.6,346.4,122.2,354.5,123.1,360.9z"/>
	<path class="st1" d="M121.1,401.3l0.3,8.3l0.2,4.6c-6.5,1.2-13.2,1.8-19.8,2c-12,0.4-19.6-2.3-19.6-2.3l-1.5-4.3
		c0,0,13.2-2.4,20.1-7.6C107.7,396.8,115.2,398.8,121.1,401.3z"/>
	<path class="st2" d="M121.4,409.6l0.2,4.6c-6.5,1.2-13.2,1.8-19.8,2c-12,0.4-19.6-2.3-19.6-2.3l-1.5-4.3c0,0,3,1.6,12.6,2.2
		S117.2,411.7,121.4,409.6z"/>
	<path class="st2" d="M122.4,355.9c0.2,1.3,0.7,4.7,0.8,6.1c-17.8-14-29.8-15.1-33.6-14.8c-5.1,0.4-4.9,8.1-4.9,8.1
		s-5-14.4,7.9-14.1C104,341.4,121.5,349.5,122.4,355.9z"/>
</g>
<g id="torso">
	<path class="st0" d="M141.7,199.9c0,0,4.7,14,0.9,25.4s-15.2,45.9-15.2,45.9h-12.9c0,0,16.1-68.7,1.3-75.6c0,0,11-5.7,15.2-2.6
		S141.7,199.9,141.7,199.9z"/>
	<path class="st5" d="M79.5,181.3c-1.9,1.5-20.9,5.4-23.1,9c-6.4,10.4-7.1,25.2-7.6,30.5c-1.3,11.9-0.6,23.9,2.1,35.5
		c0.7,2.9-3.4,3.9-2.5,6.7c0.9,2.6,2.3,8.6-1.9,10.5c-7.2,3.3-9-21-11.9-38.2c-1-5.7-4.6-27.2,2.6-39.6c3.3-5.6,8.5-9.4,15.3-13.1
		C60.7,178.2,73.4,177.7,79.5,181.3z"/>
	<path class="st1" d="M134.9,225.2c-0.6,7.2-4.4,14.7-4.3,22.3c0.1,10,0.1,18.5-1.1,26.2c-1.4,8.9-4.5,16.6-10.8,23.9
		c-5.8,6.8-22.9,17-30.8,17c-8.7,0-18.3-8.3-24.7-13.7c-7.3-6.1-23.1-23.3-25.5-32.4c-3.7-14-1.1-33.1,1.5-44.3
		c3.1-13,7.2-23.9,13.2-33.2c0.1-0.1,0.2-0.3,0.4-0.4c13.3-13.5,56.8-13.5,70.1,0c7.8,7.9,12.1,18.6,12.1,29.7
		C135.1,221.9,135,223.6,134.9,225.2z"/>
	<path class="st6" d="M134.9,225.2c-0.6,7.2-4.4,14.7-4.3,22.3c0.1,10,0.1,18.5-1.1,26.2c-8.3,5.5-24,11.4-44-0.3
		c-2.1-1.2,9.3-66.1,27.7-65.6c10.6,0.2,17.6,4.6,21.9,12.5C135.1,221.9,135,223.6,134.9,225.2z"/>
	<g>
		<defs>
			<path id="SVGID_3_" d="M130.5,261.7c2.2,22.5-1.9,30.3-8.3,37.5c-13.9,15.5-26.3,15.4-37.1,15.5c-13.9,0.1-27.6-10.3-33.4-17
				c-7.8-8.9-14-21.7-15.6-36.8c4.1,3.5,26.4,10,49,10C107.8,270.8,126.7,265.1,130.5,261.7z"/>
		</defs>
		<clipPath id="SVGID_4_">
			<use xlink:href="#SVGID_3_"  style="overflow:visible;"/>
		</clipPath>
		<g class="st7">
			<rect x="34.4" y="260" class="st5" width="98.4" height="54.6"/>
			<path class="st8" d="M36,268.5c14.8,7.1,31.1,10.7,47.5,10.5c25.1-0.4,40-2,50.5-10.5"/>
			<path class="st8" d="M42.3,271.3c0,15.5,19.7,36.7,35.1,43.4"/>
		</g>
	</g>
</g>
<path id="f-arm" class="st1" d="M105.4,259.3c-1.3-14.5-5.4-32.8-2.8-43.4s19.7-18.4,24.7-10.1c0,0,9.9,22.2,10.7,54.1
	c0,0-2.3,15.3-16.6,13.3S105.4,259.3,105.4,259.3z"/>
<g id="f-hand">
	<g>
		<defs>
			<path id="SVGID_5_" d="M105.4,259.3c-8,9.4-13.7,10.5-14.5,19c-0.8,8.5,14.2,1.8,14.2,1.8s-10,19,5.5,26s28.1-18.1,27.4-46.1
				c0,0-3.1-8.2-14.9-7.9S105.4,259.3,105.4,259.3z"/>
		</defs>
		<clipPath id="SVGID_6_">
			<use xlink:href="#SVGID_5_"  style="overflow:visible;"/>
		</clipPath>
		<g class="st9">
			<polygon class="st2" points="78.8,282.3 94.7,301.9 127.1,315 146.8,257.2 110.6,245.9 			"/>
			<path class="st4" d="M143.3,275.4c0,0-6.6-9.2-13.6-13.9c-6.6-4.4-19-7.2-33.3,4.5"/>
			<path class="st4" d="M137.3,300.4c0,0-13.3,9.4-26.9,1.6c-13.6-7.8-0.2-28.6-0.2-28.6s-17.1,12.6-19.2,4.8s5.5-12.3,5.5-12.3"/>
		</g>
	</g>
</g>
<g id="head">
	<ellipse class="st10" cx="87.9" cy="188.8" rx="25.3" ry="6.8"/>
	<path class="st11" d="M98.4,188.3c-5.4,5.8-14.4,6.2-20.2,0.8c-0.3-0.3-0.5-0.5-0.8-0.8v-36h21V188.3z"/>
	<path class="st12" d="M168,110.1c0,53.6-35.8,85.5-80,85.5S7.9,163.7,7.9,110.1S48.1,1.5,87.9,1.5S168,56.5,168,110.1z"/>
	<path class="st5" d="M43.7,89c0.8,0.4,4-0.6,4-0.6l-4.6-12.3c0,0-3.1,1.4-3.4,2.2C38.3,81.7,41,87.7,43.7,89z"/>
	<ellipse transform="matrix(0.9363 -0.3512 0.3512 0.9363 -26.5607 20.2807)" class="st5" cx="42.6" cy="83.4" rx="3.4" ry="6"/>
	<ellipse transform="matrix(0.9363 -0.3512 0.3512 0.9363 -26.0098 21.1996)" class="st0" cx="45.4" cy="82.3" rx="3.7" ry="6.6"/>
	<path class="st5" d="M52.4,91.3c1.8,0.9,8.9-1.3,8.9-1.3L51.2,63c0,0-6.8,3-7.6,4.9C40.6,74.9,46.5,88.4,52.4,91.3z"/>
	<ellipse transform="matrix(0.9363 -0.3512 0.3512 0.9363 -24.4695 22.6039)" class="st5" cx="50.1" cy="78.8" rx="7.5" ry="13.2"/>
	<ellipse transform="matrix(0.9363 -0.3512 0.3512 0.9363 -23.2551 24.6348)" class="st0" cx="56.3" cy="76.4" rx="8.2" ry="14.4"/>
	<line class="st13" x1="55.4" y1="75.2" x2="68.9" y2="71.5"/>
	<path class="st5" d="M57.1,78.6c4.8,7.8,11.5,14.5,11.5,14.6c6-3.2,14.5-11.5,19.3-19.5c12-20.4,1-21.3,1-21.3
		c-6.1,0-14-0.2-19.5,0c-4,0.2-8.2,0.3-10.3,1C53,55.4,51.4,69.3,57.1,78.6z"/>
	<ellipse transform="matrix(0.2297 -0.9733 0.9733 0.2297 -43.5835 126.3269)" class="st1" cx="58" cy="90.7" rx="15.2" ry="9.9"/>
	<ellipse transform="matrix(0.3009 -0.9537 0.9537 0.3009 -40.372 120.2913)" class="st14" cx="61.9" cy="87.7" rx="5.1" ry="3.3"/>
	<path class="st15" d="M133.4,121.6c0,25.2-20.4,45.5-45.5,45.5c-29.6,0-45.6-20.4-45.6-45.5c0-11.6,6.8-27.4,13.5-41.1
		c7.9-15.9,6.6-28.8,32-28.8c25.8,0,24.4,13.2,32.3,29.3C126.8,94.6,133.4,110.1,133.4,121.6z"/>
	<path class="st5" d="M125.9,82.6c-5.7,7.1-13.2,12.9-13.2,13.1c-5.6-3.9-12.9-13.2-16.6-21.8c-9.4-21.7,1.7-21.3,1.7-21.3
		c6,0.8,13.9,1.5,19.4,2.4c4,0.7,8.1,1.3,10.1,2.3C132.9,60.1,132.7,74.2,125.9,82.6z"/>
	<path class="st0" d="M125.9,82.6c-5.7,7.1-13.2,12.9-13.2,13.1c-2.1-6.2-3.3-12.8-3.6-19.4c-0.1-10.6,6.7-21.9,18.1-18.9
		C132.9,60.1,132.7,74.2,125.9,82.6z"/>
	<line class="st13" x1="119" y1="78.4" x2="131.2" y2="84.6"/>
	
		<ellipse transform="matrix(0.3983 -0.9173 0.9173 0.3983 -0.4168 166.6321)" class="st5" cx="126.8" cy="83.6" rx="14.4" ry="8.2"/>
	<path class="st5" d="M129.9,98.7c-1.9,0.8-8.9-1.8-8.9-1.8l11.5-26.5c0,0,6.7,3.4,7.4,5.3C142.6,82.9,136,96,129.9,98.7z"/>
	<ellipse transform="matrix(0.3983 -0.9173 0.9173 0.3983 0.8227 173.7921)" class="st0" cx="132.9" cy="86.3" rx="13.2" ry="7.5"/>
	<line class="st16" x1="139.3" y1="89.4" x2="132.4" y2="85.9"/>
	<ellipse transform="matrix(0.3983 -0.9173 0.9173 0.3983 0.2384 179.1617)" class="st5" cx="136.7" cy="89.4" rx="6.6" ry="3.7"/>
	<path class="st5" d="M138.1,96.2c-0.8,0.4-4-0.8-4-0.8l5.2-12c0,0,3,1.5,3.3,2.4C143.8,89.1,140.8,95,138.1,96.2z"/>
	<ellipse transform="matrix(0.3983 -0.9173 0.9173 0.3983 0.8018 182.4131)" class="st0" cx="139.4" cy="90.6" rx="6" ry="3.4"/>
	<path class="st11" d="M72.3,136.1c0,0,6.9,1.3,5.2,5.5c-1,2.5-2.9,4.6-5.2,6c0,0,2.2-5,2.1-6.7C74.3,139.5,72.3,136.1,72.3,136.1z"
		/>
	<path class="st17" d="M58,111.5l-13.1-2.8c0,0-8.3,5.1-11,8.9c-0.6,8.8,9.7,14.9,19.3,14.2c4.5-0.4,6.6-8.6,6.1-13.1
		C58.8,112.3,58,111.5,58,111.5z"/>
	<path class="st15" d="M54.6,118.5c-1,1.5-5.4,6.8-12.8,5.9s-8.3-5.2-7.8-6.9s7.1-7.7,7.1-7.7c5-7.3,9-15.2,12.1-23.5
		c2.8-7.4,4.8-6.1,6.2-5.8s4.5,0.6,3.4,6.7C59.1,107.6,58.9,112,54.6,118.5z"/>
	<path class="st0" d="M76.4,140.3c-8.1,2.7-14.5,3.2-21.8,1.7c-2.8-0.6-5.5-1.6-6.3-5.2c0,0,2.4,12.2,12.8,12.3
		C67.4,149.2,76.4,140.3,76.4,140.3z"/>
	<path class="st1" d="M86.8,92.9c0.2,9-4.3,16.4-10.2,16.5s-12-6.9-12.2-15.9S69.8,77.1,75.7,77S86.5,84,86.8,92.9z"/>
	
		<ellipse transform="matrix(4.640914e-02 -0.9989 0.9989 4.640914e-02 -13.3789 164.1008)" class="st14" cx="79.3" cy="89.1" rx="5.4" ry="3.5"/>
	<polygon class="st17" points="53,77.6 62.2,72.3 61.5,67.9 51.8,73.7 	"/>
	<polygon class="st17" points="88.5,74.8 75,70.4 75.3,65.9 89.5,70.8 	"/>
	<path class="st18" d="M168,110.1c0,53.6-35.8,85.5-80,85.5S7.9,163.7,7.9,110.1S48.1,1.5,87.9,1.5S168,56.5,168,110.1z"/>
	<ellipse transform="matrix(0.6899 -0.7239 0.7239 0.6899 14.8417 85.4334)" class="st14" cx="107.1" cy="25.4" rx="6.9" ry="8.7"/>
	<path class="st14" d="M124.2,33.5c0.9,0.8,1.7,1.4,2.4,2.2s1.5,1.5,2.2,2.2s1.4,1.5,2.1,2.3s1.4,1.5,2,2.3l1.9,2.4
		c0.6,0.8,1.2,1.7,1.8,2.5s1.2,1.7,1.7,2.5l1.6,2.6c4.2,6.9,7.6,14.1,10.3,21.7c1.2,3.8,2.6,7.6,3.4,11.5l0.7,2.9
		c0.2,1,0.5,1.9,0.6,2.9l1.1,5.9c0.2,1,0.4,1.9,0.5,2.9l0.3,2.9l0.7,5.9c0.3,4,0.4,7.9,0.6,11.8c-0.4-3.9-0.8-7.9-1.3-11.8l-1-5.8
		l-0.5-2.9c-0.2-1-0.4-1.9-0.7-2.9l-1.4-5.7c-0.2-1-0.5-1.9-0.8-2.8l-0.9-2.8c-1.1-3.8-2.6-7.4-4-11c-3.1-7.1-6.9-13.9-11.3-20.3
		l-1.7-2.4c-0.6-0.8-1.2-1.5-1.8-2.3s-1.2-1.5-1.8-2.2l-2-2.1c-0.6-0.7-1.3-1.4-2-2.1s-1.3-1.4-2-2s-1.4-1.3-2.1-1.9
		s-1.5-1.2-2.1-1.7l-0.1-0.1c-1.3-1-1.7-2.8-0.7-4.2c1-1.3,2.8-1.7,4.2-0.7L124.2,33.5z"/>
	<path class="st14" d="M26.7,130c-0.1,5.1,0.8,10.2,2.8,14.9c2,4.9,4.6,9.6,7.7,13.9c3.2,4.4,6.7,8.5,10.6,12.2c2,1.9,4,3.6,6.2,5.3
		c2.2,1.7,4.5,3.1,7,4.2c-2.6-0.9-5.1-2.1-7.4-3.6c-2.3-1.5-4.6-3-6.7-4.8c-4.3-3.4-8.4-7.3-12-11.5c-3.7-4.2-6.9-8.9-9.5-13.9
		c-2.7-5.2-4.4-10.9-4.7-16.7l0,0c-0.1-1.7,1.2-3.1,2.9-3.1c1.7-0.1,3.1,1.2,3.1,2.9L26.7,130z"/>
</g>
<g id="suspender">
	<path class="st5" d="M141.7,199.9c5.1,18-3.9,17-5.2,11.6c-0.9-3.6-2.4-3.2-5.5-4.1c-5.2-1.5-17.5,1.2-26.1,7.4
		c-8.2,5.9-25.4,22.7-33.1,48.2c-1.1,3.7-2.5,15.7-7.7,16.6c-9.9,1.8-5.9-32.7,3.3-50.4c10.1-19.2,23.5-29.2,40.1-34.8
		c5.7-1.9,15.8-6.1,22.9-4.3C136.2,191.5,140.2,194.7,141.7,199.9z"/>
	<path class="st2" d="M70.8,280.1c0.3,4.6-0.1,10.4-2.6,12.5c-3,2.6-11.7-3.6-12.7-9.9c-1-6.3,5.1-13.3,9.2-13
		C68.2,270,70.6,275.4,70.8,280.1z"/>
</g>
</svg>
