<?xml version="1.0" encoding="utf-8"?>
<!-- Generator: Adobe Illustrator 26.0.0, SVG Export Plug-In . SVG Version: 6.00 Build 0)  -->
<svg version="1.1" id="Layer_1" xmlns="http://www.w3.org/2000/svg" xmlns:xlink="http://www.w3.org/1999/xlink" x="0px" y="0px"
	 viewBox="0 0 700 1731.5" style="enable-background:new 0 0 700 1731.5;" xml:space="preserve">
<style type="text/css">
	.st0{fill:#311D44;}
	.st1{fill:#FF8E06;}
	.st2{fill:#49ED00;}
	.st3{fill:#FBFF43;stroke:#9AE0E2;stroke-width:0.3151;stroke-miterlimit:10;}
	.st4{fill:#EFDD00;}
	.st5{fill:#9AE0E2;fill-opacity:0.35;}
	.st6{fill:#FBFF43;}
	.st7{fill:#ED6100;}
	.st8{fill:none;stroke:#1B264C;stroke-width:0.6849;stroke-linecap:round;stroke-miterlimit:10;}
	.st9{fill:none;stroke:#1B264C;stroke-width:1.0274;stroke-linecap:round;stroke-miterlimit:10;}
	.st10{fill:#D85092;}
	.st11{fill:#FFFFFF;}
	.st12{fill:none;stroke:#9AE0E2;stroke-width:1.0274;stroke-miterlimit:10;}
</style>
<g>
	<g transform="translate(-18 -564)">
		<g>
			<g>
				<g>
					<g>
						<g>
							<g>
								<path class="st0" d="M591.9,1609.9c-33.6-50.6-85.7-110-97-153.9c-11.3-43.9,35.7-107.1,71-86.2c0,0,81.1,61.9,147.9,177.8
									c0,0,22.3,61.1-34.4,82C622.5,1650.5,591.9,1609.9,591.9,1609.9z"/>
								<path class="st0" d="M144.1,1609.9c33.6-50.6,85.7-110,97-153.9c11.3-43.9-35.7-107.1-71-86.2c0,0-81.1,61.9-147.9,177.8
									c0,0-22.3,61.1,34.4,82C113.4,1650.5,144.1,1609.9,144.1,1609.9z"/>
								<path class="st1" d="M192,1793.6c0,0,13.4,118,36.1,174.9c37,92.9,49.1,108.4,85.3,110.9c36.1,2.5,42.4-83.2,47.5-155.6
									c1.7-25.1,19.3-118-18.1-159.8c-52.1-58.6-161.3-123.4-159.6-80.3C184,1711.6,184.8,1761.4,192,1793.6z"/>
								<path class="st1" d="M256.3,2024.1l50,229.3l34,4.6c0,0,35.7-119.6,8-225.9C317.6,1913.2,256.3,2024.1,256.3,2024.1z"/>
								<path class="st0" d="M368.4,2065.9c0.4,5.4,0.8,10.9,1.3,16.7c2.9,75.7-18.1,161.9-18.1,161.9l-86.9-11.3l-47.9-168.2
									l-5.9-20.5c0,0,16.4-70.3,68.5-55.2C316.7,1999.8,365.9,2039.2,368.4,2065.9z"/>
								<path class="st0" d="M352,2233.7l0.8,36.4c0,5.9-4.2,10.9-10.1,11.7c-13.4,2.1-30.2,0.8-52.9,5.4
									c-18.1,3.8-58.8,15.1-92,2.5c-2.9-0.8-8-8.8-10.9-14.2c0-1.3,0.8-2.1,1.7-2.5c3.8-2.9,13.9-5,28.1-10.9
									c17.2-6.7,28.6-18.8,48.7-33.9c26-19.7,54.6-14.2,78.1-5.4C349.1,2224.9,352,2229.1,352,2233.7z"/>
								<path class="st2" d="M352.9,2260.5l0.4,9.2c0,5.9-4.2,10.9-10.1,11.7c-13.4,2.1-30.2,0.8-52.9,5.4
									c-18.1,3.8-58.8,15.1-92,2.5c-2.9-0.8-8-8.8-10.9-14.2c0-1.2,0.8-2.1,1.7-2.5c5.5,4.6,15.1,8.8,31.9,10.5
									C261.7,2286.4,335.2,2269.3,352.9,2260.5z"/>
								<path class="st2" d="M368.4,2065.9c0.4,5.4,0.8,10.9,1.3,16.7c-31.1-38.9-78.1-75.3-113.4-69c-23.1,4.2-39.1,51-39.1,51
									l-5.9-20.5c0,0,16.4-70.3,68.5-55.2C316.7,1999.8,365.9,2039.2,368.4,2065.9z"/>
								<path class="st1" d="M544,1793.6c0,0-13.4,118-36.1,174.9c-37,92.9-48.7,108.4-85.3,110.9c-36.5,2.5-42.4-83.2-47.5-155.6
									c-1.7-25.1-19.3-118,18.1-159.8c52.1-58.6,161.3-123.4,159.6-80.3C552,1711.6,551.1,1761.4,544,1793.6z"/>
								<path class="st0" d="M562.9,1593.6c0,19.7-1.3,39.3-4.2,59c-9.7,68.6-34.9,119.6-61.7,150.6
									c-24.4,28.4-96.2,71.1-129.4,71.1c-33.2,0-104.6-43.1-129-71.1c-26.5-31-52.1-82-61.7-150.2c-2.9-19.7-4.2-39.3-4.2-59.4
									c0-98.7,9.2-199.1,47.5-238.5c55.9-56.5,238.6-56.5,294.4,0C553.6,1394.5,562.9,1495.3,562.9,1593.6z"/>
								<path class="st1" d="M236.9,1341.8c-6.7,5.9-21,15.5-27.3,29.7c-18.9,42.3-9.7,102.1-8,123.8c4.2,49.8,16.8,98.3,37,144.3
									c5.5,11.7,10.9,23.4,17.2,34.7c5.9,10.5,16,25.1,3.4,36.8c-32.3,31-84.4-89.9-110.1-159.4c-8.4-23.4-44.5-100-34.9-154.4
									c4.6-24.7,33.6-45.6,63-54.8C196.6,1336.4,217.2,1336.4,236.9,1341.8z"/>
								<path class="st1" d="M499,1341.8c6.7,5.9,21,15.5,27.3,29.7c18.9,42.3,9.7,102.1,8,123.8c-4.2,49.8-16.8,98.3-37,144.3
									c-5,11.7-10.9,23.4-17.2,34.7c-5.9,10.5-16,25.1-3.4,36.8c31.9,31,84.4-89.5,110.1-159.4c8.4-23.4,44.5-100,34.9-154.4
									c-4.6-24.7-33.6-45.6-63-54.8C539.4,1336.8,518.8,1336.4,499,1341.8z"/>
								<path class="st2" d="M276.8,1722.1c8.4,25.5,2.9,50.6-12.6,55.6c-15.5,5-47.9-6.3-56.3-31.8c-8.4-25.5,10.1-55.6,25.6-60.7
									C249.1,1680.2,268.4,1696.5,276.8,1722.1z"/>
								<path class="st2" d="M454.9,1722.1c-8.4,25.5-2.9,50.6,12.6,55.6c15.5,5,47.9-6.3,56.3-31.8s-10.1-55.6-25.6-60.7
									C482.7,1680.2,463.3,1696.5,454.9,1722.1z"/>
								<path class="st1" d="M479.7,2024.1l-50,229.3l-34,4.6c0,0-35.7-119.6-8-225.9C418.4,1913.2,479.7,2024.1,479.7,2024.1z"/>
								<path class="st0" d="M367.6,2065.9c-0.4,5.4-0.8,10.9-1.3,16.7c-2.9,75.3,18.1,161.9,18.1,161.9l86.9-11.3l47.9-168.2
									l5.9-20.5c0,0-16.4-70.3-68.5-55.2C419.2,1999.8,369.7,2039.2,367.6,2065.9z"/>
								<path class="st0" d="M383.9,2233.7l-0.8,36.4c0,5.9,4.2,10.9,9.7,11.7c13.4,2.1,30.2,0.8,52.9,5.4
									c18.1,3.8,58.8,15.1,92,2.5c2.9-0.8,8-8.8,10.9-14.2c0-1.3-0.8-2.1-1.7-2.5c-3.8-2.9-14.3-5-28.1-10.9
									c-17.2-6.7-28.6-18.8-48.7-33.9c-26.5-19.7-54.6-14.2-78.1-5.4C386.9,2224.9,383.9,2229.1,383.9,2233.7z"/>
								<path class="st2" d="M383.1,2260.5l-0.4,9.2c0,5.9,4.2,10.9,9.7,11.7c13.4,2.1,30.2,0.8,52.9,5.4c18.1,3.8,58.8,15.1,92,2.5
									c2.9-0.8,8-8.8,10.9-14.2c0-1.2-0.8-2.1-1.7-2.5c-5.5,4.6-15.1,8.8-31.9,10.5C474.3,2286.4,401.2,2269.3,383.1,2260.5z"/>
								<path class="st2" d="M367.6,2065.9c-0.4,5.4-0.8,10.9-1.3,16.7c31.1-38.9,78.1-75.3,113.4-69c23.1,4.2,39.1,51,39.1,51
									l5.9-20.5c0,0-16.4-70.3-68.5-55.2C419.2,1999.8,369.7,2039.2,367.6,2065.9z"/>
								<path class="st3" d="M474.3,1348.1c0,15.7-47.6,28.4-106.3,28.4c-58.7,0-106.3-12.7-106.3-28.4s47.6-28.4,106.3-28.4
									C426.7,1319.6,474.3,1332.4,474.3,1348.1z"/>
								<path class="st4" d="M412.5,1346c-22.3,24.3-60.5,25.9-84.8,3.3c-1.3-1.3-2.5-2.1-3.4-3.3v-150.6h88.2V1346z"/>
								<path class="st5" d="M704.4,1018.8c0,224.2-150.4,357.7-336,357.7s-336-133.5-336-357.7c0-224.2,168.4-454.3,336-454.3
									S704.4,794.6,704.4,1018.8z"/>
								<path class="st6" d="M559.1,1066.9c1.7,105.4-82.7,191.6-188.6,193.3c-105.8,1.7-192.4-82.4-194.1-187.8c0-1.7,0-3.8,0-5.9
									c0-48.5,28.6-114.6,56.7-171.9c33.2-66.5,27.7-120.5,134.4-120.5c108.4,0,102.5,55.2,135.7,122.6
									C531.4,954,559.1,1018.8,559.1,1066.9z"/>
								<path class="st1" d="M636,956.9c-2.9,1.3-13-1.7-13-1.7l16.8-43.9c0,0,9.7,4.2,10.9,7.5C655.3,930.1,645.6,952.3,636,956.9z
									"/>
								<path class="st7" d="M639.6,911.1c3,1.2,1.7,11.9-2.9,24c-4.6,12.1-10.8,21-13.9,19.8s-1.7-11.9,2.9-24
									C630.3,918.8,636.5,910,639.6,911.1z"/>
								<path class="st8" d="M630.9,933.9l-34.9-17.6"/>
								<path class="st1" d="M582.6,964.4c-7.6,3.8-33.6-4.2-33.6-4.2l43.3-113c0,0,24.8,11.3,27.7,19.2
									C633,896.3,607.4,952.3,582.6,964.4z"/>
								<path class="st7" d="M592.1,847.7c8.2,3.1,5.3,30.9-6.7,62c-11.9,31.1-28.2,53.7-36.5,50.6c-8.2-3.1-5.3-30.9,6.7-62
									C567.6,867.2,583.9,844.6,592.1,847.7z"/>
								<path class="st9" d="M513.3,874.9l57.5,28.9"/>
								<path class="st1" d="M409.6,778.3c0,0,45.8,19.2,119.3,173.2c0,0,57.5-74.9,45.8-137.6c-1.7-9.2-9.2-16.3-18.5-17.2
									L409.6,778.3z"/>
								<path class="st1" d="M100,956.9c2.9,1.3,13-1.7,13-1.7l-16.8-43.9c0,0-9.7,4.2-10.9,7.5C80.7,930.1,90.3,952.3,100,956.9z"
									/>
								<path class="st7" d="M110.1,931c4.6,12.1,5.9,22.8,2.9,24c-3,1.2-9.3-7.7-13.9-19.8s-5.9-22.8-2.9-24
									C99.2,910.1,105.4,918.9,110.1,931z"/>
								<path class="st8" d="M139.9,916.3L105,933.9"/>
								<path class="st1" d="M153.3,964.4c7.6,3.8,33.6-4.2,33.6-4.2l-43.3-113c0,0-24.8,11.3-27.7,19.2
									C102.9,896.3,128.6,952.3,153.3,964.4z"/>
								<path class="st7" d="M180,898.2c11.9,31.1,14.9,58.8,6.7,62c-8.2,3.1-24.6-19.5-36.5-50.6c-11.9-31.1-14.9-58.8-6.7-62
									C151.7,844.5,168.1,867.1,180,898.2z"/>
								<path class="st9" d="M222.7,874.9l-57.5,28.9"/>
								<path class="st1" d="M326.4,778.3c0,0-45.8,19.2-119.3,173.2c0,0-57.5-74.9-45.8-137.6c1.7-9.2,9.2-16.3,18.5-17.2
									L326.4,778.3z"/>
								<path class="st4" d="M293.6,1122.2c0,0-29,5.4-21.8,23c4.2,10.5,12.2,19.2,21.8,25.1V1122.2z"/>
								<path class="st4" d="M437.3,1122.2c0,0,29,5.4,21.8,23c-4.2,10.5-12.2,19.2-21.8,25.1V1122.2z"/>
								<path class="st6" d="M426.4,1026.4c3.4,8.4,6.3,17.2,8.4,25.9c0.8,7.5-23.1,31.4-66.8,31.4c-43.7,0-67.6-24.3-66.8-31.4
									c2.1-8.8,5-17.6,8.4-25.9c16.8-44.3,28.6-69,30.7-101.7c2.1-32.6,21-28,29.4-28c8.4,0,26.5,1.3,26.5,27.2
									C396.5,940.2,409.1,981.6,426.4,1026.4z"/>
								<path class="st10" d="M426.4,1026.4c2.9,8.4,5,17.2,7.1,25.9c0.8,7.5-21.8,31.4-65.5,31.4c-43.7,0-66.4-24.3-65.1-31.4
									c1.7-8.8,4.2-17.6,7.1-25.9c0,0-8,11.7-11.3,35.1c-2.9,19.2,35.7,67.4,69.7,67.4c32.8,0,72.7-46.9,70.1-65.3
									C434.8,1037.2,426.4,1026.4,426.4,1026.4z"/>
								<path class="st7" d="M445.7,1137.2c-19.3,17.2-41.6,31.4-78.5,31.4c-30.7-0.4-60.1-9.6-85.3-27.2c0,0,50.8,54,85.3,54
									C401.6,1195.4,445.7,1137.2,445.7,1137.2z"/>
								<path class="st0" d="M492.5,936.5c6.4,37.1-8.1,70.6-32.3,74.7c-24.2,4.1-49.1-22.6-55.4-59.7c-6.4-37.1,8.1-70.6,32.3-74.7
									C461.3,872.6,486.1,899.4,492.5,936.5z"/>
								<path class="st0" d="M298.5,877.1c24.2,4.1,38.7,37.6,32.3,74.7c-6.4,37.1-31.2,63.9-55.4,59.7
									c-24.2-4.1-38.7-37.6-32.3-74.7C249.5,899.7,274.3,872.9,298.5,877.1z"/>
								<path class="st11" d="M315.8,923.7c1.2,12.4-4.4,23.1-12.5,23.9c-8.1,0.8-15.6-8.7-16.8-21.1c-1.2-12.4,4.4-23.1,12.5-23.9
									S314.6,911.3,315.8,923.7z"/>
								<path class="st11" d="M473.7,923.3c1.2,12.4-4.4,23.1-12.5,23.9c-8.1,0.8-15.6-8.7-16.8-21.1c-1.2-12.4,4.4-23.1,12.5-23.9
									C465,901.5,472.5,910.9,473.7,923.3z"/>
								<path class="st10" d="M250.4,864.9l57.1-16.3l-0.4-18.4l-60.5,18L250.4,864.9z"/>
								<path class="st10" d="M488.5,858.2l-58.8-10.5l-1.7-18.4l62.2,11.7L488.5,858.2z"/>
								<path class="st12" d="M704.4,1018.8c0,224.2-150.4,357.7-336,357.7s-336-133.5-336-357.7c0-224.2,168.4-454.3,336-454.3
									S704.4,794.6,704.4,1018.8z"/>
								<path class="st11" d="M468.7,643.7c14.6,13.9,17.5,34.5,6.5,46c-11,11.5-31.8,9.7-46.4-4.2c-14.6-13.9-17.5-34.5-6.5-46
									C433.3,628,454.1,629.9,468.7,643.7z"/>
								<path class="st11" d="M520.9,698.4c3.8,3.3,7.1,5.9,10.1,9.2c2.9,3.3,6.3,6.3,9.2,9.2c2.9,2.9,5.9,6.3,8.8,9.6
									c2.9,3.3,5.9,6.3,8.4,9.6l8,10c2.5,3.3,5,7.1,7.6,10.5c2.5,3.3,5,6.7,7.1,10.5l6.7,10.9c17.6,28.9,31.9,59,43.3,90.8
									c5,15.9,10.9,31.8,14.3,47.7l2.9,12.1c0.8,4.2,2.1,7.9,2.5,12.1l4.6,24.7c0.8,4.2,1.7,7.9,2.1,12.1l1.3,12.6l2.5,24.7
									c1.3,16.3,1.7,33,2.5,49.4c-1.7-16.3-3.4-33-5.5-48.9l-4.2-24.3l-2.1-12.1c-0.8-4.2-1.7-7.9-2.9-12.1l-5.9-23.8
									c-0.8-4.2-2.1-7.9-3.4-11.7l-3.8-11.7c-4.6-15.9-10.9-31-16.8-46c-13-29.7-29-58.1-47.5-84.9l-7.1-9.6
									c-2.5-3.3-5-6.3-7.6-9.6c-2.5-3.3-5-6.3-7.6-9.2l-8-9.2c-2.5-2.9-5.5-5.9-8.4-8.8c-2.9-2.9-5.5-5.9-8.4-8.4
									c-2.9-2.5-5.9-5.4-8.8-7.9c-2.9-2.5-6.3-5-8.8-7.1l-0.4-0.4c-5.5-4.2-6.7-11.7-2.9-17.6C507,695.5,515,694.2,520.9,698.4z"
									/>
								<path class="st11" d="M111.3,1102.1c-0.4,21.3,3.4,42.7,11.8,62.3c8.4,20.5,19.3,40.2,32.3,58.1c13,18.4,28.1,35.6,44.5,51
									c8.4,7.9,16.8,15.1,26,22.2c9.2,7.1,18.9,13,29.4,17.6c-10.9-3.8-21.4-8.8-31.1-15.1c-9.7-6.3-19.3-12.6-28.1-20.1
									c-18.1-14.2-35.3-30.5-50.4-48.1c-15.5-17.6-29-37.2-39.9-58.2c-11.3-21.8-18.5-45.6-19.7-69.9c-0.4-7.1,5-13,12.2-13
									c7.1-0.4,13,5,13,12.1C111.3,1101.2,111.3,1101.7,111.3,1102.1z"/>
							</g>
						</g>
					</g>
				</g>
			</g>
		</g>
	</g>
</g>
</svg>
