<?xml version="1.0" encoding="utf-8"?>
<!-- Generator: Adobe Illustrator 25.2.0, SVG Export Plug-In . SVG Version: 6.00 Build 0)  -->
<svg version="1.1" id="Layer_1" xmlns="http://www.w3.org/2000/svg" xmlns:xlink="http://www.w3.org/1999/xlink" x="0px" y="0px"
	 viewBox="0 0 194.5 416.3" style="enable-background:new 0 0 194.5 416.3;" xml:space="preserve">
<style type="text/css">
	.st0{fill:#ED6100;}
	.st1{fill:#311D44;}
	.st2{fill:#49ED00;}
	.st3{clip-path:url(#SVGID_2_);}
	.st4{fill:none;stroke:#35BA00;stroke-miterlimit:10;}
	.st5{fill:#FF8E06;}
	.st6{fill:#1E122B;}
	.st7{clip-path:url(#SVGID_4_);}
	.st8{fill:none;stroke:#ED6100;stroke-width:2;stroke-miterlimit:10;}
	.st9{clip-path:url(#SVGID_6_);}
	.st10{fill:#FBFF43;stroke:#9AE0E2;stroke-width:0.92;stroke-miterlimit:10;}
	.st11{fill:#EFDD00;}
	.st12{opacity:0.35;fill:#9AE0E2;enable-background:new    ;}
	.st13{fill:none;stroke:#1B264C;stroke-width:3;stroke-linecap:round;stroke-miterlimit:10;}
	.st14{fill:#FFFFFF;}
	.st15{fill:#FBFF43;}
	.st16{fill:none;stroke:#1B264C;stroke-width:2;stroke-linecap:round;stroke-miterlimit:10;}
	.st17{fill:#D85092;}
	.st18{fill:none;stroke:#9AE0E2;stroke-width:3;stroke-miterlimit:10;}
</style>
<path id="b-thigh" class="st0" d="M74.1,290.5c0,0,3.7,29.9,8.1,43.9c7.2,22.8,9.8,26.6,18.4,27.9c8.6,1.3,11.5-19.1,13.9-36.3
	c0.8-6,10.2-25.6,2.1-36.1C105.1,275,89,273,80.8,274.6C77.1,275.4,72.4,281.8,74.1,290.5z"/>
<g id="b-calf">
	<path class="st0" d="M88.3,349l13.2,54.5l8.1,0.9c0,0,7.8-28.8,0.6-54C102.2,322.2,88.3,349,88.3,349z"/>
	<path class="st1" d="M118.6,358.4c0.1,1.3,0.2,2.6,0.3,4c1.1,18-3.5,38.8-3.5,38.8l-19.9,0.5l-13.1-42.8l-1.5-4.9
		c0,0-4.8-11.6,8.2-11C100.5,343.5,117.9,352,118.6,358.4z"/>
	<path class="st1" d="M115.7,398.8l0.1,8.3l0.1,4.7c-6.6,1-13.2,1.5-19.9,1.5c-12,0.1-19.6-2.8-19.6-2.8l-1.4-4.3
		c0,0,13.3-2.1,20.3-7.2C102.3,393.9,109.9,396.2,115.7,398.8z"/>
	<path class="st2" d="M115.8,407.1l0.1,4.6c-6.6,1-13.2,1.5-19.9,1.5c-12,0.1-19.6-2.8-19.6-2.8l-1.4-4.3c0,0,3,1.6,12.5,2.5
		C97,409.6,111.5,409.1,115.8,407.1z"/>
	<path class="st2" d="M118.1,353.4c0.1,1.3,0.6,4.8,0.7,6.1c-17.5-14.4-29.5-15.8-33.2-15.6c-5.1,0.3-5.1,8-5.1,8
		s-4.7-14.5,8.2-13.9C100,338.5,117.3,347,118.1,353.4z"/>
</g>
<path id="b-arm" class="st1" d="M49.2,224.5c14.5,0,33.2,2.4,43.4-1.1s16.6-21.2,7.8-25.5c0,0-23-7.9-54.9-5.8
	c0,0-15.1,3.7-11.8,17.7S49.2,224.5,49.2,224.5z"/>
<g id="b-hand">
	<g>
		<defs>
			<path id="SVGID_1_" d="M46.3,191.7c-10.3-6.8-12.1-12.3-20.7-12s0,14.3,0,14.3s-20.1-7.5-25,8.7s21,26,48.6,21.8
				c0,0,8.3-4.5,6.5-16.1S46.3,191.7,46.3,191.7z"/>
		</defs>
		<clipPath id="SVGID_2_">
			<use xlink:href="#SVGID_1_"  style="overflow:visible;"/>
		</clipPath>
		<g class="st3">
			<polygon class="st2" points="20.1,168.1 2.7,186.4 -6.3,220.1 53.5,232.5 60.2,195.1 			"/>
			<path class="st4" d="M35.1,231.3c0,0,8.3-7.8,12-15.2c3.6-7.1,4.8-19.8-8.6-32.5"/>
			<path class="st4" d="M9.5,228.4c0,0-11-12-5-26.5s28.4-3.8,28.4-3.8s-14.7-15.4-7.2-18.5s12.9,3.9,12.9,3.9"/>
		</g>
	</g>
</g>
<path id="f-thigh" class="st5" d="M103.2,298.6c0,0,3.3,25.2,8,39.1c7.7,22.6,10.4,26.4,19,27.5c8.6,1.1,11.1-19.4,13.1-36.6
	c0.7-6,13.4-28.1,12.8-51.1c-18.7,1.2-29.2,1.9-37.8,4C114.1,282.5,101.8,290.9,103.2,298.6z"/>
<g id="f-calf">
	<path class="st5" d="M117.5,352.2l14.5,54.1l8.1,0.7c0,0,7.1-29-0.7-54C130.8,325.1,117.5,352.2,117.5,352.2z"/>
	<path class="st1" d="M148.1,360.9c0.2,1.3,0.3,2.6,0.4,4c1.5,18-2.5,38.9-2.5,38.9l-19.9,1L112,362.2l-1.6-4.8
		c0,0-5.1-11.5,7.9-11.2C129.6,346.5,147.2,354.5,148.1,360.9z"/>
	<path class="st1" d="M146.1,401.3l0.3,8.3l0.2,4.6c-6.5,1.2-13.2,1.8-19.8,2c-12,0.4-19.6-2.3-19.6-2.3l-1.5-4.3
		c0,0,13.2-2.4,20.1-7.7C132.7,396.8,140.2,398.8,146.1,401.3z"/>
	<path class="st2" d="M146.4,409.6l0.2,4.6c-6.5,1.2-13.2,1.8-19.8,2c-12,0.4-19.6-2.3-19.6-2.3l-1.5-4.3c0,0,3,1.6,12.6,2.2
		C127.8,412.5,142.2,411.7,146.4,409.6z"/>
	<path class="st2" d="M147.4,355.9c0.2,1.3,0.7,4.7,0.8,6.1c-17.8-14-29.8-15.1-33.6-14.8c-5.1,0.4-4.9,8.1-4.9,8.1
		s-5.1-14.4,7.9-14.1C129,341.5,146.5,349.5,147.4,355.9z"/>
</g>
<g id="torso">
	<path class="st0" d="M166.7,199.9c0,0,4.7,14,0.9,25.4s-15.2,45.9-15.2,45.9h-12.9c0,0,16.1-68.7,1.3-75.6c0,0,11-5.7,15.2-2.6
		S166.7,199.9,166.7,199.9z"/>
	<path class="st5" d="M104.5,181.3c-1.9,1.5-20.9,5.5-23.1,9c-6.4,10.4-7.1,25.2-7.6,30.5c-1.3,11.9-0.6,23.9,2.1,35.5
		c0.7,2.9-3.4,3.9-2.5,6.7c0.9,2.6,2.3,8.6-1.9,10.5c-7.2,3.3-9-21-11.9-38.2c-1-5.7-4.6-27.2,2.6-39.6c3.3-5.6,8.5-9.4,15.3-13.1
		C85.7,178.2,98.4,177.7,104.5,181.3z"/>
	<path class="st1" d="M159.9,225.3c-0.6,7.1-4.4,14.6-4.3,22.3c0.1,10,0.1,18.5-1.1,26.2c-1.4,8.9-4.5,16.6-10.8,23.9
		c-5.8,6.8-22.9,17-30.7,17c-8.7,0-18.3-8.4-24.7-13.7c-7.3-6.1-23.1-23.3-25.5-32.4c-3.7-14-1.1-33.1,1.5-44.3
		c3-13,7.2-23.9,13.2-33.2c0.1-0.1,0.2-0.3,0.4-0.4c13.3-13.5,56.8-13.5,70.1,0c7.8,8,12.1,18.7,12.1,29.8
		C160.1,222,160,223.6,159.9,225.3z"/>
	<path class="st6" d="M159.9,225.3c-0.6,7.1-4.4,14.6-4.3,22.3c0.1,10,0.1,18.5-1.1,26.2c-8.3,5.5-24,11.4-44-0.3
		c-2.1-1.2,9.3-66.1,27.7-65.6c10.6,0.2,17.6,4.6,21.9,12.5C160.1,221.9,160,223.6,159.9,225.3z"/>
	<g>
		<defs>
			<path id="SVGID_3_" d="M155.5,261.6c2.2,22.5-1.9,30.3-8.3,37.5c-13.9,15.6-26.3,15.5-37.1,15.5c-13.9,0.1-27.6-10.3-33.5-17
				c-7.8-8.9-14-21.7-15.6-36.9c4.1,3.5,26.5,10,49,10C132.8,270.8,151.7,265.1,155.5,261.6z"/>
		</defs>
		<clipPath id="SVGID_4_">
			<use xlink:href="#SVGID_3_"  style="overflow:visible;"/>
		</clipPath>
		<g class="st7">
			<rect x="59.4" y="260" class="st5" width="98.4" height="54.6"/>
			<path class="st8" d="M61,268.5c14.8,7.1,31.1,10.7,47.5,10.5c25.1-0.4,40-2.1,50.5-10.5"/>
			<path class="st8" d="M67.3,271.3c0,15.5,19.7,36.7,35.1,43.4"/>
		</g>
	</g>
</g>
<path id="f-arm" class="st1" d="M153.1,259.6c-7.9-12.1-20.2-26.4-22.9-36.9c-2.7-10.5,8.6-25.5,17-20.5c0,0,19.2,14.9,35,42.7
	c0,0,5.2,14.6-8.3,19.5S153.1,259.6,153.1,259.6z"/>
<g id="f-hand">
	<g>
		<defs>
			<path id="SVGID_5_" d="M153.2,239.4c-12.1,2.3-17.3-0.5-23.2,5.7c-6,6.2,9.9,10.3,9.9,10.3s-19.7,8.6-11.9,23.7
				s33.2,3.5,50.2-18.8c0,0,2.7-8.4-6.6-15.5S153.2,239.4,153.2,239.4z"/>
		</defs>
		<clipPath id="SVGID_6_">
			<use xlink:href="#SVGID_5_"  style="overflow:visible;"/>
		</clipPath>
		<g class="st9">
			<polygon class="st2" points="118,240.6 118.1,265.9 135.1,296.4 186.7,263.7 165.5,232.2 			"/>
			<path class="st4" d="M172.6,275.7c0,0,0.6-11.3-1.9-19.3c-2.4-7.6-10.3-17.5-28.7-17.4"/>
			<path class="st4" d="M152.2,291.4c0,0-16.3-1-22-15.6c-5.7-14.6,17.8-22.4,17.8-22.4s-21.3-0.9-18-8.3c3.3-7.4,12-6.1,12-6.1"/>
		</g>
	</g>
</g>
<g id="f-suspender">
	<path id="f-suspender-2" class="st5" d="M166.7,199.9c5.1,18-3.9,17-5.2,11.6c-0.9-3.6-2.4-3.2-5.5-4.1c-5.2-1.5-17.5,1.2-26.1,7.4
		c-8.2,5.9-25.4,22.7-33.1,48.2c-1.1,3.7-2.5,15.7-7.7,16.6c-9.9,1.8-5.9-32.7,3.3-50.4c10.1-19.2,23.5-29.2,40.1-34.8
		c5.7-1.9,15.8-6,22.9-4.3C161.2,191.5,165.2,194.8,166.7,199.9z"/>
	<path id="button" class="st2" d="M95.8,280.1c0.3,4.6-0.1,10.4-2.6,12.5c-3,2.6-11.7-3.6-12.7-9.9c-1-6.3,5.1-13.3,9.2-13
		C93.2,270,95.6,275.5,95.8,280.1z"/>
</g>
<g id="head">
	<ellipse class="st10" cx="112.9" cy="188.8" rx="25.3" ry="6.8"/>
	<path class="st11" d="M123.4,188.3c-5.3,5.8-14.4,6.2-20.2,0.8c-0.3-0.3-0.6-0.5-0.8-0.8v-35.9h21V188.3z"/>
	<path class="st12" d="M193,110.1c0,53.6-35.8,85.5-80,85.5s-80-31.9-80-85.5S73.2,1.5,113,1.5S193,56.5,193,110.1z"/>
	<path class="st5" d="M68.7,89.1c0.8,0.4,4.1-0.6,4.1-0.6l-4.6-12.3c0,0-3.1,1.4-3.4,2.2C63.3,81.6,66,87.7,68.7,89.1z"/>
	<ellipse transform="matrix(0.9363 -0.3512 0.3512 0.9363 -24.9707 29.0624)" class="st5" cx="67.6" cy="83.4" rx="3.4" ry="6"/>
	<ellipse transform="matrix(0.9371 -0.3489 0.3489 0.9371 -24.468 29.8836)" class="st0" cx="70.7" cy="82.9" rx="3.7" ry="6.6"/>
	<path class="st5" d="M77.4,91.3c1.8,0.9,8.9-1.3,8.9-1.3L76.2,62.9c0,0-6.8,3-7.6,4.9C65.6,74.9,71.5,88.4,77.4,91.3z"/>
	<ellipse transform="matrix(0.9363 -0.3512 0.3512 0.9363 -22.8795 31.3855)" class="st5" cx="75.1" cy="78.8" rx="7.5" ry="13.2"/>
	<ellipse transform="matrix(0.9363 -0.3512 0.3512 0.9363 -21.6686 33.4172)" class="st0" cx="81.3" cy="76.4" rx="8.2" ry="14.4"/>
	<line class="st13" x1="80.4" y1="75.3" x2="93.9" y2="71.5"/>
	<path class="st5" d="M82.1,78.6c4.8,7.8,11.5,14.5,11.5,14.6c6-3.2,14.5-11.4,19.3-19.5c12-20.4,1-21.3,1-21.3
		c-6.1,0-14-0.2-19.5,0c-4,0.1-8.2,0.3-10.3,1C78,55.4,76.4,69.3,82.1,78.6z"/>
	<ellipse transform="matrix(0.2297 -0.9733 0.9733 0.2297 -24.3297 150.6648)" class="st1" cx="83" cy="90.7" rx="15.2" ry="9.9"/>
	
		<ellipse transform="matrix(0.3009 -0.9537 0.9537 0.3009 -22.9047 144.1239)" class="st14" cx="86.8" cy="87.7" rx="5.1" ry="3.3"/>
	<path class="st15" d="M158.4,121.6c0,25.2-20.4,45.6-45.5,45.6l0,0c-29.6,0-45.6-20.4-45.6-45.6c0-11.6,6.8-27.4,13.5-41
		c7.9-15.9,6.6-28.8,32-28.8c25.7,0,24.4,13.2,32.3,29.3C151.8,94.6,158.4,110.1,158.4,121.6z"/>
	<path class="st5" d="M151,82.6c-5.7,7.1-13.2,12.9-13.2,13.1c-5.6-3.9-13-13.2-16.6-21.8c-9.4-21.7,1.7-21.3,1.7-21.3
		c6,0.8,13.9,1.5,19.4,2.4c4,0.7,8.1,1.3,10.1,2.3C158,60.1,157.7,74.2,151,82.6z"/>
	<path class="st0" d="M151,82.6c-5.7,7.1-13.2,12.9-13.2,13.1c-2.1-6.2-3.4-12.8-3.6-19.4c-0.1-10.6,6.7-21.9,18.1-18.9
		C158,60.1,157.7,74.2,151,82.6z"/>
	<line class="st13" x1="144" y1="78.4" x2="156.2" y2="84.6"/>
	
		<ellipse transform="matrix(0.3983 -0.9173 0.9173 0.3983 14.6243 189.5642)" class="st5" cx="151.8" cy="83.6" rx="14.4" ry="8.2"/>
	<path class="st5" d="M154.9,98.7c-1.9,0.8-8.9-1.8-8.9-1.8l11.5-26.5c0,0,6.6,3.4,7.3,5.3C167.6,82.9,161,96.1,154.9,98.7z"/>
	
		<ellipse transform="matrix(0.3983 -0.9173 0.9173 0.3983 15.8698 196.7334)" class="st0" cx="157.9" cy="86.3" rx="13.2" ry="7.5"/>
	<line class="st16" x1="164.3" y1="89.5" x2="157.4" y2="85.9"/>
	<ellipse transform="matrix(0.3983 -0.9173 0.9173 0.3983 15.2703 202.0998)" class="st5" cx="161.7" cy="89.4" rx="6.6" ry="3.7"/>
	<path class="st5" d="M163.1,96.2c-0.8,0.4-4-0.8-4-0.8l5.2-12c0,0,3,1.5,3.3,2.4C168.8,89.1,165.8,95,163.1,96.2z"/>
	<ellipse transform="matrix(0.3983 -0.9173 0.9173 0.3983 15.8337 205.3512)" class="st0" cx="164.4" cy="90.6" rx="6" ry="3.4"/>
	<path class="st11" d="M97.3,136.1c0,0,6.9,1.3,5.2,5.5c-1,2.5-2.9,4.6-5.2,6c0,0,2.2-5,2.1-6.7C99.3,139.6,97.3,136.1,97.3,136.1z"
		/>
	<path class="st17" d="M83,111.5l-13-2.8c0,0-8.3,5.1-11,8.9c-0.6,8.8,9.7,14.9,19.3,14.1c4.5-0.3,6.6-8.6,6.1-13.1
		C83.8,112.3,83,111.5,83,111.5z"/>
	<path class="st15" d="M79.6,118.5c-1,1.5-5.4,6.8-12.8,5.9s-8.3-5.2-7.8-6.9s7.1-7.7,7.1-7.7c5-7.3,9-15.2,12.1-23.5
		c2.8-7.4,4.8-6.1,6.2-5.8s4.5,0.6,3.4,6.7C84.1,107.6,83.9,112,79.6,118.5z"/>
	<path class="st0" d="M101.4,140.3c-8.1,2.7-14.5,3.2-21.8,1.7c-2.8-0.6-5.5-1.6-6.3-5.2c0,0,2.4,12.2,12.8,12.3
		C92.4,149.2,101.4,140.3,101.4,140.3z"/>
	<path class="st1" d="M111.8,92.9c0.2,9-4.3,16.4-10.2,16.6s-12-7-12.2-15.9s5.5-16.4,11.3-16.6S111.5,84,111.8,92.9z"/>
	
		<ellipse transform="matrix(4.640914e-02 -0.9989 0.9989 4.640914e-02 10.4599 189.0803)" class="st14" cx="104.3" cy="89.1" rx="5.4" ry="3.5"/>
	<polygon class="st17" points="78,77.6 87.2,72.3 86.5,68 76.8,73.7 	"/>
	<polygon class="st17" points="113.5,74.8 100,70.4 100.3,66 114.5,70.8 	"/>
	<path class="st18" d="M193,110.1c0,53.6-35.8,85.5-80,85.5s-80-31.9-80-85.5S73.2,1.5,113,1.5S193,56.5,193,110.1z"/>
	
		<ellipse transform="matrix(0.6899 -0.7239 0.7239 0.6899 22.5934 103.5318)" class="st14" cx="132.1" cy="25.4" rx="6.9" ry="8.7"/>
	<path class="st14" d="M149.2,33.5c0.9,0.8,1.7,1.4,2.4,2.2s1.5,1.5,2.2,2.2s1.4,1.5,2,2.3s1.4,1.5,2,2.3l1.9,2.4
		c0.6,0.8,1.2,1.7,1.8,2.5s1.2,1.6,1.7,2.5l1.6,2.6c4.2,6.9,7.6,14.1,10.3,21.7c1.2,3.8,2.6,7.6,3.4,11.5l0.7,2.9
		c0.2,1,0.5,1.9,0.6,2.9l1,5.9c0.2,1,0.4,1.9,0.5,2.9l0.3,3l0.7,5.9c0.3,4,0.4,7.9,0.6,11.8c-0.4-3.9-0.8-7.9-1.3-11.8l-1-5.8
		l-0.5-2.9c-0.2-1-0.4-1.9-0.7-2.9l-1.4-5.7c-0.2-1-0.5-1.9-0.8-2.8l-0.9-2.8c-1.1-3.8-2.6-7.4-4-11c-3.1-7.1-6.9-13.9-11.3-20.3
		l-1.7-2.3c-0.6-0.8-1.2-1.5-1.8-2.3s-1.2-1.5-1.8-2.2l-1.9-2.1c-0.6-0.7-1.3-1.4-2-2.1s-1.3-1.4-2-2s-1.4-1.3-2.1-1.9
		s-1.5-1.2-2.1-1.7l-0.1-0.1c-1.4-0.9-1.7-2.8-0.8-4.2s2.8-1.7,4.2-0.8c0.1,0,0.1,0.1,0.1,0.1L149.2,33.5z"/>
	<path class="st14" d="M51.7,130c-0.1,5.1,0.8,10.2,2.8,14.9c2,4.9,4.6,9.6,7.7,13.9c3.1,4.4,6.7,8.5,10.6,12.2c2,1.9,4,3.6,6.2,5.3
		c2.2,1.7,4.5,3.1,7,4.2c-2.6-0.9-5.1-2.1-7.4-3.6c-2.3-1.5-4.6-3-6.7-4.8c-4.3-3.4-8.4-7.3-12-11.5c-3.7-4.2-6.9-8.9-9.5-13.9
		c-2.7-5.2-4.4-10.9-4.7-16.7l0,0c-0.1-1.7,1.2-3.1,2.9-3.1c1.7-0.1,3.1,1.2,3.1,2.9V130z"/>
</g>
</svg>
