<?xml version="1.0" encoding="utf-8"?>
<!-- Generator: Adobe Illustrator 25.2.0, SVG Export Plug-In . SVG Version: 6.00 Build 0)  -->
<svg version="1.1" id="Layer_1" xmlns="http://www.w3.org/2000/svg" xmlns:xlink="http://www.w3.org/1999/xlink" x="0px" y="0px"
	 viewBox="0 0 209.3 415.3" style="enable-background:new 0 0 209.3 415.3;" xml:space="preserve">
<style type="text/css">
	.st0{fill:#311D44;}
	.st1{clip-path:url(#SVGID_2_);}
	.st2{fill:#49ED00;}
	.st3{fill:none;stroke:#35BA00;stroke-miterlimit:10;}
	.st4{fill:#FF8E06;}
	.st5{fill:#ED6100;}
	.st6{fill:#1E122B;}
	.st7{clip-path:url(#SVGID_4_);}
	.st8{fill:none;stroke:#ED6100;stroke-width:2;stroke-miterlimit:10;}
	.st9{clip-path:url(#SVGID_6_);}
	.st10{fill:#FBFF43;stroke:#9AE0E2;stroke-width:0.92;stroke-miterlimit:10;}
	.st11{fill:#EFDD00;}
	.st12{opacity:0.35;fill:#9AE0E2;enable-background:new    ;}
	.st13{fill:#FBFF43;}
	.st14{fill:none;stroke:#1B264C;stroke-width:3;stroke-linecap:round;stroke-miterlimit:10;}
	.st15{fill:none;stroke:#1B264C;stroke-width:2;stroke-linecap:round;stroke-miterlimit:10;}
	.st16{fill:#D85092;}
	.st17{fill:#FFFFFF;}
	.st18{fill:none;stroke:#9AE0E2;stroke-width:3;stroke-miterlimit:10;}
</style>
<path id="l-arm" class="st0" d="M48.4,231c19.8,1.5,32.7-7.2,41.7-13.2s10.6-24.8,1-26.6c0,0-25.1,28.8-47.4,3.2
	c0,0-20.3,8.7-15.8,22.4C31.1,226.4,43.1,230.6,48.4,231z"/>
<g id="l-hand">
	<g>
		<defs>
			<path id="SVGID_1_" d="M49.5,197.2c-6.6-10.5-5.9-16.2-13.9-19.5s-6,13-6,13s-15.2-15.1-26.4-2.3s8.4,32.3,35.3,39.9
				c0,0,9.4-0.7,12.6-12S49.5,197.2,49.5,197.2z"/>
		</defs>
		<clipPath id="SVGID_2_">
			<use xlink:href="#SVGID_1_"  style="overflow:visible;"/>
		</clipPath>
		<g class="st1">
			<polygon class="st2" points="35.3,164.9 11.9,174.3 -10.2,201.3 39.2,237.3 60.7,206 			"/>
			<path class="st3" d="M22.9,228.6c0,0,10.8-3.6,17.3-8.9c6.2-5,12.5-16,5.6-33.1"/>
			<path class="st3" d="M0.7,215.4c0,0-5.1-15.5,6.4-26.2s27.4,8.3,27.4,8.3s-7-20.1,1.1-19.8s10.1,8.9,10.1,8.9"/>
		</g>
	</g>
</g>
<path id="l-thigh" class="st4" d="M79.8,295.3c0,0,3.2,28.2,8.6,41.8c8.8,22.2,11.7,25.9,20.3,26.5c8.6,0.7,10.1-19.9,11.3-37.2
	c0.4-6,4.6-28.2-4.3-38.2c-12.4-14-38.4-29.5-38-19.2C77.9,275.7,78.1,287.6,79.8,295.3z"/>
<g id="l-calf">
	<path class="st4" d="M95.1,350.4l11.9,54.8l8.1,1.1c0,0,8.5-28.6,1.9-54C109.6,323.9,95.1,350.4,95.1,350.4z"/>
	<path class="st0" d="M121.9,360.4c0.1,1.3,0.2,2.6,0.2,4c0.7,18.1-4.3,38.7-4.3,38.7l-20.8-2.8l-11.4-40.2l-1.4-4.9
		c0,0,3.9-16.8,16.3-13.2C109.4,344.6,121.2,353.9,121.9,360.4z"/>
	<path class="st0" d="M117.9,400.5l0.2,8.7c0,1.4-1,2.6-2.3,2.8c-3.2,0.5-7.2,0.2-12.6,1.3c-4.3,0.9-13.9,3.6-21.9,0.6
		c-0.7-0.3-1.9-2.1-2.6-3.4c0-0.3,0.2-0.5,0.4-0.6c0.9-0.7,3.3-1.2,6.7-2.6c4.1-1.6,6.8-4.5,11.6-8.1c6.2-4.7,13-3.4,18.6-1.3
		C117.1,398.4,117.8,399.3,117.9,400.5z"/>
	<path class="st2" d="M118.1,406.9l0.1,2.2c0,1.4-1,2.6-2.3,2.8c-3.2,0.5-7.2,0.2-12.6,1.3c-4.3,0.9-13.9,3.6-21.9,0.6
		c-0.7-0.3-1.9-2.1-2.6-3.4c0-0.3,0.2-0.5,0.4-0.6c1.3,1.1,3.6,2.1,7.6,2.5C96.3,413.1,113.9,409,118.1,406.9z"/>
	<path class="st2" d="M121.9,360.4c0.1,1.3,0.2,2.6,0.2,4c-7.4-9.3-18.6-18-27-16.5c-5.5,1-9.3,12.2-9.3,12.2l-1.4-4.9
		c0,0,3.9-16.8,16.3-13.2C109.4,344.6,121.2,353.9,121.9,360.4z"/>
</g>
<path id="r-thigh" class="st4" d="M165.3,286.5c0,0,8.2,27.2,8.7,41.8c0.7,23.9-0.4,28.4-8.1,32.4c-7.7,4-17.2-14.2-25.1-29.6
	c-2.8-5.3-16.8-27.5-12.6-40.1c5.9-17.8,22.7-27.8,30-20.5C162.5,274.6,162.7,276.8,165.3,286.5z"/>
<g id="r-calf">
	<path class="st4" d="M152.7,351.9l32.7,45.5l7.9-2.2c0,0-3.5-29.6-19.7-50.3C155.5,321.8,152.7,351.9,152.7,351.9z"/>
	<path class="st0" d="M187.4,347.8c0.6,1.2,1.2,2.3,1.8,3.5c7.8,16.3,11.5,37.2,11.5,37.2l-20.1,5.7l-26.4-32.4l-3.2-4
		c0,0-3.1-16.9,9.8-18.6C169.8,338.2,184.3,342.1,187.4,347.8z"/>
	<path class="st0" d="M199.7,386.1l3.7,7.9c0.6,1.3,0.1,2.1-1,3.5c-6.7,8.5-3.1,8-12.8,12.3c-9.5,4.2-12.8,3.9-15,0.2
		c-1.4-2.4,0.7-1.7,4-6.4c2.7-3.8,1.7-5.2,2-10.5c0.4-7.8,10.6-8.3,16.6-8.5C198.3,384.5,199.3,385.1,199.7,386.1z"/>
	<path class="st2" d="M187.4,347.8c0.6,1.2,1.2,2.3,1.8,3.5c-10.5-5.6-24.2-9.2-31.3-4.4c-4.6,3.1-3.7,14.9-3.7,14.9l-3.2-4
		c0,0-3.1-16.9,9.8-18.6C169.8,338.2,184.3,342.1,187.4,347.8z"/>
	<path class="st2" d="M203.4,394c0.6,1.3,0.1,2.1-1,3.5c-6.7,8.5-3.1,8-12.8,12.4c-9.5,4.2-12.8,3.8-15,0.1
		c-0.4-0.7-0.5-1.2-0.4-1.6c2.2,2.6,5.8,2.5,14.2-1.3c9.7-4.3,6.2-3.9,12.8-12.3c0.9-1.2,1.4-2,1.2-2.9L203.4,394z"/>
</g>
<g id="torso">
	<path class="st5" d="M175,198c0,0,5.2,15.9,1.4,27.2c-3.8,11.3-20.2,43.8-20.2,43.8l-14.1-0.9c0,0,24.8-74,10-80.8
		c0,0,9.7-0.1,13.9,3C169.2,192.8,172.1,195.3,175,198z"/>
	<path class="st0" d="M168.1,247.5c0,2-0.1,4-0.2,5.9c-0.2,2.9-0.4,5.6-0.8,8.2c-2.3,16.4-8.3,27.6-14.7,35
		c-5.8,6.8-22.9,18-30.8,18c-8.7,0-19-6.8-25.4-12.2c-7.3-6.1-16.6-17.5-19-26.7c-4.1-15.1-5.7-30.8-4.9-46.4
		c0.8-12.2,5.1-28.8,13.9-38.4l0.4-0.4c13.3-13.5,56.8-13.5,70.1,0c6.4,6.6,9.4,20.4,10.6,36.3C167.9,233.5,168.1,240.6,168.1,247.5
		z"/>
	<path class="st4" d="M96.7,184.5c-1.9,1.5-5.7,3.8-7.9,7.3c-6.4,10.4-7.1,25.2-7.6,30.5c-1.3,11.9-0.6,23.9,2.1,35.5
		c0.7,2.9,1.5,5.8,2.5,8.6c0.9,2.6,3.2,7.2-0.9,9.1c-7.2,3.3-15-21.5-17.8-38.8c-1-5.7-4.6-26.6,0.3-40c2.2-6.1,7.8-9.9,15.2-12.1
		C87.1,183.2,92.1,183.1,96.7,184.5z"/>
	<path class="st6" d="M168.1,247.5c0,2-0.1,4-0.2,5.9c-2.8,4.6-6,8.5-9,9.4c-8.1,2.4-13.9-18.1-14-27.9s6.6-22.9,6.6-22.9l15.9,14.8
		C167.9,233.5,168.1,240.6,168.1,247.5z"/>
	<g>
		<defs>
			<path id="SVGID_3_" d="M167.1,261.6c-2.3,16.4-8.3,28.6-14.7,36c-5.8,6.8-20,17-30.8,17s-27.6-10.3-33.5-17
				c-6.3-7.3-12.4-19.6-14.7-35.9c4.1,3.5,25.5,9,48.1,9C144.4,270.8,163.3,265.1,167.1,261.6z"/>
		</defs>
		<clipPath id="SVGID_4_">
			<use xlink:href="#SVGID_3_"  style="overflow:visible;"/>
		</clipPath>
		<g class="st7">
			<rect x="74" y="260" class="st4" width="95.3" height="54.6"/>
			<path class="st8" d="M72.6,268.5c0,0,21.8,13,48.6,12.6c25.1-0.4,38.9-4.2,49.4-12.6"/>
			<path class="st8" d="M103.2,279.5c0,15.5,9,33,24.3,39.8"/>
		</g>
	</g>
	<path class="st2" d="M85.3,277.4c0.3,4.6-0.1,10.4-2.6,12.5c-3,2.6-11.7-3.6-12.7-9.9c-1-6.3,5.1-13.3,9.2-13
		C82.6,267.3,85,272.8,85.3,277.4z"/>
</g>
<path id="r-arm" class="st0" d="M169.8,250.4c-8-12.1-20.4-26.3-23.1-36.8s8.5-25.6,16.9-20.6c0,0,19.3,14.8,35.2,42.4
	c0,0,5.3,14.6-8.2,19.6C177.1,260.1,169.8,250.4,169.8,250.4z"/>
<g id="r-hand">
	<g>
		<defs>
			<path id="SVGID_5_" d="M169.8,250.4c-2.6,12.1-7.1,15.8-3.7,23.6s13.4-5.2,13.4-5.2s0.3,21.5,17.2,20.2s16.1-29.3,2.1-53.6
				c0,0-6.7-5.7-16.9,0.1S169.8,250.4,169.8,250.4z"/>
		</defs>
		<clipPath id="SVGID_6_">
			<use xlink:href="#SVGID_5_"  style="overflow:visible;"/>
		</clipPath>
		<g class="st9">
			<polygon class="st2" points="157.3,283.4 180.7,293 215.4,289.1 205.2,228.9 167.9,236.3 			"/>
			<path class="st3" d="M210.7,246.5c0,0-10.2-4.9-18.6-5.7c-7.9-0.7-20.1,2.8-27.1,19.8"/>
			<path class="st3" d="M217.4,271.4c0,0-7.2,14.6-22.9,14.3c-15.7-0.4-13.8-25-13.8-25s-9,19.3-14.6,13.4s-1-13.4-1-13.4"/>
		</g>
	</g>
</g>
<g id="suspender">
	<path class="st4" d="M175,198c-2.1,0.4-4.8-1-7.8,1.2c-9,6.4-15.9,21.5-18.1,26.1c-5.2,10.7-8.6,22.2-10,34.1
		c-0.4,3.1-0.6,6.2-0.7,9.2c-0.1,2.9,0.2,7.1-3.8,8c-10.4,2.5-8.5-30.1-5.2-47.6c1.1-5.8,5.1-24.5,13.9-34.5c4-4.6,9.2-9.5,16.3-7.7
		C165.3,188.2,173.1,193,175,198z"/>
	<path class="st2" d="M138.5,281.7c1.1,6.4-1.2,12-5,12.6s-11.1-3.3-12.1-9.6s4.4-12.8,8.2-13.4
		C133.6,270.7,137.5,275.4,138.5,281.7z"/>
</g>
<g id="head">
	<ellipse class="st10" cx="121.6" cy="188.8" rx="25.3" ry="6.8"/>
	<path class="st11" d="M132.2,188.3c-5.4,5.8-14.4,6.2-20.2,0.8c-0.3-0.3-0.5-0.5-0.8-0.8v-35.9h21V188.3z"/>
	<path class="st12" d="M201.7,110.1c0,53.6-35.8,85.5-80,85.5s-80-31.9-80-85.5S81.9,1.5,121.7,1.5S201.7,56.5,201.7,110.1z"/>
	<path class="st13" d="M167.1,121.6c0.4,25.2-19.7,45.8-44.9,46.2c-25.2,0.4-45.8-19.7-46.2-44.9c0-0.4,0-0.9,0-1.4
		c0-11.6,6.8-27.4,13.5-41c7.9-15.9,6.6-28.8,32-28.8c25.8,0,24.4,13.2,32.3,29.3C160.5,94.6,167.1,110.1,167.1,121.6z"/>
	<path class="st4" d="M158.4,96.2c-28.9-33-26.9-43.6-26.9-43.6l34.8,4.4c1.1,0.1,2.2,0.6,3,1.4c0.2,0.2,0.4,0.4,0.6,0.7
		c0.2,0.3,0.4,0.6,0.5,0.9l0,0c0.2,0.4,0.3,0.7,0.4,1.1C173.5,75.9,158.4,96.2,158.4,96.2z"/>
	<path class="st5" d="M158.4,96.2c0,0,0.8-17.3,4.6-27.1c3.2-8.1,5.2-11.1,6.3-10.7c0.3,0.1,0.5,0.4,0.6,0.7
		c0.1,0.3,0.3,0.6,0.5,0.9l0,0c0.2,0.4,0.3,0.7,0.4,1.1C173.5,75.9,158.4,96.2,158.4,96.2z"/>
	<line class="st14" x1="163" y1="79.1" x2="169.9" y2="82.6"/>
	<path class="st4" d="M181.4,84.6c-0.1,0.2-0.2,0.5-0.2,0.8c-0.2,0.5-0.4,1-0.5,1.5c-0.1,0.2-0.2,0.4-0.2,0.6
		c-1.9,4.4-4.7,8.2-7.6,9.7h-0.1c-1.8,0.9-8-1-8-1l10.3-27c0,0,5.9,2.7,6.6,4.6l0.1,0.2C182.9,76.9,182.6,80.8,181.4,84.6z"/>
	
		<ellipse transform="matrix(0.3566 -0.9343 0.9343 0.3566 32.1058 211.8329)" class="st4" cx="169.8" cy="82.6" rx="14.4" ry="3.8"/>
	<path class="st5" d="M181.4,84.6c-0.1,0.2-0.2,0.5-0.2,0.8c-0.2,0.5-0.4,1-0.5,1.5c-0.1,0.2-0.2,0.4-0.2,0.6
		c-1.9,4.4-4.7,8.2-7.6,9.7c-1.3-1.2-0.7-6.6,1.6-12.6s5.5-10.7,7.3-10.5C182.9,76.9,182.6,80.8,181.4,84.6z"/>
	<line class="st15" x1="184.2" y1="89.8" x2="177.3" y2="86.2"/>
	<path class="st4" d="M188.8,90.4l-0.1,0.3l-0.2,0.6c0,0.1-0.1,0.2-0.1,0.2c-0.5,1.5-1.6,2.9-2.9,3.8l0,0c-0.7,0.3-3.1-0.4-3.1-0.4
		l4-10.5c0,0,2.3,1.1,2.6,1.8c0,0,0,0.1,0,0.1C189.3,87.6,189.3,89.1,188.8,90.4z"/>
	<ellipse transform="matrix(0.3566 -0.9343 0.9343 0.3566 34.8443 229.8565)" class="st4" cx="184.3" cy="89.6" rx="5.6" ry="1.5"/>
	<path class="st5" d="M188.8,90.4l-0.1,0.3l-0.2,0.6c0,0.1-0.1,0.2-0.1,0.2c-0.5,1.5-1.6,2.9-2.9,3.8c-0.5-0.5-0.3-2.6,0.6-4.9
		s2.1-4.2,2.8-4.1C189.3,87.6,189.3,89.1,188.8,90.4z"/>
	<path class="st4" d="M57.9,95.2c0.7,0.3,3.1-0.4,3.1-0.4l-4-10.5c0,0-2.3,1.1-2.6,1.8C53.2,88.9,55.5,94.1,57.9,95.2z"/>
	<ellipse transform="matrix(0.9343 -0.3566 0.3566 0.9343 -28.0898 26.902)" class="st5" cx="58.9" cy="89.6" rx="1.4" ry="5.6"/>
	<line class="st15" x1="67.3" y1="85.6" x2="59" y2="89.8"/>
	<path class="st4" d="M70.5,97.1c1.8,0.9,8-1,8-1l-10.3-27c0,0-5.9,2.7-6.6,4.6C58.5,80.8,64.6,94.2,70.5,97.1z"/>
	<ellipse transform="matrix(0.9343 -0.3566 0.3566 0.9343 -24.6419 31.5839)" class="st5" cx="73.3" cy="82.6" rx="3.8" ry="14.4"/>
	<line class="st14" x1="87" y1="75.7" x2="73.3" y2="82.6"/>
	<path class="st4" d="M111.7,52.6c0,0-10.9,4.6-28.4,41.4c0,0-13.7-17.9-10.9-32.9c0.4-2.2,2.2-3.8,4.4-4.1L111.7,52.6z"/>
	<path class="st11" d="M99,131.7c0,0-6.9,1.3-5.2,5.5c1,2.5,2.8,4.6,5.2,6c0,0-2.2-5-2.1-6.7C97,135.2,99,131.7,99,131.7z"/>
	<path class="st11" d="M130.8,132.9c0,0,6.9,1.3,5.2,5.5c-1,2.5-2.8,4.6-5.2,6V132.9z"/>
	<path class="st16" d="M125.6,108.6l-23.1,0.9c-2.7,1.8-5.2,3.9-7.5,6.3c-1.6,5.5,9,18.2,18.6,18.2c9.5,0,16.4-10.1,15.8-14.6
		C128.9,115.5,127.6,111.9,125.6,108.6z"/>
	<path class="st13" d="M126.2,112.3c0.3,2.1,0.4,4.1,0.3,6.2c-0.2,1.7-7.4,6.8-17.8,5.9s-14.4-7-13.8-8.7c1.1-2,2.3-4,3.6-5.9
		c6.8-9.9,10.4-14.3,11.4-22.2s5.5-7.3,7.5-7.5s6.2-0.3,5.8,5.8C123.1,90,125,101.5,126.2,112.3z"/>
	<path class="st5" d="M133.1,137.5c-4.7,3.8-12.7,6.7-21.7,6.1s-12.3-3.2-14.4-7.1c0,0,6,13.6,14.4,14.1S133.1,137.5,133.1,137.5z"
		/>
	
		<ellipse transform="matrix(0.9857 -0.1687 0.1687 0.9857 -13.546 24.1037)" class="st0" cx="135.1" cy="91.8" rx="10.6" ry="16.3"/>
	<path class="st0" d="M88.7,87.2c-2.5,8.5,0.5,16.9,5.5,18.8s11.1-3.6,13.6-12.1s0.5-16.9-4.5-18.8S91.2,78.6,88.7,87.2z"/>
	
		<ellipse transform="matrix(4.414246e-02 -0.999 0.999 4.414246e-02 11.4832 184.8972)" class="st17" cx="102.4" cy="86.4" rx="5.4" ry="3.2"/>
	
		<ellipse transform="matrix(0.9954 -9.567202e-02 9.567202e-02 0.9954 -7.7121 13.5642)" class="st17" cx="137.6" cy="87.2" rx="3.5" ry="5.4"/>
	<polygon class="st16" points="90.6,72.3 104.2,68.3 104.1,63.9 89.7,68.3 	"/>
	<polygon class="st16" points="144.2,71.6 130.4,68.3 130.3,63.9 144.9,67.5 	"/>
	<path class="st18" d="M201.7,110.1c0,53.6-35.8,85.5-80,85.5s-80-31.9-80-85.5S81.9,1.5,121.7,1.5S201.7,56.5,201.7,110.1z"/>
	
		<ellipse transform="matrix(0.6899 -0.7239 0.7239 0.6899 25.2866 109.8406)" class="st17" cx="140.8" cy="25.4" rx="6.9" ry="8.7"/>
	<path class="st17" d="M158,33.5c0.9,0.8,1.6,1.4,2.4,2.2s1.5,1.5,2.2,2.2s1.4,1.5,2.1,2.3s1.4,1.5,2,2.3l1.9,2.4
		c0.6,0.8,1.2,1.7,1.8,2.5s1.2,1.6,1.7,2.5l1.6,2.6c4.1,6.9,7.6,14.1,10.3,21.7c1.2,3.8,2.6,7.6,3.4,11.5l0.7,2.9
		c0.2,1,0.5,1.9,0.6,2.9l1.1,5.9c0.2,1,0.4,1.9,0.5,2.9l0.3,3l0.6,5.9c0.3,4,0.4,7.9,0.6,11.8c-0.4-3.9-0.8-7.9-1.3-11.8l-1-5.8
		l-0.5-2.9c-0.2-1-0.4-1.9-0.7-2.9l-1.4-5.8c-0.2-1-0.5-1.9-0.8-2.8l-0.9-2.8c-1.1-3.8-2.6-7.4-4-11c-3.1-7.1-6.9-13.9-11.3-20.3
		l-1.7-2.3c-0.6-0.8-1.2-1.5-1.8-2.3s-1.2-1.5-1.8-2.2l-1.9-2.1c-0.6-0.7-1.3-1.4-2-2.1s-1.3-1.4-2-2s-1.4-1.3-2.1-1.9
		s-1.5-1.2-2.1-1.7l-0.1-0.1c-1.3-1.1-1.4-3-0.3-4.2c0.9-1.1,2.5-1.4,3.8-0.6L158,33.5z"/>
	<path class="st17" d="M60.4,130c-0.1,5.1,0.8,10.2,2.8,14.9c2,4.9,4.6,9.6,7.7,13.9c3.1,4.4,6.7,8.5,10.6,12.2c2,1.9,4,3.6,6.2,5.3
		c2.2,1.7,4.5,3.1,7,4.2c-2.6-0.9-5.1-2.1-7.4-3.6c-2.3-1.5-4.6-3-6.7-4.8c-4.3-3.4-8.4-7.3-12-11.5c-3.7-4.2-6.9-8.9-9.5-13.9
		c-2.7-5.2-4.3-10.9-4.7-16.7l0,0c-0.1-1.7,1.2-3.1,2.9-3.1c1.7-0.1,3.1,1.2,3.1,2.9C60.4,129.8,60.4,129.9,60.4,130z"/>
</g>
</svg>
