<?xml version="1.0" encoding="utf-8"?>
<!-- Generator: Adobe Illustrator 25.2.0, SVG Export Plug-In . SVG Version: 6.00 Build 0)  -->
<svg version="1.1" id="Layer_1" xmlns="http://www.w3.org/2000/svg" xmlns:xlink="http://www.w3.org/1999/xlink" x="0px" y="0px"
	 viewBox="0 0 180.7 380.9" style="enable-background:new 0 0 180.7 380.9;" xml:space="preserve">
<style type="text/css">
	.st0{fill:#ED6100;}
	.st1{fill:#311D44;}
	.st2{fill:#49ED00;}
	.st3{clip-path:url(#SVGID_2_);}
	.st4{fill:none;stroke:#35BA00;stroke-miterlimit:10;}
	.st5{fill:#FF8E06;}
	.st6{fill:#1E122B;}
	.st7{clip-path:url(#SVGID_4_);}
	.st8{fill:none;stroke:#ED6100;stroke-width:2;stroke-miterlimit:10;}
	.st9{clip-path:url(#SVGID_6_);}
	.st10{fill:#FBFF43;stroke:#9AE0E2;stroke-width:0.92;stroke-miterlimit:10;}
	.st11{fill:#EFDD00;}
	.st12{opacity:0.35;fill:#9AE0E2;enable-background:new    ;}
	.st13{fill:none;stroke:#1B264C;stroke-width:3;stroke-linecap:round;stroke-miterlimit:10;}
	.st14{fill:#FFFFFF;}
	.st15{fill:#FBFF43;}
	.st16{fill:none;stroke:#1B264C;stroke-width:2;stroke-linecap:round;stroke-miterlimit:10;}
	.st17{fill:#D85092;}
	.st18{fill:none;stroke:#9AE0E2;stroke-width:3;stroke-miterlimit:10;}
</style>
<path id="b-thigh" class="st0" d="M77.3,265.3c0,0-28.4,10.2-41,17.6c-20.6,12-23.8,15.4-23.2,24c0.6,8.6,21.2,7,38.4,5.5
	c6-0.5,27.2,4.3,35.7-5.9c12-14.4,10.4-30.5,7-38.2C92.7,264.8,85.5,261.6,77.3,265.3z"/>
<g id="b-calf">
	<path class="st0" d="M13.3,307.5L26.5,362l8.1,0.9c0,0,7.8-28.8,0.6-54C27.2,280.7,13.3,307.5,13.3,307.5z"/>
	<path class="st1" d="M43.6,316.9c0.2,1.3,0.3,2.6,0.3,4c1.1,18-3.4,38.8-3.4,38.8l-19.9,0.5L7.5,317.3l-1.4-4.9
		c0,0-4.8-11.6,8.2-11C25.5,302,42.9,310.5,43.6,316.9z"/>
	<path class="st1" d="M40.7,357.3l0.1,8.3v4.7c-6.6,1-13.2,1.5-19.8,1.5c-12,0.1-19.5-2.8-19.5-2.8L0,364.6c0,0,13.3-2.1,20.3-7.2
		C27.3,352.4,34.9,354.6,40.7,357.3z"/>
	<path class="st2" d="M40.8,365.5v4.6c-6.6,1-13.2,1.5-19.8,1.5c-12,0.1-19.5-2.8-19.5-2.8L0,364.6c0,0,3,1.6,12.5,2.5
		C22,368,36.5,367.5,40.8,365.5z"/>
	<path class="st2" d="M43.1,311.9c0.1,1.3,0.6,4.8,0.7,6.1c-17.5-14.4-29.5-15.8-33.2-15.6c-5.1,0.3-5.1,8-5.1,8s-4.7-14.5,8.2-13.9
		C25,297,42.3,305.4,43.1,311.9z"/>
</g>
<path id="b-arm" class="st1" d="M33.2,179c9.3,11.1,19.5,27,28.8,32.6c9.3,5.6,26.9-0.9,24.5-10.4c0,0-8.7-22.7-30.8-45.8
	c0,0-12.5-9.2-21.1,2.4S33.2,179,33.2,179z"/>
<g id="b-hand">
	<g>
		<defs>
			<path id="SVGID_1_" d="M56.5,155.7c-1.4-12.3,1.7-17.2-4.1-23.6s-11,9.2-11,9.2s-7.1-20.3-22.8-13.6s-6.4,32.7,14.5,51.3
				c0,0,8.8,3.5,16.6-5.3S56.5,155.7,56.5,155.7z"/>
		</defs>
		<clipPath id="SVGID_2_">
			<use xlink:href="#SVGID_1_"  style="overflow:visible;"/>
		</clipPath>
		<g class="st3">
			<polygon class="st2" points="57.8,120.5 32.6,118.8 0.9,133.6 29.8,187.4 62.8,168.5 			"/>
			<path class="st4" d="M18.9,172.5c0,0,11.3,1.4,19.4-0.5c7.7-1.8,18.2-9.1,19.4-27.4"/>
			<path class="st4" d="M4.7,151c0,0,2.2-16.2,17.1-20.8s21.1,19.3,21.1,19.3s2.4-21.1,9.6-17.4s5.3,12.4,5.3,12.4"/>
		</g>
	</g>
</g>
<g id="torso">
	<path class="st0" d="M152.9,199.9c0,0,4.7,14,0.9,25.4s-15.2,45.9-15.2,45.9h-12.9c0,0,16.1-68.7,1.3-75.6c0,0,11-5.7,15.2-2.6
		S152.9,199.9,152.9,199.9z"/>
	<path class="st5" d="M90.8,181.3c-1.9,1.5-20.9,5.4-23.1,9c-6.5,10.4-7.1,25.2-7.6,30.5c-1.3,11.9-0.6,23.8,2.1,35.5
		c0.7,2.9-3.4,3.9-2.5,6.7c0.9,2.6,2.3,8.6-1.9,10.5c-7.2,3.3-9-21-11.9-38.2c-1-5.8-4.6-27.2,2.6-39.6c3.3-5.6,8.5-9.4,15.3-13.1
		C71.9,178.2,84.6,177.7,90.8,181.3z"/>
	<path class="st1" d="M146.1,225.3c-0.6,7.1-4.4,14.6-4.3,22.3c0.1,10,0.1,18.5-1.1,26.2c-1.4,8.9-4.5,16.6-10.8,23.9
		c-5.8,6.8-22.9,17-30.8,17c-8.7,0-18.3-8.4-24.7-13.7c-7.3-6.1-23.1-23.3-25.5-32.4c-3.7-14-1.1-33.1,1.5-44.3
		c3-13,7.2-23.9,13.2-33.2c0.1-0.1,0.2-0.3,0.4-0.4c13.3-13.5,56.8-13.5,70.1,0c7.8,7.9,12.1,18.6,12.1,29.7
		C146.3,221.9,146.3,223.6,146.1,225.3z"/>
	<path class="st6" d="M146.1,225.3c-0.6,7.1-4.4,14.6-4.3,22.3c0.1,10,0.1,18.5-1.1,26.2c-8.3,5.5-24,11.4-44-0.3
		c-2.1-1.2,9.3-66.1,27.7-65.6c10.6,0.2,17.6,4.6,21.9,12.5C146.3,221.9,146.2,223.6,146.1,225.3z"/>
	<g>
		<defs>
			<path id="SVGID_3_" d="M141.8,261.6c2.2,22.5-1.9,30.3-8.3,37.5c-13.9,15.6-26.4,15.5-37.1,15.5c-13.9,0.1-27.6-10.3-33.5-17
				c-7.8-8.9-14-21.7-15.6-36.8c4.1,3.5,26.5,10,49,10C119,270.8,137.9,265.1,141.8,261.6z"/>
		</defs>
		<clipPath id="SVGID_4_">
			<use xlink:href="#SVGID_3_"  style="overflow:visible;"/>
		</clipPath>
		<g class="st7">
			<rect x="45.6" y="260" class="st5" width="98.4" height="54.6"/>
			<path class="st8" d="M47.3,268.5c14.8,7.1,31.1,10.7,47.6,10.5c25.1-0.4,40-2.1,50.5-10.5"/>
			<path class="st8" d="M53.6,271.3c0,15.5,19.7,36.7,35.1,43.4"/>
		</g>
	</g>
</g>
<path id="f-arm" class="st1" d="M140.2,258.8c-8.4-11.9-21.1-25.7-24.2-36.1s7.7-25.8,16.3-21.1c0,0,19.7,14.2,36.4,41.4
	c0,0,5.7,14.4-7.6,19.8S140.2,258.8,140.2,258.8z"/>
<g id="f-hand">
	<g>
		<defs>
			<path id="SVGID_5_" d="M136.9,237.1c-12.3-0.6-16.7-4.4-23.9,0.2s7.3,12.3,7.3,12.3s-21.1,3.8-17,20.3s31.6,11,53.2-6.8
				c0,0,4.6-7.6-2.9-16.7S136.9,237.1,136.9,237.1z"/>
		</defs>
		<clipPath id="SVGID_6_">
			<use xlink:href="#SVGID_5_"  style="overflow:visible;"/>
		</clipPath>
		<g class="st9">
			<polygon class="st2" points="102.3,230.3 96.7,254.9 106.3,288.5 164,268.5 150.6,233 			"/>
			<path class="st4" d="M147.5,276.9c0,0,3.1-10.9,2.5-19.3c-0.6-7.9-6.1-19.4-24-23.5"/>
			<path class="st4" d="M124,287.5c0,0-15.6-4.7-17.9-20.2c-2.2-15.5,22.4-17.8,22.4-17.8s-20.5-5.7-15.6-12.2s13.1-3.3,13.1-3.3"/>
		</g>
	</g>
</g>
<g id="suspender">
	<path class="st5" d="M152.9,199.9c5.1,18-3.9,17-5.2,11.5c-0.9-3.6-2.4-3.2-5.5-4.1c-5.2-1.5-17.5,1.2-26.1,7.4
		c-8.2,5.9-25.4,22.7-33.1,48.2c-1.1,3.7-2.5,15.7-7.7,16.6c-9.9,1.8-5.9-32.7,3.3-50.3c10.1-19.2,23.5-29.2,40.1-34.8
		c5.7-1.9,15.8-6,22.9-4.3C147.4,191.5,151.5,194.8,152.9,199.9z"/>
	<path class="st2" d="M82.1,280.1c0.3,4.7-0.1,10.4-2.6,12.5c-3,2.6-11.7-3.6-12.7-9.9s5.1-13.3,9.2-13
		C79.4,270,81.8,275.5,82.1,280.1z"/>
</g>
<path id="f-thigh" class="st5" d="M85.1,280.8c0,0-3.8,1-15.9,9.3c-19.8,13.5-22.7,17-21.5,25.6c1.2,8.6,21.6,5.5,38.7,2.9
	c5.9-0.9,21.5-3.3,33.8-8.1c5.7-2.2,14.8-5,19.3-20.5C135.4,289.3,102.1,282.9,85.1,280.8z"/>
<g id="f-calf">
	<path class="st5" d="M48.5,316.9L63,371l8.2,0.7c0,0,7.1-29-0.7-54C61.7,289.7,48.5,316.9,48.5,316.9z"/>
	<path class="st1" d="M79,325.5c0.2,1.3,0.3,2.6,0.4,4c1.5,18-2.5,38.9-2.5,38.9l-19.9,1L43,326.9l-1.6-4.8c0,0-5.1-11.5,7.9-11.2
		C60.6,311.1,78.1,319.1,79,325.5z"/>
	<path class="st1" d="M77,366l0.3,8.3l0.1,4.6c-6.5,1.2-13.2,1.8-19.8,2c-12,0.4-19.6-2.3-19.6-2.3l-1.5-4.3c0,0,13.2-2.4,20.1-7.7
		C63.6,361.4,71.2,363.5,77,366z"/>
	<path class="st2" d="M77.3,374.3l0.1,4.6c-6.5,1.2-13.2,1.8-19.8,2c-12,0.4-19.6-2.3-19.6-2.3l-1.5-4.3c0,0,3,1.6,12.6,2.2
		C58.7,377.2,73.1,376.4,77.3,374.3z"/>
	<path class="st2" d="M78.3,320.5c0.2,1.3,0.7,4.7,0.8,6.1c-17.8-14-29.8-15.1-33.6-14.8c-5.1,0.4-4.9,8.1-4.9,8.1s-5-14.4,7.9-14.1
		C59.9,306.1,77.4,314.1,78.3,320.5z"/>
</g>
<g id="head">
	<ellipse class="st10" cx="99.1" cy="188.8" rx="25.3" ry="6.8"/>
	<path class="st11" d="M109.7,188.3c-5.3,5.8-14.4,6.2-20.2,0.8c-0.3-0.3-0.6-0.5-0.8-0.8v-36h21V188.3z"/>
	<path class="st12" d="M179.2,110.1c0,53.6-35.8,85.5-80,85.5s-80-31.9-80-85.5S59.4,1.5,99.2,1.5S179.2,56.5,179.2,110.1z"/>
	<path class="st5" d="M54.9,89c0.8,0.4,4.1-0.6,4.1-0.6l-4.6-12.3c0,0-3.1,1.4-3.4,2.2C49.5,81.6,52.2,87.7,54.9,89z"/>
	<ellipse transform="matrix(0.9363 -0.3512 0.3512 0.9363 -25.8434 24.2231)" class="st5" cx="53.9" cy="83.4" rx="3.4" ry="6"/>
	<ellipse transform="matrix(0.9363 -0.3512 0.3512 0.9363 -25.2955 25.1439)" class="st0" cx="56.7" cy="82.3" rx="3.7" ry="6.6"/>
	<path class="st5" d="M63.6,91.3c1.8,0.9,9-1.3,9-1.3L62.4,62.9c0,0-6.8,3-7.6,4.9C51.8,74.9,57.7,88.4,63.6,91.3z"/>
	<ellipse transform="matrix(0.9363 -0.3512 0.3512 0.9363 -23.7557 26.5469)" class="st5" cx="61.3" cy="78.8" rx="7.5" ry="13.3"/>
	<ellipse transform="matrix(0.9363 -0.3512 0.3512 0.9363 -22.5413 28.5779)" class="st0" cx="67.5" cy="76.4" rx="8.2" ry="14.5"/>
	<line class="st13" x1="66.7" y1="75.2" x2="80.1" y2="71.5"/>
	<path class="st5" d="M68.3,78.6c4.8,7.8,11.5,14.5,11.5,14.6c6-3.2,14.5-11.4,19.3-19.5c12-20.3,1-21.3,1-21.3
		c-6.1,0-14-0.2-19.6,0c-4,0.2-8.2,0.3-10.3,1.1C64.2,55.4,62.6,69.3,68.3,78.6z"/>
	
		<ellipse transform="matrix(0.2297 -0.9733 0.9733 0.2297 -34.9273 137.2562)" class="st1" cx="69.2" cy="90.7" rx="15.2" ry="9.9"/>
	
		<ellipse transform="matrix(0.3009 -0.9537 0.9537 0.3009 -32.5266 130.9904)" class="st14" cx="73.1" cy="87.7" rx="5.1" ry="3.3"/>
	<path class="st15" d="M144.7,121.6c0,25.2-20.4,45.5-45.6,45.5c-29.6,0-45.6-20.4-45.6-45.6c0-11.6,6.8-27.4,13.5-41.1
		c7.9-15.9,6.6-28.8,32-28.8c25.8,0,24.4,13.2,32.3,29.3C138,94.6,144.7,110.1,144.7,121.6z"/>
	<path class="st5" d="M137.1,82.6c-5.7,7.1-13.2,12.9-13.2,13.1c-5.6-3.9-13-13.2-16.6-21.8c-9.4-21.7,1.7-21.3,1.7-21.3
		c6,0.8,13.9,1.5,19.4,2.4c4,0.7,8.1,1.3,10.1,2.3C144.2,60.1,143.9,74.1,137.1,82.6z"/>
	<path class="st0" d="M137.1,82.6c-5.7,7.1-13.2,12.9-13.2,13.1c-2.1-6.2-3.3-12.8-3.5-19.4c-0.1-10.6,6.6-21.9,18.1-18.9
		C144.2,60.1,143.9,74.1,137.1,82.6z"/>
	<line class="st13" x1="130.3" y1="78.4" x2="142.4" y2="84.6"/>
	<ellipse transform="matrix(0.3983 -0.9173 0.9173 0.3983 6.3392 176.9148)" class="st5" cx="138" cy="83.6" rx="14.4" ry="8.2"/>
	<path class="st5" d="M141.1,98.6c-1.9,0.8-8.9-1.8-8.9-1.8l11.5-26.5c0,0,6.6,3.4,7.4,5.3C153.8,82.9,147.2,96,141.1,98.6z"/>
	<ellipse transform="matrix(0.3983 -0.9173 0.9173 0.3983 7.5847 184.0839)" class="st0" cx="144.1" cy="86.3" rx="13.2" ry="7.5"/>
	<line class="st16" x1="150.6" y1="89.4" x2="143.7" y2="85.9"/>
	<ellipse transform="matrix(0.3983 -0.9173 0.9173 0.3983 6.9871 189.4612)" class="st5" cx="147.9" cy="89.4" rx="6.6" ry="3.7"/>
	<path class="st5" d="M149.3,96.3c-0.8,0.4-4-0.8-4-0.8l5.2-12c0,0,3,1.5,3.3,2.4C155.1,89.1,152.1,95,149.3,96.3z"/>
	<ellipse transform="matrix(0.3983 -0.9173 0.9173 0.3983 7.5486 192.7018)" class="st0" cx="150.6" cy="90.6" rx="6" ry="3.4"/>
	<path class="st11" d="M83.6,136.1c0,0,6.9,1.3,5.2,5.5c-1,2.5-2.9,4.6-5.2,6c0,0,2.2-5,2.1-6.7C85.6,139.5,83.6,136.1,83.6,136.1z"
		/>
	<path class="st17" d="M69.2,111.5l-13.1-2.8c0,0-8.3,5.1-11,8.9c-0.6,8.8,9.7,14.9,19.3,14.2c4.5-0.4,6.6-8.6,6.1-13.1
		C70,112.3,69.2,111.5,69.2,111.5z"/>
	<path class="st15" d="M65.8,118.5c-1,1.5-5.4,6.8-12.8,5.9s-8.3-5.2-7.8-6.9s7.1-7.7,7.1-7.7c5-7.3,9-15.2,12.1-23.4
		c2.8-7.4,4.8-6.1,6.2-5.8s4.5,0.6,3.4,6.7C70.4,107.6,70.1,112,65.8,118.5z"/>
	<path class="st0" d="M87.6,140.3c-8.1,2.7-14.5,3.2-21.8,1.7c-2.8-0.6-5.5-1.6-6.3-5.2c0,0,2.4,12.2,12.8,12.3
		C78.6,149.2,87.6,140.3,87.6,140.3z"/>
	<path class="st1" d="M98,92.9c0.2,9-4.3,16.4-10.2,16.5s-12-6.9-12.2-15.9S81.1,77.1,86.9,77S97.7,84,98,92.9z"/>
	
		<ellipse transform="matrix(4.640914e-02 -0.9989 0.9989 4.640914e-02 -2.6648 175.3241)" class="st14" cx="90.5" cy="89.1" rx="5.4" ry="3.5"/>
	<polygon class="st17" points="64.2,77.6 73.5,72.3 72.7,67.9 63,73.7 	"/>
	<polygon class="st17" points="99.7,74.8 86.2,70.4 86.5,65.9 100.7,70.8 	"/>
	<path class="st18" d="M179.2,110.1c0,53.6-35.8,85.5-80,85.5s-80-31.9-80-85.5S59.4,1.5,99.2,1.5S179.2,56.5,179.2,110.1z"/>
	<ellipse transform="matrix(0.6899 -0.7239 0.7239 0.6899 18.3292 93.5563)" class="st14" cx="118.4" cy="25.4" rx="6.9" ry="8.7"/>
	<path class="st14" d="M135.5,33.5c0.9,0.8,1.7,1.4,2.4,2.2s1.5,1.5,2.2,2.2s1.4,1.5,2.1,2.3s1.4,1.5,2,2.3l1.9,2.4
		c0.6,0.8,1.2,1.7,1.8,2.5s1.2,1.7,1.7,2.5l1.6,2.6c4.2,6.9,7.6,14.1,10.3,21.7c1.2,3.8,2.6,7.6,3.4,11.5l0.7,2.9
		c0.2,1,0.5,1.9,0.6,2.9l1.1,5.9c0.2,1,0.4,2,0.5,2.9l0.3,3l0.7,5.9c0.3,4,0.4,7.9,0.6,11.8c-0.4-3.9-0.8-7.9-1.3-11.8l-1-5.8
		l-0.5-2.9c-0.2-1-0.4-1.9-0.7-2.9l-1.4-5.7c-0.2-1-0.5-1.9-0.8-2.8l-0.9-2.8c-1.1-3.8-2.6-7.4-4-11c-3.1-7.1-6.9-13.9-11.3-20.3
		l-1.7-2.3c-0.6-0.8-1.2-1.5-1.8-2.3s-1.2-1.5-1.8-2.2l-2-2.2c-0.6-0.7-1.3-1.4-2-2.1s-1.3-1.4-2-2s-1.4-1.3-2.1-1.9
		s-1.5-1.2-2.1-1.7l-0.1-0.1c-1.3-1-1.7-2.8-0.7-4.2c1-1.3,2.8-1.7,4.2-0.7L135.5,33.5z"/>
	<path class="st14" d="M37.9,130c-0.1,5.1,0.8,10.2,2.8,14.9c2,4.9,4.6,9.6,7.7,13.9c3.2,4.4,6.7,8.5,10.6,12.2c2,1.9,4,3.6,6.2,5.3
		c2.2,1.7,4.5,3.1,7,4.2c-2.6-0.9-5.1-2.1-7.4-3.6c-2.3-1.5-4.6-3-6.7-4.8c-4.3-3.4-8.4-7.3-12-11.5c-3.7-4.2-6.9-8.9-9.5-13.9
		c-2.7-5.2-4.4-10.9-4.7-16.7l0,0c-0.1-1.7,1.2-3.1,2.9-3.1c1.7-0.1,3.1,1.2,3.1,2.9L37.9,130z"/>
</g>
</svg>
