<?xml version="1.0" encoding="utf-8"?>
<!-- Generator: Adobe Illustrator 25.2.0, SVG Export Plug-In . SVG Version: 6.00 Build 0)  -->
<svg version="1.1" id="Layer_1" xmlns="http://www.w3.org/2000/svg" xmlns:xlink="http://www.w3.org/1999/xlink" x="0px" y="0px"
	 viewBox="0 0 209.8 415.3" style="enable-background:new 0 0 209.8 415.3;" xml:space="preserve">
<style type="text/css">
	.st0{fill:#311D44;}
	.st1{clip-path:url(#SVGID_2_);}
	.st2{fill:#49ED00;}
	.st3{fill:none;stroke:#35BA00;stroke-miterlimit:10;}
	.st4{fill:#FF8E06;}
	.st5{clip-path:url(#SVGID_4_);}
	.st6{fill:none;stroke:#ED6100;stroke-width:2;stroke-miterlimit:10;}
	.st7{clip-path:url(#SVGID_6_);}
	.st8{fill:#FBFF43;stroke:#9AE0E2;stroke-width:0.92;stroke-miterlimit:10;}
	.st9{fill:#EFDD00;}
	.st10{opacity:0.35;fill:#9AE0E2;enable-background:new    ;}
	.st11{fill:#FBFF43;}
	.st12{fill:#ED6100;}
	.st13{fill:none;stroke:#1B264C;stroke-width:2;stroke-linecap:round;stroke-miterlimit:10;}
	.st14{fill:none;stroke:#1B264C;stroke-width:3;stroke-linecap:round;stroke-miterlimit:10;}
	.st15{fill:#D85092;}
	.st16{fill:#FFFFFF;}
	.st17{fill:none;stroke:#9AE0E2;stroke-width:3;stroke-miterlimit:10;}
</style>
<path id="r-arm" class="st0" d="M170.2,251.4c-8-12.1-20.4-26.3-23.1-36.8S155.6,189,164,194c0,0,19.3,14.8,35.2,42.5
	c0,0,5.3,14.6-8.2,19.6C177.5,261.1,170.2,251.4,170.2,251.4z"/>
<g id="r-hand">
	<g>
		<defs>
			<path id="SVGID_1_" d="M170.2,251.4c-2.6,12.1-7.1,15.8-3.7,23.6c3.4,7.9,13.4-5.2,13.4-5.2s0.3,21.5,17.2,20.2
				c17-1.3,16.1-29.3,2.1-53.6c0,0-6.7-5.7-16.9,0.1S170.2,251.4,170.2,251.4z"/>
		</defs>
		<clipPath id="SVGID_2_">
			<use xlink:href="#SVGID_1_"  style="overflow:visible;"/>
		</clipPath>
		<g class="st1">
			<polygon class="st2" points="157.8,284.4 181.1,294 215.8,290.1 205.6,229.9 168.4,237.3 			"/>
			<path class="st3" d="M211.2,247.5c0,0-10.2-4.9-18.6-5.7c-7.9-0.7-20.1,2.8-27.1,19.8"/>
			<path class="st3" d="M217.8,272.4c0,0-7.2,14.6-22.9,14.3s-13.8-25-13.8-25s-9,19.3-14.6,13.4s-1.1-13.4-1.1-13.4"/>
		</g>
	</g>
</g>
<path id="l-arm" class="st0" d="M65,247.5c8-12.1,19-22.5,21.7-32.9S78.3,189,69.8,194c0,0-15.8,8.6-31.7,36.3c0,0-7,13.9,5.3,21.4
	C55.8,259.1,65,247.5,65,247.5z"/>
<path id="l-thigh" class="st4" d="M75.1,295.3c0,0,3.2,28.2,8.6,41.8c8.8,22.2,11.7,25.9,20.3,26.5c8.6,0.7,10.1-19.9,11.3-37.2
	c0.4-6,4.6-28.2-4.3-38.2c-12.4-14-38.4-29.5-38-19.2C73.1,275.7,73.3,287.6,75.1,295.3z"/>
<g id="l-calf">
	<path class="st4" d="M90.4,350.4l11.9,54.8l8.1,1.1c0,0,8.5-28.6,1.9-54C104.9,323.9,90.4,350.4,90.4,350.4z"/>
	<path class="st0" d="M117.1,360.4c0.1,1.3,0.2,2.6,0.3,4c0.7,18.1-4.3,38.7-4.3,38.7l-20.7-2.8L81,360.1l-1.4-4.9
		c0,0,3.9-16.8,16.3-13.2C104.7,344.6,116.5,353.9,117.1,360.4z"/>
	<path class="st0" d="M113.2,400.5l0.2,8.7c0,1.4-1,2.6-2.4,2.8c-3.2,0.5-7.2,0.2-12.6,1.3c-4.3,0.9-14,3.6-21.9,0.6
		c-0.7-0.3-1.9-2.1-2.6-3.4c0-0.3,0.2-0.5,0.4-0.6c0.9-0.7,3.3-1.2,6.7-2.6c4.1-1.6,6.8-4.5,11.6-8.1c6.2-4.7,13-3.4,18.6-1.3
		C112.4,398.3,113.1,399.3,113.2,400.5z"/>
	<path class="st2" d="M113.3,406.9l0.1,2.2c0,1.4-1,2.6-2.4,2.8c-3.2,0.5-7.2,0.2-12.6,1.3c-4.3,0.9-14,3.6-21.9,0.6
		c-0.7-0.3-1.9-2.1-2.6-3.4c0-0.3,0.2-0.5,0.4-0.6c1.3,1.1,3.6,2.1,7.6,2.5C91.6,413.1,109.1,409,113.3,406.9z"/>
	<path class="st2" d="M117.1,360.4c0.1,1.3,0.2,2.6,0.3,4c-7.4-9.3-18.6-18-27-16.5c-5.5,1-9.3,12.2-9.3,12.2l-1.4-4.9
		c0,0,3.9-16.8,16.3-13.2C104.7,344.6,116.5,353.9,117.1,360.4z"/>
</g>
<path id="r-thigh" class="st4" d="M158.8,295.3c0,0-3.2,28.2-8.6,41.8c-8.8,22.2-11.6,25.9-20.3,26.5c-8.6,0.7-10.1-19.9-11.3-37.2
	c-0.4-6-4.6-28.2,4.3-38.2c12.4-14,38.4-29.5,38-19.2C160.7,275.7,160.5,287.6,158.8,295.3z"/>
<g id="r-calf">
	<path class="st4" d="M143.5,350.4l-11.9,54.8l-8.1,1.1c0,0-8.5-28.6-1.9-54C128.9,323.9,143.5,350.4,143.5,350.4z"/>
	<path class="st0" d="M116.8,360.4c-0.1,1.3-0.2,2.6-0.3,4c-0.7,18.1,4.3,38.7,4.3,38.7l20.7-2.8l11.4-40.2l1.4-4.9
		c0,0-3.9-16.8-16.3-13.2C129.2,344.6,117.4,353.9,116.8,360.4z"/>
	<path class="st0" d="M120.7,400.5l-0.2,8.7c0,1.4,1,2.6,2.3,2.8c3.2,0.5,7.2,0.2,12.6,1.3c4.3,0.9,14,3.6,21.9,0.6
		c0.7-0.3,1.9-2.1,2.6-3.4c0-0.3-0.2-0.5-0.4-0.6c-0.9-0.7-3.4-1.2-6.7-2.6c-4.1-1.6-6.8-4.5-11.6-8.1c-6.3-4.7-13-3.4-18.6-1.3
		C121.4,398.4,120.7,399.3,120.7,400.5z"/>
	<path class="st2" d="M120.5,406.9l-0.1,2.2c0,1.4,1,2.6,2.3,2.8c3.2,0.5,7.2,0.2,12.6,1.3c4.3,0.9,14,3.6,21.9,0.6
		c0.7-0.3,1.9-2.1,2.6-3.4c0-0.3-0.2-0.5-0.4-0.6c-1.3,1.1-3.6,2.1-7.6,2.5C142.2,413.1,124.7,409,120.5,406.9z"/>
	<path class="st2" d="M116.8,360.4c-0.1,1.3-0.2,2.6-0.3,4c7.4-9.3,18.6-18,27-16.5c5.5,1,9.3,12.2,9.3,12.2l1.4-4.9
		c0,0-3.9-16.8-16.3-13.2C129.2,344.6,117.4,353.9,116.8,360.4z"/>
</g>
<g id="torso">
	<path class="st0" d="M163.4,247.5c0,4.7-0.3,9.4-1,14.1c-2.3,16.4-8.3,28.6-14.7,36c-5.8,6.8-22.9,17-30.7,17s-24.9-10.3-30.7-17
		c-6.3-7.3-12.3-19.6-14.6-35.9c-0.7-4.7-1-9.4-1-14.2c0-23.6,2.2-47.6,11.3-57c13.3-13.5,56.8-13.5,70.1,0
		C161.2,199.9,163.4,224,163.4,247.5z"/>
	<path class="st4" d="M85.7,187.3c-1.6,1.4-5,3.7-6.5,7.1c-4.5,10.1-2.3,24.4-1.9,29.6c1,11.9,4,23.5,8.8,34.4
		c1.3,2.8,2.6,5.6,4.1,8.3c1.4,2.5,3.8,6,0.8,8.8c-7.7,7.4-20.1-21.4-26.2-38.1c-2-5.6-10.6-23.9-8.3-36.9c1.1-5.9,8-10.9,15-13.1
		C76.1,186,81.1,186,85.7,187.3z"/>
	<path class="st4" d="M148.2,187.3c1.6,1.4,5,3.7,6.5,7.1c4.5,10.1,2.3,24.4,1.9,29.6c-1,11.9-4,23.5-8.8,34.4
		c-1.2,2.8-2.6,5.6-4.1,8.3c-1.4,2.5-3.8,6-0.8,8.8c7.6,7.4,20.1-21.4,26.2-38.1c2.1-5.6,10.6-23.9,8.3-36.9
		c-1.1-5.9-8-10.9-15-13.1C157.7,186,152.8,186,148.2,187.3z"/>
	<g>
		<defs>
			<path id="SVGID_3_" d="M162.4,261.6c-2.3,16.4-8.3,28.6-14.7,36c-5.8,6.8-20,17-30.7,17s-24.9-10.3-30.7-17
				c-6.3-7.3-12.4-19.6-14.6-35.9c4.1,3.5,22.8,9,45.4,9C139.7,270.8,158.6,265.1,162.4,261.6z"/>
		</defs>
		<clipPath id="SVGID_4_">
			<use xlink:href="#SVGID_3_"  style="overflow:visible;"/>
		</clipPath>
		<g class="st5">
			<rect x="69.3" y="260" class="st4" width="95.3" height="54.6"/>
			<path class="st6" d="M67.9,268.5c0,0,21.8,13,48.6,12.6c25.1-0.4,38.9-4.2,49.4-12.6"/>
			<line class="st6" x1="116.9" y1="281.1" x2="116.9" y2="326.5"/>
		</g>
	</g>
	<g id="buttons">
		<path class="st2" d="M95.2,278.2c2,6.1,0.7,12-3,13.3c-3.7,1.2-11.4-1.5-13.4-7.6s2.4-13.3,6.1-14.5S93.2,272.1,95.2,278.2z"/>
		<path class="st2" d="M137.6,278.2c-2,6.1-0.7,12,3,13.3c3.7,1.2,11.4-1.5,13.4-7.6s-2.4-13.3-6.1-14.5S139.6,272.1,137.6,278.2z"
			/>
	</g>
</g>
<g id="l-hand">
	<g>
		<defs>
			<path id="SVGID_5_" d="M49.4,217.6c-7-10.2-6.6-16-14.7-18.9s-5.4,13.3-5.4,13.3s-15.8-14.5-26.5-1.3s10.3,31.8,37.6,38.3
				c0,0,8.8-0.9,11.5-12.4S49.4,217.6,49.4,217.6z"/>
		</defs>
		<clipPath id="SVGID_6_">
			<use xlink:href="#SVGID_5_"  style="overflow:visible;"/>
		</clipPath>
		<g class="st7">
			<polygon class="st2" points="33.9,185.9 10.9,196.3 -10,224.2 40.8,258.1 61,225.9 			"/>
			<path class="st3" d="M24.1,250c0,0,10.6-4.1,16.9-9.6c5.9-5.2,11.8-16.6,4.2-33.3"/>
			<path class="st3" d="M1.5,237.8c0,0-5.7-15.3,5.3-26.5s27.7,7.1,27.7,7.1s-7.9-19.8,0.2-19.8s10.5,8.4,10.5,8.4"/>
		</g>
	</g>
</g>
<g id="head">
	<ellipse class="st8" cx="116.9" cy="188.8" rx="25.3" ry="6.8"/>
	<path class="st9" d="M127.4,188.3c-5.3,5.8-14.4,6.2-20.2,0.8c-0.3-0.3-0.6-0.5-0.8-0.8v-35.9h21V188.3z"/>
	<path class="st10" d="M197,110.1c0,53.6-35.8,85.5-80,85.5s-80-31.9-80-85.5S77.2,1.5,117,1.5S197,56.5,197,110.1z"/>
	<path class="st11" d="M162.4,121.6c0,25.2-20.4,45.5-45.6,45.5c-25.2,0-45.5-20.4-45.5-45.5c0-11.6,6.8-27.4,13.5-41
		c7.9-15.9,6.6-28.8,32-28.8c25.7,0,24.4,13.2,32.3,29.3C155.8,94.6,162.4,110.1,162.4,121.6z"/>
	<path class="st4" d="M180.7,95.2c-0.7,0.3-3.1-0.4-3.1-0.4l4-10.5c0,0,2.3,1.1,2.6,1.8C185.3,88.9,183,94.1,180.7,95.2z"/>
	
		<ellipse transform="matrix(0.3566 -0.9343 0.9343 0.3566 31.7925 225.4012)" class="st12" cx="179.5" cy="89.6" rx="5.6" ry="1.4"/>
	<line class="st13" x1="179.5" y1="89.8" x2="171.2" y2="85.6"/>
	<path class="st4" d="M168,97.1c-1.8,0.9-8-1-8-1l10.3-27c0,0,5.9,2.7,6.6,4.6C179.9,80.8,173.9,94.2,168,97.1z"/>
	
		<ellipse transform="matrix(0.3566 -0.9343 0.9343 0.3566 29.0588 207.4156)" class="st12" cx="165.1" cy="82.6" rx="14.4" ry="3.8"/>
	<line class="st14" x1="151.5" y1="75.7" x2="165.1" y2="82.6"/>
	<path class="st4" d="M126.8,52.6c0,0,10.9,4.6,28.4,41.4c0,0,13.7-17.9,10.9-32.9c-0.4-2.2-2.2-3.8-4.4-4.1L126.8,52.6z"/>
	<path class="st4" d="M53.1,95.2c0.7,0.3,3.1-0.4,3.1-0.4l-4-10.5c0,0-2.3,1.1-2.6,1.8C48.5,88.9,50.8,94.1,53.1,95.2z"/>
	<ellipse transform="matrix(0.9343 -0.3566 0.3566 0.9343 -28.4005 25.2132)" class="st12" cx="54.2" cy="89.6" rx="1.4" ry="5.6"/>
	<line class="st13" x1="62.5" y1="85.6" x2="54.3" y2="89.8"/>
	<path class="st4" d="M65.8,97.1c1.8,0.9,8-1,8-1l-10.3-27c0,0-5.9,2.7-6.7,4.6C53.8,80.8,59.8,94.2,65.8,97.1z"/>
	
		<ellipse transform="matrix(0.9343 -0.3566 0.3566 0.9343 -24.9542 29.8988)" class="st12" cx="68.6" cy="82.6" rx="3.8" ry="14.4"/>
	<line class="st14" x1="82.3" y1="75.7" x2="68.6" y2="82.6"/>
	<path class="st4" d="M107,52.6c0,0-10.9,4.6-28.4,41.4c0,0-13.7-17.9-10.9-32.9c0.4-2.2,2.2-3.9,4.4-4.1L107,52.6z"/>
	<path class="st9" d="M99.1,134.8c0,0-6.9,1.3-5.2,5.5c1,2.5,2.8,4.6,5.2,6V134.8z"/>
	<path class="st9" d="M133.4,134.8c0,0,6.9,1.3,5.2,5.5c-1,2.5-2.8,4.6-5.2,6V134.8z"/>
	<path class="st11" d="M130.7,111.9c0.8,2,1.5,4.1,2,6.2c0.2,1.8-5.5,7.5-15.8,7.5s-16.1-5.8-15.9-7.5c0.5-2.1,1.2-4.2,2-6.2
		c4-10.6,6.8-16.5,7.3-24.3s5-6.7,7.1-6.7s6.3,0.3,6.3,6.5C123.6,91.2,126.6,101.2,130.7,111.9z"/>
	<path class="st15" d="M130.7,111.9c0.7,2,1.3,4.1,1.7,6.2c0.2,1.8-5.2,7.5-15.5,7.5s-15.8-5.8-15.5-7.5c0.4-2.1,1-4.2,1.7-6.2
		c0,0-1.9,2.8-2.7,8.4c-0.7,4.6,8.5,16.1,16.6,16.1c7.8,0,17.3-11.2,16.7-15.6C132.7,114.5,130.7,111.9,130.7,111.9z"/>
	<path class="st12" d="M135.4,138.4c-4.6,4.1-9.9,7.5-18.7,7.5c-7.3-0.1-14.3-2.4-20.3-6.5c0,0,12.1,12.9,20.3,12.9
		S135.4,138.4,135.4,138.4z"/>
	
		<ellipse transform="matrix(0.9857 -0.1687 0.1687 0.9857 -13.6074 24.2795)" class="st0" cx="136.1" cy="92.2" rx="10.6" ry="16.3"/>
	
		<ellipse transform="matrix(0.1687 -0.9857 0.9857 0.1687 -9.7595 172.9114)" class="st0" cx="97.6" cy="92.2" rx="16.3" ry="10.6"/>
	
		<ellipse transform="matrix(0.9954 -9.567202e-02 9.567202e-02 0.9954 -7.9226 10.0661)" class="st16" cx="101" cy="87.7" rx="3.5" ry="5.4"/>
	
		<ellipse transform="matrix(0.9954 -9.567202e-02 9.567202e-02 0.9954 -7.7505 13.6631)" class="st16" cx="138.6" cy="87.7" rx="3.5" ry="5.4"/>
	<polygon class="st15" points="88.8,73.3 102.5,69.4 102.4,65 88,69.3 	"/>
	<polygon class="st15" points="145.6,71.7 131.6,69.2 131.2,64.8 146,67.6 	"/>
	<path class="st17" d="M197,110.1c0,53.6-35.8,85.5-80,85.5s-80-31.9-80-85.5S77.2,1.5,117,1.5S197,56.5,197,110.1z"/>
	<ellipse transform="matrix(0.6899 -0.7239 0.7239 0.6899 23.8264 106.419)" class="st16" cx="136.1" cy="25.4" rx="6.9" ry="8.7"/>
	<path class="st16" d="M153.2,33.5c0.9,0.8,1.7,1.4,2.4,2.2s1.5,1.5,2.2,2.2s1.4,1.5,2.1,2.3s1.4,1.5,2,2.3l1.9,2.4
		c0.6,0.8,1.2,1.7,1.8,2.5s1.2,1.6,1.7,2.5l1.6,2.6c4.2,6.9,7.6,14.1,10.3,21.7c1.2,3.8,2.6,7.6,3.4,11.5l0.7,2.9
		c0.2,1,0.5,1.9,0.6,2.9l1.1,5.9c0.2,1,0.4,1.9,0.5,2.9l0.3,3l0.7,5.9c0.3,4,0.4,7.9,0.6,11.8c-0.4-3.9-0.8-7.9-1.3-11.8l-1-5.8
		l-0.5-2.9c-0.2-1-0.4-1.9-0.7-2.9l-1.4-5.7c-0.2-1-0.5-1.9-0.8-2.8l-0.9-2.8c-1.1-3.8-2.6-7.4-4-11c-3.1-7.1-6.9-13.9-11.3-20.3
		l-1.7-2.3c-0.6-0.8-1.2-1.5-1.8-2.3s-1.2-1.5-1.8-2.2L158,46c-0.6-0.7-1.3-1.4-2-2.1s-1.3-1.4-2-2s-1.4-1.3-2.1-1.9
		s-1.5-1.2-2.1-1.7l-0.2-0.1c-1.4-0.9-1.7-2.8-0.8-4.2s2.8-1.7,4.2-0.8c0.1,0,0.1,0.1,0.1,0.1C153.2,33.5,153.2,33.5,153.2,33.5z"/>
	<path class="st16" d="M55.7,130c-0.1,5.1,0.8,10.2,2.8,14.9c2,4.9,4.6,9.6,7.7,13.9c3.1,4.4,6.7,8.5,10.6,12.2c2,1.9,4,3.6,6.2,5.3
		c2.2,1.7,4.5,3.1,7,4.2c-2.6-0.9-5.1-2.1-7.4-3.6c-2.3-1.5-4.6-3-6.7-4.8c-4.3-3.4-8.4-7.3-12-11.5c-3.7-4.2-6.9-8.9-9.5-13.9
		c-2.7-5.2-4.4-10.9-4.7-16.7l0,0c-0.1-1.7,1.2-3.1,2.9-3.1c1.7-0.1,3.1,1.2,3.1,2.9L55.7,130z"/>
</g>
</svg>
