<?xml version="1.0" encoding="utf-8"?>
<!-- Generator: Adobe Illustrator 25.2.0, SVG Export Plug-In . SVG Version: 6.00 Build 0)  -->
<svg version="1.1" id="Layer_1" xmlns="http://www.w3.org/2000/svg" xmlns:xlink="http://www.w3.org/1999/xlink" x="0px" y="0px"
	 viewBox="0 0 207 415.3" style="enable-background:new 0 0 207 415.3;" xml:space="preserve">
<style type="text/css">
	.st0{fill:#311D44;}
	.st1{clip-path:url(#SVGID_2_);}
	.st2{fill:#49ED00;}
	.st3{fill:none;stroke:#35BA00;stroke-miterlimit:10;}
	.st4{fill:#FF8E06;}
	.st5{clip-path:url(#SVGID_4_);}
	.st6{fill:none;stroke:#ED6100;stroke-width:2;stroke-miterlimit:10;}
	.st7{clip-path:url(#SVGID_6_);}
	.st8{fill:#FBFF43;stroke:#9AE0E2;stroke-width:0.92;stroke-miterlimit:10;}
	.st9{fill:#EFDD00;}
	.st10{opacity:0.35;fill:#9AE0E2;enable-background:new    ;}
	.st11{fill:#FBFF43;}
	.st12{fill:#ED6100;}
	.st13{fill:none;stroke:#1B264C;stroke-width:2;stroke-linecap:round;stroke-miterlimit:10;}
	.st14{fill:none;stroke:#1B264C;stroke-width:3;stroke-linecap:round;stroke-miterlimit:10;}
	.st15{fill:#D85092;}
	.st16{fill:#FFFFFF;}
	.st17{fill:none;stroke:#9AE0E2;stroke-width:3;stroke-miterlimit:10;}
</style>
<path class="st0" d="M162.8,176.4c-10.6,9.9-25.9,20.8-31,30.3s2.3,26.8,11.6,23.9c0,0,22.1-9.8,44-33c0,0,8.5-12.9-3.4-20.9
	S162.8,176.4,162.8,176.4z"/>
<g>
	<defs>
		<path id="SVGID_1_" d="M162.9,176.3c0.3-12.4-3.2-17,1.9-23.9s11.8,8.1,11.8,8.1s5.3-20.8,21.5-15.6s8.8,32.2-10.4,52.6
			c0,0-7.8,4-16.4-4.1S162.9,176.3,162.9,176.3z"/>
	</defs>
	<clipPath id="SVGID_2_">
		<use xlink:href="#SVGID_1_"  style="overflow:visible;"/>
	</clipPath>
	<g class="st1">
		<polygon class="st2" points="158.5,141.3 183.4,137.4 216.3,149.3 192.4,205.5 157.9,189.6 		"/>
		<path class="st3" d="M201.9,189.6c0,0-11.1,2.4-19.4,1.2c-7.8-1.1-19-7.4-21.8-25.6"/>
		<path class="st3" d="M214.1,166.9c0,0-3.6-15.9-18.9-19.2s-19.3,21.1-19.3,21.1s-4.3-20.8-11.1-16.4s-4.1,12.8-4.1,12.8"/>
	</g>
</g>
<path class="st0" d="M6,224.2c11.8-8.5,21.6-19.9,32-23.1s25.9,7.4,21.3,16c0,0-7.9,16.1-34.9,33.2c0,0-13.6,7.6-21.6-4.4
	C-5.1,233.9,6,224.2,6,224.2z"/>
<path class="st4" d="M46.6,295.3c0,0,3.2,28.2,8.6,41.8c8.8,22.2,11.7,25.9,20.3,26.5s10.1-19.9,11.3-37.2c0.4-6,4.6-28.2-4.3-38.2
	c-12.4-14-38.4-29.5-38-19.2C44.7,275.7,44.9,287.6,46.6,295.3z"/>
<path class="st4" d="M62,350.4l11.9,54.8l8.1,1.1c0,0,8.5-28.6,1.9-54C76.5,323.9,62,350.4,62,350.4z"/>
<path class="st0" d="M88.7,360.4c0.1,1.3,0.2,2.6,0.3,4c0.7,18.1-4.3,38.7-4.3,38.7L64,400.3l-11.4-40.2l-1.4-4.9
	c0,0,3.9-16.8,16.3-13.2C76.3,344.6,88.1,353.9,88.7,360.4z"/>
<path class="st0" d="M84.7,400.5l0.2,8.7c0,1.4-1,2.6-2.4,2.8c-3.2,0.5-7.2,0.2-12.6,1.3c-4.3,0.9-14,3.6-21.9,0.6
	c-0.7-0.2-1.9-2.1-2.6-3.4c0-0.3,0.2-0.5,0.4-0.6c0.9-0.7,3.3-1.2,6.7-2.6c4.1-1.6,6.8-4.5,11.6-8.1c6.2-4.7,13-3.4,18.6-1.3
	C84,398.3,84.7,399.3,84.7,400.5z"/>
<path class="st2" d="M84.9,406.9l0.1,2.2c0,1.4-1,2.6-2.4,2.8c-3.2,0.5-7.2,0.2-12.6,1.3c-4.3,0.9-14,3.6-21.9,0.6
	c-0.7-0.2-1.9-2.1-2.6-3.4c0-0.3,0.2-0.5,0.4-0.6c1.3,1.1,3.6,2.1,7.6,2.5C63.2,413.1,80.7,409,84.9,406.9z"/>
<path class="st2" d="M88.7,360.4c0.1,1.3,0.2,2.6,0.3,4c-7.4-9.3-18.6-18-27-16.5c-5.5,1-9.3,12.2-9.3,12.2l-1.4-4.9
	c0,0,3.9-16.8,16.3-13.2C76.3,344.6,88.1,353.9,88.7,360.4z"/>
<path class="st4" d="M130.4,295.3c0,0-3.2,28.2-8.6,41.8c-8.8,22.2-11.6,25.9-20.3,26.5s-10.1-19.9-11.3-37.2
	c-0.4-6-4.6-28.2,4.3-38.2c12.4-14,38.4-29.5,38-19.2C132.3,275.7,132.1,287.6,130.4,295.3z"/>
<path class="st4" d="M115.1,350.4l-11.9,54.8l-8.1,1.1c0,0-8.5-28.6-1.9-54C100.5,323.9,115.1,350.4,115.1,350.4z"/>
<path class="st0" d="M88.4,360.4c-0.1,1.3-0.2,2.6-0.3,4c-0.7,18.1,4.3,38.7,4.3,38.7l20.7-2.7l11.4-40.2l1.4-4.9
	c0,0-3.9-16.8-16.3-13.2C100.7,344.6,89,353.9,88.4,360.4z"/>
<path class="st0" d="M92.3,400.5l-0.2,8.7c0,1.4,1,2.6,2.3,2.8c3.2,0.5,7.2,0.2,12.6,1.3c4.3,0.9,14,3.6,21.9,0.6
	c0.7-0.2,1.9-2.1,2.6-3.4c0-0.3-0.2-0.5-0.4-0.6c-0.9-0.7-3.4-1.2-6.7-2.6c-4.1-1.6-6.8-4.5-11.6-8.1c-6.3-4.7-13-3.4-18.6-1.3
	C93,398.4,92.3,399.3,92.3,400.5z"/>
<path class="st2" d="M92.1,406.9l-0.1,2.2c0,1.4,1,2.6,2.3,2.8c3.2,0.5,7.2,0.2,12.6,1.3c4.3,0.9,14,3.6,21.9,0.6
	c0.7-0.2,1.9-2.1,2.6-3.4c0-0.3-0.2-0.5-0.4-0.6c-1.3,1.1-3.6,2.1-7.6,2.5C113.8,413.1,96.4,409,92.1,406.9z"/>
<path class="st2" d="M88.4,360.4c-0.1,1.3-0.2,2.6-0.3,4c7.4-9.3,18.6-18,27-16.5c5.5,1,9.3,12.2,9.3,12.2l1.4-4.9
	c0,0-3.9-16.8-16.3-13.2C100.7,344.6,89,353.9,88.4,360.4z"/>
<g id="torso">
	<path class="st0" d="M134.9,247.5c0,4.7-0.3,9.4-1,14.1c-2.3,16.4-8.3,28.6-14.7,36c-5.8,6.8-22.9,17-30.8,17s-24.9-10.3-30.7-17
		c-6.3-7.4-12.4-19.6-14.7-35.9c-0.7-4.7-1-9.4-1-14.2c0-23.6,2.2-47.6,11.3-57c13.3-13.5,56.8-13.5,70.1,0
		C132.8,199.9,134.9,224,134.9,247.5z"/>
	<path class="st4" d="M57.3,187.3c-1.6,1.4-5,3.7-6.5,7.1c-4.5,10.1-2.3,24.4-1.9,29.6c1,11.9,4,23.5,8.8,34.4
		c1.3,2.8,2.6,5.6,4.1,8.3c1.4,2.5,3.8,6,0.8,8.8c-7.7,7.4-20.1-21.4-26.2-38.1c-2-5.6-10.6-23.9-8.3-36.9c1.1-5.9,8-10.9,15-13.1
		C47.7,186,52.6,186,57.3,187.3z"/>
	<path class="st4" d="M119.7,187.3c1.6,1.4,5,3.7,6.5,7.1c4.5,10.1,2.3,24.4,1.9,29.6c-1,11.9-4,23.5-8.8,34.4
		c-1.2,2.8-2.6,5.6-4.1,8.3c-1.4,2.5-3.8,6-0.8,8.8c7.6,7.4,20.1-21.4,26.2-38.1c2-5.6,10.6-23.9,8.3-36.9c-1.1-5.9-8-10.9-15-13.1
		C129.3,186,124.4,186,119.7,187.3z"/>
	<g>
		<defs>
			<path id="SVGID_3_" d="M134,261.6c-2.3,16.4-8.3,28.6-14.7,36c-5.8,6.8-20,17-30.8,17s-24.9-10.3-30.7-17
				c-6.3-7.4-12.4-19.6-14.7-35.9c4.1,3.5,22.8,9,45.4,9C111.2,270.8,130.1,265.1,134,261.6z"/>
		</defs>
		<clipPath id="SVGID_4_">
			<use xlink:href="#SVGID_3_"  style="overflow:visible;"/>
		</clipPath>
		<g class="st5">
			<rect x="40.8" y="260" class="st4" width="95.3" height="54.6"/>
			<path class="st6" d="M39.5,268.5c0,0,21.8,13,48.6,12.6c25.1-0.4,38.9-4.2,49.4-12.6"/>
			<line class="st6" x1="88.5" y1="281.1" x2="88.5" y2="326.5"/>
		</g>
	</g>
	<g id="buttons">
		<path class="st2" d="M66.8,278.2c2,6.1,0.7,12.1-3,13.3c-3.7,1.2-11.4-1.5-13.4-7.6s2.4-13.3,6.1-14.5
			C60.2,268.2,64.8,272.1,66.8,278.2z"/>
		<path class="st2" d="M109.2,278.2c-2,6.1-0.7,12.1,3,13.3c3.7,1.2,11.4-1.5,13.4-7.6s-2.4-13.3-6.1-14.5
			C115.8,268.2,111.2,272.1,109.2,278.2z"/>
	</g>
</g>
<g id="l-hand">
	<g>
		<defs>
			<path id="SVGID_5_" d="M33.8,238.3c10.5,6.6,16.2,5.9,19.5,13.8c3.3,7.9-13,6-13,6s15.2,15.2,2.4,26.4
				c-12.8,11.2-32.2-8.9-39.9-35.9c0,0,0.6-8.8,11.9-12S33.8,238.3,33.8,238.3z"/>
		</defs>
		<clipPath id="SVGID_6_">
			<use xlink:href="#SVGID_5_"  style="overflow:visible;"/>
		</clipPath>
		<g class="st7">
			<polygon class="st2" points="66.1,252.4 56.7,275.8 29.7,298 -6.3,248.7 24.9,227.1 			"/>
			<path class="st3" d="M2.4,265c0,0,3.6-10.7,8.9-17.3c5-6.2,16-12.5,33.1-5.6"/>
			<path class="st3" d="M15.6,287.1c0,0,15.5,5,26.2-6.5s-8.3-27.4-8.3-27.4s20.1,7,19.8-1.1c-0.3-8.1-8.9-10.1-8.9-10.1"/>
		</g>
	</g>
</g>
<g id="head">
	<ellipse class="st8" cx="88.5" cy="188.8" rx="25.3" ry="6.8"/>
	<path class="st9" d="M99,188.3c-5.3,5.8-14.4,6.2-20.2,0.8c-0.3-0.3-0.6-0.5-0.8-0.8v-36h21V188.3z"/>
	<path class="st10" d="M168.5,110.1c0,53.6-35.8,85.5-80,85.5s-80-31.9-80-85.5S48.7,1.5,88.5,1.5S168.5,56.4,168.5,110.1z"/>
	<path class="st11" d="M134,121.6c0,25.2-20.4,45.5-45.6,45.5c-25.2,0-45.5-20.4-45.5-45.5c0-11.6,6.8-27.4,13.5-41
		c7.9-15.9,6.6-28.8,32-28.8c25.8,0,24.4,13.2,32.3,29.3C127.4,94.6,134,110.1,134,121.6z"/>
	<path class="st4" d="M152.2,95.2c-0.7,0.3-3.1-0.4-3.1-0.4l4-10.5c0,0,2.3,1,2.6,1.8C156.9,88.9,154.5,94.1,152.2,95.2z"/>
	
		<ellipse transform="matrix(0.3566 -0.9343 0.9343 0.3566 13.5101 198.8586)" class="st12" cx="151.1" cy="89.6" rx="5.6" ry="1.4"/>
	<line class="st13" x1="151" y1="89.8" x2="142.8" y2="85.5"/>
	<path class="st4" d="M139.6,97.1c-1.8,0.9-8-1-8-1l10.3-27c0,0,5.9,2.7,6.6,4.6C151.5,80.8,145.5,94.2,139.6,97.1z"/>
	
		<ellipse transform="matrix(0.3566 -0.9343 0.9343 0.3566 10.7764 180.873)" class="st12" cx="136.7" cy="82.6" rx="14.4" ry="3.8"/>
	<line class="st14" x1="123" y1="75.7" x2="136.7" y2="82.6"/>
	<path class="st4" d="M98.4,52.6c0,0,10.9,4.6,28.4,41.4c0,0,13.7-17.9,10.9-32.9c-0.4-2.2-2.2-3.9-4.4-4.1L98.4,52.6z"/>
	<path class="st4" d="M24.7,95.2c0.7,0.3,3.1-0.4,3.1-0.4l-4-10.5c0,0-2.3,1-2.6,1.8C20,88.9,22.4,94.1,24.7,95.2z"/>
	<ellipse transform="matrix(0.9343 -0.3566 0.3566 0.9343 -30.27 15.0821)" class="st12" cx="25.8" cy="89.6" rx="1.4" ry="5.6"/>
	<line class="st13" x1="34.1" y1="85.5" x2="25.9" y2="89.8"/>
	<path class="st4" d="M37.4,97.1c1.8,0.9,8-1,8-1l-10.3-27c0,0-5.9,2.7-6.7,4.6C25.4,80.8,31.4,94.2,37.4,97.1z"/>
	<ellipse transform="matrix(0.9343 -0.3566 0.3566 0.9343 -26.8202 19.767)" class="st12" cx="40.2" cy="82.6" rx="3.8" ry="14.4"/>
	<line class="st14" x1="53.9" y1="75.7" x2="40.2" y2="82.6"/>
	<path class="st4" d="M78.6,52.6c0,0-10.9,4.6-28.4,41.4c0,0-13.7-17.9-10.9-32.9c0.4-2.2,2.2-3.9,4.4-4.1L78.6,52.6z"/>
	<path class="st9" d="M70.7,134.8c0,0-6.9,1.3-5.2,5.5c1,2.5,2.8,4.6,5.2,6V134.8z"/>
	<path class="st9" d="M105,134.8c0,0,6.9,1.3,5.2,5.5c-1,2.5-2.8,4.6-5.2,6V134.8z"/>
	<path class="st11" d="M102.4,111.9c0.8,2,1.5,4.1,2,6.2c0.2,1.8-5.5,7.5-15.9,7.5s-16.1-5.8-15.9-7.5c0.5-2.1,1.2-4.2,2-6.2
		c4-10.6,6.8-16.5,7.3-24.3s5-6.7,7.1-6.7s6.3,0.3,6.3,6.5C95.2,91.2,98.2,101.2,102.4,111.9z"/>
	<path class="st15" d="M102.4,111.9c0.7,2,1.3,4.1,1.7,6.2c0.2,1.8-5.2,7.5-15.5,7.5s-15.8-5.8-15.5-7.5c0.4-2.1,1-4.2,1.7-6.2
		c0,0-1.9,2.8-2.7,8.4c-0.7,4.6,8.5,16.1,16.6,16.1c7.8,0,17.3-11.2,16.7-15.6C104.4,114.5,102.4,111.9,102.4,111.9z"/>
	<path class="st12" d="M107,138.4c-4.6,4.1-9.9,7.5-18.7,7.5c-7.3-0.1-14.3-2.4-20.3-6.5c0,0,12.1,12.9,20.3,12.9
		S107,138.4,107,138.4z"/>
	
		<ellipse transform="matrix(0.9857 -0.1687 0.1687 0.9857 -14.0137 19.4868)" class="st0" cx="107.7" cy="92.2" rx="10.6" ry="16.3"/>
	
		<ellipse transform="matrix(0.1687 -0.9857 0.9857 0.1687 -33.3818 144.891)" class="st0" cx="69.2" cy="92.2" rx="16.3" ry="10.6"/>
	
		<ellipse transform="matrix(0.995 -9.950311e-02 9.950311e-02 0.995 -8.3525 7.7668)" class="st16" cx="73.7" cy="87.6" rx="3.6" ry="5.4"/>
	
		<ellipse transform="matrix(0.995 -9.950372e-02 9.950372e-02 0.995 -8.1483 11.5242)" class="st16" cx="111.5" cy="87.4" rx="3.6" ry="5.4"/>
	<polygon class="st15" points="60.4,73.3 74.1,69.4 74,64.9 59.6,69.3 	"/>
	<polygon class="st15" points="117.2,71.7 103.2,69.2 102.8,64.8 117.6,67.6 	"/>
	<path class="st17" d="M168.5,110.1c0,53.6-35.8,85.5-80,85.5s-80-31.9-80-85.5S48.7,1.5,88.5,1.5S168.5,56.4,168.5,110.1z"/>
	<ellipse transform="matrix(0.6899 -0.7239 0.7239 0.6899 15.0193 85.8492)" class="st16" cx="107.7" cy="25.4" rx="6.9" ry="8.7"/>
	<path class="st16" d="M124.8,33.5c0.9,0.8,1.7,1.4,2.4,2.2c0.8,0.7,1.5,1.5,2.2,2.2s1.4,1.5,2,2.3s1.4,1.5,2,2.3l1.9,2.4
		c0.6,0.8,1.2,1.7,1.8,2.5s1.2,1.6,1.7,2.5l1.6,2.6c4.2,6.9,7.6,14.1,10.3,21.7c1.2,3.8,2.6,7.6,3.4,11.5l0.7,2.9
		c0.2,1,0.5,1.9,0.6,2.9l1.1,5.9c0.2,1,0.4,1.9,0.5,2.9l0.3,3l0.7,5.9c0.3,3.9,0.4,7.9,0.6,11.8c-0.4-3.9-0.8-7.9-1.3-11.7l-1-5.8
		l-0.5-2.9c-0.2-1-0.4-1.9-0.7-2.9l-1.4-5.7c-0.2-1-0.5-1.9-0.8-2.8l-0.9-2.8c-1.1-3.8-2.6-7.4-4-11c-3.1-7.1-6.9-13.9-11.3-20.3
		l-1.7-2.3c-0.6-0.8-1.2-1.5-1.8-2.3s-1.2-1.5-1.8-2.2l-1.9-2.2c-0.6-0.7-1.3-1.4-2-2.1s-1.3-1.4-2-2s-1.4-1.3-2.1-1.9
		s-1.5-1.2-2.1-1.7l-0.1-0.1c-1.4-0.8-1.9-2.7-1.1-4.1c0.8-1.4,2.7-1.9,4.1-1.1c0.1,0.1,0.3,0.2,0.4,0.3
		C124.7,33.5,124.8,33.5,124.8,33.5z"/>
	<path class="st16" d="M27.3,130c-0.1,5.1,0.8,10.2,2.8,14.9c2,4.9,4.6,9.6,7.7,13.9c3.1,4.4,6.7,8.5,10.6,12.2c2,1.9,4,3.6,6.2,5.3
		c2.2,1.7,4.5,3.1,7,4.2c-2.6-0.9-5.1-2.1-7.4-3.6c-2.3-1.5-4.6-3-6.7-4.8c-4.3-3.4-8.4-7.3-12-11.5c-3.7-4.2-6.9-8.9-9.5-13.9
		c-2.7-5.2-4.4-10.9-4.7-16.7l0,0c-0.1-1.7,1.2-3.1,2.9-3.1c1.7-0.1,3.1,1.2,3.1,2.9l0,0L27.3,130z"/>
</g>
</svg>
