<?xml version="1.0" encoding="utf-8"?>
<!-- Generator: Adobe Illustrator 26.0.0, SVG Export Plug-In . SVG Version: 6.00 Build 0)  -->
<svg version="1.1" id="Layer_1" xmlns="http://www.w3.org/2000/svg" xmlns:xlink="http://www.w3.org/1999/xlink" x="0px" y="0px"
	 viewBox="0 0 700 700" style="enable-background:new 0 0 700 700;" xml:space="preserve">
<style type="text/css">
	.st0{fill:#311D44;}
	.st1{fill:#FF8E06;}
	.st2{fill:#49ED00;}
	.st3{fill:#FBFF43;stroke:#9AE0E2;stroke-width:0.3151;stroke-miterlimit:10;}
	.st4{fill:#EFDD00;}
	.st5{fill:#9AE0E2;fill-opacity:0.35;}
	.st6{fill:#FBFF43;}
	.st7{fill:#ED6100;}
	.st8{fill:none;stroke:#1B264C;stroke-width:0.6849;stroke-linecap:round;stroke-miterlimit:10;}
	.st9{fill:none;stroke:#1B264C;stroke-width:1.0274;stroke-linecap:round;stroke-miterlimit:10;}
	.st10{fill:#D85092;}
	.st11{fill:#FFFFFF;}
	.st12{fill:none;stroke:#9AE0E2;stroke-width:1.0274;stroke-miterlimit:10;}
</style>
<g>
	<g transform="translate(-18 -564)">
		<g>
			<g>
				<g>
					<g>
						<g>
							<g>
								<path class="st0" d="M545.1,1417c-26.9-40.6-68.7-88.2-77.8-123.4c-9.1-35.2,28.6-85.9,56.9-69.1c0,0,65,49.6,118.5,142.5
									c0,0,17.8,49-27.6,65.7C569.7,1449.5,545.1,1417,545.1,1417z"/>
								<path class="st0" d="M186.2,1417c26.9-40.6,68.7-88.2,77.8-123.4c9.1-35.2-28.6-85.9-56.9-69.1c0,0-65,49.6-118.5,142.5
									c0,0-17.8,49,27.6,65.7C161.6,1449.5,186.2,1417,186.2,1417z"/>
								<path class="st1" d="M224.6,1564.2c0,0,10.8,94.6,29,140.2c29.6,74.5,39.4,86.9,68.4,88.9c29,2,34-66.7,38.1-124.8
									c1.3-20.1,15.5-94.6-14.5-128.1c-41.8-47-129.3-98.9-128-64.4C218.2,1498.4,218.8,1538.4,224.6,1564.2z"/>
								<path class="st1" d="M276.1,1749l40.1,183.8l27.3,3.7c0,0,28.6-95.9,6.4-181.1C325.2,1660.1,276.1,1749,276.1,1749z"/>
								<path class="st0" d="M366,1782.5c0.3,4.4,0.7,8.7,1,13.4c2.4,60.7-14.5,129.8-14.5,129.8l-69.7-9l-38.4-134.8l-4.7-16.4
									c0,0,13.1-56.4,54.9-44.3C324.6,1729.5,364,1761.1,366,1782.5z"/>
								<path class="st0" d="M352.9,1917l0.7,29.2c0,4.7-3.4,8.7-8.1,9.4c-10.8,1.7-24.2,0.7-42.4,4.4c-14.5,3-47.1,12.1-73.7,2
									c-2.4-0.7-6.4-7-8.8-11.4c0-1,0.7-1.7,1.3-2c3-2.4,11.1-4,22.6-8.7c13.8-5.4,22.9-15.1,39.1-27.2
									c20.9-15.8,43.8-11.4,62.6-4.4C350.5,1910,352.9,1913.3,352.9,1917z"/>
								<path class="st2" d="M353.5,1938.5l0.3,7.4c0,4.7-3.4,8.7-8.1,9.4c-10.8,1.7-24.2,0.7-42.4,4.4c-14.5,3-47.1,12.1-73.7,2
									c-2.4-0.7-6.4-7-8.8-11.4c0-1,0.7-1.7,1.3-2c4.4,3.7,12.1,7,25.6,8.4C280.5,1959.3,339.4,1945.5,353.5,1938.5z"/>
								<path class="st2" d="M366,1782.5c0.3,4.4,0.7,8.7,1,13.4c-24.9-31.2-62.6-60.4-90.9-55.3c-18.5,3.4-31.3,40.9-31.3,40.9
									l-4.7-16.4c0,0,13.1-56.3,54.9-44.3C324.6,1729.5,364,1761.1,366,1782.5z"/>
								<path class="st1" d="M506.7,1564.2c0,0-10.8,94.6-29,140.2c-29.6,74.5-39.1,86.9-68.4,88.9c-29.3,2-34-66.7-38.1-124.8
									c-1.3-20.1-15.5-94.6,14.5-128.1c41.8-47,129.3-98.9,128-64.4C513.1,1498.4,512.5,1538.4,506.7,1564.2z"/>
								<path class="st0" d="M521.9,1403.9c0,15.8-1,31.5-3.4,47.3c-7.7,55-27.9,95.9-49.5,120.7c-19.5,22.8-77.1,57-103.7,57
									c-26.6,0-83.8-34.5-103.4-57c-21.2-24.8-41.8-65.7-49.5-120.4c-2.4-15.8-3.4-31.5-3.4-47.6c0-79.2,7.4-159.6,38.1-191.2
									c44.8-45.3,191.3-45.3,236.1,0C514.5,1244.2,521.9,1325.1,521.9,1403.9z"/>
								<path class="st1" d="M260.6,1202c-5.4,4.7-16.8,12.4-21.9,23.8c-15.2,33.9-7.7,81.8-6.4,99.3c3.4,39.9,13.5,78.8,29.6,115.7
									c4.4,9.4,8.8,18.8,13.8,27.8c4.7,8.4,12.8,20.1,2.7,29.5c-25.9,24.8-67.7-72.1-88.2-127.8c-6.7-18.8-35.7-80.2-27.9-123.8
									c3.7-19.8,26.9-36.6,50.5-43.9C228.3,1197.6,244.8,1197.6,260.6,1202z"/>
								<path class="st1" d="M470.7,1202c5.4,4.7,16.8,12.4,21.9,23.8c15.2,33.9,7.7,81.8,6.4,99.3c-3.4,39.9-13.5,78.8-29.6,115.7
									c-4,9.4-8.8,18.8-13.8,27.8c-4.7,8.4-12.8,20.1-2.7,29.5c25.6,24.8,67.7-71.8,88.2-127.8c6.7-18.8,35.7-80.2,27.9-123.8
									c-3.7-19.8-26.9-36.6-50.5-43.9C503,1197.9,486.5,1197.6,470.7,1202z"/>
								<path class="st2" d="M292.6,1506.8c6.7,20.5,2.4,40.6-10.1,44.6c-12.5,4-38.4-5-45.1-25.5c-6.7-20.5,8.1-44.6,20.5-48.6
									C270.4,1473.3,285.8,1486.4,292.6,1506.8z"/>
								<path class="st2" d="M435.4,1506.8c-6.7,20.5-2.4,40.6,10.1,44.6c12.5,4,38.4-5,45.1-25.5c6.7-20.5-8.1-44.6-20.5-48.6
									C457.6,1473.3,442.1,1486.4,435.4,1506.8z"/>
								<path class="st1" d="M455.2,1749l-40.1,183.8l-27.3,3.7c0,0-28.6-95.9-6.4-181.1C406.1,1660.1,455.2,1749,455.2,1749z"/>
								<path class="st0" d="M365.3,1782.5c-0.3,4.4-0.7,8.7-1,13.4c-2.4,60.4,14.5,129.8,14.5,129.8l69.7-9l38.4-134.8l4.7-16.4
									c0,0-13.1-56.4-54.9-44.3C406.7,1729.5,367,1761.1,365.3,1782.5z"/>
								<path class="st0" d="M378.4,1917l-0.7,29.2c0,4.7,3.4,8.7,7.7,9.4c10.8,1.7,24.2,0.7,42.4,4.4c14.5,3,47.1,12.1,73.7,2
									c2.4-0.7,6.4-7,8.8-11.4c0-1-0.7-1.7-1.3-2c-3-2.4-11.4-4-22.6-8.7c-13.8-5.4-22.9-15.1-39.1-27.2
									c-21.2-15.8-43.8-11.4-62.6-4.4C380.8,1910,378.4,1913.3,378.4,1917z"/>
								<path class="st2" d="M377.8,1938.5l-0.3,7.4c0,4.7,3.4,8.7,7.7,9.4c10.8,1.7,24.2,0.7,42.4,4.4c14.5,3,47.1,12.1,73.7,2
									c2.4-0.7,6.4-7,8.8-11.4c0-1-0.7-1.7-1.3-2c-4.4,3.7-12.1,7-25.6,8.4C450.8,1959.3,392.3,1945.5,377.8,1938.5z"/>
								<path class="st2" d="M365.3,1782.5c-0.3,4.4-0.7,8.7-1,13.4c24.9-31.2,62.6-60.4,90.9-55.3c18.5,3.4,31.3,40.9,31.3,40.9
									l4.7-16.4c0,0-13.1-56.3-54.9-44.3C406.7,1729.5,367,1761.1,365.3,1782.5z"/>
								<path class="st3" d="M450.8,1207c0,12.6-38.1,22.8-85.2,22.8c-47.1,0-85.2-10.2-85.2-22.8s38.1-22.8,85.2-22.8
									C412.7,1184.2,450.8,1194.4,450.8,1207z"/>
								<path class="st4" d="M401.3,1205.3c-17.8,19.5-48.5,20.8-68,2.7c-1-1-2-1.7-2.7-2.7v-120.7h70.7V1205.3z"/>
								<path class="st5" d="M635.4,943.1c0,179.8-120.6,286.8-269.4,286.8s-269.4-107-269.4-286.8c0-179.8,135-364.2,269.4-364.2
									S635.4,763.3,635.4,943.1z"/>
								<path class="st6" d="M518.9,981.6c1.3,84.5-66.3,153.6-151.2,154.9c-84.9,1.3-154.2-66.1-155.6-150.6c0-1.3,0-3,0-4.7
									c0-38.9,22.9-91.9,45.5-137.8c26.6-53.3,22.2-96.6,107.8-96.6c86.9,0,82.2,44.3,108.8,98.3
									C496.6,891.1,518.9,943.1,518.9,981.6z"/>
								<path class="st1" d="M580.5,893.4c-2.4,1-10.4-1.3-10.4-1.3l13.5-35.2c0,0,7.7,3.4,8.8,6C596,872,588.2,889.7,580.5,893.4z"
									/>
								<path class="st7" d="M583.4,856.7c2.4,0.9,1.4,9.5-2.3,19.2c-3.7,9.7-8.7,16.8-11.1,15.9c-2.4-0.9-1.4-9.5,2.3-19.2
									C576,862.9,580.9,855.8,583.4,856.7z"/>
								<path class="st8" d="M576.4,875l-27.9-14.1"/>
								<path class="st1" d="M537.7,899.5c-6.1,3-26.9-3.4-26.9-3.4l34.7-90.6c0,0,19.9,9.1,22.2,15.4
									C578.1,844.8,557.6,889.7,537.7,899.5z"/>
								<path class="st7" d="M545.3,805.9c6.6,2.5,4.2,24.7-5.3,49.7c-9.5,24.9-22.6,43.1-29.2,40.6c-6.6-2.5-4.2-24.7,5.3-49.7
									C525.6,821.5,538.7,803.4,545.3,805.9z"/>
								<path class="st9" d="M482.2,827.7l46.1,23.1"/>
								<path class="st1" d="M399,750.2c0,0,36.7,15.4,95.6,138.8c0,0,46.1-60,36.7-110.3c-1.3-7.4-7.4-13.1-14.8-13.8L399,750.2z"
									/>
								<path class="st1" d="M150.8,893.4c2.4,1,10.4-1.3,10.4-1.3l-13.5-35.2c0,0-7.7,3.4-8.8,6C135.3,872,143.1,889.7,150.8,893.4
									z"/>
								<path class="st7" d="M158.9,872.7c3.7,9.7,4.8,18.3,2.3,19.2c-2.4,0.9-7.4-6.2-11.1-15.9s-4.8-18.3-2.3-19.2
									C150.2,855.9,155.2,863,158.9,872.7z"/>
								<path class="st8" d="M182.8,860.9L154.9,875"/>
								<path class="st1" d="M193.6,899.5c6.1,3,26.9-3.4,26.9-3.4l-34.7-90.6c0,0-19.9,9.1-22.2,15.4
									C153.2,844.8,173.7,889.7,193.6,899.5z"/>
								<path class="st7" d="M214.9,846.3c9.5,24.9,11.9,47.2,5.3,49.7s-19.7-15.7-29.2-40.6c-9.5-24.9-11.9-47.2-5.3-49.7
									C192.3,803.3,205.4,821.4,214.9,846.3z"/>
								<path class="st9" d="M249.1,827.7L203,850.8"/>
								<path class="st1" d="M332.3,750.2c0,0-36.7,15.4-95.6,138.8c0,0-46.1-60-36.7-110.3c1.3-7.4,7.4-13.1,14.8-13.8L332.3,750.2
									z"/>
								<path class="st4" d="M306.1,1025.9c0,0-23.2,4.4-17.5,18.4c3.4,8.4,9.8,15.4,17.5,20.1V1025.9z"/>
								<path class="st4" d="M421.2,1025.9c0,0,23.2,4.4,17.5,18.4c-3.4,8.4-9.8,15.4-17.5,20.1V1025.9z"/>
								<path class="st6" d="M412.5,949.1c2.7,6.7,5.1,13.8,6.7,20.8c0.7,6-18.5,25.2-53.5,25.2s-54.2-19.5-53.5-25.2
									c1.7-7,4-14.1,6.7-20.8c13.5-35.6,22.9-55.3,24.6-81.5c1.7-26.2,16.8-22.5,23.6-22.5c6.7,0,21.2,1,21.2,21.8
									C388.6,880,398.7,913.2,412.5,949.1z"/>
								<path class="st10" d="M412.5,949.1c2.4,6.7,4,13.8,5.7,20.8c0.7,6-17.5,25.2-52.5,25.2s-53.2-19.5-52.2-25.2
									c1.3-7,3.4-14.1,5.7-20.8c0,0-6.4,9.4-9.1,28.2c-2.4,15.4,28.6,54,55.9,54c26.3,0,58.3-37.6,56.2-52.3
									C419.2,957.8,412.5,949.1,412.5,949.1z"/>
								<path class="st7" d="M427.9,1038c-15.5,13.8-33.3,25.2-63,25.2c-24.6-0.3-48.2-7.7-68.4-21.8c0,0,40.7,43.3,68.4,43.3
									C392.6,1084.6,427.9,1038,427.9,1038z"/>
								<path class="st0" d="M465.5,877c5.1,29.8-6.5,56.6-25.9,59.9c-19.4,3.3-39.3-18.1-44.4-47.9c-5.1-29.8,6.5-56.6,25.9-59.9
									C440.5,825.8,460.4,847.3,465.5,877z"/>
								<path class="st0" d="M310,829.4c19.4,3.3,31,30.1,25.9,59.9c-5.1,29.8-25,51.2-44.4,47.9c-19.4-3.3-31-30.1-25.9-59.9
									C270.6,847.5,290.5,826.1,310,829.4z"/>
								<path class="st11" d="M323.9,866.8c1,10-3.5,18.5-10,19.2c-6.5,0.6-12.5-6.9-13.5-16.9s3.5-18.5,10-19.2
									C316.9,849.3,322.9,856.9,323.9,866.8z"/>
								<path class="st11" d="M450.4,866.5c1,10-3.5,18.5-10,19.2c-6.5,0.6-12.5-6.9-13.5-16.9c-1-10,3.5-18.5,10-19.2
									C443.4,849,449.5,856.5,450.4,866.5z"/>
								<path class="st10" d="M271.4,819.6l45.8-13.1l-0.3-14.8l-48.5,14.4L271.4,819.6z"/>
								<path class="st10" d="M462.3,814.3l-47.1-8.4l-1.3-14.8l49.8,9.4L462.3,814.3z"/>
								<path class="st12" d="M635.4,943.1c0,179.8-120.6,286.8-269.4,286.8s-269.4-107-269.4-286.8c0-179.8,135-364.2,269.4-364.2
									S635.4,763.3,635.4,943.1z"/>
								<path class="st11" d="M446.4,642.3c11.7,11.1,14,27.6,5.2,36.9s-25.5,7.7-37.2-3.4c-11.7-11.1-14-27.6-5.2-36.9
									C418,629.7,434.7,631.2,446.4,642.3z"/>
								<path class="st11" d="M488.2,686.1c3,2.7,5.7,4.7,8.1,7.4c2.4,2.7,5.1,5,7.4,7.4s4.7,5,7.1,7.7c2.4,2.7,4.7,5,6.7,7.7l6.4,8
									c2,2.7,4,5.7,6.1,8.4c2,2.7,4,5.4,5.7,8.4l5.4,8.7c14.1,23.1,25.6,47.3,34.7,72.8c4,12.7,8.8,25.5,11.4,38.2l2.4,9.7
									c0.7,3.4,1.7,6.4,2,9.7l3.7,19.8c0.7,3.4,1.3,6.4,1.7,9.7l1,10.1l2,19.8c1,13.1,1.3,26.5,2,39.6
									c-1.3-13.1-2.7-26.5-4.4-39.2l-3.4-19.5l-1.7-9.7c-0.7-3.4-1.3-6.4-2.4-9.7l-4.7-19.1c-0.7-3.4-1.7-6.4-2.7-9.4l-3-9.4
									c-3.7-12.7-8.8-24.8-13.5-36.9c-10.4-23.8-23.2-46.6-38.1-68.1l-5.7-7.7c-2-2.7-4-5-6.1-7.7c-2-2.7-4-5-6.1-7.4l-6.4-7.4
									c-2-2.3-4.4-4.7-6.7-7c-2.4-2.3-4.4-4.7-6.7-6.7c-2.4-2-4.7-4.4-7.1-6.4c-2.4-2-5.1-4-7.1-5.7l-0.3-0.3
									c-4.4-3.4-5.4-9.4-2.4-14.1C477.1,683.8,483.5,682.8,488.2,686.1z"/>
								<path class="st11" d="M159.9,1009.8c-0.3,17.1,2.7,34.2,9.4,50c6.7,16.4,15.5,32.2,25.9,46.6c10.4,14.8,22.6,28.5,35.7,40.9
									c6.7,6.4,13.5,12.1,20.9,17.8c7.4,5.7,15.2,10.4,23.6,14.1c-8.8-3-17.2-7-24.9-12.1c-7.7-5-15.5-10.1-22.6-16.1
									c-14.5-11.4-28.3-24.5-40.4-38.6c-12.5-14.1-23.2-29.8-32-46.6c-9.1-17.4-14.8-36.6-15.8-56c-0.3-5.7,4-10.4,9.8-10.4
									c5.7-0.3,10.4,4,10.4,9.7C159.9,1009.1,159.9,1009.5,159.9,1009.8z"/>
							</g>
						</g>
					</g>
				</g>
			</g>
		</g>
	</g>
</g>
</svg>
