<?xml version="1.0" encoding="utf-8"?>
<!-- Generator: Adobe Illustrator 26.0.3, SVG Export Plug-In . SVG Version: 6.00 Build 0)  -->
<svg version="1.1" xmlns="http://www.w3.org/2000/svg" xmlns:xlink="http://www.w3.org/1999/xlink" x="0px" y="0px"
	 viewBox="0 0 1920 1080" style="enable-background:new 0 0 1920 1080;" xml:space="preserve">
<style type="text/css">
	
		.st0{clip-path:url(#SVGID_00000133498972810666325810000007800307700872139665_);fill:url(#sky_00000023971208075373437260000008115248072938795183_);}
	.st1{opacity:0.4;clip-path:url(#SVGID_00000133498972810666325810000007800307700872139665_);}
	.st2{fill:#FFF9F7;}
	.st3{opacity:0.43;clip-path:url(#SVGID_00000133498972810666325810000007800307700872139665_);}
	.st4{clip-path:url(#SVGID_00000133498972810666325810000007800307700872139665_);fill:#F9F09D;}
	.st5{clip-path:url(#SVGID_00000133498972810666325810000007800307700872139665_);}
	.st6{fill:#75705A;}
	.st7{fill:#B2A779;}
	.st8{fill:url(#SVGID_00000176761756037813099420000018173875632227266476_);}
	.st9{fill:#A4A1C4;}
	.st10{fill:#BCA237;}
	.st11{fill:#D8C564;}
	.st12{fill:#978FC1;}
	.st13{fill:#9BA3BC;}
	.st14{fill:#D6C565;}
	.st15{fill:url(#SVGID_00000093864452739208848560000008478733491701364889_);}
	.st16{fill:#A6A1D6;}
	.st17{fill:#A5903A;}
	.st18{fill:#938031;}
	.st19{fill:#C9B459;}
	.st20{fill:#D6C45C;}
	.st21{fill:#F4ECB5;}
	.st22{fill:#AA9322;}
	.st23{fill:#A8A3E5;}
	.st24{fill:#A39D86;}
	.st25{fill:#847F6A;}
	.st26{fill:#B29E4B;}
	.st27{fill:#69688C;}
	.st28{clip-path:url(#SVGID_00000133498972810666325810000007800307700872139665_);fill:#F9E255;}
	.st29{fill:#968450;}
	.st30{fill:url(#SVGID_00000096033931425239279360000013456028643576306353_);}
	.st31{fill:#F4C90F;}
	.st32{clip-path:url(#SVGID_00000133498972810666325810000007800307700872139665_);fill:#7F6F3C;}
	.st33{fill:#666666;}
	.st34{fill:#565656;}
	.st35{fill:url(#SVGID_00000116204438689062149240000012177495726937103551_);}
	.st36{fill:#7A7A7A;}
	.st37{fill:url(#SVGID_00000108284770688772931530000012211892277429163138_);}
	.st38{fill:url(#SVGID_00000176746648498743167160000004053808460223252659_);}
	.st39{fill:url(#SVGID_00000075129498945779876850000007457965183828436668_);}
	.st40{fill:#898776;}
	.st41{fill:#9B9884;}
	.st42{fill:#F9E255;}
</style>
<g id="BG">
</g>
<g id="scene">
	<g>
		<defs>
			<rect id="SVGID_1_" width="1920" height="1080"/>
		</defs>
		<clipPath id="SVGID_00000139998971439753974420000006001100540436950165_">
			<use xlink:href="#SVGID_1_"  style="overflow:visible;"/>
		</clipPath>
		
			<linearGradient id="sky_00000066488567022577452020000004467296512583431344_" gradientUnits="userSpaceOnUse" x1="960" y1="-37.983" x2="960" y2="1182.4688">
			<stop  offset="0" style="stop-color:#F9F09D"/>
			<stop  offset="1" style="stop-color:#9DB3FF"/>
		</linearGradient>
		
			<rect id="sky" x="-12" style="clip-path:url(#SVGID_00000139998971439753974420000006001100540436950165_);fill:url(#sky_00000066488567022577452020000004467296512583431344_);" width="1944" height="1200"/>
		<g id="cloud3" style="opacity:0.4;clip-path:url(#SVGID_00000139998971439753974420000006001100540436950165_);">
			<g>
				<path class="st2" d="M1818.4,50.3c44.9,44.2-226.4,11.8-229.9,56.1c-4.5,57.5,362.5-8.2,365.5,21.7c1.4,14-20.6,11.4-40.6,18.5
					c-12.2,4.3-9.3,22.3,3.6,22.7c83.7,2.7,217.9,6.4,220.5,5.8c36.6,3.5,42.1-23.1,13.8-24.4c-12.6-0.6-141.5,2.6-144.6-25.3
					c-3.4-30.1,139.9,2,148.4-30.3c3.5-13.3-5.4-24.3-165.3-37.2c-26.1-2.1-48.6-36.5,63.1-45.6c12.5-1,20.6-23.5,7.8-33.4
					c-27.3-21-148.3,23.6-153.1-3.5c-4.9-27.7,72.6-18.3,86.3-26.5c9.8-5.9,5.4-20.9-5.9-20.6c-8.1,0.2-257.2,0-257.8,0
					c-11.9,0-83.5-8.6-77.9,17.3c6.2,28.6,183.7-1.4,201.8,19.6c9,10.4-4.3,19.7-18,19.7c-52-0.1-161.4-5.8-161.4,25.9
					C1679,57.3,1794.6,26.8,1818.4,50.3z"/>
			</g>
		</g>
		<g id="cloud2" style="opacity:0.4;clip-path:url(#SVGID_00000139998971439753974420000006001100540436950165_);">
			<g>
				<path class="st2" d="M1168.4,320.3c44.9,44.2-226.4,11.8-229.9,56.1c-4.5,57.5,362.5-8.2,365.5,21.7c1.4,14-20.6,11.4-40.6,18.5
					c-12.2,4.3-9.3,22.3,3.6,22.7c83.7,2.7,217.9,6.4,220.5,5.8c36.6,3.5,42.1-23.1,13.8-24.4c-12.6-0.6-141.5,2.6-144.6-25.3
					c-3.4-30.1,139.9,2,148.4-30.3c3.5-13.3-5.4-24.3-165.3-37.2c-26.1-2.1-48.6-36.5,63.1-45.6c12.5-1,20.6-23.5,7.8-33.4
					c-27.3-21-148.3,23.6-153.1-3.5c-4.9-27.7,72.6-18.3,86.3-26.5c9.8-5.9,5.4-20.9-5.9-20.6c-8.1,0.2-257.2,0-257.8,0
					c-11.9,0-83.5-8.6-77.9,17.3c6.2,28.6,183.7-1.4,201.8,19.6c9,10.4-4.3,19.7-18,19.7c-52-0.1-161.4-5.8-161.4,25.9
					C1029,327.3,1144.6,296.8,1168.4,320.3z"/>
			</g>
		</g>
		<g id="cloud1" style="opacity:0.43;clip-path:url(#SVGID_00000139998971439753974420000006001100540436950165_);">
			<g>
				<path class="st2" d="M232.7,198.5c56.5-55.6-285.1-14.9-289.5-70.7c-5.6-72.4,456.5,10.3,460.2-27.4
					c1.8-17.7-25.9-14.4-51.1-23.3c-15.3-5.4-11.8-28,4.5-28.6c105.5-3.5,274.4-8.1,277.7-7.3c46.1-4.4,53,29.1,17.4,30.7
					c-15.8,0.7-178.2-3.3-182.1,31.9c-4.3,37.9,176.1-2.6,186.8,38.1c4.4,16.8-6.8,30.6-208.2,46.8c-32.9,2.6-61.2,45.9,79.4,57.4
					c15.8,1.3,25.9,29.6,9.8,42c-34.4,26.4-186.7-29.8-192.8,4.4c-6.2,34.9,91.4,23,108.6,33.4c12.3,7.4,6.9,26.3-7.5,26
					c-10.2-0.2-323.8,0-324.6,0c-14.9,0-105.1,10.8-98-21.8c7.8-36.1,231.3,1.7,254.1-24.7c11.3-13.1-5.4-24.8-22.7-24.8
					C189.4,280.7,51.6,288,51.6,248C57.1,189.7,202.7,228.1,232.7,198.5z"/>
			</g>
		</g>
		<path id="back-hill" style="clip-path:url(#SVGID_00000139998971439753974420000006001100540436950165_);fill:#F9F09D;" d="
			M-28.4,491.9c14.4-1.9,57.2,19.3,103.3-12.3S162,434,201,436s35,18,73,12s15-2,90,4s186-5,273,24s123-24.8,171,8.6
			s105,45.1,152,50.8s84,6.4,120.5,0c36.5-6.4,47.9-2.6,63.7,4.5c15.8,7.1,72.9-14.9,143.3-15.4S1891,617,1891,617s46,213,40,211
			S-7.2,751.5-7.2,751.5L-28.4,491.9z"/>
		<g id="city" style="clip-path:url(#SVGID_00000139998971439753974420000006001100540436950165_);">
			<path class="st6" d="M1257.1,480c96.9,17.9,314.9-18,400.2-40.4C1742.6,417.2,1795,375,1795,375s-116-13-267.3-10.5
				c-151.3,2.5-356.7,25.5-377.7,38C1150,402.5,1154.2,461,1257.1,480z"/>
			<path class="st7" d="M1171,432v-68.1l26-16.9l45,25l11,37l27.9,2.8l8-97.3c0,0,16.6-9.5,27.9,0l4.9,40.9l31.3,1.6
				c0,0,44.8-38.6,33.4-70.3c0,0,30.9,29.9,55.7,1.1c0,0-10.2,38.5,12.3,50.4l66.6-38.2l14.4-54.1l40-6.1L1595,346l83.7-33.7
				c0,0-3.7-88.3,25.3-110.3s50-8,55,19c10-5,12.2,35,13,47.2c1.8,29.7,8,118.8,8,118.8s-126.5,145.2-286.7,141.6S1171,432,1171,432
				z"/>
			
				<linearGradient id="SVGID_00000055691432837653052650000006918758506688527287_" gradientUnits="userSpaceOnUse" x1="1486" y1="183.2424" x2="1486" y2="204.6919">
				<stop  offset="0" style="stop-color:#F9F09D"/>
				<stop  offset="1" style="stop-color:#9DB3FF"/>
			</linearGradient>
			<path style="fill:url(#SVGID_00000055691432837653052650000006918758506688527287_);" d="M1486,183.9c-51.9,0-94,9.4-94,21.1
				h59.6c0-4.3,15.4-7.7,34.4-7.7s34.4,3.5,34.4,7.7h59.6C1580,193.3,1537.9,183.9,1486,183.9z"/>
			<g>
				<path class="st9" d="M1276.7,300h-41c0,2.9-10.6,5.3-23.7,5.3s-23.7-2.4-23.7-5.3h-41c0,8,29,14.5,64.7,14.5
					S1276.7,308,1276.7,300z"/>
				<polyline class="st10" points="1192.9,253.4 1206.3,261.4 1321.7,464.1 1271.7,474.3 1192.9,253.4 				"/>
				<polygon class="st11" points="1186.3,263.2 1192.9,253.4 1271.7,474.3 1233,475.5 				"/>
				<path class="st9" d="M1212,285.5c-35.7,0-64.7,6.5-64.7,14.5h41c0-2.9,10.6-5.3,23.7-5.3s23.7,2.4,23.7,5.3h41
					C1276.7,292,1247.7,285.5,1212,285.5z"/>
			</g>
			<g>
				<path class="st12" d="M1580,205h-59.6c0,4.3-15.4,7.7-34.4,7.7s-34.4-3.5-34.4-7.7H1392c0,11.7,42.1,21.1,94,21.1
					S1580,216.7,1580,205z"/>
				<polyline class="st10" points="1487,120 1502,133 1557.3,463.3 1479,480 1487,120 				"/>
				<polygon class="st11" points="1472,136 1487,120 1479,480 1422,482 				"/>
				<path class="st12" d="M1486,183.9c-51.9,0-94,9.4-94,21.1h59.6c0-4.3,15.4-7.7,34.4-7.7s34.4,3.5,34.4,7.7h59.6
					C1580,193.3,1537.9,183.9,1486,183.9z"/>
			</g>
			<g>
				<circle class="st13" cx="1360.5" cy="251.7" r="24.3"/>
				<path class="st14" d="M1324.8,385.4c12.2,13,59.1,13,71.3,0c0-108.8-8.8-139.3-8.8-139.3s-9.2-4.5-26.9-4.5
					c-17.7,0-26.9,4.5-26.9,4.5S1324.8,276.6,1324.8,385.4z"/>
				<g>
					<path class="st14" d="M1308.8,485.7c17.7,18.8,85.6,18.8,103.3,0c0-157.7-12.7-201.8-12.7-201.8s-14.1-8.8-38.9-8.8
						c-24.8,0-38.9,8.8-38.9,8.8S1308.8,328,1308.8,485.7z"/>
					
						<linearGradient id="SVGID_00000117637851056891000810000017174802581522668478_" gradientUnits="userSpaceOnUse" x1="1361.6727" y1="564.9932" x2="1359.0372" y2="369.9639">
						<stop  offset="0" style="stop-color:#6C6B74"/>
						<stop  offset="1" style="stop-color:#9A926E;stop-opacity:0"/>
					</linearGradient>
					<path style="fill:url(#SVGID_00000117637851056891000810000017174802581522668478_);" d="M1308.8,485.7
						c17.7,18.8,85.6,18.8,103.3,0c0-157.7-12.7-201.8-12.7-201.8s-14.1-8.8-38.9-8.8c-24.8,0-38.9,8.8-38.9,8.8
						S1308.8,328,1308.8,485.7z"/>
				</g>
			</g>
			<g>
				<circle class="st12" cx="1336.5" cy="455.5" r="77.5"/>
				<g>
					<path class="st16" d="M1309.8,403.2c5.1-2.8,10.4-5.2,15-5.9l-3.2-6.7c0,0-8,1.2-16.9,5.2
						C1306.4,398.3,1308.1,400.8,1309.8,403.2z"/>
					<path class="st16" d="M1298.4,399.2c-4.1,2.5-8,5.7-11.1,9.8c-11.3,15-10.7,26.8-10.7,26.8S1283,421,1299,410
						c1.5-1,3-2,4.6-3.1C1301.8,404.4,1300.1,401.8,1298.4,399.2z"/>
				</g>
			</g>
			<path class="st17" d="M1336.1,480l11.8-71l44.1,2.8V437l30-9.3V375l38,12.5l24,80.5l19-19.9l15.1-50.7l33.2,5.8l21.4,33.9
				c0,0,45.4,73.3-71.2,82.6s-179.9-5.8-179.9-5.8L1336.1,480z"/>
			<polygon class="st18" points="1392,411.8 1392,437 1360.5,445 1353,421 			"/>
			<polygon class="st18" points="1435.2,390.6 1447.4,468.1 1472.5,480 1478.3,448.8 1460,387.5 			"/>
			<g>
				<path class="st19" d="M1684.2,503c-22.3,48.8-107,48.8-129.3,0c0-119.6,10.7-189.9,16.6-219.2c2.2-10.9,3.6-16.1,3.6-16.1
					s27.7-40.4,68.9-25c5.3,2,9.9,7.2,13.3,12.3c4.2,6.4,6.7,12.7,6.7,12.7S1684.2,337.6,1684.2,503z"/>
				<path class="st20" d="M1657.3,255c-1.1,23.5-22.8,35-53.3,38c-20.4,2-28.7-7.6-31-13.9c-1.2-5.3,2.2-11.5,2.2-11.5
					s27.7-40.4,68.9-25C1649.3,244.6,1653.9,249.8,1657.3,255z"/>
				<path class="st21" d="M1621.5,284.6c-19.1,6.4-37.4,3.1-40.9-7.3c-0.5-1.6-0.7-3.3-0.5-5.1c0.2-1.3,0.5-2.5,1-3.8
					c3.3-8.3,13.8-16.8,27.8-21.5c12.5-4.2,24.7-4.2,32.6-0.8c3.1,1.4,5.6,3.2,7.1,5.6c0.5,0.8,0.9,1.6,1.2,2.5
					C1653.3,264.6,1640.6,278.2,1621.5,284.6z"/>
				<path class="st22" d="M1570.2,286.7c0,0,13.1,34.1,30.6,47.2c17.6,13.1,51,35,59,48.7c8,13.7,20.8,22.3,18.6,80.3
					c-2.3,58-3.9,39.4-3.9,39.4s-64.9,13.9-94-2.5c-29.1-16.3-34.1-23.6-34.1-23.6l11-162.2L1570.2,286.7z"/>
				<path class="st19" d="M1661.7,512.5c-98.9,21.6-126.2-12.7-126.2-12.7c0-80.8,13.9-182.9,25.2-208.6c2-4.5,3.9-8.3,5.6-11.5
					c8.3-15.4,13.8-18.1,13.8-18.1c-17.6,20.9-0.8,61.2,22.5,82.6c17.6,16.2,52.3,35.4,61.5,57.5
					C1685.6,453.2,1661.7,512.5,1661.7,512.5z"/>
				<g>
					<path class="st13" d="M1621.5,284.6c-19.1,6.4-37.4,3.1-40.9-7.3c-0.5-1.6-0.7-3.3-0.5-5.1c0.3-1.3,0.6-2.6,1-3.8
						c5.2-16.5,20.6-28.4,38.8-28.4c7.9,0,15.3,2.3,21.6,6.2c2.6,1.6,5,3.5,7.1,5.6c0.5,0.8,0.9,1.6,1.2,2.5
						C1653.3,264.6,1640.6,278.2,1621.5,284.6z"/>
					<g>
						<path class="st23" d="M1634.7,250.8c5.3,2.7,9,6,9,6s-1.8-4.3-7.1-7.9C1635.9,249.5,1635.3,250.1,1634.7,250.8z"/>
						<path class="st23" d="M1627.3,247.9c0.7-0.8,1.5-1.7,2.2-2.5c-0.8-0.2-1.5-0.5-2.4-0.7c-8.3-2-13.2-1.1-13.2-1.1l-3.5,3
							C1610.3,246.5,1619.3,245.9,1627.3,247.9C1627.2,247.9,1627.2,247.9,1627.3,247.9z"/>
						<path class="st23" d="M1631.1,245.9c-0.7,0.8-1.4,1.6-2.1,2.4c1.5,0.5,2.9,1,4.2,1.6c0.6-0.7,1.3-1.4,2-2.1
							C1633.9,247.2,1632.6,246.5,1631.1,245.9z"/>
					</g>
				</g>
				<path class="st19" d="M1667.2,494.9c0.8-22.8-0.9-34.5-16.7-72.6c-11.3-27.1-35.9-39.5-55-60.2c-19.1-20.7-27.5-42.6-29.6-61
					c-0.6-5.9-0.1-16.1,0.4-21.4c8.3-15.4,13.8-18.1,13.8-18.1c-17.6,20.9-0.8,61.2,22.5,82.6c17.6,16.2,52.3,35.4,61.5,57.5
					C1685.6,453.2,1667.2,494.9,1667.2,494.9z"/>
			</g>
			<polygon class="st24" points="1345,473 1451.6,467.9 1454.5,531 1339.6,531 			"/>
			<path class="st25" d="M1447,531l5-82c0,0,38-7,123-22c0,0,0-21.9,0-30c177.5-13.5,220-22,220-22l22.8,61.8
				c0,0-78.9,56.1-166.8,59.1C1563,499,1447,531,1447,531z"/>
			<path class="st25" d="M1118,487l32-84.5c0,0,5,9.5,52,15.5v14.6c0,0,47,15.4,92.8,16.3L1345,473l8,58c0,0-55-1-111-8
				S1118,487,1118,487z"/>
			<polygon class="st26" points="1347.9,409 1353,421 1392,411.8 			"/>
			<path class="st27" d="M1422,537h-46v-41.3c0-8.7,7-15.7,15.7-15.7h14.6c8.7,0,15.7,7,15.7,15.7V537z"/>
			<polygon class="st26" points="1422,375 1435.2,390.6 1460,387.5 			"/>
		</g>
		<path id="middle-hill" style="clip-path:url(#SVGID_00000139998971439753974420000006001100540436950165_);fill:#F9E255;" d="
			M549.7,644.8c0,0,155.6-33.8,217.5-51.8s45.3-6.5,95.6-11.3S988,567,1012,541s113-81,123-83s28.3,15.9,28.3,15.9
			s15.7,26,30.7,21.5c15-4.5,27-2.5,47,11c20,13.5,30,6.5,50,14.5s37,4.3,69,2c16-1.2,27.7,4.9,41,8c13,0,28.1,3.2,50-8
			c43.9-22.3,56.1-63.1,94.6-49.1C1584,488,1591,503,1621,495c18-4.8,70.6-56.6,118-44.5c41,10.5,56.8-21.8,66-23.5
			c59,18,121,49,121,49l-0.5,343L562.1,758.2L549.7,644.8z"/>
		<g id="mid-road" style="clip-path:url(#SVGID_00000139998971439753974420000006001100540436950165_);">
			<path class="st29" d="M1072,800c0,0-50-5-85-36c-24.3-21.6-10.1-63.8,31-78s129-18.5,175-21c147-8,197-21,152-33
				c-44.5-11.9-98.5-24-80.3-48c14.3-19,105.8-14.8,130.3-18c31-4,54.3-13.1,49-21c-6-9-43-14-43-14h26c0,0,29.1-1.4,49,12
				c13.3,9,16.8,21.6-4,27c-50,13-150.6,11.4-152,25s58,13,113,38c62.4,28.4-73,40-142,51c-54.4,8.7-107.8,5.6-142,22
				s-20.8,39.3,29.2,62.2c50,22.8,96.8,25.9,96.8,25.9L1072,800z"/>
			
				<linearGradient id="SVGID_00000030464450918866528980000013240561404193394820_" gradientUnits="userSpaceOnUse" x1="1144.8744" y1="750.1915" x2="1387.7494" y2="509.9708">
				<stop  offset="0" style="stop-color:#91804F;stop-opacity:0"/>
				<stop  offset="0.9996" style="stop-color:#B2AC3C"/>
			</linearGradient>
			<path style="fill:url(#SVGID_00000030464450918866528980000013240561404193394820_);" d="M1072,800c0,0-50-5-85-36
				c-24.3-21.6-10.1-63.8,31-78s129-18.5,175-21c147-8,197-21,152-33c-44.5-11.9-98.5-24-80.3-48c14.3-19,105.8-14.8,130.3-18
				c31-4,54.3-13.1,49-21c-6-9-43-14-43-14h26c0,0,29.1-1.4,49,12c13.3,9,16.8,21.6-4,27c-50,13-150.6,11.4-152,25s58,13,113,38
				c62.4,28.4-73,40-142,51c-54.4,8.7-107.8,5.6-142,22s-20.8,39.3,29.2,62.2c50,22.8,96.8,25.9,96.8,25.9L1072,800z"/>
		</g>
		<g id="R-front-hill" style="clip-path:url(#SVGID_00000139998971439753974420000006001100540436950165_);">
			<path class="st31" d="M1267.5,783.5c-3.3-8.6-4.6-17.9-3.7-27c0.6-5.8,3-12.4,8.6-13.7c5.3-1.2,10.5,3.5,11.9,8.7
				c1.4,5.3,0,10.8-1.5,16.1c13.9,4,14.8-24.4,28.7-28.3c5.4-1.5,11.8,2.1,13.2,7.6c1.4,5.5-2.4,11.7-7.9,13c5,2.5,10,5,15,7.4
				c23.3-4.7,47.6-4.9,71-0.5c7.2,1.3,17.8,0.7,18-6.7c0.1-5.1-5.5-8.2-7.4-12.9c-1.4-3.4-0.6-7.3,1.1-10.6
				c5.3-10.6,20.8-14.9,30.4-7.9c9.6,7,9.9,23.8,0,30.5c14.5,0.7,29.1,1.5,43.6,2.2c10.9,0.6,22.8,0.9,31.7-5.4
				c12.9-9,17.7-30.1,33.3-31.6c12-1.2,21.6,14.8,15,24.9c6.9,4.2,16.2-0.2,21.2-6.5s7.4-14.4,12-21c9.5-13.9,26.7-19.9,42.7-25.1
				c2-0.6,4.3-1.3,6-0.1c3.3,2.1,1.3,7.1-0.9,10.3c-8.8,12.3-17.5,24.6-26.3,37c7.3-2.7,32.6-32.4,39.9-35.2c11.9-4.4,27.6-8,35.5,2
				c4.7,5.9,4,15.5-1.6,20.7c6.5,1.3,13,2.7,19.6,4c3,8.1-29,43.3-24.4,50.6c2.3,3.6,28.4-19.9,29.7-24c29.2-92.9,28.5-5,42.4-9.1
				c5.7-1.7,8-15.9,6.4-17.9c-6.7-8.4-7.1-29,3.5-29.9c11.9-1,14.1,29.7,21.3,23.2c2.1-1.9,4.5-3.9,7.3-3.9
				c6.2-0.1,8.2,8.3,7.6,14.4c-1.1,11.3-4.5,22.4-9.9,32.3c11.6,5.3,25.8,4.5,36.7-2.1c6.4,10.7,21.1,15.5,32.5,10.5
				c11.4-5,18-19.1,14.4-31c7.4-5.3,17.4-8.2,25.6-4.3c8.5,4.1,12.5,15.6,8.3,24.1c22.6-6.8,45.1-13.6,67.7-20.4
				c3.7-1.1,7.4-2.2,11.3-2.1c4.1,0.2,8.1,1.8,11.9,3.5c12.6,5.4,25.1,10.8,37.7,16.2l15,487.3l-1919-49c0,0,923.2-61.5,960-194
				c37.9-136.4,4-227,4-227L1267.5,783.5z"/>
		</g>
		<path id="font-road" style="clip-path:url(#SVGID_00000139998971439753974420000006001100540436950165_);fill:#7F6F3C;" d="
			M1104,780.1c0,0,13.6-9.1,82-9.1c65,0,96.8,9.1,96.8,9.1s98.2,18.4,351.2,200.1s239.2,212.1,394.1,261H784
			c0,0,438.8-143.7,430.4-245.9S1156.1,805.1,1104,780.1z"/>
		<g id="l-front-hill" style="clip-path:url(#SVGID_00000139998971439753974420000006001100540436950165_);">
			<path class="st31" d="M-6.7,570.6c19.1,27.1,45.3,49.2,75.3,63.3c9.3-15.6,23.3-33.6,41.2-30.4c14.7,2.6,22.7,18.1,32.7,29.2
				c10,11.1,31.5,16.7,37.6,3c1.9-4.2,1.6-9.2,3.8-13.2c6.9-12.8,26.4-3.6,36.7,6.7c10.3,10.3,29.4,19.9,36.8,7.4
				c10.2-19.8,29.1-33.4,47.2-46.2c19.3-13.6,38.5-27.1,57.8-40.7c9.7-6.9,19.9-13.9,31.7-15.8c25.6-4.1,50.4,17.2,75.9,12.5
				c7.8-1.4,14.9-5.2,22.2-8.3c24-10.3,50.9-13.7,76.8-9.7c6.6,1,13.5,2.5,20,0.7c10.6-2.9,16.8-13.3,23.9-21.7
				c6.6-7.7,15.2-14.3,25.2-15.5s21.3,4.8,23.4,14.6c0.9,4.4,0.2,9.3,2.8,13c4.1,5.7,12.7,4,19.7,4c34.4-0.1,58.7,52.3,90.6,39.5
				c10.4-4.2,16.9-14.5,26-21.1s25-7.3,28.7,3.3c3.9,11.1-9.6,20.7-11.9,32.3c9.3,2.4,16.6,11,17.5,20.6
				c6.7-7.6,13.8-15.5,23.3-19.1c9.5-3.6,22-1.4,26.8,7.5c6.7,12.6-5.3,27.7-3,41.7c2.5,14.7,23.6,21.9,34.5,11.7
				c20.1,16.6,36.5,37.7,47.6,61.3c6.3-7.1,13.2-14.5,22.4-17c9.2-2.5,21,2.5,22,12c0.6,5.2-2.2,10.2-2.4,15.3
				c-1.4,25.3,48,29.1,46.7,54.4c9.8-9.9,21.2-20.5,35.1-20.4s26.3,18.7,16.1,28.2c11-3.6,15.2-19.6,7.4-28.1
				c18.1-1.5,34.6,17.9,30.3,35.5c10.2,3.4,20.4,6.8,30.6,10.2c1.1-16.4,11.5-31.8,26.3-38.9c6.5,20.4,0.7,44.3-14.3,59.5
				c6.4,0.3,12.7,0.5,19.1,0.8c-10.8,11.3-16.3,27.4-14.8,43c8-10.1,16.1-20.1,24.1-30.2c2.5-3.2,5.3-6.5,9.1-8
				c11.4-4.3,21.2,12.6,15.9,23.6c-5.4,11-18.1,15.8-29.7,19.6c16.1,7.3,22.7,30,13.1,44.8c29.7,16.9,35.6,64,11,87.7
				c7.1,5.2,16.4,7.3,25.1,5.9c-14.6,25.8-39.8,43.9-65.8,58.1c-55,30-116.3,46.2-177.5,59.3c-335.6,72.1-684.1,59.4-1022.3,118.4
				L-6.7,570.6z"/>
		</g>
		<g id="rock1" style="clip-path:url(#SVGID_00000139998971439753974420000006001100540436950165_);">
			<polygon class="st33" points="140,717 148,695 171,681 180,700 201,686 204.6,673 274,683 268.3,673 284,651 323,651 361,669 
				528,812 247,925 			"/>
			<polygon class="st34" points="148,695 265,882 224.9,882 140,717 			"/>
			<polygon class="st34" points="274,683 268.3,673 284,651 309,686 			"/>
			<polygon class="st34" points="323,651 391.5,721.2 361,669 			"/>
			<polygon class="st34" points="204.6,673 343.9,863.6 323,863.6 201,686 			"/>
			<polygon class="st34" points="251.2,679.7 288.6,721.2 265,681.7 			"/>
			<polygon class="st34" points="180,700 245,806 189.7,693.5 			"/>
			<polygon class="st34" points="317,737 410.3,837.2 418.9,823.8 			"/>
			<polygon class="st34" points="323,682.7 436.2,823.8 436.2,809.4 			"/>
			<polygon class="st34" points="398,710 459,770 440.4,737 361,669 			"/>
			<g>
				<g>
					
						<linearGradient id="SVGID_00000015357052372501125590000017364445498650525570_" gradientUnits="userSpaceOnUse" x1="383.9128" y1="767.4459" x2="391.8759" y2="920.736">
						<stop  offset="0" style="stop-color:#F9E255"/>
						<stop  offset="1" style="stop-color:#F4C90F"/>
					</linearGradient>
					<path style="fill:url(#SVGID_00000015357052372501125590000017364445498650525570_);" d="M574.8,811.7
						c-14.5,0.4-11.6-24.7-22.6-34.1c-3.2-2.8-7.5-4-11.6-5.1c-23.1-6.2-46.2-12.4-69.3-18.6c5.7-13.7,2.4-30.8-8-41.4
						c-16.2,13.2-34.1,30.5-31,51.1c1.8,11.8,9.9,25.9,1.2,34.1c-5.4,5.1-14.2,4.1-20.4,8.2c-4.9,3.3-7.3,9.2-11.5,13.4
						s-12.5,5.8-15.2,0.5c3.5-13.3,1.8-27.9-4.8-40c-12.3,2.3-17.4,17.1-17.9,29.5c-0.5,12.5,1,26.2-6.7,36.1
						c-7.6,9.9-28.5,7-27.2-5.4c-8.1,12.4-25,14.6-39.8,15.7c-7.9,0.6-15.8,1.1-23.7,1.7c2.9-11.6-8.6-24.2-20.3-22.4
						c-11.8,1.8-19,17.3-12.7,27.4c-15.3-3-29.3-12.5-37.7-25.6c-4.3-6.7-7.3-14.2-12.7-20.1c-5.4-5.8-14.3-9.5-21.3-5.7
						c-11.7,6.4-6.4,24.3,1.2,35.3c7.6,11,16,26.5,6.9,36.2L132,935l519-43L574.8,811.7z"/>
				</g>
			</g>
		</g>
		<g id="rock2" style="clip-path:url(#SVGID_00000139998971439753974420000006001100540436950165_);">
			<polygon class="st33" points="700,421 717,431 773,401 808,433 794,471 808,484.6 801.8,577 718,713 390,600 			"/>
			<polygon class="st36" points="808,484.6 681,654.5 744.5,662.1 801.8,577 			"/>
			<polygon class="st34" points="773,401 550,584 717,431 			"/>
			<polygon class="st34" points="700,421 424.9,625.3 410,587 			"/>
			<polygon class="st34" points="560.2,625.3 670,527 574,636 			"/>
			<polygon class="st36" points="808,433 696.9,557 794,471 			"/>
			<polygon class="st36" points="781.9,409.1 744.5,445 788.5,415.2 			"/>
			<polygon class="st34" points="627.4,702.8 773,506 610,696 			"/>
			
				<linearGradient id="SVGID_00000149376355753243586970000013974350328198414755_" gradientUnits="userSpaceOnUse" x1="628.2057" y1="558.9384" x2="588.3902" y2="710.2375">
				<stop  offset="0" style="stop-color:#F9E255"/>
				<stop  offset="1" style="stop-color:#F4C90F"/>
			</linearGradient>
			<path style="fill:url(#SVGID_00000149376355753243586970000013974350328198414755_);" d="M372.5,616.9C372,593,373.5,545,399,557
				c17,8,20,31,32,31c31.3,0-22.5-46.7-6.7-39.4C440,556,432,499,451,523s21.2,53,31.6,34c10.4-19,41.4-21.4,45.4-5.7
				c4,15.7-36,33.7-10,42.7s17.5,8,36.3,6c18.7-2,23.1,2.8,23.9,16.9c0.8,14.1,39,52.1,58.4,31.1s28.2-26.2,39.8-31.1
				c11.6-4.9,1,7.9,5.3,15S700,654,712,639s16-14.3,22.5-30.6S739,576,752,580s7,25,4,37.5s7,10.3,28,14.4s22,25,24,29.5
				s4.9,9.6,29,11.6c24,2-9.3,10.1-5.3,22.9C842,729,788,734,767,703c-9.5-14-32.5,31.1-61.4,30.5C593,731,381.7,673,381.7,673
				L372.5,616.9z"/>
		</g>
		<g id="rock3" style="clip-path:url(#SVGID_00000139998971439753974420000006001100540436950165_);">
			<polygon class="st33" points="833,773 860,758 871,766 890,701 906,692 910,682 954,673 971,688 991.8,673 1027,690 1037,751 
				1052,749 1058,1018 784,937 			"/>
			<polygon class="st34" points="860,758 826,940 784,937 833,773 			"/>
			<polygon class="st34" points="890,701 871,766 876,778 875.5,823.8 906,692 			"/>
			<polygon class="st34" points="906,920.9 942.1,749 915.1,928.5 			"/>
			<polygon class="st34" points="854,921 884.4,808 863,929 			"/>
			<polygon class="st34" points="1011,970 1021.4,794.5 1021.4,974.2 			"/>
			<polygon class="st34" points="998.9,676.4 985.6,794.5 1002.5,678.2 			"/>
			<polygon class="st34" points="1012.9,683.2 1007.5,757.9 1017.7,685.5 			"/>
			<polygon class="st36" points="1052,749 1039,770 1029,996 1065.2,1004.6 			"/>
			<polygon class="st34" points="1006,769 991.8,902.7 991.8,914.9 1001,872 			"/>
			<g>
				
					<linearGradient id="SVGID_00000073686891059749996350000002295200400064744873_" gradientUnits="userSpaceOnUse" x1="931.4514" y1="874.4083" x2="899.5989" y2="1003.8089">
					<stop  offset="0" style="stop-color:#F9E255"/>
					<stop  offset="1" style="stop-color:#F4C90F"/>
				</linearGradient>
				<path style="fill:url(#SVGID_00000073686891059749996350000002295200400064744873_);" d="M1133.8,951.5
					c-17.2-18.7-53.5-11.6-62.5,12.1c-1.3,3.5-2.3,7.4-5.1,9.9c-6.8,5.9-16.7-1.1-24.4-5.9c-12.8-7.9-29.5-9.1-43.3-3
					c-4.1,1.8-8.3,4.3-12.8,3.8c-3.8-0.4-7.1-2.9-10.1-5.4c-15.8-12.7-31.6-25.5-47.4-38.2c-8.8-7.1-18.5-17.6-14.2-28
					c-19.1,2.3-37.6,10-52.8,21.8c5.8-10.5-9.5-20.6-21.5-20.5s-26.7,2.4-33.7-7.4c-4.1-5.8-3.1-14.6,2.2-19.4
					c5.3-4.7,14.2-4.7,19.5,0c6.2-6.3,3.5-17.8-3.7-22.9s-17-4.7-25.3-1.7c-8.1,2.9-15.3,8.2-20.6,15c-4.4,5.7-7.5,12.4-12.6,17.6
					s-13.3,8.3-19.6,4.8c0,0-64.5-60.6-80.7-44.2c-24.9,25.2,53,148,53,148l340,69c0,0,107.4-5,112-26c3.8-17.1-59.8-36.7-59.8-36.7
					L1133.8,951.5z"/>
			</g>
			<polygon class="st34" points="971,688 986,701 991.8,673 			"/>
			<polygon class="st34" points="926.2,679 917,729 937.3,676.4 			"/>
			<polygon class="st34" points="910,682 896.4,757.9 906,692 			"/>
			<polygon class="st34" points="1037,751 1039,770 1052,749 			"/>
			<polygon class="st34" points="922.8,679.4 895,808 928.6,678.2 			"/>
		</g>
		<g id="rock4" style="clip-path:url(#SVGID_00000139998971439753974420000006001100540436950165_);">
			<path class="st33" d="M1477,859c-0.9,0.5-68-132-68-132v-12.6l21-11.4l4-19l17-41l12,7l12.9-33.1l26.9,13.1l41.2,45l8-10l189,185
				l-230,14L1477,859z"/>
			<polygon class="st34" points="1409,714.4 1511,864 1477,859 1409,727 			"/>
			<polygon class="st34" points="1434,684 1443.5,701 1430,703 			"/>
			<polygon class="st34" points="1463,650 1487,644.9 1475.9,616.9 			"/>
			<polygon class="st36" points="1552,665 1554,673 1690.3,842 1722.9,832.3 			"/>
			<polygon class="st34" points="1478.8,646.6 1544,735.5 1487,644.9 			"/>
			<polygon class="st34" points="1479,740 1563.6,861.2 1575,860.1 			"/>
			<polygon class="st34" points="1579.5,743.1 1650.5,828 1662,831 			"/>
			<polygon class="st36" points="1451,643 1517,734 1463,650 			"/>
			<polygon class="st36" points="1475.9,616.9 1579.5,729 1502.8,630 			"/>
			<polygon class="st34" points="1440.5,668.3 1511.4,764.6 1443.5,661.1 			"/>
			<g>
				
					<linearGradient id="SVGID_00000129192524433481404040000001757900120418078593_" gradientUnits="userSpaceOnUse" x1="1601.4049" y1="775.9504" x2="1621.3126" y2="877.4802">
					<stop  offset="0" style="stop-color:#F9E255"/>
					<stop  offset="1" style="stop-color:#F4C90F"/>
				</linearGradient>
				<path style="fill:url(#SVGID_00000129192524433481404040000001757900120418078593_);" d="M1488,847c-11.8-10.3-15-37.8,6.1-32.7
					c9.8,8.9,18.9,23.8,33.2,24.9c9.4-3.9,0-16.4,3.3-23.1c2.3-4.9,9.6-5.6,13.9-2.3c10.9,7.5-2.8,25.6,12,29.6
					c6.1,2.6,13.5,4.5,19.2,1c13.5-8,1.4-43.4,23.1-41.7c-4.7,18.1,30.4,38,27.6,10.5c10.4-5,31,1.7,34-13.5
					c-5.1-16,11.2-46.6,28.8-30.5c5.5,17.6,16.7,47.9,40.4,36.2c4.9-3.1,10.2-9.3,15.2-6.3c24.4,46.1,35.9,10.9,56.8,64.4
					c-50.1,0.1-327.1,46.9-368.5-13.5C1435.2,836.4,1488,847,1488,847z"/>
			</g>
		</g>
		<g id="rock5" style="clip-path:url(#SVGID_00000139998971439753974420000006001100540436950165_);">
			<polygon class="st40" points="1649,650 1620,591 1636,591 1630.5,583 1658,577 1722.9,614 1689,657 			"/>
			<polygon class="st41" points="1640,581 1667,602 1667,595.1 1712,623 1722.9,614 1658,577 			"/>
			<path class="st42" d="M1631.5,650c0,0-19-10.3-14.3-14.7c4.8-4.3-1.3,1.4,6.7,3.5s8.8-3.4,10.4-5.1c1.6-1.8,2.6-6.2,12.6,0
				s12,4.2,20,4.2s10.4-1.9,17.2-7.4c6.8-5.6,6.2-7.6,15-7.6s5.9-1,12.8-6s7-8,17-8s26.4,22.9,26.4,22.9s-1.4,8.1,2.6,5.1
				s0,9.4,0,9.4s-15-1.4-19-6.4s-1,4-3,8s-5.3,13-13.1,9c-7.9-4-1.9-7-7.9-4s5.8,13-9.6,12c-15.4-1-28.4-2-45.4-6s-25.3-4-31.1-2
				c-5.9,2-35.7-5-28.8-7s19.1,5,19.5,0S1631.5,650,1631.5,650z"/>
		</g>
		<g id="rock5_1_" style="clip-path:url(#SVGID_00000139998971439753974420000006001100540436950165_);">
			<polygon class="st40" points="1095.1,630 1138.9,581.7 1172,569 1183.7,593 1169.7,630 			"/>
			<polygon class="st41" points="1172,569 1161,593 1169.2,593 1156.8,625.6 1169.7,630 1183.7,593 			"/>
			<path class="st42" d="M1085,615c0,0,4.1-12,10-8s4.3,10.8,7,8s6-7,7-8s10,1,9,4s3.8,8.8,11.4,5.9c7.6-2.9,11.6-6.9,16.6-5.9
				s9.5,5.9,9.5,5.9s5,4,9.7,3.1c4.8-1,15-5.2,16.4-3.1c1.4,2.1,4.8,13.1,4.8,13.1s1.7,8-12.3,9s-32.6,6.2-38.3,2.1
				c-5.7-4.1-7.7,0.2-17.7,1.6c-10,1.4-15.2,4.6-27.1,0c-11.9-4.6-17.2-6.7-15-9.2C1078,631,1085,615,1085,615z"/>
		</g>
	</g>
</g>
</svg>
