<?xml version="1.0" encoding="utf-8"?>
<!-- Generator: Adobe Illustrator 26.0.3, SVG Export Plug-In . SVG Version: 6.00 Build 0)  -->
<svg version="1.1" xmlns="http://www.w3.org/2000/svg" xmlns:xlink="http://www.w3.org/1999/xlink" x="0px" y="0px"
	 viewBox="0 0 1920 1080" style="enable-background:new 0 0 1920 1080;" xml:space="preserve">
<style type="text/css">
	
		.st0{clip-path:url(#SVGID_00000048459603491852412070000005574923286342238363_);fill:url(#sky_00000080923524709752539210000007018025715740897678_);}
	.st1{opacity:0.49;clip-path:url(#SVGID_00000048459603491852412070000005574923286342238363_);fill:#DCF4FF;}
	.st2{clip-path:url(#SVGID_00000048459603491852412070000005574923286342238363_);fill:#867A87;}
	.st3{clip-path:url(#SVGID_00000048459603491852412070000005574923286342238363_);}
	.st4{fill:#CAB0CC;}
	.st5{opacity:0.29;clip-path:url(#SVGID_00000048459603491852412070000005574923286342238363_);fill:#D2FFFC;}
	.st6{fill:#BC9B69;}
	.st7{fill:#6DC9C4;}
	.st8{fill:url(#SVGID_00000092416603046825095780000002885866204542137519_);}
	.st9{opacity:0.2;clip-path:url(#SVGID_00000048459603491852412070000005574923286342238363_);fill:#DCF4FF;}
	.st10{fill:#49B2A8;}
	.st11{fill:#53C1B3;}
	.st12{fill:#39998E;}
	.st13{fill:#DCA846;}
	.st14{fill:url(#SVGID_00000088822075575656271690000011364449110526532245_);}
	.st15{opacity:0.71;}
	.st16{fill:#F2CAA2;}
	.st17{fill:url(#SVGID_00000088112432321282916120000014475144501893483392_);}
	.st18{fill:#1BB3C3;}
	.st19{fill:#008E87;}
	.st20{fill:#0F7069;}
	.st21{fill:#0F514C;}
	.st22{fill:#1A605B;}
	.st23{clip-path:url(#SVGID_00000163057376204688286620000002221869768145946040_);}
	.st24{fill:#1C7570;}
	.st25{fill:#C8FCF9;}
	.st26{fill:#6DC9C6;}
	.st27{fill:url(#SVGID_00000070818768485590425730000016571717378319503260_);}
	.st28{fill:#67BDC7;}
	.st29{clip-path:url(#SVGID_00000052088923713815109100000008085759585219507890_);fill:#00AA99;}
	
		.st30{clip-path:url(#SVGID_00000052088923713815109100000008085759585219507890_);fill:none;stroke:#189B81;stroke-width:8;stroke-miterlimit:10;}
	.st31{clip-path:url(#SVGID_00000052088923713815109100000008085759585219507890_);fill:#C9F2F4;}
	.st32{clip-path:url(#SVGID_00000061458952213475337520000016556638723432751027_);fill:#76A1B0;}
	.st33{clip-path:url(#SVGID_00000061458952213475337520000016556638723432751027_);fill:#198984;}
	.st34{opacity:0.58;clip-path:url(#SVGID_00000061458952213475337520000016556638723432751027_);fill:#FFCE80;}
	.st35{opacity:0.35;clip-path:url(#SVGID_00000061458952213475337520000016556638723432751027_);fill:#FFCE80;}
	.st36{opacity:0.4;clip-path:url(#SVGID_00000061458952213475337520000016556638723432751027_);}
	.st37{fill:#CCA255;}
	.st38{clip-path:url(#SVGID_00000061458952213475337520000016556638723432751027_);}
	.st39{opacity:0.69;clip-path:url(#SVGID_00000061458952213475337520000016556638723432751027_);}
	.st40{fill:url(#SVGID_00000128461774487047114670000009505297924894526123_);}
	.st41{fill:url(#SVGID_00000119090071934258116390000006396488653395716269_);}
	.st42{fill:url(#SVGID_00000122689472819758601890000006500106971397766065_);}
	.st43{fill:url(#SVGID_00000059998217243865638720000007269624565267394999_);}
	.st44{opacity:0.25;fill:#FFC877;}
	.st45{fill:url(#SVGID_00000065764951522326295990000000269872505443056314_);}
	.st46{fill:#C9F2F4;}
</style>
<g id="background">
</g>
<g id="foreground">
	<g>
		<defs>
			<rect id="SVGID_1_" width="1920" height="1080"/>
		</defs>
		<clipPath id="SVGID_00000034063836752688789440000005111958214113180329_">
			<use xlink:href="#SVGID_1_"  style="overflow:visible;"/>
		</clipPath>
		
			<linearGradient id="sky_00000098905053423401108220000012269863807058815670_" gradientUnits="userSpaceOnUse" x1="960" y1="-34.2741" x2="960" y2="823.7824">
			<stop  offset="0" style="stop-color:#C2FFEC"/>
			<stop  offset="1" style="stop-color:#C0A2D6"/>
		</linearGradient>
		
			<rect id="sky" x="-8.8" y="-34.3" style="clip-path:url(#SVGID_00000034063836752688789440000005111958214113180329_);fill:url(#sky_00000098905053423401108220000012269863807058815670_);" width="1937.7" height="1219.9"/>
		
			<path id="cloud-3" style="opacity:0.49;clip-path:url(#SVGID_00000034063836752688789440000005111958214113180329_);fill:#DCF4FF;" d="
			M-27,40.3c0,0,304.6,0,373.1,0s94,29.3,58.3,63.1s406.4,40.3,476.2,40.3s163.2,60.2,19.6,69.8c-143.6,9.7-948.4,0-948.4,0
			L-27,40.3z"/>
		
			<rect id="ground" x="218.6" y="849.3" style="clip-path:url(#SVGID_00000034063836752688789440000005111958214113180329_);fill:#867A87;" width="1710.3" height="342.3"/>
		<g id="city-skyline" style="clip-path:url(#SVGID_00000034063836752688789440000005111958214113180329_);">
			<g>
				<g>
					<path class="st4" d="M1349.1,28.1v736.5h-128V262.6C1221.2,262.6,1305.9,223.9,1349.1,28.1z"/>
					<circle class="st4" cx="1346" cy="42.6" r="15"/>
				</g>
				<polygon class="st4" points="1261.5,773.6 1133.3,773.6 1133.3,441.9 1261.5,361.5 				"/>
				<path class="st4" d="M1460.2,721.3L1460.2,721.3c-44.5,0-80.5-36-80.5-80.5V219.3c0-44.5,36-80.5,80.5-80.5
					c55.9,0,80.5,36,80.5,80.5v421.6C1540.7,685.3,1504.7,721.3,1460.2,721.3z"/>
				<rect x="1314.8" y="361.5" class="st4" width="100.4" height="78.4"/>
				<path class="st4" d="M1149.2,788.4H976V288.2c0,0,73.9-43.7,113.1-12.9c61.4,48.3,60.1,119.7,60.1,119.7V788.4z"/>
				<rect x="910.3" y="467" class="st4" width="156.2" height="316.9"/>
				<polygon class="st4" points="919.2,739.1 758.6,739.1 758.6,350.2 872,400.7 				"/>
				<polygon class="st4" points="142.7,739.1 -17.9,739.1 -17.9,350.2 95.5,400.7 				"/>
			</g>
		</g>
		
			<path id="cloud-2" style="opacity:0.29;clip-path:url(#SVGID_00000034063836752688789440000005111958214113180329_);fill:#D2FFFC;" d="
			M2069.5,286.9c0,0-304.6,0-373.1,0s-94,29.3-58.3,63.1c-144.2-52.7-265.7-58-350.4-28.5c-65.9,22.9-289,129-145.3,138.6
			c143.6,9.7,948.4,0,948.4,0L2069.5,286.9z"/>
		<g id="building-2" style="clip-path:url(#SVGID_00000034063836752688789440000005111958214113180329_);">
			<circle class="st6" cx="671.4" cy="96.5" r="73.5"/>
			<path class="st7" d="M563.7,500.5c36.9,39.3,178.5,39.3,215.4,0c0-328.8-26.5-420.8-26.5-420.8S724.8,66,671.4,66
				s-81.2,13.7-81.2,13.7S563.7,171.7,563.7,500.5z"/>
			<g>
				<path class="st7" d="M515.3,803.5c53.4,56.9,258.7,56.9,312.1,0c0-476.5-38.4-609.8-38.4-609.8s-42.7-26.6-117.6-26.6
					s-117.6,26.6-117.6,26.6S515.3,327,515.3,803.5z"/>
				
					<linearGradient id="SVGID_00000134957560756724891610000015612101485561545868_" gradientUnits="userSpaceOnUse" x1="674.9875" y1="1043.0436" x2="667.0244" y2="453.7729">
					<stop  offset="0" style="stop-color:#377C8B"/>
					<stop  offset="1" style="stop-color:#6E9A99;stop-opacity:0"/>
				</linearGradient>
				<path style="fill:url(#SVGID_00000134957560756724891610000015612101485561545868_);" d="M515.3,803.5
					c53.4,56.9,258.7,56.9,312.1,0c0-476.5-38.4-609.8-38.4-609.8s-42.7-26.6-117.6-26.6s-117.6,26.6-117.6,26.6
					S515.3,327,515.3,803.5z"/>
			</g>
		</g>
		
			<path id="cloud-1" style="opacity:0.2;clip-path:url(#SVGID_00000034063836752688789440000005111958214113180329_);fill:#DCF4FF;" d="
			M427,489.3c0,0,0-53.1,90.7-53.1c109.8,0,125.2,63.1,125.2,63.1s127.3,4.3,214.1,14.7s16.2,52.2,16.2,52.2l219.2,19.2
			c0,0-181.6,64.1-453.5,52.2s-504.9,1.5-504.9,1.5s-0.9-67.3,132.3-72.9C266.2,523.4,317.1,478.7,427,489.3z"/>
		<g id="building-1" style="clip-path:url(#SVGID_00000034063836752688789440000005111958214113180329_);">
			<path class="st10" d="M23.9,1172.1c88.4,193.3,424.1,193.3,512.5,0c0-474.2-42.6-752.8-65.6-869c-8.6-43.2-14.4-63.9-14.4-63.9
				s-109.7-160.2-273.1-99c-21.1,7.9-39.1,28.4-52.6,48.7c-16.8,25.3-26.6,50.3-26.6,50.3S23.9,516.7,23.9,1172.1z"/>
			<path class="st11" d="M130.7,188.9c4.2,93.1,101.9,155.1,222.7,167c81.1,8,102.4-46.5,111.5-71.2c4.6-21-8.5-45.6-8.5-45.6
				s-109.7-160.2-273.1-99C162.2,148.1,144.2,168.6,130.7,188.9z"/>
			<path class="st12" d="M475.8,314.9c0,0-51.8,135.4-121.4,187.1S152.3,640.8,120.4,695.1s-82.6,88.6-73.7,318.5
				s15.6,156.3,15.6,156.3s257.1,54.9,372.6-9.9s135.4-93.7,135.4-93.7l-43.8-643L475.8,314.9z"/>
			<path class="st10" d="M91.6,1140c392.2,85.6,521.6-131.4,521.6-131.4c0-109.5-54.8-574.3-99.5-675.9
				c-7.8-17.8-15.3-32.9-22.2-45.8c-32.8-60.9-54.6-71.8-54.6-71.8c69.9,82.7,3.3,242.4-89.4,327.6C277.5,607,140,683.1,103.5,770.7
				C18.6,974.6,91.6,1140,91.6,1140z"/>
			<g>
				<g>
					<path class="st13" d="M272.4,306.3c75.7,25.2,148.3,12.2,162.1-29.1c2.2-6.5,2.7-13.3,1.9-20.2c-1.1-5.2-2.4-10.2-4-15.2
						c-20.6-65.3-81.7-112.7-153.8-112.7c-31.4,0-60.7,9-85.5,24.5c-10.2,6.4-19.6,13.9-28.1,22.3c-2,3.1-3.6,6.4-4.7,9.9
						C146.4,227.1,196.7,281.1,272.4,306.3z"/>
					
						<radialGradient id="SVGID_00000062913860369031134200000002407201839739545239_" cx="270.9558" cy="268.4252" r="171.8276" gradientUnits="userSpaceOnUse">
						<stop  offset="0" style="stop-color:#C78E3C"/>
						<stop  offset="1" style="stop-color:#DCA846"/>
					</radialGradient>
					<path style="fill:url(#SVGID_00000062913860369031134200000002407201839739545239_);" d="M272.4,306.3
						c75.7,25.2,148.3,12.2,162.1-29.1c2.2-6.5,2.7-13.3,1.9-20.2c-1.1-5.2-2.4-10.2-4-15.2c-20.6-65.3-81.7-112.7-153.8-112.7
						c-31.4,0-60.7,9-85.5,24.5c-10.2,6.4-19.6,13.9-28.1,22.3c-2,3.1-3.6,6.4-4.7,9.9C146.4,227.1,196.7,281.1,272.4,306.3z"/>
				</g>
				<g class="st15">
					<path class="st16" d="M220.3,172.3c-20.9,10.8-35.5,23.8-35.5,23.8s7.2-17,28.2-31.5C215.5,167.1,217.9,169.7,220.3,172.3z"/>
					<path class="st16" d="M249.7,160.9c-2.9-3.3-5.8-6.6-8.6-10c3-1,6.1-1.8,9.4-2.6c33.1-7.8,52.4-4.5,52.4-4.5l13.9,11.8
						C316.9,155.6,281.3,153.2,249.7,160.9C249.8,160.9,249.8,160.9,249.7,160.9z"/>
					<path class="st16" d="M234.7,153.2c2.7,3.3,5.4,6.5,8.2,9.7c-5.8,1.8-11.3,4-16.6,6.5c-2.5-2.8-5.1-5.6-7.7-8.3
						C223.3,158.2,228.7,155.5,234.7,153.2z"/>
				</g>
			</g>
			<path class="st10" d="M91.6,1140c-3-90.6,3.7-136.9,66.4-287.7c44.6-107.5,142.3-156.6,218-238.8
				c75.7-82.2,109.2-168.7,117.2-241.7c2.6-23.4,0.3-64-1.7-84.9c-32.8-60.9-54.6-71.8-54.6-71.8c69.9,82.7,3.3,242.4-89.4,327.6
				C277.5,607,140,683.1,103.5,770.7C18.6,974.6,91.6,1140,91.6,1140z"/>
			
				<linearGradient id="SVGID_00000166667077646916173900000000515743239631793846_" gradientUnits="userSpaceOnUse" x1="447.0767" y1="195.6407" x2="325.6391" y2="281.2443">
				<stop  offset="0" style="stop-color:#F3D9B3"/>
				<stop  offset="1" style="stop-color:#DCC7A1;stop-opacity:0.2"/>
			</linearGradient>
			<path style="fill:url(#SVGID_00000166667077646916173900000000515743239631793846_);" d="M376.5,182.1c0,0,25.8,42.2,11.9,76.8
				s-88.7,29-122.1,25.2c10.2,6,93.4,34.7,136.7,6C441.9,264.2,391.8,189.6,376.5,182.1z"/>
		</g>
		<g id="building-3" style="clip-path:url(#SVGID_00000034063836752688789440000005111958214113180329_);">
			<path class="st18" d="M1618.8,108.5c0,0-77.4,107.8-72.5,189.4s90.5,211,90.5,211L1618.8,108.5z"/>
			<path class="st7" d="M1524.5,328.3l73.4,406h216.4c0,0,84.6-40.9,107.9-142c0,0-167.8-2.6-282.8-133.3L1524.5,328.3z"/>
			<rect x="1597.9" y="-29.5" class="st7" width="324.3" height="763.8"/>
			<g>
				<path class="st7" d="M1888.7,644.4c-23,17.9-58.9,35.1-213.6-81.1c-31.6-23.7-55.9-51.5-77.1-77.8
					c-50-61.6-75.3-124.7-75.6-188.5c-0.3-75.9,34.6-133.6,55.4-168c3.4-5.7,6.4-10.6,8.6-14.6c3.8-6.8,7.6-13.6,11.6-20.4v98.8
					c-14.1,28.2-26.7,63.1-26.6,104c0.1,33.4,9,67.1,26.6,100.7C1620.2,440.5,1661.9,531.3,1888.7,644.4z"/>
			</g>
		</g>
		<g id="sphere" style="clip-path:url(#SVGID_00000034063836752688789440000005111958214113180329_);">
			<circle class="st19" cx="39.5" cy="1255.7" r="711.1"/>
			<ellipse class="st20" cx="39.5" cy="1255.7" rx="394.9" ry="711.1"/>
			<ellipse class="st21" cx="39.5" cy="1255.7" rx="355.5" ry="640"/>
			<path class="st19" d="M263.1,1255.7c0,379.9-170.8,687.9-381.5,687.9c-10.6,0-21.1-0.8-31.5-2.3c-26.7-7.4-52.8-16.2-78.2-26.6
				c-260.1-105.7-443.5-360.9-443.5-659s183.4-553.3,443.5-659c25.4-10.3,51.4-19.2,78.2-26.6c10.4-1.5,20.9-2.3,31.5-2.3
				C92.3,567.8,263.1,875.8,263.1,1255.7z"/>
		</g>
		<g id="platform" style="clip-path:url(#SVGID_00000034063836752688789440000005111958214113180329_);">
			<g>
				<rect x="886.3" y="1013.5" class="st21" width="179.3" height="242.2"/>
				<rect x="1007.8" y="1013.5" class="st22" width="57.7" height="242.2"/>
			</g>
			<g>
				<rect x="1646.5" y="1013.5" class="st21" width="179.3" height="242.2"/>
				<rect x="1768.1" y="1013.5" class="st22" width="57.7" height="242.2"/>
			</g>
			<g>
				<defs>
					<path id="SVGID_00000039845028459842264520000006191225221290702469_" d="M3057,587.3V1105H728
						c-218.8,16.6-200.9,10.4-187.7-135.6c58.1-24.1,95.8-35.6,116-67.6c-27.6-47.7-61.2-93.1-98.7-133l-61.4-60.9l61.4-120.5H3057z
						"/>
				</defs>
				<clipPath id="SVGID_00000157988478418218053600000002512582458074108570_">
					<use xlink:href="#SVGID_00000039845028459842264520000006191225221290702469_"  style="overflow:visible;"/>
				</clipPath>
				<g style="clip-path:url(#SVGID_00000157988478418218053600000002512582458074108570_);">
					<path class="st24" d="M3194.5,1032.1l-243.8-280.5c-12-13.8-62.7-24.5-113.9-24.5H959.5c-51.1,0-121.8,10.7-159.3,24.5
						l-57.9,21.2l-67.5-25.7l-233.3,14.5v121.5c91.6,18.7,160.8,43.9,196,72.7c-50.7,9.7-97.3,13.4-97.3,13.4v121.5h2553.9
						C3177.8,1090.8,3221.9,1063.6,3194.5,1032.1z"/>
					<path class="st25" d="M3094.2,969.3H540.3c77.4-25.3,123.3-56.9,123.3-91.1c0-46.9-86.5-88.8-222.1-116.6l358.7-131.6
						c37.5-13.8,108.1-24.5,159.3-24.5h1877.3c51.1,0,101.9,10.7,113.9,24.5l243.8,280.5C3221.9,942.1,3177.8,969.3,3094.2,969.3z"
						/>
				</g>
			</g>
			<path class="st24" d="M336.8,1002c2.3-0.8,4.8-1.6,7.5-2.2c-2.9-8.4-7.2-20.4-11.1-30.8c13.5-0.1,24.2,0.3,24.2,0.3
				s-6.6-24.5-13.1-43c-6.6-18.5-77.4-7.2-77.4-7.2l-108.2,40.5c0.5,1.9,2.8,53.7,2.8,53.7h0c-1.9,17.3,19,39.1,79.5,66.2
				c89.6,40.1,261.3,50.6,350.3,44c66-4.9,175.2-32.4,175.2-32.4V969.3C766.6,969.3,472.5,1036.3,336.8,1002z"/>
			<g>
				<path class="st26" d="M322.7,955.9c35.8,24.9,154,27.6,217.6,13.5c129.2,0.1,226.3,0,226.3,0s-68.9,32.2-134,44
					c-87.9,15.9-249.5,29.2-391.5-7.4c-201.5-51.9,22-120,87.2-123.6c4.5,11.4,11.8,31.6,16.1,44C320,931.8,310.7,947.5,322.7,955.9
					z"/>
				
					<linearGradient id="SVGID_00000179632253334906243000000018034948650474536836_" gradientUnits="userSpaceOnUse" x1="599.0873" y1="937.7202" x2="334.3137" y2="963.6003">
					<stop  offset="0" style="stop-color:#C8FCF9"/>
					<stop  offset="1" style="stop-color:#C8FCF9;stop-opacity:0"/>
				</linearGradient>
				<path style="fill:url(#SVGID_00000179632253334906243000000018034948650474536836_);" d="M322.7,955.9
					c35.8,24.9,154,27.6,217.6,13.5c129.2,0.1,226.3,0,226.3,0s-68.9,32.2-134,44c-87.9,15.9-249.5,29.2-391.5-7.4
					c-201.5-51.9,22-120,87.2-123.6c4.5,11.4,11.8,31.6,16.1,44C320,931.8,310.7,947.5,322.7,955.9z"/>
			</g>
		</g>
		<g id="ufo" style="clip-path:url(#SVGID_00000034063836752688789440000005111958214113180329_);">
			<ellipse class="st28" cx="1608.9" cy="673.9" rx="543.3" ry="117.8"/>
			<g>
				<defs>
					<path id="SVGID_00000121247843355555152020000003531316888028393652_" d="M2152.2,673.9c0,65.1-243.3,117.8-543.3,117.8
						s-543.3-52.8-543.3-117.8S1219.9,459,1608.9,459S2152.2,608.8,2152.2,673.9z"/>
				</defs>
				<clipPath id="SVGID_00000034790632058981770590000003017902196830880640_">
					<use xlink:href="#SVGID_00000121247843355555152020000003531316888028393652_"  style="overflow:visible;"/>
				</clipPath>
				<path style="clip-path:url(#SVGID_00000034790632058981770590000003017902196830880640_);fill:#00AA99;" d="M2176.8,676.1
					c0,68-254.3,123.2-567.9,123.2S1041,744.1,1041,676.1s161.3-224.6,567.9-224.6S2176.8,608.1,2176.8,676.1z"/>
				
					<path style="clip-path:url(#SVGID_00000034790632058981770590000003017902196830880640_);fill:none;stroke:#189B81;stroke-width:8;stroke-miterlimit:10;" d="
					M1750.4,585.6c0,0,89.6,72.7,122.4,125.5c32.8,52.8,5,80.6,5,80.6"/>
				
					<path style="clip-path:url(#SVGID_00000034790632058981770590000003017902196830880640_);fill:none;stroke:#189B81;stroke-width:8;stroke-miterlimit:10;" d="
					M1326.3,544.6c0,0-101.7,28.2-152.7,85c0,0,78.2,44.2,221.5,53.5c0,0,24.9-67.7,79.6-107.5L1326.3,544.6z"/>
				<path style="clip-path:url(#SVGID_00000034790632058981770590000003017902196830880640_);fill:#C9F2F4;" d="M2154.5,674.1
					c0,65.3-244.3,118.3-545.6,118.3s-545.6-53-545.6-118.3c0-6.6,1.6-14.1,4.8-22.2c35.7,57.9,264.2,102.5,540.8,102.5
					s505.1-44.6,540.8-102.5C2152.9,660,2154.5,667.5,2154.5,674.1z"/>
			</g>
			<g>
				<defs>
					<path id="SVGID_00000002368108543932282480000002273512570116724916_" d="M1931.6,532.8c-8.9,37-150,66.4-322.8,66.4
						c-172.7,0-313.8-29.4-322.8-66.4c0.1-3,0.3-6,0.5-9c10.7-168.7,150.9-302.2,322.3-302.2c171.4,0,311.6,133.5,322.3,302.2
						C1931.4,526.8,1931.5,529.8,1931.6,532.8z"/>
				</defs>
				<clipPath id="SVGID_00000168076180868190623880000010439544349067745677_">
					<use xlink:href="#SVGID_00000002368108543932282480000002273512570116724916_"  style="overflow:visible;"/>
				</clipPath>
				<path style="clip-path:url(#SVGID_00000168076180868190623880000010439544349067745677_);fill:#76A1B0;" d="M1932.1,529.1
					c0,1.2-0.2,2.5-0.5,3.7c-8.9,37-150,66.4-322.8,66.4c-172.7,0-313.8-29.4-322.8-66.4c-0.3-1.2-0.5-2.5-0.5-3.7
					c0-1.8,0.3-3.5,0.9-5.3c12.4-36.3,152-64.8,322.3-64.8c170.3,0,309.9,28.6,322.3,64.8C1931.8,525.5,1932.1,527.3,1932.1,529.1z"
					/>
				<path style="clip-path:url(#SVGID_00000168076180868190623880000010439544349067745677_);fill:#198984;" d="M1898.8,529.1
					c0,1.1-0.1,2.2-0.4,3.3c-8,33.2-134.6,59.5-289.5,59.5c-155,0-281.5-26.4-289.5-59.5c-0.3-1.1-0.4-2.2-0.4-3.3
					c0-1.6,0.3-3.2,0.8-4.7c11.1-32.5,136.3-58.2,289.1-58.2c152.8,0,278,25.6,289.1,58.2C1898.5,525.9,1898.8,527.5,1898.8,529.1z"
					/>
				<path style="opacity:0.58;clip-path:url(#SVGID_00000168076180868190623880000010439544349067745677_);fill:#FFCE80;" d="
					M1950.3,539.9c-9.4,39.1-158.7,70.2-341.4,70.2c-182.7,0-332-31.1-341.4-70.2c0.1-3.2,0.3-6.4,0.5-9.5
					c11.3-178.4,159.7-319.7,341-319.7c181.3,0,329.6,141.2,341,319.7C1950,533.5,1950.2,536.7,1950.3,539.9z"/>
				<path style="opacity:0.35;clip-path:url(#SVGID_00000168076180868190623880000010439544349067745677_);fill:#FFCE80;" d="
					M1571.2,228.8c-78.5,30.3-138.3,153.5-143.5,303.7c-0.1,3.1-0.2,51.7-0.3,54.8c0,0.1,0,0.2,0.1,0.4
					c-49.1-7.2-88.6-17.2-113.5-29.1c-3.3-3.5-5.4-7.1-6.2-10.8c0.1-3.2,0.3-6.3,0.5-9.4C1317.8,385.6,1427.2,260.4,1571.2,228.8z"
					/>
				<g style="opacity:0.4;clip-path:url(#SVGID_00000168076180868190623880000010439544349067745677_);">
					<path class="st37" d="M1555.6,578.9c-19.7,0.1-39.5-0.3-59.3-1.3c-19.8-1-39.6-2.5-59.4-5c-19.8-2.5-39.6-5.7-59.5-11
						c-5-1.3-9.9-2.9-14.9-4.6c-5-1.7-10-3.7-15-6.1c-5-2.5-10.1-5.2-15.1-9.3c-2.5-2-5-4.4-7.4-7.4c-2.3-3-4.6-6.8-5.9-11.4l0,0
						l-0.5-1.8l0.1-2.1c0.3-7.4,0.9-14.8,1.9-22.1l0.8-5.5c0.3-1.8,0.5-3.7,0.9-5.5l1-5.5c0.3-1.8,0.6-3.6,1.1-5.4
						c3.1-14.5,7.4-28.6,12.6-42.4c10.4-27.5,24.6-53.4,42.1-76.7c17.5-23.2,38.1-43.8,61.1-61c22.9-17.2,48.2-31,74.7-41
						c-25.4,12.5-48.8,28.7-69.4,47.5c-20.7,18.8-38.5,40.4-53,63.8c-14.5,23.4-25.6,48.7-32.9,74.9c-3.7,13.1-6.3,26.4-8.1,39.8
						c-0.5,3.3-0.8,6.7-1.2,10c-0.4,3.3-0.6,6.7-1,10.1c-0.3,3.3-0.4,6.7-0.7,10.1c-0.1,1.7-0.2,3.4-0.3,5c-0.1,1.7-0.2,3.3-0.2,5
						l-0.4-4l0,0c-0.1,0.2,0,0.8,0.5,1.8c0.5,1,1.4,2.2,2.6,3.4c2.3,2.5,5.7,5,9.2,7.4c7.3,4.7,15.8,8.7,24.5,12.3
						c17.6,7.1,36.3,12.7,55.2,17.5c18.9,4.8,38.2,8.7,57.6,12.1C1516.5,573.7,1536,576.5,1555.6,578.9z"/>
				</g>
				<g style="clip-path:url(#SVGID_00000168076180868190623880000010439544349067745677_);">
					<path class="st37" d="M1608.9,234.2c38.5-1.5,77.6,5.1,114,19l13.5,5.6c4.4,2.1,8.8,4.1,13.2,6.3c4.3,2.3,8.6,4.5,12.9,6.9
						c4.2,2.5,8.4,4.9,12.5,7.5c16.4,10.5,31.9,22.6,46,36.1c14.1,13.5,26.9,28.4,38.2,44.4c11.2,16,20.9,33.1,28.8,51
						c7.9,17.9,13.9,36.6,18.2,55.6c4.3,19.1,6.3,38.5,6.9,58l0,0.4l-0.1,0.4c-0.7,2.8-2,5.2-3.6,7.3c-1.6,2.1-3.4,4-5.2,5.7
						c-3.8,3.3-8,6-12.2,8.3c-8.6,4.6-17.6,8-26.6,10.9c-9.1,2.9-18.3,5.3-27.6,7.3c-9.3,2.1-18.6,3.7-28,5.2
						c9.2-2.2,18.4-4.5,27.5-7.1c4.5-1.3,9.1-2.7,13.6-4.1c4.5-1.4,9-3,13.4-4.6c8.8-3.3,17.4-7.1,25.4-11.8c4-2.3,7.7-5,11-8
						c3.2-3,5.8-6.6,6.6-10.3l-0.1,0.8c-2.2-38.1-11.1-75.7-26.9-110.2c-7.8-17.3-17.3-33.9-28.2-49.3
						c-10.9-15.6-23.2-30.1-36.8-43.3c-13.6-13.2-28.4-25.3-44.3-35.8c-15.8-10.5-32.6-19.7-50.2-27.1
						C1685.4,243.9,1647.4,235.7,1608.9,234.2z"/>
				</g>
				<g style="opacity:0.69;clip-path:url(#SVGID_00000168076180868190623880000010439544349067745677_);">
					
						<linearGradient id="SVGID_00000028319452194051782450000015815609749685947071_" gradientUnits="userSpaceOnUse" x1="1617.5973" y1="242.7223" x2="1236.6948" y2="508.1595" gradientTransform="matrix(0.9977 -6.717351e-02 6.717351e-02 0.9977 -20.1811 104.62)">
						<stop  offset="0" style="stop-color:#FFFFFF"/>
						<stop  offset="1" style="stop-color:#FFFFFF;stop-opacity:0.2"/>
					</linearGradient>
					<path style="fill:url(#SVGID_00000028319452194051782450000015815609749685947071_);" d="M1481.6,339.1
						c2.9,1.8,5.8,3.7,8.5,5.8c15.6-9.4,32.9-18.1,51.9-25.6c-7.4-8.6-14.4-17.7-21.5-26.5c-19,9.4-37.3,21-53.8,33.8
						C1471.7,330.6,1476.7,334.8,1481.6,339.1z"/>
					
						<linearGradient id="SVGID_00000071525891414398877210000008425527641631278977_" gradientUnits="userSpaceOnUse" x1="1613.858" y1="237.3566" x2="1232.9556" y2="502.7938" gradientTransform="matrix(0.9977 -6.717351e-02 6.717351e-02 0.9977 -20.1811 104.62)">
						<stop  offset="0" style="stop-color:#FFFFFF"/>
						<stop  offset="1" style="stop-color:#FFFFFF;stop-opacity:0.2"/>
					</linearGradient>
					<path style="fill:url(#SVGID_00000071525891414398877210000008425527641631278977_);" d="M1445.7,344.1
						c-8.8,8-16.7,16.3-23.7,24.5c-4.8,5.7-9.2,11.7-13.3,17.8c4.9,3.4,9.6,7.1,14.1,10.9c11.6-11.5,25.3-23.5,41.3-35.2
						C1457.8,356.3,1451.7,350.2,1445.7,344.1z"/>
					
						<linearGradient id="SVGID_00000084524230547929050940000005986923858371979665_" gradientUnits="userSpaceOnUse" x1="1622.9622" y1="250.421" x2="1242.0597" y2="515.8582" gradientTransform="matrix(0.9977 -6.717351e-02 6.717351e-02 0.9977 -20.1811 104.62)">
						<stop  offset="0" style="stop-color:#FFFFFF"/>
						<stop  offset="1" style="stop-color:#FFFFFF;stop-opacity:0.2"/>
					</linearGradient>
					<path style="fill:url(#SVGID_00000084524230547929050940000005986923858371979665_);" d="M1400.2,400.3
						c-16.7,29.2-25,56.5-25,56.5s11.6-20.8,36.2-47.5C1407.8,406.1,1404.1,403,1400.2,400.3z"/>
					
						<linearGradient id="SVGID_00000088116776019698416980000015376197943685843368_" gradientUnits="userSpaceOnUse" x1="1638.4801" y1="272.6892" x2="1257.5776" y2="538.1265" gradientTransform="matrix(0.9977 -6.717351e-02 6.717351e-02 0.9977 -20.1811 104.62)">
						<stop  offset="0" style="stop-color:#FFFFFF"/>
						<stop  offset="1" style="stop-color:#FFFFFF;stop-opacity:0.2"/>
					</linearGradient>
					<path style="fill:url(#SVGID_00000088116776019698416980000015376197943685843368_);" d="M1637.1,266.4c0,0-39.8-1.4-81.8,12
						c4.1,5.1,8,10.4,12.2,15.1c4.1,4.5,8.3,8.8,12.5,13.2c50-13.7,76.7-8.7,76.7-8.7L1637.1,266.4z"/>
				</g>
			</g>
			<path class="st44" d="M1633.8,222c-2.7,0.2-5.4,0.6-8.1,1c-2.7-0.5-5.4-0.8-8.1-1c2.7-0.2,5.3-0.4,8-0.5
				C1628.3,221.6,1631.1,221.8,1633.8,222z"/>
			<path class="st44" d="M1633.8,222c-2.7,0.2-5.4,0.6-8.1,1c-2.7-0.5-5.4-0.8-8.1-1c2.7-0.2,5.3-0.4,8-0.5
				C1628.3,221.6,1631.1,221.8,1633.8,222z"/>
			
				<linearGradient id="SVGID_00000104668037285716423810000011406788251104088766_" gradientUnits="userSpaceOnUse" x1="1931.0746" y1="315.2986" x2="1637.7665" y2="615.2427">
				<stop  offset="0" style="stop-color:#FFFFFF"/>
				<stop  offset="1" style="stop-color:#FFFFFF;stop-opacity:0.2"/>
			</linearGradient>
			<path style="fill:url(#SVGID_00000104668037285716423810000011406788251104088766_);" d="M1776.6,352.4c0,0,46.5,83.6,9.3,140.7
				c-37.2,57.1-150,74.3-229.6,67.7c0,0,136.7,23.7,236.2-4.7s84.9-66.9,84.9-66.9S1868.2,397.5,1776.6,352.4z"/>
			<path class="st46" d="M1459.9,692.4c-6.4,0.2-19-0.7-26-1.3c6.3-22.4,32.8-54.5,32.8-54.5l20.9,1
				C1487.5,637.6,1464.8,679.3,1459.9,692.4z"/>
		</g>
	</g>
</g>
</svg>
