<?xml version="1.0" encoding="utf-8"?>
<!-- Generator: Adobe Illustrator 26.0.3, SVG Export Plug-In . SVG Version: 6.00 Build 0)  -->
<svg version="1.1" id="Lake_x5F_4" xmlns="http://www.w3.org/2000/svg" xmlns:xlink="http://www.w3.org/1999/xlink" x="0px" y="0px"
	 viewBox="0 0 1920 1080" style="enable-background:new 0 0 1920 1080;" xml:space="preserve">
<style type="text/css">
	.st0{clip-path:url(#SVGID_00000025406335232954126010000002665773604456707970_);}
	.st1{fill:#FFE0E0;}
	.st2{fill:#57A198;}
	.st3{fill:url(#SVGID_00000156587090754516176170000014028703519700355774_);}
	.st4{fill:#EA949B;}
	.st5{opacity:0.5;}
	.st6{fill:none;stroke:#F5B0B3;stroke-width:10.821;stroke-miterlimit:10;}
	.st7{fill:#F5B0B3;}
	.st8{fill:none;stroke:#F5B0B3;stroke-width:18.8622;stroke-miterlimit:10;}
	.st9{fill:#FFFFFF;}
	.st10{fill:#CB4154;}
	.st11{fill:#E07984;}
	.st12{fill:#D55D6C;}
	.st13{fill:#79E0D5;}
	.st14{fill:url(#SVGID_00000012452230401600752570000004296341926256762507_);}
	.st15{fill:url(#SVGID_00000125603065346109386720000017823112149939895453_);}
	.st16{fill:none;stroke:#57A198;stroke-width:5;stroke-miterlimit:10;}
	.st17{opacity:0.5;fill:url(#SVGID_00000049927713428967894340000014590227040455189663_);}
	.st18{opacity:0.5;fill:url(#SVGID_00000073712226364679496180000011281875118042342536_);}
</style>
<g>
	<defs>
		<rect id="SVGID_1_" width="1920" height="1080"/>
	</defs>
	<clipPath id="SVGID_00000070797628281658357620000003550800728567052469_">
		<use xlink:href="#SVGID_1_"  style="overflow:visible;"/>
	</clipPath>
	<g style="clip-path:url(#SVGID_00000070797628281658357620000003550800728567052469_);">
		<rect id="sky_1_" x="-113.5" y="-21.8" class="st1" width="2090.7" height="1233.2"/>
		<g id="planet">
			<path class="st2" d="M2017.7,384.3c14.2-35.7-247.7-124.9-584.9-199.2c-337.2-74.3-622.1-105.6-636.2-69.9
				c-14.2,35.7,247.7,124.9,584.9,199.2C1718.7,388.8,2003.5,420.1,2017.7,384.3z M1392.8,286C1137,229.6,937.3,164.4,946.9,140.4
				c9.5-24,224.6,2.2,480.4,58.6c255.8,56.4,455.4,121.6,445.9,145.6C1863.7,368.6,1648.6,342.4,1392.8,286z"/>
			
				<linearGradient id="SVGID_00000082336482351926591930000014822003250559794057_" gradientUnits="userSpaceOnUse" x1="1139.2992" y1="326.9984" x2="1727.9395" y2="175.7033">
				<stop  offset="0" style="stop-color:#FFFFFF"/>
				<stop  offset="0.1271" style="stop-color:#FEF8F9"/>
				<stop  offset="0.3056" style="stop-color:#FAE6E8"/>
				<stop  offset="0.5146" style="stop-color:#F4C8CC"/>
				<stop  offset="0.7449" style="stop-color:#EC9FA5"/>
				<stop  offset="0.7984" style="stop-color:#EA949B"/>
			</linearGradient>
			<path style="fill:url(#SVGID_00000082336482351926591930000014822003250559794057_);" d="M1662.3,367.2
				c-59.6,143.3-224.1,211.1-367.4,151.5c-143.3-59.6-211.1-224.1-151.5-367.4c1.3-3.2,2.7-6.3,4.1-9.4
				C1210.4,5.1,1370.7-58.5,1510.8-0.2c111.9,46.6,177.8,157.1,172.9,271.6C1682.3,303.5,1675.4,335.8,1662.3,367.2z"/>
			<path class="st2" d="M796.6,115.2c-14.2,35.7,247.7,124.9,584.9,199.2c337.2,74.3,622.1,105.6,636.2,69.9l-144.5-39.8
				c-9.5,24-224.6-2.2-480.4-58.6c-179.1-39.5-330.7-83.3-402.2-114.2C931.1,146,857.7,140.2,796.6,115.2L796.6,115.2z"/>
		</g>
		<path id="r-bush" class="st4" d="M1380.6,582.5c-20.3,7.7-42.1-17.1-36.8-38.1c5.3-21,29-33.4,50.6-32.5
			c-14.2-2.8-30.3-7-36.8-19.9c-8.4-16.8,6.5-37.7,24.6-42.6c18.1-4.9,37.2,1.1,55,7.1c-20.3-5.5-25.6-35.6-11.9-51.6
			c13.7-16,38.4-18.3,58.2-11.2c19.8,7.1,35.8,21.8,51.1,36.1c-3.7-27,16.3-55.1,43-60.5s56,12.8,63.1,39.1
			c5.6-27.8,32.9-50.9,61.1-47.6c28.2,3.2,50,36.3,38.5,62.2c10.9-16.3,27.3-29.8,46.6-33.6s41.2,3.5,51.6,20.2
			c10.3,16.7,5.4,42.1-12.1,51.1c11.8-9.3,24.4-18.4,39.1-21.7c14.7-3.3,32,0.7,40.3,13.2c8.3,12.5,2.6,33.3-12.2,36.3
			c15.4-8.3,33.5-13.1,50.6-9.1s32.4,18.2,33.9,35.6c1.5,17.5-14.4,35.4-31.7,33c21.4-9.4,45.1,19,37.1,41
			c-8,22-35.6,31.6-58.5,26.7L1380.6,582.5z"/>
		<g id="bg-foliage">
			<g id="bg-plants">
				<g class="st5">
					<path class="st6" d="M75.1,260.4c0,0-30.5,85,3.3,266.1"/>
					<circle class="st7" cx="75.1" cy="260.4" r="56.5"/>
					<path class="st6" d="M177.1,329.7c0,0-102,30.3-92.8,164.4"/>
					<circle class="st7" cx="177.1" cy="329.7" r="32.5"/>
					<path class="st6" d="M-47.1,335.6c0,0,103.7,23.9,102.7,158.4"/>
					<circle class="st7" cx="-47.1" cy="335.6" r="32.5"/>
				</g>
				<g id="pink-plant-1" class="st5">
					<path class="st6" d="M654.6,306.3c0,0-74.8,50.6-154.2,216.8"/>
					<circle class="st7" cx="654.6" cy="306.3" r="56.5"/>
					<path class="st6" d="M696.1,422.4c0,0-100.2-35.7-171.9,78.1"/>
					<circle class="st7" cx="696.1" cy="422.4" r="32.5"/>
					<path class="st6" d="M511.5,295c0,0,69.6,80.5-10.5,188.5"/>
					<circle class="st7" cx="511.5" cy="295" r="32.5"/>
				</g>
			</g>
			<g id="white-plant">
				<path class="st8" d="M380.8,130.1c0,0-88,130.5-108.6,450.9"/>
				<circle class="st9" cx="380.8" cy="130.1" r="98.5"/>
				<path class="st8" d="M523.4,291c0,0-185.3,7.4-227.3,237.9"/>
				<circle class="st9" cx="523.4" cy="291" r="56.6"/>
				<path class="st8" d="M142.1,204.7c0,0,164.9,84.9,105.5,311.6"/>
				<circle class="st9" cx="142.1" cy="204.7" r="56.6"/>
			</g>
			<path id="l-bush" class="st4" d="M-67.1,610.9c-25.1,8.9-52-19.9-45.4-44.5c6.6-24.6,35.8-39,62.6-37.9
				c-17.5-3.3-37.4-8.1-45.4-23.2c-10.4-19.6,8-44,30.4-49.7c22.4-5.7,46,1.3,67.9,8.3c-25.1-6.4-31.6-41.6-14.7-60.2
				s47.5-21.4,71.9-13s44.2,25.5,63.2,42.2c-4.6-31.5,20.1-64.4,53.1-70.6c33-6.3,69.2,14.9,78,45.7c6.9-32.5,40.7-59.4,75.5-55.6
				s61.8,42.4,47.6,72.7c13.5-19,33.8-34.7,57.6-39.2c23.8-4.5,51,4.1,63.7,23.6c12.8,19.5,6.6,49.1-14.9,59.6
				c14.6-10.9,30.2-21.5,48.3-25.3c18.1-3.8,39.5,0.8,49.8,15.5s3.2,38.8-15,42.3c19-9.7,41.4-15.3,62.5-10.7
				c21.1,4.6,40,21.2,41.8,41.6c1.8,20.4-17.7,41.4-39.2,38.5c26.5-10.9,55.7,22.2,45.9,47.9c-9.8,25.7-44,36.9-72.2,31.2
				L-67.1,610.9z"/>
		</g>
		<g id="bg-coral">
			<path class="st10" d="M1555.6,573.5c12.6-14.3,23.9-44.6,19.5-63.1c-4.3-18.5-18-34.6-35.6-41.9c-9.7-4-20.3-5.4-30.2-8.8
				c-9.9-3.4-19.7-9.7-23.4-19.5c-7.1-19,11.4-42,1-59.4c-5.9-10-20.2-15.3-21-26.9c-0.8-12.2,14.2-19.5,17.7-31.2
				c4.7-15.7-12.1-28.8-18.5-43.8c-8.7-20.4,6.3-47.2,28.3-50.3c11.9-1.7,26,4.6,28.4,16.4c2.3,11.3-6.3,21.5-13.6,30.3
				c-7.3,8.9-14.1,21.2-8.5,31.2c5.1,9,15.9,12.8,22.7,20.7c12.8,15,2.5,30.7-3.2,42c-9.7,19.3-10.1,39,9.4,48.2s46.9-5.4,47.4-27
				c0.4-15.8-11.4-28.9-21.9-40.7c-10.5-11.8-21.1-26.6-17.8-42c4.1-19,27.6-29.8,29.7-49.1c1.4-13-7.8-24.7-17.4-33.7
				c-9.6-8.9-20.6-17.4-25.1-29.8c-7.9-21.9,11.8-47.4,35-49.2c23.2-1.8,45,16.1,52.2,38.2s1.8,46.9-9.7,67.1
				c-8.1,14.1-19.5,29.4-14.7,44.9c2.9,9.4,11.1,16.1,16.4,24.4c8.3,13,8.7,28.6,6.2,44.2c-2.7,16.7,18.1,26.7,29.3,14
				c0.1-0.1,0.2-0.2,0.3-0.3c8.7-10.1,11.6-24.8,7.4-37.5c-4.1-12.3-14-21.6-20.9-32.6c-6.9-10.9-10.5-26.4-2-36.1
				c8.5-9.7,26.2-10.5,30.2-22.7c3.8-11.7-8.6-22.3-10.7-34.5c-1.8-10.1,4.3-20.4,12.9-26c8.6-5.5,19.3-6.9,29.5-6.4
				c15.2,0.7,30.7,5.8,41.3,16.6c10.6,10.8,15.3,28.1,8.9,41.9c-5.9,12.5-18.9,19.6-30.5,27.1c-11.6,7.5-23.4,18-23.9,31.8
				c-0.7,18.5,19.4,33.5,17.2,51.9c-2.9,24.4-41.4,31.7-44.6,56.1c-1.4,10.8,4.9,22.6-0.2,32.3c-4.6,8.6-15.6,10.7-25.1,12.7
				s-20.6,6.7-21.9,16.3c-1.1,7.9,5.1,14.8,9.7,21.3c15.4,21.5,10.5,62.1-3.2,84.8L1555.6,573.5z"/>
			<path class="st10" d="M1456.6,518.8c-4.9-9.8,0.6-22.8,10.4-27.9c32.6-17,68.7,40.2,54.5,67.6c-10.6-6.5-10.1-22.6-24.3-26.8
				C1483.1,527.5,1465.2,536,1456.6,518.8z"/>
			<path class="st10" d="M1669.8,541.9c0.9-5,6.9-13.2,11.8-14.4s10.2-1,15.2-1.9c5-0.9,10.3-3.3,12.3-8c4-9.2-6.6-18.7-6-28.7
				c0.4-6.5,5.5-11.8,10.8-15.6c5.3-3.8,11.3-7.1,15-12.5c6.4-9.2,3.9-23-4.5-30.5c-8.4-7.5-21.2-8.9-31.7-5
				c-10.5,4-18.8,12.7-24,22.7c-6,11.6-7.8,26.7-0.2,37.4c1.8,2.5,4,4.6,5.5,7.3c1.5,2.6,2.3,6,0.9,8.7c-1.9,3.7-6.8,4.5-9.7,7.5
				c-3.7,3.8-3.2,9.7-3,15c0.3,5.2,1.7,9.8-2.9,12.3L1669.8,541.9z"/>
		</g>
		<path id="ground" class="st11" d="M1630.5,539c-118.3,15.4-235.5,46-354.8,41.4c-91-3.5-180.5-27.5-271.6-27.7
			c-126.8-0.3-249.5,45.5-376.2,51.4c-126,5.8-249.9-27.9-374.6-45.8s-260.6-17.8-366.8,48v8.7v101.6v495.4h2090.7V716.6V615v-26.8
			C1876.9,525.7,1748.8,523.7,1630.5,539z"/>
		<g id="r-crystal">
			<g>
				<polygon class="st7" points="1188,1034.4 1137.8,919.8 1153.3,872.5 1195.7,899.7 1213.6,1034.4 				"/>
				<polygon class="st9" points="1190.6,840.3 1153.3,872.5 1195.7,899.7 1234.2,865.8 				"/>
				<polygon class="st4" points="1234.2,865.8 1235.9,928.8 1238.5,1029.3 1213.6,1034.4 1195.7,899.7 				"/>
				<polygon class="st7" points="1235.9,928.8 1238.5,1029.3 1266.8,1029.3 1285.6,950.1 1260.7,915 				"/>
			</g>
			<g>
				<path class="st11" d="M1000.5,1036.4c36.6-29.8,85.2-27.7,128.8-19c43.6,8.7,88,22.6,131.5,12.2c18.9-4.5,36.9-13.5,55.8-17.6
					c39.6-8.6,79.7,4.4,118.1,17.3l-1.1,141.9l-434.2,3.8L1000.5,1036.4z"/>
				<g>
					<path class="st12" d="M1000.5,1036.4c3.5-3.1,7.2-6,11.1-8.6c3.9-2.6,8-4.9,12.3-7c8.5-4.2,17.6-7,26.9-9
						c9.3-1.9,18.8-2.8,28.2-3c9.5-0.2,18.9,0.4,28.3,1.4c4.7,0.5,9.4,1.1,14,1.9c4.7,0.7,9.3,1.6,13.9,2.5
						c9.2,1.8,18.3,3.7,27.4,5.6c9.1,1.9,18.2,3.7,27.3,5.1c9.1,1.5,18.2,2.7,27.3,3.1c9.1,0.5,18.2,0.5,27.1-0.5l6.7-0.9
						c1.1-0.1,2.2-0.4,3.3-0.6l3.3-0.7c4.4-0.8,8.8-2.1,13.1-3.4c8.7-2.7,17.4-6,26.4-8.9c4.5-1.5,9.1-2.8,13.7-4
						c1.2-0.3,2.3-0.5,3.5-0.8c1.2-0.3,2.4-0.5,3.5-0.7l3.6-0.6c1.2-0.2,2.4-0.4,3.6-0.5c9.5-1.1,19.1-1.3,28.6-0.3
						c9.5,0.9,18.8,2.6,27.9,4.8c18.3,4.6,35.8,11,53.2,17.9c-18-4.9-35.9-10.2-54.1-13.4c-18.1-3.3-36.7-4.7-54.6-1.8
						c-1.1,0.1-2.2,0.4-3.3,0.6l-3.3,0.7c-1.1,0.2-2.2,0.4-3.3,0.7c-1.1,0.3-2.2,0.5-3.3,0.9c-4.4,1.2-8.7,2.6-13,4.2
						c-8.7,3.1-17.3,6.5-26.4,9.5c-4.5,1.5-9.1,2.8-13.9,3.8l-3.5,0.7c-1.2,0.2-2.4,0.5-3.5,0.7l-7.1,1c-9.6,1-19.2,1.2-28.7,0.6
						c-19.1-1.1-37.6-4.9-55.8-9l-27.2-6.2c-9.1-2-18.1-3.8-27.2-5.2c-18.2-2.6-36.7-3.7-54.9-1
						C1033.3,1018.6,1015.6,1025.3,1000.5,1036.4z"/>
				</g>
			</g>
		</g>
		<g id="l-crystal">
			<polygon class="st4" points="855.6,938.4 878,930.5 882.2,953.7 860.4,988.2 844.6,981.5 			"/>
			<polygon class="st7" points="823.6,915.6 803.2,900.9 794.2,924.9 808.7,980 827.1,973.5 			"/>
			<polygon class="st4" points="822.4,973.4 817.9,878.2 851.3,868.6 871.3,902.6 845.5,980.5 			"/>
			<polygon class="st9" points="817.9,878.2 839.4,902.6 871.3,902.6 851.3,868.6 			"/>
			<polygon class="st7" points="839.4,902.6 871.3,902.6 845.5,980.5 831.3,976.1 			"/>
			<g>
				<path class="st11" d="M904.5,987.3c-29.3,4.6-57.1-18.7-86.6-16c-19,1.8-38.3,14.2-55.9,6.8v48h142.4L904.5,987.3z"/>
				<g>
					<path class="st12" d="M762,978.1c6,1.6,12,1.5,17.7,0.2c5.8-1.2,11.4-3.2,17.2-5.1c2.9-1,5.8-1.9,8.8-2.8
						c1.5-0.4,3-0.8,4.6-1.2l2.3-0.5l1.2-0.2l1.2-0.2c6.4-1,13-0.8,19.2,0.3c3.1,0.5,6.2,1.3,9.2,2.1c3,0.9,6,1.8,8.9,2.8
						c5.8,2,11.5,4.3,17.1,6.4c11.3,4.2,22.7,7.9,35,7.4c-3,0.8-6,1.3-9.1,1.5c-3.1,0.2-6.2,0.1-9.3-0.1c-6.2-0.6-12.3-2-18.2-3.6
						c-11.9-3.3-23.2-7.6-34.7-9.6c-2.9-0.5-5.7-0.8-8.6-0.9c-2.9-0.1-5.7-0.1-8.6,0.3c-5.7,0.6-11.5,2.2-17.4,3.6
						c-5.9,1.4-12,2.9-18.3,3.2c-0.8,0.1-1.6,0.1-2.4,0.1c-0.8,0-1.6,0-2.4,0l-2.4-0.2c-0.4,0-0.8-0.1-1.2-0.1l-1.2-0.2
						C767.7,980.7,764.7,979.5,762,978.1z"/>
				</g>
			</g>
		</g>
		<g id="lake">
			<g>
				<path class="st13" d="M971.5,554.8c19.1-15.9,22.5-47.4,7.1-67c-6.3-8-15.8-16.8-12.1-26.3c2.9-7.6,12.7-9.7,20.8-9.8
					c11.6-0.1,25.3,3,29.7,13.8c5.2,12.6-4.7,30.3,5.6,39.2c8.9,7.6,23.6-0.2,33.8,5.4c11.4,6.2,8.8,24.2,0,33.7
					c-8.8,9.5-21.6,14.7-30.4,24.2L971.5,554.8z"/>
				<path class="st13" d="M797.9,593.6c-12.4-17.4-11.4-49,2.2-67.1c5.6-7.4,13.6-15.4,11.9-25.1c-1.3-7.8-8.3-10.7-14.4-11.5
					c-8.6-1.1-19.1,0.9-23.6,11.2c-5.3,12.1,0.1,30.5-8.5,38.5c-7.4,6.8-17.5-2.2-25.7,2.5c-9.2,5.2-9.3,23.3-3.8,33.5
					c5.5,10.2,14.4,16.4,19.9,26.6L797.9,593.6z"/>
				<path class="st13" d="M1275.1,539c-7.2,9.6-10.9,22.9-10.9,35.9c0,9.7,2,19.1,6,26.8c0.8,1.6,1.7,3.1,2.7,4.5l-42.1,8.6
					c-2.8-5.3-6.6-9.5-10.3-13.7c-3.5-3.9-6.9-7.9-9.6-12.8c-1.1-2.1-2-4.6-2.7-7.2c-0.9-3.6-1.2-7.6-0.9-11.3h0
					c0.5-6.5,2.8-12.3,7.4-15c8.2-4.7,18.3,4.3,25.8-2.5c8.7-8,3.2-26.4,8.5-38.5c3.6-8.1,10.9-11.1,18.1-11.4c0.8,0,1.7,0,2.5,0
					c1,0,2.1,0.1,3.1,0.2c6.1,0.8,13.1,3.6,14.4,11.5c0.1,0.6,0.2,1.3,0.2,1.9C1287.6,524.7,1280.2,532.1,1275.1,539z"/>
				
					<linearGradient id="SVGID_00000139998177234780640690000000167360030884505478_" gradientUnits="userSpaceOnUse" x1="1228.89" y1="613.16" x2="1246.3" y2="613.16">
					<stop  offset="0" style="stop-color:#FFFFFF"/>
					<stop  offset="1" style="stop-color:#FFFFFF;stop-opacity:0"/>
				</linearGradient>
				<path style="fill:url(#SVGID_00000139998177234780640690000000167360030884505478_);" d="M1246.3,611.6l-15.5,3.2
					c-0.6-1.1-1.2-2.2-1.9-3.2C1234.6,611.9,1240.5,611.8,1246.3,611.6z"/>
				<path class="st13" d="M1720,655.5c-18,57.4-74.7,95.7-133.4,109.2c-58.6,13.5-119.8,6.6-179.6,0.2c-59.8-6.4-121.3-12-179.3,4
					c-62.1,17.1-115.4,57.8-176.5,78.1c-2.3,0.8-4.6,1.5-6.9,2.2c-100.6,30.6-209-0.7-306.4-40.3c-28.1-11.4-56.1-23.6-84.3-35.3
					c-69.6-28.8-140.3-54.6-215-58.5c-43.4-2.2-87.3,3.1-130.4-3.2c-43-6.3-87.4-27.4-106.1-66.6c-8.8-18.4-8.9-40.9-2.1-60.2
					c7.7-21.9,30-35.2,53-31.9c0.1,0,0.2,0,0.3,0c5.3,0.8,10.7,1.6,16.1,2.4c6.9,1.1,13.7,2.2,20.6,3.3c1.7,0.3,3.5,0.6,5.2,0.9
					c110.7,18.4,220.9,44.5,332.8,39.3c20.8-1,41.4-3,62-5.7c8-1,15.9-2.2,23.9-3.5c2.2-0.3,4.4-0.7,6.6-1.1
					c7.4-1.2,14.8-2.4,22.1-3.8c16-2.8,32-5.9,48-9c62.2-12.1,124.3-25,187.3-27.8c8.8-0.4,17.5-0.6,26.4-0.6
					c15.3,0,30.7,0.8,45.9,1.9c35.2,2.7,70.2,7.9,105.2,12.9c15.5,2.2,31,4.4,46.5,6.4c1.9,0.2,3.7,0.5,5.6,0.7h0
					c11.5,1.4,23.1,2.7,34.7,3.7c7.4,0.6,14.8,1.2,22.2,1.6c0,0,0,0,0,0c3.9,0.2,7.7,0.4,11.6,0.6c51.9,2,103.4-2.7,154.8-9.9
					c9.6-1.4,19.3-2.8,28.9-4.3c57-8.9,114-19.9,171.1-27.3l0.4-0.1c2.6-0.3,5.2-0.6,7.9-0.6c38.4-1.3,73.2,24.3,82.5,62.2
					C1726.1,615.3,1726.1,636.3,1720,655.5z"/>
				<circle class="st2" cx="1071.5" cy="451.8" r="26.5"/>
				
					<linearGradient id="SVGID_00000144327415884160275620000002099792066130652604_" gradientUnits="userSpaceOnUse" x1="690.037" y1="665.9115" x2="1304.8644" y2="665.9115">
					<stop  offset="0" style="stop-color:#FFFFFF"/>
					<stop  offset="1" style="stop-color:#FFFFFF;stop-opacity:0"/>
				</linearGradient>
				<path style="fill:url(#SVGID_00000144327415884160275620000002099792066130652604_);" d="M1227.7,697.5
					c2.8,15.4-17.9,26.9-36.8,32.7c-50.5,15.5-105.9,17.8-160.1,20c-31.4,1.3-62.8,2.5-94.2,3.8c-8.1,0.3-16.7,0.8-23.6,4.1
					c-6.9,3.3-11.4,10.5-7.4,16c3.2,4.4,10.2,6,16.6,7.2c35.6,6.3,72.8,8.6,106.2,19.8c6.4,2.1,13,5.4,17.7,9.3
					c2.9,2.4,1.8,7.1-1.8,8.1l0,0c-100.6,27.9-209-0.6-306.4-36.7c-13.7-5.1-27.4-10.3-41.1-15.6c-10.6-4.1-8.3-19.8,3.1-20.6
					c46.6-3,93.6-3.2,140.2-1.4c8.8,0.3,18,0.6,26.9,0.1c11.2-0.7,12.2-15.5,1.1-17.4c-26.1-4.6-52.3-8.5-78.7-11.8
					c-15-1.9-30.6-3.7-42.8-10.6c-12.2-6.9-19.5-20.5-11.6-30.4c7.4-9.4,23.9-11.2,38.2-11.7c69.6-2.4,141.4,4.3,208.4-7.9
					c15.5-2.8,15.9-22.9,0.6-26.2c-0.1,0-0.3-0.1-0.4-0.1c-30.3-6.3-62.8-2.6-93.5-7.8c-11.6-2-25.3-8.5-22.4-17.3
					c2.1-6.5,12.1-9.2,20.8-10.6c74.4-11.6,151.1-0.4,226.5,5.6c12,1,29.4-2.6,26.7-11.6c-1.3-4.4-7.3-6.8-12.6-8.6
					c-7.3-2.5-16.6-4.6-23.2-8.1c-4.7-2.5-1.4-5.6,3.5-6.8c5.9-1.4,13.9-0.4,20-0.4c9.1,0,18.1,0,27.2,0c0.1,0,0.2,0,0.4,0
					c15.5,2.2,31,4.4,46.5,6.4c1.9,0.2,3.7,0.5,5.6,0.7h0c0.5-6.5,2.8-12.3,7.4-15c8.2-4.7,18.3,4.3,25.8-2.5
					c8.7-8,3.2-26.4,8.5-38.5c3.6-8.1,10.9-11.1,18.1-11.4c0.8,0,1.7,0,2.5,0c1,0,2.1,0.1,3.1,0.2c6.1,0.7,13.1,3.3,14.4,10.4
					c0.2,1,0.2,2,0.2,2.9c-0.3,7.6-7.2,13.9-12.1,19.9c-3.6,4.4-6.3,9.6-8.1,15.2c-3.6,11.1-12.6,19.7-24,22.2
					c-0.3,0.1-0.6,0.1-1,0.2c-10.4,2.3-20.8,4.6-31.1,7c-0.8,0.2-1.6,0.4-2.4,0.6c-0.1,0-0.2,0-0.2,0.1c-5.7,1.4-12.5,4.2-11.7,8.6
					c0.4,2,2.3,3.6,4.4,4.9c5.7,3.6,12.4,5.5,19.5,6.5c2.7,0.4,5.6,0.6,8.4,0.8c5.7,0.3,11.6,0.2,17.4,0c2.8-0.1,5.5-0.2,8.2-0.3
					c5.1-0.2,10.4-0.2,15.7,0.1c13.9,0.9,27.3,4.1,34.7,12.6c0,0,0,0.1,0,0.1c-62.8,27.2-139.5,23.7-210.2,34.8
					c-3.4,0.5-6.9,1.2-9.3,3c-5,3.8-2.5,10.8,3.1,14c5.6,3.2,13,3.7,20,4.1c21.5,1.1,43,2.3,64.6,3.5c11.4,0.6,23,1.3,33.5,4.8
					C1216.9,682,1226.1,688.9,1227.7,697.5z"/>
				<circle class="st13" cx="1195.7" cy="512.4" r="11.6"/>
				<circle class="st2" cx="844.6" cy="660.8" r="12.2"/>
				<circle class="st2" cx="1011.5" cy="409.9" r="13.2"/>
				<circle class="st2" cx="833.3" cy="533.4" r="7.6"/>
				<circle class="st2" cx="636" cy="643.7" r="7.6"/>
				<circle class="st16" cx="1193.2" cy="448.7" r="21.9"/>
				<circle class="st16" cx="737.6" cy="660.8" r="24.4"/>
				<g>
					<path class="st13" d="M937.6,646.9c-5.3-14.2,2.2-32.8,16-39.4c5.7-2.7,13.2-5,14.1-11.3c0.7-5.1-3.8-8.9-8-11.2
						c-6.1-3.3-14.1-5.3-19.6-0.5c-6.5,5.6-6.5,18.3-14.5,20.4c-6.9,1.8-12.3-6.6-19.3-6.3c-7.8,0.3-11.8,11.1-10,18.8
						c1.8,7.8,7,14.2,8.8,21.9"/>
					<path class="st2" d="M937.6,646.9c-0.4-0.9-0.8-1.9-1.1-2.9c-0.2-1-0.6-2-0.7-3c-0.4-2-0.5-4.1-0.5-6.2c0.1-4.2,1-8.3,2.6-12.2
						c1.6-3.9,3.9-7.5,6.8-10.7c0.7-0.8,1.5-1.5,2.3-2.2c0.8-0.8,1.7-1.3,2.6-2c1.8-1.2,3.7-2.3,5.6-3.1c1.8-0.9,3.6-1.7,5.3-2.7
						c1.6-1,3.1-2,4-3.3c0.5-0.6,0.8-1.3,1-2c0.2-0.7,0.3-1.4,0.2-2.1c-0.2-1.4-0.9-2.8-2.1-4c-2.3-2.5-5.9-4.3-9.4-5.5
						c-3.5-1.1-7.2-1.5-10.1-0.2c-2.9,1.2-4.8,4.2-6.5,7.8c-0.8,1.8-1.6,3.7-2.5,5.6c-0.9,1.9-2,3.9-3.7,5.7c-0.4,0.5-1,0.8-1.4,1.2
						c-0.5,0.4-1.1,0.7-1.7,1c-0.6,0.3-1.2,0.5-1.8,0.7c-0.6,0.2-1.3,0.3-1.9,0.3c-2.7,0.1-5.1-0.8-7-1.8c-2-1-3.6-2.2-5.3-3.1
						c-1.6-1-3.3-1.7-4.9-1.9c-1.6-0.2-3.2,0.2-4.5,1.1c-1.4,0.9-2.5,2.3-3.4,3.9c-1.7,3.2-2.5,7.2-1.9,10.9
						c1.2,7.7,6.4,14.7,7.7,22.8c-2.4-7.8-8-14-10.1-22.4c-0.5-2.1-0.5-4.3-0.3-6.5c0.2-2.2,0.8-4.3,1.7-6.3c0.9-2,2.3-4,4.2-5.4
						c1.9-1.5,4.5-2.2,7-2.1c2.5,0.2,4.6,1.1,6.5,2.1c1.9,1,3.6,2.1,5.3,2.9c1.7,0.8,3.2,1.3,4.7,1.2c0.4-0.1,0.7-0.1,1.1-0.2
						c0.3-0.2,0.7-0.2,1-0.4c0.3-0.2,0.6-0.4,0.9-0.6c0.3-0.3,0.6-0.5,0.8-0.8c1.1-1.2,2-2.8,2.8-4.5c0.8-1.7,1.5-3.6,2.4-5.6
						c0.9-1.9,1.8-3.9,3.3-5.8c1.4-1.9,3.4-3.6,5.6-4.6c2.3-1,4.7-1.3,7.1-1.2c2.3,0.1,4.5,0.6,6.6,1.3c2.1,0.7,4.1,1.6,6,2.7
						c1.9,1.1,3.8,2.4,5.3,4.2c1.6,1.7,2.9,4.1,3.2,6.7c0.1,1.3-0.1,2.6-0.4,3.9c-0.4,1.2-1,2.4-1.8,3.4c-1.6,2-3.5,3.2-5.4,4.3
						c-1.9,1-3.9,1.8-5.7,2.6c-1.9,0.8-3.6,1.6-5.2,2.6c-0.8,0.5-1.6,1-2.3,1.6c-0.7,0.6-1.5,1.2-2.2,1.9c-2.8,2.6-5.1,5.8-6.9,9.4
						C936.6,630.7,935.3,639.1,937.6,646.9z"/>
				</g>
				
					<linearGradient id="SVGID_00000143594166269237946050000002451010149564716990_" gradientUnits="userSpaceOnUse" x1="1374.189" y1="696.6138" x2="1686.6724" y2="547.1984">
					<stop  offset="0" style="stop-color:#FFFFFF"/>
					<stop  offset="1" style="stop-color:#FFFFFF;stop-opacity:0"/>
				</linearGradient>
				<path style="opacity:0.5;fill:url(#SVGID_00000143594166269237946050000002451010149564716990_);" d="M1643.8,662.1
					c-27.7,11.8-55.9,23.6-86.7,29c-31.1,5.5-63.5,4.2-95.4,2.8l-145.4-6.2c-4.3-0.2-5-4.9-0.8-5.8c26.9-5.7,55.2-7,83.7-7.6
					c12.9-0.2,25.9-0.4,38.8-0.6c36.9-0.7,73.3-2.8,106.9-13.8c11.6-3.8,23.9-10.9,28.3-19.4c2-3.8,2.4-7.8,0.5-11.9
					c-0.6-1.3-1.3-2.4-2.2-3.5c-8.1-9.7-27.7-10.9-43.5-12.9c-7.2-0.9-15.8-3.7-16.2-9.4c-0.6-7.5,12.5-9.9,22.1-10.4
					c9.9-0.4,23.1-5.4,18.8-12.6c-1.1-2-3.3-3.4-5.8-4.3c-20.7-7.2-43.5-9.6-65.9-11.9c-7.2-0.7-14.4-1.5-21.6-2.2
					c57-8.9,114-19.9,171.1-27.3l0.4-0.1c2.6-0.3,5.2-0.6,7.9-0.6c4,1.2,7.8,2.7,11.6,4.4c10.1,4.7,19.5,12.6,18.6,21.7
					c-0.8,8.1-9.6,14.4-19,17.8c-9.4,3.5-19.8,4.9-29.4,8.1c-3.4,1.2-7,2.8-8.3,5.5c-0.8,1.6-0.6,3.4,0,5c0.9,2.7,2.5,4.9,4.7,6.8
					c6.5,5.6,17.8,8.2,28.7,11.1c12.2,3.3,23.8,6.9,27.7,15.6C1679.4,643.1,1660.2,655.1,1643.8,662.1z"/>
				<circle class="st2" cx="1263.9" cy="668.4" r="7.6"/>
				<g>
					<path class="st13" d="M1355.5,650c15.4-19.5,12-51.1-7.1-67c-7.8-6.5-19-13.1-17.4-23.1c1.3-8.1,10.3-12.2,18.3-14
						c11.3-2.5,25.3-2.3,32,7.2c7.8,11.2,1.7,30.7,13.7,37.2c10.3,5.6,23-5.1,34.2-1.8c12.4,3.7,13.7,21.8,7.1,32.9
						s-18,18.9-24.6,30"/>
					<path class="st2" d="M1355.5,650c3.9-5.4,6.4-11.6,7.7-17.9c1.3-6.4,1.3-13,0.1-19.3c-1.1-6.3-3.4-12.5-6.8-17.8
						c-0.4-0.7-0.9-1.3-1.4-2l-1.4-1.9c-1-1.2-2.1-2.4-3.1-3.6c-1.2-1.1-2.3-2.1-3.5-3.2c-1.3-1-2.6-2-3.9-3c-2.6-2-5.3-4-7.8-6.4
						c-2.5-2.4-4.8-5.3-6-9c-1.1-3.7-0.7-7.9,1.3-11.3c2-3.4,5.1-5.7,8.2-7.4c3.2-1.7,6.5-2.8,9.9-3.6c3.3-0.8,6.7-1.3,10.2-1.5
						c3.5-0.2,7,0,10.5,0.7c3.5,0.7,7,2.2,9.9,4.5c1.5,1.1,2.8,2.6,3.9,4.1c1.1,1.5,1.9,3.2,2.6,4.9c1.3,3.4,1.9,6.8,2.4,10.2
						c0.5,3.3,0.8,6.6,1.3,9.7c0.5,3.1,1.4,6.1,2.8,8.4c0.7,1.2,1.7,2.2,2.8,2.9c0.6,0.4,1.1,0.8,1.8,1l0.9,0.4l1,0.3
						c1.3,0.4,2.8,0.4,4.2,0.4c0.8-0.1,1.5-0.1,2.3-0.2c0.8-0.1,1.5-0.2,2.3-0.4c3.1-0.6,6.3-1.6,9.6-2.3c3.3-0.7,6.9-1.2,10.6-0.6
						c3.6,0.6,7.2,2.6,9.5,5.4c2.4,2.9,3.7,6.3,4.2,9.8c0.6,3.5,0.4,7-0.2,10.4c-0.6,3.4-1.8,6.7-3.5,9.7c-7.2,11.7-18.8,18.9-26,30
						c6.3-11.7,17.8-19.9,23.8-31.2c2.9-5.6,3.9-12.2,2.6-18.3c-0.6-3-1.8-5.9-3.8-8c-1.9-2.2-4.5-3.5-7.4-3.9
						c-2.9-0.5-5.9,0.1-9,0.8c-3.1,0.7-6.2,1.8-9.6,2.5c-0.8,0.2-1.7,0.3-2.6,0.5c-0.9,0.1-1.8,0.2-2.7,0.3
						c-1.8,0.1-3.7,0.1-5.6-0.4l-1.4-0.4c-0.5-0.2-0.9-0.4-1.3-0.6c-0.9-0.4-1.7-0.8-2.5-1.4c-1.6-1.1-3-2.5-4.1-4.1
						c-2.1-3.2-3-6.8-3.6-10.1c-0.6-3.4-0.9-6.7-1.4-9.9c-0.5-3.2-1.1-6.3-2.2-9c-1.1-2.8-2.7-5.1-5-6.8c-2.2-1.8-5-3-7.9-3.6
						c-2.9-0.6-6.1-0.8-9.2-0.7c-3.1,0.1-6.3,0.6-9.4,1.3c-3.1,0.7-6,1.7-8.7,3c-2.7,1.3-5,3.2-6.5,5.5c-1.4,2.3-1.7,5.2-1,7.8
						c0.4,1.3,1,2.6,1.9,3.8c0.9,1.2,1.8,2.4,2.9,3.5c2.2,2.2,4.7,4.3,7.3,6.3c1.3,1,2.6,2.1,3.9,3.2c1.3,1.2,2.5,2.4,3.7,3.6
						c1.1,1.3,2.3,2.6,3.3,4l1.4,2.1c0.5,0.7,1,1.4,1.4,2.2c3.4,5.9,5.6,12.5,6.5,19.1c0.9,6.7,0.5,13.5-1.2,20l-0.3,1.2
						c-0.1,0.4-0.3,0.8-0.4,1.2l-0.8,2.4c-0.2,0.8-0.6,1.6-1,2.3l-1,2.3c-0.3,0.8-0.8,1.4-1.2,2.2l-1.3,2.1
						C1357.6,647.4,1356.5,648.7,1355.5,650z"/>
				</g>
				
					<linearGradient id="SVGID_00000116936004003850804820000010206025267611176332_" gradientUnits="userSpaceOnUse" x1="269.4" y1="637.2993" x2="689.95" y2="637.2993">
					<stop  offset="0" style="stop-color:#FFFFFF"/>
					<stop  offset="1" style="stop-color:#FFFFFF;stop-opacity:0"/>
				</linearGradient>
				<path style="opacity:0.5;fill:url(#SVGID_00000116936004003850804820000010206025267611176332_);" d="M690,593.4
					c-0.2,3.1-1.4,6.3-3.5,9.6c-8.7,13.4-28,11.7-42,12.8c-18.7,1.4-37.4,2.4-55.9,5.5c-19.6,3.4-38.9,9.5-55.3,21
					c-2.7,1.9-5.6,4.3-3.8,8.8c0.5,1.3,1.3,2.5,2.4,3.5c18.5,17.9,46.5,18.5,71.7,22.1c12.5,1.8,25.9,5.6,36.8,12
					c15,8.9,6.9,32.2-10.4,29.8c-20.6-2.8-41.6-13-61.5-20.6c-57.9-22.1-121.5-22.9-183.5-22.9c-10.5,0-21.8-0.1-29.7-8.3
					c-3.8-3.9-5.6-9.6-3.8-14.8c2.7-8.1,11.5-10.1,19.3-11.4c25.3-4.1,50.6-8.2,75.9-12.3c9-1.5,21-7.9,17.1-16.1
					c-46.2-5.9-92.2-13.2-138-22.1c-22.7-4.4-49.4-12.8-56.1-34.5c6.9,1.1,13.7,2.2,20.6,3.3c1.7,0.3,3.5,0.6,5.2,0.9
					c110.7,18.4,220.9,44.5,332.8,39.3C648.7,598.2,669.4,596.2,690,593.4z"/>
				<circle class="st2" cx="1648.4" cy="660.8" r="13.2"/>
				<circle class="st2" cx="1611.8" cy="624.8" r="7.6"/>
			</g>
			<circle class="st2" cx="1343" cy="722.7" r="12.2"/>
		</g>
		<g id="fg-coral">
			<path class="st10" d="M347,1053c22.4-25.5,42.5-79.5,34.8-112.5s-32.1-61.7-63.5-74.6c-17.3-7.1-36.2-9.6-53.8-15.7
				c-17.7-6.1-35.2-17.2-41.7-34.7c-12.7-33.8,20.2-74.8,1.8-105.9c-10.5-17.8-36-27.2-37.4-47.9c-1.5-21.7,25.2-34.8,31.5-55.6
				c8.4-27.9-21.5-51.3-33-78.1c-15.5-36.4,11.3-84.1,50.5-89.7c21.3-3,46.3,8.2,50.6,29.3c4.1,20.1-11.2,38.3-24.2,54.1
				c-13,15.8-25.2,37.8-15.1,55.6c9.1,16.1,28.4,22.9,40.4,36.9c22.9,26.7,4.4,54.8-5.7,74.9c-17.3,34.4-17.9,69.4,16.8,85.8
				c34.8,16.4,83.6-9.7,84.5-48.1c0.7-28.2-20.3-51.5-39.1-72.6c-18.7-21-37.7-47.3-31.7-74.9c7.3-33.8,49.2-53.1,52.9-87.5
				c2.5-23.2-13.8-44.1-30.9-60c-17.1-15.9-36.7-31-44.6-53c-14-39,21-84.4,62.3-87.7c41.3-3.3,80.2,28.7,93,68.1
				c12.8,39.4,3.2,83.5-17.3,119.5c-14.3,25.2-34.7,52.3-26.2,80.1c5.1,16.8,19.7,28.6,29.1,43.4c14.8,23.2,15.5,50.9,11,78.7
				c-4.9,29.8,32.2,47.6,52.2,25c0.2-0.2,0.3-0.4,0.5-0.5c15.5-18,20.7-44.3,13.2-66.8c-7.3-21.9-24.9-38.5-37.3-58
				s-18.7-47-3.5-64.4c15.1-17.3,46.6-18.6,53.8-40.5c6.8-20.9-15.4-39.8-19.1-61.4c-3.1-18,7.6-36.4,22.9-46.3s34.4-12.4,52.6-11.5
				c27,1.3,54.6,10.3,73.6,29.6c19,19.3,27.3,50.1,15.8,74.6c-10.4,22.3-33.7,34.9-54.3,48.3c-20.6,13.4-41.7,32.1-42.6,56.6
				c-1.2,33,34.6,59.7,30.7,92.4c-5.2,43.6-73.8,56.5-79.5,100c-2.5,19.3,8.7,40.3-0.4,57.5c-8.1,15.3-27.8,19.1-44.8,22.6
				c-17,3.6-36.6,11.9-39,29c-2,14.2,9,26.3,17.4,37.9c27.5,38.4,18.7,110.7-5.7,151.2L347,1053z"/>
			<path class="st10" d="M501.7,1044.5c-14-14.9-13.4-54.7-1-71c10.7-14,28.5-20.2,43.4-29.7s28.1-27.4,21.4-43.8
				c-5.8-14.3-23.5-19.3-33.8-30.9c-16.7-18.8-4.9-54.2,19.8-59.1c6.9-1.4,14.3-0.7,20.9-3.5c18.6-7.9,16.5-34.3,22.6-53.6
				c9.8-31.2,45.5-46.7,78.1-49.3c17.5-1.4,38.5,1.8,46.4,17.4c3.1,6.1,3.6,13.1,4,20c1.2,20.3,1.7,41.9-8.7,59.4
				c-19.1,32.2-70.4,43.6-73.4,80.9c-2.2,27.4,25.6,51.2,21.4,78.4c-3.1,20.1-22.9,33.4-42.3,39.4c-19.4,6-40.4,7.2-58.8,15.9
				c-18.4,8.7-35.1,17.5-29.4,37L501.7,1044.5z"/>
			<path class="st10" d="M308.1,1043.2c-9.3-6.3-20.1-25.7-18.1-36.8c1.9-11.1,7.2-21.3,10-32.1c2.8-10.9,2.7-23.6-4.9-31.9
				c-14.7-16.3-43.4-3.8-62.8-14.1c-12.7-6.7-18.5-21.7-21.4-35.8c-2.8-14.1-3.9-29-11.3-41.4c-12.6-21.2-42.5-28.6-65.2-18.7
				c-22.6,9.9-37.1,34.3-38.7,58.9s8.2,49.1,23.5,68.5c17.8,22.6,46.3,39.9,74.5,34.4c6.6-1.3,12.9-3.8,19.6-4.4
				c6.7-0.7,14.1,0.9,18.2,6.2c5.6,7.2,2.9,17.7,6.2,26.2c4.2,10.7,16.5,15.3,27.2,19.5c10.7,4.2,21.1,5.5,21.9,17L308.1,1043.2z"/>
			<g>
				<path class="st11" d="M221.5,1051.2c14.7,15.7,40.4,12.7,60.5,4.8s39.9-19.6,61.3-17.8c15.6,1.3,29.9,9.8,45.4,10.8
					c29.6,1.9,57.2-23.4,86.3-17.6c17.6,3.5,31.7,17.9,49.5,20.2c11.3,1.5,22.6-2.1,33.9-3.1c47.8-4.2,95.1,37.3,140.1,20.7v56.5
					h-477V1051.2z"/>
				<g>
					<path class="st12" d="M698.5,1069.3c-4.8,2-9.8,3.4-15,4.2c-5.2,0.8-10.4,1-15.7,0.7c-5.2-0.2-10.4-1-15.6-2
						c-5.1-1-10.2-2.3-15.2-3.7c-10-2.8-19.9-6.1-29.7-9c-9.9-2.8-19.7-5.5-29.7-6.6c-5-0.6-9.9-0.8-14.9-0.6
						c-4.9,0.2-9.8,1-14.9,1.9c-5.1,0.9-10.4,1.9-15.9,2.1c-2.8,0.1-5.6,0-8.5-0.3c-2.8-0.4-5.6-1-8.3-1.9
						c-5.4-1.7-10.3-4.1-14.9-6.6c-4.6-2.5-9.1-5-13.6-7.1c-4.5-2.1-8.9-3.8-13.5-4.6c-4.6-0.8-9.3-0.8-14-0.1
						c-9.5,1.3-19,4.9-28.7,8.5c-4.9,1.8-9.8,3.7-14.9,5.2c-5.1,1.6-10.4,2.9-15.9,3.6c-2.7,0.3-5.5,0.5-8.3,0.4
						c-2.8-0.1-5.6-0.3-8.4-0.8c-5.5-0.9-10.6-2.5-15.6-4.1c-5-1.6-9.8-3.3-14.6-4.6c-2.4-0.7-4.8-1.2-7.2-1.6
						c-2.4-0.4-4.8-0.6-7.2-0.6c-4.8-0.1-9.7,0.5-14.5,1.6c-4.8,1.1-9.6,2.6-14.4,4.4c-9.6,3.5-19,7.8-29,11.3
						c-5,1.7-10.2,3-15.4,3.8c-5.2,0.8-10.5,1.3-15.8,0.9c-5.3-0.3-10.5-1.4-15.4-3.4c-4.9-2.1-9.2-5.2-12.6-9.1
						c3.7,3.6,8.3,6.3,13.1,7.8c4.8,1.6,9.9,2.2,15,2.1c10.1-0.2,20.1-2.7,29.5-6.5c9.4-3.8,18.6-8.6,28.3-12.7
						c4.8-2.1,9.9-3.9,15.1-5.2c5.2-1.4,10.6-2.3,16.2-2.4c2.8,0,5.5,0.1,8.3,0.4c2.7,0.4,5.4,0.9,8,1.5c5.2,1.3,10.2,2.9,15.1,4.4
						c4.9,1.5,9.7,2.9,14.4,3.5c2.4,0.4,4.7,0.5,7.1,0.5c2.4,0,4.7-0.2,7.1-0.5c9.6-1.3,19-4.9,28.6-8.6c4.8-1.8,9.7-3.7,14.8-5.4
						c5.1-1.7,10.4-3.1,15.9-3.8c5.5-0.7,11.3-0.8,16.9,0.3c5.7,1,10.9,3.1,15.8,5.4c4.9,2.3,9.4,5,13.9,7.4
						c4.5,2.4,8.9,4.6,13.4,6.1c2.2,0.8,4.5,1.3,6.8,1.7c2.3,0.4,4.6,0.5,7,0.4c4.8-0.1,9.7-0.9,14.9-1.6c5.1-0.8,10.5-1.6,15.9-1.7
						c5.4-0.1,10.8,0.4,16.1,1.2c10.6,1.6,20.7,4.6,30.6,8c9.9,3.4,19.5,7.2,29.2,10.5c9.7,3.3,19.6,6.2,29.7,7.5
						C678.1,1072.9,688.6,1072.4,698.5,1069.3z"/>
				</g>
			</g>
			<g>
				<path class="st12" d="M319.9,815.3c0.3,1.8,0.6,3.6,0.8,5.3c0.1,0.9,0.2,1.8,0.3,2.7l0.1,1.3l0.1,0.7l0,0.3c0,0.1,0,0.2,0,0.3
					c0.5,2,3,3.7,5.6,4.4c1.3,0.3,2.6,0.4,3.7,0.2c0.5-0.1,1-0.3,1.3-0.5c0.1-0.1,0.2-0.1,0.3-0.1l0.8-0.4c0.3-0.2,0.6-0.3,0.9-0.4
					c0.3-0.1,0.6-0.2,0.9-0.3c2.5-0.7,4.9-0.6,7.2-0.1c2.3,0.5,4.4,1.5,6.3,3c0.5,0.4,0.9,0.8,1.4,1.2l0.6,0.7l0.4,0.5l1.7,1.9
					l0.8,1c0.3,0.3,0.6,0.7,0.7,0.8c0.2,0.2,0.4,0.4,0.6,0.6c0.2,0.2,0.4,0.4,0.7,0.5c0.9,0.7,2.1,1.2,3.3,1.4
					c0.6,0.1,1.2,0.2,1.8,0.2c0.3,0,0.5,0,0.8,0c0.2-0.1,0.5-0.1,0.7-0.1c0.5-0.1,0.7-0.3,1-0.4c0-0.1,0.1-0.1,0.2-0.1
					c0.1-0.1,0.2-0.4,0.3-0.5l0.7-1.1c1-1.5,2-2.9,3-4.4c2.1-2.9,4.2-5.7,6.6-8.5c-0.8,3.5-1.8,7-2.9,10.3c-0.6,1.7-1.1,3.4-1.7,5
					l-0.5,1.2c-0.1,0.2-0.1,0.4-0.3,0.6c-0.2,0.3-0.3,0.6-0.5,1c-0.8,1.2-1.9,2.3-3.1,2.8c-2.4,1.3-4.8,1.5-7,1.4
					c-2.3-0.1-4.5-0.8-6.6-2c-0.5-0.3-1-0.6-1.5-1c-0.5-0.3-0.9-0.7-1.4-1.2c-0.5-0.5-0.7-0.7-1.1-1.1l-0.9-1l-1.8-2l-0.4-0.5
					l-0.3-0.3c-0.2-0.2-0.4-0.3-0.6-0.5c-1.7-1.4-4.5-2.1-6.3-1.8c-0.1,0-0.2,0-0.3,0.1c-0.1,0-0.2,0-0.3,0.1l-0.1,0
					c-0.1,0,0,0-0.2,0.1l-0.9,0.4c-1.2,0.5-2.5,0.7-3.8,0.8c-2.5,0.1-4.7-0.5-6.7-1.4c-2-0.9-3.8-2.2-5.2-4c-0.7-0.9-1.3-1.9-1.7-3
					c-0.1-0.3-0.2-0.6-0.3-0.9l-0.1-0.9c-0.1-0.6,0-1.2,0-1.9c0-0.2,0-0.3,0.1-0.4l0.1-0.3l0.1-0.6l0.3-1.3c0.2-0.9,0.4-1.7,0.6-2.6
					C318.8,818.7,319.3,817,319.9,815.3z"/>
			</g>
			<g>
				<path class="st12" d="M505,524.8c0.3,1.8,0.6,3.6,0.8,5.3c0.1,0.9,0.2,1.8,0.3,2.7l0.1,1.3l0.1,0.7l0,0.3c0,0.1,0,0.2,0,0.3
					c0.5,2,3,3.7,5.6,4.4c1.3,0.3,2.6,0.4,3.7,0.2c0.5-0.1,1-0.3,1.3-0.5c0.1-0.1,0.2-0.1,0.3-0.1l0.8-0.4c0.3-0.2,0.6-0.3,0.9-0.4
					c0.3-0.1,0.6-0.2,0.9-0.3c2.5-0.7,4.9-0.6,7.2-0.1c2.3,0.5,4.4,1.5,6.3,3c0.5,0.4,0.9,0.8,1.4,1.2l0.6,0.7l0.4,0.5l1.7,1.9
					l0.8,1c0.3,0.3,0.6,0.7,0.7,0.8c0.2,0.2,0.4,0.4,0.6,0.6c0.2,0.2,0.4,0.4,0.7,0.5c0.9,0.7,2.1,1.2,3.3,1.4
					c0.6,0.1,1.2,0.2,1.8,0.2c0.3,0,0.5,0,0.8,0c0.2-0.1,0.5-0.1,0.7-0.1c0.5-0.1,0.7-0.3,1-0.4c0-0.1,0.1-0.1,0.2-0.1
					c0.1-0.1,0.2-0.4,0.3-0.5l0.7-1.1c1-1.5,2-2.9,3-4.4c2.1-2.9,4.2-5.7,6.6-8.5c-0.8,3.5-1.8,7-2.9,10.3c-0.6,1.7-1.1,3.4-1.7,5
					l-0.5,1.2c-0.1,0.2-0.1,0.4-0.3,0.6c-0.2,0.3-0.3,0.6-0.5,1c-0.8,1.2-1.9,2.3-3.1,2.8c-2.4,1.3-4.8,1.5-7,1.4
					c-2.3-0.1-4.5-0.8-6.6-2c-0.5-0.3-1-0.6-1.5-1c-0.5-0.3-0.9-0.7-1.4-1.2c-0.5-0.5-0.7-0.7-1.1-1.1l-0.9-1l-1.8-2l-0.4-0.5
					l-0.3-0.3c-0.2-0.2-0.4-0.3-0.6-0.5c-1.7-1.4-4.5-2.1-6.3-1.8c-0.1,0-0.2,0-0.3,0.1c-0.1,0-0.2,0-0.3,0.1l-0.1,0
					c-0.1,0,0,0-0.2,0.1l-0.9,0.4c-1.2,0.5-2.5,0.7-3.8,0.8c-2.5,0.1-4.7-0.5-6.7-1.4c-2-0.9-3.8-2.2-5.2-4c-0.7-0.9-1.3-1.9-1.7-3
					c-0.1-0.3-0.2-0.6-0.3-0.9l-0.1-0.9c-0.1-0.6,0-1.2,0-1.9c0-0.2,0-0.3,0.1-0.4l0.1-0.3l0.1-0.6l0.3-1.3c0.2-0.9,0.4-1.7,0.6-2.6
					C503.9,528.3,504.4,526.5,505,524.8z"/>
			</g>
			<g>
				<path class="st12" d="M354.3,379.1c0.3,1.8,0.6,3.6,0.8,5.3c0.1,0.9,0.2,1.8,0.3,2.7l0.1,1.3l0.1,0.7l0,0.3c0,0.1,0,0.2,0,0.3
					c0.5,2,3,3.7,5.6,4.4c1.3,0.3,2.6,0.4,3.7,0.2c0.5-0.1,1-0.3,1.3-0.5c0.1-0.1,0.2-0.1,0.3-0.1l0.8-0.4c0.3-0.2,0.6-0.3,0.9-0.4
					c0.3-0.1,0.6-0.2,0.9-0.3c2.5-0.7,4.9-0.6,7.2-0.1c2.3,0.5,4.4,1.5,6.3,3c0.5,0.4,0.9,0.8,1.4,1.2l0.6,0.7l0.4,0.5l1.7,1.9
					l0.8,1c0.3,0.3,0.6,0.7,0.7,0.8c0.2,0.2,0.4,0.4,0.6,0.6c0.2,0.2,0.4,0.4,0.7,0.5c0.9,0.7,2.1,1.2,3.3,1.4
					c0.6,0.1,1.2,0.2,1.8,0.2c0.3,0,0.5,0,0.8,0c0.2-0.1,0.5-0.1,0.7-0.1c0.5-0.1,0.7-0.3,1-0.4c0-0.1,0.1-0.1,0.2-0.1
					c0.1-0.1,0.2-0.4,0.3-0.5l0.7-1.1c1-1.5,2-2.9,3-4.4c2.1-2.9,4.2-5.7,6.6-8.5c-0.8,3.5-1.8,7-2.9,10.3c-0.6,1.7-1.1,3.4-1.7,5
					l-0.5,1.2c-0.1,0.2-0.1,0.4-0.3,0.6c-0.2,0.3-0.3,0.6-0.5,1c-0.8,1.2-1.9,2.3-3.1,2.8c-2.4,1.3-4.8,1.5-7,1.4
					c-2.3-0.1-4.5-0.8-6.6-2c-0.5-0.3-1-0.6-1.5-1c-0.5-0.3-0.9-0.7-1.4-1.2c-0.5-0.5-0.7-0.7-1.1-1.1l-0.9-1l-1.8-2l-0.4-0.5
					l-0.3-0.3c-0.2-0.2-0.4-0.3-0.6-0.5c-1.7-1.4-4.5-2.1-6.3-1.8c-0.1,0-0.2,0-0.3,0.1c-0.1,0-0.2,0-0.3,0.1l-0.1,0
					c-0.1,0,0,0-0.2,0.1l-0.9,0.4c-1.2,0.5-2.5,0.7-3.8,0.8c-2.5,0.1-4.7-0.5-6.7-1.4c-2-0.9-3.8-2.2-5.2-4c-0.7-0.9-1.3-1.9-1.7-3
					c-0.1-0.3-0.2-0.6-0.3-0.9l-0.1-0.9c-0.1-0.6,0-1.2,0-1.9c0-0.2,0-0.3,0.1-0.4l0.1-0.3l0.1-0.6l0.3-1.3c0.2-0.9,0.4-1.7,0.6-2.6
					C353.2,382.5,353.7,380.8,354.3,379.1z"/>
			</g>
			<g>
				<path class="st12" d="M210.3,639.7c0.3,1.8,0.6,3.6,0.8,5.3c0.1,0.9,0.2,1.8,0.3,2.7l0.1,1.3l0.1,0.7l0,0.3c0,0.1,0,0.2,0,0.3
					c0.5,2,3,3.7,5.6,4.4c1.3,0.3,2.6,0.4,3.7,0.2c0.5-0.1,1-0.3,1.3-0.5c0.1-0.1,0.2-0.1,0.3-0.1l0.8-0.4c0.3-0.2,0.6-0.3,0.9-0.4
					c0.3-0.1,0.6-0.2,0.9-0.3c2.5-0.7,4.9-0.6,7.2-0.1c2.3,0.5,4.4,1.5,6.3,3c0.5,0.4,0.9,0.8,1.4,1.2l0.6,0.7l0.4,0.5l1.7,1.9
					l0.8,1c0.3,0.3,0.6,0.7,0.7,0.8c0.2,0.2,0.4,0.4,0.6,0.6c0.2,0.2,0.4,0.4,0.7,0.5c0.9,0.7,2.1,1.2,3.3,1.4
					c0.6,0.1,1.2,0.2,1.8,0.2c0.3,0,0.5,0,0.8,0c0.2-0.1,0.5-0.1,0.7-0.1c0.5-0.1,0.7-0.3,1-0.4c0-0.1,0.1-0.1,0.2-0.1
					c0.1-0.1,0.2-0.4,0.3-0.5l0.7-1.1c1-1.5,2-2.9,3-4.4c2.1-2.9,4.2-5.7,6.6-8.5c-0.8,3.5-1.8,7-2.9,10.3c-0.6,1.7-1.1,3.4-1.7,5
					l-0.5,1.2c-0.1,0.2-0.1,0.4-0.3,0.6c-0.2,0.3-0.3,0.6-0.5,1c-0.8,1.2-1.9,2.3-3.1,2.8c-2.4,1.3-4.8,1.5-7,1.4
					c-2.3-0.1-4.5-0.8-6.6-2c-0.5-0.3-1-0.6-1.5-1c-0.5-0.3-0.9-0.7-1.4-1.2c-0.5-0.5-0.7-0.7-1.1-1.1l-0.9-1l-1.8-2l-0.4-0.5
					l-0.3-0.3c-0.2-0.2-0.4-0.3-0.6-0.5c-1.7-1.4-4.5-2.1-6.3-1.8c-0.1,0-0.2,0-0.3,0.1c-0.1,0-0.2,0-0.3,0.1l-0.1,0
					c-0.1,0,0,0-0.2,0.1l-0.9,0.4c-1.2,0.5-2.5,0.7-3.8,0.8c-2.5,0.1-4.7-0.5-6.7-1.4c-2-0.9-3.8-2.2-5.2-4c-0.7-0.9-1.3-1.9-1.7-3
					c-0.1-0.3-0.2-0.6-0.3-0.9l-0.1-0.9c-0.1-0.6,0-1.2,0-1.9c0-0.2,0-0.3,0.1-0.4l0.1-0.3l0.1-0.6l0.3-1.3c0.2-0.9,0.4-1.7,0.6-2.6
					C209.2,643.1,209.7,641.4,210.3,639.7z"/>
			</g>
			<g>
				<path class="st12" d="M433.5,741.7c0.3,1.8,0.6,3.6,0.8,5.3c0.1,0.9,0.2,1.8,0.3,2.7l0.1,1.3l0.1,0.7l0,0.3c0,0.1,0,0.2,0,0.3
					c0.5,2,3,3.7,5.6,4.4c1.3,0.3,2.6,0.4,3.7,0.2c0.5-0.1,1-0.3,1.3-0.5c0.1-0.1,0.2-0.1,0.3-0.1l0.8-0.4c0.3-0.2,0.6-0.3,0.9-0.4
					c0.3-0.1,0.6-0.2,0.9-0.3c2.5-0.7,4.9-0.6,7.2-0.1c2.3,0.5,4.4,1.5,6.3,3c0.5,0.4,0.9,0.8,1.4,1.2l0.6,0.7l0.4,0.5l1.7,1.9
					l0.8,1c0.3,0.3,0.6,0.7,0.7,0.8c0.2,0.2,0.4,0.4,0.6,0.6c0.2,0.2,0.4,0.4,0.7,0.5c0.9,0.7,2.1,1.2,3.3,1.4
					c0.6,0.1,1.2,0.2,1.8,0.2c0.3,0,0.5,0,0.8,0c0.2-0.1,0.5-0.1,0.7-0.1c0.5-0.1,0.7-0.3,1-0.4c0-0.1,0.1-0.1,0.2-0.1
					c0.1-0.1,0.2-0.4,0.3-0.5l0.7-1.1c1-1.5,2-2.9,3-4.4c2.1-2.9,4.2-5.7,6.6-8.5c-0.8,3.5-1.8,7-2.9,10.3c-0.6,1.7-1.1,3.4-1.7,5
					l-0.5,1.2c-0.1,0.2-0.1,0.4-0.3,0.6c-0.2,0.3-0.3,0.6-0.5,1c-0.8,1.2-1.9,2.3-3.1,2.8c-2.4,1.3-4.8,1.5-7,1.4
					c-2.3-0.1-4.5-0.8-6.6-2c-0.5-0.3-1-0.6-1.5-1c-0.5-0.3-0.9-0.7-1.4-1.2c-0.5-0.5-0.7-0.7-1.1-1.1l-0.9-1l-1.8-2l-0.4-0.5
					l-0.3-0.3c-0.2-0.2-0.4-0.3-0.6-0.5c-1.7-1.4-4.5-2.1-6.3-1.8c-0.1,0-0.2,0-0.3,0.1c-0.1,0-0.2,0-0.3,0.1l-0.1,0
					c-0.1,0,0,0-0.2,0.1l-0.9,0.4c-1.2,0.5-2.5,0.7-3.8,0.8c-2.5,0.1-4.7-0.5-6.7-1.4c-2-0.9-3.8-2.2-5.2-4c-0.7-0.9-1.3-1.9-1.7-3
					c-0.1-0.3-0.2-0.6-0.3-0.9l-0.1-0.9c-0.1-0.6,0-1.2,0-1.9c0-0.2,0-0.3,0.1-0.4l0.1-0.3l0.1-0.6l0.3-1.3c0.2-0.9,0.4-1.7,0.6-2.6
					C432.4,745.2,432.9,743.4,433.5,741.7z"/>
			</g>
		</g>
		<g id="rock">
			<g>
				<path class="st4" d="M1691.1,820.1L1691.1,820.1l-13.7-54.6c0,0-62.5-8.1-128.7-12.7c-21.7-6.4-43.4-11.5-59-6.5
					c-2.8,0.9-5.5,2.1-8,3.5c-43-0.5-78.1,2.5-85.6,13.2c-22,31.2-19.3,69.2-19.3,69.2c0.7,11.2,11.7,20.8,23.7,24.5
					c13.2,4.1,27.5,3.3,41.3,4.2c23.6,1.6,46.7,8.5,66.7,20.1c11.1,6.4,21.6,14.4,34.5,16.8c26.2,4.9,50.2-14.5,76.6-18.3
					c16.1-2.3,33.3,1.1,48.3-4.7C1689.2,866.3,1696.5,841.4,1691.1,820.1z"/>
				<path class="st9" d="M1493.4,693.4c-5.8,2.1-11,5.7-16,9.3c-22.3,15.9-44.6,31.8-66.9,47.7c-9.1,6.5-19.1,14.3-20.3,25.4
					c-1.5,12.6,9.5,23.8,21.6,28s25.1,3.3,37.8,4.2c21.6,1.6,42.7,8.5,61,20.1c10.1,6.4,19.8,14.4,31.5,16.8
					c24,4.9,45.9-14.5,70.1-18.3c14.7-2.3,30.5,1.1,44.2-4.7c22.9-9.8,28.2-41.9,18-64.7c-15.6-34.7-45.8-39.8-78.8-43.5
					C1566.9,710.3,1520.2,684,1493.4,693.4z"/>
			</g>
			<path class="st4" d="M1629.7,905.8c-11.5,1-28.6,13.6-25,26.1c14.1,4.3,30,5.3,44.8,7.3c31.5-6.8,13.5-49.3-14.8-34.6
				C1634.6,904.5,1629.7,905.8,1629.7,905.8z"/>
			<path class="st4" d="M1706.5,794c-3.7-0.4-7.9,1.3-9.3,4.8c-1.5,4,1,8.3,3.7,11.6c2.7,3.3,5.9,6.8,5.8,11c0,2.4-0.8,5.6,1.3,6.8
				c0.7,0.4,1.5,0.4,2.3,0.5c4.2,0,8.3-0.8,12.4-1.6c2.5-0.5,5.2-1.1,7.1-2.9C1741.2,813.4,1714.8,795,1706.5,794z"/>
		</g>
	</g>
</g>
</svg>
