<?xml version="1.0" encoding="utf-8"?>
<!-- Generator: Adobe Illustrator 26.0.3, SVG Export Plug-In . SVG Version: 6.00 Build 0)  -->
<svg version="1.1" id="Moonscape" xmlns="http://www.w3.org/2000/svg" xmlns:xlink="http://www.w3.org/1999/xlink" x="0px" y="0px"
	 viewBox="0 0 1920 1080" style="enable-background:new 0 0 1920 1080;" xml:space="preserve">
<style type="text/css">
	
		.st0{clip-path:url(#SVGID_00000155116852386297808440000014428876709391841950_);fill:url(#sky_00000013901884369302542410000015058275226654342835_);}
	.st1{clip-path:url(#SVGID_00000155116852386297808440000014428876709391841950_);}
	.st2{fill:#0071BC;}
	.st3{fill:url(#SVGID_00000002354406665204087970000010028380028035222433_);}
	.st4{fill:#97C1D3;}
	.st5{fill:#85B2C1;}
	.st6{fill:#ABD0DD;}
	.st7{fill:#77A3AF;}
	.st8{opacity:0.5;}
	.st9{fill:#BFDCEE;}
	.st10{fill:#2083C4;}
	.st11{fill:#4094CD;}
	.st12{fill:#BC8558;}
	.st13{fill:#D39A62;}
	.st14{fill:#9FCAE6;}
	.st15{fill:#0064A5;}
	.st16{fill:#60A6D5;}
	.st17{fill:#47A3D6;}
	.st18{fill:#80B8DE;}
	.st19{fill:#8E7368;}
	.st20{fill:#A8623F;}
	.st21{fill:#DD8668;}
	.st22{filter:url(#Adobe_OpacityMaskFilter);}
	.st23{fill:url(#SVGID_00000024684026471477951320000000161637915986956417_);}
	.st24{mask:url(#planet-2_00000026862141943551084340000015393169970840472718_);fill:#9FCAE6;}
	.st25{filter:url(#Adobe_OpacityMaskFilter_00000047051572889788501770000002313035498402402973_);}
	.st26{fill:url(#SVGID_00000039117452058539548930000007831005311678868159_);}
	.st27{mask:url(#SVGID_00000080200184997391726130000000949305891117815687_);}
	.st28{fill:#AD9D87;}
	.st29{filter:url(#Adobe_OpacityMaskFilter_00000179632141063858865490000014595581901273862070_);}
	.st30{fill:url(#SVGID_00000017499517564835936080000001448534858387044235_);}
	.st31{mask:url(#SVGID_00000076605831083575317730000013310680411200858770_);fill:#9FCAE6;}
	.st32{filter:url(#Adobe_OpacityMaskFilter_00000062171529969245288140000013953294282524036759_);}
	.st33{fill:url(#SVGID_00000022526789138402657270000011258975832166906527_);}
	.st34{mask:url(#SVGID_00000031900188870979145220000006064357586339630218_);fill:#AD9D87;}
</style>
<g>
	<defs>
		<rect id="SVGID_1_" width="1920" height="1080"/>
	</defs>
	<clipPath id="SVGID_00000151543679279416474090000007993050126685414847_">
		<use xlink:href="#SVGID_1_"  style="overflow:visible;"/>
	</clipPath>
	
		<linearGradient id="sky_00000033327519220320144710000012539416966006282369_" gradientUnits="userSpaceOnUse" x1="956.0654" y1="-100.9439" x2="956.0654" y2="669.8214">
		<stop  offset="0" style="stop-color:#0071BC"/>
		<stop  offset="1" style="stop-color:#29ABE2"/>
	</linearGradient>
	
		<rect id="sky" x="-12.8" y="-94.3" style="clip-path:url(#SVGID_00000151543679279416474090000007993050126685414847_);fill:url(#sky_00000033327519220320144710000012539416966006282369_);" width="1937.7" height="1234.5"/>
	<g style="clip-path:url(#SVGID_00000151543679279416474090000007993050126685414847_);">
		<g id="_x2D_">
			<path class="st2" d="M865.5,582.7L991,560.9h71.7l41.8-38.9h79.6l21.9,30.3h101.5c0,0,27.9,6.4,51.8-30.3
				c23.9-36.8,47.8-84.5,47.8-84.5H1638c0,0,4,29.9,27.9,31.9c23.9,2,29.9-113.5,29.9-113.5h35.8c0,0,15.9,73.6,39.8,113.4
				c23.9,39.9,39.8-5.9,47.8-29.8l47.8,6c0,0-2,19.9,10,35.8s48,21.9,48,21.9v79.5H865.5z"/>
			
				<linearGradient id="SVGID_00000170272522846154470660000013794670273669458860_" gradientUnits="userSpaceOnUse" x1="1395.2289" y1="361.8534" x2="1395.2289" y2="590.793">
				<stop  offset="0" style="stop-color:#0071BC"/>
				<stop  offset="1" style="stop-color:#4094CD"/>
			</linearGradient>
			<path style="fill:url(#SVGID_00000170272522846154470660000013794670273669458860_);" d="M865.5,582.7L991,560.9h71.7l41.8-38.9
				h79.6l21.9,30.3h101.5c0,0,27.9,6.4,51.8-30.3c23.9-36.8,47.8-84.5,47.8-84.5H1638c0,0,4,29.9,27.9,31.9
				c23.9,2,29.9-113.5,29.9-113.5h35.8c0,0,15.9,73.6,39.8,113.4c23.9,39.9,39.8-5.9,47.8-29.8l47.8,6c0,0-2,19.9,10,35.8
				s48,21.9,48,21.9v79.5H865.5z"/>
		</g>
		<rect id="floor" x="-12.8" y="582.7" class="st4" width="1937.7" height="557.5"/>
		<g id="crater-4">
			<path class="st5" d="M1684.1,621.8c0,0-1.1,2.2-14.1,2.5c-2.1,0.1-4.5,0.1-7.3,0c-0.3,2.5-13,5.4-22.9,5.7c-0.9,0-1.9,0-2.8,0
				c-8.7-0.4-16.1-3.9-29.4-1.4c-1.5,0.3-2.9,0.5-4.4,0.7c-17.7,2.4-38,0.4-41.7-3.1c-5.2,0.1-9.5,0-13.1-0.3
				c-19.7-1.3-18.2-6.3-18.2-6.3s8,0,16.4-4.3c8.2-4.2,14.6-11.3,14.6-11.3l84.7,0c0,0,8.2,6.8,14.6,9.8
				C1665.7,616.3,1684.1,621.8,1684.1,621.8z"/>
			<ellipse class="st6" cx="1603.5" cy="604.8" rx="42.8" ry="5.6"/>
			<ellipse class="st7" cx="1603.5" cy="604.8" rx="35.1" ry="4.6"/>
			<path class="st7" d="M1567,614.9c-0.9,5.1-5.5,11.3-5.5,11.3c-5.2,0.1-9.5,0-13.1-0.3C1557.9,622.5,1567,614.9,1567,614.9z"/>
			<path class="st7" d="M1637,630c-8.7-0.4-16.1-3.9-29.4-1.4c-1.5,0.3-2.9,0.5-4.4,0.7c1.7-3.1,6.8-11.7,11.4-12.1
				C1619.8,616.7,1634.1,627.7,1637,630z"/>
			<path class="st7" d="M1670,624.3c-2.1,0.1-4.5,0.1-7.3,0c-10.3-5.2-14.5-11.8-14.6-12C1655.7,617.1,1664.2,621.5,1670,624.3z"/>
			<path class="st5" d="M1531.6,612.3c4.7,0,9.6,0,9.6,0s-2.1-2.4-3.6-2.5c-3.9-0.3-7.4-2.6-8.1-0.3
				C1529.3,610.3,1529,612.3,1531.6,612.3z"/>
		</g>
		<g id="crater-3_1_">
			<path class="st5" d="M1922.7,880.6c-14,3-34,4.8-61.1,4.8c-8.9,32.6-56.5,35.7-127.8,34.2c-34.7-0.7-74.9-2.5-119.1-2.6
				c-5.7,0-11.6,0.3-17.8,0.7c-38.9,2.9-86.8,12.5-126.8-1.7c-30.1-0.3-53.7-1.1-72.7-2.5c-43.8-3.4-63.5-10.6-83.7-23.4
				c-18.7,0-33.8-1.1-45.9-2.8c-45.4-6.5-48.1-22.6-35-30.2c0,0,36,0.3,73.9-28.2c36.9-27.8,66-74.7,66-74.7l382.4,0.2
				c0,0,37.2,44.8,66.1,64.8c23.6,16.4,101.9,18.9,127.7,38C1953.1,866.8,1946.4,875.5,1922.7,880.6z"/>
			<ellipse class="st6" cx="1563.9" cy="759.7" rx="193.2" ry="36.8"/>
			<ellipse class="st7" cx="1563.9" cy="759.7" rx="158.6" ry="30.2"/>
			<path class="st7" d="M1389.1,796.9c-0.2,0.4-2,3.7-18.4,33.8c-18.4,33.8-56.9,59.5-56.9,59.5c-18.7,0-33.8-1.1-45.9-2.8
				C1320.2,866.9,1387.6,798.4,1389.1,796.9z"/>
			<path class="st7" d="M1922.7,880.6c-14,3-34,4.8-61.1,4.8c0,0-54.4-26.6-80.3-68.1C1781.3,817.4,1871,869.1,1922.7,880.6z"/>
			<path class="st7" d="M1470.1,916.2c-30.1-0.3-53.7-1.1-72.7-2.5c10.4-11.8,54.6-60.2,70.3-45.5
				C1477.1,876.8,1470.1,916.2,1470.1,916.2z"/>
			<path class="st7" d="M1733.8,919.7c-34.7-0.7-74.9-2.5-119.1-2.6c-5.7,0-11.6,0.3-17.8,0.7c-0.5-18.3,18.3-65.6,31.6-66.4
				C1642.3,850.6,1710.5,903.3,1733.8,919.7z"/>
			<path class="st5" d="M1281,828.4c0,4.3-8.5,5.7-18.9,5.7c-10.4,0-18.9-1.4-18.9-5.7c0-4.3,18.1-11.1,28.5-11.1
				C1282.1,817.4,1281,824.2,1281,828.4z"/>
		</g>
		<g id="crater-2">
			<path class="st5" d="M1100.6,714c0,0-2.2,4.6-29.7,5.3c-4.4,0.1-9.5,0.1-15.3,0c-0.7,5.3-27.4,11.4-48.2,12c-2,0.1-3.9,0-5.8-0.1
				c-18.3-0.9-33.9-8.1-61.7-2.9c-3,0.6-6.2,1.1-9.3,1.5c-37.2,5.1-79.9,0.9-87.7-6.6c-10.9,0.2-20-0.1-27.6-0.6
				c-41.5-2.7-38.3-13.3-38.3-13.3s16.8,0.1,34.4-9c17.2-8.8,30.7-23.7,30.7-23.7l178,0.1c0,0,17.3,14.2,30.8,20.6
				C1061.7,702.5,1100.6,714,1100.6,714z"/>
			<ellipse class="st6" cx="930.9" cy="678.4" rx="89.9" ry="11.7"/>
			<ellipse class="st7" cx="930.9" cy="678.4" rx="73.8" ry="9.6"/>
			<path class="st7" d="M854.3,699.6c-2,10.6-11.5,23.7-11.5,23.7c-10.9,0.2-20-0.1-27.6-0.6C835.2,715.5,854.3,699.6,854.3,699.6z"
				/>
			<path class="st7" d="M1001.5,731.3c-18.3-0.9-33.9-8.1-61.7-2.9c-3,0.6-6.2,1.1-9.3,1.5c3.5-6.4,14.2-24.5,24-25.5
				C965.2,703.4,995.4,726.5,1001.5,731.3z"/>
			<path class="st7" d="M1070.9,719.3c-4.4,0.1-9.5,0.1-15.3,0c-21.7-11-30.5-24.9-30.7-25.3
				C1040.8,704.3,1058.5,713.4,1070.9,719.3z"/>
			<path class="st5" d="M779.9,694.1c9.8,0,20.1,0,20.1,0s-4.3-5-7.5-5.3c-8.1-0.7-15.6-5.5-17-0.7
				C774.9,690,774.3,694.1,779.9,694.1z"/>
		</g>
		<g id="spaceship">
			<g class="st8">
				<path class="st9" d="M581.2,112.8l4.3,0.9l4,0.9l7.9,1.8c5.2,1.2,10.4,2.4,15.6,3.7c10.3,2.5,20.6,5.2,30.8,8
					c10.2,2.8,20.4,5.7,30.5,8.7c10.1,3,20.2,6.2,30.3,9.4c20.1,6.5,40,13.5,59.9,21c19.8,7.4,39.4,15.4,58.8,23.8
					c19.4,8.4,38.7,17.4,57.6,26.9c18.9,9.6,37.6,19.7,56,30.5c18.4,10.8,36.4,22.2,53.8,34.5c8.7,6.2,17.3,12.5,25.8,19
					c8.4,6.6,16.8,13.3,24.9,20.3c2.1,1.7,4.1,3.5,6.1,5.3c2,1.8,4,3.6,6,5.4c3.9,3.7,7.9,7.3,11.8,11c3.8,3.7,7.9,7.6,11.9,11.8
					c3.9,4.2,7.7,8.5,11.4,13.2c7.2,9.3,13.9,19.7,18.6,31.9c2.3,6.1,4,12.7,4.8,19.5c0.8,6.8,0.6,13.9-0.5,20.8
					c-1.2,6.9-3.4,13.4-6.3,19.4c-2.9,6-6.4,11.4-10.3,16.2c-7.7,9.7-16.6,17.4-25.8,24.1c-9.2,6.7-18.7,12.3-28.3,17.3
					c-9.6,5-19.4,9.4-29.3,13.4c-19.8,7.9-39.8,14.3-60,19.9c-20.2,5.5-40.5,10.1-60.9,14.2c-10.2,2-20.4,3.8-30.6,5.6
					c-10.2,1.7-20.5,3.3-30.7,4.7c-20.5,2.8-41.1,5.2-61.7,6.8c10.1-2.2,20.1-4.5,30.2-6.9c10-2.4,20-4.9,30-7.5
					c19.9-5.2,39.7-10.8,59.3-16.9c19.6-6,39-12.6,57.9-19.9c19-7.2,37.7-15.2,55.4-24.3c8.9-4.6,17.5-9.4,25.8-14.6
					c8.3-5.2,16.1-10.8,23.2-16.9c7-6.1,13.2-12.6,17.8-19.5c2.3-3.4,4.1-6.9,5.4-10.3c1.3-3.4,2.1-6.8,2.4-10.2
					c0.6-6.7-0.8-13.3-4-20.2c-3.2-6.9-8.1-13.8-14-20.3c-3-3.3-6.2-6.5-9.5-9.6c-3.4-3.1-6.9-6.1-10.8-9.2
					c-3.8-3.1-7.8-6.1-11.7-9.1c-2-1.5-4-2.9-6-4.4c-2-1.5-4-2.9-6-4.3c-32.2-23-67.2-42.3-103.1-59.7c-18-8.7-36.3-16.7-54.9-24.2
					c-18.6-7.5-37.3-14.6-56.2-21.2c-9.5-3.3-19-6.5-28.5-9.6c-9.6-3.1-19.1-6.1-28.7-9c-9.6-2.9-19.3-5.7-28.9-8.4
					c-9.7-2.7-19.4-5.3-29.1-7.8c-9.7-2.5-19.5-5-29.2-7.3c-9.8-2.3-19.5-4.5-29.3-6.7c-9.8-2.2-19.6-4.2-29.3-6.1
					c-4.9-1-9.8-1.9-14.6-2.8l-7.2-1.3l-3.6-0.6l-3.3-0.5L581.2,112.8z"/>
			</g>
			<g>
				<g>
					<path class="st10" d="M576,171.7c6.4,7.4,19,18.1,35.4,16.8c16.4-1.2,23-5.1,23-5.1s-11-0.3-17.4-3.5
						c27.2-1.9,47.5-10.6,47.5-10.6s-23.7-15.1-34.3-19.8l14.4-0.6c0,0-13.2-8.4-24.1-12.1l5.9-1.6c0,0-23.9-8.7-44,4.1
						C562.4,152.1,570.6,165.4,576,171.7z"/>
					<path class="st11" d="M637.1,165.9c-23,8.9-40.2,5.3-40.2,5.3l7.4,8.3c-10.6-0.4-18.3-8.8-21.3-12.7c-3-3.9-4.2-7.4-3.5-10.6
						c0.8-4.2,4.9-7.8,8.1-10.1c5.5-4,11.5-6,16.7-5.8c8.2,0.3,15,4.6,18.4,7.5l-13.1,3.3C613.9,153.1,631.2,162,637.1,165.9z"/>
				</g>
				<polygon class="st2" points="598.7,125.4 585.2,193.1 561.5,177.2 570.7,131 				"/>
				<path class="st12" d="M457.3,72.3c51.9,10.4,126.3,40.3,126.3,40.3L566.3,199c0,0-80.2-1-132.1-11.4c-3.2-0.6-6.2-1.5-9.2-2.6
					c-42.4-15.4-66.4-72.5-66.4-72.5s43.5-43.7,89.2-41.4C450.9,71.3,454.1,71.7,457.3,72.3z"/>
				<path class="st13" d="M447.8,71.1L425,185c-42.4-15.4-66.4-72.5-66.4-72.5S402.1,68.8,447.8,71.1z"/>
				<circle class="st2" cx="436.4" cy="128.1" r="27.6"/>
				<circle class="st14" cx="436.4" cy="128.1" r="20.5"/>
				<path class="st15" d="M510,196.7c0,0,9.6,26.5,36.9,32s68.7-6.2,68.7-6.2L566.3,199L510,196.7z"/>
				<path class="st15" d="M530.7,93.1c0,0,19-20.8,46.4-15.3s61,32.2,61,32.2l-54.5,2.7L530.7,93.1z"/>
				<path class="st15" d="M626.9,166.2L626.9,166.2c-0.2,1.1-1.3,1.9-2.4,1.9c-11.6-0.7-69.5-4.6-88.7-11.7
					c-4.5-1.7-16.3-6.8-15.4-11.5c0.9-4.7,13.8-4.9,18.6-4.7c20.5,1,75.4,19.6,86.4,23.4C626.4,164,627.1,165.1,626.9,166.2z"/>
			</g>
		</g>
		<g id="midground_mountains">
			<g>
				<path class="st10" d="M1062.6,620.7c0,0-115.5,10.6-150,5.3c-34.5-5.3-71.7,0-71.7,0l-46.1-15l-121.2-39.4
					c0,0,32.3-15.2,52.1-29.4c10.8-7.7,24.7-15.8,26.2-41c0.4-6.8-3.8-20.6-8.7-34.4c0,0,0,0,0,0c-6.8-19-15.2-37.9-15.2-37.9
					l35.8-11.3l77,54.4c27.9,91.6,61,82.3,90.2,107.5C960.4,604.7,1062.6,620.7,1062.6,620.7z"/>
				<path class="st2" d="M750.5,441.1c0,0,24.1,51.5,28.1,56.1c4,4.6,53.8,80.3,53.8,80.3L799.2,472l-14.6-30.9H750.5z"/>
				<path class="st16" d="M747.4,386.7l-19.2,42.1c0,0,6,2.7,16.6,9.3s35.2,11.3,41.8,19.2s12.6,14.6,12.6,14.6H841
					c0,0,0.7-5.3-6.6-12.6c-7.3-7.3-36.5-33.2-44.5-49.8C781.9,393,747.4,386.7,747.4,386.7z"/>
				<path class="st2" d="M794.9,611l-121.2-39.4c0,0,32.3-15.2,52.1-29.4c10.8-7.7,24.7-15.8,26.2-41c0.4-6.8-3.8-20.6-8.7-34.4
					c0.6,1.3,20.6,43.8,20,47.7c-0.7,4,0,33.2,0,33.2s31.8,41.8,49.1,57.1C816.4,608.2,808.9,610.1,794.9,611z"/>
			</g>
			<g>
				<path class="st17" d="M886.1,647.2c0,0-39.3,5.5-78.5,7.2c-13.8,0.6-27.5,0.8-39.6,0.1c-6.2-0.4-12-1-17.4-1.7h0
					c-34.8-4.8-54.7-16.1-83.4-14.9c-33.2,1.3-81,8-81,8s42.5,19.9,73,31.8c30.5,12-50.4,26.5-88.9,22.6s-54.4-4-58.4,0.7
					c-1.5,1.7-1,4.7-1,8v0c-0.1,5.6-2.1,11.7-18.9,12.6c-26.5,1.3-83.6,0-83.6,0s3,26.2-35.5,27.5c-31.9,1.1-85.7,5.8-104.7-1.6
					c-3.9-1.6-6.3-3.6-6.8-6.3c-2.7-15.9,3-31.5-24.9-32.8c-14.7-0.7-34.9-0.1-54.2,0.6c-17.3,0.6-34,1.4-45.3,1.4
					c-24,0-77.6,3-98.7-10.3c9.3-12,19.8-22.2,19.8-22.2l-77,2.7V389.7l66.4-17.3l563.4-10.2c0,0,7.3,93.8,27.2,116.3
					C657.8,501.2,865.5,632.8,886.1,647.2z"/>
				<path class="st10" d="M462.1,398.7c0,0,9.3,77.9,11.9,86.5c2.7,8.6,17.3,68.4,38.5,92.2c21.2,23.9,44.5,55.1,73.7,68.4l40.5-4.8
					c0,0-81.6-64.8-92.2-75.5s-40.5-69.5-42.5-98.8c-2-29.3,11.3-77.5,11.3-77.5l-45.8-25.5l-98.9,4.6l24.6,18.2L462.1,398.7z"/>
				<path class="st10" d="M188.7,413.7c0,0-10,38.4-20.6,86.8s-40.5,96.9-60.4,124.1C87.8,651.8,58,677.7,58,677.7l-32.5,1.1
					c0,0,30.6-60.4,43.8-88.1s25.9-51.1,28.5-71.7c0,0,2,32.5-2,58.4c0,0,27.2-13.9,40.5-58.4s19.2-124.9,19.2-124.9l16.6-12.4h39.2
					L188.7,413.7z"/>
				<path class="st10" d="M107.1,393.6c0,0-0.7,45.2-4.6,64.5s-4.6,40.8-25.2,80.8s-51.7,140-51.7,140s-14,1.5-44.5,1.5
					c4.1-29.8,57.7-150.1,69.7-185.8c17.6-52.4,22.6-107.8,22.6-107.8l20.6-16.9l58.4,1.3L107.1,393.6z"/>
				<path class="st18" d="M-12.8,355.9h159.7l23.9,6.4h65.7l25.9-6.4h256.8c0,0,75.6,0,91.6,6.4c15.9,6.4-107.5,27-107.5,27
					s-33.8-7.7-43.8-9c-10-1.3-63.7,0-63.7,0s-1.3,5.1,21.9,9c23.2,3.9,43.8,6,44.5,9.4c0.7,3.4-34.5,9-61.1,9
					c-26.5,0-52.4,0.4-74.3,2.6c-21.9,2.1-79.6,7.3-79.6,7.3l-58.4-3.9c0,0,12.6-12,7.3-14.6c-5.3-2.6-15.9-4.3-29.2-4.7
					c-13.3-0.4-59.7-0.9-59.7-0.9l24.6-9.9c0,0-24.6-1.3-32.5-0.4s-25.9,3.4-25.9,3.4l-92.2,3L-12.8,355.9z"/>
				<polygon class="st10" points="247.1,417.6 251.7,483.3 279.7,414.7 				"/>
				<path class="st10" d="M274.3,668.4c-1.2,47.1-1.3,66.1-6.1,79c-3.9-1.6-6.3-3.6-6.8-6.3c-2.7-15.9,3-31.5-24.9-32.8
					c-14.7-0.7-34.9-0.1-54.2,0.6c20.4-18,51.9-48.7,61.5-73.6c14.6-37.8,27.2-73.7,27.2-73.7S275.6,616,274.3,668.4z"/>
				<path class="st10" d="M408.3,721.5c0,0-17.1-37.7-23.2-70.3c-7-37.1-7.3-62.4-7.3-62.4s66.4,124.8,84.9,132.7H408.3z"/>
				<path class="st10" d="M570.2,700.3c-38.5-4-54.4-4-58.4,0.7c-1.5,1.7-1,4.7-1,8L476,627.4c0,0,26.3,23.7,43.1,40.7
					C536,685.2,570.2,700.3,570.2,700.3z"/>
				<path class="st10" d="M586.2,452.1c0,0-0.7,36.8,0,57.2c0.7,20.4,6.6,58.3,14.6,73.5c8,15.3,32.5,28.1,32.5,28.1l27.9,8.4
					c0,0-27.7-28.5-43.1-71C602.6,505.9,586.2,452.1,586.2,452.1z"/>
				<path class="st10" d="M807.6,654.4c-13.8,0.6-27.5,0.8-39.6,0.1c-6.2-0.4-12-1-17.4-1.7h0l-19-62L807.6,654.4z"/>
			</g>
		</g>
		<path id="r-plant" class="st19" d="M1187.9,616.1c12.7-5,20.1-13.4,36.6-11.3c8.4,1.1,15.6,7.1,21.3,14.1l-0.8-13.1
			c-6.8-1.3-16.1-3.7-18.3-7.4c-3.6-6,4.2-5.8,4.2-5.8c-5.7-5.3-24.1-3.5-22.7-10c1.3-6.5,10.2-3.9,10.2-3.9s-11.2-5.7-2.7-10.8
			c8.6-5.1,20.9,4.2,26.6,13c0.4,0.6,0.8,1.3,1.2,2l-2-30.8c-9.8-9.7-21.2-13-21.2-13s2-9.1,12.8-3.6c1.7-1.7,4.9-2.8,10.5,0.1
			c2.2-4.8,5.8-9.1,10.1-9.1c4,0,7.6,4.4,10,9.1c5.3-2.8,8.4-2.1,10.2-0.6c10.2-4.7,12.1,4,12.1,4s-10.4,3-19.9,11.8l-1.5,23
			c0.8-1.6,1.6-3.1,2.5-4.4c5.7-8.8,18.1-18.1,26.6-13c8.6,5.1-2.7,10.8-2.7,10.8s8.9-2.6,10.2,3.9c1.3,6.5-17.1,4.8-22.7,10
			c0,0,7.9-0.2,4.2,5.8c-2.4,3.9-12.6,6.4-19.5,7.6l-1.5,22.4c5.1-9.8,12.5-19.1,22.4-20.2c23.2-2.6,31.1,6.4,44.4,7.3
			c0,0,2.4,10.1-18.4,9.8c0,0,6.5,11.5-4.7,12.8s-20-13.7-29.3-11.2c0,0,9.3,6.3,5,10c-3,2.6-12.9,5.7-20.6,9.8l-0.5,8
			c0,0-3.3,2.7-6.8,2.6c-3.1,0-5.8-2.6-5.8-2.6l-0.2-3.2c-5.6-2.9-9.8-6.8-12.8-8.3c-8.7-4.4-4-5.9-4-5.9
			c-8.5-4.5-10.2,8.4-21.3,7.1s-4.7-12.8-4.7-12.8C1183.5,620.4,1187.9,616.1,1187.9,616.1z"/>
		<g id="l-plant">
			<path class="st20" d="M621.2,846.3h-26.7l-13.4-206.7c-0.3-11.9,11.7-40.1,26.7-40.1c15.8,0,27,28.3,26.7,40.1L621.2,846.3z"/>
			<path class="st20" d="M601.8,745.5c0,0-9.9-36.7-21.9-55.3s-38.1-38.3-56.3-27.5c-18.1,10.8,5.6,22.9,5.6,22.9
				s-18.7-5.5-21.6,8.3s36,10,48,21.1c0,0-16.6-0.4-8.9,12.3C554.5,740,601.8,745.5,601.8,745.5z"/>
			<path class="st20" d="M610.1,769.7c0,0,9.9-36.7,21.9-55.3c12-18.7,38.1-38.3,56.3-27.5c18.1,10.8-5.6,22.9-5.6,22.9
				s18.7-5.5,21.6,8.3c2.8,13.7-36,10-48,21.1c0,0,16.6-0.4,8.9,12.3C657.4,764.2,610.1,769.7,610.1,769.7z"/>
			<path class="st20" d="M610.1,841.6c0,0-20.9-88.5-66.4-93.6c-49.1-5.5-65.7,13.6-93.7,15.5c0,0-5,21.3,38.9,20.7
				c0,0-13.8,24.3,9.8,27c23.6,2.8,42.2-28.9,61.8-23.6c0,0-19.7,13.4-10.5,21.1C559.1,816.5,597.7,826.8,610.1,841.6z"/>
			<path class="st21" d="M553,625.3c0,0-7,2.7-9.3,7.3c0,0,31.5,14,38.7,25.2c0,0,5.1,8,15.4,7.3c10.3-0.7,30.7,4.9,35.3-1.4
				c4.5-6.3,26.4-25.5,35.4-28.2c0,0,8.3-11.9-7.3-10.3s-26,20.3-54,14.7C579.2,634.3,553,625.3,553,625.3z"/>
			<path class="st20" d="M594.6,846.3c0,0,29.5-75.4,74.9-81.2c34.9-4.4,50.4,13.3,77.3,23.8c0,0,9.4,9.2-34.5,8.5
				c0,0,13.6,24.3-10,27c-23.6,2.7-27.2-24.5-45.1-15c0,0,10,3.1-8.4,12.4C638.2,827.2,621.2,846.3,594.6,846.3z"/>
			<g>
				<path class="st21" d="M594.8,665.1c0,0-5.2-34-25.5-45.5c-25.1-14.2-29.6,6.3-29.6,6.3S572.7,635.6,594.8,665.1z"/>
				<path class="st21" d="M623.5,665.1c0,0,5.2-34,25.5-45.5c25.1-14.2,29.6,6.3,29.6,6.3S645.6,635.6,623.5,665.1z"/>
				<path class="st21" d="M615.3,665.1c0,0-8.3-34,12-45.5c25.1-14.2,28.3,7,28.3,7S637.4,635.6,615.3,665.1z"/>
				<path class="st21" d="M600.5,665.1c0,0,8.3-34-12-45.5c-25.1-14.2-28.3,7-28.3,7S578.4,635.6,600.5,665.1z"/>
				<path class="st21" d="M605.3,665.1c0,0-29.3-48.2-1.8-48.2C634.6,617,605.3,665.1,605.3,665.1z"/>
			</g>
		</g>
		<g id="crater-1">
			<path class="st5" d="M741.3,936.4c-10,0.3-22.4,0-38-1.3c-30.4,10.5-58,19.4-86.1,21.6c-17.3,1.4-34.9,0.2-53.3-4.6
				c-15-4-18.6,8.4-40.7,14.4c-16.1,4.4-41.9,5.3-89.1-6c-0.2,0-0.4-0.1-0.7-0.2c-17.4,0.2-33.8,0.4-48.7,0
				c-40.7-1-69.7-5.7-75.3-20.8c-14.7,0.1-26-1-34.7-2.8c-31.5-6.6-28.4-22.6-28.4-22.6s27.3,0.2,56-21.4c27.9-21.1,50-56.6,50-56.6
				l289.6,0.2c0,0,28.1,33.9,50,49.1c17.9,12.4,89,38.6,89,38.6S781.4,935.2,741.3,936.4z"/>
			<ellipse class="st6" cx="497.1" cy="840.2" rx="146.3" ry="27.9"/>
			<ellipse class="st7" cx="497.1" cy="840.2" rx="120.1" ry="22.9"/>
			<path class="st7" d="M358.6,886.4c-15.9,31-49,53.1-49,53.1c-14.7,0.1-26-1-34.7-2.8C321.2,918.5,358.6,886.4,358.6,886.4z"/>
			<path class="st7" d="M741.3,936.4c-10,0.3-22.4,0-38-1.3c0,0-48-30.8-59.8-61.6C643.5,873.5,682.2,914.7,741.3,936.4z"/>
			<path class="st7" d="M434.2,960.5c-0.2,0-0.4-0.1-0.7-0.2c-17.4,0.2-33.8,0.4-48.7,0c0,0,2.6-10.5,35.4-26.8
				C430.6,928.4,435.6,940.8,434.2,960.5z"/>
			<path class="st7" d="M617.2,956.7c-17.3,1.4-34.9,0.2-53.3-4.6c-15-4-18.6,8.4-40.7,14.4c0.7-14,4-72.3,12.8-80.1
				C546,877.5,617.2,956.7,617.2,956.7z"/>
			<path class="st5" d="M841,900c0,6.2-12.7,6.9-28.3,6.9c-15.6,0-29.7-1.8-33.6-9.1c0-6.2,1.3-19.2,31.4-14.8
				C826,885.3,841,893.8,841,900z"/>
			<path class="st5" d="M221.9,946.5c-30.5,6-47.8,0-47.8,0s10.3-11.9,17.9-12.5c19.2-1.6,37.2-13,40.5-1.6
				C233.7,936.6,234.9,943.9,221.9,946.5z"/>
		</g>
		<defs>
			<filter id="Adobe_OpacityMaskFilter" filterUnits="userSpaceOnUse" x="1472.6" y="230.2" width="117" height="117">
				<feColorMatrix  type="matrix" values="1 0 0 0 0  0 1 0 0 0  0 0 1 0 0  0 0 0 1 0"/>
			</filter>
		</defs>
		
			<mask maskUnits="userSpaceOnUse" x="1472.6" y="230.2" width="117" height="117" id="planet-2_00000060028594432999826960000002602127999247346858_">
			<g class="st22">
				
					<radialGradient id="SVGID_00000165946814489739558320000002469538974297335446_" cx="1530.3486" cy="337.0914" r="83.4044" fx="1530.8473" fy="337.1987" gradientTransform="matrix(0.9429 -0.3332 0.3332 0.9429 18.6906 453.3506)" gradientUnits="userSpaceOnUse">
					<stop  offset="0.2701" style="stop-color:#000000"/>
					<stop  offset="0.3607" style="stop-color:#040404"/>
					<stop  offset="0.4522" style="stop-color:#101010"/>
					<stop  offset="0.5442" style="stop-color:#242424"/>
					<stop  offset="0.6365" style="stop-color:#414141"/>
					<stop  offset="0.7291" style="stop-color:#656565"/>
					<stop  offset="0.822" style="stop-color:#929292"/>
					<stop  offset="0.9133" style="stop-color:#C6C6C6"/>
					<stop  offset="1" style="stop-color:#FFFFFF"/>
				</radialGradient>
				<circle style="fill:url(#SVGID_00000165946814489739558320000002469538974297335446_);" cx="1531.1" cy="288.7" r="71.6"/>
			</g>
		</mask>
		
			<circle id="planet-2" style="mask:url(#planet-2_00000060028594432999826960000002602127999247346858_);fill:#9FCAE6;" cx="1531.1" cy="288.7" r="58.5"/>
		<g id="planet-1">
			<defs>
				
					<filter id="Adobe_OpacityMaskFilter_00000167393534943045327490000015548545312004974526_" filterUnits="userSpaceOnUse" x="1102.1" y="106.1" width="331" height="127.3">
					<feColorMatrix  type="matrix" values="1 0 0 0 0  0 1 0 0 0  0 0 1 0 0  0 0 0 1 0"/>
				</filter>
			</defs>
			
				<mask maskUnits="userSpaceOnUse" x="1102.1" y="106.1" width="331" height="127.3" id="SVGID_00000047764689515223582710000008623330858936903331_">
				<g style="filter:url(#Adobe_OpacityMaskFilter_00000167393534943045327490000015548545312004974526_);">
					
						<linearGradient id="SVGID_00000143618868149244685720000005878865136812954539_" gradientUnits="userSpaceOnUse" x1="1123.2603" y1="176.3162" x2="1244.0343" y2="135.5053" gradientTransform="matrix(0.9429 -0.3332 0.3332 0.9429 18.6906 453.3506)">
						<stop  offset="0" style="stop-color:#FFFFFF"/>
						<stop  offset="0.1572" style="stop-color:#FCFCFC"/>
						<stop  offset="0.2869" style="stop-color:#F1F1F1"/>
						<stop  offset="0.407" style="stop-color:#E0E0E0"/>
						<stop  offset="0.5213" style="stop-color:#C8C8C8"/>
						<stop  offset="0.6314" style="stop-color:#A9A9A9"/>
						<stop  offset="0.7385" style="stop-color:#828282"/>
						<stop  offset="0.843" style="stop-color:#545454"/>
						<stop  offset="0.9429" style="stop-color:#212121"/>
						<stop  offset="1" style="stop-color:#000000"/>
					</linearGradient>
					<polygon style="fill:url(#SVGID_00000143618868149244685720000005878865136812954539_);" points="1446.7,121.9 1094.4,246.4 
						1070.1,177.6 1422.3,53.1 					"/>
				</g>
			</mask>
			<g style="mask:url(#SVGID_00000047764689515223582710000008623330858936903331_);">
				<path class="st28" d="M1433.1,116.6c-7.1-20.2-86.9-10.4-178.2,21.8c-91.3,32.2-159.5,74.8-152.3,94.9l39.1-13.8
					c-5.4-15.4,46.6-47.9,116.3-72.5c69.7-24.6,130.6-32.1,136-16.7L1433.1,116.6z"/>
			</g>
			<defs>
				
					<filter id="Adobe_OpacityMaskFilter_00000167382057770976317150000009482152623649727409_" filterUnits="userSpaceOnUse" x="1165.7" y="68.4" width="199.5" height="199.5">
					<feColorMatrix  type="matrix" values="1 0 0 0 0  0 1 0 0 0  0 0 1 0 0  0 0 0 1 0"/>
				</filter>
			</defs>
			
				<mask maskUnits="userSpaceOnUse" x="1165.7" y="68.4" width="199.5" height="199.5" id="SVGID_00000160899180837818284490000009921389571439765664_">
				<g style="filter:url(#Adobe_OpacityMaskFilter_00000167382057770976317150000009482152623649727409_);">
					
						<radialGradient id="SVGID_00000057850930133371378200000014958375440035891356_" cx="1354.8821" cy="126.7962" r="142.2075" fx="1355.7324" fy="126.9792" gradientTransform="matrix(0.9429 -0.3332 0.3332 0.9429 18.6906 453.3506)" gradientUnits="userSpaceOnUse">
						<stop  offset="0.2701" style="stop-color:#000000"/>
						<stop  offset="0.3607" style="stop-color:#040404"/>
						<stop  offset="0.4522" style="stop-color:#101010"/>
						<stop  offset="0.5442" style="stop-color:#242424"/>
						<stop  offset="0.6365" style="stop-color:#414141"/>
						<stop  offset="0.7291" style="stop-color:#656565"/>
						<stop  offset="0.822" style="stop-color:#929292"/>
						<stop  offset="0.9133" style="stop-color:#C6C6C6"/>
						<stop  offset="1" style="stop-color:#FFFFFF"/>
					</radialGradient>
					<circle style="fill:url(#SVGID_00000057850930133371378200000014958375440035891356_);" cx="1265.4" cy="168.1" r="122.1"/>
				</g>
			</mask>
			
				<circle style="mask:url(#SVGID_00000160899180837818284490000009921389571439765664_);fill:#9FCAE6;" cx="1265.4" cy="168.1" r="99.7"/>
			<defs>
				
					<filter id="Adobe_OpacityMaskFilter_00000150783240845073430430000002059777629192056243_" filterUnits="userSpaceOnUse" x="1102.6" y="116.6" width="331" height="127.3">
					<feColorMatrix  type="matrix" values="1 0 0 0 0  0 1 0 0 0  0 0 1 0 0  0 0 0 1 0"/>
				</filter>
			</defs>
			
				<mask maskUnits="userSpaceOnUse" x="1102.6" y="116.6" width="331" height="127.3" id="SVGID_00000092428685617804682500000000042073032178054567_">
				<g style="filter:url(#Adobe_OpacityMaskFilter_00000150783240845073430430000002059777629192056243_);">
					
						<linearGradient id="SVGID_00000137133274888842178480000015353506842515681185_" gradientUnits="userSpaceOnUse" x1="1093.4557" y1="225.5911" x2="1361.9034" y2="134.8793" gradientTransform="matrix(0.9429 -0.3332 0.3332 0.9429 18.6906 453.3506)">
						<stop  offset="0" style="stop-color:#FFFFFF"/>
						<stop  offset="0.1572" style="stop-color:#FCFCFC"/>
						<stop  offset="0.2869" style="stop-color:#F1F1F1"/>
						<stop  offset="0.407" style="stop-color:#E0E0E0"/>
						<stop  offset="0.5213" style="stop-color:#C8C8C8"/>
						<stop  offset="0.6314" style="stop-color:#A9A9A9"/>
						<stop  offset="0.7385" style="stop-color:#828282"/>
						<stop  offset="0.843" style="stop-color:#545454"/>
						<stop  offset="0.9429" style="stop-color:#212121"/>
						<stop  offset="1" style="stop-color:#000000"/>
					</linearGradient>
					<polygon style="fill:url(#SVGID_00000137133274888842178480000015353506842515681185_);" points="1455.9,165.1 1112.7,286.4 
						1085.5,209.4 1428.7,88.1 					"/>
				</g>
			</mask>
			<path style="mask:url(#SVGID_00000092428685617804682500000000042073032178054567_);fill:#AD9D87;" d="M1394,130.4
				c5.4,15.4-46.6,47.8-116.3,72.5c-69.7,24.6-130.6,32.1-136,16.7l-39.1,13.8c7.1,20.2,86.9,10.4,178.2-21.8
				c91.3-32.2,159.5-74.8,152.3-94.9L1394,130.4z"/>
		</g>
		<g id="stars">
			<circle class="st14" cx="1659.1" cy="76.9" r="4.1"/>
			<circle class="st14" cx="98.6" cy="68.4" r="6.5"/>
			<circle class="st14" cx="221.9" cy="205.5" r="2.3"/>
			<circle class="st14" cx="48" cy="250.4" r="4.8"/>
			<circle class="st14" cx="393.3" cy="274.7" r="5.1"/>
			<circle class="st14" cx="310.2" cy="40.7" r="3.7"/>
			<circle class="st14" cx="1797.1" cy="243.9" r="3.1"/>
			<circle class="st14" cx="1469.5" cy="15.5" r="2.5"/>
			<circle class="st14" cx="1852" cy="83.3" r="6.5"/>
			<circle class="st14" cx="902.2" cy="68.4" r="4.2"/>
		</g>
	</g>
</g>
</svg>
