<?xml version="1.0" encoding="utf-8"?>
<!-- Generator: Adobe Illustrator 26.0.3, SVG Export Plug-In . SVG Version: 6.00 Build 0)  -->
<svg version="1.1" xmlns="http://www.w3.org/2000/svg" xmlns:xlink="http://www.w3.org/1999/xlink" x="0px" y="0px"
	 viewBox="0 0 1920 1080" style="enable-background:new 0 0 1920 1080;" xml:space="preserve">
<style type="text/css">
	.st0{clip-path:url(#SVGID_00000155827477951911541980000014795929255005356442_);fill:#BEDAF7;}
	.st1{clip-path:url(#SVGID_00000155827477951911541980000014795929255005356442_);}
	.st2{fill:url(#SVGID_00000071557279521044624620000015788608817862462609_);}
	.st3{fill:url(#SVGID_00000142890802526375847580000010578257256541598122_);}
	.st4{fill:url(#SVGID_00000158749541836228486620000004839759321557130414_);}
	.st5{fill:url(#SVGID_00000005264161965597233370000005931319833855698574_);}
	.st6{fill:#DEECFB;}
	.st7{fill:url(#SVGID_00000016067277522901585280000018284325728496779163_);}
	.st8{fill:url(#SVGID_00000119100083279503233500000001425573312417674920_);}
	.st9{clip-path:url(#SVGID_00000155827477951911541980000014795929255005356442_);fill:#98B4CA;}
	.st10{fill:#0D2041;}
	.st11{fill:#F46723;}
	.st12{fill:url(#SVGID_00000131354252548080453740000014973466278904833684_);}
	.st13{fill:url(#SVGID_00000150079857172497386190000009570015979864660361_);}
	.st14{fill:#396A93;}
	.st15{fill:#5E99C5;}
	.st16{fill:#4682B4;}
	.st17{fill:#2A6A9E;}
	.st18{fill:#B3B3B3;}
	.st19{fill:url(#SVGID_00000117637644802312073300000015836930055280746891_);}
	.st20{fill:url(#SVGID_00000055694949926138109390000001864364157788765358_);}
	.st21{fill:url(#SVGID_00000103237935189214553000000015856317228034590882_);}
	.st22{fill:url(#SVGID_00000012471883911452533410000017447278964187885969_);}
	.st23{fill:#4B505A;}
	.st24{fill:url(#SVGID_00000008107192085523547900000011342215514086660502_);}
	.st25{fill:#FFFFFF;}
	.st26{fill:url(#SVGID_00000106831825566056280030000000165627099607070889_);}
	.st27{fill:url(#SVGID_00000129926521723776948570000009561350434010858151_);}
	.st28{fill:url(#SVGID_00000072265996961952432700000017476811066225729725_);}
	.st29{fill:url(#SVGID_00000028320570271339300620000015336735926785333931_);}
	.st30{fill:url(#SVGID_00000084511560172457969060000004644479375693246855_);}
	.st31{fill:url(#SVGID_00000123413014464869318370000017585421301998735490_);}
	.st32{fill:url(#SVGID_00000170985440235603408000000016573303203236790914_);}
	.st33{display:none;}
	.st34{display:inline;}
	.st35{fill:#E46D1F;}
	.st36{fill:#02799E;}
	
		.st37{clip-path:url(#SVGID_00000138537841535543822550000017539578016811239580_);fill:none;stroke:#026684;stroke-width:4.2661;stroke-miterlimit:10;}
	
		.st38{clip-path:url(#SVGID_00000046303178801878908360000011276907407213876130_);fill:none;stroke:#026684;stroke-width:4.2661;stroke-miterlimit:10;}
	
		.st39{clip-path:url(#SVGID_00000043416552087287700620000000958200923045354158_);fill:none;stroke:#026684;stroke-width:4.2661;stroke-miterlimit:10;}
	.st40{fill:#DDEE64;}
	.st41{fill:#FD7922;}
	.st42{fill:#9FAC48;}
	.st43{clip-path:url(#SVGID_00000090293219799992294390000002155617063692444036_);fill:#754C24;}
	.st44{fill:none;stroke:#FD7922;stroke-width:2.5597;stroke-miterlimit:10;}
	.st45{fill:none;stroke:#FD7922;stroke-width:2.3431;stroke-miterlimit:10;}
	.st46{fill:none;stroke:#FD7922;stroke-width:1.7065;stroke-miterlimit:10;}
	.st47{fill:#754C24;}
	.st48{clip-path:url(#SVGID_00000016054068228769045510000017107796040396641667_);}
	.st49{fill:#ED6100;}
	.st50{fill:#7D33A3;}
	.st51{fill:#A1B200;}
	.st52{fill:#E2E229;}
	.st53{fill:none;stroke:#A1B200;stroke-linecap:round;stroke-miterlimit:10;}
	.st54{fill:#430B60;}
	.st55{fill:#FBFF43;}
	.st56{fill:#DAE78D;}
	.st57{fill:#1C1128;}
	.st58{fill:#953DBA;}
	.st59{fill:#FFA400;}
	.st60{fill:#AF4700;}
	.st61{fill:#77185E;}
	.st62{fill:#130E19;}
	.st63{fill:#933B00;}
	.st64{opacity:0.5;fill:#ED6100;}
</style>
<g id="Steel_x5F_10">
	<g>
		<defs>
			<rect id="SVGID_1_" width="1920" height="1080"/>
		</defs>
		<clipPath id="SVGID_00000001657651952910088030000010489484579127550624_">
			<use xlink:href="#SVGID_1_"  style="overflow:visible;"/>
		</clipPath>
		
			<rect id="sky_1_" x="-9.2" y="-60" style="clip-path:url(#SVGID_00000001657651952910088030000010489484579127550624_);fill:#BEDAF7;" width="1938.3" height="1200"/>
		<g id="clouds" style="clip-path:url(#SVGID_00000001657651952910088030000010489484579127550624_);">
			<g>
				
					<linearGradient id="SVGID_00000154392590048015416160000001062512194609581236_" gradientUnits="userSpaceOnUse" x1="1477.2655" y1="312.6328" x2="2088.9783" y2="312.6328">
					<stop  offset="0" style="stop-color:#FFFFFF;stop-opacity:0"/>
					<stop  offset="1" style="stop-color:#FFFFFF"/>
				</linearGradient>
				<path style="fill:url(#SVGID_00000154392590048015416160000001062512194609581236_);" d="M1477.3,386
					c53.3,0.2,106.6-2.9,159.5-9.4c13.2-1.6,26.4-3.4,39.6-5.4c13.2-2,26.3-4.3,39.2-7.1c6.5-1.4,12.9-3,19.3-4.7
					c6.4-1.7,12.7-3.7,19-5.8c6.2-2.2,12.4-4.5,18.5-7.2c6-2.7,12-5.5,17.8-8.7c23.3-12.6,44.5-28.8,67.1-43.3
					c5.6-3.6,11.4-7.1,17.3-10.4c5.9-3.3,11.9-6.2,18-9.2c12.3-5.5,24.9-10.2,37.7-14.3c12.9-3.9,25.9-7,39.1-9.6l9.9-1.8
					c3.3-0.6,6.6-1.1,9.9-1.6c6.6-1.1,13.2-1.9,19.9-2.7c13.3-1.6,26.6-2.8,39.9-3.8c13.3-0.9,26.6-1.8,40-2.4l0,0.5
					c-13.3,1.5-26.5,2.8-39.8,4.3c-13.2,1.5-26.5,3.1-39.6,5.1c-13.1,2.1-26.2,4.3-39.2,7.1c-13,2.9-25.8,6.1-38.4,10.1
					c-12.6,4-25,8.7-37,14.2c-5.9,2.9-11.9,5.7-17.7,8.9c-5.8,3.2-11.5,6.6-17.1,10.1c-22.5,14-44,30-67.9,42.6
					c-5.9,3.2-12,6-18.2,8.7c-6.2,2.6-12.5,4.9-18.9,7.1c-6.4,2.1-12.8,4-19.3,5.7c-6.5,1.7-13,3.2-19.6,4.6
					c-13.1,2.7-26.3,4.9-39.5,6.8c-13.2,1.9-26.5,3.6-39.7,5c-53.1,5.8-106.5,8.1-159.9,7.2L1477.3,386z"/>
			</g>
			
				<linearGradient id="SVGID_00000070090704098064430100000011357286116508660366_" gradientUnits="userSpaceOnUse" x1="1438.8156" y1="64.6778" x2="1924.8074" y2="64.6778">
				<stop  offset="0" style="stop-color:#FFFFFF"/>
				<stop  offset="1" style="stop-color:#FFFFFF;stop-opacity:0"/>
			</linearGradient>
			<path style="fill:url(#SVGID_00000070090704098064430100000011357286116508660366_);" d="M1924.2-81.1c-15.7-7.4-34-3.5-49.6,4.2
				c-15.6,7.7-29.5,18.9-44.9,26.9c-36.9,19.4-79.4,19.5-120.3,22.2c-37.2,2.5-74.3,7.4-111,14.7c-8,1.6-17.7,5.1-18.9,13.9
				c-1.3,9.9,9.4,16.2,18.3,18.4c7,1.6,23.8,2,32.2,6.5c2.3,1.2,1.4,5-1.1,5c-50.6,0.2-113.4,7.9-162.1,18.2
				c-12.2,2.6-26.9,8.5-28,22c-1.3,17,19.5,23.9,35.1,24.7c48,2.7,96,5.3,143.9,8c-1.4,10.2-12.2,15.5-21.6,16.3s-19.3-1-28.1,3.1
				c-10.2,4.7-16.4,22.8-2.6,27.7c1.5,0.5,3.1,0.8,4.8,0.9c40,2.3,79.8-11.1,119.7-7.3c1.6,0.2,3.2,0.7,4.6,1.6
				c8.8,5.9-0.1,19.6-9.1,24.2c-9.1,4.7-21,12.8-16.1,23.1c1.3,2.7,3.4,4.7,5.9,5.9c77.4,36.9,166.9-6.6,249.3,10.4L1924.2-81.1z"/>
			<g>
				
					<linearGradient id="SVGID_00000089535473801680573740000013465749412801043370_" gradientUnits="userSpaceOnUse" x1="81.9581" y1="385.7433" x2="984.9984" y2="385.7433">
					<stop  offset="0" style="stop-color:#FFFFFF"/>
					<stop  offset="1" style="stop-color:#FFFFFF;stop-opacity:0"/>
				</linearGradient>
				<path style="fill:url(#SVGID_00000089535473801680573740000013465749412801043370_);" d="M82,332.4c38.6-1.3,77.3-2.7,116-1.4
					c38.6,1.2,77.4,5.2,115.1,14.1c37.7,9,74.2,22.4,110.4,35.9c36.2,13.6,72.2,27.6,109.3,38.1c4.6,1.3,9.3,2.5,13.9,3.7l7,1.7
					l3.5,0.8l3.5,0.8c9.4,2.1,18.8,3.8,28.3,5.3c9.5,1.4,19,2.4,28.6,3.1c4.8,0.2,9.6,0.5,14.4,0.6c4.8,0,9.6,0.1,14.4,0
					c19.2-0.3,38.3-2.2,57.3-4.9c19-2.7,37.9-6.5,56.7-10.8c37.6-8.5,74.8-19.2,112.2-29l56.1-14.8c18.7-4.8,37.4-9.7,56.2-14.5
					l0.2,0.6c-18.5,5.6-37.1,11-55.6,16.5l-55.7,16.1c-9.3,2.7-18.6,5.4-27.9,8l-27.9,7.9c-18.6,5.2-37.3,10.3-56.2,14.8
					c-18.9,4.4-37.9,8.3-57.1,11.2c-19.2,2.8-38.7,4.5-58.1,4.7c-4.9,0-9.7-0.1-14.6-0.2c-4.9-0.2-9.7-0.5-14.6-0.8
					c-9.7-0.8-19.4-1.9-29-3.4c-9.6-1.6-19.2-3.4-28.6-5.6l-3.6-0.8l-3.5-0.9l-7.1-1.8c-4.7-1.3-9.4-2.5-14-3.9
					c-37.3-10.8-73.3-25.1-109.4-39c-36-13.9-72.3-27.4-109.7-36.7c-37.4-9.3-76-13.6-114.5-15.2c-38.6-1.6-77.3-0.7-115.9,0.2
					L82,332.4z"/>
			</g>
			
				<linearGradient id="SVGID_00000100377466490424606520000010663536922730133688_" gradientUnits="userSpaceOnUse" x1="-12.1887" y1="187.0043" x2="548.2398" y2="187.0043">
				<stop  offset="0" style="stop-color:#FFFFFF"/>
				<stop  offset="1" style="stop-color:#FFFFFF;stop-opacity:0"/>
			</linearGradient>
			<path style="fill:url(#SVGID_00000100377466490424606520000010663536922730133688_);" d="M219.7,98.9c-11,1.8-24.7,7.6-20.5,14.7
				c1.5,2.4,4.9,4.1,8.3,5.3c16.7,5.8,39.9,4.3,50.8,14.6c1.9,1.8,3.2,3.9,3,6c-0.6,5.7-10.8,8.1-19.1,9
				c-83.4,9-169.8-1.9-252.5,9.7c-3.5,23.5-2.5,47.3,3.2,70.6c43.7-9.1,90.9-10.2,135.5-3.3c11,1.7,24.3,6.3,23,13.8
				c-14.3,2.2-28.6,4.3-42.9,6.5c-4.3,0.7-9.4,1.7-10.7,4.6c-1.9,4.2,6,7.4,12.5,8c14.4,1.4,29.8-0.8,42.9,3.4
				c3.5,1.1,6.9,2.8,8,5.3c4.1,8.7-20.9,14.6-16.8,23.4c41,6.2,84.9,3.3,123.4-8.2c17.2-5.1,35.7-15.3,31.8-27.7
				c-2.4-7.5-12.4-12.6-20.4-18.1c-8.1-5.4-15-13.7-9.7-20.5c2.9-3.8,8.9-6,14.6-7.9c28.6-9.4,59.5-15.8,91-18.9
				c8-0.8,16.4-1.4,23.4-4.2s12.3-8.4,9.9-13.7c-2.5-5.7-12.2-8.2-20-11.1c-7.8-2.8-15.6-8.9-11.4-14.2c1.4-1.8,4-3,6.5-4.1
				c45.4-19.6,108.1-12.1,153.3-31.8c4.1-1.8,8.1-3.9,10.1-6.8c3.8-5.8-1.7-12.8-9.8-16c-8.1-3.2-17.8-3.6-27.2-3.9
				c-61.1-1.9-122.2-3-183.3-3.2c-4.6,0-10.9,1.2-10.3,4.3c0.4,2.1,4.1,3.1,7.3,3.6c13,2.2,26.3,4,39.3,6.3c4.2,0.7,4.2,5.3-0.1,6
				c-11.2,1.9-22.6,0.7-34.1-2.1c-20.9-5.1-41.7-5.6-63.8-4.4C249.8,94.8,234.6,96.4,219.7,98.9z"/>
			<circle class="st6" cx="848.3" cy="27.6" r="13.2"/>
			<circle class="st6" cx="617.4" cy="77.6" r="6.6"/>
			<circle class="st6" cx="704.2" cy="354.5" r="14.2"/>
			<circle class="st6" cx="1398.1" cy="7.7" r="7.1"/>
			<circle class="st6" cx="1157.3" cy="420.9" r="7.1"/>
			<circle class="st6" cx="1737.4" cy="304.6" r="15"/>
			<circle class="st6" cx="180.9" cy="4.5" r="15"/>
			<g>
				
					<linearGradient id="SVGID_00000121992231526371910330000008428464819337639831_" gradientUnits="userSpaceOnUse" x1="586.6785" y1="165.2587" x2="1254.3163" y2="27.8572">
					<stop  offset="0" style="stop-color:#FFFFFF"/>
					<stop  offset="1" style="stop-color:#FFFFFF;stop-opacity:0"/>
				</linearGradient>
				<path style="fill:url(#SVGID_00000121992231526371910330000008428464819337639831_);" d="M1246-12.4
					c-28.4,4.6-56.2,12.2-83.2,21.8c-27.1,9.6-53.4,21.2-79.3,33.6c-25.9,12.3-51.5,25.5-77.2,38.4c-25.7,12.9-51.7,25.4-78.2,36.6
					c-53,22.5-108,40.7-164.2,53.7c-28.1,6.5-56.4,11.8-85,15.8l-10.7,1.4l-5.4,0.7l-5.4,0.6l-10.7,1.2c-3.6,0.4-7.1,0.9-10.7,1.1
					c-7.2,0.6-14.3,1.2-21.5,1.8c-7.2,0.5-14.4,0.9-21.5,1.3l0-0.6c7.1-0.8,14.3-1.6,21.4-2.3c7.1-0.8,14.3-1.8,21.4-2.7
					c3.6-0.4,7.1-1,10.7-1.5L657,187l5.3-0.8l5.3-0.9l10.6-1.8c28.3-4.9,56.4-10.6,84.3-17.4c55.7-13.6,110.7-30.5,163.8-52.3
					c53.1-21.7,103.8-49.1,156-73.3c26.1-12.1,52.7-23.3,79.9-32.6c27.2-9.3,55.2-16.6,83.7-20.8L1246-12.4z"/>
			</g>
			<g>
				
					<linearGradient id="SVGID_00000003070646513257187370000012246652845347059351_" gradientUnits="userSpaceOnUse" x1="-62.373" y1="-18.4827" x2="901.5435" y2="-18.4827">
					<stop  offset="0" style="stop-color:#FFFFFF"/>
					<stop  offset="1" style="stop-color:#FFFFFF;stop-opacity:0"/>
				</linearGradient>
				<path style="fill:url(#SVGID_00000003070646513257187370000012246652845347059351_);" d="M-62.3,48.8c40.9,2.5,81.8,5,122.7,5.6
					c10.2,0.2,20.5,0.1,30.7,0.1c5.1,0,10.2-0.2,15.3-0.3l7.7-0.2c2.6-0.1,5.1-0.2,7.7-0.3l15.3-0.8l15.3-1.2
					c2.5-0.2,5.1-0.4,7.6-0.6l7.6-0.8l7.6-0.8L179,49l1.9-0.2l1.9-0.3c10.1-1.5,20.3-2.7,30.3-4.7l7.5-1.4c1.3-0.2,2.5-0.4,3.8-0.7
					l3.7-0.8l15-3.3c2.5-0.5,4.9-1.3,7.4-1.9l7.4-2l7.4-2c2.5-0.7,4.9-1.5,7.3-2.3l14.6-4.7c4.8-1.7,9.6-3.4,14.4-5.3
					c19.1-7.3,37.8-15.6,56.8-23.4c19.1-7.5,38.2-15,57.7-21.4C455-38.4,494.7-49,534.8-57.7l15.1-3.1c5-1,10-2.1,15.1-3l15.1-2.7
					c5.1-0.9,10.1-1.9,15.2-2.7l30.4-4.6l30.5-4c81.5-9.7,163.4-14,245.4-15.4l0,0.5c-81.8,4.5-163.6,9.6-244.7,20.2l-30.4,4.1
					l-30.3,4.7L566-58.4c-5,0.8-10,1.9-15.1,2.9l-15,3c-40,8.3-79.6,18.6-118.5,31.3C397.9-15,378.9-7.7,359.8-0.3
					c-19,7.7-37.8,15.8-57,23.1c-4.8,1.8-9.6,3.5-14.5,5.2l-14.7,4.6c-2.5,0.7-4.9,1.6-7.4,2.3l-7.5,2l-7.5,2
					c-2.5,0.6-5,1.4-7.5,1.9l-15.1,3.2l-3.8,0.8c-1.3,0.3-2.5,0.4-3.8,0.7l-7.6,1.3c-10.1,1.9-20.3,3.1-30.5,4.5l-1.9,0.3l-1.9,0.2
					l-3.8,0.4l-7.7,0.8l-7.7,0.8c-2.6,0.2-5.1,0.4-7.7,0.5l-15.3,1l-15.4,0.6c-2.6,0.1-5.1,0.2-7.7,0.3l-7.7,0.1
					c-5.1,0.1-10.2,0.2-15.4,0.2c-10.2-0.1-20.5,0-30.7-0.3c-41-0.9-81.9-3.8-122.7-6.6L-62.3,48.8z"/>
			</g>
		</g>
		<path id="moon" style="clip-path:url(#SVGID_00000001657651952910088030000010489484579127550624_);fill:#98B4CA;" d="
			M601.5,253.2c-4.2,4.5-9.3,8.3-15.2,11.2c-26.4,13-58.4,2.2-71.4-24.2c-13-26.4-2.2-58.4,24.2-71.4c5.9-2.9,12-4.6,18.1-5.3
			c-14.8,15.7-19.1,39.6-9,60.2C558.4,244.3,580,255.4,601.5,253.2z"/>
		<g id="planet" style="clip-path:url(#SVGID_00000001657651952910088030000010489484579127550624_);">
			<path class="st10" d="M1737.1,172.4c-7.9-39.9-205.4-43.7-441.2-8.5c-235.8,35.2-420.6,96.2-412.7,136.1
				c7.9,39.9,205.4,43.7,441.2,8.5C1560.2,273.3,1745,212.4,1737.1,172.4z M1318.2,276.8c-178.9,26.7-328.2,26.6-333.5-0.3
				c-5.3-26.9,135.4-70.3,314.3-97.1c178.9-26.7,328.2-26.6,333.4,0.3C1637.7,206.6,1497,250,1318.2,276.8z"/>
			<path class="st11" d="M1486.9,234.6c0,98.5-79.8,178.3-178.3,178.3c-98.5,0-178.3-79.8-178.3-178.3c0-2.2,0-4.4,0.1-6.5
				c3.4-95.4,81.9-171.8,178.2-171.8c76.9,0,142.5,48.7,167.5,117C1483.1,192.4,1486.9,213.1,1486.9,234.6z"/>
			
				<linearGradient id="SVGID_00000180330401891251881680000002047677474957841308_" gradientUnits="userSpaceOnUse" x1="650.4813" y1="236.272" x2="1308.6655" y2="236.272">
				<stop  offset="0" style="stop-color:#FFFFFF;stop-opacity:0"/>
				<stop  offset="0.8317" style="stop-color:#FFFFFF"/>
			</linearGradient>
			<path style="fill:url(#SVGID_00000180330401891251881680000002047677474957841308_);" d="M1019.8,298.6
				c-10.6,1.4-24.5,6.7-22.4,16.3c49.8,8.9,101.2,3.5,151.6-2c28.2-3.1,56.4-6.1,84.6-9.2c21.9-2.4,44.2-4.8,64.5-12.8
				c4.9-1.9,10.1-4.5,10.5-10.1c0.3-3.6-1.7-7.1-4.8-9.3c-6.3-4.6-14.5-4.3-22.1-4c-33.7,1.5-67.5,3-101.2,4.4
				c-3.3,0.1-6.5-1.7-7.4-4.7c-1.5-4.9,4.8-7.7,9.8-8.8c16.3-3.5,33-5.6,49.8-6.3c8.7-0.4,18.6-1,26-4.6c5.8-2.8,5.1-10.6-1-12.9
				c-7.5-2.7-16.5-2.9-24.7-2.8c-23.7,0.5-47.4,2.1-71,4.8c-15.8,1.8-33.9,3.6-45.2-7.1c-1.1-1.1-2-2.3-2.3-3.8
				c-1.4-6.1,6.5-9.2,12.8-10.4c27.5-5,55.3-8.4,83.2-10.3c23.2-1.6,47.9-2.4,66.9-15.2c2.1-1.4,3.9-3.2,5.1-5.3
				c5.8-10.3-5.5-19.1-15.9-23.2c-23.9-9.5-48.5-9.1-74-8.3c-13.9,0.4-27.8,0.1-41.7,0.6c-15.9,0.6-31.9,1.7-47.7,3.1
				c-17.8,1.6-35.5,3.5-53.2,5.4c-20.8,2.3-41.7,4.5-62.5,6.8c-39.5,4.3-79,8.6-118.1,15.5c-4,0.7-7.1,3.8-7.3,7.5
				c-0.2,4.5,4,6.2,7.8,7.3c30.6,8.6,64.9-1.5,95,9c1.7,0.6,3.3,1.8,4,3.3c2,4.4-3,7.4-7.3,9c-35.9,12.7-75.8,9-114.3,8.1
				c-61.4-1.4-123,5.2-182.4,19.6c-5.9,1.4-12.5,3.4-14.1,9.6c-1,4,0.7,8.1,4,10.9c7.3,6.1,17.1,5.6,26.2,5l162-10.8
				c3.7-0.2,7.2,2.1,7.8,5.5c0.8,4.8-5.3,6.9-10.1,7.7l-38,6.5c-1.7,0.3-3.3,1.2-4.3,2.5c-3.5,5,5,9,11.1,9.4
				c60.9,3.8,121.1,3.1,180.7-9.9c29.3-6.4,59.4-13.7,88.8-8c2.4,0.5,5,1.1,6.8,2.7s2.7,4.6,1.3,6.6c-0.9,1.3-2.5,1.8-4,2.3
				C1065,294.4,1038.7,296,1019.8,298.6z"/>
			<path class="st10" d="M883.3,300.1c7.9,39.9,205.4,43.7,441.2,8.5c235.8-35.2,420.6-96.2,412.7-136.1l-104.7,7.3
				c5.3,26.9-135.4,70.3-314.3,97.1c-125.2,18.7-236,24.3-292.9,16.7C977.9,287.2,931.3,305.1,883.3,300.1L883.3,300.1z"/>
			<path class="st11" d="M1476.1,173.3l-345.7,54.8c3.4-95.4,81.9-171.8,178.2-171.8C1385.5,56.3,1451.1,105,1476.1,173.3z"/>
		</g>
		<g id="bg-mountains" style="clip-path:url(#SVGID_00000001657651952910088030000010489484579127550624_);">
			
				<linearGradient id="SVGID_00000113319922446246906930000003887714529880172428_" gradientUnits="userSpaceOnUse" x1="954.738" y1="669.2652" x2="954.738" y2="354.4916">
				<stop  offset="0" style="stop-color:#7AB3EF"/>
				<stop  offset="1" style="stop-color:#7AB3EF"/>
			</linearGradient>
			<path style="fill:url(#SVGID_00000113319922446246906930000003887714529880172428_);" d="M-17.1,402.2
				c31.9-20.9,72.5-28,109.5-19.1c13.5,3.2,27,8.5,40.8,6.8c14-1.8,26.2-10.7,40.1-13.7c45-9.6,76.9,42.5,118.2,62.7
				c57.5,28.1,131.6-8.5,188.5,20.8c20,10.3,35.9,27.9,57,35.8c18.1,6.8,38.2,5.6,57.4,3.5c52.2-5.8,103.6-18.4,152.6-37.2
				c12.2-4.7,24.8-9.8,37.8-8.7c31.2,2.6,48.3,37.9,74,55.4c7.6,5.2,18.1,0.9,20-8.1c0-0.1,0.1-0.3,0.1-0.4
				c2.9-13.2,13.4-23.5,26.8-25.8c0.5-0.1,0.9-0.2,1.4-0.2c8.7-1.5,15.3-8.2,17.3-16.8c1.6-7.1,6.3-12,16.4-16.5
				c16.9-7.6,36.1-7.6,54.6-7.5c38.1,0.3,86.2,7.7,96.3,44.5c3,10.7,2.2,23.3,9.8,31.4c5.4,5.8,22.5,2.5,29.9-3.2
				c4.6-3.6,10.9-4.2,16.3-1.9c45.5,19.3,91.2,34.4,128.4,1.8c14.2-12.4,31.5-32,47.4-21.8c4.7,3,8.1,8.4,13.6,9.3
				c6.1,1,11.2-4.1,16.4-7.6c28-18.8,62.9,9.1,96,15.7c32.3,6.5,64.5-8.5,96.7-15.8c32.1-7.4,73.2-2.9,87.3,26.8
				c18-12.1,23.2-35.5,31.4-55.5c8.1-20,26.2-41,47.3-36.1c8.1,1.9,16.6,7.5,24.1,3.8c7.2-3.5,8.5-13.4,14.6-18.6
				c11.7-10,28.3,3.2,43.2,6.9c24.1,5.9,45.7-14.5,63.7-31.5c18.1-17,48.9-36.2,68.9-21.6v309.6l-1943.8-3.9V402.2z"/>
			<path class="st14" d="M869.1,615.3c65.7-15.7,131.4-34.7,197.2-50.3c14.5-3.4,30.8-6.6,43.3,1.4c6.5,4.1,11.4,11,18.9,12.7
				c14.2,3.1,26-14.1,40.5-13.1c6.5,0.4,12.2,4.6,18.6,6.3c18.3,4.8,36.9-11.9,55.4-8c13,2.7,22.7,15.1,35.9,16.8
				c7.1,0.9,14.1-1.5,21-3.1c50.1-11.4,100.7,17.3,152,16.7c32.6-0.4,63.8-12.5,96.1-17.2c20.2-3,40.8-3.1,61.2-3.1
				c20.8-0.1,41.7-0.1,62.5-0.2c3,0,6.1,0,8.8,1.4c3.3,1.7,5.3,5.1,8,7.7c9.5,9,25.3,5.3,36.5-1.5c11.2-6.7,21.7-16.1,34.8-17.4
				c14.5-1.5,30,7.5,43.3,1.5c7.3-3.3,12.5-10.6,20.3-12.2c7.4-1.5,15.2,2.7,22.5,0.8c5.2-1.4,9.1-5.6,13-9.2
				c18.9-17.6,46-27.6,71.5-24.2v94.5H869.1z"/>
			<path class="st14" d="M663,579.7c24.8,2.4,46.4-9.4,70.8-13c25.8-3.8,52.8,1.8,77,8.1c10.7,2.8,21.5,5.8,33.2,6.5
				c20.4,1.3,40.3-4.3,60.8-4.6c21.9-0.3,42.3,5.4,63.1,9.3c24.3,4.6,50.1,7.4,75.7,7.4v34.5c-127.8,2.8-255.3-5.1-383.2-5.1
				L663,579.7z"/>
			<path class="st14" d="M-12.2,454.4c17.7,3.7,35.4,7.4,53.1,11.2c6.8,1.4,14.1,3.1,19.1,7.9c3.6,3.5,6,8.5,10.6,10.4
				c6.9,2.9,14.2-2.6,21.1-5.7c15.2-6.9,33.5-1.8,47.1,7.9s23.7,23.3,34.9,35.7c16.9,18.8,37,35.3,60.7,44.1
				c53.2,19.6,111.3-3.4,166.8-15.2c43.9-9.3,89.3-11.5,133.9-6.5c95.5,10.8,184.8,56,280.2,68.4h-826L-12.2,454.4z"/>
		</g>
		<g id="ground_1_" style="clip-path:url(#SVGID_00000001657651952910088030000010489484579127550624_);">
			<rect x="-22.1" y="612.5" class="st15" width="1951.3" height="537.8"/>
			<polygon class="st16" points="1929.2,628.6 1078.8,718.5 1929.2,775.9 			"/>
			<polygon class="st16" points="0,780.9 230.3,773.9 767,798 -1.2,939.5 			"/>
			<polygon class="st17" points="1924.5,895.1 1239,808.1 929.4,881.4 1213.6,939.5 893.9,1060 1152.7,1150.3 1924.5,1150.3 			"/>
			<polygon class="st16" points="677.7,939.5 -80.5,1140 298.6,1140 			"/>
		</g>
		<g id="steel3" style="clip-path:url(#SVGID_00000001657651952910088030000010489484579127550624_);">
			<polygon class="st18" points="1389,701.6 1389,235.4 1537.4,204 1511.7,718.7 			"/>
			
				<linearGradient id="SVGID_00000054265516897536354970000003743126496447856786_" gradientUnits="userSpaceOnUse" x1="1463.22" y1="718.75" x2="1463.22" y2="203.96">
				<stop  offset="0" style="stop-color:#FFFFFF;stop-opacity:0"/>
				<stop  offset="1" style="stop-color:#FFFFFF"/>
			</linearGradient>
			<polygon style="fill:url(#SVGID_00000054265516897536354970000003743126496447856786_);" points="1537.4,204 1534.4,265 
				1530.1,350.9 1527.5,403.5 1526.4,425 1524.8,458.2 1524.2,469.3 1511.8,718.8 1389,701.6 1389,235.4 			"/>
			
				<linearGradient id="SVGID_00000060731804644861780290000013003644569722798997_" gradientUnits="userSpaceOnUse" x1="1461.6951" y1="498.69" x2="1461.6951" y2="265.03">
				<stop  offset="0" style="stop-color:#FFFFFF;stop-opacity:0"/>
				<stop  offset="1" style="stop-color:#FFFFFF"/>
			</linearGradient>
			<polygon style="fill:url(#SVGID_00000060731804644861780290000013003644569722798997_);" points="1534.4,265 1530.1,350.9 
				1389,498.7 1389,410.4 			"/>
			
				<linearGradient id="SVGID_00000083079417717079389400000001610460205035998645_" gradientUnits="userSpaceOnUse" x1="1458.24" y1="562.42" x2="1458.24" y2="403.46">
				<stop  offset="0" style="stop-color:#FFFFFF;stop-opacity:0"/>
				<stop  offset="1" style="stop-color:#FFFFFF"/>
			</linearGradient>
			<polygon style="fill:url(#SVGID_00000083079417717079389400000001610460205035998645_);" points="1527.5,403.5 1526.4,425 
				1389,562.4 1389,541.9 			"/>
			
				<linearGradient id="SVGID_00000080196177210382444850000009589613236517236619_" gradientUnits="userSpaceOnUse" x1="1456.875" y1="604.53" x2="1456.875" y2="458.23">
				<stop  offset="0" style="stop-color:#FFFFFF;stop-opacity:0"/>
				<stop  offset="1" style="stop-color:#FFFFFF"/>
			</linearGradient>
			<polygon style="fill:url(#SVGID_00000080196177210382444850000009589613236517236619_);" points="1524.8,458.2 1524.2,469.3 
				1389,604.5 1389,594 			"/>
			<polygon class="st23" points="1511.7,718.7 1584.1,705.4 1591.7,229.7 1537.4,204 			"/>
		</g>
		<g id="steel2" style="clip-path:url(#SVGID_00000001657651952910088030000010489484579127550624_);">
			<polygon class="st23" points="541.3,425 443,777.3 617.4,818.3 593.3,406.6 			"/>
			<polygon class="st18" points="617.4,818.3 593.3,406.6 639,406.6 762,798 			"/>
			
				<linearGradient id="SVGID_00000056426773179807091810000012777519910381139332_" gradientUnits="userSpaceOnUse" x1="677.67" y1="818.34" x2="677.67" y2="406.64">
				<stop  offset="0" style="stop-color:#FFFFFF;stop-opacity:0"/>
				<stop  offset="1" style="stop-color:#FFFFFF"/>
			</linearGradient>
			<polygon style="fill:url(#SVGID_00000056426773179807091810000012777519910381139332_);" points="762,798 617.4,818.3 
				606.4,630.4 605.4,613.2 602.8,569.6 600.9,536.3 596.2,456.7 593.3,406.6 639,406.6 683.5,548.1 715.9,651.3 719.1,661.3 			"/>
			<polygon class="st25" points="683.5,548.1 596.2,456.7 593.3,406.6 639,406.6 			"/>
			
				<linearGradient id="SVGID_00000133517782387595053500000017296671799652342709_" gradientUnits="userSpaceOnUse" x1="705.4415" y1="649.1583" x2="579.5991" y2="546.6812">
				<stop  offset="0" style="stop-color:#FFFFFF;stop-opacity:0"/>
				<stop  offset="1" style="stop-color:#FFFFFF"/>
			</linearGradient>
			<polygon style="fill:url(#SVGID_00000133517782387595053500000017296671799652342709_);" points="730.3,697.1 602.8,569.6 
				600.9,536.3 715.9,651.3 			"/>
			
				<linearGradient id="SVGID_00000130621798146546114750000017155205999356535683_" gradientUnits="userSpaceOnUse" x1="700.2751" y1="713.1422" x2="598.7273" y2="620.5703">
				<stop  offset="0" style="stop-color:#FFFFFF;stop-opacity:0"/>
				<stop  offset="1" style="stop-color:#FFFFFF"/>
			</linearGradient>
			<polygon style="fill:url(#SVGID_00000130621798146546114750000017155205999356535683_);" points="726.8,734.6 726.6,750.6 
				606.4,630.4 605.4,613.2 			"/>
		</g>
		<g id="steel1" style="clip-path:url(#SVGID_00000001657651952910088030000010489484579127550624_);">
			<polygon class="st18" points="349,808.1 421.9,264.5 492.3,335.6 487.3,786.5 			"/>
			
				<linearGradient id="SVGID_00000128477983379268718890000017211539699741927573_" gradientUnits="userSpaceOnUse" x1="420.675" y1="808.11" x2="420.675" y2="264.54">
				<stop  offset="0" style="stop-color:#FFFFFF;stop-opacity:0"/>
				<stop  offset="1" style="stop-color:#FFFFFF"/>
			</linearGradient>
			<polygon style="fill:url(#SVGID_00000128477983379268718890000017211539699741927573_);" points="492.3,335.6 491.6,397 
				491,458.5 490,544 489.5,588.5 489.3,608.8 488.8,653 488.7,663.5 487.3,786.5 349,808.1 382.6,557.5 383.9,548.1 390.4,499.8 
				390.4,499.8 391.6,490.6 397.5,447 407.2,374.7 414.9,316.6 421.9,264.5 			"/>
			
				<linearGradient id="SVGID_00000027587388088529120520000013998067167737031871_" gradientUnits="userSpaceOnUse" x1="444.2" y1="543.96" x2="444.2" y2="374.67">
				<stop  offset="0" style="stop-color:#FFFFFF;stop-opacity:0"/>
				<stop  offset="1" style="stop-color:#FFFFFF"/>
			</linearGradient>
			<polygon style="fill:url(#SVGID_00000027587388088529120520000013998067167737031871_);" points="491,458.5 490,544 397.5,447 
				407.2,374.7 			"/>
			
				<linearGradient id="SVGID_00000065036312676478926270000009204823712543254415_" gradientUnits="userSpaceOnUse" x1="453.63" y1="396.99" x2="453.63" y2="264.54">
				<stop  offset="0" style="stop-color:#FFFFFF;stop-opacity:0"/>
				<stop  offset="1" style="stop-color:#FFFFFF"/>
			</linearGradient>
			<polygon style="fill:url(#SVGID_00000065036312676478926270000009204823712543254415_);" points="492.3,335.6 491.6,397 
				414.9,316.6 421.9,264.5 			"/>
			
				<linearGradient id="SVGID_00000132085807672771590050000005489478823740417162_" gradientUnits="userSpaceOnUse" x1="439.3357" y1="608.79" x2="439.3357" y2="490.64">
				<stop  offset="0" style="stop-color:#FFFFFF;stop-opacity:0"/>
				<stop  offset="1" style="stop-color:#FFFFFF"/>
			</linearGradient>
			<polygon style="fill:url(#SVGID_00000132085807672771590050000005489478823740417162_);" points="391.6,490.6 489.5,588.5 
				489.3,608.8 389.2,508.7 390.4,499.8 390.4,499.8 			"/>
			
				<linearGradient id="SVGID_00000099639998975369759400000003927517421729285566_" gradientUnits="userSpaceOnUse" x1="435.71" y1="663.47" x2="435.71" y2="548.14">
				<stop  offset="0" style="stop-color:#FFFFFF;stop-opacity:0"/>
				<stop  offset="1" style="stop-color:#FFFFFF"/>
			</linearGradient>
			<polygon style="fill:url(#SVGID_00000099639998975369759400000003927517421729285566_);" points="488.8,653 488.7,663.5 
				382.6,557.5 383.9,548.1 			"/>
			<polygon class="st23" points="387.7,281.1 230.3,773.9 349,808.1 421.9,264.5 			"/>
		</g>
	</g>
</g>
<g id="alien" class="st33">
	<g id="Pose11" class="st34">
		<path id="b-leg1_1_" class="st35" d="M1165.3,763.6c3.4,8.3,0.6,17.8-6.2,21.3c-7.8,4-17.3,5.1-26.5,2.8
			c-14.3-3.7-28-15.6-35.3-30.6c-2.1-4.3-3.7-8.9-6.7-12.6c-3-3.7-7.9-6.1-11.2-4.1c-3.6,2.3-3.7,8.8-7.5,10.9
			c-4.1,2.3-10.1-3.1-11.3-8.6c-1.1-5.6,1.2-10.7,3.9-14.7c3.8-5.7,9.6-10.6,16.5-9.6c5.5,0.9,10.5,5.4,14.5,10.4
			c3.9,5,7.2,10.7,11.3,15.5c7.4,8.4,17.7,13.5,27.2,13.4c4.1,0,8.1-1,11.7-2.7c0.2-0.1,0.3-0.1,0.5-0.2
			C1153.5,751.2,1162,755.2,1165.3,763.6L1165.3,763.6z"/>
		<path id="b-leg2_1_" class="st35" d="M1237.4,790.9c-4.4,7.9-2,17.1,5.3,20.2c0.2,0.1,0.3,0.2,0.5,0.3c3.6,1.7,6.9,4.1,9.6,7.3
			c6.1,7.3,8.8,18.5,7,29.5c-1.1,6.2-3.3,12.3-4.7,18.6c-1.3,6.2-1.6,13,1.3,17.8c3.6,6,11,7.3,17.9,6.6c4.9-0.5,10.2-2,13.9-6.4
			c3.5-4.4,3.8-12.4-0.6-14.1c-4-1.6-9.1,2.5-13.2,1.2c-3.7-1.2-5-6.6-4-11.2c1-4.6,3.5-8.8,5.5-13.2c6.9-15.2,7.3-33.3,1.1-46.7
			c-4.1-8.6-10.9-15.2-19-18.6C1250.8,779.1,1241.6,783,1237.4,790.9L1237.4,790.9z"/>
		<g id="body_10_">
			<g>
				<path class="st36" d="M1246.1,661c1.1,28.2,21.9,52.1,39.7,75.1c4.6,6,8.1,12.2,10.6,18.8c7.3,18.8,6.2,39.6-0.6,59.6
					c-5.3,15.5-18.8,28.1-34.7,35.4c-15.3,7.1-32.7,9.8-49.8,9.8c-17.2-0.1-34.6-2.7-49.8-9.8c-15.9-7.4-29.4-19.9-34.7-35.4
					c-6.3-18.5-7.6-37.5-2.1-55.1c2.6-8.1,6.6-16,12.2-23.3c17.9-23.2,38.7-46.9,39.7-75.1H1246.1z"/>
				<g>
					<g>
						<defs>
							<path id="SVGID_00000154389129933112590440000001202056275352640183_" d="M1246.1,661c1.1,28.2,21.9,52.1,39.7,75.1
								c4.6,6,8.1,12.2,10.6,18.8c7.3,18.8,6.2,39.6-0.6,59.6c-5.3,15.5-18.8,28.1-34.7,35.4c-15.3,7.1-32.7,9.8-49.8,9.8
								c-17.2-0.1-34.6-2.7-49.8-9.8c-15.9-7.4-29.4-19.9-34.7-35.4c-6.3-18.5-7.6-37.5-2.1-55.1c2.6-8.1,6.6-16,12.2-23.3
								c17.9-23.2,38.7-46.9,39.7-75.1H1246.1z"/>
						</defs>
						<clipPath id="SVGID_00000005225039193024919230000009010766320552359841_">
							<use xlink:href="#SVGID_00000154389129933112590440000001202056275352640183_"  style="overflow:visible;"/>
						</clipPath>
						
							<path style="clip-path:url(#SVGID_00000005225039193024919230000009010766320552359841_);fill:none;stroke:#026684;stroke-width:4.2661;stroke-miterlimit:10;" d="
							M1122.1,738.8L1122.1,738.8c58.1,18.5,120.5,18.5,178.6,0l0,0"/>
					</g>
					<g>
						<defs>
							<path id="SVGID_00000065044430347302264670000012521149681224003767_" d="M1246.1,661c1.1,28.2,21.9,52.1,39.7,75.1
								c4.6,6,8.1,12.2,10.6,18.8c7.3,18.8,6.2,39.6-0.6,59.6c-5.3,15.5-18.8,28.1-34.7,35.4c-15.3,7.1-32.7,9.8-49.8,9.8
								c-17.2-0.1-34.6-2.7-49.8-9.8c-15.9-7.4-29.4-19.9-34.7-35.4c-6.3-18.5-7.6-37.5-2.1-55.1c2.6-8.1,6.6-16,12.2-23.3
								c17.9-23.2,38.7-46.9,39.7-75.1H1246.1z"/>
						</defs>
						<clipPath id="SVGID_00000077304230288384088800000003654839163724638376_">
							<use xlink:href="#SVGID_00000065044430347302264670000012521149681224003767_"  style="overflow:visible;"/>
						</clipPath>
						
							<path style="clip-path:url(#SVGID_00000077304230288384088800000003654839163724638376_);fill:none;stroke:#026684;stroke-width:4.2661;stroke-miterlimit:10;" d="
							M1172.7,750.1c16.5-20.7,22.3-49.4,24.2-77.9"/>
					</g>
					<g>
						<defs>
							<path id="SVGID_00000047029392665317511690000001104624513632134820_" d="M1246.1,661c1.1,28.2,21.9,52.1,39.7,75.1
								c4.6,6,8.1,12.2,10.6,18.8c7.3,18.8,6.2,39.6-0.6,59.6c-5.3,15.5-18.8,28.1-34.7,35.4c-15.3,7.1-32.7,9.8-49.8,9.8
								c-17.2-0.1-34.6-2.7-49.8-9.8c-15.9-7.4-29.4-19.9-34.7-35.4c-6.3-18.5-7.6-37.5-2.1-55.1c2.6-8.1,6.6-16,12.2-23.3
								c17.9-23.2,38.7-46.9,39.7-75.1H1246.1z"/>
						</defs>
						<clipPath id="SVGID_00000148646965369088159290000007168138007771255731_">
							<use xlink:href="#SVGID_00000047029392665317511690000001104624513632134820_"  style="overflow:visible;"/>
						</clipPath>
						
							<path style="clip-path:url(#SVGID_00000148646965369088159290000007168138007771255731_);fill:none;stroke:#026684;stroke-width:4.2661;stroke-miterlimit:10;" d="
							M1249.8,750.1c-16.5-20.7-22.3-49.4-24.2-77.9"/>
					</g>
				</g>
			</g>
			<path class="st40" d="M1166.8,805.5c0,12-6.5,21.7-14.4,21.7s-14.4-9.8-14.4-21.7c0-12,6.5-33.1,14.4-33.1
				S1166.8,793.4,1166.8,805.5z"/>
			<path class="st40" d="M1230.6,809.5c0,13.4-8.6,24.4-19.2,24.4s-19.2-11-19.2-24.4s8.6-37.1,19.2-37.1
				C1222,772.3,1230.6,796,1230.6,809.5z"/>
			<path class="st40" d="M1274.4,772.4c8,0,14.4,21.1,14.4,33.1c0,12-6.5,21.7-14.4,21.7s-14.4-9.8-14.4-21.7
				C1259.9,793.4,1266.4,772.4,1274.4,772.4z"/>
		</g>
		<path id="leg-3_7_" class="st41" d="M1267.8,797.5c-5,6.8-2.3,15.8,6,19.9c0.2,0.1,0.3,0.2,0.6,0.3c4.1,2.2,7.9,5,10.9,8.4
			c7,7.9,10,18.9,8,29c-1.2,5.7-3.8,11.1-5.3,16.8c-1.4,5.7-1.8,12,1.4,17c4.1,6.2,12.5,8.7,20.3,9.1c5.6,0.3,11.7-0.2,15.8-3.8
			c4-3.6,4.3-11.1-0.7-13.4c-4.6-2.1-10.3,0.9-15-1c-4.2-1.8-5.7-7-4.6-11.2c1.1-4.2,4-7.8,6.2-11.5c7.9-13.2,8.3-30.2,1.2-43.9
			c-4.7-8.8-12.4-16.1-21.7-20.7C1283,788.5,1272.6,790.7,1267.8,797.5L1267.8,797.5z"/>
		<g id="leg-2_10_">
			<path class="st41" d="M1230.1,899.4c-4.7,8.8-36.9,10.1-41.1,0c-1.6-3.8,0.8-5.5,4.2-8.5c12.5-8.8,9.5-33.7,7-44.8
				c-2.7-7.1-2.4-13.7-4.7-20.9c-11.7-45.2,53.4-41.8,24.8,19.2c-2.7,14-8.1,35.9,5.6,46.5C1229.3,893.9,1231.7,895.6,1230.1,899.4z
				"/>
		</g>
		<g id="head_7_">
			<path class="st40" d="M1211.4,677.8c-8.2,0-16.6-0.2-24.7-0.7c-6-0.4-14-2.1-17.5-8.9c-2.2-4.5-1.6-9.6,1.5-13.5
				c2.5-3.1,7.6-6.6,17.9-6.6c0.7,0,1.4,0,2.1,0c6.8,0.4,13.8,0.6,20.6,0.6c6.9,0,13.9-0.2,20.6-0.6c0.7,0,1.4,0,2.1,0
				c5.6,0,13.3,1.2,17.9,6.6c3.2,3.9,3.9,9.2,1.5,13.5c-1.9,3.8-6.5,8.3-17.5,8.9C1228,677.5,1219.6,677.8,1211.4,677.8z"/>
			<path class="st42" d="M1242.9,653.3c0,1.1-2.5,2.1-6.1,2.2c-16.8,1.1-34.1,1.1-50.9,0c-4.2-0.2-6.8-1.5-6-2.8
				c0.8-1.1,3.8-1.8,7.1-1.8c0.5,0,0.9,0,1.3,0c15.2,0.9,30.8,0.9,46,0c3.8-0.2,7.5,0.5,8.5,1.8
				C1242.9,653,1242.9,653.1,1242.9,653.3z"/>
			<path class="st41" d="M1278.7,573c-1.1-5.8-3.5-11.6-8.7-15c-1.5-1.1-3.4-1.5-5.5-1.4h-0.1c-2.9-0.2-6.4,1.2-9.4,4
				c-2.1,1.9-4,4.5-5.4,7.7c-0.2-0.1-0.5-0.1-0.7-0.2c-3.2-0.8-6.2-2.4-8.9-4.4c-3.5-2.6-12.1-7-30.9-7.2c-7.5-0.1-14.5,3.9-18,10.6
				c0,0.1-0.1,0.2-0.1,0.2c-4.1,8-7.1,21.6-2.9,43.9c0.4,2.1,0.9,4.3,1.4,6.5c5.5,19,8.3,43.1,8.3,43.1l2.9,0.1h25.2
				c0,0-0.2-1.9-0.4-5.1c0,0,0-0.1,0-0.1c-0.1-1.4-0.1-2.9-0.2-4.7c0-0.9,0-1.9,0-2.9c-0.1-17.6,2.7-48,21.4-55.9c0,0,1-0.5,2.6-1
				c1.4,3.6,3.5,6.4,5.8,8.5c3,2.8,6.5,4.2,9.4,4h0.1c2.1,0.1,4-0.3,5.5-1.4c5.2-3.4,7.6-9.2,8.7-15
				C1279.6,582.8,1279.6,577.9,1278.7,573z"/>
			<path class="st25" d="M1192,613.4c-0.8,0-1.5,0-2.3-0.1c-1.9-0.2-3.3-1.6-3.7-3.5c-3-16.8-2.3-31,2.6-41.6c0.7-1.5,2.3-2.5,4-2.4
				C1223.6,567.1,1223.3,612.3,1192,613.4z"/>
			<g>
				<defs>
					<path id="SVGID_00000141433382227322746340000012114479015654499993_" d="M1192,613.4c-0.8,0-1.5,0-2.3-0.1
						c-1.9-0.2-3.3-1.6-3.7-3.5c-3-16.8-2.3-31,2.6-41.6c0.7-1.5,2.3-2.5,4-2.4C1223.6,567.1,1223.3,612.3,1192,613.4z"/>
				</defs>
				<clipPath id="SVGID_00000058568933828016176450000016908252121291146168_">
					<use xlink:href="#SVGID_00000141433382227322746340000012114479015654499993_"  style="overflow:visible;"/>
				</clipPath>
				
					<circle style="clip-path:url(#SVGID_00000058568933828016176450000016908252121291146168_);fill:#754C24;" cx="1187.8" cy="580.1" r="12.5"/>
			</g>
			<g>
				<line class="st44" x1="1209.5" y1="556.8" x2="1209.5" y2="523.5"/>
				<circle class="st41" cx="1209.5" cy="523.5" r="4"/>
				<ellipse class="st45" cx="1209.5" cy="545.4" rx="14.7" ry="2.1"/>
				<ellipse class="st46" cx="1209.5" cy="535.3" rx="9.6" ry="1.4"/>
			</g>
			<path class="st25" d="M1260.9,567.4c4.3,1.6,6.2,7.3,6.3,12.9c-0.1,5.6-2,11.3-6.3,12.9c-4.2,1.7-10.3-4-10.3-12.9
				C1250.6,571.4,1256.6,565.7,1260.9,567.4z"/>
			<path class="st47" d="M1258.2,568.2c2.8,0.9,4.1,5,3.8,9.2c-0.3,4.2-2.2,8.1-5.1,8.5c-2.9,0.5-6-3.7-5.6-9.3
				C1251.8,571,1255.4,567.3,1258.2,568.2z"/>
			<g>
				<defs>
					<path id="SVGID_00000140728068742907510970000007116164222450725771_" d="M1258.6,568.5c-2.6,1.1-6.4,0.6-9.7-0.2
						c-3.2-0.8-6.2-2.4-8.9-4.4c-3.5-2.6-12.1-7-30.9-7.2c-7.5-0.1-14.5,3.9-18,10.6c0,0.1-0.1,0.2-0.1,0.2
						c-4.1,8-7.1,21.6-2.9,43.9c0.4,2.1,0.9,4.3,1.4,6.5c5.5,19,8.3,43.1,8.3,43.1l2.9,0.1h25.2c0,0-0.2-1.9-0.4-5.1
						c0,0,0-0.1,0-0.1c-0.1-1.4-0.1-2.9-0.2-4.7c0-0.9,0-1.9,0-2.9c-0.1-17.6,2.7-48,21.4-55.9c0,0,6.3-3.3,11.9-0.8L1258.6,568.5z"
						/>
				</defs>
				<clipPath id="SVGID_00000111152399990945755040000001979588732341010072_">
					<use xlink:href="#SVGID_00000140728068742907510970000007116164222450725771_"  style="overflow:visible;"/>
				</clipPath>
				<g style="clip-path:url(#SVGID_00000111152399990945755040000001979588732341010072_);">
					<path class="st47" d="M1205.8,630.7c-4.5-1.4-9.2-2.2-13.8-2.2c-0.5,0-1.1,0-1.6,0c-4.1,0.2-8.1,1-12.2,2.2
						c3.7-2.1,7.9-3.3,12.2-3.5c0.5,0,1.1-0.1,1.6-0.1C1196.8,627.2,1201.7,628.4,1205.8,630.7z"/>
				</g>
			</g>
			<path class="st40" d="M1252,654.6h-10.2c-1.1,0.5-2.8,0.9-4.8,1.1c-16.8,1.1-34.1,1.1-50.9,0c-2.1-0.1-3.8-0.5-4.8-1.1H1171
				c-3.3,3.9-3.9,9.2-1.5,13.5c3.5,6.8,11.4,8.6,17.5,8.9c8.1,0.5,16.5,0.7,24.7,0.7s16.6-0.2,24.7-0.7c10.9-0.6,15.5-5.2,17.5-8.9
				C1255.7,663.7,1255.1,658.5,1252,654.6z"/>
		</g>
		<path id="leg-1_12_" class="st41" d="M1158.8,796.7c-4.8-6.8-15.2-9-23.2-5c-9.2,4.6-17,11.9-21.6,20.7
			c-7.1,13.7-6.7,30.6,1.2,43.9c2.2,3.8,5.1,7.3,6.2,11.5c1.1,4.2-0.3,9.4-4.5,11.2c-4.7,1.9-10.4-1.1-15,1c-5,2.3-4.7,9.9-0.7,13.4
			c4.1,3.6,10.2,4.1,15.8,3.8c7.8-0.4,16.2-2.9,20.3-9.1c3.2-5,2.9-11.3,1.4-17c-1.6-5.7-4.1-11.1-5.3-16.8c-2-10.1,1-21.1,8-29
			c3-3.4,6.8-6.2,10.9-8.4c0.2-0.1,0.3-0.2,0.6-0.3C1161.1,812.5,1163.8,803.5,1158.8,796.7L1158.8,796.7z"/>
	</g>
	<g id="pose-11" class="st34">
		<path id="b-arm_3_" class="st49" d="M890.9,575.1c0,0,8.7,3.9,6.7,10.4c-2.1,6.4-11.5,4.6-11.5,4.6s-58.1-11.6-72.4-21.5
			c-7.3-5-4.3-18,5.8-18C841.2,550.5,890.9,575.1,890.9,575.1z"/>
		<path id="b-forearm_2_" class="st49" d="M922.5,528.3l7.9,5.6c0,0-17.5,38.8-34.3,54c-2.9,2.6-14.1-5.1-13-8.9
			C887.8,562.5,922.5,528.3,922.5,528.3z"/>
		<g id="b-hand_2_">
			<path class="st49" d="M942.1,529.8c0,0,11.1-6.6,11.7-12.6c0.5-4.5-5.8-1.3-9,2.7c-2.6,3.2-9.5,4.9-9.5,4.9L942.1,529.8z"/>
			<path class="st49" d="M925.7,537.3c0,0,14.2-4.7,18.5-9.2c4.3-4.5-5.8-11.6-12-12.3c-2.5-0.3-6.8,1.4-9.4,4.4
				C919,524.8,918.1,531.9,925.7,537.3z"/>
			<path class="st49" d="M913.7,516.6c0,0,2.2,8.7,6.2,14.3c4,5.6,8.5-5.4,8.5-5.4s-7-14-10.9-14.1S911.8,510.7,913.7,516.6z"/>
			<path class="st49" d="M935.4,521.4c0,0,10-10.2,8.9-16.8c-0.8-5-6.5,0.2-8.8,5.4c-1.8,4.1-8.7,7.9-8.7,7.9L935.4,521.4z"/>
			<path class="st49" d="M942.7,524.3c0,0,10-10.2,8.9-16.8c-0.8-5-6.5,0.2-8.8,5.4c-1.8,4.1-8.7,7.9-8.7,7.9L942.7,524.3z"/>
		</g>
		<path id="b-thigh_3_" class="st50" d="M848.4,769.3c0,0,11.4,9.2,16.6,8.8c8.6-0.5,6.6-16.1,6.6-16.1s-9.8-55.4-27-89.8
			c-4.3-8.6-15.5-18.2-25.4-14.6c-9.1,3.2-13.7,13.3-10.3,22.3C817.6,702.7,848.4,769.3,848.4,769.3z"/>
		<g id="b-calf_3_">
			<path class="st51" d="M876,792c0,0-1.7-7.6-23.5-13.3c-16.8-4.4-19-1.2-19-1.2s4,32.5,13,35C862.4,816.8,876,792,876,792z"/>
			<path class="st50" d="M830.8,847.1l7.8,2l28.7-71.3c0,0-14-17.2-18.2-14.5C831.1,774.9,830.8,847.1,830.8,847.1z"/>
			<path class="st51" d="M833.6,777.5l-3.8,19.3l-10,58.8c0,0,16.1,12.7,30.5-3.9l18.6-43.2L876,792c-3.3,6-16.8,4.3-29.5-1.2
				C834.4,785.6,833.6,777.5,833.6,777.5z"/>
			<path class="st51" d="M850.5,849c0,0,2.8,5.7,10.3,12.4s25.3,3.8,25.2,9.7c-0.1,6,0.4,8.3-4,10.2c-4.4,1.9-22.3,0.5-30.2-0.1
				c-7.8-0.6-13.9,0.3-23.6,0.5s-9.7-4.8-9.7-4.8s-1.5-15.2,3.4-28.4C826.8,835.3,850.5,849,850.5,849z"/>
			<path class="st52" d="M833.6,777.5l-3.8,19.3c2.6,3.7,7.4,8.2,16.3,11.3c11.4,4.1,19,2.1,22.8,0.4L876,792
				c-3.3,6-16.8,4.3-29.5-1.2C834.4,785.6,833.6,777.5,833.6,777.5z"/>
			<line class="st53" x1="837.5" y1="803.9" x2="824.5" y2="849.7"/>
			<path class="st53" d="M850.3,851.7c0,0-17.6,6.9-29.3-5.1"/>
			<path class="st54" d="M818.4,876.9c0,0,0.1,5,9.7,4.8c9.6-0.2,15.8-1.1,23.6-0.5c7.9,0.6,25.7,2,30.2,0.1c4.5-1.9,3.9-4.3,4-10.2
				c0-0.3,0-0.6-0.1-0.8c-0.3,2-1.2,3.3-3.8,4.4c-4.4,1.9-22.3,0.5-30.2-0.1c-7.8-0.6-13.9,0.3-23.6,0.5c-9.6,0.2-9.7-4.8-9.7-4.8
				s-0.1-1.4-0.2-3.8C818,872.6,818.4,876.9,818.4,876.9z"/>
		</g>
		<g id="torso_7_">
			<path class="st51" d="M814.6,696.9c2.3,0.5,4.6,0.9,7,1.1c4.8,0.3,9.7-0.3,14.2-1.6c2.3-0.7,4.5-1.5,6.4-2.7
				c1-0.6,1.9-1.2,2.8-1.9c0.9-0.7,1.5-1.4,2.1-2.2c0.5-0.8,1-1.6,1.1-2.3c0.2-0.7,0.1-1.3-0.1-1.8c-0.3-0.9-1.5-1.8-3.3-2.4
				c-1.8-0.6-3.9-1-6.1-1.2c-2.2-0.2-4.5-0.2-6.8-0.2c-4.7,0.1-9.3,0.5-13.7,1.4c-2.2,0.4-4.3,1-6.3,1.6c-2,0.7-3.8,1.5-5.1,2.6
				c-0.6,0.5-1.1,1-1.4,1.5c-0.3,0.5-0.4,0.9-0.3,1.5c0.1,0.6,0.4,1.3,1,2c0.6,0.7,1.4,1.4,2.3,2
				C810.1,695.6,812.3,696.4,814.6,696.9z M798.2,689.6c-0.5-7.6,8-13.1,14.3-15.3c5.8-2,12.4-2.6,18.6-2.4c5.9,0.2,11.9,1,17.2,3.9
				c4.9,2.7,8.4,8.1,6.2,13.7c-1.7,4.2-5.7,7.2-9.8,9c-6.3,2.8-13.6,3.8-20.4,4c-5.1,0.1-12.9-0.2-18.6-2.9
				C801.5,697.5,798.5,694.5,798.2,689.6z"/>
			<path class="st54" d="M794.9,681.2c1.7,14.7,17.3,18.9,31.1,19.4c7,0.3,15-2,21-8.6c7.6-8.4,6.9-25.5,7.6-41.5
				c0.5-11.4-53-2.3-53-2.3S792.9,664,794.9,681.2z"/>
			<path class="st49" d="M814.7,544.4c0,0,23.5,25,32.2,21.8c3.4-1.2,13.5-13.3,16.8-19.7c8.5-16.5,5.6-53.5,5.6-53.5l-34-6.8
				c0,0,7.4,21.5-4.4,41.9C824.8,538.9,814.7,544.4,814.7,544.4z"/>
			<path class="st54" d="M802,641.9l-1.1,12.9l52.6,2.2l1.6-6.6c0,0,5.1-18.9,6.3-45.6c0.9-21.4-7.2-39.2-7.2-39.2
				s-19.9-34.9-34.5-33.6c-13.8,1.2-23.4,22.8-24.6,49.5C793.9,608.3,802,641.9,802,641.9z"/>
			<path class="st55" d="M797.9,655c0,0,10,6,29.3,6.8s27.5-3,27.5-3l0.4-8.3c0,0-8.3,3.8-27.5,3c-19.3-0.8-26.5-6.1-26.5-6.1
				L797.9,655z"/>
			<path class="st56" d="M845,550.1c10.2,12.6,12.3,24.3,12.3,24.3s-12.3-15.2-24.1-25.3c-5.2-4.5-24.1-13-14.7-18.5
				C828,525.1,836.8,539.9,845,550.1z"/>
			<path class="st56" d="M804.7,563.2c-0.5,11.5,7.7,21.1,18.3,21.6c10.6,0.5,19.4-3.2,19.9-14.7c0.5-11.5-6.4-23-18.1-26.9
				C813.1,539.4,805.2,551.7,804.7,563.2z"/>
			<path class="st57" d="M806.9,570.7c-0.4,9.9,6.7,18.3,15.9,18.7c9.2,0.4,16.8-2.8,17.2-12.7c0.4-9.9-5.5-19.9-15.7-23.3
				C814.2,550.1,807.3,560.8,806.9,570.7z"/>
			<g>
				<path class="st56" d="M801,699.5c-1.3-0.7-2.5-1.5-3.7-2.5c-1.2-1.1-2.3-2.4-3.1-4.1c-0.8-1.7-0.9-3.9-0.5-5.8
					c0.4-1.9,1.4-3.5,2.4-4.9c2.1-2.7,4.6-4.4,7.2-5.8c2.6-1.4,5.3-2.3,7.9-3c5.4-1.3,10.8-1.6,16.1-1.3c2.7,0.1,5.4,0.4,8.1,1
					c1.4,0.3,2.7,0.7,4.1,1.1c1.4,0.5,2.8,1.1,4.1,1.8c1.4,0.8,2.7,1.7,4,3.1c0.6,0.7,1.2,1.4,1.6,2.3c0.4,0.9,0.8,1.8,1,2.8
					c0.4,2,0,4-0.6,5.6c-0.7,1.6-1.6,2.9-2.7,4.1c-1.1,1.1-2.3,2.1-3.5,2.8c-1.2,0.8-2.4,1.4-3.7,2c-2.5,1.1-5.1,1.9-7.6,2.5
					c-5.1,1.1-10.3,1.5-15.5,1.5c-2.6,0-5.2-0.2-7.8-0.6C806.4,701.5,803.8,701,801,699.5z M803.9,694.7c1.6,1.1,3.8,1.9,6.1,2.4
					c2.3,0.5,4.6,0.9,7,1.1c4.8,0.3,9.7-0.3,14.2-1.6c2.3-0.7,4.5-1.5,6.4-2.7c1-0.6,1.9-1.2,2.8-1.9c0.9-0.7,1.5-1.4,2.1-2.2
					c0.5-0.8,1-1.6,1.1-2.3c0.2-0.7,0.1-1.3-0.1-1.8c-0.3-0.9-1.5-1.8-3.3-2.4c-1.8-0.6-3.9-1-6.1-1.2c-2.2-0.2-4.5-0.2-6.8-0.2
					c-4.7,0.1-9.3,0.5-13.7,1.4c-2.2,0.4-4.3,1-6.3,1.6c-2,0.7-3.8,1.5-5.1,2.6c-0.6,0.5-1.1,1-1.4,1.5c-0.3,0.5-0.4,0.9-0.3,1.5
					c0.1,0.6,0.4,1.3,1,2C802.2,693.4,803,694.1,803.9,694.7z"/>
			</g>
			<path class="st56" d="M807.1,574.3c-0.2-1.1-0.2-2.3-0.2-3.5c0.4-9.9,7.3-20.6,17.4-17.3c10.1,3.4,16.1,13.4,15.7,23.3
				c0,0.9-0.1,1.8-0.3,2.6c1.8-2.2,3-5.2,3.1-9.2c0.5-11.5-6.4-23-18.1-26.9c-11.7-3.9-19.6,8.5-20.1,19.9
				C804.5,567.2,805.4,571,807.1,574.3z"/>
		</g>
		<path id="f-thigh_3_" class="st58" d="M839.7,775.6c0,0,11.4,9.2,16.6,8.8c8.6-0.5,6.6-16.1,6.6-16.1s-9.8-55.4-27-89.8
			c-4.3-8.6-15.5-18.2-25.4-14.6c-9.1,3.2-13.7,13.3-10.3,22.3C808.9,709,839.7,775.6,839.7,775.6z"/>
		<g id="f-calf_3_">
			<path class="st51" d="M867.4,798.3c0,0-1.7-7.6-23.5-13.3c-16.8-4.4-19-1.2-19-1.2s4,32.5,13,35
				C853.7,823.2,867.4,798.3,867.4,798.3z"/>
			<path class="st58" d="M822.1,853.4l7.8,2l28.7-71.3c0,0-14-17.2-18.2-14.5C822.4,781.2,822.1,853.4,822.1,853.4z"/>
			<path class="st56" d="M824.9,783.9l-3.8,19.3l-10,58.8c0,0,16.1,12.7,30.5-3.9l18.6-43.2l7.1-16.5c-3.3,6-16.8,4.3-29.5-1.2
				C825.7,791.9,824.9,783.9,824.9,783.9z"/>
			<path class="st56" d="M841.8,855.3c0,0,2.8,5.7,10.3,12.4s25.3,3.8,25.2,9.7s0.4,8.3-4,10.2c-4.4,1.9-22.3,0.5-30.2-0.1
				c-7.8-0.6-13.9,0.3-23.6,0.5s-9.7-4.8-9.7-4.8s-1.5-15.2,3.4-28.4C818.1,841.6,841.8,855.3,841.8,855.3z"/>
			<path class="st55" d="M824.9,783.9l-3.8,19.3c2.6,3.7,7.4,8.2,16.3,11.3c11.4,4.1,19,2.1,22.8,0.4l7.1-16.5
				c-3.3,6-16.8,4.3-29.5-1.2C825.7,791.9,824.9,783.9,824.9,783.9z"/>
			<line class="st53" x1="828.8" y1="810.3" x2="815.6" y2="857"/>
			<path class="st53" d="M842.3,856.5c0,0-17.3,10.4-29.1-1.6"/>
			<path class="st54" d="M809.8,883.3c0,0,0.1,5,9.7,4.8c9.6-0.2,15.8-1.1,23.6-0.5c7.9,0.6,25.7,2,30.2,0.1c4.5-1.9,3.9-4.3,4-10.2
				c0-0.3,0-0.6-0.1-0.8c-0.3,2-1.2,3.3-3.8,4.4c-4.4,1.9-22.3,0.5-30.2-0.1c-7.8-0.6-13.9,0.3-23.6,0.5c-9.6,0.2-9.7-4.8-9.7-4.8
				s-0.1-1.4-0.2-3.8C809.3,878.9,809.8,883.3,809.8,883.3z"/>
		</g>
		<g id="hips_2_">
			<path class="st54" d="M848.1,685.6l3.5-22.7c0,0-30.6,0.9-53.2-3.8c0,0-4.5,15.4,0,27.7c0,0,7.5-8.1,24.1-7.9
				C836.5,679,844.4,679.8,848.1,685.6z"/>
			<path class="st56" d="M793.8,687c0.1-0.5,0.3-1,0.4-1.5c1.2-3,3.5-5.5,6.2-7.4c6-4.3,13.6-5.9,21-6.2c5.6-0.2,11.3,0.2,16.7,1.7
				c3.6,1,7.2,2.6,9.7,5.4c3.4,3.9,3.4,9.1,0.4,13.2c-1.5-1.8-3-3.6-4.6-5.4c0.1-1.6-1.3-2.8-2.6-3.4c-1.6-0.8-3.5-1.1-5.3-1.3
				c-5.1-0.7-10.3-0.5-15.4,0c-5.1,0.6-10.3,1.4-15.1,3.4c-2,0.9-5.5,2.8-4.5,5.5c-0.1,0.2-0.2,0.4-0.3,0.7c-0.6,2-1.3,4-2,6
				c-0.4-0.3-0.8-0.6-1.1-0.9C794.4,694.5,793,690.8,793.8,687z"/>
		</g>
		<path id="f-arm_3_" class="st59" d="M879.3,606.2c0,0,6.3,7.2,1.7,12.2c-4.6,5-12.3-0.7-12.3-0.7s-47.9-34.9-56.8-49.9
			c-4.5-7.6,3.7-18.1,12.8-13.9C844.5,563.1,879.3,606.2,879.3,606.2z"/>
		<path id="f-forearm_2_" class="st59" d="M924.6,651.3l-6.5,7.1c0,0-36.3-22.1-49.3-40.7c-2.3-3.2,6.8-13.3,10.4-11.8
			C894.9,612.6,924.6,651.3,924.6,651.3z"/>
		<g id="f-hand_3_">
			<path class="st59" d="M920.6,670.6c0,0,5.2,11.8,11.1,13.2c4.4,1,2-5.5-1.6-9.2c-2.9-2.9-3.7-10-3.7-10L920.6,670.6z"/>
			<path class="st59" d="M915.2,653.4c0,0,2.9,14.7,6.8,19.5c3.9,4.8,12.2-4.4,13.7-10.4c0.6-2.4-0.5-6.9-3.2-9.9
				C928.5,648.3,921.6,646.5,915.2,653.4z"/>
			<path class="st59" d="M937.3,644c0,0-8.9,1.1-15,4.4s4.3,9.1,4.3,9.1s14.8-5.2,15.4-9S943.3,642.8,937.3,644z"/>
			<path class="st59" d="M929.8,665c0,0,8.9,11.1,15.6,10.9c5-0.2,0.6-6.5-4.3-9.4c-3.9-2.3-6.8-9.6-6.8-9.6L929.8,665z"/>
			<path class="st59" d="M926,671.9c0,0,8.9,11.1,15.6,10.9c5-0.2,0.6-6.5-4.3-9.4c-3.9-2.3-6.8-9.6-6.8-9.6L926,671.9z"/>
		</g>
		<g id="head_8_">
			<path class="st59" d="M860.5,508.9c0.4,7.4,2.1,18,4.8,19.6c3.7,2.2,9.2,0.9,12.5-2.6c2.7-2.8,5.2-5.8,7.6-6.1
				c2.4-0.4,3,0.2,5.5,2.2c2.8,2.2,5.7,4,8.7,0.7c1.7-1.8,3.2-11.7,3.6-18c1-15.1,0.1-28.6-1.7-39.5c-2.2-12.8-1.5-17.7-5.8-23.3
				c-2.8-4-9.7-6.8-12.1-7.3c-2.4-0.4-5.5,0.6-8.5,2.2C866.2,441.7,858,467,860.5,508.9z"/>
			<path class="st59" d="M802.4,471.7c9.9,12.2,29.2,21.5,44.3,27.4c2.2,9,3.5,23.8,18.6,29.3c6.1-0.6,5.6-23.8,5.3-44.1
				c-0.2-10.7-0.3-20.6,0.6-25.9c0.8-4.8,1.5-8.7,3.1-12.6c1.7-3.8,4.5-7.3,9.4-11.3c-1.6-0.5-7.8-1.4-9.1-1.7
				c-3.3-0.6-6.6-1.2-9.9-1.8c-6.6-1.2-15.8-3.6-22.4-4.1c-11.7-1-21.9,0.6-32.4,6.4c-5.3,2.9-9.8,7.3-12.1,13
				C793.9,455.9,796.5,464.4,802.4,471.7z"/>
			<path class="st60" d="M877.2,515.1c0.9,1.8,4.7-2.5,7.3-2.5c2.6,0,6.1,2.5,7.4,0.8c1.4-1.9,1.4-3.4,1.2-5.3
				c-0.4-3.5-5.9-2.5-8.5-2.1c-3.3,0.5-5.8,0.9-8.4,1.3C875.4,509,876.5,513.5,877.2,515.1z"/>
			<g>
				<path class="st25" d="M890.5,472.2c-0.4,5.6-1.1,18.8,4,18.2c5.4-0.8,9.9-6.8,10.6-16.2s-2.8-16.2-7.8-17.7
					C892.2,456.1,890.9,466.5,890.5,472.2z"/>
				<g>
					<ellipse class="st61" cx="898.6" cy="472.6" rx="4.9" ry="10.9"/>
					<g>
						<path class="st62" d="M898.6,461.7c0.4,1.8,0.7,3.6,0.8,5.5c0.2,1.8,0.2,3.6,0.2,5.5c0,1.8-0.1,3.6-0.2,5.5
							c-0.2,1.8-0.4,3.6-0.8,5.5c-0.4-1.8-0.7-3.6-0.8-5.5c-0.2-1.8-0.2-3.6-0.2-5.5c0-1.8,0.1-3.6,0.2-5.5
							C897.9,465.3,898.1,463.5,898.6,461.7z"/>
					</g>
					<ellipse class="st62" cx="898.6" cy="472.6" rx="2.4" ry="5.4"/>
				</g>
				<path class="st49" d="M903,459c0,0-2.6-1.1-3.9,0c-1.3,1.1-5.8,3.4-8.9,26c0,0-2.6-10.8,1.1-24.5C894.3,449.3,903,459,903,459z"
					/>
				<g>
					<path class="st63" d="M904.4,462.6c-0.7-1.1-1.7-2.2-2.7-2.7c-0.5-0.3-1-0.3-1.4-0.2c-0.2,0.1-0.4,0.2-0.7,0.3
						c-0.3,0.2-0.6,0.4-0.8,0.6c-1,0.8-1.8,2-2.5,3.3c-0.7,1.3-1.3,2.6-1.8,4c-1,2.8-1.8,5.6-2.5,8.5c-0.7,2.9-1.3,5.8-1.8,8.7
						c0.3-3,0.6-5.9,1.1-8.9c0.5-3,1.1-5.9,1.9-8.8c0.4-1.5,0.9-2.9,1.6-4.3c0.6-1.4,1.4-2.8,2.6-4c0.3-0.3,0.7-0.6,1-0.8
						c0.3-0.2,0.8-0.5,1.3-0.6c1-0.3,2.1-0.1,2.9,0.3c1.6,0.9,2.6,2.2,3.5,3.6c0.3,0.5,0.1,1.1-0.3,1.4
						C905.3,463.2,904.7,463.1,904.4,462.6L904.4,462.6z"/>
				</g>
			</g>
			<g>
				<g>
					<path class="st59" d="M911.2,465.3c6.5,4.9,10.9,10.2,14.5,15.4c3.6,5.2,6.2,10.4,8.5,15.5c4.5,10.2,7.5,20.2,9.9,30.2
						c2.3,10,3.6,20,4.9,29.8c0.7,4.9,1.3,9.8,2.1,14.7c0.8,4.9,1.5,9.8,2.6,14.8l0.2,0.7c1.3,6.3-2.7,12.5-9,13.8
						c-6.3,1.3-12.5-2.7-13.8-9c-0.2-1.1-0.3-2.2-0.2-3.3c0.2-2.2,0.1-4.4-0.2-6.7l-0.2-1.7l-0.3-1.7c-0.2-1.1-0.4-2.2-0.7-3.3
						c-1-4.4-2.4-8.7-4.2-13c-1.7-4.2-4-8.3-6.2-12.3c-2.3-4-4.5-7.9-6.5-11.8c-2-3.9-4.2-7.7-6.3-11.2c-2.2-3.6-4.5-7-6.8-10.1
						c-2.3-3.1-4.7-5.9-7-8l-0.8-0.8l-0.4-0.4l-0.4-0.3l-0.8-0.7c-0.3-0.2-0.5-0.4-0.8-0.5c-0.2-0.2-0.5-0.4-0.7-0.5
						c-0.2-0.1-0.5-0.2-0.7-0.4c-0.1-0.1-0.2-0.2-0.3-0.2l-0.3-0.1c-0.2-0.1-0.4-0.2-0.5-0.3l-1.3-0.8c-10.9-6.6-14.4-20.8-7.8-31.7
						c6.6-10.9,20.8-14.4,31.7-7.8C910,464.4,910.6,464.8,911.2,465.3z"/>
				</g>
				<path class="st59" d="M927.3,604.3c3,3.2,12.9-2.1,17.2-2.7s15.4,1.2,17.2-2.7c1.6-3.5-6.9-9.4-8.1-13.1
					c-1.7-5.7-22.8-2.4-22.7,3.6C930.9,593.2,924.7,601.5,927.3,604.3z"/>
			</g>
			<g>
				<g>
					<path class="st49" d="M928.1,484.7c-1.2-2.1-3-3.9-5.1-5.2c-2.1-1.3-4.4-2.1-6.8-2.4c-4.8-0.7-9.8,0.5-13.9,2.9l-0.5-0.9
						c4.4-2.3,9.6-3.3,14.5-2.5c2.4,0.4,4.8,1.3,6.9,2.7C925.2,480.7,926.9,482.6,928.1,484.7z"/>
				</g>
				<g>
					<path class="st49" d="M941.1,508.2c-1-1.8-2.5-3.2-4.2-4.1c-1.7-1-3.6-1.6-5.5-1.9c-1.9-0.3-3.9-0.3-5.9,0
						c-2,0.2-3.9,0.7-5.9,1.3c3.5-2,7.8-2.9,11.9-2.3c2,0.3,4.1,1,5.8,2.2C939.1,504.6,940.5,506.3,941.1,508.2z"/>
				</g>
				<g>
					<path class="st49" d="M947.6,537.1c-0.7-1.5-2-2.5-3.3-3.2c-1.4-0.7-2.9-1-4.5-1.2c-3.1-0.4-6.3,0-9.4,0.7
						c2.9-1.4,6.3-2,9.6-1.7c1.6,0.2,3.3,0.7,4.7,1.5C946.1,534.1,947.3,535.5,947.6,537.1z"/>
				</g>
			</g>
			<g>
				<path class="st25" d="M874.6,475.3c-0.4,5.6-1.1,18.8,4,18.2c5.4-0.8,9.9-6.8,10.6-16.2s-2.8-16.2-7.8-17.7
					C876.3,459.2,875,469.6,874.6,475.3z"/>
				<g>
					
						<ellipse transform="matrix(7.151438e-02 -0.9974 0.9974 7.151438e-02 345.1601 1324.0648)" class="st61" cx="883.8" cy="476.6" rx="10.9" ry="4.9"/>
					<g>
						<path class="st62" d="M884.6,465.7c0.3,1.8,0.4,3.7,0.4,5.5c0,1.8,0,3.7-0.2,5.5c-0.1,1.8-0.3,3.6-0.6,5.4
							c-0.3,1.8-0.6,3.6-1.2,5.4c-0.3-1.8-0.4-3.7-0.4-5.5c0-1.8,0-3.7,0.2-5.5c0.1-1.8,0.3-3.6,0.6-5.4
							C883.6,469.3,884,467.5,884.6,465.7z"/>
					</g>
					
						<ellipse transform="matrix(7.151438e-02 -0.9974 0.9974 7.151438e-02 345.1601 1324.0648)" class="st62" cx="883.8" cy="476.6" rx="5.4" ry="2.4"/>
				</g>
				<path class="st49" d="M887.1,462.2c0,0-2.6-1.1-3.9,0c-1.3,1.1-5.8,3.4-8.9,26c0,0-2.6-10.8,1.1-24.5
					C878.4,452.4,887.1,462.2,887.1,462.2z"/>
				<g>
					<path class="st63" d="M888.4,465.7c-0.7-1.1-1.7-2.2-2.7-2.7c-0.5-0.3-1-0.3-1.4-0.2c-0.2,0.1-0.4,0.2-0.7,0.3
						c-0.3,0.2-0.6,0.4-0.8,0.6c-1,0.8-1.8,2-2.5,3.3c-0.7,1.3-1.3,2.6-1.8,4c-1,2.8-1.8,5.6-2.5,8.5c-0.7,2.9-1.3,5.8-1.8,8.7
						c0.3-3,0.6-5.9,1.1-8.9c0.5-3,1.1-5.9,1.9-8.8c0.4-1.5,0.9-2.9,1.6-4.3c0.6-1.4,1.4-2.8,2.6-4c0.3-0.3,0.7-0.6,1-0.8
						c0.3-0.2,0.8-0.5,1.3-0.6c1-0.3,2.1-0.1,2.9,0.3c1.6,0.9,2.6,2.2,3.5,3.6c0.3,0.5,0.1,1.1-0.3,1.4
						C889.4,466.4,888.8,466.2,888.4,465.7L888.4,465.7z"/>
				</g>
			</g>
			<path class="st64" d="M802.4,471.7c9.9,12.2,29.2,21.5,44.3,27.4c-1.3-5.1-3.5-10.5-3.6-24.7c-0.1-10.1-0.6-16.8-0.1-21
				c-3.3,0.9-5.6,0.1-10,11.9c-4.4,11.8-23.4,10-29.8,6.5C802.7,471.6,802.4,471.5,802.4,471.7z"/>
			<path class="st49" d="M872.5,462.7c0,0-2.5-10.1,1.1-13.7c3.6-3.6,6,0.6,6,0.6l1.1,4.8C880.7,454.4,874.7,450.4,872.5,462.7z"/>
			<path class="st49" d="M900.5,458.4c0,0,0-7.5-3.1-10.3s-4.2,0.3-4.2,0.3l0,3.6C893.2,452,896.8,449.2,900.5,458.4z"/>
		</g>
	</g>
</g>
</svg>
