<?xml version="1.0" encoding="utf-8"?>
<!-- Generator: Adobe Illustrator 26.0.3, SVG Export Plug-In . SVG Version: 6.00 Build 0)  -->
<svg version="1.1" id="Plateau_x5F_6" xmlns="http://www.w3.org/2000/svg" xmlns:xlink="http://www.w3.org/1999/xlink" x="0px"
	 y="0px" viewBox="0 0 1920 1080" style="enable-background:new 0 0 1920 1080;" xml:space="preserve">
<style type="text/css">
	.st0{clip-path:url(#SVGID_00000077319976410590344830000018180097664858443682_);}
	.st1{fill:url(#sky_00000127016458548451241090000006017443436562758572_);}
	.st2{fill:url(#SVGID_00000088091426688076099760000005858160627543932838_);}
	.st3{fill:url(#SVGID_00000041977163144587097770000001152056190976305821_);}
	.st4{fill:#B3B3B3;}
	.st5{fill:#FFFFFF;}
	.st6{fill:url(#SVGID_00000181779459165702025100000003182642388011287738_);}
	.st7{fill:#827E7E;}
	.st8{fill:#999999;}
	.st9{fill:#636060;}
	.st10{fill:#1A1919;}
	.st11{fill:#2B0405;}
	.st12{fill:#A28080;}
	.st13{fill:#E6E6E6;}
	.st14{fill:url(#SVGID_00000181769993938516449640000003583521890303905189_);}
	.st15{fill:#CCCCCC;}
	.st16{fill:url(#SVGID_00000178197439340522246920000007837657603017832381_);}
	.st17{fill:url(#SVGID_00000146493741997861331320000002306627787792348336_);}
	.st18{fill:#7D6363;}
	.st19{fill:#4E383A;}
	.st20{fill:#38292A;}
	.st21{fill:#614343;}
	.st22{opacity:0.5;fill:#4E383A;}
	.st23{opacity:0.22;fill:#4E383A;}
	.st24{fill:#3B2B2B;}
	.st25{fill:url(#SVGID_00000114795167079812742160000008295465556349999758_);}
	.st26{fill:url(#SVGID_00000029023432082526372360000011040371500823123074_);}
	.st27{fill:#4F3F3F;}
	.st28{fill:#C7B3B3;}
	.st29{fill:url(#SVGID_00000137126403090884601270000004268286354546569395_);}
	.st30{fill:url(#SVGID_00000173864982740778341380000006664004509916424611_);}
	.st31{fill:url(#SVGID_00000117661069920121303260000013370831491121481909_);}
	.st32{fill:url(#SVGID_00000104697838794573511350000014797218056277250202_);}
	.st33{fill:url(#SVGID_00000157296739221527892260000008537371020836480420_);}
	.st34{fill:#1F1B1B;}
	.st35{fill:#D5CECB;}
	.st36{fill:url(#SVGID_00000102535196133448971170000008280378912509980072_);}
	.st37{fill:#EAE4E1;}
	.st38{fill:#968686;}
	.st39{fill:url(#SVGID_00000029727240050421641700000013710719393459147914_);}
</style>
<g>
	<defs>
		<rect id="SVGID_1_" width="1920" height="1080"/>
	</defs>
	<clipPath id="SVGID_00000037659289031188486910000013243571833314324875_">
		<use xlink:href="#SVGID_1_"  style="overflow:visible;"/>
	</clipPath>
	<g style="clip-path:url(#SVGID_00000037659289031188486910000013243571833314324875_);">
		
			<linearGradient id="sky_00000074402958665363168210000011724707489759824033_" gradientUnits="userSpaceOnUse" x1="962.8185" y1="1215.6049" x2="962.8185" y2="-36.1941">
			<stop  offset="0.5454" style="stop-color:#7EDDC8"/>
			<stop  offset="1" style="stop-color:#7EDDC8"/>
		</linearGradient>
		
			<rect id="sky" x="-37.1" y="-36.2" style="fill:url(#sky_00000074402958665363168210000011724707489759824033_);" width="1999.9" height="1251.8"/>
		<g id="background">
			<g id="bg-mountains">
				
					<linearGradient id="SVGID_00000088111422329631409320000003498762686898514825_" gradientUnits="userSpaceOnUse" x1="1711.394" y1="665.662" x2="1711.394" y2="62.5742">
					<stop  offset="0.2919" style="stop-color:#7EDDC8"/>
					<stop  offset="0.4426" style="stop-color:#7CD8C3"/>
					<stop  offset="0.6311" style="stop-color:#76C8B6"/>
					<stop  offset="0.8387" style="stop-color:#6CAFA0"/>
					<stop  offset="1" style="stop-color:#63968A"/>
				</linearGradient>
				<polygon style="fill:url(#SVGID_00000088111422329631409320000003498762686898514825_);" points="2091.2,93 1860.5,62.6 
					1765,93 1724.3,128.5 1608.8,134.8 1579.9,185.4 1512.8,208.4 1477.5,254.3 1389.4,275.8 1331.6,665.7 2072.4,665.7 				"/>
				
					<linearGradient id="SVGID_00000173852367602498435880000004537695096913893552_" gradientUnits="userSpaceOnUse" x1="430.7845" y1="603.2847" x2="430.7845" y2="133.7705">
					<stop  offset="0.2919" style="stop-color:#7EDDC8"/>
					<stop  offset="0.4426" style="stop-color:#7CD8C3"/>
					<stop  offset="0.6311" style="stop-color:#76C8B6"/>
					<stop  offset="0.8387" style="stop-color:#6CAFA0"/>
					<stop  offset="1" style="stop-color:#63968A"/>
				</linearGradient>
				<polygon style="fill:url(#SVGID_00000173852367602498435880000004537695096913893552_);" points="34.5,395.5 101.4,334.8 
					136.4,270.7 197,254.3 227.1,194.5 284.5,184.2 314.4,133.8 588.9,133.8 637.1,169 694.3,169 707.2,194.5 729.1,194.5 
					771.3,226.4 827,603.3 34.5,577.7 				"/>
			</g>
			<path class="st4" d="M675.5,509.8h-39V368.4c0-10.8,8.7-19.5,19.5-19.5h0c10.8,0,19.5,8.7,19.5,19.5V509.8z"/>
			<path class="st5" d="M646.4,467h-93.2V302.3c0-25.7,20.9-46.6,46.6-46.6h0c25.7,0,46.6,20.9,46.6,46.6V467z"/>
			
				<linearGradient id="SVGID_00000075143222921617454140000002157607867968088472_" gradientUnits="userSpaceOnUse" x1="588.5824" y1="267.5497" x2="588.5824" y2="408.3818">
				<stop  offset="0" style="stop-color:#D6D6D6"/>
				<stop  offset="1" style="stop-color:#FFFFFF;stop-opacity:0"/>
			</linearGradient>
			<path style="fill:url(#SVGID_00000075143222921617454140000002157607867968088472_);" d="M612,272.9c-0.2,0-0.3,0-0.5,0
				c-20.3-0.3-37,16.9-37,37.2v98.3h-11.1V304.8c0-20.2,16.5-37.3,36.6-37.2c4.4,0,8.6,0.8,12.5,2.3
				C614.4,270.5,613.9,273,612,272.9z"/>
			<path class="st4" d="M566.2,463.3h-39V321.9c0-10.8,8.7-19.5,19.5-19.5h0c10.8,0,19.5,8.7,19.5,19.5V463.3z"/>
			<path class="st7" d="M535.9,508.5h-39V367.1c0-10.8,8.7-19.5,19.5-19.5l0,0c10.8,0,19.5,8.7,19.5,19.5V508.5z"/>
			<path class="st7" d="M780.3,562.8h-39V421.4c0-10.8,8.7-19.5,19.5-19.5h0c10.8,0,19.5,8.7,19.5,19.5V562.8z"/>
			<path class="st7" d="M1443.5,539.2h-39V397.7c0-10.8,8.7-19.5,19.5-19.5h0c10.8,0,19.5,8.7,19.5,19.5V539.2z"/>
			<path class="st8" d="M1385,575.7h-39V434.3c0-10.8,8.7-19.5,19.5-19.5h0c10.8,0,19.5,8.7,19.5,19.5V575.7z"/>
			<path class="st9" d="M1795.8,557.4c-12.2-23.8-44.9-37.7-75.2-49.7c-7.5-3-15.4-6-23.9-6.2c-12.8-0.3-23.9,5.9-35.7,9.7
				c-35.9,11.5-77.9,0-110.1-16.5c-4.4-2.2-8.8-4.7-11.4-8.1c-3.1-4.1-3.3-9-5.3-13.4c-4.4-9.8-16.8-16.2-28.4-21.9
				c-3-1.5-6.2-3-9.8-3.4c-4.7-0.5-8.3,0.7-11.2,2.9c-10.8,8.6-25,12.9-39.5,11.4c-22.9-2.5-49.9,2-73.9,3.6
				c-36.3,2.3-72.5-4.1-109-4.8c-45.1-0.8-89.7,7.1-134.8,7.7c-15.9,0.2-32.2-0.5-46.6-5.5c-12.6-4.4-22.9-11.8-35.1-16.9
				c-19.4-8.1-42.3-9.7-64.4-11.1c-19.5-1.3-40.8-2.2-56.8,6.1c-7.8,4-14.3,10.1-23.6,11.3c-7.3,1-14.5-1.3-21.2-3.6
				c-10.2-3.4-20.5-6.8-30.7-10.2c-7.1-2.4-14.3-4.8-21.9-6.2c-14.6-2.8-29.9-1.9-44.8-0.9c-26.3,1.8-52.5,4.1-78.7,6.8l-203.8-7.9
				h-69.8l-44.3-11.4h-55.9l-57.1-36.7l-62.9-7.7l-59.4,7.7l-19.8-68.6l-34.9,6.3L90,340.3l-41.9,5.3L33,409.1l-43.1,10v198.6
				h1805.9V557.4z"/>
			<path class="st10" d="M1445.1,530.7c-1.6,1.3-2.9,2.9-5,3.7c-4.2,1.6-9.6-0.9-13.8,0.7c-3.4,1.3-4.6,4.9-3.5,7.9
				c1,3,3.7,5.5,6.2,7.9c-7.3-0.2-16.2,0.5-18.7,5.8c-0.7,1.4-0.8,3.1-2.3,4.1c-1.3,0.9-3.2,0.9-5,0.8c-7.9-0.2-15.7-0.4-23.6-0.6
				c-4.3-0.1-8.8-0.2-12.7,1.1c-3.9,1.3-7.2,4.3-6.9,7.7c0.1,1.2,0.7,2.4,0.1,3.5c-0.8,1.6-3.3,2-5.4,2.1c-7,0.4-14.3-0.1-20.8,1.9
				s-11.9,7.5-9.7,12.8c-6.1,0.3-12.5,0.8-17.5,3.4c-5,2.6-8,8.3-4.8,12.6c2.4,3.1,7.1,4.5,10.4,7.1s-5,3.2-0.6,10.7
				c6.4,3.2,15.4,1.5,21.7-1.4c3-1.4,5.5-3.4,8.7-4.4s7.6-0.9,9.6,1.5c1.5,1.7,1.3,3.9,2.1,5.8c2.5,6.2,12.7,7.4,20.8,7.6
				c8.1,0.3,18.4,2.3,19.7,8.7c0.3,1.7-0.1,3.4,0.2,5.1c0.8,3.7,5.3,6.4,9.7,7.6c4.5,1.3,9.3,1.6,13.7,3c8.1,2.6,13.9,8.3,20.4,13.1
				s15.4,8.8,23.5,6.6c6.3-1.7,10.4-6.7,16.8-8c13.7-2.8,28.1,12.8,40.6,7.7c6.9-2.8,9-11,16.6-12.4c2.7-0.5,5.5,0,8.3,0.6
				c7.1,1.5,14.6,3.6,21.6,2.3c7.1-1.3,12.9-7.8,9.1-12.9c-2.8-3.8-10-6.4-8.7-10.5c6.3-1.6,13.2-1.4,19.8-2.1
				c6.6-0.7,13.6-2.5,17.1-6.9c3.6-4.4,1.6-11.8-4.8-13.4c-4.7-1.2-11.7,0.1-13.2-3.7c-1.2-3.1,3.3-6.7,0.6-9.1
				c-1-0.8-2.5-1.1-3.9-1.2c-4.2-0.4-8.5-0.1-12.6-1.1s-8.1-3.5-8.6-6.8c-0.5-4.1,4.3-8.4,1.4-11.8c-1-1.2-2.8-1.9-4.4-2.5
				c-6.4-2.3-13.1-3.9-19.9-4.9c-1.8-0.3-3.8-0.6-4.8-1.8c-2.2-2.5,2-5.2,5.4-6.2c5.5-1.6,11-3.3,16.5-4.9c2.7-0.8,5.9-2.2,5.7-4.5
				c-0.1-1.2-1-2.2-2.1-3c-6.3-5.2-16.3-6.3-25.2-5.7c-8.9,0.7-17.5,2.7-26.5,2.5c0.6-4.2,5.5-7.6,10.9-7.6c2.2,0,4.6,0.5,6.4-0.3
				c4.1-1.9,0.3-7.4-4.4-8.4c-4.7-1-9.8,0.1-14.4-1.2c-4.5-1.4-7.4-5-12-6.3c-3.8-1.1-7.4-0.2-10.9,0.8c-3.2,0.9-5.7,1-8.9-0.6
				c-4.7-2.3-8.9-4.7-14.5-5.3C1454.1,527.2,1448.7,528,1445.1,530.7z"/>
			<g>
				<path class="st10" d="M363,490.2c-1.5-9-9.7-15.2-14.2-23.1c-7.2-12.5-4-29.9,7.1-39.1l-7.7-4.8c1.6,3.9-2,7.8-5.1,10.7
					c-5.9,5.4-11.6,12.1-11.9,20.1c-0.2,7.1,3.9,13.5,7.3,19.8s6.1,13.9,3,20.4L363,490.2z"/>
				<path class="st10" d="M419.8,412.9c-3.6-2.9-8.3-3.4-12.7-4.4c-0.9-0.2-1.7-0.4-2.6-0.7c0.5-0.1,0.9-0.3,1.4-0.5
					c4.5-1.9,7.9-7.8,5.8-12.9c-2.7-6.4-10.7-6.3-16.7-5.2c0.2,0-2.2-3.6-2.5-3.9c-1.2-1.2-2.6-2-4-2.6c-3-1.1-5.9-0.7-8.6,1
					c-0.8-5-5.8-9-10.1-8.2c-4.7,0.9-8.7,3.5-13.6,3.6c-3.9,0.1-5.8-2.9-9.3-4.1c-2.2-0.8-5.1,1.1-4.2,3.4
					c-6.5-1.3-13.1-1.5-19.5-0.3c-0.5,0.1-1,0.4-1.5,0.8c-2.6,2.1-3,5.9-1.2,8.7c0.4,0.6-2.7-0.9-6.5-1.3c-0.6-0.1-1.3-0.1-1.9,0
					c-2.6,0.2-3.1-0.3-5.8,1.9c-3.5,2.7-6.4,5.3-6.5,9.9c-0.1,3,1.6,4.7,3.9,5.8c-0.5,0.4-0.9,0.8-1.4,1.1c-1,0.8-2,1.6-2.6,2.8
					c-1.5,2.8,0,6.9,2.5,8.9c2.6,2,5.8,2.3,8.8,2c2.6-0.2,5.1-0.9,7.5-1.9c1.5,3.9,7,4.6,11,4.7c1.7,0,3.3-0.3,4.7-0.7c0,0,0,0,0,0
					c-2.5,2.7-1.6,7.1,1.8,8.6c2.7,1.1,5.7,1.1,8.1-0.4c1.9-1.2,3.5-3.2,5.7-3.2c2.1-0.1,4,1.6,6,2.5c2,0.9,4.9,0.1,4.9-2.2
					c3.4,4.4,9.8,5.3,13.8,2c4.3,4.1,11.7,2.4,13.8-3.2c2.6,3.6,8.5,0.3,7.9-4.2c-0.2-1.3-0.7-2.3-1.5-3.2c1.5-0.3,3-0.4,4.5-0.1
					c2.6,0.4,5,1.7,7.5,2.5c3.9,1.1,8.2,0.9,11.9-0.7c1.4-0.6,3-1.6,2.5-3.6C420.9,414.2,420.4,413.5,419.8,412.9z"/>
			</g>
			<g>
				<path class="st10" d="M201.3,565.6c-1.5-9-9.7-15.2-14.2-23.1c-7.2-12.5-4-29.9,7.1-39.1l-7.7-4.8c1.6,3.9-2,7.8-5.1,10.7
					c-5.9,5.4-11.6,12.1-11.9,20.1c-0.2,7.1,3.9,13.5,7.3,19.8c3.4,6.3,6.1,13.9,3,20.4L201.3,565.6z"/>
				<path class="st10" d="M258,488.3c-3.6-2.9-8.3-3.4-12.7-4.4c-0.9-0.2-1.7-0.4-2.6-0.7c0.5-0.1,0.9-0.3,1.4-0.5
					c4.5-1.9,7.9-7.8,5.8-12.9c-2.7-6.4-10.7-6.3-16.7-5.2c0.2,0-2.2-3.6-2.5-3.9c-1.2-1.2-2.6-2-4-2.6c-3-1.1-5.9-0.7-8.6,1
					c-0.8-5-5.8-9-10.1-8.2c-4.7,0.9-8.7,3.5-13.6,3.6c-3.9,0.1-5.8-2.9-9.3-4.1c-2.2-0.8-5.1,1.1-4.2,3.4
					c-6.5-1.3-13.1-1.5-19.5-0.3c-0.5,0.1-1,0.4-1.5,0.8c-2.6,2.1-3,5.9-1.2,8.7c0.4,0.6-2.7-0.9-6.5-1.3c-0.6-0.1-1.3-0.1-1.9,0
					c-2.6,0.2-3.1-0.3-5.8,1.9c-3.5,2.7-6.4,5.3-6.5,9.9c-0.1,3,1.6,4.7,3.9,5.8c-0.5,0.4-0.9,0.8-1.4,1.1c-1,0.8-2,1.6-2.6,2.8
					c-1.5,2.8,0,6.9,2.5,8.9c2.6,2,5.8,2.3,8.8,2c2.6-0.2,5.1-0.9,7.5-1.9c1.5,3.9,7,4.6,11,4.7c1.7,0,3.3-0.3,4.7-0.7c0,0,0,0,0,0
					c-2.5,2.7-1.6,7.1,1.8,8.6c2.7,1.1,5.7,1.1,8.1-0.4c1.9-1.2,3.5-3.2,5.7-3.2c2.1-0.1,4,1.6,6,2.5c2,0.9,4.9,0.1,4.9-2.2
					c3.4,4.4,9.8,5.3,13.8,2c4.3,4.1,11.7,2.4,13.8-3.2c2.6,3.6,8.5,0.3,7.9-4.2c-0.2-1.3-0.7-2.3-1.5-3.2c1.5-0.3,3-0.4,4.5-0.1
					c2.6,0.4,5,1.7,7.5,2.5c3.9,1.1,8.2,0.9,11.9-0.7c1.4-0.6,3-1.6,2.5-3.6C259.2,489.6,258.6,488.8,258,488.3z"/>
			</g>
		</g>
		<g id="midground">
			<g>
				<path class="st11" d="M1574.2,318.1c-14.4,0.8-28.8,1.6-43.1,2.4c-4.1,0.2-8.6,0.6-11.2,3.3c-2.6,2.7-0.8,8.2,3.2,7.8l-5.3,8.1
					c3.5,3,7.9,5.1,12.7,6c-15.8,15.4-52.6,1.7-64.8,19.4c8.3,9.9,24.5,13.2,38.1,9.8c6.6-1.7,13.1-4.7,19.9-4
					c6.8,0.7,12.9,8.1,8.4,12.6c-8.9-1.2-22.5,2.2-19.1,9.5l27.2,2.3c1.4,4-4.4,6.9-9,8.1c-15.1,3.9-30.2,7.9-45.3,11.8
					c7.1,11.2,26.3,8.8,39.5,3.3c13.2-5.5,28.6-12.8,41.4-6.7c-1.4,1.9-3.3,3.6-5.5,4.9c-4.3,2.6-3.7,8.3,1,10.3l0,0
					c11.1,4.9,22.2,9.7,33.3,14.6c4.6,2,9.4,4.1,14.5,3.9c3.6-0.1,7.1-1.3,10.7-1.7c7.5-0.8,14.8,2.2,22,4.4
					c10.9,3.4,22.4,5.2,34,5.3c6.8,0.1,9.2-7.9,3.3-10.7c-2.3-1.1-4.7-1.9-7.3-2.3c6.5-2.7,14.2-0.5,21,1.8c8.2,2.8,17.7,5.8,25.3,0
					c3.9-2.9,4.2-8.1,0.4-11.1c-3.8-3-8.5-1.3-12.9-1.1c-9.3,0.5-18.2-6.9-18.1-15c11.9,1.9,24.1,2.6,36.3,2
					c3.1-0.2,6.2-0.4,8.9-1.8c2.7-1.4,4.5-3.8,6.9-5.6c13.7-10.7,35.1,0.8,53.5-0.5c7.4-0.5,15.7-8.4,9.8-12.4
					c2.3-3.9,8.3-4.2,13.2-4.9c5.5-0.8,12.3-4.8,8.4-9.6c-1.9-2.3-5.3-3.3-8.5-2.7c-14.9,2.6-21.3-11.4-33.1-16.3
					c-6.5-2.7-14-2.3-21.5-1.6c-8.1,0.8-10-9.7-2-11c6.9-1.1,13.9-1.4,20.8-0.9c1.3,0.1,2.5-0.5,3.2-1.4l0,0
					c2.4-3.5,1.7-8.1-1.6-10.9c-6.1-5.2-7.4-16-11.3-23.8c-6.2-12-22-18-36.9-19.9c-16-2-32.2-1-47.9-4.9c-7.6-1.9-15.5-4.6-23.5-3
					c-6.6,1.3-12.8,4.9-19,7.3c-8.5,3.3-17,5.9-26.4,6.1c-12.3,0.3-25.1-3.2-37.3-1.2c-6.3,1-12.5,4-13.4,10
					C1566.4,312.3,1568.7,317.7,1574.2,318.1z"/>
				<path class="st11" d="M1597,579.4c2.6-6.8-0.5-14-4.9-20.2c-8.9-12.4-23.1-22.4-32.9-34.4c-9.9-12-14.8-28-4.1-39.6
					c9-9.7,26-13.4,37.6-21.5c10.6-7.4,16-18.7,14-29.3l37.6,3.5c-0.3,10.5-11.2,19.1-22.4,25.8c-11.2,6.6-23.8,12.9-29.8,22.4
					c-4.6,7.3-4.7,15.7-2.9,23.6c1.6,7.3,4.7,14.4,9.9,20.7c8.4,10,21.6,17.2,32.1,26c10.5,8.8,18.5,21,13.3,32L1597,579.4z"/>
			</g>
			<path class="st12" d="M1317.9,507.3c-8.1-11.4-26.1-16.8-43.1-17.1c-16.9-0.4-33.5,3.2-50.2,5.2c-48.8,5.8-98.4-2.3-147.7-3.8
				c-62.5-1.9-124.7,6.6-186.3,15.2c-8.6,1.2-17.7,2.6-24,7.2c-4.5,3.2-7,7.7-10.4,11.6c-14.5,16.6-43.6-21.8-69.7-23.1
				s-51.3-7.6-77.4-8.5c-50.2-1.8-132.5-4.7-181.9,2.5c-62.8,9.1-159.6-17.8-223.6-18.8c-138.8-2.1-276.1,24.3-415,24.3l67.1,305.6
				h1362l1.9-295.6L1317.9,507.3z"/>
			<g>
				<path class="st8" d="M1001.7,557.3h-88.1V311.4c0-22.8,18.5-41.2,41.2-41.2h5.7c22.8,0,41.2,18.5,41.2,41.2V557.3z"/>
				<path class="st13" d="M1240.6,556.4h-75V218.3c0-20.7,16.8-37.5,37.5-37.5h0c20.7,0,37.5,16.8,37.5,37.5V556.4z"/>
				<path class="st8" d="M1265.4,556.4h-37.5V345.2c0-10.4,8.4-18.8,18.8-18.8h0c10.4,0,18.8,8.4,18.8,18.8V556.4z"/>
				<path class="st5" d="M1178.9,556.4h-156.1V194.5c0-43.1,34.9-78,78-78h0c43.1,0,78,34.9,78,78V556.4z"/>
				
					<linearGradient id="SVGID_00000055672224166408845110000007679768343485950373_" gradientUnits="userSpaceOnUse" x1="1080.0565" y1="131.499" x2="1080.0565" y2="374.7125">
					<stop  offset="0" style="stop-color:#D6D6D6"/>
					<stop  offset="1" style="stop-color:#FFFFFF;stop-opacity:0"/>
				</linearGradient>
				<path style="fill:url(#SVGID_00000055672224166408845110000007679768343485950373_);" d="M1119.1,140.8c-0.3,0-0.5,0-0.8,0
					c-34.3,1-61.3,29.7-61.3,64v169.9h-19.2V195.6c0-35,28.7-64.4,63.7-64.1c6.5,0.1,12.7,1.1,18.5,3
					C1123.5,135.6,1122.7,140.7,1119.1,140.8z"/>
				<path class="st15" d="M1045.8,557.3h-88.1V258.1c0-22.8,18.5-41.2,41.2-41.2h5.7c22.8,0,41.2,18.5,41.2,41.2V557.3z"/>
				<path class="st8" d="M1087.6,557.3h-77.2V384.5c0-21.3,17.3-38.6,38.6-38.6l0,0c21.3,0,38.6,17.3,38.6,38.6V557.3z"/>
				
					<linearGradient id="SVGID_00000084489144701861103180000016551039186556801456_" gradientUnits="userSpaceOnUse" x1="994.6528" y1="231.3705" x2="994.6528" y2="369.7963">
					<stop  offset="0" style="stop-color:#FFFFFF"/>
					<stop  offset="1" style="stop-color:#FFFFFF;stop-opacity:0"/>
				</linearGradient>
				<path style="fill:url(#SVGID_00000084489144701861103180000016551039186556801456_);" d="M1017.7,236.7c-0.1,0-0.3,0-0.4,0
					c-20-0.3-36.4,16.6-36.4,36.6v96.6H970V268c0-19.6,15.4-36.2,35-36.6c4.7-0.1,9.2,0.7,13.3,2.2
					C1020,234.2,1019.5,236.7,1017.7,236.7z"/>
				
					<linearGradient id="SVGID_00000103962289635740193760000015523083065712718524_" gradientUnits="userSpaceOnUse" x1="1178.4462" y1="193.6397" x2="1178.4462" y2="289.7889" gradientTransform="matrix(-1 0 0 1 2389.0789 0)">
					<stop  offset="0" style="stop-color:#FFFFFF"/>
					<stop  offset="1" style="stop-color:#FFFFFF;stop-opacity:0"/>
				</linearGradient>
				<path style="fill:url(#SVGID_00000103962289635740193760000015523083065712718524_);" d="M1194.5,197.3c0.1,0,0.2,0,0.3,0
					c14-0.3,25.4,11.5,25.4,25.5v67h7.6v-70.6c0-13.8-11-25.4-24.8-25.5c-3.2,0-6.2,0.6-9,1.6C1193,195.7,1193.3,197.4,1194.5,197.3
					z"/>
			</g>
			<path class="st12" d="M893.7,519.9c11.3-5.1,43.6-5,54.9,0.2c5.4,2.5,10.4,6.2,16.2,7.4c7.4,1.6,15-1.1,22.3-3.3
				c27.5-8.4,56.5-11.5,85.1-9c18.9,1.7,37.7,5.7,56.6,3.6c11.4-1.3,22.4-4.9,33.7-6.6c40.8-5.9,82.6,16.1,114.8-10.9v125.9H893.7
				V519.9z"/>
			<g>
				<path class="st18" d="M893.7,519.9c3.7-1.7,7.8-2.5,11.8-3.2c4.1-0.6,8.1-1,12.2-1.2c4.1-0.2,8.2-0.2,12.3,0
					c4.1,0.2,8.2,0.6,12.3,1.4c0.5,0.1,1,0.2,1.5,0.3l1.5,0.4c1,0.2,2,0.6,3,1c2,0.8,3.8,1.8,5.6,2.7c3.6,1.9,7.2,3.8,10.9,4.5
					c3.7,0.7,7.6,0.4,11.4-0.5c3.8-0.9,7.6-2.2,11.6-3.4c15.7-4.9,32-8,48.5-9.3c8.2-0.7,16.5-0.8,24.7-0.5
					c8.2,0.3,16.5,1.1,24.6,2.1c8.1,1,16.2,2.1,24.2,2.5c4,0.2,8,0.3,12,0.1c4-0.1,7.9-0.6,11.9-1.2c7.9-1.3,15.8-3.4,24-4.9
					c4.1-0.7,8.3-1.2,12.4-1.5c4.2-0.2,8.3-0.2,12.4,0c8.3,0.3,16.4,1.3,24.5,2.2c8.1,1,16.2,2,24.3,2.3c8.1,0.4,16.2,0,24.1-1.9
					c7.9-1.8,15.3-5.6,21.7-10.6c-3.1,2.7-6.4,5.1-10,7.1c-3.6,2-7.4,3.6-11.4,4.8c-7.9,2.3-16.3,3.1-24.5,3
					c-16.5-0.1-32.7-2.9-48.8-3.1c-4-0.1-8.1,0-12,0.3c-4,0.3-7.9,0.8-11.9,1.6c-7.9,1.5-15.8,3.7-24,5.2c-4.1,0.8-8.3,1.2-12.5,1.4
					c-4.2,0.2-8.3,0.1-12.5-0.1c-8.3-0.4-16.4-1.5-24.5-2.5c-8.1-1-16.1-1.9-24.2-2.2c-8.1-0.3-16.2-0.2-24.2,0.3
					c-16.1,1-32.1,3.9-47.7,8.3c-3.9,1.1-7.8,2.4-12,3.2c-4.1,0.8-8.6,1.2-12.9,0.2c-4.3-1-8-3.2-11.5-5.2c-1.8-1-3.5-2-5.3-2.8
					c-0.9-0.4-1.8-0.8-2.7-1l-1.4-0.4c-0.5-0.1-1-0.2-1.5-0.4c-7.8-1.8-16-2.3-24.1-2.4c-4.1,0-8.1,0.1-12.2,0.6
					C901.6,517.8,897.6,518.4,893.7,519.9z"/>
			</g>
			<path class="st19" d="M1336.6,559.5v338.8H350.5l4.2-181.8c5.9-17.7,28.5-22.5,47.1-22.5c18.6,0,40.1,0.8,52.5-13
				c4.3-4.7,7-10.8,11.7-15.1c14.4-13.2,37.9-3.8,56.8-8.9c11.1-3,20.1-11,30.3-16.4c23.5-12.6,51.6-11.2,78.2-10.3
				c38,1.2,76,0.4,113.9-2.2c10.3-0.7,20.9-1.6,30.2-6.1c7.8-3.7,14.4-9.8,22.4-12.9c3-1.2,6.1-1.9,9.2-2.2
				c15.1-1.8,31.2,4.2,46.9,4.8c5.8,0.2,11.5-0.4,17.2-1.4c10.7-2,21.1-5.7,31.4-9.4c29.2-10.5,58.4-21,87.6-31.6
				c13.4-4.8,27.2-9.9,37.9-19.4c3.6-3.2,24.5-3.2,29-4.9c4.7-1.8,9.3-3.1,14-4.1c5.8-1.2,11.7-1.9,17.7-2.1
				c10-0.3,20.5,0.6,31.7,2.4c23.3,3.6,33-2.5,56.3,1.2c4.1,0.6,8.3,1.3,12.5,1.1c5.2-0.3,10.3-1.9,15.3-3.5
				c13.9-4.3,27.9-8,42-11.8c5.9-1.6,11.9-3.2,17.8-4.7c18.2-4.8,36.6-9.7,55.3-11.6C1331.6,525.2,1328.1,544.9,1336.6,559.5z"/>
			<path class="st20" d="M809.3,674.2c0,0,8.1,5.4,12.3,17.8s19.6,21.4,31.9,23.7c12.3,2.3,27.7,28.3,27.7,28.3v146.4h-354
				l35.4-156.5L809.3,674.2z"/>
			<path class="st11" d="M594.6,701.5c-1.6-1.1-3.8-1.4-5.8-1.7c-10.9-1.4-22-1.8-33-1.3c-1,0-2,0.1-2.8-0.3c-1.6-0.7-1.8-2.5-2.2-4
				c-1.5-4.9-8.6-7.8-14-5.8c-0.5,0.2-1.1,0.5-1.6,0.7c-1.9-4.8-5.1-9.7-8.3-13.3c-0.5-0.6-1-1.1-1.6-1.7c4.1-0.9,7.8-3.1,7.5-6.5
				c-0.4-4.5-7.1-6.1-12.4-6.5c2.7-3.5,0.4-8.5-3.6-10.9c-4-2.4-9-3-13.9-3.5c3.8-0.3,4.7-5.2,2.1-7.6s-6.8-2.7-10.6-2.8
				c-11.4-0.3-22.8,0.4-34,2.1c-4.4,0.7-9.1,1.8-12.8,3.8c-3.6-2.1-7.5-3.4-11.5-4.2c-4.6-0.8-9.3-1.1-14-0.5c-0.1,0-0.3,0-0.4,0.1
				c0.3-3.2,0.2-6.9-2.4-8.1c-2.8-1.4-6.3,0.7-9,1.1c-2.9,0.4-5.7-0.9-8.6-1.3c-2.5-0.4-5.1-0.4-7.6,0.1c-2.7,0.5-5.2,1.4-7.2,3
				c-0.3-0.4-0.5-0.8-0.8-1.2c-5-7.2-11.6-10.7-18-10.8c-6.1-0.1-12.4,2.9-17.4,9.2c-1.2,1.5-2.3,3.2-3.1,5.1
				c-3.3-0.6-6.8-0.6-10.3-0.6c-5,0.4-10.3,1.7-13.8,5.4c-4.5,4.7-4.8,11.9-4.6,18.4c-4.7-7.1-14.9-7.9-23.1-5.9
				c-6.5,1.6-12.8,4.5-17.6,9.2c-2.7,2.7-4.9,6.1-6.1,9.8c-0.1,0.1-0.3,0.1-0.4,0.2c-8.8-10.7-23.4-12.3-33.6-3.9
				c-3.5-6.5-10-9.9-16-8.4c-2,0.5-4.1,1.6-6.1,1.1c-2.4-0.5-4.3-3.1-6.7-3.9c-5.5-2-18.3,12.2-13.9,17c-5.6-0.6-3.3-2.3-8.4,0.5
				c-0.5,4.1,0.3,8.4,2.2,11.8c-6.5,1.9-9.5,11.5-11.4,19.7c-1.4,5.9-2.6,12.9,0.4,17.7c2,3.1,5.2,4.3,7.3,7.3
				c1.5,2.1,2.2,4.9,3.3,7.4c3.9,8.7,12.1,13.2,19.9,12.7c7.8-0.5,15.1-5.2,21.2-11.4c8,7.3,20.5,4.1,25.8-6.4
				c4.2,7.3,12.6,9.9,18.9,6c4.4,4.7,8.9,9.5,14.4,11.7c5.5,2.2,12.1,1.3,15.9-4.3c1.4,7.2,7.6,11.6,13.4,11.5
				c5.8-0.1,11.2-3.6,16.1-7.4c0.4,8.8,6.3,16.6,13.1,17.3c-1.1,8.1,3.9,15.5,9.4,18.4c6.7,3.5,14.1,2,21.1,1.8
				c9.2-0.2,16.8-0.4,24.3-8.1c4.6-4.7,11.1-12.5,7.2-20.6c0.3,0,0.7,0,1-0.1c2.9,1.1,6,1,8.8-0.5c2.5-0.1,5-0.1,7.4,0.1
				c9.3,0.6,18.5,2.4,27.6,4.3c5.5,1.1,11,2.2,16.5,3.3c3.1,0.6,6.5,1.3,9.5,0.2c3-1.1,4.8-4.7,2.6-6.7c-1.2-1.1-3.1-2.9-1.5-3.4
				c8.6-1.5,18.7,4.3,25.7-0.3c1.3-0.8,2.3-1.9,3.7-2.6c5-2.4,13.6,0.9,15.7-3.6c1.9-4.1-5.1-6.7-10.2-7c-8.2-0.5-16.5-1-24.7-0.3
				c-3.6,0.3-7.4,0.8-10.8-0.3s-5.8-4.8-3.9-7.4c3.4-4.5,11.9,0.6,17.9-1c1.8-0.5,3.3-1.6,5-2.4c7.4-3.7,16.7-1.2,25.2,0.1
				c10.4,1.6,22.5,0.5,29.2-6.5c1.8-1.9,5.9-0.9,8-2.5c4.2-3.3,7.6-6.7,13.2-6.5c5.7,0.2,11.7,0.5,16.6-2S599.1,704.5,594.6,701.5z"
				/>
			<path class="st20" d="M1255.5,603c-0.4,12.5-4.7,22.5-11.8,32.8c-3,4.3-7,7.9-9.4,12.6c-2.3,4.6-2.9,9.9-3.4,15
				c-4.3,43.2-8.7,86.4-13,129.6c-0.1,1.4-0.3,2.8,0.2,4c1.1,2.8,4.6,3.7,7.6,4.2c30.6,4.8,61.1,9.7,91.7,14.5
				c14.7,2.3,29.4,4.7,44.2,5.8c15.9,1.2,32,1.1,47.4-2.5c1-26.4,1-52.9,0.1-79.3c-0.4-11.6-1-23.4-4-34.6
				c-2.2-8.2-5.7-16.1-6.8-24.6c-1.1-7.9-0.1-15.8,0.6-23.7c2.5-28.3,2.7-63.2-1.8-91.2L1255.5,603z"/>
			<path class="st18" d="M1487.7,606.1c-0.3,13-4.1,25-13.8,34.9c-5.7,5.7-13.7,9.2-20.7,13.6c-12.6,7.9-22.3,19.1-27.6,31.7
				c-2.8,6.6-4.6,14-10.7,18.6c-6.3,4.8-15.5,5.2-23.1,8.4c-9.6,4-16.2,12.2-19.6,21c-3.4,8.8-5,18.3-5.6,27.6h615.2l-7.2-157.9
				L1487.7,606.1z"/>
			<path class="st19" d="M1322.6,647.2c0,0-1.8,20.1-8.8,23.3c-7,3.2-19.1,7-23.5,23.5c-4.4,16.5-5.3,75.4-5.3,75.4l102.4,34.7
				L1555,806V683.5c0,0-57.4-22.2-67.4-24.7c-10-2.5-22.9-19.3-22.9-19.3s7.3-9.9,0-17.1S1322.6,647.2,1322.6,647.2z"/>
			<path class="st21" d="M1390.5,743.4c13.1,2.7,23.4-4.4,31.8-13.9c73.7-64.9,176.9,13.3,260.7-4c160.4-60.4,93.3,20.7,251.8-21.3
				v511.4H853.3V854.4c96.7-119.1,206.4-55.5,275.4-124.4c7-8.9,11.7-19.6,19.6-27.7c35.5-30.2,92.4-30.9,133.4-15.7
				c21.6,8,17.8,20.9,27.8,29.4c7.5,6.4,17,9.8,26.3,12.8C1352.1,734,1373.8,740,1390.5,743.4z"/>
			<path class="st12" d="M1981.6,532c-42.7-21.5-97-14.3-143.3,0.6c-46.3,14.9-90.2,36.9-138.9,44.1c-68.5,10-145-9.2-204.3,22.1
				c-3.3,1.8-6.8,4-7.5,7.3c-1.5,7.6,10.9,10.3,19.8,10.6c42.1,1.4,79.6,22.5,120.3,32.2c114.1,27.3,232.8-37.5,350.6-27.6
				L1981.6,532z"/>
			<path class="st20" d="M972.7,684.4c0,0-14.9,12.7-10.9,24.5c4.1,11.8,16.3,38.9,8.1,57.9c-8.2,19,63.1,8.9,63.1,8.9l28.7-63
				L972.7,684.4z"/>
			<path class="st18" d="M1205.3,709.3c8.1,18.6,16.6,37.1,16.6,37.1s28.9,37,30.9,61.1c2,24.1,0,90.8,0,90.8l-612.7,45.4l-3.6-89.2
				L810.6,758l103-13.3l93.8-24.4l86.9-46.2l26-51.5l74.4-0.4l-1.3,15.6C1191.4,662.3,1195.4,686.8,1205.3,709.3z"/>
			<path class="st22" d="M1028.3,806c0,0,31.6,7.1,35.8,62.5c4.2,55.4-94.1,38.5-94.1,38.5l-34.9-40.2l44.8-55.4L1028.3,806z"/>
			<path class="st23" d="M1174.7,659.6c0.3,9.2,1.7,18.4,3.9,27.3c5,20.3,13.9,39.5,22.7,58.5c-4.6,1.5-9.4-1.7-12.9-5
				c-15.6-14.5-25.6-34.8-27.4-56c-0.2-2.7-0.4-5.4-1.5-7.9c-5.3-11.6-25.5-6.5-32.8-16.8c-2-2.8-2.7-6.4-2.7-9.9
				c-0.1-11.7,6.6-23.2,16.9-28.8c8.9-4.8,25.3-6.6,32.1,2.9c2.7,3.8,3.2,8.6,3,13.1L1174.7,659.6z"/>
			<path class="st12" d="M701,784.5c4.4-2.6,10-2.6,15.2-3.2c19.7-2.3,35.1-13.6,49.6-24.5c14-10.5,27.7-20.8,41.2-30.9
				c3.3-2.5,6.7-5,11.1-5.9c3.5-0.7,7.6-0.4,11.5-0.1c26,2.2,52.4,4.5,79.1,6.8c21.1,1.8,42.9,3.6,60.2-1.6
				c16.2-4.9,32-9.7,10.4-26.2c-3.4-2.6-5.8-6.3-6.6-10.4c-0.3-1.5-0.3-2.9,0.2-4c0.9-2.3,3.4-3.5,6-4.4c26-9.3,86.3-7.7,105-22.8
				c4.8-3.9,7.4-9.1,10.1-14.1c7.2-13,16-25.3,33.8-30.2c7.1-2,15.7-2.8,22.6-4.8c6.8-2,16.6-1,27.3,2.1c3.4,1,6.7,1.8,9.9,2.3
				c3,0.5,5.7,2.5,6.7,5.4c2.2,6.2-4.5,10.2-13.3,10.7c-10.9,0.6-24.5-1.9-33.5,0.6c-12.9,3.5-12.5,18.2,2.8,32.1
				c3.8,3.4,6.7,7.1,8.2,10.6c5.3,12.4-14.3,6-18.5,11.5c-1.3,1.8-0.9,4.5-2,6.4c-1.8,3-7.1,3.5-12.1,3.8
				c-36.2,1.8-77.4,0.5-95.3,20.6c-8.1,9.1-11,22.1-20.5,30.7c-22.4,20.4-69.9,9.8-108.1,9.8c-3.9,0-8.1,0.2-10.1,2.8
				c-2.3,3-1,8-0.7,12.5c0.3,4.8,3.4,6.3,1.5,10c-5.6,11.5,128.7,18.9,138.3,27.4c14.6,12.8-6.8,19.7-15.3,23.7
				c-11.8,5.6-31.3,3.7-42.4,10.9c-16.6,10.7-215.9-4.1-227.4,13.7c5.9,5.1,11.8,10.2,17.8,15.5c1.8,1.6,3.9,3.6,3.4,6.2
				c-0.3,1.3-1.2,2.3-2.4,2.6c-19.6,5.1-42.9-13.3-62.6-10.3c-7.9,1.2-14.7,5.7-21.9,9.2c-21,9.9-45.1,10.1-68.4,8.1
				c-6.5-0.5-13.6-0.5-20-2.2c4.7-13,10.5-25.6,15.6-37.7c3.4-7.9,7.1-15.7,12.7-21.4c15.3-15.3,37.9-5.5,55.9-12.4
				c6.4-2.4,10.7-7.1,14-13.2C693.2,794.4,695.5,787.8,701,784.5z"/>
			<path class="st23" d="M1100.2,821.8c-2.2-17.2-5.5-34.3-5.4-51.9c0-5.5,1-12.2,4.4-14c3.9-2,7.4,4.2,9.8,9.5s6.3,11.1,10,8.2
				c0.9-0.7,1.7-2,2.8-2.4c1.2-0.5,2.4,0.3,3.5,1.2c7.4,6.1,12.4,16.9,17.3,27.3c7,15.2,14.1,30.4,21.1,45.5
				c1.3,2.9,2.7,6.8,1.3,9.6c-1.1,2.3-3.3,2.2-5.1,2.1c-12.5-0.4-24.1,8.4-35.9,13.6c-5.3,2.3-11.9,5.2-17.5,3.4
				c-5.7-1.8-5.5-8-4.8-15.3C1102.7,846.5,1101.7,834,1100.2,821.8z"/>
			<path class="st11" d="M1265.3,740.8c-1.7,1.6-3,3.8-5.1,4.8c-4.2,2.1-9.6-0.9-13.9,1.2c-3.5,1.7-4.7,6.3-3.7,10
				c1,3.7,3.5,6.8,6,9.8c-7.3,0-16.2,1-18.9,7.8c-0.7,1.8-0.9,4-2.4,5.3c-1.3,1.2-3.3,1.2-5,1.2c-7.9-0.1-15.8-0.1-23.7-0.2
				c-4.3,0-8.8-0.1-12.8,1.6c-4,1.7-7.4,5.6-7.1,9.9c0.1,1.5,0.6,3,0.1,4.4c-0.8,2-3.3,2.6-5.5,2.8c-7,0.6-14.3,0.3-20.8,2.9
				c-6.5,2.7-12.1,9.7-10,16.4c-6.1,0.6-12.6,1.3-17.7,4.7c-5.1,3.5-8.2,10.7-5.1,16c2.3,3.9,7,5.6,10.3,8.7
				c3.3,3.1-5.1,4.2-0.9,13.5c6.4,3.9,15.4,1.5,21.8-2.3c3-1.8,5.6-4.4,8.9-5.8c3.2-1.4,7.6-1.3,9.6,1.6c1.4,2.1,1.2,4.8,1.9,7.3
				c2.3,7.7,12.6,9,20.6,9.1s18.4,2.5,19.5,10.5c0.3,2.1-0.2,4.3,0.1,6.4c0.7,4.7,5.1,7.9,9.6,9.4s9.3,1.8,13.7,3.5
				c8.1,3,13.8,10.2,20.2,16c6.4,5.8,15.3,10.7,23.4,7.8c6.3-2.3,10.6-8.8,17-10.6c13.8-3.8,27.8,15.5,40.5,8.7
				c7-3.7,9.3-14.1,17-16.1c2.7-0.7,5.6-0.2,8.3,0.5c7.1,1.7,14.5,4.1,21.6,2.3c7.1-1.8,13.1-10.1,9.4-16.5c-2.7-4.7-9.9-7.8-8.5-13
				c6.4-2.2,13.3-2.1,19.9-3.1c6.7-1,13.7-3.5,17.3-9.1s1.9-14.9-4.5-16.8c-4.7-1.4-11.7,0.4-13.2-4.3c-1.2-3.9,3.5-8.6,0.8-11.5
				c-0.9-1-2.5-1.3-3.8-1.4c-4.2-0.3-8.5,0-12.6-1.1c-4.1-1.1-8.1-4.2-8.4-8.4c-0.4-5.2,4.5-10.7,1.7-15c-1-1.5-2.7-2.4-4.4-3.1
				c-6.3-2.7-13-4.6-19.8-5.7c-1.8-0.3-3.8-0.6-4.8-2.1c-2.1-3.1,2.1-6.6,5.6-8c5.5-2.2,11.1-4.4,16.6-6.6c2.7-1.1,5.9-2.9,5.8-5.8
				c-0.1-1.5-1-2.7-2-3.8c-6.2-6.5-16.2-7.6-25.1-6.6c-8.9,1-17.6,3.9-26.6,3.8c0.7-5.3,5.7-9.8,11.1-9.8c2.2,0,4.6,0.6,6.5-0.6
				c4.2-2.5,0.5-9.4-4.2-10.5c-4.7-1.1-9.8,0.4-14.4-1.2c-4.5-1.6-7.3-6.2-11.9-7.7c-3.8-1.3-7.4,0-10.9,1.3
				c-3.3,1.3-5.8,1.4-8.9-0.5c-4.6-2.8-8.8-5.7-14.4-6.3C1274.4,736,1269,737.1,1265.3,740.8z"/>
			<path class="st12" d="M486.7,732.9c21.7-12,49.3-4.9,72.4-13.8c13-5,23.7-14.8,36.8-19.7c18.9-7,40-2.8,59.9-6.2
				c12-2.1,23.4-7,35.1-10.3c19.1-5.3,39.2-6.3,59-7.2c18.2-0.8,36.3-1.7,54.5-2.5c1.7-0.1,3.6-0.1,4.9,1c3.5,2.7-0.4,8.2-4.4,10.2
				c-12.3,6.2-27.1,6.7-38.8,14.1c-11.8,7.5-20.3,21.8-34.3,22.9c-4.5,0.4-9-0.8-13.5-0.9c-21.4-0.6-36.2,20.3-54.4,31.6
				c-14.6,9-32,11.9-48.5,16.7c-49.4,14.5-94.4,48.4-145.9,47.5L486.7,732.9z"/>
			<path class="st12" d="M1306.7,578.9c-12.1,3.7-24.8,5.2-36.7,9.4c-6.9,2.4-14.6,7.3-14.5,14.6c0.1,7,7.7,12,14.7,12.1
				s13.6-3,20.3-5.3c9.9-3.5,20.5-5.2,31-5c13.3,0.2,27.7,3.1,39-3.8c3.9-2.4,7.1-5.8,10.9-8.4c9.2-6.3,22.7-9,25.6-19.8
				c1.7-6.3-1.4-13.1-6.3-17.4c-4.9-4.3-11.2-6.5-17.5-8.2c-13-3.5-28.7-6.5-42.2-4.6c0.7,8.6,8.5,14.2,1.3,22
				C1325.6,571.8,1315.9,576.1,1306.7,578.9z"/>
			<path class="st12" d="M1373.8,630.4c-12.1,2.6-24.8,3.7-36.7,6.6c-6.9,1.7-14.6,5.1-14.5,10.2c0.1,4.9,7.7,8.3,14.7,8.4
				c7,0.1,13.6-2.1,20.3-3.7c9.9-2.4,20.5-3.6,31-3.5c13.3,0.1,27.7,2.2,39-2.7c3.9-1.7,7.1-4,10.9-5.9c9.2-4.4,22.7-6.3,25.6-13.8
				c1.7-4.4-1.4-9.2-6.3-12.2c-4.9-3-11.2-4.5-17.5-5.7c-13-2.4-26.3-4.7-39.8-3.4c-0.6,6.2,2.4,10.7-4.3,16.3
				C1389.9,626.4,1383.1,628.4,1373.8,630.4z"/>
			<path class="st10" d="M877.4,517.8c-1.2-0.7-2.7-1-4.2-1.1c-7.9-1-15.9-1.3-23.9-0.9c-0.7,0-1.4,0.1-2-0.2
				c-1.1-0.5-1.3-1.8-1.6-2.8c-1.1-3.4-6.2-5.4-10.1-4c-0.4,0.1-0.8,0.3-1.2,0.5c-1.3-3.3-3.7-6.7-6-9.2c-0.4-0.4-0.7-0.8-1.1-1.1
				c3-0.6,5.6-2.1,5.4-4.5c-0.3-3.1-5.1-4.2-8.9-4.5c1.9-2.4,0.3-5.8-2.6-7.5c-2.9-1.7-6.5-2.1-10.1-2.4c2.7-0.2,3.4-3.6,1.5-5.3
				s-4.9-1.9-7.7-1.9c-8.2-0.2-16.5,0.3-24.6,1.5c-3.2,0.5-6.6,1.2-9.2,2.7c-2.6-1.5-5.4-2.4-8.3-2.9c-3.3-0.6-6.8-0.7-10.1-0.4
				c-0.1,0-0.2,0-0.3,0c0.2-2.2,0.2-4.7-1.7-5.6c-2-0.9-4.6,0.5-6.5,0.8c-2.1,0.3-4.1-0.6-6.2-0.9c-1.8-0.3-3.7-0.3-5.5,0
				c-2.1,0.3-4,1.1-5.6,2.3c-3.2,2.5-3.9,7.2-0.7,9.8c-7.1-0.3-14.2-0.5-21.3-0.8c-3.5-0.1-7.3-0.2-10.2,1.4
				c-2.9,1.6-3.8,5.7-0.8,7.2c-2.2,0.8-3.4,2.9-2.9,4.7c0.6,1.9,2.9,3.3,5.2,3.1c-0.2,1.1-0.5,2.2-0.7,3.3
				c-9.2,0.3-18.5,0.5-27.7,0.8c-4.4,0.1-9.6,0.7-11.6,3.9c-2,3.4,1.3,7.5,5.6,8.9c4.3,1.3,9.1,0.6,13.6,0
				c5.4-0.7,10.8-1.2,16.2-1.6c0.7-0.1,1.5-0.1,2.2,0.2c2,0.9,0.4,3.5-1.7,4.3c-2.1,0.8-4.7,1.1-5.7,2.8c-0.9,1.5,0.3,3.5,2.2,4.3
				c1.8,0.8,4.1,0.7,6.1,0.4c1.7-0.2,3.6-0.5,5.1,0.1c1.6,0.6,2.2,2.7,0.7,3.4c-3.1-1.9-8.2-0.9-10,1.9c-5.3-0.7-12.3-0.7-14.3,3.4
				c-1.1,2.2,0.1,4.9,2.3,6.5c2.2,1.6,5.3,2.2,8.2,2.3c6.5,0.1,12.6-2.2,18.3-4.7c2.2-1,4.5-2,7-2c2.5,0.1,5,1.9,4.5,3.9
				c-3.1,0.3-6.4,0.7-8.9,2.3c-2.4,1.6-3.4,4.9-1.2,6.7c2.9,2.3,7.7,0.2,11.9,0.2c5.8-0.1,10.6,3.9,13.5,8.2c0.8,1.2,2,2,3.4,2.3
				l0,0c6.8,0,13.8-1.1,20.6-0.7c6.8,0.4,13.4,1.7,20,3c4,0.8,8,1.5,11.9,2.3c2.3,0.4,4.7,0.9,6.9,0.1c2.1-0.8,3.5-3.2,1.9-4.6
				c-0.9-0.8-2.3-2-1.1-2.4c6.2-1,13.6,3,18.6-0.2c0.9-0.6,1.6-1.3,2.7-1.8c3.6-1.7,9.8,0.6,11.4-2.5c1.4-2.8-3.7-4.6-7.4-4.8
				c-5.9-0.3-11.9-0.7-17.9-0.2c-2.6,0.2-5.4,0.6-7.8-0.2s-4.2-3.3-2.8-5.1c2.5-3.1,8.6,0.4,12.9-0.7c1.3-0.3,2.4-1.1,3.6-1.7
				c5.4-2.6,12.1-0.8,18.3,0.1c7.5,1.1,16.3,0.3,21.1-4.5c1.3-1.3,2.2-2.8,3.7-3.9c3-2.3,7.5-2.4,11.6-2.3c4.1,0.1,8.5,0.4,12-1.3
				S880.7,519.8,877.4,517.8z"/>
			<path class="st23" d="M1044.5,716.6c-6.2,12.9-5.1,28.3-0.8,42c2.6,8.2,6.3,16.1,6.9,24.7c-4.6-1.8-8.4-5.4-10.4-9.9
				c-1.2-2.6-1.7-5.4-2.3-8.1c-2.4-12.2-4.5-24.4-6.2-36.7c-0.6-4.4-1.2-9,0.4-13.2c1.6-4.1,5-7,8.8-9c1.7-0.9,4.3-2.5,6.2-2.4
				c2.1,0,2.4,2.5,1.8,4.1C1047.8,711,1045.9,713.7,1044.5,716.6z"/>
			<path class="st20" d="M867.2,628.2c-2,6.2-2.4,13.5-2.4,19.9c-0.7,9.2-2.8,18.2-6.3,26.7c-0.8,1.8-1.9,3.8-3.8,4.1
				c-1.8,0.2-3.3-1.2-4.5-2.5c-3.6-4.3-6.3-9.3-8-14.6c-1.3-4.2-1.9-8.6-4.4-12.2c-2.3-3.2-5.8-5.3-9-7.7
				c-11.4-8.4-19.4-21.2-22-35.1c15.1-1.8,31.2,4.2,46.9,4.8c5.8,0.2,11.5-0.4,17.2-1.4c1,1.3,1.8,2.7,2,4.4
				C873.6,619.6,868.6,623.6,867.2,628.2z"/>
			<path class="st20" d="M1085,593.8c-1.4,3.7-4.5,7.6-7.8,6.1c1-11.1,0.7-22.4-0.9-33.4c-0.8-5.5-1.8-11-3.2-16.4
				c-0.8-2.9-1.8-6.1-2.2-9.2c5.8-1.2,11.7-1.9,17.7-2.1c1.7,6.4-0.4,14.1-0.5,20.7C1088,570.9,1089,582.9,1085,593.8z"/>
		</g>
		<g id="midground-stone-2">
			<g>
				<polygon class="st24" points="1447.7,787.1 1472.3,772.5 1472.5,772.4 1472.7,772.4 1488.3,774.1 1487.5,774.5 1496.1,761 
					1496.3,760.6 1496.7,760.5 1505.2,758 1504.5,758.7 1508,750.9 1508.3,750.2 1509.2,750.2 1525,750.4 1524.9,753.4 
					1509.1,752.8 1510.3,752 1506.6,759.7 1506.4,760.2 1505.9,760.3 1497.3,762.6 1497.9,762.1 1488.9,775.4 1488.6,775.9 
					1488.1,775.8 1472.6,773.7 1473,773.6 1448,787.6 				"/>
			</g>
			<g>
				<polygon class="st24" points="1641.3,744.8 1673.2,748.1 1673.7,748.2 1674,748.6 1679.6,756.5 1679,756.1 1697.1,760.2 
					1697.4,760.3 1697.6,760.6 1705.1,773.9 1704.5,773.5 1725.5,773.7 1725.6,773.7 1725.7,773.8 1743.2,783.3 1742.9,783.8 
					1725.2,774.6 1725.5,774.7 1704.5,774.9 1704.1,774.9 1703.9,774.6 1696.1,761.5 1696.7,761.9 1678.6,758.1 1678.2,758.1 
					1677.9,757.7 1672.1,749.9 1673,750.4 1641,747.8 				"/>
			</g>
			<path class="st5" d="M1646.1,785.9h-129.4v-97.2c0-35.7,29-64.7,64.7-64.7h0c35.7,0,64.7,29,64.7,64.7V785.9z"/>
			<polygon class="st21" points="1513,771.9 1536.8,769.4 1540.1,777.4 1547.7,777.4 1555.3,785.9 1565.8,785.9 1620.6,783.8 
				1657.5,759.2 1666.9,759.2 1677.7,769.1 1680.6,778.7 1692.9,782.1 1692.9,810.9 1490.4,810.9 			"/>
			
				<linearGradient id="SVGID_00000051355432865700790300000018218424240113415085_" gradientUnits="userSpaceOnUse" x1="1564.3341" y1="640.224" x2="1564.3341" y2="743.8785">
				<stop  offset="0" style="stop-color:#D6D6D6"/>
				<stop  offset="1" style="stop-color:#FFFFFF;stop-opacity:0"/>
			</linearGradient>
			<path style="fill:url(#SVGID_00000051355432865700790300000018218424240113415085_);" d="M1594.6,647.4c-0.2,0-0.4,0-0.6,0
				c-26.5,0.8-47.4,23.1-47.4,49.6v39.4c0,4.1-3.3,7.4-7.4,7.4l0,0c-4.1,0-7.4-3.3-7.4-7.4v-46.6c0-27.1,22.2-49.9,49.4-49.6
				c5,0.1,9.8,0.9,14.3,2.3C1598,643.4,1597.4,647.4,1594.6,647.4z"/>
			<polygon class="st21" points="1512.5,769.1 1518,773.4 1536.8,769.4 1540.1,777.4 1547.7,777.4 1555.6,785 1566.1,785 
				1572.5,778.1 1593.4,778.1 1598,782.7 1610.3,781.5 1612,777.1 1633.9,774.9 1638.9,766.4 1645.3,765.5 1657.5,759.2 
				1668.2,757.8 1685.6,771.9 1687,799.4 1495.1,799.4 			"/>
			<g>
				<polygon class="st24" points="1689.3,769.4 1676.8,767.4 1676.7,767.4 1676.6,767.3 1667.9,758.1 1668.2,758.2 1657.6,759.6 
					1657.7,759.6 1645.6,766 1645.5,766.1 1645.4,766.1 1639,767 1639.4,766.7 1634.5,775.2 1634.3,775.5 1634,775.5 1612.1,777.8 
					1612.7,777.3 1611.1,781.7 1610.9,782.2 1610.4,782.2 1598,783.6 1597.6,783.6 1597.3,783.3 1592.8,778.7 1593.4,779 
					1572.5,779.1 1573.2,778.8 1566.8,785.7 1566.5,786.1 1566.1,786.1 1555.6,786.1 1555.1,786.1 1554.8,785.8 1546.9,778.3 
					1547.7,778.6 1540.1,778.7 1539.3,778.7 1539,777.9 1535.6,769.9 1536.9,770.7 1507.9,773.9 1509,773.2 1501.6,785.8 
					1499.1,784.2 1506.6,771.8 1506.9,771.2 1507.6,771.1 1536.6,768.2 1537.6,768.1 1537.9,768.9 1541.2,777 1540.1,776.2 
					1547.7,776.3 1548.2,776.3 1548.5,776.6 1556.4,784.2 1555.6,783.9 1566.1,784 1565.3,784.3 1571.8,777.4 1572.1,777.1 
					1572.5,777.1 1593.4,777.2 1593.8,777.2 1594.1,777.5 1598.6,782.1 1597.9,781.9 1610.3,780.7 1609.6,781.2 1611.3,776.8 
					1611.5,776.4 1611.9,776.3 1633.8,774.3 1633.4,774.6 1638.4,766.1 1638.5,765.9 1638.8,765.9 1645.3,765 1645.1,765.1 
					1657.3,758.7 1657.4,758.7 1657.5,758.7 1668.1,757.4 1668.3,757.3 1668.5,757.5 1677.1,766.9 1676.9,766.8 1689.4,768.9 				
					"/>
			</g>
			<g>
				<polygon class="st24" points="1558.1,786 1548.2,796.3 1548,796.5 1547.7,796.6 1525,800.9 1524.9,800.4 1547.2,794.6 
					1546.7,794.9 1555.9,784 				"/>
			</g>
			<g>
				<polygon class="st24" points="1646.6,764.4 1661.4,776.7 1661.6,776.9 1661.6,777.1 1661.3,786.3 1661,786.3 1660.7,777.1 
					1660.9,777.4 1645.4,766 				"/>
			</g>
			<g>
				<polygon class="st24" points="1613,776.4 1632.6,787.3 1633,787.5 1633,787.9 1634.3,800.6 1633.8,800.7 1631.4,788.1 
					1631.9,788.7 1611.6,779 				"/>
			</g>
			<g>
				<polygon class="st24" points="1634.8,774.1 1640.7,784.6 1640.8,784.8 1640.8,784.8 1642.3,792.8 1641.7,792.9 1639.4,785.2 
					1639.5,785.4 1632.3,775.8 				"/>
			</g>
			<g>
				<polygon class="st24" points="1559.8,804 1564.6,784.6 1567.5,785.5 1560.4,804.2 				"/>
			</g>
			<g>
				<polygon class="st24" points="1597.6,783.6 1585.2,785 1586,784.2 1582.5,799.5 1582,799.4 1584.2,783.9 1584.3,783.3 
					1585,783.1 1597.1,780.7 				"/>
			</g>
		</g>
		<g id="midground-stone-1">
			<polyline class="st12" points="503.4,533.1 540.3,537 546.9,547.2 567.8,552.3 576.6,569.4 600.8,569.4 621.1,581.5 621.1,622.3 
				289.1,622.3 289.1,586.6 317.8,568.1 335.8,570.6 346,553.1 355.8,550 360,540 378.2,540.6 			"/>
			<g>
				<path class="st18" d="M378.2,542.6c-6.1-0.2-12.2-0.4-18.3-0.6l1.9-1.2l-4.2,10l-0.4,0.8l-0.8,0.3l-9.9,3l1-0.8
					c-3.4,5.8-6.9,11.6-10.4,17.4l-0.6,1l-1-0.2l-17.9-2.7l0.9-0.2l-7.2,4.5c-2.4,1.5-4.8,3-7.2,4.5c-2.4,1.5-4.9,2.9-7.4,4.3
					c-2.5,1.4-5,2.8-7.6,4c2.2-1.8,4.5-3.6,6.8-5.2c2.3-1.7,4.6-3.3,7-4.9c2.3-1.6,4.7-3.2,7.1-4.8l7.1-4.7l0.4-0.3l0.5,0.1l18,2.2
					l-1.6,0.8c3.3-5.9,6.7-11.7,10-17.6l0.3-0.6l0.7-0.2l9.8-3.2l-1.2,1.1l4.1-10l0.5-1.3l1.4,0c6.1,0.2,12.2,0.3,18.3,0.6
					L378.2,542.6z"/>
			</g>
			<g>
				<polygon class="st18" points="621.1,581.5 600.2,570.4 600.8,570.6 576.6,570.8 575.8,570.8 575.4,570 566.5,553 567.4,553.7 
					546.5,548.8 545.9,548.6 545.5,548.1 538.8,537.9 540.1,538.7 503.2,535.1 503.6,531.1 540.4,535.3 541.3,535.4 541.7,536.1 
					548.2,546.3 547.3,545.6 568.1,550.9 568.8,551.1 569.1,551.7 577.7,568.8 576.6,568.1 600.8,568.3 601.1,568.3 601.4,568.5 
									"/>
			</g>
			<path class="st5" d="M517.5,610.6H374.7c-8.1,0-14.6-6.5-14.6-14.6v-4.6c0-47.5,38.5-86,86-86h0c47.5,0,86,38.5,86,86v4.6
				C532.1,604,525.6,610.6,517.5,610.6z"/>
			<polygon class="st12" points="354.3,566.3 381.8,563 385.7,573.4 394.5,573.4 403.3,584.4 415.4,584.4 478.6,581.7 521.3,549.6 
				532.1,549.6 544.7,562.6 548,575.1 562.3,579.5 562.3,616.9 328.2,616.9 			"/>
			
				<linearGradient id="SVGID_00000121985003933834829670000014356697704792668831_" gradientUnits="userSpaceOnUse" x1="429.7137" y1="591.141" x2="429.7137" y2="519.031" gradientTransform="matrix(0.9974 -7.204524e-02 7.204524e-02 0.9974 -38.0305 32.4317)">
				<stop  offset="0" style="stop-color:#FFFFFF;stop-opacity:0"/>
				<stop  offset="1" style="stop-color:#D6D6D6"/>
			</linearGradient>
			<path style="fill:url(#SVGID_00000121985003933834829670000014356697704792668831_);" d="M479.9,527.2c2.6,1.5,0.8,5.5-2,4.6
				c-7.4-2.2-15.3-3.1-23.4-2.5c-34.3,2.5-60.6,30.9-61.2,64.6l-10.2,0.7c-1.1,0.1-2.1-0.8-2.2-1.9l-0.2-3.2
				c-2.6-36.2,24.8-68.9,61-71.5C455.5,517.2,468.7,520.6,479.9,527.2z"/>
			<polygon class="st12" points="353.8,562.6 360.1,568.2 381.8,563 385.7,573.4 394.5,573.4 403.6,583.3 415.7,583.3 423.1,574.3 
				447.3,574.3 452.5,580.3 466.8,578.7 468.7,572.9 494.1,570.1 499.8,559.1 507.3,558 521.3,549.6 533.7,547.8 553.7,566.3 
				555.4,602 333.7,602 			"/>
			<g>
				<polygon class="st18" points="558.1,562.7 543.5,561.2 543,561.2 542.7,560.8 532.7,548.7 533.8,549.1 521.5,550.9 522,550.8 
					507.9,559.1 507.7,559.2 507.5,559.2 500,560.4 501,559.7 495.2,570.7 494.9,571.3 494.2,571.4 468.9,574.2 470,573.4 
					468.1,579.1 467.8,579.9 467,579.9 452.7,581.6 452,581.7 451.5,581.2 446.3,575.1 447.3,575.6 423.1,575.6 424.1,575.1 
					416.7,584.1 416.3,584.6 415.7,584.6 403.6,584.6 403,584.6 402.6,584.1 393.5,574.3 394.5,574.7 385.7,574.7 384.8,574.7 
					384.5,573.9 380.6,563.4 382,564.3 348.5,568.3 349.5,567.6 339.7,583.3 347.2,566.4 347.4,565.8 348.2,565.7 381.7,561.7 
					382.7,561.6 383,562.5 386.9,573 385.7,572.1 394.5,572.1 395,572.1 395.4,572.5 404.5,582.4 403.6,582 415.7,582 414.7,582.4 
					422.1,573.4 422.5,573 423.1,573 447.3,573 447.9,573 448.3,573.4 453.5,579.5 452.4,579 466.7,577.4 465.6,578.2 467.5,572.5 
					467.8,571.7 468.6,571.7 493.9,568.8 492.9,569.5 498.7,558.5 499,557.9 499.6,557.8 507.1,556.7 506.6,556.8 520.7,548.5 
					520.9,548.4 521.2,548.4 533.5,546.6 534.2,546.5 534.7,547 544.7,559.1 543.9,558.7 558.2,562.5 				"/>
			</g>
			<g>
				<polygon class="st18" points="406.2,584.1 395.2,597.8 394.9,598.2 394.5,598.3 368.2,603.6 393.8,595.8 393.1,596.2 
					404.1,582.5 				"/>
			</g>
			<g>
				<polygon class="st18" points="508.1,557 526.4,571.9 526.9,572.4 526.8,572.9 525.8,585 525.3,585 524.2,572.9 524.7,574 
					506.4,559 				"/>
			</g>
			<g>
				<polygon class="st18" points="479.5,571 493.1,586.3 493.4,586.7 493.4,587 494.2,603.6 490.8,587.3 491.2,588 477.5,572.7 				
					"/>
			</g>
			<g>
				<polygon class="st18" points="490.7,569.7 502.2,582.4 502.5,582.7 502.5,583 503.4,593.4 499.9,583.5 500.2,584.1 488.7,571.5 
									"/>
			</g>
			<g>
				<polygon class="st18" points="408.8,608.1 414.4,582.9 416.9,583.6 				"/>
			</g>
			<g>
				<polygon class="st18" points="452.7,581.6 437.8,583.3 438.9,582.2 434.4,602 436.4,581.8 436.5,580.9 437.5,580.7 452.4,579 
									"/>
			</g>
		</g>
		<g id="foreground_1_">
			<path class="st12" d="M1939.9,822.1h-200.2c-9.8,0-19.7,0.9-29.3,2.8l-137,26.5c-16.9,3.3-34.2,3.7-51.2,1.3h0
				c-13.9-2-28-2.1-41.9-0.2l-68.2,8.9l-96.3,22.6v332.3h638.5L1939.9,822.1z"/>
			<path class="st11" d="M1801.6,1014.5c8.3,2,14.7,8.9,17.3,16.9c2.3,7.4,5.8,14.3,9.8,21c0.6,1,1.1,2,1.4,3.2
				c1.6,5.3-0.1,11.2,1.5,16.5c0.8,2.4,2.2,4.6,3,7c1.2,3.2,1.3,6.7,1.5,10.1c0.2,6.1,0.5,12.2,0.7,18.4c-26,1.8-52,3.1-78.1,3.7
				c-1.1,0-2.4,0-3.2-0.9c-0.6-0.7-0.6-1.7-0.6-2.6c0-29.8-0.1-59.7-0.1-89.5L1801.6,1014.5z"/>
			<path class="st11" d="M1450.2,1074.2c-2.3,11.2-1.8,23.5,1.5,34.3c37.9-0.4,75.8-0.8,113.7-1.2c0.2-30.5-1.1-65.4-18.8-84.9
				c-4.3-4.7-9.4-8.3-13.3-13.6c-1.5-2.1-2.8-4.4-4.4-6.2c-2.5-2.9-5.7-4.5-8.5-7c-6.6-6.1-10-16.5-14-25.8
				c-4-9.3-9.8-18.7-17.8-19.9L1450.2,1074.2z"/>
			<path class="st11" d="M1412,993c-40.8,0.2-81.6,0.4-122.4,0.6c-1,0-2.1,0-3-0.6c-1.1-0.8-1.4-2.2-1.6-3.5
				c-1.2-10.9,4.2-21.2,7.9-31.5c9.7-27.5,6.9-57.6,9.9-86.6c0.2-2.2,0.5-4.5,1.8-6.3c4-5.5,14.8-3.5,20.5-3.1
				c7.3,0.4,14.5,1.2,21.7,2.5c8.5,1.5,17.3,4,23.7,10.2c6.7,6.5,9.9,16,12.4,24.8c1,3.6,2,6.9,4,10.1c2.1,3.4,4.3,6.7,6.3,10.1
				c3.9,6.8,7.3,14,10,21.4c5.4,14.7,8.4,30.3,8.8,46C1412.1,989.1,1412.1,991.1,1412,993z"/>
			<g id="foreground">
				<path class="st27" d="M0,1216.2V658.7c132.4-0.1,259.3,53.4,391.2,64.4c48.5,4.1,120.1-7.7,166.9,3.7l2.4,7.3
					c2.3,7,7.9,12.4,14.9,14.5c23.5,7,41.4,7.8,62,29.8c4.5,22.2,2.5,45.9,35.2,55.7c18.1,5.4,35.9,11.1,54.7,11.6
					c50.2,1.3,100.6-3.8,149.6-14.9c22.1-5,44.3-11.3,66.9-10.1c11.4,0.6,20.4,10.5,31.4,13.8c20.3,6.1,15-2.1,35.8,1.9
					c8.7,1.7,21.1,14.8,30.4,15.2c5.7,0.2,8.5-3.5,14.4-3.8c10.5-0.5,13.4,7.7,24.3,6c17.4-2.7,22.6,0.2,41.6-5.1
					c17.3-4.8,35.9-18.2,55.5-22.5c32.1-7,65.2-3.8,88.2-3.5c10.3,0.1,18.5-1.3,18.7,9c0,0.8,0.3,1.6,0.8,2.2
					c0.5,0.6,1.2,1.1,1.9,1.4c4.9,1.5,9.8,3.5,14.3,5.5c5.1,2.3,8.4,7.3,8.6,12.8c0.1,2.6,2.2,4.8,4.8,4.8c0.2,0,0.4,0,0.6,0
					c16.9-2.1,42.9,5.4,56.9,16.7c3.4,2.7,2.6,8.1-1.4,9.7c-12,4.8-22.5,13.5-29.4,24.5c-4.4,7-1.4,16.4,6.4,19.4
					c22.1,8.3,48.4,4.4,72.7,2.5c29.1-2.2,64.1,2.6,77.3,28.6c6.4,12.7,5.9,27.6,8.9,41.6c3,13.9,12.1,28.8,26.3,29.8
					c7.1,0.5,14-2.6,20.6-5.4c63.9-26.9,135.9-23.3,205.1-19.2c13.1,0.8,32.9-1.4,43.5,6.2c8.4,6.1,4,17.4-2.7,26.5
					c-3.4,4.5-2.3,11,2.5,14c33,20.6,92.5-42.3,138.2-43.3v206.2H0z"/>
				<path class="st20" d="M490.4,959c4,6.4,8.9,14,5.9,21c-3.3,0.4-6.4-1.9-8.2-4.6c-1.8-2.7-2.8-5.9-4.2-8.9
					c-6.1-13.4-20.1-21.8-25.9-35.3c-1.9-4.4-2.8-9.2-3.6-13.9c-1.2-6.6-2.2-13.3-3.2-20c-0.9-6.3-2.3-12.9-2.4-19.3
					c-0.1-6.2,5-5.2,8.9-2.7c6,3.8,11,10,13.9,16.4c1.6,3.5,2.3,6.9,2.4,10.7c0.1,6.1,0.6,12.2,1.7,18.3
					C478.2,934.2,483.1,947.3,490.4,959z"/>
				<path class="st20" d="M536.9,928.7c-5.4,0.8-10.5-3.2-13.3-8c-2.7-4.8-3.7-10.3-5.7-15.4c-3.3-8.6-9.3-15.9-13.8-23.9
					c-6.4-11.2-10.1-24.1-10.6-37.1c-0.1-3.6,1.2-4,4.5-4.6c2.5-0.4,5.1-0.8,7.6-1c4.7-0.4,9.5-0.6,14.2,0
					c7.2,0.8,15.1,3.5,18.1,10.8c1.7,4.1,1.5,8.6,0.7,12.8c-1.2,6.9-3.2,13.6-4.2,20.5c-1.2,7.7-0.6,15.3,0.4,23
					C535.1,907.7,538.3,928.5,536.9,928.7z"/>
				<path class="st20" d="M624.6,820.4c5.8,8.6,14.1,15.7,17.9,25.3c-6.8,0.9-12.9-4.2-17.4-9.5c-8.4-10-14.6-21.8-18.2-34.4
					c-0.8-2.8-4.2-10.4,1-10.1c4.4,0.3,7,4,7.8,7.8C617.4,807,620.3,814.1,624.6,820.4z"/>
				<path class="st28" d="M515.1,754.5c19.6,0.9,39.3-0.7,59-1.5c9.5-0.4,25.5-2.2,34.9-0.6c11.8,1.9,16.8,11.6,25.5,19.7
					c4.6,4.3,3.7,11.9-1.8,15c-8.7,4.8-16.2,12.9-25.5,16.9c-7.3,3.2-15.4,3.7-23.3,5c-20.3,3.5-39.1,12.8-57.6,21.8
					c-1.7,0.8-2.8,2.6-2.6,4.5c0.4,3.3,4.5,3.5,7.3,4.6c8.6,3.4,6,17.7-2.2,22.1c-8.2,4.4-18.1,2.6-27.3,2.1
					c-9.3-0.5-20.2,1.3-24.4,9.6c-2,3.9-2,8.5-4,12.3c-7.1,13.7-31.1,8.2-39.6,21.1c-2.5,3.8-3.1,8.5-5.3,12.4
					c-6.6,11.8-23.5,11.8-36.6,8.5c-25.9-6.4-53.7-19.2-77.9-7.8c-10.4,4.9-18.4,13.7-28.4,19.3c-17.5,9.8-39.1,8.9-58.8,5.2
					c-19.8-3.6-39.4-9.6-59.5-8.8c-8.4,0.3-16.9,1.9-25.2,0.9c-16.5-1.9-31.3-13.5-47.8-12.4c-17.6,1.2-31.8,16.6-49.4,17.7
					c-20.8,1.3-39.2-17.5-59.5-18.1c-6-6.5-9.3-10-15.3-16.5l16.4-259.8c24.7-2.3,50.1-4.5,73.9,2.5c10.1,3,19.7,7.5,29.8,10.6
					c36.3,10.9,76.4,1,112.6,12.3c17.9,5.6,33.9,16.2,51.7,22.1c11.2,3.7,23,5.6,34.6,7.4c20,3.1,40.1,6.2,60.4,7.2
					c10.6,0.5,21.3,0.4,31.9,0.7c9.2,0.3,18.4,0.8,27.5,1.4c46.3,2.8,92.6,5.7,138.9,8.5c4.5,0.3,10.5,1.9,10.5,6.5
					c0,2.1-2.3,4.4-4.2,5.4s-4.1,1.3-6.2,1.5c-6.1,0.7-12.2,1-18.4,0.9c-3.2,0-6.7-0.1-9.4,1.7c-1.5,1-2.6,2.4-4.1,3.4
					c-3.5,2.4-8.3,2-12,4.2c-0.7,0.4-1.3,1-1.5,1.7c-0.2,0.9,0.5,1.8,1.2,2.5C505.8,750.4,512,754.3,515.1,754.5z"/>
			</g>
		</g>
		<g id="clouds">
			
				<linearGradient id="SVGID_00000160870305928712711980000002919635123976589490_" gradientUnits="userSpaceOnUse" x1="-101.7709" y1="33.2017" x2="936.5179" y2="33.2017">
				<stop  offset="0" style="stop-color:#FFFFFF"/>
				<stop  offset="1" style="stop-color:#FFFFFF;stop-opacity:0"/>
			</linearGradient>
			<path style="fill:url(#SVGID_00000160870305928712711980000002919635123976589490_);" d="M847,79.2c24.3,0.6,54.2,6.2,61.5,29.4
				c2.1,6.8,2,14.6,6.4,20.1c7.3,9,25.8,13.7,20.7,24c-1.2,2.4-3.5,4.2-6.1,5c-59,18.7-113-40.9-173.9-43.8
				c-30.3-1.5-61.4,11.3-90.4,2.2c-14.9-4.7-27.6-14.7-41.9-20.9c-28.9-12.4-61.9-8.1-93.3-5C463.7,97,396.6,97.5,330,91.8
				c-0.9-0.1-1.7-0.1-2.6-0.2c-21.2-1.9-37.8-18.1-41.5-39.1c-0.7-3.7-2.3-7.2-5.2-9.6c-10.3-8.7-25.5-7.1-38.8-5.3
				C147.2,50.5,50.3,46.5-43,25.9c-26.4-5.8-58.2-19.6-58.7-46.7c-0.3-15.7,11.4-29.7,25.5-36.5s30.3-7.7,46-7.6
				C9-64.8,48.1-59.3,87.2-62.1c57.5-4.2,112.5-26.2,169.9-31.5c60.3-5.6,120.6,7.4,181,10.6c45.6,2.4,91.4-0.7,137,2.2
				c27.2,1.7,56,3.2,82.1,12c20.2,6.8,36.1,19.8,48.3,37.2c7.9,11.2,14.2,23.5,20.1,35.8c7.9,16.8,13.5,29.6,34.1,29.6
				c10.5,0,15.9,2.9,20.1,12.7c3.1,7.4,5.9,13.8,12.3,19.1c12,9.9,28.8,12.1,43.8,13.1C839.5,79,843.3,79.1,847,79.2z"/>
			
				<linearGradient id="SVGID_00000093867723909661923000000005186908762238085285_" gradientUnits="userSpaceOnUse" x1="1319.2966" y1="10.3915" x2="2054.6809" y2="10.3915">
				<stop  offset="0" style="stop-color:#FFFFFF;stop-opacity:0"/>
				<stop  offset="1" style="stop-color:#FFFFFF"/>
			</linearGradient>
			<path style="fill:url(#SVGID_00000093867723909661923000000005186908762238085285_);" d="M1583.8,16.3
				c-36.8,30.9-89.3,31.2-137.2,34.7s-102.3,16.2-124.6,58.7c-2.6,5-4.4,11.9-0.2,15.6c2.1,1.9,5.1,2.3,8,2.3
				c27.3,0.6,48.9-21.6,73.7-33.1c49.1-22.7,109.3-2.3,159.6-22c18.2-7.1,34-19.1,51.1-28.5c30.9-16.9,65.8-25.1,100.4-31.9
				c98.2-19.1,198.7-27.7,298.5-21.1c11.7,0.8,24.7,1.3,33.5-6.4c8.7-7.6,10-21.2,5.6-31.8c-4.3-10.6-13.2-18.8-22.6-25.5
				c-61.4-43.9-144.5-36.8-219.2-26.2c-41,5.8-79.5,14.7-118.2,29.6c-23.9,9.2-42.6,22.2-61.9,38.8
				C1613.6-16.1,1600.7,2.1,1583.8,16.3z"/>
			
				<linearGradient id="SVGID_00000048502331221704513810000018149396161262458269_" gradientUnits="userSpaceOnUse" x1="-88.4142" y1="211.5081" x2="459.3152" y2="211.5081">
				<stop  offset="0" style="stop-color:#FFFFFF"/>
				<stop  offset="1" style="stop-color:#FFFFFF;stop-opacity:0"/>
			</linearGradient>
			<path style="fill:url(#SVGID_00000048502331221704513810000018149396161262458269_);" d="M-78.1,133.5
				c57.7-27.9,133.8-10,173.1,40.6c19.4-3,40,2.6,55.2,15.2c4.9,4.1,9.3,8.9,15,11.7c12.8,6.4,28.2,1.5,42.5,2.8
				c27,2.5,46.3,26.3,70.2,38.9c48.8,25.7,110.2,2.3,163,18.4c6.7,2,13.7,5.2,16.8,11.4c7.6,15.2-13.6,29-30.6,30
				c-32.2,1.8-63.6-10.5-95.8-12c-40-1.9-79.9,12.7-119.5,7c-26.3-3.8-50.5-16.3-76.6-21.2C61.1,262.4-16,311.9-88.4,290.7
				L-78.1,133.5z"/>
			
				<linearGradient id="SVGID_00000176743661519084206480000001146711306245794219_" gradientUnits="userSpaceOnUse" x1="1423.964" y1="302.6558" x2="2085.7185" y2="302.6558">
				<stop  offset="0" style="stop-color:#FFFFFF;stop-opacity:0"/>
				<stop  offset="1" style="stop-color:#FFFFFF;stop-opacity:0.7"/>
			</linearGradient>
			<path style="fill:url(#SVGID_00000176743661519084206480000001146711306245794219_);" d="M2085.7,224.4
				c-29.5-15.3-65.5-17.7-96.8-6.3c-33.6,12.2-62,39.3-97.6,42.7c-31.4,3-61.4-13.3-92.8-16.3c-78.6-7.6-143.4,67-222.1,74.2
				c-45,4.1-90.6-14.3-134.9-5.7c-6.5,1.3-13.7,3.7-16.5,9.7c-2.5,5.4-0.5,12,2.8,17c14.1,20.9,44.2,21.1,69.3,19
				c52.1-4.3,104.2-8.6,156.3-12.9c31.7-2.6,66-4.7,93,12.2c9.6,6,17.8,14.2,28,19.3c15.7,7.7,34.1,7,51.5,5.8
				c85.1-5.9,173.7-18.6,253.6,11.3L2085.7,224.4z"/>
		</g>
		<g id="stone-4">
			<g>
				<path class="st18" d="M1523,955.5l6.2-4.4l6.3-4.3c2.1-1.4,4.2-2.9,6.3-4.3l6.3-4.3l0.3-0.2l0.3,0l8.1,1l8.1,1l-1.1,0.6
					l8.9-15.7l0.3-0.4l0.5-0.2l8.8-2.8l-0.9,0.8l3.7-9l0.4-0.9l1,0l16.4,0.5l-0.1,3l-16.3-0.5l1.4-0.9l-3.8,8.9l-0.3,0.6l-0.6,0.2
					l-8.8,2.7l0.8-0.6l-9.3,15.5l-0.4,0.7l-0.7-0.1l-8-1.2l-8-1.3l0.6-0.1l-6.5,4c-2.2,1.3-4.3,2.7-6.5,4l-6.5,4L1523,955.5z"/>
			</g>
			<g>
				<path class="st18" d="M1719.8,902.6l16.5,1.7l16.5,1.8l0.7,0.1l0.4,0.6l5.9,9.2l-0.8-0.6l18.7,4.8l0.5,0.1l0.2,0.5l7.7,15.4
					l-0.9-0.5c7.2,0.1,14.4,0.2,21.7,0.4l0.2,0l0.1,0.1l9,5.6l8.9,5.7l-9.3-5.1l-9.2-5.2l0.3,0.1c-7.2,0.2-14.4,0.2-21.7,0.4l-0.6,0
					l-0.3-0.5l-8-15.2l0.8,0.6l-18.7-4.4l-0.5-0.1l-0.3-0.5l-6-9.1l1,0.6l-16.5-1.6l-16.5-1.7L1719.8,902.6z"/>
			</g>
			<path class="st5" d="M1732.3,968.3h-127.8c-7.2,0-13.1-5.8-13.1-13.1v-4.1c0-42.5,34.5-76.9,76.9-76.9h0
				c42.5,0,76.9,34.5,76.9,76.9v4.1C1745.3,962.5,1739.5,968.3,1732.3,968.3z"/>
			<path class="st5" d="M1732.3,968.3h-127.8c-7.2,0-13.1-5.8-13.1-13.1v-4.1c0-42.5,34.5-76.9,76.9-76.9h0
				c42.5,0,76.9,34.5,76.9,76.9v4.1C1745.3,962.5,1739.5,968.3,1732.3,968.3z"/>
			
				<linearGradient id="SVGID_00000017514262628272914350000008139279466506748074_" gradientUnits="userSpaceOnUse" x1="1654.7498" y1="957.3088" x2="1654.7498" y2="885.1989">
				<stop  offset="0" style="stop-color:#FFFFFF;stop-opacity:0"/>
				<stop  offset="1" style="stop-color:#D6D6D6"/>
			</linearGradient>
			<path style="fill:url(#SVGID_00000017514262628272914350000008139279466506748074_);" d="M1706,897c2.4,1.7,0.4,5.5-2.3,4.5
				c-7.2-2.7-15-4.2-23.2-4.2c-34.4,0-62.7,26.5-65.7,60.1h-10.2c-1.1,0-2.1-0.9-2.1-2v-3.2c0-36.3,29.7-66.9,66-66.9
				C1682.3,885.2,1695.3,889.6,1706,897z"/>
			<polygon class="st12" points="1586.3,928.7 1610.9,925.7 1614.3,935.1 1622.2,935.1 1630.1,944.9 1640.9,944.9 1697.5,942.5 
				1735.7,913.8 1745.3,913.8 1756.5,925.4 1759.5,936.6 1772.3,940.5 1772.3,974 1562.9,974 			"/>
			<polygon class="st12" points="1585.8,925.4 1591.4,930.4 1610.9,925.7 1614.3,935.1 1622.2,935.1 1630.3,943.9 1641.1,943.9 
				1647.8,935.8 1669.4,935.8 1674.1,941.2 1686.9,939.8 1688.6,934.7 1711.3,932.1 1716.4,922.3 1723.1,921.3 1735.7,913.8 
				1746.7,912.2 1764.7,928.7 1766.1,960.7 1567.8,960.7 			"/>
			<g>
				<path class="st18" d="M1768.6,925.4c-4.3-0.7-8.7-1.3-13-2l-0.1,0l-0.1-0.1l-9.2-10.6l0.6,0.2l-11,1.8l0.3-0.1l-12.5,7.6
					l-0.2,0.1l-0.2,0l-6.6,1.1l0.9-0.6l-5.1,9.9l-0.3,0.6l-0.7,0.1l-22.6,2.7l1.2-1l-1.7,5.1l-0.3,0.9l-0.9,0.1l-12.8,1.5l-0.8,0.1
					l-0.5-0.6l-4.7-5.4l1.1,0.5l-21.7,0l1.1-0.5l-6.7,8l-0.4,0.5l-0.7,0l-10.8-0.1l-0.6,0l-0.4-0.4l-8-8.9l0.9,0.4l-7.9-0.1l-0.8,0
					l-0.3-0.7l-3.3-9.4l1.1,0.7l-15,1.6l-15,1.5l0.3-0.2c-2.7,4.8-5.3,9.6-8.1,14.4c2.4-4.9,4.8-9.9,7.3-14.8l0.1-0.2l0.2,0
					l14.9-2.1l15-2l0.8-0.1l0.3,0.8l3.6,9.3l-1.1-0.7l7.9-0.1l0.5,0l0.4,0.4l8.2,8.7l-1-0.4l10.8-0.1l-1.1,0.5l6.6-8.1l0.4-0.5
					l0.7,0l21.7,0l0.7,0l0.4,0.5l4.7,5.4l-1.3-0.5l12.8-1.4l-1.2,1l1.7-5.1l0.3-0.9l0.9-0.1l22.7-2.4l-1,0.7l5.3-9.8l0.3-0.5
					l0.6-0.1l6.7-1l-0.4,0.1l12.7-7.3l0.2-0.1l0.2,0l11-1.4l0.4,0l0.2,0.3l8.7,11l-0.2-0.1C1760,923.6,1764.3,924.5,1768.6,925.4z"
					/>
			</g>
			<g>
				<polygon class="st18" points="1632.9,944.8 1622.7,956.8 1622.5,957.1 1622.2,957.2 1598.7,962.4 1598.6,961.8 1621.7,955.2 
					1621.1,955.6 1630.6,943 				"/>
			</g>
			<g>
				<polygon class="st18" points="1724,920.1 1739.9,934.1 1740.2,934.3 1740.2,934.7 1739.8,945.4 1739.1,945.4 1738.7,934.7 
					1739,935.2 1722.1,922.4 				"/>
			</g>
			<g>
				<polygon class="st18" points="1698.5,932.7 1710.2,946.8 1710.4,947.1 1710.4,947.3 1711.7,962.1 1711.1,962.1 1708.7,947.5 
					1708.9,948 1696.3,934.7 				"/>
			</g>
			<g>
				<polygon class="st18" points="1708.5,931.6 1718.2,943.4 1718.4,943.6 1718.4,943.7 1720,952.9 1719.3,953.1 1716.9,944.1 
					1717.1,944.4 1706.3,933.6 				"/>
			</g>
			<g>
				<polygon class="st18" points="1634.7,966 1639.7,943.5 1642.6,944.3 1635.3,966.2 				"/>
			</g>
			<g>
				<polygon class="st18" points="1674.3,942.7 1660.9,943.8 1661.8,942.9 1658.2,960.7 1657.6,960.6 1659.8,942.6 1659.9,941.9 
					1660.7,941.8 1673.9,939.8 				"/>
			</g>
		</g>
		<g id="stone-3">
			<g>
				<g>
					<path class="st34" d="M1048.9,1010.4l-27.1,9.2l0.9-1l-5,17.5l0,0c-0.1,0.5-0.5,0.8-1,0.8l-23.5,2.8l0.6-0.4l-11.6,18l0,0
						c-0.1,0.1-0.2,0.2-0.3,0.2l-21,5.2l-0.2-0.6l20.9-5.8l-0.4,0.3l11.2-18.3c0.1-0.2,0.4-0.4,0.6-0.4l0,0l23.4-3.4l-1,0.9
						l4.5-17.7c0.1-0.5,0.4-0.8,0.8-0.9l0,0l26.8-9.8L1048.9,1010.4z"/>
				</g>
				<path class="st35" d="M1031.2,1057c0-46.8,36.6-84.8,81.7-84.8c45.1,0,81.7,38,81.7,84.8H1031.2z"/>
				<path class="st5" d="M1258.1,1066.2H1143V962.1c0-31.8,25.8-57.6,57.6-57.6h0c31.8,0,57.6,25.8,57.6,57.6V1066.2z"/>
				<polygon class="st27" points="979.2,1083.2 1006.5,1071.6 1009.6,1052 1024.9,1046.7 1028,1035.1 1039.4,1037.5 1043,1046.4 
					1089.7,1047.7 1135.2,1042.5 1143.5,1035.1 1150.5,1036.3 1153.2,1030.1 1169.2,1036.3 1169.2,1042.2 1196.3,1045.5 
					1197.6,1038.7 1208.6,1039.9 1216.4,1036.3 1220,1014.6 1236.9,1014.6 1242.4,1023.2 1257.2,1023.5 1258.6,1017.9 
					1259.2,1008.7 1267.6,1008.7 1277.3,1026.8 1306.7,1035.4 1306.7,1146.5 979.2,1146.5 				"/>
				<g>
					<path class="st34" d="M979.2,1083.2l13.5-6l13.6-6l-0.3,0.4l2.9-19.6c0-0.3,0.2-0.5,0.5-0.6l0,0c5-1.9,10.1-3.7,15.2-5.5
						l-0.6,0.6l3.1-11.6c0.1-0.5,0.7-0.9,1.2-0.8l0,0l11.4,2.3c0.4,0.1,0.7,0.3,0.8,0.7l0,0l3.7,8.9l-1.1-0.8l22.2,0.2l22.2,0.2
						c0.1,0,0.1,0,0.2,0l0,0l21,3.1l21,3.2l-1.6,0.7l13.9-18.5c0.4-0.5,1.1-0.8,1.7-0.7l7,1.2l-1.9,1l2.7-6.2
						c0.4-0.9,1.4-1.3,2.3-0.9l16,6.3l0,0c0.7,0.3,1.1,0.9,1.1,1.6l0,5.9l-1.5-1.7l27.2,3.3l-1.8,1.4l1.3-6.8l0,0
						c0.2-0.8,1-1.4,1.8-1.3l11,1.2l-0.8,0.1l7.8-3.5l-0.9,1.2l3.7-21.7l0,0c0.1-0.7,0.7-1.2,1.4-1.2l16.9,0.1l0,0
						c0.4,0,0.8,0.2,1,0.6l5.4,8.7l-1-0.5l14.8,0.4l-1,0.8l1.4-5.6l0,0.2l0.7-9.2l0,0c0-0.5,0.4-0.8,0.9-0.8l8.4,0.1l0,0
						c0.3,0,0.6,0.2,0.7,0.4l9.5,18.3l-0.3-0.3l14.6,4.5l14.6,4.6l-14.8-4l-14.8-4.1c-0.1,0-0.2-0.1-0.3-0.2l0,0l-10-18l0.7,0.4
						l-8.4,0.1l0.9-0.9l-0.5,9.2c0,0.1,0,0.1,0,0.2l0,0l-1.3,5.7c-0.1,0.5-0.5,0.8-1,0.8l0,0l-14.8-0.2c-0.4,0-0.8-0.2-1-0.5l0,0
						l-5.6-8.6l1.1,0.6l-16.9,0.1l1.4-1.2l-3.5,21.7c-0.1,0.5-0.4,0.9-0.9,1.1l0,0l-7.8,3.6c-0.3,0.1-0.5,0.2-0.8,0.1l0,0l-11-1.1
						l1.8-1.3l-1.2,6.8c-0.2,0.9-1,1.5-1.8,1.4l0,0l-27.2-3.2c-0.9-0.1-1.5-0.8-1.5-1.7l0,0l0-5.9l1.1,1.6l-16-6.2l2.3-0.9l-2.7,6.2
						c-0.3,0.8-1.1,1.2-1.9,1l-7-1.2l1.7-0.7l-14,18.5c-0.4,0.5-1,0.8-1.6,0.7l-21-3.3l-21-3.3l0.2,0l-22.2-0.5l-22.2-0.6l0,0
						c-0.5,0-0.9-0.3-1.1-0.8l-3.5-8.9l0.8,0.7l-11.4-2.5l1.2-0.8l-3.3,11.6l0,0c-0.1,0.3-0.3,0.5-0.6,0.6
						c-5.1,1.7-10.2,3.5-15.3,5.2l0.5-0.6l-3.4,19.6l0,0c0,0.2-0.1,0.3-0.3,0.4l-13.7,5.6L979.2,1083.2z"/>
				</g>
				<g>
					<polygon class="st34" points="1018.5,1068 1027.8,1035.2 1031.1,1036.3 1019.1,1068.2 					"/>
				</g>
				<polygon class="st27" points="1048.3,1065.2 1059.7,1038.9 1088.6,1048.9 				"/>
				<g>
					<path class="st34" d="M1048.3,1065.2c0.6-2.3,1.3-4.6,2.1-6.9c0.8-2.3,1.5-4.5,2.4-6.8c0.8-2.3,1.7-4.5,2.6-6.7
						c0.9-2.2,1.8-4.4,2.7-6.6c0.4-0.8,1.3-1.3,2.2-1l0,0c2.4,0.8,4.8,1.7,7.2,2.6c2.4,0.9,4.8,1.8,7.1,2.8l3.5,1.5l3.5,1.5
						c2.3,1.1,4.7,2.1,6.9,3.3c-2.5-0.4-5-1.1-7.5-1.7l-3.7-1l-3.7-1c-2.5-0.7-4.9-1.5-7.3-2.2c-2.4-0.8-4.8-1.6-7.2-2.4l2.2-1
						c-1,2.2-1.9,4.4-3,6.5c-1,2.2-2,4.3-3.1,6.5c-1.1,2.1-2.2,4.3-3.3,6.4C1050.8,1061,1049.6,1063.1,1048.3,1065.2z"/>
				</g>
				<polygon class="st27" points="1084.5,1062.5 1094.2,1038.9 1134,1042.6 1145.4,1064.3 				"/>
				<g>
					<path class="st34" d="M1084.5,1062.5c0.6-2.1,1.2-4.1,1.9-6.1c0.7-2,1.3-4.1,2-6.1c0.7-2,1.4-4,2.1-6c0.7-2,1.4-4,2.2-6
						c0.2-0.6,0.9-1,1.5-0.9l0.1,0c3.3,0.2,6.7,0.4,10,0.7c3.3,0.3,6.6,0.5,10,0.9c3.3,0.3,6.6,0.6,9.9,1.1l5,0.6l5,0.7l0.1,0
						c0.4,0.1,0.8,0.3,0.9,0.7c0.8,1.7,1.6,3.3,2.3,5c0.8,1.7,1.6,3.4,2.3,5.1c0.7,1.7,1.5,3.4,2.2,5.1c0.7,1.7,1.4,3.4,2.1,5.1
						c-1-1.6-2-3.1-2.9-4.7c-1-1.6-1.9-3.2-2.8-4.8c-1-1.6-1.9-3.2-2.8-4.8c-0.9-1.6-1.8-3.2-2.7-4.8l1,0.7l-5-0.3l-5-0.3
						c-3.3-0.2-6.6-0.5-10-0.8c-3.3-0.3-6.6-0.6-9.9-1c-3.3-0.3-6.6-0.7-9.9-1.1l1.5-0.9c-0.8,2-1.8,3.9-2.6,5.8
						c-0.9,1.9-1.8,3.9-2.7,5.8c-0.9,1.9-1.9,3.8-2.8,5.7C1086.5,1058.7,1085.5,1060.6,1084.5,1062.5z"/>
				</g>
				<g>
					<path class="st34" d="M1290,1058.7c-1.9-1.9-3.8-3.8-5.6-5.8c-0.9-1-1.8-2-2.7-2.9l-2.7-3l1.2,0.4l-6.1,1.4
						c-0.5,0.1-1-0.1-1.3-0.4l-0.1-0.1l-4.4-4.7c-1.5-1.6-2.9-3.2-4.3-4.7l0.7,0.5c-1.6-0.5-3.1-1.1-4.6-1.7
						c-1.5-0.6-3.1-1.1-4.6-1.7c-1.5-0.6-3.1-1.2-4.6-1.8c-1.5-0.7-3-1.3-4.5-2l-0.2-0.1c-0.2-0.1-0.4-0.3-0.5-0.5
						c-0.9-2.1-1.8-4.1-2.6-6.2c-0.9-2.1-1.7-4.2-2.4-6.3c1.2,1.9,2.4,3.8,3.6,5.7c1.2,1.9,2.3,3.9,3.4,5.8l-0.6-0.5
						c1.6,0.4,3.2,0.9,4.7,1.3c1.6,0.5,3.1,1,4.7,1.5c1.6,0.5,3.1,1,4.7,1.6c1.6,0.5,3.1,1.1,4.6,1.6l0.1,0c0.3,0.1,0.5,0.3,0.7,0.5
						c1.4,1.6,2.8,3.2,4.2,4.8l4.2,4.9l-1.4-0.5l6.2-0.9l0.1,0c0.4-0.1,0.8,0.1,1.1,0.5l2.3,3.3c0.8,1.1,1.5,2.2,2.3,3.3
						C1287.1,1054.2,1288.6,1056.4,1290,1058.7z"/>
				</g>
			</g>
			
				<linearGradient id="SVGID_00000005949090646418073880000007258880647865878938_" gradientUnits="userSpaceOnUse" x1="1194.5394" y1="919.7335" x2="1194.5394" y2="1023.3879">
				<stop  offset="0" style="stop-color:#D6D6D6"/>
				<stop  offset="1" style="stop-color:#FFFFFF;stop-opacity:0"/>
			</linearGradient>
			<path style="fill:url(#SVGID_00000005949090646418073880000007258880647865878938_);" d="M1233.1,928.8c-4.7-1.3-9.7-2-14.8-1.9
				c-26.5,0.8-47.4,23.1-47.4,49.6v39.4c0,4.1-3.3,7.4-7.4,7.4l0,0c-4.1,0-7.4-3.3-7.4-7.4v-46.6c0-27.1,22.2-49.9,49.4-49.6
				C1215.7,919.8,1225.2,923.2,1233.1,928.8z"/>
		</g>
		<g id="stone-2">
			<path class="st37" d="M657.7,987c0-44.8,35.6-81.1,79.6-81.1s79.6,36.3,79.6,81.1H657.7z"/>
			<polygon class="st27" points="588.6,933.6 612.5,943.8 617.8,938.7 631.9,943.8 660,938.7 678.1,923.4 684.7,926.8 677.1,940 
				677.9,948.7 691.6,941.5 696.9,944.4 701.8,936.1 711.6,931.8 711.6,946.4 716.1,948.7 720.8,943.2 730.6,955.7 738.5,957.2 
				744,953.1 752.1,967.1 770.6,973.4 761.4,945 770.4,954.3 772.1,944.7 777.9,943.5 779.8,939.1 797.5,948.4 801.3,946.4 
				800.4,935.3 797,931.4 801.3,929.8 816.1,944.4 825,966.2 833.5,968.6 836.5,976.7 859.6,982.5 861.9,1004.1 588.6,1004.1 			"/>
			<g>
				<path class="st34" d="M588.6,933.6l24,9.9l-0.4,0.1l5.3-5.2c0.1-0.1,0.3-0.1,0.4-0.1l0,0l14.1,4.9l-0.3,0
					c9.4-1.8,18.7-3.6,28.1-5.4l-0.4,0.2l18-15.4c0.3-0.3,0.8-0.3,1.1-0.1l0,0l6.6,3.4c0.5,0.3,0.7,0.9,0.5,1.4l0,0l0,0l-7.6,13.2
					l0.2-0.7l0.9,8.7l-1.8-1l13.6-7.3c0.4-0.2,0.8-0.2,1.2,0l0,0l5.3,2.9l-1.7,0.5l4.9-8.3c0.1-0.3,0.4-0.4,0.6-0.5l0,0l9.8-4.2
					c0.7-0.3,1.5,0,1.8,0.7c0.1,0.2,0.1,0.4,0.1,0.5l0,0l0,14.6l-0.7-1.2l4.5,2.3l-1.7,0.3l4.7-5.5c0.5-0.6,1.4-0.7,2-0.2
					c0.1,0.1,0.1,0.1,0.2,0.2l0,0l9.8,12.5l-0.9-0.5l8,1.4l-1.1,0.3l5.4-4.1c0.7-0.5,1.6-0.4,2.1,0.3c0,0,0.1,0.1,0.1,0.1l0,0
					c2.7,4.6,5.4,9.3,8.1,14l-0.8-0.7l18.5,6.3l-1.8,1.8l-9.2-28.4l0,0c-0.2-0.7,0.2-1.5,0.9-1.7c0.5-0.2,1,0,1.4,0.3l9,9.3
					l-2.3,0.7l1.7-9.6l0,0c0.1-0.5,0.5-0.9,1-1l5.8-1.2l-0.9,0.7l1.9-4.4l0,0c0.3-0.6,1-0.9,1.7-0.7l0.1,0l17.7,9.4l-1.1,0l3.9-2
					l-0.6,1.1l-0.9-11.2l0.3,0.6l-3.3-3.9l0,0c-0.4-0.4-0.3-1.1,0.1-1.5c0.1-0.1,0.2-0.1,0.3-0.2l4.4-1.6l0,0c0.4-0.1,0.8,0,1.1,0.2
					l14.6,14.7l-1-0.2l11.3-5.4l0,0c0.2-0.1,0.4-0.1,0.5,0l8.5,2.4l0,0c0.2,0.1,0.4,0.2,0.5,0.4l2.9,8.2l-0.4-0.4l22.9,6.1l0,0
					c0.1,0,0.1,0.1,0.2,0.1l11.5,16.5l-12-16.2l0.2,0.1l-23.1-5.5c-0.2,0-0.3-0.2-0.4-0.3l0,0l-3.1-8.1l0.5,0.4l-8.6-2.2l0.6-0.1
					l-11.3,5.6c-0.3,0.2-0.7,0.1-1-0.2l0,0l-14.8-14.5l1.1,0.2l-4.3,1.7l0.4-1.7l3.4,3.8c0.2,0.2,0.2,0.4,0.3,0.6l0,0l1.1,11.2
					c0,0.5-0.2,0.9-0.6,1.1l0,0l-3.8,2c-0.4,0.2-0.8,0.2-1.1,0l0,0l-17.7-9.2l1.8-0.6l-1.9,4.4c-0.2,0.4-0.5,0.7-0.9,0.7l0,0
					l-5.8,1.2l1-1.1l-1.7,9.6c-0.1,0.7-0.8,1.2-1.5,1.1c-0.3,0-0.5-0.2-0.7-0.4l0,0l-9-9.2l2.3-1.4l9.3,28.3
					c0.2,0.7-0.2,1.6-0.9,1.8c-0.3,0.1-0.6,0.1-0.9,0l0,0l-18.6-6.3c-0.3-0.1-0.6-0.4-0.8-0.6l0,0c-2.7-4.7-5.4-9.3-8.1-14l2.2,0.4
					l-5.5,4.1l0,0c-0.3,0.3-0.8,0.3-1.1,0.3l-8-1.5l0,0c-0.4-0.1-0.7-0.3-0.9-0.5l-9.8-12.6l2.2,0l-4.7,5.5l0,0
					c-0.4,0.5-1.1,0.6-1.7,0.3l-4.5-2.3l0,0c-0.5-0.2-0.7-0.7-0.7-1.2l0-14.6l1.9,1.2l-9.8,4.2l0.6-0.5L698,945l0,0
					c-0.4,0.6-1.1,0.8-1.7,0.5l-5.3-2.9l1.2,0l-13.7,7.2l0,0c-0.6,0.3-1.3,0.1-1.7-0.5c-0.1-0.1-0.1-0.3-0.1-0.5l-0.8-8.7l0,0
					c0-0.2,0-0.5,0.2-0.7l7.7-13.1l0.4,1.5l-6.6-3.5l1.1-0.1l-18.2,15.2l0,0c-0.1,0.1-0.3,0.2-0.4,0.2c-9.4,1.6-18.8,3.3-28.2,4.9
					l0,0c-0.1,0-0.2,0-0.3,0l-14-5.3l0.4-0.1l-5.4,5l0,0c-0.1,0.1-0.3,0.1-0.4,0.1L588.6,933.6z"/>
			</g>
			<g>
				<polygon class="st34" points="661.8,946.2 676.6,938.9 677.5,941.1 662,946.7 				"/>
			</g>
			<g>
				<path class="st34" d="M647.1,965.9l19.7-15.3c0.4-0.3,1.1-0.3,1.4,0.2c0,0,0.1,0.1,0.1,0.1l0,0.1l2.3,4.3l-2.1,1l-2-4.4l1.5,0.4
					l-20.6,14L647.1,965.9z"/>
			</g>
			<g>
				<polygon class="st34" points="662.6,962.4 677.1,947.9 678.7,949.6 662.9,962.7 				"/>
			</g>
			<g>
				<path class="st34" d="M689.6,963.8l-3-10.2c-0.1-0.2,0-0.4,0.2-0.6l0,0l9.8-9.4l1.6,1.8l-10.5,8.6l0.2-0.6l2.1,10.4L689.6,963.8
					z"/>
			</g>
			<g>
				<path class="st34" d="M778.6,942.5l11,8.3l0,0c0.1,0.1,0.2,0.2,0.2,0.3l5.2,12.5l-0.4,0.2l-6-12.1l0.2,0.3l-11.6-7.5
					L778.6,942.5z"/>
			</g>
			<g>
				<path class="st34" d="M705,984.2l14.7-7.3l-0.3,0.3l10.1-22l2.1,1l-11.1,21.5l0,0c-0.1,0.1-0.2,0.2-0.3,0.3l-15.1,6.6L705,984.2
					z"/>
			</g>
			<g>
				<polygon class="st34" points="739.6,956.8 745.8,975.7 745.4,975.9 737.4,957.6 				"/>
			</g>
		</g>
		<g id="stone-1">
			<g>
				<polygon class="st38" points="414.8,831.4 392.7,815.1 393.7,815.3 380.3,817.8 379.2,818 378.8,817 371,800.8 371.9,801.6 
					364.5,798.8 363.8,798.5 363.5,797.7 360.3,788.5 362.1,789.7 348.5,790.4 348.3,786.4 362,786 363.4,786 363.8,787.3 
					366.8,796.7 365.8,795.6 373.1,798.5 373.7,798.8 374,799.4 381.4,815.8 379.8,815 393.2,812.8 393.9,812.7 394.3,813.1 				"/>
			</g>
			<g>
				<polygon class="st38" points="251.4,779.7 223.9,783.1 225.2,782.1 220.2,791.6 219.8,792.2 219.2,792.4 203.6,797.1 
					204.5,796.2 197.8,812.1 197.5,812.9 196.6,812.9 178.6,812.8 179.3,812.5 163.4,822.9 177.9,810.7 178.2,810.5 178.6,810.5 
					196.6,810.3 195.4,811.1 201.8,795.1 202,794.4 202.7,794.2 218.2,789.3 217.3,790.1 222.1,780.5 222.5,779.7 223.4,779.6 
					250.8,775.8 				"/>
			</g>
			<path class="st5" d="M239.5,844.7h108.6c5.4,0,9.8-4.4,9.8-9.8v-30.9c0-31.8-25.8-57.6-57.6-57.6h-13
				c-31.8,0-57.6,25.8-57.6,57.6V835C229.7,840.4,234.1,844.7,239.5,844.7z"/>
			<polygon class="st28" points="362.1,803.4 341.6,800.3 338.8,810.1 332.2,810.1 325.7,820.3 316.7,820.3 269.5,817.8 
				237.7,787.9 229.7,787.9 220.4,800 217.9,811.6 207.3,815.7 207.3,850.6 381.6,850.6 			"/>
			
				<linearGradient id="SVGID_00000183239850371804076370000013149903796075599251_" gradientUnits="userSpaceOnUse" x1="262.8359" y1="819.8037" x2="262.8359" y2="747.6937" gradientTransform="matrix(0.9338 -6.745141e-02 7.204527e-02 0.9974 -17.8666 30.9752)">
				<stop  offset="0" style="stop-color:#FFFFFF;stop-opacity:0"/>
				<stop  offset="1" style="stop-color:#D6D6D6"/>
			</linearGradient>
			<path style="fill:url(#SVGID_00000183239850371804076370000013149903796075599251_);" d="M330.1,767.3c2.4,1.5,0.8,5.5-1.9,4.6
				c-6.9-2.2-14.3-3.2-22-2.6c-32.1,2.3-56.6,30.6-57,64.3l-9.6,0.7c-1.1,0.1-2-0.8-2.1-1.9l-0.2-3.2c-2.6-36.2,22.9-68.7,56.8-71.2
				C307.2,757.1,319.6,760.6,330.1,767.3z"/>
			<polygon class="st28" points="362.5,800 357.8,805.2 341.6,800.3 338.8,810.1 332.2,810.1 325.5,819.3 316.5,819.3 310.9,810.9 
				292.9,810.9 289,816.5 278.3,815 276.9,809.6 258.1,807 253.8,796.7 248.2,795.6 237.7,787.9 228.6,786.2 213.6,803.4 
				212.4,836.8 377.5,836.8 			"/>
			<g>
				<path class="st38" d="M210.3,800l10.4-3.9l-0.9,0.6l7.5-11.3l0.5-0.8l0.9,0.2l9.2,1.7l0.3,0.1l0.3,0.2l10.5,7.8l-0.6-0.2
					l5.5,1.1l0.7,0.1l0.3,0.7l4.3,10.3l-1.1-0.8l18.8,2.7l0.8,0.1l0.2,0.8l1.4,5.3l-1-0.9l10.6,1.6l-1.2,0.5l3.9-5.6l0.4-0.5l0.6,0
					l18,0.1l0.6,0l0.3,0.5l5.5,8.4l-0.9-0.5l9,0l-0.9,0.4l6.8-9.2l0.3-0.4l0.5,0l6.6,0l-1,0.8l2.9-9.7l0.2-0.8l0.9,0.1l25,3.4
					l0.8,0.1l0.3,0.7c1,2.5,2,5.1,2.8,7.7c0.4,1.3,0.9,2.6,1.3,3.9c0.4,1.3,0.7,2.7,1,4c-0.8-1.2-1.5-2.3-2.2-3.5
					c-0.7-1.2-1.3-2.4-1.9-3.7c-1.3-2.4-2.4-4.9-3.5-7.4l1.1,0.8l-24.9-4.1l1.1-0.7l-2.8,9.8l-0.2,0.7l-0.8,0l-6.6,0l0.9-0.4
					l-6.7,9.2l-0.3,0.4l-0.6,0l-9,0l-0.6,0l-0.3-0.5l-5.6-8.4l1,0.5l-18,0.1l1-0.5l-3.9,5.7l-0.4,0.6l-0.8-0.1l-10.7-1.5l-0.8-0.1
					l-0.2-0.8l-1.5-5.3l1.1,0.9l-18.9-2.6l-0.8-0.1l-0.3-0.7l-4.3-10.3l1,0.8L248,797l-0.3-0.1l-0.3-0.2l-10.5-7.7l0.6,0.3l-9.2-1.6
					l1.5-0.6l-7.4,11.3l-0.4,0.6l-0.5,0L210.3,800z"/>
			</g>
			<g>
				<polygon class="st38" points="326,818.2 333.4,831.5 332.8,831 351.8,838.3 332.1,833.2 331.8,833.1 331.5,832.7 322.6,820.3 
									"/>
			</g>
			<g>
				<polygon class="st38" points="249.3,796.7 235.3,810.3 235.6,809.6 234.6,820.9 233.6,809.6 233.6,809.3 233.9,808.9 
					247.2,794.6 				"/>
			</g>
			<g>
				<path class="st38" d="M270.9,809.5c-0.8,1.2-1.7,2.4-2.5,3.6c-0.8,1.2-1.7,2.4-2.6,3.5c-0.9,1.2-1.7,2.4-2.6,3.5l-2.7,3.5
					l0.2-0.5c-0.7,5.1-1.5,10.2-2.7,15.2c-0.2-5.2,0.1-10.3,0.4-15.5l0-0.3l0.2-0.3l2.4-3.7c0.8-1.2,1.6-2.4,2.4-3.6
					c0.8-1.2,1.6-2.4,2.5-3.6c0.8-1.2,1.7-2.4,2.5-3.6L270.9,809.5z"/>
			</g>
			<g>
				<path class="st38" d="M259.6,808.3c-1.4,2-2.9,3.9-4.4,5.8c-1.5,1.9-3,3.8-4.6,5.7l0.2-0.4c-0.7,3.1-1.5,6.3-2.7,9.3
					c0-3.3,0.2-6.5,0.6-9.7l0-0.2l0.2-0.3c1.3-2,2.6-4.1,4-6.1c1.4-2,2.7-4,4.2-6L259.6,808.3z"/>
			</g>
			<g>
				<path class="st38" d="M321.1,842.4c-1.4-3.7-2.3-7.6-3.2-11.4c-0.9-3.8-1.7-7.7-2.3-11.5l3-0.5c0.7,3.9,1.2,7.7,1.7,11.6
					C320.7,834.5,321.1,838.4,321.1,842.4z"/>
			</g>
			<g>
				<path class="st38" d="M290.1,813.8c0.9,0.1,1.8,0.3,2.7,0.4c0.9,0.2,1.8,0.3,2.7,0.5c1.8,0.3,3.6,0.7,5.5,1.1l1.4,0.3l0.1,1.2
					c0.3,3.1,0.5,6.3,0.7,9.4c0.2,3.1,0.2,6.3,0,9.5c-1-3-1.8-6.1-2.4-9.2c-0.6-3.1-1.2-6.2-1.8-9.3l1.5,1.5
					c-1.8-0.2-3.7-0.4-5.5-0.7c-0.9-0.1-1.8-0.3-2.7-0.4c-0.9-0.1-1.8-0.3-2.7-0.4L290.1,813.8z"/>
			</g>
		</g>
	</g>
</g>
</svg>
