<?xml version="1.0" encoding="utf-8"?>
<!-- Generator: Adobe Illustrator 26.0.3, SVG Export Plug-In . SVG Version: 6.00 Build 0)  -->
<svg version="1.1" id="Rockies_x5F_8" xmlns="http://www.w3.org/2000/svg" xmlns:xlink="http://www.w3.org/1999/xlink" x="0px"
	 y="0px" viewBox="0 0 1920 1080" style="enable-background:new 0 0 1920 1080;" xml:space="preserve">
<style type="text/css">
	
		.st0{clip-path:url(#SVGID_00000043421202133809102630000007091520820445547907_);fill:url(#sky_00000001647969683599402370000010851004598768197278_);}
	.st1{clip-path:url(#SVGID_00000043421202133809102630000007091520820445547907_);}
	.st2{fill:url(#SVGID_00000065063740455333472610000013828901922204650131_);}
	
		.st3{opacity:0.5;fill:none;stroke:url(#SVGID_00000029028892287436625980000003060563368201400238_);stroke-width:7;stroke-miterlimit:10;}
	.st4{fill:#0073C1;}
	.st5{fill:url(#SVGID_00000127044461224151000310000000829399377909582763_);}
	.st6{opacity:0.5;fill:#FFFFFF;}
	.st7{fill:url(#SVGID_00000179606813326665146750000015438302113116278958_);}
	.st8{fill:#FFFFFF;}
	.st9{fill:url(#SVGID_00000129886215620468142610000015014511426122966413_);}
	
		.st10{clip-path:url(#SVGID_00000043421202133809102630000007091520820445547907_);fill:url(#bg-mountains_00000110451565918056290140000005365244496706537361_);}
	.st11{fill:#B68075;}
	.st12{fill:url(#SVGID_00000001647601389208835790000016991127468254917259_);}
	.st13{fill:#A16055;}
	.st14{fill:url(#SVGID_00000178163750400384508770000008668531240051614120_);}
	.st15{fill:#B0736B;}
	.st16{fill:#E3ABA0;}
	.st17{fill:url(#SVGID_00000161618246007740048990000016785846669561382840_);}
	.st18{fill:url(#SVGID_00000142145188826704151600000006705427367845189784_);}
	.st19{fill:#F1AFA1;}
	.st20{fill:url(#SVGID_00000069384836058169936300000013738254325209742236_);}
	.st21{fill:url(#SVGID_00000047743069472718268870000015143237869890724024_);}
	.st22{fill:none;stroke:url(#SVGID_00000003806263179797560530000000973740351810511284_);stroke-width:9;stroke-miterlimit:10;}
	
		.st23{fill:none;stroke:url(#SVGID_00000158014729594472451710000000820124697120161435_);stroke-width:5.3982;stroke-miterlimit:10;}
	
		.st24{fill:none;stroke:url(#SVGID_00000176026579499093327060000000205511549753822374_);stroke-width:5.2017;stroke-miterlimit:10;}
	.st25{fill:none;stroke:url(#SVGID_00000078034234552615395510000008549467685646691249_);stroke-width:9;stroke-miterlimit:10;}
	
		.st26{fill:none;stroke:url(#SVGID_00000124128331332500621380000005508464442628648345_);stroke-width:5.3982;stroke-linecap:round;stroke-miterlimit:10;}
	
		.st27{fill:none;stroke:url(#SVGID_00000149352052100355080470000008984161037057566372_);stroke-width:5.3982;stroke-linecap:round;stroke-miterlimit:10;}
	.st28{fill:url(#SVGID_00000173126156229186309640000013214672715777609650_);}
	
		.st29{fill:none;stroke:url(#SVGID_00000050652807837864176670000013031294651563105171_);stroke-width:5.3982;stroke-miterlimit:10;}
	.st30{fill:url(#SVGID_00000020372554632192567710000006579386927879512491_);}
	.st31{fill:url(#SVGID_00000072256070053997361950000010323656530551458471_);}
	.st32{fill:url(#SVGID_00000155853759649393753580000007163438855411817875_);}
	.st33{fill:url(#SVGID_00000025426382565041095500000016165088323031771835_);}
	.st34{fill:url(#SVGID_00000170242927928284811740000018262830686007106219_);}
	.st35{fill:url(#SVGID_00000147935317358375629370000012404083272525453988_);}
	.st36{fill:#6A392C;}
	.st37{fill:#884839;}
	.st38{fill:#F47762;}
	.st39{opacity:0.34;}
	.st40{fill:url(#SVGID_00000163770622429721516340000009720275954705043346_);}
	.st41{fill:url(#SVGID_00000032629836823451439400000009735827847385609108_);}
	.st42{fill:url(#SVGID_00000158019278909306934530000008261878411292611978_);}
	.st43{fill:url(#SVGID_00000163073303783421114540000016477402868790591932_);}
	.st44{fill:url(#SVGID_00000016765899059508660530000003879280714992725157_);}
	
		.st45{clip-path:url(#SVGID_00000043421202133809102630000007091520820445547907_);fill:url(#orb-6_00000040559102017469989350000012378855840780608959_);}
	
		.st46{clip-path:url(#SVGID_00000043421202133809102630000007091520820445547907_);fill:url(#orb-3_00000073001604327188676400000013661619471467908743_);}
	.st47{fill:#F57260;}
	.st48{fill:url(#SVGID_00000097492516433651339770000014967457242559819929_);}
	.st49{fill:#DB9586;}
	.st50{fill:#92473A;}
	.st51{fill:url(#SVGID_00000137837316278246054360000006084499233226280087_);}
	.st52{fill:url(#SVGID_00000104690920763976205960000005036525094333981328_);}
	.st53{opacity:0.5;fill:url(#SVGID_00000073692130439460615450000014016344496361899140_);}
	.st54{fill:#B7766B;}
	.st55{fill:#986259;}
	.st56{fill:#DDCDCA;}
	.st57{fill:url(#SVGID_00000008827616888985945480000011068027882768362659_);}
</style>
<g>
	<defs>
		<rect id="SVGID_1_" width="1920" height="1080"/>
	</defs>
	<clipPath id="SVGID_00000180366512531538184470000014422119571481891258_">
		<use xlink:href="#SVGID_1_"  style="overflow:visible;"/>
	</clipPath>
	
		<linearGradient id="sky_00000088820377962359425940000017313192686301197758_" gradientUnits="userSpaceOnUse" x1="-24" y1="571.6124" x2="1939" y2="571.6124">
		<stop  offset="0" style="stop-color:#FFDFDB"/>
		<stop  offset="4.726189e-02" style="stop-color:#FFDAD6"/>
		<stop  offset="0.6947" style="stop-color:#FF9F95"/>
		<stop  offset="1" style="stop-color:#FF887C"/>
	</linearGradient>
	
		<rect id="sky_1_" x="-24" y="-47.4" style="clip-path:url(#SVGID_00000180366512531538184470000014422119571481891258_);fill:url(#sky_00000088820377962359425940000017313192686301197758_);" width="1963" height="1238"/>
	<g id="cosmos" style="clip-path:url(#SVGID_00000180366512531538184470000014422119571481891258_);">
		<g>
			
				<linearGradient id="SVGID_00000137133819834240156250000011574384928535934105_" gradientUnits="userSpaceOnUse" x1="134.5918" y1="84.2442" x2="347.6813" y2="84.2442">
				<stop  offset="0" style="stop-color:#FFFFFF;stop-opacity:0"/>
				<stop  offset="1" style="stop-color:#FFFFFF"/>
			</linearGradient>
			<path style="fill:url(#SVGID_00000137133819834240156250000011574384928535934105_);" d="M345.3,19.4
				c-7.9,6.7-16.1,12.8-24.4,18.9c-8.3,6-16.7,11.9-25.2,17.5c-8.5,5.7-17.2,11.1-26,16.3c-8.8,5.1-17.7,10.2-26.5,15.5l-26.3,15.7
				L190.5,119L164,134.5l-13.2,7.7l-13.3,7.7L137,149l12.7-8.6l12.7-8.6l25.5-17.1l25.5-17L239,80.9c8.5-5.6,17-11.4,25.5-17.1
				c8.5-5.7,17.1-11.2,25.9-16.3c8.8-5.2,17.7-10.2,26.8-15.1c9-4.8,18.2-9.5,27.6-13.7L345.3,19.4z"/>
		</g>
		
			<linearGradient id="SVGID_00000160152348360148855680000008624213607219653519_" gradientUnits="userSpaceOnUse" x1="74.5032" y1="81.9756" x2="1772.047" y2="81.9756" gradientTransform="matrix(1.1024 0.2327 0.2327 1.5288 -20.3127 -46.1688)">
			<stop  offset="0" style="stop-color:#FFFFFF;stop-opacity:0"/>
			<stop  offset="1" style="stop-color:#FFFFFF"/>
		</linearGradient>
		
			<path style="opacity:0.5;fill:none;stroke:url(#SVGID_00000160152348360148855680000008624213607219653519_);stroke-width:7;stroke-miterlimit:10;" d="
			M902.4,35.3C437,240.1,115.7,533.6,174,666.1s482.9,74,948.3-130.8s795.5-478.2,737.1-610.8C1801.2-207.9,1367.8-169.4,902.4,35.3
			z M1064.7,404.3C698.8,565.3,370.9,624.7,332.3,537c-38.6-87.7,226.7-289.3,592.6-450.3S1618.7-133.7,1657.3-46
			C1695.9,41.7,1430.6,243.4,1064.7,404.3z"/>
		<g>
			<path class="st4" d="M971.6,192.7c-238.7,105-414.7,230.3-396.3,272s226.8-9.7,465.5-114.7s417.4-224,399.1-265.7
				C1421.5,42.6,1210.3,87.6,971.6,192.7z M1022.6,308.7C835,391.3,673,435.9,660.8,408.3C648.7,380.7,791,291.4,978.7,208.8
				s349.7-127.2,361.8-99.6S1210.3,226.1,1022.6,308.7z"/>
			
				<linearGradient id="SVGID_00000065774531444560081770000017129554330521962395_" gradientUnits="userSpaceOnUse" x1="772.3758" y1="290.4548" x2="1274.5945" y2="290.4548">
				<stop  offset="0" style="stop-color:#FFFFFF"/>
				<stop  offset="0.1715" style="stop-color:#FFFAFA"/>
				<stop  offset="0.3808" style="stop-color:#FFEDEB"/>
				<stop  offset="0.6098" style="stop-color:#FFD6D2"/>
				<stop  offset="0.8513" style="stop-color:#FFB8B0"/>
				<stop  offset="1" style="stop-color:#FFA197"/>
			</linearGradient>
			<path style="fill:url(#SVGID_00000065774531444560081770000017129554330521962395_);" d="M1270.9,333.3
				c-3.6,20.6-9.7,40.8-18.3,60.1c-18.2,40.7-47.6,77.1-87.1,104.2c-114.4,78.4-270.6,49.3-349.1-65.1
				C738,318.1,767.1,161.8,881.5,83.4c12.6-8.6,25.7-16,39.1-22c6.3-2.8,12.8-5.4,19.2-7.7c104.6-37,225-1,290.7,94.8
				C1269.1,204.7,1281.7,271,1270.9,333.3z"/>
			<path class="st6" d="M1270.9,333.3c-104.6,37-225,1-290.7-94.8c-38.5-56.2-51.1-122.6-40.3-184.8c104.6-37,225-1,290.7,94.8
				C1269.1,204.7,1281.7,271,1270.9,333.3z"/>
			<path class="st4" d="M575.3,464.6c18.3,41.7,226.8-9.7,465.5-114.7s417.4-224,399.1-265.7l-99.3,25
				c12.1,27.6-130.2,116.9-317.9,199.5S673,435.9,660.8,408.3L575.3,464.6z"/>
		</g>
		
			<linearGradient id="SVGID_00000121964294391766642260000001060696724483631008_" gradientUnits="userSpaceOnUse" x1="436.7516" y1="121.7607" x2="505.0229" y2="53.4894">
			<stop  offset="0" style="stop-color:#FFFFFF;stop-opacity:0"/>
			<stop  offset="1" style="stop-color:#FFFFFF"/>
		</linearGradient>
		<circle style="fill:url(#SVGID_00000121964294391766642260000001060696724483631008_);" cx="470.9" cy="87.6" r="48.3"/>
		<circle class="st8" cx="648.6" cy="33.8" r="11.5"/>
		<circle class="st8" cx="1539.6" cy="28.1" r="5.7"/>
		<circle class="st8" cx="356.2" cy="164.4" r="5.7"/>
		<circle class="st8" cx="1835.7" cy="164.4" r="15.7"/>
		<g>
			
				<linearGradient id="SVGID_00000143577356666811951580000015492401831583622277_" gradientUnits="userSpaceOnUse" x1="-75.2084" y1="39.3499" x2="441.3085" y2="39.3499">
				<stop  offset="0" style="stop-color:#FFFFFF;stop-opacity:0"/>
				<stop  offset="1" style="stop-color:#FFFFFF"/>
			</linearGradient>
			<path style="fill:url(#SVGID_00000143577356666811951580000015492401831583622277_);" d="M438.9-120.7
				C418.4-106.1,397.6-92,376.6-78c-10.4,7-21,13.9-31.5,20.8l-31.6,20.6c-21.1,13.6-42.5,27-63.9,40.1l-64.4,39.3l-128.6,79
				L-7.8,161l-64.5,39.2l-0.5-0.8l63.3-41l63.4-40.9l127-81.5L244.3-5c21.1-13.6,42.4-27,63.9-40.2l32.3-19.6
				c10.8-6.4,21.6-13,32.4-19.3c21.7-12.8,43.4-25.4,65.5-37.6L438.9-120.7z"/>
		</g>
	</g>
	
		<linearGradient id="bg-mountains_00000141439282105827471940000004136654148070444447_" gradientUnits="userSpaceOnUse" x1="1073.375" y1="741.4069" x2="1073.375" y2="50.4713">
		<stop  offset="0.1705" style="stop-color:#FFC2BB"/>
		<stop  offset="0.2422" style="stop-color:#F4B3AA"/>
		<stop  offset="0.4976" style="stop-color:#D28174"/>
		<stop  offset="0.7181" style="stop-color:#B95D4C"/>
		<stop  offset="0.8928" style="stop-color:#AA4634"/>
		<stop  offset="1" style="stop-color:#A43E2B"/>
	</linearGradient>
	
		<polygon id="bg-mountains" style="clip-path:url(#SVGID_00000180366512531538184470000014422119571481891258_);fill:url(#bg-mountains_00000141439282105827471940000004136654148070444447_);" points="
		355.5,272.9 264,132.6 -25,272.5 -24,664.5 500.6,664.5 608.8,741.4 1704.3,708.4 2171.8,644.7 2171.8,320.6 1869.8,230.6 
		1818.1,274.7 1727.7,235.7 1727.7,179.9 1682,169.7 1682,50.5 1562.1,141.7 1562.1,169.7 1507.3,197.6 1507.3,240.8 1400.4,251.7 
		1354.5,377.2 1103.3,375.1 1048.7,434.5 872.6,321.3 706.1,342.7 671.7,285.5 500.6,311.9 	"/>
	<g id="bg-rockies" style="clip-path:url(#SVGID_00000180366512531538184470000014422119571481891258_);">
		<g>
			<polygon class="st11" points="1460.6,631.6 1007.6,602.5 922.8,597 968.6,530 1051.4,490.3 1127.6,403.6 1141,376.4 
				1151.9,354.4 1158,341.9 1186.5,328.6 1286.4,260.1 1329.3,305.7 1317.9,328.6 1331.4,373.6 1344.7,417.8 1345.2,419.4 
				1346.4,423.5 1367.3,468.4 1367.3,503.7 			"/>
			
				<linearGradient id="SVGID_00000021825797107265156230000007524354959605838742_" gradientUnits="userSpaceOnUse" x1="1234.0751" y1="631.5724" x2="1234.0751" y2="342.5915">
				<stop  offset="0" style="stop-color:#A16055"/>
				<stop  offset="1" style="stop-color:#A16055;stop-opacity:0"/>
			</linearGradient>
			<polygon style="fill:url(#SVGID_00000021825797107265156230000007524354959605838742_);" points="1460.6,631.6 1007.6,602.5 
				1022.5,584.9 1103.7,553.6 1178.2,485.3 1199.1,451.4 1208.1,436.7 1236,426.2 1322.1,342.6 1344.7,417.8 1345.2,419.4 
				1346.4,423.5 1367.3,468.4 1367.3,503.7 			"/>
		</g>
		<g>
			<polygon class="st13" points="1312.1,500.4 1460.6,468.3 1544.3,376.9 1664.2,355.5 1681.3,336.2 1787.9,355.5 1938.3,463.5 
				1938.3,723.3 1414.9,604.5 1312.1,572.5 			"/>
			
				<linearGradient id="SVGID_00000132772090318816092910000011031790874043847855_" gradientUnits="userSpaceOnUse" x1="1672.0481" y1="723.3121" x2="1672.0481" y2="382.5849">
				<stop  offset="0" style="stop-color:#A16055"/>
				<stop  offset="1" style="stop-color:#A16055;stop-opacity:0"/>
			</linearGradient>
			<polygon style="fill:url(#SVGID_00000132772090318816092910000011031790874043847855_);" points="1399.6,550.7 1521,532.8 
				1594.1,464.5 1698.9,448.4 1727.7,395.9 1825.7,382.6 1952.8,474.1 1938.3,723.3 1481.1,634.6 1391.3,610.6 			"/>
		</g>
		<g>
			<polygon class="st15" points="1051.4,329.1 1022.9,377.7 1011.5,431.2 960,467.9 933.4,526.7 861.1,571.3 844,660.4 571.8,703.3 
				442.4,683.8 472.9,622.3 573.8,524.8 775.5,416.7 901.1,406.3 			"/>
			<polygon class="st16" points="1051.4,313.5 1051.4,329.1 975.3,384.7 960,416.7 925.8,431.3 883.9,440.4 861.1,476.1 777.4,521 
				581.4,571.3 550.9,602.8 472.9,622.3 528.1,535.8 540.4,523.4 519.2,479.1 587.1,476.1 597.1,469.9 622.2,454.4 699.3,399.8 
				700.2,399.2 700.5,399.1 830.7,377.7 904.9,377.7 920.1,363.2 1013.2,328 			"/>
			
				<linearGradient id="SVGID_00000036935230521141993550000010691592449452799627_" gradientUnits="userSpaceOnUse" x1="519.1624" y1="418.4424" x2="1051.4199" y2="418.4424">
				<stop  offset="0" style="stop-color:#FFFFFF;stop-opacity:0"/>
				<stop  offset="1" style="stop-color:#FFFFFF"/>
			</linearGradient>
			<polygon style="fill:url(#SVGID_00000036935230521141993550000010691592449452799627_);" points="1051.4,313.5 1013.2,333.7 
				953,369.6 940.9,390.4 913.8,399.8 880.7,405.7 862.6,428.8 796.4,457.8 641.2,490.4 617.1,510.8 540.4,523.4 540.4,523.3 
				519.2,479.1 597.1,469.9 622.2,454.4 699.3,399.8 700.5,399.1 830.7,377.7 904.9,377.7 920.1,363.2 			"/>
		</g>
		<g>
			<polygon class="st11" points="589,672.5 -29.5,672.5 -29.5,518.9 309.2,355.5 370.1,285.5 472.9,212.3 514.8,174.4 521.7,204.9 
				499.5,244 527.6,353.8 528.1,355.5 499.5,432.6 550.9,495.1 550.9,563.5 			"/>
			
				<linearGradient id="SVGID_00000183966509350956492400000005455375292634552751_" gradientUnits="userSpaceOnUse" x1="386.015" y1="672.5124" x2="386.015" y2="353.7724">
				<stop  offset="0" style="stop-color:#A16055"/>
				<stop  offset="1" style="stop-color:#A16055;stop-opacity:0"/>
			</linearGradient>
			<polygon style="fill:url(#SVGID_00000183966509350956492400000005455375292634552751_);" points="589,672.5 183.1,672.5 
				279.2,516.2 425.5,445.6 469.1,395.5 527.6,353.8 528.1,355.5 499.5,432.6 550.9,495.1 550.9,563.5 			"/>
			<polygon class="st19" points="514.8,174.4 490,201.1 421.5,296.2 379.6,325.7 354.9,398.6 307.3,432.6 257.4,432.6 212.2,477 
				214.1,503.7 183.6,528 174.1,563.5 134.1,571.6 76,623.3 0,623.3 0,477 128.4,398.6 226.5,362.8 313,263.9 394.9,263.9 
				491.9,174.4 			"/>
			
				<linearGradient id="SVGID_00000006675195342459568460000014310715629154196645_" gradientUnits="userSpaceOnUse" x1="0" y1="368.1924" x2="514.76" y2="368.1924">
				<stop  offset="0" style="stop-color:#FFFFFF;stop-opacity:0"/>
				<stop  offset="1" style="stop-color:#FFFFFF"/>
			</linearGradient>
			<polygon style="fill:url(#SVGID_00000006675195342459568460000014310715629154196645_);" points="491.9,174.4 514.8,174.4 
				413.9,272.9 327.8,305.1 306.4,367.9 265.3,397.3 222.2,397.3 183.2,435.7 184.8,458.7 158.5,479.7 150.3,510.3 115.8,517.3 
				65.6,562 0,562 0,477 128.4,398.6 226.5,362.8 313,263.9 394.9,263.9 			"/>
		</g>
	</g>
	<g id="river" style="clip-path:url(#SVGID_00000180366512531538184470000014422119571481891258_);">
		
			<linearGradient id="SVGID_00000065763556833184873320000018276402096175887490_" gradientUnits="userSpaceOnUse" x1="-24" y1="915.5485" x2="1952.8186" y2="915.5485">
			<stop  offset="0" style="stop-color:#009FFF"/>
			<stop  offset="1" style="stop-color:#0077C3"/>
		</linearGradient>
		
			<rect x="-24" y="664.5" style="fill:url(#SVGID_00000065763556833184873320000018276402096175887490_);" width="1976.8" height="502.1"/>
		
			<linearGradient id="SVGID_00000138566512589327832140000016542359690093211287_" gradientUnits="userSpaceOnUse" x1="692.0936" y1="923.5316" x2="2348.071" y2="923.5316">
			<stop  offset="0" style="stop-color:#A16055;stop-opacity:0"/>
			<stop  offset="0.4816" style="stop-color:#A16055;stop-opacity:0.5"/>
			<stop  offset="1" style="stop-color:#A16055;stop-opacity:0"/>
		</linearGradient>
		
			<path style="fill:none;stroke:url(#SVGID_00000138566512589327832140000016542359690093211287_);stroke-width:9;stroke-miterlimit:10;" d="
			M693.3,852.4c112.1-30,228.7-43.1,344.6-38.6c28.1,1.1,56.3,3.2,84,8.2c26.9,4.9,53.3,12.5,79.7,19.6
			c211,56.7,430.3,81.8,648.6,74.5c82.1-2.8,162.9,13.3,241.2,38c85.1,26.8,170.2,53.6,255.3,80.4"/>
		
			<linearGradient id="SVGID_00000023279001115123446830000005994728809359841190_" gradientUnits="userSpaceOnUse" x1="692.5594" y1="914.1339" x2="2347.53" y2="914.1339">
			<stop  offset="0" style="stop-color:#FFFFFF;stop-opacity:0"/>
			<stop  offset="1" style="stop-color:#FFFFFF"/>
		</linearGradient>
		
			<path style="fill:none;stroke:url(#SVGID_00000023279001115123446830000005994728809359841190_);stroke-width:5.3982;stroke-miterlimit:10;" d="
			M693.3,842.9c112.1-30,228.7-43.1,344.6-38.6c28.1,1.1,56.3,3.2,84,8.2c26.9,4.9,53.3,12.5,79.7,19.6
			c211,56.7,430.3,81.8,648.6,74.5c82.1-2.8,162.9,13.3,241.2,38c85.1,26.8,170.2,53.6,255.3,80.4"/>
		
			<linearGradient id="SVGID_00000080911199712543538060000006938875236126953903_" gradientUnits="userSpaceOnUse" x1="1627.991" y1="1335.7499" x2="2742.3875" y2="1335.7499" gradientTransform="matrix(1.1517 0.155 -0.1066 0.7918 -596.3812 -561.5295)">
			<stop  offset="0" style="stop-color:#FFFFFF;stop-opacity:0"/>
			<stop  offset="1" style="stop-color:#FFFFFF"/>
		</linearGradient>
		
			<path style="fill:none;stroke:url(#SVGID_00000080911199712543538060000006938875236126953903_);stroke-width:5.2017;stroke-miterlimit:10;" d="
			M1135.9,756.9c79.2-3.3,160.7,3.3,239.6,19.2c70,14.2,138.9,35.8,210.1,39.4c37.5,1.9,74.4-1.4,111.6-2.5
			c139.2-4.1,284.5,22.6,410,75.6c94.1,39.7,206,37.8,311.1,39.8"/>
		
			<linearGradient id="SVGID_00000150090221399314777200000016887032031554666649_" gradientUnits="userSpaceOnUse" x1="1135.7201" y1="849.1687" x2="2418.3669" y2="849.1687">
			<stop  offset="0" style="stop-color:#A16055;stop-opacity:0"/>
			<stop  offset="0.4816" style="stop-color:#A16055;stop-opacity:0.5"/>
			<stop  offset="1" style="stop-color:#A16055;stop-opacity:0"/>
		</linearGradient>
		
			<path style="fill:none;stroke:url(#SVGID_00000150090221399314777200000016887032031554666649_);stroke-width:9;stroke-miterlimit:10;" d="
			M1135.9,763.8c79.2-3.3,160.7,3.3,239.6,19.2c70,14.2,138.9,35.8,210.1,39.4c37.5,1.9,74.4-1.4,111.6-2.5
			c139.2-4.1,284.5,22.6,410,75.6c94.1,39.7,206,37.8,311.1,39.8"/>
		
			<linearGradient id="SVGID_00000103977494411648855280000010506407827075514809_" gradientUnits="userSpaceOnUse" x1="-65.8701" y1="832.8826" x2="739.0685" y2="832.8826">
			<stop  offset="0" style="stop-color:#FFFFFF;stop-opacity:0"/>
			<stop  offset="1" style="stop-color:#FFFFFF"/>
		</linearGradient>
		
			<path style="fill:none;stroke:url(#SVGID_00000103977494411648855280000010506407827075514809_);stroke-width:5.3982;stroke-linecap:round;stroke-miterlimit:10;" d="
			M-63.2,817.3c127.7-43.4,267.7-25,399.8,2.3c132.1,27.3,265.2,63.2,399.7,53.1"/>
		
			<linearGradient id="SVGID_00000005946412401262999310000004631329142382463671_" gradientUnits="userSpaceOnUse" x1="863.8336" y1="943.2592" x2="1393.2274" y2="943.2592">
			<stop  offset="0" style="stop-color:#FFFFFF;stop-opacity:0"/>
			<stop  offset="1" style="stop-color:#FFFFFF"/>
		</linearGradient>
		
			<path style="fill:none;stroke:url(#SVGID_00000005946412401262999310000004631329142382463671_);stroke-width:5.3982;stroke-linecap:round;stroke-miterlimit:10;" d="
			M1390.5,972.9c-86.9-19.3-173-43.3-261.3-54c-88.4-10.6-180.4-7.3-262.7,26.7"/>
		
			<linearGradient id="SVGID_00000111175549762904136010000004794914777583653515_" gradientUnits="userSpaceOnUse" x1="-78.464" y1="856.5414" x2="414.5912" y2="856.5414">
			<stop  offset="0" style="stop-color:#A16055;stop-opacity:0"/>
			<stop  offset="0.4816" style="stop-color:#A16055;stop-opacity:0.5"/>
			<stop  offset="1" style="stop-color:#A16055;stop-opacity:0"/>
		</linearGradient>
		<path style="fill:url(#SVGID_00000111175549762904136010000004794914777583653515_);" d="M54,823.2c29.3-0.1,58.3,3.8,87,7.7
			c92.6,12.6,185.8,25.3,273.6,48.4c-105.9,2.3-211.7,4.6-317.6,7c-51.9,1.1-105,4.7-156.9,3.4c-32.4-0.8-15.1-23.8-3.4-33.8
			C-35.1,831.6,9.2,823.4,54,823.2z"/>
		
			<linearGradient id="SVGID_00000015348947491908797120000005872354639368399280_" gradientUnits="userSpaceOnUse" x1="866.5327" y1="945.6454" x2="866.5327" y2="945.6454">
			<stop  offset="0" style="stop-color:#FFFFFF;stop-opacity:0"/>
			<stop  offset="1" style="stop-color:#FFFFFF"/>
		</linearGradient>
		
			<path style="fill:none;stroke:url(#SVGID_00000015348947491908797120000005872354639368399280_);stroke-width:5.3982;stroke-miterlimit:10;" d="
			M866.5,945.6"/>
		
			<linearGradient id="SVGID_00000043424970567038886090000012897317680501977739_" gradientUnits="userSpaceOnUse" x1="519.1624" y1="832.8826" x2="591.4794" y2="832.8826">
			<stop  offset="0" style="stop-color:#FFF69D"/>
			<stop  offset="0.5" style="stop-color:#FFEF00"/>
			<stop  offset="1" style="stop-color:#FFD400"/>
		</linearGradient>
		<circle style="fill:url(#SVGID_00000043424970567038886090000012897317680501977739_);" cx="555.3" cy="832.9" r="36.2"/>
		
			<linearGradient id="SVGID_00000038380412005374794930000008243212922260196252_" gradientUnits="userSpaceOnUse" x1="1707.3247" y1="908.8085" x2="1805.2952" y2="908.8085">
			<stop  offset="0" style="stop-color:#FFF69D"/>
			<stop  offset="0.5" style="stop-color:#FFEF00"/>
			<stop  offset="1" style="stop-color:#FFD400"/>
		</linearGradient>
		<circle style="fill:url(#SVGID_00000038380412005374794930000008243212922260196252_);" cx="1756.3" cy="908.8" r="49"/>
		
			<linearGradient id="SVGID_00000072979908116974916800000003807835141701995666_" gradientUnits="userSpaceOnUse" x1="1031.5979" y1="817.0045" x2="1087.2684" y2="817.0045">
			<stop  offset="0" style="stop-color:#FFF69D"/>
			<stop  offset="0.5" style="stop-color:#FFEF00"/>
			<stop  offset="1" style="stop-color:#FFD400"/>
		</linearGradient>
		<circle style="fill:url(#SVGID_00000072979908116974916800000003807835141701995666_);" cx="1059.4" cy="817" r="27.8"/>
		
			<linearGradient id="SVGID_00000017475581107572955220000017735895883000765843_" gradientUnits="userSpaceOnUse" x1="96.7887" y1="796.7241" x2="124.624" y2="796.7241">
			<stop  offset="0" style="stop-color:#FFF69D"/>
			<stop  offset="0.5" style="stop-color:#FFEF00"/>
			<stop  offset="1" style="stop-color:#FFD400"/>
		</linearGradient>
		<circle style="fill:url(#SVGID_00000017475581107572955220000017735895883000765843_);" cx="110.7" cy="796.7" r="13.9"/>
		
			<linearGradient id="SVGID_00000003808644749629813240000010680269139834536361_" gradientUnits="userSpaceOnUse" x1="1272.5366" y1="769.2422" x2="1300.3718" y2="769.2422">
			<stop  offset="0" style="stop-color:#FFF69D"/>
			<stop  offset="0.5" style="stop-color:#FFEF00"/>
			<stop  offset="1" style="stop-color:#FFD400"/>
		</linearGradient>
		<circle style="fill:url(#SVGID_00000003808644749629813240000010680269139834536361_);" cx="1286.5" cy="769.2" r="13.9"/>
	</g>
	<g id="midground" style="clip-path:url(#SVGID_00000180366512531538184470000014422119571481891258_);">
		
			<linearGradient id="SVGID_00000131329151232784722570000008986737426130959034_" gradientUnits="userSpaceOnUse" x1="0" y1="677.4777" x2="1920" y2="677.4777">
			<stop  offset="0" style="stop-color:#A16055;stop-opacity:0"/>
			<stop  offset="0.4816" style="stop-color:#A16055;stop-opacity:0.5"/>
			<stop  offset="1" style="stop-color:#A16055;stop-opacity:0"/>
		</linearGradient>
		<path style="fill:url(#SVGID_00000131329151232784722570000008986737426130959034_);" d="M1920,786.5l-174-22L1571,728.3h-19.6
			c-51.3,0-102.3-8.3-150.9-24.6l-35-11.7l-91.4,20.8c-45.4,10.3-92.1,13.9-138.5,10.7l-95.5-6.7l-103.8,28
			c-48.5,13.1-98.7,18.4-148.8,15.8L667,754.1l-102.8,18.3l-42.4,5.9c-38.8,5.4-78.1,6-117.1,1.8l-70.8-7.7l-182.7-40L0,748.4V677
			v-48.8L373.9,663L528.1,689l336.8-52.4l281.7-68.1h260.7l234.1,59.8l278.6,72.2V786.5z"/>
		<polygon class="st36" points="1920,771.6 1746,749.5 1571,713.4 1473.9,713.4 1365.4,677 1205.6,713.4 1040,701.8 863,749.5 
			667,739.2 564.2,757.5 463.4,771.6 334,757.5 151.2,717.5 0,733.5 0,662.1 0,613.4 373.9,648.1 528.1,674 864.9,621.6 
			1146.6,553.6 1407.3,553.6 1641.4,613.4 1920,685.5 		"/>
		<polygon class="st37" points="1920,749.5 1780.3,713.4 1753.7,717.5 1753.7,750.5 1920,771.6 		"/>
		<polygon class="st37" points="1477.7,666 1593.8,657.7 1571,713.4 1473.9,713.4 		"/>
		<polygon class="st37" points="1367.3,613.4 1365.4,677 1205.6,713.4 1213.2,642.6 		"/>
		<polygon class="st37" points="960,639 953.4,725.2 916.2,735.2 908.7,666 		"/>
		<polygon class="st37" points="834.5,685.5 863,749.5 677.6,739.8 670.8,701.8 773.6,677.6 		"/>
		<polygon class="st37" points="124.6,666 151.2,717.5 212.7,731 221.7,696.5 		"/>
		<polygon class="st38" points="1920,661.1 1920,749.5 1780.3,713.4 1753.7,717.5 1728.9,701.8 1593.8,657.7 1477.7,666 
			1367.3,613.4 1213.2,642.6 960,639 908.7,666 889.7,657.7 834.5,685.5 773.6,677.6 670.8,701.8 657.5,685.5 544.2,701.8 
			472.9,720.7 221.7,696.5 124.6,666 0,662.1 0,594.6 170.3,575.6 320.6,599.4 418.9,619.4 430.1,621.6 467.8,635.5 528.1,657.7 
			608,642.6 651.8,642.6 672.7,623.1 678.6,623.7 688.8,624.7 710.8,626.9 731.7,601.3 813.5,592.7 903,579.9 918.2,561.7 
			948.7,553.6 984.8,553.6 1190.4,493.7 1329.3,501.3 1470.1,518.1 1498.6,556.7 1540.5,561.7 1616.6,553.6 1662.3,561.7 
			1690.9,601.3 1721.3,604.5 1757.5,601.3 		"/>
		<g class="st39">
			
				<linearGradient id="SVGID_00000028291265846759934380000008143078880004673975_" gradientUnits="userSpaceOnUse" x1="742.2656" y1="609.5087" x2="1103.3337" y2="609.5087">
				<stop  offset="0" style="stop-color:#FFFFFF"/>
				<stop  offset="1" style="stop-color:#FFFFFF;stop-opacity:0"/>
			</linearGradient>
			<path style="fill:url(#SVGID_00000028291265846759934380000008143078880004673975_);" d="M1025.7,568.5
				c-14.7,4.5-28,13.2-38.1,24.8c36.2-0.9,72.4-2.3,108.6-4.2c-12.1,6-24.4,11.7-36.8,17.1c15.1-1.1,30.5,2.1,44,9.1
				c-78.7-1.8-157.7,9-233,31.9c-1.3-6,5.7-10,11.2-12.6s11.4-9.3,7.4-14c-47.3,16.1-96.7,26.1-146.5,29.7c-1.2-4.6,4.5-7.8,9.1-9.2
				c21.4-6.2,43-11.8,64.2-18.6c-3,0.1-11,1.8-9.4-3.3c1.2-3.8,7.9-7,11.2-8.5c6.4-3.1,13.8-3.7,20.7-5c8.7-1.6,17.4-3.3,26-4.9
				c34.6-6.6,69.1-13.4,103.6-20.4c9.7-2,19.4-4,29.1-6C1006.4,572.6,1016.5,571.4,1025.7,568.5z"/>
			
				<linearGradient id="SVGID_00000013873645480465824890000005378323585835159199_" gradientUnits="userSpaceOnUse" x1="1077.111" y1="568.0709" x2="1522.2014" y2="568.0709">
				<stop  offset="0" style="stop-color:#FFFFFF"/>
				<stop  offset="1" style="stop-color:#FFFFFF;stop-opacity:0"/>
			</linearGradient>
			<path style="fill:url(#SVGID_00000013873645480465824890000005378323585835159199_);" d="M1079.1,544.1c-2.4,0.9-2.6,4.2-0.5,5.5
				c8.1,4.9,19.1,4.7,28.9,4.1c27.9-1.7,55.7-3.4,83.6-5c3.4-0.2,4.6,4.4,1.6,5.9l-34.2,16.9c-2.2,1.1-2.3,4.2-0.2,5.5
				c5,2.9,12,2.8,18,2.4l48.7-3.5c3.3-0.2,4.6,4.2,1.7,5.8c-9.1,5-17.7,11.2-25.3,18.3c-1.7,1.6-1.1,4.5,1.2,5.2
				c14.8,4.8,31.5,1.7,47.1-1.3c38.1-7.5,77.8-14.4,115.6-5c32.4,8.1,62.6,27.9,95.7,28.7c2.3,0.1,3.9-2.3,2.9-4.4
				c-3.6-7.7-8.2-15-13.5-21.6c-1.8-2.3,0.2-5.6,3-5c21.6,4.6,43.7,6.7,65.8,6.3c1.5,0,2.8-1.1,3-2.6c0.7-5.3-7.3-10.2-13.6-11.5
				c-59.8-12.4-119.6-24.9-179.4-37.3c-3.3-0.7-3.3-5.4,0-6.1l16.2-3.5c3.3-0.7,3.2-5.4-0.1-6.1c-16.8-3.3-34-5-51.1-5
				c-3.4,0-4.3-4.7-1.1-6c1.9-0.8,3.8-1.5,5.7-2.1c2.9-0.9,2.8-5.1-0.1-5.9c0,0-0.1,0-0.1,0c-4-1-8-1.9-12-2.8
				c-8.2-1.7-16.4-3-24.7-3.9c-16.6-1.8-33.3-2.1-49.9-0.9c-28.8,2.2-56,8.5-83.5,17.2C1111.7,531.8,1095.2,537.6,1079.1,544.1z"/>
			
				<linearGradient id="SVGID_00000178174668400365780720000008294853771898559400_" gradientUnits="userSpaceOnUse" x1="1637.6311" y1="675.0995" x2="1944.7676" y2="675.0995">
				<stop  offset="0" style="stop-color:#FFFFFF"/>
				<stop  offset="1" style="stop-color:#FFFFFF;stop-opacity:0"/>
			</linearGradient>
			<path style="fill:url(#SVGID_00000178174668400365780720000008294853771898559400_);" d="M1751,643c-37-5.6-73.8-22.4-109.3-15.3
				c-4.2,0.8-5.5,6.3-2.1,9c19.5,15.7,48.3,16.9,74,20.4c77.9,10.4,148.3,52.1,225.1,68.3c3.7,0.8,6.9-2.6,6-6.2
				c-2.4-9.3-3.3-18.9-2.7-28.5c0.2-2.7-1.7-5-4.3-5.4c-11.1-1.7-37.8-7.3-40.8-8c-15.2-3.9-30.2-8.7-44.8-14.5
				c-13.3-5.3-26.5-11.3-38.8-18.7c-7.5-4.5-14.7-9.7-23-12.7c-9.6-3.6-21.1-6.1-32.1-6.6c-4.9-0.2-7.3,6-3.5,9.1
				c0.1,0.1,0.2,0.1,0.2,0.2C1759,637.2,1756.1,643.8,1751,643z"/>
			
				<linearGradient id="SVGID_00000000915119700993701410000002025472702489659066_" gradientUnits="userSpaceOnUse" x1="-14.3009" y1="642.9814" x2="422.6122" y2="642.9814">
				<stop  offset="0" style="stop-color:#FFFFFF"/>
				<stop  offset="1" style="stop-color:#FFFFFF;stop-opacity:0"/>
			</linearGradient>
			<path style="fill:url(#SVGID_00000000915119700993701410000002025472702489659066_);" d="M151.6,605.2c-0.1,0.1-0.2,0.2-0.3,0.2
				c-4.8,3.6-2.1,11.3,4,11c24.1-1.2,48.1-3,72.1-5.5c3.9-0.4,7.3,2.9,6.7,6.8c-0.4,2.6-1.9,5.4-4.1,7.9c-3.4,3.9-0.6,10,4.5,10.1
				c24.5,0.5,49,2.7,73.1,6.7c4.8,0.8,6.8,6.6,3.5,10.2c-1,1.1-2.1,2.1-3.3,3.1c-3.7,3.2-2.4,9.2,2.2,10.5
				c17.8,5.1,38.3,2.8,57.5,1.8c18-0.9,38.3,0.8,52.2,9.6c5,3.2,3.1,10.9-2.8,11.3c-39.6,2.9-79.5,3.4-119.2,1.6
				c-10.5-0.5-21.4-1.2-30.5-5.7c-6.9-3.4-12.4-8.8-19.2-12.5c-16.4-9-37.3-6.8-56.6-7.4c-33.2-1-65-11-97.5-16.9
				c-23.5-4.2-47.5-6.3-71.5-7.1C8.2,640.7-11.3,644.4-14,628c-0.8-4.8,0.2-10.3,3.4-14.4c4.6-5.7,11.9-5.9,19.2-6.9
				c24.3-3.4,48.6-6.1,73.1-8.3c21.9-1.9,43.9-3.3,66-4.3C153.7,593.9,156.4,601.6,151.6,605.2z"/>
			
				<linearGradient id="SVGID_00000072983476402221828660000009799978894347348131_" gradientUnits="userSpaceOnUse" x1="414.5912" y1="666.7184" x2="623.7336" y2="666.7184">
				<stop  offset="0" style="stop-color:#FFFFFF"/>
				<stop  offset="1" style="stop-color:#FFFFFF;stop-opacity:0"/>
			</linearGradient>
			<path style="fill:url(#SVGID_00000072983476402221828660000009799978894347348131_);" d="M623.7,660.8c-0.6,4.7-3.8,9.7-8.1,12.2
				c-7.3,4.3-16.2,4.4-24.5,6.5c-6.5,1.7-12.7,4.7-19.2,6.4c-19.1,4.8-40-2.6-58.8,3.4c-9.1,2.9-18.4,8.9-27.4,5.7
				c-6-2.2-9.8-7.9-14.1-12.6c-8.2-8.9-19.1-14.8-29.6-20.5c-4.7-2.5-9.5-5.1-14.1-7.8c-3.8-2.3-9.2-5-11.9-8.8
				c-1.9-2.7-1.7-5.4-0.4-7.8l11.2,2.3l37.8,13.9l60.2,22.2l79.9-15.1H623.7z"/>
		</g>
	</g>
	
		<linearGradient id="orb-6_00000050660313378340824570000003799204086078674085_" gradientUnits="userSpaceOnUse" x1="1604.959" y1="741.4069" x2="1660.6296" y2="741.4069">
		<stop  offset="0" style="stop-color:#FFF69D"/>
		<stop  offset="0.5" style="stop-color:#FFEF00"/>
		<stop  offset="1" style="stop-color:#FFD400"/>
	</linearGradient>
	
		<circle id="orb-6" style="clip-path:url(#SVGID_00000180366512531538184470000014422119571481891258_);fill:url(#orb-6_00000050660313378340824570000003799204086078674085_);" cx="1632.8" cy="741.4" r="27.8"/>
	
		<linearGradient id="orb-3_00000138563417135647750530000011658700620401579916_" gradientUnits="userSpaceOnUse" x1="687.5413" y1="761.3185" x2="715.3766" y2="761.3185">
		<stop  offset="0" style="stop-color:#FFF69D"/>
		<stop  offset="0.5" style="stop-color:#FFEF00"/>
		<stop  offset="1" style="stop-color:#FFD400"/>
	</linearGradient>
	
		<circle id="orb-3" style="clip-path:url(#SVGID_00000180366512531538184470000014422119571481891258_);fill:url(#orb-3_00000138563417135647750530000011658700620401579916_);" cx="701.5" cy="761.3" r="13.9"/>
	<g id="foreground" style="clip-path:url(#SVGID_00000180366512531538184470000014422119571481891258_);">
		<g>
			<polygon class="st47" points="1604.4,1405 1604.4,1445.6 529.6,1445.6 529.6,1142.5 824,1180.7 878,1142.5 899.6,1103.1 
				1080.5,955 1164.2,955 1420.8,817 1477.5,817 1477.5,984 1504.5,930.5 			"/>
			
				<linearGradient id="SVGID_00000045616651684033175990000008005098663339874949_" gradientUnits="userSpaceOnUse" x1="627.765" y1="1131.3245" x2="1604.417" y2="1131.3245">
				<stop  offset="0" style="stop-color:#FFFFFF"/>
				<stop  offset="1" style="stop-color:#FFFFFF;stop-opacity:0"/>
			</linearGradient>
			<polygon style="fill:url(#SVGID_00000045616651684033175990000008005098663339874949_);" points="1604.4,1408.7 1604.4,1445.6 
				627.8,1445.6 627.8,1170.2 895.2,1204.9 944.3,1170.2 964,1134.4 1256.3,1029.4 1272.8,957.8 1439.3,817 1472.8,817 
				1439.3,1029.9 1407.9,1085.4 			"/>
			<polygon class="st49" points="1604,1068.1 1536.9,964.1 1504.5,1068.1 1566.7,1425.8 1704.3,1425.8 			"/>
			<polygon class="st47" points="2136.1,1126.4 2136.1,1385.1 1677.3,1385.1 1593.6,1202.1 1578.4,1028.5 1566.7,895.1 
				1585.9,860.1 1682.7,1043.1 1672.1,987.1 1704,966.1 1688,895.1 1732.4,918 2019.4,1066.2 			"/>
			<polygon class="st50" points="1604.4,1405 1604.4,1445.6 1566.7,1293 1504.5,1278 1445.7,1131.3 1372.2,1116.5 1391.1,996.5 
				1426.2,966 1391.1,938 1472.8,817 1477.5,817 1477.5,984 1504.5,930.5 			"/>
			
				<linearGradient id="SVGID_00000168116334188850336590000013115685038091541402_" gradientUnits="userSpaceOnUse" x1="1488.2954" y1="1445.6444" x2="1488.2954" y2="817.0045">
				<stop  offset="0" style="stop-color:#A16055"/>
				<stop  offset="1" style="stop-color:#A16055;stop-opacity:0"/>
			</linearGradient>
			<polygon style="fill:url(#SVGID_00000168116334188850336590000013115685038091541402_);" points="1604.4,1405 1604.4,1445.6 
				1566.7,1293 1504.5,1278 1445.7,1131.3 1372.2,1116.5 1391.1,996.5 1426.2,966 1391.1,938 1472.8,817 1477.5,817 1477.5,984 
				1504.5,930.5 			"/>
			<polygon class="st50" points="2044.6,1405.1 1817.9,1405.1 1803.7,1385.1 1661.4,1185.1 1585.9,860.1 1682.7,1043.1 
				1672.1,987.1 1704,966.1 1769.2,1083.2 1815.2,1230.4 1831.7,1233.1 1828.5,1182.1 1851.4,1184.7 1877.2,1273.1 2019.2,1385.1 
							"/>
			
				<linearGradient id="SVGID_00000078037607161872836630000010120214409026945444_" gradientUnits="userSpaceOnUse" x1="1815.2312" y1="1405.1125" x2="1815.2312" y2="860.1125">
				<stop  offset="0" style="stop-color:#A16055"/>
				<stop  offset="1" style="stop-color:#A16055;stop-opacity:0"/>
			</linearGradient>
			<polygon style="fill:url(#SVGID_00000078037607161872836630000010120214409026945444_);" points="2044.6,1405.1 1817.9,1405.1 
				1803.7,1385.1 1661.4,1185.1 1585.9,860.1 1682.7,1043.1 1672.1,987.1 1704,966.1 1769.2,1083.2 1815.2,1230.4 1831.7,1233.1 
				1828.5,1182.1 1851.4,1184.7 1877.2,1273.1 2019.2,1385.1 			"/>
			
				<linearGradient id="SVGID_00000163785194789308753320000011962921649242376071_" gradientUnits="userSpaceOnUse" x1="1737.2709" y1="937.3363" x2="2108.1841" y2="1182.8832">
				<stop  offset="0" style="stop-color:#FFFFFF"/>
				<stop  offset="1" style="stop-color:#FFFFFF;stop-opacity:0"/>
			</linearGradient>
			<polygon style="opacity:0.5;fill:url(#SVGID_00000163785194789308753320000011962921649242376071_);" points="1952.8,1031.8 
				1688,895.1 1952.8,1128.3 			"/>
		</g>
		<g id="l-foreground">
			<polygon class="st54" points="1096,939.4 1158.8,998.1 1197.1,1082.3 1287.6,1100.1 1407.9,1256.1 446.9,1256.1 446.9,1082.3 
				446.9,945.2 			"/>
			<polygon class="st55" points="982.1,1034.6 1042.1,1124.3 1059.4,1005.5 997.3,1005.5 			"/>
			<polygon class="st56" points="1096,939.4 1053.7,1029.4 715.4,1054.9 -42.8,1131.2 -42.8,850.8 623.7,817 852.6,848.6 
				973.2,893.7 			"/>
			
				<linearGradient id="SVGID_00000112627055983743850030000010918572746443225521_" gradientUnits="userSpaceOnUse" x1="476.5867" y1="1024.9326" x2="476.5867" y2="844.8398">
				<stop  offset="0" style="stop-color:#FFFFFF;stop-opacity:0"/>
				<stop  offset="1" style="stop-color:#FFFFFF"/>
			</linearGradient>
			<polygon style="fill:url(#SVGID_00000112627055983743850030000010918572746443225521_);" points="996,927.2 956.4,988.4 
				343.6,1024.9 -42.8,1005.7 -42.8,866 608.8,844.8 823.9,877.9 			"/>
			<polygon class="st50" points="-65.3,978.8 334.6,978.4 433.1,997 533.1,1089.8 688.8,1107.3 716.3,1129.6 839.2,1140.9 
				931.9,1198.7 994.8,1278.1 -64,1278.1 			"/>
		</g>
	</g>
</g>
</svg>
