<?xml version="1.0" encoding="utf-8"?>
<!-- Generator: Adobe Illustrator 26.0.3, SVG Export Plug-In . SVG Version: 6.00 Build 0)  -->
<svg version="1.1" xmlns="http://www.w3.org/2000/svg" xmlns:xlink="http://www.w3.org/1999/xlink" x="0px" y="0px"
	 viewBox="0 0 1920 1080" style="enable-background:new 0 0 1920 1080;" xml:space="preserve">
<style type="text/css">
	
		.st0{clip-path:url(#SVGID_00000139996204594082281380000013061035740877845633_);fill:url(#sky_00000119108669697101515460000002789433925535388554_);}
	.st1{clip-path:url(#SVGID_00000139996204594082281380000013061035740877845633_);}
	.st2{fill:#8B7F96;}
	.st3{filter:url(#Adobe_OpacityMaskFilter);}
	.st4{fill:url(#SVGID_00000067197891607016381840000013061434934869162169_);}
	.st5{mask:url(#SVGID_00000040562037448067829580000005084805789800946325_);}
	.st6{fill:#755732;}
	.st7{filter:url(#Adobe_OpacityMaskFilter_00000163044205108915961530000003891651893021745026_);}
	.st8{fill:url(#SVGID_00000071555384117702094320000014336474511661965710_);}
	.st9{mask:url(#SVGID_00000064347999291595191880000010476287010359410106_);}
	.st10{fill:#875184;}
	.st11{fill:#996599;}
	.st12{filter:url(#Adobe_OpacityMaskFilter_00000097466563545219001990000009240018161455345568_);}
	.st13{fill:url(#SVGID_00000173861207502924129080000018043456741613644701_);}
	.st14{mask:url(#SVGID_00000015345910605781471070000017791382711586224044_);fill:#755732;}
	.st15{opacity:0.5;}
	.st16{fill:url(#SVGID_00000152242944063154675440000009609804584252960151_);}
	.st17{fill:#AF5BAD;}
	.st18{fill:#BF6DBF;}
	.st19{fill:#994293;}
	.st20{fill:#9B8C42;}
	.st21{fill:#897936;}
	.st22{fill:#844082;}
	.st23{fill:#BB88BC;}
	.st24{fill:url(#SVGID_00000101103145689325384470000015660146066864567454_);}
	.st25{fill:url(#SVGID_00000158002162108071877680000002011937813374787764_);}
	.st26{fill:url(#SVGID_00000004524131470913204190000005914890565582694050_);}
	.st27{fill:url(#SVGID_00000178919234741475508940000008875147648119869887_);}
	.st28{fill:url(#SVGID_00000123427869991973078760000015995305301129784241_);}
	.st29{clip-path:url(#SVGID_00000139996204594082281380000013061035740877845633_);fill:#645573;}
	.st30{fill:#9E95A7;}
	.st31{clip-path:url(#SVGID_00000139996204594082281380000013061035740877845633_);fill:#D8D4DC;}
	
		.st32{clip-path:url(#SVGID_00000139996204594082281380000013061035740877845633_);fill:none;stroke:#9E95A7;stroke-width:9;stroke-miterlimit:10;}
	.st33{fill:#B2AAB9;}
	.st34{fill:#D8D4DC;}
	.st35{fill:#786A85;}
	.st36{fill:#AA859D;}
	.st37{clip-path:url(#SVGID_00000026874644968782768240000008729036441117404856_);}
	.st38{fill:#B49EB7;}
	.st39{fill:#826087;}
	.st40{fill:#C5BFCA;}
	.st41{clip-path:url(#SVGID_00000049220570422253684170000001589617643363160767_);fill:#AA85AA;}
	.st42{clip-path:url(#SVGID_00000049220570422253684170000001589617643363160767_);}
	.st43{fill:#7F5974;}
	.st44{fill:#D8BFA9;}
	.st45{clip-path:url(#SVGID_00000023974343373693597360000000437940080557841794_);}
	.st46{fill:none;stroke:#786A85;stroke-width:5.6795;stroke-miterlimit:10;}
	.st47{fill:#AA85AA;}
	.st48{fill:#C6AF8F;}
	.st49{fill:#9388A0;}
	.st50{fill:#C2BDC9;}
</style>
<g id="outside-space">
</g>
<g id="inside_ship">
	<g>
		<defs>
			<rect id="SVGID_1_" width="1920" height="1080"/>
		</defs>
		<clipPath id="SVGID_00000159462986375945011820000008546169859614417047_">
			<use xlink:href="#SVGID_1_"  style="overflow:visible;"/>
		</clipPath>
		
			<linearGradient id="sky_00000124866462485509431310000014935523226185423000_" gradientUnits="userSpaceOnUse" x1="960" y1="-67.5699" x2="960" y2="617.2698">
			<stop  offset="0" style="stop-color:#17002D"/>
			<stop  offset="1" style="stop-color:#645573"/>
		</linearGradient>
		
			<rect id="sky" x="-8.8" y="-61.6" style="clip-path:url(#SVGID_00000159462986375945011820000008546169859614417047_);fill:url(#sky_00000124866462485509431310000014935523226185423000_);" width="1937.7" height="1096.9"/>
		<g id="stars" style="clip-path:url(#SVGID_00000159462986375945011820000008546169859614417047_);">
			<circle class="st2" cx="1668.2" cy="170.9" r="4.1"/>
			<circle class="st2" cx="107.8" cy="162.4" r="6.5"/>
			<circle class="st2" cx="231.1" cy="299.5" r="2.3"/>
			<circle class="st2" cx="57.2" cy="344.4" r="4.8"/>
			<circle class="st2" cx="402.5" cy="368.7" r="5.1"/>
			<circle class="st2" cx="319.4" cy="134.7" r="3.7"/>
			<circle class="st2" cx="1806.3" cy="337.9" r="3.1"/>
			<circle class="st2" cx="1478.7" cy="109.5" r="2.5"/>
			<circle class="st2" cx="1861.2" cy="177.3" r="6.5"/>
			<circle class="st2" cx="485.9" cy="35.2" r="6.5"/>
			<circle class="st2" cx="195.9" cy="68.4" r="2.6"/>
			<circle class="st2" cx="50.9" cy="21" r="2.6"/>
			<circle class="st2" cx="911.4" cy="162.4" r="4.2"/>
		</g>
		<g id="planet" style="clip-path:url(#SVGID_00000159462986375945011820000008546169859614417047_);">
			<defs>
				<filter id="Adobe_OpacityMaskFilter" filterUnits="userSpaceOnUse" x="196" y="261.9" width="1958.1" height="1043.3">
					<feColorMatrix  type="matrix" values="1 0 0 0 0  0 1 0 0 0  0 0 1 0 0  0 0 0 1 0"/>
				</filter>
			</defs>
			
				<mask maskUnits="userSpaceOnUse" x="196" y="261.9" width="1958.1" height="1043.3" id="SVGID_00000152263561898079254520000001713869265929070270_">
				<g class="st3">
					
						<linearGradient id="SVGID_00000080206372535986383300000016204232705681491862_" gradientUnits="userSpaceOnUse" x1="1080.2532" y1="793.1183" x2="1835.663" y2="537.8563" gradientTransform="matrix(0.8903 0.4555 0.4555 -0.8903 -900.4568 429.9458)">
						<stop  offset="0" style="stop-color:#FFFFFF"/>
						<stop  offset="0.1572" style="stop-color:#FCFCFC"/>
						<stop  offset="0.2869" style="stop-color:#F1F1F1"/>
						<stop  offset="0.407" style="stop-color:#E0E0E0"/>
						<stop  offset="0.5213" style="stop-color:#C8C8C8"/>
						<stop  offset="0.6314" style="stop-color:#A9A9A9"/>
						<stop  offset="0.7385" style="stop-color:#828282"/>
						<stop  offset="0.843" style="stop-color:#545454"/>
						<stop  offset="0.9429" style="stop-color:#212121"/>
						<stop  offset="1" style="stop-color:#000000"/>
					</linearGradient>
					<polygon style="fill:url(#SVGID_00000080206372535986383300000016204232705681491862_);" points="2242.5,1239 162.1,174.6 
						-45.8,581.1 2034.5,1645.4 					"/>
				</g>
			</mask>
			<g style="mask:url(#SVGID_00000152263561898079254520000001713869265929070270_);">
				<path class="st6" d="M2154.1,1260.5c-61,119.2-547.4-7.7-1086.3-283.5c-539-275.8-926.4-595.9-865.5-715.1l230.9,118.1
					c-46.5,91,249.2,335.4,660.7,545.9c411.4,210.5,782.7,307.4,829.3,216.4L2154.1,1260.5z"/>
			</g>
			<defs>
				
					<filter id="Adobe_OpacityMaskFilter_00000047025780902557693460000017448326568301089670_" filterUnits="userSpaceOnUse" x="533.5" y="178.1" width="1247.7" height="1247.7">
					<feColorMatrix  type="matrix" values="1 0 0 0 0  0 1 0 0 0  0 0 1 0 0  0 0 0 1 0"/>
				</filter>
			</defs>
			
				<mask maskUnits="userSpaceOnUse" x="533.5" y="178.1" width="1247.7" height="1247.7" id="SVGID_00000112634179300967993500000004086449857139724438_">
				<g style="filter:url(#Adobe_OpacityMaskFilter_00000047025780902557693460000017448326568301089670_);">
					
						<radialGradient id="SVGID_00000067209354828104339050000000224669284081407371_" cx="2528.9875" cy="483.3833" r="889.4708" fx="2534.3059" fy="484.528" gradientTransform="matrix(0.8903 0.4555 0.4555 -0.8903 -900.4568 429.9458)" gradientUnits="userSpaceOnUse">
						<stop  offset="0.2701" style="stop-color:#000000"/>
						<stop  offset="0.3607" style="stop-color:#040404"/>
						<stop  offset="0.4522" style="stop-color:#101010"/>
						<stop  offset="0.5442" style="stop-color:#242424"/>
						<stop  offset="0.6365" style="stop-color:#414141"/>
						<stop  offset="0.7291" style="stop-color:#656565"/>
						<stop  offset="0.822" style="stop-color:#929292"/>
						<stop  offset="0.9133" style="stop-color:#C6C6C6"/>
						<stop  offset="1" style="stop-color:#FFFFFF"/>
					</radialGradient>
					<circle style="fill:url(#SVGID_00000067209354828104339050000000224669284081407371_);" cx="1157.4" cy="801.9" r="763.7"/>
				</g>
			</mask>
			<g style="mask:url(#SVGID_00000112634179300967993500000004086449857139724438_);">
				<path class="st10" d="M1712.7,1086c-156.9,306.7-532.7,428.1-839.3,271.2c-306.7-156.9-428.1-532.7-271.2-839.3
					c69.2-135.3,181.1-234.6,310.8-289.8c164.3-69.9,357.2-69.1,528.5,18.6c46.9,24,89.6,53.2,127.5,86.4
					C1778.8,517,1845.5,826.3,1712.7,1086z"/>
				<path class="st11" d="M1569,333.1c-0.3,2.7-0.6,5.3-1.1,7.9c-18.3,96.7-73.1,164.7-204-23.4
					c-130.9-188.1-309.3-94.5-336.7,125.7c-17.4,139.9-208.9,407.4-319.8,154.2c-110.8-253.2,254.8-120.3,258-279.8
					c1.3-62.9-22.8-85.4-52.4-89.5c164.3-69.9,357.2-69.1,528.5,18.6C1488.4,270.7,1531,299.8,1569,333.1z"/>
				<path class="st11" d="M1220.2,540.6c0,0,92.3-138.4,26.4-191.4s8.3-52.6,48.3-14.4s22.1,129.6,42.9,176.9
					S1220.2,540.6,1220.2,540.6L1220.2,540.6z"/>
			</g>
			<defs>
				
					<filter id="Adobe_OpacityMaskFilter_00000037685514441222451110000017897757557014154661_" filterUnits="userSpaceOnUse" x="202.3" y="217.2" width="1958.1" height="1043.3">
					<feColorMatrix  type="matrix" values="1 0 0 0 0  0 1 0 0 0  0 0 1 0 0  0 0 0 1 0"/>
				</filter>
			</defs>
			
				<mask maskUnits="userSpaceOnUse" x="202.3" y="217.2" width="1958.1" height="1043.3" id="SVGID_00000017486085172055201660000005154414458776673459_">
				<g style="filter:url(#Adobe_OpacityMaskFilter_00000037685514441222451110000017897757557014154661_);">
					
						<linearGradient id="SVGID_00000033360008568864399840000011328238617690138009_" gradientUnits="userSpaceOnUse" x1="893.8331" y1="1101.3196" x2="2572.9038" y2="533.9413" gradientTransform="matrix(0.8903 0.4555 0.4555 -0.8903 -900.4568 429.9458)">
						<stop  offset="0" style="stop-color:#FFFFFF"/>
						<stop  offset="0.1572" style="stop-color:#FCFCFC"/>
						<stop  offset="0.2869" style="stop-color:#F1F1F1"/>
						<stop  offset="0.407" style="stop-color:#E0E0E0"/>
						<stop  offset="0.5213" style="stop-color:#C8C8C8"/>
						<stop  offset="0.6314" style="stop-color:#A9A9A9"/>
						<stop  offset="0.7385" style="stop-color:#828282"/>
						<stop  offset="0.843" style="stop-color:#545454"/>
						<stop  offset="0.9429" style="stop-color:#212121"/>
						<stop  offset="1" style="stop-color:#000000"/>
					</linearGradient>
					<polygon style="fill:url(#SVGID_00000033360008568864399840000011328238617690138009_);" points="2335.8,979 309.1,-57.9 
						76.5,396.6 2103.3,1433.5 					"/>
				</g>
			</mask>
			<path style="mask:url(#SVGID_00000017486085172055201660000005154414458776673459_);fill:#755732;" d="M2154.1,1260.5
				c61-119.2-326.5-439.4-865.5-715.1C749.7,269.6,263.3,142.8,202.3,261.9l230.9,118.1c46.5-91,417.8,5.9,829.3,216.4
				c411.4,210.5,707.3,454.9,660.7,545.9L2154.1,1260.5z"/>
		</g>
		<g id="spaceship" style="clip-path:url(#SVGID_00000159462986375945011820000008546169859614417047_);">
			<g class="st15">
				
					<linearGradient id="SVGID_00000165936960641259600970000012289634599579252133_" gradientUnits="userSpaceOnUse" x1="1305.827" y1="188.5344" x2="935.3484" y2="451.1246">
					<stop  offset="0" style="stop-color:#F7F6F6;stop-opacity:0"/>
					<stop  offset="1" style="stop-color:#C1A4DD"/>
				</linearGradient>
				<path style="fill:url(#SVGID_00000165936960641259600970000012289634599579252133_);" d="M783.2,178.2l8.4,0.6l8.2,0.7l16.4,1.4
					c10.9,1,21.8,2.1,32.7,3.3c21.8,2.4,43.5,5,65.2,7.9c10.9,1.5,21.7,3,32.5,4.6c10.8,1.6,21.6,3.3,32.5,5.1
					c21.6,3.5,43.2,7.4,64.7,11.5c21.5,4.2,43,8.8,64.4,13.7c21.4,5,42.7,10.3,63.9,16.3c21.2,6,42.3,12.5,63.2,19.7
					c20.9,7.2,41.6,15.2,62,24.3c20.4,9.1,40.4,19.2,59.6,31.2c9.6,6,19,12.4,28.1,19.5c4.5,3.5,8.9,7.2,13.3,11.1
					c2.2,1.9,4.3,3.9,6.4,5.9l3.1,3.1c1,1,2.1,2.2,3.2,3.3c4.2,4.6,8.1,9.6,11.4,15.2c1.6,2.8,3.2,5.6,4.5,8.6
					c0.7,1.5,1.3,3,1.9,4.5c0.5,1.6,1.1,3.1,1.6,4.7c1.9,6.3,3,12.9,3.1,19.5c0.2,6.5-0.6,13-1.9,19.1c-2.8,12.3-7.9,23.4-13.9,33.4
					c-6.1,10-13.1,19.1-20.6,27.6c-15,16.9-31.8,31.6-49.2,45c-17.4,13.5-35.6,25.8-54.1,37.3c-9.3,5.8-18.6,11.4-28.1,16.8
					c-9.5,5.4-19,10.6-28.7,15.7c-19.3,10.1-38.8,19.7-58.7,28.4c9.5-5.3,18.8-10.9,28-16.5c9.3-5.6,18.4-11.4,27.5-17.3
					c9.1-5.9,18.1-11.8,27-18c8.9-6.1,17.7-12.3,26.4-18.7c8.7-6.4,17.2-13,25.6-19.7c8.4-6.7,16.6-13.6,24.6-20.7
					c8-7.1,15.7-14.5,23-22c7.4-7.6,14.4-15.4,20.8-23.6c6.4-8.2,12.1-16.7,16.8-25.5c4.6-8.8,8.1-17.9,9.6-26.9
					c1.5-9,0.8-17.7-2.1-25.6c-0.3-1-0.8-2-1.2-3c-0.5-1-0.9-1.9-1.4-2.9c-1-1.9-2.1-3.8-3.4-5.6c-2.5-3.6-5.4-7.1-8.7-10.3
					c-0.9-0.8-1.6-1.6-2.6-2.4l-2.8-2.5c-1.9-1.6-3.8-3.3-5.8-4.9c-3.9-3.2-8-6.2-12.2-9.2c-8.4-5.9-17.2-11.3-26.2-16.3
					c-18.2-10-37.4-18.6-57-26.2c-39.4-15.2-80.4-26.8-122-36.6c-41.6-9.7-83.7-17.6-126.1-24.1c-21.2-3.3-42.4-6.3-63.7-9
					c-10.6-1.4-21.3-2.6-32-3.8c-10.7-1.2-21.3-2.4-32-3.5c-21.4-2.2-42.8-4.2-64.2-5.9c-10.7-0.9-21.4-1.6-32.1-2.4l-16-1l-8-0.5
					l-7.8-0.4L783.2,178.2z"/>
			</g>
			<g>
				<g>
					<path class="st17" d="M784.4,218.8c4.8,4.3,14,10.2,24.7,8s14.7-5.3,14.7-5.3s-7.2,0.8-11.7-0.8c17.6-3.6,30.2-11,30.2-11
						s-16.8-7.8-24.2-10l9.4-1.6c0,0-9.4-4.4-16.8-5.9l3.8-1.6c0,0-16.4-3.6-28.4,6.5C773.8,207.1,780.4,215.1,784.4,218.8z"/>
					<path class="st18" d="M824,209.7c-14.3,7.8-25.9,6.9-25.9,6.9l5.5,4.8c-7,0.7-12.7-4.2-15-6.5c-2.3-2.3-3.4-4.5-3.2-6.6
						c0.2-2.8,2.5-5.5,4.4-7.3c3.3-3.1,7-4.9,10.4-5.2c5.4-0.5,10.2,1.7,12.7,3.3l-8.3,3.3C807.7,203.4,819.8,207.7,824,209.7z"/>
				</g>
				<polygon class="st19" points="795.3,186.5 792.3,232 775.4,223.6 777.5,192.6 				"/>
				<path class="st20" d="M698.1,163.9c34.9,2.3,86.2,15.5,86.2,15.5l-3.9,58.1c0,0-52.7,6.2-87.5,3.9c-2.1-0.1-4.2-0.5-6.3-0.9
					c-29.1-6.4-49.7-41.8-49.7-41.8s24.7-32.4,54.9-34.8C693.8,163.8,696,163.8,698.1,163.9z"/>
				<path class="st21" d="M691.8,164l-5.1,76.6c-29.1-6.4-49.7-41.8-49.7-41.8S661.6,166.4,691.8,164z"/>
				<circle class="st22" cx="689.2" cy="202.3" r="18.3"/>
				<circle class="st23" cx="689.2" cy="202.3" r="13.6"/>
				<path class="st22" d="M743.3,240.9c0,0,8.5,16.5,26.9,17.8c18.4,1.2,44.5-10,44.5-10l-34.3-11.1L743.3,240.9z"/>
				<path class="st22" d="M748,171.2c0,0,10.7-15.2,29.1-14c18.4,1.2,42.8,15.8,42.8,15.8l-35.5,6.4L748,171.2z"/>
				<path class="st22" d="M817.3,210.8L817.3,210.8c-0.1,0.8-0.7,1.4-1.4,1.4c-7.7,0.5-45.9,3-59.1,0c-3.1-0.7-11.3-3.1-11.1-6.2
					c0.2-3.2,8.6-4.4,11.8-4.7c13.5-1.1,51.1,6.3,58.6,7.9C816.8,209.4,817.3,210.1,817.3,210.8z"/>
			</g>
		</g>
		<g id="r-reflection" style="clip-path:url(#SVGID_00000159462986375945011820000008546169859614417047_);">
			
				<linearGradient id="SVGID_00000112602371133542550060000005130090973421645741_" gradientUnits="userSpaceOnUse" x1="1097.2511" y1="-1382.8989" x2="1097.2511" y2="-422.8367" gradientTransform="matrix(0.2891 0.4079 -0.7004 0.4964 658.1017 72.7725)">
				<stop  offset="0" style="stop-color:#FFFFFF;stop-opacity:0.3"/>
				<stop  offset="1" style="stop-color:#F7F6F6;stop-opacity:0"/>
			</linearGradient>
			<polygon style="fill:url(#SVGID_00000112602371133542550060000005130090973421645741_);" points="1163.9,436.7 1116.7,370.2 
				1898.7,-184.1 1945.9,-117.5 			"/>
			
				<linearGradient id="SVGID_00000122711542813540396050000004420008087582116285_" gradientUnits="userSpaceOnUse" x1="1446.6959" y1="-1464.5596" x2="1446.6959" y2="-494.6479" gradientTransform="matrix(0.1431 0.2019 -0.7004 0.4964 830.6995 316.2842)">
				<stop  offset="0" style="stop-color:#FFFFFF;stop-opacity:0.3"/>
				<stop  offset="1" style="stop-color:#F7F6F6;stop-opacity:0"/>
			</linearGradient>
			<polygon style="fill:url(#SVGID_00000122711542813540396050000004420008087582116285_);" points="1272.7,466.5 1249.3,433.6 
				2031.3,-120.6 2054.6,-87.7 			"/>
			
				<linearGradient id="SVGID_00000065051582916386762150000007454706992174079622_" gradientUnits="userSpaceOnUse" x1="2420.6646" y1="-1535.1448" x2="2420.6646" y2="-266.0187" gradientTransform="matrix(0.1063 0.15 -0.7004 0.4964 868.0172 368.9343)">
				<stop  offset="0" style="stop-color:#FFFFFF;stop-opacity:0.3"/>
				<stop  offset="0.6584" style="stop-color:#F7F6F6;stop-opacity:0"/>
			</linearGradient>
			<polygon style="fill:url(#SVGID_00000065051582916386762150000007454706992174079622_);" points="1405.6,551.7 1388.2,527.2 
				2170.2,-27.1 2187.5,-2.6 			"/>
		</g>
		<g id="l-reflection" style="clip-path:url(#SVGID_00000159462986375945011820000008546169859614417047_);">
			
				<linearGradient id="SVGID_00000142155043413346354040000011211821350934200763_" gradientUnits="userSpaceOnUse" x1="108.9107" y1="-285.783" x2="108.9107" y2="983.343" gradientTransform="matrix(0.7433 0.669 -0.5743 0.6381 288.6161 -43.3172)">
				<stop  offset="0" style="stop-color:#FFFFFF;stop-opacity:0.3"/>
				<stop  offset="0.846" style="stop-color:#F7F6F6;stop-opacity:0"/>
			</linearGradient>
			<polygon style="fill:url(#SVGID_00000142155043413346354040000011211821350934200763_);" points="-64.6,633.9 -185.9,524.8 
				455.3,-187.7 576.6,-78.5 			"/>
			
				<linearGradient id="SVGID_00000094618003808387683390000012991159955559644092_" gradientUnits="userSpaceOnUse" x1="78.4718" y1="-331.6595" x2="78.4718" y2="937.4664" gradientTransform="matrix(0.3716 0.3345 -0.5743 0.6381 464.5741 115.0455)">
				<stop  offset="0" style="stop-color:#FFFFFF;stop-opacity:0.3"/>
				<stop  offset="0.7249" style="stop-color:#F7F6F6;stop-opacity:0"/>
			</linearGradient>
			<polygon style="fill:url(#SVGID_00000094618003808387683390000012991159955559644092_);" points="55.6,689.1 -5,634.5 
				636.2,-77.9 696.8,-23.3 			"/>
		</g>
		<polygon id="ceiling" style="clip-path:url(#SVGID_00000159462986375945011820000008546169859614417047_);fill:#645573;" points="
			-118.3,-71.5 1027.7,66.5 1207.9,60.3 1977.7,19.1 1977.7,-71.5 		"/>
		<g id="post_2_" style="clip-path:url(#SVGID_00000159462986375945011820000008546169859614417047_);">
			<path id="post_1_" class="st2" d="M990.1,62l79.2-9.9h96.9l109.6,4.2c0,0-42.3,3.1-54,10.2c-4.8,3-13.9,18-13.9,18v478.3
				l-180.2-12.3V96.1c0,0-7.3-19.1-12.2-23.6C1010.5,67.9,990.1,62,990.1,62z"/>
			<g id="post">
				<polygon class="st30" points="1069.4,52.1 1166.3,52.1 1166.3,583.2 1069.4,570.2 				"/>
			</g>
		</g>
		<path id="floor" style="clip-path:url(#SVGID_00000159462986375945011820000008546169859614417047_);fill:#D8D4DC;" d="
			M-202.2,1164.2c8-2.7,1311.7-393.1,1311.7-393.1l886.8,105.7l-18.6,273.7L-202.2,1164.2z"/>
		
			<path id="r-window" style="clip-path:url(#SVGID_00000159462986375945011820000008546169859614417047_);fill:none;stroke:#9E95A7;stroke-width:9;stroke-miterlimit:10;" d="
			M1977.7,526.3L1207.9,493V93c0-18.3,14.4-33.5,32.7-34.5l737.1-39.5V526.3z"/>
		
			<path id="l-window" style="clip-path:url(#SVGID_00000159462986375945011820000008546169859614417047_);fill:none;stroke:#9E95A7;stroke-width:9;stroke-miterlimit:10;" d="
			M-205.2,600.1L992.9,486.6c19.8-1.9,34.9-18.5,34.9-38.3V100.7c0-19.5-14.5-35.9-33.9-38.2L-204.3-81.8
			c-22.9-2.8-43.1,15.1-43.1,38.2v605.4C-247.3,584.5-227.8,602.2-205.2,600.1z"/>
		<g id="control_panel" style="clip-path:url(#SVGID_00000159462986375945011820000008546169859614417047_);">
			<g>
				<polygon class="st33" points="3038.9,1036.8 1129.5,811.8 1129.5,587.4 3038.9,712.5 				"/>
				<g>
					<path class="st30" d="M1474.6,807.9l-301.3-32.6V631.9l301.3,22.6V807.9z M1178.2,771l290.8,31.1V659.3l-290.8-22.2V771z"/>
				</g>
				<g>
					<path class="st30" d="M1878.2,851.6l-354.1-38.3v-155l354.1,26.6V851.6z M1529.8,808.6l341.8,36.6V690L1529.8,664V808.6z"/>
				</g>
				<g>
					<path class="st30" d="M2358.9,903.6l-422.2-45.7V689.3l422.2,31.7V903.6z M1943.5,852.9l407.4,43.6v-170l-407.4-31.1V852.9z"/>
				</g>
				<g>
					<path class="st30" d="M2941.1,966.6l-511.9-55.4v-185l511.9,38.4V966.6z M2437.4,905.8l494,52.9V770.8l-494-37.7V905.8z"/>
				</g>
			</g>
			<g>
				<polygon class="st30" points="1129.6,812.1 -338.6,1221.9 -338.6,817.6 1129.6,587.5 				"/>
				<g>
					<g>
						<path class="st2" d="M44.1,1049.4l-324.9,83.4V881.6l324.9-58.2V1049.4z M-274.5,1122.7L39,1043V831.9l-313.6,57V1122.7z"/>
					</g>
					<g>
						<path class="st2" d="M345.8,972l-258.3,66.3V815.5l258.3-46.3V972z M92.4,1029.5l249.3-63.3V776.9L92.4,822.2V1029.5z"/>
					</g>
					<g>
						<path class="st2" d="M591,909.1l-210.3,54V763L591,725.3V909.1z M384.7,955.2l202.9-51.6V732.1L384.7,769V955.2z"/>
					</g>
					<g>
						<path class="st2" d="M794.2,856.9l-174.5,44.8V720.1l174.5-31.3V856.9z M623,894.7l168.4-42.8V695.1L623,725.7V894.7z"/>
					</g>
					<g>
						<path class="st2" d="M965.4,813l-147.1,37.8V684.6l147.1-26.4V813z M821,844.4l142-36.1V663.9l-142,25.8V844.4z"/>
					</g>
					<g>
						<path class="st2" d="M1111.5,775.5l-125.7,32.3V654.5l125.7-22.5V775.5z M988.1,801.9l121.3-30.8V637.2l-121.3,22.1V801.9z"/>
					</g>
				</g>
			</g>
			<g id="r-control-panel">
				<polygon class="st34" points="3038.8,484.5 1200.5,439 1129,588 2932.2,706.7 				"/>
				<polygon class="st35" points="1241.1,564.2 1207.8,562.2 1251.7,470.7 1285.4,471.8 				"/>
				<polygon class="st35" points="1329.7,569.3 1294.9,567.3 1339.8,473.6 1375.1,474.7 				"/>
				<g>
					<g>
						<path class="st36" d="M1471.2,485.7c-2.2,4.7-10.5,8.2-18.5,7.9c-7.9-0.3-12.6-4.3-10.3-8.9c2.2-4.6,10.4-8.2,18.4-7.9
							C1468.8,477,1473.5,481,1471.2,485.7z"/>
						<path class="st30" d="M1518.7,487.3c-2.3,4.7-10.7,8.3-18.9,8c-8.1-0.3-12.9-4.3-10.6-9c2.2-4.7,10.6-8.3,18.8-8
							C1516.1,478.6,1520.9,482.6,1518.7,487.3z"/>
						<path class="st30" d="M1567.3,489c-2.3,4.8-10.9,8.4-19.3,8.1c-8.3-0.3-13.2-4.4-10.9-9.1s10.8-8.3,19.2-8.1
							C1564.6,480.1,1569.6,484.2,1567.3,489z"/>
						<path class="st30" d="M1617,490.7c-2.3,4.8-11.2,8.5-19.7,8.2c-8.5-0.3-13.6-4.4-11.3-9.2c2.3-4.8,11.1-8.4,19.6-8.2
							C1614.2,481.8,1619.3,485.9,1617,490.7z"/>
						<path class="st36" d="M1668,492.5c-2.3,4.9-11.4,8.6-20.2,8.3c-8.7-0.3-13.9-4.5-11.6-9.4c2.3-4.8,11.3-8.5,20-8.3
							C1665.1,483.4,1670.4,487.6,1668,492.5z"/>
					</g>
					<g>
						<path class="st30" d="M1439.7,520.7c-7.9-0.3-12.5-4.4-10.3-9c2.2-4.6,10.4-8.1,18.4-7.8c8,0.3,12.6,4.3,10.4,9
							C1455.9,517.5,1447.7,521,1439.7,520.7z"/>
						<path class="st30" d="M1426.7,547.8c-7.9-0.4-12.5-4.5-10.3-9.1c2.2-4.6,10.4-8.1,18.3-7.7c7.9,0.4,12.6,4.4,10.4,9.1
							C1442.9,544.7,1434.6,548.2,1426.7,547.8z"/>
						<path class="st36" d="M1413.7,574.9c-7.9-0.5-12.4-4.6-10.2-9.2c2.2-4.6,10.4-8,18.3-7.6c7.9,0.4,12.5,4.5,10.3,9.2
							C1429.8,571.9,1421.6,575.3,1413.7,574.9z"/>
					</g>
					<g>
						<path class="st30" d="M1486.6,522.7c-8.1-0.4-12.8-4.4-10.6-9.1c2.2-4.7,10.6-8.2,18.7-7.9c8.2,0.3,13,4.4,10.7,9.1
							C1503.2,519.5,1494.8,523.1,1486.6,522.7z"/>
						<path class="st30" d="M1473.5,550.1c-8.1-0.4-12.8-4.5-10.5-9.2s10.6-8.2,18.7-7.8c8.1,0.4,12.9,4.5,10.7,9.2
							C1490,547.1,1481.6,550.5,1473.5,550.1z"/>
						<path class="st30" d="M1460.3,577.6c-8.1-0.5-12.7-4.6-10.5-9.3s10.6-8.1,18.6-7.7c8.1,0.4,12.9,4.6,10.6,9.3
							C1476.8,574.6,1468.4,578,1460.3,577.6z"/>
					</g>
					<g>
						<path class="st36" d="M1534.6,524.8c-8.3-0.4-13.2-4.5-10.9-9.2s10.8-8.3,19.1-8c8.4,0.3,13.3,4.5,11,9.2
							C1551.6,521.6,1543,525.2,1534.6,524.8z"/>
						<path class="st30" d="M1521.3,552.6c-8.3-0.4-13.1-4.6-10.8-9.3c2.3-4.7,10.8-8.3,19.1-7.9c8.3,0.4,13.2,4.6,11,9.3
							C1538.3,549.5,1529.6,553,1521.3,552.6z"/>
						<path class="st30" d="M1508,580.3c-8.2-0.5-13.1-4.7-10.8-9.4s10.8-8.2,19-7.8c8.3,0.4,13.2,4.7,10.9,9.4
							S1516.3,580.8,1508,580.3z"/>
					</g>
					<g>
						<path class="st30" d="M1583.8,527c-8.5-0.4-13.5-4.6-11.2-9.3c2.3-4.8,11-8.4,19.6-8.1c8.6,0.3,13.6,4.5,11.3,9.3
							C1601.2,523.7,1592.4,527.3,1583.8,527z"/>
						<path class="st36" d="M1570.4,555.1c-8.5-0.4-13.5-4.7-11.2-9.4c2.3-4.8,11-8.4,19.5-8c8.5,0.4,13.6,4.6,11.3,9.5
							C1587.7,551.9,1578.9,555.5,1570.4,555.1z"/>
						<path class="st36" d="M1556.9,583.1c-8.4-0.5-13.4-4.8-11.1-9.6s11-8.3,19.5-7.9c8.5,0.5,13.5,4.7,11.2,9.6
							S1565.4,583.6,1556.9,583.1z"/>
					</g>
					<g>
						<path class="st30" d="M1634.2,529.2c-8.7-0.4-13.9-4.6-11.5-9.5c2.3-4.8,11.3-8.5,20-8.2c8.8,0.3,14,4.6,11.7,9.5
							C1652,525.9,1643,529.6,1634.2,529.2z"/>
						<path class="st30" d="M1620.6,557.6c-8.7-0.4-13.8-4.7-11.5-9.6c2.3-4.8,11.2-8.4,19.9-8c8.7,0.4,13.9,4.7,11.6,9.6
							C1638.3,554.4,1629.3,558,1620.6,557.6z"/>
						<path class="st30" d="M1606.9,586c-8.7-0.5-13.8-4.8-11.4-9.7c2.3-4.8,11.2-8.4,19.9-7.9c8.7,0.5,13.9,4.8,11.6,9.7
							C1624.6,583,1615.6,586.5,1606.9,586z"/>
					</g>
				</g>
				<g>
					<defs>
						<polygon id="SVGID_00000158710309156313781320000004345580069521953409_" points="2055,613.2 1708.2,593.1 1759.9,485.3 
							2110.9,496.7 						"/>
					</defs>
					<clipPath id="SVGID_00000100340700240981952630000013255840821440454275_">
						<use xlink:href="#SVGID_00000158710309156313781320000004345580069521953409_"  style="overflow:visible;"/>
					</clipPath>
					<g style="clip-path:url(#SVGID_00000100340700240981952630000013255840821440454275_);">
						<polygon class="st38" points="2055,613.2 1708.2,593.1 1759.9,485.3 2110.9,496.7 						"/>
					</g>
					<g style="clip-path:url(#SVGID_00000100340700240981952630000013255840821440454275_);">
						<path class="st39" d="M1908.6,592.1c-21.3-1.2-18.5-21.6-15.5-43.1c2.7-19.9,5.8-42.4-13.4-43.1
							c-18.3-0.7-27.7,13.2-37.8,27.8c-10.6,15.5-21.5,31.4-44.9,30.3c-24.9-1.2-23.2-13-21.8-22.5c1.2-8.5,1.4-13.8-8.4-14.2
							c-9.8-0.4-15.5,3.6-24,10.1c-10.1,7.8-22.7,17.6-49.9,16.2c-9.2-0.4-15.7-2.6-19.5-6.4c-11-11.2,6.2-33.2,6.9-34.2l5.1,0.7
							c-0.2,0.2-16.9,21.6-7,31.7c3.1,3.1,8.2,4.8,15.9,5.2c23.6,1.1,33.9-6.9,43.9-14.6c7.8-6.1,16-12.4,30-11.8
							c15,0.6,13.9,8.9,12.7,16.9c-1.4,9.6-2.6,18.7,17.5,19.7c18.3,0.9,27.8-13,37.9-27.8c10.5-15.3,21.3-31.2,44.9-30.4
							c24.2,0.9,21.1,23.7,18.1,45.9c-2.6,19.3-5.4,39.4,10.9,40.3c17.5,1,28.6-13.7,39.4-27.8c5.4-7.1,10.5-13.8,16.6-18.9
							c7.4-6.3,15.4-9.1,24.3-8.8c19.7,0.8,17.9,13.7,16.2,26.3c-1.7,12.4-3.3,24.2,13.3,25.1c14.7,0.8,24.2-15.8,33.3-31.8
							c5.5-9.5,11.1-19.4,18.4-26.8c8.9-9,19.1-13.2,31.4-12.7l-1.6,3.3c-20.4-0.7-31.3,18.3-41.9,36.7
							c-10.5,18.4-20.4,35.7-41.2,34.6c-10-0.5-15.9-3.8-18.1-10.1c-1.8-5.1-0.9-11.7,0-18c1.6-11.7,3.1-22.7-11.3-23.3
							c-13.9-0.6-23.9,12.6-33.5,25.2c-5.7,7.4-11.5,15.1-18.5,20.8C1928.3,589.6,1919,592.6,1908.6,592.1z"/>
					</g>
				</g>
				<g>
					<polygon class="st40" points="2328.7,549.1 2189.7,543.3 2210.5,499.9 2350.1,504.4 					"/>
					<polygon class="st40" points="2292.4,624.7 2154.5,616.7 2175.3,573.3 2313.9,580 					"/>
					<polygon class="st40" points="2550.7,558.3 2398.9,552 2420.6,506.7 2573.1,511.6 					"/>
					<polygon class="st40" points="2512.8,637.4 2362.1,628.7 2383.8,583.3 2535.2,590.6 					"/>
					<polygon class="st40" points="2793.9,568.4 2627.5,561.5 2650.2,514.1 2817.4,519.5 					"/>
					<polygon class="st40" points="2754.1,651.3 2589,641.7 2611.7,594.3 2777.6,602.3 					"/>
				</g>
			</g>
			<g id="l-control-panel">
				<polygon class="st33" points="1027.1,443.3 -353.6,533.9 -170.5,792.3 1129.6,587.9 				"/>
				<g>
					<defs>
						<polygon id="SVGID_00000065060510294704341690000012186890823683047353_" points="775.8,607.5 607.2,631 523.7,513.1 
							698.7,498.8 						"/>
					</defs>
					<clipPath id="SVGID_00000081614587431218174810000014337005162210047619_">
						<use xlink:href="#SVGID_00000065060510294704341690000012186890823683047353_"  style="overflow:visible;"/>
					</clipPath>
					<polygon style="clip-path:url(#SVGID_00000081614587431218174810000014337005162210047619_);fill:#AA85AA;" points="
						791.7,613.5 600.3,640.9 504.7,506 704.5,490.4 					"/>
					<g style="clip-path:url(#SVGID_00000081614587431218174810000014337005162210047619_);">
						<g>
							<path class="st43" d="M684.2,615.6c-26.2,0-60.5-19.6-79.4-46.4c-11.9-16.8-15.6-33.2-10.1-45c4-8.7,12.7-14,24.4-15
								c26.9-2.3,63.6,18,83.6,46.2l0,0c11.7,16.4,15.4,32.7,10.3,44.5c-3.6,8.4-11.6,13.8-22.4,15.3
								C688.5,615.5,686.4,615.6,684.2,615.6z M623.3,515.2c-1.2,0-2.5,0-3.7,0.2c-9.6,0.8-16.3,4.8-19.4,11.4
								c-4.5,9.6-0.9,24.2,9.5,38.9c19,26.9,55.7,46.8,80,43.5c8.7-1.2,14.8-5.2,17.6-11.6c4.2-9.7,0.6-24.1-9.6-38.5l0,0
								C680.1,534.1,647.6,515.2,623.3,515.2z"/>
						</g>
						<g>
							<path class="st43" d="M673.6,596.9c-16.8,0-38.8-12.6-50.9-29.6c-7.7-10.8-10-21.5-6.4-29.4c2.7-5.8,8.3-9.4,16-10.1
								c17.3-1.6,40.9,11.3,53.8,29.5l0,0c7.6,10.7,10,21.3,6.5,29.1c-2.5,5.7-7.9,9.3-15.2,10.2
								C676.2,596.8,674.9,596.9,673.6,596.9z M635.3,533.8c-0.8,0-1.7,0-2.5,0.1c-3.8,0.4-8.8,1.8-11,6.6
								c-2.6,5.7-0.4,14.4,5.9,23.3c11.6,16.4,34.1,28.7,48.9,26.9c3.6-0.5,8.3-2,10.4-6.6c2.5-5.7,0.3-14.4-5.9-23.1
								C670.2,545.4,650.2,533.8,635.3,533.8z"/>
						</g>
						<g>
							<path class="st43" d="M662.6,578.2c-7.5,0-16.9-5.4-22.2-12.9c-3.5-5-4.5-10-2.8-13.8c1.3-3,4.1-4.8,7.9-5.2
								c7.7-0.8,18.1,4.8,23.7,12.8l0,0c3.5,4.9,4.5,9.9,2.8,13.7c-1.3,2.9-4.1,4.8-7.7,5.2C663.7,578.1,663.1,578.2,662.6,578.2z
								 M647,552.4c-0.3,0-0.6,0-0.9,0c-1.5,0.2-2.5,0.7-3,1.6c-0.6,1.3-0.3,4.1,2.2,7.7c4.4,6.2,12.7,10.9,18.2,10.2
								c1.5-0.2,2.5-0.7,2.9-1.6c0.6-1.3,0.3-4.1-2.2-7.7C660,556.9,652.4,552.4,647,552.4z"/>
						</g>
					</g>
					<g style="clip-path:url(#SVGID_00000081614587431218174810000014337005162210047619_);">
						<path class="st43" d="M654.8,565.3c-0.2,0-0.4,0-0.6-0.1c-1.7-0.3-2.7-1.9-2.4-3.6l10-49.9c0.3-1.7,1.9-2.7,3.6-2.4
							c1.7,0.3,2.7,1.9,2.4,3.6l-10,49.9C657.5,564.3,656.2,565.3,654.8,565.3z"/>
					</g>
				</g>
				<g>
					<polygon class="st44" points="920.7,480.6 936.3,479.3 949.8,498.3 934.4,499.8 					"/>
					<polygon class="st40" points="941.7,478.9 956.9,477.6 970.2,496.4 955.1,497.8 					"/>
					<polygon class="st40" points="962.1,477.2 977,476 990.2,494.6 975.4,496 					"/>
					<polygon class="st44" points="982.2,475.5 996.7,474.4 1009.7,492.8 995.3,494.1 					"/>
					<polygon class="st40" points="1001.7,473.9 1016,472.8 1028.9,491 1014.8,492.3 					"/>
					<polygon class="st40" points="939.2,506.6 954.5,505.1 968,524.1 952.8,525.8 					"/>
					<polygon class="st40" points="959.9,504.5 974.9,503.1 988.3,521.9 973.3,523.5 					"/>
					<polygon class="st44" points="980.1,502.6 994.8,501.2 1008,519.8 993.5,521.4 					"/>
					<polygon class="st40" points="1000,500.7 1014.3,499.3 1027.4,517.7 1013.1,519.2 					"/>
					<polygon class="st40" points="1019.4,498.8 1033.4,497.4 1046.3,515.6 1032.4,517.2 					"/>
					<polygon class="st40" points="957.6,532.5 972.8,530.8 986.3,549.9 971.2,551.7 					"/>
					<polygon class="st44" points="978.1,530.2 993,528.6 1006.3,547.4 991.5,549.2 					"/>
					<polygon class="st40" points="998.2,528 1012.7,526.4 1025.9,545 1011.5,546.8 					"/>
					<polygon class="st40" points="1017.8,525.8 1032,524.2 1045.1,542.6 1030.9,544.4 					"/>
					<polygon class="st40" points="1037,523.6 1050.9,522.1 1063.8,540.3 1050,542 					"/>
					<polygon class="st40" points="976,558.5 991,556.6 1004.5,575.6 989.6,577.7 					"/>
					<polygon class="st40" points="996.3,555.9 1011,554.1 1024.4,572.9 1009.7,574.9 					"/>
					<polygon class="st40" points="1016.2,553.4 1030.6,551.6 1043.8,570.2 1029.5,572.2 					"/>
					<polygon class="st44" points="1035.6,550.9 1049.7,549.1 1062.7,567.5 1048.7,569.5 					"/>
					<polygon class="st40" points="1054.6,548.5 1068.4,546.7 1081.3,565 1067.6,566.9 					"/>
				</g>
				<g>
					<polygon class="st40" points="-280.9,579 -239.1,575.6 -217,606.7 -258.5,610.6 					"/>
					<polygon class="st40" points="-224.6,574.4 -184.3,571.1 -162.6,601.7 -202.6,605.4 					"/>
					<polygon class="st40" points="-170.3,569.9 -131.4,566.8 -110.1,596.8 -148.7,600.4 					"/>
					<polygon class="st40" points="-118,565.7 -80.5,562.6 -59.5,592.1 -96.8,595.6 					"/>
					<polygon class="st40" points="-67.5,561.5 -31.2,558.5 -10.7,587.6 -46.6,590.9 					"/>
					<polygon class="st40" points="-250.6,621.8 -209.2,617.8 -187.1,648.9 -228.2,653.4 					"/>
					<polygon class="st40" points="-194.8,616.4 -154.9,612.5 -133.2,643.1 -172.9,647.4 					"/>
					<polygon class="st40" points="-141.1,611.2 -102.6,607.4 -81.3,637.5 -119.5,641.6 					"/>
					<polygon class="st40" points="-89.3,606.1 -52.1,602.5 -31.2,632.1 -68.1,636.1 					"/>
					<polygon class="st40" points="-39.3,601.3 -3.4,597.8 17.2,626.9 -18.4,630.7 					"/>
					<polygon class="st40" points="-220.3,664.5 -179.3,659.9 -157.2,691.1 -197.9,696.1 					"/>
					<polygon class="st40" points="-165.1,658.3 -125.6,653.9 -103.9,684.5 -143.1,689.4 					"/>
					<polygon class="st40" points="-111.9,652.4 -73.8,648.1 -52.5,678.2 -90.3,682.8 					"/>
					<polygon class="st40" points="-60.6,646.6 -23.8,642.5 -2.9,672 -39.4,676.6 					"/>
					<polygon class="st40" points="-11.1,641.1 24.4,637.1 45,666.1 9.8,670.5 					"/>
					<polygon class="st40" points="-190,707.3 -149.4,702.1 -127.3,733.3 -167.6,738.9 					"/>
					<polygon class="st40" points="-135.3,700.3 -96.2,695.3 -74.5,725.9 -113.4,731.3 					"/>
					<polygon class="st40" points="-82.7,693.6 -45,688.8 -23.7,718.9 -61.1,724.1 					"/>
					<polygon class="st40" points="-31.9,687.1 4.5,682.5 25.4,712 -10.7,717 					"/>
					<polygon class="st40" points="17.1,680.9 52.3,676.4 72.8,705.4 38,710.3 					"/>
				</g>
				<g>
					<g>
						<path class="st40" d="M791.7,511.4c7.5,10.6,6.1,19.9-3.1,20.9c-9.3,1-23.2-7-30.8-17.7c-7.6-10.8-6.1-20.1,3.4-20.9
							C770.6,492.9,784.2,500.8,791.7,511.4z"/>
						<g>
							<path class="st2" d="M772.6,524.4c-8.9-5.1-15.1-14.1-14-20.3c0.4-2.3,1.7-4.1,3.8-5c3.7-1.7,9.2-0.8,15,2.6
								c8.7,5.1,14.9,13.9,13.9,20.2l-3-0.4c0.7-4.9-5-12.7-12.5-17.1c-4.8-2.8-9.4-3.7-12.2-2.4c-1.2,0.6-1.9,1.5-2.1,2.8
								c-0.8,5,5,12.9,12.6,17.2L772.6,524.4z"/>
						</g>
						<g>
							
								<rect x="772.7" y="499" transform="matrix(0.9946 -0.1036 0.1036 0.9946 -48.2551 82.9268)" class="st2" width="3" height="14"/>
						</g>
					</g>
					<g>
						<path class="st40" d="M845.6,506.4c7.3,10.3,6.2,19.4-2.6,20.3c-8.8,0.9-22.1-6.8-29.5-17.3c-7.4-10.5-6.1-19.5,2.9-20.3
							C825.2,488.4,838.3,496.2,845.6,506.4z"/>
						<g>
							<path class="st2" d="M827.6,519.1c-8.5-5-14.5-13.7-13.7-19.8c0.3-2.3,1.6-4,3.5-5c3.5-1.7,8.8-0.7,14.3,2.5
								c8.4,5,14.3,13.6,13.6,19.6l-3-0.4c0.6-4.8-4.9-12.4-12.1-16.6c-4.5-2.7-8.9-3.6-11.5-2.4c-1.1,0.5-1.7,1.4-1.9,2.7
								c-0.7,4.8,4.9,12.5,12.2,16.8L827.6,519.1z"/>
						</g>
						<g>
							
								<rect x="816.6" y="507.3" transform="matrix(0.9909 -0.1348 0.1348 0.9909 -61.0586 115.5757)" class="st2" width="13.1" height="3"/>
						</g>
					</g>
					<g>
						<path class="st40" d="M896.6,501.8c7.1,10,6.2,18.8-2.1,19.7c-8.4,0.9-21.1-6.7-28.3-16.9c-7.2-10.2-6.1-19,2.4-19.7
							C877,484.2,889.5,491.7,896.6,501.8z"/>
						<g>
							<path class="st2" d="M879.7,514c-8.2-4.9-14-13.3-13.3-19.2c0.3-2.2,1.5-4,3.4-4.9c3.3-1.6,8.4-0.7,13.7,2.5
								c8,4.8,13.9,13.2,13.2,19.1l-3-0.3c0.5-4.6-4.9-12-11.8-16.2c-4.3-2.6-8.5-3.5-10.8-2.4c-1,0.5-1.5,1.3-1.7,2.6
								c-0.6,4.7,4.9,12.1,11.9,16.3L879.7,514z"/>
						</g>
						<g>
							
								<rect x="881.4" y="500.4" transform="matrix(0.979 -0.2037 0.2037 0.979 -83.6548 191.3148)" class="st2" width="11.8" height="3"/>
						</g>
					</g>
					<g>
						<path class="st40" d="M837.6,576.2c7.5,10.6,6.3,20.2-2.7,21.4c-9.1,1.3-22.8-6.4-30.4-17.2s-6.2-20.4,3-21.4
							C816.7,557.9,830.1,565.6,837.6,576.2z"/>
						<g>
							<path class="st2" d="M819.1,590c-8.8-5-15-13.9-14.1-20.3c0.3-2.4,1.7-4.3,3.8-5.3c3.6-1.8,9-0.9,14.6,2.3
								c8.6,4.9,14.8,13.8,13.9,20.1l-3-0.4c0.6-5.1-5.1-12.9-12.5-17.1c-4.6-2.6-9.1-3.5-11.7-2.2c-1.2,0.6-1.9,1.6-2.1,3
								c-0.7,5.1,5,13,12.6,17.3L819.1,590z"/>
						</g>
						<g>
							
								<rect x="810.8" y="563.4" transform="matrix(0.4669 -0.8843 0.8843 0.4669 -74.1992 1024.0125)" class="st2" width="3" height="20.2"/>
						</g>
					</g>
					<g>
						<path class="st40" d="M890.2,569.5c7.3,10.3,6.3,19.6-2.2,20.8c-8.6,1.2-21.7-6.3-29.1-16.8c-7.4-10.5-6.3-19.8,2.5-20.8
							C870.1,551.6,882.9,559.2,890.2,569.5z"/>
						<g>
							<path class="st2" d="M872.8,582.9c-8.4-4.9-14.4-13.5-13.7-19.7c0.3-2.4,1.5-4.2,3.6-5.2c3.4-1.7,8.6-0.8,13.9,2.2
								c8.3,4.8,14.2,13.4,13.6,19.6l-3-0.3c0.5-4.9-5-12.5-12.1-16.7c-4.4-2.5-8.6-3.4-11.1-2.2c-1.1,0.6-1.8,1.5-1.9,2.9
								c-0.6,5,5,12.6,12.2,16.8L872.8,582.9z"/>
						</g>
						<g>
							
								<rect x="868.2" y="554.3" transform="matrix(0.8429 -0.5381 0.5381 0.8429 -166.6389 556.5466)" class="st2" width="3" height="18.6"/>
						</g>
					</g>
					<g>
						<path class="st40" d="M940.1,563.1c7.1,10,6.3,19-1.8,20.2c-8.2,1.1-20.7-6.2-27.9-16.4c-7.2-10.2-6.3-19.2,2-20.2
							C920.6,545.7,933,553.1,940.1,563.1z"/>
						<g>
							<path class="st2" d="M923.7,576.1c-8.1-4.7-13.9-13.2-13.3-19.2c0.2-2.3,1.4-4.2,3.4-5.1c3.2-1.6,8.2-0.8,13.3,2.2
								c7.9,4.7,13.8,13.1,13.2,19.1l-3-0.3c0.4-4.8-5-12.2-11.8-16.2c-4.2-2.5-8.2-3.3-10.4-2.1c-1,0.5-1.6,1.4-1.7,2.8
								c-0.5,4.8,5,12.3,11.9,16.3L923.7,576.1z"/>
						</g>
						<g>
							
								<rect x="923.1" y="551.8" transform="matrix(0.9936 -0.1125 0.1125 0.9936 -56.9673 107.5979)" class="st2" width="3" height="13.2"/>
						</g>
					</g>
				</g>
				<g>
					<defs>
						<path id="SVGID_00000044162981448237513010000018330086852052901760_" d="M185.7,615.3c17.1,24.1,8.8,46.5-19,50.1
							c-28.4,3.7-66.3-13.6-84.1-38.7c-17.8-25.1-8.1-47.6,21-50.3C132.1,573.7,168.6,591.2,185.7,615.3z"/>
					</defs>
					<clipPath id="SVGID_00000128456886247090270530000000519111577813196443_">
						<use xlink:href="#SVGID_00000044162981448237513010000018330086852052901760_"  style="overflow:visible;"/>
					</clipPath>
					<g style="clip-path:url(#SVGID_00000128456886247090270530000000519111577813196443_);">
						<g>
							<line class="st46" x1="56.8" y1="574.9" x2="128.6" y2="676.2"/>
							<line class="st46" x1="69.2" y1="573.8" x2="140.7" y2="674.6"/>
							<line class="st46" x1="81.5" y1="572.6" x2="152.7" y2="673.1"/>
							<line class="st46" x1="93.8" y1="571.5" x2="164.6" y2="671.5"/>
							<line class="st46" x1="105.9" y1="570.4" x2="176.4" y2="670"/>
							<line class="st46" x1="117.8" y1="569.4" x2="188" y2="668.4"/>
							<line class="st46" x1="129.7" y1="568.3" x2="199.6" y2="666.9"/>
							<line class="st46" x1="141.5" y1="567.2" x2="211.1" y2="665.4"/>
						</g>
						<g>
							<line class="st46" x1="166.6" y1="579.3" x2="50" y2="590.5"/>
							<line class="st46" x1="173.8" y1="589.4" x2="57.5" y2="601"/>
							<line class="st46" x1="180.9" y1="599.5" x2="64.9" y2="611.6"/>
							<line class="st46" x1="188.1" y1="609.6" x2="72.4" y2="622.1"/>
							<line class="st46" x1="195.2" y1="619.7" x2="79.9" y2="632.7"/>
							<line class="st46" x1="202.4" y1="629.8" x2="87.4" y2="643.2"/>
							<line class="st46" x1="209.5" y1="639.8" x2="94.8" y2="653.7"/>
							<line class="st46" x1="216.7" y1="649.9" x2="102.3" y2="664.3"/>
						</g>
					</g>
					
						<use xlink:href="#SVGID_00000044162981448237513010000018330086852052901760_"  style="overflow:visible;fill:none;stroke:#786A85;stroke-width:5;stroke-miterlimit:10;"/>
				</g>
				<g>
					<path class="st2" d="M548.3,639.2L548.3,639.2c2.5-0.3,3-2.7,1.2-5.2l-79.2-111.7c-1.8-2.5-5.3-4.4-7.8-4.2h0
						c-2.6,0.2-3.2,2.4-1.4,5l79.5,112.2C542.4,637.8,545.9,639.5,548.3,639.2z"/>
					<path class="st2" d="M517,643.5L517,643.5c2.5-0.4,3.1-2.7,1.3-5.3L438.1,525c-1.8-2.6-5.4-4.4-8-4.2l0,0
						c-2.6,0.2-3.3,2.5-1.5,5l80.6,113.8C511,642.1,514.5,643.9,517,643.5z"/>
					<path class="st2" d="M484.9,648L484.9,648c2.6-0.4,3.2-2.8,1.4-5.3l-81.4-114.9c-1.8-2.6-5.5-4.5-8.2-4.3l0,0
						c-2.7,0.2-3.4,2.5-1.6,5.1L476.8,644C478.7,646.6,482.3,648.4,484.9,648z"/>
					<polygon class="st47" points="430.5,553.7 406.9,555.9 399.3,545.1 422.9,542.9 					"/>
					<polygon class="st48" points="488.6,586.2 465.9,588.7 458.3,578.1 481.1,575.6 					"/>
					<polygon class="st47" points="503.3,559 481.1,561.2 473.6,550.7 496,548.6 					"/>
				</g>
				<g>
					<path class="st35" d="M351.2,548.1l-3.5-2.2c-0.5-1.8-1.4-3.6-2.8-5.6c-5-7.1-14.3-12.6-22.6-14l-2.3-3.2l-5.3-4.6l-4.2,5.4
						l1.7,2.3l-2.7,3.4c0,0,0,0,0,0.1l0,0l0,0c-2.4,3.2-1.9,8.1,1.9,13.5c5.1,7.2,14.5,12.7,22.8,14l2.3,3.2l9.4-0.9l4.2-5.4
						l-1.8-2.1L351.2,548.1z"/>
					<g>
						<path class="st30" d="M349.1,534.9c6.1,8.6,3.6,16.2-5.6,17.1c-9.3,0.9-21.8-5.5-28-14.2s-3.5-16.4,5.8-17.1
							C330.6,520,343.1,526.4,349.1,534.9z"/>
						<polygon class="st49" points="350.1,554.2 340.7,555 314.8,518.5 324.3,517.8 						"/>
					</g>
					<path class="st35" d="M390.3,605.2l-2.6-1.7c-0.8-4.5-4.2-9.5-9.4-13.6l1-2.4l-10.7-5.9l-1,2.4c-4.1-1.4-8-1.9-11.2-1.4
						l-2.6-1.7l-3.8,4.9c0,0,0,0,0,0l-0.4,0.4l0,0c-0.3,0.4-0.6,0.9-0.8,1.3c-2.4,5.3,1.5,13.1,8.9,18.9l-1.1,2.4l10.9,5.9l1.1-2.4
						c7.6,2.6,14.5,1.9,17.6-2l0,0L390.3,605.2z"/>
					<g>
						<path class="st30" d="M391.5,603.2c-2.8,6.5-13.6,7.1-24.3,1.2c-10.7-5.8-17.1-15.9-14.2-22.4c2.9-6.4,13.8-6.9,24.4-1
							C388,586.9,394.3,596.8,391.5,603.2z"/>
						<polygon class="st49" points="371.9,609.4 361,603.5 372.9,576.2 383.7,582.2 						"/>
					</g>
					<path class="st35" d="M431.4,663.7l0.1-0.2l-1.3-0.7l-2.6-2c-0.4-6-5.9-13.3-14.2-17.9c-5.1-2.9-10.4-4.2-14.7-4.1l-7-5.3
						l-4.2,5.4l-3.1,6.6l3.9,2.2c0,6.2,5.7,13.9,14.4,18.7c8.6,4.8,17.5,5.3,22,1.7l3.9,2.2l4.2-5.4L431.4,663.7z"/>
					<g>
						<path class="st30" d="M417.7,637.4c10.4,5.8,16.4,15.8,13.5,22.2c-2.9,6.5-13.7,7.1-24.2,1.2c-10.5-5.9-16.6-15.9-13.6-22.4
							C396.4,632,407.3,631.6,417.7,637.4z"/>
						<polygon class="st49" points="435.7,658.1 432.8,664.7 388.6,640 391.7,633.4 						"/>
					</g>
				</g>
				<g>
					<path class="st35" d="M232.9,562.1l3.3-3.6L233,556c-0.5-1.9-1.5-3.8-2.9-5.9c-4.9-6.9-13.9-12.4-22.4-14.2l-3.6-2.9l-0.6-0.8
						l-0.4,0l-5.8-4.6l-4.2,5.4l1.7,2.4l-3,3.7l0,0c-2.8,3.4-2.4,8.6,1.6,14.2c5.3,7.5,15.4,13.3,24.5,14.6l2.4,3.4l10.3-1l4.2-5.4
						l-3-0.7C232.2,563.6,232.6,562.9,232.9,562.1z"/>
					<g>
						<path class="st30" d="M234.3,544.7c6.4,9,3.4,17-6.7,18c-10.2,0.9-23.7-5.7-30.2-14.8s-3.3-17.2,6.9-18
							C214.6,529.1,228,535.7,234.3,544.7z"/>
						<polygon class="st49" points="234.7,564.9 224.4,565.9 197.3,527.6 207.7,526.8 						"/>
					</g>
					<path class="st35" d="M274.5,620.9l3-3.1l-2.7-2.2c-0.4-2.2-1.5-4.5-3.2-6.9c-5-7-14.1-12.5-22.7-14l-2.8-2.3l-0.9-1.3
						l-0.6,0.1l-5.4-4.4l-4.2,5.4l2.4,3.4c-6.2,2.8-7.3,9.7-2,17.2c5.3,7.5,15.3,13.2,24.3,14.3l2.4,3.4l10.1-1.2l4.2-5.4l-2-2.8
						C274.5,621,274.5,620.9,274.5,620.9z"/>
					<g>
						<path class="st30" d="M275.9,603.3c6.4,9,3.5,17.2-6.4,18.4c-10,1.2-23.4-5.3-29.9-14.4c-6.5-9.1-3.5-17.4,6.6-18.4
							C256.3,587.9,269.5,594.4,275.9,603.3z"/>
						<polygon class="st49" points="276.5,623.8 266.3,625 239.2,586.7 249.5,585.7 						"/>
					</g>
					<path class="st35" d="M316,680.1l2.3-2.5l-1.6-1.4c-0.1-2.7-1.2-5.8-3.4-9c-5.1-7.2-14.6-12.7-23.3-13.9l-1.3-1.1L287,650
						l-1,0.1l-4.9-4.2l-4.2,5.4l1.8,2.6l-2.9,3.7l0,0c-2.6,3.6-2.2,9,1.8,14.6c5.3,7.5,15.3,13.1,24.1,14l2.4,3.4l10-1.4l4.2-5.4
						l-3.2-0.9C315.4,681.3,315.7,680.7,316,680.1z"/>
					<g>
						<path class="st30" d="M317.4,662c6.4,9,3.7,17.4-6.1,18.8c-9.8,1.4-23.1-4.8-29.6-14s-3.6-17.6,6.3-18.8
							C298,646.7,311,653,317.4,662z"/>
						<polygon class="st49" points="318.2,682.8 308.3,684.2 281.1,645.9 291.2,644.6 						"/>
					</g>
				</g>
				<g>
					<g>
						<path class="st2" d="M296,540.1c1.9,2.6,1.1,4.9-1.8,5.2c-2.9,0.2-6.7-1.7-8.5-4.3s-1-5,1.8-5.2
							C290.3,535.6,294.2,537.5,296,540.1z"/>
						<path class="st30" d="M292.8,540.4c0,0,1.4,1.8-0.6,2c-2,0.2-3.3-1.7-3.3-1.7l-5.6-6.8c-1.2-1.5-1-3,0.6-3.1l0,0
							c1.6-0.1,3.7,1.1,4.7,2.7L292.8,540.4z"/>
					</g>
					<g>
						<path class="st2" d="M337.4,598.5c1.9,2.6,1.1,5-1.7,5.3c-2.8,0.3-6.6-1.6-8.5-4.2s-1.1-5,1.7-5.3
							C331.7,594,335.5,595.9,337.4,598.5z"/>
						<path class="st30" d="M334.2,598.8c0,0,1.4,1.8-0.6,2.1c-2,0.2-3.2-1.6-3.2-1.6l-5.6-6.8c-1.2-1.5-1-3,0.6-3.2h0
							c1.5-0.2,3.7,1,4.6,2.6L334.2,598.8z"/>
					</g>
					<g>
						<path class="st2" d="M378.7,656.9c1.9,2.6,1.1,5-1.6,5.4c-2.8,0.4-6.5-1.4-8.4-4.1c-1.9-2.6-1.1-5.1,1.6-5.4
							C373.1,652.4,376.9,654.2,378.7,656.9z"/>
						<path class="st30" d="M375.6,657.3c0,0,1.4,1.8-0.6,2.1c-2,0.3-3.2-1.6-3.2-1.6l-5.5-6.8c-1.2-1.5-1-3,0.5-3.2l0,0
							c1.5-0.2,3.6,1,4.6,2.5L375.6,657.3z"/>
					</g>
				</g>
				<g>
					<g>
						<path class="st2" d="M257.4,543.4c1.9,2.7,1,5-1.9,5.3c-2.9,0.3-6.9-1.7-8.8-4.4c-1.9-2.7-1-5,1.9-5.3
							C251.6,538.8,255.5,540.8,257.4,543.4z"/>
						<path class="st30" d="M254.1,543.7c0,0,1.4,1.9-0.7,2.1c-2.1,0.2-3.4-1.7-3.4-1.7l-5.7-6.9c-1.3-1.6-1-3,0.7-3.1l0,0
							c1.6-0.1,3.8,1.1,4.8,2.7L254.1,543.7z"/>
					</g>
					<g>
						<path class="st2" d="M299.4,602.7c1.9,2.7,1.1,5.1-1.8,5.4c-2.9,0.3-6.8-1.6-8.7-4.2c-1.9-2.7-1.1-5.1,1.8-5.4
							C293.6,598.1,297.5,600,299.4,602.7z"/>
						<path class="st30" d="M296.1,603.1c0,0,1.4,1.9-0.7,2.1c-2,0.2-3.3-1.7-3.3-1.7l-5.7-6.9c-1.3-1.6-1-3,0.6-3.2l0,0
							c1.6-0.2,3.8,1.1,4.7,2.6L296.1,603.1z"/>
					</g>
					<g>
						<path class="st2" d="M341.4,662c1.9,2.7,1.1,5.1-1.7,5.5c-2.8,0.4-6.7-1.4-8.6-4.1s-1.1-5.1,1.8-5.5
							C335.7,657.5,339.5,659.3,341.4,662z"/>
						<path class="st30" d="M338.2,662.4c0,0,1.4,1.9-0.6,2.1c-2,0.3-3.3-1.6-3.3-1.6l-5.6-6.9c-1.3-1.5-1-3.1,0.6-3.3h0
							c1.6-0.2,3.7,1,4.7,2.6L338.2,662.4z"/>
					</g>
				</g>
			</g>
			<polygon class="st50" points="1027.1,443.3 1200.5,439 1129.6,587.9 			"/>
		</g>
		<g id="sticks" style="clip-path:url(#SVGID_00000159462986375945011820000008546169859614417047_);">
			<g>
				<polygon class="st33" points="1348.1,531.1 1329.7,569.3 1327.5,569.3 1327.5,454.1 1348.1,454.1 				"/>
				<circle class="st30" cx="1337.8" cy="454.1" r="17.5"/>
			</g>
			<g>
				<polygon class="st33" points="1257.6,529.7 1247.5,550.7 1194.4,478.8 1211,466.6 				"/>
				<circle class="st30" cx="1202.7" cy="472.7" r="17.5"/>
			</g>
		</g>
	</g>
</g>
</svg>
