<svg xmlns="http://www.w3.org/2000/svg" xmlns:xlink="http://www.w3.org/1999/xlink" viewBox="0 0 180 252"><defs><style>.cls-1,.cls-17,.cls-20{fill:none;}.cls-2{fill:#eaeaea;}.cls-3{fill:#323232;}.cls-4{fill:#ddee64;}.cls-5{fill:#e9f49a;}.cls-6{fill:#b28c40;}.cls-7{fill:#960;}.cls-8{fill:#ddcd00;}.cls-9{fill:url(#radial-gradient);}.cls-10{fill:url(#radial-gradient-2);}.cls-11{fill:url(#radial-gradient-3);}.cls-12{fill:#c9175f;}.cls-13{fill:#ff4280;}.cls-14{fill:#43dcff;}.cls-15{clip-path:url(#clip-path);}.cls-16{fill:#ffa400;}.cls-17{stroke:#ed6100;}.cls-17,.cls-20,.cls-22{stroke-miterlimit:10;}.cls-17,.cls-20{stroke-width:0.66px;}.cls-18{clip-path:url(#clip-path-2);}.cls-19{clip-path:url(#clip-path-3);}.cls-20{stroke:#e82169;}.cls-21{fill:#e82169;}.cls-22{fill:#9ae0e2;fill-opacity:0.2;stroke:#9ae0e2;stroke-width:0.97px;}.cls-23{fill:#0049ff;}.cls-24{fill:#e9fcff;}.cls-25{fill:#00b0ff;}.cls-26,.cls-27{fill:#fff;}.cls-27{opacity:0.7;}.cls-28{fill:#69e3ff;}</style><radialGradient id="radial-gradient" cx="-40.06" cy="87.97" r="154.78" gradientUnits="userSpaceOnUse"><stop offset="0" stop-color="#5f9304"/><stop offset="1" stop-color="#5f9304" stop-opacity="0"/></radialGradient><radialGradient id="radial-gradient-2" cx="94.08" cy="61.5" r="80.28" xlink:href="#radial-gradient"/><radialGradient id="radial-gradient-3" cx="102.67" cy="139.6" r="74.34" gradientUnits="userSpaceOnUse"><stop offset="0" stop-color="#8c6a51"/><stop offset="1" stop-color="#8c6a51" stop-opacity="0"/></radialGradient><clipPath id="clip-path"><path class="cls-1" d="M44.57,130s-3.27-6.39-6.34-8-3.92-3.28-3-3.86c1.2-.79,3.3.65,3.79.28,1.06-.81-1.73-2.92.72-3.76,1.17-.4,3.86,3.71,5.5,1.64,1.41-1.76,2.59-2.74,3.59-1.36s-.8,3.69,1.55,7.24c.11.15,2.08,1.56,2.2,1.72C55.87,128.32,50.18,132.47,44.57,130Z"/></clipPath><clipPath id="clip-path-2"><path class="cls-1" d="M117.42,130s3.26-6.39,6.34-8,3.92-3.28,3-3.86c-1.21-.79-3.31.65-3.79.28-1.06-.81,1.72-2.92-.73-3.76-1.17-.4-3.85,3.71-5.5,1.64-1.4-1.76-2.59-2.74-3.58-1.36s.8,3.69-1.56,7.24c-.1.15-2.07,1.56-2.19,1.72C106.12,128.32,111.81,132.47,117.42,130Z"/></clipPath><clipPath id="clip-path-3"><path class="cls-1" d="M67.82,157.79c3.8,3.92,5.22,6.57,13.17,6.57s9.45-2.58,13.16-6.57a29.34,29.34,0,0,0,7-15.46c.75-7-1-23.06-1-23.06H61.77s-1.69,16.79-1,23.06A28.9,28.9,0,0,0,67.82,157.79Z"/></clipPath></defs><g id="Layer_2" data-name="Layer 2"><g id="content"><rect id="card" class="cls-2" width="180" height="252"/><g id="background"><polygon class="cls-3" points="169 11 169 224 152 241 11 241 11 28.26 28.26 11 169 11"/><path class="cls-4" d="M153.17,201.51c.21,3.29,9.36,1.85,9.61,4.11.22,2-23,5.18-23,8.93,0,4.6,23.2,5.52,23.65,10C163.79,227.81,133,236,105.27,236c-30.57,0-69.75-2.76-69.75-7.58,0-4,13-5.41,12.9-7.71-.28-4.52-27.2-4.42-37.42-7.12v-5.77c4.18-1.77,10.26-3.16,10.26-5.46,0-1.11-4.32-1.86-10.26-2.82v-9.17a363.51,363.51,0,0,1,158,1.26v6.24C160.67,198.68,153.06,199.77,153.17,201.51Z"/><g id="highlight"><path class="cls-5" d="M113.28,222c15.95,2.65,30.68,1.35,30.74-.06s-14.78-2.49-14.73-4.59c.05-1.57,8.46-2.24,8.4-2.89s-9.61-.44-20.46.57c-9.47.88-17,1.58-17.07,3C100.07,219.77,111.21,221.62,113.28,222Z"/><path class="cls-5" d="M63.86,230.83c11.31.65,23.54-.37,23.54-1.15,0-1.47-43.26-3.25-43.39-1.81C44,228.6,54.85,230.32,63.86,230.83Z"/></g><g id="rock"><g id="rocks"><polygon class="cls-6" points="166 197.63 103.75 195.81 108.2 188.91 124.18 184.77 138.28 170.68 141.85 169.24 146.43 169.24 149.51 166.17 156.95 163.18 161.72 165.66 166 197.63"/><polygon class="cls-4" points="113.28 191.13 130.89 186.16 138.28 170.68 127.4 184.77 113.28 191.13"/><polygon class="cls-4" points="135.47 186.92 146.85 170.78 155.82 164.38 151.11 171.03 152.9 174.22 145.13 179.47 135.47 186.92"/></g><g id="shadingv"><polygon class="cls-7" points="156.95 163.18 160.11 169.66 158.09 171.22 155.82 190.1 165.97 197.38 161.72 165.66 156.95 163.18"/><polygon class="cls-7" points="130.89 186.16 142.75 170.73 138.28 170.68 130.89 186.16"/></g></g><path class="cls-8" d="M170.93,204.05c.1.87-6,2-12.14,3.32-22.82,2.73-55.3,5.11-72.79,5.11-7.47,0-12.21-.43-12.3-1.46-.22-2.48,30.84-6.31,30.56-9-.39-3.83-71.25-.49-71.35-2-.07-1.07,27.16-6.16,63.65-6,27.67.11,53.09,1.72,72.44,3.42v.81c-6.1.85-10.94,1.85-10.76,2.32C158.75,201.78,170.72,202.09,170.93,204.05Z"/><g id="stars"><circle class="cls-8" cx="30.38" cy="58.59" r="1.12"/><circle class="cls-8" cx="27.46" cy="131.66" r="1.13"/><circle class="cls-8" cx="132.97" cy="29.87" r="1.75"/><circle class="cls-8" cx="114.49" cy="45.61" r="1.75"/><circle class="cls-8" cx="111.9" cy="147.12" r="1.75"/><circle class="cls-8" cx="50.93" cy="69.01" r="1.75"/><circle class="cls-8" cx="18.65" cy="117.5" r="1.75"/><circle class="cls-8" cx="82.78" cy="23.19" r="1.12"/><circle class="cls-8" cx="161.75" cy="67.88" r="1.13"/></g><path class="cls-9" d="M93.67,201.67A49.57,49.57,0,0,1,74.34,241H13.68c-.92-.71-1.81-1.45-2.68-2.23v-74.2a49.66,49.66,0,0,1,82.67,37.1Z"/><path class="cls-10" d="M169,82.1v41.68a25,25,0,1,1,0-41.68Z"/><path class="cls-11" d="M157.6,108.73a68.55,68.55,0,0,0,11.4-7v10.76c-2.35,1.45-4.87,2.83-7.51,4.13-18.59,9.12-36.71,10.3-40.47,2.63-2.28-4.63,1.24-11.45,8.49-18.13-3.33,3.9-4.72,7.58-3.42,10.24C128.89,117.09,143,115.89,157.6,108.73Z"/></g><g id="character"><path id="tail" class="cls-12" d="M72.45,158H89.28S86,190.39,80.86,190.39,72.45,158,72.45,158Z"/><path id="l-thigh" class="cls-13" d="M83.68,180.08s1.87,4.32,4.85,4.43c3.37.13,6.1-4.25,6.1-4.25s6.55-11.75,6.74-19.24c.31-12.39-1.83-18.67-1.83-18.67S86,150.53,85.88,158.09A133.57,133.57,0,0,1,83.68,180.08Z"/><g id="l-calf"><path class="cls-13" d="M83.68,204.26c0,3,11.82-1.21,11.82-1.21a96.81,96.81,0,0,1-2.42-10.46c-.78-4.78,1.55-12.33,1.55-12.33l-10.95-.18Z"/><path class="cls-13" d="M88.34,196.22c3.64-.22,3.86,2.09,7.16,6.83s14.2,9,13.76,10.79-2.53,2-5.39,1.76-3.09-1.1-4.41-1.21c0,3.24-3.46,3.44-6.38,2.42-3.49-1.21-2.86-3.18-5.84-2.3s.85,2.89-5.17,2.56c-3.34-.18,1.28-4.33,1.61-15.34C83.81,197.21,88.34,196.22,88.34,196.22Z"/><path class="cls-14" d="M82.62,208.85s2.71-4.77,7.15-5.65A8.76,8.76,0,0,1,97.3,205l-1.08-3.5a6.87,6.87,0,0,0-6.63-1.78c-4.81,1-7,5.59-7,5.59Z"/></g><path id="r-thigh" class="cls-13" d="M78.31,180.08s-1.87,4.32-4.85,4.43c-3.38.13-6.11-4.25-6.11-4.25S60.81,168.51,60.62,161c-.32-12.39,1.83-18.67,1.83-18.67S76,150.53,76.1,158.09A134.16,134.16,0,0,0,78.31,180.08Z"/><g id="r-calf"><path class="cls-13" d="M78.31,204.26c0,3-11.82-1.21-11.82-1.21a99.59,99.59,0,0,0,2.42-10.46c.78-4.78-1.56-12.33-1.56-12.33l11-.18Z"/><path class="cls-13" d="M73.64,196.22c-3.63-.22-3.85,2.09-7.15,6.83s-14.21,9-13.77,10.79,2.54,2,5.4,1.76,3.08-1.1,4.4-1.21c0,3.24,3.47,3.44,6.39,2.42,3.49-1.21,2.86-3.18,5.83-2.3s-.85,2.89,5.18,2.56c3.33-.18-1.28-4.33-1.61-15.34C78.17,197.21,73.64,196.22,73.64,196.22Z"/><path class="cls-14" d="M79.37,208.85s-2.72-4.77-7.16-5.65A8.73,8.73,0,0,0,64.69,205l1.07-3.5a6.89,6.89,0,0,1,6.64-1.78c4.8,1,7,5.59,7,5.59Z"/></g><path id="r-arm" class="cls-14" d="M63.64,125.11s-9.57-1.36-14.75-2.07-6.77,5-3.44,7.48a28.94,28.94,0,0,0,13,4.81C62.83,135.76,72.18,130,63.64,125.11Z"/><g id="r-hand"><g class="cls-15"><path class="cls-16" d="M44.57,130s-3.27-6.39-6.34-8-3.92-3.28-3-3.86c1.2-.79,3.3.65,3.79.28,1.06-.81-1.73-2.92.72-3.76,1.17-.4,3.86,3.71,5.5,1.64,1.41-1.76,2.59-2.74,3.59-1.36s-.8,3.69,1.55,7.24c.11.15,2.08,1.56,2.2,1.72C55.87,128.32,50.18,132.47,44.57,130Z"/><path class="cls-17" d="M42.27,127.62a12.3,12.3,0,0,0,5.56.47,4.35,4.35,0,0,0,3.28-5.32,8.84,8.84,0,0,1-.53-3.54"/></g></g><path class="cls-13" d="M59.81,122.41l-6.88,1s3,10.74,7.69,13.95L63,126.89Z"/><path id="r-arm-2" data-name="r-arm" class="cls-14" d="M98.35,125.11s9.56-1.36,14.74-2.07,6.77,5,3.45,7.48a29,29,0,0,1-13,4.81C99.16,135.76,89.8,130,98.35,125.11Z"/><g id="r-hand-2" data-name="r-hand"><g class="cls-18"><path class="cls-16" d="M117.42,130s3.26-6.39,6.34-8,3.92-3.28,3-3.86c-1.21-.79-3.31.65-3.79.28-1.06-.81,1.72-2.92-.73-3.76-1.17-.4-3.85,3.71-5.5,1.64-1.4-1.76-2.59-2.74-3.58-1.36s.8,3.69-1.56,7.24c-.1.15-2.07,1.56-2.19,1.72C106.12,128.32,111.81,132.47,117.42,130Z"/><path class="cls-17" d="M119.72,127.62a12.33,12.33,0,0,1-5.57.47,4.36,4.36,0,0,1-3.28-5.32,8.84,8.84,0,0,0,.53-3.54"/></g></g><path class="cls-13" d="M102.18,122.41l6.87,1s-3,10.74-7.69,13.95L99,126.89Z"/><g class="cls-19"><rect class="cls-13" x="59.76" y="117.76" width="42.31" height="49.84" transform="translate(161.84 285.35) rotate(-180)"/><path class="cls-20" d="M63,126.89s.14,15.87,8.66,26.42c5.2,6.45,4.75,12.22,4.75,12.22h9.08s-.45-5.77,4.76-12.22C98.81,142.76,99,126.89,99,126.89Z"/></g><g id="collar"><path class="cls-21" d="M101.51,118.71s1.71-.95,2.77,0c2.06,1.86,1.1,2.6,0,5S97.54,143.26,81,143.26v-8.37c3.7-.32,8.34-.43,13.64-7.83C100.22,119.27,101.51,118.71,101.51,118.71Z"/><path class="cls-21" d="M60.47,118.71s-1.7-.95-2.76,0c-2.06,1.86-1.1,2.6,0,5S64.45,143.26,81,143.26v-8.37c-3.7-.32-8.34-.43-13.64-7.83C61.76,119.27,60.47,118.71,60.47,118.71Z"/></g><g id="_4b" data-name="4b"><path class="cls-22" d="M57.33,103.45c0,21.28,13.57,30.61,27.65,30.61s30.23-10,27.65-30.61C111,90.46,99.06,78,85,78S57.33,89.37,57.33,103.45Z"/><path class="cls-23" d="M87.83,95.5l-.17,1.32s3.85.36,4.77,1.23a3.06,3.06,0,0,1,1,1.84s.27-3.41-1.17-3.91A18.08,18.08,0,0,0,87.83,95.5Z"/><ellipse class="cls-24" cx="91.36" cy="102.05" rx="4.03" ry="5.54" transform="translate(-40.03 63.36) rotate(-31.76)"/><ellipse class="cls-16" cx="91.19" cy="102.47" rx="3.08" ry="4.2" transform="translate(-37.63 55.35) rotate(-28.24)"/><ellipse cx="91.19" cy="102.47" rx="1.75" ry="2.39" transform="translate(-37.63 55.35) rotate(-28.24)"/><path class="cls-14" d="M66.8,102.67c2.13-3.17,5.27-9.28,12.06-9.28S91,99,93.81,101.6c5.16,4.71,9.25,13.08,9.25,13.08s-10.92,17.88-24.21,17.88-17.09-13.29-17.09-13.29S62.9,108.47,66.8,102.67Z"/><path class="cls-25" d="M76.49,111.38a3.59,3.59,0,0,0-2.64,0,3.22,3.22,0,0,0-1.36,2.27Z"/><path class="cls-25" d="M104.9,114.89s-3.08,12.94-9.1,18.47c-5.23,4.8-19.06,1.46-21.27-1.32s0-20.66,0-20.66.53,9.12,8.19,2.89c1.76-1.43,3.83-2.67,10.34.34A14.29,14.29,0,0,0,104.9,114.89Z"/><path class="cls-23" d="M74.53,111.38a6.53,6.53,0,0,0,1.77,3.76,2.6,2.6,0,0,0,1.66.66,2,2,0,0,0,1.43-.67c.88-.81,1.62-2.24,3.3-3.39a5.88,5.88,0,0,1,3.07-1,10.17,10.17,0,0,1,2.93.51,23.06,23.06,0,0,0,3.92,1,15.54,15.54,0,0,0,3.61.1,31.75,31.75,0,0,0,7.55-1.79h0A3.43,3.43,0,1,1,106,117h0a27.5,27.5,0,0,1-9.69,1.72,17.82,17.82,0,0,1-5.16-.86,25.91,25.91,0,0,1-4.36-2,9.62,9.62,0,0,0-1.33-.64,2.44,2.44,0,0,0-1.2-.12c-1,.12-2.19,1.08-3.8,1.84a3.87,3.87,0,0,1-2.78.27,4,4,0,0,1-2.15-1.41A6.34,6.34,0,0,1,74.53,111.38Z"/><ellipse class="cls-24" cx="76.26" cy="103.04" rx="5.54" ry="4.03" transform="translate(-47.83 135.2) rotate(-68.03)"/><ellipse class="cls-16" cx="76.49" cy="103.43" rx="4.2" ry="3.08" transform="translate(-45.84 143.23) rotate(-71.54)"/><ellipse cx="76.49" cy="103.43" rx="2.39" ry="1.75" transform="translate(-45.84 143.23) rotate(-71.54)"/><path class="cls-16" d="M90.56,101.1s-5.58-6.62-12-7.34-11.81,8.91-12.83,10.65c0,0,.23-7.94,2.18-11.28s6.66-7.55,11.61-7.55C85.42,85.58,89.53,96.08,90.56,101.1Z"/><ellipse class="cls-25" cx="92.64" cy="103.45" rx="0.72" ry="1.01" transform="translate(-44.6 82.24) rotate(-39.37)"/><ellipse class="cls-25" cx="95.9" cy="105.96" rx="0.72" ry="1.01" transform="translate(-45.45 84.87) rotate(-39.37)"/><ellipse class="cls-25" cx="92.63" cy="107.03" rx="0.72" ry="1.01" transform="translate(-46.87 83.05) rotate(-39.37)"/><circle class="cls-26" cx="97.89" cy="95.35" r="1.96"/><circle class="cls-26" cx="100.07" cy="105.28" r="1.16"/><circle class="cls-26" cx="102.48" cy="100.11" r="1.33"/><path class="cls-26" d="M103.8,96.05A27.65,27.65,0,0,0,106,93.19c6.79,13.53,3.23,22.1,3.23,22.1C108.63,106.6,106.46,100.42,103.8,96.05Z"/><path class="cls-26" d="M88.75,81.16S99,82,104.78,91a21.05,21.05,0,0,1-2.25,3.11c-5.27-7.27-11.68-8.48-11.68-8.48C90.85,84.32,88.75,81.16,88.75,81.16Z"/><path class="cls-27" d="M63.24,103.61s-1.23,11,10.94,19.87c0,0-11-4.42-13.47-13S63.24,103.61,63.24,103.61Z"/><path class="cls-23" d="M79.46,95.48l0,1.34s-3.85-.25-4.9.47A3,3,0,0,0,73.26,99s.27-3.41,1.77-3.68A18.1,18.1,0,0,1,79.46,95.48Z"/></g></g><path class="cls-28" d="M76.15,37.72h6.6A5.66,5.66,0,0,1,82.83,39a5.82,5.82,0,0,1-6.17,6.19,6.26,6.26,0,0,1-6.51-6.65,6.31,6.31,0,0,1,6.51-6.65,6,6,0,0,1,5.22,2.66l-2,1.68a3.74,3.74,0,0,0-3.2-1.7c-2.12,0-3.48,1.6-3.48,4s1.36,4,3.48,4a3,3,0,0,0,3.16-2.16H76.15Z"/><path class="cls-28" d="M85.79,32.13h3V44.88h-3Z"/><path class="cls-28" d="M92.4,32.13h3V42.24h4.09v2.64H92.4Z"/><path class="cls-28" d="M102.25,32.13h3V42.24h4.1v2.64h-7.09Z"/><g id="stargazers_logo" data-name="stargazers logo"><path class="cls-2" d="M33.47,229.68a1.74,1.74,0,0,0,1.61-.78,1.15,1.15,0,0,0-.09-1.22L27.29,216a1.6,1.6,0,0,0-2.57,0L17,227.68a1.18,1.18,0,0,0-.11,1.23,1.77,1.77,0,0,0,1.62.77h7.07l.32,1.19.34-1.19ZM34.58,228a.66.66,0,0,1,.07.72,1.3,1.3,0,0,1-1.18.52H26.41l.18-.64a1.4,1.4,0,0,0,.71-1.22c0-.06,0-.12,0-.17h.2l0-.07s0-.07.06-.17c.56,0,1.43.61,1.61.38s-.83-1.82-1.16-2.36c0-.21,0-.43,0-.66s0-.42,0-.64A12.34,12.34,0,0,1,33.31,226Zm-5.06-5.6h.31V222a.07.07,0,0,1,.07-.07A.07.07,0,0,1,30,222v.31h.31a.07.07,0,0,1,0,.14H30v.3a.07.07,0,0,1-.06.07.07.07,0,0,1-.07-.07v-.3h-.31a.07.07,0,1,1,0-.14Zm-1.11-1.76.18-.48.17.48.49.18-.49.18-.17.49-.18-.49-.49-.18Zm-2.72-3.41.2-.63.19.63.64.19-.64.2-.19.63-.2-.63-.63-.2ZM22,221.91h.47v-.47a.11.11,0,0,1,.11-.11.1.1,0,0,1,.1.11v.47h.48a.1.1,0,0,1,.1.11.09.09,0,0,1-.1.1h-.48v.48a.09.09,0,0,1-.1.1.1.1,0,0,1-.11-.1v-.48H22a.1.1,0,0,1-.11-.1A.11.11,0,0,1,22,221.91Zm-2.76,3.25a10.54,10.54,0,0,1,4.53-2.37,5.93,5.93,0,0,1,2.05-4l.17-.15.16.16a6.79,6.79,0,0,1,2,3.92A9.14,9.14,0,0,1,32.61,225l.38.58A9,9,0,0,0,28,223a6.6,6.6,0,0,0-2-4l-.07-.07-.07.06a5.8,5.8,0,0,0-2,4,10.75,10.75,0,0,0-5,2.7Zm1,4,.28-1.57.16-.07.56,1.64Zm2.33,0-1.41-2-.23,0,.14.37,1.09,1.62h-.58l-.77-2-.44.28-.43,1.74H18.54a1.34,1.34,0,0,1-1.19-.51.68.68,0,0,1,.08-.73L18.69,226a16.33,16.33,0,0,1,5.21-2.34v.43c0,.26,0,.52.07.76-.29.47-1.36,2.2-1.19,2.41s1.1-.42,1.65-.38l.06.17,0,.07h.12a.91.91,0,0,0,0,.17,1.37,1.37,0,0,0,.67,1.19l.18.67ZM25.27,227a8.2,8.2,0,0,1-.58-3.71.1.1,0,1,0-.19,0,8.4,8.4,0,0,0,.56,3.72h-.39a9.85,9.85,0,0,1-.55-2.84,6.4,6.4,0,0,1,1.1-4.11,2.11,2.11,0,0,0,1.37.08c.45.68,1.62,2.94.16,6.87Z"/><path class="cls-2" d="M26,221.47c-.53,0-.95.91-.95,1.43a1,1,0,0,0,1.9,0C27,222.38,26.54,221.47,26,221.47Zm-.4,1.48a.24.24,0,1,1,.24-.24A.24.24,0,0,1,25.62,223Z"/><path class="cls-2" d="M26,224.36a.5.5,0,0,0-.5.5c0,.27.22,1.14.5,1.14s.49-.87.49-1.14A.5.5,0,0,0,26,224.36Z"/><path class="cls-2" d="M24.64,222.82a.11.11,0,1,0,.11.11A.11.11,0,0,0,24.64,222.82Z"/><path class="cls-2" d="M29.65,228.54a2,2,0,0,0,.51-.09l.34-.12a1.18,1.18,0,0,0,.74.25,1.25,1.25,0,0,0,1.25-1.25v-.09c.44-.32.78-.67.67-.88s-.34-.16-.79,0l-.26.09a1.25,1.25,0,0,0-2.12.9,1,1,0,0,0,0,.24l-.24.18c-.36.3-.49.52-.41.68S29.5,228.54,29.65,228.54Zm1.59-.16a1,1,0,0,1-.52-.14c.25-.11.52-.24.79-.39a8.5,8.5,0,0,0,.78-.47A1,1,0,0,1,31.24,228.38Zm1.65-1.94a.14.14,0,0,1,.09,0c0,.07-.17.28-.53.56a1.3,1.3,0,0,0-.2-.43A2.44,2.44,0,0,1,32.89,226.44Zm-.61.71c-.23.16-.52.34-.86.53a7.57,7.57,0,0,1-.89.42,1.13,1.13,0,0,1-.29-.45,7.51,7.51,0,0,1,.87-.54c.36-.19.68-.34,1-.45A1,1,0,0,1,32.28,227.15Zm-1-.87a1.08,1.08,0,0,1,.66.23,7.94,7.94,0,0,0-.89.43,8.68,8.68,0,0,0-.81.5.41.41,0,0,1,0-.11A1,1,0,0,1,31.24,226.28Zm-1.16,1.49a1.16,1.16,0,0,0,.25.41c-.45.16-.73.2-.78.15S29.71,228.05,30.08,227.77Z"/><path class="cls-2" d="M19.3,227.21l-.62.41c0,.31.21.29.21.29l.58-.39A.43.43,0,0,1,19.3,227.21Z"/><path class="cls-2" d="M20.51,226.32l-1.12.71a.61.61,0,0,0,.25.48l1.15-.64A.76.76,0,0,1,20.51,226.32Z"/><path class="cls-2" d="M21.81,225.87a.54.54,0,0,1,0-.43l-1.15.7a.8.8,0,0,0,.37.67l1.2-.65A.51.51,0,0,1,21.81,225.87Z"/><path class="cls-2" d="M21.86,225.43s-.06.12,0,.19a.2.2,0,0,1,.22.1q.12.19,0,.3a.58.58,0,0,0,.18.07s.14-.16,0-.46A.37.37,0,0,0,21.86,225.43Z"/><path class="cls-2" d="M16.82,231.28a.82.82,0,0,0-.82.82v.36a.61.61,0,0,0,.14.45l1,1.8s0,0,0,.12v.35a.36.36,0,1,1-.72,0v-.24a.11.11,0,0,0-.12-.11h-.22a.11.11,0,0,0-.12.11v.24a.82.82,0,0,0,.82.82.82.82,0,0,0,.81-.82v-.35a.64.64,0,0,0-.13-.45l-1-1.8s0,0,0-.12v-.36a.36.36,0,0,1,.72,0v.24a.11.11,0,0,0,.11.11h.23a.11.11,0,0,0,.11-.11v-.24A.82.82,0,0,0,16.82,231.28Z"/><path class="cls-2" d="M19.07,231.28H18a.12.12,0,0,0-.11.12v.22a.11.11,0,0,0,.11.12h.32v4.14a.11.11,0,0,0,.11.12h.23a.11.11,0,0,0,.11-.12v-4.14h.32a.12.12,0,0,0,.12-.12v-.22A.12.12,0,0,0,19.07,231.28Z"/><path class="cls-2" d="M22.57,231.28H22a.23.23,0,0,0-.23.23v4.37a.12.12,0,0,0,.12.12h.22a.12.12,0,0,0,.12-.12v-2h.36a.37.37,0,0,1,.36.37v1.65A.11.11,0,0,0,23,236h.23a.11.11,0,0,0,.11-.12v-1.65a.78.78,0,0,0-.25-.59.8.8,0,0,0,.25-.59v-.94A.82.82,0,0,0,22.57,231.28Zm.36,1.77a.36.36,0,0,1-.36.36h-.36v-1.67h.36a.36.36,0,0,1,.36.37Z"/><path class="cls-2" d="M24.78,231.28a.82.82,0,0,0-.81.82v3.08a.82.82,0,1,0,1.63,0v-1.66a.11.11,0,0,0-.11-.12H24.9a.12.12,0,0,0-.12.12v.22a.12.12,0,0,0,.12.12h.25v1.32a.37.37,0,0,1-.73,0V232.1a.37.37,0,0,1,.73,0v.24a.11.11,0,0,0,.11.11h.23a.11.11,0,0,0,.11-.11v-.24A.82.82,0,0,0,24.78,231.28Z"/><path class="cls-2" d="M29.93,231.28h-1.4a.12.12,0,0,0-.12.12v.22a.12.12,0,0,0,.12.12h1.06v.73a.31.31,0,0,1,0,.11l-1,1.81a.61.61,0,0,0-.14.45v1a.12.12,0,0,0,.12.12h1.4a.11.11,0,0,0,.11-.12v-.22a.12.12,0,0,0-.11-.12H28.87v-.7c0-.08,0-.08,0-.12l1-1.8a.67.67,0,0,0,.13-.45V231.4A.12.12,0,0,0,29.93,231.28Z"/><path class="cls-2" d="M31.63,231.28h-.84a.23.23,0,0,0-.23.23v4.26a.23.23,0,0,0,.23.23h.84a.11.11,0,0,0,.11-.12v-.22a.12.12,0,0,0-.11-.12H31v-1.67h.62a.12.12,0,0,0,.11-.11v-.23a.11.11,0,0,0-.11-.11H31v-1.68h.62a.11.11,0,0,0,.11-.12v-.22A.12.12,0,0,0,31.63,231.28Z"/><path class="cls-2" d="M33.08,231.28h-.59a.23.23,0,0,0-.23.23v4.37a.12.12,0,0,0,.12.12h.22a.12.12,0,0,0,.12-.12v-2h.36a.37.37,0,0,1,.36.37v1.65a.11.11,0,0,0,.11.12h.23a.11.11,0,0,0,.11-.12v-1.65a.78.78,0,0,0-.25-.59.8.8,0,0,0,.25-.59v-.94A.82.82,0,0,0,33.08,231.28Zm.36,1.77a.36.36,0,0,1-.36.36h-.36v-1.67h.36a.36.36,0,0,1,.36.37Z"/><path class="cls-2" d="M35.66,232.45h.23a.11.11,0,0,0,.11-.11v-.24a.82.82,0,0,0-.81-.82.82.82,0,0,0-.82.82v.36a.61.61,0,0,0,.14.45l1,1.8s0,0,0,.12v.35a.36.36,0,1,1-.72,0v-.24a.11.11,0,0,0-.12-.11h-.22a.11.11,0,0,0-.12.11v.24a.82.82,0,0,0,.82.82.82.82,0,0,0,.81-.82v-.35a.64.64,0,0,0-.13-.45l-1-1.8s0,0,0-.12v-.36a.36.36,0,1,1,.72,0v.24A.11.11,0,0,0,35.66,232.45Z"/><path class="cls-2" d="M27,231.28a.83.83,0,0,0-.82.83v3.77a.11.11,0,0,0,.11.12h.23a.11.11,0,0,0,.11-.12v-1.79l.73-.45v2.24a.12.12,0,0,0,.12.12h.22a.12.12,0,0,0,.12-.12v-3.77A.83.83,0,0,0,27,231.28Zm.36,1.91-.73.45v-1.53a.37.37,0,1,1,.73,0Z"/><path class="cls-2" d="M20.38,231.28a.83.83,0,0,0-.82.83v3.77a.12.12,0,0,0,.12.12h.22a.12.12,0,0,0,.12-.12v-1.79l.73-.45v2.24a.11.11,0,0,0,.11.12h.23a.11.11,0,0,0,.11-.12v-3.77A.83.83,0,0,0,20.38,231.28Zm.37,1.91-.73.45v-1.53a.36.36,0,0,1,.36-.37.37.37,0,0,1,.37.37Z"/></g></g></g></svg>