<svg xmlns="http://www.w3.org/2000/svg" xmlns:xlink="http://www.w3.org/1999/xlink" viewBox="0 0 180 252"><defs><style>.cls-1{fill:#eaeaea;}.cls-2{fill:#323232;}.cls-3{fill:#8dc3d3;}.cls-4{fill:url(#radial-gradient);}.cls-5{fill:url(#radial-gradient-2);}.cls-6{fill:#9ae0e2;}.cls-7{fill:#2e047a;}.cls-8{fill:#02799e;}.cls-9{fill:#a87df1;}.cls-10{fill:#612b88;}.cls-11{fill:#7333a2;}.cls-12{fill:#612b89;}.cls-13{fill:#853bbc;}.cls-14{fill:#472063;}.cls-15{fill:#3b224d;}.cls-16{fill:#fff;}.cls-17{fill:#90bd4a;}.cls-18{fill:#261234;}.cls-19{fill:#8f5cb5;}.cls-20{fill:#ce75d0;}.cls-21{fill:#9f619f;}.cls-22{fill:#ed6100;}.cls-23{fill:none;stroke:#323232;stroke-linecap:round;stroke-miterlimit:10;stroke-width:0.5px;}</style><radialGradient id="radial-gradient" cx="85.08" cy="147.7" r="80.35" gradientUnits="userSpaceOnUse"><stop offset="0" stop-color="#026684"/><stop offset="1" stop-color="#026684" stop-opacity="0"/></radialGradient><radialGradient id="radial-gradient-2" cx="-184.08" cy="-351.03" r="53.48" gradientTransform="translate(234.57 -357.57) rotate(-135)" xlink:href="#radial-gradient"/></defs><g id="Layer_2" data-name="Layer 2"><g id="content"><rect id="card" class="cls-1" width="180" height="252"/><g id="background"><polygon class="cls-2" points="169 11 169 224 152 241 11 241 11 28.26 28.26 11 169 11"/><circle class="cls-3" cx="138.93" cy="24.7" r="1.75"/><circle class="cls-3" cx="161.73" cy="175.16" r="1.75"/><circle class="cls-3" cx="152.81" cy="32.74" r="1.13"/><circle class="cls-3" cx="103.89" cy="51.41" r="1.13"/><circle class="cls-3" cx="70.77" cy="85.12" r="1.13"/><circle class="cls-3" cx="21.14" cy="139.22" r="1.13"/><circle class="cls-3" cx="126.59" cy="226.71" r="1.13"/><path class="cls-4" d="M93.26,241H11V153.24A64.17,64.17,0,0,1,93.26,241Z"/><circle class="cls-5" cx="82.68" cy="51.08" r="13.61"/><polygon class="cls-6" points="60.02 252 25.02 252 25.02 58.51 42.52 76.02 60.02 58.51 60.02 252"/><polygon class="cls-6" points="25.02 0 60.02 0 60.02 30.51 42.52 13.01 25.02 30.51 25.02 0"/><polygon class="cls-7" points="42.52 69.01 27.71 54.2 57.33 54.2 42.52 69.01"/><path class="cls-8" d="M42.52,71.13l-24-24V34.89l24-24,24,24V47.13Zm-21-25.25,21,21,21-21V36.13l-21-21-21,21Z"/></g><g id="character_headshot" data-name="character headshot"><path class="cls-9" d="M31.6,55A28.08,28.08,0,0,0,43.08,57c10.71-.24,18.3-5.07,15.16-9.6,0-.06-.07-.11-.1-.16h0a3.19,3.19,0,0,0-3.07-1.29,87.18,87.18,0,0,1-24.41.55,3.2,3.2,0,0,0-3,1.42v0a.86.86,0,0,0-.1.16C25.82,50.72,27.68,53.34,31.6,55Z"/><g id="b4"><path class="cls-10" d="M61.61,34.16c0-1.44.53-2.55,1.32-2.72C64,31.21,65.22,32.8,65.64,35s-.1,4.15-1.18,4.38c-.79.17-1.65-.65-2.22-2a6.2,6.2,0,0,0-3.26.28l-.23-1.23-.24-1.22A6.31,6.31,0,0,0,61.61,34.16Z"/><path class="cls-11" d="M25.17,38.13c0,1.28,1.44,2.36,1.79,3.55s-.28,2.84.39,3.9,2.44,1.28,3.35,2.15,1.1,2.55,2.18,3.19,2.72.09,3.9.5,2,1.81,3.22,2,2.48-.92,3.7-1,2.5.91,3.63.64,2-1.71,3-2.18,2.59-.08,3.52-.74S55,47.88,55.77,47s2.29-1.13,2.84-2.12,0-2.46.32-3.56,1.46-2.07,1.46-3.23S59.22,36,58.93,34.9s.23-2.57-.32-3.56-2.06-1.27-2.84-2.13-1-2.42-1.9-3.1-2.44-.27-3.52-.75-1.85-1.91-3-2.18-2.41.7-3.63.65-2.53-1.14-3.7-1-2.09,1.59-3.22,2-2.85-.13-3.9.49-1.29,2.35-2.18,3.19-2.69,1.1-3.35,2.15,0,2.7-.39,3.91S25.17,36.84,25.17,38.13Z"/><path class="cls-12" d="M51.13,29.84a.77.77,0,0,1,.83-.15,1.59,1.59,0,0,1,.72.51c.36.45.62.95,1.07,1.12s1.12.18,1.59.74a1.48,1.48,0,0,1,.1,1.75l0,0a1.67,1.67,0,0,0-.46-1.37,5.94,5.94,0,0,0-1.37-.71,3.4,3.4,0,0,1-1.1-1.35,1.4,1.4,0,0,0-.56-.52.67.67,0,0,0-.73,0Z"/><path class="cls-12" d="M35.89,29.5c-.48-.39-1.15,0-1.44.43s-.61,1.1-1.27,1.38a6.22,6.22,0,0,0-1.54.69,1.58,1.58,0,0,0-.5,1.46l-.05,0a1.51,1.51,0,0,1,.17-1.87c.53-.56,1.26-.51,1.75-.7s.82-.68,1.23-1.15a1.63,1.63,0,0,1,.8-.51.87.87,0,0,1,.89.21Z"/><path class="cls-12" d="M29.46,36.51c-.6.13-.73.89-.57,1.39a3.35,3.35,0,0,1,.28,1.86,6.72,6.72,0,0,0-.43,1.63,1.59,1.59,0,0,0,.83,1.3v.06a1.51,1.51,0,0,1-1.36-1.31c-.1-.77.39-1.3.56-1.8A3.2,3.2,0,0,0,28.63,38a1.55,1.55,0,0,1,.11-1,.87.87,0,0,1,.72-.56Z"/><path class="cls-12" d="M53.37,45.85c.34.25.77-.05.94-.35a2.41,2.41,0,0,1,.8-1,4.33,4.33,0,0,0,1-.53,1.16,1.16,0,0,0,.34-1l0,0a1.07,1.07,0,0,1-.08,1.28c-.34.41-.84.4-1.15.55s-.52.49-.79.82A1.21,1.21,0,0,1,54,46a.57.57,0,0,1-.61-.11Z"/><path class="cls-12" d="M37.63,48.88c-.34.34-.9.12-1.17-.2s-.5-.7-.85-.8-.85-.09-1.22-.48a1,1,0,0,1-.12-1.3l0,0a1.11,1.11,0,0,0,.34,1,4.53,4.53,0,0,0,1.07.47c.46.19.65.65.88,1s.67.56,1,.29Z"/><path class="cls-12" d="M46.75,27.75a1,1,0,0,0-1.28-.82l-.9.26a2,2,0,0,1-1.06,0,7.2,7.2,0,0,0-1.7-.59,1.83,1.83,0,0,0-1.46.87,1.77,1.77,0,0,1,1.43-1.29,4.61,4.61,0,0,1,1.89.49c.52.21,1-.06,1.74-.13a1.3,1.3,0,0,1,1,.32A1.21,1.21,0,0,1,46.75,27.75Z"/><path class="cls-12" d="M49.68,48.82a.81.81,0,0,1-.16.61.78.78,0,0,1-.61.26c-.44,0-.8-.15-1.11,0s-.67.43-1.16.43a1.1,1.1,0,0,1-1-.73,1.13,1.13,0,0,0,1,.46,3.94,3.94,0,0,0,1-.48,2.18,2.18,0,0,1,1.25,0A.68.68,0,0,0,49.68,48.82Z"/><path class="cls-10" d="M22.57,45.33,20.74,40.1l1.6-5.31c.06,3,4.09,3.43,6.62,3.39A1.91,1.91,0,0,1,31,39.87h0a1.9,1.9,0,0,1-2,1.78C26.51,41.73,22.51,42.32,22.57,45.33Z"/><ellipse class="cls-13" cx="21.1" cy="40.09" rx="3.31" ry="5.9" transform="translate(-0.89 0.48) rotate(-1.28)"/><ellipse class="cls-14" cx="20.9" cy="40.09" rx="2.3" ry="4.11" transform="translate(-0.89 0.48) rotate(-1.28)"/><path class="cls-15" d="M43.19,40.52s-1.38-5.32-7.33-2.61C35.86,37.91,38.07,45.14,43.19,40.52Z"/><path class="cls-16" d="M43,40.46s-1.09-4.83-6.58-2.33C36.42,38.13,38.12,44,43,40.46Z"/><circle class="cls-17" cx="40.18" cy="39.5" r="1.91"/><path class="cls-18" d="M40.42,38.45a1.57,1.57,0,0,1,.22,1.19,1.52,1.52,0,0,1-.7,1,1.52,1.52,0,0,1-.21-1.19A1.51,1.51,0,0,1,40.42,38.45Z"/><path class="cls-11" d="M35.4,36.91c-.08.59.52.94,1.09,1.08a7.44,7.44,0,0,0,1.77.06,4.75,4.75,0,0,1,2.84,1c.43.33.79.74,1.25,1a1.66,1.66,0,0,0,1.53.23,1.07,1.07,0,0,0,.44-1.47l-.57-.55a7.23,7.23,0,0,0-3.48-1.93h0a5.74,5.74,0,0,0-4.12.21Z"/><path class="cls-15" d="M35.4,36.91a1.14,1.14,0,0,0,.83,1,2.82,2.82,0,0,0,1.33,0,5,5,0,0,1,2.93.4c.95.41,1.55,1.28,2.31,1.65A1.3,1.3,0,0,0,44,40a.85.85,0,0,0,.31-1.15,1,1,0,0,1-.15,1.37,1.61,1.61,0,0,1-1.53.14c-1-.4-1.56-1.22-2.39-1.55a5.31,5.31,0,0,0-2.66-.47,3.07,3.07,0,0,1-1.48-.23A1.22,1.22,0,0,1,35.4,36.91Z"/><path class="cls-19" d="M36.15,36.6a4,4,0,0,1,2-.84,5.43,5.43,0,0,1,2.16.14,7.14,7.14,0,0,1,1.94,1c.29.21.55.45.83.68s.49.52.71.79c-.58-.41-1.14-.82-1.74-1.16a7.73,7.73,0,0,0-1.87-.81A5.8,5.8,0,0,0,36.15,36.6Z"/><path class="cls-15" d="M50.09,39.5s1-4.39,5.51-2.16C55.6,37.34,53.94,43.3,50.09,39.5Z"/><path class="cls-16" d="M50.23,39.44s.82-4,4.94-1.91C55.17,37.53,53.9,42.35,50.23,39.44Z"/><ellipse class="cls-17" cx="52.35" cy="38.65" rx="1.44" ry="1.57"/><path class="cls-18" d="M52.17,37.79a1.34,1.34,0,0,1,.36,1.81,1.31,1.31,0,0,1-.54-.84A1.26,1.26,0,0,1,52.17,37.79Z"/><path class="cls-11" d="M56,36.52c0,.48-.39.77-.83.89a5.29,5.29,0,0,1-1.32.05,3.42,3.42,0,0,0-2.15.85,10.52,10.52,0,0,1-.93.84,1.16,1.16,0,0,1-1.15.2.93.93,0,0,1-.33-1.22l.42-.45a5.25,5.25,0,0,1,2.62-1.58h0a3.93,3.93,0,0,1,3.1.17Z"/><path class="cls-15" d="M56,36.52a1,1,0,0,1-.49,1,2.28,2.28,0,0,1-1.16.23,3.44,3.44,0,0,0-2,.4c-.62.27-1,.93-1.81,1.27a1.16,1.16,0,0,1-1.22-.19.82.82,0,0,1,0-1.11.73.73,0,0,0,.23.91.81.81,0,0,0,.86,0c.55-.29,1-1,1.71-1.36a3.41,3.41,0,0,1,2.29-.34,1.87,1.87,0,0,0,1,0A.91.91,0,0,0,56,36.52Z"/><path class="cls-19" d="M55.38,36.27a4,4,0,0,0-3-.21,5.81,5.81,0,0,0-1.4.67c-.44.29-.86.62-1.29,1,.17-.22.35-.42.52-.63l.61-.55a5.23,5.23,0,0,1,1.45-.79A3.24,3.24,0,0,1,55.38,36.27Z"/><path class="cls-15" d="M48,42.37a1.39,1.39,0,0,1,.6-.71,1.55,1.55,0,0,1,.44-.17,1.24,1.24,0,0,1,.47,0,6.86,6.86,0,0,0-.77.4,2.74,2.74,0,0,0-.36.23Z"/><path class="cls-15" d="M47.12,42.45l-.45-.18a3.89,3.89,0,0,0-.44-.16c-.29-.12-.58-.17-.91-.27a1.23,1.23,0,0,1,.5-.09,2.1,2.1,0,0,1,.5.09A1.57,1.57,0,0,1,47.12,42.45Z"/><path class="cls-20" d="M43.28,43.13a3.87,3.87,0,0,0,1.41,2.55,3.71,3.71,0,0,0,.52.36,4,4,0,0,0,2.65.52,3.86,3.86,0,0,0,2.63-1.64,3.77,3.77,0,0,0,.61-2.54,9.23,9.23,0,0,1-3.61,1.15,11,11,0,0,1-4.12-.37Z"/><path class="cls-21" d="M45.21,46a4,4,0,0,0,2.65.52,3.92,3.92,0,0,0,2.27-1.19,3.24,3.24,0,0,0-2.5-.74A3.56,3.56,0,0,0,45.21,46Z"/></g></g><path class="cls-16" d="M76.87,63.12a1.12,1.12,0,0,1-1.15,1.12h-.59v1.14h-.8V62h1.39A1.11,1.11,0,0,1,76.87,63.12Zm-.79,0a.41.41,0,0,0-.44-.43h-.51v.87h.51A.42.42,0,0,0,76.08,63.12Z"/><path class="cls-16" d="M77.61,62h.8v2.68h1.08v.7H77.61Z"/><path class="cls-16" d="M82.68,62v3.38h-.79v-1H81v1h-.79V62ZM81,63.66h.88v-1H81Z"/><path class="cls-16" d="M86.06,63.08a1,1,0,0,0-.85-.45,1.06,1.06,0,0,0,0,2.1,1,1,0,0,0,.85-.45l.52.47a1.57,1.57,0,0,1-1.37.7,1.76,1.76,0,0,1,0-3.52,1.6,1.6,0,0,1,1.39.7Z"/><path class="cls-16" d="M87.29,62h2v.69H88.09v.65h1.13V64H88.09v.67h1.24v.7h-2Z"/><path class="cls-16" d="M91.4,63.69a1.72,1.72,0,1,1,1.72,1.76A1.66,1.66,0,0,1,91.4,63.69Zm2.63,0a.92.92,0,0,0-.91-1c-.57,0-.91.42-.91,1s.34,1.05.91,1.05S94,64.32,94,63.68Z"/><path class="cls-16" d="M95.65,62h2v.69H96.44v.79h1.14v.68H96.44v1.22h-.79Z"/><path class="cls-16" d="M99.57,63.69a1.72,1.72,0,1,1,1.71,1.76A1.66,1.66,0,0,1,99.57,63.69Zm2.63,0a.93.93,0,0,0-.92-1c-.56,0-.9.42-.9,1s.34,1.05.9,1.05A.92.92,0,0,0,102.2,63.68Z"/><path class="cls-16" d="M104.81,64.11h-.2v1.27h-.8V62h2.37v2.11h-.5l.74,1.27h-.88Zm.58-1.42h-.78v.78h.78Z"/><path class="cls-16" d="M107.16,62H108v3.38h-.79Z"/><path class="cls-16" d="M110.34,63.48h1.75a1.78,1.78,0,0,1,0,.33,1.54,1.54,0,0,1-1.63,1.64,1.76,1.76,0,0,1,0-3.52,1.6,1.6,0,0,1,1.38.7l-.54.45a1,1,0,0,0-.84-.45,1.06,1.06,0,0,0,0,2.11.79.79,0,0,0,.83-.57h-1Z"/><path class="cls-16" d="M112.89,62h.8v3.38h-.8Z"/><path class="cls-16" d="M116.63,65.38l-1.21-2h0v2h-.77V62h.81l1.2,2h0V62h.76v3.38Z"/><path class="cls-16" d="M118.3,63.41a.44.44,0,0,1,.44-.44.43.43,0,0,1,.44.44.44.44,0,0,1-.44.44A.44.44,0,0,1,118.3,63.41Zm0,1.59a.44.44,0,0,1,.44-.44.43.43,0,0,1,.44.44.44.44,0,0,1-.44.44A.44.44,0,0,1,118.3,65Z"/><path class="cls-16" d="M122.36,62h.47L124,65.38h-.39l-.31-.93h-1.42l-.31.93h-.38ZM122,64.12h1.2l-.59-1.76h0Z"/><path class="cls-16" d="M127.59,65.38h-.36V63.84a.51.51,0,0,0-.53-.53.5.5,0,0,0-.52.53v1.54h-.36V63.84a.5.5,0,0,0-.52-.53.51.51,0,0,0-.53.53v1.54h-.36V63.84a.84.84,0,0,1,.89-.85.79.79,0,0,1,.71.39.79.79,0,0,1,.7-.39.83.83,0,0,1,.88.85Z"/><path class="cls-16" d="M129.31,65.45a1.23,1.23,0,0,1,0-2.46,1.15,1.15,0,0,1,1.14,1.23s0,.12,0,.16h-2a.83.83,0,0,0,.85.74.91.91,0,0,0,.73-.35l.21.21A1.11,1.11,0,0,1,129.31,65.45Zm-.84-1.38h1.62a.77.77,0,0,0-.79-.76A.83.83,0,0,0,128.47,64.07Z"/><path class="cls-16" d="M131,63.38h-.27v-.31H131v-.62h.36v.62h.71v.31h-.71v1.68H132v.32h-1Z"/><path class="cls-16" d="M132.53,65.38V62h.36v1.07h1.54v2.31h-.36v-2h-1.18v2Z"/><path class="cls-16" d="M135.33,66.09h1.31v-.78c0-.09,0-.16,0-.23h0a.66.66,0,0,1-.67.34.87.87,0,0,1-.87-.93V63.07h.36v1.42a.59.59,0,1,0,1.18,0V63.07H137v3.34h-1.67Z"/><path class="cls-16" d="M138.29,64l.31.14a.72.72,0,0,1,.5.66.7.7,0,0,1-.79.66.77.77,0,0,1-.81-.61l.28-.15a.55.55,0,0,0,.55.44c.24,0,.41-.12.41-.34s-.12-.27-.36-.38l-.28-.13a.69.69,0,0,1-.5-.66.66.66,0,0,1,.72-.63.79.79,0,0,1,.78.53l-.27.14a.53.53,0,0,0-.5-.36c-.23,0-.38.13-.38.32S138.06,63.88,138.29,64Z"/><path class="cls-16" d="M139.72,63.38h-.26v-.31h.26v-.62h.36v.62h.71v.31h-.71v1.68h.64v.32h-1Z"/><path class="cls-16" d="M141,64.22a1.22,1.22,0,1,1,1.22,1.23A1.2,1.2,0,0,1,141,64.22Zm2.07,0a.86.86,0,1,0-.85.9A.85.85,0,0,0,143.1,64.22Z"/><path class="cls-16" d="M145.25,65.45a1,1,0,0,1-.89-.45h0a1.49,1.49,0,0,1,0,.24v1.17H144V63.07h.34v.15a1.57,1.57,0,0,1,0,.25h0a1,1,0,0,1,.92-.48,1.23,1.23,0,0,1,0,2.46Zm-.9-1.23a.87.87,0,1,0,1.73,0,.87.87,0,1,0-1.73,0Z"/><path class="cls-16" d="M146.93,62.4a.23.23,0,1,1,.23.23A.23.23,0,0,1,146.93,62.4Zm0,3V63.07h.36v2.31Z"/><path class="cls-16" d="M149.1,63a.93.93,0,0,1,.89.49h0a1.7,1.7,0,0,1,0-.25v-.16h.34v2.31H150v-.22a1.85,1.85,0,0,1,0-.25h0a.94.94,0,0,1-.9.54,1.16,1.16,0,0,1-1.2-1.23A1.18,1.18,0,0,1,149.1,63Zm.88,1.23a.87.87,0,1,0-.87.9A.86.86,0,0,0,150,64.22Z"/><path class="cls-16" d="M74.64,74.42a.48.48,0,0,0,.46.32.44.44,0,0,0,.47-.48V72.69H74.33V72h2v2.19a1.17,1.17,0,0,1-1.25,1.26A1.08,1.08,0,0,1,74,74.8Z"/><path class="cls-16" d="M77.08,73.69a1.73,1.73,0,1,1,1.72,1.76A1.66,1.66,0,0,1,77.08,73.69Zm2.64,0a.92.92,0,1,0-1.83,0c0,.64.35,1,.91,1A.92.92,0,0,0,79.72,73.68Z"/><path class="cls-16" d="M82.65,75.38H81.29V72h1.3a.92.92,0,0,1,1,.91.76.76,0,0,1-.45.72.87.87,0,0,1,.52.83A1,1,0,0,1,82.65,75.38Zm-.57-2h.41a.32.32,0,0,0,.35-.34.32.32,0,0,0-.34-.34h-.42Zm.83,1a.33.33,0,0,0-.35-.34h-.48v.69h.48A.33.33,0,0,0,82.91,74.34Z"/><path class="cls-16" d="M86.22,72.69h-.79V72h2.38v.69H87v2.69h-.79Z"/><path class="cls-16" d="M88.49,72h.79v3.38h-.79Z"/><path class="cls-16" d="M90.75,72.69H90V72h2.37v.69h-.79v2.69h-.8Z"/><path class="cls-16" d="M93,72h.79v2.68H94.9v.7H93Z"/><path class="cls-16" d="M96.66,75.45c-.78,0-1.25-.42-1.25-1A.83.83,0,0,1,96,73.6a.8.8,0,0,1-.5-.77c0-.55.46-.9,1.18-.9a1.34,1.34,0,0,1,1,.38l-.41.54a.76.76,0,0,0-.58-.22c-.31,0-.43.13-.43.32s.19.37.56.37h.45V74h-.52c-.34,0-.54.14-.54.37s.17.39.49.39a.78.78,0,0,0,.58-.21l.39.52A1.19,1.19,0,0,1,96.66,75.45Z"/><path class="cls-16" d="M98.27,73.41a.45.45,0,0,1,.45-.44.44.44,0,0,1,.44.44.44.44,0,0,1-.44.44A.45.45,0,0,1,98.27,73.41Zm0,1.59a.45.45,0,0,1,.45-.44.44.44,0,0,1,.44.44.44.44,0,0,1-.44.44A.45.45,0,0,1,98.27,75Z"/><path class="cls-16" d="M102,72.32h-1V72h2.26v.32h-.94v3.06H102Z"/><path class="cls-16" d="M104.41,73.07v.32h-.68v2h-.36V73.07Z"/><path class="cls-16" d="M105.81,73a1,1,0,0,1,.89.49h0a1.7,1.7,0,0,1,0-.25v-.16H107v2.31h-.34v-.22a1.85,1.85,0,0,1,0-.25h0a1,1,0,0,1-.9.54,1.16,1.16,0,0,1-1.2-1.23A1.18,1.18,0,0,1,105.81,73Zm.88,1.23a.87.87,0,1,0-.87.9A.86.86,0,0,0,106.69,74.22Z"/><path class="cls-16" d="M109.65,73.07v2.31h-.36v-2h-1.18v2h-.36V73.07Z"/><path class="cls-16" d="M110.93,74l.31.14a.68.68,0,0,1-.29,1.32.78.78,0,0,1-.81-.61l.28-.15a.55.55,0,0,0,.55.44c.24,0,.41-.12.41-.34s-.12-.27-.35-.38l-.29-.13a.71.71,0,0,1-.5-.66A.66.66,0,0,1,111,73a.79.79,0,0,1,.78.53l-.27.14a.52.52,0,0,0-.5-.36c-.23,0-.38.13-.38.32S110.7,73.88,110.93,74Z"/><path class="cls-16" d="M113.53,75.45a1,1,0,0,1-.89-.45h0a1.49,1.49,0,0,1,0,.24v1.17h-.36V73.07h.34v.15c0,.11,0,.18,0,.25h0a1.06,1.06,0,0,1,.93-.48,1.23,1.23,0,0,1,0,2.46Zm-.9-1.23a.87.87,0,1,0,1.73,0,.87.87,0,1,0-1.73,0Z"/><path class="cls-16" d="M115.09,74.22a1.22,1.22,0,1,1,1.22,1.23A1.2,1.2,0,0,1,115.09,74.22Zm2.08,0a.87.87,0,0,0-.86-.91.85.85,0,0,0-.85.91.84.84,0,0,0,.85.9A.86.86,0,0,0,117.17,74.22Z"/><path class="cls-16" d="M119.1,73.07v.32h-.68v2h-.36V73.07Z"/><path class="cls-16" d="M119.6,73.38h-.27v-.31h.27v-.62H120v.62h.71v.31H120v1.68h.64v.32h-1Z"/><path class="cls-16" d="M122.12,73a.93.93,0,0,1,.89.49h0a1.7,1.7,0,0,1,0-.25v-.16h.34v2.31H123v-.22a1.85,1.85,0,0,1,0-.25h0a1,1,0,0,1-.9.54,1.16,1.16,0,0,1-1.2-1.23A1.18,1.18,0,0,1,122.12,73Zm.88,1.23a.87.87,0,1,0-.87.9A.86.86,0,0,0,123,74.22Z"/><path class="cls-16" d="M124.14,73.38h-.27v-.31h.27v-.62h.36v.62h.71v.31h-.71v1.68h.64v.32h-1Z"/><path class="cls-16" d="M125.6,72.4a.23.23,0,1,1,.23.23A.23.23,0,0,1,125.6,72.4Zm.05,3V73.07H126v2.31Z"/><path class="cls-16" d="M126.55,74.22a1.22,1.22,0,1,1,1.22,1.23A1.2,1.2,0,0,1,126.55,74.22Zm2.08,0a.86.86,0,1,0-1.71,0,.86.86,0,1,0,1.71,0Z"/><path class="cls-16" d="M131.42,73.07v2.31h-.36v-2h-1.18v2h-.36V73.07Z"/><path class="cls-16" d="M133.79,72.32h-.95V72h2.26v.32h-.94v3.06h-.37Z"/><path class="cls-16" d="M136.21,75.45a1.23,1.23,0,0,1,0-2.46,1.14,1.14,0,0,1,1.14,1.23.86.86,0,0,1,0,.16h-2a.82.82,0,0,0,.84.74.93.93,0,0,0,.74-.35l.21.21A1.14,1.14,0,0,1,136.21,75.45Zm-.84-1.38H137a.76.76,0,0,0-.78-.76A.81.81,0,0,0,135.37,74.07Z"/><path class="cls-16" d="M139.63,73.69a.9.9,0,1,0,0,1l.22.21a1.11,1.11,0,0,1-1,.52,1.23,1.23,0,1,1,0-2.46,1.15,1.15,0,0,1,1,.48Z"/><path class="cls-16" d="M140.33,75.38V72h.36v1.07h1.54v2.31h-.36v-2h-1.18v2Z"/><path class="cls-16" d="M144.84,73.07v2.31h-.36v-2H143.3v2h-.36V73.07Z"/><path class="cls-16" d="M145.38,74.22a1.22,1.22,0,1,1,1.22,1.23A1.2,1.2,0,0,1,145.38,74.22Zm2.07,0a.85.85,0,1,0-1.7,0,.85.85,0,1,0,1.7,0Z"/><path class="cls-16" d="M148.35,72h.36v3.06h.67v.32h-1Z"/><path class="cls-16" d="M149.54,74.22a1.22,1.22,0,1,1,1.22,1.23A1.2,1.2,0,0,1,149.54,74.22Zm2.08,0a.86.86,0,1,0-1.71,0,.86.86,0,1,0,1.71,0Z"/><path class="cls-16" d="M153.5,73a1,1,0,0,1,.91.49h0c0-.07,0-.14,0-.24v-.17h.33v3.34H153v-.32h1.37v-1a1.57,1.57,0,0,1,0-.25h0a.9.9,0,0,1-.87.49,1.2,1.2,0,0,1,0-2.39Zm-.79,1.19a.85.85,0,1,0,.84-.87A.83.83,0,0,0,152.71,74.18Z"/><path class="cls-16" d="M155.4,72.4a.23.23,0,1,1,.23.23A.23.23,0,0,1,155.4,72.4Zm0,3V73.07h.36v2.31Z"/><path class="cls-16" d="M157.11,74l.3.14a.7.7,0,0,1,.5.66c0,.38-.3.66-.79.66a.78.78,0,0,1-.81-.61l.29-.15a.54.54,0,0,0,.55.44c.23,0,.4-.12.4-.34s-.11-.27-.35-.38l-.28-.13c-.3-.14-.51-.31-.51-.66a.66.66,0,0,1,.72-.63.78.78,0,0,1,.78.53l-.27.14a.52.52,0,0,0-.5-.36.34.34,0,0,0-.38.32C156.76,73.79,156.87,73.88,157.11,74Z"/><path class="cls-16" d="M158.54,73.38h-.27v-.31h.27v-.62h.36v.62h.71v.31h-.71v1.68h.64v.32h-1Z"/><path class="cls-16" d="M74.33,85.38V82h1.18a1.69,1.69,0,1,1,0,3.38Zm2.1-1.7a.88.88,0,0,0-.92-1h-.38v2h.38A.89.89,0,0,0,76.43,83.68Z"/><path class="cls-16" d="M79,84.11h-.17v1.27h-.8V82h1.34a1.09,1.09,0,0,1,1.16,1.07,1,1,0,0,1-.7,1l.77,1.35h-.89Zm.74-1a.41.41,0,0,0-.44-.4h-.47v.8h.47A.41.41,0,0,0,79.76,83.09Z"/><path class="cls-16" d="M81.38,82h2v.69H82.18v.65h1.13V84H82.18v.67h1.24v.7h-2Z"/><path class="cls-16" d="M86.69,85.38H85.9V84.5H85v.88h-.79V83.12a1.22,1.22,0,0,1,2.44,0ZM85,83.82h.86v-.64c0-.39-.19-.54-.43-.54s-.43.15-.43.54Z"/><path class="cls-16" d="M89,84.67l-.59-1.3h0v2h-.76V82h1l.72,1.66h0L90.09,82H91v3.38h-.75v-2h0l-.6,1.3Z"/><path class="cls-16" d="M93.64,84.42a.48.48,0,0,0,.46.32.44.44,0,0,0,.47-.48V82.69H93.33V82h2v2.19a1.17,1.17,0,0,1-1.25,1.26A1.08,1.08,0,0,1,93,84.8Z"/><path class="cls-16" d="M96.13,83.69a1.72,1.72,0,1,1,1.72,1.76A1.66,1.66,0,0,1,96.13,83.69Zm2.63,0a.92.92,0,0,0-.91-1.05c-.57,0-.91.42-.91,1.05s.34,1,.91,1S98.76,84.32,98.76,83.68Z"/><path class="cls-16" d="M100.38,82h1.3c.62,0,1,.33,1,.85a.67.67,0,0,1-.37.65v0a1.19,1.19,0,0,1,.28,0h.13v1.88h-2.38ZM102,84.69V84h-.83v.72Zm-.41-1.33a.32.32,0,0,0,.35-.34.32.32,0,0,0-.34-.34h-.42v.68Z"/><path class="cls-16" d="M105.46,82.69h-.79V82H107v.69h-.79v2.69h-.79Z"/><path class="cls-16" d="M107.77,82h.8v3.38h-.8Z"/><path class="cls-16" d="M110.08,82.69h-.79V82h2.38v.69h-.8v2.69h-.79Z"/><path class="cls-16" d="M112.39,82h.8v2.68h1.08v.7h-1.88Z"/><path class="cls-16" d="M115,82h2v.69h-1.22v.65h1.13V84h-1.13v.67H117v.7h-2Z"/><path class="cls-16" d="M117.8,83.41a.45.45,0,0,1,.45-.44.44.44,0,0,1,.44.44.44.44,0,0,1-.44.44A.45.45,0,0,1,117.8,83.41Zm0,1.59a.45.45,0,0,1,.45-.44.44.44,0,0,1,.44.44.44.44,0,0,1-.44.44A.45.45,0,0,1,117.8,85Z"/><path class="cls-16" d="M121,82h.37v3h1.46v.33H121Z"/><path class="cls-16" d="M124.19,83a.93.93,0,0,1,.89.49h0a1.7,1.7,0,0,1,0-.25v-.16h.34v2.31h-.34v-.22a1.85,1.85,0,0,1,0-.25h0a.94.94,0,0,1-.9.54,1.16,1.16,0,0,1-1.2-1.23A1.18,1.18,0,0,1,124.19,83Zm.88,1.23a.87.87,0,1,0-.87.9A.86.86,0,0,0,125.07,84.22Z"/><path class="cls-16" d="M126.71,84l.3.14a.7.7,0,0,1,.5.66c0,.38-.3.66-.79.66a.78.78,0,0,1-.81-.61l.29-.15a.54.54,0,0,0,.55.44c.23,0,.4-.12.4-.34s-.11-.27-.35-.38l-.28-.13c-.3-.14-.51-.31-.51-.66a.66.66,0,0,1,.72-.63.78.78,0,0,1,.78.53l-.27.14a.52.52,0,0,0-.5-.36.34.34,0,0,0-.38.32C126.36,83.79,126.47,83.88,126.71,84Z"/><path class="cls-16" d="M129.1,85.45a1.23,1.23,0,0,1,0-2.46,1.14,1.14,0,0,1,1.14,1.23.86.86,0,0,1,0,.16h-2a.82.82,0,0,0,.84.74.93.93,0,0,0,.74-.35l.21.21A1.13,1.13,0,0,1,129.1,85.45Zm-.84-1.38h1.61a.76.76,0,0,0-.78-.76A.82.82,0,0,0,128.26,84.07Z"/><path class="cls-16" d="M131.79,83.07v.32h-.68v2h-.36V83.07Z"/><path class="cls-16" d="M133.74,82.32h-1V82h2.26v.32h-.94v3.06h-.37Z"/><path class="cls-16" d="M136.16,83a1,1,0,0,1,.89.49h0a1.7,1.7,0,0,1,0-.25v-.16h.33v2.31h-.33v-.22a1.85,1.85,0,0,1,0-.25h0a1,1,0,0,1-.9.54,1.17,1.17,0,0,1-1.21-1.23A1.18,1.18,0,0,1,136.16,83Zm.88,1.23a.87.87,0,1,0-.87.9A.86.86,0,0,0,137,84.22Z"/><path class="cls-16" d="M139.08,83a.94.94,0,0,1,.9.49h0a1.7,1.7,0,0,1,0-.24v-.17h.33v3.34h-1.73v-.32H140v-1a1.57,1.57,0,0,1,0-.25h0a.91.91,0,0,1-.87.49,1.2,1.2,0,0,1,0-2.39Zm-.79,1.19a.85.85,0,1,0,.84-.87A.83.83,0,0,0,138.29,84.18Z"/><path class="cls-16" d="M143.27,84h-.67v1.4h-.37V82h1.21a1,1,0,0,1,1.09,1,1,1,0,0,1-.86,1l.88,1.42h-.43Zm.88-1a.68.68,0,0,0-.75-.67h-.8v1.34h.8A.69.69,0,0,0,144.15,83Z"/><path class="cls-16" d="M146.05,85.45a1.23,1.23,0,0,1,0-2.46,1.14,1.14,0,0,1,1.13,1.23v.16h-2a.82.82,0,0,0,.84.74.91.91,0,0,0,.74-.35L147,85A1.11,1.11,0,0,1,146.05,85.45Zm-.84-1.38h1.62a.77.77,0,0,0-.79-.76A.83.83,0,0,0,145.21,84.07Z"/><path class="cls-16" d="M147.49,83.07h.27V82h1v.31h-.67v.76h.64v.31h-.64v2h-.36v-2h-.27Z"/><path class="cls-16" d="M150.14,85.45a1.23,1.23,0,0,1,0-2.46,1.15,1.15,0,0,1,1.14,1.23s0,.12,0,.16h-2a.82.82,0,0,0,.85.74.91.91,0,0,0,.73-.35l.21.21A1.11,1.11,0,0,1,150.14,85.45Zm-.84-1.38h1.62a.77.77,0,0,0-.79-.76A.83.83,0,0,0,149.3,84.07Z"/><path class="cls-16" d="M152.83,83.07v.32h-.68v2h-.36V83.07Z"/><path class="cls-16" d="M154.23,85.45a1.23,1.23,0,0,1,0-2.46,1.14,1.14,0,0,1,1.14,1.23.86.86,0,0,1,0,.16h-2a.84.84,0,0,0,.85.74.89.89,0,0,0,.73-.35l.22.21A1.14,1.14,0,0,1,154.23,85.45Zm-.85-1.38H155a.77.77,0,0,0-.78-.76A.83.83,0,0,0,153.38,84.07Z"/><path class="cls-16" d="M156.92,85.45a1.23,1.23,0,0,1,0-2.46,1.15,1.15,0,0,1,1.14,1.23s0,.12,0,.16h-2a.82.82,0,0,0,.85.74.91.91,0,0,0,.73-.35l.21.21A1.11,1.11,0,0,1,156.92,85.45Zm-.84-1.38h1.62a.77.77,0,0,0-.79-.76A.83.83,0,0,0,156.08,84.07Z"/><path class="cls-16" d="M75.31,97.47H74.09v-.41H77v.41h-1.2v3.91h-.47Z"/><path class="cls-16" d="M78.33,98.42v.41h-.86v2.55H77v-3Z"/><path class="cls-16" d="M80.12,98.33a1.19,1.19,0,0,1,1.14.62h0a2.55,2.55,0,0,1,0-.31v-.22h.43v3h-.43v-.28a3.11,3.11,0,0,1,0-.32h0a1.2,1.2,0,0,1-1.15.69,1.49,1.49,0,0,1-1.54-1.57A1.51,1.51,0,0,1,80.12,98.33Zm1.13,1.57a1.11,1.11,0,1,0-1.11,1.15A1.1,1.1,0,0,0,81.25,99.9Z"/><path class="cls-16" d="M85,98.42v3h-.46V98.83h-1.5v2.55H82.6v-3Z"/><path class="cls-16" d="M86.67,99.61l.39.18a.88.88,0,0,1,.64.83c0,.5-.39.85-1,.85a1,1,0,0,1-1-.77l.36-.2a.7.7,0,0,0,.7.56c.31,0,.52-.15.52-.44s-.15-.34-.45-.48l-.36-.17c-.38-.17-.65-.39-.65-.83a.85.85,0,0,1,.92-.81,1,1,0,0,1,1,.67l-.35.19a.65.65,0,0,0-.64-.47.44.44,0,0,0-.48.41C86.23,99.35,86.37,99.47,86.67,99.61Z"/><path class="cls-16" d="M90,101.47a1.22,1.22,0,0,1-1.14-.58h0a2.55,2.55,0,0,1,0,.31v1.5h-.46V98.42h.43v.21a2.82,2.82,0,0,1,0,.31h0A1.35,1.35,0,0,1,90,98.33a1.57,1.57,0,0,1,0,3.14ZM88.84,99.9A1.1,1.1,0,1,0,90,98.74,1.09,1.09,0,0,0,88.84,99.9Z"/><path class="cls-16" d="M92,99.9a1.56,1.56,0,1,1,1.56,1.57A1.53,1.53,0,0,1,92,99.9Zm2.65,0a1.09,1.09,0,1,0-1.09,1.15A1.09,1.09,0,0,0,94.63,99.9Z"/><path class="cls-16" d="M97.1,98.42v.41h-.86v2.55h-.46v-3Z"/><path class="cls-16" d="M97.74,98.83H97.4v-.41h.34v-.78h.46v.78h.91v.41H98.2V101H99v.41H97.74Z"/><path class="cls-16" d="M101,98.33a1.19,1.19,0,0,1,1.14.62h0c0-.08,0-.16,0-.31v-.22h.43v3h-.43v-.28c0-.13,0-.22,0-.32h0a1.19,1.19,0,0,1-1.15.69,1.48,1.48,0,0,1-1.53-1.57A1.5,1.5,0,0,1,101,98.33Zm1.13,1.57a1.11,1.11,0,1,0-1.11,1.15A1.1,1.1,0,0,0,102.09,99.9Z"/><path class="cls-16" d="M103.54,98.83h-.33v-.41h.33v-.78H104v.78h.91v.41H104V101h.83v.41h-1.29Z"/><path class="cls-16" d="M105.41,97.57a.3.3,0,1,1,.3.3A.29.29,0,0,1,105.41,97.57Zm.07,3.81v-3h.46v3Z"/><path class="cls-16" d="M106.63,99.9a1.56,1.56,0,1,1,1.56,1.57A1.52,1.52,0,0,1,106.63,99.9Zm2.65,0a1.09,1.09,0,1,0-1.09,1.15A1.09,1.09,0,0,0,109.28,99.9Z"/><path class="cls-16" d="M112.85,98.42v3h-.46V98.83h-1.5v2.55h-.46v-3Z"/><path class="cls-16" d="M115.87,97.47h-1.21v-.41h2.89v.41h-1.21v3.91h-.47Z"/><path class="cls-16" d="M119,101.47a1.57,1.57,0,0,1,0-3.14,1.47,1.47,0,0,1,1.46,1.57s0,.15,0,.2h-2.52a1.05,1.05,0,0,0,1.08,1,1.14,1.14,0,0,0,.94-.45l.27.28A1.47,1.47,0,0,1,119,101.47Zm-1.08-1.76H120a1,1,0,0,0-1-1A1.06,1.06,0,0,0,117.89,99.71Z"/><path class="cls-16" d="M123.34,99.22a1.13,1.13,0,1,0-.92,1.83,1.13,1.13,0,0,0,1-.51l.28.27a1.44,1.44,0,0,1-1.23.66,1.57,1.57,0,0,1,0-3.14,1.46,1.46,0,0,1,1.21.61Z"/><path class="cls-16" d="M124.24,101.38V97.06h.46v1.36h2v3h-.46V98.83H124.7v2.55Z"/><path class="cls-16" d="M130,98.42v3h-.46V98.83H128v2.55h-.46v-3Z"/><path class="cls-16" d="M130.68,99.9a1.56,1.56,0,1,1,1.56,1.57A1.53,1.53,0,0,1,130.68,99.9Zm2.66,0a1.09,1.09,0,1,0-2.18,0,1.09,1.09,0,1,0,2.18,0Z"/><path class="cls-16" d="M134.49,97.06H135V101h.85v.41h-1.31Z"/><path class="cls-16" d="M136,99.9a1.56,1.56,0,1,1,1.56,1.57A1.53,1.53,0,0,1,136,99.9Zm2.66,0a1.09,1.09,0,1,0-2.18,0,1.09,1.09,0,1,0,2.18,0Z"/><path class="cls-16" d="M141.06,98.33a1.21,1.21,0,0,1,1.16.62h0a2.82,2.82,0,0,1,0-.31v-.22h.42v4.28h-2.21v-.41h1.75v-1.22a2.73,2.73,0,0,1,0-.32h0a1.13,1.13,0,0,1-1.11.63,1.53,1.53,0,0,1,0-3Zm-1,1.52a1.08,1.08,0,1,0,1.07-1.11A1.06,1.06,0,0,0,140.06,99.85Z"/><path class="cls-16" d="M143.5,97.57a.28.28,0,0,1,.29-.28.28.28,0,0,1,.29.28.29.29,0,0,1-.29.3A.28.28,0,0,1,143.5,97.57Zm.06,3.81v-3H144v3Z"/><path class="cls-16" d="M145.67,99.61l.39.18a.88.88,0,0,1,.64.83c0,.5-.39.85-1,.85a1,1,0,0,1-1-.77l.36-.2a.7.7,0,0,0,.7.56c.31,0,.52-.15.52-.44s-.14-.34-.45-.48l-.36-.17c-.38-.17-.65-.39-.65-.83a.85.85,0,0,1,.92-.81,1,1,0,0,1,1,.67l-.35.19a.65.65,0,0,0-.63-.47.44.44,0,0,0-.49.41C145.23,99.35,145.37,99.47,145.67,99.61Z"/><path class="cls-16" d="M147.5,98.83h-.34v-.41h.34v-.78H148v.78h.91v.41H148V101h.82v.41H147.5Z"/><path class="cls-16" d="M76.39,108.28,75,105.85h0v3.53h-.48v-4.32h.6l1.48,2.66h0l1.48-2.66h.57v4.32h-.48v-3.53h0l-1.36,2.43Z"/><path class="cls-16" d="M79.55,105.57a.3.3,0,1,1,.3.3A.29.29,0,0,1,79.55,105.57Zm.07,3.81v-3h.46v3Z"/><path class="cls-16" d="M83.42,106.42v3H83v-2.55H81.45v2.55H81v-3Z"/><path class="cls-16" d="M85.64,106.33a1.28,1.28,0,0,1,1.13.55h0a2.55,2.55,0,0,1,0-.31v-1.51h.45v4.32h-.42v-.25a2.73,2.73,0,0,1,0-.31h0a1.24,1.24,0,0,1-1.17.65,1.57,1.57,0,0,1,0-3.14Zm1.15,1.57a1.1,1.1,0,1,0-1.1,1.15A1.09,1.09,0,0,0,86.79,107.9Z"/><path class="cls-16" d="M88.08,105.57a.3.3,0,1,1,.3.3A.29.29,0,0,1,88.08,105.57Zm.07,3.81v-3h.46v3Z"/><path class="cls-16" d="M90.77,106.33a1.23,1.23,0,0,1,1.17.62h0c0-.09,0-.18,0-.31v-.22h.43v4.28H90.15v-.41h1.76v-1.22a3,3,0,0,1,0-.32h0a1.16,1.16,0,0,1-1.12.63,1.53,1.53,0,0,1,0-3Zm-1,1.52a1.08,1.08,0,1,0,1.08-1.11A1.06,1.06,0,0,0,89.77,107.85Z"/><path class="cls-16" d="M93.05,107.9a1.56,1.56,0,1,1,1.56,1.57A1.53,1.53,0,0,1,93.05,107.9Zm2.65,0a1.09,1.09,0,1,0-1.09,1.15A1.09,1.09,0,0,0,95.7,107.9Z"/><path class="cls-16" d="M99.67,109.47a1.57,1.57,0,0,1,0-3.14,1.47,1.47,0,0,1,1.46,1.57s0,.15,0,.2H98.59a1.05,1.05,0,0,0,1.08,1,1.14,1.14,0,0,0,.94-.45l.27.28A1.47,1.47,0,0,1,99.67,109.47Zm-1.08-1.76h2.07a1,1,0,0,0-1-1A1.06,1.06,0,0,0,98.59,107.71Z"/><path class="cls-16" d="M103.11,106.33a1.22,1.22,0,0,1,1.14.62h0a2.55,2.55,0,0,1,0-.31v-.22h.43v3h-.43v-.28a3.11,3.11,0,0,1,0-.32h0a1.2,1.2,0,0,1-1.15.69,1.57,1.57,0,0,1,0-3.14Zm1.12,1.57a1.1,1.1,0,1,0-1.11,1.15A1.1,1.1,0,0,0,104.23,107.9Z"/><path class="cls-16" d="M106.91,106.42v.41H106v2.55h-.46v-3Z"/><path class="cls-16" d="M109.87,106.42v3h-.46v-2.55H107.9v2.55h-.46v-3Z"/><path class="cls-16" d="M112.11,109.47a1.57,1.57,0,0,1,0-3.14,1.46,1.46,0,0,1,1.45,1.57,1.34,1.34,0,0,1,0,.2H111a1.05,1.05,0,0,0,1.08,1,1.16,1.16,0,0,0,.94-.45l.27.28A1.48,1.48,0,0,1,112.11,109.47ZM111,107.71h2.06a1,1,0,0,0-1-1A1,1,0,0,0,111,107.71Z"/><path class="cls-16" d="M115.54,106.33a1.29,1.29,0,0,1,1.13.55h0c0-.08,0-.16,0-.31v-1.51h.46v4.32h-.43v-.25a2.41,2.41,0,0,1,0-.31h0a1.24,1.24,0,0,1-1.17.65,1.57,1.57,0,0,1,0-3.14Zm1.15,1.57a1.11,1.11,0,1,0-1.11,1.15A1.1,1.1,0,0,0,116.69,107.9Z"/><path class="cls-16" d="M119.63,106.83h-.34v-.41h.34v-.78h.46v.78H121v.41h-.91V109h.82v.41h-1.28Z"/><path class="cls-16" d="M121.56,109.38v-4.32H122v1.36h2v3h-.46v-2.55H122v2.55Z"/><path class="cls-16" d="M126.23,109.47a1.57,1.57,0,0,1,0-3.14,1.47,1.47,0,0,1,1.46,1.57s0,.15,0,.2h-2.52a1.05,1.05,0,0,0,1.08,1,1.14,1.14,0,0,0,.94-.45l.27.28A1.47,1.47,0,0,1,126.23,109.47Zm-1.08-1.76h2.07a1,1,0,0,0-1-1A1.06,1.06,0,0,0,125.15,107.71Z"/><path class="cls-16" d="M132.25,106.42v3h-.46v-2.55h-1.51v2.55h-.46v-3Z"/><path class="cls-16" d="M133.09,105.57a.3.3,0,1,1,.3.3A.29.29,0,0,1,133.09,105.57Zm.07,3.81v-3h.46v3Z"/><path class="cls-16" d="M136.8,107.22a1.1,1.1,0,0,0-.92-.48,1.16,1.16,0,0,0,0,2.31,1.13,1.13,0,0,0,.94-.51l.28.27a1.43,1.43,0,0,1-1.22.66,1.57,1.57,0,0,1,0-3.14,1.45,1.45,0,0,1,1.2.61Z"/><path class="cls-16" d="M137.69,105.06h.46v2.63h.3a.91.91,0,0,0,1-1,2,2,0,0,0,0-.33h.47a3,3,0,0,1,0,.34,1.26,1.26,0,0,1-.69,1.19l.84,1.43h-.53l-.75-1.29a3.31,3.31,0,0,1-.34,0l-.32,0v1.28h-.46Z"/><path class="cls-16" d="M143.14,106.42v3h-.46v-2.55h-1.51v2.55h-.46v-3Z"/><path class="cls-16" d="M145.38,106.33a1.19,1.19,0,0,1,1.13.62h0a2.16,2.16,0,0,1,0-.31v-.22H147v3h-.44v-.28a2.88,2.88,0,0,1,0-.32h0a1.19,1.19,0,0,1-1.15.69,1.49,1.49,0,0,1-1.53-1.57A1.5,1.5,0,0,1,145.38,106.33Zm1.12,1.57a1.11,1.11,0,1,0-1.11,1.15A1.1,1.1,0,0,0,146.5,107.9Z"/><path class="cls-16" d="M151.87,109.38h-.46v-2a.67.67,0,1,0-1.34,0v2h-.46v-2a.64.64,0,0,0-.66-.68.65.65,0,0,0-.68.68v2h-.46v-2a1.08,1.08,0,0,1,1.13-1.09,1,1,0,0,1,.91.49,1,1,0,0,1,.9-.49,1.06,1.06,0,0,1,1.12,1.09Z"/><path class="cls-16" d="M154.08,109.47a1.57,1.57,0,0,1,0-3.14,1.46,1.46,0,0,1,1.45,1.57,1.34,1.34,0,0,1,0,.2H153a1.05,1.05,0,0,0,1.08,1,1.14,1.14,0,0,0,.94-.45l.27.28A1.47,1.47,0,0,1,154.08,109.47ZM153,107.71h2.06a1,1,0,0,0-1-1A1,1,0,0,0,153,107.71Z"/><path class="cls-16" d="M74.47,113.53l.24-.54.21.08-.22.53a1.07,1.07,0,0,1-.07.19.3.3,0,0,1,.27.3.28.28,0,0,1-.29.29.28.28,0,0,1-.3-.29A1.39,1.39,0,0,1,74.47,113.53Zm.92,0,.23-.54.21.08-.21.53c0,.07-.05.13-.07.19a.29.29,0,0,1,.26.3.28.28,0,0,1-.29.29.27.27,0,0,1-.29-.29A1.39,1.39,0,0,1,75.39,113.53Z"/><path class="cls-16" d="M78.48,116.28l-1.37-2.43h0v3.53h-.47v-4.32h.59l1.48,2.66h0l1.47-2.66h.57v4.32h-.47v-3.53h0l-1.36,2.43Z"/><path class="cls-16" d="M81.65,113.57a.28.28,0,0,1,.29-.28.28.28,0,0,1,.29.28.29.29,0,0,1-.29.3A.28.28,0,0,1,81.65,113.57Zm.06,3.81v-3h.46v3Z"/><path class="cls-16" d="M85.51,114.42v3h-.46v-2.55H83.54v2.55h-.46v-3Z"/><path class="cls-16" d="M87.74,114.33a1.31,1.31,0,0,1,1.13.55h0c0-.08,0-.16,0-.31v-1.51h.46v4.32H88.9v-.25a2.41,2.41,0,0,1,0-.31h0a1.24,1.24,0,0,1-1.17.65,1.57,1.57,0,0,1,0-3.14Zm1.15,1.57a1.11,1.11,0,1,0-1.11,1.15A1.1,1.1,0,0,0,88.89,115.9Z"/><path class="cls-16" d="M90.17,113.57a.3.3,0,1,1,.3.3A.29.29,0,0,1,90.17,113.57Zm.07,3.81v-3h.46v3Z"/><path class="cls-16" d="M93.41,115.19h2.27a.42.42,0,0,1,0,.19,2,2,0,0,1-2.09,2.09,2.25,2.25,0,0,1,0-4.5,2.07,2.07,0,0,1,1.75.88l-.32.26a1.74,1.74,0,0,0-1.43-.72,1.83,1.83,0,0,0,0,3.65,1.5,1.5,0,0,0,1.6-1.43h-1.8Z"/><path class="cls-16" d="M96.12,115.9a1.56,1.56,0,1,1,1.56,1.57A1.53,1.53,0,0,1,96.12,115.9Zm2.66,0a1.09,1.09,0,1,0-2.18,0,1.09,1.09,0,1,0,2.18,0Z"/><path class="cls-16" d="M101.72,115.19H104a.66.66,0,0,1,0,.19,2,2,0,0,1-2.1,2.09,2.25,2.25,0,0,1,0-4.5,2.07,2.07,0,0,1,1.75.88l-.33.26a1.73,1.73,0,0,0-3.13,1.11,1.71,1.71,0,0,0,1.71,1.82,1.51,1.51,0,0,0,1.61-1.43h-1.81Z"/><path class="cls-16" d="M104.44,115.9a1.56,1.56,0,1,1,1.56,1.57A1.53,1.53,0,0,1,104.44,115.9Zm2.65,0a1.09,1.09,0,1,0-1.09,1.15A1.09,1.09,0,0,0,107.09,115.9Z"/><path class="cls-16" d="M108.24,113.8l-.24.54-.21-.08.21-.53a1.46,1.46,0,0,0,.07-.19.29.29,0,0,1-.26-.3.3.3,0,1,1,.59,0A1.39,1.39,0,0,1,108.24,113.8Zm.9,0-.23.54-.21-.08.21-.53a1.46,1.46,0,0,0,.07-.19.29.29,0,0,1-.26-.3.29.29,0,1,1,.58,0A1.39,1.39,0,0,1,109.14,113.8Z"/><path class="cls-16" d="M113.09,117.47a1.27,1.27,0,0,1-1.16-.61h0a2.73,2.73,0,0,1,0,.32v.2h-.43v-4.32H112v1.54a2.33,2.33,0,0,1,0,.32h0a1.3,1.3,0,0,1,1.13-.59,1.57,1.57,0,0,1,0,3.14Zm1.06-1.57a1.11,1.11,0,1,0-1.11,1.15A1.1,1.1,0,0,0,114.15,115.9Z"/><path class="cls-16" d="M116.64,117.47a1.57,1.57,0,0,1,0-3.14,1.46,1.46,0,0,1,1.45,1.57,1.34,1.34,0,0,1,0,.2h-2.51a1.05,1.05,0,0,0,1.08,1,1.12,1.12,0,0,0,.93-.45l.28.28A1.48,1.48,0,0,1,116.64,117.47Zm-1.07-1.76h2.06a1,1,0,0,0-1-1A1,1,0,0,0,115.57,115.71Z"/><path class="cls-16" d="M121,115.22a1.1,1.1,0,0,0-.92-.48,1.16,1.16,0,0,0,0,2.31,1.11,1.11,0,0,0,.94-.51l.28.27a1.42,1.42,0,0,1-1.22.66,1.57,1.57,0,0,1,0-3.14,1.48,1.48,0,0,1,1.21.61Z"/><path class="cls-16" d="M123.22,114.33a1.19,1.19,0,0,1,1.14.62h0c0-.08,0-.16,0-.31v-.22h.43v3h-.43v-.28c0-.13,0-.22,0-.32h0a1.2,1.2,0,0,1-1.15.69,1.49,1.49,0,0,1-1.54-1.57A1.51,1.51,0,0,1,123.22,114.33Zm1.13,1.57a1.11,1.11,0,1,0-1.11,1.15A1.1,1.1,0,0,0,124.35,115.9Z"/><path class="cls-16" d="M125.7,117.38v-3h.46V117h1.47v-2.55h.46v3Z"/><path class="cls-16" d="M129.73,115.61l.4.18a.86.86,0,0,1-.37,1.68,1,1,0,0,1-1-.77l.36-.2a.71.71,0,0,0,.71.56c.3,0,.51-.15.51-.44s-.14-.34-.44-.48l-.37-.17a.87.87,0,0,1-.64-.83.84.84,0,0,1,.92-.81,1,1,0,0,1,1,.67l-.34.19a.66.66,0,0,0-.64-.47.43.43,0,0,0-.48.41C129.3,115.35,129.44,115.47,129.73,115.61Z"/><path class="cls-16" d="M132.79,117.47a1.57,1.57,0,0,1,0-3.14,1.46,1.46,0,0,1,1.45,1.57,1.34,1.34,0,0,1,0,.2h-2.51a1.05,1.05,0,0,0,1.08,1,1.14,1.14,0,0,0,.94-.45l.27.28A1.48,1.48,0,0,1,132.79,117.47Zm-1.07-1.76h2.06a1,1,0,0,0-1-1A1,1,0,0,0,131.72,115.71Z"/><path class="cls-16" d="M136.16,115.9a1.56,1.56,0,1,1,1.56,1.57A1.53,1.53,0,0,1,136.16,115.9Zm2.65,0a1.09,1.09,0,1,0-1.09,1.15A1.09,1.09,0,0,0,138.81,115.9Z"/><path class="cls-16" d="M139.69,114.42H140v-1.36h1.32v.4h-.86v1h.83v.41h-.83v2.55H140v-2.55h-.34Z"/><path class="cls-16" d="M143.16,117.38v-4.32h.46v1.36h2v3h-.46v-2.55h-1.5v2.55Z"/><path class="cls-16" d="M147.82,117.47a1.57,1.57,0,0,1,0-3.14,1.46,1.46,0,0,1,1.45,1.57,1.34,1.34,0,0,1,0,.2h-2.51a1.05,1.05,0,0,0,1.08,1,1.14,1.14,0,0,0,.94-.45l.27.28A1.48,1.48,0,0,1,147.82,117.47Zm-1.07-1.76h2.06a1,1,0,0,0-1-1A1,1,0,0,0,146.75,115.71Z"/><path class="cls-16" d="M151.26,114.42v.41h-.87v2.55h-.46v-3Z"/><path class="cls-16" d="M74.58,122.83h-.34v-.41h.34v-.78H75v.78H76v.41H75V125h.82v.41H74.58Z"/><path class="cls-16" d="M76.45,121.57a.28.28,0,0,1,.29-.28.29.29,0,0,1,.3.28.29.29,0,0,1-.3.3A.29.29,0,0,1,76.45,121.57Zm.06,3.81v-3H77v3Z"/><path class="cls-16" d="M79.21,122.42v.41h-.86v2.55h-.46v-3Z"/><path class="cls-16" d="M81,125.47a1.57,1.57,0,0,1,0-3.14,1.47,1.47,0,0,1,1.46,1.57s0,.15,0,.2H79.92a1.05,1.05,0,0,0,1.08,1,1.14,1.14,0,0,0,.94-.45l.27.28A1.47,1.47,0,0,1,81,125.47Zm-1.08-1.76H82a1,1,0,0,0-1-1A1.06,1.06,0,0,0,79.92,123.71Z"/><path class="cls-16" d="M83.11,121.06h.46V125h.85v.41H83.11Z"/><path class="cls-16" d="M86.19,125.47a1.57,1.57,0,0,1,0-3.14,1.46,1.46,0,0,1,1.45,1.57,1.34,1.34,0,0,1,0,.2H85.11a1.05,1.05,0,0,0,1.08,1,1.14,1.14,0,0,0,.94-.45l.27.28A1.47,1.47,0,0,1,86.19,125.47Zm-1.08-1.76h2.06a1,1,0,0,0-1-1A1,1,0,0,0,85.11,123.71Z"/><path class="cls-16" d="M89,123.61l.39.18a.88.88,0,0,1,.64.83c0,.5-.39.85-1,.85a1,1,0,0,1-1-.77l.36-.2a.7.7,0,0,0,.7.56c.31,0,.52-.15.52-.44s-.14-.34-.45-.48l-.36-.17a.87.87,0,0,1-.64-.83.84.84,0,0,1,.92-.81,1,1,0,0,1,1,.67l-.34.19a.67.67,0,0,0-.64-.47.44.44,0,0,0-.49.41C88.59,123.35,88.73,123.47,89,123.61Z"/><path class="cls-16" d="M91.49,123.61l.39.18a.86.86,0,0,1-.36,1.68,1,1,0,0,1-1-.77l.36-.2a.7.7,0,0,0,.7.56c.31,0,.52-.15.52-.44s-.14-.34-.45-.48l-.36-.17a.87.87,0,0,1-.64-.83.84.84,0,0,1,.92-.81,1,1,0,0,1,1,.67l-.34.19a.67.67,0,0,0-.64-.47.44.44,0,0,0-.49.41C91.05,123.35,91.19,123.47,91.49,123.61Z"/><path class="cls-16" d="M97.83,125.38h-.67l-.7-2.55h0l-.7,2.55h-.64l-.8-3h.49L95.4,125h0l.67-2.55h.7l.68,2.55h0l.63-2.55h.48Z"/><path class="cls-16" d="M98.94,123.9a1.56,1.56,0,1,1,1.56,1.57A1.53,1.53,0,0,1,98.94,123.9Zm2.66,0a1.09,1.09,0,1,0-2.18,0,1.09,1.09,0,1,0,2.18,0Z"/><path class="cls-16" d="M104.07,122.42v.41h-.86v2.55h-.46v-3Z"/><path class="cls-16" d="M104.6,121.06h.46v2.63h.3a.91.91,0,0,0,1-1,2,2,0,0,0,0-.33h.47a3,3,0,0,1,0,.34,1.26,1.26,0,0,1-.69,1.19l.84,1.43h-.53l-.75-1.29c-.11,0-.22,0-.34,0l-.32,0v1.28h-.46Z"/><path class="cls-16" d="M109,121.57a.3.3,0,0,1,.59,0,.3.3,0,1,1-.59,0Zm.06,3.81v-3h.46v3Z"/><path class="cls-16" d="M112.91,122.42v3h-.46v-2.55h-1.51v2.55h-.46v-3Z"/><path class="cls-16" d="M116.62,122.33a1.19,1.19,0,0,1,1.14.62h0a2.16,2.16,0,0,1,0-.31v-.22h.44v3h-.44v-.28a2.88,2.88,0,0,1,0-.32h0a1.19,1.19,0,0,1-1.15.69,1.57,1.57,0,0,1,0-3.14Zm1.13,1.57a1.11,1.11,0,1,0-1.11,1.15A1.1,1.1,0,0,0,117.75,123.9Z"/><path class="cls-16" d="M120.42,122.33a1.29,1.29,0,0,1,1.13.55h0a2.16,2.16,0,0,1,0-.31v-1.51H122v4.32h-.43v-.25a2.41,2.41,0,0,1,0-.31h0a1.23,1.23,0,0,1-1.16.65,1.57,1.57,0,0,1,0-3.14Zm1.15,1.57a1.11,1.11,0,1,0-1.1,1.15A1.09,1.09,0,0,0,121.57,123.9Z"/><path class="cls-16" d="M123.69,125.38l-1.12-3h.51L124,125h0l.89-2.55h.5l-1.11,3Z"/><path class="cls-16" d="M127.21,122.33a1.19,1.19,0,0,1,1.14.62h0c0-.08,0-.16,0-.31v-.22h.43v3h-.43v-.28c0-.13,0-.22,0-.32h0a1.19,1.19,0,0,1-1.15.69,1.49,1.49,0,0,1-1.54-1.57A1.51,1.51,0,0,1,127.21,122.33Zm1.13,1.57a1.11,1.11,0,1,0-1.11,1.15A1.1,1.1,0,0,0,128.34,123.9Z"/><path class="cls-16" d="M132.12,122.42v3h-.46v-2.55h-1.51v2.55h-.46v-3Z"/><path class="cls-16" d="M135.29,123.22a1.1,1.1,0,0,0-.92-.48,1.16,1.16,0,1,0,.94,1.8l.29.27a1.44,1.44,0,0,1-1.23.66,1.57,1.57,0,1,1,0-3.14,1.46,1.46,0,0,1,1.21.61Z"/><path class="cls-16" d="M137.5,125.47a1.57,1.57,0,0,1,0-3.14A1.47,1.47,0,0,1,139,123.9s0,.15,0,.2h-2.52a1.05,1.05,0,0,0,1.08,1,1.14,1.14,0,0,0,.94-.45l.27.28A1.47,1.47,0,0,1,137.5,125.47Zm-1.08-1.76h2.07a1,1,0,0,0-1-1A1.06,1.06,0,0,0,136.42,123.71Z"/><path class="cls-16" d="M140.93,122.33a1.28,1.28,0,0,1,1.12.55h0a2.55,2.55,0,0,1,0-.31v-1.51h.45v4.32h-.42v-.25a2.73,2.73,0,0,1,0-.31h0a1.24,1.24,0,0,1-1.17.65,1.57,1.57,0,0,1,0-3.14Zm1.15,1.57a1.11,1.11,0,1,0-1.11,1.15A1.1,1.1,0,0,0,142.08,123.9Z"/><path class="cls-16" d="M74.58,130.83h-.34v-.41h.34v-.78H75v.78H76v.41H75V133h.82v.41H74.58Z"/><path class="cls-16" d="M77.84,130.42v.41H77v2.55h-.46v-3Z"/><path class="cls-16" d="M79.62,130.33a1.19,1.19,0,0,1,1.14.62h0a2.16,2.16,0,0,1,0-.31v-.22h.44v3h-.44v-.28a2.88,2.88,0,0,1,0-.32h0a1.19,1.19,0,0,1-1.15.69,1.57,1.57,0,0,1,0-3.14Zm1.13,1.57a1.11,1.11,0,1,0-1.11,1.15A1.1,1.1,0,0,0,80.75,131.9Z"/><path class="cls-16" d="M82.87,133.38l-1.12-3h.51l.9,2.55h0l.9-2.55h.5l-1.11,3Z"/><path class="cls-16" d="M86.39,133.47a1.57,1.57,0,0,1,0-3.14,1.46,1.46,0,0,1,1.45,1.57,1.34,1.34,0,0,1,0,.2H85.32a1.05,1.05,0,0,0,1.08,1,1.14,1.14,0,0,0,.94-.45l.27.28A1.48,1.48,0,0,1,86.39,133.47Zm-1.07-1.76h2.06a1,1,0,0,0-1-1A1,1,0,0,0,85.32,131.71Z"/><path class="cls-16" d="M88.5,129.06H89V133h.85v.41H88.5Z"/><path class="cls-16" d="M93,130.33a1.19,1.19,0,0,1,1.14.62h0c0-.08,0-.16,0-.31v-.22h.43v3h-.43v-.28c0-.13,0-.22,0-.32h0a1.19,1.19,0,0,1-1.15.69,1.49,1.49,0,0,1-1.54-1.57A1.51,1.51,0,0,1,93,130.33Zm1.13,1.57A1.11,1.11,0,1,0,93,133.05,1.1,1.1,0,0,0,94.1,131.9Z"/><path class="cls-16" d="M97.88,130.42v3h-.46v-2.55H95.91v2.55h-.46v-3Z"/><path class="cls-16" d="M100.1,130.33a1.29,1.29,0,0,1,1.13.55h0a2.16,2.16,0,0,1,0-.31v-1.51h.46v4.32h-.43v-.25a2.41,2.41,0,0,1,0-.31h0a1.24,1.24,0,0,1-1.17.65,1.57,1.57,0,0,1,0-3.14Zm1.15,1.57a1.11,1.11,0,1,0-1.1,1.15A1.09,1.09,0,0,0,101.25,131.9Z"/><path class="cls-16" d="M106.35,131.22a1.16,1.16,0,1,0,0,1.32l.29.27a1.44,1.44,0,0,1-1.23.66,1.57,1.57,0,0,1,0-3.14,1.46,1.46,0,0,1,1.21.61Z"/><path class="cls-16" d="M107,131.9a1.56,1.56,0,1,1,1.56,1.57A1.53,1.53,0,0,1,107,131.9Zm2.65,0a1.09,1.09,0,1,0-1.09,1.15A1.09,1.09,0,0,0,109.65,131.9Z"/><path class="cls-16" d="M114.82,133.38h-.46v-2a.65.65,0,0,0-.68-.68.64.64,0,0,0-.66.68v2h-.46v-2a.67.67,0,1,0-1.34,0v2h-.46v-2a1.07,1.07,0,0,1,1.13-1.09,1,1,0,0,1,.91.49,1,1,0,0,1,.9-.49,1.06,1.06,0,0,1,1.12,1.09Z"/><path class="cls-16" d="M119.7,133.38h-.46v-2a.67.67,0,1,0-1.33,0v2h-.46v-2a.67.67,0,1,0-1.34,0v2h-.46v-2a1.07,1.07,0,0,1,1.13-1.09,1,1,0,0,1,.9.49,1,1,0,0,1,.91-.49,1.05,1.05,0,0,1,1.11,1.09Z"/><path class="cls-16" d="M120.35,131.9a1.56,1.56,0,1,1,1.56,1.57A1.53,1.53,0,0,1,120.35,131.9Zm2.65,0a1.09,1.09,0,1,0-1.09,1.15A1.09,1.09,0,0,0,123,131.9Z"/><path class="cls-16" d="M125.47,130.33a1.29,1.29,0,0,1,1.13.55h0c0-.08,0-.16,0-.31v-1.51h.46v4.32h-.43v-.25a2.41,2.41,0,0,1,0-.31h0a1.24,1.24,0,0,1-1.17.65,1.57,1.57,0,0,1,0-3.14Zm1.15,1.57a1.11,1.11,0,1,0-1.1,1.15A1.09,1.09,0,0,0,126.62,131.9Z"/><path class="cls-16" d="M127.91,129.57a.28.28,0,0,1,.29-.28.28.28,0,0,1,.29.28.29.29,0,0,1-.29.3A.28.28,0,0,1,127.91,129.57Zm.06,3.81v-3h.46v3Z"/><path class="cls-16" d="M129.45,130.83h-.34v-.41h.34v-.78h.46v.78h.91v.41h-.91V133h.82v.41h-1.28Z"/><path class="cls-16" d="M131.63,134.29h1.67v-1c0-.13,0-.22,0-.3h0c-.06.17-.31.43-.85.43a1.11,1.11,0,0,1-1.11-1.18v-1.83h.46v1.82a.76.76,0,1,0,1.51,0v-1.82h.46v4.28h-2.13Z"/><path class="cls-16" d="M138.42,131.22a1.1,1.1,0,0,0-.92-.48,1.16,1.16,0,0,0,0,2.31,1.11,1.11,0,0,0,.94-.51l.28.27a1.42,1.42,0,0,1-1.22.66,1.57,1.57,0,0,1,0-3.14,1.48,1.48,0,0,1,1.21.61Z"/><path class="cls-16" d="M139.07,131.9a1.56,1.56,0,1,1,1.56,1.57A1.52,1.52,0,0,1,139.07,131.9Zm2.65,0a1.09,1.09,0,1,0-1.09,1.15A1.09,1.09,0,0,0,141.72,131.9Z"/><path class="cls-16" d="M145.3,130.42v3h-.46v-2.55h-1.51v2.55h-.46v-3Z"/><path class="cls-16" d="M147,133.38l-1.12-3h.51l.9,2.55h0l.9-2.55h.5l-1.11,3Z"/><path class="cls-16" d="M150.49,133.47a1.57,1.57,0,0,1,0-3.14,1.46,1.46,0,0,1,1.45,1.57,1.34,1.34,0,0,1,0,.2h-2.51a1.05,1.05,0,0,0,1.08,1,1.14,1.14,0,0,0,.94-.45l.27.28A1.48,1.48,0,0,1,150.49,133.47Zm-1.07-1.76h2.06a1,1,0,0,0-1-1A1,1,0,0,0,149.42,131.71Z"/><path class="cls-16" d="M152.85,134.29h1.67v-1a2.23,2.23,0,0,1,0-.3h0c-.06.17-.31.43-.85.43a1.11,1.11,0,0,1-1.11-1.18v-1.83H153v1.82a.75.75,0,1,0,1.5,0v-1.82H155v4.28h-2.13Z"/><path class="cls-16" d="M155.81,131h2v.4h-2Z"/><path class="cls-16" d="M75.81,138.33A1.22,1.22,0,0,1,77,139h0a2.55,2.55,0,0,1,0-.31v-.22h.43v3H77v-.28a3.11,3.11,0,0,1,0-.32h0a1.22,1.22,0,0,1-1.16.69,1.49,1.49,0,0,1-1.53-1.57A1.5,1.5,0,0,1,75.81,138.33Zm1.12,1.57a1.11,1.11,0,1,0-1.11,1.15A1.1,1.1,0,0,0,76.93,139.9Z"/><path class="cls-16" d="M80.71,138.42v3h-.46v-2.55H78.74v2.55h-.46v-3Z"/><path class="cls-16" d="M83.89,139.22a1.12,1.12,0,0,0-.92-.48,1.16,1.16,0,0,0,0,2.31,1.13,1.13,0,0,0,.94-.51l.28.27a1.43,1.43,0,0,1-1.22.66,1.57,1.57,0,1,1,0-3.14,1.45,1.45,0,0,1,1.2.61Z"/><path class="cls-16" d="M86.09,141.47a1.57,1.57,0,0,1,0-3.14,1.46,1.46,0,0,1,1.45,1.57,1.34,1.34,0,0,1,0,.2H85a1.05,1.05,0,0,0,1.08,1,1.14,1.14,0,0,0,.94-.45l.27.28A1.48,1.48,0,0,1,86.09,141.47ZM85,139.71h2.06a1,1,0,0,0-1-1A1,1,0,0,0,85,139.71Z"/><path class="cls-16" d="M87.94,141.13a.29.29,0,1,1,.29.29A.29.29,0,0,1,87.94,141.13Z"/><path class="cls-16" d="M91.78,137.06h.6l1.5,4.32h-.51L93,140.19H91.16l-.39,1.19h-.49Zm-.47,2.72h1.53l-.75-2.26h0Z"/><path class="cls-16" d="M94.14,138.42h.35v-1.36H95.8v.4H95v1h.82v.41H95v2.55h-.46v-2.55h-.35Z"/><path class="cls-16" d="M96.38,138.83H96v-.41h.34v-.78h.46v.78h.91v.41h-.91V141h.82v.41H96.38Z"/><path class="cls-16" d="M99.61,141.47a1.57,1.57,0,0,1,0-3.14,1.47,1.47,0,0,1,1.46,1.57,1.36,1.36,0,0,1,0,.2H98.53a1.05,1.05,0,0,0,1.08,1,1.14,1.14,0,0,0,.94-.45l.27.28A1.47,1.47,0,0,1,99.61,141.47Zm-1.08-1.76h2.07a1,1,0,0,0-1-1A1.06,1.06,0,0,0,98.53,139.71Z"/><path class="cls-16" d="M103,138.42v.41h-.86v2.55h-.46v-3Z"/><path class="cls-16" d="M106.24,141.47a1.57,1.57,0,0,1,0-3.14,1.46,1.46,0,0,1,1.45,1.57,1.34,1.34,0,0,1,0,.2h-2.51a1.05,1.05,0,0,0,1.08,1,1.16,1.16,0,0,0,.94-.45l.27.28A1.48,1.48,0,0,1,106.24,141.47Zm-1.07-1.76h2.06a1,1,0,0,0-1-1A1,1,0,0,0,105.17,139.71Z"/><path class="cls-16" d="M109.68,138.33a1.19,1.19,0,0,1,1.14.62h0c0-.08,0-.16,0-.31v-.22h.43v3h-.43v-.28c0-.13,0-.22,0-.32h0a1.19,1.19,0,0,1-1.15.69,1.49,1.49,0,0,1-1.54-1.57A1.51,1.51,0,0,1,109.68,138.33Zm1.13,1.57a1.11,1.11,0,1,0-1.11,1.15A1.1,1.1,0,0,0,110.81,139.9Z"/><path class="cls-16" d="M113.48,138.42v.41h-.86v2.55h-.46v-3Z"/><path class="cls-16" d="M116.44,138.42v3H116v-2.55h-1.5v2.55H114v-3Z"/><path class="cls-16" d="M117.29,137.57a.28.28,0,0,1,.29-.28.28.28,0,0,1,.29.28.29.29,0,0,1-.29.3A.28.28,0,0,1,117.29,137.57Zm.06,3.81v-3h.46v3Z"/><path class="cls-16" d="M121.15,138.42v3h-.46v-2.55h-1.51v2.55h-.46v-3Z"/><path class="cls-16" d="M123.31,138.33a1.23,1.23,0,0,1,1.17.62h0c0-.09,0-.18,0-.31v-.22h.43v4.28h-2.22v-.41h1.76v-1.22a3,3,0,0,1,0-.32h0a1.16,1.16,0,0,1-1.12.63,1.53,1.53,0,0,1,0-3Zm-1,1.52a1.08,1.08,0,1,0,1.08-1.11A1.06,1.06,0,0,0,122.31,139.85Z"/><path class="cls-16" d="M128.63,138.33a1.22,1.22,0,0,1,1.14.62h0a2.55,2.55,0,0,1,0-.31v-.22h.43v3h-.43v-.28a3.11,3.11,0,0,1,0-.32h0a1.21,1.21,0,0,1-1.15.69,1.57,1.57,0,0,1,0-3.14Zm1.12,1.57a1.11,1.11,0,1,0-1.11,1.15A1.1,1.1,0,0,0,129.75,139.9Z"/><path class="cls-16" d="M133.91,138.33a1.28,1.28,0,0,1,1.12.55h0a2.55,2.55,0,0,1,0-.31v-1.51h.45v4.32h-.42v-.25a2.73,2.73,0,0,1,0-.31h0a1.24,1.24,0,0,1-1.17.65,1.57,1.57,0,0,1,0-3.14Zm1.15,1.57a1.11,1.11,0,1,0-1.11,1.15A1.1,1.1,0,0,0,135.06,139.9Z"/><path class="cls-16" d="M137.74,141.47a1.57,1.57,0,0,1,0-3.14,1.47,1.47,0,0,1,1.46,1.57s0,.15,0,.2h-2.51a1.05,1.05,0,0,0,1.08,1,1.14,1.14,0,0,0,.93-.45l.27.28A1.45,1.45,0,0,1,137.74,141.47Zm-1.07-1.76h2.06a1,1,0,0,0-1-1A1,1,0,0,0,136.67,139.71Z"/><path class="cls-16" d="M141.1,138.33a1.23,1.23,0,0,1,1.17.62h0c0-.09,0-.18,0-.31v-.22h.43v4.28h-2.22v-.41h1.76v-1.22a3,3,0,0,1,0-.32h0a1.16,1.16,0,0,1-1.12.63,1.53,1.53,0,0,1,0-3Zm-1,1.52a1.08,1.08,0,1,0,1.08-1.11A1.06,1.06,0,0,0,140.1,139.85Z"/><path class="cls-16" d="M144.93,138.42v.41h-.86v2.55h-.46v-3Z"/><path class="cls-16" d="M146.72,141.47a1.57,1.57,0,0,1,0-3.14,1.47,1.47,0,0,1,1.46,1.57,1.36,1.36,0,0,1,0,.2h-2.51a1.05,1.05,0,0,0,1.08,1,1.14,1.14,0,0,0,.94-.45l.27.28A1.47,1.47,0,0,1,146.72,141.47Zm-1.08-1.76h2.07a1,1,0,0,0-1-1A1.06,1.06,0,0,0,145.64,139.71Z"/><path class="cls-16" d="M150.16,141.47a1.57,1.57,0,0,1,0-3.14,1.46,1.46,0,0,1,1.45,1.57s0,.15,0,.2h-2.52a1.07,1.07,0,0,0,1.09,1,1.14,1.14,0,0,0,.93-.45l.28.28A1.48,1.48,0,0,1,150.16,141.47Zm-1.08-1.76h2.07a1,1,0,0,0-1-1A1.06,1.06,0,0,0,149.08,139.71Z"/><path class="cls-16" d="M153.69,137.57a.3.3,0,0,1,.59,0,.3.3,0,1,1-.59,0Zm.06,3.81v-3h.46v3Z"/><path class="cls-16" d="M157.56,138.42v3h-.46v-2.55h-1.51v2.55h-.46v-3Z"/><path class="cls-16" d="M74.58,146.83h-.34v-.41h.34v-.78H75v.78H76v.41H75V149h.82v.41H74.58Z"/><path class="cls-16" d="M77.84,146.42v.41H77v2.55h-.46v-3Z"/><path class="cls-16" d="M79.62,146.33a1.19,1.19,0,0,1,1.14.62h0a2.16,2.16,0,0,1,0-.31v-.22h.44v3h-.44v-.28a2.88,2.88,0,0,1,0-.32h0a1.19,1.19,0,0,1-1.15.69,1.57,1.57,0,0,1,0-3.14Zm1.13,1.57a1.11,1.11,0,1,0-1.11,1.15A1.1,1.1,0,0,0,80.75,147.9Z"/><path class="cls-16" d="M84.53,146.42v3h-.46v-2.55H82.56v2.55H82.1v-3Z"/><path class="cls-16" d="M86.17,147.61l.4.18a.86.86,0,0,1-.37,1.68,1,1,0,0,1-1-.77l.36-.2a.7.7,0,0,0,.71.56c.3,0,.51-.15.51-.44s-.14-.34-.45-.48l-.36-.17a.87.87,0,0,1-.64-.83.84.84,0,0,1,.92-.81,1,1,0,0,1,1,.67l-.34.19a.66.66,0,0,0-.64-.47.43.43,0,0,0-.48.41C85.74,147.35,85.88,147.47,86.17,147.61Z"/><path class="cls-16" d="M89.49,149.47a1.2,1.2,0,0,1-1.13-.58h0a2.16,2.16,0,0,1,0,.31v1.5H87.9v-4.28h.43v.21a2.54,2.54,0,0,1,0,.31h0a1.34,1.34,0,0,1,1.18-.61,1.57,1.57,0,0,1,0,3.14Zm-1.15-1.57a1.11,1.11,0,1,0,1.11-1.16A1.1,1.1,0,0,0,88.34,147.9Z"/><path class="cls-16" d="M91.49,147.9A1.56,1.56,0,1,1,93,149.47,1.52,1.52,0,0,1,91.49,147.9Zm2.65,0a1.09,1.09,0,1,0-2.18,0,1.09,1.09,0,1,0,2.18,0Z"/><path class="cls-16" d="M96.61,146.42v.41h-.86v2.55h-.46v-3Z"/><path class="cls-16" d="M97.25,146.83h-.34v-.41h.34v-.78h.46v.78h.91v.41h-.91V149h.82v.41H97.25Z"/><path class="cls-16" d="M100.47,146.33a1.19,1.19,0,0,1,1.14.62h0a2.55,2.55,0,0,1,0-.31v-.22H102v3h-.43v-.28a3.11,3.11,0,0,1,0-.32h0a1.2,1.2,0,0,1-1.15.69,1.57,1.57,0,0,1,0-3.14Zm1.13,1.57a1.11,1.11,0,1,0-1.11,1.15A1.1,1.1,0,0,0,101.6,147.9Z"/><path class="cls-16" d="M103.05,146.83h-.34v-.41h.34v-.78h.46v.78h.91v.41h-.91V149h.82v.41h-1.28Z"/><path class="cls-16" d="M104.92,145.57a.28.28,0,0,1,.29-.28.29.29,0,0,1,.3.28.29.29,0,0,1-.3.3A.29.29,0,0,1,104.92,145.57Zm.06,3.81v-3h.46v3Z"/><path class="cls-16" d="M106.13,147.9a1.56,1.56,0,1,1,1.56,1.57A1.53,1.53,0,0,1,106.13,147.9Zm2.65,0a1.09,1.09,0,1,0-1.09,1.15A1.09,1.09,0,0,0,108.78,147.9Z"/><path class="cls-16" d="M112.36,146.42v3h-.46v-2.55h-1.51v2.55h-.46v-3Z"/><path class="cls-16" d="M114.52,146.42h.34v-1.36h1.32v.4h-.86v1h.82v.41h-.82v2.55h-.46v-2.55h-.34Z"/><path class="cls-16" d="M118,146.42v.41h-.86v2.55h-.46v-3Z"/><path class="cls-16" d="M118.2,147.9a1.56,1.56,0,1,1,1.56,1.57A1.53,1.53,0,0,1,118.2,147.9Zm2.65,0a1.09,1.09,0,1,0-1.09,1.15A1.09,1.09,0,0,0,120.85,147.9Z"/><path class="cls-16" d="M126,149.38h-.46v-2a.65.65,0,0,0-.68-.68.64.64,0,0,0-.66.68v2h-.46v-2a.64.64,0,0,0-.66-.68.65.65,0,0,0-.68.68v2H122v-2a1.08,1.08,0,0,1,1.13-1.09,1,1,0,0,1,.91.49,1,1,0,0,1,.9-.49,1.06,1.06,0,0,1,1.12,1.09Z"/><path class="cls-16" d="M129.4,145.06h.6l1.5,4.32H131l-.4-1.19h-1.81l-.4,1.19h-.48Zm-.47,2.72h1.53l-.75-2.26h0Z"/><path class="cls-16" d="M136.07,149.38h-.46v-2a.67.67,0,1,0-1.33,0v2h-.46v-2a.67.67,0,1,0-1.34,0v2H132v-2a1.07,1.07,0,0,1,1.13-1.09,1,1,0,0,1,.9.49,1.1,1.1,0,0,1,2,.6Z"/><path class="cls-16" d="M138.28,149.47a1.57,1.57,0,0,1,0-3.14,1.47,1.47,0,0,1,1.46,1.57s0,.15,0,.2h-2.51a1.05,1.05,0,0,0,1.08,1,1.14,1.14,0,0,0,.93-.45l.27.28A1.45,1.45,0,0,1,138.28,149.47Zm-1.07-1.76h2.06a1,1,0,0,0-1-1A1,1,0,0,0,137.21,147.71Z"/><path class="cls-16" d="M140.46,146.83h-.34v-.41h.34v-.78h.46v.78h.91v.41h-.91V149h.82v.41h-1.28Z"/><path class="cls-16" d="M142.39,149.38v-4.32h.46v1.36h2v3h-.46v-2.55h-1.51v2.55Z"/><path class="cls-16" d="M146,150.29h1.68v-1a2.54,2.54,0,0,1,0-.3h0c-.06.17-.31.43-.85.43a1.11,1.11,0,0,1-1.11-1.18v-1.83h.46v1.82a.76.76,0,1,0,1.51,0v-1.82h.46v4.28H146Z"/><path class="cls-16" d="M149.75,147.61l.39.18a.86.86,0,0,1-.36,1.68,1,1,0,0,1-1-.77l.36-.2a.7.7,0,0,0,.7.56c.31,0,.52-.15.52-.44s-.14-.34-.45-.48l-.36-.17a.87.87,0,0,1-.64-.83.84.84,0,0,1,.92-.81,1,1,0,0,1,1,.67l-.34.19a.67.67,0,0,0-.64-.47.44.44,0,0,0-.49.41C149.31,147.35,149.45,147.47,149.75,147.61Z"/><path class="cls-16" d="M151.58,146.83h-.34v-.41h.34v-.78H152v.78H153v.41H152V149h.82v.41h-1.28Z"/><path class="cls-16" d="M153.25,147.9a1.56,1.56,0,1,1,1.56,1.57A1.53,1.53,0,0,1,153.25,147.9Zm2.65,0a1.09,1.09,0,1,0-1.09,1.15A1.09,1.09,0,0,0,155.9,147.9Z"/><path class="cls-16" d="M157,147h2v.4h-2Z"/><path class="cls-16" d="M76.07,157.47a1.2,1.2,0,0,1-1.13-.58h0a2.16,2.16,0,0,1,0,.31v1.5h-.46v-4.28h.43v.21a2.54,2.54,0,0,1,0,.31h0a1.32,1.32,0,0,1,1.18-.61,1.57,1.57,0,0,1,0,3.14Zm-1.15-1.57A1.11,1.11,0,1,0,76,154.74,1.1,1.1,0,0,0,74.92,155.9Z"/><path class="cls-16" d="M78.23,153.57a.28.28,0,0,1,.29-.28.28.28,0,0,1,.29.28.29.29,0,0,1-.29.3A.28.28,0,0,1,78.23,153.57Zm.06,3.81v-3h.46v3Z"/><path class="cls-16" d="M81,154.33a1.19,1.19,0,0,1,1.14.62h0c0-.08,0-.16,0-.31v-.22h.43v3h-.43v-.28c0-.13,0-.22,0-.32h0a1.19,1.19,0,0,1-1.15.69,1.48,1.48,0,0,1-1.53-1.57A1.5,1.5,0,0,1,81,154.33Zm1.13,1.57A1.11,1.11,0,1,0,81,157.05,1.1,1.1,0,0,0,82.12,155.9Z"/><path class="cls-16" d="M83.68,153.8l-.23.54-.22-.08.22-.53a1.46,1.46,0,0,0,.07-.19.29.29,0,0,1-.26-.3.29.29,0,1,1,.58,0A1.39,1.39,0,0,1,83.68,153.8Z"/><path class="cls-16" d="M85.08,155.61l.39.18a.88.88,0,0,1,.64.83c0,.5-.39.85-1,.85a1,1,0,0,1-1-.77l.36-.2a.7.7,0,0,0,.7.56c.31,0,.52-.15.52-.44s-.14-.34-.45-.48l-.36-.17c-.38-.17-.65-.39-.65-.83a.85.85,0,0,1,.93-.81,1,1,0,0,1,1,.67l-.34.19a.67.67,0,0,0-.64-.47.44.44,0,0,0-.49.41C84.64,155.35,84.78,155.47,85.08,155.61Z"/><path class="cls-16" d="M89.88,157.47a1.2,1.2,0,0,1-1.13-.58h0a2.16,2.16,0,0,1,0,.31v1.5h-.46v-4.28h.43v.21a2.54,2.54,0,0,1,0,.31h0a1.34,1.34,0,0,1,1.19-.61,1.57,1.57,0,0,1,0,3.14Zm-1.15-1.57a1.11,1.11,0,1,0,1.11-1.16A1.1,1.1,0,0,0,88.73,155.9Z"/><path class="cls-16" d="M93.42,154.42v.41h-.86v2.55H92.1v-3Z"/><path class="cls-16" d="M95.21,157.47a1.57,1.57,0,0,1,0-3.14,1.46,1.46,0,0,1,1.45,1.57,1.34,1.34,0,0,1,0,.2H94.14a1.05,1.05,0,0,0,1.08,1,1.14,1.14,0,0,0,.94-.45l.27.28A1.48,1.48,0,0,1,95.21,157.47Zm-1.07-1.76H96.2a1,1,0,0,0-1-1A1,1,0,0,0,94.14,155.71Z"/><path class="cls-16" d="M101.34,157.38h-.46v-2a.65.65,0,0,0-.68-.68.64.64,0,0,0-.66.68v2h-.46v-2a.64.64,0,0,0-.66-.68.65.65,0,0,0-.68.68v2h-.46v-2a1.07,1.07,0,0,1,1.13-1.09,1,1,0,0,1,.91.49,1,1,0,0,1,.9-.49,1.06,1.06,0,0,1,1.12,1.09Z"/><path class="cls-16" d="M102.15,153.57a.28.28,0,0,1,.29-.28.28.28,0,0,1,.29.28.29.29,0,0,1-.29.3A.28.28,0,0,1,102.15,153.57Zm.06,3.81v-3h.46v3Z"/><path class="cls-16" d="M104.92,157.47a1.57,1.57,0,0,1,0-3.14,1.47,1.47,0,0,1,1.46,1.57s0,.15,0,.2h-2.52a1.05,1.05,0,0,0,1.08,1,1.14,1.14,0,0,0,.94-.45l.27.28A1.47,1.47,0,0,1,104.92,157.47Zm-1.08-1.76h2.07a1,1,0,0,0-1-1A1.06,1.06,0,0,0,103.84,155.71Z"/><path class="cls-16" d="M108.35,154.42v.41h-.86v2.55H107v-3Z"/><path class="cls-16" d="M110.14,157.47a1.57,1.57,0,0,1,0-3.14,1.47,1.47,0,0,1,1.46,1.57s0,.15,0,.2h-2.52a1.05,1.05,0,0,0,1.08,1,1.14,1.14,0,0,0,.94-.45l.27.28A1.45,1.45,0,0,1,110.14,157.47Zm-1.08-1.76h2.07a1,1,0,0,0-1-1A1.06,1.06,0,0,0,109.06,155.71Z"/><path class="cls-16" d="M113.84,154.83h-.34v-.41h.34v-.78h.46v.78h.91v.41h-.91V157h.82v.41h-1.28Z"/><path class="cls-16" d="M117.06,157.47a1.57,1.57,0,0,1,0-3.14,1.46,1.46,0,0,1,1.45,1.57,1.34,1.34,0,0,1,0,.2H116a1.05,1.05,0,0,0,1.08,1,1.16,1.16,0,0,0,.94-.45l.27.28A1.48,1.48,0,0,1,117.06,157.47ZM116,155.71h2.06a1,1,0,0,0-1-1A1,1,0,0,0,116,155.71Z"/><path class="cls-16" d="M121.44,155.22a1.1,1.1,0,0,0-.92-.48,1.16,1.16,0,0,0,0,2.31,1.11,1.11,0,0,0,.94-.51l.28.27a1.42,1.42,0,0,1-1.22.66,1.57,1.57,0,0,1,0-3.14,1.48,1.48,0,0,1,1.21.61Z"/><path class="cls-16" d="M122.33,157.38v-4.32h.46v1.36h2v3h-.46v-2.55h-1.51v2.55Z"/><path class="cls-16" d="M128.1,154.42v3h-.46v-2.55h-1.51v2.55h-.46v-3Z"/><path class="cls-16" d="M128.94,153.57a.3.3,0,0,1,.59,0,.3.3,0,1,1-.59,0Zm.06,3.81v-3h.46v3Z"/><path class="cls-16" d="M132.65,155.22a1.12,1.12,0,0,0-.93-.48,1.16,1.16,0,0,0,0,2.31,1.13,1.13,0,0,0,.95-.51l.28.27a1.44,1.44,0,0,1-1.23.66,1.57,1.57,0,0,1,0-3.14,1.45,1.45,0,0,1,1.21.61Z"/><path class="cls-16" d="M134.85,154.33A1.22,1.22,0,0,1,136,155h0a2.55,2.55,0,0,1,0-.31v-.22h.43v3H136v-.28a3.11,3.11,0,0,1,0-.32h0a1.2,1.2,0,0,1-1.15.69,1.57,1.57,0,0,1,0-3.14ZM136,155.9a1.1,1.1,0,1,0-1.11,1.15A1.1,1.1,0,0,0,136,155.9Z"/><path class="cls-16" d="M137.33,153.06h.46V157h.85v.41h-1.31Z"/><path class="cls-16" d="M76.74,163.22a1.13,1.13,0,1,0-.92,1.83,1.13,1.13,0,0,0,1-.51l.28.27a1.44,1.44,0,0,1-1.23.66,1.57,1.57,0,0,1,0-3.14,1.45,1.45,0,0,1,1.21.61Z"/><path class="cls-16" d="M77.39,163.9A1.56,1.56,0,1,1,79,165.47,1.53,1.53,0,0,1,77.39,163.9Zm2.65,0A1.09,1.09,0,1,0,79,165.05,1.09,1.09,0,0,0,80,163.9Z"/><path class="cls-16" d="M81.19,161.06h.46V165h.86v.41H81.19Z"/><path class="cls-16" d="M83,161.06h.46V165h.85v.41H83Z"/><path class="cls-16" d="M86.09,165.47a1.57,1.57,0,0,1,0-3.14,1.47,1.47,0,0,1,1.46,1.57s0,.15,0,.2H85a1.05,1.05,0,0,0,1.08,1,1.14,1.14,0,0,0,.94-.45l.27.28A1.47,1.47,0,0,1,86.09,165.47ZM85,163.71h2.07a1,1,0,0,0-1-1A1.06,1.06,0,0,0,85,163.71Z"/><path class="cls-16" d="M89.45,162.33a1.21,1.21,0,0,1,1.16.62h0a2.82,2.82,0,0,1,0-.31v-.22H91v4.28H88.83v-.41h1.75v-1.22a2.73,2.73,0,0,1,0-.32h0a1.13,1.13,0,0,1-1.11.63,1.53,1.53,0,0,1,0-3Zm-1,1.52a1.08,1.08,0,1,0,1.08-1.11A1.06,1.06,0,0,0,88.45,163.85Z"/><path class="cls-16" d="M93.29,165.47a1.57,1.57,0,0,1,0-3.14,1.47,1.47,0,0,1,1.46,1.57,1.36,1.36,0,0,1,0,.2H92.21a1.05,1.05,0,0,0,1.08,1,1.14,1.14,0,0,0,.94-.45l.27.28A1.47,1.47,0,0,1,93.29,165.47Zm-1.08-1.76h2.07a1,1,0,0,0-1-1A1.06,1.06,0,0,0,92.21,163.71Z"/><path class="cls-16" d="M95.54,165.7l-.25.56-.2-.08.21-.55c0-.07.06-.13.08-.19a.29.29,0,0,1-.25-.31.28.28,0,0,1,.28-.29.27.27,0,0,1,.29.3A1.43,1.43,0,0,1,95.54,165.7Z"/><path class="cls-16" d="M99.89,164.28l-1.37-2.43h0v3.53H98v-4.32h.59l1.49,2.66h0l1.47-2.66h.57v4.32h-.47v-3.53h0l-1.37,2.43Z"/><path class="cls-16" d="M103.06,161.57a.3.3,0,0,1,.59,0,.3.3,0,1,1-.59,0Zm.06,3.81v-3h.46v3Z"/><path class="cls-16" d="M106.93,162.42v3h-.46v-2.55H105v2.55h-.46v-3Z"/><path class="cls-16" d="M109.15,162.33a1.29,1.29,0,0,1,1.13.55h0a2.16,2.16,0,0,1,0-.31v-1.51h.46v4.32h-.43v-.25a2.41,2.41,0,0,1,0-.31h0a1.23,1.23,0,0,1-1.16.65,1.57,1.57,0,0,1,0-3.14Zm1.15,1.57a1.11,1.11,0,1,0-1.1,1.15A1.09,1.09,0,0,0,110.3,163.9Z"/><path class="cls-16" d="M111.59,161.57a.28.28,0,0,1,.29-.28.28.28,0,0,1,.29.28.29.29,0,0,1-.29.3A.28.28,0,0,1,111.59,161.57Zm.06,3.81v-3h.46v3Z"/><path class="cls-16" d="M114.28,162.33a1.21,1.21,0,0,1,1.16.62h0a2.82,2.82,0,0,1,0-.31v-.22h.42v4.28h-2.21v-.41h1.75v-1.22a2.73,2.73,0,0,1,0-.32h0a1.13,1.13,0,0,1-1.11.63,1.53,1.53,0,0,1,0-3Zm-1,1.52a1.08,1.08,0,1,0,1.07-1.11A1.06,1.06,0,0,0,113.28,163.85Z"/><path class="cls-16" d="M116.56,163.9a1.56,1.56,0,1,1,1.56,1.57A1.52,1.52,0,0,1,116.56,163.9Zm2.65,0a1.09,1.09,0,1,0-1.09,1.15A1.09,1.09,0,0,0,119.21,163.9Z"/><path class="cls-16" d="M123.14,162.33a1.24,1.24,0,0,1,1.17.62h0a2.41,2.41,0,0,1,0-.31v-.22h.43v4.28h-.45v-1.57a2.91,2.91,0,0,1,0-.31h0a1.16,1.16,0,0,1-1.13.65,1.57,1.57,0,0,1,0-3.14Zm-1,1.57a1.1,1.1,0,0,0,1.11,1.15,1.16,1.16,0,0,0,0-2.31A1.11,1.11,0,0,0,122.09,163.9Z"/><path class="cls-16" d="M125.65,165.38v-3h.46V165h1.47v-2.55h.47v3Z"/><path class="cls-16" d="M128.89,161.57a.28.28,0,0,1,.29-.28.29.29,0,0,1,.3.28.29.29,0,0,1-.3.3A.29.29,0,0,1,128.89,161.57Zm.06,3.81v-3h.46v3Z"/><path class="cls-16" d="M132.59,163.22a1.13,1.13,0,1,0-.92,1.83,1.13,1.13,0,0,0,1-.51l.28.27a1.44,1.44,0,0,1-1.23.66,1.57,1.57,0,0,1,0-3.14,1.46,1.46,0,0,1,1.21.61Z"/><path class="cls-16" d="M133.49,161.06H134v2.63h.3a.9.9,0,0,0,1-.95,1.94,1.94,0,0,0,0-.33h.47a3.33,3.33,0,0,1,0,.34,1.25,1.25,0,0,1-.68,1.19l.84,1.43h-.54l-.74-1.29c-.11,0-.22,0-.34,0l-.32,0v1.28h-.46Z"/><path class="cls-16" d="M136.51,161.06H137V165h.85v.41h-1.31Z"/><path class="cls-16" d="M138.51,166.29h1.68v-1a2.54,2.54,0,0,1,0-.3h0c-.06.17-.31.43-.85.43a1.11,1.11,0,0,1-1.11-1.18v-1.83h.46v1.82a.76.76,0,1,0,1.51,0v-1.82h.46v4.28h-2.14Z"/><path class="cls-16" d="M144.36,162.42v.41h-.86v2.55H143v-3Z"/><path class="cls-16" d="M144.59,163.9a1.56,1.56,0,1,1,1.56,1.57A1.53,1.53,0,0,1,144.59,163.9Zm2.65,0a1.09,1.09,0,1,0-1.09,1.15A1.09,1.09,0,0,0,147.24,163.9Z"/><path class="cls-16" d="M148.39,161.06h.46V165h.86v.41h-1.32Z"/><path class="cls-16" d="M150.21,161.06h.46V165h.85v.41h-1.31Z"/><path class="cls-16" d="M153.29,165.47a1.57,1.57,0,0,1,0-3.14,1.47,1.47,0,0,1,1.46,1.57s0,.15,0,.2h-2.52a1.05,1.05,0,0,0,1.08,1,1.14,1.14,0,0,0,.94-.45l.27.28A1.47,1.47,0,0,1,153.29,165.47Zm-1.08-1.76h2.07a1,1,0,0,0-1-1A1.06,1.06,0,0,0,152.21,163.71Z"/><path class="cls-16" d="M156.71,162.33a1.28,1.28,0,0,1,1.13.55h0a2.55,2.55,0,0,1,0-.31v-1.51h.45v4.32h-.42v-.25a2.73,2.73,0,0,1,0-.31h0a1.25,1.25,0,0,1-1.17.65,1.57,1.57,0,0,1,0-3.14Zm1.16,1.57a1.11,1.11,0,1,0-1.11,1.15A1.1,1.1,0,0,0,157.87,163.9Z"/><path class="cls-16" d="M74.48,173.38v-3h.46V173h1.47v-2.55h.46v3Z"/><path class="cls-16" d="M79.37,173.47a1.2,1.2,0,0,1-1.13-.58h0a2.16,2.16,0,0,1,0,.31v1.5h-.46v-4.28h.43v.21a2.54,2.54,0,0,1,0,.31h0a1.34,1.34,0,0,1,1.18-.61,1.57,1.57,0,0,1,0,3.14Zm-1.15-1.57a1.11,1.11,0,1,0,1.11-1.16A1.1,1.1,0,0,0,78.22,171.9Z"/><path class="cls-16" d="M83.18,170.83h-.34v-.41h.34v-.78h.46v.78h.91v.41h-.91V173h.82v.41H83.18Z"/><path class="cls-16" d="M85.11,173.38v-4.32h.46v1.36h2v3h-.46v-2.55H85.57v2.55Z"/><path class="cls-16" d="M89.77,170.42v.41H88.9v2.55h-.46v-3Z"/><path class="cls-16" d="M90,171.9a1.56,1.56,0,1,1,1.56,1.57A1.52,1.52,0,0,1,90,171.9Zm2.65,0a1.09,1.09,0,1,0-1.09,1.15A1.09,1.09,0,0,0,92.65,171.9Z"/><path class="cls-16" d="M93.8,173.38v-3h.46V173h1.47v-2.55h.46v3Z"/><path class="cls-16" d="M98.35,170.33a1.21,1.21,0,0,1,1.16.62h0c0-.09,0-.18,0-.31v-.22H100v4.28H97.73v-.41h1.76v-1.22a3,3,0,0,1,0-.32h0a1.16,1.16,0,0,1-1.12.63,1.53,1.53,0,0,1,0-3Zm-1,1.52a1.08,1.08,0,1,0,1.08-1.11A1.06,1.06,0,0,0,97.35,171.85Z"/><path class="cls-16" d="M100.85,173.38v-4.32h.46v1.36h2v3h-.46v-2.55h-1.51v2.55Z"/><path class="cls-16" d="M107.94,171.22a1.1,1.1,0,0,0-.92-.48,1.16,1.16,0,0,0,0,2.31,1.13,1.13,0,0,0,.94-.51l.28.27a1.42,1.42,0,0,1-1.22.66,1.57,1.57,0,0,1,0-3.14,1.48,1.48,0,0,1,1.21.61Z"/><path class="cls-16" d="M108.59,171.9a1.56,1.56,0,1,1,1.56,1.57A1.52,1.52,0,0,1,108.59,171.9Zm2.65,0a1.09,1.09,0,1,0-1.09,1.15A1.09,1.09,0,0,0,111.24,171.9Z"/><path class="cls-16" d="M116.4,173.38h-.46v-2a.67.67,0,1,0-1.33,0v2h-.46v-2a.67.67,0,1,0-1.34,0v2h-.46v-2a1.07,1.07,0,0,1,1.12-1.09,1,1,0,0,1,.91.49,1,1,0,0,1,.91-.49,1.05,1.05,0,0,1,1.11,1.09Z"/><path class="cls-16" d="M118.87,173.47a1.23,1.23,0,0,1-1.14-.58h0a2.55,2.55,0,0,1,0,.31v1.5h-.46v-4.28h.44v.21a2.54,2.54,0,0,1,0,.31h0a1.32,1.32,0,0,1,1.18-.61,1.57,1.57,0,0,1,0,3.14Zm-1.15-1.57a1.11,1.11,0,1,0,1.11-1.16A1.09,1.09,0,0,0,117.72,171.9Z"/><path class="cls-16" d="M122.42,170.33a1.19,1.19,0,0,1,1.13.62h0a2.16,2.16,0,0,1,0-.31v-.22H124v3h-.44v-.28a2.88,2.88,0,0,1,0-.32h0a1.19,1.19,0,0,1-1.15.69,1.49,1.49,0,0,1-1.53-1.57A1.5,1.5,0,0,1,122.42,170.33Zm1.12,1.57a1.11,1.11,0,1,0-1.11,1.15A1.1,1.1,0,0,0,123.54,171.9Z"/><path class="cls-16" d="M127.32,170.42v3h-.46v-2.55h-1.51v2.55h-.46v-3Z"/><path class="cls-16" d="M128.48,174.29h1.67v-1c0-.13,0-.22,0-.3h0c-.06.17-.31.43-.85.43a1.11,1.11,0,0,1-1.11-1.18v-1.83h.46v1.82a.76.76,0,1,0,1.51,0v-1.82h.46v4.28h-2.13Z"/><path class="cls-16" d="M134.32,170.42v.41h-.86v2.55H133v-3Z"/><path class="cls-16" d="M136.11,170.33a1.19,1.19,0,0,1,1.14.62h0c0-.08,0-.16,0-.31v-.22h.43v3h-.43v-.28c0-.13,0-.22,0-.32h0a1.19,1.19,0,0,1-1.15.69,1.49,1.49,0,0,1-1.54-1.57A1.51,1.51,0,0,1,136.11,170.33Zm1.13,1.57a1.11,1.11,0,1,0-1.11,1.15A1.1,1.1,0,0,0,137.24,171.9Z"/><path class="cls-16" d="M141,170.42v3h-.46v-2.55h-1.51v2.55h-.46v-3Z"/><path class="cls-16" d="M141.92,169.06h.46v2.63h.3a.91.91,0,0,0,1-.95c0-.11,0-.2,0-.33h.46a3,3,0,0,1,0,.34,1.24,1.24,0,0,1-.69,1.19l.84,1.43h-.53l-.75-1.29a3.31,3.31,0,0,1-.34,0l-.32,0v1.28h-.46Z"/><path class="cls-16" d="M145.68,171.61l.39.18a.88.88,0,0,1,.64.83c0,.5-.39.85-1,.85a1,1,0,0,1-1-.77l.36-.2a.7.7,0,0,0,.7.56c.31,0,.52-.15.52-.44s-.14-.34-.45-.48l-.36-.17c-.38-.17-.65-.39-.65-.83a.85.85,0,0,1,.92-.81,1,1,0,0,1,1,.67l-.35.19a.65.65,0,0,0-.63-.47.44.44,0,0,0-.49.41C145.24,171.35,145.38,171.47,145.68,171.61Z"/><path class="cls-16" d="M74.24,178.42h.35v-1.36H75.9v.4h-.85v1h.82v.41h-.82v2.55h-.46v-2.55h-.35Z"/><path class="cls-16" d="M77.7,178.42v.41h-.87v2.55h-.45v-3Z"/><path class="cls-16" d="M77.93,179.9a1.56,1.56,0,1,1,1.56,1.57A1.52,1.52,0,0,1,77.93,179.9Zm2.65,0a1.09,1.09,0,1,0-1.09,1.15A1.09,1.09,0,0,0,80.58,179.9Z"/><path class="cls-16" d="M85.74,181.38h-.46v-2a.67.67,0,1,0-1.33,0v2h-.46v-2a.67.67,0,1,0-1.34,0v2h-.46v-2a1.07,1.07,0,0,1,1.13-1.09,1,1,0,0,1,.9.49,1.1,1.1,0,0,1,2,.6Z"/><path class="cls-16" d="M90.37,179.22a1.12,1.12,0,0,0-.92-.48,1.16,1.16,0,0,0,0,2.31,1.13,1.13,0,0,0,.94-.51l.28.27a1.43,1.43,0,0,1-1.22.66,1.57,1.57,0,0,1,0-3.14,1.45,1.45,0,0,1,1.2.61Z"/><path class="cls-16" d="M92.57,178.33a1.22,1.22,0,0,1,1.14.62h0a2.55,2.55,0,0,1,0-.31v-.22h.43v3h-.43v-.28a3.11,3.11,0,0,1,0-.32h0a1.2,1.2,0,0,1-1.15.69,1.57,1.57,0,0,1,0-3.14Zm1.13,1.57a1.11,1.11,0,1,0-1.12,1.15A1.1,1.1,0,0,0,93.7,179.9Z"/><path class="cls-16" d="M96.37,178.42v.41h-.86v2.55h-.46v-3Z"/><path class="cls-16" d="M98.09,178.33a1.22,1.22,0,0,1,1.16.62h0a2.82,2.82,0,0,1,0-.31v-.22h.42v4.28H97.47v-.41h1.75v-1.22a2.73,2.73,0,0,1,0-.32h0a1.15,1.15,0,0,1-1.11.63,1.53,1.53,0,0,1,0-3Zm-1,1.52a1.08,1.08,0,1,0,1.07-1.11A1.06,1.06,0,0,0,97.09,179.85Z"/><path class="cls-16" d="M100.36,179.9a1.56,1.56,0,1,1,1.56,1.57A1.53,1.53,0,0,1,100.36,179.9Zm2.66,0a1.09,1.09,0,1,0-2.18,0,1.09,1.09,0,1,0,2.18,0Z"/><path class="cls-16" d="M105.65,181.38v-4.32h.46v1.36h2v3h-.46v-2.55h-1.51v2.55Z"/><path class="cls-16" d="M110.31,178.33a1.19,1.19,0,0,1,1.14.62h0c0-.08,0-.16,0-.31v-.22h.43v3h-.43v-.28c0-.13,0-.22,0-.32h0a1.19,1.19,0,0,1-1.15.69,1.48,1.48,0,0,1-1.53-1.57A1.5,1.5,0,0,1,110.31,178.33Zm1.13,1.57a1.11,1.11,0,1,0-1.11,1.15A1.1,1.1,0,0,0,111.44,179.9Z"/><path class="cls-16" d="M112.79,181.38v-3h.46V181h1.47v-2.55h.46v3Z"/><path class="cls-16" d="M116.09,177.06h.46V181h.85v.41h-1.31Z"/><path class="cls-16" d="M119.17,181.47a1.57,1.57,0,0,1,0-3.14,1.47,1.47,0,0,1,1.46,1.57s0,.15,0,.2h-2.52a1.05,1.05,0,0,0,1.08,1,1.14,1.14,0,0,0,.94-.45l.27.28A1.47,1.47,0,0,1,119.17,181.47Zm-1.08-1.76h2.07a1,1,0,0,0-1-1A1.06,1.06,0,0,0,118.09,179.71Z"/><path class="cls-16" d="M122.6,178.42v.41h-.86v2.55h-.46v-3Z"/><path class="cls-16" d="M124.57,178.83h-.34v-.41h.34v-.78H125v.78h.91v.41H125V181h.83v.41h-1.29Z"/><path class="cls-16" d="M126.24,179.9a1.56,1.56,0,1,1,1.56,1.57A1.53,1.53,0,0,1,126.24,179.9Zm2.65,0a1.09,1.09,0,1,0-1.09,1.15A1.09,1.09,0,0,0,128.89,179.9Z"/><path class="cls-16" d="M133.79,179.22a1.16,1.16,0,1,0,0,1.32l.29.27a1.44,1.44,0,0,1-1.23.66,1.57,1.57,0,0,1,0-3.14,1.46,1.46,0,0,1,1.21.61Z"/><path class="cls-16" d="M134.44,179.9a1.56,1.56,0,1,1,1.56,1.57A1.53,1.53,0,0,1,134.44,179.9Zm2.65,0a1.09,1.09,0,1,0-1.09,1.15A1.09,1.09,0,0,0,137.09,179.9Z"/><path class="cls-16" d="M140.67,178.42v3h-.46v-2.55H138.7v2.55h-.46v-3Z"/><path class="cls-16" d="M142.34,181.38l-1.12-3h.52l.89,2.55h0l.9-2.55h.5l-1.11,3Z"/><path class="cls-16" d="M145.87,181.47a1.57,1.57,0,0,1,0-3.14,1.47,1.47,0,0,1,1.46,1.57,1.36,1.36,0,0,1,0,.2h-2.51a1.05,1.05,0,0,0,1.08,1,1.14,1.14,0,0,0,.94-.45l.27.28A1.47,1.47,0,0,1,145.87,181.47Zm-1.08-1.76h2.07a1,1,0,0,0-1-1A1.06,1.06,0,0,0,144.79,179.71Z"/><path class="cls-16" d="M148.22,182.29h1.68v-1a2.54,2.54,0,0,1,0-.3h0c-.06.17-.31.43-.85.43a1.11,1.11,0,0,1-1.11-1.18v-1.83h.46v1.82a.76.76,0,1,0,1.51,0v-1.82h.46v4.28h-2.14Z"/><path class="cls-16" d="M151.18,179h2v.4h-2Z"/><path class="cls-16" d="M75.81,186.33A1.22,1.22,0,0,1,77,187h0a2.55,2.55,0,0,1,0-.31v-.22h.43v3H77v-.28a3.11,3.11,0,0,1,0-.32h0a1.22,1.22,0,0,1-1.16.69,1.49,1.49,0,0,1-1.53-1.57A1.5,1.5,0,0,1,75.81,186.33Zm1.12,1.57a1.11,1.11,0,1,0-1.11,1.15A1.1,1.1,0,0,0,76.93,187.9Z"/><path class="cls-16" d="M80.71,186.42v3h-.46v-2.55H78.74v2.55h-.46v-3Z"/><path class="cls-16" d="M83.89,187.22a1.12,1.12,0,0,0-.92-.48,1.16,1.16,0,0,0,0,2.31,1.13,1.13,0,0,0,.94-.51l.28.27a1.43,1.43,0,0,1-1.22.66,1.57,1.57,0,1,1,0-3.14,1.45,1.45,0,0,1,1.2.61Z"/><path class="cls-16" d="M86.09,189.47a1.57,1.57,0,0,1,0-3.14,1.46,1.46,0,0,1,1.45,1.57,1.34,1.34,0,0,1,0,.2H85a1.05,1.05,0,0,0,1.08,1,1.14,1.14,0,0,0,.94-.45l.27.28A1.48,1.48,0,0,1,86.09,189.47ZM85,187.71h2.06a1,1,0,0,0-1-1A1,1,0,0,0,85,187.71Z"/><path class="cls-16" d="M90.42,187.61l.39.18a.86.86,0,0,1-.36,1.68,1,1,0,0,1-1-.77l.36-.2a.7.7,0,0,0,.7.56c.31,0,.52-.15.52-.44s-.14-.34-.45-.48l-.36-.17a.87.87,0,0,1-.64-.83.84.84,0,0,1,.92-.81,1,1,0,0,1,1,.67l-.34.19a.66.66,0,0,0-.64-.47.43.43,0,0,0-.48.41C90,187.35,90.12,187.47,90.42,187.61Z"/><path class="cls-16" d="M93.48,186.33a1.22,1.22,0,0,1,1.14.62h0a2.55,2.55,0,0,1,0-.31v-.22h.43v3h-.43v-.28a3.11,3.11,0,0,1,0-.32h0a1.22,1.22,0,0,1-1.16.69,1.49,1.49,0,0,1-1.53-1.57A1.5,1.5,0,0,1,93.48,186.33Zm1.12,1.57a1.11,1.11,0,1,0-1.11,1.15A1.1,1.1,0,0,0,94.6,187.9Z"/><path class="cls-16" d="M96.72,189.38l-1.12-3h.52L97,189h0l.9-2.55h.5l-1.11,3Z"/><path class="cls-16" d="M100.24,186.33a1.19,1.19,0,0,1,1.14.62h0c0-.08,0-.16,0-.31v-.22h.43v3h-.43v-.28c0-.13,0-.22,0-.32h0a1.19,1.19,0,0,1-1.15.69,1.48,1.48,0,0,1-1.53-1.57A1.5,1.5,0,0,1,100.24,186.33Zm1.13,1.57a1.11,1.11,0,1,0-1.11,1.15A1.1,1.1,0,0,0,101.37,187.9Z"/><path class="cls-16" d="M105.15,186.42v3h-.46v-2.55h-1.51v2.55h-.46v-3Z"/><path class="cls-16" d="M106.16,186.83h-.34v-.41h.34v-.78h.46v.78h.91v.41h-.91V189h.82v.41h-1.28Z"/><path class="cls-16" d="M107.94,189.13a.29.29,0,1,1,.29.29A.29.29,0,0,1,107.94,189.13Z"/><path class="cls-16" d="M111.75,186.77l.66.4a1.3,1.3,0,0,1,.8,1.13,1.17,1.17,0,0,1-1.31,1.17,1.32,1.32,0,0,1-1.38-1.26l.43-.12a1,1,0,0,0,1,.95.72.72,0,0,0,.81-.72c0-.29-.16-.54-.57-.77l-.62-.37c-.49-.28-.85-.55-.85-1.15a1.08,1.08,0,0,1,1.2-1.06,1.2,1.2,0,0,1,1.28,1l-.41.12a.85.85,0,0,0-.89-.71.63.63,0,0,0-.71.62C111.16,186.37,111.36,186.56,111.75,186.77Z"/><path class="cls-16" d="M114,189.38v-4.32h.46v1.36h2v3h-.46v-2.55h-1.5v2.55Z"/><path class="cls-16" d="M118.62,189.47a1.57,1.57,0,0,1,0-3.14,1.47,1.47,0,0,1,1.46,1.57,1.36,1.36,0,0,1,0,.2h-2.51a1.05,1.05,0,0,0,1.08,1,1.14,1.14,0,0,0,.94-.45l.27.28A1.47,1.47,0,0,1,118.62,189.47Zm-1.08-1.76h2.07a1,1,0,0,0-1-1A1.06,1.06,0,0,0,117.54,187.71Z"/><path class="cls-16" d="M122.15,185.57a.28.28,0,0,1,.29-.28.28.28,0,0,1,.29.28.29.29,0,0,1-.29.3A.28.28,0,0,1,122.15,185.57Zm.06,3.81v-3h.46v3Z"/><path class="cls-16" d="M124.32,187.61l.39.18a.88.88,0,0,1,.64.83c0,.5-.39.85-1,.85a1,1,0,0,1-1-.77l.36-.2a.7.7,0,0,0,.7.56c.31,0,.52-.15.52-.44s-.14-.34-.45-.48l-.36-.17c-.38-.17-.65-.39-.65-.83a.85.85,0,0,1,.92-.81,1,1,0,0,1,1,.67l-.35.19a.65.65,0,0,0-.63-.47.44.44,0,0,0-.49.41C123.88,187.35,124,187.47,124.32,187.61Z"/><path class="cls-16" d="M128.85,186.42v.41H128v2.55h-.46v-3Z"/><path class="cls-16" d="M130.64,189.47a1.57,1.57,0,0,1,0-3.14,1.47,1.47,0,0,1,1.46,1.57s0,.15,0,.2h-2.52a1.05,1.05,0,0,0,1.08,1,1.14,1.14,0,0,0,.94-.45l.27.28A1.45,1.45,0,0,1,130.64,189.47Zm-1.08-1.76h2.07a1,1,0,0,0-1-1A1.06,1.06,0,0,0,129.56,187.71Z"/><path class="cls-16" d="M135,187.22a1.12,1.12,0,0,0-.93-.48,1.16,1.16,0,0,0,0,2.31,1.13,1.13,0,0,0,.95-.51l.28.27a1.44,1.44,0,0,1-1.23.66,1.57,1.57,0,0,1,0-3.14,1.45,1.45,0,0,1,1.21.61Z"/><path class="cls-16" d="M135.85,185.57a.28.28,0,0,1,.29-.28.28.28,0,0,1,.29.28.29.29,0,0,1-.29.3A.28.28,0,0,1,135.85,185.57Zm.06,3.81v-3h.46v3Z"/><path class="cls-16" d="M138.88,189.47a1.2,1.2,0,0,1-1.13-.58h0a2.16,2.16,0,0,1,0,.31v1.5h-.46v-4.28h.43v.21a2.54,2.54,0,0,1,0,.31h0a1.32,1.32,0,0,1,1.18-.61,1.57,1.57,0,0,1,0,3.14Zm-1.15-1.57a1.11,1.11,0,1,0,1.11-1.16A1.09,1.09,0,0,0,137.73,187.9Z"/><path class="cls-16" d="M141,185.57a.3.3,0,1,1,.3.3A.29.29,0,0,1,141,185.57Zm.07,3.81v-3h.46v3Z"/><path class="cls-16" d="M143.81,189.47a1.57,1.57,0,0,1,0-3.14,1.47,1.47,0,0,1,1.46,1.57,1.36,1.36,0,0,1,0,.2h-2.51a1.05,1.05,0,0,0,1.08,1,1.14,1.14,0,0,0,.94-.45l.27.28A1.47,1.47,0,0,1,143.81,189.47Zm-1.08-1.76h2.06a1,1,0,0,0-1-1A1,1,0,0,0,142.73,187.71Z"/><path class="cls-16" d="M148.34,186.42v3h-.46v-2.55h-1.5v2.55h-.46v-3Z"/><path class="cls-16" d="M149.35,186.83H149v-.41h.34v-.78h.46v.78h.91v.41h-.91V189h.83v.41h-1.29Z"/><path class="cls-16" d="M152.54,187.9a1.56,1.56,0,1,1,1.56,1.57A1.53,1.53,0,0,1,152.54,187.9Zm2.66,0a1.09,1.09,0,1,0-2.18,0,1.09,1.09,0,1,0,2.18,0Z"/><path class="cls-16" d="M156.07,186.42h.35v-1.36h1.31v.4h-.85v1h.82v.41h-.82v2.55h-.46v-2.55h-.35Z"/><path class="cls-16" d="M74.58,194.83h-.34v-.41h.34v-.78H75v.78H76v.41H75V197h.82v.41H74.58Z"/><path class="cls-16" d="M76.51,197.38v-4.32H77v1.36h2v3h-.46v-2.55H77v2.55Z"/><path class="cls-16" d="M81.18,197.47a1.57,1.57,0,0,1,0-3.14,1.46,1.46,0,0,1,1.45,1.57,1.34,1.34,0,0,1,0,.2H80.11a1.05,1.05,0,0,0,1.08,1,1.14,1.14,0,0,0,.94-.45l.27.28A1.48,1.48,0,0,1,81.18,197.47Zm-1.07-1.76h2.06a1,1,0,0,0-1-1A1,1,0,0,0,80.11,195.71Z"/><path class="cls-16" d="M87,195.22a1.13,1.13,0,1,0-.92,1.83,1.13,1.13,0,0,0,.95-.51l.28.27a1.44,1.44,0,0,1-1.23.66,1.57,1.57,0,0,1,0-3.14,1.46,1.46,0,0,1,1.21.61Z"/><path class="cls-16" d="M87.69,195.9a1.56,1.56,0,1,1,1.56,1.57A1.53,1.53,0,0,1,87.69,195.9Zm2.65,0a1.09,1.09,0,1,0-1.09,1.15A1.09,1.09,0,0,0,90.34,195.9Z"/><path class="cls-16" d="M92.18,197.38l-1.11-3h.51l.89,2.55h0l.9-2.55h.5l-1.11,3Z"/><path class="cls-16" d="M95.71,197.47a1.57,1.57,0,0,1,0-3.14,1.47,1.47,0,0,1,1.46,1.57s0,.15,0,.2H94.63a1.05,1.05,0,0,0,1.08,1,1.14,1.14,0,0,0,.94-.45l.27.28A1.47,1.47,0,0,1,95.71,197.47Zm-1.08-1.76H96.7a1,1,0,0,0-1-1A1.06,1.06,0,0,0,94.63,195.71Z"/><path class="cls-16" d="M97.89,194.83h-.34v-.41h.34v-.78h.46v.78h.91v.41h-.91V197h.82v.41H97.89Z"/><path class="cls-16" d="M101.11,197.47a1.57,1.57,0,0,1,0-3.14,1.46,1.46,0,0,1,1.45,1.57,1.34,1.34,0,0,1,0,.2H100a1.05,1.05,0,0,0,1.08,1,1.14,1.14,0,0,0,.94-.45l.27.28A1.48,1.48,0,0,1,101.11,197.47ZM100,195.71h2.06a1,1,0,0,0-1-1A1,1,0,0,0,100,195.71Z"/><path class="cls-16" d="M104.54,194.33a1.29,1.29,0,0,1,1.13.55h0c0-.08,0-.16,0-.31v-1.51h.46v4.32h-.43v-.25a2.41,2.41,0,0,1,0-.31h0a1.24,1.24,0,0,1-1.17.65,1.57,1.57,0,0,1,0-3.14Zm1.15,1.57a1.11,1.11,0,1,0-1.1,1.15A1.09,1.09,0,0,0,105.69,195.9Z"/><path class="cls-16" d="M111.56,194.4a1.33,1.33,0,0,1-1.41,1.34H109v1.64h-.47v-4.32h1.58A1.33,1.33,0,0,1,111.56,194.4Zm-.49,0a.91.91,0,0,0-1-.94H109v1.86h1.06A.91.91,0,0,0,111.07,194.41Z"/><path class="cls-16" d="M113.43,194.42v.41h-.86v2.55h-.46v-3Z"/><path class="cls-16" d="M115.22,197.47a1.57,1.57,0,0,1,0-3.14,1.46,1.46,0,0,1,1.45,1.57,1.34,1.34,0,0,1,0,.2h-2.51a1.05,1.05,0,0,0,1.08,1,1.14,1.14,0,0,0,.94-.45l.27.28A1.48,1.48,0,0,1,115.22,197.47Zm-1.07-1.76h2.06a1,1,0,0,0-1-1A1,1,0,0,0,114.15,195.71Z"/><path class="cls-16" d="M118.07,195.61l.39.18a.88.88,0,0,1,.64.83c0,.5-.39.85-1,.85a1,1,0,0,1-1-.77l.36-.2a.7.7,0,0,0,.7.56c.31,0,.52-.15.52-.44s-.14-.34-.45-.48l-.36-.17c-.38-.17-.65-.39-.65-.83a.85.85,0,0,1,.92-.81,1,1,0,0,1,1,.67l-.35.19a.65.65,0,0,0-.63-.47.44.44,0,0,0-.49.41C117.63,195.35,117.77,195.47,118.07,195.61Z"/><path class="cls-16" d="M119.73,193.57a.3.3,0,0,1,.59,0,.3.3,0,1,1-.59,0Zm.06,3.81v-3h.46v3Z"/><path class="cls-16" d="M122.49,194.33a1.28,1.28,0,0,1,1.12.55h0a2.55,2.55,0,0,1,0-.31v-1.51h.45v4.32h-.42v-.25a1.37,1.37,0,0,1,0-.31h0a1.24,1.24,0,0,1-1.17.65,1.57,1.57,0,0,1,0-3.14Zm1.15,1.57a1.11,1.11,0,1,0-1.11,1.15A1.1,1.1,0,0,0,123.64,195.9Z"/><path class="cls-16" d="M126.32,197.47a1.57,1.57,0,0,1,0-3.14,1.47,1.47,0,0,1,1.46,1.57s0,.15,0,.2h-2.51a1.05,1.05,0,0,0,1.08,1,1.14,1.14,0,0,0,.93-.45l.27.28A1.45,1.45,0,0,1,126.32,197.47Zm-1.07-1.76h2.06a1,1,0,0,0-1-1A1,1,0,0,0,125.25,195.71Z"/><path class="cls-16" d="M130.86,194.42v3h-.46v-2.55h-1.51v2.55h-.46v-3Z"/><path class="cls-16" d="M131.87,194.83h-.34v-.41h.34v-.78h.46v.78h.91v.41h-.91V197h.82v.41h-1.28Z"/><path class="cls-16" d="M133.74,193.57a.28.28,0,0,1,.29-.28.28.28,0,0,1,.29.28.29.29,0,0,1-.29.3A.28.28,0,0,1,133.74,193.57Zm.06,3.81v-3h.46v3Z"/><path class="cls-16" d="M136.5,194.33a1.19,1.19,0,0,1,1.14.62h0c0-.08,0-.16,0-.31v-.22h.43v3h-.43v-.28c0-.13,0-.22,0-.32h0a1.19,1.19,0,0,1-1.15.69A1.48,1.48,0,0,1,135,195.9,1.5,1.5,0,0,1,136.5,194.33Zm1.13,1.57a1.11,1.11,0,1,0-1.11,1.15A1.1,1.1,0,0,0,137.63,195.9Z"/><path class="cls-16" d="M139,193.06h.46V197h.85v.41H139Z"/><path class="cls-16" d="M144,196.28l-1.37-2.43h0v3.53h-.47v-4.32h.59l1.48,2.66h0l1.47-2.66h.57v4.32h-.47v-3.53h0l-1.36,2.43Z"/><path class="cls-16" d="M148.55,197.47a1.57,1.57,0,0,1,0-3.14A1.47,1.47,0,0,1,150,195.9s0,.15,0,.2h-2.52a1.05,1.05,0,0,0,1.09,1,1.14,1.14,0,0,0,.93-.45l.27.28A1.45,1.45,0,0,1,148.55,197.47Zm-1.08-1.76h2.07a1,1,0,0,0-1-1A1.06,1.06,0,0,0,147.47,195.71Z"/><path class="cls-16" d="M152,194.33a1.28,1.28,0,0,1,1.12.55h0c0-.08,0-.16,0-.31v-1.51h.45v4.32h-.42v-.25a1.37,1.37,0,0,1,0-.31h0a1.24,1.24,0,0,1-1.17.65,1.57,1.57,0,0,1,0-3.14Zm1.15,1.57a1.11,1.11,0,1,0-1.11,1.15A1.1,1.1,0,0,0,153.13,195.9Z"/><path class="cls-16" d="M155.81,194.33A1.22,1.22,0,0,1,157,195h0a2.55,2.55,0,0,1,0-.31v-.22h.43v3H157v-.28a3.11,3.11,0,0,1,0-.32h0a1.22,1.22,0,0,1-1.16.69,1.49,1.49,0,0,1-1.53-1.57A1.5,1.5,0,0,1,155.81,194.33Zm1.12,1.57a1.11,1.11,0,1,0-1.11,1.15A1.1,1.1,0,0,0,156.93,195.9Z"/><path class="cls-16" d="M158.28,193.06h.46V197h.86v.41h-1.32Z"/><path class="cls-16" d="M74.25,203.9a1.56,1.56,0,1,1,1.56,1.57A1.53,1.53,0,0,1,74.25,203.9Zm2.66,0a1.1,1.1,0,1,0-1.1,1.15A1.09,1.09,0,0,0,76.91,203.9Z"/><path class="cls-16" d="M77.78,202.42h.34v-1.36h1.32v.4h-.86v1h.83v.41h-.83v2.55h-.46v-2.55h-.34Z"/><path class="cls-16" d="M83.16,204.28l-1.37-2.43h0v3.53h-.47v-4.32h.59l1.49,2.66h0l1.47-2.66h.57v4.32H85v-3.53h0l-1.36,2.43Z"/><path class="cls-16" d="M86.12,203.9a1.56,1.56,0,1,1,1.55,1.57A1.52,1.52,0,0,1,86.12,203.9Zm2.65,0a1.09,1.09,0,1,0-2.18,0,1.09,1.09,0,1,0,2.18,0Z"/><path class="cls-16" d="M90.61,205.38l-1.12-3H90l.9,2.55h0l.9-2.55h.5l-1.11,3Z"/><path class="cls-16" d="M92.81,201.57a.28.28,0,0,1,.29-.28.29.29,0,0,1,.3.28.29.29,0,0,1-.3.3A.29.29,0,0,1,92.81,201.57Zm.06,3.81v-3h.46v3Z"/><path class="cls-16" d="M96.67,202.42v3h-.46v-2.55h-1.5v2.55h-.46v-3Z"/><path class="cls-16" d="M98.84,202.33A1.23,1.23,0,0,1,100,203h0c0-.09,0-.18,0-.31v-.22h.43v4.28H98.21v-.41H100v-1.22a1.52,1.52,0,0,1,0-.32h0a1.16,1.16,0,0,1-1.12.63,1.53,1.53,0,0,1,0-3Zm-1,1.52a1.08,1.08,0,1,0,1.08-1.11A1.06,1.06,0,0,0,97.83,203.85Z"/><path class="cls-16" d="M103.82,202.77l.66.4a1.31,1.31,0,0,1,.8,1.13,1.17,1.17,0,0,1-1.32,1.17,1.31,1.31,0,0,1-1.37-1.26l.42-.12a1,1,0,0,0,1,.95.71.71,0,0,0,.8-.72c0-.29-.15-.54-.57-.77l-.61-.37c-.5-.28-.86-.55-.86-1.15A1.09,1.09,0,0,1,104,201a1.19,1.19,0,0,1,1.28,1l-.41.12a.84.84,0,0,0-.88-.71.64.64,0,0,0-.72.62C103.22,202.37,103.42,202.56,103.82,202.77Z"/><path class="cls-16" d="M106.07,202.83h-.34v-.41h.34v-.78h.46v.78h.91v.41h-.91V205h.82v.41h-1.28Z"/><path class="cls-16" d="M108,205.38v-3h.46V205h1.47v-2.55h.46v3Z"/><path class="cls-16" d="M111.07,202.42h.34v-1.36h1.32v.4h-.86v1h.82v.41h-.82v2.55h-.46v-2.55h-.34Z"/><path class="cls-16" d="M113,202.42h.35v-1.36h1.31v.4h-.85v1h.82v.41h-.82v2.55h-.46v-2.55H113Z"/><path class="cls-16" d="M114.72,205.13a.29.29,0,1,1,.28.29A.29.29,0,0,1,114.72,205.13Z"/><path class="cls-22" d="M78.51,43l-1.58-3.46h-.05v5.34h-2v-9h2.59l1.92,4.43h0l2-4.43h2.45v9h-2V39.54h0L80.24,43Z"/><path class="cls-22" d="M86.11,43h1.38v-5.3H86.16V35.88h4.77v1.84H89.6V43H91v1.86H86.11Z"/><path class="cls-22" d="M98.49,44.88l-3.23-5.21h-.05v5.21h-2v-9h2.16l3.19,5.21h0V35.88h2v9Z"/><path class="cls-22" d="M103.17,44.88v-9h3.14a4.5,4.5,0,1,1,0,9Zm5.59-4.51a2.36,2.36,0,0,0-2.45-2.65h-1V43h1A2.36,2.36,0,0,0,108.76,40.37Z"/><path class="cls-22" d="M113.09,35.88h2.12v9h-2.12Z"/><path class="cls-22" d="M117.76,35.88h6.48v1.84h-4.37V43h2.47v-1.6H121V39.6h3.42v5.28h-6.67Z"/><path class="cls-22" d="M126.39,40.38a4.59,4.59,0,1,1,9.18,0,4.45,4.45,0,0,1-4.6,4.69A4.4,4.4,0,0,1,126.39,40.38Zm7,0c0-1.68-.93-2.8-2.44-2.8s-2.42,1.12-2.42,2.8.92,2.79,2.42,2.79S133.41,42.07,133.41,40.37Z"/><g id="stargazers_logo" data-name="stargazers logo"><path class="cls-2" d="M50,229.68a1.76,1.76,0,0,0,1.62-.78,1.18,1.18,0,0,0-.1-1.22L43.8,216a1.59,1.59,0,0,0-2.56,0l-7.7,11.71a1.18,1.18,0,0,0-.1,1.23,1.76,1.76,0,0,0,1.62.77h7.06l.32,1.19.34-1.19ZM51.09,228a.67.67,0,0,1,.08.72,1.32,1.32,0,0,1-1.19.52H42.92l.18-.64a1.38,1.38,0,0,0,.71-1.22.91.91,0,0,0,0-.17H44l0-.07a1.47,1.47,0,0,0,.07-.17c.56,0,1.43.61,1.6.38s-.82-1.82-1.15-2.36c0-.21,0-.43.05-.66s0-.42,0-.64A12.47,12.47,0,0,1,49.83,226ZM46,222.35h.31V222a.07.07,0,1,1,.14,0v.31h.31a.07.07,0,0,1,0,.14h-.31v.3a.07.07,0,0,1-.14,0v-.3H46a.07.07,0,0,1,0-.14Zm-1.11-1.76.18-.48.18.48.48.18-.48.18-.18.49-.18-.49-.48-.18Zm-2.71-3.41.19-.63.2.63.63.19-.63.2-.2.63-.19-.63-.64-.2Zm-3.67,4.73H39v-.47a.1.1,0,0,1,.1-.11.11.11,0,0,1,.11.11v.47h.47a.11.11,0,0,1,.11.11.1.1,0,0,1-.11.1h-.47v.48a.1.1,0,0,1-.11.1.09.09,0,0,1-.1-.1v-.48h-.48a.09.09,0,0,1-.1-.1A.1.1,0,0,1,38.54,221.91Zm-2.76,3.25a10.53,10.53,0,0,1,4.54-2.37,5.92,5.92,0,0,1,2-4l.17-.15.17.16a6.79,6.79,0,0,1,2,3.92A9.1,9.1,0,0,1,49.12,225l.39.58a9,9,0,0,0-5-2.58,6.65,6.65,0,0,0-1.95-4l-.07-.07-.08.06a5.8,5.8,0,0,0-2,4,10.7,10.7,0,0,0-5,2.7Zm1,4,.29-1.57.15-.07.56,1.64Zm2.33,0-1.41-2-.22,0,.13.37,1.09,1.62h-.57l-.77-2-.45.28-.43,1.74H35.06a1.34,1.34,0,0,1-1.19-.51A.68.68,0,0,1,34,228L35.2,226a16.33,16.33,0,0,1,5.21-2.34c0,.14,0,.28,0,.43s0,.52.07.76c-.3.47-1.36,2.2-1.19,2.41s1.09-.42,1.65-.38l.06.17,0,.07h.11c0,.05,0,.11,0,.17a1.37,1.37,0,0,0,.67,1.19l.18.67ZM41.78,227a8.35,8.35,0,0,1-.58-3.71.09.09,0,0,0-.09-.1.11.11,0,0,0-.1.09,8.35,8.35,0,0,0,.57,3.72h-.4a10.23,10.23,0,0,1-.55-2.84A6.41,6.41,0,0,1,41.74,220a2.09,2.09,0,0,0,1.36.08c.46.68,1.62,2.94.16,6.87Z"/><path class="cls-2" d="M42.53,221.47c-.52,0-.94.91-.94,1.43a.95.95,0,1,0,1.89,0C43.48,222.38,43.06,221.47,42.53,221.47ZM42.14,223a.24.24,0,1,1,.24-.24A.24.24,0,0,1,42.14,223Z"/><path class="cls-2" d="M42.53,224.36a.5.5,0,0,0-.49.5c0,.27.22,1.14.49,1.14s.5-.87.5-1.14A.5.5,0,0,0,42.53,224.36Z"/><path class="cls-2" d="M41.15,222.82a.11.11,0,0,0,0,.22.11.11,0,0,0,0-.22Z"/><path class="cls-2" d="M46.16,228.54a2,2,0,0,0,.51-.09l.34-.12a1.23,1.23,0,0,0,.75.25A1.25,1.25,0,0,0,49,227.33a.28.28,0,0,0,0-.09c.45-.32.79-.67.67-.88s-.34-.16-.79,0l-.26.09a1.22,1.22,0,0,0-.86-.35,1.25,1.25,0,0,0-1.25,1.25,1.94,1.94,0,0,0,0,.24l-.24.18c-.35.3-.49.52-.4.68A.29.29,0,0,0,46.16,228.54Zm1.6-.16a1.08,1.08,0,0,1-.53-.14,8.36,8.36,0,0,0,.8-.39c.23-.13.51-.29.78-.47A1.06,1.06,0,0,1,47.76,228.38Zm1.64-1.94a.22.22,0,0,1,.1,0c0,.07-.17.28-.53.56a1.3,1.3,0,0,0-.2-.43A2.48,2.48,0,0,1,49.4,226.44Zm-.61.71a9,9,0,0,1-.86.53,8.35,8.35,0,0,1-.88.42,1,1,0,0,1-.29-.45,8.23,8.23,0,0,1,.86-.54c.36-.19.68-.34,1-.45A1,1,0,0,1,48.79,227.15Zm-1-.87a1.08,1.08,0,0,1,.66.23,7.19,7.19,0,0,0-.89.43,7.73,7.73,0,0,0-.82.5v-.11A1,1,0,0,1,47.76,226.28Zm-1.17,1.49a1.33,1.33,0,0,0,.25.41c-.45.16-.73.2-.78.15S46.22,228.05,46.59,227.77Z"/><path class="cls-2" d="M35.82,227.21l-.63.41c0,.31.21.29.21.29l.59-.39A.4.4,0,0,1,35.82,227.21Z"/><path class="cls-2" d="M37,226.32,35.9,227a.6.6,0,0,0,.26.48l1.15-.64A.76.76,0,0,1,37,226.32Z"/><path class="cls-2" d="M38.33,225.87a.57.57,0,0,1,0-.43l-1.14.7a.77.77,0,0,0,.37.67l1.2-.65A.5.5,0,0,1,38.33,225.87Z"/><path class="cls-2" d="M38.37,225.43s0,.12,0,.19a.19.19,0,0,1,.22.1c.08.13.09.23,0,.3a.58.58,0,0,0,.18.07s.13-.16,0-.46A.38.38,0,0,0,38.37,225.43Z"/><path class="cls-2" d="M33.33,231.28a.82.82,0,0,0-.81.82v.36a.64.64,0,0,0,.13.45l1,1.8s0,0,0,.12v.35a.37.37,0,1,1-.73,0v-.24a.11.11,0,0,0-.11-.11h-.23a.11.11,0,0,0-.11.11v.24a.82.82,0,1,0,1.63,0v-.35a.61.61,0,0,0-.14-.45l-1-1.8s0,0,0-.12v-.36a.37.37,0,0,1,.73,0v.24a.1.1,0,0,0,.11.11H34a.11.11,0,0,0,.11-.11v-.24A.82.82,0,0,0,33.33,231.28Z"/><path class="cls-2" d="M35.59,231.28H34.5a.12.12,0,0,0-.12.12v.22a.12.12,0,0,0,.12.12h.32v4.14a.11.11,0,0,0,.11.12h.23a.11.11,0,0,0,.11-.12v-4.14h.32a.11.11,0,0,0,.11-.12v-.22A.12.12,0,0,0,35.59,231.28Z"/><path class="cls-2" d="M39.08,231.28h-.59a.23.23,0,0,0-.22.23v4.37a.11.11,0,0,0,.11.12h.23a.12.12,0,0,0,.11-.12v-2h.36a.37.37,0,0,1,.36.37v1.65a.12.12,0,0,0,.12.12h.22a.12.12,0,0,0,.12-.12v-1.65a.82.82,0,0,0-.25-.59.84.84,0,0,0,.25-.59v-.94A.82.82,0,0,0,39.08,231.28Zm.36,1.77a.36.36,0,0,1-.36.36h-.36v-1.67h.36a.36.36,0,0,1,.36.37Z"/><path class="cls-2" d="M41.3,231.28a.82.82,0,0,0-.82.82v3.08a.82.82,0,0,0,.82.82.82.82,0,0,0,.81-.82v-1.66a.11.11,0,0,0-.11-.12h-.59a.11.11,0,0,0-.11.12v.22a.11.11,0,0,0,.11.12h.25v1.32a.36.36,0,0,1-.72,0V232.1a.36.36,0,1,1,.72,0v.24a.11.11,0,0,0,.11.11H42a.1.1,0,0,0,.11-.11v-.24A.82.82,0,0,0,41.3,231.28Z"/><path class="cls-2" d="M46.45,231.28H45a.12.12,0,0,0-.11.12v.22a.11.11,0,0,0,.11.12H46.1v.73a.31.31,0,0,1,0,.11l-1,1.81a.64.64,0,0,0-.13.45v1A.11.11,0,0,0,45,236h1.41a.11.11,0,0,0,.11-.12v-.22a.12.12,0,0,0-.11-.12H45.38v-.7c0-.08,0-.08,0-.12l1-1.8c.14-.25.14-.25.14-.45V231.4A.12.12,0,0,0,46.45,231.28Z"/><path class="cls-2" d="M48.15,231.28H47.3a.23.23,0,0,0-.22.23v4.26a.22.22,0,0,0,.22.23h.85a.11.11,0,0,0,.11-.12v-.22a.12.12,0,0,0-.11-.12h-.62v-1.67h.62a.12.12,0,0,0,.11-.11v-.23a.11.11,0,0,0-.11-.11h-.62v-1.68h.62a.11.11,0,0,0,.11-.12v-.22A.12.12,0,0,0,48.15,231.28Z"/><path class="cls-2" d="M49.59,231.28H49a.23.23,0,0,0-.22.23v4.37a.11.11,0,0,0,.11.12h.23a.12.12,0,0,0,.11-.12v-2h.36a.37.37,0,0,1,.36.37v1.65a.12.12,0,0,0,.12.12h.22a.12.12,0,0,0,.12-.12v-1.65a.82.82,0,0,0-.25-.59.84.84,0,0,0,.25-.59v-.94A.82.82,0,0,0,49.59,231.28Zm.36,1.77a.36.36,0,0,1-.36.36h-.36v-1.67h.36a.36.36,0,0,1,.36.37Z"/><path class="cls-2" d="M52.18,232.45h.23a.11.11,0,0,0,.11-.11v-.24a.82.82,0,1,0-1.63,0v.36a.64.64,0,0,0,.13.45l1,1.8s0,0,0,.12v.35a.37.37,0,1,1-.73,0v-.24a.11.11,0,0,0-.11-.11H51a.11.11,0,0,0-.11.11v.24a.82.82,0,1,0,1.63,0v-.35a.61.61,0,0,0-.14-.45l-1-1.8s0,0,0-.12v-.36a.37.37,0,0,1,.73,0v.24A.1.1,0,0,0,52.18,232.45Z"/><path class="cls-2" d="M43.53,231.28a.83.83,0,0,0-.83.83v3.77a.12.12,0,0,0,.12.12H43a.12.12,0,0,0,.12-.12v-1.79l.73-.45v2.24A.11.11,0,0,0,44,236h.23a.11.11,0,0,0,.11-.12v-3.77A.82.82,0,0,0,43.53,231.28Zm.36,1.91-.73.45v-1.53a.36.36,0,0,1,.37-.37.37.37,0,0,1,.36.37Z"/><path class="cls-2" d="M36.9,231.28a.83.83,0,0,0-.82.83v3.77a.11.11,0,0,0,.11.12h.23a.11.11,0,0,0,.11-.12v-1.79l.73-.45v2.24a.11.11,0,0,0,.11.12h.23a.11.11,0,0,0,.11-.12v-3.77A.82.82,0,0,0,36.9,231.28Zm.36,1.91-.73.45v-1.53a.37.37,0,1,1,.73,0Z"/></g><g id="big_star_logo" data-name="big star logo"><path class="cls-1" d="M138.92,232.19s0,0,0,0a.44.44,0,0,1-.31.33c-.18.05-.3,0-.3-.21a.55.55,0,0,1,.37-.54c.16,0,.28,0,.28.18v0l-.07,0h0a.13.13,0,0,0-.19-.13.43.43,0,0,0-.27.43c0,.14.08.2.2.16a.29.29,0,0,0,.22-.23h0Z"/><path class="cls-1" d="M139.75,232.23c-.18,0-.29,0-.29-.21a.57.57,0,0,1,.39-.55c.18-.05.29,0,.29.21A.58.58,0,0,1,139.75,232.23Zm0-.08a.45.45,0,0,0,.3-.44.15.15,0,0,0-.2-.16.44.44,0,0,0-.3.44A.15.15,0,0,0,139.75,232.15Z"/><path class="cls-1" d="M140.62,232h0l.09-.38.07-.34s0,0,0,0l.08,0h0l-.08.34-.07.32.31-.09a0,0,0,0,1,0,0v.06h0Z"/><path class="cls-1" d="M141.56,231.73h0l.09-.38.07-.34s0,0,0,0l.07,0h0l-.08.34-.06.32.31-.09h0l0,.06h0Z"/><path class="cls-1" d="M142.49,231.48h0l.09-.38.07-.34v0l.42-.11h0v.07l-.34.09-.05.23.31-.09h0V231h0l-.32.09-.06.27.35-.09h0l0,.06a0,0,0,0,1,0,0Z"/><path class="cls-1" d="M144.12,230.8s0,0,0,0a.46.46,0,0,1-.32.34c-.18,0-.3,0-.3-.22a.55.55,0,0,1,.38-.53c.15,0,.27,0,.27.18s0,0,0,0l-.07,0h0c0-.1-.07-.15-.19-.12a.42.42,0,0,0-.27.42c0,.14.08.2.2.17a.29.29,0,0,0,.22-.23l0,0Z"/><path class="cls-1" d="M144.73,230.88s0,0,0,0l.08-.36.06-.3-.19.06a0,0,0,0,1,0,0v-.06h0l.48-.13h0v.07l-.19.05-.08.3-.07.35v0Z"/><path class="cls-1" d="M145.56,230.66h0l.08-.37.08-.35s0,0,0,0l.08,0s0,0,0,0l-.08.36-.07.36,0,0Z"/><path class="cls-1" d="M146.53,230.4l-.29.07s0,0,0,0l.08-.37.07-.35h0l.24-.07c.15,0,.24,0,.22.13a.29.29,0,0,1-.17.19c.1,0,.13.06.12.15A.4.4,0,0,1,146.53,230.4Zm-.18,0,.18-.05a.22.22,0,0,0,.19-.17c0-.11-.05-.13-.14-.1l-.18,0Zm.07-.35.19-.05a.22.22,0,0,0,.17-.15c0-.09,0-.11-.14-.09l-.16.05Z"/><path class="cls-1" d="M147.34,230.18s0,0,0,0l.09-.38.07-.34v0l.08,0s0,0,0,0l-.08.34-.06.32.31-.09h0l0,.06h0Z"/><path class="cls-1" d="M148.27,229.93a0,0,0,0,1,0,0l.09-.37.07-.35v0l.43-.11s0,0,0,0v.06h0l-.33.09-.06.23.31-.09h0v.06a0,0,0,0,1,0,0l-.32.09-.05.28.34-.1h0l0,.06h0Z"/><path class="cls-1" d="M149.83,229.3a.35.35,0,0,1-.28.3c-.17,0-.29,0-.28-.17a0,0,0,0,1,0,0l.08,0s0,0,0,0,.06.16.19.12a.2.2,0,0,0,.17-.18c0-.16-.38,0-.38-.2a.33.33,0,0,1,.27-.29c.16,0,.26,0,.26.14v0l-.08,0h0c0-.09-.05-.12-.16-.09s-.18.1-.18.17S149.83,229.07,149.83,229.3Z"/><path class="cls-1" d="M150.88,226.37a1.56,1.56,0,0,1-1.49,1.26,1.17,1.17,0,0,1-.91-.41,1.09,1.09,0,0,1-.24-.48l.79-.21a.33.33,0,0,0,.07.17.41.41,0,0,0,.29.12.73.73,0,0,0,.68-.59.33.33,0,0,0-.29-.44l-.26,0a1,1,0,0,1-.7-.4,1.06,1.06,0,0,1-.18-.8,1.32,1.32,0,0,1,1.26-1.06,1,1,0,0,1,.78.35,1.2,1.2,0,0,1,.2.39l-.79.21,0-.07a.22.22,0,0,0-.16-.06.49.49,0,0,0-.45.38.21.21,0,0,0,0,.17.23.23,0,0,0,.14.08l.26,0a1.12,1.12,0,0,1,.79.46A1.17,1.17,0,0,1,150.88,226.37Z"/><polygon class="cls-1" points="154.19 222.31 154.03 223.2 153.11 223.44 152.51 226.84 151.64 227.08 152.24 223.68 151.32 223.93 151.47 223.04 154.19 222.31"/><path class="cls-1" d="M159.88,222.43a1.11,1.11,0,0,0-.24-.92,1.07,1.07,0,0,0-.85-.39,1.4,1.4,0,0,0-.34,0l-.9.24-.75,4.29.87-.24.29-1.67.21,0,.84,1.36.82-.22-.85-1.37A1.47,1.47,0,0,0,159.88,222.43Zm-.81-.14a.61.61,0,0,1-.43.47l-.52.14.14-.84.4-.1a.32.32,0,0,1,.13,0,.29.29,0,0,1,.23.09A.32.32,0,0,1,159.07,222.29Z"/><polygon class="cls-1" points="157.18 227.89 158.02 231.01 154.74 229.81 150.7 232.99 152.44 228.97 150.44 228.24 151.82 227.88 153.53 228.5 152.73 230.35 154.59 228.89 156.83 229.7 156.26 227.58 157.98 226.22 159.98 225.69 157.18 227.89"/><path class="cls-1" d="M155.82,226h0l.79-.22-1.06-3.94-2.07,4.78,1-.27.89-2Z"/><polygon class="cls-1" points="143.11 225.28 142.35 229.57 141.48 229.8 142.24 225.51 143.11 225.28"/><path class="cls-1" d="M140.84,226.52a1.11,1.11,0,0,0-1.12-.33l-1,.26-.76,4.29,1.89-.51a1.47,1.47,0,0,0,1.06-1.14,1.17,1.17,0,0,0-.24-1h0a1.35,1.35,0,0,0,.39-.72A1.08,1.08,0,0,0,140.84,226.52Zm-.72,2.42a.68.68,0,0,1-.46.51l-.65.17.16-.9.52-.14h.13a.3.3,0,0,1,.25.1A.33.33,0,0,1,140.12,228.94Zm.14-1.67a.54.54,0,0,1-.38.42l-.56.15.13-.74.48-.12H140a.24.24,0,0,1,.2.07A.29.29,0,0,1,140.26,227.27Z"/><path class="cls-1" d="M147.23,226.85a2.41,2.41,0,0,1-.73,1.38,2.05,2.05,0,0,1-1.38.52,1.58,1.58,0,0,1-1.25-.55,1.87,1.87,0,0,1-.35-1.56,2.29,2.29,0,0,1,2.18-2,1.47,1.47,0,0,1,1.17.52,1.32,1.32,0,0,1,.19.29l-.82.22a.7.7,0,0,0-.54-.21,1.48,1.48,0,0,0-1.37,1.3,1.07,1.07,0,0,0,.17.9.76.76,0,0,0,.62.26,1.29,1.29,0,0,0,1.26-1.05l-1,.26h0l.1-.56,1.74-.47A2.57,2.57,0,0,1,147.23,226.85Z"/></g><g id="favorites"><path class="cls-2" d="M29.63,87.56h2v.69H30.42V89h1.14v.68H30.42v1.22h-.79Z"/><path class="cls-2" d="M33,87.56h1l1,3.38h-.86L34,90.28H33l-.17.66H32Zm.16,2h.68l-.33-1.25h0Z"/><path class="cls-2" d="M37.22,90.94h-1l-1-3.38H36l.68,2.6h0l.68-2.6h.82Z"/><path class="cls-2" d="M38.61,89.25A1.72,1.72,0,1,1,40.33,91,1.66,1.66,0,0,1,38.61,89.25Zm2.63,0a.92.92,0,0,0-.91-1c-.57,0-.91.41-.91,1s.34,1.05.91,1.05S41.24,89.88,41.24,89.24Z"/><path class="cls-2" d="M43.78,89.67H43.6v1.27h-.79V87.56h1.34a1.09,1.09,0,0,1,1.15,1.07,1,1,0,0,1-.7,1l.78,1.35h-.9Zm.73-1a.4.4,0,0,0-.44-.4H43.6v.8h.47A.4.4,0,0,0,44.51,88.65Z"/><path class="cls-2" d="M46.1,87.56h.79v3.38H46.1Z"/><path class="cls-2" d="M48.36,88.25h-.79v-.69h2.37v.69h-.79v2.69h-.79Z"/><path class="cls-2" d="M51.68,91c-.78,0-1.26-.42-1.26-1a.84.84,0,0,1,.6-.85.8.8,0,0,1-.5-.77c0-.55.46-.9,1.18-.9a1.3,1.3,0,0,1,1,.39l-.41.53a.81.81,0,0,0-.58-.22c-.31,0-.43.14-.43.32s.19.37.55.37h.46v.66h-.52c-.35,0-.54.15-.54.37s.17.39.49.39a.78.78,0,0,0,.58-.21l.39.52A1.19,1.19,0,0,1,51.68,91Z"/><path class="cls-2" d="M54.3,88.7l.63.38a1,1,0,0,1,.55.93,1,1,0,0,1-1.12,1,1.08,1.08,0,0,1-1.15-1l.69-.26c0,.2.16.52.48.52a.27.27,0,0,0,.3-.28c0-.12,0-.22-.23-.33l-.55-.34a1,1,0,0,1,.46-1.86,1,1,0,0,1,1.1.81l-.68.25c-.12-.3-.27-.37-.44-.37a.23.23,0,0,0-.25.22C54.09,88.55,54.18,88.62,54.3,88.7Z"/><path class="cls-2" d="M34.89,109.56h2v.69H35.68V111h1.14v.68H35.68v1.22h-.79Z"/><path class="cls-2" d="M37.46,111.25A1.73,1.73,0,1,1,39.18,113,1.66,1.66,0,0,1,37.46,111.25Zm2.64,0a.92.92,0,0,0-.92-1c-.56,0-.9.41-.9,1s.34,1.05.9,1.05A.92.92,0,0,0,40.1,111.24Z"/><path class="cls-2" d="M41.51,111.25A1.73,1.73,0,1,1,43.23,113,1.66,1.66,0,0,1,41.51,111.25Zm2.64,0a.92.92,0,1,0-1.83,0c0,.64.35,1.05.91,1.05A.92.92,0,0,0,44.15,111.24Z"/><path class="cls-2" d="M45.72,112.94v-3.38H46.9a1.69,1.69,0,1,1,0,3.38Zm2.1-1.7a.89.89,0,0,0-.92-1h-.39v2h.39A.9.9,0,0,0,47.82,111.24Z"/><path class="cls-2" d="M49.3,110.72a.45.45,0,0,1,.45-.44.44.44,0,0,1,.44.44.44.44,0,0,1-.44.44A.45.45,0,0,1,49.3,110.72Zm0,1.59a.45.45,0,0,1,.45-.44.44.44,0,0,1,.44.44.44.44,0,0,1-.44.44A.45.45,0,0,1,49.3,112.31Z"/><path class="cls-2" d="M32.91,117.25a.88.88,0,1,0-.72,1.43.87.87,0,0,0,.74-.4l.22.22a1.12,1.12,0,0,1-1,.51,1.23,1.23,0,1,1,0-2.45,1.14,1.14,0,0,1,1,.47Z"/><path class="cls-2" d="M34.63,116.56a1,1,0,0,1,.9.48h0a1.7,1.7,0,0,1,0-.25v-.16h.33v2.31h-.33v-.22a1.93,1.93,0,0,1,0-.25h0a1,1,0,0,1-.91.54,1.23,1.23,0,0,1,0-2.45Zm.89,1.22a.87.87,0,1,0-.87.9A.85.85,0,0,0,35.52,117.78Z"/><path class="cls-2" d="M36.57,118.94v-2.31h.36v2h1.16v-2h.36v2.31Z"/><path class="cls-2" d="M39.16,115.56h.36v3.06h.66v.32h-1Z"/><path class="cls-2" d="M40.53,116a.22.22,0,0,1,.23-.22A.23.23,0,0,1,41,116a.23.23,0,0,1-.23.24A.23.23,0,0,1,40.53,116Zm0,3v-2.31h.36v2.31Z"/><path class="cls-2" d="M41.46,116.63h.29v-.26a.81.81,0,1,1,1.61,0v2.25h.46v.32H43v-2.56c0-.32-.14-.53-.44-.53s-.45.21-.45.53v.25h.63v.31h-.63v2h-.36v-2h-.29Z"/><path class="cls-2" d="M44,117.78A1.22,1.22,0,1,1,45.23,119,1.19,1.19,0,0,1,44,117.78Zm2.07,0a.85.85,0,1,0-.85.9A.85.85,0,0,0,46.08,117.78Z"/><path class="cls-2" d="M49.48,118.94H49l-.55-2h0l-.55,2h-.51l-.62-2.31h.38l.49,2h0l.53-2h.54l.54,2h0l.49-2h.38Z"/><path class="cls-2" d="M51.57,119a1.23,1.23,0,0,1,0-2.45,1.14,1.14,0,0,1,1.14,1.22s0,.12,0,.16h-2a.82.82,0,0,0,.85.74.91.91,0,0,0,.73-.35l.21.22A1.13,1.13,0,0,1,51.57,119Zm-.84-1.38h1.62a.76.76,0,0,0-.79-.75A.82.82,0,0,0,50.73,117.63Z"/><path class="cls-2" d="M54.26,116.63V117h-.68v2h-.36v-2.31Z"/><path class="cls-2" d="M34.4,123.25a.86.86,0,0,0-.72-.37.9.9,0,1,0,.73,1.4l.22.22a1.12,1.12,0,0,1-1,.51,1.23,1.23,0,1,1,0-2.45,1.12,1.12,0,0,1,.94.47Z"/><path class="cls-2" d="M36.12,122.56A.93.93,0,0,1,37,123h0c0-.07,0-.13,0-.25v-.16h.34v2.31H37v-.22c0-.1,0-.17,0-.25h0a.94.94,0,0,1-.9.54,1.23,1.23,0,0,1,0-2.45Zm.88,1.22a.87.87,0,1,0-.87.9A.85.85,0,0,0,37,123.78Z"/><path class="cls-2" d="M38.63,123.55l.31.14a.68.68,0,0,1-.29,1.32.78.78,0,0,1-.81-.6l.29-.16a.54.54,0,0,0,.55.44c.23,0,.4-.12.4-.34s-.11-.27-.35-.38l-.28-.13c-.3-.14-.51-.31-.51-.65a.66.66,0,0,1,.72-.63.78.78,0,0,1,.78.52l-.27.15a.52.52,0,0,0-.5-.37.35.35,0,0,0-.38.32C38.29,123.35,38.4,123.45,38.63,123.55Z"/><path class="cls-2" d="M40.21,123.28c0,.23.15.34.39.34h.93v1.32H39.84v-.32h1.33v-.69h-.58c-.47,0-.75-.24-.75-.65s.3-.65.78-.65h.88v.31h-.9C40.36,122.94,40.21,123.05,40.21,123.28Z"/><path class="cls-2" d="M43.18,125a1.23,1.23,0,0,1,0-2.45,1.14,1.14,0,0,1,1.14,1.22s0,.12,0,.16h-2a.83.83,0,0,0,.85.74.91.91,0,0,0,.73-.35l.21.22A1.12,1.12,0,0,1,43.18,125Zm-.85-1.38H44a.76.76,0,0,0-.78-.75A.82.82,0,0,0,42.33,123.63Z"/><path class="cls-2" d="M45.86,122.63V123h-.67v2h-.36v-2.31Z"/><path class="cls-2" d="M46,123.78A1.22,1.22,0,1,1,47.26,125,1.19,1.19,0,0,1,46,123.78Zm2.08,0a.86.86,0,1,0-.86.9A.85.85,0,0,0,48.12,123.78Z"/><path class="cls-2" d="M49,121.56h.36v3.06H50v.32H49Z"/><path class="cls-2" d="M51.42,125a1.23,1.23,0,0,1,0-2.45,1.14,1.14,0,0,1,1.14,1.22s0,.12,0,.16h-2a.82.82,0,0,0,.85.74.91.91,0,0,0,.73-.35l.21.22A1.13,1.13,0,0,1,51.42,125Zm-.84-1.38H52.2a.76.76,0,0,0-.78-.75A.82.82,0,0,0,50.58,123.63Z"/><path class="cls-2" d="M36.24,144.25v2.69h-.8v-2.69h-.77v2.69h-.8v-3.38H37.8v3.38H37v-2.69Z"/><path class="cls-2" d="M41.33,145.7a1.33,1.33,0,0,1-2.65,0v-2.14h.8v2.22a.53.53,0,0,0,1.05,0v-2.22h.8Z"/><path class="cls-2" d="M43.13,144.7l.63.38a1,1,0,0,1,.55.93,1,1,0,0,1-1.12,1A1.07,1.07,0,0,1,42,146l.68-.26c.05.2.17.52.49.52a.27.27,0,0,0,.3-.28c0-.12,0-.22-.23-.33l-.56-.34a1,1,0,0,1-.58-.9,1,1,0,0,1,1-1,1.05,1.05,0,0,1,1.11.81l-.68.25c-.12-.3-.28-.37-.44-.37a.23.23,0,0,0-.26.22C42.91,144.55,43,144.62,43.13,144.7Z"/><path class="cls-2" d="M45.1,143.56h.79v3.38H45.1Z"/><path class="cls-2" d="M49.22,144.65a1,1,0,0,0-.85-.45.92.92,0,0,0-.91,1c0,.64.35,1,.91,1a1,1,0,0,0,.85-.45l.52.47a1.57,1.57,0,0,1-1.37.7,1.64,1.64,0,0,1-1.72-1.76,1.66,1.66,0,0,1,1.72-1.76,1.59,1.59,0,0,1,1.39.71Z"/><path class="cls-2" d="M50.32,144.72a.44.44,0,1,1,.88,0,.44.44,0,0,1-.88,0Zm0,1.59a.44.44,0,1,1,.88,0,.44.44,0,0,1-.88,0Z"/><path class="cls-2" d="M38.26,150.56a1,1,0,0,1,.88.43h0c0-.07,0-.13,0-.25v-1.18h.36v3.38h-.33v-.19a1.78,1.78,0,0,1,0-.25h0a1,1,0,0,1-.92.51,1.23,1.23,0,0,1,0-2.45Zm.9,1.22a.87.87,0,1,0-.87.9A.85.85,0,0,0,39.16,151.78Z"/><path class="cls-2" d="M40.16,150a.23.23,0,0,1,.46,0,.23.23,0,1,1-.46,0Zm.05,3v-2.31h.36v2.31Z"/><path class="cls-2" d="M41.87,151.55l.3.14a.7.7,0,0,1,.5.66c0,.38-.3.66-.79.66a.79.79,0,0,1-.81-.6l.29-.16a.54.54,0,0,0,.55.44c.23,0,.4-.12.4-.34s-.11-.27-.35-.38l-.28-.13c-.3-.14-.51-.31-.51-.65a.66.66,0,0,1,.72-.63.78.78,0,0,1,.78.52l-.27.15a.52.52,0,0,0-.5-.37.35.35,0,0,0-.38.32C41.52,151.35,41.63,151.45,41.87,151.55Z"/><path class="cls-2" d="M45,151.25a.88.88,0,1,0-.72,1.43.89.89,0,0,0,.74-.4l.22.22a1.14,1.14,0,0,1-1,.51,1.23,1.23,0,1,1,0-2.45,1.11,1.11,0,0,1,.94.47Z"/><path class="cls-2" d="M45.5,151.78A1.22,1.22,0,1,1,46.72,153,1.19,1.19,0,0,1,45.5,151.78Zm2.07,0a.85.85,0,1,0-.85.9A.85.85,0,0,0,47.57,151.78Z"/><path class="cls-2" d="M34.15,172.68A1.12,1.12,0,0,1,33,173.8h-.59v1.14h-.79v-3.38H33A1.11,1.11,0,0,1,34.15,172.68Zm-.79,0a.41.41,0,0,0-.44-.44h-.51v.87h.51A.42.42,0,0,0,33.36,172.69Z"/><path class="cls-2" d="M37.26,174.94h-.79v-.88h-.86v.88h-.79v-2.25a1.22,1.22,0,0,1,2.44,0Zm-1.65-1.56h.86v-.64c0-.39-.18-.54-.43-.54s-.43.15-.43.54Z"/><path class="cls-2" d="M39.06,172.7l.64.38a1.05,1.05,0,0,1,.55.93,1,1,0,0,1-1.13,1A1.09,1.09,0,0,1,38,174l.69-.26c0,.2.17.52.48.52a.28.28,0,0,0,.31-.28c0-.12-.05-.22-.24-.33l-.55-.34a1,1,0,0,1,.46-1.86,1,1,0,0,1,1.1.81l-.68.25c-.11-.3-.27-.37-.43-.37a.23.23,0,0,0-.26.22C38.85,172.55,38.94,172.62,39.06,172.7Z"/><path class="cls-2" d="M41.54,172.25h-.79v-.69h2.37v.69h-.79v2.69h-.79Z"/><path class="cls-2" d="M43.8,171.56h.8v3.38h-.8Z"/><path class="cls-2" d="M46.88,174.23l-.59-1.3h0v2h-.76v-3.38h1l.72,1.66h0l.76-1.66h.92v3.38h-.75v-2h0l-.6,1.3Z"/><path class="cls-2" d="M49.82,171.56h2v.69H50.61v.65h1.13v.67H50.61v.67h1.24v.7h-2Z"/><path class="cls-2" d="M52.58,172.72a.44.44,0,1,1,.88,0,.44.44,0,0,1-.88,0Zm0,1.59a.44.44,0,1,1,.88,0,.44.44,0,0,1-.88,0Z"/><path class="cls-2" d="M35.33,180.94l-.87-2.31h.4l.7,2h0l.71-2h.39l-.87,2.31Z"/><path class="cls-2" d="M37.05,178a.23.23,0,0,1,.24-.22.22.22,0,0,1,.22.22.23.23,0,0,1-.22.24A.23.23,0,0,1,37.05,178Zm.05,3v-2.31h.36v2.31Z"/><path class="cls-2" d="M40.08,178.63v2.31h-.36v-2H38.54v2h-.36v-2.31Z"/><path class="cls-2" d="M40.87,178.94h-.26v-.31h.26V178h.36v.62h.71v.31h-.71v1.68h.65v.32h-1Z"/><path class="cls-2" d="M43.39,178.56a.93.93,0,0,1,.89.48h0c0-.07,0-.13,0-.25v-.16h.34v2.31h-.34v-.22c0-.1,0-.17,0-.25h0a.94.94,0,0,1-.9.54,1.23,1.23,0,0,1,0-2.45Zm.88,1.22a.87.87,0,1,0-.87.9A.85.85,0,0,0,44.27,179.78Z"/><path class="cls-2" d="M46.31,178.56a.94.94,0,0,1,.91.48h0c0-.07,0-.14,0-.24v-.17h.34V182H45.83v-.32H47.2v-1a1.85,1.85,0,0,1,0-.25h0a.91.91,0,0,1-.87.49,1.14,1.14,0,0,1-1.17-1.19A1.12,1.12,0,0,1,46.31,178.56Zm-.78,1.18a.85.85,0,1,0,.84-.86A.83.83,0,0,0,45.53,179.74Z"/><path class="cls-2" d="M49.31,181a1.23,1.23,0,0,1,0-2.45,1.14,1.14,0,0,1,1.14,1.22s0,.12,0,.16h-2a.82.82,0,0,0,.85.74.91.91,0,0,0,.73-.35l.21.22A1.13,1.13,0,0,1,49.31,181Zm-.84-1.38h1.62a.76.76,0,0,0-.79-.75A.82.82,0,0,0,48.47,179.63Z"/><path class="cls-2" d="M36.48,185.25a.88.88,0,1,0-.72,1.43.86.86,0,0,0,.74-.4l.22.22a1.12,1.12,0,0,1-1,.51,1.23,1.23,0,0,1,0-2.45,1.14,1.14,0,0,1,1,.47Z"/><path class="cls-2" d="M38.21,184.56a.93.93,0,0,1,.89.48h0a1.7,1.7,0,0,1,0-.25v-.16h.34v2.31H39.1v-.22a1.93,1.93,0,0,1,0-.25h0a1,1,0,0,1-.9.54,1.23,1.23,0,0,1,0-2.45Zm.88,1.22a.87.87,0,1,0-.87.9A.85.85,0,0,0,39.09,185.78Z"/><path class="cls-2" d="M43.29,186.94h-.36v-1.53a.53.53,0,1,0-1,0v1.53h-.36v-1.53a.5.5,0,0,0-.52-.53.51.51,0,0,0-.53.53v1.53h-.35v-1.53a.83.83,0,0,1,.88-.85.78.78,0,0,1,.71.38.78.78,0,0,1,.71-.38.82.82,0,0,1,.87.85Z"/><path class="cls-2" d="M45.22,187a1,1,0,0,1-.89-.45h0a1.49,1.49,0,0,1,0,.24V188H44v-3.34h.34v.16a1.54,1.54,0,0,1,0,.24h0a1,1,0,0,1,.93-.47,1.16,1.16,0,0,1,1.18,1.22A1.17,1.17,0,0,1,45.22,187Zm-.9-1.23a.87.87,0,1,0,.87-.9A.85.85,0,0,0,44.32,185.78Z"/><path class="cls-2" d="M48,187a1.23,1.23,0,0,1,0-2.45,1.14,1.14,0,0,1,1.14,1.22.86.86,0,0,1,0,.16h-2a.82.82,0,0,0,.84.74.93.93,0,0,0,.74-.35l.21.22A1.16,1.16,0,0,1,48,187Zm-.84-1.38h1.61a.75.75,0,0,0-.78-.75A.81.81,0,0,0,47.16,185.63Z"/><path class="cls-2" d="M50.69,184.63V185H50v2h-.36v-2.31Z"/><path class="cls-2" d="M32.47,190.63V191H31.8v2h-.36v-2.31Z"/><path class="cls-2" d="M33.87,193a1.23,1.23,0,0,1,0-2.45A1.14,1.14,0,0,1,35,191.78s0,.12,0,.16H33a.82.82,0,0,0,.85.74.91.91,0,0,0,.73-.35l.21.22A1.13,1.13,0,0,1,33.87,193ZM33,191.63h1.62a.76.76,0,0,0-.79-.75A.82.82,0,0,0,33,191.63Z"/><path class="cls-2" d="M36.1,191.55l.3.14a.7.7,0,0,1,.5.66.69.69,0,0,1-.78.66.77.77,0,0,1-.81-.6l.28-.16a.54.54,0,0,0,.55.44c.24,0,.4-.12.4-.34s-.11-.27-.35-.38l-.28-.13c-.3-.14-.5-.31-.5-.65a.66.66,0,0,1,.72-.63.77.77,0,0,1,.77.52l-.27.15a.51.51,0,0,0-.5-.37.34.34,0,0,0-.37.32C35.76,191.35,35.87,191.45,36.1,191.55Z"/><path class="cls-2" d="M37.53,190.94h-.27v-.31h.27V190h.36v.62h.71v.31h-.71v1.68h.64v.32h-1Z"/><path class="cls-2" d="M38.83,191.78A1.22,1.22,0,1,1,40.05,193,1.19,1.19,0,0,1,38.83,191.78Zm2.08,0a.86.86,0,1,0-.86.9A.85.85,0,0,0,40.91,191.78Z"/><path class="cls-2" d="M42.84,190.63V191h-.67v2h-.36v-2.31Z"/><path class="cls-2" d="M44.24,190.56a.93.93,0,0,1,.89.48h0c0-.07,0-.13,0-.25v-.16h.34v2.31h-.34v-.22c0-.1,0-.17,0-.25h0a.94.94,0,0,1-.9.54,1.23,1.23,0,0,1,0-2.45Zm.89,1.22a.87.87,0,1,0-.87.9A.85.85,0,0,0,45.13,191.78Z"/><path class="cls-2" d="M46.26,190.94H46v-.31h.26V190h.36v.62h.72v.31h-.72v1.68h.65v.32h-1Z"/><path class="cls-2" d="M47.73,190a.22.22,0,0,1,.23-.22.23.23,0,0,1,.23.22.23.23,0,0,1-.23.24A.23.23,0,0,1,47.73,190Zm.05,3v-2.31h.36v2.31Z"/><path class="cls-2" d="M48.68,191.78A1.22,1.22,0,1,1,49.9,193,1.19,1.19,0,0,1,48.68,191.78Zm2.07,0a.86.86,0,1,0-.85.9A.85.85,0,0,0,50.75,191.78Z"/><path class="cls-2" d="M53.55,190.63v2.31h-.36v-2H52v2h-.36v-2.31Z"/><line class="cls-23" x1="47.52" y1="99.58" x2="37.52" y2="99.58"/><line class="cls-23" x1="47.52" y1="133.53" x2="37.52" y2="133.53"/><line class="cls-23" x1="47.52" y1="161.51" x2="37.52" y2="161.51"/></g></g></g></svg>