<svg xmlns="http://www.w3.org/2000/svg" xmlns:xlink="http://www.w3.org/1999/xlink" viewBox="0 0 180 252"><defs><style>.cls-1{fill:#eaeaea;}.cls-2{fill:#323232;}.cls-3{fill:#ddcd00;}.cls-4{fill:url(#radial-gradient);}.cls-5{fill:url(#radial-gradient-2);}.cls-6{fill:url(#radial-gradient-3);}.cls-7{fill:#ddee64;}.cls-8{fill:#ff4280;}.cls-9{fill:#e82169;}.cls-10{fill:#9ae0e2;fill-opacity:0.2;stroke:#9ae0e2;stroke-width:0.76px;}.cls-10,.cls-18{stroke-miterlimit:10;}.cls-11{fill:#43dcff;}.cls-12{fill:#00b0ff;}.cls-13{fill:#0049ff;}.cls-14{fill:#ffa400;}.cls-15{fill:#e9fcff;}.cls-16{fill:#fff;}.cls-17{fill:#69e3ff;}.cls-18{fill:none;stroke:#323232;stroke-linecap:round;stroke-width:0.5px;}</style><radialGradient id="radial-gradient" cx="-40.06" cy="1.97" r="154.78" gradientUnits="userSpaceOnUse"><stop offset="0" stop-color="#5f9304"/><stop offset="1" stop-color="#5f9304" stop-opacity="0"/></radialGradient><radialGradient id="radial-gradient-2" cx="94.08" cy="146.93" r="80.28" xlink:href="#radial-gradient"/><radialGradient id="radial-gradient-3" cx="102.67" cy="225.04" r="74.34" gradientUnits="userSpaceOnUse"><stop offset="0" stop-color="#8c6a51"/><stop offset="1" stop-color="#8c6a51" stop-opacity="0"/></radialGradient></defs><g id="Layer_2" data-name="Layer 2"><g id="content"><rect id="card" class="cls-1" width="180" height="252"/><g id="background"><polygon class="cls-2" points="169 11 169 224 152 241 11 241 11 28.26 28.26 11 169 11"/><circle class="cls-3" cx="115.73" cy="25.11" r="1.13"/><circle class="cls-3" cx="15.51" cy="166.69" r="1.13"/><circle class="cls-3" cx="162.59" cy="127.12" r="1.13"/><circle class="cls-3" cx="127.01" cy="91.91" r="1.13"/><circle class="cls-3" cx="66.49" cy="63.35" r="1.13"/><circle class="cls-3" cx="136.27" cy="35.53" r="1.75"/><circle class="cls-3" cx="100.99" cy="215.1" r="1.75"/><path class="cls-4" d="M93.67,115.67A49.57,49.57,0,0,1,74.34,155H13.68c-.92-.71-1.81-1.45-2.68-2.23V78.57a49.66,49.66,0,0,1,82.67,37.1Z"/><path class="cls-5" d="M169,167.54v41.68a25,25,0,1,1,0-41.68Z"/><path class="cls-6" d="M157.6,194.17a68.55,68.55,0,0,0,11.4-7V198c-2.35,1.45-4.87,2.83-7.51,4.13-18.59,9.12-36.71,10.3-40.47,2.63-2.28-4.63,1.24-11.45,8.49-18.13-3.33,3.9-4.72,7.58-3.42,10.24C128.89,202.53,143,201.33,157.6,194.17Z"/><polygon class="cls-7" points="60.02 252 25.02 252 25.02 58.51 42.52 76.02 60.02 58.51 60.02 252"/><polygon class="cls-7" points="25.02 0 60.02 0 60.02 30.51 42.52 13.01 25.02 30.51 25.02 0"/><polyline class="cls-8" points="57.78 46.39 64.02 47.31 42.52 68.82 21.02 47.32 27.29 46.39 57.78 46.39"/><path class="cls-3" d="M42.52,70.94l-24-24V34.7l24-24,24,24V46.94Zm-21-25.25,21,21,21-21V35.94l-21-21-21,21Z"/></g><g id="character_headshot" data-name="character headshot"><g id="collar"><path class="cls-9" d="M57.29,43.72s1.22-.68,2,0c1.48,1.34.79,1.87,0,3.62s-4.86,14-16.76,14v-6c2.66-.24,6-.31,9.81-5.64C56.36,44.12,57.29,43.72,57.29,43.72Z"/><path class="cls-9" d="M27.75,43.72s-1.23-.68-2,0c-1.48,1.34-.79,1.87,0,3.62s4.85,14,16.76,14v-6c-2.67-.24-6-.31-9.82-5.64C28.68,44.12,27.75,43.72,27.75,43.72Z"/></g><g id="_4a" data-name="4a"><path class="cls-10" d="M22.75,33.86c0,11.46,17.4,21.51,19.77,21.51s19.76-10,19.76-21.51S53,13.11,42.52,13.11,22.75,22.4,22.75,33.86Z"/><path class="cls-11" d="M33.21,31.78c1.65-2.45,4.07-7.16,9.31-7.16s7.66,4.71,9.3,7.16c3,4.48,4.54,12.34,4.54,12.34s-3.6,10.72-13.85,10.72S28.68,44.12,28.68,44.12,30.2,36.26,33.21,31.78Z"/><path class="cls-12" d="M32.65,36.55a2.75,2.75,0,0,0-1.83.89,2.45,2.45,0,0,0-.18,2Z"/><path class="cls-12" d="M52.38,36.55a2.78,2.78,0,0,1,1.84.89,2.49,2.49,0,0,1,.18,2Z"/><path class="cls-12" d="M32.21,49c2.28,4.43,5.83,7,10.31,7s8.34-3.15,10.3-7c2.12-4.2,1.32-9.51,1.32-9.51s.59,3.09-.94,1.9c-3.85-3-10.69.07-10.69.07S34,37.78,32.54,40c-2.21,3.39-1.65.49-1.65.49S31.17,46.94,32.21,49Z"/><path class="cls-13" d="M31.52,37.22l-.14,2.24c0,.38,0,.75,0,1.11,0,.18,0,.36,0,.53a1.12,1.12,0,0,0,.06.29s0,0-.12-.13a.5.5,0,0,0-.28-.08c-.15,0-.17.07-.15,0l.06-.16.17-.47a5.46,5.46,0,0,1,.58-1.21,3,3,0,0,1,1.41-1.1,4.34,4.34,0,0,1,1.78-.21,6.88,6.88,0,0,1,2.8,1,17.76,17.76,0,0,0,1.78.93,7,7,0,0,0,1.4.36,13.8,13.8,0,0,0,1.64.11,13.32,13.32,0,0,0,1.63-.1A5.27,5.27,0,0,0,45.49,40c.48-.19,1.07-.55,1.86-1a6.49,6.49,0,0,1,2.83-.87,4.32,4.32,0,0,1,1.7.24,3,3,0,0,1,1.38,1.06,5.28,5.28,0,0,1,.59,1.2l.18.49.07.17s0,0-.11,0a.31.31,0,0,0-.22.06c-.08.07-.07.06-.09.1a.94.94,0,0,0,.06-.34,4.61,4.61,0,0,0,0-.53c0-.36,0-.74,0-1.11,0-.74-.12-1.48-.2-2.23.22.72.43,1.44.62,2.17.09.36.18.73.25,1.11a5.4,5.4,0,0,1,.09.58,1.41,1.41,0,0,1-.06.76.65.65,0,0,1-.18.21.48.48,0,0,1-.36.08.87.87,0,0,1-.35-.14,1.92,1.92,0,0,1-.31-.23c-.18-.15-.33-.3-.46-.43a2.16,2.16,0,0,0-.78-.56c-.49-.15-.66.08-1.07.38a7.84,7.84,0,0,0-1.15,1.1A11.37,11.37,0,0,1,48.05,44a7.85,7.85,0,0,1-2.74,1.37,11.25,11.25,0,0,1-2.81.37,11.57,11.57,0,0,1-2.8-.36A8.46,8.46,0,0,1,37,44a11.76,11.76,0,0,1-1.81-1.74,10,10,0,0,0-1.12-1.13c-.38-.27-.46-.53-.95-.37a2.22,2.22,0,0,0-.75.57c-.14.13-.28.28-.47.45a1.88,1.88,0,0,1-.33.24.92.92,0,0,1-.38.16.59.59,0,0,1-.42-.1.6.6,0,0,1-.21-.23,1.2,1.2,0,0,1-.09-.49c0-.11,0-.22,0-.32a5.21,5.21,0,0,1,.09-.59q.12-.57.27-1.11Q31.13,38.28,31.52,37.22Z"/><path class="cls-14" d="M42,27.79l-1.24-7.93a1.81,1.81,0,1,1,3.58-.56,1.75,1.75,0,0,1,0,.56l-1.24,7.93a.56.56,0,0,1-.64.46A.55.55,0,0,1,42,27.79Z"/><circle class="cls-12" cx="42.52" cy="31.3" r="0.73"/><circle class="cls-12" cx="44.21" cy="33.86" r="0.73"/><circle class="cls-12" cx="40.82" cy="33.86" r="0.73"/><path class="cls-13" d="M45.39,26l.16,1a6.63,6.63,0,0,1,2.7.27,2.35,2.35,0,0,1,1.13,1.14s-.55-2.58-1.73-2.63A9.52,9.52,0,0,0,45.39,26Z"/><path class="cls-13" d="M39.65,26l-.16,1a6.56,6.56,0,0,0-2.7.26,2.31,2.31,0,0,0-1.13,1.13s.56-2.57,1.74-2.62A9.19,9.19,0,0,1,39.65,26Z"/><path class="cls-15" d="M51.88,30.67a2.94,2.94,0,0,1-1.2,4c-.6.26-1.93-.22-2.83-2.27S46.48,28,47.91,28A4.19,4.19,0,0,1,51.88,30.67Z"/><ellipse class="cls-14" cx="49.38" cy="31.82" rx="1.36" ry="3.17" transform="translate(-8.71 23.08) rotate(-24.25)"/><ellipse cx="49.38" cy="31.82" rx="0.86" ry="2.01" transform="translate(-8.71 23.08) rotate(-24.25)"/><path class="cls-15" d="M33.16,30.67c-.9,2-.1,3.39,1.2,4,.77.38,1.92-.22,2.82-2.27s1.37-4.45,0-4.46A4.19,4.19,0,0,0,33.16,30.67Z"/><ellipse class="cls-14" cx="35.66" cy="31.82" rx="3.17" ry="1.36" transform="translate(-8 51.26) rotate(-65.75)"/><ellipse cx="35.66" cy="31.82" rx="2.01" ry="0.86" transform="translate(-8 51.26) rotate(-65.75)"/><circle class="cls-16" cx="35.66" cy="21.7" r="1.51"/><circle class="cls-16" cx="30.71" cy="27.79" r="0.89"/><circle class="cls-16" cx="30.85" cy="23.39" r="1.03"/><path class="cls-16" d="M56,29.54a23,23,0,0,0,2.28-1.38C60.08,38.26,55.44,43,55.44,43,57.07,37.33,56.94,32.91,56,29.54Z"/><path class="cls-16" d="M48.48,16.86s7.36,2.68,9.44,9.66a17,17,0,0,1-2.38,1.54A14.61,14.61,0,0,0,49,20.19C49.28,19.33,48.48,16.86,48.48,16.86Z"/><path class="cls-16" d="M27.83,28.68S25.7,37.1,32.7,45.94c0,0-6.55-5.27-7.21-12.08S27.83,28.68,27.83,28.68Z"/></g></g><path class="cls-16" d="M76.87,63.12a1.12,1.12,0,0,1-1.15,1.12h-.59v1.14h-.8V62h1.39A1.11,1.11,0,0,1,76.87,63.12Zm-.79,0a.41.41,0,0,0-.44-.43h-.51v.87h.51A.42.42,0,0,0,76.08,63.12Z"/><path class="cls-16" d="M77.61,62h.8v2.68h1.08v.7H77.61Z"/><path class="cls-16" d="M82.68,62v3.38h-.79v-1H81v1h-.79V62ZM81,63.66h.88v-1H81Z"/><path class="cls-16" d="M86.06,63.08a1,1,0,0,0-.85-.45,1.06,1.06,0,0,0,0,2.1,1,1,0,0,0,.85-.45l.52.47a1.57,1.57,0,0,1-1.37.7,1.76,1.76,0,0,1,0-3.52,1.6,1.6,0,0,1,1.39.7Z"/><path class="cls-16" d="M87.29,62h2v.69H88.09v.65h1.13V64H88.09v.67h1.24v.7h-2Z"/><path class="cls-16" d="M91.4,63.69a1.72,1.72,0,1,1,1.72,1.76A1.66,1.66,0,0,1,91.4,63.69Zm2.63,0a.92.92,0,0,0-.91-1c-.57,0-.91.42-.91,1s.34,1.05.91,1.05S94,64.32,94,63.68Z"/><path class="cls-16" d="M95.64,62h2v.69H96.44v.79h1.14v.68H96.44v1.22h-.8Z"/><path class="cls-16" d="M99.56,63.69a1.73,1.73,0,1,1,1.72,1.76A1.66,1.66,0,0,1,99.56,63.69Zm2.64,0a.92.92,0,1,0-1.83,0c0,.64.35,1.05.91,1.05A.92.92,0,0,0,102.2,63.68Z"/><path class="cls-16" d="M104.81,64.11h-.21v1.27h-.79V62h2.37v2.11h-.5l.73,1.27h-.87Zm.58-1.42h-.79v.78h.79Z"/><path class="cls-16" d="M107.16,62H108v3.38h-.79Z"/><path class="cls-16" d="M110.34,63.48h1.75a1.78,1.78,0,0,1,0,.33,1.54,1.54,0,0,1-1.63,1.64,1.76,1.76,0,0,1,0-3.52,1.6,1.6,0,0,1,1.38.7l-.54.45a1,1,0,0,0-.84-.45,1.06,1.06,0,0,0,0,2.11.79.79,0,0,0,.83-.57h-1Z"/><path class="cls-16" d="M112.89,62h.8v3.38h-.8Z"/><path class="cls-16" d="M116.63,65.38l-1.21-2h0v2h-.76V62h.81l1.2,2h0V62h.76v3.38Z"/><path class="cls-16" d="M118.3,63.41a.44.44,0,0,1,.44-.44.43.43,0,0,1,.44.44.44.44,0,0,1-.44.44A.44.44,0,0,1,118.3,63.41Zm0,1.59a.44.44,0,0,1,.44-.44.43.43,0,0,1,.44.44.44.44,0,0,1-.44.44A.44.44,0,0,1,118.3,65Z"/><path class="cls-16" d="M122.36,62h.47L124,65.38h-.39l-.31-.93h-1.42l-.31.93h-.38ZM122,64.12h1.2l-.59-1.76h0Z"/><path class="cls-16" d="M127.59,65.38h-.36V63.84a.51.51,0,0,0-.53-.53.5.5,0,0,0-.52.53v1.54h-.36V63.84a.5.5,0,0,0-.52-.53.51.51,0,0,0-.53.53v1.54h-.36V63.84a.84.84,0,0,1,.88-.85.8.8,0,0,1,.72.39.79.79,0,0,1,.7-.39.83.83,0,0,1,.88.85Z"/><path class="cls-16" d="M129.52,65.45a1,1,0,0,1-.89-.45h0c0,.06,0,.12,0,.24v1.17h-.36V63.07h.34v.15a1.57,1.57,0,0,1,0,.25h0a1,1,0,0,1,.92-.48,1.23,1.23,0,0,1,0,2.46Zm-.9-1.23a.86.86,0,1,0,.86-.91A.85.85,0,0,0,128.62,64.22Z"/><path class="cls-16" d="M131.25,65.38V62h.36v1.07h1.54v2.31h-.36v-2h-1.18v2Z"/><path class="cls-16" d="M133.81,62.4a.23.23,0,1,1,.23.23A.23.23,0,0,1,133.81,62.4Zm.05,3V63.07h.36v2.31Z"/><path class="cls-16" d="M136.19,65.45a1,1,0,0,1-.91-.48h0a1.69,1.69,0,0,1,0,.25v.16h-.34V62h.36v1.2a1.38,1.38,0,0,1,0,.25h0a1,1,0,0,1,.89-.46,1.23,1.23,0,0,1,0,2.46Zm.82-1.23a.87.87,0,1,0-.86.9A.86.86,0,0,0,137,64.22Z"/><path class="cls-16" d="M137.87,62.4a.23.23,0,1,1,.23.23A.23.23,0,0,1,137.87,62.4Zm0,3V63.07h.36v2.31Z"/><path class="cls-16" d="M140,63a1,1,0,0,1,.89.49h0a1.7,1.7,0,0,1,0-.25v-.16h.34v2.31h-.34v-.22a1.85,1.85,0,0,1,0-.25h0a1,1,0,0,1-.9.54,1.16,1.16,0,0,1-1.2-1.23A1.18,1.18,0,0,1,140,63Zm.88,1.23a.87.87,0,1,0-.87.9A.86.86,0,0,0,140.92,64.22Z"/><path class="cls-16" d="M74.64,74.42a.48.48,0,0,0,.46.32.44.44,0,0,0,.47-.48V72.69H74.33V72h2v2.19a1.17,1.17,0,0,1-1.25,1.26A1.08,1.08,0,0,1,74,74.8Z"/><path class="cls-16" d="M77.13,73.69a1.72,1.72,0,1,1,1.72,1.76A1.66,1.66,0,0,1,77.13,73.69Zm2.63,0a.92.92,0,0,0-.91-1.05c-.57,0-.91.42-.91,1.05s.34,1,.91,1S79.76,74.32,79.76,73.68Z"/><path class="cls-16" d="M82.74,75.38H81.38V72h1.3a.92.92,0,0,1,1,.91.75.75,0,0,1-.46.72.86.86,0,0,1,.53.83A1,1,0,0,1,82.74,75.38Zm-.57-2h.41a.32.32,0,0,0,.35-.34.32.32,0,0,0-.34-.34h-.42Zm.83,1a.34.34,0,0,0-.36-.34h-.47v.69h.48A.34.34,0,0,0,83,74.34Z"/><path class="cls-16" d="M86.4,72.69h-.79V72H88v.69h-.8v2.69H86.4Z"/><path class="cls-16" d="M88.71,72h.8v3.38h-.8Z"/><path class="cls-16" d="M91,72.69h-.78V72h2.37v.69h-.79v2.69H91Z"/><path class="cls-16" d="M93.34,72h.79v2.68h1.08v.7H93.34Z"/><path class="cls-16" d="M97,75.45c-.78,0-1.25-.42-1.25-1a.83.83,0,0,1,.59-.85.79.79,0,0,1-.49-.77c0-.55.45-.9,1.17-.9a1.34,1.34,0,0,1,1,.38l-.41.54a.76.76,0,0,0-.58-.22c-.31,0-.43.13-.43.32s.19.37.56.37h.45V74h-.52c-.34,0-.54.14-.54.37s.17.39.49.39a.78.78,0,0,0,.58-.21l.39.52A1.19,1.19,0,0,1,97,75.45Z"/><path class="cls-16" d="M98.68,73.41a.44.44,0,0,1,.44-.44.43.43,0,0,1,.44.44.44.44,0,0,1-.44.44A.44.44,0,0,1,98.68,73.41Zm0,1.59a.44.44,0,0,1,.44-.44.43.43,0,0,1,.44.44.44.44,0,0,1-.44.44A.44.44,0,0,1,98.68,75Z"/><path class="cls-16" d="M101.88,72h.37v1.52H104V72h.37v3.38H104V73.84h-1.72v1.54h-.37Z"/><path class="cls-16" d="M105.26,76.09h1.31v-.78a1.62,1.62,0,0,1,0-.23h0a.66.66,0,0,1-.66.34.87.87,0,0,1-.87-.93V73.07h.36v1.42a.59.59,0,1,0,1.18,0V73.07h.36v3.34h-1.67Z"/><path class="cls-16" d="M108.67,73a1,1,0,0,1,.88.44h0c0-.07,0-.13,0-.25V72h.36v3.38h-.33v-.19a1.78,1.78,0,0,1,0-.25h0a1,1,0,0,1-.92.51,1.23,1.23,0,0,1,0-2.46Zm.9,1.23a.87.87,0,1,0-.87.9A.86.86,0,0,0,109.57,74.22Z"/><path class="cls-16" d="M111.66,73.07v.32H111v2h-.36V73.07Z"/><path class="cls-16" d="M111.84,74.22a1.22,1.22,0,1,1,1.22,1.23A1.2,1.2,0,0,1,111.84,74.22Zm2.08,0a.87.87,0,0,0-.86-.91.85.85,0,0,0-.85.91.84.84,0,0,0,.85.9A.86.86,0,0,0,113.92,74.22Z"/><path class="cls-16" d="M114.81,72h.36v3.06h.67v.32h-1Z"/><path class="cls-16" d="M116,74.22a1.22,1.22,0,1,1,1.22,1.23A1.2,1.2,0,0,1,116,74.22Zm2.08,0a.86.86,0,1,0-1.71,0,.86.86,0,1,0,1.71,0Z"/><path class="cls-16" d="M120,73a1,1,0,0,1,.91.49h0c0-.07,0-.14,0-.24v-.17h.33v3.34h-1.73v-.32h1.37v-1a1.57,1.57,0,0,1,0-.25h0a.89.89,0,0,1-.87.49A1.2,1.2,0,0,1,120,73Zm-.79,1.19a.85.85,0,1,0,.85-.87A.83.83,0,0,0,119.17,74.18Z"/><path class="cls-16" d="M121.87,72.4a.22.22,0,0,1,.22-.23.23.23,0,0,1,0,.46A.22.22,0,0,1,121.87,72.4Zm0,3V73.07h.36v2.31Z"/><path class="cls-16" d="M123.57,74l.3.14a.7.7,0,0,1,.5.66c0,.38-.3.66-.79.66a.79.79,0,0,1-.81-.61l.29-.15a.54.54,0,0,0,.55.44c.24,0,.4-.12.4-.34s-.11-.27-.35-.38l-.28-.13c-.3-.14-.51-.31-.51-.66a.66.66,0,0,1,.72-.63.78.78,0,0,1,.78.53l-.27.14a.52.52,0,0,0-.5-.36.34.34,0,0,0-.38.32C123.22,73.79,123.33,73.88,123.57,74Z"/><path class="cls-16" d="M125,73.38h-.27v-.31H125v-.62h.36v.62h.71v.31h-.71v1.68H126v.32h-1Z"/><path class="cls-16" d="M74.33,85.38V82h1.18a1.69,1.69,0,1,1,0,3.38Zm2.1-1.7a.88.88,0,0,0-.92-1h-.38v2h.38A.89.89,0,0,0,76.43,83.68Z"/><path class="cls-16" d="M79,84.11h-.17v1.27h-.8V82h1.34a1.09,1.09,0,0,1,1.16,1.07,1,1,0,0,1-.7,1l.77,1.35h-.89Zm.74-1a.41.41,0,0,0-.45-.4h-.46v.8h.46A.41.41,0,0,0,79.76,83.09Z"/><path class="cls-16" d="M81.38,82h2v.69H82.18v.65h1.13V84H82.18v.67h1.24v.7h-2Z"/><path class="cls-16" d="M86.69,85.38H85.9V84.5H85v.88h-.78V83.12a1.22,1.22,0,0,1,2.44,0ZM85,83.82h.87v-.64c0-.39-.19-.54-.43-.54s-.44.15-.44.54Z"/><path class="cls-16" d="M89,84.67l-.59-1.3h0v2h-.76V82h1l.72,1.66h0L90.09,82H91v3.38h-.76v-2h0l-.6,1.3Z"/><path class="cls-16" d="M93.64,84.42a.48.48,0,0,0,.46.32.44.44,0,0,0,.47-.48V82.69H93.33V82h2v2.19a1.17,1.17,0,0,1-1.25,1.26A1.08,1.08,0,0,1,93,84.8Z"/><path class="cls-16" d="M96.13,83.69a1.72,1.72,0,1,1,1.72,1.76A1.66,1.66,0,0,1,96.13,83.69Zm2.63,0a.92.92,0,0,0-.91-1.05c-.57,0-.91.42-.91,1.05s.34,1,.91,1S98.76,84.32,98.76,83.68Z"/><path class="cls-16" d="M100.37,82h1.31c.62,0,1,.33,1,.85a.67.67,0,0,1-.37.65v0a1.19,1.19,0,0,1,.28,0h.13v1.88h-2.39ZM102,84.69V84h-.83v.72Zm-.41-1.33a.32.32,0,0,0,.35-.34.32.32,0,0,0-.34-.34h-.42v.68Z"/><path class="cls-16" d="M105.46,82.69h-.79V82H107v.69h-.79v2.69h-.79Z"/><path class="cls-16" d="M107.77,82h.79v3.38h-.79Z"/><path class="cls-16" d="M110.08,82.69h-.79V82h2.38v.69h-.8v2.69h-.79Z"/><path class="cls-16" d="M112.39,82h.8v2.68h1.08v.7h-1.88Z"/><path class="cls-16" d="M115,82h2v.69h-1.22v.65h1.13V84h-1.13v.67H117v.7h-2Z"/><path class="cls-16" d="M117.8,83.41a.45.45,0,0,1,.45-.44.44.44,0,0,1,.44.44.44.44,0,0,1-.44.44A.45.45,0,0,1,117.8,83.41Zm0,1.59a.45.45,0,0,1,.45-.44.44.44,0,0,1,.44.44.44.44,0,0,1-.44.44A.45.45,0,0,1,117.8,85Z"/><path class="cls-16" d="M121.74,83.34l.52.31a1,1,0,0,1,.63.89.91.91,0,0,1-1,.91,1,1,0,0,1-1.07-1l.32-.1a.77.77,0,0,0,.77.74.56.56,0,0,0,.63-.56c0-.22-.12-.42-.45-.61l-.48-.28c-.38-.23-.67-.43-.67-.9a.85.85,0,0,1,.94-.83.93.93,0,0,1,1,.79l-.32.09a.66.66,0,0,0-.69-.55c-.35,0-.56.2-.56.48S121.44,83.17,121.74,83.34Z"/><path class="cls-16" d="M124.51,85.45a1.23,1.23,0,0,1,0-2.46,1.14,1.14,0,0,1,1.14,1.23.86.86,0,0,1,0,.16h-2a.82.82,0,0,0,.84.74.93.93,0,0,0,.74-.35l.21.21A1.14,1.14,0,0,1,124.51,85.45Zm-.84-1.38h1.61a.77.77,0,0,0-.78-.76A.81.81,0,0,0,123.67,84.07Z"/><path class="cls-16" d="M128.06,83.07v2.31h-.36v-2h-1.18v2h-.36V83.07Z"/><path class="cls-16" d="M128.72,82.4a.23.23,0,0,1,.23-.23.23.23,0,1,1,0,.46A.23.23,0,0,1,128.72,82.4Zm.05,3V83.07h.36v2.31Z"/><path class="cls-16" d="M129.67,84.22a1.22,1.22,0,1,1,1.22,1.23A1.2,1.2,0,0,1,129.67,84.22Zm2.07,0a.85.85,0,1,0-1.7,0,.85.85,0,1,0,1.7,0Z"/><path class="cls-16" d="M133.68,83.07v.32H133v2h-.36V83.07Z"/><path class="cls-16" d="M74.41,88h1.91v.32H74.78v1.3h1.43v.32H74.78v1.44h-.37Z"/><path class="cls-16" d="M77.75,89.07v.32h-.68v2h-.36V89.07Z"/><path class="cls-16" d="M79.15,91.45a1.23,1.23,0,0,1,0-2.46,1.14,1.14,0,0,1,1.14,1.23.86.86,0,0,1,0,.16h-2a.82.82,0,0,0,.84.74.93.93,0,0,0,.74-.35l.21.21A1.14,1.14,0,0,1,79.15,91.45Zm-.84-1.38h1.61a.76.76,0,0,0-.78-.76A.82.82,0,0,0,78.31,90.07Z"/><path class="cls-16" d="M82.63,89.89v.5h-1.5v.67h1.4v.32H80.77V89.9a.87.87,0,0,1,.94-.91A.85.85,0,0,1,82.63,89.89Zm-1.5,0v.19h1.14v-.19a.55.55,0,0,0-.57-.58A.54.54,0,0,0,81.13,89.89Z"/><path class="cls-16" d="M83.12,89.52h1.57v.32H83.12Z"/><path class="cls-16" d="M85.37,88h1.91v.32H85.74v1.3h1.42v.32H85.74v1.44h-.37Z"/><path class="cls-16" d="M87.76,88h.36v3.06h.66v.32h-1Z"/><path class="cls-16" d="M88.94,90.22a1.22,1.22,0,1,1,1.22,1.23A1.2,1.2,0,0,1,88.94,90.22Zm2.08,0a.86.86,0,1,0-1.71,0,.86.86,0,1,0,1.71,0Z"/><path class="cls-16" d="M93,89a.93.93,0,0,1,.89.49h0a1.7,1.7,0,0,1,0-.25v-.16h.34v2.31h-.34v-.22a1.85,1.85,0,0,1,0-.25h0a1,1,0,0,1-.9.54,1.16,1.16,0,0,1-1.2-1.23A1.18,1.18,0,0,1,93,89Zm.88,1.23a.87.87,0,1,0-.87.9A.86.86,0,0,0,93.84,90.22Z"/><path class="cls-16" d="M95,89.38h-.27v-.31H95v-.62h.36v.62h.71v.31h-.71v1.68H96v.32H95Z"/><path class="cls-16" d="M97.5,91.45a1.23,1.23,0,0,1,0-2.46,1.15,1.15,0,0,1,1.14,1.23s0,.12,0,.16h-2a.82.82,0,0,0,.85.74.91.91,0,0,0,.73-.35l.21.21A1.11,1.11,0,0,1,97.5,91.45Zm-.84-1.38h1.62a.77.77,0,0,0-.79-.76A.83.83,0,0,0,96.66,90.07Z"/><path class="cls-16" d="M100.19,89.07v.32h-.68v2h-.36V89.07Z"/><path class="cls-16" d="M76.27,105.19h2.28a.66.66,0,0,1,0,.19,2,2,0,0,1-2.1,2.09,2.25,2.25,0,0,1,0-4.5,2.07,2.07,0,0,1,1.75.88l-.33.26A1.78,1.78,0,1,0,76.47,107a1.51,1.51,0,0,0,1.61-1.43H76.27Z"/><path class="cls-16" d="M79.15,103.57a.3.3,0,0,1,.59,0,.3.3,0,1,1-.59,0Zm.06,3.81v-3h.46v3Z"/><path class="cls-16" d="M80.59,103.06h.46V107h.85v.41H80.59Z"/><path class="cls-16" d="M82.35,106.37v-3.31h.46v3.26a.62.62,0,0,0,.68.68,1.18,1.18,0,0,0,.21,0v.41a1.12,1.12,0,0,1-.29,0A1,1,0,0,1,82.35,106.37Z"/><path class="cls-16" d="M87.78,105.22a1.13,1.13,0,1,0-.92,1.83,1.13,1.13,0,0,0,1-.51l.28.27a1.44,1.44,0,0,1-1.23.66,1.57,1.57,0,0,1,0-3.14,1.46,1.46,0,0,1,1.21.61Z"/><path class="cls-16" d="M90,104.33a1.19,1.19,0,0,1,1.14.62h0a2.16,2.16,0,0,1,0-.31v-.22h.44v3h-.44v-.28a2.88,2.88,0,0,1,0-.32h0a1.19,1.19,0,0,1-1.15.69,1.57,1.57,0,0,1,0-3.14Zm1.13,1.57A1.11,1.11,0,1,0,90,107.05,1.1,1.1,0,0,0,91.11,105.9Z"/><path class="cls-16" d="M93.79,104.42v.41h-.87v2.55h-.46v-3Z"/><path class="cls-16" d="M95.59,104.37v.4l-.24,0a.59.59,0,0,0-.63.67v2h-.46v-2a1,1,0,0,1,1-1A.81.81,0,0,1,95.59,104.37Z"/><path class="cls-16" d="M96.07,103.57a.28.28,0,0,1,.29-.28.28.28,0,0,1,.29.28.29.29,0,0,1-.29.3A.28.28,0,0,1,96.07,103.57Zm.06,3.81v-3h.46v3Z"/><path class="cls-16" d="M98.84,107.47a1.57,1.57,0,0,1,0-3.14,1.47,1.47,0,0,1,1.46,1.57s0,.15,0,.2H97.76a1.05,1.05,0,0,0,1.09,1,1.14,1.14,0,0,0,.93-.45l.27.28A1.45,1.45,0,0,1,98.84,107.47Zm-1.08-1.76h2.07a1,1,0,0,0-1-1A1.06,1.06,0,0,0,97.76,105.71Z"/><path class="cls-16" d="M101.69,105.61l.39.18a.88.88,0,0,1,.64.83c0,.5-.4.85-1,.85a1,1,0,0,1-1-.77l.37-.2a.69.69,0,0,0,.7.56c.3,0,.52-.15.52-.44s-.15-.34-.45-.48l-.37-.17a.87.87,0,0,1-.64-.83.85.85,0,0,1,.92-.81,1,1,0,0,1,1,.67l-.35.19a.66.66,0,0,0-.64-.47.43.43,0,0,0-.48.41C101.25,105.35,101.39,105.47,101.69,105.61Z"/><path class="cls-16" d="M104.67,105.9a1.56,1.56,0,1,1,1.56,1.57A1.53,1.53,0,0,1,104.67,105.9Zm2.65,0a1.09,1.09,0,1,0-1.09,1.15A1.09,1.09,0,0,0,107.32,105.9Z"/><path class="cls-16" d="M110.9,104.42v3h-.46v-2.55h-1.51v2.55h-.46v-3Z"/><path class="cls-16" d="M114.54,104.33a1.23,1.23,0,0,1,1.17.62h0c0-.09,0-.18,0-.31v-.22h.43v4.28h-2.22v-.41h1.76v-1.22a3,3,0,0,1,0-.32h0a1.16,1.16,0,0,1-1.12.63,1.53,1.53,0,0,1,0-3Zm-1,1.52a1.08,1.08,0,1,0,1.08-1.11A1.06,1.06,0,0,0,113.54,105.85Z"/><path class="cls-16" d="M118.38,107.47a1.57,1.57,0,0,1,0-3.14,1.47,1.47,0,0,1,1.46,1.57s0,.15,0,.2H117.3a1.05,1.05,0,0,0,1.08,1,1.14,1.14,0,0,0,.94-.45l.27.28A1.47,1.47,0,0,1,118.38,107.47Zm-1.08-1.76h2.07a1,1,0,0,0-1-1A1.06,1.06,0,0,0,117.3,105.71Z"/><path class="cls-16" d="M122.92,104.42v3h-.46v-2.55H121v2.55h-.46v-3Z"/><path class="cls-16" d="M125.16,107.47a1.57,1.57,0,0,1,0-3.14,1.47,1.47,0,0,1,1.46,1.57s0,.15,0,.2h-2.52a1.05,1.05,0,0,0,1.08,1,1.14,1.14,0,0,0,.94-.45l.27.28A1.47,1.47,0,0,1,125.16,107.47Zm-1.08-1.76h2.07a1,1,0,0,0-1-1A1.06,1.06,0,0,0,124.08,105.71Z"/><path class="cls-16" d="M128.59,104.42v.41h-.86v2.55h-.46v-3Z"/><path class="cls-16" d="M130.38,104.33a1.19,1.19,0,0,1,1.14.62h0a2.55,2.55,0,0,1,0-.31v-.22H132v3h-.43v-.28a3.11,3.11,0,0,1,0-.32h0a1.2,1.2,0,0,1-1.15.69,1.57,1.57,0,0,1,0-3.14Zm1.13,1.57a1.11,1.11,0,1,0-1.11,1.15A1.1,1.1,0,0,0,131.51,105.9Z"/><path class="cls-16" d="M133,104.83h-.34v-.41H133v-.78h.46v.78h.91v.41h-.91V107h.82v.41H133Z"/><path class="cls-16" d="M134.83,103.57a.28.28,0,0,1,.29-.28.29.29,0,0,1,.3.28.29.29,0,0,1-.3.3A.29.29,0,0,1,134.83,103.57Zm.06,3.81v-3h.46v3Z"/><path class="cls-16" d="M136,105.9a1.56,1.56,0,1,1,1.56,1.57A1.53,1.53,0,0,1,136,105.9Zm2.65,0a1.09,1.09,0,1,0-1.09,1.15A1.09,1.09,0,0,0,138.69,105.9Z"/><path class="cls-16" d="M142.27,104.42v3h-.46v-2.55H140.3v2.55h-.46v-3Z"/><path class="cls-16" d="M143.91,105.61l.4.18a.87.87,0,0,1,.63.83.88.88,0,0,1-1,.85,1,1,0,0,1-1-.77l.36-.2a.71.71,0,0,0,.71.56c.3,0,.51-.15.51-.44s-.14-.34-.44-.48l-.37-.17a.87.87,0,0,1-.64-.83.84.84,0,0,1,.92-.81,1,1,0,0,1,1,.67l-.34.19a.66.66,0,0,0-.64-.47.43.43,0,0,0-.48.41C143.48,105.35,143.62,105.47,143.91,105.61Z"/><path class="cls-16" d="M146.9,105.9a1.56,1.56,0,1,1,1.56,1.57A1.53,1.53,0,0,1,146.9,105.9Zm2.65,0a1.09,1.09,0,1,0-1.09,1.15A1.09,1.09,0,0,0,149.55,105.9Z"/><path class="cls-16" d="M150.42,104.42h.35v-1.36h1.32v.4h-.86v1h.82v.41h-.82v2.55h-.46v-2.55h-.35Z"/><path class="cls-16" d="M74.58,112.83h-.34v-.41h.34v-.78H75v.78H76v.41H75V115h.82v.41H74.58Z"/><path class="cls-16" d="M77.84,112.42v.41H77v2.55h-.46v-3Z"/><path class="cls-16" d="M79.62,112.33a1.19,1.19,0,0,1,1.14.62h0c0-.08,0-.16,0-.31v-.22h.43v3h-.43v-.28c0-.13,0-.22,0-.32h0a1.19,1.19,0,0,1-1.15.69,1.48,1.48,0,0,1-1.53-1.57A1.5,1.5,0,0,1,79.62,112.33Zm1.13,1.57a1.11,1.11,0,1,0-1.11,1.15A1.1,1.1,0,0,0,80.75,113.9Z"/><path class="cls-16" d="M83.42,112.33a1.29,1.29,0,0,1,1.13.55h0c0-.08,0-.16,0-.31v-1.51H85v4.32h-.43v-.25a2.41,2.41,0,0,1,0-.31h0a1.24,1.24,0,0,1-1.17.65,1.57,1.57,0,0,1,0-3.14Zm1.15,1.57a1.11,1.11,0,1,0-1.1,1.15A1.09,1.09,0,0,0,84.57,113.9Z"/><path class="cls-16" d="M85.86,111.57a.28.28,0,0,1,.29-.28.28.28,0,0,1,.29.28.29.29,0,0,1-.29.3A.28.28,0,0,1,85.86,111.57Zm.06,3.81v-3h.46v3Z"/><path class="cls-16" d="M87.4,112.83h-.34v-.41h.34v-.78h.46v.78h.91v.41h-.91V115h.82v.41H87.4Z"/><path class="cls-16" d="M89.27,111.57a.28.28,0,0,1,.29-.28.28.28,0,0,1,.29.28.29.29,0,0,1-.29.3A.28.28,0,0,1,89.27,111.57Zm.06,3.81v-3h.46v3Z"/><path class="cls-16" d="M90.48,113.9A1.56,1.56,0,1,1,92,115.47,1.53,1.53,0,0,1,90.48,113.9Zm2.65,0A1.09,1.09,0,1,0,92,115.05,1.09,1.09,0,0,0,93.13,113.9Z"/><path class="cls-16" d="M96.71,112.42v3h-.46v-2.55H94.74v2.55h-.46v-3Z"/><path class="cls-16" d="M99,111.57a.28.28,0,0,1,.29-.28.28.28,0,0,1,.29.28.29.29,0,0,1-.29.3A.28.28,0,0,1,99,111.57Zm.06,3.81v-3h.46v3Z"/><path class="cls-16" d="M102.9,112.42v3h-.46v-2.55h-1.51v2.55h-.46v-3Z"/><path class="cls-16" d="M105.29,115.38v-4.32h.46v1.36h2v3h-.46v-2.55h-1.51v2.55Z"/><path class="cls-16" d="M108.56,111.57a.3.3,0,1,1,.3.3A.29.29,0,0,1,108.56,111.57Zm.07,3.81v-3h.46v3Z"/><path class="cls-16" d="M110.74,113.61l.39.18a.88.88,0,0,1,.64.83c0,.5-.4.85-1,.85a1,1,0,0,1-1-.77l.37-.2a.69.69,0,0,0,.7.56c.3,0,.52-.15.52-.44s-.15-.34-.45-.48l-.37-.17a.87.87,0,0,1-.64-.83.85.85,0,0,1,.92-.81,1,1,0,0,1,1,.67l-.35.19a.66.66,0,0,0-.64-.47.43.43,0,0,0-.48.41C110.3,113.35,110.44,113.47,110.74,113.61Z"/><path class="cls-16" d="M113.71,112.42h.34v-1.36h1.32v.4h-.86v1h.83v.41h-.83v2.55h-.46v-2.55h-.34Z"/><path class="cls-16" d="M117.1,112.33a1.19,1.19,0,0,1,1.13.62h0a2.16,2.16,0,0,1,0-.31v-.22h.44v3h-.44v-.28a2.88,2.88,0,0,1,0-.32h0a1.19,1.19,0,0,1-1.15.69,1.49,1.49,0,0,1-1.53-1.57A1.5,1.5,0,0,1,117.1,112.33Zm1.12,1.57a1.11,1.11,0,1,0-1.11,1.15A1.1,1.1,0,0,0,118.22,113.9Z"/><path class="cls-16" d="M123.59,115.38h-.46v-2a.67.67,0,1,0-1.34,0v2h-.46v-2a.64.64,0,0,0-.66-.68.65.65,0,0,0-.68.68v2h-.46v-2a1.08,1.08,0,0,1,1.13-1.09,1,1,0,0,1,.91.49,1,1,0,0,1,.9-.49,1.06,1.06,0,0,1,1.12,1.09Z"/><path class="cls-16" d="M124.4,111.57a.28.28,0,0,1,.29-.28.28.28,0,0,1,.29.28.29.29,0,0,1-.29.3A.28.28,0,0,1,124.4,111.57Zm.06,3.81v-3h.46v3Z"/><path class="cls-16" d="M125.83,111.06h.46V115h.86v.41h-1.32Z"/><path class="cls-16" d="M127.84,116.29h1.68v-1a2.54,2.54,0,0,1,0-.3h0c-.06.17-.31.43-.85.43a1.11,1.11,0,0,1-1.11-1.18v-1.83H128v1.82a.76.76,0,1,0,1.51,0v-1.82H130v4.28h-2.14Z"/><path class="cls-16" d="M133.7,112.33a1.19,1.19,0,0,1,1.13.62h0a2.16,2.16,0,0,1,0-.31v-.22h.44v3h-.44v-.28a2.88,2.88,0,0,1,0-.32h0a1.19,1.19,0,0,1-1.15.69,1.49,1.49,0,0,1-1.53-1.57A1.5,1.5,0,0,1,133.7,112.33Zm1.12,1.57a1.11,1.11,0,1,0-1.11,1.15A1.1,1.1,0,0,0,134.82,113.9Z"/><path class="cls-16" d="M136.91,113.61l.39.18a.88.88,0,0,1,.64.83c0,.5-.39.85-1,.85a1,1,0,0,1-1-.77l.36-.2a.7.7,0,0,0,.7.56c.31,0,.52-.15.52-.44s-.14-.34-.45-.48l-.36-.17c-.38-.17-.65-.39-.65-.83a.85.85,0,0,1,.92-.81,1,1,0,0,1,1,.67l-.35.19a.65.65,0,0,0-.63-.47.44.44,0,0,0-.49.41C136.47,113.35,136.61,113.47,136.91,113.61Z"/><path class="cls-16" d="M141.45,112.33a1.22,1.22,0,0,1,1.14.62h0a2.55,2.55,0,0,1,0-.31v-.22H143v3h-.43v-.28a3.11,3.11,0,0,1,0-.32h0a1.21,1.21,0,0,1-1.15.69,1.57,1.57,0,0,1,0-3.14Zm1.12,1.57a1.1,1.1,0,1,0-1.11,1.15A1.1,1.1,0,0,0,142.57,113.9Z"/><path class="cls-16" d="M74.48,123.38v-4.32h.46v1.36h2v3h-.46v-2.55h-1.5v2.55Z"/><path class="cls-16" d="M78.06,124.29h1.67v-1c0-.13,0-.22,0-.3h0a.85.85,0,0,1-.85.43,1.11,1.11,0,0,1-1.11-1.18v-1.83h.46v1.82a.75.75,0,1,0,1.5,0v-1.82h.46v4.28H78.06Z"/><path class="cls-16" d="M82.42,120.33a1.29,1.29,0,0,1,1.13.55h0c0-.08,0-.16,0-.31v-1.51H84v4.32h-.43v-.25a2.41,2.41,0,0,1,0-.31h0a1.24,1.24,0,0,1-1.17.65,1.57,1.57,0,0,1,0-3.14Zm1.15,1.57a1.11,1.11,0,1,0-1.11,1.15A1.1,1.1,0,0,0,83.57,121.9Z"/><path class="cls-16" d="M86.24,120.42v.41h-.86v2.55h-.46v-3Z"/><path class="cls-16" d="M86.47,121.9A1.56,1.56,0,1,1,88,123.47,1.53,1.53,0,0,1,86.47,121.9Zm2.65,0A1.09,1.09,0,1,0,88,123.05,1.09,1.09,0,0,0,89.12,121.9Z"/><path class="cls-16" d="M90.27,119.06h.46V123h.85v.41H90.27Z"/><path class="cls-16" d="M91.79,121.9a1.56,1.56,0,1,1,1.56,1.57A1.53,1.53,0,0,1,91.79,121.9Zm2.65,0a1.09,1.09,0,1,0-1.09,1.15A1.09,1.09,0,0,0,94.44,121.9Z"/><path class="cls-16" d="M96.85,120.33A1.23,1.23,0,0,1,98,121h0c0-.09,0-.18,0-.31v-.22h.43v4.28H96.22v-.41H98v-1.22a1.52,1.52,0,0,1,0-.32h0a1.16,1.16,0,0,1-1.12.63,1.53,1.53,0,0,1,0-3Zm-1,1.52a1.08,1.08,0,1,0,1.08-1.11A1.06,1.06,0,0,0,95.84,121.85Z"/><path class="cls-16" d="M99.28,119.57a.3.3,0,1,1,.3.3A.29.29,0,0,1,99.28,119.57Zm.07,3.81v-3h.46v3Z"/><path class="cls-16" d="M101.46,121.61l.39.18a.88.88,0,0,1,.64.83c0,.5-.4.85-1,.85a1,1,0,0,1-1-.77l.37-.2a.69.69,0,0,0,.7.56c.3,0,.52-.15.52-.44s-.15-.34-.45-.48l-.37-.17a.87.87,0,0,1-.64-.83.85.85,0,0,1,.92-.81,1,1,0,0,1,1,.67l-.35.19a.66.66,0,0,0-.64-.47.43.43,0,0,0-.48.41C101,121.35,101.16,121.47,101.46,121.61Z"/><path class="cls-16" d="M103.28,120.83H103v-.41h.33v-.78h.46v.78h.91v.41h-.91V123h.83v.41h-1.29Z"/><path class="cls-16" d="M107.44,121.61l.39.18a.88.88,0,0,1,.64.83c0,.5-.4.85-1,.85a1,1,0,0,1-1-.77l.37-.2a.69.69,0,0,0,.7.56c.3,0,.52-.15.52-.44s-.15-.34-.45-.48l-.37-.17a.87.87,0,0,1-.64-.83.85.85,0,0,1,.92-.81,1,1,0,0,1,1,.67l-.35.19a.66.66,0,0,0-.64-.47.43.43,0,0,0-.48.41C107,121.35,107.14,121.47,107.44,121.61Z"/><path class="cls-16" d="M110.75,123.47a1.21,1.21,0,0,1-1.13-.58h0a1.28,1.28,0,0,1,0,.31v1.5h-.46v-4.28h.43v.21a2.82,2.82,0,0,1,0,.31h0a1.34,1.34,0,0,1,1.19-.61,1.57,1.57,0,0,1,0,3.14Zm-1.15-1.57a1.11,1.11,0,1,0,1.11-1.16A1.1,1.1,0,0,0,109.6,121.9Z"/><path class="cls-16" d="M114.31,123.47a1.57,1.57,0,0,1,0-3.14,1.47,1.47,0,0,1,1.46,1.57s0,.15,0,.2h-2.52a1.05,1.05,0,0,0,1.08,1,1.14,1.14,0,0,0,.94-.45l.27.28A1.47,1.47,0,0,1,114.31,123.47Zm-1.08-1.76h2.07a1,1,0,0,0-1-1A1.06,1.06,0,0,0,113.23,121.71Z"/><path class="cls-16" d="M118.68,121.22a1.13,1.13,0,1,0-.92,1.83,1.13,1.13,0,0,0,.95-.51l.28.27a1.44,1.44,0,0,1-1.23.66,1.57,1.57,0,0,1,0-3.14,1.45,1.45,0,0,1,1.21.61Z"/><path class="cls-16" d="M119.52,119.57a.28.28,0,0,1,.29-.28.28.28,0,0,1,.29.28.29.29,0,0,1-.29.3A.28.28,0,0,1,119.52,119.57Zm.06,3.81v-3H120v3Z"/><path class="cls-16" d="M122.28,120.33a1.19,1.19,0,0,1,1.14.62h0c0-.08,0-.16,0-.31v-.22h.43v3h-.43v-.28c0-.13,0-.22,0-.32h0a1.19,1.19,0,0,1-1.15.69,1.48,1.48,0,0,1-1.53-1.57A1.5,1.5,0,0,1,122.28,120.33Zm1.13,1.57a1.11,1.11,0,1,0-1.11,1.15A1.1,1.1,0,0,0,123.41,121.9Z"/><path class="cls-16" d="M124.76,119.06h.46V123h.85v.41h-1.31Z"/><path class="cls-16" d="M126.51,119.57a.3.3,0,1,1,.3.3A.29.29,0,0,1,126.51,119.57Zm.07,3.81v-3H127v3Z"/><path class="cls-16" d="M127.72,120.42H130L128.39,123h1.54v.41h-2.31l1.65-2.55h-1.55Z"/><path class="cls-16" d="M130.54,119.57a.28.28,0,0,1,.29-.28.29.29,0,0,1,.3.28.29.29,0,0,1-.3.3A.29.29,0,0,1,130.54,119.57Zm.06,3.81v-3h.46v3Z"/><path class="cls-16" d="M134.4,120.42v3h-.46v-2.55h-1.5v2.55H132v-3Z"/><path class="cls-16" d="M136.57,120.33a1.23,1.23,0,0,1,1.16.62h0c0-.09,0-.18,0-.31v-.22h.43v4.28h-2.22v-.41h1.76v-1.22a1.52,1.52,0,0,1,0-.32h0a1.16,1.16,0,0,1-1.12.63,1.53,1.53,0,0,1,0-3Zm-1,1.52a1.08,1.08,0,1,0,1.08-1.11A1.06,1.06,0,0,0,135.56,121.85Z"/><path class="cls-16" d="M140.49,119.57a.28.28,0,0,1,.29-.28.28.28,0,0,1,.29.28.29.29,0,0,1-.29.3A.28.28,0,0,1,140.49,119.57Zm.06,3.81v-3H141v3Z"/><path class="cls-16" d="M144.35,120.42v3h-.46v-2.55h-1.51v2.55h-.46v-3Z"/><path class="cls-16" d="M74.48,131.38v-3h.46V131h1.47v-2.55h.46v3Z"/><path class="cls-16" d="M80.2,128.42v3h-.46v-2.55h-1.5v2.55h-.46v-3Z"/><path class="cls-16" d="M82.43,128.33a1.29,1.29,0,0,1,1.13.55h0c0-.08,0-.16,0-.31v-1.51H84v4.32h-.43v-.25a2.41,2.41,0,0,1,0-.31h0a1.24,1.24,0,0,1-1.17.65,1.57,1.57,0,0,1,0-3.14Zm1.15,1.57a1.11,1.11,0,1,0-1.1,1.15A1.09,1.09,0,0,0,83.58,129.9Z"/><path class="cls-16" d="M86.26,131.47a1.57,1.57,0,0,1,0-3.14,1.46,1.46,0,0,1,1.45,1.57,1.34,1.34,0,0,1,0,.2H85.19a1.05,1.05,0,0,0,1.08,1,1.14,1.14,0,0,0,.94-.45l.27.28A1.48,1.48,0,0,1,86.26,131.47Zm-1.07-1.76h2.06a1,1,0,0,0-1-1A1,1,0,0,0,85.19,129.71Z"/><path class="cls-16" d="M89.7,128.42v.41h-.87v2.55h-.46v-3Z"/><path class="cls-16" d="M91.42,128.33a1.22,1.22,0,0,1,1.16.62h0a2.54,2.54,0,0,1,0-.31v-.22H93v4.28H90.8v-.41h1.75v-1.22a2.73,2.73,0,0,1,0-.32h0a1.16,1.16,0,0,1-1.12.63,1.53,1.53,0,0,1,0-3Zm-1,1.52a1.08,1.08,0,1,0,1.07-1.11A1.06,1.06,0,0,0,90.42,129.85Z"/><path class="cls-16" d="M95.24,128.42v.41h-.86v2.55h-.46v-3Z"/><path class="cls-16" d="M95.47,129.9A1.56,1.56,0,1,1,97,131.47,1.53,1.53,0,0,1,95.47,129.9Zm2.65,0A1.09,1.09,0,1,0,97,131.05,1.09,1.09,0,0,0,98.12,129.9Z"/><path class="cls-16" d="M99.27,131.38v-3h.46V131h1.47v-2.55h.46v3Z"/><path class="cls-16" d="M105,128.42v3h-.46v-2.55H103v2.55h-.46v-3Z"/><path class="cls-16" d="M107.22,128.33a1.28,1.28,0,0,1,1.13.55h0a2.55,2.55,0,0,1,0-.31v-1.51h.45v4.32h-.42v-.25a2.73,2.73,0,0,1,0-.31h0a1.25,1.25,0,0,1-1.17.65,1.57,1.57,0,0,1,0-3.14Zm1.15,1.57a1.1,1.1,0,1,0-1.1,1.15A1.09,1.09,0,0,0,108.37,129.9Z"/><path class="cls-16" d="M112.53,128.42v.41h-.86v2.55h-.46v-3Z"/><path class="cls-16" d="M114.32,131.47a1.57,1.57,0,0,1,0-3.14,1.47,1.47,0,0,1,1.46,1.57s0,.15,0,.2h-2.52a1.05,1.05,0,0,0,1.09,1,1.14,1.14,0,0,0,.93-.45l.27.28A1.45,1.45,0,0,1,114.32,131.47Zm-1.08-1.76h2.07a1,1,0,0,0-1-1A1.06,1.06,0,0,0,113.24,129.71Z"/><path class="cls-16" d="M117.17,129.61l.39.18a.88.88,0,0,1,.64.83c0,.5-.4.85-1,.85a1,1,0,0,1-1-.77l.37-.2a.69.69,0,0,0,.7.56c.3,0,.51-.15.51-.44s-.14-.34-.44-.48l-.37-.17a.87.87,0,0,1-.64-.83.85.85,0,0,1,.92-.81,1,1,0,0,1,1,.67l-.35.19a.66.66,0,0,0-.64-.47.43.43,0,0,0-.48.41C116.73,129.35,116.87,129.47,117.17,129.61Z"/><path class="cls-16" d="M120.22,131.47a1.57,1.57,0,0,1,0-3.14,1.46,1.46,0,0,1,1.45,1.57,1.34,1.34,0,0,1,0,.2h-2.51a1.05,1.05,0,0,0,1.08,1,1.14,1.14,0,0,0,.94-.45l.27.28A1.48,1.48,0,0,1,120.22,131.47Zm-1.07-1.76h2.06a1,1,0,0,0-1-1A1,1,0,0,0,119.15,129.71Z"/><path class="cls-16" d="M123.66,128.42v.41h-.87v2.55h-.46v-3Z"/><path class="cls-16" d="M125,131.38l-1.12-3h.51l.89,2.55h0l.9-2.55h.5l-1.11,3Z"/><path class="cls-16" d="M126.92,129.9a1.56,1.56,0,1,1,1.56,1.57A1.53,1.53,0,0,1,126.92,129.9Zm2.65,0a1.09,1.09,0,1,0-1.09,1.15A1.09,1.09,0,0,0,129.57,129.9Z"/><path class="cls-16" d="M130.66,127.57a.3.3,0,0,1,.59,0,.3.3,0,1,1-.59,0Zm.06,3.81v-3h.46v3Z"/><path class="cls-16" d="M133.42,128.42v.41h-.86v2.55h-.46v-3Z"/><path class="cls-16" d="M134.67,129.61l.39.18a.88.88,0,0,1,.64.83c0,.5-.39.85-1,.85a1,1,0,0,1-1-.77l.36-.2a.7.7,0,0,0,.7.56c.31,0,.52-.15.52-.44s-.15-.34-.45-.48l-.36-.17c-.38-.17-.65-.39-.65-.83a.85.85,0,0,1,.92-.81,1,1,0,0,1,1,.67l-.35.19a.65.65,0,0,0-.64-.47.44.44,0,0,0-.48.41C134.23,129.35,134.37,129.47,134.67,129.61Z"/><path class="cls-16" d="M137.65,129.9a1.56,1.56,0,1,1,1.56,1.57A1.53,1.53,0,0,1,137.65,129.9Zm2.65,0a1.09,1.09,0,1,0-1.09,1.15A1.09,1.09,0,0,0,140.3,129.9Z"/><path class="cls-16" d="M141.18,128.42h.34v-1.36h1.32v.4H142v1h.83v.41H142v2.55h-.46v-2.55h-.34Z"/><path class="cls-16" d="M75.81,136.33a1.19,1.19,0,0,1,1.13.62h0a2.16,2.16,0,0,1,0-.31v-.22h.44v3h-.44v-.28a2.88,2.88,0,0,1,0-.32h0a1.19,1.19,0,0,1-1.15.69,1.49,1.49,0,0,1-1.53-1.57A1.5,1.5,0,0,1,75.81,136.33Zm1.12,1.57a1.11,1.11,0,1,0-1.11,1.15A1.1,1.1,0,0,0,76.93,137.9Z"/><path class="cls-16" d="M79.58,136.33a1.25,1.25,0,0,1,1.18.62h0a2.73,2.73,0,0,1,0-.31v-.22h.42v4.28h-.45v-1.57a2.91,2.91,0,0,1,0-.31h0a1.16,1.16,0,0,1-1.13.65,1.57,1.57,0,0,1,0-3.14Zm-1,1.57a1.11,1.11,0,1,0,1.1-1.16A1.1,1.1,0,0,0,78.54,137.9Z"/><path class="cls-16" d="M82.1,139.38v-3h.46V139H84v-2.55h.46v3Z"/><path class="cls-16" d="M86.72,136.33a1.19,1.19,0,0,1,1.14.62h0a2.16,2.16,0,0,1,0-.31v-.22h.43v3h-.43v-.28a2.88,2.88,0,0,1,0-.32h0a1.19,1.19,0,0,1-1.15.69,1.57,1.57,0,0,1,0-3.14Zm1.13,1.57a1.11,1.11,0,1,0-1.11,1.15A1.1,1.1,0,0,0,87.85,137.9Z"/><path class="cls-16" d="M89.31,136.83H89v-.41h.34v-.78h.46v.78h.91v.41h-.91V139h.82v.41H89.31Z"/><path class="cls-16" d="M91.17,135.57a.3.3,0,1,1,.3.3A.29.29,0,0,1,91.17,135.57Zm.07,3.81v-3h.46v3Z"/><path class="cls-16" d="M94.88,137.22a1.1,1.1,0,0,0-.92-.48,1.16,1.16,0,0,0,0,2.31,1.11,1.11,0,0,0,.94-.51l.28.27a1.42,1.42,0,0,1-1.22.66,1.57,1.57,0,0,1,0-3.14,1.48,1.48,0,0,1,1.21.61Z"/><path class="cls-16" d="M95.69,137h2v.4h-2Z"/><path class="cls-16" d="M100.13,139.47a1.27,1.27,0,0,1-1.17-.61h0a1.52,1.52,0,0,1,0,.32v.2h-.43v-4.32H99v1.54a2.33,2.33,0,0,1,0,.32h0a1.31,1.31,0,0,1,1.13-.59,1.57,1.57,0,0,1,0,3.14Zm1.05-1.57a1.11,1.11,0,1,0-1.1,1.15A1.09,1.09,0,0,0,101.18,137.9Z"/><path class="cls-16" d="M103.67,136.33a1.19,1.19,0,0,1,1.14.62h0a2.55,2.55,0,0,1,0-.31v-.22h.43v3h-.43v-.28a3.11,3.11,0,0,1,0-.32h0a1.19,1.19,0,0,1-1.15.69,1.49,1.49,0,0,1-1.54-1.57A1.51,1.51,0,0,1,103.67,136.33Zm1.13,1.57a1.11,1.11,0,1,0-1.11,1.15A1.1,1.1,0,0,0,104.8,137.9Z"/><path class="cls-16" d="M106.88,137.61l.4.18a.86.86,0,0,1-.37,1.68,1,1,0,0,1-1-.77l.36-.2a.7.7,0,0,0,.71.56c.3,0,.51-.15.51-.44s-.14-.34-.45-.48l-.36-.17a.87.87,0,0,1-.64-.83.84.84,0,0,1,.92-.81,1,1,0,0,1,1,.67l-.34.19a.66.66,0,0,0-.64-.47.43.43,0,0,0-.48.41C106.45,137.35,106.58,137.47,106.88,137.61Z"/><path class="cls-16" d="M109.94,139.47a1.57,1.57,0,0,1,0-3.14,1.46,1.46,0,0,1,1.45,1.57,1.34,1.34,0,0,1,0,.2h-2.51a1.05,1.05,0,0,0,1.08,1,1.14,1.14,0,0,0,.94-.45l.27.28A1.48,1.48,0,0,1,109.94,139.47Zm-1.07-1.76h2.06a1,1,0,0,0-1-1A1,1,0,0,0,108.87,137.71Z"/><path class="cls-16" d="M113.37,136.33a1.29,1.29,0,0,1,1.13.55h0a2.16,2.16,0,0,1,0-.31v-1.51H115v4.32h-.43v-.25a2.41,2.41,0,0,1,0-.31h0a1.24,1.24,0,0,1-1.17.65,1.57,1.57,0,0,1,0-3.14Zm1.15,1.57a1.11,1.11,0,1,0-1.1,1.15A1.09,1.09,0,0,0,114.52,137.9Z"/><path class="cls-16" d="M119,139.47a1.23,1.23,0,0,1-1.14-.58h0a2.55,2.55,0,0,1,0,.31v1.5h-.46v-4.28h.44v.21a2.54,2.54,0,0,1,0,.31h0a1.32,1.32,0,0,1,1.18-.61,1.57,1.57,0,0,1,0,3.14Zm-1.15-1.57a1.11,1.11,0,1,0,2.21,0,1.11,1.11,0,1,0-2.21,0Z"/><path class="cls-16" d="M121.17,135.06h.46V139h.85v.41h-1.31Z"/><path class="cls-16" d="M124.24,136.33a1.19,1.19,0,0,1,1.14.62h0c0-.08,0-.16,0-.31v-.22h.43v3h-.43v-.28c0-.13,0-.22,0-.32h0a1.19,1.19,0,0,1-1.15.69,1.48,1.48,0,0,1-1.53-1.57A1.5,1.5,0,0,1,124.24,136.33Zm1.13,1.57a1.11,1.11,0,1,0-1.11,1.15A1.1,1.1,0,0,0,125.37,137.9Z"/><path class="cls-16" d="M129.15,136.42v3h-.46v-2.55h-1.51v2.55h-.46v-3Z"/><path class="cls-16" d="M131.39,139.47a1.57,1.57,0,0,1,0-3.14,1.47,1.47,0,0,1,1.46,1.57s0,.15,0,.2h-2.52a1.07,1.07,0,0,0,1.09,1,1.14,1.14,0,0,0,.93-.45l.27.28A1.45,1.45,0,0,1,131.39,139.47Zm-1.08-1.76h2.07a1,1,0,0,0-1-1A1.06,1.06,0,0,0,130.31,137.71Z"/><path class="cls-16" d="M133.57,136.83h-.34v-.41h.34v-.78H134v.78h.91v.41H134V139h.82v.41h-1.28Z"/><path class="cls-16" d="M135.24,137.9a1.56,1.56,0,1,1,1.56,1.57A1.52,1.52,0,0,1,135.24,137.9Zm2.65,0a1.09,1.09,0,1,0-1.09,1.15A1.09,1.09,0,0,0,137.89,137.9Z"/><path class="cls-16" d="M139,135.57a.3.3,0,1,1,.3.3A.29.29,0,0,1,139,135.57Zm.07,3.81v-3h.46v3Z"/><path class="cls-16" d="M141.73,136.33a1.29,1.29,0,0,1,1.13.55h0c0-.08,0-.16,0-.31v-1.51h.46v4.32h-.43v-.25a2.41,2.41,0,0,1,0-.31h0a1.24,1.24,0,0,1-1.17.65,1.57,1.57,0,0,1,0-3.14Zm1.15,1.57a1.11,1.11,0,1,0-1.1,1.15A1.09,1.09,0,0,0,142.88,137.9Z"/><path class="cls-16" d="M145,137.61l.39.18a.88.88,0,0,1,.64.83c0,.5-.4.85-1,.85a1,1,0,0,1-1-.77l.37-.2a.69.69,0,0,0,.7.56c.3,0,.52-.15.52-.44s-.15-.34-.45-.48l-.37-.17a.87.87,0,0,1-.64-.83.85.85,0,0,1,.92-.81,1,1,0,0,1,1,.67l-.35.19a.66.66,0,0,0-.64-.47.43.43,0,0,0-.48.41C144.53,137.35,144.67,137.47,145,137.61Z"/><path class="cls-16" d="M146.54,139.13a.29.29,0,1,1,.28.29A.29.29,0,0,1,146.54,139.13Z"/><path class="cls-16" d="M149.15,137.22a2.2,2.2,0,1,1,2.19,2.25A2.16,2.16,0,0,1,149.15,137.22Zm3.9,0a1.71,1.71,0,1,0-1.71,1.82A1.72,1.72,0,0,0,153.05,137.22Z"/><path class="cls-16" d="M154,136.42h.34v-1.36h1.32v.4h-.86v1h.83v.41h-.83v2.55h-.46v-2.55H154Z"/><path class="cls-16" d="M76.9,144.42v3h-.46v-2.55h-1.5v2.55h-.46v-3Z"/><path class="cls-16" d="M77.59,145.9a1.56,1.56,0,1,1,1.56,1.57A1.52,1.52,0,0,1,77.59,145.9Zm2.65,0a1.09,1.09,0,1,0-1.09,1.15A1.09,1.09,0,0,0,80.24,145.9Z"/><path class="cls-16" d="M81.45,144.83h-.34v-.41h.34v-.78h.46v.78h.91v.41h-.91V147h.82v.41H81.45Z"/><path class="cls-16" d="M84.68,147.47a1.57,1.57,0,0,1,0-3.14,1.47,1.47,0,0,1,1.46,1.57s0,.15,0,.2H83.6a1.05,1.05,0,0,0,1.08,1,1.14,1.14,0,0,0,.94-.45l.27.28A1.47,1.47,0,0,1,84.68,147.47Zm-1.08-1.76h2.07a1,1,0,0,0-1-1A1.06,1.06,0,0,0,83.6,145.71Z"/><path class="cls-16" d="M88.21,143.57a.28.28,0,0,1,.29-.28.28.28,0,0,1,.29.28.29.29,0,0,1-.29.3A.28.28,0,0,1,88.21,143.57Zm.06,3.81v-3h.46v3Z"/><path class="cls-16" d="M90.38,145.61l.39.18a.88.88,0,0,1,.64.83c0,.5-.39.85-1,.85a1,1,0,0,1-1-.77l.36-.2a.7.7,0,0,0,.7.56c.31,0,.52-.15.52-.44s-.14-.34-.45-.48l-.36-.17a.87.87,0,0,1-.64-.83.84.84,0,0,1,.92-.81,1,1,0,0,1,1,.67l-.34.19a.67.67,0,0,0-.64-.47.44.44,0,0,0-.49.41C89.94,145.35,90.08,145.47,90.38,145.61Z"/><path class="cls-16" d="M93.59,147.38v-4.32h.46v1.36h2v3h-.46v-2.55H94.05v2.55Z"/><path class="cls-16" d="M96.86,143.57a.3.3,0,0,1,.59,0,.3.3,0,1,1-.59,0Zm.06,3.81v-3h.46v3Z"/><path class="cls-16" d="M99,145.61l.39.18a.87.87,0,0,1,.63.83.88.88,0,0,1-1,.85,1,1,0,0,1-1-.77l.36-.2a.71.71,0,0,0,.71.56c.3,0,.51-.15.51-.44s-.14-.34-.44-.48l-.37-.17a.87.87,0,0,1-.64-.83.84.84,0,0,1,.92-.81,1,1,0,0,1,1,.67l-.34.19a.66.66,0,0,0-.64-.47.43.43,0,0,0-.48.41C98.6,145.35,98.74,145.47,99,145.61Z"/><path class="cls-16" d="M103.57,144.42v.41h-.87v2.55h-.46v-3Z"/><path class="cls-16" d="M105.35,147.47a1.57,1.57,0,0,1,0-3.14,1.46,1.46,0,0,1,1.45,1.57,1.34,1.34,0,0,1,0,.2h-2.51a1.05,1.05,0,0,0,1.08,1,1.14,1.14,0,0,0,.94-.45l.27.28A1.48,1.48,0,0,1,105.35,147.47Zm-1.07-1.76h2.06a1,1,0,0,0-1-1A1,1,0,0,0,104.28,145.71Z"/><path class="cls-16" d="M108.17,147.38l-1.12-3h.51l.89,2.55h0l.89-2.55h.51l-1.12,3Z"/><path class="cls-16" d="M110.13,145.9a1.56,1.56,0,1,1,1.56,1.57A1.53,1.53,0,0,1,110.13,145.9Zm2.65,0a1.09,1.09,0,1,0-1.09,1.15A1.09,1.09,0,0,0,112.78,145.9Z"/><path class="cls-16" d="M113.93,143.06h.46V147h.86v.41h-1.32Z"/><path class="cls-16" d="M115.75,147.38v-3h.46V147h1.47v-2.55h.46v3Z"/><path class="cls-16" d="M119.15,144.83h-.34v-.41h.34v-.78h.46v.78h.91v.41h-.91V147h.83v.41h-1.29Z"/><path class="cls-16" d="M121,143.57a.3.3,0,1,1,.3.3A.29.29,0,0,1,121,143.57Zm.07,3.81v-3h.46v3Z"/><path class="cls-16" d="M122.24,145.9a1.56,1.56,0,1,1,1.55,1.57A1.52,1.52,0,0,1,122.24,145.9Zm2.65,0a1.09,1.09,0,1,0-2.18,0,1.09,1.09,0,1,0,2.18,0Z"/><path class="cls-16" d="M128.46,144.42v3H128v-2.55h-1.5v2.55H126v-3Z"/><path class="cls-16" d="M130.7,144.33a1.19,1.19,0,0,1,1.14.62h0c0-.08,0-.16,0-.31v-.22h.43v3h-.43v-.28c0-.13,0-.22,0-.32h0a1.19,1.19,0,0,1-1.15.69,1.49,1.49,0,0,1-1.54-1.57A1.51,1.51,0,0,1,130.7,144.33Zm1.13,1.57a1.11,1.11,0,1,0-1.11,1.15A1.1,1.1,0,0,0,131.83,145.9Z"/><path class="cls-16" d="M134.5,144.42v.41h-.86v2.55h-.46v-3Z"/><path class="cls-16" d="M135.28,148.29H137v-1a2.54,2.54,0,0,1,0-.3h0c-.06.17-.31.43-.85.43a1.11,1.11,0,0,1-1.11-1.18v-1.83h.46v1.82a.76.76,0,1,0,1.51,0v-1.82h.46v4.28h-2.14Z"/><path class="cls-16" d="M140.54,145.61l.4.18a.87.87,0,0,1,.63.83.88.88,0,0,1-1,.85,1,1,0,0,1-1-.77l.36-.2a.71.71,0,0,0,.71.56c.3,0,.51-.15.51-.44s-.14-.34-.44-.48l-.37-.17a.87.87,0,0,1-.64-.83.84.84,0,0,1,.92-.81,1,1,0,0,1,1,.67l-.34.19a.66.66,0,0,0-.64-.47.43.43,0,0,0-.48.41C140.11,145.35,140.25,145.47,140.54,145.61Z"/><path class="cls-16" d="M142.37,144.83H142v-.41h.34v-.78h.46v.78h.91v.41h-.91V147h.83v.41h-1.29Z"/><path class="cls-16" d="M144.31,147.38v-3h.46V147h1.47v-2.55h.46v3Z"/><path class="cls-16" d="M148.92,144.33a1.28,1.28,0,0,1,1.13.55h0a2.55,2.55,0,0,1,0-.31v-1.51h.45v4.32h-.43v-.25a2.41,2.41,0,0,1,0-.31h0a1.23,1.23,0,0,1-1.16.65,1.57,1.57,0,0,1,0-3.14Zm1.15,1.57a1.09,1.09,0,0,0-1.1-1.16,1.16,1.16,0,0,0,0,2.31A1.09,1.09,0,0,0,150.07,145.9Z"/><path class="cls-16" d="M151.36,143.57a.28.28,0,0,1,.29-.28.29.29,0,0,1,.3.28.29.29,0,0,1-.3.3A.29.29,0,0,1,151.36,143.57Zm.06,3.81v-3h.46v3Z"/><path class="cls-16" d="M154.13,147.47a1.57,1.57,0,0,1,0-3.14,1.46,1.46,0,0,1,1.45,1.57,1.34,1.34,0,0,1,0,.2h-2.51a1.05,1.05,0,0,0,1.08,1,1.16,1.16,0,0,0,.94-.45l.27.28A1.48,1.48,0,0,1,154.13,147.47Zm-1.07-1.76h2.06a1,1,0,0,0-1-1A1,1,0,0,0,153.06,145.71Z"/><path class="cls-16" d="M157,145.61l.39.18a.88.88,0,0,1,.64.83c0,.5-.39.85-1,.85a1,1,0,0,1-1-.77l.36-.2a.7.7,0,0,0,.7.56c.3,0,.52-.15.52-.44s-.15-.34-.45-.48l-.36-.17c-.38-.17-.65-.39-.65-.83a.85.85,0,0,1,.92-.81,1,1,0,0,1,1,.67l-.35.19a.65.65,0,0,0-.64-.47.44.44,0,0,0-.48.41C156.54,145.35,156.68,145.47,157,145.61Z"/><path class="cls-16" d="M74.41,151.57a.3.3,0,1,1,.3.3A.29.29,0,0,1,74.41,151.57Zm.07,3.81v-3h.46v3Z"/><path class="cls-16" d="M78.28,152.42v3h-.46v-2.55H76.31v2.55h-.46v-3Z"/><path class="cls-16" d="M80.77,152.83h-.34v-.41h.34v-.78h.46v.78h.91v.41h-.91V155h.83v.41H80.77Z"/><path class="cls-16" d="M82.71,155.38v-4.32h.46v1.36h2v3h-.46v-2.55h-1.5v2.55Z"/><path class="cls-16" d="M87.37,155.47a1.57,1.57,0,0,1,0-3.14,1.46,1.46,0,0,1,1.45,1.57,1.34,1.34,0,0,1,0,.2H86.3a1.05,1.05,0,0,0,1.08,1,1.14,1.14,0,0,0,.94-.45l.27.28A1.48,1.48,0,0,1,87.37,155.47Zm-1.07-1.76h2.06a1,1,0,0,0-1-1A1,1,0,0,0,86.3,153.71Z"/><path class="cls-16" d="M92.3,152.33a1.22,1.22,0,0,1,1.14.62h0a2.55,2.55,0,0,1,0-.31v-.22h.43v3h-.43v-.28a3.11,3.11,0,0,1,0-.32h0a1.21,1.21,0,0,1-1.15.69,1.57,1.57,0,0,1,0-3.14Zm1.12,1.57a1.11,1.11,0,1,0-1.11,1.15A1.1,1.1,0,0,0,93.42,153.9Z"/><path class="cls-16" d="M96.09,152.33a1.28,1.28,0,0,1,1.13.55h0a2.55,2.55,0,0,1,0-.31v-1.51h.45v4.32h-.43v-.25a2.41,2.41,0,0,1,0-.31h0a1.23,1.23,0,0,1-1.16.65,1.57,1.57,0,0,1,0-3.14Zm1.15,1.57a1.11,1.11,0,1,0-1.1,1.15A1.09,1.09,0,0,0,97.24,153.9Z"/><path class="cls-16" d="M99.92,152.33a1.19,1.19,0,0,1,1.14.62h0c0-.08,0-.16,0-.31v-.22h.43v3h-.43v-.28c0-.13,0-.22,0-.32h0a1.19,1.19,0,0,1-1.15.69,1.49,1.49,0,0,1-1.54-1.57A1.51,1.51,0,0,1,99.92,152.33Zm1.13,1.57a1.11,1.11,0,1,0-1.11,1.15A1.1,1.1,0,0,0,101.05,153.9Z"/><path class="cls-16" d="M104,155.47a1.2,1.2,0,0,1-1.13-.58h0a2.16,2.16,0,0,1,0,.31v1.5h-.46v-4.28h.43v.21a2.54,2.54,0,0,1,0,.31h0a1.34,1.34,0,0,1,1.19-.61,1.57,1.57,0,0,1,0,3.14Zm-1.15-1.57a1.11,1.11,0,1,0,1.11-1.16A1.1,1.1,0,0,0,102.84,153.9Z"/><path class="cls-16" d="M106.27,152.83h-.33v-.41h.33v-.78h.46v.78h.91v.41h-.91V155h.83v.41h-1.29Z"/><path class="cls-16" d="M109.49,152.33a1.19,1.19,0,0,1,1.14.62h0a2.16,2.16,0,0,1,0-.31v-.22h.43v3h-.43v-.28a2.88,2.88,0,0,1,0-.32h0a1.19,1.19,0,0,1-1.15.69,1.57,1.57,0,0,1,0-3.14Zm1.13,1.57a1.11,1.11,0,1,0-1.11,1.15A1.1,1.1,0,0,0,110.62,153.9Z"/><path class="cls-16" d="M112.08,152.83h-.34v-.41h.34v-.78h.46v.78h.91v.41h-.91V155h.82v.41h-1.28Z"/><path class="cls-16" d="M113.94,151.57a.3.3,0,1,1,.3.3A.29.29,0,0,1,113.94,151.57Zm.07,3.81v-3h.46v3Z"/><path class="cls-16" d="M115.16,153.9a1.56,1.56,0,1,1,1.56,1.57A1.53,1.53,0,0,1,115.16,153.9Zm2.65,0a1.09,1.09,0,1,0-1.09,1.15A1.09,1.09,0,0,0,117.81,153.9Z"/><path class="cls-16" d="M121.39,152.42v3h-.46v-2.55h-1.51v2.55H119v-3Z"/><path class="cls-16" d="M125.11,152.33a1.22,1.22,0,0,1,1.14.62h0a2.55,2.55,0,0,1,0-.31v-.22h.43v3h-.43v-.28a3.11,3.11,0,0,1,0-.32h0a1.22,1.22,0,0,1-1.16.69,1.49,1.49,0,0,1-1.53-1.57A1.5,1.5,0,0,1,125.11,152.33Zm1.12,1.57a1.11,1.11,0,1,0-1.11,1.15A1.1,1.1,0,0,0,126.23,153.9Z"/><path class="cls-16" d="M130,152.42v3h-.46v-2.55H128v2.55h-.46v-3Z"/><path class="cls-16" d="M132.24,152.33a1.28,1.28,0,0,1,1.12.55h0c0-.08,0-.16,0-.31v-1.51h.45v4.32h-.42v-.25a1.37,1.37,0,0,1,0-.31h0a1.24,1.24,0,0,1-1.17.65,1.57,1.57,0,0,1,0-3.14Zm1.15,1.57a1.11,1.11,0,1,0-1.11,1.15A1.1,1.1,0,0,0,133.39,153.9Z"/><path class="cls-16" d="M137.55,152.33a1.19,1.19,0,0,1,1.14.62h0a2.55,2.55,0,0,1,0-.31v-.22h.43v3h-.43v-.28a3.11,3.11,0,0,1,0-.32h0a1.2,1.2,0,0,1-1.15.69,1.57,1.57,0,0,1,0-3.14Zm1.13,1.57a1.11,1.11,0,1,0-1.11,1.15A1.1,1.1,0,0,0,138.68,153.9Z"/><path class="cls-16" d="M142.29,153.22a1.13,1.13,0,1,0-.92,1.83,1.13,1.13,0,0,0,.95-.51l.28.27a1.44,1.44,0,0,1-1.23.66,1.57,1.57,0,0,1,0-3.14,1.46,1.46,0,0,1,1.21.61Z"/><path class="cls-16" d="M145.43,153.22a1.13,1.13,0,1,0-.92,1.83,1.13,1.13,0,0,0,1-.51l.28.27a1.44,1.44,0,0,1-1.23.66,1.57,1.57,0,0,1,0-3.14,1.46,1.46,0,0,1,1.21.61Z"/><path class="cls-16" d="M146.33,155.38v-3h.46V155h1.47v-2.55h.46v3Z"/><path class="cls-16" d="M149.55,153h2v.4h-2Z"/><path class="cls-16" d="M78.49,163.38H78v-2a.67.67,0,1,0-1.33,0v2h-.46v-2a.67.67,0,1,0-1.34,0v2h-.46v-2a1.07,1.07,0,0,1,1.12-1.09,1,1,0,0,1,.91.49,1,1,0,0,1,.91-.49,1.05,1.05,0,0,1,1.11,1.09Z"/><path class="cls-16" d="M79.36,163.38v-3h.46V163H81.3v-2.55h.46v3Z"/><path class="cls-16" d="M82.66,159.06h.46V163H84v.41H82.66Z"/><path class="cls-16" d="M85.74,160.33a1.19,1.19,0,0,1,1.14.62h0c0-.08,0-.16,0-.31v-.22h.43v3h-.43v-.28c0-.13,0-.22,0-.32h0a1.19,1.19,0,0,1-1.15.69,1.49,1.49,0,0,1-1.54-1.57A1.51,1.51,0,0,1,85.74,160.33Zm1.13,1.57a1.11,1.11,0,1,0-1.11,1.15A1.1,1.1,0,0,0,86.87,161.9Z"/><path class="cls-16" d="M88.32,160.83H88v-.41h.34v-.78h.46v.78h.91v.41h-.91V163h.83v.41H88.32Z"/><path class="cls-16" d="M90.19,159.57a.3.3,0,0,1,.59,0,.3.3,0,1,1-.59,0Zm.06,3.81v-3h.46v3Z"/><path class="cls-16" d="M91.4,161.9A1.56,1.56,0,1,1,93,163.47,1.53,1.53,0,0,1,91.4,161.9Zm2.66,0a1.09,1.09,0,1,0-2.18,0,1.09,1.09,0,1,0,2.18,0Z"/><path class="cls-16" d="M97.63,160.42v3h-.46v-2.55h-1.5v2.55h-.46v-3Z"/><path class="cls-16" d="M99.8,161.9a1.56,1.56,0,1,1,1.56,1.57A1.53,1.53,0,0,1,99.8,161.9Zm2.65,0a1.09,1.09,0,1,0-1.09,1.15A1.09,1.09,0,0,0,102.45,161.9Z"/><path class="cls-16" d="M103.32,160.42h.35v-1.36H105v.4h-.86v1H105v.41h-.82v2.55h-.46v-2.55h-.35Z"/><path class="cls-16" d="M106.79,159.06h.46V163h.85v.41h-1.31Z"/><path class="cls-16" d="M108.54,159.57a.3.3,0,1,1,.3.3A.29.29,0,0,1,108.54,159.57Zm.07,3.81v-3h.46v3Z"/><path class="cls-16" d="M109.75,160.42h.34v-1.36h1.32v.4h-.86v1h.82v.41h-.82v2.55h-.46v-2.55h-.34Z"/><path class="cls-16" d="M113.13,163.47a1.57,1.57,0,0,1,0-3.14,1.46,1.46,0,0,1,1.45,1.57,1.34,1.34,0,0,1,0,.2h-2.51a1.05,1.05,0,0,0,1.08,1,1.14,1.14,0,0,0,.94-.45l.27.28A1.48,1.48,0,0,1,113.13,163.47Zm-1.07-1.76h2.06a1,1,0,0,0-1-1A1,1,0,0,0,112.06,161.71Z"/><path class="cls-16" d="M116.66,159.57a.3.3,0,1,1,.3.3A.29.29,0,0,1,116.66,159.57Zm.07,3.81v-3h.46v3Z"/><path class="cls-16" d="M120.53,160.42v3h-.46v-2.55h-1.51v2.55h-.46v-3Z"/><path class="cls-16" d="M124.25,163.47a1.57,1.57,0,0,1,0-3.14,1.46,1.46,0,0,1,1.45,1.57,1.34,1.34,0,0,1,0,.2h-2.51a1.05,1.05,0,0,0,1.08,1,1.14,1.14,0,0,0,.94-.45l.27.28A1.48,1.48,0,0,1,124.25,163.47Zm-1.07-1.76h2.06a1,1,0,0,0-1-1A1,1,0,0,0,123.18,161.71Z"/><path class="cls-16" d="M127.1,161.61l.39.18a.88.88,0,0,1,.64.83c0,.5-.39.85-1,.85a1,1,0,0,1-1-.77l.36-.2a.7.7,0,0,0,.7.56c.31,0,.52-.15.52-.44s-.14-.34-.45-.48l-.36-.17c-.38-.17-.65-.39-.65-.83a.85.85,0,0,1,.92-.81,1,1,0,0,1,1,.67l-.34.19a.67.67,0,0,0-.64-.47.44.44,0,0,0-.49.41C126.66,161.35,126.8,161.47,127.1,161.61Z"/><path class="cls-16" d="M128.93,160.83h-.34v-.41h.34v-.78h.46v.78h.91v.41h-.91V163h.82v.41h-1.28Z"/><path class="cls-16" d="M130.86,163.38v-3h.46V163h1.47v-2.55h.46v3Z"/><path class="cls-16" d="M135.49,160.33a1.19,1.19,0,0,1,1.14.62h0a2.55,2.55,0,0,1,0-.31v-.22h.43v3h-.43v-.28a3.11,3.11,0,0,1,0-.32h0a1.2,1.2,0,0,1-1.15.69,1.49,1.49,0,0,1-1.54-1.57A1.51,1.51,0,0,1,135.49,160.33Zm1.13,1.57a1.11,1.11,0,1,0-1.11,1.15A1.1,1.1,0,0,0,136.62,161.9Z"/><path class="cls-16" d="M139.29,160.42v.41h-.86v2.55H138v-3Z"/><path class="cls-16" d="M139.76,159.57a.3.3,0,1,1,.3.3A.29.29,0,0,1,139.76,159.57Zm.07,3.81v-3h.46v3Z"/><path class="cls-16" d="M142.53,163.47a1.57,1.57,0,0,1,0-3.14A1.46,1.46,0,0,1,144,161.9a1.34,1.34,0,0,1,0,.2h-2.51a1.05,1.05,0,0,0,1.08,1,1.14,1.14,0,0,0,.94-.45l.27.28A1.48,1.48,0,0,1,142.53,163.47Zm-1.07-1.76h2.06a1,1,0,0,0-1-1A1,1,0,0,0,141.46,161.71Z"/><path class="cls-16" d="M145.38,161.61l.39.18a.88.88,0,0,1,.64.83c0,.5-.39.85-1,.85a1,1,0,0,1-1-.77l.36-.2a.7.7,0,0,0,.7.56c.31,0,.52-.15.52-.44s-.14-.34-.45-.48l-.36-.17c-.38-.17-.65-.39-.65-.83a.85.85,0,0,1,.92-.81,1,1,0,0,1,1,.67l-.35.19a.65.65,0,0,0-.63-.47.44.44,0,0,0-.49.41C144.94,161.35,145.08,161.47,145.38,161.61Z"/><path class="cls-16" d="M75.81,168.33a1.19,1.19,0,0,1,1.13.62h0a2.16,2.16,0,0,1,0-.31v-.22h.44v3h-.44v-.28a2.88,2.88,0,0,1,0-.32h0a1.19,1.19,0,0,1-1.15.69,1.49,1.49,0,0,1-1.53-1.57A1.5,1.5,0,0,1,75.81,168.33Zm1.12,1.57a1.11,1.11,0,1,0-1.11,1.15A1.1,1.1,0,0,0,76.93,169.9Z"/><path class="cls-16" d="M80.71,168.42v3h-.46v-2.55H78.74v2.55h-.46v-3Z"/><path class="cls-16" d="M82.94,168.33a1.28,1.28,0,0,1,1.12.55h0a2.55,2.55,0,0,1,0-.31v-1.51h.45v4.32H84.1v-.25a1.37,1.37,0,0,1,0-.31h0a1.24,1.24,0,0,1-1.17.65,1.57,1.57,0,0,1,0-3.14Zm1.15,1.57A1.11,1.11,0,1,0,83,171.05,1.1,1.1,0,0,0,84.09,169.9Z"/><path class="cls-16" d="M89.19,169.22a1.12,1.12,0,0,0-.92-.48,1.16,1.16,0,0,0,0,2.31,1.13,1.13,0,0,0,.94-.51l.28.27a1.43,1.43,0,0,1-1.22.66,1.57,1.57,0,0,1,0-3.14,1.45,1.45,0,0,1,1.2.61Z"/><path class="cls-16" d="M91.39,171.47a1.57,1.57,0,0,1,0-3.14,1.46,1.46,0,0,1,1.45,1.57,1.34,1.34,0,0,1,0,.2H90.32a1.05,1.05,0,0,0,1.08,1,1.14,1.14,0,0,0,.94-.45l.27.28A1.48,1.48,0,0,1,91.39,171.47Zm-1.07-1.76h2.06a1,1,0,0,0-1-1A1,1,0,0,0,90.32,169.71Z"/><path class="cls-16" d="M95.93,168.42v3h-.46v-2.55H94v2.55H93.5v-3Z"/><path class="cls-16" d="M96.61,169.9a1.56,1.56,0,1,1,1.56,1.57A1.53,1.53,0,0,1,96.61,169.9Zm2.66,0a1.09,1.09,0,1,0-2.18,0,1.09,1.09,0,1,0,2.18,0Z"/><path class="cls-16" d="M100.48,168.83h-.34v-.41h.34v-.78h.46v.78h.91v.41h-.91V171h.82v.41h-1.28Z"/><path class="cls-16" d="M103.71,171.47a1.57,1.57,0,0,1,0-3.14,1.46,1.46,0,0,1,1.45,1.57,1.34,1.34,0,0,1,0,.2h-2.51a1.05,1.05,0,0,0,1.08,1,1.14,1.14,0,0,0,.94-.45l.27.28A1.47,1.47,0,0,1,103.71,171.47Zm-1.08-1.76h2.06a1,1,0,0,0-1-1A1,1,0,0,0,102.63,169.71Z"/><path class="cls-16" d="M106.55,169.61l.39.18a.88.88,0,0,1,.64.83c0,.5-.39.85-1,.85a1,1,0,0,1-1-.77l.36-.2a.7.7,0,0,0,.7.56c.31,0,.52-.15.52-.44s-.14-.34-.45-.48l-.36-.17a.87.87,0,0,1-.64-.83.84.84,0,0,1,.92-.81,1,1,0,0,1,1,.67l-.34.19a.67.67,0,0,0-.64-.47.44.44,0,0,0-.49.41C106.11,169.35,106.25,169.47,106.55,169.61Z"/><path class="cls-16" d="M108.12,171.13a.29.29,0,0,1,.29-.29.29.29,0,0,1,0,.58A.29.29,0,0,1,108.12,171.13Z"/><path class="cls-16" d="M111,167.06h.48V169h2.2v-1.94h.48v4.32h-.48v-2h-2.2v2H111Z"/><path class="cls-16" d="M116.38,171.47a1.57,1.57,0,0,1,0-3.14,1.47,1.47,0,0,1,1.46,1.57s0,.15,0,.2H115.3a1.05,1.05,0,0,0,1.08,1,1.14,1.14,0,0,0,.94-.45l.27.28A1.47,1.47,0,0,1,116.38,171.47Zm-1.08-1.76h2.07a1,1,0,0,0-1-1A1.06,1.06,0,0,0,115.3,169.71Z"/><path class="cls-16" d="M120.63,171.38l-1.11-3H120l.89,2.55h0l.9-2.55h.5l-1.11,3Z"/><path class="cls-16" d="M122.6,169.9a1.56,1.56,0,1,1,1.56,1.57A1.53,1.53,0,0,1,122.6,169.9Zm2.65,0a1.09,1.09,0,1,0-1.09,1.15A1.09,1.09,0,0,0,125.25,169.9Z"/><path class="cls-16" d="M126.4,167.06h.46V171h.85v.41H126.4Z"/><path class="cls-16" d="M128.22,171.38v-3h.46V171h1.47v-2.55h.46v3Z"/><path class="cls-16" d="M133.94,168.42v3h-.46v-2.55H132v2.55h-.46v-3Z"/><path class="cls-16" d="M135,168.83h-.34v-.41H135v-.78h.46v.78h.9v.41h-.9V171h.82v.41H135Z"/><path class="cls-16" d="M138.18,171.47a1.57,1.57,0,0,1,0-3.14,1.46,1.46,0,0,1,1.45,1.57,1.34,1.34,0,0,1,0,.2h-2.51a1.05,1.05,0,0,0,1.08,1,1.16,1.16,0,0,0,.94-.45l.27.28A1.48,1.48,0,0,1,138.18,171.47Zm-1.07-1.76h2.06a1,1,0,0,0-1-1A1,1,0,0,0,137.11,169.71Z"/><path class="cls-16" d="M141.63,171.47a1.57,1.57,0,0,1,0-3.14,1.47,1.47,0,0,1,1.46,1.57,1.36,1.36,0,0,1,0,.2h-2.51a1.05,1.05,0,0,0,1.08,1,1.14,1.14,0,0,0,.94-.45l.27.28A1.47,1.47,0,0,1,141.63,171.47Zm-1.08-1.76h2.07a1,1,0,0,0-1-1A1.06,1.06,0,0,0,140.55,169.71Z"/><path class="cls-16" d="M145.06,168.42v.41h-.86v2.55h-.46v-3Z"/><path class="cls-16" d="M146.31,169.61l.39.18a.88.88,0,0,1,.64.83c0,.5-.39.85-1,.85a1,1,0,0,1-1-.77l.37-.2a.69.69,0,0,0,.7.56c.3,0,.52-.15.52-.44s-.15-.34-.45-.48l-.36-.17c-.38-.17-.65-.39-.65-.83a.85.85,0,0,1,.92-.81,1,1,0,0,1,1,.67l-.35.19a.65.65,0,0,0-.64-.47.44.44,0,0,0-.48.41C145.87,169.35,146,169.47,146.31,169.61Z"/><path class="cls-16" d="M150.84,168.33A1.19,1.19,0,0,1,152,169h0c0-.08,0-.16,0-.31v-.22h.43v3H152v-.28c0-.13,0-.22,0-.32h0a1.19,1.19,0,0,1-1.15.69,1.48,1.48,0,0,1-1.53-1.57A1.5,1.5,0,0,1,150.84,168.33ZM152,169.9a1.11,1.11,0,1,0-1.11,1.15A1.1,1.1,0,0,0,152,169.9Z"/><path class="cls-16" d="M154.06,169.61l.39.18a.88.88,0,0,1,.64.83c0,.5-.39.85-1,.85a1,1,0,0,1-1-.77l.36-.2a.7.7,0,0,0,.7.56c.3,0,.52-.15.52-.44s-.15-.34-.45-.48l-.36-.17c-.38-.17-.65-.39-.65-.83a.85.85,0,0,1,.92-.81,1,1,0,0,1,1,.67l-.35.19a.65.65,0,0,0-.64-.47.44.44,0,0,0-.48.41C153.62,169.35,153.76,169.47,154.06,169.61Z"/><path class="cls-16" d="M75.81,176.33a1.19,1.19,0,0,1,1.13.62h0a2.16,2.16,0,0,1,0-.31v-.22h.44v3h-.44v-.28a2.88,2.88,0,0,1,0-.32h0a1.19,1.19,0,0,1-1.15.69,1.49,1.49,0,0,1-1.53-1.57A1.5,1.5,0,0,1,75.81,176.33Zm1.12,1.57a1.11,1.11,0,1,0-1.11,1.15A1.1,1.1,0,0,0,76.93,177.9Z"/><path class="cls-16" d="M80.71,176.42v3h-.46v-2.55H78.74v2.55h-.46v-3Z"/><path class="cls-16" d="M83,175.57a.28.28,0,0,1,.29-.28.29.29,0,0,1,.3.28.29.29,0,0,1-.3.3A.29.29,0,0,1,83,175.57Zm.06,3.81v-3h.46v3Z"/><path class="cls-16" d="M86.9,176.42v3h-.46v-2.55h-1.5v2.55h-.46v-3Z"/><path class="cls-16" d="M88.55,177.61l.39.18a.88.88,0,0,1,.64.83c0,.5-.39.85-1,.85a1,1,0,0,1-1-.77l.37-.2a.69.69,0,0,0,.7.56c.3,0,.52-.15.52-.44s-.15-.34-.45-.48l-.36-.17c-.38-.17-.65-.39-.65-.83a.85.85,0,0,1,.92-.81,1,1,0,0,1,1,.67l-.35.19a.65.65,0,0,0-.64-.47.44.44,0,0,0-.48.41C88.11,177.35,88.25,177.47,88.55,177.61Z"/><path class="cls-16" d="M90.38,176.83H90v-.41h.34v-.78h.46v.78h.9v.41h-.9V179h.82v.41H90.38Z"/><path class="cls-16" d="M93.63,176.42v.41h-.86v2.55h-.46v-3Z"/><path class="cls-16" d="M94.17,179.38v-3h.45V179H96.1v-2.55h.46v3Z"/><path class="cls-16" d="M99.73,177.22a1.16,1.16,0,1,0,0,1.32l.29.27a1.44,1.44,0,0,1-1.23.66,1.57,1.57,0,0,1,0-3.14,1.46,1.46,0,0,1,1.21.61Z"/><path class="cls-16" d="M100.73,176.83h-.34v-.41h.34v-.78h.46v.78h.91v.41h-.91V179H102v.41h-1.28Z"/><path class="cls-16" d="M102.4,177.9a1.56,1.56,0,1,1,1.56,1.57A1.53,1.53,0,0,1,102.4,177.9Zm2.65,0a1.09,1.09,0,1,0-1.09,1.15A1.09,1.09,0,0,0,105.05,177.9Z"/><path class="cls-16" d="M107.52,176.42v.41h-.86v2.55h-.46v-3Z"/><path class="cls-16" d="M109.33,175.57a.28.28,0,0,1,.29-.28.29.29,0,0,1,.3.28.29.29,0,0,1-.3.3A.28.28,0,0,1,109.33,175.57Zm.06,3.81v-3h.46v3Z"/><path class="cls-16" d="M113.19,176.42v3h-.46v-2.55h-1.5v2.55h-.46v-3Z"/><path class="cls-16" d="M116.91,176.33a1.19,1.19,0,0,1,1.14.62h0c0-.08,0-.16,0-.31v-.22h.43v3h-.43v-.28c0-.13,0-.22,0-.32h0a1.19,1.19,0,0,1-1.15.69,1.48,1.48,0,0,1-1.53-1.57A1.5,1.5,0,0,1,116.91,176.33ZM118,177.9a1.11,1.11,0,1,0-1.11,1.15A1.1,1.1,0,0,0,118,177.9Z"/><path class="cls-16" d="M120.71,176.33a1.29,1.29,0,0,1,1.13.55h0c0-.08,0-.16,0-.31v-1.51h.46v4.32h-.43v-.25a2.41,2.41,0,0,1,0-.31h0a1.24,1.24,0,0,1-1.17.65,1.57,1.57,0,0,1,0-3.14Zm1.15,1.57a1.11,1.11,0,1,0-1.11,1.15A1.1,1.1,0,0,0,121.86,177.9Z"/><path class="cls-16" d="M124,179.38l-1.11-3h.51l.89,2.55h0l.9-2.55h.5l-1.11,3Z"/><path class="cls-16" d="M127.5,176.33a1.19,1.19,0,0,1,1.14.62h0a2.55,2.55,0,0,1,0-.31v-.22h.43v3h-.43v-.28a3.11,3.11,0,0,1,0-.32h0a1.2,1.2,0,0,1-1.15.69,1.57,1.57,0,0,1,0-3.14Zm1.13,1.57a1.11,1.11,0,1,0-1.11,1.15A1.1,1.1,0,0,0,128.63,177.9Z"/><path class="cls-16" d="M132.4,176.42v3h-.46v-2.55h-1.5v2.55H130v-3Z"/><path class="cls-16" d="M135.58,177.22a1.1,1.1,0,0,0-.92-.48,1.16,1.16,0,0,0,0,2.31,1.11,1.11,0,0,0,.94-.51l.28.27a1.42,1.42,0,0,1-1.22.66,1.57,1.57,0,0,1,0-3.14,1.48,1.48,0,0,1,1.21.61Z"/><path class="cls-16" d="M137.79,179.47a1.57,1.57,0,0,1,0-3.14,1.46,1.46,0,0,1,1.45,1.57,1.34,1.34,0,0,1,0,.2h-2.51a1.05,1.05,0,0,0,1.08,1,1.14,1.14,0,0,0,.94-.45l.27.28A1.47,1.47,0,0,1,137.79,179.47Zm-1.08-1.76h2.06a1,1,0,0,0-1-1A1,1,0,0,0,136.71,177.71Z"/><path class="cls-16" d="M141.21,176.33a1.28,1.28,0,0,1,1.13.55h0a2.55,2.55,0,0,1,0-.31v-1.51h.45v4.32h-.43v-.25a2.41,2.41,0,0,1,0-.31h0a1.23,1.23,0,0,1-1.16.65,1.57,1.57,0,0,1,0-3.14Zm1.15,1.57a1.09,1.09,0,0,0-1.1-1.16,1.16,1.16,0,0,0,0,2.31A1.09,1.09,0,0,0,142.36,177.9Z"/><path class="cls-16" d="M75.21,185.61l.39.18a.86.86,0,0,1-.36,1.68,1,1,0,0,1-1-.77l.36-.2a.7.7,0,0,0,.71.56c.3,0,.51-.15.51-.44s-.14-.34-.45-.48L75,186a.87.87,0,0,1-.64-.83.84.84,0,0,1,.92-.81,1,1,0,0,1,1,.67l-.34.19a.66.66,0,0,0-.64-.47.43.43,0,0,0-.48.41C74.78,185.35,74.91,185.47,75.21,185.61Z"/><path class="cls-16" d="M80.11,187.38h-.68l-.7-2.55h0l-.7,2.55h-.65l-.8-3h.49l.63,2.55h0l.68-2.55h.7l.68,2.55h0l.63-2.55h.47Z"/><path class="cls-16" d="M81.41,183.57a.3.3,0,0,1,.59,0,.3.3,0,1,1-.59,0Zm.06,3.81v-3h.46v3Z"/><path class="cls-16" d="M86.86,187.38H86.4v-2a.67.67,0,1,0-1.33,0v2h-.46v-2a.67.67,0,1,0-1.34,0v2h-.46v-2a1.07,1.07,0,0,1,1.13-1.09,1,1,0,0,1,.9.49,1.1,1.1,0,0,1,2,.6Z"/><path class="cls-16" d="M91.75,187.38h-.46v-2a.65.65,0,0,0-.67-.68.64.64,0,0,0-.66.68v2H89.5v-2a.67.67,0,1,0-1.34,0v2H87.7v-2a1.07,1.07,0,0,1,1.12-1.09,1,1,0,0,1,.91.49,1,1,0,0,1,.9-.49,1.05,1.05,0,0,1,1.12,1.09Z"/><path class="cls-16" d="M92.56,183.57a.28.28,0,0,1,.29-.28.29.29,0,0,1,.3.28.29.29,0,0,1-.3.3A.29.29,0,0,1,92.56,183.57Zm.06,3.81v-3h.46v3Z"/><path class="cls-16" d="M96.42,184.42v3H96v-2.55h-1.5v2.55H94v-3Z"/><path class="cls-16" d="M98.59,184.33a1.23,1.23,0,0,1,1.16.62h0a2.54,2.54,0,0,1,0-.31v-.22h.43v4.28H98v-.41h1.76v-1.22a2.73,2.73,0,0,1,0-.32h0a1.16,1.16,0,0,1-1.12.63,1.53,1.53,0,0,1,0-3Zm-1,1.52a1.08,1.08,0,1,0,1.08-1.11A1.06,1.06,0,0,0,97.58,185.85Z"/><path class="cls-16" d="M103.9,184.33A1.19,1.19,0,0,1,105,185h0a2.55,2.55,0,0,1,0-.31v-.22h.43v3H105v-.28a3.11,3.11,0,0,1,0-.32h0a1.2,1.2,0,0,1-1.15.69,1.57,1.57,0,0,1,0-3.14ZM105,185.9a1.11,1.11,0,1,0-1.11,1.15A1.1,1.1,0,0,0,105,185.9Z"/><path class="cls-16" d="M108.8,184.42v3h-.46v-2.55h-1.5v2.55h-.46v-3Z"/><path class="cls-16" d="M111,184.33a1.29,1.29,0,0,1,1.13.55h0c0-.08,0-.16,0-.31v-1.51h.46v4.32h-.43v-.25a2.41,2.41,0,0,1,0-.31h0a1.24,1.24,0,0,1-1.17.65,1.57,1.57,0,0,1,0-3.14Zm1.15,1.57a1.11,1.11,0,1,0-1.1,1.15A1.09,1.09,0,0,0,112.18,185.9Z"/><path class="cls-16" d="M118.14,187.38h-.67l-.7-2.55h0l-.7,2.55h-.64l-.8-3h.49l.63,2.55h0l.68-2.55h.69l.68,2.55h0l.63-2.55h.48Z"/><path class="cls-16" d="M120.82,184.33A1.19,1.19,0,0,1,122,185h0a2.16,2.16,0,0,1,0-.31v-.22h.44v3H122v-.28a2.88,2.88,0,0,1,0-.32h0a1.19,1.19,0,0,1-1.15.69,1.49,1.49,0,0,1-1.53-1.57A1.5,1.5,0,0,1,120.82,184.33Zm1.12,1.57a1.11,1.11,0,1,0-1.11,1.15A1.1,1.1,0,0,0,121.94,185.9Z"/><path class="cls-16" d="M123.29,183.06h.46V187h.85v.41h-1.31Z"/><path class="cls-16" d="M125.11,183.06h.46v2.63h.3a.9.9,0,0,0,1-.95,1.94,1.94,0,0,0,0-.33h.47a3.33,3.33,0,0,1,0,.34,1.25,1.25,0,0,1-.68,1.19l.84,1.43H127l-.74-1.29c-.11,0-.22,0-.34,0l-.32,0v1.28h-.46Z"/><path class="cls-16" d="M128.07,183.57a.28.28,0,0,1,.29-.28.28.28,0,0,1,.29.28.29.29,0,0,1-.29.3A.28.28,0,0,1,128.07,183.57Zm.06,3.81v-3h.46v3Z"/><path class="cls-16" d="M131.93,184.42v3h-.46v-2.55H130v2.55h-.46v-3Z"/><path class="cls-16" d="M134.09,184.33a1.21,1.21,0,0,1,1.16.62h0c0-.09,0-.18,0-.31v-.22h.43v4.28h-2.22v-.41h1.76v-1.22a3,3,0,0,1,0-.32h0a1.16,1.16,0,0,1-1.12.63,1.53,1.53,0,0,1,0-3Zm-1,1.52a1.08,1.08,0,1,0,1.08-1.11A1.06,1.06,0,0,0,133.09,185.85Z"/><path class="cls-16" d="M138.18,184.83h-.34v-.41h.34v-.78h.46v.78h.91v.41h-.91V187h.82v.41h-1.28Z"/><path class="cls-16" d="M139.85,185.9a1.56,1.56,0,1,1,1.56,1.57A1.52,1.52,0,0,1,139.85,185.9Zm2.65,0a1.09,1.09,0,1,0-1.09,1.15A1.09,1.09,0,0,0,142.5,185.9Z"/><path class="cls-16" d="M74.72,196.29H76.4v-1a2.54,2.54,0,0,1,0-.3h0c-.06.17-.31.43-.85.43a1.11,1.11,0,0,1-1.11-1.18v-1.83h.46v1.82a.76.76,0,1,0,1.51,0v-1.82h.46v4.28H74.72Z"/><path class="cls-16" d="M77.54,193.9a1.56,1.56,0,1,1,1.56,1.57A1.53,1.53,0,0,1,77.54,193.9Zm2.65,0a1.09,1.09,0,1,0-1.09,1.15A1.09,1.09,0,0,0,80.19,193.9Z"/><path class="cls-16" d="M81.34,195.38v-3h.46V195h1.48v-2.55h.46v3Z"/><path class="cls-16" d="M87.07,192.42v3h-.46v-2.55H85.1v2.55h-.46v-3Z"/><path class="cls-16" d="M89.23,192.33a1.21,1.21,0,0,1,1.16.62h0c0-.09,0-.18,0-.31v-.22h.43v4.28H88.61v-.41h1.76v-1.22a3,3,0,0,1,0-.32h0a1.16,1.16,0,0,1-1.12.63,1.53,1.53,0,0,1,0-3Zm-1,1.52a1.08,1.08,0,1,0,1.08-1.11A1.06,1.06,0,0,0,88.23,193.85Z"/><path class="cls-16" d="M94.24,191.06h.6l1.5,4.32h-.51l-.39-1.19H93.62l-.39,1.19h-.49Zm-.47,2.72H95.3l-.75-2.26h0Z"/><path class="cls-16" d="M100.92,195.38h-.46v-2a.65.65,0,0,0-.68-.68.64.64,0,0,0-.66.68v2h-.46v-2a.67.67,0,1,0-1.34,0v2h-.46v-2A1.07,1.07,0,0,1,98,192.33a1,1,0,0,1,.91.49,1,1,0,0,1,.9-.49,1.06,1.06,0,0,1,1.12,1.09Z"/><path class="cls-16" d="M103.38,195.47a1.2,1.2,0,0,1-1.13-.58h0a2.16,2.16,0,0,1,0,.31v1.5h-.46v-4.28h.43v.21a2.54,2.54,0,0,1,0,.31h0a1.34,1.34,0,0,1,1.19-.61,1.57,1.57,0,0,1,0,3.14Zm-1.15-1.57a1.11,1.11,0,1,0,1.11-1.16A1.1,1.1,0,0,0,102.23,193.9Z"/><path class="cls-16" d="M105.6,195.38v-4.32h.46v1.36h2v3h-.46v-2.55h-1.51v2.55Z"/><path class="cls-16" d="M108.87,191.57a.3.3,0,1,1,.3.3A.29.29,0,0,1,108.87,191.57Zm.07,3.81v-3h.46v3Z"/><path class="cls-16" d="M111.91,195.47a1.27,1.27,0,0,1-1.17-.61h0a1.52,1.52,0,0,1,0,.32v.2h-.43v-4.32h.46v1.54a2.33,2.33,0,0,1,0,.32h0a1.31,1.31,0,0,1,1.13-.59,1.57,1.57,0,0,1,0,3.14Zm1-1.57a1.11,1.11,0,1,0-1.1,1.15A1.09,1.09,0,0,0,113,193.9Z"/><path class="cls-16" d="M114.06,191.57a.28.28,0,0,1,.29-.28.29.29,0,0,1,.3.28.29.29,0,0,1-.3.3A.29.29,0,0,1,114.06,191.57Zm.06,3.81v-3h.46v3Z"/><path class="cls-16" d="M116.82,192.33A1.19,1.19,0,0,1,118,193h0a2.16,2.16,0,0,1,0-.31v-.22h.44v3H118v-.28a2.88,2.88,0,0,1,0-.32h0a1.19,1.19,0,0,1-1.15.69,1.57,1.57,0,0,1,0-3.14ZM118,193.9a1.11,1.11,0,1,0-1.11,1.15A1.1,1.1,0,0,0,118,193.9Z"/><path class="cls-16" d="M121.73,192.42v3h-.46v-2.55h-1.51v2.55h-.46v-3Z"/><path class="cls-16" d="M123.37,193.61l.4.18a.86.86,0,0,1-.37,1.68,1,1,0,0,1-1-.77l.36-.2a.7.7,0,0,0,.71.56c.3,0,.51-.15.51-.44s-.14-.34-.45-.48l-.36-.17a.87.87,0,0,1-.64-.83.84.84,0,0,1,.92-.81,1,1,0,0,1,1,.67l-.34.19a.66.66,0,0,0-.64-.47.43.43,0,0,0-.48.41C122.94,193.35,123.07,193.47,123.37,193.61Z"/><path class="cls-16" d="M124.94,195.13a.3.3,0,0,1,.29-.29.29.29,0,1,1,0,.58A.3.3,0,0,1,124.94,195.13Z"/><path class="cls-17" d="M78.68,39.83h4.65a3.57,3.57,0,0,1,.06.87A4.11,4.11,0,0,1,79,45.07a4.42,4.42,0,0,1-4.6-4.69A4.45,4.45,0,0,1,79,35.69a4.26,4.26,0,0,1,3.68,1.87l-1.43,1.19A2.62,2.62,0,0,0,79,37.55c-1.5,0-2.46,1.12-2.46,2.82s1,2.81,2.46,2.81a2.13,2.13,0,0,0,2.23-1.52H78.68Z"/><path class="cls-17" d="M85.48,35.88h2.11v9H85.48Z"/><path class="cls-17" d="M90.15,35.88h2.11V43h2.89v1.86h-5Z"/><path class="cls-17" d="M97.1,35.88h2.11V43h2.89v1.86h-5Z"/><g id="stargazers_logo" data-name="stargazers logo"><path class="cls-2" d="M50,229.68a1.76,1.76,0,0,0,1.62-.78,1.18,1.18,0,0,0-.1-1.22L43.8,216a1.59,1.59,0,0,0-2.56,0l-7.7,11.71a1.18,1.18,0,0,0-.1,1.23,1.76,1.76,0,0,0,1.62.77h7.06l.32,1.19.34-1.19ZM51.09,228a.67.67,0,0,1,.08.72,1.32,1.32,0,0,1-1.19.52H42.92l.18-.64a1.38,1.38,0,0,0,.71-1.22.91.91,0,0,0,0-.17H44l0-.07a1.47,1.47,0,0,0,.07-.17c.56,0,1.43.61,1.6.38s-.82-1.82-1.15-2.36c0-.21,0-.43.05-.66s0-.42,0-.64A12.47,12.47,0,0,1,49.83,226ZM46,222.35h.31V222a.07.07,0,1,1,.14,0v.31h.31a.07.07,0,0,1,0,.14h-.31v.3a.07.07,0,0,1-.14,0v-.3H46a.07.07,0,0,1,0-.14Zm-1.11-1.76.18-.48.18.48.48.18-.48.18-.18.49-.18-.49-.48-.18Zm-2.71-3.41.19-.63.2.63.63.19-.63.2-.2.63-.19-.63-.64-.2Zm-3.67,4.73H39v-.47a.1.1,0,0,1,.1-.11.11.11,0,0,1,.11.11v.47h.47a.11.11,0,0,1,.11.11.1.1,0,0,1-.11.1h-.47v.48a.1.1,0,0,1-.11.1.09.09,0,0,1-.1-.1v-.48h-.48a.09.09,0,0,1-.1-.1A.1.1,0,0,1,38.54,221.91Zm-2.76,3.25a10.53,10.53,0,0,1,4.54-2.37,5.92,5.92,0,0,1,2-4l.17-.15.17.16a6.79,6.79,0,0,1,2,3.92A9.1,9.1,0,0,1,49.12,225l.39.58a9,9,0,0,0-5-2.58,6.65,6.65,0,0,0-1.95-4l-.07-.07-.08.06a5.8,5.8,0,0,0-2,4,10.7,10.7,0,0,0-5,2.7Zm1,4,.29-1.57.15-.07.56,1.64Zm2.33,0-1.41-2-.22,0,.13.37,1.09,1.62h-.57l-.77-2-.45.28-.43,1.74H35.06a1.34,1.34,0,0,1-1.19-.51A.68.68,0,0,1,34,228L35.2,226a16.33,16.33,0,0,1,5.21-2.34c0,.14,0,.28,0,.43s0,.52.07.76c-.3.47-1.36,2.2-1.19,2.41s1.09-.42,1.65-.38l.06.17,0,.07h.11c0,.05,0,.11,0,.17a1.37,1.37,0,0,0,.67,1.19l.18.67ZM41.78,227a8.35,8.35,0,0,1-.58-3.71.09.09,0,0,0-.09-.1.11.11,0,0,0-.1.09,8.35,8.35,0,0,0,.57,3.72h-.4a10.23,10.23,0,0,1-.55-2.84A6.41,6.41,0,0,1,41.74,220a2.09,2.09,0,0,0,1.36.08c.46.68,1.62,2.94.16,6.87Z"/><path class="cls-2" d="M42.53,221.47c-.52,0-.94.91-.94,1.43a.95.95,0,1,0,1.89,0C43.48,222.38,43.06,221.47,42.53,221.47ZM42.14,223a.24.24,0,1,1,.24-.24A.24.24,0,0,1,42.14,223Z"/><path class="cls-2" d="M42.53,224.36a.5.5,0,0,0-.49.5c0,.27.22,1.14.49,1.14s.5-.87.5-1.14A.5.5,0,0,0,42.53,224.36Z"/><path class="cls-2" d="M41.15,222.82a.11.11,0,0,0,0,.22.11.11,0,0,0,0-.22Z"/><path class="cls-2" d="M46.16,228.54a2,2,0,0,0,.51-.09l.34-.12a1.23,1.23,0,0,0,.75.25A1.25,1.25,0,0,0,49,227.33a.28.28,0,0,0,0-.09c.45-.32.79-.67.67-.88s-.34-.16-.79,0l-.26.09a1.22,1.22,0,0,0-.86-.35,1.25,1.25,0,0,0-1.25,1.25,1.94,1.94,0,0,0,0,.24l-.24.18c-.35.3-.49.52-.4.68A.29.29,0,0,0,46.16,228.54Zm1.6-.16a1.08,1.08,0,0,1-.53-.14,8.36,8.36,0,0,0,.8-.39c.23-.13.51-.29.78-.47A1.06,1.06,0,0,1,47.76,228.38Zm1.64-1.94a.22.22,0,0,1,.1,0c0,.07-.17.28-.53.56a1.3,1.3,0,0,0-.2-.43A2.48,2.48,0,0,1,49.4,226.44Zm-.61.71a9,9,0,0,1-.86.53,8.35,8.35,0,0,1-.88.42,1,1,0,0,1-.29-.45,8.23,8.23,0,0,1,.86-.54c.36-.19.68-.34,1-.45A1,1,0,0,1,48.79,227.15Zm-1-.87a1.08,1.08,0,0,1,.66.23,7.19,7.19,0,0,0-.89.43,7.73,7.73,0,0,0-.82.5v-.11A1,1,0,0,1,47.76,226.28Zm-1.17,1.49a1.33,1.33,0,0,0,.25.41c-.45.16-.73.2-.78.15S46.22,228.05,46.59,227.77Z"/><path class="cls-2" d="M35.82,227.21l-.63.41c0,.31.21.29.21.29l.59-.39A.4.4,0,0,1,35.82,227.21Z"/><path class="cls-2" d="M37,226.32,35.9,227a.6.6,0,0,0,.26.48l1.15-.64A.76.76,0,0,1,37,226.32Z"/><path class="cls-2" d="M38.33,225.87a.57.57,0,0,1,0-.43l-1.14.7a.77.77,0,0,0,.37.67l1.2-.65A.5.5,0,0,1,38.33,225.87Z"/><path class="cls-2" d="M38.37,225.43s0,.12,0,.19a.19.19,0,0,1,.22.1c.08.13.09.23,0,.3a.58.58,0,0,0,.18.07s.13-.16,0-.46A.38.38,0,0,0,38.37,225.43Z"/><path class="cls-2" d="M33.33,231.28a.82.82,0,0,0-.81.82v.36a.64.64,0,0,0,.13.45l1,1.8s0,0,0,.12v.35a.37.37,0,1,1-.73,0v-.24a.11.11,0,0,0-.11-.11h-.23a.11.11,0,0,0-.11.11v.24a.82.82,0,1,0,1.63,0v-.35a.61.61,0,0,0-.14-.45l-1-1.8s0,0,0-.12v-.36a.37.37,0,0,1,.73,0v.24a.1.1,0,0,0,.11.11H34a.11.11,0,0,0,.11-.11v-.24A.82.82,0,0,0,33.33,231.28Z"/><path class="cls-2" d="M35.59,231.28H34.5a.12.12,0,0,0-.12.12v.22a.12.12,0,0,0,.12.12h.32v4.14a.11.11,0,0,0,.11.12h.23a.11.11,0,0,0,.11-.12v-4.14h.32a.11.11,0,0,0,.11-.12v-.22A.12.12,0,0,0,35.59,231.28Z"/><path class="cls-2" d="M39.08,231.28h-.59a.23.23,0,0,0-.22.23v4.37a.11.11,0,0,0,.11.12h.23a.12.12,0,0,0,.11-.12v-2h.36a.37.37,0,0,1,.36.37v1.65a.12.12,0,0,0,.12.12h.22a.12.12,0,0,0,.12-.12v-1.65a.82.82,0,0,0-.25-.59.84.84,0,0,0,.25-.59v-.94A.82.82,0,0,0,39.08,231.28Zm.36,1.77a.36.36,0,0,1-.36.36h-.36v-1.67h.36a.36.36,0,0,1,.36.37Z"/><path class="cls-2" d="M41.3,231.28a.82.82,0,0,0-.82.82v3.08a.82.82,0,0,0,.82.82.82.82,0,0,0,.81-.82v-1.66a.11.11,0,0,0-.11-.12h-.59a.11.11,0,0,0-.11.12v.22a.11.11,0,0,0,.11.12h.25v1.32a.36.36,0,0,1-.72,0V232.1a.36.36,0,1,1,.72,0v.24a.11.11,0,0,0,.11.11H42a.1.1,0,0,0,.11-.11v-.24A.82.82,0,0,0,41.3,231.28Z"/><path class="cls-2" d="M46.45,231.28H45a.12.12,0,0,0-.11.12v.22a.11.11,0,0,0,.11.12H46.1v.73a.31.31,0,0,1,0,.11l-1,1.81a.64.64,0,0,0-.13.45v1A.11.11,0,0,0,45,236h1.41a.11.11,0,0,0,.11-.12v-.22a.12.12,0,0,0-.11-.12H45.38v-.7c0-.08,0-.08,0-.12l1-1.8c.14-.25.14-.25.14-.45V231.4A.12.12,0,0,0,46.45,231.28Z"/><path class="cls-2" d="M48.15,231.28H47.3a.23.23,0,0,0-.22.23v4.26a.22.22,0,0,0,.22.23h.85a.11.11,0,0,0,.11-.12v-.22a.12.12,0,0,0-.11-.12h-.62v-1.67h.62a.12.12,0,0,0,.11-.11v-.23a.11.11,0,0,0-.11-.11h-.62v-1.68h.62a.11.11,0,0,0,.11-.12v-.22A.12.12,0,0,0,48.15,231.28Z"/><path class="cls-2" d="M49.59,231.28H49a.23.23,0,0,0-.22.23v4.37a.11.11,0,0,0,.11.12h.23a.12.12,0,0,0,.11-.12v-2h.36a.37.37,0,0,1,.36.37v1.65a.12.12,0,0,0,.12.12h.22a.12.12,0,0,0,.12-.12v-1.65a.82.82,0,0,0-.25-.59.84.84,0,0,0,.25-.59v-.94A.82.82,0,0,0,49.59,231.28Zm.36,1.77a.36.36,0,0,1-.36.36h-.36v-1.67h.36a.36.36,0,0,1,.36.37Z"/><path class="cls-2" d="M52.18,232.45h.23a.11.11,0,0,0,.11-.11v-.24a.82.82,0,1,0-1.63,0v.36a.64.64,0,0,0,.13.45l1,1.8s0,0,0,.12v.35a.37.37,0,1,1-.73,0v-.24a.11.11,0,0,0-.11-.11H51a.11.11,0,0,0-.11.11v.24a.82.82,0,1,0,1.63,0v-.35a.61.61,0,0,0-.14-.45l-1-1.8s0,0,0-.12v-.36a.37.37,0,0,1,.73,0v.24A.1.1,0,0,0,52.18,232.45Z"/><path class="cls-2" d="M43.53,231.28a.83.83,0,0,0-.83.83v3.77a.12.12,0,0,0,.12.12H43a.12.12,0,0,0,.12-.12v-1.79l.73-.45v2.24A.11.11,0,0,0,44,236h.23a.11.11,0,0,0,.11-.12v-3.77A.82.82,0,0,0,43.53,231.28Zm.36,1.91-.73.45v-1.53a.36.36,0,0,1,.37-.37.37.37,0,0,1,.36.37Z"/><path class="cls-2" d="M36.9,231.28a.83.83,0,0,0-.82.83v3.77a.11.11,0,0,0,.11.12h.23a.11.11,0,0,0,.11-.12v-1.79l.73-.45v2.24a.11.11,0,0,0,.11.12h.23a.11.11,0,0,0,.11-.12v-3.77A.82.82,0,0,0,36.9,231.28Zm.36,1.91-.73.45v-1.53a.37.37,0,1,1,.73,0Z"/></g><g id="favorites"><path class="cls-2" d="M29.63,87.56h2v.69H30.42V89h1.14v.68H30.42v1.22h-.79Z"/><path class="cls-2" d="M33,87.56h1l1,3.38h-.86L34,90.28H33l-.17.66H32Zm.16,2h.68l-.33-1.25h0Z"/><path class="cls-2" d="M37.22,90.94h-1l-1-3.38H36l.68,2.6h0l.68-2.6h.82Z"/><path class="cls-2" d="M38.61,89.25A1.72,1.72,0,1,1,40.33,91,1.66,1.66,0,0,1,38.61,89.25Zm2.63,0a.92.92,0,0,0-.91-1c-.57,0-.91.41-.91,1s.34,1.05.91,1.05S41.24,89.88,41.24,89.24Z"/><path class="cls-2" d="M43.78,89.67H43.6v1.27h-.79V87.56h1.34a1.09,1.09,0,0,1,1.15,1.07,1,1,0,0,1-.7,1l.78,1.35h-.9Zm.73-1a.4.4,0,0,0-.44-.4H43.6v.8h.47A.4.4,0,0,0,44.51,88.65Z"/><path class="cls-2" d="M46.1,87.56h.79v3.38H46.1Z"/><path class="cls-2" d="M48.36,88.25h-.79v-.69h2.37v.69h-.79v2.69h-.79Z"/><path class="cls-2" d="M51.68,91c-.78,0-1.26-.42-1.26-1a.84.84,0,0,1,.6-.85.8.8,0,0,1-.5-.77c0-.55.46-.9,1.18-.9a1.3,1.3,0,0,1,1,.39l-.41.53a.81.81,0,0,0-.58-.22c-.31,0-.44.14-.44.32s.2.37.56.37h.46v.66h-.52c-.35,0-.54.15-.54.37s.17.39.49.39a.78.78,0,0,0,.58-.21l.39.52A1.19,1.19,0,0,1,51.68,91Z"/><path class="cls-2" d="M54.3,88.7l.63.38a1,1,0,0,1,.55.93,1,1,0,0,1-1.12,1,1.09,1.09,0,0,1-1.15-1l.69-.26c0,.2.16.52.48.52a.27.27,0,0,0,.3-.28c0-.12,0-.22-.23-.33l-.55-.34a1,1,0,0,1,.46-1.86,1,1,0,0,1,1.1.81l-.68.25c-.12-.3-.27-.37-.44-.37a.22.22,0,0,0-.25.22C54.09,88.55,54.18,88.62,54.3,88.7Z"/><path class="cls-2" d="M34.89,109.56h2v.69H35.68V111h1.14v.68H35.68v1.22h-.79Z"/><path class="cls-2" d="M37.46,111.25A1.73,1.73,0,1,1,39.18,113,1.66,1.66,0,0,1,37.46,111.25Zm2.64,0a.92.92,0,1,0-1.83,0c0,.64.35,1.05.91,1.05A.92.92,0,0,0,40.1,111.24Z"/><path class="cls-2" d="M41.51,111.25A1.73,1.73,0,1,1,43.23,113,1.66,1.66,0,0,1,41.51,111.25Zm2.64,0a.92.92,0,1,0-1.83,0c0,.64.35,1.05.91,1.05A.92.92,0,0,0,44.15,111.24Z"/><path class="cls-2" d="M45.72,112.94v-3.38H46.9a1.69,1.69,0,1,1,0,3.38Zm2.1-1.7a.89.89,0,0,0-.92-1h-.39v2h.39A.9.9,0,0,0,47.82,111.24Z"/><path class="cls-2" d="M49.3,110.72a.45.45,0,0,1,.45-.44.44.44,0,0,1,.44.44.44.44,0,0,1-.44.44A.45.45,0,0,1,49.3,110.72Zm0,1.59a.45.45,0,0,1,.45-.44.44.44,0,0,1,.44.44.44.44,0,0,1-.44.44A.45.45,0,0,1,49.3,112.31Z"/><path class="cls-2" d="M35.92,117.25a.88.88,0,1,0-.72,1.43.86.86,0,0,0,.74-.4l.22.22a1.12,1.12,0,0,1-1,.51,1.23,1.23,0,0,1,0-2.45,1.14,1.14,0,0,1,.95.47Z"/><path class="cls-2" d="M37.66,116.63V117H37v2h-.36v-2.31Z"/><path class="cls-2" d="M39.06,116.56A.93.93,0,0,1,40,117h0c0-.07,0-.13,0-.25v-.16h.34v2.31H40v-.22c0-.1,0-.17,0-.25h0a.94.94,0,0,1-.9.54,1.23,1.23,0,0,1,0-2.45Zm.88,1.22a.87.87,0,1,0-.87.9A.85.85,0,0,0,39.94,117.78Z"/><path class="cls-2" d="M43.52,118.94H43l-.55-2h0l-.55,2h-.51l-.62-2.31h.38l.49,2h0l.53-2h.54l.54,2h0l.49-2h.38Z"/><path class="cls-2" d="M44.39,116.63h.3v-.25a.8.8,0,0,1,.86-.85,1,1,0,0,1,.7.23l-.15.27a.78.78,0,0,0-.52-.18.5.5,0,0,0-.53.54v.24H46.3v2.31h-.36v-2h-.89v2h-.36v-2h-.3Z"/><path class="cls-2" d="M47.59,117.55l.3.14a.7.7,0,0,1,.5.66.69.69,0,0,1-.78.66.77.77,0,0,1-.81-.6l.28-.16a.54.54,0,0,0,.55.44c.24,0,.4-.12.4-.34s-.11-.27-.35-.38l-.28-.13c-.3-.14-.51-.31-.51-.65a.66.66,0,0,1,.72-.63.77.77,0,0,1,.78.52l-.27.15a.51.51,0,0,0-.5-.37.34.34,0,0,0-.37.32C47.25,117.35,47.35,117.45,47.59,117.55Z"/><path class="cls-2" d="M48.94,118.94v-3.38h.36v1.07h1.54v2.31h-.36v-2H49.3v2Z"/><path class="cls-2" d="M35.11,125a1.23,1.23,0,0,1,0-2.45,1.14,1.14,0,0,1,1.14,1.22.86.86,0,0,1,0,.16h-2a.82.82,0,0,0,.84.74.93.93,0,0,0,.74-.35l.21.22A1.16,1.16,0,0,1,35.11,125Zm-.84-1.38h1.61a.76.76,0,0,0-.78-.75A.81.81,0,0,0,34.27,123.63Zm1-2.21h.44l-.57.74h-.36Z"/><path class="cls-2" d="M36.81,122.94h-.26v-.31h.26V122h.36v.62h.71v.31h-.71v1.68h.65v.32h-1Z"/><path class="cls-2" d="M38.12,123.78A1.22,1.22,0,1,1,39.34,125,1.19,1.19,0,0,1,38.12,123.78Zm2.07,0a.85.85,0,1,0-.85.9A.85.85,0,0,0,40.19,123.78Z"/><path class="cls-2" d="M41.09,124.94v-2.31h.36v2H42.6v-2H43v2.31Z"/><path class="cls-2" d="M43.49,122.63h.27v-1.07h1v.32h-.67v.75h.64v.31h-.64v2h-.36v-2h-.27Z"/><path class="cls-2" d="M45,122.63h.27v-.3a.71.71,0,0,1,.78-.8,1,1,0,0,1,.27,0v.32a.66.66,0,0,0-.21,0,.45.45,0,0,0-.48.51v.27h.62v.31H45.6v2h-.36v-2H45Z"/><path class="cls-2" d="M47.6,125a1.23,1.23,0,0,1,0-2.45,1.14,1.14,0,0,1,1.14,1.22s0,.12,0,.16h-2a.82.82,0,0,0,.85.74.91.91,0,0,0,.73-.35l.21.22A1.13,1.13,0,0,1,47.6,125Zm-.84-1.38h1.62a.76.76,0,0,0-.79-.75A.82.82,0,0,0,46.76,123.63Zm1-2.21h.45l-.57.74h-.36Z"/><path class="cls-2" d="M51.08,123.46V124h-1.5v.67H51v.32H49.22v-1.47a.86.86,0,0,1,.94-.91A.85.85,0,0,1,51.08,123.46Zm-1.5,0v.19h1.14v-.19a.57.57,0,1,0-1.14,0Z"/><path class="cls-2" d="M36.24,144.25v2.69h-.8v-2.69h-.77v2.69h-.8v-3.38H37.8v3.38H37v-2.69Z"/><path class="cls-2" d="M41.33,145.7a1.33,1.33,0,0,1-2.65,0v-2.14h.8v2.22a.53.53,0,0,0,1.05,0v-2.22h.8Z"/><path class="cls-2" d="M43.13,144.7l.63.38a1,1,0,0,1,.55.93,1,1,0,0,1-1.12,1A1.07,1.07,0,0,1,42,146l.69-.26c0,.2.16.52.48.52a.27.27,0,0,0,.3-.28c0-.12,0-.22-.23-.33l-.55-.34a1,1,0,0,1-.59-.9,1,1,0,0,1,1-1,1.05,1.05,0,0,1,1.11.81l-.68.25c-.12-.3-.28-.37-.44-.37a.23.23,0,0,0-.26.22C42.91,144.55,43,144.62,43.13,144.7Z"/><path class="cls-2" d="M45.1,143.56h.79v3.38H45.1Z"/><path class="cls-2" d="M49.22,144.65a1,1,0,0,0-.85-.45.92.92,0,0,0-.91,1c0,.64.35,1,.91,1a1,1,0,0,0,.85-.45l.52.47a1.57,1.57,0,0,1-1.37.7,1.64,1.64,0,0,1-1.72-1.76,1.66,1.66,0,0,1,1.72-1.76,1.59,1.59,0,0,1,1.39.71Z"/><path class="cls-2" d="M50.32,144.72a.44.44,0,1,1,.88,0,.44.44,0,0,1-.88,0Zm0,1.59a.44.44,0,1,1,.88,0,.44.44,0,0,1-.88,0Z"/><path class="cls-2" d="M33.73,153a.94.94,0,0,1-.88-.45h0a1.25,1.25,0,0,1,0,.24V154h-.36v-3.34h.33v.16a1.7,1.7,0,0,1,0,.24h0a1.07,1.07,0,0,1,.93-.47,1.16,1.16,0,0,1,1.18,1.22A1.17,1.17,0,0,1,33.73,153Zm-.9-1.23a.87.87,0,1,0,.87-.9A.86.86,0,0,0,32.83,151.78Z"/><path class="cls-2" d="M35.47,152.94v-2.31h.36v2H37v-2h.36v2.31Z"/><path class="cls-2" d="M40,150.63v2.31h-.36v-2H38.41v2h-.36v-2.31Z"/><path class="cls-2" d="M40.66,149.56H41v2.06h.24a.71.71,0,0,0,.8-.75,2.29,2.29,0,0,0,0-.25h.36a1.72,1.72,0,0,1,0,.26,1,1,0,0,1-.54.93l.66,1.12h-.42l-.58-1-.27,0H41v1h-.36Z"/><path class="cls-2" d="M45.22,150.63V151h-.67v2h-.36v-2.31Z"/><path class="cls-2" d="M45.4,151.78A1.22,1.22,0,1,1,46.62,153,1.19,1.19,0,0,1,45.4,151.78Zm2.08,0a.86.86,0,1,0-.86.9A.85.85,0,0,0,47.48,151.78Z"/><path class="cls-2" d="M50.15,151.25a.88.88,0,1,0-.72,1.43.89.89,0,0,0,.74-.4l.22.22a1.14,1.14,0,0,1-1,.51,1.23,1.23,0,1,1,0-2.45,1.12,1.12,0,0,1,.94.47Z"/><path class="cls-2" d="M50.85,149.56h.36v2.06h.23a.72.72,0,0,0,.81-.75,2.29,2.29,0,0,0,0-.25h.36a1.72,1.72,0,0,1,0,.26,1,1,0,0,1-.54.93l.66,1.12h-.42l-.59-1-.26,0h-.25v1h-.36Z"/><path class="cls-2" d="M34.15,172.68A1.12,1.12,0,0,1,33,173.8h-.59v1.14h-.8v-3.38H33A1.11,1.11,0,0,1,34.15,172.68Zm-.79,0a.41.41,0,0,0-.44-.44h-.51v.87h.51A.42.42,0,0,0,33.36,172.69Z"/><path class="cls-2" d="M37.26,174.94h-.78v-.88h-.87v.88h-.79v-2.25a1.22,1.22,0,0,1,2.44,0Zm-1.65-1.56h.87v-.64c0-.39-.19-.54-.44-.54s-.43.15-.43.54Z"/><path class="cls-2" d="M39.06,172.7l.64.38a1.05,1.05,0,0,1,.55.93,1,1,0,0,1-1.12,1A1.09,1.09,0,0,1,38,174l.69-.26c0,.2.17.52.48.52a.27.27,0,0,0,.3-.28c0-.12,0-.22-.22-.33l-.56-.34a1,1,0,0,1,.46-1.86,1,1,0,0,1,1.1.81l-.68.25c-.11-.3-.27-.37-.43-.37a.23.23,0,0,0-.26.22C38.85,172.55,38.94,172.62,39.06,172.7Z"/><path class="cls-2" d="M41.54,172.25h-.79v-.69h2.37v.69h-.79v2.69h-.79Z"/><path class="cls-2" d="M43.81,171.56h.79v3.38h-.79Z"/><path class="cls-2" d="M46.88,174.23l-.59-1.3h0v2h-.76v-3.38h1l.72,1.66h0l.76-1.66h.92v3.38h-.75v-2h0l-.6,1.3Z"/><path class="cls-2" d="M49.82,171.56h2v.69H50.61v.65h1.13v.67H50.61v.67h1.24v.7h-2Z"/><path class="cls-2" d="M52.58,172.72a.44.44,0,1,1,.88,0,.44.44,0,0,1-.88,0Zm0,1.59a.44.44,0,1,1,.88,0,.44.44,0,0,1-.88,0Z"/><path class="cls-2" d="M29.64,178.56a.93.93,0,0,1,.89.48h0c0-.07,0-.13,0-.25v-.16h.34v2.31h-.34v-.22c0-.1,0-.17,0-.25h0a.94.94,0,0,1-.9.54,1.23,1.23,0,0,1,0-2.45Zm.88,1.22a.86.86,0,1,0-.86.9A.85.85,0,0,0,30.52,179.78Z"/><path class="cls-2" d="M32.6,178.56a1,1,0,0,1,.92.48h0a1.63,1.63,0,0,1,0-.24v-.17h.33V182h-.36v-1.22a1.85,1.85,0,0,1,0-.25h0a.91.91,0,0,1-.89.51,1.23,1.23,0,0,1,0-2.45Zm-.82,1.22a.87.87,0,1,0,.86-.9A.86.86,0,0,0,31.78,179.78Z"/><path class="cls-2" d="M34.56,180.94v-2.31h.36v2h1.16v-2h.36v2.31Z"/><path class="cls-2" d="M38.19,178.56a.93.93,0,0,1,.89.48h0a1.7,1.7,0,0,1,0-.25v-.16h.34v2.31h-.34v-.22a1.93,1.93,0,0,1,0-.25h0a1,1,0,0,1-.9.54,1.23,1.23,0,0,1,0-2.45Zm.88,1.22a.87.87,0,1,0-.87.9A.85.85,0,0,0,39.07,179.78Z"/><path class="cls-2" d="M40.7,179.55l.31.14a.68.68,0,0,1-.29,1.32.78.78,0,0,1-.81-.6l.28-.16a.55.55,0,0,0,.55.44c.24,0,.41-.12.41-.34s-.11-.27-.35-.38l-.29-.13c-.29-.14-.5-.31-.5-.65a.66.66,0,0,1,.72-.63.79.79,0,0,1,.78.52l-.27.15a.52.52,0,0,0-.5-.37.34.34,0,0,0-.38.32C40.36,179.35,40.47,179.45,40.7,179.55Z"/><path class="cls-2" d="M43.83,179.25a.86.86,0,0,0-.72-.37.9.9,0,1,0,.73,1.4l.22.22a1.12,1.12,0,0,1-1,.51,1.23,1.23,0,1,1,0-2.45,1.13,1.13,0,0,1,.94.47Z"/><path class="cls-2" d="M45.55,178.56a.93.93,0,0,1,.89.48h0a1.7,1.7,0,0,1,0-.25v-.16h.34v2.31h-.34v-.22a1.93,1.93,0,0,1,0-.25h0a.94.94,0,0,1-.9.54,1.23,1.23,0,0,1,0-2.45Zm.88,1.22a.87.87,0,1,0-.87.9A.85.85,0,0,0,46.43,179.78Z"/><path class="cls-2" d="M48.74,181a.94.94,0,0,1-.89-.45h0a1.25,1.25,0,0,1,0,.24V182h-.36v-3.34h.34v.16a1.54,1.54,0,0,1,0,.24h0a1,1,0,0,1,.92-.47,1.23,1.23,0,0,1,0,2.45Zm-.91-1.23a.87.87,0,1,0,.87-.9A.86.86,0,0,0,47.83,179.78Z"/><path class="cls-2" d="M50.42,178a.23.23,0,0,1,.46,0,.23.23,0,1,1-.46,0Zm0,3v-2.31h.36v2.31Z"/><path class="cls-2" d="M53.45,178.63v2.31h-.36v-2H51.91v2h-.36v-2.31Z"/><path class="cls-2" d="M55.14,178.56a.94.94,0,0,1,.91.48h0c0-.07,0-.14,0-.24v-.17h.34V182H54.65v-.32H56v-1a1.85,1.85,0,0,1,0-.25h0a.91.91,0,0,1-.88.49A1.14,1.14,0,0,1,54,179.75,1.12,1.12,0,0,1,55.14,178.56Zm-.78,1.18a.84.84,0,1,0,1.68,0,.84.84,0,1,0-1.68,0Z"/><line class="cls-18" x1="47.52" y1="99.58" x2="37.52" y2="99.58"/><line class="cls-18" x1="47.52" y1="133.49" x2="37.52" y2="133.49"/><line class="cls-18" x1="47.52" y1="161.54" x2="37.52" y2="161.54"/></g><g id="big_star_logo" data-name="big star logo"><path class="cls-1" d="M138.92,232.19s0,0,0,0a.44.44,0,0,1-.31.33c-.18.05-.3,0-.3-.21a.55.55,0,0,1,.37-.54c.16,0,.28,0,.28.18v0l-.07,0h0a.13.13,0,0,0-.19-.13.43.43,0,0,0-.27.43c0,.14.08.2.2.16a.29.29,0,0,0,.22-.23h0Z"/><path class="cls-1" d="M139.75,232.23c-.18,0-.29,0-.29-.21a.57.57,0,0,1,.39-.55c.18-.05.29,0,.29.21A.58.58,0,0,1,139.75,232.23Zm0-.08a.45.45,0,0,0,.3-.44.15.15,0,0,0-.2-.16.44.44,0,0,0-.3.44A.15.15,0,0,0,139.75,232.15Z"/><path class="cls-1" d="M140.62,232h0l.09-.38.07-.34s0,0,0,0l.08,0h0l-.08.34-.07.32.31-.09a0,0,0,0,1,0,0v.06h0Z"/><path class="cls-1" d="M141.56,231.73h0l.09-.38.07-.34s0,0,0,0l.07,0h0l-.08.34-.06.32.31-.09h0l0,.06h0Z"/><path class="cls-1" d="M142.49,231.48h0l.09-.38.07-.34v0l.42-.11h0v.07l-.34.09-.05.23.31-.09h0V231h0l-.32.09-.06.27.35-.09h0l0,.06a0,0,0,0,1,0,0Z"/><path class="cls-1" d="M144.12,230.8s0,0,0,0a.46.46,0,0,1-.32.34c-.18,0-.3,0-.3-.22a.55.55,0,0,1,.38-.53c.15,0,.27,0,.27.18s0,0,0,0l-.07,0h0c0-.1-.07-.15-.19-.12a.42.42,0,0,0-.27.42c0,.14.08.2.2.17a.29.29,0,0,0,.22-.23l0,0Z"/><path class="cls-1" d="M144.73,230.88s0,0,0,0l.08-.36.06-.3-.19.06a0,0,0,0,1,0,0v-.06h0l.48-.13h0v.07l-.19.05-.08.3-.07.35v0Z"/><path class="cls-1" d="M145.56,230.66h0l.08-.37.08-.35s0,0,0,0l.08,0s0,0,0,0l-.08.36-.07.36,0,0Z"/><path class="cls-1" d="M146.53,230.4l-.29.07s0,0,0,0l.08-.37.07-.35h0l.24-.07c.15,0,.24,0,.22.13a.29.29,0,0,1-.17.19c.1,0,.13.06.12.15A.4.4,0,0,1,146.53,230.4Zm-.18,0,.18-.05a.22.22,0,0,0,.19-.17c0-.11-.05-.13-.14-.1l-.18,0Zm.07-.35.19-.05a.22.22,0,0,0,.17-.15c0-.09,0-.11-.14-.09l-.16.05Z"/><path class="cls-1" d="M147.34,230.18s0,0,0,0l.09-.38.07-.34v0l.08,0s0,0,0,0l-.08.34-.06.32.31-.09h0l0,.06h0Z"/><path class="cls-1" d="M148.27,229.93a0,0,0,0,1,0,0l.09-.37.07-.35v0l.43-.11s0,0,0,0v.06h0l-.33.09-.06.23.31-.09h0v.06a0,0,0,0,1,0,0l-.32.09-.05.28.34-.1h0l0,.06h0Z"/><path class="cls-1" d="M149.83,229.3a.35.35,0,0,1-.28.3c-.17,0-.29,0-.28-.17a0,0,0,0,1,0,0l.08,0s0,0,0,0,.06.16.19.12a.2.2,0,0,0,.17-.18c0-.16-.38,0-.38-.2a.33.33,0,0,1,.27-.29c.16,0,.26,0,.26.14v0l-.08,0h0c0-.09-.05-.12-.16-.09s-.18.1-.18.17S149.83,229.07,149.83,229.3Z"/><path class="cls-1" d="M150.88,226.37a1.56,1.56,0,0,1-1.49,1.26,1.17,1.17,0,0,1-.91-.41,1.09,1.09,0,0,1-.24-.48l.79-.21a.33.33,0,0,0,.07.17.41.41,0,0,0,.29.12.73.73,0,0,0,.68-.59.33.33,0,0,0-.29-.44l-.26,0a1,1,0,0,1-.7-.4,1.06,1.06,0,0,1-.18-.8,1.32,1.32,0,0,1,1.26-1.06,1,1,0,0,1,.78.35,1.2,1.2,0,0,1,.2.39l-.79.21,0-.07a.22.22,0,0,0-.16-.06.49.49,0,0,0-.45.38.21.21,0,0,0,0,.17.23.23,0,0,0,.14.08l.26,0a1.12,1.12,0,0,1,.79.46A1.17,1.17,0,0,1,150.88,226.37Z"/><polygon class="cls-1" points="154.19 222.31 154.03 223.2 153.11 223.44 152.51 226.84 151.64 227.08 152.24 223.68 151.32 223.93 151.47 223.04 154.19 222.31"/><path class="cls-1" d="M159.88,222.43a1.11,1.11,0,0,0-.24-.92,1.07,1.07,0,0,0-.85-.39,1.4,1.4,0,0,0-.34,0l-.9.24-.75,4.29.87-.24.29-1.67.21,0,.84,1.36.82-.22-.85-1.37A1.47,1.47,0,0,0,159.88,222.43Zm-.81-.14a.61.61,0,0,1-.43.47l-.52.14.14-.84.4-.1a.32.32,0,0,1,.13,0,.29.29,0,0,1,.23.09A.32.32,0,0,1,159.07,222.29Z"/><polygon class="cls-1" points="157.18 227.89 158.02 231.01 154.74 229.81 150.7 232.99 152.44 228.97 150.44 228.24 151.82 227.88 153.53 228.5 152.73 230.35 154.59 228.89 156.83 229.7 156.26 227.58 157.98 226.22 159.98 225.69 157.18 227.89"/><path class="cls-1" d="M155.82,226h0l.79-.22-1.06-3.94-2.07,4.78,1-.27.89-2Z"/><polygon class="cls-1" points="143.11 225.28 142.35 229.57 141.48 229.8 142.24 225.51 143.11 225.28"/><path class="cls-1" d="M140.84,226.52a1.11,1.11,0,0,0-1.12-.33l-1,.26-.76,4.29,1.89-.51a1.47,1.47,0,0,0,1.06-1.14,1.17,1.17,0,0,0-.24-1h0a1.35,1.35,0,0,0,.39-.72A1.08,1.08,0,0,0,140.84,226.52Zm-.72,2.42a.68.68,0,0,1-.46.51l-.65.17.16-.9.52-.14h.13a.3.3,0,0,1,.25.1A.33.33,0,0,1,140.12,228.94Zm.14-1.67a.54.54,0,0,1-.38.42l-.56.15.13-.74.48-.12H140a.24.24,0,0,1,.2.07A.29.29,0,0,1,140.26,227.27Z"/><path class="cls-1" d="M147.23,226.85a2.41,2.41,0,0,1-.73,1.38,2.05,2.05,0,0,1-1.38.52,1.58,1.58,0,0,1-1.25-.55,1.87,1.87,0,0,1-.35-1.56,2.29,2.29,0,0,1,2.18-2,1.47,1.47,0,0,1,1.17.52,1.32,1.32,0,0,1,.19.29l-.82.22a.7.7,0,0,0-.54-.21,1.48,1.48,0,0,0-1.37,1.3,1.07,1.07,0,0,0,.17.9.76.76,0,0,0,.62.26,1.29,1.29,0,0,0,1.26-1.05l-1,.26h0l.1-.56,1.74-.47A2.57,2.57,0,0,1,147.23,226.85Z"/></g></g></g></svg>