<svg xmlns="http://www.w3.org/2000/svg" xmlns:xlink="http://www.w3.org/1999/xlink" viewBox="0 0 180 252"><defs><style>.cls-1{fill:#eaeaea;}.cls-2{fill:#323232;}.cls-3{fill:url(#radial-gradient);}.cls-4{fill:url(#radial-gradient-2);}.cls-5{fill:url(#radial-gradient-3);}.cls-6{fill:#8dc3d3;}.cls-7{fill:#9ae0e2;}.cls-8{fill:#b3e8e9;}.cls-9{fill:#67afc5;}.cls-10{fill:#02799e;}.cls-11{fill:#026684;}.cls-12{fill:#7333a3;}.cls-13{fill:#90bd4a;}.cls-14{fill:#7ea540;}.cls-15{fill:#faaa2d;}.cls-16{fill:#612b89;}.cls-17{fill:#7356a4;}.cls-18{fill:#8463be;}.cls-19{fill:#2e047a;}.cls-20{fill:#faaf3b;}.cls-21{fill:#fac26c;}.cls-22{fill:#5907e8;}.cls-23{fill:#f1f1f1;}.cls-24{fill:#ee8031;}.cls-25{fill:#a87df1;}.cls-26{fill:#612b88;}.cls-27{fill:none;stroke:#853bbc;stroke-linecap:round;stroke-miterlimit:10;stroke-width:1.52px;}.cls-28{fill:#7333a2;}.cls-29{fill:#3b224d;}.cls-30{fill:#fff;}.cls-31{fill:#261234;}.cls-32{fill:#8f5cb5;}.cls-33{fill:#ce75d0;}.cls-34{fill:#9f619f;}.cls-35{fill:#ed6100;}</style><radialGradient id="radial-gradient" cx="-8.52" cy="198.05" r="53.48" gradientTransform="translate(20.26 159.81) rotate(-135)" gradientUnits="userSpaceOnUse"><stop offset="0" stop-color="#026684"/><stop offset="1" stop-color="#026684" stop-opacity="0"/></radialGradient><radialGradient id="radial-gradient-2" cx="31.13" cy="68.87" r="39.29" xlink:href="#radial-gradient"/><radialGradient id="radial-gradient-3" cx="105.99" cy="121.35" r="103.04" gradientTransform="matrix(1, 0, 0, 1, 0, 0)" xlink:href="#radial-gradient"/></defs><g id="Layer_2" data-name="Layer 2"><g id="content"><rect id="card" class="cls-1" width="180" height="252"/><g id="background"><polygon class="cls-2" points="169 11 169 224 152 241 11 241 11 28.26 28.26 11 169 11"/><circle class="cls-3" cx="132.5" cy="56.06" r="13.61"/><circle class="cls-4" cx="22.09" cy="111.33" r="10"/><path class="cls-5" d="M116.48,241H11V128.46A82.28,82.28,0,0,1,116.48,241Z"/><g id="stars"><circle class="cls-6" cx="70.09" cy="25.68" r="1.75"/><circle class="cls-6" cx="124.75" cy="157.66" r="1.13"/><circle class="cls-6" cx="24.75" cy="89.25" r="1.12"/><circle class="cls-6" cx="146" cy="77.42" r="1.75"/><circle class="cls-6" cx="160.59" cy="142.59" r="1.75"/><circle class="cls-6" cx="35.58" cy="80.2" r="1.75"/><circle class="cls-6" cx="107.8" cy="84.32" r="1.75"/><circle class="cls-6" cx="156.88" cy="81.45" r="1.13"/><circle class="cls-6" cx="134.57" cy="34.56" r="1.12"/></g><path class="cls-7" d="M148.81,208.71c0,3.24,10.64,4.75,20.19,6.8V224l-9.26,9.26c-12.63,1.79-30.61,2.74-50.91,2.74-22.27,0-76.35-2-76.16-5.61.2-3.73,14.65-4.4,14.54-6.63-.16-3.19-20.14-5.67-36.21-8.25v-24.9a381.46,381.46,0,0,1,158,0v10.09C155.93,203.21,148.84,206,148.81,208.71Z"/><g id="highlight"><path class="cls-8" d="M142.25,225.14c1.76.33,2.82.77,2.82,1.25,0,1-4.9,1.85-10.94,1.85s-10.95-.83-10.95-1.85c0-.69,2.21-1.29,5.49-1.61-4.92-.53-8.19-1.45-8.19-2.51,0-1.63,7.82-3,17.48-3s17.48,1.33,17.48,3C155.44,223.65,149.83,224.82,142.25,225.14Z"/><ellipse class="cls-8" cx="147.2" cy="217.07" rx="5.47" ry="0.93"/><ellipse class="cls-8" cx="32.66" cy="200.86" rx="9.04" ry="1.53"/></g><path id="shadow" class="cls-9" d="M13,198.91h0c-4.83,0-8.93,1.24-8.93-.66,0-1,2.79-3.12,9.74-4.85C13.5,195.2,13.23,197,13,198.91Z"/><g id="rock"><path class="cls-10" d="M48.82,194.19q-7.41.67-14.74,1.59-10.62,1.32-21,3.13c1.61-14.78,7.19-27.06,16.9-36.64l3.2-.57,1.25-.23L44.9,173.56Z"/><polygon class="cls-7" points="44.91 173.56 37.22 185.96 33.33 164.91 34.38 161.47 44.91 173.56"/><path class="cls-11" d="M48.82,194.19q-7.41.67-14.74,1.59L37.22,186l7.68-12.4Z"/></g><path id="shadow-2" data-name="shadow" class="cls-9" d="M169,199s-21.47-2.1-36.45-2.1c-10.17,0-33,2-34.87.09-1.52-1.59,5.66-4.33,12.29-4.34h0A461.12,461.12,0,0,1,169,199Z"/><g id="rock-2" data-name="rock"><path class="cls-11" d="M142.06,195.15q-9-1-18.12-1.69l1.39-8.26,10.75-.89Z"/><path class="cls-10" d="M125.33,185.2l-1.39,8.26q-7-.51-14-.81l3-10.75,4.79-5.12Z"/><polygon class="cls-7" points="117.76 176.78 125.33 185.2 136.08 184.31 117.76 176.78"/></g><g id="rock-3" data-name="rock"><path class="cls-10" d="M164.46,183.78l-.26,14.42q-15.09-2.46-30.58-3.92v-1.64c0-15.83,7.58-29.47,20.26-44.45Z"/><polygon class="cls-7" points="172.59 173.25 161.99 151.21 153.88 148.19 164.46 183.79 172.59 173.25"/><path class="cls-11" d="M172.58,173.25,169,199l-4.76-.8.26-14.42Z"/></g></g><g id="character"><ellipse id="shadow-3" data-name="shadow" class="cls-9" cx="66.63" cy="208.4" rx="14.89" ry="2.82"/><ellipse id="shadow-4" data-name="shadow" class="cls-9" cx="99.78" cy="209.15" rx="11.7" ry="4.89"/><g id="b-arm"><path class="cls-12" d="M67.65,135.79a2.94,2.94,0,0,0-1.22.53,8.64,8.64,0,0,0-1.5,1.39,18.4,18.4,0,0,0-2.61,4.11,36.18,36.18,0,0,0-1.88,4.93c-.25.86-.5,1.73-.7,2.61-.11.44-.21.88-.3,1.33l-.13.67-.07.34,0,.17,0,.08V152h0c-.87-.08,1.95.19-2-.17l-2-.19h0v-.71l0-.74c0-.49,0-1,.07-1.47.06-1,.16-2,.27-3a42.41,42.41,0,0,1,1.18-6,24.64,24.64,0,0,1,2.5-6,15.39,15.39,0,0,1,2.18-2.9,11,11,0,0,1,3.55-2.48l.87-.36a4,4,0,0,1,3.13,7.42A4.16,4.16,0,0,1,67.65,135.79Z"/></g><g id="l-hand"><path class="cls-13" d="M60.79,160.12a4.07,4.07,0,0,1,1.3,2.63.63.63,0,0,0,.29.4,1.14,1.14,0,0,0,1.31-.28,2.89,2.89,0,0,0,.78-2c.07-2.17-1.15-5.48-3.44-6.93Z"/><path class="cls-13" d="M61.55,160.56,61,153.9l-7.23-.61c-1.42,1.42-2.55,6.64-.34,9.35Z"/><path class="cls-13" d="M61.18,161a7.48,7.48,0,0,0-.2,4.59v0a1,1,0,0,1-.9,1.27,1.3,1.3,0,0,1-1.4-.64,9.71,9.71,0,0,1-.92-2.9,10.06,10.06,0,0,1,0-3.05v0a1.69,1.69,0,0,1,2-1.26,1.61,1.61,0,0,1,1.49,1.75A1.1,1.1,0,0,1,61.18,161Z"/><path class="cls-13" d="M58.9,160.2a7,7,0,0,0-.18,4.59v0a1,1,0,0,1-1,1.26,1.47,1.47,0,0,1-1.53-.65,9.32,9.32,0,0,1-1-6v0a1.79,1.79,0,0,1,2.13-1.24A1.68,1.68,0,0,1,59,159.94,1.11,1.11,0,0,1,58.9,160.2Z"/><path class="cls-13" d="M57.17,159.41A7,7,0,0,0,57,164v0a1,1,0,0,1-1,1.26,1.47,1.47,0,0,1-1.53-.65,9.53,9.53,0,0,1-1-2.91,9.18,9.18,0,0,1,0-3.05v0a1.81,1.81,0,0,1,2.13-1.25,1.69,1.69,0,0,1,1.63,1.77A1.11,1.11,0,0,1,57.17,159.41Z"/><path class="cls-14" d="M58.81,166.22a6.94,6.94,0,0,1-1.2-2.88,6.71,6.71,0,0,1,.17-3.12,15.54,15.54,0,0,0,.2,3.06A16.56,16.56,0,0,0,58.81,166.22Z"/><path class="cls-14" d="M56.18,165.33A6.92,6.92,0,0,1,55,162.44a6.72,6.72,0,0,1,.18-3.12,14.15,14.15,0,0,0,.2,3.06A15.32,15.32,0,0,0,56.18,165.33Z"/><path class="cls-14" d="M54.39,164.38a5.79,5.79,0,0,1-.71-1.23,8,8,0,0,1-.44-1.36,7.55,7.55,0,0,1-.16-1.43,4.7,4.7,0,0,1,.27-1.4,11.81,11.81,0,0,0,.26,2.75,11.91,11.91,0,0,0,.33,1.34C54.07,163.5,54.23,163.94,54.39,164.38Z"/><path class="cls-15" d="M60.47,154.66a15.65,15.65,0,0,1-6-.33,2.3,2.3,0,0,1-1.71-2.9h0A2.22,2.22,0,0,1,55.35,150a12.16,12.16,0,0,0,4.69.26,2.22,2.22,0,0,1,2.44,1.7h0A2.29,2.29,0,0,1,60.47,154.66Z"/></g><g id="r-leg"><path class="cls-12" d="M102.3,161.78a51,51,0,0,1,1.28,22l-7.4-.47A41.21,41.21,0,0,0,91.34,166Z"/><path class="cls-16" d="M102.52,175a3.14,3.14,0,0,1-5.75,1.83,3.79,3.79,0,0,0,5.75-1.83Z"/></g><g id="b-leg"><path class="cls-12" d="M79.81,164.6a36.45,36.45,0,0,0-3.46,12.14,35,35,0,0,0,0,6.39c.11,1.08.26,2.15.44,3.23l.33,1.62.19.8.1.41,0,.2,0,.1v.08h0L74,190.75l-3.49,1.15h0v0l0-.06,0-.11-.08-.23L70.2,191l-.34-.92-.61-1.85c-.37-1.25-.71-2.52-1-3.81a42.86,42.86,0,0,1-1-7.94,46.1,46.1,0,0,1,2.52-15.83Z"/><path class="cls-16" d="M71.55,174a1.69,1.69,0,0,1-.68,1.09,2.57,2.57,0,0,1-1.26.46,2.39,2.39,0,0,1-2.22-1.18,3.58,3.58,0,0,0,1.06.55,2.93,2.93,0,0,0,1.13.14,2.46,2.46,0,0,0,1.09-.29A2.3,2.3,0,0,0,71.55,174Z"/></g><g id="l-shoe"><path class="cls-17" d="M62.68,209.33l-3-.37a2.48,2.48,0,0,1-2.2-2.77l.21-1.59,8,1-.22,1.58A2.54,2.54,0,0,1,62.68,209.33Z"/><path class="cls-17" d="M72,209l2.93-.58a2.49,2.49,0,0,0,2-2.93l-.33-1.57-8,1.59.33,1.57A2.54,2.54,0,0,0,72,209Z"/><path class="cls-18" d="M80.9,198.41l-.12-2.76A2.59,2.59,0,0,0,78,193.37l-1.73,0,.34,7.49,1.73,0A2.49,2.49,0,0,0,80.9,198.41Z"/><path class="cls-18" d="M78.75,201.7a18.35,18.35,0,0,1-.56,1.88c-1.52,4.15-20.87,5.54-23.82.87a4.87,4.87,0,0,1-.44-1.68c-.48-6.59,13.82-11.7,13.82-11.7l10-.36A17.39,17.39,0,0,1,78.75,201.7Z"/><path class="cls-19" d="M78.75,201.7c-4.51,2.8-19.28,3.73-24.82,1.07-.48-6.59,13.82-11.7,13.82-11.7l10-.36A17.39,17.39,0,0,1,78.75,201.7Z"/><path class="cls-20" d="M76.76,191.94a28.45,28.45,0,0,1-9.61.14c-2.26-.35-3.59-2.26-3-3.88h0a3.6,3.6,0,0,1,4-2.25,22,22,0,0,0,7.5-.12A3.62,3.62,0,0,1,79.68,188h0C80.28,189.57,79,191.52,76.76,191.94Z"/><path class="cls-21" d="M76.7,187.92a28.25,28.25,0,0,1-9.62.15c-2.25-.35-3.58-2.26-3-3.88h0a3.62,3.62,0,0,1,4-2.26,22,22,0,0,0,7.5-.11A3.61,3.61,0,0,1,79.62,184h0C80.22,185.55,78.94,187.5,76.7,187.92Z"/></g><g id="r-shoe"><path class="cls-17" d="M95.63,208.37h.15l4.26,0,4.25,0h.15a4.21,4.21,0,0,1,0,1.56,2.13,2.13,0,0,1-.14.51,1.5,1.5,0,0,1-.27.45h0a6.38,6.38,0,0,1-8,0h0a2.07,2.07,0,0,1-.27-.45,1.74,1.74,0,0,1-.13-.51A4.12,4.12,0,0,1,95.63,208.37Z"/><path class="cls-18" d="M90.56,202h.33l9.15-.07,9.15.07h.32a8.82,8.82,0,0,1-.06,3.34,4.42,4.42,0,0,1-.29,1.11,3.38,3.38,0,0,1-.57,1h0c-1.49,1.83-5,2.95-8.55,3s-7.07-1.17-8.55-3h0a3.19,3.19,0,0,1-.58-1,4.42,4.42,0,0,1-.29-1.11A9.1,9.1,0,0,1,90.56,202Z"/><path class="cls-19" d="M90.8,199.5l3.76-9.25h10.86c.82,3.33,6.23,11,3.15,14.3h0c-1.53,1.69-5.21,2.73-8.85,2.74C94.32,207.31,89,205.11,90.8,199.5Z"/><path class="cls-20" d="M94.89,192.32a30.62,30.62,0,0,0,9.65,0c2.26-.35,3.56-2.12,3-3.6h0a3.71,3.71,0,0,0-4-2,23.78,23.78,0,0,1-7.53,0,3.69,3.69,0,0,0-4,2h0C91.33,190.2,92.64,192,94.89,192.32Z"/><path class="cls-21" d="M94.89,188.64a31.23,31.23,0,0,0,9.65,0c2.26-.36,3.56-2.13,3-3.61h0a3.71,3.71,0,0,0-4-2A23.78,23.78,0,0,1,96,183a3.69,3.69,0,0,0-4,2h0C91.33,186.51,92.64,188.28,94.89,188.64Z"/><path class="cls-22" d="M95,199.65a6.12,6.12,0,0,1,2.47-1.45,8.76,8.76,0,0,1,5.66.06,6,6,0,0,1,2.43,1.51h0a0,0,0,0,1,0,.06h0a9.19,9.19,0,0,0-1.25-.53A11.22,11.22,0,0,0,103,199a12.71,12.71,0,0,0-2.68-.29,12.13,12.13,0,0,0-2.69.24,12,12,0,0,0-1.31.34,8.42,8.42,0,0,0-1.26.49,0,0,0,0,1,0,0,0,0,0,0,1,0-.05Z"/></g><g id="body"><path class="cls-18" d="M77.42,154.42c4.76,1.92,7.69,6.23,6.48,9.59s-6,4.41-10.72,2.43-7.43-6.18-6.29-9.46S72.72,152.52,77.42,154.42Z"/><ellipse class="cls-18" cx="67.32" cy="133.73" rx="7.59" ry="5.33" transform="translate(-75.97 177.14) rotate(-80.13)"/><path class="cls-18" d="M93.61,154.07c-5.78,2.5-9.2,7.5-7.7,11.23s7.43,4.84,13.3,2.42,9.54-7.59,8-11.4S99.48,151.54,93.61,154.07Z"/><path class="cls-19" d="M86.54,164.78h-.32a24.22,24.22,0,0,1-20.78-13.53,23.91,23.91,0,0,1-1.24-18.33c.59-1.76,1.48-4.11,2.3-5.88a62.24,62.24,0,0,0,42.42.41,49.42,49.42,0,0,1,2.13,5.61C116.09,149.28,103.32,165.31,86.54,164.78Z"/><path class="cls-23" d="M99.27,155.59c-2.65,7.44-9.07,10.91-20.12,8.53-9.33-2-15.3-10.47-12.47-18.75.62-1.83,2.91-2.49,4.7-1.85A51.86,51.86,0,0,0,95,146.23C99.9,146.5,100.91,151,99.27,155.59Z"/><path class="cls-13" d="M85.62,150.45a1.46,1.46,0,0,1,2.88.46A1.46,1.46,0,0,1,85.62,150.45Z"/><path class="cls-24" d="M89.76,150.47a1.47,1.47,0,0,1,2.91.47A1.47,1.47,0,0,1,89.76,150.47Z"/><path class="cls-13" d="M94,150.3c.29-1.88,3.29-1.4,2.94.47A1.49,1.49,0,0,1,94,150.3Z"/><path class="cls-25" d="M103.26,133a38.19,38.19,0,0,1-15.62,2.6c-14.56-.33-24.89-6.89-20.62-13.07l.15-.2v0a4.36,4.36,0,0,1,4.19-1.74,119.19,119.19,0,0,0,33.21.74,4.37,4.37,0,0,1,4.1,1.93v0c0,.07.1.14.14.21C111.12,127.15,108.59,130.72,103.26,133Z"/><ellipse class="cls-18" cx="109.83" cy="136.89" rx="5.5" ry="8.65" transform="translate(-21.68 20.68) rotate(-9.79)"/></g><g id="head"><path class="cls-26" d="M56.55,102.7l-2,7.17,2,7.17c0-6,10-4.69,10-4.69V107.4S56.55,108.68,56.55,102.7Z"/><path class="cls-27" d="M55.87,102.36h0a27.61,27.61,0,0,0,0,15h0"/><path class="cls-26" d="M119.18,102.7l2,7.17-2,7.17c0-6-10-4.69-10-4.69V107.4S119.18,108.68,119.18,102.7Z"/><path class="cls-27" d="M119.85,102.36h0a27.42,27.42,0,0,1,0,15h0"/><path class="cls-28" d="M111.82,108.78c0,1.66-1.77,3.06-2.2,4.61s.35,3.68-.48,5.08-3.06,1.74-4.2,2.92-1.4,3.39-2.78,4.3-3.51.24-5,.85-2.62,2.54-4.25,2.85-3.33-1.11-5-1.11-3.43,1.4-5,1.11-2.76-2.26-4.25-2.85-3.71,0-5-.85-1.65-3.15-2.77-4.3-3.38-1.53-4.2-2.92,0-3.51-.49-5.08-2.19-3-2.19-4.61,1.76-3.07,2.19-4.61-.34-3.69.49-5.09,3-1.74,4.2-2.92,1.39-3.39,2.77-4.29,3.51-.25,5-.86,2.62-2.54,4.25-2.84,3.34,1.1,5,1.1,3.44-1.4,5-1.1,2.77,2.25,4.25,2.84,3.71,0,5,.86,1.66,3.14,2.78,4.29,3.38,1.53,4.2,2.92,0,3.51.48,5.09S111.82,107.12,111.82,108.78Z"/><path class="cls-16" d="M77.45,97.27a1,1,0,0,0-1-.08,1.88,1.88,0,0,0-.82.71c-.42.59-.75,1.45-1.61,1.87a8.14,8.14,0,0,0-2,1,2.21,2.21,0,0,0-.65,1.92l-.07,0a2,2,0,0,1,.17-2.47,2.37,2.37,0,0,1,1.17-.69c.4-.11.78-.17,1.11-.3.66-.22,1-.92,1.56-1.55a2.3,2.3,0,0,1,1-.69,1.12,1.12,0,0,1,1.17.25Z"/><path class="cls-16" d="M98.22,97.22A1.12,1.12,0,0,1,99.39,97a2.25,2.25,0,0,1,1,.69c.53.63.91,1.33,1.57,1.55a11,11,0,0,0,1.11.3,2.34,2.34,0,0,1,1.16.69,2,2,0,0,1,.17,2.47l-.06,0a2.21,2.21,0,0,0-.66-1.92,8,8,0,0,0-2-1c-.85-.42-1.19-1.28-1.61-1.87a1.86,1.86,0,0,0-.81-.71,1,1,0,0,0-1,.08Z"/><path class="cls-16" d="M75.79,121.36a.84.84,0,0,1-.86.18,1.71,1.71,0,0,1-.76-.51c-.38-.46-.66-1-1.14-1.13s-1.17-.16-1.67-.72a1.5,1.5,0,0,1-.13-1.82l0,0a1.63,1.63,0,0,0,.48,1.4,6.33,6.33,0,0,0,1.45.7c.63.3.87.93,1.18,1.37a1.37,1.37,0,0,0,.6.52.72.72,0,0,0,.76-.06Z"/><path class="cls-16" d="M100.24,121.09c.44.34,1,0,1.28-.43s.52-1,1.11-1.29a6.27,6.27,0,0,0,1.37-.66,1.54,1.54,0,0,0,.45-1.33l0,0a1.42,1.42,0,0,1-.12,1.71c-.47.53-1.14.5-1.57.68s-.72.63-1.08,1.07a1.53,1.53,0,0,1-.72.48.79.79,0,0,1-.81-.17Z"/><path class="cls-16" d="M83.67,94.49a1.54,1.54,0,0,1,1.85-1.65c1,.13,1.67.51,2.37.27a6.42,6.42,0,0,1,2.59-.59,2.43,2.43,0,0,1,1.91,1.81,2.58,2.58,0,0,0-2-1.21c-.72,0-1.42.48-2.34.72a2.64,2.64,0,0,1-1.45,0c-.44-.13-.83-.28-1.21-.39a1.35,1.35,0,0,0-1.06.11A1.63,1.63,0,0,0,83.67,94.49Z"/><path class="cls-16" d="M85.23,125.24a.87.87,0,0,0,1.16.59l.75-.3a1.79,1.79,0,0,1,.92-.11,5.19,5.19,0,0,0,1.52.35,1.66,1.66,0,0,0,1.18-.88,1.53,1.53,0,0,1-1.11,1.24A4.07,4.07,0,0,1,88,125.9c-.47-.13-.9.16-1.49.29a1.15,1.15,0,0,1-.9-.17A1.08,1.08,0,0,1,85.23,125.24Z"/><path class="cls-29" d="M83.15,112.59s-1.87-7.25-10-3.56C73.18,109,76.18,118.86,83.15,112.59Z"/><path class="cls-30" d="M82.89,112.49s-1.48-6.55-8.94-3.16C74,109.33,76.25,117.3,82.89,112.49Z"/><circle class="cls-13" cx="79.06" cy="111.2" r="2.6"/><path class="cls-31" d="M79.39,109.76a2.13,2.13,0,0,1,.29,1.63,2.08,2.08,0,0,1-1,1.36,2.16,2.16,0,0,1,.66-3Z"/><path class="cls-28" d="M72.55,107.67c-.1.8.71,1.28,1.49,1.48a10.66,10.66,0,0,0,2.4.08,6.46,6.46,0,0,1,3.87,1.39c.58.45,1.08,1,1.69,1.4a2.26,2.26,0,0,0,2.09.32,1.45,1.45,0,0,0,.59-2l-.76-.75A9.81,9.81,0,0,0,79.18,107h0a7.76,7.76,0,0,0-5.61.29Z"/><path class="cls-29" d="M72.55,107.67A1.56,1.56,0,0,0,73.68,109a4,4,0,0,0,1.82.08,6.59,6.59,0,0,1,4,.53,7.1,7.1,0,0,1,1.68,1.14,7,7,0,0,0,1.47,1.11,1.74,1.74,0,0,0,1.64.05,1.13,1.13,0,0,0,.42-1.56,1.28,1.28,0,0,1-.2,1.86,2.18,2.18,0,0,1-2.08.19,5.82,5.82,0,0,1-1.71-1.09,6.64,6.64,0,0,0-1.54-1,7.13,7.13,0,0,0-3.61-.63,4.28,4.28,0,0,1-2-.32A1.66,1.66,0,0,1,72.55,107.67Z"/><path class="cls-32" d="M73.57,107.26a5.45,5.45,0,0,1,2.67-1.15,7,7,0,0,1,2.94.19,9,9,0,0,1,2.64,1.29c.4.28.75.61,1.12.92s.67.71,1,1.08c-.41-.27-.78-.56-1.17-.83s-.8-.52-1.2-.75a12.12,12.12,0,0,0-2.54-1.1A7.93,7.93,0,0,0,73.57,107.26Z"/><path class="cls-29" d="M87.26,117c-.4-.17-.74-.38-1.11-.52a3.76,3.76,0,0,0-.55-.23c-.19-.08-.38-.13-.59-.21a1.8,1.8,0,0,1,1.29.09A1.94,1.94,0,0,1,87.26,117Z"/><path class="cls-29" d="M92.57,112.59s1.87-7.25,10-3.56C102.54,109,99.54,118.86,92.57,112.59Z"/><path class="cls-30" d="M92.84,112.49s1.48-6.55,8.94-3.16C101.78,109.33,99.47,117.3,92.84,112.49Z"/><circle class="cls-13" cx="96.66" cy="111.2" r="2.6"/><path class="cls-31" d="M96.34,109.76a2.16,2.16,0,0,1,.94,1.36,2.12,2.12,0,0,1-.29,1.63,2.15,2.15,0,0,1-.65-3Z"/><path class="cls-28" d="M103.18,107.67c.09.8-.71,1.28-1.49,1.48a10.75,10.75,0,0,1-2.41.08,6.49,6.49,0,0,0-3.87,1.39c-.58.45-1.07,1-1.69,1.4a2.26,2.26,0,0,1-2.09.32,1.45,1.45,0,0,1-.59-2l.77-.75A9.72,9.72,0,0,1,96.55,107h0a7.73,7.73,0,0,1,5.6.29Z"/><path class="cls-29" d="M103.18,107.67a1.69,1.69,0,0,1-1,1.66,4.3,4.3,0,0,1-2,.32,7.09,7.09,0,0,0-3.61.63,6.64,6.64,0,0,0-1.54,1,6,6,0,0,1-1.72,1.09,2.18,2.18,0,0,1-2.08-.19,1.29,1.29,0,0,1-.2-1.86,1.14,1.14,0,0,0,.42,1.56,1.74,1.74,0,0,0,1.64-.05,6.77,6.77,0,0,0,1.47-1.11,7.31,7.31,0,0,1,1.68-1.14,6.62,6.62,0,0,1,4-.53A3.91,3.91,0,0,0,102,109,1.57,1.57,0,0,0,103.18,107.67Z"/><path class="cls-32" d="M102.15,107.26a7.9,7.9,0,0,0-5.43-.35,12.2,12.2,0,0,0-2.55,1.1c-.4.23-.79.5-1.19.75s-.77.56-1.17.83c.3-.37.64-.72,1-1.08s.73-.64,1.13-.92a9.07,9.07,0,0,1,2.63-1.29,7,7,0,0,1,2.95-.19A5.45,5.45,0,0,1,102.15,107.26Z"/><path class="cls-29" d="M88.46,117a2,2,0,0,1,1-.87,1.8,1.8,0,0,1,1.29-.09c-.2.08-.4.13-.59.21a4.28,4.28,0,0,0-.55.23C89.2,116.58,88.87,116.79,88.46,117Z"/><path class="cls-33" d="M93.21,117.39a4.79,4.79,0,0,1-1.36,3.31,5.15,5.15,0,0,1-.61.53,5.51,5.51,0,0,1-3.38,1.12,5.57,5.57,0,0,1-3.38-1.11,6.22,6.22,0,0,1-.6-.54,4.74,4.74,0,0,1-1.36-3.31,14.36,14.36,0,0,0,10.58,0Z"/><path class="cls-34" d="M91.24,121.23a5.51,5.51,0,0,1-3.38,1.12,5.57,5.57,0,0,1-3.38-1.11,4.82,4.82,0,0,1,6.76,0Z"/></g><g id="r-arm"><path class="cls-12" d="M111.75,132.23a8.17,8.17,0,0,0,3.73-.94,11.65,11.65,0,0,0,3.47-2.72,17.45,17.45,0,0,0,2.63-4.1l.52-1.18.43-1.23a10.81,10.81,0,0,0,.39-1.26l.18-.65.08-.32,0-.16,0-.08v-.06h0c1,.13-2.16-.29,2.17.28s1.2.17,2.16.3h0v.17l0,.19,0,.38-.05.77c0,.51-.09,1-.17,1.53l-.24,1.54-.34,1.55a23.46,23.46,0,0,1-2.44,6.08A17.62,17.62,0,0,1,113,140.84l-.29.06a4.39,4.39,0,1,1-1.87-8.57A4.47,4.47,0,0,1,111.75,132.23Z"/></g><g id="r-hand"><path class="cls-15" d="M127.73,124.21a17.68,17.68,0,0,1-6.3-2.75,2.6,2.6,0,0,1-.68-3.77h0a2.55,2.55,0,0,1,3.36-.48,14.1,14.1,0,0,0,4.91,2.15,2.53,2.53,0,0,1,1.93,2.78h0A2.6,2.6,0,0,1,127.73,124.21Z"/><path class="cls-13" d="M129.39,109.84a5.27,5.27,0,0,0-7.34,1.77l0,.1c-1.2,4.27-.45,6.78,3,8.77h0c3.46,2,6.55,1.54,8.62-2.07h0c1.37-2.46,1.49-5-.9-6.51Z"/><path class="cls-13" d="M121.89,112.17c.53-2,1.52-4.45,2.25-6.33a4.16,4.16,0,0,1,.9-1.76,1.78,1.78,0,0,1,2.09-.19,1.87,1.87,0,0,1,.49,1.91q-.53,3.63-1.31,7.2Z"/><path class="cls-13" d="M129.37,113q1.74-2.7,3.52-5.39a3.94,3.94,0,0,1,1.43-1.49,1.6,1.6,0,0,1,2,.41,2,2,0,0,1-.2,2q-1.74,3.43-3.7,6.75Z"/><path class="cls-13" d="M131.47,115.69q1.82-1.91,3.66-3.81a3.12,3.12,0,0,1,1.4-1,1.49,1.49,0,0,1,1.64.7,1.65,1.65,0,0,1-.43,1.65q-1.91,2.52-4,4.91Z"/><path class="cls-13" d="M126.1,112.2q1.41-3.28,2.87-6.57a4.75,4.75,0,0,1,1.25-1.92,1.5,1.5,0,0,1,2,0,2.42,2.42,0,0,1,0,2.24c-.88,2.72-1.84,5.42-2.88,8.08Z"/><path class="cls-13" d="M125.22,120.4a11.36,11.36,0,0,1-7.45-9.57,4.66,4.66,0,0,1,0-1.49,1.74,1.74,0,0,1,1.62-.82,1.06,1.06,0,0,1,.55.18,3.86,3.86,0,0,1,.71,1.13c.45,1,2.07,4.08,3.87,4.13Z"/><path class="cls-14" d="M122,112a7.61,7.61,0,0,1,4,.63,4.7,4.7,0,0,1,1.59,1.35,3.24,3.24,0,0,1,.65,1.95,4.59,4.59,0,0,0-2.45-2.9A12.9,12.9,0,0,0,122,112Z"/></g></g><path class="cls-35" d="M51.83,42.22l-2.25-4.91h-.07v7.57H46.64V32.13h3.67L53,38.4h.07L56,32.13h3.49V44.88H56.6V37.31h-.06l-2.27,4.91Z"/><path class="cls-35" d="M62.59,42.24h2V34.73H62.66v-2.6h6.76v2.6H67.53v7.51h2v2.64h-6.9Z"/><path class="cls-35" d="M80.13,44.88,75.56,37.5h-.07v7.38H72.62V32.13h3.06L80.2,39.5h.07V32.13h2.85V44.88Z"/><path class="cls-35" d="M86.76,44.88V32.13h4.45c3.81,0,6.57,2.48,6.57,6.37S95,44.88,91.21,44.88Zm7.92-6.4c0-2.38-1.37-3.75-3.47-3.75H89.77v7.51h1.44C93.31,42.24,94.68,40.86,94.68,38.48Z"/><path class="cls-35" d="M100.82,32.13h3V44.88h-3Z"/><path class="cls-35" d="M107.43,32.13h9.18v2.6h-6.19v7.51h3.51V40H112V37.4h4.84v7.48h-9.45Z"/><path class="cls-35" d="M119.66,38.5a6.5,6.5,0,1,1,13,0,6.31,6.31,0,0,1-6.51,6.65C122.24,45.15,119.66,42.41,119.66,38.5Zm9.94,0c0-2.38-1.31-4-3.45-4s-3.43,1.58-3.43,4,1.3,4,3.43,4S129.6,40.9,129.6,38.48Z"/><path class="cls-1" d="M33.47,229.68a1.74,1.74,0,0,0,1.61-.78,1.15,1.15,0,0,0-.09-1.22L27.29,216a1.6,1.6,0,0,0-2.57,0L17,227.68a1.18,1.18,0,0,0-.11,1.23,1.77,1.77,0,0,0,1.62.77h7.07l.32,1.19.34-1.19ZM34.58,228a.66.66,0,0,1,.07.72,1.3,1.3,0,0,1-1.18.52H26.41l.18-.64a1.4,1.4,0,0,0,.71-1.22c0-.06,0-.12,0-.17h.2l0-.07s0-.07.06-.17c.56,0,1.43.61,1.61.38s-.83-1.82-1.16-2.36c0-.21,0-.43,0-.66s0-.42,0-.64A12.34,12.34,0,0,1,33.31,226Zm-5.06-5.6h.31V222a.07.07,0,0,1,.07-.07A.07.07,0,0,1,30,222v.31h.31a.07.07,0,0,1,0,.14H30v.3a.07.07,0,0,1-.06.07.07.07,0,0,1-.07-.07v-.3h-.31a.07.07,0,1,1,0-.14Zm-1.11-1.76.18-.48.17.48.49.18-.49.18-.17.49-.18-.49-.49-.18Zm-2.72-3.41.2-.63.19.63.64.19-.64.2-.19.63-.2-.63-.63-.2ZM22,221.91h.47v-.47a.11.11,0,0,1,.11-.11.1.1,0,0,1,.1.11v.47h.48a.1.1,0,0,1,.1.11.09.09,0,0,1-.1.1h-.48v.48a.09.09,0,0,1-.1.1.1.1,0,0,1-.11-.1v-.48H22a.1.1,0,0,1-.11-.1A.11.11,0,0,1,22,221.91Zm-2.76,3.25a10.54,10.54,0,0,1,4.53-2.37,5.93,5.93,0,0,1,2.05-4l.17-.15.16.16a6.79,6.79,0,0,1,2,3.92A9.14,9.14,0,0,1,32.61,225l.38.58A9,9,0,0,0,28,223a6.6,6.6,0,0,0-2-4l-.07-.07-.07.06a5.8,5.8,0,0,0-2,4,10.75,10.75,0,0,0-5,2.7Zm1,4,.28-1.57.16-.07.56,1.64Zm2.33,0-1.41-2-.23,0,.14.37,1.09,1.62h-.58l-.77-2-.44.28-.43,1.74H18.54a1.34,1.34,0,0,1-1.19-.51.68.68,0,0,1,.08-.73L18.69,226a16.33,16.33,0,0,1,5.21-2.34v.43c0,.26,0,.52.07.76-.29.47-1.36,2.2-1.19,2.41s1.1-.42,1.65-.38l.06.17,0,.07h.12a.91.91,0,0,0,0,.17,1.37,1.37,0,0,0,.67,1.19l.18.67ZM25.27,227a8.2,8.2,0,0,1-.58-3.71.1.1,0,1,0-.19,0,8.4,8.4,0,0,0,.56,3.72h-.39a9.85,9.85,0,0,1-.55-2.84,6.4,6.4,0,0,1,1.1-4.11,2.11,2.11,0,0,0,1.37.08c.45.68,1.62,2.94.16,6.87Z"/><path class="cls-1" d="M26,221.47c-.53,0-.95.91-.95,1.43a1,1,0,0,0,1.9,0C27,222.38,26.54,221.47,26,221.47Zm-.4,1.48a.24.24,0,1,1,.24-.24A.24.24,0,0,1,25.62,223Z"/><path class="cls-1" d="M26,224.36a.5.5,0,0,0-.5.5c0,.27.22,1.14.5,1.14s.49-.87.49-1.14A.5.5,0,0,0,26,224.36Z"/><path class="cls-1" d="M24.64,222.82a.11.11,0,1,0,.11.11A.11.11,0,0,0,24.64,222.82Z"/><path class="cls-1" d="M29.65,228.54a2,2,0,0,0,.51-.09l.34-.12a1.18,1.18,0,0,0,.74.25,1.25,1.25,0,0,0,1.25-1.25v-.09c.44-.32.78-.67.67-.88s-.34-.16-.79,0l-.26.09a1.25,1.25,0,0,0-2.12.9,1,1,0,0,0,0,.24l-.24.18c-.36.3-.49.52-.41.68S29.5,228.54,29.65,228.54Zm1.59-.16a1,1,0,0,1-.52-.14c.25-.11.52-.24.79-.39a8.5,8.5,0,0,0,.78-.47A1,1,0,0,1,31.24,228.38Zm1.65-1.94a.14.14,0,0,1,.09,0c0,.07-.17.28-.53.56a1.3,1.3,0,0,0-.2-.43A2.44,2.44,0,0,1,32.89,226.44Zm-.61.71c-.23.16-.52.34-.86.53a7.57,7.57,0,0,1-.89.42,1.13,1.13,0,0,1-.29-.45,7.51,7.51,0,0,1,.87-.54c.36-.19.68-.34,1-.45A1,1,0,0,1,32.28,227.15Zm-1-.87a1.08,1.08,0,0,1,.66.23,7.94,7.94,0,0,0-.89.43,8.68,8.68,0,0,0-.81.5.41.41,0,0,1,0-.11A1,1,0,0,1,31.24,226.28Zm-1.16,1.49a1.16,1.16,0,0,0,.25.41c-.45.16-.73.2-.78.15S29.71,228.05,30.08,227.77Z"/><path class="cls-1" d="M19.3,227.21l-.62.41c0,.31.21.29.21.29l.58-.39A.43.43,0,0,1,19.3,227.21Z"/><path class="cls-1" d="M20.51,226.32l-1.12.71a.61.61,0,0,0,.25.48l1.15-.64A.76.76,0,0,1,20.51,226.32Z"/><path class="cls-1" d="M21.81,225.87a.54.54,0,0,1,0-.43l-1.15.7a.8.8,0,0,0,.37.67l1.2-.65A.51.51,0,0,1,21.81,225.87Z"/><path class="cls-1" d="M21.86,225.43s-.06.12,0,.19a.2.2,0,0,1,.22.1q.12.19,0,.3a.58.58,0,0,0,.18.07s.14-.16,0-.46A.37.37,0,0,0,21.86,225.43Z"/><path class="cls-1" d="M16.82,231.28a.82.82,0,0,0-.82.82v.36a.61.61,0,0,0,.14.45l1,1.8s0,0,0,.12v.35a.36.36,0,1,1-.72,0v-.24a.11.11,0,0,0-.12-.11h-.22a.11.11,0,0,0-.12.11v.24a.82.82,0,0,0,.82.82.82.82,0,0,0,.81-.82v-.35a.64.64,0,0,0-.13-.45l-1-1.8s0,0,0-.12v-.36a.36.36,0,0,1,.72,0v.24a.11.11,0,0,0,.11.11h.23a.11.11,0,0,0,.11-.11v-.24A.82.82,0,0,0,16.82,231.28Z"/><path class="cls-1" d="M19.07,231.28H18a.12.12,0,0,0-.11.12v.22a.11.11,0,0,0,.11.12h.32v4.14a.11.11,0,0,0,.11.12h.23a.11.11,0,0,0,.11-.12v-4.14h.32a.12.12,0,0,0,.12-.12v-.22A.12.12,0,0,0,19.07,231.28Z"/><path class="cls-1" d="M22.57,231.28H22a.23.23,0,0,0-.23.23v4.37a.12.12,0,0,0,.12.12h.22a.12.12,0,0,0,.12-.12v-2h.36a.37.37,0,0,1,.36.37v1.65A.11.11,0,0,0,23,236h.23a.11.11,0,0,0,.11-.12v-1.65a.78.78,0,0,0-.25-.59.8.8,0,0,0,.25-.59v-.94A.82.82,0,0,0,22.57,231.28Zm.36,1.77a.36.36,0,0,1-.36.36h-.36v-1.67h.36a.36.36,0,0,1,.36.37Z"/><path class="cls-1" d="M24.78,231.28a.82.82,0,0,0-.81.82v3.08a.82.82,0,1,0,1.63,0v-1.66a.11.11,0,0,0-.11-.12H24.9a.12.12,0,0,0-.12.12v.22a.12.12,0,0,0,.12.12h.25v1.32a.37.37,0,0,1-.73,0V232.1a.37.37,0,0,1,.73,0v.24a.11.11,0,0,0,.11.11h.23a.11.11,0,0,0,.11-.11v-.24A.82.82,0,0,0,24.78,231.28Z"/><path class="cls-1" d="M29.93,231.28h-1.4a.12.12,0,0,0-.12.12v.22a.12.12,0,0,0,.12.12h1.06v.73a.31.31,0,0,1,0,.11l-1,1.81a.61.61,0,0,0-.14.45v1a.12.12,0,0,0,.12.12h1.4a.11.11,0,0,0,.11-.12v-.22a.12.12,0,0,0-.11-.12H28.87v-.7c0-.08,0-.08,0-.12l1-1.8a.67.67,0,0,0,.13-.45V231.4A.12.12,0,0,0,29.93,231.28Z"/><path class="cls-1" d="M31.63,231.28h-.84a.23.23,0,0,0-.23.23v4.26a.23.23,0,0,0,.23.23h.84a.11.11,0,0,0,.11-.12v-.22a.12.12,0,0,0-.11-.12H31v-1.67h.62a.12.12,0,0,0,.11-.11v-.23a.11.11,0,0,0-.11-.11H31v-1.68h.62a.11.11,0,0,0,.11-.12v-.22A.12.12,0,0,0,31.63,231.28Z"/><path class="cls-1" d="M33.08,231.28h-.59a.23.23,0,0,0-.23.23v4.37a.12.12,0,0,0,.12.12h.22a.12.12,0,0,0,.12-.12v-2h.36a.37.37,0,0,1,.36.37v1.65a.11.11,0,0,0,.11.12h.23a.11.11,0,0,0,.11-.12v-1.65a.78.78,0,0,0-.25-.59.8.8,0,0,0,.25-.59v-.94A.82.82,0,0,0,33.08,231.28Zm.36,1.77a.36.36,0,0,1-.36.36h-.36v-1.67h.36a.36.36,0,0,1,.36.37Z"/><path class="cls-1" d="M35.66,232.45h.23a.11.11,0,0,0,.11-.11v-.24a.82.82,0,0,0-.81-.82.82.82,0,0,0-.82.82v.36a.61.61,0,0,0,.14.45l1,1.8s0,0,0,.12v.35a.36.36,0,1,1-.72,0v-.24a.11.11,0,0,0-.12-.11h-.22a.11.11,0,0,0-.12.11v.24a.82.82,0,0,0,.82.82.82.82,0,0,0,.81-.82v-.35a.64.64,0,0,0-.13-.45l-1-1.8s0,0,0-.12v-.36a.36.36,0,1,1,.72,0v.24A.11.11,0,0,0,35.66,232.45Z"/><path class="cls-1" d="M27,231.28a.83.83,0,0,0-.82.83v3.77a.11.11,0,0,0,.11.12h.23a.11.11,0,0,0,.11-.12v-1.79l.73-.45v2.24a.12.12,0,0,0,.12.12h.22a.12.12,0,0,0,.12-.12v-3.77A.83.83,0,0,0,27,231.28Zm.36,1.91-.73.45v-1.53a.37.37,0,1,1,.73,0Z"/><path class="cls-1" d="M20.38,231.28a.83.83,0,0,0-.82.83v3.77a.12.12,0,0,0,.12.12h.22a.12.12,0,0,0,.12-.12v-1.79l.73-.45v2.24a.11.11,0,0,0,.11.12h.23a.11.11,0,0,0,.11-.12v-3.77A.83.83,0,0,0,20.38,231.28Zm.37,1.91-.73.45v-1.53a.36.36,0,0,1,.36-.37.37.37,0,0,1,.37.37Z"/></g></g></svg>