<svg xmlns="http://www.w3.org/2000/svg" xmlns:xlink="http://www.w3.org/1999/xlink" viewBox="0 0 180 252"><defs><style>.cls-1,.cls-16,.cls-19,.cls-21,.cls-33{fill:none;}.cls-2{fill:#eaeaea;}.cls-3{fill:#323232;}.cls-4{fill:#febc90;}.cls-5{fill:url(#radial-gradient);}.cls-6{fill:url(#radial-gradient-2);}.cls-7{fill:url(#radial-gradient-3);}.cls-8{fill:url(#radial-gradient-4);}.cls-9{fill:#fd8638;}.cls-10{fill:#fd9a59;}.cls-11{fill:#ed6100;}.cls-12{fill:#fea164;}.cls-13{fill:#44f5a0;}.cls-14{clip-path:url(#clip-path);}.cls-15{fill:#f7ec17;}.cls-16,.cls-21{stroke:#ddcd00;}.cls-16,.cls-19,.cls-21,.cls-33{stroke-miterlimit:10;}.cls-16{stroke-width:0.34px;}.cls-17{fill:#33d08c;}.cls-18{fill:#1b8b79;}.cls-19,.cls-33{stroke:#33d08c;}.cls-19{stroke-linecap:round;stroke-width:0.45px;}.cls-20{fill:#891b6a;}.cls-21{stroke-width:0.35px;}.cls-22{fill:#520551;}.cls-23{fill:#aa1a88;}.cls-24{fill:#c1983d;}.cls-25{clip-path:url(#clip-path-2);}.cls-26{clip-path:url(#clip-path-3);}.cls-27{clip-path:url(#clip-path-4);}.cls-28{fill:#f5faff;}.cls-29{fill:#9629ff;}.cls-30{fill:#023533;}.cls-31{clip-path:url(#clip-path-5);}.cls-32{clip-path:url(#clip-path-6);}.cls-33{stroke-width:0.35px;}.cls-34{clip-path:url(#clip-path-7);}.cls-35{fill:#a87df1;}</style><radialGradient id="radial-gradient" cx="73.2" cy="86.03" r="56.45" gradientUnits="userSpaceOnUse"><stop offset="0" stop-color="#fd7922"/><stop offset="0.17" stop-color="#fd7922" stop-opacity="0.78"/><stop offset="0.39" stop-color="#fd7922" stop-opacity="0.51"/><stop offset="0.6" stop-color="#fd7922" stop-opacity="0.29"/><stop offset="0.78" stop-color="#fd7922" stop-opacity="0.13"/><stop offset="0.91" stop-color="#fd7922" stop-opacity="0.04"/><stop offset="1" stop-color="#fd7922" stop-opacity="0"/></radialGradient><radialGradient id="radial-gradient-2" cx="-814.97" cy="990.47" r="35.03" gradientTransform="matrix(0.84, 0.16, 0.16, 0.84, 556.82, -556.82)" gradientUnits="userSpaceOnUse"><stop offset="0" stop-color="#75d5d8" stop-opacity="0.5"/><stop offset="1" stop-color="#75d5d8" stop-opacity="0"/></radialGradient><radialGradient id="radial-gradient-3" cx="209.76" cy="87.23" r="51.47" gradientTransform="matrix(1, 0, 0, 1, -65.59, 65.59)" xlink:href="#radial-gradient-2"/><radialGradient id="radial-gradient-4" cx="496.05" cy="-288.2" r="35.03" gradientTransform="matrix(1.06, -0.06, -0.06, 1.06, -376.53, 376.53)" xlink:href="#radial-gradient-2"/><clipPath id="clip-path"><path class="cls-1" d="M56.93,87a35.43,35.43,0,0,1-6.67-23.78c.42-4.31,2.4-4.56,3.63-4.67,2.7-.25,5.44,5.31,5.87,6.15.63,1.22,3.81,6.34,5.24,8.6,1.87,3,2.23,7,1.45,9.11,0,0-3.05-2.52-5.37-.88S60.15,85.9,56.93,87Z"/></clipPath><clipPath id="clip-path-2"><path class="cls-1" d="M127,114.35s-2.83,9.87-16,14.24c-4.1,1.36-5.14-.34-5.74-1.41-1.33-2.37,2.63-7.14,3.22-7.88.86-1.07,4.24-6,5.72-8.28,1.93-2.91,3.41-2.15,6.07-2.69,1.57-.32,3.15-2.93,5.59-1.48S127.43,110.64,127,114.35Z"/></clipPath><clipPath id="clip-path-3"><path class="cls-1" d="M102.12,74c-1,1-2.26,4.09-2.89,5.5-1.13,2.52-2.45,4-4.65,4s-3.48-1.53-4.64-4C89.28,78.15,88,75,87,74c-2.62-2.62-3.54-6.33-3-10.37.95-6.73,4.35-9.79,10.54-9.79s9.75,3.22,10.54,9.79C105.6,67.71,104.72,71.43,102.12,74Z"/></clipPath><clipPath id="clip-path-4"><path class="cls-1" d="M97.27,68.66c-.7,1.64-.58,2.86.17,3.57,1.37.13,3.82-.08,4.72-1.62.71-1.22,1.09-2.8-.15-4A4.28,4.28,0,0,0,97.27,68.66Z"/></clipPath><clipPath id="clip-path-5"><path class="cls-1" d="M91.82,68.66c.71,1.64.59,2.82-.17,3.54-1.36.12-3.82,0-4.72-1.59-.7-1.22-1.08-2.8.16-4A4.26,4.26,0,0,1,91.82,68.66Z"/></clipPath><clipPath id="clip-path-6"><path class="cls-1" d="M84,63.66c-.05,1.6.86,2.36.76,2.67s-.47.31-.91.11c0,0-4.11-1.37-4.09-3.73,0-4.26,5.61-6.06,7.09-6A13,13,0,0,0,84,63.66Z"/></clipPath><clipPath id="clip-path-7"><path class="cls-1" d="M105.12,63.66c0,1.6-.87,2.36-.76,2.67s.47.31.91.11c0,0,4.11-1.37,4.09-3.73,0-4.26-5.61-6.06-7.1-6A12.92,12.92,0,0,1,105.12,63.66Z"/></clipPath></defs><g id="Layer_2" data-name="Layer 2"><g id="content"><rect id="card" class="cls-2" width="180" height="252"/><g id="background"><polygon class="cls-3" points="169 11 169 224 152 241 11 241 11 28.26 28.26 11 169 11"/><g id="stars"><circle class="cls-4" cx="136.17" cy="44.55" r="1.13"/><circle class="cls-4" cx="47.58" cy="90.38" r="1.75"/><circle class="cls-4" cx="40.32" cy="151.16" r="1.75"/><circle class="cls-4" cx="86.05" cy="23.27" r="1.75"/><circle class="cls-4" cx="159.43" cy="113.34" r="1.75"/><circle class="cls-4" cx="128.21" cy="59.54" r="1.75"/><circle class="cls-4" cx="28.3" cy="105.97" r="1.13"/><circle class="cls-4" cx="130.63" cy="157.83" r="1.12"/><circle class="cls-4" cx="80.67" cy="35.1" r="1.12"/></g><path id="planet" class="cls-5" d="M68.24,42A26.64,26.64,0,1,1,17.92,29.8H65.3A26.52,26.52,0,0,1,68.24,42Z"/><path class="cls-6" d="M28.37,134.35c3.2,3.2,3.11,4.94,3.11,4.94s-1.74.09-4.94-3.11-17.77-19.6-17.77-19.6S25.17,131.15,28.37,134.35Z"/><path class="cls-7" d="M136.1,141c4.61,4.61,4.56,8.49,4.56,8.49s-3.88.05-8.49-4.56-24.93-28.86-24.93-28.86S131.49,136.4,136.1,141Z"/><path class="cls-8" d="M161.61,33.46c3.2,3.2,2.51,5.55,2.51,5.55s-2.34.69-5.54-2.52S141.41,16.3,141.41,16.3,158.41,30.26,161.61,33.46Z"/><path class="cls-9" d="M144.92,214.08c0,4,15.66,5,24.08,7.27V224l-6.39,6.38c-34.73,7.34-130.27,8-130.27-3.42,0-3,10.46-5,10.26-7.16-.37-3.89-29.69-4.17-29.69-7.5,0-3.13,8.7-3.87,8.7-6.25,0-1.45-4.53-3-10.61-4.48V190.5a387.19,387.19,0,0,1,158,0V204C156.48,207.13,144.92,210.64,144.92,214.08Z"/><polygon class="cls-10" points="63.11 192.01 93.87 192.01 77.42 195.53 132.2 197.81 104.5 202.35 115.03 209.87 56.52 202.35 80.94 199.56 63.11 192.01"/><polygon class="cls-10" points="127.26 219.51 139.76 220.82 128.69 222.43 152.68 223.41 112.74 229.22 125.13 225.51 121.03 222.06 127.26 219.51"/><path class="cls-11" d="M50.06,177l-6.5,18.65c-4.24.36-8.47.79-12.68,1.26l-.7.08-.77.09q-6.72.76-13.36,1.71l-.8.19L5.73,183.84l19.93,7.3,2.24-7.54L33,191.16Z"/><polygon class="cls-4" points="5.73 183.84 23.7 197.7 25.66 191.14 5.73 183.84"/><path class="cls-4" d="M33,191.16,30.18,197l-.77.09L27.9,183.6Z"/><path class="cls-12" d="M50.06,177,30.88,196.94l-.7.08L33,191.16Z"/><path class="cls-11" d="M59.33,184.63l-5.25,10.24-2.4.17-.74.05-.4,0c-3.46.25-6.92.54-10.36.86L36.6,181.33l9.1,7.93,2.69-3.49,3,5.83Z"/><polygon class="cls-4" points="45.7 189.26 43.02 192.72 36.6 181.33 45.7 189.26"/><path class="cls-4" d="M51.38,191.6l-.44,3.49-.4,0-2.15-9.35Z"/><path class="cls-12" d="M59.33,184.63,51.68,195l-.74.05.44-3.49Z"/><path class="cls-11" d="M15.26,199c-4.57,0-8.27-.45-8.27-1s3.7-1,8.27-1"/><path class="cls-11" d="M157.38,182l-4.86,12.88q-7.38-1-14.84-1.82l-3-14.88,6.57,9,8.7-21.06,2.86,17.7Z"/><polygon class="cls-4" points="149.98 166.15 147.58 192 152.84 183.85 149.98 166.15"/><polygon class="cls-12" points="157.38 181.99 147.58 192 152.84 183.85 157.38 181.99"/><polygon class="cls-4" points="134.71 178.16 139.85 190.67 141.28 187.21 134.71 178.16"/><path class="cls-11" d="M173,180.45l-7.48,16.39c-1.74-.29-3.48-.57-5.24-.83h0q-4-.63-8.07-1.18l-2.95-11.89,7.56,5.59,2-4.31,3.64,3.39Z"/><polygon class="cls-4" points="156.77 188.53 154.68 193.07 149.22 182.93 156.77 188.53"/><path class="cls-4" d="M162.4,187.6l-2.14,8.4h0l-1.48-11.79Z"/><path class="cls-12" d="M173,180.45,160.28,196h0l2.14-8.4Z"/><ellipse class="cls-11" cx="146.45" cy="195.07" rx="1.31" ry="19.16" transform="translate(-61.32 322.87) rotate(-84.7)"/></g><g id="character"><ellipse id="shadow" class="cls-11" cx="94.28" cy="216.37" rx="29.67" ry="7.1"/><path id="r-arm" class="cls-13" d="M82.88,96.33a1.76,1.76,0,0,1-.37-.17C80.57,95.07,78.61,94,76.64,93l-3-1.52-3-1.5c-2-1-4-2-6-2.9s-4.07-1.79-6.17-2.53a2.64,2.64,0,0,1-1.47-3.28c0-.11.06-.22.1-.33A2.85,2.85,0,0,1,60.6,79a2.19,2.19,0,0,1,.38.17c1.93,1.13,3.92,2.11,5.93,3S71,84,73,84.9l3.07,1.29,3.09,1.26c2.06.83,4.13,1.64,6.22,2.41a3.17,3.17,0,0,1,1.54,4.26,3.74,3.74,0,0,1-.57,1A3.12,3.12,0,0,1,82.88,96.33Z"/><g id="r-forearm"><g class="cls-14"><rect class="cls-15" x="50.53" y="57.82" width="15.77" height="30.75" transform="translate(-17.96 19) rotate(-16.05)"/><path class="cls-16" d="M62,84.87s3-5.29.62-10.44c-2-4.33-5-7.76-6-9.92a45.67,45.67,0,0,0-4.4-6.27l10-1.13,7.45,20.47-.77,7.69Z"/></g></g><g id="r-hand"><path class="cls-17" d="M50.63,56a2.67,2.67,0,0,0,.24-1.55c-.17-.69-.51-1-.84-.87s-1.2,2-1.2,2l1.35,1.52Z"/><path class="cls-17" d="M54.9,53.4c-1.28-.4-1.22.63-1,2.22.09.86-.6,1.19-1.31,1.11-1-.1-1-2.27-.79-3.14.26-1.24-.31-1.73-1.13-1.54-1,.22-1.18,2.14-1.18,2.14-.31.37,1.05,9.47,1.89,10.59,1.42,1.89,5.15-.34,5.15-.34C59.24,58.28,57,54,54.9,53.4Z"/><path class="cls-13" d="M56.48,64.44s.66-.41-.71-2.4-3.5-2.87-4.09-4.87-.11-3.87-1.38-4.68c-.8-.5-2,0-1.94,1.93.08,2.9.59,8.06,2.21,10S53.81,66.24,56.48,64.44Z"/><path class="cls-17" d="M53.41,59.58A8,8,0,0,1,51,55.28c-.23-1.16-1.19-.81-1.19-.81s.82.08,1,1.32A8.45,8.45,0,0,0,53.41,59.58Z"/></g><path class="cls-18" d="M99.52,63.32A28.76,28.76,0,0,0,107,81.12c.3.32,1.07,1.17,1.38,1.49,3.52,4.13,7.42,9.38,6.28,15.14-.3.79-1.25.59-1.38-.24-1.7-4.78-6.27-7.86-10.27-10.69a31.6,31.6,0,0,1-6.35-5.7,30.47,30.47,0,0,1-7-17.7c.06-6.68,9.72-6.79,9.93-.1Z"/><path class="cls-19" d="M100.52,65.08l-1.77.58a32.64,32.64,0,0,1-3.81,1A21.93,21.93,0,0,1,91,67c-1.11,0-1.88-.11-1.88-.11"/><path class="cls-19" d="M100.76,67.91s-.64.32-1.58.75A27.54,27.54,0,0,1,95.75,70a19.19,19.19,0,0,1-3.62.69c-1,.09-1.77.08-1.77.08"/><path class="cls-19" d="M101.32,70.76s-.56.37-1.37.88a23.71,23.71,0,0,1-3,1.63,17,17,0,0,1-3.27,1c-1,.18-1.64.24-1.64.24"/><path class="cls-19" d="M102.19,73.55s-.46.42-1.14,1a20.83,20.83,0,0,1-2.55,1.83,14.19,14.19,0,0,1-2.9,1.23,13.45,13.45,0,0,1-1.49.37"/><path class="cls-19" d="M103.39,76.26s-.38.44-.92,1a15.15,15.15,0,0,1-2.07,1.95,11.75,11.75,0,0,1-2.49,1.41,11.22,11.22,0,0,1-1.32.48"/><path class="cls-19" d="M104.94,78.82s-.27.44-.68,1.05a13.09,13.09,0,0,1-1.6,2,9.61,9.61,0,0,1-2.08,1.49,9.08,9.08,0,0,1-1.15.55"/><path class="cls-19" d="M106.81,81.23l-.12.3c-.07.19-.18.46-.31.76a8.35,8.35,0,0,1-1.18,1.93,9.42,9.42,0,0,1-1.7,1.48l-.67.45-.28.15"/><path class="cls-19" d="M109.23,84a7.43,7.43,0,0,1-.38.92,6,6,0,0,1-1.1,1.62,7.35,7.35,0,0,1-1.59,1.14c-.5.27-.89.44-.89.44"/><path class="cls-19" d="M111.45,87a6.68,6.68,0,0,1-.36.79,4.36,4.36,0,0,1-1,1.3,5.47,5.47,0,0,1-1.45.76c-.46.17-.81.26-.81.26"/><path class="cls-19" d="M113.3,90.33A5.08,5.08,0,0,1,113,91a2.79,2.79,0,0,1-.86,1,3.32,3.32,0,0,1-1.24.36,6.8,6.8,0,0,1-.71.07"/><path class="cls-19" d="M114.53,94s-.44,1-1,1.11a1.85,1.85,0,0,1-.9,0c-.29-.07-.53-.15-.53-.15"/><path id="l-arm" class="cls-13" d="M103,94.11a2,2,0,0,0,.27.3c1.62,1.54,3.21,3.09,4.78,4.67l2.34,2.38,2.31,2.39c1.52,1.62,3.07,3.22,4.55,4.87s2.92,3.35,4.25,5.14a2.62,2.62,0,0,0,3.56.43l.29-.2a2.86,2.86,0,0,0,.83-3.86c-.09-.11-.19-.22-.28-.31-1.65-1.5-3.18-3.11-4.68-4.75s-2.93-3.35-4.37-5l-2.15-2.55L112.6,95q-2.11-2.58-4.15-5.23a3.18,3.18,0,0,0-4.53-.21,4,4,0,0,0-.8.86A3.11,3.11,0,0,0,103,94.11Z"/><g id="l-calf"><path class="cls-20" d="M96.75,208.07c0,1.26,13.36-1.23,13.36-1.23s-.31-8.84-.41-11.55c-.36-10,.55-27.22.55-27.22s-6.48-1.37-7.93-1.35c-.74,0-1.36.15-1.51.55-3.12,8.64-2.91,12.78-2.84,18.61a87.52,87.52,0,0,1-.78,13.78C96.83,202.36,96.74,208,96.75,208.07Z"/><path class="cls-15" d="M95.12,218.33a7.8,7.8,0,0,0,3.46-.39h0a7.44,7.44,0,0,0,3.22-2.19c2.21.77,3,2.06,4.29,2.91a5.9,5.9,0,0,0,3.43.85c2.08,0,3.53-.09,3.63-.93a6.15,6.15,0,0,0,0-1.51,5.67,5.67,0,0,0-.11-.59,12.81,12.81,0,0,0,5.52,1.22l.5,0a12.56,12.56,0,0,0,3.89-1.09c.87-3.91-8.67-7.31-10.42-10-2.5-3.81-2.86-19.16-2.86-19.16s-.8,4.84-3.94,7.89c-5.75-4.77-7.72-9.41-7.72-9.41,0,.34-.51,8.7-1.45,17.9A27.86,27.86,0,0,1,94.16,213C93.05,215.47,93.57,218.16,95.12,218.33Z"/><path class="cls-21" d="M105.69,195.29s.08,8.91,1.37,12.09,4.44,5.79,3.66,12.11"/></g><g id="l-thigh"><path class="cls-13" d="M106.3,129.32s5.82,8.05,6.76,11.22-.59,2.36-.59,3.89.5,1.76.9,4.7c.2,1.51-1,1.47-2.27,1.08a6.18,6.18,0,0,1,.78,3c-.39,1.49-3,0-3,0l.24-3.92-.36-.2Z"/><path class="cls-20" d="M95.44,136.1a181.7,181.7,0,0,1,5.18,31.83s1.29,3.46,4.23,4c4.35.77,5.4-3.84,5.4-3.84a129.32,129.32,0,0,0,.23-17.8,70.1,70.1,0,0,0-3-18.13,25.73,25.73,0,0,0-3.1-6.22,3.76,3.76,0,0,0-4.83-1.48S93.79,129.42,95.44,136.1Z"/><path class="cls-22" d="M108.25,170.44a2.4,2.4,0,0,1-1,1.53,2.26,2.26,0,0,1-.94.41,1.25,1.25,0,0,1-1.09-.49,4.81,4.81,0,0,1-.79-1.69,4.1,4.1,0,0,1-.07-1.81c.21.57.43,1.09.67,1.59a8,8,0,0,0,.82,1.38c.14.18.25.25.4.25a2.35,2.35,0,0,0,.68-.19A3.73,3.73,0,0,0,108.25,170.44Z"/></g><g id="r-calf"><path class="cls-20" d="M92.43,208.07c0,1.26-13.37-1.23-13.37-1.23s.31-8.84.41-11.55c.37-10-.55-27.22-.55-27.22s6.48-1.37,7.93-1.35c.75,0,1.36.15,1.51.55,3.12,8.64,2.92,12.78,2.85,18.61A87.28,87.28,0,0,0,92,199.66C92.34,202.36,92.43,208,92.43,208.07Z"/><path class="cls-15" d="M79.54,187.4s-.36,15.35-2.85,19.16c-1.76,2.69-11.3,6.09-10.43,10a12.78,12.78,0,0,0,4.39,1.14,12.71,12.71,0,0,0,5.52-1.23,6.69,6.69,0,0,0-.15,2.11c.1.84,1.56.91,3.63.93,4.35,0,4.17-2.52,7.73-3.76a7.6,7.6,0,0,0,6.68,2.58c1.54-.17,2.07-2.86,1-5.32a27.81,27.81,0,0,1-2.37-9.23c-1-9.58-1.48-18.25-1.44-17.9,0,0-2,4.65-7.72,9.42C80.35,192.24,79.54,187.4,79.54,187.4Z"/><path class="cls-21" d="M83.48,195.29s-.07,8.91-1.37,12.09-4.44,5.79-3.66,12.11"/></g><g id="r-thigh"><path class="cls-13" d="M83,129.32s-5.82,8.05-6.76,11.22.59,2.36.59,3.89-.49,1.76-.89,4.7c-.21,1.51,1,1.47,2.26,1.08a6.29,6.29,0,0,0-.78,3c.39,1.49,3.06,0,3.06,0l-.25-3.92.37-.2Z"/><path class="cls-20" d="M93.73,136.1a181.7,181.7,0,0,0-5.18,31.83s-1.29,3.46-4.23,4c-4.35.77-5.4-3.84-5.4-3.84a128.56,128.56,0,0,1-.22-17.8,69.67,69.67,0,0,1,3-18.13,25.73,25.73,0,0,1,3.1-6.22,3.76,3.76,0,0,1,4.83-1.48S95.38,129.42,93.73,136.1Z"/><path class="cls-22" d="M84,168.85a9.67,9.67,0,0,1,0,1.7,1.82,1.82,0,0,1-.37.9,1.37,1.37,0,0,1-1,.47,2.92,2.92,0,0,1-2.72-2,7.63,7.63,0,0,0,1.31.92,3,3,0,0,0,1.37.35c.41,0,.62-.25.83-.76A10.18,10.18,0,0,1,84,168.85Z"/></g><g id="torso"><path class="cls-18" d="M86.4,113.32a8.21,8.21,0,1,1,16.41,0c-.72,1.77-2.32,3.54-8.2,3.54S87.42,115.72,86.4,113.32Z"/><path class="cls-20" d="M85.54,124.48a17,17,0,0,0-1.82,3.6c.46,1.09,3.55,3.24,4.62,4.82,1.72,2.56,1.3,6,3.35,7.59a4.8,4.8,0,0,0,2.94.84,5,5,0,0,0,2.92-.78c2-1.47,1.58-4.77,3.37-7.65,1-1.6,4.19-3.65,4.67-4.82-1-1.84-1.87-3.6-1.87-3.6Z"/><path class="cls-20" d="M87,117.56c0-5.49-6.16-16.27-3.35-29.69,5.55-2,16.75-2,21.88,0,2.86,12.73-3.35,24-3.35,29.69,0,.18,0,.36,0,.55a28.56,28.56,0,0,0,2.39,7.93s-6.49,5.33-9.78,11.33C91.53,131.29,84.74,126,84.74,126a29,29,0,0,0,2.34-7.48A8.64,8.64,0,0,1,87,117.56Z"/><path class="cls-23" d="M88.68,111c-1.1-3.29-3.41-7.1-3.8-10.55a49.81,49.81,0,0,1-.26-7.33,16.15,16.15,0,0,1,.53-4c.38-1.3.69-1.63,2.1-2.49L94.61,94l7.16-7.4A3.79,3.79,0,0,1,104,89.07a16.15,16.15,0,0,1,.53,4,49.81,49.81,0,0,1-.26,7.33c-.39,3.45-2.7,7.26-3.8,10.55-.46,1.38-5.8,16.86-5.8,16.86S89.13,112.36,88.68,111Z"/><path class="cls-17" d="M90.7,83a8,8,0,0,1,3.93-.79,7.85,7.85,0,0,1,3.93.79l-.46-4a15.82,15.82,0,0,0-3.47-.23,15.21,15.21,0,0,0-3.34.21Z"/><path class="cls-24" d="M89.08,84c-.59-5.65,9.08-4,10.18-2.47.33.48,1,4.17,0,5C96.57,88.68,89.5,88.05,89.08,84Z"/><polygon class="cls-17" points="101.27 86.34 94.77 85.6 88.32 86.24 94.56 93.77 101.27 86.34"/><path class="cls-17" d="M91,91.39a3.78,3.78,0,0,0,7.17,0,60.85,60.85,0,0,1-.37-7.56c0-4.92.25-9,.25-9H91.14s.25,4.07.25,9A60.85,60.85,0,0,1,91,91.39Z"/><path class="cls-15" d="M94.42,94.16l0,0a3.36,3.36,0,0,0,2-.61,13.39,13.39,0,0,0,2.83-2.43,15.52,15.52,0,0,0,2.46-3.4,8.48,8.48,0,0,0,1-4,4.69,4.69,0,0,0-.75-2.54A6,6,0,0,0,98.18,79L97.83,79c0,.5,0,1,0,1.53,0,.71,0,4.84,0,5.45,0,0,1,.41.69,1.33a10.79,10.79,0,0,1-1.07,2.61c-.48.84-1,1.81-1.58,2.6C95.48,93.07,94.73,93.54,94.42,94.16Z"/><path class="cls-15" d="M94.76,94.16v0a3.36,3.36,0,0,1-2-.61A13.64,13.64,0,0,1,90,91.15a15.52,15.52,0,0,1-2.46-3.4,8.48,8.48,0,0,1-1-4,4.7,4.7,0,0,1,.76-2.54A6,6,0,0,1,91,79l.34-.07c0,.5,0,1,0,1.53,0,.71,0,4.9,0,5.51,0,0-1,.35-.7,1.27a10.79,10.79,0,0,0,1.07,2.61c.48.84,1,1.81,1.58,2.6C93.69,93.07,94.44,93.54,94.76,94.16Z"/><path class="cls-15" d="M99.88,86s6.63,4.92,5.69,16.38c0,0,6.37-10.79,3.41-14.66C106.26,87.05,99.88,86,99.88,86Z"/><path class="cls-15" d="M89.29,86s-6.63,4.92-5.68,16.38c0,0-6.38-10.79-3.42-14.66C82.91,87.05,89.29,86,89.29,86Z"/></g><g id="l-forearm"><g class="cls-25"><rect class="cls-15" x="108.95" y="101.69" width="15.77" height="30.75" transform="translate(102.5 281.82) rotate(-130.09)"/><path class="cls-16" d="M127.48,105.5a35,35,0,0,0-6.78,7.29c-2.75,3.93-5.73,7.22-11.07,9.43-2,.85-3.93,6.59-3.93,6.59l-5.12-8.69L116.25,105l7.33-2.43Z"/></g></g><g id="l-hand"><path class="cls-13" d="M109.93,132.61c-1.06.57-3.05.76-4.11,1.09a2.5,2.5,0,0,1-1.75-.15,1.11,1.11,0,0,1-.75-.86c0-1,.9-1,2.15-1.2s1.46-.67,1.46-.67S110.75,132.17,109.93,132.61Z"/><path class="cls-17" d="M107.1,132.4l-3,1.15a1.11,1.11,0,0,1-.75-.86Z"/><path class="cls-13" d="M107.63,122.12l-.34.28c-.91.77-3.37,3-4,4.78-.84,2.22,2,5.66,5,5.69a5.27,5.27,0,0,0,5-4.15c.48-1.7-1.4-5.67-2.32-6.85A4.51,4.51,0,0,0,107.63,122.12Z"/><path class="cls-13" d="M108.21,131.72c-.68,1-3.44,1.08-4.81,1.39s-3.1-.58-3.05-1.51a.47.47,0,0,1,0-.17c.15-1,1.3-1,2.8-1.13a4.91,4.91,0,0,0,1.18-.24,1.32,1.32,0,0,0,.73-.47S108.88,130.75,108.21,131.72Z"/><path class="cls-13" d="M102.72,123.6c-1.83.67-3.48,1.59-2.38,2.55s3.56-.26,4.66-.2,2.74-.3,3.28-1.12.75-2.73-.65-2.71S102.72,123.6,102.72,123.6Z"/><path class="cls-17" d="M105.71,130s-.37.74-1.94,1.17a13.38,13.38,0,0,1-3.4.25c.15-1,1.3-1,2.8-1.13a4.91,4.91,0,0,0,1.18-.24Z"/><path class="cls-13" d="M103.31,127.36s-.33.56-1.91.7-2.78.09-2.83,1.3c0,.93,1.69,1.83,3.06,1.51s4.13-.41,4.8-1.39S103.31,127.36,103.31,127.36Z"/></g><g class="cls-26"><rect class="cls-13" x="83.35" y="52.69" width="22.47" height="31.72"/><path class="cls-15" d="M90,54.86c-.16.3.13,1.1.57,1.75a15.67,15.67,0,0,0,1.55,2c.58.64,1.19,1.25,1.82,1.84s1.29,1.18,1.93,1.7l-2.61,0h0c.63-.53,1.29-1.13,1.91-1.73s1.23-1.21,1.8-1.85a16.84,16.84,0,0,0,1.56-2c.45-.64.76-1.48.64-1.71l-.07-.12a.62.62,0,0,1,1-.68,2.05,2.05,0,0,1,.29,1.81,6,6,0,0,1-.51,1.39,17.42,17.42,0,0,1-1.45,2.35A43.16,43.16,0,0,1,95,63.8h0l-.45.49-.45-.48a41.06,41.06,0,0,1-3.51-4.16,16.47,16.47,0,0,1-1.45-2.37,6.17,6.17,0,0,1-.49-1.41A2.19,2.19,0,0,1,89,54.08a.63.63,0,0,1,.87-.12.62.62,0,0,1,.17.78Z"/></g><g class="cls-27"><rect class="cls-28" x="95.59" y="65.46" width="7.91" height="7.74"/><circle class="cls-29" cx="99.09" cy="70.08" r="2.71"/><circle cx="99.09" cy="70.08" r="1.35"/><path class="cls-30" d="M97.34,73.14s-1.81-3.77,1.75-5.77a3.72,3.72,0,0,1,2.38-.19c.35.25.74.52.75,1.88a3.57,3.57,0,0,1-1.41,2.77l2.37-.69,1-7.92L98,63.53l-3,9Z"/></g><g class="cls-31"><rect class="cls-28" x="85.6" y="65.46" width="7.91" height="7.74" transform="translate(179.11 138.66) rotate(-180)"/><circle class="cls-29" cx="90.01" cy="70.08" r="2.71"/><circle cx="90.01" cy="70.08" r="1.35"/><path class="cls-30" d="M91.76,73.14s1.81-3.77-1.75-5.77a3.73,3.73,0,0,0-2.38-.19c-.36.25-.74.52-.76,1.88a3.55,3.55,0,0,0,1.42,2.77l-2.38-.69-1-7.92,6.2.31,3,9Z"/></g><path class="cls-18" d="M97.58,76.27s-1.45,1.81-2.89,1.81-3-1.81-3-1.81a8.69,8.69,0,0,0,2.94.76A8.69,8.69,0,0,0,97.58,76.27Z"/><path class="cls-17" d="M86.12,65.28a3.22,3.22,0,0,1,2.12-1.5,5.65,5.65,0,0,1,1.36-.13,8.87,8.87,0,0,1,1.36.17.57.57,0,0,1-.22,1.12l-.12,0h0a7.47,7.47,0,0,0-1.12-.4,4.25,4.25,0,0,0-1.18-.15A2.86,2.86,0,0,0,86.12,65.28Z"/><path class="cls-17" d="M103,65.16a2.91,2.91,0,0,0-2.23-.82,4.23,4.23,0,0,0-1.17.21,8.75,8.75,0,0,0-1.1.45h0A.57.57,0,0,1,98,64l.12-.05a10.29,10.29,0,0,1,1.35-.23,5.23,5.23,0,0,1,1.37.07A3.17,3.17,0,0,1,103,65.16Z"/><g class="cls-32"><path class="cls-18" d="M84,63.66c-.05,1.6.86,2.36.76,2.67s-.47.31-.91.11c0,0-4.11-1.37-4.09-3.73,0-4.26,5.61-6.06,7.09-6A13,13,0,0,0,84,63.66Z"/><path class="cls-33" d="M84.62,64.26a3.5,3.5,0,0,0-3-.7c-1.8.35-.55,2.19,1.18,2.88"/><path class="cls-33" d="M85.05,63.2a4,4,0,0,0-1.7-2.15,2.36,2.36,0,0,0-3.79,1.88"/><path class="cls-33" d="M82.13,58.29a1.64,1.64,0,0,1,1.22,0,3.17,3.17,0,0,1,1.87,2.33"/><path class="cls-33" d="M85.55,56.54s1.34.15,1.34,2.36"/></g><g class="cls-34"><path class="cls-18" d="M105.12,63.66c0,1.6-.87,2.36-.76,2.67s.47.31.91.11c0,0,4.11-1.37,4.09-3.73,0-4.26-5.61-6.06-7.1-6A12.92,12.92,0,0,1,105.12,63.66Z"/><path class="cls-33" d="M104.54,64.26a3.49,3.49,0,0,1,2.94-.7c1.81.35.55,2.19-1.17,2.88"/><path class="cls-33" d="M104.11,63.2a4,4,0,0,1,1.7-2.15,2.36,2.36,0,0,1,3.79,1.88"/><path class="cls-33" d="M107,58.29a1.61,1.61,0,0,0-1.21,0,3.18,3.18,0,0,0-1.88,2.33"/><path class="cls-33" d="M103.61,56.54s-1.35.15-1.35,2.36"/></g></g><path class="cls-35" d="M42.33,36.22a3.73,3.73,0,0,0-3.19-1.7c-2.11,0-3.45,1.58-3.45,4s1.34,4,3.45,4a3.78,3.78,0,0,0,3.19-1.7l2,1.77a5.86,5.86,0,0,1-5.15,2.64c-4,0-6.52-2.74-6.52-6.65a6.31,6.31,0,0,1,6.52-6.65,6.06,6.06,0,0,1,5.23,2.67Z"/><path class="cls-35" d="M47,32.13h3v5h4.1v-5h3V44.88h-3V39.79H50v5.09H47Z"/><path class="cls-35" d="M69.79,44.88h-3v-3.3H63.55v3.3h-3v-8.5a4.29,4.29,0,0,1,4.61-4.53,4.27,4.27,0,0,1,4.59,4.53ZM63.55,39h3.28V36.58c0-1.48-.72-2-1.63-2s-1.65.54-1.65,2Z"/><path class="cls-35" d="M77,40.08H76.3v4.8h-3V32.13h5a4.12,4.12,0,0,1,4.37,4,3.78,3.78,0,0,1-2.65,3.62L83,44.88H79.63Zm2.77-3.84a1.53,1.53,0,0,0-1.66-1.51H76.3v3h1.77A1.54,1.54,0,0,0,79.73,36.24Z"/><path class="cls-35" d="M94.81,34.73V44.88h-3V34.73H88.89V44.88h-3V32.13h14.83V44.88h-3V34.73Z"/><path class="cls-35" d="M107.13,32.13h3.93l3.81,12.75h-3.25L111,42.41h-3.91l-.65,2.47h-3.09Zm.62,7.68h2.56l-1.24-4.76H109Z"/><path class="cls-35" d="M117.45,32.13h3V44.88h-3Z"/><path class="cls-35" d="M131.58,44.88,127,37.5h-.07v7.38h-2.87V32.13h3.06l4.52,7.37h.07V32.13h2.85V44.88Z"/><path class="cls-35" d="M138.21,32.13h7.6v2.6H141.2v2.44h4.27v2.55H141.2v2.52h4.69v2.64h-7.68Z"/><g id="stargazers_logo" data-name="stargazers logo"><path class="cls-2" d="M33.47,229.68a1.74,1.74,0,0,0,1.61-.78,1.15,1.15,0,0,0-.09-1.22L27.29,216a1.6,1.6,0,0,0-2.57,0L17,227.68a1.18,1.18,0,0,0-.11,1.23,1.77,1.77,0,0,0,1.62.77h7.07l.32,1.19.34-1.19ZM34.58,228a.66.66,0,0,1,.07.72,1.3,1.3,0,0,1-1.18.52H26.41l.18-.64a1.4,1.4,0,0,0,.71-1.22c0-.06,0-.12,0-.17h.2l0-.07s0-.07.06-.17c.56,0,1.43.61,1.61.38s-.83-1.82-1.16-2.36c0-.21,0-.43,0-.66s0-.42,0-.64A12.34,12.34,0,0,1,33.31,226Zm-5.06-5.6h.31V222a.07.07,0,0,1,.07-.07A.07.07,0,0,1,30,222v.31h.31a.07.07,0,0,1,0,.14H30v.3a.07.07,0,0,1-.06.07.07.07,0,0,1-.07-.07v-.3h-.31a.07.07,0,1,1,0-.14Zm-1.11-1.76.18-.48.17.48.49.18-.49.18-.17.49-.18-.49-.49-.18Zm-2.72-3.41.2-.63.19.63.64.19-.64.2-.19.63-.2-.63-.63-.2ZM22,221.91h.47v-.47a.11.11,0,0,1,.11-.11.1.1,0,0,1,.1.11v.47h.48a.1.1,0,0,1,.1.11.09.09,0,0,1-.1.1h-.48v.48a.09.09,0,0,1-.1.1.1.1,0,0,1-.11-.1v-.48H22a.1.1,0,0,1-.11-.1A.11.11,0,0,1,22,221.91Zm-2.76,3.25a10.54,10.54,0,0,1,4.53-2.37,5.93,5.93,0,0,1,2.05-4l.17-.15.16.16a6.79,6.79,0,0,1,2,3.92A9.14,9.14,0,0,1,32.61,225l.38.58A9,9,0,0,0,28,223a6.6,6.6,0,0,0-2-4l-.07-.07-.07.06a5.8,5.8,0,0,0-2,4,10.75,10.75,0,0,0-5,2.7Zm1,4,.28-1.57.16-.07.56,1.64Zm2.33,0-1.41-2-.23,0,.14.37,1.09,1.62h-.58l-.77-2-.44.28-.43,1.74H18.54a1.34,1.34,0,0,1-1.19-.51.68.68,0,0,1,.08-.73L18.69,226a16.33,16.33,0,0,1,5.21-2.34v.43c0,.26,0,.52.07.76-.29.47-1.36,2.2-1.19,2.41s1.1-.42,1.65-.38l.06.17,0,.07h.12a.91.91,0,0,0,0,.17,1.37,1.37,0,0,0,.67,1.19l.18.67ZM25.27,227a8.2,8.2,0,0,1-.58-3.71.1.1,0,1,0-.19,0,8.4,8.4,0,0,0,.56,3.72h-.39a9.85,9.85,0,0,1-.55-2.84,6.4,6.4,0,0,1,1.1-4.11,2.11,2.11,0,0,0,1.37.08c.45.68,1.62,2.94.16,6.87Z"/><path class="cls-2" d="M26,221.47c-.53,0-.95.91-.95,1.43a1,1,0,0,0,1.9,0C27,222.38,26.54,221.47,26,221.47Zm-.4,1.48a.24.24,0,1,1,.24-.24A.24.24,0,0,1,25.62,223Z"/><path class="cls-2" d="M26,224.36a.5.5,0,0,0-.5.5c0,.27.22,1.14.5,1.14s.49-.87.49-1.14A.5.5,0,0,0,26,224.36Z"/><path class="cls-2" d="M24.64,222.82a.11.11,0,1,0,.11.11A.11.11,0,0,0,24.64,222.82Z"/><path class="cls-2" d="M29.65,228.54a2,2,0,0,0,.51-.09l.34-.12a1.18,1.18,0,0,0,.74.25,1.25,1.25,0,0,0,1.25-1.25v-.09c.44-.32.78-.67.67-.88s-.34-.16-.79,0l-.26.09a1.25,1.25,0,0,0-2.12.9,1,1,0,0,0,0,.24l-.24.18c-.36.3-.49.52-.41.68S29.5,228.54,29.65,228.54Zm1.59-.16a1,1,0,0,1-.52-.14c.25-.11.52-.24.79-.39a8.5,8.5,0,0,0,.78-.47A1,1,0,0,1,31.24,228.38Zm1.65-1.94a.14.14,0,0,1,.09,0c0,.07-.17.28-.53.56a1.3,1.3,0,0,0-.2-.43A2.44,2.44,0,0,1,32.89,226.44Zm-.61.71c-.23.16-.52.34-.86.53a7.57,7.57,0,0,1-.89.42,1.13,1.13,0,0,1-.29-.45,7.51,7.51,0,0,1,.87-.54c.36-.19.68-.34,1-.45A1,1,0,0,1,32.28,227.15Zm-1-.87a1.08,1.08,0,0,1,.66.23,7.94,7.94,0,0,0-.89.43,8.68,8.68,0,0,0-.81.5.41.41,0,0,1,0-.11A1,1,0,0,1,31.24,226.28Zm-1.16,1.49a1.16,1.16,0,0,0,.25.41c-.45.16-.73.2-.78.15S29.71,228.05,30.08,227.77Z"/><path class="cls-2" d="M19.3,227.21l-.62.41c0,.31.21.29.21.29l.58-.39A.43.43,0,0,1,19.3,227.21Z"/><path class="cls-2" d="M20.51,226.32l-1.12.71a.61.61,0,0,0,.25.48l1.15-.64A.76.76,0,0,1,20.51,226.32Z"/><path class="cls-2" d="M21.81,225.87a.54.54,0,0,1,0-.43l-1.15.7a.8.8,0,0,0,.37.67l1.2-.65A.51.51,0,0,1,21.81,225.87Z"/><path class="cls-2" d="M21.86,225.43s-.06.12,0,.19a.2.2,0,0,1,.22.1q.12.19,0,.3a.58.58,0,0,0,.18.07s.14-.16,0-.46A.37.37,0,0,0,21.86,225.43Z"/><path class="cls-2" d="M16.82,231.28a.82.82,0,0,0-.82.82v.36a.61.61,0,0,0,.14.45l1,1.8s0,0,0,.12v.35a.36.36,0,1,1-.72,0v-.24a.11.11,0,0,0-.12-.11h-.22a.11.11,0,0,0-.12.11v.24a.82.82,0,0,0,.82.82.82.82,0,0,0,.81-.82v-.35a.64.64,0,0,0-.13-.45l-1-1.8s0,0,0-.12v-.36a.36.36,0,0,1,.72,0v.24a.11.11,0,0,0,.11.11h.23a.11.11,0,0,0,.11-.11v-.24A.82.82,0,0,0,16.82,231.28Z"/><path class="cls-2" d="M19.07,231.28H18a.12.12,0,0,0-.11.12v.22a.11.11,0,0,0,.11.12h.32v4.14a.11.11,0,0,0,.11.12h.23a.11.11,0,0,0,.11-.12v-4.14h.32a.12.12,0,0,0,.12-.12v-.22A.12.12,0,0,0,19.07,231.28Z"/><path class="cls-2" d="M22.57,231.28H22a.23.23,0,0,0-.23.23v4.37a.12.12,0,0,0,.12.12h.22a.12.12,0,0,0,.12-.12v-2h.36a.37.37,0,0,1,.36.37v1.65A.11.11,0,0,0,23,236h.23a.11.11,0,0,0,.11-.12v-1.65a.78.78,0,0,0-.25-.59.8.8,0,0,0,.25-.59v-.94A.82.82,0,0,0,22.57,231.28Zm.36,1.77a.36.36,0,0,1-.36.36h-.36v-1.67h.36a.36.36,0,0,1,.36.37Z"/><path class="cls-2" d="M24.78,231.28a.82.82,0,0,0-.81.82v3.08a.82.82,0,1,0,1.63,0v-1.66a.11.11,0,0,0-.11-.12H24.9a.12.12,0,0,0-.12.12v.22a.12.12,0,0,0,.12.12h.25v1.32a.37.37,0,0,1-.73,0V232.1a.37.37,0,0,1,.73,0v.24a.11.11,0,0,0,.11.11h.23a.11.11,0,0,0,.11-.11v-.24A.82.82,0,0,0,24.78,231.28Z"/><path class="cls-2" d="M29.93,231.28h-1.4a.12.12,0,0,0-.12.12v.22a.12.12,0,0,0,.12.12h1.06v.73a.31.31,0,0,1,0,.11l-1,1.81a.61.61,0,0,0-.14.45v1a.12.12,0,0,0,.12.12h1.4a.11.11,0,0,0,.11-.12v-.22a.12.12,0,0,0-.11-.12H28.87v-.7c0-.08,0-.08,0-.12l1-1.8a.67.67,0,0,0,.13-.45V231.4A.12.12,0,0,0,29.93,231.28Z"/><path class="cls-2" d="M31.63,231.28h-.84a.23.23,0,0,0-.23.23v4.26a.23.23,0,0,0,.23.23h.84a.11.11,0,0,0,.11-.12v-.22a.12.12,0,0,0-.11-.12H31v-1.67h.62a.12.12,0,0,0,.11-.11v-.23a.11.11,0,0,0-.11-.11H31v-1.68h.62a.11.11,0,0,0,.11-.12v-.22A.12.12,0,0,0,31.63,231.28Z"/><path class="cls-2" d="M33.08,231.28h-.59a.23.23,0,0,0-.23.23v4.37a.12.12,0,0,0,.12.12h.22a.12.12,0,0,0,.12-.12v-2h.36a.37.37,0,0,1,.36.37v1.65a.11.11,0,0,0,.11.12h.23a.11.11,0,0,0,.11-.12v-1.65a.78.78,0,0,0-.25-.59.8.8,0,0,0,.25-.59v-.94A.82.82,0,0,0,33.08,231.28Zm.36,1.77a.36.36,0,0,1-.36.36h-.36v-1.67h.36a.36.36,0,0,1,.36.37Z"/><path class="cls-2" d="M35.66,232.45h.23a.11.11,0,0,0,.11-.11v-.24a.82.82,0,0,0-.81-.82.82.82,0,0,0-.82.82v.36a.61.61,0,0,0,.14.45l1,1.8s0,0,0,.12v.35a.36.36,0,1,1-.72,0v-.24a.11.11,0,0,0-.12-.11h-.22a.11.11,0,0,0-.12.11v.24a.82.82,0,0,0,.82.82.82.82,0,0,0,.81-.82v-.35a.64.64,0,0,0-.13-.45l-1-1.8s0,0,0-.12v-.36a.36.36,0,1,1,.72,0v.24A.11.11,0,0,0,35.66,232.45Z"/><path class="cls-2" d="M27,231.28a.83.83,0,0,0-.82.83v3.77a.11.11,0,0,0,.11.12h.23a.11.11,0,0,0,.11-.12v-1.79l.73-.45v2.24a.12.12,0,0,0,.12.12h.22a.12.12,0,0,0,.12-.12v-3.77A.83.83,0,0,0,27,231.28Zm.36,1.91-.73.45v-1.53a.37.37,0,1,1,.73,0Z"/><path class="cls-2" d="M20.38,231.28a.83.83,0,0,0-.82.83v3.77a.12.12,0,0,0,.12.12h.22a.12.12,0,0,0,.12-.12v-1.79l.73-.45v2.24a.11.11,0,0,0,.11.12h.23a.11.11,0,0,0,.11-.12v-3.77A.83.83,0,0,0,20.38,231.28Zm.37,1.91-.73.45v-1.53a.36.36,0,0,1,.36-.37.37.37,0,0,1,.37.37Z"/></g></g></g></svg>