<svg xmlns="http://www.w3.org/2000/svg" xmlns:xlink="http://www.w3.org/1999/xlink" viewBox="0 0 180 252"><defs><style>.cls-1,.cls-17,.cls-19,.cls-20,.cls-21{fill:none;}.cls-2{fill:#eaeaea;}.cls-3{fill:#323232;}.cls-4{fill:url(#radial-gradient);}.cls-5{fill:url(#radial-gradient-2);}.cls-6{fill:#d48cc3;}.cls-7{fill:#b23194;}.cls-8{fill:#bb48a0;}.cls-9{fill:#891b6a;}.cls-10{fill:#dda3cf;}.cls-11{fill:#520551;}.cls-12{fill:#fd7922;}.cls-13{fill:#e46d1f;}.cls-14{fill:#ddee64;}.cls-15{fill:#02799e;}.cls-16{clip-path:url(#clip-path);}.cls-17{stroke:#026684;stroke-width:1.57px;}.cls-17,.cls-19,.cls-20,.cls-21{stroke-miterlimit:10;}.cls-18{fill:#9fac48;}.cls-19,.cls-20,.cls-21{stroke:#fd7922;}.cls-19{stroke-width:0.96px;}.cls-20{stroke-width:0.85px;}.cls-21{stroke-width:0.62px;}.cls-22{fill:#fff;}.cls-23{clip-path:url(#clip-path-2);}.cls-24{clip-path:url(#clip-path-3);}.cls-25{fill:#754c24;}.cls-26{clip-path:url(#clip-path-4);}.cls-27{clip-path:url(#clip-path-5);}.cls-28{clip-path:url(#clip-path-6);}.cls-29{fill:#33d08c;}</style><radialGradient id="radial-gradient" cx="83.6" cy="20.63" r="86.6" gradientUnits="userSpaceOnUse"><stop offset="0" stop-color="#891b6a"/><stop offset="1" stop-color="#891b6a" stop-opacity="0"/></radialGradient><radialGradient id="radial-gradient-2" cx="-4.53" cy="41.32" r="64.99" xlink:href="#radial-gradient"/><clipPath id="clip-path"><path class="cls-1" d="M79,123.49c-.39,10.41-8.06,19.21-14.65,27.7a27,27,0,0,0-3.9,6.94c-2.69,6.93-2.3,14.61.21,22,2,5.72,6.94,10.36,12.79,13a43.91,43.91,0,0,0,18.38,3.6c6.33,0,12.75-1,18.38-3.6,5.86-2.73,10.84-7.32,12.79-13,2.34-6.81,2.82-13.83.78-20.33a27.62,27.62,0,0,0-4.51-8.59c-6.59-8.54-14.26-17.29-14.65-27.7Z"/></clipPath><clipPath id="clip-path-2"><path class="cls-1" d="M112.57,85.13c-2.74-.16-4.83,2.6-4.63,6.26s2.75,7,5.64,7.07,4.86-2.93,4.5-6.63S115.28,85.28,112.57,85.13Z"/></clipPath><clipPath id="clip-path-3"><path class="cls-1" d="M94.19,85.12a7.56,7.56,0,0,0-7.08,8.06c.11,4.55,3.69,8.18,7.92,8s7.23-4.08,6.88-8.51A7.88,7.88,0,0,0,94.19,85.12Z"/></clipPath><clipPath id="clip-path-4"><path class="cls-1" d="M112.63,85.6c-1.78-.1-3.1,1.78-2.93,4.23s1.8,4.63,3.64,4.7,3.11-1.9,2.88-4.38S114.4,85.7,112.63,85.6Z"/></clipPath><clipPath id="clip-path-5"><path class="cls-1" d="M68,86.34a5.71,5.71,0,0,0-5.33,5.45,4.79,4.79,0,0,0,4.88,5.34,5.74,5.74,0,0,0,5.27-5.66A4.8,4.8,0,0,0,68,86.34Z"/></clipPath><clipPath id="clip-path-6"><path class="cls-1" d="M67.19,85.68c-4.84.07-9.12,3.6-9.53,8-.42,4.6,3.49,8.3,8.66,8.1s9.23-4.1,9.31-8.57C75.7,88.93,72,85.61,67.19,85.68Z"/></clipPath></defs><g id="Layer_2" data-name="Layer 2"><g id="content"><rect id="card" class="cls-2" width="180" height="252"/><g id="background"><polygon class="cls-3" points="169 11 169 224 152 241 11 241 11 28.26 28.26 11 169 11"/><path class="cls-4" d="M169,79.44a35,35,0,1,1,0-51.29Z"/><circle class="cls-5" cx="40.13" cy="63.54" r="23.45"/><circle class="cls-6" cx="22.93" cy="40.13" r="1.13"/><circle class="cls-6" cx="31.16" cy="138.01" r="1.13"/><circle class="cls-6" cx="131.88" cy="163" r="1.75"/><circle class="cls-6" cx="149.95" cy="98.47" r="1.75"/><circle class="cls-6" cx="43.88" cy="100.22" r="1.75"/><circle class="cls-6" cx="97.89" cy="21.41" r="1.75"/><circle class="cls-6" cx="25.28" cy="125.74" r="1.75"/><circle class="cls-6" cx="164" cy="148.3" r="1.12"/><circle class="cls-6" cx="110.69" cy="29.8" r="1.13"/><path class="cls-7" d="M151.34,212.42c0,3.75,15.22,4.37,15.26,8.37C166.69,228,135.52,236,100,236c-51.22,0-84.18-12.74-84.18-15.27,0-3.59,10.93-4.51,10.64-7.18-.16-1.54-7.58-2.8-15.47-4.11V191.24a364.1,364.1,0,0,1,158-.11v12.63C159.32,207.47,151.34,211,151.34,212.42Z"/><path id="highlight" class="cls-8" d="M111.05,214.67c.14-.8,25.91,3.29,25.76,4.65-.13,1.14-25.53-1.18-25.66,0-.15,1.41,34.8,4.85,34.68,7.48-.16,3.48-61.37,3.3-61.4,2.41,0-.64,33.41-1.63,33.46-4.16,0-2.08-17.63-4.94-17.51-6.52.1-1.39,15.24-.55,15.38-1.56S111,215.09,111.05,214.67Z"/><g id="rocks"><path class="cls-9" d="M17.21,175l6.57,21.71,2.21-.28c.9-.12,1.8-.23,2.71-.33l-1.13-28.54L24,162.22Z"/><polygon class="cls-10" points="24.03 162.22 22.46 171.59 17.21 174.99 24.03 162.22"/><path class="cls-11" d="M17.21,175l6.57,21.71,2.21-.28-3.53-24.83Z"/><path class="cls-9" d="M15,187.09,21.82,197c.15,0,.31,0,.46-.06l2.46-.32-2.23-8.35-5-7Z"/><polygon class="cls-10" points="17.48 181.18 18.18 188.53 15 187.09 17.48 181.18"/><path class="cls-11" d="M15,187.09,21.82,197c.15,0,.31,0,.46-.06l-4.1-8.37Z"/><path class="cls-9" d="M27.57,183.25l1,12.85,2.4-.28,2-.23,2.76-10.1-2.64-6.74Z"/><polygon class="cls-10" points="33.12 178.75 31.06 187.09 27.57 183.25 33.12 178.75"/><path class="cls-11" d="M27.57,183.25l1,12.85,2.4-.28.09-8.73Z"/></g><path id="shadow" class="cls-9" d="M64.15,198c-.17-1-12.52.65-12.84-.95-.2-1,6.9-2.92,6.71-4-.37-2.25-36.76,3.08-36.65,4.09.07.74,17.53-1.88,17.82.29.17,1.2-5.66,2.54-5.49,3.36C34,202.14,64.29,198.87,64.15,198Z"/><g id="rocks-2" data-name="rocks"><path class="cls-11" d="M150.39,167.92l5.94,28.82,1.9.28c1.58.24,3.16.49,4.73.75l2.36-33.32L159.93,153Z"/><path class="cls-9" d="M155,171,158.23,197c1.58.24,3.16.49,4.73.75l2.36-33.32L159.93,153Z"/><polygon class="cls-10" points="154.96 170.95 159.93 153.05 150.39 167.92 154.96 170.95"/><path class="cls-9" d="M162.46,173.13l-1,23.92,2.09.56c1,.27,2.08.56,3.12.85L172.55,180l-1.23-11.53Z"/><polygon class="cls-10" points="171.32 168.47 166 180.93 162.46 173.13 171.32 168.47"/><path class="cls-11" d="M162.46,173.13l-1,23.92,2.09.56,2.5-16.67Z"/><path class="cls-11" d="M145.33,174v6.86l6.82,15.3.51.08q2.09.28,4.14.6l-3.63-17.39Z"/><polygon class="cls-10" points="145.33 173.96 145.33 180.82 149.13 183.5 153.16 179.41 145.33 173.96"/><path class="cls-9" d="M149.13,183.5l3.53,12.7q2.09.28,4.14.6l-3.63-17.39Z"/></g><path id="shadow-2" data-name="shadow" class="cls-9" d="M121.2,196.08c.57-3.44,46.48,1,46.32,2.58C167.4,199.8,120.92,197.77,121.2,196.08Z"/></g><g id="character"><ellipse id="shadow-3" data-name="shadow" class="cls-9" cx="48.56" cy="206.95" rx="7.23" ry="2"/><ellipse id="shadow-4" data-name="shadow" class="cls-9" cx="81.66" cy="205.42" rx="7.23" ry="2"/><ellipse id="shadow-5" data-name="shadow" class="cls-9" cx="102.17" cy="204.84" rx="7.23" ry="2"/><ellipse id="shadow-6" data-name="shadow" class="cls-9" cx="132.15" cy="203.89" rx="7.23" ry="2"/><g id="b-legs"><path class="cls-12" d="M103.3,190.72c-.18,3.3-.35,6.76,1.51,9.71.7,1.08,1.65,2.26,1.13,3.38s-2.38,1.65-4,1.61-3.51-.57-4.07-1.82a4,4,0,0,1,.26-2.87,13.29,13.29,0,0,0-.48-9.23Z"/><path class="cls-12" d="M80.41,191.33c.17,3.3.35,6.77-1.52,9.71-.69,1.09-1.65,2.26-1.13,3.39s2.39,1.64,4,1.6,3.51-.56,4.08-1.82a3.93,3.93,0,0,0-.26-2.86,13.32,13.32,0,0,1,.47-9.24Z"/></g><path id="leg-4" class="cls-12" d="M58.56,171.5a14,14,0,0,0-10.32,8.32A17.13,17.13,0,0,0,48.59,194a16,16,0,0,1,1.69,3.77c.3,1.39-.09,3.08-1.26,3.64s-2.86-.39-4.11.3-1.31,3.21-.18,4.38a5.25,5.25,0,0,0,4.34,1.22c2.12-.18,4.46-.91,5.55-2.95a8.29,8.29,0,0,0,.39-5.51c-.44-1.82-1.13-3.59-1.43-5.46A12.57,12.57,0,0,1,55.74,184a10.05,10.05,0,0,1,7.85-4.16Z"/><path id="leg-1" class="cls-13" d="M122.12,168.43a14,14,0,0,1,10.32,8.32,17.13,17.13,0,0,1-.35,14.22,16.21,16.21,0,0,0-1.69,3.77c-.3,1.39.09,3.08,1.26,3.64s2.86-.39,4.12.31,1.3,3.2.17,4.38a5.24,5.24,0,0,1-4.34,1.21c-2.12-.17-4.46-.91-5.54-2.95a8.2,8.2,0,0,1-.39-5.5c.43-1.82,1.12-3.6,1.43-5.47a12.54,12.54,0,0,0-2.17-9.4,10,10,0,0,0-7.85-4.16Z"/><g id="body"><path class="cls-14" d="M111.6,173.22c-2,4.57-.64,9.5,3,11.05s8.11-.91,10.06-5.44,2.51-13.82-1.09-15.33S113.56,168.65,111.6,173.22Z"/><path class="cls-14" d="M70.57,174.51c1.08,4.86-1.13,9.45-4.94,10.32s-7.81-2.38-8.89-7.19.09-14,3.9-14.87S69.48,169.66,70.57,174.51Z"/><path class="cls-15" d="M79,123.49c-.39,10.41-8.06,19.21-14.65,27.7a27,27,0,0,0-3.9,6.94c-2.69,6.93-2.3,14.61.21,22,2,5.72,6.94,10.36,12.79,13a43.91,43.91,0,0,0,18.38,3.6c6.33,0,12.75-1,18.38-3.6,5.86-2.73,10.84-7.32,12.79-13,2.34-6.81,2.82-13.83.78-20.33a27.62,27.62,0,0,0-4.51-8.59c-6.59-8.54-14.26-17.29-14.65-27.7Z"/><path class="cls-14" d="M108.07,178.07c0,4.94,3.16,9,7.06,9s7.07-4,7.07-9-3.17-13.66-7.07-13.66S108.07,173.08,108.07,178.07Z"/><path class="cls-14" d="M71.92,179.83c0,5.41,3.47,9.83,7.74,9.83s7.74-4.42,7.74-9.83-3.46-15-7.74-15S71.92,174.37,71.92,179.83Z"/><g class="cls-16"><path class="cls-17" d="M124.76,152.19h0a108.68,108.68,0,0,1-65.85,0h0"/><path class="cls-17" d="M112.77,155.5c-7.16-6.62-10.91-16.75-13.19-27.06"/><path class="cls-17" d="M82.24,156.35c6.06-7.63,8.23-18.21,8.93-28.74"/></g></g><path id="leg-2" class="cls-12" d="M119.17,177.81c-.94,3.1-4.53,5.2-8,4.71a19.31,19.31,0,0,1-10.56-5,17.8,17.8,0,0,1-4.93-16.4,18.86,18.86,0,0,0,.88-5.05,3.67,3.67,0,0,0-3.06-3.59c-2-.13-3.73,1.69-5.68,1.47-2.14-.25-2.94-3.09-1.89-4.9s3.28-2.78,5.37-3.34c2.94-.79,6.37-.92,8.65.88,1.81,1.46,2.46,3.85,2.62,6.12s-.15,4.62.09,6.87a13.38,13.38,0,0,0,6.52,9.76,15,15,0,0,0,5.07,1.79c.1,0,.15,0,.25.05,3.59.5,5.68,3.51,4.66,6.63Z"/><path id="leg-3" class="cls-12" d="M75.37,186c2.85,2,7.29,1.39,9.87-1.33a20.71,20.71,0,0,0,5.62-11.24,19.14,19.14,0,0,0-6.74-17.15c-1.41-1.18-3.06-2.17-4.1-3.68s-1.21-3.78.2-5.08c1.58-1.41,4.28-1,5.78-2.53s.44-4.57-1.65-5.4-4.62-.17-6.77.75c-3,1.29-6,3.45-6.73,6.49-.56,2.44.48,4.89,1.86,6.92s3.2,3.8,4.49,5.87a14.37,14.37,0,0,1,1,12.58,16.09,16.09,0,0,1-3.1,4.89c-.07.07-.1.13-.17.21-2.66,2.79-2.43,6.72.47,8.7Z"/><g id="e4"><path class="cls-14" d="M91.15,129.69c3,0,6.12-.09,9.11-.26,2.21-.13,5.15-.78,6.46-3.29a4.58,4.58,0,0,0-.57-5c-.91-1.13-2.82-2.43-6.59-2.43h-.78c-2.51.13-5.07.22-7.58.22s-5.12-.09-7.59-.22h-.78c-2.08,0-4.9.44-6.59,2.43a4.49,4.49,0,0,0-.56,5c.69,1.38,2.38,3.07,6.46,3.29C85,129.6,88.12,129.69,91.15,129.69Z"/><path class="cls-18" d="M79.53,120.67c0,.39.92.78,2.26.83a150.71,150.71,0,0,0,18.77,0c1.56-.09,2.51-.57,2.21-1a3.93,3.93,0,0,0-2.6-.65h-.48a141,141,0,0,1-17,0c-1.38-.09-2.77.17-3.12.65A.22.22,0,0,0,79.53,120.67Z"/><path class="cls-12" d="M57.66,93.71c.41-4.43,4.69-8,9.53-8a8.49,8.49,0,0,1,7.15,3.39,6,6,0,0,0,3.55-.59,34.28,34.28,0,0,1,14.22-3.39,33.32,33.32,0,0,1,13.82,2.8,2.41,2.41,0,0,0,2.64-.08,4.2,4.2,0,0,1,4-2.68c2.71.15,5.16,3.11,5.51,6.7s-1.64,6.72-4.5,6.63A5.77,5.77,0,0,1,108.92,95a2.19,2.19,0,0,0-2.17.4c-5,2.48-6.51,20.55-6.14,26.81L80.87,123s10.29-22.08-3.05-26.55h0A6.45,6.45,0,0,0,75.07,96a9.83,9.83,0,0,1-8.75,5.86C61.15,102,57.24,98.31,57.66,93.71Z"/><path class="cls-19" d="M93.68,87.71c0-3.77-.11-5.73-1.16-8.53h0"/><path class="cls-12" d="M92.48,78.51a.71.71,0,1,0,.85.62A.77.77,0,0,0,92.48,78.51Z"/><path class="cls-20" d="M93.05,83.53c-1.92.12-3.51.49-3.55.83s1.59.54,3.63.42,3.63-.52,3.55-.86S95,83.42,93.05,83.53Z"/><path class="cls-21" d="M92.91,81.21c-1.13.07-2,.26-2,.44s.93.27,2.09.2S95,81.57,95,81.4,94,81.14,92.91,81.21Z"/><path class="cls-22" d="M112.63,85.6c-1.78-.1-3.1,1.78-2.93,4.23s1.8,4.63,3.64,4.7,3.11-1.9,2.88-4.38S114.4,85.7,112.63,85.6Z"/><path class="cls-22" d="M68,86.34a5.71,5.71,0,0,0-5.33,5.45,4.79,4.79,0,0,0,4.88,5.34,5.74,5.74,0,0,0,5.27-5.66A4.8,4.8,0,0,0,68,86.34Z"/><path class="cls-22" d="M94.19,85.12a7.56,7.56,0,0,0-7.08,8.06c.11,4.55,3.69,8.18,7.92,8s7.23-4.08,6.88-8.51A7.88,7.88,0,0,0,94.19,85.12Z"/><path class="cls-14" d="M76.2,121.15H80a5.43,5.43,0,0,0,1.78.39,150.71,150.71,0,0,0,18.77,0,4.18,4.18,0,0,0,1.77-.39h3.78a4.42,4.42,0,0,1,.56,5c-1.3,2.51-4.21,3.16-6.46,3.29-3,.17-6.07.26-9.1.26S85,129.6,82,129.43c-4-.22-5.72-1.91-6.46-3.29A4.87,4.87,0,0,1,76.2,121.15Z"/><g class="cls-23"><path class="cls-12" d="M109.92,100.07c1.8,2.08,5.23,1.66,7.72-1s3.1-6.84,1.15-9-5.48-1.44-7.89,1.4S108.14,98,109.92,100.07Z"/></g><path class="cls-12" d="M84.81,100c2.74,4.08,7.22,6.26,11.51,5.48A10,10,0,0,0,104,98.19a12.13,12.13,0,0,0-8.85-3.07A15,15,0,0,0,84.81,100Z"/><g class="cls-24"><path class="cls-25" d="M94.2,83.63a4.16,4.16,0,0,0-3.93,4.46,4.38,4.38,0,0,0,4.39,4.34,4.18,4.18,0,0,0,3.86-4.6A4.38,4.38,0,0,0,94.2,83.63Z"/></g><path class="cls-25" d="M99.54,101.65a.48.48,0,0,1,.8.47,5.16,5.16,0,0,1-4.31,4.5,6,6,0,0,1-6.31-4.07c-.24-.69.51-1,1.13-.65C94.06,103.71,97.37,103.48,99.54,101.65Z"/><g class="cls-26"><path class="cls-25" d="M111.44,83c-1.16-.07-2,1.15-1.9,2.74s1.16,3,2.34,3,2-1.21,1.88-2.8S112.59,83,111.44,83Z"/></g><g class="cls-27"><path class="cls-25" d="M69.35,83.12a3.64,3.64,0,0,0-3.41,3.51A3.11,3.11,0,0,0,69.09,90a3.65,3.65,0,0,0,3.38-3.59A3.1,3.1,0,0,0,69.35,83.12Z"/></g><g class="cls-28"><path class="cls-12" d="M70.47,92.53c-4.06-2.61-9.59-2-12.37,1.44s-1.68,8.84,2.75,11.52,10,1.68,12.49-2S74.48,95.1,70.47,92.53Z"/></g></g></g><path class="cls-29" d="M32.21,34.73h-3v-2.6h9v2.6h-3V44.88h-3Z"/><path class="cls-29" d="M44.6,40.08h-.66v4.8H41V32.13h5a4.12,4.12,0,0,1,4.36,4,3.78,3.78,0,0,1-2.65,3.62l2.94,5.09H47.27Zm2.77-3.84a1.53,1.53,0,0,0-1.66-1.51H43.94v3h1.77A1.54,1.54,0,0,0,47.37,36.24Z"/><path class="cls-29" d="M53.53,32.13h3V44.88h-3Z"/><path class="cls-29" d="M59.77,44.88V42.24h4.55V39.69h-.73c-2.29,0-3.91-1.27-3.91-3.77s1.68-3.79,4-3.79h3.45v2.6H64a1.2,1.2,0,1,0,0,2.38h3.37v7.77Z"/><path class="cls-29" d="M73.5,32.13h3.93l3.81,12.75H78l-.65-2.47H73.43l-.64,2.47h-3.1Zm.61,7.68h2.57l-1.24-4.76h-.07Z"/><path class="cls-29" d="M93.07,40.57H86.81v4.31h-3V32.13h9.25Zm-3-5.84H86.81V38h3.27Z"/><path class="cls-29" d="M96.43,32.13h3v5h4.09v-5h3V44.88h-3V39.79H99.43v5.09h-3Z"/><path class="cls-29" d="M113.89,40.12h-.76v4.76h-3V32.13h9v8h-1.9L120,44.88h-3.31Zm2.21-5.39h-3v3h3Z"/><path class="cls-29" d="M122.05,38.5a6.51,6.51,0,1,1,13,0,6.31,6.31,0,0,1-6.51,6.65C124.64,45.15,122.05,42.41,122.05,38.5Zm10,0c0-2.38-1.31-4-3.45-4s-3.44,1.58-3.44,4,1.31,4,3.44,4S132,40.9,132,38.48Z"/><path class="cls-29" d="M145.61,44.88,141,37.5H141v7.38H138.1V32.13h3.06l4.52,7.37h.07V32.13h2.86V44.88Z"/><g id="stargazers_logo" data-name="stargazers logo"><path class="cls-2" d="M33.47,229.68a1.74,1.74,0,0,0,1.61-.78,1.15,1.15,0,0,0-.09-1.22L27.29,216a1.6,1.6,0,0,0-2.57,0L17,227.68a1.18,1.18,0,0,0-.11,1.23,1.77,1.77,0,0,0,1.62.77h7.07l.32,1.19.34-1.19ZM34.58,228a.66.66,0,0,1,.07.72,1.3,1.3,0,0,1-1.18.52H26.41l.18-.64a1.4,1.4,0,0,0,.71-1.22c0-.06,0-.12,0-.17h.2l0-.07s0-.07.06-.17c.56,0,1.43.61,1.61.38s-.83-1.82-1.16-2.36c0-.21,0-.43,0-.66s0-.42,0-.64A12.34,12.34,0,0,1,33.31,226Zm-5.06-5.6h.31V222a.07.07,0,0,1,.07-.07A.07.07,0,0,1,30,222v.31h.31a.07.07,0,0,1,0,.14H30v.3a.07.07,0,0,1-.06.07.07.07,0,0,1-.07-.07v-.3h-.31a.07.07,0,1,1,0-.14Zm-1.11-1.76.18-.48.17.48.49.18-.49.18-.17.49-.18-.49-.49-.18Zm-2.72-3.41.2-.63.19.63.64.19-.64.2-.19.63-.2-.63-.63-.2ZM22,221.91h.47v-.47a.11.11,0,0,1,.11-.11.1.1,0,0,1,.1.11v.47h.48a.1.1,0,0,1,.1.11.09.09,0,0,1-.1.1h-.48v.48a.09.09,0,0,1-.1.1.1.1,0,0,1-.11-.1v-.48H22a.1.1,0,0,1-.11-.1A.11.11,0,0,1,22,221.91Zm-2.76,3.25a10.54,10.54,0,0,1,4.53-2.37,5.93,5.93,0,0,1,2.05-4l.17-.15.16.16a6.79,6.79,0,0,1,2,3.92A9.14,9.14,0,0,1,32.61,225l.38.58A9,9,0,0,0,28,223a6.6,6.6,0,0,0-2-4l-.07-.07-.07.06a5.8,5.8,0,0,0-2,4,10.75,10.75,0,0,0-5,2.7Zm1,4,.28-1.57.16-.07.56,1.64Zm2.33,0-1.41-2-.23,0,.14.37,1.09,1.62h-.58l-.77-2-.44.28-.43,1.74H18.54a1.34,1.34,0,0,1-1.19-.51.68.68,0,0,1,.08-.73L18.69,226a16.33,16.33,0,0,1,5.21-2.34v.43c0,.26,0,.52.07.76-.29.47-1.36,2.2-1.19,2.41s1.1-.42,1.65-.38l.06.17,0,.07h.12a.91.91,0,0,0,0,.17,1.37,1.37,0,0,0,.67,1.19l.18.67ZM25.27,227a8.2,8.2,0,0,1-.58-3.71.1.1,0,1,0-.19,0,8.4,8.4,0,0,0,.56,3.72h-.39a9.85,9.85,0,0,1-.55-2.84,6.4,6.4,0,0,1,1.1-4.11,2.11,2.11,0,0,0,1.37.08c.45.68,1.62,2.94.16,6.87Z"/><path class="cls-2" d="M26,221.47c-.53,0-.95.91-.95,1.43a1,1,0,0,0,1.9,0C27,222.38,26.54,221.47,26,221.47Zm-.4,1.48a.24.24,0,1,1,.24-.24A.24.24,0,0,1,25.62,223Z"/><path class="cls-2" d="M26,224.36a.5.5,0,0,0-.5.5c0,.27.22,1.14.5,1.14s.49-.87.49-1.14A.5.5,0,0,0,26,224.36Z"/><path class="cls-2" d="M24.64,222.82a.11.11,0,1,0,.11.11A.11.11,0,0,0,24.64,222.82Z"/><path class="cls-2" d="M29.65,228.54a2,2,0,0,0,.51-.09l.34-.12a1.18,1.18,0,0,0,.74.25,1.25,1.25,0,0,0,1.25-1.25v-.09c.44-.32.78-.67.67-.88s-.34-.16-.79,0l-.26.09a1.25,1.25,0,0,0-2.12.9,1,1,0,0,0,0,.24l-.24.18c-.36.3-.49.52-.41.68S29.5,228.54,29.65,228.54Zm1.59-.16a1,1,0,0,1-.52-.14c.25-.11.52-.24.79-.39a8.5,8.5,0,0,0,.78-.47A1,1,0,0,1,31.24,228.38Zm1.65-1.94a.14.14,0,0,1,.09,0c0,.07-.17.28-.53.56a1.3,1.3,0,0,0-.2-.43A2.44,2.44,0,0,1,32.89,226.44Zm-.61.71c-.23.16-.52.34-.86.53a7.57,7.57,0,0,1-.89.42,1.13,1.13,0,0,1-.29-.45,7.51,7.51,0,0,1,.87-.54c.36-.19.68-.34,1-.45A1,1,0,0,1,32.28,227.15Zm-1-.87a1.08,1.08,0,0,1,.66.23,7.94,7.94,0,0,0-.89.43,8.68,8.68,0,0,0-.81.5.41.41,0,0,1,0-.11A1,1,0,0,1,31.24,226.28Zm-1.16,1.49a1.16,1.16,0,0,0,.25.41c-.45.16-.73.2-.78.15S29.71,228.05,30.08,227.77Z"/><path class="cls-2" d="M19.3,227.21l-.62.41c0,.31.21.29.21.29l.58-.39A.43.43,0,0,1,19.3,227.21Z"/><path class="cls-2" d="M20.51,226.32l-1.12.71a.61.61,0,0,0,.25.48l1.15-.64A.76.76,0,0,1,20.51,226.32Z"/><path class="cls-2" d="M21.81,225.87a.54.54,0,0,1,0-.43l-1.15.7a.8.8,0,0,0,.37.67l1.2-.65A.51.51,0,0,1,21.81,225.87Z"/><path class="cls-2" d="M21.86,225.43s-.06.12,0,.19a.2.2,0,0,1,.22.1q.12.19,0,.3a.58.58,0,0,0,.18.07s.14-.16,0-.46A.37.37,0,0,0,21.86,225.43Z"/><path class="cls-2" d="M16.82,231.28a.82.82,0,0,0-.82.82v.36a.61.61,0,0,0,.14.45l1,1.8s0,0,0,.12v.35a.36.36,0,1,1-.72,0v-.24a.11.11,0,0,0-.12-.11h-.22a.11.11,0,0,0-.12.11v.24a.82.82,0,0,0,.82.82.82.82,0,0,0,.81-.82v-.35a.64.64,0,0,0-.13-.45l-1-1.8s0,0,0-.12v-.36a.36.36,0,0,1,.72,0v.24a.11.11,0,0,0,.11.11h.23a.11.11,0,0,0,.11-.11v-.24A.82.82,0,0,0,16.82,231.28Z"/><path class="cls-2" d="M19.07,231.28H18a.12.12,0,0,0-.11.12v.22a.11.11,0,0,0,.11.12h.32v4.14a.11.11,0,0,0,.11.12h.23a.11.11,0,0,0,.11-.12v-4.14h.32a.12.12,0,0,0,.12-.12v-.22A.12.12,0,0,0,19.07,231.28Z"/><path class="cls-2" d="M22.57,231.28H22a.23.23,0,0,0-.23.23v4.37a.12.12,0,0,0,.12.12h.22a.12.12,0,0,0,.12-.12v-2h.36a.37.37,0,0,1,.36.37v1.65A.11.11,0,0,0,23,236h.23a.11.11,0,0,0,.11-.12v-1.65a.78.78,0,0,0-.25-.59.8.8,0,0,0,.25-.59v-.94A.82.82,0,0,0,22.57,231.28Zm.36,1.77a.36.36,0,0,1-.36.36h-.36v-1.67h.36a.36.36,0,0,1,.36.37Z"/><path class="cls-2" d="M24.78,231.28a.82.82,0,0,0-.81.82v3.08a.82.82,0,1,0,1.63,0v-1.66a.11.11,0,0,0-.11-.12H24.9a.12.12,0,0,0-.12.12v.22a.12.12,0,0,0,.12.12h.25v1.32a.37.37,0,0,1-.73,0V232.1a.37.37,0,0,1,.73,0v.24a.11.11,0,0,0,.11.11h.23a.11.11,0,0,0,.11-.11v-.24A.82.82,0,0,0,24.78,231.28Z"/><path class="cls-2" d="M29.93,231.28h-1.4a.12.12,0,0,0-.12.12v.22a.12.12,0,0,0,.12.12h1.06v.73a.31.31,0,0,1,0,.11l-1,1.81a.61.61,0,0,0-.14.45v1a.12.12,0,0,0,.12.12h1.4a.11.11,0,0,0,.11-.12v-.22a.12.12,0,0,0-.11-.12H28.87v-.7c0-.08,0-.08,0-.12l1-1.8a.67.67,0,0,0,.13-.45V231.4A.12.12,0,0,0,29.93,231.28Z"/><path class="cls-2" d="M31.63,231.28h-.84a.23.23,0,0,0-.23.23v4.26a.23.23,0,0,0,.23.23h.84a.11.11,0,0,0,.11-.12v-.22a.12.12,0,0,0-.11-.12H31v-1.67h.62a.12.12,0,0,0,.11-.11v-.23a.11.11,0,0,0-.11-.11H31v-1.68h.62a.11.11,0,0,0,.11-.12v-.22A.12.12,0,0,0,31.63,231.28Z"/><path class="cls-2" d="M33.08,231.28h-.59a.23.23,0,0,0-.23.23v4.37a.12.12,0,0,0,.12.12h.22a.12.12,0,0,0,.12-.12v-2h.36a.37.37,0,0,1,.36.37v1.65a.11.11,0,0,0,.11.12h.23a.11.11,0,0,0,.11-.12v-1.65a.78.78,0,0,0-.25-.59.8.8,0,0,0,.25-.59v-.94A.82.82,0,0,0,33.08,231.28Zm.36,1.77a.36.36,0,0,1-.36.36h-.36v-1.67h.36a.36.36,0,0,1,.36.37Z"/><path class="cls-2" d="M35.66,232.45h.23a.11.11,0,0,0,.11-.11v-.24a.82.82,0,0,0-.81-.82.82.82,0,0,0-.82.82v.36a.61.61,0,0,0,.14.45l1,1.8s0,0,0,.12v.35a.36.36,0,1,1-.72,0v-.24a.11.11,0,0,0-.12-.11h-.22a.11.11,0,0,0-.12.11v.24a.82.82,0,0,0,.82.82.82.82,0,0,0,.81-.82v-.35a.64.64,0,0,0-.13-.45l-1-1.8s0,0,0-.12v-.36a.36.36,0,1,1,.72,0v.24A.11.11,0,0,0,35.66,232.45Z"/><path class="cls-2" d="M27,231.28a.83.83,0,0,0-.82.83v3.77a.11.11,0,0,0,.11.12h.23a.11.11,0,0,0,.11-.12v-1.79l.73-.45v2.24a.12.12,0,0,0,.12.12h.22a.12.12,0,0,0,.12-.12v-3.77A.83.83,0,0,0,27,231.28Zm.36,1.91-.73.45v-1.53a.37.37,0,1,1,.73,0Z"/><path class="cls-2" d="M20.38,231.28a.83.83,0,0,0-.82.83v3.77a.12.12,0,0,0,.12.12h.22a.12.12,0,0,0,.12-.12v-1.79l.73-.45v2.24a.11.11,0,0,0,.11.12h.23a.11.11,0,0,0,.11-.12v-3.77A.83.83,0,0,0,20.38,231.28Zm.37,1.91-.73.45v-1.53a.36.36,0,0,1,.36-.37.37.37,0,0,1,.37.37Z"/></g></g></g></svg>