<svg xmlns="http://www.w3.org/2000/svg" xmlns:xlink="http://www.w3.org/1999/xlink" viewBox="0 0 180 252"><defs><style>.cls-1,.cls-13,.cls-17,.cls-18,.cls-22{fill:none;}.cls-2{fill:#eaeaea;}.cls-3{fill:#323232;}.cls-4{fill:#d48cc3;}.cls-5{fill:url(#radial-gradient);}.cls-6{fill:url(#radial-gradient-2);}.cls-7{fill:#b23194;}.cls-8{fill:#02799e;}.cls-9{fill:#891b6a;}.cls-10{fill:#ddee64;}.cls-11{fill:#c5d559;}.cls-12{fill:#9fac48;}.cls-13,.cls-17,.cls-18{stroke:#fd7922;}.cls-13,.cls-17,.cls-18,.cls-22{stroke-miterlimit:10;}.cls-13{stroke-width:0.66px;}.cls-14{fill:#fd7922;}.cls-15{fill:#fff;}.cls-16{fill:#754c24;}.cls-17{stroke-width:0.6px;}.cls-18{stroke-width:0.44px;}.cls-19{clip-path:url(#clip-path);}.cls-20{clip-path:url(#clip-path-2);}.cls-21{fill:#33d08c;}.cls-22{stroke:#eaeaea;stroke-linecap:round;stroke-width:0.5px;}</style><radialGradient id="radial-gradient" cx="102.85" cy="35.45" r="64.99" gradientUnits="userSpaceOnUse"><stop offset="0" stop-color="#891b6a"/><stop offset="1" stop-color="#891b6a" stop-opacity="0"/></radialGradient><radialGradient id="radial-gradient-2" cx="43.56" cy="152.29" r="86.6" xlink:href="#radial-gradient"/><clipPath id="clip-path"><circle class="cls-1" cx="62.24" cy="33.71" r="5.78" transform="translate(-6.86 49.05) rotate(-40.96)"/></clipPath><clipPath id="clip-path-2"><circle class="cls-1" cx="22.8" cy="33.71" r="5.78" transform="translate(-17.6 28.83) rotate(-49.04)"/></clipPath></defs><g id="Layer_2" data-name="Layer 2"><g id="content"><rect id="card" class="cls-2" width="180" height="252"/><g id="background"><polygon class="cls-3" points="169 11 169 224 152 241 11 241 11 28.26 28.26 11 169 11"/><circle class="cls-4" cx="163.29" cy="108.94" r="1.13"/><circle class="cls-4" cx="67.31" cy="202.15" r="1.13"/><circle class="cls-4" cx="80.53" cy="55.37" r="1.13"/><circle class="cls-4" cx="22.23" cy="143.54" r="1.13"/><circle class="cls-4" cx="143.94" cy="24.99" r="1.13"/><circle class="cls-4" cx="71.77" cy="48.28" r="1.75"/><circle class="cls-4" cx="155.51" cy="172.05" r="1.75"/><circle class="cls-5" cx="147.51" cy="57.67" r="23.45"/><path class="cls-6" d="M129,211.1a35,35,0,1,1,0-51.29Z"/><polygon class="cls-7" points="60.02 252 25.02 252 25.02 58.51 42.52 76.02 60.02 58.51 60.02 252"/><polygon class="cls-7" points="25.02 0 60.02 0 60.02 30.51 42.52 13.01 25.02 30.51 25.02 0"/><polygon class="cls-8" points="54.02 57.51 42.52 69.01 31.02 57.51 54.02 57.51"/><path class="cls-9" d="M42.52,71.13l-24-24V34.89l24-24,24,24V47.13Zm-21-25.25,21,21,21-21V36.13l-21-21-21,21Z"/></g><g id="character_headshot" data-name="character headshot"><path class="cls-10" d="M42.52,58.88c-2.12,0-4.27-.06-6.36-.19-1.54-.09-3.59-.54-4.5-2.29a3.17,3.17,0,0,1,.39-3.48c.64-.79,2-1.7,4.6-1.7h.54c1.76.09,3.54.15,5.3.15s3.57-.06,5.29-.15h.54a6,6,0,0,1,4.6,1.7,3.14,3.14,0,0,1,.4,3.48c-.49,1-1.67,2.14-4.51,2.29C46.78,58.82,44.63,58.88,42.52,58.88Z"/><path class="cls-11" d="M49.05,53.16a106,106,0,0,1-13.1,0c-1.09-.06-1.75-.39-1.54-.73h0A3.08,3.08,0,0,1,36.59,52a97.28,97.28,0,0,0,11.83,0,3.07,3.07,0,0,1,2.17.45h0C50.84,52.77,50.14,53.1,49.05,53.16Z"/><path class="cls-10" d="M50.62,52.58c0,.28-.63.55-1.57.58a106,106,0,0,1-13.1,0c-1.09-.06-1.75-.39-1.54-.73A2.76,2.76,0,0,1,36.23,52h.33a97.28,97.28,0,0,0,11.83,0,3.07,3.07,0,0,1,2.17.45A.17.17,0,0,1,50.62,52.58Z"/><path class="cls-12" d="M50.62,52.58c0,.28-.63.55-1.57.58a106,106,0,0,1-13.1,0c-1.09-.06-1.75-.39-1.54-.73A2.76,2.76,0,0,1,36.23,52h.33a97.28,97.28,0,0,0,11.83,0,3.07,3.07,0,0,1,2.17.45A.17.17,0,0,1,50.62,52.58Z"/><line class="cls-13" x1="42.52" y1="27.75" x2="42.52" y2="19.19"/><path class="cls-14" d="M62.24,27.93a5.77,5.77,0,0,0-5,2.8,3.82,3.82,0,0,1-3.07-.29,26.81,26.81,0,0,0-23.41,0,3.8,3.8,0,0,1-3.06.29,5.78,5.78,0,1,0,0,5.94,4,4,0,0,1,3,.22c6.87,2.9,5.36,17.63,5.36,17.63h12.7s-1.54-14.73,5.35-17.63a4,4,0,0,1,3.06-.22,5.78,5.78,0,1,0,5-8.74Z"/><circle class="cls-15" cx="62.24" cy="33.71" r="3.27"/><circle class="cls-16" cx="61.33" cy="32.92" r="2.12"/><circle class="cls-15" cx="42.52" cy="36.16" r="5.69"/><path class="cls-15" d="M48.2,36.16a5.68,5.68,0,0,1-10.72,2.63,5.57,5.57,0,0,1-.65-2.63,5.69,5.69,0,1,1,11.37,0Z"/><circle class="cls-16" cx="42.52" cy="36.16" r="3.21"/><circle class="cls-14" cx="42.52" cy="19.19" r="1.03"/><path class="cls-10" d="M53,52.92H50.32a3.76,3.76,0,0,1-1.24.27,106,106,0,0,1-13.1,0,3.09,3.09,0,0,1-1.24-.27H32.11a3.07,3.07,0,0,0-.39,3.48c.91,1.75,2.93,2.2,4.51,2.29,2.08.13,4.23.19,6.35.19s4.26-.06,6.35-.19c2.81-.15,4-1.33,4.51-2.29A3.39,3.39,0,0,0,53,52.92Z"/><ellipse class="cls-17" cx="42.52" cy="24.82" rx="3.78" ry="0.54"/><ellipse class="cls-18" cx="42.52" cy="22.21" rx="2.48" ry="0.36"/><g class="cls-19"><circle class="cls-14" cx="62.61" cy="39.59" r="5.78" transform="translate(-10.74 49.99) rotate(-40.37)"/></g><path class="cls-14" d="M48.61,41.1a6.87,6.87,0,0,1-12.19,0,9.56,9.56,0,0,1,12.19,0Z"/><path class="cls-16" d="M39.48,44.54c-.34-.21-.77,0-.67.34a3.9,3.9,0,0,0,7.41,0c.1-.38-.33-.54-.66-.34A5.83,5.83,0,0,1,39.48,44.54Z"/><circle class="cls-15" cx="22.8" cy="33.71" r="3.27"/><circle class="cls-16" cx="23.7" cy="32.92" r="2.12"/><g class="cls-20"><circle class="cls-14" cx="22.43" cy="39.59" r="5.78" transform="translate(-22.26 31.03) rotate(-49.63)"/></g></g><path class="cls-15" d="M76.87,63.12a1.12,1.12,0,0,1-1.15,1.12h-.59v1.14h-.8V62h1.39A1.11,1.11,0,0,1,76.87,63.12Zm-.79,0a.41.41,0,0,0-.44-.43h-.51v.87h.51A.42.42,0,0,0,76.08,63.12Z"/><path class="cls-15" d="M77.61,62h.8v2.68h1.08v.7H77.61Z"/><path class="cls-15" d="M82.68,62v3.38h-.79v-1H81v1h-.79V62ZM81,63.66h.88v-1H81Z"/><path class="cls-15" d="M86.06,63.08a1,1,0,0,0-.85-.45,1.06,1.06,0,0,0,0,2.1,1,1,0,0,0,.85-.45l.52.47a1.57,1.57,0,0,1-1.37.7,1.76,1.76,0,0,1,0-3.52,1.6,1.6,0,0,1,1.39.7Z"/><path class="cls-15" d="M87.29,62h2v.69H88.09v.65h1.13V64H88.09v.67h1.24v.7h-2Z"/><path class="cls-15" d="M91.4,63.69a1.72,1.72,0,1,1,1.72,1.76A1.66,1.66,0,0,1,91.4,63.69Zm2.63,0a.92.92,0,0,0-.91-1c-.57,0-.91.42-.91,1s.34,1.05.91,1.05S94,64.32,94,63.68Z"/><path class="cls-15" d="M95.65,62h2v.69H96.44v.79h1.14v.68H96.44v1.22h-.79Z"/><path class="cls-15" d="M99.56,63.69a1.73,1.73,0,1,1,1.72,1.76A1.66,1.66,0,0,1,99.56,63.69Zm2.64,0a.93.93,0,0,0-.92-1c-.56,0-.9.42-.9,1s.34,1.05.9,1.05A.92.92,0,0,0,102.2,63.68Z"/><path class="cls-15" d="M104.81,64.11h-.21v1.27h-.79V62h2.37v2.11h-.5l.73,1.27h-.87Zm.58-1.42h-.79v.78h.79Z"/><path class="cls-15" d="M107.16,62H108v3.38h-.79Z"/><path class="cls-15" d="M110.34,63.48h1.75a1.78,1.78,0,0,1,0,.33,1.54,1.54,0,0,1-1.63,1.64,1.76,1.76,0,0,1,0-3.52,1.6,1.6,0,0,1,1.38.7l-.54.45a1,1,0,0,0-.84-.45,1.06,1.06,0,0,0,0,2.11.79.79,0,0,0,.83-.57h-1Z"/><path class="cls-15" d="M112.89,62h.8v3.38h-.8Z"/><path class="cls-15" d="M116.63,65.38l-1.21-2h0v2h-.76V62h.81l1.2,2h0V62h.76v3.38Z"/><path class="cls-15" d="M118.3,63.41a.44.44,0,0,1,.44-.44.43.43,0,0,1,.44.44.44.44,0,0,1-.44.44A.44.44,0,0,1,118.3,63.41Zm0,1.59a.44.44,0,0,1,.44-.44.43.43,0,0,1,.44.44.44.44,0,0,1-.44.44A.44.44,0,0,1,118.3,65Z"/><path class="cls-15" d="M121.5,62h.37v1.52h1.72V62H124v3.38h-.37V63.84h-1.72v1.54h-.37Z"/><path class="cls-15" d="M125.72,65.45a1.23,1.23,0,0,1,0-2.46,1.14,1.14,0,0,1,1.14,1.23.86.86,0,0,1,0,.16h-2a.82.82,0,0,0,.84.74.93.93,0,0,0,.74-.35l.21.21A1.14,1.14,0,0,1,125.72,65.45Zm-.84-1.38h1.61a.76.76,0,0,0-.78-.76A.82.82,0,0,0,124.88,64.07Z"/><path class="cls-15" d="M127,63.07h.43l.62.9h0l.63-.9h.41l-.82,1.14.83,1.17h-.42l-.64-.94h0l-.63.94H127l.84-1.17Z"/><path class="cls-15" d="M130.52,63a1,1,0,0,1,.9.49h0v-.41h.33v2.31h-.33v-.47h0a1,1,0,0,1-.9.54,1.17,1.17,0,0,1-1.21-1.23A1.18,1.18,0,0,1,130.52,63Zm.89,1.23a.87.87,0,1,0-.87.9A.86.86,0,0,0,131.41,64.22Z"/><path class="cls-15" d="M133.71,65.45a1,1,0,0,1-.89-.45h0a1.49,1.49,0,0,1,0,.24v1.17h-.36V63.07h.34v.15a1.78,1.78,0,0,1,0,.25h0a1.06,1.06,0,0,1,.93-.48,1.23,1.23,0,0,1,0,2.46Zm-.9-1.23a.87.87,0,1,0,1.73,0,.87.87,0,1,0-1.73,0Z"/><path class="cls-15" d="M135.27,64.22a1.22,1.22,0,1,1,1.22,1.23A1.2,1.2,0,0,1,135.27,64.22Zm2.08,0a.86.86,0,1,0-1.71,0,.86.86,0,1,0,1.71,0Z"/><path class="cls-15" d="M139.28,63a1,1,0,0,1,.88.44h0c0-.07,0-.13,0-.25V62h.36v3.38h-.33v-.19a1.78,1.78,0,0,1,0-.25h0a1,1,0,0,1-.92.51,1.23,1.23,0,0,1,0-2.46Zm.9,1.23a.87.87,0,1,0-.87.9A.86.86,0,0,0,140.18,64.22Z"/><path class="cls-15" d="M142.27,63a.93.93,0,0,1,.89.49h0c0-.07,0-.13,0-.25v-.16h.34v2.31h-.34v-.22c0-.1,0-.18,0-.25h0a.94.94,0,0,1-.9.54,1.16,1.16,0,0,1-1.2-1.23A1.18,1.18,0,0,1,142.27,63Zm.89,1.23a.87.87,0,1,0-.87.9A.86.86,0,0,0,143.16,64.22Z"/><path class="cls-15" d="M146.87,64.52l-1.07-1.9h0v2.76h-.37V62h.46L147,64.08h0L148.21,62h.44v3.38h-.37V62.62h0l-1.06,1.9Z"/><path class="cls-15" d="M149.35,62.4a.23.23,0,0,1,.23-.23.23.23,0,0,1,0,.46A.23.23,0,0,1,149.35,62.4Zm.05,3V63.07h.36v2.31Z"/><path class="cls-15" d="M152.37,63.07v2.31H152v-2h-1.18v2h-.36V63.07Z"/><path class="cls-15" d="M152.91,64.22a1.22,1.22,0,1,1,1.22,1.23A1.2,1.2,0,0,1,152.91,64.22Zm2.07,0a.85.85,0,1,0-1.7,0,.85.85,0,1,0,1.7,0Z"/><path class="cls-15" d="M156.92,63.07v.32h-.68v2h-.36V63.07Z"/><path class="cls-15" d="M74.64,74.42a.48.48,0,0,0,.46.32.44.44,0,0,0,.47-.48V72.69H74.33V72h2v2.19a1.17,1.17,0,0,1-1.25,1.26A1.08,1.08,0,0,1,74,74.8Z"/><path class="cls-15" d="M77.13,73.69a1.72,1.72,0,1,1,1.72,1.76A1.66,1.66,0,0,1,77.13,73.69Zm2.63,0a.92.92,0,0,0-.91-1.05c-.57,0-.91.42-.91,1.05s.34,1,.91,1S79.76,74.32,79.76,73.68Z"/><path class="cls-15" d="M82.74,75.38H81.38V72h1.3a.92.92,0,0,1,1,.91.75.75,0,0,1-.46.72.86.86,0,0,1,.53.83A1,1,0,0,1,82.74,75.38Zm-.57-2h.41a.32.32,0,0,0,.35-.34.32.32,0,0,0-.34-.34h-.42Zm.83,1a.33.33,0,0,0-.35-.34h-.48v.69h.48A.34.34,0,0,0,83,74.34Z"/><path class="cls-15" d="M86.4,72.69h-.79V72H88v.69h-.8v2.69H86.4Z"/><path class="cls-15" d="M88.71,72h.8v3.38h-.8Z"/><path class="cls-15" d="M91,72.69h-.78V72h2.37v.69h-.79v2.69H91Z"/><path class="cls-15" d="M93.34,72h.79v2.68h1.08v.7H93.34Z"/><path class="cls-15" d="M97,75.45c-.78,0-1.25-.42-1.25-1a.83.83,0,0,1,.59-.85.79.79,0,0,1-.49-.77c0-.55.45-.9,1.17-.9a1.34,1.34,0,0,1,1,.38l-.41.54a.76.76,0,0,0-.58-.22c-.31,0-.43.13-.43.32s.19.37.56.37h.45V74h-.52c-.34,0-.54.14-.54.37s.17.39.49.39a.78.78,0,0,0,.58-.21l.39.52A1.19,1.19,0,0,1,97,75.45Z"/><path class="cls-15" d="M98.68,73.41a.44.44,0,0,1,.44-.44.43.43,0,0,1,.44.44.44.44,0,0,1-.44.44A.44.44,0,0,1,98.68,73.41Zm0,1.59a.44.44,0,0,1,.44-.44.43.43,0,0,1,.44.44.44.44,0,0,1-.44.44A.44.44,0,0,1,98.68,75Z"/><path class="cls-15" d="M101.88,72h1.9v.32h-1.53V73.5h1.44v.33h-1.44v1.22h1.55v.33h-1.92Z"/><path class="cls-15" d="M104.1,73.07h.43l.62.9h0l.63-.9h.42l-.83,1.14.83,1.17h-.42l-.64-.94h0l-.63.94h-.42l.84-1.17Z"/><path class="cls-15" d="M107.61,75.45a1.23,1.23,0,0,1,0-2.46,1.14,1.14,0,0,1,1.14,1.23.86.86,0,0,1,0,.16h-2a.84.84,0,0,0,.85.74.91.91,0,0,0,.73-.35l.22.21A1.14,1.14,0,0,1,107.61,75.45Zm-.85-1.38h1.62a.77.77,0,0,0-.78-.76A.83.83,0,0,0,106.76,74.07Z"/><path class="cls-15" d="M111,73.69a.88.88,0,1,0-.72,1.43.87.87,0,0,0,.74-.4l.22.21a1.11,1.11,0,0,1-1,.52,1.23,1.23,0,0,1,0-2.46,1.15,1.15,0,0,1,1,.48Z"/><path class="cls-15" d="M111.73,75.38V73.07h.36v2h1.15v-2h.36v2.31Z"/><path class="cls-15" d="M114.4,73.38h-.27v-.31h.27v-.62h.36v.62h.71v.31h-.71v1.68h.64v.32h-1Z"/><path class="cls-15" d="M115.86,72.4a.23.23,0,0,1,.23-.23.23.23,0,0,1,0,.46A.23.23,0,0,1,115.86,72.4Zm0,3V73.07h.36v2.31Z"/><path class="cls-15" d="M117.58,75.38l-.87-2.31h.4l.7,2h0l.7-2h.39l-.87,2.31Z"/><path class="cls-15" d="M120.34,75.45a1.23,1.23,0,0,1,0-2.46,1.15,1.15,0,0,1,1.14,1.23s0,.12,0,.16h-2a.82.82,0,0,0,.85.74.91.91,0,0,0,.73-.35l.21.21A1.11,1.11,0,0,1,120.34,75.45Zm-.84-1.38h1.62a.77.77,0,0,0-.79-.76A.83.83,0,0,0,119.5,74.07Z"/><path class="cls-15" d="M123.19,75.38V72h1.1a1.69,1.69,0,1,1,0,3.38Zm2.45-1.7a1.26,1.26,0,0,0-1.35-1.36h-.73v2.73h.73A1.27,1.27,0,0,0,125.64,73.68Z"/><path class="cls-15" d="M126.51,72.4a.22.22,0,0,1,.22-.23.23.23,0,0,1,0,.46A.22.22,0,0,1,126.51,72.4Zm0,3V73.07h.37v2.31Z"/><path class="cls-15" d="M128.67,73.07v.32H128v2h-.36V73.07Z"/><path class="cls-15" d="M130.07,75.45a1.23,1.23,0,0,1,0-2.46,1.14,1.14,0,0,1,1.14,1.23.86.86,0,0,1,0,.16h-2a.84.84,0,0,0,.85.74.91.91,0,0,0,.73-.35L131,75A1.14,1.14,0,0,1,130.07,75.45Zm-.85-1.38h1.62a.77.77,0,0,0-.78-.76A.83.83,0,0,0,129.22,74.07Z"/><path class="cls-15" d="M133.49,73.69a.88.88,0,1,0-.72,1.43.89.89,0,0,0,.74-.4l.22.21a1.11,1.11,0,0,1-1,.52,1.19,1.19,0,0,1-1.23-1.23A1.2,1.2,0,0,1,132.77,73a1.12,1.12,0,0,1,.94.48Z"/><path class="cls-15" d="M134.27,73.38H134v-.31h.26v-.62h.36v.62h.71v.31h-.71v1.68h.65v.32h-1Z"/><path class="cls-15" d="M135.58,74.22a1.22,1.22,0,1,1,1.22,1.23A1.2,1.2,0,0,1,135.58,74.22Zm2.07,0a.85.85,0,1,0-1.7,0,.85.85,0,1,0,1.7,0Z"/><path class="cls-15" d="M139.59,73.07v.32h-.68v2h-.36V73.07Z"/><path class="cls-15" d="M140,75.63l-.19.43-.16,0,.17-.44.06-.15a.22.22,0,0,1-.2-.23.22.22,0,0,1,.22-.23.21.21,0,0,1,.23.23A1.06,1.06,0,0,1,140,75.63Z"/><path class="cls-15" d="M74.22,79.69a1.72,1.72,0,1,1,1.72,1.76A1.69,1.69,0,0,1,74.22,79.69Zm3,0a1.34,1.34,0,1,0-1.33,1.42A1.34,1.34,0,0,0,77.27,79.69Z"/><path class="cls-15" d="M79.42,81.45a.94.94,0,0,1-.88-.45h0a1.25,1.25,0,0,1,0,.24v1.17h-.36V79.07h.33v.15a1.78,1.78,0,0,1,0,.25h0a1.08,1.08,0,0,1,.93-.48,1.23,1.23,0,0,1,0,2.46Zm-.9-1.23a.87.87,0,1,0,.87-.91A.86.86,0,0,0,78.52,80.22Z"/><path class="cls-15" d="M82.2,81.45a1.23,1.23,0,0,1,0-2.46,1.14,1.14,0,0,1,1.14,1.23s0,.12,0,.16h-2a.83.83,0,0,0,.85.74.91.91,0,0,0,.73-.35l.21.21A1.11,1.11,0,0,1,82.2,81.45Zm-.84-1.38H83a.77.77,0,0,0-.78-.76A.83.83,0,0,0,81.36,80.07Z"/><path class="cls-15" d="M84.89,79.07v.32h-.67v2h-.37V79.07Z"/><path class="cls-15" d="M86.29,79a.93.93,0,0,1,.89.49h0c0-.07,0-.13,0-.25v-.16h.34v2.31h-.34v-.22c0-.1,0-.18,0-.25h0a.94.94,0,0,1-.9.54,1.16,1.16,0,0,1-1.2-1.23A1.18,1.18,0,0,1,86.29,79Zm.88,1.23a.87.87,0,1,0-.87.9A.86.86,0,0,0,87.17,80.22Z"/><path class="cls-15" d="M88.31,79.38H88v-.31h.27v-.62h.36v.62h.71v.31h-.71v1.68h.64v.32h-1Z"/><path class="cls-15" d="M89.77,78.4a.23.23,0,1,1,.23.23A.23.23,0,0,1,89.77,78.4Zm0,3V79.07h.36v2.31Z"/><path class="cls-15" d="M90.72,80.22a1.22,1.22,0,1,1,1.22,1.23A1.2,1.2,0,0,1,90.72,80.22Zm2.08,0a.86.86,0,1,0-1.71,0,.86.86,0,1,0,1.71,0Z"/><path class="cls-15" d="M95.6,79.07v2.31h-.36v-2H94.06v2H93.7V79.07Z"/><path class="cls-15" d="M96.88,80l.31.14a.68.68,0,0,1-.29,1.32.78.78,0,0,1-.81-.61l.28-.15a.55.55,0,0,0,.55.44c.24,0,.41-.12.41-.34s-.11-.27-.35-.38l-.29-.13a.71.71,0,0,1-.5-.66.66.66,0,0,1,.72-.63.79.79,0,0,1,.78.53l-.27.14a.52.52,0,0,0-.5-.36c-.23,0-.38.13-.38.32S96.65,79.88,96.88,80Z"/><path class="cls-15" d="M74.33,91.38V88h1.18a1.69,1.69,0,1,1,0,3.38Zm2.1-1.7a.88.88,0,0,0-.92-1h-.38v2h.38A.89.89,0,0,0,76.43,89.68Z"/><path class="cls-15" d="M79,90.11H78.8v1.27H78V88h1.34a1.09,1.09,0,0,1,1.15,1.07,1,1,0,0,1-.7,1l.78,1.35h-.9Zm.73-1a.41.41,0,0,0-.44-.4H78.8v.8h.47A.41.41,0,0,0,79.71,89.09Z"/><path class="cls-15" d="M81.29,88h2v.69H82.09v.65h1.13V90H82.09v.67h1.24v.7h-2Z"/><path class="cls-15" d="M86.55,91.38h-.78V90.5H84.9v.88h-.78V89.12a1.22,1.22,0,0,1,2.43,0ZM84.9,89.82h.87v-.64c0-.39-.19-.54-.43-.54s-.44.15-.44.54Z"/><path class="cls-15" d="M88.81,90.67l-.59-1.3h0v2h-.76V88h1l.72,1.66h0L89.91,88h.92v3.38h-.75v-2h0l-.6,1.3Z"/><path class="cls-15" d="M93.37,90.42a.48.48,0,0,0,.46.32.44.44,0,0,0,.47-.48V88.69H93.06V88h2v2.19a1.17,1.17,0,0,1-1.25,1.26,1.08,1.08,0,0,1-1.06-.65Z"/><path class="cls-15" d="M95.81,89.69a1.73,1.73,0,1,1,1.72,1.76A1.66,1.66,0,0,1,95.81,89.69Zm2.64,0a.92.92,0,1,0-1.83,0c0,.64.35,1,.91,1A.92.92,0,0,0,98.45,89.68Z"/><path class="cls-15" d="M100,88h1.31c.62,0,1,.33,1,.85a.67.67,0,0,1-.37.65v0a1.19,1.19,0,0,1,.28,0h.13v1.88H100Zm1.62,2.69V90h-.83v.72Zm-.41-1.33a.32.32,0,0,0,.35-.34.32.32,0,0,0-.34-.34h-.42v.68Z"/><path class="cls-15" d="M105,88.69h-.79V88h2.37v.69h-.79v2.69H105Z"/><path class="cls-15" d="M107.28,88h.79v3.38h-.79Z"/><path class="cls-15" d="M109.54,88.69h-.79V88h2.38v.69h-.8v2.69h-.79Z"/><path class="cls-15" d="M111.81,88h.79v2.68h1.09v.7h-1.88Z"/><path class="cls-15" d="M114.37,88h2v.69h-1.22v.65h1.13V90h-1.13v.67h1.24v.7h-2Z"/><path class="cls-15" d="M117.13,89.41a.45.45,0,0,1,.89,0,.45.45,0,0,1-.89,0Zm0,1.59a.45.45,0,0,1,.89,0,.45.45,0,0,1-.89,0Z"/><path class="cls-15" d="M121.74,90.52l-1.07-1.9h0v2.76h-.37V88h.47l1.16,2.08h0L123.08,88h.44v3.38h-.36V88.62h0l-1.07,1.9Z"/><path class="cls-15" d="M124.06,90.22a1.22,1.22,0,1,1,1.22,1.23A1.2,1.2,0,0,1,124.06,90.22Zm2.07,0a.85.85,0,1,0-1.7,0,.85.85,0,1,0,1.7,0Z"/><path class="cls-15" d="M127,91.38V89.07h.36v2h1.16v-2h.36v2.31Z"/><path class="cls-15" d="M131.52,89.07v2.31h-.36v-2H130v2h-.36V89.07Z"/><path class="cls-15" d="M132.31,89.38H132v-.31h.27v-.62h.36v.62h.71v.31h-.71v1.68h.64v.32h-1Z"/><path class="cls-15" d="M134.83,89a1,1,0,0,1,.89.49h0a1.7,1.7,0,0,1,0-.25v-.16h.34v2.31h-.34v-.22a1.85,1.85,0,0,1,0-.25h0a1,1,0,0,1-.9.54,1.16,1.16,0,0,1-1.2-1.23A1.18,1.18,0,0,1,134.83,89Zm.88,1.23a.87.87,0,1,0-.87.9A.86.86,0,0,0,135.71,90.22Z"/><path class="cls-15" d="M136.72,88.4a.23.23,0,0,1,.23-.23.23.23,0,1,1,0,.46A.23.23,0,0,1,136.72,88.4Zm.05,3V89.07h.36v2.31Z"/><path class="cls-15" d="M139.74,89.07v2.31h-.36v-2H138.2v2h-.36V89.07Z"/><path class="cls-15" d="M144.28,88.82a1.34,1.34,0,0,0-1.1-.56,1.43,1.43,0,0,0,0,2.85,1.32,1.32,0,0,0,1.09-.56l.25.22a1.58,1.58,0,0,1-1.34.68,1.76,1.76,0,0,1,0-3.52,1.63,1.63,0,0,1,1.36.68Z"/><path class="cls-15" d="M145,88h.36v3.06H146v.32h-1Z"/><path class="cls-15" d="M146.36,88.4a.23.23,0,1,1,.23.23A.23.23,0,0,1,146.36,88.4Zm0,3V89.07h.36v2.31Z"/><path class="cls-15" d="M150.63,91.38h-.36V89.84a.51.51,0,0,0-.53-.53.5.5,0,0,0-.52.53v1.54h-.36V89.84a.5.5,0,0,0-.52-.53.51.51,0,0,0-.53.53v1.54h-.36V89.84a.84.84,0,0,1,.89-.85.83.83,0,0,0,1.41,0,.83.83,0,0,1,.88.85Z"/><path class="cls-15" d="M152.56,91.45a1,1,0,0,1-.91-.48h0a1.69,1.69,0,0,1,0,.25v.16h-.34V88h.36v1.2a1.63,1.63,0,0,1,0,.25h0a1,1,0,0,1,.89-.46,1.23,1.23,0,0,1,0,2.46Zm.83-1.23a.87.87,0,1,0-1.73,0,.87.87,0,1,0,1.73,0Z"/><path class="cls-15" d="M155.34,91.45a1.23,1.23,0,0,1,0-2.46,1.14,1.14,0,0,1,1.14,1.23.86.86,0,0,1,0,.16h-2a.82.82,0,0,0,.84.74.93.93,0,0,0,.74-.35l.21.21A1.14,1.14,0,0,1,155.34,91.45Zm-.84-1.38h1.61a.77.77,0,0,0-.78-.76A.81.81,0,0,0,154.5,90.07Z"/><path class="cls-15" d="M158,89.07v.32h-.67v2H157V89.07Z"/><path class="cls-15" d="M75.29,103.43h-1.2V103H77v.41H75.76v3.85h-.47Z"/><path class="cls-15" d="M78.28,104.36v.41h-.85v2.51H77v-2.92Z"/><path class="cls-15" d="M78.75,103.52a.28.28,0,0,1,.29-.28.28.28,0,0,1,.29.28.29.29,0,0,1-.29.3A.29.29,0,0,1,78.75,103.52Zm.06,3.76v-2.92h.46v2.92Z"/><path class="cls-15" d="M80.9,105.54l.38.17a.88.88,0,0,1,.64.83c0,.49-.39.84-1,.84a1,1,0,0,1-1-.77l.35-.19a.71.71,0,0,0,.7.56c.3,0,.51-.16.51-.44s-.14-.34-.44-.48l-.36-.16c-.38-.18-.64-.39-.64-.83a.84.84,0,0,1,.91-.8,1,1,0,0,1,1,.66l-.34.19a.67.67,0,0,0-.64-.46.42.42,0,0,0-.47.4C80.47,105.28,80.6,105.4,80.9,105.54Z"/><path class="cls-15" d="M83.92,104.27a1.17,1.17,0,0,1,1.12.62h0a2.41,2.41,0,0,1,0-.31v-.22h.43v2.92H85V107a2.73,2.73,0,0,1,0-.32h0a1.18,1.18,0,0,1-1.13.68,1.56,1.56,0,0,1,0-3.11ZM85,105.82a1.09,1.09,0,1,0-1.1,1.15A1.08,1.08,0,0,0,85,105.82Z"/><path class="cls-15" d="M87.94,107.38a1.21,1.21,0,0,1-1.12-.57h0a1.19,1.19,0,0,1,0,.3v1.48h-.45v-4.23h.42v.2a2.63,2.63,0,0,1,0,.31h0a1.35,1.35,0,0,1,1.17-.6,1.56,1.56,0,0,1,0,3.11Zm-1.14-1.56a1.1,1.1,0,1,0,1.1-1.14A1.1,1.1,0,0,0,86.8,105.82Z"/><path class="cls-15" d="M90.13,107.28V103h.46v1.34h2v2.92h-.46v-2.52H90.59v2.52Z"/><path class="cls-15" d="M94.74,104.36v.41h-.85v2.51h-.46v-2.92Z"/><path class="cls-15" d="M95,105.82a1.54,1.54,0,1,1,1.54,1.56A1.51,1.51,0,0,1,95,105.82Zm2.62,0A1.08,1.08,0,1,0,96.51,107,1.07,1.07,0,0,0,97.59,105.82Z"/><path class="cls-15" d="M101.13,104.36v2.92h-.46v-2.52H99.18v2.52h-.45v-2.92Z"/><path class="cls-15" d="M104.81,107.38a1.56,1.56,0,0,1,0-3.11,1.44,1.44,0,0,1,1.44,1.55,1.21,1.21,0,0,1,0,.2h-2.48a1,1,0,0,0,1.07,1,1.13,1.13,0,0,0,.92-.45l.27.27A1.44,1.44,0,0,1,104.81,107.38Zm-1.06-1.75h2a1,1,0,0,0-1-.95A1,1,0,0,0,103.75,105.63Z"/><path class="cls-15" d="M108.21,104.27a1.19,1.19,0,0,1,1.13.62h0a2.73,2.73,0,0,1,0-.31v-.22h.42v2.92h-.42V107a3,3,0,0,1,0-.32h0a1.2,1.2,0,0,1-1.14.68,1.56,1.56,0,0,1,0-3.11Zm1.11,1.55a1.07,1.07,0,0,0-1.09-1.14,1.15,1.15,0,1,0,1.09,1.14Z"/><path class="cls-15" d="M112,104.36v.41h-.86v2.51h-.45v-2.92Z"/><path class="cls-15" d="M114.9,104.36v2.92h-.46v-2.52H113v2.52h-.46v-2.92Z"/><path class="cls-15" d="M117.11,107.38a1.56,1.56,0,0,1,0-3.11,1.45,1.45,0,0,1,1.44,1.55,1.12,1.12,0,0,1,0,.2h-2.48a1,1,0,0,0,1.07,1,1.17,1.17,0,0,0,.93-.45l.26.27A1.44,1.44,0,0,1,117.11,107.38Zm-1.06-1.75h2a1,1,0,0,0-1-.95A1,1,0,0,0,116.05,105.63Z"/><path class="cls-15" d="M120.5,104.27a1.29,1.29,0,0,1,1.12.55h0c0-.08,0-.16,0-.31V103h.45v4.26h-.42v-.23a2.58,2.58,0,0,1,0-.32h0a1.22,1.22,0,0,1-1.16.65,1.56,1.56,0,0,1,0-3.11Zm1.14,1.55a1.1,1.1,0,1,0-1.09,1.14A1.08,1.08,0,0,0,121.64,105.82Z"/><path class="cls-15" d="M125.75,104.27a1.19,1.19,0,0,1,1.13.62h0c0-.09,0-.17,0-.31v-.22h.43v2.92h-.43V107c0-.13,0-.23,0-.32h0a1.18,1.18,0,0,1-1.14.68,1.47,1.47,0,0,1-1.52-1.56A1.49,1.49,0,0,1,125.75,104.27Zm1.12,1.55a1.1,1.1,0,1,0-2.19,0,1.1,1.1,0,1,0,2.19,0Z"/><path class="cls-15" d="M133.64,107.28h-.45v-1.93a.65.65,0,0,0-.67-.67.63.63,0,0,0-.65.67v1.93h-.46v-1.93a.64.64,0,0,0-.66-.67.65.65,0,0,0-.67.67v1.93h-.45v-1.93a1.06,1.06,0,0,1,1.11-1.08,1,1,0,0,1,.9.49,1,1,0,0,1,.9-.49,1,1,0,0,1,1.1,1.08Z"/><path class="cls-15" d="M135.81,104.27a1.18,1.18,0,0,1,1.13.62h0c0-.09,0-.17,0-.31v-.22h.43v2.92h-.43V107c0-.13,0-.23,0-.32h0a1.18,1.18,0,0,1-1.14.68,1.56,1.56,0,0,1,0-3.11Zm1.12,1.55a1.09,1.09,0,1,0-1.1,1.15A1.08,1.08,0,0,0,136.93,105.82Z"/><path class="cls-15" d="M139,105.54l.39.17a.89.89,0,0,1,.63.83c0,.49-.39.84-1,.84a1,1,0,0,1-1-.77l.36-.19a.7.7,0,0,0,.69.56c.31,0,.52-.16.52-.44s-.15-.34-.45-.48l-.36-.16c-.37-.18-.63-.39-.63-.83a.84.84,0,0,1,.91-.8,1,1,0,0,1,1,.66l-.34.19a.65.65,0,0,0-.63-.46.43.43,0,0,0-.48.4C138.56,105.28,138.7,105.4,139,105.54Z"/><path class="cls-15" d="M140.8,104.76h-.34v-.4h.34v-.77h.45v.77h.9v.4h-.9v2.12h.82v.4H140.8Z"/><path class="cls-15" d="M144,107.38a1.56,1.56,0,0,1,0-3.11,1.44,1.44,0,0,1,1.44,1.55,1.21,1.21,0,0,1,0,.2h-2.48a1,1,0,0,0,1.07,1,1.13,1.13,0,0,0,.92-.45l.27.27A1.44,1.44,0,0,1,144,107.38Zm-1.06-1.75h2a1,1,0,0,0-1-.95A1,1,0,0,0,142.93,105.63Z"/><path class="cls-15" d="M147.38,104.36v.41h-.85v2.51h-.46v-2.92Z"/><path class="cls-15" d="M148.62,105.54l.38.17a.88.88,0,0,1,.64.83c0,.49-.39.84-1,.84a1,1,0,0,1-1-.77l.36-.19a.71.71,0,0,0,.7.56c.3,0,.51-.16.51-.44s-.14-.34-.44-.48l-.36-.16c-.38-.18-.64-.39-.64-.83a.84.84,0,0,1,.91-.8,1,1,0,0,1,1,.66l-.35.19a.65.65,0,0,0-.63-.46.43.43,0,0,0-.48.4C148.18,105.28,148.32,105.4,148.62,105.54Z"/><path class="cls-15" d="M75.78,112.18a1.26,1.26,0,0,1,1.11.55h0a2.55,2.55,0,0,1,0-.31v-1.49h.45v4.26h-.42V115a2.92,2.92,0,0,1,0-.32h0a1.23,1.23,0,0,1-1.16.65,1.56,1.56,0,0,1,0-3.11Zm1.13,1.55a1.07,1.07,0,0,0-1.09-1.14,1.14,1.14,0,0,0,0,2.28A1.07,1.07,0,0,0,76.91,113.73Z"/><path class="cls-15" d="M79.57,115.29a1.56,1.56,0,0,1,0-3.11A1.44,1.44,0,0,1,81,113.73a1.21,1.21,0,0,1,0,.2H78.5a1.06,1.06,0,0,0,1.07.95,1.15,1.15,0,0,0,.93-.45l.27.27A1.46,1.46,0,0,1,79.57,115.29Zm-1.07-1.75h2a1,1,0,0,0-1-1A1,1,0,0,0,78.5,113.54Z"/><path class="cls-15" d="M82.89,112.18a1.2,1.2,0,0,1,1.15.62h0a2.82,2.82,0,0,1,0-.31v-.22h.42v4.23H82.28v-.4H84v-1.21a2.54,2.54,0,0,1,0-.31h0a1.13,1.13,0,0,1-1.1.62,1.51,1.51,0,0,1,0-3Zm-1,1.51a1.07,1.07,0,1,0,1.07-1.1A1.05,1.05,0,0,0,81.9,113.69Z"/><path class="cls-15" d="M86.67,112.27v.41h-.85v2.51h-.45v-2.92Z"/><path class="cls-15" d="M88.44,115.29a1.56,1.56,0,0,1,0-3.11,1.45,1.45,0,0,1,1.44,1.55c0,.06,0,.16,0,.2H87.38a1,1,0,0,0,1.07.95,1.17,1.17,0,0,0,.93-.45l.26.27A1.44,1.44,0,0,1,88.44,115.29Zm-1.06-1.75h2a1,1,0,0,0-1-1A1,1,0,0,0,87.38,113.54Z"/><path class="cls-15" d="M91.85,115.29a1.56,1.56,0,0,1,0-3.11,1.44,1.44,0,0,1,1.44,1.55,1.21,1.21,0,0,1,0,.2H90.78a1.06,1.06,0,0,0,1.07.95,1.15,1.15,0,0,0,.93-.45l.27.27A1.46,1.46,0,0,1,91.85,115.29Zm-1.07-1.75h2a1,1,0,0,0-1-1A1,1,0,0,0,90.78,113.54Z"/><path class="cls-15" d="M95.34,111.43a.28.28,0,0,1,.29-.28.28.28,0,0,1,.29.28.29.29,0,0,1-.29.3A.29.29,0,0,1,95.34,111.43Zm.06,3.76v-2.92h.45v2.92Z"/><path class="cls-15" d="M99.16,112.27v2.92H98.7v-2.52H97.21v2.52h-.45v-2.92Z"/><path class="cls-15" d="M103.1,115.29a1.21,1.21,0,0,1-1.12-.57h0a2,2,0,0,1,0,.3v1.48h-.46v-4.23H102v.2a2.28,2.28,0,0,1,0,.31h0a1.32,1.32,0,0,1,1.17-.6,1.56,1.56,0,0,1,0,3.11ZM102,113.73a1.1,1.1,0,1,0,1.1-1.14A1.09,1.09,0,0,0,102,113.73Z"/><path class="cls-15" d="M106.6,112.27v.41h-.85v2.51h-.46v-2.92Z"/><path class="cls-15" d="M108.37,112.18a1.2,1.2,0,0,1,1.13.62h0a2.73,2.73,0,0,1,0-.31v-.22h.42v2.92h-.42v-.26a3,3,0,0,1,0-.32h0a1.2,1.2,0,0,1-1.14.68,1.56,1.56,0,0,1,0-3.11Zm1.11,1.55a1.07,1.07,0,0,0-1.09-1.14,1.15,1.15,0,1,0,1.09,1.14Z"/><path class="cls-15" d="M113.06,113.07a1.06,1.06,0,0,0-.91-.48,1.15,1.15,0,1,0,.93,1.77l.28.28a1.42,1.42,0,0,1-1.21.65,1.56,1.56,0,0,1,0-3.11,1.45,1.45,0,0,1,1.19.6Z"/><path class="cls-15" d="M114.05,112.67h-.34v-.4h.34v-.77h.45v.77h.9v.4h-.9v2.12h.82v.4h-1.27Z"/><path class="cls-15" d="M115.89,111.43a.29.29,0,0,1,.58,0,.29.29,0,1,1-.58,0Zm.07,3.76v-2.92h.45v2.92Z"/><path class="cls-15" d="M119.56,113.07a1.09,1.09,0,0,0-2,.66,1.09,1.09,0,0,0,2,.63l.28.28a1.43,1.43,0,0,1-1.21.65,1.56,1.56,0,1,1,0-3.11,1.45,1.45,0,0,1,1.19.6Z"/><path class="cls-15" d="M121.73,112.18a1.19,1.19,0,0,1,1.13.62h0c0-.09,0-.17,0-.31v-.22h.43v2.92h-.43v-.26c0-.13,0-.23,0-.32h0a1.18,1.18,0,0,1-1.14.68,1.47,1.47,0,0,1-1.52-1.56A1.49,1.49,0,0,1,121.73,112.18Zm1.12,1.55a1.1,1.1,0,1,0-2.19,0,1.1,1.1,0,1,0,2.19,0Z"/><path class="cls-15" d="M124.18,110.93h.46v3.86h.84v.4h-1.3Z"/><path class="cls-15" d="M127.06,113.73a1.55,1.55,0,1,1,1.55,1.56A1.51,1.51,0,0,1,127.06,113.73Zm2.63,0a1.08,1.08,0,1,0-1.08,1.15A1.08,1.08,0,0,0,129.69,113.73Z"/><path class="cls-15" d="M132.4,115.29a1.2,1.2,0,0,1-1.12-.57h0a2,2,0,0,1,0,.3v1.48h-.46v-4.23h.43v.2a2.28,2.28,0,0,1,0,.31h0a1.32,1.32,0,0,1,1.17-.6,1.56,1.56,0,0,1,0,3.11Zm-1.14-1.56a1.1,1.1,0,1,0,1.1-1.14A1.09,1.09,0,0,0,131.26,113.73Z"/><path class="cls-15" d="M135.91,115.29a1.56,1.56,0,0,1,0-3.11,1.45,1.45,0,0,1,1.44,1.55,1.12,1.12,0,0,1,0,.2h-2.48a1,1,0,0,0,1.07.95,1.13,1.13,0,0,0,.92-.45l.27.27A1.44,1.44,0,0,1,135.91,115.29Zm-1.06-1.75h2a1,1,0,0,0-1-1A1,1,0,0,0,134.85,113.54Z"/><path class="cls-15" d="M139.31,112.27v.41h-.86v2.51H138v-2.92Z"/><path class="cls-15" d="M141.07,112.18a1.19,1.19,0,0,1,1.13.62h0c0-.09,0-.17,0-.31v-.22h.43v2.92h-.43v-.26c0-.13,0-.23,0-.32h0a1.18,1.18,0,0,1-1.14.68,1.47,1.47,0,0,1-1.52-1.56A1.49,1.49,0,0,1,141.07,112.18Zm1.12,1.55a1.1,1.1,0,1,0-2.19,0,1.1,1.1,0,1,0,2.19,0Z"/><path class="cls-15" d="M143.62,112.67h-.33v-.4h.33v-.77h.46v.77h.9v.4h-.9v2.12h.81v.4h-1.27Z"/><path class="cls-15" d="M145.47,111.43a.29.29,0,0,1,.58,0,.29.29,0,1,1-.58,0Zm.06,3.76v-2.92H146v2.92Z"/><path class="cls-15" d="M146.67,113.73a1.55,1.55,0,1,1,1.54,1.56A1.51,1.51,0,0,1,146.67,113.73Zm2.62,0a1.08,1.08,0,1,0-1.08,1.15A1.07,1.07,0,0,0,149.29,113.73Z"/><path class="cls-15" d="M152.83,112.27v2.92h-.45v-2.52h-1.5v2.52h-.45v-2.92Z"/><path class="cls-15" d="M154.46,113.45l.38.17a.87.87,0,0,1,.63.83c0,.49-.38.84-1,.84a1,1,0,0,1-1-.77l.36-.19a.71.71,0,0,0,.7.56c.3,0,.51-.16.51-.44s-.14-.34-.45-.48l-.35-.16c-.38-.18-.64-.39-.64-.83a.84.84,0,0,1,.91-.8,1,1,0,0,1,1,.66l-.34.19a.65.65,0,0,0-.63-.46.43.43,0,0,0-.48.4C154,113.19,154.16,113.31,154.46,113.45Z"/><path class="cls-15" d="M74.24,120.18h.34v-1.34h1.3v.39H75v1h.81v.4H75v2.52h-.46v-2.52h-.34Z"/><path class="cls-15" d="M77.66,120.18v.41H76.8v2.51h-.45v-2.92Z"/><path class="cls-15" d="M77.88,121.64a1.55,1.55,0,1,1,1.55,1.55A1.51,1.51,0,0,1,77.88,121.64Zm2.63,0a1.08,1.08,0,1,0-1.08,1.15A1.08,1.08,0,0,0,80.51,121.64Z"/><path class="cls-15" d="M85.61,123.1h-.45v-1.93a.66.66,0,1,0-1.32,0v1.93h-.46v-1.93a.66.66,0,1,0-1.32,0v1.93H81.6v-1.93a1.07,1.07,0,0,1,1.12-1.08,1,1,0,0,1,.9.49,1,1,0,0,1,.89-.49,1,1,0,0,1,1.1,1.08Z"/><path class="cls-15" d="M87.74,121a2.17,2.17,0,1,1,2.17,2.22A2.14,2.14,0,0,1,87.74,121Zm3.86,0a1.69,1.69,0,1,0-1.69,1.8A1.69,1.69,0,0,0,91.6,121Z"/><path class="cls-15" d="M96.71,123.1h-.46v-1.93a.66.66,0,1,0-1.32,0v1.93h-.46v-1.93a.66.66,0,1,0-1.32,0v1.93h-.46v-1.93a1.07,1.07,0,0,1,1.12-1.08,1,1,0,0,1,.9.49,1,1,0,0,1,.89-.49,1,1,0,0,1,1.11,1.08Z"/><path class="cls-15" d="M98.89,123.19a1.55,1.55,0,0,1,0-3.1,1.45,1.45,0,0,1,1.44,1.55c0,.06,0,.16,0,.2H97.82a1.06,1.06,0,0,0,1.07,1,1.17,1.17,0,0,0,.93-.45l.27.27A1.45,1.45,0,0,1,98.89,123.19Zm-1.07-1.74h2a1,1,0,0,0-1-1A1,1,0,0,0,97.82,121.45Z"/><path class="cls-15" d="M102.28,120.18v.41h-.85v2.51H101v-2.92Z"/><path class="cls-15" d="M104.05,120.09a1.17,1.17,0,0,1,1.12.62h0a2.45,2.45,0,0,1,0-.32v-.21h.43v2.92h-.43v-.26a2.73,2.73,0,0,1,0-.32h0a1.16,1.16,0,0,1-1.13.67,1.46,1.46,0,0,1-1.52-1.55A1.48,1.48,0,0,1,104.05,120.09Zm1.11,1.55a1.09,1.09,0,1,0-1.1,1.15A1.08,1.08,0,0,0,105.16,121.64Z"/><path class="cls-15" d="M108.9,120.18v2.92h-.46v-2.52H107v2.52h-.45v-2.92Z"/><path class="cls-15" d="M109.73,119.34a.29.29,0,0,1,.58,0,.29.29,0,1,1-.58,0Zm.06,3.76v-2.92h.46v2.92Z"/><path class="cls-15" d="M112.47,120.09a1.17,1.17,0,0,1,1.12.62h0a2.45,2.45,0,0,1,0-.32v-.21H114v2.92h-.43v-.26a2.73,2.73,0,0,1,0-.32h0a1.16,1.16,0,0,1-1.13.67,1.46,1.46,0,0,1-1.52-1.55A1.48,1.48,0,0,1,112.47,120.09Zm1.11,1.55a1.09,1.09,0,1,0-1.1,1.15A1.08,1.08,0,0,0,113.58,121.64Z"/><path class="cls-15" d="M119.49,121.65a1.55,1.55,0,0,1-3.1,0v-2.81h.47v2.85a1.08,1.08,0,0,0,2.16,0v-2.85h.47Z"/><path class="cls-15" d="M122.75,120.18v2.92h-.46v-2.52H120.8v2.52h-.46v-2.92Z"/><path class="cls-15" d="M123.58,119.34a.29.29,0,0,1,.58,0,.29.29,0,1,1-.58,0Zm.06,3.76v-2.92h.46v2.92Z"/><path class="cls-15" d="M125.76,123.1l-1.11-2.92h.51l.88,2.52h0l.88-2.52h.5l-1.1,2.92Z"/><path class="cls-15" d="M129.24,123.19a1.55,1.55,0,0,1,0-3.1,1.45,1.45,0,0,1,1.44,1.55c0,.06,0,.16,0,.2h-2.49a1,1,0,0,0,1.07,1,1.17,1.17,0,0,0,.93-.45l.26.27A1.43,1.43,0,0,1,129.24,123.19Zm-1.06-1.74h2a1,1,0,0,0-1-1A1,1,0,0,0,128.18,121.45Z"/><path class="cls-15" d="M132.64,120.18v.41h-.86v2.51h-.45v-2.92Z"/><path class="cls-15" d="M133.87,121.36l.39.17a.89.89,0,0,1,.63.83c0,.49-.39.83-1,.83a1,1,0,0,1-1-.76l.36-.19a.7.7,0,0,0,.69.56c.3,0,.51-.16.51-.44s-.14-.34-.44-.48l-.36-.16c-.37-.18-.64-.39-.64-.83a.84.84,0,0,1,.92-.8,1,1,0,0,1,1,.66l-.34.19a.65.65,0,0,0-.63-.46.43.43,0,0,0-.48.4C133.44,121.1,133.58,121.22,133.87,121.36Z"/><path class="cls-15" d="M135.51,119.34a.29.29,0,0,1,.58,0,.29.29,0,1,1-.58,0Zm.07,3.76v-2.92H136v2.92Z"/><path class="cls-15" d="M137,120.58h-.34v-.4H137v-.78h.45v.78h.9v.4h-.9v2.12h.82v.4H137Z"/><path class="cls-15" d="M139.19,124h1.66v-1a2.44,2.44,0,0,1,0-.29h0c-.06.17-.31.42-.84.42a1.09,1.09,0,0,1-1.1-1.16v-1.81h.46V122a.71.71,0,0,0,.74.76.72.72,0,0,0,.75-.76v-1.8h.45v4.23h-2.11Z"/><path class="cls-15" d="M145,120.09a1.19,1.19,0,0,1,1.13.62h0a2.82,2.82,0,0,1,0-.32v-.21h.42v2.92h-.42v-.26a3,3,0,0,1,0-.32h0a1.18,1.18,0,0,1-1.14.67,1.46,1.46,0,0,1-1.52-1.55A1.49,1.49,0,0,1,145,120.09Zm1.12,1.55a1.1,1.1,0,1,0-2.19,0,1.1,1.1,0,1,0,2.19,0Z"/><path class="cls-15" d="M147.2,120.18h.34v-1.34h1.3v.39H148v1h.82v.4H148v2.52h-.45v-2.52h-.34Z"/><path class="cls-15" d="M149.41,120.58h-.34v-.4h.34v-.78h.45v.78h.9v.4h-.9v2.12h.82v.4h-1.27Z"/><path class="cls-15" d="M152.6,123.19a1.55,1.55,0,0,1,0-3.1,1.44,1.44,0,0,1,1.44,1.55,1.21,1.21,0,0,1,0,.2h-2.49a1.06,1.06,0,0,0,1.07,1,1.15,1.15,0,0,0,.93-.45l.27.27A1.45,1.45,0,0,1,152.6,123.19Zm-1.07-1.74h2.05a1,1,0,0,0-1-1A1,1,0,0,0,151.53,121.45Z"/><path class="cls-15" d="M156,120.18v.41h-.85v2.51h-.46v-2.92Z"/><path class="cls-15" d="M76.71,128.88a1.09,1.09,0,0,0-2,.67,1.08,1.08,0,0,0,1.08,1.15,1.1,1.1,0,0,0,.94-.52l.28.28a1.44,1.44,0,0,1-1.22.64,1.5,1.5,0,0,1-1.55-1.55A1.51,1.51,0,0,1,75.8,128a1.42,1.42,0,0,1,1.2.6Z"/><path class="cls-15" d="M77.35,129.55a1.55,1.55,0,1,1,1.55,1.55A1.51,1.51,0,0,1,77.35,129.55Zm2.63,0a1.08,1.08,0,1,0-1.08,1.15A1.08,1.08,0,0,0,80,129.55Z"/><path class="cls-15" d="M85.08,131h-.45v-1.93a.66.66,0,1,0-1.32,0V131h-.46v-1.93a.66.66,0,1,0-1.32,0V131h-.46v-1.93A1.07,1.07,0,0,1,82.19,128a1,1,0,0,1,.9.49A1,1,0,0,1,84,128a1,1,0,0,1,1.1,1.08Z"/><path class="cls-15" d="M87.52,131.1a1.2,1.2,0,0,1-1.12-.56h0a2,2,0,0,1,0,.3v1.48h-.46v-4.23h.43v.2a1.37,1.37,0,0,1,0,.31h0a1.33,1.33,0,0,1,1.17-.6,1.55,1.55,0,0,1,0,3.1Zm-1.14-1.55a1.1,1.1,0,1,0,1.1-1.14A1.09,1.09,0,0,0,86.38,129.55Z"/><path class="cls-15" d="M89.71,126.75h.46v3.86H91v.4h-1.3Z"/><path class="cls-15" d="M92.76,131.1a1.55,1.55,0,0,1,0-3.1,1.45,1.45,0,0,1,1.44,1.55,1.21,1.21,0,0,1,0,.2H91.69a1.06,1.06,0,0,0,1.07.95,1.17,1.17,0,0,0,.93-.45l.27.27A1.45,1.45,0,0,1,92.76,131.1Zm-1.07-1.74h2a1,1,0,0,0-1-1A1,1,0,0,0,91.69,129.36Z"/><path class="cls-15" d="M94.91,128.49h-.34v-.4h.34v-.78h.46v.78h.89v.4h-.89v2.12h.81v.4H94.91Z"/><path class="cls-15" d="M96.76,127.25a.28.28,0,0,1,.29-.28.28.28,0,0,1,.29.28.29.29,0,0,1-.29.3A.29.29,0,0,1,96.76,127.25Zm.06,3.76v-2.92h.45V131Z"/><path class="cls-15" d="M100.58,128.09V131h-.46v-2.52H98.63V131h-.45v-2.92Z"/><path class="cls-15" d="M102.72,128a1.21,1.21,0,0,1,1.15.62h0c0-.09,0-.18,0-.31v-.22h.42v4.23H102.1v-.4h1.74v-1.21a2.82,2.82,0,0,1,0-.31h0a1.15,1.15,0,0,1-1.11.62,1.45,1.45,0,0,1-1.47-1.51A1.43,1.43,0,0,1,102.72,128Zm-1,1.51a1.07,1.07,0,1,0,1.06-1.1A1,1,0,0,0,101.73,129.51Z"/><path class="cls-15" d="M108,128a1.19,1.19,0,0,1,1.13.62h0a2.82,2.82,0,0,1,0-.32v-.21h.42V131h-.42v-.26a3,3,0,0,1,0-.32h0a1.18,1.18,0,0,1-1.14.67,1.46,1.46,0,0,1-1.52-1.55A1.48,1.48,0,0,1,108,128Zm1.12,1.55a1.1,1.1,0,1,0-2.19,0,1.1,1.1,0,1,0,2.19,0Z"/><path class="cls-15" d="M113.47,131.1a1.25,1.25,0,0,1-1.16-.6h0a1.52,1.52,0,0,1,0,.32V131h-.43v-4.26h.46v1.51a2.21,2.21,0,0,1,0,.32h0a1.31,1.31,0,0,1,1.12-.58,1.55,1.55,0,0,1,0,3.1Zm1-1.55a1.1,1.1,0,1,0-1.09,1.15A1.09,1.09,0,0,0,114.51,129.55Z"/><path class="cls-15" d="M117,128a1.2,1.2,0,0,1,1.13.62h0a2.82,2.82,0,0,1,0-.32v-.21h.42V131h-.42v-.26a3,3,0,0,1,0-.32h0a1.18,1.18,0,0,1-1.14.67,1.46,1.46,0,0,1-1.52-1.55A1.48,1.48,0,0,1,117,128Zm1.11,1.55a1.07,1.07,0,0,0-1.09-1.14,1.15,1.15,0,1,0,1.09,1.14Z"/><path class="cls-15" d="M121.66,128.88a1.1,1.1,0,0,0-2,.67,1.09,1.09,0,0,0,2,.63l.28.28a1.41,1.41,0,0,1-1.21.64,1.5,1.5,0,0,1-1.56-1.55,1.52,1.52,0,0,1,1.56-1.55,1.42,1.42,0,0,1,1.19.6Z"/><path class="cls-15" d="M122.54,131v-4.26H123v1.34h2V131h-.46v-2.52H123V131Z"/><path class="cls-15" d="M127.16,131.1a1.55,1.55,0,0,1,0-3.1,1.45,1.45,0,0,1,1.44,1.55,1.12,1.12,0,0,1,0,.2H126.1a1,1,0,0,0,1.07.95,1.13,1.13,0,0,0,.92-.45l.27.27A1.43,1.43,0,0,1,127.16,131.1Zm-1.06-1.74h2a1,1,0,0,0-1-1A1,1,0,0,0,126.1,129.36Z"/><path class="cls-15" d="M129.25,126.75h.45v3.86h.84v.4h-1.29Z"/><path class="cls-15" d="M130.75,129.55a1.54,1.54,0,1,1,1.54,1.55A1.51,1.51,0,0,1,130.75,129.55Zm2.62,0a1.08,1.08,0,1,0-1.08,1.15A1.07,1.07,0,0,0,133.37,129.55Z"/><path class="cls-15" d="M135.81,128.09v.41H135V131h-.46v-2.92Z"/><path class="cls-15" d="M137.05,129.27l.38.17a.88.88,0,0,1,.64.83c0,.49-.39.83-1,.83a1,1,0,0,1-1-.76l.35-.19a.71.71,0,0,0,.7.56c.3,0,.51-.16.51-.44s-.14-.34-.44-.48l-.36-.16c-.38-.18-.64-.39-.64-.83a.83.83,0,0,1,.91-.8,1,1,0,0,1,1,.66l-.35.19a.65.65,0,0,0-.63-.46.43.43,0,0,0-.48.4C136.61,129,136.75,129.13,137.05,129.27Z"/><path class="cls-15" d="M140,129.55a1.54,1.54,0,1,1,1.54,1.55A1.51,1.51,0,0,1,140,129.55Zm2.62,0a1.08,1.08,0,1,0-1.08,1.15A1.07,1.07,0,0,0,142.62,129.55Z"/><path class="cls-15" d="M143.48,128.09h.34v-1.34h1.31v.39h-.85v1h.81v.4h-.81V131h-.46v-2.52h-.34Z"/><path class="cls-15" d="M75.2,137.18l.39.17a.89.89,0,0,1,.63.83c0,.49-.39.83-1,.83a1,1,0,0,1-1-.76l.36-.19a.7.7,0,0,0,.69.56c.3,0,.51-.16.51-.44s-.14-.34-.44-.48l-.36-.17c-.37-.17-.64-.38-.64-.82a.84.84,0,0,1,.92-.8,1,1,0,0,1,1,.66l-.34.19a.65.65,0,0,0-.63-.46.43.43,0,0,0-.48.4C74.77,136.92,74.91,137,75.2,137.18Z"/><path class="cls-15" d="M79.15,136.79a1.09,1.09,0,0,0-.91-.47,1.07,1.07,0,0,0-1.09,1.14,1.09,1.09,0,0,0,1.09,1.14,1.07,1.07,0,0,0,.93-.51l.28.28a1.41,1.41,0,0,1-1.21.64,1.5,1.5,0,0,1-1.56-1.55,1.52,1.52,0,0,1,1.56-1.55,1.42,1.42,0,0,1,1.19.6Z"/><path class="cls-15" d="M80,135.16a.28.28,0,0,1,.29-.28.28.28,0,0,1,.29.28.29.29,0,0,1-.29.3A.29.29,0,0,1,80,135.16Zm.06,3.76V136h.46v2.92Z"/><path class="cls-15" d="M82.71,139a1.55,1.55,0,0,1,0-3.1,1.45,1.45,0,0,1,1.44,1.55,1.23,1.23,0,0,1,0,.2H81.65a1,1,0,0,0,1.07.94,1.14,1.14,0,0,0,.93-.45l.26.28A1.43,1.43,0,0,1,82.71,139Zm-1.06-1.74h2a1,1,0,0,0-1-1A1,1,0,0,0,81.65,137.27Z"/><path class="cls-15" d="M87.2,136v2.92h-.46V136.4H85.25v2.52H84.8V136Z"/><path class="cls-15" d="M90.34,136.79a1.09,1.09,0,0,0-.91-.47,1.07,1.07,0,0,0-1.09,1.14,1.1,1.1,0,0,0,2,.63l.28.28a1.44,1.44,0,0,1-1.21.64,1.5,1.5,0,0,1-1.56-1.55,1.52,1.52,0,0,1,1.56-1.55,1.42,1.42,0,0,1,1.19.6Z"/><path class="cls-15" d="M92.52,139a1.55,1.55,0,0,1,0-3.1A1.44,1.44,0,0,1,94,137.46a1.27,1.27,0,0,1,0,.2H91.45a1,1,0,0,0,1.07.94,1.12,1.12,0,0,0,.93-.45l.27.28A1.45,1.45,0,0,1,92.52,139Zm-1.07-1.74h2a1,1,0,0,0-1-1A1,1,0,0,0,91.45,137.27Z"/><path class="cls-15" d="M96,135.16a.28.28,0,0,1,.29-.28.28.28,0,0,1,.29.28.29.29,0,0,1-.29.3A.29.29,0,0,1,96,135.16Zm.06,3.76V136h.45v2.92Z"/><path class="cls-15" d="M99.83,136v2.92h-.46V136.4H97.88v2.52h-.45V136Z"/><path class="cls-15" d="M102.13,135.16a.28.28,0,0,1,.29-.28.28.28,0,0,1,.29.28.29.29,0,0,1-.29.3A.29.29,0,0,1,102.13,135.16Zm.06,3.76V136h.46v2.92Z"/><path class="cls-15" d="M107.52,138.92h-.45V137a.66.66,0,1,0-1.32,0v1.93h-.46V137a.66.66,0,1,0-1.32,0v1.93h-.46V137a1.07,1.07,0,0,1,1.12-1.08,1,1,0,0,1,.9.49,1,1,0,0,1,.89-.49,1,1,0,0,1,1.1,1.08Z"/><path class="cls-15" d="M110,139a1.19,1.19,0,0,1-1.12-.57h0a2.16,2.16,0,0,1,0,.31v1.48h-.46V136h.43v.2a2.41,2.41,0,0,1,0,.31h0a1.32,1.32,0,0,1,1.17-.6,1.55,1.55,0,0,1,0,3.1Zm-1.14-1.55a1.1,1.1,0,1,0,1.1-1.14A1.08,1.08,0,0,0,108.82,137.46Z"/><path class="cls-15" d="M113.46,136v.41h-.85v2.51h-.46V136Z"/><path class="cls-15" d="M115.23,135.91a1.19,1.19,0,0,1,1.13.62h0a2.82,2.82,0,0,1,0-.32V136h.42v2.92h-.42v-.26a2.92,2.92,0,0,1,0-.32h0a1.18,1.18,0,0,1-1.14.67,1.46,1.46,0,0,1-1.52-1.55A1.48,1.48,0,0,1,115.23,135.91Zm1.12,1.55a1.1,1.1,0,1,0-1.1,1.14A1.08,1.08,0,0,0,116.35,137.46Z"/><path class="cls-15" d="M119.92,136.79a1.15,1.15,0,1,0,0,1.3l.28.28A1.41,1.41,0,0,1,119,139a1.49,1.49,0,0,1-1.55-1.55,1.51,1.51,0,0,1,1.55-1.55,1.45,1.45,0,0,1,1.2.6Z"/><path class="cls-15" d="M120.91,136.4h-.34V136h.34v-.78h.45V136h.9v.4h-.9v2.12h.82v.4h-1.27Z"/><path class="cls-15" d="M122.75,135.16a.29.29,0,0,1,.58,0,.29.29,0,1,1-.58,0Zm.07,3.76V136h.45v2.92Z"/><path class="cls-15" d="M126.42,136.79a1.09,1.09,0,0,0-.91-.47,1.07,1.07,0,0,0-1.09,1.14,1.09,1.09,0,0,0,1.09,1.14,1.07,1.07,0,0,0,.93-.51l.28.28a1.41,1.41,0,0,1-1.21.64,1.5,1.5,0,0,1-1.56-1.55,1.52,1.52,0,0,1,1.56-1.55,1.42,1.42,0,0,1,1.19.6Z"/><path class="cls-15" d="M128.59,135.91a1.19,1.19,0,0,1,1.13.62h0c0-.09,0-.17,0-.32V136h.43v2.92h-.43v-.26c0-.14,0-.23,0-.32h0a1.16,1.16,0,0,1-1.14.67,1.47,1.47,0,0,1-1.52-1.55A1.49,1.49,0,0,1,128.59,135.91Zm1.12,1.55a1.1,1.1,0,1,0-1.1,1.14A1.08,1.08,0,0,0,129.71,137.46Z"/><path class="cls-15" d="M131,134.65h.46v3.87h.84v.4H131Z"/><path class="cls-15" d="M138.12,138.92h-.46V137a.66.66,0,1,0-1.32,0v1.93h-.45V137a.63.63,0,0,0-.66-.67.64.64,0,0,0-.67.67v1.93h-.45V137a1.06,1.06,0,0,1,1.11-1.08,1,1,0,0,1,.9.49,1,1,0,0,1,.9-.49,1,1,0,0,1,1.1,1.08Z"/><path class="cls-15" d="M140.29,135.91a1.19,1.19,0,0,1,1.13.62h0c0-.09,0-.17,0-.32V136h.43v2.92h-.43v-.26c0-.14,0-.23,0-.32h0a1.16,1.16,0,0,1-1.14.67,1.46,1.46,0,0,1-1.52-1.55A1.49,1.49,0,0,1,140.29,135.91Zm1.12,1.55a1.1,1.1,0,1,0-1.1,1.14A1.08,1.08,0,0,0,141.41,137.46Z"/><path class="cls-15" d="M142.84,136.4h-.33V136h.33v-.78h.46V136h.9v.4h-.9v2.12h.81v.4h-1.27Z"/><path class="cls-15" d="M144.75,138.92v-4.27h.46V136h1.95v2.92h-.46V136.4h-1.49v2.52Z"/><path class="cls-15" d="M149.37,139a1.55,1.55,0,0,1,0-3.1,1.45,1.45,0,0,1,1.44,1.55,1.23,1.23,0,0,1,0,.2h-2.48a1,1,0,0,0,1.07.94,1.14,1.14,0,0,0,.93-.45l.26.28A1.43,1.43,0,0,1,149.37,139Zm-1.06-1.74h2a1,1,0,0,0-1-1A1,1,0,0,0,148.31,137.27Z"/><path class="cls-15" d="M151.38,136.58h2v.4h-2Z"/><path class="cls-15" d="M78.45,146.83H78V144.9a.66.66,0,1,0-1.32,0v1.93h-.46V144.9a.66.66,0,1,0-1.32,0v1.93h-.46V144.9a1.07,1.07,0,0,1,1.12-1.08,1,1,0,0,1,.9.49,1,1,0,0,1,.89-.49,1,1,0,0,1,1.11,1.08Z"/><path class="cls-15" d="M80.62,143.82a1.19,1.19,0,0,1,1.13.62h0a2.82,2.82,0,0,1,0-.32v-.21h.42v2.92h-.42v-.26a2.92,2.92,0,0,1,0-.32h0a1.18,1.18,0,0,1-1.14.67,1.46,1.46,0,0,1-1.52-1.55A1.48,1.48,0,0,1,80.62,143.82Zm1.11,1.55a1.07,1.07,0,0,0-1.09-1.14,1.14,1.14,0,1,0,1.09,1.14Z"/><path class="cls-15" d="M83.17,144.31h-.34v-.4h.34v-.78h.46v.78h.89v.4h-.89v2.12h.81v.4H83.17Z"/><path class="cls-15" d="M85,143.07a.28.28,0,0,1,.29-.28.28.28,0,0,1,.29.28.29.29,0,0,1-.29.3A.29.29,0,0,1,85,143.07Zm.06,3.76v-2.92h.46v2.92Z"/><path class="cls-15" d="M88.68,144.7a1.15,1.15,0,1,0,0,1.3l.28.28a1.41,1.41,0,0,1-1.21.64,1.49,1.49,0,0,1-1.55-1.55,1.51,1.51,0,0,1,1.55-1.55,1.45,1.45,0,0,1,1.2.6Z"/><path class="cls-15" d="M90.29,145.09l.39.17a.87.87,0,0,1,.63.83c0,.49-.38.83-1,.83a1,1,0,0,1-1-.76l.36-.19a.71.71,0,0,0,.7.56c.3,0,.51-.16.51-.44s-.15-.34-.45-.48l-.36-.17c-.37-.17-.63-.38-.63-.82a.83.83,0,0,1,.91-.8,1,1,0,0,1,1,.66l-.34.19a.65.65,0,0,0-.63-.46.43.43,0,0,0-.48.4C89.86,144.83,90,145,90.29,145.09Z"/><path class="cls-15" d="M91.84,146.59a.3.3,0,0,1,.29-.29.29.29,0,0,1,.28.29.28.28,0,0,1-.28.28A.29.29,0,0,1,91.84,146.59Z"/><path class="cls-15" d="M96.75,143.48h0l-.9,3.35h-.54l-1.05-4.27h.51l.81,3.5h0l.93-3.5H97l1,3.5h0l.82-3.5h.5l-1,4.27H97.7Z"/><path class="cls-15" d="M99.82,143.07a.29.29,0,0,1,.58,0,.29.29,0,1,1-.58,0Zm.06,3.76v-2.92h.46v2.92Z"/><path class="cls-15" d="M101.35,144.31H101v-.4h.34v-.78h.45v.78h.9v.4h-.9v2.12h.81v.4h-1.26Z"/><path class="cls-15" d="M103.25,146.83v-4.27h.46v1.35h2v2.92h-.46v-2.52h-1.49v2.52Z"/><path class="cls-15" d="M109.33,143.82a1.19,1.19,0,0,1,1.13.62h0c0-.09,0-.17,0-.32v-.21h.43v2.92h-.43v-.26c0-.14,0-.23,0-.32h0a1.16,1.16,0,0,1-1.14.67,1.46,1.46,0,0,1-1.52-1.55A1.49,1.49,0,0,1,109.33,143.82Zm1.12,1.55a1.1,1.1,0,1,0-1.1,1.14A1.08,1.08,0,0,0,110.45,145.37Z"/><path class="cls-15" d="M113.25,142.56h.45v2.61h.3a.9.9,0,0,0,1-.94,1.88,1.88,0,0,0,0-.33h.46a2.92,2.92,0,0,1,0,.33,1.25,1.25,0,0,1-.68,1.19l.83,1.4h-.53l-.74-1.27a1.69,1.69,0,0,1-.33,0l-.32,0v1.26h-.45Z"/><path class="cls-15" d="M117.5,146.92a1.55,1.55,0,0,1,0-3.1,1.45,1.45,0,0,1,1.44,1.55c0,.06,0,.15,0,.2h-2.49a1,1,0,0,0,1.07.94,1.14,1.14,0,0,0,.93-.45l.26.28A1.43,1.43,0,0,1,117.5,146.92Zm-1.06-1.74h2a1,1,0,0,0-1-1A1,1,0,0,0,116.44,145.18Z"/><path class="cls-15" d="M120.91,146.92a1.55,1.55,0,0,1,0-3.1,1.44,1.44,0,0,1,1.44,1.55,1.27,1.27,0,0,1,0,.2h-2.49a1,1,0,0,0,1.07.94,1.12,1.12,0,0,0,.93-.45l.27.28A1.45,1.45,0,0,1,120.91,146.92Zm-1.07-1.74h2a1,1,0,0,0-1-1A1,1,0,0,0,119.84,145.18Z"/><path class="cls-15" d="M125.39,143.91v2.92h-.45v-2.52h-1.49v2.52H123v-2.92Z"/><path class="cls-15" d="M129.07,143.82a1.19,1.19,0,0,1,1.13.62h0a2.82,2.82,0,0,1,0-.32v-.21h.43v2.92h-.43v-.26a2.92,2.92,0,0,1,0-.32h0a1.17,1.17,0,0,1-1.14.67,1.46,1.46,0,0,1-1.52-1.55A1.49,1.49,0,0,1,129.07,143.82Zm1.12,1.55a1.1,1.1,0,1,0-1.1,1.14A1.08,1.08,0,0,0,130.19,145.37Z"/><path class="cls-15" d="M133.1,146.92a1.23,1.23,0,0,1-1.15-.6h0a2.73,2.73,0,0,1,0,.32v.19h-.43v-4.27H132v1.52a2.21,2.21,0,0,1,0,.32h0a1.28,1.28,0,0,1,1.12-.58,1.55,1.55,0,0,1,0,3.1Zm1-1.55a1.09,1.09,0,1,0-1.09,1.14A1.09,1.09,0,0,0,134.14,145.37Z"/><path class="cls-15" d="M135.23,143.07a.28.28,0,0,1,.29-.28.28.28,0,0,1,.29.28.29.29,0,0,1-.29.3A.29.29,0,0,1,135.23,143.07Zm.06,3.76v-2.92h.45v2.92Z"/><path class="cls-15" d="M136.65,142.56h.45v3.87H138v.4h-1.3Z"/><path class="cls-15" d="M138.38,143.07a.29.29,0,0,1,.58,0,.29.29,0,1,1-.58,0Zm.06,3.76v-2.92h.46v2.92Z"/><path class="cls-15" d="M139.91,144.31h-.34v-.4h.34v-.78h.45v.78h.9v.4h-.9v2.12h.81v.4h-1.26Z"/><path class="cls-15" d="M142.06,147.74h1.66v-1a2.44,2.44,0,0,1,0-.29h0c-.06.17-.31.42-.84.42a1.09,1.09,0,0,1-1.1-1.16v-1.81h.46v1.8a.71.71,0,0,0,.74.76.72.72,0,0,0,.75-.76v-1.8h.45v4.23h-2.11Z"/><path class="cls-15" d="M146.64,144.31h-.34v-.4h.34v-.78h.45v.78h.9v.4h-.9v2.12h.82v.4h-1.27Z"/><path class="cls-15" d="M148.28,145.37a1.55,1.55,0,1,1,1.55,1.55A1.51,1.51,0,0,1,148.28,145.37Zm2.63,0a1.08,1.08,0,1,0-1.08,1.14A1.08,1.08,0,0,0,150.91,145.37Z"/><path class="cls-15" d="M77.66,154.74H77l-.69-2.52h0l-.7,2.52h-.64l-.79-2.92h.49l.62,2.52h0l.67-2.52h.69l.67,2.52h0l.62-2.52h.47Z"/><path class="cls-15" d="M80.3,151.73a1.19,1.19,0,0,1,1.13.62h0a2.82,2.82,0,0,1,0-.32v-.21h.42v2.92h-.42v-.27a2.82,2.82,0,0,1,0-.31h0a1.17,1.17,0,0,1-1.14.67,1.46,1.46,0,0,1-1.52-1.55A1.49,1.49,0,0,1,80.3,151.73Zm1.12,1.55a1.1,1.1,0,1,0-1.1,1.14A1.08,1.08,0,0,0,81.42,153.28Z"/><path class="cls-15" d="M82.85,152.22h-.33v-.4h.33V151h.46v.78h.9v.4h-.9v2.12h.81v.4H82.85Z"/><path class="cls-15" d="M87,152.61a1.09,1.09,0,0,0-2,.67,1.08,1.08,0,0,0,1.08,1.14,1.09,1.09,0,0,0,.94-.51l.28.27a1.43,1.43,0,0,1-1.22.65,1.5,1.5,0,0,1-1.55-1.55,1.51,1.51,0,0,1,1.55-1.55,1.44,1.44,0,0,1,1.2.6Z"/><path class="cls-15" d="M87.85,154.74v-4.27h.45v1.35h2v2.92h-.46v-2.52H88.3v2.52Z"/><path class="cls-15" d="M93.93,151.73a1.17,1.17,0,0,1,1.12.62h0a2.45,2.45,0,0,1,0-.32v-.21h.43v2.92h-.43v-.27a2.54,2.54,0,0,1,0-.31h0a1.16,1.16,0,0,1-1.13.67,1.46,1.46,0,0,1-1.52-1.55A1.48,1.48,0,0,1,93.93,151.73ZM95,153.28a1.09,1.09,0,1,0-1.1,1.14A1.08,1.08,0,0,0,95,153.28Z"/><path class="cls-15" d="M98.78,151.82v2.92h-.46v-2.52H96.83v2.52h-.45v-2.92Z"/><path class="cls-15" d="M101,151.73a1.26,1.26,0,0,1,1.11.55h0a2.55,2.55,0,0,1,0-.31v-1.5h.45v4.27h-.42v-.24a2.82,2.82,0,0,1,0-.31h0a1.23,1.23,0,0,1-1.16.64,1.55,1.55,0,0,1,0-3.1Zm1.13,1.55a1.07,1.07,0,0,0-1.09-1.14,1.14,1.14,0,1,0,1.09,1.14Z"/><path class="cls-15" d="M104.92,154.74v-2.92h.45v2.52h1.46v-2.52h.45v2.92Z"/><path class="cls-15" d="M110.58,151.82v2.92h-.46v-2.52h-1.49v2.52h-.45v-2.92Z"/><path class="cls-15" d="M112.78,151.73a1.26,1.26,0,0,1,1.11.55h0c0-.08,0-.16,0-.31v-1.5h.45v4.27h-.42v-.24a1.42,1.42,0,0,1,0-.31h0a1.22,1.22,0,0,1-1.16.64,1.55,1.55,0,0,1,0-3.1Zm1.14,1.55a1.1,1.1,0,1,0-1.1,1.14A1.08,1.08,0,0,0,113.92,153.28Z"/><path class="cls-15" d="M116.57,154.83a1.55,1.55,0,0,1,0-3.1,1.44,1.44,0,0,1,1.44,1.55,1.27,1.27,0,0,1,0,.2h-2.48a1,1,0,0,0,1.07.94,1.11,1.11,0,0,0,.92-.45l.27.28A1.43,1.43,0,0,1,116.57,154.83Zm-1.06-1.74h2a1,1,0,0,0-1-1A1,1,0,0,0,115.51,153.09Z"/><path class="cls-15" d="M120,151.82v.41h-.85v2.51h-.45v-2.92Z"/><path class="cls-15" d="M121.2,153l.38.17a.88.88,0,0,1,.64.83c0,.49-.39.83-1,.83a1,1,0,0,1-1-.76l.36-.19a.68.68,0,0,0,.69.55c.3,0,.51-.15.51-.43s-.14-.34-.44-.48l-.36-.17c-.38-.17-.64-.38-.64-.82a.83.83,0,0,1,.91-.8,1,1,0,0,1,1,.66l-.34.19a.67.67,0,0,0-.64-.46.42.42,0,0,0-.47.4C120.77,152.74,120.9,152.86,121.2,153Z"/><path class="cls-15" d="M123,152.22h-.34v-.4H123V151h.45v.78h.9v.4h-.9v2.12h.81v.4H123Z"/><path class="cls-15" d="M126.19,151.73a1.19,1.19,0,0,1,1.13.62h0a2.82,2.82,0,0,1,0-.32v-.21h.42v2.92h-.42v-.27a2.82,2.82,0,0,1,0-.31h0a1.18,1.18,0,0,1-1.14.67,1.46,1.46,0,0,1-1.52-1.55A1.48,1.48,0,0,1,126.19,151.73Zm1.12,1.55a1.1,1.1,0,1,0-1.1,1.14A1.08,1.08,0,0,0,127.31,153.28Z"/><path class="cls-15" d="M131,151.82v2.92h-.46v-2.52h-1.49v2.52h-.45v-2.92Z"/><path class="cls-15" d="M133.24,151.73a1.26,1.26,0,0,1,1.11.55h0c0-.08,0-.16,0-.31v-1.5h.45v4.27h-.42v-.24a1.42,1.42,0,0,1,0-.31h0a1.22,1.22,0,0,1-1.16.64,1.55,1.55,0,0,1,0-3.1Zm1.14,1.55a1.1,1.1,0,1,0-1.1,1.14A1.08,1.08,0,0,0,134.38,153.28Z"/><path class="cls-15" d="M137.28,152.22h-.34v-.4h.34V151h.45v.78h.9v.4h-.9v2.12h.82v.4h-1.27Z"/><path class="cls-15" d="M139.19,154.74v-4.27h.45v1.35h2v2.92h-.45v-2.52h-1.5v2.52Z"/><path class="cls-15" d="M143.81,154.83a1.55,1.55,0,0,1,0-3.1,1.44,1.44,0,0,1,1.44,1.55,1.27,1.27,0,0,1,0,.2h-2.49a1,1,0,0,0,1.07.94,1.12,1.12,0,0,0,.93-.45l.27.28A1.45,1.45,0,0,1,143.81,154.83Zm-1.07-1.74h2a1,1,0,0,0-1-1A1,1,0,0,0,142.74,153.09Z"/><path class="cls-15" d="M76.87,159.73v2.92h-.45v-2.52H74.93v2.52h-.46v-2.92Z"/><path class="cls-15" d="M77.77,162.65v-2.92h.46v2.52h1.45v-2.52h.46v2.92Z"/><path class="cls-15" d="M82.35,159.64a1.17,1.17,0,0,1,1.12.62h0a2.45,2.45,0,0,1,0-.32v-.21h.43v2.92h-.43v-.27a2.54,2.54,0,0,1,0-.31h0a1.16,1.16,0,0,1-1.13.67,1.46,1.46,0,0,1-1.52-1.55A1.48,1.48,0,0,1,82.35,159.64Zm1.11,1.55a1.09,1.09,0,1,0-1.1,1.14A1.08,1.08,0,0,0,83.46,161.19Z"/><path class="cls-15" d="M87.2,159.73v2.92h-.46v-2.52H85.25v2.52H84.8v-2.92Z"/><path class="cls-15" d="M90.34,160.52a1.09,1.09,0,0,0-.91-.47,1.07,1.07,0,0,0-1.09,1.14,1.1,1.1,0,0,0,2,.63l.28.27a1.45,1.45,0,0,1-1.21.65,1.5,1.5,0,0,1-1.56-1.55,1.52,1.52,0,0,1,1.56-1.55,1.42,1.42,0,0,1,1.19.6Z"/><path class="cls-15" d="M92.52,162.74a1.55,1.55,0,0,1,0-3.1A1.44,1.44,0,0,1,94,161.19a1.27,1.27,0,0,1,0,.2H91.45a1,1,0,0,0,1.07.94,1.12,1.12,0,0,0,.93-.45l.27.28A1.45,1.45,0,0,1,92.52,162.74ZM91.45,161h2a1,1,0,0,0-1-.95A1,1,0,0,0,91.45,161Z"/><path class="cls-15" d="M95.33,160.9l.39.18a.89.89,0,0,1,.63.83c0,.49-.39.83-1,.83a1,1,0,0,1-1-.76l.36-.19a.69.69,0,0,0,.69.55c.3,0,.51-.15.51-.43s-.14-.35-.44-.48l-.36-.17c-.37-.17-.64-.38-.64-.82a.84.84,0,0,1,.92-.8,1,1,0,0,1,1,.66l-.34.19a.65.65,0,0,0-.63-.46.43.43,0,0,0-.48.4C94.9,160.65,95,160.77,95.33,160.9Z"/><path class="cls-15" d="M98.28,161.19a1.55,1.55,0,1,1,1.54,1.55A1.51,1.51,0,0,1,98.28,161.19Zm2.62,0a1.08,1.08,0,1,0-1.08,1.14A1.07,1.07,0,0,0,100.9,161.19Z"/><path class="cls-15" d="M101.77,159.73h.34v-1.35h1.3v.4h-.85v.95h.82v.4h-.82v2.52h-.45v-2.52h-.34Z"/><path class="cls-15" d="M107.44,160.52a1.09,1.09,0,0,0-.91-.47,1.07,1.07,0,0,0-1.09,1.14,1.1,1.1,0,0,0,2,.63l.28.27a1.43,1.43,0,0,1-1.21.65,1.5,1.5,0,0,1-1.56-1.55,1.52,1.52,0,0,1,1.56-1.55,1.42,1.42,0,0,1,1.19.6Z"/><path class="cls-15" d="M108.08,161.19a1.54,1.54,0,1,1,1.54,1.55A1.51,1.51,0,0,1,108.08,161.19Zm2.62,0a1.08,1.08,0,1,0-1.08,1.14A1.08,1.08,0,0,0,110.7,161.19Z"/><path class="cls-15" d="M111.61,161.19a1.55,1.55,0,1,1,1.54,1.55A1.51,1.51,0,0,1,111.61,161.19Zm2.63,0a1.08,1.08,0,1,0-1.09,1.14A1.08,1.08,0,0,0,114.24,161.19Z"/><path class="cls-15" d="M117,162.74a1.19,1.19,0,0,1-1.12-.57h0a2.16,2.16,0,0,1,0,.31V164h-.46v-4.23h.43v.2a2.41,2.41,0,0,1,0,.31h0a1.32,1.32,0,0,1,1.17-.6,1.55,1.55,0,0,1,0,3.1Zm-1.14-1.55a1.09,1.09,0,1,0,1.1-1.14A1.08,1.08,0,0,0,115.81,161.19Z"/><path class="cls-15" d="M120.46,162.74a1.55,1.55,0,0,1,0-3.1,1.44,1.44,0,0,1,1.44,1.55,1.27,1.27,0,0,1,0,.2H119.4a1,1,0,0,0,1.07.94,1.11,1.11,0,0,0,.92-.45l.27.28A1.43,1.43,0,0,1,120.46,162.74ZM119.4,161h2a1,1,0,0,0-1-.95A1,1,0,0,0,119.4,161Z"/><path class="cls-15" d="M123.85,159.73v.41H123v2.51h-.46v-2.92Z"/><path class="cls-15" d="M125.62,159.64a1.19,1.19,0,0,1,1.13.62h0a2.82,2.82,0,0,1,0-.32v-.21h.43v2.92h-.43v-.27a2.82,2.82,0,0,1,0-.31h0a1.17,1.17,0,0,1-1.14.67,1.46,1.46,0,0,1-1.52-1.55A1.49,1.49,0,0,1,125.62,159.64Zm1.12,1.55a1.1,1.1,0,1,0-1.1,1.14A1.08,1.08,0,0,0,126.74,161.19Z"/><path class="cls-15" d="M128.17,160.13h-.33v-.4h.33V159h.46v.78h.9v.4h-.9v2.12h.81v.4h-1.27Z"/><path class="cls-15" d="M130,158.89a.29.29,0,1,1,.29.3A.29.29,0,0,1,130,158.89Zm.06,3.76v-2.92h.46v2.92Z"/><path class="cls-15" d="M131.22,161.19a1.54,1.54,0,1,1,1.54,1.55A1.51,1.51,0,0,1,131.22,161.19Zm2.62,0a1.08,1.08,0,1,0-1.08,1.14A1.07,1.07,0,0,0,133.84,161.19Z"/><path class="cls-15" d="M137.38,159.73v2.92h-.46v-2.52h-1.49v2.52H135v-2.92Z"/><path class="cls-15" d="M75.79,167.55a1.17,1.17,0,0,1,1.12.62h0a2.45,2.45,0,0,1,0-.32v-.21h.43v2.92h-.43v-.27a2.54,2.54,0,0,1,0-.31h0a1.16,1.16,0,0,1-1.13.67,1.46,1.46,0,0,1-1.52-1.55A1.48,1.48,0,0,1,75.79,167.55Zm1.11,1.55a1.09,1.09,0,1,0-1.1,1.14A1.08,1.08,0,0,0,76.9,169.1Z"/><path class="cls-15" d="M82.21,170.56h-.46v-1.93a.66.66,0,1,0-1.32,0v1.93H80v-1.93a.67.67,0,1,0-1.33,0v1.93H78.2v-1.93a1.06,1.06,0,0,1,1.11-1.08,1,1,0,0,1,.9.48,1,1,0,0,1,.89-.48,1,1,0,0,1,1.11,1.08Z"/><path class="cls-15" d="M82.85,169.1a1.54,1.54,0,1,1,1.54,1.55A1.51,1.51,0,0,1,82.85,169.1Zm2.62,0a1.08,1.08,0,1,0-1.08,1.14A1.08,1.08,0,0,0,85.47,169.1Z"/><path class="cls-15" d="M89,167.64v2.92h-.46V168H87.06v2.52H86.6v-2.92Z"/><path class="cls-15" d="M91.14,167.55a1.18,1.18,0,0,1,1.15.62h0a2.91,2.91,0,0,1,0-.31v-.22h.42v4.23H90.53v-.4h1.73v-1.21a2.41,2.41,0,0,1,0-.31h0a1.13,1.13,0,0,1-1.1.62,1.45,1.45,0,0,1-1.47-1.51A1.42,1.42,0,0,1,91.14,167.55Zm-1,1.5A1.07,1.07,0,1,0,91.22,168,1.05,1.05,0,0,0,90.15,169.05Z"/><path class="cls-15" d="M96.66,170.65a1.2,1.2,0,0,1-1.12-.57h0a2.16,2.16,0,0,1,0,.31v1.48h-.46v-4.23h.43v.2a2.41,2.41,0,0,1,0,.31h0a1.32,1.32,0,0,1,1.17-.6,1.55,1.55,0,0,1,0,3.1Zm-1.14-1.55a1.09,1.09,0,1,0,1.1-1.14A1.08,1.08,0,0,0,95.52,169.1Z"/><path class="cls-15" d="M100.16,167.64v.41H99.3v2.51h-.45v-2.92Z"/><path class="cls-15" d="M100.38,169.1a1.55,1.55,0,1,1,1.55,1.55A1.51,1.51,0,0,1,100.38,169.1Zm2.63,0a1.08,1.08,0,1,0-1.08,1.14A1.08,1.08,0,0,0,103,169.1Z"/><path class="cls-15" d="M105.45,167.55a1.26,1.26,0,0,1,1.11.55h0a2.64,2.64,0,0,1,0-.32v-1.49H107v4.27h-.42v-.24a2.73,2.73,0,0,1,0-.31h0a1.23,1.23,0,0,1-1.16.64,1.55,1.55,0,0,1,0-3.1Zm1.13,1.55a1.07,1.07,0,0,0-1.09-1.14,1.14,1.14,0,1,0,1.09,1.14Z"/><path class="cls-15" d="M107.92,170.56v-2.92h.45v2.52h1.46v-2.52h.46v2.92Z"/><path class="cls-15" d="M113.42,168.43a1.09,1.09,0,0,0-2,.67,1.08,1.08,0,0,0,1.08,1.14,1.1,1.1,0,0,0,.94-.51l.27.27a1.42,1.42,0,0,1-1.21.65,1.55,1.55,0,1,1,0-3.1,1.45,1.45,0,0,1,1.2.6Z"/><path class="cls-15" d="M114.41,168h-.34v-.4h.34v-.78h.45v.78h.9v.4h-.9v2.12h.82v.4h-1.27Z"/><path class="cls-15" d="M116.26,166.8a.28.28,0,0,1,.29-.29.3.3,0,0,1,0,.59A.29.29,0,0,1,116.26,166.8Zm.06,3.76v-2.92h.45v2.92Z"/><path class="cls-15" d="M117.46,169.1a1.54,1.54,0,1,1,1.54,1.55A1.51,1.51,0,0,1,117.46,169.1Zm2.62,0a1.08,1.08,0,1,0-1.08,1.14A1.08,1.08,0,0,0,120.08,169.1Z"/><path class="cls-15" d="M123.62,167.64v2.92h-.46V168h-1.49v2.52h-.46v-2.92Z"/><path class="cls-15" d="M127.29,167.64v.41h-.86v2.51H126v-2.92Z"/><path class="cls-15" d="M127.51,169.1a1.55,1.55,0,1,1,1.55,1.55A1.51,1.51,0,0,1,127.51,169.1Zm2.63,0a1.08,1.08,0,1,0-1.08,1.14A1.08,1.08,0,0,0,130.14,169.1Z"/><path class="cls-15" d="M132.85,170.65a1.24,1.24,0,0,1-1.15-.6h0a2.73,2.73,0,0,1,0,.32v.19h-.43v-4.27h.46v1.52a2.21,2.21,0,0,1,0,.32h0a1.3,1.3,0,0,1,1.12-.58,1.55,1.55,0,0,1,0,3.1Zm1.05-1.55a1.1,1.1,0,1,0-1.1,1.14A1.09,1.09,0,0,0,133.9,169.1Z"/><path class="cls-15" d="M134.82,169.1a1.54,1.54,0,1,1,1.54,1.55A1.51,1.51,0,0,1,134.82,169.1Zm2.62,0a1.08,1.08,0,1,0-1.08,1.14A1.07,1.07,0,0,0,137.44,169.1Z"/><path class="cls-15" d="M138.64,168h-.34v-.4h.34v-.78h.45v.78h.9v.4h-.9v2.12h.82v.4h-1.27Z"/><path class="cls-15" d="M141.28,168.81l.38.18a.88.88,0,0,1,.64.83c0,.49-.39.83-1,.83a1,1,0,0,1-1-.76l.35-.19a.7.7,0,0,0,.7.55c.3,0,.51-.15.51-.43s-.14-.35-.44-.48l-.36-.17c-.38-.17-.64-.38-.64-.82a.83.83,0,0,1,.91-.8,1,1,0,0,1,1,.66l-.34.19a.67.67,0,0,0-.64-.46.42.42,0,0,0-.47.4C140.85,168.56,141,168.68,141.28,168.81Z"/><path class="cls-15" d="M143.23,170.88l-.24.55-.21-.07.22-.55a1.07,1.07,0,0,0,.07-.19.29.29,0,0,1-.24-.3.27.27,0,0,1,.27-.29.27.27,0,0,1,.29.3A1.39,1.39,0,0,1,143.23,170.88Z"/><path class="cls-15" d="M75.29,174.61h-1.2v-.41H77v.41H75.76v3.86h-.47Z"/><path class="cls-15" d="M78.28,175.55V176h-.85v2.51H77v-2.92Z"/><path class="cls-15" d="M78.75,174.71a.28.28,0,0,1,.29-.29.3.3,0,0,1,0,.59A.29.29,0,0,1,78.75,174.71Zm.06,3.76v-2.92h.46v2.92Z"/><path class="cls-15" d="M80.9,176.72l.38.18a.88.88,0,0,1,.64.83c0,.49-.39.83-1,.83a1,1,0,0,1-1-.76l.35-.19a.7.7,0,0,0,.7.55c.3,0,.51-.15.51-.43s-.14-.35-.44-.48l-.36-.17c-.38-.17-.64-.38-.64-.82a.83.83,0,0,1,.91-.8,1,1,0,0,1,1,.66l-.34.19a.67.67,0,0,0-.64-.46.42.42,0,0,0-.47.4C80.47,176.47,80.6,176.59,80.9,176.72Z"/><path class="cls-15" d="M83.92,175.46a1.18,1.18,0,0,1,1.12.61h0a2.16,2.16,0,0,1,0-.31v-.21h.43v2.92H85v-.27a2.88,2.88,0,0,1,0-.32h0a1.15,1.15,0,0,1-1.13.68A1.46,1.46,0,0,1,82.39,177,1.48,1.48,0,0,1,83.92,175.46ZM85,177a1.09,1.09,0,1,0-1.1,1.14A1.09,1.09,0,0,0,85,177Z"/><path class="cls-15" d="M87.94,178.56a1.21,1.21,0,0,1-1.12-.57h0a1.28,1.28,0,0,1,0,.31v1.48h-.45v-4.23h.42v.2a2.73,2.73,0,0,1,0,.31h0a1.35,1.35,0,0,1,1.17-.6,1.55,1.55,0,0,1,0,3.1ZM86.8,177a1.1,1.1,0,1,0,1.1-1.15A1.09,1.09,0,0,0,86.8,177Z"/><path class="cls-15" d="M90.13,178.47V174.2h.46v1.35h2v2.92h-.46V176H90.59v2.52Z"/><path class="cls-15" d="M94.74,175.55V176h-.85v2.51h-.46v-2.92Z"/><path class="cls-15" d="M95,177a1.54,1.54,0,1,1,1.54,1.55A1.51,1.51,0,0,1,95,177Zm2.62,0a1.08,1.08,0,1,0-1.08,1.14A1.08,1.08,0,0,0,97.59,177Z"/><path class="cls-15" d="M101.13,175.55v2.92h-.46V176H99.18v2.52h-.45v-2.92Z"/><path class="cls-15" d="M104.66,175.46a1.14,1.14,0,0,1,1.2,1.17v1.84h-.45v-1.85a.76.76,0,1,0-1.51,0v1.85h-.45v-1.85A1.13,1.13,0,0,1,104.66,175.46Z"/><path class="cls-15" d="M108,178.56a1.55,1.55,0,0,1,0-3.1,1.44,1.44,0,0,1,1.44,1.55,1.34,1.34,0,0,1,0,.2H107a1,1,0,0,0,1.07.94,1.12,1.12,0,0,0,.93-.45l.27.28A1.43,1.43,0,0,1,108,178.56ZM107,176.82h2a1,1,0,0,0-1-1A1,1,0,0,0,107,176.82Z"/><path class="cls-15" d="M110.82,178.47l-1.11-2.92h.51l.88,2.52h0l.88-2.52h.5l-1.1,2.92Z"/><path class="cls-15" d="M114.3,178.56a1.55,1.55,0,0,1,0-3.1,1.45,1.45,0,0,1,1.44,1.55c0,.05,0,.15,0,.2h-2.49a1,1,0,0,0,1.07.94,1.14,1.14,0,0,0,.93-.45l.26.28A1.43,1.43,0,0,1,114.3,178.56Zm-1.06-1.74h2a1,1,0,0,0-1-1A1,1,0,0,0,113.24,176.82Z"/><path class="cls-15" d="M117.7,175.55V176h-.86v2.51h-.45v-2.92Z"/><path class="cls-15" d="M119.54,178.47V174.2H120v1.35h2v2.92h-.46V176H120v2.52Z"/><path class="cls-15" d="M124.16,178.56a1.55,1.55,0,0,1,0-3.1A1.45,1.45,0,0,1,125.6,177a1.36,1.36,0,0,1,0,.2H123.1a1,1,0,0,0,1.07.94,1.14,1.14,0,0,0,.93-.45l.26.28A1.43,1.43,0,0,1,124.16,178.56Zm-1.06-1.74h2a1,1,0,0,0-1-1A1,1,0,0,0,123.1,176.82Z"/><path class="cls-15" d="M127,176.72l.38.18a.87.87,0,0,1,.63.83c0,.49-.38.83-1,.83a1,1,0,0,1-1-.76l.36-.19a.7.7,0,0,0,.7.55c.3,0,.51-.15.51-.43s-.14-.35-.44-.48l-.36-.17c-.38-.17-.64-.38-.64-.82a.83.83,0,0,1,.91-.8,1,1,0,0,1,1,.66l-.34.19a.65.65,0,0,0-.63-.46.43.43,0,0,0-.48.4C126.54,176.47,126.68,176.59,127,176.72Z"/><path class="cls-15" d="M128.62,174.71a.28.28,0,0,1,.29-.29.3.3,0,0,1,0,.59A.29.29,0,0,1,128.62,174.71Zm.06,3.76v-2.92h.46v2.92Z"/><path class="cls-15" d="M130.14,176h-.33v-.4h.33v-.78h.46v.78h.9v.4h-.9v2.12h.81v.4h-1.27Z"/><path class="cls-15" d="M133.33,175.46a1.18,1.18,0,0,1,1.12.61h0c0-.08,0-.16,0-.31v-.21h.43v2.92h-.43v-.27c0-.13,0-.22,0-.32h0a1.15,1.15,0,0,1-1.14.68,1.47,1.47,0,0,1-1.52-1.55A1.49,1.49,0,0,1,133.33,175.46Zm1.11,1.55a1.09,1.09,0,1,0-1.1,1.14A1.09,1.09,0,0,0,134.44,177Z"/><path class="cls-15" d="M135.88,176h-.34v-.4h.34v-.78h.45v.78h.9v.4h-.9v2.12h.82v.4h-1.27Z"/><path class="cls-15" d="M139.07,178.56a1.55,1.55,0,0,1,0-3.1A1.44,1.44,0,0,1,140.5,177a1.34,1.34,0,0,1,0,.2H138a1,1,0,0,0,1.07.94,1.12,1.12,0,0,0,.93-.45l.27.28A1.45,1.45,0,0,1,139.07,178.56ZM138,176.82h2.05a1,1,0,0,0-1-1A1,1,0,0,0,138,176.82Z"/><path class="cls-15" d="M141.88,176.72l.39.18a.89.89,0,0,1,.63.83c0,.49-.39.83-1,.83a1,1,0,0,1-1-.76l.36-.19a.68.68,0,0,0,.69.55c.3,0,.51-.15.51-.43s-.14-.35-.44-.48l-.36-.17c-.37-.17-.64-.38-.64-.82a.84.84,0,0,1,.92-.8,1,1,0,0,1,1,.66l-.34.19a.65.65,0,0,0-.63-.46.43.43,0,0,0-.48.4C141.45,176.47,141.58,176.59,141.88,176.72Z"/><path class="cls-15" d="M145.15,176h-.33v-.4h.33v-.78h.46v.78h.9v.4h-.9v2.12h.81v.4h-1.27Z"/><path class="cls-15" d="M146.8,177a1.55,1.55,0,1,1,1.55,1.55A1.51,1.51,0,0,1,146.8,177Zm2.63,0a1.08,1.08,0,1,0-1.08,1.14A1.09,1.09,0,0,0,149.43,177Z"/><path class="cls-15" d="M73.76,187.69v-.4h.76v-3.83H75v4.23Zm.7-5.07a.28.28,0,0,1,.29-.29.3.3,0,0,1,0,.59A.29.29,0,0,1,74.46,182.62Z"/><path class="cls-15" d="M75.88,186.38v-2.92h.45V186h1.46v-2.52h.45v2.92Z"/><path class="cls-15" d="M83.11,186.38h-.45v-1.93a.65.65,0,0,0-.67-.68.63.63,0,0,0-.65.68v1.93h-.46v-1.93a.66.66,0,1,0-1.32,0v1.93H79.1v-1.93a1.06,1.06,0,0,1,1.12-1.08,1,1,0,0,1,.9.48,1,1,0,0,1,.89-.48,1,1,0,0,1,1.1,1.08Z"/><path class="cls-15" d="M85.55,186.47a1.2,1.2,0,0,1-1.12-.57h0a2.16,2.16,0,0,1,0,.31v1.48H84v-4.23h.43v.2a2.41,2.41,0,0,1,0,.31h0a1.32,1.32,0,0,1,1.17-.6,1.55,1.55,0,0,1,0,3.1Zm-1.14-1.55a1.1,1.1,0,1,0,2.19,0,1.1,1.1,0,1,0-2.19,0Z"/><path class="cls-15" d="M89.15,182.62a.28.28,0,0,1,.29-.29.3.3,0,0,1,0,.59A.29.29,0,0,1,89.15,182.62Zm.06,3.76v-2.92h.45v2.92Z"/><path class="cls-15" d="M93,183.46v2.92h-.46v-2.52H91v2.52h-.45v-2.92Z"/><path class="cls-15" d="M96.65,183.37a1.18,1.18,0,0,1,1.12.61h0c0-.08,0-.16,0-.31v-.21h.43v2.92h-.43v-.27c0-.13,0-.22,0-.31h0a1.16,1.16,0,0,1-1.14.67,1.47,1.47,0,0,1-1.52-1.55A1.49,1.49,0,0,1,96.65,183.37Zm1.11,1.55a1.09,1.09,0,1,0-1.1,1.14A1.09,1.09,0,0,0,97.76,184.92Z"/><path class="cls-15" d="M101.5,183.46v2.92H101v-2.52H99.55v2.52h-.46v-2.92Z"/><path class="cls-15" d="M103.69,183.37a1.26,1.26,0,0,1,1.12.55h0a2.64,2.64,0,0,1,0-.32v-1.49h.45v4.27h-.43v-.24a2.41,2.41,0,0,1,0-.31h0a1.2,1.2,0,0,1-1.15.64,1.55,1.55,0,0,1,0-3.1Zm1.14,1.55a1.09,1.09,0,1,0-1.09,1.14A1.08,1.08,0,0,0,104.83,184.92Z"/><path class="cls-15" d="M107.63,182.11h.46V186h.84v.4h-1.3Z"/><path class="cls-15" d="M110.68,186.47a1.55,1.55,0,0,1,0-3.1,1.45,1.45,0,0,1,1.44,1.55c0,.05,0,.15,0,.2h-2.49a1,1,0,0,0,1.07.94,1.14,1.14,0,0,0,.93-.45l.27.28A1.45,1.45,0,0,1,110.68,186.47Zm-1.07-1.74h2a1,1,0,0,0-1-1A1,1,0,0,0,109.61,184.73Z"/><path class="cls-15" d="M115.16,183.46v2.92h-.45v-2.52h-1.49v2.52h-.46v-2.92Z"/><path class="cls-15" d="M117.36,183.37a1.28,1.28,0,0,1,1.12.55h0c0-.08,0-.16,0-.32v-1.49h.45v4.27h-.42v-.24a2.41,2.41,0,0,1,0-.31h0a1.21,1.21,0,0,1-1.15.64,1.55,1.55,0,0,1,0-3.1Zm1.14,1.55a1.1,1.1,0,1,0-1.09,1.14A1.09,1.09,0,0,0,118.5,184.92Z"/><path class="cls-15" d="M122.61,183.37a1.19,1.19,0,0,1,1.13.61h0c0-.08,0-.16,0-.31v-.21h.43v2.92h-.43v-.27c0-.13,0-.22,0-.31h0a1.16,1.16,0,0,1-1.14.67,1.47,1.47,0,0,1-1.52-1.55A1.49,1.49,0,0,1,122.61,183.37Zm1.12,1.55a1.1,1.1,0,1,0-1.1,1.14A1.09,1.09,0,0,0,123.73,184.92Z"/><path class="cls-15" d="M126.53,186.38v-4.27H127v1.35h1.94v2.92h-.45v-2.52H127v2.52Z"/><path class="cls-15" d="M131.14,183.37a1.2,1.2,0,0,1,1.13.61h0a2.55,2.55,0,0,1,0-.31v-.21h.43v2.92h-.43v-.27a2.82,2.82,0,0,1,0-.31h0a1.17,1.17,0,0,1-1.14.67,1.46,1.46,0,0,1-1.52-1.55A1.49,1.49,0,0,1,131.14,183.37Zm1.12,1.55a1.1,1.1,0,1,0-1.1,1.14A1.09,1.09,0,0,0,132.26,184.92Z"/><path class="cls-15" d="M136,183.46v2.92h-.45v-2.52h-1.49v2.52h-.46v-2.92Z"/><path class="cls-15" d="M138.19,183.37a1.29,1.29,0,0,1,1.12.55h0c0-.08,0-.16,0-.32v-1.49h.45v4.27h-.42v-.24a2.41,2.41,0,0,1,0-.31h0a1.21,1.21,0,0,1-1.15.64,1.55,1.55,0,0,1,0-3.1Zm1.14,1.55a1.1,1.1,0,1,0-1.09,1.14A1.09,1.09,0,0,0,139.33,184.92Z"/><path class="cls-15" d="M141.91,184.92a1.54,1.54,0,1,1,1.54,1.55A1.51,1.51,0,0,1,141.91,184.92Zm2.62,0a1.08,1.08,0,1,0-1.08,1.14A1.08,1.08,0,0,0,144.53,184.92Z"/><path class="cls-15" d="M147,183.46v.41h-.86v2.51h-.45v-2.92Z"/><path class="cls-15" d="M74.58,191.77h-.34v-.4h.34v-.78H75v.78h.9v.4H75v2.12h.81v.4H74.58Z"/><path class="cls-15" d="M79.67,194.29H79l-.7-2.52h0l-.7,2.52H77l-.79-2.92h.48l.62,2.52h0l.67-2.52h.69l.67,2.52h0l.62-2.52h.47Z"/><path class="cls-15" d="M80.77,192.83a1.55,1.55,0,1,1,1.54,1.55A1.51,1.51,0,0,1,80.77,192.83Zm2.63,0a1.08,1.08,0,1,0-2.16,0,1.08,1.08,0,1,0,2.16,0Z"/><path class="cls-15" d="M85.77,192.83a1.55,1.55,0,1,1,1.55,1.55A1.51,1.51,0,0,1,85.77,192.83Zm2.63,0A1.08,1.08,0,1,0,87.32,194,1.09,1.09,0,0,0,88.4,192.83Z"/><path class="cls-15" d="M90.84,191.37v.4H90v2.52h-.46v-2.92Z"/><path class="cls-15" d="M92.79,191.77h-.34v-.4h.34v-.78h.46v.78h.89v.4h-.89v2.12h.81v.4H92.79Z"/><path class="cls-15" d="M94.7,194.29V190h.45v1.35H97.1v2.92h-.45v-2.52h-1.5v2.52Z"/><path class="cls-15" d="M99.31,191.37v.4h-.86v2.52H98v-2.92Z"/><path class="cls-15" d="M101.07,194.38a1.55,1.55,0,0,1,0-3.1,1.45,1.45,0,0,1,1.44,1.55s0,.15,0,.2H100a1,1,0,0,0,1.07.94,1.14,1.14,0,0,0,.93-.45l.27.28A1.45,1.45,0,0,1,101.07,194.38ZM100,192.64h2a1,1,0,0,0-1-1A1,1,0,0,0,100,192.64Z"/><path class="cls-15" d="M104.48,194.38a1.55,1.55,0,0,1,0-3.1,1.44,1.44,0,0,1,1.44,1.55,1.34,1.34,0,0,1,0,.2h-2.48a1,1,0,0,0,1.07.94,1.11,1.11,0,0,0,.92-.45l.27.28A1.43,1.43,0,0,1,104.48,194.38Zm-1.06-1.74h2a1,1,0,0,0-1-1A1,1,0,0,0,103.42,192.64Z"/><path class="cls-15" d="M108.13,191.77h-.33v-.4h.33v-.78h.46v.78h.9v.4h-.9v2.12h.81v.4h-1.27Z"/><path class="cls-15" d="M109.78,192.83a1.55,1.55,0,1,1,1.54,1.55A1.51,1.51,0,0,1,109.78,192.83Zm2.63,0a1.08,1.08,0,1,0-2.16,0,1.08,1.08,0,1,0,2.16,0Z"/><path class="cls-15" d="M116.33,194.38a1.55,1.55,0,0,1,0-3.1,1.44,1.44,0,0,1,1.44,1.55,1.34,1.34,0,0,1,0,.2h-2.49a1,1,0,0,0,1.07.94,1.12,1.12,0,0,0,.93-.45l.27.28A1.45,1.45,0,0,1,116.33,194.38Zm-1.07-1.74h2a1,1,0,0,0-1-1A1,1,0,0,0,115.26,192.64Z"/><path class="cls-15" d="M119.72,191.28a1.24,1.24,0,0,1,1.11.55h0a2.64,2.64,0,0,1,0-.32V190h.45v4.27h-.42v-.24a2.73,2.73,0,0,1,0-.31h0a1.23,1.23,0,0,1-1.16.64,1.55,1.55,0,0,1,0-3.1Zm1.13,1.55a1.09,1.09,0,1,0-1.09,1.14A1.08,1.08,0,0,0,120.85,192.83Z"/><path class="cls-15" d="M122.19,194.29v-2.92h.45v2.52h1.46v-2.52h.45v2.92Z"/><path class="cls-15" d="M127.69,192.16a1.07,1.07,0,0,0-.91-.48,1.15,1.15,0,0,0,0,2.29,1.1,1.1,0,0,0,.94-.51l.27.27a1.42,1.42,0,0,1-1.21.65,1.55,1.55,0,0,1,0-3.1,1.45,1.45,0,0,1,1.2.6Z"/><path class="cls-15" d="M129.87,191.28a1.21,1.21,0,0,1,1.13.61h0a2.55,2.55,0,0,1,0-.31v-.21h.42v2.92H131V194a3.11,3.11,0,0,1,0-.32h0a1.17,1.17,0,0,1-1.14.68,1.46,1.46,0,0,1-1.52-1.55A1.48,1.48,0,0,1,129.87,191.28Zm1.11,1.55a1.08,1.08,0,0,0-1.09-1.15,1.15,1.15,0,0,0,0,2.29A1.08,1.08,0,0,0,131,192.83Z"/><path class="cls-15" d="M132.42,191.77h-.34v-.4h.34v-.78h.46v.78h.89v.4h-.89v2.12h.81v.4h-1.27Z"/><path class="cls-15" d="M135.61,194.38a1.55,1.55,0,0,1,0-3.1,1.44,1.44,0,0,1,1.44,1.55,1.34,1.34,0,0,1,0,.2h-2.48a1,1,0,0,0,1.07.94,1.11,1.11,0,0,0,.92-.45l.27.28A1.43,1.43,0,0,1,135.61,194.38Zm-1.06-1.74h2a1,1,0,0,0-1-1A1,1,0,0,0,134.55,192.64Z"/><path class="cls-15" d="M140.48,191.28a1.18,1.18,0,0,1,1.12.61h0c0-.08,0-.16,0-.31v-.21H142v2.92h-.43V194c0-.13,0-.22,0-.32h0a1.15,1.15,0,0,1-1.14.68,1.46,1.46,0,0,1-1.51-1.55A1.48,1.48,0,0,1,140.48,191.28Zm1.11,1.55a1.09,1.09,0,1,0-1.1,1.14A1.09,1.09,0,0,0,141.59,192.83Z"/><path class="cls-15" d="M145.33,191.37v2.92h-.46v-2.52h-1.49v2.52h-.46v-2.92Z"/><path class="cls-15" d="M147.53,191.28a1.24,1.24,0,0,1,1.11.55h0a2.64,2.64,0,0,1,0-.32V190h.45v4.27h-.42v-.24a2.73,2.73,0,0,1,0-.31h0a1.23,1.23,0,0,1-1.16.64,1.55,1.55,0,0,1,0-3.1Zm1.13,1.55a1.09,1.09,0,1,0-1.09,1.14A1.08,1.08,0,0,0,148.66,192.83Z"/><path class="cls-15" d="M74.41,198.44a.29.29,0,1,1,.58,0,.29.29,0,0,1-.58,0Zm.06,3.76v-2.92h.46v2.92Z"/><path class="cls-15" d="M79.8,202.2h-.45v-1.94a.66.66,0,1,0-1.32,0v1.94h-.46v-1.94a.66.66,0,1,0-1.32,0v1.94h-.46v-1.94a1.06,1.06,0,0,1,1.12-1.07,1,1,0,0,1,.9.48,1,1,0,0,1,.89-.48,1,1,0,0,1,1.1,1.07Z"/><path class="cls-15" d="M82.24,202.29a1.21,1.21,0,0,1-1.12-.57h0a2.16,2.16,0,0,1,0,.31v1.48h-.46v-4.23h.43v.2a2.41,2.41,0,0,1,0,.31h0a1.33,1.33,0,0,1,1.17-.6,1.55,1.55,0,0,1,0,3.1Zm-1.14-1.55a1.1,1.1,0,1,0,2.19,0,1.1,1.1,0,1,0-2.19,0Z"/><path class="cls-15" d="M85.74,199.28v.4h-.85v2.52h-.46v-2.92Z"/><path class="cls-15" d="M86,200.74a1.54,1.54,0,1,1,1.54,1.55A1.51,1.51,0,0,1,86,200.74Zm2.62,0a1.08,1.08,0,1,0-1.08,1.14A1.08,1.08,0,0,0,88.59,200.74Z"/><path class="cls-15" d="M90.41,202.2l-1.11-2.92h.51l.88,2.52h0l.88-2.52h.5L91,202.2Z"/><path class="cls-15" d="M93.89,202.29a1.55,1.55,0,0,1,0-3.1,1.45,1.45,0,0,1,1.44,1.55s0,.15,0,.2H92.83a1,1,0,0,0,1.07.94,1.14,1.14,0,0,0,.93-.45l.27.28A1.45,1.45,0,0,1,93.89,202.29Zm-1.06-1.74h2a1,1,0,0,0-1-1A1,1,0,0,0,92.83,200.55Z"/><path class="cls-15" d="M99,202.29a1.21,1.21,0,0,1-1.12-.57h0a1.28,1.28,0,0,1,0,.31v1.48h-.45v-4.23h.42v.2a2.73,2.73,0,0,1,0,.31h0a1.35,1.35,0,0,1,1.18-.6,1.55,1.55,0,0,1,0,3.1Zm-1.14-1.55a1.1,1.1,0,1,0,1.1-1.15A1.09,1.09,0,0,0,97.88,200.74Z"/><path class="cls-15" d="M102.52,199.28v.4h-.85v2.52h-.45v-2.92Z"/><path class="cls-15" d="M102.75,200.74a1.54,1.54,0,1,1,1.54,1.55A1.51,1.51,0,0,1,102.75,200.74Zm2.62,0a1.08,1.08,0,1,0-1.08,1.14A1.08,1.08,0,0,0,105.37,200.74Z"/><path class="cls-15" d="M108.75,200.07a1.12,1.12,0,1,0-.91,1.81,1.07,1.07,0,0,0,.93-.51l.28.27a1.42,1.42,0,0,1-1.21.65,1.49,1.49,0,0,1-1.55-1.55,1.51,1.51,0,0,1,1.55-1.55,1.45,1.45,0,0,1,1.2.6Z"/><path class="cls-15" d="M110.93,202.29a1.55,1.55,0,0,1,0-3.1,1.45,1.45,0,0,1,1.44,1.55,1.36,1.36,0,0,1,0,.2h-2.48a1,1,0,0,0,1.07.94,1.14,1.14,0,0,0,.93-.45l.26.28A1.43,1.43,0,0,1,110.93,202.29Zm-1.06-1.74h2a1,1,0,0,0-1-1A1,1,0,0,0,109.87,200.55Z"/><path class="cls-15" d="M114.32,199.19a1.26,1.26,0,0,1,1.12.55h0c0-.08,0-.16,0-.32v-1.49h.45v4.27h-.42V202a2.41,2.41,0,0,1,0-.31h0a1.22,1.22,0,0,1-1.16.64,1.55,1.55,0,0,1,0-3.1Zm1.14,1.55a1.1,1.1,0,1,0-1.09,1.14A1.09,1.09,0,0,0,115.46,200.74Z"/><path class="cls-15" d="M116.79,202.2v-2.92h.46v2.52h1.45v-2.52h.46v2.92Z"/><path class="cls-15" d="M121.36,199.28v.4h-.85v2.52h-.45v-2.92Z"/><path class="cls-15" d="M123.13,202.29a1.55,1.55,0,0,1,0-3.1,1.45,1.45,0,0,1,1.44,1.55s0,.15,0,.2h-2.49a1,1,0,0,0,1.07.94,1.14,1.14,0,0,0,.93-.45l.26.28A1.43,1.43,0,0,1,123.13,202.29Zm-1.06-1.74h2a1,1,0,0,0-1-1A1,1,0,0,0,122.07,200.55Z"/><path class="cls-15" d="M126,200.45l.38.18a.87.87,0,0,1,.63.83c0,.48-.38.83-1,.83a1,1,0,0,1-1-.76l.36-.19a.7.7,0,0,0,.7.55c.3,0,.51-.15.51-.43s-.14-.35-.44-.48l-.36-.17c-.38-.17-.64-.39-.64-.82a.83.83,0,0,1,.91-.8,1,1,0,0,1,1,.66l-.34.19a.65.65,0,0,0-.63-.46.43.43,0,0,0-.48.4C125.51,200.2,125.65,200.32,126,200.45Z"/><path class="cls-15" d="M127.5,202a.29.29,0,1,1,.57,0,.29.29,0,0,1-.57,0Z"/><path class="cls-21" d="M76.34,37.72h-2.1V35.88h6.32v1.84H78.45v7.16H76.34Z"/><path class="cls-21" d="M85.08,41.49h-.46v3.39H82.51v-9h3.56a2.91,2.91,0,0,1,3.08,2.85,2.68,2.68,0,0,1-1.87,2.56l2.07,3.59H87Zm2-2.71a1.07,1.07,0,0,0-1.18-1.06H84.62v2.14h1.24A1.08,1.08,0,0,0,87,38.78Z"/><path class="cls-21" d="M91.39,35.88H93.5v9H91.39Z"/><path class="cls-21" d="M95.79,44.88V43H99v-1.8h-.51a2.5,2.5,0,0,1-2.76-2.67,2.6,2.6,0,0,1,2.84-2.67H101v1.84H98.75a.84.84,0,1,0,0,1.67h2.38v5.49Z"/><path class="cls-21" d="M105.49,35.88h2.77l2.68,9h-2.29l-.45-1.74h-2.76L105,44.88H102.8Zm.43,5.42h1.81l-.88-3.36h0Z"/><path class="cls-21" d="M119.29,41.84h-4.41v3h-2.11v-9h6.52Zm-2.11-4.12h-2.3V40h2.3Z"/><path class="cls-21" d="M121.67,35.88h2.12v3.56h2.89V35.88h2.11v9h-2.11V41.29h-2.89v3.59h-2.12Z"/><path class="cls-21" d="M134,41.52h-.54v3.36h-2.11v-9h6.32v5.64h-1.35l2,3.36h-2.34Zm1.56-3.8h-2.1V39.8h2.1Z"/><path class="cls-21" d="M139.76,40.38a4.59,4.59,0,1,1,9.17,0,4.59,4.59,0,1,1-9.17,0Zm7,0c0-1.68-.92-2.8-2.43-2.8s-2.42,1.12-2.42,2.8.92,2.79,2.42,2.79S146.77,42.07,146.77,40.37Z"/><path class="cls-21" d="M156.39,44.88l-3.23-5.21h0v5.21h-2v-9h2.16l3.19,5.21h0V35.88h2v9Z"/><g id="stargazers_logo" data-name="stargazers logo"><path class="cls-2" d="M50,229.68a1.76,1.76,0,0,0,1.62-.78,1.18,1.18,0,0,0-.1-1.22L43.8,216a1.59,1.59,0,0,0-2.56,0l-7.7,11.71a1.18,1.18,0,0,0-.1,1.23,1.76,1.76,0,0,0,1.62.77h7.06l.32,1.19.34-1.19ZM51.09,228a.67.67,0,0,1,.08.72,1.32,1.32,0,0,1-1.19.52H42.92l.18-.64a1.38,1.38,0,0,0,.71-1.22.91.91,0,0,0,0-.17H44l0-.07a1.47,1.47,0,0,0,.07-.17c.56,0,1.43.61,1.6.38s-.82-1.82-1.15-2.36c0-.21,0-.43.05-.66s0-.42,0-.64A12.47,12.47,0,0,1,49.83,226ZM46,222.35h.31V222a.07.07,0,1,1,.14,0v.31h.31a.07.07,0,0,1,0,.14h-.31v.3a.07.07,0,0,1-.14,0v-.3H46a.07.07,0,0,1,0-.14Zm-1.11-1.76.18-.48.18.48.48.18-.48.18-.18.49-.18-.49-.48-.18Zm-2.71-3.41.19-.63.2.63.63.19-.63.2-.2.63-.19-.63-.64-.2Zm-3.67,4.73H39v-.47a.1.1,0,0,1,.1-.11.11.11,0,0,1,.11.11v.47h.47a.11.11,0,0,1,.11.11.1.1,0,0,1-.11.1h-.47v.48a.1.1,0,0,1-.11.1.09.09,0,0,1-.1-.1v-.48h-.48a.09.09,0,0,1-.1-.1A.1.1,0,0,1,38.54,221.91Zm-2.76,3.25a10.53,10.53,0,0,1,4.54-2.37,5.92,5.92,0,0,1,2-4l.17-.15.17.16a6.79,6.79,0,0,1,2,3.92A9.1,9.1,0,0,1,49.12,225l.39.58a9,9,0,0,0-5-2.58,6.65,6.65,0,0,0-1.95-4l-.07-.07-.08.06a5.8,5.8,0,0,0-2,4,10.7,10.7,0,0,0-5,2.7Zm1,4,.29-1.57.15-.07.56,1.64Zm2.33,0-1.41-2-.22,0,.13.37,1.09,1.62h-.57l-.77-2-.45.28-.43,1.74H35.06a1.34,1.34,0,0,1-1.19-.51A.68.68,0,0,1,34,228L35.2,226a16.33,16.33,0,0,1,5.21-2.34c0,.14,0,.28,0,.43s0,.52.07.76c-.3.47-1.36,2.2-1.19,2.41s1.09-.42,1.65-.38l.06.17,0,.07h.11c0,.05,0,.11,0,.17a1.37,1.37,0,0,0,.67,1.19l.18.67ZM41.78,227a8.35,8.35,0,0,1-.58-3.71.09.09,0,0,0-.09-.1.11.11,0,0,0-.1.09,8.35,8.35,0,0,0,.57,3.72h-.4a10.23,10.23,0,0,1-.55-2.84A6.41,6.41,0,0,1,41.74,220a2.09,2.09,0,0,0,1.36.08c.46.68,1.62,2.94.16,6.87Z"/><path class="cls-2" d="M42.53,221.47c-.52,0-.94.91-.94,1.43a.95.95,0,1,0,1.89,0C43.48,222.38,43.06,221.47,42.53,221.47ZM42.14,223a.24.24,0,1,1,.24-.24A.24.24,0,0,1,42.14,223Z"/><path class="cls-2" d="M42.53,224.36a.5.5,0,0,0-.49.5c0,.27.22,1.14.49,1.14s.5-.87.5-1.14A.5.5,0,0,0,42.53,224.36Z"/><path class="cls-2" d="M41.15,222.82a.11.11,0,0,0,0,.22.11.11,0,0,0,0-.22Z"/><path class="cls-2" d="M46.16,228.54a2,2,0,0,0,.51-.09l.34-.12a1.23,1.23,0,0,0,.75.25A1.25,1.25,0,0,0,49,227.33a.28.28,0,0,0,0-.09c.45-.32.79-.67.67-.88s-.34-.16-.79,0l-.26.09a1.22,1.22,0,0,0-.86-.35,1.25,1.25,0,0,0-1.25,1.25,1.94,1.94,0,0,0,0,.24l-.24.18c-.35.3-.49.52-.4.68A.29.29,0,0,0,46.16,228.54Zm1.6-.16a1.08,1.08,0,0,1-.53-.14,8.36,8.36,0,0,0,.8-.39c.23-.13.51-.29.78-.47A1.06,1.06,0,0,1,47.76,228.38Zm1.64-1.94a.22.22,0,0,1,.1,0c0,.07-.17.28-.53.56a1.3,1.3,0,0,0-.2-.43A2.48,2.48,0,0,1,49.4,226.44Zm-.61.71a9,9,0,0,1-.86.53,8.35,8.35,0,0,1-.88.42,1,1,0,0,1-.29-.45,8.23,8.23,0,0,1,.86-.54c.36-.19.68-.34,1-.45A1,1,0,0,1,48.79,227.15Zm-1-.87a1.08,1.08,0,0,1,.66.23,7.19,7.19,0,0,0-.89.43,7.73,7.73,0,0,0-.82.5v-.11A1,1,0,0,1,47.76,226.28Zm-1.17,1.49a1.33,1.33,0,0,0,.25.41c-.45.16-.73.2-.78.15S46.22,228.05,46.59,227.77Z"/><path class="cls-2" d="M35.82,227.21l-.63.41c0,.31.21.29.21.29l.59-.39A.4.4,0,0,1,35.82,227.21Z"/><path class="cls-2" d="M37,226.32,35.9,227a.6.6,0,0,0,.26.48l1.15-.64A.76.76,0,0,1,37,226.32Z"/><path class="cls-2" d="M38.33,225.87a.57.57,0,0,1,0-.43l-1.14.7a.77.77,0,0,0,.37.67l1.2-.65A.5.5,0,0,1,38.33,225.87Z"/><path class="cls-2" d="M38.37,225.43s0,.12,0,.19a.19.19,0,0,1,.22.1c.08.13.09.23,0,.3a.58.58,0,0,0,.18.07s.13-.16,0-.46A.38.38,0,0,0,38.37,225.43Z"/><path class="cls-2" d="M33.33,231.28a.82.82,0,0,0-.81.82v.36a.64.64,0,0,0,.13.45l1,1.8s0,0,0,.12v.35a.37.37,0,1,1-.73,0v-.24a.11.11,0,0,0-.11-.11h-.23a.11.11,0,0,0-.11.11v.24a.82.82,0,1,0,1.63,0v-.35a.61.61,0,0,0-.14-.45l-1-1.8s0,0,0-.12v-.36a.37.37,0,0,1,.73,0v.24a.1.1,0,0,0,.11.11H34a.11.11,0,0,0,.11-.11v-.24A.82.82,0,0,0,33.33,231.28Z"/><path class="cls-2" d="M35.59,231.28H34.5a.12.12,0,0,0-.12.12v.22a.12.12,0,0,0,.12.12h.32v4.14a.11.11,0,0,0,.11.12h.23a.11.11,0,0,0,.11-.12v-4.14h.32a.11.11,0,0,0,.11-.12v-.22A.12.12,0,0,0,35.59,231.28Z"/><path class="cls-2" d="M39.08,231.28h-.59a.23.23,0,0,0-.22.23v4.37a.11.11,0,0,0,.11.12h.23a.12.12,0,0,0,.11-.12v-2h.36a.37.37,0,0,1,.36.37v1.65a.12.12,0,0,0,.12.12h.22a.12.12,0,0,0,.12-.12v-1.65a.82.82,0,0,0-.25-.59.84.84,0,0,0,.25-.59v-.94A.82.82,0,0,0,39.08,231.28Zm.36,1.77a.36.36,0,0,1-.36.36h-.36v-1.67h.36a.36.36,0,0,1,.36.37Z"/><path class="cls-2" d="M41.3,231.28a.82.82,0,0,0-.82.82v3.08a.82.82,0,0,0,.82.82.82.82,0,0,0,.81-.82v-1.66a.11.11,0,0,0-.11-.12h-.59a.11.11,0,0,0-.11.12v.22a.11.11,0,0,0,.11.12h.25v1.32a.36.36,0,0,1-.72,0V232.1a.36.36,0,1,1,.72,0v.24a.11.11,0,0,0,.11.11H42a.1.1,0,0,0,.11-.11v-.24A.82.82,0,0,0,41.3,231.28Z"/><path class="cls-2" d="M46.45,231.28H45a.12.12,0,0,0-.11.12v.22a.11.11,0,0,0,.11.12H46.1v.73a.31.31,0,0,1,0,.11l-1,1.81a.64.64,0,0,0-.13.45v1A.11.11,0,0,0,45,236h1.41a.11.11,0,0,0,.11-.12v-.22a.12.12,0,0,0-.11-.12H45.38v-.7c0-.08,0-.08,0-.12l1-1.8c.14-.25.14-.25.14-.45V231.4A.12.12,0,0,0,46.45,231.28Z"/><path class="cls-2" d="M48.15,231.28H47.3a.23.23,0,0,0-.22.23v4.26a.22.22,0,0,0,.22.23h.85a.11.11,0,0,0,.11-.12v-.22a.12.12,0,0,0-.11-.12h-.62v-1.67h.62a.12.12,0,0,0,.11-.11v-.23a.11.11,0,0,0-.11-.11h-.62v-1.68h.62a.11.11,0,0,0,.11-.12v-.22A.12.12,0,0,0,48.15,231.28Z"/><path class="cls-2" d="M49.59,231.28H49a.23.23,0,0,0-.22.23v4.37a.11.11,0,0,0,.11.12h.23a.12.12,0,0,0,.11-.12v-2h.36a.37.37,0,0,1,.36.37v1.65a.12.12,0,0,0,.12.12h.22a.12.12,0,0,0,.12-.12v-1.65a.82.82,0,0,0-.25-.59.84.84,0,0,0,.25-.59v-.94A.82.82,0,0,0,49.59,231.28Zm.36,1.77a.36.36,0,0,1-.36.36h-.36v-1.67h.36a.36.36,0,0,1,.36.37Z"/><path class="cls-2" d="M52.18,232.45h.23a.11.11,0,0,0,.11-.11v-.24a.82.82,0,1,0-1.63,0v.36a.64.64,0,0,0,.13.45l1,1.8s0,0,0,.12v.35a.37.37,0,1,1-.73,0v-.24a.11.11,0,0,0-.11-.11H51a.11.11,0,0,0-.11.11v.24a.82.82,0,1,0,1.63,0v-.35a.61.61,0,0,0-.14-.45l-1-1.8s0,0,0-.12v-.36a.37.37,0,0,1,.73,0v.24A.1.1,0,0,0,52.18,232.45Z"/><path class="cls-2" d="M43.53,231.28a.83.83,0,0,0-.83.83v3.77a.12.12,0,0,0,.12.12H43a.12.12,0,0,0,.12-.12v-1.79l.73-.45v2.24A.11.11,0,0,0,44,236h.23a.11.11,0,0,0,.11-.12v-3.77A.82.82,0,0,0,43.53,231.28Zm.36,1.91-.73.45v-1.53a.36.36,0,0,1,.37-.37.37.37,0,0,1,.36.37Z"/><path class="cls-2" d="M36.9,231.28a.83.83,0,0,0-.82.83v3.77a.11.11,0,0,0,.11.12h.23a.11.11,0,0,0,.11-.12v-1.79l.73-.45v2.24a.11.11,0,0,0,.11.12h.23a.11.11,0,0,0,.11-.12v-3.77A.82.82,0,0,0,36.9,231.28Zm.36,1.91-.73.45v-1.53a.37.37,0,1,1,.73,0Z"/></g><g id="big_star_logo" data-name="big star logo"><path class="cls-2" d="M138.92,232.19s0,0,0,0a.44.44,0,0,1-.31.33c-.18.05-.3,0-.3-.21a.55.55,0,0,1,.37-.54c.16,0,.28,0,.28.18v0l-.07,0h0a.13.13,0,0,0-.19-.13.43.43,0,0,0-.27.43c0,.14.08.2.2.16a.29.29,0,0,0,.22-.23h0Z"/><path class="cls-2" d="M139.75,232.23c-.18,0-.29,0-.29-.21a.57.57,0,0,1,.39-.55c.18-.05.29,0,.29.21A.58.58,0,0,1,139.75,232.23Zm0-.08a.45.45,0,0,0,.3-.44.15.15,0,0,0-.2-.16.44.44,0,0,0-.3.44A.15.15,0,0,0,139.75,232.15Z"/><path class="cls-2" d="M140.62,232h0l.09-.38.07-.34s0,0,0,0l.08,0h0l-.08.34-.07.32.31-.09a0,0,0,0,1,0,0v.06h0Z"/><path class="cls-2" d="M141.56,231.73h0l.09-.38.07-.34s0,0,0,0l.07,0h0l-.08.34-.06.32.31-.09h0l0,.06h0Z"/><path class="cls-2" d="M142.49,231.48h0l.09-.38.07-.34v0l.42-.11h0v.07l-.34.09-.05.23.31-.09h0V231h0l-.32.09-.06.27.35-.09h0l0,.06a0,0,0,0,1,0,0Z"/><path class="cls-2" d="M144.12,230.8s0,0,0,0a.46.46,0,0,1-.32.34c-.18,0-.3,0-.3-.22a.55.55,0,0,1,.38-.53c.15,0,.27,0,.27.18s0,0,0,0l-.07,0h0c0-.1-.07-.15-.19-.12a.42.42,0,0,0-.27.42c0,.14.08.2.2.17a.29.29,0,0,0,.22-.23l0,0Z"/><path class="cls-2" d="M144.73,230.88s0,0,0,0l.08-.36.06-.3-.19.06a0,0,0,0,1,0,0v-.06h0l.48-.13h0v.07l-.19.05-.08.3-.07.35v0Z"/><path class="cls-2" d="M145.56,230.66h0l.08-.37.08-.35s0,0,0,0l.08,0s0,0,0,0l-.08.36-.07.36,0,0Z"/><path class="cls-2" d="M146.53,230.4l-.29.07s0,0,0,0l.08-.37.07-.35h0l.24-.07c.15,0,.24,0,.22.13a.29.29,0,0,1-.17.19c.1,0,.13.06.12.15A.4.4,0,0,1,146.53,230.4Zm-.18,0,.18-.05a.22.22,0,0,0,.19-.17c0-.11-.05-.13-.14-.1l-.18,0Zm.07-.35.19-.05a.22.22,0,0,0,.17-.15c0-.09,0-.11-.14-.09l-.16.05Z"/><path class="cls-2" d="M147.34,230.18s0,0,0,0l.09-.38.07-.34v0l.08,0s0,0,0,0l-.08.34-.06.32.31-.09h0l0,.06h0Z"/><path class="cls-2" d="M148.27,229.93a0,0,0,0,1,0,0l.09-.37.07-.35v0l.43-.11s0,0,0,0v.06h0l-.33.09-.06.23.31-.09h0v.06a0,0,0,0,1,0,0l-.32.09-.05.28.34-.1h0l0,.06h0Z"/><path class="cls-2" d="M149.83,229.3a.35.35,0,0,1-.28.3c-.17,0-.29,0-.28-.17a0,0,0,0,1,0,0l.08,0s0,0,0,0,.06.16.19.12a.2.2,0,0,0,.17-.18c0-.16-.38,0-.38-.2a.33.33,0,0,1,.27-.29c.16,0,.26,0,.26.14v0l-.08,0h0c0-.09-.05-.12-.16-.09s-.18.1-.18.17S149.83,229.07,149.83,229.3Z"/><path class="cls-2" d="M150.88,226.37a1.56,1.56,0,0,1-1.49,1.26,1.17,1.17,0,0,1-.91-.41,1.09,1.09,0,0,1-.24-.48l.79-.21a.33.33,0,0,0,.07.17.41.41,0,0,0,.29.12.73.73,0,0,0,.68-.59.33.33,0,0,0-.29-.44l-.26,0a1,1,0,0,1-.7-.4,1.06,1.06,0,0,1-.18-.8,1.32,1.32,0,0,1,1.26-1.06,1,1,0,0,1,.78.35,1.2,1.2,0,0,1,.2.39l-.79.21,0-.07a.22.22,0,0,0-.16-.06.49.49,0,0,0-.45.38.21.21,0,0,0,0,.17.23.23,0,0,0,.14.08l.26,0a1.12,1.12,0,0,1,.79.46A1.17,1.17,0,0,1,150.88,226.37Z"/><polygon class="cls-2" points="154.19 222.31 154.03 223.2 153.11 223.44 152.51 226.84 151.64 227.08 152.24 223.68 151.32 223.93 151.47 223.04 154.19 222.31"/><path class="cls-2" d="M159.88,222.43a1.11,1.11,0,0,0-.24-.92,1.07,1.07,0,0,0-.85-.39,1.4,1.4,0,0,0-.34,0l-.9.24-.75,4.29.87-.24.29-1.67.21,0,.84,1.36.82-.22-.85-1.37A1.47,1.47,0,0,0,159.88,222.43Zm-.81-.14a.61.61,0,0,1-.43.47l-.52.14.14-.84.4-.1a.32.32,0,0,1,.13,0,.29.29,0,0,1,.23.09A.32.32,0,0,1,159.07,222.29Z"/><polygon class="cls-2" points="157.18 227.89 158.02 231.01 154.74 229.81 150.7 232.99 152.44 228.97 150.44 228.24 151.82 227.88 153.53 228.5 152.73 230.35 154.59 228.89 156.83 229.7 156.26 227.58 157.98 226.22 159.98 225.69 157.18 227.89"/><path class="cls-2" d="M155.82,226h0l.79-.22-1.06-3.94-2.07,4.78,1-.27.89-2Z"/><polygon class="cls-2" points="143.11 225.28 142.35 229.57 141.48 229.8 142.24 225.51 143.11 225.28"/><path class="cls-2" d="M140.84,226.52a1.11,1.11,0,0,0-1.12-.33l-1,.26-.76,4.29,1.89-.51a1.47,1.47,0,0,0,1.06-1.14,1.17,1.17,0,0,0-.24-1h0a1.35,1.35,0,0,0,.39-.72A1.08,1.08,0,0,0,140.84,226.52Zm-.72,2.42a.68.68,0,0,1-.46.51l-.65.17.16-.9.52-.14h.13a.3.3,0,0,1,.25.1A.33.33,0,0,1,140.12,228.94Zm.14-1.67a.54.54,0,0,1-.38.42l-.56.15.13-.74.48-.12H140a.24.24,0,0,1,.2.07A.29.29,0,0,1,140.26,227.27Z"/><path class="cls-2" d="M147.23,226.85a2.41,2.41,0,0,1-.73,1.38,2.05,2.05,0,0,1-1.38.52,1.58,1.58,0,0,1-1.25-.55,1.87,1.87,0,0,1-.35-1.56,2.29,2.29,0,0,1,2.18-2,1.47,1.47,0,0,1,1.17.52,1.32,1.32,0,0,1,.19.29l-.82.22a.7.7,0,0,0-.54-.21,1.48,1.48,0,0,0-1.37,1.3,1.07,1.07,0,0,0,.17.9.76.76,0,0,0,.62.26,1.29,1.29,0,0,0,1.26-1.05l-1,.26h0l.1-.56,1.74-.47A2.57,2.57,0,0,1,147.23,226.85Z"/></g><g id="favorites"><path class="cls-15" d="M29.63,87.56h2v.69H30.42V89h1.14v.68H30.42v1.22h-.79Z"/><path class="cls-15" d="M33,87.56h1l1,3.38h-.86L34,90.28H33l-.17.66H32Zm.16,2h.68l-.33-1.25h0Z"/><path class="cls-15" d="M37.22,90.94h-1l-1-3.38H36l.68,2.6h0l.68-2.6h.82Z"/><path class="cls-15" d="M38.61,89.25A1.72,1.72,0,1,1,40.33,91,1.66,1.66,0,0,1,38.61,89.25Zm2.63,0a.92.92,0,0,0-.91-1c-.57,0-.91.41-.91,1s.34,1.05.91,1.05S41.24,89.88,41.24,89.24Z"/><path class="cls-15" d="M43.78,89.67H43.6v1.27h-.79V87.56h1.34a1.09,1.09,0,0,1,1.15,1.07,1,1,0,0,1-.7,1l.78,1.35h-.9Zm.73-1a.4.4,0,0,0-.44-.4H43.6v.8h.47A.4.4,0,0,0,44.51,88.65Z"/><path class="cls-15" d="M46.1,87.56h.79v3.38H46.1Z"/><path class="cls-15" d="M48.36,88.25h-.79v-.69h2.37v.69h-.79v2.69h-.79Z"/><path class="cls-15" d="M51.68,91c-.78,0-1.26-.42-1.26-1a.84.84,0,0,1,.6-.85.8.8,0,0,1-.5-.77c0-.55.46-.9,1.18-.9a1.3,1.3,0,0,1,1,.39l-.41.53a.81.81,0,0,0-.58-.22c-.31,0-.44.14-.44.32s.2.37.56.37h.46v.66h-.52c-.35,0-.54.15-.54.37s.17.39.49.39a.78.78,0,0,0,.58-.21l.39.52A1.19,1.19,0,0,1,51.68,91Z"/><path class="cls-15" d="M54.3,88.7l.63.38a1,1,0,0,1,.55.93,1,1,0,0,1-1.12,1,1.09,1.09,0,0,1-1.15-1l.69-.26c0,.2.16.52.48.52a.27.27,0,0,0,.3-.28c0-.12,0-.22-.23-.33l-.55-.34a1,1,0,0,1,.46-1.86,1,1,0,0,1,1.1.81l-.68.25c-.12-.3-.27-.37-.44-.37a.22.22,0,0,0-.25.22C54.09,88.55,54.18,88.62,54.3,88.7Z"/><path class="cls-15" d="M34.89,109.56h2v.69H35.68V111h1.14v.68H35.68v1.22h-.79Z"/><path class="cls-15" d="M37.46,111.25A1.73,1.73,0,1,1,39.18,113,1.66,1.66,0,0,1,37.46,111.25Zm2.64,0a.92.92,0,1,0-1.83,0c0,.64.35,1.05.91,1.05A.92.92,0,0,0,40.1,111.24Z"/><path class="cls-15" d="M41.51,111.25A1.73,1.73,0,1,1,43.23,113,1.66,1.66,0,0,1,41.51,111.25Zm2.64,0a.92.92,0,1,0-1.83,0c0,.64.35,1.05.91,1.05A.92.92,0,0,0,44.15,111.24Z"/><path class="cls-15" d="M45.72,112.94v-3.38H46.9a1.69,1.69,0,1,1,0,3.38Zm2.1-1.7a.89.89,0,0,0-.92-1h-.39v2h.39A.9.9,0,0,0,47.82,111.24Z"/><path class="cls-15" d="M49.3,110.72a.45.45,0,0,1,.45-.44.44.44,0,0,1,.44.44.44.44,0,0,1-.44.44A.45.45,0,0,1,49.3,110.72Zm0,1.59a.45.45,0,0,1,.45-.44.44.44,0,0,1,.44.44.44.44,0,0,1-.44.44A.45.45,0,0,1,49.3,112.31Z"/><path class="cls-15" d="M31.53,116.94h-.27v-.31h.27V116h.36v.62h.71v.31h-.71v1.68h.64v.32h-1Z"/><path class="cls-15" d="M32.83,117.78A1.22,1.22,0,1,1,34.05,119,1.19,1.19,0,0,1,32.83,117.78Zm2.08,0a.86.86,0,1,0-.86.9A.85.85,0,0,0,34.91,117.78Z"/><path class="cls-15" d="M39,118.94h-.36v-1.53a.53.53,0,1,0-1.05,0v1.53h-.36v-1.53a.5.5,0,0,0-.52-.53.51.51,0,0,0-.53.53v1.53h-.36v-1.53a.84.84,0,0,1,.89-.85.78.78,0,0,1,.71.38.78.78,0,0,1,.71-.38.82.82,0,0,1,.87.85Z"/><path class="cls-15" d="M40.79,115.56h.36v2.06h.24a.71.71,0,0,0,.8-.75,2.29,2.29,0,0,0,0-.25h.36a1.72,1.72,0,0,1,0,.26,1,1,0,0,1-.54.93l.66,1.12h-.42l-.58-1-.27,0h-.25v1h-.36Z"/><path class="cls-15" d="M44.16,116.56a.93.93,0,0,1,.89.48h0a1.7,1.7,0,0,1,0-.25v-.16h.34v2.31h-.34v-.22a1.93,1.93,0,0,1,0-.25h0a.94.94,0,0,1-.9.54,1.23,1.23,0,0,1,0-2.45Zm.88,1.22a.87.87,0,1,0-.87.9A.85.85,0,0,0,45,117.78Z"/><path class="cls-15" d="M48.24,116.56a.94.94,0,0,1,.91.48h0c0-.07,0-.14,0-.24v-.17h.34V120H47.75v-.32h1.38v-1a1.85,1.85,0,0,1,0-.25h0a.91.91,0,0,1-.88.49,1.14,1.14,0,0,1-1.16-1.19A1.12,1.12,0,0,1,48.24,116.56Zm-.78,1.18a.85.85,0,1,0,.84-.86A.83.83,0,0,0,47.46,117.74Z"/><path class="cls-15" d="M51.24,116.56a.94.94,0,0,1,.89.48h0a1.7,1.7,0,0,1,0-.25v-.16h.34v2.31h-.34v-.22a1.93,1.93,0,0,1,0-.25h0a1,1,0,0,1-.9.54,1.23,1.23,0,0,1,0-2.45Zm.88,1.22a.87.87,0,1,0-.87.9A.85.85,0,0,0,52.12,117.78Z"/><path class="cls-15" d="M53.13,116a.22.22,0,0,1,.23-.22.23.23,0,0,1,.23.22.23.23,0,0,1-.23.24A.23.23,0,0,1,53.13,116Zm0,3v-2.31h.36v2.31Z"/><path class="cls-15" d="M36.24,138.25v2.69h-.8v-2.69h-.77v2.69h-.8v-3.38H37.8v3.38H37v-2.69Z"/><path class="cls-15" d="M41.33,139.7a1.33,1.33,0,0,1-2.65,0v-2.14h.8v2.22a.53.53,0,0,0,1.05,0v-2.22h.8Z"/><path class="cls-15" d="M43.13,138.7l.63.38a1,1,0,0,1,.55.93,1,1,0,0,1-1.12,1A1.07,1.07,0,0,1,42,140l.69-.26c0,.2.16.52.48.52a.27.27,0,0,0,.3-.28c0-.12,0-.22-.23-.33l-.55-.34a1,1,0,0,1-.59-.9,1,1,0,0,1,1-1,1.05,1.05,0,0,1,1.11.81l-.68.25c-.12-.3-.28-.37-.44-.37a.23.23,0,0,0-.26.22C42.91,138.55,43,138.62,43.13,138.7Z"/><path class="cls-15" d="M45.1,137.56h.79v3.38H45.1Z"/><path class="cls-15" d="M49.22,138.65a1,1,0,0,0-.85-.45.92.92,0,0,0-.91,1c0,.64.35,1,.91,1a1,1,0,0,0,.85-.45l.52.47a1.57,1.57,0,0,1-1.37.7,1.64,1.64,0,0,1-1.72-1.76,1.66,1.66,0,0,1,1.72-1.76,1.59,1.59,0,0,1,1.39.71Z"/><path class="cls-15" d="M50.32,138.72a.44.44,0,1,1,.88,0,.44.44,0,0,1-.88,0Zm0,1.59a.44.44,0,1,1,.88,0,.44.44,0,0,1-.88,0Z"/><path class="cls-15" d="M32.42,145.25a.86.86,0,0,0-.72-.37.9.9,0,1,0,.73,1.4l.22.22a1.12,1.12,0,0,1-.95.51,1.23,1.23,0,1,1,0-2.45,1.12,1.12,0,0,1,.94.47Z"/><path class="cls-15" d="M33.12,143.56h.36v3.06h.66v.32h-1Z"/><path class="cls-15" d="M35.53,144.56a1,1,0,0,1,.89.48h0a1.7,1.7,0,0,1,0-.25v-.16h.33v2.31h-.33v-.22a1.93,1.93,0,0,1,0-.25h0a1,1,0,0,1-.9.54,1.23,1.23,0,0,1,0-2.45Zm.88,1.22a.87.87,0,1,0-.87.9A.85.85,0,0,0,36.41,145.78Z"/><path class="cls-15" d="M38,145.55l.31.14a.72.72,0,0,1,.5.66.7.7,0,0,1-.79.66.78.78,0,0,1-.81-.6l.28-.16a.55.55,0,0,0,.55.44c.24,0,.41-.12.41-.34s-.12-.27-.35-.38l-.29-.13c-.3-.14-.5-.31-.5-.65a.66.66,0,0,1,.72-.63.79.79,0,0,1,.78.52l-.27.15a.53.53,0,0,0-.5-.37.34.34,0,0,0-.38.32C37.7,145.35,37.81,145.45,38,145.55Z"/><path class="cls-15" d="M40,145.55l.3.14a.7.7,0,0,1,.5.66c0,.38-.3.66-.79.66a.79.79,0,0,1-.81-.6l.29-.16a.54.54,0,0,0,.55.44c.24,0,.4-.12.4-.34s-.11-.27-.35-.38l-.28-.13c-.3-.14-.51-.31-.51-.65a.66.66,0,0,1,.72-.63.78.78,0,0,1,.78.52l-.27.15a.52.52,0,0,0-.5-.37.35.35,0,0,0-.38.32C39.62,145.35,39.73,145.45,40,145.55Z"/><path class="cls-15" d="M41.27,144a.22.22,0,0,1,.23-.22.23.23,0,0,1,.23.22.23.23,0,0,1-.23.24A.23.23,0,0,1,41.27,144Zm0,3v-2.31h.36v2.31Z"/><path class="cls-15" d="M44.17,145.25a.86.86,0,0,0-.72-.37.9.9,0,1,0,.73,1.4l.22.22a1.12,1.12,0,0,1-.95.51,1.23,1.23,0,1,1,0-2.45,1.13,1.13,0,0,1,.94.47Z"/><path class="cls-15" d="M47.06,144.63V145h-.67v2H46v-2.31Z"/><path class="cls-15" d="M47.24,145.78A1.22,1.22,0,1,1,48.46,147,1.19,1.19,0,0,1,47.24,145.78Zm2.08,0a.86.86,0,1,0-.86.9A.85.85,0,0,0,49.32,145.78Z"/><path class="cls-15" d="M52,145.25a.88.88,0,1,0-.72,1.43.87.87,0,0,0,.74-.4l.22.22a1.12,1.12,0,0,1-1,.51,1.23,1.23,0,1,1,0-2.45,1.14,1.14,0,0,1,.95.47Z"/><path class="cls-15" d="M52.69,143.56h.36v2.06h.24a.71.71,0,0,0,.8-.75,2.29,2.29,0,0,0,0-.25h.36a1.72,1.72,0,0,1,0,.26,1,1,0,0,1-.54.93l.66,1.12h-.42l-.58-1-.27,0h-.25v1h-.36Z"/><path class="cls-15" d="M34.15,166.68A1.12,1.12,0,0,1,33,167.8h-.59v1.14h-.8v-3.38H33A1.11,1.11,0,0,1,34.15,166.68Zm-.79,0a.41.41,0,0,0-.44-.44h-.51v.87h.51A.42.42,0,0,0,33.36,166.69Z"/><path class="cls-15" d="M37.26,168.94h-.78v-.88h-.87v.88h-.79v-2.25a1.22,1.22,0,0,1,2.44,0Zm-1.65-1.56h.87v-.64c0-.39-.19-.54-.44-.54s-.43.15-.43.54Z"/><path class="cls-15" d="M39.06,166.7l.64.38a1.05,1.05,0,0,1,.55.93,1,1,0,0,1-1.12,1A1.09,1.09,0,0,1,38,168l.69-.26c0,.2.17.52.48.52a.27.27,0,0,0,.3-.28c0-.12,0-.22-.22-.33l-.56-.34a1,1,0,0,1,.46-1.86,1,1,0,0,1,1.1.81l-.68.25c-.11-.3-.27-.37-.43-.37a.23.23,0,0,0-.26.22C38.85,166.55,38.94,166.62,39.06,166.7Z"/><path class="cls-15" d="M41.54,166.25h-.79v-.69h2.37v.69h-.79v2.69h-.79Z"/><path class="cls-15" d="M43.81,165.56h.79v3.38h-.79Z"/><path class="cls-15" d="M46.88,168.23l-.59-1.3h0v2h-.76v-3.38h1l.72,1.66h0l.76-1.66h.92v3.38h-.75v-2h0l-.6,1.3Z"/><path class="cls-15" d="M49.82,165.56h2v.69H50.61v.65h1.13v.67H50.61v.67h1.24v.7h-2Z"/><path class="cls-15" d="M52.58,166.72a.44.44,0,1,1,.88,0,.44.44,0,0,1-.88,0Zm0,1.59a.44.44,0,1,1,.88,0,.44.44,0,0,1-.88,0Z"/><path class="cls-15" d="M34.44,171.56h.37v2.06H35a.71.71,0,0,0,.8-.75,1.1,1.1,0,0,0,0-.25h.37a1.93,1.93,0,0,1,0,.26,1,1,0,0,1-.53.93l.65,1.12H35.9l-.58-1-.27,0h-.24v1h-.37Z"/><path class="cls-15" d="M38.71,172.63v2.31h-.36v-2H37.17v2h-.36v-2.31Z"/><path class="cls-15" d="M39.37,172a.22.22,0,0,1,.23-.22.23.23,0,0,1,.23.22.23.23,0,0,1-.23.24A.23.23,0,0,1,39.37,172Zm.05,3v-2.31h.36v2.31Z"/><path class="cls-15" d="M40.57,172.94h-.26v-.31h.26V172h.36v.62h.72v.31h-.72v1.68h.65v.32h-1Z"/><path class="cls-15" d="M42.17,172.94H41.9v-.31h.27V172h.36v.62h.71v.31h-.71v1.68h.64v.32h-1Z"/><path class="cls-15" d="M43.63,172a.22.22,0,0,1,.23-.22.23.23,0,0,1,.23.22.23.23,0,0,1-.23.24A.23.23,0,0,1,43.63,172Zm0,3v-2.31H44v2.31Z"/><path class="cls-15" d="M46.65,172.63v2.31h-.36v-2H45.11v2h-.36v-2.31Z"/><path class="cls-15" d="M48.35,172.56a.93.93,0,0,1,.9.48h0a1.7,1.7,0,0,1,0-.24v-.17h.33V176H47.86v-.32h1.37v-1a1.69,1.69,0,0,1,0-.25h0a.91.91,0,0,1-.87.49,1.15,1.15,0,0,1-1.17-1.19A1.13,1.13,0,0,1,48.35,172.56Zm-.79,1.18a.85.85,0,1,0,.84-.86A.83.83,0,0,0,47.56,173.74Z"/><path class="cls-15" d="M50.5,175.19l-.19.44-.16-.06.17-.44.06-.14a.24.24,0,0,1-.2-.24.22.22,0,0,1,.22-.23.21.21,0,0,1,.23.23A1.17,1.17,0,0,1,50.5,175.19Z"/><path class="cls-15" d="M36.25,180.94h-.53l-.55-2h0l-.55,2H34.1l-.62-2.31h.38l.49,2h0l.53-2h.54l.54,2h0l.49-2h.38Z"/><path class="cls-15" d="M38.34,181a1.23,1.23,0,0,1,0-2.45,1.14,1.14,0,0,1,1.14,1.22s0,.12,0,.16h-2a.82.82,0,0,0,.85.74.91.91,0,0,0,.73-.35l.21.22A1.13,1.13,0,0,1,38.34,181Zm-.84-1.38h1.62a.76.76,0,0,0-.79-.75A.82.82,0,0,0,37.5,179.63Z"/><path class="cls-15" d="M41,178.56a.93.93,0,0,1,.89.48h0c0-.07,0-.13,0-.25v-.16h.34v2.31h-.34v-.22c0-.1,0-.17,0-.25h0a.94.94,0,0,1-.9.54,1.23,1.23,0,0,1,0-2.45Zm.89,1.22a.87.87,0,1,0-.87.9A.85.85,0,0,0,41.92,179.78Z"/><path class="cls-15" d="M43.57,180.94l-.87-2.31h.4l.7,2h0l.71-2h.39L44,180.94Z"/><path class="cls-15" d="M45.29,178a.23.23,0,0,1,.46,0,.23.23,0,1,1-.46,0Zm.05,3v-2.31h.36v2.31Z"/><path class="cls-15" d="M48.32,178.63v2.31H48v-2H46.78v2h-.36v-2.31Z"/><path class="cls-15" d="M50,178.56a.94.94,0,0,1,.91.48h0c0-.07,0-.14,0-.24v-.17h.34V182H49.52v-.32H50.9v-1a1.85,1.85,0,0,1,0-.25h0a.91.91,0,0,1-.88.49,1.14,1.14,0,0,1-1.16-1.19A1.12,1.12,0,0,1,50,178.56Zm-.78,1.18a.85.85,0,1,0,.84-.86A.83.83,0,0,0,49.23,179.74Z"/><line class="cls-22" x1="47.52" y1="99.58" x2="37.52" y2="99.58"/><line class="cls-22" x1="47.52" y1="127.56" x2="37.52" y2="127.56"/><line class="cls-22" x1="47.52" y1="155.54" x2="37.52" y2="155.54"/></g></g></g></svg>