<?xml version="1.0" encoding="utf-8"?>
<!-- Generator: Adobe Illustrator 25.2.0, SVG Export Plug-In . SVG Version: 6.00 Build 0)  -->
<svg version="1.1" id="Layer_1" xmlns="http://www.w3.org/2000/svg" xmlns:xlink="http://www.w3.org/1999/xlink" x="0px" y="0px"
	 viewBox="0 0 239.2 444.1" style="enable-background:new 0 0 239.2 444.1;" xml:space="preserve">
<style type="text/css">
	.st0{fill:#00D0D0;}
	.st1{fill:#00A0A0;}
	.st2{fill:#CBCBCB;}
	.st3{fill:#4D4D4D;}
	.st4{fill:#C0272D;}
	.st5{fill:#B2B2B2;}
	.st6{fill:#02799E;}
	.st7{fill:#02526B;}
	.st8{fill:#023E51;}
	.st9{fill:#9D2025;}
	.st10{fill:#989898;}
	.st11{fill:none;stroke:#CBCBCB;stroke-width:7.22;stroke-linecap:round;stroke-miterlimit:10;}
	.st12{fill:#008181;}
	.st13{fill:#FFFFFF;}
	.st14{clip-path:url(#SVGID_2_);}
	.st15{fill:#D43D40;}
	.st16{fill:#782224;}
	.st17{clip-path:url(#SVGID_4_);}
</style>
<g id="b-arm">
	<path class="st0" d="M109.3,211.7c4-0.2,7.4,2.7,7.9,6.6c0.4,3.9-2.8,7.4-7.2,7.8L109.3,211.7z"/>
	<path class="st0" d="M94.1,226l1-14.4c1.2,0.1,2.4,0.1,3.6,0.2l3.6,0.1c2.4,0,4.8-0.1,7.1-0.1l0.7,14.3c-2.7,0.1-5.3,0.2-7.9,0.2
		l-4-0.1C96.7,226.1,95.4,226.1,94.1,226z"/>
	<path class="st1" d="M103.1,211.9c-0.4,1.2-0.8,2.4-1,3.6c-0.4,2.4-0.4,4.8,0.1,7.1c0.2,1.2,0.6,2.4,0.9,3.7
		c-1-0.9-1.8-2.1-2.3-3.3c-0.5-1.3-0.7-2.6-0.7-3.9c0-1.4,0.3-2.7,0.8-3.9c0.3-0.6,0.6-1.2,1-1.7
		C102.2,212.8,102.6,212.3,103.1,211.9z"/>
	<path class="st0" d="M78.2,223.9l2.8-14.1c4.6,0.9,9.3,1.5,14,1.8L94,226C88.7,225.6,83.4,224.9,78.2,223.9z"/>
	<path class="st1" d="M88.9,211.1c-0.5,1.1-1,2.3-1.4,3.4c-0.4,1.1-0.6,2.3-0.7,3.5c-0.1,1.2-0.1,2.4,0,3.6c0.1,1.2,0.3,2.4,0.4,3.8
		c-0.9-1-1.5-2.3-1.9-3.6c-0.4-1.3-0.5-2.7-0.3-4c0.2-1.3,0.6-2.6,1.3-3.8c0.3-0.6,0.7-1.1,1.2-1.6
		C87.9,211.8,88.4,211.4,88.9,211.1z"/>
	<path class="st0" d="M62.7,219.7l4.7-13.6l3.3,1.1c1.1,0.4,2.3,0.6,3.4,0.9l3.4,0.9l3.5,0.7l-2.8,14.1l-3.9-0.8l-3.9-1
		c-1.3-0.4-2.6-0.6-3.9-1.1L62.7,219.7z"/>
	<path class="st1" d="M75,208.4c-0.7,1-1.3,2.1-1.8,3.2c-0.5,1.1-0.9,2.2-1.2,3.3c-0.3,1.2-0.5,2.3-0.5,3.5c-0.1,1.2,0,2.5-0.1,3.8
		c-0.7-1.1-1.2-2.4-1.4-3.7c-0.2-1.3-0.1-2.7,0.2-4c0.3-1.3,0.9-2.5,1.8-3.6c0.4-0.5,0.9-1,1.4-1.5C73.9,209.1,74.4,208.7,75,208.4z
		"/>
	<path class="st0" d="M47.9,213.4l6.7-12.7c1,0.6,2.1,1,3.1,1.5s2.1,1,3.2,1.5l3.2,1.3l1.6,0.7l1.7,0.6l-4.7,13.6l-1.9-0.6l-1.8-0.8
		l-3.8-1.5c-1.2-0.5-2.4-1.1-3.7-1.7S49.1,214,47.9,213.4z"/>
	<path class="st1" d="M61.8,204c-0.8,0.9-1.6,1.9-2.3,3c-0.7,1-1.2,2-1.7,3.1c-0.4,1.1-0.8,2.3-1,3.4c-0.3,1.2-0.4,2.4-0.6,3.7
		c-0.6-1.2-0.9-2.6-0.9-3.9c0-1.4,0.3-2.7,0.8-3.9c0.8-1.9,2.1-3.5,3.8-4.6C60.5,204.5,61.1,204.2,61.8,204z"/>
	<path class="st0" d="M34.2,204.7l8.6-11.5c3.7,2.8,7.7,5.3,11.8,7.4l-6.7,12.7C43.1,210.8,38.6,207.9,34.2,204.7z"/>
	<path class="st1" d="M49.3,197.6c-1,0.8-1.9,1.6-2.7,2.6c-0.8,0.9-1.5,1.8-2.1,2.8c-0.6,1-1.1,2.1-1.5,3.2
		c-0.4,1.1-0.8,2.4-1.2,3.6c-0.4-1.3-0.5-2.7-0.2-4.1c0.2-1.3,0.7-2.6,1.4-3.8c0.7-1.1,1.7-2.1,2.8-2.9c0.5-0.4,1.1-0.7,1.7-1
		C48.1,197.8,48.7,197.7,49.3,197.6z"/>
	<path class="st0" d="M22,194.1L32.3,184c1.7,1.6,3.3,3.3,5.1,4.8l2.6,2.3c0.9,0.7,1.9,1.4,2.8,2.1l-8.6,11.5
		c-1.1-0.8-2.2-1.6-3.2-2.4l-3.1-2.6C25.8,197.9,24,195.9,22,194.1z"/>
	<path class="st1" d="M38.1,189.4c-1.1,0.6-2.1,1.3-3.1,2.1c-0.9,0.8-1.8,1.6-2.5,2.5c-0.8,0.9-1.4,1.9-2,2.9
		c-0.6,1.1-1.1,2.2-1.7,3.4c-0.2-1.3-0.1-2.7,0.4-4c0.4-1.3,1.1-2.5,2-3.5c0.9-1,2-1.9,3.2-2.5c0.6-0.3,1.2-0.5,1.9-0.7
		C36.8,189.5,37.5,189.4,38.1,189.4z"/>
	<path class="st0" d="M22,194.1c-0.8-0.7-1.4-1.7-1.7-2.7c-0.4-0.9-0.6-1.9-0.5-2.9c0-1.9,0.9-3.8,2.4-5c1.5-1.2,3.4-1.8,5.3-1.7
		c0.9,0.1,1.8,0.3,2.6,0.6c0.8,0.4,1.6,1,2.3,1.6L22,194.1z"/>
</g>
<path id="b-hand" class="st0" d="M35.2,167.6c0-1.6-0.3-3.5-1.6-4.4c-2.1-1.5-5.1,0.6-6,3.1s-0.6,5.2-1.6,7.6
	c-0.5,1.2-1.5,2.4-2.8,2.4s-2.2-1.2-3-2.2l-6.5-9.1c-0.7-1.2-1.7-2.2-2.9-2.9c-1.3-0.7-2.9-0.5-3.8,0.6c-0.9,1.3-0.2,3.2,0.6,4.6
	l5.7,10.3c0.6,0.9,0.9,1.9,0.7,3c-0.6,2-3.7,1.7-5.3,0.5s-3.3-3.1-5.4-2.9s-3.5,2.8-3.1,5s2.2,3.8,4.1,5c7.1,4.5,15.7,3.2,22.5-1.1
	C33,183,35.2,174.9,35.2,167.6z"/>
<g id="body">
	<polygon class="st2" points="83.5,391.8 155,391.8 143.2,376.6 143.2,331.8 71.7,331.8 71.7,376.6 	"/>
	<polygon class="st2" points="63.8,376.6 135.3,376.6 147.1,391.8 75.6,391.8 	"/>
	<rect x="63.8" y="331.8" class="st2" width="71.5" height="44.7"/>
	<polygon class="st2" points="155,316.6 83.5,316.6 71.7,331.8 143.2,331.8 	"/>
	<polygon class="st2" points="147.1,316.6 75.6,316.6 63.8,331.8 135.3,331.8 	"/>
	<polygon class="st3" points="88.6,391.8 160.2,391.8 148.3,376.6 148.3,331.8 76.8,331.8 76.8,376.6 	"/>
	<polygon class="st3" points="68.9,376.6 140.4,376.6 152.3,391.8 80.7,391.8 	"/>
	<rect x="68.9" y="331.8" class="st3" width="71.5" height="44.7"/>
	<polygon class="st3" points="160.2,316.6 88.6,316.6 76.8,331.8 148.3,331.8 	"/>
	<polygon class="st3" points="152.3,316.6 80.7,316.6 68.9,331.8 140.4,331.8 	"/>
	<path class="st4" d="M163.6,215.6v101H73.5v-101c0-8,6.5-14.5,14.5-14.5h61.1C157.1,201.1,163.6,207.6,163.6,215.6
		C163.6,215.6,163.6,215.6,163.6,215.6z"/>
	<polygon class="st5" points="59.3,376.8 142.3,376.8 156.1,392 73,392 	"/>
	<path class="st6" d="M83.1,340h65.5c23.7,0,43,19.2,43,43v18.2c0,23.7-19.2,43-43,43H83.1c-23.7,0-43-19.2-43-43V383
		C40.1,359.3,59.4,340,83.1,340z"/>
	<path class="st7" d="M88.7,340h65.5c23.7,0,43,19.2,43,43v18.2c0,23.7-19.2,43-43,43H88.7c-23.7,0-43-19.2-43-43V383
		C45.7,359.3,64.9,340,88.7,340z"/>
	<path class="st8" d="M78.3,376.2h86.3c8.8,0,15.9,7.1,15.9,15.9v0c0,8.8-7.1,15.9-15.9,15.9H78.3c-8.8,0-15.9-7.1-15.9-15.9v0
		C62.4,383.3,69.5,376.2,78.3,376.2z"/>
	<path class="st9" d="M102.2,253v54.1c-11.5,0.4-18.5-0.7-28.7-1.8v-56.5H97C99.9,248.8,102.2,250.7,102.2,253z"/>
	<path class="st1" d="M126.9,150.3v37c-3,0.1-6.3,0.2-9.8,0.2s-6.7-0.1-9.8-0.2v-37H126.9z"/>
	<rect x="83.7" y="180.5" class="st2" width="68.9" height="21.4"/>
	<polygon class="st2" points="155.4,316.6 72.4,316.6 86.2,331.8 86.2,376.6 169.2,376.6 169.2,331.8 	"/>
	<polygon class="st5" points="178.3,331.8 95.3,331.8 81.6,316.6 164.6,316.6 	"/>
	<rect x="95.3" y="331.8" class="st10" width="83" height="44.7"/>
	<path class="st11" d="M163.7,313.6c-33.7,5-61.3,5.5-89.5,2.9"/>
	<polygon class="st2" points="72.4,391.8 155.4,391.8 169.2,376.6 86.2,376.6 	"/>
	<polygon class="st5" points="81.6,391.8 164.6,391.8 178.3,376.6 95.3,376.6 	"/>
	<rect x="86.2" y="331.8" class="st2" width="9.2" height="44.7"/>
	<path class="st5" d="M110.1,213.6c1.9-5.2,9.9-12.6,15.6-10.5c5.7,2.1,6.8,13,4.9,18.2s-12.6,19.6-18.2,17.5
		S108.1,218.8,110.1,213.6z"/>
	<path class="st2" d="M63.8,331.8c0,0,13,6.7,27,0l-6.4-12.2l-10.8-0.4L63.8,331.8z"/>
</g>
<g id="head">
	<path class="st0" d="M221.8,105.9c-13.3,7.3-29.4,8.7-42.3,16.7c-11.5,7.1-19.4,18.6-29.4,27.6c-6.4,5.7-14.5,10.5-22.8,11.8h-19.1
		c-18.2,0-30.2-14.2-36.5-35.2c-1-3.2-1.8-6.4-2.5-9.5c-0.2-0.9-0.4-1.8-0.6-2.7c-1.5-7.1-2.4-14.3-2.9-21.5V69.5
		c0-15.8,4.2-31.2,12-44.9c0,0,0,0,0-0.1c0.2-0.3,0.3-0.6,0.5-0.9c0.4-0.7,0.8-1.3,1.2-1.9C88.8,8.1,104.3-0.1,120.8,0h6.5
		c0.6,0,1.2,0.1,1.8,0.1c19.9,1.9,32.1,15.2,44.2,28.8c2.3,2.5,4.5,5.1,6.8,7.5c7.8,8.4,16.1,16,26.9,20.1c9.8,3.7,21.7,4,28.4,12
		C245,80.2,235.1,98.6,221.8,105.9z"/>
	<path class="st1" d="M152.4,30.7c6.9-5,11.7-12.5,13.4-20.9c0.2-1.1,0.6-2.4,1.7-2.4c0.7,0.1,1.3,0.4,1.6,1
		c5.5,5.9,10.4,12.3,14.7,19.1c-2,0.9-4.3-0.5-6-2s-3.9-2.9-5.9-2.2c-1.2,0.6-2.2,1.5-2.9,2.6l-9,12.5L152.4,30.7z"/>
	<path class="st12" d="M117,70.6c0,25.7-20.8,46.6-46.6,46.6c0,0,0,0,0,0c-0.4,0-0.8,0-1.2,0c-0.2-0.9-0.4-1.8-0.6-2.7
		c-1.5-7.1-2.5-14.3-3-21.5V69.5c0-15.8,4.2-31.2,12-44.9C92.6,27,105.5,36.5,112.2,50c0,0,0,0,0,0c2,4.1,3.4,8.5,4.2,13.1
		c0,0.1,0,0.3,0.1,0.4C116.8,65.9,117,68.2,117,70.6z"/>
	<path class="st13" d="M70.2,114.2c-0.6,0-1.2,0-1.8,0l0,0c-0.9,0-1.7-0.7-1.8-1.6l0,0c-1.5-7-2.4-14.1-2.9-21.3v-23
		c0-4.9,0.4-9.8,1.2-14.6c1.7-10.6,5.4-20.9,10.7-30.2l0.1-0.2l0,0l0.1-0.1c0.1-0.2,0.3-0.5,0.4-0.7l0,0c0.4-0.7,1.2-1,2-0.9l0,0
		c15.3,2.6,28.2,12.7,34.5,26.9l0.2,0.4l0,0c1.6,3.7,2.8,7.6,3.4,11.6c0.1,0.5,0.1,0.9,0.2,1.4c0.2,1.9,0.4,3.8,0.3,5.6
		C116.8,93.3,95.9,114.2,70.2,114.2z"/>
	<g>
		<defs>
			<path id="SVGID_1_" d="M70.4,116.5c-0.6,0-1.2,0-1.8,0H67l-0.3-1.6c-1.5-7.2-2.5-14.5-3-21.8V69.5c0-16.1,4.2-31.9,12.2-45.9
				l0.1-0.2l0,0l0.1-0.1c0.1-0.2,0.3-0.5,0.4-0.7l0.7-1.1l1.3,0.2c15.6,2.7,28.9,13,35.4,27.5l0.2,0.4l0,0c1.7,3.8,2.8,7.8,3.4,11.9
				c0.1,0.5,0.1,1,0.2,1.4c3.2,26.2-15.5,50-41.7,53.2C74.2,116.4,72.3,116.5,70.4,116.5L70.4,116.5z"/>
		</defs>
		<clipPath id="SVGID_2_">
			<use xlink:href="#SVGID_1_"  style="overflow:visible;"/>
		</clipPath>
		<g class="st14">
			<circle class="st15" cx="65.4" cy="68.7" r="27.1"/>
			<circle class="st16" cx="65.4" cy="68.7" r="18.2"/>
		</g>
	</g>
	<path class="st1" d="M116.1,66.2c-0.2,0-0.4,0-0.7,0c-0.4-0.1-0.8-0.2-1.2-0.3c-14-5.3-28.9-8-43.9-8c-1.1,0-2.3,0-3.4,0L64.7,58
		c-0.6,0-1.1-0.4-1.1-1c0-0.1,0-0.1,0-0.2l0.4-2.3c1.8-11,5.6-21.6,11.1-31.3l0.2-0.3l0,0l0,0c0.1-0.2,0.3-0.5,0.4-0.7
		c0.4-0.7,0.8-1.4,1.3-2l0,0c0.7-1,1.8-1.5,3-1.3l0,0c21.3,3.9,37,19.8,40.9,41.7c0.3,1.9-0.4,3.8-2,4.9c-0.7,0.5-1.5,0.8-2.3,0.8
		C116.4,66.2,116.2,66.2,116.1,66.2z"/>
	<g>
		<defs>
			<path id="SVGID_3_" d="M221.8,105.9c-13.3,7.3-29.4,8.7-42.3,16.7c-11.5,7.1-19.4,18.6-29.4,27.6c-6.4,5.7-14.5,10.5-22.8,11.8
				h-19.1c-18.2,0-30.2-14.2-36.5-35.2c-1-3.2-1.8-6.4-2.5-9.5c-0.2-0.9-0.4-1.8-0.6-2.7c-1.5-7.1-2.4-14.3-2.9-21.5V69.5
				c0-15.8,4.2-31.2,12-44.9c0,0,0,0,0-0.1c0.2-0.3,0.3-0.6,0.5-0.9c0.4-0.7,0.8-1.3,1.2-1.9C88.8,8.1,104.3-0.1,120.8,0h6.5
				c0.6,0,1.2,0.1,1.8,0.1c19.9,1.9,32.1,15.2,44.2,28.8c2.3,2.5,4.5,5.1,6.8,7.5c7.8,8.4,16.1,16,26.9,20.1c9.8,3.7,21.7,4,28.4,12
				C245,80.2,235.1,98.6,221.8,105.9z"/>
		</defs>
		<clipPath id="SVGID_4_">
			<use xlink:href="#SVGID_3_"  style="overflow:visible;"/>
		</clipPath>
		<g class="st17">
			<path class="st1" d="M93.8,127.6c-3.5,3.8-7.9,6.8-12.8,8.6c-4.9,2-10.1,2.9-15.4,2.8c-5.3,0.1-10.5-0.8-15.4-2.8
				c-4.9-1.9-9.2-4.8-12.8-8.6c4.2,2.7,8.8,4.7,13.6,6.2c4.7,1.4,9.6,2,14.5,1.9c4.9,0.1,9.8-0.5,14.5-1.9
				C85,132.4,89.6,130.3,93.8,127.6z"/>
		</g>
	</g>
</g>
<g id="f-arm">
	<path class="st0" d="M122.8,231.2c-3.8-1.2-5.9-5.2-4.9-9c1-3.8,5.3-5.9,9.5-4.6L122.8,231.2z"/>
	<path class="st0" d="M142.1,223.6l-6.1,13c-1.1-0.6-2.2-1-3.2-1.5l-3.3-1.4c-2.2-0.9-4.5-1.6-6.7-2.5l4.6-13.6
		c2.5,0.9,5,1.8,7.4,2.8l3.7,1.6C139.7,222.5,141,223,142.1,223.6z"/>
	<path class="st1" d="M128.6,233.4c0.8-0.9,1.5-1.9,2.2-3c0.6-1,1.2-2.1,1.6-3.2c0.4-1.1,0.8-2.3,1-3.5c0.2-1.2,0.4-2.5,0.5-3.8
		c0.6,1.2,0.9,2.6,0.9,3.9c0,1.4-0.2,2.7-0.7,3.9c-0.5,1.3-1.2,2.4-2.2,3.4c-0.5,0.5-1,0.9-1.5,1.3
		C129.9,232.9,129.3,233.2,128.6,233.4z"/>
	<path class="st0" d="M156.1,231.3l-7.8,12.1c-4-2.5-8.1-4.8-12.4-6.8l6.1-13C147,225.8,151.6,228.4,156.1,231.3z"/>
	<path class="st1" d="M141.5,239.4c0.9-0.8,1.8-1.7,2.5-2.7c0.8-0.9,1.4-1.9,2-3c0.6-1.1,1-2.2,1.4-3.3c0.4-1.2,0.6-2.4,1-3.7
		c0.4,1.3,0.6,2.6,0.5,4c-0.1,1.3-0.5,2.6-1.2,3.8c-0.7,1.2-1.5,2.2-2.6,3.1c-0.5,0.4-1.1,0.8-1.7,1.1
		C142.8,239,142.2,239.2,141.5,239.4z"/>
	<path class="st0" d="M169,240.9l-9.4,10.9l-2.6-2.2c-0.9-0.8-1.9-1.4-2.8-2.1l-2.8-2.1l-3-1.9l7.8-12.1l3.4,2.2l3.2,2.4
		c1.1,0.8,2.2,1.6,3.2,2.4L169,240.9z"/>
	<path class="st1" d="M153.4,246.9c1-0.7,2-1.5,2.9-2.4c0.9-0.8,1.6-1.7,2.3-2.7c0.7-1,1.3-2,1.8-3.1c0.5-1.1,1-2.3,1.4-3.5
		c0.3,1.3,0.3,2.7,0,4c-0.3,1.3-0.9,2.5-1.7,3.6c-0.8,1.1-1.8,2-3,2.7c-0.6,0.3-1.2,0.6-1.8,0.9
		C154.8,246.7,154.1,246.8,153.4,246.9z"/>
	<path class="st0" d="M180.5,252.2l-10.9,9.4c-0.8-0.9-1.6-1.7-2.4-2.6s-1.6-1.7-2.4-2.5l-2.5-2.4l-1.3-1.2l-1.4-1.1l9.4-10.9
		l1.6,1.3l1.5,1.4l2.9,2.8c1,0.9,1.9,1.9,2.8,2.9S179.6,251.2,180.5,252.2z"/>
	<path class="st1" d="M164.2,255.9c1.1-0.6,2.2-1.2,3.2-1.9c1-0.7,1.9-1.5,2.7-2.3c0.8-0.9,1.6-1.8,2.2-2.8c0.7-1,1.3-2.1,1.9-3.2
		c0.1,1.4-0.1,2.7-0.6,4c-0.5,1.3-1.3,2.4-2.2,3.4c-1,1-2.1,1.7-3.3,2.2c-0.6,0.3-1.3,0.4-1.9,0.6
		C165.5,255.9,164.8,255.9,164.2,255.9z"/>
	<path class="st0" d="M190,265.3l-12.2,7.6c-2.4-4-5.2-7.7-8.2-11.2l10.9-9.4C184,256.3,187.2,260.7,190,265.3z"/>
	<path class="st1" d="M173.4,266.4c1.2-0.4,2.3-0.8,3.4-1.4c1.1-0.5,2.1-1.2,3-1.9c0.9-0.7,1.8-1.6,2.6-2.4c0.8-0.9,1.6-1.9,2.4-3
		c-0.1,1.4-0.6,2.7-1.3,3.9c-0.7,1.2-1.6,2.2-2.7,3c-1.1,0.8-2.3,1.4-3.6,1.7c-0.7,0.2-1.3,0.3-2,0.3
		C174.7,266.6,174,266.5,173.4,266.4z"/>
	<path class="st0" d="M197.5,279.6l-13.2,5.6c-1-2.1-1.8-4.3-3-6.3l-1.6-3.1c-0.6-1-1.2-2-1.8-3l12.2-7.6c0.7,1.2,1.4,2.3,2.1,3.5
		l1.9,3.6C195.4,274.7,196.4,277.2,197.5,279.6z"/>
	<path class="st1" d="M180.8,278.1c1.2-0.2,2.5-0.5,3.6-0.9c1.1-0.4,2.2-0.8,3.3-1.4c1.1-0.6,2.1-1.2,3-2c1-0.8,1.9-1.6,2.8-2.5
		c-0.3,1.3-0.9,2.5-1.8,3.6c-0.9,1-1.9,1.9-3.1,2.5c-1.8,0.9-3.9,1.3-5.9,1.1C182.1,278.5,181.5,278.4,180.8,278.1z"/>
	<path class="st0" d="M197.5,279.6c0.4,1,0.7,2.1,0.6,3.1c0,1-0.2,2-0.6,2.9c-0.7,1.8-2.2,3.2-4,3.8c-1.8,0.6-3.8,0.5-5.6-0.4
		c-0.8-0.4-1.6-0.9-2.2-1.6c-0.6-0.7-1.1-1.5-1.5-2.3L197.5,279.6z"/>
</g>
<path id="f-hand" class="st0" d="M175.6,299.5c-0.6,1.5-1,3.3-0.1,4.7c1.4,2.2,5,1.3,6.7-0.7s2.5-4.6,4.3-6.5
	c0.9-0.9,2.3-1.7,3.5-1.2s1.6,1.9,2,3.1l2.8,10.8c0.2,1.4,0.8,2.7,1.7,3.8c0.9,1.1,2.5,1.5,3.8,0.8c1.4-0.9,1.3-2.9,1.1-4.5
	l-1.5-11.7c-0.3-1-0.1-2.1,0.4-3c1.3-1.6,4-0.2,5.1,1.5s2,4.1,4,4.7s4.3-1.3,4.7-3.5s-0.7-4.4-2-6.1c-4.9-6.8-13.5-8.7-21.3-7.2
	C183.2,285.9,178.2,292.7,175.6,299.5z"/>
</svg>
