<?xml version="1.0" encoding="utf-8"?>
<!-- Generator: Adobe Illustrator 25.2.0, SVG Export Plug-In . SVG Version: 6.00 Build 0)  -->
<svg version="1.1" id="Layer_1" xmlns="http://www.w3.org/2000/svg" xmlns:xlink="http://www.w3.org/1999/xlink" x="0px" y="0px"
	 viewBox="0 0 243.1 444.1" style="enable-background:new 0 0 243.1 444.1;" xml:space="preserve">
<style type="text/css">
	.st0{fill:#00A0A0;}
	.st1{fill:#00D0D0;}
	.st2{fill:#CBCBCB;}
	.st3{fill:#4D4D4D;}
	.st4{fill:#C0272D;}
	.st5{fill:#B2B2B2;}
	.st6{fill:#02799E;}
	.st7{fill:#02526B;}
	.st8{fill:#023E51;}
	.st9{fill:#9D2025;}
	.st10{fill:#989898;}
	.st11{fill:none;stroke:#CBCBCB;stroke-width:7.22;stroke-linecap:round;stroke-miterlimit:10;}
	.st12{fill:#008181;}
	.st13{fill:#FFFFFF;}
	.st14{clip-path:url(#SVGID_2_);}
	.st15{fill:#D43D40;}
	.st16{fill:#782224;}
	.st17{clip-path:url(#SVGID_4_);}
</style>
<g id="b-hand">
	<path class="st0" d="M21.3,216.2c0.8,2-1.8,3.6-3.9,3.7s-4.5-0.4-6,1.1s-1,4.4,0.7,5.8s4.1,1.6,6.3,1.4c4.8-0.6,9.2-3,12.3-6.7
		L21.3,216.2z"/>
	<path class="st1" d="M18.9,212.7c-4.1-0.5-8.2-1.3-12.2-2.4c-1.3-0.5-2.7-0.6-4.1-0.5c-1.4,0.2-2.5,1.4-2.6,2.9
		c0.1,1.6,1.9,2.6,3.4,3.2l10.9,4.5c1,0.3,1.9,1,2.4,1.9c0.8,2-1.8,3.6-3.9,3.7s-4.5-0.4-6,1.1s-1,4.4,0.7,5.8s4.1,1.6,6.3,1.4
		c8.3-0.9,14.3-7.3,16.9-14.9C30.6,219.4,26.2,213.5,18.9,212.7z"/>
</g>
<g id="b-arm">
	<path class="st1" d="M111.4,218.5c1.2-1.1,2.8-1.8,4.4-1.8c1.9,0,3.7,0.5,5.2,1.7c1.5,1.1,2.5,2.9,2.7,4.8c0.1,2-0.6,4-2.1,5.5
		L111.4,218.5z"/>
	<path class="st1" d="M109.2,238.1l-7.1-12.5c3.4-2,6.6-4.4,9.3-7.2l10.2,10.1C118,232.3,113.8,235.5,109.2,238.1z"/>
	<path class="st0" d="M107.6,221.9c0.5,1.1,1,2.3,1.6,3.4c0.6,1.1,1.3,2.1,2,3c0.7,0.9,1.6,1.8,2.4,2.6c0.9,0.8,1.9,1.6,3,2.4
		c-1.3-0.1-2.7-0.5-3.8-1.2c-1.2-0.7-2.2-1.6-3-2.7c-0.8-1.1-1.4-2.3-1.8-3.6c-0.2-0.6-0.3-1.2-0.4-1.9
		C107.6,223.1,107.5,222.5,107.6,221.9z"/>
	<path class="st1" d="M94.9,244l-3.8-13.9c3.8-1,7.5-2.6,11-4.5l7.1,12.5C104.7,240.7,99.9,242.6,94.9,244z"/>
	<path class="st0" d="M97.5,227.9c0.1,1.2,0.4,2.5,0.7,3.7c0.3,1.2,0.6,2.3,1.1,3.4c0.5,1.1,1,2.2,1.7,3.1c0.7,1,1.4,2,2.2,3
		c-1.3-0.4-2.4-1.2-3.3-2.2c-0.9-1-1.6-2.1-2.1-3.4c-0.5-1.3-0.8-2.6-0.8-3.9c0-0.6,0-1.3,0.1-1.9C97.1,229.1,97.2,228.5,97.5,227.9
		z"/>
	<path class="st1" d="M79.8,246.4L79,232.1c4.1-0.2,8.1-0.9,12.1-1.9l3.8,13.8C90,245.3,84.9,246.2,79.8,246.4z"/>
	<path class="st0" d="M85.9,231.3c-0.2,1.2-0.2,2.5-0.2,3.7c0,2.4,0.4,4.8,1.2,7c0.4,1.2,0.9,2.3,1.4,3.5c-1.1-0.7-2-1.7-2.7-2.9
		c-0.7-1.2-1.1-2.4-1.3-3.8c-0.3-2-0.1-4,0.7-5.9C85.2,232.3,85.5,231.8,85.9,231.3z"/>
	<path class="st1" d="M64.9,246l1.6-14.3c4.1,0.5,8.3,0.6,12.5,0.4l0.8,14.4C74.9,246.7,69.9,246.6,64.9,246z"/>
	<path class="st0" d="M73.6,232.2c-0.4,1.2-0.7,2.4-0.9,3.6c-0.2,1.2-0.3,2.3-0.4,3.5c0,1.2,0.1,2.4,0.3,3.6
		c0.2,1.2,0.5,2.4,0.8,3.7c-0.9-0.9-1.7-2.1-2.1-3.4c-0.5-1.3-0.7-2.6-0.6-4c0.1-1.3,0.3-2.7,0.8-3.9c0.2-0.6,0.6-1.2,0.9-1.7
		C72.7,233.1,73.1,232.6,73.6,232.2z"/>
	<path class="st1" d="M50.3,243.3l3.7-13.9c4.1,1.1,8.3,1.9,12.5,2.4L64.9,246C60,245.4,55.1,244.5,50.3,243.3z"/>
	<path class="st0" d="M61,230.9c-0.6,1.1-1.1,2.2-1.5,3.4c-0.4,1.1-0.7,2.3-0.9,3.4c-0.2,1.2-0.3,2.4-0.3,3.6c0,1.2,0.1,2.4,0.2,3.8
		c-0.8-1.1-1.3-2.3-1.5-3.6c-0.3-1.3-0.3-2.7,0-4c0.3-1.3,0.7-2.6,1.4-3.7c0.3-0.6,0.7-1.1,1.2-1.6C60,231.7,60.5,231.3,61,230.9z"
		/>
	<path class="st1" d="M36.4,238.5l5.6-13.3c3.9,1.6,7.9,3,12,4.1l-3.7,13.9C45.6,242,40.9,240.4,36.4,238.5z"/>
	<path class="st0" d="M48.7,227.8c-0.7,1-1.4,2.1-2,3.1c-0.6,1.1-1,2.1-1.4,3.3c-0.4,1.1-0.6,2.3-0.8,3.5c-0.2,1.2-0.3,2.4-0.4,3.7
		c-0.6-1.2-1-2.5-1-3.8c-0.1-1.4,0.1-2.7,0.6-4c0.4-1.3,1.1-2.5,2-3.5c0.4-0.5,0.9-1,1.4-1.4C47.6,228.3,48.1,228,48.7,227.8z"/>
	<path class="st1" d="M23.2,231.9l7.4-12.4c3.7,2.2,7.5,4.1,11.4,5.7l-5.5,13.3C31.9,236.6,27.5,234.4,23.2,231.9z"/>
	<path class="st0" d="M36.9,222.9c-0.9,0.9-1.7,1.9-2.4,2.9c-1.4,1.9-2.4,4.1-3.1,6.4c-0.4,1.2-0.6,2.4-0.9,3.7
		c-0.4-1.3-0.6-2.6-0.5-3.9c0.1-1.3,0.5-2.6,1.1-3.8c0.6-1.2,1.4-2.3,2.4-3.2c0.5-0.4,1-0.8,1.5-1.2
		C35.7,223.4,36.3,223.1,36.9,222.9z"/>
	<path class="st1" d="M23.2,231.9c-1.7-1-2.8-2.7-3.2-4.6c-0.4-1.9,0-3.8,1.1-5.3c1.1-1.5,2.7-2.6,4.5-3.1c1.7-0.5,3.5-0.2,4.9,0.6
		L23.2,231.9z"/>
</g>
<g id="body">
	<polygon class="st2" points="87.4,391.8 158.9,391.8 147.1,376.6 147.1,331.8 75.6,331.8 75.6,376.6 	"/>
	<polygon class="st2" points="67.7,376.6 139.2,376.6 151.1,391.8 79.5,391.8 	"/>
	<rect x="67.7" y="331.8" class="st2" width="71.5" height="44.7"/>
	<polygon class="st2" points="158.9,316.6 87.4,316.6 75.6,331.8 147.1,331.8 	"/>
	<polygon class="st2" points="151.1,316.6 79.5,316.6 67.7,331.8 139.2,331.8 	"/>
	<polygon class="st3" points="92.5,391.8 164.1,391.8 152.2,376.6 152.2,331.8 80.7,331.8 80.7,376.6 	"/>
	<polygon class="st3" points="72.8,376.6 144.4,376.6 156.2,391.8 84.7,391.8 	"/>
	<rect x="72.8" y="331.8" class="st3" width="71.5" height="44.7"/>
	<polygon class="st3" points="164.1,316.6 92.5,316.6 80.7,331.8 152.2,331.8 	"/>
	<polygon class="st3" points="156.2,316.6 84.7,316.6 72.8,331.8 144.4,331.8 	"/>
	<path class="st4" d="M167.6,215.6v101H77.4v-101c0-8,6.5-14.5,14.5-14.5c0,0,0,0,0,0h61.1C161.1,201.1,167.6,207.6,167.6,215.6z"/>
	<polygon class="st5" points="63.2,376.8 146.2,376.8 160,392 77,392 	"/>
	<path class="st6" d="M87,340h65.5c23.7,0,43,19.2,43,43v18.2c0,23.7-19.2,43-43,43H87c-23.7,0-43-19.2-43-43V383
		C44,359.3,63.3,340,87,340z"/>
	<path class="st7" d="M92.6,340h65.5c23.7,0,43,19.2,43,43v18.2c0,23.7-19.2,43-43,43H92.6c-23.7,0-43-19.2-43-43V383
		C49.6,359.3,68.9,340,92.6,340z"/>
	<path class="st8" d="M82.2,376.2h86.3c8.8,0,15.9,7.1,15.9,15.9v0c0,8.8-7.1,15.9-15.9,15.9H82.2c-8.8,0-15.9-7.1-15.9-15.9v0
		C66.3,383.3,73.4,376.2,82.2,376.2z"/>
	<path class="st9" d="M106.2,253v54.1c-11.5,0.4-18.5-0.7-28.7-1.8v-56.5h23.4C103.8,248.8,106.2,250.7,106.2,253z"/>
	<path class="st0" d="M130.8,150.3v37c-3,0.1-6.3,0.2-9.8,0.2s-6.7-0.1-9.8-0.2v-37H130.8z"/>
	<rect x="87.6" y="180.5" class="st2" width="68.9" height="21.4"/>
	<polygon class="st2" points="159.4,316.6 76.3,316.6 90.1,331.8 90.1,376.6 173.1,376.6 173.1,331.8 	"/>
	<polygon class="st5" points="182.2,331.8 99.2,331.8 85.5,316.6 168.5,316.6 	"/>
	<rect x="99.2" y="331.8" class="st10" width="83" height="44.7"/>
	<path class="st11" d="M167.6,313.6c-33.7,5-61.3,5.5-89.5,2.9"/>
	<polygon class="st2" points="76.3,391.8 159.4,391.8 173.1,376.6 90.1,376.6 	"/>
	<polygon class="st5" points="85.5,391.8 168.5,391.8 182.2,376.6 99.2,376.6 	"/>
	<rect x="90.1" y="331.8" class="st2" width="9.2" height="44.7"/>
	<path class="st5" d="M114,213.6c2-5.2,10-12.6,15.6-10.5s6.8,13,4.9,18.2s-12.6,19.6-18.2,17.5S112,218.8,114,213.6z"/>
	<path class="st2" d="M67.7,331.8c0,0,13,6.7,27,0l-6.4-12.2l-10.8-0.4L67.7,331.8z"/>
</g>
<g id="f-arm">
	<path class="st1" d="M122.1,232.5c-2.8-2.8-2.9-7.3-0.2-10.3c2.7-2.9,7.4-2.9,10.5,0.2L122.1,232.5z"/>
	<path class="st1" d="M142.8,234.4l-11.4,8.8c-0.7-1-1.5-1.9-2.2-2.8l-2.3-2.7c-1.6-1.8-3.2-3.5-4.8-5.2l10.3-10.1
		c1.8,2,3.6,3.9,5.4,5.8l2.6,3.1C141.1,232.4,142,233.4,142.8,234.4z"/>
	<path class="st0" d="M126.3,237c1.2-0.5,2.3-1,3.3-1.7c1-0.6,2-1.3,2.9-2.1c0.9-0.8,1.7-1.7,2.4-2.6c0.8-1,1.4-2,2.2-3.1
		c0,1.4-0.4,2.8-1,4c-0.6,1.2-1.4,2.3-2.4,3.2c-1,0.9-2.2,1.6-3.5,2c-0.6,0.2-1.3,0.4-1.9,0.4C127.6,237.2,126.9,237.1,126.3,237z"
		/>
	<path class="st1" d="M151.7,247.7l-12.4,7.3c-2.4-4.1-5-8-7.9-11.7l11.4-8.8C146,238.7,149,243.1,151.7,247.7z"/>
	<path class="st0" d="M135,248.2c1.2-0.3,2.4-0.7,3.5-1.2c1.1-0.5,2.1-1.1,3.1-1.8c1-0.7,1.9-1.5,2.7-2.3c0.9-0.9,1.7-1.8,2.5-2.8
		c-0.2,1.4-0.7,2.7-1.4,3.8c-0.7,1.1-1.7,2.1-2.8,2.9c-1.1,0.8-2.4,1.3-3.7,1.6c-0.7,0.1-1.3,0.2-2,0.2
		C136.3,248.5,135.6,248.4,135,248.2z"/>
	<path class="st1" d="M158.9,262.1l-13.3,5.5l-1.4-3.2c-0.4-1.1-1-2.1-1.5-3.2l-1.6-3.2l-1.8-3l12.4-7.3l2,3.5l1.8,3.6
		c0.6,1.2,1.2,2.4,1.8,3.6L158.9,262.1z"/>
	<path class="st0" d="M142.2,260.3c1.2-0.2,2.5-0.4,3.6-0.8c1.1-0.3,2.2-0.8,3.3-1.3c1.1-0.6,2.1-1.2,3-1.9c1-0.8,1.9-1.6,2.9-2.5
		c-0.4,1.3-1,2.5-1.9,3.6c-0.9,1-1.9,1.9-3.1,2.5c-1.2,0.6-2.5,1-3.9,1.1c-0.7,0-1.3,0-2-0.1C143.5,260.8,142.8,260.6,142.2,260.3z"
		/>
	<path class="st1" d="M163.9,277.4l-14,3.4c-0.3-1.1-0.6-2.2-0.9-3.4s-0.6-2.2-1-3.4l-1.2-3.3l-0.6-1.6l-0.7-1.6l13.3-5.5l0.8,1.9
		l0.7,1.9l1.3,3.8c0.5,1.3,0.8,2.6,1.1,3.9S163.6,276.1,163.9,277.4z"/>
	<path class="st0" d="M147.7,273.3c1.3,0,2.5-0.1,3.7-0.2c2.4-0.3,4.6-1.1,6.7-2.3c1.1-0.6,2.1-1.3,3.2-2c-0.5,1.3-1.3,2.4-2.4,3.3
		c-1,0.9-2.2,1.6-3.5,2c-1.3,0.4-2.6,0.6-4,0.5c-0.7-0.1-1.3-0.2-2-0.4C148.8,273.9,148.2,273.6,147.7,273.3z"/>
	<path class="st1" d="M166.5,293.4l-14.3,1.2c-0.4-4.6-1.1-9.2-2.2-13.8l14-3.4C165.2,282.7,166,288,166.5,293.4z"/>
	<path class="st0" d="M151.1,286.8c1.2,0.2,2.5,0.3,3.7,0.3c1.2,0,2.4-0.1,3.5-0.3c1.2-0.2,2.3-0.6,3.4-1c1.1-0.4,2.3-1,3.5-1.5
		c-0.7,1.2-1.7,2.1-2.9,2.9c-1.1,0.7-2.4,1.2-3.8,1.4c-1.3,0.2-2.7,0.2-4-0.1c-0.7-0.2-1.3-0.4-1.9-0.6
		C152.2,287.6,151.6,287.2,151.1,286.8z"/>
	<path class="st1" d="M166.6,309.6l-14.3-1.1c0.1-2.3,0.3-4.6,0.2-7V298c-0.1-1.2-0.2-2.3-0.3-3.5l14.3-1.2c0.1,1.4,0.2,2.7,0.3,4
		l0.1,4C166.9,304.2,166.7,306.9,166.6,309.6z"/>
	<path class="st0" d="M152.4,300.6c1.2,0.4,2.4,0.7,3.6,0.9c1.2,0.2,2.4,0.3,3.6,0.3c1.2,0,2.4-0.2,3.6-0.4c1.2-0.2,2.4-0.6,3.7-1
		c-0.9,1-2,1.8-3.2,2.4c-1.2,0.5-2.6,0.8-3.9,0.8c-1.4,0-2.7-0.3-4-0.8c-0.6-0.2-1.2-0.6-1.8-0.9
		C153.3,301.6,152.8,301.1,152.4,300.6z"/>
	<path class="st1" d="M166.6,309.6c0,1.1-0.3,2.1-0.9,3.1c-0.5,0.9-1.1,1.7-1.8,2.3c-1.5,1.3-3.4,1.8-5.3,1.5
		c-1.9-0.3-3.6-1.3-4.8-2.8c-0.6-0.7-1-1.5-1.3-2.4c-0.3-0.9-0.4-1.8-0.3-2.8L166.6,309.6z"/>
</g>
<path id="f-hand" class="st1" d="M138,317.3c-1.2,1.1-2.4,2.5-2.2,4.1c0.3,2.6,3.9,3.4,6.3,2.4s4.3-3,6.8-3.8
	c1.2-0.4,2.8-0.4,3.6,0.6s0.6,2.4,0.3,3.7l-2.4,10.9c-0.4,1.3-0.5,2.8-0.2,4.1c0.3,1.4,1.5,2.5,3,2.4c1.6-0.2,2.5-2,3-3.5l4-11.1
	c0.2-1,0.9-1.9,1.8-2.5c1.9-0.9,3.7,1.6,3.9,3.7s-0.1,4.5,1.4,6s4.5,0.8,5.8-1s1.4-4.2,1-6.4c-1.3-8.3-8-13.9-15.7-16.1
	C151,308.7,143.5,312.4,138,317.3z"/>
<g id="head">
	<path class="st1" d="M225.7,105.9c-13.3,7.3-29.4,8.7-42.3,16.7c-11.4,7.1-19.4,18.6-29.4,27.6c-6.4,5.7-14.5,10.5-22.8,11.8h-19.1
		c-18.2,0-30.2-14.2-36.5-35.2c-1-3.2-1.8-6.4-2.5-9.5c-0.2-0.9-0.4-1.8-0.6-2.7c-1.5-7.1-2.4-14.3-2.9-21.5V69.5
		c0-15.8,4.2-31.2,12-44.9c0,0,0,0,0-0.1c0.2-0.3,0.3-0.6,0.5-0.9c0.4-0.7,0.8-1.3,1.2-1.9C92.7,8.1,108.2-0.1,124.8,0h6.5
		c0.6,0,1.2,0.1,1.8,0.1c19.9,1.9,32.1,15.2,44.2,28.8c2.3,2.5,4.5,5.1,6.8,7.5c7.8,8.4,16.1,16,26.9,20.1c9.8,3.7,21.7,4,28.4,12
		C249,80.2,239,98.6,225.7,105.9z"/>
	<path class="st0" d="M156.4,30.7c6.9-5,11.7-12.5,13.4-20.9c0.2-1,0.6-2.4,1.7-2.4c0.7,0.1,1.3,0.4,1.7,1
		c5.5,5.9,10.4,12.3,14.7,19.1c-2,0.9-4.3-0.6-6-2s-3.9-2.9-6-2.2c-1.2,0.6-2.2,1.5-2.8,2.6l-9,12.5L156.4,30.7z"/>
	<path class="st12" d="M120.9,70.6c0,25.7-20.8,46.6-46.6,46.6c0,0,0,0,0,0c-0.4,0-0.8,0-1.2,0c-0.2-0.9-0.4-1.8-0.6-2.7
		c-1.5-7.1-2.4-14.3-2.9-21.5V69.5c0-15.8,4.2-31.2,12-44.9C96.5,27,109.4,36.5,116.1,50c0,0,0,0,0,0c2,4.1,3.4,8.5,4.2,13.1
		c0,0.1,0,0.3,0.1,0.4C120.7,65.9,120.9,68.2,120.9,70.6z"/>
	<path class="st13" d="M74.1,114.2c-0.6,0-1.2,0-1.8,0l0,0c-0.9,0-1.6-0.7-1.8-1.6l0,0c-1.5-7-2.4-14.1-2.9-21.3v-23
		c0-15.7,4.1-31.2,11.9-44.8l0.1-0.2l0,0l0.1-0.1l0.4-0.7l0,0c0.4-0.7,1.2-1,2-0.9l0,0c15.3,2.7,28.2,12.7,34.5,26.9l0.2,0.4l0,0
		c1.6,3.7,2.7,7.6,3.4,11.6c0.1,0.5,0.1,0.9,0.2,1.4c0.2,1.9,0.4,3.8,0.3,5.6C120.7,93.3,99.9,114.2,74.1,114.2z"/>
	<g>
		<defs>
			<path id="SVGID_1_" d="M74.3,116.5c-0.6,0-1.2,0-1.8,0h-1.6l-0.3-1.6c-1.5-7.2-2.5-14.5-3-21.8V69.5c0-16.1,4.2-31.9,12.2-45.9
				l0.1-0.2l0,0l0.1-0.1c0.1-0.2,0.3-0.5,0.4-0.7l0.7-1.1l1.3,0.2c15.6,2.7,28.9,13,35.4,27.5l0.2,0.4l0,0c1.7,3.8,2.8,7.8,3.4,11.9
				c0.1,0.5,0.1,1,0.2,1.4c0.2,1.9,0.4,3.9,0.4,5.8C122,95.1,100.6,116.5,74.3,116.5z"/>
		</defs>
		<clipPath id="SVGID_2_">
			<use xlink:href="#SVGID_1_"  style="overflow:visible;"/>
		</clipPath>
		<g class="st14">
			<circle class="st15" cx="69.3" cy="68.7" r="27.1"/>
			<circle class="st16" cx="69.3" cy="68.7" r="18.2"/>
		</g>
	</g>
	<path class="st0" d="M120,66.2c-0.2,0-0.5,0-0.7,0c-0.4-0.1-0.8-0.2-1.2-0.3c-14-5.3-28.9-8-43.9-8c-1.1,0-2.3,0-3.4,0L68.6,58
		c-0.6,0-1.1-0.4-1.1-1c0-0.1,0-0.1,0-0.2l0.4-2.3c1.8-11,5.6-21.6,11.2-31.3l0.2-0.3l0,0l0,0c0.1-0.2,0.3-0.5,0.4-0.7
		c0.4-0.7,0.8-1.4,1.3-2l0,0c0.7-1,1.8-1.5,3-1.3l0,0c21.3,3.9,37,19.8,40.9,41.7c0.3,1.9-0.4,3.8-2,4.9c-0.7,0.5-1.5,0.8-2.3,0.8
		C120.3,66.2,120.2,66.2,120,66.2z"/>
	<g>
		<defs>
			<path id="SVGID_3_" d="M225.7,105.9c-13.3,7.3-29.4,8.7-42.3,16.7c-11.4,7.1-19.4,18.6-29.4,27.6c-6.4,5.7-14.5,10.5-22.8,11.8
				h-19.1c-18.2,0-30.2-14.2-36.5-35.2c-1-3.2-1.8-6.4-2.5-9.5c-0.2-0.9-0.4-1.8-0.6-2.7c-1.5-7.1-2.4-14.3-2.9-21.5V69.5
				c0-15.8,4.2-31.2,12-44.9c0,0,0,0,0-0.1c0.2-0.3,0.3-0.6,0.5-0.9c0.4-0.7,0.8-1.3,1.2-1.9C92.7,8.1,108.2-0.1,124.8,0h6.5
				c0.6,0,1.2,0.1,1.8,0.1c19.9,1.9,32.1,15.2,44.2,28.8c2.3,2.5,4.5,5.1,6.8,7.5c7.8,8.4,16.1,16,26.9,20.1c9.8,3.7,21.7,4,28.4,12
				C249,80.2,239,98.6,225.7,105.9z"/>
		</defs>
		<clipPath id="SVGID_4_">
			<use xlink:href="#SVGID_3_"  style="overflow:visible;"/>
		</clipPath>
		<g class="st17">
			<path class="st0" d="M97.7,127.6c-3.5,3.8-7.9,6.8-12.7,8.6c-4.9,2-10.1,2.9-15.4,2.8c-5.3,0.1-10.5-0.8-15.4-2.8
				c-4.8-1.9-9.2-4.8-12.8-8.6c4.2,2.7,8.8,4.7,13.6,6.2c4.7,1.4,9.6,2,14.5,1.9c4.9,0.1,9.8-0.5,14.5-1.9
				C88.9,132.4,93.5,130.3,97.7,127.6z"/>
		</g>
	</g>
</g>
</svg>
