<?xml version="1.0" encoding="utf-8"?>
<!-- Generator: Adobe Illustrator 25.2.0, SVG Export Plug-In . SVG Version: 6.00 Build 0)  -->
<svg version="1.1" id="Layer_1" xmlns="http://www.w3.org/2000/svg" xmlns:xlink="http://www.w3.org/1999/xlink" x="0px" y="0px"
	 viewBox="0 0 271.1 444.1" style="enable-background:new 0 0 271.1 444.1;" xml:space="preserve">
<style type="text/css">
	.st0{fill:#00D0D0;}
	.st1{fill:#00A0A0;}
	.st2{fill:#B2B2B2;}
	.st3{fill:#4D4D4D;}
	.st4{fill:#025F7D;}
	.st5{fill:#C0272D;}
	.st6{fill:none;stroke:#CBCBCB;stroke-width:7.22;stroke-linecap:round;stroke-miterlimit:10;}
	.st7{fill:#9D2025;}
	.st8{fill:#CBCBCB;}
	.st9{fill:#808080;}
	.st10{fill:#02799E;}
	.st11{fill:#02526B;}
	.st12{fill:#008181;}
	.st13{fill:#FFFFFF;}
	.st14{fill:#D43D40;}
	.st15{fill:#782224;}
</style>
<g id="r-arm">
	<path class="st0" d="M190.7,229.3c-3.5,1.7-7.7,0.3-9.4-3.1c0-0.1-0.1-0.2-0.1-0.3c-1.5-3.7-0.2-7.9,3-9.4L190.7,229.3z"/>
	<path class="st0" d="M195.4,209.9l8,11.9c-2.1,1.3-4.1,2.7-6.2,3.9s-4.3,2.4-6.4,3.6l-6.5-12.8c1.9-1,3.8-2.1,5.7-3.1
		S193.5,211.1,195.4,209.9z"/>
	<path class="st1" d="M196.4,226.2c-0.2-1.2-0.6-2.4-1-3.6c-0.4-1.1-0.9-2.2-1.6-3.2c-0.6-1-1.3-2-2.1-2.9c-0.8-0.9-1.6-1.8-2.5-2.8
		c1.2,0.4,2.4,1,3.4,1.9c1.1,0.8,2,1.8,2.7,2.9c0.7,1.1,1.2,2.4,1.5,3.8c0.1,0.7,0.2,1.3,0.1,2C196.8,225,196.6,225.6,196.4,226.2z"
		/>
	<path class="st0" d="M205.7,202l9.4,10.9l-2.8,2.4c-0.9,0.8-1.9,1.6-2.9,2.3c-2,1.4-3.9,3-6,4.3l-8-11.9c1.8-1.2,3.5-2.5,5.3-3.8
		c0.9-0.6,1.7-1.3,2.5-2L205.7,202z"/>
	<path class="st1" d="M208.6,218.1c-0.4-1.2-0.8-2.3-1.4-3.4c-0.6-1.1-1.2-2.1-1.9-3c-0.8-0.9-1.6-1.8-2.4-2.6
		c-0.9-0.8-1.9-1.6-2.8-2.5c1.3,0.3,2.5,0.7,3.6,1.4c1.1,0.7,2.2,1.6,3,2.6c0.9,1,1.5,2.2,1.9,3.5c0.2,0.7,0.3,1.3,0.3,2
		C208.8,216.8,208.8,217.5,208.6,218.1z"/>
	<path class="st0" d="M215,192.9l10.6,9.7l-2.5,2.7l-1.3,1.3c-0.4,0.4-0.9,0.8-1.3,1.3l-2.7,2.5c-0.9,0.8-1.8,1.7-2.7,2.4l-9.4-10.9
		c0.9-0.7,1.6-1.4,2.4-2.2l2.4-2.2c0.4-0.4,0.8-0.7,1.2-1.1l1.1-1.2L215,192.9z"/>
	<path class="st1" d="M219.8,208.6c-0.5-1.1-1.1-2.2-1.8-3.2c-0.7-1-1.4-1.9-2.3-2.7c-0.9-0.8-1.8-1.6-2.7-2.3c-1-0.7-2-1.4-3.1-2.1
		c1.3,0.1,2.6,0.4,3.7,1c1.2,0.5,2.3,1.3,3.3,2.2c1,0.9,1.8,2,2.3,3.3c0.3,0.6,0.5,1.2,0.6,1.9C219.9,207.2,219.9,207.9,219.8,208.6
		z"/>
	<path class="st0" d="M223.2,182.9l11.7,8.4c-2.9,4-6,7.8-9.3,11.4l-10.6-9.7C217.9,189.7,220.7,186.4,223.2,182.9z"/>
	<path class="st1" d="M229.8,197.8c-0.6-1.1-1.4-2.1-2.2-3c-0.8-0.9-1.6-1.7-2.6-2.4c-0.9-0.7-1.9-1.4-3-2c-1.1-0.6-2.2-1.1-3.3-1.8
		c1.3,0,2.6,0.1,3.8,0.6c1.3,0.4,2.5,1,3.6,1.8c1.1,0.8,2,1.8,2.7,3c0.3,0.6,0.6,1.2,0.8,1.8C229.7,196.5,229.8,197.2,229.8,197.8z"
		/>
	<path class="st0" d="M230.2,171.9l12.6,7c-2.4,4.3-5,8.4-7.9,12.4l-11.7-8.4C225.7,179.3,228.1,175.7,230.2,171.9z"/>
	<path class="st1" d="M238.5,186c-0.7-1-1.6-1.9-2.5-2.7c-0.9-0.8-1.8-1.5-2.9-2.1c-1-0.6-2.1-1.1-3.2-1.6c-1.1-0.5-2.3-0.9-3.5-1.4
		c1.3-0.2,2.6-0.1,3.9,0.1c1.3,0.2,2.6,0.7,3.7,1.4c1.2,0.7,2.2,1.6,3,2.7c0.4,0.5,0.7,1.1,1,1.7C238.3,184.7,238.4,185.3,238.5,186
		z"/>
	<path class="st0" d="M235.8,160.2l13.3,5.4l-1.4,3.4c-0.5,1.1-0.9,2.3-1.5,3.4l-1.6,3.3c-0.5,1.1-1.1,2.2-1.7,3.2l-12.6-7
		c0.6-0.9,1.1-1.9,1.5-2.9l1.4-2.9c0.5-1,0.9-2,1.3-3L235.8,160.2z"/>
	<path class="st1" d="M245.7,173.2c-0.9-0.9-1.8-1.7-2.8-2.4c-1-0.7-2-1.3-3.1-1.8c-1.1-0.5-2.2-0.9-3.4-1.2
		c-1.2-0.3-2.4-0.6-3.6-0.9c1.2-0.3,2.5-0.5,3.8-0.4c1.3,0.1,2.6,0.4,3.9,0.9c1.2,0.5,2.4,1.3,3.3,2.3c0.5,0.5,0.9,1,1.2,1.6
		C245.3,171.9,245.6,172.5,245.7,173.2z"/>
	<path class="st0" d="M239.8,147.9l13.9,3.6c-0.7,2.4-1.3,4.8-2.1,7.1l-1.2,3.5c-0.4,1.2-0.8,2.3-1.3,3.4l-13.3-5.4
		c0.5-1,0.8-2,1.1-3l1.1-3C238.7,152.1,239.2,150,239.8,147.9z"/>
	<path class="st1" d="M251.3,159.5c-1-0.8-2-1.4-3.1-2c-1-0.6-2.1-1-3.3-1.4c-1.1-0.3-2.3-0.6-3.5-0.8c-1.2-0.2-2.4-0.3-3.7-0.5
		c1.2-0.5,2.5-0.8,3.8-0.8c1.3-0.1,2.7,0.1,4,0.4c1.3,0.4,2.5,1,3.6,1.8c0.5,0.4,1,0.9,1.4,1.4C250.8,158.4,251.1,158.9,251.3,159.5
		z"/>
	<path class="st0" d="M239.8,147.9c0.4-1.7,1.5-3.1,3.1-4c1.6-1,3.6-1.3,5.4-1c1.9,0.3,3.5,1.4,4.5,3c1,1.7,1.4,3.7,0.9,5.6
		L239.8,147.9z"/>
</g>
<path id="r-hand" class="st0" d="M269.3,139.6c1.1-1.2,2.1-2.8,1.7-4.4c-0.6-2.5-4.3-2.9-6.6-1.6s-3.9,3.5-6.3,4.7
	c-1.2,0.6-2.7,0.8-3.7-0.1s-0.9-2.3-0.8-3.6l1-11.2c0.2-1.4,0.1-2.8-0.3-4.2c-0.5-1.4-1.8-2.2-3.3-2c-1.6,0.4-2.2,2.3-2.6,3.9
	l-2.5,11.6c-0.1,1.1-0.6,2-1.4,2.7c-1.8,1.1-3.9-1.1-4.3-3.2s-0.5-4.5-2.2-5.7s-4.5-0.2-5.6,1.7s-0.8,4.3-0.2,6.4
	c2.4,8,9.7,12.7,17.6,14C257.6,149.8,264.5,145.1,269.3,139.6z"/>
<g id="l-arm">
	<path class="st0" d="M72,222.8c1.7-1.3,3.9-1.9,6-1.6c1.9,0.3,3.6,1.4,4.6,3.1c0.9,1.7,1.2,3.6,0.8,5.5c-0.3,1.8-1.3,3.3-2.7,4.4
		L72,222.8z"/>
	<path class="st0" d="M71.6,243.4L60,234.8c3.4-4.6,7.4-8.6,12-12.1l8.7,11.4C77.3,236.8,74.2,239.9,71.6,243.4z"/>
	<path class="st1" d="M66.4,227.6c0.5,1.2,1.1,2.3,1.8,3.3c0.7,1,1.4,1.9,2.3,2.7c0.9,0.8,1.8,1.6,2.8,2.2c1,0.7,2,1.3,3.1,2.1
		c-1.3-0.1-2.5-0.4-3.7-0.9c-1.3-0.5-2.4-1.2-3.4-2.1c-1-0.9-1.8-2-2.4-3.2c-0.3-0.6-0.4-1.3-0.5-2C66.2,229,66.2,228.3,66.4,227.6z
		"/>
	<path class="st0" d="M65.9,254.5l-13.7-4.3c1.7-5.5,4.3-10.8,7.8-15.4l11.6,8.5C69.1,246.7,67.2,250.5,65.9,254.5z"/>
	<path class="st1" d="M56,241.2c0.8,1,1.7,1.9,2.7,2.6c0.9,0.7,1.9,1.3,3,1.9c1.1,0.5,2.2,1,3.3,1.3l3.6,1c-1.2,0.3-2.5,0.4-3.8,0.3
		c-1.3-0.1-2.7-0.4-3.9-0.9c-1.2-0.5-2.3-1.3-3.2-2.4c-0.4-0.5-0.8-1.1-1.1-1.7C56.2,242.6,56.1,241.9,56,241.2z"/>
	<path class="st0" d="M64.3,267l-14.4,0.4c-0.2-5.8,0.6-11.6,2.3-17.1l13.7,4.3C64.7,258.6,64.1,262.8,64.3,267z"/>
	<path class="st1" d="M50.5,257.6c1.1,0.7,2.2,1.2,3.4,1.6c1.1,0.4,2.3,0.6,3.5,0.7c1.2,0.1,2.4,0.1,3.6,0.1l3.7-0.2
		c-1.1,0.7-2.3,1.2-3.5,1.5c-1.3,0.4-2.7,0.5-4,0.4c-1.4-0.1-2.7-0.5-3.8-1.1c-0.6-0.3-1.1-0.8-1.6-1.3
		C51.2,258.9,50.8,258.3,50.5,257.6z"/>
	<path class="st0" d="M66.6,279.6l-13.7,4.5c-1.8-5.4-2.8-11-3-16.7l14.4-0.4C64.4,271.3,65.2,275.5,66.6,279.6z"/>
	<path class="st1" d="M50.6,274.8c1.2,0.3,2.5,0.5,3.7,0.5c1.2,0,2.4-0.1,3.5-0.4c1.2-0.2,2.3-0.6,3.4-1l3.5-1.4
		c-0.8,1-1.8,1.9-2.9,2.6c-1.1,0.7-2.4,1.3-3.7,1.6c-1.3,0.3-2.7,0.4-4,0.1c-0.7-0.1-1.3-0.4-2-0.7
		C51.7,275.8,51.1,275.4,50.6,274.8z"/>
	<path class="st0" d="M72.2,291.6l-12.2,7.6c-2.9-4.7-5.3-9.8-7-15.1l13.7-4.5C68,283.8,69.9,287.8,72.2,291.6z"/>
	<path class="st1" d="M55.5,290.9c1.3,0,2.5-0.2,3.7-0.5c1.1-0.3,2.3-0.7,3.3-1.3c1.1-0.5,2.1-1.2,3.1-1.9c1-0.7,2-1.5,3-2.3
		c-0.5,1.2-1.2,2.3-2.1,3.2c-0.9,1-1.9,1.9-3.1,2.5c-1.2,0.7-2.5,1-3.9,1.1c-0.7,0-1.3,0-2-0.1C56.8,291.5,56.2,291.3,55.5,290.9z"
		/>
	<path class="st0" d="M80.4,302.4l-10.5,9.8c-3.7-4-7.1-8.4-10-13l12.2-7.6C74.5,295.4,77.3,299,80.4,302.4z"/>
	<path class="st1" d="M64,305.1c1.2-0.3,2.4-0.8,3.5-1.3c1.1-0.5,2.1-1.2,3-1.9c0.9-0.8,1.7-1.6,2.5-2.5c0.8-0.9,1.6-1.9,2.5-2.9
		c-0.2,1.3-0.7,2.5-1.3,3.6c-0.7,1.2-1.5,2.2-2.5,3.1c-1,0.9-2.2,1.5-3.5,1.9c-0.7,0.2-1.3,0.3-2,0.3
		C65.4,305.4,64.7,305.3,64,305.1z"/>
	<path class="st0" d="M80.4,302.4c1.3,1.4,2,3.1,2,5c0,1.9-0.7,3.8-1.9,5.2c-1.3,1.4-3.2,2.2-5.1,2.2c-2.1-0.1-4.1-1-5.5-2.5
		L80.4,302.4z"/>
</g>
<g id="body">
	<polygon class="st2" points="217.1,331 217.1,376.4 167.1,408.5 96.5,408.5 46.5,376.4 46.5,331 56,324.8 85.6,305.8 96.5,298.8 
		167.1,298.8 177.9,305.8 207.5,324.8 	"/>
	<polygon class="st3" points="159.6,310.5 104,310.5 64.7,335.8 64.7,371.6 104,396.9 159.6,396.9 198.9,371.6 198.9,335.8 	"/>
	<path class="st4" d="M170.9,342.5H92.7c4.1-5.6,4.1-13.3,0-18.9h78.2C166.8,329.3,166.8,336.9,170.9,342.5z"/>
	<path class="st2" d="M190.2,320.9v0.5l0,0c-37.5,15.2-79.4,15.2-116.9,0l0,0v-0.5l22.8-19l8.4-7H159l8.4,7L190.2,320.9z"/>
	<path class="st5" d="M178,305.6L178,305.6c-29,14.7-63.3,14.7-92.3,0l0,0v-91.3c0-4.5,3.7-8.2,8.2-8.2h0h75.9
		c4.5,0,8.2,3.7,8.2,8.2c0,0,0,0,0,0V305.6z"/>
	<path class="st6" d="M178,305.6L178,305.6c-29,14.7-63.3,14.7-92.3,0l0,0"/>
	<path class="st7" d="M161.4,299.7L161.4,299.7c-19,7.5-40.2,7.5-59.2,0l0,0V253c0-2.3,2.4-4.2,5.3-4.2h48.7c2.9,0,5.3,1.9,5.3,4.2
		V299.7z"/>
	<rect x="122" y="150.3" class="st1" width="19.5" height="42.9"/>
	<ellipse class="st2" cx="131.8" cy="206.1" rx="39.1" ry="5.8"/>
	<rect x="92.7" y="185.5" class="st2" width="78.2" height="20.6"/>
	<ellipse class="st8" cx="131.8" cy="185.5" rx="39.1" ry="5.8"/>
	<path class="st9" d="M158.8,184.5c0,1.3-7.2,2.4-17.3,2.8c-3,0.1-6.3,0.2-9.8,0.2s-6.7-0.1-9.8-0.2c-10.1-0.4-17.3-1.5-17.3-2.8
		s7.2-2.4,17.3-2.8c3-0.1,6.3-0.2,9.8-0.2s6.7,0.1,9.8,0.2C151.7,182.1,158.8,183.2,158.8,184.5z"/>
	<path class="st1" d="M141.6,150.3v37c-3,0.1-6.3,0.2-9.8,0.2s-6.7-0.1-9.8-0.2v-37H141.6z"/>
	<path class="st10" d="M185,444.1H78.6c-3.9,0-7.4-2.3-9-5.9c-13.2-29.9-13.2-63.9,0-93.8c1.6-3.6,5.1-5.9,9-5.9H185
		c3.9,0,7.4,2.3,9,5.9c13.2,29.9,13.2,63.9,0,93.8C192.4,441.8,188.9,444.1,185,444.1z"/>
	<path class="st2" d="M85.6,213.5c-1.5-3.5-5-8.2-9.3-6.2c-2.4,1.3-2.9,4.5-2.9,7.3c-0.2,11,2.8,23.5,12.2,30.4V213.5z"/>
	<path class="st2" d="M178,213.5c1.5-3.5,5-8.2,9.3-6.2c2.4,1.3,2.9,4.5,2.9,7.3c0.2,11-2.8,23.5-12.2,30.4V213.5z"/>
	<path class="st11" d="M73.4,340c4.9,1.2,9.8,2.4,14.7,3.6l14.7,3.8c9.8,2.6,19.5,5.3,29.3,8h-0.5c9.7-2.7,19.5-5.4,29.3-8l14.7-3.8
		c4.9-1.2,9.8-2.5,14.7-3.6c-4.8,1.6-9.6,3-14.5,4.5l-14.5,4.5c-9.7,2.9-19.4,5.6-29.1,8.4l-0.3,0.1l-0.3-0.1
		c-9.7-2.8-19.4-5.5-29.1-8.4l-14.5-4.4C83,343.1,78.2,341.6,73.4,340z"/>
	<path class="st11" d="M73.4,368c4.9,1.2,9.8,2.4,14.7,3.6l14.7,3.8c9.8,2.6,19.5,5.3,29.3,8h-0.5c9.7-2.7,19.5-5.4,29.3-8l14.7-3.8
		c4.9-1.2,9.8-2.5,14.7-3.6c-4.8,1.6-9.6,3-14.5,4.6l-14.5,4.4c-9.7,2.9-19.4,5.6-29.1,8.4l-0.3,0.1l-0.3-0.1
		c-9.7-2.8-19.4-5.5-29.1-8.4l-14.5-4.4C83,371,78.2,369.6,73.4,368z"/>
	<path class="st11" d="M73.4,395.9c4.9,1.2,9.8,2.4,14.7,3.6l14.7,3.8c9.8,2.6,19.5,5.3,29.3,8h-0.5c9.7-2.7,19.5-5.4,29.3-8
		l14.7-3.8c4.9-1.2,9.8-2.5,14.7-3.6c-4.8,1.6-9.6,3-14.5,4.6l-14.5,4.4c-9.7,2.9-19.4,5.6-29.1,8.4l-0.3,0.1l-0.3-0.1
		c-9.7-2.8-19.4-5.5-29.1-8.4l-14.5-4.4C83,399,78.2,397.5,73.4,395.9z"/>
	<path class="st11" d="M73.4,423.9c4.9,1.1,9.8,2.4,14.7,3.6l14.7,3.8c9.8,2.6,19.5,5.3,29.3,8h-0.5c9.7-2.7,19.5-5.4,29.3-8
		l14.7-3.8c4.9-1.2,9.8-2.5,14.7-3.6c-4.8,1.6-9.6,3-14.5,4.5l-14.5,4.4c-9.7,2.9-19.4,5.7-29.1,8.4l-0.3,0.1l-0.3-0.1
		c-9.7-2.8-19.4-5.5-29.1-8.4l-14.5-4.4C83,426.9,78.2,425.5,73.4,423.9z"/>
</g>
<path id="l-hand" class="st0" d="M70.1,306.6c-2.8,3.1-5.8,5.9-9,8.5c-1.4,1.1-2.8,2.3-3.1,4.1c-0.2,0.9,0.1,1.8,0.8,2.4
	c1.4,1.3,3.4,0.4,5-0.6l10-6.2l0,0c1.4-0.8,3.1-0.4,3.9,1c0.5,0.9,0.5,1.9,0.1,2.8c-1.2,2.1-3.6,4.1-2.9,6.6
	c0.5,1.6,2.1,2.7,3.8,2.6c2.8-0.1,4.7-2.2,6-4.5c2-3.6,2.8-7.7,2.1-11.8c-0.8-5.3-5.7-8.9-11-8.1c-2.1,0.3-4.1,1.3-5.6,2.9
	L70.1,306.6z"/>
<g id="head">
	<path class="st1" d="M68.3,30.7c-6.9-5-11.7-12.5-13.4-20.9c-0.2-1-0.6-2.4-1.7-2.4c-0.7,0.1-1.3,0.4-1.7,1
		c-5.5,5.9-10.4,12.3-14.7,19.1c2,0.9,4.3-0.5,6-2s3.8-2.9,5.9-2.2c1.2,0.6,2.2,1.5,2.9,2.6l9,12.5L68.3,30.7z"/>
	<path class="st1" d="M193.8,30.7c6.9-5,11.7-12.5,13.4-20.9c0.2-1,0.6-2.4,1.7-2.4c0.7,0.1,1.3,0.4,1.6,1
		c5.5,5.9,10.4,12.3,14.7,19.1c-2,0.9-4.3-0.5-6-2s-3.9-2.9-5.9-2.2c-1.2,0.5-2.2,1.5-2.9,2.6l-9,12.5L193.8,30.7z"/>
	<path class="st0" d="M258.2,68.5c-6.6-8-18.6-8.3-28.4-12C199,44.9,188.1,3.7,152,0.1c-0.6-0.1-1.2-0.1-1.8-0.1h-38.3
		c-0.6,0-1.2,0.1-1.8,0.1c-36.2,3.5-47,44.8-77.9,56.3c-9.8,3.7-21.7,4-28.4,12c-9.7,11.7,0.3,30.1,13.6,37.4s29.3,8.7,42.3,16.7
		c11.5,7.1,19.4,18.6,29.4,27.6c6.4,5.7,14.5,10.5,22.8,11.8h38.2c8.3-1.3,16.4-6,22.8-11.8c10-9,17.9-20.5,29.4-27.6
		c12.9-8,28.9-9.4,42.3-16.7S267.9,80.2,258.2,68.5z"/>
	<path class="st12" d="M177.6,70.6c0,25.7-20.9,46.5-46.6,46.5c-25.7,0-46.5-20.9-46.5-46.6c0-25.7,20.9-46.5,46.6-46.5
		c23,0,42.5,16.8,45.9,39.5C177.4,65.9,177.6,68.3,177.6,70.6z"/>
	<path class="st1" d="M160.1,127.7c-3.6,3.8-7.9,6.7-12.8,8.6c-4.9,1.9-10.1,2.9-15.3,2.8c-5.3,0.1-10.5-0.8-15.4-2.8
		c-4.8-1.9-9.2-4.8-12.8-8.6c4.2,2.7,8.8,4.7,13.6,6.1c4.7,1.4,9.6,2,14.5,1.9c4.9,0.1,9.8-0.5,14.5-1.9
		C151.3,132.4,155.8,130.3,160.1,127.7z"/>
	<path class="st13" d="M176.8,68.7c0,25.3-20.5,45.8-45.8,45.8S85.2,94.1,85.2,68.8S105.7,23,131,23c22.6,0,41.8,16.5,45.3,38.8
		C176.6,64.1,176.8,66.4,176.8,68.7z"/>
	<circle class="st14" cx="131" cy="68.7" r="27.1"/>
	<circle class="st15" cx="131" cy="68.7" r="18.1"/>
	<path class="st1" d="M83.5,60.9c9.4-53.4,85.7-53.4,95.1,0c0.2,1-0.5,2-1.6,2.2c-0.3,0-0.6,0-1-0.1c-29-10.9-61-10.9-90.1,0
		c-1,0.4-2.1-0.1-2.4-1.1C83.5,61.6,83.4,61.3,83.5,60.9z"/>
</g>
</svg>
