<?xml version="1.0" encoding="utf-8"?>
<!-- Generator: Adobe Illustrator 25.2.0, SVG Export Plug-In . SVG Version: 6.00 Build 0)  -->
<svg version="1.1" id="Layer_1" xmlns="http://www.w3.org/2000/svg" xmlns:xlink="http://www.w3.org/1999/xlink" x="0px" y="0px"
	 viewBox="0 0 293.8 444.1" style="enable-background:new 0 0 293.8 444.1;" xml:space="preserve">
<style type="text/css">
	.st0{fill:#00D0D0;}
	.st1{fill:#00A0A0;}
	.st2{fill:#B2B2B2;}
	.st3{fill:#4D4D4D;}
	.st4{fill:#025F7D;}
	.st5{fill:#C0272D;}
	.st6{fill:none;stroke:#CBCBCB;stroke-width:7.22;stroke-linecap:round;stroke-miterlimit:10;}
	.st7{fill:#9D2025;}
	.st8{fill:#CBCBCB;}
	.st9{fill:#808080;}
	.st10{fill:#02799E;}
	.st11{fill:#02526B;}
	.st12{fill:#008181;}
	.st13{fill:#FFFFFF;}
	.st14{fill:#D43D40;}
	.st15{fill:#782224;}
</style>
<g id="r-arm">
	<path class="st0" d="M188.5,232.1c-3.8,0.6-7.3-2-7.9-5.7c0-0.1,0-0.3-0.1-0.4c-0.4-4,2.2-7.6,5.7-8L188.5,232.1z"/>
	<path class="st0" d="M198.8,215l4,13.8c-2.4,0.6-4.7,1.3-7.1,1.8s-4.8,1-7.2,1.4l-2.3-14.2c2.1-0.4,4.2-0.8,6.4-1.2
		S196.7,215.6,198.8,215z"/>
	<path class="st1" d="M194.8,230.9c0.2-1.2,0.2-2.5,0.2-3.7c-0.1-1.2-0.2-2.4-0.5-3.5c-0.3-1.2-0.7-2.3-1.1-3.4
		c-0.5-1.1-1-2.2-1.5-3.4c2.1,1.6,3.6,3.9,4.3,6.4c0.4,1.3,0.4,2.7,0.3,4c-0.1,0.7-0.3,1.3-0.5,1.9
		C195.5,229.8,195.2,230.4,194.8,230.9z"/>
	<path class="st0" d="M211.1,210.7l5.6,13.2l-3.4,1.4c-1.1,0.4-2.3,0.9-3.4,1.3c-2.3,0.8-4.6,1.6-7,2.2l-4-13.8
		c2.1-0.6,4.1-1.3,6.2-2c1-0.3,2-0.8,3-1.1L211.1,210.7z"/>
	<path class="st1" d="M208.9,226.9c0-1.2-0.1-2.5-0.3-3.7c-0.2-1.2-0.5-2.3-0.9-3.4c-0.4-1.1-1-2.2-1.5-3.2
		c-0.6-1.1-1.3-2.1-1.9-3.2c1.1,0.6,2.2,1.5,3,2.5c0.9,1,1.6,2.1,2.1,3.4c0.5,1.3,0.8,2.6,0.7,4c0,0.7-0.1,1.3-0.3,2
		C209.6,225.8,209.3,226.4,208.9,226.9z"/>
	<path class="st0" d="M222.7,204.9l7.1,12.5l-3.2,1.8l-1.6,0.9c-0.5,0.3-1.1,0.5-1.7,0.8l-3.3,1.6c-1.1,0.5-2.2,1.1-3.4,1.5
		l-5.6-13.2c1-0.4,2-0.9,3-1.3l3-1.4c0.5-0.2,1-0.4,1.5-0.7l1.4-0.8L222.7,204.9z"/>
	<path class="st1" d="M222.5,221.3c-0.1-1.2-0.4-2.5-0.7-3.6c-0.3-1.1-0.8-2.2-1.3-3.3c-0.6-1-1.2-2-1.9-3c-0.7-1-1.5-1.9-2.3-3
		c1.2,0.5,2.3,1.2,3.2,2.1c1,0.9,1.8,2,2.5,3.1c0.6,1.2,1.1,2.5,1.2,3.8c0.1,0.7,0.1,1.3,0,2C223,220.1,222.8,220.7,222.5,221.3z"/>
	<path class="st0" d="M233.6,197.8l8.5,11.6c-3.9,2.9-8.1,5.6-12.3,8l-7.1-12.5C226.5,202.8,230.1,200.4,233.6,197.8z"/>
	<path class="st1" d="M235.3,214.1c-0.3-1.2-0.6-2.4-1.1-3.5c-0.5-1.1-1-2.1-1.7-3.1c-0.7-1-1.4-1.9-2.2-2.8
		c-0.8-0.9-1.7-1.8-2.6-2.7c1.2,0.4,2.4,0.9,3.5,1.7c1.1,0.8,2,1.7,2.8,2.8c0.8,1.1,1.3,2.3,1.6,3.7c0.1,0.7,0.2,1.3,0.2,2
		C235.7,212.8,235.5,213.5,235.3,214.1z"/>
	<path class="st0" d="M243.6,189.5l9.8,10.5c-3.6,3.3-7.4,6.5-11.3,9.4l-8.5-11.6C237.1,195.3,240.5,192.5,243.6,189.5z"/>
	<path class="st1" d="M247.2,205.5c-0.4-1.2-0.9-2.3-1.6-3.4c-0.6-1-1.3-2-2.1-2.9c-0.8-0.9-1.6-1.7-2.6-2.5
		c-0.9-0.8-1.9-1.5-2.9-2.4c1.3,0.2,2.5,0.7,3.6,1.3c1.2,0.6,2.2,1.5,3.1,2.5c0.9,1,1.6,2.2,2,3.4c0.2,0.6,0.4,1.3,0.4,1.9
		C247.4,204.2,247.3,204.8,247.2,205.5z"/>
	<path class="st0" d="M252.6,180.1l11,9.2l-2.4,2.8c-0.8,0.9-1.6,1.9-2.5,2.7l-2.6,2.6c-0.9,0.9-1.7,1.8-2.6,2.6l-9.8-10.5
		c0.8-0.7,1.6-1.5,2.3-2.3l2.3-2.3c0.8-0.8,1.5-1.6,2.2-2.4L252.6,180.1z"/>
	<path class="st1" d="M258,195.5c-0.5-1.1-1.2-2.2-1.9-3.2c-0.7-0.9-1.5-1.8-2.4-2.6c-0.9-0.8-1.8-1.5-2.8-2.2c-1-0.7-2.1-1.3-3.2-2
		c1.3,0.1,2.6,0.4,3.8,0.9c1.2,0.5,2.4,1.2,3.4,2.1c1,0.9,1.9,2,2.5,3.2c0.3,0.6,0.5,1.2,0.6,1.9C258,194.2,258.1,194.9,258,195.5z"
		/>
	<path class="st0" d="M260.2,169.7l12.1,7.7c-1.4,2-2.7,4.1-4.2,6.1l-2.2,2.9c-0.8,1-1.5,2-2.3,2.9l-11-9.2c0.7-0.8,1.4-1.7,2-2.5
		l2-2.6C257.8,173.3,259,171.5,260.2,169.7z"/>
	<path class="st1" d="M267.6,184.3c-0.7-1-1.5-2-2.3-2.9c-0.8-0.8-1.7-1.6-2.7-2.3c-1-0.7-2-1.3-3.1-1.8c-1.1-0.6-2.2-1-3.4-1.6
		c2.6-0.2,5.3,0.5,7.5,2c1.1,0.8,2.1,1.7,2.9,2.9c0.4,0.6,0.7,1.2,0.9,1.8C267.5,183,267.6,183.6,267.6,184.3z"/>
	<path class="st0" d="M260.2,169.7c0.9-1.5,2.4-2.5,4.1-2.9c1.8-0.4,3.8-0.1,5.5,0.8c1.7,0.9,2.9,2.4,3.4,4.3
		c0.5,1.9,0.2,3.9-0.8,5.6L260.2,169.7z"/>
</g>
<path id="r-hand" class="st0" d="M290.8,170.8c1.4-0.8,2.8-2,3-3.6c0.2-2.6-3.2-4.1-5.7-3.6s-4.8,2.2-7.4,2.5
	c-1.3,0.2-2.8-0.1-3.5-1.2s-0.1-2.5,0.4-3.7L282,151c0.6-1.2,1-2.6,1-4c0-1.5-1.1-2.7-2.5-2.9c-1.6-0.1-2.8,1.5-3.6,2.9l-5.9,10.2
	c-0.5,0.9-1.2,1.9-2.2,2.1c-2,0.5-3.3-2.3-3.1-4.4s1-4.4-0.3-6.1s-4.2-1.6-5.9-0.1s-2.1,3.9-2.2,6.1c-0.2,8.4,5.3,15.1,12.5,18.7
	C276.5,176.9,284.5,174.6,290.8,170.8z"/>
<g id="l-arm">
	<path class="st0" d="M69.2,223.9c3.7-2.4,8.4-1.4,10.3,2c2,3.4,0.9,7.9-2.4,10L69.2,223.9z"/>
	<path class="st0" d="M65.7,244.4l-9.2-11c1-0.9,2-1.7,3.1-2.5l3.1-2.4c2.1-1.6,4.3-3,6.5-4.6l7.9,12c-2,1.4-3.9,2.7-5.8,4.1
		l-2.8,2.2C67.5,242.9,66.6,243.6,65.7,244.4z"/>
	<path class="st1" d="M63.5,227.8c0.3,1.2,0.8,2.4,1.3,3.5c0.5,1.1,1.2,2.1,1.9,3c0.7,1,1.6,1.8,2.4,2.7c0.9,0.8,1.8,1.6,2.8,2.5
		c-1.3-0.2-2.5-0.7-3.7-1.3c-1.1-0.7-2.2-1.6-3-2.6c-0.9-1.1-1.5-2.3-1.8-3.6c-0.2-0.7-0.3-1.3-0.3-2
		C63.2,229.2,63.3,228.5,63.5,227.8z"/>
	<path class="st0" d="M55.5,254.2l-10.6-9.7c3.6-3.9,7.5-7.6,11.6-11l9.3,11C62.1,247.4,58.6,250.7,55.5,254.2z"/>
	<path class="st1" d="M51.2,238c0.5,1.2,1.1,2.3,1.8,3.3c0.6,1,1.4,1.9,2.2,2.8c0.8,0.8,1.8,1.6,2.7,2.3c1,0.7,2,1.4,3.1,2.1
		c-1.3-0.1-2.6-0.3-3.8-0.9c-1.2-0.5-2.4-1.3-3.3-2.2c-1-0.9-1.7-2.1-2.2-3.3c-0.2-0.6-0.4-1.3-0.5-2
		C51.1,239.4,51.1,238.7,51.2,238z"/>
	<path class="st0" d="M46.7,265.1L34.8,257l2.3-3.3c0.8-1.1,1.7-2.1,2.5-3.2l2.5-3.1l2.7-3l10.6,9.7l-2.4,2.6l-2.2,2.7
		c-0.7,0.9-1.5,1.8-2.2,2.8L46.7,265.1z"/>
	<path class="st1" d="M40.3,249.7c0.6,1.1,1.3,2.1,2.2,3.1c0.8,0.9,1.6,1.7,2.6,2.4c0.9,0.7,1.9,1.4,3,1.9c1.1,0.6,2.2,1.1,3.4,1.7
		c-1.3,0.1-2.6,0-3.9-0.4c-1.3-0.4-2.5-1-3.6-1.8c-1.1-0.8-2-1.8-2.7-3c-0.3-0.6-0.6-1.2-0.8-1.9C40.3,251.1,40.2,250.4,40.3,249.7z
		"/>
	<path class="st0" d="M39.6,277.2l-12.9-6.3c0.6-1.2,1.2-2.4,1.9-3.6s1.2-2.4,2-3.5l2.1-3.4l1.1-1.7l1.2-1.6l11.8,8.2l-1,1.4
		l-0.9,1.4l-1.8,3c-0.6,1-1.1,2-1.7,3.1S40.1,276.1,39.6,277.2z"/>
	<path class="st1" d="M31,262.9c0.8,1,1.6,1.9,2.5,2.7c0.9,0.8,1.9,1.4,2.9,2c1.1,0.6,2.1,1.1,3.3,1.5c1.2,0.4,2.3,0.8,3.6,1.2
		c-1.3,0.3-2.6,0.3-3.9,0.2c-1.3-0.2-2.6-0.6-3.8-1.2c-1.2-0.6-2.3-1.5-3.1-2.6c-0.4-0.5-0.7-1.1-1-1.8
		C31.2,264.2,31.1,263.5,31,262.9z"/>
	<path class="st0" d="M34.5,290.1l-13.8-4.2c1.6-5.2,3.6-10.2,5.9-15.1l12.9,6.3C37.5,281.4,35.8,285.7,34.5,290.1z"/>
	<path class="st1" d="M23.8,277.3c0.9,0.9,1.9,1.7,3,2.3c1,0.6,2.1,1.2,3.2,1.6c1.1,0.4,2.3,0.7,3.4,0.9c1.2,0.2,2.4,0.4,3.7,0.6
		c-1.2,0.5-2.5,0.8-3.8,0.8c-1.4,0-2.7-0.2-4-0.6c-1.3-0.4-2.5-1.1-3.4-2.1c-0.5-0.5-0.9-1-1.3-1.6C24.2,278.6,23.9,278,23.8,277.3z
		"/>
	<path class="st0" d="M31.4,303.7l-14.2-2c0.5-2.7,0.8-5.3,1.5-8l0.9-3.9c0.4-1.3,0.8-2.6,1.1-3.9l13.8,4.2c-0.3,1.1-0.7,2.2-1,3.3
		l-0.8,3.4C32.1,299.1,31.8,301.5,31.4,303.7z"/>
	<path class="st1" d="M18.9,292.7c1,0.7,2.1,1.3,3.3,1.8c1.1,0.4,2.2,0.8,3.4,1c1.2,0.2,2.4,0.4,3.6,0.4c1.2,0,2.5,0,3.8,0
		c-1.1,0.7-2.4,1.1-3.7,1.4c-1.3,0.2-2.7,0.2-4,0c-1.3-0.2-2.6-0.8-3.7-1.5c-0.6-0.4-1.1-0.8-1.5-1.4
		C19.5,293.9,19.2,293.3,18.9,292.7z"/>
	<path class="st0" d="M31.4,303.7c-0.2,0.9-0.5,1.8-0.9,2.6c-0.4,0.8-1,1.5-1.8,2.1c-1.5,1.2-3.4,1.9-5.3,1.8
		c-1.9-0.1-3.7-1.1-4.9-2.6c-0.6-0.8-1-1.7-1.3-2.7c-0.3-1-0.4-2.1-0.2-3.2L31.4,303.7z"/>
</g>
<g id="body">
	<polygon class="st2" points="216.3,331 216.3,376.4 166.4,408.5 95.7,408.5 45.8,376.4 45.8,331 55.3,324.8 84.9,305.8 95.7,298.8 
		166.4,298.8 177.2,305.8 206.8,324.8 	"/>
	<polygon class="st3" points="158.8,310.5 103.2,310.5 63.9,335.8 63.9,371.6 103.2,396.9 158.8,396.9 198.1,371.6 198.1,335.8 	"/>
	<path class="st4" d="M170.1,342.5H91.9c4.1-5.6,4.1-13.3,0-18.9h78.2C166,329.3,166,336.9,170.1,342.5z"/>
	<path class="st2" d="M189.5,320.9v0.5l0,0c-37.5,15.2-79.4,15.2-116.9,0l0,0v-0.5l22.8-19l8.4-7h54.5l8.4,7L189.5,320.9z"/>
	<path class="st5" d="M177.2,305.6L177.2,305.6c-29,14.7-63.3,14.7-92.3,0l0,0v-91.3c0-4.5,3.7-8.2,8.2-8.2H169
		c4.5,0,8.2,3.7,8.2,8.2v0L177.2,305.6z"/>
	<path class="st6" d="M177.2,305.6L177.2,305.6c-29,14.7-63.3,14.7-92.3,0l0,0"/>
	<path class="st7" d="M160.6,299.7L160.6,299.7c-19,7.5-40.2,7.5-59.2,0l0,0V253c0-2.3,2.3-4.2,5.3-4.2h48.7c2.9,0,5.3,1.9,5.3,4.2
		V299.7z"/>
	<rect x="121.3" y="150.3" class="st1" width="19.5" height="42.9"/>
	<ellipse class="st2" cx="131" cy="206.1" rx="39.1" ry="5.8"/>
	<rect x="91.9" y="185.5" class="st2" width="78.2" height="20.6"/>
	<ellipse class="st8" cx="131" cy="185.5" rx="39.1" ry="5.8"/>
	<path class="st9" d="M158.1,184.5c0,1.3-7.2,2.4-17.3,2.8c-3,0.1-6.3,0.2-9.8,0.2s-6.7-0.1-9.8-0.2c-10.1-0.4-17.3-1.5-17.3-2.8
		s7.2-2.4,17.3-2.8c3-0.1,6.3-0.2,9.8-0.2c3.4,0,6.7,0.1,9.8,0.2C150.9,182.1,158.1,183.2,158.1,184.5z"/>
	<path class="st1" d="M140.8,150.3v37c-3,0.1-6.3,0.2-9.8,0.2s-6.7-0.1-9.8-0.2v-37H140.8z"/>
	<path class="st10" d="M184.2,444.1H77.8c-3.9,0-7.4-2.3-9-5.9c-13.2-29.9-13.2-63.9,0-93.8c1.6-3.6,5.1-5.9,9-5.9h106.4
		c3.9,0,7.4,2.3,9,5.9c13.2,29.9,13.2,63.9,0,93.8C191.6,441.8,188.1,444.1,184.2,444.1z"/>
	<path class="st2" d="M84.8,213.5c-1.5-3.5-5-8.2-9.3-6.2c-2.5,1.3-2.9,4.5-2.9,7.3c-0.2,11,2.8,23.5,12.2,30.4L84.8,213.5z"/>
	<path class="st2" d="M177.2,213.5c1.5-3.5,5-8.2,9.3-6.2c2.5,1.3,2.9,4.5,2.9,7.3c0.2,11-2.8,23.5-12.2,30.4V213.5z"/>
	<path class="st11" d="M72.6,340c4.9,1.2,9.8,2.4,14.7,3.6l14.6,3.9c9.8,2.6,19.5,5.3,29.3,8h-0.5c9.7-2.7,19.5-5.4,29.2-8l14.7-3.8
		c4.9-1.2,9.8-2.5,14.7-3.6c-4.8,1.6-9.6,3-14.5,4.6l-14.5,4.4c-9.7,2.9-19.4,5.6-29.1,8.4l-0.3,0.1l-0.3-0.1
		c-9.7-2.8-19.4-5.5-29.1-8.4l-14.5-4.4C82.3,343.1,77.4,341.6,72.6,340z"/>
	<path class="st11" d="M72.6,368c4.9,1.2,9.8,2.4,14.7,3.6l14.6,3.8c9.8,2.6,19.5,5.3,29.3,8h-0.5c9.7-2.7,19.5-5.4,29.2-8l14.7-3.8
		c4.9-1.2,9.8-2.5,14.7-3.6c-4.8,1.6-9.6,3-14.5,4.6l-14.5,4.4c-9.7,2.9-19.4,5.6-29.1,8.4l-0.3,0.1l-0.3-0.1
		c-9.7-2.8-19.4-5.5-29.1-8.4l-14.5-4.4C82.3,371,77.4,369.6,72.6,368z"/>
	<path class="st11" d="M72.6,395.9c4.9,1.1,9.8,2.4,14.7,3.6l14.6,3.8c9.8,2.6,19.5,5.3,29.3,8h-0.5c9.7-2.7,19.5-5.4,29.2-8
		l14.7-3.8c4.9-1.2,9.8-2.5,14.7-3.6c-4.8,1.6-9.6,3-14.5,4.5l-14.5,4.4c-9.7,2.9-19.4,5.7-29.1,8.4l-0.3,0.1l-0.3-0.1
		c-9.7-2.8-19.4-5.5-29.1-8.4l-14.5-4.4C82.3,399,77.4,397.5,72.6,395.9z"/>
	<path class="st11" d="M72.6,423.9c4.9,1.1,9.8,2.4,14.7,3.6l14.6,3.8c9.8,2.6,19.5,5.3,29.3,8h-0.5c9.7-2.7,19.5-5.4,29.2-8
		l14.7-3.8c4.9-1.2,9.8-2.5,14.7-3.6c-4.8,1.6-9.6,3-14.5,4.5l-14.5,4.4c-9.7,2.9-19.4,5.7-29.1,8.4l-0.3,0.1l-0.3-0.1
		c-9.7-2.8-19.4-5.5-29.1-8.4l-14.5-4.4C82.3,426.9,77.4,425.5,72.6,423.9z"/>
</g>
<path id="l-hand" class="st0" d="M5.1,316.6c-0.9,1.4-1.8,3-1.2,4.5c0.9,2.5,4.6,2.4,6.7,0.8s3.5-4,5.7-5.4c1.1-0.7,2.6-1.1,3.7-0.4
	s1.2,2.2,1.2,3.5l0.3,11.2c-0.1,1.4,0.2,2.8,0.8,4.1c0.6,1.3,2.1,2,3.5,1.6c1.5-0.6,1.9-2.5,2.1-4.2l1.1-11.8c0-1.1,0.4-2.1,1.1-2.9
	c1.6-1.3,4,0.7,4.7,2.6s1,4.4,2.8,5.4s4.5-0.3,5.3-2.4s0.3-4.4-0.5-6.4c-3.3-7.7-11.2-11.5-19.2-11.8
	C15.6,305.1,9.2,310.5,5.1,316.6z"/>
<g id="head">
	<path class="st1" d="M68.3,30.7c-6.9-5-11.7-12.5-13.4-20.9c-0.2-1-0.6-2.4-1.7-2.4c-0.7,0.1-1.3,0.4-1.7,1
		c-5.5,5.9-10.4,12.3-14.7,19.1c2,0.9,4.3-0.5,6-2s3.8-2.9,5.9-2.2c1.2,0.6,2.2,1.5,2.9,2.6l9,12.5L68.3,30.7z"/>
	<path class="st1" d="M193.8,30.7c6.9-5,11.7-12.5,13.4-20.9c0.2-1,0.6-2.4,1.7-2.4c0.7,0.1,1.3,0.4,1.6,1
		c5.5,5.9,10.4,12.3,14.7,19.1c-2,0.9-4.3-0.5-6-2s-3.9-2.9-5.9-2.2c-1.2,0.5-2.2,1.5-2.9,2.6l-9,12.5L193.8,30.7z"/>
	<path class="st0" d="M258.2,68.5c-6.6-8-18.6-8.3-28.4-12C199,44.9,188.1,3.7,152,0.1c-0.6-0.1-1.2-0.1-1.8-0.1h-38.3
		c-0.6,0-1.2,0.1-1.8,0.1c-36.2,3.5-47,44.8-77.9,56.3c-9.8,3.7-21.7,4-28.4,12c-9.7,11.7,0.3,30.1,13.6,37.4s29.3,8.7,42.3,16.7
		c11.5,7.1,19.4,18.6,29.4,27.6c6.4,5.7,14.5,10.5,22.8,11.8h38.2c8.3-1.3,16.4-6,22.8-11.8c10-9,17.9-20.5,29.4-27.6
		c12.9-8,28.9-9.4,42.3-16.7S267.9,80.2,258.2,68.5z"/>
	<path class="st12" d="M177.6,70.6c0,25.7-20.9,46.5-46.6,46.5c-25.7,0-46.5-20.9-46.5-46.6c0-25.7,20.9-46.5,46.6-46.5
		c23,0,42.5,16.8,45.9,39.5C177.4,65.9,177.6,68.3,177.6,70.6z"/>
	<path class="st1" d="M160.1,127.7c-3.6,3.8-7.9,6.7-12.8,8.6c-4.9,1.9-10.1,2.9-15.3,2.8c-5.3,0.1-10.5-0.8-15.4-2.8
		c-4.8-1.9-9.2-4.8-12.8-8.6c4.2,2.7,8.8,4.7,13.6,6.1c4.7,1.4,9.6,2,14.5,1.9c4.9,0.1,9.8-0.5,14.5-1.9
		C151.3,132.4,155.8,130.3,160.1,127.7z"/>
	<path class="st13" d="M176.8,68.7c0,25.3-20.5,45.8-45.8,45.8S85.2,94.1,85.2,68.8S105.7,23,131,23c22.6,0,41.8,16.5,45.3,38.8
		C176.6,64.1,176.8,66.4,176.8,68.7z"/>
	<circle class="st14" cx="131" cy="68.7" r="27.1"/>
	<circle class="st15" cx="131" cy="68.7" r="18.1"/>
	<path class="st1" d="M83.5,60.9c9.4-53.4,85.7-53.4,95.1,0c0.2,1-0.5,2-1.6,2.2c-0.3,0-0.6,0-1-0.1c-29-10.9-61-10.9-90.1,0
		c-1,0.4-2.1-0.1-2.4-1.1C83.5,61.6,83.4,61.3,83.5,60.9z"/>
</g>
</svg>
