<?xml version="1.0" encoding="utf-8"?>
<!-- Generator: Adobe Illustrator 25.2.0, SVG Export Plug-In . SVG Version: 6.00 Build 0)  -->
<svg version="1.1" id="Layer_1" xmlns="http://www.w3.org/2000/svg" xmlns:xlink="http://www.w3.org/1999/xlink" x="0px" y="0px"
	 viewBox="0 0 235.3 444.1" style="enable-background:new 0 0 235.3 444.1;" xml:space="preserve">
<style type="text/css">
	.st0{fill:#00D0D0;}
	.st1{fill:#00A0A0;}
	.st2{fill:#CBCBCB;}
	.st3{fill:#4D4D4D;}
	.st4{fill:#C0272D;}
	.st5{fill:#B2B2B2;}
	.st6{fill:#02799E;}
	.st7{fill:#02526B;}
	.st8{fill:#023E51;}
	.st9{fill:#9D2025;}
	.st10{fill:#989898;}
	.st11{fill:none;stroke:#CBCBCB;stroke-width:7.22;stroke-linecap:round;stroke-miterlimit:10;}
	.st12{fill:#008181;}
	.st13{fill:#FFFFFF;}
	.st14{clip-path:url(#SVGID_2_);}
	.st15{fill:#D43D40;}
	.st16{fill:#782224;}
	.st17{clip-path:url(#SVGID_4_);}
</style>
<g id="b-arm">
	<path class="st0" d="M113.5,216.2c3.4-2,7.8-1.1,10,2.1c2.2,3.3,1.1,7.9-2.7,10.2L113.5,216.2z"/>
	<path class="st0" d="M106.8,235.9l-5.9-13.1c1.1-0.4,2.1-1,3.2-1.5l3.2-1.6c2.1-1.1,4.2-2.3,6.2-3.5l7.4,12.3
		c-2.3,1.3-4.6,2.6-6.9,3.9l-3.6,1.8C109.2,234.8,108,235.4,106.8,235.9z"/>
	<path class="st1" d="M108.1,219.3c0.2,1.2,0.5,2.4,0.8,3.6c0.4,1.1,0.8,2.2,1.4,3.3c0.6,1.1,1.2,2.1,2,3c0.8,0.9,1.6,1.9,2.5,2.8
		c-1.3-0.3-2.6-1-3.6-1.9c-1.1-0.9-1.9-1.9-2.6-3.1c-0.6-1.2-1-2.5-1.1-3.9c-0.1-0.7-0.1-1.3,0-2
		C107.6,220.5,107.8,219.9,108.1,219.3z"/>
	<path class="st0" d="M91.8,241.5l-4.2-13.8c4.5-1.4,8.9-3.1,13.2-5l5.9,13.1C101.9,238.1,96.9,240,91.8,241.5z"/>
	<path class="st1" d="M95.2,225.2c0,1.2,0.2,2.5,0.4,3.7c0.2,1.2,0.6,2.3,1,3.4c0.4,1.1,1,2.2,1.6,3.2c0.6,1,1.4,2,2.2,3.1
		c-1.3-0.5-2.4-1.3-3.4-2.3c-0.9-1-1.7-2.1-2.1-3.4c-0.5-1.3-0.7-2.6-0.7-4c0-0.7,0.1-1.3,0.3-2C94.6,226.3,94.8,225.7,95.2,225.2z"
		/>
	<path class="st0" d="M76.1,245.1l-2.2-14.2l3.5-0.6c1.2-0.2,2.3-0.5,3.4-0.8l3.4-0.8l3.4-1l4.2,13.8l-3.8,1.1l-3.9,0.9
		c-1.3,0.3-2.6,0.7-3.9,0.9L76.1,245.1z"/>
	<path class="st1" d="M81.7,229.4c-0.1,1.2-0.2,2.5-0.1,3.7c0.1,1.2,0.2,2.4,0.5,3.5c0.3,1.2,0.7,2.3,1.2,3.4
		c0.5,1.1,1.1,2.2,1.7,3.4c-1.2-0.7-2.2-1.6-3-2.7c-0.8-1.1-1.4-2.3-1.7-3.6c-0.3-1.3-0.3-2.7-0.1-4c0.1-0.7,0.3-1.3,0.5-1.9
		C81,230.5,81.3,229.9,81.7,229.4z"/>
	<path class="st0" d="M60,246.5l0-14.4c1.2,0,2.3-0.1,3.5-0.1s2.3,0,3.5-0.2l3.5-0.4l1.8-0.2l1.7-0.3l2.2,14.2l-2,0.3l-2,0.2l-4,0.4
		c-1.3,0.2-2.7,0.1-4,0.2S61.4,246.5,60,246.5z"/>
	<path class="st1" d="M67.9,231.7c-0.3,1.2-0.5,2.4-0.6,3.7c-0.1,1.2-0.1,2.4,0,3.6c0.1,1.2,0.4,2.4,0.7,3.5
		c0.3,1.2,0.8,2.3,1.2,3.6c-1.1-0.8-2-1.8-2.6-3.1c-0.6-1.2-1-2.5-1.1-3.9c-0.1-1.4,0.1-2.7,0.5-4c0.2-0.6,0.5-1.2,0.8-1.8
		C67,232.7,67.4,232.1,67.9,231.7z"/>
	<path class="st0" d="M43.9,245.2l2.2-14.2c4.6,0.7,9.2,1,13.9,1l0.1,14.4C54.7,246.4,49.3,246,43.9,245.2z"/>
	<path class="st1" d="M53.9,231.9c-0.5,1.1-0.9,2.3-1.2,3.5c-0.3,1.1-0.5,2.3-0.5,3.5c-0.1,1.2,0,2.4,0.2,3.6
		c0.2,1.2,0.4,2.4,0.7,3.8c-1-1-1.7-2.2-2.1-3.5c-0.4-1.3-0.6-2.6-0.5-4c0.1-1.3,0.5-2.7,1.1-3.9c0.3-0.6,0.7-1.2,1.1-1.7
		C52.9,232.7,53.4,232.3,53.9,231.9z"/>
	<path class="st0" d="M28.2,241.6l4.4-13.7c2.2,0.6,4.4,1.4,6.7,1.8l3.4,0.8c1.1,0.2,2.3,0.4,3.4,0.6l-2.2,14.2
		c-1.3-0.2-2.7-0.4-4-0.6l-4-0.9C33.3,243.2,30.8,242.3,28.2,241.6z"/>
	<path class="st1" d="M40.1,229.9c-0.7,1.1-1.2,2.2-1.7,3.3c-0.5,1.1-0.8,2.2-1.1,3.4c-0.2,1.2-0.4,2.4-0.4,3.6c0,1.2,0,2.5,0.1,3.8
		c-0.8-1.1-1.3-2.4-1.6-3.7c-0.2-1.3-0.2-2.7,0.1-4c0.3-1.3,0.9-2.6,1.7-3.7c0.4-0.6,0.8-1.1,1.3-1.5
		C39,230.6,39.5,230.2,40.1,229.9z"/>
	<path class="st0" d="M28.2,241.6c-1-0.3-2-0.8-2.8-1.6c-0.8-0.7-1.4-1.4-1.9-2.3c-0.9-1.7-1-3.7-0.3-5.5c0.7-1.8,2.1-3.2,3.9-4
		c0.8-0.4,1.7-0.6,2.6-0.7c0.9,0,1.9,0.1,2.8,0.3L28.2,241.6z"/>
</g>
<path id="b-hand" class="st0" d="M27.3,212c-0.8-1.4-1.9-2.9-3.5-3.1c-2.6-0.3-4.2,3-3.8,5.6s1.9,4.9,2.2,7.5
	c0.1,1.3-0.2,2.8-1.4,3.4s-2.5,0-3.6-0.5l-10.1-4.9c-1.2-0.7-2.6-1.1-4-1.2c-1.4-0.1-2.7,0.9-3.1,2.3c-0.2,1.6,1.4,2.9,2.7,3.8
	l9.9,6.4c0.9,0.5,1.7,1.3,2,2.3c0.4,2.1-2.4,3.2-4.5,2.9s-4.4-1.2-6.1,0s-1.8,4.2-0.4,5.8s3.8,2.3,5.9,2.5
	c8.4,0.6,15.4-4.6,19.3-11.6C32.7,226.6,30.8,218.5,27.3,212z"/>
<g id="body">
	<polygon class="st2" points="79.5,391.8 151.1,391.8 139.2,376.6 139.2,331.8 67.7,331.8 67.7,376.6 	"/>
	<polygon class="st2" points="59.8,376.6 131.4,376.6 143.2,391.8 71.7,391.8 	"/>
	<rect x="59.8" y="331.8" class="st2" width="71.5" height="44.7"/>
	<polygon class="st2" points="151.1,316.6 79.5,316.6 67.7,331.8 139.2,331.8 	"/>
	<polygon class="st2" points="143.2,316.6 71.7,316.6 59.8,331.8 131.4,331.8 	"/>
	<polygon class="st3" points="84.7,391.8 156.2,391.8 144.4,376.6 144.4,331.8 72.8,331.8 72.8,376.6 	"/>
	<polygon class="st3" points="65,376.6 136.5,376.6 148.3,391.8 76.8,391.8 	"/>
	<rect x="65" y="331.8" class="st3" width="71.5" height="44.7"/>
	<polygon class="st3" points="156.2,316.6 84.7,316.6 72.8,331.8 144.4,331.8 	"/>
	<polygon class="st3" points="148.3,316.6 76.8,316.6 65,331.8 136.5,331.8 	"/>
	<path class="st4" d="M159.7,215.6v101H69.6v-101c0-8,6.5-14.5,14.5-14.5h61.1C153.2,201.1,159.7,207.6,159.7,215.6z"/>
	<polygon class="st5" points="55.4,376.8 138.4,376.8 152.1,392 69.1,392 	"/>
	<path class="st6" d="M79.1,340h65.5c23.7,0,43,19.2,43,43v18.2c0,23.7-19.2,43-43,43H79.1c-23.7,0-43-19.2-43-43V383
		C36.2,359.3,55.4,340,79.1,340z"/>
	<path class="st7" d="M84.7,340h65.5c23.7,0,43,19.2,43,43v18.2c0,23.7-19.2,43-43,43H84.7c-23.7,0-43-19.2-43-43V383
		C41.8,359.3,61,340,84.7,340z"/>
	<path class="st8" d="M74.3,376.2h86.3c8.8,0,15.9,7.1,15.9,15.9v0c0,8.8-7.1,15.9-15.9,15.9H74.3c-8.8,0-15.9-7.1-15.9-15.9v0
		C58.4,383.3,65.6,376.2,74.3,376.2z"/>
	<path class="st9" d="M98.3,253v54.1c-11.5,0.4-18.5-0.7-28.7-1.8v-56.5H93C95.9,248.8,98.3,250.7,98.3,253z"/>
	<path class="st1" d="M122.9,150.3v37c-3,0.1-6.3,0.2-9.8,0.2s-6.7-0.1-9.8-0.2v-37H122.9z"/>
	<rect x="79.8" y="180.5" class="st2" width="68.9" height="21.4"/>
	<polygon class="st2" points="151.5,316.6 68.5,316.6 82.2,331.8 82.2,376.6 165.2,376.6 165.2,331.8 	"/>
	<polygon class="st5" points="174.4,331.8 91.4,331.8 77.6,316.6 160.6,316.6 	"/>
	<rect x="91.4" y="331.8" class="st10" width="83" height="44.7"/>
	<path class="st11" d="M159.7,313.6c-33.7,5-61.3,5.5-89.5,2.9"/>
	<polygon class="st2" points="68.5,391.8 151.5,391.8 165.2,376.6 82.2,376.6 	"/>
	<polygon class="st5" points="77.6,391.8 160.6,391.8 174.4,376.6 91.4,376.6 	"/>
	<rect x="82.2" y="331.8" class="st2" width="9.2" height="44.7"/>
	<path class="st5" d="M106.1,213.6c1.9-5.2,9.9-12.6,15.6-10.5s6.8,13,4.9,18.2s-12.6,19.6-18.2,17.5S104.2,218.8,106.1,213.6z"/>
	<path class="st2" d="M59.8,331.8c0,0,13,6.7,27,0l-6.4-12.2l-10.8-0.4L59.8,331.8z"/>
</g>
<g id="f-arm">
	<path class="st0" d="M109.5,220.9c1.7-3.2,6-4.3,9.6-2.5c3.4,1.8,4.8,6,3.1,9.4c-0.1,0.1-0.1,0.2-0.2,0.3L109.5,220.9z"/>
	<path class="st0" d="M113.9,240.4l-11.6-8.5c1.2-1.8,2.6-3.6,3.8-5.4s2.3-3.7,3.5-5.6l12.5,7.2c-1.3,2.1-2.6,4.2-3.9,6.3
		S115.3,238.4,113.9,240.4z"/>
	<path class="st1" d="M106.5,225.8c0.8,1,1.6,1.9,2.6,2.7c0.9,0.8,1.8,1.5,2.8,2.2c1,0.6,2.1,1.2,3.2,1.6c1.1,0.5,2.3,0.9,3.5,1.3
		c-1.3,0.3-2.6,0.3-3.9,0c-2.7-0.5-5-2.1-6.6-4.3c-0.4-0.5-0.7-1.1-1-1.7C106.8,227,106.6,226.4,106.5,225.8z"/>
	<path class="st0" d="M104.5,251.8l-10.6-9.7l2.2-2.5c0.7-0.8,1.5-1.6,2.1-2.5c1.3-1.7,2.8-3.4,4-5.2l11.6,8.5c-1.4,2-3,3.9-4.5,5.8
		c-0.7,1-1.6,1.9-2.4,2.8L104.5,251.8z"/>
	<path class="st1" d="M98.8,236.4c0.7,1.1,1.4,2.1,2.2,3c1.6,1.8,3.5,3.3,5.6,4.4c1.1,0.6,2.2,1.1,3.4,1.7c-1.3,0.2-2.6,0-3.9-0.4
		c-2.6-0.8-4.8-2.6-6.1-5c-0.3-0.6-0.6-1.2-0.8-1.8C98.9,237.7,98.8,237.1,98.8,236.4z"/>
	<path class="st0" d="M94,262.1l-9.5-10.8c3.3-2.9,6.4-6,9.4-9.2l10.6,9.7C101.2,255.4,97.7,258.9,94,262.1z"/>
	<path class="st1" d="M89.9,246.2c0.6,1.1,1.2,2.2,1.9,3.2c0.7,1,1.4,1.9,2.3,2.7c0.9,0.8,1.8,1.6,2.8,2.3c1,0.7,2,1.3,3.2,2
		c-1.3,0-2.6-0.3-3.8-0.8c-1.2-0.5-2.3-1.3-3.2-2.2c-1-1-1.8-2.1-2.3-3.4c-0.3-0.6-0.5-1.2-0.6-1.9
		C89.9,247.5,89.9,246.9,89.9,246.2z"/>
	<path class="st0" d="M82.3,271.2l-8.2-11.8c3.6-2.5,7.1-5.2,10.4-8.1l9.5,10.8C90.3,265.4,86.4,268.4,82.3,271.2z"/>
	<path class="st1" d="M80.1,255c0.4,1.2,0.9,2.3,1.5,3.4c0.6,1,1.2,2,2,3c0.8,0.9,1.6,1.8,2.5,2.6c0.9,0.8,1.9,1.5,2.9,2.4
		c-1.3-0.1-2.6-0.6-3.7-1.3c-1.2-0.7-2.2-1.6-3-2.6c-0.8-1.1-1.5-2.3-1.9-3.6c-0.2-0.6-0.3-1.3-0.4-1.9C80,256.3,80,255.6,80.1,255z
		"/>
	<path class="st0" d="M69.7,278.9L63,266.2c3.9-2,7.6-4.3,11.2-6.8l8.2,11.8C78.3,274.1,74.1,276.6,69.7,278.9z"/>
	<path class="st1" d="M69.3,262.5c0.3,1.2,0.7,2.4,1.2,3.5c0.4,1.1,1,2.2,1.6,3.2c0.6,1,1.4,1.9,2.2,2.8c0.8,0.9,1.7,1.8,2.6,2.7
		c-1.3-0.3-2.5-0.8-3.6-1.6c-1.1-0.8-2-1.8-2.7-3c-0.7-1.2-1.2-2.4-1.4-3.8c-0.1-0.7-0.2-1.3-0.2-2
		C69.1,263.8,69.2,263.1,69.3,262.5z"/>
	<path class="st0" d="M56.1,285l-5-13.5c4.1-1.5,8.1-3.3,11.9-5.3l6.7,12.7C65.3,281.3,60.7,283.3,56.1,285z"/>
	<path class="st1" d="M57.8,268.7c0.1,1.2,0.4,2.5,0.7,3.7c0.3,1.1,0.7,2.3,1.2,3.3c0.5,1.1,1.1,2.1,1.8,3.1c0.7,1,1.5,2,2.3,3
		c-1.2-0.4-2.4-1.1-3.3-2.1c-1-0.9-1.7-2.1-2.3-3.3c-0.6-1.2-0.9-2.5-1-3.9c0-0.7,0-1.3,0.1-2C57.4,269.9,57.6,269.3,57.8,268.7z"/>
	<path class="st0" d="M41.6,289.2l-3-14.1l3.1-0.8c1-0.3,2.1-0.4,3.1-0.8l3.1-1c1-0.3,2.1-0.6,3.1-1l5,13.5
		c-1.2,0.5-2.3,0.8-3.5,1.2l-3.6,1.1c-1.2,0.4-2.4,0.6-3.6,1L41.6,289.2z"/>
	<path class="st1" d="M45.7,273.3c0,1.2,0,2.5,0.2,3.7c0.1,1.2,0.4,2.3,0.8,3.5c0.4,1.1,0.8,2.2,1.3,3.3c0.5,1.1,1.2,2.1,1.9,3.3
		c-1.2-0.6-2.2-1.5-3-2.5c-0.8-1.1-1.5-2.3-1.9-3.6c-0.4-1.3-0.5-2.7-0.4-4c0.1-0.7,0.2-1.3,0.3-1.9
		C45.1,274.4,45.4,273.9,45.7,273.3z"/>
	<path class="st0" d="M41.6,289.2c-1.9,0.4-4,0-5.6-1.2c-1.6-1.1-2.6-2.8-2.8-4.7c-0.2-1.9,0.2-3.8,1.3-5.4c0.9-1.5,2.4-2.5,4.2-2.9
		L41.6,289.2z"/>
</g>
<path id="f-hand" class="st0" d="M27,263.8c-1.4-0.9-3.1-1.6-4.6-1c-2.4,1-2.2,4.7-0.6,6.7s4.1,3.3,5.6,5.5c0.7,1.1,1.2,2.6,0.5,3.6
	s-2.2,1.2-3.4,1.3l-11.2,0.6c-1.4,0-2.8,0.3-4.1,0.9c-1.3,0.6-1.9,2.1-1.6,3.5c0.6,1.5,2.6,1.9,4.2,2l11.8,0.8
	c1.1-0.1,2.1,0.3,2.9,1c1.4,1.6-0.5,4-2.5,4.8s-4.4,1.1-5.4,3s0.5,4.5,2.5,5.3s4.4,0.2,6.4-0.7c7.6-3.5,11.1-11.5,11.2-19.5
	C38.8,273.9,33.1,267.7,27,263.8z"/>
<g id="head">
	<path class="st0" d="M217.8,105.9c-13.3,7.3-29.4,8.7-42.3,16.7c-11.5,7.1-19.4,18.6-29.4,27.6c-6.4,5.7-14.5,10.5-22.8,11.8h-19.1
		c-18.2,0-30.2-14.2-36.5-35.2c-1-3.2-1.8-6.4-2.5-9.5c-0.2-0.9-0.4-1.8-0.6-2.7c-1.5-7.1-2.4-14.3-2.9-21.5V69.5
		c0-15.8,4.2-31.2,12-44.9c0,0,0,0,0-0.1c0.2-0.3,0.3-0.6,0.5-0.9c0.4-0.7,0.8-1.3,1.2-1.9C84.9,8.1,100.4-0.1,116.9,0h6.5
		c0.6,0,1.2,0.1,1.8,0.1c19.8,1.9,32.1,15.2,44.2,28.8c2.3,2.5,4.5,5.1,6.8,7.5c7.8,8.4,16.1,16,26.9,20.1c9.8,3.7,21.7,4,28.4,12
		C241.1,80.2,231.1,98.6,217.8,105.9z"/>
	<path class="st1" d="M148.5,30.7c6.9-5,11.7-12.5,13.4-20.9c0.2-1,0.6-2.4,1.7-2.4c0.7,0.1,1.3,0.4,1.6,1
		c5.5,5.9,10.4,12.3,14.7,19.1c-2,0.9-4.3-0.5-6-2s-3.9-2.9-5.9-2.2c-1.2,0.6-2.2,1.5-2.9,2.6l-9,12.5L148.5,30.7z"/>
	<path class="st12" d="M113,70.6c0,25.7-20.8,46.6-46.6,46.6c0,0,0,0,0,0c-0.4,0-0.8,0-1.2,0c-0.2-0.9-0.4-1.8-0.6-2.7
		c-1.5-7.1-2.4-14.3-2.9-21.5V69.5c0-15.8,4.2-31.2,12-44.9C88.7,27,101.5,36.5,108.2,50c0,0,0,0,0,0c2,4.1,3.4,8.5,4.2,13.1
		c0,0.1,0,0.3,0.1,0.4C112.8,65.9,113,68.2,113,70.6z"/>
	<path class="st13" d="M66.3,114.2c-0.6,0-1.2,0-1.8,0l0,0c-0.9,0-1.6-0.7-1.8-1.6l0,0c-1.5-7-2.4-14.1-2.9-21.3v-23
		c0-15.7,4.1-31.2,11.9-44.8l0.1-0.2l0,0l0.1-0.1c0.1-0.2,0.3-0.5,0.4-0.7l0,0c0.4-0.7,1.2-1,2-0.9l0,0
		c15.3,2.7,28.2,12.7,34.5,26.9l0.2,0.4l0,0c1.6,3.7,2.8,7.6,3.4,11.6c0.1,0.5,0.1,0.9,0.2,1.4c0.2,1.9,0.4,3.8,0.3,5.6
		C112.9,93.3,92,114.2,66.3,114.2z"/>
	<g>
		<defs>
			<path id="SVGID_1_" d="M66.4,116.5c-0.6,0-1.2,0-1.8,0h-1.6l-0.3-1.6c-1.5-7.2-2.5-14.5-3-21.8V69.5c0-16.1,4.2-31.9,12.3-45.9
				l0.1-0.2l0,0l0.1-0.1c0.1-0.2,0.3-0.5,0.4-0.7l0.7-1.1l1.3,0.2c15.6,2.7,28.9,13,35.4,27.5l0.2,0.4l0,0c1.7,3.8,2.8,7.8,3.4,11.9
				c0.1,0.5,0.1,1,0.2,1.4c0.2,1.9,0.4,3.9,0.4,5.8C114.1,95.1,92.8,116.5,66.4,116.5z"/>
		</defs>
		<clipPath id="SVGID_2_">
			<use xlink:href="#SVGID_1_"  style="overflow:visible;"/>
		</clipPath>
		<g class="st14">
			<circle class="st15" cx="61.5" cy="68.7" r="27.1"/>
			<circle class="st16" cx="61.5" cy="68.7" r="18.2"/>
		</g>
	</g>
	<path class="st1" d="M112.2,66.2c-0.2,0-0.5,0-0.7,0c-0.4-0.1-0.8-0.2-1.2-0.3c-14-5.3-28.9-8-43.9-8c-1.1,0-2.3,0-3.4,0L60.7,58
		c-0.6,0-1.1-0.4-1.1-1c0-0.1,0-0.1,0-0.2l0.4-2.3c1.8-11,5.6-21.6,11.1-31.3l0.2-0.3l0,0l0,0l0.4-0.7c0.4-0.7,0.8-1.4,1.3-2l0,0
		c0.7-1,1.8-1.5,3-1.3l0,0c21.3,3.9,37,19.8,40.9,41.7c0.3,1.9-0.4,3.8-2,4.9c-0.7,0.5-1.5,0.8-2.3,0.8
		C112.4,66.2,112.3,66.2,112.2,66.2z"/>
	<g>
		<defs>
			<path id="SVGID_3_" d="M217.8,105.9c-13.3,7.3-29.4,8.7-42.3,16.7c-11.5,7.1-19.4,18.6-29.4,27.6c-6.4,5.7-14.5,10.5-22.8,11.8
				h-19.1c-18.2,0-30.2-14.2-36.5-35.2c-1-3.2-1.8-6.4-2.5-9.5c-0.2-0.9-0.4-1.8-0.6-2.7c-1.5-7.1-2.4-14.3-2.9-21.5V69.5
				c0-15.8,4.2-31.2,12-44.9c0,0,0,0,0-0.1c0.2-0.3,0.3-0.6,0.5-0.9c0.4-0.7,0.8-1.3,1.2-1.9C84.9,8.1,100.4-0.1,116.9,0h6.5
				c0.6,0,1.2,0.1,1.8,0.1c19.8,1.9,32.1,15.2,44.2,28.8c2.3,2.5,4.5,5.1,6.8,7.5c7.8,8.4,16.1,16,26.9,20.1c9.8,3.7,21.7,4,28.4,12
				C241.1,80.2,231.1,98.6,217.8,105.9z"/>
		</defs>
		<clipPath id="SVGID_4_">
			<use xlink:href="#SVGID_3_"  style="overflow:visible;"/>
		</clipPath>
		<g class="st17">
			<path class="st1" d="M89.9,127.6c-3.5,3.8-7.9,6.8-12.8,8.6c-4.9,2-10.1,2.9-15.4,2.8c-5.3,0.1-10.5-0.8-15.4-2.8
				c-4.8-1.9-9.2-4.8-12.8-8.6c4.2,2.7,8.8,4.7,13.6,6.2c4.7,1.4,9.6,2,14.5,1.9c4.9,0.1,9.8-0.5,14.5-1.9
				C81.1,132.4,85.6,130.3,89.9,127.6z"/>
		</g>
	</g>
</g>
</svg>
