<?xml version="1.0" encoding="utf-8"?>
<!-- Generator: Adobe Illustrator 25.2.0, SVG Export Plug-In . SVG Version: 6.00 Build 0)  -->
<svg version="1.1" id="Layer_1" xmlns="http://www.w3.org/2000/svg" xmlns:xlink="http://www.w3.org/1999/xlink" x="0px" y="0px"
	 viewBox="0 0 268.8 447" style="enable-background:new 0 0 268.8 447;" xml:space="preserve">
<style type="text/css">
	.st0{fill:#00D0D0;}
	.st1{fill:#00A0A0;}
	.st2{fill:#4D4D4D;}
	.st3{fill:#CBCBCB;}
	.st4{fill:#02799E;}
	.st5{fill:#02526B;}
	.st6{fill:#023E51;}
	.st7{fill:#989898;}
	.st8{fill:#B2B2B2;}
	.st9{fill:#C0272D;}
	.st10{fill:#808080;}
	.st11{fill:none;stroke:#CBCBCB;stroke-width:6.07;stroke-linecap:round;stroke-miterlimit:10;}
	.st12{fill:#9D2025;}
	.st13{clip-path:url(#SVGID_2_);}
	.st14{fill:#008181;}
	.st15{fill:#FFFFFF;}
	.st16{fill:#D43D40;}
	.st17{fill:#782224;}
</style>
<g id="l-arm">
	<path class="st0" d="M82.4,208.2c1.6-0.7,3.4-0.7,5-0.2c1.8,0.5,3.4,1.7,4.4,3.2c1.1,1.6,1.4,3.7,0.7,5.5c-0.8,2.1-2.4,3.8-4.4,4.6
		L82.4,208.2z"/>
	<path class="st0" d="M71.2,225.5l-0.9-14.4c2.1-0.1,4.2-0.5,6.2-0.9c2-0.5,4-1.2,5.9-2l5.7,13.2c-2.7,1.1-5.5,2.1-8.3,2.8
		C77,224.9,74.2,225.3,71.2,225.5z"/>
	<path class="st1" d="M77.3,210c-0.1,1.2,0,2.5,0.1,3.7c0.1,1.2,0.3,2.4,0.6,3.5c0.3,1.2,0.7,2.3,1.2,3.4c0.5,1.1,1.2,2.2,1.8,3.3
		c-1.3-0.6-2.4-1.5-3.2-2.6c-0.8-1.1-1.4-2.3-1.6-3.6c-0.3-1.3-0.3-2.7-0.1-4c0.1-0.6,0.3-1.3,0.5-1.9
		C76.7,211.1,76.9,210.5,77.3,210z"/>
	<path class="st0" d="M53.9,223.7l3.9-13.8c4,1.2,8.2,1.6,12.4,1.3l0.9,14.4C65.4,225.9,59.6,225.3,53.9,223.7z"/>
	<path class="st1" d="M64.8,211.1c-0.5,1.1-0.9,2.3-1.2,3.5c-0.3,1.1-0.5,2.3-0.7,3.5c-0.1,1.2-0.1,2.4,0,3.6
		c0.1,1.2,0.4,2.5,0.6,3.8c-1-1-1.7-2.2-2.2-3.5c-0.4-1.3-0.5-2.7-0.3-4c0.2-1.3,0.6-2.6,1.3-3.8c0.3-0.6,0.7-1.1,1.1-1.7
		C63.9,211.9,64.3,211.5,64.8,211.1z"/>
	<path class="st0" d="M38.2,216.2l8.3-11.7c3.4,2.4,7.3,4.2,11.3,5.4l-3.9,13.8C48.3,222.1,43,219.6,38.2,216.2z"/>
	<path class="st1" d="M52.7,208c-0.8,0.9-1.6,1.9-2.3,2.9c-0.7,1-1.3,2-1.8,3.1c-0.5,1.1-0.9,2.2-1.2,3.4c-0.3,1.2-0.5,2.4-0.7,3.8
		c-0.6-1.3-0.9-2.7-0.8-4.1c0-1.4,0.4-2.7,1-3.9c0.6-1.2,1.5-2.2,2.5-3.1c0.5-0.4,1-0.9,1.5-1.2C51.5,208.4,52.1,208.2,52.7,208z"/>
	<path class="st0" d="M26,203.8l11.8-8.2c1.2,1.7,2.5,3.3,4,4.8c1.5,1.5,3.1,2.8,4.8,4.1l-8.3,11.7c-2.4-1.7-4.6-3.6-6.7-5.7
		C29.5,208.4,27.7,206.2,26,203.8z"/>
	<path class="st1" d="M42.4,201c-1.1,0.6-2.1,1.3-3.2,2c-1,0.7-1.9,1.4-2.7,2.3c-0.8,0.9-1.6,1.8-2.2,2.8c-0.7,1-1.2,2.1-1.9,3.3
		c-0.2-1.4,0.1-2.9,0.6-4.2c0.5-1.3,1.3-2.4,2.3-3.3c1-0.9,2.1-1.7,3.4-2.2c0.6-0.2,1.2-0.4,1.9-0.6C41.1,201,41.7,201,42.4,201z"/>
	<path class="st0" d="M18.5,189l13.3-5.5l1.4,3.5l0.7,1.7l0.7,1.4c0.9,1.9,1.9,3.7,3.1,5.4L26,203.8c-1.7-2.4-3.1-4.9-4.4-7.6
		l-0.9-2l-0.8-1.8L18.5,189z"/>
	<path class="st1" d="M35,190.9c-1.2,0.2-2.4,0.5-3.6,0.8c-1.2,0.3-2.3,0.7-3.4,1.2c-1.1,0.5-2.1,1.2-3,1.9c-1,0.7-1.9,1.6-2.9,2.5
		c0.3-1.4,1-2.6,1.9-3.7c0.9-1,2-1.8,3.2-2.3c1.2-0.5,2.6-0.8,3.9-0.9c0.7,0,1.3,0,2,0.1C33.8,190.5,34.4,190.6,35,190.9z"/>
	<path class="st0" d="M18.6,189c-1.6-3.7,0.1-8.1,3.8-9.7c0,0,0,0,0,0c3.8-1.5,8,0.4,9.5,4.2L18.6,189z"/>
</g>
<path id="l-hand" class="st0" d="M36.1,165.5c0.1-1.6,0-3.5-1.3-4.5c-2-1.6-5.2,0.3-6.2,2.7s-1,5.2-2.1,7.5c-0.6,1.2-1.7,2.3-3,2.2
	s-2.1-1.3-2.8-2.4l-5.9-9.5c-0.6-1.2-1.6-2.3-2.7-3.1c-1.2-0.8-2.8-0.7-3.8,0.4c-1,1.3-0.4,3.2,0.3,4.6l5,10.7c0.6,0.9,0.7,2,0.5,3
	c-0.8,2-3.8,1.4-5.4,0.1s-3.1-3.3-5.2-3.3s-3.7,2.6-3.4,4.8s2,3.9,3.7,5.2c6.8,5,15.5,4.2,22.5,0.4
	C32.9,180.7,35.6,172.8,36.1,165.5z"/>
<g id="body">
	<polygon class="st2" points="146,323.1 170.1,303.8 94.7,303.8 70.6,323.1 70.6,371 85.1,387.2 162.6,378.5 146,371 	"/>
	<polygon class="st3" points="86.4,387.2 76.9,387.2 62.3,371 71.8,371 	"/>
	<polygon class="st3" points="94.7,297.6 102.4,298.6 71.8,323.1 62.3,323.1 	"/>
	<rect x="62.3" y="323.1" class="st3" width="9.4" height="47.9"/>
	<polygon class="st4" points="116.2,446.4 47.6,437.5 48.8,343.8 116.8,343.8 	"/>
	<polygon class="st4" points="129.6,320.3 200.2,329.7 200.2,424.1 130.6,416.7 	"/>
	<path class="st4" d="M116,420.7l-56.5,15.5c-20.5,5.6-37.1-8.2-37.1-30.9v-17.4c0-22.7,16.6-45.6,37.1-51.3l56.5-15.5
		c20.5-5.6,37.1,8.2,37.1,30.9v17.4C153.1,392.1,136.5,415.1,116,420.7z"/>
	<path class="st4" d="M125,383.7l-74.4,20.4c-7.6,2.1-13.7-3-13.7-11.5l0,0c0-8.4,6.2-16.9,13.7-19l74.4-20.4
		c7.6-2.1,13.7,3,13.7,11.5l0,0C138.7,373.1,132.6,381.6,125,383.7z"/>
	<path class="st5" d="M187.3,430.2l-56.5,15.5c-20.5,5.6-37.1-8.2-37.1-30.9v-17.4c0-22.7,16.6-45.6,37.1-51.3l56.5-15.5
		c20.5-5.6,37.1,8.2,37.1,30.9v17.4C224.4,401.6,207.8,424.6,187.3,430.2z"/>
	<path class="st6" d="M196.2,393.2l-74.4,20.4c-7.6,2.1-13.7-3-13.7-11.5l0,0c0-8.4,6.2-16.9,13.7-19l74.4-20.4
		c7.6-2.1,13.7,3,13.7,11.5l0,0C210,382.6,203.8,391.1,196.2,393.2z"/>
	<path class="st3" d="M76.7,316.7L76.7,316.7c28.6,11.4,62.9,12.6,92.3,3.3l0,0l0.5-15.1L95,302.2L76.7,316.7z"/>
	<polygon class="st3" points="187.9,325.8 163.5,304.1 121.9,313 147,333 147,381 132.4,397.1 173.4,384.8 187.6,369.8 187.6,325.8 
			"/>
	<polygon class="st7" points="199.6,369.8 158.9,381 158.9,333 199.6,325.8 	"/>
	<polygon class="st8" points="133.8,313 158.9,333 199.8,325.8 175.4,304.1 	"/>
	<path class="st8" d="M98.7,205c-2-5.2-10-12.6-15.6-10.5s-6.8,13-4.9,18.2s12.6,19.7,18.2,17.6S100.6,210.2,98.7,205z"/>
	<path class="st9" d="M168.9,196.3H93c-4.5-0.1-8.1,3.5-8.2,7.9c0,0,0,0,0,0v95.6c0.1,4.5,3.8,8,8.2,7.9c0,0,0,0,0,0h75.9
		c4.5,0.1,8.1-3.5,8.2-7.9c0,0,0,0,0,0v-95.6C177.1,199.8,173.4,196.2,168.9,196.3z"/>
	<path class="st8" d="M167.5,197.4c0,3.2-17.3,5.9-38.4,5.9c-20.7,0.1-37.2-2.3-37.2-5.5s16.5-5.8,37.2-5.9
		C150.2,191.8,167.5,194.2,167.5,197.4z"/>
	<polygon class="st8" points="167.5,176.8 167.5,197.4 92,197.9 92,177.9 	"/>
	<path class="st3" d="M167.5,176.8c0,3.2-17.3,6-38.4,6.3c-20.7,0.3-37.2-2-37.2-5.1s16.5-5.9,37.2-6.2
		C150.2,171.3,167.5,173.6,167.5,176.8z"/>
	<path class="st10" d="M155.6,176.1c0,1.3-7.1,2.5-17,3c-2.9,0.1-6.1,0.3-9.5,0.3s-6.5,0-9.4-0.1c-9.7-0.3-16.5-1.3-16.5-2.6
		s6.8-2.4,16.5-3c2.9-0.2,6.1-0.3,9.4-0.3c3.3-0.1,6.5,0,9.5,0.1C148.5,173.8,155.6,174.8,155.6,176.1z"/>
	<path class="st1" d="M138.6,142.4V179c-2.9,0.2-6.1,0.3-9.5,0.3s-6.5,0-9.4-0.1v-36.3L138.6,142.4z"/>
	<path class="st11" d="M177.1,303.1L177.1,303.1c-29,10.4-63.3,10.4-92.3,0l0,0"/>
	<path class="st8" d="M171.9,205c1.9-5.2,9.9-12.6,15.6-10.5s6.8,13,4.9,18.2s-12.6,19.7-18.2,17.6S170,210.2,171.9,205z"/>
	<polygon class="st8" points="199.6,369.8 185.3,384.8 144.3,397.1 158.9,381 	"/>
	<polygon class="st3" points="132.4,397.1 144.3,397.1 158.9,381 147,381 	"/>
	<rect x="147" y="333" class="st3" width="11.9" height="47.9"/>
	<path class="st12" d="M88.8,246.3v47.4c0,0,21.9,9.5,49.8,5v-49.5c0-3.1-2.4-5.6-5.4-5.9l-38.1-2.9c-3.2-0.2-6.1,2.2-6.3,5.4
		C88.8,246,88.8,246.1,88.8,246.3z"/>
	<g>
		<defs>
			<path id="SVGID_1_" d="M199.2,329.5c-0.4,0-0.8-0.1-1.2-0.1c-0.2,0-0.3,0-0.5,0c-0.4,0-0.8,0-1.1,0c-3,0-6.1,0.4-9,1.2l-35.8,9.8
				l-20.7,5.7l-0.8,0.2h-0.1c-0.6,0.2-1.2,0.4-1.7,0.6c-0.3,0.1-0.6,0.2-0.9,0.3l-0.8,0.3c-0.3,0.1-0.5,0.2-0.8,0.3
				c-1.5,0.6-3,1.4-4.4,2.2c-0.4,0.2-0.7,0.4-1.1,0.6c-0.5,0.3-1,0.6-1.4,0.9l-0.7,0.5c-0.4,0.3-0.8,0.6-1.3,0.9s-0.8,0.6-1.2,0.9
				l-1.1,0.9c-0.4,0.3-0.8,0.6-1.1,1l-0.2,0.2l-0.9,0.8l0,0l-0.9,0.9c-0.3,0.3-0.6,0.6-0.9,0.9l-0.9,0.9c-0.3,0.3-0.6,0.6-0.9,0.9
				l-0.8,0.9l-0.7,0.8c-0.5,0.5-0.9,1.1-1.3,1.7c-0.2,0.3-0.4,0.6-0.7,0.9c-0.5,0.6-1,1.3-1.4,2c-0.2,0.3-0.4,0.6-0.6,0.8
				c-1.2,1.7-2.2,3.5-3.2,5.3c-0.2,0.3-0.3,0.6-0.5,1s-0.3,0.6-0.4,0.9s-0.3,0.7-0.5,1.1s-0.3,0.7-0.4,1c-0.5,1.1-0.9,2.1-1.3,3.2
				c-0.1,0.4-0.3,0.8-0.4,1.2c-0.1,0.4-0.3,0.8-0.4,1.2s-0.2,0.7-0.3,1.1c-0.5,1.7-0.9,3.4-1.2,5.1c-0.1,0.4-0.1,0.8-0.2,1.2
				s-0.1,0.6-0.1,0.9c-0.1,0.5-0.2,1.1-0.2,1.7s-0.1,1.4-0.2,2c0,0.3,0,0.6,0,1s0,0.6,0,0.9s0,0.9,0,1.3v17.4c0,0.5,0,1,0,1.6
				s0,0.9,0.1,1.4c0,0.1,0,0.2,0,0.2c0,0.4,0,0.7,0.1,1.1c0,0.2,0,0.4,0,0.5c0,0.3,0.1,0.7,0.1,1s0.1,0.5,0.1,0.7
				c0,0.3,0.1,0.5,0.1,0.8c0,0.2,0.1,0.5,0.1,0.7s0.1,0.6,0.2,0.9c0,0.1,0,0.1,0,0.2c0.2,0.9,0.4,1.7,0.7,2.5c0,0.1,0.1,0.2,0.1,0.3
				c0.1,0.4,0.2,0.8,0.4,1.2c0.1,0.4,0.3,0.8,0.4,1.2s0.3,0.8,0.5,1.2s0.2,0.5,0.4,0.8c0.2,0.4,0.4,0.8,0.6,1.2s0.4,0.7,0.6,1
				s0.5,0.8,0.7,1.2s0.7,1,1,1.4l0.7,0.9l0.2,0.2c0.3,0.3,0.5,0.6,0.8,1s0.6,0.6,0.9,1l0.1,0.1c0.3,0.3,0.6,0.6,0.9,0.9l0.1,0.1
				c0.3,0.3,0.6,0.5,0.9,0.8c0,0,0.1,0.1,0.1,0.1c0.3,0.3,0.7,0.6,1.1,0.8l0,0c0.4,0.3,0.8,0.5,1.1,0.8s0.8,0.5,1.2,0.7l0,0
				c0.8,0.4,1.6,0.8,2.4,1.2c0.5,0.2,0.9,0.4,1.4,0.6s0.8,0.3,1.3,0.4s0.8,0.2,1.2,0.4l0.4,0.1c0.3,0.1,0.6,0.1,0.8,0.2
				c0.2,0.1,0.4,0.1,0.6,0.1l-68.7-9v-0.1c-0.9-0.1-1.8-0.2-2.7-0.4c-0.3-0.1-0.6-0.1-0.9-0.2c-0.1,0-0.3-0.1-0.4-0.1l-0.8-0.2
				l-0.6-0.2c-0.3-0.1-0.6-0.2-0.9-0.3l-0.2-0.1c-0.2-0.1-0.5-0.2-0.7-0.3s-0.6-0.2-0.9-0.4s-0.8-0.3-1.1-0.5s-0.6-0.3-0.9-0.5
				c-0.3-0.1-0.5-0.3-0.8-0.5c-0.3-0.2-0.7-0.4-1-0.6s-0.5-0.4-0.8-0.5l-0.3-0.2c-0.3-0.2-0.5-0.4-0.8-0.6c-0.1-0.1-0.2-0.2-0.3-0.2
				c-0.2-0.1-0.4-0.3-0.5-0.5s-0.4-0.4-0.6-0.5c-0.6-0.6-1.2-1.2-1.8-1.8c-0.3-0.4-0.6-0.7-0.9-1.1s-0.8-1-1.1-1.5l-0.5-0.8
				c-0.3-0.4-0.5-0.8-0.8-1.2s-0.4-0.8-0.6-1.1s-0.3-0.5-0.4-0.7s-0.2-0.3-0.2-0.5s-0.3-0.5-0.4-0.8s-0.3-0.7-0.5-1.1
				s-0.3-0.8-0.5-1.2s-0.3-0.9-0.5-1.4c0-0.1-0.1-0.2-0.1-0.2c-0.1-0.4-0.2-0.7-0.3-1s-0.1-0.5-0.2-0.7s-0.1-0.4-0.1-0.6
				s-0.1-0.6-0.2-0.9s-0.1-0.7-0.2-1c0-0.1,0-0.2-0.1-0.4c-0.1-0.5-0.1-0.9-0.2-1.4c0-0.1,0-0.2,0-0.3c-0.1-0.5-0.1-1-0.1-1.5
				c0,0,0-0.1,0-0.1c0-0.3,0-0.6-0.1-1s0-0.6,0-0.9c0-0.6,0-1.1,0-1.7v-17.4c0-22.7,16.6-45.6,37.1-51.3l56.5-15.5
				c0.8-0.2,1.5-0.4,2.3-0.5s1.5-0.3,2.3-0.4c1.5-0.2,2.9-0.3,4.4-0.3c0.5,0,1,0,1.5,0s0.8,0,1.2,0.1l0.6,0.1l0.4,0
				c0.3,0,0.6,0.1,0.9,0.1h0.1l35.2,4.7L199.2,329.5z"/>
		</defs>
		<clipPath id="SVGID_2_">
			<use xlink:href="#SVGID_1_"  style="overflow:visible;"/>
		</clipPath>
		<g class="st13">
			<path class="st5" d="M27.6,413.1c2.1,0.9,4.2,1.8,6.3,2.7s4.2,1.9,6.2,2.9s4.1,1.9,6.2,2.9s4.1,2,6.2,3l-0.5-0.1
				c6.3-0.8,12.6-1.5,18.9-2.1c3.2-0.3,6.3-0.6,9.5-0.8s6.3-0.5,9.5-0.6c-3.1,0.6-6.2,1.1-9.4,1.6s-6.3,1-9.4,1.4
				c-6.3,0.9-12.6,1.6-18.9,2.3h-0.3l-0.2-0.1c-2-1-4-2.1-6.1-3.2s-4-2.2-6-3.2s-4-2.2-6-3.3S29.6,414.3,27.6,413.1z"/>
			<path class="st5" d="M27.6,389.8c2,0.9,4,2,6.1,3s4,2,6,3s4,2.1,6,3.1s4,2.1,5.9,3.2l-0.5-0.1c6.4-0.3,12.9-0.5,19.4-0.7
				c3.2-0.1,6.5-0.1,9.7-0.1s6.5,0,9.7,0.1c-3.2,0.4-6.4,0.6-9.7,0.9s-6.4,0.5-9.7,0.7c-6.4,0.4-12.9,0.7-19.3,0.9h-0.3l-0.2-0.1
				c-2-1.1-3.9-2.2-5.8-3.4s-3.9-2.3-5.8-3.4s-3.8-2.3-5.7-3.5S29.5,391.1,27.6,389.8z"/>
			<path class="st5" d="M31.7,368.7c2,0.9,3.9,2,5.8,3s3.8,2,5.8,3.1c3.8,2.1,7.6,4.2,11.4,6.4l-0.5-0.1c5.9-0.1,11.8-0.1,17.8-0.1
				c3,0,5.9,0.1,8.9,0.2s5.9,0.2,8.9,0.4c-3,0.3-5.9,0.4-8.9,0.6s-5.9,0.3-8.9,0.4c-5.9,0.2-11.8,0.3-17.8,0.3H54l-0.2-0.1
				c-3.7-2.2-7.4-4.5-11.1-6.8c-1.8-1.2-3.7-2.3-5.5-3.5S33.5,370,31.7,368.7z"/>
			<path class="st5" d="M41.5,348.9c2,1,3.9,2,5.8,3s3.9,2,5.8,3.1c3.8,2.1,7.6,4.2,11.4,6.4l-0.5-0.1c6-0.2,11.8-0.2,17.8-0.1
				c3,0,5.9,0.1,8.9,0.2s5.9,0.2,8.9,0.4c-3,0.3-5.9,0.4-8.9,0.6s-5.9,0.3-8.9,0.4c-5.9,0.2-11.8,0.3-17.8,0.3h-0.3l-0.2-0.1
				c-3.7-2.2-7.5-4.5-11.1-6.8c-1.8-1.2-3.7-2.3-5.5-3.5S43.3,350.1,41.5,348.9z"/>
			<path class="st5" d="M63.3,333c1.7,0.8,3.3,1.6,4.9,2.4s3.3,1.7,4.9,2.5c3.2,1.7,6.4,3.5,9.6,5.3l-0.5-0.1
				c5.9-0.1,11.8-0.1,17.8-0.1c3,0,5.9,0.1,8.9,0.2s5.9,0.2,8.9,0.4c-3,0.3-5.9,0.4-8.9,0.6s-5.9,0.3-8.9,0.4
				c-5.9,0.2-11.8,0.3-17.8,0.3h-0.3l-0.2-0.1c-3.2-1.9-6.3-3.8-9.4-5.8c-1.5-1-3.1-2-4.6-3S64.8,334.1,63.3,333z"/>
			<path class="st5" d="M92.3,324.1c1.3,0.6,2.6,1.3,3.8,2s2.5,1.4,3.8,2.1s2.5,1.4,3.8,2.1l3.8,2.1l-0.2-0.1c3,0,5.9-0.1,8.9-0.1
				l8.9,0c5.9,0,11.8,0,17.8,0.2c-5.9,0.3-11.8,0.5-17.8,0.6l-8.9,0.2c-3,0.1-5.9,0.1-8.9,0.1h-0.1l-0.1-0.1l-3.7-2.2
				c-1.2-0.7-2.4-1.5-3.7-2.3s-2.5-1.5-3.7-2.3S93.5,324.9,92.3,324.1z"/>
		</g>
	</g>
</g>
<g id="head">
	<path class="st1" d="M94.7,27.6c-5.7-5.5-9.2-12.8-9.9-20.7c-0.1-1-0.3-2.3-1.3-2.4c-0.6,0-1.2,0.3-1.5,0.8
		c-5.2,5.3-10,11-14.2,17.1c1.7,1,3.7-0.2,5.3-1.4s3.5-2.5,5.3-1.7c1,0.6,1.8,1.6,2.3,2.7l6.7,12.5L94.7,27.6z"/>
	<path class="st1" d="M195.6,35.9c7.2-4.6,12.5-11.7,14.9-20c0.3-1,0.8-2.3,1.9-2.3c0.6,0,1.1,0.6,1.5,1.1
		c4.9,6.4,9.1,13.3,12.7,20.4c-2.1,0.7-4.2-0.9-5.7-2.4s-3.5-3.3-5.6-2.7c-1.2,0.5-2.3,1.3-3.1,2.5l-9.9,11.9L195.6,35.9z"/>
	<path class="st0" d="M265.8,79.8c-6-8.9-18-10.3-27.4-14.9c-29.2-14.3-35.9-56.5-69.8-62.3l-1.7-0.2l-17.2-0.5L121.9,0
		c-0.5,0-1.1,0-1.7,0c-32.5,1.2-36,40.4-63.5,49c-8.5,2.7-18.6,2-24.8,9c-9,10.1-2.3,28,8.2,36s14.7,10.4,25.1,19.3
		c9.3,7.9,15.3,19.8,23.3,29.5c3,3.8,6.2,7.4,9.6,10.8c4.3,4.2,10,6.8,16,7.3l27.4,1.9c0.9,0,1.7,0,2.6,0h0.1
		c2.7,0.2,12.6-0.1,15.2-0.9c5.5-1.7,10.7-5.5,15.5-9.1c10.3-7.7,18.9-18.3,30.5-24c13.3-6.6,29.2-6.2,43.1-12.1
		C262.7,110.7,274.6,92.8,265.8,79.8z"/>
	<path class="st14" d="M168.3,74.1c-2.3,25.6-23.7,44-47.5,41.3c-23.2-2.7-40-24.9-37.8-49.5c0.2-2.3,0.6-4.5,1.1-6.7
		c4.9-21.2,23.6-36.3,44.8-34.7c21.5,1.7,38.2,20.1,39.4,42.6C168.6,69.4,168.5,71.7,168.3,74.1z"/>
	<path class="st1" d="M145.3,128.7c-3.5,3.3-7.8,5.7-12.5,7.1c-4.7,1.4-9.7,1.7-14.5,1c-4.9-0.5-9.6-2-13.8-4.5
		c-4.2-2.4-7.8-5.7-10.5-9.8c3.6,3,7.5,5.5,11.7,7.4c4.1,1.9,8.5,3,13,3.5c4.5,0.7,9,0.6,13.5-0.2
		C136.8,132.3,141.2,130.8,145.3,128.7z"/>
	<path class="st15" d="M166.3,72.1c-2.2,25.1-23.3,43.3-46.6,40.6C96.8,110,80.4,88.3,82.5,64c0.2-2.2,0.6-4.4,1.1-6.6
		c4.8-20.8,23.2-35.7,44-34.1c21.2,1.6,37.6,19.7,38.8,41.8C166.6,67.4,166.5,69.8,166.3,72.1z"/>
	<path class="st16" d="M99.2,65.6c1.3-14.4,13.2-25.2,26.8-24.1c13.8,1.2,24,14.1,22.7,28.8s-13.6,25.5-27.4,24
		C107.7,93,97.9,80.1,99.2,65.6z"/>
	<path class="st17" d="M107.2,66.4c0.9-9.7,8.9-16.9,18.1-16.1s16,9.5,15.2,19.3s-9.1,17.1-18.3,16.1S106.3,76.1,107.2,66.4z"/>
	<path class="st1" d="M81.6,56.4c13-50.6,82.8-45.7,87.1,8.1c0.1,1-0.6,1.9-1.6,2c-0.3,0-0.7,0-1-0.2c-26.2-13.3-55.6-15.9-82.4-7.7
		c-0.9,0.2-1.9-0.3-2.1-1.3C81.5,57,81.5,56.7,81.6,56.4z"/>
</g>
<g id="r-arm">
	<path class="st0" d="M171.9,216.8c0.3-1.7,1.3-3.2,2.7-4.2c1.6-1.1,3.4-1.5,5.3-1.3c1.9,0.2,3.6,1.1,4.8,2.6
		c1.2,1.5,1.7,3.4,1.4,5.3L171.9,216.8z"/>
	<path class="st0" d="M182.9,233.3l-13.8-4.1c1.2-4.1,2.1-8.2,2.8-12.4l14.2,2.3C185.3,223.9,184.3,228.6,182.9,233.3z"/>
	<path class="st1" d="M170.9,222.3c1.1,0.6,2.2,1.1,3.3,1.6c1.1,0.4,2.2,0.8,3.4,1c1.2,0.2,2.4,0.4,3.6,0.4c1.2,0.1,2.4,0,3.8,0
		c-1.1,0.7-2.4,1.2-3.7,1.4c-1.3,0.2-2.7,0.2-4-0.1c-1.3-0.3-2.6-0.8-3.7-1.6c-0.6-0.4-1.1-0.8-1.6-1.2
		C171.6,223.3,171.2,222.8,170.9,222.3z"/>
	<path class="st0" d="M177.5,247.1l-12.8-6.5c1.8-3.7,3.3-7.5,4.4-11.4l13.8,4.1C181.5,238,179.7,242.7,177.5,247.1z"/>
	<path class="st1" d="M167.4,234.3c1,0.8,2,1.4,3.1,2.1c1,0.6,2.1,1.1,3.2,1.5c1.1,0.4,2.3,0.7,3.4,0.9c1.2,0.2,2.4,0.4,3.7,0.5
		c-1.2,0.6-2.5,0.8-3.8,0.8c-1.3,0-2.7-0.3-3.9-0.8c-1.2-0.5-2.4-1.2-3.4-2.1c-0.5-0.4-0.9-0.9-1.4-1.4
		C168,235.4,167.6,234.9,167.4,234.3z"/>
	<path class="st0" d="M168.7,259.9l-10.5-9.8c2.6-2.9,4.8-6.1,6.5-9.5l12.8,6.5C175.2,251.8,172.2,256.1,168.7,259.9z"/>
	<path class="st1" d="M162.1,245.1c0.8,0.9,1.7,1.8,2.6,2.6c0.9,0.8,1.8,1.5,2.8,2.2c1,0.7,2.1,1.2,3.2,1.7c1.1,0.5,2.3,0.9,3.6,1.3
		c-1.3,0.3-2.7,0.3-4,0c-1.3-0.3-2.5-0.9-3.6-1.6c-1.1-0.8-2.1-1.7-2.8-2.9c-0.4-0.5-0.7-1.1-1-1.7
		C162.4,246.2,162.3,245.7,162.1,245.1z"/>
	<path class="st0" d="M155.4,269.5l-5.7-13.2c3.2-1.5,6.1-3.6,8.5-6.2l10.5,9.8C165,264,160.5,267.3,155.4,269.5z"/>
	<path class="st1" d="M154.7,253.3c0.5,1.2,1,2.3,1.6,3.3c0.6,1,1.2,2,1.9,3c0.7,1,1.5,1.8,2.4,2.6c0.9,0.8,1.9,1.6,2.9,2.4
		c-1.4-0.1-2.7-0.5-3.8-1.2c-1.1-0.7-2.1-1.7-2.9-2.8c-0.7-1.1-1.3-2.3-1.6-3.6c-0.2-0.6-0.3-1.3-0.4-1.9
		C154.7,254.5,154.7,253.9,154.7,253.3z"/>
	<path class="st0" d="M138.9,272.5l0.8-14.4c3.4,0.2,6.8-0.4,10-1.7l5.7,13.2C150.2,271.8,144.6,272.8,138.9,272.5z"/>
	<path class="st1" d="M145.5,257.7c-0.1,1.3-0.1,2.5,0,3.7c0,1.2,0.1,2.4,0.4,3.5c0.2,1.2,0.6,2.3,1,3.4c0.5,1.2,1,2.3,1.6,3.5
		c-1.2-0.7-2.2-1.6-2.9-2.8c-0.7-1.2-1.1-2.5-1.3-3.8c-0.2-1.3-0.1-2.7,0.1-4c0.1-0.6,0.3-1.3,0.5-1.9
		C145,258.7,145.2,258.2,145.5,257.7z"/>
	<path class="st0" d="M123.3,268.5l5.9-13.1c3.3,1.5,6.9,2.4,10.5,2.7l-0.8,14.4C133.5,272.1,128.2,270.8,123.3,268.5z"/>
	<path class="st1" d="M135.1,257.4c-0.6,1.1-1.1,2.2-1.6,3.3c-0.5,1.1-0.8,2.2-1.1,3.4c-0.3,1.2-0.5,2.3-0.5,3.5
		c-0.1,1.2,0,2.5,0,3.8c-0.8-1.1-1.3-2.4-1.4-3.8c-0.1-1.3,0-2.7,0.4-4c0.4-1.3,1-2.5,1.8-3.6c0.4-0.5,0.8-1,1.2-1.5
		C134.1,258.1,134.6,257.7,135.1,257.4z"/>
	<path class="st0" d="M110.2,260.4l9-11.2c3,2.5,6.4,4.6,9.9,6.2l-5.9,13.1C118.6,266.4,114.2,263.7,110.2,260.4z"/>
	<path class="st1" d="M124.7,253c-0.9,0.8-1.8,1.7-2.6,2.7c-0.8,0.9-1.5,1.9-2.1,2.9c-0.6,1-1.1,2.1-1.6,3.2
		c-0.4,1.1-0.8,2.3-1.2,3.6c-0.4-1.3-0.4-2.7-0.1-4c0.3-1.3,0.8-2.6,1.5-3.7c0.7-1.1,1.7-2.1,2.7-2.9c0.5-0.4,1.1-0.7,1.6-1
		C123.5,253.4,124.1,253.2,124.7,253z"/>
	<path class="st0" d="M110.2,260.4c-2.9-2.3-3.4-6.6-1.1-9.5c0.2-0.2,0.4-0.4,0.6-0.6c1.3-1.3,3.1-2.2,4.9-2.4
		c1.7-0.2,3.3,0.2,4.7,1.3L110.2,260.4z"/>
</g>
<path id="r-hand" class="st0" d="M115.2,232.4c-0.7-1.4-1.8-3-3.4-3.2c-2.6-0.4-4.3,2.9-4,5.5s1.8,4.9,2,7.6
	c0.1,1.3-0.3,2.8-1.4,3.4s-2.5,0-3.6-0.6l-10-5.1c-1.2-0.7-2.6-1.2-4-1.3c-1.5-0.1-2.8,0.9-3.1,2.3c-0.2,1.6,1.3,2.9,2.7,3.8
	l9.8,6.6c1,0.5,1.7,1.3,2,2.3c0.3,2.1-2.5,3.2-4.6,2.8s-4.3-1.3-6.1-0.1c-1.8,1.1-1.9,4.1-0.5,5.8s3.7,2.4,5.9,2.6
	c8.3,0.8,15.4-4.3,19.5-11.2C120.3,247.1,118.6,238.9,115.2,232.4z"/>
</svg>
