<?xml version="1.0" encoding="utf-8"?>
<!-- Generator: Adobe Illustrator 26.0.0, SVG Export Plug-In . SVG Version: 6.00 Build 0)  -->
<svg version="1.1" id="Layer_1" xmlns="http://www.w3.org/2000/svg" xmlns:xlink="http://www.w3.org/1999/xlink" x="0px" y="0px"
	 viewBox="0 0 700 700" style="enable-background:new 0 0 700 700;" xml:space="preserve">
<style type="text/css">
	.st0{fill:#00D0D0;}
	.st1{fill:#00A0A0;}
	.st2{fill:#B2B2B2;}
	.st3{fill:#4D4D4D;}
	.st4{fill:#025F7D;}
	.st5{fill:#C0272D;}
	.st6{fill:none;stroke:#CBCBCB;stroke-width:1.9898;stroke-linecap:round;stroke-miterlimit:10;}
	.st7{fill:#9D2025;}
	.st8{fill:#CBCBCB;}
	.st9{fill:#808080;}
	.st10{fill:#02799E;}
	.st11{fill:#02526B;}
	.st12{fill:#008181;}
	.st13{fill:#FFFFFF;}
	.st14{fill:#D43D40;}
	.st15{fill:#782224;}
</style>
<g>
	<g transform="translate(-20 -268)">
		<g>
			<g>
				<g>
					<g>
						<g>
							<g>
								<path class="st0" d="M514,893.1c-8.8-5.8-11.7-17.2-6.4-26.4c5.3-9,17.6-11.6,27.8-5.3L514,893.1z"/>
								<path class="st0" d="M569,886.5l-24.6,29.1c-2.4-2.1-4.8-4-7.5-5.8l-7.5-5.8c-5.1-3.7-10.4-7.1-15.5-10.8l21.1-31.7
									c5.9,4,11.7,7.9,17.4,12.2l8.3,6.3C563.7,882,566.3,884.1,569,886.5z"/>
								<path class="st1" d="M527.6,902.3c2.7-1.8,5.3-4,7.7-6.1c4.5-4.2,8.3-9.5,10.9-15.3c1.3-2.9,2.7-6.1,4-9.2
									c0.8,3.4,0.5,7.1-0.3,10.8c-0.8,3.4-2.4,6.9-4.5,9.5c-2.1,2.9-4.8,5.3-8,7.1c-1.6,0.8-3.2,1.6-4.8,2.1
									C531.1,902.1,529.2,902.3,527.6,902.3z"/>
								<path class="st0" d="M600,915.5l-28.3,25.6c-8.5-9.2-17.6-17.7-27.2-25.9l24.6-29.1C579.9,895.5,590.4,905.2,600,915.5z"/>
								<path class="st1" d="M556.7,926.4c2.9-1.6,5.9-3.2,8.3-5.3c2.7-1.8,4.8-4,6.9-6.3c2.1-2.4,4-4.8,5.9-7.7
									c1.6-2.6,3.2-5.5,5.1-8.7c0.3,3.7-0.3,7.1-1.6,10.6c-1.3,3.4-3.2,6.3-5.6,9c-2.4,2.6-5.3,4.8-8.8,6.1
									c-1.6,0.8-3.2,1.3-5.1,1.6C560.2,926.4,558.6,926.4,556.7,926.4z"/>
								<path class="st0" d="M626.7,948.8l-31.5,21.7l-5.3-7.7c-1.9-2.6-4-4.8-5.9-7.4l-5.9-7.4l-6.4-6.9l28.3-25.6l7.2,7.9l6.7,8.2
									c2.1,2.9,4.5,5.5,6.7,8.5L626.7,948.8z"/>
								<path class="st1" d="M582.3,953.6c3.2-1.1,6.1-2.4,9.1-4c5.6-2.9,10.4-7.1,14.7-11.9c2.1-2.4,4-5.3,6.1-7.9
									c-0.3,3.7-1.1,7.1-2.9,10.3c-1.6,3.2-4,5.8-6.7,8.2c-2.9,2.1-6.1,4-9.6,5c-1.9,0.5-3.5,0.8-5.3,1.1
									C585.8,954.1,584.2,953.8,582.3,953.6z"/>
								<path class="st0" d="M648.5,985.5l-34.4,16.6c-1.3-2.6-2.9-5.5-4.3-8.2c-1.3-2.6-2.9-5.5-4.5-8.2l-5.1-7.9l-2.4-4l-2.7-3.7
									l31.5-21.4l3.2,4.2l2.9,4.5l5.6,9c1.9,2.9,3.5,6.3,5.1,9.2C645.1,978.7,646.9,982.1,648.5,985.5z"/>
								<path class="st1" d="M604,983.7c3.2-0.8,6.4-1.6,9.6-2.6c2.9-1.1,5.9-2.4,8.5-4c2.7-1.6,5.3-3.4,7.7-5.5
									c2.4-2.1,4.8-4.5,7.2-7.1c-0.5,3.4-2.1,6.9-4.3,9.8c-2.1,2.9-4.8,5.3-8,7.1c-3.2,1.8-6.4,2.9-10.1,3.4
									c-1.9,0.3-3.5,0.3-5.3,0.3C607.4,984.7,605.6,984.5,604,983.7z"/>
								<path class="st0" d="M664.3,1025.1l-36.8,11.1c-3.7-11.9-8.3-23.2-13.6-34.3l34.4-16.6C654.9,998.2,660,1011.4,664.3,1025.1
									z"/>
								<path class="st1" d="M620.8,1016.7c3.2-0.3,6.7-0.5,9.9-1.3c3.2-0.5,6.1-1.6,9.1-2.6c2.9-1.3,5.9-2.6,8.5-4.5
									c2.7-1.8,5.3-3.7,8.3-5.8c-1.3,3.4-3.2,6.6-5.9,9c-2.7,2.6-5.6,4.5-9.1,5.8c-3.5,1.3-6.9,1.8-10.7,1.8
									c-1.9,0-3.5-0.3-5.3-0.5C623.7,1018.3,622.1,1017.5,620.8,1016.7z"/>
								<path class="st0" d="M673.9,1066.9l-37.9,5.3c-1.1-6.1-1.9-12.2-3.5-18.2l-2.1-9c-0.8-2.9-1.9-5.8-2.7-8.7l36.8-11.1
									c1.1,3.4,2.1,6.9,2.9,10.3l2.4,10.3C671.8,1052.9,672.6,1059.7,673.9,1066.9z"/>
								<path class="st1" d="M631.7,1051.8c3.2,0.3,6.7,0.5,9.9,0.3c3.2-0.3,6.4-0.5,9.3-1.3c3.2-0.8,6.1-1.8,9.1-3.2
									c2.9-1.3,5.9-2.9,9.1-4.5c-1.9,3.2-4.3,5.8-7.2,7.9c-2.9,2.1-6.1,3.4-9.6,4.2c-3.5,0.8-7.2,0.8-10.7,0.3
									c-1.9-0.3-3.5-0.8-5.1-1.3S633.3,1052.9,631.7,1051.8z"/>
								<path class="st0" d="M673.9,1066.9c0.5,2.9,0.3,5.8-0.5,8.5c-0.8,2.6-1.9,5-3.5,7.1c-2.9,4.2-7.7,6.6-13.1,6.9
									c-5.1,0.3-10.1-1.3-14.1-4.8c-1.9-1.6-3.5-3.4-4.8-5.5c-1.1-2.1-1.9-4.5-2.4-6.9L673.9,1066.9z"/>
								<path class="st0" d="M706.2,1106.2c2.4,3.7,4.8,7.9,3.2,11.9c-2.4,6.6-12.3,6.3-17.9,2.1c-5.6-4.2-9.3-10.6-15.2-14.3
									c-2.9-1.8-6.9-2.9-9.6-1.1c-2.7,1.8-3.2,5.8-3.2,9.2l-0.8,29.6c0.3,3.7-0.5,7.4-2.1,10.8c-1.6,3.4-5.6,5.3-9.3,4.2
									c-4-1.6-5.1-6.6-5.6-11.1l-2.9-31.2c0-2.9-1.1-5.5-2.9-7.7c-4.3-3.4-10.7,1.8-12.5,6.9c-1.9,5-2.7,11.6-7.5,14.3
									c-4.8,2.6-12-0.8-14.4-6.3c-2.4-5.5-0.8-11.6,1.6-16.9c8.8-20.3,29.9-30.4,51.3-31.2
									C678.2,1075.9,695.3,1090.1,706.2,1106.2z"/>
								<path class="st0" d="M204.9,861.4c9.9-6.3,22.4-3.7,27.5,5.3c5.3,9.2,2.4,20.9-6.4,26.4L204.9,861.4z"/>
								<path class="st0" d="M195.6,915.5L171,886.5c2.7-2.4,5.3-4.5,8.3-6.6l8.5-6.3c5.6-4.2,11.5-8.2,17.4-12.2l21.1,31.7
									c-5.1,3.7-10.4,7.1-15.5,10.8l-7.5,5.8C200.4,911.6,198,913.4,195.6,915.5z"/>
								<path class="st1" d="M189.7,871.7c0.8,3.2,2.1,6.3,3.5,9.2c1.3,2.9,3.2,5.5,5.1,7.9c1.9,2.6,4.3,4.8,6.4,7.1
									c2.4,2.1,4.8,4.2,7.5,6.6c-3.5-0.5-6.7-1.8-9.9-3.4c-2.9-1.8-5.9-4.2-8-6.9c-2.4-2.9-4-6.1-4.8-9.5
									c-0.5-1.8-0.8-3.4-0.8-5.3C188.9,875.4,189.2,873.5,189.7,871.7z"/>
								<path class="st0" d="M168.3,941.4L140,915.8c9.6-10.3,20-20.1,31-29.1l24.8,29.1C186,923.5,176.6,932.2,168.3,941.4z"/>
								<path class="st1" d="M156.9,898.6c1.3,3.2,2.9,6.1,4.8,8.7c1.6,2.6,3.7,5,5.9,7.4c2.1,2.1,4.8,4.2,7.2,6.1
									c2.7,1.8,5.3,3.7,8.3,5.5c-3.5-0.3-6.9-1.1-10.1-2.4c-3.2-1.3-6.4-3.4-8.8-5.8c-2.7-2.4-4.5-5.5-5.9-9
									c-0.5-1.6-1.1-3.4-1.3-5.3C156.6,902.3,156.6,900.5,156.9,898.6z"/>
								<path class="st0" d="M144.9,970.2l-31.8-21.4l6.1-8.7c2.1-2.9,4.5-5.5,6.7-8.5l6.7-8.2l7.2-7.9l28.3,25.6l-6.4,6.9l-5.9,7.1
									c-1.9,2.4-4,4.8-5.9,7.4L144.9,970.2z"/>
								<path class="st1" d="M127.8,929.5c1.6,2.9,3.5,5.5,5.9,8.2c2.1,2.4,4.3,4.5,6.9,6.3c2.4,1.8,5.3,3.7,8,5
									c2.9,1.6,5.9,2.9,9.1,4.5c-3.5,0.3-6.9,0-10.4-1.1c-3.5-1.1-6.7-2.6-9.6-4.8c-2.9-2.1-5.3-4.8-7.2-7.9
									c-0.8-1.6-1.6-3.2-2.1-5C127.8,933.2,127.5,931.4,127.8,929.5z"/>
								<path class="st0" d="M125.9,1002.2l-34.4-16.6c1.6-3.2,3.2-6.3,5.1-9.5c1.9-3.2,3.2-6.3,5.3-9.2l5.6-9l2.9-4.5l3.2-4.2
									l31.5,21.7l-2.7,3.7l-2.4,3.7l-4.8,7.9c-1.6,2.6-2.9,5.3-4.5,8.2C129.1,997.1,127.2,999.3,125.9,1002.2z"/>
								<path class="st1" d="M102.9,964.4c2.1,2.6,4.3,5,6.7,7.1c2.4,2.1,5.1,3.7,7.7,5.3c2.9,1.6,5.6,2.9,8.8,4
									c3.2,1.1,6.1,2.1,9.6,3.2c-3.5,0.8-6.9,0.8-10.4,0.5c-3.5-0.5-6.9-1.6-10.1-3.2c-3.2-1.6-6.1-4-8.3-6.9
									c-1.1-1.3-1.9-2.9-2.7-4.8C103.5,967.8,103.2,966,102.9,964.4z"/>
								<path class="st0" d="M112.3,1036.2l-36.8-11.1c4.3-13.7,9.6-26.9,15.7-39.9l34.4,16.6
									C120.3,1013.3,115.8,1024.6,112.3,1036.2z"/>
								<path class="st1" d="M83.7,1002.4c2.4,2.4,5.1,4.5,8,6.1c2.7,1.6,5.6,3.2,8.5,4.2c2.9,1.1,6.1,1.8,9.1,2.4
									c3.2,0.5,6.4,1.1,9.9,1.6c-3.2,1.3-6.7,2.1-10.1,2.1c-3.7,0-7.2-0.5-10.7-1.6c-3.5-1.1-6.7-2.9-9.1-5.5
									c-1.3-1.3-2.4-2.6-3.5-4.2C84.8,1005.9,84,1004.3,83.7,1002.4z"/>
								<path class="st0" d="M104,1072.2l-37.9-5.3c1.3-7.1,2.1-14,4-21.1l2.4-10.3c1.1-3.4,2.1-6.9,2.9-10.3l36.8,11.1
									c-0.8,2.9-1.9,5.8-2.7,8.7l-2.1,9C105.9,1060,105.1,1066.3,104,1072.2z"/>
								<path class="st1" d="M70.6,1043.1c2.7,1.8,5.6,3.4,8.8,4.8c2.9,1.1,5.9,2.1,9.1,2.6c3.2,0.5,6.4,1.1,9.6,1.1
									c3.2,0,6.7,0,10.1,0c-2.9,1.8-6.4,2.9-9.9,3.7c-3.5,0.5-7.2,0.5-10.7,0c-3.5-0.5-6.9-2.1-9.9-4c-1.6-1.1-2.9-2.1-4-3.7
									C72.2,1046.3,71.4,1044.7,70.6,1043.1z"/>
								<path class="st0" d="M104,1072.2c-0.5,2.4-1.3,4.8-2.4,6.9c-1.1,2.1-2.7,4-4.8,5.5c-4,3.2-9.1,5-14.1,4.8
									c-5.1-0.3-9.9-2.9-13.1-6.9c-1.6-2.1-2.7-4.5-3.5-7.1c-0.8-2.6-1.1-5.5-0.5-8.5L104,1072.2z"/>
								<path class="st2" d="M597.6,1144.3v119.9L464.4,1349H275.6l-133.2-84.8v-119.9l25.4-16.4l79-50.2l28.8-18.5h188.7l28.8,18.5
									l79,50.2L597.6,1144.3z"/>
								<path class="st3" d="M444.1,1090.1H295.7l-104.9,66.8v94.6l104.9,66.8h148.4l104.9-66.8v-94.6L444.1,1090.1z"/>
								<path class="st4" d="M474.2,1174.6H265.5c10.9-14.8,10.9-35.1,0-49.9h208.7C463.3,1139.8,463.3,1159.9,474.2,1174.6z"/>
								<path class="st2" d="M526,1117.6v1.3c-100.1,40.1-211.9,40.1-312,0v-1.3l60.9-50.2l22.4-18.5h145.5l22.4,18.5L526,1117.6z"
									/>
								<path class="st5" d="M493.2,1077.2c-77.4,38.8-169,38.8-246.4,0V836c0-11.9,9.9-21.7,21.9-21.7l0,0h202.6
									c12,0,21.9,9.8,21.9,21.7l0,0V1077.2z"/>
								<path class="st6" d="M493.2,1077.2c-77.4,38.8-169,38.8-246.4,0"/>
								<path class="st7" d="M448.9,1061.6c-50.7,19.8-107.3,19.8-158,0V938.2c0-6.1,6.4-11.1,14.1-11.1h130c7.7,0,14.1,5,14.1,11.1
									L448.9,1061.6z"/>
								<path class="st1" d="M344,667H396v113.3H344V667z"/>
								<path class="st2" d="M474.2,814.4c0,8.5-46.7,15.3-104.4,15.3s-104.4-6.9-104.4-15.3c0-8.5,46.7-15.3,104.4-15.3
									S474.2,805.9,474.2,814.4z"/>
								<path class="st2" d="M265.5,760h208.7v54.4H265.5V760z"/>
								<path class="st8" d="M474.2,760c0,8.5-46.7,15.3-104.4,15.3s-104.4-6.9-104.4-15.3c0-8.5,46.7-15.3,104.4-15.3
									S474.2,751.5,474.2,760z"/>
								<path class="st9" d="M442.2,757.3c0,3.4-19.2,6.3-46.2,7.4c-8,0.3-16.8,0.5-26.2,0.5s-17.9-0.3-26.2-0.5
									c-27-1.1-46.2-4-46.2-7.4s19.2-6.3,46.2-7.4c8-0.3,16.8-0.5,26.2-0.5s17.9,0.3,26.2,0.5C423,751,442.2,753.9,442.2,757.3z"
									/>
								<path class="st1" d="M396,667v97.7c-8,0.3-16.8,0.5-26.2,0.5s-17.9-0.3-26.2-0.5V667H396z"/>
								<path class="st10" d="M511.9,1443h-284c-10.4,0-19.8-6.1-24-15.6c-35.2-79-35.2-168.8,0-247.8c4.3-9.5,13.6-15.6,24-15.6
									h284c10.4,0,19.8,6.1,24,15.6c35.2,79,35.2,168.8,0,247.8C531.6,1436.9,522.3,1443,511.9,1443z"/>
								<path class="st2" d="M246.6,833.9c-4-9.2-13.3-21.7-24.8-16.4c-6.7,3.4-7.7,11.9-7.7,19.3c-0.5,29.1,7.5,62.1,32.6,80.3
									V833.9z"/>
								<path class="st2" d="M493.2,833.9c4-9.2,13.3-21.7,24.8-16.4c6.7,3.4,7.7,11.9,7.7,19.3c0.5,29.1-7.5,62.1-32.6,80.3V833.9z
									"/>
								<path class="st11" d="M214,1168c13.1,3.2,26.2,6.3,39.2,9.5l39,10.3c26.2,6.9,52.1,14,78.2,21.1h-1.3
									c25.9-7.1,52.1-14.3,77.9-21.1l39.2-10c13.1-3.2,26.2-6.6,39.2-9.5c-12.8,4.2-25.6,7.9-38.7,11.9l-38.7,11.6
									c-25.9,7.7-51.8,14.8-77.7,22.2l-0.8,0.3l-0.8-0.3c-25.9-7.4-51.8-14.5-77.7-22.2l-38.7-11.6
									C239.9,1176.2,226.8,1172.3,214,1168z"/>
								<path class="st11" d="M214,1242c13.1,3.2,26.2,6.3,39.2,9.5l39,10c26.2,6.9,52.1,14,78.2,21.1h-1.3
									c25.9-7.1,52.1-14.3,77.9-21.1l39.2-10c13.1-3.2,26.2-6.6,39.2-9.5c-12.8,4.2-25.6,7.9-38.7,12.2l-38.7,11.6
									c-25.9,7.7-51.8,14.8-77.7,22.2l-0.8,0.3l-0.8-0.3c-25.9-7.4-51.8-14.5-77.7-22.2l-38.7-11.6
									C239.9,1249.9,226.8,1246.2,214,1242z"/>
								<path class="st11" d="M214,1315.7c13.1,3.2,26.2,6.3,39.2,9.5l39,10c26.2,6.9,52.1,14,78.2,21.1h-1.3
									c25.9-7.1,52.1-14.3,77.9-21.1l39.2-10c13.1-3.2,26.2-6.6,39.2-9.5c-12.8,4.2-25.6,7.9-38.7,12.1l-38.7,11.6
									c-25.9,7.7-51.8,14.8-77.7,22.2l-0.8,0.3l-0.8-0.3c-25.9-7.4-51.8-14.5-77.7-22.2l-38.7-11.6
									C239.9,1323.9,226.8,1319.9,214,1315.7z"/>
								<path class="st11" d="M214,1389.6c13.1,2.9,26.2,6.3,39.2,9.5l39,10c26.2,6.9,52.1,14,78.2,21.1h-1.3
									c25.9-7.1,52.1-14.3,77.9-21.1l39.2-10c13.1-3.2,26.2-6.6,39.2-9.5c-12.8,4.2-25.6,7.9-38.7,11.9l-38.7,11.6
									c-25.9,7.7-51.8,15.1-77.7,22.2l-0.8,0.3l-0.8-0.3c-25.9-7.4-51.8-14.5-77.7-22.2l-38.7-11.6
									C239.9,1397.6,226.8,1393.9,214,1389.6z"/>
								<path class="st0" d="M33.8,1106.2c-2.4,3.7-4.5,7.9-3.2,11.9c2.4,6.6,12.3,6.3,17.9,2.1c5.6-4.2,9.3-10.6,14.9-14.3
									c2.9-1.8,6.9-2.9,9.9-1.1c2.9,1.8,3.2,5.8,3.2,9.2l0.8,29.6c-0.3,3.7,0.5,7.4,2.1,10.8c1.6,3.4,5.6,5.3,9.3,4.2
									c4-1.6,5.1-6.6,5.6-11.1l2.9-31.2c0-2.9,1.1-5.5,2.9-7.7c4.3-3.4,10.7,1.8,12.5,6.9c1.9,5,2.7,11.6,7.5,14.3
									c4.8,2.6,12-0.8,14.1-6.3c2.1-5.5,0.8-11.6-1.3-16.9c-8.8-20.3-29.9-30.4-51.2-31.2C61.8,1075.9,44.8,1090.1,33.8,1106.2z"
									/>
								<path class="st1" d="M202.5,351.1c-18.4-13.2-31.2-33-35.8-55.2c-0.5-2.6-1.6-6.3-4.5-6.3c-1.9,0.3-3.5,1.1-4.5,2.6
									c-14.7,15.6-27.8,32.5-39.2,50.4c5.3,2.4,11.5-1.3,16-5.3c4.5-4,10.1-7.7,15.7-5.8c3.2,1.6,5.9,4,7.7,6.9l24,33L202.5,351.1
									z"/>
								<path class="st1" d="M537.5,351.1c18.4-13.2,31.2-33,35.8-55.2c0.5-2.6,1.6-6.3,4.5-6.3c1.9,0.3,3.5,1.1,4.3,2.6
									c14.7,15.6,27.8,32.5,39.2,50.4c-5.3,2.4-11.5-1.3-16-5.3c-4.5-4-10.4-7.7-15.7-5.8c-3.2,1.3-5.9,4-7.7,6.9l-24,33
									L537.5,351.1z"/>
								<path class="st0" d="M709.4,450.9c-17.6-21.1-49.6-21.9-75.8-31.7c-82.2-30.6-111.3-139.5-207.7-149
									c-1.6-0.3-3.2-0.3-4.8-0.3H318.9c-1.6,0-3.2,0.3-4.8,0.3c-96.6,9.2-125.5,118.3-207.9,148.7c-26.2,9.8-57.9,10.6-75.8,31.7
									c-25.9,30.9,0.8,79.5,36.3,98.8c35.5,19.3,78.2,23,112.9,44.1c30.7,18.8,51.8,49.1,78.5,72.9c17.1,15.1,38.7,27.7,60.9,31.2
									h102c22.2-3.4,43.8-15.8,60.9-31.2c26.7-23.8,47.8-54.1,78.5-72.9c34.4-21.1,77.1-24.8,112.9-44.1
									C708.9,530.2,735.3,481.8,709.4,450.9z"/>
								<path class="st12" d="M494.3,456.5c0,67.9-55.8,122.8-124.4,122.8s-124.1-55.2-124.1-123.1s55.8-122.8,124.4-122.8
									c61.4,0,113.4,44.4,122.5,104.3C493.7,444.1,494.3,450.4,494.3,456.5z"/>
								<path class="st1" d="M447.5,607.3c-9.6,10-21.1,17.7-34.2,22.7c-13.1,5-27,7.7-40.8,7.4c-14.1,0.3-28-2.1-41.1-7.4
									c-12.8-5-24.6-12.7-34.2-22.7c11.2,7.1,23.5,12.4,36.3,16.1c12.5,3.7,25.6,5.3,38.7,5c13.1,0.3,26.2-1.3,38.7-5
									C424.1,619.7,436.1,614.2,447.5,607.3z"/>
								<path class="st13" d="M492.1,451.5c0,66.8-54.7,121-122.3,121s-122.3-53.9-122.3-120.7s54.7-121,122.3-121
									c60.3,0,111.6,43.6,120.9,102.5C491.6,439.3,492.1,445.4,492.1,451.5z"/>
								<path class="st14" d="M442.2,451.5c0,39.5-32.4,71.6-72.3,71.6s-72.3-32-72.3-71.6s32.4-71.6,72.3-71.6
									S442.2,411.9,442.2,451.5z"/>
								<path class="st15" d="M418.2,451.5c0,26.4-21.6,47.8-48.3,47.8s-48.3-21.4-48.3-47.8c0-26.4,21.6-47.8,48.3-47.8
									S418.2,425.1,418.2,451.5z"/>
								<path class="st1" d="M243.1,430.9c25.1-141,228.8-141,253.8,0c0.5,2.6-1.3,5.3-4.3,5.8c-0.8,0-1.6,0-2.7-0.3
									c-77.4-28.8-162.8-28.8-240.5,0c-2.7,1.1-5.6-0.3-6.4-2.9C243.1,432.7,242.8,431.9,243.1,430.9z"/>
							</g>
						</g>
					</g>
				</g>
			</g>
		</g>
	</g>
</g>
</svg>
