<?xml version="1.0" encoding="utf-8"?>
<!-- Generator: Adobe Illustrator 25.2.0, SVG Export Plug-In . SVG Version: 6.00 Build 0)  -->
<svg version="1.1" id="Layer_1" xmlns="http://www.w3.org/2000/svg" xmlns:xlink="http://www.w3.org/1999/xlink" x="0px" y="0px"
	 viewBox="0 0 335.9 444.1" style="enable-background:new 0 0 335.9 444.1;" xml:space="preserve">
<style type="text/css">
	.st0{fill:#00D0D0;}
	.st1{fill:#00A0A0;}
	.st2{fill:#B2B2B2;}
	.st3{fill:#4D4D4D;}
	.st4{fill:#025F7D;}
	.st5{fill:#C0272D;}
	.st6{fill:none;stroke:#CBCBCB;stroke-width:7.22;stroke-linecap:round;stroke-miterlimit:10;}
	.st7{fill:#9D2025;}
	.st8{fill:#CBCBCB;}
	.st9{fill:#808080;}
	.st10{fill:#02799E;}
	.st11{fill:#02526B;}
	.st12{fill:#008181;}
	.st13{fill:#FFFFFF;}
	.st14{fill:#D43D40;}
	.st15{fill:#782224;}
</style>
<g id="r-arm">
	<path class="st0" d="M214.9,232.6c-3.3-2.9-3.8-7.6-1-10.5c2.7-2.9,7.2-3.1,10.3-0.5L214.9,232.6z"/>
	<path class="st0" d="M235.6,230.1l-7.9,12c-1.1-0.7-2.2-1.5-3.3-2.2l-3.2-2.3c-2.1-1.6-4.2-3.3-6.2-4.9l9.2-11
		c1.9,1.5,3.7,3,5.6,4.4l2.9,2.1C233.6,228.8,234.6,229.5,235.6,230.1z"/>
	<path class="st1" d="M220.3,236.9c1.1-0.7,2.1-1.4,3-2.3c0.9-0.8,1.7-1.7,2.3-2.7c0.7-1,1.3-2,1.8-3.1c0.5-1.1,1-2.2,1.5-3.4
		c0.2,1.3,0.1,2.6-0.2,3.9c-0.3,1.3-0.9,2.5-1.6,3.6c-0.8,1.1-1.8,2.1-2.9,2.8c-0.6,0.4-1.2,0.6-1.9,0.8
		C221.7,236.8,221,236.9,220.3,236.9z"/>
	<path class="st0" d="M247.9,237.1l-6.3,12.9c-4.8-2.3-9.4-5-13.9-7.9l7.9-12C239.5,232.7,243.6,235,247.9,237.1z"/>
	<path class="st1" d="M233.6,245.8c1-0.8,1.9-1.7,2.7-2.6c0.8-0.9,1.4-1.9,2-2.9c0.6-1.1,1-2.2,1.4-3.3c0.4-1.1,0.7-2.3,1.1-3.6
		c0.3,1.3,0.4,2.6,0.2,3.9c-0.2,1.3-0.5,2.6-1.2,3.8c-0.6,1.2-1.5,2.3-2.6,3.1c-0.5,0.4-1.1,0.8-1.8,1.1
		C235,245.5,234.3,245.7,233.6,245.8z"/>
	<path class="st0" d="M260.9,242.3l-4.4,13.7l-3.8-1.3c-1.3-0.4-2.5-1-3.7-1.5l-3.7-1.5l-3.6-1.7l6.3-12.9l3.2,1.5l3.3,1.3
		c1.1,0.4,2.2,0.9,3.3,1.3L260.9,242.3z"/>
	<path class="st1" d="M248,252.9c0.9-0.9,1.7-1.9,2.3-3c0.6-1,1.2-2.1,1.6-3.2c0.4-1.1,0.8-2.3,1-3.4c0.2-1.2,0.4-2.4,0.6-3.7
		c0.5,1.2,0.7,2.5,0.8,3.9c0,1.4-0.2,2.7-0.6,4c-0.5,1.3-1.2,2.4-2.1,3.4c-0.5,0.5-1,0.9-1.6,1.3C249.4,252.4,248.7,252.7,248,252.9
		z"/>
	<path class="st0" d="M274.5,245.7l-2.3,14.2c-1.3-0.2-2.6-0.5-4-0.8s-2.6-0.5-4-0.9l-3.9-1l-1.9-0.5l-1.9-0.6l4.4-13.7l1.7,0.6
		l1.7,0.4l3.4,0.9c1.1,0.3,2.3,0.5,3.4,0.7S273.3,245.5,274.5,245.7z"/>
	<path class="st1" d="M263.2,258c0.7-1,1.4-2.1,1.9-3.2c0.5-1.1,0.9-2.2,1.1-3.4c0.2-1.2,0.4-2.4,0.5-3.6c0.1-1.2,0.1-2.5,0.1-3.8
		c0.6,1.2,1.1,2.4,1.3,3.7c0.2,1.3,0.2,2.7,0,4c-0.3,1.3-0.8,2.6-1.6,3.7c-0.4,0.6-0.9,1.1-1.4,1.5
		C264.5,257.4,263.9,257.8,263.2,258z"/>
	<path class="st0" d="M288.4,246.8l-0.1,14.4c-5.4,0-10.8-0.5-16.1-1.3l2.3-14.2C279.1,246.4,283.7,246.8,288.4,246.8z"/>
	<path class="st1" d="M279.1,260.8c0.6-1.1,1-2.3,1.4-3.5c0.3-1.1,0.5-2.3,0.6-3.5c0.1-1.2,0-2.4-0.1-3.6c-0.1-1.2-0.3-2.4-0.5-3.7
		c0.8,1,1.4,2.2,1.8,3.4c0.4,1.3,0.6,2.6,0.6,4c-0.1,1.4-0.4,2.7-1,3.9c-0.3,0.6-0.7,1.2-1.1,1.7C280.3,260,279.8,260.4,279.1,260.8
		z"/>
	<path class="st0" d="M302.3,245.8l2.1,14.2c-2.7,0.3-5.3,0.8-8,0.9l-4,0.2c-1.4,0-2.7,0-4,0l0.1-14.4c1.2,0,2.3,0,3.5,0l3.5-0.2
		C297.7,246.5,300,246.1,302.3,245.8z"/>
	<path class="st1" d="M295.3,261c0.4-1.2,0.7-2.4,0.8-3.7c0.1-1.2,0.1-2.4,0-3.6c-0.1-1.2-0.3-2.4-0.6-3.5c-0.3-1.2-0.7-2.4-1.1-3.6
		c2,1.8,3.2,4.3,3.5,7c0.2,1.3,0,2.7-0.4,4c-0.2,0.6-0.5,1.3-0.9,1.8C296.3,260.1,295.9,260.6,295.3,261z"/>
	<path class="st0" d="M302.3,245.8c0.9-0.1,1.9-0.1,2.8,0.1c0.9,0.2,1.7,0.6,2.5,1.1c1.6,1.1,2.7,2.7,3.2,4.6c0.4,1.9,0,3.9-1.1,5.4
		c-0.6,0.8-1.3,1.5-2.2,2c-0.9,0.6-1.9,1-3,1.1L302.3,245.8z"/>
</g>
<path id="r-hand" class="st0" d="M322.2,267.3c1.6,0.5,3.4,0.8,4.7-0.2c2.1-1.6,0.9-5.1-1.1-6.7s-4.8-2.2-6.8-3.9
	c-1-0.8-1.8-2.2-1.4-3.4s1.8-1.8,3-2.1l10.6-3.5c1.4-0.3,2.6-1,3.7-1.9c1.1-1,1.3-2.6,0.6-3.8c-1-1.3-3-1.1-4.6-0.8l-11.6,2.3
	c-1,0.3-2.1,0.3-3.1-0.2c-1.7-1.2-0.5-4,1.2-5.2s4-2.2,4.4-4.3s-1.6-4.2-3.8-4.4s-4.3,1-6,2.4c-6.4,5.4-7.8,14-5.8,21.8
	C308.1,260.6,315.2,265.2,322.2,267.3z"/>
<g id="l-arm">
	<path class="st0" d="M105.7,218.9c4.4-0.1,7.9,3,7.9,7c-0.1,4-3.2,7.2-7.2,7.4L105.7,218.9z"/>
	<path class="st0" d="M92.2,234.8l-2.4-14.2c1.3-0.3,2.6-0.4,3.9-0.6l4-0.5c2.6-0.3,5.3-0.4,7.9-0.6l0.7,14.4
		c-2.4,0.2-4.7,0.3-7.1,0.6l-3.5,0.4C94.6,234.4,93.4,234.5,92.2,234.8z"/>
	<path class="st1" d="M98.8,219.4c-0.3,1.2-0.6,2.4-0.7,3.7c-0.1,1.2-0.1,2.4,0.1,3.6c0.2,1.2,0.4,2.3,0.8,3.5
		c0.3,1.2,0.8,2.3,1.2,3.6c-1-0.8-1.9-1.9-2.5-3c-0.7-1.2-1.1-2.5-1.3-3.8c-0.2-1.3-0.1-2.7,0.3-4c0.2-0.7,0.5-1.3,0.8-1.9
		C97.8,220.4,98.3,219.8,98.8,219.4z"/>
	<path class="st0" d="M78.5,238l-4.2-13.8c5.1-1.5,10.3-2.8,15.6-3.6l2.4,14.2C87.6,235.6,83,236.6,78.5,238z"/>
	<path class="st1" d="M83.1,221.9c-0.2,1.2-0.3,2.5-0.2,3.8c0.1,1.2,0.2,2.4,0.5,3.5c0.3,1.2,0.7,2.3,1.2,3.4
		c0.5,1.1,1.1,2.2,1.6,3.4c-1.1-0.7-2.1-1.6-2.8-2.7c-0.8-1.1-1.4-2.3-1.8-3.6c-0.4-1.3-0.4-2.7-0.2-4c0.1-0.7,0.3-1.4,0.6-2
		C82.2,223,82.6,222.4,83.1,221.9z"/>
	<path class="st0" d="M65.3,243l-6-13.1l3.7-1.7c1.2-0.6,2.5-1,3.8-1.5l3.8-1.4l3.8-1.2l4.1,13.8l-3.4,1l-3.3,1.2
		c-1.1,0.4-2.2,0.8-3.3,1.3L65.3,243z"/>
	<path class="st1" d="M67.7,226.4c0,1.3,0.1,2.5,0.3,3.8c0.2,1.2,0.5,2.3,1,3.4c0.5,1.1,1,2.2,1.6,3.2c0.6,1.1,1.3,2.1,2.1,3.2
		c-1.2-0.6-2.3-1.4-3.2-2.3c-0.9-1-1.7-2.1-2.2-3.4c-0.5-1.2-0.8-2.6-0.8-3.9c0-0.7,0.1-1.3,0.3-2C67,227.6,67.3,227,67.7,226.4z"/>
	<path class="st0" d="M53.1,249.7l-7.9-12c1.1-0.8,2.3-1.4,3.4-2.1s2.3-1.4,3.5-2l3.6-1.9l1.8-0.9l1.8-0.8l6,13.1l-1.6,0.7l-1.5,0.8
		l-3.1,1.6c-1,0.5-2,1.2-3,1.8S54.1,249.1,53.1,249.7z"/>
	<path class="st1" d="M53,233c0.1,1.2,0.4,2.5,0.8,3.6c0.4,1.1,0.9,2.2,1.5,3.2c0.6,1,1.3,2,2.1,2.9c0.8,0.9,1.6,1.9,2.5,2.9
		c-1.2-0.4-2.4-1-3.5-1.9c-1.1-0.8-2-1.8-2.7-2.9c-0.7-1.2-1.2-2.5-1.3-3.8c-0.1-0.7-0.1-1.4,0-2.1C52.5,234.3,52.7,233.6,53,233z"
		/>
	<path class="st0" d="M42.1,258.3l-9.7-10.6c4-3.7,8.2-7,12.8-10l7.9,12C49.2,252.3,45.6,255.1,42.1,258.3z"/>
	<path class="st1" d="M39.4,241.8c0.3,1.2,0.8,2.4,1.4,3.5c0.6,1.1,1.2,2.1,2,3c0.8,0.9,1.6,1.8,2.5,2.6c0.9,0.8,1.9,1.6,2.9,2.4
		c-1.3-0.2-2.6-0.6-3.7-1.2c-1.2-0.6-2.2-1.5-3.1-2.5c-0.9-1-1.5-2.2-1.9-3.5c-0.2-0.7-0.3-1.3-0.3-2
		C39.1,243.2,39.2,242.5,39.4,241.8z"/>
	<path class="st0" d="M32.6,268.4l-11.2-9c1.8-2,3.4-4.2,5.3-6.1l2.8-2.9c1-0.9,2-1.8,3-2.8l9.7,10.6c-0.8,0.8-1.7,1.6-2.6,2.4
		l-2.4,2.5C35.5,264.8,34.1,266.7,32.6,268.4z"/>
	<path class="st1" d="M27.4,252.6c0.5,1.1,1.2,2.2,1.9,3.2c0.7,1,1.5,1.8,2.4,2.6c0.9,0.8,1.9,1.5,2.9,2.1c1,0.7,2.1,1.3,3.2,1.9
		c-1.3,0-2.6-0.2-3.9-0.7c-1.3-0.5-2.5-1.1-3.5-2c-1-0.9-1.9-2-2.4-3.2c-0.3-0.6-0.5-1.3-0.6-1.9C27.3,254,27.3,253.3,27.4,252.6z"
		/>
	<path class="st0" d="M32.6,268.4c-0.6,0.7-1.3,1.3-2.1,1.8c-0.8,0.5-1.7,0.8-2.6,0.9c-1.9,0.3-3.8-0.1-5.4-1.2
		c-1.6-1.1-2.6-2.8-2.8-4.7c-0.1-1,0-2,0.2-3c0.3-1,0.8-2,1.5-2.8L32.6,268.4z"/>
</g>
<g id="body">
	<polygon class="st2" points="250.4,331 250.4,376.4 200.4,408.5 129.8,408.5 79.8,376.4 79.8,331 89.3,324.8 118.9,305.8 
		129.8,298.8 200.4,298.8 211.2,305.8 240.8,324.8 	"/>
	<polygon class="st3" points="192.9,310.5 137.3,310.5 98,335.8 98,371.6 137.3,396.9 192.9,396.9 232.2,371.6 232.2,335.8 	"/>
	<path class="st4" d="M204.2,342.5H126c4.1-5.6,4.1-13.3,0-18.9h78.2C200.1,329.3,200.1,336.9,204.2,342.5z"/>
	<path class="st2" d="M223.5,320.9v0.5l0,0c-37.5,15.2-79.4,15.2-116.9,0l0,0v-0.5l22.8-19l8.4-7h54.5l8.4,7L223.5,320.9z"/>
	<path class="st5" d="M211.3,305.6L211.3,305.6c-29,14.7-63.3,14.7-92.3,0l0,0v-91.3c0-4.5,3.7-8.2,8.2-8.2c0,0,0,0,0,0H203
		c4.5,0,8.2,3.7,8.2,8.2c0,0,0,0,0,0V305.6z"/>
	<path class="st6" d="M211.3,305.6L211.3,305.6c-29,14.7-63.3,14.7-92.3,0l0,0"/>
	<path class="st7" d="M194.7,299.7L194.7,299.7c-19,7.5-40.2,7.5-59.2,0l0,0V253c0-2.3,2.4-4.2,5.3-4.2h48.7c2.9,0,5.3,1.9,5.3,4.2
		L194.7,299.7z"/>
	<rect x="155.3" y="150.3" class="st1" width="19.5" height="42.9"/>
	<ellipse class="st2" cx="165.1" cy="206.1" rx="39.1" ry="5.8"/>
	<rect x="126" y="185.5" class="st2" width="78.2" height="20.6"/>
	<ellipse class="st8" cx="165.1" cy="185.5" rx="39.1" ry="5.8"/>
	<path class="st9" d="M192.1,184.5c0,1.3-7.2,2.4-17.3,2.8c-3,0.1-6.3,0.2-9.8,0.2s-6.7-0.1-9.8-0.2c-10.1-0.4-17.3-1.5-17.3-2.8
		s7.2-2.4,17.3-2.8c3-0.1,6.3-0.2,9.8-0.2s6.7,0.1,9.8,0.2C185,182.1,192.1,183.2,192.1,184.5z"/>
	<path class="st1" d="M174.9,150.3v37c-3,0.1-6.3,0.2-9.8,0.2s-6.7-0.1-9.8-0.2v-37H174.9z"/>
	<path class="st10" d="M218.3,444.1H111.9c-3.9,0-7.4-2.3-9-5.9c-13.2-29.9-13.2-63.9,0-93.8c1.6-3.6,5.1-5.9,9-5.9h106.4
		c3.9,0,7.4,2.3,9,5.9c13.2,29.9,13.2,63.9,0,93.8C225.7,441.8,222.2,444.1,218.3,444.1z"/>
	<path class="st2" d="M118.9,213.5c-1.5-3.5-5-8.2-9.3-6.2c-2.5,1.3-2.9,4.5-2.9,7.3c-0.2,11,2.8,23.5,12.2,30.4L118.9,213.5z"/>
	<path class="st2" d="M211.3,213.5c1.5-3.5,5-8.2,9.3-6.2c2.5,1.3,2.9,4.5,2.9,7.3c0.2,11-2.8,23.5-12.2,30.4V213.5z"/>
	<path class="st11" d="M106.7,340c4.9,1.2,9.8,2.4,14.7,3.6l14.7,3.8c9.8,2.6,19.5,5.3,29.3,8h-0.5c9.7-2.7,19.5-5.4,29.2-8
		l14.7-3.8c4.9-1.2,9.8-2.5,14.7-3.6c-4.8,1.6-9.6,3-14.5,4.5l-14.5,4.5c-9.7,2.9-19.4,5.6-29.1,8.4l-0.3,0.1l-0.3-0.1
		c-9.7-2.8-19.4-5.5-29.1-8.4l-14.5-4.4C116.3,343.1,111.5,341.6,106.7,340z"/>
	<path class="st11" d="M106.7,368c4.9,1.2,9.8,2.4,14.7,3.6l14.7,3.8c9.8,2.6,19.5,5.3,29.3,8h-0.5c9.7-2.7,19.5-5.4,29.2-8
		l14.7-3.8c4.9-1.2,9.8-2.5,14.7-3.6c-4.8,1.6-9.6,3-14.5,4.6l-14.5,4.4c-9.7,2.9-19.4,5.6-29.1,8.4l-0.3,0.1l-0.3-0.1
		c-9.7-2.8-19.4-5.5-29.1-8.4l-14.5-4.4C116.3,371,111.5,369.6,106.7,368z"/>
	<path class="st11" d="M106.7,395.9c4.9,1.2,9.8,2.4,14.7,3.6l14.7,3.8c9.8,2.6,19.5,5.3,29.3,8h-0.5c9.7-2.7,19.5-5.4,29.2-8
		l14.7-3.8c4.9-1.2,9.8-2.5,14.7-3.6c-4.8,1.6-9.6,3-14.5,4.6l-14.5,4.4c-9.7,2.9-19.4,5.6-29.1,8.4l-0.3,0.1l-0.3-0.1
		c-9.7-2.8-19.4-5.5-29.1-8.4l-14.5-4.4C116.3,399,111.5,397.5,106.7,395.9z"/>
	<path class="st11" d="M106.7,423.9c4.9,1.1,9.8,2.4,14.7,3.6l14.7,3.8c9.8,2.6,19.5,5.3,29.3,8h-0.5c9.7-2.7,19.5-5.4,29.2-8
		l14.7-3.8c4.9-1.2,9.8-2.5,14.7-3.6c-4.8,1.6-9.6,3-14.5,4.5l-14.5,4.4c-9.7,2.9-19.4,5.7-29.1,8.4l-0.3,0.1l-0.3-0.1
		c-9.7-2.8-19.4-5.5-29.1-8.4l-14.5-4.4C116.3,426.9,111.5,425.5,106.7,423.9z"/>
</g>
<path id="l-hand" class="st0" d="M3.4,266.1c-1.5,0.7-3,1.7-3.3,3.3c-0.4,2.6,2.8,4.4,5.4,4.1s5-1.7,7.6-1.8c1.3,0,2.8,0.4,3.3,1.6
	c0.5,1.2-0.1,2.5-0.7,3.6l-5.4,9.8c-0.8,1.2-1.3,2.5-1.4,3.9c-0.1,1.4,0.8,2.8,2.2,3.2c1.6,0.3,2.9-1.2,3.9-2.5l7-9.5
	c0.5-0.9,1.4-1.6,2.4-1.9c2.1-0.3,3.1,2.6,2.7,4.7s-1.4,4.3-0.3,6.1s4.1,2,5.8,0.7s2.5-3.6,2.8-5.8c1.1-8.3-3.8-15.6-10.5-19.9
	C18.2,261.5,10,263,3.4,266.1z"/>
<g id="head">
	<path class="st1" d="M102.3,30.7c-6.9-5-11.7-12.5-13.3-20.9c-0.2-1-0.6-2.4-1.7-2.4c-0.7,0.1-1.3,0.4-1.7,1
		c-5.5,5.9-10.4,12.3-14.8,19.1c2,0.9,4.3-0.5,6-2s3.8-2.9,5.9-2.2c1.2,0.6,2.2,1.5,2.9,2.6l9,12.5L102.3,30.7z"/>
	<path class="st1" d="M227.8,30.7c6.9-5,11.7-12.5,13.4-20.9c0.2-1,0.6-2.4,1.7-2.4c0.7,0.1,1.3,0.4,1.6,1
		c5.5,5.9,10.4,12.3,14.7,19.1c-2,0.9-4.3-0.5-6-2s-3.9-2.9-5.9-2.2c-1.2,0.6-2.2,1.5-2.9,2.6l-9,12.5L227.8,30.7z"/>
	<path class="st0" d="M292.2,68.5c-6.6-8-18.6-8.3-28.4-12C233,44.9,222.2,3.7,186,0.1c-0.6-0.1-1.2-0.1-1.8-0.1H146
		c-0.6,0-1.2,0.1-1.8,0.1c-36.2,3.5-47,44.8-77.9,56.3c-9.8,3.7-21.7,4-28.4,12c-9.7,11.7,0.3,30.1,13.6,37.4s29.3,8.7,42.3,16.7
		c11.5,7.1,19.4,18.6,29.4,27.6c6.4,5.7,14.5,10.5,22.8,11.8h38.2c8.3-1.3,16.4-6,22.8-11.8c10-9,17.9-20.5,29.4-27.6
		c12.9-8,28.9-9.4,42.3-16.7S301.9,80.2,292.2,68.5z"/>
	<path class="st12" d="M211.7,70.6c0,25.7-20.9,46.5-46.6,46.5c-25.7,0-46.5-20.9-46.5-46.6c0-25.7,20.9-46.5,46.6-46.5
		c23,0,42.5,16.8,45.9,39.5C211.5,65.9,211.7,68.3,211.7,70.6z"/>
	<path class="st1" d="M194.1,127.7c-3.6,3.8-7.9,6.7-12.8,8.6c-4.9,2-10.1,2.9-15.4,2.8c-5.3,0.1-10.5-0.8-15.4-2.8
		c-4.8-1.9-9.2-4.8-12.8-8.6c4.2,2.7,8.8,4.7,13.6,6.1c4.7,1.4,9.6,2,14.5,1.9c4.9,0.1,9.8-0.5,14.5-1.9
		C185.3,132.4,189.9,130.3,194.1,127.7z"/>
	<path class="st13" d="M210.9,68.7c0,25.3-20.5,45.8-45.8,45.8s-45.8-20.5-45.8-45.8S139.8,23,165.1,23c22.6,0,41.8,16.5,45.3,38.8
		C210.7,64.1,210.9,66.4,210.9,68.7z"/>
	<circle class="st14" cx="165.1" cy="68.7" r="27.1"/>
	<circle class="st15" cx="165.1" cy="68.7" r="18.1"/>
	<path class="st1" d="M117.5,60.9c9.4-53.4,85.7-53.4,95.1,0c0.2,1-0.5,2-1.6,2.2c-0.3,0-0.6,0-1-0.1c-29-10.9-61-10.9-90.1,0
		c-1,0.4-2.1-0.1-2.4-1.1C117.5,61.6,117.5,61.3,117.5,60.9z"/>
</g>
</svg>
