<?xml version="1.0" encoding="utf-8"?>
<!-- Generator: Adobe Illustrator 25.2.0, SVG Export Plug-In . SVG Version: 6.00 Build 0)  -->
<svg version="1.1" id="Layer_1" xmlns="http://www.w3.org/2000/svg" xmlns:xlink="http://www.w3.org/1999/xlink" x="0px" y="0px"
	 viewBox="0 0 199.1 444.1" style="enable-background:new 0 0 199.1 444.1;" xml:space="preserve">
<style type="text/css">
	.st0{fill:#CBCBCB;}
	.st1{fill:#4D4D4D;}
	.st2{fill:#C0272D;}
	.st3{fill:#B2B2B2;}
	.st4{fill:#02799E;}
	.st5{fill:#02526B;}
	.st6{fill:#023E51;}
	.st7{fill:#9D2025;}
	.st8{fill:#00A0A0;}
	.st9{fill:#989898;}
	.st10{fill:none;stroke:#CBCBCB;stroke-width:7.22;stroke-linecap:round;stroke-miterlimit:10;}
	.st11{fill:#00D0D0;}
	.st12{fill:#008181;}
	.st13{fill:#FFFFFF;}
	.st14{clip-path:url(#SVGID_2_);}
	.st15{fill:#D43D40;}
	.st16{fill:#782224;}
	.st17{clip-path:url(#SVGID_4_);}
</style>
<g id="body">
	<polygon class="st0" points="43.4,391.8 114.9,391.8 103.1,376.6 103.1,331.8 31.5,331.8 31.5,376.6 	"/>
	<polygon class="st0" points="23.6,376.6 95.2,376.6 107,391.8 35.5,391.8 	"/>
	<rect x="23.6" y="331.8" class="st0" width="71.5" height="44.7"/>
	<polygon class="st0" points="114.9,316.6 43.4,316.6 31.5,331.8 103.1,331.8 	"/>
	<polygon class="st0" points="107,316.6 35.5,316.6 23.6,331.8 95.2,331.8 	"/>
	<polygon class="st1" points="48.5,391.8 120,391.8 108.2,376.6 108.2,331.8 36.7,331.8 36.7,376.6 	"/>
	<polygon class="st1" points="28.8,376.6 100.3,376.6 112.2,391.8 40.6,391.8 	"/>
	<rect x="28.8" y="331.8" class="st1" width="71.5" height="44.7"/>
	<polygon class="st1" points="120,316.6 48.5,316.6 36.7,331.8 108.2,331.8 	"/>
	<polygon class="st1" points="112.2,316.6 40.6,316.6 28.8,331.8 100.3,331.8 	"/>
	<path class="st2" d="M123.5,215.6v101H33.4v-101c0-8,6.5-14.5,14.5-14.5H109C117,201.1,123.5,207.6,123.5,215.6
		C123.5,215.6,123.5,215.6,123.5,215.6z"/>
	<polygon class="st3" points="19.2,376.8 102.2,376.8 115.9,392 32.9,392 	"/>
	<path class="st4" d="M43,340h65.5c23.7,0,43,19.2,43,43v18.2c0,23.7-19.2,43-43,43H43c-23.7,0-43-19.2-43-43V383
		C0,359.3,19.2,340,43,340z"/>
	<path class="st5" d="M48.6,340h65.5c23.7,0,43,19.2,43,43v18.2c0,23.7-19.2,43-43,43H48.6c-23.7,0-43-19.2-43-43V383
		C5.6,359.3,24.8,340,48.6,340z"/>
	<path class="st6" d="M38.2,376.2h86.3c8.8,0,15.9,7.1,15.9,15.9v0c0,8.8-7.1,15.9-15.9,15.9H38.2c-8.8,0-15.9-7.1-15.9-15.9v0
		C22.3,383.3,29.4,376.2,38.2,376.2z"/>
	<path class="st7" d="M62.1,253v54.1c-11.5,0.4-18.5-0.7-28.7-1.8v-56.5h23.4C59.8,248.8,62.1,250.7,62.1,253z"/>
	<path class="st8" d="M86.8,150.3v37c-3,0.1-6.3,0.2-9.8,0.2s-6.7-0.1-9.8-0.2v-37H86.8z"/>
	<rect x="43.6" y="180.5" class="st0" width="68.9" height="21.4"/>
	<polygon class="st0" points="115.3,316.6 32.3,316.6 46,331.8 46,376.6 129,376.6 129,331.8 	"/>
	<polygon class="st3" points="138.2,331.8 55.2,331.8 41.5,316.6 124.5,316.6 	"/>
	<rect x="55.2" y="331.8" class="st9" width="83" height="44.7"/>
	<path class="st10" d="M123.5,313.6c-33.7,5-61.3,5.5-89.5,2.9"/>
	<polygon class="st0" points="32.3,391.8 115.3,391.8 129,376.6 46,376.6 	"/>
	<polygon class="st3" points="41.5,391.8 124.5,391.8 138.2,376.6 55.2,376.6 	"/>
	<rect x="46" y="331.8" class="st0" width="9.2" height="44.7"/>
	<path class="st3" d="M70,213.6c2-5.2,10-12.6,15.6-10.5s6.8,13,4.9,18.2s-12.6,19.6-18.3,17.5S68,218.8,70,213.6z"/>
	<path class="st0" d="M23.6,331.8c0,0,13,6.7,27,0l-6.4-12.2l-10.8-0.4L23.6,331.8z"/>
</g>
<g id="head">
	<path class="st11" d="M181.7,105.9c-13.3,7.3-29.4,8.7-42.3,16.7c-11.5,7.1-19.4,18.6-29.4,27.6c-6.4,5.7-14.5,10.5-22.8,11.8H68.1
		c-18.2,0-30.2-14.2-36.5-35.2c-1-3.2-1.8-6.4-2.5-9.5c-0.2-0.9-0.4-1.8-0.6-2.7c-1.5-7.1-2.4-14.3-2.9-21.5V69.5
		c0-15.8,4.2-31.2,12-44.9v-0.1c0.2-0.3,0.3-0.6,0.5-0.9c0.4-0.7,0.8-1.3,1.2-1.9C48.7,8.1,64.2-0.1,80.7,0h6.5
		c0.6,0,1.2,0.1,1.8,0.1c19.8,1.9,32.1,15.2,44.2,28.8c2.3,2.5,4.5,5.1,6.8,7.5c7.8,8.4,16.1,16,26.9,20.1c9.8,3.7,21.7,4,28.4,12
		C204.9,80.2,195,98.6,181.7,105.9z"/>
	<path class="st8" d="M112.3,30.7c6.9-5,11.7-12.5,13.4-20.9c0.2-1,0.6-2.4,1.7-2.4c0.7,0.1,1.3,0.4,1.6,1
		c5.5,5.9,10.4,12.3,14.7,19.1c-2,0.9-4.3-0.5-6-2s-3.9-2.9-6-2.2c-1.2,0.6-2.2,1.5-2.8,2.6l-9,12.5L112.3,30.7z"/>
	<path class="st12" d="M76.8,70.6c0,25.7-20.8,46.6-46.6,46.6c0,0,0,0,0,0c-0.4,0-0.8,0-1.2,0c-0.2-0.9-0.4-1.8-0.6-2.7
		c-1.5-7.1-2.4-14.3-2.9-21.5V69.5c0-15.8,4.2-31.2,12-44.9C52.5,27,65.3,36.5,72,50c0,0,0,0,0,0c2,4.1,3.4,8.5,4.2,13.1
		c0,0.1,0,0.3,0.1,0.4C76.6,65.9,76.8,68.2,76.8,70.6z"/>
	<path class="st13" d="M30.1,114.2c-0.6,0-1.2,0-1.8,0l0,0c-0.9,0-1.6-0.7-1.8-1.6l0,0c-1.5-7-2.4-14.1-2.9-21.3v-23
		c0-4.9,0.4-9.8,1.2-14.6c1.7-10.6,5.4-20.9,10.7-30.2l0.1-0.2l0,0l0.1-0.1l0.4-0.7l0,0c0.4-0.7,1.2-1,2-0.9l0,0
		c15.3,2.7,28.2,12.7,34.5,26.8l0.2,0.4l0,0c1.6,3.7,2.7,7.6,3.4,11.6c0.1,0.5,0.1,0.9,0.2,1.4c0.2,1.9,0.4,3.8,0.3,5.7
		C76.7,93.3,55.8,114.2,30.1,114.2z"/>
	<g>
		<defs>
			<path id="SVGID_1_" d="M30.3,116.5c-0.6,0-1.2,0-1.8,0h-1.6l-0.3-1.6c-1.5-7.2-2.5-14.5-3-21.8V69.5c0-16.1,4.2-31.9,12.2-45.9
				l0.1-0.2l0,0l0.1-0.1l0.4-0.7l0.7-1.1l1.3,0.2c15.6,2.7,28.9,13,35.4,27.5l0.2,0.4l0,0c1.7,3.8,2.8,7.8,3.4,11.9
				c0.1,0.5,0.2,1,0.2,1.4c3.2,26.2-15.3,50-41.5,53.2C34.2,116.4,32.2,116.5,30.3,116.5L30.3,116.5z"/>
		</defs>
		<clipPath id="SVGID_2_">
			<use xlink:href="#SVGID_1_"  style="overflow:visible;"/>
		</clipPath>
		<g class="st14">
			<circle class="st15" cx="25.3" cy="68.7" r="27.1"/>
			<circle class="st16" cx="25.3" cy="68.7" r="18.2"/>
		</g>
	</g>
	<path class="st8" d="M76,66.2c-0.2,0-0.4,0-0.7,0c-0.4-0.1-0.8-0.2-1.2-0.3c-14-5.3-28.9-8-43.9-8c-1.1,0-2.3,0-3.4,0L24.6,58
		c-0.6,0-1.1-0.4-1.1-1c0-0.1,0-0.1,0-0.2l0.4-2.3c1.8-11,5.6-21.6,11.2-31.3l0.2-0.3l0,0l0,0c0.1-0.2,0.3-0.5,0.4-0.7
		c0.4-0.7,0.8-1.4,1.3-2l0,0c0.7-1,1.8-1.5,3-1.3l0,0c21.3,3.9,37,19.8,40.9,41.7c0.3,1.9-0.4,3.8-2,4.9c-0.7,0.5-1.5,0.8-2.3,0.8
		C76.3,66.2,76.2,66.2,76,66.2z"/>
	<g>
		<defs>
			<path id="SVGID_3_" d="M181.7,105.9c-13.3,7.3-29.4,8.7-42.3,16.7c-11.5,7.1-19.4,18.6-29.4,27.6c-6.4,5.7-14.5,10.5-22.8,11.8
				H68.1c-18.2,0-30.2-14.2-36.5-35.2c-1-3.2-1.8-6.4-2.5-9.5c-0.2-0.9-0.4-1.8-0.6-2.7c-1.5-7.1-2.4-14.3-2.9-21.5V69.5
				c0-15.8,4.2-31.2,12-44.9v-0.1c0.2-0.3,0.3-0.6,0.5-0.9c0.4-0.7,0.8-1.3,1.2-1.9C48.7,8.1,64.2-0.1,80.7,0h6.5
				c0.6,0,1.2,0.1,1.8,0.1c19.8,1.9,32.1,15.2,44.2,28.8c2.3,2.5,4.5,5.1,6.8,7.5c7.8,8.4,16.1,16,26.9,20.1c9.8,3.7,21.7,4,28.4,12
				C204.9,80.2,195,98.6,181.7,105.9z"/>
		</defs>
		<clipPath id="SVGID_4_">
			<use xlink:href="#SVGID_3_"  style="overflow:visible;"/>
		</clipPath>
		<g class="st17">
			<path class="st8" d="M53.7,127.6c-3.5,3.8-7.9,6.8-12.7,8.6c-4.9,2-10.1,2.9-15.4,2.8c-5.3,0.1-10.5-0.8-15.4-2.8
				c-4.8-1.9-9.2-4.8-12.8-8.6c4.2,2.7,8.8,4.7,13.6,6.2c4.7,1.4,9.6,2,14.5,1.9c4.9,0.1,9.8-0.5,14.5-1.9
				C44.9,132.4,49.5,130.3,53.7,127.6z"/>
		</g>
	</g>
</g>
<g id="f-arm">
	<path class="st11" d="M74.9,228.4c-2.1-3.4-1.1-7.8,2.1-10c3.3-2.2,7.9-1.1,10.2,2.7L74.9,228.4z"/>
	<path class="st11" d="M94.6,235.1L81.5,241c-0.4-1.1-1-2.1-1.5-3.2l-1.6-3.2c-1.1-2.1-2.3-4.1-3.5-6.2l12.3-7.4
		c1.3,2.3,2.6,4.6,3.9,6.9l1.8,3.6C93.5,232.7,94.1,233.9,94.6,235.1z"/>
	<path class="st8" d="M77.9,233.8c1.2-0.2,2.4-0.5,3.6-0.9c1.1-0.4,2.2-0.8,3.3-1.4c1.1-0.6,2.1-1.2,3-2c1-0.8,1.9-1.6,2.8-2.5
		c-0.3,1.3-1,2.6-1.8,3.6c-0.9,1.1-1.9,1.9-3.1,2.6c-1.2,0.6-2.5,1-3.8,1.1c-0.7,0.1-1.3,0.1-2,0C79.2,234.3,78.5,234.1,77.9,233.8z
		"/>
	<path class="st11" d="M100.2,250.1l-13.8,4.2c-1.4-4.5-3.1-8.9-5-13.2l13.1-5.9C96.8,240,98.6,245,100.2,250.1z"/>
	<path class="st8" d="M83.8,246.7c1.2,0,2.5-0.2,3.7-0.4c1.2-0.2,2.3-0.6,3.4-1c1.1-0.4,2.2-1,3.2-1.6c1-0.6,2-1.4,3.1-2.2
		c-0.5,1.3-1.3,2.4-2.3,3.4c-1,0.9-2.1,1.6-3.4,2.1c-1.3,0.5-2.6,0.7-4,0.7c-0.7,0-1.3-0.1-2-0.3C85,247.3,84.4,247,83.8,246.7z"/>
	<path class="st11" d="M103.8,265.7L89.6,268l-0.6-3.5c-0.2-1.1-0.5-2.3-0.8-3.4l-0.8-3.4l-1-3.4l13.8-4.2l1.1,3.8l0.9,3.9
		c0.3,1.3,0.7,2.6,0.9,3.9L103.8,265.7z"/>
	<path class="st8" d="M88.1,260.2c1.2,0.1,2.5,0.2,3.7,0.1c1.2-0.1,2.4-0.2,3.5-0.5c1.2-0.3,2.3-0.7,3.4-1.2
		c1.1-0.5,2.2-1.1,3.4-1.7c-0.7,1.2-1.6,2.2-2.7,3c-1.1,0.8-2.3,1.4-3.6,1.7c-2,0.5-4.1,0.3-6-0.4C89.1,260.9,88.6,260.6,88.1,260.2
		z"/>
	<path class="st11" d="M105.1,281.8l-14.4,0.1c0-1.2-0.1-2.3-0.1-3.5s0-2.3-0.2-3.5l-0.4-3.5l-0.2-1.7l-0.3-1.7l14.2-2.2l0.3,2
		l0.2,2l0.4,4c0.2,1.3,0.2,2.7,0.2,4S105.1,280.5,105.1,281.8z"/>
	<path class="st8" d="M90.3,274c1.2,0.3,2.4,0.5,3.7,0.6c1.2,0.1,2.4,0.1,3.6,0c1.2-0.1,2.4-0.4,3.5-0.7c1.2-0.3,2.3-0.8,3.6-1.2
		c-0.8,1.1-1.8,2-3.1,2.6c-1.2,0.6-2.5,1-3.9,1.1c-1.4,0.1-2.7,0-4-0.5c-0.6-0.2-1.2-0.5-1.8-0.8C91.3,274.9,90.8,274.5,90.3,274z"
		/>
	<path class="st11" d="M103.9,298l-14.2-2.2c0.7-4.6,1-9.2,1-13.9l14.4-0.1C105.1,287.2,104.7,292.6,103.9,298z"/>
	<path class="st8" d="M90.6,288c1.1,0.5,2.3,0.9,3.5,1.2c1.2,0.3,2.3,0.5,3.5,0.5c1.2,0.1,2.4,0,3.6-0.1c1.2-0.1,2.4-0.4,3.8-0.7
		c-1,1-2.2,1.7-3.5,2.1c-1.3,0.4-2.6,0.6-4,0.5c-1.4-0.1-2.7-0.5-3.9-1.1c-0.6-0.3-1.2-0.7-1.7-1.1C91.4,289,90.9,288.5,90.6,288z"
		/>
	<path class="st11" d="M100.2,313.7l-13.7-4.4c0.6-2.2,1.4-4.4,1.8-6.7l0.8-3.4c0.2-1.1,0.4-2.3,0.6-3.4l14.2,2.2
		c-0.2,1.3-0.4,2.7-0.7,4l-0.9,4C101.9,308.5,101,311.1,100.2,313.7z"/>
	<path class="st8" d="M88.6,301.7c1.1,0.7,2.2,1.2,3.3,1.7c1.1,0.5,2.2,0.8,3.4,1.1c1.2,0.3,2.4,0.4,3.6,0.4c1.2,0,2.5,0,3.8-0.1
		c-1.1,0.8-2.4,1.3-3.7,1.6c-1.3,0.2-2.7,0.2-4-0.1c-1.3-0.3-2.6-0.9-3.7-1.7c-0.6-0.4-1.1-0.8-1.5-1.3
		C89.3,302.9,88.9,302.3,88.6,301.7z"/>
	<path class="st11" d="M100.2,313.7c-0.3,1-0.8,2-1.5,2.8c-0.7,0.8-1.4,1.4-2.3,1.9c-1.7,0.9-3.7,1-5.5,0.3c-1.8-0.7-3.2-2.1-4-3.9
		c-0.4-0.8-0.6-1.7-0.7-2.6c0-0.9,0.1-1.9,0.3-2.8L100.2,313.7z"/>
</g>
<path id="f-hand" class="st11" d="M70.7,314.6c-1.4,0.8-3,1.9-3.2,3.5c-0.3,2.6,3,4.2,5.6,3.8s4.9-1.9,7.5-2.2
	c1.3-0.1,2.8,0.2,3.4,1.4s0,2.5-0.5,3.6l-4.9,10.1c-0.7,1.2-1.1,2.6-1.2,4c-0.1,1.5,0.9,2.7,2.3,3.1c1.6,0.2,2.9-1.4,3.8-2.7
	l6.4-9.9c0.5-0.9,1.3-1.7,2.3-2c2.1-0.4,3.2,2.4,2.9,4.5s-1.2,4.4,0,6.1s4.2,1.8,5.8,0.4s2.3-3.8,2.5-6c0.6-8.4-4.6-15.4-11.6-19.3
	C85.3,309.2,77.2,311.1,70.7,314.6z"/>
</svg>
