<?xml version="1.0" encoding="utf-8"?>
<!-- Generator: Adobe Illustrator 25.2.0, SVG Export Plug-In . SVG Version: 6.00 Build 0)  -->
<svg version="1.1" id="Layer_1" xmlns="http://www.w3.org/2000/svg" xmlns:xlink="http://www.w3.org/1999/xlink" x="0px" y="0px"
	 viewBox="0 0 246.4 447" style="enable-background:new 0 0 246.4 447;" xml:space="preserve">
<style type="text/css">
	.st0{fill:#00D0D0;}
	.st1{fill:#00A0A0;}
	.st2{fill:#4D4D4D;}
	.st3{fill:#CBCBCB;}
	.st4{fill:#02799E;}
	.st5{fill:#02526B;}
	.st6{fill:#023E51;}
	.st7{fill:#989898;}
	.st8{fill:#B2B2B2;}
	.st9{fill:#C0272D;}
	.st10{fill:#808080;}
	.st11{fill:none;stroke:#CBCBCB;stroke-width:6.07;stroke-linecap:round;stroke-miterlimit:10;}
	.st12{fill:#9D2025;}
	.st13{clip-path:url(#SVGID_2_);}
	.st14{fill:#008181;}
	.st15{fill:#FFFFFF;}
	.st16{fill:#D43D40;}
	.st17{fill:#782224;}
</style>
<g id="l-arm">
	<path class="st0" d="M59.7,211c2.3-3.7,6.9-4.9,10.2-2.7c3.3,2.2,4.2,6.7,2.1,10.1L59.7,211z"/>
	<path class="st0" d="M65.5,231l-13.1-5.9c0.5-1.2,1.1-2.4,1.7-3.6l1.8-3.6c1.2-2.3,2.6-4.6,3.9-6.9l12.3,7.4
		c-1.2,2.1-2.4,4.1-3.5,6.2l-1.6,3.2C66.5,228.9,65.9,229.9,65.5,231z"/>
	<path class="st1" d="M56.3,217c0.8,1,1.7,1.8,2.7,2.6c0.9,0.7,1.9,1.4,3,1.9c1.1,0.5,2.2,1,3.3,1.3c1.2,0.4,2.4,0.6,3.6,1
		c-1.3,0.4-2.6,0.5-3.9,0.4c-1.3-0.1-2.7-0.4-3.9-1c-1.2-0.6-2.3-1.4-3.2-2.4c-0.4-0.5-0.8-1.1-1.1-1.7
		C56.6,218.4,56.4,217.7,56.3,217z"/>
	<path class="st0" d="M60.5,244.2l-13.8-4.2c1.5-5.1,3.4-10.1,5.6-15l13.1,5.9C63.5,235.3,61.9,239.7,60.5,244.2z"/>
	<path class="st1" d="M49.7,231.5c0.9,0.9,1.9,1.6,3,2.3c1,0.6,2.1,1.1,3.2,1.5c1.1,0.4,2.3,0.7,3.5,0.9c1.2,0.2,2.4,0.4,3.7,0.5
		c-1.2,0.5-2.5,0.8-3.8,0.9c-1.4,0.1-2.7-0.1-4-0.5c-1.3-0.4-2.5-1.1-3.5-2c-0.5-0.5-0.9-1-1.3-1.6
		C50.1,232.8,49.8,232.2,49.7,231.5z"/>
	<path class="st0" d="M57.3,257.9l-14.2-2.2l0.7-4c0.2-1.3,0.6-2.6,0.9-3.9l0.9-3.9l1.1-3.8l13.8,4.2l-1,3.4l-0.8,3.4
		c-0.2,1.1-0.6,2.3-0.8,3.4L57.3,257.9z"/>
	<path class="st1" d="M44.9,246.8c1,0.7,2.1,1.3,3.3,1.8c1.1,0.5,2.2,0.8,3.4,1.1c1.2,0.2,2.4,0.4,3.6,0.4c1.2,0.1,2.5,0,3.8,0
		c-1.1,0.7-2.4,1.1-3.7,1.4c-1.3,0.2-2.7,0.2-4,0c-1.3-0.2-2.6-0.8-3.7-1.6c-0.6-0.4-1.1-0.9-1.5-1.4
		C45.6,248,45.2,247.4,44.9,246.8z"/>
	<path class="st0" d="M56.2,271.9l-14.4-0.1c0-1.4,0.1-2.7,0.1-4s0.1-2.7,0.2-4l0.4-4l0.2-2l0.3-2l14.2,2.2l-0.3,1.7l-0.2,1.7
		l-0.4,3.5c-0.1,1.2-0.1,2.3-0.2,3.5S56.2,270.7,56.2,271.9z"/>
	<path class="st1" d="M42.3,262.7c1.1,0.6,2.3,1,3.5,1.3c1.1,0.3,2.3,0.5,3.5,0.6c1.2,0.1,2.4,0,3.6-0.1c1.2-0.1,2.5-0.3,3.8-0.5
		c-1,0.8-2.2,1.4-3.5,1.9c-1.3,0.4-2.6,0.6-3.9,0.6c-1.4-0.1-2.7-0.4-3.9-1c-0.6-0.3-1.2-0.7-1.7-1.1
		C43,263.8,42.6,263.3,42.3,262.7z"/>
	<path class="st0" d="M57.2,285.8L43,287.9c-0.8-5.3-1.2-10.7-1.2-16.1l14.4,0.1C56.2,276.5,56.5,281.2,57.2,285.8z"/>
	<path class="st1" d="M42,278.8c1.2,0.4,2.4,0.7,3.7,0.8c1.2,0.1,2.4,0.1,3.6,0c1.2-0.1,2.4-0.3,3.5-0.6c1.2-0.3,2.3-0.7,3.6-1.1
		c-0.9,1-1.9,1.8-3.1,2.4c-1.2,0.6-2.5,1-3.8,1.2c-1.3,0.2-2.7,0-4-0.4c-0.7-0.2-1.3-0.5-1.8-0.9C43,279.8,42.5,279.4,42,278.8z"/>
	<path class="st0" d="M60.4,299.3l-13.7,4.4c-0.7-2.6-1.6-5.2-2.1-7.8l-0.9-4c-0.2-1.3-0.4-2.7-0.7-4l14.2-2.2
		c0.2,1.1,0.3,2.3,0.5,3.4l0.8,3.4C59,294.9,59.8,297.1,60.4,299.3z"/>
	<path class="st1" d="M44.3,294.8c1.2,0.2,2.5,0.3,3.8,0.2c1.2-0.1,2.4-0.2,3.5-0.5c1.2-0.3,2.3-0.7,3.4-1.2
		c1.1-0.5,2.2-1.1,3.4-1.6c-0.7,1.1-1.7,2.1-2.7,2.8c-1.1,0.8-2.3,1.4-3.6,1.8c-1.3,0.4-2.7,0.5-4,0.2c-0.7-0.1-1.3-0.3-1.9-0.6
		C45.4,295.7,44.8,295.3,44.3,294.8z"/>
	<path class="st0" d="M60.4,299.3c0.3,0.9,0.4,1.8,0.3,2.8c-0.1,0.9-0.3,1.8-0.7,2.6c-0.8,1.8-2.2,3.1-4,3.9
		c-1.8,0.7-3.8,0.6-5.5-0.3c-0.9-0.5-1.7-1.1-2.3-1.9c-0.7-0.8-1.2-1.8-1.5-2.8L60.4,299.3z"/>
</g>
<path id="l-hand" class="st0" d="M76.2,304.5c1.4,0.8,2.9,1.9,3.1,3.5c0.3,2.6-3,4.2-5.6,3.8s-4.9-1.9-7.5-2.2
	c-1.3-0.1-2.8,0.2-3.4,1.4s0,2.5,0.5,3.6l4.9,10.1c0.7,1.2,1.1,2.6,1.2,4c0.1,1.5-0.9,2.7-2.3,3.1c-1.6,0.2-2.9-1.4-3.8-2.7
	l-6.5-9.9c-0.5-0.9-1.3-1.7-2.3-2c-2.1-0.4-3.2,2.4-2.9,4.5s1.2,4.4,0,6.1s-4.2,1.8-5.8,0.4s-2.3-3.8-2.5-6
	C42.8,313.9,48,306.9,55,303C61.6,299.2,69.8,301.1,76.2,304.5z"/>
<g id="body">
	<polygon class="st2" points="123.6,323.1 147.7,303.8 72.3,303.8 48.1,323.1 48.1,371 62.7,387.2 140.2,378.5 123.6,371 	"/>
	<polygon class="st3" points="64,387.2 54.5,387.2 39.9,371 49.4,371 	"/>
	<polygon class="st3" points="72.3,297.6 80,298.6 49.4,323.1 39.9,323.1 	"/>
	<rect x="39.9" y="323.1" class="st3" width="9.4" height="47.9"/>
	<polygon class="st4" points="93.8,446.4 25.2,437.5 26.4,343.8 94.4,343.8 	"/>
	<polygon class="st4" points="107.2,320.3 177.8,329.7 177.8,424.1 108.2,416.7 	"/>
	<path class="st4" d="M93.6,420.7l-56.5,15.5C16.6,441.8,0,428,0,405.3v-17.4c0-22.7,16.6-45.6,37.1-51.3l56.5-15.5
		c20.5-5.6,37.1,8.2,37.1,30.9v17.4C130.7,392.1,114.1,415.1,93.6,420.7z"/>
	<path class="st4" d="M102.6,383.7l-74.4,20.4c-7.6,2.1-13.7-3-13.7-11.5l0,0c0-8.4,6.1-16.9,13.7-19l74.4-20.4
		c7.6-2.1,13.7,3,13.7,11.5l0,0C116.3,373.1,110.2,381.6,102.6,383.7z"/>
	<path class="st5" d="M164.9,430.2l-56.5,15.5c-20.5,5.6-37.1-8.2-37.1-30.9v-17.4c0-22.7,16.6-45.6,37.1-51.3l56.5-15.5
		c20.5-5.6,37.1,8.2,37.1,30.9v17.4C202,401.6,185.4,424.6,164.9,430.2z"/>
	<path class="st6" d="M173.8,393.2l-74.4,20.4c-7.6,2.1-13.7-3-13.7-11.5l0,0c0-8.4,6.2-16.9,13.7-19l74.4-20.4
		c7.6-2.1,13.7,3,13.7,11.5l0,0C187.6,382.6,181.4,391.1,173.8,393.2z"/>
	<path class="st3" d="M54.3,316.7L54.3,316.7c28.6,11.4,62.9,12.6,92.3,3.3l0,0l0.5-15.1l-74.5-2.7L54.3,316.7z"/>
	<polygon class="st3" points="165.5,325.8 141.1,304.1 99.5,313 124.6,333 124.6,381 110,397.1 150.9,384.8 165.2,369.8 
		165.2,325.8 	"/>
	<polygon class="st7" points="177.1,369.8 136.5,381 136.5,333 177.1,325.8 	"/>
	<polygon class="st8" points="111.4,313 136.5,333 177.4,325.8 153,304.1 	"/>
	<path class="st8" d="M76.2,205c-1.9-5.2-9.9-12.6-15.6-10.5s-6.8,13-4.9,18.2s12.6,19.7,18.3,17.6S78.2,210.2,76.2,205z"/>
	<path class="st9" d="M146.5,196.3H70.6c-4.5-0.1-8.1,3.5-8.2,7.9c0,0,0,0,0,0v95.6c0.1,4.5,3.8,8,8.2,7.9c0,0,0,0,0,0h75.9
		c4.5,0.1,8.1-3.5,8.2-7.9v-95.6C154.7,199.8,151,196.2,146.5,196.3z"/>
	<path class="st8" d="M145.1,197.4c0,3.2-17.3,5.9-38.4,5.9c-20.7,0.1-37.2-2.4-37.2-5.4s16.5-5.8,37.2-5.9
		C127.8,191.8,145.1,194.2,145.1,197.4z"/>
	<polygon class="st8" points="145.1,176.8 145.1,197.4 69.6,197.9 69.6,177.9 	"/>
	<path class="st3" d="M145.1,176.8c0,3.2-17.3,6-38.4,6.3c-20.7,0.3-37.2-2-37.2-5.1s16.5-5.9,37.2-6.2
		C127.8,171.3,145.1,173.6,145.1,176.8z"/>
	<path class="st10" d="M133.2,176.1c0,1.3-7.1,2.5-17,3c-3,0.1-6.1,0.3-9.5,0.3s-6.5,0-9.4-0.1c-9.7-0.3-16.5-1.3-16.5-2.6
		s6.8-2.4,16.5-3c2.9-0.2,6.1-0.3,9.4-0.3s6.5,0,9.5,0.1C126.1,173.8,133.2,174.8,133.2,176.1z"/>
	<path class="st1" d="M116.2,142.4V179c-2.9,0.2-6.1,0.3-9.5,0.3s-6.5,0-9.4-0.1v-36.3L116.2,142.4z"/>
	<path class="st11" d="M154.8,303.1L154.8,303.1c-29,10.4-63.3,10.4-92.3,0l0,0"/>
	<path class="st8" d="M149.5,205c1.9-5.2,9.9-12.6,15.6-10.5s6.8,13,4.9,18.2s-12.6,19.7-18.2,17.6S147.5,210.2,149.5,205z"/>
	<polygon class="st8" points="177.1,369.8 162.9,384.8 121.9,397.1 136.5,381 	"/>
	<polygon class="st3" points="110,397.1 121.9,397.1 136.5,381 124.6,381 	"/>
	<rect x="124.6" y="333" class="st3" width="11.9" height="47.9"/>
	<path class="st12" d="M66.4,246.3v47.4c0,0,21.9,9.5,49.8,5v-49.5c0-3.1-2.4-5.6-5.4-5.9l-38.1-2.9c-3.2-0.2-6.1,2.2-6.3,5.4
		C66.4,246,66.4,246.1,66.4,246.3z"/>
	<g>
		<defs>
			<path id="SVGID_1_" d="M176.8,329.5c-0.4,0-0.8-0.1-1.2-0.1c-0.2,0-0.3,0-0.5,0c-0.4,0-0.8,0-1.1,0c-3,0-6.1,0.4-9,1.2l-35.8,9.8
				l-20.7,5.7l-0.8,0.2h-0.1c-0.6,0.2-1.2,0.4-1.7,0.6c-0.3,0.1-0.6,0.2-0.9,0.3l-0.8,0.3c-0.3,0.1-0.5,0.2-0.8,0.3
				c-1.5,0.6-3,1.4-4.4,2.2c-0.4,0.2-0.7,0.4-1.1,0.6c-0.5,0.3-1,0.6-1.4,0.9l-0.7,0.5c-0.4,0.3-0.8,0.6-1.3,0.9s-0.8,0.6-1.2,0.9
				l-1.1,0.9c-0.4,0.3-0.8,0.6-1.1,1l-0.2,0.2l-0.9,0.8l0,0l-0.9,0.9c-0.3,0.3-0.6,0.6-0.9,0.9l-0.9,0.9c-0.3,0.3-0.6,0.6-0.9,0.9
				l-0.8,0.9l-0.7,0.8c-0.5,0.5-0.9,1.1-1.3,1.7c-0.2,0.3-0.4,0.6-0.7,0.9c-0.5,0.6-1,1.3-1.4,2c-0.2,0.3-0.4,0.6-0.6,0.8
				c-1.2,1.7-2.2,3.5-3.2,5.4c-0.2,0.3-0.3,0.6-0.5,1s-0.3,0.6-0.4,0.9s-0.3,0.7-0.5,1.1s-0.3,0.7-0.4,1c-0.5,1.1-0.9,2.1-1.3,3.2
				c-0.1,0.4-0.3,0.8-0.4,1.2c-0.1,0.4-0.3,0.8-0.4,1.2s-0.2,0.7-0.3,1.1c-0.5,1.7-0.9,3.4-1.2,5.1c-0.1,0.4-0.1,0.8-0.2,1.2
				s-0.1,0.6-0.1,0.9c-0.1,0.5-0.2,1.1-0.2,1.7s-0.1,1.4-0.2,2c0,0.3,0,0.6,0,1s0,0.6,0,0.9s0,0.9,0,1.3v17.4c0,0.5,0,1,0,1.6
				s0,0.9,0.1,1.4c0,0.1,0,0.2,0,0.2c0,0.4,0,0.7,0.1,1.1c0,0.2,0,0.4,0.1,0.5c0,0.3,0.1,0.7,0.1,1s0.1,0.5,0.1,0.7
				c0,0.3,0.1,0.5,0.1,0.8c0,0.2,0.1,0.5,0.1,0.7s0.1,0.6,0.2,0.9c0,0.1,0,0.1,0,0.2c0.2,0.9,0.4,1.7,0.7,2.5c0,0.1,0.1,0.2,0.1,0.3
				c0.1,0.4,0.2,0.8,0.4,1.2c0.1,0.4,0.3,0.8,0.4,1.2s0.3,0.8,0.5,1.2s0.2,0.5,0.4,0.8c0.2,0.4,0.4,0.8,0.6,1.2s0.4,0.7,0.6,1
				s0.5,0.8,0.7,1.2s0.7,1,1,1.4l0.7,0.9l0.2,0.2c0.3,0.3,0.5,0.6,0.8,1s0.6,0.6,0.9,1l0.1,0.1c0.3,0.3,0.6,0.6,0.9,0.9l0.1,0.1
				c0.3,0.3,0.6,0.5,0.9,0.8c0,0,0.1,0.1,0.1,0.1c0.3,0.3,0.7,0.6,1.1,0.8l0,0c0.4,0.3,0.8,0.5,1.1,0.8s0.8,0.5,1.2,0.7l0,0
				c0.8,0.4,1.6,0.8,2.4,1.2c0.5,0.2,0.9,0.4,1.4,0.6s0.8,0.3,1.3,0.4s0.8,0.2,1.2,0.4l0.4,0.1c0.3,0.1,0.6,0.1,0.8,0.2
				c0.2,0.1,0.4,0.1,0.6,0.1l-68.7-9v-0.1c-0.9-0.1-1.8-0.2-2.7-0.4c-0.3-0.1-0.6-0.1-0.9-0.2c-0.1,0-0.3-0.1-0.4-0.1l-0.8-0.2
				l-0.6-0.2c-0.3-0.1-0.6-0.2-0.9-0.3l-0.2-0.1c-0.2-0.1-0.5-0.2-0.7-0.3s-0.6-0.2-0.9-0.4s-0.8-0.3-1.1-0.5s-0.6-0.3-0.9-0.5
				c-0.3-0.1-0.5-0.3-0.8-0.5c-0.3-0.2-0.7-0.4-1-0.6s-0.5-0.4-0.8-0.5l-0.3-0.2c-0.3-0.2-0.5-0.4-0.8-0.6c-0.1-0.1-0.2-0.2-0.3-0.2
				c-0.2-0.1-0.4-0.3-0.5-0.5s-0.4-0.4-0.6-0.5c-0.6-0.6-1.2-1.2-1.8-1.8c-0.3-0.4-0.6-0.7-0.9-1.1S6.3,426.5,6,426l-0.5-0.8
				c-0.3-0.4-0.5-0.8-0.8-1.2s-0.4-0.8-0.6-1.1s-0.3-0.5-0.4-0.7s-0.2-0.3-0.2-0.5s-0.3-0.5-0.4-0.8s-0.3-0.7-0.5-1.1
				s-0.3-0.8-0.5-1.2s-0.3-0.9-0.5-1.4c0-0.1-0.1-0.2-0.1-0.2c-0.1-0.4-0.2-0.7-0.3-1s-0.1-0.5-0.2-0.7s-0.1-0.4-0.1-0.6
				s-0.1-0.6-0.2-0.9s-0.1-0.7-0.2-1c0-0.1,0-0.2-0.1-0.4c-0.1-0.5-0.1-0.9-0.2-1.4c0-0.1,0-0.2,0-0.3c-0.1-0.5-0.1-1-0.2-1.5
				c0,0,0-0.1,0-0.1c0-0.3,0-0.6-0.1-1s0-0.6,0-0.9c0-0.6,0-1.1,0-1.7v-17.4c0-22.7,16.6-45.6,37.1-51.3l56.5-15.5
				c0.8-0.2,1.5-0.4,2.3-0.5s1.5-0.3,2.3-0.4c1.5-0.2,2.9-0.3,4.4-0.3c0.5,0,1,0,1.5,0s0.8,0,1.2,0.1l0.6,0.1l0.4,0
				c0.3,0,0.6,0.1,0.9,0.1h0.1l35.2,4.7L176.8,329.5z"/>
		</defs>
		<clipPath id="SVGID_2_">
			<use xlink:href="#SVGID_1_"  style="overflow:visible;"/>
		</clipPath>
		<g class="st13">
			<path class="st5" d="M5.2,413.1c2.1,0.9,4.2,1.8,6.3,2.7s4.2,1.9,6.2,2.9s4.1,1.9,6.2,2.9s4.1,2,6.1,3l-0.5-0.1
				c6.3-0.8,12.6-1.5,18.9-2.1c3.2-0.3,6.3-0.6,9.5-0.8s6.3-0.5,9.5-0.6c-3.1,0.6-6.2,1.1-9.4,1.6s-6.3,1-9.4,1.4
				c-6.3,0.9-12.6,1.6-18.9,2.3h-0.3l-0.2-0.1c-2-1-4-2.1-6.1-3.2s-4-2.2-6-3.2s-4-2.2-6-3.3S7.2,414.3,5.2,413.1z"/>
			<path class="st5" d="M5.2,389.8c2,0.9,4,2,6.1,3s4,2,6,3s4,2.1,6,3.1s4,2.1,5.9,3.2l-0.5-0.1c6.4-0.3,12.9-0.5,19.4-0.7
				c3.2-0.1,6.5-0.1,9.7-0.1s6.5,0,9.7,0.1c-3.2,0.4-6.4,0.6-9.7,0.9s-6.4,0.5-9.7,0.7c-6.4,0.4-12.9,0.7-19.4,0.9h-0.3l-0.2-0.1
				c-2-1.1-3.9-2.2-5.8-3.4s-3.9-2.3-5.8-3.4s-3.8-2.3-5.7-3.5S7.1,391.1,5.2,389.8z"/>
			<path class="st5" d="M9.3,368.7c2,0.9,3.9,2,5.8,3s3.9,2,5.8,3.1c3.8,2.1,7.6,4.2,11.4,6.4l-0.5-0.1c5.9-0.1,11.9-0.1,17.8-0.1
				c3,0,5.9,0.1,8.9,0.2s5.9,0.2,8.9,0.4c-3,0.3-5.9,0.4-8.9,0.6s-5.9,0.3-8.9,0.4c-5.9,0.2-11.8,0.3-17.8,0.3h-0.3l-0.2-0.1
				c-3.7-2.2-7.4-4.5-11.1-6.8c-1.8-1.2-3.7-2.3-5.5-3.5S11.1,370,9.3,368.7z"/>
			<path class="st5" d="M19.1,348.9c2,1,3.9,2,5.8,3s3.9,2,5.8,3.1c3.8,2.1,7.6,4.2,11.4,6.4l-0.5-0.1c5.9-0.1,11.8-0.1,17.8-0.1
				c3,0,5.9,0.1,8.9,0.2s5.9,0.2,8.9,0.4c-3,0.3-5.9,0.4-8.9,0.6s-5.9,0.3-8.9,0.4c-5.9,0.2-11.9,0.3-17.8,0.3h-0.3l-0.2-0.1
				c-3.7-2.2-7.5-4.5-11.1-6.8c-1.8-1.2-3.7-2.3-5.5-3.5S20.9,350.1,19.1,348.9z"/>
			<path class="st5" d="M40.9,333c1.7,0.8,3.3,1.6,5,2.4s3.3,1.7,4.9,2.5c3.2,1.7,6.4,3.5,9.6,5.3l-0.5-0.1
				c5.9-0.1,11.8-0.1,17.8-0.1c3,0,5.9,0.1,8.9,0.2s5.9,0.2,8.9,0.4c-3,0.3-5.9,0.4-8.9,0.6s-5.9,0.3-8.9,0.4
				c-5.9,0.2-11.8,0.3-17.8,0.3h-0.3l-0.2-0.1c-3.2-1.9-6.3-3.8-9.4-5.8c-1.5-1-3.1-2-4.6-3S42.4,334.1,40.9,333z"/>
			<path class="st5" d="M69.9,324.1c1.3,0.6,2.6,1.3,3.8,2s2.5,1.4,3.8,2.1s2.5,1.4,3.8,2.1l3.8,2.1l-0.2-0.1c3-0.1,5.9-0.1,8.9-0.1
				l8.9,0c5.9,0,11.8,0,17.8,0.2c-5.9,0.3-11.8,0.5-17.8,0.6l-8.9,0.2c-3,0.1-5.9,0.1-8.9,0.1h-0.1l-0.1-0.1l-3.7-2.2
				c-1.2-0.7-2.5-1.5-3.7-2.3s-2.5-1.5-3.7-2.3S71.1,324.9,69.9,324.1z"/>
		</g>
	</g>
</g>
<g id="head">
	<path class="st1" d="M72.3,27.6c-5.7-5.5-9.2-12.8-9.9-20.7c-0.1-1-0.3-2.3-1.3-2.4c-0.6,0-1.1,0.3-1.5,0.8
		c-5.2,5.3-10,11-14.2,17.1c1.7,1,3.7-0.2,5.3-1.4s3.5-2.5,5.3-1.7c1,0.6,1.8,1.6,2.3,2.7l6.7,12.5L72.3,27.6z"/>
	<path class="st1" d="M173.2,35.9c7.2-4.6,12.5-11.7,14.9-20c0.3-1,0.8-2.3,1.9-2.3c0.7,0.1,1.2,0.5,1.5,1.1
		c4.9,6.4,9.1,13.3,12.7,20.4c-2.1,0.7-4.2-0.9-5.7-2.4s-3.5-3.3-5.6-2.7c-1.2,0.5-2.3,1.3-3.1,2.5l-9.9,11.9L173.2,35.9z"/>
	<path class="st0" d="M243.4,79.8c-6-8.9-18-10.3-27.4-14.9c-29.2-14.3-35.9-56.5-69.8-62.3l-1.7-0.2l-17.2-0.5L99.5,0
		c-0.5,0-1.1,0-1.6,0c-32.5,1.2-36,40.4-63.5,49c-8.5,2.7-18.6,2-24.8,9c-9,10.1-2.3,28,8.2,36s14.7,10.4,25.1,19.3
		c9.3,7.9,15.3,19.8,23.3,29.5c3,3.8,6.2,7.4,9.6,10.8c4.3,4.2,10,6.8,16,7.3l27.3,1.9c0.9,0,1.7,0,2.6,0h0.1
		c2.7,0.2,12.6-0.1,15.2-0.9c5.5-1.7,10.7-5.5,15.5-9.1c10.3-7.7,18.8-18.3,30.5-24c13.3-6.6,29.2-6.2,43.1-12.1
		C240.3,110.7,252.1,92.8,243.4,79.8z"/>
	<path class="st14" d="M145.9,74.1c-2.3,25.6-23.7,44-47.5,41.3c-23.2-2.7-40-24.9-37.8-49.5c0.2-2.3,0.6-4.5,1.1-6.7
		c4.9-21.2,23.6-36.3,44.8-34.7c21.6,1.7,38.2,20.1,39.4,42.6C146.1,69.4,146.1,71.7,145.9,74.1z"/>
	<path class="st1" d="M122.9,128.7c-3.5,3.3-7.8,5.7-12.5,7.1c-4.7,1.4-9.7,1.7-14.5,1c-4.9-0.5-9.6-2-13.8-4.5
		c-4.2-2.4-7.8-5.7-10.5-9.8c3.6,3,7.5,5.5,11.7,7.4c4.1,1.9,8.5,3,13,3.5c4.5,0.7,9,0.6,13.5-0.2
		C114.4,132.3,118.8,130.8,122.9,128.7z"/>
	<path class="st15" d="M143.9,72.1c-2.2,25.1-23.3,43.3-46.6,40.6C74.4,110,58,88.3,60.1,64c0.2-2.2,0.6-4.4,1.1-6.6
		c4.8-20.8,23.2-35.7,44-34.1c21.2,1.6,37.6,19.7,38.8,41.8C144.1,67.4,144.1,69.8,143.9,72.1z"/>
	<path class="st16" d="M76.8,65.6C78,51.2,90,40.4,103.6,41.5c13.8,1.2,24,14.1,22.7,28.8s-13.7,25.5-27.4,24
		C85.3,93,75.5,80.1,76.8,65.6z"/>
	<path class="st17" d="M84.8,66.4c0.9-9.7,8.9-16.9,18.1-16.1s16,9.5,15.2,19.3s-9.1,17.1-18.3,16.1S83.9,76.1,84.8,66.4z"/>
	<path class="st1" d="M59.2,56.4c13-50.6,82.9-45.7,87.1,8.1c0.1,1-0.6,1.9-1.6,2c-0.3,0-0.7,0-1-0.2c-26.2-13.3-55.6-15.9-82.4-7.7
		c-0.9,0.2-1.9-0.3-2.1-1.3C59.1,57,59.1,56.7,59.2,56.4z"/>
</g>
<g id="r-arm">
	<path class="st0" d="M153.8,221.4c-2.1-3.4-1.1-7.8,2.2-10.1c3.3-2.2,7.9-1.1,10.2,2.7L153.8,221.4z"/>
	<path class="st0" d="M173.5,228.1l-13.1,5.9c-0.4-1.1-1-2.1-1.5-3.2l-1.6-3.2c-1.1-2.1-2.3-4.1-3.5-6.2l12.3-7.4
		c1.3,2.3,2.6,4.6,3.9,6.9l1.8,3.6C172.4,225.7,173,226.9,173.5,228.1z"/>
	<path class="st1" d="M156.9,226.8c1.2-0.2,2.4-0.5,3.6-0.8c1.1-0.4,2.2-0.8,3.3-1.4c1.1-0.6,2.1-1.2,3-2c0.9-0.8,1.9-1.6,2.8-2.5
		c-0.3,1.3-1,2.6-1.9,3.6c-0.9,1-1.9,1.9-3.1,2.5c-1.2,0.6-2.5,1-3.9,1.1c-0.7,0.1-1.3,0.1-2,0C158.1,227.3,157.5,227.1,156.9,226.8
		z"/>
	<path class="st0" d="M179.1,243.1l-13.8,4.2c-1.4-4.5-3-8.9-5-13.2l13.1-5.9C175.7,233,177.6,238,179.1,243.1z"/>
	<path class="st1" d="M162.8,239.7c1.2,0,2.5-0.2,3.7-0.4c1.2-0.2,2.3-0.6,3.4-1c1.1-0.4,2.2-1,3.2-1.6c1-0.6,2-1.4,3.1-2.2
		c-0.5,1.3-1.3,2.4-2.3,3.4c-1,0.9-2.1,1.7-3.4,2.1c-1.3,0.5-2.6,0.7-4,0.7c-0.7,0-1.3-0.1-2-0.3C163.9,240.3,163.3,240,162.8,239.7
		z"/>
	<path class="st0" d="M182.8,258.7l-14.2,2.3l-0.6-3.5c-0.2-1.2-0.5-2.3-0.8-3.4l-0.8-3.4l-1-3.4l13.8-4.2l1.1,3.9l0.9,3.9
		c0.3,1.3,0.7,2.6,0.9,3.9L182.8,258.7z"/>
	<path class="st1" d="M167,253.2c1.2,0.1,2.5,0.2,3.7,0.1c1.2-0.1,2.4-0.2,3.5-0.5c1.2-0.3,2.3-0.7,3.4-1.2c1.1-0.5,2.2-1.1,3.4-1.7
		c-0.7,1.2-1.6,2.2-2.7,3c-1.1,0.8-2.3,1.4-3.6,1.7c-1.3,0.3-2.7,0.3-4,0.1c-0.7-0.1-1.3-0.3-1.9-0.5
		C168.1,253.9,167.5,253.6,167,253.2z"/>
	<path class="st0" d="M184.1,274.8l-14.4,0.1c0-1.2-0.1-2.3-0.1-3.5s-0.1-2.3-0.2-3.5l-0.4-3.5l-0.2-1.7l-0.3-1.7l14.2-2.2l0.3,2
		l0.2,2l0.4,4c0.1,1.3,0.1,2.7,0.2,4S184.1,273.5,184.1,274.8z"/>
	<path class="st1" d="M169.3,267c1.2,0.3,2.4,0.5,3.7,0.6c1.2,0.1,2.4,0.1,3.6,0c1.2-0.1,2.4-0.4,3.5-0.7c1.2-0.3,2.3-0.8,3.6-1.2
		c-0.8,1.1-1.8,2-3.1,2.6c-1.2,0.6-2.5,1-3.9,1.1c-1.4,0.1-2.7,0-4-0.5c-0.6-0.2-1.2-0.5-1.8-0.8C170.3,267.9,169.8,267.5,169.3,267
		z"/>
	<path class="st0" d="M182.9,290.9l-14.2-2.2c0.7-4.6,1-9.2,1-13.9l14.4-0.1C184.1,280.2,183.7,285.6,182.9,290.9z"/>
	<path class="st1" d="M169.5,281c1.1,0.5,2.3,0.9,3.5,1.2c1.2,0.3,2.3,0.5,3.5,0.5c1.2,0.1,2.4,0,3.6-0.1c1.2-0.1,2.4-0.4,3.8-0.7
		c-1,1-2.2,1.7-3.5,2.1c-1.3,0.4-2.6,0.6-4,0.5c-1.4-0.1-2.7-0.5-3.9-1.1c-0.6-0.3-1.2-0.7-1.7-1.1C170.3,282,169.9,281.5,169.5,281
		z"/>
	<path class="st0" d="M179.2,306.7l-13.7-4.4c0.6-2.2,1.4-4.4,1.8-6.7l0.8-3.4c0.2-1.1,0.4-2.3,0.6-3.4l14.2,2.2
		c-0.2,1.3-0.4,2.7-0.6,4l-0.9,4C180.8,301.5,179.9,304.1,179.2,306.7z"/>
	<path class="st1" d="M167.5,294.7c1.1,0.7,2.2,1.2,3.3,1.7c2.2,0.9,4.6,1.4,6.9,1.5c1.2,0,2.5,0,3.8-0.1c-1.1,0.8-2.4,1.3-3.7,1.6
		c-1.3,0.2-2.7,0.2-4-0.1c-1.3-0.3-2.6-0.9-3.7-1.7c-0.5-0.4-1.1-0.8-1.5-1.3C168.2,295.9,167.8,295.3,167.5,294.7z"/>
	<path class="st0" d="M179.2,306.7c-0.3,1-0.8,2-1.5,2.8c-0.6,0.8-1.4,1.4-2.3,1.9c-1.7,0.9-3.7,1-5.5,0.3c-1.8-0.7-3.2-2.1-4-3.9
		c-0.4-0.8-0.6-1.7-0.7-2.6c0-0.9,0.1-1.9,0.3-2.8L179.2,306.7z"/>
</g>
<path id="r-hand" class="st0" d="M149.7,307.6c-1.4,0.8-2.9,1.9-3.1,3.5c-0.3,2.6,3,4.2,5.6,3.8s4.9-1.9,7.5-2.2
	c1.3-0.1,2.8,0.2,3.4,1.4s0,2.5-0.5,3.6l-4.9,10c-0.7,1.2-1.1,2.6-1.2,4c-0.1,1.5,0.9,2.7,2.3,3.1c1.6,0.2,2.9-1.4,3.8-2.7l6.4-9.9
	c0.5-0.9,1.3-1.7,2.3-2c2.1-0.4,3.2,2.4,2.9,4.5s-1.2,4.4,0,6.1s4.2,1.8,5.8,0.4s2.3-3.7,2.5-5.9c0.6-8.4-4.6-15.4-11.6-19.3
	C164.2,302.2,156.1,304.1,149.7,307.6z"/>
</svg>
