<?xml version="1.0" encoding="utf-8"?>
<!-- Generator: Adobe Illustrator 25.2.0, SVG Export Plug-In . SVG Version: 6.00 Build 0)  -->
<svg version="1.1" id="Layer_1" xmlns="http://www.w3.org/2000/svg" xmlns:xlink="http://www.w3.org/1999/xlink" x="0px" y="0px"
	 viewBox="0 0 223.4 469.3" style="enable-background:new 0 0 223.4 469.3;" xml:space="preserve">
<style type="text/css">
	.st0{fill:#44F5A0;}
	.st1{clip-path:url(#SVGID_2_);}
	.st2{fill:#F7EC17;}
	.st3{fill:none;stroke:#DDCD00;stroke-width:0.95;stroke-miterlimit:10;}
	.st4{fill:#33D08C;}
	.st5{fill:#721267;}
	.st6{fill:#DDCD00;}
	.st7{fill:#1B8B79;}
	.st8{fill:none;stroke:#33D08C;stroke-width:1.02;stroke-linecap:round;stroke-miterlimit:10;}
	.st9{fill:#891B6A;}
	.st10{clip-path:url(#SVGID_4_);}
	.st11{fill:#AA1A88;}
	.st12{clip-path:url(#SVGID_6_);}
	.st13{clip-path:url(#SVGID_8_);}
	.st14{clip-path:url(#SVGID_10_);}
	.st15{fill:#F5FAFF;}
	.st16{fill:#9629FF;}
	.st17{fill:#022538;}
	.st18{clip-path:url(#SVGID_12_);}
	.st19{fill:none;stroke:#33D08C;stroke-miterlimit:10;}
</style>
<path id="b-arm" class="st0" d="M150.4,112.3c-0.3,0.2-0.7,0.3-1.1,0.4c-6,1.6-12,3.4-18,5.2l-8.9,2.8l-8.9,2.8
	c-5.9,2-11.8,3.9-17.7,6c-5.9,2.1-11.7,4.4-17.3,7c-3.3,1.6-7.3-0.1-9.3-3.7c-0.2-0.3-0.3-0.6-0.4-0.9c-1.9-4.2-0.5-8.9,3.1-10.6
	c0.4-0.2,0.7-0.3,1.1-0.4c6.1-1.5,12-3.5,17.8-5.5s11.7-4.4,17.5-6.6l8.7-3.4l8.6-3.5c5.8-2.4,11.5-4.8,17.1-7.4
	c4.2-1.9,9.3,0.6,11.4,5.5c0.4,1,0.7,2.1,0.9,3.2C155.5,107.1,153.7,110.8,150.4,112.3z"/>
<g id="b-forearm">
	<g>
		<g>
			<defs>
				<path id="SVGID_1_" d="M88.9,140.2c0,0-24,15.9-59.9,1.4c-11.2-4.5-10.3-10.1-9.7-13.4c1.5-7.5,18.5-10.4,21.1-10.9
					c3.8-0.7,20-5.2,27.2-7.3c9.4-2.7,17-2,23.7,1.7c3.9,2.2,6.2,3,8.8,10.5C102.7,129.7,88.5,130.7,88.9,140.2z"/>
			</defs>
			<clipPath id="SVGID_2_">
				<use xlink:href="#SVGID_1_"  style="overflow:visible;"/>
			</clipPath>
			<g class="st1">
				
					<rect x="40.3" y="84.5" transform="matrix(5.410372e-03 -1 1 5.410372e-03 -65.5678 189.2128)" class="st2" width="44.1" height="86.1"/>
				<path class="st3" d="M106,122.3c0,0-21.7-9-37-5c-13,3.4-24.8,7.3-31.4,8.3c-6.1,0.9-20.3,6.9-20.3,6.9l4.8-27.8l60.9-3.9
					l20,8.1L106,122.3z"/>
			</g>
		</g>
	</g>
</g>
<g id="b-hand">
	<path class="st0" d="M19.4,148.2c-3.3-0.7-7.9-3.9-10.7-5.1c-1.5-0.7-2.8-2-3.5-3.5c-0.6-1-0.6-2.2,0-3.2c1.7-2.1,3.7-0.5,6.8,1.4
		s4.3,1.2,4.3,1.2S22,148.8,19.4,148.2z"/>
	<path class="st4" d="M13.7,142.6l-8.5-3.1c-0.6-1-0.6-2.2,0-3.2L13.7,142.6z"/>
	<path class="st0" d="M33.5,121.7c0,0-0.5,0-1.2,0c-3.3,0-12.6,0.3-17.3,2.9c-5.8,3.2-6,15.7,0.4,21.2s14.1,3.1,18.3,0.3
		s7.3-14.6,7.5-18.8C39.2,123.1,33.5,121.7,33.5,121.7z"/>
	<path class="st0" d="M17.3,143.2c-3.2,0.9-9.3-3.9-12.8-5.8s-5.6-6.9-3.8-8.8c0.1-0.1,0.2-0.2,0.4-0.3c2.2-1.9,4.6,0.2,8,2.7
		c0.9,0.7,1.9,1.2,3,1.6c0.8,0.4,1.6,0.5,2.4,0.3C14.5,133,20.5,142.4,17.3,143.2z"/>
	<path class="st0" d="M20.4,116c-5.1-1.9-10.3-2.9-9.7,1.1s8.1,5.9,10.3,8s6.4,4.3,9,3.6s6.5-4.5,3.5-7
		C30.2,118.9,20.4,116,20.4,116z"/>
	<path class="st4" d="M15.1,135c0,0-2.1,0.9-6.3-1c-2.8-1.5-5.4-3.4-7.7-5.6c2.2-1.9,4.6,0.2,8,2.7c0.9,0.7,1.9,1.2,3,1.6L15.1,135z
		"/>
	<path class="st0" d="M14.8,125c0,0-1.7,0.6-5.4-2s-6.1-4.8-8.4-2.4c-1.8,1.9,0.3,7,3.8,8.8c3.5,1.8,9.6,6.6,12.8,5.8
		S14.8,125,14.8,125z"/>
</g>
<g id="b-thigh">
	<path class="st5" d="M169.9,228.6c-12.9,52.4-15.7,86.3-15.7,86.3s-3.6,9.7-11.9,11.2c-12.3,2.2-15.2-10.8-15.2-10.8
		s-4.4-16.6-4.2-48.6c0.1-14.3,0.7-31.6,8.9-51.8c8.4-20.8,30.2-13,30.2-13S174.5,209.8,169.9,228.6z"/>
</g>
<g id="b-calf">
	<path class="st5" d="M172.3,426.2c0.1,3.5-37.8-1.1-37.8-1.1s-0.7-24.9-0.9-32.6c-0.8-28.2-6.4-76.5-6.4-76.5s18-5,22.1-5.2
		c2.1-0.1,3.9,0.2,4.3,1.3c10.3,23.8,10.5,35.4,11.3,51.9c0.5,13,2.1,25.9,4.6,38.6C171,410.1,172.3,425.9,172.3,426.2z"/>
	<path class="st6" d="M127.7,424.7c-4.5,7.9-46.3,7.6-40,28.2l18.4,0.5c0,0,13.3,3.9,19.1,3.1c15.6-2.2,13.4-4.5,34.1-7.8
		c0,0,22.2,2.7,28.4,1.9c4.3-0.6-0.2-8.2-7.3-11c-6.1-2.4-6.1-12.4-8.3-25.5c-4.5-26.8-7.4-51.1-7.2-50.1c0,0-18.4,12.2-31.4,28.6
		C132.5,401.2,134.1,413.5,127.7,424.7z"/>
</g>
<g id="tail">
	<path class="st7" d="M180.3,27.3L180.3,27.3v0.3c0,0.2,0,0.4,0,0.6c0,0.5,0.1,0.9,0.1,1.3c0.1,0.9,0.2,1.9,0.3,2.9
		c0.1,1,0.3,1.9,0.4,2.9s0.3,2,0.5,3c0.8,4,1.9,7.9,3.2,11.7c0.3,1,0.7,1.9,1.1,2.8s0.7,1.9,1.1,2.8s0.9,1.8,1.3,2.8l0.6,1.4
		l0.7,1.3l1.4,2.7c0.5,0.9,1.1,1.7,1.6,2.6s1,1.8,1.7,2.6l1.9,2.5c1.2,1.7,2.6,3.3,4,4.8l1,1.2l1.3,1.4l2.6,2.8
		c0.9,0.9,1.7,1.9,2.5,2.9l2.4,3c0.8,1,1.5,2.1,2.3,3.1s1.5,2.1,2.2,3.2c2.9,4.4,5.3,9.2,7,14.2c0.4,1.3,0.8,2.6,1.1,3.9
		s0.6,2.6,0.7,4c0.1,0.7,0.1,1.3,0.1,2s0.1,1.4,0,2c0,0.7-0.1,1.4-0.2,2.1c-0.1,0.8-0.3,1.5-0.5,2.2c-0.3,1-1.3,1.5-2.3,1.2l0,0
		c-0.5-0.1-0.9-0.5-1.1-0.9l-0.5-1c-0.1-0.3-0.3-0.9-0.4-1.3l-0.3-0.7l-0.3-0.7c-0.2-0.5-0.4-1-0.7-1.4s-0.5-0.9-0.8-1.4
		c-0.5-0.9-1.2-1.8-1.7-2.7c-0.3-0.4-0.7-0.9-1-1.3s-0.6-0.9-1-1.3c-2.8-3.4-6-6.4-9.3-9.2c-0.4-0.4-0.8-0.7-1.2-1.1l-1.3-1
		c-0.9-0.7-1.7-1.4-2.6-2.1c-1.9-1.3-3.5-2.7-5.4-3.9l-2.8-1.9c-0.5-0.3-0.9-0.6-1.4-1l-1.6-1.2c-2.2-1.6-4.3-3.3-6.3-5.1l-3-2.8
		c-1-0.9-1.9-2-2.8-3s-1.9-2-2.7-3.1l-2.5-3.2l-1.2-1.6l-1.1-1.7l-2.3-3.4c-0.7-1.2-1.4-2.4-2-3.6c-0.6-1.2-1.4-2.4-1.9-3.7
		s-1.2-2.5-1.8-3.7l-1.5-3.8c-0.5-1.3-0.9-2.6-1.4-3.9c-0.2-0.7-0.4-1.3-0.6-2l-0.6-2c-0.4-1.3-0.7-2.7-1-4s-0.6-2.7-0.8-4.1
		s-0.4-2.8-0.6-4.2c-0.1-0.7-0.1-1.5-0.2-2.2c0-0.3-0.1-0.8-0.1-1.2v-0.6v-0.8c-0.2-7.6,5.8-13.9,13.4-14.1
		c6.4-0.2,12.1,4.2,13.7,10.4L180.3,27.3z"/>
	<path class="st8" d="M180.3,32.7c0,0-1.6,0.7-4.1,1.5c-2.9,1.1-5.8,1.9-8.9,2.5c-3,0.5-6.1,0.7-9.2,0.6c-1.5-0.1-2.9-0.2-4.4-0.4"
		/>
	<path class="st8" d="M181.5,40.8c0,0-1.5,0.8-3.7,1.9c-2.6,1.3-5.4,2.5-8.2,3.4c-2.8,0.8-5.8,1.3-8.7,1.5c-1.4,0.1-2.8,0.1-4.2,0.1
		"/>
	<path class="st8" d="M183.6,49c0,0-1.3,1-3.3,2.3c-2.3,1.6-4.8,2.9-7.3,4.1c-2.6,1.1-5.3,1.8-8.1,2.3c-1.3,0.2-2.7,0.4-4,0.5"/>
	<path class="st8" d="M186.5,56.8c0,0-1.1,1.1-2.8,2.5c-2,1.7-4.1,3.3-6.3,4.7c-2.3,1.3-4.8,2.3-7.3,3c-1.2,0.4-2.5,0.6-3.8,0.8"/>
	<path class="st8" d="M190.3,64.4c0,0-0.9,1.2-2.3,2.7c-1.6,1.9-3.3,3.6-5.2,5.1c-3,2.1-6.3,3.7-9.9,4.7"/>
	<path class="st8" d="M195,71.5c0,0-0.7,1.2-1.7,2.8c-1.2,1.9-2.6,3.7-4.2,5.3c-1.6,1.5-3.5,2.9-5.5,3.9c-1,0.5-2,1-3,1.4"/>
	<path class="st8" d="M200.6,78.1l-0.3,0.8c-0.2,0.5-0.4,1.2-0.8,2c-0.8,1.9-1.9,3.7-3.2,5.3c-1.4,1.5-2.9,2.9-4.6,4
		c-0.7,0.5-1.4,0.9-1.8,1.2s-0.8,0.4-0.8,0.4"/>
	<path class="st8" d="M207.6,85.8c-0.3,0.9-0.6,1.7-1,2.6c-0.8,1.7-1.8,3.2-3.1,4.5s-2.8,2.3-4.5,3.2c-1.4,0.8-2.4,1.2-2.4,1.2"/>
	<path class="st8" d="M214,94.1c-0.3,0.8-0.6,1.5-1.1,2.2c-0.7,1.4-1.7,2.7-2.9,3.7c-1.3,1-2.7,1.7-4.2,2.2
		c-1.3,0.5-2.3,0.8-2.3,0.8"/>
	<path class="st8" d="M219.4,103.3c-0.3,0.7-0.6,1.3-1,1.9c-0.6,1.1-1.5,2.1-2.6,2.8c-1.1,0.6-2.4,1-3.7,1.1
		c-1.2,0.2-2.1,0.2-2.1,0.2"/>
	<path class="st8" d="M222.8,113.6c-0.3,0.5-0.6,1-0.9,1.4c-0.5,0.8-1.2,1.4-2.1,1.8c-0.9,0.2-1.8,0.1-2.7-0.1
		c-0.9-0.2-1.6-0.4-1.6-0.4"/>
</g>
<g id="torso">
	<path class="st9" d="M132.8,197.8c0,0-3.2,18.6,0,36.5c3.9,21.9,43.4,15.2,48.9,2.3c7-16.5-7-28.8-11.1-40
		C166.4,185,132.8,197.8,132.8,197.8z"/>
	<path class="st2" d="M156.7,111.9c-1.2,9.3-6.8,17.5-14.9,22.1c-6.1-3.2-14-9.4-16.3-21.1s6.4-19.1,15-19.4
		S158.4,100.1,156.7,111.9z"/>
	<g>
		<g>
			<defs>
				<path id="SVGID_3_" d="M171.3,192.9c-7,23.1-21.6,11.4-35.5,23.9c-4.1-14.7-5.1-43.1-7.7-56c-3.1-7.4-10.1-26,13.3-64.4
					c14.3-6.1,14.3-9.4,30.1-4.2C191.1,120.1,178.6,170.5,171.3,192.9z"/>
			</defs>
			<clipPath id="SVGID_4_">
				<use xlink:href="#SVGID_3_"  style="overflow:visible;"/>
			</clipPath>
			<g class="st10">
				
					<rect x="111.5" y="89" transform="matrix(0.9995 -3.088812e-02 3.088812e-02 0.9995 -4.6435 4.7077)" class="st9" width="77.2" height="127.3"/>
				<path class="st11" d="M168.2,88.4c-2.9,2.5-21.8,12.7-26.7,40.9c-1.7,9.6-3.2,13.7-1.7,23.4c1.2,8.3-2.3,41.7-3.1,57
					c0,0-10.9-57.8-16-73.5S139,84.7,139,84.7L168.2,88.4z"/>
			</g>
		</g>
	</g>
	<path class="st6" d="M140,114.7c0,0-3.9-21.7,9.9-34.9s22.2-8.7,22.2-8.7l-5.3,17.3L140,114.7z"/>
	<path class="st4" d="M165.5,92.5c-3.8,2.2-7.4,4.7-10.9,7.4c-5.8,4.4-7.1,6.9-7.1,6.9s-2.2-4.4-4.2-18.2
		c-2.3-15.9-3.2-34.1-3.2-34.1l22.6-7.5c0,0-7.1,10.8-2.1,34.1C163.6,94.7,165.5,92.5,165.5,92.5z"/>
	<path class="st2" d="M140,114.7c0,0,2.1-26.2,21.9-38.9c19.4-12.5,7,2,9.6,16.5C160.5,99.1,150,106.6,140,114.7z"/>
	<path class="st2" d="M184.4,111.1c-1.2,9.3-6.8,17.5-14.9,22.1c-6.1-3.2-14-9.5-16.3-21.2s6.4-19.1,15-19.4S186.1,99.3,184.4,111.1
		z"/>
	<path class="st6" d="M180.6,116.2c-1.4,9.3-6.7,14.5-11.1,17.1c-6.1-3.7-10.1-10-11.1-17.1c-1.4-9.3,3.2-14.9,11.1-14.9
		S182,107,180.6,116.2z"/>
	<path class="st0" d="M179.4,110.8c0,0.4,0,0.8,0,1.1c-0.7,6.2-1.3,12.5-1.9,18.7l-0.7,9.4l-0.6,9.4c-0.4,6.2-0.8,12.5-1,18.8
		s-0.2,12.5,0.1,18.8c0.2,3.7-2.8,6.8-6.9,7.4c-0.3,0.1-0.7,0.1-1,0.1c-4.6,0.2-8.5-2.9-8.8-6.8c0-0.4,0-0.8,0-1.2
		c0.8-6.2,1.2-12.5,1.5-18.7s0.3-12.5,0.4-18.8v-9.4l-0.1-9.4c-0.1-6.3-0.2-12.5-0.5-18.8c-0.2-4.6,4-8.5,9.4-8.7
		c1.1,0,2.2,0.1,3.3,0.4C176.3,104.1,179.2,107.1,179.4,110.8z"/>
</g>
<g id="f-calf">
	<path class="st9" d="M187,433c0.2,3.5-37.9-0.5-37.9-0.5s-1.1-24.9-1.4-32.6c-1.2-28.2-7.7-76.4-7.7-76.4s17.9-5.3,22-5.6
		c2.1-0.1,3.9,0.1,4.4,1.2c10.7,23.6,11.1,35.2,12.2,51.6c0.7,13,2.5,25.9,5.3,38.5C185.5,416.9,187,432.7,187,433z"/>
	<path class="st2" d="M142.4,432.2c-4.3,8-46.1,8.4-39.5,28.9l18.4,0.2c0,2.1,0.2,4.3,0.5,6.4c0.5,2.3,11.8,1.6,17.6,0.7
		c15.6-2.4,14.4-9,35.1-12.8c0,0,22.3,2.3,28.4,1.4c4.3-0.6-0.4-8.2-7.5-10.8c-6.2-2.3-6.3-12.3-8.7-25.4c-4.9-26.7-8.3-51-8.1-50
		c0,0-18.2,12.6-30.9,29.1C146.8,408.7,148.6,421,142.4,432.2z"/>
</g>
<g id="f-thigh">
	<path class="st9" d="M182.7,236c-12.9,52.4-15.7,86.3-15.7,86.3s-3.6,9.7-11.9,11.2c-12.3,2.2-15.2-10.8-15.2-10.8
		s-4.4-16.6-4.2-48.6c0.1-14.3,0.7-31.6,8.9-51.8c8.4-20.8,30.2-13,30.2-13S187.3,217.1,182.7,236z"/>
	<path class="st0" d="M162.6,215.1c0,0,5.1,24.4,4.8,33.5s-2.5,6.2-3.5,10.4s-0.2,5-1.4,13.3c-0.6,4.2-2.7,3.6-4.6,2
		c0.2,3.6,0.1,7.1-0.6,8.7c-1.6,3.9-5.3-1.2-5.3-1.2l2.9-10.7c-0.3-0.4-0.5-0.7-0.5-0.7L162.6,215.1z"/>
</g>
<g id="f-forearm">
	<g>
		<g>
			<defs>
				<path id="SVGID_5_" d="M171.9,192.3c0,0-24.9,14.8-60.3-1.7c-11.1-5.1-9.9-10.6-9-14c1.8-7.4,19.2-9.5,21.8-9.9
					c3.8-0.5,20.4-4.2,27.8-5.9c9.6-2.2,11.1,2.2,17.6,6.2c3.8,2.4,12.1,0.1,14.3,7.8S180,185.6,171.9,192.3z"/>
			</defs>
			<clipPath id="SVGID_6_">
				<use xlink:href="#SVGID_5_"  style="overflow:visible;"/>
			</clipPath>
			<g class="st12">
				
					<rect x="123.6" y="135" transform="matrix(5.634498e-02 -0.9984 0.9984 5.634498e-02 -40.4262 313.8274)" class="st2" width="44.5" height="86.7"/>
				<path class="st3" d="M190.1,175.2c-9.4-0.7-18.8-0.1-28,1.8c-13.2,2.7-25.7,3.7-41-2.1c-5.8-2.2-20.8,5.9-20.8,5.9l6.3-27.7
					l61.4-0.8l19.8,9.2L190.1,175.2z"/>
			</g>
		</g>
	</g>
</g>
<g id="f-hand">
	<path class="st0" d="M101.6,196.8c-3.3-0.9-7.7-4.4-10.5-5.7c-1.5-0.8-2.7-2.1-3.3-3.7c-0.6-1-0.5-2.2,0.1-3.2
		c1.8-2,3.8-0.3,6.7,1.7s4.3,1.5,4.3,1.5S104.2,197.5,101.6,196.8z"/>
	<path class="st4" d="M96.2,190.9l-8.4-3.5c-0.6-1-0.5-2.2,0.1-3.2L96.2,190.9z"/>
	<path class="st0" d="M117.2,170.9c0,0-0.4,0-1.2-0.1c-3.3-0.2-12.7-0.4-17.6,2c-6,2.9-6.8,15.5-0.7,21.4s14.1,3.8,18.4,1.2
		s8.1-14.4,8.5-18.6C122.8,172.6,117.2,170.9,117.2,170.9z"/>
	<path class="st0" d="M99.8,191.7c-3.3,0.7-9.1-4.4-12.5-6.4s-5.2-7.2-3.4-9c0.1-0.1,0.2-0.2,0.4-0.3c2.3-1.8,4.6,0.5,7.9,3.1
		c0.9,0.7,1.8,1.3,2.9,1.8c0.7,0.4,1.6,0.6,2.4,0.4C97.5,181.3,103.1,191,99.8,191.7z"/>
	<path class="st0" d="M104.3,164.4c-5.1-2.2-10.2-3.5-9.8,0.6s7.8,6.4,10,8.6s6.2,4.7,8.9,4.1s6.8-4.2,3.9-6.8
		C114,167.9,104.3,164.4,104.3,164.4z"/>
	<path class="st4" d="M98,183.3c0,0-2.2,0.8-6.3-1.4c-2.7-1.7-5.2-3.7-7.4-6.1c2.3-1.8,4.6,0.5,7.9,3.1c0.9,0.7,1.8,1.3,2.9,1.8
		L98,183.3z"/>
	<path class="st0" d="M98.2,173.2c0,0-1.8,0.5-5.3-2.3s-5.9-5.2-8.3-2.8c-1.9,1.8-0.1,7,3.3,9s9.3,7.1,12.6,6.4
		S98.2,173.2,98.2,173.2z"/>
</g>
<g id="head">
	<g>
		<g>
			<defs>
				<path id="SVGID_7_" d="M181.6,28.5c-0.3,10.6-15.6,22.3-28.8,26c-2.5,0.7-6.3,12.9-12.1,20.2c-4.3,5.4-7.9,8.9-12.7,8.9
					c-4.8,0-6.5-2.1-8.6-8.5c-1.2-3.7-6.7-24.1-5.5-34.6c1.3-12.3,5.4-27.6,16.2-33.9c8.6-5.1,16.1-6.7,28.2-6.6
					c7.3,0,15.4,3.8,19.1,9.6C181,15.1,181.7,22.1,181.6,28.5z"/>
			</defs>
			<clipPath id="SVGID_8_">
				<use xlink:href="#SVGID_7_"  style="overflow:visible;"/>
			</clipPath>
			<g class="st13">
				<rect x="99.6" y="-1.2" class="st0" width="87.4" height="88.5"/>
				<path class="st7" d="M124.3,68.6c-2,0.8-4.1,1.2-6.2,1.3c-2.2-0.1-4.4-0.5-6.5-1.3H124.3z"/>
				<path class="st4" d="M129.3,34.8c-1.6-1.4-3.3-2.4-4.9-2.3c-0.8,0.1-1.7,0.3-2.4,0.7c-0.4,0.2-0.8,0.4-1.2,0.7s-0.8,0.5-1.2,0.8
					l-0.1,0.1c-0.6,0.3-1.3,0-1.6-0.6c-0.2-0.5-0.1-1,0.2-1.3c0.4-0.4,0.9-0.7,1.3-1c0.5-0.3,1-0.6,1.5-0.8c1.1-0.5,2.4-0.7,3.6-0.6
					c1.2,0.1,2.4,0.7,3.2,1.5C128.6,32.7,129.1,33.7,129.3,34.8z"/>
				<g>
					<g>
						<defs>
							<path id="SVGID_9_" d="M119.3,42.9c-1,4.3-0.8,8.1,0.2,10c1.9,0.3,4.2-0.2,6.1-4.2c1.3-2.8,2-8.4,0.3-11.6
								C124.4,35.9,120.3,38.7,119.3,42.9z"/>
						</defs>
						<clipPath id="SVGID_10_">
							<use xlink:href="#SVGID_9_"  style="overflow:visible;"/>
						</clipPath>
						<g class="st14">
							<rect x="117" y="34.6" class="st15" width="10.9" height="20.1"/>
							<ellipse class="st16" cx="121.8" cy="46.6" rx="2.8" ry="7"/>
							<ellipse cx="121.8" cy="46.6" rx="1.4" ry="3.5"/>
							<path class="st17" d="M119.4,54.6c0,0-3.5-9.1,1.4-14.3c0.6-0.7,2.7-2.4,3.7-1.7c0,0,1.6,1.3,1.7,4.6
								c-0.1,2.8-0.6,5.6-1.6,8.2l2.8-2l1.4-20.6l-8.5,0.8L116.1,53L119.4,54.6z"/>
						</g>
					</g>
				</g>
				<path class="st2" d="M103.2,3.4c-0.2,0.6-0.1,1.3,0.2,1.9c0.4,0.9,0.8,1.8,1.4,2.7c1.3,1.8,2.7,3.5,4.3,5.1
					c1.6,1.6,3.3,3.2,5.1,4.7s3.6,3,5.4,4.3l0,0l-6.8-0.2c1.3-1,2.4-1.8,3.6-2.6s2.4-1.6,3.6-2.3c2.4-1.5,4.8-2.9,7.3-4.2
					c5-2.7,10.2-4.9,15.6-6.7c5.4-1.8,11-3,16.7-3.5s11.5,0.1,16.9,1.8h0.1c0.9,0.3,1.5,1.3,1.2,2.2s-1.3,1.5-2.2,1.2l0,0
					c-5.1-1.2-10.3-1.5-15.5-0.8s-10.4,2-15.3,4c-5,1.9-9.8,4.3-14.3,7c-4.6,2.7-9,5.8-13.1,9.2l-1.2,1l-1.1-1.1l0,0
					c-1.8-1.7-3.5-3.5-5.1-5.2s-3.2-3.7-4.8-5.6c-1.6-2-3-4.1-4.1-6.3c-0.6-1.2-1.1-2.5-1.4-3.8c-0.2-0.8-0.2-1.6-0.1-2.4
					c0.1-0.9,0.5-1.8,1-2.5c0.6-0.8,1.6-1,2.4-0.4c0.7,0.5,0.9,1.4,0.6,2.1L103.2,3.4z"/>
			</g>
		</g>
	</g>
	<g>
		<g>
			<defs>
				<path id="SVGID_11_" d="M139.8,34.9c0,0,30.4-2.7,41.5-13.5c-0.2-2.3-0.7-4.6-1.4-6.8c0,0,13.6,3,11.9,14
					c-1.4,9-19.7,12.2-28.7,12.4C154.9,41.2,143.8,38.8,139.8,34.9z"/>
			</defs>
			<clipPath id="SVGID_12_">
				<use xlink:href="#SVGID_11_"  style="overflow:visible;"/>
			</clipPath>
			<g class="st18">
				<path class="st7" d="M136.4,33.6l40.7-11.8l3.1-11.3L196.7,22c0,0,7.4,18.3-15.7,21.1S139.3,39.7,136.4,33.6z"/>
				<path class="st19" d="M151.4,31.9c0,0,8.6-1.3,9.5,5.1s-8,6-8,6"/>
				<path class="st19" d="M167.2,28.2c0,0,8.6-1.3,9.4,5.1s-8.3,8.4-8.3,8.4"/>
				<path class="st19" d="M177.4,23.7c0,0,9.7-3.4,11.7,2.8c2.3,7.2-6.6,11.5-6.6,11.5"/>
				<path class="st19" d="M178.8,19.9c0,0,2-2.7,4.9-2.7c3.7,0,7,2.2,8.4,5.6"/>
			</g>
		</g>
	</g>
</g>
</svg>
