<?xml version="1.0" encoding="utf-8"?>
<!-- Generator: Adobe Illustrator 26.0.0, SVG Export Plug-In . SVG Version: 6.00 Build 0)  -->
<svg version="1.1" id="Layer_1" xmlns="http://www.w3.org/2000/svg" xmlns:xlink="http://www.w3.org/1999/xlink" x="0px" y="0px"
	 viewBox="0 0 699.4 1597.7" style="enable-background:new 0 0 699.4 1597.7;" xml:space="preserve">
<style type="text/css">
	.st0{fill:#44F5A0;}
	.st1{clip-path:url(#SVGID_00000125575805348670466280000000050517376231912613_);}
	.st2{fill:#F7EC17;}
	.st3{fill:none;stroke:#DDCD00;stroke-width:0.3411;stroke-miterlimit:10;}
	.st4{fill:#33D08C;}
	.st5{fill:#891B6A;}
	.st6{fill:none;stroke:#DDCD00;stroke-width:0.3591;stroke-miterlimit:10;}
	.st7{fill:#1B8B79;}
	.st8{fill:none;stroke:#33D08C;stroke-width:0.4524;stroke-linecap:round;stroke-miterlimit:10;}
	.st9{fill:#AA1A88;}
	.st10{fill:#C1983D;}
	.st11{fill:#520551;}
	.st12{clip-path:url(#SVGID_00000177483627084354692510000015413076275428527550_);}
	.st13{clip-path:url(#SVGID_00000117653172033950667440000012130550604651464881_);}
	.st14{fill:#F5FAFF;}
	.st15{fill:#9629FF;}
	.st16{fill:#023533;}
	.st17{clip-path:url(#SVGID_00000033344879011408590790000012195710466404671393_);}
	.st18{clip-path:url(#SVGID_00000178923106896318189860000000965616004923858582_);}
	.st19{fill:none;stroke:#33D08C;stroke-width:0.3591;stroke-miterlimit:10;}
	.st20{clip-path:url(#SVGID_00000029015254055659006090000017232855409197331886_);}
	.st21{clip-path:url(#SVGID_00000065778935920847162640000006729741988559975063_);}
</style>
<g>
	<g transform="translate(-16 -880)">
		<g>
			<g>
				<g>
					<g>
						<g>
							<g>
								<path class="st0" d="M442,1259.6c0.3,1,1,2.4,1.7,3.4c10.6,18.8,20.8,37.6,30.6,56.4l14.6,28.7l14.6,28.7
									c9.5,19.2,19.1,38.3,27.9,57.8c8.9,19.5,17.4,39.3,24.5,59.5c4.1,12,17.7,17.8,31.7,14c1-0.3,2-0.7,3.1-1
									c14.6-5.5,22.8-20.5,18.4-33.2c-0.3-1.4-1-2.4-1.7-3.8c-10.9-18.5-20.4-37.6-29.6-57.1c-9.2-19.5-17.4-39-26.2-58.8
									l-12.6-29.4l-12.3-29.8c-8.2-19.8-16-39.7-23.5-59.8c-5.4-14.7-23.8-21.5-40.9-14.7c-3.4,1.4-6.8,3.1-9.9,5.5
									C442.7,1234.3,437.5,1248,442,1259.6z"/>
								<g>
									<defs>
										<path id="SVGID_1_" d="M587,1389.2c0,0,98.7,73.9,119.2,205.9c6.5,41.4-11.2,48.2-22.5,52.3
											c-24.5,8.9-63.3-36.3-69.5-43.1c-8.9-9.9-50.7-49.9-69.5-67.7c-24.5-22.9-46.6-64.3-36.1-91c0,0,35.4,25.6,52.8,4.8
											C578.8,1429.6,559.8,1407,587,1389.2z"/>
									</defs>
									<clipPath id="SVGID_00000039844069361550735450000011005306463675745675_">
										<use xlink:href="#SVGID_1_"  style="overflow:visible;"/>
									</clipPath>
									<g style="clip-path:url(#SVGID_00000039844069361550735450000011005306463675745675_);">
										<path class="st2" d="M465.8,1434.1l130.3-77.6l150.6,255l-130.3,77.6L465.8,1434.1z"/>
										<path class="st3" d="M545.1,1421c0,0-15.7,56.8,19.4,98.8c29.3,35.6,65.4,60.2,79.7,78c13.3,16.8,56.2,47.9,56.2,47.9
											l-90.2,34.9l-118.8-173l-11.2-73.5L545.1,1421z"/>
									</g>
								</g>
								<path class="st4" d="M687.4,1680.9c-3.4,4.1-5.4,8.9-5.8,14c0,6.8,2.4,10.3,5.8,10.3c3.4,0,16-16.1,16-16.1l-8.9-17.4
									L687.4,1680.9z"/>
								<path class="st0" d="M641.8,1695.3c10.9,6.8,12.9-3.1,15-18.1c1-8.2,8.2-9.9,15-7.2c8.9,3.4,14,19.5,14,28
									c0,12.3,6.5,15.7,13.6,12.3c8.9-4.1,6.8-22.6,6.8-22.6c2-4.1,3.7-7.5,5.1-10.6c3.7-8.5,4.4-14.4,4.4-27
									c0-19.2-3.4-42.1-8.9-54.7c-8.9-20.9-44.9-25.3-44.9-25.3C621.4,1621.1,624.1,1684.3,641.8,1695.3z"/>
								<path class="st4" d="M700,1645.7c3.7,13.3,5.8,27.4,5.8,41.4c2-4.1,3.7-7.5,5.1-10.6C709.2,1665.9,705.5,1655.3,700,1645.7z
									"/>
								<path class="st5" d="M386.1,2367.3c0.3,12.3,128.4-12,128.4-12s-3.1-85.2-4.1-111.5c-3.4-96.4,5.4-262.6,5.4-262.6
									s-62.3-13.3-76.3-13c-7.2,0-12.9,1.4-14.6,5.5c-30,83.4-27.9,123.1-27.2,179.5c1,44.4-1.4,88.9-7.5,133
									C387.2,2312.2,386.1,2366.2,386.1,2367.3z"/>
								<path class="st2" d="M422.9,2384v0.7C422.6,2384.7,422.6,2384.4,422.9,2384z"/>
								<path class="st2" d="M510.1,2167.9c0,0,3.4,148.1,27.2,184.7c17,26,108.6,58.8,100.1,96.4c-13.3,6.2-27.6,9.9-42.2,10.9
									c-24.9,2.1-52.8-11.6-52.8-11.6c1.7,6.5,2,13.7,1.4,20.5c-1,8.2-15,8.9-34.7,8.9c-41.5,0.3-40.2-24.3-74.2-36.2
									c-16,18.5-39.8,28-64,25c-15-1.7-19.7-27.7-9.2-51.3c7.8-17.1,18-43.4,22.8-88.9c9.5-92.3,14.3-176.1,14-172.7
									c0,0,19.1,44.8,74.2,90.6C502.2,2214.4,510.1,2167.9,510.1,2167.9z"/>
								<path class="st6" d="M472.3,2244.1c0,0,0.7,85.8,13.3,116.6c12.6,30.8,42.6,55.7,35.1,116.6"/>
								<path class="st7" d="M413,971.3v1c0,0.7,0,1.4,0,2.1c0,1.7,0.3,3.1,0.3,4.4c0.3,3.1,0.7,6.5,1,9.9c0.3,3.4,1,6.8,1.4,9.9
									c0.3,3.1,1,6.8,1.7,10.3c2.7,13.7,6.1,27,10.6,40c1,3.4,2.4,6.5,3.7,9.6c1.4,3.1,2.4,6.5,3.7,9.6c1.4,3.1,3.1,6.2,4.4,9.6
									l2,4.8l2.4,4.4l4.8,9.2c1.7,3.1,3.7,5.8,5.4,8.9c1.7,3.1,3.7,6.2,5.8,8.9l6.5,8.5c4.1,5.8,8.9,11.3,13.6,16.4l3.4,4.1
									l4.4,4.8l8.9,9.6c3.1,3.1,5.8,6.5,8.5,9.9l8.2,10.3c2.7,3.4,5.4,7.2,7.8,10.6c2.4,3.4,5.1,7.2,7.5,10.9
									c9.9,15,18,31.5,23.8,48.2c1.4,4.4,2.7,8.9,3.7,13.3c1,4.4,2,8.9,2.4,13.7c0.3,2.4,0.3,4.4,0.7,6.8c0,2.4,0,4.8,0,7.2
									c0,2.4-0.3,4.8-0.7,7.2c-0.3,2.7-1,5.1-1.7,7.5c-1,3.4-4.4,5.1-7.8,4.1c-1.7-0.3-3.1-1.7-3.7-3.1l-1.7-3.4
									c-0.3-1-1-3.1-1.4-4.4l-1-2.4l-1-2.4c-0.7-1.7-1.4-3.4-2.4-4.8c-0.7-1.7-1.7-3.4-2.7-4.8c-1.7-3.1-4.1-6.2-6.1-9.2
									c-1-1.4-2.4-3.1-3.4-4.4c-1-1.4-2-3.1-3.4-4.4c-9.5-11.6-20.4-21.9-31.7-31.5c-1.4-1.4-2.7-2.4-4.1-3.8l-4.4-3.4
									c-3.1-2.4-5.8-4.8-8.9-7.2c-6.5-4.4-12.3-9.2-18.4-13.3l-9.5-6.5l-4.8-3.4l-5.4-4.1c-7.5-5.5-14.6-11.3-21.4-17.4l-10.2-9.6
									c-3.4-3.1-6.5-6.8-9.5-10.3c-3.1-3.4-6.5-6.8-9.5-10.6l-8.5-10.9l-4.4-5.1l-3.7-5.8l-7.8-11.6c-2.4-4.1-4.8-8.2-7.1-12.3
									c-2.4-4.1-4.4-8.2-6.5-12.7c-2-4.4-4.1-8.5-6.1-12.7l-5.1-13c-1.7-4.4-3.1-8.9-4.8-13.3c-0.7-2.4-1.4-4.4-2-6.8l-2-6.8
									c-1.4-4.4-2.4-9.2-3.4-13.7c-1-4.4-2-9.2-2.7-14c-0.7-4.8-1.4-9.6-2-14.4c-0.3-2.4-0.3-5.1-0.7-7.5c0-1.4-0.3-2.7-0.3-4.1
									v-2.1V973c-0.7-26,20.1-47.5,46-48.2c21.8-0.3,41.2,14.4,46.6,35.6L413,971.3z"/>
								<path class="st8" d="M422.6,988.4c0,0-6.8,2.4-17,5.5c-11.9,3.8-24.2,7.2-36.8,9.6c-12.6,2.1-25.2,3.1-37.8,3.1
									c-10.6,0-18-1-18-1"/>
								<path class="st8" d="M424.9,1015.4c0,0-6.1,3.1-15,7.2c-10.6,5.1-21.8,9.6-33,13c-11.2,3.4-23.2,5.5-34.7,6.5
									c-9.9,1-17,0.7-17,0.7"/>
								<path class="st8" d="M430.1,1043.1c0,0-5.4,3.8-13.3,8.5c-9.2,5.8-18.7,11.3-28.9,15.7c-10.2,4.4-20.4,7.5-31.3,9.6
									c-5.1,1-10.6,1.7-15.7,2.4"/>
								<path class="st8" d="M438.6,1070.1c0,0-4.4,4.1-10.9,9.6c-7.8,6.5-16,12.3-24.5,17.8c-13.3,7.2-27.2,12.7-42.2,15.4"/>
								<path class="st8" d="M450.1,1096.1c0,0-3.7,4.4-8.9,9.9c-6.1,6.8-12.6,13-19.7,18.8c-7.5,5.5-15.3,10.3-24.2,13.7
									c-4.1,1.7-8.5,3.4-12.6,4.4"/>
								<path class="st8" d="M464.8,1120.8c0,0-2.4,4.4-6.5,10.3c-4.4,6.8-9.5,13.3-15.3,19.5c-6.1,5.8-12.6,10.6-20.1,14.4
									c-3.4,2.1-7.1,3.8-10.9,5.1"/>
								<path class="st8" d="M482.8,1144l-1.4,2.7c-0.7,1.7-1.7,4.4-3.1,7.2c-2.7,6.8-6.8,13-11.2,18.8
									c-4.8,5.5-10.2,10.3-16.3,14.4c-2.7,1.7-4.8,3.4-6.5,4.1c-1.7,0.7-2.7,1.4-2.7,1.4"/>
								<path class="st8" d="M506.3,1171c-1,3.1-2.4,6.2-3.7,8.9c-2.7,5.8-6.1,10.9-10.6,15.7c-4.4,4.4-9.9,7.9-15.3,10.9
									c-4.8,2.7-8.5,4.1-8.5,4.1"/>
								<path class="st8" d="M527.4,1200.1c-1,2.7-2,5.1-3.4,7.5c-2.4,4.8-5.8,8.9-9.5,12.7c-4.1,3.1-8.9,5.8-14,7.5
									c-4.4,1.7-7.8,2.4-7.8,2.4"/>
								<path class="st8" d="M545.1,1231.9c-1,2.1-2,4.1-3.1,6.2c-2,3.8-4.8,6.8-8.2,9.2c-3.7,1.7-7.8,3.1-11.9,3.4
									c-3.7,0.3-6.8,0.7-6.8,0.7"/>
								<path class="st8" d="M557,1266.8c-0.7,1.7-1.7,3.4-2.7,4.8c-1.7,2.7-3.7,4.8-6.5,5.8c-2.7,0.7-5.8,0.3-8.5-0.7
									c-2.7-0.7-5.1-1.4-5.1-1.4"/>
								<path class="st5" d="M344.9,2367.3c-0.3,12.3-128.4-12-128.4-12s3.1-85.2,4.1-111.5c3.4-96.4-5.4-262.6-5.4-262.6
									s62.3-13.3,76.3-13c7.2,0,12.9,1.4,14.6,5.5c30,83.4,27.9,123.1,27.2,179.5c-1,44.4,1.4,88.9,7.5,133
									C343.9,2312.2,344.9,2366.2,344.9,2367.3z"/>
								<path class="st2" d="M360.3,2466.1c-11.2,1.4-22.5,0-33.4-3.8c-11.9-4.1-22.5-11.3-31-20.9c-21.1,7.5-28.6,19.8-41.2,28
									c-7.5,5.1-17,8.5-33,8.2c-20.1,0-34-0.7-34.7-8.9c-0.3-4.8-0.3-9.6,0.3-14.4c0.3-2.1,0.7-4.1,1-5.8c0,0-28.3,13.7-53.1,11.6
									l-4.8-0.3c-12.9-1.4-25.5-4.8-37.5-10.3c-8.5-37.6,83.4-70.4,100.1-96.4c23.8-36.6,27.6-184.7,27.6-184.7
									s7.8,46.5,37.8,76.3c55.2-46.2,74.2-90.6,74.2-90.6c0,3.4,4.8,83.8,14,172.7c4.8,45.5,15,71.8,22.8,88.9
									C380.3,2438.7,375.2,2464.7,360.3,2466.1z"/>
								<path class="st6" d="M258.8,2244.1c0,0-0.7,85.8-13.3,116.6s-42.6,55.7-35.1,116.6"/>
								<path class="st0" d="M289.1,1259.6c-0.3,1-1,2.4-1.7,3.4c-10.6,18.8-20.8,37.6-30.6,56.4l-14.6,28.7l-14.6,28.7
									c-9.5,19.2-19.1,38.3-27.9,57.8c-8.9,19.5-17.7,39-24.9,59.2c-4.1,12-17.7,17.8-31.7,14c-1-0.3-2-0.7-3.1-1
									c-14.6-5.5-22.8-20.5-18.4-33.2c0.3-1.4,1-2.4,1.7-3.8c10.9-18.5,20.4-37.6,29.6-57.1c9.2-19.5,17.4-39,26.2-58.8l12.6-29.4
									l12.3-29.8c8.2-19.8,16-39.7,23.2-59.8c5.4-14.7,23.8-21.5,41.2-14.7c3.4,1.4,6.8,3.1,9.9,5.5
									C288.4,1234.3,293.2,1248,289.1,1259.6z"/>
								<path class="st7" d="M444,1453.5c0-41.4-35.4-79.3-78.6-79.3c-43.2,0-78.6,38-78.6,79.3c6.8,17.1,22.1,34.2,78.6,34.2
									C421.9,1487.7,434.1,1476.7,444,1453.5z"/>
								<path class="st5" d="M452.5,1561.2c7.2,10.9,12.9,22.6,17.4,34.5c-4.4,10.6-34,31.1-44.3,46.5
									c-16.7,24.6-12.6,58.1-32.3,73.2c-8.2,5.8-18,8.5-28.3,8.2c-9.9,0.3-19.7-2.1-27.9-7.5c-19.4-14-15.3-45.8-32.3-73.9
									c-9.5-15.4-40.2-35.2-44.9-46.5c9.5-17.8,18-34.5,18-34.5H452.5z"/>
								<path class="st5" d="M438.2,1494.5c0-53,59.2-157,32-286.2c-53.1-19.8-161-19.5-210.1,0c-27.6,122.8,32,231.2,32,286.2
									c0,1.7,0,3.4,0.3,5.1c-4.1,37.6-23.2,76.6-23.2,76.6s62.3,51.3,94,109.4c31.3-58.5,96.4-109.4,96.4-109.4
									s-17.4-35.9-22.5-72.2C437.9,1501,438.2,1497.6,438.2,1494.5z"/>
								<path class="st9" d="M422.2,1430.9c10.6-31.8,32.7-68.4,36.4-101.6c2.4-23.6,3.4-47.2,2.4-70.8c0-13-1.7-26.3-5.1-39
									c-3.7-12.7-6.8-15.7-20.1-23.9l-70.5,71.5l-68.8-71.5c-10.2,4.4-18,13-21.1,23.9c-3.4,12.7-5.1,25.6-5.1,39
									c-1,23.6,0,47.2,2.4,70.8c3.7,33.2,25.9,70.1,36.4,101.6c4.4,13.3,55.8,162.4,55.8,162.4S417.8,1444.3,422.2,1430.9z"/>
								<path class="st10" d="M418.5,1170.3c5.8-54.4-87.2-39-97.7-23.9c-3.4,4.8-9.5,40.4,0,48.2
									C346.3,1215.8,414.4,1209.7,418.5,1170.3z"/>
								<path class="st4" d="M301.4,1193.3l62.3-7.2l62,6.2l-59.9,72.8L301.4,1193.3z"/>
								<path class="st4" d="M399.8,1242.2c0,0-9.5,25-34.4,25c-24.9,0-34.4-25-34.4-25c2.7-24.3,3.7-48.6,3.4-72.8
									c0-47.5-2.4-86.5-2.4-86.5h66.7c0,0-2.4,39.3-2.4,86.5C395.7,1193.6,397,1217.9,399.8,1242.2z"/>
								<path class="st2" d="M367.1,1268.8c0,0,0,0.3,0.3,0.3c-6.8,0-13.6-2.1-19.1-5.8c-10.2-6.5-19.4-14.4-27.2-23.6
									c-9.2-9.9-17.4-20.9-23.5-32.8c-6.5-12-9.5-25.3-9.5-39c0-8.5,2.4-17.1,7.1-24.6c7.8-11.3,22.8-17.8,36.1-20.5l3.4-0.7
									c0,4.8,0,9.6,0,14.7c0,6.8,0,46.9-0.3,52.7c0,0.3-9.2,4.1-6.8,12.7c2.4,8.9,5.8,17.4,10.2,25.3c4.4,8.2,9.9,17.4,15,25
									C356.9,1258.2,364,1262.7,367.1,1268.8z"/>
								<path class="st2" d="M364,1268.8c0,0,0,0.3-0.3,0.3c6.8,0,13.6-2.1,19.1-5.8c10.2-6.5,19.4-14.4,27.2-23.6
									c9.2-9.9,17-20.9,23.5-32.8c6.5-12,9.5-25.3,9.5-39c0-8.5-2.4-17.1-7.1-24.6c-7.8-11.3-22.8-17.8-35.7-20.5l-3.4-0.7
									c0,4.8,0,9.6,0,14.7c0,6.8,0,47.2,0.3,53c0,0,9.2,3.4,6.8,12.3c-2.4,8.9-5.8,17.4-10.2,25.3c-4.8,8.2-9.9,17.4-15,25
									C374.2,1258.2,367.1,1262.7,364,1268.8z"/>
								<path class="st2" d="M314.6,1190.2c0,0-63.7,47.5-54.5,158c0,0-61.3-104-32.7-141.2C253.4,1200.1,314.6,1190.2,314.6,1190.2
									z"/>
								<path class="st2" d="M416.4,1190.2c0,0,63.7,47.5,54.5,158c0,0,61.3-104,32.7-141.2C477.7,1200.1,416.4,1190.2,416.4,1190.2
									z"/>
								<path class="st0" d="M253,1607.7c0,0-55.8,77.6-65,108.4s5.8,22.6,5.8,37.3c0,14.7-4.8,17.1-8.5,45.5
									c-2,14.4,9.9,14,21.8,10.3c-5.1,12-9.2,23.6-7.5,29.4c3.7,14.4,29.3,0,29.3,0l-2.4-37.6l3.4-2.1L253,1607.7z"/>
								<path class="st5" d="M357.2,1673.4c-43.9,179.2-49.7,307.1-49.7,307.1s-12.3,33.2-40.5,38.3c-41.9,7.5-51.8-36.9-51.8-36.9
									s-6.8-65.3-2-171.7c2-59.2,11.9-118,29.3-174.7c8.2-27.7,25.2-53,29.6-60.2c18.4-28,46.3-14.4,46.3-14.4
									S373.2,1608.8,357.2,1673.4z"/>
								<path class="st11" d="M234.3,2004.4c3.4,4.1,7.8,7.2,12.9,9.2c2,1,4.4,1.7,6.5,1.7c0.7,0,1.4-0.3,2-0.7s1.4-1,2-1.7
									c1.4-2.1,3.1-4.1,4.1-6.5c1.4-2.4,2.4-4.8,3.7-6.8c2.4-4.8,4.4-9.9,6.5-15.4c1,5.8,1,11.6-0.7,17.4
									c-0.7,2.7-1.7,5.8-3.1,8.5c-1.4,2.7-2.7,5.5-4.8,7.9c-1.4,1.4-2.7,2.7-4.4,3.4c-2,1-4.1,1.4-6.1,1c-1.7-0.3-3.4-0.7-5.1-1.7
									c-1.4-0.7-2.7-1.4-4.1-2.4C239.1,2015.7,235.3,2010.2,234.3,2004.4z"/>
								<path class="st0" d="M477.4,1607.7c0,0,55.8,77.6,65,108.4c9.2,30.8-5.8,22.6-5.8,37.3c0,14.7,4.8,17.1,8.5,45.5
									c2,14.4-9.9,14-21.8,10.3c5.1,12,9.2,23.6,7.5,29.4c-3.7,14.4-29.3,0-29.3,0l2.4-37.6l-3.4-2.1L477.4,1607.7z"/>
								<path class="st5" d="M373.5,1673.4c43.9,179.2,49.7,307.1,49.7,307.1s12.3,33.2,40.5,38.3c41.9,7.5,51.8-36.9,51.8-36.9
									s7.2-65.3,2-171.7c-2-59.2-11.9-118-29.3-174.7c-8.2-27.7-25.2-53-29.6-60.2c-18.4-28-46.3-14.4-46.3-14.4
									S357.9,1608.8,373.5,1673.4z"/>
								<path class="st11" d="M466.8,1989c2,5.1,3.7,9.9,5.8,14.7c0.7,2.1,2,3.8,3.4,5.5c1.4,1,3.1,1.7,4.8,1.7c2,0,4.4-0.3,6.5-0.7
									c2.4-0.7,4.4-1.4,6.5-2.7c4.4-2.4,8.9-5.5,12.6-8.9c-1.7,5.5-5.1,10.3-9.5,13.7c-2.4,2-4.8,3.4-7.5,4.4
									c-3.1,1-6.1,1.7-9.2,1.7c-1.7,0-3.4-0.3-5.1-1c-1.7-0.7-3.1-2.1-4.4-3.4c-2-2.4-3.1-5.5-3.7-8.5
									C466.1,2000,465.8,1994.5,466.8,1989z"/>
								<g>
									<defs>
										<path id="SVGID_00000032618667283871226020000002969886279295439265_" d="M437.9,1074.6c-9.2,9.2-21.8,39.7-27.6,53
											c-10.9,24.3-23.5,38.6-44.6,38.6s-33.4-14.7-44.6-38.6c-6.5-13.7-18.4-43.8-27.9-53.3c-25.2-25.3-34-60.9-28.6-99.9
											c9.2-65,41.9-94.4,101.1-94.4s93.6,31.1,101.1,94.4C471.3,1013.7,462.7,1049.6,437.9,1074.6z"/>
									</defs>
									<clipPath id="SVGID_00000034075150898361074620000007547860092989454213_">
										<use xlink:href="#SVGID_00000032618667283871226020000002969886279295439265_"  style="overflow:visible;"/>
									</clipPath>
									<g style="clip-path:url(#SVGID_00000034075150898361074620000007547860092989454213_);">
										<path class="st0" d="M257.8,868.7h215.9v305.7H257.8V868.7z"/>
										<path class="st2" d="M321.4,889.6c-0.7,2.4-0.3,4.8,0.7,7.2c1.4,3.4,3.1,6.5,4.8,9.6c4.4,6.8,9.5,13,15,18.8
											c5.4,6.2,11.2,12,17.4,17.8c6.1,5.8,12.3,11.3,18.4,16.4l-25.2,0.3c6.1-5.1,12.3-10.9,18.4-16.8
											c6.1-5.8,11.9-11.6,17.4-17.8c5.4-5.8,10.6-12.3,15-18.8c2-3.1,3.7-6.2,5.1-9.6c1-2.1,1.4-4.4,1-6.8l-0.7-1.7
											c-1.4-3.1,0.3-6.5,3.1-7.9c2.4-1,5.1-0.3,6.8,1.7c2,2.7,3.4,5.8,3.4,9.2c0,2.7,0,5.5-0.7,8.2c-1,4.4-2.7,9.2-4.8,13.3
											c-4.1,7.9-8.5,15.7-14,22.9c-5.1,7.2-10.6,14-16,20.5c-5.4,6.5-11.2,13-17,19.5l-4.4,4.8l-4.4-4.4
											c-6.1-6.5-11.9-12.7-17.4-19.5c-5.4-6.8-10.9-13.7-16.3-20.5c-5.4-7.2-9.9-15-14-22.9c-2-4.4-3.7-8.9-4.8-13.7
											c-0.7-2.7-0.7-5.5-0.3-8.2c0.3-3.1,1.4-6.5,3.4-8.9c1.7-2.7,5.1-3.8,8.2-2.1c2.7,1.7,3.7,5.1,2,8.2V889.6z"/>
									</g>
								</g>
								<g>
									<defs>
										<path id="SVGID_00000060728512999765047050000009619816540621232827_" d="M391.2,1022.9c-6.8,15.7-5.8,30.1,1.7,36.9
											c13.3,1,36.8-3.4,45.3-18.1c6.8-11.6,10.6-27-1.4-38.6C422.2,997.6,398.1,1006.9,391.2,1022.9z"/>
									</defs>
									<clipPath id="SVGID_00000158718970430356553010000012036142151549790626_">
										<use xlink:href="#SVGID_00000060728512999765047050000009619816540621232827_"  style="overflow:visible;"/>
									</clipPath>
									<g style="clip-path:url(#SVGID_00000158718970430356553010000012036142151549790626_);">
										<path class="st14" d="M375.2,991.8h75.9v74.6h-75.9V991.8z"/>
										<path class="st15" d="M434.8,1036.6c0,14.4-11.6,26-25.9,26c-14.3,0-25.9-11.6-25.9-26c0-14.4,11.6-26,25.9-26
											C423.2,1010.6,434.8,1022.3,434.8,1036.6z"/>
										<path d="M421.9,1036.6c0,7.2-5.8,13-12.9,13c-7.1,0-12.9-5.8-12.9-13c0-7.2,5.8-13,12.9-13
											C416.1,1023.6,421.9,1029.4,421.9,1036.6z"/>
										<path class="st16" d="M391.9,1066c0,0-17.4-36.3,16.7-55.7c4.4-2.7,17.7-4.4,22.8-1.7c3.4,2.4,7.1,5.1,7.1,18.1
											c-0.3,10.6-5.1,20.5-13.6,26.7l22.8-6.5l9.5-76.3l-59.6,3.1l-28.9,86.2L391.9,1066z"/>
									</g>
								</g>
								<g>
									<defs>
										<path id="SVGID_00000114032938541568944900000013823504377864985268_" d="M339.1,1022.9c6.8,15.7,5.8,30.1-1.7,36.9
											c-13.3,1-36.8-3.4-45.3-18.1c-6.8-11.6-10.6-27,1.4-38.6C308.2,997.6,332.3,1006.9,339.1,1022.9z"/>
									</defs>
									<clipPath id="SVGID_00000149382999968848195500000003783613337546784411_">
										<use xlink:href="#SVGID_00000114032938541568944900000013823504377864985268_"  style="overflow:visible;"/>
									</clipPath>
									<g style="clip-path:url(#SVGID_00000149382999968848195500000003783613337546784411_);">
										<path class="st14" d="M279.2,991.8h75.9v74.6h-75.9V991.8z"/>
										<path class="st15" d="M347.3,1036.6c0,14.4-11.6,26-25.9,26c-14.3,0-25.9-11.6-25.9-26c0-14.4,11.6-26,25.9-26
											C335.7,1010.6,347.3,1022.3,347.3,1036.6z"/>
										<path d="M334.4,1036.6c0,7.2-5.8,13-12.9,13c-7.1,0-12.9-5.8-12.9-13c0-7.2,5.8-13,12.9-13
											C328.6,1023.6,334.4,1029.4,334.4,1036.6z"/>
										<path class="st16" d="M338.5,1066c0,0,17.4-36.3-16.7-55.7c-4.4-2.7-17.7-4.4-22.8-1.7c-3.4,2.4-7.2,5.1-7.2,18.1
											c0.3,10.6,5.1,20.5,13.6,26.7l-22.8-6.5l-9.5-76.3l59.6,3.1l29.3,86.5L338.5,1066z"/>
									</g>
								</g>
								<path class="st7" d="M394.3,1103.7c-8.9,3.1-18.4,4.8-27.6,4.8c-9.9-0.3-19.4-2.1-28.6-4.8H394.3z"/>
								<path class="st4" d="M283.7,987.7c2.4-3.4,5.8-6.2,9.5-8.2c3.7-2.1,8.2-3.4,12.3-3.8c4.4-0.3,8.9-0.3,13.3,0.3
									c2,0.3,4.4,0.7,6.5,1.4l6.5,1.7c3.1,0.7,4.4,3.8,3.7,6.8c-0.7,3.1-3.7,4.4-6.8,3.8c-0.3,0-0.7-0.3-1-0.3l-0.3-0.3l-5.1-2.7
									c-1.7-0.7-3.4-1.7-5.1-2.4c-3.4-1.4-7.2-2.4-10.9-2.7c-3.7-0.3-7.8,0-11.6,0.7C290.1,982.9,286.7,985,283.7,987.7z"/>
								<path class="st4" d="M447.1,987.7c-3.1-2.7-6.5-4.8-10.6-5.8c-3.7-1-7.5-1.4-11.6-0.7c-3.7,0.3-7.5,1.4-10.9,2.7
									c-1.7,0.7-3.4,1.7-5.1,2.4l-5.1,2.7h-0.3c-2.7,1.4-6.1,0.3-7.5-2.1c-1.4-2.7-0.3-6.2,2-7.5c0.3-0.3,0.7-0.3,1-0.3l6.5-1.7
									c2-0.3,4.4-1,6.5-1.4c4.4-0.7,8.9-0.7,13.3-0.3c4.4,0.3,8.5,1.7,12.3,3.8C441.3,981.2,444.7,984.3,447.1,987.7z"/>
								<g>
									<defs>
										<path id="SVGID_00000075145753454461953230000011722415907757289346_" d="M264.2,974.7c-0.7,15.4,8.2,22.9,7.2,25.6
											c-0.7,2.4-4.4,3.1-8.9,1c0,0-39.5-13.3-39.2-35.9c0.3-41,53.8-58.5,68.1-58.1C274.5,928.6,268,948.4,264.2,974.7z"/>
									</defs>
									<clipPath id="SVGID_00000097466037870222754020000014889049519786843326_">
										<use xlink:href="#SVGID_00000075145753454461953230000011722415907757289346_"  style="overflow:visible;"/>
									</clipPath>
									<g style="clip-path:url(#SVGID_00000097466037870222754020000014889049519786843326_);">
										<path class="st7" d="M264.2,974.7c-0.7,15.4,8.2,22.9,7.1,25.6c-0.7,2.4-4.4,3.1-8.9,1c0,0-39.5-13.3-39.2-35.9
											c0.3-41,53.8-58.5,68.1-58.1C274.5,928.6,268,948.4,264.2,974.7z"/>
										<path class="st19" d="M269.7,980.5c-7.8-6.5-18.4-8.9-28.3-6.8c-17.4,3.4-5.4,21.2,11.2,27.7"/>
										<path class="st19" d="M274.1,970.3c0,0-2-10.6-16.3-20.9c-14.3-10.3-36.4-2.4-36.4,18.1"/>
										<path class="st19" d="M246.2,922.7c3.7-1.7,7.8-1.7,11.6-0.3c9.2,4.1,16,12.3,18,22.6"/>
										<path class="st19" d="M278.9,906c0,0,12.9,1.7,12.9,22.9"/>
									</g>
								</g>
								<g>
									<defs>
										<path id="SVGID_00000102503532075627933490000003010870605055991464_" d="M466.8,974.7c0.3,15.4-8.2,22.9-7.2,25.6
											c0.7,2.4,4.4,3.1,8.9,1c0,0,39.5-13.3,39.2-35.9c-0.3-41-53.8-58.5-68.1-58.1C456.6,928.6,463.1,948.4,466.8,974.7z"/>
									</defs>
									<clipPath id="SVGID_00000107565081157480257240000011253879791651451533_">
										<use xlink:href="#SVGID_00000102503532075627933490000003010870605055991464_"  style="overflow:visible;"/>
									</clipPath>
									<g style="clip-path:url(#SVGID_00000107565081157480257240000011253879791651451533_);">
										<path class="st7" d="M466.8,974.7c0.3,15.4-8.2,22.9-7.1,25.6c0.7,2.4,4.4,3.1,8.9,1c0,0,39.5-13.3,39.2-35.9
											c-0.3-41-53.8-58.5-68.1-58.1C456.6,928.6,463.1,948.4,466.8,974.7z"/>
										<path class="st19" d="M461,980.5c7.8-6.5,18.4-8.9,28.3-6.8c17.4,3.4,5.4,21.2-11.2,27.7"/>
										<path class="st19" d="M457,970.3c0,0,2-10.6,16.3-20.9c14.3-10.3,36.4-2.4,36.4,18.1"/>
										<path class="st19" d="M484.9,922.7c-3.7-1.7-7.8-1.7-11.6-0.3c-9.2,4.1-16,12.3-18,22.6"/>
										<path class="st19" d="M452.2,906c0,0-12.9,1.7-12.9,22.9"/>
									</g>
								</g>
								<g>
									<defs>
										<path id="SVGID_00000025421130277885412880000002152734749938093992_" d="M143.7,1389.2c0,0-98.7,73.9-119.2,205.9
											c-6.5,41.4,11.2,48.2,22.5,52.3c24.5,8.9,63.3-36.3,69.5-43.1c8.9-9.9,50.7-49.9,69.5-67.7c24.5-22.9,46.6-64.3,36.1-91
											c0,0-35.4,25.6-52.8,4.8C151.9,1429.6,171.3,1407,143.7,1389.2z"/>
									</defs>
									<clipPath id="SVGID_00000053506582791288392020000003246745521889763721_">
										<use xlink:href="#SVGID_00000025421130277885412880000002152734749938093992_"  style="overflow:visible;"/>
									</clipPath>
									<g style="clip-path:url(#SVGID_00000053506582791288392020000003246745521889763721_);">
										<path class="st2" d="M-16.9,1609.8l150.6-255l130.3,77.6l-150.6,255L-16.9,1609.8z"/>
										<path class="st3" d="M185.9,1421c0,0,15.7,56.8-19.4,98.8c-29.3,35.6-65.4,60.2-79.7,78c-13.3,16.8-56.2,47.9-56.2,47.9
											l90.2,34.9l118.5-173l11.2-73.5L185.9,1421z"/>
									</g>
								</g>
								<path class="st4" d="M43.3,1680.9c3.4,4.1,5.4,8.9,5.8,14c0,6.8-2.4,10.3-5.8,10.3c-3.4,0-16-16.1-16-16.1l9.2-17.4
									L43.3,1680.9z"/>
								<path class="st0" d="M89.2,1695.3c-10.9,6.8-12.9-3.1-15-18.1c-1-8.2-8.5-9.9-14.6-7.2c-8.9,3.4-14,19.5-14,28
									c0,12.3-6.5,15.7-13.6,12.3c-8.9-4.1-6.8-22.6-6.8-22.6c-2-4.1-3.7-7.5-5.1-10.6c-3.7-8.5-4.4-14.4-4.4-27
									c0-19.2,3.4-42.1,8.9-54.7c8.9-20.9,44.9-25.3,44.9-25.3C109.7,1621.1,107,1684.3,89.2,1695.3z"/>
								<path class="st4" d="M31,1645.7c-3.7,13.3-5.4,27.4-5.8,41.4c-2-4.1-3.7-7.5-5.1-10.6C21.8,1665.9,25.2,1655.3,31,1645.7z"
									/>
							</g>
						</g>
					</g>
				</g>
			</g>
		</g>
	</g>
</g>
</svg>
