<?xml version="1.0" encoding="utf-8"?>
<!-- Generator: Adobe Illustrator 25.2.0, SVG Export Plug-In . SVG Version: 6.00 Build 0)  -->
<svg version="1.1" id="Layer_1" xmlns="http://www.w3.org/2000/svg" xmlns:xlink="http://www.w3.org/1999/xlink" x="0px" y="0px"
	 viewBox="0 0 166.5 505.8" style="enable-background:new 0 0 166.5 505.8;" xml:space="preserve">
<style type="text/css">
	.st0{fill:#44F5A0;}
	.st1{fill:#891B6A;}
	.st2{fill:#DDCD00;}
	.st3{fill:#33D08C;}
	.st4{fill:#721267;}
	.st5{fill:#1B8B79;}
	.st6{fill:none;stroke:#33D08C;stroke-width:1.02;stroke-linecap:round;stroke-miterlimit:10;}
	.st7{fill:#AA1A88;}
	.st8{fill:#F7EC17;}
	.st9{fill:none;stroke:#DDCD00;stroke-miterlimit:10;}
	.st10{clip-path:url(#SVGID_2_);}
	.st11{fill:none;stroke:#33D08C;stroke-miterlimit:10;}
	.st12{clip-path:url(#SVGID_4_);}
	.st13{clip-path:url(#SVGID_6_);}
	.st14{fill:#F5FAFF;}
	.st15{fill:#9629FF;}
	.st16{fill:#022538;}
	.st17{clip-path:url(#SVGID_8_);}
	.st18{clip-path:url(#SVGID_10_);}
	.st19{clip-path:url(#SVGID_12_);}
	.st20{fill:none;stroke:#DDCD00;stroke-width:0.95;stroke-miterlimit:10;}
	.st21{clip-path:url(#SVGID_14_);}
</style>
<path id="l-arm" class="st0" d="M61,156.8c-0.3-0.3-0.5-0.5-0.8-0.9c-3.9-5-7.8-9.9-11.8-14.7l-6-7.2l-6.1-7.2
	c-4.2-4.7-8.2-9.5-12.5-14.1s-8.6-9.1-13.2-13.3c-2.7-2.5-2.8-6.8-0.2-10.1c0.2-0.3,0.4-0.5,0.6-0.8c3.2-3.3,8.1-3.9,11.1-1.3
	c0.3,0.3,0.5,0.6,0.8,0.9c3.8,5,7.9,9.8,12.1,14.4s8.6,9.1,12.9,13.7l6.6,6.7l6.6,6.7c4.4,4.4,9,8.8,13.5,13.1
	c3.4,3.2,3.1,8.9-0.7,12.8c-0.8,0.8-1.7,1.5-2.6,2C67.8,159.5,63.6,159.3,61,156.8z"/>
<g id="l-calf">
	<path class="st1" d="M100.6,463.2c0,3.6-37.8-2.5-37.8-2.5s0.3-24.9,0.3-32.6c0.3-28.2-3.5-76.7-3.5-76.7s18.2-4.3,22.3-4.4
		c2.1,0,3.9,0.3,4.3,1.5c9.4,24.1,9.1,35.8,9.3,52.2c0,13,1.1,26,3.1,38.8C100,447.1,100.6,463,100.6,463.2z"/>
	<path class="st2" d="M56.2,460.1c-4.8,7.7-46.5,5.8-41,26.7l18.4,1.2c-0.1,2.1-0.1,4.3,0.2,6.4c0.3,2.4,11.7,2.2,17.5,1.7
		c15.7-1.6,14.8-8.2,35.7-10.8c0,0,22.1,3.5,28.3,3c4.4-0.4,0.1-8.2-6.9-11.2c-6-2.7-5.6-12.6-7.3-25.8c-3.4-27-5.4-51.4-5.3-50.4
		c0,0-18.8,11.5-32.4,27.4C61.9,436.8,62.9,449.2,56.2,460.1z"/>
</g>
<g id="l-thigh">
	<path class="st3" d="M69,261.9c-5.7,11.3-14,22.7-15.7,31.6s2.4,6.6,2.8,11s-0.9,5-1.1,13.3c-0.1,4.2,3.3,4.1,6.7,3
		c-1.1,3.5-1.9,6.9-1.3,8.6c1.6,4.2,8.6,0,8.6,0C67,307,67,284.4,69,261.9z"/>
	<path class="st1" d="M106.5,266.3c-1.6,5.1-3,10.1-4.4,14.8c-12.3,43.1-16,70.5-16,70.5s-4.2,9.5-12.5,10.5
		c-12.4,1.5-14.6-11.7-14.6-11.7s-3.5-16.8-1.5-48.8c0.9-14.2,2.4-31.5,11.7-51.2c9.5-20.3,30.8-11.4,30.8-11.4
		S112.2,247.8,106.5,266.3z"/>
	<path class="st4" d="M104.1,281.2c-12.3,43.1-17.3,65.5-17.3,65.5l-5.1-74.1L104.1,281.2z"/>
</g>
<g id="tail">
	<path class="st5" d="M120.2,65.4L120.2,65.4v0.3c0,0.2,0,0.4,0,0.6c0,0.5,0.1,0.9,0.1,1.3c0.1,0.9,0.2,1.9,0.3,2.9s0.3,2,0.4,2.9
		s0.3,2,0.5,3c0.8,4,1.8,7.9,3.1,11.7c0.3,1,0.6,1.9,1.1,2.8c0.4,0.9,0.7,1.9,1.1,2.8s0.9,1.8,1.3,2.8l0.6,1.4l0.7,1.3l1.4,2.7
		c0.5,0.9,1.1,1.7,1.6,2.6s1.1,1.8,1.7,2.6l1.8,2.5c1.2,1.7,2.6,3.3,4,4.8l1,1.2l1.3,1.4l2.6,2.8c0.9,0.9,1.7,1.9,2.5,2.9l2.4,3
		c0.8,1,1.5,2.1,2.3,3.1c0.8,1,1.5,2.1,2.2,3.2c2.9,4.4,5.3,9.2,7,14.1c0.4,1.3,0.8,2.6,1.1,3.9s0.6,2.6,0.7,4
		c0.1,0.7,0.1,1.3,0.1,2c0,0.7,0,1.4,0,2.1c0,0.7-0.1,1.4-0.2,2.1c-0.1,0.8-0.3,1.5-0.5,2.2c-0.3,1-1.3,1.5-2.3,1.2
		c-0.5-0.1-0.9-0.5-1.1-0.9l-0.5-1c-0.1-0.3-0.3-0.9-0.4-1.3l-0.3-0.7l-0.3-0.7c-0.2-0.5-0.4-1-0.7-1.4c-0.2-0.5-0.5-1-0.8-1.4
		c-0.5-0.9-1.2-1.8-1.8-2.7c-0.3-0.4-0.7-0.9-1-1.3s-0.6-0.9-1-1.3c-2.8-3.4-6-6.4-9.3-9.2c-0.4-0.4-0.8-0.7-1.2-1.1l-1.3-1
		c-0.9-0.7-1.7-1.4-2.6-2.1c-1.9-1.3-3.6-2.7-5.4-3.9l-2.8-1.9c-0.5-0.3-0.9-0.6-1.4-1l-1.6-1.2c-2.2-1.6-4.3-3.3-6.3-5.1l-3-2.8
		c-1-0.9-1.9-2-2.8-3s-1.9-2-2.7-3.1l-2.5-3.1l-1.3-1.6l-1.2-1.7l-2.3-3.4c-0.7-1.2-1.4-2.4-2.1-3.6s-1.3-2.4-1.9-3.7
		s-1.2-2.5-1.8-3.7l-1.5-3.8c-0.5-1.3-0.9-2.6-1.4-3.9c-0.2-0.7-0.4-1.3-0.6-2l-0.6-2c-0.4-1.3-0.7-2.7-1-4s-0.6-2.7-0.8-4.1
		s-0.4-2.8-0.6-4.2c-0.1-0.7-0.1-1.5-0.2-2.2c0-0.4-0.1-0.8-0.1-1.2v-0.6v-0.8c-0.2-7.6,5.9-13.9,13.5-14.1
		c6.4-0.1,12.1,4.2,13.7,10.4L120.2,65.4z"/>
	<path class="st6" d="M120.2,70.8c0,0-1.6,0.7-4.1,1.5c-2.9,1-5.8,1.9-8.9,2.5c-3,0.5-6.1,0.7-9.2,0.6c-1.5-0.1-2.9-0.2-4.4-0.4"/>
	<path class="st6" d="M121.4,79c0,0-1.5,0.8-3.7,1.9c-2.6,1.3-5.3,2.5-8.1,3.4c-2.8,0.8-5.8,1.3-8.7,1.5c-1.4,0.1-2.8,0.1-4.2,0.1"
		/>
	<path class="st6" d="M123.5,87.1c0,0-1.3,1-3.3,2.3c-2.3,1.6-4.8,2.9-7.3,4.1c-2.6,1.1-5.3,1.9-8.1,2.3c-1.3,0.2-2.7,0.4-4,0.5"/>
	<path class="st6" d="M126.4,95c0,0-1.1,1.1-2.8,2.5c-2,1.8-4.1,3.3-6.3,4.7c-2.3,1.3-4.8,2.3-7.3,3c-1.2,0.3-2.5,0.6-3.8,0.8"/>
	<path class="st6" d="M130.2,102.5c0,0-0.9,1.2-2.3,2.7c-1.6,1.9-3.3,3.6-5.2,5.1c-3,2.1-6.3,3.7-9.9,4.7"/>
	<path class="st6" d="M135,109.6c0,0-0.7,1.2-1.7,2.8c-1.2,1.9-2.6,3.7-4.2,5.3c-1.6,1.5-3.5,2.8-5.5,3.9c-1,0.5-2,1-3,1.4"/>
	<path class="st6" d="M140.5,116.2l-0.3,0.8c-0.2,0.5-0.4,1.2-0.8,2c-0.8,1.9-1.9,3.7-3.2,5.3c-1.4,1.5-2.9,2.9-4.6,4
		c-0.7,0.5-1.4,0.9-1.8,1.2l-0.8,0.4"/>
	<path class="st6" d="M147.5,123.9c-0.3,0.9-0.6,1.7-1.1,2.6c-0.7,1.7-1.8,3.2-3,4.5c-1.3,1.3-2.8,2.3-4.4,3.2
		c-1.4,0.8-2.5,1.2-2.5,1.2"/>
	<path class="st6" d="M154,132.2c-0.3,0.8-0.6,1.5-1,2.3c-0.7,1.4-1.7,2.7-2.9,3.7c-1.3,1-2.7,1.7-4.2,2.2c-1.3,0.5-2.3,0.8-2.3,0.8
		"/>
	<path class="st6" d="M159.3,141.4c-0.3,0.7-0.6,1.3-1,1.9c-0.6,1.1-1.5,2.1-2.6,2.8c-1.1,0.6-2.4,1-3.7,1.1
		c-1.1,0.2-2.1,0.2-2.1,0.2"/>
	<path class="st6" d="M162.8,151.7c-0.3,0.5-0.6,1-0.9,1.4c-0.5,0.8-1.2,1.4-2.1,1.8c-0.9,0.2-1.8,0.1-2.7-0.1
		c-0.9-0.2-1.6-0.4-1.6-0.4"/>
</g>
<g id="torso">
	<path class="st1" d="M124.3,231c0,0,13.1,19,12.6,33.3c-0.5,13.3-13.6,21.1-47.4,21.1c-7.1,0-24-14.4-23.1-28.1
		c2.4-10.4,6.2-21.7,6.2-21.7L124.3,231z"/>
	<path class="st1" d="M120.7,216.2c-0.3-16.1,17.4-43.7,9.4-81.5c-15.7-5.8-39.5-8.2-54-2.5c-17,40.9,0.7,65.1-0.4,81.2
		c-0.8,11.3-4.5,29-4.5,29s8.7,15,18,32c9.2-17.1,39.5-32.6,39.5-32.6C124.3,231,120.8,223.1,120.7,216.2z"/>
	<path class="st7" d="M100.8,202.3c4-14.9,11.2-22.7,16.3-31c3.6-5.9,15.9-30.1,14.9-33.7s-9.9-4.8-13.9-7.2l-23,22.8l1-25l-17,2.9
		c-14,24.1-10.3,32.9-9.6,39.8c1.1,9.7,7.8,19,10.8,28.3c1.3,3.9,8.8,48.2,8.8,48.2S97.8,213.8,100.8,202.3z"/>
	<path class="st3" d="M85.5,130.4c0.3,0,17.1-3.8,29.4-1.1c12.3,2.7-19.8,23.7-19.8,23.7s-5.8-2.3-8.3-7.1
		C81.5,135.9,85.5,130.4,85.5,130.4z"/>
	<path class="st8" d="M87.7,129.4c0,0-21.5,6.8-18.7,44.5c0,0-18.6-28.8-10.2-39.7C66.4,132.3,87.7,129.4,87.7,129.4z"/>
	<path class="st8" d="M81.8,125.4c0.4-4.8,3.4-17.6,19-18.1S88,129.9,89.1,137.6S81.8,125.4,81.8,125.4z"/>
	<path class="st3" d="M109.4,144.6c0,0-5.6,7.3-12.9,7.3s-7.3-7.3-7.3-7.3s0-7.5,0-21.3s0.3-25.3,0.3-25.3l22.9-11.8
		c0,0-5.4,18.1-5.1,37.2C107.6,137.1,109.4,144.6,109.4,144.6z"/>
	<path class="st8" d="M95.1,153.1c0,0,4.4,1.2,16-9.1c3-2.6,5.2-7.3,7-10.8c1.8-3.4,3-7,3.7-10.8c0.6-3.5-0.4-4.7-1.8-6.8
		c-2.3-3.3-6.7-5.2-10.6-6c-0.3-0.1-1.2-0.1-1.5-0.2c-0.7,6.6-0.9,13.2-0.4,19.8c0.2,1.2,0.3,2.4,0.2,3.6c-0.2,3.5-1.2,6.8-3,9.8
		C101.1,148.6,96,151.4,95.1,153.1z"/>
	<path class="st8" d="M123.8,132.6c0,0-3.1,1.9-5.5,10.6c-3.6,13.5-1.2,28.1,5.4,34.4c0,0,29.4-23.6,22.6-40.4
		C138.6,135.3,123.8,132.6,123.8,132.6z"/>
	<path class="st2" d="M123.7,177.6c-0.8-5.1-0.8-10.3,0-15.4c1.6-8.2,9.8-23.8,17.1-20C153.6,148.8,123.7,177.6,123.7,177.6z"/>
	<path class="st8" d="M95.1,153.1c0,0-4.9-1.8-5.9-14.4c-0.2-2.4-0.4-6.1-0.4-6.1l-7-7.3c-0.4,4.9,0,9.8,1.2,14.6
		C86.2,153.2,95.1,153.1,95.1,153.1z"/>
	<path class="st8" d="M140.9,142.2c0.6,0.3,1.2,0.8,1.7,1.3c1.5,1,2.9,2.2,4.2,3.5c0.9-3.2,0.7-6.7-0.5-9.8
		c-7.7-1.9-22.5-4.6-22.5-4.6s-3.1,1.9-5.5,10.6c-3.6,13.4-1.2,28.1,5.4,34.4c-0.8-5.1-0.8-10.3,0-15.4
		C125.3,154,133.6,138.4,140.9,142.2z"/>
</g>
<g id="r-calf">
	<path class="st1" d="M148.1,467.1c0.3,3.5-37.8,1.1-37.8,1.1s-2.1-24.9-2.8-32.5c-2.4-28.1-10.7-76-10.7-76s17.7-6,21.8-6.5
		c2.1-0.2,3.9,0,4.4,1c11.6,23.1,12.5,34.7,14.2,51.1c1.3,12.9,3.6,25.7,6.8,38.3C145.9,451.2,148.1,466.8,148.1,467.1z"/>
	<path class="st8" d="M140.9,472.1c0,0.1,0,0.2,0.1,0.2l0,0L140.9,472.1z"/>
	<path class="st8" d="M128.6,475.4v0.2l0,0C128.6,475.6,128.6,475.5,128.6,475.4z"/>
	<path class="st8" d="M103.5,468.2c-4,8.1-45.8,10.2-38.3,30.5l18.4-0.5c0.1,2.1,0.3,4.3,0.8,6.4c0.6,2.3,11.9,1.1,17.6,0
		c15.4-3.1,14-9.6,34.5-14.1c0,0,22.4,1.4,28.4,0.3c4.3-0.8-0.7-8.1-8-10.5c-6.3-2.1-6.8-12-9.7-25c-6-26.5-10.3-50.6-10.1-49.6
		c0,0-12.7,13.8-23.8,24.3c-3.8-3.1-5.6-6.2-8.4-16.4C105.4,426.2,109.2,456.7,103.5,468.2z"/>
	<path class="st9" d="M113.4,429.7c0,0,2.1,25-3.2,38.5c-3.8,9.6-7.7,12.3-15,15.8c-6.9,3.3-12.7,10.6-10.8,20.4"/>
</g>
<g id="r-thigh">
	<path class="st1" d="M135.9,270.5c-10.8,52.9-12.2,86.9-12.2,86.9s-3.2,9.9-11.5,11.7c-12.2,2.7-15.7-10.2-15.7-10.2
		s-5-16.4-6.1-48.4c-0.5-14.3-0.6-31.6,6.8-52.1c7.6-21.1,29.6-14.2,29.6-14.2S139.8,251.5,135.9,270.5z"/>
	<path class="st3" d="M125.3,261.2c4.2,11.9,11,24.3,11.5,33.4s-3.2,6.3-4.2,10.5s0.2,5-0.6,13.3c-0.4,4.2-3.8,3.7-7,2.2
		c0.7,3.6,1,7.1,0.2,8.7c-2.1,4-8.6-1.1-8.6-1.1C121.6,306.1,124.5,283.7,125.3,261.2z"/>
</g>
<g id="head">
	<g>
		<defs>
			<path id="SVGID_1_" d="M59.3,65.9c-0.2,4.5,2.4,6.7,2.1,7.5c-0.2,0.7-1.3,0.9-2.6,0.3c0,0-11.6-3.9-11.5-10.5
				c0.1-12,15.8-17.1,20-17C62.3,52.4,60.4,58.2,59.3,65.9z"/>
		</defs>
		<clipPath id="SVGID_2_">
			<use xlink:href="#SVGID_1_"  style="overflow:visible;"/>
		</clipPath>
		<g class="st10">
			<path class="st5" d="M59.3,65.9c-0.2,4.5,2.4,6.7,2.1,7.5c-0.2,0.7-1.3,0.9-2.6,0.3c0,0-11.6-3.9-11.5-10.5
				c0.1-12,15.8-17.1,20-17C62.3,52.4,60.4,58.2,59.3,65.9z"/>
			<path class="st11" d="M60.9,67.6c-2.3-1.9-5.4-2.6-8.3-2c-5.1,1-1.6,6.2,3.3,8.1"/>
			<path class="st11" d="M62.1,64.6c0,0-0.6-3.1-4.8-6.1s-10.7-0.7-10.7,5.3"/>
			<path class="st11" d="M53.9,50.7c1.1-0.5,2.3-0.5,3.4-0.1c2.7,1.2,4.7,3.6,5.3,6.6"/>
			<path class="st11" d="M63.5,45.8c0,0,3.8,0.4,3.8,6.7"/>
		</g>
	</g>
	<g>
		<defs>
			<path id="SVGID_3_" d="M127.2,67.1c-0.3,11.4-17,25.6-24.2,31.2c-2.2,1.7-3.6,6.2-7.1,11.7c-4,6.3-8.7,12.5-13.8,12.5
				s-10.1-4-13-10.7c-1.6-3.9-5.9-9.4-8.5-12.9c-5.6-7.4-7.3-15.4-5.4-26.7c1.2-7.3,3.2-15,7-20.1c2.9-3.8,6.5-7,10.6-9.4l0,0
				c1.4-0.9,2.9-1.6,4.4-2.3c2.9-1.3,5.8-2.3,8.9-3c0.9-0.2,1.8-0.4,2.7-0.6c2.4-0.4,4.8-0.6,7.2-0.6c4.1-0.1,8.2,0.3,12.2,1.1
				c2.2,0.5,4.4,1.2,6.4,2.2C122.1,43.1,127.6,50.9,127.2,67.1z"/>
		</defs>
		<clipPath id="SVGID_4_">
			<use xlink:href="#SVGID_3_"  style="overflow:visible;"/>
		</clipPath>
		<g class="st12">
			<rect x="50.5" y="31.5" class="st0" width="79.2" height="93.4"/>
			<path class="st5" d="M86.9,107c-2.2,0.9-4.4,1.3-6.8,1.4c-2.4-0.1-4.8-0.6-7-1.4H86.9z"/>
			<path class="st3" d="M57.1,73.8c-0.1-1.3,0.4-2.6,1.3-3.6c1-1,2.3-1.6,3.7-1.7c1.3-0.1,2.7,0.1,3.9,0.6c0.6,0.3,1.2,0.5,1.7,0.8
				s1,0.7,1.5,1.1c0.3,0.2,0.4,0.7,0.1,1c-0.2,0.2-0.5,0.3-0.8,0.2h-0.1c-0.5-0.2-1.1-0.3-1.6-0.6l-1.6-0.5c-1-0.3-2-0.4-3-0.4
				c-1,0-1.9,0.3-2.7,0.8C58.6,72.2,57.8,73,57.1,73.8z"/>
			<path class="st3" d="M103.1,75.3c-1.8-0.7-3.3-1.3-4.9-1.8c-1.5-0.5-3-0.8-4.5-1c-1.5-0.1-3.1,0-4.6,0.3
				c-0.8,0.2-1.6,0.4-2.3,0.7c-0.8,0.3-1.5,0.6-2.4,0.9h-0.1c-0.4,0.1-0.7-0.1-0.9-0.4c0,0,0,0,0,0c-0.1-0.2,0-0.5,0.2-0.7
				c0.3-0.3,0.6-0.7,1-0.9c0.3-0.3,0.7-0.6,1.1-0.9c0.8-0.5,1.6-1,2.5-1.4c3.7-1.5,7.8-1.1,11.2,0.9C101.1,72,102.3,73.5,103.1,75.3
				z"/>
			<g>
				<defs>
					<path id="SVGID_5_" d="M71.4,82.7c0.7,4.8-0.6,8.6-3.1,9.9c-3.7-0.6-8.7-3.6-9.4-8.4s0.2-7.9,4.1-10
						C66.2,73.8,70.7,77.9,71.4,82.7z"/>
				</defs>
				<clipPath id="SVGID_6_">
					<use xlink:href="#SVGID_5_"  style="overflow:visible;"/>
				</clipPath>
				<g class="st13">
					
						<rect x="54.9" y="72.7" transform="matrix(0.2496 -0.9684 0.9684 0.2496 -30.3267 126.1487)" class="st14" width="22.6" height="20"/>
					<circle class="st15" cx="65.6" cy="85.1" r="7.3"/>
					<circle cx="65.6" cy="85.1" r="3.7"/>
					<path class="st16" d="M68.2,94.4c0,0,7.3-9.3-0.6-17c-1.4-1.2-3.1-1.8-4.9-1.6c0,0-2.2,0.1-3.2,3.4c-0.7,2.5-0.6,5.2,0.3,7.6
						l-5.4-1.5l2.8-21.4l16,5.1l1.8,25.6H68.2z"/>
				</g>
			</g>
			<g>
				<defs>
					<path id="SVGID_7_" d="M85.3,82.2c-2,4.6-1.7,8.8,0.5,10.8c3.8,0.3,9.7-1.4,11.8-6c1.6-3.6,3.2-8,0.2-10.8
						C94.7,74.9,87.3,77.5,85.3,82.2z"/>
				</defs>
				<clipPath id="SVGID_8_">
					<use xlink:href="#SVGID_7_"  style="overflow:visible;"/>
				</clipPath>
				<g class="st17">
					<rect x="80.6" y="73.1" class="st14" width="22.3" height="21.8"/>
					<circle class="st15" cx="90.5" cy="86.2" r="7.6"/>
					<circle cx="90.5" cy="86.2" r="3.8"/>
					<path class="st16" d="M85.5,94.8c0,0-4.9-11.4,5.1-17c1.7-0.9,3.7-1,5.4-0.3c0,0,2.2,0.7,2.3,4.2c0.1,2.7-0.7,5.4-2.3,7.6
						l5.9-0.1l2.8-22.3l-17.5,0.9L78.7,93L85.5,94.8z"/>
				</g>
			</g>
			<path class="st8" d="M83.1,37.6c-2,1.5-3.6,3.5-4.7,5.7c-1,2.1-1.5,4.4-1.4,6.7c0.1,2.3,0.7,4.6,1.6,6.8c0.5,1.1,1,2.2,1.6,3.2
				c0.3,0.5,0.6,1,1,1.5l0.5,0.7c0.1,0.2,0.3,0.4,0.4,0.6l-7-1.5l0,0c3.5-2,7.1-4,10.7-6.2s7-4.3,10.5-6.5s6.8-4.5,10-7
				c1.6-1.2,3.1-2.5,4.5-3.8c0.7-0.6,1.2-1.3,1.8-2c0.2-0.3,0.3-0.6,0.5-0.8c0-0.1,0.1-0.1,0.1-0.1c0,0.1,0.1,0.1,0.1,0.2
				c-0.6-0.8-0.5-1.9,0.2-2.5c0.8-0.6,1.9-0.5,2.5,0.2c0.4,0.5,0.6,1,0.7,1.6c0.1,0.5,0,0.9-0.1,1.4c-0.2,0.7-0.4,1.3-0.8,1.9
				c-0.6,1-1.3,1.9-2.1,2.7c-1.4,1.6-3,3.1-4.6,4.5c-3.2,2.8-6.5,5.4-9.8,7.9c-6.7,5-13.5,9.7-20.5,14.2l0,0l-1.5,1l-0.9-1.5
				c-0.8-1.3-1.5-2.6-2.1-4c-0.6-1.4-1.1-2.7-1.5-4.2c-0.9-2.9-1.2-5.9-1-8.9c0.2-3.1,1.2-6.1,2.9-8.7c1.7-2.5,3.9-4.6,6.4-6.2
				c0.8-0.5,1.9-0.2,2.4,0.6c0.4,0.7,0.3,1.7-0.3,2.2L83.1,37.6z"/>
		</g>
	</g>
	<g>
		<defs>
			<path id="SVGID_9_" d="M119.1,63.8c-3,4.8-6.9,9.3-6.6,10.1c0.2,0.7,1.3,0.9,2.6,0.3c0,0,15.2-4,18.6-9.8
				c8-13.6-7.3-18.8-11.5-18.7C127.2,52,122.5,58.3,119.1,63.8z"/>
		</defs>
		<clipPath id="SVGID_10_">
			<use xlink:href="#SVGID_9_"  style="overflow:visible;"/>
		</clipPath>
		<g class="st18">
			
				<rect x="107.2" y="49" transform="matrix(0.4529 -0.8916 0.8916 0.4529 12.5222 144.8511)" class="st5" width="34.1" height="26.4"/>
			<path class="st5" d="M114.7,66.4c0.1,4.5-2.4,6.7-2.1,7.5c0.2,0.7,1.3,0.9,2.6,0.3c0,0,11.6-3.9,11.5-10.5
				c-0.1-12-15.8-17.1-20-17C111.7,52.9,113.6,58.7,114.7,66.4z"/>
			<path class="st11" d="M115.3,67.7c2.9,0.6,5.5,2.4,6.9,5.1c2.5,4.5-3.7,5.2-8.4,2.7"/>
			<path class="st11" d="M116.8,64.9c3-1.4,6.5-1.8,9.8-1.2c5,1.3,5.3,8.7,0.8,12.5"/>
			<path class="st11" d="M134.2,67.1c0,0,5.2-7.6-1.4-10.5c-1.7-0.8-7.7-0.1-11.3,1.8"/>
			<path class="st11" d="M135.8,54.1c0,0-4.1-9.8-13-1"/>
		</g>
	</g>
</g>
<path id="r-arm" class="st0" d="M125.2,154.7c0-0.4,0-0.8,0-1.1c0.6-6.3,1.1-12.5,1.6-18.8l0.6-9.4l0.5-9.4
	c0.3-6.2,0.6-12.5,0.7-18.8s0.1-12.5-0.4-18.8c-0.3-3.7,2.7-6.9,6.8-7.5c0.3-0.1,0.7-0.1,1-0.1c4.6-0.2,8.6,2.8,8.9,6.7
	c0,0.4,0,0.8,0,1.2c-0.8,6.2-1,12.5-1.2,18.8s-0.1,12.5-0.1,18.8l0.1,9.4l0.2,9.4c0.2,6.3,0.4,12.5,0.8,18.8
	c0.3,4.6-3.9,8.6-9.3,8.8c-1.1,0.1-2.2-0.1-3.3-0.3C128.3,161.3,125.4,158.3,125.2,154.7z"/>
<g id="r-forearm">
	<g>
		<defs>
			<path id="SVGID_11_" d="M121.8,87.4c0,0-12-26.3,8.1-59.9c6.3-10.5,11.6-8.7,14.9-7.5c7.2,2.6,7.5,20.1,7.6,22.8
				c0.1,3.9,2,20.8,3,28.3c1.2,9.8-3.3,10.9-8,16.9c-2.8,3.6-1.4,12.1-9.2,13.5S127.6,96.2,121.8,87.4z"/>
		</defs>
		<clipPath id="SVGID_12_">
			<use xlink:href="#SVGID_11_"  style="overflow:visible;"/>
		</clipPath>
		<g class="st19">
			
				<rect x="95.1" y="40.8" transform="matrix(0.1614 -0.9869 0.9869 0.1614 54.0004 189.5613)" class="st8" width="86.8" height="44.5"/>
			<path class="st20" d="M137,107.3c1.7-9.3,2.1-18.7,1.1-28.1c-1.3-13.5-1-26,6.4-40.5c2.8-5.6-3.6-21.3-3.6-21.3l26.9,9.2
				L162,87.8l-11.2,18.7L137,107.3z"/>
		</g>
	</g>
</g>
<g id="r-hand">
	<path class="st0" d="M149.1,17.3c-0.8-3.3-4.1-7.9-5.4-10.7c-0.7-1.5-2-2.8-3.6-3.4c-1-0.6-2.2-0.6-3.2,0c-2.1,1.7-0.4,3.8,1.5,6.8
		s1.3,4.4,1.3,4.4S149.7,19.9,149.1,17.3z"/>
	<path class="st3" d="M143.4,11.7l-3.2-8.6c-1-0.6-2.2-0.6-3.2,0L143.4,11.7z"/>
	<path class="st0" d="M149,35.3c0,0,0.1-0.5,0.2-1.2c0.5-3.3,1.7-12.6-0.1-17.7c-2.3-6.3-14.6-8.4-21.2-2.9s-5.3,13.6-3.1,18.1
		s13.4,9.6,17.6,10.4C146.7,40.7,149,35.3,149,35.3z"/>
	<path class="st0" d="M143.8,17.1c0.8-3.2-4.1-9.3-6-12.7s-7-5.5-8.9-3.6c-0.1,0.1-0.2,0.2-0.3,0.4c-1.9,2.3,0.3,4.6,2.9,8
		c0.7,0.9,1.3,1.9,1.7,2.9c0.4,0.7,0.5,1.6,0.4,2.4C133.5,14.4,143,20.3,143.8,17.1z"/>
	<path class="st0" d="M153.4,19.9c1.7-5.2,2.5-10.5-1.6-9.7s-5.6,8.4-7.6,10.7s-4.1,6.6-3.2,9.3s4.8,6.4,7.2,3.2
		C150.9,29.9,153.4,19.9,153.4,19.9z"/>
	<path class="st3" d="M135.5,15c0,0,0.9-2.2-1.2-6.3c-1.6-2.8-3.6-5.4-5.8-7.6c-1.9,2.3,0.3,4.6,2.9,8c0.7,0.9,1.3,1.9,1.7,2.9
		L135.5,15z"/>
	<path class="st0" d="M126.1,16.5c0,0,0.6-1.7-2.1-5.3s-5-6.1-2.5-8.4c1.9-1.8,7,0.2,8.9,3.6s6.8,9.5,6,12.8S126.1,16.5,126.1,16.5z
		"/>
</g>
<g id="l-forearm">
	<g>
		<defs>
			<path id="SVGID_13_" d="M4.6,109.5c0,0-13.3-38.4,5.5-72.3c5.9-10.6,11.2-9.1,14.5-8c7.2,2.4,8.1,19.7,8.3,22.3
				c0.2,3.8,2.7,20.5,3.9,27.9c1.6,9.7-0.1,17.1-4.6,23.3c-2.6,3.6-4-3.6-11.8-1.9S14,110.4,4.6,109.5z"/>
		</defs>
		<clipPath id="SVGID_14_">
			<use xlink:href="#SVGID_13_"  style="overflow:visible;"/>
		</clipPath>
		<g class="st21">
			
				<rect x="-23.2" y="50" transform="matrix(0.1265 -0.992 0.992 0.1265 -54.1329 82.6853)" class="st8" width="86.1" height="44.1"/>
			<path class="st20" d="M19.9,116.1c0,0,11.6-20.4,9.5-36.1c-1.8-13.3-4.3-25.5-4.4-32.1c-0.1-6.2-4.4-21-4.4-21l27,8.2L44,95.9
				l-10.5,18.9L19.9,116.1z"/>
		</g>
	</g>
</g>
<g id="l-hand">
	<path class="st0" d="M29.2,44.2c0,0,0.1-0.5,0.2-1.2c0.4-3.3,1.3-12.5-0.7-17.5c-2.5-6.1-14.8-7.9-21.2-2.2S2.8,37,5,41.4
		s13.7,9,17.8,9.7C27.2,49.6,29.2,44.2,29.2,44.2z"/>
	<path class="st0" d="M36.5,31.8c2.5-4.8,4.2-9.9,0.1-9.8s-6.9,7.3-9.2,9.3s-5.1,5.8-4.6,8.5s3.7,7,6.5,4.3
		C32.4,41.2,36.5,31.8,36.5,31.8z"/>
	<path class="st0" d="M30.8,20.2c-3,3.3-2.6,5.1-2.6,5.1s-10,4.8-10.5,1.5c0-1.5,0.5-2.9,1.3-4.1c1.7-2.8,4.5-5.8,6-7.9
		c0.8-1.1,1.8-2,3-2.6c2.3-1.2,5-1.4,6.2-0.1C36.3,14.7,33.8,16.9,30.8,20.2z"/>
	<path class="st3" d="M24.3,19.7l-4,4.3c-0.5-0.3-1-0.7-1.2-1.3c1.7-2.8,4.5-5.8,6-7.9c0.8-1.1,1.8-2,3-2.6
		C29.4,14.5,27.1,16.6,24.3,19.7z"/>
	<path class="st0" d="M22.9,18.9c-0.8,0.8-1.5,1.7-2,2.7c-0.5,0.7-0.7,1.5-0.6,2.3c0,0-8,3.9-10,2.3c-0.2-0.2-0.4-0.5-0.4-0.8
		c-0.5-3.3,5-8.7,7.2-12c0.2-0.3,0.4-0.5,0.7-0.8c2.5-2.7,7-3.7,8.5-1.9c0.1,0.1,0.2,0.3,0.3,0.4C28.2,13.7,25.8,15.8,22.9,18.9z"/>
	<path class="st3" d="M17.5,19.9c-1.3,1.6-2.4,3.3-3.3,5.1c0,0-1.9,0.8-3.9,1.3c-0.2-0.2-0.4-0.5-0.4-0.8c-0.5-3.3,5-8.7,7.2-12
		c0.2-0.3,0.4-0.5,0.7-0.8c0.7-0.1,1.4,0.1,1.9,0.6C21.5,15.2,19.7,17.1,17.5,19.9z"/>
	<path class="st0" d="M4.6,27c1.1-3.2,4.8-7.3,6.4-10c0.9-1.4,2.3-2.5,3.9-3c1-0.5,2.3-0.3,3.2,0.3c1.9,1.9,0,3.8-2.2,6.5
		S14.2,25,14.2,25S3.7,29.4,4.6,27z"/>
</g>
</svg>
