<?xml version="1.0" encoding="utf-8"?>
<!-- Generator: Adobe Illustrator 25.2.0, SVG Export Plug-In . SVG Version: 6.00 Build 0)  -->
<svg version="1.1" id="Layer_1" xmlns="http://www.w3.org/2000/svg" xmlns:xlink="http://www.w3.org/1999/xlink" x="0px" y="0px"
	 viewBox="0 0 311.6 398.8" style="enable-background:new 0 0 311.6 398.8;" xml:space="preserve">
<style type="text/css">
	.st0{fill:#1B8B79;}
	.st1{fill:none;stroke:#33D08C;stroke-width:1.26;stroke-linecap:round;stroke-miterlimit:10;}
	.st2{fill:#44F5A0;}
	.st3{clip-path:url(#SVGID_2_);}
	.st4{fill:#F7EC17;}
	.st5{fill:none;stroke:#DDCD00;stroke-width:0.95;stroke-miterlimit:10;}
	.st6{fill:#33D08C;}
	.st7{fill:#891B6A;}
	.st8{fill:none;stroke:#DDCD00;stroke-miterlimit:10;}
	.st9{fill:#520551;}
	.st10{fill:#AA1A88;}
	.st11{fill:#C1983D;}
	.st12{clip-path:url(#SVGID_4_);}
	.st13{clip-path:url(#SVGID_6_);}
	.st14{fill:#F5FAFF;}
	.st15{fill:#9629FF;}
	.st16{fill:#023533;}
	.st17{clip-path:url(#SVGID_8_);}
	.st18{clip-path:url(#SVGID_10_);}
	.st19{fill:none;stroke:#33D08C;stroke-miterlimit:10;}
	.st20{clip-path:url(#SVGID_12_);}
	.st21{clip-path:url(#SVGID_14_);}
</style>
<g id="tail">
	<path class="st0" d="M193.7,26.7L193.7,26.7V27c0,0.2,0,0.4,0,0.6c0,0.5,0.1,0.9,0.1,1.3c0.1,0.9,0.2,1.9,0.3,2.9
		c0.1,1,0.3,1.9,0.4,2.9s0.3,2,0.5,2.9c0.8,4,1.8,7.9,3.1,11.7c0.3,1,0.7,1.9,1.1,2.8s0.7,1.9,1.1,2.8s0.9,1.8,1.3,2.8l0.6,1.4
		l0.7,1.3l1.4,2.7c0.5,0.9,1.1,1.7,1.6,2.6s1.1,1.8,1.7,2.6l1.9,2.5c1.2,1.7,2.6,3.3,4,4.8l1,1.2l1.3,1.4l2.6,2.8
		c0.9,0.9,1.7,1.9,2.5,2.9l2.4,3c0.8,1,1.5,2.1,2.3,3.1s1.5,2.1,2.2,3.2c2.9,4.4,5.3,9.2,7,14.1c0.4,1.3,0.8,2.6,1.1,3.9
		c0.3,1.3,0.6,2.6,0.7,4c0.1,0.7,0.1,1.3,0.1,2s0,1.4,0,2.1c0,0.7-0.1,1.4-0.2,2.1c-0.1,0.8-0.3,1.5-0.5,2.2c-0.2,1-1.2,1.6-2.2,1.4
		c-0.5-0.1-0.9-0.5-1.1-0.9l-0.5-1c-0.1-0.3-0.3-0.9-0.4-1.3l-0.3-0.7l-0.3-0.7c-0.2-0.5-0.4-1-0.7-1.4s-0.5-0.9-0.8-1.4
		c-0.5-0.9-1.2-1.8-1.8-2.7c-0.3-0.4-0.7-0.9-1-1.3s-0.6-0.9-1-1.3c-2.8-3.3-6-6.4-9.3-9.2c-0.4-0.4-0.8-0.7-1.2-1.1l-1.3-1
		c-0.9-0.7-1.7-1.4-2.6-2.1c-1.8-1.3-3.5-2.7-5.4-3.9l-2.8-1.9c-0.5-0.3-0.9-0.6-1.4-1l-1.6-1.2c-2.2-1.6-4.3-3.3-6.3-5.1l-3-2.8
		c-1-0.9-1.9-2-2.8-3s-1.9-2-2.7-3.1l-2.5-3.2l-1.3-1.6l-1.1-1.7l-2.3-3.5c-0.7-1.2-1.4-2.4-2-3.6s-1.3-2.4-1.9-3.7
		s-1.2-2.5-1.8-3.7l-1.6-3.8c-0.5-1.3-0.9-2.6-1.4-3.9c-0.2-0.7-0.4-1.3-0.6-2l-0.6-2c-0.4-1.3-0.7-2.7-1-4s-0.6-2.7-0.8-4.1
		s-0.4-2.8-0.6-4.2c-0.1-0.7-0.1-1.5-0.2-2.2c0-0.3-0.1-0.8-0.1-1.2v-0.6v-0.8c-0.2-7.6,5.8-13.9,13.4-14.1
		c6.4-0.2,12.1,4.2,13.7,10.4L193.7,26.7z"/>
	<path class="st1" d="M196.5,31.7c0,0-2,0.7-5,1.6c-3.5,1.1-7.1,2.1-10.8,2.8c-3.7,0.6-7.4,0.9-11.1,0.9c-1.8,0-3.5-0.1-5.3-0.3"/>
	<path class="st1" d="M197.2,39.7c0,0-1.8,0.9-4.4,2.1c-3.1,1.5-6.4,2.8-9.7,3.8s-6.8,1.6-10.2,1.9c-2.9,0.3-5,0.2-5,0.2"/>
	<path class="st1" d="M198.8,47.7c0,0-1.6,1.1-3.9,2.5c-2.7,1.7-5.5,3.3-8.5,4.6c-3,1.2-6.1,2.2-9.2,2.8c-1.5,0.3-3.1,0.5-4.6,0.7"
		/>
	<path class="st1" d="M201.2,55.6c0,0-1.3,1.2-3.2,2.8c-2.3,1.9-4.7,3.6-7.2,5.2c-2.6,1.5-5.3,2.6-8.2,3.5c-2.4,0.7-4.2,1.1-4.2,1.1
		"/>
	<path class="st1" d="M204.6,63.2c0,0-1.1,1.3-2.6,2.9c-1.8,2-3.7,3.8-5.8,5.5c-2.2,1.6-4.5,3-7,4c-1.2,0.5-2.5,1-3.7,1.3"/>
	<path class="st1" d="M209,70.4c0,0-0.8,1.3-1.9,3c-1.3,2-2.8,3.9-4.5,5.6c-1.8,1.7-3.7,3.1-5.9,4.2c-1,0.6-2.1,1.1-3.2,1.5"/>
	<path class="st1" d="M214.3,77.3l-0.3,0.8c-0.2,0.5-0.5,1.3-0.9,2.1c-0.8,2-2,3.8-3.3,5.5c-1.4,1.6-3,3-4.8,4.2
		c-0.8,0.5-1.4,1-1.9,1.2s-0.8,0.4-0.8,0.4"/>
	<path class="st1" d="M221.1,85.1c-0.3,0.9-0.7,1.8-1.1,2.6c-0.8,1.7-1.8,3.2-3.1,4.6c-1.3,1.3-2.9,2.4-4.5,3.2
		c-1.4,0.8-2.5,1.2-2.5,1.2"/>
	<path class="st1" d="M227.4,93.6c-0.3,0.8-0.6,1.5-1,2.2c-0.7,1.4-1.7,2.6-2.8,3.7c-1.2,0.9-2.6,1.7-4.1,2.1
		c-1.3,0.5-2.3,0.7-2.3,0.7"/>
	<path class="st1" d="M232.6,102.9c-0.3,0.6-0.6,1.2-0.9,1.8c-0.6,1.1-1.4,2-2.4,2.7c-1.1,0.6-2.3,0.9-3.5,1c-1.1,0.2-2,0.2-2,0.2"
		/>
	<path class="st1" d="M236,113.1c-0.2,0.5-0.5,1-0.8,1.4c-0.4,0.8-1.1,1.4-1.9,1.7c-0.8,0.2-1.7,0.1-2.5-0.2
		c-0.8-0.2-1.5-0.4-1.5-0.4"/>
</g>
<path id="r-arm" class="st2" d="M202.3,111c0.1,0.3,0.3,0.7,0.5,1c3.1,5.5,6.1,11,9,16.5l4.3,8.4l4.3,8.4c2.8,5.6,5.6,11.2,8.2,16.9
	s5.1,11.4,7.2,17.4c1.2,3.5,5.2,5.2,9.3,4.1c0.3-0.1,0.6-0.2,0.9-0.3c4.3-1.6,6.7-6,5.4-9.7c-0.1-0.4-0.3-0.7-0.5-1.1
	c-3.2-5.4-6-11-8.7-16.7s-5.1-11.4-7.6-17.2l-3.7-8.6l-3.6-8.7c-2.4-5.8-4.7-11.6-6.9-17.5c-1.6-4.4-7-6.3-12.1-4.3
	c-1,0.4-2,1-2.9,1.6C202.4,103.7,201,107.6,202.3,111z"/>
<g id="r-forearm">
	<g>
		<g>
			<defs>
				<path id="SVGID_1_" d="M236,148.2c0,0,27.5-0.2,49.6,32c6.9,10.1,3.1,14.2,0.7,16.7c-5.4,5.5-13.3,5.6-15.8,4.6
					c-3.6-1.5-19.7-6.8-26.9-9c-9.4-2.9-20.5-11-21.1-19.4c0,0,8-0.4,10-8.1S230.9,156.4,236,148.2z"/>
			</defs>
			<clipPath id="SVGID_2_">
				<use xlink:href="#SVGID_1_"  style="overflow:visible;"/>
			</clipPath>
			<g class="st3">
				
					<rect x="235.6" y="137.2" transform="matrix(0.5563 -0.831 0.831 0.5563 -35.656 294.3893)" class="st4" width="44.5" height="86.7"/>
				<path class="st5" d="M228.8,162c0,0,3.1,16.9,17.6,23.6c12.3,5.6,24.9,7.6,31,10.5c5.6,2.7,20.9,5.5,20.9,5.5l-19.5,20.6
					l-53.3-30.6l-12.3-18L228.8,162z"/>
			</g>
		</g>
	</g>
</g>
<g id="r-arm-2">
	<path class="st6" d="M300.7,196.6c1.1-1,2.5-1.7,4-1.9c2-0.1,3,0.6,3,1.6s-4.5,4.9-4.5,4.9l-5.2-2.4L300.7,196.6z"/>
	<path class="st6" d="M304.4,183c2.1,3.1-0.7,3.8-5.2,4.6c-2.4,0.4-2.7,2.6-2,4.4c1,2.5,6.9,0.8,9.1-0.4c3.1-1.7,4.9-0.6,5.1,1.8
		c0.2,2.9-4.9,4.9-4.9,4.9c-0.8,1.1-26.5,4.8-30.2,3.4c-6.2-2.3-3.2-14.2-3.2-14.2C287.7,175.2,301,178,304.4,183z"/>
	<path class="st2" d="M273.3,187.6c0,0,0.6-2.1,7,0s10.6,7.2,16.4,7.2s10.6-2.8,13.8,0c2,1.8,1.6,5.4-3.7,6.8
		c-7.9,2.1-22.3,4.8-28.8,2C271.7,200.9,270.5,196.2,273.3,187.6z"/>
	<path class="st6" d="M288.9,192c4.1,2.4,8.8,3.4,13.5,3c3.3-0.3,3.1,2.6,3.1,2.6s-0.9-2.1-4.4-1.6S291.2,193.7,288.9,192z"/>
</g>
<g id="l-thigh">
	<path class="st2" d="M163.5,208.2c0,0-22.8,8.2-28.3,13.2s-0.9,5.4-2.5,8.4c-1.6,3-3,2.8-7,8.1c-2.1,2.7,1,4.2,4.6,5
		c-2.6,1.7-4.8,3.5-5.1,4.9c-0.5,3.4,7.7,4,7.7,4l3.4-8c0.7,0.1,1.1,0.1,1.1,0.1L163.5,208.2z"/>
	<path class="st7" d="M175,234.5c-8.6,17.1-15.9,26.2-15.9,26.2s-7,7-15,7.1c-11.9,0.1-17-11.1-13.1-26.8c2.2-8.8,4.2-15.5,11.7-25
		c8.4-10.7,15-14.2,15-14.2S179.4,225.7,175,234.5z"/>
</g>
<g id="l-calf">
	<path class="st7" d="M168.1,366.5c-0.1,3.6-37.7-3.5-37.7-3.5s0.9-24.9,1.1-32.6c1-28.2-1.6-76.8-1.6-76.8s18.3-3.9,22.4-3.8
		c2.1,0,3.8,0.4,4.3,1.6c8.8,24.4,8.2,36,8,52.5c-0.3,13,0.4,26,2.2,38.9C167.8,350.4,168.1,366.2,168.1,366.5z"/>
	<path class="st4" d="M172.7,395.4c-3.3,0.4-6.6,0-9.8-1.1l0,0c-3.5-1.2-6.6-3.3-9.1-6.2c-6.2,2.2-8.4,5.8-12.1,8.2
		c-2.2,1.5-5,2.5-9.7,2.4c-5.9,0-10-0.2-10.2-2.6c-0.1-1.4-0.1-2.8,0.1-4.2c0.1-0.6,0.2-1.1,0.3-1.7c0,0-8.3,4-15.6,3.4l-1.4-0.1
		c-3.8-0.4-7.5-1.4-11-3c-2.4-11,24.4-20.6,29.4-28.2c7-10.7,8.1-54,8.1-54s2.3,13.6,11.1,22.3c16.2-13.5,21.8-26.5,21.8-26.5
		c0,1,1.4,24.5,4.1,50.5c1.4,13.3,4.4,21,6.7,26C178.5,387.4,177,395,172.7,395.4z"/>
	<path class="st8" d="M142.9,330.5c0,0-0.2,25.1-3.9,34.1s-12.5,16.3-10.3,34.1"/>
	<path class="st9" d="M135.8,265.2c1,1.2,2.3,2.1,3.8,2.8c0.6,0.3,1.3,0.5,1.9,0.5c0.2,0,0.4,0,0.6-0.1c0.2-0.1,0.4-0.3,0.6-0.5
		c0.4-0.6,0.9-1.2,1.2-1.8c0.4-0.7,0.7-1.4,1.1-2c0.7-1.4,1.3-2.9,1.9-4.5c0.3,1.7,0.3,3.4-0.2,5.1c-0.2,0.8-0.5,1.7-0.9,2.4
		c-0.4,0.8-0.8,1.6-1.4,2.3c-0.3,0.4-0.8,0.8-1.3,1.1c-0.6,0.3-1.2,0.4-1.8,0.3c-0.5-0.1-1-0.2-1.5-0.5
		C137.8,269.3,136.4,267.4,135.8,265.2L135.8,265.2z"/>
</g>
<g id="r-thigh">
	<path class="st2" d="M195.8,208.2c0,0,22.8,8.2,28.3,13.2s0.9,5.4,2.5,8.4c1.6,3,3,2.8,7,8.1c2.1,2.7-1.1,4.2-4.6,5
		c2.6,1.7,4.8,3.5,5.1,4.9c0.5,3.4-7.7,4-7.7,4l-3.4-8c-0.7,0.1-1.1,0.1-1.1,0.1L195.8,208.2z"/>
	<path class="st7" d="M184.4,234.5c8.6,17.1,15.9,26.2,15.9,26.2s7,7,15,7.1c11.9,0.1,17-11.1,13.1-26.8c-2.2-8.8-4.2-15.5-11.7-25
		c-8.4-10.7-15-14.2-15-14.2S179.9,225.7,184.4,234.5z"/>
</g>
<g id="r-calf">
	<path class="st7" d="M191.2,366.5c0.1,3.6,37.7-3.5,37.7-3.5s-0.9-24.9-1.2-32.6c-1-28.2,1.6-76.8,1.6-76.8s-18.3-3.9-22.4-3.8
		c-2.1,0-3.8,0.4-4.3,1.6c-8.8,24.4-8.2,36-8,52.5c0.3,13-0.4,26-2.2,38.9C191.5,350.4,191.2,366.2,191.2,366.5z"/>
	<path class="st4" d="M186.6,395.4c3.3,0.4,6.6,0,9.8-1.1l0,0c3.5-1.2,6.6-3.3,9.1-6.2c6.2,2.2,8.4,5.8,12.1,8.2
		c2.2,1.5,5,2.5,9.7,2.4c5.9,0,10-0.2,10.2-2.6c0.1-1.4,0.1-2.8-0.1-4.2c-0.1-0.6-0.2-1.1-0.3-1.7c0,0,8.3,4,15.6,3.4l1.4-0.1
		c3.8-0.4,7.5-1.4,11-3c2.5-11-24.4-20.6-29.4-28.2c-7-10.7-8.1-54-8.1-54s-2.3,13.6-11.1,22.3c-16.2-13.5-21.8-26.5-21.8-26.5
		c0,1-1.4,24.5-4.1,50.5c-1.4,13.3-4.4,21-6.7,26C180.8,387.4,182.3,395,186.6,395.4z"/>
	<path class="st8" d="M216.5,330.5c0,0,0.2,25.1,3.9,34.1s12.5,16.3,10.3,34.1"/>
	<path class="st9" d="M223.5,265.2c-0.5,2.2-2,4-4,5c-0.5,0.2-1,0.4-1.5,0.5c-0.6,0.1-1.3,0-1.8-0.3s-0.9-0.6-1.3-1.1
		c-0.6-0.7-1-1.5-1.4-2.3s-0.7-1.6-0.9-2.4c-0.4-1.7-0.5-3.4-0.2-5.1c0.6,1.6,1.2,3.1,1.9,4.5c0.4,0.7,0.7,1.4,1.1,2
		c0.4,0.6,0.8,1.3,1.2,1.8c0.2,0.2,0.4,0.4,0.6,0.5c0.2,0.1,0.4,0.2,0.6,0.1c0.7-0.1,1.3-0.3,1.9-0.5
		C221.2,267.3,222.5,266.4,223.5,265.2z"/>
</g>
<path id="l-arm" class="st2" d="M150.1,118.6c-0.4,0.1-0.8,0.2-1.1,0.2c-6.3,0.5-12.5,1.1-18.7,1.8l-9.3,1.1l-9.3,1.2
	c-6.2,0.9-12.4,1.6-18.6,2.7s-12.3,2.2-18.4,3.8c-3.6,0.9-7.2-1.4-8.6-5.4c-0.1-0.3-0.2-0.6-0.3-0.9c-1.1-4.5,1.2-8.9,5-9.9
	c0.4-0.1,0.8-0.2,1.2-0.2c6.3-0.4,12.5-1.2,18.7-2.2s12.3-2.2,18.5-3.3l9.2-1.8l9.2-1.9c6.1-1.3,12.3-2.7,18.4-4.2
	c4.5-1.1,9.1,2.3,10.3,7.6c0.2,1.1,0.3,2.2,0.2,3.3C156.1,114.3,153.7,117.7,150.1,118.6z"/>
<g id="torso">
	<path class="st0" d="M202.9,167.7c0-12.1-10.4-23.2-23.1-23.2s-23.1,11.1-23.1,23.2c2,5,6.5,10,23.1,10S200,174.5,202.9,167.7z"/>
	<path class="st7" d="M205.3,199.2c2.1,3.2,3.8,6.6,5.1,10.2c-1.3,3.1-10,9.1-13,13.6c-4.9,7.2-3.7,17-9.5,21.4
		c-2.4,1.7-5.3,2.5-8.3,2.4c-2.9,0.1-5.8-0.6-8.2-2.2c-5.7-4.1-4.4-13.4-9.5-21.6c-2.8-4.5-11.8-10.3-13.2-13.6
		c2.7-5.2,5.3-10.1,5.3-10.1L205.3,199.2z"/>
	<path class="st7" d="M201.1,179.7c0-15.5,17.4-45.9,9.4-83.7c-15.7-5.7-47.3-5.7-61.7,0c-8.1,35.9,9.4,67.6,9.4,83.7
		c0,0.5,0,1,0.1,1.5c-1.2,11-6.8,22.4-6.8,22.4s18.3,15,27.6,32c9.2-17.1,28.3-31.9,28.3-31.9s-5.1-10.5-6.6-21.1
		C201.1,181.6,201.1,180.6,201.1,179.7z"/>
	<path class="st10" d="M196.4,161.1c3.1-9.3,9.6-20,10.7-29.7c0.8-6.9,1-13.8,0.7-20.7c0-3.8-0.5-7.6-1.4-11.3c-1.1-3.7-2-4.6-5.9-7
		l-20.7,20.9l-20.2-20.9c-3,1.3-5.3,3.8-6.2,7c-1,3.7-1.5,7.5-1.5,11.4c-0.3,6.9,0,13.8,0.7,20.7c1.1,9.7,7.6,20.4,10.7,29.7
		c1.3,3.9,16.4,47.5,16.4,47.5S195.2,165,196.4,161.1z"/>
	<path class="st6" d="M190.7,82.3c0,0-3.6-2.2-11.1-2.2s-11.1,2.2-11.1,2.2l1.3-11.3c0,0,2.4-0.7,9.8-0.7s9.4,0.6,9.4,0.6
		L190.7,82.3z"/>
	<path class="st11" d="M195.3,84.9c1.6-15.9-25.6-11.4-28.7-7c-0.9,1.4-2.8,11.8,0,14.1C174.2,98.3,194.1,96.5,195.3,84.9z"/>
	<polygon class="st6" points="160.9,91.7 179.3,89.5 197.5,91.4 179.9,112.6 	"/>
	<path class="st6" d="M189.8,105.9c0,0-2.8,7.3-10.1,7.3s-10.1-7.3-10.1-7.3c0.8-7.1,1.1-14.2,1-21.3c0-13.9-0.7-25.3-0.7-25.3h19.6
		c0,0-0.7,11.4-0.7,25.3C188.7,91.7,189,98.8,189.8,105.9z"/>
	<path class="st4" d="M180.3,113.7L180.3,113.7c-2,0.1-3.9-0.5-5.6-1.6c-3-1.9-5.7-4.2-8-6.9c-2.7-2.9-5.1-6.1-6.9-9.6
		c-1.9-3.5-2.8-7.4-2.8-11.4c0-2.5,0.7-5,2.1-7.2c2.3-3.3,6.7-5.2,10.5-6l1-0.2c0,1.4,0,2.8,0,4.3c0,2,0,13.7-0.1,15.4
		c0,0-2.7,1.2-2,3.7c0.7,2.6,1.7,5.1,3,7.4c1.3,2.4,2.9,5.1,4.4,7.3C177.2,110.6,179.4,112,180.3,113.7z"/>
	<path class="st4" d="M179.3,113.7L179.3,113.7c2,0.1,3.9-0.5,5.6-1.6c3-1.9,5.7-4.2,8-6.9c2.7-2.9,5.1-6.1,6.9-9.6
		c1.9-3.5,2.8-7.4,2.8-11.4c0-2.5-0.7-5-2.1-7.2c-2.3-3.3-6.7-5.2-10.5-6l-1-0.2c0,1.4,0,2.8,0,4.3c0,2,0,13.8,0.1,15.5
		c0,0.1,2.7,1,2,3.6s-1.7,5.1-3,7.4c-1.3,2.4-2.9,5.1-4.4,7.3C182.3,110.6,180.2,112,179.3,113.7z"/>
	<path class="st4" d="M164.8,90.7c0,0-18.7,13.9-16,46.2c0,0-18-30.4-9.6-41.3C146.8,93.7,164.8,90.7,164.8,90.7z"/>
	<path class="st4" d="M194.7,90.7c0,0,18.7,13.9,16,46.2c0,0,18-30.4,9.6-41.3C212.7,93.7,194.7,90.7,194.7,90.7z"/>
</g>
<g id="head">
	<g>
		<g>
			<defs>
				<path id="SVGID_3_" d="M201,56.9c-2.7,2.7-6.4,11.5-8.2,15.5c-3.2,7.1-6.9,11.3-13.1,11.3s-9.8-4.3-13.1-11.3
					c-1.9-4-5.4-12.8-8.3-15.6c-7.4-7.4-10-17.8-8.4-29.2C152.6,8.6,162.2,0,179.6,0s27.5,9.1,29.7,27.6
					C210.9,39.1,208.4,49.6,201,56.9z"/>
			</defs>
			<clipPath id="SVGID_4_">
				<use xlink:href="#SVGID_3_"  style="overflow:visible;"/>
			</clipPath>
			<g class="st12">
				<rect x="148.1" y="-3.2" class="st2" width="63.4" height="89.4"/>
				<path class="st4" d="M166.8,2.9c-0.2,0.7-0.1,1.4,0.2,2.1c0.4,1,0.8,2,1.4,2.8c1.3,2,2.8,3.8,4.4,5.5c1.6,1.8,3.4,3.5,5.1,5.2
					s3.6,3.3,5.4,4.8l-7.3,0.1c1.8-1.5,3.6-3.2,5.4-4.9s3.5-3.4,5.1-5.2c1.6-1.7,3.1-3.6,4.4-5.6c0.6-0.9,1.1-1.8,1.6-2.8
					c0.3-0.6,0.4-1.3,0.3-2l-0.2-0.5c-0.3-0.9,0.2-1.9,1.1-2.2c0.7-0.2,1.4,0,1.9,0.5c0.6,0.8,1,1.7,1,2.7c0.1,0.8,0,1.6-0.2,2.4
					c-0.3,1.4-0.8,2.7-1.4,3.9c-1.2,2.3-2.5,4.5-4.1,6.6c-1.5,2.1-3.1,4.1-4.7,6s-3.3,3.9-5,5.7l-1.3,1.4l-1.5-1.3
					c-1.8-1.9-3.5-3.8-5.1-5.7s-3.2-4-4.7-6c-1.6-2.1-2.9-4.3-4.1-6.7c-0.6-1.3-1.1-2.6-1.4-4c-0.2-0.8-0.2-1.6-0.1-2.4
					c0.1-0.9,0.4-1.9,1-2.6c0.5-0.8,1.5-1.1,2.4-0.6c0.8,0.5,1.1,1.5,0.6,2.4l0,0L166.8,2.9z"/>
			</g>
		</g>
	</g>
	<g>
		<g>
			<defs>
				<path id="SVGID_5_" d="M187.4,41.8c-2,4.6-1.7,8.8,0.5,10.8c3.9,0.3,10.8-1,13.3-5.3c2-3.4,3.1-7.9-0.4-11.3
					C196.4,34.4,189.4,37.2,187.4,41.8z"/>
			</defs>
			<clipPath id="SVGID_6_">
				<use xlink:href="#SVGID_5_"  style="overflow:visible;"/>
			</clipPath>
			<g class="st13">
				<rect x="182.6" y="32.8" class="st14" width="22.3" height="21.8"/>
				<circle class="st15" cx="192.5" cy="45.8" r="7.6"/>
				<circle cx="192.5" cy="45.8" r="3.8"/>
				<path class="st16" d="M187.6,54.4c0,0-5.1-10.6,4.9-16.3c1.3-0.8,5.2-1.3,6.7-0.5c1,0.7,2.1,1.5,2.1,5.3c-0.1,3.1-1.5,6-4,7.8
					l6.7-1.9l2.8-22.3l-17.5,0.9l-8.6,25.3L187.6,54.4z"/>
			</g>
		</g>
	</g>
	<g>
		<g>
			<defs>
				<path id="SVGID_7_" d="M172,41.8c2,4.6,1.7,8.8-0.5,10.8c-3.9,0.3-10.8-1-13.3-5.3c-2-3.4-3.1-7.9,0.4-11.3
					C163,34.4,170,37.2,172,41.8z"/>
			</defs>
			<clipPath id="SVGID_8_">
				<use xlink:href="#SVGID_7_"  style="overflow:visible;"/>
			</clipPath>
			<g class="st17">
				<rect x="154.5" y="32.8" class="st14" width="22.3" height="21.8"/>
				<circle class="st15" cx="166.9" cy="45.8" r="7.6"/>
				<circle cx="166.9" cy="45.8" r="3.8"/>
				<path class="st16" d="M171.8,54.4c0,0,5.1-10.6-4.9-16.3c-1.3-0.8-5.2-1.3-6.7-0.5c-1,0.7-2.1,1.5-2.1,5.3c0.1,3.1,1.5,6,4,7.8
					l-6.7-1.9l-2.8-22.3l17.5,0.9l8.6,25.3L171.8,54.4z"/>
			</g>
		</g>
	</g>
	<path class="st0" d="M188.2,65.5c-2.6,0.9-5.4,1.4-8.1,1.4c-2.9-0.1-5.7-0.6-8.4-1.4H188.2z"/>
	<path class="st6" d="M155.7,31.5c0.7-1,1.7-1.8,2.8-2.4c1.1-0.6,2.4-1,3.6-1.1c1.3-0.1,2.6-0.1,3.9,0.1c0.6,0.1,1.3,0.2,1.9,0.4
		l1.9,0.5c0.8,0.3,1.2,1.3,0.9,2.1s-1.3,1.2-2.1,0.9h-0.1l-1.5-0.8c-0.5-0.2-1-0.5-1.5-0.7c-1-0.4-2.1-0.7-3.2-0.8
		c-1.1-0.1-2.3,0-3.4,0.2C157.7,30.2,156.6,30.7,155.7,31.5z"/>
	<path class="st6" d="M203.7,31.5c-0.9-0.8-1.9-1.4-3.1-1.7c-1.1-0.3-2.2-0.4-3.4-0.2c-1.1,0.1-2.2,0.4-3.2,0.8
		c-0.5,0.2-1,0.5-1.5,0.7l-1.5,0.8h-0.1c-0.8,0.4-1.8,0.1-2.2-0.6c-0.4-0.8-0.1-1.8,0.6-2.2l0,0c0.1-0.1,0.2-0.1,0.3-0.1l1.9-0.5
		c0.6-0.1,1.3-0.3,1.9-0.4c1.3-0.2,2.6-0.2,3.9-0.1c1.3,0.1,2.5,0.5,3.6,1.1C202,29.6,203,30.5,203.7,31.5z"/>
	<g>
		<g>
			<defs>
				<path id="SVGID_9_" d="M150.1,27.7c-0.1,4.5,2.4,6.7,2.1,7.5c-0.2,0.7-1.3,0.9-2.6,0.3c0,0-11.6-3.9-11.5-10.5
					c0.1-12,15.8-17.1,20-17C153.1,14.2,151.2,20,150.1,27.7z"/>
			</defs>
			<clipPath id="SVGID_10_">
				<use xlink:href="#SVGID_9_"  style="overflow:visible;"/>
			</clipPath>
			<g class="st18">
				<path class="st0" d="M150.1,27.7c-0.1,4.5,2.4,6.7,2.1,7.5c-0.2,0.7-1.3,0.9-2.6,0.3c0,0-11.6-3.9-11.5-10.5
					c0.1-12,15.8-17.1,20-17C153.1,14.2,151.2,20,150.1,27.7z"/>
				<path class="st19" d="M151.7,29.4c-2.3-1.9-5.4-2.6-8.3-2c-5.1,1-1.6,6.2,3.3,8.1"/>
				<path class="st19" d="M152.9,26.4c0,0-0.6-3.1-4.8-6.1s-10.7-0.6-10.7,5.3"/>
				<path class="st19" d="M144.7,12.5c1.1-0.5,2.3-0.5,3.4-0.1c2.7,1.2,4.7,3.6,5.3,6.6"/>
				<path class="st19" d="M154.3,7.6c0,0,3.8,0.4,3.8,6.7"/>
			</g>
		</g>
	</g>
	<g>
		<g>
			<defs>
				<path id="SVGID_11_" d="M209.5,27.7c0.1,4.5-2.4,6.7-2.1,7.5c0.2,0.7,1.3,0.9,2.6,0.3c0,0,11.6-3.9,11.5-10.5
					c-0.1-12-15.8-17.1-20-17C206.5,14.2,208.4,20,209.5,27.7z"/>
			</defs>
			<clipPath id="SVGID_12_">
				<use xlink:href="#SVGID_11_"  style="overflow:visible;"/>
			</clipPath>
			<g class="st20">
				<path class="st0" d="M209.5,27.7c0.1,4.5-2.4,6.7-2.1,7.5c0.2,0.7,1.3,0.9,2.6,0.3c0,0,11.6-3.9,11.5-10.5
					c-0.1-12-15.8-17.1-20-17C206.5,14.2,208.4,20,209.5,27.7z"/>
				<path class="st19" d="M207.9,29.4c2.3-1.9,5.4-2.6,8.3-2c5.1,1,1.6,6.2-3.3,8.1"/>
				<path class="st19" d="M206.7,26.4c0,0,0.6-3.1,4.8-6.1s10.7-0.7,10.7,5.3"/>
				<path class="st19" d="M214.9,12.5c-1.1-0.5-2.3-0.5-3.4-0.1c-2.7,1.2-4.7,3.6-5.3,6.6"/>
				<path class="st19" d="M205.3,7.6c0,0-3.8,0.4-3.8,6.7"/>
			</g>
		</g>
	</g>
</g>
<g id="l-forearm">
	<g>
		<g>
			<defs>
				<path id="SVGID_13_" d="M92.6,136.4c0,0-35.3,7.9-68.5-12.7c-10.4-6.4-8.6-11.7-7.3-15c2.7-7.2,20.2-7.2,22.9-7.2
					c3.9-0.1,20.8-1.8,28.3-2.6c9.8-1.1,23.2,1.9,27.1,9.3c0,0-12.4,3-11.2,10.9S94,127,92.6,136.4z"/>
			</defs>
			<clipPath id="SVGID_14_">
				<use xlink:href="#SVGID_13_"  style="overflow:visible;"/>
			</clipPath>
			<g class="st21">
				
					<rect x="37.3" y="72.2" transform="matrix(0.1752 -0.9845 0.9845 0.1752 -64.6347 153.9955)" class="st4" width="44.5" height="86.7"/>
				<path class="st5" d="M93.7,121c0,0-9.6-14.3-25.7-14.5c-13.5-0.2-25.9,3-32.6,2.9c-6.2-0.2-21.4,3.4-21.4,3.4L23.6,86l61.1,6.6
					l18.5,11.5L93.7,121z"/>
			</g>
		</g>
	</g>
</g>
<g id="l-hand">
	<path class="st6" d="M8.7,103.2c-0.3-1.5-1-2.9-2-4c-1.5-1.3-2.8-1.4-3.4-0.6s0.5,6.6,0.5,6.6l5.6,1.3L8.7,103.2z"/>
	<path class="st6" d="M38.3,118.5l-0.2,0.2c-1.2,1.1-8.2,6.9-14,5c-3.8-1.2-9.5-4.8-13.8-8.4c-2.8-2.4-4-3.7-5.2-6.1
		c-0.4-0.9-0.9-1.9-1.4-3.2c0,0-2.9-4-2.1-6.8c0.6-2,2.7-3.1,4.7-2.5c0.8,0.2,1.5,0.7,1.9,1.4c1.3,1.5,1.8,4.2,4.3,4.1
		c0.6,0,1.2-0.1,1.7-0.4c1.8-1,2.8-2.9,1.2-4.7c-3-3.4-4.8-5.6-1.2-6.8c5.1-1.7,17.2,7.2,22.4,22.3l0,0
		C37.4,114.5,37.9,116.5,38.3,118.5z"/>
	<path class="st6" d="M14.1,112.7c-3.7-1.7-7.2-4-10.3-6.6c0.5,1.3,0.9,2.3,1.4,3.2C7.9,111,10.9,112.1,14.1,112.7z"/>
	<path class="st2" d="M38.3,118.5l-0.2,0.2c-1.2,1.1-8.2,6.9-14,5c-3.8-1.2-9.5-4.8-13.8-8.4c-2.8-2.4-11.3-9.5-10.2-15.1
		C0.5,97.9,3.2,97,6,99.3c6,5,10.1,7.1,11.3,7.2c7.1,0.9,9.3-0.5,16.1,2.8c1.4,0.7,2.6,1.9,3.4,3.2l0,0
		C37.9,114.4,38.4,116.4,38.3,118.5z"/>
</g>
</svg>
