<?xml version="1.0" encoding="utf-8"?>
<!-- Generator: Adobe Illustrator 25.2.0, SVG Export Plug-In . SVG Version: 6.00 Build 0)  -->
<svg version="1.1" id="Layer_1" xmlns="http://www.w3.org/2000/svg" xmlns:xlink="http://www.w3.org/1999/xlink" x="0px" y="0px"
	 viewBox="0 0 199.3 469.8" style="enable-background:new 0 0 199.3 469.8;" xml:space="preserve">
<style type="text/css">
	.st0{fill:#44F5A0;}
	.st1{clip-path:url(#SVGID_2_);}
	.st2{fill:#F7EC17;}
	.st3{fill:none;stroke:#DDCD00;stroke-width:0.95;stroke-miterlimit:10;}
	.st4{fill:#33D08C;}
	.st5{fill:#891B6A;}
	.st6{fill:#DDCD00;}
	.st7{fill:#721267;}
	.st8{fill:#1B8B79;}
	.st9{fill:none;stroke:#33D08C;stroke-width:1.02;stroke-linecap:round;stroke-miterlimit:10;}
	.st10{fill:none;stroke:#DDCD00;stroke-miterlimit:10;}
	.st11{fill:#AA1A88;}
	.st12{clip-path:url(#SVGID_4_);}
	.st13{clip-path:url(#SVGID_6_);}
	.st14{fill:none;stroke:#33D08C;stroke-miterlimit:10;}
	.st15{clip-path:url(#SVGID_8_);}
	.st16{clip-path:url(#SVGID_10_);}
	.st17{fill:#F5FAFF;}
	.st18{fill:#9629FF;}
	.st19{fill:#022538;}
	.st20{clip-path:url(#SVGID_12_);}
	.st21{clip-path:url(#SVGID_14_);}
</style>
<path id="l-arm" class="st0" d="M114.6,108.3c-0.1,0.4-0.2,0.8-0.3,1.1c-2,6-3.8,12-5.6,18l-2.6,9l-2.6,9.1
	c-1.6,6-3.3,12.1-4.8,18.2s-2.8,12.2-3.7,18.4c-0.5,3.6-4.1,6.1-8.3,5.8c-0.3,0-0.7,0-1-0.1c-4.5-0.8-7.8-4.6-7.2-8.5
	c0.1-0.4,0.2-0.8,0.3-1.1c2.1-5.9,3.7-12,5.3-18.1s2.8-12.2,4.2-18.3l1.9-9.2l1.8-9.2c1.2-6.2,2.3-12.3,3.3-18.5
	c0.7-4.6,5.7-7.5,11-6.6c1.1,0.2,2.1,0.5,3.1,1C113,101.2,115.2,104.7,114.6,108.3z"/>
<g id="l-forearm">
	<g>
		<g>
			<defs>
				<path id="SVGID_1_" d="M83.7,193.2c0,0-28.5,5-55.9-22.8c-8.5-8.7-5.5-13.4-3.5-16.3c4.3-6.3,21.3-2.2,23.9-1.6
					c3.8,0.8,20.6,3.2,28.1,4.2c9.8,1.3,9.7,6,14.3,12c2.8,3.6,11.3,4.4,10.7,12.3S93.7,189.7,83.7,193.2z"/>
			</defs>
			<clipPath id="SVGID_2_">
				<use xlink:href="#SVGID_1_"  style="overflow:visible;"/>
			</clipPath>
			<g class="st1">
				
					<rect x="42" y="127.5" transform="matrix(0.404 -0.9147 0.9147 0.404 -117.9903 160.646)" class="st2" width="44.5" height="86.7"/>
				<path class="st3" d="M106.7,183.5c-8.5-4-17.6-6.7-26.9-8.1c-13.3-2.1-25.4-5.6-37.6-16.3c-4.7-4.1-21.5-1.8-21.5-1.8l15.7-23.7
					l57.8,20.9l15.3,15.6L106.7,183.5z"/>
			</g>
		</g>
	</g>
</g>
<g id="l-hand">
	<path class="st0" d="M18.4,163.3C15,163.6,10,166.2,7,167c-1.6,0.5-3,1.6-3.9,3c-0.7,0.9-0.9,2.1-0.5,3.2c1.4,2.3,3.7,1,6.9-0.4
		c2.3-0.8,4.8-1,7.2-0.6C16.7,172.1,21,163.1,18.4,163.3z"/>
	<path class="st4" d="M12.9,165l-9,3.9c-0.7,0.9-0.9,2.1-0.5,3.2c0,0,7-4.8,10.1-3.2C14.1,168,12.9,165,12.9,165z"/>
	<path class="st0" d="M40,153.8l-1.1-0.5c-3.1-1.3-11.7-4.8-17.1-4.3c-6.7,0.6-11.8,12.1-8.2,19.8s11.8,8.5,16.7,7.6
		s12.6-10.6,14.5-14.4C44.7,157.4,40,153.8,40,153.8z"/>
	<path class="st0" d="M30.2,143.2c-4-3.8-8.4-6.8-9.4-2.9s5.7,10,5.8,14.4c0,3.1,3.9,9.6,6.7,9.9s9.6-5.9,7.8-9.4
		C39.1,151.4,30.2,143.2,30.2,143.2z"/>
	<path class="st0" d="M0.7,168.9c-0.1-0.1-0.2-0.2-0.3-0.4c-0.8-1.1-0.4-3,0.7-4.7c1-1.6,2.5-2.9,4.3-3.6c1.8-0.6,4.3-1.9,6.7-2.9
		c2.6-1.1,5.2-1.8,6.8-1.1c3.1,1.3-4.2,9.8-4.2,9.8c-0.8-0.3-1.7-0.3-2.5,0c-1.1,0.3-2.2,0.7-3.2,1.2C5.3,169.3,2.7,171.1,0.7,168.9
		z"/>
	<path class="st4" d="M1.1,163.9c1-1.6,2.5-2.9,4.3-3.6c1.8-0.6,4.3-1.9,6.7-2.9c1.3,0.4,2.5,0.8,3.7,1.4v2.1
		c-2.9,0.1-6.5,3.1-7.8,3.8C4.2,166.8,2.9,165.9,1.1,163.9z"/>
	<path class="st0" d="M19.1,158.7c0,0-1.6-0.8-5.6,1.2s-6.7,4-8.7,1.2c-1.5-2.1,1.2-6.9,5-8.2s10.4-5.3,13.5-4
		S19.1,158.7,19.1,158.7z"/>
</g>
<g id="l-calf">
	<path class="st5" d="M133.9,427.1c0,3.6-37.8-2.5-37.8-2.5s0.2-24.9,0.3-32.6c0.3-28.2-3.5-76.7-3.5-76.7s18.2-4.3,22.3-4.4
		c2.1,0,3.9,0.3,4.3,1.5c9.4,24.1,9.1,35.8,9.3,52.2c0,13,1.1,26,3.1,38.8C133.3,411,133.9,426.8,133.9,427.1z"/>
	<path class="st6" d="M89.5,423.9c-4.8,7.7-46.5,5.8-41,26.7l18.4,1.2c-0.1,2.1-0.1,4.3,0.2,6.4c0.3,2.4,11.7,2.2,17.5,1.6
		c15.7-1.6,14.8-8.2,35.7-10.8c0,0,22.1,3.5,28.3,3c4.4-0.4,0.1-8.2-6.9-11.2c-6-2.7-5.6-12.6-7.3-25.8c-3.4-26.9-5.4-51.4-5.3-50.4
		c0,0-18.8,11.5-32.4,27.4C95.2,400.7,96.2,413,89.5,423.9z"/>
</g>
<g id="l-thigh">
	<path class="st4" d="M101.8,215.4c-5.7,11.3-14,22.7-15.7,31.6s2.4,6.6,2.8,11s-0.9,5-1.1,13.3c-0.1,4.2,3.3,4.1,6.7,3
		c-1.1,3.5-1.9,6.9-1.3,8.6c1.6,4.2,8.6,0,8.6,0C99.9,260.4,99.8,237.8,101.8,215.4z"/>
	<path class="st5" d="M139.3,230.2c-1.6,5.1-3,10.1-4.4,14.8c-12.2,43.1-16.1,70.5-16.1,70.5s-4.1,9.5-12.5,10.5
		c-12.4,1.5-14.6-11.7-14.6-11.7s-3.5-16.8-1.5-48.8c0.9-14.2,2.4-31.5,11.7-51.2c9.5-20.3,30.8-11.4,30.8-11.4
		S145,211.6,139.3,230.2z"/>
	<path class="st7" d="M136.9,245c-12.3,43.1-17.5,64.5-17.5,64.5l-4.9-73.2L136.9,245z"/>
</g>
<g id="tail">
	<path class="st8" d="M153,29.3L153,29.3v0.3c0,0.2,0,0.4,0,0.6c0,0.5,0.1,0.9,0.1,1.3c0.1,0.9,0.2,1.9,0.3,2.9
		c0.1,1,0.3,1.9,0.4,2.9s0.3,2,0.5,3c0.8,4,1.8,7.9,3.2,11.7c0.3,1,0.7,1.9,1.1,2.8s0.7,1.9,1.1,2.8s0.9,1.8,1.3,2.8l0.6,1.4
		l0.7,1.3l1.4,2.7c0.5,0.9,1.1,1.7,1.6,2.6s1.1,1.8,1.7,2.6l1.9,2.5c1.2,1.7,2.6,3.3,4,4.8l1,1.2l1.3,1.4l2.6,2.8
		c0.9,0.9,1.7,1.9,2.5,2.9l2.4,3c0.8,1,1.6,2.1,2.3,3.1s1.5,2.1,2.2,3.2c2.9,4.4,5.3,9.2,7,14.2c0.4,1.3,0.8,2.6,1.1,3.9
		s0.6,2.6,0.7,4c0.1,0.7,0.1,1.3,0.2,2c0,0.7,0,1.3,0,2s-0.1,1.4-0.2,2.1c-0.1,0.8-0.3,1.5-0.5,2.2c-0.3,1-1.3,1.5-2.3,1.2
		c-0.5-0.1-0.9-0.5-1.1-0.9l-0.5-1c-0.1-0.3-0.3-0.9-0.4-1.3l-0.3-0.7l-0.3-0.7c-0.2-0.5-0.4-1-0.7-1.4c-0.2-0.5-0.5-0.9-0.8-1.4
		c-0.5-0.9-1.2-1.8-1.8-2.7c-0.3-0.4-0.7-0.9-1-1.3s-0.6-0.9-1-1.3c-2.8-3.4-6-6.4-9.3-9.2c-0.4-0.4-0.8-0.7-1.2-1.1l-1.3-1
		c-0.9-0.7-1.7-1.4-2.6-2.1c-1.9-1.3-3.6-2.7-5.4-3.9l-2.8-1.8l-1.4-1l-1.6-1.2c-2.2-1.6-4.3-3.3-6.3-5.1l-3-2.8c-1-0.9-1.9-2-2.8-3
		s-1.9-2-2.8-3.1l-2.5-3.2l-1.3-1.6l-1.1-1.7l-2.3-3.4c-0.7-1.2-1.4-2.4-2.1-3.6s-1.3-2.4-1.9-3.7s-1.2-2.5-1.8-3.7l-1.5-3.8
		c-0.5-1.3-0.9-2.6-1.4-3.9c-0.2-0.7-0.4-1.3-0.6-2l-0.6-2c-0.4-1.3-0.7-2.7-1-4s-0.6-2.7-0.8-4.1s-0.4-2.8-0.6-4.2
		c-0.1-0.7-0.1-1.5-0.2-2.2c0-0.3-0.1-0.8-0.1-1.2v-0.6v-0.8c-0.2-7.6,5.9-13.9,13.5-14.1c6.4-0.1,12.1,4.2,13.7,10.4L153,29.3z"/>
	<path class="st9" d="M153,34.7c0,0-1.6,0.7-4.1,1.5c-2.9,1.1-5.8,1.9-8.9,2.5c-3,0.5-6.1,0.7-9.2,0.6c-1.5-0.1-2.9-0.2-4.4-0.4"/>
	<path class="st9" d="M154.3,42.8c0,0-1.5,0.8-3.7,1.9c-2.6,1.3-5.3,2.5-8.1,3.4c-2.8,0.8-5.8,1.3-8.7,1.5c-1.4,0.1-2.8,0.1-4.2,0.1
		"/>
	<path class="st9" d="M156.3,51c0,0-1.3,1-3.3,2.3c-2.3,1.6-4.8,2.9-7.4,4.1c-2.6,1.1-5.3,1.8-8,2.3c-1.3,0.2-2.7,0.4-4,0.5"/>
	<path class="st9" d="M159.3,58.8c0,0-1.1,1.1-2.8,2.5c-2,1.8-4.1,3.3-6.3,4.7c-2.3,1.3-4.8,2.3-7.3,3c-1.2,0.4-2.5,0.6-3.8,0.8"/>
	<path class="st9" d="M163,66.4c0,0-0.9,1.2-2.3,2.7c-1.6,1.9-3.3,3.6-5.2,5.1c-2,1.5-4.2,2.6-6.5,3.5c-1.1,0.5-2.3,0.8-3.4,1.1"/>
	<path class="st9" d="M167.8,73.5c0,0-0.7,1.2-1.7,2.8c-1.2,1.9-2.6,3.7-4.2,5.3c-1.6,1.5-3.5,2.9-5.5,3.9c-1,0.5-2,1-3,1.4"/>
	<path class="st9" d="M173.3,80.1l-0.3,0.8c-0.2,0.5-0.4,1.2-0.8,2c-0.8,1.9-1.9,3.7-3.1,5.3c-1.4,1.5-2.9,2.9-4.6,4
		c-0.7,0.5-1.4,0.9-1.8,1.2s-0.8,0.4-0.8,0.4"/>
	<path class="st9" d="M180.3,87.8c-0.3,0.9-0.6,1.7-1,2.6c-0.8,1.7-1.8,3.2-3.1,4.5s-2.8,2.3-4.4,3.2c-1.4,0.8-2.4,1.2-2.4,1.2"/>
	<path class="st9" d="M186.8,96.1c-0.3,0.8-0.6,1.5-1,2.2c-0.7,1.4-1.7,2.7-2.9,3.7c-1.3,1-2.7,1.7-4.2,2.2
		c-1.3,0.5-2.3,0.8-2.3,0.8"/>
	<path class="st9" d="M192.1,105.3c-0.3,0.6-0.6,1.3-1,1.9c-0.6,1.1-1.5,2.1-2.6,2.8c-1.1,0.6-2.4,1-3.7,1.1
		c-1.1,0.2-2.1,0.2-2.1,0.2"/>
	<path class="st9" d="M195.6,115.6c-0.3,0.5-0.5,1-0.9,1.4c-0.5,0.8-1.2,1.4-2.1,1.8c-0.9,0.2-1.8,0.1-2.7-0.1
		c-0.9-0.2-1.6-0.4-1.6-0.4"/>
</g>
<g id="r-calf">
	<path class="st5" d="M180.9,431c0.3,3.5-37.8,1.1-37.8,1.1s-2.1-24.9-2.8-32.5c-2.4-28.1-10.7-76-10.7-76s17.7-6,21.8-6.5
		c2.1-0.2,3.9,0,4.4,1c11.7,23.1,12.5,34.8,14.3,51.1c1.3,12.9,3.5,25.7,6.8,38.3C178.7,415,180.9,430.7,180.9,431z"/>
	<path class="st2" d="M136.3,432.1c-4,8.1-45.8,10.2-38.3,30.5l18.4-0.5c0.1,2.1,0.3,4.3,0.8,6.4c0.6,2.3,11.9,1.1,17.6,0
		c15.4-3.1,14-9.6,34.5-14.1c0,0,22.4,1.4,28.4,0.3c4.3-0.8-0.7-8.1-7.9-10.5c-6.3-2.1-6.8-12-9.7-25c-6-26.5-10.3-50.6-10.1-49.6
		c0,0-12.7,13.8-23.8,24.3c-3.8-3.1-5.6-6.2-8.4-16.4C138.2,390.1,142,420.6,136.3,432.1z"/>
	<path class="st10" d="M146.2,393.6c0,0,2.1,25-3.2,38.5c-3.8,9.6-7.7,12.3-15.1,15.8c-6.9,3.3-12.7,10.6-10.8,20.4"/>
</g>
<g id="r-thigh">
	<path class="st5" d="M168.7,234.4c-10.8,52.9-12.2,86.9-12.2,86.9s-3.2,9.9-11.5,11.7c-12.2,2.7-15.7-10.2-15.7-10.2
		s-5.1-16.4-6.1-48.4c-0.5-14.3-0.6-31.6,6.8-52.1c7.6-21.1,29.6-14.2,29.6-14.2S172.6,215.3,168.7,234.4z"/>
	<path class="st4" d="M152.1,215.4c5.7,11.3,14,22.7,15.6,31.6s-2.4,6.6-2.8,11s0.9,5,1.1,13.3c0.1,4.2-3.3,4.1-6.7,3
		c1.1,3.5,1.9,6.9,1.3,8.6c-1.6,4.2-8.6,0-8.6,0C154,260.4,154.1,237.8,152.1,215.4z"/>
</g>
<g id="torso">
	<path class="st5" d="M157.1,194.8c0,0,13.1,19,12.6,33.3c-0.5,13.3-13.6,21.1-47.4,21.1c-7.1,0-24-14.4-23.1-28.1
		c2.4-10.4,6.2-21.7,6.2-21.7L157.1,194.8z"/>
	<path class="st5" d="M153.5,180.1c-0.3-16.1,17.4-43.7,9.4-81.5c-15.6-5.7-39.5-8.2-54-2.5c-17,41,0.7,65.1-0.4,81.2
		c-0.8,11.3-4.5,29-4.5,29s8.7,15,18,31.9c9.2-17.1,39.5-32.6,39.5-32.6C157.1,194.8,153.6,187,153.5,180.1z"/>
	<path class="st11" d="M133.6,166.2c4-14.9,11.2-22.7,16.3-31c3.6-5.9,16-30.1,14.9-33.7s-9.9-4.8-13.9-7.2l-23,22.8l1-25l-17,2.9
		c-14,24.1-10.3,33-9.6,39.8c1.1,9.7,7.8,19,10.8,28.3c1.3,3.9,8.8,48.2,8.8,48.2S130.6,177.6,133.6,166.2z"/>
	<path class="st4" d="M118.3,94.3c0.3,0,17.1-3.8,29.4-1S127.9,117,127.9,117s-5.8-2.3-8.3-7.1C114.3,99.8,118.3,94.3,118.3,94.3z"
		/>
	<path class="st2" d="M120.5,93.3c0,0-21.5,6.8-18.7,44.5c0,0-18.6-28.8-10.2-39.7C99.2,96.2,120.5,93.3,120.5,93.3z"/>
	<path class="st2" d="M114.6,89.2c0.4-4.8,3.4-17.6,19-18.1s-12.8,22.7-11.7,30.3S114.6,89.2,114.6,89.2z"/>
	<path class="st4" d="M142.2,108.4c0,0-5.6,7.3-12.9,7.3s-7.3-7.3-7.3-7.3s0-7.5,0-21.3s0.3-25.3,0.3-25.3L145.2,50
		c0,0-5.4,18.1-5.1,37.2C140.4,101,142.2,108.4,142.2,108.4z"/>
	<path class="st2" d="M127.9,117c0,0,4.4,1.2,16-9.1c3-2.6,5.2-7.3,7-10.8c1.8-3.4,3.1-7,3.8-10.8c0.6-3.5-0.4-4.7-1.8-6.8
		c-2.3-3.3-6.7-5.2-10.5-6c-0.3-0.1-1.2-0.1-1.5-0.2c-0.7,6.6-0.9,13.2-0.4,19.8c0.2,1.2,0.3,2.4,0.2,3.6c-0.2,3.5-1.2,6.8-3,9.8
		C133.9,112.4,128.8,115.3,127.9,117z"/>
	<path class="st2" d="M156.6,96.5c0,0-3.1,1.9-5.5,10.6c-3.6,13.4-1.2,28.1,5.4,34.4c0,0,29.4-23.6,22.6-40.4
		C171.5,99.1,156.6,96.5,156.6,96.5z"/>
	<path class="st6" d="M156.6,141.4c-0.8-5.1-0.8-10.3,0-15.4c1.5-8.2,9.8-23.8,17.1-20C186.4,112.7,156.6,141.4,156.6,141.4z"/>
	<path class="st2" d="M127.9,117c0,0-4.9-1.8-5.9-14.4c-0.2-2.4-0.4-6.1-0.4-6.1l-7-7.2c-0.4,4.9,0,9.8,1.2,14.6
		C119.1,117,127.9,117,127.9,117z"/>
</g>
<path id="r-arm" class="st0" d="M178.3,112.2c0.1,0.4,0.1,0.8,0.1,1.1c-0.2,6.3-0.2,12.6-0.2,18.8l0.1,9.4l0.2,9.4
	c0.2,6.2,0.3,12.5,0.7,18.8s0.9,12.5,1.8,18.7c0.6,3.6-2.2,7-6.2,8c-0.3,0.1-0.7,0.1-1,0.2c-4.6,0.6-8.8-2.1-9.3-6
	c0-0.4-0.1-0.8-0.1-1.2c0.3-6.3,0.1-12.6-0.2-18.8s-0.8-12.5-1.3-18.8l-0.8-9.4l-0.9-9.4c-0.6-6.2-1.4-12.5-2.2-18.7
	c-0.6-4.6,3.2-8.8,8.6-9.4c1.1-0.1,2.2-0.1,3.3,0.1C174.7,105.8,177.8,108.6,178.3,112.2z"/>
<g id="r-forearm">
	<g>
		<g>
			<defs>
				<path id="SVGID_3_" d="M190.3,182.3c0,0,6.5,28.2-19.9,57c-8.3,9-13.1,6.2-16.1,4.4c-6.5-4-3.3-21.2-2.8-23.8
					c0.6-3.8,2.2-20.7,2.8-28.3c0.8-9.8,5.4-9.9,11.3-14.9c3.4-2.9,3.8-11.6,11.8-11.3S186.4,172.5,190.3,182.3z"/>
			</defs>
			<clipPath id="SVGID_4_">
				<use xlink:href="#SVGID_3_"  style="overflow:visible;"/>
			</clipPath>
			<g class="st12">
				
					<rect x="125.7" y="180.6" transform="matrix(0.3569 -0.9341 0.9341 0.3569 -80.7734 288.4178)" class="st2" width="86.7" height="44.5"/>
				<path class="st3" d="M179.5,159.8c-3.5,8.7-5.8,17.9-6.8,27.2c-1.4,13.4-4.3,25.6-14.4,38.4c-3.9,4.9-0.7,21.6-0.7,21.6
					l-24.5-14.4l17.9-58.8l14.8-16L179.5,159.8z"/>
			</g>
		</g>
	</g>
</g>
<g id="r-hand">
	<path class="st0" d="M173.3,250.6c-1.8,2.9-6.5,6-8.6,8.3c-1.2,1.2-2.8,1.9-4.5,2c-1.1,0.2-2.3-0.2-3-1.1c-1.4-2.3,0.9-3.7,3.7-5.9
		s2.7-3.7,2.7-3.7S174.7,248.4,173.3,250.6z"/>
	<path class="st4" d="M166,254l-5.9,7c-1.1,0.2-2.3-0.2-3-1.1L166,254z"/>
	<path class="st0" d="M153.3,227.9c0,0-0.2,0.4-0.4,1.1c-1.2,3.1-4.2,12-3.4,17.3c1,6.6,12.6,11.2,20.2,7.1s7.9-12.2,6.7-17.1
		s-11.2-12.1-15.1-13.7C156.6,223.1,153.3,227.9,153.3,227.9z"/>
	<path class="st0" d="M167.8,250.8c-0.3,3.3-7,7.4-9.9,10s-8.4,2.8-9.6,0.5c-0.1-0.1-0.1-0.3-0.2-0.5c-1-2.8,1.8-4.2,5.4-6.6
		c0.9-0.6,1.8-1.3,2.6-2.2c0.6-0.6,1-1.3,1.2-2.2C157.2,249.8,168.1,247.5,167.8,250.8z"/>
	<path class="st0" d="M143.2,238.3c-3.6,4.2-6.4,8.7-2.4,9.5s8.4-5.5,11.2-6.9s6.4-4.5,6.6-7.3s-1.9-7.7-5.3-5.8
		C149.5,230.1,143.2,238.3,143.2,238.3z"/>
	<path class="st4" d="M159.3,250c0,0,0.1,2.4-3.2,5.5c-2.4,2.1-5.2,3.9-8.1,5.3c-1-2.8,1.8-4.2,5.4-6.6c0.9-0.6,1.8-1.3,2.6-2.2
		L159.3,250z"/>
	<path class="st0" d="M149.8,246.7c0,0,0,1.8-3.8,4.4s-6.7,4-5.2,7.1c1.2,2.4,6.7,2.2,9.6-0.5s9.6-6.7,10-10
		S149.8,246.7,149.8,246.7z"/>
</g>
<g id="head">
	<g>
		<g>
			<defs>
				<path id="SVGID_5_" d="M92.1,29.8c-0.2,4.5,2.4,6.7,2.1,7.5c-0.2,0.7-1.3,0.9-2.6,0.3c0,0-11.6-3.9-11.5-10.5
					c0.1-12,15.8-17.1,20-17C95.1,16.3,93.2,22.1,92.1,29.8z"/>
			</defs>
			<clipPath id="SVGID_6_">
				<use xlink:href="#SVGID_5_"  style="overflow:visible;"/>
			</clipPath>
			<g class="st13">
				<path class="st8" d="M92.1,29.8c-0.2,4.5,2.4,6.7,2.1,7.5c-0.2,0.7-1.3,0.9-2.6,0.3c0,0-11.6-3.9-11.5-10.5
					c0.1-12,15.8-17.1,20-17C95.1,16.3,93.2,22.1,92.1,29.8z"/>
				<path class="st14" d="M93.7,31.5c-2.3-1.9-5.4-2.6-8.3-2c-5.1,1-1.5,6.2,3.3,8.1"/>
				<path class="st14" d="M94.9,28.5c0,0-0.6-3.1-4.8-6.1s-10.7-0.7-10.7,5.3"/>
				<path class="st14" d="M86.7,14.6c1.1-0.5,2.3-0.5,3.4-0.1c2.7,1.2,4.7,3.6,5.3,6.6"/>
				<path class="st14" d="M96.3,9.7c0,0,3.8,0.5,3.8,6.7"/>
			</g>
		</g>
	</g>
	<g>
		<g>
			<defs>
				<path id="SVGID_7_" d="M160,30.9c-0.3,11.4-17,25.6-24.2,31.2c-2.2,1.7-3.6,6.2-7.1,11.7c-4,6.3-8.6,12.5-13.8,12.5
					s-10.1-4-13-10.7c-1.6-3.8-5.9-9.4-8.6-12.9C87.7,55.3,86,47.3,87.9,36c1.2-7.3,3.2-15,7-20.1c2.9-3.8,6.5-7,10.6-9.4l0,0
					c1.4-0.9,2.9-1.6,4.4-2.3c2.9-1.3,5.8-2.3,8.9-3c0.9-0.2,1.8-0.4,2.7-0.6c2.4-0.4,4.8-0.6,7.2-0.6c4.1-0.1,8.2,0.3,12.2,1.1
					c2.2,0.5,4.4,1.2,6.4,2.2C154.9,7,160.4,14.8,160,30.9z"/>
			</defs>
			<clipPath id="SVGID_8_">
				<use xlink:href="#SVGID_7_"  style="overflow:visible;"/>
			</clipPath>
			<g class="st15">
				<rect x="83.3" y="-4.7" class="st0" width="79.2" height="93.4"/>
				<path class="st8" d="M119.7,70.9c-2.2,0.9-4.4,1.4-6.8,1.4c-2.4-0.1-4.8-0.6-7-1.4H119.7z"/>
				<path class="st4" d="M89.8,37.7c-0.1-1.3,0.4-2.6,1.3-3.6c1-1,2.3-1.6,3.7-1.7c1.3-0.1,2.7,0.1,3.9,0.6c0.6,0.3,1.2,0.5,1.7,0.9
					c0.5,0.3,1,0.7,1.5,1.1c0.3,0.2,0.4,0.7,0.1,1l0,0c-0.2,0.2-0.5,0.3-0.7,0.2h-0.1c-0.6-0.2-1.1-0.4-1.6-0.6L98,35
					c-1-0.3-2-0.4-3-0.4s-1.9,0.3-2.7,0.8C91.4,36,90.6,36.8,89.8,37.7z"/>
				<path class="st4" d="M135.8,39.2c-1.8-0.7-3.3-1.3-4.9-1.8c-1.5-0.5-3-0.8-4.5-1c-1.5-0.1-3.1,0-4.6,0.3
					c-0.8,0.2-1.6,0.4-2.3,0.7c-0.8,0.3-1.5,0.6-2.4,0.9H117c-0.3,0.1-0.7-0.1-0.9-0.4l0,0c-0.1-0.2,0-0.5,0.2-0.7
					c0.3-0.3,0.6-0.7,1-1c0.3-0.3,0.7-0.6,1.1-0.9c0.8-0.5,1.6-1,2.5-1.4c1.8-0.8,3.8-1.1,5.7-0.9c1.9,0.2,3.8,0.8,5.5,1.8
					C133.8,35.9,135.1,37.4,135.8,39.2z"/>
				<g>
					<g>
						<defs>
							<path id="SVGID_9_" d="M104.2,46.6c0.7,4.8-0.6,8.6-3.1,9.9c-3.7-0.6-8.7-3.6-9.4-8.4s0.2-7.9,4.1-10
								C99,37.6,103.5,41.8,104.2,46.6z"/>
						</defs>
						<clipPath id="SVGID_10_">
							<use xlink:href="#SVGID_9_"  style="overflow:visible;"/>
						</clipPath>
						<g class="st16">
							
								<rect x="87.2" y="36.7" transform="matrix(0.2529 -0.9675 0.9675 0.2529 28.4934 130.1013)" class="st17" width="22.6" height="19.9"/>
							<circle class="st18" cx="98.4" cy="49" r="7.3"/>
							<circle cx="98.4" cy="49" r="3.7"/>
							<path class="st19" d="M101,58.2c0,0,7.3-9.3-0.6-17c-1.4-1.2-3.2-1.8-5-1.6c0,0-2.2,0.1-3.2,3.3c-0.7,2.5-0.6,5.2,0.3,7.6
								l-5.4-1.6l2.8-21.4l16,5l1.8,25.6L101,58.2z"/>
						</g>
					</g>
				</g>
				<g>
					<g>
						<defs>
							<path id="SVGID_11_" d="M118.1,46c-2,4.6-1.7,8.8,0.5,10.8c3.8,0.3,9.7-1.4,11.8-6c1.6-3.6,3.2-8,0.2-10.8
								C127.5,38.8,120.1,41.4,118.1,46z"/>
						</defs>
						<clipPath id="SVGID_12_">
							<use xlink:href="#SVGID_11_"  style="overflow:visible;"/>
						</clipPath>
						<g class="st20">
							<rect x="113.4" y="37" class="st17" width="22.3" height="21.8"/>
							<circle class="st18" cx="123.3" cy="50" r="7.6"/>
							<circle cx="123.3" cy="50" r="3.8"/>
							<path class="st19" d="M118.3,58.7c0,0-4.9-11.4,5.1-17c1.7-0.9,3.7-1,5.4-0.3c0,0,2.2,0.7,2.3,4.2c0.1,2.7-0.7,5.4-2.3,7.6
								l5.9-0.1l2.8-22.3L120,31.7L111.4,57L118.3,58.7z"/>
						</g>
					</g>
				</g>
				<path class="st2" d="M115.8,1.5c-2,1.5-3.6,3.5-4.7,5.7c-1,2.1-1.5,4.4-1.4,6.7s0.7,4.6,1.6,6.8c0.5,1.1,1,2.2,1.6,3.2
					c0.3,0.5,0.6,1,0.9,1.5l0.5,0.7c0.1,0.2,0.3,0.4,0.4,0.6l-7-1.5l0,0c3.6-2,7.1-4,10.7-6.1s7-4.3,10.5-6.5s6.8-4.5,10-7
					c1.6-1.2,3.1-2.5,4.5-3.9c0.7-0.6,1.3-1.3,1.8-2c0.2-0.3,0.4-0.5,0.5-0.8c0-0.1,0.1-0.1,0.1-0.1s0.1,0.1,0.1,0.2
					c-0.6-0.7-0.6-1.9,0.2-2.5c0.7-0.6,1.9-0.6,2.5,0.2l0.1,0.1c0.4,0.5,0.6,1,0.7,1.6c0.1,0.5,0,0.9-0.1,1.4
					c-0.2,0.7-0.4,1.3-0.8,1.9c-0.6,1-1.3,1.9-2.1,2.8c-1.4,1.6-3,3.1-4.6,4.5c-3.2,2.8-6.5,5.4-9.8,7.9c-6.7,5-13.6,9.7-20.6,14.3
					l0,0l-1.5,1l-0.9-1.5c-0.8-1.3-1.5-2.6-2.1-4c-0.6-1.3-1.1-2.7-1.5-4.1c-0.9-2.9-1.2-5.9-1-8.9c0.2-3.1,1.2-6.1,2.9-8.7
					c1.7-2.5,3.9-4.7,6.5-6.3c0.8-0.6,1.9-0.3,2.4,0.5s0.4,1.8-0.4,2.4L115.8,1.5z"/>
			</g>
		</g>
	</g>
	<g>
		<g>
			<defs>
				<path id="SVGID_13_" d="M151.9,27.6c-3,4.8-6.9,9.3-6.6,10.1c0.2,0.7,1.3,0.9,2.6,0.3c0,0,15.2-4,18.6-9.8
					c8-13.6-7.3-18.8-11.5-18.7C160,15.8,155.3,22.2,151.9,27.6z"/>
			</defs>
			<clipPath id="SVGID_14_">
				<use xlink:href="#SVGID_13_"  style="overflow:visible;"/>
			</clipPath>
			<g class="st21">
				
					<rect x="140.1" y="12.9" transform="matrix(0.4529 -0.8916 0.8916 0.4529 62.7462 154.3721)" class="st8" width="34.1" height="26.4"/>
				<path class="st8" d="M147.5,30.2c0.1,4.5-2.4,6.7-2.1,7.5c0.2,0.7,1.3,0.9,2.6,0.3c0,0,11.6-3.9,11.5-10.5
					c-0.1-12-15.8-17.1-20-17C144.5,16.8,146.4,22.5,147.5,30.2z"/>
				<path class="st14" d="M148.2,31.6c2.9,0.6,5.5,2.4,6.9,5.1c2.5,4.5-3.7,5.2-8.4,2.7"/>
				<path class="st14" d="M149.7,28.8c0,0,4.8-2.4,9.8-1.2s5.3,8.7,0.8,12.5"/>
				<path class="st14" d="M167.1,30.9c0,0,5.2-7.6-1.4-10.5c-1.7-0.8-7.7-0.1-11.3,1.8"/>
				<path class="st14" d="M168.6,18c0,0-4.1-9.8-13-1"/>
			</g>
		</g>
	</g>
</g>
<path id="shoulder" class="st2" d="M173.7,106c0.6,0.3,1.2,0.8,1.7,1.3c1.5,1.1,2.9,2.2,4.2,3.5c0.9-3.2,0.7-6.7-0.5-9.8
	c-7.7-1.9-22.5-4.6-22.5-4.6s-3.1,1.9-5.5,10.6c-3.6,13.4-1.2,28.1,5.4,34.4c-0.8-5.1-0.8-10.3,0-15.4
	C158.1,117.9,166.4,102.2,173.7,106z"/>
</svg>
