<?xml version="1.0" encoding="utf-8"?>
<!-- Generator: Adobe Illustrator 25.2.0, SVG Export Plug-In . SVG Version: 6.00 Build 0)  -->
<svg version="1.1" id="Layer_1" xmlns="http://www.w3.org/2000/svg" xmlns:xlink="http://www.w3.org/1999/xlink" x="0px" y="0px"
	 viewBox="0 0 186.5 469.4" style="enable-background:new 0 0 186.5 469.4;" xml:space="preserve">
<style type="text/css">
	.st0{fill:#33D08C;}
	.st1{clip-path:url(#SVGID_2_);}
	.st2{fill:#DDCD00;}
	.st3{fill:none;stroke:#DDCD00;stroke-width:0.95;stroke-miterlimit:10;}
	.st4{fill:#44F5A0;}
	.st5{fill:#721267;}
	.st6{fill:#1B8B79;}
	.st7{fill:none;stroke:#33D08C;stroke-width:1.02;stroke-linecap:round;stroke-miterlimit:10;}
	.st8{fill:#891B6A;}
	.st9{fill:#F7EC17;}
	.st10{clip-path:url(#SVGID_4_);}
	.st11{fill:#AA1A88;}
	.st12{clip-path:url(#SVGID_6_);}
	.st13{clip-path:url(#SVGID_8_);}
	.st14{clip-path:url(#SVGID_10_);}
	.st15{fill:#F5FAFF;}
	.st16{fill:#9629FF;}
	.st17{fill:#022538;}
	.st18{clip-path:url(#SVGID_12_);}
	.st19{fill:none;stroke:#33D08C;stroke-miterlimit:10;}
</style>
<path id="b-arm" class="st0" d="M117.1,110.3c-0.2,0.3-0.4,0.6-0.7,0.9c-4.1,4.7-8.1,9.5-12,14.3l-5.9,7.3l-5.8,7.4
	c-3.8,4.9-7.6,9.8-11.3,14.8s-7.2,10.1-10.4,15.5c-1.9,3.1-6.1,4-9.8,2.2c-0.3-0.1-0.6-0.3-0.9-0.5c-3.9-2.4-5.4-7.1-3.4-10.5
	c0.2-0.3,0.4-0.7,0.7-1c4.2-4.6,8-9.6,11.7-14.6s7.2-10.1,10.8-15.2l5.3-7.7l5.2-7.8c3.4-5.2,6.8-10.4,10.1-15.7
	c2.4-3.9,8-4.8,12.6-1.8c0.9,0.6,1.8,1.3,2.5,2.2C118.4,103.1,119,107.2,117.1,110.3z"/>
<g id="b-forearm">
	<g>
		<g>
			<defs>
				<path id="SVGID_1_" d="M83.6,166.6c0,0-10.9,26.6-48.8,34.8c-11.8,2.6-14.2-2.5-15.6-5.7c-3-7,9.5-19.1,11.3-20.9
					c2.7-2.7,13.6-15.6,18.4-21.4c6.2-7.5,13-11.2,20.5-11.9c4.5-0.4,6.8-1,13.2,3.8C89.1,150.2,78,159,83.6,166.6z"/>
			</defs>
			<clipPath id="SVGID_2_">
				<use xlink:href="#SVGID_1_"  style="overflow:visible;"/>
			</clipPath>
			<g class="st1">
				
					<rect x="11.5" y="149" transform="matrix(0.8299 -0.5579 0.5579 0.8299 -86.1499 59.5317)" class="st2" width="86.1" height="44.1"/>
				<path class="st3" d="M87.7,142.1c0,0-23,4.7-33.4,16.7c-8.8,10.1-16.4,20-21.3,24.5c-4.6,4.2-12.9,17.1-12.9,17.1L8.5,174.7
					l48.2-37.4l21.1-4.5L87.7,142.1z"/>
			</g>
		</g>
	</g>
</g>
<g id="b-hand">
	<path class="st4" d="M27.4,182.4l-1,0.7c-2.7,1.9-10.3,7.3-12.7,12.1c-3,5.9,3.8,16.3,12.3,17.4s13.4-5.4,15.3-10
		s-2.2-16.2-4.4-19.8C32.9,180.4,27.4,182.4,27.4,182.4z"/>
	<path class="st4" d="M13.3,185.1c-5.3,1.3-10.2,3.4-7.4,6.4s10,0.4,13,0.8s7.7,0,9.5-2.1s2.9-7.4-1-7.7
		C23.1,182,13.3,185.1,13.3,185.1z"/>
	<path class="st4" d="M8.3,197.1c4.5,0.1,5.5-1.4,5.5-1.4s10.2,4.4,8.1,6.9c-1.1,1-2.5,1.5-3.9,1.7c-3.2,0.6-7.3,0.4-9.9,0.7
		c-1.3,0.1-2.7-0.1-4-0.6c-2.5-0.9-4.4-2.9-4.1-4.6C0.5,196.5,3.8,197,8.3,197.1z"/>
	<path class="st0" d="M12.2,202.3l5.9,0.1c0.2,0.6,0.1,1.2-0.1,1.8c-3.2,0.6-7.3,0.4-9.9,0.7c-1.3,0.1-2.7-0.1-4-0.6
		C5,201.8,8.1,202.2,12.2,202.3z"/>
	<path class="st4" d="M12.5,203.8c1.1,0,2.2-0.1,3.3-0.3c0.8-0.1,1.6-0.5,2.2-1.1c0,0,8.2,3.5,8.4,6c0,0.3-0.1,0.6-0.3,0.8
		c-2.2,2.5-9.9,2-13.8,2.4c-0.3,0-0.7,0-1,0c-3.6-0.1-7.4-2.8-7-5.2c0-0.2,0.1-0.3,0.1-0.5C5.1,203.3,8.3,203.7,12.5,203.8z"/>
	<path class="st0" d="M16.9,207.3c2-0.1,4-0.4,6-0.9c0,0,1.9,0.9,3.6,2.1c0,0.3-0.1,0.6-0.3,0.8c-2.2,2.5-9.9,2-13.8,2.4
		c-0.3,0-0.7,0-1,0c-0.5-0.5-0.8-1.1-0.8-1.8C10.7,207.3,13.3,207.5,16.9,207.3z"/>
	<path class="st4" d="M30.7,212.3c-3.1,1.3-8.7,1.2-11.8,1.8c-1.7,0.3-3.4-0.1-4.8-1c-1-0.5-1.7-1.5-1.8-2.6
		c0.2-2.7,2.8-2.5,6.3-2.7s4.3-1.4,4.3-1.4S33.1,211.3,30.7,212.3z"/>
</g>
<g id="b-thigh">
	<path class="st5" d="M133,228.6c-12.9,52.4-15.7,86.3-15.7,86.3s-3.6,9.7-11.9,11.2c-12.3,2.2-15.2-10.8-15.2-10.8
		s-4.4-16.6-4.2-48.6c0.1-14.3,0.7-31.6,8.9-51.8c8.4-20.8,30.2-13,30.2-13S137.6,209.8,133,228.6z"/>
</g>
<g id="b-calf">
	<path class="st5" d="M135.4,426.2c0.1,3.6-37.8-1.1-37.8-1.1s-0.7-24.9-0.9-32.6c-0.8-28.2-6.4-76.5-6.4-76.5s18-5,22.1-5.2
		c2.1-0.1,3.9,0.2,4.4,1.3c10.3,23.8,10.5,35.4,11.3,51.9c0.5,13,2.1,25.9,4.6,38.6C134.1,410.1,135.4,425.9,135.4,426.2z"/>
	<path class="st2" d="M90.8,424.7c-4.5,7.9-46.3,7.6-40,28.2l18.4,0.5c0,0,13.3,3.9,19.1,3.1c15.6-2.2,13.4-4.5,34.1-7.8
		c0,0,22.2,2.7,28.4,1.9c4.3-0.6-0.2-8.2-7.3-11c-6.1-2.4-6.1-12.4-8.3-25.5c-4.4-26.8-7.4-51.1-7.2-50.1c0,0-18.4,12.2-31.4,28.6
		C95.6,401.2,97.2,413.6,90.8,424.7z"/>
</g>
<g id="tail">
	<path class="st6" d="M143.4,27.3L143.4,27.3v0.3c0,0.2,0,0.4,0,0.6c0,0.5,0.1,0.9,0.1,1.3c0.1,0.9,0.2,1.9,0.3,2.9
		c0.1,1,0.3,2,0.4,2.9s0.3,2,0.5,3c0.8,4,1.8,7.9,3.1,11.7c0.3,1,0.6,1.9,1,2.8s0.7,1.9,1.1,2.8s0.9,1.8,1.3,2.8l0.6,1.4l0.7,1.3
		l1.4,2.7c0.5,0.9,1.1,1.7,1.6,2.6s1.1,1.8,1.7,2.6l1.9,2.5c1.2,1.7,2.6,3.3,4,4.8l1,1.2l1.4,1.4l2.6,2.8c0.9,0.9,1.7,1.9,2.5,2.9
		l2.4,3c0.8,1,1.6,2.1,2.3,3.1s1.5,2.1,2.2,3.2c2.9,4.4,5.3,9.2,7,14.1c0.4,1.3,0.8,2.6,1.1,3.9s0.6,2.6,0.7,4
		c0.1,0.7,0.1,1.3,0.2,2c0,0.7,0,1.4,0,2.1c0,0.7-0.1,1.4-0.2,2.1c-0.1,0.8-0.3,1.5-0.5,2.2c-0.3,1-1.3,1.5-2.3,1.2
		c-0.5-0.1-0.9-0.5-1.1-0.9l-0.5-1c-0.1-0.3-0.3-0.9-0.4-1.3l-0.3-0.7l-0.3-0.7c-0.2-0.5-0.4-1-0.7-1.4c-0.2-0.5-0.5-1-0.8-1.4
		c-0.5-0.9-1.2-1.8-1.8-2.7c-0.3-0.4-0.7-0.9-1-1.3s-0.6-0.9-1-1.3c-2.8-3.4-6-6.4-9.3-9.2c-0.4-0.4-0.8-0.7-1.2-1.1l-1.3-1
		c-0.9-0.7-1.7-1.4-2.6-2.1c-1.9-1.3-3.6-2.7-5.4-3.9l-2.8-1.9l-1.4-1l-1.6-1.2c-2.2-1.6-4.3-3.3-6.3-5.1l-3-2.8c-1-0.9-1.9-2-2.8-3
		s-1.9-2-2.8-3.1l-2.5-3.1l-1.3-1.6l-1.1-1.7l-2.3-3.4c-0.7-1.2-1.4-2.4-2-3.6c-0.6-1.2-1.3-2.4-1.9-3.7s-1.2-2.5-1.8-3.7l-1.5-3.8
		c-0.5-1.3-0.9-2.6-1.4-3.9c-0.2-0.7-0.4-1.3-0.6-2l-0.6-2c-0.4-1.3-0.7-2.7-1-4s-0.6-2.7-0.8-4.1s-0.4-2.8-0.6-4.2
		c-0.1-0.7-0.1-1.5-0.2-2.2c0-0.4-0.1-0.8-0.1-1.2v-0.6v-0.8c-0.2-7.6,5.9-13.9,13.5-14.1c6.4-0.1,12.1,4.2,13.7,10.4L143.4,27.3z"
		/>
	<path class="st7" d="M143.4,32.7c0,0-1.6,0.7-4.1,1.5c-2.9,1-5.8,1.9-8.9,2.5c-3,0.5-6.1,0.7-9.2,0.6c-1.5-0.1-2.9-0.2-4.4-0.4"/>
	<path class="st7" d="M144.6,40.9c0,0-1.5,0.8-3.7,1.9c-2.6,1.3-5.3,2.5-8.1,3.4c-2.8,0.8-5.8,1.3-8.7,1.5c-1.4,0.1-2.8,0.1-4.2,0.1
		"/>
	<path class="st7" d="M146.7,49c0,0-1.3,1-3.3,2.3c-2.3,1.6-4.8,2.9-7.3,4.1c-2.6,1.1-5.3,1.9-8.1,2.3c-1.3,0.2-2.7,0.4-4,0.5"/>
	<path class="st7" d="M149.6,56.9c0,0-1.1,1.1-2.8,2.5c-2,1.7-4.1,3.3-6.3,4.7c-2.3,1.3-4.8,2.3-7.3,3c-1.2,0.3-2.5,0.6-3.8,0.8"/>
	<path class="st7" d="M153.4,64.4c0,0-0.9,1.2-2.3,2.7c-1.6,1.9-3.3,3.5-5.3,5.1c-2,1.5-4.2,2.6-6.5,3.5c-1.1,0.5-2.3,0.8-3.4,1.1"
		/>
	<path class="st7" d="M158.1,71.5c0,0-0.7,1.2-1.7,2.8c-1.2,1.9-2.6,3.7-4.2,5.3c-1.6,1.5-3.5,2.8-5.5,3.9c-1,0.5-2,1-3,1.4"/>
	<path class="st7" d="M163.7,78.1l-0.3,0.8c-0.2,0.5-0.4,1.2-0.8,2.1c-0.8,1.9-1.9,3.7-3.1,5.3c-1.4,1.5-2.9,2.9-4.6,4
		c-0.7,0.5-1.4,0.9-1.8,1.2l-0.8,0.4"/>
	<path class="st7" d="M170.7,85.8c-0.3,0.9-0.6,1.7-1.1,2.6c-0.8,1.7-1.8,3.2-3.1,4.5s-2.8,2.3-4.4,3.2c-1.4,0.8-2.4,1.2-2.4,1.2"/>
	<path class="st7" d="M177.1,94.1c-0.3,0.8-0.6,1.5-1,2.3c-0.7,1.4-1.7,2.7-2.9,3.7c-1.3,1-2.7,1.7-4.2,2.2
		c-1.3,0.5-2.3,0.8-2.3,0.8"/>
	<path class="st7" d="M182.5,103.3c-0.3,0.6-0.6,1.3-1,1.9c-0.6,1.1-1.5,2.1-2.6,2.8c-1.1,0.6-2.4,1-3.7,1.1c-1.1,0.2-2,0.2-2,0.2"
		/>
	<path class="st7" d="M185.9,113.6c-0.3,0.5-0.6,1-0.9,1.4c-0.5,0.8-1.2,1.4-2.1,1.8c-0.9,0.2-1.8,0.1-2.7-0.1
		c-0.9-0.2-1.6-0.4-1.6-0.4"/>
</g>
<g id="torso">
	<path class="st8" d="M95.9,197.8c0,0-3.2,18.6,0,36.5c3.9,21.9,43.4,15.2,48.9,2.3c7-16.5-7-28.8-11.1-40
		C129.5,185,95.9,197.8,95.9,197.8z"/>
	<path class="st9" d="M119.8,112c-1.2,9.3-6.8,17.5-14.9,22.1c-6.1-3.2-14-9.5-16.3-21.2s6.4-19.1,15-19.4S121.5,100.2,119.8,112z"
		/>
	<g>
		<g>
			<defs>
				<path id="SVGID_3_" d="M134.4,192.9c-7,23.1-21.6,11.4-35.5,23.9c-4.1-14.7-5.1-43.1-7.7-56c-3.1-7.4-10.1-26,13.3-64.4
					c14.3-6.1,14.3-9.4,30.1-4.2C154.2,120.1,141.7,170.5,134.4,192.9z"/>
			</defs>
			<clipPath id="SVGID_4_">
				<use xlink:href="#SVGID_3_"  style="overflow:visible;"/>
			</clipPath>
			<g class="st10">
				
					<rect x="74.6" y="89" transform="matrix(0.9995 -3.088812e-02 3.088812e-02 0.9995 -4.6611 3.5702)" class="st8" width="77.2" height="127.3"/>
				<path class="st11" d="M131.3,88.5c-2.9,2.5-21.8,12.7-26.7,40.9c-1.7,9.6-3.2,13.7-1.8,23.4c1.2,8.3-2.2,41.7-3.1,57
					c0,0-10.9-57.8-16-73.5S102,84.8,102,84.8L131.3,88.5z"/>
			</g>
		</g>
	</g>
	<path class="st2" d="M103.1,114.7c0,0-3.8-21.7,9.9-34.9s22.2-8.7,22.2-8.7l-5.3,17.3L103.1,114.7z"/>
	<path class="st0" d="M128.6,92.5c-3.8,2.2-7.4,4.7-10.9,7.4c-5.8,4.5-7.1,6.9-7.1,6.9s-2.2-4.4-4.2-18.2
		c-2.3-15.9-3.3-34.1-3.3-34.1l22.6-7.5c0,0-7.1,10.8-2.1,34.1C126.7,94.8,128.6,92.5,128.6,92.5z"/>
	<path class="st9" d="M103.1,114.7c0,0,2.1-26.2,21.9-38.9c19.4-12.5,7,2,9.6,16.5C123.6,99.1,113.1,106.6,103.1,114.7z"/>
	<path class="st9" d="M147.5,111.1c-1.2,9.3-6.8,17.5-14.9,22.1c-6.1-3.2-14-9.4-16.3-21.1s6.4-19.1,15-19.4S149.2,99.3,147.5,111.1
		z"/>
	<path class="st2" d="M143.7,116.3c-1.4,9.3-6.7,14.5-11.1,17.1c-6.1-3.7-10.1-10-11.1-17.1c-1.4-9.3,3.2-14.8,11.1-14.8
		S145.1,107,143.7,116.3z"/>
	<path class="st4" d="M142.5,115.1c-0.1,0.3-0.3,0.7-0.5,1c-3.1,5.5-6.1,11-9,16.5l-4.3,8.4l-4.3,8.4c-2.8,5.6-5.6,11.2-8.2,16.9
		s-5.1,11.4-7.2,17.4c-1.2,3.5-5.2,5.2-9.3,4.1c-0.3-0.1-0.6-0.2-0.9-0.3c-4.3-1.6-6.7-6-5.4-9.7c0.1-0.4,0.3-0.7,0.5-1.1
		c3.2-5.4,6-11,8.7-16.7s5.1-11.4,7.6-17.2l3.7-8.6l3.6-8.7c2.4-5.8,4.7-11.6,6.9-17.5c1.6-4.4,7-6.3,12.1-4.3c1,0.4,2,1,2.9,1.6
		C142.3,107.8,143.7,111.7,142.5,115.1z"/>
</g>
<g id="f-calf">
	<path class="st8" d="M150.1,433c0.2,3.6-37.9-0.4-37.9-0.4l-1.4-32.6c-1.2-28.2-7.7-76.4-7.7-76.4s17.9-5.3,22-5.6
		c2.1-0.1,3.9,0.1,4.4,1.2c10.7,23.6,11.1,35.2,12.2,51.7c0.7,13,2.5,25.9,5.3,38.5C148.6,416.9,150.1,432.7,150.1,433z"/>
	<path class="st9" d="M105.5,432.3c-4.4,8-46.1,8.4-39.5,28.9l18.4,0.2c0,2.1,0.2,4.3,0.5,6.4c0.5,2.3,11.8,1.6,17.6,0.7
		c15.6-2.5,14.4-9,35.1-12.8c0,0,22.3,2.3,28.4,1.4c4.3-0.6-0.4-8.2-7.5-10.8c-6.2-2.3-6.3-12.3-8.7-25.4c-4.9-26.7-8.3-51-8.1-50
		c0,0-18.2,12.6-30.9,29.1C109.9,408.7,111.7,421,105.5,432.3z"/>
</g>
<g id="f-thigh">
	<path class="st8" d="M145.8,236c-12.9,52.4-15.7,86.3-15.7,86.3s-3.6,9.7-11.9,11.2c-12.3,2.2-15.2-10.8-15.2-10.8
		s-4.4-16.6-4.2-48.6c0.1-14.3,0.7-31.6,8.8-51.8c8.4-20.8,30.2-13,30.2-13S150.4,217.2,145.8,236z"/>
	<path class="st4" d="M128.1,214.2c0,0,5.1,24.4,4.8,33.5c-0.3,9.1-2.5,6.2-3.5,10.4c-1,4.2-0.2,5-1.4,13.3c-0.6,4.2-2.7,3.6-4.6,2
		c0.2,3.6,0.1,7.1-0.6,8.7c-1.6,3.9-5.3-1.2-5.3-1.2l2.9-10.7c-0.3-0.4-0.5-0.7-0.5-0.7L128.1,214.2z"/>
</g>
<g id="f-forearm">
	<g>
		<g>
			<defs>
				<path id="SVGID_5_" d="M122.9,178.5c0,0-3,28.8-37.4,47.4c-10.7,5.8-14.4,1.6-16.7-1.1c-4.9-5.9,3.8-21.1,5.1-23.4
					c1.9-3.4,8.8-18.9,11.8-25.8c3.9-9,8.4-7.6,15.5-10.4c4.2-1.6,7.3-9.7,14.8-6.9S122.3,168,122.9,178.5z"/>
			</defs>
			<clipPath id="SVGID_6_">
				<use xlink:href="#SVGID_5_"  style="overflow:visible;"/>
			</clipPath>
			<g class="st12">
				
					<rect x="52.8" y="168.8" transform="matrix(0.6413 -0.7673 0.7673 0.6413 -112.0868 142.259)" class="st9" width="86.7" height="44.5"/>
				<path class="st3" d="M119.9,153.7c-6.2,7.1-11.3,15-15.2,23.6c-5.7,12.3-12.4,22.9-26.1,31.6c-5.2,3.4-7.7,20.2-7.7,20.2
					l-18.5-21.6l36.1-49.7l19.2-10.3L119.9,153.7z"/>
			</g>
		</g>
	</g>
</g>
<g id="f-hand">
	<path class="st4" d="M84.5,237.6c-2.7,2.1-8.1,3.6-10.9,5c-1.5,0.7-3.3,0.9-4.9,0.4c-1.3-0.4-2.3-1.1-2.5-2c-0.6-2.6,2-3.2,5.4-4.4
		s3.7-2.6,3.7-2.6S86.6,235.9,84.5,237.6z"/>
	<path class="st0" d="M76.5,238.4l-7.8,4.7c-1.3-0.4-2.3-1.1-2.5-2L76.5,238.4z"/>
	<path class="st4" d="M73,209.6c0,0-0.3,0.3-0.8,0.9c-2.1,2.6-7.9,9.9-8.9,15.3c-1.2,6.6,8.3,14.7,16.8,13.3s11.5-9,11.9-14
		s-6.7-15.1-9.8-17.9C77.7,206.1,73,209.6,73,209.6z"/>
	<path class="st4" d="M79.3,236c-1.4,3-9,4.7-12.7,6.2c-3.7,1.5-8.9-0.1-9.2-2.7c0-0.2,0-0.3,0-0.5c-0.1-2.9,3.1-3.4,7.2-4.5
		c1.1-0.3,2.2-0.7,3.2-1.2c1.5-0.9,1.8-1.7,1.8-1.7S80.7,232.9,79.3,236z"/>
	<path class="st4" d="M60.1,216.1c-4.8,2.8-8.9,6.1-5.4,8.2s9.8-2.5,12.8-2.9s7.5-2.2,8.6-4.7s0.7-7.9-3.2-7.2
		C68.7,210.4,60.1,216.1,60.1,216.1z"/>
	<path class="st0" d="M71.5,232.4c0,0-0.7,2.2-4.8,4.2c-3,1.2-6.1,2-9.3,2.4c-0.1-2.9,3.1-3.4,7.2-4.5c1.1-0.3,2.2-0.7,3.2-1.2
		L71.5,232.4z"/>
	<path class="st4" d="M63.5,226.2c0,0-0.6,1.7-5,2.9s-7.7,1.6-7.2,5c0.3,2.6,5.6,4.3,9.2,2.7c3.6-1.6,11.3-3.2,12.7-6.2
		S63.5,226.2,63.5,226.2z"/>
</g>
<g id="head">
	<g>
		<g>
			<defs>
				<path id="SVGID_7_" d="M144.8,28.5c-0.3,10.5-15.6,22.3-28.8,26c-2.5,0.7-6.3,12.9-12.1,20.2c-4.3,5.4-7.9,8.9-12.7,8.9
					s-6.5-2.1-8.6-8.5c-1.2-3.7-6.7-24.1-5.5-34.6c1.3-12.3,5.4-27.6,16.2-33.9c8.6-5.1,16.1-6.7,28.2-6.6
					c7.3,0.1,15.3,3.8,19.1,9.6C144.2,15.1,144.9,22.1,144.8,28.5z"/>
			</defs>
			<clipPath id="SVGID_8_">
				<use xlink:href="#SVGID_7_"  style="overflow:visible;"/>
			</clipPath>
			<g class="st13">
				<rect x="62.8" y="-1.2" class="st4" width="87.4" height="88.5"/>
				<path class="st6" d="M87.5,68.6c-2,0.8-4.1,1.2-6.2,1.3c-2.2-0.1-4.4-0.5-6.5-1.3H87.5z"/>
				<path class="st0" d="M92.5,34.8c-1.6-1.4-3.3-2.4-4.9-2.3c-0.8,0.1-1.7,0.3-2.4,0.7c-0.4,0.2-0.8,0.5-1.2,0.7s-0.8,0.5-1.2,0.8
					l-0.1,0.1c-0.6,0.3-1.3,0.1-1.6-0.5c-0.3-0.5-0.2-1.1,0.2-1.4c0.4-0.4,0.9-0.7,1.3-1c0.5-0.3,1-0.6,1.5-0.8
					c1.1-0.5,2.4-0.7,3.6-0.6c1.2,0.1,2.4,0.7,3.2,1.5C91.7,32.7,92.2,33.7,92.5,34.8z"/>
				<g>
					<g>
						<defs>
							<path id="SVGID_9_" d="M82.5,43c-1,4.3-0.8,8.1,0.2,10c1.9,0.3,4.2-0.2,6.1-4.2c1.3-2.8,2-8.5,0.3-11.6
								C87.6,35.9,83.4,38.7,82.5,43z"/>
						</defs>
						<clipPath id="SVGID_10_">
							<use xlink:href="#SVGID_9_"  style="overflow:visible;"/>
						</clipPath>
						<g class="st14">
							<rect x="80.1" y="34.7" class="st15" width="10.9" height="20.1"/>
							<ellipse class="st16" cx="85" cy="46.7" rx="2.8" ry="7"/>
							<ellipse cx="85" cy="46.7" rx="1.4" ry="3.5"/>
							<path class="st17" d="M82.5,54.6c0,0-3.5-9.1,1.4-14.3c0.7-0.7,2.7-2.4,3.7-1.7c0,0,1.6,1.3,1.7,4.6
								c-0.1,2.8-0.6,5.6-1.6,8.2l2.8-2l1.4-20.6l-8.5,0.8L79.2,53L82.5,54.6z"/>
						</g>
					</g>
				</g>
				<path class="st9" d="M66.4,3.4c-0.2,0.6-0.1,1.3,0.2,1.9C67,6.2,67.4,7.1,68,7.9c1.3,1.8,2.7,3.5,4.3,5.1
					c1.6,1.6,3.3,3.2,5.1,4.7s3.6,3,5.4,4.3l0,0L76,21.8c1.3-1,2.4-1.8,3.6-2.6s2.4-1.6,3.6-2.3c2.4-1.5,4.8-2.9,7.3-4.2
					c5-2.7,10.2-4.9,15.6-6.7c5.4-1.9,11-3,16.7-3.5s11.4,0.1,16.9,1.8h0.1c0.9,0.3,1.5,1.3,1.2,2.2s-1.3,1.7-2.3,1.4
					c-5.1-1.3-10.3-1.6-15.5-0.9s-10.4,2-15.3,4c-5,1.9-9.8,4.3-14.3,7.1c-4.6,2.7-9,5.8-13.1,9.1l-1.2,1l-1.1-1l0,0
					c-1.8-1.7-3.5-3.5-5.1-5.3s-3.2-3.7-4.8-5.7c-1.6-2-2.9-4.1-4.1-6.3c-0.6-1.2-1.1-2.5-1.4-3.9c-0.2-0.8-0.2-1.6-0.1-2.4
					c0.1-0.9,0.4-1.8,1-2.5c0.5-0.8,1.6-1.1,2.4-0.6s1,1.5,0.6,2.3L66.4,3.4z"/>
			</g>
		</g>
	</g>
	<g>
		<g>
			<defs>
				<path id="SVGID_11_" d="M103,34.9c0,0,30.4-2.7,41.5-13.5c-0.2-2.3-0.7-4.6-1.4-6.8c0,0,13.6,3,11.9,14
					c-1.4,9-19.7,12.2-28.7,12.4C118,41.2,107,38.8,103,34.9z"/>
			</defs>
			<clipPath id="SVGID_12_">
				<use xlink:href="#SVGID_11_"  style="overflow:visible;"/>
			</clipPath>
			<g class="st18">
				<path class="st6" d="M99.6,33.6l40.6-11.8l3.1-11.3L159.8,22c0,0,7.4,18.3-15.7,21.1C121.1,46,102.4,39.7,99.6,33.6z"/>
				<path class="st19" d="M114.5,31.9c0,0,8.6-1.3,9.5,5.1s-8,6-8,6"/>
				<path class="st19" d="M130.4,28.2c0,0,8.6-1.3,9.5,5.2s-8.3,8.4-8.3,8.4"/>
				<path class="st19" d="M140.6,23.8c0,0,9.7-3.4,11.7,2.8c2.3,7.2-6.6,11.4-6.6,11.4"/>
				<path class="st19" d="M141.9,19.9c0,0,2-2.7,4.9-2.7c3.7-0.1,7.1,2.1,8.5,5.5"/>
			</g>
		</g>
	</g>
</g>
</svg>
