<?xml version="1.0" encoding="utf-8"?>
<!-- Generator: Adobe Illustrator 25.2.0, SVG Export Plug-In . SVG Version: 6.00 Build 0)  -->
<svg version="1.1" id="Layer_1" xmlns="http://www.w3.org/2000/svg" xmlns:xlink="http://www.w3.org/1999/xlink" x="0px" y="0px"
	 viewBox="0 0 161.2 469.8" style="enable-background:new 0 0 161.2 469.8;" xml:space="preserve">
<style type="text/css">
	.st0{fill:#44F5A0;}
	.st1{clip-path:url(#SVGID_2_);}
	.st2{fill:#F7EC17;}
	.st3{fill:none;stroke:#DDCD00;stroke-width:0.95;stroke-miterlimit:10;}
	.st4{fill:#33D08C;}
	.st5{fill:#891B6A;}
	.st6{fill:#DDCD00;}
	.st7{fill:#721267;}
	.st8{fill:#1B8B79;}
	.st9{fill:none;stroke:#33D08C;stroke-width:1.02;stroke-linecap:round;stroke-miterlimit:10;}
	.st10{fill:none;stroke:#DDCD00;stroke-miterlimit:10;}
	.st11{fill:#AA1A88;}
	.st12{clip-path:url(#SVGID_4_);}
	.st13{fill:none;stroke:#33D08C;stroke-miterlimit:10;}
	.st14{clip-path:url(#SVGID_6_);}
	.st15{clip-path:url(#SVGID_8_);}
	.st16{fill:#F5FAFF;}
	.st17{fill:#9629FF;}
	.st18{fill:#022538;}
	.st19{clip-path:url(#SVGID_10_);}
	.st20{clip-path:url(#SVGID_12_);}
	.st21{clip-path:url(#SVGID_14_);}
</style>
<path id="l-arm" class="st0" d="M76.4,108.4c-0.1,0.4-0.2,0.7-0.3,1.1c-2,6-3.8,12-5.6,18l-2.6,9l-2.6,9c-1.6,6.1-3.3,12.1-4.8,18.2
	s-2.8,12.2-3.7,18.4c-0.5,3.6-4.1,6.1-8.3,5.8c-0.3,0-0.7,0-1-0.1c-4.5-0.8-7.8-4.6-7.2-8.5c0.1-0.4,0.2-0.8,0.3-1.1
	c2.1-5.9,3.7-12,5.2-18.1s2.8-12.2,4.2-18.3l1.9-9.2l1.8-9.2c1.2-6.1,2.3-12.3,3.3-18.5c0.7-4.6,5.7-7.5,11-6.6
	c1.1,0.2,2.1,0.5,3.1,1C74.8,101.2,77,104.8,76.4,108.4z"/>
<g id="l-forearm">
	<g>
		<g>
			<defs>
				<path id="SVGID_1_" d="M67.7,178.9c0,0-1.9,28.9-35.5,48.8c-10.5,6.2-14.4,2.1-16.7-0.5c-5.1-5.7,3-21.2,4.2-23.6
					c1.7-3.4,8.1-19.2,10.8-26.3c3.6-9.2,8.1-7.9,15.1-11c4.2-1.8,6.9-10,14.5-7.4S66.8,168.4,67.7,178.9z"/>
			</defs>
			<clipPath id="SVGID_2_">
				<use xlink:href="#SVGID_1_"  style="overflow:visible;"/>
			</clipPath>
			<g class="st1">
				
					<rect x="-1.9" y="170.2" transform="matrix(0.6113 -0.7914 0.7914 0.6113 -136.2509 107.5909)" class="st2" width="86.7" height="44.5"/>
				<path class="st3" d="M63.8,154.2c-5.9,7.3-10.7,15.5-14.3,24.1c-5.2,12.5-11.5,23.3-24.9,32.6c-5.1,3.6-6.9,20.5-6.9,20.5
					l-19.3-20.8l34.1-51.1l18.8-11.1L63.8,154.2z"/>
			</g>
		</g>
	</g>
</g>
<g id="l-hand">
	<path class="st0" d="M23.1,235.2c-0.6,3.4,0.8,8.8,0.8,12c0.1,1.7,0.8,3.3,2,4.5c0.7,0.9,1.8,1.4,3,1.2c2.6-0.8,1.8-3.3,1.2-6.8
		c-0.3-2.4,0.1-4.9,1.1-7.1C31.3,239,23.5,232.6,23.1,235.2z"/>
	<path class="st4" d="M23.4,240.9l1.6,9.6c0.7,0.9,1.9,1.4,3,1.2c0,0-3-7.9-0.7-10.6C26.6,240.4,23.4,240.9,23.4,240.9z"/>
	<path class="st0" d="M19.1,211.9c0,0-0.3,0.4-0.8,1c-2,2.7-7.5,10.2-8.3,15.6c-1,6.6,8.9,14.4,17.2,12.7s11.1-9.4,11.4-14.4
		s-7.2-14.9-10.4-17.6C23.6,208.2,19.1,211.9,19.1,211.9z"/>
	<path class="st0" d="M6.4,218.9c-4.6,2.9-8.7,6.5-5,8.4s11-3.1,15.4-2.1c3,0.7,10.2-1.5,11.2-4.1s-3.4-10.7-7.2-9.8
		C16.5,212.2,6.4,218.9,6.4,218.9z"/>
	<path class="st0" d="M24.3,253.7c-0.1,0.1-0.3,0.2-0.4,0.2c-1.3,0.5-3-0.3-4.4-1.8c-1.3-1.4-2.2-3.1-2.4-5
		c-0.2-1.9-0.8-4.6-1.2-7.2c-0.4-2.8-0.5-5.5,0.5-6.9c2-2.7,8.5,6.4,8.5,6.4c-0.4,0.7-0.6,1.6-0.6,2.4c0,1.1,0.2,2.3,0.4,3.4
		C25.8,249.3,26.9,252.3,24.3,253.7z"/>
	<path class="st4" d="M19.5,252.1c-1.3-1.4-2.2-3.1-2.4-5c-0.2-1.9-0.8-4.6-1.2-7.2c0.6-1.1,1.4-2.2,2.3-3.2l2,0.6
		c-0.6,2.8,1.5,7.1,1.8,8.5C23.1,249.8,22,250.8,19.5,252.1z"/>
	<path class="st0" d="M18.8,233.4c0,0-1.2,1.4-0.1,5.7c1.1,4.4,2.3,7.5-0.9,8.7c-2.4,1-6.4-2.9-6.8-6.8s-2.7-11.4-0.7-14.1
		S18.8,233.4,18.8,233.4z"/>
</g>
<g id="l-calf">
	<path class="st5" d="M95.5,427.1c0,3.6-37.8-2.5-37.8-2.5s0.2-24.9,0.3-32.6c0.3-28.2-3.5-76.7-3.5-76.7s18.2-4.3,22.3-4.4
		c2.1,0,3.9,0.3,4.3,1.5c9.4,24.1,9.1,35.8,9.3,52.2c0,13,1.1,26,3.1,38.8C94.9,411,95.5,426.8,95.5,427.1z"/>
	<path class="st6" d="M51.1,424c-4.8,7.7-46.5,5.8-41,26.7l18.3,1.2c-0.1,2.1-0.1,4.3,0.2,6.4c0.3,2.4,11.7,2.2,17.5,1.7
		c15.7-1.6,14.8-8.2,35.7-10.8c0,0,22.1,3.5,28.3,3c4.4-0.4,0.1-8.2-6.9-11.2c-6.1-2.7-5.6-12.6-7.3-25.8c-3.4-27-5.4-51.4-5.3-50.4
		c0,0-18.8,11.5-32.4,27.4C56.8,400.7,57.8,413.1,51.1,424z"/>
</g>
<g id="l-thigh">
	<path class="st4" d="M63.1,226.4c-5.9,11.1-14.6,22.3-16.5,31.2c-1.9,8.9,2.2,6.7,2.5,11s-1,5-1.4,13.2c-0.2,4.2,3.2,4.2,6.6,3.2
		c-1.2,3.4-2.1,6.8-1.5,8.5c1.4,4.2,8.6,0.2,8.6,0.2C59.9,271.4,60.5,248.8,63.1,226.4z"/>
	<path class="st5" d="M101.2,230.2c-1.6,5.1-3,10.1-4.4,14.8c-12.3,43.1-16.1,70.5-16.1,70.5S76.5,325,68.2,326
		c-12.4,1.5-14.6-11.7-14.6-11.7s-3.5-16.8-1.5-48.8c0.9-14.2,2.4-31.5,11.7-51.2c9.5-20.3,30.8-11.4,30.8-11.4
		S106.8,211.7,101.2,230.2z"/>
	<path class="st7" d="M98.8,245.1c-12.3,43.1-17.1,65.1-17.1,65.1l-5.2-73.8L98.8,245.1z"/>
</g>
<g id="tail">
	<path class="st8" d="M114.9,29.3L114.9,29.3v0.3c0,0.2,0,0.4,0,0.6c0,0.5,0.1,0.9,0.1,1.3c0.1,0.9,0.2,1.9,0.3,2.9s0.3,2,0.4,2.9
		s0.3,2,0.5,3c0.8,4,1.8,7.9,3.1,11.7c0.3,1,0.7,1.9,1.1,2.8c0.4,0.9,0.7,1.9,1.1,2.8s0.9,1.8,1.3,2.8l0.6,1.4l0.7,1.3l1.4,2.7
		c0.5,0.9,1.1,1.7,1.6,2.6s1.1,1.8,1.7,2.6l1.8,2.5c1.2,1.7,2.6,3.3,4,4.8l1,1.2l1.3,1.4l2.6,2.8c0.9,0.9,1.7,1.9,2.5,2.9l2.4,3
		c0.8,1,1.6,2.1,2.3,3.1s1.5,2.1,2.2,3.2c2.9,4.4,5.3,9.2,7,14.1c0.4,1.3,0.8,2.6,1.1,3.9s0.6,2.6,0.7,4c0.1,0.7,0.1,1.3,0.2,2
		c0,0.7,0,1.4,0,2.1c0,0.7-0.1,1.4-0.2,2.1c-0.1,0.8-0.3,1.5-0.5,2.2c-0.3,1-1.3,1.5-2.3,1.2c-0.5-0.1-0.9-0.5-1.1-0.9l-0.5-1
		c-0.1-0.3-0.3-0.9-0.4-1.3l-0.3-0.7l-0.3-0.7c-0.2-0.5-0.4-1-0.7-1.4c-0.2-0.5-0.5-1-0.8-1.4c-0.5-0.9-1.2-1.8-1.8-2.7
		c-0.3-0.4-0.7-0.9-1-1.3s-0.6-0.9-1-1.3c-2.8-3.4-6-6.4-9.3-9.2c-0.4-0.4-0.8-0.7-1.2-1.1l-1.3-1c-0.9-0.7-1.7-1.4-2.6-2.1
		c-1.9-1.3-3.6-2.7-5.4-3.9l-2.8-1.9c-0.5-0.3-0.9-0.6-1.4-1l-1.6-1.2c-2.2-1.6-4.3-3.3-6.3-5.1l-3-2.8c-1-0.9-1.9-2-2.8-3
		s-1.9-2-2.7-3.1l-2.5-3.2l-1.3-1.6l-1.1-1.7l-2.3-3.4c-0.7-1.2-1.4-2.4-2.1-3.6s-1.3-2.4-1.9-3.7s-1.2-2.5-1.8-3.7l-1.5-3.8
		c-0.5-1.3-0.9-2.6-1.4-3.9c-0.2-0.7-0.4-1.3-0.6-2l-0.6-2c-0.4-1.3-0.7-2.7-1-4s-0.6-2.7-0.8-4.1s-0.4-2.8-0.6-4.2
		C87,33.8,87,33,86.9,32.3c0-0.4-0.1-0.8-0.1-1.2v-0.6v-0.8c-0.2-7.6,5.9-13.9,13.5-14.1c6.4-0.1,12.1,4.2,13.7,10.4L114.9,29.3z"/>
	<path class="st9" d="M114.9,34.7c0,0-1.6,0.7-4.1,1.5c-2.9,1-5.8,1.9-8.9,2.5c-3,0.5-6.1,0.7-9.2,0.6c-1.5-0.1-2.9-0.2-4.4-0.4"/>
	<path class="st9" d="M116.1,42.9c0,0-1.5,0.8-3.7,1.9c-2.6,1.3-5.3,2.5-8.1,3.4c-2.8,0.8-5.8,1.3-8.7,1.5c-1.4,0.1-2.8,0.1-4.2,0.1
		"/>
	<path class="st9" d="M118.2,51c0,0-1.3,1-3.3,2.3c-2.3,1.6-4.8,2.9-7.3,4.1c-2.6,1.1-5.3,1.9-8.1,2.3c-1.3,0.2-2.7,0.4-4,0.5"/>
	<path class="st9" d="M121.1,58.9c0,0-1.1,1.1-2.8,2.5c-2,1.7-4.1,3.3-6.3,4.7c-2.3,1.3-4.8,2.3-7.3,3c-1.2,0.3-2.5,0.6-3.8,0.8"/>
	<path class="st9" d="M124.9,66.4c0,0-0.9,1.2-2.3,2.7c-1.6,1.9-3.3,3.5-5.2,5.1c-3,2.1-6.3,3.7-9.9,4.7"/>
	<path class="st9" d="M129.6,73.5c0,0-0.7,1.2-1.7,2.8c-1.2,1.9-2.6,3.7-4.2,5.3c-1.6,1.5-3.5,2.8-5.5,3.9c-1,0.5-2,1-3,1.4"/>
	<path class="st9" d="M135.2,80.1l-0.3,0.8c-0.2,0.5-0.4,1.2-0.8,2.1c-0.8,1.9-1.9,3.7-3.1,5.3c-1.4,1.5-2.9,2.9-4.6,4
		c-0.7,0.5-1.4,0.9-1.8,1.2l-0.8,0.4"/>
	<path class="st9" d="M142.2,87.8c-0.3,0.9-0.6,1.7-1.1,2.6c-0.7,1.7-1.8,3.2-3,4.5c-1.3,1.3-2.8,2.3-4.4,3.2
		c-1.4,0.8-2.5,1.2-2.5,1.2"/>
	<path class="st9" d="M148.6,96.1c-0.3,0.8-0.6,1.5-1,2.3c-0.7,1.4-1.7,2.7-2.9,3.7c-1.3,1-2.7,1.7-4.2,2.2
		c-1.3,0.5-2.3,0.8-2.3,0.8"/>
	<path class="st9" d="M154,105.3c-0.3,0.6-0.6,1.3-1,1.9c-0.6,1.1-1.5,2.1-2.6,2.8c-1.1,0.6-2.4,1-3.7,1.1c-1.1,0.2-2.1,0.2-2.1,0.2
		"/>
	<path class="st9" d="M157.4,115.6c-0.3,0.5-0.6,1-0.9,1.4c-0.5,0.8-1.2,1.4-2.1,1.8c-0.9,0.2-1.8,0.1-2.7-0.1
		c-0.9-0.2-1.6-0.4-1.6-0.4"/>
</g>
<g id="r-calf">
	<path class="st5" d="M142.7,431c0.3,3.5-37.8,1.1-37.8,1.1s-2.1-24.9-2.8-32.5c-2.4-28.1-10.7-76-10.7-76s17.7-6,21.8-6.5
		c2.1-0.2,3.9,0,4.4,1c11.6,23.1,12.5,34.8,14.2,51.1c1.3,12.9,3.6,25.7,6.8,38.3C140.6,415.1,142.7,430.7,142.7,431z"/>
	<path class="st2" d="M98.2,432.1c-4,8.1-45.8,10.2-38.3,30.5l18.4-0.5c0.1,2.1,0.3,4.3,0.8,6.4c0.6,2.3,11.9,1.1,17.6,0
		c15.4-3.1,14-9.6,34.5-14.1c0,0,22.4,1.4,28.4,0.3c4.3-0.8-0.7-8.1-8-10.5c-6.3-2.1-6.8-12-9.7-25c-6-26.5-10.3-50.6-10.1-49.6
		c0,0-12.7,13.8-23.8,24.3c-3.8-3.1-5.6-6.2-8.4-16.4C100.1,390.1,103.9,420.6,98.2,432.1z"/>
	<path class="st10" d="M108.1,393.6c0,0,2.1,25-3.2,38.5c-3.8,9.6-7.7,12.3-15,15.8c-6.9,3.3-12.7,10.6-10.8,20.5"/>
</g>
<g id="r-thigh">
	<path class="st5" d="M130.5,234.4c-10.8,52.9-12.2,86.9-12.2,86.9s-3.2,9.9-11.5,11.7c-12.2,2.7-15.7-10.2-15.7-10.2
		s-5-16.4-6.1-48.4c-0.5-14.3-0.6-31.6,6.8-52.1c7.6-21.1,29.6-14.2,29.6-14.2S134.4,215.4,130.5,234.4z"/>
	<path class="st4" d="M118.2,225.6c4.4,11.9,11.3,24.1,12,33.2c0.7,9.1-3.1,6.3-4.1,10.6s0.3,5-0.4,13.3c-0.4,4.2-3.8,3.8-7,2.3
		c0.8,3.6,1.1,7,0.3,8.7c-2,4-8.6-1-8.6-1C115.1,270.6,117.7,248.2,118.2,225.6z"/>
</g>
<g id="torso">
	<path class="st5" d="M118.9,194.9c0,0,13.1,19,12.6,33.3c-0.5,13.3-13.6,21.1-47.4,21.1c-7.1,0-24-14.4-23.1-28.1
		c2.4-10.4,6.2-21.7,6.2-21.7L118.9,194.9z"/>
	<path class="st5" d="M115.4,180.1c-0.3-16.1,17.4-43.7,9.4-81.5c-15.7-5.8-39.5-8.2-54-2.5c-17,40.9,0.7,65.1-0.4,81.2
		c-0.8,11.3-4.5,29-4.5,29s8.7,15,18,32c9.2-17.1,39.5-32.6,39.5-32.6C118.9,194.9,115.5,187,115.4,180.1z"/>
	<path class="st11" d="M95.5,166.2c4-14.9,11.2-22.7,16.3-31c3.6-5.9,16-30.1,14.9-33.7s-9.9-4.8-13.9-7.2l-23,22.8l1-25l-17,2.9
		c-14,24.1-10.3,32.9-9.6,39.8c1.1,9.7,7.8,19,10.8,28.3c1.3,3.9,8.8,48.2,8.8,48.2S92.4,177.6,95.5,166.2z"/>
	<path class="st4" d="M80.1,94.3c0.3,0,17.1-3.8,29.4-1S89.7,117,89.7,117s-5.8-2.3-8.3-7.1C76.2,99.8,80.1,94.3,80.1,94.3z"/>
	<path class="st2" d="M82.4,93.3c0,0-21.5,6.8-18.7,44.5c0,0-18.6-28.8-10.2-39.7C61.1,96.2,82.4,93.3,82.4,93.3z"/>
	<path class="st2" d="M76.5,89.3c0.4-4.8,3.4-17.6,19-18.1s-12.8,22.7-11.7,30.3S76.5,89.3,76.5,89.3z"/>
	<path class="st4" d="M104.1,108.5c0,0-5.6,7.3-12.9,7.3s-7.3-7.3-7.3-7.3s0-7.5,0-21.3s0.3-25.3,0.3-25.3l22.9-11.8
		c0,0-5.4,18.1-5.1,37.2C102.3,101,104.1,108.5,104.1,108.5z"/>
	<path class="st2" d="M89.8,117c0,0,4.4,1.2,16-9.1c3-2.6,5.2-7.3,7-10.8c1.8-3.4,3-7,3.7-10.8c0.6-3.5-0.4-4.7-1.8-6.8
		c-2.3-3.3-6.7-5.2-10.5-6c-0.3-0.1-1.2-0.1-1.5-0.2c-0.7,6.6-0.9,13.2-0.4,19.8c0.2,1.2,0.3,2.4,0.2,3.6c-0.2,3.5-1.2,6.8-3,9.8
		C95.8,112.5,90.6,115.3,89.8,117z"/>
	<path class="st2" d="M118.4,96.5c0,0-3.1,1.9-5.5,10.6c-3.6,13.5-1.2,28,5.4,34.4c0,0,29.4-23.6,22.6-40.4
		C133.3,99.2,118.4,96.5,118.4,96.5z"/>
	<path class="st6" d="M118.4,141.5c-0.8-5.1-0.8-10.3,0-15.4c1.5-8.2,9.8-23.8,17.1-20C148.3,112.7,118.4,141.5,118.4,141.5z"/>
	<path class="st2" d="M89.8,117c0,0-4.9-1.8-5.9-14.4c-0.2-2.4-0.4-6.1-0.4-6.1l-7-7.3c-0.4,4.9,0,9.8,1.2,14.6
		C80.9,117.1,89.8,117,89.8,117z"/>
</g>
<path id="r-arm" class="st0" d="M140.2,112.3c0.1,0.4,0.1,0.8,0.1,1.1c-0.2,6.3-0.2,12.6-0.2,18.8l0.1,9.4l0.2,9.4
	c0.2,6.3,0.3,12.5,0.7,18.8s0.9,12.5,1.8,18.7c0.6,3.6-2.2,7-6.2,8c-0.3,0.1-0.7,0.1-1,0.2c-4.6,0.6-8.8-2.1-9.3-6
	c-0.1-0.4-0.1-0.8-0.1-1.2c0.3-6.3,0.1-12.6-0.2-18.8s-0.8-12.5-1.3-18.7l-0.8-9.4l-0.9-9.4c-0.6-6.2-1.4-12.5-2.2-18.7
	c-0.6-4.6,3.2-8.8,8.6-9.5c1.1-0.1,2.2-0.1,3.3,0.1C136.5,105.8,139.7,108.6,140.2,112.3z"/>
<g id="head">
	<g>
		<g>
			<defs>
				<path id="SVGID_3_" d="M53.9,29.8c-0.2,4.5,2.4,6.7,2.1,7.5c-0.2,0.7-1.3,0.9-2.6,0.3c0,0-11.6-3.9-11.5-10.5
					c0.1-12,15.8-17.1,20-17C56.9,16.3,55,22.1,53.9,29.8z"/>
			</defs>
			<clipPath id="SVGID_4_">
				<use xlink:href="#SVGID_3_"  style="overflow:visible;"/>
			</clipPath>
			<g class="st12">
				<path class="st8" d="M53.9,29.8c-0.2,4.5,2.4,6.7,2.1,7.5c-0.2,0.7-1.3,0.9-2.6,0.3c0,0-11.6-3.9-11.5-10.5
					c0.1-12,15.8-17.1,20-17C56.9,16.3,55,22.1,53.9,29.8z"/>
				<path class="st13" d="M55.6,31.5c-2.3-1.9-5.4-2.6-8.3-2c-5.1,1-1.6,6.2,3.3,8.1"/>
				<path class="st13" d="M56.8,28.5c0,0-0.6-3.1-4.8-6.1s-10.7-0.7-10.7,5.3"/>
				<path class="st13" d="M48.6,14.6c1.1-0.5,2.3-0.5,3.4-0.1c2.7,1.2,4.7,3.6,5.3,6.6"/>
				<path class="st13" d="M58.2,9.7c0,0,3.8,0.4,3.8,6.7"/>
			</g>
		</g>
	</g>
	<g>
		<g>
			<defs>
				<path id="SVGID_5_" d="M121.8,31c-0.3,11.5-17,25.6-24.2,31.2c-2.2,1.7-3.6,6.2-7.1,11.7c-4,6.3-8.6,12.5-13.8,12.5
					s-10.1-4-13-10.7c-1.6-3.9-5.9-9.4-8.6-12.9c-5.6-7.4-7.3-15.4-5.4-26.7c1.2-7.3,3.2-15,7-20.1c2.9-3.8,6.5-7,10.6-9.4l0,0
					c1.4-0.9,2.9-1.6,4.4-2.4c2.9-1.3,5.8-2.3,8.9-3c0.9-0.2,1.8-0.4,2.7-0.6C85.7,0.2,88.1,0,90.5,0c4.1-0.1,8.2,0.3,12.2,1.1
					c2.2,0.5,4.4,1.2,6.4,2.2C116.8,7,122.2,14.8,121.8,31z"/>
			</defs>
			<clipPath id="SVGID_6_">
				<use xlink:href="#SVGID_5_"  style="overflow:visible;"/>
			</clipPath>
			<g class="st14">
				<rect x="45.2" y="-4.7" class="st0" width="79.2" height="93.4"/>
				<path class="st8" d="M81.6,70.9c-2.2,0.9-4.4,1.3-6.8,1.4c-2.4-0.1-4.8-0.6-7-1.4H81.6z"/>
				<path class="st4" d="M51.7,37.7c-0.1-1.3,0.4-2.6,1.3-3.6c1-1,2.3-1.6,3.7-1.7c1.3-0.1,2.7,0.1,3.9,0.6c0.6,0.3,1.2,0.5,1.7,0.8
					s1,0.7,1.5,1.1c0.3,0.2,0.4,0.7,0.1,1l0,0c-0.2,0.2-0.5,0.3-0.7,0.2h-0.1c-0.5-0.2-1.1-0.3-1.6-0.6L59.9,35c-1-0.3-2-0.4-3-0.4
					s-1.9,0.3-2.7,0.8C53.3,36.1,52.4,36.9,51.7,37.7z"/>
				<path class="st4" d="M97.7,39.2c-1.8-0.7-3.3-1.3-4.9-1.8c-1.5-0.5-3-0.8-4.5-1s-3.1,0-4.6,0.3c-0.8,0.2-1.6,0.4-2.3,0.7
					c-0.8,0.3-1.5,0.6-2.4,0.9h-0.1c-0.4,0.1-0.7-0.1-0.9-0.4l0,0c-0.1-0.2,0-0.5,0.2-0.7c0.3-0.3,0.6-0.7,1-1
					c0.3-0.3,0.7-0.6,1.1-0.9c0.8-0.5,1.6-1,2.5-1.4c3.7-1.5,7.8-1.1,11.2,1C95.7,36,96.9,37.4,97.7,39.2z"/>
				<g>
					<g>
						<defs>
							<path id="SVGID_7_" d="M66.1,46.6c0.7,4.8-0.6,8.6-3.1,9.9c-3.7-0.6-8.7-3.7-9.4-8.4s0.2-7.9,4.1-10
								C60.8,37.7,65.3,41.8,66.1,46.6z"/>
						</defs>
						<clipPath id="SVGID_8_">
							<use xlink:href="#SVGID_7_"  style="overflow:visible;"/>
						</clipPath>
						<g class="st15">
							
								<rect x="49" y="36.7" transform="matrix(0.2529 -0.9675 0.9675 0.2529 -9.530865e-02 93.2265)" class="st16" width="22.6" height="19.9"/>
							<circle class="st17" cx="60.2" cy="49" r="7.3"/>
							<circle cx="60.2" cy="49" r="3.7"/>
							<path class="st18" d="M62.8,58.3c0,0,7.3-9.3-0.6-17c-1.4-1.2-3.2-1.8-5-1.6c0,0-2.2,0.1-3.2,3.4c-0.7,2.5-0.6,5.2,0.3,7.6
								l-5.4-1.5l2.8-21.4l16,5.1l1.8,25.6L62.8,58.3z"/>
						</g>
					</g>
				</g>
				<g>
					<g>
						<defs>
							<path id="SVGID_9_" d="M80,46c-2,4.6-1.7,8.8,0.5,10.8c3.8,0.3,9.7-1.4,11.8-6c1.6-3.6,3.2-8,0.2-10.8
								C89.4,38.8,82,41.4,80,46z"/>
						</defs>
						<clipPath id="SVGID_10_">
							<use xlink:href="#SVGID_9_"  style="overflow:visible;"/>
						</clipPath>
						<g class="st19">
							<rect x="75.2" y="37" class="st16" width="22.3" height="21.8"/>
							<circle class="st17" cx="85.1" cy="50.1" r="7.6"/>
							<circle cx="85.1" cy="50.1" r="3.8"/>
							<path class="st18" d="M80.2,58.7c0,0-4.9-11.4,5.1-17c1.7-0.9,3.7-1,5.4-0.3c0,0,2.2,0.7,2.3,4.2c0.1,2.7-0.7,5.4-2.3,7.6
								l5.9-0.1l2.7-22.4l-17.5,0.9l-8.4,25.3L80.2,58.7z"/>
						</g>
					</g>
				</g>
				<path class="st2" d="M77.7,1.5C75.7,3,74.1,5,73,7.2c-1,2.1-1.5,4.4-1.4,6.7s0.7,4.6,1.6,6.8c0.5,1.1,1,2.2,1.6,3.2
					c0.3,0.5,0.6,1,0.9,1.5l0.5,0.7c0.1,0.2,0.3,0.4,0.4,0.6l-7-1.5l0,0c3.6-2,7.1-4,10.7-6.2s7-4.3,10.5-6.5s6.8-4.5,10-7
					c1.6-1.2,3.1-2.5,4.5-3.9c0.7-0.6,1.2-1.3,1.8-2c0.2-0.3,0.4-0.5,0.5-0.9c0-0.1,0.1-0.1,0.1-0.1c0,0.1,0.1,0.1,0.1,0.2
					c-0.6-0.8-0.5-1.9,0.2-2.5c0.8-0.6,1.9-0.5,2.5,0.2c0.4,0.5,0.6,1,0.7,1.6c0.1,0.5,0,0.9-0.1,1.4c-0.2,0.7-0.4,1.3-0.8,1.9
					c-0.6,1-1.3,1.9-2.1,2.7c-1.4,1.6-3,3.1-4.6,4.5c-3.2,2.8-6.5,5.4-9.8,7.9c-6.7,5-13.5,9.7-20.5,14.2l0,0l-1.5,1l-0.9-1.5
					c-0.8-1.3-1.5-2.6-2.1-4c-0.6-1.3-1.1-2.7-1.5-4.1c-0.9-2.9-1.2-5.9-1-8.9c0.2-3.1,1.2-6.1,2.9-8.7c1.7-2.5,3.9-4.7,6.5-6.3
					c0.8-0.5,1.9-0.2,2.4,0.6c0.4,0.7,0.3,1.7-0.3,2.2L77.7,1.5z"/>
			</g>
		</g>
	</g>
	<g>
		<g>
			<defs>
				<path id="SVGID_11_" d="M113.8,27.7c-3,4.8-6.9,9.3-6.6,10.1c0.2,0.7,1.3,0.9,2.6,0.3c0,0,15.2-4,18.6-9.8
					c8-13.6-7.3-18.8-11.5-18.7C121.9,15.9,117.1,22.2,113.8,27.7z"/>
			</defs>
			<clipPath id="SVGID_12_">
				<use xlink:href="#SVGID_11_"  style="overflow:visible;"/>
			</clipPath>
			<g class="st20">
				
					<rect x="101.9" y="12.9" transform="matrix(0.4529 -0.8916 0.8916 0.4529 41.8064 120.3466)" class="st8" width="34.1" height="26.4"/>
				<path class="st8" d="M109.3,30.3c0.1,4.5-2.4,6.7-2.1,7.5c0.2,0.7,1.3,0.9,2.6,0.3c0,0,11.6-3.9,11.5-10.5
					c-0.1-12-15.8-17.1-20-17C106.3,16.8,108.2,22.6,109.3,30.3z"/>
				<path class="st13" d="M110,31.6c2.9,0.6,5.5,2.4,6.9,5.1c2.5,4.5-3.7,5.2-8.4,2.7"/>
				<path class="st13" d="M111.5,28.8c0,0,4.8-2.4,9.8-1.2s5.3,8.7,0.8,12.5"/>
				<path class="st13" d="M128.9,31c0,0,5.2-7.6-1.4-10.5c-1.7-0.8-7.7-0.1-11.3,1.8"/>
				<path class="st13" d="M130.5,18c0,0-4.1-9.8-13-1"/>
			</g>
		</g>
	</g>
</g>
<g id="r-forearm">
	<g>
		<g>
			<defs>
				<path id="SVGID_13_" d="M152.2,182.3c0,0,6.5,28.2-19.9,57c-8.3,9-13.1,6.2-16.1,4.4c-6.5-4-3.3-21.2-2.8-23.8
					c0.6-3.8,2.2-20.7,2.8-28.3c0.8-9.8,5.4-10,11.3-14.9c3.4-2.9,3.8-11.6,11.8-11.3S148.3,172.5,152.2,182.3z"/>
			</defs>
			<clipPath id="SVGID_14_">
				<use xlink:href="#SVGID_13_"  style="overflow:visible;"/>
			</clipPath>
			<g class="st21">
				
					<rect x="87.6" y="180.6" transform="matrix(0.3569 -0.9341 0.9341 0.3569 -105.2798 252.7532)" class="st2" width="86.7" height="44.5"/>
				<path class="st3" d="M141.3,159.8c-3.5,8.7-5.8,17.9-6.8,27.2c-1.4,13.4-4.3,25.6-14.4,38.4c-3.9,4.9-0.7,21.6-0.7,21.6
					l-24.5-14.4l17.9-58.8l14.8-16L141.3,159.8z"/>
			</g>
		</g>
	</g>
</g>
<g id="r-hand">
	<path class="st0" d="M135.1,250.7c-1.8,2.9-6.5,6-8.6,8.3c-1.2,1.2-2.8,1.9-4.5,2c-1.1,0.2-2.3-0.2-3-1.1c-1.4-2.3,0.9-3.7,3.7-5.9
		c2.8-2.2,2.7-3.6,2.7-3.6S136.6,248.4,135.1,250.7z"/>
	<path class="st4" d="M127.9,254l-5.9,7c-1.1,0.2-2.3-0.2-3-1.1L127.9,254z"/>
	<path class="st0" d="M115.1,227.9c0,0-0.2,0.4-0.4,1.2c-1.2,3.1-4.2,12-3.4,17.3c1,6.6,12.6,11.2,20.2,7.1
		c7.6-4.1,7.9-12.3,6.7-17.1s-11.2-12.1-15.1-13.7C118.4,223.1,115.1,227.9,115.1,227.9z"/>
	<path class="st0" d="M129.7,250.8c-0.3,3.3-7,7.4-9.9,10s-8.4,2.8-9.6,0.5c-0.1-0.1-0.1-0.3-0.2-0.5c-1-2.8,1.8-4.2,5.4-6.6
		c0.9-0.6,1.8-1.4,2.6-2.2c0.6-0.6,1-1.3,1.2-2.2C119.1,249.8,130,247.5,129.7,250.8z"/>
	<path class="st0" d="M105,238.3c-3.6,4.1-6.4,8.7-2.4,9.5s8.4-5.5,11.2-6.9s6.4-4.5,6.6-7.3s-1.9-7.7-5.3-5.8
		C111.3,230.1,105,238.3,105,238.3z"/>
	<path class="st4" d="M121.2,250c0,0,0.1,2.4-3.2,5.5c-2.4,2.1-5.2,3.9-8.1,5.2c-1-2.8,1.8-4.2,5.4-6.6c0.9-0.6,1.8-1.4,2.6-2.2
		L121.2,250z"/>
	<path class="st0" d="M111.6,246.7c0,0,0,1.8-3.8,4.3s-6.7,4-5.2,7.1c1.2,2.4,6.7,2.2,9.6-0.5c2.9-2.7,9.6-6.7,10-10
		S111.6,246.7,111.6,246.7z"/>
</g>
<path id="shoulder" class="st2" d="M135.5,106.1c0.6,0.3,1.2,0.8,1.7,1.3c1.5,1.1,2.9,2.2,4.2,3.5c0.9-3.2,0.7-6.7-0.5-9.8
	c-7.7-1.9-22.6-4.6-22.6-4.6s-3.1,1.9-5.5,10.6c-3.6,13.4-1.2,28,5.4,34.4c-0.8-5.1-0.8-10.3,0-15.4
	C120,117.9,128.2,102.3,135.5,106.1z"/>
</svg>
