<?xml version="1.0" encoding="utf-8"?>
<!-- Generator: Adobe Illustrator 25.2.0, SVG Export Plug-In . SVG Version: 6.00 Build 0)  -->
<svg version="1.1" id="Layer_1" xmlns="http://www.w3.org/2000/svg" xmlns:xlink="http://www.w3.org/1999/xlink" x="0px" y="0px"
	 viewBox="0 0 225 413" style="enable-background:new 0 0 225 413;" xml:space="preserve">
<style type="text/css">
	.st0{fill:#33D08C;}
	.st1{clip-path:url(#SVGID_2_);}
	.st2{fill:#DDCD00;}
	.st3{fill:none;stroke:#DDCD00;stroke-width:0.95;stroke-miterlimit:10;}
	.st4{fill:#44F5A0;}
	.st5{fill:#721267;}
	.st6{fill:#1B8B79;}
	.st7{fill:none;stroke:#33D08C;stroke-width:1.02;stroke-linecap:round;stroke-miterlimit:10;}
	.st8{fill:#891B6A;}
	.st9{fill:#F7EC17;}
	.st10{clip-path:url(#SVGID_4_);}
	.st11{fill:#AA1A88;}
	.st12{clip-path:url(#SVGID_6_);}
	.st13{clip-path:url(#SVGID_8_);}
	.st14{clip-path:url(#SVGID_10_);}
	.st15{fill:#F5FAFF;}
	.st16{fill:#9629FF;}
	.st17{fill:#022538;}
	.st18{clip-path:url(#SVGID_12_);}
	.st19{fill:none;stroke:#33D08C;stroke-miterlimit:10;}
</style>
<path id="b-arm" class="st0" d="M139.7,138.2c-0.3-0.3-0.5-0.6-0.7-0.9c-3.5-5.1-7.2-10.2-10.8-15.2l-5.6-7.5l-5.6-7.4
	c-3.8-4.9-7.6-9.9-11.5-14.7s-8-9.5-12.4-14c-2.6-2.6-2.4-6.9,0.4-10c0.2-0.3,0.4-0.5,0.7-0.7c3.3-3.1,8.3-3.4,11-0.6
	c0.3,0.3,0.5,0.6,0.7,0.9c3.4,5.2,7.2,10.1,11.1,15s8,9.6,12,14.3l6.1,7l6.2,7c4.2,4.7,8.4,9.2,12.7,13.7c3.2,3.3,2.6,9-1.4,12.6
	c-0.8,0.7-1.7,1.4-2.7,1.9C146.3,141.3,142.2,140.9,139.7,138.2z"/>
<g id="b-forearm">
	<g>
		<g>
			<defs>
				<path id="SVGID_1_" d="M92.9,89.4c0,0-23-17.3-21.2-56c0.6-12.1,6-13.1,9.5-13.6c7.5-1.1,16,14,17.3,16.3
					c1.9,3.3,11.6,17.2,15.9,23.3c5.7,8,7.5,15.4,6.2,22.9c-0.7,4.4-0.8,6.8-7,11.8S101.8,86,92.9,89.4z"/>
			</defs>
			<clipPath id="SVGID_2_">
				<use xlink:href="#SVGID_1_"  style="overflow:visible;"/>
			</clipPath>
			<g class="st1">
				
					<rect x="74" y="17.2" transform="matrix(0.9451 -0.3267 0.3267 0.9451 -14.4064 34.6887)" class="st2" width="44.1" height="86.1"/>
				<path class="st3" d="M115.5,99.6c0,0,1.3-23.4-7.6-36.6c-7.5-11.1-15.2-21-18.2-26.8c-2.9-5.5-13.3-16.9-13.3-16.9l27.9-4.7
					l23.8,56.2l-1,21.6L115.5,99.6z"/>
			</g>
		</g>
	</g>
</g>
<g id="b-hand">
	<path class="st4" d="M92.1,31.1c0,0-0.1-0.4-0.4-1.2c-1.1-3.1-4.4-11.8-8.4-15.4c-4.9-4.4-16.8-0.5-19.9,7.4s1.8,14.4,5.8,17.3
		s16.2,2,20.2,0.8C92.6,36.9,92.1,31.1,92.1,31.1z"/>
	<path class="st4" d="M93.1,16.8c0.1-5.5-0.7-10.7-4.3-8.8s-2.9,9.6-4.2,12.4s-2,7.5-0.4,9.7s6.4,4.7,7.7,1
		C93.6,27,93.1,16.8,93.1,16.8z"/>
	<path class="st4" d="M82.8,8.8c-1.2,4.3-0.1,5.7-0.1,5.7s-6.8,8.8-8.7,6c-0.7-1.3-0.9-2.8-0.6-4.2c0.3-3.2,1.5-7.2,1.8-9.7
		C75.4,5.3,76,4.1,76.7,3c1.6-2.1,3.9-3.5,5.5-2.8C85.3,1.5,84,4.6,82.8,8.8z"/>
	<path class="st0" d="M76.7,11.3l-1.6,5.6c-0.6,0-1.2-0.2-1.7-0.6c0.3-3.2,1.5-7.2,1.8-9.7C75.4,5.3,76,4,76.8,3
		C79.1,4.4,77.9,7.3,76.7,11.3z"/>
	<path class="st4" d="M75.2,11.2c-0.3,1.1-0.5,2.2-0.6,3.3c-0.1,0.8,0.1,1.7,0.5,2.4c0,0-5.5,7-8,6.5c-0.3-0.1-0.5-0.2-0.7-0.5
		c-1.9-2.7,0.6-10.1,1.2-14c0-0.3,0.1-0.7,0.2-1c1-3.5,4.6-6.4,6.8-5.5c0.2,0.1,0.3,0.1,0.4,0.2C77.6,4.2,76.3,7.2,75.2,11.2z"/>
	<path class="st0" d="M70.7,14.5c-0.4,2-0.7,4-0.7,6c0,0-1.4,1.5-2.9,2.9c-0.3-0.1-0.5-0.2-0.7-0.5c-1.9-2.7,0.6-10.1,1.2-14
		c0-0.3,0.1-0.7,0.2-1c0.6-0.4,1.3-0.5,2-0.3C72.3,8.6,71.4,11,70.7,14.5z"/>
	<path class="st4" d="M62.3,26.6c-0.4-3.3,1.1-8.7,1.3-11.8c0.2-1.7,0.9-3.3,2.2-4.4c0.7-0.9,1.9-1.3,3-1.1c2.5,0.9,1.7,3.4,1,6.8
		s0.3,4.5,0.3,4.5S62.7,29.2,62.3,26.6z"/>
</g>
<g id="b-thigh">
	<path class="st5" d="M139.9,261.7c-53.9,1.9-87.3,8.5-87.3,8.5s-10.4-0.9-14-8.4c-5.5-11.2,6.2-17.6,6.2-17.6s14.7-8.8,45.7-17.3
		c13.8-3.8,30.6-8,52.2-5.6c22.3,2.4,21.8,15.1,21.9,22C164.6,249.1,159.3,261,139.9,261.7z"/>
</g>
<g id="b-calf">
	<path class="st5" d="M84.8,372.3c0.2,3.6-37.8-0.5-37.8-0.5s-1.1-24.9-1.4-32.6c-1.2-28.2-8.2-81.4-8.2-81.4s18.4-0.3,22.5-0.6
		c2.1-0.1,3.9,0.1,4.4,1.2C75,282,75.4,293.6,76.5,310c0.7,13,2.5,25.9,5.3,38.6C83.2,356.2,84.8,372,84.8,372.3z"/>
	<path class="st2" d="M40.2,371.6c-4.3,8-46.1,8.4-39.5,28.9l18.4,0.2c0,2.1,0.2,4.3,0.5,6.4c0.5,2.3,11.8,1.6,17.6,0.7
		c15.6-2.4,14.4-9,35.1-12.8c0,0,22.3,2.3,28.4,1.4c4.3-0.6-0.4-8.2-7.5-10.8c-6.2-2.3-6.3-12.3-8.7-25.4c-4.9-26.7-8.3-51-8.1-50
		c0,0-18.2,12.6-30.9,29.1C44.6,348,46.4,360.3,40.2,371.6z"/>
</g>
<g id="tail">
	<path class="st6" d="M170.8,45.3L170.8,45.3v0.3c0,0.2,0,0.4,0,0.6c0,0.4,0.1,0.9,0.1,1.3c0.1,0.9,0.2,1.9,0.3,2.9s0.3,1.9,0.4,2.9
		s0.3,2,0.5,2.9c0.8,4,1.8,7.9,3.2,11.7c0.3,1,0.7,1.9,1.1,2.8s0.7,1.9,1.1,2.8s0.9,1.8,1.3,2.8l0.6,1.4l0.7,1.3l1.4,2.7
		c0.5,0.9,1.1,1.7,1.6,2.6s1.1,1.8,1.7,2.6l1.9,2.5c1.2,1.7,2.6,3.3,4,4.8l1,1.2l1.3,1.4l2.6,2.8c0.9,0.9,1.7,1.9,2.5,2.9l2.4,3
		c0.8,1,1.6,2.1,2.3,3.1s1.5,2.1,2.2,3.2c2.9,4.4,5.3,9.2,7,14.2c0.4,1.3,0.8,2.6,1.1,3.9s0.6,2.6,0.7,4c0.1,0.7,0.1,1.3,0.1,2
		s0,1.4,0,2.1c0,0.7-0.1,1.4-0.2,2.1c-0.1,0.8-0.3,1.5-0.5,2.2c-0.3,1-1.3,1.5-2.3,1.2c-0.5-0.1-0.9-0.5-1.1-0.9l-0.5-1
		c-0.1-0.3-0.3-0.9-0.4-1.3l-0.3-0.7l-0.3-0.7c-0.2-0.5-0.4-1-0.7-1.4c-0.2-0.5-0.5-1-0.8-1.4c-0.5-0.9-1.2-1.8-1.8-2.7
		c-0.3-0.4-0.7-0.9-1-1.3s-0.6-0.9-1-1.3c-2.8-3.3-6-6.4-9.3-9.2c-0.4-0.4-0.8-0.7-1.2-1.1l-1.3-1c-0.9-0.7-1.7-1.4-2.6-2.1
		c-1.9-1.3-3.6-2.7-5.4-3.9l-2.8-1.9c-0.5-0.3-0.9-0.6-1.4-1l-1.6-1.2c-2.2-1.6-4.3-3.3-6.3-5.1l-3-2.8c-1-0.9-1.9-2-2.8-3
		s-1.9-2-2.8-3.1l-2.5-3.2l-1.3-1.6l-1.2-1.6l-2.3-3.5c-0.7-1.2-1.4-2.4-2.1-3.6s-1.3-2.4-1.9-3.7s-1.2-2.5-1.8-3.7l-1.5-3.8
		c-0.5-1.3-0.9-2.6-1.4-3.9c-0.2-0.7-0.4-1.3-0.6-2l-0.6-2c-0.4-1.3-0.7-2.7-1-4s-0.6-2.7-0.8-4.1s-0.4-2.8-0.6-4.2
		c-0.1-0.7-0.1-1.5-0.2-2.2c0-0.3-0.1-0.8-0.1-1.2v-0.6v-0.8c-0.2-7.6,5.8-13.9,13.4-14.1c6.4-0.2,12.1,4.2,13.7,10.4L170.8,45.3z"
		/>
	<path class="st7" d="M170.8,50.8c0,0-1.6,0.7-4.1,1.5c-2.9,1.1-5.8,1.9-8.9,2.5c-3,0.5-6.1,0.7-9.2,0.6c-1.5-0.1-2.9-0.2-4.4-0.4"
		/>
	<path class="st7" d="M172,58.9c0,0-1.5,0.8-3.7,1.9c-2.6,1.3-5.3,2.5-8.1,3.4c-2.8,0.8-5.8,1.3-8.7,1.5c-1.4,0.1-2.8,0.1-4.2,0.1"
		/>
	<path class="st7" d="M174.1,67c0,0-1.3,1-3.3,2.3c-2.3,1.6-4.8,2.9-7.3,4.1c-2.6,1.1-5.3,1.8-8,2.3c-1.3,0.2-2.7,0.4-4,0.5"/>
	<path class="st7" d="M177,74.9c0,0-1.1,1.1-2.8,2.5c-2,1.7-4.1,3.3-6.3,4.7c-2.3,1.3-4.8,2.3-7.3,3c-1.2,0.3-2.5,0.6-3.8,0.8"/>
	<path class="st7" d="M180.8,82.5c0,0-0.9,1.2-2.3,2.7c-1.6,1.9-3.3,3.6-5.2,5.1c-2,1.5-4.2,2.6-6.5,3.5c-1.1,0.5-2.3,0.8-3.4,1.1"
		/>
	<path class="st7" d="M185.5,89.6c0,0-0.7,1.2-1.7,2.8c-1.2,1.9-2.6,3.7-4.2,5.3c-1.6,1.5-3.5,2.9-5.5,3.9c-1,0.5-2,1-3,1.4"/>
	<path class="st7" d="M191.1,96.2l-0.3,0.8c-0.2,0.5-0.4,1.2-0.8,2c-0.8,1.9-1.9,3.7-3.1,5.3c-1.4,1.5-2.9,2.9-4.6,4
		c-0.7,0.5-1.4,0.9-1.8,1.2s-0.8,0.4-0.8,0.4"/>
	<path class="st7" d="M198.1,103.8c-0.3,0.9-0.6,1.7-1.1,2.6c-0.7,1.7-1.8,3.2-3,4.5c-1.3,1.3-2.8,2.3-4.5,3.2
		c-1.4,0.8-2.4,1.2-2.4,1.2"/>
	<path class="st7" d="M204.6,112.1c-0.3,0.8-0.6,1.5-1,2.3c-0.7,1.4-1.7,2.7-2.9,3.7c-1.3,1-2.7,1.7-4.2,2.2
		c-1.3,0.5-2.3,0.8-2.3,0.8"/>
	<path class="st7" d="M209.9,121.4c-0.3,0.6-0.6,1.3-1,1.9c-0.6,1.1-1.5,2.1-2.6,2.8c-1.1,0.6-2.4,1-3.7,1.1
		c-1.1,0.2-2.1,0.2-2.1,0.2"/>
	<path class="st7" d="M213.4,131.6c-0.3,0.5-0.5,1-0.9,1.4c-0.5,0.8-1.2,1.4-2.1,1.8c-0.9,0.2-1.8,0.1-2.7-0.1
		c-0.9-0.2-1.6-0.4-1.6-0.4"/>
</g>
<g id="torso">
	<path class="st8" d="M123.4,215.9c0,0-3.2,18.6,0,36.5c3.9,21.9,43.4,15.2,48.9,2.3c7-16.5-7-28.8-11.1-40
		C156.9,203,123.4,215.9,123.4,215.9z"/>
	<path class="st9" d="M147.3,130c-1.2,9.3-6.8,17.5-14.9,22.1c-6.1-3.2-14-9.4-16.3-21.1s6.4-19.1,15-19.4S149,118.2,147.3,130z"/>
	<g>
		<g>
			<defs>
				<path id="SVGID_3_" d="M161.9,210.9c-7,23.1-21.6,11.4-35.5,23.9c-4.1-14.7-5.1-43.1-7.7-56c-3.1-7.4-10.1-26,13.3-64.4
					c14.3-6.1,14.3-9.4,30.1-4.2C181.7,138.2,169.1,188.6,161.9,210.9z"/>
			</defs>
			<clipPath id="SVGID_4_">
				<use xlink:href="#SVGID_3_"  style="overflow:visible;"/>
			</clipPath>
			<g class="st10">
				
					<rect x="102" y="107.1" transform="matrix(0.9995 -3.088812e-02 3.088812e-02 0.9995 -5.2064 4.4244)" class="st8" width="77.2" height="127.3"/>
				<path class="st11" d="M158.8,106.5c-2.9,2.5-21.8,12.7-26.7,40.9c-1.7,9.6-3.2,13.7-1.7,23.4c1.2,8.3-2.3,41.7-3.1,57
					c0,0-10.9-57.8-16-73.5s18.3-51.5,18.3-51.5L158.8,106.5z"/>
			</g>
		</g>
	</g>
	<path class="st2" d="M130.5,132.7c0,0-3.8-21.7,9.9-34.9s22.2-8.7,22.2-8.7l-5.3,17.3L130.5,132.7z"/>
	<path class="st0" d="M156,110.6c-3.8,2.2-7.4,4.7-10.9,7.4c-5.8,4.4-7.1,6.9-7.1,6.9s-2.2-4.4-4.2-18.2
		c-2.3-15.9-3.3-34.1-3.3-34.1l22.6-7.5c0,0-7.1,10.8-2.1,34.1C154.1,112.8,156,110.6,156,110.6z"/>
	<path class="st9" d="M130.5,132.7c0,0,2.1-26.2,21.9-38.9c19.4-12.5,7,2,9.6,16.5C151.1,117.1,140.5,124.6,130.5,132.7z"/>
	<path class="st9" d="M175,129.1c-1.2,9.3-6.8,17.5-14.9,22.1c-6.1-3.2-14-9.4-16.3-21.1s6.4-19.1,15-19.4S176.6,117.3,175,129.1z"
		/>
	<path class="st2" d="M171.1,134.3c-1.4,9.3-6.7,14.5-11.1,17.1c-6.1-3.7-10.1-10-11.1-17.1c-1.4-9.3,3.2-14.9,11.1-14.9
		S172.6,125,171.1,134.3z"/>
</g>
<g id="f-calf">
	<path class="st8" d="M94.3,376.7c0.2,3.5-37.8-0.5-37.8-0.5s-1.1-24.9-1.4-32.6c-1.2-28.2-8.2-81.4-8.2-81.4s18.4-0.3,22.5-0.6
		c2.1-0.1,3.9,0.1,4.4,1.2C84.5,286.4,84.9,298,86,314.4c0.7,13,2.5,25.9,5.3,38.5C92.8,360.7,94.3,376.4,94.3,376.7z"/>
	<path class="st9" d="M49.7,376c-4.3,8-46.1,8.4-39.5,28.9l18.4,0.2c0,2.1,0.2,4.3,0.5,6.4c0.5,2.3,11.8,1.6,17.6,0.7
		c15.6-2.4,14.4-9,35.1-12.8c0,0,22.3,2.3,28.4,1.4c4.3-0.6-0.4-8.2-7.5-10.8c-6.2-2.3-6.3-12.3-8.7-25.4c-4.9-26.7-8.3-51-8.1-50
		c0,0-18.2,12.6-30.9,29.1C54.1,352.4,55.9,364.7,49.7,376z"/>
</g>
<g id="f-thigh">
	<path class="st8" d="M149.4,266.1c-53.9,1.9-87.3,8.5-87.3,8.5s-10.4-0.9-14-8.4c-5.4-11.2,6.3-17.6,6.3-17.6s14.7-8.8,45.7-17.3
		c13.8-3.8,30.6-8,52.2-5.6c22.3,2.4,21.8,15.1,21.9,22C174.1,253.5,168.8,265.4,149.4,266.1z"/>
	<path class="st4" d="M156,248.3c0,0-22.3,11.2-31.2,13.1s-6.7-0.8-11-0.7s-4.9,1-13.2,2c-4.2,0.5-4.2-1.7-3.2-4
		c-3.4,1.1-6.8,1.9-8.5,1.7c-4.2-0.6-0.2-5.5-0.2-5.5l11.1,0.1c0.3-0.4,0.5-0.7,0.5-0.7L156,248.3z"/>
</g>
<path id="f-arm" class="st4" d="M167.6,124.1c0.2,0.3,0.4,0.7,0.5,1c2.3,5.8,4.8,11.6,7.2,17.4l3.8,8.6l3.9,8.6
	c2.6,5.7,5.2,11.4,8,17s5.7,11.1,9,16.5c1.9,3.1,0.8,7.3-2.6,9.8c-0.3,0.2-0.5,0.4-0.8,0.6c-4,2.3-8.9,1.5-11-1.9
	c-0.2-0.3-0.4-0.7-0.5-1.1c-2.2-5.9-4.9-11.6-7.6-17.2s-5.7-11.2-8.6-16.7l-4.4-8.3l-4.5-8.2c-3-5.5-6.2-10.9-9.4-16.3
	c-2.4-4-0.5-9.4,4.2-12.1c1-0.6,2-1,3.1-1.2C161.8,119.6,165.7,120.9,167.6,124.1z"/>
<g id="f-forearm">
	<g>
		<g>
			<defs>
				<path id="SVGID_5_" d="M204.8,181.5c0,0,19.9,21,11.7,59.2c-2.6,11.9-8.2,12-11.7,11.9c-7.6-0.2-13.6-16.6-14.5-19.1
					c-1.4-3.6-8.6-19-11.9-25.8c-4.3-8.9-0.4-11.4,2.2-18.6c1.5-4.3-2.6-11.9,4.4-15.7S196.5,175.1,204.8,181.5z"/>
			</defs>
			<clipPath id="SVGID_6_">
				<use xlink:href="#SVGID_5_"  style="overflow:visible;"/>
			</clipPath>
			<g class="st12">
				
					<rect x="172.7" y="166.5" transform="matrix(0.9856 -0.1692 0.1692 0.9856 -32.7272 36.0295)" class="st9" width="44.7" height="87.1"/>
				<path class="st3" d="M184.1,167.6c1.4,9.3,4.1,18.4,8,26.9c5.6,12.3,9.3,24.2,7,40.4c-0.9,6.2,10.4,19,10.4,19h-28.4l-14.3-59.8
					l4.6-21.3L184.1,167.6z"/>
			</g>
		</g>
	</g>
</g>
<g id="f-hand">
	<path class="st4" d="M224.8,249.1c-0.1,3.4-2.5,8.5-3.2,11.5c-0.5,1.6-1.5,3.1-2.9,4c-0.9,0.8-2.1,1-3.2,0.6
		c-2.4-1.3-1.1-3.6,0.2-6.9s0.5-4.5,0.5-4.5S224.9,246.4,224.8,249.1z"/>
	<path class="st0" d="M220.2,255.6l-1.6,9c-0.9,0.8-2.1,1-3.2,0.6L220.2,255.6z"/>
	<path class="st4" d="M196,239.6c0,0,0.1,0.5,0.2,1.2c0.6,3.3,2.4,12.5,5.8,16.7c4.2,5.2,16.6,3.3,21-4.1s0.6-14.6-2.9-18.2
		s-15.8-4.7-20-4.2C196.4,233.8,196,239.6,196,239.6z"/>
	<path class="st4" d="M220.1,252c1.4,3-2.3,9.9-3.5,13.7s-5.9,6.7-8.1,5.3c-0.1-0.1-0.3-0.2-0.4-0.3c-2.3-1.9-0.6-4.6,1.3-8.4
		c0.5-1,0.9-2.1,1.1-3.2c0.2-0.8,0.2-1.7-0.1-2.5C210.5,256.5,218.7,249,220.1,252z"/>
	<path class="st4" d="M192.5,253.7c-1,5.4-1.1,10.7,2.8,9.5s4.5-9,6.2-11.6s3.2-7.1,2-9.6s-5.6-5.7-7.5-2.3
		C193.8,243.4,192.5,253.7,192.5,253.7z"/>
	<path class="st0" d="M212.4,255.6c0,0,1.3,2,0.1,6.4c-1,3-2.5,5.9-4.3,8.6c-2.3-1.9-0.6-4.6,1.3-8.4c0.5-1,0.9-2.1,1.1-3.2
		L212.4,255.6z"/>
	<path class="st4" d="M202.5,257.6c0,0,0.9,1.6-1,5.6s-3.8,6.9-0.9,8.7c2.2,1.4,6.9-1.5,8.1-5.3s4.9-10.6,3.5-13.7
		S202.5,257.6,202.5,257.6z"/>
</g>
<g id="head">
	<g>
		<g>
			<defs>
				<path id="SVGID_7_" d="M172.1,46.6c-0.3,10.6-15.6,22.3-28.8,26c-2.5,0.7-6.3,12.9-12.1,20.2c-4.3,5.4-7.9,8.9-12.7,8.9
					s-6.5-2.1-8.6-8.6c-1.2-3.7-6.7-24.1-5.6-34.6c1.4-12.3,5.4-27.6,16.2-33.9c8.6-5.1,16.1-6.7,28.2-6.6
					c7.3,0.1,15.3,3.8,19.1,9.6C171.6,33.1,172.3,40.1,172.1,46.6z"/>
			</defs>
			<clipPath id="SVGID_8_">
				<use xlink:href="#SVGID_7_"  style="overflow:visible;"/>
			</clipPath>
			<g class="st13">
				<rect x="90.2" y="16.8" class="st4" width="87.5" height="88.5"/>
				<path class="st6" d="M114.9,86.7c-2,0.8-4.1,1.2-6.2,1.3c-2.2-0.1-4.4-0.5-6.5-1.3H114.9z"/>
				<path class="st0" d="M119.8,52.9c-1.6-1.4-3.3-2.4-4.9-2.3c-0.8,0.1-1.7,0.3-2.4,0.7c-0.4,0.2-0.8,0.4-1.2,0.6
					c-0.4,0.3-0.8,0.5-1.2,0.8l-0.1,0.1c-0.5,0.4-1.3,0.3-1.6-0.3c-0.4-0.5-0.3-1.3,0.3-1.6c0.4-0.4,0.9-0.7,1.3-1
					c0.5-0.3,1-0.6,1.5-0.8c1.1-0.5,2.4-0.7,3.6-0.6C117.4,48.7,119.4,50.5,119.8,52.9L119.8,52.9z"/>
				<g>
					<g>
						<defs>
							<path id="SVGID_9_" d="M109.8,61c-1,4.3-0.8,8.1,0.2,10c1.9,0.3,4.2-0.2,6.1-4.2c1.3-2.8,2-8.5,0.3-11.6
								C115,54,110.8,56.7,109.8,61z"/>
						</defs>
						<clipPath id="SVGID_10_">
							<use xlink:href="#SVGID_9_"  style="overflow:visible;"/>
						</clipPath>
						<g class="st14">
							<rect x="107.5" y="52.7" class="st15" width="10.9" height="20.1"/>
							<ellipse class="st16" cx="112.3" cy="64.7" rx="2.8" ry="7"/>
							<ellipse cx="112.3" cy="64.7" rx="1.4" ry="3.5"/>
							<path class="st17" d="M109.9,72.6c0,0-3.5-9.1,1.4-14.3c0.6-0.7,2.6-2.4,3.7-1.7c0,0,1.6,1.3,1.7,4.6
								c-0.1,2.8-0.6,5.6-1.6,8.2l2.8-2l1.4-20.6l-8.5,0.8L106.6,71L109.9,72.6z"/>
						</g>
					</g>
				</g>
				<path class="st9" d="M93.7,21.5c-0.2,0.6-0.1,1.3,0.2,1.9c0.4,0.9,0.8,1.8,1.4,2.6c1.3,1.8,2.7,3.5,4.3,5.1
					c1.6,1.6,3.3,3.2,5.1,4.7s3.6,3,5.4,4.3l0,0l-6.7-0.1c1.3-1,2.4-1.8,3.6-2.6s2.4-1.6,3.6-2.3c2.4-1.5,4.8-2.9,7.3-4.2
					c5-2.7,10.2-4.9,15.5-6.7c5.4-1.8,11-3,16.7-3.5s11.4,0.1,16.9,1.8h0.1c0.9,0.3,1.5,1.3,1.2,2.2s-1.3,1.5-2.2,1.2
					c-5.1-1.3-10.3-1.6-15.5-0.9c-5.2,0.7-10.4,2-15.3,4c-5,2-9.8,4.3-14.3,7.1c-4.6,2.7-9,5.8-13.1,9.1l-1.2,1l-1.1-1.1l0,0
					c-1.8-1.7-3.5-3.5-5.1-5.2s-3.2-3.7-4.8-5.6c-1.6-2-3-4.1-4.1-6.3c-0.6-1.2-1.1-2.5-1.4-3.8c-0.2-0.8-0.2-1.6-0.1-2.4
					c0.1-0.9,0.4-1.8,1-2.5c0.5-0.8,1.6-1.1,2.4-0.6s1,1.5,0.6,2.3L93.7,21.5z"/>
			</g>
		</g>
	</g>
	<g>
		<g>
			<defs>
				<path id="SVGID_11_" d="M130.4,53c0,0,30.4-2.7,41.5-13.5c-0.2-2.3-0.7-4.6-1.5-6.8c0,0,13.6,3,11.9,14
					c-1.4,9-19.7,12.2-28.7,12.4C145.4,59.2,134.4,56.8,130.4,53z"/>
			</defs>
			<clipPath id="SVGID_12_">
				<use xlink:href="#SVGID_11_"  style="overflow:visible;"/>
			</clipPath>
			<g class="st18">
				<path class="st6" d="M127,51.7l40.6-11.8l3.1-11.3l16.5,11.5c0,0,7.4,18.3-15.7,21.1S129.8,57.7,127,51.7z"/>
				<path class="st19" d="M141.9,49.9c0,0,8.6-1.3,9.5,5.1s-8,6-8,6"/>
				<path class="st19" d="M157.8,46.3c0,0,8.6-1.3,9.5,5.2s-8.3,8.4-8.3,8.4"/>
				<path class="st19" d="M168,41.8c0,0,9.7-3.4,11.7,2.8c2.3,7.2-6.6,11.4-6.6,11.4"/>
				<path class="st19" d="M169.3,38c0,0,2-2.7,4.9-2.7c3.7-0.1,7.1,2.1,8.5,5.6"/>
			</g>
		</g>
	</g>
</g>
</svg>
