<?xml version="1.0" encoding="utf-8"?>
<!-- Generator: Adobe Illustrator 26.0.0, SVG Export Plug-In . SVG Version: 6.00 Build 0)  -->
<svg version="1.1" id="Layer_1" xmlns="http://www.w3.org/2000/svg" xmlns:xlink="http://www.w3.org/1999/xlink" x="0px" y="0px"
	 viewBox="0 0 700 700" style="enable-background:new 0 0 700 700;" xml:space="preserve">
<style type="text/css">
	.st0{fill:#44F5A0;}
	.st1{clip-path:url(#SVGID_00000121244735790659024980000008702064787409178026_);}
	.st2{fill:#F7EC17;}
	.st3{fill:none;stroke:#DDCD00;stroke-width:0.3411;stroke-miterlimit:10;}
	.st4{fill:#33D08C;}
	.st5{fill:#891B6A;}
	.st6{fill:none;stroke:#DDCD00;stroke-width:0.3591;stroke-miterlimit:10;}
	.st7{fill:#1B8B79;}
	.st8{fill:none;stroke:#33D08C;stroke-width:0.4524;stroke-linecap:round;stroke-miterlimit:10;}
	.st9{fill:#AA1A88;}
	.st10{fill:#C1983D;}
	.st11{fill:#520551;}
	.st12{clip-path:url(#SVGID_00000047022877674205113760000008253139366791915420_);}
	.st13{clip-path:url(#SVGID_00000026861723210314865680000014190483636793386670_);}
	.st14{fill:#F5FAFF;}
	.st15{fill:#9629FF;}
	.st16{fill:#023533;}
	.st17{clip-path:url(#SVGID_00000033340106130876234930000002080763767800342951_);}
	.st18{clip-path:url(#SVGID_00000055703405890814608150000000376197186276441260_);}
	.st19{fill:none;stroke:#33D08C;stroke-width:0.3591;stroke-miterlimit:10;}
	.st20{clip-path:url(#SVGID_00000017479446822044175970000002361058566639383216_);}
	.st21{clip-path:url(#SVGID_00000057832570029603861210000007962685847401318042_);}
</style>
<g>
	<g transform="translate(-16 -880)">
		<g>
			<g>
				<g>
					<g>
						<g>
							<g>
								<path class="st0" d="M441.9,1262.3c0.3,1,1,2.4,1.7,3.4c10.5,18.8,20.8,37.6,30.6,56.4l14.6,28.7l14.6,28.7
									c9.5,19.2,19.1,38.3,27.9,57.8c8.8,19.5,17.3,39.3,24.5,59.5c4.1,12,17.7,17.8,31.6,14c1-0.3,2-0.7,3.1-1
									c14.6-5.5,22.8-20.5,18.4-33.2c-0.3-1.4-1-2.4-1.7-3.8c-10.9-18.5-20.4-37.6-29.6-57.1c-9.2-19.5-17.3-39-26.2-58.8
									l-12.6-29.4l-12.2-29.8c-8.2-19.8-16-39.7-23.5-59.8c-5.4-14.7-23.8-21.5-40.8-14.7c-3.4,1.4-6.8,3.1-9.9,5.5
									C442.6,1237,437.5,1250.7,441.9,1262.3z"/>
								<g>
									<defs>
										<path id="SVGID_1_" d="M586.8,1391.9c0,0,98.7,73.9,119.1,205.9c6.5,41.4-11.2,48.2-22.5,52.3
											c-24.5,8.9-63.3-36.3-69.4-43.1c-8.8-9.9-50.7-49.9-69.4-67.7c-24.5-22.9-46.6-64.3-36.1-91c0,0,35.4,25.6,52.7,4.8
											C578.7,1432.3,559.6,1409.7,586.8,1391.9z"/>
									</defs>
									<clipPath id="SVGID_00000014621205124624787400000000605626989549265057_">
										<use xlink:href="#SVGID_1_"  style="overflow:visible;"/>
									</clipPath>
									<g style="clip-path:url(#SVGID_00000014621205124624787400000000605626989549265057_);">
										<path class="st2" d="M465.7,1436.8l130.2-77.6l150.4,255l-130.2,77.6L465.7,1436.8z"/>
										<path class="st3" d="M545,1423.7c0,0-15.6,56.8,19.4,98.8c29.3,35.6,65.3,60.2,79.6,78c13.3,16.8,56.1,47.9,56.1,47.9
											l-90.1,34.9l-118.7-173l-11.2-73.5L545,1423.7z"/>
									</g>
								</g>
								<path class="st4" d="M687.2,1683.6c-3.4,4.1-5.4,8.9-5.8,14c0,6.8,2.4,10.3,5.8,10.3c3.4,0,16-16.1,16-16.1l-8.8-17.4
									L687.2,1683.6z"/>
								<path class="st0" d="M641.6,1698c10.9,6.8,12.9-3.1,15-18.1c1-8.2,8.2-9.9,15-7.2c8.8,3.4,13.9,19.5,13.9,28
									c0,12.3,6.5,15.7,13.6,12.3c8.8-4.1,6.8-22.6,6.8-22.6c2-4.1,3.7-7.5,5.1-10.6c3.7-8.5,4.4-14.4,4.4-27
									c0-19.2-3.4-42.1-8.8-54.7c-8.8-20.9-44.9-25.3-44.9-25.3C621.2,1623.8,623.9,1687,641.6,1698z"/>
								<path class="st4" d="M699.8,1648.4c3.7,13.3,5.8,27.4,5.8,41.4c2-4.1,3.7-7.5,5.1-10.6
									C708.9,1668.6,705.2,1658,699.8,1648.4z"/>
								<path class="st5" d="M386.1,2370c0.3,12.3,128.2-12,128.2-12s-3.1-85.2-4.1-111.5c-3.4-96.4,5.4-262.6,5.4-262.6
									s-62.3-13.3-76.2-13c-7.1,0-12.9,1.4-14.6,5.5c-29.9,83.4-27.9,123.1-27.2,179.5c1,44.4-1.4,88.9-7.5,133
									C387.1,2314.9,386.1,2368.9,386.1,2370z"/>
								<path class="st2" d="M422.9,2386.7v0.7C422.5,2387.4,422.5,2387.1,422.9,2386.7z"/>
								<path class="st2" d="M509.9,2170.6c0,0,3.4,148.1,27.2,184.7c17,26,108.5,58.8,100,96.4c-13.3,6.2-27.6,9.9-42.2,10.9
									c-24.8,2.1-52.7-11.6-52.7-11.6c1.7,6.5,2,13.7,1.4,20.5c-1,8.2-15,8.9-34.7,8.9c-41.5,0.3-40.1-24.3-74.2-36.2
									c-16,18.5-39.8,28-64,25c-15-1.7-19.7-27.7-9.2-51.3c7.8-17.1,18-43.4,22.8-88.9c9.5-92.3,14.3-176.1,13.9-172.7
									c0,0,19.1,44.8,74.2,90.6C502.1,2217.1,509.9,2170.6,509.9,2170.6z"/>
								<path class="st6" d="M472.2,2246.9c0,0,0.7,85.8,13.3,116.6c12.6,30.8,42.5,55.7,35,116.6"/>
								<path class="st7" d="M413,974v1c0,0.7,0,1.4,0,2.1c0,1.7,0.3,3.1,0.3,4.4c0.3,3.1,0.7,6.5,1,9.9s1,6.8,1.4,9.9
									c0.3,3.1,1,6.8,1.7,10.3c2.7,13.7,6.1,27,10.5,40c1,3.4,2.4,6.5,3.7,9.6c1.4,3.1,2.4,6.5,3.7,9.6c1.4,3.1,3.1,6.2,4.4,9.6
									l2,4.8l2.4,4.4l4.8,9.2c1.7,3.1,3.7,5.8,5.4,8.9c1.7,3.1,3.7,6.2,5.8,8.9l6.5,8.5c4.1,5.8,8.8,11.3,13.6,16.4l3.4,4.1
									l4.4,4.8l8.8,9.6c3.1,3.1,5.8,6.5,8.5,9.9l8.2,10.3c2.7,3.4,5.4,7.2,7.8,10.6c2.4,3.4,5.1,7.2,7.5,10.9
									c9.9,15,18,31.5,23.8,48.2c1.4,4.4,2.7,8.9,3.7,13.3c1,4.4,2,8.9,2.4,13.7c0.3,2.4,0.3,4.4,0.7,6.8c0,2.4,0,4.8,0,7.2
									c0,2.4-0.3,4.8-0.7,7.2c-0.3,2.7-1,5.1-1.7,7.5c-1,3.4-4.4,5.1-7.8,4.1c-1.7-0.3-3.1-1.7-3.7-3.1l-1.7-3.4
									c-0.3-1-1-3.1-1.4-4.4l-1-2.4l-1-2.4c-0.7-1.7-1.4-3.4-2.4-4.8c-0.7-1.7-1.7-3.4-2.7-4.8c-1.7-3.1-4.1-6.2-6.1-9.2
									c-1-1.4-2.4-3.1-3.4-4.4s-2-3.1-3.4-4.4c-9.5-11.6-20.4-21.9-31.6-31.5c-1.4-1.4-2.7-2.4-4.1-3.8l-4.4-3.4
									c-3.1-2.4-5.8-4.8-8.8-7.2c-6.5-4.4-12.2-9.2-18.4-13.3l-9.5-6.5l-4.8-3.4l-5.4-4.1c-7.5-5.5-14.6-11.3-21.4-17.4l-10.2-9.6
									c-3.4-3.1-6.5-6.8-9.5-10.3c-3.1-3.4-6.5-6.8-9.5-10.6l-8.5-10.9l-4.4-5.1l-3.7-5.8l-7.8-11.6c-2.4-4.1-4.8-8.2-7.1-12.3
									c-2.4-4.1-4.4-8.2-6.5-12.7c-2-4.4-4.1-8.5-6.1-12.7l-5.1-13c-1.7-4.4-3.1-8.9-4.8-13.3c-0.7-2.4-1.4-4.4-2-6.8l-2-6.8
									c-1.4-4.4-2.4-9.2-3.4-13.7c-1-4.4-2-9.2-2.7-14s-1.4-9.6-2-14.4c-0.3-2.4-0.3-5.1-0.7-7.5c0-1.4-0.3-2.7-0.3-4.1v-2.1v-2.7
									c-0.7-26,20.1-47.5,45.9-48.2c21.8-0.3,41.2,14.4,46.6,35.6L413,974z"/>
								<path class="st8" d="M422.5,991.1c0,0-6.8,2.4-17,5.5c-11.9,3.8-24.2,7.2-36.7,9.6c-12.6,2.1-25.2,3.1-37.8,3.1
									c-10.5,0-18-1-18-1"/>
								<path class="st8" d="M424.9,1018.1c0,0-6.1,3.1-15,7.2c-10.5,5.1-21.8,9.6-33,13c-11.2,3.4-23.1,5.5-34.7,6.5
									c-9.9,1-17,0.7-17,0.7"/>
								<path class="st8" d="M430,1045.8c0,0-5.4,3.8-13.3,8.5c-9.2,5.8-18.7,11.3-28.9,15.7c-10.2,4.4-20.4,7.5-31.3,9.6
									c-5.1,1-10.5,1.7-15.6,2.4"/>
								<path class="st8" d="M438.5,1072.8c0,0-4.4,4.1-10.9,9.6c-7.8,6.5-16,12.3-24.5,17.8c-13.3,7.2-27.2,12.7-42.2,15.4"/>
								<path class="st8" d="M450.1,1098.8c0,0-3.7,4.4-8.8,9.9c-6.1,6.8-12.6,13-19.7,18.8c-7.5,5.5-15.3,10.3-24.2,13.7
									c-4.1,1.7-8.5,3.4-12.6,4.4"/>
								<path class="st8" d="M464.7,1123.5c0,0-2.4,4.4-6.5,10.3c-4.4,6.8-9.5,13.3-15.3,19.5c-6.1,5.8-12.6,10.6-20.1,14.4
									c-3.4,2.1-7.1,3.8-10.9,5.1"/>
								<path class="st8" d="M482.7,1146.7l-1.4,2.7c-0.7,1.7-1.7,4.4-3.1,7.2c-2.7,6.8-6.8,13-11.2,18.8
									c-4.8,5.5-10.2,10.3-16.3,14.4c-2.7,1.7-4.8,3.4-6.5,4.1c-1.7,0.7-2.7,1.4-2.7,1.4"/>
								<path class="st8" d="M506.2,1173.7c-1,3.1-2.4,6.2-3.7,8.9c-2.7,5.8-6.1,10.9-10.5,15.7c-4.4,4.4-9.9,7.9-15.3,10.9
									c-4.8,2.7-8.5,4.1-8.5,4.1"/>
								<path class="st8" d="M527.3,1202.8c-1,2.7-2,5.1-3.4,7.5c-2.4,4.8-5.8,8.9-9.5,12.7c-4.1,3.1-8.8,5.8-13.9,7.5
									c-4.4,1.7-7.8,2.4-7.8,2.4"/>
								<path class="st8" d="M545,1234.6c-1,2.1-2,4.1-3.1,6.2c-2,3.8-4.8,6.8-8.2,9.2c-3.7,1.7-7.8,3.1-11.9,3.4
									c-3.7,0.3-6.8,0.7-6.8,0.7"/>
								<path class="st8" d="M556.9,1269.5c-0.7,1.7-1.7,3.4-2.7,4.8c-1.7,2.7-3.7,4.8-6.5,5.8c-2.7,0.7-5.8,0.3-8.5-0.7
									c-2.7-0.7-5.1-1.4-5.1-1.4"/>
								<path class="st5" d="M345,2370c-0.3,12.3-128.2-12-128.2-12s3.1-85.2,4.1-111.5c3.4-96.4-5.4-262.6-5.4-262.6
									s62.3-13.3,76.2-13c7.1,0,12.9,1.4,14.6,5.5c29.9,83.4,27.9,123.1,27.2,179.5c-1,44.4,1.4,88.9,7.5,133
									C343.9,2314.9,345,2368.9,345,2370z"/>
								<path class="st2" d="M360.3,2468.8c-11.2,1.4-22.5,0-33.3-3.8c-11.9-4.1-22.5-11.3-31-20.9c-21.1,7.5-28.6,19.8-41.2,28
									c-7.5,5.1-17,8.5-33,8.2c-20.1,0-34-0.7-34.7-8.9c-0.3-4.8-0.3-9.6,0.3-14.4c0.3-2.1,0.7-4.1,1-5.8c0,0-28.2,13.7-53.1,11.6
									l-4.8-0.3c-12.9-1.4-25.5-4.8-37.4-10.3c-8.5-37.6,83.3-70.4,100-96.4c23.8-36.6,27.6-184.7,27.6-184.7s7.8,46.5,37.8,76.3
									c55.1-46.2,74.2-90.6,74.2-90.6c0,3.4,4.8,83.8,13.9,172.7c4.8,45.5,15,71.8,22.8,88.9
									C380.3,2441.4,375.2,2467.4,360.3,2468.8z"/>
								<path class="st6" d="M258.9,2246.9c0,0-0.7,85.8-13.3,116.6c-12.6,30.8-42.5,55.7-35,116.6"/>
								<path class="st0" d="M289.2,1262.3c-0.3,1-1,2.4-1.7,3.4c-10.5,18.8-20.8,37.6-30.6,56.4l-14.6,28.7l-14.6,28.7
									c-9.5,19.2-19.1,38.3-27.9,57.8c-8.8,19.5-17.7,39-24.8,59.2c-4.1,12-17.7,17.8-31.6,14c-1-0.3-2-0.7-3.1-1
									c-14.6-5.5-22.8-20.5-18.4-33.2c0.3-1.4,1-2.4,1.7-3.8c10.9-18.5,20.4-37.6,29.6-57.1c9.2-19.5,17.3-39,26.2-58.8l12.6-29.4
									l12.2-29.8c8.2-19.8,16-39.7,23.1-59.8c5.4-14.7,23.8-21.5,41.2-14.7c3.4,1.4,6.8,3.1,9.9,5.5
									C288.5,1237,293.2,1250.7,289.2,1262.3z"/>
								<path class="st7" d="M443.9,1456.2c0-41.4-35.4-79.3-78.6-79.3c-43.2,0-78.6,38-78.6,79.3c6.8,17.1,22.1,34.2,78.6,34.2
									C421.8,1490.4,434.1,1479.5,443.9,1456.2z"/>
								<path class="st5" d="M452.5,1563.9c7.1,10.9,12.9,22.6,17.3,34.5c-4.4,10.6-34,31.1-44.2,46.5
									c-16.7,24.6-12.6,58.1-32.3,73.2c-8.2,5.8-18,8.5-28.2,8.2c-9.9,0.3-19.7-2.1-27.9-7.5c-19.4-14-15.3-45.8-32.3-73.9
									c-9.5-15.4-40.1-35.2-44.9-46.5c9.5-17.8,18-34.5,18-34.5H452.5z"/>
								<path class="st5" d="M438.2,1497.2c0-53,59.2-157,32-286.2c-53.1-19.8-160.9-19.5-209.9,0c-27.6,122.8,32,231.2,32,286.2
									c0,1.7,0,3.4,0.3,5.1c-4.1,37.6-23.1,76.6-23.1,76.6s62.3,51.3,93.9,109.4c31.3-58.5,96.3-109.4,96.3-109.4
									s-17.3-35.9-22.5-72.2C437.8,1503.7,438.2,1500.3,438.2,1497.2z"/>
								<path class="st9" d="M422.2,1433.6c10.5-31.8,32.7-68.4,36.4-101.6c2.4-23.6,3.4-47.2,2.4-70.8c0-13-1.7-26.3-5.1-39
									c-3.7-12.7-6.8-15.7-20.1-23.9l-70.4,71.5l-68.7-71.5c-10.2,4.4-18,13-21.1,23.9c-3.4,12.7-5.1,25.6-5.1,39
									c-1,23.6,0,47.2,2.4,70.8c3.7,33.2,25.9,70.1,36.4,101.6c4.4,13.3,55.8,162.4,55.8,162.4S417.8,1447,422.2,1433.6z"/>
								<path class="st10" d="M418.4,1173c5.8-54.4-87.1-39-97.6-23.9c-3.4,4.8-9.5,40.4,0,48.2
									C346.3,1218.5,414.4,1212.4,418.4,1173z"/>
								<path class="st4" d="M301.4,1196l62.3-7.2l61.9,6.2l-59.9,72.8L301.4,1196z"/>
								<path class="st4" d="M399.7,1244.9c0,0-9.5,25-34.4,25s-34.4-25-34.4-25c2.7-24.3,3.7-48.6,3.4-72.8
									c0-47.5-2.4-86.5-2.4-86.5h66.7c0,0-2.4,39.3-2.4,86.5C395.6,1196.3,397,1220.6,399.7,1244.9z"/>
								<path class="st2" d="M367.1,1271.5c0,0,0,0.3,0.3,0.3c-6.8,0-13.6-2.1-19.1-5.8c-10.2-6.5-19.4-14.4-27.2-23.6
									c-9.2-9.9-17.3-20.9-23.5-32.8c-6.5-12-9.5-25.3-9.5-39c0-8.5,2.4-17.1,7.1-24.6c7.8-11.3,22.8-17.8,36.1-20.5l3.4-0.7
									c0,4.8,0,9.6,0,14.7c0,6.8,0,46.9-0.3,52.7c0,0.3-9.2,4.1-6.8,12.7c2.4,8.9,5.8,17.4,10.2,25.3c4.4,8.2,9.9,17.4,15,25
									C356.9,1260.9,364,1265.4,367.1,1271.5z"/>
								<path class="st2" d="M364,1271.5c0,0,0,0.3-0.3,0.3c6.8,0,13.6-2.1,19.1-5.8c10.2-6.5,19.4-14.4,27.2-23.6
									c9.2-9.9,17-20.9,23.5-32.8c6.5-12,9.5-25.3,9.5-39c0-8.5-2.4-17.1-7.1-24.6c-7.8-11.3-22.8-17.8-35.7-20.5l-3.4-0.7
									c0,4.8,0,9.6,0,14.7c0,6.8,0,47.2,0.3,53c0,0,9.2,3.4,6.8,12.3c-2.4,8.9-5.8,17.4-10.2,25.3c-4.8,8.2-9.9,17.4-15,25
									C374.2,1260.9,367.1,1265.4,364,1271.5z"/>
								<path class="st2" d="M314.7,1192.9c0,0-63.6,47.5-54.4,158c0,0-61.2-104-32.7-141.2C253.4,1202.8,314.7,1192.9,314.7,1192.9
									z"/>
								<path class="st2" d="M416.4,1192.9c0,0,63.6,47.5,54.4,158c0,0,61.2-104,32.7-141.2C477.6,1202.8,416.4,1192.9,416.4,1192.9
									z"/>
								<path class="st0" d="M253.1,1610.4c0,0-55.8,77.6-65,108.4c-9.2,30.8,5.8,22.6,5.8,37.3s-4.8,17.1-8.5,45.5
									c-2,14.4,9.9,14,21.8,10.3c-5.1,12-9.2,23.6-7.5,29.4c3.7,14.4,29.3,0,29.3,0l-2.4-37.6l3.4-2.1L253.1,1610.4z"/>
								<path class="st5" d="M357.2,1676.1c-43.9,179.2-49.7,307.1-49.7,307.1s-12.2,33.2-40.5,38.3c-41.8,7.5-51.7-36.9-51.7-36.9
									s-6.8-65.3-2-171.7c2-59.2,11.9-118,29.3-174.7c8.2-27.7,25.2-53,29.6-60.2c18.4-28,46.3-14.4,46.3-14.4
									S373.2,1611.5,357.2,1676.1z"/>
								<path class="st11" d="M234.4,2007.1c3.4,4.1,7.8,7.2,12.9,9.2c2,1,4.4,1.7,6.5,1.7c0.7,0,1.4-0.3,2-0.7c0.7-0.3,1.4-1,2-1.7
									c1.4-2.1,3.1-4.1,4.1-6.5c1.4-2.4,2.4-4.8,3.7-6.8c2.4-4.8,4.4-9.9,6.5-15.4c1,5.8,1,11.6-0.7,17.4
									c-0.7,2.7-1.7,5.8-3.1,8.5c-1.4,2.7-2.7,5.5-4.8,7.9c-1.4,1.4-2.7,2.7-4.4,3.4c-2,1-4.1,1.4-6.1,1c-1.7-0.3-3.4-0.7-5.1-1.7
									c-1.4-0.7-2.7-1.4-4.1-2.4C239.2,2018.4,235.4,2012.9,234.4,2007.1z"/>
								<path class="st0" d="M477.3,1610.4c0,0,55.8,77.6,65,108.4c9.2,30.8-5.8,22.6-5.8,37.3s4.8,17.1,8.5,45.5
									c2,14.4-9.9,14-21.8,10.3c5.1,12,9.2,23.6,7.5,29.4c-3.7,14.4-29.3,0-29.3,0l2.4-37.6l-3.4-2.1L477.3,1610.4z"/>
								<path class="st5" d="M373.5,1676.1c43.9,179.2,49.7,307.1,49.7,307.1s12.2,33.2,40.5,38.3c41.8,7.5,51.7-36.9,51.7-36.9
									s7.1-65.3,2-171.7c-2-59.2-11.9-118-29.3-174.7c-8.2-27.7-25.2-53-29.6-60.2c-18.4-28-46.3-14.4-46.3-14.4
									S357.9,1611.5,373.5,1676.1z"/>
								<path class="st11" d="M466.7,1991.7c2,5.1,3.7,9.9,5.8,14.7c0.7,2.1,2,3.8,3.4,5.5c1.4,1,3.1,1.7,4.8,1.7
									c2,0,4.4-0.3,6.5-0.7c2.4-0.7,4.4-1.4,6.5-2.7c4.4-2.4,8.8-5.5,12.6-8.9c-1.7,5.5-5.1,10.3-9.5,13.7c-2.4,2-4.8,3.4-7.5,4.4
									c-3.1,1-6.1,1.7-9.2,1.7c-1.7,0-3.4-0.3-5.1-1c-1.7-0.7-3.1-2.1-4.4-3.4c-2-2.4-3.1-5.5-3.7-8.5
									C466.1,2002.7,465.7,1997.2,466.7,1991.7z"/>
								<g>
									<defs>
										<path id="SVGID_00000013907582355557515280000017351347456997789330_" d="M437.8,1077.3c-9.2,9.2-21.8,39.7-27.6,53
											c-10.9,24.3-23.5,38.6-44.6,38.6s-33.3-14.7-44.6-38.6c-6.5-13.7-18.4-43.8-27.9-53.3c-25.2-25.3-34-60.9-28.6-99.9
											c9.2-65,41.8-94.4,101-94.4s93.5,31.1,101,94.4C471.2,1016.4,462.7,1052.3,437.8,1077.3z"/>
									</defs>
									<clipPath id="SVGID_00000038388234662699187140000015074825194338825644_">
										<use xlink:href="#SVGID_00000013907582355557515280000017351347456997789330_"  style="overflow:visible;"/>
									</clipPath>
									<g style="clip-path:url(#SVGID_00000038388234662699187140000015074825194338825644_);">
										<path class="st0" d="M257.9,871.4h215.7v305.7H257.9V871.4z"/>
										<path class="st2" d="M321.5,892.3c-0.7,2.4-0.3,4.8,0.7,7.2c1.4,3.4,3.1,6.5,4.8,9.6c4.4,6.8,9.5,13,15,18.8
											c5.4,6.2,11.2,12,17.3,17.8c6.1,5.8,12.2,11.3,18.4,16.4l-25.2,0.3c6.1-5.1,12.2-10.9,18.4-16.8
											c6.1-5.8,11.9-11.6,17.3-17.8c5.4-5.8,10.5-12.3,15-18.8c2-3.1,3.7-6.2,5.1-9.6c1-2.1,1.4-4.4,1-6.8l-0.7-1.7
											c-1.4-3.1,0.3-6.5,3.1-7.9c2.4-1,5.1-0.3,6.8,1.7c2,2.7,3.4,5.8,3.4,9.2c0,2.7,0,5.5-0.7,8.2c-1,4.4-2.7,9.2-4.8,13.3
											c-4.1,7.9-8.5,15.7-13.9,22.9c-5.1,7.2-10.5,14-16,20.5c-5.4,6.5-11.2,13-17,19.5l-4.4,4.8l-4.4-4.4
											c-6.1-6.5-11.9-12.7-17.3-19.5c-5.4-6.8-10.9-13.7-16.3-20.5c-5.4-7.2-9.9-15-13.9-22.9c-2-4.4-3.7-8.9-4.8-13.7
											c-0.7-2.7-0.7-5.5-0.3-8.2c0.3-3.1,1.4-6.5,3.4-8.9c1.7-2.7,5.1-3.8,8.2-2.1c2.7,1.7,3.7,5.1,2,8.2V892.3z"/>
									</g>
								</g>
								<g>
									<defs>
										<path id="SVGID_00000023271239994155837820000003813604706442433969_" d="M391.2,1025.6c-6.8,15.7-5.8,30.1,1.7,36.9
											c13.3,1,36.7-3.4,45.2-18.1c6.8-11.6,10.5-27-1.4-38.6C422.2,1000.3,398,1009.6,391.2,1025.6z"/>
									</defs>
									<clipPath id="SVGID_00000065769273404989017020000008769845158330838461_">
										<use xlink:href="#SVGID_00000023271239994155837820000003813604706442433969_"  style="overflow:visible;"/>
									</clipPath>
									<g style="clip-path:url(#SVGID_00000065769273404989017020000008769845158330838461_);">
										<path class="st14" d="M375.2,994.5h75.9v74.6h-75.9V994.5z"/>
										<path class="st15" d="M434.8,1039.3c0,14.4-11.6,26-25.9,26c-14.3,0-25.9-11.6-25.9-26c0-14.4,11.6-26,25.9-26
											C423.2,1013.3,434.8,1025,434.8,1039.3z"/>
										<path d="M421.8,1039.3c0,7.2-5.8,13-12.9,13c-7.1,0-12.9-5.8-12.9-13s5.8-13,12.9-13
											C416,1026.3,421.8,1032.2,421.8,1039.3z"/>
										<path class="st16" d="M391.9,1068.7c0,0-17.3-36.3,16.7-55.7c4.4-2.7,17.7-4.4,22.8-1.7c3.4,2.4,7.1,5.1,7.1,18.1
											c-0.3,10.6-5.1,20.5-13.6,26.7l22.8-6.5l9.5-76.3l-59.5,3.1l-28.9,86.2L391.9,1068.7z"/>
									</g>
								</g>
								<g>
									<defs>
										<path id="SVGID_00000092432881986061748550000004965529943837931160_" d="M339.2,1025.6c6.8,15.7,5.8,30.1-1.7,36.9
											c-13.3,1-36.7-3.4-45.2-18.1c-6.8-11.6-10.5-27,1.4-38.6C308.2,1000.3,332.4,1009.6,339.2,1025.6z"/>
									</defs>
									<clipPath id="SVGID_00000025423351519256949460000007704729113765035392_">
										<use xlink:href="#SVGID_00000092432881986061748550000004965529943837931160_"  style="overflow:visible;"/>
									</clipPath>
									<g style="clip-path:url(#SVGID_00000025423351519256949460000007704729113765035392_);">
										<path class="st14" d="M279.3,994.5h75.9v74.6h-75.9V994.5z"/>
										<path class="st15" d="M347.3,1039.3c0,14.4-11.6,26-25.9,26c-14.3,0-25.9-11.6-25.9-26c0-14.4,11.6-26,25.9-26
											C335.8,1013.3,347.3,1025,347.3,1039.3z"/>
										<path d="M334.4,1039.3c0,7.2-5.8,13-12.9,13c-7.1,0-12.9-5.8-12.9-13s5.8-13,12.9-13
											C328.6,1026.3,334.4,1032.2,334.4,1039.3z"/>
										<path class="st16" d="M338.5,1068.7c0,0,17.3-36.3-16.7-55.7c-4.4-2.7-17.7-4.4-22.8-1.7c-3.4,2.4-7.1,5.1-7.1,18.1
											c0.3,10.6,5.1,20.5,13.6,26.7l-22.8-6.5l-9.5-76.3l59.5,3.1l29.3,86.5L338.5,1068.7z"/>
									</g>
								</g>
								<path class="st7" d="M394.3,1106.4c-8.8,3.1-18.4,4.8-27.6,4.8c-9.9-0.3-19.4-2.1-28.6-4.8H394.3z"/>
								<path class="st4" d="M283.7,990.4c2.4-3.4,5.8-6.2,9.5-8.2c3.7-2.1,8.2-3.4,12.2-3.8c4.4-0.3,8.8-0.3,13.3,0.3
									c2,0.3,4.4,0.7,6.5,1.4l6.5,1.7c3.1,0.7,4.4,3.8,3.7,6.8c-0.7,3.1-3.7,4.4-6.8,3.8c-0.3,0-0.7-0.3-1-0.3l-0.3-0.3l-5.1-2.7
									c-1.7-0.7-3.4-1.7-5.1-2.4c-3.4-1.4-7.1-2.4-10.9-2.7c-3.7-0.3-7.8,0-11.6,0.7C290.2,985.6,286.8,987.7,283.7,990.4z"/>
								<path class="st4" d="M447,990.4c-3.1-2.7-6.5-4.8-10.5-5.8c-3.7-1-7.5-1.4-11.6-0.7c-3.7,0.3-7.5,1.4-10.9,2.7
									c-1.7,0.7-3.4,1.7-5.1,2.4l-5.1,2.7h-0.3c-2.7,1.4-6.1,0.3-7.5-2.1c-1.4-2.7-0.3-6.2,2-7.5c0.3-0.3,0.7-0.3,1-0.3l6.5-1.7
									c2-0.3,4.4-1,6.5-1.4c4.4-0.7,8.8-0.7,13.3-0.3c4.4,0.3,8.5,1.7,12.2,3.8C441.2,983.9,444.6,987,447,990.4z"/>
								<g>
									<defs>
										<path id="SVGID_00000052804136603508346570000017496671119530834604_" d="M264.3,977.4c-0.7,15.4,8.2,22.9,7.1,25.6
											c-0.7,2.4-4.4,3.1-8.8,1c0,0-39.5-13.3-39.1-35.9c0.3-41,53.7-58.5,68-58.1C274.5,931.3,268.1,951.1,264.3,977.4z"/>
									</defs>
									<clipPath id="SVGID_00000036220852033855330770000002935998445420488334_">
										<use xlink:href="#SVGID_00000052804136603508346570000017496671119530834604_"  style="overflow:visible;"/>
									</clipPath>
									<g style="clip-path:url(#SVGID_00000036220852033855330770000002935998445420488334_);">
										<path class="st7" d="M264.3,977.4c-0.7,15.4,8.2,22.9,7.1,25.6c-0.7,2.4-4.4,3.1-8.8,1c0,0-39.5-13.3-39.1-35.9
											c0.3-41,53.7-58.5,68-58.1C274.5,931.3,268.1,951.1,264.3,977.4z"/>
										<path class="st19" d="M269.8,983.2c-7.8-6.5-18.4-8.9-28.2-6.8c-17.3,3.4-5.4,21.2,11.2,27.7"/>
										<path class="st19" d="M274.2,973c0,0-2-10.6-16.3-20.9c-14.3-10.3-36.4-2.4-36.4,18.1"/>
										<path class="st19" d="M246.3,925.5c3.7-1.7,7.8-1.7,11.6-0.3c9.2,4.1,16,12.3,18,22.6"/>
										<path class="st19" d="M279,908.7c0,0,12.9,1.7,12.9,22.9"/>
									</g>
								</g>
								<g>
									<defs>
										<path id="SVGID_00000001656536348373340800000010212386256439035542_" d="M466.7,977.4c0.3,15.4-8.2,22.9-7.1,25.6
											c0.7,2.4,4.4,3.1,8.8,1c0,0,39.5-13.3,39.1-35.9c-0.3-41-53.7-58.5-68-58.1C456.5,931.3,463,951.1,466.7,977.4z"/>
									</defs>
									<clipPath id="SVGID_00000024723784034196051320000001822193176161424768_">
										<use xlink:href="#SVGID_00000001656536348373340800000010212386256439035542_"  style="overflow:visible;"/>
									</clipPath>
									<g style="clip-path:url(#SVGID_00000024723784034196051320000001822193176161424768_);">
										<path class="st7" d="M466.7,977.4c0.3,15.4-8.2,22.9-7.1,25.6c0.7,2.4,4.4,3.1,8.8,1c0,0,39.5-13.3,39.1-35.9
											c-0.3-41-53.7-58.5-68-58.1C456.5,931.3,463,951.1,466.7,977.4z"/>
										<path class="st19" d="M461,983.2c7.8-6.5,18.4-8.9,28.2-6.8c17.3,3.4,5.4,21.2-11.2,27.7"/>
										<path class="st19" d="M456.9,973c0,0,2-10.6,16.3-20.9c14.3-10.3,36.4-2.4,36.4,18.1"/>
										<path class="st19" d="M484.8,925.5c-3.7-1.7-7.8-1.7-11.6-0.3c-9.2,4.1-16,12.3-18,22.6"/>
										<path class="st19" d="M452.1,908.7c0,0-12.9,1.7-12.9,22.9"/>
									</g>
								</g>
								<g>
									<defs>
										<path id="SVGID_00000094588077664757258100000016540716243262507657_" d="M143.9,1391.9c0,0-98.7,73.9-119.1,205.9
											c-6.5,41.4,11.2,48.2,22.5,52.3c24.5,8.9,63.3-36.3,69.4-43.1c8.8-9.9,50.7-49.9,69.4-67.7c24.5-22.9,46.6-64.3,36.1-91
											c0,0-35.4,25.6-52.7,4.8C152.1,1432.3,171.5,1409.7,143.9,1391.9z"/>
									</defs>
									<clipPath id="SVGID_00000144314460933417270380000015785697385831262878_">
										<use xlink:href="#SVGID_00000094588077664757258100000016540716243262507657_"  style="overflow:visible;"/>
									</clipPath>
									<g style="clip-path:url(#SVGID_00000144314460933417270380000015785697385831262878_);">
										<path class="st2" d="M-16.6,1612.5l150.4-255l130.2,77.6l-150.4,255L-16.6,1612.5z"/>
										<path class="st3" d="M186.1,1423.7c0,0,15.6,56.8-19.4,98.8c-29.3,35.6-65.3,60.2-79.6,78c-13.3,16.8-56.1,47.9-56.1,47.9
											l90.1,34.9l118.4-173l11.2-73.5L186.1,1423.7z"/>
									</g>
								</g>
								<path class="st4" d="M43.6,1683.6c3.4,4.1,5.4,8.9,5.8,14c0,6.8-2.4,10.3-5.8,10.3c-3.4,0-16-16.1-16-16.1l9.2-17.4
									L43.6,1683.6z"/>
								<path class="st0" d="M89.5,1698c-10.9,6.8-12.9-3.1-15-18.1c-1-8.2-8.5-9.9-14.6-7.2c-8.8,3.4-13.9,19.5-13.9,28
									c0,12.3-6.5,15.7-13.6,12.3c-8.8-4.1-6.8-22.6-6.8-22.6c-2-4.1-3.7-7.5-5.1-10.6c-3.7-8.5-4.4-14.4-4.4-27
									c0-19.2,3.4-42.1,8.8-54.7c8.8-20.9,44.9-25.3,44.9-25.3C109.9,1623.8,107.2,1687,89.5,1698z"/>
								<path class="st4" d="M31.3,1648.4c-3.7,13.3-5.4,27.4-5.8,41.4c-2-4.1-3.7-7.5-5.1-10.6C22.1,1668.6,25.5,1658,31.3,1648.4z
									"/>
							</g>
						</g>
					</g>
				</g>
			</g>
		</g>
	</g>
</g>
</svg>
