<?xml version="1.0" encoding="utf-8"?>
<!-- Generator: Adobe Illustrator 25.2.0, SVG Export Plug-In . SVG Version: 6.00 Build 0)  -->
<svg version="1.1" id="Layer_1" xmlns="http://www.w3.org/2000/svg" xmlns:xlink="http://www.w3.org/1999/xlink" x="0px" y="0px"
	 viewBox="0 0 434.7 537.3" style="enable-background:new 0 0 434.7 537.3;" xml:space="preserve">
<style type="text/css">
	.st0{fill:#534741;}
	.st1{fill:#38302C;}
	.st2{fill:#268202;}
	.st3{fill:#2D9B02;}
	.st4{fill:#D99D36;}
	.st5{fill:#004E2A;}
	.st6{fill:#006837;}
	.st7{fill:#D8FF03;}
	.st8{fill:#4AFF03;}
	.st9{clip-path:url(#SVGID_2_);}
	.st10{fill:#736357;}
	.st11{fill:#FFFFFF;}
</style>
<g id="l-arm">
	<path class="st0" d="M159.4,222.4c-2.1,11.5-5.9,22.7-11.4,33.1c-5.5,10.6-13,20-22.3,27.6c-4.7,3.8-10,7-15.6,9.4
		c-5.7,2.4-11.6,3.9-17.8,4.4c-6,0.5-12,0.1-17.8-1.2c-5.6-1.3-11.1-3.2-16.3-5.7c-3.2-1.6-4.5-5.5-2.9-8.7c1.4-2.9,4.8-4.3,7.8-3.3
		h0.1c9,3.1,18.4,4.2,26.9,2.5c4.2-0.8,8.3-2.3,12-4.5c3.8-2.1,7.2-4.8,10.2-7.9c6.2-6.5,11-14.2,14.2-22.6
		c3.3-8.5,5.3-17.5,5.9-26.7c0.7-7.5,7.3-13,14.8-12.3c7.3,0.6,12.7,6.9,12.4,14.2c0,0.5-0.1,1-0.2,1.6L159.4,222.4z"/>
</g>
<g id="l-hand">
	
		<ellipse transform="matrix(1.281734e-02 -0.9999 0.9999 1.281734e-02 -262.004 296.736)" class="st1" cx="19.3" cy="281.1" rx="6.5" ry="6.5"/>
	<path class="st1" d="M32.3,293.1c-5.3-1.3-10-4.5-13.2-8.9l1.1-5.8c6.2,5,12,7,18.7,7.4L32.3,293.1z"/>
	<circle class="st0" cx="27.3" cy="272.3" r="7.5"/>
	<path class="st0" d="M38.9,289.4c-5.7-2.9-10.1-7.7-12.6-13.6l2.8-6.3c5.8,7.3,11.7,11.2,19.3,13.3L38.9,289.4z"/>
	<circle class="st0" cx="7.6" cy="291.7" r="7.5"/>
	<path class="st0" d="M27.6,299.1c-6.1,0.6-13.4-0.2-18.9-3.9l-1-6.8c8.8,3.1,15.9,3.1,23.4,0.9L27.6,299.1z"/>
	<path class="st0" d="M25.2,295.6c2.7,6.6,14.6,12.1,25.3,7.6s15.2-16.7,12.4-23.3s-8.9,0.6-19.6,5S22.3,288.9,25.2,295.6z"/>
</g>
<g id="body">
	<path class="st2" d="M434.6,464.2c0,0.4,0.1,0.7,0.1,1.1c0,6.1-6,9.4-10.9,11c-50.2,17.1-74.3,8.1-165.9,33.8
		c-12.2,3.4-25.7,7.5-40.6,12.3l81.2-87.6l13.7-14.8l0.2-0.2c33.9,9.7,27.6,28.5,45.6,32c8.2,1.6,16.9-2.2,24.8,0.7
		c5.3,2,9.6,6.7,15,8.1c8.6,2.3,17.1-4.4,25.9-4.6C428.5,455.9,434,458.9,434.6,464.2z"/>
	<path class="st3" d="M311.1,407.5c0.6,6.8,4.9,12.8,11.1,15.6c23,10.2,19.8,25.4,35.9,28.5c8.2,1.6,16.9-2.2,24.8,0.7
		c5.3,2,9.6,6.7,15,8.1c8.6,2.3,17.1-4.4,25.9-4.6c4.7-0.1,10.2,2.9,10.8,8.2c-64,11.4-102.2-2.7-124.2-19l0,0
		c-4.3-3.1-8.2-6.6-11.9-10.5c-11.1-11.6-14.9-21.7-14.9-21.7l4.5-14.1l22.5,4.6L311.1,407.5z"/>
	<path class="st4" d="M177.9,216.4c0.4-3.8-0.2-7.6-1.6-11.1c-7.6-18.4-25.9-31.4-44.5-30.8c-4.5,0.1-9.4,1.2-12.4,4.9
		c-2.7,3.3-3.4,8.2-2.6,12.6s2.9,8.4,5.2,12.1c6.5,10.5,14.8,19.9,24.5,27.6C158.9,241.5,176.4,233,177.9,216.4L177.9,216.4z"/>
	<path class="st5" d="M157.5,447.2c0-31.2-11.4-58.2-27.9-70.8v-7.5h-21.1c-26.9,0.1-48.7,35.2-48.7,78.3s21.9,78.3,48.8,78.3
		c0.5,0,1.1,0,1.6-0.1l19.3,0.1V518C146.1,505.5,157.5,478.5,157.5,447.2z"/>
	<ellipse class="st6" cx="129.6" cy="447.2" rx="48.8" ry="78.3"/>
	<ellipse class="st7" cx="129.6" cy="447.2" rx="30.6" ry="49.1"/>
	<path class="st3" d="M324.1,410.8c-0.7-2.7-1.6-5.4-2.6-8.1c-3.2-8.6-7.6-16.8-13.2-24.2c-22.1-29.7-47.9-60.3-49.3-96.5l0,0v-71.3
		h-86.3V282h-0.1c-1.4,36.2-27.2,66.8-49.3,96.5c-6.8,9-11.9,19.2-15.1,30c-0.6,2.1-1.2,4.3-1.7,6.5c0,0.2-0.1,0.5-0.1,0.7
		c-4.6,20.6-2.5,42.5,4.5,63.7c6.6,19.9,23.3,36,43,45.5c14.7,7,30.9,10.7,47.3,12c3.9,0.3,7.9,0.5,11.9,0.6c0.9,0,1.8,0,2.7,0
		c4.8,0,9.7-0.2,14.5-0.6c16.5-1.3,32.7-5,47.4-12c19.7-9.5,36.4-25.6,43-45.5C328.3,456.4,330.1,432.7,324.1,410.8z"/>
	<path class="st8" d="M174.2,311.6c8.8,26.9,47.6,29.3,62.5,3.8l43.1-71.1c14.4-22.4-8.9-60.3-33.9-64c-23.7-2.2-37.8-2.8-59-3.5
		C117,184.4,162.2,269.2,174.2,311.6z"/>
	<path class="st4" d="M263.8,216.4c-0.4-3.8,0.2-7.6,1.6-11.1c7.6-18.4,25.9-31.3,44.5-30.8c4.5,0.1,9.4,1.2,12.4,4.9
		c2.7,3.3,3.4,8.2,2.6,12.6s-2.9,8.4-5.2,12.1c-6.5,10.5-14.8,19.9-24.5,27.6C282.7,241.5,265.3,233,263.8,216.4L263.8,216.4z"/>
	<path class="st0" d="M190.4,209.4l5.7-64.4c0.5-5.6,5.4-9.8,11-9.3c5,0.4,8.9,4.4,9.3,9.3l5.7,64.4c0.8,8.8-5.7,16.5-14.5,17.3
		s-16.5-5.7-17.3-14.5l0,0C190.3,211.3,190.3,210.4,190.4,209.4z"/>
	<g>
		<defs>
			<path id="SVGID_1_" d="M174.2,311.6c8.8,26.9,47.6,29.3,62.5,3.8l43.1-71.1c14.4-22.4-8.9-60.3-33.9-64
				c-23.7-2.2-37.8-2.8-59-3.5C117,184.4,162.2,269.2,174.2,311.6z"/>
		</defs>
		<clipPath id="SVGID_2_">
			<use xlink:href="#SVGID_1_"  style="overflow:visible;"/>
		</clipPath>
		<g class="st9">
			<path class="st7" d="M248.6,218.6c0-0.2,0.1-0.3,0.1-0.5c0.1-0.8,0.3-1.5,0.4-2.3l0.1-0.8c0.1-0.7,0.2-1.4,0.3-2.2
				c0-0.3,0.1-0.5,0.1-0.8c0.1-1,0.2-1.9,0.3-2.9l0,0c0.1-1,0.1-2,0.2-2.9v-0.8c0-0.7,0.1-1.5,0.1-2.2c0-0.3,0-0.5,0-0.8
				c0-0.8,0-1.6,0-2.4c0-0.2,0-0.3,0-0.5c-0.1-3-0.3-5.9-0.7-8.9v-0.2c-0.1-0.4-0.1-0.8-0.2-1.2l0,0c-3.7-25-18.1-44.6-36.7-47.3
				l0,0h-0.2h-0.1h-0.1h-0.2l0,0c-18.7-2.1-36,13.3-43.7,36.8l0,0c-0.1,0.4-0.2,0.8-0.4,1.2c0,0.1,0,0.1-0.1,0.2
				c-0.8,2.8-1.6,5.6-2.1,8.5l-0.1,0.5c-0.1,0.8-0.3,1.5-0.4,2.3l-0.1,0.8c-0.1,0.7-0.2,1.4-0.3,2.2c0,0.3-0.1,0.5-0.1,0.8
				c-0.1,1-0.2,1.9-0.3,2.9l0,0c-0.1,1-0.1,2-0.2,2.9c0,0.3,0,0.5,0,0.8c0,0.7,0,1.5-0.1,2.2c0,0.3,0,0.5,0,0.8c0,0.8,0,1.6,0,2.4
				c0,0.2,0,0.4,0,0.5c0.1,3,0.3,5.9,0.7,8.9v0.2c0.1,0.4,0.1,0.8,0.2,1.2l0,0c3.7,25,18.1,44.6,36.7,47.3l0,0h0.2h0.1h0.1h0.2l0,0
				c18.7,2.1,36-13.3,43.6-36.8l0,0l0.4-1.2c0-0.1,0.1-0.2,0.1-0.2C247.4,224.3,248.1,221.4,248.6,218.6z M203.1,252.6
				c-12.3-1.7-22.2-13.3-26.5-29.1c-0.2-0.8-0.4-1.6-0.6-2.5c0-0.2-0.1-0.3-0.1-0.5c-0.2-0.7-0.3-1.4-0.4-2.1
				c-0.1-0.4-0.1-0.7-0.2-1.1c-0.1-0.5-0.2-1.1-0.3-1.6c-0.1-0.4-0.1-0.8-0.2-1.1c-0.1-0.6-0.1-1.2-0.2-1.8c0-0.3-0.1-0.6-0.1-1
				c-0.1-0.9-0.1-1.8-0.2-2.7c0-0.3,0-0.6,0-0.9c0-0.7,0-1.3-0.1-2v-1c0-0.6,0-1.3,0-2v-1c0-1,0.1-1.9,0.2-2.9v-0.1
				c0.1-1,0.2-1.9,0.3-2.9c0-0.3,0.1-0.6,0.1-1c0.1-0.6,0.2-1.3,0.3-1.9l0.2-1.1c0.1-0.6,0.2-1.3,0.4-1.9l0.2-0.9
				c0.2-0.9,0.4-1.7,0.6-2.6c0.1-0.3,0.2-0.6,0.3-0.9c0.1-0.6,0.3-1.1,0.5-1.7c0.1-0.4,0.2-0.7,0.3-1.1s0.3-1,0.5-1.5l0.4-1
				c0.3-0.7,0.5-1.3,0.8-2c0.1-0.2,0.1-0.3,0.2-0.5c0.3-0.8,0.7-1.5,1-2.3c6.8-14.3,18.4-23.2,30.7-21.6s22.2,13.3,26.5,29.1
				c0.2,0.8,0.4,1.6,0.6,2.5c0,0.2,0.1,0.3,0.1,0.5c0.2,0.7,0.3,1.4,0.4,2.1c0.1,0.4,0.1,0.7,0.2,1.1c0.1,0.5,0.2,1.1,0.3,1.6
				c0.1,0.4,0.1,0.8,0.2,1.1c0.1,0.6,0.1,1.2,0.2,1.8c0,0.3,0.1,0.6,0.1,1c0.1,0.9,0.1,1.8,0.2,2.7v0.9c0,0.6,0,1.3,0,2
				c0,0.4,0,0.7,0,1.1c0,0.6,0,1.3,0,2v1c0,1-0.1,1.9-0.2,2.9v0.1c-0.1,1-0.2,1.9-0.3,2.9c0,0.3-0.1,0.6-0.1,0.9
				c-0.1,0.6-0.2,1.3-0.3,1.9c0,0.4-0.1,0.7-0.2,1.1c-0.1,0.6-0.2,1.3-0.4,1.9c-0.1,0.3-0.1,0.6-0.2,0.9c-0.2,0.9-0.4,1.7-0.6,2.6
				c-0.1,0.3-0.2,0.6-0.3,0.9c-0.2,0.6-0.3,1.1-0.5,1.7c-0.1,0.4-0.2,0.7-0.4,1.1c-0.2,0.5-0.3,1-0.5,1.5c-0.1,0.3-0.2,0.7-0.4,1
				c-0.2,0.7-0.5,1.3-0.8,2c-0.1,0.2-0.1,0.3-0.2,0.5c-0.3,0.8-0.7,1.5-1,2.3C227,245.2,215.4,254.1,203.1,252.6L203.1,252.6z"/>
		</g>
	</g>
	<path class="st2" d="M320.8,479.2c-6.6,19.9-23.3,36-43,45.5c-14.7,7-30.9,10.7-47.4,12h-29c-16.4-1.3-32.7-5-47.3-12
		c-19.7-9.5-36.4-25.6-43-45.5c-7-21.2-9.1-43.1-4.5-63.7c6.5,2,12.5,5.8,17.8,10.1c7.1,5.8,13.3,12.6,20.4,18.5
		c11.7,9.7,26,16.6,41,18.8s30.9-0.4,44-8.1c9.9-5.9,18-14.4,27.1-21.5c19.3-14.8,43-22.7,67.2-22.5
		C330.1,432.7,328.3,456.4,320.8,479.2z"/>
	<path class="st5" d="M366.1,454.7c0-32.2-11.8-60.1-28.8-73.1v-7.8h-21.8c-27.8,0.1-50.2,36.3-50.2,80.9s22.6,80.9,50.4,80.9
		c0.6,0,1.1,0,1.7-0.1l19.9,0.1v-7.8C354.3,514.8,366.1,487,366.1,454.7z"/>
	<ellipse class="st6" cx="337.3" cy="454.7" rx="50.4" ry="80.9"/>
	<ellipse class="st7" cx="337.3" cy="454.7" rx="31.6" ry="50.7"/>
</g>
<g id="r-arm">
	<path class="st0" d="M304.4,219.8c1.5,21.1,6.9,41.7,16,60.8c9.2,19.4,22.4,36.7,38.7,50.7l0,0c2.9,2.4,3.3,6.7,0.9,9.6
		c-2.3,2.7-6.3,3.3-9.2,1.3c-19.7-13.5-36.3-31-48.9-51.3c-12.8-20.6-21.5-43.4-25.9-67.3v-0.1c-1.6-7.8,3.4-15.4,11.1-17
		s15.4,3.4,17,11.1c0,0.2,0.1,0.4,0.1,0.6C304.4,218.7,304.4,219.2,304.4,219.8z"/>
</g>
<g id="r-hand">
	<circle class="st1" cx="362.1" cy="377.6" r="6.8"/>
	<path class="st1" d="M370.3,360.7c0.3,5.7-1.5,11.4-4.9,16l-6.2,0.6c3.1-7.8,3.5-14.2,1.7-21.1L370.3,360.7z"/>
	<circle class="st0" cx="350.8" cy="372.1" r="8"/>
	<path class="st0" d="M364.5,355.1c-1.2,6.6-4.7,12.6-9.8,16.9l-7.2-0.9c5.6-8,7.7-15.2,7.5-23.5L364.5,355.1z"/>
	<path class="st0" d="M377.8,363.7c2.5,6,3.9,13.6,1.9,20.3l-6.5,3.1c0.4-9.8-1.7-17-6.3-23.9L377.8,363.7z"/>
	<path class="st0" d="M375,367.2c5.8-4.7,7.8-18.4-0.1-27.8s-21.5-10.2-27.3-5.4c-5.9,4.8,3.3,8.8,11.1,18.2S369.1,372.1,375,367.2z
		"/>
	<circle class="st0" cx="376.4" cy="386.2" r="8"/>
</g>
<g id="head">
	<path class="st0" d="M202.8,62.7c8.6,13,25.6,16.6,40.2,14.6S271.3,69,285.9,67s31.6,1.6,40.2,14.6c9.5,14.3,4.8,34.2-4.9,47.6
		c-11.9,16.4-30.1,26.6-49.2,31.7s-39.1,9.8-59,9.9L202.8,62.7z"/>
	<path class="st10" d="M326.8,62.1c-10.1-9.7-27.5-7.2-40.8-2.8c-8.6,2.9-17.2,6.4-26.2,6.8c-11,0.6-11.7-2.5-14.5-11.3
		c-5.1-16.1-11.4-32.3-22.8-44.7c-5-5.4-11.9-10.1-19-10.2c-7,0.7-13.7,6-18.4,11.6c-10.4,12.5-16,28-20.4,43
		c-2.4,8.2-3,10.9-12.2,10.2c-7.2-0.6-14.1-3.9-20.6-6.5c-9.8-3.9-22-6.1-28.8,1.8c-6.5,7.5-4.3,19.9-0.5,29.6
		c10.1,26.1,29,49.8,53.8,64.6c14.4,8.5,30.4,14,47,16c17.4,1.7,35-0.4,51.5-6.2c31.4-11.1,57.6-35.3,72.5-65.6
		C333.3,86.8,336.8,71.7,326.8,62.1z"/>
	<path class="st7" d="M181.3,58.5c12.9-3.8,15.9-6.9,19.5-21c3.7,14.1,6.7,17.2,20.3,21.2c-13.6,3.8-16.6,7-20.3,21
		C197.2,65.6,194.3,62.5,181.3,58.5z"/>
	<path class="st7" d="M230.1,80.5c0-3.1-2.4-5.6-5.4-5.8c-3,0-5.4,2.4-5.4,5.3c0,0.1,0,0.1,0,0.2c0,3,2.3,5.6,5.4,5.8
		c2.9,0.1,5.4-2.3,5.4-5.2C230.1,80.7,230.1,80.6,230.1,80.5z"/>
	<path class="st7" d="M173.2,76.9c-0.1-2.8,2-5.1,4.8-5.2c0,0,0.1,0,0.1,0c2.9,0.2,5.1,2.6,5,5.5c0.1,2.8-2,5.1-4.8,5.2
		c-0.1,0-0.1,0-0.2,0C175.3,82.2,173.1,79.8,173.2,76.9z"/>
	<path class="st11" d="M171.3,108.4c0,7-4.8,12.3-10.7,12s-10.5-6.2-10.5-13.1s4.7-12.2,10.5-12c0.4,0,0.8,0.1,1.2,0.1
		c5,0.8,8.9,5.7,9.5,11.6C171.3,107.4,171.3,107.9,171.3,108.4z"/>
	<path class="st3" d="M171.2,107c-0.5,4.9-4.1,8.5-8.4,8.2c-4.6-0.3-8.4-4.9-8.4-10.4c0-5,3.2-9,7.3-9.5
		C166.7,96.2,170.7,101.1,171.2,107z"/>
	<path d="M166.4,105.5c0,2.3-1.6,4.1-3.6,4s-3.5-2.1-3.5-4.4s1.6-4.1,3.5-4S166.4,103.2,166.4,105.5z"/>
	<path class="st1" d="M150.1,107.2c-0.5-3.2,0.2-6.5,2.2-9.1c1-1.4,2.3-2.5,3.8-3.2c1.6-0.7,3.3-1,5-0.9c1.7,0.2,3.3,0.8,4.8,1.7
		c1.4,0.9,2.6,2.1,3.5,3.5c1.8,2.7,2.5,5.9,2,9.1c-0.5-2.9-1.7-5.7-3.5-8c-1.7-2.2-4.2-3.6-6.9-3.9c-2.7-0.2-5.4,0.8-7.2,2.9
		C151.8,101.6,150.5,104.3,150.1,107.2z"/>
	<path class="st1" d="M152.2,100.1c-1.8-0.3-3.4-1.5-4.1-3.2c-0.7-1.5-0.6-3.3,0.2-4.7c-0.4,1.4-0.1,3,0.8,4.2
		c0.8,1.1,2,1.7,3.3,1.6c0.6-0.1,1.1,0.4,1.2,1c0,0,0,0,0,0c0.1,0.6-0.4,1.1-1,1.2C152.5,100.2,152.4,100.2,152.2,100.1L152.2,100.1
		z"/>
	<path class="st1" d="M149.9,103.8c-1.9-0.5-3.6-1.6-4.6-3.3c-0.5-0.8-0.8-1.7-0.9-2.6c-0.1-0.9,0.1-1.8,0.6-2.6
		c-0.4,1.6,0.1,3.3,1.3,4.4c1.1,1,2.5,1.6,4,1.7c0.7,0,1.2,0.5,1.2,1.2c0,0,0,0,0,0c0,0.7-0.5,1.2-1.2,1.2c0,0,0,0,0,0
		C150.2,103.9,150.1,103.9,149.9,103.8L149.9,103.8z"/>
	<path class="st11" d="M236.6,111.9c0,7.4,5.5,13.8,12.4,14.3s12.6-5.3,12.6-12.9s-5.7-14-12.6-14.3c-0.5,0-0.9,0-1.4,0
		c-5.8,0.4-10.3,5.2-10.9,11.4C236.7,110.9,236.6,111.4,236.6,111.9z"/>
	<path class="st3" d="M236.7,110.4c0.6,5.3,4.7,9.6,9.7,9.9c5.5,0.3,9.9-4.2,9.9-10.2c0-5.5-3.8-10.2-8.7-11.1
		C241.8,99.5,237.3,104.2,236.7,110.4z"/>
	<path d="M242.2,109.4c-0.1,2.4,1.7,4.5,4.1,4.7c2.3,0,4.1-1.8,4.2-4c0-0.1,0-0.2,0-0.3c0.1-2.4-1.7-4.5-4.2-4.7
		c-2.3,0-4.1,1.8-4.1,4C242.2,109.2,242.2,109.3,242.2,109.4z"/>
	<path class="st1" d="M261.6,113.3c-0.5-3.3-1.9-6.4-4.1-8.8c-2.1-2.4-5-3.8-8.1-4.1c-3.1-0.3-6.2,0.8-8.4,3
		c-2.4,2.3-3.9,5.4-4.3,8.7c-0.5-3.6,0.5-7.2,2.9-10c1.2-1.4,2.8-2.5,4.5-3.3c1.8-0.7,3.7-1,5.6-0.8c1.9,0.2,3.7,0.8,5.3,1.7
		C259.7,102.4,262.3,107.8,261.6,113.3L261.6,113.3z"/>
	<path class="st1" d="M258.9,102.9c1.5,0.2,3-0.3,4.1-1.4c1.1-1.3,1.4-3.1,0.9-4.7c1,1.6,1,3.7,0,5.3c-1.1,1.8-2.9,2.9-5,3l0,0
		c-0.6,0.1-1.1-0.4-1.2-1c0,0,0,0,0,0c0-0.6,0.4-1.1,1-1.2L258.9,102.9z"/>
	<path class="st1" d="M261.5,107c1.7,0.2,3.5-0.3,4.9-1.4c0.7-0.6,1.2-1.3,1.5-2.2c0.3-0.9,0.3-1.9,0-2.8c0.5,0.9,0.7,1.9,0.6,2.9
		c-0.1,1.1-0.6,2.1-1.3,2.9c-1.4,1.7-3.5,2.8-5.7,3l0,0c-0.7,0.1-1.2-0.4-1.3-1.1c0-0.6,0.4-1.2,1-1.3L261.5,107z"/>
	<path class="st0" d="M189.4,131.7c0.7-0.1,1.4,0,2,0.3c0.6,0.2,1.2,0.6,1.7,1c0.5,0.4,0.9,1,1.2,1.6c0.3,0.6,0.4,1.4,0.3,2.1
		c-0.6-0.4-1.1-0.7-1.6-1c-0.5-0.3-0.9-0.6-1.3-1c-0.4-0.4-0.8-0.8-1.2-1.2C190.1,132.9,189.7,132.3,189.4,131.7z"/>
	<path class="st0" d="M208.1,133.1c-0.3,0.5-0.7,1-1.2,1.5c-0.4,0.4-0.8,0.7-1.2,1c-0.4,0.3-0.9,0.6-1.3,0.8l-1.6,0.8
		c-0.2-0.7,0-1.4,0.3-2c0.3-0.6,0.8-1,1.3-1.4c0.5-0.4,1.1-0.6,1.7-0.8C206.8,132.9,207.5,132.9,208.1,133.1z"/>
	<path class="st0" d="M234.9,142.7c-3-0.4-6.1,0-8.9,1.1c-2.9,1-5.6,2.4-8.4,3.6c-2.9,1.2-6,2.1-9.1,2.5c-3.1,0.4-6.3,0.4-9.4,0.1
		c-3.1-0.2-6.2-0.8-9.3-1.6c-3-0.9-5.9-2.1-8.7-3.8c-2.7-1.6-5.2-3.4-7.8-4.9c-2.6-1.7-5.5-2.6-8.6-2.7c3.1-0.5,6.3,0.5,9.1,1.8
		s5.5,3,8.1,4.4c5.4,2.8,11.3,4.4,17.3,4.7c6,0.7,12.1,0,17.7-2c2.9-1,5.7-2.3,8.8-3.1C228.7,141.9,231.9,141.9,234.9,142.7z"/>
</g>
<path id="sleeve" class="st4" d="M274.4,232.7c0,0,6.6-19.7,41.8-23.7l3-22.2l-37.2,6.8l-14.5,16.2L274.4,232.7z"/>
</svg>
