<?xml version="1.0" encoding="utf-8"?>
<!-- Generator: Adobe Illustrator 25.2.0, SVG Export Plug-In . SVG Version: 6.00 Build 0)  -->
<svg version="1.1" id="Layer_1" xmlns="http://www.w3.org/2000/svg" xmlns:xlink="http://www.w3.org/1999/xlink" x="0px" y="0px"
	 viewBox="0 0 334.8 539.6" style="enable-background:new 0 0 334.8 539.6;" xml:space="preserve">
<style type="text/css">
	.st0{fill:#534741;}
	.st1{fill:#004E2A;}
	.st2{fill:#D99D36;}
	.st3{fill:#2D9B02;}
	.st4{fill:#4AFF03;}
	.st5{fill:#D8FF03;}
	.st6{fill:#268202;}
	.st7{fill:#736357;}
	.st8{fill:#FFFFFF;}
	.st9{fill:#38302C;}
</style>
<g id="l-arm">
	<path class="st0" d="M79.1,228.7c-4,3.3-7.6,6.9-10.8,11c-3.2,4.2-6,8.7-8.3,13.4c-4.6,9.5-6.9,20-6.6,30.6
		c0.5,10.9,3.5,21.6,8.8,31.2c2.8,5,5.9,9.8,9.5,14.2l2.8,3.4c1,1.1,2,2.2,2.9,3.3l1.5,1.6l1.6,1.5l3.1,3.1l0.2,0.2
		c2.7,2.6,2.8,6.8,0.2,9.5c-2.5,2.6-6.5,2.8-9.2,0.5l-3.8-3.1l-1.9-1.5l-1.8-1.6c-1.2-1.1-2.4-2.2-3.6-3.3l-3.5-3.5
		c-4.6-4.8-8.9-9.9-12.6-15.4c-3.8-5.6-7-11.7-9.6-18c-2.6-6.5-4.4-13.3-5.3-20.2c-1.9-14.1-0.3-28.5,4.7-41.8
		c4.9-13.5,12.7-25.8,22.8-35.9v-0.1c5.5-5.5,14.4-5.5,20,0c5.5,5.5,5.5,14.4,0,20C79.8,228.1,79.4,228.4,79.1,228.7z"/>
</g>
<g id="r-arm">
	<path class="st0" d="M227.3,203.3c10.3,0.1,20.5-2.1,29.8-6.4c9.6-4.5,18-11.2,24.6-19.4c6.9-8.7,12.2-18.6,15.7-29.2
		c3.6-11.1,6-22.5,7-34.1v-0.1c0.4-3.7,3.6-6.4,7.3-6.1c3.5,0.3,6.1,3.2,6.1,6.7c0.2,12.9-1.2,25.7-4,38.2
		c-2.9,13.1-8.1,25.5-15.4,36.8c-7.7,11.7-17.9,21.5-29.8,28.7c-6.1,3.6-12.5,6.6-19.3,8.7c-6.8,2.2-13.8,3.6-20.9,4.3l0,0
		c-7.8,0.6-14.6-5.2-15.2-12.9c-0.6-7.6,4.9-14.3,12.5-15.1C226.4,203.3,226.9,203.3,227.3,203.3z"/>
</g>
<g id="r-hand">
	<circle class="st0" cx="301.1" cy="63.7" r="7.8"/>
	<path class="st0" d="M321.6,94.1c-2.4-4.1-6-7.5-9.5-10.7c-2.5-2.2-5.5-4.5-8.7-3.8c-2.8,0.7-4.4,3.4-5.6,6
		c-2.1,4.5-3.5,9.2-4.4,14.1c-1.9,11.1,6.6,20.4,18.4,18.5C323.2,116.4,326.9,103.1,321.6,94.1z"/>
	<path class="st0" d="M296.7,88.1l8.5-1.6l8.5-1.6c0,0-8.4-8.1-9.3-18.3l-2.9,0.6l-2.9,0.6C301.5,77.5,296.7,88.1,296.7,88.1z"/>
	<circle class="st0" cx="327" cy="74.4" r="7.8"/>
	<path class="st0" d="M323.1,99l-7.5-4.3l-7.5-4.3c0,0,10.6-4.9,14.7-14.2l2.5,1.5l2.6,1.4C322.1,87.4,323.1,99,323.1,99z"/>
	<circle class="st0" cx="281.3" cy="83.1" r="7.8"/>
	<path class="st0" d="M293.9,104.6l5.4-6.7l5.4-6.8c0,0-11.6-0.7-18.9-7.8l-1.8,2.3l-1.8,2.3C290.7,93.3,293.9,104.6,293.9,104.6z"
		/>
</g>
<g id="body">
	<path class="st1" d="M18.3,376.4L18.3,376.4c10.1,0,18.3,8.2,18.3,18.3v126.6c0,10.1-8.2,18.3-18.3,18.3l0,0
		C8.2,539.6,0,531.4,0,521.3V394.7C0,384.6,8.2,376.4,18.3,376.4z"/>
	<path class="st1" d="M269.9,539.6L269.9,539.6c-10.1,0-18.3-8.2-18.3-18.3V394.7c0-10.1,8.2-18.3,18.3-18.3l0,0
		c10.1,0,18.3,8.2,18.3,18.3v126.6C288.2,531.4,280,539.6,269.9,539.6z"/>
	<path class="st2" d="M199.4,215c5.7-19.5,25.5-33.9,45.8-33.2c4.4,0.1,9.2,1.1,12.2,4.4c2.7,3,3.4,7.4,2.5,11.4s-2.9,7.4-5.2,10.8
		c-12.5,18.4-30.9,32.1-52.2,38.9L199.4,215z"/>
	<path class="st2" d="M87.1,215c-5.7-19.5-25.5-33.9-45.8-33.2c-4.5,0.1-9.2,1.1-12.2,4.4c-2.7,3-3.4,7.4-2.5,11.4s2.9,7.5,5.1,10.9
		c12.5,18.4,30.9,32.1,52.2,38.9L87.1,215z"/>
	<path class="st3" d="M246.4,484.4c-6.5,18.9-22.9,34.2-42.3,43.2c-18.6,8.6-39.9,11.9-60.8,12c-21-0.1-42.2-3.3-60.8-12
		c-19.4-9-35.8-24.3-42.3-43.2c-7.7-22.5-9.3-45.7-2.6-67.2c3.2-10.3,8.2-19.9,14.8-28.5c21.7-28.2,47.1-57.2,48.5-91.6l42.5-0.6
		l42.5,0.6c1.3,34.4,26.7,63.4,48.5,91.6c5.4,7,9.8,14.7,13,22.9C256,434.7,254.8,460,246.4,484.4z"/>
	<path class="st4" d="M214,247.9l-40.4,76.5c-11.7,24-49,24-60.7,0l-40.4-76.5c-6.7-12.7-4.8-28.2,4.8-38.9c5-6.9,10-11.5,15.3-14.5
		c4.7-2.6,9.8-4.2,15.2-4.7c10.6-1.3,22.2,0.3,35.6-0.2c9.6,0.5,23.4-1.1,35.7,0.4c5.2,0.5,10.3,1.9,15,4.1c3.3,1.6,6.1,4,8.2,6.9
		C215.3,212.8,223.4,231.2,214,247.9z"/>
	<path class="st0" d="M127.7,212l5.6-63.4c0.6-5.5,5.5-9.6,11-9c4.8,0.5,8.5,4.2,9,9l5.6,63.4c1,8.6-5.2,16.4-13.8,17.3
		c-8.6,1-16.4-5.2-17.3-13.8c0-0.2-0.1-0.5-0.1-0.8C127.6,213.8,127.6,212.9,127.7,212z"/>
	<path class="st5" d="M193.9,194c-4.7-2.3-9.8-3.7-15-4.1c3.5,7.3,5.2,15.4,5.2,23.5c0,26.6-18.3,48.2-40.9,48.2
		s-40.9-21.6-40.9-48.2c0-8.2,1.8-16.2,5.2-23.6c-5.3,0.6-10.5,2.2-15.2,4.7c-1.8,6.1-2.7,12.5-2.6,18.9c0,33.5,24,60.7,53.4,60.7
		s53.4-27.2,53.4-60.7C196.7,206.8,195.7,200.3,193.9,194z"/>
	<path class="st6" d="M246.4,484.4c-6.5,18.9-22.9,34.2-42.3,43.2c-18.6,8.6-39.9,11.9-60.8,12c-21-0.1-42.2-3.3-60.8-12
		c-19.4-9-35.8-24.3-42.3-43.2c-7.7-22.5-9.3-45.7-2.6-67.2c9.5,2.2,18.8,5.6,27.5,10.1c14.4,7.4,27.2,17.5,41.4,25.3
		s30.6,13.2,46.5,10c20.6-4.2,35.4-21.6,52.8-33.4c12.6-8.4,26.7-14.4,41.5-17.5C256,434.7,254.8,460,246.4,484.4z"/>
</g>
<g id="head">
	<path class="st7" d="M255.5,62.5c-8.4-8.9-23-6.6-34.5-2.3c-7.5,2.8-15.3,6.3-23.4,6.8c-10.2,0.7-10.9-2.3-13.5-11
		c-4.8-15.9-10.8-32.1-21.8-44.9C157.3,5.5,150.4,0.4,143.3,0c-7.1,0.4-14.1,5.5-19,11.2c-11,12.8-17,29-21.8,44.9
		c-2.6,8.7-3.3,11.6-13.5,11c-8.1-0.5-15.9-4-23.5-6.8c-11.5-4.3-26.1-6.6-34.5,2.3c-8.1,8.6-5.3,22.6-0.6,33.5
		c12.3,28.7,34.8,53.3,63,66.9c15.6,7.5,32.6,11.4,49.9,11.6c17.3-0.2,34.3-4.1,49.9-11.6c28.2-13.6,50.6-38.1,63-66.9
		C260.8,85.1,263.5,71.1,255.5,62.5z"/>
	<path class="st5" d="M121.4,58.6c7.2-2,11.6-3.8,14.7-6.9S141,44.2,143,37c2,7.2,3.8,11.6,6.9,14.7s7.5,4.9,14.7,6.9
		c-7.2,2-11.6,3.8-14.7,6.9S145,73,143,80.2c-2-7.2-3.8-11.6-6.9-14.7S128.6,60.6,121.4,58.6z"/>
	<circle class="st5" cx="168.2" cy="80.2" r="5.6"/>
	<circle class="st5" cx="117.7" cy="80.2" r="5.6"/>
	<path class="st8" d="M109.6,112.8c0,7.4-5.2,13.4-11.7,13.4s-11.7-6-11.7-13.4S91.5,99.4,98,99.4c0.4,0,0.9,0,1.3,0.1
		c5.4,0.7,9.7,5.6,10.3,11.8C109.6,111.8,109.6,112.3,109.6,112.8z"/>
	<path class="st3" d="M109.5,111.3c-0.6,5.2-4.4,9.2-9.2,9.2c-5.1,0-9.2-4.7-9.2-10.6c0-5.4,3.5-9.8,8.1-10.5
		C104.7,100.2,109,105.1,109.5,111.3z"/>
	<ellipse cx="100.4" cy="109.9" rx="3.9" ry="4.5"/>
	<path class="st9" d="M86.3,112.8c-0.5-3.4,0.3-6.9,2.4-9.8c1.1-1.5,2.4-2.7,4-3.6c3.3-1.8,7.3-1.8,10.6,0c1.6,0.9,2.9,2.1,4,3.5
		c2,2.8,2.9,6.3,2.4,9.8c-0.5-3.1-1.8-6.1-3.9-8.5c-3.6-4.3-10-4.8-14.2-1.2c-0.4,0.4-0.8,0.8-1.2,1.2
		C88.1,106.7,86.7,109.6,86.3,112.8z"/>
	<path class="st9" d="M88.8,104.9c-1.9-0.2-3.7-1.4-4.6-3.1c-0.8-1.6-0.8-3.5,0.1-5.1c-0.5,1.5-0.2,3.2,0.8,4.5
		c0.9,1.1,2.3,1.7,3.8,1.6c0.6-0.1,1.1,0.4,1.2,0.9s-0.4,1.1-0.9,1.2L88.8,104.9L88.8,104.9z"/>
	<path class="st9" d="M86.2,109c-2.1-0.4-3.9-1.5-5.2-3.2c-0.6-0.8-0.9-1.8-1-2.8c-0.1-1,0.1-1.9,0.6-2.8c-0.5,1.7,0,3.6,1.3,4.8
		c1.2,1.1,2.8,1.7,4.5,1.7c0.6,0,1.1,0.6,1.1,1.2c0,0.6-0.5,1-1,1.1C86.4,109,86.3,109,86.2,109L86.2,109z"/>
	<path class="st8" d="M175.8,112.8c0,7.4,5.2,13.4,11.7,13.4s11.7-6,11.7-13.4s-5.2-13.4-11.7-13.4c-0.4,0-0.9,0-1.3,0.1
		c-5.4,0.7-9.7,5.6-10.3,11.8C175.9,111.8,175.8,112.3,175.8,112.8z"/>
	<path class="st3" d="M175.9,111.3c0.6,5.2,4.5,9.2,9.1,9.2c5.1,0,9.2-4.7,9.2-10.6c0-5.4-3.5-9.8-8.1-10.5
		C180.8,100.2,176.5,105.1,175.9,111.3z"/>
	<ellipse cx="185.1" cy="109.9" rx="3.9" ry="4.5"/>
	<path class="st9" d="M199.1,112.8c-0.5-3.1-1.8-6.1-3.9-8.5c-3.6-4.3-10-4.8-14.2-1.2c-0.4,0.4-0.8,0.8-1.2,1.2
		c-2.1,2.4-3.5,5.3-3.9,8.5c-0.5-3.4,0.3-6.9,2.4-9.8c1.1-1.5,2.4-2.7,4-3.5c3.3-1.8,7.3-1.8,10.6,0c1.6,0.9,2.9,2.1,4,3.6
		C198.8,105.8,199.7,109.3,199.1,112.8z"/>
	<path class="st9" d="M196.6,102.8c1.4,0.1,2.9-0.5,3.8-1.6c1-1.3,1.3-3,0.8-4.5c0.9,1.6,0.9,3.5,0.1,5.1c-0.9,1.7-2.6,2.9-4.6,3.1
		l0,0c-0.6,0.1-1.1-0.3-1.2-0.9c-0.1-0.6,0.3-1.1,0.9-1.2L196.6,102.8z"/>
	<path class="st9" d="M199.1,106.7c1.7,0.1,3.3-0.5,4.5-1.7c1.4-1.2,1.9-3.1,1.4-4.8c0.5,0.8,0.7,1.8,0.6,2.8c-0.1,1-0.5,2-1.1,2.8
		c-1.3,1.7-3.1,2.8-5.2,3.2l0,0c-0.6,0.1-1.2-0.4-1.3-1c-0.1-0.6,0.3-1.1,0.9-1.2L199.1,106.7z"/>
	<path class="st0" d="M133.8,135.7c0.7-0.1,1.4,0,2,0.2c0.6,0.2,1.2,0.5,1.7,0.9c0.5,0.4,1,0.9,1.3,1.5c0.3,0.6,0.5,1.3,0.3,2
		l-1.6-1c-0.5-0.3-0.9-0.6-1.3-1c-0.4-0.3-0.9-0.7-1.2-1.1C134.5,136.7,134.1,136.2,133.8,135.7z"/>
	<path class="st0" d="M152.7,135.7c-0.3,0.6-0.7,1.1-1.1,1.6c-0.4,0.4-0.8,0.8-1.2,1.1c-0.4,0.4-0.9,0.7-1.3,1l-1.6,1
		c-0.1-0.7,0-1.4,0.3-2c0.3-0.6,0.8-1.1,1.3-1.5c0.5-0.4,1.1-0.7,1.7-0.9C151.4,135.7,152,135.6,152.7,135.7z"/>
	<path class="st0" d="M178.8,143.3c-3.1-0.2-6.2,0.5-8.9,1.9c-2.8,1.3-5.4,3-8.2,4.4c-2.8,1.5-5.9,2.5-9,3.2c-6.3,1.2-12.7,1.2-19,0
		c-3.1-0.6-6.2-1.7-9-3.2c-2.8-1.4-5.4-3.1-8.2-4.4c-2.7-1.5-5.8-2.1-8.9-1.9c3.1-0.8,6.3-0.1,9.3,1s5.7,2.6,8.5,3.9
		c5.6,2.5,11.7,3.7,17.8,3.5c6.1,0.2,12.2-1,17.8-3.4c2.8-1.3,5.6-2.8,8.5-3.9S175.7,142.5,178.8,143.3z"/>
</g>
<g id="l-hand">
	<circle class="st0" cx="81.6" cy="381.7" r="7.8"/>
	<path class="st0" d="M68,365c1.2,6.5,4.6,12.4,9.7,16.6l7.1-0.9c-5.5-7.9-7.6-15-7.4-23.2L68,365z"/>
	<circle class="st0" cx="56.3" cy="395.5" r="7.8"/>
	<path class="st0" d="M55,373.4c-2.5,5.9-3.8,13.4-1.8,20l6.4,3c-0.4-9.6,1.7-16.7,6.2-23.5L55,373.4z"/>
	<path class="st0" d="M57.7,376.8c-5.7-4.6-7.6-18.1,0.1-27.4s21.2-10.1,26.8-5.4c5.8,4.7-3.3,8.6-10.9,18S63.5,381.6,57.7,376.8z"
		/>
</g>
</svg>
