<?xml version="1.0" encoding="utf-8"?>
<!-- Generator: Adobe Illustrator 25.2.0, SVG Export Plug-In . SVG Version: 6.00 Build 0)  -->
<svg version="1.1" id="Layer_1" xmlns="http://www.w3.org/2000/svg" xmlns:xlink="http://www.w3.org/1999/xlink" x="0px" y="0px"
	 viewBox="0 0 378 537.3" style="enable-background:new 0 0 378 537.3;" xml:space="preserve">
<style type="text/css">
	.st0{fill:#534741;}
	.st1{fill:#38302C;}
	.st2{fill:#268202;}
	.st3{fill:#2D9B02;}
	.st4{fill:#D99D36;}
	.st5{fill:#004E2A;}
	.st6{fill:#006837;}
	.st7{fill:#D8FF03;}
	.st8{fill:#4AFF03;}
	.st9{clip-path:url(#SVGID_2_);}
	.st10{fill:#736357;}
	.st11{fill:#FFFFFF;}
</style>
<g id="l-arm">
	<path class="st0" d="M102.7,222.6c-4.1,22.6-12.5,44.2-24.6,63.8c-11.9,19.3-27.7,35.9-46.4,48.7c-3,2-7,1.2-9-1.8
		c-1.8-2.7-1.3-6.4,1.1-8.5h0c15.5-13.3,27.9-29.7,36.7-48.1c8.6-18.1,13.8-37.6,15.2-57.6c0.6-7.5,7.1-13.1,14.6-12.6
		c7.5,0.6,13.1,7.1,12.6,14.6l0,0C102.8,221.6,102.8,222.1,102.7,222.6L102.7,222.6z"/>
</g>
<g id="l-hand">
	
		<ellipse transform="matrix(0.9999 -1.514629e-02 1.514629e-02 0.9999 -5.5816 0.3617)" class="st1" cx="21.1" cy="368.7" rx="6.5" ry="6.5"/>
	<path class="st1" d="M13.3,352.7c-0.3,5.5,1.4,10.8,4.7,15.2l5.8,0.6c-3-7.4-3.3-13.5-1.6-20L13.3,352.7z"/>
	<circle class="st0" cx="31.8" cy="363.5" r="7.5"/>
	<path class="st0" d="M18.8,347.4c1.2,6.3,4.5,11.9,9.3,16l6.8-0.9c-5.3-7.6-7.3-14.5-7.1-22.3L18.8,347.4z"/>
	<circle class="st0" cx="7.5" cy="376.8" r="7.5"/>
	<path class="st0" d="M6.2,355.5c-2.4,5.6-3.7,12.9-1.8,19.3l6.2,2.9c-0.4-9.3,1.6-16.1,5.9-22.7L6.2,355.5z"/>
	<path class="st0" d="M8.9,358.8c-5.5-4.5-7.3-17.5,0.1-26.4s20.4-9.7,25.9-5.2s-3.2,8.3-10.5,17.3S14.4,363.5,8.9,358.8z"/>
</g>
<g id="body">
	<path class="st2" d="M378,464.2c0,0.4,0.1,0.7,0.1,1.1c0,6.1-6,9.4-10.9,11c-50.2,17.1-74.3,8.1-165.9,33.8
		c-12.2,3.4-25.7,7.5-40.6,12.3l81.2-87.6l13.7-14.8l0.2-0.2c33.9,9.7,27.6,28.5,45.6,32c8.2,1.6,16.9-2.2,24.8,0.7
		c5.3,2,9.6,6.7,15,8.1c8.6,2.3,17.1-4.4,25.9-4.6C371.8,455.9,377.3,458.9,378,464.2z"/>
	<path class="st3" d="M254.4,407.5c0.6,6.8,4.9,12.8,11.1,15.6c23,10.2,19.8,25.4,35.9,28.5c8.2,1.6,16.9-2.2,24.8,0.7
		c5.3,2,9.6,6.7,15,8.1c8.6,2.3,17.1-4.4,25.9-4.6c4.7-0.1,10.2,2.9,10.8,8.2c-64,11.4-102.2-2.7-124.2-19l0,0
		c-4.3-3.1-8.2-6.6-11.9-10.5c-11.1-11.6-14.9-21.7-14.9-21.7l4.6-14.1l22.5,4.5L254.4,407.5z"/>
	<path class="st4" d="M121.2,216.4c0.4-3.8-0.2-7.6-1.7-11.1c-7.6-18.4-25.9-31.3-44.5-30.8c-4.5,0.1-9.4,1.2-12.4,4.9
		c-2.7,3.3-3.4,8.2-2.6,12.6s2.9,8.4,5.2,12.1c6.5,10.5,14.8,19.9,24.5,27.6C102.3,241.5,119.7,233,121.2,216.4L121.2,216.4z"/>
	<path class="st5" d="M100.8,447.2c0-31.2-11.4-58.2-27.9-70.8v-7.5H51.8C24.9,369,3.1,404.1,3.1,447.2S25,525.6,52,525.6
		c0.5,0,1.1,0,1.6-0.1l19.3,0.1V518C89.4,505.5,100.8,478.5,100.8,447.2z"/>
	<ellipse class="st6" cx="72.9" cy="447.2" rx="48.8" ry="78.3"/>
	<ellipse class="st7" cx="72.9" cy="447.2" rx="30.6" ry="49.1"/>
	<path class="st3" d="M267.4,410.8c-0.7-2.7-1.6-5.4-2.6-8.1c-3.2-8.6-7.6-16.8-13.2-24.2c-22.1-29.7-47.9-60.3-49.3-96.5l0,0v-71.3
		h-86.3V282H116c-1.4,36.2-27.2,66.8-49.3,96.5c-6.8,9-11.9,19.2-15.1,30c-0.7,2.1-1.2,4.3-1.7,6.5l-0.2,0.7
		c-4.5,20.6-2.5,42.5,4.5,63.7c6.6,19.9,23.3,36,43,45.5c14.7,7,30.9,10.7,47.3,12c3.9,0.3,7.9,0.5,11.8,0.6c0.9,0,1.8,0,2.7,0
		c4.8,0,9.7-0.2,14.5-0.6c16.5-1.3,32.7-5,47.3-12c19.7-9.5,36.5-25.6,43-45.5C271.6,456.4,273.4,432.7,267.4,410.8z"/>
	<path class="st8" d="M117.5,311.6c8.8,26.9,47.6,29.3,62.5,3.8l43.1-71.1c14.4-22.4-8.9-60.3-33.9-64c-23.7-2.2-37.8-2.8-59-3.5
		C60.3,184.4,105.6,269.2,117.5,311.6z"/>
	<path class="st4" d="M207.1,216.4c-0.4-3.8,0.2-7.6,1.6-11.1c7.6-18.4,25.9-31.4,44.5-30.8c4.5,0.1,9.4,1.2,12.4,4.9
		c2.7,3.3,3.4,8.2,2.6,12.6s-2.9,8.4-5.2,12.1c-6.5,10.5-14.8,19.9-24.5,27.6C226,241.5,208.6,233,207.1,216.4L207.1,216.4z"/>
	<path class="st0" d="M133.7,209.4l5.7-64.4c0.5-5.6,5.4-9.8,11-9.3c5,0.4,8.9,4.4,9.3,9.3l5.7,64.4c0.8,8.8-5.7,16.5-14.5,17.3
		s-16.5-5.7-17.3-14.5l0,0C133.6,211.3,133.6,210.4,133.7,209.4z"/>
	<g>
		<defs>
			<path id="SVGID_1_" d="M117.5,311.6c8.8,26.9,47.6,29.3,62.5,3.8l43.1-71.1c14.4-22.4-8.9-60.3-33.9-64
				c-23.7-2.2-37.8-2.8-59-3.5C60.3,184.4,105.6,269.2,117.5,311.6z"/>
		</defs>
		<clipPath id="SVGID_2_">
			<use xlink:href="#SVGID_1_"  style="overflow:visible;"/>
		</clipPath>
		<g class="st9">
			<path class="st7" d="M192,218.6l0.1-0.5c0.1-0.8,0.3-1.5,0.4-2.3c0.1-0.3,0.1-0.5,0.1-0.8c0.1-0.7,0.2-1.4,0.3-2.2
				c0-0.3,0.1-0.5,0.1-0.8c0.1-1,0.2-1.9,0.3-2.9l0,0c0.1-1,0.1-2,0.2-2.9v-0.8c0-0.7,0.1-1.5,0.1-2.2c0-0.3,0-0.5,0-0.8
				c0-0.8,0-1.6,0-2.4c0-0.2,0-0.3,0-0.5c-0.1-3-0.3-5.9-0.7-8.9v-0.2c-0.1-0.4-0.1-0.8-0.2-1.2l0,0c-3.7-25-18-44.6-36.7-47.3l0,0
				h-0.2h-0.1h-0.1h-0.2l0,0c-18.7-2.1-36,13.3-43.7,36.8l0,0c-0.1,0.4-0.2,0.8-0.4,1.2c0,0.1,0,0.1-0.1,0.2
				c-0.9,2.8-1.6,5.6-2.1,8.5l-0.1,0.5c-0.2,0.8-0.3,1.5-0.4,2.3c0,0.3-0.1,0.5-0.1,0.8c-0.1,0.7-0.2,1.4-0.3,2.2
				c0,0.3-0.1,0.5-0.1,0.8c-0.1,1-0.2,1.9-0.3,2.9l0,0c-0.1,1-0.1,2-0.2,2.9v0.8c0,0.7,0,1.5-0.1,2.2c0,0.3,0,0.5,0,0.8
				c0,0.8,0,1.6,0,2.4c0,0.2,0,0.4,0,0.5c0.1,3,0.3,5.9,0.7,8.9v0.2c0,0.4,0.1,0.8,0.2,1.2l0,0c3.7,25,18,44.6,36.7,47.3l0,0h0.2
				h0.1h0.1h0.2l0,0c18.7,2.1,36-13.3,43.7-36.8l0,0c0.1-0.4,0.2-0.8,0.4-1.2l0.1-0.2C190.7,224.3,191.4,221.4,192,218.6z
				 M146.5,252.6c-12.3-1.7-22.2-13.3-26.5-29.1c-0.2-0.8-0.4-1.6-0.6-2.5c0-0.2-0.1-0.3-0.1-0.5c-0.2-0.7-0.3-1.4-0.4-2.1
				c-0.1-0.4-0.1-0.7-0.2-1.1c-0.1-0.5-0.2-1.1-0.3-1.6c-0.1-0.4-0.1-0.8-0.2-1.1c-0.1-0.6-0.1-1.2-0.2-1.8c0-0.3-0.1-0.6-0.1-1
				c-0.1-0.9-0.1-1.8-0.2-2.7c0-0.3,0-0.6,0-0.9c0-0.7,0-1.3,0-2v-1c0-0.6,0-1.3,0-2v-1c0-1,0.1-1.9,0.2-2.9v-0.1
				c0.1-1,0.2-1.9,0.3-2.9c0-0.3,0.1-0.6,0.1-1c0.1-0.6,0.2-1.3,0.3-1.9c0.1-0.4,0.1-0.7,0.2-1.1c0.1-0.6,0.2-1.3,0.4-1.9l0.2-0.9
				c0.2-0.9,0.4-1.7,0.6-2.6c0.1-0.3,0.2-0.6,0.3-0.9c0.2-0.6,0.3-1.1,0.5-1.7c0.1-0.4,0.2-0.7,0.3-1.1s0.3-1,0.5-1.5
				c0.1-0.3,0.2-0.7,0.4-1c0.3-0.7,0.5-1.3,0.8-2l0.2-0.5c0.3-0.8,0.7-1.5,1-2.3c6.8-14.3,18.4-23.2,30.7-21.6s22.2,13.3,26.5,29.1
				c0.2,0.8,0.4,1.6,0.6,2.5c0,0.2,0.1,0.3,0.1,0.5c0.2,0.7,0.3,1.4,0.4,2.1c0.1,0.4,0.1,0.7,0.2,1.1c0.1,0.5,0.2,1.1,0.3,1.6
				c0.1,0.4,0.1,0.8,0.2,1.1c0.1,0.6,0.1,1.2,0.2,1.8c0,0.3,0.1,0.6,0.1,1c0.1,0.9,0.1,1.8,0.2,2.7c0,0.3,0,0.6,0,0.9
				c0,0.6,0,1.3,0,2v1.1c0,0.6,0,1.3,0,2v1c0,1-0.1,1.9-0.2,2.9v0.1c-0.1,1-0.2,1.9-0.3,2.9c0,0.3-0.1,0.6-0.1,0.9
				c-0.1,0.6-0.2,1.3-0.3,1.9c-0.1,0.4-0.1,0.7-0.2,1.1c-0.1,0.6-0.2,1.3-0.4,1.9l-0.2,0.9c-0.2,0.9-0.4,1.7-0.6,2.6
				c-0.1,0.3-0.2,0.6-0.2,0.9c-0.2,0.6-0.3,1.1-0.5,1.7c-0.1,0.4-0.2,0.7-0.4,1.1c-0.2,0.5-0.3,1-0.5,1.5c-0.1,0.3-0.2,0.7-0.4,1
				c-0.2,0.7-0.5,1.3-0.8,2c-0.1,0.2-0.1,0.3-0.2,0.5c-0.3,0.8-0.7,1.5-1,2.3C170.3,245.2,158.7,254.1,146.5,252.6L146.5,252.6z"/>
		</g>
	</g>
	<path class="st2" d="M264.1,479.2c-6.6,19.9-23.3,36-43,45.5c-14.7,7-30.9,10.7-47.4,12h-29c-16.4-1.3-32.7-5-47.3-12
		c-19.7-9.5-36.4-25.6-43-45.5c-7-21.2-9.1-43.1-4.5-63.7c6.5,2,12.5,5.8,17.8,10.1c7.1,5.8,13.3,12.6,20.4,18.5
		c11.7,9.7,26,16.6,41,18.8s30.9-0.4,44.1-8.1c9.9-5.9,18-14.4,27.1-21.5c19.3-14.8,43-22.7,67.2-22.5
		C273.4,432.7,271.6,456.4,264.1,479.2z"/>
	<path class="st5" d="M309.4,454.7c0-32.2-11.8-60.1-28.8-73.1v-7.8h-21.8c-27.8,0.1-50.2,36.3-50.2,80.9s22.6,80.9,50.4,80.9
		c0.6,0,1.1,0,1.7-0.1l19.9,0.1v-7.8C297.6,514.8,309.4,487,309.4,454.7z"/>
	<ellipse class="st6" cx="280.6" cy="454.7" rx="50.4" ry="80.9"/>
	<ellipse class="st7" cx="280.6" cy="454.7" rx="31.6" ry="50.7"/>
</g>
<g id="r-arm">
	<path class="st0" d="M247.8,219.8c1.5,21.1,7,41.7,16,60.8c9.2,19.4,22.4,36.7,38.7,50.7l0,0c2.9,2.5,3.2,6.8,0.7,9.7
		c-2.3,2.6-6.1,3.1-9,1.2c-19.7-13.5-36.4-31-48.9-51.4c-12.8-20.6-21.5-43.4-25.9-67.3v-0.1c-1.6-7.8,3.4-15.4,11.1-17
		s15.4,3.4,17,11.1c0,0.2,0.1,0.4,0.1,0.6C247.6,218.7,247.7,219.2,247.8,219.8z"/>
</g>
<g id="r-hand">
	<circle class="st1" cx="305.4" cy="377.6" r="6.8"/>
	<path class="st1" d="M313.6,360.7c0.3,5.7-1.5,11.4-4.9,16l-6.1,0.6c3.1-7.8,3.5-14.2,1.7-21.1L313.6,360.7z"/>
	<circle class="st0" cx="294.1" cy="372.1" r="8"/>
	<path class="st0" d="M307.9,355.1c-1.2,6.6-4.7,12.6-9.9,16.9l-7.2-0.9c5.6-8,7.7-15.2,7.5-23.5L307.9,355.1z"/>
	<path class="st0" d="M321.1,363.7c2.5,6,3.9,13.6,1.9,20.3l-6.5,3.1c0.4-9.8-1.7-17-6.3-23.9L321.1,363.7z"/>
	<path class="st0" d="M318.3,367.2c5.8-4.7,7.8-18.4-0.1-27.8s-21.5-10.2-27.2-5.4c-5.9,4.8,3.3,8.8,11.1,18.2
		S312.4,372.1,318.3,367.2z"/>
	<circle class="st0" cx="319.7" cy="386.2" r="8"/>
</g>
<g id="head">
	<path class="st0" d="M146.1,62.7c8.6,13,25.6,16.6,40.2,14.6S214.6,69,229.2,67s31.6,1.6,40.2,14.6c9.5,14.3,4.8,34.2-4.9,47.6
		c-11.9,16.4-30.1,26.6-49.2,31.7s-39.1,9.8-59,9.9L146.1,62.7z"/>
	<path class="st10" d="M270.1,62.1c-10.2-9.7-27.5-7.2-40.8-2.8c-8.6,2.9-17.2,6.4-26.2,6.8c-11,0.6-11.7-2.5-14.5-11.3
		c-5.1-16.1-11.4-32.3-22.8-44.7c-5-5.4-11.9-10.1-19-10.2c-7,0.7-13.7,6-18.4,11.6c-10.4,12.5-16,28-20.4,43
		c-2.4,8.2-3,10.9-12.2,10.2c-7.2-0.6-14.1-3.9-20.6-6.5c-9.8-3.9-22-6.1-28.8,1.8c-6.5,7.5-4.3,19.9-0.5,29.6
		c10.1,26.1,29,49.8,53.9,64.6c14.4,8.5,30.4,14,47,16c17.4,1.7,35-0.4,51.5-6.2c31.4-11.1,57.6-35.3,72.5-65.6
		C276.6,86.8,280.1,71.7,270.1,62.1z"/>
	<path class="st7" d="M124.7,58.5c12.9-3.8,15.9-6.9,19.5-21c3.7,14.1,6.7,17.2,20.3,21.2c-13.6,3.8-16.6,7-20.3,21
		C140.5,65.6,137.6,62.5,124.7,58.5z"/>
	<path class="st7" d="M173.4,80.5c0-3.1-2.3-5.6-5.4-5.8c-3,0-5.4,2.4-5.4,5.3c0,0.1,0,0.1,0,0.2c0,3,2.3,5.6,5.4,5.8
		c2.9,0,5.4-2.3,5.4-5.3C173.4,80.7,173.4,80.6,173.4,80.5z"/>
	<path class="st7" d="M116.6,76.9c-0.1-2.8,2-5.1,4.8-5.2c0,0,0.1,0,0.1,0c2.9,0.2,5.1,2.6,5,5.5c0.1,2.8-2,5.1-4.8,5.2
		c-0.1,0-0.1,0-0.2,0C118.6,82.2,116.5,79.8,116.6,76.9z"/>
	<path class="st11" d="M114.6,108.4c0,7-4.8,12.3-10.7,12s-10.5-6.2-10.5-13.1s4.7-12.2,10.5-12c0.4,0,0.8,0.1,1.2,0.1
		c5,0.8,8.9,5.7,9.5,11.6C114.6,107.4,114.6,107.9,114.6,108.4z"/>
	<path class="st3" d="M114.6,107c-0.5,4.9-4.1,8.5-8.4,8.2c-4.6-0.3-8.4-4.9-8.4-10.4c0-5,3.2-9,7.3-9.5
		C110,96.2,114,101.1,114.6,107z"/>
	<path d="M109.7,105.5c0,2.3-1.6,4.1-3.6,4s-3.6-2.1-3.6-4.4s1.6-4.1,3.6-4S109.7,103.2,109.7,105.5z"/>
	<path class="st1" d="M93.4,107.2c-0.5-3.2,0.2-6.5,2.2-9.1c1-1.4,2.3-2.4,3.8-3.2c1.6-0.7,3.3-1,5-0.9c1.7,0.2,3.3,0.8,4.8,1.7
		c1.4,0.9,2.6,2.1,3.5,3.5c1.7,2.7,2.4,5.9,1.9,9.1c-0.5-2.9-1.7-5.7-3.5-8c-1.7-2.2-4.2-3.6-6.9-3.9c-2.7-0.2-5.4,0.8-7.2,2.9
		C95.1,101.6,93.8,104.3,93.4,107.2z"/>
	<path class="st1" d="M95.5,100.1c-1.8-0.3-3.3-1.5-4.1-3.2c-0.7-1.5-0.6-3.3,0.2-4.7c-0.4,1.4-0.1,3,0.8,4.2c0.8,1.1,2,1.7,3.3,1.6
		c0.6-0.1,1.1,0.4,1.2,1c0,0.6-0.4,1.1-1,1.2C95.8,100.2,95.7,100.2,95.5,100.1L95.5,100.1z"/>
	<path class="st1" d="M93.3,103.8c-1.9-0.5-3.6-1.6-4.6-3.3c-0.5-0.8-0.8-1.6-0.9-2.6c-0.1-0.9,0.1-1.8,0.6-2.6
		c-0.4,1.6,0.1,3.3,1.3,4.4c1.1,1,2.5,1.6,4,1.7c0.7,0,1.2,0.5,1.2,1.2c0,0.7-0.5,1.2-1.2,1.2c0,0,0,0,0,0
		C93.5,104,93.4,104,93.3,103.8L93.3,103.8z"/>
	<path class="st11" d="M179.9,111.9c0,7.4,5.5,13.8,12.4,14.3s12.6-5.3,12.6-12.9s-5.7-14-12.6-14.3c-0.5,0-0.9,0-1.4,0
		c-5.8,0.4-10.3,5.2-10.9,11.4C179.9,110.9,179.9,111.4,179.9,111.9z"/>
	<path class="st3" d="M180,110.4c0.6,5.3,4.7,9.6,9.7,9.9c5.5,0.3,9.9-4.2,9.9-10.2c0-5.5-3.8-10.2-8.7-11.1
		C185.1,99.5,180.6,104.2,180,110.4z"/>
	<path d="M185.5,109.4c-0.1,2.4,1.7,4.5,4.1,4.7c2.3,0,4.1-1.7,4.2-4c0-0.1,0-0.2,0-0.3c0.1-2.4-1.8-4.5-4.2-4.7
		c-2.3,0-4.1,1.8-4.1,4C185.5,109.2,185.5,109.3,185.5,109.4z"/>
	<path class="st1" d="M204.9,113.3c-0.5-3.3-1.9-6.4-4.1-8.8c-2.1-2.4-5-3.8-8.1-4.1c-3.1-0.3-6.2,0.8-8.4,3
		c-2.4,2.3-3.9,5.4-4.3,8.7c-0.5-3.6,0.5-7.2,2.9-10c1.2-1.4,2.8-2.5,4.5-3.3c1.8-0.7,3.7-1,5.6-0.8c1.9,0.2,3.7,0.8,5.3,1.7
		C203,102.4,205.6,107.8,204.9,113.3L204.9,113.3z"/>
	<path class="st1" d="M202.2,102.9c1.5,0.2,3-0.3,4.1-1.4c1.1-1.3,1.4-3.1,0.9-4.7c1,1.6,1,3.7,0,5.3c-1.1,1.8-2.9,2.9-5,3l0,0
		c-0.6,0-1.1-0.4-1.2-1c0-0.6,0.4-1.1,1-1.2L202.2,102.9z"/>
	<path class="st1" d="M204.9,107c1.7,0.2,3.5-0.3,4.9-1.4c0.7-0.6,1.2-1.3,1.5-2.2c0.3-0.9,0.3-1.9,0-2.8c0.5,0.9,0.7,1.9,0.6,2.9
		c-0.1,1.1-0.6,2.1-1.3,2.9c-1.4,1.7-3.5,2.8-5.7,3l0,0c-0.7,0.1-1.2-0.4-1.3-1.1c0-0.6,0.4-1.2,1-1.3L204.9,107z"/>
	<path class="st0" d="M132.8,131.7c0.7-0.1,1.4,0,2,0.3c0.6,0.2,1.2,0.6,1.7,1c0.5,0.4,0.9,1,1.2,1.6c0.3,0.6,0.4,1.4,0.3,2.1
		c-0.6-0.4-1.1-0.7-1.6-1c-0.5-0.3-0.9-0.6-1.3-1c-0.4-0.4-0.8-0.8-1.2-1.2C133.4,132.9,133,132.3,132.8,131.7z"/>
	<path class="st0" d="M151.4,133.1c-0.3,0.5-0.7,1-1.2,1.5c-0.4,0.4-0.8,0.7-1.2,1c-0.4,0.3-0.9,0.6-1.3,0.8l-1.6,0.8
		c-0.2-0.7,0-1.4,0.3-2c0.3-0.6,0.8-1,1.3-1.4c0.5-0.4,1.1-0.6,1.7-0.8C150.1,132.9,150.8,132.9,151.4,133.1z"/>
	<path class="st0" d="M178.2,142.7c-3-0.4-6.1,0-8.9,1.1c-2.9,1-5.6,2.4-8.4,3.6c-2.9,1.2-6,2.1-9.1,2.5c-3.1,0.4-6.3,0.4-9.4,0.1
		c-3.1-0.2-6.2-0.8-9.3-1.6c-3-0.9-5.9-2.1-8.7-3.8c-2.7-1.6-5.2-3.4-7.8-4.9c-2.6-1.7-5.5-2.6-8.6-2.7c3.1-0.5,6.3,0.5,9.1,1.8
		s5.4,3,8.1,4.4c5.4,2.8,11.3,4.4,17.3,4.7c6,0.7,12.1,0,17.7-2c2.9-1,5.7-2.3,8.7-3.1C172,141.9,175.2,141.9,178.2,142.7z"/>
</g>
<path id="sleeve" class="st4" d="M217.8,232.7c0,0,6.6-19.7,41.8-23.7l3-22.2l-37.2,6.8l-14.5,16.2L217.8,232.7z"/>
</svg>
