<?xml version="1.0" encoding="utf-8"?>
<!-- Generator: Adobe Illustrator 25.2.0, SVG Export Plug-In . SVG Version: 6.00 Build 0)  -->
<svg version="1.1" id="Layer_1" xmlns="http://www.w3.org/2000/svg" xmlns:xlink="http://www.w3.org/1999/xlink" x="0px" y="0px"
	 viewBox="0 0 385.1 538.4" style="enable-background:new 0 0 385.1 538.4;" xml:space="preserve">
<style type="text/css">
	.st0{fill:#534741;}
	.st1{fill:#38302C;}
	.st2{fill:#2D9B02;}
	.st3{fill:#268202;}
	.st4{fill:#4AFF03;}
	.st5{clip-path:url(#SVGID_2_);}
	.st6{fill:#D8FF03;}
	.st7{fill:#D99D36;}
	.st8{fill:#006837;}
	.st9{fill:#736357;}
	.st10{fill:#FFFFFF;}
	.st11{clip-path:url(#SVGID_4_);}
</style>
<g id="b-arm">
	<path class="st0" d="M151.4,230.8c-12.6-2.4-24.9-6.2-36.7-11.4c-11.4-5.1-22.4-11.1-32.8-18c-20.5-13.4-38.6-28.7-57.8-41.7l0,0
		c-3.1-2.1-3.9-6.2-1.9-9.3c1.9-2.9,5.8-3.9,8.8-2.2c21.3,11.4,41,24.8,61.4,35.3c9.9,5.2,20.3,9.6,30.9,13.1
		c10.4,3.3,21,5.5,31.9,6.4c7.8,0.5,13.7,7.2,13.1,15c-0.5,7.8-7.2,13.7-15,13.1c-0.2,0-0.4,0-0.6,0
		C152.4,231,151.9,231,151.4,230.8L151.4,230.8z"/>
</g>
<g id="b-hand">
	<circle class="st1" cx="13.5" cy="118.2" r="6.7"/>
	<path class="st1" d="M29.6,127.2c-3-4.8-7.6-8.4-13-10.2l-5.3,3c6.9,4.6,10.8,9.5,13.2,16.1L29.6,127.2z"/>
	<circle class="st0" cx="7.8" cy="128.2" r="7.8"/>
	<path class="st0" d="M28.5,134.2c-4.7-4.7-10.9-7.5-17.4-8.2l-5.3,4.8c9.1,3.3,14.8,8,19.3,14.8L28.5,134.2z"/>
	<path class="st0" d="M32.2,117.7c-1.3-6.2-4.5-13.2-9.9-17.4l-7,1.2c5.9,7.7,8.2,14.7,8.4,22.8L32.2,117.7z"/>
	<path class="st0" d="M27.9,116.5C35.2,117,44.5,127,43.5,139s-11.6,20.4-19,19.7s-2.2-8.9-1.3-20.9S20.4,115.8,27.9,116.5z"/>
	<circle class="st0" cx="20" cy="98.4" r="7.8"/>
</g>
<g id="body">
	<path class="st2" d="M263.4,438.5c-0.5-9.6-2.5-19.1-5.9-28c-3.2-8.2-7.5-16-12.9-22.9c-21.7-28.2-47.1-57.2-48.5-91.6l0,0v-70.3
		h-84.9V296l0,0c-1.3,34.4-26.7,63.4-48.5,91.6c-6.6,8.5-11.7,18.1-14.9,28.4c-4.3,14.3-5.3,29.3-3,44c0.1,1,0.3,1.9,0.5,2.9
		s0.3,1.9,0.5,2.9s0.4,1.9,0.6,2.8s0.4,1.7,0.6,2.5c0.1,0.5,0.2,1,0.4,1.5s0.3,1,0.4,1.6c0.1,0.3,0.1,0.5,0.2,0.8
		c0.1,0.6,0.3,1.1,0.5,1.7s0.3,1,0.4,1.5c0.2,0.7,0.5,1.5,0.7,2.2c0.3,1,0.6,1.9,0.9,2.8c6.5,18.9,22.9,34.2,42.3,43.2
		c11.8,5.3,24.4,8.8,37.3,10.4c1.3,0.2,2.6,0.3,3.9,0.5c1.9,0.2,3.9,0.4,5.9,0.5c1.3,0.1,2.6,0.2,3.9,0.2s2.6,0.1,3.9,0.2l3.9,0.1
		h0.1h1.8h2l3.9-0.1c1.3,0,2.6-0.1,3.9-0.2s2.6-0.2,3.9-0.2c2-0.2,3.9-0.3,5.9-0.5c1.3-0.1,2.6-0.3,3.9-0.5c6.2-0.8,12.4-2,18.4-3.6
		c6.5-1.7,12.8-4,18.9-6.8c19.4-9,35.8-24.3,42.3-43.2c0.3-0.9,0.6-1.8,0.9-2.7c0.1-0.5,0.3-1,0.5-1.5c0.3-1,0.6-2,0.9-2.9l0.1-0.2
		c0.2-0.8,0.4-1.6,0.6-2.4s0.4-1.6,0.6-2.4s0.3-1.4,0.5-2.1s0.3-1.2,0.4-1.8s0.2-1.1,0.3-1.7l0.1-0.5l0.3-1.5l0.3-1.8
		c0.1-0.6,0.2-1.2,0.3-1.8s0.1-1,0.2-1.5c0-0.3,0.1-0.6,0.1-1s0.1-0.7,0.1-1.1c0.1-0.5,0.1-1.1,0.2-1.6c0-0.1,0-0.1,0-0.2
		C263.7,449.3,263.8,443.9,263.4,438.5z"/>
	<path class="st3" d="M263.1,454.6c0,0.1,0,0.1,0,0.2c0,0.5-0.1,1.1-0.2,1.6c0,0.4-0.1,0.7-0.1,1.1s-0.1,0.6-0.1,1
		c-0.1,0.5-0.1,1-0.2,1.5s-0.2,1.2-0.3,1.8l-0.3,1.8l-0.3,1.5l-0.1,0.5c-0.1,0.5-0.2,1.1-0.3,1.7s-0.2,1.2-0.4,1.8s-0.3,1.4-0.5,2.1
		s-0.4,1.6-0.6,2.4s-0.4,1.6-0.6,2.4l-0.1,0.2c-0.3,1-0.6,2-0.9,2.9c-0.1,0.5-0.3,1-0.5,1.5c-0.3,0.9-0.6,1.8-0.9,2.7
		c-6.5,18.9-22.9,34.2-42.3,43.2c-6.1,2.8-12.4,5.1-18.9,6.8c-6.1,1.6-12.2,2.8-18.4,3.6c-1.3,0.2-2.6,0.3-3.9,0.5
		c-2,0.2-3.9,0.4-5.9,0.5c-1.3,0.1-2.6,0.2-3.9,0.2s-2.6,0.1-3.9,0.2l-3.9,0.1h-2h-1.8h-0.1l-3.9-0.1c-1.3,0-2.6-0.1-3.9-0.2
		s-2.6-0.2-3.9-0.2c-2-0.2-3.9-0.3-5.9-0.5c-1.3-0.1-2.6-0.3-3.9-0.5c-12.9-1.6-25.4-5.1-37.3-10.4c-19.4-9-35.8-24.3-42.3-43.2
		c-0.3-1-0.6-1.9-0.9-2.8c-0.2-0.7-0.5-1.5-0.7-2.2c-0.2-0.5-0.3-1-0.4-1.5s-0.3-1.1-0.4-1.7c-0.1-0.3-0.1-0.5-0.2-0.8
		c-0.2-0.5-0.3-1-0.4-1.6s-0.2-1-0.4-1.5c-0.2-0.9-0.4-1.7-0.6-2.5s-0.4-1.9-0.6-2.8s-0.4-1.9-0.5-2.9s-0.3-1.9-0.5-2.9
		c12.9-3.3,25.3-8.4,36.8-15.1c19.8-11.8,36.6-29.2,60-33.4c18-3.2,36.7,2.2,52.9,10c13.6,6.6,26.2,14.9,39.6,21.7
		c2.5,1.3,4.9,2.5,7.5,3.6C248.6,450,255.8,452.6,263.1,454.6z"/>
	<path class="st4" d="M198.4,249.5c-5.9,9.3-20.5,21.8-29.3,33.6c-24.7,33.1-36.3,56.6-55.5,57.9c-34.2,2.3-22.4-75.7-14.4-107.5
		c9.5-38,42.1-49.4,75.8-39.5l0.6,0.2C203.9,204.8,214.4,224.2,198.4,249.5z"/>
	<path class="st0" d="M116.8,218.1v-75.4c0-1.1,0.9-1.9,1.9-1.9c0,0,0.1,0,0.1,0c6.6,0.6,12.3,4.5,12.8,9.1c0,0,4.4,33.6,6.8,51.9
		c0.9,7.1-2.1,14.1-7.9,18.2l-4.2,3c-2.7,2-6.4,1.4-8.4-1.3C117.2,220.7,116.8,219.4,116.8,218.1z"/>
	<g>
		<defs>
			<path id="SVGID_1_" d="M199.3,263.5c-17.7,28.1-56.9,75.5-85.6,77.5c-34.2,2.3-22.4-75.7-14.4-107.5c9.5-38,42.1-49.4,75.8-39.5
				l0.6,0.2C203.9,204.8,215.3,238.2,199.3,263.5z"/>
		</defs>
		<clipPath id="SVGID_2_">
			<use xlink:href="#SVGID_1_"  style="overflow:visible;"/>
		</clipPath>
		<g class="st5">
			<path class="st6" d="M151.6,250.5l0.3-0.4c0.4-0.6,0.9-1.3,1.3-1.9l0.4-0.7c0.4-0.6,0.8-1.2,1.1-1.8c0.1-0.2,0.3-0.4,0.4-0.7
				c0.5-0.8,1-1.7,1.4-2.5l0,0c0.5-0.9,0.9-1.7,1.3-2.6c0.1-0.2,0.2-0.5,0.3-0.7c0.3-0.7,0.6-1.3,0.9-2l0.3-0.7
				c0.3-0.7,0.6-1.4,0.9-2.2l0.2-0.5c1-2.7,1.8-5.6,2.5-8.4c0-0.1,0-0.2,0.1-0.2l0.3-1.2l0,0c4.9-24.5-4.6-49.1-25.4-60.2l0,0
				l-0.3-0.1l-0.1-0.1l-0.1-0.1l-0.3-0.1l0,0c-21.1-10.6-47-4.5-64.7,13.3l0,0c-0.3,0.3-0.6,0.6-0.8,0.9l-0.2,0.2
				c-2,2.1-3.9,4.4-5.6,6.8l-0.3,0.4c-0.4,0.6-0.9,1.3-1.3,1.9l-0.4,0.7c-0.4,0.6-0.8,1.2-1.2,1.8l-0.4,0.7c-0.5,0.8-1,1.7-1.4,2.5
				l0,0c-0.5,0.9-0.9,1.7-1.3,2.6c-0.1,0.2-0.2,0.5-0.3,0.7c-0.3,0.7-0.6,1.3-0.9,2l-0.3,0.7c-0.3,0.7-0.6,1.4-0.9,2.2
				c-0.1,0.2-0.1,0.3-0.2,0.5c-1,2.7-1.9,5.6-2.5,8.4c0,0.1,0,0.2,0,0.2c-0.1,0.4-0.2,0.8-0.3,1.2l0,0c-5,24.5,4.6,49.1,25.4,60.3
				l0,0l0.3,0.1l0.1,0.1l0.1,0.1l0.3,0.1l0,0c21.1,10.6,47,4.5,64.7-13.3l0,0c0.3-0.3,0.6-0.6,0.9-0.9c0.1-0.1,0.1-0.1,0.2-0.2
				C148,255.1,149.9,252.8,151.6,250.5z M85.7,260.3c-13.8-7.2-21-22.5-20.2-38.9c0-0.9,0.1-1.7,0.2-2.6l0.1-0.5
				c0.1-0.7,0.2-1.4,0.3-2.2c0.1-0.4,0.1-0.7,0.2-1.1c0.1-0.5,0.2-1.1,0.3-1.6s0.2-0.8,0.2-1.1c0.1-0.6,0.3-1.1,0.4-1.7
				c0.1-0.3,0.2-0.6,0.2-0.9c0.2-0.8,0.5-1.7,0.8-2.5l0.3-0.9c0.2-0.6,0.4-1.2,0.7-1.8l0.4-1c0.2-0.6,0.5-1.2,0.8-1.8l0.4-0.9
				c0.4-0.9,0.8-1.7,1.3-2.5l0,0v-0.1c0.5-0.8,0.9-1.7,1.4-2.5l0.5-0.8c0.3-0.6,0.7-1.1,1.1-1.6c0.2-0.3,0.4-0.6,0.6-0.9
				c0.4-0.5,0.8-1.1,1.1-1.6l0.5-0.7c0.6-0.7,1.1-1.4,1.7-2.1c0.2-0.2,0.4-0.5,0.6-0.7l1.2-1.3l0.8-0.8l1.2-1.1l0.8-0.8
				c0.5-0.5,1.1-1,1.7-1.4l0.4-0.3c0.7-0.6,1.3-1.1,2-1.6c13.3-9.9,30.1-12.6,43.9-5.5s21,22.5,20.2,38.9c0,0.9-0.1,1.7-0.2,2.6
				l-0.1,0.5c-0.1,0.7-0.2,1.4-0.3,2.2c-0.1,0.4-0.1,0.7-0.2,1.1c-0.1,0.5-0.2,1.1-0.3,1.6c-0.1,0.4-0.1,0.8-0.2,1.1
				c-0.1,0.6-0.3,1.1-0.4,1.7c-0.1,0.3-0.1,0.6-0.2,0.9c-0.2,0.8-0.5,1.7-0.8,2.5l-0.3,0.9c-0.2,0.6-0.4,1.2-0.7,1.8l-0.4,1
				c-0.2,0.6-0.5,1.2-0.8,1.8l-0.4,0.9c-0.4,0.9-0.8,1.7-1.3,2.5l0,0l0,0c-0.4,0.9-0.9,1.7-1.4,2.5c-0.2,0.3-0.3,0.5-0.5,0.8
				c-0.3,0.6-0.7,1.1-1,1.6l-0.6,0.9c-0.4,0.5-0.7,1-1.1,1.6l-0.5,0.7c-0.6,0.7-1.1,1.4-1.7,2.1l-0.6,0.7l-1.2,1.3l-0.8,0.8
				l-1.2,1.1l-0.8,0.8c-0.5,0.5-1.1,1-1.6,1.4l-0.4,0.3c-0.7,0.6-1.4,1.1-2,1.6C116.4,264.8,99.6,267.4,85.7,260.3z"/>
		</g>
	</g>
	<path class="st7" d="M144.5,208.6c0-14.3,9.9-25.9,22.2-25.9s22.2,11.6,22.2,25.9c0,9.7-10.1,26.3-16.7,36c-2.2,3-6.4,3.7-9.5,1.5
		c-0.6-0.4-1.1-0.9-1.5-1.5C154.6,234.8,144.5,218.2,144.5,208.6z"/>
	<path class="st3" d="M385.1,518.2c0,0.4,0,0.7-0.1,1.1c-0.8,5.9-7.4,8.1-12.7,8.9c-54.4,8.2-78.3-4.5-176.7,5
		c-13.2,1.3-27.7,3-43.8,5.2l95.2-71.4l16.1-12.1l0.3-0.2c34.1,15.1,25.2,32.2,43.6,38.7c8.3,2.9,17.8,0.7,25.7,4.9
		c5.3,2.8,9.2,8.1,14.7,10.4c8.7,3.6,18.4-1.4,27.6-0.1C379.7,509.1,385.1,513,385.1,518.2z"/>
	<circle class="st8" cx="155.2" cy="458.1" r="80.3"/>
	<circle class="st6" cx="155.2" cy="458.1" r="50.4"/>
	<path class="st2" d="M263.4,442.6c0,7,3.7,13.5,9.7,17c22.8,13.7,17.5,27.9,33.9,33.7c8.3,2.9,17.8,0.7,25.7,4.9
		c5.3,2.8,9.2,8.1,14.7,10.4c8.7,3.6,18.4-1.4,27.6-0.1c4.9,0.7,10.2,4.5,10.2,9.8c-68,0.4-106.1-19.7-126.9-39.2l0,0
		c-4-3.7-7.8-7.8-11.1-12.1c-10.2-13.1-12.9-23.6-12.9-23.6l6.4-12.9l22.9,8.2L263.4,442.6z"/>
</g>
<g id="head">
	<path class="st9" d="M80.5,152c0,0-4,5.9,4.4,6.2s2.3-17.5,2.3-17.5l-11.4,1.8c0,0-4.1,6.3,3.5,7.5"/>
	<path class="st0" d="M124.7,64.2c7.6,13.9,24.9,18.7,40.1,17.6s29.9-6.6,45.2-7.8s32.5,3.7,40.1,17.6c8.4,15.3,1.6,35.3-9.6,48.4
		c-13.9,16-33.7,25.2-53.9,29.3s-41.3,7.5-61.9,6.3L124.7,64.2z"/>
	<path class="st9" d="M126.8,5c34.3,33.8,9.8,78,60.9,49.8c32.8-17,47.1,9.6,36.9,36.8c-25.3,61.7-52.6,82.1-100.6,84
		c-49.1,1.9-79.1-61-25.4-164.7C104.1-0.7,118-3.7,126.8,5z"/>
	<path class="st10" d="M86.5,113.4c0.4,6.6,5.5,11.7,11.2,11.4s10.1-6,9.7-12.6s-5.4-11.8-11.2-11.4c-0.4,0-0.8,0.1-1.2,0.1
		c-4.8,0.9-8.4,5.6-8.5,11.2C86.5,112.5,86.5,113,86.5,113.4z"/>
	<path class="st2" d="M86.5,112.1c0.7,4.7,3.9,8.1,7.4,7.9c3.8-0.2,6.7-4.7,6.4-9.9c-0.3-4.8-3.2-8.7-6.7-9.1
		C89.5,101.9,86.6,106.5,86.5,112.1z"/>
	<ellipse transform="matrix(0.9974 -7.184561e-02 7.184561e-02 0.9974 -7.7487 6.8185)" cx="90.9" cy="111.1" rx="2.9" ry="4"/>
	<path class="st1" d="M107.4,112.2c-0.6-2.8-2-5.3-4-7.4c-1.9-1.9-4.4-2.9-7.1-2.8c-2.6,0.2-5.1,1.5-6.7,3.6c-1.8,2.3-2.8,5-3.1,7.8
		c-0.7-3.1-0.2-6.3,1.4-8.9c0.9-1.4,2-2.6,3.4-3.4c1.4-0.9,3.1-1.4,4.7-1.5c1.7-0.1,3.3,0.3,4.9,1c1.5,0.7,2.8,1.7,3.8,3
		C106.8,106,107.7,109.1,107.4,112.2z"/>
	<path class="st1" d="M104.6,103.3c1.3,0,2.5-0.6,3.3-1.6c0.8-1.2,1-2.7,0.5-4.1c0.9,1.4,1,3.1,0.4,4.6c-0.7,1.6-2.2,2.8-4,3.1h-0.1
		c-0.6,0.1-1.1-0.3-1.2-0.8c-0.1-0.6,0.3-1.1,0.8-1.2C104.4,103.3,104.5,103.3,104.6,103.3z"/>
	<path class="st1" d="M107,106.8c1.5,0,2.9-0.7,4-1.8c1.1-1.2,1.5-2.9,0.9-4.4c0.5,0.7,0.7,1.6,0.7,2.4c0,0.9-0.3,1.8-0.8,2.5
		c-1,1.6-2.6,2.7-4.5,3.1l0,0c-0.5,0.2-1.1-0.1-1.3-0.6c0-0.1,0-0.1,0-0.2c-0.1-0.5,0.2-1.1,0.7-1.2c0,0,0,0,0,0
		C106.8,106.8,106.9,106.8,107,106.8z"/>
	<path class="st0" d="M82.2,132.8c-0.3,0.6-0.7,1.2-1.2,1.8c-0.4,0.5-0.9,0.9-1.3,1.3c-0.5,0.4-0.9,0.8-1.4,1.1l-1.7,1.1
		c-0.2-0.8-0.1-1.6,0.3-2.3c0.3-0.7,0.8-1.3,1.4-1.7c0.6-0.5,1.2-0.8,1.9-1.1C80.7,132.8,81.4,132.7,82.2,132.8z"/>
	<g>
		<defs>
			<path id="SVGID_3_" d="M126.8,5c34.3,33.8,9.8,78,60.9,49.8c32.8-17,47.1,9.6,36.9,36.8c-25.3,61.7-52.6,82.1-100.6,84
				c-49.1,1.9-79.1-61-25.4-164.7C104.1-0.7,118-3.7,126.8,5z"/>
		</defs>
		<clipPath id="SVGID_4_">
			<use xlink:href="#SVGID_3_"  style="overflow:visible;"/>
		</clipPath>
		<g class="st11">
			<path class="st6" d="M100.6,57.2C86,56.9,82.1,59,74.4,70.8l11.9-38.6C86,46.1,88.2,49.8,100.6,57.2z"/>
			<ellipse class="st6" cx="91.9" cy="77.4" rx="5.5" ry="5.2"/>
			<path class="st0" d="M112.5,139.3c-3.5,0-7,1-10,2.7c-3.1,1.6-6,3.6-9.2,5.4c-3.1,1.8-6.5,3.2-10,4.1c-3.5,0.9-7.1,1.4-10.8,1.6
				c-3.6,0.3-7.2,0.2-10.8-0.3c-3.6-0.5-7.1-1.5-10.4-2.9c-3.3-1.4-6.4-3-9.7-4.2c-3.2-1.4-6.8-1.9-10.3-1.6c3.4-1,7.2-0.6,10.6,0.4
				s6.7,2.4,10,3.6c6.6,2.3,13.5,3.2,20.5,2.6c3.5-0.1,6.9-0.6,10.3-1.4c3.4-0.8,6.6-2,9.7-3.5c3.1-1.6,6.2-3.4,9.5-4.8
				S108.9,138.6,112.5,139.3z"/>
		</g>
	</g>
	<path class="st6" d="M86.3,37.4c0,0-12,14.5-10.7,31.7L86.3,37.4z"/>
</g>
<g id="f-arm">
	<path class="st0" d="M182.3,208.8c7.6,9.9,14.7,20.2,21.3,30.9c6.7,10.9,12.3,22.3,16.8,34.3c4.4,12,7.4,24.5,8.9,37.3
		c1.4,12.5,1.5,25.1,0.4,37.6c-0.3,3.7-3.6,6.4-7.3,6.1c-3.4-0.3-6-3.1-6.1-6.5v-0.1c-0.2-11.5-1.5-23-3.9-34.3
		c-2.4-11-6.2-21.8-11.1-31.9c-5.1-10.1-11.1-19.8-18-28.8c-7.1-9.2-14.6-18-22.5-26.4c-5.3-5.7-5-14.6,0.7-19.9
		c5.7-5.3,14.6-5,19.9,0.7C181.7,208.1,182,208.5,182.3,208.8L182.3,208.8z"/>
</g>
<g id="f-hand">
	<circle class="st0" cx="209.4" cy="397.9" r="7.8"/>
	<path class="st0" d="M203.8,361.6c0.4,4.8,2.2,9.3,4.1,13.7c1.3,3,3,6.5,6.3,7.1c2.8,0.6,5.5-1.2,7.6-3c3.8-3.2,7.2-6.9,10-10.9
		c6.4-9.2,2.7-21.3-8.7-24.6C211.9,340.8,202.9,351.2,203.8,361.6z"/>
	<path class="st0" d="M223.8,377.6l-8.4-2.2l-8.4-2.1c0,0,4.1,10.9,0.6,20.5l2.8,0.7l2.8,0.7C214.9,385.2,223.8,377.6,223.8,377.6z"
		/>
	<circle class="st0" cx="190.6" cy="377.1" r="7.8"/>
	<path class="st0" d="M204.5,356.5l5,7.1l4.9,7.1c0,0-11.7,0-19.4,6.6l-1.7-2.4l-1.7-2.4C200.6,367.5,204.5,356.5,204.5,356.5z"/>
	<circle class="st0" cx="235.6" cy="388.7" r="7.8"/>
	<path class="st0" d="M233.3,364l-7.8,3.8l-7.8,3.8c0,0,10.2,5.6,13.8,15.2l2.6-1.3l2.6-1.3C231.5,375.5,233.3,364,233.3,364z"/>
</g>
</svg>
