<?xml version="1.0" encoding="utf-8"?>
<!-- Generator: Adobe Illustrator 25.2.0, SVG Export Plug-In . SVG Version: 6.00 Build 0)  -->
<svg version="1.1" id="Layer_1" xmlns="http://www.w3.org/2000/svg" xmlns:xlink="http://www.w3.org/1999/xlink" x="0px" y="0px"
	 viewBox="0 0 405.7 538.4" style="enable-background:new 0 0 405.7 538.4;" xml:space="preserve">
<style type="text/css">
	.st0{fill:#534741;}
	.st1{fill:#38302C;}
	.st2{fill:#2D9B02;}
	.st3{fill:#268202;}
	.st4{fill:#4AFF03;}
	.st5{clip-path:url(#SVGID_2_);}
	.st6{fill:#D8FF03;}
	.st7{fill:#D99D36;}
	.st8{fill:#006837;}
	.st9{fill:#736357;}
	.st10{fill:#FFFFFF;}
	.st11{clip-path:url(#SVGID_4_);}
</style>
<g id="b-arm">
	<path class="st0" d="M204.6,222c-10.1,6.9-20.4,13.9-31.4,20.2c-11.1,6.6-22.8,12-35,16.2c-12.3,4.1-25.2,6.5-38.2,7.1
		c-12.7,0.5-25.4-0.5-37.9-2.8c-3.7-0.6-6.1-4.1-5.5-7.8c0.6-3.4,3.7-5.8,7.1-5.6h0.1c11.5,1,23.1,0.7,34.5-0.9
		c11.1-1.6,22-4.8,32.2-9.4c10.3-4.8,20.2-10.6,29.3-17.4c9.4-6.8,18.5-14.3,27.6-22l0,0c5.9-5,14.8-4.3,19.9,1.6
		c5,5.9,4.3,14.8-1.6,19.9l0,0C205.4,221.5,205,221.8,204.6,222z"/>
</g>
<g id="b-arm-2">
	<circle class="st1" cx="28.4" cy="275" r="6.7"/>
	<path class="st1" d="M34.8,257.7c-4.3,3.7-7.1,8.8-8,14.4l3.7,4.8c3.4-7.5,7.8-12.1,13.8-15.5L34.8,257.7z"/>
	
		<ellipse transform="matrix(1.612273e-02 -0.9999 0.9999 1.612273e-02 -240.5741 313.6754)" class="st0" cx="39.1" cy="279.1" rx="7.8" ry="7.8"/>
	<path class="st0" d="M41.8,257.7c-3.9,5.4-5.8,11.9-5.3,18.5l5.5,4.5c1.9-9.5,5.6-15.8,11.6-21.4L41.8,257.7z"/>
	<path class="st0" d="M25,256.6c-5.9,2.3-12.3,6.5-15.7,12.5l2.2,6.7c6.7-7,13.2-10.4,21.3-11.8L25,256.6z"/>
	<path class="st0" d="M24.4,261c-0.6-7.3,7.8-18,19.8-18.9s21.9,8.4,22.4,15.7c0.5,7.4-8.5,3.6-20.5,4.5S25,268.5,24.4,261z"/>
	<circle class="st0" cx="7.8" cy="271.6" r="7.8"/>
</g>
<g id="body">
	<path class="st2" d="M284,438.5c-0.5-9.6-2.5-19.1-5.9-28c-3.2-8.2-7.5-16-12.9-22.9c-21.7-28.2-47.1-57.2-48.4-91.6l0,0v-70.4
		h-84.9V296l0,0c-1.3,34.4-26.7,63.4-48.5,91.6c-6.6,8.5-11.7,18.1-14.9,28.4c-4.3,14.3-5.3,29.3-3,44c0.1,1,0.3,1.9,0.5,2.9
		s0.3,1.9,0.5,2.9s0.4,1.9,0.6,2.8s0.4,1.7,0.6,2.5c0.1,0.5,0.2,1,0.4,1.5s0.3,1,0.4,1.6c0.1,0.3,0.1,0.5,0.2,0.8
		c0.1,0.6,0.3,1.1,0.5,1.7s0.3,1,0.4,1.5c0.2,0.7,0.4,1.5,0.7,2.2c0.3,1,0.6,1.9,0.9,2.8c6.5,18.9,22.9,34.2,42.3,43.2
		c11.8,5.3,24.4,8.8,37.3,10.4c1.3,0.2,2.6,0.3,3.9,0.5c1.9,0.2,3.9,0.4,5.9,0.5c1.3,0.1,2.6,0.2,3.9,0.2s2.6,0.1,3.9,0.2l3.9,0.1
		h0.1h1.8h2l3.9-0.1c1.3,0,2.6-0.1,3.9-0.2s2.6-0.2,3.9-0.2c2-0.2,3.9-0.3,5.9-0.5c1.3-0.1,2.6-0.3,3.9-0.5c6.2-0.8,12.4-2,18.4-3.6
		c6.4-1.7,12.7-4,18.8-6.8c19.4-9,35.8-24.3,42.3-43.2c0.3-0.9,0.6-1.8,0.9-2.7c0.1-0.5,0.3-1,0.5-1.5c0.3-1,0.6-2,0.9-2.9l0.1-0.2
		c0.2-0.8,0.4-1.6,0.6-2.4s0.4-1.6,0.6-2.4s0.3-1.4,0.5-2.1s0.3-1.2,0.4-1.8s0.2-1.1,0.3-1.7l0.1-0.5l0.3-1.5l0.3-1.8
		c0.1-0.6,0.2-1.2,0.3-1.8s0.1-1,0.2-1.5c0-0.3,0.1-0.6,0.1-1s0.1-0.7,0.1-1.1c0.1-0.5,0.1-1.1,0.2-1.6c0-0.1,0-0.1,0-0.2
		C284.2,449.3,284.3,443.9,284,438.5z"/>
	<path class="st3" d="M283.7,454.6c0,0.1,0,0.1,0,0.2c0,0.5-0.1,1.1-0.2,1.6c0,0.4-0.1,0.7-0.1,1.1s-0.1,0.6-0.1,1
		c-0.1,0.5-0.1,1-0.2,1.5s-0.2,1.2-0.3,1.8l-0.3,1.8l-0.3,1.4l-0.1,0.5c-0.1,0.5-0.2,1.1-0.3,1.7s-0.2,1.2-0.4,1.8s-0.3,1.4-0.5,2.1
		s-0.4,1.6-0.6,2.4s-0.4,1.6-0.6,2.4l-0.1,0.2c-0.3,1-0.6,2-0.9,2.9c-0.1,0.5-0.3,1-0.5,1.5c-0.3,0.9-0.6,1.8-0.9,2.7
		c-6.5,18.9-22.9,34.2-42.3,43.2c-6.1,2.8-12.4,5.1-18.9,6.8c-6.1,1.6-12.2,2.8-18.4,3.6c-1.3,0.2-2.6,0.3-3.9,0.5
		c-2,0.2-3.9,0.4-5.9,0.5c-1.3,0.1-2.6,0.2-3.9,0.2s-2.6,0.1-3.9,0.2l-3.9,0.1h-2h-1.8h-0.1l-3.9-0.1c-1.3,0-2.6-0.1-3.9-0.2
		s-2.6-0.2-3.9-0.2c-2-0.2-3.9-0.3-5.9-0.5c-1.3-0.1-2.6-0.3-3.9-0.5c-12.9-1.6-25.4-5.1-37.3-10.4c-19.4-9-35.8-24.3-42.3-43.2
		c-0.3-1-0.6-1.9-0.9-2.8c-0.2-0.7-0.5-1.5-0.7-2.2c-0.2-0.5-0.3-1-0.4-1.5s-0.3-1.1-0.5-1.7c-0.1-0.3-0.2-0.5-0.2-0.8
		c-0.2-0.5-0.3-1-0.4-1.6s-0.2-1-0.4-1.5c-0.2-0.9-0.4-1.7-0.6-2.5s-0.4-1.9-0.6-2.8s-0.4-1.9-0.5-2.9s-0.3-1.9-0.5-2.9
		c12.9-3.3,25.3-8.4,36.8-15.1c19.8-11.8,36.6-29.2,60.1-33.4c18-3.2,36.7,2.2,52.9,10c13.6,6.6,26.2,14.9,39.6,21.7
		c2.5,1.3,5,2.5,7.5,3.6C269.2,450,276.3,452.6,283.7,454.6z"/>
	<path class="st4" d="M219,249.5c-5.9,9.3-20.5,21.8-29.3,33.6c-24.7,33.1-36.3,56.6-55.5,57.9c-34.2,2.3-22.4-75.7-14.4-107.5
		c9.5-38,42.1-49.4,75.8-39.5l0.6,0.2C224.5,204.8,235,224.2,219,249.5z"/>
	<path class="st0" d="M137.4,218.1v-75.4c0-1.1,0.9-1.9,1.9-1.9c0,0,0.1,0,0.1,0c6.6,0.6,12.3,4.5,12.8,9.1c0,0,4.4,33.6,6.8,51.9
		c0.9,7.1-2.1,14.1-7.9,18.2l-4.1,3c-2.7,2-6.4,1.4-8.4-1.2C137.8,220.7,137.4,219.4,137.4,218.1z"/>
	<g>
		<defs>
			<path id="SVGID_1_" d="M219.9,263.5c-17.7,28.1-56.9,75.5-85.6,77.5c-34.2,2.3-22.4-75.7-14.4-107.5c9.5-38,42.1-49.4,75.8-39.5
				l0.6,0.2C224.5,204.8,235.9,238.2,219.9,263.5z"/>
		</defs>
		<clipPath id="SVGID_2_">
			<use xlink:href="#SVGID_1_"  style="overflow:visible;"/>
		</clipPath>
		<g class="st5">
			<path class="st6" d="M172.2,250.5l0.3-0.4c0.4-0.6,0.9-1.3,1.3-1.9l0.4-0.7c0.4-0.6,0.8-1.2,1.1-1.8l0.4-0.7
				c0.5-0.8,1-1.7,1.4-2.5l0,0c0.5-0.9,0.9-1.7,1.3-2.6l0.3-0.7c0.3-0.7,0.6-1.3,0.9-2c0.1-0.2,0.2-0.5,0.3-0.7
				c0.3-0.7,0.6-1.4,0.9-2.2l0.2-0.5c1-2.7,1.8-5.6,2.5-8.4l0.1-0.2c0.1-0.4,0.2-0.8,0.3-1.2l0,0c5-24.5-4.6-49.1-25.4-60.2l0,0
				l-0.3-0.1l-0.1-0.1l-0.1-0.1l-0.3-0.1l0,0c-21.1-10.6-47-4.5-64.7,13.3l0,0c-0.3,0.3-0.6,0.6-0.8,0.9l-0.2,0.2
				c-2,2.1-3.9,4.4-5.6,6.8l-0.3,0.4c-0.5,0.6-0.9,1.3-1.3,1.9l-0.4,0.7c-0.4,0.6-0.8,1.2-1.2,1.8l-0.4,0.7c-0.5,0.8-1,1.7-1.4,2.5
				l0,0c-0.5,0.9-0.9,1.7-1.3,2.6c-0.1,0.2-0.2,0.5-0.3,0.7c-0.3,0.7-0.6,1.3-0.9,2l-0.3,0.7c-0.3,0.7-0.6,1.4-0.9,2.2l-0.2,0.5
				c-1,2.7-1.8,5.6-2.5,8.4c0,0.1,0,0.2,0,0.2c-0.1,0.4-0.2,0.8-0.3,1.2l0,0c-5,24.5,4.6,49.1,25.4,60.3l0,0l0.3,0.1l0.1,0.1
				l0.1,0.1l0.3,0.1l0,0c21.1,10.6,47,4.5,64.7-13.3l0,0c0.3-0.3,0.6-0.6,0.9-0.9c0.1-0.1,0.1-0.1,0.2-0.2
				C168.6,255.1,170.5,252.8,172.2,250.5z M106.3,260.3c-13.8-7.2-21-22.5-20.2-38.9c0-0.9,0.1-1.7,0.2-2.6l0.1-0.5
				c0.1-0.7,0.2-1.4,0.3-2.2l0.2-1.1c0.1-0.5,0.2-1.1,0.3-1.6s0.2-0.8,0.2-1.1c0.1-0.6,0.3-1.1,0.4-1.7c0.1-0.3,0.2-0.6,0.2-0.9
				c0.2-0.8,0.5-1.7,0.8-2.5c0.1-0.3,0.2-0.6,0.3-0.9c0.2-0.6,0.4-1.2,0.7-1.8c0.1-0.3,0.3-0.7,0.4-1c0.2-0.6,0.5-1.2,0.8-1.8
				c0.1-0.3,0.2-0.6,0.4-0.9c0.4-0.9,0.8-1.7,1.3-2.5l0,0v-0.1c0.4-0.8,0.9-1.7,1.4-2.5l0.5-0.8c0.3-0.6,0.7-1.1,1-1.6
				c0.2-0.3,0.4-0.6,0.6-0.9c0.4-0.5,0.8-1.1,1.1-1.6l0.5-0.7c0.6-0.7,1.1-1.4,1.7-2.1c0.2-0.2,0.4-0.5,0.6-0.7
				c0.4-0.4,0.8-0.9,1.2-1.3l0.8-0.8l1.2-1.1l0.8-0.8c0.5-0.5,1.1-1,1.6-1.4l0.4-0.3c0.7-0.6,1.3-1.1,2-1.6
				c13.3-9.9,30.1-12.6,43.9-5.5s21,22.5,20.2,38.9c0,0.9-0.1,1.7-0.2,2.6l-0.1,0.5c-0.1,0.7-0.2,1.4-0.3,2.2
				c-0.1,0.4-0.1,0.7-0.2,1.1c-0.1,0.5-0.2,1.1-0.3,1.6l-0.2,1.1c-0.1,0.6-0.3,1.1-0.4,1.7c-0.1,0.3-0.1,0.6-0.2,0.9
				c-0.2,0.8-0.5,1.7-0.8,2.5c-0.1,0.3-0.2,0.6-0.3,0.9c-0.2,0.6-0.4,1.2-0.7,1.8l-0.4,1c-0.2,0.6-0.5,1.2-0.8,1.8l-0.4,0.9
				c-0.4,0.9-0.8,1.7-1.3,2.5l0,0l0,0c-0.4,0.9-0.9,1.7-1.4,2.5c-0.2,0.3-0.3,0.5-0.5,0.8c-0.3,0.6-0.7,1.1-1.1,1.6l-0.6,0.9
				c-0.4,0.5-0.8,1-1.1,1.6l-0.5,0.7c-0.6,0.7-1.1,1.4-1.7,2.1l-0.6,0.7l-1.2,1.3l-0.8,0.8c-0.4,0.4-0.8,0.8-1.2,1.1l-0.8,0.8
				c-0.5,0.5-1.1,1-1.6,1.4l-0.4,0.3c-0.7,0.6-1.4,1.1-2,1.6C137,264.8,120.1,267.4,106.3,260.3z"/>
		</g>
	</g>
	<path class="st7" d="M165.1,208.6c0-14.3,9.9-25.9,22.2-25.9s22.2,11.6,22.2,25.9c0,9.7-10.1,26.3-16.7,36c-2.2,3-6.4,3.7-9.5,1.5
		c-0.6-0.4-1.1-0.9-1.5-1.5C175.2,234.8,165.1,218.2,165.1,208.6z"/>
	<path class="st3" d="M405.7,518.2c0,0.4,0,0.7-0.1,1.1c-0.8,5.9-7.4,8.1-12.7,8.9c-54.4,8.2-78.3-4.5-176.7,5
		c-13.2,1.3-27.7,3-43.8,5.2l95.2-71.5l16.1-12.1l0.3-0.2c34.1,15.1,25.2,32.2,43.6,38.7c8.3,2.9,17.8,0.7,25.7,4.9
		c5.3,2.8,9.2,8.1,14.7,10.4c8.7,3.6,18.4-1.4,27.6-0.1C400.3,509.1,405.6,513,405.7,518.2z"/>
	<circle class="st8" cx="175.8" cy="458.1" r="80.3"/>
	<circle class="st6" cx="175.8" cy="458.1" r="50.4"/>
	<path class="st2" d="M284,442.6c0,7,3.7,13.5,9.7,17c22.8,13.7,17.5,27.9,33.9,33.7c8.3,2.9,17.8,0.7,25.7,4.9
		c5.3,2.8,9.2,8.1,14.7,10.4c8.7,3.6,18.4-1.4,27.6-0.1c4.9,0.7,10.2,4.5,10.2,9.8c-68,0.4-106.1-19.7-127-39.2l0,0
		c-4-3.7-7.7-7.8-11.1-12.1c-10.2-13.1-12.9-23.6-12.9-23.6l6.4-12.9l22.9,8.2L284,442.6z"/>
</g>
<g id="head">
	<path class="st9" d="M101.1,152c0,0-4,5.9,4.4,6.2s2.3-17.5,2.3-17.5l-11.4,1.8c0,0-4.1,6.3,3.5,7.5"/>
	<path class="st0" d="M145.3,64.2c7.6,13.9,24.9,18.7,40.1,17.6s29.9-6.6,45.2-7.7s32.5,3.7,40.1,17.6c8.4,15.3,1.7,35.3-9.6,48.4
		c-13.9,16-33.7,25.2-53.9,29.3s-41.3,7.5-61.9,6.3L145.3,64.2z"/>
	<path class="st9" d="M147.4,5c34.3,33.8,9.8,78,60.9,49.8c32.8-17,47.1,9.6,36.9,36.8c-25.3,61.7-52.6,82.1-100.6,84
		c-49.1,1.9-79.1-61-25.4-164.7C124.6-0.7,138.6-3.7,147.4,5z"/>
	<path class="st10" d="M107.1,113.4c0.4,6.6,5.5,11.7,11.2,11.4s10.1-6,9.7-12.6s-5.5-11.8-11.2-11.4c-0.4,0-0.8,0.1-1.2,0.1
		c-4.8,0.9-8.4,5.6-8.5,11.2C107.1,112.5,107.1,113,107.1,113.4z"/>
	<path class="st2" d="M107.1,112.1c0.7,4.7,3.9,8.1,7.4,7.9c3.8-0.2,6.7-4.7,6.4-9.9c-0.3-4.8-3.2-8.7-6.7-9.1
		C110.1,101.9,107.2,106.5,107.1,112.1z"/>
	<ellipse transform="matrix(0.9974 -7.184561e-02 7.184561e-02 0.9974 -7.6955 8.2976)" cx="111.5" cy="111.1" rx="2.9" ry="4"/>
	<path class="st1" d="M128,112.2c-0.6-2.8-2-5.3-4-7.4c-1.9-1.9-4.4-2.9-7.1-2.8c-2.6,0.2-5.1,1.5-6.7,3.6c-1.8,2.3-2.8,5-3.1,7.8
		c-0.7-3.1-0.2-6.3,1.5-8.9c0.9-1.4,2-2.6,3.4-3.4c2.9-1.8,6.5-2,9.6-0.5c1.5,0.7,2.8,1.7,3.8,3C127.4,106,128.3,109.1,128,112.2z"
		/>
	<path class="st1" d="M125.2,103.3c1.3,0,2.5-0.6,3.3-1.6c0.8-1.2,1-2.7,0.5-4.1c0.9,1.4,1,3.1,0.4,4.6c-0.7,1.6-2.2,2.8-3.9,3.1
		h-0.1c-0.6,0.1-1.1-0.3-1.2-0.8c-0.1-0.6,0.3-1.1,0.8-1.2C125,103.3,125.1,103.3,125.2,103.3z"/>
	<path class="st1" d="M127.6,106.8c1.5,0,2.9-0.7,4-1.8c1.1-1.2,1.5-2.9,0.9-4.4c0.5,0.7,0.7,1.6,0.7,2.4c0,0.9-0.3,1.8-0.8,2.5
		c-1,1.6-2.6,2.7-4.5,3.1l0,0c-0.6,0.1-1.1-0.2-1.2-0.8s0.2-1.1,0.8-1.2C127.5,106.8,127.5,106.8,127.6,106.8z"/>
	<path class="st0" d="M102.8,132.8c-0.3,0.6-0.7,1.2-1.2,1.8c-0.4,0.5-0.9,0.9-1.3,1.3c-0.5,0.4-0.9,0.8-1.4,1.1l-1.7,1.1
		c-0.2-0.8-0.1-1.6,0.3-2.3c0.3-0.7,0.8-1.3,1.4-1.7c0.5-0.5,1.2-0.8,1.8-1.1C101.3,132.8,102,132.7,102.8,132.8z"/>
	<g>
		<defs>
			<path id="SVGID_3_" d="M147.4,5c34.3,33.8,9.8,78,60.9,49.8c32.8-17,47.1,9.6,36.9,36.8c-25.3,61.7-52.6,82.1-100.6,84
				c-49.1,1.9-79.1-61-25.4-164.7C124.6-0.7,138.6-3.7,147.4,5z"/>
		</defs>
		<clipPath id="SVGID_4_">
			<use xlink:href="#SVGID_3_"  style="overflow:visible;"/>
		</clipPath>
		<g class="st11">
			<path class="st6" d="M121.2,57.2C106.6,56.9,102.6,59,95,70.8l11.9-38.6C106.6,46.1,108.8,49.8,121.2,57.2z"/>
			<ellipse class="st6" cx="112.5" cy="77.4" rx="5.5" ry="5.2"/>
			<path class="st0" d="M133.1,139.3c-3.5,0-7,0.9-10.1,2.7c-3.1,1.6-6,3.6-9.2,5.4c-3.1,1.8-6.5,3.2-10,4.1
				c-3.5,0.9-7.1,1.4-10.7,1.6c-3.6,0.3-7.2,0.2-10.8-0.3c-3.6-0.5-7.1-1.5-10.4-2.9c-3.3-1.4-6.4-3-9.7-4.2
				c-3.2-1.4-6.8-1.9-10.3-1.6c3.4-1,7.2-0.6,10.6,0.4s6.7,2.4,10,3.6c6.6,2.3,13.5,3.2,20.5,2.6c3.5-0.1,6.9-0.6,10.3-1.4
				c3.4-0.8,6.6-2,9.7-3.5c3.1-1.6,6.2-3.4,9.5-4.8S129.5,138.6,133.1,139.3z"/>
		</g>
	</g>
	<path class="st6" d="M106.9,37.4c0,0-12,14.5-10.7,31.7L106.9,37.4z"/>
</g>
<g id="f-hand">
	<circle class="st1" cx="58.9" cy="333.7" r="6.7"/>
	<path class="st1" d="M74.4,343.6c-5.7-0.4-11-2.7-15.1-6.6l0.1-6.1c7.3,3.9,13.5,5,20.4,4L74.4,343.6z"/>
	<circle class="st0" cx="65" cy="324" r="7.8"/>
	<path class="st0" d="M80,339.3c-6.3-1.9-11.8-6-15.4-11.5l1.7-6.9c7.2,6.4,14,9.2,22.2,10L80,339.3z"/>
	<path class="st0" d="M67.3,350.4c-6.1,1.8-13.7,2.3-20-0.4l-2.3-6.7c9.5,1.5,16.8,0.2,24.1-3.5L67.3,350.4z"/>
	<path class="st0" d="M64.2,347.2c4,6.2,17.1,9.6,27.2,3s12.4-19.9,8.3-26.1c-4-6.3-8.9,2.3-19.1,8.8S60.1,340.9,64.2,347.2z"/>
	<circle class="st0" cx="44.5" cy="348.8" r="7.8"/>
</g>
<g id="f-arm">
	<path class="st0" d="M199,224.7c-4.9,11.5-10.4,22.8-16.5,33.7c-6.2,11.2-13.4,21.8-21.6,31.5c-8.3,9.8-17.7,18.5-28.1,26
		c-10.2,7.3-21.1,13.6-32.6,18.8c-3.4,1.5-7.4,0-8.9-3.4c-1.4-3.1-0.2-6.7,2.6-8.5h0.1c10-5.8,19.4-12.6,28-20.2
		c8.4-7.5,15.9-16,22.4-25.4c6.3-9.4,11.8-19.4,16.2-29.8c4.6-10.7,8.6-21.5,12-32.6c2.2-7.5,10-11.8,17.5-9.6
		c7.5,2.2,11.8,10,9.6,17.5c-0.1,0.2-0.1,0.4-0.2,0.6C199.4,223.9,199.2,224.3,199,224.7L199,224.7z"/>
</g>
</svg>
