<?xml version="1.0" encoding="utf-8"?>
<!-- Generator: Adobe Illustrator 25.2.0, SVG Export Plug-In . SVG Version: 6.00 Build 0)  -->
<svg version="1.1" id="Layer_1" xmlns="http://www.w3.org/2000/svg" xmlns:xlink="http://www.w3.org/1999/xlink" x="0px" y="0px"
	 viewBox="0 0 410 538.4" style="enable-background:new 0 0 410 538.4;" xml:space="preserve">
<style type="text/css">
	.st0{fill:#534741;}
	.st1{fill:#38302C;}
	.st2{fill:#2D9B02;}
	.st3{fill:#268202;}
	.st4{fill:#4AFF03;}
	.st5{clip-path:url(#SVGID_2_);}
	.st6{fill:#D8FF03;}
	.st7{fill:#D99D36;}
	.st8{fill:#006837;}
	.st9{fill:#736357;}
	.st10{fill:#FFFFFF;}
	.st11{clip-path:url(#SVGID_4_);}
</style>
<g id="b-arm">
	<path class="st0" d="M202.2,216.8c-9.1,7.8-17.8,17-27,26.4c-4.6,4.7-9.3,9.4-14.4,14.1c-5.1,4.8-10.6,9.2-16.4,13.1
		c-6.1,4.2-12.7,7.5-19.7,9.9c-7.1,2.4-14.6,3.6-22.1,3.4c-7.2-0.2-14.4-1.4-21.3-3.6c-6.6-2.1-13-4.8-19.1-8.1
		c-3.3-1.7-4.7-5.7-3-9c1.6-3.2,5.3-4.6,8.6-3.2l0.2,0.1c5.6,2.3,11.3,4.1,17.2,5.5c5.6,1.2,11.3,1.7,17,1.3
		c11.1-0.8,21-5.6,29.9-12.9s16.9-16.8,24.9-26.7s16.2-20.4,25.8-30.5l0.1-0.1c5.4-5.6,14.3-5.8,19.9-0.4s5.8,14.3,0.4,19.9
		C202.9,216.2,202.6,216.5,202.2,216.8z"/>
</g>
<g id="b-hand">
	<circle class="st1" cx="24.6" cy="257.8" r="6.7"/>
	<path class="st1" d="M36.1,272.2C30.9,270,26.6,266,24,261l2-5.7c5.6,6.1,11.2,9.1,18,10.5L36.1,272.2z"/>
	<circle class="st0" cx="33.6" cy="250.6" r="7.8"/>
	<path class="st0" d="M42.8,270c-5.3-3.9-9.2-9.5-10.8-15.9l3.8-6c4.8,8.4,10.3,13.3,17.7,16.7L42.8,270z"/>
	<circle class="st0" cx="7.8" cy="265.4" r="7.8"/>
	<path class="st0" d="M27.2,276.2c-6.4-0.3-13.7-2.4-18.8-7v-7.1c8.5,4.5,15.8,5.7,23.9,4.6L27.2,276.2z"/>
	<path class="st0" d="M25.3,272.2C27,279.4,38.3,287,50,284s18.2-14.8,16.4-21.9s-9.2-0.8-20.9,2.1S23.4,265,25.3,272.2z"/>
</g>
<g id="body">
	<path class="st2" d="M288.4,438.5c-0.5-9.6-2.5-19.1-5.9-28c-3.2-8.2-7.5-16-12.9-22.9c-21.7-28.2-47.1-57.2-48.5-91.6l0,0v-70.4
		h-84.9V296l0,0c-1.3,34.4-26.7,63.4-48.5,91.6C81,396.1,76,405.7,72.8,416c-4.3,14.3-5.3,29.3-3,44c0.1,1,0.3,1.9,0.5,2.9
		s0.3,1.9,0.5,2.9s0.4,1.9,0.6,2.8s0.4,1.7,0.6,2.5c0.1,0.5,0.2,1,0.4,1.5s0.3,1,0.4,1.6c0.1,0.3,0.1,0.5,0.2,0.8
		c0.1,0.6,0.3,1.1,0.5,1.7s0.3,1,0.4,1.5c0.2,0.7,0.4,1.5,0.7,2.2c0.3,1,0.6,1.9,0.9,2.8c6.5,18.9,22.9,34.2,42.3,43.2
		c11.8,5.3,24.4,8.8,37.2,10.4c1.3,0.2,2.6,0.3,3.9,0.5c1.9,0.2,3.9,0.4,5.9,0.5c1.3,0.1,2.6,0.2,3.9,0.2s2.6,0.1,3.9,0.2l3.9,0.1
		h0.1h1.8h2l3.9-0.1c1.3,0,2.6-0.1,3.9-0.2s2.6-0.2,3.9-0.2c2-0.2,3.9-0.3,5.9-0.5c1.3-0.1,2.6-0.3,3.9-0.5c6.2-0.8,12.4-2,18.4-3.6
		c6.5-1.7,12.8-4,18.9-6.8c19.4-9,35.8-24.3,42.3-43.2c0.3-0.9,0.6-1.8,0.9-2.7c0.1-0.5,0.3-1,0.5-1.5c0.3-1,0.6-2,0.9-2.9l0.1-0.2
		c0.2-0.8,0.4-1.6,0.6-2.4s0.4-1.6,0.6-2.4s0.3-1.4,0.5-2.1s0.3-1.2,0.4-1.8s0.2-1.1,0.3-1.7l0.1-0.5l0.3-1.5l0.3-1.8
		c0.1-0.6,0.2-1.2,0.3-1.8s0.1-1,0.2-1.5c0-0.3,0.1-0.6,0.1-1s0.1-0.7,0.1-1.1c0.1-0.5,0.1-1.1,0.2-1.6c0-0.1,0-0.1,0-0.2
		C288.6,449.3,288.7,443.9,288.4,438.5z"/>
	<path class="st3" d="M288,454.6c0,0.1,0,0.1,0,0.2c0,0.5-0.1,1.1-0.2,1.6c0,0.4-0.1,0.7-0.1,1.1s-0.1,0.6-0.1,1
		c-0.1,0.5-0.1,1-0.2,1.5s-0.2,1.2-0.3,1.8l-0.3,1.8l-0.3,1.5l-0.1,0.5c-0.1,0.5-0.2,1.1-0.3,1.7s-0.2,1.2-0.4,1.8s-0.3,1.4-0.5,2.1
		s-0.4,1.6-0.6,2.4s-0.4,1.6-0.6,2.4l-0.1,0.2c-0.3,1-0.6,2-0.9,2.9c-0.1,0.5-0.3,1-0.5,1.5c-0.3,0.9-0.6,1.8-0.9,2.7
		c-6.5,18.9-22.9,34.2-42.3,43.2c-6.1,2.8-12.4,5.1-18.9,6.8c-6.1,1.6-12.2,2.8-18.4,3.6c-1.3,0.2-2.6,0.3-3.9,0.5
		c-2,0.2-3.9,0.4-5.9,0.5c-1.3,0.1-2.6,0.2-3.9,0.2s-2.6,0.1-3.9,0.2l-3.9,0.1h-2h-1.8h-0.1l-3.9-0.1c-1.3,0-2.6-0.1-3.9-0.2
		s-2.6-0.2-3.9-0.2c-2-0.2-3.9-0.3-5.9-0.5c-1.3-0.1-2.6-0.3-3.9-0.5c-12.9-1.6-25.5-5.1-37.3-10.4c-19.4-9-35.8-24.3-42.3-43.2
		c-0.3-1-0.6-1.9-0.9-2.8c-0.2-0.7-0.5-1.5-0.7-2.2c-0.2-0.5-0.3-1-0.4-1.5s-0.3-1.1-0.5-1.7c-0.1-0.3-0.2-0.5-0.2-0.8
		c-0.2-0.5-0.3-1-0.4-1.6s-0.2-1-0.4-1.5c-0.2-0.9-0.4-1.7-0.6-2.5s-0.4-1.9-0.6-2.8s-0.4-1.9-0.5-2.9s-0.3-1.9-0.5-2.9
		c12.9-3.3,25.3-8.4,36.8-15.1c19.8-11.8,36.6-29.2,60.1-33.4c18-3.2,36.7,2.2,52.9,10c13.6,6.6,26.2,14.9,39.6,21.7
		c2.5,1.3,5,2.5,7.5,3.6C273.4,450,280.6,452.6,288,454.6z"/>
	<path class="st4" d="M223.4,249.5c-5.9,9.3-20.5,21.8-29.3,33.6c-24.7,33.1-36.3,56.6-55.5,57.9c-34.2,2.3-22.4-75.7-14.4-107.5
		c9.5-38,42.1-49.4,75.8-39.5l0.6,0.2C228.8,204.8,239.4,224.2,223.4,249.5z"/>
	<path class="st0" d="M141.8,218.1v-75.4c0-1.1,0.9-1.9,1.9-1.9c0.1,0,0.1,0,0.2,0c6.6,0.6,12.3,4.5,12.8,9.1c0,0,4.4,33.6,6.8,51.9
		c0.9,7.1-2.1,14.1-7.9,18.2l-4.2,3c-2.7,2-6.4,1.4-8.4-1.3C142.1,220.7,141.7,219.4,141.8,218.1z"/>
	<g>
		<defs>
			<path id="SVGID_1_" d="M224.2,263.5c-17.7,28.1-56.9,75.5-85.6,77.5c-34.2,2.3-22.4-75.7-14.4-107.5c9.5-38,42.1-49.4,75.8-39.5
				l0.6,0.2C228.8,204.8,240.2,238.2,224.2,263.5z"/>
		</defs>
		<clipPath id="SVGID_2_">
			<use xlink:href="#SVGID_1_"  style="overflow:visible;"/>
		</clipPath>
		<g class="st5">
			<path class="st6" d="M176.5,250.5l0.3-0.4c0.4-0.6,0.9-1.3,1.3-1.9l0.4-0.7c0.4-0.6,0.8-1.2,1.1-1.8c0.1-0.2,0.3-0.4,0.4-0.7
				c0.5-0.8,1-1.7,1.4-2.5l0,0c0.5-0.9,0.9-1.7,1.3-2.6c0.1-0.2,0.2-0.5,0.3-0.7c0.3-0.7,0.6-1.3,0.9-2l0.3-0.7
				c0.3-0.7,0.6-1.4,0.9-2.2c0.1-0.2,0.1-0.3,0.2-0.5c1-2.7,1.8-5.6,2.5-8.4c0-0.1,0-0.2,0-0.2c0.1-0.4,0.2-0.8,0.3-1.2l0,0
				c5-24.5-4.6-49.1-25.4-60.2l0,0l-0.3-0.1l-0.1-0.1l-0.1-0.1l-0.3-0.1l0,0c-21.1-10.6-47-4.5-64.7,13.3l0,0
				c-0.3,0.3-0.6,0.6-0.8,0.9l-0.2,0.2c-2,2.1-3.9,4.4-5.6,6.8l-0.3,0.4c-0.4,0.6-0.9,1.3-1.3,1.9l-0.4,0.7
				c-0.4,0.6-0.8,1.2-1.2,1.8l-0.4,0.7c-0.5,0.8-1,1.7-1.4,2.5l0,0c-0.5,0.9-0.9,1.7-1.3,2.6c-0.1,0.2-0.2,0.5-0.3,0.7
				c-0.3,0.7-0.6,1.3-0.9,2l-0.3,0.7c-0.3,0.7-0.6,1.4-0.9,2.2l-0.2,0.5c-1,2.7-1.9,5.6-2.5,8.4c0,0.1,0,0.2,0,0.2l-0.3,1.2l0,0
				c-5,24.5,4.6,49.1,25.4,60.3l0,0l0.3,0.1l0.1,0.1l0.1,0.1l0.3,0.1l0,0c21.1,10.6,47,4.5,64.7-13.3l0,0c0.3-0.3,0.6-0.6,0.9-0.9
				l0.2-0.2C172.9,255.1,174.8,252.8,176.5,250.5z M110.6,260.3c-13.8-7.2-21-22.5-20.2-38.9c0-0.9,0.1-1.7,0.2-2.6l0.1-0.5
				c0.1-0.7,0.2-1.4,0.3-2.2c0-0.4,0.1-0.7,0.2-1.1c0.1-0.5,0.2-1.1,0.3-1.6s0.2-0.8,0.2-1.1c0.1-0.6,0.3-1.1,0.4-1.7
				c0.1-0.3,0.2-0.6,0.2-0.9c0.2-0.8,0.5-1.7,0.8-2.5l0.3-0.9c0.2-0.6,0.4-1.2,0.7-1.8l0.4-1c0.2-0.6,0.5-1.2,0.8-1.8l0.4-0.9
				c0.4-0.9,0.8-1.7,1.3-2.5l0,0v-0.1c0.4-0.8,0.9-1.7,1.4-2.5c0.2-0.3,0.3-0.5,0.5-0.8c0.3-0.6,0.7-1.1,1-1.6l0.6-0.9
				c0.4-0.5,0.8-1.1,1.1-1.6l0.5-0.7c0.6-0.7,1.1-1.4,1.7-2.1c0.2-0.2,0.4-0.5,0.6-0.7l1.2-1.3l0.8-0.8l1.2-1.1l0.8-0.8
				c0.5-0.5,1.1-1,1.7-1.4l0.4-0.3c0.7-0.6,1.3-1.1,2-1.6c13.3-9.9,30.1-12.6,43.9-5.5s21,22.5,20.2,38.9c0,0.9-0.1,1.7-0.2,2.6
				l-0.1,0.5c-0.1,0.7-0.2,1.4-0.3,2.2c0,0.4-0.1,0.7-0.2,1.1c-0.1,0.5-0.2,1.1-0.3,1.6c-0.1,0.4-0.1,0.8-0.2,1.1
				c-0.1,0.6-0.3,1.1-0.4,1.7c-0.1,0.3-0.1,0.6-0.2,0.9c-0.2,0.8-0.5,1.7-0.8,2.5l-0.3,0.9c-0.2,0.6-0.4,1.2-0.7,1.8l-0.4,1
				c-0.2,0.6-0.5,1.2-0.8,1.8l-0.4,0.9c-0.4,0.9-0.8,1.7-1.3,2.5l0,0l0,0c-0.4,0.9-0.9,1.7-1.4,2.5l-0.5,0.8
				c-0.3,0.6-0.7,1.1-1.1,1.6c-0.2,0.3-0.4,0.6-0.6,0.9c-0.4,0.5-0.8,1-1.1,1.6l-0.5,0.7c-0.6,0.7-1.1,1.4-1.7,2.1l-0.6,0.7
				l-1.2,1.3l-0.8,0.8l-1.2,1.1l-0.8,0.8c-0.5,0.5-1.1,1-1.6,1.4l-0.4,0.3c-0.7,0.6-1.4,1.1-2,1.6
				C141.3,264.8,124.5,267.4,110.6,260.3z"/>
		</g>
	</g>
	<path class="st7" d="M169.4,208.6c0-14.3,9.9-25.9,22.2-25.9s22.2,11.6,22.2,25.9c0,9.7-10.1,26.3-16.7,36c-2.2,3-6.4,3.7-9.5,1.5
		c-0.6-0.4-1.1-0.9-1.5-1.5C179.5,234.8,169.4,218.2,169.4,208.6z"/>
	<path class="st3" d="M410,518.2c0,0.4,0,0.7-0.1,1.1c-0.8,5.9-7.4,8.1-12.7,8.9c-54.4,8.2-78.3-4.5-176.7,5
		c-13.2,1.3-27.7,3-43.8,5.2l95.2-71.5l16.1-12l0.3-0.2c34.1,15.1,25.2,32.2,43.6,38.7c8.3,2.9,17.8,0.7,25.7,4.9
		c5.3,2.8,9.2,8.1,14.7,10.4c8.7,3.6,18.4-1.4,27.6-0.1C404.7,509.1,410,513,410,518.2z"/>
	<circle class="st8" cx="180.1" cy="458.1" r="80.3"/>
	<circle class="st6" cx="180.1" cy="458.1" r="50.4"/>
	<path class="st2" d="M288.4,442.6c0,7,3.7,13.5,9.6,17c22.8,13.7,17.5,27.9,33.9,33.7c8.3,2.9,17.8,0.7,25.7,4.9
		c5.3,2.8,9.2,8.1,14.7,10.4c8.7,3.6,18.4-1.4,27.6-0.1c4.9,0.7,10.2,4.5,10.2,9.8c-68,0.4-106-19.7-126.9-39.2l0,0
		c-4-3.7-7.7-7.8-11.1-12.1c-10.2-13.1-12.9-23.6-12.9-23.6l6.4-12.9l22.9,8.2L288.4,442.6z"/>
</g>
<g id="head">
	<path class="st9" d="M105.4,152c0,0-4,5.9,4.4,6.2s2.3-17.5,2.3-17.5l-11.4,1.8c0,0-4.1,6.3,3.5,7.5"/>
	<path class="st0" d="M149.7,64.2c7.6,13.9,24.9,18.7,40.1,17.6s29.9-6.6,45.2-7.8s32.5,3.7,40.1,17.6c8.4,15.3,1.6,35.3-9.6,48.4
		c-13.9,16-33.7,25.2-53.9,29.3s-41.3,7.5-61.9,6.3L149.7,64.2z"/>
	<path class="st9" d="M151.8,5c34.3,33.8,9.8,78,60.9,49.8c32.8-17,47.1,9.6,36.9,36.8c-25.2,61.7-52.6,82.1-100.6,84
		c-49.1,1.9-79.1-61-25.4-164.7C129-0.7,143-3.7,151.8,5z"/>
	<path class="st10" d="M111.4,113.4c0.4,6.6,5.5,11.7,11.2,11.4c5.8-0.3,10.1-6,9.7-12.6s-5.5-11.8-11.2-11.4
		c-0.4,0-0.8,0.1-1.2,0.1c-4.8,0.9-8.4,5.6-8.5,11.2C111.4,112.5,111.4,113,111.4,113.4z"/>
	<path class="st2" d="M111.4,112.1c0.7,4.7,3.9,8.1,7.4,7.9c3.9-0.2,6.7-4.7,6.4-9.9c-0.3-4.8-3.2-8.7-6.7-9.1
		C114.4,101.9,111.5,106.5,111.4,112.1z"/>
	<ellipse transform="matrix(0.9974 -7.184561e-02 7.184561e-02 0.9974 -7.6841 8.61)" cx="115.8" cy="111.1" rx="2.9" ry="4"/>
	<path class="st1" d="M132.4,112.2c-0.6-2.8-2-5.3-4.1-7.4c-1.9-1.9-4.4-2.9-7.1-2.8c-2.6,0.2-5.1,1.5-6.7,3.6
		c-1.8,2.3-2.8,5-3.1,7.8c-0.7-3.1-0.2-6.3,1.5-8.9c0.9-1.4,2-2.6,3.4-3.4c1.4-0.9,3-1.4,4.7-1.5c1.7-0.1,3.3,0.3,4.9,1
		c1.5,0.7,2.8,1.7,3.8,3C131.7,106,132.7,109.1,132.4,112.2z"/>
	<path class="st1" d="M129.5,103.3c1.3,0,2.5-0.6,3.3-1.6c0.8-1.2,1-2.7,0.5-4.1c0.9,1.4,1,3.1,0.4,4.6c-0.7,1.6-2.2,2.8-4,3.1h-0.1
		c-0.5,0.1-1.1-0.2-1.2-0.8c0,0,0,0,0,0c-0.1-0.5,0.2-1.1,0.8-1.2C129.3,103.3,129.3,103.3,129.5,103.3L129.5,103.3z"/>
	<path class="st1" d="M131.9,106.8c1.5,0,2.9-0.7,4-1.8c1.1-1.2,1.5-2.9,0.9-4.4c0.5,0.7,0.7,1.6,0.7,2.4c0,0.9-0.3,1.8-0.8,2.5
		c-1,1.6-2.6,2.7-4.5,3.1l0,0c-0.6,0.1-1.1-0.2-1.2-0.8s0.2-1.1,0.8-1.2C131.8,106.8,131.9,106.8,131.9,106.8z"/>
	<path class="st0" d="M107.1,132.8c-0.3,0.6-0.7,1.2-1.2,1.8c-0.4,0.5-0.9,0.9-1.3,1.3c-0.5,0.4-0.9,0.8-1.4,1.1l-1.7,1.1
		c-0.2-0.8-0.1-1.6,0.3-2.3c0.3-0.7,0.8-1.3,1.4-1.7c0.5-0.5,1.2-0.8,1.8-1.1C105.6,132.8,106.4,132.7,107.1,132.8z"/>
	<g>
		<defs>
			<path id="SVGID_3_" d="M151.8,5c34.3,33.8,9.8,78,60.9,49.8c32.8-17,47.1,9.6,36.9,36.8c-25.2,61.7-52.6,82.1-100.6,84
				c-49.1,1.9-79.1-61-25.4-164.7C129-0.7,143-3.7,151.8,5z"/>
		</defs>
		<clipPath id="SVGID_4_">
			<use xlink:href="#SVGID_3_"  style="overflow:visible;"/>
		</clipPath>
		<g class="st11">
			<path class="st6" d="M125.5,57.2C110.9,56.9,107,59,99.3,70.8l11.9-38.6C110.9,46.1,113.1,49.8,125.5,57.2z"/>
			<ellipse class="st6" cx="116.8" cy="77.4" rx="5.5" ry="5.2"/>
			<path class="st0" d="M137.4,139.3c-3.5,0-7,1-10,2.7c-3.1,1.6-6,3.6-9.1,5.4c-3.1,1.8-6.5,3.2-10,4.1c-3.5,0.9-7.1,1.4-10.8,1.6
				c-3.6,0.3-7.2,0.2-10.8-0.3c-3.6-0.5-7.1-1.5-10.4-2.9c-3.3-1.4-6.4-3-9.7-4.2c-3.2-1.4-6.8-1.9-10.3-1.6c3.4-1,7.2-0.6,10.6,0.4
				c3.4,1,6.7,2.4,10,3.6c6.6,2.3,13.5,3.2,20.5,2.6c3.5-0.1,6.9-0.6,10.3-1.4c3.4-0.8,6.6-2,9.7-3.5c3.1-1.6,6.2-3.4,9.5-4.8
				S133.9,138.6,137.4,139.3z"/>
		</g>
	</g>
	<path class="st6" d="M111.2,37.4c0,0-12,14.5-10.7,31.7L111.2,37.4z"/>
</g>
<g id="f-arm">
	<path class="st0" d="M206.6,212.4c6,12.2,11.7,24.9,16,38.5c2.2,7,3.8,14.1,4.8,21.3c0.1,0.9,0.2,1.9,0.3,2.8l0.2,2.8
		c0.1,1.9,0.1,3.9,0.1,5.8c-0.1,4-0.5,7.9-1.2,11.8c-0.2,1-0.4,2-0.6,3l-0.9,2.9l-0.4,1.5l-0.6,1.4l-1.2,2.9
		c-0.4,0.9-0.9,1.8-1.4,2.8c-0.5,0.9-1,1.8-1.5,2.7c-1.1,1.7-2.3,3.4-3.6,5c-5,6.1-11.1,11-18.1,14.6c-6.4,3.3-13.2,5.9-20.2,7.7
		l-5.1,1.2c-1.7,0.4-3.4,0.7-5.1,1l-2.6,0.5l-2.6,0.4l-5.1,0.7c-3.7,0.5-7.1-2-7.6-5.7c-0.5-3.4,1.7-6.7,5.1-7.5l0.3-0.1l4.6-1.1
		l2.3-0.5l2.3-0.7c1.5-0.4,3-0.9,4.5-1.3l4.4-1.5c5.6-2,11-4.6,16.1-7.8c4.6-2.9,8.5-6.7,11.5-11.2c0.7-1,1.3-2.1,1.9-3.3
		c0.3-0.6,0.5-1.1,0.8-1.7c0.2-0.6,0.5-1.1,0.7-1.7l0.5-1.8l0.3-0.9l0.2-0.9l0.4-1.9c0.1-0.6,0.1-1.3,0.2-1.9
		c0.3-2.6,0.3-5.3,0.1-7.9c-0.2-1.4-0.3-2.7-0.5-4.1l-0.4-2.1c-0.1-0.7-0.2-1.4-0.4-2.1c-1.3-5.8-3.2-11.4-5.5-16.8
		c-4.7-11.2-10.9-22.2-17.6-33.1l0,0c-4.1-6.6-2-15.3,4.6-19.4c6.6-4.1,15.3-2,19.4,4.6l0,0C206.2,211.6,206.4,212,206.6,212.4z"/>
</g>
<g id="f-hand">
	<circle class="st1" cx="113.3" cy="332.5" r="6.7"/>
	<path class="st1" d="M126.4,345.5c-5.4-1.6-10.1-5-13.3-9.7l1.4-5.9c6.2,5.4,12.1,7.8,19.1,8.4L126.4,345.5z"/>
	
		<ellipse transform="matrix(0.9951 -9.853756e-02 9.853756e-02 0.9951 -31.2989 13.5977)" class="st0" cx="122" cy="323.7" rx="7.8" ry="7.8"/>
	<path class="st0" d="M133.4,341.9c-5.7-3.3-10.2-8.4-12.5-14.6l3.2-6.4c5.7,7.8,11.7,12.1,19.5,14.6L133.4,341.9z"/>
	<circle class="st0" cx="100.8" cy="343" r="7.8"/>
	<path class="st0" d="M121.2,351.5c-6.3,0.4-13.9-0.8-19.5-4.8l-0.8-7.1c9,3.6,16.3,3.9,24.2,1.9L121.2,351.5z"/>
	<path class="st0" d="M118.8,347.8c2.5,6.9,14.6,13.1,25.9,8.9s16.4-16.7,13.8-23.6c-2.6-7-9.2,0.3-20.5,4.4
		S116.2,340.8,118.8,347.8z"/>
</g>
</svg>
