<?xml version="1.0" encoding="utf-8"?>
<!-- Generator: Adobe Illustrator 26.0.0, SVG Export Plug-In . SVG Version: 6.00 Build 0)  -->
<svg version="1.1" id="Layer_1" xmlns="http://www.w3.org/2000/svg" xmlns:xlink="http://www.w3.org/1999/xlink" x="0px" y="0px"
	 viewBox="0 0 698.2 1062.2" style="enable-background:new 0 0 698.2 1062.2;" xml:space="preserve">
<style type="text/css">
	.st0{fill:#534741;}
	.st1{fill:#004E2A;}
	.st2{fill:#D99D36;}
	.st3{fill:#2D9B02;}
	.st4{fill:#4AFF03;}
	.st5{fill:#D8FF03;}
	.st6{fill:#268202;}
	.st7{fill:#736357;}
	.st8{fill:#FFFFFF;}
	.st9{fill:#38302C;}
</style>
<g>
	<g>
		<g>
			<g>
				<g>
					<g>
						<g>
							<path class="st0" d="M543.5,423.6c3,40.7,13.5,80.7,31.3,117.7c18,37.6,43.6,71.1,75.2,98.2c5.7,4.7,6.3,13,1.8,18.7
								c-4.4,5.3-12.1,6.3-17.8,2.4c-38.4-26.2-70.9-60-95.2-99.4c-24.7-40-42-84.1-50.5-130.1v-0.2c-2.8-15.2,7.1-29.5,22.4-32.3
								c15.2-2.8,29.7,7.1,32.5,22.2C543.3,421.4,543.5,422.4,543.5,423.6z"/>
							<path class="st0" d="M209.9,430.9c-8.5,46.1-25.5,90.4-50.5,130.1c-24.3,39.4-56.8,73.2-95.2,99.4
								c-6.1,4.1-14.5,2.6-18.6-3.3c-4-5.7-2.8-13.2,2.4-17.7c31.7-27.2,57.4-60.6,75.4-98.2c17.6-37,28.3-76.8,31.3-117.7
								c1.2-15.4,14.5-26.8,29.9-25.6c15.4,1.2,26.9,14.4,25.7,29.7c0,1-0.2,2-0.4,3V430.9z"/>
							<path class="st1" d="M101.6,740.9c20,0,36.2,16.1,36.2,36v249.2c0,19.9-16.2,36-36.2,36c-20,0-36.2-16.1-36.2-36V777
								C65.4,757.1,81.6,740.9,101.6,740.9z"/>
							<path class="st1" d="M599.7,1062.2c-20,0-36.2-16.1-36.2-36V777c0-19.9,16.2-36,36.2-36c20,0,36.2,16.1,36.2,36v249.2
								C636.1,1046,619.9,1062.2,599.7,1062.2z"/>
							<path class="st2" d="M460.1,423.2c11.3-38.4,50.5-66.7,90.7-65.4c8.9,0.2,18.2,2.2,24.2,8.7c5.3,5.9,6.5,14.6,4.9,22.4
								c-1.6,7.9-5.7,14.8-10.1,21.5c-24.7,36.2-61.2,63.2-103.3,76.6L460.1,423.2z"/>
							<path class="st2" d="M237.8,423.2c-11.3-38.4-50.5-66.7-90.7-65.4c-8.7,0.2-18.2,2.2-24.2,8.7c-5.3,5.9-6.5,14.6-4.9,22.4
								c1.6,7.9,5.7,14.6,10.1,21.3c24.7,36.2,61.2,63.2,103.3,76.6L237.8,423.2z"/>
							<path class="st3" d="M553.2,953.5c-12.9,37.2-45.3,67.3-83.7,85c-36.8,16.9-79,23.4-120.4,23.6
								c-41.4-0.2-83.5-6.5-120.4-23.6c-38.4-17.7-70.9-47.8-83.7-85c-15.2-44.1-18.6-90-5.3-132.3c6.3-20.3,16.2-39.2,29.3-56.1
								c43-55.5,93.2-112.6,96-180.3l84.1-1.2l84.1,1.2c2.6,67.7,52.9,124.8,96,180.3c10.7,13.8,19.4,28.9,25.5,45.1
								C572.2,855.7,569.8,905.5,553.2,953.5z"/>
							<path class="st4" d="M489.2,488l-80.2,150.6c-23.2,47.2-97,47.2-120.2,0l-80-150.6c-13.3-25-9.5-55.5,9.3-76.6
								c9.9-13.6,19.8-22.6,30.3-28.5c9.3-5.1,19.4-8.3,29.9-9.3c21-2.6,43.9,0.6,70.5-0.4c19,1,46.3-2.2,70.7,0.8
								c10.3,1,20.4,3.5,29.7,8.1c6.5,3.1,12.1,7.9,16.2,13.6C491.6,418.9,507.6,455.1,489.2,488z"/>
							<path class="st0" d="M318.2,417.3l11.1-124.8c1.2-10.8,11.1-18.7,22-17.5c9.3,1,16.6,8.3,17.6,17.5L380,417.3
								c1.6,16.9-11.1,31.9-28.1,33.5c-17,1.6-32.1-11-33.7-28C318,420.9,318,419.1,318.2,417.3z"/>
							<path class="st5" d="M449.2,381.9c-9.3-4.5-19.4-7.3-29.5-8.1c6.7,14.4,10.3,30.3,10.3,46.3c0,52.4-36.2,94.9-81,94.9
								c-44.7,0-81-42.5-81-94.9c0-16.1,3.6-31.9,10.3-46.5c-10.5,1.2-20.8,4.3-30.1,9.4c-3.6,12-5.3,24.6-5.1,37.2
								c0,65.9,47.5,119.5,105.7,119.5c58.2,0,105.7-53.5,105.7-119.5C454.8,407.1,453,394.3,449.2,381.9z"/>
							<path class="st6" d="M553.2,953.5c-12.9,37.2-45.3,67.3-83.7,85c-36.8,16.9-79,23.4-120.4,23.6
								c-41.4-0.2-83.5-6.5-120.4-23.6c-38.4-17.7-70.9-47.8-83.7-85c-15.2-44.1-18.6-90-5.3-132.3c18.8,4.3,37.2,11,54.4,19.9
								c28.5,14.6,53.8,34.4,82,49.8c28.1,15.4,60.6,26,92.1,19.7c40.8-8.3,70.1-42.5,104.5-65.7c24.9-16.5,52.9-28.3,82.2-34.4
								C572.2,855.7,569.8,905.5,553.2,953.5z"/>
							<path class="st7" d="M571.2,123c-16.6-17.5-45.5-13-68.3-4.5c-14.8,5.5-30.3,12.2-46.5,13.4c-20.2,1.4-21.6-4.5-26.7-21.5
								c-9.5-31.3-21.4-63.2-43.2-88.4C377,10.8,363.1,0.8,349.1,0c-14.1,0.8-27.9,10.8-37.6,22c-21.8,25.2-33.7,57.1-43.2,88.4
								c-5.1,17.1-6.5,22.8-26.7,21.5c-16-1-31.5-7.9-46.3-13.4c-22.6-8.5-51.7-13-68.3,4.5c-16,17.1-10.5,44.5-1.2,65.9
								c24.3,56.5,68.9,104.9,124.7,131.7c30.9,14.8,64.5,22.4,98.8,22.8c34.2-0.4,67.9-8.1,98.8-22.8
								c55.8-26.8,100.2-75,124.7-131.7C581.7,167.5,587.2,140,571.2,123z"/>
							<path class="st5" d="M305.7,115.4c14.3-3.9,23-7.5,29.1-13.6c6.1-6.1,9.7-14.8,13.7-28.9c4,14.2,7.5,22.8,13.7,28.9
								c6.1,6.1,14.8,9.6,29.1,13.6c-14.3,3.9-23,7.5-29.1,13.6c-6.1,6.1-9.7,14.8-13.7,28.9c-4-14.2-7.5-22.8-13.7-28.9
								C328.7,122.8,320,119.3,305.7,115.4z"/>
							<path class="st5" d="M409.7,157.9c0,6.1-5,11-11.1,11c-6.1,0-11.1-4.9-11.1-11c0-6.1,5-11,11.1-11
								C404.7,146.8,409.7,151.8,409.7,157.9z"/>
							<path class="st5" d="M309.7,157.9c0,6.1-5,11-11.1,11c-6.1,0-11.1-4.9-11.1-11c0-6.1,5-11,11.1-11
								C304.7,146.8,309.7,151.8,309.7,157.9z"/>
							<path class="st8" d="M282.4,222c0,14.6-10.3,26.4-23.2,26.4c-12.9,0-23.2-11.8-23.2-26.4c0-14.6,10.3-26.4,23.2-26.4
								c0.8,0,1.8,0,2.6,0.2c10.7,1.4,19.2,11,20.4,23.2C282.4,220.1,282.4,221.1,282.4,222z"/>
							<path class="st3" d="M282.4,219.1c-1.2,10.2-8.9,18.1-18,18.1c-10.1,0-18.2-9.3-18.2-20.9c0-10.6,6.9-19.3,16-20.7
								C272.7,197.2,281.2,206.9,282.4,219.1z"/>
							<path d="M271.9,216.3c0,4.9-3.5,8.9-7.7,8.9c-4.3,0-7.7-4-7.7-8.9c0-4.9,3.5-8.9,7.7-8.9
								C268.4,207.5,271.9,211.4,271.9,216.3z"/>
							<path class="st9" d="M236.2,222c-1-6.7,0.6-13.6,4.8-19.3c2.2-3,4.8-5.3,7.9-7.1c6.5-3.5,14.5-3.5,21,0
								c3.2,1.8,5.7,4.1,7.9,6.9c4,5.5,5.7,12.4,4.8,19.3c-1-6.1-3.6-12-7.7-16.7c-7.1-8.5-19.8-9.4-28.1-2.4
								c-0.8,0.8-1.6,1.6-2.4,2.4C239.8,210,237.2,215.7,236.2,222z"/>
							<path class="st9" d="M241.2,206.5c-3.8-0.4-7.3-2.8-9.1-6.1c-1.6-3.1-1.6-6.9,0.2-10c-1,3-0.4,6.3,1.6,8.9
								c1.8,2.2,4.6,3.3,7.5,3.1c1.2-0.2,2.2,0.8,2.4,1.8c0.2,1.2-0.8,2.2-1.8,2.4H241.2z"/>
							<path class="st9" d="M236.2,214.6c-4.2-0.8-7.7-3-10.3-6.3c-1.2-1.6-2-3.5-2.2-5.5c-0.2-2,0.2-3.7,1.2-5.5
								c-1,3.3,0,7.1,2.8,9.4c2.4,2.2,5.5,3.3,8.9,3.3c1.2-0.2,2.4,0.6,2.6,1.8c0.2,1.2-0.6,2.4-1.8,2.6c-0.2,0-0.4,0-0.8,0
								C236.4,214.6,236.2,214.6,236.2,214.6z"/>
							<path class="st8" d="M413.6,222c0,14.6,10.3,26.4,23.2,26.4s23.2-11.8,23.2-26.4c0-14.6-10.3-26.4-23.2-26.4
								c-0.8,0-1.8,0-2.6,0.2c-10.7,1.4-19.2,11-20.4,23.2C413.6,220.1,413.6,221.1,413.6,222z"/>
							<path class="st3" d="M413.6,219.1c1.2,10.2,8.7,18.1,18,18.1c10.1,0,18.2-9.3,18.2-20.9c0-10.6-6.9-19.3-16-20.7
								C423.3,197.2,414.8,206.9,413.6,219.1z"/>
							<path d="M439.5,216.3c0,4.9-3.5,8.9-7.7,8.9c-4.3,0-7.7-4-7.7-8.9c0-4.9,3.5-8.9,7.7-8.9
								C436.1,207.5,439.5,211.4,439.5,216.3z"/>
							<path class="st9" d="M459.7,222c-1-6.1-3.6-12-7.7-16.7c-7.1-8.5-19.8-9.4-28.1-2.4c-0.8,0.8-1.6,1.6-2.4,2.4
								c-4.2,4.7-6.9,10.4-7.7,16.7c-1-6.7,0.6-13.6,4.8-19.3c2.2-3,4.8-5.3,7.9-6.9c6.5-3.5,14.5-3.5,21,0c3.2,1.8,5.7,4.1,7.9,7.1
								C459.1,208.3,460.7,215.2,459.7,222z"/>
							<path class="st9" d="M454.8,202.4c2.8,0.2,5.7-1,7.5-3.1c2-2.6,2.6-5.9,1.6-8.9c1.8,3.1,1.8,6.9,0.2,10
								c-1.8,3.3-5.1,5.7-9.1,6.1c-1.2,0.2-2.2-0.6-2.4-1.8c-0.2-1.2,0.6-2.2,1.8-2.4H454.8z"/>
							<path class="st9" d="M459.5,210c3.4,0.2,6.5-1,8.9-3.3c2.8-2.4,3.8-6.1,2.8-9.4c1,1.6,1.4,3.5,1.2,5.5c-0.2,2-1,3.9-2.2,5.5
								c-2.6,3.3-6.1,5.5-10.3,6.3c-1.2,0.2-2.4-0.4-2.8-1.8c-0.2-1.2,0.4-2.4,1.8-2.8h0.2H459.5z"/>
							<path class="st0" d="M330.3,267.1c1.4-0.2,2.8-0.2,4,0.4c1.2,0.4,2.4,1,3.4,1.8c1,0.8,2,1.8,2.6,3c0.6,1.2,1,2.6,0.6,3.9
								l-3.2-2c-0.8-0.6-1.8-1.2-2.6-2c-0.8-0.8-1.8-1.4-2.4-2.2C331.7,269.1,331.1,268.1,330.3,267.1z"/>
							<path class="st0" d="M367.7,267.1c-0.6,1.2-1.4,2.2-2.2,3.1c-0.8,0.8-1.6,1.6-2.4,2.2c-0.8,0.8-1.8,1.2-2.6,2l-3.2,2
								c-0.2-1.4,0-2.8,0.6-3.9c0.6-1.2,1.4-2.2,2.6-3c1-0.8,2.2-1.4,3.4-1.8C365.1,267.1,366.5,266.9,367.7,267.1z"/>
							<path class="st0" d="M419.4,282.1c-6.1-0.4-12.3,1-17.6,3.7c-5.5,2.6-10.7,5.9-16.2,8.7c-5.5,3-11.7,4.9-17.8,6.3
								c-12.5,2.4-25.1,2.4-37.6,0c-6.1-1.2-12.3-3.3-17.8-6.3c-5.5-2.8-10.7-6.1-16.2-8.7c-5.3-3-11.5-4.1-17.6-3.7
								c6.1-1.6,12.7-0.2,18.4,2c5.7,2.2,11.3,5.1,16.8,7.7c11.1,4.9,23.2,7.3,35.2,6.9c12.1,0.4,24.2-2,35.2-6.7
								c5.5-2.6,11.1-5.5,16.8-7.7C406.7,282.1,413.4,280.5,419.4,282.1z"/>
							<path class="st0" d="M30,745.7c0,8.5-6.9,15.4-15.4,15.4c-8.5,0-15.4-6.9-15.4-15.4s6.9-15.4,15.4-15.4
								C23,730.3,30,737.2,30,745.7z"/>
							<path class="st0" d="M11.7,702.2c-4.9,11.6-7.5,26.4-3.6,39.4l12.7,5.9c-0.8-19.1,3.4-32.9,12.3-46.3L11.7,702.2z"/>
							<path class="st9" d="M42.6,715.8c7.3,0.1,13.2,6,13.1,13.3s-6.1,13.1-13.4,13.1c-7.3-0.1-13.2-6-13.1-13.3
								C29.3,721.6,35.3,715.7,42.6,715.8z"/>
							<path class="st9" d="M26.4,696.4c-0.6,11.2,2.8,22,9.5,31.1l12.1,1.2c-6.1-15.2-6.7-27.6-3.4-40.9L26.4,696.4z"/>
							<path class="st0" d="M64.7,703.2c8.5,0.1,15.3,7.1,15.2,15.6c-0.1,8.5-7.2,15.2-15.7,15.1c-8.5-0.1-15.3-7.1-15.2-15.6
								C49.1,709.9,56.2,703.1,64.7,703.2z"/>
							<path class="st0" d="M37.7,685.6c2.4,12.8,9.1,24.4,19.2,32.7l14.1-1.8c-10.9-15.6-15-29.5-14.6-45.5L37.7,685.6z"/>
							<path class="st0" d="M17.3,708.8c-11.3-9.1-15-35.6,0.2-53.9c15.2-18.3,42-19.9,53.1-10.6C82,653.5,64,661.2,49,679.7
								C33.9,698.2,28.8,718.3,17.3,708.8z"/>
							<path class="st9" d="M669,729.1c0,7.3-5.9,13.2-13.3,13.2c-7.3,0-13.3-5.9-13.3-13.2c0-7.3,5.9-13.2,13.3-13.2
								C663.1,715.9,669,721.8,669,729.1z"/>
							<path class="st9" d="M671.8,696.4c0.6,11.2-2.8,22-9.5,31.1l-11.9,1.2c6.1-15.2,6.7-27.6,3.4-40.9L671.8,696.4z"/>
							<path class="st0" d="M649,718.5c0,8.5-6.9,15.4-15.4,15.4c-8.5,0-15.4-6.9-15.4-15.4s6.9-15.4,15.4-15.4
								C642.1,703.1,649,710,649,718.5z"/>
							<path class="st0" d="M660.5,685.6c-2.4,12.8-9.1,24.4-19.2,32.7l-13.9-1.8c10.9-15.6,15-29.5,14.6-45.5L660.5,685.6z"/>
							<path class="st0" d="M699.1,745.7c0,8.5-6.9,15.4-15.4,15.4c-8.5,0-15.4-6.9-15.4-15.4s6.9-15.4,15.4-15.4
								C692.2,730.3,699.1,737.2,699.1,745.7z"/>
							<path class="st0" d="M686.4,702.2c4.9,11.6,7.5,26.4,3.6,39.4l-12.7,5.9c0.8-18.9-3.2-32.9-12.3-46.3L686.4,702.2z"/>
							<path class="st0" d="M680.9,708.8c11.3-9.1,15-35.6-0.2-53.9c-15.2-18.3-42-19.9-53.1-10.6c-11.5,9.3,6.5,16.9,21.6,35.4
								C664.2,698.2,669.4,718.3,680.9,708.8z"/>
						</g>
					</g>
				</g>
			</g>
		</g>
	</g>
</g>
</svg>
