<?xml version="1.0" encoding="utf-8"?>
<!-- Generator: Adobe Illustrator 25.2.0, SVG Export Plug-In . SVG Version: 6.00 Build 0)  -->
<svg version="1.1" id="Layer_1" xmlns="http://www.w3.org/2000/svg" xmlns:xlink="http://www.w3.org/1999/xlink" x="0px" y="0px"
	 viewBox="0 0 427 537.3" style="enable-background:new 0 0 427 537.3;" xml:space="preserve">
<style type="text/css">
	.st0{fill:#534741;}
	.st1{fill:#268202;}
	.st2{fill:#2D9B02;}
	.st3{fill:#D99D36;}
	.st4{fill:#004E2A;}
	.st5{fill:#006837;}
	.st6{fill:#D8FF03;}
	.st7{fill:#4AFF03;}
	.st8{clip-path:url(#SVGID_2_);}
	.st9{fill:#38302C;}
	.st10{fill:#736357;}
	.st11{fill:#FFFFFF;}
</style>
<g id="l-hand">
	<circle class="st0" cx="27.6" cy="120.2" r="7.8"/>
	<path class="st0" d="M48.1,150.6c-2.4-4.1-6-7.5-9.5-10.7c-2.5-2.2-5.5-4.5-8.7-3.8c-2.8,0.7-4.4,3.4-5.6,6
		c-2.1,4.5-3.5,9.2-4.4,14.1c-1.9,11.1,6.6,20.4,18.4,18.5C49.7,172.9,53.4,159.7,48.1,150.6z"/>
	<path class="st0" d="M23.2,144.7l8.5-1.6l8.5-1.6c0,0-8.4-8.1-9.3-18.3l-2.9,0.6l-2.9,0.6C28,134.1,23.2,144.7,23.2,144.7z"/>
	<circle class="st0" cx="53.5" cy="131" r="7.8"/>
	<path class="st0" d="M49.7,155.5l-7.5-4.3l-7.5-4.3c0,0,10.6-4.9,14.7-14.2l2.5,1.5l2.5,1.5C48.5,143.9,49.7,155.5,49.7,155.5z"/>
	<circle class="st0" cx="7.8" cy="139.7" r="7.8"/>
	<path class="st0" d="M20.4,161.1l5.4-6.8l5.4-6.7c0,0-11.6-0.7-18.9-7.8l-1.8,2.3l-1.8,2.3C17.2,149.9,20.4,161.1,20.4,161.1z"/>
</g>
<g id="l-arm">
	<path class="st0" d="M140.7,227c-11.1,3.8-22.7,5.9-34.4,6.2c-11.9,0.4-23.8-1.6-34.9-5.9c-5.7-2.2-11-5.3-15.8-9
		c-4.8-3.8-9.1-8.3-12.5-13.4c-3.3-5-5.9-10.4-7.7-16.1c-1.6-5.5-2.7-11.2-3-16.9c-0.2-3.6,2.5-6.7,6.1-6.9c3.3-0.2,6.2,2.1,6.8,5.3
		v0.1c1.7,9.4,5.3,18.1,11,24.6c2.8,3.3,6.1,6.1,9.8,8.3c3.7,2.2,7.7,3.9,11.9,5c8.7,2.2,17.7,2.7,26.6,1.3c9.1-1.3,17.9-4,26.1-7.9
		c6.7-3.4,14.9-0.7,18.3,6c3.4,6.7,0.7,14.9-6,18.3c-0.2,0.1-0.4,0.2-0.6,0.3c-0.5,0.2-1,0.4-1.4,0.6L140.7,227z"/>
</g>
<g id="body">
	<path class="st1" d="M427,464.2c0,0.4,0.1,0.7,0.1,1.1c0,6.1-6,9.4-10.9,11c-50.2,17.1-74.3,8.1-165.9,33.8
		c-12.2,3.4-25.7,7.5-40.6,12.3l81.2-87.6l13.7-14.8l0.2-0.2c33.9,9.7,27.6,28.5,45.6,32c8.2,1.6,16.9-2.2,24.8,0.7
		c5.3,2,9.6,6.7,15,8.1c8.6,2.3,17.1-4.4,25.9-4.6C420.8,455.9,426.3,458.9,427,464.2z"/>
	<path class="st2" d="M303.5,407.5c0.6,6.8,4.9,12.8,11.1,15.6c23,10.2,19.8,25.4,35.9,28.5c8.2,1.6,16.9-2.2,24.8,0.7
		c5.3,2,9.6,6.7,15,8.1c8.6,2.3,17.1-4.4,25.9-4.6c4.7-0.1,10.2,2.9,10.8,8.2c-64,11.4-102.2-2.7-124.2-19l0,0
		c-4.3-3.1-8.2-6.6-11.9-10.5c-11.2-11.6-14.9-21.7-14.9-21.7l4.5-14.1l22.5,4.5L303.5,407.5z"/>
	<path class="st3" d="M170.2,216.4c0.4-3.8-0.2-7.6-1.6-11.1c-7.6-18.4-25.9-31.4-44.5-30.8c-4.5,0.1-9.4,1.2-12.4,4.9
		c-2.7,3.3-3.4,8.2-2.6,12.6s2.9,8.4,5.2,12.1c6.5,10.5,14.8,19.9,24.5,27.6C151.3,241.5,168.7,233,170.2,216.4L170.2,216.4z"/>
	<path class="st4" d="M149.8,447.2c0-31.2-11.4-58.2-27.9-70.8v-7.5h-21.1c-26.9,0.1-48.7,35.2-48.7,78.3S74,525.6,101,525.6
		c0.5,0,1.1,0,1.6-0.1l19.3,0.1V518C138.4,505.5,149.8,478.5,149.8,447.2z"/>
	<ellipse class="st5" cx="121.9" cy="447.2" rx="48.8" ry="78.3"/>
	<ellipse class="st6" cx="121.9" cy="447.2" rx="30.6" ry="49.1"/>
	<path class="st2" d="M316.4,410.8c-0.7-2.7-1.6-5.4-2.6-8.1c-3.2-8.6-7.6-16.8-13.2-24.2c-22.1-29.7-47.9-60.3-49.3-96.5l0,0v-71.3
		h-86.3V282H165c-1.4,36.2-27.2,66.8-49.3,96.5c-6.8,9-11.9,19.2-15.1,30c-0.6,2.1-1.2,4.3-1.7,6.5c0,0.2-0.1,0.5-0.1,0.7
		c-4.5,20.6-2.5,42.5,4.5,63.7c6.6,19.9,23.3,36,43,45.5c14.7,7,30.9,10.7,47.3,12c3.9,0.3,7.9,0.5,11.8,0.6c0.9,0,1.8,0,2.7,0
		c4.8,0,9.7-0.2,14.5-0.6c16.5-1.3,32.7-5,47.3-12c19.7-9.5,36.5-25.6,43-45.5C320.6,456.4,322.4,432.7,316.4,410.8z"/>
	<path class="st7" d="M166.5,311.6c8.8,26.9,47.6,29.3,62.5,3.8l43.1-71.1c14.4-22.4-8.9-60.3-33.9-64c-23.7-2.2-37.8-2.8-59-3.5
		C109.3,184.4,154.6,269.2,166.5,311.6z"/>
	<path class="st3" d="M256.1,216.4c-0.3-3.8,0.2-7.6,1.6-11.1c7.6-18.4,25.9-31.4,44.5-30.8c4.5,0.1,9.4,1.2,12.4,4.9
		c2.7,3.3,3.4,8.2,2.6,12.6s-2.9,8.4-5.2,12.1c-6.5,10.5-14.8,19.9-24.5,27.6C275,241.5,257.6,233,256.1,216.4z"/>
	<path class="st0" d="M182.7,209.4l5.7-64.4c0.5-5.6,5.4-9.8,11-9.3c5,0.4,8.9,4.4,9.3,9.3l5.7,64.4c0.8,8.8-5.7,16.5-14.5,17.3
		s-16.5-5.7-17.3-14.5l0,0C182.6,211.3,182.6,210.4,182.7,209.4z"/>
	<g>
		<defs>
			<path id="SVGID_1_" d="M166.5,311.6c8.8,26.9,47.6,29.3,62.5,3.8l43.1-71.1c14.4-22.4-8.9-60.3-33.9-64
				c-23.7-2.2-37.8-2.8-59-3.5C109.3,184.4,154.6,269.2,166.5,311.6z"/>
		</defs>
		<clipPath id="SVGID_2_">
			<use xlink:href="#SVGID_1_"  style="overflow:visible;"/>
		</clipPath>
		<g class="st8">
			<path class="st6" d="M241,218.6l0.1-0.5c0.1-0.8,0.3-1.5,0.4-2.3l0.1-0.8c0.1-0.7,0.2-1.4,0.3-2.2c0-0.3,0.1-0.5,0.1-0.8
				c0.1-1,0.2-1.9,0.3-2.9l0,0c0.1-1,0.1-2,0.2-2.9c0-0.3,0-0.5,0-0.8c0-0.7,0-1.5,0.1-2.2c0-0.3,0-0.5,0-0.8c0-0.8,0-1.6,0-2.4
				c0-0.2,0-0.3,0-0.5c-0.1-3-0.3-5.9-0.7-8.9v-0.2c-0.1-0.4-0.1-0.8-0.2-1.2l0,0c-3.7-25-18-44.6-36.7-47.3l0,0h-0.2h-0.1h-0.1
				h-0.2l0,0c-18.7-2.1-36,13.3-43.6,36.8l0,0l-0.4,1.2c0,0.1,0,0.1-0.1,0.2c-0.9,2.8-1.6,5.6-2.1,8.5c0,0.2-0.1,0.3-0.1,0.5
				c-0.1,0.8-0.3,1.5-0.4,2.3l-0.1,0.8c-0.1,0.7-0.2,1.4-0.3,2.2c0,0.3-0.1,0.5-0.1,0.8c-0.1,1-0.2,1.9-0.3,2.9l0,0
				c-0.1,1-0.1,2-0.2,2.9v0.8c0,0.7-0.1,1.5-0.1,2.2v0.8c0,0.8,0,1.6,0,2.4c0,0.2,0,0.4,0,0.5c0.1,3,0.3,5.9,0.7,8.9v0.2
				c0,0.4,0.1,0.8,0.2,1.2l0,0c3.7,25,18.1,44.6,36.7,47.3l0,0h0.2h0.1h0.1h0.2l0,0c18.7,2.1,36-13.3,43.7-36.8l0,0
				c0.1-0.4,0.2-0.8,0.4-1.2c0-0.1,0-0.2,0.1-0.2C239.7,224.3,240.4,221.4,241,218.6z M195.5,252.6c-12.3-1.7-22.2-13.3-26.5-29.1
				c-0.2-0.8-0.4-1.6-0.6-2.5c0-0.2-0.1-0.3-0.1-0.5c-0.2-0.7-0.3-1.4-0.4-2.1c-0.1-0.4-0.1-0.7-0.2-1.1c-0.1-0.5-0.2-1.1-0.3-1.6
				c-0.1-0.4-0.1-0.8-0.2-1.1c-0.1-0.6-0.1-1.2-0.2-1.8c0-0.3-0.1-0.6-0.1-1c-0.1-0.9-0.1-1.8-0.2-2.7v-0.9c0-0.7,0-1.3,0-2
				c0-0.4,0-0.7,0-1.1c0-0.6,0-1.3,0-2c0-0.3,0-0.6,0-1c0-1,0.1-1.9,0.2-2.9v-0.1c0.1-1,0.2-1.9,0.3-2.9c0-0.3,0.1-0.6,0.1-1
				c0.1-0.6,0.2-1.3,0.3-1.9c0.1-0.4,0.1-0.7,0.2-1.1c0.1-0.6,0.2-1.3,0.4-1.9c0.1-0.3,0.1-0.6,0.2-0.9c0.2-0.9,0.4-1.7,0.6-2.6
				c0.1-0.3,0.2-0.6,0.3-0.9c0.2-0.6,0.3-1.1,0.5-1.7c0.1-0.4,0.2-0.7,0.4-1.1s0.3-1,0.5-1.5c0.1-0.3,0.2-0.7,0.4-1
				c0.3-0.7,0.5-1.3,0.8-2c0.1-0.2,0.1-0.3,0.2-0.5c0.3-0.8,0.7-1.5,1-2.3c6.8-14.3,18.4-23.2,30.7-21.6s22.2,13.3,26.5,29.1
				c0.2,0.8,0.4,1.6,0.6,2.5c0,0.2,0.1,0.3,0.1,0.5c0.2,0.7,0.3,1.4,0.4,2.1c0.1,0.4,0.1,0.7,0.2,1.1c0.1,0.5,0.2,1.1,0.3,1.6
				c0.1,0.4,0.1,0.8,0.2,1.1c0.1,0.6,0.1,1.2,0.2,1.8c0,0.3,0.1,0.6,0.1,1c0.1,0.9,0.1,1.8,0.2,2.7c0,0.3,0,0.6,0,0.9
				c0,0.6,0,1.3,0.1,2v1.1c0,0.6,0,1.3,0,2v1c0,1-0.1,1.9-0.2,2.9v0.1c-0.1,1-0.2,1.9-0.3,2.9c0,0.3-0.1,0.6-0.1,0.9
				c-0.1,0.6-0.2,1.3-0.3,1.9l-0.2,1.1c-0.1,0.6-0.2,1.3-0.4,1.9l-0.2,0.9c-0.2,0.9-0.4,1.7-0.6,2.6c-0.1,0.3-0.2,0.6-0.3,0.9
				c-0.1,0.6-0.3,1.1-0.5,1.7c-0.1,0.4-0.2,0.7-0.3,1.1c-0.2,0.5-0.3,1-0.5,1.5l-0.4,1c-0.2,0.7-0.5,1.3-0.8,2
				c-0.1,0.2-0.1,0.3-0.2,0.5c-0.3,0.8-0.7,1.5-1,2.3C219.3,245.2,207.7,254.1,195.5,252.6L195.5,252.6z"/>
		</g>
	</g>
	<path class="st1" d="M313.1,479.2c-6.6,19.9-23.3,36-43,45.5c-14.7,7-30.9,10.7-47.4,12h-29c-16.4-1.3-32.7-5-47.3-12
		c-19.7-9.5-36.4-25.6-43-45.5c-7-21.2-9.1-43.1-4.5-63.7c6.5,2,12.5,5.8,17.8,10.1c7.1,5.8,13.3,12.6,20.4,18.5
		c11.7,9.7,25.9,16.6,41,18.8s30.9-0.4,44.1-8.1c9.9-5.9,18-14.4,27.1-21.5c19.3-14.8,43-22.7,67.3-22.5
		C322.4,432.7,320.6,456.4,313.1,479.2z"/>
	<path class="st4" d="M358.4,454.7c0-32.2-11.8-60.1-28.8-73.1v-7.8h-21.8c-27.8,0.1-50.2,36.3-50.2,80.9s22.6,80.9,50.4,80.9
		c0.6,0,1.1,0,1.7-0.1l19.9,0.1v-7.8C346.6,514.8,358.4,487,358.4,454.7z"/>
	<ellipse class="st5" cx="329.6" cy="454.7" rx="50.4" ry="80.9"/>
	<ellipse class="st6" cx="329.6" cy="454.7" rx="31.6" ry="50.7"/>
</g>
<g id="r-arm">
	<path class="st0" d="M295.8,208.8c3.4,4.2,7.5,8.8,11.4,13.6c4,4.9,7.8,10.1,11.2,15.5c3.6,5.7,6.6,11.7,9,18
		c2.5,6.7,3.9,13.7,4,20.9c0.1,7.2-1.3,14.4-4,21.1c-2.6,6.3-6.2,12.2-10.6,17.4l-0.8,1l-0.8,0.9l-1.6,1.8l-1.6,1.8
		c-0.5,0.6-1.1,1.1-1.7,1.7l-3.5,3.3l-3.6,3l-1.9,1.5c-0.6,0.5-1.2,0.9-1.9,1.4l-3.8,2.7c-2.5,1.8-5.1,3.4-7.7,5.1
		c-3.1,2.1-7.4,1.3-9.5-1.8c-2-2.9-1.4-6.9,1.3-9.2l0.4-0.3c2.2-1.8,4.4-3.5,6.5-5.4l3.1-2.8c0.5-0.5,1-0.9,1.5-1.4l1.4-1.5l2.9-2.9
		l2.6-3c0.4-0.5,0.9-1,1.3-1.5l1.2-1.6l1.2-1.6l0.6-0.8l0.5-0.8c2.8-4.1,4.9-8.6,6.3-13.3c1.3-4.4,1.6-9,1.1-13.5
		c-1.1-8.9-5.9-17.6-12.3-25.8c-3.4-4.2-7-8.2-10.8-11.9c-3.9-3.9-8.1-7.7-12.6-12.2c-5.6-5.6-5.7-14.6-0.1-20.3
		c5.6-5.6,14.6-5.7,20.3-0.1C295.1,208,295.5,208.4,295.8,208.8L295.8,208.8z"/>
</g>
<g id="r-hand">
	<g id="b-finger">
		<circle class="st9" cx="288.7" cy="363" r="6.8"/>
		<path class="st9" d="M285.5,344.5c3.6,4.5,5.5,10.1,5.4,15.9l-4.6,4.1c-2-8.2-5.5-13.5-11-18.1L285.5,344.5z"/>
	</g>
	<circle class="st0" cx="258" cy="354" r="8"/>
	<path class="st0" d="M274.2,339.3c-2.2,6.3-6.5,11.7-12.3,15.2l-6.9-2c6.8-7.1,9.9-13.9,11-22.1L274.2,339.3z"/>
	<circle class="st0" cx="281.2" cy="371.7" r="8"/>
	<path class="st0" d="M286,349.7c1.6,6.3,1.8,14.1-1.2,20.4l-6.9,2c1.9-9.6,0.9-17.1-2.6-24.6L286,349.7z"/>
	<path class="st0" d="M282.7,352.7c6.5-3.8,10.5-17,4.2-27.5s-19.7-13.4-26.1-9.5c-6.6,3.9,2,9.2,8.2,19.7S276.1,356.7,282.7,352.7z
		"/>
</g>
<g id="head">
	<path class="st0" d="M195.1,62.7c8.6,13,25.6,16.6,40.2,14.6S263.6,69,278.2,67s31.6,1.6,40.2,14.6c9.5,14.3,4.8,34.2-4.9,47.6
		c-11.9,16.4-30.1,26.6-49.2,31.7s-39.1,9.8-59,9.9L195.1,62.7z"/>
	<path class="st10" d="M319.1,62.1c-10.1-9.7-27.5-7.2-40.8-2.8c-8.5,2.9-17.2,6.4-26.2,6.8c-11,0.6-11.7-2.5-14.5-11.3
		c-5.1-16.1-11.4-32.3-22.8-44.7c-5-5.4-11.9-10.1-19-10.2c-7,0.7-13.7,6-18.4,11.6c-10.4,12.5-16,28-20.4,43
		c-2.4,8.2-3,10.9-12.2,10.2c-7.2-0.6-14-3.9-20.6-6.5c-9.8-3.9-22-6.1-28.8,1.8C88.9,67.7,91.2,80,95,89.8
		c10.1,26.1,29,49.8,53.9,64.6c14.4,8.6,30.4,14,47,16c17.4,1.7,35-0.4,51.5-6.2c31.4-11.1,57.6-35.3,72.5-65.6
		C325.6,86.8,329.1,71.7,319.1,62.1z"/>
	<path class="st6" d="M173.7,58.5c12.9-3.8,15.9-6.9,19.5-21c3.7,14.1,6.7,17.2,20.3,21.2c-13.6,3.8-16.6,7-20.3,21
		C189.5,65.6,186.6,62.5,173.7,58.5z"/>
	<path class="st6" d="M222.4,80.5c0-3.1-2.3-5.6-5.4-5.8c-3,0-5.4,2.4-5.4,5.3c0,0.1,0,0.1,0,0.2c0,3,2.3,5.6,5.4,5.8
		c2.9,0,5.4-2.3,5.4-5.3C222.4,80.7,222.4,80.6,222.4,80.5z"/>
	<path class="st6" d="M165.6,76.9c-0.1-2.8,2-5.1,4.8-5.2c0,0,0.1,0,0.1,0c2.9,0.2,5.1,2.6,5,5.5c0.1,2.8-2,5.1-4.8,5.2
		c-0.1,0-0.1,0-0.2,0C167.6,82.2,165.5,79.8,165.6,76.9z"/>
	<path class="st11" d="M163.6,108.4c0,7-4.8,12.3-10.7,12s-10.5-6.2-10.5-13.1s4.7-12.2,10.5-12c0.4,0,0.8,0.1,1.2,0.1
		c5,0.8,8.9,5.7,9.5,11.6C163.6,107.4,163.6,107.9,163.6,108.4z"/>
	<path class="st2" d="M163.6,107c-0.5,4.9-4.1,8.5-8.4,8.2c-4.6-0.3-8.4-4.9-8.4-10.4c0-5,3.2-9,7.3-9.5
		C159.1,96.2,163,101.1,163.6,107z"/>
	<path d="M158.7,105.5c0,2.3-1.6,4.1-3.6,4s-3.5-2.1-3.5-4.4s1.6-4.1,3.5-4S158.7,103.2,158.7,105.5z"/>
	<path class="st9" d="M142.4,107.2c-0.5-3.2,0.2-6.5,2.1-9.1c1-1.4,2.3-2.4,3.8-3.2c1.6-0.7,3.3-1,5-0.9c1.7,0.2,3.3,0.8,4.8,1.7
		c1.4,0.9,2.6,2.1,3.5,3.5c1.7,2.7,2.4,5.9,1.9,9.1c-0.5-2.9-1.7-5.7-3.5-8c-1.7-2.2-4.2-3.6-6.9-3.9c-2.7-0.2-5.4,0.8-7.2,2.9
		C144.1,101.6,142.8,104.3,142.4,107.2z"/>
	<path class="st9" d="M144.5,100.1c-1.8-0.3-3.3-1.5-4.1-3.2c-0.7-1.5-0.6-3.3,0.2-4.7c-0.4,1.4-0.1,3,0.8,4.2
		c0.8,1.1,2,1.7,3.3,1.6c0.6-0.1,1.2,0.3,1.2,1s-0.3,1.2-1,1.2c0,0-0.1,0-0.1,0C144.8,100.2,144.7,100.2,144.5,100.1L144.5,100.1z"
		/>
	<path class="st9" d="M142.3,103.8c-1.9-0.5-3.6-1.6-4.6-3.3c-0.5-0.8-0.8-1.7-0.9-2.6c-0.1-0.9,0.1-1.8,0.6-2.6
		c-0.4,1.6,0.1,3.3,1.3,4.4c1.1,1,2.5,1.6,4,1.7c0.7,0,1.2,0.5,1.2,1.2c0,0.7-0.5,1.2-1.2,1.2C142.5,103.9,142.4,103.9,142.3,103.8
		L142.3,103.8z"/>
	<path class="st11" d="M228.9,111.9c0,7.4,5.5,13.8,12.4,14.3s12.6-5.3,12.6-12.9s-5.7-14-12.6-14.3c-0.5,0-0.9,0-1.4,0
		c-5.8,0.4-10.3,5.2-10.9,11.4C229,110.9,228.9,111.4,228.9,111.9z"/>
	<path class="st2" d="M229,110.4c0.6,5.3,4.7,9.6,9.7,9.9c5.5,0.3,9.9-4.2,9.9-10.2c0-5.5-3.8-10.2-8.7-11.1
		C234.1,99.5,229.6,104.2,229,110.4z"/>
	<path d="M234.5,109.4c-0.1,2.4,1.7,4.5,4.1,4.7c2.3,0,4.1-1.7,4.2-4c0-0.1,0-0.2,0-0.3c0.1-2.4-1.7-4.5-4.2-4.7
		c-2.3,0-4.1,1.8-4.1,4C234.5,109.2,234.5,109.3,234.5,109.4z"/>
	<path class="st9" d="M253.9,113.3c-0.5-3.3-1.9-6.4-4.1-8.8c-2.1-2.3-5-3.8-8.1-4.1c-3.1-0.3-6.2,0.8-8.4,3
		c-2.4,2.3-3.9,5.4-4.3,8.7c-0.5-3.6,0.5-7.2,2.9-10c1.2-1.4,2.8-2.5,4.5-3.3c1.8-0.7,3.7-1,5.6-0.8c1.9,0.2,3.7,0.8,5.3,1.7
		C252,102.4,254.6,107.8,253.9,113.3L253.9,113.3z"/>
	<path class="st9" d="M251.2,102.9c1.5,0.2,3-0.3,4.1-1.4c1.1-1.3,1.4-3.1,0.9-4.7c1,1.6,1,3.7,0,5.3c-1.1,1.8-2.9,2.9-5,3h-0.1
		c-0.6,0-1.1-0.4-1.2-1c0-0.6,0.4-1.1,1-1.2L251.2,102.9z"/>
	<path class="st9" d="M253.9,107c1.7,0.2,3.5-0.3,4.9-1.4c0.7-0.6,1.2-1.3,1.5-2.2c0.3-0.9,0.3-1.9,0-2.8c0.5,0.9,0.7,1.9,0.6,2.9
		c-0.1,1.1-0.6,2.1-1.3,2.9c-1.4,1.7-3.5,2.8-5.7,3l0,0c-0.7,0.1-1.3-0.3-1.4-1s0.3-1.3,1-1.4c0,0,0.1,0,0.1,0L253.9,107z"/>
	<path class="st0" d="M181.8,131.7c0.7-0.1,1.4,0,2,0.3c0.6,0.2,1.2,0.6,1.6,1c0.5,0.4,0.9,1,1.2,1.6c0.3,0.6,0.4,1.4,0.3,2.1
		c-0.6-0.4-1.1-0.7-1.6-1c-0.5-0.3-0.9-0.6-1.3-1c-0.4-0.4-0.8-0.8-1.2-1.2C182.4,132.9,182,132.3,181.8,131.7z"/>
	<path class="st0" d="M200.4,133.1c-0.3,0.5-0.7,1-1.1,1.5c-0.4,0.4-0.8,0.7-1.2,1c-0.4,0.3-0.9,0.6-1.3,0.8l-1.6,0.8
		c-0.2-0.7,0-1.4,0.3-2c0.3-0.6,0.8-1,1.3-1.4c0.5-0.4,1.1-0.6,1.7-0.8C199.1,132.9,199.8,132.9,200.4,133.1z"/>
	<path class="st0" d="M227.2,142.7c-3-0.4-6.1,0-8.9,1.1c-2.9,1-5.6,2.4-8.4,3.6c-2.9,1.2-6,2.1-9.1,2.5c-3.1,0.4-6.3,0.4-9.4,0.1
		c-3.1-0.2-6.2-0.8-9.3-1.6c-3-0.9-5.9-2.1-8.7-3.8c-2.7-1.6-5.2-3.4-7.8-4.9c-2.6-1.7-5.5-2.6-8.6-2.7c3.1-0.5,6.3,0.5,9.1,1.8
		s5.4,3,8.1,4.4c5.4,2.8,11.3,4.4,17.3,4.7c6,0.7,12.1,0,17.7-2c2.9-1,5.7-2.3,8.7-3.1C221,141.9,224.2,141.9,227.2,142.7z"/>
</g>
<path id="sleeve" class="st3" d="M266.8,232.7c0,0,6.6-19.7,41.8-23.7l3-22.2l-37.2,6.8l-14.5,16.2L266.8,232.7z"/>
</svg>
