<?xml version="1.0" encoding="utf-8"?>
<!-- Generator: Adobe Illustrator 25.2.0, SVG Export Plug-In . SVG Version: 6.00 Build 0)  -->
<svg version="1.1" id="Layer_1" xmlns="http://www.w3.org/2000/svg" xmlns:xlink="http://www.w3.org/1999/xlink" x="0px" y="0px"
	 viewBox="0 0 413.8 539.6" style="enable-background:new 0 0 413.8 539.6;" xml:space="preserve">
<style type="text/css">
	.st0{fill:#534741;}
	.st1{fill:#38302C;}
	.st2{fill:#736357;}
	.st3{fill:#004E2A;}
	.st4{fill:#D99D36;}
	.st5{fill:#2D9B02;}
	.st6{fill:#4AFF03;}
	.st7{fill:#D8FF03;}
	.st8{fill:#268202;}
	.st9{fill:#FFFFFF;}
</style>
<g id="l-arm">
	<path class="st0" d="M180.9,225.1c-17.1,16.6-37.1,29.9-59.1,39.2c-21.7,9.2-45,13.7-68.5,13.3c-3.7-0.1-6.7-3.2-6.6-6.9
		c0.1-3.4,2.7-6.3,6.1-6.6h0.1c21-2,41.4-8.3,59.9-18.6c18.2-10.1,34.3-23.5,47.5-39.6c5-6,13.9-6.8,19.9-1.9c6,5,6.8,13.9,1.9,19.9
		l0,0c-0.3,0.4-0.6,0.7-1,1.1L180.9,225.1z"/>
</g>
<g id="l-hand">
	<circle class="st0" cx="7.8" cy="298.4" r="7.8"/>
	<path class="st0" d="M19.5,279.5c-5.4,3.4-10.9,8.7-13.1,15.2l3.5,6.2c5.2-8.1,11-12.7,18.6-15.6L19.5,279.5z"/>
	<circle class="st1" cx="24.2" cy="299.6" r="6.7"/>
	<path class="st1" d="M27.2,281.5c-3.5,4.4-5.3,10-5.2,15.6l4.6,4c1.9-8,5.3-13.4,10.7-17.9L27.2,281.5z"/>
	
		<ellipse transform="matrix(1.612273e-02 -0.9999 0.9999 1.612273e-02 -265.9668 333.2499)" class="st0" cx="36.3" cy="301.8" rx="7.8" ry="7.8"/>
	<path class="st0" d="M35,280.3c-2.8,6-3.4,12.8-1.7,19.2l6.3,3.4c0.1-9.7,2.5-16.6,7.4-23.2L35,280.3z"/>
	<path class="st0" d="M19.8,284c-2-7.1,4.3-19.2,15.9-22.3s23.1,4,25,11.2s-7.7,5.1-19.3,8.3S21.7,291.2,19.8,284z"/>
</g>
<g id="r-arm">
	<path class="st0" d="M344.8,213.7c-4.6,12-7.3,24.5-8.2,37.3c-0.3,3.3-0.4,6.5-0.4,9.7c0,1.6,0,3.2,0.1,4.8s0.1,3.2,0.3,4.8
		c0.5,6.1,1.7,11.7,3.9,14.9l0.8,1.2c0.3,0.3,0.6,0.6,0.9,0.9c0.7,0.6,1.4,1.1,2.2,1.6c0.9,0.5,1.8,0.8,2.7,0.9c1,0.2,2,0.2,3,0.1
		c1.1,0,2.1-0.2,3.1-0.5c0.5-0.1,0.9-0.4,1.4-0.5l1.6-0.8c2.2-1.4,4.1-3.1,5.7-5.2c1.7-2.3,3.2-4.8,4.3-7.5c1.2-2.8,2.1-5.8,2.7-8.8
		c0.6-3.1,1-6.4,1.4-9.7s0.3-6.8,0.4-10.1v-0.3c0.1-3,2.6-5.3,5.6-5.2c0,0,0.1,0,0.1,0c2.8,0.1,5,2.3,5.2,5.1
		c0.3,3.6,0.6,7.3,0.6,10.9c0.1,3.8,0,7.5-0.4,11.3c-0.7,8.1-3.2,16-7.3,23c-2.3,3.8-5.2,7.2-8.7,10c-0.9,0.8-1.9,1.4-2.9,2.1
		c-1,0.7-2.1,1.3-3.2,1.8c-2.2,1-4.6,1.8-7,2.2c-2.5,0.5-5,0.7-7.5,0.5c-2.6-0.2-5.1-0.6-7.5-1.4c-2.5-0.8-4.9-2-7-3.5
		c-1.1-0.7-2.1-1.6-3.1-2.5l-2.7-2.7c-1.6-1.8-3-3.9-4.2-6c-1.1-2-2.1-4.1-2.9-6.2c-1.5-3.9-2.6-8-3.2-12.1c-0.4-2-0.6-3.9-0.9-5.7
		s-0.5-3.8-0.8-5.7c-0.4-3.8-0.6-7.5-0.9-11.4c-0.6-15.4,1.1-30.9,4.9-45.9v-0.1c2.2-7.7,10.3-12.2,18-10c7.5,2.1,12,9.8,10.2,17.4
		C345.1,212.8,344.9,213.2,344.8,213.7z"/>
</g>
<g id="r-hand">
	<path class="st2" d="M387.4,228.1c5.5,5.8,7,19.2-0.8,26.5s-22.5,6.1-26.5-0.9c-2.9-4.8,3.4-7.7,11.2-14.9S381.9,222.1,387.4,228.1
		z"/>
	<circle class="st2" cx="361.6" cy="276" r="7.5"/>
	<circle class="st2" cx="397.7" cy="269.9" r="7.5"/>
	<circle class="st2" cx="406.2" cy="232.3" r="7.5"/>
	<path class="st2" d="M370.2,257c0.5,6.4-1.3,12.7-4.9,18l-6.8,0.9c3.2-8.7,3.4-15.8,1.2-23.4L370.2,257z"/>
	<path class="st2" d="M388.7,248.5c4.8,4.2,7.9,9.9,9,16.2l-4.3,5.3c-2.3-8.5-8.8-15.2-17.1-17.9L388.7,248.5z"/>
	<path class="st2" d="M383.4,226.3c6.1-1.8,12.7-1.5,18.5,0.9l2.3,6.5c-8.4-2.4-17.5-0.4-24.1,5.2L383.4,226.3z"/>
</g>
<g id="body">
	<path class="st3" d="M120.9,376.4L120.9,376.4c10.1,0,18.3,8.2,18.3,18.3v126.6c0,10.1-8.2,18.3-18.3,18.3l0,0
		c-10.1,0-18.3-8.2-18.3-18.3V394.7C102.6,384.6,110.8,376.4,120.9,376.4z"/>
	<path class="st3" d="M372.5,539.6L372.5,539.6c-10.1,0-18.3-8.2-18.3-18.3V394.7c0-10.1,8.2-18.3,18.3-18.3l0,0
		c10.1,0,18.3,8.2,18.3,18.3v126.6C390.8,531.4,382.6,539.6,372.5,539.6z"/>
	<path class="st4" d="M302,215c5.7-19.5,25.5-33.9,45.8-33.2c4.5,0.1,9.2,1.1,12.2,4.4c2.7,3,3.3,7.4,2.5,11.4s-2.9,7.5-5.1,10.9
		c-12.5,18.4-30.9,32.1-52.2,38.9L302,215z"/>
	<path class="st4" d="M189.7,215c-5.7-19.5-25.5-33.9-45.8-33.2c-4.4,0.1-9.2,1.1-12.2,4.4c-2.7,3-3.3,7.4-2.5,11.4
		s2.9,7.5,5.1,10.9c12.5,18.4,30.9,32.1,52.2,38.9L189.7,215z"/>
	<path class="st5" d="M349,484.4c-6.5,18.9-22.9,34.2-42.3,43.2c-18.6,8.6-39.9,11.9-60.8,12c-20.9-0.1-42.2-3.3-60.8-12
		c-19.4-9-35.8-24.3-42.3-43.2c-7.7-22.5-9.3-45.7-2.6-67.2c3.2-10.3,8.3-19.9,14.9-28.4c21.7-28.2,47.1-57.2,48.5-91.6l42.5-0.6
		l42.5,0.6c1.3,34.4,26.7,63.4,48.5,91.6c5.4,7,9.8,14.7,12.9,22.9C358.6,434.7,357.4,460,349,484.4z"/>
	<path class="st6" d="M316.7,247.9l-40.5,76.5c-11.7,24-49,24-60.7,0l-40.5-76.5c-6.7-12.7-4.8-28.2,4.7-38.9
		c5-6.9,10-11.5,15.3-14.5c4.7-2.6,9.8-4.2,15.1-4.7c10.6-1.3,22.2,0.3,35.6-0.2c9.6,0.5,23.4-1.1,35.7,0.4c5.2,0.5,10.3,1.8,15,4.1
		c3.3,1.6,6.1,4,8.2,6.9C317.9,212.8,326,231.2,316.7,247.9z"/>
	<path class="st0" d="M230.3,212l5.6-63.4c0.6-5.5,5.6-9.5,11.1-8.9c4.7,0.5,8.4,4.2,8.9,8.9l5.6,63.4c1,8.6-5.2,16.4-13.8,17.3
		c-8.6,1-16.4-5.2-17.3-13.8c0-0.3-0.1-0.5-0.1-0.8C230.2,213.8,230.2,212.9,230.3,212z"/>
	<path class="st7" d="M296.5,194c-4.7-2.3-9.8-3.7-15-4.1c3.4,7.4,5.2,15.4,5.2,23.5c0,26.6-18.3,48.2-40.9,48.2
		S205,239.9,205,213.4c0-8.2,1.8-16.2,5.2-23.6c-5.3,0.6-10.5,2.2-15.1,4.7c-1.8,6.1-2.6,12.5-2.6,18.9c0,33.5,24,60.7,53.4,60.7
		s53.4-27.2,53.4-60.7C299.3,206.8,298.4,200.3,296.5,194z"/>
	<path class="st8" d="M349,484.4c-6.5,18.9-22.9,34.2-42.3,43.2c-18.6,8.6-39.9,11.9-60.8,12c-20.9-0.1-42.2-3.3-60.8-12
		c-19.4-9-35.8-24.3-42.3-43.2c-7.7-22.5-9.3-45.7-2.6-67.2c9.5,2.2,18.8,5.6,27.5,10.1c14.4,7.4,27.2,17.5,41.4,25.3
		s30.6,13.2,46.5,10c20.6-4.2,35.4-21.6,52.8-33.4c12.6-8.4,26.7-14.4,41.5-17.5C358.6,434.7,357.4,460,349,484.4z"/>
</g>
<g id="head">
	<path class="st2" d="M358.1,62.5c-8.4-8.9-23-6.6-34.5-2.3c-7.6,2.8-15.3,6.3-23.5,6.8c-10.1,0.7-10.9-2.3-13.5-11
		c-4.8-15.9-10.8-32.1-21.8-44.9C259.9,5.5,253,0.4,245.9,0c-7.1,0.4-14,5.5-18.9,11.2c-11,12.8-17,29-21.8,44.9
		c-2.6,8.7-3.3,11.6-13.5,10.9c-8.1-0.5-15.9-4-23.5-6.8c-11.5-4.3-26.1-6.6-34.5,2.3c-8.1,8.6-5.3,22.6-0.6,33.5
		c12.4,28.7,34.8,53.3,63,66.9c15.6,7.5,32.6,11.4,49.9,11.6c17.3-0.2,34.3-4.1,49.9-11.6c28.2-13.6,50.6-38.1,63-66.9
		C363.4,85.1,366.2,71.1,358.1,62.5z"/>
	<path class="st7" d="M224,58.6c7.2-2,11.6-3.8,14.7-6.9s4.9-7.5,6.9-14.7c2,7.2,3.8,11.6,6.9,14.7s7.5,4.9,14.7,6.9
		c-7.2,2-11.6,3.8-14.7,6.9c-3.1,3.1-4.9,7.5-6.9,14.7c-2-7.2-3.8-11.6-6.9-14.7S231.2,60.6,224,58.6z"/>
	<circle class="st7" cx="270.8" cy="80.2" r="5.6"/>
	<circle class="st7" cx="220.4" cy="80.2" r="5.6"/>
	<path class="st9" d="M212.2,112.8c0,7.4-5.2,13.4-11.7,13.4s-11.7-6-11.7-13.4s5.2-13.4,11.7-13.4c0.4,0,0.9,0,1.3,0.1
		c5.4,0.7,9.7,5.6,10.3,11.8C212.2,111.8,212.2,112.3,212.2,112.8z"/>
	<path class="st5" d="M212.1,111.3c-0.6,5.2-4.4,9.2-9.1,9.2c-5.1,0-9.2-4.7-9.2-10.6c0-5.4,3.5-9.8,8.1-10.5
		C207.3,100.2,211.6,105.1,212.1,111.3z"/>
	<ellipse cx="203" cy="109.9" rx="3.9" ry="4.5"/>
	<path class="st1" d="M188.9,112.8c-0.5-3.4,0.3-6.9,2.4-9.8c1.1-1.5,2.4-2.7,4-3.6c3.3-1.8,7.3-1.8,10.6,0c1.6,0.9,2.9,2.1,4,3.5
		c2.1,2.8,2.9,6.3,2.4,9.8c-0.5-3.1-1.8-6.1-3.9-8.5c-3.6-4.3-10-4.8-14.3-1.2c-0.4,0.4-0.8,0.8-1.2,1.2
		C190.7,106.7,189.4,109.6,188.9,112.8z"/>
	<path class="st1" d="M191.4,104.9c-2-0.2-3.7-1.4-4.6-3.1c-0.8-1.6-0.8-3.5,0.1-5.1c-0.5,1.5-0.2,3.2,0.8,4.5
		c0.9,1.1,2.3,1.7,3.8,1.6c0.6-0.1,1.1,0.4,1.2,0.9c0.1,0.6-0.4,1.1-0.9,1.2L191.4,104.9L191.4,104.9z"/>
	<path class="st1" d="M188.8,109c-2.1-0.4-3.9-1.5-5.2-3.2c-0.6-0.8-1-1.8-1.1-2.8c-0.1-1,0.1-1.9,0.6-2.8c-0.5,1.7,0,3.6,1.3,4.7
		c1.2,1.1,2.8,1.7,4.5,1.7c0.6-0.1,1.2,0.4,1.3,1c0.1,0.6-0.4,1.2-1,1.3c-0.1,0-0.1,0-0.2,0C189,109,188.9,109,188.8,109L188.8,109z
		"/>
	<path class="st9" d="M278.4,112.8c0,7.4,5.2,13.4,11.7,13.4s11.7-6,11.7-13.4s-5.2-13.4-11.7-13.4c-0.4,0-0.9,0-1.3,0.1
		c-5.4,0.7-9.7,5.6-10.3,11.8C278.5,111.8,278.4,112.3,278.4,112.8z"/>
	<path class="st5" d="M278.5,111.3c0.6,5.2,4.5,9.2,9.1,9.2c5.1,0,9.2-4.7,9.2-10.6c0-5.4-3.5-9.8-8.1-10.5
		C283.4,100.2,279.1,105.1,278.5,111.3z"/>
	<ellipse cx="287.7" cy="109.9" rx="3.9" ry="4.5"/>
	<path class="st1" d="M301.8,112.8c-0.5-3.1-1.8-6.1-3.9-8.5c-3.6-4.3-10-4.8-14.2-1.2c-0.4,0.4-0.8,0.8-1.2,1.2
		c-2.1,2.4-3.5,5.3-3.9,8.5c-0.5-3.4,0.3-6.9,2.4-9.8c1.1-1.5,2.4-2.7,4-3.5c3.3-1.8,7.3-1.8,10.6,0c1.6,0.9,2.9,2.1,4,3.6
		C301.4,105.8,302.3,109.3,301.8,112.8z"/>
	<path class="st1" d="M299.3,102.8c1.4,0.1,2.8-0.5,3.8-1.6c1-1.3,1.3-3,0.8-4.5c0.9,1.6,0.9,3.5,0.1,5.1c-0.9,1.7-2.6,2.9-4.6,3.1
		h0c-0.6,0.1-1.1-0.3-1.2-0.9c-0.1-0.6,0.3-1.1,0.9-1.2L299.3,102.8z"/>
	<path class="st1" d="M301.7,106.7c1.7,0.1,3.3-0.5,4.5-1.7c1.4-1.2,1.9-3.1,1.4-4.8c0.5,0.8,0.7,1.8,0.6,2.8c-0.1,1-0.5,2-1.1,2.8
		c-1.3,1.7-3.1,2.8-5.2,3.2l0,0c-0.6,0.1-1.2-0.4-1.3-1c-0.1-0.6,0.3-1.1,0.9-1.2L301.7,106.7z"/>
	<path class="st0" d="M236.4,135.7c0.7-0.1,1.4,0,2,0.2c0.6,0.2,1.2,0.5,1.7,0.9c0.5,0.4,1,0.9,1.3,1.5c0.3,0.6,0.5,1.3,0.3,2
		l-1.6-1c-0.4-0.3-0.9-0.6-1.3-1c-0.4-0.3-0.9-0.7-1.2-1.1C237.1,136.7,236.7,136.2,236.4,135.7z"/>
	<path class="st0" d="M255.3,135.7c-0.3,0.6-0.7,1.1-1.1,1.6c-0.4,0.4-0.8,0.8-1.2,1.1c-0.4,0.4-0.9,0.7-1.3,1l-1.6,1
		c-0.1-0.7,0-1.4,0.3-2c0.3-0.6,0.7-1.1,1.3-1.5c0.5-0.4,1.1-0.7,1.7-0.9C254,135.7,254.7,135.6,255.3,135.7z"/>
	<path class="st0" d="M281.4,143.3c-3.1-0.2-6.2,0.5-8.9,1.9c-2.8,1.3-5.4,3-8.2,4.4c-2.8,1.5-5.9,2.5-9,3.2c-6.3,1.2-12.7,1.2-19,0
		c-3.1-0.6-6.2-1.7-9-3.2c-2.8-1.4-5.4-3.1-8.2-4.4c-2.7-1.5-5.8-2.1-8.9-1.9c3.1-0.8,6.3-0.1,9.3,1s5.7,2.6,8.5,3.9
		c5.6,2.5,11.6,3.7,17.8,3.5c6.1,0.2,12.2-1,17.8-3.4c2.8-1.3,5.6-2.8,8.5-3.9S278.4,142.5,281.4,143.3z"/>
</g>
</svg>
