<?xml version="1.0" encoding="utf-8"?>
<!-- Generator: Adobe Illustrator 25.2.0, SVG Export Plug-In . SVG Version: 6.00 Build 0)  -->
<svg version="1.1" id="Layer_1" xmlns="http://www.w3.org/2000/svg" xmlns:xlink="http://www.w3.org/1999/xlink" x="0px" y="0px"
	 viewBox="0 0 268.1 427" style="enable-background:new 0 0 268.1 427;" xml:space="preserve">
<style type="text/css">
	.st0{fill:#C9175F;}
	.st1{fill:#FF4280;}
	.st2{fill:#43DCFF;}
	.st3{clip-path:url(#SVGID_2_);}
	.st4{fill:#FFA400;}
	.st5{fill:none;stroke:#ED6100;stroke-width:2;stroke-miterlimit:10;}
	.st6{clip-path:url(#SVGID_4_);}
	.st7{fill:none;stroke:#E82169;stroke-width:2;stroke-miterlimit:10;}
	.st8{fill:#9AE0E2;fill-opacity:0.2;stroke:#9AE0E2;stroke-width:3.17;stroke-miterlimit:10;}
	.st9{fill:#00B0FF;}
	.st10{fill:#0049FF;}
	.st11{fill:#E9FCFF;}
	.st12{fill:#FFFFFF;}
	.st13{opacity:0.7;fill:#FFFFFF;enable-background:new    ;}
	.st14{fill:#E82169;}
	.st15{clip-path:url(#SVGID_6_);}
</style>
<path id="tail" class="st0" d="M154.7,248.3H104c0,0,9.8,97.5,25.4,97.5S154.7,248.3,154.7,248.3z"/>
<path id="l-thigh" class="st1" d="M120.8,314.7c0,0-5.6,13-14.6,13.4c-10.2,0.4-18.4-12.8-18.4-12.8s-19.7-35.4-20.3-58
	C66.5,219.9,73,201,73,201s40.7,24.6,41.1,47.4C114.6,270.7,116.8,292.8,120.8,314.7z"/>
<g id="l-calf">
	<path class="st1" d="M120.8,387.5c0,9-35.6-3.6-35.6-3.6c3-10.4,5.4-20.9,7.3-31.5c2.3-14.4-4.7-37.2-4.7-37.2l33-0.5L120.8,387.5z
		"/>
	<path class="st1" d="M106.8,363.3c-10.9-0.7-11.6,6.3-21.6,20.6s-42.8,27.2-41.5,32.5s7.6,6,16.3,5.3s9.3-3.3,13.3-3.6
		c0,9.8,10.4,10.4,19.2,7.3c10.5-3.6,8.6-9.6,17.6-6.9s-2.6,8.7,15.6,7.7c10.1-0.5-3.9-13-4.9-46.2
		C120.4,366.3,106.8,363.3,106.8,363.3z"/>
	<path class="st2" d="M124,401.4c0,0-8.2-14.4-21.6-17c-14.2-2.8-22.7,5.5-22.7,5.5l3.2-10.6c0,0,6.8-8.1,20-5.3
		c14.5,3,21,16.8,21,16.8L124,401.4z"/>
</g>
<path id="r-thigh" class="st1" d="M137,314.7c0,0,5.6,13,14.6,13.4c10.2,0.4,18.4-12.8,18.4-12.8s19.7-35.4,20.3-58
	c0.9-37.3-5.5-56.3-5.5-56.3s-40.7,24.6-41.1,47.4C143.3,270.7,141.1,292.8,137,314.7z"/>
<g id="r-calf">
	<path class="st1" d="M137,387.5c0,9,35.6-3.6,35.6-3.6c-3-10.4-5.4-20.9-7.3-31.5c-2.4-14.4,4.7-37.2,4.7-37.2l-33-0.5L137,387.5z"
		/>
	<path class="st1" d="M151.1,363.3c10.9-0.7,11.6,6.3,21.6,20.6s42.8,27.2,41.5,32.5s-7.6,6-16.3,5.3s-9.3-3.3-13.3-3.6
		c0,9.8-10.4,10.4-19.2,7.3c-10.5-3.6-8.6-9.6-17.6-6.9s2.6,8.7-15.6,7.7c-10-0.5,3.9-13,4.9-46.2
		C137.4,366.3,151.1,363.3,151.1,363.3z"/>
	<path class="st2" d="M133.8,401.4c0,0,8.2-14.4,21.6-17c14.2-2.8,22.7,5.5,22.7,5.5l-3.2-10.6c0,0-6.8-8.1-20-5.3
		c-14.5,3-21,16.8-21,16.8V401.4z"/>
</g>
<path id="r-arm" class="st2" d="M199.6,150.8c0,0,17.2,23.4,26.5,36.2s-3.6,25.1-14.9,19.8s-24-16.9-31.3-27.7
	S174.6,135,199.6,150.8z"/>
<g id="r-hand">
	<g>
		<defs>
			<path id="SVGID_1_" d="M224.3,205.7c0,0,19-10.3,29.5-9.2c10.5,1.1,15.3-1.5,14.1-4.4c-1.6-4-9.3-4-9.9-5.8
				c-1.3-3.8,9.3-4.3,4.6-10.6c-2.2-3-15.9,2.6-16.5-5.3c-0.5-6.8-1.8-11.2-6.6-9.5c-4.6,1.7-4.3,10.5-16.2,15.3
				c-0.5,0.2-7.8,0.3-8.4,0.5C199.1,182.2,206.2,202.2,224.3,205.7z"/>
		</defs>
		<clipPath id="SVGID_2_">
			<use xlink:href="#SVGID_1_"  style="overflow:visible;"/>
		</clipPath>
		<g class="st3">
			<path class="st4" d="M224.3,205.7c0,0,19-10.3,29.5-9.2c10.5,1.1,15.3-1.5,14.1-4.4c-1.6-4-9.3-4-9.9-5.8
				c-1.3-3.8,9.3-4.3,4.6-10.6c-2.2-3-15.9,2.6-16.5-5.3c-0.5-6.8-1.8-11.2-6.6-9.5c-4.6,1.7-4.3,10.5-16.2,15.3
				c-0.5,0.2-7.8,0.3-8.4,0.5C199.1,182.2,206.2,202.2,224.3,205.7z"/>
			<path class="st5" d="M234.1,203.6c0,0-9.3-2.6-14.6-8.3s-4.3-15,0.9-18.8c3-2.1,5.5-4.8,7.4-7.9"/>
		</g>
	</g>
</g>
<path id="l-arm" class="st2" d="M60.3,154.8c0,0-18.1,22.8-27.9,35.1s2.6,25.2,14.2,20.4s24.7-15.9,32.4-26.5S86,140,60.3,154.8z"/>
<g id="torso">
	<path class="st1" d="M192.8,140.9l19.2,14.7c0,0-7.6,20.7-21.6,30.4l-7.3-31.6L192.8,140.9z"/>
	<path class="st1" d="M65.1,140.9l-17.7,17.5c0,0,6.1,17.9,20.1,27.6l7.3-31.6L65.1,140.9z"/>
	<g>
		<defs>
			<path id="SVGID_3_" d="M168.6,247.5c-11.4,11.8-15.7,19.8-39.7,19.8s-28.5-7.8-39.7-19.8c-9.6-10.3-19.3-28.9-21.2-46.6
				c-2.3-21.1,2.9-69.5,2.9-69.5h115.8c0,0,5.1,50.6,2.9,69.5C187.8,218.7,178.4,237.4,168.6,247.5z"/>
		</defs>
		<clipPath id="SVGID_4_">
			<use xlink:href="#SVGID_3_"  style="overflow:visible;"/>
		</clipPath>
		<g class="st6">
			<rect x="65.4" y="126.9" class="st1" width="127.5" height="150.2"/>
			<path class="st7" d="M183,154.4c0,0-0.4,47.8-26.1,79.6c-15.7,19.4-14.3,36.8-14.3,36.8h-27.4c0,0,1.4-17.4-14.3-36.8
				c-25.7-31.8-26.1-79.6-26.1-79.6L183,154.4z"/>
		</g>
	</g>
</g>
<g id="head">
	<path class="st8" d="M211.7,88.5c0,48-72.8,90.1-82.8,90.1s-82.7-42.1-82.7-90.1S85,1.6,129,1.6S211.7,40.5,211.7,88.5z"/>
	<path class="st2" d="M167.9,79.8c-6.9-10.2-17-30-38.9-30s-32.1,19.8-39,30c-12.6,18.7-19,51.7-19,51.7s15,44.9,58,44.9
		s57.9-44.9,57.9-44.9S180.5,98.5,167.9,79.8z"/>
	<path class="st9" d="M172.1,151.7c-9.6,18.5-24.4,29.5-43.1,29.5s-34.7-13.3-43.2-29.5c-4.4-8.5-7.8-29.5-7.8-29.5
		s1.7,19.8,7.9-0.3c6-19.5,43.2-1.8,43.2-1.8s39.9-8.5,43.3,1.8c6.7,20.6,7.7,0.3,7.7,0.3S176.4,143.2,172.1,151.7z"/>
	<path class="st10" d="M179.9,121.9c0.3,1.5,0.5,3,0.5,4.5c0,0.8,0,1.6,0,2.3c0,0.9-0.2,1.7-0.5,2.6c-0.2,0.6-0.6,1.2-1.1,1.6
		c-0.4,0.3-0.9,0.6-1.5,0.6c-0.5,0.1-1.1,0-1.6-0.2c-0.7-0.3-1.3-0.7-1.8-1.2c-0.2-0.2-0.4-0.4-0.5-0.6l-0.4-0.6
		c-0.5-0.8-0.9-1.4-1.3-2.1l-1.2-1.9c-1.2-2.3-2.9-4.3-4.8-6c-0.7-0.6-1.5-1-2.4-1.1c-0.6-0.1-1.3,0-1.9,0.2l-0.4,0.2l-0.2,0.1
		l-0.4,0.1c-0.5,0.1-1,0.3-1.5,0.5c-1,0.4-1.9,0.8-2.8,1.3c-1.9,1-4,2.3-6.7,3.7c-3,1.6-6.2,2.9-9.4,3.8c-7.2,2-14.8,2-22,0
		c-3.3-0.9-6.4-2.2-9.4-3.9c-2.7-1.4-4.8-2.8-6.7-3.8c-0.9-0.5-1.9-1-2.9-1.4c-0.5-0.2-1-0.4-1.5-0.5L97,120l-0.2-0.1
		c-0.2-0.1-0.3-0.1-0.5-0.2c-0.6-0.3-1.3-0.3-2-0.2c-0.9,0.2-1.8,0.6-2.5,1.2c-2,1.7-3.6,3.8-4.9,6.1l-1.2,1.9
		c-0.4,0.7-0.8,1.4-1.3,2.1c-0.3,0.4-0.6,0.8-0.9,1.1c-0.5,0.5-1,0.9-1.6,1.1c-0.4,0.2-0.9,0.2-1.4,0.2c-0.5-0.1-0.9-0.3-1.3-0.6
		c-0.5-0.4-0.8-0.9-1-1.5c-0.3-0.8-0.4-1.6-0.5-2.5c-0.1-0.8-0.1-1.5-0.1-2.3c0-1.5,0.1-3,0.3-4.4c0.3,1.4,0.7,2.8,1.1,4.2
		c0.2,0.7,0.5,1.3,0.8,2c0.2,0.6,0.5,1.1,0.9,1.6c0.2,0.2,0.4,0.3,0.3,0.2c-0.1-0.1-0.2-0.2-0.3-0.2c-0.1,0-0.2,0-0.3,0
		c-0.1,0,0-0.1,0-0.3s0.2-0.4,0.2-0.7c0.3-1.1,0.6-2.6,0.8-4c0.5-3.3,1.4-6.5,2.8-9.5c0.9-1.9,2.1-3.6,3.7-5c1.7-1.6,3.8-2.8,6-3.5
		c0.6-0.2,1.1-0.3,1.7-0.5l0.8-0.2l0.7-0.1c0.9-0.2,1.9-0.3,2.8-0.4c1.9-0.2,3.8-0.2,5.7,0c3.3,0.4,6.6,0.9,9.8,1.7
		c4.4,1.1,8.9,1.7,13.5,1.7c4.5-0.1,9-0.7,13.4-1.9c3.2-0.8,6.5-1.4,9.8-1.8c1.9-0.2,3.8-0.2,5.8,0c1,0.1,1.9,0.2,2.9,0.4l0.7,0.1
		l0.9,0.2c0.6,0.1,1.1,0.3,1.7,0.4c2.3,0.7,4.4,1.9,6.1,3.5c1.5,1.4,2.8,3.1,3.7,5c1.4,3,2.4,6.2,2.9,9.6c0.3,1.4,0.5,2.9,0.8,4
		l0.2,0.6c0,0.1,0,0.2-0.1,0.2c-0.2,0-0.4,0-0.5,0c-0.2,0-0.4,0.1-0.5,0.3c-0.1,0.2,0.1,0.1,0.2-0.1c0.4-0.5,0.7-1,0.9-1.5
		c0.3-0.6,0.6-1.3,0.8-1.9C179,124.7,179.5,123.3,179.9,121.9z"/>
	<path class="st4" d="M126.6,63.1l-5.2-33.2c-0.6-4.1,2.2-8,6.3-8.7c4.1-0.6,8,2.2,8.7,6.3l0,0c0.1,0.8,0.1,1.6,0,2.3l-5.2,33.2
		c-0.2,1.3-1.4,2.1-2.6,2C127.6,64.9,126.8,64.1,126.6,63.1L126.6,63.1z"/>
	<circle class="st9" cx="128.9" cy="77.8" r="3.1"/>
	<circle class="st9" cx="121.8" cy="88.5" r="3.1"/>
	<circle class="st9" cx="136" cy="88.5" r="3.1"/>
	<path class="st10" d="M115.1,54.1v4.3c0,0-7.6,0.5-11,2.9c-1.9,1.3-3.3,3.2-3.9,5.5c0,0,0.6-11,5.4-12
		C108.7,54.2,111.9,53.9,115.1,54.1z"/>
	<path class="st10" d="M142.8,54.1v4.3c0,0,7.6,0.5,10.9,2.9c1.9,1.3,3.3,3.2,3.9,5.5c0,0-0.6-11-5.4-12
		C149.1,54.2,146,53.9,142.8,54.1z"/>
	<path class="st11" d="M89.7,75.1c-3.8,8.6-1.6,16,3,19.8s10.1-3.9,13.9-12.5s5.7-18.6-0.2-18.7S93.5,66.5,89.7,75.1z"/>
	
		<ellipse transform="matrix(0.4107 -0.9118 0.9118 0.4107 -13.8174 138.4702)" class="st4" cx="100.2" cy="79.9" rx="13.3" ry="5.7"/>
	<ellipse transform="matrix(0.4107 -0.9118 0.9118 0.4107 -13.8174 138.4702)" cx="100.2" cy="79.9" rx="8.4" ry="3.6"/>
	<path class="st11" d="M168.1,75.1c3.8,8.6,1.6,16-3,19.8s-10.1-3.8-13.8-12.4s-5.7-18.6,0.2-18.7S164.3,66.5,168.1,75.1z"/>
	
		<ellipse transform="matrix(0.9118 -0.4107 0.4107 0.9118 -18.9124 71.8016)" class="st4" cx="157.7" cy="79.9" rx="5.7" ry="13.3"/>
	<ellipse transform="matrix(0.9118 -0.4107 0.4107 0.9118 -18.9124 71.8016)" cx="157.7" cy="79.9" rx="3.6" ry="8.4"/>
	<circle class="st12" cx="157.6" cy="37.6" r="6.3"/>
	<circle class="st12" cx="178.4" cy="63.1" r="3.7"/>
	<circle class="st12" cx="177.8" cy="44.6" r="4.3"/>
	<path class="st13" d="M72.4,70.4c-3.3-1.7-6.5-3.7-9.5-5.8c-7.5,42.3,12,62.3,12,62.3C68,103,68.6,84.5,72.4,70.4z"/>
	<path class="st12" d="M104,17.3c0,0-30.8,11.2-39.5,40.5c3.1,2.4,6.5,4.6,10,6.4C83.4,40,102,31.2,102,31.2
		C100.6,27.6,104,17.3,104,17.3z"/>
	<path class="st13" d="M190.4,66.8c0,0,8.9,35.2-20.4,72.2c0,0,27.4-22.1,30.2-50.6S190.4,66.8,190.4,66.8z"/>
</g>
<g id="collar">
	<path class="st14" d="M67.1,129.8c0,0-5.1-2.9-8.3,0c-6.2,5.6-3.3,7.8,0,15.1s20.3,58.8,70.2,58.8v-25.2
		c-11.2-1-25.1-1.3-41.1-23.6C71,131.4,67.1,129.8,67.1,129.8z"/>
	<path class="st14" d="M190.8,129.8c0,0,5.1-2.9,8.3,0c6.2,5.6,3.3,7.8,0,15.1s-20.3,58.8-70.2,58.8v-25.2
		c11.1-1,25.1-1.3,41.1-23.6C186.9,131.4,190.8,129.8,190.8,129.8z"/>
</g>
<g id="l-hand">
	<g>
		<defs>
			<path id="SVGID_5_" d="M31.3,188.3c0,0-11,18.6-20.6,23s-12.4,9.2-9.9,11.1c3.5,2.6,10.1-1.3,11.4-0.1c3,2.6-5.7,8.5,1.5,11.4
				c3.4,1.4,12.3-10.4,16.8-3.9c3.9,5.6,7.3,8.7,10.5,4.8c3.1-3.8-1.7-11.2,6-21.5c0.3-0.4,6.5-4.3,6.9-4.8
				C65,195.5,48.6,182,31.3,188.3z"/>
		</defs>
		<clipPath id="SVGID_6_">
			<use xlink:href="#SVGID_5_"  style="overflow:visible;"/>
		</clipPath>
		<g class="st15">
			<path class="st4" d="M31.3,188.3c0,0-11,18.6-20.6,23s-12.4,9.2-9.9,11.1c3.5,2.6,10.1-1.3,11.4-0.1c3,2.6-5.7,8.5,1.5,11.4
				c3.4,1.4,12.3-10.4,16.8-3.9c3.9,5.6,7.3,8.7,10.5,4.8c3.1-3.8-1.7-11.2,6-21.5c0.3-0.4,6.5-4.3,6.9-4.8
				C65,195.5,48.6,182,31.3,188.3z"/>
			<path class="st5" d="M23.9,195.1c0,0,9.3-2.5,16.8-0.4s11.4,10.7,8.9,16.6c-1.5,3.3-2.2,6.9-2.3,10.6"/>
		</g>
	</g>
</g>
</svg>
