<?xml version="1.0" encoding="utf-8"?>
<!-- Generator: Adobe Illustrator 25.2.0, SVG Export Plug-In . SVG Version: 6.00 Build 0)  -->
<svg version="1.1" id="Layer_1" xmlns="http://www.w3.org/2000/svg" xmlns:xlink="http://www.w3.org/1999/xlink" x="0px" y="0px"
	 viewBox="0 0 328.3 381.9" style="enable-background:new 0 0 328.3 381.9;" xml:space="preserve">
<style type="text/css">
	.st0{fill:#E82169;}
	.st1{fill:#00B0FF;}
	.st2{fill:#43DCFF;}
	.st3{fill:#FF4280;}
	.st4{clip-path:url(#SVGID_2_);}
	.st5{fill:#ED6100;}
	.st6{fill:none;stroke:#ED6100;stroke-width:2;stroke-miterlimit:10;}
	.st7{fill:#9AE0E2;fill-opacity:0.2;stroke:#9AE0E2;stroke-width:3.14;stroke-miterlimit:10;}
	.st8{fill:#FFA400;}
	.st9{fill:#E9FCFF;}
	.st10{fill:#0049FF;}
	.st11{fill:#FFFFFF;}
	.st12{opacity:0.7;fill:#FFFFFF;enable-background:new    ;}
	.st13{fill:none;stroke:#E82169;stroke-width:2;stroke-miterlimit:10;}
	.st14{fill:#C9175F;}
	.st15{clip-path:url(#SVGID_4_);}
</style>
<path id="b-thigh" class="st0" d="M134.6,299.1c0,0-67-8.8-71.6-41.7c-1.4-10.1,8.5-25.3,29.6-41.9c30.8-24.2,51.2-26,69.3-20.8
	c43,12.5,33.2,87.2-33.8,72.6C124.5,273.4,134.6,299.1,134.6,299.1z"/>
<g id="b-calf">
	<path class="st0" d="M119.7,341.9c-8.7,9-32.4-8.4-32.4-8.4s13.4-17.6,19.3-31.9c5.6-13.5,11.1-37.5,11.1-37.5l36.4,3.2
		C154.2,267.4,118.8,322.2,119.7,341.9z"/>
	<path class="st0" d="M109.6,317.3c-11-0.7-8.2-3.6-21.2,12.4c-3.1,3.8-15,11.2-21,13.6c-15.6,6.1-40.4,1.5-40.4,14.7
		c0,5.5,8.9,6.8,21.5,6.8c1.5,6,17.7,5.5,29.4,5.6c15.1,0.1,25.7-7.2,32.7-9.8c7.2,8.4,27.8,14.2,26.7,4.2
		c-1.3-11.6-15.9-0.7-16.9-33.9C114,316.6,109.6,317.3,109.6,317.3z"/>
	<path class="st1" d="M122.9,346.2c0,0-7.7-7.2-16.8-11S86,330.5,86,330.5l7.1-9.7c5.9,0.8,11.6,2.4,17.1,4.7
		c9.1,3.8,13.5,8.3,13.5,8.3L122.9,346.2z"/>
</g>
<g id="b-arm">
	<path class="st2" d="M123.6,170.8c0,0-29-2-44.8-3s-19.3,16.5-8.7,23.2s27.1,11.3,40.2,11.6S150.4,183.6,123.6,170.8z"/>
	<path class="st3" d="M107.7,208.2c0,0,8.6-13.8,6.4-25.9s-9.7-16.4-9.7-16.4s21.4,0,27,6.8s6.6,14.5,0.3,23.4
		C125.3,205.1,122.5,209.3,107.7,208.2z"/>
</g>
<g id="b-hand">
	<g>
		<defs>
			<path id="SVGID_1_" d="M79.6,165.9c0,0-21.6,1.5-30.6-3.9s-14.6-5-14.7-1.8c-0.2,4.3,6.8,7.5,6.6,9.3c-0.4,4-10.2,0.1-8.6,7.7
				c0.8,3.6,15.6,4.2,12.8,11.6c-2.4,6.4-3.1,11,2,11.4c4.9,0.4,8.3-7.8,21.1-7.2c0.6,0,7.3,2.9,7.9,3
				C92.7,197.7,94.6,176.6,79.6,165.9z"/>
		</defs>
		<clipPath id="SVGID_2_">
			<use xlink:href="#SVGID_1_"  style="overflow:visible;"/>
		</clipPath>
		<g class="st4">
			<path class="st5" d="M79.6,165.9c0,0-21.6,1.5-30.6-3.9s-14.6-5-14.7-1.8c-0.2,4.3,6.8,7.5,6.6,9.3c-0.4,4-10.2,0.1-8.6,7.7
				c0.8,3.6,15.6,4.2,12.8,11.6c-2.4,6.4-3.1,11,2,11.4c4.9,0.4,8.3-7.8,21.1-7.2c0.6,0,7.3,2.9,7.9,3
				C92.7,197.7,94.6,176.6,79.6,165.9z"/>
			<path class="st6" d="M69.8,163.7c0,0,7.3,6.2,9.8,13.6s-2.4,15.4-8.6,16.7c-3.6,0.7-7,2.1-10,4.1"/>
		</g>
	</g>
</g>
<g id="head">
	<path class="st7" d="M190,83.9c0,68.7-43.8,98.9-89.3,98.9S-6,150.4,2.3,83.9c5.3-42,52.9-82.4,98.4-82.4S190,38.4,190,83.9z"/>
	<path class="st2" d="M193.4,136.9c-17.9,5.7-35.4,12.5-52.5,20.4c-10.1,4.8-19.9,11.9-29.6,17.4c-8.9,5.1-17.8,8.8-26.9,8.1
		c-35-2.4-50-43.1-54.4-57.9c-1-3.3-1.4-5.3-1.4-5.3s17.5-23.2,38.5-42.4c11.5-10.5,28.3-26.4,59.1-23.9c21.9,1.8,32.1,19.7,39,30
		C177.7,102,193.4,136.9,193.4,136.9z"/>
	<path class="st8" d="M67.1,77.2c0,0,19.1-19.6,39.7-20.6c27.5-1.2,57.4,24.8,60.7,30.4c0,0-5.9-23.2-12.2-34s-22.8-26.8-38.8-26.8
		C97.6,26.2,70.4,61,67.1,77.2z"/>
	<path class="st1" d="M111.3,174.7c-8.9,5.1-17.8,8.8-26.9,8.1c-35-2.4-50-43.1-54.4-57.9c4.3,0.4,8.6,0,12.8-1
		c17.4-4.8,21.9-8.1,31-3.4s17,18.5,27.2,12.6C100.9,133.1,100,157.3,111.3,174.7z"/>
	<circle class="st9" cx="115.5" cy="88.2" r="17"/>
	<circle class="st8" cx="112.7" cy="88.2" r="12.9"/>
	<circle cx="112.7" cy="88.2" r="7.3"/>
	<ellipse transform="matrix(0.6625 -0.7491 0.7491 0.6625 -45.9722 73.3546)" class="st1" cx="58.4" cy="87.7" rx="3.1" ry="0.6"/>
	<ellipse transform="matrix(0.5861 -0.8102 0.8102 0.5861 -56.0572 84.4093)" class="st1" cx="54.6" cy="97.1" rx="3.1" ry="1.5"/>
	<path class="st10" d="M104.7,128.1c-0.5,1.9-1.4,3.7-2.5,5.2c-1.3,1.8-3.2,3.1-5.4,3.7c-1.2,0.2-2.4,0.2-3.6,0
		c-1.1-0.2-2.2-0.5-3.2-1c-1.9-0.9-3.8-2.1-5.4-3.5c-3.2-2.6-5.9-5.3-8.6-7c-1.1-0.8-2.3-1.3-3.7-1.6c-0.9-0.2-1.8-0.1-2.7,0.2
		c-1,0.3-2.1,0.7-3,1.3c-1.1,0.6-2.5,1.4-4.2,2.4c-1.9,1.1-3.9,2-6,2.7c-2.3,0.9-4.8,1.5-7.2,1.8c-2.5,0.3-4.9,0.4-7.4,0.3
		c-2.3-0.2-4.6-0.5-6.9-1c-4.2-0.9-8.4-2.3-12.3-4.1c-5.6-2.4-8.3-8.9-5.9-14.5c2.4-5.6,8.9-8.3,14.5-5.9c0.1,0,0.2,0.1,0.3,0.1l0,0
		c2.8,1.3,5.7,2.4,8.6,3.3c2.5,0.8,5.1,1.3,7.7,1.6c1.2,0.1,2.5,0.1,3.8,0c1.5-0.2,3-0.5,4.5-0.8c1.8-0.4,3.8-0.9,6.2-1.4
		c2.6-0.5,5.3-0.5,8-0.1c2.9,0.4,5.6,1.5,8,3.2c2,1.4,3.7,3.1,5.2,5.1c2.6,3.5,4.2,6.9,6.2,9.7c0.9,1.3,1.9,2.6,3.1,3.7
		c1,0.9,2.3,1.6,3.7,1.8c1.5,0.1,3.1-0.4,4.3-1.3C102.3,130.9,103.6,129.6,104.7,128.1z"/>
	<path class="st11" d="M39.8,55.6c-2.2-3.2-4.1-6.5-5.8-10c-27.3,40.6-19.4,69.5-19.4,69.5C20,87.4,29.5,68.5,39.8,55.6z"/>
	<path class="st11" d="M94.1,14c0,0-33.3-1.5-55.4,25.1c1.6,3.8,3.6,7.4,5.9,10.9c19.9-21.1,40.9-22.4,40.9-22.4
		C86.1,23.3,94.1,14,94.1,14z"/>
	<path class="st12" d="M174.2,69.2c0,0,4,35.7-35.3,64.2c0,0,35.7-14.3,43.5-41.8S174.2,69.2,174.2,69.2z"/>
	<path class="st10" d="M112.7,61.4v4.3c0,0,7.6,0.5,11,2.9c1.9,1.3,3.3,3.2,3.9,5.5c0,0-0.6-11-5.4-12
		C119.1,61.5,115.9,61.2,112.7,61.4z"/>
	<circle class="st11" cx="65.4" cy="45.1" r="6.3"/>
	<circle class="st11" cx="56" cy="76.5" r="3.7"/>
	<circle class="st11" cx="49.5" cy="59.3" r="4.3"/>
</g>
<path id="tail" class="st0" d="M234.8,213.5c0,0,25.5,52.7,32.1,72.9c11.9,36.5,59.8,36.9,61.4,71c0.6,13.3-3.4,15.5-3.4,15.5
	s-6.3-16.3-15.7-20.9c-14.1-6.9-29.2-7.6-51.3-23c-24.8-17.3-27.1-41.1-75.8-57S213.6,167.1,234.8,213.5z"/>
<g id="torso">
	<path class="st3" d="M146.3,264.4c-24.8-7.2-65-38.9-76.9-85.2c0,0,15.6,33.3,76-26.4c27.2-26.8,48.1-14.7,48.1-14.7
		s45,66.5,45,92.4s-9.9,31.9-24.5,36.8S170.2,271.3,146.3,264.4z"/>
	<path class="st0" d="M188,120.9c0,0,3.8-2.7,6.6,5.2c3.4,9.8,6.2,8.3,2.9,15.6c-2,4.3-40.6,7-64,35c-12.6,15-26,34.4-48.5,35.8
		c-4.4,0.3-8.5-2.1-10.5-5.9c-4.9-9-21-18.2-8.6-29.2c18.5,5.5,32.8,7.7,58-19.9C146.2,133,188,120.9,188,120.9z"/>
	<path class="st13" d="M123.9,186c0,0-13.2,79.6,55.4,84.2"/>
</g>
<path id="f-thigh" class="st3" d="M184.5,310.7c0,0-67-8.8-71.6-41.7c-1.4-10.1,8.5-25.3,29.6-41.9c30.8-24.2,51.2-26,69.3-20.8
	c43,12.5,33.2,87.2-33.8,72.6C174.4,285,184.5,310.7,184.5,310.7z"/>
<g id="f-calf">
	<path class="st3" d="M169.6,353.5c-8.6,9-32.4-8.4-32.4-8.4s13.4-17.6,19.3-31.9c5.6-13.5,11.1-37.5,11.1-37.5l36.4,3.2
		C204.1,278.9,168.7,333.8,169.6,353.5z"/>
	<path class="st3" d="M159.6,328.9c-10.9-0.7-8.2-3.6-21.2,12.4c-3.1,3.8-15,11.2-21,13.6c-15.6,6.1-40.4,1.5-40.4,14.7
		c0,5.5,8.8,6.8,21.5,6.8c1.6,6,17.7,5.5,29.5,5.6c15.1,0.1,25.6-7.2,32.7-9.8c7.2,8.4,27.8,14.2,26.6,4.2
		c-1.3-11.6-15.9-0.7-16.9-33.9C163.9,328.2,159.6,328.9,159.6,328.9z"/>
	<path class="st2" d="M172.9,357.8c0,0-7.7-7.2-16.8-11s-20.2-4.7-20.2-4.7l7.1-9.7c5.9,0.8,11.6,2.4,17.1,4.7
		c9.1,3.8,13.6,8.3,13.6,8.3L172.9,357.8z"/>
</g>
<g id="f-arm">
	<path class="st14" d="M168.7,166.9c8,1.3,15.8,7.6,14,20.1s-15.2,22.3-23.2,21s-9.8-11.1-8-23.6S160.7,165.6,168.7,166.9z"/>
	<path class="st2" d="M145.2,191.8c0,0,21.1,20.1,32.5,30.9s25.4-0.4,21.5-12.3s-13.7-26-23.6-34.6S132.8,164.9,145.2,191.8z"/>
	<path class="st3" d="M181.4,173.2c0,0-15.4,5.2-21.4,15.9s-3,18.8-3,18.8s-16.5-13.7-16.4-22.5s4.2-15.4,14.8-18.2
		S170.7,162.9,181.4,173.2z"/>
</g>
<g id="f-hand">
	<g>
		<defs>
			<path id="SVGID_3_" d="M176.1,223.7c0,0,17.6,12.6,21.1,22.5s8,13.2,10.1,10.8c2.9-3.2-0.4-10.1,0.9-11.4
				c2.9-2.8,7.9,6.5,11.5-0.5c1.7-3.3-9.3-13.2-2.4-17.1c5.9-3.4,9.4-6.5,5.7-10.1c-3.5-3.4-11.4,0.7-20.9-7.9
				c-0.4-0.4-3.7-6.9-4.1-7.3C186.2,190.8,171.3,205.9,176.1,223.7z"/>
		</defs>
		<clipPath id="SVGID_4_">
			<use xlink:href="#SVGID_3_"  style="overflow:visible;"/>
		</clipPath>
		<g class="st15">
			<path class="st8" d="M176.1,223.7c0,0,17.6,12.6,21.1,22.5s8,13.2,10.1,10.8c2.9-3.2-0.4-10.1,0.9-11.4c2.9-2.8,7.9,6.5,11.5-0.5
				c1.7-3.3-9.3-13.2-2.4-17.1c5.9-3.4,9.4-6.5,5.7-10.1c-3.5-3.4-11.4,0.7-20.9-7.9c-0.4-0.4-3.7-6.9-4.1-7.3
				C186.2,190.8,171.3,205.9,176.1,223.7z"/>
			<path class="st6" d="M182.2,231.6c0,0-1.7-9.5,1.1-16.8s11.6-10.4,17.3-7.4c3.2,1.8,6.7,2.8,10.3,3.2"/>
		</g>
	</g>
</g>
</svg>
