<?xml version="1.0" encoding="utf-8"?>
<!-- Generator: Adobe Illustrator 26.0.0, SVG Export Plug-In . SVG Version: 6.00 Build 0)  -->
<svg version="1.1" id="Layer_1" xmlns="http://www.w3.org/2000/svg" xmlns:xlink="http://www.w3.org/1999/xlink" x="0px" y="0px"
	 viewBox="0 0 700 1145.7" style="enable-background:new 0 0 700 1145.7;" xml:space="preserve">
<style type="text/css">
	.st0{fill:#C9175F;}
	.st1{fill:#FF4280;}
	.st2{fill:#43DCFF;}
	.st3{clip-path:url(#SVGID_00000054224592312700300480000015985607574014327722_);}
	.st4{fill:#FFA400;}
	.st5{fill:none;stroke:#ED6100;stroke-width:0.6357;stroke-miterlimit:10;}
	.st6{clip-path:url(#SVGID_00000139275881366665520380000016779267434345285030_);}
	.st7{clip-path:url(#SVGID_00000088128455500835086460000005147589351050114235_);}
	.st8{fill:none;stroke:#E82169;stroke-width:0.6357;stroke-miterlimit:10;}
	.st9{fill:#9AE0E2;fill-opacity:0.2;stroke:#9AE0E2;stroke-width:1.0075;stroke-miterlimit:10;}
	.st10{fill:#00B0FF;}
	.st11{fill:#0049FF;}
	.st12{fill:#E9FCFF;}
	.st13{fill:#FFFFFF;}
	.st14{fill:#FFFFFF;fill-opacity:0.7;}
	.st15{fill:#E82169;}
</style>
<g>
	<g transform="translate(-12 -948)">
		<g>
			<g>
				<g>
					<g>
						<g>
							<g>
								<path class="st0" d="M430.7,1612.2h-135c0,0,26.1,262.4,67.6,262.4C404.9,1874.7,430.7,1612.2,430.7,1612.2z"/>
								<path class="st1" d="M383.6,1791.2c0,0,14.9,35,38.9,36.1c27.2,1.1,49-34.5,49-34.5s52.5-95.3,54.1-156.1
									c2.7-100.4-14.6-151.5-14.6-151.5s-108.4,66.2-109.4,127.6C400.3,1672.5,394.5,1732.3,383.6,1791.2z"/>
								<path class="st1" d="M383.6,1987.2c0,24.2,94.8-9.7,94.8-9.7c-8-28-14.4-56.3-19.4-84.8c-6.4-38.8,12.5-100.1,12.5-100.1
									l-87.9-1.3V1987.2z"/>
								<path class="st1" d="M421.1,1922c29-1.9,30.9,17,57.5,55.5c26.6,38.5,114,73.2,110.5,87.5c-3.5,14.3-20.2,16.1-43.4,14.3
									c-23.2-1.9-24.8-8.9-35.4-9.7c0,26.4-27.7,28-51.1,19.6c-28-9.7-22.9-25.8-46.9-18.6c-24,7.3,6.9,23.4-41.5,20.7
									c-26.6-1.3,10.4-35,13-124.4C384.6,1930.1,421.1,1922,421.1,1922z"/>
								<path class="st2" d="M375,2024.6c0,0,21.8-38.8,57.5-45.8c37.8-7.5,60.4,14.8,60.4,14.8l-8.5-28.3c0,0-18.1-21.8-53.3-14.5
									c-38.6,8.1-55.9,45.2-55.9,45.2L375,2024.6z"/>
								<path class="st1" d="M340.4,1791.2c0,0-14.9,35-38.9,36.1c-27.2,1.1-49-34.5-49-34.5s-52.5-95.3-54.1-156.1
									c-2.4-100.7,14.6-151.5,14.6-151.5s108.4,66.2,109.4,127.6C323.9,1672.5,329.8,1732.3,340.4,1791.2z"/>
								<path class="st1" d="M340.4,1987.2c0,24.2-94.8-9.7-94.8-9.7c8-28,14.4-56.3,19.4-84.8c6.1-38.8-12.5-100.1-12.5-100.1
									l87.9-1.3V1987.2z"/>
								<path class="st1" d="M303.1,1922c-29-1.9-30.9,17-57.5,55.5c-26.6,38.5-114,73.2-110.5,87.5c3.5,14.3,20.2,16.1,43.4,14.3
									c23.2-1.9,24.8-8.9,35.4-9.7c0,26.4,27.7,28,51.1,19.6c28-9.7,22.9-25.8,46.9-18.6c24,7.3-6.9,23.4,41.5,20.7
									c26.9-1.3-10.4-35-13-124.4C339.4,1930.1,303.1,1922,303.1,1922z"/>
								<path class="st2" d="M349,2024.6c0,0-21.8-38.8-57.5-45.8c-37.8-7.5-60.4,14.8-60.4,14.8l8.5-28.3c0,0,18.1-21.8,53.3-14.5
									c38.6,8.1,55.9,45.2,55.9,45.2v28.5H349z"/>
								<path class="st2" d="M544.7,1360.6c0,0,48.2,61.4,74.3,94.7c25.8,33.4-6.9,67.8-37.5,54.9c-30.6-12.9-65.8-42.8-86.3-71.6
									C474.6,1409.8,476.5,1321,544.7,1360.6z"/>
								<g>
									<defs>
										<path id="SVGID_1_" d="M621.9,1451c0,0,29.3,50.1,54.9,61.9c25.6,11.8,33,24.5,26.1,29.9c-9.3,7-26.9-3.5-30.4-0.3
											c-8,7,15.2,22.9-4,30.7c-9.1,3.8-32.8-28-45-10.6c-10.4,15.1-19.4,23.7-28,13c-8.3-10.3,4.5-30.2-16-57.9
											c-0.8-1.1-17.3-11.6-18.4-12.9C532.4,1470.4,575.8,1434.1,621.9,1451z"/>
									</defs>
									<clipPath id="SVGID_00000096752273760205711000000012959449278519480254_">
										<use xlink:href="#SVGID_1_"  style="overflow:visible;"/>
									</clipPath>
									<g style="clip-path:url(#SVGID_00000096752273760205711000000012959449278519480254_);">
										<path class="st4" d="M621.9,1451c0,0,29.3,50.1,54.9,61.9c25.6,11.8,33,24.5,26.1,29.9c-9.3,7-26.9-3.5-30.4-0.3
											c-8,7,15.2,22.9-4,30.7c-9.1,3.8-32.8-28-45-10.5c-10.4,15.1-19.4,23.7-28,12.9c-8.3-10.2,4.5-30.1-16-57.9
											c-0.8-1.1-17.3-11.6-18.4-12.9C532.4,1470.4,575.8,1434.1,621.9,1451z"/>
										<path class="st5" d="M641.9,1469.3c0,0-24.8-6.7-44.7-1.1c-20,5.7-30.4,28.8-23.7,44.7c4,8.9,5.9,18.6,6.1,28.5"/>
									</g>
								</g>
								<path class="st2" d="M179.3,1360.6c0,0-48.2,61.4-74.3,94.7c-26.1,33.4,7.2,67.8,37.8,54.9c30.6-12.9,65.8-42.8,86.3-71.3
									C249.6,1410.4,247.8,1321,179.3,1360.6z"/>
								<g>
									<defs>
										<path id="SVGID_00000151502188334668802670000005996124226025934777_" d="M102.1,1451c0,0-29.3,50.1-54.9,61.9
											c-25.6,11.8-33,24.5-26.1,29.9c9.3,7,26.6-3.5,30.4-0.3c8,7-15.2,22.9,4,30.7c9.1,3.8,32.8-28,44.7-10.6
											c10.4,15.1,19.4,23.7,28,13c8.3-10.3-4.5-30.2,16-57.9c0.8-1.1,17.3-11.6,18.4-12.9C191.8,1470.4,148.2,1434.1,102.1,1451
											z"/>
									</defs>
									<clipPath id="SVGID_00000105409962961806238340000000021664499671052710_">
										<use xlink:href="#SVGID_00000151502188334668802670000005996124226025934777_"  style="overflow:visible;"/>
									</clipPath>
									<g style="clip-path:url(#SVGID_00000105409962961806238340000000021664499671052710_);">
										<path class="st4" d="M102.1,1451c0,0-29.3,50.1-54.9,61.9c-25.6,11.8-33,24.5-26.1,29.9c9.3,7,26.6-3.5,30.4-0.3
											c8,7-15.2,22.9,4,30.7c9.1,3.8,32.8-28,44.7-10.5c10.4,15.1,19.4,23.7,28,12.9c8.3-10.2-4.5-30.1,16-57.9
											c0.8-1.1,17.3-11.6,18.4-12.9C191.8,1470.4,148.2,1434.1,102.1,1451z"/>
										<path class="st5" d="M82.7,1469.3c0,0,24.8-6.7,44.7-1.1c20,5.7,30.4,28.8,23.7,44.7c-4,8.9-5.9,18.6-5.9,28.5"/>
									</g>
								</g>
								<path class="st1" d="M532.2,1323.4l47.1,47.1c0,0-16.2,48.2-53.5,74.3l-19.4-85.1L532.2,1323.4z"/>
								<path class="st1" d="M192.1,1323.4l-47.1,47.1c0,0,16.2,48.2,53.8,74.3l19.4-85.1L192.1,1323.4z"/>
								<g>
									<defs>
										<path id="SVGID_00000115503484860831804120000001419941631067437443_" d="M467.7,1610.4c-30.4,31.8-41.8,53.3-105.5,53.3
											s-75.9-21-105.7-53.3c-25.6-27.7-51.4-77.8-56.5-125.4c-6.1-56.8,7.7-187.1,7.7-187.1h308.4c0,0,13.6,136.2,7.7,187.1
											C518.8,1532.9,493.8,1583.1,467.7,1610.4z"/>
									</defs>
									<clipPath id="SVGID_00000036224295866919665010000012537247223459080092_">
										<use xlink:href="#SVGID_00000115503484860831804120000001419941631067437443_"  style="overflow:visible;"/>
									</clipPath>
									<g style="clip-path:url(#SVGID_00000036224295866919665010000012537247223459080092_);">
										<path class="st1" d="M192.9,1285.8h339.5V1690H192.9V1285.8z"/>
										<path class="st8" d="M506.1,1359.8c0,0-1.1,128.7-69.5,214.2c-41.8,52.2-38.1,99-38.1,99h-73c0,0,3.7-46.8-38.1-99
											c-68.4-85.6-69.5-214.2-69.5-214.2H506.1z"/>
									</g>
								</g>
								<path class="st9" d="M582.5,1182.4c0,129.2-193.9,242.2-220.5,242.2c-26.6,0-220.5-113.3-220.5-242.2
									s103.6-233.9,220.8-233.9S582.5,1053.2,582.5,1182.4z"/>
								<path class="st2" d="M465.9,1158.7c-18.4-27.5-45.3-80.7-103.9-80.7c-58.6,0-85.2,53.3-103.6,80.7
									c-33.6,50.3-50.6,139.2-50.6,139.2s39.9,120.9,154.5,120.9s154.2-120.9,154.2-120.9S499.4,1209.3,465.9,1158.7z"/>
								<path class="st10" d="M477,1352.5c-25.6,49.8-65,79.4-115,79.4s-92.7-35.8-115-79.4c-11.7-22.6-21-79.4-21-79.4
									s4.5,53.3,21-0.8c16-52.5,115-4.8,115-4.8s106.3-22.9,115.3,4.8c17.8,55.4,20.5,0.8,20.5,0.8S488.5,1329.6,477,1352.5z"/>
								<path class="st11" d="M498.1,1272.3c0.8,4,1.3,8.1,1.6,12.1c0,2.2,0,4.3,0,6.2c0,2.4-0.5,4.6-1.3,7
									c-0.5,1.6-1.6,3.2-2.9,4.3c-1.1,0.8-2.4,1.6-4,1.6c-1.3,0.3-2.9,0-4.3-0.5c-1.9-0.8-3.5-1.9-4.8-3.2
									c-0.5-0.5-1.1-1.1-1.3-1.6l-1.1-1.6c-1.3-1.9-2.4-3.8-3.5-5.7l-3.2-5.1c-3.2-6.2-7.7-11.6-12.8-16.1c-1.9-1.6-4-2.7-6.4-3
									c-1.6-0.3-3.5,0-5.1,0.5c-0.5,0-0.8,0.3-1.1,0.5l-0.5,0.3l-1.1,0.3c-1.3,0.3-2.7,0.8-4,1.3c-2.7,1.1-5.1,2.2-7.5,3.5
									c-5.1,2.7-10.7,6.2-17.8,10c-8,4.3-16.5,7.8-25.3,10.2c-9.6,2.7-19.4,4-29.3,4s-19.7-1.3-29.3-4c-8.8-2.4-17-5.9-25-10.5
									c-7.2-3.8-12.8-7.5-17.8-10.2c-2.4-1.3-5.1-2.7-7.7-3.8c-1.3-0.5-2.7-1.1-4-1.3l-1.6-0.3l-0.5-0.3c-0.5-0.3-0.8-0.3-1.3-0.5
									c-1.6-0.8-3.5-0.8-5.3-0.5c-2.4,0.5-4.8,1.6-6.7,3.2c-5.3,4.6-9.6,10-13,16.1l-3.2,5.1c-1.1,1.9-2.1,3.5-3.5,5.7
									c-0.8,1.1-1.6,2.2-2.4,3c-1.3,1.3-2.7,2.4-4.3,3c-1.1,0.5-2.4,0.5-3.7,0.5c-1.3-0.3-2.4-0.8-3.5-1.6c-1.3-1.1-2.1-2.4-2.7-4
									c-0.8-2.2-1.1-4.3-1.3-6.7c-0.3-2.2-0.3-4-0.3-6.2c0-4,0.3-8.1,0.8-11.8c0.8,3.8,1.9,7.8,2.9,11.3c0.5,1.9,1.3,3.8,2.1,5.4
									c0.8,1.6,1.6,3,2.7,4.3c0.5,0.5,1.1,0.8,0.8,0.5c-0.3-0.3-0.5-0.5-0.8-0.5c-0.3,0-0.5,0-0.8,0c-0.3-0.3,0-0.3,0-0.8
									c0-0.5,0.5-1.1,0.5-1.9c0.8-3,1.6-7,2.1-10.8c1.3-8.9,3.7-17.5,7.5-25.6c2.4-5.1,5.6-9.4,9.6-13.2c4.5-4.3,10.1-7.5,16-9.4
									c1.6-0.5,2.9-0.8,4.5-1.3l2.1-0.5l1.9-0.3c2.4-0.5,5.1-0.8,7.5-1.1c5.1-0.5,10.1-0.5,15.2,0c8.8,1.1,17.6,2.4,26.1,4.6
									c11.7,3,23.7,4.6,36,4.6c12-0.3,24-1.9,35.7-5.1c8.5-2.2,17.3-3.8,26.1-4.8c5.1-0.5,10.1-0.5,15.2,0
									c2.7,0.3,5.1,0.5,7.7,1.1l1.9,0.3l2.4,0.5c1.6,0.3,3.2,0.8,4.5,1.3c6.1,1.9,11.7,5.1,16.2,9.4c4,3.8,7.5,8.3,9.9,13.5
									c3.7,8.1,6.4,17,7.7,25.8c0.8,3.8,1.3,7.8,2.1,10.8l0.5,1.9c0.3,0.3,0,0.5-0.3,0.5c-0.5,0-1.1,0-1.3,0
									c-0.5,0-1.1,0.3-1.3,0.8c-0.3,0.5,0.3,0.3,0.5-0.3c1.1-1.3,1.9-2.7,2.4-4c0.8-1.9,1.6-3.5,2.1-5.4
									C495.4,1279.8,496.7,1276.1,498.1,1272.3z"/>
								<path class="st4" d="M355.9,1113.8l-13.8-89.4c-1.6-11,5.9-21.5,16.8-23.4c10.9-1.6,21.3,5.9,23.2,17c0.3,2.2,0.3,4.3,0,6.2
									l-13.8,89.6c-0.5,3.5-3.7,5.7-6.9,5.4C358.5,1118.9,356.4,1116.7,355.9,1113.8z"/>
								<path class="st10" d="M370.3,1153.6c0,4.6-3.7,8.3-8.3,8.3c-4.6,0-8.3-3.7-8.3-8.3c0-4.6,3.7-8.3,8.3-8.3
									C366.6,1145.3,370.3,1149,370.3,1153.6z"/>
								<path class="st10" d="M351.3,1182.4c0,4.6-3.7,8.3-8.3,8.3c-4.6,0-8.3-3.7-8.3-8.3c0-4.6,3.7-8.3,8.3-8.3
									C347.7,1174.1,351.3,1177.8,351.3,1182.4z"/>
								<path class="st10" d="M389.2,1182.4c0,4.6-3.7,8.3-8.3,8.3c-4.6,0-8.3-3.7-8.3-8.3c0-4.6,3.7-8.3,8.3-8.3
									C385.5,1174.1,389.2,1177.8,389.2,1182.4z"/>
								<path class="st11" d="M325.3,1089.8v11.6c0,0-20.2,1.3-29,7.8c-5.1,3.5-8.8,8.6-10.4,14.5c0,0,1.6-29.6,14.4-32.3
									C308.2,1089.8,316.7,1089.3,325.3,1089.8z"/>
								<path class="st11" d="M399,1089.8v11.6c0,0,20.2,1.3,29,7.8c5.1,3.5,8.8,8.6,10.4,14.5c0,0-1.6-29.6-14.4-32.3
									C415.8,1089.8,407.3,1089.3,399,1089.8z"/>
								<path class="st12" d="M257.6,1146.3c-10.1,23.1-4.3,43.1,8,53.6c12.2,10.5,26.9-10.5,37-33.6c10.1-23.1,15.2-50.1-0.5-50.3
									C286.4,1115.6,267.7,1123.2,257.6,1146.3z"/>
								<path class="st4" d="M300.1,1126.7c7.6,3.5,7.3,20.9-0.7,38.9c-8,18-20.7,29.8-28.4,26.3c-7.6-3.5-7.3-20.9,0.7-38.9
									C279.7,1135,292.4,1123.2,300.1,1126.7z"/>
								<path d="M294.7,1138.7c4.8,2.2,4.6,13.2-0.4,24.6c-5.1,11.4-13.1,18.8-17.9,16.6c-4.8-2.2-4.6-13.2,0.4-24.6
									C281.8,1143.9,289.9,1136.5,294.7,1138.7z"/>
								<path class="st12" d="M466.4,1146.3c10.1,23.1,4.3,43.1-8,53.6c-12.2,10.5-26.9-10.5-37-33.6c-10.1-23.1-15.2-50.1,0.5-50.3
									C437.6,1115.6,456.3,1123.2,466.4,1146.3z"/>
								<path class="st4" d="M452.3,1153c8,18,8.3,35.5,0.7,38.9c-7.6,3.5-20.4-8.3-28.4-26.3c-8-18-8.3-35.5-0.7-38.9
									C431.5,1123.2,444.2,1135,452.3,1153z"/>
								<path d="M447.2,1155.3c5.1,11.4,5.3,22.4,0.4,24.6c-4.8,2.2-12.9-5.3-17.9-16.6c-5.1-11.4-5.3-22.4-0.4-24.6
									C434.1,1136.5,442.1,1144,447.2,1155.3z"/>
								<path class="st13" d="M455.2,1045.4c0,9.4-7.5,17-16.8,17c-9.3,0-16.8-7.6-16.8-17c0-9.4,7.5-17,16.8-17
									C447.7,1028.4,455.2,1036,455.2,1045.4z"/>
								<path class="st13" d="M503.7,1113.8c0,5.5-4.4,10-9.9,10c-5.4,0-9.9-4.5-9.9-10c0-5.5,4.4-10,9.9-10
									C499.3,1103.8,503.7,1108.3,503.7,1113.8z"/>
								<path class="st13" d="M503.7,1064.2c0,6.4-5.1,11.6-11.5,11.6c-6.3,0-11.5-5.2-11.5-11.6s5.1-11.6,11.5-11.6
									C498.5,1052.7,503.7,1057.8,503.7,1064.2z"/>
								<path class="st14" d="M211.5,1133.7c-8.8-4.6-17.3-10-25.3-15.6c-20,113.9,32,167.7,32,167.7
									C199.8,1221.4,201.4,1171.6,211.5,1133.7z"/>
								<path class="st13" d="M295.7,990.8c0,0-82,30.1-105.2,109c8.3,6.5,17.3,12.4,26.6,17.2c23.7-65.1,73.2-88.8,73.2-88.8
									C286.6,1018.5,295.7,990.8,295.7,990.8z"/>
								<path class="st14" d="M525.8,1123.7c0,0,23.7,94.7-54.3,194.3c0,0,73-59.5,80.4-136.2
									C559.3,1105.2,525.8,1123.7,525.8,1123.7z"/>
								<path class="st15" d="M197.4,1293.3c0,0-6.4-15.6-22.1,0c-16,15.6-8.8,21,0,40.6c8.8,19.6,54.1,158.5,186.9,158.5v-67.8
									c-29.8-2.7-66.8-3.5-109.4-63.5C207.8,1297.9,197.4,1293.3,197.4,1293.3z"/>
								<path class="st15" d="M526.8,1293.3c0,0,6.4-15.6,22.1,0c16,15.6,8.8,21,0,40.6c-8.8,19.6-54.1,158.5-186.7,158.5v-67.8
									c29.8-2.7,66.8-3.5,109.4-63.5C516.5,1297.9,526.8,1293.3,526.8,1293.3z"/>
							</g>
						</g>
					</g>
				</g>
			</g>
		</g>
	</g>
</g>
</svg>
