<?xml version="1.0" encoding="utf-8"?>
<!-- Generator: Adobe Illustrator 25.2.0, SVG Export Plug-In . SVG Version: 6.00 Build 0)  -->
<svg version="1.1" id="Layer_1" xmlns="http://www.w3.org/2000/svg" xmlns:xlink="http://www.w3.org/1999/xlink" x="0px" y="0px"
	 viewBox="0 0 235.3 427" style="enable-background:new 0 0 235.3 427;" xml:space="preserve">
<style type="text/css">
	.st0{fill:#C9175F;}
	.st1{fill:#FF4280;}
	.st2{fill:#43DCFF;}
	.st3{clip-path:url(#SVGID_2_);}
	.st4{fill:#FFA400;}
	.st5{fill:none;stroke:#ED6100;stroke-width:2;stroke-miterlimit:10;}
	.st6{clip-path:url(#SVGID_4_);}
	.st7{fill:none;stroke:#E82169;stroke-width:2;stroke-miterlimit:10;}
	.st8{fill:#9AE0E2;fill-opacity:0.2;stroke:#9AE0E2;stroke-width:3.17;stroke-miterlimit:10;}
	.st9{fill:#00B0FF;}
	.st10{fill:#0049FF;}
	.st11{fill:#E9FCFF;}
	.st12{fill:#FFFFFF;}
	.st13{opacity:0.7;fill:#FFFFFF;enable-background:new    ;}
	.st14{fill:#E82169;}
	.st15{clip-path:url(#SVGID_6_);}
</style>
<path id="tail" class="st0" d="M122.1,248.3H71.4c0,0,9.8,97.5,25.4,97.5S122.1,248.3,122.1,248.3z"/>
<path id="l-thigh" class="st1" d="M88.3,314.7c0,0-5.6,13-14.6,13.4c-10.2,0.4-18.4-12.8-18.4-12.8s-19.7-35.4-20.3-58
	c-1-37.3,5.5-56.3,5.5-56.3s40.7,24.6,41.1,47.4C82,270.7,84.2,292.8,88.3,314.7z"/>
<g id="l-calf">
	<path class="st1" d="M88.3,387.5c0,9-35.6-3.6-35.6-3.6c3-10.4,5.4-20.9,7.3-31.5c2.3-14.4-4.7-37.2-4.7-37.2l33-0.5L88.3,387.5z"
		/>
	<path class="st1" d="M74.2,363.3c-11-0.7-11.6,6.3-21.6,20.6s-42.8,27.2-41.5,32.5s7.6,6,16.3,5.3s9.3-3.3,13.3-3.6
		c0,9.8,10.4,10.4,19.2,7.3c10.5-3.6,8.6-9.6,17.6-6.9s-2.6,8.7,15.6,7.7c10.1-0.5-3.9-13-4.9-46.2
		C87.8,366.3,74.2,363.3,74.2,363.3z"/>
	<path class="st2" d="M91.5,401.4c0,0-8.2-14.4-21.6-17c-14.2-2.8-22.7,5.5-22.7,5.5l3.2-10.6c0,0,6.8-8.1,20-5.3
		c14.5,3,21,16.8,21,16.8L91.5,401.4z"/>
</g>
<path id="r-thigh" class="st1" d="M104.4,314.7c0,0,5.6,13,14.6,13.4c10.2,0.4,18.4-12.8,18.4-12.8s19.7-35.4,20.3-58
	c0.9-37.3-5.5-56.3-5.5-56.3s-40.7,24.6-41.1,47.4C110.7,270.7,108.5,292.8,104.4,314.7z"/>
<g id="r-calf">
	<path class="st1" d="M104.4,387.5c0,9,35.6-3.6,35.6-3.6c-3-10.4-5.4-20.9-7.3-31.5c-2.4-14.4,4.7-37.2,4.7-37.2l-33-0.5
		L104.4,387.5z"/>
	<path class="st1" d="M118.5,363.3c10.9-0.7,11.6,6.3,21.6,20.6s42.8,27.2,41.5,32.5s-7.6,6-16.3,5.3s-9.3-3.3-13.3-3.6
		c0,9.8-10.4,10.4-19.2,7.3c-10.5-3.6-8.6-9.6-17.6-6.9s2.6,8.7-15.6,7.7c-10-0.5,3.9-13,4.9-46.2
		C104.8,366.3,118.5,363.3,118.5,363.3z"/>
	<path class="st2" d="M101.2,401.4c0,0,8.2-14.4,21.6-17c14.2-2.8,22.7,5.5,22.7,5.5l-3.2-10.6c0,0-6.8-8.1-20-5.3
		c-14.5,3-21,16.8-21,16.8V401.4z"/>
</g>
<path id="r-arm" class="st2" d="M148.6,149c0,0,28.8-4.1,44.4-6.2s20.4,15.1,10.4,22.5s-26.2,13.2-39.3,14.5S122.9,163.7,148.6,149z
	"/>
<g id="r-hand">
	<g>
		<defs>
			<path id="SVGID_1_" d="M206.1,163.9c0,0,9.8-19.2,19.1-24.2s11.8-9.9,9.1-11.6c-3.6-2.4-10,2-11.4,0.8c-3.2-2.4,5.2-8.8-2.2-11.3
				c-3.5-1.2-11.6,11.2-16.6,5c-4.2-5.3-7.8-8.3-10.8-4.1c-2.9,4,2.4,11.1-4.7,21.8c-0.3,0.5-6.2,4.7-6.6,5.2
				C172.1,158.7,189.2,171.2,206.1,163.9z"/>
		</defs>
		<clipPath id="SVGID_2_">
			<use xlink:href="#SVGID_1_"  style="overflow:visible;"/>
		</clipPath>
		<g class="st3">
			<path class="st4" d="M206.1,163.9c0,0,9.8-19.2,19.1-24.2s11.8-9.9,9.1-11.6c-3.6-2.4-10,2-11.4,0.8c-3.2-2.4,5.2-8.8-2.2-11.3
				c-3.5-1.2-11.6,11.2-16.6,5c-4.2-5.3-7.8-8.3-10.8-4.1c-2.9,4,2.4,11.1-4.7,21.8c-0.3,0.5-6.2,4.7-6.6,5.2
				C172.1,158.7,189.2,171.2,206.1,163.9z"/>
			<path class="st5" d="M213,156.6c0,0-9.1,3.1-16.8,1.4s-12-10-9.9-16c1.3-3.4,1.8-7,1.6-10.7"/>
		</g>
	</g>
</g>
<path id="l-arm" class="st2" d="M26.2,155.7c0,0-15.4,24.7-23.7,38.1s5.5,24.8,16.4,18.6s22.7-18.6,29.2-30.1S50,138.1,26.2,155.7z"
	/>
<g id="torso">
	<path class="st1" d="M160.2,140.9l20.7,3.1c0,0-9.1,32.3-23.2,42l-7.3-31.6L160.2,140.9z"/>
	<path class="st1" d="M32.5,140.9l-17.7,17.5c0,0,6.1,17.9,20.2,27.6l7.3-31.6L32.5,140.9z"/>
	<g>
		<defs>
			<path id="SVGID_3_" d="M136,247.5c-11.4,11.8-15.7,19.8-39.7,19.8s-28.5-7.8-39.7-19.8c-9.6-10.4-19.3-28.9-21.2-46.6
				c-2.3-21.1,2.9-69.5,2.9-69.5h115.8c0,0,5.1,50.6,2.9,69.5C155.2,218.7,145.8,237.4,136,247.5z"/>
		</defs>
		<clipPath id="SVGID_4_">
			<use xlink:href="#SVGID_3_"  style="overflow:visible;"/>
		</clipPath>
		<g class="st6">
			<rect x="32.8" y="126.9" class="st1" width="127.5" height="150.2"/>
			<path class="st7" d="M150.4,154.4c0,0-0.4,47.8-26.1,79.6c-15.7,19.4-14.3,36.8-14.3,36.8H82.6c0,0,1.4-17.4-14.3-36.8
				c-25.7-31.8-26.1-79.6-26.1-79.6L150.4,154.4z"/>
		</g>
	</g>
</g>
<g id="head">
	<path class="st8" d="M179.1,88.5c0,48-72.8,90.1-82.8,90.1s-82.7-42.1-82.7-90.1S52.4,1.6,96.4,1.6S179.1,40.5,179.1,88.5z"/>
	<path class="st2" d="M135.3,79.8c-6.9-10.2-17-30-38.9-30s-32.1,19.8-39,30c-12.6,18.7-19,51.7-19,51.7s15,44.9,58,44.9
		s57.9-44.9,57.9-44.9S147.9,98.5,135.3,79.8z"/>
	<path class="st9" d="M139.5,151.7c-9.6,18.5-24.4,29.5-43.1,29.5s-34.7-13.3-43.2-29.5c-4.4-8.5-7.8-29.5-7.8-29.5
		s1.7,19.8,7.9-0.3c6-19.5,43.2-1.8,43.2-1.8s39.9-8.5,43.3,1.8c6.7,20.6,7.7,0.3,7.7,0.3S143.9,143.2,139.5,151.7z"/>
	<path class="st10" d="M147.4,121.9c0.3,1.5,0.5,3,0.5,4.5c0,0.8,0,1.5,0,2.3c0,0.9-0.2,1.7-0.5,2.6c-0.2,0.6-0.6,1.2-1.1,1.6
		c-0.4,0.3-0.9,0.6-1.5,0.6c-0.5,0.1-1.1,0-1.6-0.2c-0.7-0.3-1.3-0.7-1.8-1.2c-0.2-0.2-0.4-0.4-0.5-0.6l-0.4-0.6
		c-0.5-0.8-0.9-1.4-1.3-2.1l-1.2-1.9c-1.2-2.3-2.9-4.3-4.8-6c-0.7-0.6-1.5-1-2.4-1.1c-0.6-0.1-1.3,0-1.9,0.2l-0.4,0.2l-0.2,0.1
		l-0.4,0.1c-0.5,0.1-1,0.3-1.5,0.5c-1,0.4-1.9,0.8-2.9,1.3c-1.9,1-4,2.3-6.7,3.7c-3,1.6-6.2,2.9-9.4,3.8c-7.2,2-14.8,2-22,0
		c-3.3-0.9-6.4-2.2-9.4-3.9c-2.7-1.4-4.8-2.8-6.7-3.8c-0.9-0.5-1.9-1-2.9-1.4c-0.5-0.2-1-0.4-1.5-0.5l-0.4-0.1l-0.2-0.1
		c-0.2-0.1-0.3-0.1-0.5-0.2c-0.6-0.3-1.3-0.3-2-0.2c-0.9,0.2-1.8,0.6-2.5,1.2c-2,1.7-3.6,3.8-4.9,6.1l-1.2,1.9
		c-0.4,0.7-0.8,1.4-1.3,2.1c-0.3,0.4-0.6,0.8-0.9,1.1c-0.5,0.5-1,0.9-1.6,1.1c-0.4,0.2-0.9,0.2-1.4,0.2c-0.5-0.1-0.9-0.3-1.3-0.6
		c-0.5-0.4-0.8-0.9-1-1.5c-0.3-0.8-0.4-1.6-0.5-2.5c-0.1-0.8-0.1-1.5-0.1-2.3c0-1.5,0.1-3,0.3-4.4c0.3,1.4,0.7,2.8,1.1,4.2
		c0.2,0.7,0.5,1.3,0.8,2c0.2,0.6,0.5,1.1,0.9,1.6c0.2,0.2,0.4,0.3,0.3,0.2c-0.1-0.1-0.2-0.2-0.3-0.2c-0.1,0-0.2,0-0.3,0
		c-0.1,0,0-0.1,0-0.3s0.2-0.4,0.2-0.7c0.3-1.1,0.6-2.6,0.8-4c0.5-3.3,1.4-6.5,2.8-9.5c0.9-1.9,2.1-3.6,3.7-5c1.7-1.6,3.8-2.8,6-3.5
		c0.6-0.2,1.1-0.3,1.7-0.5l0.8-0.2l0.7-0.1c0.9-0.2,1.9-0.3,2.8-0.4c1.9-0.2,3.8-0.2,5.7,0c3.3,0.4,6.6,0.9,9.8,1.7
		c4.4,1.1,8.9,1.7,13.4,1.8c4.5-0.1,9.1-0.8,13.4-2c3.2-0.8,6.5-1.4,9.8-1.8c1.9-0.2,3.8-0.2,5.8,0c1,0.1,1.9,0.2,2.9,0.4l0.7,0.1
		l0.9,0.2c0.6,0.1,1.1,0.3,1.7,0.4c2.3,0.7,4.4,1.9,6.1,3.5c1.5,1.4,2.8,3.1,3.7,5c1.4,3,2.4,6.2,2.9,9.6c0.3,1.4,0.5,2.9,0.8,4
		l0.2,0.6c0,0.1,0,0.2-0.1,0.2c-0.2,0-0.4,0-0.5,0c-0.2,0-0.4,0.1-0.5,0.3c-0.1,0.2,0.1,0.1,0.2-0.1c0.4-0.5,0.7-1,0.9-1.5
		c0.3-0.6,0.6-1.3,0.8-1.9C146.5,124.7,146.9,123.3,147.4,121.9z"/>
	<path class="st4" d="M94,63.1l-5.2-33.2c-0.7-4.1,2.2-8,6.3-8.7c4.1-0.7,8,2.2,8.7,6.3l0,0c0.1,0.8,0.1,1.6,0,2.4l-5.2,33.2
		c-0.2,1.3-1.4,2.1-2.6,2C95,64.9,94.2,64.1,94,63.1L94,63.1z"/>
	<circle class="st9" cx="96.3" cy="77.8" r="3.1"/>
	<circle class="st9" cx="89.3" cy="88.5" r="3.1"/>
	<circle class="st9" cx="103.4" cy="88.5" r="3.1"/>
	<path class="st10" d="M82.5,54.1v4.3c0,0-7.6,0.5-11,2.9c-1.9,1.3-3.3,3.2-3.9,5.5c0,0,0.6-11,5.4-12
		C76.1,54.2,79.3,53.9,82.5,54.1z"/>
	<path class="st10" d="M110.2,54.1v4.3c0,0,7.6,0.5,10.9,2.9c1.9,1.3,3.3,3.2,3.9,5.5c0,0-0.6-11-5.4-12
		C116.5,54.2,113.4,53.9,110.2,54.1z"/>
	<path class="st11" d="M57.2,75.2c-3.8,8.6-1.6,16,3,19.8S70.3,91.1,74,82.6s5.7-18.6-0.2-18.7S60.9,66.5,57.2,75.2z"/>
	
		<ellipse transform="matrix(0.4107 -0.9118 0.9118 0.4107 -33.0226 108.7544)" class="st4" cx="67.6" cy="79.9" rx="13.3" ry="5.7"/>
	<ellipse transform="matrix(0.4107 -0.9118 0.9118 0.4107 -33.0226 108.7544)" cx="67.6" cy="79.9" rx="8.4" ry="3.6"/>
	<path class="st11" d="M135.5,75.2c3.8,8.6,1.6,16-3,19.8s-10.1-3.9-13.9-12.5s-5.7-18.6,0.2-18.7S131.8,66.5,135.5,75.2z"/>
	
		<ellipse transform="matrix(0.9118 -0.4107 0.4107 0.9118 -21.7862 58.4168)" class="st4" cx="125.1" cy="79.9" rx="5.7" ry="13.3"/>
	<ellipse transform="matrix(0.9118 -0.4107 0.4107 0.9118 -21.7862 58.4168)" cx="125.1" cy="79.9" rx="3.6" ry="8.4"/>
	<circle class="st12" cx="125.1" cy="37.6" r="6.3"/>
	<circle class="st12" cx="145.8" cy="63.1" r="3.7"/>
	<circle class="st12" cx="145.2" cy="44.6" r="4.3"/>
	<path class="st13" d="M39.8,70.4c-3.3-1.7-6.5-3.7-9.5-5.8c-7.5,42.3,12,62.3,12,62.3C35.4,103,36,84.5,39.8,70.4z"/>
	<path class="st12" d="M71.4,17.3c0,0-30.8,11.2-39.5,40.4c3.1,2.4,6.5,4.6,10,6.4c9-24.1,27.5-32.9,27.5-32.9
		C68,27.6,71.4,17.3,71.4,17.3z"/>
	<path class="st13" d="M157.8,66.8c0,0,8.9,35.2-20.4,72.2c0,0,27.4-22.1,30.2-50.6S157.8,66.8,157.8,66.8z"/>
</g>
<g id="collar">
	<path class="st14" d="M34.5,129.8c0,0-5.1-2.9-8.3,0c-6.2,5.6-3.3,7.8,0,15.1s20.3,58.8,70.2,58.8v-25.2
		c-11.2-1-25.1-1.3-41.1-23.6C38.4,131.4,34.5,129.8,34.5,129.8z"/>
	<path class="st14" d="M158.2,129.8c0,0,5.1-2.9,8.3,0c6.2,5.6,3.3,7.8,0,15.1s-20.3,58.8-70.2,58.8v-25.2
		c11.1-1,25.1-1.3,41.1-23.6C154.3,131.4,158.2,129.8,158.2,129.8z"/>
</g>
<g id="l-hand">
	<g>
		<defs>
			<path id="SVGID_5_" d="M3.3,211.6c0,0,18.2,11.6,22.4,21.3s8.8,12.7,10.8,10.2c2.7-3.4-1-10.1,0.2-11.4c2.7-2.9,8.3,6,11.5-1.1
				c1.5-3.4-10-12.6-3.4-17c5.7-3.7,9-7,5.1-10.4c-3.7-3.2-11.3,1.4-21.3-6.7c-0.4-0.4-4.1-6.7-4.6-7.1
				C11.5,178.2-2.5,194,3.3,211.6z"/>
		</defs>
		<clipPath id="SVGID_6_">
			<use xlink:href="#SVGID_5_"  style="overflow:visible;"/>
		</clipPath>
		<g class="st15">
			<path class="st4" d="M3.3,211.6c0,0,18.2,11.6,22.4,21.3s8.8,12.7,10.8,10.2c2.7-3.4-1-10.1,0.2-11.4c2.7-2.9,8.3,6,11.5-1.1
				c1.5-3.4-10-12.6-3.4-17c5.7-3.7,9-7,5.1-10.4c-3.7-3.2-11.3,1.4-21.3-6.7c-0.4-0.4-4.1-6.7-4.6-7.1
				C11.5,178.2-2.5,194,3.3,211.6z"/>
			<path class="st5" d="M9.8,219.2c0,0-2.2-9.4,0.2-16.8s11-11,16.8-8.4c3.3,1.6,6.8,2.4,10.5,2.6"/>
		</g>
	</g>
</g>
</svg>
