<?xml version="1.0" encoding="utf-8"?>
<!-- Generator: Adobe Illustrator 25.2.0, SVG Export Plug-In . SVG Version: 6.00 Build 0)  -->
<svg version="1.1" id="Layer_1" xmlns="http://www.w3.org/2000/svg" xmlns:xlink="http://www.w3.org/1999/xlink" x="0px" y="0px"
	 viewBox="0 0 282.9 438.3" style="enable-background:new 0 0 282.9 438.3;" xml:space="preserve">
<style type="text/css">
	.st0{fill:#43DCFF;}
	.st1{clip-path:url(#SVGID_2_);}
	.st2{fill:#FFA400;}
	.st3{fill:none;stroke:#ED6100;stroke-width:2;stroke-miterlimit:10;}
	.st4{fill:#E82169;}
	.st5{fill:#FF4280;}
	.st6{fill:#9AE0E2;fill-opacity:0.2;stroke:#9AE0E2;stroke-width:3.14;stroke-miterlimit:10;}
	.st7{fill:#0049FF;}
	.st8{fill:#E9FCFF;}
	.st9{fill:#00B0FF;}
	.st10{fill:#FFFFFF;}
	.st11{opacity:0.7;fill:#FFFFFF;enable-background:new    ;}
	.st12{fill:none;stroke:#E82169;stroke-width:2;stroke-miterlimit:10;}
	.st13{clip-path:url(#SVGID_4_);}
</style>
<path id="l-arm" class="st0" d="M72.1,155.4c0,0-18.2,22.8-27.9,35.2s2.7,25.2,14.2,20.3s24.7-15.9,32.4-26.6S97.8,140.6,72.1,155.4
	z"/>
<g id="l-hand">
	<g>
		<defs>
			<path id="SVGID_1_" d="M53.8,178.8c0,0-28.4,3.7-37.7-1.2s-14.8-4.3-14.8-1.1c0.1,4.3,7.2,7.2,7.1,9c-0.2,4-10.2,0.6-8.2,8.2
				c1,3.6,15.8,3.4,13.4,11c-2,6.5-2.5,11.1,2.6,11.2c4.9,0.1,7.9-8.2,20.7-8.3c0.6,0,18.3,5.7,17.9,5.2
				C47.6,205,47.4,183.8,53.8,178.8z"/>
		</defs>
		<clipPath id="SVGID_2_">
			<use xlink:href="#SVGID_1_"  style="overflow:visible;"/>
		</clipPath>
		<g class="st1">
			<path class="st2" d="M59.1,177.8c0,0-33.7,4.7-43-0.1s-14.8-4.3-14.8-1.1c0.1,4.3,7.2,7.2,7.1,9c-0.2,4-10.2,0.6-8.2,8.2
				c1,3.6,15.8,3.4,13.4,11c-2,6.5-2.5,11.1,2.6,11.2c4.9,0.1,7.9-8.2,20.7-8.3c0.6,0,19.2,7.9,19.7,7.4
				C67.7,203.8,63.3,181.1,59.1,177.8z"/>
			<path class="st3" d="M45.7,176.1c0,0-5.8,6.3-6.7,14.1c-1.3,11.9,4.2,19.1,4.2,19.1c-6.2,1.6-13.1,3.7-13.1,3.7"/>
		</g>
	</g>
</g>
<path id="l-thigh" class="st4" d="M133.6,316.6c0,0,3,13.7-13.2,14.6c-10.2,0.6-18.4-10.1-18.4-10.1c-1.2-2-19.3-28.6-20.3-55.5
	c-1.5-37.3,12.8-58.9,12.8-58.9s67.3,21.9,53.1,39.7C116,285.8,133.6,316.6,133.6,316.6z"/>
<g id="l-calf">
	<path class="st4" d="M111.4,381.8c0,0,2.1,18.1,4.9,21.1c3.6,3.9,5.5,8.5,1.5,9.4s-11.1,0.2-13-4.4S111.4,381.8,111.4,381.8z"/>
	<path class="st5" d="M112.8,391.3c0,9-35.6-3.8-35.6-3.8s11.8-18.7,16.5-33.5c4.4-13.9,7.2-34.5,7.2-34.5s-1-7.8,12.6-6
		c10.1,1.4,19.1,10.9,19.1,10.9S112.9,369.1,112.8,391.3z"/>
	<path class="st5" d="M98.1,365.9c-11-0.4-11.4,6.6-21,21.1c-3.4,5.1-8.2,9.1-13.8,11.6c-15.5,6.5-36.6,7.5-35.2,15.8
		c0.9,5.4,7.8,5.8,16.4,4.9s4.6-1.1,8.6-1.5c0.3,9.8,10.7,10.1,19.4,6.8c10.4-3.9,7.6-7.6,14.2-5.1s-2.3,8.8,15.8,7.3
		c10-0.8,13.4-13.1,11.6-46.2C113.3,367.1,98.1,365.9,98.1,365.9z"/>
	<path class="st0" d="M114.7,399.4c0,0-2.6-9-15.2-14.2c-13.3-5.5-23.3,0.9-23.3,0.9l5.2-9.7c0,0,8.3-6.6,20.7-1.3
		c13.6,5.8,13.3,16.3,13.3,16.3L114.7,399.4z"/>
</g>
<path id="tail" class="st4" d="M222.2,225.5c0,0,8.4,52.3,12.4,73.1s52.5,38.8,47.9,72.6c-1.8,13.2-6.1,14.6-6.1,14.6
	s-3.2-17.1-11.6-23.4c-12.6-9.4-36.3-14.3-55.2-33.4c-21.3-21.5-20.8-35-60.6-67.6S209.8,176,222.2,225.5z"/>
<g id="head">
	<path class="st6" d="M194.2,83.9c0,68.7-43.8,98.9-89.3,98.9S7.2,150.4,15.6,83.9c5.3-42,43.8-82.4,89.3-82.4
		S194.2,38.4,194.2,83.9z"/>
	<path class="st7" d="M99.7,59l0.6,4.3c0,0-12.4,1.2-15.4,4c-1.7,1.5-2.8,3.6-3.2,5.9c0,0-0.9-11,3.8-12.6S99.7,59,99.7,59z"/>
	<ellipse transform="matrix(0.5264 -0.8503 0.8503 0.5264 -27.5996 109.2866)" class="st8" cx="84.3" cy="79.4" rx="17.9" ry="13"/>
	<ellipse transform="matrix(0.4732 -0.881 0.881 0.4732 -26.4664 117.2763)" class="st2" cx="84.8" cy="80.8" rx="13.6" ry="9.9"/>
	<ellipse transform="matrix(0.4732 -0.881 0.881 0.4732 -26.4664 117.2763)" cx="84.8" cy="80.8" rx="7.7" ry="5.7"/>
	<path class="st0" d="M163.6,81.4c-6.9-10.2-17-30-39-30S85.5,69.6,76.4,78c-16.7,15.2-29.9,42.2-29.9,42.2s35.3,57.7,78.2,57.7
		s55.2-42.9,55.2-42.9S176.2,100.2,163.6,81.4z"/>
	<path class="st9" d="M40.5,120.9c0,0,10,41.8,29.4,59.7c16.9,15.5,61.6,4.7,68.7-4.2s-2.8-46.1-2.8-46.1s-9,10.3-23.7-11.3
		c-4.1-6.1-12.4-8.6-33.4,1.1S40.5,120.9,40.5,120.9z"/>
	<path class="st7" d="M138.7,125.9c-0.6,2.4-1.8,4.5-3.5,6.3c-0.9,1-2.1,1.8-3.4,2.3c-0.7,0.2-1.5,0.4-2.2,0.4c-0.7,0-1.5,0-2.2-0.1
		c-2.7-0.6-5.2-1.7-7.4-3.4c-2.1-1.5-3.9-3.2-5.7-4.7c-1.6-1.4-3.2-2.7-5-3.8c-1.2-0.8-2.7-1.3-4.2-1.3c-0.5,0-1,0.1-1.5,0.3
		c-0.5,0.2-1,0.3-1.5,0.6c-1.2,0.5-3,1.5-4.9,2.6c-4.5,2.6-9.2,4.6-14.2,6.1c-2.6,0.8-5.3,1.3-8,1.7c-2.7,0.4-5.4,0.6-8.1,0.6
		c-5.2,0-10.5-0.5-15.6-1.6c-4.9-1-9.8-2.3-14.5-4c-5.8-1.8-9.2-7.9-7.4-13.8c1.8-5.8,7.9-9.2,13.8-7.4c0.3,0.1,0.6,0.2,0.9,0.3l0,0
		c8,2.7,15.9,5,23.5,5.7c3.7,0.4,7.5,0.4,11.2,0c1.9-0.2,3.8-0.6,5.7-1c1.9-0.5,3.9-1.1,6.2-1.8c2.6-0.9,5.3-1.5,8-2
		c1.8-0.3,3.6-0.3,5.3-0.2c1.8,0.2,3.6,0.8,5.2,1.5c2.9,1.4,5.4,3.4,7.4,5.9c1.6,2,3,4.1,4.2,6.3c2.4,3.9,4.5,7.6,7.7,9.2
		c0.4,0.2,0.8,0.3,1.1,0.5c0.4,0.1,0.8,0.1,1.2,0.1c0.9,0,1.9-0.3,2.7-0.8c1-0.5,1.9-1.1,2.6-1.9
		C137.1,127.7,137.9,126.9,138.7,125.9z"/>
	<ellipse transform="matrix(0.9274 -0.3741 0.3741 0.9274 -21.2463 55.7852)" class="st8" cx="133.1" cy="82.6" rx="13" ry="17.9"/>
	
		<ellipse transform="matrix(0.9485 -0.3166 0.3166 0.9485 -19.7438 46.2115)" class="st2" cx="132.3" cy="83.9" rx="9.9" ry="13.6"/>
	<ellipse transform="matrix(0.9485 -0.3166 0.3166 0.9485 -19.7438 46.2115)" cx="132.3" cy="83.9" rx="5.7" ry="7.7"/>
	<path class="st2" d="M86.9,76.3c0,0,18-21.4,38.6-23.7s38.1,28.8,41.4,34.4c0,0-0.8-25.7-7.1-36.4s-21.5-24.4-37.5-24.4
		C103.5,26.2,90.1,60.1,86.9,76.3z"/>
	<ellipse transform="matrix(0.6343 -0.7731 0.7731 0.6343 -35.5783 92.655)" class="st9" cx="80.2" cy="83.9" rx="3.2" ry="2.3"/>
	<ellipse transform="matrix(0.6343 -0.7731 0.7731 0.6343 -45.6871 87.4638)" class="st9" cx="69.6" cy="92" rx="3.2" ry="2.3"/>
	<ellipse transform="matrix(0.6343 -0.7731 0.7731 0.6343 -44.5043 96.8821)" class="st9" cx="80.2" cy="95.5" rx="3.2" ry="2.3"/>
	<circle class="st10" cx="63.2" cy="57.8" r="6.3"/>
	<circle class="st10" cx="56.1" cy="89.8" r="3.7"/>
	<circle class="st10" cx="48.4" cy="73.1" r="4.3"/>
	<path class="st10" d="M44.1,60c-2.6-2.9-4.9-6-7.1-9.3c-21.9,43.7-10.4,71.4-10.4,71.4C28.5,94.1,35.5,74.2,44.1,60z"/>
	<path class="st10" d="M92.7,11.9c0,0-33.3,2.8-51.8,31.9c2.1,3.5,4.5,6.9,7.3,10c17-23.5,37.7-27.4,37.7-27.4
		C85.9,22.1,92.7,11.9,92.7,11.9z"/>
	<path class="st11" d="M175.1,84.4c0,0,4,35.7-35.3,64.2c0,0,35.7-14.3,43.5-41.8S175.1,84.4,175.1,84.4z"/>
	<path class="st7" d="M127.7,57.5l-0.6,4.2c0,0,12.4,1.2,15.4,4c1.7,1.5,2.9,3.6,3.2,5.9c0,0,0.9-11-3.8-12.6S127.7,57.5,127.7,57.5
		z"/>
</g>
<g id="torso">
	<path class="st5" d="M142.6,261.4c-32-3.2-61.2-42.6-80.6-80.1c0,0,40.3,31,83.8-3.4c34.6-27.3,37.6-40,37.6-40
		s38.8,61.6,38.8,87.6s-9.2,35-23.9,39.9S164.9,263.6,142.6,261.4z"/>
	<path class="st12" d="M81.5,201c0,0,15.6,29.6,37.2,46.8s48.2,16.5,48.2,16.5"/>
	<path class="st12" d="M142.1,188.3c0,0,4.8,26.2-0.9,48.4s21.5,26.9,38.6,30.5"/>
	<path class="st4" d="M183.5,126.2c0,0,4.2-2,5.6,6.2c1.8,10.2,4.2,7.9,0.9,15.2c-2,4.3-16.9,5.9-31.8,29
		c-11.7,18.2-41.6,35.6-55.9,35.6c0,0-7.5-20.9-10-28.7c19.8,0,43.7-2.8,65.2-33.5C174.2,126.4,183.5,126.2,183.5,126.2z"/>
	<path class="st4" d="M92.4,183.5c-10.9,0.1-21.5-0.7-31.9-14.4l-6.7-11.8c-0.3,4.5-0.4,9.1-0.2,13.6c0.3,8,5.4,15.4,10.1,22.4
		c4.5,6.6,23.4,18.7,38.6,19L92.4,183.5z"/>
</g>
<path id="r-thigh" class="st5" d="M213.8,323c0,0,6.3,12.5-9.2,17.4c-9.7,3.1-20.4-5.3-20.4-5.3c-1.6-1.6-25.8-23-33.4-48.7
	c-10.6-35.8-8.3-48.6-4.4-63.2c11.5-43.3,84.1-17.9,63.5,28.4C189.3,297.5,213.8,323,213.8,323z"/>
<g id="r-calf">
	<path class="st4" d="M197,392.3c0,0,2.1,18.1,4.9,21.1c3.6,3.9,5.4,8.5,1.5,9.4s-11.1,0.2-13-4.4S197,392.3,197,392.3z"/>
	<path class="st5" d="M200.3,401.5c0.7,8.9-35.8-0.9-35.8-0.9s10.2-19.6,13.7-34.7c3.3-14.2,4.7-38.8,4.7-38.8l31.2,6.1
		C214.1,333.1,198.6,379.3,200.3,401.5z"/>
	<path class="st5" d="M184.8,377.2c-11-0.7-11.6,6.3-21.6,20.6c-3.6,5-8.4,8.9-14.1,11.2c-15.6,6.1-36.8,6.6-35.5,15
		c0.8,5.4,7.6,6,16.3,5.3s4.7-1,8.7-1.3c0,9.8,10.4,10.4,19.2,7.3c10.5-3.6,7.7-7.4,14.3-4.7s-2.6,8.7,15.6,7.7
		c10-0.5,13.5-9.3,12.5-42.5C199.8,382.1,184.8,377.2,184.8,377.2z"/>
	<path class="st0" d="M201,410.2c0,0-2.8-8.2-15.2-13.8c-13.2-5.8-23.3,0.3-23.3,0.3l5.5-9.6c0,0,8.5-6.4,20.7-0.8
		c13.4,6.2,12.9,16.6,12.9,16.6L201,410.2z"/>
</g>
<g id="r-arm">
	<path class="st4" d="M207.9,181.2c5.3,10-24.1,31.7-32.2,18.9s1.2-27.3,9.7-27.9S202.3,170.5,207.9,181.2z"/>
	<path class="st0" d="M193.1,162.8c0,0,18.1,22.8,27.9,35.2s-2.7,25.2-14.2,20.4s-24.6-15.9-32.4-26.5S167.4,148,193.1,162.8z"/>
	<path class="st5" d="M175.7,200.1c0,0,2.2-18.5,15.1-23.9s17.1,5,17.1,5s-12.2-22.9-20.9-23.7s-15.7,2.8-19.5,13.1
		S166.4,188.5,175.7,200.1z"/>
</g>
<g id="r-hand">
	<g>
		<defs>
			<path id="SVGID_3_" d="M222.1,196.3c0,0,11,18.6,20.6,23c9.6,4.4,12.4,9.1,9.9,11.1c-3.5,2.6-10-1.3-11.4-0.1
				c-3,2.6,5.7,8.5-1.5,11.4c-3.4,1.4-12.3-10.4-16.8-3.9c-3.9,5.6-7.3,8.7-10.5,4.8c-3.1-3.8,1.7-11.2-6-21.5
				c-0.3-0.4-6.5-4.3-6.9-4.8C188.4,203.5,204.7,190,222.1,196.3z"/>
		</defs>
		<clipPath id="SVGID_4_">
			<use xlink:href="#SVGID_3_"  style="overflow:visible;"/>
		</clipPath>
		<g class="st13">
			<path class="st2" d="M222.1,196.3c0,0,11,18.6,20.6,23c9.6,4.4,12.4,9.1,9.9,11.1c-3.5,2.6-10-1.3-11.4-0.1
				c-3,2.6,5.7,8.5-1.5,11.4c-3.4,1.4-12.3-10.4-16.8-3.9c-3.9,5.6-7.3,8.7-10.5,4.8c-3.1-3.8,1.7-11.2-6-21.5
				c-0.3-0.4-6.5-4.3-6.9-4.8C188.4,203.5,204.7,190,222.1,196.3z"/>
			<path class="st3" d="M229.4,203.1c0,0-9.3-2.5-16.8-0.4s-11.4,10.7-8.9,16.6c1.5,3.3,2.2,6.9,2.2,10.6"/>
		</g>
	</g>
</g>
</svg>
