<?xml version="1.0" encoding="utf-8"?>
<!-- Generator: Adobe Illustrator 25.2.0, SVG Export Plug-In . SVG Version: 6.00 Build 0)  -->
<svg version="1.1" id="Layer_1" xmlns="http://www.w3.org/2000/svg" xmlns:xlink="http://www.w3.org/1999/xlink" x="0px" y="0px"
	 viewBox="0 0 328.3 424.8" style="enable-background:new 0 0 328.3 424.8;" xml:space="preserve">
<style type="text/css">
	.st0{fill:#43DCFF;}
	.st1{fill:#FF4280;}
	.st2{clip-path:url(#SVGID_2_);}
	.st3{fill:#ED6100;}
	.st4{fill:none;stroke:#ED6100;stroke-width:2;stroke-miterlimit:10;}
	.st5{fill:#9AE0E2;fill-opacity:0.2;stroke:#9AE0E2;stroke-width:3.14;stroke-miterlimit:10;}
	.st6{fill:#FFA400;}
	.st7{fill:#00B0FF;}
	.st8{fill:#E9FCFF;}
	.st9{fill:#0049FF;}
	.st10{fill:#FFFFFF;}
	.st11{opacity:0.7;fill:#FFFFFF;enable-background:new    ;}
	.st12{fill:#E82169;}
	.st13{fill:none;stroke:#E82169;stroke-width:2;stroke-miterlimit:10;}
	.st14{fill:#C9175F;}
	.st15{clip-path:url(#SVGID_4_);}
</style>
<g id="b-arm">
	<path class="st0" d="M132.6,173.8c0,0-25.4,14.3-39,22.1s-7,24.4,5.5,24.2s28.8-5.5,40-12.4S162,169.8,132.6,173.8z"/>
	<path class="st1" d="M139.9,213.9c0,0-0.4-16.2-8.9-25.1s-17.1-8.4-17.1-8.4s17.9-11.8,26.3-9.2s13.5,8.5,13.1,19.4
		S152.9,206.6,139.9,213.9z"/>
</g>
<g id="b-hand">
	<g>
		<defs>
			<path id="SVGID_1_" d="M102.2,192.4c0,0-21.3-3.7-28.8-11.1s-12.9-8.4-13.8-5.3c-1.2,4.2,4.8,8.9,4.2,10.6
				c-1.4,3.8-9.9-2.4-10.2,5.4c-0.1,3.7,14.1,7.8,9.6,14.4c-3.8,5.6-5.6,9.9-0.7,11.5c4.7,1.6,9.9-5.6,22.2-2
				c0.5,0.2,6.3,4.6,6.9,4.8C107.3,226.4,114.2,206.4,102.2,192.4z"/>
		</defs>
		<clipPath id="SVGID_2_">
			<use xlink:href="#SVGID_1_"  style="overflow:visible;"/>
		</clipPath>
		<g class="st2">
			<path class="st3" d="M102.2,192.4c0,0-21.3-3.7-28.8-11.1s-12.9-8.4-13.8-5.3c-1.2,4.2,4.8,8.9,4.2,10.6
				c-1.4,3.8-9.9-2.4-10.2,5.4c-0.1,3.7,14.1,7.8,9.6,14.4c-3.8,5.6-5.6,9.9-0.7,11.5c4.7,1.6,9.9-5.6,22.2-2
				c0.5,0.2,6.3,4.6,6.9,4.8C107.3,226.4,114.2,206.4,102.2,192.4z"/>
			<path class="st4" d="M93.2,187.9c0,0,5.6,7.8,6.3,15.6s-6,14.4-12.4,14.2c-3.6-0.2-7.3,0.4-10.7,1.6"/>
		</g>
	</g>
</g>
<g id="head">
	<path class="st5" d="M190,83.9c0,68.7-43.8,98.9-89.3,98.9S-6,150.4,2.3,83.9c5.3-42,52.9-82.4,98.4-82.4S190,38.4,190,83.9z"/>
	<path class="st0" d="M193.4,136.9c-17.9,5.7-35.4,12.5-52.5,20.4c-10.1,4.8-19.9,11.9-29.6,17.4c-8.9,5.1-17.8,8.8-26.9,8.1
		c-35-2.4-50-43.1-54.4-57.9c-1-3.3-1.4-5.3-1.4-5.3s17.5-23.2,38.5-42.4c11.5-10.5,28.3-26.4,59-23.9c21.9,1.8,32.1,19.8,39,30
		C177.7,102,193.4,136.9,193.4,136.9z"/>
	<path class="st6" d="M67.1,77.2c0,0,19.1-19.6,39.7-20.5c27.5-1.2,57.4,24.8,60.7,30.4c0,0-5.9-23.2-12.2-34s-22.8-26.8-38.8-26.8
		C97.6,26.2,70.4,61,67.1,77.2z"/>
	<path class="st7" d="M111.3,174.7c-8.9,5.1-17.8,8.8-26.9,8.1c-35-2.4-50-43.1-54.4-57.9c4.3,0.4,8.6,0,12.8-1
		c17.4-4.8,21.9-8.1,31-3.4s17,18.5,27.2,12.6C100.9,133.1,100,157.3,111.3,174.7z"/>
	<circle class="st8" cx="115.5" cy="88.2" r="17"/>
	<circle class="st6" cx="112.7" cy="88.2" r="12.9"/>
	<circle cx="112.7" cy="88.2" r="7.3"/>
	<ellipse transform="matrix(0.6625 -0.7491 0.7491 0.6625 -45.9708 73.3558)" class="st7" cx="58.4" cy="87.7" rx="3.1" ry="0.6"/>
	<ellipse transform="matrix(0.5861 -0.8102 0.8102 0.5861 -56.0582 84.4061)" class="st7" cx="54.6" cy="97.1" rx="3.1" ry="1.5"/>
	<path class="st9" d="M104.7,128.1c-0.5,1.9-1.4,3.7-2.5,5.2c-1.3,1.8-3.2,3.2-5.4,3.7c-1.2,0.2-2.4,0.2-3.6,0
		c-1.1-0.2-2.2-0.5-3.2-1c-1.9-0.9-3.7-2.1-5.4-3.5c-3.2-2.6-5.9-5.3-8.6-7c-1.1-0.8-2.3-1.3-3.7-1.6c-0.9-0.2-1.8-0.1-2.7,0.2
		c-1.1,0.3-2.1,0.7-3,1.3c-1.1,0.6-2.5,1.4-4.2,2.4c-1.9,1.1-3.9,2-6,2.7c-2.3,0.8-4.8,1.4-7.2,1.8c-2.5,0.3-4.9,0.4-7.4,0.3
		c-2.3-0.2-4.7-0.5-7-1c-4.2-0.9-8.4-2.3-12.3-4.1c-5.6-2.5-8.1-9-5.6-14.6s9-8.1,14.6-5.7l0,0c2.8,1.3,5.7,2.4,8.6,3.3
		c2.5,0.8,5.1,1.3,7.7,1.6c1.2,0.1,2.5,0.1,3.8,0c1.5-0.2,3-0.5,4.5-0.8c1.8-0.4,3.8-1,6.2-1.4c2.6-0.5,5.3-0.5,8-0.1
		c2.9,0.4,5.6,1.5,8,3.2c2,1.4,3.7,3.1,5.2,5.1c2.6,3.5,4.2,6.9,6.2,9.7c0.9,1.3,1.9,2.6,3.1,3.7c1,0.9,2.3,1.6,3.7,1.8
		c1.5,0.1,3.1-0.4,4.3-1.3C102.3,130.8,103.6,129.6,104.7,128.1z"/>
	<circle class="st10" cx="53.1" cy="58.2" r="6.3"/>
	<circle class="st10" cx="43.8" cy="89.7" r="3.7"/>
	<circle class="st10" cx="37.3" cy="72.5" r="4.3"/>
	<path class="st10" d="M39.8,55.6c-2.2-3.2-4.1-6.5-5.8-10c-27.3,40.6-19.4,69.5-19.4,69.5C20,87.4,29.5,68.5,39.8,55.6z"/>
	<path class="st10" d="M94.1,14c0,0-33.3-1.5-55.4,25.1c1.6,3.8,3.6,7.4,5.9,10.9c19.9-21.2,40.9-22.4,40.9-22.4
		C86.1,23.3,94.1,14,94.1,14z"/>
	<path class="st11" d="M174.2,69.2c0,0,4,35.7-35.3,64.2c0,0,35.7-14.3,43.5-41.8S174.2,69.2,174.2,69.2z"/>
	<path class="st9" d="M109.9,61.4v4.3c0,0,7.6,0.5,11,2.9c1.9,1.3,3.3,3.2,3.9,5.5c0,0-0.6-11-5.4-12
		C116.3,61.5,113.1,61.2,109.9,61.4z"/>
</g>
<path id="b-thigh" class="st12" d="M202.2,317c0,0,6.3,12.5-9.2,17.4c-9.7,3.1-20.4-5.2-20.4-5.2c-1.6-1.6-33.1-20.7-44-45.2
	c-15.9-35.8-12.6-50-6.3-67.7c15.1-42.2,96.6-16.9,75.9,29.3C177.7,291.5,202.2,317,202.2,317z"/>
<g id="b-calf">
	<path class="st12" d="M172.1,393.3c-1.4,8.9-34.6-9-34.6-9s14.4-16.8,21.2-30.7c6.4-13.1,13.4-36.7,13.4-36.7l29,13
		C201.1,329.9,175.5,371.3,172.1,393.3z"/>
	<path class="st12" d="M165.8,360c-10.9-0.7-10.4,2.2-23.3,18.2c-3.1,3.8-15,11.2-21,13.6c-15.7,6.1-40.4,1.5-40.4,14.7
		c0,5.5,8.8,6.8,21.5,6.8c1.6,6,17.7,5.5,29.5,5.6c15.1,0.1,25.6-7.2,32.7-9.8c7.2,8.4,27.8,14.2,26.6,4.2
		c-1.3-11.6-15.9-0.7-16.9-33.9C174,365.7,165.8,360,165.8,360z"/>
	<path class="st7" d="M177,394.6c0,0-7.7-7.2-16.8-11s-20.2-4.7-20.2-4.7l7.1-9.7c5.9,0.8,11.6,2.4,17.1,4.7
		c9.1,3.8,13.6,8.3,13.6,8.3L177,394.6z"/>
</g>
<path id="tail" class="st12" d="M234.8,213.5c0,0,25.5,52.7,32.1,72.8c11.9,36.5,59.8,36.9,61.4,71c0.6,13.3-3.3,15.5-3.3,15.5
	s-6.3-16.3-15.7-20.9c-14.1-6.9-29.2-7.6-51.3-23c-24.8-17.3-27.1-41.1-75.8-57S213.6,167.1,234.8,213.5z"/>
<g id="torso">
	<path class="st1" d="M146.3,264.4c-24.8-7.2-65-38.9-76.9-85.2c0,0,26.4,21.6,76.9-30.9c26.5-27.5,47.2-10.3,47.2-10.3
		s45,66.5,45,92.5s-9.9,31.9-24.5,36.8S170.2,271.3,146.3,264.4z"/>
	<path class="st12" d="M188,120.9c0,0,3.8-2.7,6.6,5.2c3.4,9.8,6.2,8.2,2.9,15.5c-2,4.3-40.6,7-64,35c-12.6,15-26,34.4-48.5,35.8
		c-4.4,0.3-8.5-2-10.5-5.8c-4.9-9-21-18.2-8.6-29.2c18.5,5.5,32.8,7.7,58-19.9C146.2,132.9,188,120.9,188,120.9z"/>
	<path class="st13" d="M124.2,184.8c0,0-13.2,79.6,55.4,84.2"/>
</g>
<path id="f-thigh" class="st1" d="M223.8,323c0,0,6.3,12.5-9.1,17.4c-9.7,3.1-20.4-5.3-20.4-5.3c-1.6-1.6-33.1-20.7-44-45.2
	c-15.9-35.8-12.6-50-6.3-67.7c15-42.2,96.6-16.9,75.9,29.3C199.4,297.5,223.8,323,223.8,323z"/>
<g id="f-calf">
	<path class="st1" d="M193.8,399.2c-1.4,8.9-34.7-9-34.7-9s14.4-16.8,21.2-30.7c6.4-13.1,13.4-36.7,13.4-36.7l29,13
		C222.7,335.8,197.2,377.3,193.8,399.2z"/>
	<path class="st1" d="M187.4,365.9c-10.9-0.7-10.4,2.2-23.3,18.2c-3.1,3.8-15,11.2-21,13.6c-15.6,6.1-40.4,1.5-40.4,14.7
		c0,5.5,8.8,6.7,21.5,6.7c1.5,6,17.7,5.5,29.4,5.6c15.1,0.1,25.6-7.2,32.7-9.8c7.2,8.4,27.8,14.2,26.7,4.2
		c-1.3-11.6-15.9-0.7-16.9-33.9C195.7,371.7,187.4,365.9,187.4,365.9z"/>
	<path class="st0" d="M198.6,400.6c0,0-7.7-7.2-16.8-11s-20.2-4.7-20.2-4.7l7.1-9.7c5.9,0.8,11.6,2.4,17.1,4.7
		c9.1,3.8,13.5,8.3,13.5,8.3L198.6,400.6z"/>
</g>
<g id="f-arm">
	<path class="st14" d="M165.4,206.1c-4.4,4.3-12.7,5.5-21.7-3.3s-11-23.5-6.5-27.8s12.9,0.5,21.9,9.4S169.9,201.7,165.4,206.1z"/>
	<path class="st0" d="M151.7,165.9c0,0-21.3,19.9-32.7,30.7s-1.1,25.3,11,22.2s26.7-12.1,36-21.5S179.3,155,151.7,165.9z"/>
	<path class="st1" d="M165.4,206.1c1.6-10-3.1-20.1-11.8-25.2c-10.4-6.5-18.6-4.1-18.6-4.1s14.6-15.6,23.4-15.1s15.1,5.1,17.3,15.8
		S176.3,195.9,165.4,206.1z"/>
</g>
<g id="f-hand">
	<g>
		<defs>
			<path id="SVGID_3_" d="M139.7,196.4c0,0-12.8-17.4-13.2-27.9s-3.6-15-6.3-13.4c-3.8,2.2-2.7,9.8-4.3,10.6
				c-3.6,1.8-5.6-8.6-11.1-3.1c-2.7,2.6,4.8,15.4-3,17.1c-6.6,1.4-10.9,3.3-8.5,7.8c2.3,4.4,11,2.8,17.4,13.9
				c0.3,0.5,1.4,7.7,1.7,8.2C119.9,224.5,138.7,214.8,139.7,196.4z"/>
		</defs>
		<clipPath id="SVGID_4_">
			<use xlink:href="#SVGID_3_"  style="overflow:visible;"/>
		</clipPath>
		<g class="st15">
			<path class="st6" d="M139.7,196.4c0,0-12.8-17.4-13.2-27.9s-3.6-15-6.3-13.4c-3.8,2.2-2.7,9.8-4.3,10.6
				c-3.6,1.8-5.6-8.6-11.1-3.1c-2.7,2.6,4.8,15.4-3,17.1c-6.6,1.4-10.9,3.3-8.5,7.8c2.3,4.4,11,2.8,17.4,13.9
				c0.3,0.5,1.4,7.7,1.7,8.2C119.9,224.5,138.7,214.8,139.7,196.4z"/>
			<path class="st4" d="M136.3,186.9c0,0-1.3,9.5-6.2,15.6s-14.3,6.3-18.8,1.7c-2.5-2.6-5.5-4.8-8.8-6.2"/>
		</g>
	</g>
</g>
</svg>
