<?xml version="1.0" encoding="utf-8"?>
<!-- Generator: Adobe Illustrator 25.2.0, SVG Export Plug-In . SVG Version: 6.00 Build 0)  -->
<svg version="1.1" id="Layer_1" xmlns="http://www.w3.org/2000/svg" xmlns:xlink="http://www.w3.org/1999/xlink" x="0px" y="0px"
	 viewBox="0 0 328.2 424.8" style="enable-background:new 0 0 328.2 424.8;" xml:space="preserve">
<style type="text/css">
	.st0{fill:#9AE0E2;fill-opacity:0.2;stroke:#9AE0E2;stroke-width:3.14;stroke-miterlimit:10;}
	.st1{fill:#43DCFF;}
	.st2{fill:#FFA400;}
	.st3{fill:#00B0FF;}
	.st4{fill:#E9FCFF;}
	.st5{fill:#0049FF;}
	.st6{fill:#FFFFFF;}
	.st7{opacity:0.7;fill:#FFFFFF;enable-background:new    ;}
	.st8{fill:#E82169;}
	.st9{fill:#FF4280;}
	.st10{clip-path:url(#SVGID_2_);}
	.st11{fill:#ED6100;}
	.st12{fill:none;stroke:#ED6100;stroke-width:2;stroke-miterlimit:10;}
	.st13{fill:none;stroke:#E82169;stroke-width:2;stroke-miterlimit:10;}
	.st14{fill:#C9175F;}
	.st15{clip-path:url(#SVGID_4_);}
</style>
<g id="head">
	<path class="st0" d="M190,83.9c0,68.7-43.8,98.9-89.3,98.9S-6,150.4,2.3,83.9C7.6,42,55.3,1.6,100.7,1.6S190,38.5,190,83.9z"/>
	<path class="st1" d="M193.3,136.9c-17.9,5.7-35.4,12.5-52.5,20.4c-10.1,4.8-19.9,11.9-29.6,17.4c-8.9,5.1-17.8,8.8-26.9,8.1
		c-35-2.4-50-43.1-54.4-57.9c-1-3.3-1.4-5.3-1.4-5.3s17.5-23.2,38.5-42.4c11.5-10.5,28.3-26.4,59.1-23.9c21.9,1.8,32.1,19.8,39,30
		C177.7,102,193.3,136.9,193.3,136.9z"/>
	<path class="st2" d="M67.1,77.2c0,0,19.1-19.6,39.7-20.6c27.6-1.2,57.4,24.8,60.7,30.4c0,0-5.9-23.2-12.2-34s-22.8-26.8-38.8-26.8
		C97.6,26.2,70.3,61,67.1,77.2z"/>
	<path class="st3" d="M111.3,174.7c-8.9,5.1-17.8,8.8-26.9,8.1c-35.1-2.4-50.1-43.1-54.4-57.9c4.3,0.4,8.6,0,12.8-1
		c17.4-4.8,21.9-8.1,31-3.4s17,18.5,27.2,12.6C100.9,133.1,100,157.3,111.3,174.7z"/>
	<circle class="st4" cx="115.5" cy="88.2" r="17"/>
	<circle class="st2" cx="112.7" cy="88.2" r="12.9"/>
	<circle cx="112.7" cy="88.2" r="7.3"/>
	<ellipse transform="matrix(0.6625 -0.7491 0.7491 0.6625 -45.9684 73.3398)" class="st3" cx="58.4" cy="87.7" rx="3.1" ry="0.6"/>
	<ellipse transform="matrix(0.5861 -0.8102 0.8102 0.5861 -56.0578 84.4006)" class="st3" cx="54.6" cy="97.1" rx="3.1" ry="1.5"/>
	<path class="st5" d="M104.7,128.1c-0.5,1.9-1.4,3.7-2.5,5.2c-1.3,1.8-3.2,3.1-5.4,3.7c-1.2,0.2-2.4,0.2-3.6,0
		c-1.1-0.2-2.2-0.5-3.2-1c-1.9-0.9-3.7-2.1-5.4-3.5c-3.2-2.6-5.9-5.3-8.6-7c-1.1-0.8-2.3-1.4-3.6-1.7c-0.9-0.2-1.8-0.1-2.7,0.2
		c-1,0.3-2.1,0.7-3,1.3c-1.1,0.6-2.5,1.4-4.2,2.4c-1.9,1.1-3.9,2-6,2.7c-2.3,0.9-4.8,1.5-7.2,1.8c-2.5,0.3-4.9,0.4-7.4,0.3
		c-2.4-0.2-4.7-0.5-7-1c-4.2-0.9-8.4-2.3-12.3-4.1c-5.6-2.5-8.1-9-5.6-14.6s9-8.1,14.6-5.6l0,0c2.8,1.2,5.7,2.3,8.6,3.3
		c2.5,0.8,5.1,1.3,7.7,1.6c1.2,0.1,2.5,0.1,3.7,0c1.5-0.2,3-0.5,4.5-0.8c1.8-0.4,3.8-1,6.2-1.4c2.6-0.5,5.3-0.5,8-0.1
		c2.9,0.4,5.6,1.5,8,3.2c1.9,1.4,3.6,3.2,5,5.1c2.6,3.5,4.3,6.9,6.2,9.7c0.9,1.3,1.9,2.6,3.1,3.7c1,0.9,2.3,1.6,3.7,1.8
		c1.5,0.1,3.1-0.4,4.3-1.3C102.2,130.8,103.5,129.6,104.7,128.1z"/>
	<circle class="st6" cx="53.1" cy="58.3" r="6.3"/>
	<circle class="st6" cx="43.8" cy="89.8" r="3.7"/>
	<circle class="st6" cx="37.2" cy="72.5" r="4.3"/>
	<path class="st6" d="M39.8,55.6c-2.2-3.2-4.1-6.6-5.8-10C6.7,86.1,14.6,115,14.6,115C20,87.4,29.5,68.5,39.8,55.6z"/>
	<path class="st6" d="M94.1,14c0,0-33.3-1.5-55.4,25.1c1.6,3.8,3.6,7.4,5.9,10.9c19.9-21.1,40.9-22.4,40.9-22.4
		C86.1,23.3,94.1,14,94.1,14z"/>
	<path class="st7" d="M174.2,69.2c0,0,4,35.7-35.3,64.2c0,0,35.7-14.3,43.5-41.9S174.2,69.2,174.2,69.2z"/>
	<path class="st5" d="M112.1,61.4v4.3c0,0,7.6,0.5,10.9,2.9c1.9,1.3,3.3,3.2,3.9,5.5c0,0-0.6-11-5.4-12
		C118.5,61.5,115.3,61.2,112.1,61.4z"/>
</g>
<path id="b-thigh" class="st8" d="M202.1,317c0,0,6.3,12.5-9.1,17.4c-9.7,3.1-20.4-5.3-20.4-5.3c-1.6-1.6-33.1-20.7-44-45.2
	c-15.9-35.8-12.6-50-6.3-67.7c15.1-42.2,96.6-16.9,75.9,29.3C177.7,291.5,202.1,317,202.1,317z"/>
<g id="b-calf">
	<path class="st8" d="M172.1,393.3c-1.4,8.9-34.7-9-34.7-9s14.4-16.8,21.2-30.6c6.4-13.1,13.4-36.7,13.4-36.7l29,13
		C201.1,329.9,175.5,371.3,172.1,393.3z"/>
	<path class="st8" d="M165.8,360c-10.9-0.7-10.4,2.2-23.3,18.2c-3.1,3.8-15,11.2-21,13.6c-15.7,6.1-40.4,1.5-40.4,14.7
		c0,5.5,8.8,6.7,21.4,6.7c1.6,6,17.7,5.5,29.5,5.6c15.1,0.1,25.6-7.2,32.7-9.8c7.2,8.4,27.8,14.2,26.6,4.2
		c-1.3-11.6-15.9-0.7-16.9-33.9C174,365.7,165.8,360,165.8,360z"/>
	<path class="st3" d="M176.9,394.6c0,0-7.7-7.2-16.8-11s-20.2-4.7-20.2-4.7l7.1-9.7c5.9,0.8,11.6,2.4,17.1,4.7
		c9.1,3.8,13.5,8.3,13.5,8.3L176.9,394.6z"/>
</g>
<path id="tail" class="st8" d="M234.8,213.5c0,0,25.4,52.7,32,72.8c12,36.5,59.8,36.9,61.4,71c0.6,13.3-3.3,15.5-3.3,15.5
	s-6.3-16.3-15.7-20.9c-14.1-6.9-29.2-7.6-51.3-23c-24.8-17.3-27.1-41.1-75.8-57S213.6,167.1,234.8,213.5z"/>
<g id="b-arm">
	<path class="st1" d="M131,174.4c0,0-23.2,17.6-35.7,27.2s-3.7,25.1,8.7,23.2s27.8-9.4,37.9-17.7S159.6,166.4,131,174.4z"/>
	<path class="st9" d="M143.7,213.1c0,0-2.6-16-12.2-23.6s-18.1-6-18.1-6s16.1-14.1,24.8-12.6s14.5,6.6,15.6,17.5
		S155.5,204.1,143.7,213.1z"/>
</g>
<g id="b-hand">
	<g>
		<defs>
			<path id="SVGID_1_" d="M94.7,199.8c0,0-15.2,15.3-25.6,17.2s-14.3,5.8-12.3,8.3c2.7,3.4,10.1,1.2,11.1,2.7
				c2.3,3.3-7.6,6.8-1.4,11.5c3,2.2,14.5-7.1,17.3,0.3c2.4,6.4,4.9,10.3,9,7.2c4-2.9,1.1-11.3,11.1-19.3c0.4-0.4,7.4-2.6,7.9-2.9
				C125.5,215.1,113,197.9,94.7,199.8z"/>
		</defs>
		<clipPath id="SVGID_2_">
			<use xlink:href="#SVGID_1_"  style="overflow:visible;"/>
		</clipPath>
		<g class="st10">
			<path class="st11" d="M94.7,199.8c0,0-15.2,15.3-25.6,17.2s-14.3,5.8-12.3,8.3c2.7,3.4,10.1,1.2,11.1,2.7
				c2.3,3.3-7.6,6.8-1.4,11.5c3,2.2,14.5-7.1,17.3,0.3c2.4,6.4,4.9,10.3,9,7.2c4-2.9,1.1-11.3,11.1-19.3c0.4-0.4,7.4-2.6,7.9-2.9
				C125.5,215.1,113,197.9,94.7,199.8z"/>
			<path class="st12" d="M85.9,204.6c0,0,9.6-0.1,16.4,3.8s8.4,13.2,4.5,18.3c-2.2,2.9-3.9,6.2-4.8,9.7"/>
		</g>
	</g>
</g>
<g id="torso">
	<path class="st9" d="M146.3,264.4c-24.8-7.2-65-38.8-76.9-85.2c0,0,24.7,27.8,79-31.1c25.9-28.1,45.1-10,45.1-10s45,66.4,45,92.4
		s-9.9,31.9-24.5,36.8S170.2,271.3,146.3,264.4z"/>
	<path class="st8" d="M188,120.9c0,0,3.8-2.7,6.6,5.2c3.4,9.8,6.2,8.3,2.9,15.6c-2,4.3-40.5,7-64,34.9c-12.6,15-26,34.4-48.5,35.8
		c-4.4,0.3-8.5-2-10.5-5.9c-4.9-9-21-18.2-8.6-29.2c18.5,5.5,32.8,7.7,58-19.9C146.2,133,188,120.9,188,120.9z"/>
	<path class="st13" d="M123.9,183.9c0,0-13.2,79.6,55.5,84.2"/>
</g>
<path id="f-thigh" class="st9" d="M223.8,323c0,0,6.3,12.5-9.2,17.4c-9.7,3.1-20.4-5.2-20.4-5.2c-1.6-1.6-33.1-20.7-44-45.2
	c-15.9-35.8-12.6-50-6.3-67.7c15.1-42.2,96.6-16.9,75.9,29.3C199.3,297.5,223.8,323,223.8,323z"/>
<g id="f-calf">
	<path class="st9" d="M193.8,399.2c-1.4,8.9-34.7-9-34.7-9s14.4-16.8,21.2-30.7c6.4-13.1,13.4-36.7,13.4-36.7l29,13
		C222.7,335.8,197.1,377.3,193.8,399.2z"/>
	<path class="st9" d="M187.4,365.9c-11-0.7-10.4,2.2-23.3,18.2c-3.1,3.8-14.9,11.2-21,13.6c-15.6,6.1-40.4,1.5-40.4,14.7
		c0,5.5,8.9,6.8,21.5,6.8c1.6,6,17.7,5.5,29.5,5.6c15.1,0.1,25.6-7.2,32.7-9.8c7.2,8.4,27.8,14.2,26.6,4.2
		c-1.3-11.6-15.9-0.7-16.9-33.9C195.6,371.7,187.4,365.9,187.4,365.9z"/>
	<path class="st1" d="M198.6,400.6c0,0-7.7-7.2-16.8-11s-20.2-4.7-20.2-4.7l7.1-9.7c5.9,0.8,11.6,2.4,17.1,4.7
		c9.1,3.8,13.6,8.3,13.6,8.3L198.6,400.6z"/>
</g>
<g id="f-arm">
	<path class="st14" d="M177.9,193.7c-0.6,8.1-6.1,16.4-18.8,15.7s-23.6-13.2-23-21.2s10.2-10.7,22.9-10.1S178.5,185.6,177.9,193.7z"
		/>
	<path class="st1" d="M151,172.6c0,0-18.1,22.8-27.9,35.2s2.7,25.2,14.2,20.4s24.7-15.9,32.4-26.6S176.7,157.8,151,172.6z"/>
	<path class="st9" d="M172.8,206.9c0,0-6.5-14.9-17.7-19.9s-19-1.3-19-1.3s12.2-17.6,21-18.4s15.7,2.8,19.5,13.1
		S182.1,195.3,172.8,206.9z"/>
</g>
<g id="f-hand">
	<g>
		<defs>
			<path id="SVGID_3_" d="M122,206.1c0,0-11,18.6-20.6,23s-12.4,9.1-9.8,11.1c3.5,2.6,10-1.3,11.4-0.1c3,2.6-5.7,8.5,1.5,11.5
				c3.4,1.4,12.3-10.4,16.8-3.9c3.9,5.6,7.3,8.7,10.5,4.8c3.1-3.8-1.7-11.2,6-21.5c0.3-0.4,6.5-4.3,6.9-4.8
				C155.7,213.3,139.3,199.8,122,206.1z"/>
		</defs>
		<clipPath id="SVGID_4_">
			<use xlink:href="#SVGID_3_"  style="overflow:visible;"/>
		</clipPath>
		<g class="st15">
			<path class="st2" d="M122,206.1c0,0-11,18.6-20.6,23s-12.4,9.1-9.8,11.1c3.5,2.6,10-1.3,11.4-0.1c3,2.6-5.7,8.5,1.5,11.5
				c3.4,1.4,12.3-10.4,16.8-3.9c3.9,5.6,7.3,8.7,10.5,4.8c3.1-3.8-1.7-11.2,6-21.5c0.3-0.4,6.5-4.3,6.9-4.8
				C155.7,213.3,139.3,199.8,122,206.1z"/>
			<path class="st12" d="M114.7,212.9c0,0,9.3-2.5,16.8-0.4s11.4,10.7,8.9,16.6c-1.5,3.3-2.2,6.9-2.2,10.6"/>
		</g>
	</g>
</g>
</svg>
