<?xml version="1.0" encoding="utf-8"?>
<!-- Generator: Adobe Illustrator 25.2.0, SVG Export Plug-In . SVG Version: 6.00 Build 0)  -->
<svg version="1.1" id="Layer_1" xmlns="http://www.w3.org/2000/svg" xmlns:xlink="http://www.w3.org/1999/xlink" x="0px" y="0px"
	 viewBox="0 0 269.7 438.3" style="enable-background:new 0 0 269.7 438.3;" xml:space="preserve">
<style type="text/css">
	.st0{fill:#E82169;}
	.st1{fill:#43DCFF;}
	.st2{fill:#FF4280;}
	.st3{clip-path:url(#SVGID_2_);}
	.st4{fill:#FFA400;}
	.st5{fill:none;stroke:#ED6100;stroke-width:2;stroke-miterlimit:10;}
	.st6{fill:#9AE0E2;fill-opacity:0.2;stroke:#9AE0E2;stroke-width:3.14;stroke-miterlimit:10;}
	.st7{fill:#0049FF;}
	.st8{fill:#E9FCFF;}
	.st9{fill:#00B0FF;}
	.st10{fill:#FFFFFF;}
	.st11{opacity:0.7;fill:#FFFFFF;enable-background:new    ;}
	.st12{fill:none;stroke:#E82169;stroke-width:2;stroke-miterlimit:10;}
	.st13{clip-path:url(#SVGID_4_);}
</style>
<g id="l-arm">
	<path class="st0" d="M67.5,159.8c-10.6-3.7-27.6,28.7-13.8,34.7s26.7-5.3,26.1-13.9S78.9,163.8,67.5,159.8z"/>
	<path class="st1" d="M88,171.7c0,0-25.3-14.4-39-22.2s-24.5,6.5-18,17.1s19.5,21.9,31.2,28S106.6,194.8,88,171.7z"/>
	<path class="st2" d="M53.8,194.6c0,0,18-5,21.3-18.6s-7.5-16.2-7.5-16.2s24.5,8.5,26.6,17.1s-0.4,15.9-9.9,21.2
		S66.7,202,53.8,194.6z"/>
</g>
<g id="l-hand">
	<g>
		<defs>
			<path id="SVGID_1_" d="M50.5,148.2c0,0-20.1-8-25.9-16.8s-10.9-10.9-12.4-8c-2,3.8,2.8,9.7,1.9,11.3c-2.1,3.4-9.2-4.4-11.1,3.2
				c-0.9,3.6,12.2,10.5,6.5,16c-4.9,4.7-7.5,8.5-3.1,11.1c4.2,2.5,10.8-3.4,22.1,2.7c0.5,0.3,5.3,5.8,5.8,6.1
				C48.5,182.6,59.3,164.4,50.5,148.2z"/>
		</defs>
		<clipPath id="SVGID_2_">
			<use xlink:href="#SVGID_1_"  style="overflow:visible;"/>
		</clipPath>
		<g class="st3">
			<path class="st4" d="M50.5,148.2c0,0-20.1-8-25.9-16.8s-10.9-10.9-12.4-8c-2,3.8,2.8,9.7,1.9,11.3c-2.1,3.4-9.2-4.4-11.1,3.2
				c-0.9,3.6,12.2,10.5,6.5,16c-4.9,4.7-7.5,8.5-3.1,11.1c4.2,2.5,10.8-3.4,22.1,2.7c0.5,0.3,5.3,5.8,5.8,6.1
				C48.5,182.6,59.3,164.4,50.5,148.2z"/>
			<path class="st5" d="M42.6,142c0,0,3.9,8.8,2.9,16.6s-8.8,12.9-15,11.3c-3.5-0.9-7.2-1.1-10.8-0.6"/>
		</g>
	</g>
</g>
<path id="l-thigh" class="st0" d="M120.4,316.6c0,0,3,13.7-13.2,14.6c-10.2,0.6-18.4-10.1-18.4-10.1c-1.2-2-19.3-28.6-20.3-55.5
	c-1.5-37.3,12.8-58.9,12.8-58.9s67.3,21.9,53.1,39.7C102.9,285.8,120.4,316.6,120.4,316.6z"/>
<g id="l-calf">
	<path class="st0" d="M98.3,381.7c0,0,2.1,18.1,4.9,21.1c3.6,3.9,5.5,8.5,1.5,9.4s-11.1,0.2-13-4.4S98.3,381.7,98.3,381.7z"/>
	<path class="st2" d="M99.7,391.3c0,9-35.6-3.8-35.6-3.8s11.8-18.7,16.5-33.5c4.4-13.9,7.2-34.5,7.2-34.5s-1-7.8,12.6-6
		c10.1,1.4,19.1,10.9,19.1,10.9S99.8,369.1,99.7,391.3z"/>
	<path class="st2" d="M85,365.9c-11-0.4-11.4,6.6-21,21.1c-3.4,5.1-8.2,9.1-13.8,11.6c-15.5,6.5-36.6,7.5-35.2,15.8
		c0.9,5.4,7.8,5.8,16.4,4.9s4.6-1.1,8.6-1.5c0.3,9.8,10.7,10.1,19.4,6.8c10.4-3.9,7.5-7.5,14.2-5.1s-2.3,8.8,15.8,7.3
		c10-0.8,13.4-13.1,11.6-46.2C100.2,367.1,85,365.9,85,365.9z"/>
	<path class="st1" d="M101.6,399.4c0,0-2.6-9-15.2-14.2c-13.3-5.5-23.3,0.9-23.3,0.9l5.2-9.7c0,0,8.3-6.6,20.7-1.3
		c13.6,5.8,13.3,16.3,13.3,16.3L101.6,399.4z"/>
</g>
<path id="tail" class="st0" d="M209.1,225.5c0,0,8.4,52.3,12.4,73.1s52.5,38.8,47.9,72.6c-1.8,13.2-6.1,14.6-6.1,14.6
	s-3.2-17.2-11.6-23.4c-12.6-9.4-36.3-14.3-55.2-33.4c-21.3-21.5-20.8-35-60.6-67.6S196.7,176,209.1,225.5z"/>
<g id="head">
	<path class="st6" d="M181.1,83.9c0,68.7-43.8,98.9-89.3,98.9S-5.9,150.4,2.5,83.9c5.3-42,43.8-82.4,89.3-82.4
		S181.1,38.4,181.1,83.9z"/>
	<path class="st7" d="M82.9,57.7l0.6,4.3c0,0-12.4,1.2-15.4,4c-1.7,1.5-2.8,3.6-3.2,5.9c0,0-0.9-11,3.8-12.6S82.9,57.7,82.9,57.7z"
		/>
	<ellipse transform="matrix(0.5264 -0.8503 0.8503 0.5264 -33.8139 98.124)" class="st8" cx="71.2" cy="79.4" rx="17.9" ry="13"/>
	
		<ellipse transform="matrix(0.4711 -0.8821 0.8821 0.4711 -33.3313 105.4763)" class="st4" cx="71.3" cy="80.5" rx="13.5" ry="9.9"/>
	<ellipse transform="matrix(0.4732 -0.881 0.881 0.4732 -33.3724 105.7093)" cx="71.7" cy="80.8" rx="7.7" ry="5.7"/>
	<path class="st1" d="M150.5,81.4c-6.9-10.2-17-30-39-30S72.3,69.6,63.2,78c-16.7,15.2-29.9,42.2-29.9,42.2s35.3,57.7,78.2,57.7
		s55.2-42.9,55.2-42.9S163.1,100.1,150.5,81.4z"/>
	<path class="st9" d="M27.4,120.9c0,0,10,41.8,29.4,59.7c16.9,15.5,61.6,4.7,68.7-4.2s-2.8-46.1-2.8-46.1s-9,10.3-23.7-11.3
		c-4.1-6.1-12.4-8.6-33.4,1.1S27.4,120.9,27.4,120.9z"/>
	<path class="st7" d="M125.5,125.9c-0.6,2.4-1.8,4.5-3.5,6.3c-0.9,1-2.1,1.8-3.4,2.3c-0.7,0.2-1.5,0.4-2.2,0.4c-0.7,0-1.5,0-2.2-0.1
		c-2.7-0.6-5.2-1.7-7.4-3.4c-2.1-1.5-3.9-3.2-5.7-4.7c-1.6-1.4-3.2-2.7-5-3.8c-1.2-0.8-2.7-1.3-4.2-1.3c-0.5,0-1,0.1-1.5,0.3
		c-0.5,0.2-1,0.3-1.5,0.6c-1.2,0.5-3,1.5-4.9,2.6c-4.5,2.6-9.2,4.6-14.2,6.1c-2.6,0.8-5.3,1.3-8,1.7c-2.7,0.4-5.4,0.6-8.1,0.6
		c-5.2,0-10.5-0.5-15.6-1.5c-4.9-1-9.8-2.3-14.5-4c-5.8-2-8.8-8.3-6.8-14.1c2-5.8,8.3-8.8,14.1-6.8l0,0c8,2.7,15.9,5,23.5,5.7
		c3.7,0.4,7.5,0.4,11.2,0c1.9-0.2,3.8-0.6,5.7-1c1.9-0.5,3.9-1.1,6.2-1.8c2.6-0.9,5.3-1.5,8-2c1.8-0.3,3.6-0.3,5.3-0.2
		c1.8,0.2,3.6,0.8,5.2,1.5c2.9,1.4,5.4,3.4,7.4,5.9c1.6,2,3,4.1,4.2,6.3c2.4,4,4.5,7.7,7.7,9.2c0.4,0.2,0.8,0.3,1.1,0.5
		c0.4,0.1,0.8,0.1,1.2,0.1c0.9,0,1.9-0.3,2.7-0.8c1-0.5,1.9-1.1,2.6-1.9C124,127.7,124.8,126.9,125.5,125.9z"/>
	<ellipse transform="matrix(0.9274 -0.3741 0.3741 0.9274 -22.1989 50.8748)" class="st8" cx="119.9" cy="82.6" rx="13" ry="17.9"/>
	<ellipse transform="matrix(0.9485 -0.3166 0.3166 0.9485 -20.418 42.0517)" class="st4" cx="119.2" cy="83.8" rx="9.9" ry="13.6"/>
	<ellipse transform="matrix(0.9485 -0.3166 0.3166 0.9485 -20.418 42.0517)" cx="119.2" cy="83.8" rx="5.7" ry="7.7"/>
	<path class="st4" d="M73.7,76.3c0,0,18-21.4,38.6-23.7s38.1,28.8,41.4,34.4c0,0-0.8-25.7-7.1-36.4s-21.5-24.4-37.5-24.4
		C90.3,26.2,77,60.1,73.7,76.3z"/>
	<ellipse transform="matrix(0.6343 -0.7731 0.7731 0.6343 -40.3762 82.5076)" class="st9" cx="67" cy="83.9" rx="3.2" ry="2.3"/>
	<ellipse transform="matrix(0.6343 -0.7731 0.7731 0.6343 -50.485 77.3164)" class="st9" cx="56.5" cy="92" rx="3.2" ry="2.3"/>
	<ellipse transform="matrix(0.6343 -0.7731 0.7731 0.6343 -49.3022 86.7347)" class="st9" cx="67" cy="95.5" rx="3.2" ry="2.3"/>
	<circle class="st10" cx="50" cy="57.7" r="6.3"/>
	<circle class="st10" cx="43" cy="89.8" r="3.7"/>
	<circle class="st10" cx="35.2" cy="73.1" r="4.3"/>
	<path class="st10" d="M31,60c-2.6-2.9-4.9-6-7.1-9.2C2,94.5,13.5,122.2,13.5,122.2C15.4,94.1,22.4,74.2,31,60z"/>
	<path class="st10" d="M79.6,11.9c0,0-33.3,2.8-51.8,31.9c2.1,3.5,4.5,6.9,7.3,10c17-23.5,37.7-27.4,37.7-27.4
		C72.8,22.1,79.6,11.9,79.6,11.9z"/>
	<path class="st11" d="M162,84.4c0,0,4,35.7-35.3,64.2c0,0,35.7-14.3,43.5-41.8S162,84.4,162,84.4z"/>
	<path class="st7" d="M110.9,56.2l-0.6,4.3c0,0,12.4,1.2,15.4,4c1.7,1.5,2.9,3.6,3.2,5.9c0,0,0.9-11-3.8-12.6S110.9,56.2,110.9,56.2
		z"/>
</g>
<g id="torso">
	<path class="st2" d="M129.5,261.4c-32-3.2-61.2-42.6-80.6-80.1c0,0,32,40.5,76.7-5c26.8-27.2,44.8-38.3,44.8-38.3
		s38.8,61.6,38.8,87.6s-9.2,35-23.9,39.9S151.8,263.6,129.5,261.4z"/>
	<path class="st12" d="M68.4,201c0,0,15.6,29.6,37.2,46.8s48.2,16.5,48.2,16.5"/>
	<path class="st12" d="M129,188.3c0,0,4.8,26.2-0.9,48.4s21.5,26.9,38.6,30.5"/>
	<path class="st0" d="M170.4,126.2c0,0,4.2-2,5.6,6.2c1.8,10.2,4.2,7.9,0.9,15.2c-2,4.3-16.9,5.9-31.8,29
		c-11.7,18.2-41.6,35.6-55.9,35.6c0,0-7.5-20.9-10-28.7c19.8,0,43.7-2.8,65.2-33.5C161.1,126.4,170.4,126.2,170.4,126.2z"/>
	<path class="st0" d="M79.2,183.5c-10.9,0.1-21.5-0.7-31.9-14.4l-6.7-11.8c-0.3,4.5-0.4,9.1-0.2,13.6c0.3,8,5.4,15.4,10.1,22.4
		c4.5,6.6,23.4,18.7,38.6,19L79.2,183.5z"/>
</g>
<path id="f-thigh" class="st2" d="M200.7,323c0,0,6.3,12.5-9.2,17.4c-9.7,3.1-20.4-5.3-20.4-5.3c-1.6-1.6-25.8-23-33.4-48.7
	c-10.6-35.8-8.3-48.6-4.4-63.2c11.5-43.3,84.1-17.9,63.5,28.4C176.2,297.5,200.7,323,200.7,323z"/>
<g id="f-calf">
	<path class="st0" d="M183.8,392.3c0,0,2.1,18.1,4.9,21.1c3.6,3.9,5.4,8.5,1.5,9.4s-11.1,0.2-13-4.4S183.8,392.3,183.8,392.3z"/>
	<path class="st2" d="M187.2,401.5c0.7,8.9-35.8-0.9-35.8-0.9s10.2-19.6,13.7-34.7c3.3-14.2,4.7-38.8,4.7-38.8l31.2,6.1
		C201,333.1,185.5,379.3,187.2,401.5z"/>
	<path class="st2" d="M171.7,377.2c-11-0.7-11.6,6.3-21.6,20.6c-3.6,5-8.4,8.9-14.1,11.2c-15.6,6.1-36.8,6.6-35.5,15
		c0.8,5.4,7.6,6,16.3,5.3s4.7-1,8.7-1.3c0,9.8,10.4,10.4,19.2,7.3c10.5-3.6,7.7-7.4,14.3-4.7s-2.6,8.7,15.6,7.7
		c10-0.5,13.5-9.3,12.5-42.5C186.7,382.1,171.7,377.2,171.7,377.2z"/>
	<path class="st1" d="M187.9,410.2c0,0-2.8-8.2-15.2-13.8c-13.2-5.8-23.3,0.3-23.3,0.3l5.5-9.6c0,0,8.5-6.4,20.7-0.8
		c13.4,6.2,12.9,16.6,12.9,16.6L187.9,410.2z"/>
</g>
<g id="r-arm">
	<path class="st0" d="M157.9,152.8c-10.6-3.7-27.6,28.7-13.8,34.7s26.8-5.3,26.1-13.9S169.3,156.8,157.9,152.8z"/>
	<path class="st1" d="M178.4,164.7c0,0-25.3-14.4-39-22.2s-24.5,6.5-17.9,17.1s19.5,21.9,31.2,28S197,187.8,178.4,164.7z"/>
	<path class="st2" d="M144.2,187.6c0,0,18-5,21.3-18.6s-7.5-16.2-7.5-16.2s24.5,8.5,26.6,17.1s-0.4,15.9-9.9,21.2
		S157.1,195,144.2,187.6z"/>
</g>
<g id="r-hand">
	<g>
		<defs>
			<path id="SVGID_3_" d="M140.9,141.2c0,0-20.1-8-25.9-16.8s-10.9-10.9-12.4-8c-2,3.8,2.9,9.7,1.9,11.3c-2.1,3.4-9.2-4.4-11.1,3.2
				c-0.9,3.6,12.2,10.5,6.5,16c-4.9,4.7-7.5,8.5-3.1,11.1c4.2,2.5,10.9-3.4,22.1,2.7c0.5,0.3,5.3,5.8,5.8,6.1
				C138.9,175.6,149.7,157.4,140.9,141.2z"/>
		</defs>
		<clipPath id="SVGID_4_">
			<use xlink:href="#SVGID_3_"  style="overflow:visible;"/>
		</clipPath>
		<g class="st13">
			<path class="st4" d="M140.9,141.2c0,0-20.1-8-25.9-16.8s-10.9-10.9-12.4-8c-2,3.8,2.9,9.7,1.9,11.3c-2.1,3.4-9.2-4.4-11.1,3.2
				c-0.9,3.6,12.2,10.5,6.5,16c-4.9,4.7-7.5,8.5-3.1,11.1c4.2,2.5,10.9-3.4,22.1,2.7c0.5,0.3,5.3,5.8,5.8,6.1
				C138.9,175.6,149.7,157.4,140.9,141.2z"/>
			<path class="st5" d="M133,135c0,0,3.9,8.8,2.9,16.6s-8.8,12.9-15,11.3c-3.5-0.9-7.2-1.1-10.8-0.6"/>
		</g>
	</g>
</g>
</svg>
