<?xml version="1.0" encoding="utf-8"?>
<!-- Generator: Adobe Illustrator 25.2.0, SVG Export Plug-In . SVG Version: 6.00 Build 0)  -->
<svg version="1.1" id="Layer_1" xmlns="http://www.w3.org/2000/svg" xmlns:xlink="http://www.w3.org/1999/xlink" x="0px" y="0px"
	 viewBox="0 0 271.1 438.3" style="enable-background:new 0 0 271.1 438.3;" xml:space="preserve">
<style type="text/css">
	.st0{fill:#ED6100;}
	.st1{fill:#43DCFF;}
	.st2{clip-path:url(#SVGID_2_);}
	.st3{fill:#FFA400;}
	.st4{fill:none;stroke:#ED6100;stroke-width:2;stroke-miterlimit:10;}
	.st5{fill:#E82169;}
	.st6{fill:#FF4280;}
	.st7{fill:#9AE0E2;fill-opacity:0.2;stroke:#9AE0E2;stroke-width:3.14;stroke-miterlimit:10;}
	.st8{fill:#0049FF;}
	.st9{fill:#E9FCFF;}
	.st10{fill:#00B0FF;}
	.st11{fill:#FFFFFF;}
	.st12{opacity:0.7;fill:#FFFFFF;enable-background:new    ;}
	.st13{fill:none;stroke:#E82169;stroke-width:2;stroke-miterlimit:10;}
	.st14{clip-path:url(#SVGID_4_);}
</style>
<path id="back-glove" class="st0" d="M34.7,182.8c0,0,4.2-1.1,14.7,5.5s12.9,14.3,12.9,14.3s-6.2,4.4-16.1,0S33.7,185.3,34.7,182.8z
	"/>
<path id="l-arm" class="st1" d="M60.3,155.4c0,0-18.1,22.8-27.8,35.2s2.7,25.2,14.2,20.4S71.3,195,79,184.4S85.9,140.6,60.3,155.4z"
	/>
<g id="l-hand">
	<g>
		<defs>
			<path id="SVGID_1_" d="M34.7,182.8c0,0-14.4,24.7-23.9,29.1s-12.4,9.1-9.9,11.1c3.5,2.6,10-1.3,11.4-0.1c3,2.6-5.7,8.5,1.5,11.4
				c3.4,1.4,12.3-10.4,16.8-3.9c3.9,5.6,7.3,8.7,10.5,4.8c3.1-3.8-1.7-11.2,6-21.5c0.3-0.4,15.7-11.1,15.1-11
				C51.6,203.7,34.7,190.9,34.7,182.8z"/>
		</defs>
		<clipPath id="SVGID_2_">
			<use xlink:href="#SVGID_1_"  style="overflow:visible;"/>
		</clipPath>
		<g class="st2">
			<path class="st3" d="M37,178c0,0-16.8,29.6-26.3,34s-12.4,9.1-9.9,11.1c3.5,2.6,10-1.3,11.4-0.1c3,2.6-5.7,8.5,1.5,11.4
				c3.4,1.4,12.3-10.4,16.8-3.9c3.9,5.6,7.3,8.7,10.5,4.8c3.1-3.8-1.7-11.2,6-21.5c0.3-0.4,18-10.4,17.9-11
				C62.8,187,42.3,176.7,37,178z"/>
			<path class="st4" d="M27.6,187.7c0,0,1.4,8.5,7.1,13.9c8.7,8.3,17.8,8.3,17.8,8.3c-2.5,5.9-5,12.6-5,12.6"/>
		</g>
	</g>
</g>
<path id="l-thigh" class="st5" d="M121.7,316.6c0,0,3,13.7-13.2,14.6c-10.2,0.6-18.4-10.1-18.4-10.1c-1.2-2-19.3-28.7-20.3-55.5
	c-1.5-37.3,12.8-58.9,12.8-58.9s67.3,21.9,53.1,39.7C104.2,285.8,121.7,316.6,121.7,316.6z"/>
<g id="l-calf">
	<path class="st5" d="M99.6,381.7c0,0,2.1,18.1,4.9,21.1c3.6,3.9,5.4,8.5,1.5,9.4s-11.1,0.2-13.1-4.4S99.6,381.7,99.6,381.7z"/>
	<path class="st6" d="M101,391.3c0,9-35.6-3.8-35.6-3.8s11.8-18.7,16.5-33.5c4.4-13.9,7.3-34.5,7.3-34.5s-1-7.8,12.5-6
		c10.1,1.4,19.1,10.9,19.1,10.9S101.1,369.1,101,391.3z"/>
	<path class="st6" d="M86.3,365.9c-11-0.4-11.4,6.6-21,21.1c-3.4,5.1-8.2,9.1-13.8,11.6c-15.5,6.5-36.6,7.5-35.2,15.8
		c0.9,5.4,7.8,5.8,16.4,4.9s4.7-1.1,8.7-1.5c0.3,9.8,10.7,10.1,19.4,6.8c10.4-3.9,7.5-7.6,14.2-5.1s-2.3,8.8,15.8,7.3
		c10-0.8,13.4-13.1,11.6-46.2C101.5,367.1,86.3,365.9,86.3,365.9z"/>
	<path class="st1" d="M102.9,399.4c0,0-2.6-8.9-15.2-14.2c-13.3-5.5-23.3,0.9-23.3,0.9l5.2-9.8c0,0,8.3-6.6,20.7-1.3
		c13.6,5.8,13.3,16.3,13.3,16.3L102.9,399.4z"/>
</g>
<path id="tail" class="st5" d="M210.5,225.5c0,0,8.4,52.3,12.4,73.1s52.5,38.8,47.9,72.6c-1.8,13.2-6.1,14.6-6.1,14.6
	s-3.2-17.2-11.7-23.4c-12.6-9.4-36.3-14.3-55.2-33.4c-21.3-21.6-20.8-35.1-60.6-67.6S198,176,210.5,225.5z"/>
<g id="head">
	<path class="st7" d="M182.4,83.9c0,68.7-43.8,98.9-89.3,98.9S-4.5,150.4,3.8,83.9C9,42,47.6,1.6,93.1,1.6S182.4,38.5,182.4,83.9z"
		/>
	<path class="st8" d="M87.3,57.8l0.6,4.3c0,0-12.4,1.2-15.4,4c-1.7,1.5-2.8,3.6-3.2,5.9c0,0-0.9-11,3.8-12.6S87.3,57.8,87.3,57.8z"
		/>
	<ellipse transform="matrix(0.5264 -0.8503 0.8503 0.5264 -33.2034 99.2389)" class="st9" cx="72.5" cy="79.4" rx="17.9" ry="13"/>
	<ellipse transform="matrix(0.4732 -0.881 0.881 0.4732 -32.6927 106.8519)" class="st3" cx="73" cy="80.8" rx="13.6" ry="9.9"/>
	<ellipse transform="matrix(0.4732 -0.881 0.881 0.4732 -32.6927 106.8519)" cx="73" cy="80.8" rx="7.7" ry="5.7"/>
	<path class="st1" d="M151.8,81.4c-6.9-10.2-17-30-39-30S73.6,69.6,64.5,78c-16.7,15.2-29.9,42.2-29.9,42.2S69.9,178,112.9,178
		s55.2-42.9,55.2-42.9S164.4,100.2,151.8,81.4z"/>
	<path class="st10" d="M28.7,120.9c0,0,10,41.8,29.4,59.7c16.9,15.5,61.6,4.7,68.7-4.3c7.2-9-2.8-46.1-2.8-46.1s-9,10.4-23.7-11.3
		c-4.1-6-12.4-8.6-33.4,1.1C46,129.7,28.7,120.9,28.7,120.9z"/>
	<path class="st8" d="M126.8,125.9c-0.6,2.4-1.8,4.6-3.5,6.4c-1,1-2.1,1.8-3.4,2.3c-0.7,0.3-1.5,0.4-2.2,0.4c-0.7,0-1.5,0-2.2-0.1
		c-2.7-0.6-5.2-1.7-7.4-3.4c-2.1-1.5-3.9-3.2-5.7-4.7c-1.5-1.4-3.2-2.7-5-3.8c-1.2-0.8-2.7-1.3-4.2-1.3c-0.5,0-1,0.1-1.5,0.3
		c-0.4,0.1-0.9,0.3-1.5,0.6c-1.2,0.5-3,1.5-4.9,2.6c-4.5,2.6-9.2,4.6-14.1,6.1c-2.6,0.8-5.3,1.3-8,1.7c-2.7,0.4-5.4,0.6-8.1,0.6
		c-5.2,0-10.4-0.5-15.6-1.6c-4.9-1-9.8-2.3-14.5-4c-5.8-2-8.8-8.3-6.8-14.1c2-5.8,8.3-8.8,14.1-6.8l0,0l0,0c8,2.8,15.9,5,23.5,5.7
		c3.7,0.4,7.5,0.4,11.2-0.1c1.9-0.2,3.8-0.6,5.7-1c1.9-0.5,3.9-1.1,6.2-1.8c2.6-0.9,5.3-1.5,8-2c1.8-0.3,3.6-0.3,5.3-0.2
		c1.8,0.2,3.6,0.8,5.2,1.5c2.9,1.4,5.4,3.4,7.4,5.9c1.6,2,3,4.1,4.2,6.3c2.4,4,4.5,7.7,7.7,9.2c0.4,0.2,0.8,0.3,1.1,0.4
		c0.4,0.1,0.8,0.2,1.2,0.1c0.9-0.1,1.9-0.3,2.7-0.8c1-0.5,1.8-1.2,2.6-1.9C125.3,127.7,126.1,126.8,126.8,125.9z"/>
	<ellipse transform="matrix(0.9274 -0.3741 0.3741 0.9274 -22.1041 51.3589)" class="st9" cx="121.2" cy="82.6" rx="13" ry="17.9"/>
	<ellipse transform="matrix(0.9485 -0.3166 0.3166 0.9485 -20.3541 42.467)" class="st3" cx="120.5" cy="83.9" rx="9.9" ry="13.6"/>
	<ellipse transform="matrix(0.9485 -0.3166 0.3166 0.9485 -20.3541 42.467)" cx="120.5" cy="83.9" rx="5.7" ry="7.7"/>
	<path class="st3" d="M75,76.4c0,0,18-21.4,38.6-23.7s38.2,28.7,41.5,34.4c0,0-0.8-25.7-7-36.5s-21.5-24.4-37.5-24.4
		C91.6,26.2,78.4,60.1,75,76.4z"/>
	<ellipse transform="matrix(0.6343 -0.7731 0.7731 0.6343 -39.8982 83.5117)" class="st10" cx="68.3" cy="83.9" rx="3.2" ry="2.3"/>
	<ellipse transform="matrix(0.6343 -0.7731 0.7731 0.6343 -50.0168 78.3325)" class="st10" cx="57.8" cy="92" rx="3.2" ry="2.3"/>
	<ellipse transform="matrix(0.6343 -0.7731 0.7731 0.6343 -48.834 87.7508)" class="st10" cx="68.3" cy="95.5" rx="3.2" ry="2.3"/>
	<circle class="st11" cx="51.3" cy="57.8" r="6.3"/>
	<circle class="st11" cx="44.3" cy="89.8" r="3.7"/>
	<circle class="st11" cx="36.5" cy="73.2" r="4.3"/>
	<path class="st11" d="M32.3,60c-2.6-2.9-4.9-6-7.1-9.2c-21.9,43.7-10.4,71.4-10.4,71.4C16.7,94.1,23.7,74.2,32.3,60z"/>
	<path class="st11" d="M80.9,11.9c0,0-33.3,2.8-51.8,31.9c2.1,3.5,4.5,6.9,7.3,10c17.1-23.4,37.7-27.3,37.7-27.3
		C74.1,22.1,80.9,11.9,80.9,11.9z"/>
	<path class="st12" d="M163.3,84.4c0,0,4,35.7-35.3,64.2c0,0,35.7-14.3,43.5-41.8S163.3,84.4,163.3,84.4z"/>
	<path class="st8" d="M115.4,56.2l-0.6,4.3c0,0,12.4,1.2,15.4,4c1.7,1.5,2.9,3.6,3.2,5.9c0,0,0.9-11-3.8-12.6
		C125,56.2,115.4,56.2,115.4,56.2z"/>
</g>
<g id="torso">
	<path class="st6" d="M130.8,261.4c-32-3.2-61.2-42.7-80.6-80.1c0,0,20.2,18,57,7.9s64.4-51.2,64.4-51.2s38.9,61.6,38.9,87.6
		s-9.2,35-23.9,40S153.1,263.6,130.8,261.4z"/>
	<path class="st13" d="M69.7,201c0,0,15.6,29.6,37.2,46.8s48.2,16.6,48.2,16.6"/>
	<path class="st13" d="M130.3,188.3c0,0,4.8,26.2-0.9,48.4c-5.7,22.2,21.5,26.9,38.6,30.5"/>
	<path class="st5" d="M171.7,126.2c0,0,4.2-2,5.6,6.2c1.8,10.2,4.2,7.9,0.9,15.2c-2,4.3-16.9,5.9-31.8,29
		c-11.7,18.2-41.6,35.6-55.9,35.6c0,0-7.5-20.9-10-28.7c19.8,0,43.7-2.8,65.2-33.5C162.4,126.4,171.7,126.2,171.7,126.2z"/>
	<path class="st5" d="M80.5,183.6c-10.9,0.1-21.5-0.7-31.9-14.4l-6.7-11.9c-0.3,4.5-0.4,9-0.2,13.6c0.3,8,5.4,15.4,10.1,22.4
		c4.5,6.6,23.4,18.7,38.6,19L80.5,183.6z"/>
</g>
<path id="r-thigh" class="st6" d="M202,323c0,0,6.3,12.5-9.2,17.4c-9.7,3-20.3-5.2-20.3-5.2c-1.6-1.6-25.8-23-33.4-48.7
	c-10.6-35.8-8.3-48.6-4.4-63.2c11.5-43.3,84.1-17.9,63.5,28.4C177.5,297.5,202,323,202,323z"/>
<g id="r-calf">
	<path class="st5" d="M185.1,392.3c0,0,2.1,18.1,4.9,21.1c3.6,3.9,5.4,8.5,1.5,9.4s-11,0.2-13-4.4S185.1,392.3,185.1,392.3z"/>
	<path class="st6" d="M188.5,401.5c0.7,8.9-35.8-0.9-35.8-0.9s10.2-19.6,13.7-34.7c3.3-14.2,4.7-38.8,4.7-38.8l31.2,6.1
		C202.2,333.2,186.8,379.3,188.5,401.5z"/>
	<path class="st6" d="M173,377.2c-10.9-0.7-11.6,6.3-21.6,20.6c-3.6,5-8.4,8.9-14.1,11.2c-15.7,6.1-36.8,6.6-35.5,15
		c0.8,5.4,7.6,6,16.3,5.3s4.7-1,8.7-1.3c0,9.8,10.4,10.4,19.2,7.3c10.5-3.6,7.7-7.4,14.3-4.7s-2.6,8.7,15.6,7.7
		c10.1-0.5,13.5-9.3,12.5-42.5C188,382.1,173,377.2,173,377.2z"/>
	<path class="st1" d="M189.2,410.2c0,0-2.8-8.2-15.2-13.7c-13.2-5.9-23.3,0.3-23.3,0.3l5.5-9.6c0,0,8.5-6.4,20.7-0.8
		c13.4,6.2,12.9,16.6,12.9,16.6L189.2,410.2z"/>
</g>
<g id="r-arm">
	<path class="st1" d="M181.2,162.8c0,0,18.1,22.8,27.9,35.1s-2.7,25.2-14.2,20.4s-24.7-15.9-32.4-26.5S155.6,148,181.2,162.8z"/>
	<path class="st6" d="M163.9,200.1c0,0,2.2-18.5,15.1-23.9s17.1,5,17.1,5s-12.2-22.9-20.9-23.7s-15.7,2.8-19.5,13.1
		S154.6,188.5,163.9,200.1z"/>
</g>
<g>
	<defs>
		<path id="SVGID_3_" d="M210.2,196.3c0,0,11,18.6,20.6,23s12.4,9.2,9.8,11.1c-3.5,2.6-10.1-1.3-11.4-0.1c-3,2.6,5.7,8.5-1.5,11.4
			c-3.4,1.4-12.3-10.4-16.8-3.9c-3.9,5.6-7.3,8.7-10.5,4.8c-3.1-3.8,1.7-11.2-6-21.5c-0.3-0.4-6.5-4.3-6.9-4.8
			C176.6,203.5,192.9,190,210.2,196.3z"/>
	</defs>
	<clipPath id="SVGID_4_">
		<use xlink:href="#SVGID_3_"  style="overflow:visible;"/>
	</clipPath>
	<g class="st14">
		<path class="st3" d="M210.2,196.3c0,0,11,18.6,20.6,23s12.4,9.2,9.8,11.1c-3.5,2.6-10.1-1.3-11.4-0.1c-3,2.6,5.7,8.5-1.5,11.4
			c-3.4,1.4-12.3-10.4-16.8-3.9c-3.9,5.6-7.3,8.7-10.5,4.8c-3.1-3.8,1.7-11.2-6-21.5c-0.3-0.4-6.5-4.3-6.9-4.8
			C176.6,203.5,192.9,190,210.2,196.3z"/>
		<path class="st4" d="M217.6,203.1c0,0-9.3-2.5-16.8-0.4s-11.3,10.6-8.9,16.6c1.5,3.3,2.2,6.9,2.3,10.6"/>
	</g>
</g>
</svg>
