<?xml version="1.0" encoding="utf-8"?>
<!-- Generator: Adobe Illustrator 25.2.0, SVG Export Plug-In . SVG Version: 6.00 Build 0)  -->
<svg version="1.1" id="Layer_1" xmlns="http://www.w3.org/2000/svg" xmlns:xlink="http://www.w3.org/1999/xlink" x="0px" y="0px"
	 viewBox="0 0 280.9 372.7" style="enable-background:new 0 0 280.9 372.7;" xml:space="preserve">
<style type="text/css">
	.st0{fill:#C9175F;}
	.st1{fill:#FF4280;}
	.st2{fill:#43DCFF;}
	.st3{clip-path:url(#SVGID_2_);}
	.st4{fill:none;stroke:#E82169;stroke-width:2;stroke-miterlimit:10;}
	.st5{fill:#9AE0E2;fill-opacity:0.2;stroke:#9AE0E2;stroke-width:3.17;stroke-miterlimit:10;}
	.st6{fill:#00B0FF;}
	.st7{fill:#0049FF;}
	.st8{fill:#FFA400;}
	.st9{fill:#E9FCFF;}
	.st10{fill:#FFFFFF;}
	.st11{opacity:0.7;fill:#FFFFFF;enable-background:new    ;}
	.st12{fill:#E82169;}
	.st13{clip-path:url(#SVGID_4_);}
	.st14{fill:none;stroke:#ED6100;stroke-width:2;stroke-miterlimit:10;}
	.st15{clip-path:url(#SVGID_6_);}
</style>
<path id="tail" class="st0" d="M174.7,248.2H124c0,0,9.8,97.5,25.4,97.5S174.7,248.2,174.7,248.2z"/>
<path id="l-thigh" class="st1" d="M117.9,284.9c-16.1,0-33.3-11.3-37.2-33.5c-5.4-30.5,22.4-29.9,22.4-29.9s30.7-4.2,31.2,18.6
	C135,277.8,126.9,284.9,117.9,284.9z"/>
<g id="l-calf">
	<path class="st1" d="M115.5,337.3c-2,8.7-33.9-11.5-33.9-11.5c5.2-9.4,10-19.1,14.2-29.1c5.5-13.5,3.8-37.3,3.8-37.3l32.3,6.9
		L115.5,337.3z"/>
	<path class="st1" d="M102.6,309c-11-0.7-11.6,6.3-21.6,20.6s-42.8,27.2-41.5,32.5s7.6,6,16.3,5.3s9.3-3.3,13.3-3.6
		c0,9.8,10.4,10.4,19.2,7.3c10.5-3.6,8.6-9.6,17.6-6.9s-2.6,8.7,15.6,7.7c10.1-0.5-3.8-13-4.8-46.2C116.3,312,102.6,309,102.6,309z"
		/>
	<path class="st2" d="M119.8,347.1c0,0-8.2-14.4-21.6-17c-14.2-2.8-22.7,5.5-22.7,5.5l3.2-10.5c0,0,6.8-8.1,20-5.3
		c14.5,3,21,16.8,21,16.8L119.8,347.1z"/>
</g>
<path id="r-thigh" class="st1" d="M180.1,284.9c16.1,0,33.3-11.3,37.2-33.5c5.4-30.5-22.4-29.9-22.4-29.9s-30.7-4.2-31.2,18.6
	C163,277.8,171.1,284.9,180.1,284.9z"/>
<g id="r-calf">
	<path class="st1" d="M181.9,337.6c2,8.7,33.9-11.7,33.9-11.7c-5.3-9.4-10.1-19.1-14.3-29c-5.6-13.5-3.9-37.2-3.9-37.2l-32.3,7
		L181.9,337.6z"/>
	<path class="st1" d="M195.4,309c11-0.7,11.6,6.3,21.6,20.6s42.8,27.2,41.5,32.5s-7.6,6-16.3,5.3s-9.3-3.3-13.3-3.6
		c0,9.8-10.4,10.4-19.2,7.3c-10.5-3.6-8.6-9.6-17.6-6.9s2.6,8.7-15.6,7.7c-10-0.5,3.9-13,4.9-46.2C181.8,312,195.4,309,195.4,309z"
		/>
	<path class="st2" d="M178.2,347.1c0,0,8.2-14.4,21.6-17c14.1-2.8,22.7,5.5,22.7,5.5l-3.2-10.5c0,0-6.8-8.1-20-5.3
		c-14.5,3-21,16.8-21,16.8L178.2,347.1z"/>
</g>
<path id="r-arm" class="st2" d="M217.6,154.8c0,0,18.1,22.8,27.9,35.2c9.7,12.4-2.7,25.2-14.2,20.4s-24.7-15.9-32.4-26.6
	S192,139.9,217.6,154.8z"/>
<path id="l-arm" class="st2" d="M86.8,150.7c0,0-27.6,9.2-42.5,14.3s-11.5,22.6,0.8,24.8c12.3,2.2,29.4,0.1,41.6-4.6
	S116.4,152.3,86.8,150.7z"/>
<g id="torso">
	<path class="st1" d="M212.8,140.9l17.7,17.5c0,0-6.1,17.9-20.1,27.6l-7.3-31.6L212.8,140.9z"/>
	<path class="st1" d="M85.2,140.9l-18.7,15.5c0,0,7.1,19.9,21.2,29.6l7.3-31.6L85.2,140.9z"/>
	<g>
		<defs>
			<path id="SVGID_1_" d="M188.7,247.5c-11.4,11.8-15.7,19.8-39.7,19.8s-28.5-7.8-39.7-19.8c-9.6-10.3-19.3-28.9-21.2-46.6
				c-2.3-21.1,2.9-69.5,2.9-69.5h115.8c0,0,5.1,50.6,2.9,69.5C207.8,218.7,198.5,237.4,188.7,247.5z"/>
		</defs>
		<clipPath id="SVGID_2_">
			<use xlink:href="#SVGID_1_"  style="overflow:visible;"/>
		</clipPath>
		<g class="st3">
			<rect x="85.5" y="126.9" class="st1" width="127.5" height="150.2"/>
			<path class="st4" d="M203.1,154.4c0,0-0.4,47.8-26.1,79.6c-15.7,19.4-14.3,36.8-14.3,36.8h-27.4c0,0,1.4-17.4-14.3-36.8
				c-25.7-31.8-26.1-79.6-26.1-79.6L203.1,154.4z"/>
		</g>
	</g>
</g>
<g id="head">
	<path class="st5" d="M231.8,88.5c0,48-72.8,90-82.8,90s-82.7-42-82.7-90S105.1,1.6,149,1.6S231.8,40.5,231.8,88.5z"/>
	<path class="st2" d="M187.9,79.8c-6.9-10.2-17-30-38.9-30s-32.1,19.7-39,30c-12.6,18.7-19,51.7-19,51.7s15,44.9,58,44.9
		s57.9-44.9,57.9-44.9S200.5,98.5,187.9,79.8z"/>
	<path class="st6" d="M192.1,151.7c-9.6,18.5-24.4,29.5-43.1,29.5s-34.7-13.2-43.2-29.5c-4.4-8.4-7.8-29.5-7.8-29.5
		s1.7,19.8,7.9-0.3c6-19.5,43.2-1.8,43.2-1.8s39.9-8.5,43.3,1.8c6.7,20.6,7.7,0.3,7.7,0.3S196.5,143.2,192.1,151.7z"/>
	<path class="st7" d="M200,121.9c0.3,1.5,0.5,3,0.5,4.5c0,0.8,0,1.6,0,2.3c0,0.9-0.2,1.7-0.5,2.6c-0.2,0.6-0.6,1.2-1.1,1.6
		c-0.4,0.3-0.9,0.6-1.5,0.6c-0.5,0.1-1.1,0-1.6-0.2c-0.7-0.3-1.3-0.7-1.8-1.2c-0.2-0.2-0.4-0.4-0.5-0.6l-0.4-0.6
		c-0.5-0.7-0.9-1.4-1.3-2.1l-1.2-1.9c-1.2-2.3-2.9-4.3-4.8-6c-0.7-0.6-1.5-1-2.4-1.1c-0.6-0.1-1.3,0-1.9,0.2c-0.2,0-0.3,0.1-0.4,0.2
		l-0.2,0.1l-0.4,0.1c-0.5,0.1-1,0.3-1.5,0.5c-1,0.4-1.9,0.8-2.8,1.3c-1.9,1-4,2.3-6.7,3.7c-3,1.6-6.2,2.9-9.4,3.8
		c-3.6,1-7.3,1.5-11,1.5c-3.7,0-7.4-0.5-11-1.5c-3.3-0.9-6.4-2.2-9.4-3.9c-2.7-1.4-4.8-2.8-6.7-3.8c-0.9-0.5-1.9-1-2.9-1.4
		c-0.5-0.2-1-0.4-1.5-0.5l-0.4-0.1l-0.2-0.1c-0.2-0.1-0.3-0.1-0.5-0.2c-0.6-0.3-1.3-0.3-2-0.2c-0.9,0.2-1.8,0.6-2.5,1.2
		c-2,1.7-3.6,3.8-4.9,6.1l-1.2,1.9c-0.4,0.7-0.8,1.3-1.3,2.1c-0.3,0.4-0.6,0.8-0.9,1.1c-0.5,0.5-1,0.9-1.6,1.1
		c-0.4,0.2-0.9,0.2-1.4,0.2c-0.5-0.1-0.9-0.3-1.3-0.6c-0.5-0.4-0.8-0.9-1-1.5c-0.3-0.8-0.4-1.6-0.5-2.5c-0.1-0.8-0.1-1.5-0.1-2.3
		c0-1.5,0.1-3,0.3-4.4c0.3,1.4,0.7,2.8,1.1,4.2c0.2,0.7,0.5,1.3,0.8,2c0.2,0.6,0.5,1.1,0.9,1.6c0.2,0.2,0.4,0.3,0.3,0.2
		c-0.1-0.1-0.2-0.2-0.3-0.2c-0.1,0-0.2,0-0.3,0c-0.1,0,0-0.1,0-0.3s0.2-0.4,0.2-0.7c0.3-1.1,0.6-2.6,0.8-4c0.5-3.3,1.4-6.5,2.8-9.5
		c0.9-1.9,2.1-3.5,3.7-4.9c1.7-1.6,3.8-2.8,6-3.5c0.6-0.2,1.1-0.3,1.7-0.5l0.8-0.2l0.7-0.1c0.9-0.2,1.9-0.3,2.8-0.4
		c1.9-0.2,3.8-0.2,5.7,0c3.3,0.4,6.6,0.9,9.8,1.7c4.4,1.1,8.9,1.7,13.4,1.8c4.5-0.1,9-0.7,13.4-1.9c3.2-0.8,6.5-1.4,9.8-1.8
		c1.9-0.2,3.8-0.2,5.8,0c1,0.1,1.9,0.2,2.9,0.4l0.7,0.1l0.9,0.2c0.6,0.1,1.2,0.3,1.7,0.5c2.3,0.7,4.4,1.9,6.1,3.5
		c1.5,1.4,2.8,3.1,3.7,5c1.4,3,2.4,6.3,2.9,9.6c0.3,1.4,0.5,2.9,0.8,4l0.2,0.7c0,0.1,0,0.2-0.1,0.2c-0.2,0-0.4,0-0.5,0
		c-0.2,0-0.4,0.1-0.5,0.3c-0.1,0.2,0.1,0.1,0.2-0.1c0.4-0.5,0.7-1,0.9-1.5c0.3-0.6,0.6-1.3,0.8-1.9
		C199.1,124.7,199.6,123.3,200,121.9z"/>
	<path class="st8" d="M146.7,63l-5.2-33.1c-0.6-4.1,2.2-8,6.3-8.7c4.1-0.6,8,2.2,8.7,6.3c0.1,0.8,0.1,1.6,0,2.3L151.3,63
		c-0.2,1.3-1.4,2.1-2.6,2C147.6,64.9,146.8,64.1,146.7,63L146.7,63z"/>
	<circle class="st6" cx="149" cy="77.8" r="3.1"/>
	<circle class="st6" cx="141.9" cy="88.5" r="3.1"/>
	<circle class="st6" cx="156.1" cy="88.5" r="3.1"/>
	<path class="st7" d="M135.1,54.1v4.3c0,0-7.6,0.5-11,2.9c-1.9,1.3-3.3,3.2-3.9,5.5c0,0,0.6-11,5.4-12
		C128.7,54.2,131.9,53.9,135.1,54.1z"/>
	<path class="st7" d="M162.8,54.1v4.3c0,0,7.6,0.5,10.9,2.9c1.9,1.3,3.3,3.2,3.9,5.5c0,0-0.6-11-5.4-12
		C169.2,54.2,166,53.9,162.8,54.1z"/>
	<path class="st9" d="M109.8,75.1c-3.8,8.6-1.6,16,3,19.9s10.1-3.9,13.9-12.5s5.7-18.6-0.2-18.7S113.6,66.5,109.8,75.1z"/>
	<ellipse transform="matrix(0.4107 -0.9118 0.9118 0.4107 -1.999 156.7573)" class="st8" cx="120.3" cy="79.9" rx="13.3" ry="5.7"/>
	<ellipse transform="matrix(0.4107 -0.9118 0.9118 0.4107 -1.999 156.7573)" cx="120.3" cy="79.9" rx="8.4" ry="3.6"/>
	<path class="st9" d="M188.2,75.1c3.8,8.6,1.6,16-3,19.9s-10.1-3.9-13.9-12.5s-5.7-18.6,0.2-18.7S184.4,66.5,188.2,75.1z"/>
	
		<ellipse transform="matrix(0.9118 -0.4107 0.4107 0.9118 -17.1355 80.0404)" class="st8" cx="177.7" cy="79.9" rx="5.7" ry="13.3"/>
	<ellipse transform="matrix(0.9118 -0.4107 0.4107 0.9118 -17.1355 80.0404)" cx="177.7" cy="79.9" rx="3.6" ry="8.4"/>
	<circle class="st10" cx="177.7" cy="37.6" r="6.3"/>
	<circle class="st10" cx="198.4" cy="63" r="3.7"/>
	<circle class="st10" cx="197.9" cy="44.6" r="4.3"/>
	<path class="st11" d="M92.5,70.4c-3.3-1.7-6.5-3.7-9.5-5.8c-7.5,42.3,12,62.3,12,62.3C88.1,103,88.6,84.5,92.5,70.4z"/>
	<path class="st10" d="M124,17.3c0,0-30.8,11.2-39.5,40.4c3.1,2.4,6.5,4.6,10,6.4c9-24.1,27.5-32.9,27.5-32.9
		C120.7,27.6,124,17.3,124,17.3z"/>
	<path class="st11" d="M210.5,66.8c0,0,8.9,35.2-20.4,72.2c0,0,27.4-22.1,30.2-50.6S210.5,66.8,210.5,66.8z"/>
</g>
<g id="collar">
	<path class="st12" d="M87.2,129.8c0,0-2.4-5.8-8.3,0s-3.3,7.8,0,15.1s20.3,58.8,70.2,58.8v-25.2c-11.2-1-25.1-1.3-41.1-23.6
		C91,131.4,87.2,129.8,87.2,129.8z"/>
	<path class="st12" d="M210.8,129.8c0,0,2.4-5.8,8.3,0s3.3,7.8,0,15.1s-20.3,58.8-70.2,58.8v-25.2c11.1-1,25.1-1.3,41.1-23.6
		C206.9,131.4,210.8,129.8,210.8,129.8z"/>
</g>
<g id="l-hand">
	<g>
		<defs>
			<path id="SVGID_3_" d="M44.2,163c0,0-19.4,9.6-29.8,8.1s-15.4,0.9-14.3,3.9c1.5,4.1,9.2,4.4,9.7,6.1c1.1,3.9-9.4,4-5,10.4
				c2.1,3.1,16-2.1,16.3,5.9c0.2,6.8,1.3,11.3,6.2,9.7c4.7-1.5,4.7-10.4,16.7-14.7c0.5-0.2,7.8-0.1,8.4-0.2
				C68.5,187.4,62.2,167.2,44.2,163z"/>
		</defs>
		<clipPath id="SVGID_4_">
			<use xlink:href="#SVGID_3_"  style="overflow:visible;"/>
		</clipPath>
		<g class="st13">
			<path class="st8" d="M44.2,163c0,0-19.4,9.6-29.8,8.1s-15.4,0.9-14.3,3.9c1.5,4.1,9.2,4.4,9.7,6.1c1.1,3.9-9.4,4-5,10.4
				c2.1,3.1,16-2.1,16.3,5.9c0.2,6.8,1.3,11.3,6.2,9.7c4.7-1.5,4.7-10.4,16.7-14.7c0.5-0.2,7.8-0.1,8.4-0.2
				C68.5,187.4,62.2,167.2,44.2,163z"/>
			<path class="st14" d="M34.3,164.8c0,0,9.2,2.9,14.3,8.8s3.7,15.1-1.6,18.8c-3,2-5.6,4.6-7.6,7.6"/>
		</g>
	</g>
</g>
<g id="r-hand">
	<g>
		<defs>
			<path id="SVGID_5_" d="M242.5,211.7c0,0,15.3-15.3,25.7-17.2s14.3-5.8,12.3-8.2c-2.7-3.4-10.1-1.2-11.1-2.7
				c-2.3-3.3,7.7-6.8,1.4-11.4c-3-2.2-14.5,7-17.3-0.4c-2.4-6.4-4.9-10.3-9-7.2c-4,2.9-1.1,11.3-11.2,19.3c-0.4,0.4-4.5,1.5-5,1.8
				C214.6,195.3,226.7,217.3,242.5,211.7z"/>
		</defs>
		<clipPath id="SVGID_6_">
			<use xlink:href="#SVGID_5_"  style="overflow:visible;"/>
		</clipPath>
		<g class="st15">
			<path class="st8" d="M242.5,211.7c0,0,15.3-15.3,25.7-17.2s14.3-5.8,12.3-8.2c-2.7-3.4-10.1-1.2-11.1-2.7
				c-2.3-3.3,7.7-6.8,1.4-11.4c-3-2.2-14.5,7-17.3-0.4c-2.4-6.4-4.9-10.3-9-7.2c-4,2.9-1.1,11.3-11.2,19.3c-0.4,0.4-7.4,2.6-7.9,2.9
				C211.7,196.3,228,220.2,242.5,211.7z"/>
			<path class="st14" d="M251.3,207c0,0-11.5,4.5-18.2,0.5s-6.5-17.5-2.6-22.6c2.2-2.9,3.9-6.1,4.8-9.6"/>
		</g>
	</g>
</g>
</svg>
