<?xml version="1.0" encoding="utf-8"?>
<!-- Generator: Adobe Illustrator 26.0.0, SVG Export Plug-In . SVG Version: 6.00 Build 0)  -->
<svg version="1.1" id="Layer_1" xmlns="http://www.w3.org/2000/svg" xmlns:xlink="http://www.w3.org/1999/xlink" x="0px" y="0px"
	 viewBox="0 0 700 700" style="enable-background:new 0 0 700 700;" xml:space="preserve">
<style type="text/css">
	.st0{fill:#C9175F;}
	.st1{fill:#FF4280;}
	.st2{fill:#43DCFF;}
	.st3{clip-path:url(#SVGID_00000071533502706508308670000001447833767788160908_);}
	.st4{fill:#FFA400;}
	.st5{fill:none;stroke:#ED6100;stroke-width:0.6357;stroke-miterlimit:10;}
	.st6{clip-path:url(#SVGID_00000155108579146377018980000007842280136943110328_);}
	.st7{clip-path:url(#SVGID_00000170977118937783221850000013755748047679688602_);}
	.st8{fill:none;stroke:#E82169;stroke-width:0.6357;stroke-miterlimit:10;}
	.st9{fill:#9AE0E2;fill-opacity:0.2;stroke:#9AE0E2;stroke-width:1.0075;stroke-miterlimit:10;}
	.st10{fill:#00B0FF;}
	.st11{fill:#0049FF;}
	.st12{fill:#E9FCFF;}
	.st13{fill:#FFFFFF;}
	.st14{fill:#FFFFFF;fill-opacity:0.7;}
	.st15{fill:#E82169;}
</style>
<g>
	<g transform="translate(-12 -948)">
		<g>
			<g>
				<g>
					<g>
						<g>
							<g>
								<path class="st0" d="M428.8,1621h-135c0,0,26.1,262.4,67.6,262.4C403,1883.4,428.8,1621,428.8,1621z"/>
								<path class="st1" d="M381.7,1800c0,0,14.9,35,38.9,36.1c27.2,1.1,49-34.5,49-34.5s52.5-95.3,54.1-156.1
									C526.3,1545.1,509,1494,509,1494s-108.4,66.2-109.4,127.6C398.4,1681.3,392.6,1741.1,381.7,1800z"/>
								<path class="st1" d="M381.7,1996c0,24.2,94.8-9.7,94.8-9.7c-8-28-14.4-56.3-19.4-84.8c-6.4-38.8,12.5-100.1,12.5-100.1
									l-87.9-1.3V1996z"/>
								<path class="st1" d="M419.2,1930.8c29-1.9,30.9,17,57.5,55.5c26.6,38.5,114,73.2,110.5,87.5c-3.5,14.3-20.2,16.1-43.4,14.3
									c-23.2-1.9-24.8-8.9-35.4-9.7c0,26.4-27.7,28-51.1,19.6c-28-9.7-22.9-25.8-46.9-18.6c-24,7.3,6.9,23.4-41.5,20.7
									c-26.6-1.3,10.4-35,13-124.4C382.7,1938.9,419.2,1930.8,419.2,1930.8z"/>
								<path class="st2" d="M373.1,2033.4c0,0,21.8-38.8,57.5-45.8c37.8-7.5,60.4,14.8,60.4,14.8l-8.5-28.3
									c0,0-18.1-21.8-53.3-14.5c-38.6,8.1-55.9,45.2-55.9,45.2L373.1,2033.4z"/>
								<path class="st1" d="M338.5,1800c0,0-14.9,35-38.9,36.1c-27.2,1.1-49-34.5-49-34.5s-52.5-95.3-54.1-156.1
									c-2.4-100.7,14.6-151.5,14.6-151.5s108.4,66.2,109.4,127.6C322,1681.3,327.9,1741.1,338.5,1800z"/>
								<path class="st1" d="M338.5,1996c0,24.2-94.8-9.7-94.8-9.7c8-28,14.4-56.3,19.4-84.8c6.1-38.8-12.5-100.1-12.5-100.1
									l87.9-1.3V1996z"/>
								<path class="st1" d="M301.2,1930.8c-29-1.9-30.9,17-57.5,55.5c-26.6,38.5-114,73.2-110.5,87.5c3.5,14.3,20.2,16.1,43.4,14.3
									c23.2-1.9,24.8-8.9,35.4-9.7c0,26.4,27.7,28,51.1,19.6c28-9.7,22.9-25.8,46.9-18.6c24,7.3-6.9,23.4,41.5,20.7
									c26.9-1.3-10.4-35-13-124.4C337.5,1938.9,301.2,1930.8,301.2,1930.8z"/>
								<path class="st2" d="M347,2033.4c0,0-21.8-38.8-57.5-45.8c-37.8-7.5-60.4,14.8-60.4,14.8l8.5-28.3c0,0,18.1-21.8,53.3-14.5
									c38.6,8.1,55.9,45.2,55.9,45.2v28.5H347z"/>
								<path class="st2" d="M542.8,1369.4c0,0,48.2,61.4,74.3,94.7c25.8,33.4-6.9,67.8-37.5,54.9c-30.6-12.9-65.8-42.8-86.3-71.6
									C472.7,1418.6,474.6,1329.8,542.8,1369.4z"/>
								<g>
									<defs>
										<path id="SVGID_1_" d="M620,1459.8c0,0,29.3,50.1,54.9,61.9c25.6,11.8,33,24.5,26.1,29.9c-9.3,7-26.9-3.5-30.4-0.3
											c-8,7,15.2,22.9-4,30.7c-9.1,3.8-32.8-28-45-10.6c-10.4,15.1-19.4,23.7-28,13c-8.3-10.3,4.5-30.2-16-57.9
											c-0.8-1.1-17.3-11.6-18.4-12.9C530.5,1479.1,573.9,1442.9,620,1459.8z"/>
									</defs>
									<clipPath id="SVGID_00000168810663541030440220000010938206264285527698_">
										<use xlink:href="#SVGID_1_"  style="overflow:visible;"/>
									</clipPath>
									<g style="clip-path:url(#SVGID_00000168810663541030440220000010938206264285527698_);">
										<path class="st4" d="M620,1459.8c0,0,29.3,50.1,54.9,61.9c25.6,11.8,33,24.5,26.1,29.9c-9.3,7-26.9-3.5-30.4-0.3
											c-8,7,15.2,22.9-4,30.7c-9.1,3.8-32.8-28-45-10.5c-10.4,15.1-19.4,23.7-28,12.9c-8.3-10.2,4.5-30.1-16-57.9
											c-0.8-1.1-17.3-11.6-18.4-12.9C530.5,1479.2,573.9,1442.8,620,1459.8z"/>
										<path class="st5" d="M640,1478.1c0,0-24.8-6.7-44.7-1.1c-20,5.7-30.4,28.8-23.7,44.7c4,8.9,5.9,18.6,6.1,28.5"/>
									</g>
								</g>
								<path class="st2" d="M177.4,1369.4c0,0-48.2,61.4-74.3,94.7c-26.1,33.4,7.2,67.8,37.8,54.9c30.6-12.9,65.8-42.8,86.3-71.3
									C247.7,1419.1,245.9,1329.8,177.4,1369.4z"/>
								<g>
									<defs>
										<path id="SVGID_00000049187612115867305430000006542660781397873068_" d="M100.2,1459.8c0,0-29.3,50.1-54.9,61.9
											c-25.6,11.8-33,24.5-26.1,29.9c9.3,7,26.6-3.5,30.4-0.3c8,7-15.2,22.9,4,30.7c9.1,3.8,32.8-28,44.7-10.6
											c10.4,15.1,19.4,23.7,28,13c8.3-10.3-4.5-30.2,16-57.9c0.8-1.1,17.3-11.6,18.4-12.9
											C189.9,1479.1,146.3,1442.9,100.2,1459.8z"/>
									</defs>
									<clipPath id="SVGID_00000138551311721899040900000018134088508487199156_">
										<use xlink:href="#SVGID_00000049187612115867305430000006542660781397873068_"  style="overflow:visible;"/>
									</clipPath>
									<g style="clip-path:url(#SVGID_00000138551311721899040900000018134088508487199156_);">
										<path class="st4" d="M100.2,1459.8c0,0-29.3,50.1-54.9,61.9c-25.6,11.8-33,24.5-26.1,29.9c9.3,7,26.6-3.5,30.4-0.3
											c8,7-15.2,22.9,4,30.7c9.1,3.8,32.8-28,44.7-10.5c10.4,15.1,19.4,23.7,28,12.9c8.3-10.2-4.5-30.1,16-57.9
											c0.8-1.1,17.3-11.6,18.4-12.9C189.9,1479.2,146.3,1442.8,100.2,1459.8z"/>
										<path class="st5" d="M80.7,1478.1c0,0,24.8-6.7,44.7-1.1c20,5.7,30.4,28.8,23.7,44.7c-4,8.9-5.9,18.6-5.9,28.5"/>
									</g>
								</g>
								<path class="st1" d="M530.3,1332.2l47.1,47.1c0,0-16.2,48.2-53.5,74.3l-19.4-85.1L530.3,1332.2z"/>
								<path class="st1" d="M190.2,1332.2l-47.1,47.1c0,0,16.2,48.2,53.8,74.3l19.4-85.1L190.2,1332.2z"/>
								<g>
									<defs>
										<path id="SVGID_00000101092439996984897590000003704039392085674668_" d="M465.8,1619.1c-30.4,31.8-41.8,53.3-105.5,53.3
											s-75.9-21-105.7-53.3c-25.6-27.7-51.4-77.8-56.5-125.4c-6.1-56.8,7.7-187.1,7.7-187.1h308.4c0,0,13.6,136.2,7.7,187.1
											C516.9,1541.6,491.9,1591.9,465.8,1619.1z"/>
									</defs>
									<clipPath id="SVGID_00000134210067303848392180000005187717097817409954_">
										<use xlink:href="#SVGID_00000101092439996984897590000003704039392085674668_"  style="overflow:visible;"/>
									</clipPath>
									<g style="clip-path:url(#SVGID_00000134210067303848392180000005187717097817409954_);">
										<path class="st1" d="M191,1294.5h339.5v404.3H191V1294.5z"/>
										<path class="st8" d="M504.2,1368.5c0,0-1.1,128.7-69.5,214.2c-41.8,52.2-38.1,99-38.1,99h-73c0,0,3.7-46.8-38.1-99
											c-68.4-85.6-69.5-214.2-69.5-214.2H504.2z"/>
									</g>
								</g>
								<path class="st9" d="M580.6,1191.2c0,129.2-193.9,242.2-220.5,242.2c-26.6,0-220.5-113.3-220.5-242.2
									s103.6-233.9,220.8-233.9S580.6,1062,580.6,1191.2z"/>
								<path class="st2" d="M463.9,1167.5c-18.4-27.5-45.3-80.7-103.9-80.7c-58.6,0-85.2,53.3-103.6,80.7
									c-33.6,50.3-50.6,139.2-50.6,139.2s39.9,120.9,154.5,120.9s154.2-120.9,154.2-120.9S497.5,1218.1,463.9,1167.5z"/>
								<path class="st10" d="M475.1,1361.3c-25.6,49.8-65,79.4-115,79.4s-92.7-35.8-115-79.4c-11.7-22.6-21-79.4-21-79.4
									s4.5,53.3,21-0.8c16-52.5,115-4.8,115-4.8s106.3-22.9,115.3,4.8c17.8,55.4,20.5,0.8,20.5,0.8S486.6,1338.4,475.1,1361.3z"/>
								<path class="st11" d="M496.2,1281.1c0.8,4,1.3,8.1,1.6,12.1c0,2.2,0,4.3,0,6.2c0,2.4-0.5,4.6-1.3,7
									c-0.5,1.6-1.6,3.2-2.9,4.3c-1.1,0.8-2.4,1.6-4,1.6c-1.3,0.3-2.9,0-4.3-0.5c-1.9-0.8-3.5-1.9-4.8-3.2
									c-0.5-0.5-1.1-1.1-1.3-1.6l-1.1-1.6c-1.3-1.9-2.4-3.8-3.5-5.7l-3.2-5.1c-3.2-6.2-7.7-11.6-12.8-16.1c-1.9-1.6-4-2.7-6.4-3
									c-1.6-0.3-3.5,0-5.1,0.5c-0.5,0-0.8,0.3-1.1,0.5l-0.5,0.3l-1.1,0.3c-1.3,0.3-2.7,0.8-4,1.3c-2.7,1.1-5.1,2.2-7.5,3.5
									c-5.1,2.7-10.7,6.2-17.8,10c-8,4.3-16.5,7.8-25.3,10.2c-9.6,2.7-19.4,4-29.3,4c-9.9,0-19.7-1.3-29.3-4
									c-8.8-2.4-17-5.9-25-10.5c-7.2-3.8-12.8-7.5-17.8-10.2c-2.4-1.3-5.1-2.7-7.7-3.8c-1.3-0.5-2.7-1.1-4-1.3l-1.6-0.3l-0.5-0.3
									c-0.5-0.3-0.8-0.3-1.3-0.5c-1.6-0.8-3.5-0.8-5.3-0.5c-2.4,0.5-4.8,1.6-6.7,3.2c-5.3,4.6-9.6,10-13,16.1l-3.2,5.1
									c-1.1,1.9-2.1,3.5-3.5,5.7c-0.8,1.1-1.6,2.2-2.4,3c-1.3,1.3-2.7,2.4-4.3,3c-1.1,0.5-2.4,0.5-3.7,0.5
									c-1.3-0.3-2.4-0.8-3.5-1.6c-1.3-1.1-2.1-2.4-2.7-4c-0.8-2.2-1.1-4.3-1.3-6.7c-0.3-2.2-0.3-4-0.3-6.2c0-4,0.3-8.1,0.8-11.8
									c0.8,3.8,1.9,7.8,2.9,11.3c0.5,1.9,1.3,3.8,2.1,5.4c0.8,1.6,1.6,3,2.7,4.3c0.5,0.5,1.1,0.8,0.8,0.5
									c-0.3-0.3-0.5-0.5-0.8-0.5c-0.3,0-0.5,0-0.8,0c-0.3-0.3,0-0.3,0-0.8c0-0.5,0.5-1.1,0.5-1.9c0.8-3,1.6-7,2.1-10.8
									c1.3-8.9,3.7-17.5,7.5-25.6c2.4-5.1,5.6-9.4,9.6-13.2c4.5-4.3,10.1-7.5,16-9.4c1.6-0.5,2.9-0.8,4.5-1.3l2.1-0.5l1.9-0.3
									c2.4-0.5,5.1-0.8,7.5-1.1c5.1-0.5,10.1-0.5,15.2,0c8.8,1.1,17.6,2.4,26.1,4.6c11.7,3,23.7,4.6,36,4.6
									c12-0.3,24-1.9,35.7-5.1c8.5-2.2,17.3-3.8,26.1-4.8c5.1-0.5,10.1-0.5,15.2,0c2.7,0.3,5.1,0.5,7.7,1.1l1.9,0.3l2.4,0.5
									c1.6,0.3,3.2,0.8,4.5,1.3c6.1,1.9,11.7,5.1,16.2,9.4c4,3.8,7.5,8.3,9.9,13.5c3.7,8.1,6.4,17,7.7,25.8
									c0.8,3.8,1.3,7.8,2.1,10.8l0.5,1.9c0.3,0.3,0,0.5-0.3,0.5c-0.5,0-1.1,0-1.3,0c-0.5,0-1.1,0.3-1.3,0.8
									c-0.3,0.5,0.3,0.3,0.5-0.3c1.1-1.3,1.9-2.7,2.4-4c0.8-1.9,1.6-3.5,2.1-5.4C493.5,1288.6,494.8,1284.8,496.2,1281.1z"/>
								<path class="st4" d="M354,1122.5l-13.8-89.4c-1.6-11,5.9-21.5,16.8-23.4c10.9-1.6,21.3,5.9,23.2,17c0.3,2.2,0.3,4.3,0,6.2
									l-13.8,89.6c-0.5,3.5-3.7,5.7-6.9,5.4C356.6,1127.7,354.5,1125.5,354,1122.5z"/>
								<path class="st10" d="M368.3,1162.4c0,4.6-3.7,8.3-8.3,8.3c-4.6,0-8.3-3.7-8.3-8.3c0-4.6,3.7-8.3,8.3-8.3
									C364.7,1154,368.3,1157.8,368.3,1162.4z"/>
								<path class="st10" d="M349.4,1191.2c0,4.6-3.7,8.3-8.3,8.3c-4.6,0-8.3-3.7-8.3-8.3c0-4.6,3.7-8.3,8.3-8.3
									C345.7,1182.8,349.4,1186.6,349.4,1191.2z"/>
								<path class="st10" d="M387.3,1191.2c0,4.6-3.7,8.3-8.3,8.3c-4.6,0-8.3-3.7-8.3-8.3c0-4.6,3.7-8.3,8.3-8.3
									C383.6,1182.8,387.3,1186.6,387.3,1191.2z"/>
								<path class="st11" d="M323.3,1098.6v11.6c0,0-20.2,1.3-29,7.8c-5.1,3.5-8.8,8.6-10.4,14.5c0,0,1.6-29.6,14.4-32.3
									C306.3,1098.6,314.8,1098,323.3,1098.6z"/>
								<path class="st11" d="M397.1,1098.6v11.6c0,0,20.2,1.3,29,7.8c5.1,3.5,8.8,8.6,10.4,14.5c0,0-1.6-29.6-14.4-32.3
									C413.9,1098.6,405.4,1098,397.1,1098.6z"/>
								<path class="st12" d="M255.7,1155.1c-10.1,23.1-4.3,43.1,8,53.6s26.9-10.5,37-33.6c10.1-23.1,15.2-50.1-0.5-50.3
									C284.5,1124.4,265.8,1132,255.7,1155.1z"/>
								<path class="st4" d="M298.1,1135.4c7.6,3.5,7.3,20.9-0.7,38.9c-8,18-20.7,29.8-28.4,26.3c-7.6-3.5-7.3-20.9,0.7-38.9
									C277.8,1143.7,290.5,1132,298.1,1135.4z"/>
								<path d="M292.8,1147.5c4.8,2.2,4.6,13.2-0.4,24.6c-5.1,11.4-13.1,18.8-17.9,16.6c-4.8-2.2-4.6-13.2,0.4-24.6
									C279.9,1152.7,288,1145.3,292.8,1147.5z"/>
								<path class="st12" d="M464.5,1155.1c10.1,23.1,4.3,43.1-8,53.6c-12.2,10.5-26.9-10.5-37-33.6c-10.1-23.1-15.2-50.1,0.5-50.3
									C435.7,1124.4,454.4,1132,464.5,1155.1z"/>
								<path class="st4" d="M450.4,1161.8c8,18,8.3,35.5,0.7,38.9c-7.6,3.5-20.4-8.3-28.4-26.3c-8-18-8.3-35.5-0.7-38.9
									C429.6,1132,442.3,1143.8,450.4,1161.8z"/>
								<path d="M445.3,1164.1c5.1,11.4,5.3,22.4,0.4,24.6c-4.8,2.2-12.9-5.3-17.9-16.6c-5.1-11.4-5.3-22.4-0.4-24.6
									C432.2,1145.3,440.2,1152.7,445.3,1164.1z"/>
								<path class="st13" d="M453.3,1054.2c0,9.4-7.5,17-16.8,17c-9.3,0-16.8-7.6-16.8-17c0-9.4,7.5-17,16.8-17
									C445.8,1037.2,453.3,1044.8,453.3,1054.2z"/>
								<path class="st13" d="M501.8,1122.5c0,5.5-4.4,10-9.9,10s-9.9-4.5-9.9-10c0-5.5,4.4-10,9.9-10S501.8,1117,501.8,1122.5z"/>
								<path class="st13" d="M501.8,1073c0,6.4-5.1,11.6-11.5,11.6c-6.3,0-11.5-5.2-11.5-11.6s5.1-11.6,11.5-11.6
									C496.6,1061.4,501.8,1066.6,501.8,1073z"/>
								<path class="st14" d="M209.6,1142.5c-8.8-4.6-17.3-10-25.3-15.6c-20,113.9,32,167.7,32,167.7
									C197.9,1230.2,199.5,1180.4,209.6,1142.5z"/>
								<path class="st13" d="M293.8,999.5c0,0-82,30.1-105.2,109c8.3,6.5,17.3,12.4,26.6,17.2c23.7-65.1,73.2-88.8,73.2-88.8
									C284.7,1027.3,293.8,999.5,293.8,999.5z"/>
								<path class="st14" d="M523.9,1132.5c0,0,23.7,94.7-54.3,194.3c0,0,73-59.5,80.4-136.2
									C557.4,1113.9,523.9,1132.5,523.9,1132.5z"/>
								<path class="st15" d="M195.5,1302.1c0,0-6.4-15.6-22.1,0c-16,15.6-8.8,21,0,40.6c8.8,19.6,54.1,158.5,186.9,158.5v-67.8
									c-29.8-2.7-66.8-3.5-109.4-63.5C205.9,1306.6,195.5,1302.1,195.5,1302.1z"/>
								<path class="st15" d="M524.9,1302.1c0,0,6.4-15.6,22.1,0c16,15.6,8.8,21,0,40.6c-8.8,19.6-54.1,158.5-186.7,158.5v-67.8
									c29.8-2.7,66.8-3.5,109.4-63.5C514.5,1306.6,524.9,1302.1,524.9,1302.1z"/>
							</g>
						</g>
					</g>
				</g>
			</g>
		</g>
	</g>
</g>
</svg>
