<?xml version="1.0" encoding="utf-8"?>
<!-- Generator: Adobe Illustrator 25.2.0, SVG Export Plug-In . SVG Version: 6.00 Build 0)  -->
<svg version="1.1" id="Layer_1" xmlns="http://www.w3.org/2000/svg" xmlns:xlink="http://www.w3.org/1999/xlink" x="0px" y="0px"
	 viewBox="0 0 350 892.9" style="enable-background:new 0 0 350 892.9;" xml:space="preserve">
<style type="text/css">
	.st0{fill:#ADDFE7;}
	.st1{fill:#C7E9F4;}
	.st2{fill:#4D4D4D;}
	.st3{fill:#808080;}
	.st4{fill:#989898;}
	.st5{fill:#89F6E3;}
	.st6{fill:#D53520;}
	.st7{fill:#EE3B24;}
	.st8{fill:#F8CB35;}
	.st9{fill:#C1301D;}
	.st10{fill:#BE9C29;}
	.st11{fill:#F37229;}
	.st12{fill:#1B1464;}
	.st13{fill:#172EA0;}
	.st14{fill:#172EA1;}
	.st15{fill:#175884;}
	.st16{fill:#485AB5;}
	.st17{fill:#D56424;}
	.st18{fill:#FFF3CB;}
	.st19{fill:#2541EA;}
</style>
<g id="ride">
	<path class="st0" d="M96.7,795.7c-19.3,16.1-21,95.8,3,47.1c9.7,55.9,18.9,74,34.8,7.2c2.6,5,4.2,10.5,4.7,16.1
		c0.2,1.9,1.9,3.2,3.7,3c1.1-0.1,2.1-0.8,2.6-1.9c10.4-22,2.2-49.5-6.1-71.6H96.7z"/>
	<path class="st1" d="M105.1,795.7c-11,9.2-12,54.7,1.7,26.8c2.6,11.1,4,22.7,9.3,32.8c6.8-11.5,12.8-43.2,12.9-12.9
		c11.3-13.2,5.8-32,0.3-46.7L105.1,795.7z"/>
	<path class="st2" d="M143.5,797.2L143.5,797.2c-17.6,6.1-36.7,6.1-54.2,0l0,0c-2.5-0.8-3.8-3.5-3-5.9c0-0.1,0-0.1,0.1-0.2l9.9-27.1
		h40.2l9.9,27.1c1,2.3-0.1,5-2.4,6C143.8,797.1,143.6,797.2,143.5,797.2z"/>
	<path class="st0" d="M253.2,795.7c19.3,16.1,21,95.8-3.1,47.1c-9.7,55.9-18.9,74-34.8,7.2c-2.6,5-4.2,10.5-4.7,16.1
		c-0.2,1.9-1.9,3.2-3.7,3c-1.1-0.1-2.1-0.8-2.6-1.9c-10.4-22-2.2-49.5,6.1-71.6H253.2z"/>
	<path class="st1" d="M244.7,795.7c11,9.2,12,54.7-1.7,26.8c-2.6,11.1-4,22.7-9.3,32.8c-6.8-11.5-12.8-43.2-12.9-12.9
		c-11.3-13.2-5.8-32-0.3-46.7L244.7,795.7z"/>
	<path class="st2" d="M206.4,797.2L206.4,797.2c17.6,6.1,36.7,6.1,54.2,0l0,0c2.5-0.8,3.8-3.5,3-5.9c0-0.1,0-0.1-0.1-0.2l-9.9-27.1
		h-40.3l-9.9,27.1c-0.9,2.4,0.3,5.2,2.8,6.1C206.3,797.2,206.3,797.2,206.4,797.2z"/>
	<rect y="730.1" class="st3" width="350" height="18.5"/>
	<ellipse class="st3" cx="174.9" cy="748.6" rx="174.9" ry="29.1"/>
	<ellipse class="st4" cx="174.9" cy="730.1" rx="174.9" ry="29.1"/>
</g>
<g id="b-hand">
	<path class="st5" d="M74.2,379.7c-1,7.6,1.5,15.5,5.4,21.4c2.3,3.6,5.3,6.8,8.9,7.5c4.1,0.7,7.9-2,8.8-6c0.9-3.8-0.5-7.7-1.6-11.5
		s-1.8-8.2,0.2-11.2l-2.8-8.5L74.2,379.7z"/>
	<path class="st5" d="M98,369l-8.1,3.9c0.7,2.9,1.3,5.7,2,8.5c3.1,0.6,4.9,4.5,5.9,8.1c0.2,0.9,0.5,1.8,0.8,2.8c0.6,2,3,1.8,3.5-0.2
		C103.7,385.1,100.8,376.4,98,369z"/>
	<path class="st5" d="M92.1,353.5L98,369l-10.2,11.5l-13.9,3.7c0,0-2.6-15-0.7-27.6L92.1,353.5z"/>
</g>
<path id="b-arm" class="st6" d="M83.8,367.4c-17.6,2.6-15.6-4.5-21.3-24.2c-16.9-80.8,3.8-170.1,64.9-205.9l0.4,1.4
	c10.7,37.7,7.3,79.4-8.7,114.7C88.8,320.4,112.1,365.4,83.8,367.4z"/>
<path id="r-thigh" class="st7" d="M292.2,381l-7.6,90.3c-2.4,27.1-23.8,47.7-49.6,47.7l0,0c-25.6,0-47.1-20.5-49.6-47.2l-8.4-89.7
	c-7.8-33.4,19-65.3,55.7-66.2l0,0C270.5,314.8,299.4,346.5,292.2,381z"/>
<polygon id="r-calf" class="st7" points="283,480.4 263,637 206.8,637 186.8,481.4 "/>
<path id="l-thigh" class="st7" d="M83.1,372l7.2,85.4c2.2,25.6,22.5,45.1,46.9,45.1l0,0c24.2,0,44.5-19.3,46.9-44.6L192,373
	c7.4-31.6-17.9-61.8-52.7-62.6l0,0C103.6,309.5,76.2,339.5,83.1,372z"/>
<polygon id="l-calf" class="st7" points="91.7,466 110.8,614.1 163.9,614.1 182.7,467 "/>
<g id="body">
	<path class="st7" d="M293.7,363.6c0.2-14.8-2.6-30-7.7-45.5c-0.6-1.7-1.2-3.5-1.8-5.2c-4-10.8-8.7-21.3-14-31.5c-0.5-1.1-1-2-1.5-3
		c-29.8-2.8-58.9-4.4-87-5.1c-27.3-0.7-54-0.4-79.8,0.7c-0.4,1-0.9,1.8-1.2,2.6c-4.3,8.9-8.1,18-11.3,27.3c-0.2,1-0.6,1.9-0.9,2.8
		c-6.4,19.6-8.8,39-5.7,58.5h0.2c1.7,18.4,34.7,35.7,83.2,39.9c48.9,4.2,98.7-5.7,118.5-23.8c5.6-5.1,8.8-10.8,8.9-17.1
		c0-0.2,0-0.3,0-0.5C293.7,363.7,293.7,363.7,293.7,363.6z"/>
	<path class="st8" d="M284.6,309.1c1,2.6,0.6,5.5-1.1,7.7c-6.5,8-17.1,12.7-27,16c-44.2,14.5-91.7,13.1-133-2.8
		c-13-5-25.8-11.8-35.1-22.4c-1.9-2.2-2.5-5.2-1.5-7.9c2.5-6.8,5.2-13.4,8.4-20.1c1-2.2,3.2-3.7,5.6-3.6l166.1,4.6
		c2.9,0.1,5.4,1.8,6.7,4.3C277.9,292.7,281.5,300.8,284.6,309.1z"/>
	<path class="st9" d="M277.8,294.9c-10.8,13.9-44.8,26.9-96.9,24.4h-0.3c-49.6-2.4-79-17.2-88-30.8c0,0-6.1-18.1-6.1-29
		c0-54,28-111.9,28-111.9l63.4-2.7l74.1-3.1c0,0,24.1,57.4,24.1,117C276,270.8,277.8,294.9,277.8,294.9z"/>
	<rect x="124" y="128.7" class="st10" width="121.4" height="26.6"/>
	<path class="st11" d="M124.3,146.3c0,0,45.3-12.7,117.3,8.5l-1.3,18l-74.1,12.9l-42.9-24.9L124.3,146.3L124.3,146.3z"/>
	<path class="st8" d="M166.4,181.6c1.7,0.6,3.7,1.2,5,2.6s1.8,3.8,0.4,5c-1.1,0.6-2.3,0.8-3.5,0.6c-11.7-1.1-23.2-4.1-34-8.9
		c-7.4-3.3-14.4-7.6-19.2-13.9c-4.7-6.2-7.3-15-5.2-22.8c2.7-10,12-16.2,21.4-19.7c8-3.1,16.7-4.9,25.7-6.7c5.7-1.2,12-2.4,17.5-0.3
		c5.6,2.1,10.2,8.4,7.8,14.3c-1.8,4.3-6.5,6.7-11,7.5c-4.4,0.6-8.7-0.2-13-0.4c-9.6-0.6-35.2,2.1-29.3,17.1
		C133.4,167.5,154.5,177.6,166.4,181.6z"/>
	<path class="st8" d="M174.2,182.3c-1.8,0.3-3.8,0.5-5.2,1.7s-1.9,3.4-0.6,4.9c1,0.8,2.2,1.3,3.5,1.4c14,1.6,28.3,1.1,42.2-1.6
		c11.8-2.2,24.1-6,33.4-13.5c9.7-7.9,15.8-20.4,11.7-31.8c-4.9-14.1-22.2-21.4-37.8-24.3c-11.9-2.3-23.5-2.9-34.6-3.3
		c-6.4-0.4-13-0.5-18.6,2.4c-5.4,2.8-9.7,9.3-7.8,14.7c1.5,4,5.8,6.1,10.2,6.7s9.1-0.5,13.9-0.9c11.6-1.1,49.6,0.9,39.1,20.2
		C216.2,172.4,187.7,180.4,174.2,182.3z"/>
	<path class="st9" d="M141.5,394.9c4.8,2.4,9.7,4.5,14.8,6.2c5,1.6,10.2,2.6,15.4,3c1.3,0.1,2.6,0.1,3.9,0.1c1.2-0.1,2.6,0,3.9-0.2
		c2.6-0.2,5.3-0.5,7.9-0.9c5.2-1,10.4-2.4,15.5-4.1c-4.5,3.2-9.5,5.6-14.8,7.1c-2.7,0.8-5.4,1.4-8.2,1.7c-2.8,0.3-5.6,0.4-8.4,0.2
		c-1.4-0.1-2.8-0.3-4.1-0.4s-2.8-0.5-4.1-0.8l-4-1.2c-1.4-0.5-2.6-1-3.9-1.5C150.2,401.7,145.5,398.6,141.5,394.9z"/>
	<path class="st12" d="M186.3,330.4c0,4.1-1.2,8.1-3.6,11.4c-6.9,4.8-16,4.8-22.9,0c-0.4-0.2-0.7-0.5-1.1-0.8
		c-8.2-6.6-9.9-18.4-3.9-27c9.1-6.3,21.5-4.1,27.8,5C185.1,322.4,186.3,326.4,186.3,330.4L186.3,330.4z"/>
	<path class="st13" d="M184.7,333c0,4-1.2,7.9-3.4,11.2c-3.6,5.1-9.6,7.8-15.8,7.3c-10.6-0.9-19.2-10.5-19.2-21.6
		c-0.1-6.3,3-12.2,8.2-15.7c3.3-2.1,7.1-3,11-2.7C176.1,312.3,184.7,322,184.7,333z"/>
	<polygon class="st5" points="165.5,318.8 168.5,328.7 178.3,329.5 170.4,334.8 173.4,344.8 165.5,338.1 157.6,343.5 160.6,334 
		152.7,327.4 162.5,328.2 	"/>
</g>
<g id="r-shoe">
	<path class="st5" d="M195.4,712.7h2.1c2-6.4,4.6-12.3,5.1-15c1.3-6,5.6-30.3,5.6-30.3l26.2,0.1l26.2-0.1c0,0,4.3,24.5,5.6,30.3
		c0.6,2.7,3.3,8.6,5.1,15h2.1v13.9l0,0c-0.3,3.7-1.6,6.9-4.6,8.9c-5,3.4-19.7,4.9-34.5,4.7c-14.9,0.1-29.4-1.1-34.4-4.7
		c-3-2-4.3-5.3-4.6-8.9l0,0L195.4,712.7L195.4,712.7z"/>
	<path class="st13" d="M202.8,685.5c1.3-6,5.6-30.3,5.6-30.3l26.2,0.2l26.2-0.2c0,0,4.3,24.5,5.6,30.3c1.4,6.3,14,30,2.7,37.8
		c-5,3.4-19.7,4.9-34.5,4.7c-14.9,0.2-29.4-1.1-34.5-4.7C188.8,715.5,201.4,691.8,202.8,685.5z"/>
	<polygon class="st14" points="206.7,665.3 262.4,665.3 266.1,628.2 203.5,628.2 	"/>
	<path class="st15" d="M234.6,662.3L234.6,662.3c6.5,0,11.7-5.2,11.7-11.6c0,0,0,0,0-0.1v-22.9h-23.6v22.9
		C222.7,657.1,228,662.4,234.6,662.3z"/>
	<path class="st16" d="M259.1,696.7c-4.1-1-8-2-11.9-2.6c-3.8-0.6-7.7-1-11.6-1c-3.9,0-7.8,0.3-11.6,0.9c-3.9,0.6-7.7,1.6-11.9,2.6
		c3.1-3,6.7-5.3,10.8-6.7c4.1-1.5,8.4-2.2,12.7-2.2c4.3,0,8.7,0.8,12.7,2.3C252.4,691.4,256.1,693.7,259.1,696.7z"/>
	<path class="st5" d="M204.5,629.2c20.6,2.7,41.5,2.7,62.1,0c3.4-0.3,5.9-3.4,5.6-6.9c0,0,0-0.1,0-0.1c-0.2-0.7-0.3-1.4-0.3-2.1
		c-0.6-3.4-3.7-5.7-7.1-5.3c-19.4,2.6-39,2.6-58.3,0c-3.4-0.5-6.6,1.9-7.1,5.3c-0.2,0.7-0.3,1.4-0.3,2.1c-0.4,3.4,2,6.6,5.4,7
		C204.4,629.2,204.5,629.2,204.5,629.2z"/>
</g>
<g id="l-shoe">
	<polygon class="st14" points="109.4,674 166.8,674 170.6,621.9 106.2,621.9 	"/>
	<path class="st14" d="M109.4,674l-44.9,30.5c-4,2.7-6.3,7.2-6.3,11.9l0,0c0,6.7,4.6,12.5,11.1,14l0,0c21.8,5.1,44.6,4.5,66-2
		l15.7-4.7c8.8-2.7,14.9-10.7,15.1-19.9l0.7-29.8L109.4,674z"/>
	<path class="st5" d="M168.1,708.7c0,0-0.1,3.7,0,6c0.1,1.8-1.1,3.5-2.8,4.2l-2.3,0.9c-1,0.4-2,0.7-3,1.1l-24.8,8.1
		c-11.9,3.4-24.3,5.1-36.7,4.9c-9.8,0-19.7-1.1-29.2-3.4c-6.5-1.5-11.1-7.3-11.1-14c0-1.4,0.2-2.7,0.6-4.1c0.5,1.1,1.2,2.1,2,3.1
		c2.3,2.6,5.4,4.4,8.8,5.1c24,5.1,48.9,4.4,72.6-2l17.3-4.7C161.2,713.3,166.6,709.5,168.1,708.7z"/>
	<path class="st15" d="M112.8,621.5l1.6,23.3c0.4,5.4,4.4,9.8,9.8,10.7l0,0c6.3,1,12.3-3.3,13.3-9.7c0-0.3,0.1-0.6,0.1-0.9l1.6-20.8
		L112.8,621.5z"/>
	<path class="st5" d="M167,625.1c-20,2.6-40.3,2.6-60.3,0c-3.3-0.3-5.8-3.3-5.4-6.7c0,0,0-0.1,0-0.1c0.2-0.7,0.2-1.4,0.3-2.1
		c0.5-3.3,3.7-5.6,7-5.1c18.8,2.5,37.9,2.5,56.7,0c3.3-0.5,6.5,1.8,7,5.1c0.2,0.7,0.2,1.4,0.3,2.1c0.4,3.3-1.9,6.4-5.3,6.8
		C167.1,625.1,167.1,625.1,167,625.1z"/>
	<path class="st14" d="M166.8,674h-57.4l-44.9,30.5c-2.8,1.9-4.8,4.7-5.7,7.8c0.5,1.1,1.2,2.1,2,3.1c2.3,2.6,5.4,4.4,8.8,5.1
		c24,5.1,48.9,4.4,72.6-2l17.3-4.7c1.7-0.5,3.3-1.1,4.9-1.9C176,708.1,166.8,674,166.8,674z"/>
</g>
<g id="head">
	<path class="st11" d="M265.2,52.9c2.2-45.6-103.3-71.5-135.7-37c-2,2.1-4,4.1-5.9,6.1c-12.6,13-12.2,33-0.3,47.3H123
		c20.8,20.4,40.2,65.6,19.9,85.7c11.4,17.1,60.5,21.8,76.4,3.3c-17.9-20.5-2.8-50.8,19.8-70.1C252.1,80.2,265.2,68.2,265.2,52.9z"/>
	<path class="st17" d="M234.7,56.2c-1-9.6-8.6-16.9-17.1-17c-24.9-0.1-49.7-3.2-73.8-9.3c-8.4-2-16.6,3.4-18.3,12.5
		s4.2,19,13.5,21.2c26.3,6.7,53.4,10.1,80.6,10.2C229,73.8,235.7,65.7,234.7,56.2z"/>
	<path class="st8" d="M214.7,70.2c-27.2-0.4-54.2-3.8-80.6-10.2c-9.2-2.1-15.4-11.2-13.5-19.3l0,0c1.7-8.3,9.8-12.9,18.3-11
		c24.2,5.9,48.9,9,73.8,9.3c8.7,0.2,16,6.8,17.2,15.4l0,0C230.9,63.2,224.1,70.4,214.7,70.2z"/>
	<path class="st18" d="M135,54.4c-5.6-1.4-9.5-6.8-8.6-12s6-8.2,11.4-6.9c24.6,5.9,49.7,9.1,75,9.5c5.5,0.2,10,4.3,10.7,9.7
		c0.6,5.4-3.6,9.7-9.4,9.7C187.5,64,160.9,60.6,135,54.4z"/>
	<path class="st19" d="M141.9,46.2c0.3-2.3,2.5-3.8,4.7-3.5c0.2,0,0.4,0.1,0.5,0.1c2.6,0.5,4.3,2.8,4.1,5.4c-0.2,2.5-2.7,4-5.3,3.5
		C143.5,51.2,141.8,48.8,141.9,46.2z"/>
	<path class="st19" d="M170.2,51.3c0.2-2.3,2.2-4.1,4.5-3.9c0.1,0,0.3,0,0.4,0.1c2.6,0.2,4.5,2.4,4.5,5c-0.1,2.3-2.1,4.1-4.4,4.1
		c-0.2,0-0.3,0-0.5-0.1C172.2,56.2,170.2,54,170.2,51.3z"/>
	<path class="st19" d="M198.6,54.2c0-2.4,1.8-4.3,4.2-4.3c0.1,0,0.2,0,0.3,0c2.6,0.1,4.7,2.1,5,4.7c0.2,2.2-1.5,4.2-3.7,4.3
		c-0.3,0-0.5,0-0.8,0C201,58.9,198.8,56.9,198.6,54.2z"/>
	<path class="st13" d="M197.4,91.4c-0.2,1.5-0.9,2.8-2.1,3.7c-1.2,0.9-2.8,1.4-4.3,1.2c-12.7-1.3-25.2-3.4-37.6-6.3
		c-3-0.6-4.8-3.5-4.2-6.5c0-0.1,0-0.1,0-0.2c0.8-2.9,3.8-4.7,6.7-4c12,2.8,24.1,4.8,36.4,6.1C195.3,85.7,197.6,88.3,197.4,91.4z"/>
	<path class="st5" d="M197.4,91.4c-16.3-1.4-32.4-4.1-48.2-8.1c0.8-2.9,3.8-4.7,6.7-4c12,2.8,24.1,4.8,36.4,6.1
		C195.4,85.7,197.6,88.3,197.4,91.4z"/>
</g>
<path id="r-hand" class="st5" d="M283.8,376l8.1-15.3l23.3,3.9c1.7,12.6-2.3,27.6-2.3,27.6h0c-0.6,6.1-3.7,12-7.8,16.6
	c-3.1,3.5-7,6.5-11.5,7.2s-9.5-1.9-10.6-6.3c-0.9-3.8,1-7.7,2.5-11.4c1.1-2.6,1.9-5.6,1.5-8.2c-1.9,1.7-3.3,3.9-4.2,6.3
	c-0.4,0.9-0.7,1.8-1.1,2.7c-0.5,1.1-1.9,1.6-3.1,1.1c-0.6-0.3-1-0.8-1.2-1.4C275.8,391.9,279.9,383.3,283.8,376z"/>
<path id="f-arm" class="st6" d="M301.5,375c21.8,3.3,19.6-3.8,27.7-23.3c25.2-80.1,4.2-170.1-70-208.4l-0.6,1.4
	c-15.1,37.2-13.3,79.2,4.9,115C297.8,327.9,266.5,371.9,301.5,375z"/>
<path id="collar" class="st8" d="M223.7,158.6c-7.6,13.8-36,21.7-49.5,23.6c-1.8,0.3-3.8,0.5-5.2,1.7s-1.9,3.4-0.6,4.9
	c1,0.8,2.2,1.3,3.5,1.4c14,1.6,28.3,1.1,42.2-1.6c11.8-2.2,24.1-6,33.4-13.5c9.7-7.9,15.8-20.4,11.7-31.8L223.7,158.6z"/>
</svg>
