<?xml version="1.0" encoding="utf-8"?>
<!-- Generator: Adobe Illustrator 25.2.0, SVG Export Plug-In . SVG Version: 6.00 Build 0)  -->
<svg version="1.1" id="Layer_1" xmlns="http://www.w3.org/2000/svg" xmlns:xlink="http://www.w3.org/1999/xlink" x="0px" y="0px"
	 viewBox="0 0 350 864" style="enable-background:new 0 0 350 864;" xml:space="preserve">
<style type="text/css">
	.st0{fill:#89F6E3;}
	.st1{fill:#D53520;}
	.st2{fill:#ADDFE7;}
	.st3{fill:#C7E9F4;}
	.st4{fill:#4D4D4D;}
	.st5{fill:#808080;}
	.st6{fill:#989898;}
	.st7{fill:#D43520;}
	.st8{fill:#132788;}
	.st9{fill:#13476A;}
	.st10{fill:#7BDCCB;}
	.st11{fill:#EE3B24;}
	.st12{fill:#172EA1;}
	.st13{fill:#175884;}
	.st14{fill:#F8CB35;}
	.st15{fill:#BE9C29;}
	.st16{fill:#C1301D;}
	.st17{fill:#172EA0;}
	.st18{clip-path:url(#SVGID_2_);}
	.st19{fill:#1B1464;}
	.st20{fill:#F37229;}
	.st21{fill:#D56424;}
	.st22{fill:#FFF3CB;}
	.st23{fill:#2541EA;}
	.st24{clip-path:url(#SVGID_4_);}
</style>
<path id="b-hand" class="st0" d="M52.8,201.2c-7-0.1-13.9-1.6-20.3-4.5c-5.4-1.8-10.5-4.7-14.8-8.4c-3.2-2.7-6.1-5.9-6.9-9
	s1.1-5.8,4.9-5.6c3.3,0.2,6.8,2.2,10.1,4c1.9,1.1,3.9,1.9,6,2.4c-0.9-2.4-2.5-4.6-4.5-6.3c-0.7-0.6-1.5-1.3-2.2-2
	c-0.8-0.9-0.7-2.4,0.2-3.2c0.5-0.4,1-0.6,1.6-0.6c7,0.8,13.4,7.3,18.8,13.4l8.9,5.2L52.8,201.2z"/>
<path id="b-arm" class="st1" d="M223.5,220.1c22.3-12.4,29.2-40,17.8-56.2s-32.1-19.2-47.9-10.6c-2.2,1.2-4.3,2.7-6.2,4.3
	c-37.7,24.9-84.7,34.2-132.8,22.7c-2.2-0.5-3.6,1.1-4.9,3c-3.6,5.2-5.8,8.3-7,13c-1.3,5.2-1.4,10.6-0.2,15.9
	c0.4,1.9,0.4,3.8,2.2,4.6c53.8,25.4,114.1,28.6,169.8,7.1C217.5,223,220.6,221.7,223.5,220.1z"/>
<g id="ride">
	<path class="st2" d="M96.7,766.8c-19.3,16.1-21,95.8,3,47.1c9.7,55.9,18.9,74,34.8,7.2c2.6,5,4.2,10.5,4.7,16.1
		c0.2,1.9,1.9,3.2,3.7,3c1.1-0.1,2.1-0.8,2.6-1.9c10.4-22,2.2-49.5-6.1-71.6H96.7z"/>
	<path class="st3" d="M105.1,766.8c-11,9.2-12,54.7,1.7,26.8c2.6,11.1,4,22.7,9.3,32.8c6.8-11.5,12.8-43.2,12.9-12.9
		c11.3-13.2,5.8-32,0.3-46.7L105.1,766.8z"/>
	<path class="st4" d="M143.5,768.3L143.5,768.3c-17.6,6.1-36.7,6.1-54.2,0l0,0c-2.5-0.8-3.8-3.5-3-5.9c0-0.1,0-0.1,0.1-0.2l9.9-27.1
		h40.2l9.9,27.1c1,2.3-0.1,5-2.4,6C143.8,768.3,143.6,768.3,143.5,768.3z"/>
	<path class="st2" d="M253.2,766.8c19.3,16.1,21,95.8-3.1,47.1c-9.7,55.9-18.9,74-34.8,7.2c-2.6,5-4.2,10.5-4.7,16.1
		c-0.2,1.9-1.9,3.2-3.7,3c-1.1-0.1-2.1-0.8-2.6-1.9c-10.4-22-2.2-49.5,6.1-71.6H253.2z"/>
	<path class="st3" d="M244.7,766.8c11,9.2,12,54.7-1.7,26.8c-2.6,11.1-4,22.7-9.3,32.8c-6.8-11.5-12.8-43.2-12.9-12.9
		c-11.3-13.2-5.8-32-0.3-46.7L244.7,766.8z"/>
	<path class="st4" d="M206.4,768.3L206.4,768.3c17.6,6.1,36.7,6.1,54.2,0l0,0c2.5-0.8,3.8-3.5,3-5.9c0-0.1,0-0.1-0.1-0.2l-9.9-27.1
		h-40.3l-9.9,27.1c-0.9,2.4,0.3,5.2,2.8,6.1C206.3,768.3,206.3,768.3,206.4,768.3z"/>
	<rect y="701.2" class="st5" width="350" height="18.5"/>
	<ellipse class="st5" cx="174.9" cy="719.7" rx="174.9" ry="29.1"/>
	<ellipse class="st6" cx="174.9" cy="701.2" rx="174.9" ry="29.1"/>
</g>
<path id="b-thigh" class="st7" d="M141.9,357.2l7.2,85.4c2.2,25.6,22.5,45.1,46.9,45.1l0,0c24.2,0,44.5-19.3,46.9-44.6l7.9-84.8
	c7.4-31.6-17.9-61.7-52.7-62.6l0,0C162.4,294.6,135,324.6,141.9,357.2z"/>
<polygon id="b-calf" class="st7" points="150.6,451.2 169.6,599.3 222.7,599.3 241.5,452.2 "/>
<g id="b-shoe">
	<polygon class="st8" points="231.6,585.3 231.5,589.7 229.6,650.6 229.1,665.2 166.1,666.7 165.4,650.6 164.3,623.2 162.9,590.6 
		162.9,590.2 169,589.8 	"/>
	<path class="st9" d="M182.2,589.8V613c-0.2,6.5-5.5,11.8-12,11.9c-2.1,0-4.2-0.5-6-1.6l-1.3-32.7c-0.4-0.2-0.8-0.5-1.2-0.8
		L182.2,589.8z"/>
	<path class="st10" d="M231.5,589.7c-1,0.9-2.2,1.4-3.5,1.6c-15.1,2-30.5,2.5-45.7,1.6c-5.7-0.3-11.4-0.9-17.1-1.6
		c-0.8-0.1-1.5-0.3-2.2-0.7c-0.4-0.2-0.8-0.5-1.2-0.8c-1.7-1.3-2.6-3.5-2.2-5.6c0.2-0.7,0.3-1.4,0.3-2.2c0.6-3.4,3.8-5.8,7.2-5.3
		c19.6,2.6,39.4,2.6,59,0c3.5-0.5,6.7,1.9,7.3,5.4c0.2,0.7,0.3,1.4,0.3,2.2C233.9,586.2,233.1,588.3,231.5,589.7z"/>
	<path class="st10" d="M228.5,688.3c-0.7,5.8-4.8,10.2-9.7,10.2h-94.2c-3.7-0.1-7.2-1.8-9.5-4.8c-1.5-1.9-2.6-4.1-3.2-6.4
		c1.9,0.8,3.9,1.3,5.9,1.3H226C226.9,688.6,227.7,688.5,228.5,688.3z"/>
	<path class="st8" d="M229.6,650.6v0.2l-1,36.3c0,0.4,0,0.9-0.1,1.3c-0.8,0.2-1.7,0.3-2.5,0.3H117.8c-2,0-4.1-0.4-5.9-1.3
		c-0.4-1.7-0.7-3.4-0.7-5.1c0-7.2,3.9-13.5,9.6-15.6l44.6-16.2L229.6,650.6z"/>
</g>
<path id="f-thigh" class="st11" d="M151.9,362.2l7.2,85.4c2.2,25.6,22.5,45,46.9,45l0,0c24.2,0,31.1,4.7,40.3-20.1l35.9-110.9
	c7.4-31.6-39.4-60.1-74.2-61l0,0C172.3,299.6,144.9,329.6,151.9,362.2z"/>
<path id="f-calf" class="st11" d="M160.5,456.2l19.1,148.1h53.1l1-3.7c13.2-46.6,20.4-82.3,11.8-133.1l-23.6-2.5L160.5,456.2z"/>
<g id="f-shoe">
	<polygon class="st12" points="241.6,593.3 241.6,594.5 239.6,655.5 239.6,655.8 239.5,656.4 239.1,670.1 176,671.7 175.3,655.5 
		174.2,628.2 172.9,595.5 172.9,595.2 178.4,595 188.8,594.8 234,593.5 	"/>
	<path class="st13" d="M192.2,594.8v23.2c-0.1,6.5-5.5,11.8-12,11.9c-2.1,0-4.1-0.5-5.9-1.6l-1.3-32.7c-0.4-0.2-0.8-0.5-1.2-0.8
		L192.2,594.8z"/>
	<path class="st0" d="M241.6,594.5c-1,0.9-2.3,1.5-3.7,1.7c-1.4,0.2-2.8,0.4-4.3,0.5c-13.8,1.6-27.6,1.9-41.4,1.1
		c-4.5-0.3-9.1-0.7-13.6-1.2c-1.2-0.1-2.3-0.3-3.5-0.4c-0.8-0.1-1.5-0.3-2.2-0.7c-0.4-0.2-0.8-0.5-1.2-0.8c-1.7-1.3-2.6-3.5-2.2-5.6
		c0.2-0.7,0.3-1.4,0.3-2.2c0.5-3.3,3.5-5.7,6.9-5.4h0.3c19.4,2.6,39.1,2.6,58.6,0.1l0.4-0.1c3.5-0.5,6.7,1.9,7.2,5.4
		c0.2,0.7,0.3,1.4,0.3,2.2C243.8,591.1,243.1,593.2,241.6,594.5z"/>
	<path class="st0" d="M238.5,693.3c-0.7,5.8-4.8,10.2-9.7,10.2h-94.2c-3.7-0.1-7.2-1.8-9.5-4.8c-1.5-1.9-2.6-4.1-3.2-6.4
		c1.9,0.8,3.9,1.3,5.9,1.3h108.2C236.8,693.6,237.6,693.5,238.5,693.3z"/>
	<path class="st12" d="M238.5,693.3c-0.8,0.2-1.7,0.3-2.5,0.3H127.7c-2,0-4.1-0.4-5.9-1.3c-0.4-1.7-0.7-3.4-0.7-5.1
		c0-7.2,3.9-13.5,9.6-15.6l44.6-16.2h64.2v0.2l0.4,1.2C243.4,668.9,242.9,681.7,238.5,693.3L238.5,693.3z"/>
</g>
<g id="body">
	<path class="st14" d="M257.8,152.4c-29,18.2-111.5,22.2-129.9,22.2c-3.2-0.1-4.5-1.1-4.5-2.4c0-0.2,0-0.4,0.1-0.6
		c0.1-0.4,0.3-0.7,0.6-1c4-7,16.5-17.3,27.5-25.7c27.4-20.8,77.8-29.7,77.8-29.7c22-0.3,28.5,4,33.9,12.2
		C268.7,135.8,266.3,146.9,257.8,152.4C257.9,152.3,257.8,152.3,257.8,152.4z"/>
	<path class="st15" d="M247.9,153.1c-24.4,13.7-93.8,16.7-109.4,16.7c-2.7-0.1-3.8-0.8-3.8-1.8c0-0.1,0-0.3,0.1-0.4
		c0.1-0.3,0.3-0.6,0.5-0.8c3.4-5.3,13.9-13,23.2-19.4c23-15.7,65.5-22.4,65.5-22.4c18.5-0.2,24,3,28.5,9.2
		C257.1,140.7,255,149.1,247.9,153.1z"/>
	<path class="st11" d="M226.1,407.5c-106.9,10.4-101.6-57.6-99.6-142.5c44,0,88.2,0.8,132.3,2.6c9,10.8,19.6,20.8,23.6,32.8
		C298.4,349,273.3,406.7,226.1,407.5z"/>
	<path class="st14" d="M282.3,300.4c-0.4,0.5-0.8,0.9-1.3,1.3c-9.7,7.5-25.7,12.2-40.9,15.7c-37.3,8.3-75.5,12.7-113.7,13v-60.8
		h129.8c1.6,0,3.1,0.2,4.6,0.6c2.1,0.5,4,1.6,5.5,3.1c6,6.7,11.4,13.8,16.2,21.4C283.9,296.5,283.8,298.8,282.3,300.4z"/>
	<path class="st16" d="M275.2,285.6c-20.3,11.8-74.9,22.9-144.8,22.8c-28.3-20.6-29.1-84.3-5.2-136.8l130.5-34.6
		c0,0,45.9,30.7,27.1,112.6c-1.7,7.3-4.2,20.2-3.4,27.4C279.9,280.5,278.2,283.9,275.2,285.6z"/>
	<ellipse class="st17" cx="124" cy="320" rx="10.9" ry="20"/>
	<g>
		<defs>
			<ellipse id="SVGID_1_" cx="124" cy="320" rx="10.9" ry="20"/>
		</defs>
		<clipPath id="SVGID_2_">
			<use xlink:href="#SVGID_1_"  style="overflow:visible;"/>
		</clipPath>
		<g class="st18">
			<polygon class="st0" points="113.9,306.3 115.7,316 121.2,316 116.7,322 118.4,331.6 113.9,325.7 109.5,331.6 111.2,322 
				106.7,316 112.2,316 			"/>
		</g>
	</g>
	<path class="st19" d="M134.8,320c0,11-4.9,20-10.9,20c-0.9,0-1.7-0.2-2.5-0.5c4.8-2.1,8.4-10,8.4-19.5s-3.6-17.4-8.4-19.5
		c0.8-0.3,1.7-0.5,2.5-0.5C130,300,134.8,308.9,134.8,320z"/>
	<path class="st20" d="M250.6,153.4c0,0,1.5-2.9-5.5-6.6c-14.1-7.4-82.5-3.7-82.5-3.7l-12.9,10.4c0,0-18.5,10.6-21.8,21.1
		L250.6,153.4z"/>
</g>
<g id="head">
	<path class="st20" d="M192.7,0c-35.3,0-64.9,14.9-73.2,34.9c0,0.1-0.1,0.2-0.1,0.3c-0.7,1.8-1.3,3.6-1.6,5.5
		c-0.1,0.2-0.1,0.5-0.2,0.8c-0.3,1.6-0.4,3.2-0.4,4.8v0.2c0,0.5,0,1,0.1,1.6c0.1,2.3,0.5,4.6,1.2,6.8c0.3,0.9,0.6,1.7,0.9,2.6
		s0.7,1.8,1.2,2.6c0.5,1.1,1.1,2.1,1.8,3.1c0.6,0.9,1.2,1.8,1.9,2.7c1,1.3,2.1,2.6,3.2,3.8c1.6,1.7,3.3,3.3,5.2,4.8l0,0
		c2.2,2.4,4.4,5,6.6,7.8c1.4,1.8,2.7,3.6,4,5.5s2.4,3.6,3.5,5.5c11.9,19.8,18.2,44.1,4.2,60.3h83.7c-18.9-20.1-0.4-59.4,18.2-79
		v-0.1c9.7-7.8,15.4-17.5,15.4-28C268.2,20.7,234.4,0,192.7,0z"/>
	<path class="st21" d="M174.6,50.2c0,8.5-6.2,15.7-14.6,16.9c-10.8,1.3-21.7,2.1-32.6,2.4c-1.1-1.2-2.2-2.4-3.2-3.8
		c-0.7-0.9-1.3-1.8-1.9-2.7c-0.6-1-1.2-2-1.8-3.1c-0.4-0.9-0.8-1.7-1.2-2.6s-0.7-1.7-0.9-2.6c-0.7-2.2-1.1-4.5-1.2-6.8
		c0-0.5-0.1-1-0.1-1.6v-0.2c0-1.6,0.1-3.2,0.4-4.8c0-0.2,0.1-0.5,0.2-0.8c0.4-1.9,0.9-3.7,1.6-5.5c12.5,0,24.9-0.7,37.2-2.2
		c8.5-1,16.4,5.3,17.8,14.7c0.1,0.5,0.1,1,0.2,1.5C174.6,49.6,174.6,49.9,174.6,50.2z"/>
	<path class="st14" d="M174.6,48.3c-1.2,21.9-33.1,17.3-50.2,18.1c-1.7,0.1-3.3-0.7-4.2-2.1c-5.2-7.7-7.1-17.6-4.5-26.5
		c0.6-2.1,2.5-3.5,4.7-3.5c11.8-0.1,23.6-0.8,35.4-2.2C165.5,30.9,174.6,38.5,174.6,48.3z"/>
	<path class="st22" d="M168.1,49.2c-0.4,4.6-4.3,8.4-9.5,9c-13.4,1.5-27,2.2-40.5,2.3c-0.4-0.9-0.9-1.8-1.2-2.7
		c-0.4-0.9-0.7-1.8-1-2.7V55c-0.7-2.3-1.1-4.6-1.2-7c0-0.5-0.1-1.1-0.1-1.6v-0.2c0-0.2,0-0.3,0-0.4c0-1.5,0.2-3.1,0.4-4.6
		c0.1-0.3,0.1-0.5,0.2-0.8c13.8,0.1,27.5-0.7,41.2-2.2c5.6-0.7,10.7,3.2,11.6,8.7C168.1,47.7,168.2,48.4,168.1,49.2z"/>
	<path class="st23" d="M136.9,49.7c0.1-2.8,2.4-4.9,5.2-4.8c2.3,0.1,4.3,1.7,4.7,4c0.2,2.6-1.6,4.8-4.2,5.1c-0.1,0-0.2,0-0.3,0
		c-2.6,0.4-5-1.4-5.4-4C136.9,49.8,136.9,49.7,136.9,49.7z"/>
	<g>
		<defs>
			<path id="SVGID_3_" d="M168.1,49.2c-0.4,4.6-4.3,8.4-9.5,9c-13.4,1.5-27,2.2-40.5,2.3c-0.4-0.9-0.9-1.8-1.2-2.7
				c-0.4-0.9-0.7-1.8-1-2.7V55c-0.7-2.3-1.1-4.6-1.2-7c0-0.5-0.1-1.1-0.1-1.6v-0.2c0-0.2,0-0.3,0-0.4c0-1.5,0.2-3.1,0.4-4.6
				c0.1-0.3,0.1-0.5,0.2-0.8c13.8,0.1,27.5-0.7,41.2-2.2c5.6-0.7,10.7,3.2,11.6,8.7C168.1,47.7,168.2,48.4,168.1,49.2z"/>
		</defs>
		<clipPath id="SVGID_4_">
			<use xlink:href="#SVGID_3_"  style="overflow:visible;"/>
		</clipPath>
		<g class="st24">
			<path class="st23" d="M118.1,50.4c0,0.3,0,0.7-0.1,1c-0.4,1.7-1.7,3.1-3.4,3.6c-0.7-2.3-1.1-4.6-1.2-7c0-0.5-0.1-1.1-0.1-1.6
				v-0.2c0-0.2,0-0.3,0-0.4C115.9,45.7,118.1,47.8,118.1,50.4z"/>
		</g>
	</g>
	<path class="st17" d="M160.6,87.6c0,0.2,0,0.4,0,0.6c-0.3,2.8-2.7,4.9-5.5,4.9h-8.4c-1.1-1.9-2.3-3.7-3.5-5.5
		c-1.3-1.9-2.6-3.7-4-5.5h15.9C158.2,82.1,160.7,84.6,160.6,87.6z"/>
	<path class="st0" d="M160.6,87.6h-17.5c-1.3-1.9-2.6-3.7-4-5.5h15.9C158.2,82.1,160.6,84.5,160.6,87.6
		C160.6,87.6,160.6,87.6,160.6,87.6z"/>
</g>
<path id="f-hand" class="st0" d="M215.6,364.6l-0.3-17.3l-22.6-7c-7.2,10.5-10.4,25.6-10.4,25.6h0.1c-2.1,5.9-2.3,12.3-0.6,18.4
	c1.1,4.5,3.2,9,7,11.6s9.3,2.6,12.3-0.8c2.6-3,2.6-7.3,2.9-11.3c0.2-2.8,0.8-5.8,2.4-8c0.9,2.4,1.2,5,0.9,7.5
	c-0.1,1-0.2,1.9-0.3,2.9c-0.1,1.3,0.9,2.3,2.2,2.4c0.7,0,1.4-0.2,1.8-0.8C215.5,382.3,215.7,372.8,215.6,364.6z"/>
<path id="f-arm" class="st1" d="M255.2,182.5c-8.4-24.1-34.5-35.6-52.3-27.1s-24.4,28.4-18.6,45.4c0.8,2.4,1.9,4.7,3.2,6.8
	c18.1,41.4,19.5,89.3,0,134.8c-0.9,2,0.5,3.8,2.1,5.3c4.5,4.5,7.2,7.1,11.7,9c4.9,2.2,10.2,3.2,15.6,2.9c1.9-0.1,3.9,0.2,5-1.4
	c34.1-48.8,47.4-107.7,35.6-166.2C257,188.8,256.3,185.6,255.2,182.5z"/>
<path id="collar" class="st14" d="M127.9,174.6c-8.4-0.3-3.4-6.8,2.2-6.8c14.7-2.2,38.5-8,58.9-14.3c17.4-5.4,32.3-11.1,37-15.4
	c2.1-1.9,3.5-3.6,0.9-4.7c-0.1-6.1,0.7-12.2,2.5-18.1c22-0.3,28.5,4,33.9,12.2c5.4,8.3,3.1,19.4-5.2,24.8c-0.1,0.1-0.2,0.1-0.3,0.2
	C228.9,170.6,146.4,174.6,127.9,174.6z"/>
</svg>
