<?xml version="1.0" encoding="utf-8"?>
<!-- Generator: Adobe Illustrator 25.2.0, SVG Export Plug-In . SVG Version: 6.00 Build 0)  -->
<svg version="1.1" id="Layer_1" xmlns="http://www.w3.org/2000/svg" xmlns:xlink="http://www.w3.org/1999/xlink" x="0px" y="0px"
	 viewBox="0 0 350 890" style="enable-background:new 0 0 350 890;" xml:space="preserve">
<style type="text/css">
	.st0{fill:#ADDFE7;}
	.st1{fill:#C7E9F4;}
	.st2{fill:#4D4D4D;}
	.st3{fill:#808080;}
	.st4{fill:#989898;}
	.st5{fill:#89F6E3;}
	.st6{fill:#EE3B24;}
	.st7{fill:#172EA0;}
	.st8{fill:#172EA1;}
	.st9{fill:#175884;}
	.st10{fill:#485AB5;}
	.st11{fill:#BE9C29;}
	.st12{fill:#F8CB35;}
	.st13{fill:#C1301D;}
	.st14{fill:#F37229;}
	.st15{fill:#D56424;}
	.st16{fill:#FFF3CB;}
	.st17{fill:#2541EA;}
</style>
<g id="ride">
	<path class="st0" d="M96.7,792.8c-19.3,16.1-21,95.8,3,47.1c9.7,55.9,18.9,74,34.8,7.2c2.6,5,4.2,10.5,4.7,16.1
		c0.2,1.9,1.9,3.2,3.7,3c1.1-0.1,2.1-0.8,2.6-1.9c10.4-22,2.2-49.5-6.1-71.6H96.7z"/>
	<path class="st1" d="M105.1,792.8c-11,9.2-12,54.7,1.7,26.8c2.6,11.1,4,22.7,9.3,32.8c6.8-11.5,12.8-43.2,12.9-12.9
		c11.3-13.2,5.8-32,0.3-46.7L105.1,792.8z"/>
	<path class="st2" d="M143.5,794.3L143.5,794.3c-17.6,6.1-36.7,6.1-54.2,0l0,0c-2.5-0.8-3.8-3.5-3-5.9c0-0.1,0-0.1,0.1-0.2l9.9-27.1
		h40.2l9.9,27.1c1,2.3-0.1,5-2.4,6C143.8,794.2,143.6,794.3,143.5,794.3z"/>
	<path class="st0" d="M253.2,792.8c19.3,16.1,21,95.8-3.1,47.1c-9.7,55.9-18.9,74-34.8,7.2c-2.6,5-4.2,10.5-4.7,16.1
		c-0.2,1.9-1.9,3.2-3.7,3c-1.1-0.1-2.1-0.8-2.6-1.9c-10.4-22-2.2-49.5,6.1-71.6H253.2z"/>
	<path class="st1" d="M244.7,792.8c11,9.2,12,54.7-1.7,26.8c-2.6,11.1-4,22.7-9.3,32.8c-6.8-11.5-12.8-43.2-12.9-12.9
		c-11.3-13.2-5.8-32-0.3-46.7L244.7,792.8z"/>
	<path class="st2" d="M206.4,794.3L206.4,794.3c17.6,6.1,36.7,6.1,54.2,0l0,0c2.5-0.8,3.8-3.5,3-5.9c0-0.1,0-0.1-0.1-0.2l-9.9-27.1
		h-40.3l-9.9,27.1c-0.9,2.4,0.3,5.2,2.8,6.1C206.3,794.3,206.3,794.3,206.4,794.3z"/>
	<rect y="727.2" class="st3" width="350" height="18.5"/>
	<ellipse class="st3" cx="174.9" cy="745.6" rx="174.9" ry="29.1"/>
	<ellipse class="st4" cx="174.9" cy="727.2" rx="174.9" ry="29.1"/>
</g>
<path id="l-hand" class="st5" d="M56,385.4L50.5,369H26.9c-3.7,12.2-2.3,27.6-2.3,27.6h0.1c-0.4,6.1,1.6,12.4,4.9,17.7
	c2.5,4,5.8,7.6,10.1,9s9.7-0.2,11.5-4.5c1.5-3.6,0.3-7.8-0.6-11.6c-0.6-2.7-1-5.8-0.1-8.3c1.6,2,2.7,4.4,3.1,6.9
	c0.2,0.9,0.4,1.9,0.6,2.9c0.3,1.2,1.6,1.9,2.8,1.6c0.6-0.2,1.2-0.6,1.5-1.2C61.2,402.4,58.6,393.2,56,385.4z"/>
<path id="l-arm" class="st6" d="M38.7,381.5c-5.1,0-10.1-0.8-14.9-2.6l0,0c-1.8-0.7-3.1-2.2-3.7-4l0,0c-0.4-1.5-4.2-15.1-4.9-21
	c-4.8-41.3,1-80.8,16.9-114.2c17.7-37.1,48.1-66.1,83.5-79.6l8.3-3.2l-2.2,95.6l-2,1.7c-39,33.9-63.1,65.7-62.9,119.6l0,0
	c0,2.6-1.6,4.8-4,5.7l-1.7,0.6l-0.4,0.1C46.9,381,42.8,381.4,38.7,381.5L38.7,381.5z"/>
<path id="r-hand" class="st5" d="M303.1,38.2l5.3,16.5l23.6,0.2c3.8-12.1,2.6-27.5,2.6-27.5h-0.1c0.5-6.1-1.5-12.4-4.7-17.7
	c-2.4-4-5.7-7.7-10-9.1s-9.6,0.2-11.5,4.4c-1.6,3.6-0.4,7.8,0.5,11.6c0.6,2.7,0.9,5.8,0.1,8.3c-1.6-2-2.6-4.4-3-7
	c-0.2-0.9-0.4-1.9-0.6-2.9c-0.3-1.2-1.6-2-2.8-1.6c-0.6,0.2-1.2,0.6-1.5,1.2C298,21.2,300.5,30.3,303.1,38.2z"/>
<path id="r-arm" class="st6" d="M320.4,42.2c5.1,0,10.1,0.9,14.8,2.8l0,0c1.8,0.7,3.1,2.2,3.6,4l0,0c0.4,1.5,4.1,15.1,4.8,21.1
	c4.5,41.3-1.7,80.8-17.9,114.1c-18,37-48.6,65.8-84.2,78.9l-8.4,3.1l3-95.6l2-1.7c39.3-33.6,63.7-65.2,63.9-119l0,0
	c0-2.6,1.6-4.8,4.1-5.6l1.7-0.6l0.4-0.1C312.2,42.7,316.3,42.3,320.4,42.2L320.4,42.2z"/>
<path id="r-thigh" class="st6" d="M281.3,388.1l-7.2,85.4c-2.2,25.6-22.5,45-46.9,45l0,0c-24.2,0-44.5-19.3-46.9-44.6l-7.9-84.8
	c-7.4-31.6,17.9-61.7,52.7-62.6l0,0C260.7,325.5,288.1,355.6,281.3,388.1z"/>
<polygon id="r-calf" class="st6" points="272.5,482.1 253.6,630.2 200.5,630.2 181.6,483.1 "/>
<g id="r-shoe">
	<path class="st5" d="M264.4,702.8v13.5l0,0c-0.3,3.6-1.5,6.7-4.5,8.6c-4.9,3.3-19.2,4.7-33.5,4.6c-14.5,0.1-28.6-1.1-33.5-4.6
		c-2.9-1.9-4.2-5.1-4.4-8.6l0,0v-13.5H264.4z"/>
	<path class="st7" d="M195.6,676.4c1.3-5.8,5.4-29.5,5.4-29.5l25.4,0.1l25.4-0.1c0,0,4.2,23.8,5.4,29.5c1.4,6.1,13.6,29.2,2.6,36.7
		c-4.9,3.3-19.2,4.7-33.5,4.6c-14.5,0.1-28.6-1.1-33.5-4.6C182,705.6,194.3,682.5,195.6,676.4z"/>
	<polygon class="st8" points="199.4,656.8 253.6,656.8 257.3,620.6 196.4,620.6 	"/>
	<path class="st9" d="M226.5,653.9L226.5,653.9c6.3,0,11.4-5.1,11.4-11.3c0,0,0,0,0-0.1v-22.2H215v22.2
		C215,648.8,220.2,653.9,226.5,653.9z"/>
	<path class="st10" d="M250.4,687.2c-4-1-7.8-2-11.5-2.5c-7.5-1.3-15.1-1.3-22.5-0.1c-3.8,0.5-7.5,1.5-11.5,2.5
		c3-2.9,6.5-5.1,10.4-6.5c4-1.5,8.2-2.2,12.4-2.1c4.2,0,8.4,0.7,12.4,2.2C243.9,682.1,247.5,684.4,250.4,687.2z"/>
	<path class="st5" d="M197.3,621.6c20,2.6,40.3,2.6,60.4,0c3.4-0.3,5.8-3.3,5.4-6.7c0,0,0-0.1,0-0.1c-0.2-0.7-0.3-1.4-0.3-2.1
		c-0.5-3.3-3.6-5.6-6.9-5.2c-18.8,2.5-37.9,2.5-56.7,0c-3.3-0.4-6.4,1.8-6.9,5.2c-0.2,0.7-0.3,1.4-0.3,2.1c-0.4,3.3,1.9,6.4,5.3,6.8
		C197.2,621.6,197.3,621.6,197.3,621.6z"/>
</g>
<path id="l-thigh" class="st6" d="M68.3,388.1l7.2,85.4c2.2,25.6,22.5,45,46.9,45l0,0c24.2,0,44.5-19.3,46.9-44.6l7.9-84.8
	c7.4-31.6-17.9-61.7-52.7-62.6l0,0C88.7,325.5,61.3,355.6,68.3,388.1z"/>
<polygon id="l-calf" class="st6" points="76.9,482.1 95.9,630.2 149.1,630.2 167.8,483.1 "/>
<g id="l-shoe">
	<path class="st5" d="M85.1,702.8v13.5l0,0c0.3,3.6,1.5,6.7,4.4,8.6c4.9,3.3,19.2,4.7,33.5,4.6c14.5,0.1,28.6-1.1,33.5-4.6
		c2.9-1.9,4.2-5.1,4.4-8.6l0,0v-13.5H85.1z"/>
	<path class="st7" d="M153.8,676.4c-1.2-5.8-5.4-29.5-5.4-29.5l-25.4,0.1l-25.4-0.1c0,0-4.2,23.8-5.4,29.5
		c-1.4,6.1-13.6,29.2-2.7,36.7c4.9,3.3,19.2,4.7,33.5,4.6c14.5,0.1,28.6-1.1,33.5-4.6C167.4,705.6,155.2,682.5,153.8,676.4z"/>
	<polygon class="st8" points="150.2,656.8 95.8,656.8 92.2,620.6 153.1,620.6 	"/>
	<path class="st9" d="M123.1,653.9L123.1,653.9c-6.3,0-11.4-5.1-11.4-11.3c0,0,0-0.1,0-0.1v-22.2h23v22.2
		C134.5,648.8,129.4,653.8,123.1,653.9z"/>
	<path class="st10" d="M99,687.2c3-2.8,6.5-5,10.4-6.4c4-1.4,8.1-2.2,12.4-2.2c4.2,0,8.4,0.7,12.4,2.1c3.9,1.4,7.5,3.6,10.4,6.5
		c-4-1-7.8-2-11.5-2.5c-3.7-0.6-7.5-0.8-11.3-0.8c-3.8,0-7.5,0.3-11.3,1C106.6,685.4,102.8,686.2,99,687.2z"/>
	<path class="st5" d="M152.1,621.6c-20,2.6-40.3,2.6-60.3,0c-3.4-0.3-5.8-3.3-5.4-6.7c0,0,0-0.1,0-0.1c0.2-0.7,0.3-1.4,0.3-2.1
		c0.5-3.3,3.7-5.6,7-5.2c18.8,2.5,37.9,2.5,56.7,0c3.3-0.5,6.5,1.8,7,5.2c0.2,0.7,0.3,1.4,0.3,2.1c0.4,3.3-1.9,6.4-5.3,6.8
		C152.3,621.6,152.2,621.6,152.1,621.6z"/>
</g>
<g id="body">
	<path class="st11" d="M227.7,172.5c-8,13.4-37.9,20.7-53.9,24.4c-41.8-5.9-92.3-41-15.2-41.8C173.6,158.6,235.7,146.7,227.7,172.5z
		"/>
	<path class="st6" d="M282.8,370.1c0.3-13.5-2.2-27.4-7-41.3l-1.7-4.6c-3.7-9.6-8-18.9-12.9-28c-0.4-1-1-1.8-1.4-2.6
		c-28.2-1.8-56.6-2.6-84.8-2.6s-56.6,1-84.8,2.6c-0.4,1-1,1.8-1.4,2.6c-4.8,8.9-9,18.1-12.7,27.5c-0.3,1-0.7,2-1,2.8
		c-5.3,14.7-8.3,29.3-8,43.6c0,0,0,0.1,0,0.1c0,0.2,0,0.3,0,0.5c0,0.7,0,1.4,0.1,2.1c0.7,4.7,2.8,9.2,6,12.7
		c14.7,17.4,54.7,29.9,101.8,29.9S262,403,276.7,385.5c3.2-3.5,5.2-7.9,5.9-12.5l0,0c0.1-0.8,0.1-1.5,0.1-2.3
		C282.8,370.5,282.8,370.3,282.8,370.1C282.8,370.1,282.8,370.1,282.8,370.1z"/>
	<path class="st12" d="M274.4,320.7c1,2.3,0.6,5-1,7c-6,7.5-15.9,12.2-25.2,15.7c-43.3,15.7-90.4,17.2-134.6,4.3
		c-14.2-4.2-28.4-10.3-38.8-20.3c-2.1-2-2.8-5.1-1.7-7.8c2.8-6.9,6-13.7,9.4-20.3c1.2-2.3,3.6-3.8,6.3-3.8h169.3
		c2.6,0,5,1.5,6.3,3.8C268.2,306.2,271.6,313.3,274.4,320.7z"/>
	<path class="st13" d="M268.1,308.2c-10,12.9-42.3,26.3-94.1,26.3h-0.3c-52,0-84.1-13.2-94.1-26.3c0,0,1.7-21.7,1.7-32.5
		c0-53.7,22.6-106.6,22.6-106.6H244c0,0,22.6,52.8,22.6,106.6C266.4,286.5,268.1,308.2,268.1,308.2z"/>
	<path class="st14" d="M121.4,166.6c0,0,40.7-15.9,108.3,0v18.1L174,197.6l-52.6-16.4V166.6z"/>
	<circle class="st7" cx="173.8" cy="345.9" r="20"/>
	<polygon class="st5" points="173.8,333.3 177,343 187.1,343 178.9,348.9 182.1,358.6 173.8,352.6 165.6,358.6 168.7,348.9 
		160.5,343 170.7,343 	"/>
	<path class="st12" d="M248.5,161.6c-3.6-9.9-16.4-15.6-28.6-18.4c-10-2.4-20.3-3.5-30.6-4.4c-5.1-0.6-10.5-1-15.4,0
		c-4.9-1-10.3-0.5-15.4,0c-10.3,1-20.6,2.1-30.6,4.4c-12.2,2.8-25,8.5-28.6,18.4c-2.9,7.8,1.1,16.6,7.9,22.4s16.3,9.3,25.9,11.8
		c12.8,3.2,25.9,4.8,39.1,4.7c0.6,0,1.2,0,1.8-0.1c0.6,0.1,1.2,0.1,1.8,0.1c13.2,0.1,26.3-1.5,39.1-4.7c9.6-2.5,19.1-6,25.9-11.8
		S251.4,169.4,248.5,161.6z M222.2,172.9c-6,10.6-31.1,18.4-44.4,20.9c-1.4,0.2-2.7,0.6-4,1.1c-1.3-0.5-2.6-0.8-4-1.1
		c-13.1-2.5-38.4-10.3-44.4-20.9c-8.1-14.2,23.9-16.3,34.8-15.6c4.6,0.3,9.1,0.9,13.6,0.6c4.5,0.5,9-0.3,13.7-0.6
		C198.3,156.6,230.3,158.7,222.2,172.9L222.2,172.9z"/>
	<path class="st13" d="M144.5,406.1c4.9,2.1,10,3.9,15.2,5.3c5.1,1.3,10.3,1.9,15.6,2c1.3,0,2.6,0,3.9-0.1c1.3-0.1,2.6-0.2,3.9-0.4
		c2.6-0.3,5.2-0.8,7.8-1.4c5.2-1.4,10.2-3.1,15.1-5.1c-4.3,3.5-9.1,6.2-14.3,8.1c-2.6,1-5.3,1.7-8.1,2.2c-2.8,0.5-5.6,0.7-8.4,0.7
		c-1.4,0-2.8-0.1-4.2-0.1s-2.8-0.3-4.2-0.6l-4-1c-1.4-0.4-2.6-0.8-4-1.2C153.7,412.3,148.8,409.5,144.5,406.1z"/>
</g>
<g id="head">
	<path class="st14" d="M249.5,71.4c0-25.6-33.8-46.3-75.5-46.3S98.4,45.8,98.4,71.4c0,10.7,6,20.6,15.9,28.4
		c18.5,19.8,36.7,58.8,17.7,78.6h83.7c-18.9-20.1-0.3-59.4,18.2-79C243.7,91.7,249.5,82,249.5,71.4z"/>
	<path class="st15" d="M228.9,72.8c-1.4-9.5-9.3-15.7-17.8-14.7c-24.6,3.1-49.5,3.1-74.1,0c-8.5-1-16.4,5.4-17.8,14.7
		s5,18.4,14.3,19.5c26.9,3.3,54.1,3.3,80.9,0c9.3-1.3,15.8-9.9,14.5-19.2C228.9,73,228.9,72.9,228.9,72.8z"/>
	<path class="st7" d="M197.7,112.7c0,3-2.5,5.5-5.5,5.5h-36.5c-3,0.2-5.6-2.1-5.8-5.2s2.1-5.6,5.2-5.8c0.2,0,0.4,0,0.7,0h36.5
		C195.3,107.2,197.7,109.7,197.7,112.7z"/>
	<path class="st5" d="M197.7,112.7h-47.5c0-3,2.5-5.5,5.5-5.5c0,0,0,0,0,0h36.5C195.3,107.2,197.7,109.7,197.7,112.7
		C197.7,112.7,197.7,112.7,197.7,112.7z"/>
	<path class="st12" d="M214.4,88.7c-26.9,3.1-54,3.1-80.9,0c-9.3-1-15.9-9.2-14.3-17.5l0,0c1.4-8.5,9.3-14,17.8-13.2
		c24.6,2.8,49.5,2.8,74.1,0c8.5-1,16.3,4.8,17.8,13.2l0,0C230.3,79.6,223.9,87.7,214.4,88.7z"/>
	<path class="st16" d="M134.2,83c-5.7-0.7-9.7-5.6-9-10.8c0.9-5.3,5.8-9,11.1-8.3c25,2.8,50.3,2.8,75.4,0c5.3-0.6,10.2,3,11.1,8.3
		c0.8,5.3-3.2,10.2-9,10.8C187.4,85.9,160.6,85.9,134.2,83z"/>
	<path class="st17" d="M140.7,73.9c0.3-2.5,2.6-4.3,5.1-4c0,0,0,0,0.1,0c2.5,0.1,4.4,2.2,4.3,4.7c0,0,0,0.1,0,0.1
		c-0.3,2.6-2.6,4.4-5.2,4.1C142.5,78.6,140.6,76.4,140.7,73.9z"/>
	<path class="st17" d="M169.2,75.4c0.1-2.5,2.2-4.5,4.8-4.4c2.5-0.1,4.6,1.9,4.7,4.4c0,0,0,0.1,0,0.1c0,2.6-2.1,4.7-4.7,4.7
		C171.4,80.2,169.3,78.1,169.2,75.4L169.2,75.4L169.2,75.4z"/>
	<path class="st17" d="M197.7,74.8c-0.1-2.6,2-4.8,4.7-4.9c2.4,0,4.4,1.7,4.8,4c0.2,2.5-1.6,4.6-4,4.9c-0.1,0-0.2,0-0.3,0
		c-2.5,0.4-4.8-1.3-5.1-3.8C197.8,74.9,197.7,74.8,197.7,74.8z"/>
</g>
</svg>
