<?xml version="1.0" encoding="utf-8"?>
<!-- Generator: Adobe Illustrator 25.2.0, SVG Export Plug-In . SVG Version: 6.00 Build 0)  -->
<svg version="1.1" id="Layer_1" xmlns="http://www.w3.org/2000/svg" xmlns:xlink="http://www.w3.org/1999/xlink" x="0px" y="0px"
	 viewBox="0 0 391.1 659.7" style="enable-background:new 0 0 391.1 659.7;" xml:space="preserve">
<style type="text/css">
	.st0{fill:#ADDFE7;}
	.st1{fill:#C7E9F4;}
	.st2{fill:#4D4D4D;}
	.st3{fill:#808080;}
	.st4{fill:#989898;}
	.st5{fill:#D53520;}
	.st6{fill:#EE3B24;}
	.st7{fill:#172EA1;}
	.st8{fill:#89F6E3;}
	.st9{fill:#175884;}
	.st10{fill:#F8CB35;}
	.st11{fill:#C1301D;}
	.st12{fill:#BE9C29;}
	.st13{fill:#F37229;}
	.st14{fill:#1B1464;}
	.st15{fill:#172EA0;}
	.st16{fill:#D56424;}
	.st17{fill:#FFF3CB;}
	.st18{fill:#2541EA;}
</style>
<g id="ride">
	<path class="st0" d="M115.3,467.9c-19.3,16.1-21,95.8,3.1,47.1c9.7,55.9,18.9,74,34.8,7.2c2.6,5,4.2,10.5,4.7,16.1
		c0.2,1.9,1.9,3.2,3.7,3c1.2-0.1,2.2-0.8,2.7-1.9c10.4-22,2.2-49.5-6.1-71.6L115.3,467.9z"/>
	<path class="st1" d="M123.8,467.9c-11,9.2-12,54.6,1.7,26.8c2.6,11.1,4,22.7,9.3,32.8c6.8-11.5,12.8-43.2,12.9-12.9
		c11.3-13.2,5.8-32,0.3-46.7H123.8z"/>
	<path class="st2" d="M162.1,469.4L162.1,469.4c-17.6,6.1-36.7,6.1-54.2,0l0,0c-2.5-0.8-3.8-3.5-3-5.9c0-0.1,0-0.1,0.1-0.2l9.9-27.1
		h40.2l9.9,27.1c1,2.3,0,4.9-2.3,5.9C162.5,469.3,162.3,469.3,162.1,469.4z"/>
	<path class="st0" d="M271.9,467.9c19.3,16.1,21,95.8-3.1,47.1c-9.7,55.9-18.9,74-34.8,7.2c-2.6,5-4.2,10.5-4.7,16.1
		c-0.2,1.9-1.9,3.2-3.7,3c-1.2-0.1-2.2-0.8-2.7-1.9c-10.4-22-2.2-49.5,6.1-71.6L271.9,467.9z"/>
	<path class="st1" d="M263.4,467.9c11,9.2,12,54.6-1.7,26.8c-2.6,11.1-4,22.7-9.3,32.8c-6.8-11.5-12.8-43.2-12.9-12.9
		c-11.3-13.2-5.8-32-0.3-46.7H263.4z"/>
	<path class="st2" d="M225,469.4L225,469.4c17.6,6.1,36.7,6.1,54.2,0l0,0c2.5-0.8,3.8-3.5,3-5.9c0-0.1,0-0.1-0.1-0.2l-9.9-27.1H232
		l-9.9,27.1c-0.9,2.4,0.3,5.1,2.7,6C224.9,469.3,224.9,469.4,225,469.4z"/>
	<rect x="18.6" y="402.2" class="st3" width="350" height="18.5"/>
	<ellipse class="st3" cx="193.6" cy="420.7" rx="174.9" ry="29.1"/>
	<ellipse class="st4" cx="193.6" cy="402.2" rx="174.9" ry="29.1"/>
</g>
<path id="l-thigh_1_" class="st5" d="M138.1,297.8l-74.4,42.5c-22.3,12.8-31.4,39.4-21.2,61.5l0,0c10.2,22,36.2,32.2,60.2,23.8
	L183,397c31.7-6.6,48.5-42.2,34.6-74.1l0,0C203.4,290,164.7,277.8,138.1,297.8z"/>
<path id="r-thigh" class="st6" d="M245.7,323.2l-75.5,43.1c-22.6,13-31.9,40-21.5,62.4l0,0c10.3,22.3,36.8,32.7,61.1,24.1l81.5-28.9
	c32.2-6.7,49.2-42.9,35.1-75.2l0,0C312.1,315.3,272.7,302.9,245.7,323.2z"/>
<path id="r-calf" class="st6" d="M145.3,423.3l14,109h56.5l13.9-109c3-23.3-13.5-44.6-36.8-47.7c-1.7-0.2-3.3-0.3-5-0.3l0,0
	c-23.5-0.3-42.8,18.6-43,42.1C144.9,419.4,145,421.4,145.3,423.3z"/>
<g id="r-shoe">
	<polygon class="st7" points="157.8,596 218.9,596 222.9,540.7 154.4,540.7 	"/>
	<path class="st7" d="M157.8,596L110,628.5c-4.2,2.9-6.7,7.6-6.7,12.7l0,0c0,7.1,4.9,13.3,11.8,14.9l0,0c23.2,5.5,47.4,4.8,70.2-2.1
		l16.7-5c9.4-2.8,15.9-11.4,16.1-21.2l0.7-31.8L157.8,596z"/>
	<path class="st8" d="M220.2,633c0,0-0.1,3.9,0,6.3c0.1,1.9-1.1,3.7-2.9,4.4l-2.5,1c-1,0.4-2.1,0.8-3.1,1.1l-26.4,8.7
		c-12.7,3.8-25.9,5.2-39.1,5.2c-10.5,0-20.9-1.2-31.1-3.6c-8.2-2-13.3-10.2-11.4-18.5c0.1-0.3,0.1-0.5,0.2-0.8
		c0.6,1.2,1.3,2.3,2.2,3.3c2.5,2.8,5.7,4.7,9.4,5.4c25.5,5.5,52,4.7,77.2-2.1l18.4-5C212.9,637.9,218.6,633.8,220.2,633z"/>
	<path class="st9" d="M161.4,540.2l1.7,24.8c0.4,5.7,4.7,10.5,10.4,11.3l0,0c6.7,1.1,13.1-3.5,14.1-10.3c0.1-0.3,0.1-0.7,0.1-1
		l1.7-22.1L161.4,540.2z"/>
	<path class="st8" d="M219.1,544c-21.3,2.8-42.9,2.8-64.2,0c-3.6-0.4-6.2-3.6-5.8-7.1c0,0,0-0.1,0-0.1c0.2-0.7,0.3-1.5,0.3-2.2
		c0.6-3.5,3.9-5.9,7.4-5.5c20,2.7,40.3,2.7,60.4,0c3.5-0.5,6.8,1.9,7.4,5.5c0.2,0.7,0.3,1.5,0.3,2.2c0.4,3.6-2.1,6.8-5.6,7.2
		C219.2,544,219.1,544,219.1,544z"/>
	<path class="st7" d="M218.8,596h-61l-47.8,32.5c-2.9,2-5.1,5-6.1,8.4c0.6,1.2,1.3,2.3,2.2,3.3c2.5,2.8,5.7,4.7,9.4,5.4
		c25.5,5.5,52,4.7,77.2-2.1l18.4-5c1.8-0.5,3.5-1.2,5.2-2C228.6,632.3,218.8,596,218.8,596z"/>
</g>
<path id="l-hand" class="st8" d="M113.3,301.1c-10.9,1.5-22.5,8.2-22.5,8.2l0,0c-5,2.1-9.2,5.7-12.1,10.2c-2.2,3.4-3.9,7.3-3.4,11.2
	s3.7,7.5,7.7,7.4c3.4-0.1,6.2-2.6,8.9-4.7c1.8-1.6,4.1-2.7,6.5-3.1c-1,2-2.5,3.7-4.3,4.9c-0.7,0.5-1.3,1-2,1.5
	c-0.8,0.7-0.9,2-0.2,2.8c0.4,0.4,0.9,0.6,1.4,0.7c6.2-0.1,12.4-5.4,17.6-10.3l0,0c6.5-6.1,8.4-15.7,4.6-23.8L113.3,301.1z"/>
<path id="l-bicep" class="st5" d="M186.8,183.1c-22.6,30.3-60.2,60.6-97.1,69.2c-10.4,2.4-18.7,3.3-22,1.2l0,0
	c-14.4-9.1-17.8-29.6-7.2-45.2c4.2-6.2,8.6-12.1,13.5-17.7c26-30.4,55.8-50.3,90.3-54.9L186.8,183.1z"/>
<path id="l-forearm" class="st5" d="M87.2,312c-1.7-0.1-3.2-1-4.1-2.4c-0.4-0.6-2.2-3.5-4.3-6.9c-1.9-3.1-3.7-6.3-5.3-9.7
	c-7.2-16.5-15.4-41.5-18-58.2l54.4,7.7c-3.2,17.4-2.4,35.7,4,56.6c0.1,0.5,0.2,1,0.2,1.5c0,1.7-0.8,3.3-2.1,4.4l-1.3,0.9l-0.3,0.2
	c-3.2,1.8-6.5,3.2-9.9,4.3C96.2,311.7,91.7,312.3,87.2,312z"/>
<g id="body">
	<path class="st6" d="M123.8,307.1l196,6.3c0,0,27.4,32.3,8.5,76.3s-128.4,18.2-128.4,18.2C110,398.9,123.8,307.1,123.8,307.1"/>
	<path class="st10" d="M320,308.5c1.1,2.6,0.6,5.5-1.1,7.7c-6.5,8-17.1,12.7-27,16c-44.2,14.5-91.7,13.1-133-2.8
		c-13-5-25.8-11.8-35.1-22.4c-1.9-2.2-2.5-5.2-1.5-7.9c2.5-6.8,5.2-13.4,8.4-20.1c1-2.2,3.2-3.7,5.6-3.6l166.1,4.6
		c2.9,0.1,5.4,1.8,6.7,4.3C313.3,292.2,316.9,300.3,320,308.5z"/>
	<g id="body-2">
		<path class="st11" d="M313.7,294.9c-10.8,13.9-44.7,26.9-96.9,24.4h-0.3c-49.6-2.4-79-17.2-88-30.8c0,0-6.1-18.1-6.1-29
			c0-54,28-111.9,28-111.9l63.4-2.7l74.2-3.1c0,0,40.3,46.4,40.3,106C328.1,259.9,313.7,294.9,313.7,294.9z"/>
		<rect x="159.9" y="128.7" class="st12" width="121.4" height="26.6"/>
		<path class="st13" d="M160.2,146.3c0,0,45.3-12.7,117.3,8.5l-1.3,18l-74.1,12.9l-43-24.9L160.2,146.3L160.2,146.3z"/>
		<path class="st10" d="M202.4,181.6c1.7,0.6,3.7,1.2,5,2.6s1.8,3.8,0.5,5c-1.1,0.6-2.3,0.8-3.5,0.6c-11.7-1.1-23.2-4.1-34-8.9
			c-7.4-3.4-14.5-7.6-19.3-13.9c-4.7-6.2-7.3-15-5.2-22.8c2.7-10,12-16.2,21.4-19.7c8-3.1,16.6-4.9,25.7-6.7
			c5.7-1.2,12-2.4,17.5-0.3c5.6,2.1,10.2,8.4,7.8,14.3c-1.8,4.3-6.6,6.7-11,7.5c-4.4,0.6-8.7-0.2-13-0.4
			c-9.6-0.6-35.2,2.1-29.3,17.1C169.3,167.5,190.4,177.6,202.4,181.6z"/>
		<path class="st10" d="M210.1,182.3c-1.8,0.3-3.8,0.5-5.2,1.7s-1.9,3.4-0.6,4.9c1,0.8,2.2,1.3,3.5,1.4c14.1,1.6,28.3,1.1,42.2-1.6
			c11.8-2.2,24.1-6,33.4-13.5c9.7-7.9,15.8-20.4,11.7-31.8c-4.9-14.1-22.3-21.4-37.8-24.3c-11.9-2.3-23.5-2.9-34.6-3.3
			c-6.4-0.4-13.1-0.5-18.6,2.4s-9.7,9.3-7.8,14.7c1.5,4,5.8,6.1,10.2,6.7s9.1-0.5,13.9-0.9c11.5-1.1,49.6,0.9,39.1,20.2
			C252.1,172.4,223.6,180.4,210.1,182.3z"/>
	</g>
	<path class="st14" d="M201.7,326.9c0,4.1-1.2,8.1-3.6,11.4c-6.9,4.8-16,4.8-22.9,0c-0.4-0.2-0.7-0.5-1.1-0.8
		c-8.2-6.6-9.9-18.4-3.9-27c9.1-6.3,21.5-4.1,27.8,5C200.4,318.8,201.7,322.8,201.7,326.9L201.7,326.9z"/>
	<path class="st15" d="M200.1,329.5c0,4-1.2,7.9-3.5,11.1c-3.6,5.1-9.6,7.9-15.7,7.3c-10.6-0.9-19.2-10.5-19.2-21.6
		c-0.1-6.3,3-12.2,8.2-15.7c3.3-2.1,7.1-3.1,11-2.7C191.5,308.8,200.1,318.4,200.1,329.5z"/>
	<polygon class="st8" points="180.9,315.2 183.9,325.1 193.6,326 185.8,331.3 188.8,341.2 180.9,334.6 173,339.9 176,330.5 
		168.1,323.8 177.8,324.6 	"/>
</g>
<g id="head">
	<path class="st13" d="M301.1,52.9c2.2-45.6-103.3-71.5-135.7-37c-1.9,2.1-3.9,4.1-5.9,6.1c-12.6,13-12.2,33-0.3,47.3h-0.3
		c20.8,20.4,40.2,65.6,19.9,85.7c11.4,17.1,60.5,21.8,76.4,3.3c-17.9-20.5-2.8-50.8,19.8-70.1C288,80.2,301.1,68.2,301.1,52.9z"/>
	<path class="st16" d="M270.6,56.2c-1-9.6-8.6-16.9-17.1-17c-24.9-0.1-49.7-3.2-73.8-9.3c-8.4-2-16.6,3.4-18.3,12.5
		s4.2,19,13.5,21.2c26.3,6.7,53.4,10.1,80.6,10.2C264.9,73.8,271.6,65.7,270.6,56.2z"/>
	<path class="st10" d="M250.6,70.2c-27.2-0.4-54.2-3.8-80.6-10.2c-9.2-2.1-15.4-11.2-13.6-19.3l0,0c1.7-8.3,9.9-12.9,18.3-11
		c24.2,5.9,48.9,9,73.8,9.3c8.7,0.2,16,6.8,17.2,15.4l0,0C266.7,63.2,260,70.4,250.6,70.2z"/>
	<path class="st17" d="M170.9,54.4c-5.6-1.4-9.5-6.8-8.6-12s6-8.2,11.4-6.9c24.6,5.9,49.7,9.1,75,9.5c5.5,0.2,10,4.3,10.7,9.7
		c0.6,5.4-3.6,9.7-9.4,9.7C223.4,64,196.9,60.6,170.9,54.4z"/>
	<path class="st18" d="M177.8,46.2c0.3-2.3,2.5-3.8,4.7-3.5c0.2,0,0.4,0.1,0.5,0.1c2.6,0.5,4.3,2.8,4.1,5.4c-0.2,2.5-2.7,4-5.3,3.5
		C179.4,51.2,177.7,48.8,177.8,46.2z"/>
	<path class="st18" d="M206.1,51.3c0.2-2.3,2.2-4.1,4.5-3.9c0.1,0,0.3,0,0.4,0c2.6,0.2,4.5,2.4,4.5,5c-0.1,2.3-2.1,4.1-4.4,4.1
		c-0.2,0-0.3,0-0.5-0.1C208,56.2,206.1,54,206.1,51.3z"/>
	<path class="st18" d="M234.5,54.2c0-2.4,1.9-4.3,4.2-4.3c0.1,0,0.2,0,0.3,0c2.6,0.1,4.7,2.1,5,4.7c0.2,2.2-1.4,4.1-3.6,4.3
		c-0.3,0-0.6,0-0.9,0C236.9,58.9,234.7,56.9,234.5,54.2z"/>
	<path class="st15" d="M233.3,91.4c-0.2,1.5-0.9,2.8-2.1,3.7c-1.2,0.9-2.7,1.4-4.3,1.2c-12.7-1.3-25.2-3.4-37.7-6.3
		c-2.9-0.6-4.8-3.5-4.2-6.5c0-0.1,0-0.1,0-0.2c0.8-2.9,3.8-4.7,6.7-4c12,2.8,24.2,4.8,36.4,6.1C231.2,85.7,233.5,88.3,233.3,91.4z"
		/>
	<path class="st8" d="M233.3,91.4c-16.3-1.4-32.4-4.1-48.2-8.1c0.8-2.9,3.8-4.7,6.7-4c12,2.8,24.2,4.8,36.4,6.1
		C231.3,85.7,233.5,88.3,233.3,91.4z"/>
</g>
<path id="r-hand" class="st8" d="M308.9,337.7l11.9-11.9l20.6,10.2c-2,12.2-9.9,25-9.9,25l0,0c-2.5,5.5-6.7,10.2-11.9,13.3
	c-3.8,2.4-8.3,4.1-12.7,3.4s-8.3-4.4-8-8.9c0.2-3.8,3.1-6.9,5.6-9.9c1.7-2.1,3.4-4.6,3.7-7.2c-2.3,1.1-4.2,2.7-5.7,4.7
	c-0.6,0.7-1.2,1.5-1.8,2.2c-0.8,0.9-2.2,1-3.1,0.2c-0.5-0.4-0.8-1.1-0.7-1.7C297,350.2,303.2,343.4,308.9,337.7z"/>
<path id="r-bicep" class="st5" d="M255.5,188.3c18.9,36.9,54.1,76.6,92.4,92.7c10.8,4.5,19.7,7,23.6,5.4l0,0
	c17.3-7.2,24.6-28.8,16.1-47.6c-3.4-7.4-7.2-14.7-11.4-21.6c-22.6-37.7-51.2-64.7-87.7-75.9L255.5,188.3z"/>
<path id="r-forearm" class="st5" d="M339.7,345.9c0.9,0.1,1.8,0,2.7-0.4c0.8-0.3,1.6-0.9,2.2-1.5c0.5-0.6,3.1-3.4,5.9-6.7
	c2.7-3,5.2-6.2,7.5-9.5c10.8-16.5,24.3-42.1,30.1-59.6l-60.2-1.6c0.3,19.4-4,39.1-14.7,60.5c-0.2,0.5-0.4,1-0.5,1.6
	c-0.3,1.9,0.2,3.8,1.6,5.1l1.2,1.2l0.3,0.2c3.1,2.5,6.5,4.6,10,6.4C330.1,344,334.8,345.4,339.7,345.9z"/>
<path id="collar" class="st10" d="M250,141.4c8.8,2.9,14.6,8.1,9.6,17.2c-7.5,13.8-36,21.7-49.5,23.6c-1.8,0.3-3.8,0.5-5.2,1.7
	s-1.9,3.4-0.6,4.9c1,0.8,2.2,1.3,3.5,1.4c14.1,1.6,28.3,1.1,42.2-1.6c11.8-2.2,24.1-6,33.4-13.5c9.7-7.9,15.8-20.4,11.7-31.8
	c-4.9-14.1-22.3-21.4-37.8-24.3L250,141.4z"/>
<path id="l-calf" class="st5" d="M39.1,394.3l13.2,102.5h53.1l13.1-102.5c2.8-21.9-12.7-42-34.6-44.8c-1.6-0.2-3.1-0.3-4.7-0.3l0,0
	c-22.1-0.2-40.2,17.5-40.4,39.5C38.8,390.6,38.9,392.5,39.1,394.3z"/>
<g id="l-shoe">
	<polygon class="st7" points="51.2,556.6 108.6,556.6 112.4,504.6 48,504.6 	"/>
	<path class="st7" d="M51.2,556.6L6.3,587.1c-3.9,2.7-6.3,7.2-6.3,11.9l0,0c0,6.7,4.6,12.5,11.1,14l0,0c21.8,5.1,44.6,4.5,66-2
		l15.7-4.7c8.8-2.7,14.9-10.7,15.2-19.9l0.7-29.8L51.2,556.6z"/>
	<path class="st8" d="M109.9,591.3c0,0-0.1,3.7,0,6c0.1,1.8-1.1,3.5-2.8,4.2l-2.3,0.9c-1,0.4-2,0.7-3,1.1L77,611.6
		c-11.9,3.4-24.3,5.1-36.7,4.9c-9.8,0-19.7-1.1-29.2-3.4C4.6,611.6,0,605.7,0,599c0-1.4,0.2-2.7,0.6-4c0.5,1.1,1.2,2.1,2,3.1
		c2.3,2.6,5.4,4.4,8.8,5.1c24,5.1,48.9,4.4,72.6-2l17.3-4.7C103,595.9,108.4,592.1,109.9,591.3z"/>
	<path class="st9" d="M54.6,504.2l1.6,23.3c0.4,5.4,4.4,9.8,9.8,10.7l0,0c6.3,1,12.3-3.3,13.3-9.7c0-0.3,0.1-0.6,0.1-0.9l1.6-20.8
		L54.6,504.2z"/>
	<path class="st8" d="M108.8,507.7c-20,2.6-40.3,2.6-60.4,0c-3.3-0.3-5.8-3.3-5.5-6.7c0-0.1,0-0.1,0-0.2c0.2-0.7,0.3-1.4,0.3-2.1
		c0.5-3.3,3.6-5.6,7-5.1c18.8,2.5,37.9,2.5,56.7,0c3.3-0.5,6.5,1.8,7,5.1c0.2,0.7,0.3,1.4,0.3,2.1c0.4,3.3-2,6.4-5.3,6.8
		C108.9,507.7,108.9,507.7,108.8,507.7z"/>
	<path class="st7" d="M108.6,556.6H51.2L6.3,587.1c-2.8,1.9-4.8,4.7-5.7,7.9c0.5,1.1,1.2,2.1,2,3.1c2.3,2.6,5.4,4.4,8.8,5.1
		c24,5.1,48.9,4.4,72.6-2l17.3-4.7c1.7-0.5,3.3-1.1,4.9-1.9C117.9,590.8,108.6,556.6,108.6,556.6z"/>
</g>
</svg>
