<?xml version="1.0" encoding="utf-8"?>
<!-- Generator: Adobe Illustrator 25.2.0, SVG Export Plug-In . SVG Version: 6.00 Build 0)  -->
<svg version="1.1" id="Layer_1" xmlns="http://www.w3.org/2000/svg" xmlns:xlink="http://www.w3.org/1999/xlink" x="0px" y="0px"
	 viewBox="0 0 368.3 583" style="enable-background:new 0 0 368.3 583;" xml:space="preserve">
<style type="text/css">
	.st0{fill:#89F6E3;}
	.st1{fill:#D53520;}
	.st2{fill:#EE3B24;}
	.st3{fill:#F8CB35;}
	.st4{fill:#BE9C29;}
	.st5{fill:#C1301D;}
	.st6{fill:#172EA0;}
	.st7{clip-path:url(#SVGID_2_);}
	.st8{fill:#1B1464;}
	.st9{fill:#F37229;}
	.st10{fill:#D43520;}
	.st11{fill:#132788;}
	.st12{fill:#13476A;}
	.st13{fill:#7BDCCB;}
	.st14{fill:#ADDFE7;}
	.st15{fill:#C7E9F4;}
	.st16{fill:#4D4D4D;}
	.st17{fill:#808080;}
	.st18{fill:#172EA1;}
	.st19{fill:#175884;}
	.st20{fill:#D56424;}
	.st21{fill:#FFF3CB;}
	.st22{fill:#2541EA;}
	.st23{clip-path:url(#SVGID_4_);}
</style>
<path id="b-hand" class="st0" d="M42,134.2c-2.8-6.4-6.9-12.1-12-16.9c-3.8-4.3-8.4-7.8-13.6-10.4c-3.8-1.9-7.8-3.3-10.9-2.9
	s-4.9,3.2-3.2,6.7c1.4,2.9,4.7,5.4,7.6,7.7c1.7,1.3,3.2,2.9,4.6,4.6c-2.6,0.1-5.2-0.5-7.5-1.7c-0.9-0.4-1.8-0.8-2.7-1.2
	c-1.2-0.5-2.5,0.1-3,1.3C1,122,1,122.7,1.4,123.3c3.4,6.1,11.9,9.5,19.6,12l8.3,6.1L42,134.2z"/>
<path id="b-arm" class="st1" d="M184.2,224.2c25.3-3.3,41.9-26.6,37.1-45.8s-22.8-29.6-40.7-27.4c-2.5,0.3-5,0.9-7.4,1.7
	c-44.2,9.4-91.4,0.9-131.9-27.4c-1.8-1.3-3.8-0.3-5.6,1c-5.3,3.5-8.4,5.7-11.2,9.6c-3.1,4.3-5.2,9.4-6,14.7c-0.3,1.9-1,3.7,0.3,5.1
	c40.8,43.3,95.8,68.3,155.5,68.6C177.6,224.7,180.9,224.6,184.2,224.2z"/>
<g id="body">
	<path class="st2" d="M224.6,403.3c-106.9,10.4-101.6-57.6-99.6-142.5c44,0,88.2,0.8,132.3,2.6c9,10.8,19.6,20.8,23.6,32.8
		C296.9,344.8,271.8,402.5,224.6,403.3z"/>
	<g id="body-2">
		<path class="st3" d="M236.5,141.4c-27.3,20.7-109.1,31.7-127.5,33.2c-3.2,0.2-4.5-0.7-4.6-2c0-0.2,0-0.4,0-0.6
			c0.1-0.4,0.2-0.8,0.5-1.1c3.4-7.3,14.9-18.6,25.2-28c25.5-23.1,75-36.3,75-36.3c21.9-2.2,28.8,1.6,34.8,9.3
			c6.1,7.8,4.7,19.1-3.1,25.3C236.7,141.3,236.6,141.4,236.5,141.4z"/>
		<path class="st4" d="M226.7,143.1c-23.1,15.8-92.1,24.7-107.6,26c-2.7,0.2-3.8-0.5-3.9-1.4c0-0.1,0-0.3,0-0.4
			c0.1-0.3,0.2-0.6,0.4-0.8c2.9-5.5,12.7-14.2,21.4-21.3c21.6-17.6,63.3-27.9,63.3-27.9c18.4-1.8,24.2,1,29.2,6.7
			C234.6,129.6,233.5,138.4,226.7,143.1z"/>
		<path class="st3" d="M273.7,286.8c-0.3,0.5-0.7,1-1.2,1.4c-9,8.3-24.6,14.4-39.4,19.1c-36.5,11.5-74.1,19.1-112.2,22.7l-5.2-60.6
			L245,258.3c1.6-0.1,3.1-0.1,4.7,0.2c2.1,0.3,4.1,1.2,5.8,2.6c6.6,6.1,12.6,12.8,18,20C274.8,282.7,274.9,285.1,273.7,286.8z"/>
		<path class="st5" d="M265.3,272.7c-19.2,13.4-72.6,29.3-142.3,35.2c-30-18.1-36.2-81.5-16.9-135.9l127.1-45.7
			c0,0,48.3,26.7,36.6,109.9c-1,7.4-2.5,20.5-1,27.5C269.5,267.2,268.1,270.7,265.3,272.7z"/>
		
			<ellipse transform="matrix(0.9963 -8.576471e-02 8.576471e-02 0.9963 -27.0021 11.2613)" class="st6" cx="117.6" cy="319.9" rx="10.9" ry="20"/>
		<g>
			<defs>
				
					<ellipse id="SVGID_1_" transform="matrix(0.9963 -8.576471e-02 8.576471e-02 0.9963 -27.0021 11.2613)" cx="117.6" cy="319.9" rx="10.9" ry="20"/>
			</defs>
			<clipPath id="SVGID_2_">
				<use xlink:href="#SVGID_1_"  style="overflow:visible;"/>
			</clipPath>
			<g class="st7">
				<polygon class="st0" points="106.4,307.1 108.9,316.6 114.4,316.2 110.5,322.5 113,332 108.1,326.4 104.1,332.8 105,323 
					100,317.4 105.5,316.9 				"/>
			</g>
		</g>
		<path class="st8" d="M128.4,319c0.9,11-3.1,20.4-9.1,20.9c-0.9,0.1-1.7,0-2.5-0.3c4.6-2.5,7.5-10.7,6.7-20.1s-5.1-17-10-18.7
			c0.7-0.4,1.6-0.7,2.4-0.7C121.8,299.4,127.4,308,128.4,319z"/>
		<path class="st9" d="M229.5,143.1c0,0,1.3-3-6.1-6.1c-14.6-6.2-82.5,3.4-82.5,3.4l-12,11.4c0,0-17.5,12.2-19.9,22.9L229.5,143.1z"
			/>
	</g>
</g>
<g id="b-leg">
	<path class="st10" d="M63.6,390.8l68.2,77.7l44.1-29.7l-46.4-92.4c-9.9-19.7-34-27.7-53.7-17.8c-1.4,0.7-2.7,1.5-4.1,2.3l0,0
		c-18.5,12.1-23.6,36.9-11.4,55.4C61.2,387.9,62.4,389.4,63.6,390.8z"/>
	<polygon class="st11" points="175.3,422.2 177.7,425.9 210.1,477.5 217.9,489.9 166.4,526.4 156.9,513.4 140.6,491.3 121.3,465 
		121.1,464.7 125.9,460.9 	"/>
	<path class="st12" d="M136.9,453.5l12.9,19.2c3.5,5.5,2,12.8-3.3,16.5c-1.7,1.2-3.8,1.9-5.8,2L121.3,465c-0.5,0.1-0.9,0.1-1.4,0
		L136.9,453.5z"/>
	<path class="st13" d="M177.7,425.9c-0.3,1.3-1.1,2.4-2.1,3.3c-11.4,10.1-23.8,19.1-37,26.9c-4.9,2.9-10,5.6-15.1,8.2
		c-0.7,0.4-1.4,0.6-2.2,0.7c-2.6,0.3-5.2-1-6.4-3.4c-0.3-0.7-0.6-1.4-1-2c-1.4-3.2-0.1-6.9,3-8.5c17.7-8.8,34.2-19.9,49-33
		c2.6-2.3,6.6-2.1,9,0.4c0.5,0.5,1,1,1.4,1.6C177.8,421.7,178.3,423.9,177.7,425.9z"/>
	<path class="st13" d="M230.3,509.4c2.7,5.2,1.8,11.2-2.3,13.9L149.8,576c-3.1,2-7,2.5-10.5,1.3c-2.3-0.7-4.5-1.9-6.3-3.5
		c2-0.3,3.9-1.1,5.6-2.2l89.8-60.4C229.1,510.7,229.8,510.1,230.3,509.4z"/>
	<path class="st11" d="M210.1,477.5l0.1,0.2l19.4,30.6c0.2,0.4,0.4,0.7,0.6,1.1c-0.6,0.6-1.2,1.2-1.9,1.7l-89.8,60.4
		c-1.7,1.1-3.6,1.9-5.6,2.2c-1.3-1.1-2.4-2.4-3.4-3.8c-4-6-4.3-13.4-0.8-18.3l28-38.3L210.1,477.5z"/>
</g>
<g id="ride">
	<path class="st14" d="M96.7,440.6c-19.3,16.1-21,95.8,3.1,47.1c9.7,55.9,18.9,74,34.8,7.2c2.6,5,4.2,10.5,4.7,16.1
		c0.2,1.9,1.9,3.2,3.7,3c1.1-0.1,2.1-0.8,2.6-1.9c10.4-22,2.2-49.5-6.1-71.6H96.7z"/>
	<path class="st15" d="M105.2,440.6c-11,9.2-12,54.6,1.7,26.8c2.6,11.1,4,22.7,9.3,32.8c6.8-11.5,12.8-43.2,12.9-12.9
		c11.3-13.2,5.8-32,0.3-46.7H105.2z"/>
	<path class="st16" d="M143.6,442.2L143.6,442.2c-17.6,6.1-36.7,6.1-54.2,0l0,0c-2.5-0.8-3.8-3.5-3-5.9c0-0.1,0-0.1,0.1-0.2
		l9.9-27.1h40.2l9.9,27.1c1,2.3-0.1,5-2.4,6C143.9,442.1,143.8,442.1,143.6,442.2z"/>
	<path class="st14" d="M253.3,440.6c19.3,16.1,21,95.8-3,47.1c-9.7,55.9-18.9,74-34.8,7.2c-2.6,5-4.2,10.5-4.7,16.1
		c-0.2,1.9-1.9,3.2-3.7,3c-1.1-0.1-2.1-0.8-2.6-1.9c-10.4-22-2.2-49.5,6.1-71.6H253.3z"/>
	<path class="st15" d="M244.8,440.6c11,9.2,12,54.6-1.7,26.8c-2.6,11.1-4,22.7-9.3,32.8c-6.8-11.5-12.8-43.2-12.9-12.9
		c-11.3-13.2-5.8-32-0.3-46.7H244.8z"/>
	<path class="st16" d="M206.5,442.2L206.5,442.2c17.6,6.1,36.7,6.1,54.2,0l0,0c2.5-0.8,3.8-3.4,3-5.9c0-0.1,0-0.1-0.1-0.2l-9.9-27.1
		h-40.3l-9.9,27.1c-0.9,2.4,0.3,5.1,2.7,6.1C206.3,442.1,206.4,442.1,206.5,442.2z"/>
	<path class="st17" d="M9.5,395.8h331.1c5.2,0,9.5,4.2,9.5,9.5v1.3c0,5.2-4.2,9.5-9.5,9.5H9.5c-5.2,0-9.5-4.2-9.5-9.5v-1.3
		C0,400,4.2,395.8,9.5,395.8z"/>
</g>
<g id="f-leg">
	<path class="st2" d="M50.1,359.2l14.7,124.3l53.1,0.2l1.1-3.7c13.4-46.6,20.8-82.3,12.4-133l-23.6-2.6L50.1,359.2z"/>
	<polygon class="st18" points="126.9,472.8 126.9,474 124.6,535 124.6,535.2 124.6,535.9 124.1,549.6 61,550.9 60.4,534.8 
		59.4,507.4 58.2,474.7 58.2,474.4 63.7,474.3 74.1,474 119.3,473 	"/>
	<path class="st19" d="M77.5,474l-0.1,23.2c-0.2,6.5-5.5,11.8-12.1,11.8c-2.1,0-4.1-0.6-6-1.6l-1.2-32.7c-0.4-0.2-0.8-0.4-1.2-0.7
		L77.5,474z"/>
	<path class="st0" d="M126.9,474c-1,0.9-2.3,1.5-3.7,1.7c-1.4,0.2-2.8,0.4-4.3,0.5c-13.8,1.5-27.6,1.8-41.5,0.9
		c-4.5-0.3-9.1-0.7-13.6-1.2c-1.2-0.1-2.3-0.3-3.5-0.4c-0.8-0.1-1.5-0.3-2.2-0.7c-0.4-0.2-0.8-0.4-1.2-0.7c-1.7-1.3-2.6-3.5-2.2-5.6
		c0.2-0.7,0.3-1.4,0.3-2.2c0.5-3.3,3.6-5.7,6.9-5.4h0.3c19.4,2.7,39.1,2.8,58.6,0.3l0.4,0c3.5-0.5,6.7,1.9,7.2,5.4
		c0.2,0.7,0.3,1.4,0.3,2.2C129.2,470.6,128.4,472.7,126.9,474z"/>
	<path class="st0" d="M123.4,572.8c-0.7,5.8-4.8,10.2-9.8,10.2l-94.2-0.4c-3.7-0.1-7.2-1.9-9.4-4.8c-1.5-1.9-2.6-4.1-3.2-6.4
		c1.9,0.8,3.9,1.3,5.9,1.3l108.2,0.5C121.7,573.1,122.5,573,123.4,572.8z"/>
	<path class="st18" d="M123.4,572.8c-0.8,0.2-1.7,0.3-2.6,0.3l-108.2-0.5c-2,0-4.1-0.4-5.9-1.3c-0.4-1.7-0.7-3.4-0.7-5.1
		c0-7.2,4-13.5,9.6-15.5l44.7-16l64.2,0.3v0.2l0.3,1.2C128.4,548.4,127.8,561.1,123.4,572.8L123.4,572.8z"/>
</g>
<path id="f-hand" class="st0" d="M328.5,293l-7.6-15.6l16.9-16.5C349,267,358.8,279,358.8,279l0,0c4.5,4.3,7.6,9.9,8.8,16
	c1,4.5,1.2,9.5-0.9,13.5s-7.1,6.6-11.3,4.8c-3.6-1.5-5.6-5.4-7.7-8.8c-1.4-2.4-3.4-4.8-5.7-6c0.3,2.6,1.2,5,2.6,7.1
	c0.5,0.8,1,1.6,1.6,2.5c0.6,1.1,0.2,2.5-0.9,3.1c-0.6,0.3-1.3,0.4-1.9,0.1C336.6,308.7,332.1,300.4,328.5,293z"/>
<path id="f-arm" class="st1" d="M198.4,146c-25.2-4-47.7,13.5-48.6,33.3s13.4,34.9,31.2,37.9c2.5,0.4,5,0.5,7.5,0.4
	c45,3.6,87.8,25.1,118.6,63.9c1.4,1.7,3.5,1.3,5.7,0.7c6.1-1.9,9.7-3,13.5-6c4.3-3.3,7.7-7.5,10-12.3c0.8-1.8,2-3.3,1.1-5
	C310.6,205.6,265,166,207.9,148.7C204.9,147.4,201.7,146.5,198.4,146z"/>
<g id="head">
	<path class="st9" d="M170.1,0C134.9,0,105.2,14.9,97,34.9c0,0.1-0.1,0.2-0.1,0.3c-0.7,1.8-1.3,3.6-1.6,5.5
		c-0.1,0.2-0.1,0.5-0.2,0.8c-0.3,1.6-0.4,3.2-0.4,4.8v0.2c0,0.5,0,1,0.1,1.6c0.1,2.3,0.5,4.6,1.2,6.8c0.3,0.9,0.6,1.7,0.9,2.6
		s0.7,1.8,1.1,2.6c0.5,1.1,1.1,2.1,1.8,3.1c0.6,0.9,1.2,1.8,1.9,2.7c1,1.3,2.1,2.6,3.2,3.8c1.6,1.7,3.3,3.3,5.2,4.8l0,0
		c2.2,2.4,4.4,5,6.6,7.8c1.4,1.8,2.7,3.6,4,5.5s2.4,3.6,3.5,5.5c11.9,19.8,18.2,44.1,4.2,60.3H212c-18.9-20.1-0.4-59.4,18.2-79
		c0,0,0,0,0.1-0.1c9.7-7.8,15.4-17.5,15.4-28C245.6,20.7,211.9,0,170.1,0z"/>
	<path class="st20" d="M152.1,50.2c0,8.5-6.2,15.7-14.7,16.9c-10.8,1.3-21.7,2.1-32.6,2.4c-1.1-1.2-2.2-2.4-3.2-3.8
		c-0.7-0.9-1.3-1.8-1.9-2.7c-0.6-1-1.2-2-1.8-3.1c-0.4-0.9-0.8-1.7-1.2-2.6s-0.7-1.7-0.9-2.6c-0.7-2.2-1.1-4.5-1.2-6.8
		c0-0.5-0.1-1-0.1-1.6v-0.2c0-1.6,0.1-3.2,0.4-4.8c0-0.2,0.1-0.5,0.2-0.8c0.4-1.9,0.9-3.7,1.6-5.5c12.5,0,24.9-0.7,37.2-2.2
		c8.5-1,16.4,5.3,17.8,14.7c0.1,0.5,0.1,1,0.2,1.5C152,49.6,152.1,49.9,152.1,50.2z"/>
	<path class="st3" d="M152.1,48.3c-1.2,21.9-33.1,17.3-50.2,18.1c-1.7,0.1-3.3-0.7-4.2-2.1c-5.3-7.8-6.9-17.4-4.5-26.5
		c0.6-2.1,2.5-3.5,4.7-3.5c11.8-0.1,23.6-0.8,35.4-2.2C142.9,30.9,152,38.5,152.1,48.3z"/>
	<path class="st21" d="M145.5,49.2c-0.4,4.6-4.3,8.4-9.5,9c-13.4,1.5-27,2.2-40.5,2.3c-0.4-0.9-0.9-1.8-1.2-2.7
		c-0.4-0.9-0.7-1.8-1-2.7V55c-0.7-2.3-1.1-4.6-1.2-7c0-0.5-0.1-1.1-0.1-1.6v-0.2c0-0.2,0-0.3,0-0.4c0-1.5,0.2-3.1,0.4-4.6
		c0.1-0.3,0.1-0.5,0.2-0.8c13.8,0.1,27.5-0.7,41.2-2.2c5.6-0.7,10.7,3.2,11.6,8.7C145.6,47.7,145.6,48.4,145.5,49.2z"/>
	<path class="st22" d="M114.3,49.7c0.1-2.8,2.4-4.9,5.1-4.9c2.3,0.1,4.3,1.7,4.8,4c0.2,2.6-1.6,4.8-4.2,5.1c-0.1,0-0.2,0-0.3,0
		c-2.6,0.4-5-1.4-5.4-4C114.3,49.8,114.3,49.7,114.3,49.7z"/>
	<g>
		<defs>
			<path id="SVGID_3_" d="M145.5,49.2c-0.4,4.6-4.3,8.4-9.5,9c-13.4,1.5-27,2.2-40.5,2.3c-0.4-0.9-0.9-1.8-1.2-2.7
				c-0.4-0.9-0.7-1.8-1-2.7V55c-0.7-2.3-1.1-4.6-1.2-7c0-0.5-0.1-1.1-0.1-1.6v-0.2c0-0.2,0-0.3,0-0.4c0-1.5,0.2-3.1,0.4-4.6
				c0.1-0.3,0.1-0.5,0.2-0.8c13.8,0.1,27.5-0.7,41.2-2.2c5.6-0.7,10.7,3.2,11.6,8.7C145.6,47.7,145.6,48.4,145.5,49.2z"/>
		</defs>
		<clipPath id="SVGID_4_">
			<use xlink:href="#SVGID_3_"  style="overflow:visible;"/>
		</clipPath>
		<g class="st23">
			<path class="st22" d="M95.5,50.4c0,0.3,0,0.7-0.1,1C95,53.1,93.7,54.5,92,55c-0.7-2.3-1.1-4.6-1.2-7c0-0.5-0.1-1.1-0.1-1.6v-0.2
				c0-0.2,0-0.3,0-0.4C93.3,45.7,95.5,47.8,95.5,50.4z"/>
		</g>
	</g>
	<path class="st6" d="M138.1,87.6c0,0.2,0,0.4,0,0.6c-0.3,2.8-2.7,4.9-5.5,4.9h-8.4c-1.1-1.9-2.3-3.7-3.5-5.5
		c-1.3-1.9-2.6-3.7-4-5.5h15.9C135.6,82.1,138.1,84.6,138.1,87.6z"/>
	<path class="st0" d="M138.1,87.6h-17.5c-1.3-1.9-2.6-3.7-4-5.5h15.9C135.6,82.1,138,84.5,138.1,87.6
		C138.1,87.6,138.1,87.6,138.1,87.6z"/>
</g>
<path id="collar" class="st3" d="M109,174.7c-8.3,0.4-4-6.4,1.6-7c14.4-3.5,37.6-11.3,57.4-19.3c16.9-6.9,31.2-13.9,35.6-18.6
	c1.9-2.1,3.6-3.7,0.9-4.6c0.2-0.5,1.2-10.7,5.2-18.8c18.2-1.1,25.2,2.6,30.1,9.7c5.8,8.2,4.7,19.3-3.3,25.4
	C209.2,162.1,127.4,173.1,109,174.7z"/>
<path id="f-thigh" class="st2" d="M225.8,309.7l-8.1-0.6c-43.8-3-87.8-0.5-130.9,7.6l0,0c-20.7,1.5-36.7,18.7-36.7,39.5l0,0
	c0,21.9,17.7,39.6,39.6,39.6h119.7L225.8,309.7z"/>
</svg>
