<?xml version="1.0" encoding="utf-8"?>
<!-- Generator: Adobe Illustrator 25.2.0, SVG Export Plug-In . SVG Version: 6.00 Build 0)  -->
<svg version="1.1" id="Layer_1" xmlns="http://www.w3.org/2000/svg" xmlns:xlink="http://www.w3.org/1999/xlink" x="0px" y="0px"
	 viewBox="0 0 407.4 892.9" style="enable-background:new 0 0 407.4 892.9;" xml:space="preserve">
<style type="text/css">
	.st0{fill:#89F6E3;}
	.st1{fill:#EE3B24;}
	.st2{fill:#ADDFE7;}
	.st3{fill:#C7E9F4;}
	.st4{fill:#4D4D4D;}
	.st5{fill:#808080;}
	.st6{fill:#989898;}
	.st7{fill:#F8CB35;}
	.st8{fill:#C1301D;}
	.st9{fill:#BE9C29;}
	.st10{fill:#F37229;}
	.st11{fill:#1B1464;}
	.st12{fill:#172EA0;}
	.st13{fill:#172EA1;}
	.st14{fill:#175884;}
	.st15{fill:#485AB5;}
	.st16{fill:#D56424;}
	.st17{fill:#FFF3CB;}
	.st18{fill:#2541EA;}
	.st19{fill:#D53520;}
</style>
<path id="l-hand" class="st0" d="M39.4,142.4l9,14.1l-14.3,17.8c-11.5-4.6-22.2-15-22.2-15l0,0c-4.8-3.7-8.5-8.7-10.3-14.5
	c-1.5-4.2-2.2-9-0.6-13.1s6.1-7.1,10.4-5.9c3.6,1,6,4.5,8.4,7.6c1.7,2.1,3.8,4.2,6.2,5.2c-0.5-2.4-1.7-4.7-3.3-6.6
	c-0.6-0.7-1.2-1.4-1.8-2.2c-0.7-1-0.5-2.4,0.5-3.1c0.5-0.4,1.2-0.5,1.8-0.4C29.8,128.2,35.1,135.7,39.4,142.4z"/>
<path id="b-bicep" class="st1" d="M93.8,179.7c-13.1,7.3-20.3,21.1-17.8,34.6l0,0c3.3,18.4,22.7,30.2,42.8,25.9
	c8-1.7,15.8-3.8,23.5-6.4c41.5-13.9,74-35.9,92.8-69l4.4-7.8l-31.7-20c-9.4-6-21.4-6.4-31.2-1.2L93.8,179.7z"/>
<path id="b-forearm" class="st1" d="M24.8,170.6c-0.6,1.8-0.3,3.7,0.8,5.2c0.5,0.6,2.6,3.7,5.2,7.2c2.4,3.2,4.9,6.4,7.6,9.3
	c13.8,14,35.8,32.7,51.6,42.1l14.5-58.3c-19-3.9-37.2-12.3-55.7-27.3c-0.4-0.3-0.9-0.6-1.4-0.8c-1.7-0.7-3.7-0.6-5.3,0.4l-1.5,0.9
	l-0.3,0.2c-3.1,2.5-5.9,5.3-8.4,8.3C28.7,161.7,26.3,166,24.8,170.6z"/>
<g id="ride">
	<path class="st2" d="M143.9,795.7c-19.3,16.1-21,95.8,3.1,47.1c9.7,55.9,18.9,74,34.8,7.2c2.6,5,4.2,10.5,4.7,16.1
		c0.2,1.9,1.9,3.2,3.7,3c1.2-0.1,2.2-0.8,2.7-1.9c10.4-22,2.2-49.5-6.1-71.6H143.9z"/>
	<path class="st3" d="M152.3,795.7c-11,9.2-12,54.7,1.7,26.8c2.6,11.1,4,22.7,9.3,32.8c6.8-11.5,12.8-43.2,12.9-12.9
		c11.3-13.2,5.8-32,0.3-46.7L152.3,795.7z"/>
	<path class="st4" d="M190.7,797.2L190.7,797.2c-17.6,6.1-36.7,6.1-54.2,0l0,0c-2.5-0.8-3.8-3.5-3-6c0-0.1,0-0.1,0.1-0.2l9.9-27.1
		h40.2l9.9,27.1c1,2.3,0,5-2.3,6C191,797.1,190.9,797.2,190.7,797.2z"/>
	<path class="st2" d="M300.4,795.7c19.3,16.1,21,95.8-3.1,47.1c-9.7,55.9-18.9,74-34.8,7.2c-2.6,5-4.2,10.5-4.7,16.1
		c-0.2,1.9-1.9,3.2-3.7,3c-1.2-0.1-2.2-0.8-2.7-1.9c-10.4-22-2.2-49.5,6.1-71.6H300.4z"/>
	<path class="st3" d="M292,795.7c11,9.2,12,54.7-1.7,26.8c-2.6,11.1-4,22.7-9.3,32.8c-6.8-11.5-12.8-43.2-12.9-12.9
		c-11.3-13.2-5.8-32-0.3-46.7L292,795.7z"/>
	<path class="st4" d="M253.6,797.2L253.6,797.2c17.6,6.1,36.7,6.1,54.2,0l0,0c2.5-0.8,3.8-3.5,3-6c0-0.1,0-0.1-0.1-0.2l-9.9-27.1
		h-40.3l-9.9,27.1c-0.9,2.4,0.3,5.1,2.7,6C253.4,797.2,253.5,797.2,253.6,797.2z"/>
	<rect x="47.2" y="730.1" class="st5" width="350" height="18.5"/>
	<ellipse class="st5" cx="222.1" cy="748.6" rx="174.9" ry="29.1"/>
	<ellipse class="st6" cx="222.1" cy="730.1" rx="174.9" ry="29.1"/>
</g>
<path id="r-thigh" class="st1" d="M339.5,381l-7.6,90.3c-2.4,27.1-23.8,47.7-49.6,47.7l0,0c-25.6,0-47.1-20.5-49.6-47.2l-8.4-89.7
	c-7.8-33.4,19-65.3,55.8-66.2l0,0C317.7,314.8,346.7,346.5,339.5,381z"/>
<polygon id="r-calf" class="st1" points="330.2,480.4 310.2,637 254,637 234,481.4 "/>
<path id="l-thigh" class="st1" d="M130.3,372l7.2,85.4c2.2,25.6,22.5,45.1,46.9,45.1l0,0c24.2,0,44.5-19.3,46.9-44.6l7.9-84.8
	c7.4-31.6-17.9-61.8-52.7-62.6l0,0C150.8,309.5,123.4,339.5,130.3,372z"/>
<polygon id="l-calf" class="st1" points="139,466 158,614.1 211.1,614.1 229.9,467 "/>
<g id="body">
	<path class="st1" d="M341,363.6c0.2-14.8-2.6-30-7.7-45.5c-0.6-1.7-1.2-3.5-1.8-5.2c-4-10.8-8.7-21.3-14-31.5c-0.5-1.1-1-2-1.5-3
		c-29.8-2.8-58.9-4.4-87-5.1c-27.3-0.7-54-0.4-79.8,0.7c-0.4,1-0.9,1.8-1.2,2.6c-4.3,8.9-8.1,18-11.3,27.3c-0.2,1-0.6,1.9-0.9,2.8
		c-6.4,19.6-8.8,39-5.7,58.5h0.2c1.7,18.4,34.7,35.7,83.2,39.9c48.9,4.2,98.7-5.7,118.5-23.8c5.6-5.1,8.8-10.8,8.9-17.1
		c0-0.2,0-0.3,0-0.5C341,363.7,341,363.7,341,363.6z"/>
	<path class="st7" d="M331.8,309.1c1.1,2.6,0.6,5.5-1.1,7.7c-6.5,8-17.1,12.7-27,16c-44.2,14.5-91.7,13.1-133-2.8
		c-13-5-25.8-11.8-35.1-22.4c-1.9-2.2-2.5-5.2-1.5-7.9c2.5-6.8,5.2-13.4,8.4-20.1c1-2.2,3.2-3.7,5.6-3.6l166.1,4.6
		c2.9,0.1,5.4,1.8,6.7,4.3C325.2,292.7,328.8,300.8,331.8,309.1z"/>
	<path class="st8" d="M325,294.9c-10.8,13.9-44.7,26.9-97,24.4h-0.3c-49.6-2.4-79-17.2-88-30.8c0,0-6.1-18.1-6.1-29
		c0-54,28-111.9,28-111.9L225,145l74.2-3.1c0,0,24.1,57.4,24.1,117C323.2,270.8,325,294.9,325,294.9z"/>
	<rect x="171.2" y="128.7" class="st9" width="121.4" height="26.6"/>
	<path class="st10" d="M171.5,146.3c0,0,45.3-12.7,117.3,8.5l-1.3,18l-74.1,12.9l-43-24.9L171.5,146.3L171.5,146.3z"/>
	<path class="st7" d="M213.7,181.6c1.7,0.6,3.7,1.2,5,2.6s1.8,3.8,0.5,5c-1.1,0.6-2.3,0.8-3.5,0.6c-11.7-1.1-23.2-4.1-34-8.9
		c-7.4-3.4-14.5-7.6-19.3-13.9c-4.7-6.2-7.3-15-5.2-22.8c2.7-10,12-16.2,21.3-19.7c8-3.1,16.7-4.9,25.7-6.7c5.7-1.2,12-2.4,17.5-0.3
		c5.6,2.1,10.2,8.4,7.8,14.3c-1.8,4.3-6.6,6.7-11.1,7.5c-4.4,0.6-8.7-0.2-13-0.4c-9.6-0.6-35.2,2.1-29.3,17.1
		C180.6,167.5,201.7,177.6,213.7,181.6z"/>
	<path class="st7" d="M221.4,182.3c-1.8,0.3-3.8,0.5-5.2,1.7s-1.9,3.4-0.6,4.9c1,0.8,2.2,1.3,3.5,1.4c14.1,1.6,28.3,1.1,42.2-1.6
		c11.8-2.2,24.1-6,33.4-13.5c9.7-7.9,15.8-20.4,11.7-31.8c-4.9-14.1-22.3-21.4-37.8-24.3c-11.9-2.3-23.5-2.9-34.6-3.3
		c-6.4-0.4-13.1-0.5-18.6,2.4s-9.7,9.3-7.8,14.7c1.5,4,5.8,6.1,10.2,6.7s9.1-0.5,13.9-0.9c11.6-1.1,49.7,0.9,39.1,20.2
		C263.4,172.4,234.9,180.4,221.4,182.3z"/>
	<path class="st8" d="M188.7,394.9c4.8,2.4,9.7,4.5,14.8,6.2c5,1.6,10.2,2.6,15.4,3c1.3,0.1,2.6,0.1,3.9,0.1c1.3-0.1,2.6,0,3.9-0.2
		c2.6-0.2,5.3-0.5,7.9-0.9c5.2-1,10.4-2.4,15.5-4.1c-4.5,3.2-9.5,5.6-14.8,7.1c-2.7,0.8-5.4,1.4-8.2,1.7c-2.8,0.3-5.6,0.4-8.4,0.2
		c-1.4-0.1-2.8-0.3-4.2-0.4s-2.8-0.5-4.1-0.8l-4-1.2c-1.4-0.5-2.6-1-3.9-1.5C197.4,401.7,192.7,398.6,188.7,394.9z"/>
	<path class="st11" d="M233.5,330.4c0,4.1-1.2,8.1-3.6,11.4c-6.9,4.8-16,4.8-22.9,0c-0.4-0.2-0.7-0.5-1.1-0.8
		c-8.2-6.6-9.9-18.4-3.9-27c9.1-6.3,21.5-4.1,27.8,5C232.3,322.4,233.5,326.4,233.5,330.4L233.5,330.4z"/>
	<path class="st12" d="M232,333c0,4-1.2,7.9-3.5,11.2c-3.6,5.1-9.6,7.8-15.7,7.3c-10.6-0.9-19.2-10.5-19.2-21.6
		c-0.1-6.3,3-12.2,8.2-15.7c3.3-2.1,7.1-3,11-2.7C223.4,312.3,232,322,232,333z"/>
	<polygon class="st0" points="212.7,318.8 215.8,328.7 225.5,329.5 217.6,334.8 220.6,344.8 212.7,338.1 204.8,343.5 207.9,334 
		199.9,327.4 209.7,328.2 	"/>
</g>
<g id="r-shoe">
	<path class="st0" d="M242.6,712.7h2.1c2-6.4,4.6-12.3,5.1-15c1.3-6,5.6-30.3,5.6-30.3l26.2,0.1l26.2-0.1c0,0,4.3,24.5,5.6,30.3
		c0.6,2.7,3.3,8.6,5.1,15h2.1v13.9l0,0c-0.3,3.7-1.6,6.9-4.6,8.9c-5,3.4-19.7,4.9-34.5,4.7c-14.9,0.1-29.4-1.2-34.5-4.7
		c-3-2-4.3-5.3-4.6-8.9l0,0V712.7z"/>
	<path class="st12" d="M250,685.5c1.3-6,5.6-30.3,5.6-30.3l26.2,0.2l26.2-0.2c0,0,4.3,24.5,5.6,30.3c1.4,6.3,14,30,2.7,37.8
		c-5,3.4-19.7,4.9-34.5,4.7c-14.9,0.2-29.5-1.1-34.5-4.7C236,715.5,248.6,691.8,250,685.5z"/>
	<polygon class="st13" points="253.9,665.3 309.6,665.3 313.4,628.2 250.7,628.2 	"/>
	<path class="st14" d="M281.8,662.3L281.8,662.3c6.5,0,11.7-5.2,11.7-11.6c0,0,0-0.1,0-0.1v-22.9h-23.6v22.9
		C269.9,657.1,275.3,662.4,281.8,662.3z"/>
	<path class="st15" d="M306.4,696.7c-4.1-1-8-2-11.9-2.6c-3.8-0.6-7.7-1-11.6-1c-3.9,0-7.7,0.3-11.6,0.9c-3.9,0.6-7.7,1.6-11.9,2.6
		c3.1-3,6.7-5.2,10.7-6.7c4.1-1.5,8.4-2.2,12.7-2.2c4.3,0,8.7,0.8,12.7,2.3C299.6,691.4,303.3,693.7,306.4,696.7z"/>
	<path class="st0" d="M251.7,629.2c20.6,2.7,41.5,2.7,62.1,0c3.4-0.3,5.9-3.4,5.6-6.8c0-0.1,0-0.1,0-0.2c-0.2-0.7-0.3-1.4-0.3-2.1
		c-0.6-3.4-3.7-5.7-7.1-5.3c-19.4,2.6-39,2.6-58.3,0c-3.4-0.5-6.6,1.9-7.1,5.3c-0.2,0.7-0.3,1.4-0.3,2.1c-0.4,3.4,2,6.6,5.5,7
		C251.7,629.2,251.7,629.2,251.7,629.2z"/>
</g>
<g id="l-shoe">
	<polygon class="st13" points="156.6,674 214,674 217.8,621.9 153.4,621.9 	"/>
	<path class="st13" d="M156.6,674l-44.9,30.5c-3.9,2.7-6.3,7.2-6.3,11.9l0,0c0,6.7,4.6,12.5,11.1,14l0,0c21.8,5.1,44.6,4.5,66-2
		l15.7-4.7c8.8-2.7,14.9-10.7,15.1-19.9L214,674H156.6z"/>
	<path class="st0" d="M215.3,708.7c0,0-0.1,3.7,0,6c0.1,1.8-1.1,3.5-2.8,4.2l-2.3,0.9c-1,0.4-2,0.7-3,1.1l-24.8,8.1
		c-11.9,3.4-24.3,5.1-36.7,4.9c-9.8,0-19.7-1.1-29.2-3.4c-6.5-1.5-11.1-7.3-11.1-14c0-1.4,0.2-2.7,0.6-4.1c0.5,1.1,1.2,2.1,2,3.1
		c2.3,2.6,5.4,4.4,8.8,5.1c24,5.1,48.9,4.4,72.5-2l17.3-4.7C208.4,713.3,213.8,709.5,215.3,708.7z"/>
	<path class="st14" d="M160,621.5l1.6,23.3c0.4,5.4,4.4,9.8,9.8,10.7l0,0c6.3,1,12.3-3.3,13.3-9.6c0-0.3,0.1-0.6,0.1-0.9l1.6-20.8
		L160,621.5z"/>
	<path class="st0" d="M214.2,625.1c-20,2.6-40.3,2.6-60.4,0c-3.3-0.3-5.8-3.3-5.4-6.7c0,0,0-0.1,0-0.1c0.2-0.7,0.3-1.4,0.3-2.1
		c0.5-3.3,3.6-5.6,6.9-5.1c18.8,2.5,37.9,2.5,56.7,0c3.3-0.5,6.5,1.8,7,5.1c0.2,0.7,0.3,1.4,0.3,2.1c0.4,3.3-1.9,6.4-5.3,6.8
		C214.3,625.1,214.3,625.1,214.2,625.1z"/>
	<path class="st13" d="M214,674h-57.4l-44.9,30.5c-2.8,1.9-4.8,4.7-5.7,7.8c0.5,1.1,1.2,2.1,2,3.1c2.3,2.6,5.4,4.4,8.8,5.1
		c24,5.1,48.9,4.4,72.6-2l17.3-4.7c1.7-0.5,3.3-1.1,4.9-1.9C223.2,708.1,214,674,214,674z"/>
</g>
<g id="head">
	<path class="st10" d="M312.4,52.9c2.2-45.6-103.3-71.5-135.7-37c-1.9,2.1-3.9,4.1-5.9,6.1c-12.6,13-12.2,33-0.3,47.3h-0.3
		c20.8,20.4,40.2,65.6,19.9,85.7c11.4,17.1,60.5,21.8,76.4,3.3c-17.9-20.5-2.8-50.8,19.8-70.1C299.3,80.2,312.4,68.2,312.4,52.9z"/>
	<path class="st16" d="M281.9,56.2c-1-9.6-8.6-16.9-17.1-17c-24.9-0.1-49.7-3.2-73.8-9.3c-8.4-2-16.6,3.4-18.3,12.5
		s4.2,19,13.5,21.2c26.3,6.7,53.4,10.1,80.6,10.2C276.2,73.8,282.9,65.7,281.9,56.2z"/>
	<path class="st7" d="M261.9,70.2c-27.2-0.4-54.2-3.8-80.6-10.2c-9.2-2.1-15.4-11.2-13.5-19.3l0,0c1.7-8.3,9.9-12.9,18.3-11
		c24.2,5.9,48.9,9,73.8,9.3c8.7,0.2,16,6.8,17.2,15.5l0,0C278.1,63.2,271.4,70.4,261.9,70.2z"/>
	<path class="st17" d="M182.2,54.4c-5.6-1.4-9.5-6.8-8.6-12s6-8.2,11.4-6.9c24.6,5.9,49.8,9.1,75.1,9.5c5.5,0.2,10,4.3,10.7,9.7
		c0.6,5.4-3.6,9.7-9.4,9.7C234.8,64,208.2,60.6,182.2,54.4z"/>
	<path class="st18" d="M189.1,46.2c0.3-2.3,2.5-3.8,4.7-3.5c0.2,0,0.4,0.1,0.5,0.1c2.6,0.5,4.3,2.8,4.1,5.4c-0.2,2.5-2.7,4-5.3,3.5
		C190.7,51.2,189,48.8,189.1,46.2z"/>
	<path class="st18" d="M217.4,51.3c0.2-2.3,2.2-4.1,4.5-3.9c0.1,0,0.3,0,0.4,0.1c2.6,0.2,4.5,2.4,4.5,5c-0.1,2.3-2,4.1-4.4,4.1
		c-0.2,0-0.4,0-0.5-0.1C219.4,56.2,217.4,54,217.4,51.3z"/>
	<path class="st18" d="M245.9,54.2c0-2.4,1.9-4.3,4.2-4.3c0.1,0,0.2,0,0.3,0c2.6,0.1,4.7,2.1,5,4.7c0.2,2.2-1.4,4.1-3.6,4.3
		c-0.3,0-0.6,0-0.9,0C248.2,58.9,246,56.9,245.9,54.2z"/>
	<path class="st12" d="M244.6,91.4c-0.2,1.5-0.9,2.8-2.1,3.7c-1.2,0.9-2.7,1.4-4.3,1.2C225.6,95,213,92.9,200.6,90
		c-2.9-0.6-4.8-3.5-4.2-6.5c0-0.1,0-0.1,0-0.2c0.8-2.9,3.8-4.7,6.7-4c12,2.8,24.1,4.8,36.4,6.1C242.6,85.7,244.8,88.3,244.6,91.4z"
		/>
	<path class="st0" d="M244.6,91.4c-16.3-1.4-32.4-4.1-48.2-8.1c0.8-2.9,3.8-4.7,6.7-4c12,2.8,24.1,4.8,36.4,6.1
		C242.6,85.7,244.8,88.3,244.6,91.4z"/>
</g>
<path id="r-hand" class="st0" d="M325.2,337.7l11.9-11.9l20.6,10.2c-2,12.2-9.9,25-9.9,25h0c-2.5,5.5-6.7,10.2-11.9,13.3
	c-3.8,2.4-8.3,4.1-12.7,3.4s-8.3-4.4-8-8.9c0.2-3.8,3.1-6.9,5.6-9.9c1.7-2.1,3.3-4.6,3.7-7.2c-2.3,1.1-4.2,2.7-5.7,4.7
	c-0.6,0.7-1.2,1.5-1.8,2.2c-0.8,0.9-2.2,1-3.1,0.2c-0.5-0.4-0.8-1.1-0.7-1.7C313.3,350.2,319.5,343.4,325.2,337.7z"/>
<path id="r-bicep" class="st19" d="M271.8,188.3c18.9,36.9,54.1,76.6,92.4,92.7c10.8,4.5,19.7,7,23.6,5.4l0,0
	c17.3-7.2,24.6-28.8,16.1-47.6c-3.4-7.4-7.2-14.7-11.4-21.6c-22.6-37.7-51.2-64.7-87.7-75.9L271.8,188.3z"/>
<path id="r-forearm" class="st19" d="M356,345.9c1.8,0.2,3.7-0.5,4.9-1.9c0.5-0.6,3.1-3.4,5.9-6.7c2.7-3,5.2-6.2,7.5-9.5
	c10.8-16.5,24.3-42.1,30.1-59.6l-60.2-1.6c0.3,19.4-4,39.1-14.7,60.5c-0.2,0.5-0.4,1-0.5,1.6c-0.3,1.9,0.2,3.8,1.6,5.1l1.2,1.2
	l0.3,0.2c3.1,2.5,6.5,4.6,10,6.4C346.4,344,351.1,345.4,356,345.9z"/>
<path id="collar" class="st7" d="M261.3,141.4c8.8,2.9,14.6,8.1,9.6,17.2c-7.5,13.8-36,21.7-49.5,23.6c-1.8,0.3-3.8,0.5-5.2,1.7
	s-1.9,3.4-0.6,4.9c1,0.8,2.2,1.3,3.5,1.4c14.1,1.6,28.3,1.1,42.2-1.6c11.8-2.2,24.1-6,33.4-13.5c9.7-7.9,15.8-20.4,11.7-31.8
	c-4.9-14.1-22.3-21.4-37.8-24.3L261.3,141.4z"/>
</svg>
