<?xml version="1.0" encoding="utf-8"?>
<!-- Generator: Adobe Illustrator 25.2.0, SVG Export Plug-In . SVG Version: 6.00 Build 0)  -->
<svg version="1.1" id="Layer_1" xmlns="http://www.w3.org/2000/svg" xmlns:xlink="http://www.w3.org/1999/xlink" x="0px" y="0px"
	 viewBox="0 0 403.8 864.9" style="enable-background:new 0 0 403.8 864.9;" xml:space="preserve">
<style type="text/css">
	.st0{fill:#89F6E3;}
	.st1{fill:#EE3B24;}
	.st2{fill:#ADDFE7;}
	.st3{fill:#C7E9F4;}
	.st4{fill:#4D4D4D;}
	.st5{fill:#808080;}
	.st6{fill:#989898;}
	.st7{fill:#172EA0;}
	.st8{fill:#172EA1;}
	.st9{fill:#175884;}
	.st10{fill:#485AB5;}
	.st11{fill:#BE9C29;}
	.st12{fill:#F8CB35;}
	.st13{fill:#C1301D;}
	.st14{fill:#F37229;}
	.st15{fill:#D56424;}
	.st16{fill:#FFF3CB;}
	.st17{fill:#2541EA;}
</style>
<path id="r-hand" class="st0" d="M364.3,126.9l-6.9,15.9l17.5,15.8c10.9-6.5,20.2-18.9,20.2-18.9h0c4.4-4.3,7.1-10.3,8.2-16.4
	c0.8-4.6,0.8-9.5-1.5-13.4s-7.3-6.3-11.5-4.4c-3.5,1.6-5.4,5.6-7.4,9.1c-1.3,2.4-3.2,4.9-5.5,6.3c0.2-2.6,1-5,2.3-7.2
	c0.5-0.8,1-1.7,1.5-2.5c0.6-1.1,0.1-2.5-1-3.1c-0.6-0.3-1.3-0.3-1.9-0.1C371.8,110.8,367.6,119.3,364.3,126.9z"/>
<path id="r-bicep" class="st1" d="M338.7,206.2L338.7,206.2c-0.4,19.3-18.3,34.4-39.5,33.3c-8.4-0.4-16.7-1.3-25-2.7
	c-44.6-7.5-84.2-29.4-108.8-60.1l-5.8-7.2l63.9-24.6c13.4-5.2,28.4-3.9,40.8,3.4l0,0c17.3,10.6,33.8,19.3,50.5,25.4
	C329.4,179.1,338.9,191.9,338.7,206.2z"/>
<path id="r-forearm" class="st1" d="M383.8,153.3c0.4,0.8,0.7,1.8,0.7,2.7c0,0.9-0.2,1.9-0.6,2.7c-0.4,0.7-2.1,4.2-4.2,8.2
	c-1.9,3.7-4,7.3-6.2,10.7c-11.7,16.5-31.2,39.1-45.8,51.3l-24.2-57.1c18.7-7,35.9-18.5,52.4-36.9c0.4-0.4,0.8-0.8,1.3-1.1
	c1.6-1,3.7-1.2,5.5-0.4l1.6,0.7l0.3,0.2c3.5,2,6.9,4.4,9.9,7.1C378.3,144.8,381.4,148.8,383.8,153.3z"/>
<g id="ride">
	<path class="st2" d="M96.7,767.7c-19.3,16.1-21,95.8,3,47.1c9.7,55.9,18.9,74,34.8,7.2c2.6,5,4.2,10.5,4.7,16.1
		c0.2,1.9,1.9,3.2,3.7,3c1.1-0.1,2.1-0.8,2.7-1.9c10.4-22,2.2-49.5-6.1-71.6H96.7z"/>
	<path class="st3" d="M105.1,767.7c-11,9.2-12,54.7,1.7,26.8c2.6,11.1,4,22.7,9.3,32.8c6.8-11.5,12.8-43.2,12.9-12.9
		c11.3-13.2,5.8-32,0.3-46.7L105.1,767.7z"/>
	<path class="st4" d="M143.5,769.2L143.5,769.2c-17.6,6.1-36.7,6.1-54.2,0l0,0c-2.5-0.8-3.8-3.4-3-5.9c0-0.1,0-0.1,0.1-0.2l9.9-27.1
		h40.2l9.9,27.1c1,2.3-0.1,5-2.4,5.9C143.8,769.1,143.6,769.2,143.5,769.2z"/>
	<path class="st2" d="M253.2,767.7c19.3,16.1,21,95.8-3.1,47.1c-9.7,55.9-18.9,74-34.8,7.2c-2.6,5-4.2,10.5-4.7,16.1
		c-0.2,1.9-1.9,3.2-3.7,3c-1.1-0.1-2.1-0.8-2.7-1.9c-10.4-22-2.2-49.5,6.1-71.6H253.2z"/>
	<path class="st3" d="M244.7,767.7c11,9.2,12,54.7-1.7,26.8c-2.6,11.1-4,22.7-9.3,32.8c-6.8-11.5-12.8-43.2-12.9-12.9
		c-11.3-13.2-5.8-32-0.3-46.7L244.7,767.7z"/>
	<path class="st4" d="M206.4,769.2L206.4,769.2c17.6,6.1,36.7,6.1,54.2,0l0,0c2.5-0.8,3.8-3.4,3-5.9c0-0.1,0-0.1-0.1-0.2l-9.9-27.1
		h-40.3l-9.9,27.1c-0.9,2.4,0.3,5.1,2.8,6C206.3,769.2,206.3,769.2,206.4,769.2z"/>
	<rect y="702" class="st5" width="350" height="18.5"/>
	<ellipse class="st5" cx="174.9" cy="720.5" rx="174.9" ry="29.1"/>
	<ellipse class="st6" cx="174.9" cy="702" rx="174.9" ry="29.1"/>
</g>
<path id="l-hand" class="st0" d="M56,360.3l-5.5-16.4H26.9c-3.7,12.2-2.3,27.6-2.3,27.6h0.1c-0.4,6.1,1.6,12.4,4.9,17.7
	c2.5,4,5.8,7.6,10.1,9s9.7-0.2,11.5-4.5c1.5-3.6,0.3-7.8-0.6-11.6c-0.6-2.7-1-5.8-0.1-8.3c1.6,2,2.7,4.4,3.1,6.9
	c0.2,0.9,0.4,1.9,0.6,2.9c0.3,1.2,1.6,1.9,2.8,1.6c0.7-0.2,1.2-0.6,1.5-1.3C61.2,377.2,58.6,368.1,56,360.3z"/>
<path id="l-arm" class="st1" d="M38.7,356.4c-5.1,0-10.1-0.8-14.9-2.6l0,0c-1.8-0.7-3.1-2.2-3.7-4l0,0c-0.4-1.5-4.2-15.1-4.9-21
	c-4.8-41.3,1-80.8,16.9-114.2c17.7-37.1,48.1-66.1,83.5-79.6l8.3-3.2l-2.2,95.6l-2,1.7c-39,33.9-63.1,65.8-62.9,119.6l0,0
	c0,2.6-1.6,4.8-4,5.7l-1.7,0.6l-0.4,0.1C46.9,355.9,42.8,356.3,38.7,356.4L38.7,356.4z"/>
<path id="r-thigh" class="st1" d="M281.3,363l-7.2,85.4c-2.2,25.6-22.5,45.1-46.9,45.1l0,0c-24.2,0-44.5-19.3-46.9-44.6l-7.9-84.8
	c-7.4-31.6,17.9-61.8,52.7-62.6l0,0C260.7,300.4,288.1,330.5,281.3,363z"/>
<polygon id="r-calf" class="st1" points="272.5,457 253.6,605.1 200.5,605.1 181.6,458 "/>
<g id="r-shoe">
	<path class="st0" d="M264.4,677.7v13.5l0,0c-0.3,3.6-1.5,6.7-4.5,8.6c-4.9,3.3-19.2,4.7-33.5,4.6c-14.5,0.1-28.6-1.1-33.5-4.6
		c-2.9-2-4.2-5.1-4.4-8.6l0,0v-13.5H264.4z"/>
	<path class="st7" d="M195.6,651.3c1.3-5.8,5.4-29.5,5.4-29.5l25.4,0.1l25.5-0.1c0,0,4.2,23.8,5.4,29.5c1.4,6.1,13.6,29.2,2.6,36.7
		c-4.9,3.3-19.2,4.7-33.5,4.6c-14.5,0.1-28.6-1.1-33.5-4.6C182,680.5,194.3,657.4,195.6,651.3z"/>
	<polygon class="st8" points="199.4,631.7 253.6,631.7 257.3,595.5 196.4,595.5 	"/>
	<path class="st9" d="M226.5,628.8L226.5,628.8c6.3,0,11.4-5,11.4-11.3c0,0,0-0.1,0-0.1v-22.2H215v22.2
		C215,623.7,220.2,628.8,226.5,628.8z"/>
	<path class="st10" d="M250.4,662.1c-4-1-7.8-2-11.5-2.5c-3.7-0.6-7.5-0.9-11.3-1c-3.8,0-7.5,0.3-11.3,0.8
		c-3.8,0.5-7.5,1.5-11.5,2.5c3-2.9,6.5-5.1,10.4-6.5c4-1.5,8.2-2.2,12.4-2.1c4.2,0,8.4,0.8,12.4,2.2
		C243.9,657,247.4,659.3,250.4,662.1z"/>
	<path class="st0" d="M197.3,596.5c20,2.6,40.3,2.6,60.4,0c3.3-0.3,5.8-3.3,5.4-6.7c0,0,0-0.1,0-0.1c-0.2-0.7-0.3-1.4-0.3-2.1
		c-0.5-3.3-3.6-5.6-6.9-5.1c-18.8,2.5-37.9,2.5-56.7,0c-3.3-0.5-6.4,1.8-6.9,5.1c-0.2,0.7-0.3,1.4-0.3,2.1c-0.4,3.3,1.9,6.4,5.3,6.8
		C197.2,596.5,197.3,596.5,197.3,596.5z"/>
</g>
<path id="l-thigh" class="st1" d="M68.3,363l7.2,85.4c2.2,25.6,22.5,45.1,46.9,45.1l0,0c24.2,0,44.5-19.3,46.9-44.6l7.9-84.8
	c7.4-31.6-17.9-61.8-52.7-62.6l0,0C88.7,300.4,61.3,330.5,68.3,363z"/>
<polygon id="l-calf" class="st1" points="76.9,457 95.9,605.1 149.1,605.1 167.8,458 "/>
<g id="l-shoe">
	<path class="st0" d="M85.1,677.7v13.5l0,0c0.3,3.6,1.5,6.7,4.4,8.6c4.9,3.3,19.2,4.7,33.5,4.6c14.5,0.1,28.6-1.1,33.5-4.6
		c2.9-2,4.2-5.1,4.4-8.6l0,0v-13.5H85.1z"/>
	<path class="st7" d="M153.8,651.3c-1.2-5.8-5.4-29.5-5.4-29.5l-25.4,0.1l-25.4-0.1c0,0-4.2,23.8-5.4,29.5
		c-1.4,6.1-13.6,29.2-2.7,36.7c4.9,3.3,19.2,4.7,33.5,4.6c14.5,0.1,28.6-1.1,33.5-4.6C167.4,680.5,155.2,657.4,153.8,651.3z"/>
	<polygon class="st8" points="150.2,631.7 95.8,631.7 92.2,595.5 153.1,595.5 	"/>
	<path class="st9" d="M123.1,628.8L123.1,628.8c-6.3,0-11.4-5.1-11.4-11.3c0,0,0,0,0-0.1v-22.2h23v22.2
		C134.5,623.7,129.4,628.7,123.1,628.8z"/>
	<path class="st10" d="M99,662.1c3-2.8,6.5-5,10.4-6.4c4-1.4,8.1-2.2,12.4-2.2c4.2,0,8.4,0.7,12.4,2.1c3.9,1.4,7.5,3.6,10.4,6.5
		c-4-1-7.8-2-11.5-2.5c-3.7-0.5-7.5-0.8-11.3-0.8c-3.8,0-7.5,0.3-11.3,1C106.6,660.3,102.8,661.1,99,662.1z"/>
	<path class="st0" d="M152.1,596.5c-20,2.6-40.3,2.6-60.3,0c-3.3-0.3-5.8-3.3-5.4-6.7c0,0,0-0.1,0-0.1c0.2-0.7,0.3-1.4,0.3-2.1
		c0.5-3.3,3.7-5.6,7-5.1c18.8,2.5,37.9,2.5,56.7,0c3.3-0.5,6.5,1.8,7,5.1c0.2,0.7,0.3,1.4,0.3,2.1c0.4,3.3-1.9,6.4-5.3,6.8
		C152.3,596.5,152.2,596.5,152.1,596.5z"/>
</g>
<g id="body">
	<path class="st11" d="M227.7,147.4c-8,13.4-37.9,20.7-53.9,24.4c-41.8-5.9-92.3-41-15.2-41.8C173.6,133.4,235.7,121.6,227.7,147.4z
		"/>
	<path class="st1" d="M282.8,345c0.3-13.5-2.2-27.4-7-41.3l-1.7-4.6c-3.7-9.6-8-18.9-12.9-28c-0.4-1-1-1.8-1.4-2.6
		c-28.2-1.8-56.6-2.6-84.8-2.6s-56.6,1-84.8,2.6c-0.4,1-1,1.8-1.4,2.6c-4.8,8.9-9,18.1-12.7,27.5c-0.3,1-0.7,2-1,2.8
		c-5.3,14.7-8.3,29.3-8,43.6c0,0,0,0.1,0,0.1c0,0.2,0,0.3,0,0.5c0,0.7,0,1.4,0.1,2.1c0.7,4.7,2.8,9.2,6,12.7
		c14.7,17.4,54.7,29.9,101.8,29.9s87-12.5,101.8-29.9c3.2-3.5,5.2-7.9,5.9-12.5l0,0c0.1-0.8,0.1-1.5,0.1-2.3
		C282.8,345.4,282.8,345.2,282.8,345C282.8,345,282.8,345,282.8,345z"/>
	<path class="st12" d="M274.4,295.6c1,2.3,0.6,5-1,7c-6,7.5-15.9,12.2-25.2,15.7c-43.3,15.7-90.4,17.2-134.6,4.3
		c-14.2-4.2-28.4-10.3-38.8-20.3c-2.1-2-2.8-5.1-1.7-7.8c2.8-6.9,6-13.7,9.4-20.3c1.2-2.3,3.6-3.8,6.3-3.8h169.3
		c2.6,0,5,1.5,6.3,3.8C268.2,281.1,271.6,288.2,274.4,295.6z"/>
	<path class="st13" d="M268.1,283c-10,12.9-42.3,26.3-94.1,26.3h-0.3c-52,0-84.1-13.2-94.1-26.3c0,0,1.7-21.7,1.7-32.5
		c0-53.7,22.6-106.6,22.6-106.6H244c0,0,22.6,52.8,22.6,106.6C266.4,261.4,268.1,283,268.1,283z"/>
	<path class="st14" d="M121.4,141.5c0,0,40.7-16,108.3,0v18.1L174,172.5l-52.6-16.4V141.5z"/>
	<circle class="st7" cx="173.8" cy="320.8" r="20"/>
	<polygon class="st0" points="173.8,308.2 177,317.8 187.1,317.8 178.9,323.8 182.1,333.5 173.8,327.5 165.6,333.5 168.7,323.8 
		160.5,317.8 170.7,317.8 	"/>
	<path class="st12" d="M248.5,136.5c-3.6-9.9-16.4-15.6-28.6-18.4c-10-2.4-20.3-3.5-30.6-4.4c-5.1-0.6-10.5-1-15.4-0.1
		c-4.9-1-10.3-0.5-15.4,0.1c-10.3,1-20.6,2.1-30.6,4.4c-12.2,2.8-25,8.5-28.6,18.4c-2.9,7.8,1.1,16.6,7.9,22.4s16.3,9.3,25.9,11.8
		c12.8,3.2,25.9,4.8,39.1,4.7c0.6,0,1.2,0,1.8-0.1c0.6,0.1,1.2,0.1,1.8,0.1c13.2,0.1,26.3-1.5,39.1-4.7c9.6-2.5,19.1-6,25.9-11.8
		S251.4,144.3,248.5,136.5z M222.2,147.8c-6,10.6-31.1,18.4-44.4,20.9c-1.4,0.2-2.7,0.6-4,1.1c-1.3-0.5-2.6-0.8-4-1.1
		c-13.1-2.5-38.4-10.3-44.4-20.9c-8.1-14.2,23.9-16.3,34.8-15.6c4.6,0.3,9.1,0.9,13.6,0.6c4.5,0.5,9-0.3,13.7-0.6
		C198.3,131.5,230.3,133.6,222.2,147.8L222.2,147.8z"/>
	<path class="st13" d="M144.5,381c4.9,2.1,10,3.9,15.2,5.3c5.1,1.3,10.3,1.9,15.6,1.9c1.3,0,2.6,0,3.9-0.1c1.2-0.1,2.6-0.1,3.9-0.4
		c2.6-0.3,5.2-0.8,7.8-1.4c5.2-1.4,10.2-3.1,15.1-5.1c-4.3,3.5-9.1,6.2-14.3,8.1c-2.6,0.9-5.3,1.7-8.1,2.2c-2.8,0.5-5.6,0.7-8.4,0.7
		c-1.4,0-2.8-0.1-4.2-0.1s-2.8-0.3-4.2-0.6l-4-1c-1.4-0.4-2.6-0.8-4-1.2C153.7,387.2,148.8,384.5,144.5,381z"/>
</g>
<g id="head">
	<path class="st14" d="M249.5,46.3C249.5,20.7,215.7,0,174,0S98.4,20.7,98.4,46.3c0,10.7,6,20.6,15.9,28.4
		c18.5,19.8,36.7,58.8,17.7,78.7h83.7c-18.9-20.1-0.3-59.4,18.2-79C243.7,66.6,249.5,56.8,249.5,46.3z"/>
	<path class="st15" d="M228.9,47.7c-1.4-9.5-9.3-15.7-17.8-14.7c-24.6,3.1-49.5,3.1-74.1,0c-8.5-1-16.4,5.4-17.8,14.7
		c-1.5,9.2,4.7,17.9,13.9,19.4c0.1,0,0.2,0,0.4,0.1c26.9,3.3,54.1,3.3,80.9,0c9.3-1.3,15.8-10,14.5-19.3
		C228.9,47.8,228.9,47.8,228.9,47.7z"/>
	<path class="st7" d="M197.7,87.6c0,3-2.5,5.5-5.5,5.5h-36.5c-3,0.2-5.6-2.1-5.8-5.2s2.1-5.6,5.2-5.8c0.2,0,0.4,0,0.7,0h36.5
		C195.3,82.1,197.7,84.6,197.7,87.6z"/>
	<path class="st0" d="M197.7,87.6h-47.5c0-3,2.5-5.5,5.5-5.5c0,0,0,0,0,0h36.5C195.3,82.1,197.7,84.5,197.7,87.6
		C197.7,87.6,197.7,87.6,197.7,87.6z"/>
	<path class="st12" d="M214.4,63.5c-26.9,3.1-54,3.1-80.9,0c-9.3-1-15.9-9.2-14.3-17.5l0,0c1.5-8.4,9.3-14.2,17.8-13.2
		c24.6,2.8,49.5,2.8,74.1,0c8.5-1,16.3,4.8,17.8,13.2l0,0C230.3,54.5,223.9,62.6,214.4,63.5z"/>
	<path class="st16" d="M134.2,57.8c-5.7-0.7-9.7-5.6-9-10.8c0.9-5.3,5.8-9,11.1-8.3c25,2.8,50.3,2.8,75.4,0
		c5.3-0.6,10.2,3.1,11.1,8.3c0.8,5.3-3.2,10.2-9,10.8C187.3,60.8,160.6,60.8,134.2,57.8z"/>
	<path class="st17" d="M140.7,48.8c0.3-2.5,2.6-4.3,5.1-4c0,0,0,0,0.1,0c2.5,0.1,4.4,2.2,4.3,4.7c0,0,0,0.1,0,0.1
		c-0.3,2.6-2.6,4.4-5.2,4.1C142.5,53.5,140.6,51.3,140.7,48.8z"/>
	<path class="st17" d="M169.2,50.3c0.1-2.5,2.2-4.5,4.8-4.5c2.5-0.1,4.6,1.9,4.7,4.4c0,0,0,0.1,0,0.1c0,2.6-2.1,4.7-4.7,4.7
		C171.4,55.1,169.3,53,169.2,50.3L169.2,50.3z"/>
	<path class="st17" d="M197.7,49.6c0-2.6,2-4.8,4.7-4.8c2.4,0,4.4,1.7,4.8,4c0.2,2.5-1.6,4.6-4,4.9c-0.1,0-0.2,0-0.3,0
		c-2.5,0.4-4.8-1.4-5.1-3.8C197.8,49.8,197.7,49.7,197.7,49.6z"/>
</g>
</svg>
