<?xml version="1.0" encoding="utf-8"?>
<!-- Generator: Adobe Illustrator 25.2.0, SVG Export Plug-In . SVG Version: 6.00 Build 0)  -->
<svg version="1.1" id="Layer_1" xmlns="http://www.w3.org/2000/svg" xmlns:xlink="http://www.w3.org/1999/xlink" x="0px" y="0px"
	 viewBox="0 0 314.5 574.7" style="enable-background:new 0 0 314.5 574.7;" xml:space="preserve">
<style type="text/css">
	.st0{fill:#F473C2;}
	.st1{fill:#F4A8D7;}
	.st2{fill:#F486CA;}
	.st3{fill:#491D87;}
	.st4{fill:none;stroke:#66419B;stroke-width:5.18;stroke-linecap:round;stroke-linejoin:round;}
	.st5{fill:#989898;}
	.st6{fill:#66419B;}
	.st7{fill:#C15B9A;}
	.st8{opacity:0.5;fill:#68DFE7;enable-background:new    ;}
	.st9{fill:#808080;}
	.st10{fill:#FFFFFF;}
	.st11{fill:#7A0406;}
	.st12{fill:#CD539D;}
	.st13{fill:#DB67AE;}
	.st14{fill:#A54E83;}
	.st15{opacity:0.5;fill:#FFFFFF;enable-background:new    ;}
	.st16{fill:#4AA6C0;}
</style>
<g id="leags">
	<path class="st0" d="M161.9,573.5L161.9,573.5c-12.3,0-22.2-9.9-22.2-22.2c0,0,0,0,0-0.1V431.6H184v119.6
		C184,563.5,174.1,573.4,161.9,573.5z"/>
	<path class="st0" d="M71,535.9c4.9,4.6,11,7.6,17.5,8.6c3,0.4,6,0.5,9,0.3c1.5-0.1,2.9-0.4,4.4-0.5c0.9-0.3,1.8-0.6,2.6-1.1
		c3.3-1.8,6.7-5.8,8.9-10.7c1.2-2.5,2-5.1,2.7-7.8c0.3-1.4,0.5-2.9,0.7-4.3c0.3-1.5,0.4-3.1,0.4-4.6c0.3-6.6,0.1-13.2-0.7-19.8
		c-0.1-1.7-0.4-3.5-0.6-5.3l-0.7-5.6c-0.3-2.2-0.4-4-0.6-6l-0.6-5.8c-1.4-15.6-2.6-31.1-3.6-46.7l0,0c-0.8-13.8,9.7-25.7,23.5-26.6
		s25.7,9.7,26.6,23.5l0,0v3.1c-1,15.3-2.2,30.6-3.6,46l-0.6,5.7c-0.1,1.8-0.4,3.9-0.4,5.6l-0.4,6l-0.4,6.3
		c-0.6,8.9-2.2,17.8-4.6,26.4c-0.7,2.2-1.4,4.5-2.2,6.7s-1.8,4.5-2.8,6.7c-2.2,4.6-4.9,8.8-8.1,12.8c-3.2,4.1-7,7.7-11.3,10.7
		c-4.6,3.3-9.8,5.7-15.3,6.8c-2.9,0.6-5.8,0.8-8.8,0.7c-2.4-0.2-4.8-0.5-7.1-1.1c-4.7-1-9.2-2.8-13.3-5.2c-4.1-2.4-7.7-5.5-10.7-9.2
		c-2.9-3.5-5-7.6-6.3-12c-0.5-2,0.7-4,2.6-4.5C68.7,534.8,70,535.2,71,535.9L71,535.9z"/>
	<path class="st0" d="M260.1,545.1c-3.2,0.3-6.2,1.5-8.8,3.3c-2.8,2-5.5,4.3-8.1,6.7c-3.3,3-6.8,5.7-10.6,8.1
		c-2.5,1.5-5.2,2.6-8.1,3.3c-1.6,0.4-3.3,0.6-5,0.7c-1.5,0-3.1,0-4.6-0.1c-5.8-0.6-11.5-2.6-16.4-5.7c-4.6-2.9-8.7-6.3-12.2-10.4
		c-3.5-3.8-6.4-8.1-8.8-12.7c-2.3-4.4-4.1-9-5.6-13.8c-2.7-8.8-4.4-17.8-5-27c-0.4-4.3-0.7-8.6-0.8-12.7l-0.1-2.6l-0.3-2.9l-0.6-5.8
		c-1.4-15.6-2.6-31.3-3.6-46.9c-0.8-13.8,9.7-25.7,23.5-26.6s25.7,9.7,26.6,23.5v3.1c-1,15.9-2.2,31.7-3.6,47.6l-0.6,6l-0.3,2.9
		l-0.4,3.2c-0.6,3.8-1,7.4-1.4,10.9c-0.8,6.6-0.9,13.2-0.4,19.8c0.3,2.9,0.8,5.9,1.4,8.8c0.7,2.7,1.7,5.3,2.9,7.8
		c1.2,2.3,2.7,4.4,4.4,6.3c1.4,1.5,3.1,2.7,5,3.6c0.4,0.1,0.9,0.3,1.2,0.6c0.3,0.2,0.5,0.3,0.8,0.3c1.1,0.1,2.1,0,3.2-0.3
		c2.8-0.6,6.1-2.1,10-3.6c4.1-1.8,8.5-3.1,12.9-4c2.4-0.4,4.9-0.5,7.4-0.3c2.5,0.2,4.9,0.9,7.1,2c1.8,0.9,2.5,3.1,1.7,4.9
		c-0.6,1.1-1.7,1.9-2.9,2.1L260.1,545.1z"/>
	<path class="st1" d="M75.6,554.3c1.9-1.4,3.9-2.6,6.1-3.5c2.2-1,4.6-1.7,7-2.1c4.8-0.8,9.8-0.7,14.6,0.3c4.6,1,9,2.4,12.9,3.6
		c1.9,0.7,3.9,1.2,5.4,1.7s3.1,0.7,3.5,0.4c1-0.9,2-1.9,2.9-2.9c1.7-2.3,3-4.7,4-7.4c2.4-6,3.2-12.5,3.6-19.9c0.3-7.5,0-15-0.8-22.4
		c-0.4-3.9-0.8-7.8-1.2-11.8c-0.3-2.2-0.4-4.3-0.6-6.4l-0.6-6.3c-1.4-16.5-2.6-33.1-3.5-49.8l0,0c-0.7-12.6,9-23.4,21.6-24.1
		s23.4,9,24.1,21.6l0,0v2.6c-1,16.4-2.2,32.8-3.5,49.2l-0.6,6.1c-0.1,2.1-0.4,4.2-0.4,6c-0.3,4.2-0.6,8.5-0.8,12.9
		c-0.7,9.1-2.1,18.1-4.2,27c-2.1,9.6-5.9,18.8-11.3,27.1c-3,4.6-6.7,8.8-11,12.2c-2.6,2-5.4,3.6-8.5,4.7c-1.7,0.6-3.5,1-5.3,1.2
		c-0.9,0.1-1.9,0.2-2.8,0.1c-1,0.1-2,0-2.9-0.3c-3-0.5-5.9-1.5-8.5-2.9c-2.2-1.1-4-2.2-5.8-3.3c-3.5-2.1-6.7-4.2-9.9-5.7
		c-3.1-1.5-6.4-2.6-9.9-3.2c-1.8-0.2-3.5-0.3-5.3-0.1c-1.8,0.1-3.6,0.4-5.4,0.8h-0.1c-1.7,0.4-3.5-0.7-3.9-2.4c0,0,0-0.1,0-0.1
		C73.9,556.4,74.4,554.9,75.6,554.3C75.5,554.3,75.5,554.3,75.6,554.3z"/>
	<path class="st2" d="M233.1,556.8c-3.3,0-6.5,0.7-9.4,2.1c-3,1.6-5.8,3.5-8.4,5.7c-1.4,1.1-2.9,2.4-4.7,3.8c-2,1.5-4.1,2.8-6.4,3.8
		c-1.4,0.6-2.9,1.1-4.4,1.4c-0.9,0.2-1.8,0.3-2.6,0.3h-2.6c-3.2-0.3-6.4-1.2-9.3-2.6c-2.5-1.3-4.9-3-6.9-4.9
		c-1.9-1.7-3.7-3.6-5.3-5.6c-3-3.8-5.5-7.8-7.6-12.1c-1-2.1-1.9-4.2-2.8-6.4c-0.4-1.1-0.8-2.2-1.1-3.2l-1-3.2
		c-1.2-4.3-2.2-8.5-3.1-12.8c-1.5-8.3-2.6-16.6-3.1-25l-0.4-6.1c-0.1-2.1-0.1-3.6-0.4-5.7l-1-11.7c-1.2-15.6-2.4-31-3.2-46.5
		c-0.5-11.8,8.7-21.7,20.4-22.2c11.5-0.5,21.3,8.2,22.1,19.7v2.5l0,0c-0.8,15.7-1.9,31.3-3.2,47l-1,11.7c-0.1,2-0.4,4.2-0.6,6
		l-0.6,5.6c-0.8,7.2-1.2,14.4-1.1,21.6c0,3.5,0.3,7,0.6,10.3l0.3,2.5c0.1,0.8,0.3,1.5,0.4,2.4c0.3,1.5,0.6,3.2,1,4.7
		c0.8,2.9,1.9,5.8,3.2,8.5c1.1,2.2,2.5,4.1,4.2,5.8c0.5,0.5,1.1,0.9,1.7,1.2l0.3,0.1c0.1,0.1,0.2,0.1,0.3,0.1c0.4,0.1,0.7,0.1,1.1,0
		c1.4-0.3,2.8-0.7,4.2-1.2l5.3-2.2c4.1-1.9,8.5-3.2,12.9-3.8c4.7-0.6,9.4,0.2,13.6,2.2c1.6,0.8,2.3,2.7,1.6,4.4c0,0,0,0,0,0.1
		c-0.6,1.1-1.7,1.8-3,1.8L233.1,556.8z"/>
</g>
<g id="body">
	<path class="st3" d="M265.5,292.6c0-17-4.4-33.8-12.7-48.7c-0.3-0.6-0.7-1.1-1-1.7c-5.2-8.6-11.6-16.5-19-23.2
		c-41.2-37.1-103.7-37.1-144.9,0c-6.8,6.1-12.8,13.2-17.7,21c-0.4,0.7-1,1.5-1.4,2.2c-13.8,23.1-17.5,50.9-10.3,76.8
		c2.1,7.5,5.1,14.7,8.8,21.4l37.3,74.5c36,12,75,12,111,0l36.6-73.1c3.5-6.1,6.4-12.6,8.6-19.3C264,312.8,265.5,302.7,265.5,292.6z"
		/>
	<path class="st4" d="M57.8,271L57.8,271c66.9,12.8,135.7,12.8,202.6,0l0,0"/>
	<path class="st5" d="M220.5,419.7v0.4c0,7.1-5,13.4-12.7,15.3c-31.3,8-64.1,8-95.4,0c-7.7-1.9-12.8-8.5-12.7-15.6
		c0-1.8,0-3.5-0.1-5.1c-0.1-1.4,0.9-2.7,2.3-2.9c0.3,0,0.7,0,1,0.1c12.2,3.6,53.1,12.8,114.6-0.4c1.4-0.3,2.7,0.6,3,1.9
		c0.1,0.3,0.1,0.6,0,0.8C220.6,415.9,220.5,417.9,220.5,419.7z"/>
	<path class="st6" d="M64.4,316.6L64.4,316.6c-0.9,1.5-2.4,2.4-4.2,2.4h-1.7c-7.2-25.9-3.5-53.7,10.3-76.8c0.4-0.7,1-1.5,1.4-2.2
		c0.6,0,1.2,0.1,1.8,0.1l0,0c2.2,0.1,4,1.8,4.3,4l0.7,4C81.3,271.8,76.8,296.1,64.4,316.6z"/>
	<path class="st6" d="M265.5,292.6c0,10.1-1.6,20.2-4.6,29.9c-0.9,0.2-1.8,0.2-2.6,0.3h-0.6c-1.9,0-3.7-1.1-4.4-2.9
		c-9.5-21.8-11.7-46-6.3-69.1l0.7-3.1c0.6-2.3,2.6-3.9,5-3.8C261.1,258.7,265.5,275.5,265.5,292.6z"/>
	<path class="st6" d="M116.2,394.1l-8.1-19.5c-2.9-7-2.8-14.8,0.3-21.7L122,322c1.4-2.6,4.1-4.2,7.1-4.2h62.3c2.9,0,5.6,1.6,7.1,4.2
		l13.6,30.9c3.1,6.9,3.2,14.7,0.3,21.7l-8.1,19.5l0,0c-27.9,8.2-57.5,8.5-85.5,0.8L116.2,394.1z"/>
</g>
<g id="l-arm">
	<path class="st7" d="M35.9,324.7c4.7-0.3,9-2.5,12-6.1c1-1.2,1.2-2.8,0.6-4.2c-1-1.9-3.2-1.7-5-1.1c-4.5,1.7-7.9,5.6-8.9,10.3l0,0
		C34.7,324.2,35.3,324.6,35.9,324.7z"/>
	<path class="st7" d="M35.9,329c-2.3,1.9-3.5,4.9-3.2,7.9c0.2,1.1,1.1,1.9,2.2,2.1c1.4,0.3,2.8-0.4,3.5-1.7c1.7-2.7,1.2-6.3-1.1-8.5
		l0,0C36.8,328.7,36.3,328.7,35.9,329z"/>
	<path class="st7" d="M40.1,358.2c-1,0.8-1.5,2.1-1.4,3.3c0.1,0.8,0.6,1.8,1.4,1.9c1.1,0.3,2.1-0.7,2.5-1.8c0.3-0.7,0.4-1.4,0.4-2.1
		c-0.1-0.7-0.5-1.4-1.1-1.8c-0.7-0.3-1.5-0.1-1.9,0.6"/>
	<path class="st7" d="M34.9,348.9c-0.5,1.4-0.6,2.9-0.3,4.3c0.2,0.6,0.7,1.2,1.2,1.5c2.2,1.3,4.2-1.5,3.8-3.8
		c-0.5-1.6-1.6-3-3.1-3.9c-0.3-0.2-0.8-0.2-1.1,0.2c0,0,0,0.1-0.1,0.1l0,0C35.4,347.9,35.2,348.4,34.9,348.9z"/>
	<path class="st0" d="M71.4,245c-38-3.3-85.9,40.2-67.2,96.9c5.6,16.8,24.2,33,17.2,52.7c-0.7,1.9,0.8,4.2,2.6,3.6
		c21.4-7.2,22.4-29.9,13.5-50.1c-7.1-20.5,4.7-32.4,22.4-32.3l0,0c12.1-20.1,16.4-43.9,12.2-67L71.4,245z"/>
	<path class="st7" d="M35.5,356c-0.1-0.7-0.7-1.2-1.5-1.1c-0.5,0.1-0.9,0.4-1,0.8c-0.4,1.3-0.6,2.6-0.4,3.9c0.1,1.4,0.8,2.9,2.1,3.3
		s2.9-0.7,2.6-2.1C36.6,359.3,36,357.6,35.5,356z"/>
	<path class="st7" d="M33.7,344c-0.1-1.4-2.4-2.2-3.3-1.1c-0.8,1-1.2,2.3-1.2,3.6c-0.1,1.6,0.7,3.2,2.1,4c1.5,1,4,0.4,3.9-1.1
		C34.7,347.6,34.1,345.8,33.7,344L33.7,344z"/>
	<path class="st7" d="M31.9,335.5c0.4-0.5-0.1-2-1-2c-0.7,0-1.4,0.4-1.8,1c-0.7,0.6-0.9,1.6-0.6,2.5c0.3,1.1,1.5,2,2,1.2
		C31,337.4,31.4,336.5,31.9,335.5L31.9,335.5z"/>
	<path class="st7" d="M34.7,326.4c0.4-0.8,0.1-1.7-0.7-2.1c-0.1-0.1-0.3-0.1-0.4-0.1c-0.8,0.1-1.5,0.5-2.1,1.1
		c-0.8,0.7-1.1,1.9-0.7,2.9c0.4,1.2,1.8,2.2,2.2,1.4C33.5,328.4,34.1,327.5,34.7,326.4z"/>
	<path class="st7" d="M37.9,369.6c0.8-0.8,0.1-2.9-1.1-2.9c-1.1,0.1-2.2,0.5-3.1,1.2c-1.1,0.9-1.7,2.3-1.4,3.8
		c0.3,1.7,2.1,2.9,2.8,2C36.1,372.2,37.1,371,37.9,369.6L37.9,369.6z"/>
	<path class="st7" d="M38.6,383.9c-1.8,1.4-3.4,3.2-4.6,5.1c-0.5,1-0.8,2.1-0.8,3.2c0.1,3.6,4.3,1.8,6.3-1.4c1.4-2.3,2.1-5,2.1-7.6
		c0-0.7-0.4-1-1-0.7l0,0C39.8,382.9,39.1,383.4,38.6,383.9z"/>
	<path class="st7" d="M33.1,379.3c-1.2,0.1-2.3,0.9-2.8,2.1c-0.4,0.8-0.4,1.8,0.1,2.5c0.7,0.8,2.1,0.5,3.1-0.1
		c0.6-0.4,1.1-1,1.4-1.7c0.3-0.7,0.3-1.5-0.1-2.1c-0.4-0.5-1.2-1-1.8-0.5"/>
	<ellipse class="st7" cx="38.7" cy="378.1" rx="1.1" ry="1.2"/>
	<path class="st7" d="M40.9,373.6c-0.1,0.7,0.3,1.4,1.1,1.5c0.4,0.1,0.7,0,1-0.3c0.8-0.8,1.3-1.8,1.7-2.9c0.5-1.2,0.2-2.6-0.5-3.6
		c-1-1-2.8-0.7-2.9,0.6C41.1,370.5,40.9,372.1,40.9,373.6L40.9,373.6z"/>
</g>
<g id="head">
	<path class="st8" d="M244.2,205.3H76.1V84.1C76.1,37.7,113.8,0,160.2,0l0,0c46.5,0,84.1,37.7,84.1,84.1L244.2,205.3L244.2,205.3z"
		/>
	<path class="st5" d="M190.6,197.6c-9.5-0.4-19.6-0.6-30.3-0.6s-20.9,0.3-30.3,0.6c-31.4,1.2-53.8,4.6-53.8,8.4s22.3,7,53.8,8.4
		c9.5,0.4,19.6,0.6,30.3,0.6s20.9-0.3,30.3-0.6c31.4-1.2,53.7-4.6,53.7-8.4S222,199,190.6,197.6z M187.6,210.1
		c-8.5,0.1-17.8,0.3-27.5,0.3s-18.9-0.1-27.5-0.3c-25.9-0.7-44.9-2.2-48.3-4c-0.3-0.1-0.6-0.4-0.6-0.6c0-2.1,20.2-3.9,48.8-4.7
		c8.5-0.1,17.8-0.3,27.5-0.3s18.9,0.1,27.5,0.3c28.5,0.7,48.7,2.5,48.7,4.7c0,0.1-0.1,0.4-0.6,0.6
		C232.7,207.9,213.6,209.4,187.6,210.1L187.6,210.1z"/>
	<path class="st9" d="M236.4,205.4c0,2.1-20.2,3.9-48.7,4.7c-8.5,0.1-17.8,0.3-27.5,0.3s-18.9-0.1-27.5-0.3
		c-28.5-0.7-48.8-2.5-48.8-4.7s20.2-3.9,48.8-4.7c8.5-0.1,17.8-0.3,27.5-0.3s18.9,0.1,27.5,0.3C216.1,201.5,236.4,203.3,236.4,205.4
		z"/>
	<path class="st0" d="M228.5,204.9L228.5,204.9c-10.7-18.9-21.8-39.2-20.9-61c0.4-10.1,3.5-19.9,4.6-29.9s0-21-6.7-28.7
		c-5-5.7-12.5-8.8-17.5-14.6c-6.3-7.2-7.4-17.2-11.4-25.9c-1.4-3-3.3-5.6-5.6-7.9c-6-6-15.7-6-21.7,0c-2.4,2.2-4.3,4.9-5.6,7.9
		c-3.9,8.6-5.1,18.8-11.4,25.9c-5,5.8-12.5,8.9-17.5,14.6c-6.7,7.7-7.8,18.6-6.7,28.7s4.2,19.9,4.6,29.9c1,21.8-10.2,42.1-20.9,61
		h-0.1c-3.9,6.8-2.9,10.7-2.9,10.7h142.5C231.3,215.6,232.3,211.7,228.5,204.9z"/>
	<path class="st10" d="M148,125.9c0,6.8-3.2,12.4-6.9,12.4s-7-5.6-7-12.4c0-0.9,0-1.8,0.1-2.6c0.7-5.6,3.5-9.7,6.8-9.7
		C144.8,113.5,148,119,148,125.9z"/>
	<ellipse class="st11" cx="143.1" cy="123.9" rx="3.9" ry="6.9"/>
	<path class="st12" d="M149,125.9c0,0-10.3-12.9-15.7-3.1c0.8-6.4,4-11.3,7.8-11.3C145.4,111.5,149,117.9,149,125.9z"/>
	<path class="st11" d="M149,125.9c-1.2-1.1-2.4-2-3.8-2.9c-1.3-0.9-2.6-1.6-4-2.2c-1.3-0.6-2.8-0.7-4.2-0.3
		c-1.3,0.6-2.5,1.5-3.2,2.8l-0.3,0.4h-0.4c-1.5-0.2-2.7-1.1-3.5-2.4c-0.3-0.6-0.4-1.3-0.4-2c0-0.7,0.2-1.4,0.6-1.9
		c-0.3,1.2,0,2.5,0.7,3.5c0.7,0.9,1.8,1.4,2.9,1.4l-0.6,0.3c0.8-1.5,2.1-2.8,3.7-3.5c1.7-0.5,3.5-0.4,5.1,0.3
		c1.5,0.7,2.9,1.7,4.2,2.8C147.1,123.2,148.1,124.5,149,125.9z"/>
	<path class="st11" d="M133.8,121.8c-1-0.7-1.6-1.7-1.8-2.9c-0.1-1.1,0.3-2.2,1.1-2.9c-0.5,0.8-0.7,1.8-0.6,2.8
		c0.3,0.8,0.9,1.5,1.7,1.9c0.3,0.1,0.6,0.6,0.4,0.8S134.1,122.1,133.8,121.8C133.9,122,133.8,122,133.8,121.8L133.8,121.8z"/>
	<path class="st13" d="M154.8,121.3c-0.8-2.1-1.8-4.2-2.8-6.3c-1-2-2.3-3.8-3.6-5.6c-1.3-1.7-2.8-3.3-4.3-4.9
		c-1.6-1.5-3.3-2.9-5.1-4c-1.8-1.2-3.7-2.2-5.7-2.9c-1.9-0.8-4-1.2-6.1-1.1c-2-0.1-4,0.7-5.4,2.1c-1.4,1.7-2,3.9-1.7,6.1
		c-1-2.3-0.8-4.9,0.4-7c1.5-2.1,3.8-3.4,6.4-3.6c2.4-0.2,4.9,0.1,7.2,0.8c2.3,0.7,4.4,1.8,6.4,3.1c4,2.6,7.3,6.1,9.7,10.2
		c1.2,2,2.2,4.1,2.9,6.4C154.1,116.7,154.7,118.9,154.8,121.3z"/>
	<path class="st10" d="M172.3,125.9c0,6.8,3.2,12.4,6.9,12.4c3.9,0,7-5.6,7-12.4c0-0.9,0-1.8-0.1-2.6c-0.7-5.6-3.5-9.7-6.8-9.7
		C175.5,113.5,172.3,119,172.3,125.9z"/>
	<ellipse class="st11" cx="177.2" cy="123.9" rx="3.9" ry="6.9"/>
	<path class="st12" d="M171.4,125.9c0,0,10.3-12.9,15.7-3.1c-0.8-6.4-4-11.3-7.8-11.3C175,111.5,171.4,117.9,171.4,125.9z"/>
	<path class="st11" d="M171.4,125.9c0.8-1.4,1.9-2.6,3.2-3.6c1.2-1.2,2.6-2.1,4.2-2.8c1.6-0.8,3.5-0.9,5.1-0.3
		c1.6,0.7,2.9,1.9,3.8,3.5l-0.6-0.3c1.1,0,2.2-0.5,2.9-1.4c0.7-1,1-2.3,0.7-3.5c0.7,1.2,0.7,2.7,0.1,3.9c-0.8,1.2-2,2.1-3.5,2.4
		h-0.4l-0.3-0.4c-0.7-1.2-1.9-2.2-3.2-2.8c-1.4-0.4-2.9-0.3-4.2,0.3c-1.4,0.6-2.8,1.3-4,2.2C173.9,123.8,172.5,124.8,171.4,125.9z"
		/>
	<path class="st11" d="M186,120.7c0.9-0.3,1.5-1,1.7-1.9c0.3-1,0.1-2-0.6-2.8c0.8,0.8,1.2,1.8,1.1,2.9c-0.1,1.2-0.8,2.3-1.8,2.9l0,0
		c-0.3,0.1-0.7,0.1-0.8-0.1C185.4,121.3,185.6,120.9,186,120.7C185.8,120.8,185.8,120.7,186,120.7z"/>
	<path class="st13" d="M165.5,121.3c0.2-2.3,0.7-4.6,1.4-6.8c0.8-2.2,1.7-4.4,2.9-6.4c2.5-4,5.8-7.5,9.7-10.2c2-1.3,4.2-2.3,6.4-3.1
		c2.3-0.8,4.8-1.1,7.2-0.8c2.6,0.2,4.9,1.5,6.4,3.6c1.3,2.1,1.5,4.7,0.4,7c0.3-2.2-0.3-4.4-1.7-6.1c-1.4-1.4-3.4-2.2-5.4-2.1
		c-2.1,0-4.2,0.4-6.1,1.1c-2,0.7-3.9,1.7-5.7,2.9c-1.8,1.2-3.6,2.5-5.1,4c-1.5,1.5-3,3.2-4.3,4.9c-1.2,1.8-2.5,3.6-3.6,5.6
		C167.2,117.1,166.4,119.2,165.5,121.3z"/>
	<path class="st14" d="M185.6,152.4c-1.2,2.1-3,3.9-5.1,5.1c-2.2,1.2-4.6,2-7.1,2.2c-2.5,0.2-4.9,0.2-7.4-0.1
		c-2.2-0.1-4.6-0.3-6.8-0.3s-4.6,0.1-6.8,0.3c-2.4,0.3-4.9,0.4-7.4,0.1c-2.5-0.2-4.9-1-7.1-2.2c-2.2-1.2-4-3-5.1-5.1
		c3.5,3.2,8.1,4.3,12.5,4.3c1.1,0,2.2-0.1,3.3-0.3c1.1-0.1,2.2-0.3,3.5-0.6c2.4-0.4,4.8-0.6,7.2-0.6c2.4,0,4.8,0.2,7.2,0.6
		c1.2,0.1,2.2,0.4,3.5,0.6c1.1,0.2,2.2,0.3,3.3,0.3C177.8,157,182.2,155.5,185.6,152.4z"/>
	<path class="st13" d="M150.8,170.8c1.4,0.4,2.8,0.8,4.2,1c1.4,0.2,2.8,0.3,4.2,0.3c1.3,0,2.7-0.1,4-0.4c1.4-0.3,2.8-0.7,4.2-1.1
		c-1,1.2-2.2,2.2-3.6,2.9c-1.4,0.7-3,1-4.6,1c-1.6,0-3.1-0.3-4.6-0.8C153.1,172.9,151.8,172,150.8,170.8z"/>
	<path class="st13" d="M164.3,79.4c2.2-1,4.9-2.6,6.8-0.7c2.2,2.1,1.5,7.2-0.4,9.9c-3.1,4.2-8.1,4.2-12.4,3.8
		c-2.1-0.1-4.2-0.7-6-1.8c-3.3-2.2-5.8-9.6-1.4-11.8C154.3,76.9,160.1,81.4,164.3,79.4z"/>
	<path class="st13" d="M142.6,65.6c-0.7,1.4-1.7,3.1-0.8,4.4s2.5,0.8,3.9,0.3c1.3-0.5,2.5-1.2,3.6-2.1c1.1-0.9,1.8-2.3,1.8-3.8
		c-0.1-1.5-0.7-2.9-1.8-4C144.1,54.7,144.4,62.2,142.6,65.6z"/>
	<path class="st13" d="M177.5,65.6c0.7,1.4,1.7,3.1,0.8,4.4s-2.5,0.8-3.9,0.3c-1.3-0.5-2.5-1.2-3.6-2.1c-1.1-0.9-1.8-2.3-1.8-3.8
		c0.1-1.5,0.8-2.9,1.8-4C176,54.7,175.8,62.2,177.5,65.6z"/>
	<path class="st13" d="M164.6,61.5c-0.1-2.1,0-4.9-1.8-5.6c-1.7-0.7-3.5,1.2-4.6,2.9c-1.1,1.6-2.1,3.3-2.8,5.2
		c-0.7,1.9-0.6,4,0.3,5.8c1.1,1.6,2.7,2.6,4.6,2.9C169.7,75,164.8,66.9,164.6,61.5z"/>
	<path class="st13" d="M170,48.5c-0.7-0.1-1.4,0.1-2,0.5c-0.6,0.3-1.1,1-1.1,1.7c0.1,0.5,0.2,1,0.4,1.4l1.1,2.2
		c0.3,0.7,1.1,1.1,1.8,0.8c0.1-0.1,0.3-0.1,0.4-0.2c0.8-0.6,1.4-1.6,1.5-2.6c0.3-1.7-1-3.6-2.5-3.5"/>
	<path class="st13" d="M169.1,42.1c-0.3,0-0.7,0-1,0.1c-0.3,0.1-0.6,0.5-0.6,0.8c0,0.3,0.1,0.4,0.3,0.7l0.6,1.1
		c0.2,0.4,0.6,0.5,1,0.4c0,0,0.1,0,0.1-0.1c0.4-0.3,0.7-0.8,0.7-1.4c0.1-0.8-0.4-1.6-1.2-1.8"/>
	<path class="st13" d="M148.1,51.7c0.5,0.6,1.1,1.1,1.9,1.5c0.8,0.3,1.7,0.1,2.4-0.5c0.4-0.5,0.7-1.1,0.8-1.7l1.1-3
		c0.4-1.2-0.1-2.5-1.2-2.5c-1.2-0.1-2.5,0.2-3.5,1c-1.7,1.4-2.5,4.3-1.1,5.6"/>
	<path class="st13" d="M156.8,41.6c0.6,0.9,1.2,1.8,1.8,2.6c0.8,1.5,0.3,3.3,0.3,5.2c0,0.4,0,0.8,0.1,1.1c0.2,0.3,0.5,0.5,0.8,0.6
		c0.4,0,0.7-0.4,0.8-0.8c0.8-1.5,1.7-2.9,2.5-4.5c0.6-1,1-2.1,1.2-3.2c0.3-2-1.5-4.9-3.6-5.3C158.4,36.8,155.8,39.1,156.8,41.6z"/>
	<path class="st9" d="M226.6,210.4l-66.3,2l-71.8-2L76.1,206v29.5l0,0c0,3.8,22.4,7.1,53.8,8.3c9.5,0.3,19.6,0.6,30.3,0.6
		s20.9-0.1,30.3-0.6c31.4-1.2,53.7-4.6,53.7-8.3V206L226.6,210.4z"/>
	<path class="st5" d="M231.4,201.2c0.6,0.8,1,1.8,1.5,2.6c2.2,0.4,3.5,1,3.5,1.5c0,0.1-0.1,0.4-0.6,0.6c-0.5,0.2-1.1,0.4-1.7,0.6
		c-5.8,1.7-23.5,2.9-46.6,3.5c-8.5,0.1-17.8,0.3-27.5,0.3s-18.9-0.1-27.5-0.3c-23.2-0.6-41-1.9-46.7-3.5c-0.5-0.1-1-0.3-1.5-0.6
		c-0.3-0.1-0.6-0.4-0.6-0.6c0-0.6,1.2-1,3.5-1.5c0.6-0.8,1-1.8,1.5-2.6c-8.2,1.4-12.8,3.1-12.8,4.8c0,1.4,3.1,2.8,8.5,3.9
		c9.3,1.9,25.5,3.6,45.3,4.4c9.5,0.4,19.6,0.6,30.3,0.6s20.9-0.3,30.3-0.6c19.6-0.8,35.7-2.4,45.1-4.4c5.6-1.3,8.6-2.5,8.6-3.9
		C244.2,204.3,239.5,202.6,231.4,201.2z"/>
	<path class="st15" d="M232,195.5L232,195.5c0,1.5-1.1,2.9-2.6,3.1c-9,1.5-23.1,2.8-39.4,3.5c-9.6,0.4-19.6,0.6-29.9,0.6
		s-20.3-0.1-29.9-0.6c-18.1-0.7-33.2-2.2-42-3.9v-114c0-19,7.5-37.3,21-50.8c3.8-3.7,7.9-7.1,12.4-10c0.6-0.3,1.3-0.1,1.6,0.5
		c0.2,0.4,0.2,0.9-0.1,1.3l-0.1,0.1c-13.5,13.4-21.1,31.7-21,50.8v114c8.8,1.8,23.9,3.2,42,3.9c9.6,0.4,19.6,0.6,29.9,0.6
		s20.3-0.1,29.9-0.6c9.2-0.4,17.7-1,24.9-1.7c1.8-0.1,3.3,1.2,3.4,3C232,195.4,232,195.4,232,195.5z"/>
	<path class="st16" d="M160.2,2.5c45.1,0,81.6,36.6,81.6,81.6v121.3c-2.6,1.9-18.1,5-51.5,6.4c-9.9,0.4-20,0.6-30.3,0.6
		s-20.3-0.1-30.2-0.6c-33.4-1.4-48.8-4.6-51.4-6.4V84.1C78.6,39.1,115.2,2.6,160.2,2.5 M160.2,0.1L160.2,0.1
		c-46.5,0-84.1,37.7-84.1,84.1v121.8c0,3.8,22.3,7.1,53.8,8.4c9.5,0.4,19.6,0.6,30.3,0.6s20.9-0.3,30.3-0.6
		c31.4-1.3,53.7-4.6,53.7-8.4V84.3c0.1-46.4-37.5-84.1-83.9-84.1C160.3,0.1,160.3,0.1,160.2,0.1L160.2,0.1z"/>
</g>
<g id="r-arm">
	<path class="st7" d="M265.2,211.8c-3.2,3.2-5,7.5-5.1,12c-0.1,1.3,0.8,2.6,2,3c1.9,0.6,3.3-1.1,4.3-2.7c2.3-3.8,2.5-8.6,0.5-12.5
		l0,0C266.3,211.3,265.6,211.4,265.2,211.8z"/>
	<path class="st7" d="M262.7,209.1c0.5-2.9-0.3-5.6-2.3-7.2c-0.9-0.5-2-0.4-2.9,0.2c-1.2,0.7-1.8,2.1-1.6,3.4
		c0.3,2.8,2.6,4.6,5.8,4.6l0,0C262.2,209.9,262.5,209.6,262.7,209.1z"/>
	<path class="st7" d="M242.4,193.7c0.3-1.1-0.1-2.3-0.9-3.1c-0.6-0.5-1.5-0.6-2.2-0.3c-0.9,0.6-1.2,1.8-0.8,2.8
		c0.2,0.6,0.5,1.1,0.9,1.6c0.6,0.4,1.2,0.5,1.9,0.4c0.7-0.3,1.1-0.9,1.1-1.7"/>
	<path class="st7" d="M251.7,196c-0.4-1.2-1.2-2.2-2.3-2.9c-0.6-0.3-1.2-0.3-1.8-0.1c-2.4,0.7-2.1,3.8-0.5,4.9
		c1.4,0.7,3,0.8,4.5,0.3c0.4-0.1,0.7-0.5,0.6-0.9l0,0C251.9,196.9,251.8,196.5,251.7,196z"/>
	<path class="st0" d="M286.4,297.9c-19.4,15.8-26.2,21.1-26.2,21.1c-8.2-10-11.7-54.8-9.3-67.7c1.6-8.5,5-11.9,9.2-19.9
		c6.8-13.3,4.9-26.4-9.9-33.2c-18.4-6.5-31-21.4-19.6-40.6c0.7-1.1,2.1-1.3,3.2-0.6c0.4,0.3,0.7,0.6,0.9,1.1
		c6.5,17.1,29.6,14.5,43.6,21.2c6.7,3.2,12,7.9,17.3,13.1c13.6,13.4,20.3,33.1,18.8,52.2S301.2,285.9,286.4,297.9z"/>
	<path class="st7" d="M232.8,184.6c-0.4-0.9-2.1-0.4-2.2,0.6c-0.1,1,0.1,2.1,0.5,3c0.4,1.1,1.4,1.8,2.5,1.9c1.3-0.1,2.4-1.5,1.8-2.4
		C234.6,186.8,233.7,185.6,232.8,184.6L232.8,184.6z"/>
	<path class="st7" d="M247.1,191.9c0.6,0.4,1.5,0.2,1.9-0.4c0.2-0.3,0.3-0.7,0.1-1.1c-0.4-1.1-1.1-2-2-2.7c-0.9-0.9-2.3-1.1-3.5-0.7
		c-1.2,0.6-1.7,2.4-0.7,3.1C244.4,190.6,245.8,191.2,247.1,191.9z"/>
	<path class="st7" d="M255.5,198.2c0.9,0.8,3-0.2,3.1-1.6c0-1.1-0.5-2.3-1.2-3.1c-1-1.1-2.5-1.5-3.9-1.1c-1.7,0.4-3.2,2.5-2.2,3.4
		C252.6,196.6,254.1,197.3,255.5,198.2L255.5,198.2z"/>
	<path class="st7" d="M261.8,202.2c0,0.6,1.2,1.1,1.9,0.6c0.5-0.5,0.8-1.2,0.7-1.9c0.2-0.8-0.3-1.7-1.1-2c-0.9-0.5-2.3-0.2-2.2,0.6
		C261.3,200.4,261.5,201.3,261.8,202.2L261.8,202.2z"/>
	<path class="st7" d="M265.1,209.9c0,0.8,1.4,1.3,2.1,0.6c0.5-0.6,0.8-1.3,0.9-2.1c0.2-1-0.3-1.9-1.2-2.3c-1-0.5-2.6-0.2-2.4,0.6
		C264.7,207.8,264.9,208.8,265.1,209.9L265.1,209.9z"/>
	<path class="st7" d="M237.4,185c0.1,0.9,0.8,1.5,1.7,1.4c0.3,0,0.6-0.1,0.9-0.3c0.8-0.8,1.3-1.8,1.5-2.9c0.4-1.2-0.1-2.6-1.2-3.3
		c-1.2-0.9-3.2-0.4-3.2,0.7C237.1,182.1,237.2,183.6,237.4,185L237.4,185z"/>
	<path class="st7" d="M228.4,176.5c0.5-2.1,0.6-4.2,0.3-6.4c-0.2-1-0.6-1.8-1.3-2.6c-2.2-2.2-4.2,1.8-3.8,5.2c0.4,2.3,1.4,4.5,3,6.2
		c0.4,0.4,0.9,0.3,1.1-0.2l0,0C228.1,178,228.3,177.3,228.4,176.5z"/>
	<path class="st7" d="M235.1,175.7c0.8-0.9,1.1-2.1,0.8-3.2c-0.1-0.8-0.8-1.4-1.6-1.5c-1-0.1-1.9,1.1-2.1,2.2c-0.2,0.7-0.2,1.3,0,2
		c0.2,0.6,0.7,1.1,1.3,1.2c0.6,0.1,1.5-0.2,1.6-0.9"/>
	
		<ellipse transform="matrix(0.7291 -0.6844 0.6844 0.7291 -60.5942 207.4732)" class="st7" cx="231.8" cy="180.3" rx="1.1" ry="1.1"/>
</g>
</svg>
