<?xml version="1.0" encoding="utf-8"?>
<!-- Generator: Adobe Illustrator 26.0.0, SVG Export Plug-In . SVG Version: 6.00 Build 0)  -->
<svg version="1.1" id="Layer_1" xmlns="http://www.w3.org/2000/svg" xmlns:xlink="http://www.w3.org/1999/xlink" x="0px" y="0px"
	 viewBox="0 0 700 1256.6" style="enable-background:new 0 0 700 1256.6;" xml:space="preserve">
<style type="text/css">
	.st0{fill:#F473C2;}
	.st1{fill:#F4A8D7;}
	.st2{fill:#F486CA;}
	.st3{fill:none;stroke:#66419B;stroke-width:1.017;stroke-linecap:round;stroke-linejoin:round;}
	.st4{fill:#491D87;}
	.st5{fill:#989898;}
	.st6{fill:#66419B;}
	.st7{fill:#C15B9A;}
	.st8{fill:#68DFE7;fill-opacity:0.5;}
	.st9{fill:#808080;}
	.st10{fill:#FFFFFF;}
	.st11{fill:#7A0406;}
	.st12{fill:#CD539D;}
	.st13{fill:#DB67AE;}
	.st14{fill:#A54E83;}
	.st15{fill:#FFFFFF;fill-opacity:0.5;}
	.st16{fill:#4AA6C0;}
</style>
<g>
	<g transform="translate(-29 -112)">
		<g>
			<g>
				<g>
					<g>
						<g>
							<g>
								<path class="st0" d="M382.5,1366.6c-26.8,0-48.4-21.6-48.4-48.6c0,0,0,0,0-0.2v-261.4h96.7V1318
									C430.7,1344.7,409.1,1366.6,382.5,1366.6z"/>
								<path class="st0" d="M184.1,1284.5c10.7,9.8,24,16.6,38.2,18.8c6.5,0.9,13.1,1.1,19.6,0.7c3.3-0.2,6.3-0.9,9.6-1.1
									c2-0.7,3.9-1.3,5.7-2.4c7.2-3.9,14.6-12.7,19.4-23.4c2.6-5.5,4.4-11.2,5.9-17.1c0.7-3.1,1.1-6.3,1.5-9.4
									c0.7-3.3,0.9-6.8,0.9-10.1c0.7-14.4,0.2-28.9-1.5-43.3c-0.2-3.7-0.9-7.7-1.3-11.6l-1.5-12.2c-0.7-4.8-0.9-8.7-1.3-13.1
									l-1.3-12.7c-3.1-34.1-5.7-68-7.9-102.2c-1.7-30.2,21.2-56.2,51.3-58.2c30.1-2,56.1,21.2,58,51.4v6.8
									c-2.2,33.5-4.8,66.9-7.9,100.6l-1.3,12.5c-0.2,3.9-0.9,8.5-0.9,12.2l-0.9,13.1l-0.9,13.8c-1.3,19.5-4.8,38.9-10,57.8
									c-1.5,4.8-3.1,9.8-4.8,14.7c-1.7,4.8-3.9,9.8-6.1,14.7c-4.8,10.1-10.7,19.3-17.7,28c-7,9-15.3,16.8-24.7,23.4
									c-10,7.2-21.4,12.5-33.4,14.9c-6.3,1.3-12.7,1.7-19.2,1.5c-5.2-0.4-10.5-1.1-15.5-2.4c-10.3-2.2-20.1-6.1-29-11.2
									c-8.9-5.2-16.8-12-23.3-20.1c-6.3-7.7-10.9-16.6-13.7-26.3c-1.1-4.4,1.3-8.7,5.7-9.8l0,0
									C179.1,1281.9,182,1282.6,184.1,1284.5z"/>
								<path class="st0" d="M596.8,1304.6c-7,0.7-13.5,3.3-19.2,7.2c-6.1,4.4-12,9.4-17.7,14.7c-7.2,6.6-14.8,12.5-23.1,17.7
									c-5.5,3.3-11.3,5.7-17.7,7.2c-3.5,0.9-7.2,1.3-10.9,1.5c-3.3,0-6.8,0-10-0.2c-12.7-1.3-25.1-5.7-35.8-12.5
									c-10-6.3-19-14-26.6-22.8c-7.6-8.3-14-17.7-19.2-27.8c-5-9.6-8.9-19.7-12.2-30.2c-5.9-19.3-9.6-38.9-10.9-59.1
									c-0.9-9.4-1.5-18.8-1.7-27.8l-0.2-5.7l-0.7-6.3l-1.3-12.7c-3.1-34.1-5.7-68.5-7.9-102.6c-1.7-30.2,21.2-56.2,51.3-58.2
									c30.1-2,56.1,21.2,58,51.4v6.8c-2.2,34.8-4.8,69.3-7.9,104.1l-1.3,13.1l-0.7,6.3l-0.9,7c-1.3,8.3-2.2,16.2-3.1,23.6
									c-1.7,14.4-2,29.1-0.9,43.5c0.7,6.4,1.7,12.9,3.1,19.3c1.5,5.9,3.7,11.6,6.3,17.1c2.6,5,5.9,9.6,9.6,13.8
									c3.1,3.3,6.8,5.9,10.9,7.9c0.9,0.2,2,0.7,2.6,1.3c0.7,0.4,1.1,0.7,1.7,0.7c2.4,0.2,4.8,0,7-0.7c6.1-1.3,13.3-4.6,21.8-7.9
									c8.9-3.9,18.5-6.8,28.1-8.7c5.2-0.9,10.7-1.1,16.1-0.7c5.5,0.4,10.7,2,15.5,4.4c3.9,2,5.5,6.8,3.7,10.7
									c-1.3,2.4-3.7,4.2-6.3,4.6L596.8,1304.6z"/>
								<path class="st1" d="M194.2,1324.6c4.1-3.1,8.5-5.7,13.3-7.7c4.8-2.2,10-3.7,15.3-4.6c10.5-1.7,21.4-1.5,31.9,0.7
									c9.6,2.2,19,4.8,28.1,7.9c4.1,1.5,8.5,2.6,11.8,3.7c3.3,1.1,6.8,1.5,7.6,0.9c2.2-2,4.4-4.2,6.3-6.3c3.7-5,6.5-10.3,8.7-16.2
									c5.2-13.1,7-27.3,7.9-43.5c0.7-16.4,0-32.8-1.7-49c-0.9-8.5-1.7-17.1-2.6-25.8c-0.7-4.8-0.9-9.4-1.3-14l-1.3-13.8
									c-3.1-36.1-5.7-72.4-7.6-108.9c-1.5-27.6,19.6-51.2,47.1-52.7c27.5-1.5,51.1,19.7,52.6,47.3v5.7
									c-2.2,35.9-4.8,71.8-7.6,107.6l-1.3,13.3c-0.2,4.6-0.9,9.2-0.9,13.1c-0.7,9.2-1.3,18.6-1.7,28.2
									c-1.5,19.9-4.6,39.6-9.2,59.1c-4.6,21-12.9,41.1-24.7,59.3c-6.5,10.1-14.6,19.2-24,26.7c-5.7,4.4-11.8,7.9-18.5,10.3
									c-3.7,1.3-7.6,2.2-11.6,2.6c-2,0.2-4.1,0.4-6.1,0.2c-2.2,0.2-4.4,0-6.3-0.7c-6.5-1.1-12.9-3.3-18.5-6.3
									c-4.8-2.4-8.7-4.8-12.7-7.2c-7.6-4.6-14.6-9.2-21.6-12.5c-6.8-3.3-14-5.7-21.6-7c-3.9-0.6-7.6-0.6-11.6-0.2
									c-3.9,0.2-7.9,0.9-11.8,1.7h-0.2c-3.7,0.9-7.6-1.5-8.5-5.2v-0.2C190.5,1329.1,191.6,1326.1,194.2,1324.6
									C194,1324.8,194,1324.8,194.2,1324.6z"/>
								<path class="st2" d="M537.8,1330c-7.2,0-14.2,1.5-20.5,4.6c-6.5,3.5-12.7,7.7-18.3,12.5c-3.1,2.4-6.3,5.2-10.3,8.3
									c-4.4,3.3-8.9,5.9-14,8.3c-3.1,1.3-6.3,2.4-9.6,3.1c-2,0.4-3.9,0.7-5.7,0.7h-5.7c-7-0.7-14-2.6-20.3-5.7
									c-5.5-2.8-10.7-6.6-15.1-10.7c-4.1-3.7-8.1-7.9-11.6-12.2c-6.5-8.3-12-17.1-16.6-26.5c-2.2-4.6-4.1-9.2-6.1-14
									c-0.9-2.4-1.7-4.8-2.4-7l-2.2-7c-2.6-9.4-4.8-18.6-6.8-28c-3.3-18.2-5.7-36.3-6.8-54.7l-0.9-13.3c-0.2-4.6-0.2-7.9-0.9-12.5
									l-2.2-25.6c-2.6-34.1-5.2-67.8-7-101.5c-1.1-25.8,18.8-47.5,44.5-48.6c25.1-1.1,46.5,17.9,48.4,43.1v5.5
									c-1.7,34.3-4.1,68.5-7,102.8l-2.2,25.6c-0.2,4.4-0.9,9.2-1.3,13.1l-1.3,12.3c-1.7,15.8-2.6,31.5-2.4,47
									c0,7.7,0.7,15.3,1.3,22.5l0.7,5.5c0.2,1.7,0.7,3.3,0.9,5.2c0.7,3.3,1.3,7,2.2,10.3c1.7,6.3,4.1,12.7,7,18.6
									c2.2,4.8,5.5,9,9.2,12.7c1.1,1.1,2.4,2,3.7,2.6l0.7,0.2c0.2,0.2,0.4,0.2,0.7,0.2c0.9,0.2,1.5,0.2,2.4,0
									c3.1-0.7,6.1-1.5,9.2-2.6l11.6-4.8c8.9-4.4,18.5-7,28.1-8.3c10.3-1.3,20.5,0.4,29.7,4.8c3.5,1.7,5,5.9,3.5,9.6
									c0,0,0,0,0,0.2c-1.3,2.4-3.7,3.9-6.5,3.9L537.8,1330z"/>
								<path class="st3" d="M155.3,705c146,28,296.1,28,442.1,0"/>
								<path class="st4" d="M608.5,752.1c-0.2-37.2-9.6-73.7-27.7-106.3c-0.7-1.3-1.5-2.4-2.2-3.7c-11.3-18.8-25.3-36.1-41.5-50.8
									c-89.9-81.2-226.3-81.2-316.2,0c-14.8,13.3-27.9,28.9-38.6,45.9c-0.9,1.5-2.2,3.3-3.1,4.8c-30.1,50.5-38.2,111.1-22.5,167.8
									c4.6,16.4,11.1,32.2,19.2,46.8l81.4,163.2c78.6,26.3,163.6,26.3,242.2,0l79.9-159.9c7.6-13.3,14-27.6,18.8-42.2
									C605.3,796.3,608.5,774.4,608.5,752.1z"/>
								<path class="st5" d="M510.4,1030.1v0.9c0,15.5-10.9,29.3-27.7,33.5c-68.3,17.5-139.9,17.5-208.2,0
									c-16.8-4.4-27.9-18.6-27.7-34.1c0-3.9,0-7.7-0.2-11.2c-0.2-3.1,2-5.9,5.2-6.3c0.7,0,1.3,0,2.2,0.2
									c26.6,7.9,115.9,28,250.1-0.9c3.1-0.7,5.9,1.3,6.5,4.2c0.2,0.7,0.2,1.3,0,2C510.6,1022,510.4,1026.2,510.4,1030.1z"/>
								<path class="st6" d="M169.7,804.8c-2,3.3-5.5,5.3-9.2,5h-3.7c-15.7-56.7-7.6-117.5,22.5-168c0.9-1.5,2.2-3.3,3.1-4.8
									c1.3,0,2.6,0.2,3.9,0.2c4.8,0.2,8.7,3.9,9.4,8.7l1.5,8.8C206.6,706.6,196.8,759.7,169.7,804.8z"/>
								<path class="st6" d="M282.8,974.1l-17.7-42.7c-6.3-15.3-6.1-32.4,0.7-47.5l29.7-67.6c3.1-5.7,8.9-9.2,15.5-9.2h135.9
									c6.3,0,12.2,3.5,15.5,9.2L492,884c6.8,15.1,7,32.2,0.7,47.5L475,974.1c-60.9,17.9-125.5,18.6-186.6,1.8L282.8,974.1z"/>
								<path class="st6" d="M588.3,804.8c2,3.3,5.5,5.3,9.2,5.3h3.5c15.7-56.7,7.6-117.5-22.5-168c-0.9-1.5-2.2-3.3-3.1-4.8
									c-1.3,0-2.6,0.2-3.9,0.2c-4.8,0.2-8.7,3.9-9.4,8.8l-1.5,8.7C551.4,706.6,561.2,759.7,588.3,804.8z"/>
								<path class="st7" d="M650.4,822.5c-10.3-0.7-19.6-5.5-26.2-13.3c-2.2-2.6-2.6-6.1-1.3-9.2c2.2-4.4,7-3.7,10.9-2.4
									c9.8,3.7,17.2,12.3,19.4,22.5C653.1,821.2,651.7,822.3,650.4,822.5z"/>
								<path class="st7" d="M650.4,831.9c5,4.2,7.6,10.7,7,17.3c-0.4,2.4-2.4,4.2-4.8,4.6c-3.1,0.7-6.1-0.9-7.6-3.7
									c-3.7-5.9-2.6-13.8,2.4-18.6C648.5,831.3,649.6,831.3,650.4,831.9z"/>
								<path class="st7" d="M641.3,895.8c2.2,1.8,3.3,4.6,3.1,7.2c-0.2,1.8-1.3,3.9-3.1,4.4c-2.4,0.7-4.6-1.5-5.5-3.9
									c-0.7-1.5-0.9-3.1-0.9-4.6c0.2-1.5,1.1-3.1,2.4-3.9c1.5-0.7,3.5-0.2,4.4,1.3"/>
								<path class="st7" d="M652.6,875.2c1.1,3.1,1.3,6.3,0.7,9.4c-0.4,1.3-1.5,2.6-2.6,3.3c-4.8,2.6-9.2-3.3-8.3-8.3
									c1.1-3.5,3.5-6.6,6.8-8.5c0.7-0.4,1.7-0.4,2.4,0.4c0,0,0,0.2,0.2,0.2C651.5,873.3,652,874.4,652.6,875.2z"/>
								<path class="st0" d="M573,648.2c82.9-7.2,187.4,87.9,146.6,212c-12.2,36.8-52.8,72.2-37.5,115.3c1.5,4.4-1.7,9.2-5.7,7.9
									c-46.7-15.7-48.9-65.4-29.5-109.6c15.5-44.6-10.3-70.9-48.9-70.7c-26.4-44-35.8-96-26.6-146.6L573,648.2z"/>
								<path class="st7" d="M639.5,929.5c0.4,1.5-0.7,3.1-2.2,3.5c-0.9,0.2-1.7,0-2.4-0.7c-1.7-1.7-2.8-3.9-3.7-6.3
									c-1.1-2.6-0.4-5.7,1.1-7.9c2.2-2.2,6.1-1.5,6.3,1.3C639.1,922.5,639.5,926.2,639.5,929.5z"/>
								<path class="st7" d="M651.3,890.8c0.2-1.5,1.5-2.6,3.1-2.4c1.1,0.2,2,0.9,2.4,2c0.9,2.8,1.3,5.7,0.9,8.5
									c-0.2,3.1-1.7,6.3-4.6,7.2c-2.8,0.9-6.3-1.5-5.7-4.6C648.9,898,650,894.5,651.3,890.8z"/>
								<path class="st7" d="M655.2,864.7c0.2-3.1,5.2-4.8,7.2-2.4c1.7,2.2,2.6,5,2.6,7.9c0.2,3.5-1.5,7-4.6,8.7
									c-3.3,2.2-8.7,0.9-8.5-2.4C653.1,872.6,654.4,868.7,655.2,864.7z"/>
								<path class="st7" d="M659.2,846.1c-0.9-1.1,0.2-4.2,2.2-4.2c1.5,0,3.1,0.9,3.9,2.2c1.5,1.3,2,3.5,1.3,5.5
									c-0.7,2.4-3.3,4.4-4.4,2.8C661.1,850.3,660.3,848.3,659.2,846.1z"/>
								<path class="st7" d="M653.1,826c-0.9-1.8-0.2-3.7,1.5-4.6c0.2-0.2,0.7-0.2,0.9-0.2c1.7,0.2,3.3,1.1,4.6,2.4
									c1.7,1.5,2.4,4.2,1.5,6.3c-0.9,2.6-3.9,4.8-4.8,3.1C655.5,830.6,654.4,828.4,653.1,826z"/>
								<path class="st7" d="M646.1,920.7c-1.7-1.8-0.2-6.3,2.4-6.3c2.4,0.2,4.8,1.1,6.8,2.6c2.4,2,3.7,5,3.1,8.3
									c-0.7,3.7-4.6,6.3-6.1,4.4C650,926.4,648,923.8,646.1,920.7z"/>
								<path class="st7" d="M644.5,952c3.9,3.1,7.4,7,10,11.2c1.1,2.2,1.7,4.6,1.7,7c-0.2,7.9-9.4,3.9-13.7-3.1
									c-2.8-5-4.6-10.9-4.6-16.6c0-1.5,0.9-2.2,2.2-1.5C641.9,949.8,643.5,950.9,644.5,952z"/>
								<path class="st7" d="M656.5,942c2.6,0.2,5,2,6.1,4.6c1.1,1.7,0.9,3.9-0.2,5.5c-1.5,1.8-4.6,1.3-6.8-0.2
									c-1.3-0.9-2.4-2.2-3.1-3.7c-0.7-1.5-0.7-3.3,0.2-4.6c0.9-1.3,2.6-2.2,3.9-1.3"/>
								<path class="st7" d="M646.7,939.1c0,1.4-1.1,2.6-2.4,2.6s-2.4-1.2-2.4-2.6c0-1.5,1.1-2.6,2.4-2.6S646.7,937.7,646.7,939.1z"
									/>
								<path class="st8" d="M562.1,561.1H195.3V296c0-101.5,82-184,183.5-184c101.5,0,183.5,82.5,183.5,184L562.1,561.1z"/>
								<path class="st5" d="M444.9,544.3c-20.5-0.9-42.8-1.3-66.1-1.3c-23.3,0-45.6,0.7-66.1,1.3c-68.5,2.6-117.4,10.1-117.4,18.2
									c0,8.1,48.4,15.3,117.4,18.4c20.7,0.9,42.8,1.3,66.1,1.3c23.3,0,45.6-0.7,66.1-1.3c68.5-2.6,117.2-10.1,117.2-18.4
									C562.1,554.1,513.4,547.3,444.9,544.3z M438.6,571.6c-18.5,0.2-38.8,0.7-60,0.7c-21.2,0-41.2-0.2-60-0.7
									c-56.5-1.5-98-4.8-105.4-8.7c-0.7-0.2-1.3-0.9-1.3-1.3c0-4.6,44.1-8.5,106.5-10.3c18.5-0.2,38.8-0.7,60-0.7s41.2,0.2,60,0.7
									c62.2,1.5,106.3,5.5,106.3,10.3c0,0.2-0.2,0.9-1.3,1.3C536.8,566.8,495.3,570.1,438.6,571.6z"/>
								<path class="st9" d="M545,561.3c0,4.6-44.1,8.5-106.3,10.3c-18.5,0.2-38.8,0.7-60,0.7s-41.2-0.2-60-0.7
									c-62.2-1.5-106.5-5.5-106.5-10.3c0-4.8,44.1-8.5,106.5-10.3c18.5-0.2,38.8-0.7,60-0.7s41.2,0.2,60,0.7
									C500.8,552.8,545,556.7,545,561.3z"/>
								<path class="st0" d="M527.8,560.2c-23.3-41.3-47.6-85.8-45.6-133.4c0.9-22.1,7.6-43.5,10-65.4c2.4-21.9,0-45.9-14.6-62.8
									c-10.9-12.5-27.3-19.3-38.2-31.9c-13.7-15.7-16.1-37.6-24.9-56.7c-3.1-6.6-7.2-12.5-12.2-17.5c-13.1-13.1-34.3-13.1-47.3,0
									c-5.2,4.8-9.4,10.7-12.2,17.3c-8.5,18.8-11.1,41.1-24.9,56.7c-10.9,12.7-27.3,19.5-38.2,31.9c-14.6,16.8-17,40.7-14.6,62.8
									c2.4,22.1,9.2,43.5,10,65.4c2.2,47.7-22.3,92.1-45.6,133.4h-0.2c-8.5,14.9-6.3,23.4-6.3,23.4h311.2
									C533.9,583.6,535.9,575.1,527.8,560.2z"/>
								<path class="st10" d="M352.2,387.4c0,14.9-7,27.1-15.3,27.1c-8.3,0-15.1-12.2-15.1-27.1c0-2,0-3.9,0.2-5.7
									c1.5-12.3,7.6-21.2,14.8-21.2C345.2,360.3,352.2,372.3,352.2,387.4z"/>
								<path class="st11" d="M350,383c0,8.3-3.8,15.1-8.5,15.1c-4.7,0-8.5-6.8-8.5-15.1c0-8.3,3.8-15.1,8.5-15.1
									C346.2,367.9,350,374.7,350,383z"/>
								<path class="st12" d="M354.1,387.4c0,0-22.5-28.2-34.3-6.8c1.7-14,8.7-24.7,17-24.7C346.3,355.9,354.1,369.9,354.1,387.4z"
									/>
								<path class="st11" d="M354.1,387.4c-2.6-2.4-5.2-4.4-8.3-6.3c-2.8-2-5.7-3.5-8.7-4.8c-2.8-1.3-6.1-1.5-9.2-0.7
									c-2.8,1.3-5.5,3.3-7,6.1l-0.7,0.9h-0.9c-3.3-0.4-5.9-2.4-7.6-5.3c-0.7-1.3-0.9-2.8-0.9-4.4c0-1.5,0.4-3.1,1.3-4.2
									c-0.7,2.6,0,5.5,1.5,7.7c1.5,2,3.9,3.1,6.3,3.1l-1.3,0.7c1.7-3.5,4.6-6.1,8.3-7.7c3.7-1.1,7.6-0.9,11.1,0.7
									c3.3,1.5,6.3,3.7,9.2,6.1C350,381.5,352.2,384.3,354.1,387.4z"/>
								<path class="st11" d="M321.2,378.4c-2.2-1.5-3.5-3.9-3.9-6.3c-0.2-2.4,0.7-4.8,2.4-6.3c-1.1,1.7-1.5,3.9-1.3,6.1
									c0.7,1.8,2,3.3,3.7,4.2c0.7,0.2,1.3,1.3,0.9,1.8S321.8,379.1,321.2,378.4C321.4,378.9,321.2,378.9,321.2,378.4z"/>
								<path class="st13" d="M367,377.3c-1.7-4.6-3.7-9.2-6.1-13.8c-2.2-4.4-4.8-8.3-7.9-12.2c-2.8-3.7-6.1-7.2-9.4-10.7
									c-3.5-3.3-7.2-6.3-11.1-8.7c-3.9-2.6-8.1-4.6-12.4-6.3c-4.1-1.8-8.7-2.6-13.3-2.4c-4.4-0.2-8.7,1.5-11.8,4.6
									c-3.1,3.7-4.4,8.5-3.7,13.3c-2.2-5-1.7-10.7,0.9-15.3c3.3-4.6,8.3-7.4,14-7.9c5.2-0.4,10.7,0.2,15.7,1.8
									c5,1.5,9.6,3.9,14,6.8c8.7,5.7,15.9,13.3,21.2,22.3c2.8,4.4,4.8,9,6.3,14C365.5,367.3,366.6,372.1,367,377.3z"/>
								<path class="st10" d="M405.2,387.4c0,14.9,7,27.1,15.3,27.1c8.3,0,15.1-12.2,15.1-27.1c0-2,0-3.9-0.2-5.7
									c-1.5-12.3-7.6-21.2-14.8-21.2C412.2,360.3,405.2,372.3,405.2,387.4z"/>
								<path class="st11" d="M424.4,383c0,8.3-3.8,15.1-8.5,15.1c-4.7,0-8.5-6.8-8.5-15.1c0-8.3,3.8-15.1,8.5-15.1
									C420.6,367.9,424.4,374.7,424.4,383z"/>
								<path class="st12" d="M403,387.4c0,0,22.5-28.2,34.3-6.8c-1.7-14-8.7-24.7-17-24.7C410.9,355.9,403,369.9,403,387.4z"/>
								<path class="st11" d="M403,387.4c1.7-3.1,4.1-5.7,7-7.9c2.6-2.6,5.7-4.6,9.2-6.1c3.5-1.7,7.6-2,11.1-0.7
									c3.5,1.5,6.3,4.2,8.3,7.7l-1.3-0.7c2.4,0,4.8-1.1,6.5-3.1c1.5-2.2,2.2-5,1.5-7.7c0.7,1.3,1.1,2.8,1.3,4.2
									c0,1.5-0.2,3.1-0.9,4.4c-1.7,2.6-4.4,4.6-7.6,5.3h-0.9l-0.7-0.9c-1.5-2.6-4.1-4.8-7-6.1c-3.1-0.9-6.3-0.7-9.2,0.7
									c-3.1,1.3-6.1,2.8-8.7,4.8C408.7,383,405.6,385,403,387.4z"/>
								<path class="st11" d="M434.9,376c2-0.7,3.3-2.2,3.7-4.2c0.7-2.2,0.2-4.4-1.3-6.1c1.7,1.7,2.6,3.9,2.4,6.3
									c-0.2,2.6-1.7,5-3.9,6.3c-0.7,0.2-1.5,0.2-1.7-0.2C433.5,377.3,434,376.5,434.9,376C434.6,376.3,434.6,376,434.9,376z"/>
								<path class="st13" d="M390.3,377.3c0.4-5,1.5-10.1,3.1-14.9c1.7-4.8,3.9-9.6,6.3-14c5.5-8.8,12.7-16.4,21.2-22.3
									c4.4-2.8,8.9-5,14-6.8c5-1.8,10.5-2.4,15.7-1.8c5.7,0.4,10.7,3.3,14,7.9c2.8,4.6,3.3,10.3,0.9,15.3
									c0.7-4.8-0.7-9.6-3.7-13.3c-3.1-3.1-7.4-4.8-11.8-4.6c-4.6,0-9.2,0.9-13.3,2.4c-4.4,1.5-8.5,3.7-12.4,6.3
									c-3.9,2.6-7.9,5.5-11.1,8.7c-3.3,3.3-6.5,6.8-9.4,10.7c-2.6,3.9-5.5,7.9-7.9,12.2C393.8,368.2,392.1,372.8,390.3,377.3z"/>
								<path class="st14" d="M434,445.4c-2.6,4.6-6.5,8.5-11.1,11.2c-4.8,2.6-10,4.4-15.5,4.8c-5.5,0.4-10.7,0.4-16.1-0.2
									c-4.8-0.2-10-0.7-14.8-0.7c-4.8,0-10,0.2-14.8,0.7c-5.2,0.7-10.7,0.9-16.1,0.2c-5.5-0.4-10.7-2.2-15.5-4.8
									c-4.8-2.6-8.7-6.6-11.1-11.2c7.6,7,17.7,9.4,27.3,9.4c2.4,0,4.8-0.2,7.2-0.7c2.6-0.2,5-0.7,7.6-1.3
									c5.2-0.9,10.5-1.3,15.7-1.3c5.2,0,10.5,0.4,15.7,1.3c2.8,0.2,4.8,0.9,7.6,1.3c2.4,0.4,4.8,0.7,7.2,0.7
									C417.2,455.4,426.8,452.2,434,445.4z"/>
								<path class="st13" d="M358.1,485.6c3.1,0.9,6.1,1.7,9.2,2.2c3.1,0.4,6.1,0.7,9.2,0.7c2.8,0,5.9-0.2,8.7-0.9
									c3.1-0.7,6.1-1.5,9.2-2.4c-2.2,2.6-4.8,4.8-7.9,6.3c-3.1,1.5-6.5,2.2-10,2.2c-3.5,0-6.8-0.7-10-1.8
									C363.1,490.2,360.5,488.3,358.1,485.6z"/>
								<path class="st13" d="M387.5,285.7c4.8-2.2,10.7-5.7,14.8-1.5c4.8,4.6,3.3,15.7-0.9,21.7c-6.8,9.2-17.7,9.2-27.1,8.3
									c-4.6-0.7-9.2-1.3-13.1-3.9c-7.2-4.8-12.7-21-3.1-25.8C365.7,280.2,378.6,290.1,387.5,285.7z"/>
								<path class="st13" d="M340.2,255.5c-1.5,3.1-3.7,6.8-1.7,9.6c2,2.8,5.5,1.8,8.5,0.7c2.8-1.1,5.5-2.6,7.9-4.6
									c2.4-2,3.9-5,3.9-8.3c-0.2-3.3-1.7-6.3-3.9-8.8C343.7,231.7,344.1,248.1,340.2,255.5z"/>
								<path class="st13" d="M416.3,255.5c1.5,3.1,3.7,6.8,1.7,9.6s-5.5,1.8-8.5,0.7c-2.8-1.1-5.5-2.6-7.9-4.6
									c-2.4-2-3.7-5-3.9-8.3c0.2-3.3,1.5-6.3,3.9-8.8C413,231.7,412.8,248.1,416.3,255.5z"/>
								<path class="st13" d="M388.2,246.5c-0.2-4.6,0-10.7-3.9-12.3c-3.9-1.5-7.6,2.6-10,6.3c-2.4,3.5-4.6,7.2-6.1,11.4
									c-1.5,4.2-1.3,8.7,0.7,12.7c2.4,3.5,5.9,5.7,10,6.3C399.3,276.1,388.8,258.3,388.2,246.5z"/>
								<path class="st13" d="M399.9,218.1c-1.5-0.2-3.1,0.2-4.4,0.9c-1.3,0.7-2.4,2.2-2.4,3.7c0.2,1.1,0.4,2.2,0.9,3.1l2.4,4.8
									c0.7,1.5,2.4,2.4,4.1,1.7c0.2-0.2,0.7-0.2,0.9-0.4c1.7-1.3,3.1-3.5,3.3-5.7c0.7-3.7-2.2-7.9-5.5-7.7"/>
								<path class="st13" d="M398.2,204.1c-0.7,0-1.5,0-2.2,0.2c-0.7,0.2-1.1,1.1-1.3,1.8c0,0.7,0.2,0.9,0.7,1.5l1.3,2.4
									c0.4,0.9,1.3,1.1,2.2,0.7c0,0,0.2,0,0.2-0.2c0.9-0.7,1.5-1.8,1.5-3.1c0.2-1.8-0.9-3.5-2.6-3.9"/>
								<path class="st13" d="M352.4,225.1c1.1,1.3,2.4,2.4,3.9,3.3c1.7,0.7,3.9,0.2,5.2-1.1c0.9-1.1,1.5-2.4,1.7-3.7l2.4-6.6
									c0.9-2.6-0.2-5.5-2.8-5.5c-2.6-0.2-5.5,0.4-7.6,2.2c-3.7,3.1-5.5,9.4-2.4,12.3"/>
								<path class="st13" d="M371.1,203c1.3,2,2.6,3.9,3.9,5.7c1.7,3.3,0.7,7.2,0.7,11.4c0,0.9,0,1.7,0.2,2.4
									c0.4,0.7,1.1,1.1,1.7,1.3c0.9,0,1.5-0.9,1.7-1.8c1.7-3.3,3.7-6.3,5.5-9.8c1.3-2.2,2.2-4.6,2.6-7c0.7-4.4-3.3-10.7-7.9-11.6
									C374.9,192.5,369.2,197.5,371.1,203z"/>
								<path class="st9" d="M523.4,572.3l-144.7,4.4l-156.7-4.4l-26.8-9.6v64.5c0,8.3,48.9,15.5,117.4,18.2
									c20.7,0.7,42.8,1.3,66.1,1.3c23.3,0,45.6-0.2,66.1-1.3c68.5-2.6,117.2-10.1,117.2-18.2v-64.5L523.4,572.3z"/>
								<path class="st5" d="M534.1,552.1c1.3,1.8,2.2,3.9,3.3,5.7c4.8,0.9,7.6,2.2,7.6,3.3c0,0.2-0.2,0.9-1.3,1.3
									c-1.1,0.7-2.4,0.9-3.7,1.3c-12.7,3.7-51.3,6.3-101.7,7.7c-18.5,0.2-38.8,0.7-60,0.7s-41.2-0.2-60-0.7
									c-50.6-1.3-89.5-4.2-101.9-7.7c-1.1-0.2-2.2-0.7-3.3-1.3c-0.7-0.2-1.3-0.9-1.3-1.3c0-1.3,2.6-2.2,7.6-3.3
									c1.3-1.7,2.2-3.9,3.3-5.7c-17.9,3.1-27.9,6.8-27.9,10.3c0,3.1,6.8,6.1,18.5,8.5c20.3,4.2,55.4,7.9,98.8,9.6
									c20.7,0.9,42.8,1.3,66.1,1.3s45.6-0.7,66.1-1.3c42.8-1.8,77.9-5.3,98.4-9.6c12.2-2.8,18.8-5.5,18.8-8.5
									C562.1,558.9,551.8,555.2,534.1,552.1z"/>
								<path class="st15" d="M535.4,539.7c0,3.5-2.4,6.3-5.7,6.8c-19.6,3.3-50.4,6.1-86,7.7c-20.9,0.9-42.8,1.3-65.2,1.3
									s-44.3-0.2-65.2-1.3c-39.5-1.5-72.4-4.8-91.6-8.5V296.2c0-41.6,16.4-81.6,45.8-111.1c8.3-8.1,17.2-15.5,27.1-21.9
									c1.1-0.7,2.6-0.4,3.5,0.9c0.7,1.1,0.4,2.4-0.4,3.1l-0.2,0.2c-29.5,29.3-46,69.3-45.8,111.1v249.4c19.2,3.9,52.1,7,91.6,8.5
									c20.9,0.9,42.8,1.3,65.2,1.3c22,0,44.3-0.2,65.2-1.3c20.1-0.9,38.6-2.2,54.3-3.7c3.9-0.2,7.2,2.6,7.6,6.3
									C535.4,539.4,535.4,539.4,535.4,539.7z"/>
								<path class="st16" d="M378.8,117.5c98.4,0,178,80.1,178,178.5v265.3c-5.7,4.2-39.5,10.9-112.4,14
									c-21.6,0.9-43.6,1.3-66.1,1.3s-44.3-0.2-65.9-1.3c-72.9-3.1-106.5-10.1-112.4-14V296C200.3,197.8,280.4,117.5,378.8,117.5
									 M378.8,112.2c-101.5,0-183.5,82.5-183.5,184v266.4c0,8.3,48.4,15.5,117.4,18.4c20.7,0.9,42.8,1.3,66.1,1.3
									c23.3,0,45.6-0.7,66.1-1.3c68.5-2.8,117.2-10.1,117.2-18.4V296.4c0.2-101.5-81.8-184-183.1-184
									C379,112.2,378.8,112.2,378.8,112.2z"/>
								<path class="st7" d="M107.6,822.5c10.3-0.7,19.6-5.5,26.2-13.3c2.2-2.6,2.6-6.1,1.3-9.2c-2.2-4.4-7-3.7-10.9-2.4
									c-9.8,3.7-17.2,12.3-19.4,22.5C104.9,821.2,106.3,822.3,107.6,822.5z"/>
								<path class="st7" d="M107.6,831.9c-5,4.2-7.6,10.7-7,17.3c0.4,2.4,2.4,4.2,4.8,4.6c3.1,0.7,6.1-0.9,7.6-3.7
									c3.7-5.9,2.6-13.8-2.4-18.6C109.5,831.3,108.4,831.3,107.6,831.9z"/>
								<path class="st7" d="M116.7,895.8c-2.2,1.8-3.3,4.6-3.1,7.2c0.2,1.8,1.3,3.9,3.1,4.4c2.4,0.7,4.6-1.5,5.5-3.9
									c0.7-1.5,0.9-3.1,0.9-4.6c-0.2-1.5-1.1-3.1-2.4-3.9c-1.5-0.7-3.3-0.2-4.1,1.3"/>
								<path class="st7" d="M105.4,875.2c-1.1,3.1-1.3,6.3-0.7,9.4c0.4,1.3,1.5,2.6,2.6,3.3c4.8,2.6,9.2-3.3,8.3-8.3
									c-1.1-3.5-3.5-6.6-6.8-8.5c-0.7-0.4-1.7-0.4-2.2,0.4l-0.2,0.2C106.5,873.3,106,874.4,105.4,875.2z"/>
								<path class="st0" d="M185,648.2c-82.9-7.2-187.4,87.9-146.6,212c12.2,36.8,52.8,72.2,37.5,115.3c-1.5,4.4,1.7,9.2,5.7,7.9
									c46.7-15.7,48.9-65.4,29.5-109.6c-15.5-44.6,10.3-70.9,48.9-70.4c26.4-44,35.8-96,26.6-146.6L185,648.2z"/>
								<path class="st7" d="M118.5,929.5c-0.4,1.5,0.7,3.1,2.2,3.5c0.9,0.2,1.7,0,2.4-0.7c1.7-2,3.1-4.2,3.7-6.6
									c1.1-2.6,0.4-5.7-1.1-7.9c-2.2-2.2-6.1-1.5-6.3,1.3C118.9,922.5,118.5,926,118.5,929.5z"/>
								<path class="st7" d="M106.7,890.8c-0.2-1.5-1.5-2.6-3.3-2.4c-1.1,0.2-2,0.9-2.4,1.8c-0.9,2.8-1.3,5.7-0.9,8.5
									c0.2,3.1,1.7,6.3,4.6,7.2c2.8,0.9,6.3-1.5,5.7-4.6C109.1,898,107.8,894.5,106.7,890.8z"/>
								<path class="st7" d="M102.8,864.7c-0.2-3.1-5.2-4.8-7.2-2.4c-1.7,2.2-2.6,5-2.6,7.9c-0.2,3.5,1.5,7,4.6,8.7
									c3.3,2.2,8.7,0.9,8.5-2.4C104.9,872.6,103.6,868.7,102.8,864.7z"/>
								<path class="st7" d="M98.8,846.1c0.9-1.1-0.2-4.2-2.2-4.2c-1.5,0-3.1,0.9-3.9,2.2c-1.5,1.3-2,3.5-1.3,5.5
									c0.7,2.4,3.3,4.4,4.4,2.8C96.9,850.3,97.7,848.3,98.8,846.1z"/>
								<path class="st7" d="M104.9,826c0.9-1.8,0.2-3.7-1.5-4.6c-0.2-0.2-0.7-0.2-0.9-0.2c-1.7,0.2-3.3,1.1-4.6,2.4
									c-1.7,1.5-2.4,4.2-1.5,6.3c0.9,2.6,3.9,4.8,4.8,3.1C102.3,830.6,103.6,828.4,104.9,826z"/>
								<path class="st7" d="M111.9,920.7c1.7-1.8,0.2-6.3-2.4-6.3c-2.4,0.2-4.8,1.1-6.8,2.6c-2.4,2-3.7,5-3.1,8.3
									c0.7,3.7,4.6,6.3,6.1,4.4C108,926.4,110.2,923.8,111.9,920.7z"/>
								<path class="st7" d="M113.5,952c-3.9,3.1-7.4,7-10,11.2c-1.1,2.2-1.7,4.6-1.7,7c0.2,7.9,9.4,3.9,13.7-3.1
									c3.1-5,4.6-10.9,4.6-16.6c0-1.5-0.9-2.2-2.2-1.5C116.1,949.8,114.5,950.9,113.5,952z"/>
								<path class="st7" d="M101.5,942c-2.6,0.2-5,2-6.1,4.6c-1.1,1.7-0.9,3.9,0.2,5.5c1.5,1.8,4.6,1.3,6.8-0.2
									c1.3-0.9,2.4-2.2,3.1-3.7c0.7-1.5,0.7-3.3-0.2-4.6c-0.9-1.3-2.6-2.2-3.9-1.3"/>
								<path class="st7" d="M116.1,939.1c0,1.4-1.1,2.6-2.4,2.6s-2.4-1.2-2.4-2.6c0-1.5,1.1-2.6,2.4-2.6S116.1,937.7,116.1,939.1z"
									/>
							</g>
						</g>
					</g>
				</g>
			</g>
		</g>
	</g>
</g>
</svg>
