<?xml version="1.0" encoding="utf-8"?>
<!-- Generator: Adobe Illustrator 25.2.0, SVG Export Plug-In . SVG Version: 6.00 Build 0)  -->
<svg version="1.1" id="Layer_1" xmlns="http://www.w3.org/2000/svg" xmlns:xlink="http://www.w3.org/1999/xlink" x="0px" y="0px"
	 viewBox="0 0 263.4 579.5" style="enable-background:new 0 0 263.4 579.5;" xml:space="preserve">
<style type="text/css">
	.st0{fill:#C15B9A;}
	.st1{fill:#F473C2;}
	.st2{fill:#F4A8D7;}
	.st3{fill:#F486CA;}
	.st4{fill:#491D87;}
	.st5{fill:none;stroke:#66419B;stroke-width:5.18;stroke-linecap:round;stroke-linejoin:round;}
	.st6{fill:#66419B;}
	.st7{fill:#989898;}
	.st8{opacity:0.5;fill:#68DFE7;enable-background:new    ;}
	.st9{fill:#808080;}
	.st10{fill:#DB67AE;}
	.st11{fill:#FFFFFF;}
	.st12{fill:#7A0406;}
	.st13{fill:#CD539D;}
	.st14{opacity:0.5;fill:#FFFFFF;enable-background:new    ;}
	.st15{fill:#4AA6C0;}
	.st16{fill:#A54E83;}
</style>
<g id="l-arm">
	<path class="st0" d="M32.4,246.8c3.8,0.8,7,3.4,8.5,7c0.6,1.4,0.4,2.9-0.4,4.1c-1.2,1.8-2.9,1.4-4.3,0.7c-3.3-1.9-5.3-6.1-5.2-10.8
		l0,0C31.2,247.2,31.8,246.8,32.4,246.8z"/>
	<path class="st0" d="M32.5,240.6c-1.5-2.4-1.9-5.3-1-8c0.3-1,1.2-1.7,2.2-1.9c1.2-0.2,2.3,0.7,2.5,1.9c0,0,0,0,0,0
		c0.8,3-0.2,6.2-2.6,8.2l0,0C33.3,241,32.8,240.9,32.5,240.6z"/>
	<path class="st0" d="M42.4,214.3c-0.7-1-0.8-2.2-0.5-3.4c0.3-0.8,0.8-1.7,1.5-1.8c1-0.2,1.5,0.9,1.7,2c0.1,0.7,0.1,1.4-0.1,2.1
		c-0.2,0.7-0.7,1.3-1.3,1.7C43.3,215.1,42.6,214.9,42.4,214.3c-0.1,0-0.1,0-0.1-0.1"/>
	<path class="st0" d="M36.4,223c-0.1-1.4,0.1-2.9,0.6-4.2c0.3-0.6,0.7-1.1,1.3-1.4c2-1,3.1,1.8,2.3,4c-0.7,1.5-1.8,2.7-3.2,3.6
		c-0.4,0.2-0.7,0.1-0.8-0.4l0,0C36.6,224,36.5,223.5,36.4,223z"/>
	<path class="st1" d="M68.8,271.6l-23.5,56.2c-31.4,0.1-61.6-46.5-35.1-100.5c7.8-16,26.1-30.3,24.4-50.2c-0.2-2,1.5-4,2.9-3.3
		c15.9,8.8,12.2,31.1,1,50.2c-15.4,27.5,8.4,37.9,8.4,37.9L68.8,271.6z"/>
	<path class="st0" d="M46.2,199.2c0-1.1,1.4-1.9,1.9-1c0.5,0.9,0.7,2,0.8,3c0.1,1.3-0.3,2.5-1.2,3.5c-1,0.9-2.4,0.4-2.2-0.8
		C45.6,202.4,45.9,200.8,46.2,199.2L46.2,199.2z"/>
	<path class="st0" d="M38.3,216.1c-0.5,1.3-1.9,1.3-2.1,0.1c-0.1-1.3,0.1-2.6,0.4-3.9c0.4-1.4,1.2-2.8,2.3-3.1
		c0.9-0.1,1.7,0.5,1.8,1.3c0.1,0.3,0,0.6-0.1,0.9C39.8,212.9,39,214.5,38.3,216.1z"/>
	<path class="st0" d="M34.4,227.7c-0.4,1.4-2.3,2-2.9,0.8c-0.4-1.2-0.5-2.4-0.3-3.6c0.2-1.6,1.1-3,2.5-3.8c1.4-0.8,3.3-0.1,2.9,1.4
		C35.9,224.2,35.1,225.9,34.4,227.7L34.4,227.7z"/>
	<path class="st0" d="M31.3,235.8c0.2,0.6-0.5,1.9-1.2,1.8c-0.6-0.1-1.1-0.5-1.3-1.1c-0.4-0.8-0.4-1.7,0-2.5
		c0.4-1.1,1.6-1.8,1.8-1.1C30.9,233.9,31.1,234.9,31.3,235.8z"/>
	<path class="st0" d="M31.7,245.1c0.3,0.7-0.5,2.2-1.3,2.1c-0.6-0.2-1.2-0.7-1.5-1.3c-0.5-0.9-0.5-2,0-2.9c0.6-1.2,1.9-2,2.1-1.2
		C31.2,242.9,31.5,243.9,31.7,245.1L31.7,245.1z"/>
	<path class="st0" d="M42.9,202.9c0.5,0.9-0.5,2.9-1.5,2.8c-0.9-0.2-1.7-0.7-2.2-1.5c-0.8-1.1-0.9-2.6-0.4-3.8
		c0.6-1.6,2.3-2.7,2.6-1.7C41.9,200.2,42.4,201.5,42.9,202.9L42.9,202.9z"/>
	<path class="st0" d="M46.3,189c-1.2-1.6-2.2-3.5-2.7-5.4c-0.2-1.1-0.2-2.1,0-3.2c0.8-3.5,3.8-1.4,4.8,1.9c0.6,2.5,0.7,5.1,0.2,7.7
		c-0.1,0.7-0.5,0.9-0.9,0.6l0,0C47.1,190.1,46.7,189.6,46.3,189z"/>
	<path class="st0" d="M41,193c-1-0.3-1.8-1.2-1.8-2.3c-0.2-0.9,0-1.8,0.6-2.4c0.7-0.8,1.8-0.4,2.5,0.4c0.4,0.5,0.7,1.1,0.8,1.8
		c0.1,0.7-0.1,1.4-0.5,2c-0.5,0.5-1.2,0.9-1.6,0.4"/>
	
		<ellipse transform="matrix(0.2992 -0.9542 0.9542 0.2992 -154.0575 179.6081)" class="st0" cx="45.2" cy="194.7" rx="1.3" ry="0.9"/>
</g>
<g id="legs">
	<path class="st1" d="M138.1,575L138.1,575c-12.2-2-22.3-13.6-22.3-26V429.4l44.4,7.4v119.6C160.2,568.7,150.4,577,138.1,575z"/>
	<path class="st1" d="M54.8,540.7c4.9,5,10,7.7,15.3,8.6c2.6,0.4,5.3,0.5,7.9,0.3c1.3-0.1,2.6-0.4,3.9-0.5c0.8-0.3,1.6-0.6,2.3-1.1
		c2.9-1.8,5.8-5.8,7.8-10.7c1-2.5,1.8-5.1,2.3-7.8c0.3-1.4,0.5-2.9,0.6-4.3c0.2-1.5,0.4-3.1,0.4-4.6c0.3-6.6,0.1-13.2-0.6-19.8
		c-0.1-1.7-0.4-3.5-0.5-5.3l-0.6-5.6c-0.2-2.2-0.4-4-0.5-6l-0.5-5.8c-1.2-15.6-2.3-31.2-3.2-46.8l0,0c-0.7-13.8,8.6-25.7,20.6-26.6
		s22.5,9.7,23.2,23.5v3.1c-0.9,15.3-1.9,30.6-3.2,46l-0.5,5.7c-0.1,1.8-0.4,3.9-0.4,5.6l-0.4,6c-0.1,2.1-0.2,4.2-0.4,6.3
		c-0.5,8.9-1.9,17.8-4,26.4c-0.6,2.2-1.2,4.5-1.9,6.7s-1.6,4.5-2.4,6.7c-1.9,4.5-4.2,8.8-7,12.8c-2.8,4-6.1,7.6-9.8,10.7
		c-3.9,3.3-8.5,5.6-13.4,6.8c-2.5,0.6-5.1,0.8-7.7,0.7c-2.1-0.2-4.1-0.5-6.2-1.1c-4.1-1.1-8.1-2.8-11.7-5.1
		c-3.7-2.4-6.8-5.6-9.3-9.2c-2.5-3.6-4.4-7.7-5.5-12c-0.5-1.9,0.5-3.9,2.3-4.6C52.9,539.5,54.1,539.9,54.8,540.7L54.8,540.7z"/>
	<path class="st1" d="M246,549.7c-3.4,0.4-6.7,1.5-9.6,3.4c-3.1,2.1-6,4.4-8.8,6.9c-3.6,3.1-7.5,5.9-11.6,8.3
		c-2.8,1.5-5.8,2.7-8.8,3.4c-1.8,0.4-3.6,0.6-5.5,0.7c-1.7,0-3.4,0-5-0.1c-6.4-0.6-12.5-2.6-18-5.9c-5-2.9-9.5-6.5-13.4-10.7
		c-3.8-3.9-7-8.3-9.6-13c-2.5-4.5-4.5-9.3-6.1-14.2c-2.9-9-4.8-18.3-5.5-27.8c-0.5-4.4-0.8-8.9-0.9-13L143,485l-0.3-3l-0.6-6
		c-1.5-16-2.9-32.2-4-48.2c-0.9-14.2,10.5-26.5,25.7-27.4s28.2,9.9,29.1,24.2v3.1c-1.1,16.3-2.4,32.6-4,49l-0.6,6.1l-0.3,3l-0.4,3.3
		c-0.6,3.9-1.1,7.6-1.5,11.2c-0.8,6.8-1,13.6-0.5,20.5c0.3,3,0.8,6,1.5,9c0.8,2.8,1.8,5.5,3.2,8c1.3,2.4,2.9,4.5,4.9,6.4
		c1.6,1.6,3.4,2.8,5.5,3.7c0.5,0.1,0.9,0.3,1.4,0.6c0.3,0.2,0.6,0.3,0.9,0.3c1.2,0.1,2.4,0,3.5-0.3c3.1-0.6,6.7-2.2,11-3.7
		c4.6-1.9,9.3-3.3,14.2-4.2c2.7-0.5,5.4-0.5,8.1-0.3c2.7,0.2,5.3,0.9,7.8,2c1.9,0.8,2.7,3,1.9,4.8c0,0.1-0.1,0.1-0.1,0.2
		c-0.7,1.2-1.8,2-3.2,2.2L246,549.7z"/>
	<path class="st2" d="M58.8,559.1c1.6-1.4,3.4-2.6,5.4-3.5c1.9-1,4-1.7,6.1-2.1c4.2-0.8,8.6-0.7,12.8,0.3c3.8,1,7.6,2.2,11.3,3.6
		c1.7,0.7,3.4,1.2,4.7,1.7s2.7,0.7,3,0.4c0.9-0.9,1.8-1.9,2.6-2.9c1.5-2.3,2.7-4.8,3.5-7.4c2.1-6,2.8-12.5,3.2-19.9
		c0.2-7.5,0-14.9-0.7-22.4c-0.4-3.9-0.7-7.8-1.1-11.8c-0.2-2.2-0.4-4.3-0.5-6.4l-0.5-6.3c-1.2-16.5-2.3-33.1-3-49.8l0,0
		c-0.6-12.7,7.8-23.4,18.8-24.1s20.4,8.9,21,21.5v2.6c-0.9,16.4-2,32.8-3,49.2l-0.5,6.1c-0.1,2.1-0.4,4.2-0.4,6
		c-0.2,4.2-0.5,8.5-0.7,12.9c-0.6,9.1-1.8,18.1-3.6,27c-1.8,9-4.9,18.6-9.8,27.1c-2.6,4.5-5.8,8.7-9.6,12.2c-2.2,2-4.7,3.6-7.4,4.7
		c-1.5,0.6-3,1-4.6,1.2c-0.8,0.1-1.6,0.2-2.4,0.1c-0.9,0.1-1.7,0-2.6-0.3c-2.6-0.5-5.2-1.5-7.4-2.9c-2-1.1-3.5-2.2-5.1-3.3
		c-3-2.1-5.8-4.2-8.6-5.7c-2.7-1.5-5.6-2.6-8.6-3.2c-1.5-0.3-3.1-0.3-4.6-0.1c-1.6,0.1-3.2,0.4-4.7,0.8h-0.1c-1.6,0.4-3-0.7-3.4-2.5
		C57.4,561.2,57.8,559.8,58.8,559.1z"/>
	<path class="st3" d="M216.4,561.7c-3.6-0.1-7.1,0.7-10.4,2.2c-3.2,1.6-6.3,3.6-9.1,5.9c-1.5,1.1-3.2,2.4-5.2,3.9
		c-2.2,1.5-4.5,2.8-7,3.9c-1.6,0.7-3.2,1.1-4.9,1.4c-1,0.2-1.9,0.3-2.9,0.3h-2.9c-3.5-0.3-7-1.2-10.2-2.7c-2.7-1.3-5.3-3-7.6-5
		c-2.1-1.8-4-3.7-5.8-5.7c-3.2-3.8-6-8-8.4-12.5c-1.1-2.2-2.1-4.3-3.1-6.6c-0.5-1.2-0.9-2.3-1.2-3.3l-1.1-3.3
		c-1.4-4.4-2.4-8.7-3.4-13.2c-1.7-8.5-2.8-17.1-3.4-25.8l-0.4-6.3c-0.2-2.1-0.2-3.7-0.5-5.9l-1.1-12c-1.4-16-2.6-31.9-3.5-47.8
		c-0.7-12.2,9.2-22.5,22-23.2s23.9,8.6,24.7,20.6v2.6l0,0c-0.9,16.2-2.1,32.2-3.5,48.4l-1.1,12c-0.1,2-0.4,4.3-0.6,6.2l-0.6,5.7
		c-0.9,7.4-1.3,14.8-1.2,22.2c0,3.6,0.3,7.2,0.6,10.6l0.3,2.6c0.1,0.9,0.3,1.6,0.5,2.4c0.3,1.6,0.6,3.3,1.1,4.9
		c0.9,3,2.1,5.9,3.5,8.7c1.2,2.3,2.7,4.3,4.6,6c0.6,0.5,1.2,0.9,1.8,1.3l0.3,0.2c0.1,0.1,0.2,0.1,0.3,0.1c0.4,0.1,0.8,0.1,1.2,0
		c1.6-0.3,3.1-0.7,4.6-1.3l5.8-2.3c4.5-2,9.3-3.3,14.2-3.9c5.1-0.6,10.2,0.2,14.9,2.3c1.7,0.7,2.5,2.6,1.8,4.3
		c0,0.1-0.1,0.2-0.1,0.3c-0.7,1.2-2,1.9-3.4,1.9H216.4z"/>
</g>
<g id="body">
	<path class="st4" d="M244.9,292.9c0-17-4.4-33.8-12.6-48.7c-0.3-0.6-0.7-1.1-1-1.7c-5.2-8.6-11.6-16.5-19.1-23.2
		c-41.2-37.1-103.7-37.1-144.9,0c-6.8,6.1-12.8,13.2-17.7,21c-0.4,0.7-1,1.5-1.4,2.2c-13.8,23.1-17.5,50.8-10.3,76.8
		c2.1,7.5,5.1,14.7,8.8,21.4l37.3,74.5c36,12,75,12,111,0l36.6-73.1c3.5-6.1,6.4-12.6,8.6-19.3C243.4,313.1,244.9,303,244.9,292.9z"
		/>
	<path class="st5" d="M38.4,271.3L38.4,271.3c66.9,12.8,135.7,12.8,202.6,0l0,0"/>
	<path class="st6" d="M69.8,389.1l-8.7-22c-2.9-7-2.8-13.2,0.3-20.2L75,321c1.4-2.6,4.1-4.2,7.1-4.2l21.6,1.4h31.8
		c2.9,0,5.6,1.6,7.1,4.2l13.6,30.9c3.1,6.9,3.2,14.7,0.3,21.7l-6.3,15.2l-3.9,9c-16.7,2.8-28,1.6-43.2,0.2
		c-13.8-1.3-21.7-3-26.1-4.3C73.9,394.1,71.3,392,69.8,389.1z"/>
	<path class="st7" d="M199.9,420v0.4c0,7.1-5,13.4-12.6,15.3c-31.3,8-64.1,8-95.4,0c-7.7-2-12.8-8.5-12.7-15.6c0-1.8,0-3.5-0.1-5.1
		c-0.1-1.4,0.9-2.7,2.4-2.9c0.3,0,0.7,0,1,0.1c12.2,3.6,53.1,12.8,114.6-0.4c1.4-0.3,2.7,0.6,3,1.9c0.1,0.3,0.1,0.6,0,0.9
		C200,416.2,199.9,418.2,199.9,420z"/>
	<path class="st6" d="M222.9,247.8c2.5,1.5,4.9,3.2,7.2,5.1c0.5,0.4,1.1,0.8,1.5,1.3l1.4,1.3c1,0.9,1.8,1.7,2.6,2.5
		c3,3,5.7,6.4,7.9,10.1c3.7,6.1,5.9,13.1,6.2,20.2c0.3,7.1-1.5,14.1-5.2,20.2c-2.2,3.7-4.9,7.1-8,10.1c-0.9,0.8-1.8,1.7-2.7,2.5
		l-1.5,1.3c-0.5,0.4-1,0.8-1.6,1.3s-1.1,0.8-1.7,1.3l-1.8,1.3l-2,1.3l-1,0.6l-1.2,0.6c-1.9,1-4.2,1-6.2,0l-1.1-0.6l-1-0.6l-2-1.3
		l-1.8-1.3c-0.6-0.4-1.1-0.8-1.7-1.3s-1.1-0.8-1.6-1.3l-1.5-1.3c-0.9-0.8-1.9-1.7-2.7-2.5c-3.1-3-5.8-6.4-8-10.1
		c-3.7-6.1-5.5-13.1-5.2-20.2c0.3-7.2,2.5-14.1,6.2-20.2c2.2-3.6,4.8-7,7.7-10c0.9-0.8,1.6-1.7,2.6-2.5l1.4-1.3
		c0.5-0.4,1-0.8,1.5-1.3c2.3-1.9,4.7-3.6,7.2-5.1C218.7,246.8,221,246.8,222.9,247.8z"/>
</g>
<g id="head">
	<path class="st8" d="M223.7,205.3H55.5V84.1C55.5,37.7,93.2,0,139.7,0l0,0c46.5,0,84.1,37.7,84.1,84.1L223.7,205.3L223.7,205.3z"/>
	<path class="st7" d="M170,197.6c-9.4-0.4-19.6-0.6-30.3-0.6s-20.9,0.3-30.3,0.6c-31.4,1.2-53.8,4.6-53.8,8.3s22.2,7,53.8,8.4
		c9.5,0.4,19.6,0.6,30.3,0.6s20.9-0.3,30.3-0.6c31.4-1.2,53.7-4.6,53.7-8.4S201.4,199,170,197.6z M167.1,210.1
		c-8.5,0.1-17.8,0.3-27.5,0.3s-18.9-0.1-27.5-0.3c-25.9-0.7-44.9-2.2-48.2-4c-0.3-0.1-0.6-0.4-0.6-0.6c0-2.1,20.2-3.9,48.8-4.7
		c8.5-0.1,17.8-0.3,27.5-0.3s18.9,0.1,27.5,0.3c28.5,0.7,48.7,2.5,48.7,4.7c0,0.1-0.1,0.4-0.6,0.6
		C212.1,207.9,193.1,209.4,167.1,210.1L167.1,210.1z"/>
	<path class="st7" d="M223.7,206c0,3.8-22.3,7.1-53.7,8.4c-9.4,0.4-19.6,0.6-30.3,0.6s-20.9-0.3-30.3-0.6
		c-31.4-1.2-53.8-4.6-53.8-8.4s22.2-7.1,53.8-8.3c9.5-0.4,19.6-0.6,30.3-0.6s20.9,0.3,30.3,0.6C201.4,199,223.7,202.2,223.7,206z"/>
	<path class="st9" d="M215.9,205.4c0,2.1-20.2,3.9-48.7,4.7c-8.5,0.1-17.8,0.3-27.5,0.3s-18.9-0.1-27.5-0.3
		c-28.5-0.7-48.8-2.5-48.8-4.7s20.2-3.9,48.8-4.7c8.5-0.1,17.8-0.3,27.5-0.3s18.9,0.1,27.5,0.3C195.6,201.5,215.9,203.3,215.9,205.4
		z"/>
	<path class="st10" d="M109.8,124.5c0.2,6.8-2.2,12.6-5.5,12.7s-6-5.4-6.2-12.3c-0.1-0.9-0.1-1.8,0-2.7c0.4-5.6,2.6-9.9,5.4-10
		C106.8,112.1,109.6,117.7,109.8,124.5z"/>
	<path class="st1" d="M210.9,222.5l-47.9-2.3l-95.6-2.6c0,0-1-3.9,2.9-10.6l0,0c0.3-0.6,0.6-1.2,1-1.9h0.1l0.3-0.5
		c10.7-18.2,21.6-37.9,20.6-59.5c-0.4-10-3.5-20.1-4.6-30.1s0-21,6.7-28.3c0.1-0.1,0.2-0.2,0.2-0.2s0,0,0,0
		c3.3-3.5,7.6-5.8,11.5-8.6c2.1-1.4,4-3,5.7-4.9c6.3-6.8,7.5-16.9,11.4-25.3c0.6-1.4,1.4-2.7,2.3-4c1-1.3,2.1-2.6,3.3-3.7
		c1.5-1.4,3.3-2.5,5.2-3.2c1-0.2,2-0.3,3-0.4l0,0c1.7-0.1,3.4-0.1,5-0.1c20.1,0.1,29.1,7.1,36.4,18.1c0.9,1.3,0.6,3-0.6,4
		c-0.6,0.4-1.3,0.6-2.1,0.5c-0.8-0.2-1.6-0.4-2.3-0.7c-2.4-1-4.6-2.4-7-3.3h-0.1h-0.1c-2.6-0.7-5.2,0.7-6,3.3
		c-0.3,0.9-0.2,1.9,0.1,2.9c1.7,5.2,3.6,10.4,7.2,14.7c5,6,12.5,9.4,17.5,15.3c6.7,8,7.8,19,6.7,29s-4.2,19.5-4.6,29.7
		c-1,21.8,10.2,42.6,20.9,62.1C211.7,218.6,210.7,222.5,210.9,222.5z"/>
	<path class="st10" d="M126.4,78.5c2-0.7,4.4-2,5.8,0.3c1.6,2.4,0.5,7.4-1.4,9.8c-3,3.7-7.3,3-10.9,2c-1.8-0.4-3.5-1.3-4.9-2.6
		c-2.6-2.7-3.9-10.3,0.1-11.9C118.2,74.6,122.7,79.9,126.4,78.5z"/>
	<path class="st10" d="M139.1,66.7c0.4,1.5,1.1,3.3,0.2,4.5s-2.2,0.5-3.3-0.3c-1.1-0.7-2-1.6-2.8-2.6c-0.9-1.2-1.2-2.6-1.1-4
		c0.2-1.4,0.9-2.8,2-3.8C138.9,55.5,138,63,139.1,66.7z"/>
	<path class="st10" d="M128.6,60.7c0.1-2.1,0.5-4.8-0.9-5.8s-3.1,0.8-4.2,2.3c-1.1,1.5-2.1,3.1-2.9,4.7c-0.8,1.9-0.9,3.9-0.4,5.9
		c0.7,1.6,1.9,2.9,3.6,3.5C131.5,74.9,128.2,66.2,128.6,60.7z"/>
	<path class="st10" d="M134.5,48.6c-0.6-0.2-1.2-0.1-1.7,0.1c-0.6,0.3-1,0.8-1.1,1.5c0,0.5,0.1,1,0.2,1.5l0.7,2.4
		c0.1,0.6,0.6,1.1,1.3,1.1c0.2,0,0.4-0.1,0.5-0.2c0.8-0.6,1.4-1.4,1.5-2.4c0.4-1.6-0.4-3.7-1.7-3.8L134.5,48.6z"/>
	<path class="st10" d="M134.5,42.2c-0.3-0.1-0.6-0.1-0.8,0c-0.3,0.1-0.5,0.4-0.6,0.8c0,0.3,0.1,0.5,0.2,0.7l0.4,1.2
		c0.2,0.5,0.5,0.7,0.9,0.4c0.4-0.3,0.7-0.8,0.7-1.3c0.2-0.8-0.3-1.9-0.9-2L134.5,42.2z"/>
	<path class="st10" d="M129.4,38.6c0.8-0.3,1.1-0.2,1.2,0.4c0.2,0.7,0.2,1.5,0.1,2.2c-0.3,1.2-0.8,2.3-1.5,3.3
		c-0.9,1.5-1.9,2.9-2.8,4.5c-0.2,0.4-0.5,0.8-0.9,0.8c-0.3-0.1-0.6-0.4-0.7-0.7c-0.1-0.4-0.1-0.8,0-1.2c0.2-1.4,0.4-3.7,0.5-4.4
		c0-0.2,0.1-0.4,0.2-0.6l0,0c0.6-1.8,2-3.3,3.8-4L129.4,38.6z"/>
	<path class="st11" d="M109.1,124.5c0.2,6.3-2.1,11.5-4.9,11.6s-5.3-5-5.5-11.3c-0.1-0.8-0.1-1.6,0-2.4c0.4-5.2,2.3-9.1,4.8-9.2
		C106.3,113.1,108.9,118.2,109.1,124.5z"/>
	
		<ellipse transform="matrix(0.9996 -2.861949e-02 2.861949e-02 0.9996 -3.4717 3.0663)" class="st12" cx="105.4" cy="122.8" rx="2.9" ry="6.4"/>
	<path class="st13" d="M109.8,124.5c0,0-8-11.8-11.8-2.5c0.4-5.9,2.7-10.5,5.5-10.6C106.7,111.3,109.6,117.1,109.8,124.5z"/>
	<path class="st12" d="M109.8,124.5c-0.9-0.9-1.9-1.8-2.9-2.6c-0.9-0.8-2-1.4-3.1-2c-1-0.5-2.1-0.6-3.1-0.2c-1,0.6-1.9,1.5-2.3,2.7
		l-0.2,0.4h-0.3c-1.2-0.2-2.2-1-2.7-2.1c-0.2-0.6-0.3-1.2-0.4-1.8c0-0.6,0.1-1.3,0.4-1.8c-0.2,1.1,0,2.2,0.6,3.2
		c0.5,0.7,1.3,1.2,2.2,1.2l-0.4,0.3c0.5-1.4,1.5-2.5,2.7-3.3c1.2-0.5,2.7-0.5,3.8,0.1c1.2,0.7,2.3,1.5,3.2,2.5
		C108.3,122.1,109.1,123.3,109.8,124.5z"/>
	<path class="st12" d="M98.4,121.1c-0.8-0.7-1.3-1.6-1.4-2.7c-0.1-1,0.2-2,0.8-2.7c-0.4,0.8-0.5,1.7-0.3,2.6
		c0.2,0.7,0.7,1.4,1.3,1.8c0.3,0.2,0.4,0.5,0.3,0.8C98.9,121.1,98.6,121.3,98.4,121.1C98.5,121.2,98.4,121.2,98.4,121.1z"/>
	<path class="st10" d="M114,120.1c-0.7-1.9-1.4-3.8-2.2-5.8c-0.8-1.8-1.8-3.5-2.8-5.1c-1-1.5-2.1-3-3.3-4.4c-1.2-1.4-2.5-2.6-4-3.6
		c-1.3-1-2.8-1.9-4.3-2.6c-1.4-0.7-3-1-4.6-0.9c-1.6,0-3.1,0.8-4,2.1c-1,1.7-1.4,3.7-1.1,5.7c-0.8-2.1-0.7-4.4,0.2-6.5
		c0.9-1.9,2.6-3.2,4.7-3.5c1.8-0.3,3.7,0,5.4,0.6c1.7,0.7,3.4,1.6,4.9,2.7c3.2,2.5,5.7,5.6,7.5,9.2c1,1.9,1.8,3.9,2.3,6
		C113.4,116,113.8,118,114,120.1z"/>
	<path class="st11" d="M133,125.6c0.2,6.8,3.6,12.3,7.3,12.2s6.8-5.8,6.6-12.6c0-0.9-0.1-1.8-0.2-2.6c-0.9-5.5-3.8-9.6-7.1-9.5
		C135.8,113.2,132.8,118.8,133,125.6z"/>
	
		<ellipse transform="matrix(0.9996 -2.861949e-02 2.861949e-02 0.9996 -3.4788 3.9943)" class="st12" cx="137.8" cy="123.5" rx="3.9" ry="6.9"/>
	<path class="st13" d="M132,125.7c0,0,9.9-13.2,15.6-3.5c-1-6.4-4.4-11.1-8.1-11C135.2,111.2,131.8,117.7,132,125.7z"/>
	<path class="st12" d="M132,125.7c0.8-1.4,1.8-2.7,3.1-3.7c1.2-1.2,2.6-2.2,4.1-2.9c1.6-0.8,3.4-1,5.1-0.4c1.6,0.6,3,1.8,3.9,3.4
		l-0.6-0.3c1.1-0.1,2.2-0.6,2.9-1.5c0.7-1,0.9-2.3,0.6-3.5c0.3,0.6,0.6,1.2,0.6,1.9c0,0.7-0.1,1.4-0.4,2c-0.7,1.3-2,2.2-3.4,2.5
		h-0.4l-0.3-0.4c-0.8-1.2-1.9-2.2-3.2-2.7c-1.4-0.4-2.9-0.2-4.2,0.4c-1.4,0.6-2.8,1.4-4,2.3C134.4,123.5,133.1,124.5,132,125.7z"/>
	<path class="st12" d="M146.5,120.1c0.9-0.3,1.5-1.1,1.6-2c0.3-1,0-2-0.6-2.8c0.8,0.7,1.2,1.8,1.2,2.9c-0.1,1.2-0.7,2.3-1.7,3l0,0
		c-0.3,0.1-0.7,0.2-0.8-0.1C145.9,120.7,146.1,120.3,146.5,120.1C146.3,120.2,146.3,120.1,146.5,120.1z"/>
	<path class="st10" d="M126,121.2c0.1-2.3,0.5-4.6,1.2-6.8c0.7-2.2,1.7-4.4,2.8-6.5c2.4-4.1,5.6-7.7,9.4-10.4c2-1.3,4.1-2.4,6.3-3.2
		c2.3-0.8,4.8-1.2,7.2-1c2.6,0.1,5,1.4,6.5,3.4c1.4,2.1,1.6,4.7,0.6,6.9c0.3-2.2-0.4-4.4-1.8-6.1c-1.5-1.4-3.5-2.1-5.5-1.9
		c-2.1,0.1-4.1,0.5-6.1,1.3c-2,0.8-3.9,1.8-5.7,3c-1.8,1.2-3.5,2.6-5,4.2c-1.5,1.6-2.9,3.2-4.2,5c-1.2,1.8-2.4,3.7-3.5,5.7
		C127.6,117,126.8,119.1,126,121.2z"/>
	<path class="st9" d="M206,210.4l-66.3,2l-71.8-2L55.5,206v29.5l0,0c0,3.8,22.4,7.1,53.8,8.3c9.5,0.3,19.6,0.6,30.3,0.6
		s20.9-0.1,30.3-0.6c31.4-1.2,53.7-4.6,53.7-8.3V206L206,210.4z"/>
	<path class="st7" d="M210.9,201.2c0.6,0.8,1,1.8,1.5,2.6c2.2,0.4,3.5,1,3.5,1.5c0,0.1-0.1,0.4-0.6,0.6c-0.5,0.3-1.1,0.4-1.7,0.6
		c-5.8,1.7-23.5,2.9-46.6,3.5c-8.5,0.1-17.8,0.3-27.5,0.3s-18.9-0.1-27.5-0.3c-23.2-0.6-41-1.9-46.7-3.5c-0.5-0.1-1-0.3-1.5-0.6
		c-0.3-0.1-0.6-0.4-0.6-0.6c0-0.6,1.2-1,3.5-1.5c0.6-0.8,1-1.8,1.5-2.6c-8.2,1.4-12.8,3.1-12.8,4.7c0,1.4,3.1,2.8,8.5,3.9
		c9.3,1.9,25.4,3.6,45.3,4.4c9.5,0.4,19.6,0.6,30.3,0.6s20.9-0.3,30.3-0.6c19.6-0.8,35.7-2.4,45.1-4.4c5.6-1.3,8.6-2.5,8.6-3.9
		C223.7,204.3,218.9,202.6,210.9,201.2z"/>
	<path class="st14" d="M211.4,195.5L211.4,195.5c0,1.5-1.1,2.9-2.6,3.1c-9,1.5-23.1,2.8-39.4,3.5c-9.6,0.4-19.6,0.6-29.9,0.6
		s-20.3-0.1-29.9-0.6c-18.1-0.7-33.2-2.2-42-3.9v-114c0-19,7.5-37.3,21-50.8c3.8-3.7,7.9-7.1,12.4-10c0.5-0.3,1.3-0.1,1.6,0.4
		c0.3,0.5,0.2,1-0.2,1.4l-0.1,0.1c-13.5,13.4-21.1,31.7-21,50.8v114c8.8,1.8,23.9,3.2,42,3.9c9.6,0.4,19.6,0.6,29.9,0.6
		s20.3-0.1,29.9-0.6c9.2-0.4,17.7-1,24.9-1.7c1.8-0.1,3.3,1.2,3.5,2.9C211.4,195.4,211.4,195.4,211.4,195.5z"/>
	<path class="st15" d="M139.7,2.5c45.1,0,81.6,36.6,81.6,81.6v121.3c-2.6,1.9-18.1,5-51.4,6.4c-9.9,0.4-20,0.6-30.3,0.6
		s-20.3-0.1-30.2-0.6c-33.4-1.4-48.8-4.6-51.5-6.4V84.1C57.9,39.2,94.6,2.5,139.7,2.5 M139.7,0.1L139.7,0.1
		c-46.5,0-84.1,37.7-84.1,84.1v121.8c0,3.8,22.2,7.1,53.8,8.4c9.5,0.4,19.6,0.6,30.3,0.6s20.9-0.3,30.3-0.6
		c31.4-1.3,53.7-4.6,53.7-8.4V84.3c0.1-46.4-37.5-84.1-83.9-84.1C139.8,0.1,139.7,0.1,139.7,0.1z"/>
	<path class="st16" d="M140.6,153.3c-1.5,2.2-3.6,3.9-6,5c-2.4,1-4.9,1.5-7.5,1.4c-2.4-0.1-4.8-0.4-7.1-1c-2-0.4-4.1-0.8-6-1
		s-3.8-0.3-5.6-0.4c-1.9,0.1-3.7-0.1-5.5-0.6c-1.8-0.4-3.5-1.3-4.9-2.5c-1.5-1.2-2.6-2.8-3.2-4.5c2.1,2.6,5.1,4.2,8.4,4.4
		c0.8,0.1,1.6,0.1,2.5,0c0.9,0,1.8-0.1,2.7-0.2c2-0.2,3.9-0.2,5.9,0.1c2.2,0.2,4.3,0.6,6.4,1.1c1.2,0.2,2.1,0.6,3.3,0.9
		c1.1,0.3,2.2,0.5,3.3,0.6C132,157.4,136.8,156.2,140.6,153.3z"/>
	<path class="st10" d="M109.7,167.1c1.1,0.5,2.3,1,3.6,1.3c1.2,0.3,2.4,0.5,3.6,0.7c1.2,0.1,2.4,0.1,3.5,0c1.2-0.2,2.5-0.4,3.7-0.6
		c-0.9,1.1-2,1.9-3.2,2.4c-1.3,0.5-2.6,0.6-4,0.5c-1.4-0.2-2.7-0.6-3.9-1.2C111.6,169.3,110.5,168.2,109.7,167.1z"/>
</g>
<path id="r-arm" class="st1" d="M248.4,317.5c9.1-10.6,11.5-29.4,5.5-43.7c-15.5-27.5-9.1-18.7,6.5-46.8c4.8-8.6,3.6-24-2-31.7
	c-3.3-4.6-7.4-8.2-9.3-5.5c-2.4,10.4,5.4,23.4-7.9,28.7c-19.8,8-41.2,24.3-45.9,48.5c-7,36.1,8.3,59.4,30.1,68
	C233.3,335,243.6,323,248.4,317.5z"/>
</svg>
