<?xml version="1.0" encoding="utf-8"?>
<!-- Generator: Adobe Illustrator 25.2.0, SVG Export Plug-In . SVG Version: 6.00 Build 0)  -->
<svg version="1.1" id="Layer_1" xmlns="http://www.w3.org/2000/svg" xmlns:xlink="http://www.w3.org/1999/xlink" x="0px" y="0px"
	 viewBox="0 0 341.2 565.5" style="enable-background:new 0 0 341.2 565.5;" xml:space="preserve">
<style type="text/css">
	.st0{fill:#F473C2;}
	.st1{fill:#F4A8D7;}
	.st2{fill:#C15B9A;}
	.st3{fill:#491D87;}
	.st4{fill:none;stroke:#66419B;stroke-width:5.18;stroke-linecap:round;stroke-linejoin:round;}
	.st5{fill:#66419B;}
	.st6{fill:#989898;}
	.st7{opacity:0.5;fill:#68DFE7;enable-background:new    ;}
	.st8{fill:#808080;}
	.st9{fill:#DB67AE;}
	.st10{fill:#FFFFFF;}
	.st11{fill:#7A0406;}
	.st12{fill:#CD539D;}
	.st13{opacity:0.5;fill:#FFFFFF;enable-background:new    ;}
	.st14{fill:#4AA6C0;}
	.st15{fill:#A54E83;}
</style>
<path id="b-leg" class="st0" d="M208.3,510.3c-0.1-11.6,3.9-22.8,7-34.2c7-27.8,21.4-121.4-22.5-111.5
	c-40.9-1.5-27.9,84.5-21.6,111.2c2.8,11,6.6,22.1,6.5,33.4c0,6.8-1.9,13.5-5.4,19.3c-6.1,9.5,5.1,21.3,20.5,21.8
	c15.8,1.7,27.9-9,21.3-19.6C210.3,524.6,208.3,517.5,208.3,510.3z"/>
<g id="leg1">
	<path class="st0" d="M144.1,464.3c-2.4,0.3-4.8,0.7-7,1.1c-2,0.4-4,0.9-5.9,1.6c-1.5,0.5-2.9,1.1-4.2,1.8c-0.9,0.5-1.7,1-2.5,1.6
		c-0.8,0.7-1.4,1.6-1.8,2.5c-0.6,1.6-0.9,3.3-1,5c-0.3,4.2,0.3,9.5,1.3,15.3s2.4,12.1,3.2,19.5c0.5,4.1,0.6,8.3,0.1,12.5
		c-0.3,2.6-0.9,5.1-1.8,7.5c-1,2.7-2.5,5.3-4.3,7.5c-0.9,1.1-1.9,2.2-3,3.1c-1.1,0.8-2.2,1.6-3.3,2.3c-2.3,1.4-4.8,2.4-7.4,3
		c-4.9,1.2-10.1,0.9-14.9-0.9c-8.9-3.1-15.3-10.8-16.7-20.1l-0.1-0.5c0.1-1.3-0.1-2.7-0.6-3.9c-0.5-1.4-1.4-2.7-2.4-3.7
		c-2.3-2.4-5.6-3.5-8.8-3.1h-0.2c-1.6,0.2-3.1-0.9-3.3-2.5c-0.2-1.2,0.4-2.3,1.4-2.9c2.5-1.4,5.3-2.1,8.1-2.1c2.9,0,5.7,0.7,8.3,2
		c2.7,1.3,5.1,3.1,7.1,5.3c2.1,2.4,3.6,5.2,4.5,8.2l-0.1-0.5c1.9,3.8,5.1,5.4,8,5.3c1.2,0,2.5-0.4,3.4-1.2c0.4-0.3,0.7-0.7,0.9-1.1
		c0.1-0.2,0.2-0.4,0.3-0.6c0-0.1,0-0.3,0-0.4c-0.1-0.2-0.1-0.5-0.2-0.7l-0.2-1.6c-0.3-2-0.8-4-1.4-6c-1.5-4.8-3.8-10.4-6-16.5
		c-1.1-3.1-2.2-6.3-3.2-9.8c-1.1-3.7-1.9-7.5-2.4-11.3c-0.6-4.5-0.7-9-0.2-13.5c0.6-5.2,2.1-10.2,4.4-14.9c2.4-4.7,5.6-8.9,9.3-12.6
		c3.4-3.2,7.1-6.1,11.2-8.5c3.6-2.1,7.3-4,11.2-5.6c3.7-1.5,7.3-2.8,10.8-3.9l0.5-0.2c11.7-3.6,24,3,27.6,14.6
		c3.6,11.7-3,24-14.6,27.6l0,0C146.7,463.9,145.4,464.2,144.1,464.3z"/>
</g>
<g id="leg4">
	<path class="st0" d="M237.7,419c8.8,1.9,17.5,4.7,25.8,8.3c4.7,2.1,9.2,4.6,13.5,7.5c2.4,1.6,4.6,3.5,6.7,5.4
		c2.3,2.1,4.4,4.5,6.2,7c3.9,5.3,6.5,11.5,7.6,18c0.9,5.7,0.9,11.5-0.1,17.1c-0.8,4.7-2.1,9.3-3.7,13.8c-1.5,4.1-3.1,8-4.7,11.6
		l-4.6,10.3c-1.4,3.2-2.7,6.3-3.6,9.1c-0.8,2.1-1.2,4.4-1.4,6.6c0,0.5,0,1.1,0,1.6c0,0.2,0.1,0.5,0.2,0.7c0,0.1,0.1,0.2,0.2,0.4
		l0.1,0.2c0,0.1,0.1,0.2,0.2,0.3c1.4,1.7,3.1,3.1,5.1,4.1c2.2,1.1,4.6,1.6,7.1,1.7c2.3,0.1,4.7-0.4,6.8-1.4c2.1-1,3.7-2.7,4.8-4.8
		l-0.2,0.6c1.3-3.8,3.2-7.3,5.7-10.4c2.4-3,5.2-5.6,8.3-7.7c3.2-2.2,6.9-3.6,10.8-4.2c3.9-0.5,7.8,0.2,11.3,1.9
		c1.4,0.8,2,2.5,1.2,3.9c-0.6,1.1-1.9,1.7-3.2,1.5h-0.1c-2.5-0.6-5.1-0.4-7.5,0.6c-2.3,1-4.4,2.4-6.1,4.2c-1.8,1.9-3.3,4.1-4.4,6.4
		c-1.1,2.2-1.8,4.6-2.1,7l-0.2,0.6c-1.4,5.3-4.3,10-8.4,13.5c-4.1,3.4-9,5.8-14.3,6.8c-5.2,1-10.5,0.9-15.6-0.3
		c-5.4-1.2-10.4-3.6-14.7-7c-0.3-0.2-0.5-0.4-0.8-0.7l-0.9-0.8c-0.6-0.6-1.1-1.2-1.7-1.8c-1.1-1.3-2.1-2.6-3-4.1
		c-1.7-2.8-2.9-6-3.5-9.2c-0.6-2.8-0.8-5.7-0.7-8.6c0.1-2.5,0.3-5,0.7-7.5c0.7-4.3,1.6-8.6,2.8-12.8l3.1-11.2c1-3.6,1.9-7,2.5-10.2
		c0.6-2.8,0.9-5.7,1-8.6c0.1-1.9-0.3-3.9-1-5.6c-0.5-1-1.2-1.9-2.1-2.5c-1.3-1-2.8-1.8-4.3-2.5c-2.3-1-4.7-1.8-7.1-2.5
		c-6.1-1.5-12.3-2.5-18.6-2.9c-12.2-1-21.2-11.6-20.3-23.7c1-12.2,11.6-21.2,23.7-20.3c1.1,0.1,2.1,0.2,3.2,0.5L237.7,419z"/>
</g>
<g id="leg2">
	<path class="st1" d="M180.9,458.4c-4.4,0.9-8.7,2.1-12.9,3.6c-1.7,0.6-3.3,1.4-4.9,2.2c-1.2,0.6-2.3,1.3-3.4,2.1
		c-0.7,0.5-1.3,1.1-1.9,1.7c-0.6,0.7-1,1.5-1.2,2.4c-0.7,2.2-0.6,6.1,0.2,10.7c1,5.1,2.3,10.2,3.9,15.2c1.6,5.5,3.4,11.3,4.8,17.8
		c0.8,3.4,1.3,6.8,1.7,10.3c0.4,3.8,0.4,7.7,0,11.5c-0.4,4.2-1.5,8.2-3.1,12.1c-1.7,3.9-4,7.4-6.8,10.5l-1.7,1.9l-0.9,0.5
		c-4.4,2.5-9.3,4.1-14.4,4.5c-5.1,0.4-10.2-0.4-14.8-2.4c-4.7-2-8.7-5.2-11.7-9.4c-2.6-3.8-4.4-8.2-5-12.7l-0.1-0.5
		c-0.1-2.3-0.5-4.5-1.3-6.7c-0.8-2.3-1.9-4.6-3.3-6.6c-1.4-2-3-3.8-5-5.3c-1.8-1.4-3.9-2.2-6.2-2.2h-0.2c-1.7-0.1-2.9-1.5-2.8-3.2
		c0.1-1.2,0.9-2.2,2-2.7c1.8-0.5,3.7-0.7,5.6-0.6c1.8,0.2,3.7,0.6,5.4,1.2c3.3,1.3,6.3,3.2,8.9,5.6c2.6,2.3,4.9,5,6.8,7.9
		c2,3.1,3.5,6.4,4.5,10l-0.1-0.5c0.9,2.1,2.2,3.9,3.9,5.3c1.4,1.1,3.1,1.8,4.9,2c1.8,0.2,3.6-0.1,5.2-0.7c1.7-0.7,3.1-1.7,4.3-3
		l-2.6,2.4c0.8-1.3,1.4-2.8,1.7-4.3c0.3-1.5,0.4-3.1,0.2-4.7c-0.5-4.2-1.6-8.3-3.3-12.2c-1.8-4.6-4.1-9.4-6.6-14.7
		c-2.7-5.7-5.2-11.4-7.3-17.4c-1.2-3.5-2.2-7-2.9-10.6c-0.8-4.2-1.2-8.4-1-12.7c0.2-4.9,1.2-9.7,2.9-14.2c1.8-4.6,4.2-8.9,7.3-12.8
		c2.8-3.5,6-6.6,9.4-9.4c3.1-2.4,6.4-4.7,9.8-6.6c6.1-3.5,12.5-6.4,19.2-8.8l0.5-0.2c11.7-4.3,24.7,1.6,29,13.3
		c4.3,11.7-1.6,24.7-13.3,29l0,0C183.1,457.8,182,458.1,180.9,458.4z"/>
</g>
<g id="leg3">
	<path class="st1" d="M216.5,415.3c6.6,2.4,13,5.3,19.2,8.8c3.4,2,6.7,4.2,9.8,6.6c3.5,2.7,6.7,5.9,9.4,9.4
		c3.1,3.8,5.6,8.1,7.3,12.8c1.7,4.6,2.7,9.4,2.9,14.2c0.2,4.3-0.2,8.5-1,12.7c-0.7,3.6-1.7,7.1-2.9,10.6c-2.1,5.9-4.6,11.7-7.3,17.4
		c-2.5,5.2-4.8,10.1-6.6,14.7c-1.7,3.9-2.8,8-3.3,12.2c-0.1,1.6-0.1,3.1,0.2,4.7c0.3,1.5,0.9,3,1.7,4.3l-2.6-2.4
		c1.2,1.3,2.7,2.3,4.4,3c1.7,0.7,3.4,0.9,5.2,0.7c1.8-0.2,3.5-0.9,4.9-2c1.7-1.4,3.1-3.3,3.9-5.3l-0.1,0.5c1-3.6,2.5-6.9,4.5-10
		c1.9-2.9,4.2-5.6,6.8-7.9c2.6-2.4,5.6-4.3,8.9-5.6c1.7-0.7,3.5-1.1,5.4-1.2c1.9-0.2,3.8,0,5.6,0.6c1.6,0.6,2.4,2.3,1.8,3.8
		c-0.4,1.1-1.4,1.9-2.6,2h-0.3c-2.2,0.1-4.4,0.8-6.2,2.2c-2,1.5-3.6,3.2-5,5.3c-1.4,2.1-2.5,4.3-3.3,6.6c-0.8,2.1-1.3,4.4-1.3,6.7
		l-0.1,0.5c-0.7,4.6-2.4,8.9-5,12.7c-3,4.1-7,7.4-11.6,9.4c-4.7,2-9.8,2.8-14.9,2.4c-5.1-0.4-9.9-1.9-14.4-4.4l-0.9-0.5l-1.7-1.9
		c-2.8-3.1-5.1-6.7-6.8-10.5c-1.7-3.9-2.7-8-3.2-12.2c-0.4-3.8-0.4-7.7,0-11.5c0.4-3.4,0.9-6.9,1.7-10.3c1.4-6.5,3.2-12.3,4.9-17.8
		c1.6-5,2.8-10.1,3.9-15.2c0.8-4.5,0.9-8.5,0.2-10.7c-0.2-0.9-0.7-1.7-1.2-2.4c-0.6-0.6-1.2-1.2-1.9-1.7c-1.1-0.8-2.2-1.5-3.4-2.1
		c-1.6-0.8-3.3-1.6-4.9-2.2c-4.2-1.5-8.5-2.7-12.9-3.6c-12.2-2.5-20.1-14.4-17.6-26.7s14.4-20.1,26.7-17.6c1.1,0.2,2.2,0.5,3.2,0.9
		L216.5,415.3z"/>
</g>
<g id="l-arm">
	<path class="st2" d="M71.2,285.6c1.4,3.6,4.6,6.2,8.4,7c1.4,0.3,2.9-0.1,4-1.1c1.6-1.5,0.8-3.1-0.1-4.3c-2.4-2.9-7-4.1-11.6-3.1
		l0,0C71.3,284.4,71.1,285,71.2,285.6z"/>
	<path class="st2" d="M65.1,286.9c-2.6-1.1-5.6-0.9-8.1,0.5c-0.9,0.5-1.5,1.5-1.4,2.5c0.1,1.2,1.1,2.2,2.3,2.1
		c3.1,0.2,6-1.4,7.6-4.1l0,0C65.6,287.5,65.4,287.1,65.1,286.9z"/>
	<path class="st2" d="M41.1,301.4c-1.1-0.5-2.4-0.4-3.4,0.2c-0.7,0.4-1.5,1.1-1.5,1.8c0,1,1.1,1.4,2.2,1.3c0.7,0,1.4-0.2,2-0.5
		c0.6-0.4,1.1-0.9,1.4-1.5C42,302.1,41.6,301.5,41.1,301.4c-0.1,0-0.2-0.1-0.2-0.1"/>
	<path class="st2" d="M48.5,293.9c-1.4,0.1-2.8,0.6-4.1,1.4c-0.5,0.4-0.9,0.9-1.1,1.5c-0.7,2.2,2.4,2.7,4.3,1.5
		c1.3-0.9,2.4-2.3,2.9-3.9c0.2-0.4-0.1-0.7-0.5-0.8l0,0C49.6,293.9,49,294,48.5,293.9z"/>
	<path class="st0" d="M102.3,316.8l50.9-33.4c-5.6-30.9-57-52-105.3-16.1C33.6,278,22.9,298.6,3,300.5c-2,0.2-3.7,2.2-2.7,3.5
		c11.6,14,32.8,6.3,49.5-8.2C74,275.6,88.6,297,88.6,297L102.3,316.8z"/>
	<path class="st2" d="M26.9,307.9c-1.1,0.2-1.6,1.8-0.7,2.1c1,0.3,2.1,0.4,3.1,0.2c1.3-0.1,2.4-0.8,3.2-1.8c0.7-1.1,0-2.4-1.2-2.1
		C29.9,306.8,28.4,307.3,26.9,307.9z"/>
	<path class="st2" d="M42.1,297c1.2-0.7,1-2.1-0.3-2.1c-1.3,0.2-2.5,0.5-3.7,1.1c-1.3,0.6-2.5,1.7-2.6,2.9c0,0.9,0.7,1.6,1.6,1.6
		c0.3,0,0.7-0.1,1-0.3C39.3,299.1,40.7,298.1,42.1,297L42.1,297z"/>
	<path class="st2" d="M52.7,291.1c1.3-0.6,1.5-2.7,0.3-3c-1.2-0.2-2.5-0.1-3.6,0.4c-1.5,0.5-2.7,1.7-3.3,3.1
		c-0.6,1.6,0.5,3.3,1.9,2.6C49.6,293.3,51.2,292.2,52.7,291.1L52.7,291.1z"/>
	<path class="st2" d="M60.2,286.5c0.6,0.1,1.8-0.8,1.6-1.5c-0.2-0.6-0.7-1-1.3-1c-0.8-0.3-1.8-0.1-2.5,0.5c-1,0.6-1.5,1.9-0.7,2
		C58.3,286.6,59.2,286.6,60.2,286.5L60.2,286.5z"/>
	<path class="st2" d="M69.3,285.3c0.8,0.2,2-0.9,1.8-1.7c-0.3-0.6-0.9-1-1.5-1.2c-1-0.3-2.1-0.1-2.9,0.6c-1.1,0.8-1.7,2.2-0.8,2.3
		C67.2,285.2,68.2,285.2,69.3,285.3z"/>
	<path class="st2" d="M30,304c1,0.3,2.7-1,2.5-2c-0.4-0.9-1-1.5-1.9-1.9c-1.2-0.6-2.7-0.4-3.8,0.3c-1.5,0.8-2.2,2.7-1.2,2.9
		C27.1,303.5,28.5,303.8,30,304L30,304z"/>
	<path class="st2" d="M16.9,309.9c-1.8-0.9-3.8-1.5-5.9-1.7c-1.1,0-2.1,0.2-3.2,0.5c-3.3,1.5-0.7,4,2.7,4.4c2.6,0.2,5.2-0.3,7.6-1.2
		c0.6-0.3,0.8-0.7,0.4-1l0,0C18,310.5,17.5,310.2,16.9,309.9z"/>
	<path class="st2" d="M19.9,303.9c-0.5-1-1.5-1.5-2.6-1.4c-0.9,0-1.7,0.4-2.3,1.1c-0.6,0.9,0,1.8,0.8,2.3c0.6,0.3,1.2,0.5,1.9,0.5
		c0.7,0,1.4-0.3,1.9-0.9c0.4-0.5,0.6-1.3,0.1-1.6"/>
	<ellipse transform="matrix(0.883 -0.4693 0.4693 0.883 -141.8447 46.4796)" class="st2" cx="22.3" cy="307.8" rx="1.3" ry="0.9"/>
</g>
<g id="body">
	<path class="st3" d="M302.7,292.9c0-17-4.4-33.8-12.7-48.7c-0.3-0.6-0.7-1.1-1-1.7c-5.2-8.6-11.6-16.5-19-23.2
		c-41.2-37.1-103.7-37.1-144.9,0c-6.8,6.1-12.8,13.2-17.7,21c-0.4,0.7-1,1.5-1.4,2.2c-13.8,23.1-17.5,50.8-10.3,76.8
		c2.1,7.5,5.1,14.7,8.8,21.4l37.4,74.5c36,12,75,12,111,0l36.6-73.1c3.5-6.1,6.4-12.6,8.6-19.3C301.2,313.1,302.7,303,302.7,292.9z"
		/>
	<path class="st4" d="M96.1,271.3L96.1,271.3c66.9,12.8,135.7,12.8,202.6,0l0,0"/>
	<path class="st5" d="M127.6,389.1l-8.7-22c-2.9-7-2.8-13.2,0.3-20.2l13.6-25.9c1.4-2.6,4.1-4.2,7.1-4.2l21.6,1.4h31.8
		c2.9,0,5.6,1.6,7.1,4.2l13.7,30.9c3.1,6.9,3.2,14.7,0.3,21.7l-6.3,15.2l-3.9,9c-16.7,2.8-28,1.6-43.2,0.2
		c-13.9-1.3-21.7-3-26.1-4.2C131.7,394.1,129.1,392,127.6,389.1z"/>
	<path class="st6" d="M257.7,420v0.4c0,7.1-5,13.4-12.7,15.3c-31.3,8-64.1,8-95.4,0c-7.6-2-12.8-8.5-12.6-15.6c0-1.8,0-3.5-0.1-5.1
		c-0.1-1.4,0.9-2.7,2.4-2.9c0.3,0,0.7,0,1,0.1c12.2,3.6,53.1,12.8,114.6-0.4c1.4-0.3,2.7,0.6,3,1.9c0.1,0.3,0.1,0.6,0,0.9
		C257.8,416.2,257.7,418.2,257.7,420z"/>
	<path class="st5" d="M280.7,247.8c2.5,1.5,4.9,3.2,7.2,5.1c0.5,0.4,1.1,0.8,1.5,1.3l1.4,1.3c1,0.9,1.7,1.7,2.6,2.5
		c3,3,5.7,6.4,7.9,10.1c3.7,6.1,5.9,13.1,6.2,20.2c0.3,7.1-1.5,14.1-5.2,20.2c-2.2,3.7-4.9,7.1-8,10.1c-0.9,0.8-1.8,1.7-2.7,2.5
		l-1.5,1.3c-0.5,0.4-1,0.8-1.6,1.3s-1.1,0.8-1.7,1.3l-1.8,1.3l-2,1.3l-1,0.6l-1.1,0.6c-1.9,1-4.2,1-6.2,0l-1.2-0.6l-1-0.6l-2-1.3
		l-1.8-1.3c-0.6-0.4-1.1-0.8-1.7-1.3s-1.1-0.8-1.6-1.3l-1.5-1.3c-0.9-0.8-1.9-1.7-2.7-2.5c-3.1-3-5.8-6.4-8-10.1
		c-3.7-6.1-5.5-13.1-5.2-20.2c0.3-7.2,2.5-14.1,6.2-20.2c2.2-3.7,4.9-7.1,7.9-10.1c0.9-0.8,1.6-1.7,2.6-2.5l1.4-1.3
		c0.5-0.4,1-0.8,1.5-1.3c2.3-1.9,4.7-3.6,7.2-5.1C276.5,246.8,278.8,246.8,280.7,247.8z"/>
</g>
<g id="head">
	<path class="st7" d="M281.5,205.3H113.3V84.1C113.3,37.7,151,0,197.4,0l0,0c46.5,0,84.1,37.7,84.1,84.1L281.5,205.3L281.5,205.3z"
		/>
	<path class="st6" d="M227.8,197.6c-9.5-0.4-19.6-0.6-30.3-0.6s-20.9,0.3-30.3,0.6c-31.4,1.2-53.8,4.6-53.8,8.3s22.3,7,53.8,8.4
		c9.5,0.4,19.6,0.6,30.3,0.6s20.9-0.3,30.3-0.6c31.4-1.2,53.7-4.6,53.7-8.4S259.2,199,227.8,197.6z M224.9,210.1
		c-8.5,0.1-17.8,0.3-27.5,0.3s-18.9-0.1-27.5-0.3c-25.9-0.7-44.9-2.2-48.3-4c-0.3-0.1-0.6-0.4-0.6-0.6c0-2.1,20.2-3.9,48.8-4.7
		c8.5-0.1,17.8-0.3,27.5-0.3s18.9,0.1,27.5,0.3c28.5,0.7,48.7,2.5,48.7,4.7c0,0.1-0.1,0.4-0.5,0.6
		C269.9,207.9,250.9,209.4,224.9,210.1L224.9,210.1z"/>
	<path class="st6" d="M281.5,206c0,3.8-22.2,7.1-53.7,8.4c-9.5,0.4-19.6,0.6-30.3,0.6s-20.9-0.3-30.3-0.6
		c-31.4-1.2-53.8-4.6-53.8-8.4s22.3-7.1,53.8-8.3c9.5-0.4,19.6-0.6,30.3-0.6s20.9,0.3,30.3,0.6C259.2,199,281.5,202.2,281.5,206z"/>
	<path class="st8" d="M273.7,205.4c0,2.1-20.2,3.9-48.7,4.7c-8.5,0.1-17.8,0.3-27.5,0.3s-18.9-0.1-27.5-0.3
		c-28.5-0.7-48.8-2.5-48.8-4.7s20.2-3.9,48.8-4.7c8.5-0.1,17.8-0.3,27.5-0.3s18.9,0.1,27.5,0.3C253.4,201.5,273.7,203.3,273.7,205.4
		z"/>
	<path class="st9" d="M167.6,124.5c0.2,6.8-2.2,12.6-5.4,12.7s-6-5.4-6.2-12.3c-0.1-0.9-0.1-1.8,0-2.7c0.4-5.6,2.6-9.9,5.4-10
		C164.6,112.1,167.4,117.7,167.6,124.5z"/>
	<path class="st0" d="M268.7,222.5l-47.9-2.3l-95.6-2.6c0,0-1-3.9,2.9-10.6l0,0c0.3-0.6,0.6-1.2,1-1.9h0.1l0.3-0.5
		c10.7-18.2,21.6-37.9,20.6-59.5c-0.4-10-3.5-20.1-4.6-30.1s0-21,6.7-28.3c0.1-0.1,0.1-0.2,0.2-0.2s0,0,0,0
		c3.3-3.5,7.6-5.8,11.5-8.6c2.1-1.4,4-3,5.7-4.9c6.3-6.8,7.6-17,11.4-25.4c0.6-1.4,1.4-2.7,2.3-4c1-1.3,2.1-2.6,3.3-3.7
		c2.1-2.3,5.1-3.6,8.2-3.5l0,0c1.7-0.1,3.4-0.1,5-0.1c20.1,0.1,29.1,7.1,36.4,18.1c0.9,1.3,0.6,3-0.6,4c-0.6,0.4-1.3,0.6-2.1,0.5
		c-0.8-0.1-1.6-0.4-2.3-0.7c-2.4-1-4.6-2.4-7-3.3h-0.1H224c-2.6-0.7-5.2,0.7-6,3.3c-0.3,0.9-0.2,1.9,0.1,2.9
		c1.7,5.2,3.6,10.4,7.2,14.7c5,6.1,12.5,9.5,17.5,15.4c6.7,8,7.8,19,6.7,29s-4.2,19.5-4.6,29.7c-1,21.8,10.2,42.6,20.9,62.1
		C269.5,218.6,268.5,222.5,268.7,222.5z"/>
	<path class="st9" d="M184.2,78.5c2-0.7,4.4-2,5.8,0.3c1.7,2.4,0.5,7.4-1.4,9.8c-3,3.7-7.3,3-10.9,2c-1.8-0.4-3.5-1.3-4.9-2.6
		c-2.6-2.7-3.9-10.4,0.1-11.9C176,74.6,180.5,79.9,184.2,78.5z"/>
	<path class="st9" d="M196.9,66.7c0.4,1.5,1.1,3.3,0.2,4.5s-2.2,0.5-3.3-0.3c-1.1-0.7-2-1.6-2.8-2.6c-0.9-1.1-1.3-2.6-1.1-4
		c0.2-1.4,0.9-2.8,2-3.8C196.7,55.5,195.8,63,196.9,66.7z"/>
	<path class="st9" d="M186.4,60.7c0.1-2.1,0.5-4.8-0.9-5.8s-3.1,0.8-4.2,2.3c-1.1,1.5-2.1,3.1-2.9,4.7c-0.8,1.9-0.9,3.9-0.4,5.9
		c0.6,1.6,1.9,2.9,3.6,3.5C189.3,74.9,186,66.2,186.4,60.7z"/>
	<path class="st9" d="M192.3,48.6c-0.6-0.2-1.2-0.1-1.7,0.1c-0.6,0.3-1,0.8-1.1,1.5c0,0.5,0.1,1,0.2,1.5l0.7,2.4
		c0.1,0.6,0.6,1.1,1.3,1.1c0.2,0,0.4-0.1,0.5-0.2c0.8-0.6,1.4-1.4,1.6-2.4c0.4-1.6-0.4-3.7-1.8-3.8L192.3,48.6z"/>
	<path class="st9" d="M192.3,42.2c-0.3-0.1-0.6-0.1-0.8,0c-0.3,0.1-0.5,0.4-0.6,0.8c0,0.3,0.1,0.5,0.2,0.7l0.4,1.2
		c0.2,0.5,0.5,0.7,0.9,0.4c0.4-0.3,0.7-0.8,0.7-1.3c0.2-0.8-0.3-1.9-0.9-2L192.3,42.2z"/>
	<path class="st9" d="M187.2,38.6c0.8-0.3,1.1-0.2,1.2,0.4c0.2,0.7,0.2,1.5,0.1,2.2c-0.3,1.2-0.8,2.3-1.5,3.3
		c-1,1.5-1.9,2.9-2.9,4.5c-0.2,0.4-0.5,0.8-0.9,0.8c-0.3-0.1-0.6-0.4-0.7-0.7c-0.1-0.4-0.1-0.8,0-1.2c0.1-1.4,0.4-3.7,0.5-4.4
		c0-0.2,0.1-0.4,0.2-0.6l0,0c0.6-1.9,2-3.3,3.8-4L187.2,38.6z"/>
	<path class="st10" d="M166.9,124.5c0.2,6.3-2.1,11.5-4.9,11.6s-5.3-5-5.5-11.3c-0.1-0.8-0.1-1.6,0-2.4c0.4-5.2,2.3-9.1,4.8-9.2
		C164.1,113.1,166.7,118.2,166.9,124.5z"/>
	
		<ellipse transform="matrix(0.9996 -2.861949e-02 2.861949e-02 0.9996 -3.4479 4.7198)" class="st11" cx="163.2" cy="122.8" rx="2.9" ry="6.4"/>
	<path class="st12" d="M167.6,124.5c0,0-8-11.8-11.8-2.5c0.4-5.9,2.7-10.5,5.5-10.6C164.5,111.3,167.4,117.1,167.6,124.5z"/>
	<path class="st11" d="M167.6,124.5c-0.9-0.9-1.9-1.8-2.9-2.6c-0.9-0.8-2-1.4-3.1-2c-1-0.5-2.1-0.6-3.1-0.2c-1,0.6-1.8,1.5-2.3,2.7
		l-0.2,0.4h-0.3c-1.2-0.2-2.2-1-2.7-2.1c-0.2-0.6-0.3-1.2-0.4-1.8c-0.1-0.6,0.1-1.2,0.3-1.8c-0.2,1.1,0,2.2,0.6,3.2
		c0.5,0.7,1.3,1.2,2.2,1.2l-0.4,0.3c0.5-1.4,1.5-2.5,2.7-3.3c1.2-0.5,2.7-0.5,3.9,0.1c1.2,0.7,2.3,1.5,3.2,2.5
		C166.1,122.1,166.9,123.3,167.6,124.5z"/>
	<path class="st11" d="M156.1,121.1c-0.8-0.7-1.3-1.6-1.4-2.7c-0.1-1,0.2-2,0.8-2.7c-0.4,0.8-0.5,1.7-0.3,2.6
		c0.2,0.7,0.7,1.4,1.3,1.8c0.3,0.2,0.4,0.5,0.3,0.8C156.7,121.1,156.4,121.3,156.1,121.1C156.3,121.2,156.2,121.2,156.1,121.1
		L156.1,121.1z"/>
	<path class="st9" d="M171.8,120.1c-0.7-1.9-1.4-3.8-2.2-5.8c-0.8-1.8-1.8-3.5-2.9-5.1c-1-1.5-2.1-3-3.4-4.4c-1.2-1.4-2.5-2.6-4-3.6
		c-1.3-1-2.8-1.9-4.3-2.6c-1.4-0.7-3-1-4.6-0.9c-1.6,0-3.1,0.8-4,2.1c-1,1.7-1.4,3.7-1.1,5.7c-0.8-2.1-0.7-4.4,0.1-6.5
		c0.9-1.9,2.6-3.2,4.7-3.5c1.8-0.3,3.7,0,5.4,0.6c1.7,0.7,3.4,1.6,4.9,2.7c3.2,2.5,5.7,5.6,7.5,9.2c1,1.9,1.8,3.8,2.4,5.9
		C171.1,115.9,171.6,118,171.8,120.1z"/>
	<path class="st10" d="M190.8,125.6c0.2,6.8,3.6,12.3,7.3,12.2s6.8-5.8,6.6-12.6c0-0.9-0.1-1.8-0.2-2.6c-0.9-5.5-3.8-9.6-7.1-9.5
		C193.6,113.2,190.6,118.8,190.8,125.6z"/>
	
		<ellipse transform="matrix(0.9996 -2.861949e-02 2.861949e-02 0.9996 -3.4553 5.6479)" class="st11" cx="195.6" cy="123.5" rx="3.9" ry="6.9"/>
	<path class="st12" d="M189.8,125.7c0,0,9.9-13.2,15.6-3.5c-1-6.4-4.4-11.1-8.1-11C193,111.2,189.6,117.7,189.8,125.7z"/>
	<path class="st11" d="M189.8,125.7c0.8-1.4,1.8-2.7,3.1-3.7c1.2-1.2,2.6-2.2,4.1-2.9c1.6-0.8,3.4-1,5.1-0.4c1.6,0.7,3,1.9,3.9,3.4
		l-0.6-0.3c1.1-0.1,2.2-0.6,2.9-1.5c0.7-1,0.9-2.3,0.6-3.5c0.3,0.6,0.6,1.2,0.6,1.9c0,0.7-0.1,1.4-0.4,2c-0.7,1.3-2,2.2-3.4,2.5
		h-0.4l-0.3-0.4c-0.8-1.2-1.9-2.2-3.3-2.7c-1.4-0.4-2.9-0.2-4.2,0.4c-1.4,0.6-2.8,1.4-4,2.3C192.2,123.6,190.9,124.5,189.8,125.7z"
		/>
	<path class="st11" d="M204.2,120.1c0.9-0.3,1.5-1.1,1.6-2c0.3-1,0-2-0.6-2.8c0.8,0.7,1.3,1.8,1.2,2.9c-0.1,1.2-0.7,2.3-1.7,3l0,0
		c-0.3,0.1-0.7,0.2-0.8-0.1C203.7,120.7,203.9,120.3,204.2,120.1C204.1,120.2,204.1,120.1,204.2,120.1z"/>
	<path class="st9" d="M183.8,121.2c0.1-2.3,0.5-4.6,1.2-6.8c0.7-2.2,1.6-4.4,2.7-6.5c2.4-4.1,5.6-7.7,9.4-10.4
		c2-1.3,4.1-2.4,6.3-3.2c2.3-0.8,4.8-1.2,7.2-1c2.6,0.1,5,1.4,6.5,3.4c1.4,2.1,1.6,4.7,0.6,6.9c0.3-2.2-0.4-4.4-1.8-6.1
		c-1.5-1.4-3.5-2.1-5.5-1.9c-2.1,0.1-4.1,0.5-6.1,1.3c-2,0.8-3.9,1.8-5.6,3.1c-1.8,1.2-3.5,2.6-5,4.2c-1.5,1.6-2.9,3.2-4.2,5
		c-1.2,1.8-2.4,3.7-3.4,5.7C185.4,117,184.6,119.1,183.8,121.2z"/>
	<path class="st8" d="M263.8,210.4l-66.3,2l-71.8-2l-12.4-4.4v29.5l0,0c0,3.8,22.4,7.1,53.8,8.4c9.5,0.3,19.6,0.6,30.3,0.6
		s20.9-0.1,30.3-0.6c31.4-1.2,53.7-4.6,53.7-8.4V206L263.8,210.4z"/>
	<path class="st6" d="M268.7,201.2c0.5,0.8,1,1.8,1.5,2.6c2.2,0.4,3.5,1,3.5,1.5c0,0.1-0.1,0.4-0.5,0.6c-0.5,0.2-1.1,0.4-1.7,0.6
		c-5.8,1.7-23.5,2.9-46.6,3.5c-8.5,0.1-17.8,0.3-27.5,0.3s-18.9-0.1-27.5-0.3c-23.2-0.6-41-1.9-46.7-3.5c-0.5-0.1-1-0.3-1.5-0.6
		c-0.3-0.1-0.6-0.4-0.6-0.6c0-0.6,1.3-1,3.5-1.5c0.6-0.8,1-1.8,1.5-2.6c-8.2,1.4-12.8,3.1-12.8,4.7c0,1.4,3.1,2.8,8.5,3.9
		c9.3,1.9,25.4,3.6,45.3,4.4c9.4,0.4,19.6,0.6,30.3,0.6s20.9-0.3,30.3-0.6c19.6-0.8,35.7-2.4,45.1-4.4c5.6-1.3,8.6-2.5,8.6-3.9
		C281.5,204.3,276.7,202.6,268.7,201.2z"/>
	<path class="st13" d="M269.2,195.5L269.2,195.5c0,1.5-1.1,2.9-2.6,3.1c-9,1.5-23.1,2.8-39.4,3.5c-9.6,0.4-19.6,0.6-29.9,0.6
		s-20.3-0.1-29.9-0.6c-18.1-0.7-33.2-2.2-42-3.9v-114c0-19,7.5-37.3,21-50.8c3.8-3.7,7.9-7.1,12.4-10c0.5-0.3,1.3-0.1,1.6,0.4
		c0.3,0.5,0.2,1-0.2,1.4l-0.1,0.1c-13.5,13.4-21.1,31.7-21,50.8v114c8.8,1.8,23.9,3.2,42,3.9c9.6,0.4,19.6,0.6,29.9,0.6
		s20.3-0.1,29.9-0.6c9.2-0.4,17.7-1,24.9-1.7c1.8-0.1,3.3,1.2,3.5,2.9C269.2,195.4,269.2,195.4,269.2,195.5z"/>
	<path class="st14" d="M197.4,2.5c45.1,0,81.6,36.6,81.6,81.6v121.3c-2.6,1.9-18.1,5-51.5,6.4c-9.9,0.4-20,0.6-30.3,0.6
		s-20.3-0.1-30.2-0.6c-33.4-1.4-48.8-4.6-51.4-6.4V84.1C115.8,39.1,152.4,2.6,197.4,2.5 M197.4,0.1L197.4,0.1
		c-46.5,0-84.1,37.7-84.1,84.1v121.8c0,3.8,22.3,7.1,53.8,8.4c9.5,0.4,19.6,0.6,30.3,0.6s20.9-0.3,30.3-0.6
		c31.4-1.3,53.7-4.6,53.7-8.4V84.3c0.1-46.4-37.5-84.1-83.9-84.1C197.5,0.1,197.5,0.1,197.4,0.1L197.4,0.1z"/>
	<path class="st15" d="M198.4,153.3c-1.5,2.2-3.6,3.9-6,5c-2.4,1-4.9,1.5-7.5,1.4c-2.4-0.1-4.8-0.4-7.1-1c-2-0.4-4.1-0.8-6-1
		s-3.8-0.3-5.5-0.4c-1.9,0.1-3.7-0.1-5.5-0.6c-1.8-0.4-3.5-1.3-4.9-2.5c-1.5-1.2-2.6-2.8-3.3-4.5c2.1,2.6,5.1,4.2,8.4,4.4
		c0.8,0.1,1.6,0.1,2.5,0c0.9,0,1.8-0.1,2.7-0.2c2-0.2,3.9-0.2,5.9,0.1c2.2,0.2,4.3,0.6,6.4,1.1c1.2,0.2,2.1,0.6,3.3,0.9
		c1.1,0.3,2.2,0.5,3.3,0.6C189.7,157.4,194.6,156.2,198.4,153.3z"/>
	<path class="st9" d="M167.5,167.1c1.2,0.5,2.3,1,3.6,1.3c1.2,0.3,2.4,0.5,3.6,0.7c1.2,0.1,2.3,0.1,3.5,0c1.2-0.2,2.5-0.4,3.7-0.6
		c-0.9,1.1-2,1.9-3.2,2.4c-1.3,0.5-2.6,0.6-4,0.5c-1.4-0.1-2.7-0.6-3.9-1.2C169.4,169.2,168.3,168.2,167.5,167.1z"/>
</g>
<path id="r-arm" class="st0" d="M256.6,271.2c-8.3,10.9-9.2,29.1-2.1,42.3c17.6,25,10.5,17.1-2.9,45.3c-4.1,8.7-1.7,23.2,4.4,30.1
	c3.7,4.1,8,7.2,9.7,4.4c1.5-10.2-7.2-21.9,5.6-28.2c19.1-9.4,43.8-26.7,41.9-50.4c-2.1-19.1-12.9-56-35.3-62.4
	C270.3,253.1,261,265.5,256.6,271.2z"/>
</svg>
