<?xml version="1.0" encoding="utf-8"?>
<!-- Generator: Adobe Illustrator 25.2.0, SVG Export Plug-In . SVG Version: 6.00 Build 0)  -->
<svg version="1.1" id="Layer_1" xmlns="http://www.w3.org/2000/svg" xmlns:xlink="http://www.w3.org/1999/xlink" x="0px" y="0px"
	 viewBox="0 0 382.1 561" style="enable-background:new 0 0 382.1 561;" xml:space="preserve">
<style type="text/css">
	.st0{fill:#F473C2;}
	.st1{fill:#F4A8D7;}
	.st2{fill:#491D87;}
	.st3{fill:none;stroke:#66419B;stroke-width:5.18;stroke-linecap:round;stroke-linejoin:round;}
	.st4{fill:#989898;}
	.st5{fill:#66419B;}
	.st6{fill:#C15B9A;}
	.st7{opacity:0.5;fill:#68DFE7;enable-background:new    ;}
	.st8{fill:#808080;}
	.st9{fill:#FFFFFF;}
	.st10{fill:#7A0406;}
	.st11{fill:#CD539D;}
	.st12{fill:#DB67AE;}
	.st13{fill:#A54E83;}
	.st14{opacity:0.5;fill:#FFFFFF;enable-background:new    ;}
	.st15{fill:#4AA6C0;}
</style>
<path id="b-leg" class="st0" d="M234.4,507.5c-0.1-10.1,2.7-20.1,4.9-30c4.8-24.1,14.6-104.1-15.9-99.1
	c-30.6-4.9-20.6,74.8-15.9,99.1c2.1,10,4.9,19.9,4.9,30c0,6.1-1.3,12.1-4,17.6c-4.6,8.9,3.8,19,15.1,18.4
	c11.2,0.5,19.6-9.5,15.1-18.4C235.7,519.6,234.3,513.6,234.4,507.5z"/>
<g id="leg1">
	<path class="st0" d="M176.7,468.6c-5.2,0.3-10.3,1-15.4,2.1c-2,0.5-3.9,1.1-5.8,1.8c-1.2,0.5-2.3,1-3.5,1.6c-0.6,0.2-1.1,0.6-1.6,1
		c-0.7,1-1.1,2.2-1.1,3.4c-0.1,2.2,0,4.4,0.3,6.5c0.4,2.5,1,5.3,1.7,8.3l2.5,9.5c1,3.7,1.7,7.4,2.3,11.2c0.3,2.2,0.5,4.5,0.5,6.7
		c0,2.7-0.3,5.4-0.9,8c-0.7,3-2,5.9-3.7,8.5c-1.7,2.5-3.8,4.7-6.3,6.4c-4.1,2.8-8.8,4.6-13.7,5.2c-4.5,0.6-9.2,0.3-13.6-0.9
		c-4.5-1.2-8.6-3.4-12.1-6.5c-3.5-3.2-6.1-7.4-7.2-12l-0.2-0.6c-0.1-1.9-0.6-3.7-1.4-5.4c-0.8-1.9-1.9-3.7-3.2-5.2
		c-1.3-1.5-2.8-2.8-4.6-3.7c-1.7-0.9-3.7-1.2-5.6-0.9h-0.2c-1.6,0.3-3.1-0.8-3.4-2.4c-0.2-1.3,0.5-2.6,1.7-3.1
		c3-1.4,6.4-1.9,9.6-1.3c3.2,0.6,6.3,1.8,8.9,3.7c2.6,1.8,5,3.9,7,6.4c2.1,2.6,3.8,5.5,4.9,8.7l-0.2-0.6c0.9,1.5,2.3,2.7,3.9,3.5
		c1.7,0.8,3.6,1.2,5.5,1.1c1.9,0,3.8-0.4,5.6-1.2c1.4-0.6,2.7-1.6,3.6-2.9c0.3-0.5,0.2-0.7,0.1-0.8c-0.2-0.1-0.3-0.3-0.3-0.5
		c-0.3-1.5-0.8-3-1.3-4.5c-0.8-2.2-1.9-4.7-3.1-7.4l-4-8.7c-1.4-3.1-2.8-6.4-4.1-10.1c-1.4-4-2.5-8.2-3.1-12.5
		c-0.7-5.3-0.5-10.6,0.7-15.8c1.4-5.7,4-11.1,7.8-15.7c3.3-4,7.1-7.6,11.4-10.5c3.7-2.5,7.6-4.6,11.6-6.4c7.1-3.1,14.5-5.6,22-7.4
		l0.4-0.1c11.8-3,23.9,4.2,26.9,16s-4.2,23.9-16,26.9l0,0C179.3,468.3,178,468.5,176.7,468.6z"/>
</g>
<g id="leg4">
	<path class="st0" d="M276.3,425.3c7.5,1.8,14.9,4.3,22,7.4c4.1,1.8,8,3.9,11.7,6.4c4.3,2.9,8.2,6.4,11.5,10.4
		c3.7,4.6,6.3,10,7.8,15.7c1.2,5.2,1.4,10.5,0.7,15.8c-0.6,4.2-1.6,8.4-3.1,12.5c-1.3,3.7-2.7,7-4.1,10.1l-4,8.7
		c-1.2,2.7-2.4,5.2-3.1,7.4c-0.5,1.5-0.9,3-1.3,4.5c0,0.2-0.1,0.4-0.3,0.5c-0.1,0.1-0.2,0.3,0.1,0.8c0.9,1.3,2.2,2.3,3.6,2.9
		c1.8,0.8,3.7,1.2,5.6,1.2c1.9,0,3.8-0.4,5.5-1.1c1.6-0.7,3-1.9,3.9-3.5l-0.2,0.6c1.1-3.1,2.8-6.1,4.9-8.7c2-2.5,4.4-4.6,7-6.4
		c2.7-1.9,5.7-3.1,8.9-3.7c3.3-0.6,6.6-0.1,9.6,1.3c1.4,0.7,2,2.5,1.3,3.9c-0.6,1.1-1.8,1.8-3,1.6h-0.2c-1.9-0.3-3.9,0.1-5.6,0.9
		c-1.7,0.9-3.3,2.2-4.6,3.7c-1.3,1.6-2.4,3.3-3.2,5.2c-0.8,1.7-1.3,3.5-1.4,5.4l-0.2,0.6c-1.2,4.6-3.7,8.8-7.2,12
		c-3.5,3.1-7.6,5.3-12.1,6.5c-4.4,1.2-9,1.5-13.6,0.9c-4.9-0.6-9.6-2.4-13.7-5.2c-2.5-1.7-4.6-3.9-6.3-6.4c-1.7-2.6-3-5.5-3.7-8.5
		c-0.6-2.6-0.9-5.3-0.9-8c0-2.2,0.2-4.5,0.5-6.7c0.6-3.7,1.3-7.5,2.3-11.1l2.5-9.5c0.7-3,1.4-5.7,1.7-8.3c0.4-2.2,0.5-4.3,0.3-6.5
		c0-1.2-0.4-2.4-1.1-3.4c-0.5-0.4-1-0.8-1.6-1c-1.1-0.6-2.3-1.2-3.5-1.6c-1.9-0.7-3.9-1.3-5.8-1.8c-5-1.1-10.2-1.8-15.3-2.1
		c-12.2-0.8-21.4-11.4-20.5-23.6c0.8-12.2,11.4-21.4,23.6-20.5c1.3,0.1,2.5,0.3,3.8,0.6L276.3,425.3z"/>
</g>
<g id="leg2">
	<path class="st1" d="M220.9,462.2c-5.1,2-10,4.5-14.7,7.4c-3.6,2.2-6.8,5-9.5,8.4c-1,1.4-1.8,2.9-2.4,4.5c-0.6,1.8-1,3.7-1.1,5.7
		c-0.2,4.4,0.7,9.9,2.4,16.1c0.9,3.1,1.9,6.4,2.9,9.9c1.2,3.9,2.2,7.9,2.9,12c0.4,2.6,0.7,5.2,0.6,7.8c0,3.2-0.6,6.5-1.7,9.5
		c-1.2,3.3-3.1,6.4-5.6,8.9c-2.1,2.1-4.5,3.9-7.2,5.2c-4.7,2.4-9.9,3.6-15.2,3.5c-5.1,0-10-1.2-14.5-3.5
		c-8.6-4.3-14.8-12.3-16.7-21.7l-0.2-0.6c-0.2-2.4-0.8-4.7-1.8-6.9c-1-2.4-2.4-4.6-4-6.7c-1.6-2-3.5-3.7-5.7-5.1
		c-2.1-1.3-4.6-2-7.1-1.9h-0.1c-1.7,0-3-1.4-2.9-3.1c0-1.2,0.8-2.3,2-2.7c3.7-1.1,7.6-1,11.2,0.1c3.6,1.1,6.9,2.8,9.8,5.1
		c2.9,2.2,5.4,4.9,7.6,7.8c2.3,3.1,4.1,6.6,5.3,10.3l-0.2-0.6c1.9,4.2,5.7,7.2,10.2,8.2c1.9,0.4,3.9,0.3,5.8-0.2
		c1.7-0.5,3.2-1.4,4.5-2.6c0.6-0.6,0.9-1,0.9-1.2s-0.3-0.1-0.4-0.1s-0.2-0.2-0.4-0.8s-0.4-1.5-0.9-2.5c-0.8-2.1-2.1-4.8-3.5-7.8
		s-3.1-6.1-4.6-9.5c-3.2-6.8-6.4-14.6-7.9-24.1c-0.8-5-0.8-10.1-0.2-15.1c0.7-5.2,2.1-10.4,4.2-15.2c2-4.6,4.6-9,7.7-13
		c2.8-3.7,6-7.1,9.4-10.3c6.2-5.7,13-10.8,20.2-15.1l0.5-0.3c10.6-6.6,24.5-3.3,31.1,7.3c6.6,10.6,3.3,24.5-7.3,31.1
		C223.3,461.1,222.1,461.7,220.9,462.2z"/>
</g>
<g id="leg3">
	<path class="st1" d="M247,422.3c7.2,4.4,14,9.5,20.2,15.2c3.4,3.2,6.5,6.6,9.4,10.3c3.1,4,5.7,8.4,7.7,13c2.1,4.8,3.6,10,4.2,15.2
		c0.6,5,0.5,10.1-0.2,15.1c-1.4,9.5-4.7,17.3-7.9,24.1c-1.6,3.4-3.2,6.5-4.6,9.5s-2.7,5.6-3.5,7.8c-0.4,1.1-0.7,2-0.9,2.5
		s-0.3,0.8-0.4,0.8s-0.4-0.2-0.4,0.1s0.3,0.7,0.9,1.2c1.3,1.2,2.8,2.1,4.5,2.6c1.9,0.5,3.9,0.6,5.8,0.2c4.5-1,8.3-4.1,10.2-8.3
		l-0.2,0.6c1.2-3.7,2.9-7.2,5.2-10.3c2.2-2.9,4.7-5.6,7.6-7.8c2.9-2.3,6.2-4.1,9.8-5.1c3.6-1.1,7.5-1.2,11.2-0.1
		c1.6,0.6,2.4,2.3,1.8,3.8c-0.4,1.2-1.5,1.9-2.7,2h-0.1c-2.5,0-5,0.6-7.1,1.9c-2.2,1.3-4.1,3-5.7,5.1c-1.6,2-3,4.3-4,6.7
		c-1,2.2-1.6,4.5-1.8,6.9l-0.2,0.6c-1.9,9.4-8.1,17.4-16.7,21.7c-4.5,2.3-9.5,3.5-14.5,3.5c-5.3,0-10.5-1.2-15.2-3.5
		c-2.7-1.3-5.1-3.1-7.2-5.2c-2.5-2.5-4.4-5.5-5.6-8.9c-1.1-3.1-1.7-6.3-1.7-9.5c0-2.6,0.2-5.2,0.6-7.8c0.7-4.1,1.7-8.1,2.9-12
		c1.1-3.6,2.1-6.8,2.9-9.9c1.7-6.2,2.7-11.7,2.4-16.1c-0.1-1.9-0.4-3.8-1.1-5.7c-0.6-1.6-1.4-3.1-2.4-4.5c-2.6-3.3-5.8-6.2-9.5-8.4
		c-4.7-2.9-9.6-5.4-14.7-7.4c-11.5-4.9-16.9-18.1-12-29.6c4.8-11.2,17.6-16.6,28.9-12.3c1.2,0.5,2.3,1,3.3,1.7L247,422.3z"/>
</g>
<g id="body">
	<path class="st2" d="M327,293c-0.1-17-4.4-33.8-12.6-48.7c-0.3-0.6-0.7-1.1-1-1.7c-5.2-8.6-11.6-16.5-19-23.2
		c-41.2-37.1-103.7-37.1-144.9,0c-6.8,6.1-12.8,13.2-17.7,21c-0.4,0.7-1,1.5-1.4,2.2c-13.8,23.1-17.5,50.8-10.3,76.8
		c2.1,7.5,5.1,14.7,8.8,21.4l37.3,74.5c36,12,75,12,111,0l36.6-73.1c3.5-6.1,6.4-12.6,8.6-19.3C325.4,313.2,327,303.1,327,293z"/>
	<path class="st3" d="M119.2,271.5L119.2,271.5c66.9,12.8,135.7,12.8,202.6,0l0,0"/>
	<path class="st4" d="M281.9,420.1v0.4c0,7.1-5,13.4-12.6,15.3c-31.3,8-64.1,8-95.4,0c-7.6-1.9-12.8-8.5-12.7-15.6
		c0-1.8,0-3.5-0.1-5.1c-0.1-1.4,0.9-2.7,2.4-2.9c0.3,0,0.7,0,1,0.1c12.2,3.6,53.1,12.8,114.6-0.4c1.4-0.3,2.7,0.6,3,1.9
		c0.1,0.3,0.1,0.6,0,0.8C282.1,416.4,281.9,418.3,281.9,420.1z"/>
	<path class="st5" d="M125.9,317.1L125.9,317.1c-0.9,1.5-2.5,2.4-4.2,2.4H120c-7.2-25.9-3.5-53.7,10.3-76.8c0.4-0.7,1-1.5,1.4-2.2
		c0.6,0,1.2,0.1,1.8,0.1l0,0c2.2,0.1,4,1.8,4.3,4l0.7,4C142.7,272.2,138.2,296.5,125.9,317.1z"/>
	<path class="st5" d="M327,293c0,10.1-1.6,20.2-4.6,29.9c-0.9,0.2-1.8,0.2-2.6,0.3h-0.6c-1.9,0-3.7-1.1-4.5-2.9
		c-9.5-21.8-11.7-46-6.2-69.1l0.7-3.1c0.5-2.3,2.6-3.9,5-3.8C322.6,259.2,327,275.9,327,293z"/>
	<path class="st5" d="M177.6,394.5l-8.1-19.5c-2.9-7-2.8-14.8,0.3-21.7l13.6-30.9c1.4-2.6,4.1-4.2,7.1-4.2h62.3
		c2.9,0,5.6,1.6,7.1,4.2l13.6,30.9c3.1,6.9,3.2,14.7,0.3,21.7l-8.1,19.5l0,0c-27.9,8.2-57.5,8.5-85.5,0.8L177.6,394.5z"/>
</g>
<g id="r-arm">
	<path class="st0" d="M319.2,318.3c20.3-2.1,54.1-10.9,58.3-71.2c1.3-17.9-9.7-39.8,3.9-56.2c1.4-1.7,0.8-4.2-1-4.4
		c-22.1-0.8-31.3,20.3-30.7,42.6c-1.1,22-16.3,28.9-32.1,22.7l-3.5-2.5l-0.7,3.1C308.1,274.4,310.2,297.5,319.2,318.3L319.2,318.3z"
		/>
	<path class="st6" d="M369.3,279.5c-0.6,1.2,0.8,2.6,2,2.1c1.2-0.7,2.1-1.6,2.8-2.8c0.9-1.2,1-2.7,0.4-4c-0.7-1.2-2.9-1.7-3.5-0.3
		C370.4,276.2,369.8,277.9,369.3,279.5L369.3,279.5z"/>
	<path class="st6" d="M372.6,202.5c-2.8,3.7-3.9,8.4-3.2,12.9c0.3,1.5,1.3,2.7,2.8,3.2c2.1,0.4,3.5-1.4,4-3.1
		c1.7-4.5,1-9.6-1.9-13.5l0,0C373.7,201.8,373,202,372.6,202.5z"/>
	<path class="st6" d="M376.4,226.4c-0.1-0.8-0.9-1.4-1.8-1.3c-0.5,0.1-0.9,0.4-1.2,0.9c-0.5,1.4-0.7,2.9-0.6,4.4
		c0.1,1.5,0.8,3.3,2.2,3.9s3.5-0.7,3.1-2.2C377.6,230.1,377.1,228.4,376.4,226.4L376.4,226.4z"/>
	<path class="st6" d="M368.8,224.9c0.3-1.4-1.7-2.8-2.8-2.1c-1,0.8-1.9,1.9-2.4,3.1c-0.6,1.5-0.3,3.3,0.8,4.4c1.2,1.4,3.8,1.5,4,0.1
		C368.5,228.6,368.7,226.7,368.8,224.9L368.8,224.9z"/>
	<path class="st6" d="M373.9,241.3c-1.2,1.7-1.9,3.7-1.9,5.7c0.1,1,0.6,1.9,1.2,2.6c2.8,2.5,6.5-0.7,6.5-3.9c0-2.4-1.4-4.4-3.1-6.2
		c-0.5-0.4-1.2-0.4-1.7,0l0,0C374.7,240,374.3,240.7,373.9,241.3z"/>
	<path class="st6" d="M367.3,236.3c-1.1,0.9-1.7,2.3-1.5,3.8c0.1,1,0.7,1.8,1.5,2.2c1.2,0.3,2.4-0.8,2.9-2c0.3-0.7,0.5-1.6,0.4-2.4
		c0-0.9-0.6-1.6-1.4-2c-0.8-0.3-1.7-0.1-2.2,0.6"/>
	<path class="st6" d="M373.7,257.3c-2.8,2.3-4.3,5.8-3.9,9.5c0.3,1.3,1.3,2.4,2.6,2.6c1.7,0.4,3.4-0.4,4.2-2c2-3.2,1.4-7.2-1.2-10.3
		l0,0C374.9,256.8,374.2,256.8,373.7,257.3z"/>
	<path class="st6" d="M369.5,255.3c1-1,0.1-3.2-1.2-3.2c-1.3,0.1-2.6,0.6-3.6,1.4c-1.3,1-1.9,2.6-1.7,4.2c0.3,1.8,2.4,3.3,3.3,2.2
		C367.3,258.4,368.4,256.9,369.5,255.3L369.5,255.3z"/>
	<path class="st6" d="M363.6,277.2c-1.8,1-3.6,2-4.6,3.9c-0.4,0.9-0.5,1.9-0.3,2.9c1,3.6,5.8,2.9,7.5,0.1c1.1-2.2,1.4-4.6,0.8-7
		c-0.1-0.6-0.6-1-1.2-0.9c-0.1,0-0.1,0-0.2,0l0,0C364.9,276.5,364.2,276.8,363.6,277.2z"/>
	<path class="st6" d="M359.7,269.5c-1.4,0.2-2.7,1.1-3.3,2.4c-0.5,0.9-0.5,2,0.1,2.8c0.8,1,2.5,0.6,3.5-0.1c0.7-0.5,1.3-1.1,1.7-1.8
		c0.3-0.8,0.3-1.6-0.1-2.4c-0.5-0.7-1.4-1-2.2-0.7"/>
	<circle class="st6" cx="366.5" cy="268.3" r="1.4"/>
</g>
<g id="l-arm">
	<path class="st6" d="M64.4,299c0.8-4.4,3.3-8.4,6.9-11.1c1.1-0.8,2.5-0.9,3.6,0c1.5,1.2,1,3.4,0.2,5.1c-1.8,4.1-5.6,7-10,7.6l0,0
		C64.6,300.2,64.3,299.6,64.4,299z"/>
	<path class="st6" d="M60.7,298.5c-2.1,2.1-4.8,3-7.2,2.2c-1-0.4-1.5-1.4-1.5-2.5c-0.1-1.4,0.7-2.7,1.9-3.2c2.5-1.3,5.3-0.5,7.1,2.1
		l0,0C61.1,297.6,61,298.1,60.7,298.5z"/>
	<path class="st6" d="M36.5,290.9c-0.7,0.8-1.9,1.2-3,1c-0.7-0.2-1.5-0.8-1.5-1.6c0-1.1,0.8-2,1.8-2.2c0.6-0.2,1.2-0.2,1.8-0.2
		c0.6,0.2,1.1,0.7,1.4,1.3c0.2,0.7-0.1,1.5-0.7,1.9"/>
	<path class="st6" d="M43.7,297.1c-1.2,0.3-2.5,0.3-3.7-0.2c-0.5-0.3-0.9-0.8-1.1-1.4c-0.8-2.4,1.9-4,3.7-3.3c1.4,0.8,2.4,2,2.9,3.5
		c0.2,0.4,0,0.9-0.4,1.1l0,0C44.6,296.7,44.1,296.9,43.7,297.1z"/>
	<path class="st0" d="M137.1,273.3c-2.4,38-46.1,80.3-91.8,55c-13.5-7.5-24.7-27.9-42.4-23.3c-1.2,0.3-2.5-0.4-2.8-1.7
		C0,302.9,0,302.4,0.2,302c9.1-20.4,28.5-18.6,44.5-7.4c14.1,8.1,25.9,2.2,32.9-11c4-7.9,9.1-15.2,15.2-21.6
		c9.1-9.4,22.2-19.6,35.1-18.7C127.8,243.1,138.6,239.7,137.1,273.3z"/>
	<path class="st6" d="M23.4,288.2c-1,0.1-1.6-1.5-0.8-2.2c0.8-0.6,1.7-1.1,2.7-1.3c1.1-0.3,2.3,0.1,3,1c0.7,1.1,0.2,2.8-0.9,2.8
		C26.1,288.5,24.8,288.4,23.4,288.2L23.4,288.2z"/>
	<path class="st6" d="M37.7,295.7c0.7,0.3,1,1.1,0.7,1.8c-0.2,0.3-0.4,0.6-0.8,0.7c-1.1,0.3-2.3,0.2-3.4,0c-1.3-0.3-2.3-1.2-2.5-2.5
		c-0.2-1.3,1-2.8,2.1-2.4C35.1,294.2,36.4,295,37.7,295.7z"/>
	<path class="st6" d="M47.6,298.9c1.2,0.3,1.6,2.6,0.5,3.4c-1,0.6-2.1,0.9-3.2,0.8c-1.5-0.1-2.7-1.1-3.1-2.5c-0.6-1.6,0.2-4,1.5-3.7
		C44.7,297.5,46.2,298.2,47.6,298.9L47.6,298.9z"/>
	<path class="st6" d="M54.6,301.7c0.5-0.4,1.6,0.4,1.5,1.2c-0.1,0.7-0.5,1.3-1.1,1.7c-0.6,0.6-1.5,0.7-2.2,0.2
		c-0.9-0.4-1.4-1.8-0.8-2.1C52.8,302.3,53.7,302,54.6,301.7L54.6,301.7z"/>
	<path class="st6" d="M62.8,300c0.7-0.5,1.9,0.4,1.7,1.4c-0.2,0.8-0.6,1.4-1.2,1.9c-0.7,0.7-1.8,0.9-2.6,0.3c-1-0.6-1.6-2-0.9-2.4
		C60.8,300.9,61.8,300.4,62.8,300z"/>
	<path class="st6" d="M26.5,291.7c0.8-0.7,2.5,0.2,2.3,1.5c-0.2,1.1-0.7,2.1-1.5,2.8c-0.8,1-2.2,1.4-3.4,0.9c-1.4-0.5-2.2-2.4-1.3-3
		C24,293.1,25.2,292.3,26.5,291.7L26.5,291.7z"/>
	<path class="st6" d="M14.4,289.3c-1.4,1.6-3.1,2.9-5,3.9c-0.9,0.4-1.9,0.6-2.8,0.5c-3.1-0.6-0.9-4.5,2.1-6c2.1-1.1,4.5-1.5,6.8-1.2
		c0.6,0.1,0.8,0.5,0.5,1l0,0C15.4,288.2,14.9,288.8,14.4,289.3z"/>
	<path class="st6" d="M17.5,295.2c-0.2,1.2-1.1,2.1-2.2,2.5c-0.7,0.3-1.6,0.2-2.1-0.4c-0.6-0.8-0.2-2.1,0.5-3c0.4-0.5,1-0.9,1.6-1.2
		c0.6-0.2,1.3-0.1,1.8,0.4c0.5,0.5,0.6,1.3,0.2,1.9"/>
	
		<ellipse transform="matrix(0.1385 -0.9904 0.9904 0.1385 -270.4176 268.8956)" class="st6" cx="19.3" cy="289.9" rx="1.1" ry="1.1"/>
</g>
<g id="head">
	<path class="st7" d="M305.8,205.3H137.6V84.1c0-46.5,37.7-84.1,84.1-84.1l0,0c46.5,0,84.1,37.7,84.1,84.1L305.8,205.3L305.8,205.3z
		"/>
	<path class="st4" d="M252.1,197.6c-9.4-0.4-19.6-0.6-30.3-0.6s-20.9,0.3-30.3,0.6c-31.4,1.2-53.8,4.6-53.8,8.3s22.2,7,53.8,8.4
		c9.4,0.4,19.6,0.6,30.3,0.6s20.9-0.3,30.3-0.6c31.4-1.2,53.7-4.6,53.7-8.4S283.5,199,252.1,197.6z M249.2,210.1
		c-8.5,0.1-17.8,0.3-27.5,0.3s-18.9-0.1-27.5-0.3c-25.9-0.7-44.9-2.2-48.3-4c-0.3-0.1-0.6-0.4-0.6-0.6c0-2.1,20.2-3.9,48.8-4.7
		c8.5-0.1,17.8-0.3,27.5-0.3s18.9,0.1,27.5,0.3c28.5,0.7,48.7,2.5,48.7,4.7c0,0.1-0.1,0.4-0.6,0.6
		C294.2,207.9,275.2,209.4,249.2,210.1L249.2,210.1z"/>
	<path class="st8" d="M298,205.4c0,2.1-20.2,3.9-48.7,4.7c-8.5,0.1-17.8,0.3-27.5,0.3s-18.9-0.1-27.5-0.3
		c-28.5-0.7-48.8-2.5-48.8-4.7s20.2-3.9,48.8-4.7c8.5-0.1,17.8-0.3,27.5-0.3s18.9,0.1,27.5,0.3C277.7,201.5,298,203.3,298,205.4z"/>
	<path class="st0" d="M290.1,204.9L290.1,204.9c-10.7-18.9-21.8-39.2-20.9-61c0.4-10.1,3.5-19.9,4.6-29.9s0-21-6.7-28.7
		c-5-5.7-12.5-8.8-17.5-14.6c-6.3-7.2-7.4-17.2-11.4-25.9c-1.4-3-3.3-5.6-5.6-7.9c-6-6-15.7-6-21.7,0c-2.4,2.2-4.3,4.9-5.6,7.9
		c-3.9,8.6-5.1,18.8-11.4,25.9c-5,5.8-12.5,8.9-17.5,14.6c-6.7,7.7-7.8,18.6-6.7,28.7s4.2,19.9,4.6,29.9c1,21.8-10.1,42.1-20.9,61
		h-0.1c-3.9,6.8-2.9,10.7-2.9,10.7H293C292.8,215.6,293.8,211.7,290.1,204.9z"/>
	<path class="st9" d="M209.5,125.9c0,6.8-3.2,12.4-7,12.4s-7-5.6-7-12.4c0-0.9,0-1.8,0.1-2.6c0.7-5.6,3.5-9.7,6.8-9.7
		C206.3,113.5,209.5,119,209.5,125.9z"/>
	<ellipse class="st10" cx="204.7" cy="123.9" rx="3.9" ry="6.9"/>
	<path class="st11" d="M210.5,125.9c0,0-10.3-12.9-15.7-3.1c0.8-6.4,4-11.3,7.8-11.3C206.9,111.5,210.5,117.9,210.5,125.9z"/>
	<path class="st10" d="M210.5,125.9c-1.2-1.1-2.4-2-3.8-2.9c-1.3-0.9-2.6-1.6-4-2.2c-1.3-0.6-2.8-0.7-4.2-0.3
		c-1.3,0.6-2.5,1.5-3.2,2.8l-0.3,0.4h-0.4c-1.5-0.2-2.7-1.1-3.5-2.4c-0.3-0.6-0.4-1.3-0.4-2c0-0.7,0.2-1.4,0.6-1.9
		c-0.3,1.2,0,2.5,0.7,3.5c0.7,0.9,1.8,1.4,2.9,1.4l-0.6,0.3c0.8-1.6,2.1-2.8,3.8-3.5c1.7-0.5,3.5-0.4,5.1,0.3
		c1.5,0.7,2.9,1.7,4.2,2.8C208.6,123.2,209.6,124.5,210.5,125.9z"/>
	<path class="st10" d="M195.4,121.8c-1-0.7-1.6-1.7-1.8-2.9c-0.1-1.1,0.3-2.2,1.1-2.9c-0.5,0.8-0.7,1.8-0.6,2.8
		c0.3,0.8,0.9,1.5,1.7,1.9c0.3,0.1,0.6,0.6,0.4,0.8S195.6,122.1,195.4,121.8C195.5,122,195.4,122,195.4,121.8z"/>
	<path class="st12" d="M216.4,121.3c-0.8-2.1-1.7-4.2-2.8-6.3c-1-2-2.2-3.8-3.6-5.6c-1.3-1.7-2.8-3.3-4.3-4.9
		c-1.6-1.5-3.3-2.9-5.1-4c-1.8-1.2-3.7-2.1-5.7-2.9c-1.9-0.8-4-1.2-6.1-1.1c-2-0.1-4,0.7-5.4,2.1c-1.4,1.7-2,3.9-1.7,6.1
		c-1-2.3-0.8-4.9,0.4-7c1.5-2.1,3.8-3.4,6.4-3.6c2.4-0.2,4.9,0.1,7.2,0.8c2.2,0.7,4.4,1.8,6.4,3c4,2.6,7.3,6.1,9.7,10.2
		c1.3,2,2.2,4.1,2.9,6.4C215.6,116.7,216.2,118.9,216.4,121.3z"/>
	<path class="st9" d="M233.9,125.9c0,6.8,3.2,12.4,7,12.4s6.9-5.6,6.9-12.4c0-0.9,0-1.8-0.1-2.6c-0.7-5.6-3.5-9.7-6.8-9.7
		C237.1,113.5,233.9,119,233.9,125.9z"/>
	<ellipse class="st10" cx="238.7" cy="123.9" rx="3.9" ry="6.9"/>
	<path class="st11" d="M232.9,125.9c0,0,10.3-12.9,15.7-3.1c-0.8-6.4-4-11.3-7.8-11.3C236.5,111.5,232.9,117.9,232.9,125.9z"/>
	<path class="st10" d="M232.9,125.9c0.8-1.4,1.9-2.6,3.2-3.6c1.2-1.2,2.6-2.1,4.2-2.8c1.6-0.8,3.5-0.9,5.1-0.3
		c1.6,0.7,2.9,1.9,3.8,3.5l-0.6-0.3c1.1,0,2.2-0.5,2.9-1.4c0.7-1,1-2.3,0.7-3.5c0.3,0.6,0.5,1.3,0.6,1.9c0,0.7-0.1,1.4-0.4,2
		c-0.8,1.2-2,2.1-3.5,2.4h-0.4l-0.3-0.4c-0.7-1.2-1.9-2.2-3.2-2.8c-1.4-0.4-2.9-0.3-4.2,0.3c-1.4,0.6-2.8,1.3-4,2.2
		C235.4,123.9,234.1,124.8,232.9,125.9z"/>
	<path class="st10" d="M247.5,120.7c0.9-0.3,1.5-1,1.7-1.9c0.3-1,0.1-2-0.6-2.8c0.8,0.8,1.2,1.8,1.1,2.9c-0.1,1.2-0.8,2.3-1.8,2.9
		l0,0c-0.3,0.1-0.7,0.1-0.8-0.1C247,121.3,247.1,120.9,247.5,120.7C247.4,120.8,247.4,120.7,247.5,120.7z"/>
	<path class="st12" d="M227.1,121.3c0.2-2.3,0.7-4.6,1.4-6.8c0.8-2.2,1.8-4.4,2.9-6.4c2.5-4,5.8-7.5,9.7-10.2c2-1.3,4.1-2.3,6.4-3.1
		c2.3-0.8,4.8-1.1,7.2-0.8c2.6,0.2,4.9,1.5,6.4,3.6c1.3,2.1,1.5,4.7,0.4,7c0.3-2.2-0.3-4.4-1.7-6.1c-1.4-1.4-3.4-2.2-5.4-2.1
		c-2.1,0-4.2,0.4-6.1,1.1c-2,0.7-3.9,1.7-5.7,2.9c-1.8,1.2-3.6,2.5-5.1,4c-1.5,1.5-3,3.1-4.3,4.9c-1.2,1.8-2.5,3.6-3.6,5.6
		C228.7,117.1,227.9,119.2,227.1,121.3z"/>
	<path class="st13" d="M247.1,152.4c-1.2,2.1-3,3.9-5.1,5.1c-2.2,1.2-4.6,2-7.1,2.2c-2.5,0.2-4.9,0.2-7.4-0.1
		c-2.2-0.1-4.6-0.3-6.8-0.3s-4.6,0.1-6.8,0.3c-2.4,0.3-4.9,0.4-7.4,0.1c-2.5-0.2-4.9-1-7.1-2.2c-2.2-1.2-4-3-5.1-5.1
		c3.5,3.2,8.1,4.3,12.5,4.3c1.1,0,2.2-0.1,3.3-0.3c1.2-0.1,2.3-0.3,3.5-0.6c2.4-0.4,4.8-0.6,7.2-0.6c2.4,0,4.8,0.2,7.2,0.6
		c1.3,0.1,2.2,0.4,3.5,0.6c1.1,0.2,2.2,0.3,3.3,0.3C239.3,157,243.8,155.5,247.1,152.4z"/>
	<path class="st12" d="M212.3,170.8c1.4,0.4,2.8,0.8,4.2,1c1.4,0.2,2.8,0.3,4.2,0.3c1.3,0,2.7-0.1,4-0.4c1.4-0.3,2.8-0.7,4.2-1.1
		c-1,1.2-2.2,2.2-3.6,2.9c-1.4,0.7-3,1-4.6,1c-1.6,0-3.1-0.3-4.6-0.8C214.6,172.9,213.3,172,212.3,170.8z"/>
	<path class="st12" d="M225.8,79.4c2.2-1,4.9-2.6,6.8-0.7c2.2,2.1,1.5,7.2-0.4,9.9c-3.1,4.2-8.1,4.2-12.4,3.8
		c-2.1-0.3-4.2-0.6-6-1.8c-3.3-2.2-5.8-9.6-1.4-11.8C215.8,76.9,221.6,81.4,225.8,79.4z"/>
	<path class="st12" d="M204.1,65.6c-0.7,1.4-1.7,3.1-0.8,4.4s2.5,0.8,3.9,0.3c1.3-0.5,2.5-1.2,3.6-2.1c1.1-0.9,1.8-2.3,1.8-3.8
		c-0.1-1.5-0.8-2.9-1.8-4C205.6,54.7,205.9,62.2,204.1,65.6z"/>
	<path class="st12" d="M239,65.6c0.7,1.4,1.7,3.1,0.8,4.4s-2.5,0.8-3.9,0.3c-1.3-0.5-2.5-1.2-3.6-2.1c-1.1-0.9-1.8-2.3-1.8-3.8
		c0.1-1.5,0.7-2.9,1.8-4C237.5,54.7,237.4,62.2,239,65.6z"/>
	<path class="st12" d="M226.1,61.5c-0.1-2.1,0-4.9-1.8-5.6s-3.5,1.2-4.6,2.9c-1.1,1.6-2.1,3.3-2.8,5.2c-0.7,1.9-0.6,4,0.3,5.8
		c1.1,1.6,2.7,2.6,4.6,2.9C231.2,75,226.4,66.9,226.1,61.5z"/>
	<path class="st12" d="M231.5,48.5c-0.7-0.1-1.4,0.1-1.9,0.4c-0.6,0.3-1.1,1-1.1,1.7c0.1,0.5,0.2,1,0.4,1.4l1.1,2.2
		c0.3,0.7,1.1,1.1,1.9,0.8c0.1-0.1,0.3-0.1,0.4-0.2c0.8-0.6,1.4-1.6,1.5-2.6c0.3-1.7-1-3.6-2.5-3.5"/>
	<path class="st12" d="M230.7,42.1c-0.3,0-0.7,0-1,0.1c-0.3,0.1-0.5,0.5-0.6,0.8c0,0.3,0.1,0.5,0.3,0.7l0.6,1.1
		c0.2,0.4,0.6,0.5,1,0.3c0,0,0.1,0,0.1-0.1c0.4-0.3,0.7-0.8,0.7-1.4c0.1-0.8-0.4-1.6-1.2-1.8"/>
	<path class="st12" d="M209.7,51.7c0.5,0.6,1.1,1.1,1.8,1.5c0.8,0.3,1.8,0.1,2.4-0.5c0.4-0.5,0.7-1.1,0.8-1.7l1.1-3
		c0.4-1.2-0.1-2.5-1.3-2.5c-1.2-0.1-2.5,0.2-3.5,1c-1.7,1.4-2.5,4.3-1.1,5.6"/>
	<path class="st12" d="M218.3,41.6c0.6,0.9,1.2,1.8,1.8,2.6c0.8,1.5,0.3,3.3,0.3,5.2c0,0.4,0,0.8,0.1,1.1c0.2,0.3,0.5,0.5,0.8,0.6
		c0.4,0,0.7-0.4,0.8-0.8c0.8-1.5,1.7-2.9,2.5-4.5c0.6-1,1.1-2.1,1.3-3.2c0.3-2-1.5-4.9-3.6-5.3C220,36.8,217.3,39.1,218.3,41.6z"/>
	<path class="st8" d="M288.1,210.4l-66.3,2l-71.8-2l-12.4-4.4v29.5l0,0c0,3.8,22.4,7.1,53.8,8.3c9.4,0.3,19.6,0.6,30.3,0.6
		s20.9-0.1,30.3-0.6c31.4-1.2,53.7-4.6,53.7-8.3V206L288.1,210.4z"/>
	<path class="st4" d="M293,201.2c0.6,0.8,1,1.8,1.5,2.6c2.2,0.4,3.5,1,3.5,1.5c0,0.1-0.1,0.4-0.6,0.6c-0.5,0.2-1.1,0.4-1.7,0.6
		c-5.8,1.7-23.5,2.9-46.6,3.5c-8.5,0.1-17.8,0.3-27.5,0.3s-18.9-0.1-27.5-0.3c-23.2-0.6-41-1.9-46.7-3.5c-0.5-0.1-1-0.3-1.5-0.6
		c-0.3-0.1-0.6-0.4-0.6-0.6c0-0.6,1.2-1,3.5-1.5c0.6-0.8,1-1.8,1.5-2.6c-8.2,1.4-12.8,3.1-12.8,4.7c0,1.4,3.1,2.8,8.5,3.9
		c9.3,1.9,25.4,3.6,45.3,4.4c9.5,0.4,19.6,0.6,30.3,0.6s20.9-0.3,30.3-0.6c19.6-0.8,35.7-2.4,45.1-4.4c5.6-1.3,8.6-2.5,8.6-3.9
		C305.8,204.3,301,202.6,293,201.2z"/>
	<path class="st14" d="M293.5,195.5L293.5,195.5c0,1.6-1.1,2.9-2.6,3.1c-9,1.5-23.1,2.8-39.4,3.5c-9.6,0.4-19.6,0.6-29.9,0.6
		s-20.3-0.1-29.9-0.6c-18.1-0.7-33.2-2.2-42-3.9v-114c0-19,7.5-37.3,21-50.8c3.8-3.7,7.9-7.1,12.4-10c0.5-0.3,1.2-0.2,1.6,0.4
		c0.3,0.5,0.2,1.1-0.2,1.4l-0.1,0.1c-13.5,13.4-21.1,31.7-21,50.8v114c8.8,1.8,23.9,3.2,42,3.9c9.6,0.4,19.6,0.6,29.9,0.6
		c10.1,0,20.3-0.1,29.9-0.6c9.2-0.4,17.7-1,24.9-1.7c1.8-0.1,3.3,1.2,3.5,2.9C293.5,195.4,293.5,195.4,293.5,195.5z"/>
	<path class="st15" d="M221.8,2.5c45.1,0,81.6,36.6,81.6,81.6v121.3c-2.6,1.9-18.1,5-51.5,6.4c-9.9,0.4-20,0.6-30.3,0.6
		s-20.3-0.1-30.2-0.6c-33.4-1.4-48.8-4.6-51.5-6.4V84.1C140,39.2,176.7,2.5,221.8,2.5 M221.8,0.1L221.8,0.1
		c-46.5,0-84.1,37.7-84.1,84.1v121.8c0,3.8,22.2,7.1,53.8,8.4c9.4,0.4,19.6,0.6,30.3,0.6s20.9-0.3,30.3-0.6
		c31.4-1.3,53.7-4.6,53.7-8.4V84.3c0.1-46.4-37.5-84.1-83.9-84.1C221.9,0.1,221.8,0.1,221.8,0.1L221.8,0.1z"/>
</g>
</svg>
