<?xml version="1.0" encoding="utf-8"?>
<!-- Generator: Adobe Illustrator 25.2.0, SVG Export Plug-In . SVG Version: 6.00 Build 0)  -->
<svg version="1.1" id="Layer_1" xmlns="http://www.w3.org/2000/svg" xmlns:xlink="http://www.w3.org/1999/xlink" x="0px" y="0px"
	 viewBox="0 0 283.2 567.6" style="enable-background:new 0 0 283.2 567.6;" xml:space="preserve">
<style type="text/css">
	.st0{fill:#F473C2;}
	.st1{fill:#F4A8D7;}
	.st2{fill:#C15B9A;}
	.st3{fill:#491D87;}
	.st4{fill:none;stroke:#66419B;stroke-width:5.18;stroke-linecap:round;stroke-linejoin:round;}
	.st5{fill:#66419B;}
	.st6{fill:#989898;}
	.st7{opacity:0.5;fill:#68DFE7;enable-background:new    ;}
	.st8{fill:#808080;}
	.st9{fill:#DB67AE;}
	.st10{fill:#FFFFFF;}
	.st11{fill:#7A0406;}
	.st12{fill:#CD539D;}
	.st13{fill:#4AA6C0;}
	.st14{opacity:0.5;fill:#FFFFFF;enable-background:new    ;}
	.st15{clip-path:url(#SVGID_2_);}
	.st16{fill:#A54E83;}
</style>
<g id="leg1">
	<path class="st0" d="M95.8,475.2c-5.2,0.3-10.3,1-15.3,2.1c-2,0.5-3.9,1.1-5.8,1.8c-1.2,0.5-2.3,1-3.5,1.6c-0.6,0.2-1.1,0.6-1.6,1
		c-0.7,1-1.1,2.2-1.1,3.4c-0.1,2.2,0,4.4,0.3,6.5c0.4,2.5,1,5.3,1.7,8.3l2.4,9.5c1,3.7,1.7,7.4,2.3,11.1c0.3,2.2,0.5,4.5,0.5,6.7
		c0,2.7-0.3,5.4-0.9,8c-0.7,3-2,5.9-3.7,8.5c-1.7,2.5-3.8,4.7-6.3,6.4c-4.1,2.8-8.8,4.6-13.7,5.2c-4.5,0.6-9.2,0.3-13.6-0.9
		c-4.5-1.2-8.6-3.5-12-6.5c-3.5-3.2-6.1-7.4-7.2-12l-0.2-0.6c-0.1-1.9-0.6-3.7-1.4-5.4c-0.8-1.9-1.9-3.7-3.2-5.2
		c-1.3-1.5-2.8-2.7-4.6-3.7c-1.7-0.9-3.7-1.2-5.6-0.9H3.3c-1.6,0.2-3.1-0.9-3.3-2.5c-0.2-1.2,0.5-2.4,1.6-3c3-1.4,6.4-1.9,9.6-1.3
		c3.2,0.6,6.3,1.8,9,3.7c2.6,1.8,5,3.9,7,6.4c2.1,2.6,3.7,5.6,4.8,8.7l-0.2-0.6c0.9,1.5,2.3,2.7,3.9,3.5c1.7,0.8,3.6,1.2,5.5,1.1
		c1.9,0,3.8-0.4,5.6-1.2c1.5-0.6,2.7-1.6,3.6-2.9c0.3-0.5,0.2-0.7,0.1-0.8c-0.2-0.1-0.3-0.3-0.3-0.5c-0.3-1.5-0.7-3-1.3-4.5
		c-0.8-2.2-1.9-4.7-3.1-7.4l-4-8.7c-1.4-3.1-2.8-6.4-4.1-10.1c-1.4-4-2.5-8.2-3.1-12.5c-0.7-5.3-0.5-10.6,0.7-15.8
		c1.4-5.8,4-11.1,7.7-15.8c3.3-4,7.2-7.6,11.5-10.4c3.7-2.5,7.6-4.6,11.6-6.4c7.1-3.1,14.5-5.6,22-7.4l0.4-0.1
		c11.8-3,23.8,4.2,26.8,16c3,11.8-4.2,23.8-16,26.8C98.4,474.9,97.1,475.1,95.8,475.2z"/>
</g>
<g id="leg4">
	<path class="st0" d="M194.9,431.9c7.5,1.8,14.9,4.3,22,7.4c4.1,1.8,8,3.9,11.6,6.4c4.4,2.9,8.2,6.4,11.5,10.4
		c3.7,4.6,6.4,10,7.8,15.7c1.2,5.2,1.4,10.5,0.7,15.8c-0.6,4.3-1.6,8.5-3.1,12.5c-1.3,3.7-2.7,7-4.1,10.1l-4,8.7
		c-1.2,2.7-2.3,5.2-3.1,7.4c-0.5,1.5-0.9,3-1.3,4.5c0,0.2-0.2,0.4-0.3,0.5c-0.1,0.1-0.2,0.3,0.1,0.8c0.9,1.3,2.2,2.3,3.6,2.9
		c1.8,0.8,3.7,1.2,5.6,1.2c1.9,0,3.8-0.4,5.5-1.1c1.6-0.7,3-1.9,3.9-3.5l-0.2,0.6c1.1-3.1,2.8-6.1,4.9-8.7c2-2.5,4.4-4.6,7-6.4
		c2.7-1.8,5.7-3.1,9-3.7c3.3-0.6,6.6-0.1,9.6,1.3c1.4,0.7,2,2.5,1.3,3.9c-0.6,1.1-1.8,1.8-3,1.6h-0.2c-1.9-0.3-3.9,0.1-5.6,0.9
		c-1.8,0.9-3.3,2.2-4.6,3.7c-1.3,1.6-2.4,3.3-3.2,5.2c-0.8,1.7-1.3,3.5-1.4,5.4l-0.2,0.6c-1.2,4.6-3.7,8.8-7.2,12
		c-3.5,3.1-7.6,5.3-12.1,6.5c-4.4,1.2-9,1.5-13.6,0.9c-4.9-0.6-9.6-2.4-13.7-5.2c-2.5-1.7-4.6-3.9-6.3-6.4c-1.7-2.6-3-5.5-3.7-8.5
		c-0.6-2.6-0.9-5.3-0.9-8c0-2.2,0.2-4.5,0.5-6.7c0.6-3.7,1.3-7.5,2.3-11.1l2.5-9.5c0.7-3,1.4-5.8,1.7-8.3c0.4-2.2,0.5-4.3,0.3-6.5
		c0-1.2-0.4-2.4-1.1-3.4c-0.5-0.4-1-0.8-1.6-1c-1.1-0.6-2.3-1.2-3.5-1.6c-1.9-0.7-3.9-1.3-5.8-1.8c-5-1.1-10.2-1.8-15.3-2.1
		c-12.2-0.9-21.3-11.5-20.4-23.6c0.9-12.2,11.5-21.3,23.6-20.4c1.2,0.1,2.5,0.3,3.7,0.6L194.9,431.9z"/>
</g>
<g id="leg2">
	<path class="st1" d="M140,468.8c-5.1,2-10,4.5-14.7,7.4c-3.6,2.2-6.8,5-9.5,8.4c-1,1.4-1.8,2.9-2.4,4.5c-0.6,1.8-1,3.7-1.1,5.7
		c-0.2,4.4,0.7,9.9,2.4,16.1c0.8,3.1,1.9,6.4,2.9,9.9c1.2,3.9,2.2,7.9,2.9,12c0.4,2.6,0.7,5.2,0.6,7.8c0,3.3-0.6,6.5-1.7,9.6
		c-1.2,3.3-3.1,6.3-5.6,8.9c-2.1,2.1-4.5,3.9-7.2,5.2c-4.7,2.4-9.9,3.6-15.2,3.5c-5.1,0-10-1.2-14.6-3.5
		c-8.6-4.3-14.8-12.3-16.7-21.7l-0.2-0.6c-0.2-2.4-0.8-4.7-1.8-6.9c-1-2.4-2.4-4.7-4-6.7c-1.6-2-3.5-3.7-5.7-5.1
		c-2.1-1.3-4.6-2-7.1-1.9h-0.1c-1.7,0-3-1.4-2.9-3.1c0-1.3,0.8-2.4,2-2.8c3.7-1,7.6-1,11.2,0.1c3.6,1.1,6.9,2.8,9.8,5.1
		c2.9,2.2,5.5,4.9,7.6,7.8c2.3,3.1,4.1,6.6,5.2,10.3l-0.2-0.6c1.9,4.2,5.7,7.2,10.2,8.2c1.9,0.4,3.9,0.3,5.8-0.2
		c1.7-0.5,3.2-1.4,4.5-2.6c0.6-0.6,0.9-1,0.9-1.2s-0.3-0.1-0.4-0.1s-0.2-0.2-0.4-0.8s-0.4-1.5-0.8-2.5c-0.8-2.1-2.1-4.8-3.5-7.8
		s-3-6.1-4.6-9.5c-3.2-6.8-6.4-14.6-7.9-24.1c-0.7-5-0.8-10.1-0.2-15.1c0.6-5.2,2.1-10.4,4.2-15.2c2-4.6,4.6-9,7.7-13
		c2.8-3.7,6-7.2,9.4-10.3c6.2-5.7,13-10.8,20.2-15.2l0.5-0.3c10.6-6.6,24.5-3.3,31.1,7.3c6.6,10.6,3.3,24.5-7.3,31.1
		C142.3,467.7,141.2,468.3,140,468.8z"/>
</g>
<g id="leg3">
	<path class="st1" d="M166.1,428.9c7.2,4.4,14,9.4,20.2,15.1c3.4,3.2,6.6,6.6,9.4,10.3c3.1,4,5.7,8.4,7.7,13
		c2.1,4.8,3.5,10,4.2,15.2c0.6,5,0.5,10.1-0.2,15.1c-1.4,9.5-4.7,17.3-7.9,24.1c-1.6,3.4-3.2,6.5-4.6,9.5s-2.7,5.6-3.5,7.8
		c-0.4,1.1-0.7,2-0.9,2.5s-0.3,0.8-0.4,0.8s-0.4-0.2-0.4,0.1s0.3,0.7,0.9,1.2c1.3,1.2,2.8,2.1,4.5,2.6c1.9,0.5,3.9,0.6,5.8,0.2
		c4.5-1,8.2-4.1,10.2-8.2l-0.2,0.6c1.2-3.7,2.9-7.2,5.3-10.3c2.2-2.9,4.7-5.6,7.6-7.8c2.9-2.3,6.2-4.1,9.8-5.1
		c3.7-1.1,7.5-1.2,11.2-0.1c1.6,0.5,2.4,2.3,1.8,3.8c-0.4,1.2-1.5,2-2.8,2h-0.1c-2.5,0-5,0.6-7.1,1.9c-2.2,1.3-4.1,3-5.7,5.1
		c-1.6,2-3,4.3-4,6.7c-1,2.2-1.6,4.5-1.8,6.9l-0.2,0.6c-1.9,9.4-8.1,17.4-16.7,21.7c-4.5,2.3-9.5,3.5-14.6,3.5
		c-5.3,0-10.5-1.2-15.2-3.5c-2.7-1.3-5.1-3.1-7.2-5.2c-2.5-2.5-4.4-5.5-5.6-8.9c-1.1-3.1-1.7-6.3-1.7-9.5c0-2.6,0.2-5.2,0.6-7.8
		c0.7-4.1,1.7-8.1,2.9-12c1.1-3.6,2.1-6.8,2.9-9.9c1.7-6.2,2.7-11.7,2.4-16.1c-0.1-1.9-0.4-3.9-1.1-5.7c-0.6-1.6-1.4-3.1-2.4-4.5
		c-2.6-3.3-5.8-6.2-9.5-8.4c-4.7-2.9-9.6-5.4-14.7-7.4c-11.6-4.7-17.2-17.8-12.5-29.4s17.8-17.2,29.4-12.5c1.2,0.5,2.3,1,3.3,1.7
		L166.1,428.9z"/>
</g>
<g id="b-arm">
	<path class="st0" d="M29.5,289.9c-4.8-2.6-9.3-5.8-13.4-9.5c-13.6-12.5-23.9-32.8-1.4-77.9c8-16.1,28.6-29.4,25.1-50.4
		c-0.4-2.1,1.4-4,3.1-3.4c19.5,10.5,16.7,33.4,4.9,52.3c-10.2,19.5-0.6,33.2,16.2,35.8l4.3-0.4l-1,3c-6.7,21.7,7,51.9-11.2,65.3
		L29.5,289.9z"/>
	<path class="st2" d="M5.4,234.6c-0.1,0.9-0.9,1.5-1.8,1.3c-0.4-0.1-0.7-0.2-1-0.5c-0.7-1.2-1-2.5-1-3.8c-0.2-1.4,0.5-2.9,1.7-3.7
		c1.2-0.7,3.4,0,3.1,1.5C6.1,231.1,5.7,232.9,5.4,234.6L5.4,234.6z"/>
	<path class="st2" d="M41.5,166.5c0.5,4.6-0.9,9.2-3.8,12.8c-1,1.2-2.5,1.7-4,1.4c-2-0.7-2.3-3-1.9-4.7c0.8-4.8,4.1-8.8,8.5-10.6
		l0,0C41,165.3,41.5,165.8,41.5,166.5z"/>
	<path class="st2" d="M26.2,185.2c0.5-0.7,1.5-0.8,2.2-0.2c0.4,0.3,0.6,0.8,0.6,1.3c-0.3,1.5-0.9,2.9-1.8,4.1
		c-0.9,1.2-2.4,2.5-3.9,2.2s-2.6-2.4-1.5-3.5C23.2,187.8,24.6,186.5,26.2,185.2L26.2,185.2z"/>
	<path class="st2" d="M33.4,187.7c0.5-1.3,2.8-1.6,3.5-0.4c0.5,1.2,0.7,2.5,0.5,3.8c-0.2,1.6-1.4,3-3,3.4c-1.8,0.6-4-0.6-3.5-1.9
		C31.8,191.1,32.6,189.3,33.4,187.7L33.4,187.7z"/>
	<path class="st2" d="M20.8,199.3c0.2,2-0.3,4.1-1.3,5.8c-0.6,0.8-1.5,1.4-2.4,1.6c-3.7,0.8-5.3-3.9-3.7-6.7c1.2-2,3.5-3.1,5.8-3.8
		c0.6-0.1,1.2,0.2,1.4,0.9l0,0C20.7,197.8,20.7,198.6,20.8,199.3z"/>
	<path class="st2" d="M29,198.3c0.5,1.3,0.3,2.8-0.6,4c-0.6,0.8-1.5,1.2-2.5,1.1c-1.2-0.4-1.6-1.9-1.5-3.2c0.1-0.8,0.4-1.6,0.8-2.2
		c0.5-0.7,1.3-1.1,2.2-1c0.8,0.1,1.5,0.8,1.6,1.6"/>
	<path class="st2" d="M12.8,213.2c1.3,3.4,0.8,7.2-1.4,10.1c-0.9,1-2.3,1.4-3.6,0.9c-1.7-0.5-2.8-2.1-2.6-3.8
		c-0.1-3.8,2.5-6.9,6.3-8.2l0,0C12.1,212.1,12.7,212.5,12.8,213.2z"/>
	<path class="st2" d="M17.4,213.6c-0.4-1.3,1.5-2.8,2.7-2.1c1.1,0.8,1.9,1.8,2.4,3c0.6,1.5,0.4,3.2-0.7,4.4c-1.1,1.4-3.7,1.7-4,0.2
		C17.8,217.3,17.6,215.4,17.4,213.6L17.4,213.6z"/>
	<path class="st2" d="M11.5,235.4c1.1,1.8,2.1,3.5,2,5.7c-0.1,1-0.5,1.9-1.2,2.7c-2.7,2.6-6.5-0.4-6.6-3.7c0.1-2.4,1.1-4.7,2.8-6.4
		c0.4-0.4,1-0.5,1.5-0.1c0,0,0.1,0.1,0.1,0.1l0,0C10.6,234.2,11.1,234.8,11.5,235.4z"/>
	<path class="st2" d="M18.7,230.8c1.1,0.9,1.7,2.3,1.7,3.7c0,1-0.6,1.9-1.5,2.3c-1.2,0.4-2.4-0.8-2.9-1.9c-0.4-0.7-0.5-1.6-0.5-2.4
		c0.1-0.8,0.6-1.6,1.3-2c0.8-0.4,1.7-0.1,2.3,0.5"/>
	<circle class="st2" cx="13.5" cy="226.3" r="1.4"/>
</g>
<g id="body">
	<path class="st3" d="M252.6,296.4c0,10.1-1.6,20.2-4.6,29.9c-2.2,6.7-5,13.2-8.6,19.3l-36.6,73.1c-36,12-75,12-111,0l-9.5-18.9
		l-27.8-55.6c-3.8-6.8-6.7-14-8.8-21.4c0-0.2-0.1-0.3-0.1-0.5c-7.1-25.8-3.3-53.4,10.5-76.3c0.4-0.7,1-1.5,1.4-2.2
		c4.9-7.8,10.8-14.9,17.7-21c41.2-37.1,103.7-37.1,144.9,0c7.5,6.8,13.9,14.6,19,23.2c0.3,0.6,0.7,1.1,1,1.7
		C248.2,262.6,252.6,279.3,252.6,296.4z"/>
	<path class="st4" d="M46,274.8L46,274.8c66.9,12.8,135.7,12.8,202.6,0l0,0"/>
	<path class="st5" d="M97.7,378.4l-8,21.9c-2.5,0.3-5,0.2-7.3-0.5l-27.8-55.6c-3.8-6.8-6.7-14-8.8-21.4c0-0.2-0.1-0.3-0.1-0.5
		l-0.9-3.5l32,2.8c2.9,0,5.6,1.6,7.1,4.2l13.6,30.9C100.5,363.6,100.6,371.4,97.7,378.4z"/>
	<path class="st5" d="M150,252.1c2.2,1.4,4.3,3.1,6.2,4.8c0.4,0.4,0.9,0.8,1.3,1.2l1.2,1.2c0.8,0.8,1.5,1.6,2.2,2.4
		c2.6,2.9,4.9,6.2,6.8,9.6c3.2,5.9,5,12.5,5.3,19.3c0.3,6.7-1.3,13.4-4.5,19.3c-1.9,3.5-4.2,6.7-6.9,9.6c-0.8,0.8-1.6,1.6-2.4,2.4
		s-1.7,1.6-2.7,2.4c-2.1,1.8-4.3,3.4-6.7,4.8c-1.6,1-3.7,1-5.3,0c-2.4-1.4-4.6-3-6.7-4.8c-1-0.8-1.8-1.6-2.7-2.4s-1.6-1.6-2.4-2.4
		c-2.7-2.9-5-6.2-6.9-9.6c-3.2-5.9-4.7-12.6-4.5-19.3c0.3-6.8,2.1-13.4,5.4-19.3c1.9-3.5,4.2-6.7,6.8-9.6c0.7-0.8,1.4-1.6,2.2-2.4
		l1.2-1.2c0.4-0.4,0.9-0.8,1.3-1.2c1.9-1.8,4-3.4,6.2-4.8C146.3,251,148.4,251,150,252.1z"/>
	<path class="st6" d="M207.6,423.5v0.4c0,7.1-5,13.4-12.6,15.3c-31.3,8-64.1,8-95.4,0c-7.7-1.9-12.8-8.5-12.7-15.6
		c0-1.8,0-3.5-0.1-5.1c-0.1-1.4,0.9-2.7,2.4-2.9c0.3,0,0.6,0,0.9,0.1c12.2,3.6,53.1,12.8,114.6-0.4c1.4-0.3,2.7,0.6,3,1.9
		c0.1,0.3,0.1,0.6,0,0.8C207.7,419.7,207.6,421.7,207.6,423.5z"/>
</g>
<g id="head">
	<path class="st7" d="M231.3,205.3H63.2V84.1C63.2,37.7,100.9,0,147.3,0l0,0c46.5,0,84.1,37.7,84.1,84.1L231.3,205.3L231.3,205.3z"
		/>
	<path class="st6" d="M177.6,197.6c-9.4-0.4-19.6-0.6-30.3-0.6s-20.9,0.3-30.3,0.6c-31.4,1.2-53.8,4.6-53.8,8.4s22.2,7,53.8,8.4
		c9.5,0.4,19.6,0.6,30.3,0.6s20.9-0.3,30.3-0.6c31.4-1.2,53.7-4.6,53.7-8.4S209.1,199,177.6,197.6z M174.7,210.1
		c-8.5,0.1-17.8,0.3-27.5,0.3s-18.9-0.1-27.5-0.3c-25.9-0.7-44.9-2.2-48.3-4c-0.3-0.1-0.6-0.4-0.6-0.6c0-2.1,20.2-3.9,48.8-4.7
		c8.5-0.1,17.8-0.3,27.5-0.3s18.9,0.1,27.5,0.3c28.5,0.7,48.7,2.5,48.7,4.7c0,0.1-0.1,0.4-0.6,0.6
		C219.8,207.9,200.7,209.4,174.7,210.1L174.7,210.1z"/>
	<path class="st6" d="M231.3,206c0,3.8-22.2,7.1-53.7,8.4c-9.4,0.4-19.6,0.6-30.3,0.6s-20.9-0.3-30.3-0.6
		c-31.4-1.3-53.8-4.6-53.8-8.4s22.2-7.1,53.8-8.3c9.5-0.4,19.6-0.6,30.3-0.6s20.9,0.3,30.3,0.6C209.1,199,231.3,202.2,231.3,206z"/>
	<path class="st8" d="M223.6,205.4c0,2.1-20.2,3.9-48.7,4.7c-8.5,0.1-17.8,0.3-27.5,0.3s-18.9-0.1-27.5-0.3
		c-28.5-0.7-48.8-2.5-48.8-4.7s20.2-3.9,48.8-4.7c8.5-0.1,17.8-0.3,27.5-0.3s18.9,0.1,27.5,0.3C203.2,201.5,223.6,203.3,223.6,205.4
		z"/>
	<path class="st9" d="M112.2,125.9c0,7.4,3.5,13.5,7.8,13.5s7.8-6,7.8-13.5c0-1,0-2-0.1-2.9c-0.7-6-3.9-10.6-7.7-10.6
		C115.6,112.4,112.2,118.5,112.2,125.9z"/>
	<path class="st0" d="M215.6,204.9c-10.7-18.9-21.8-39.2-20.9-61c0.4-10.1,3.5-19.9,4.6-29.9s0-21-6.7-28.7
		c-5-5.7-12.5-8.8-17.5-14.6c-3.1-3.6-5-7.9-6.5-12.4c-1.7-4.9,2.8-9.8,7.7-8.3h0.1c2.5,0.8,4.7,2.2,7.1,3.1
		c0.8,0.3,1.5,0.5,2.4,0.6c1.6,0.2,3.1-0.9,3.3-2.5c0.1-0.7-0.1-1.4-0.5-2c-8-11.6-18.1-18.6-42-16.8l0,0c-3.8,0.2-7.4,1.8-10.1,4.5
		c-2.4,2.2-4.3,4.9-5.6,7.9c-3.9,8.6-5.2,18.8-11.4,25.9c-3,3.4-6.8,5.9-10.5,8.6c-2.6,1.7-4.9,3.7-7,6c-0.9,1-1.7,2.1-2.4,3.3
		c-4.5,7.3-5.2,16.7-4.2,25.3c1.1,10,4.2,19.9,4.6,29.9c1,21.8-10.2,42.1-20.9,61H79c-4,6.9-3,10.8-3,10.8h142.5
		C218.4,215.6,219.4,211.7,215.6,204.9z"/>
	<path class="st10" d="M108.2,125.9c0,6.8,3.2,12.4,7,12.4s6.9-5.6,6.9-12.4c0-0.9,0-1.8-0.1-2.6c-0.7-5.6-3.5-9.7-6.8-9.7
		C111.4,113.5,108.2,119,108.2,125.9z"/>
	<ellipse class="st11" cx="113" cy="123.9" rx="3.9" ry="6.9"/>
	<path class="st12" d="M107.2,125.9c0,0,10.3-12.9,15.7-3.1c-0.8-6.4-4-11.3-7.8-11.3C110.8,111.5,107.2,117.9,107.2,125.9z"/>
	<path class="st11" d="M107.2,125.9c0.8-1.4,1.9-2.6,3.2-3.6c1.2-1.2,2.6-2.1,4.2-2.8c1.6-0.8,3.5-0.9,5.2-0.3
		c1.6,0.7,2.9,1.9,3.8,3.5l-0.6-0.3c1.1,0,2.2-0.5,2.9-1.4c0.7-1,1-2.3,0.7-3.5c0.3,0.6,0.5,1.3,0.6,1.9c0,0.7-0.1,1.4-0.4,2
		c-0.8,1.2-2,2.1-3.5,2.4h-0.4l-0.3-0.4c-0.7-1.2-1.9-2.2-3.2-2.8c-1.4-0.4-2.9-0.3-4.2,0.3c-1.4,0.6-2.8,1.3-4,2.2
		C109.7,123.9,108.4,124.8,107.2,125.9z"/>
	<path class="st11" d="M121.8,120.7c0.9-0.3,1.5-1,1.7-1.9c0.3-1,0.1-2-0.6-2.8c0.8,0.8,1.2,1.8,1.1,2.9c-0.1,1.2-0.8,2.3-1.8,2.9
		l0,0c-0.3,0.1-0.7,0.1-0.8-0.1C121.2,121.3,121.4,120.9,121.8,120.7C121.7,120.8,121.7,120.7,121.8,120.7z"/>
	<path class="st9" d="M101.3,121.3c0.2-2.3,0.7-4.6,1.4-6.8c0.8-2.2,1.8-4.4,2.9-6.4c2.5-4,5.8-7.5,9.7-10.2c2-1.3,4.2-2.3,6.4-3.1
		c2.3-0.8,4.8-1.1,7.2-0.8c2.6,0.2,4.9,1.5,6.4,3.6c1.3,2.1,1.5,4.7,0.4,7c0.3-2.2-0.3-4.4-1.7-6.1c-1.4-1.4-3.4-2.2-5.4-2.1
		c-2.1,0-4.2,0.4-6.1,1.1c-2,0.7-3.9,1.7-5.7,2.9c-1.8,1.2-3.6,2.5-5.2,4c-1.5,1.5-3,3.1-4.3,4.9c-1.2,1.8-2.5,3.6-3.6,5.6
		C103,117.1,102.2,119.2,101.3,121.3z"/>
	<path class="st9" d="M117.3,91.1c-4.7,3.6-10.2,2-14.9,0.2l-2.3-1c-1.1-0.5-1.6-1.7-1.1-2.8c0.1-0.2,0.2-0.4,0.4-0.6l1.5-1.7
		c1.9-2.1,4.1-4.1,6.5-5.8c1-0.7,2.2-0.9,3.3-0.6c0.8,0.2,1.7,0.3,2.6,0.2c2.8-0.4,6.2-1.4,7.8,1.4
		C122.7,83.4,120.3,88.8,117.3,91.1z"/>
	<path class="st9" d="M138.2,71c0,1.6,0.2,3.5-1.2,4.4s-2.6-0.3-3.6-1.4c-1-1-1.8-2.2-2.4-3.5c-0.6-1.3-0.6-2.8,0-4.2
		c0.7-1.3,1.9-2.3,3.4-2.9C141.6,60.4,138.2,67.1,138.2,71z"/>
	<path class="st9" d="M128.3,61.6c0.8-1.9,2.1-4.4,0.8-5.8s-3.7-0.4-5.4,0.7c-1.7,1-3.3,2.1-4.7,3.4c-1.3,1.5-2.4,3.5-2.3,5.4
		c0.3,1.9,1.3,3.5,2.9,4.6C127.2,76,126.2,66.6,128.3,61.6z"/>
	<path class="st9" d="M138.8,52.3c-0.6-0.4-1.3-0.5-1.9-0.5c-0.7,0-1.4,0.4-1.7,1c-0.2,0.5-0.2,1-0.2,1.4v2.5c0,0.8,0.6,1.5,1.4,1.5
		c0.1,0,0.3,0,0.4,0c1-0.2,1.9-0.8,2.5-1.7c1-1.4,0.7-3.7-0.8-4.2"/>
	<path class="st9" d="M140.8,46.2c-0.3-0.2-0.6-0.3-0.9-0.3c-0.4,0-0.7,0.2-0.9,0.5c-0.1,0.2-0.1,0.4-0.1,0.7v1.2
		c0,0.4,0.3,0.7,0.8,0.7c0,0,0.1,0,0.1,0c0.6-0.1,1-0.5,1.2-1c0.5-0.7,0.3-1.7-0.4-2.2"/>
	<path class="st9" d="M129.9,40.3c0.1,1.1,0.3,2.1,0.5,3.2c0.1,1.7-1.2,3.1-2,4.8c-0.2,0.3-0.3,0.7-0.4,1.1c0,0.4,0.2,0.7,0.5,0.9
		c0.4,0.2,0.8-0.1,1.1-0.4c1.4-1,2.8-1.9,4.2-2.9c1-0.6,1.8-1.4,2.5-2.3c1.1-1.6,0.7-5.1-1-6.3C133.4,36.8,130.1,37.6,129.9,40.3z"
		/>
	<path class="st8" d="M213.7,210.4l-66.3,2l-71.8-2L63.2,206v29.5l0,0c0,3.8,22.4,7.1,53.8,8.3c9.5,0.3,19.6,0.6,30.3,0.6
		s20.9-0.1,30.3-0.6c31.4-1.2,53.7-4.6,53.7-8.3V206L213.7,210.4z"/>
	<path class="st6" d="M218.5,201.2c0.6,0.8,1,1.8,1.5,2.6c2.2,0.4,3.5,1,3.5,1.5c0,0.1-0.1,0.4-0.6,0.6c-0.5,0.3-1.1,0.4-1.7,0.6
		c-5.8,1.7-23.5,2.9-46.6,3.5c-8.5,0.1-17.8,0.3-27.5,0.3s-18.9-0.1-27.5-0.3c-23.2-0.6-41-1.9-46.7-3.5c-0.5-0.1-1-0.3-1.5-0.5
		c-0.3-0.1-0.6-0.4-0.6-0.6c0-0.6,1.2-1,3.5-1.5c0.6-0.8,1-1.8,1.5-2.6c-8.2,1.4-12.8,3.1-12.8,4.7c0,1.4,3.1,2.8,8.5,3.9
		c9.3,1.9,25.4,3.6,45.3,4.4c9.5,0.4,19.6,0.6,30.3,0.6s20.9-0.3,30.3-0.6c19.6-0.8,35.8-2.4,45.1-4.4c5.6-1.3,8.6-2.5,8.6-3.9
		C231.3,204.3,226.6,202.6,218.5,201.2z"/>
	<path class="st13" d="M147.3,2.5c45.1,0,81.6,36.6,81.7,81.6v121.3c-2.6,1.9-18.1,5-51.5,6.4c-9.9,0.4-20,0.6-30.3,0.6
		s-20.3-0.1-30.2-0.6c-33.4-1.4-48.8-4.6-51.5-6.4V84.1C65.6,39.2,102.3,2.5,147.3,2.5 M147.4,0.1L147.4,0.1
		c-46.5,0-84.2,37.7-84.2,84.1v121.8c0,3.8,22.2,7.1,53.8,8.4c9.5,0.4,19.6,0.6,30.3,0.6s20.9-0.3,30.3-0.6
		c31.4-1.3,53.7-4.6,53.7-8.4V84.3c0.1-46.4-37.5-84.1-83.9-84.1C147.4,0.1,147.4,0.1,147.4,0.1L147.4,0.1z"/>
	<path class="st14" d="M219.1,195.5L219.1,195.5c0,1.6-1.1,2.9-2.6,3.1c-9,1.5-23.1,2.8-39.4,3.5c-9.6,0.4-19.6,0.6-29.9,0.6
		s-20.3-0.1-29.9-0.6c-18.1-0.7-33.2-2.2-42-3.9v-114c0-19,7.5-37.3,21-50.8c3.8-3.7,7.9-7.1,12.4-10c0.5-0.3,1.2-0.2,1.6,0.4
		c0.3,0.5,0.2,1.1-0.2,1.4l-0.1,0.1c-13.5,13.4-21.1,31.7-21,50.8v114c8.8,1.8,23.9,3.2,42,3.9c9.6,0.4,19.6,0.6,29.9,0.6
		c10.1,0,20.3-0.1,29.9-0.6c9.2-0.4,17.7-1,24.9-1.7c1.8-0.1,3.3,1.2,3.5,2.9C219.1,195.4,219.1,195.4,219.1,195.5z"/>
	<g>
		<defs>
			<path id="SVGID_1_" d="M215.6,204.9c-10.7-18.9-21.8-39.2-20.9-61c0.4-10.1,3.5-19.9,4.6-29.9s0-21-6.7-28.7
				c-5-5.7-12.5-8.8-17.5-14.6c-3.1-3.6-5-7.9-6.5-12.4c-1.7-4.9,2.8-9.8,7.7-8.3h0.1c2.5,0.8,4.7,2.2,7.1,3.1
				c0.8,0.3,1.5,0.5,2.4,0.6c1.6,0.2,3.1-0.9,3.3-2.5c0.1-0.7-0.1-1.4-0.5-2c-8-11.6-18.1-18.6-42-16.8l0,0
				c-3.8,0.2-7.4,1.8-10.1,4.5c-2.4,2.2-4.3,4.9-5.6,7.9c-3.9,8.6-5.2,18.8-11.4,25.9c-3,3.4-6.8,5.9-10.5,8.6c-2.6,1.7-4.9,3.7-7,6
				c-0.9,1-1.7,2.1-2.4,3.3c-4.5,7.3-5.2,16.7-4.2,25.3c1.1,10,4.2,19.9,4.6,29.9c1,21.8-10.2,42.1-20.9,61H79c-4,6.9-3,10.8-3,10.8
				h142.5C218.4,215.6,219.4,211.7,215.6,204.9z"/>
		</defs>
		<clipPath id="SVGID_2_">
			<use xlink:href="#SVGID_1_"  style="overflow:visible;"/>
		</clipPath>
		<g class="st15">
			<path class="st16" d="M126.3,152.4c-1.2,2.1-3,3.9-5.2,5.1c-2.2,1.2-4.6,2-7.1,2.2c-2.5,0.2-4.9,0.2-7.4-0.1
				c-2.2-0.1-4.6-0.3-6.8-0.3s-4.6,0.1-6.8,0.3c-2.4,0.3-4.9,0.4-7.4,0.1c-2.5-0.2-4.9-1-7.1-2.2c-2.2-1.2-4-3-5.2-5.1
				c3.5,3.2,8.1,4.3,12.5,4.3c1.1,0,2.2-0.1,3.3-0.3c1.2-0.1,2.3-0.3,3.5-0.6c2.4-0.4,4.8-0.6,7.2-0.6c2.4,0,4.8,0.2,7.2,0.6
				c1.3,0.1,2.2,0.4,3.5,0.6c1.1,0.2,2.2,0.3,3.3,0.3C118.6,157,123,155.5,126.3,152.4z"/>
			<path class="st9" d="M91.6,170.8c1.4,0.4,2.8,0.8,4.2,1c1.4,0.2,2.8,0.3,4.2,0.3c1.3,0,2.7-0.1,4-0.4c1.4-0.3,2.8-0.7,4.2-1.1
				c-1,1.2-2.2,2.2-3.6,2.9c-1.4,0.7-3,1-4.6,1c-1.6,0-3.1-0.3-4.6-0.8C93.9,172.9,92.6,172,91.6,170.8z"/>
		</g>
	</g>
	<path class="st0" d="M99.9,148.4c0,0-6.1,2.4-0.6,6.9l8.9-1.5l-0.2-4.8L99.9,148.4z"/>
	<path class="st0" d="M98.7,159.4c0,0-10.2,5.2-2.9,12.4l12.1-6.2l-1-4.2L98.7,159.4z"/>
</g>
<path id="f-arm" class="st0" d="M139,263c-15,10-21.1,29.4-13.9,45.9c0.2,0.5,0.4,0.9,0.7,1.4c7.6,15.6,23.7,26.5,25.9,43.9
	c1.6,12-11.4,31.4-14.9,42.8s-3,24.8,4.5,33.7c4.5,5.3,10,9.5,12.6,6.2c2.7-3.4-1.1-14.4-1.5-19c-0.6-6.7,2.5-13.1,6.5-18
	s8.9-8.9,13.2-13.6c13.6-15,25.7-40.3,25.6-61.7c-0.1-15.9-5.7-28.8-15.6-43.7c-4.8-7.5-11.3-13.7-19-18.2
	c-4.6-2.7-15.8-5.2-15.8-5.2L139,263z"/>
</svg>
