<?xml version="1.0" encoding="utf-8"?>
<!-- Generator: Adobe Illustrator 25.2.0, SVG Export Plug-In . SVG Version: 6.00 Build 0)  -->
<svg version="1.1" id="Layer_1" xmlns="http://www.w3.org/2000/svg" xmlns:xlink="http://www.w3.org/1999/xlink" x="0px" y="0px"
	 viewBox="0 0 229.7 579.5" style="enable-background:new 0 0 229.7 579.5;" xml:space="preserve">
<style type="text/css">
	.st0{fill:#F473C2;}
	.st1{fill:#F4A8D7;}
	.st2{fill:#F486CA;}
	.st3{fill:#DB67AE;}
	.st4{fill:#491D87;}
	.st5{fill:none;stroke:#66419B;stroke-width:5.18;stroke-linecap:round;stroke-linejoin:round;}
	.st6{fill:#66419B;}
	.st7{fill:#989898;}
	.st8{opacity:0.5;fill:#68DFE7;enable-background:new    ;}
	.st9{fill:#808080;}
	.st10{fill:#FFFFFF;}
	.st11{fill:#7A0406;}
	.st12{fill:#CD539D;}
	.st13{opacity:0.5;fill:#FFFFFF;enable-background:new    ;}
	.st14{fill:#4AA6C0;}
	.st15{fill:#A54E83;}
</style>
<g id="legs">
	<path class="st0" d="M112.1,575L112.1,575c-12.2-2-22.2-13.6-22.2-26V429.4l44.4,7.4v119.6C134.2,568.7,124.3,577,112.1,575z"/>
	<path class="st0" d="M28.8,540.7c4.9,5,10,7.7,15.3,8.6c2.6,0.4,5.3,0.5,7.9,0.3c1.3-0.1,2.5-0.4,3.9-0.5c0.8-0.3,1.6-0.6,2.3-1.1
		c2.9-1.8,5.8-5.8,7.8-10.7c1-2.5,1.8-5.1,2.3-7.8c0.3-1.4,0.5-2.9,0.6-4.3c0.2-1.5,0.4-3.1,0.4-4.6c0.3-6.6,0.1-13.2-0.6-19.8
		c-0.1-1.7-0.4-3.5-0.5-5.3l-0.6-5.6c-0.2-2.2-0.4-4-0.5-6l-0.5-5.8c-1.2-15.6-2.3-31.1-3.2-46.7l0,0c-0.7-13.8,8.5-25.7,20.5-26.6
		s22.5,9.7,23.2,23.5v3.1c-0.8,15.3-1.9,30.6-3.2,46l-0.5,5.7c-0.1,1.8-0.4,3.9-0.4,5.6l-0.4,6l-0.4,6.3c-0.5,8.9-1.9,17.8-4,26.4
		c-0.6,2.2-1.2,4.5-2,6.7s-1.6,4.5-2.4,6.7c-1.9,4.5-4.2,8.8-7,12.8c-2.8,4-6.1,7.6-9.8,10.7c-3.9,3.3-8.4,5.6-13.4,6.8
		c-2.5,0.6-5.1,0.8-7.7,0.7c-2.1-0.2-4.2-0.5-6.2-1.1c-4.1-1.1-8.1-2.8-11.7-5.1c-3.7-2.4-6.8-5.6-9.4-9.2c-2.5-3.6-4.4-7.7-5.5-12
		c-0.5-1.9,0.5-3.9,2.3-4.6C26.8,539.5,28,539.8,28.8,540.7L28.8,540.7z"/>
	<path class="st0" d="M219.9,549.7c-3.4,0.4-6.7,1.5-9.6,3.4c-3.1,2.1-6,4.4-8.8,6.9c-3.6,3.1-7.5,5.9-11.6,8.3
		c-2.8,1.5-5.8,2.7-8.8,3.4c-1.8,0.4-3.6,0.6-5.5,0.7c-1.7,0-3.4,0-5-0.1c-6.4-0.6-12.5-2.6-18-5.9c-5-2.9-9.5-6.5-13.4-10.7
		c-3.7-3.9-7-8.3-9.6-13c-2.5-4.5-4.5-9.3-6.1-14.2c-2.9-9-4.8-18.3-5.5-27.8c-0.5-4.4-0.8-8.9-0.9-13l-0.2-2.7l-0.3-3l-0.6-6
		c-1.5-16-2.9-32.2-4-48.2c-0.9-14.2,10.5-26.5,25.7-27.4s28.2,9.9,29.1,24.2v3.1c-1.1,16.3-2.4,32.6-4,49l-0.6,6.1l-0.3,3l-0.4,3.3
		c-0.6,3.9-1.1,7.6-1.5,11.2c-0.8,6.8-1,13.6-0.4,20.5c0.3,3,0.8,6,1.5,9c0.8,2.8,1.8,5.5,3.2,8c1.3,2.4,2.9,4.5,4.9,6.4
		c1.6,1.6,3.4,2.8,5.5,3.7c0.5,0.1,0.9,0.3,1.4,0.6c0.3,0.2,0.6,0.3,0.9,0.3c1.2,0.1,2.4,0,3.5-0.3c3-0.6,6.7-2.2,11-3.7
		c4.6-1.9,9.3-3.3,14.2-4.2c2.7-0.5,5.4-0.5,8.1-0.3c2.7,0.2,5.3,0.9,7.8,2c1.9,0.8,2.7,3,1.9,4.8c0,0.1-0.1,0.1-0.1,0.2
		c-0.7,1.2-1.8,2-3.2,2.2L219.9,549.7z"/>
	<path class="st1" d="M32.8,559.1c1.6-1.4,3.4-2.6,5.3-3.5c1.9-1,4-1.7,6.1-2.1c4.2-0.8,8.6-0.7,12.8,0.3c3.8,1,7.6,2.2,11.3,3.6
		c1.7,0.7,3.4,1.2,4.7,1.7s2.7,0.7,3,0.4c0.9-0.9,1.8-1.9,2.6-2.9c1.5-2.3,2.7-4.8,3.5-7.4c2.1-6,2.8-12.5,3.2-19.9
		c0.2-7.5,0-14.9-0.7-22.4c-0.4-3.9-0.7-7.8-1.1-11.8c-0.2-2.2-0.4-4.3-0.5-6.4l-0.5-6.3c-1.2-16.5-2.3-33.1-3-49.8l0,0
		c-0.6-12.7,7.8-23.4,18.8-24.1s20.4,8.9,21,21.5v2.6c-0.8,16.4-1.9,32.8-3,49.2l-0.5,6.1c-0.1,2.1-0.4,4.2-0.4,6
		c-0.2,4.2-0.5,8.5-0.7,12.9c-0.6,9-1.8,18-3.7,26.9c-1.8,9-4.9,18.6-9.8,27.1c-2.6,4.5-5.8,8.7-9.6,12.2c-2.2,2-4.7,3.6-7.4,4.7
		c-1.5,0.6-3,1-4.6,1.2c-0.8,0.1-1.6,0.2-2.4,0.1c-0.9,0.1-1.7,0-2.6-0.3c-2.6-0.5-5.2-1.5-7.4-2.9c-1.9-1.1-3.5-2.2-5.1-3.3
		c-3-2.1-5.8-4.2-8.6-5.7c-2.7-1.5-5.6-2.6-8.6-3.2c-1.5-0.3-3.1-0.3-4.6-0.1c-1.6,0.1-3.2,0.4-4.7,0.8h-0.1c-1.6,0.4-3-0.7-3.4-2.5
		C31.4,561.1,31.8,559.8,32.8,559.1z"/>
	<path class="st2" d="M190.4,561.7c-3.6-0.1-7.1,0.7-10.4,2.2c-3.2,1.6-6.3,3.6-9.1,5.9c-1.5,1.1-3.2,2.4-5.2,3.9
		c-2.2,1.5-4.5,2.8-7,3.9c-1.6,0.7-3.2,1.1-4.9,1.4c-1,0.2-1.9,0.3-2.9,0.3H148c-3.5-0.3-7-1.2-10.2-2.7c-2.7-1.3-5.3-3-7.6-5
		c-2.1-1.8-4-3.7-5.8-5.7c-3.2-3.9-6-8-8.4-12.5c-1.1-2.2-2.1-4.3-3.1-6.6c-0.4-1.2-0.9-2.3-1.2-3.3l-1.1-3.3
		c-1.4-4.4-2.4-8.7-3.3-13.2c-1.7-8.5-2.8-17.1-3.3-25.8l-0.5-6.3c-0.2-2.1-0.2-3.7-0.5-5.9l-1.1-12c-1.4-16-2.6-31.9-3.5-47.8
		c-0.8-12.2,9.1-22.5,21.9-23.2s23.9,8.6,24.7,20.6v2.6l0,0c-0.9,16.2-2.1,32.2-3.5,48.4l-1.1,12c-0.2,2-0.5,4.3-0.6,6.2l-0.6,5.7
		c-0.8,7.4-1.3,14.8-1.2,22.2c0,3.6,0.3,7.2,0.6,10.6l0.3,2.6c0.1,0.9,0.3,1.6,0.5,2.4c0.3,1.6,0.6,3.3,1.1,4.9c0.9,3,2,5.9,3.5,8.7
		c1.2,2.3,2.7,4.3,4.6,6c0.6,0.5,1.2,0.9,1.8,1.3l0.3,0.2c0.1,0.1,0.2,0.1,0.3,0.1c0.4,0.1,0.8,0.1,1.2,0c1.6-0.3,3.1-0.7,4.6-1.3
		l5.8-2.3c4.5-2,9.3-3.3,14.2-3.9c5.1-0.6,10.2,0.2,14.9,2.3c1.7,0.7,2.5,2.6,1.8,4.3c0,0.1-0.1,0.2-0.1,0.3c-0.7,1.2-2,1.9-3.4,1.9
		H190.4z"/>
</g>
<g id="b-arm">
	<path class="st3" d="M29.1,321.6c3.9,0,7.5-1.9,9.7-5.2c0.8-1.2,1-2.8,0.5-4.1c-0.8-2-2.6-1.9-4-1.5c-3.6,1.2-6.4,4.9-7.2,9.6l0,0
		C28.1,320.9,28.5,321.4,29.1,321.6z"/>
	<path class="st3" d="M29.1,325.9c-2,2-2.9,4.9-2.6,7.7c0.1,1,0.8,1.9,1.8,2.3c1.2,0.4,2.4-0.2,2.8-1.4c1.3-2.8,1-6.1-0.9-8.6l0,0
		C29.9,325.7,29.4,325.7,29.1,325.9z"/>
	<path class="st3" d="M32.5,355.4c-0.8,0.9-1.2,2-1.1,3.2c0.1,0.8,0.5,1.9,1.1,2.1c0.9,0.4,1.7-0.5,2-1.6c0.2-0.7,0.3-1.4,0.3-2
		c-0.1-0.7-0.4-1.4-0.9-1.9C33.4,354.8,32.8,354.9,32.5,355.4c-0.1,0-0.1,0.1-0.1,0.1"/>
	<path class="st3" d="M28.3,345.7c-0.4,1.4-0.5,2.9-0.2,4.3c0.2,0.6,0.5,1.2,1,1.6c1.8,1.4,3.4-1.2,3-3.5c-0.4-1.6-1.2-3.1-2.4-4.2
		c-0.3-0.3-0.7-0.2-0.9,0.2l0,0C28.7,344.7,28.5,345.2,28.3,345.7z"/>
	<path class="st0" d="M57.8,244.7c-30.7-6.4-69.6,33.3-54.4,91.5c4.5,17.3,19.6,34.9,14,54.1c-0.6,1.9,0.7,4.2,2.1,3.8
		c17.3-5.5,18.1-28.1,10.9-49c-5.7-21,3.8-32,18.1-30.5l0,0c9.8-19.2,13.3-42.6,9.9-66.1L57.8,244.7z"/>
	<path class="st3" d="M33.1,370.9c-0.2,1.1,1,2.2,1.7,1.4c0.6-0.8,1.1-1.8,1.3-2.8c0.4-1.2,0.2-2.6-0.5-3.7
		c-0.8-1.1-2.2-0.9-2.4,0.3C33.2,367.8,33.1,369.4,33.1,370.9L33.1,370.9z"/>
	<path class="st3" d="M28.8,352.8c-0.2-1.4-1.6-1.7-2-0.5c-0.3,1.3-0.5,2.6-0.3,3.9c0.1,1.4,0.7,3,1.7,3.5c0.8,0.3,1.8-0.1,2.1-0.9
		c0.1-0.3,0.1-0.6,0.1-0.9C29.7,356.3,29.2,354.5,28.8,352.8L28.8,352.8z"/>
	<path class="st3" d="M27.3,340.7c-0.1-1.4-1.9-2.4-2.7-1.4c-0.6,1.1-1,2.3-1,3.5c-0.1,1.6,0.5,3.1,1.7,4.2c1.2,1.1,3.3,0.7,3.2-0.8
		C28.1,344.4,27.6,342.6,27.3,340.7L27.3,340.7z"/>
	<path class="st3" d="M25.8,332.1c0.3-0.5-0.1-2-0.8-2c-0.6,0-1.2,0.3-1.5,0.8c-0.6,0.7-0.8,1.6-0.5,2.5c0.2,1.1,1.2,2.1,1.6,1.4
		C25.1,333.9,25.5,333,25.8,332.1L25.8,332.1z"/>
	<path class="st3" d="M28.1,323.1c0.5-0.6-0.1-2.2-0.9-2.3c-0.7,0.1-1.3,0.4-1.7,1c-0.7,0.8-0.9,1.9-0.6,2.9
		c0.3,1.3,1.5,2.4,1.8,1.6C27.2,325.1,27.6,324.2,28.1,323.1z"/>
	<path class="st3" d="M30.7,366.7c0.7-0.8,0.1-2.9-0.9-3c-0.9,0-1.8,0.4-2.5,1c-1,0.9-1.4,2.3-1.1,3.6c0.2,1.7,1.7,3.1,2.2,2.2
		C29.2,369.2,30,368,30.7,366.7L30.7,366.7z"/>
	<path class="st3" d="M31.2,381c-1.5,1.3-2.8,2.9-3.7,4.8c-0.4,1-0.7,2.1-0.7,3.1c0.1,3.6,3.5,2.1,5.1-0.9c1.1-2.3,1.7-4.9,1.7-7.5
		c0-0.7-0.3-1-0.8-0.8l0,0C32.2,380.1,31.7,380.5,31.2,381z"/>
	<path class="st3" d="M26.8,376c-1.1,0.1-2,0.8-2.2,1.9c-0.4,0.8-0.3,1.7,0.1,2.5c0.6,0.9,1.7,0.7,2.5,0.1c0.5-0.4,0.9-0.9,1.1-1.6
		c0.2-0.7,0.2-1.4-0.1-2.1c-0.3-0.6-1-1.1-1.5-0.7"/>
	<ellipse transform="matrix(0.9946 -0.1038 0.1038 0.9946 -38.7901 5.2845)" class="st3" cx="31.4" cy="375.2" rx="0.9" ry="1.3"/>
</g>
<g id="body">
	<path class="st4" d="M218.9,292.9c0-17-4.4-33.8-12.7-48.7c-0.3-0.6-0.7-1.1-1-1.7c-5.2-8.6-11.6-16.5-19.1-23.2
		c-41.2-37.1-103.7-37.1-144.9,0c-6.8,6.1-12.8,13.2-17.7,21c-0.4,0.7-1,1.5-1.4,2.2c-13.8,23.1-17.5,50.8-10.3,76.8
		c2.1,7.5,5.1,14.7,8.8,21.4l37.3,74.5c36,12,75,12,111,0l36.6-73.1c3.5-6.1,6.4-12.6,8.6-19.3C217.3,313.1,218.9,303,218.9,292.9z"
		/>
	<path class="st5" d="M12.3,271.3L12.3,271.3c66.9,12.8,135.7,12.8,202.6,0l0,0"/>
	<path class="st6" d="M43.8,389.1l-8.8-17c-2.9-7-2.8-13.2,0.3-20.2L49,321c1.4-2.6,4.1-4.2,7-4.2l21.6,1.4h31.8
		c2.9,0,5.6,1.6,7.1,4.2l13.6,30.9c3.1,6.9,3.2,14.7,0.3,21.7l-6.3,15.2l-3.6,7.9c-16.7,2.8-28.2,2.8-43.4,1.3
		c-13.8-1.3-21.7-3-26.1-4.2C47.8,394.2,45.2,392,43.8,389.1z"/>
	<path class="st7" d="M173.8,420v0.4c0,7.1-5,13.4-12.7,15.3c-31.3,8-64.1,8-95.4,0c-7.7-2-12.8-8.5-12.7-15.6c0-1.8,0-3.5-0.1-5.1
		c-0.1-1.4,0.9-2.7,2.4-2.9c0.3,0,0.6,0,1,0.1c12.2,3.6,53.1,12.8,114.6-0.4c1.4-0.3,2.7,0.6,3,1.9c0.1,0.3,0.1,0.6,0,0.9
		C174,416.2,173.8,418.2,173.8,420z"/>
	<path class="st6" d="M196.8,247.9c2.5,1.5,4.9,3.2,7.2,5.1c0.5,0.4,1.1,0.8,1.5,1.3l1.4,1.3c1,0.8,1.7,1.7,2.6,2.5
		c3,3,5.7,6.4,7.9,10.1c3.7,6.1,5.9,13.1,6.2,20.2c0.3,7.1-1.5,14.1-5.2,20.2c-2.2,3.7-4.9,7.1-8,10.1c-0.9,0.8-1.8,1.7-2.7,2.5
		l-1.5,1.3c-0.5,0.4-1,0.8-1.6,1.3s-1.1,0.8-1.7,1.3l-1.8,1.3l-2,1.3l-1,0.6l-1.1,0.6c-1.9,1-4.2,1-6.2,0l-1.1-0.6l-1-0.6l-2-1.3
		l-1.8-1.3c-0.6-0.4-1.1-0.8-1.7-1.3s-1.1-0.8-1.6-1.3l-1.5-1.3c-0.9-0.8-1.9-1.7-2.7-2.5c-3.1-3-5.8-6.4-8-10.1
		c-3.7-6.1-5.5-13.1-5.2-20.2c0.3-7.2,2.5-14.1,6.2-20.2c2.2-3.7,4.9-7.1,7.9-10.1c0.9-0.8,1.6-1.7,2.6-2.5l1.4-1.3
		c0.5-0.4,1-0.8,1.5-1.3c2.3-1.9,4.7-3.6,7.2-5.1C192.7,246.8,195,246.8,196.8,247.9z"/>
</g>
<g id="head">
	<path class="st8" d="M197.6,205.3H29.5V84.1C29.5,37.7,67.1,0,113.6,0l0,0c46.5,0,84.1,37.7,84.1,84.1L197.6,205.3L197.6,205.3z"/>
	<path class="st7" d="M143.9,197.6c-9.5-0.4-19.6-0.6-30.3-0.6s-20.9,0.3-30.3,0.6c-31.4,1.2-53.8,4.6-53.8,8.3s22.2,7,53.8,8.4
		c9.5,0.4,19.6,0.6,30.3,0.6s20.9-0.3,30.3-0.6c31.4-1.2,53.7-4.6,53.7-8.4S175.4,199,143.9,197.6z M141,210.1
		c-8.5,0.1-17.8,0.3-27.5,0.3s-18.9-0.1-27.5-0.3c-25.9-0.7-44.9-2.2-48.3-4c-0.3-0.1-0.6-0.4-0.6-0.6c0-2.1,20.2-3.9,48.8-4.7
		c8.5-0.1,17.8-0.3,27.5-0.3s18.9,0.1,27.5,0.3c28.5,0.7,48.7,2.5,48.7,4.7c0,0.1-0.1,0.4-0.6,0.6C186.1,207.9,167,209.4,141,210.1z
		"/>
	<path class="st7" d="M197.6,206c0,3.8-22.2,7.1-53.7,8.4c-9.5,0.4-19.6,0.6-30.3,0.6s-20.9-0.3-30.3-0.6
		c-31.4-1.2-53.8-4.6-53.8-8.4s22.2-7.1,53.8-8.3c9.5-0.4,19.6-0.6,30.3-0.6s20.9,0.3,30.3,0.6C175.4,199,197.6,202.2,197.6,206z"/>
	<path class="st9" d="M189.8,205.4c0,2.1-20.2,3.9-48.7,4.7c-8.5,0.1-17.8,0.3-27.5,0.3s-18.9-0.1-27.5-0.3
		c-28.5-0.7-48.8-2.5-48.8-4.7s20.2-3.9,48.8-4.7c8.5-0.1,17.8-0.3,27.5-0.3s18.9,0.1,27.5,0.3C169.5,201.5,189.8,203.3,189.8,205.4
		z"/>
	<path class="st3" d="M83.7,124.5c0.2,6.8-2.2,12.6-5.5,12.7s-6-5.4-6.2-12.3c-0.1-0.9-0.1-1.8,0-2.7c0.4-5.6,2.6-9.9,5.4-10
		C80.8,112.1,83.5,117.7,83.7,124.5z"/>
	<path class="st0" d="M184.8,222.5l-47.9-2.3l-95.6-2.6c0,0-1-3.9,2.9-10.6l0,0c0.3-0.6,0.6-1.2,1-1.9h0.1l0.3-0.5
		c10.7-18.2,21.6-37.9,20.6-59.5c-0.4-10-3.5-20.1-4.6-30.1s0-21,6.7-28.3c0.1-0.1,0.2-0.2,0.2-0.2s0,0,0,0
		c3.3-3.5,7.6-5.8,11.5-8.6c2.1-1.4,4-3,5.7-4.9c6.3-6.8,7.6-17,11.4-25.4c0.6-1.4,1.4-2.7,2.3-4c1-1.3,2.1-2.6,3.3-3.7
		c1.5-1.4,3.3-2.5,5.2-3.1c1-0.2,2-0.3,3-0.4l0,0c1.7-0.1,3.4-0.1,5-0.1c20.1,0.1,29.1,7.1,36.4,18.1c0.9,1.3,0.6,3-0.6,4
		c-0.6,0.4-1.3,0.6-2.1,0.5c-0.8-0.2-1.6-0.4-2.3-0.7c-2.4-1-4.6-2.4-7-3.3h-0.1h-0.1c-2.6-0.7-5.2,0.7-6,3.3
		c-0.3,0.9-0.2,1.9,0.1,2.9c1.7,5.2,3.6,10.4,7.2,14.7c5,6.1,12.5,9.5,17.5,15.4c6.7,8,7.8,19,6.7,29s-4.2,19.5-4.6,29.7
		c-1,21.8,10.2,42.6,20.9,62.1C185.6,218.6,184.7,222.5,184.8,222.5z"/>
	<path class="st3" d="M100.3,78.5c2-0.7,4.4-2,5.8,0.3c1.7,2.4,0.5,7.4-1.4,9.8c-3,3.7-7.3,3-10.9,2c-1.8-0.4-3.5-1.3-4.9-2.6
		c-2.6-2.7-3.9-10.3,0.1-11.9C92.2,74.6,96.6,79.9,100.3,78.5z"/>
	<path class="st3" d="M113,66.7c0.4,1.5,1.1,3.3,0.2,4.5s-2.2,0.5-3.3-0.3c-1.1-0.7-2-1.6-2.8-2.6c-0.9-1.1-1.3-2.6-1.1-4
		c0.2-1.4,0.9-2.8,2-3.8C112.9,55.5,112,63,113,66.7z"/>
	<path class="st3" d="M102.5,60.7c0.1-2.1,0.5-4.8-0.9-5.8s-3.1,0.8-4.2,2.3c-1.1,1.5-2.1,3.1-2.9,4.7c-0.8,1.9-0.9,3.9-0.4,5.9
		c0.6,1.6,1.9,2.9,3.6,3.5C105.4,74.9,102.2,66.2,102.5,60.7z"/>
	<path class="st3" d="M108.5,48.6c-0.6-0.2-1.2-0.1-1.7,0.1c-0.6,0.3-1,0.8-1.1,1.5c0,0.5,0.1,1,0.2,1.5l0.7,2.4
		c0.1,0.6,0.6,1.1,1.3,1.1c0.2,0,0.4-0.1,0.5-0.2c0.8-0.6,1.4-1.4,1.6-2.4c0.4-1.6-0.4-3.7-1.8-3.8L108.5,48.6z"/>
	<path class="st3" d="M108.4,42.2c-0.3-0.1-0.6-0.1-0.8,0c-0.3,0.1-0.5,0.4-0.6,0.8c0,0.3,0.1,0.5,0.2,0.7l0.3,1.2
		c0.2,0.5,0.5,0.7,0.9,0.4c0.4-0.3,0.7-0.8,0.7-1.3c0.2-0.8-0.3-1.9-0.9-2L108.4,42.2z"/>
	<path class="st3" d="M103.3,38.6c0.8-0.3,1.1-0.2,1.2,0.4c0.2,0.7,0.2,1.5,0.1,2.2c-0.3,1.2-0.8,2.3-1.5,3.3
		c-0.9,1.5-1.9,2.9-2.8,4.5c-0.2,0.4-0.5,0.8-0.9,0.8c-0.3-0.1-0.6-0.4-0.7-0.7c-0.1-0.4-0.1-0.8,0-1.2c0.2-1.4,0.4-3.7,0.5-4.4
		c0-0.2,0.1-0.4,0.2-0.6l0,0c0.6-1.9,2-3.3,3.8-4L103.3,38.6z"/>
	<path class="st10" d="M83,124.5c0.2,6.3-2.1,11.5-4.9,11.6s-5.3-5-5.5-11.3c-0.1-0.8-0.1-1.6,0-2.4c0.4-5.2,2.3-9.1,4.8-9.2
		C80.3,113.1,82.8,118.2,83,124.5z"/>
	
		<ellipse transform="matrix(0.9996 -2.861949e-02 2.861949e-02 0.9996 -3.4823 2.3202)" class="st11" cx="79.3" cy="122.8" rx="2.9" ry="6.4"/>
	<path class="st12" d="M83.7,124.5c0,0-8-11.8-11.8-2.5c0.4-5.9,2.7-10.5,5.5-10.6C80.6,111.3,83.5,117.1,83.7,124.5z"/>
	<path class="st11" d="M83.7,124.5c-0.9-0.9-1.9-1.8-2.9-2.6c-0.9-0.8-2-1.4-3.1-2c-1-0.5-2.1-0.6-3.1-0.2c-1,0.6-1.9,1.5-2.3,2.7
		l-0.2,0.4h-0.3c-1.2-0.2-2.2-1-2.7-2.1c-0.2-0.6-0.3-1.2-0.4-1.8c0-0.6,0.1-1.3,0.4-1.8c-0.2,1.1,0,2.2,0.6,3.2
		c0.5,0.8,1.3,1.2,2.2,1.3l-0.4,0.3c0.5-1.4,1.5-2.5,2.7-3.3c1.2-0.5,2.7-0.5,3.8,0.1c1.2,0.7,2.3,1.5,3.2,2.5
		C82.2,122.1,83,123.3,83.7,124.5z"/>
	<path class="st11" d="M72.3,121.1c-0.8-0.7-1.3-1.6-1.4-2.7c-0.1-1,0.2-2,0.8-2.7c-0.4,0.8-0.5,1.7-0.3,2.6
		c0.2,0.7,0.7,1.4,1.3,1.8c0.3,0.2,0.4,0.5,0.3,0.8C72.8,121.1,72.5,121.3,72.3,121.1C72.4,121.2,72.3,121.2,72.3,121.1z"/>
	<path class="st3" d="M88,120.1c-0.7-1.9-1.4-3.8-2.2-5.8c-0.8-1.8-1.8-3.5-2.8-5.1c-1-1.5-2.1-3-3.3-4.4c-1.2-1.4-2.5-2.6-4-3.6
		c-1.3-1-2.8-1.9-4.3-2.6c-1.4-0.7-3-1-4.6-0.9c-1.6,0-3.1,0.8-4,2.1c-1,1.7-1.4,3.7-1.1,5.7c-0.8-2.1-0.7-4.4,0.1-6.5
		c0.9-1.9,2.6-3.2,4.7-3.5c1.8-0.3,3.7,0,5.4,0.6c1.7,0.7,3.4,1.6,4.9,2.7c3.2,2.5,5.7,5.6,7.5,9.2c1,1.9,1.8,3.9,2.4,6
		C87.3,116,87.8,118,88,120.1z"/>
	<path class="st3" d="M106,125.7c0.2,7.4,3.9,13.4,8.2,13.3s7.6-6.2,7.4-13.7c0-1-0.1-1.9-0.2-2.9c-0.9-6-4.2-10.5-7.9-10.3
		C109,112.1,105.7,118.3,106,125.7z"/>
	<path class="st10" d="M106.9,125.6c0.2,6.8,3.6,12.3,7.3,12.2c3.9-0.1,6.8-5.8,6.6-12.6c0-0.9-0.1-1.8-0.2-2.6
		c-0.9-5.5-3.8-9.6-7.1-9.5C109.8,113.2,106.7,118.8,106.9,125.6z"/>
	
		<ellipse transform="matrix(0.9996 -2.861949e-02 2.861949e-02 0.9996 -3.4896 3.2482)" class="st11" cx="111.7" cy="123.5" rx="3.9" ry="6.9"/>
	<path class="st12" d="M106,125.7c0,0,9.9-13.2,15.6-3.5c-1-6.4-4.4-11.1-8.1-11C109.2,111.2,105.7,117.7,106,125.7z"/>
	<path class="st11" d="M106,125.7c0.8-1.4,1.8-2.7,3.1-3.7c1.2-1.2,2.6-2.2,4.1-2.9c1.6-0.8,3.4-1,5.1-0.4c1.6,0.6,3,1.8,3.8,3.4
		l-0.6-0.3c1.1-0.1,2.2-0.6,2.9-1.5c0.7-1,0.9-2.3,0.6-3.5c0.3,0.6,0.6,1.2,0.6,1.9c0,0.7-0.1,1.4-0.4,2c-0.7,1.3-2,2.2-3.4,2.5
		h-0.4l-0.3-0.4c-0.8-1.2-1.9-2.2-3.3-2.7c-1.4-0.4-2.9-0.2-4.2,0.4c-1.4,0.6-2.8,1.4-4,2.3C108.4,123.6,107.1,124.5,106,125.7z"/>
	<path class="st11" d="M120.4,120.1c0.9-0.3,1.5-1.1,1.6-2c0.3-1,0-2-0.6-2.8c0.8,0.7,1.3,1.8,1.2,2.9c-0.1,1.2-0.7,2.3-1.7,3l0,0
		c-0.3,0.1-0.7,0.2-0.8-0.1C119.9,120.7,120,120.3,120.4,120.1C120.3,120.2,120.3,120.1,120.4,120.1z"/>
	<path class="st3" d="M100,121.2c0.1-2.3,0.5-4.6,1.2-6.8c0.7-2.2,1.6-4.4,2.7-6.5c2.4-4.1,5.6-7.7,9.4-10.4c2-1.3,4.1-2.4,6.3-3.2
		c2.3-0.8,4.8-1.2,7.2-1c2.6,0.1,5,1.4,6.5,3.4c1.4,2.1,1.6,4.7,0.6,6.9c0.3-2.2-0.4-4.4-1.8-6.1c-1.5-1.4-3.5-2.1-5.5-1.9
		c-2.1,0.1-4.1,0.5-6.1,1.3c-2,0.8-3.9,1.8-5.6,3c-1.8,1.2-3.5,2.6-5,4.2c-1.5,1.6-2.9,3.2-4.2,5c-1.2,1.8-2.4,3.7-3.4,5.7
		C101.5,117,100.8,119.1,100,121.2z"/>
	<path class="st9" d="M197.6,235.4c0,3.8-22.2,7.1-53.7,8.3c-9.5,0.4-19.6,0.6-30.3,0.6s-20.9-0.3-30.3-0.6
		c-31.4-1.2-53.8-4.6-53.8-8.3s22.2-7.1,53.8-8.4c9.5-0.4,19.6-0.6,30.3-0.6s20.9,0.3,30.3,0.6C175.4,228.4,197.6,231.7,197.6,235.4
		z"/>
	<polygon class="st9" points="29.5,206 29.5,235.4 197.6,235.4 197.6,206 179.9,210.4 113.6,212.4 41.8,210.4 	"/>
	<path class="st7" d="M184.8,201.2c0.6,0.8,1,1.8,1.5,2.6c2.2,0.4,3.5,1,3.5,1.5c0,0.1-0.1,0.4-0.6,0.6c-0.5,0.3-1.1,0.4-1.7,0.6
		c-5.9,1.7-23.5,2.9-46.6,3.5c-8.5,0.1-17.8,0.3-27.5,0.3s-18.9-0.1-27.5-0.3c-23.2-0.6-41-1.9-46.7-3.5c-0.5-0.1-1-0.3-1.5-0.6
		c-0.3-0.1-0.6-0.4-0.6-0.6c0-0.6,1.2-1,3.5-1.5c0.5-0.8,1-1.8,1.5-2.6c-8.2,1.4-12.8,3.1-12.8,4.7c0,1.4,3.1,2.8,8.5,3.9
		c9.3,1.9,25.5,3.6,45.3,4.4c9.5,0.4,19.6,0.6,30.3,0.6s20.9-0.3,30.3-0.6c19.6-0.8,35.7-2.4,45.1-4.4c5.6-1.3,8.6-2.5,8.6-3.9
		C197.6,204.3,192.9,202.6,184.8,201.2z"/>
	<path class="st13" d="M185.4,195.5L185.4,195.5c0,1.5-1.1,2.9-2.6,3.1c-9,1.5-23.1,2.8-39.4,3.5c-9.6,0.4-19.6,0.6-29.9,0.6
		s-20.3-0.1-29.9-0.6c-18.1-0.7-33.2-2.2-42-3.9v-114c0-19,7.5-37.3,21-50.8c3.8-3.7,7.9-7.1,12.4-10c0.5-0.3,1.3-0.1,1.6,0.4
		c0.3,0.5,0.2,1-0.2,1.4l-0.1,0.1c-13.5,13.4-21.1,31.7-21,50.8v114c8.8,1.8,23.9,3.2,42,3.9c9.6,0.4,19.6,0.6,29.9,0.6
		s20.3-0.1,29.9-0.6c9.2-0.4,17.7-1,24.9-1.7c1.8-0.1,3.3,1.2,3.5,2.9C185.4,195.4,185.4,195.4,185.4,195.5z"/>
	<path class="st14" d="M113.6,2.5c45.1,0,81.6,36.6,81.6,81.6v121.3c-2.6,1.9-18.1,5-51.4,6.4c-9.9,0.4-20,0.6-30.3,0.6
		s-20.3-0.1-30.2-0.6c-33.4-1.4-48.8-4.6-51.5-6.4V84.1C32,39.1,68.5,2.6,113.6,2.5 M113.6,0.1L113.6,0.1
		c-46.5,0-84.1,37.7-84.1,84.1v121.8c0,3.8,22.2,7.1,53.8,8.4c9.5,0.4,19.6,0.6,30.3,0.6s20.9-0.3,30.3-0.6
		c31.4-1.3,53.7-4.6,53.7-8.4V84.3c0.1-46.4-37.5-84.1-83.9-84.1C113.7,0.1,113.6,0.1,113.6,0.1z"/>
	<path class="st15" d="M114.6,153.3c-1.5,2.2-3.6,3.9-6,5c-2.4,1-4.9,1.5-7.5,1.4c-2.4-0.1-4.8-0.4-7.1-1c-2-0.4-4.1-0.8-6-1
		s-3.8-0.3-5.6-0.4c-1.9,0.1-3.7-0.1-5.5-0.6c-1.8-0.4-3.5-1.3-4.9-2.4c-1.5-1.2-2.6-2.8-3.3-4.5c2.1,2.6,5.1,4.2,8.4,4.4
		c0.8,0.1,1.6,0.1,2.5,0c0.9,0,1.8-0.1,2.7-0.2c2-0.2,3.9-0.2,5.9,0.1c2.2,0.2,4.3,0.6,6.4,1.1c1.2,0.2,2.1,0.6,3.3,0.9
		c1.1,0.3,2.2,0.5,3.3,0.6C105.9,157.4,110.7,156.2,114.6,153.3z"/>
	<path class="st3" d="M83.6,167.1c1.2,0.5,2.3,1,3.6,1.3c1.2,0.3,2.4,0.5,3.6,0.7c1.2,0.1,2.3,0.1,3.5,0c1.2-0.2,2.5-0.4,3.7-0.6
		c-0.9,1.1-2,1.9-3.2,2.4c-1.3,0.5-2.6,0.6-4,0.5c-1.4-0.2-2.7-0.6-3.9-1.2C85.5,169.2,84.5,168.2,83.6,167.1z"/>
</g>
<path id="f-arm" class="st0" d="M172.8,271.2c-8.3,10.9-9.2,29.1-2.1,42.3c6.6,12.2,19.2,20.3,22.1,34.3c1.9,9.7-1.5,19.1-3.4,28.6
	s-0.6,20.2,5.6,27.1c3.7,4.1,8,7.2,9.7,4.4c1.7-2.9-1.8-11.6-2.4-15.3c-0.9-5.4,1-10.7,3.6-14.9s6-7.6,8.8-11.6
	c9-12.8,16.3-33.9,14.8-51.2c-1.3-14.8-7.4-34.9-18.1-49c-3.9-5.1-11.1-14-17.2-13.4C186.4,253.1,177.1,265.5,172.8,271.2z"/>
</svg>
