<?xml version="1.0" encoding="utf-8"?>
<!-- Generator: Adobe Illustrator 26.0.0, SVG Export Plug-In . SVG Version: 6.00 Build 0)  -->
<svg version="1.1" id="logo" xmlns="http://www.w3.org/2000/svg" xmlns:xlink="http://www.w3.org/1999/xlink" x="0px" y="0px"
	 viewBox="0 0 321.7 332.69" style="enable-background:new 0 0 321.7 332.69;" xml:space="preserve">
<style type="text/css">
	.st0{fill:#93D500;}
	.st1{fill:#FEFEFE;}
	.st2{fill:#410099;}
</style>
<path class="st0" d="M305.34,198.85L181.53,10.57C177.18,3.95,169.46,0,160.89,0c-8.57,0-16.28,3.95-20.63,10.57L16.45,198.85
	c-4.3,6.54-4.91,13.75-1.66,19.78C18.97,226.37,28.72,231,40.87,231h240.04c12.03,0,21.75-4.69,25.98-12.55
	C310.14,212.43,309.57,205.29,305.34,198.85z"/>
<path class="st1" d="M217.4,115.34c-0.61,0-1.1-0.5-1.1-1.11c0-0.6,0.49-1.1,1.1-1.1h4.94v-4.94c0-0.61,0.5-1.1,1.1-1.1
	c0.61,0,1.11,0.49,1.11,1.1v4.94h4.94c0.61,0,1.1,0.5,1.1,1.1c0,0.61-0.49,1.11-1.1,1.11h-4.94v4.94c0,0.61-0.5,1.1-1.11,1.1
	c-0.6,0-1.1-0.49-1.1-1.1v-4.94H217.4z"/>
<polygon class="st1" points="213.04,87.78 205.26,90.66 202.38,98.43 199.51,90.66 191.73,87.78 199.51,84.9 202.38,77.13 
	205.26,84.9 "/>
<path class="st1" d="M96.9,109.5c-0.94,0-1.7-0.76-1.7-1.7s0.76-1.7,1.7-1.7h7.63v-7.63c0-0.94,0.76-1.7,1.7-1.7s1.7,0.76,1.7,1.7
	v7.63h7.63c0.94,0,1.7,0.76,1.7,1.7s-0.76,1.7-1.7,1.7h-7.63v7.63c0,0.94-0.76,1.7-1.7,1.7s-1.7-0.76-1.7-1.7v-7.63H96.9z"/>
<polygon class="st1" points="155.82,29.97 158.96,19.78 162.1,29.97 172.29,33.11 162.1,36.25 158.96,46.44 155.82,36.25 
	145.63,33.11 "/>
<path class="st1" d="M299.99,214.73c-2.8,5.2-10.11,8.43-19.08,8.43H40.87c-9.08,0-16.43-3.16-19.18-8.26
	c-1.89-3.5-1.44-7.57,1.31-11.75l29.49-44.84c14.63-12.78,39.74-30.47,72.99-38.15c3.01-26.2,14.17-47.93,32.84-63.64l2.78-2.34
	l2.59,2.55c17.41,17.08,28.17,38.57,31.72,63.05c34.85,6.83,57.96,22.58,71.67,35.16l31.7,48.21
	C301.46,207.23,301.88,211.23,299.99,214.73z"/>
<g>
	<path class="st2" d="M283.17,176.2c0,0-0.07-0.07-0.21-0.19C283.1,176.18,283.17,176.25,283.17,176.2z"/>
	<path class="st2" d="M53.05,191.27l-10.02,6.65c0.29,4.94,3.31,4.58,3.31,4.58l9.44-6.17C53.12,194.53,53.05,191.27,53.05,191.27z"
		/>
	<path class="st2" d="M77.01,185.85c0,0-3.88-2.55-4.47-8.8l-18.09,11.3c0,0,0.11,5.67,4.08,7.86L77.01,185.85z"/>
	<path class="st2" d="M74.25,174.06c0,0-0.08,7.79,5.99,10.87l19.3-10.55c0,0-3.97-0.3-6.09-4.63c-1.98-4.03-0.75-6.91-0.75-6.91
		L74.25,174.06z"/>
	<path class="st2" d="M94.19,162.61c0,0-0.95,1.97,0.25,3.09c0,0,2.34-0.61,3.59,1.58c1.25,2.19,1.33,3.71,0.06,4.88
		c0,0,1.58,1.04,2.88,1.14c0.08,0.05,2.21-2.62-0.66-7.42C97.9,161.81,94.19,162.61,94.19,162.61z"/>
	<polygon class="st2" points="70.03,195.13 63.11,223.16 67.96,223.16 72.5,197.89 74.99,196.86 84.03,223.16 89.54,223.16 
		77.21,190.72 	"/>
	<polygon class="st2" points="79.14,191.18 81.27,197.06 98.82,223.16 105.41,223.16 82.72,191.56 	"/>
	<path class="st2" d="M181.68,193.19c0-0.91-0.07-1.81-0.17-2.69h3.26l0.43-1.04c0.07-0.17,0.46-1.13,1.05-2.78
		c9.01-0.04,22.97,9.8,25.84,6.15c2.59-3.3-13.3-29.41-18.63-37.96c0.39-3.38,0.69-6.93,0.85-10.63c0.14-3.28,0.16-6.77,0.04-10.4
		c51.84,9.8,85.67,39.51,88.61,42.18c-2.52-3.2-28.28-41.97-89.48-53.25c-2.53-20.49-10.7-44.08-31.4-64.38l-1.1-1.08l-1.18,0.99
		c-18.82,15.83-29.8,37.98-32.31,64.75c-55.64,12.04-89.05,52.41-89.65,53.15c0.76-0.56,40.73-30.26,89.1-41.36
		c0,2.27,0.04,4.56,0.15,6.88c0.2,4.27,0.58,8.39,1.07,12.31c-4.71,7.51-21.83,35.37-19.15,38.79c2.95,3.76,17.62-6.75,26.58-6.12
		c0.59,1.72,0.96,2.68,0.98,2.73l0.42,1.07h1.9c-0.1,0.88-0.17,1.78-0.17,2.69c0,8.24,4.35,15.42,10.8,19.25l10.13,37.82
		l10.61-37.46C177.05,209.07,181.68,201.69,181.68,193.19z M149.03,187.11c-2.65-6.03-11.26-28.28-9.36-59.67
		c0.05-0.84-0.59-1.56-1.43-1.61c-0.85-0.04-1.56,0.59-1.61,1.43c-1.85,30.52,5.8,52.17,9.06,59.85h-6.36
		c-1.64-4.56-7.83-23.08-8.86-45.65c-0.88-19.19,1.96-44.59,17.85-66.07c2.51,1,11.9,4.23,21.95,1.3
		c7.3,10.82,25.99,47.16,2.51,110.41H149.03z"/>
	<path class="st2" d="M161.07,99.01c-8.42,0-15.24,14.58-15.24,23c0,8.42,6.82,15.24,15.24,15.24c8.41,0,15.24-6.82,15.24-15.24
		C176.31,113.59,169.48,99.01,161.07,99.01z M154.72,122.79c-2.12,0-3.83-1.72-3.83-3.83c0-2.11,1.71-3.82,3.83-3.82
		c2.11,0,3.82,1.71,3.82,3.82C158.54,121.07,156.83,122.79,154.72,122.79z"/>
	<path class="st2" d="M161.06,145.55c-4.4,0-7.96,3.56-7.96,7.96c0,4.4,3.56,18.29,7.96,18.29s7.96-13.89,7.96-18.29
		C169.03,149.11,165.46,145.55,161.06,145.55z"/>
	<path class="st2" d="M138.88,120.75c-0.95,0-1.72,0.77-1.72,1.72c0,0.95,0.77,1.72,1.72,1.72c0.95,0,1.72-0.77,1.72-1.72
		C140.61,121.52,139.84,120.75,138.88,120.75z"/>
	<path class="st2" d="M265.16,191.78c7.11-5.21,12.58-10.7,10.73-14.09c-1.32-2.43-5.47-2.55-12.68-0.35
		c-1.32,0.4-2.72,0.89-4.16,1.42c-3.62-3.48-8.52-5.64-13.93-5.64c-11.09,0-20.11,9.02-20.11,20.11c0,1.3,0.13,2.56,0.37,3.79
		c-1.37,1.02-2.65,2.02-3.8,3c-5.76,4.86-7.91,8.41-6.58,10.84c0.7,1.28,2.17,1.92,4.45,1.92c2.07,0,4.8-0.52,8.23-1.57
		c1.7-0.52,3.52-1.16,5.42-1.89c3.36,2.52,7.52,4.03,12.03,4.03c11.09,0,20.11-9.02,20.11-20.11
		C265.24,192.74,265.2,192.26,265.16,191.78z M245.12,176.32c4,0,7.68,1.4,10.57,3.74c-4.48,1.84-9.35,4.17-14.27,6.85
		c-4.77,2.6-9.24,5.34-13.13,8.03c-0.06-0.56-0.09-1.13-0.09-1.7C228.22,183.91,235.8,176.32,245.12,176.32z M217.82,209.36
		c-0.22-1.11,2.62-4.5,8.51-9.02c0.93,2.45,2.32,4.67,4.07,6.56C223.16,209.54,218.63,210.12,217.82,209.36z M229.02,198.35
		c3.72-2.65,8.36-5.59,13.95-8.63c5.78-3.15,10.9-5.5,15.23-7.2c1.8,2.19,3.04,4.84,3.56,7.75c-3.7,2.63-8.3,5.54-13.83,8.55
		c-5.34,2.91-10.13,5.15-14.25,6.81C231.55,203.67,229.92,201.18,229.02,198.35z M245.12,210.14c-3.08,0-5.96-0.84-8.45-2.28
		c4.06-1.73,8.4-3.83,12.78-6.22c3.76-2.05,8.28-4.74,12.54-7.63C261.58,202.97,254.18,210.14,245.12,210.14z M261.32,181.35
		c4.84-1.7,8.38-2.44,10.29-2.44c0.73,0,1.22,0.11,1.46,0.31c0.15,1.14-2.68,4.51-8.5,8.97
		C263.92,185.69,262.81,183.38,261.32,181.35z"/>
	<path class="st2" d="M13.11,256.88C5.93,256.88,0,262.81,0,269.99v5.81c0,3.42,0,3.42,2.16,7.3l16.42,28.95
		c0.34,0.57,0.34,0.57,0.34,1.82v5.7c0,3.3-2.62,5.93-5.81,5.93c-3.19,0-5.81-2.62-5.81-5.93v-3.88c0-0.91-0.8-1.82-1.82-1.82H1.82
		c-1.02,0-1.82,0.91-1.82,1.82v3.88c0,7.3,5.93,13.11,13.11,13.11c7.18,0,13.11-5.81,13.11-13.11v-5.7c0-3.31,0-3.31-2.17-7.18
		L7.64,277.74c-0.34-0.57-0.34-0.57-0.34-1.94v-5.81c0-3.19,2.62-5.81,5.81-5.81c3.19,0,5.81,2.62,5.81,5.81v3.88
		c0,1.02,0.8,1.82,1.82,1.82h3.65c1.03,0,1.82-0.8,1.82-1.82v-3.88C26.22,262.81,20.29,256.88,13.11,256.88z"/>
	<path class="st2" d="M49.36,256.88H31.8c-1.02,0-1.82,0.91-1.82,1.82v3.65c0,1.03,0.8,1.82,1.82,1.82h5.13v66.69
		c0,1.03,0.8,1.82,1.82,1.82h3.65c1.03,0,1.82-0.8,1.82-1.82v-66.69h5.13c1.03,0,1.82-0.8,1.82-1.82v-3.65
		C51.19,257.79,50.39,256.88,49.36,256.88z"/>
	<path class="st2" d="M105.56,256.88H96.1c-2.05,0-3.65,1.71-3.65,3.65v70.34c0,1.03,0.8,1.82,1.82,1.82h3.65
		c0.91,0,1.82-0.8,1.82-1.82v-32.49h5.81c3.19,0,5.81,2.62,5.81,5.93v26.56c0,1.03,0.8,1.82,1.82,1.82h3.65
		c1.02,0,1.82-0.8,1.82-1.82V304.3c0-3.76-1.48-7.18-3.99-9.58c2.51-2.39,3.99-5.7,3.99-9.46V270.1
		C118.67,262.81,112.86,256.88,105.56,256.88z M111.37,285.26c0,3.19-2.62,5.82-5.81,5.82h-5.81v-26.9h5.81
		c3.19,0,5.81,2.62,5.81,5.93V285.26z"/>
	<path class="st2" d="M141.24,256.88c-7.18,0-13.11,5.93-13.11,13.11v49.59c0,7.18,5.93,13.11,13.11,13.11
		c7.18,0,13.11-5.93,13.11-13.11v-26.79c0-1.03-0.8-1.82-1.82-1.82h-9.46c-1.03,0-1.82,0.8-1.82,1.82v3.65
		c0,1.02,0.8,1.82,1.82,1.82h3.99v21.32c0,3.19-2.62,5.81-5.81,5.81c-3.19,0-5.81-2.62-5.81-5.81v-49.59c0-3.19,2.62-5.81,5.81-5.81
		c3.19,0,5.81,2.62,5.81,5.81v3.88c0,1.02,0.8,1.82,1.82,1.82h3.65c1.03,0,1.82-0.8,1.82-1.82v-3.88
		C154.35,262.81,148.42,256.88,141.24,256.88z"/>
	<path class="st2" d="M224,256.88h-22.57c-1.02,0-1.82,0.91-1.82,1.82v3.65c0,1.03,0.8,1.82,1.82,1.82h17.1v11.74
		c0,1.25,0,1.25-0.23,1.82l-16.53,29.07c-2.16,3.88-2.16,3.88-2.16,7.3v16.76c0,1.03,0.8,1.82,1.82,1.82H224
		c1.03,0,1.82-0.8,1.82-1.82v-3.65c0-0.91-0.8-1.82-1.82-1.82h-17.1v-11.29c0-1.37,0-1.37,0.34-1.94l16.42-28.96
		c2.17-3.99,2.17-3.99,2.17-7.3V258.7C225.83,257.79,225.03,256.88,224,256.88z"/>
	<path class="st2" d="M251.36,256.88h-13.57c-2.05,0-3.65,1.71-3.65,3.65v68.51c0,2.05,1.6,3.65,3.65,3.65h13.57
		c1.03,0,1.82-0.8,1.82-1.82v-3.65c0-0.91-0.8-1.82-1.82-1.82h-9.92v-26.9h9.92c1.03,0,1.82-0.91,1.82-1.82v-3.65
		c0-1.03-0.8-1.82-1.82-1.82h-9.92v-27.02h9.92c1.03,0,1.82-0.8,1.82-1.82v-3.65C253.18,257.79,252.39,256.88,251.36,256.88z"/>
	<path class="st2" d="M274.62,256.88h-9.46c-2.05,0-3.65,1.71-3.65,3.65v70.34c0,1.03,0.8,1.82,1.82,1.82h3.65
		c0.91,0,1.82-0.8,1.82-1.82v-32.49h5.81c3.19,0,5.82,2.62,5.82,5.93v26.56c0,1.03,0.8,1.82,1.82,1.82h3.65
		c1.02,0,1.82-0.8,1.82-1.82V304.3c0-3.76-1.48-7.18-3.99-9.58c2.51-2.39,3.99-5.7,3.99-9.46V270.1
		C287.73,262.81,281.91,256.88,274.62,256.88z M280.43,285.26c0,3.19-2.62,5.82-5.82,5.82h-5.81v-26.9h5.81
		c3.19,0,5.82,2.62,5.82,5.93V285.26z"/>
	<path class="st2" d="M316.23,275.69h3.65c1.03,0,1.82-0.8,1.82-1.82v-3.88c0-7.18-5.93-13.11-13.11-13.11
		c-7.18,0-13.11,5.93-13.11,13.11v5.81c0,3.42,0,3.42,2.16,7.3l16.42,28.95c0.34,0.57,0.34,0.57,0.34,1.82v5.7
		c0,3.3-2.62,5.93-5.81,5.93c-3.19,0-5.81-2.62-5.81-5.93v-3.88c0-0.91-0.8-1.82-1.82-1.82h-3.65c-1.02,0-1.82,0.91-1.82,1.82v3.88
		c0,7.3,5.93,13.11,13.11,13.11c7.18,0,13.11-5.81,13.11-13.11v-5.7c0-3.31,0-3.31-2.17-7.18l-16.41-28.96
		c-0.34-0.57-0.34-0.57-0.34-1.94v-5.81c0-3.19,2.62-5.81,5.81-5.81c3.19,0,5.81,2.62,5.81,5.81v3.88
		C314.4,274.89,315.2,275.69,316.23,275.69z"/>
	<path class="st2" d="M177.04,256.88c-7.29,0-13.22,5.93-13.22,13.22v60.76c0,1.03,0.91,1.82,1.82,1.82h3.65
		c1.03,0,1.82-0.8,1.82-1.82v-28.78l11.74-7.3v36.08c0,1.03,0.8,1.82,1.82,1.82h3.65c1.03,0,1.82-0.8,1.82-1.82V270.1
		C190.15,262.81,184.22,256.88,177.04,256.88z M182.85,287.49l-11.74,7.3V270.1c0-3.31,2.62-5.93,5.93-5.93
		c3.19,0,5.81,2.62,5.81,5.93V287.49z"/>
	<path class="st2" d="M70.45,256.88c-7.29,0-13.22,5.93-13.22,13.22v60.76c0,1.03,0.91,1.82,1.82,1.82h3.65
		c1.03,0,1.82-0.8,1.82-1.82v-28.78l11.74-7.3v36.08c0,1.03,0.8,1.82,1.82,1.82h3.65c1.03,0,1.82-0.8,1.82-1.82V270.1
		C83.56,262.81,77.63,256.88,70.45,256.88z M76.26,287.49l-11.74,7.3V270.1c0-3.31,2.62-5.93,5.93-5.93c3.19,0,5.81,2.62,5.81,5.93
		V287.49z"/>
</g>
</svg>
