<?xml version="1.0" encoding="utf-8"?>
<!-- Generator: Adobe Illustrator 26.0.3, SVG Export Plug-In . SVG Version: 6.00 Build 0)  -->
<svg version="1.1" id="logo" xmlns="http://www.w3.org/2000/svg" xmlns:xlink="http://www.w3.org/1999/xlink" x="0px" y="0px"
	 viewBox="0 0 304.3 254.3" style="enable-background:new 0 0 304.3 254.3;" xml:space="preserve">
<style type="text/css">
	.st0{fill:#93D500;}
	.st1{fill:#FFFFFF;}
	.st2{fill:#FEFEFE;}
	.st3{fill:#410099;}
</style>
<g>
	<path class="st0" d="M32.2,237c-12.9,0-23.3-5-27.8-13.4c-3.6-6.7-3-14.6,1.8-21.8L129.9,13.5C134.6,6.3,142.9,2,152.2,2
		s17.6,4.3,22.3,11.5l123.8,188.3c4.6,7.1,5.2,15,1.6,21.6c-4.6,8.5-15,13.6-27.7,13.6H32.2z"/>
	<path class="st1" d="M152.2,4c8.6,0,16.3,3.9,20.6,10.6l123.8,188.3c4.2,6.4,4.8,13.6,1.5,19.6c-4.2,7.9-14,12.6-26,12.6h-240
		c-12.1,0-21.9-4.6-26.1-12.4c-3.2-6-2.6-13.2,1.7-19.8L131.6,14.6C135.9,7.9,143.6,4,152.2,4 M152.2,0c-9.9,0-18.9,4.6-24,12.4
		L4.4,200.6c-5.1,7.8-5.8,16.5-1.8,23.9c4.9,9.1,16,14.5,29.6,14.5h240c13.5,0,24.6-5.5,29.5-14.6c4-7.3,3.3-16-1.7-23.7L176.2,12.4
		C171.1,4.6,162.1,0,152.2,0L152.2,0z"/>
</g>
<path class="st2" d="M208.7,119.3c-0.6,0-1.1-0.5-1.1-1.1c0-0.6,0.5-1.1,1.1-1.1h4.9v-4.9c0-0.6,0.5-1.1,1.1-1.1
	c0.6,0,1.1,0.5,1.1,1.1v4.9h4.9c0.6,0,1.1,0.5,1.1,1.1c0,0.6-0.5,1.1-1.1,1.1h-4.9v4.9c0,0.6-0.5,1.1-1.1,1.1
	c-0.6,0-1.1-0.5-1.1-1.1v-4.9H208.7z"/>
<polygon class="st2" points="204.3,91.8 196.6,94.7 193.7,102.4 190.8,94.7 183,91.8 190.8,88.9 193.7,81.1 196.6,88.9 "/>
<path class="st2" d="M88.2,113.5c-0.9,0-1.7-0.8-1.7-1.7s0.8-1.7,1.7-1.7h7.6v-7.6c0-0.9,0.8-1.7,1.7-1.7s1.7,0.8,1.7,1.7v7.6h7.6
	c0.9,0,1.7,0.8,1.7,1.7s-0.8,1.7-1.7,1.7h-7.6v7.6c0,0.9-0.8,1.7-1.7,1.7s-1.7-0.8-1.7-1.7v-7.6H88.2z"/>
<polygon class="st2" points="147.1,34 150.3,23.8 153.4,34 163.6,37.1 153.4,40.2 150.3,50.4 147.1,40.2 136.9,37.1 "/>
<path class="st2" d="M291.3,218.7c-2.8,5.2-10.1,8.4-19.1,8.4h-240c-9.1,0-16.4-3.2-19.2-8.3c-1.9-3.5-1.4-7.6,1.3-11.8l29.5-44.8
	c14.6-12.8,39.7-30.5,73-38.2c3-26.2,14.2-47.9,32.8-63.6l2.8-2.3l2.6,2.5c17.4,17.1,28.2,38.6,31.7,63.1
	c34.8,6.8,58,22.6,71.7,35.2l31.7,48.2C292.8,211.2,293.2,215.2,291.3,218.7z"/>
<path class="st3" d="M274.5,180.2c0,0-0.1-0.1-0.2-0.2C274.4,180.2,274.5,180.2,274.5,180.2z"/>
<path class="st3" d="M44.3,195.3l-10,6.6c0.3,4.9,3.3,4.6,3.3,4.6l9.4-6.2C44.4,198.5,44.3,195.3,44.3,195.3z"/>
<path class="st3" d="M68.3,189.9c0,0-3.9-2.6-4.5-8.8l-18.1,11.3c0,0,0.1,5.7,4.1,7.9L68.3,189.9z"/>
<path class="st3" d="M65.5,178.1c0,0-0.1,7.8,6,10.9l19.3-10.6c0,0-4-0.3-6.1-4.6c-2-4-0.8-6.9-0.8-6.9L65.5,178.1z"/>
<path class="st3" d="M85.5,166.6c0,0-0.9,2,0.2,3.1c0,0,2.3-0.6,3.6,1.6s1.3,3.7,0.1,4.9c0,0,1.6,1,2.9,1.1c0.1,0.1,2.2-2.6-0.7-7.4
	C89.2,165.8,85.5,166.6,85.5,166.6z"/>
<polygon class="st3" points="61.3,199.1 54.4,227.2 59.3,227.2 63.8,201.9 66.3,200.9 75.3,227.2 80.8,227.2 68.5,194.7 "/>
<polygon class="st3" points="70.4,195.2 72.6,201.1 90.1,227.2 96.7,227.2 74,195.6 "/>
<path class="st3" d="M173,197.2c0-0.9-0.1-1.8-0.2-2.7h3.3l0.4-1c0.1-0.2,0.5-1.1,1.1-2.8c9,0,23,9.8,25.8,6.1
	c2.6-3.3-13.3-29.4-18.6-38c0.4-3.4,0.7-6.9,0.9-10.6c0.1-3.3,0.2-6.8,0-10.4c51.8,9.8,85.7,39.5,88.6,42.2
	c-2.5-3.2-28.3-42-89.5-53.2c-2.5-20.5-10.7-44.1-31.4-64.4l-1.1-1.1l-1.2,1c-18.8,15.8-29.8,38-32.3,64.8
	c-55.6,12-89.1,52.4-89.7,53.1c0.8-0.6,40.7-30.3,89.1-41.4c0,2.3,0,4.6,0.2,6.9c0.2,4.3,0.6,8.4,1.1,12.3
	c-4.7,7.5-21.8,35.4-19.2,38.8c2.9,3.8,17.6-6.8,26.6-6.1c0.6,1.7,1,2.7,1,2.7l0.4,1.1h1.9c-0.1,0.9-0.2,1.8-0.2,2.7
	c0,8.2,4.4,15.4,10.8,19.2l10.1,37.8l10.6-37.5C168.3,213.1,173,205.7,173,197.2z M140.3,191.1c-2.6-6-11.3-28.3-9.4-59.7
	c0.1-0.8-0.6-1.6-1.4-1.6c-0.9,0-1.6,0.6-1.6,1.4c-1.9,30.5,5.8,52.2,9.1,59.8h-6.4c-1.6-4.6-7.8-23.1-8.9-45.6
	c-0.9-19.2,2-44.6,17.9-66.1c2.5,1,11.9,4.2,21.9,1.3c7.3,10.8,26,47.2,2.5,110.4L140.3,191.1L140.3,191.1z"/>
<path class="st3" d="M152.4,103c-8.4,0-15.2,14.6-15.2,23s6.8,15.2,15.2,15.2c8.4,0,15.2-6.8,15.2-15.2
	C167.6,117.6,160.8,103,152.4,103z M146,126.8c-2.1,0-3.8-1.7-3.8-3.8s1.7-3.8,3.8-3.8c2.1,0,3.8,1.7,3.8,3.8
	C149.8,125.1,148.1,126.8,146,126.8z"/>
<path class="st3" d="M152.4,149.6c-4.4,0-8,3.6-8,8c0,4.4,3.6,18.3,8,18.3s8-13.9,8-18.3C160.3,153.1,156.8,149.6,152.4,149.6z"/>
<path class="st3" d="M130.2,124.8c-0.9,0-1.7,0.8-1.7,1.7c0,0.9,0.8,1.7,1.7,1.7s1.7-0.8,1.7-1.7
	C131.9,125.5,131.1,124.8,130.2,124.8z"/>
<path class="st3" d="M256.5,195.8c7.1-5.2,12.6-10.7,10.7-14.1c-1.3-2.4-5.5-2.6-12.7-0.4c-1.3,0.4-2.7,0.9-4.2,1.4
	c-3.6-3.5-8.5-5.6-13.9-5.6c-11.1,0-20.1,9-20.1,20.1c0,1.3,0.1,2.6,0.4,3.8c-1.4,1-2.6,2-3.8,3c-5.8,4.9-7.9,8.4-6.6,10.8
	c0.7,1.3,2.2,1.9,4.4,1.9c2.1,0,4.8-0.5,8.2-1.6c1.7-0.5,3.5-1.2,5.4-1.9c3.4,2.5,7.5,4,12,4c11.1,0,20.1-9,20.1-20.1
	C256.5,196.7,256.5,196.3,256.5,195.8z M236.4,180.3c4,0,7.7,1.4,10.6,3.7c-4.5,1.8-9.4,4.2-14.3,6.9c-4.8,2.6-9.2,5.3-13.1,8
	c-0.1-0.6-0.1-1.1-0.1-1.7C219.5,187.9,227.1,180.3,236.4,180.3z M209.1,213.4c-0.2-1.1,2.6-4.5,8.5-9c0.9,2.4,2.3,4.7,4.1,6.6
	C214.5,213.5,209.9,214.1,209.1,213.4z M220.3,202.4c3.7-2.6,8.4-5.6,13.9-8.6c5.8-3.1,10.9-5.5,15.2-7.2c1.8,2.2,3,4.8,3.6,7.8
	c-3.7,2.6-8.3,5.5-13.8,8.6c-5.3,2.9-10.1,5.1-14.2,6.8C222.8,207.7,221.2,205.2,220.3,202.4z M236.4,214.1c-3.1,0-6-0.8-8.4-2.3
	c4.1-1.7,8.4-3.8,12.8-6.2c3.8-2.1,8.3-4.7,12.5-7.6C252.9,207,245.5,214.1,236.4,214.1z M252.6,185.4c4.8-1.7,8.4-2.4,10.3-2.4
	c0.7,0,1.2,0.1,1.5,0.3c0.1,1.1-2.7,4.5-8.5,9C255.2,189.7,254.1,187.4,252.6,185.4z"/>
</svg>
