<?xml version="1.0" encoding="utf-8"?>
<!-- Generator: Adobe Illustrator 25.2.0, SVG Export Plug-In . SVG Version: 6.00 Build 0)  -->
<svg version="1.1" id="Layer_1" xmlns="http://www.w3.org/2000/svg" xmlns:xlink="http://www.w3.org/1999/xlink" x="0px" y="0px"
	 viewBox="0 0 328.8 453.6" style="enable-background:new 0 0 328.8 453.6;" xml:space="preserve">
<style type="text/css">
	.st0{fill:#7333A3;}
	.st1{fill:#90BD4A;}
	.st2{fill:#7EA540;}
	.st3{fill:#FAAA2D;}
	.st4{fill:#7356A4;}
	.st5{fill:#8463BE;}
	.st6{fill:#2E047A;}
	.st7{fill:#FAAF3B;}
	.st8{fill:#FAC26C;}
	.st9{fill:#612B89;}
	.st10{fill:#F1F1F1;}
	.st11{fill:#EE8031;}
	.st12{fill:#A87DF1;}
	.st13{fill:#612B88;}
	.st14{fill:#7333A2;}
	.st15{fill:#3B224D;}
	.st16{fill:#FFFFFF;}
	.st17{fill:#261234;}
	.st18{fill:#8F5CB5;}
	.st19{fill:#853BBC;}
	.st20{fill:#472063;}
</style>
<g id="b-arm">
	<path class="st0" d="M132.3,176.2c-6.3,4.2-13,7.8-19.9,10.8c-7,3-14.3,5.3-21.8,6.8c-7.2,1.4-14.6,2.1-22,2.1
		c-3.6,0-7.2-0.1-10.7-0.3c-1.8-0.1-3.5-0.3-5.3-0.4l-2.6-0.3l-1.3-0.1l-0.7-0.1h-0.3h-0.2h-0.1c0.1-3.6-0.2,8,0.2-8s0.1-4.4,0.2-8
		h0.3h0.3H49l1.2-0.1l2.4-0.2c1.6-0.2,3.2-0.4,4.7-0.6c3.1-0.4,6.2-0.9,9.3-1.6c5.9-1.2,11.7-3,17.3-5.2c5.4-2.3,10.4-5.2,15.1-8.6
		c4.8-3.4,9.3-7.1,13.4-11.3c6.3-6.2,16.5-6.2,22.8,0.2c6.2,6.3,6.2,16.5-0.2,22.8l0,0c-0.7,0.7-1.6,1.4-2.4,2L132.3,176.2z"/>
</g>
<g id="b-hand">
	<path class="st1" d="M37.7,181.7c-7.9,2.6-16.3,3.7-24.6,3.1h-0.1c-3.1-0.2-6.1,1.4-6.7,3.8c-0.6,2.1,1,3.9,3.5,4.5
		c5.1,1.1,10.4,1.6,15.6,1.6c5.5,0,11-0.5,16.3-1.6h0.2c4.5-0.9,7.4-4.2,6.6-7.4s-5-5.1-9.5-4.2C38.6,181.5,38.1,181.6,37.7,181.7z"
		/>
	<path class="st1" d="M34,185.8c-7.9,4.8-16.8,7.9-25.9,9.1H8c-3.4,0.4-6.2,3-6.3,5.7c0,2.4,2.2,4.1,5.1,4.1
		c5.9,0,11.8-0.6,17.5-1.8c6-1.3,11.8-3.1,17.4-5.6l0.2-0.1c4.6-2,6.9-6.4,5.1-9.7s-6.9-4.4-11.5-2.4C35,185.3,34.5,185.6,34,185.8z
		"/>
	<path class="st1" d="M31.4,193.6c-7.6,5.3-16.3,8.9-25.4,10.5H5.8c-3.4,0.6-6,3.4-5.8,6.2c0.2,2.5,2.6,4.2,5.6,4.2
		c5.9-0.2,11.8-1,17.6-2.5c5.9-1.5,11.6-3.7,17.1-6.5l0.2-0.1c4.5-2.3,6.4-6.9,4.2-10.4s-7.5-4.4-12-2.1
		C32.3,193.1,31.8,193.3,31.4,193.6z"/>
	<path class="st1" d="M35.9,199.6c-7.4,5.6-16.1,9.4-25.2,11h-0.1c-3.5,0.6-5.9,3.6-5.5,6.6c0.4,2.7,2.9,4.5,6,4.5
		c6-0.2,12-1,17.8-2.6c5.9-1.6,11.6-3.9,17-6.8l0.2-0.1c4.4-2.4,6-7.4,3.7-11.1s-7.9-4.8-12.3-2.4C36.8,198.9,36.4,199.3,35.9,199.6
		z"/>
	<path class="st1" d="M52.9,184.6L52.9,184.6c-2.9-4.4-8.8-5.9-13.5-3.5l-10.9,5.9c-6.5,4-7.7,13.9-4.4,19.9l0,0
		c4.2,7.6,15.5,10,23.1,4.1l0.6-0.5C56.2,204.1,58.3,192.6,52.9,184.6z"/>
	<path class="st1" d="M51.3,182.8c-7-10.2-20.3-10.3-29.8-8.1c-0.9,0.1-1.8,0.6-2.5,1.2c-0.8,0.9-1.1,2.1-0.8,3.2
		c0.2,0.5,0.4,0.9,0.8,1.2c0.6,0.5,1.3,0.8,2,0.8c2.9,0.4,12.3,1.9,13.6,6.3L51.3,182.8z"/>
	<path class="st2" d="M25.9,205.8c-1.8,1.2-3.7,2.2-5.7,3c-2,0.8-4,1.5-6.1,2c-1,0.3-2.1,0.5-3.2,0.6c-0.9,0.1-1.8,0.4-2.7,0.9
		c-1.8,1-3,2.8-3.2,4.9c-0.3-1.1-0.3-2.3,0.1-3.3c0.4-1.1,1.2-2,2.1-2.8c1-0.7,2.1-1.2,3.2-1.4c1-0.2,2-0.4,3.1-0.7
		c2-0.5,4.1-1,6.1-1.6S23.8,206.4,25.9,205.8z"/>
	<path class="st2" d="M30.4,183.6c0.1,1.8,0,3.5,0.1,5.2c0.1,1.7,0.3,3.3,0.8,4.9c0.5,1.6,1.3,3,2.4,4.3c1.1,1.3,2.6,2.3,4.2,2.9
		c-1.8-0.1-3.6-0.8-4.9-2.1c-1.4-1.2-2.4-2.8-3-4.6c-0.5-1.7-0.7-3.6-0.6-5.4C29.5,187.1,29.8,185.3,30.4,183.6z"/>
	<path class="st2" d="M23.4,198.9c-2,1.1-4.1,2.1-6.3,2.9c-2.2,0.8-4.3,1.6-6.6,2.2c-1.1,0.3-2.2,0.6-3.4,0.8l-1.7,0.3
		c-0.5,0.1-1,0.3-1.5,0.5c-1,0.4-1.9,1.1-2.5,1.9c-0.7,0.8-1.2,1.9-1.3,3c-0.2-1.2,0-2.4,0.7-3.4c0.6-1.1,1.6-1.9,2.6-2.5
		c0.5-0.3,1.1-0.5,1.7-0.7c0.6-0.2,1.2-0.2,1.7-0.4c1.1-0.2,2.2-0.5,3.3-0.8c2.2-0.6,4.4-1.2,6.6-1.9S21.1,199.6,23.4,198.9z"/>
	<path class="st2" d="M23.5,191.1c-1.9,0.9-3.8,1.7-5.9,2.4c-2,0.6-4,1.2-6.1,1.6c-1,0.2-2.1,0.4-3.1,0.5c-1,0.1-1.9,0.3-2.8,0.7
		c-0.9,0.4-1.7,1-2.4,1.7c-0.3,0.4-0.6,0.8-0.9,1.2c-0.2,0.5-0.4,1-0.5,1.5c-0.1-1.1,0.2-2.2,0.8-3.1c0.6-0.9,1.5-1.7,2.5-2.2
		c1-0.5,2-0.9,3.1-1c1-0.1,2-0.3,3.1-0.5C15.4,193,19.5,192.1,23.5,191.1z"/>
	<path class="st3" d="M42.9,177.5c0.4,7.8,2.4,15.4,5.8,22.5c2.4,5,8.3,6.7,12.2,4.3l0,0c3.8-2.2,5.2-6.9,3.4-10.9
		c-2.6-5.5-4.1-11.5-4.5-17.6c-0.3-4.4-3.9-7.8-8.2-7.9l0,0C46.9,167.7,42.5,172,42.9,177.5z"/>
</g>
<g id="l-leg">
	<path class="st0" d="M173.3,277.5c-6.8,14-11.1,29.2-12.7,44.7c-0.7,7.8-0.7,15.7,0,23.5c0.2,2,0.4,4,0.7,5.9s0.6,4,0.9,6
		s0.8,4,1.2,6l2,8.4l-26.8,3.7c1.1,4.8,0.3,1.3,0.6,2.4l0,0l0,0V378l-0.1-0.2l-0.1-0.4l-0.3-0.8l-0.6-1.7l-1.2-3.4
		c-0.8-2.2-1.5-4.5-2.2-6.8s-1.3-4.6-2-7s-1.1-4.7-1.7-7.1c-4.2-19.4-4.6-39.3-1.4-58.9c1.6-9.7,4-19.3,7.1-28.7L173.3,277.5z"/>
	<path class="st4" d="M111.4,435l-10.1-1.3c-4.7-0.5-8-4.7-7.5-9.4c0,0,0-0.1,0-0.1l0.7-5.4l27.5,3.4l-0.7,5.4
		C120.6,432.4,116.2,435.7,111.4,435z"/>
	<path class="st4" d="M143.4,433.8l10-2c4.6-0.8,7.7-5.3,6.8-9.9c0,0,0-0.1,0-0.1l-1.1-5.4l-27.2,5.4l1.1,5.4
		C134.1,431.9,138.7,434.8,143.4,433.8z"/>
	<path class="st5" d="M173.7,397.6l-0.4-9.5c-0.2-4.5-4.5-8-9.5-7.8l-5.9,0.2l1.1,25.6l5.9-0.2C170,405.8,173.9,402.1,173.7,397.6z"
		/>
	<path class="st5" d="M166.4,408.9c-0.5,2.2-1.2,4.3-1.9,6.4c-5.2,14.2-71.3,18.9-81.4,3c-0.8-1.8-1.4-3.8-1.5-5.7
		c-1.6-22.5,47.2-40,47.2-40l34.1-1.2C168.1,383.1,169.3,396.3,166.4,408.9z"/>
	<path class="st6" d="M166.4,408.9c-15.4,9.6-65.9,12.7-84.8,3.6c-1.6-22.5,47.2-40,47.2-40l34.1-1.2
		C168.1,383.1,169.3,396.3,166.4,408.9z"/>
	<path class="st7" d="M159.6,375.5c-10.8,2-22,2.2-32.9,0.5c-7.7-1.2-12.3-7.7-10.4-13.3l0,0c1.9-5.6,7.9-8.6,13.7-7.7
		c8.5,1.3,17.2,1.2,25.7-0.4c5.7-1,11.8,1.8,13.9,7.3l0,0C171.6,367.4,167.2,374.1,159.6,375.5z"/>
	<path class="st8" d="M159.4,361.8c-10.8,2-22,2.2-32.9,0.5c-7.7-1.2-12.3-7.7-10.4-13.3l0,0c1.9-5.6,7.9-8.6,13.7-7.7
		c8.5,1.3,17.2,1.2,25.7-0.4c5.7-1,11.8,1.8,13.9,7.3l0,0C171.4,353.7,167,360.4,159.4,361.8z"/>
	<path class="st9" d="M142.5,315c0,1.7-0.7,3.2-1.9,4.4c-1.2,1.2-2.7,2-4.4,2.3c-1.6,0.3-3.3,0.2-4.9-0.3c-1.5-0.5-2.9-1.5-3.8-2.8
		c1.3,0.7,2.7,1.2,4.2,1.4c1.4,0.2,2.8,0.2,4.2-0.1c1.4-0.3,2.7-0.8,3.8-1.6C140.8,317.5,141.8,316.3,142.5,315z"/>
</g>
<g id="r-leg">
	<path class="st0" d="M256.1,267.2c7.5,26.3,9.1,54,4.7,81l-27.2-1.7c-1.2-22.3-7.3-44-17.8-63.6L256.1,267.2z"/>
	<path class="st4" d="M214.8,453.5l-10.6-1.5c-5.1-0.9-8.6-5.7-7.9-10.8l0.8-6.2l28.7,3.9l-0.8,6.2c-0.5,5.1-5,8.9-10.1,8.4
		C214.9,453.5,214.8,453.5,214.8,453.5z"/>
	<path class="st4" d="M248.1,452.1l10.5-2.3c5.1-1.3,8.2-6.3,7.1-11.4l-1.2-6.1l-28.4,6.2l1.2,6.1c0.8,5,5.5,8.4,10.5,7.6
		C247.9,452.2,248,452.2,248.1,452.1z"/>
	<path class="st5" d="M279.9,410.8l-0.4-10.8c-0.3-5.2-4.8-9.2-10-8.9l-6.2,0.2l1.2,29.3l6.2-0.2c5.1,0,9.3-4.3,9.2-9.4
		C279.9,410.9,279.9,410.9,279.9,410.8z"/>
	<path class="st5" d="M272.2,423.6c-0.5,2.5-1.2,4.9-2,7.4c-5.4,16.2-74.6,21.6-85.1,3.4c-0.9-2.1-1.4-4.3-1.6-6.6
		c-1.7-25.8,49.4-45.7,49.4-45.7l35.6-1.4C274,394.3,275.3,409.3,272.2,423.6z"/>
	<path class="st6" d="M272.2,423.6c-16.1,11-68.9,14.6-88.7,4.2c-1.7-25.8,49.4-45.7,49.4-45.7l35.6-1.4
		C274,394.3,275.3,409.3,272.2,423.6z"/>
	<path class="st7" d="M265.1,385.5c-11.3,2.3-23,2.5-34.4,0.6c-8.1-1.4-12.8-8.8-10.8-15.2l0,0c1.9-6.1,8-9.9,14.3-8.8
		c8.9,1.5,18,1.4,26.8-0.5c6.3-1.3,12.5,2.3,14.5,8.3l0,0C277.6,376.2,273.1,383.9,265.1,385.5z"/>
	<path class="st8" d="M264.9,369.8c-11.3,2.3-23,2.5-34.4,0.6c-8.1-1.4-12.8-8.8-10.8-15.2l0,0c1.9-6.1,8-9.9,14.3-8.8
		c8.9,1.5,18,1.4,26.8-0.5c6.2-1.3,12.5,2.3,14.5,8.3l0,0C277.4,360.6,272.9,368.2,264.9,369.8z"/>
	<path class="st9" d="M251.8,316.8c0.2,2.5-0.5,4.9-2,6.9c-3,4.3-8.6,6.1-13.5,4.3c-2.4-0.7-4.4-2.3-5.6-4.5c1.9,1.2,4,2,6.2,2.3
		c2,0.3,4.1,0.2,6.1-0.4c2-0.6,3.7-1.7,5.2-3.2C249.7,320.7,251,318.8,251.8,316.8z"/>
</g>
<g id="body">
	<path class="st5" d="M164.5,240.1c17.5,7.1,28.3,22.9,23.9,35.3s-22.2,16.2-39.5,8.9c-17.1-7.2-27.3-22.7-23.2-34.8
		C129.9,237.4,147.1,233.1,164.5,240.1z"/>
	
		<ellipse transform="matrix(0.1714 -0.9852 0.9852 0.1714 -55.9969 261.2092)" class="st5" cx="127.3" cy="163.9" rx="27.9" ry="19.6"/>
	<path class="st5" d="M224.1,238.8c-21.3,9.2-33.9,27.6-28.4,41.3s27.4,17.8,49,8.9c21.9-9,35.1-27.9,29.2-42
		S245.7,229.5,224.1,238.8z"/>
	<path class="st6" d="M198,278.2h-1.1l0,0c-32.7-1.3-62.1-20.4-76.5-49.8c-10.5-21-12.1-45.3-4.6-67.5c2.2-6.5,5.7-14.7,8.7-21.3
		c50,17.9,101.4,19.8,156,1.1c3,6.7,5.7,13.6,7.9,20.7C306.9,221.1,259.9,280.2,198,278.2z"/>
	<path class="st10" d="M244.9,244.4c-9.8,27.4-33.4,40.2-74.1,31.4c-34.4-7.4-56.3-38.6-45.9-69c2.3-6.7,10.7-9.2,17.3-6.8
		c27.9,10.1,57.7,13.5,87.1,10C247.2,210.9,250.9,227.4,244.9,244.4z"/>
	<path class="st1" d="M194.7,225.4c1.1-6.9,11.9-5.1,10.6,1.7C204.2,234,193.4,232.3,194.7,225.4z"/>
	<path class="st11" d="M209.9,225.5c1.1-6.9,12-5.1,10.7,1.7C219.5,234.1,208.6,232.4,209.9,225.5z"/>
	<path class="st1" d="M225.4,224.9c1.1-7,12.1-5.2,10.8,1.7C235.1,233.6,224.1,231.8,225.4,224.9z"/>
	<path class="st12" d="M259.6,161.3c-14.5,6.3-34.7,10.1-57.5,9.6c-53.6-1.2-91.7-25.4-75.9-48.1c0.2-0.3,0.3-0.5,0.6-0.8
		c0,0,0-0.1,0-0.1c3.5-4.9,9.5-7.3,15.4-6.4c40.4,6.6,81.6,7.5,122.3,2.7c6-0.6,11.8,2.1,15.1,7.1c0,0,0,0.1,0.1,0.1
		c0.2,0.3,0.4,0.5,0.5,0.8C288.5,139.7,279.2,152.8,259.6,161.3z"/>
	<ellipse transform="matrix(0.9854 -0.17 0.17 0.9854 -25.7132 50.8128)" class="st5" cx="283.8" cy="175.5" rx="20.2" ry="31.9"/>
</g>
<g id="r-arm">
	<path class="st0" d="M303.8,167.8c3.4,3.4,6.3,7.2,8.8,11.2c2.3,3.7,4.3,7.7,6,11.8c3.4,8.1,5.3,16.7,5.7,25.5
		c0.4,8.8-1.1,17.6-4.4,25.8c-1.6,4-3.6,7.7-6,11.3c-1.2,1.7-2.4,3.4-3.8,5c-0.7,0.8-1.3,1.6-2,2.3l-1,1.1l-0.5,0.6l-0.3,0.3
		l-0.1,0.1l-0.1,0.1l0,0l0,0c-2.8-2.3,6.2,5.1-6.2-5.1s-3.4-2.9-6.2-5.2l0,0l0,0v-0.1l0.1-0.1l0.2-0.2l0.3-0.5l0.6-1
		c0.4-0.7,0.8-1.4,1.2-2c0.8-1.4,1.4-2.8,2.1-4.1c1.2-2.7,2-5.6,2.6-8.5c1.1-5.6,1-11.4-0.4-16.9c-2.1-8.3-6.3-16-12.1-22.3
		c-0.9-1-1.9-1.9-2.9-2.8c-0.9-0.7-1.8-1.4-2.7-2.1c-7.7-4.6-10.1-14.6-5.5-22.2c4.6-7.7,14.6-10.1,22.2-5.5
		c0.1,0.1,0.2,0.1,0.3,0.2c1,0.6,2,1.4,2.9,2.3L303.8,167.8z"/>
</g>
<g id="r-hand">
	<path class="st1" d="M273.3,279.3c-5.8,1.8-7.8,4.2-10.5,7.6c-0.5,0.5-1.2,0.9-1.9,0.9c-2,0.1-3.7-2-4.2-3.7
		c-0.8-3.1-0.3-6.3,1.3-9c4.2-8,15.5-17.7,26.9-18.2L273.3,279.3z"/>
	<path class="st1" d="M313.2,271.3c2.2,8.1-1.1,18.5-5.7,25.3l-0.3,0.5L269.3,280l15.6-23.3L313.2,271.3z"/>
	<path class="st1" d="M269.7,282.2c-1.2,6.5-4.2,12.5-8.7,17.2l-0.1,0.1c-1.6,1.8-1.5,4.6,0.3,6.2c0.1,0.1,0.1,0.1,0.2,0.1
		c1.7,1.5,4.2,1.6,6,0.4c3.4-2.5,6.5-5.5,9-8.9c2.6-3.4,4.7-7.2,6.2-11.2l0.1-0.2c1.2-3.5-0.6-7.2-4.1-8.4c-3.3-1.4-7.2,0.2-8.6,3.5
		c0,0,0,0,0,0C269.8,281.5,269.8,281.9,269.7,282.2z"/>
	<path class="st1" d="M279,283.8c-1.1,6.5-4.1,12.5-8.8,17.2l-0.1,0.1c-1.8,1.8-1.5,4.7,0.7,6.5c1.8,1.6,4.4,1.8,6.5,0.6
		c7.2-4.8,12.6-11.8,15.6-19.9l0.1-0.2c1.2-3.3-0.8-7.2-4.6-8.7s-7.9,0-9.1,3.3C279.1,283.1,279,283.4,279,283.8z"/>
	<path class="st1" d="M287.7,286.7c-1,6.5-4.1,12.5-8.8,17.2l-0.1,0.1c-1.8,1.8-1.5,4.7,0.7,6.5c1.8,1.6,4.4,1.8,6.5,0.5
		c7.1-4.9,12.6-11.8,15.6-19.9l0.1-0.2c1.2-3.3-0.8-7.2-4.6-8.7s-7.9,0-9.1,3.3C287.8,285.9,287.7,286.3,287.7,286.7z"/>
	<path class="st1" d="M295.5,287.6c-1,6.5-4.1,12.5-8.8,17.2l-0.1,0.1c-1.8,1.8-1.5,4.7,0.7,6.5c1.8,1.6,4.4,1.8,6.5,0.6
		c7.1-4.8,12.6-11.8,15.6-19.9l0.1-0.2c1.2-3.3-0.9-7.2-4.6-8.7s-7.9,0-9.1,3.3C295.6,286.9,295.5,287.2,295.5,287.6z"/>
	<path class="st2" d="M267,306.1c1.6-1.5,3.2-2.9,4.6-4.5c1.5-1.5,2.9-3.1,4.2-4.8c1.3-1.7,2.5-3.4,3.7-5.2c1.1-1.8,2.2-3.7,3.2-5.6
		c-1,4.3-2.9,8.3-5.7,11.7c-1.4,1.7-2.9,3.3-4.6,4.7C270.8,303.9,269,305.1,267,306.1z"/>
	<path class="st2" d="M277.7,307.9c1.6-1.5,3.2-2.9,4.6-4.5c2.9-3.1,5.6-6.4,7.8-10c1.1-1.8,2.2-3.7,3.2-5.6
		c-1,4.3-2.9,8.3-5.7,11.7c-1.4,1.7-2.9,3.3-4.6,4.7C281.5,305.7,279.7,306.9,277.7,307.9z"/>
	<path class="st2" d="M286.9,310.3c1.6-1.5,3.2-2.9,4.6-4.5c2.9-3.1,5.6-6.4,7.8-10c1.1-1.8,2.2-3.7,3.2-5.6
		c-1,4.3-2.9,8.3-5.7,11.7c-1.4,1.7-2.9,3.3-4.6,4.7C290.7,308.2,288.9,309.4,286.9,310.3z"/>
	<path class="st3" d="M286.4,261.2c6.8,5.2,14.5,9,22.7,11.2c5.8,1.6,11.5-2.1,12.2-7.1l0,0c0.8-4.7-2-9.3-6.6-10.6
		c-6.4-1.7-12.4-4.7-17.7-8.8c-3.8-2.8-9.2-2.3-12.4,1.2l0,0C281.1,250.9,281.6,257.5,286.4,261.2z"/>
</g>
<g id="head">
	<path class="st13" d="M109.3,56.7c-0.2-7.2-2.7-12.8-6.6-13.6c-5.4-1.1-11.5,6.8-13.6,17.7s0.5,20.8,5.9,21.9
		c4,0.8,8.3-3.2,11.1-9.8c7-2,16.3,1.4,16.3,1.4l1.2-6.1l1.2-6.1C124.8,62.1,115,61.5,109.3,56.7z"/>
	<path class="st14" d="M291.8,76.6c0,6.4-7.2,11.8-8.9,17.8s1.4,14.2-2,19.6s-12.2,6.4-16.8,10.8s-5.5,12.7-10.9,16
		c-5.2,3.1-13.6,0.4-19.5,2.5c-5.7,2-10,9.1-16.1,9.9c-5.9,0.8-12.4-4.6-18.6-4.9s-12.5,4.6-18.2,3.2c-5.8-1.4-9.9-8.6-15.1-10.9
		s-13-0.4-17.6-3.7s-5.7-11.4-9.5-15.6s-11.5-5.7-14.2-10.6s-0.2-12.3-1.6-17.9s-7.3-10.4-7.3-16.2s5.9-10.7,7.3-16.2
		s-1.2-12.9,1.6-17.9s10.3-6.4,14.2-10.6s4.8-12.2,9.5-15.5s12.2-1.3,17.6-3.7s9.3-9.6,15.1-11c5.7-1.3,12.1,3.5,18.2,3.3
		s12.7-5.7,18.6-4.9c6.1,0.9,10.4,8,16.1,9.9c5.9,2.1,14.3-0.6,19.5,2.5c5.4,3.2,6.5,11.7,10.9,16s13.5,5.5,16.8,10.8
		s0.2,13.5,2,19.6S291.8,70.2,291.8,76.6z"/>
	<path class="st9" d="M161.6,35.3c-1.1-0.8-2.5-0.8-3.6-0.2c-1.2,0.6-2.1,1.5-2.8,2.6c-0.7,1.1-1.4,2.3-2.2,3.6
		c-0.4,0.6-0.9,1.2-1.5,1.8c-0.6,0.6-1.2,1-1.9,1.4c-1.4,0.8-2.7,1.2-3.9,1.8c-1.1,0.4-2.1,1-3,1.8c-1.8,1.8-2.6,4.3-2.3,6.8
		l-0.2,0.1c-0.9-1.2-1.4-2.8-1.2-4.3c0.1-1.6,0.7-3.2,1.7-4.4c0.5-0.7,1.2-1.2,1.9-1.6c0.7-0.4,1.4-0.7,2.1-0.9
		c1.3-0.3,2.6-0.7,3.9-1.2c1.1-0.5,2.1-1.3,2.9-2.3c0.8-1,1.6-2.2,2.5-3.3c0.9-1.2,2.2-2.1,3.6-2.6c0.7-0.2,1.5-0.3,2.2-0.2
		c0.7,0.1,1.4,0.4,1.9,1L161.6,35.3z"/>
	<path class="st9" d="M237.9,33.2c0.5-0.6,1.3-1,2.1-1.2c0.8-0.1,1.6-0.1,2.4,0.1c1.6,0.4,2.9,1.3,4,2.5c1.1,1.2,1.9,2.4,2.9,3.5
		c0.9,1,2,1.8,3.3,2.3c1.4,0.4,2.8,0.8,4.3,1c0.8,0.2,1.6,0.5,2.4,0.8c0.8,0.4,1.6,1,2.2,1.7c2.5,2.6,2.8,6.8,0.8,9.4l-0.2-0.1
		c0.5-2.7-0.5-5.5-2.5-7.3c-1.7-1.6-4.7-2.1-7.7-3.4c-0.8-0.4-1.5-0.8-2.1-1.3c-0.6-0.5-1.2-1.2-1.7-1.8c-1-1.3-1.7-2.6-2.6-3.8
		c-0.8-1.2-1.9-2.1-3.2-2.6c-1.3-0.6-2.9-0.4-4,0.4L237.9,33.2z"/>
	<path class="st9" d="M270.4,68.2c0.8,0,1.6,0.3,2.2,0.9c0.6,0.5,1.1,1.2,1.4,1.9c0.7,1.5,0.8,3.1,0.5,4.7c-0.2,1.6-0.7,3-0.9,4.4
		c-0.3,1.3-0.2,2.7,0.3,4c0.5,1.3,1.2,2.6,1.9,4c0.4,0.8,0.6,1.5,0.8,2.4c0.2,0.9,0.2,1.8,0.1,2.7c-0.5,3.6-3.5,6.5-6.8,6.5
		l-0.1-0.3c2.4-1.3,4-3.8,4.1-6.5c0.1-2.3-1.3-5-2.2-8.2c-0.2-0.8-0.3-1.7-0.3-2.5c0-0.8,0.2-1.6,0.4-2.4c0.4-1.6,1-2.9,1.3-4.3
		c0.4-1.4,0.4-2.8,0-4.2c-0.3-1.4-1.4-2.5-2.9-2.8L270.4,68.2z"/>
	<path class="st9" d="M150.7,115.4c-0.4,0.4-0.9,0.7-1.4,0.7c-0.5,0.1-1.1,0-1.6-0.2c-1-0.4-1.9-1-2.6-1.9c-1.3-1.7-2.3-3.5-3.9-4.1
		c-0.9-0.3-1.9-0.6-2.8-0.9c-0.5-0.2-1.1-0.4-1.6-0.7c-0.5-0.3-1-0.7-1.4-1.2c-1.5-1.8-1.7-4.4-0.4-6.4l0.2,0.1
		c-0.2,1.8,0.4,3.7,1.7,5c1.1,1.1,3,1.6,5,2.6c1,0.6,1.8,1.4,2.4,2.3c0.6,0.9,1,1.8,1.6,2.6c0.5,0.8,1.2,1.5,2,1.9
		c0.8,0.5,1.9,0.4,2.7-0.1L150.7,115.4z"/>
	<path class="st9" d="M229.6,130.3c0.8,0.6,1.9,0.7,2.8,0.3c0.9-0.3,1.7-1,2.2-1.8c0.6-0.8,1.1-1.7,1.8-2.6c0.7-1,1.6-1.7,2.7-2.2
		c2.1-0.9,4.1-1.3,5.4-2.3c1.4-1.3,2.1-3.2,1.7-5.1l0.2-0.1c1.4,2,1.1,4.7-0.6,6.5c-0.4,0.5-0.9,0.8-1.5,1.1
		c-0.5,0.2-1.1,0.4-1.6,0.6c-1.1,0.2-2.1,0.4-3,0.7c-0.9,0.3-1.7,0.9-2.3,1.6c-0.7,0.7-1.2,1.6-2,2.4c-0.7,0.8-1.7,1.5-2.8,1.7
		c-0.5,0.1-1.1,0.2-1.6,0.1c-0.5-0.1-1-0.4-1.4-0.8L229.6,130.3z"/>
	<path class="st9" d="M183.7,24.6c-0.1-1.7,0.5-3.4,1.7-4.6c0.7-0.6,1.5-1.1,2.3-1.4c0.9-0.2,1.8-0.3,2.7-0.2
		c1.7,0.1,3.3,0.6,4.7,0.9c1.3,0.3,2.7,0.2,4-0.2c1.4-0.4,2.8-1.1,4.3-1.6c0.8-0.3,1.6-0.5,2.4-0.7c0.9-0.2,1.8-0.2,2.7-0.1
		c1.8,0.2,3.4,1,4.7,2.2c1.2,1.2,2,2.6,2.5,4.2c-0.9-1.2-2-2.3-3.3-3.1c-1.2-0.8-2.6-1.2-4-1.1c-0.7,0-1.3,0.1-2,0.3
		c-0.7,0.2-1.4,0.5-2,0.8c-1.4,0.7-2.9,1.3-4.5,1.8c-0.9,0.3-1.8,0.4-2.7,0.4c-0.9,0-1.8-0.1-2.6-0.3c-1.6-0.4-3.1-1-4.5-1.3
		c-0.7-0.2-1.3-0.2-2-0.1c-0.7,0.1-1.3,0.3-1.9,0.6C185.1,21.9,184.2,23.2,183.7,24.6z"/>
	<path class="st9" d="M169.1,130.2c0.2,0.9,0.7,1.8,1.4,2.4c0.7,0.5,1.6,0.7,2.4,0.6c0.9-0.1,1.9-0.4,2.9-0.5c1.1-0.2,2.3,0,3.4,0.4
		c0.9,0.4,1.8,0.9,2.7,1.4c0.4,0.2,0.8,0.4,1.2,0.6c0.4,0.2,0.8,0.3,1.2,0.3c1.9,0.1,3.7-0.8,4.9-2.3c-0.4,1-1,1.9-1.8,2.5
		c-0.9,0.7-2,1.1-3.1,1.1c-0.6,0-1.2-0.1-1.7-0.2c-0.5-0.2-1-0.4-1.5-0.6c-0.9-0.5-1.8-1-2.6-1.3c-0.8-0.3-1.7-0.5-2.5-0.4
		c-1,0.1-2,0.2-3,0.3c-0.6,0-1.2-0.1-1.7-0.3c-0.5-0.2-1-0.6-1.4-1C169.2,132.3,168.9,131.3,169.1,130.2z"/>
	<path class="st15" d="M167.4,81.2c0,0-9-21.4-29.8-6.3C137.6,74.9,151.1,103.7,167.4,81.2z"/>
	<path class="st16" d="M166.6,81c0,0-7.5-19.4-26.7-5.5C139.9,75.5,150.4,98.9,166.6,81z"/>
	<ellipse transform="matrix(0.9872 -0.1595 0.1595 0.9872 -10.7543 25.8139)" class="st1" cx="155.4" cy="79.9" rx="7.4" ry="8.1"/>
	<path class="st17" d="M155.4,74.3c0.5,0.7,0.9,1.5,1.1,2.4c0.4,1.6,0.3,3.2-0.1,4.7c-0.3,0.9-0.7,1.7-1.3,2.3
		c-0.5-0.7-0.9-1.5-1.1-2.4c-0.2-0.8-0.3-1.6-0.2-2.4c0-0.8,0.2-1.6,0.4-2.4C154.4,75.8,154.8,75,155.4,74.3z"/>
	<path class="st14" d="M135.1,71.1c0.1,2.5,2.6,3.6,4.9,3.8s4.5-0.6,6.8-0.9c4-0.5,8.1,0.3,11.6,2.5c1.8,1.3,3.6,2.4,5.5,3.5
		c1.9,0.9,4.3,1.2,6,0s2.3-5,0.6-6.4l-2.5-1.9c-4.2-3.3-9.3-5.4-14.6-5.8l0,0c-6.2-0.7-10.3,0-15.6,3.5L135.1,71.1z"/>
	<path class="st15" d="M135.1,71.1c0.5,1.7,2,3,3.8,3.4c1.6,0.4,3.4-0.1,5.1-0.6c1.9-0.7,3.9-1,5.9-1.1c2,0,4.1,0.3,6,0.9
		c1.9,0.7,3.7,1.6,5.3,2.8c1.4,1.1,2.9,2,4.6,2.6c1.5,0.6,3.2,0.3,4.4-0.7c1.3-1.3,1.4-3.3,0.4-4.8c0.9,0.6,1.4,1.5,1.5,2.6
		c0.3,2.3-1.2,4.5-3.4,5c-1.1,0.3-2.2,0.3-3.3,0.1c-2-0.5-3.8-1.4-5.5-2.5c-1.5-1-3.1-1.8-4.8-2.4c-1.7-0.6-3.4-0.9-5.1-0.9
		c-1.8,0-3.6,0.2-5.3,0.6c-2,0.5-4.1,0.5-6.1-0.2c-1-0.4-1.8-1.1-2.5-1.9c-0.3-0.4-0.5-0.9-0.7-1.3C135.2,72,135.1,71.5,135.1,71.1z
		"/>
	<path class="st18" d="M137.8,69.3c1.8-2.2,4.2-3.9,6.9-4.7c2.7-0.9,5.7-1.2,8.5-0.7c2.8,0.5,5.5,1.4,8,2.7c1.2,0.7,2.4,1.5,3.5,2.3
		s2.2,1.8,3.2,2.7c-1.3-0.6-2.5-1.3-3.6-2s-2.5-1.2-3.7-1.7c-0.6-0.2-1.3-0.5-1.9-0.7l-0.9-0.4l-1-0.3l-1.9-0.5l-2-0.3
		c-2.6-0.4-5.3-0.3-7.9,0.3C142.4,66.6,140,67.7,137.8,69.3z"/>
	<path class="st15" d="M177.2,99.2c-1.4-0.9-2.5-1.7-3.8-2.4c-0.6-0.4-1.2-0.7-1.9-1s-1.3-0.6-2.1-1c0.8-0.2,1.6-0.2,2.4,0
		c0.8,0.2,1.6,0.5,2.3,0.9c0.7,0.4,1.3,0.9,1.9,1.5C176.5,97.7,176.9,98.4,177.2,99.2z"/>
	<path class="st15" d="M181.7,99.6c0.5-0.7,1.1-1.4,1.8-1.9c0.7-0.5,1.5-0.9,2.3-1.2c0.8-0.3,1.7-0.5,2.6-0.5c0.9,0,1.8,0.1,2.6,0.4
		c-0.9,0.2-1.6,0.4-2.4,0.6s-1.5,0.5-2.3,0.7C184.7,98.3,183.3,98.9,181.7,99.6z"/>
	<path class="st13" d="M304.8,112.7l9.2-26.2l-8-26.6c-0.3,15.1-20.5,17.1-33.2,17c-5.6-0.1-10.2,3.7-10.3,8.5l0,0
		c-0.1,4.8,4.3,8.8,9.9,8.9C285.1,94.6,305.2,97.6,304.8,112.7z"/>
	
		<ellipse transform="matrix(2.233833e-02 -0.9998 0.9998 2.233833e-02 218.8225 396.5827)" class="st19" cx="312.2" cy="86.4" rx="29.6" ry="16.6"/>
	
		<ellipse transform="matrix(2.233833e-02 -0.9998 0.9998 2.233833e-02 219.7922 397.5748)" class="st20" cx="313.2" cy="86.4" rx="20.6" ry="11.5"/>
	<path class="st15" d="M200.2,84.8c0,0,17.4-24,41.9,1.4C242.1,86.2,216.7,118,200.2,84.8z"/>
	<path class="st16" d="M201.3,84.8c0,0,15-22,37.6,1.4C238.8,86.2,218.8,112.2,201.3,84.8z"/>
	<circle class="st1" cx="217.3" cy="85.6" r="10.3"/>
	<path class="st17" d="M218.2,79.8c0.7,1,1.1,2.1,1.3,3.3c0.2,1,0.2,2.1,0,3.1c-0.2,1-0.5,2-1,2.9c-0.6,1.1-1.3,2-2.3,2.7
		c-0.7-1-1.1-2.1-1.3-3.3c-0.3-2.1,0-4.2,1-6C216.4,81.5,217.2,80.5,218.2,79.8z"/>
	<path class="st14" d="M246.4,82.1c-0.8,3.1-4.5,3.7-7.6,3.3s-6-2.1-9-3.2c-5.2-1.9-11-2.1-16.3-0.5c-2.8,0.8-5.4,2.2-8.3,2.7
		s-6.1,0.2-8.1-1.9s-1.9-6.9,0.7-8.2l3.9-1.7c6.7-3.1,13.9-3.6,21.3-2.7l0,0c8.6,1,14,3.2,20.2,9.2L246.4,82.1z"/>
	<path class="st15" d="M246.4,82.1c-0.3,1.3-1.1,2.5-2.2,3.2c-1.1,0.8-2.5,1.3-3.8,1.4c-2.8,0.3-5.5-0.8-7.8-1.8
		c-1.2-0.5-2.4-1-3.5-1.4c-1.1-0.4-2.3-0.8-3.5-1c-2.4-0.5-4.8-0.7-7.2-0.5c-1.2,0.1-2.4,0.2-3.6,0.5c-1.2,0.3-2.4,0.6-3.6,1
		c-2.4,0.7-5,1.7-7.9,1.6c-1.4,0-2.8-0.3-4.1-0.9c-1.3-0.6-2.5-1.6-3.2-2.8c-0.7-1.3-0.9-2.7-0.5-4.1c0.2-0.7,0.4-1.3,0.9-1.8
		c0.4-0.5,1-0.9,1.6-1.2c-1,0.7-1.7,1.9-1.7,3.1c-0.1,1.2,0.3,2.3,0.9,3.3c0.7,0.9,1.6,1.5,2.7,1.8c1.1,0.3,2.3,0.5,3.4,0.4
		c2.4-0.3,4.8-0.9,7.1-1.9c2.5-1,5.1-1.6,7.8-1.8c2.7-0.2,5.4,0.1,8.1,0.7c2.6,0.7,5,1.7,7.3,3c1.1,0.6,2.2,1.1,3.4,1.6
		c1.1,0.5,2.3,0.7,3.5,0.8c1.2,0,2.4-0.2,3.5-0.7C245,84.1,245.9,83.2,246.4,82.1z"/>
	<path class="st18" d="M243.2,79.1c-2.6-2.7-5.6-4.9-9-6.4c-3.3-1.5-6.9-2.5-10.5-2.8l-2.7-0.2c-0.9,0-1.8,0.1-2.7,0.1
		c-1.8,0.1-3.7,0.2-5.5,0.5c-0.9,0.1-1.8,0.4-2.8,0.5l-2.8,0.5c-1.8,0.5-3.6,1-5.5,1.4c1.7-0.9,3.4-1.7,5.2-2.5
		c1.8-0.6,3.6-1.3,5.5-1.7c0.9-0.2,1.9-0.4,2.8-0.6c0.5-0.1,1-0.2,1.4-0.2l1.5-0.1c1-0.1,1.9-0.2,2.9-0.1l2.9,0.2
		c0.5,0,1,0.1,1.5,0.2l1.4,0.3c0.5,0.1,1,0.2,1.4,0.3l1.4,0.4l1.4,0.4c0.5,0.2,0.9,0.4,1.4,0.6l1.3,0.6c0.4,0.2,0.9,0.5,1.3,0.7
		C238.5,72.9,241.3,75.7,243.2,79.1z"/>
	<path class="st15" d="M163.3,103.6c2.5,1.5,5.2,2.6,8,3.4c2.8,0.8,5.6,1.3,8.5,1.6c2.9,0.2,5.7,0.2,8.6,0.1
		c2.9-0.1,5.8-0.3,8.6-0.8l0.1,0.2c-2.6,1.4-5.6,2.3-8.6,2.6c-3,0.2-6,0.1-8.9-0.5c-2.9-0.5-5.8-1.2-8.6-2.2c-2.8-1-5.4-2.4-7.8-4.1
		L163.3,103.6z"/>
</g>
</svg>
