<?xml version="1.0" encoding="utf-8"?>
<!-- Generator: Adobe Illustrator 25.2.0, SVG Export Plug-In . SVG Version: 6.00 Build 0)  -->
<svg version="1.1" id="Layer_1" xmlns="http://www.w3.org/2000/svg" xmlns:xlink="http://www.w3.org/1999/xlink" x="0px" y="0px"
	 viewBox="0 0 256.2 444.2" style="enable-background:new 0 0 256.2 444.2;" xml:space="preserve">
<style type="text/css">
	.st0{fill:#7333A3;}
	.st1{fill:#90BD4A;}
	.st2{fill:#7EA540;}
	.st3{fill:#FAAA2D;}
	.st4{fill:#612B89;}
	.st5{fill:#61498A;}
	.st6{fill:#8463BE;}
	.st7{fill:#7256A5;}
	.st8{fill:#240360;}
	.st9{fill:#E19D35;}
	.st10{fill:#FAAF3B;}
	.st11{fill:#2E047A;}
	.st12{fill:#A87DF1;}
	.st13{fill:#F1F1F1;}
	.st14{fill:#EE8031;}
	.st15{fill:#7333A2;}
	.st16{fill:#853BBC;}
	.st17{fill:#472063;}
	.st18{fill:#3B224D;}
	.st19{clip-path:url(#SVGID_2_);}
	.st20{fill:#FFFFFF;}
	.st21{fill:#261234;}
	.st22{fill:#8F5CB5;}
	.st23{clip-path:url(#SVGID_4_);}
	.st24{fill:#7356A4;}
	.st25{fill:#FAC26C;}
</style>
<g id="b-arm">
	<path class="st0" d="M140.2,182.6c-7.5,0.7-15.1,0.8-22.7,0.2c-7.6-0.6-15.1-2-22.4-4.2c-7.1-2.2-13.9-5-20.5-8.4
		c-3.2-1.7-6.3-3.5-9.3-5.3c-1.5-1-3-1.9-4.5-2.9l-2.2-1.5l-1.1-0.7l-0.5-0.4l-0.3-0.2l-0.1-0.1l-0.1-0.1l0,0l0,0c1.8-3.1-4,7,4-7
		s2.2-3.9,4-7l0,0l0,0h0.1l0.1,0.1l0.3,0.1l0.6,0.2l1.1,0.5l2.2,0.9c1.5,0.6,3,1.1,4.4,1.7c3,1.1,5.9,2.1,8.9,3
		c5.8,1.7,11.7,2.9,17.7,3.5c5.8,0.5,11.6,0.5,17.4-0.3c5.8-0.7,11.5-2,17.1-3.7c8.4-2.8,17.5,1.8,20.3,10.2
		c2.8,8.4-1.8,17.5-10.2,20.3c-0.3,0.1-0.6,0.2-0.9,0.3c-1,0.3-2,0.5-3.1,0.6L140.2,182.6z"/>
</g>
<g id="b-hand">
	<g id="b-hand-2">
		<path class="st1" d="M51.3,143c-9-1.5-17.6-4.7-25.3-9.6l-0.1-0.1c-2.9-1.8-6.6-1.7-8.4,0.2c-1.6,1.7-1.1,4.3,1.1,6.1
			c4.4,3.7,9.2,6.9,14.2,9.5c5.3,2.8,10.8,5.1,16.6,6.8l0.2,0.1c4.8,1.4,9.3-0.3,10.2-3.8s-2.2-7.5-7-8.9
			C52.3,143.3,51.8,143.1,51.3,143z"/>
		<path class="st1" d="M45.7,145.2c-10.1,0.5-20.2-1-29.6-4.5h-0.1c-3.5-1.3-7.5-0.3-8.9,2.2c-1.2,2.3,0,5.1,2.8,6.6
			c5.7,3,11.6,5.4,17.8,7.2c6.4,1.8,12.9,3,19.5,3.5h0.3c5.5,0.4,9.9-2.6,9.9-6.7s-4.4-7.8-9.9-8.2
			C46.9,145.2,46.3,145.2,45.7,145.2z"/>
		<path class="st1" d="M39.2,151.4c-10.1,1.2-20.3,0.2-29.9-2.9l-0.1-0.1c-3.6-1.2-7.6,0.2-8.8,3c-1.1,2.6,0.3,5.4,3.2,6.9
			c5.8,2.9,11.9,5.1,18.3,6.6c6.5,1.5,13.1,2.4,19.8,2.5h0.3c5.5,0.1,9.7-3.4,9.4-7.9s-4.9-8.1-10.4-8.2
			C40.3,151.3,39.7,151.3,39.2,151.4z"/>
		<path class="st1" d="M40.5,159.4c-10,1.6-20.3,0.8-30-2.3h-0.1c-3.7-1.2-7.6,0.4-8.7,3.5c-1,2.8,0.5,5.9,3.4,7.3
			c5.9,2.9,12.1,5.1,18.5,6.6c6.5,1.5,13.2,2.2,19.8,2.1h0.3c5.5-0.1,9.6-4,9.2-8.8s-5.2-8.6-10.7-8.6
			C41.6,159.3,41.1,159.3,40.5,159.4z"/>
		<path class="st1" d="M64.4,153.7L64.4,153.7c-0.5-5.8-5.4-10.2-11.2-10.2l-13.5,0.1c-8.3,0.6-14.6,9.5-14.4,16.9l0,0
			c0.2,9.5,9.8,17.5,20.1,15.8l0.9-0.1C57.7,174.1,65.6,164.1,64.4,153.7z"/>
		<path class="st1" d="M63.8,151.1c-1.6-13.4-14.2-20.3-24.6-23.1c-1-0.3-2-0.4-3-0.1c-1.2,0.4-2.1,1.5-2.4,2.7
			c-0.1,0.5,0,1.1,0.2,1.6c0.3,0.7,0.8,1.4,1.4,1.8c2.6,1.8,10.9,8.1,9.8,13L63.8,151.1z"/>
		<path class="st2" d="M27.6,160.2c-2.3,0.2-4.7,0.2-7,0c-2.3-0.2-4.7-0.6-6.9-1.2c-1.1-0.3-2.3-0.6-3.4-1c-1-0.4-2-0.5-3-0.5
			c-2.2,0-4.3,1.1-5.4,3c0.2-1.2,0.9-2.3,1.8-3.1c1-0.8,2.1-1.3,3.4-1.6c1.3-0.2,2.6-0.1,3.8,0.3c1.1,0.4,2.2,0.6,3.3,0.9
			c2.2,0.6,4.4,1.1,6.7,1.6S25.3,159.7,27.6,160.2z"/>
		<path class="st2" d="M43.3,141.2c-0.8,1.8-1.8,3.4-2.6,5.1c-0.8,1.6-1.4,3.4-1.7,5.2c-0.3,1.8-0.3,3.6,0.2,5.3
			c0.4,1.8,1.3,3.5,2.5,4.9c-1.7-1-3-2.6-3.7-4.5c-0.7-1.9-0.9-4-0.5-6c0.4-2,1.1-3.8,2.2-5.5C40.7,144.1,41.9,142.5,43.3,141.2z"/>
		<path class="st2" d="M28.7,152.4c-2.5,0-5-0.1-7.5-0.4c-2.5-0.3-5-0.7-7.5-1.3c-1.2-0.3-2.5-0.6-3.7-1l-1.8-0.6
			c-0.6-0.1-1.1-0.2-1.7-0.3c-2.4-0.3-4.8,0.8-6.2,2.8c0.4-1.3,1.2-2.3,2.4-3c1.2-0.7,2.5-1.1,3.8-1.1c0.7,0,1.3,0.1,2,0.2
			c0.7,0.2,1.3,0.4,1.9,0.5c1.2,0.3,2.4,0.6,3.6,0.9c2.4,0.6,4.9,1.1,7.3,1.6L28.7,152.4z"/>
		<path class="st2" d="M32.9,144.9c-2.3-0.1-4.6-0.3-6.8-0.7c-2.3-0.4-4.5-1-6.7-1.6c-1.1-0.3-2.2-0.7-3.3-1.1c-1-0.4-2-0.7-3.1-0.7
			c-1.1-0.1-2.2,0.1-3.2,0.4c-0.5,0.2-1,0.4-1.5,0.7c-0.5,0.3-0.9,0.7-1.2,1.2c0.5-1.1,1.3-2,2.4-2.5c1.1-0.6,2.3-0.8,3.5-0.9
			c1.2,0,2.4,0.2,3.5,0.6c1.1,0.4,2.1,0.7,3.2,1.1C24.1,142.6,28.5,143.7,32.9,144.9z"/>
	</g>
	<path class="st3" d="M58.4,141.7c-3.6,7.7-5.6,16.1-6,24.6c-0.2,6,4.6,10.7,9.6,10.4l0,0c4.8-0.2,8.6-4,8.9-8.8
		c0.3-6.6,1.9-13.2,4.7-19.2c1.9-4.4,0.3-9.5-3.9-11.9l0,0C67.4,134.3,61,136.2,58.4,141.7z"/>
</g>
<g id="b-leg">
	<path class="st4" d="M191.8,267c-6,14.4-9.5,29.8-10.2,45.4c-0.3,7.9,0.2,15.7,1.4,23.5c0.4,2,0.6,3.9,1,5.9s0.8,3.9,1.3,5.9
		s1,3.9,1.5,5.9l2.5,8.2l-26.5,5.3c1.4,4.7,0.4,1.3,0.7,2.3l0,0l0,0v-0.1l-0.1-0.2l-0.2-0.4l-0.4-0.8l-0.7-1.6l-1.4-3.3
		c-0.9-2.2-1.8-4.5-2.6-6.7s-1.6-4.6-2.4-6.8s-1.4-4.6-2.1-7c-5.3-19.1-6.9-39-4.7-58.7c1.1-9.8,2.9-19.5,5.5-29L191.8,267z"/>
</g>
<g id="b-shoe">
	<path class="st5" d="M136.5,439.4l-11-1.2c-5-0.5-8.7-5-8.2-10c0,0,0-0.1,0-0.1l0.7-5.9l29.7,3.3l-0.7,5.9
		C146.2,436.4,141.6,440,136.5,439.4z"/>
	<path class="st5" d="M170.8,439.2l10.8-2.3c5-1,8.2-5.8,7.2-10.7c0,0,0-0.1,0-0.1l-1.3-5.8l-29.2,6.2l1.3,5.7
		C160.8,437.2,165.8,440.3,170.8,439.2z"/>
	<path class="st6" d="M203,398.3l-0.6-10.2c-0.3-4.8-4.9-8.5-10.4-8.3l-6.4,0.3l1.6,27.6l6.4-0.3C199.1,407.2,203.3,403.1,203,398.3
		z"/>
	<path class="st7" d="M195.3,410.5c-0.5,2.4-1.2,4.7-2,7c-5.4,15.3-76.6,21.4-87.6,4.3c-0.9-1.9-1.5-4-1.7-6.2
		c-2.1-24.2,50.3-43.7,50.3-43.7l36.7-1.8C196.8,383.4,198.3,397.2,195.3,410.5z"/>
	<path class="st8" d="M195.3,410.5c-16.5,10.5-70.8,14.6-91.3,5.1c-2.1-24.2,50.3-43.7,50.3-43.7l36.7-1.8
		C196.8,383.4,198.3,397.2,195.3,410.5z"/>
	<path class="st9" d="M187.5,374.6c-11.7,2.4-23.6,2.7-35.4,1c-8.3-1.2-13.3-8.2-11.4-14.1l0,0c1.9-6,8.4-9.3,14.6-8.5
		c9.2,1.3,18.5,1,27.6-0.8c6.1-1.2,12.8,1.8,15,7.6l0,0C200.3,365.7,195.7,373,187.5,374.6z"/>
	<path class="st10" d="M187.1,359.9c-11.7,2.4-23.6,2.7-35.4,1c-8.3-1.2-13.3-8.1-11.4-14.1l0,0c1.9-6,8.4-9.4,14.6-8.5
		c9.2,1.3,18.5,1.1,27.6-0.8c6.1-1.2,12.8,1.8,15.1,7.6l0,0C199.9,351,195.3,358.2,187.1,359.9z"/>
</g>
<g id="body">
	
		<ellipse transform="matrix(8.385172e-02 -0.9965 0.9965 8.385172e-02 -106.7289 409.2319)" class="st6" cx="169.2" cy="262.7" rx="21.6" ry="40.4"/>
	<path class="st11" d="M242.8,135.8c-48.8,20-92.2,19.8-142.1,2.6c-2.7,6.8-4.9,13.7-6.8,20.7c-16,59.4,27,118.5,84.8,116.9l0,0
		c57.7-1.6,91.5-61.4,72.1-119.9C248.5,149.2,245.8,142.4,242.8,135.8z"/>
	
		<ellipse transform="matrix(0.9902 -0.1399 0.1399 0.9902 -35.5787 28.3808)" class="st6" cx="184.1" cy="267.3" rx="40.4" ry="21.6"/>
	<path class="st12" d="M227.8,151.7c-12.6,8-30.9,14.5-52.2,17.3c-50.2,6.7-89.5-10.2-78.3-33.7c0.1-0.3,0.2-0.5,0.4-0.8
		c0,0,0-0.1,0-0.1c2.6-5,7.7-8.2,13.4-8.2c38.7,0.3,77.3-4.9,114.6-15.3c5.5-1.5,11.4,0.2,15.3,4.4l0.1,0.1c0.2,0.2,0.4,0.4,0.6,0.7
		C251.6,127.3,244.9,140.9,227.8,151.7z"/>
	
		<ellipse transform="matrix(0.9996 -2.809610e-02 2.809610e-02 0.9996 -5.0444 5.0093)" class="st6" cx="175.7" cy="182" rx="27.4" ry="33.6"/>
	<path class="st13" d="M84.2,193.3c0-4.4,3.9-7.1,7.1-5.1c7.5,4.7,20.1,8.3,33.2,8.6c16.8,0.3,19,41.7,9.4,61
		c-2.9,5.8-9,7.9-14.2,5.3C107.8,256.8,84.1,238.9,84.2,193.3z"/>
	
		<ellipse transform="matrix(0.9968 -7.974522e-02 7.974522e-02 0.9968 -16.4575 10.5662)" class="st1" cx="124.1" cy="211.3" rx="3.9" ry="4.2"/>
	
		<ellipse transform="matrix(0.9966 -8.280820e-02 8.280820e-02 0.9966 -16.8377 10.0632)" class="st14" cx="112.9" cy="208" rx="3.9" ry="4.2"/>
	
		<ellipse transform="matrix(0.9966 -8.280820e-02 8.280820e-02 0.9966 -16.6905 9.1598)" class="st1" cx="102.1" cy="205.8" rx="3.9" ry="4.2"/>
</g>
<g id="head">
	<path class="st15" d="M247.4,89.2c1.5-5.6,8.1-10.9,8-16.8s-7.1-10.9-8.9-16.4s1-13.3-2.4-18.3s-11.9-5.9-16.4-10.1
		s-5.7-12.1-11.1-15.2c-5.2-3-13.5-0.5-19.5-2.5c-5.8-2-10.3-8.9-16.6-9.8c-6.1-0.9-12.7,4.3-19.1,4.5S148,0,142,1.2
		c-6.2,1.3-10.4,8.4-16,10.7c-5.8,2.4-14.2,0.3-19.3,3.6c-4.7,3.1-5.8,10-9.1,14.4c-1,1.3-1.9,2.7-2.6,4.2
		c-3.7,7.7-12.9,30.4-8.3,56.8c-0.9,1-6.6,8.2,2.9,11.8c0.2,0.5,0.3,1,0.5,1.5c2,5.7,4.6,11.1,7.7,16.2l0.2,0.3
		c0.6,0.9,1.3,1.8,2,2.6c3.7,4.2,5.1,11.3,10.1,14.2c5.2,3,13.5,0.5,19.5,2.5c5.8,1.9,10.3,8.9,16.6,9.8c6,0.9,12.7-4.4,19.1-4.5
		s13.3,4.7,19.3,3.4c6.2-1.3,10.4-8.4,16.1-10.7c5.9-2.4,14.2-0.3,19.3-3.6c5.2-3.4,6-11.5,10.2-15.8s12.8-5.9,15.8-11
		S245.9,94.9,247.4,89.2z"/>
	<path class="st4" d="M205.4,32c0.5-0.6,1.2-1,2-1.1c0.8-0.1,1.6-0.1,2.3,0.1c1.5,0.4,2.9,1.2,3.9,2.4c2,2.2,3.5,4.7,5.9,5.4
		c1.3,0.4,2.7,0.7,4.1,1c0.8,0.2,1.5,0.4,2.3,0.8c0.8,0.4,1.5,0.9,2.1,1.5c1.2,1.2,1.9,2.8,2.1,4.5c0.2,1.6-0.2,3.2-1.1,4.5
		l-0.2-0.1c0.3-2.6-0.7-5.2-2.6-6.9c-1.7-1.4-4.5-1.9-7.4-3.2c-0.7-0.3-1.4-0.8-2.1-1.3c-0.6-0.5-1.1-1.1-1.6-1.7
		c-0.9-1.2-1.6-2.5-2.4-3.6c-0.8-1.1-1.9-2-3.1-2.5c-1.2-0.6-2.7-0.4-3.8,0.4L205.4,32z"/>
	<path class="st4" d="M215.2,117.8c0.8,0.5,1.8,0.6,2.6,0.1c0.8-0.4,1.5-1,2-1.8c0.5-0.8,1-1.7,1.6-2.5c0.6-0.9,1.4-1.7,2.4-2.2
		c2-1,3.9-1.4,5-2.5c1.3-1.3,1.9-3.1,1.6-4.8l0.2-0.1c1.4,1.9,1.2,4.5-0.3,6.2c-0.8,0.9-1.8,1.5-2.9,1.8c-0.9,0.2-1.9,0.5-2.8,0.8
		c-1.6,0.6-2.6,2.4-3.9,4c-0.7,0.8-1.6,1.5-2.6,1.8c-0.5,0.2-1,0.2-1.6,0.2c-0.5-0.1-1-0.3-1.4-0.7L215.2,117.8z"/>
	<path class="st4" d="M151.5,23.7c-0.2-1.7,0.5-3.4,1.7-4.6c0.7-0.6,1.5-1.1,2.4-1.3c0.9-0.2,1.8-0.3,2.7-0.2
		c1.7,0.1,3.2,0.6,4.7,0.9c1.3,0.3,2.7,0.2,4-0.1c1.4-0.4,2.7-1,4.3-1.6c0.8-0.3,1.6-0.5,2.4-0.7c0.9-0.2,1.8-0.2,2.7-0.1
		c1.8,0.2,3.4,1,4.7,2.2c1.2,1.1,2.1,2.6,2.6,4.1c-0.9-1.2-2.1-2.3-3.4-3.1c-1.2-0.7-2.6-1.1-4-1.1c-0.7,0-1.3,0.1-2,0.3
		c-0.7,0.2-1.4,0.5-2,0.8c-1.5,0.7-3,1.3-4.5,1.8c-0.9,0.2-1.8,0.4-2.7,0.4c-0.9,0-1.8-0.1-2.6-0.4c-1.6-0.4-3.1-0.9-4.5-1.3
		c-0.7-0.2-1.3-0.2-2-0.2c-0.7,0.1-1.3,0.3-1.9,0.6C152.8,21,151.9,22.3,151.5,23.7z"/>
	<path class="st4" d="M117.9,121.4c0.8,0.4,1.8,0.6,2.7,0.4c0.8-0.3,1.5-0.9,1.9-1.6c0.4-0.8,0.8-1.7,1.3-2.6c0.5-1,1.3-1.9,2.3-2.5
		c1.9-1.1,3.9-1.5,5-2.7c1.2-1.5,1.7-3.4,1.2-5.2c0.5,0.9,0.8,1.9,0.8,3c0,1.1-0.3,2.2-1,3.1c-0.3,0.5-0.7,0.9-1.2,1.2
		c-0.4,0.3-0.9,0.6-1.4,0.8c-0.9,0.4-1.7,0.8-2.6,1.3c-0.7,0.4-1.4,1.1-1.8,1.8c-0.5,0.8-1,1.7-1.6,2.6c-0.3,0.5-0.8,0.9-1.2,1.2
		c-0.5,0.3-1.1,0.5-1.6,0.5C119.6,122.7,118.6,122.2,117.9,121.4z"/>
	
		<ellipse transform="matrix(0.9996 -2.809610e-02 2.809610e-02 0.9996 -2.1247 4.8207)" class="st16" cx="170.5" cy="78" rx="23.1" ry="29.6"/>
	
		<ellipse transform="matrix(0.9996 -2.809610e-02 2.809610e-02 0.9996 -2.1247 4.8207)" class="st17" cx="170.5" cy="78" rx="16.1" ry="20.6"/>
	<path class="st18" d="M90,80.1c0,0,5.1-26.1,26.3-12.5C116.3,67.6,108.1,102.9,90,80.1z"/>
	<g>
		<defs>
			<path id="SVGID_1_" d="M90.6,79.8c0,0,4.1-23.6,23.7-11.1C114.3,68.6,108,97.3,90.6,79.8z"/>
		</defs>
		<clipPath id="SVGID_2_">
			<use xlink:href="#SVGID_1_"  style="overflow:visible;"/>
		</clipPath>
		<g class="st19">
			<path class="st20" d="M90.6,79.8c0,0,4.1-23.6,23.7-11.1C114.3,68.6,108,97.3,90.6,79.8z"/>
			
				<ellipse transform="matrix(4.363309e-03 -1 1 4.363309e-03 20.0167 172.471)" class="st1" cx="96.6" cy="76.2" rx="9.4" ry="6.8"/>
			<path class="st21" d="M93.2,71.1c0.8,0.7,1.5,1.5,1.9,2.5c0.8,1.7,1.1,3.6,0.8,5.4c-0.2,1-0.5,2-1.1,2.9
				c-0.8-0.7-1.5-1.6-1.9-2.5c-0.4-0.8-0.7-1.7-0.8-2.6c-0.1-0.9-0.1-1.9,0-2.8C92.3,73,92.7,72,93.2,71.1z"/>
		</g>
	</g>
	<path class="st15" d="M121.3,71.3c-0.4,2.9-3.2,3.9-5.7,4.1s-4.7-1-7.1-1.5c-4.3-0.9-8.8-0.2-12.6,2c-2.1,1.2-3.9,3-6.2,3.7
		s-3.5,0-6.1-0.8c-2.2-0.7-2.1-5.5-0.2-7l2.9-2.1c4.7-3.5,10.3-5.5,16.2-5.7l0,0c6.7-0.4,10.9,0.7,16.2,5.1L121.3,71.3z"/>
	<path class="st18" d="M121.3,71.3c0,0.9-0.3,1.8-0.8,2.6c-0.5,0.8-1.2,1.5-2,2c-0.8,0.5-1.8,0.9-2.7,1c-1,0.1-1.9,0.1-2.9-0.1
		c-1.8-0.3-3.5-1-5-1.3c-1.6-0.3-3.1-0.4-4.7-0.3c-1.6,0.1-3.2,0.5-4.7,1c-1.6,0.5-3.1,1.2-4.5,2c-0.8,0.4-1.6,0.8-2.4,1.2
		c-0.9,0.4-1.8,0.7-2.7,0.8c-1.8,0-3.6-0.4-5.2-1.3c1.7,0.2,3.4,0.2,5-0.1c0.7-0.3,1.4-0.6,2.1-1.1c0.7-0.4,1.4-0.9,2.1-1.4
		c1.5-1.1,3.1-2,4.7-2.7c1.7-0.7,3.6-1.1,5.5-1.2c1.9-0.1,3.8,0.1,5.6,0.6c1.8,0.5,3.4,1.3,4.9,1.8c1.4,0.5,3,0.5,4.5,0
		C119.5,74,120.7,72.8,121.3,71.3z"/>
	<path class="st22" d="M118.7,69.1c-2.1-2-4.7-3.5-7.5-4.4c-2.7-0.9-5.6-1.1-8.4-0.8c-0.7,0.1-1.4,0.2-2.1,0.3l-2.1,0.5
		c-0.7,0.1-1.4,0.3-2.1,0.6c-0.7,0.2-1.4,0.5-2.1,0.7l-4,1.8c-1.3,0.7-2.6,1.3-4,2c1.1-1,2.3-1.9,3.5-2.9s2.6-1.6,3.9-2.3
		c2.8-1.4,5.8-2.3,8.8-2.7c0.8-0.1,1.6-0.1,2.3-0.1h1.2c0.4,0,0.8,0.1,1.2,0.2c0.8,0.1,1.5,0.3,2.3,0.5c0.8,0.2,1.5,0.5,2.2,0.8
		C114.7,64.4,117.1,66.5,118.7,69.1z"/>
	<path class="st18" d="M88.1,99c0-0.5,0.1-1.1,0.4-1.6c0.2-0.5,0.5-0.9,0.9-1.3c0.4-0.4,0.9-0.7,1.4-0.8c0.6-0.2,1.1-0.1,1.7,0.1
		c-0.5,0.3-0.8,0.6-1.2,0.9s-0.6,0.6-1,0.9C89.6,97.8,88.9,98.4,88.1,99z"/>
	<g>
		<defs>
			<path id="SVGID_3_" d="M247.4,89.2c-1.5,5.7,1.7,13.2-1.3,18.4s-11.6,6.6-15.8,11s-5,12.4-10.2,15.8c-5.1,3.3-13.4,1.3-19.3,3.6
				c-5.6,2.3-9.8,9.4-16.1,10.7c-6,1.2-12.9-3.6-19.3-3.4s-13,5.4-19.1,4.5c-6.3-0.9-10.9-7.8-16.6-9.8c-6-2-14.2,0.5-19.5-2.5
				c-5-2.9-6.5-9.9-10.1-14.2c-0.7-0.8-1.4-1.7-2-2.6l-0.2-0.3c-3.1-5.1-5.7-10.5-7.7-16.2c-11.2-31.8,0.6-61,4.9-70
				c0.7-1.5,1.6-2.9,2.6-4.2c3.2-4.4,4.4-11.3,9.1-14.4c5-3.3,13.4-1.3,19.3-3.6c5.7-2.3,9.8-9.4,16.1-10.7c6-1.2,13,3.6,19.3,3.4
				s13-5.4,19.1-4.5c6.3,0.9,10.9,7.8,16.6,9.8c6,2,14.2-0.5,19.5,2.5c5.4,3.1,6.7,11.2,11.1,15.2s13.1,5.2,16.4,10.1
				s0.5,12.7,2.4,18.3s8.8,10.4,8.9,16.4S248.9,83.6,247.4,89.2z"/>
		</defs>
		<clipPath id="SVGID_4_">
			<use xlink:href="#SVGID_3_"  style="overflow:visible;"/>
		</clipPath>
		<g class="st23">
			<path class="st18" d="M87.3,107.3c1.3-0.1,2.6-0.2,3.8-0.4c1.2-0.2,2.5-0.4,3.7-0.8c1.2-0.4,2.3-0.8,3.5-1.1
				c1.3-0.2,2.7-0.3,4-0.2l0.1,0.3c-0.8,1.2-2,2.1-3.3,2.6c-1.3,0.5-2.6,0.7-4,0.6c-1.3,0.1-2.7,0.1-4-0.1c-1.3-0.1-2.6-0.4-3.9-0.8
				L87.3,107.3z"/>
		</g>
	</g>
</g>
<g id="f-leg">
	<path class="st4" d="M178.1,310.8c0.1,1.6-0.5,3.3-1.7,4.5c-1.1,1.3-2.6,2.1-4.2,2.6c-1.6,0.4-3.3,0.4-4.9,0c-1.6-0.4-3-1.3-4-2.6
		c1.3,0.6,2.8,1,4.3,1.2c1.4,0.1,2.8,0,4.2-0.3c1.3-0.3,2.6-1,3.7-1.8C176.6,313.3,177.5,312.1,178.1,310.8z"/>
	<path class="st0" d="M206.8,271.7c-6,14.4-9.5,29.7-10.2,45.3c-0.3,7.9,0.2,15.7,1.3,23.5c0.4,2,0.6,3.9,1,5.9s0.8,3.9,1.3,5.9
		s1,3.9,1.5,5.9l2.5,8.2l-26.5,5.2c1.4,4.7,0.4,1.3,0.7,2.4l0,0v0v-0.1l-0.1-0.2l-0.2-0.4l-0.4-0.8l-0.7-1.6l-1.4-3.3
		c-0.9-2.2-1.8-4.5-2.6-6.7s-1.6-4.5-2.4-6.8s-1.4-4.6-2.1-7c-5.3-19.1-6.9-39-4.7-58.7c1.1-9.8,2.9-19.5,5.6-29L206.8,271.7z"/>
</g>
<g id="f-shoe">
	<path class="st24" d="M146.4,444.2l-10.9-1.2c-5-0.5-8.7-5-8.3-10c0,0,0-0.1,0-0.1l0.7-5.9l29.7,3.3l-0.7,5.9
		C156.2,441.2,151.5,444.8,146.4,444.2z"/>
	<path class="st24" d="M185.7,442.3l10.8-2.3c5-1,8.2-5.8,7.2-10.7c0,0,0-0.1,0-0.1l-1.3-5.8l-29.2,6.2l1.3,5.8
		C175.7,440.4,180.7,443.5,185.7,442.3z"/>
	<path class="st6" d="M218,403l-0.6-10.2c-0.3-4.8-4.9-8.5-10.4-8.3l-6.4,0.3l1.6,27.6l6.4-0.3C214,411.8,218.2,407.8,218,403z"/>
	<path class="st6" d="M210.2,415.1c-0.5,2.4-1.2,4.7-2,7c-5.4,15.4-76.6,21.4-87.6,4.3c-0.9-1.9-1.5-4-1.7-6.2
		c-2.1-24.2,50.3-43.7,50.3-43.7l36.7-1.8C211.7,388,213.2,401.9,210.2,415.1z"/>
	<path class="st11" d="M210.2,415.1c-16.5,10.5-70.8,14.6-91.4,5.1c-2.1-24.2,50.3-43.7,50.3-43.7l36.7-1.8
		C211.7,388,213.2,401.9,210.2,415.1z"/>
	<path class="st10" d="M202.4,379.3c-11.7,2.4-23.6,2.7-35.4,1c-8.3-1.2-13.3-8.1-11.4-14.1l0,0c1.9-6,8.4-9.4,14.6-8.5
		c9.2,1.3,18.5,1.1,27.6-0.8c6.1-1.2,12.8,1.8,15.1,7.6l0,0C215.2,370.4,210.6,377.6,202.4,379.3z"/>
	<path class="st25" d="M202,364.5c-11.7,2.4-23.6,2.7-35.4,1c-8.3-1.2-13.3-8.1-11.4-14.1l0,0c1.9-6,8.4-9.4,14.6-8.5
		c9.2,1.3,18.5,1.1,27.6-0.8c6.1-1.2,12.8,1.8,15.1,7.7l0,0C214.8,355.6,210.2,362.9,202,364.5z"/>
</g>
<path id="shorts" class="st6" d="M161.6,275.5c0,0,41.2-11,43.8,1.2s7.5-21.5,7.5-21.5l-31.6-5.5l-22,6.8L161.6,275.5z"/>
<g id="f-arm">
	<path class="st0" d="M189.8,179.3c2.1,7.3,3.6,14.7,4.4,22.3c0.8,7.6,0.8,15.2,0,22.8c-0.8,7.4-2.3,14.6-4.5,21.7
		c-1.1,3.5-2.2,6.8-3.5,10.1c-0.7,1.6-1.3,3.3-2,4.9l-1,2.4l-0.5,1.2l-0.3,0.6l-0.1,0.3l-0.1,0.1v0.1l0,0l0,0
		c-3.4-1.1,7.6,2.6-7.6-2.6s-4.2-1.5-7.6-2.6v-0.1v-0.1v-0.1l0.1-0.3l0.1-0.6l0.3-1.2l0.5-2.4c0.3-1.6,0.6-3.1,0.9-4.7
		c0.5-3.1,1-6.2,1.3-9.3c0.6-6,0.7-12,0.1-18c-0.5-5.8-1.7-11.5-3.5-17c-1.8-5.6-4.1-11-6.8-16.1c-4.2-7.8-1.4-17.6,6.5-21.8
		c7.8-4.2,17.6-1.4,21.8,6.5c0.1,0.2,0.2,0.4,0.3,0.6c0.5,0.9,0.9,1.9,1.2,2.9L189.8,179.3z"/>
</g>
<g id="f-hand">
	<path class="st1" d="M160,289.7c-4.5,4.1-5.3,7.1-6.3,11.3c-0.2,0.7-0.7,1.3-1.3,1.6c-1.8,1-4.2-0.2-5.4-1.6c-2-2.5-3-5.6-2.6-8.8
		c0.4-9.1,6.5-22.6,16.6-27.9L160,289.7z"/>
	<path class="st1" d="M192.7,265.5c5.5,6.4,6.8,17.2,5.6,25.3l-0.1,0.6l-41.6,0.6l4.2-27.7L192.7,265.5z"/>
	<path class="st1" d="M158,293.9c1.7,6.3,1.5,13-0.6,19.3v0.1c-0.7,2.3,0.6,4.8,2.9,5.5c0.1,0,0.1,0,0.2,0.1
		c2.2,0.7,4.5-0.3,5.6-2.2c2-3.7,3.5-7.7,4.4-11.9c0.9-4.2,1.2-8.5,0.9-12.8v-0.2c-0.4-3.6-3.6-6.3-7.3-5.9
		c-3.6,0.1-6.4,3.2-6.3,6.8c0,0,0,0,0,0.1C157.9,293.1,157.9,293.5,158,293.9z"/>
	<path class="st1" d="M167,291.4c1.8,6.3,1.6,13.1-0.6,19.3v0.1c-0.9,2.4,0.7,4.9,3.4,5.6c2.3,0.7,4.8-0.2,6.1-2.2
		c4.4-7.4,6.4-16,5.7-24.6v-0.2c-0.3-3.5-3.8-6.2-7.9-5.9s-7.1,3.4-6.8,6.9C166.9,290.6,166.9,291,167,291.4z"/>
	<path class="st1" d="M176.1,290.3c1.8,6.3,1.6,13.1-0.6,19.3v0.1c-0.9,2.4,0.7,4.9,3.4,5.6c2.3,0.7,4.8-0.2,6.1-2.2
		c4.4-7.4,6.4-16,5.7-24.6v-0.2c-0.3-3.5-3.8-6.2-7.9-5.9s-7.1,3.4-6.8,6.9C176,289.5,176,289.9,176.1,290.3z"/>
	<path class="st1" d="M183.6,287.8c1.8,6.3,1.6,13.1-0.6,19.3v0.1c-0.9,2.4,0.7,4.9,3.4,5.6c2.3,0.7,4.8-0.2,6.1-2.2
		c4.4-7.4,6.4-16,5.7-24.6v-0.2c-0.3-3.5-3.8-6.2-7.9-5.9s-7.1,3.4-6.8,6.9C183.4,287,183.5,287.4,183.6,287.8z"/>
	<path class="st2" d="M165.6,316.6c0.8-2,1.6-4,2.3-6c1.4-4,2.3-8.2,2.8-12.4c0.3-2.1,0.4-4.2,0.6-6.4c0.9,4.3,0.9,8.7-0.2,13
		c-0.5,2.1-1.2,4.2-2.1,6.2C168.1,313,167,314.9,165.6,316.6z"/>
	<path class="st2" d="M176.1,313.7c0.8-2,1.6-4,2.3-6c1.4-4,2.3-8.2,2.8-12.4c0.3-2.1,0.4-4.2,0.6-6.4c0.9,4.3,0.9,8.7-0.1,13
		c-0.5,2.1-1.2,4.2-2.1,6.2C178.6,310.1,177.5,312,176.1,313.7z"/>
	<path class="st2" d="M185.5,312c0.8-2,1.6-4,2.3-6c1.4-4,2.3-8.2,2.8-12.4c0.3-2.1,0.4-4.2,0.6-6.4c0.9,4.3,0.9,8.7-0.2,13
		c-0.5,2.1-1.2,4.2-2.1,6.2C188,308.4,186.8,310.3,185.5,312z"/>
	<path class="st3" d="M164.1,267.7c8.3,1.8,16.9,2,25.3,0.5c5.9-1,9.5-6.8,8.1-11.6l0,0c-1.3-4.6-5.8-7.5-10.5-6.8
		c-6.5,1.2-13.3,1-19.8-0.4c-4.7-0.9-9.3,1.8-10.7,6.4l0,0C154.9,260.6,158.2,266.5,164.1,267.7z"/>
</g>
</svg>
