<?xml version="1.0" encoding="utf-8"?>
<!-- Generator: Adobe Illustrator 25.2.0, SVG Export Plug-In . SVG Version: 6.00 Build 0)  -->
<svg version="1.1" id="Layer_1" xmlns="http://www.w3.org/2000/svg" xmlns:xlink="http://www.w3.org/1999/xlink" x="0px" y="0px"
	 viewBox="0 0 367.3 426" style="enable-background:new 0 0 367.3 426;" xml:space="preserve">
<style type="text/css">
	.st0{fill:#7333A3;}
	.st1{fill:#90BD4A;}
	.st2{fill:#7EA540;}
	.st3{fill:#FAAA2D;}
	.st4{fill:#8463BE;}
	.st5{fill:#2E047A;}
	.st6{fill:#F1F1F1;}
	.st7{fill:#A87DF1;}
	.st8{fill:#EE8031;}
	.st9{fill:#612B88;}
	.st10{fill:none;stroke:#853BBC;stroke-width:5.61;stroke-linecap:round;stroke-miterlimit:10;}
	.st11{fill:#7333A2;}
	.st12{fill:#612B89;}
	.st13{fill:#3B224D;}
	.st14{fill:#FFFFFF;}
	.st15{fill:#261234;}
	.st16{fill:#8F5CB5;}
	.st17{fill:#7356A4;}
	.st18{fill:#FAAF3B;}
	.st19{fill:#FAC26C;}
	.st20{fill:#5907E8;}
</style>
<g id="r-arm">
	<path class="st0" d="M275.4,138.6c6.7,0.3,13.4,1.2,20,2.6c7.2,1.5,14.2,4,20.6,7.6c3.6,2.1,7,4.6,9.8,7.6
		c3.1,3.2,5.6,7.1,7.1,11.3c0.8,2.1,1.3,4.2,1.6,6.4c0.3,2.1,0.3,4.2,0.2,6.3c-0.3,3.8-1.1,7.5-2.5,11.1c-1.7,4.5-6.8,6.8-11.4,5.1
		c-3.6-1.4-5.9-5-5.6-8.9l0-0.6c0.2-2,0-4-0.5-6c-0.2-0.8-0.5-1.5-0.9-2.3c-0.3-0.6-0.7-1.2-1.2-1.7c-0.9-1-2-1.7-3.2-2.3
		c-1.5-0.7-3.1-1.2-4.7-1.5c-4.2-0.8-8.5-1-12.7-0.6c-4.9,0.4-9.7,1.1-14.4,2.2c-10,2.2-19.9-4.1-22.1-14.1
		c-2.2-10,4.1-19.9,14.1-22.1c1.6-0.4,3.3-0.5,5-0.4L275.4,138.6z"/>
</g>
<g id="l-arm">
	<path class="st0" d="M136.4,178.9c-6.9,0.3-13.8,0.9-20.4,1.8c-6.6,0.9-13.2,2.3-19.6,4.1c-6.6,1.9-13.1,4.3-19.4,7.1
		c-6.5,2.8-13,5.9-19.5,9.2l0,0c-4.3,2.2-9.6,0.4-11.8-3.9c-1.9-3.7-0.9-8.2,2.3-10.8c5.8-4.7,11.7-9.4,18-13.9
		c6.4-4.6,13-8.8,19.9-12.6c7.1-3.9,14.4-7.2,22-10c7.5-2.8,15.1-5.1,22.7-7.1h0.2c9.9-2.4,19.9,3.6,22.3,13.5
		c2.3,9.6-3.2,19.3-12.7,22.1C139,178.6,137.7,178.8,136.4,178.9z"/>
</g>
<g id="l-hand">
	<path class="st1" d="M31.5,226.2c-1,6-2.5,7.9-5.5,11c-0.5,0.6-0.7,1.3-0.6,2c0.1,2,2.5,3.4,4.3,3.6c3.2,0.3,6.3-0.6,8.8-2.6
		c7.4-5.3,15.4-17.8,14.4-29.1L31.5,226.2z"/>
	<path class="st1" d="M31.9,229.8l21-18.7l-16.4-25.8c-8.3-1.1-28.6,8.4-32.1,22.7L31.9,229.8z"/>
	<path class="st1" d="M29.6,229.6c-6.3,1.9-11.8,5.8-15.8,11l-0.1,0.1c-1.5,2-4.4,2.1-6.5,0.2c-1.8-1.6-2.4-4.1-1.4-6.3
		c3.8-7.7,10-14.1,17.6-18.2l0.1-0.1c3.1-1.7,7.2-0.2,9.2,3.4s1.1,7.8-2,9.4C30.3,229.4,30,229.5,29.6,229.6z"/>
	<path class="st1" d="M26.4,220.1c-6.4,1.8-11.9,5.7-15.8,11.1l-0.1,0.1c-1.5,2.1-4.4,2-6.7,0c-1.9-1.7-2.6-4.4-1.7-6.8
		c1.8-4,4.2-7.6,7.2-10.8c2.9-3.2,6.3-5.8,10.1-7.8l0.1-0.1c3.1-1.7,7.4,0.1,9.6,3.9s1.4,8.3-1.7,10C27.1,219.9,26.8,220,26.4,220.1
		z"/>
	<path class="st1" d="M24.6,212.3c-6.4,1.8-11.9,5.7-15.8,11.1l-0.1,0.1c-1.5,2.1-4.4,2.1-6.7,0c-1.9-1.7-2.6-4.4-1.7-6.8
		c1.8-4,4.2-7.6,7.2-10.8c2.9-3.2,6.3-5.8,10.1-7.9l0.1-0.1c3.1-1.7,7.4,0.1,9.6,4s1.4,8.3-1.7,9.9C25.4,212,25,212.2,24.6,212.3z"
		/>
	<path class="st2" d="M6,235.1c0.6-2.1,1.5-4.2,2.6-6.1c1.1-1.9,2.5-3.7,4-5.3c3-3.3,6.7-5.8,10.9-7.4c-1.8,1.3-3.5,2.6-5.1,4
		c-3.2,2.8-6.1,5.9-8.7,9.4C8.4,231.5,7.2,233.3,6,235.1z"/>
	<path class="st2" d="M2.3,224c0.6-2.1,1.5-4.1,2.7-6c1.1-1.9,2.5-3.7,4-5.3c3-3.3,6.7-5.8,10.9-7.4c-1.8,1.3-3.5,2.6-5.1,4
		c-1.6,1.4-3.1,2.9-4.6,4.4c-1.5,1.5-2.9,3.2-4.2,4.9C4.7,220.4,3.5,222.2,2.3,224z"/>
	<path class="st2" d="M0.9,215.6c0.5-1.9,1.3-3.8,2.3-5.5c1-1.8,2.1-3.4,3.5-4.9c1.3-1.5,2.7-3,4.3-4.2c1.6-1.2,3.5-2.1,5.4-2.7
		c-1.6,1.2-3.2,2.4-4.6,3.7s-2.7,2.8-4,4.2s-2.5,3-3.6,4.5S2,214,0.9,215.6z"/>
	<path class="st3" d="M48.9,211.2c-6-6-10.9-13.1-14.2-20.9c-2.4-5.5,0.5-11.6,5.3-13.1l0,0c4.5-1.5,9.4,0.7,11.4,5.1
		c2.6,6.1,6.4,11.7,11.1,16.4c3.3,3.4,3.5,8.8,0.5,12.5l0,0C59.9,215,53.2,215.4,48.9,211.2z"/>
</g>
<g id="body">
	<ellipse transform="matrix(0.866 -0.5 0.5 0.866 -94.9371 161.2826)" class="st4" cx="253.5" cy="257.8" rx="41.4" ry="25.8"/>
	<ellipse transform="matrix(0.5 -0.866 0.866 0.5 -137.8011 276.9167)" class="st4" cx="170.9" cy="257.8" rx="25.8" ry="41.4"/>
	<ellipse transform="matrix(0.229 -0.9734 0.9734 0.229 -61.1181 249.4055)" class="st4" cx="126.9" cy="163.3" rx="28" ry="16.1"/>
	<ellipse transform="matrix(0.9734 -0.229 0.229 0.9734 -29.4806 72.4817)" class="st4" cx="297.5" cy="163.2" rx="16.1" ry="28"/>
	<path class="st5" d="M291.2,135.8c-52.7,18.1-105.3,18.1-158,0c-3,6.5-5.7,13.1-7.9,19.9c-18.9,57.3,25.2,115.8,86.9,115.8l0,0
		c61.7,0,105.8-58.6,86.9-115.9C296.9,148.9,294.3,142.3,291.2,135.8z"/>
	<path class="st6" d="M254.5,199.6c-27.8,6.6-56.8,6.6-84.6,0c-6.8-1.6-13.7,2-16.2,8.4v0.1c-12.7,32.9,17,66.5,58.6,66.5l0,0
		c41.6,0,71.3-33.6,58.6-66.5v-0.1C268.3,201.6,261.3,198,254.5,199.6z"/>
	<path class="st7" d="M273,158.7c-15.3,6.6-36.6,10.9-60.8,10.9c-57,0-97.9-23.3-81.8-46.4c0.2-0.3,0.4-0.5,0.6-0.8l0.1-0.1
		c3.8-5,10-7.6,16.2-6.8c43.1,5.7,86.8,5.7,129.9,0c6.2-0.8,12.4,1.8,16.2,6.8l0.1,0.1c0.2,0.3,0.4,0.5,0.5,0.8
		C303.2,136.4,293.7,149.7,273,158.7z"/>
	<circle class="st1" cx="228.9" cy="218.4" r="5.1"/>
	<circle class="st8" cx="243.3" cy="216.8" r="5.1"/>
	<circle class="st1" cx="257.7" cy="214.4" r="5.1"/>
</g>
<g id="head">
	<path class="st9" d="M96.8,53.7l-7.4,26.4l7.4,26.4c0-22,36.7-17.3,36.7-17.3V71C133.5,71,96.8,75.7,96.8,53.7z"/>
	<path class="st10" d="M94.3,52.4L94.3,52.4c-5.1,18.1-5.1,37.3,0,55.3l0,0"/>
	<path class="st9" d="M327.4,53.7l7.4,26.4l-7.4,26.4c0-22-36.7-17.3-36.7-17.3V71C290.7,71,327.4,75.7,327.4,53.7z"/>
	<path class="st10" d="M329.9,52.4L329.9,52.4c5.1,18.1,5.1,37.3,0,55.3l0,0"/>
	<path class="st11" d="M300.3,76c0,6.1-6.5,11.3-8.1,17s1.3,13.6-1.8,18.7s-11.2,6.4-15.5,10.7s-5.1,12.5-10.2,15.8
		c-4.9,3.2-12.9,0.9-18.6,3.1c-5.5,2.2-9.6,9.4-15.7,10.5c-5.8,1.1-12.3-4.1-18.4-4.1s-12.6,5.2-18.4,4.1c-6-1.1-10.2-8.3-15.7-10.5
		c-5.7-2.2-13.6,0.1-18.6-3.1c-5.1-3.3-6.1-11.6-10.2-15.8s-12.4-5.6-15.5-10.8S133.6,98.8,132,93s-8.1-10.9-8.1-17s6.5-11.3,8.1-17
		s-1.3-13.5,1.8-18.7s11.2-6.4,15.5-10.7s5.1-12.5,10.2-15.8c4.9-3.2,12.9-0.9,18.6-3.2c5.5-2.2,9.6-9.4,15.7-10.5
		c5.7-1,12.3,4.1,18.4,4.1s12.6-5.2,18.4-4.1c6,1.1,10.2,8.3,15.7,10.5c5.7,2.2,13.6-0.1,18.6,3.1c5.1,3.3,6.1,11.6,10.2,15.8
		s12.5,5.6,15.5,10.8s0.2,12.9,1.8,18.7S300.3,69.9,300.3,76z"/>
	<path class="st12" d="M173.8,33.7c-1.1-0.8-2.6-1-3.8-0.3c-1.2,0.6-2.3,1.5-3,2.6c-0.8,1.1-1.5,2.4-2.3,3.7c-0.5,0.7-1,1.3-1.6,1.8
		c-0.6,0.6-1.3,1-2,1.4c-2.9,1.4-5.7,2-7.3,3.5c-1.9,1.8-2.8,4.5-2.4,7.1l-0.2,0.1c-1-1.3-1.4-2.9-1.3-4.5c0.1-1.7,0.8-3.3,1.9-4.6
		c0.6-0.7,1.2-1.2,2-1.6c0.7-0.4,1.5-0.7,2.3-0.9c1.4-0.3,2.7-0.7,4.1-1.1c2.4-0.8,3.8-3.4,5.8-5.7c1-1.2,2.3-2.1,3.8-2.6
		c0.7-0.2,1.5-0.3,2.3-0.2c0.8,0.1,1.5,0.5,2,1.1L173.8,33.7z"/>
	<path class="st12" d="M250.2,33.5c0.5-0.6,1.2-1,2-1.1c0.8-0.1,1.6-0.1,2.3,0.2c1.5,0.5,2.8,1.3,3.8,2.6c2,2.3,3.3,4.9,5.8,5.7
		c1.3,0.4,2.7,0.8,4.1,1.1c0.8,0.2,1.5,0.5,2.3,0.9c0.8,0.4,1.4,1,2,1.6c1.1,1.3,1.8,2.9,1.9,4.6c0.2,1.6-0.3,3.2-1.3,4.5l-0.2-0.1
		c0.4-2.6-0.5-5.2-2.4-7.1c-1.6-1.5-4.4-2.1-7.3-3.5c-0.7-0.4-1.4-0.8-2-1.4c-0.6-0.5-1.1-1.1-1.6-1.8c-0.9-1.3-1.5-2.5-2.3-3.7
		c-0.7-1.1-1.8-2-3-2.6c-1.2-0.6-2.7-0.5-3.8,0.3L250.2,33.5z"/>
	<path class="st12" d="M167.6,122.3c-0.4,0.4-0.9,0.7-1.5,0.8c-0.6,0.1-1.1,0-1.7-0.1c-1.1-0.3-2.1-1-2.8-1.9
		c-1.4-1.7-2.4-3.6-4.2-4.2c-1-0.3-2-0.6-3-0.8c-0.6-0.2-1.1-0.4-1.6-0.7c-0.6-0.3-1.1-0.7-1.5-1.2c-1.7-1.9-1.9-4.6-0.5-6.7
		l0.2,0.1c-0.3,1.9,0.4,3.8,1.8,5.2c1.2,1.1,3.2,1.6,5.3,2.6c1.1,0.5,2,1.4,2.6,2.3c0.6,0.9,1.1,1.9,1.7,2.7
		c0.5,0.8,1.3,1.5,2.2,1.9c0.9,0.5,2,0.4,2.8-0.2L167.6,122.3z"/>
	<path class="st12" d="M257.7,121.4c0.8,0.6,1.8,0.7,2.6,0.2c0.9-0.4,1.6-1,2.1-1.8c0.6-0.8,1-1.7,1.6-2.5c0.6-0.9,1.5-1.7,2.5-2.2
		c2-1,3.9-1.3,5-2.4c1.3-1.3,1.9-3.1,1.7-4.9l0.2-0.1c1.3,1.9,1.1,4.5-0.4,6.3c-0.8,0.9-1.8,1.5-3,1.7c-1,0.2-1.9,0.5-2.8,0.8
		c-1.7,0.6-2.6,2.3-4,3.9c-0.7,0.8-1.6,1.5-2.6,1.8c-0.5,0.2-1.1,0.2-1.6,0.1c-0.5-0.1-1-0.4-1.4-0.8L257.7,121.4z"/>
	<path class="st12" d="M196.6,23.4c-0.1-1.7,0.5-3.4,1.7-4.6c0.7-0.6,1.5-1.1,2.4-1.3c0.9-0.2,1.8-0.3,2.7-0.1
		c1.7,0.2,3.3,0.7,4.7,1c1.3,0.3,2.7,0.3,4,0c1.4-0.3,2.8-1,4.3-1.5c0.8-0.3,1.6-0.5,2.5-0.7c0.9-0.2,1.8-0.2,2.7,0
		c1.8,0.3,3.4,1.1,4.6,2.4c1.1,1.2,2,2.7,2.4,4.3c-0.9-1.3-2-2.3-3.3-3.2c-1.2-0.8-2.6-1.2-4-1.3c-0.7,0-1.3,0.1-2,0.2
		c-0.7,0.2-1.4,0.4-2.1,0.7c-1.5,0.7-3,1.3-4.6,1.7c-1.8,0.5-3.6,0.4-5.3-0.1c-1.6-0.5-3.1-1-4.4-1.4c-0.7-0.2-1.3-0.3-2-0.2
		c-0.7,0-1.3,0.2-1.9,0.6C197.9,20.7,197,22,196.6,23.4z"/>
	<path class="st12" d="M202.4,136.7c0.3,0.9,1,1.6,1.8,2.1c0.8,0.3,1.7,0.3,2.5,0c0.9-0.3,1.7-0.8,2.7-1.1c1.1-0.4,2.2-0.5,3.4-0.4
		c2.2,0.4,3.9,1.5,5.6,1.3c1.9-0.3,3.5-1.5,4.4-3.2c-0.2,1-0.6,2-1.3,2.8c-0.7,0.9-1.7,1.5-2.8,1.8c-0.6,0.1-1.1,0.2-1.7,0.1
		c-0.5-0.1-1.1-0.1-1.6-0.3c-1-0.3-1.9-0.6-2.8-0.7c-0.9-0.2-1.7-0.1-2.6,0.2c-0.9,0.2-1.9,0.7-2.9,0.9c-0.6,0.1-1.1,0.1-1.7,0.1
		c-0.6-0.1-1.1-0.3-1.6-0.7C202.9,138.8,202.4,137.8,202.4,136.7z"/>
	<path class="st13" d="M209.9,106.2c-1.5-0.7-2.8-1.3-4.1-1.9c-0.7-0.3-1.3-0.6-2-0.8s-1.4-0.5-2.2-0.8c0.8-0.3,1.6-0.4,2.4-0.3
		c0.8,0.1,1.6,0.3,2.4,0.6c0.7,0.3,1.4,0.8,2,1.3C209,104.8,209.5,105.4,209.9,106.2z"/>
	<path class="st13" d="M214.3,106.2c0.4-0.7,0.9-1.4,1.5-1.9c0.6-0.5,1.3-1,2-1.3c0.7-0.3,1.5-0.6,2.4-0.6c0.8-0.1,1.6,0,2.4,0.3
		c-0.8,0.3-1.5,0.5-2.2,0.8s-1.4,0.5-2,0.8C217.1,104.8,215.8,105.5,214.3,106.2z"/>
	<path class="st13" d="M195.6,112.3c2.6,1.1,5.3,1.9,8.1,2.2c2.8,0.4,5.6,0.6,8.4,0.5c2.8-0.2,5.6-0.5,8.3-1c2.8-0.4,5.5-1,8.2-1.8
		l0.1,0.2c-2.4,1.7-5.1,3-7.9,3.6c-2.9,0.6-5.8,0.8-8.7,0.7c-2.9-0.1-5.8-0.5-8.6-1.1c-2.8-0.6-5.5-1.6-8.1-3L195.6,112.3z"/>
	<path class="st13" d="M196.4,85c0,0-14.4-23.5-38.9-1.8C157.5,83.2,178.6,114.6,196.4,85z"/>
	<path class="st14" d="M195.4,85c0,0-12.3-21.5-34.9-1.5C160.5,83.4,177.2,109,195.4,85z"/>
	<circle class="st1" cx="180.6" cy="84.5" r="9.6"/>
	<path class="st15" d="M180.2,79.1c0.9,0.7,1.6,1.6,2.1,2.7c0.8,1.8,1,3.8,0.5,5.6c-0.3,1.1-0.8,2.1-1.6,2.9
		c-0.9-0.7-1.6-1.6-2.1-2.7c-0.4-0.9-0.7-1.8-0.7-2.8c-0.1-1,0-1.9,0.3-2.8C178.9,80.9,179.4,79.9,180.2,79.1z"/>
	<path class="st11" d="M153.8,79.1c0.5,2.9,3.9,3.7,6.8,3.6s5.7-1.5,8.6-2.3c5-1.4,10.3-1.1,15.1,0.7c2.5,1,4.9,2.4,7.4,3.1
		s5.6,0.6,7.7-1.1s2.2-6.3-0.1-7.7l-3.5-1.8c-6-3.4-12.6-4.4-19.5-4.1l0,0c-8.1,0.3-13.2,1.9-19.4,7L153.8,79.1z"/>
	<path class="st13" d="M153.8,79.1c0.4,1.1,1.2,2,2.2,2.6c1,0.5,2.1,0.8,3.2,0.9c1.1,0,2.2-0.1,3.2-0.5c1.1-0.4,2.2-0.8,3.2-1.2
		c2.2-1.1,4.6-1.8,7-2.3c2.5-0.4,5-0.4,7.5-0.1c2.5,0.4,4.9,1.2,7.1,2.2c2,1.1,4.2,1.9,6.5,2.3c1.1,0.2,2.1,0.1,3.2-0.1
		c1-0.2,1.9-0.7,2.6-1.5c0.7-0.8,1.1-1.9,1.1-2.9c0.1-1.2-0.4-2.3-1.3-3c0.6,0.3,1.1,0.7,1.4,1.2c0.4,0.5,0.6,1.1,0.7,1.8
		c0.2,1.3-0.1,2.7-0.8,3.8c-0.8,1.1-1.9,2-3.2,2.4c-1.3,0.4-2.6,0.6-3.9,0.5c-2.7-0.1-5-1.2-7.2-2c-1.1-0.4-2.1-0.9-3.2-1.2
		c-1.1-0.3-2.2-0.6-3.3-0.7c-2.2-0.3-4.5-0.4-6.7-0.1c-2.3,0.3-4.5,0.9-6.7,1.7c-2.3,0.8-4.8,1.5-7.4,1c-1.3-0.3-2.4-0.8-3.4-1.6
		C154.6,81.5,153.9,80.3,153.8,79.1z"/>
	<path class="st16" d="M157,76.5c2-3,4.8-5.4,8.1-6.9c0.4-0.2,0.8-0.4,1.2-0.6l1.3-0.4c0.4-0.2,0.9-0.3,1.3-0.4l1.3-0.3l1.3-0.3
		c0.4-0.1,0.9-0.1,1.4-0.2c0.9-0.1,1.8-0.2,2.7-0.2c3.6,0,7.2,0.6,10.7,1.7c1.7,0.6,3.3,1.3,5,2c1.6,0.9,3.1,1.8,4.6,2.7
		c-1.7-0.5-3.4-1.1-5-1.7l-2.5-0.7c-0.8-0.2-1.6-0.5-2.5-0.7c-1.7-0.4-3.4-0.7-5.1-0.8c-0.9-0.1-1.7-0.2-2.5-0.3h-2.5
		c-3.4,0.1-6.7,0.7-9.9,1.8C162.6,72.4,159.6,74.2,157,76.5z"/>
	<path class="st13" d="M227.3,85c0,0,14.4-23.5,38.9-1.8C266.2,83.2,245.1,114.6,227.3,85z"/>
	<path class="st14" d="M228.3,85c0,0,12.3-21.5,34.9-1.5C263.2,83.4,246.6,109,228.3,85z"/>
	<circle class="st1" cx="243.2" cy="84.5" r="9.6"/>
	<path class="st15" d="M243.6,79.1c0.8,0.9,1.3,1.9,1.6,3c0.3,0.9,0.4,1.9,0.3,2.8c-0.1,1-0.3,1.9-0.7,2.8c-0.5,1-1.2,1.9-2.1,2.7
		c-0.8-0.8-1.3-1.9-1.6-2.9c-0.5-1.9-0.4-3.9,0.5-5.6C242,80.7,242.7,79.8,243.6,79.1z"/>
	<path class="st11" d="M269.9,79.1c-0.5,2.9-3.9,3.7-6.8,3.6s-5.7-1.5-8.6-2.3c-5-1.4-10.3-1.1-15.1,0.7c-2.5,1-4.9,2.4-7.5,3.1
		s-5.6,0.6-7.7-1.1s-2.2-6.3,0.1-7.7l3.5-1.8c6-3.4,12.6-4.4,19.5-4.1l0,0c8.1,0.3,13.2,1.9,19.4,7L269.9,79.1z"/>
	<path class="st13" d="M269.9,79.1c-0.1,1.3-0.8,2.4-1.8,3.2c-1,0.8-2.2,1.4-3.5,1.6c-2.6,0.5-5.2-0.3-7.4-1
		c-2.1-0.8-4.4-1.4-6.7-1.7c-2.2-0.3-4.5-0.3-6.7,0.1c-1.1,0.2-2.2,0.4-3.3,0.7c-1.1,0.3-2.1,0.8-3.2,1.2c-2.2,0.8-4.5,1.9-7.2,2
		c-1.3,0.1-2.7-0.1-3.9-0.5c-1.3-0.4-2.4-1.3-3.2-2.4c-0.7-1.1-1-2.5-0.8-3.8c0.1-0.6,0.3-1.2,0.7-1.8c0.4-0.5,0.8-0.9,1.4-1.2
		c-0.9,0.7-1.4,1.8-1.3,3c0,1.1,0.4,2.1,1.1,2.9c0.7,0.8,1.6,1.3,2.6,1.5c1,0.2,2.1,0.3,3.2,0.1c2.2-0.5,4.4-1.2,6.4-2.3
		c2.3-1.1,4.7-1.8,7.1-2.2c2.5-0.4,5-0.3,7.5,0.1c2.4,0.5,4.8,1.3,7,2.3c1.1,0.5,2.2,0.9,3.3,1.2c1,0.4,2.1,0.5,3.2,0.5
		c1.1-0.1,2.2-0.4,3.2-0.9C268.7,81,269.5,80.1,269.9,79.1z"/>
	<path class="st16" d="M266.8,76.5c-2.6-2.3-5.6-4.1-8.9-5.2c-3.2-1.1-6.5-1.8-9.9-1.8h-2.5c-0.9,0-1.7,0.2-2.5,0.3
		c-1.7,0.2-3.4,0.5-5.1,0.8c-0.9,0.1-1.7,0.5-2.5,0.7l-2.5,0.7c-1.6,0.6-3.3,1.2-5,1.7c1.5-1,3-1.8,4.6-2.7c1.6-0.7,3.3-1.5,5-2
		c3.4-1.1,7-1.7,10.6-1.7c0.9,0,1.8,0.1,2.7,0.2c0.4,0.1,0.9,0.1,1.4,0.2l1.3,0.3l1.3,0.3c0.4,0.1,0.9,0.3,1.3,0.4l1.3,0.4
		c0.4,0.2,0.8,0.4,1.2,0.6C261.9,71.1,264.7,73.5,266.8,76.5z"/>
</g>
<g id="l-leg">
	<path class="st9" d="M164.5,254.1c0,0,26,8.4,20.8,25.9c-4.5,14.9-18.8,9.5-18.8,9.5l-19.9-15.6L164.5,254.1z"/>
	<path class="st0" d="M140.8,359.3c-0.2-6.7-0.7-13.6-1.3-20.5s-1.2-13.9-1.8-20.9s-1.3-14.1-1.8-21.4c-0.1-1.8-0.3-3.6-0.4-5.5
		l-0.2-2.8l-0.1-2.9c-0.2-3.8-0.2-7.9-0.1-12.4v-0.8c0.1-11.5,9.6-20.7,21.1-20.6c11.5,0.1,20.7,9.6,20.6,21.1c0,0.3,0,0.5,0,0.8
		c-0.1,2.2-0.5,4.3-1.2,6.4l-0.7,1.8l-0.3,0.9l-0.3,1.1l-0.6,2.1c-0.2,0.7-0.4,1.5-0.5,2.3l-0.5,2.3l-0.4,2.4
		c-0.3,1.6-0.6,3.2-0.8,4.9c-1,6.5-1.8,13.3-2.4,20.1s-1.1,13.7-1.6,20.6s-0.8,13.9-1.1,21c-0.4,7-6.4,12.4-13.4,12.1
		c-6.6-0.4-11.8-5.6-12.1-12.2L140.8,359.3z"/>
	<path class="st17" d="M167.7,411.7h-0.6l-15.7-0.1l-15.7,0.1h-0.6c-0.3,1.9-0.3,3.8,0.1,5.7c0.1,0.7,0.3,1.3,0.5,1.9
		c0.2,0.6,0.6,1.2,1,1.6l0,0c2.5,3.1,8.6,5,14.6,5.1c6.1-0.1,12.1-2,14.6-5.1l0,0c0.4-0.5,0.8-1,1-1.6c0.3-0.6,0.4-1.2,0.5-1.9
		C168,415.5,168,413.6,167.7,411.7z"/>
	<path class="st4" d="M186.3,388.2h-1.2l-33.7-0.2l-33.7,0.2h-1.2c0,0-1.1,4.1,0.2,12.3c0.2,1.4,0.5,2.8,1.1,4.1
		c0.5,1.3,1.2,2.5,2.1,3.5l0,0c5.5,6.7,18.5,10.9,31.5,11c13-0.2,26-4.3,31.5-11l0,0c0.9-1,1.6-2.2,2.1-3.5c0.5-1.3,0.9-2.7,1.1-4.1
		C187.4,392.3,186.3,388.2,186.3,388.2z"/>
	<path class="st5" d="M185.4,379l-13.8-34h-40c-3,12.3-22.9,40.6-11.6,52.6l0,0c5.7,6.2,19.2,10,32.6,10.1
		C172.5,407.8,192.1,399.6,185.4,379z"/>
	<path class="st18" d="M170.4,352.6c-11.8,1.9-23.8,1.9-35.5,0c-8.3-1.3-13.1-7.8-11-13.3l0,0c2.1-5.5,8.7-8.4,14.9-7.4
		c9.2,1.4,18.5,1.4,27.7,0c6.2-1,12.8,1.9,14.9,7.4l0,0C183.5,344.7,178.7,351.3,170.4,352.6z"/>
	<path class="st19" d="M170.4,339c-11.8,1.9-23.8,1.9-35.5,0c-8.3-1.3-13.1-7.8-11-13.3l0,0c2.1-5.5,8.7-8.4,14.9-7.4
		c9.2,1.4,18.5,1.4,27.7,0c6.2-1,12.8,1.9,14.9,7.4l0,0C183.5,331.2,178.7,337.7,170.4,339z"/>
	<path class="st20" d="M132,379.5c2.6-2.5,5.7-4.3,9.1-5.3c6.8-2.2,14.1-2.1,20.9,0.2c3.4,1.1,6.4,3,8.9,5.6l0,0
		c0.1,0.1,0.1,0.2,0,0.2c-0.1,0-0.1,0-0.2,0c-1.5-0.8-3-1.4-4.6-1.9c-1.6-0.5-3.2-1-4.8-1.4c-6.5-1.4-13.2-1.5-19.8-0.2
		c-1.6,0.3-3.2,0.8-4.8,1.3c-1.6,0.5-3.1,1.1-4.6,1.8c-0.1,0-0.2,0-0.2-0.1C131.9,379.7,131.9,379.6,132,379.5L132,379.5z"/>
</g>
<g id="r-leg">
	<path class="st9" d="M259.7,254.1c0,0-26,8.4-20.8,25.9c4.5,14.9,18.7,9.5,18.7,9.5l19.9-15.6L259.7,254.1z"/>
	<path class="st0" d="M258,359.6c-0.4-7.2-0.7-14.1-1.1-21s-0.9-13.8-1.6-20.6s-1.4-13.6-2.4-20.1c-0.3-1.6-0.5-3.3-0.8-4.9
		l-0.5-2.4l-0.5-2.3c-0.2-0.8-0.4-1.5-0.5-2.3l-0.6-2.1l-0.3-1.1l-0.3-0.9l-0.7-1.8c-3.9-10.8,1.7-22.7,12.5-26.7
		c10.8-3.9,22.7,1.7,26.7,12.5c0.7,2,1.1,4.2,1.2,6.3v0.9c0.1,4.5,0.2,8.6-0.1,12.4l-0.1,2.9l-0.2,2.8c-0.1,1.9-0.2,3.7-0.4,5.5
		c-0.5,7.3-1.2,14.3-1.8,21.4s-1.3,14-1.9,20.9s-1,13.8-1.3,20.5v0.1c-0.3,7-6.2,12.5-13.3,12.3C263.6,371.4,258.3,366.2,258,359.6
		L258,359.6z"/>
	<path class="st17" d="M256.5,411.7h0.6l15.7-0.1l15.7,0.1h0.6c0.3,1.9,0.3,3.8-0.1,5.7c-0.1,0.7-0.2,1.3-0.5,1.9
		c-0.2,0.6-0.6,1.1-1,1.6l0,0c-2.5,3.1-8.6,5-14.6,5.1c-6-0.1-12.1-2-14.6-5.1l0,0c-0.4-0.5-0.8-1-1-1.6c-0.2-0.6-0.4-1.2-0.5-1.9
		C256.2,415.5,256.2,413.6,256.5,411.7z"/>
	<path class="st4" d="M237.9,388.2h1.2l33.7-0.2l33.7,0.2h1.2c0,0,1.1,4.1-0.2,12.3c-0.2,1.4-0.5,2.8-1.1,4.1
		c-0.5,1.3-1.2,2.5-2.1,3.5l0,0c-5.5,6.7-18.5,10.9-31.5,11c-13-0.2-26-4.3-31.5-11l0,0c-0.9-1-1.6-2.2-2.1-3.5
		c-0.5-1.3-0.9-2.7-1.1-4.1C236.8,392.3,237.9,388.2,237.9,388.2z"/>
	<path class="st5" d="M238.8,379l13.8-34h40c3,12.3,23,40.6,11.6,52.6l0,0c-5.6,6.2-19.2,10-32.6,10.1
		C251.7,407.8,232.1,399.6,238.8,379z"/>
	<path class="st18" d="M253.8,352.6c11.8,1.9,23.8,1.9,35.5,0c8.3-1.3,13.1-7.8,11-13.3l0,0c-2.1-5.5-8.7-8.4-14.9-7.4
		c-9.2,1.4-18.6,1.4-27.7,0c-6.2-1-12.8,1.9-14.9,7.4l0,0C240.7,344.7,245.5,351.3,253.8,352.6z"/>
	<path class="st19" d="M253.8,339c11.8,1.8,23.8,1.8,35.5,0c8.3-1.3,13.1-7.8,11-13.3l0,0c-2.1-5.5-8.7-8.4-14.9-7.4
		c-9.2,1.4-18.6,1.4-27.7,0c-6.2-1-12.8,1.9-14.9,7.4l0,0C240.7,331.2,245.5,337.7,253.8,339z"/>
	<path class="st20" d="M292.2,379.5c-2.6-2.5-5.7-4.3-9.1-5.3c-6.8-2.2-14.1-2.1-20.9,0.2c-3.4,1.1-6.4,3-8.9,5.6l0,0
		c-0.1,0.1-0.1,0.2,0,0.2c0,0,0.1,0.1,0.2,0c1.5-0.8,3-1.4,4.6-1.9c1.6-0.5,3.2-1,4.8-1.4c6.5-1.4,13.2-1.5,19.8-0.2
		c1.6,0.3,3.2,0.7,4.8,1.2c1.6,0.5,3.1,1.1,4.6,1.8c0.1,0,0.2,0,0.2-0.1C292.3,379.7,292.3,379.6,292.2,379.5L292.2,379.5z"/>
</g>
<g id="r-hand">
	<ellipse class="st3" cx="316" cy="184.8" rx="22.9" ry="27"/>
	<path class="st1" d="M341.8,180.9c-1.2-10.9-10.9-18.9-21.7-17.3l-0.4,0.1c-15.1,6.2-20.8,14-18.7,28.5l0,0
		c2,14.5,10.3,22.5,25.5,20.4l0,0c10.2-1.6,18-7,16.9-17.3L341.8,180.9z"/>
	<path class="st1" d="M318.1,164.4c6.9-2.9,16.4-5.6,23.5-7.8c2.3-0.7,4.6-1.9,7.2-1.4s5.2,2.9,5.3,5.6s-2.3,4.5-4.5,5.8
		c-7.8,4.4-15.8,8.6-23.9,12.4L318.1,164.4z"/>
	<path class="st1" d="M332.6,188c7.9-0.7,15.7-1.3,23.6-1.9c2.5-0.2,5.2-0.4,7.6,0.8s4.2,4.1,3.3,6.7s-3.8,3.5-6.4,4
		c-9.3,1.8-18.6,3.3-28,4.5L332.6,188z"/>
	<path class="st1" d="M329.5,200.2c6.5,0.7,12.9,1.3,19.4,2c2.1,0.2,4.3,0.5,6,1.9s2.7,4.2,1.7,6.3s-3.6,2.4-5.8,2.5
		c-7.7,0.1-15.5,0-23.2-0.5L329.5,200.2z"/>
	<path class="st1" d="M327.5,176.7c8.5-2.2,17-4.4,25.6-6.5c2.8-0.7,5.7-1.4,8.4-0.7s5.1,3.2,4.6,5.9s-3.7,4.2-6.4,5.2
		c-9.9,3.6-19.9,6.9-30,9.9L327.5,176.7z"/>
	<path class="st1" d="M301.7,192.7c-5.9-16.9,1.3-34.8,11-43.3c0.9-0.8,3-3,4.3-3.4c2.4-0.7,5.1,1.5,6,2.9c0.4,0.6,0.6,1.3,0.7,2
		c0.1,1-1.2,3.7-1.7,4.6c-1.8,3.5-7.2,15.2-3.3,20.6L301.7,192.7z"/>
	<path class="st2" d="M318.7,164.3c1.7,1.8,3.2,3.8,4.5,6c1.3,2.2,2.3,4.6,2.8,7.1c0.5,2.6,0.4,5.2-0.3,7.7
		c-0.7,2.5-2.1,4.7-4.2,6.3c1.5-1.9,2.5-4.2,2.9-6.6c0.4-2.3,0.4-4.7,0-7.1c-0.5-2.4-1.2-4.7-2.3-6.8
		C321,168.7,319.8,166.6,318.7,164.3z"/>
</g>
</svg>
