<?xml version="1.0" encoding="utf-8"?>
<!-- Generator: Adobe Illustrator 25.2.0, SVG Export Plug-In . SVG Version: 6.00 Build 0)  -->
<svg version="1.1" id="Layer_1" xmlns="http://www.w3.org/2000/svg" xmlns:xlink="http://www.w3.org/1999/xlink" x="0px" y="0px"
	 viewBox="0 0 317.6 433.9" style="enable-background:new 0 0 317.6 433.9;" xml:space="preserve">
<style type="text/css">
	.st0{fill:#8463BE;}
	.st1{fill:#612B89;}
	.st2{fill:#7356A4;}
	.st3{fill:#2E047A;}
	.st4{fill:#FAAF3B;}
	.st5{fill:#FAC26C;}
	.st6{fill:#7333A3;}
	.st7{fill:#90BD4A;}
	.st8{fill:#7EA540;}
	.st9{fill:#FAAA2D;}
	.st10{fill:#F1F1F1;}
	.st11{fill:#EE8031;}
	.st12{fill:#A87DF1;}
	.st13{fill:#612B88;}
	.st14{fill:#7333A2;}
	.st15{fill:#3B224D;}
	.st16{fill:#FFFFFF;}
	.st17{fill:#261234;}
	.st18{fill:#8F5CB5;}
	.st19{fill:#853BBC;}
	.st20{fill:#472063;}
</style>
<g id="b-leg">
	<path class="st0" d="M168.1,265.6c10.5,6.6,22.4,18.4,10.4,31.2c-7.5,8-40.1,0.9-49.6-11.1c-4.7-7.2-1.8-19.6,4.4-25.2
		C142.4,251.9,158.6,259.6,168.1,265.6z"/>
	<path class="st1" d="M107.5,368.2l-4-27.9l-2-14l-1-7l-0.1-0.9l-0.1-1.4c-0.1-0.9-0.2-1.8-0.2-2.7c0-1.8,0.1-3.7,0.3-5.5
		c1.6-11.3,8.4-21.1,18.3-26.7c1.7-0.9,3.4-1.7,5.1-2.4l1.2-0.5l0.8-0.3l1.7-0.6l26.6-9.5c8.1-2.9,16.9,1.3,19.8,9.4
		c2.9,8.1-1.3,16.9-9.4,19.8c-0.4,0.1-0.9,0.3-1.3,0.4l-27.3,7.2l-3,0.8c-0.5,0.1-0.9,0.2-1.3,0.4c-0.9,0.3-1.7,0.8-2.4,1.4
		c-1.5,1.3-2.7,3-3.2,4.9c-0.1,0.5-0.2,1-0.3,1.5c0,0.3,0,0.5,0,0.8v0.4v0.9l0.4,7l0.8,14.1l1.6,28.1c0.3,5.9-4.2,10.9-10,11.2
		C113.1,377.5,108.3,373.6,107.5,368.2L107.5,368.2z"/>
	<path class="st2" d="M81.9,417.5l-9.4-1c-4.3-0.4-7.5-4.2-7.1-8.6c0,0,0-0.1,0-0.1l0.6-5l25.4,2.9l-0.6,5
		C90.3,415,86.3,418,81.9,417.5z"/>
	<path class="st2" d="M115.6,415.9l9.2-2c4.3-0.8,7-4.9,6.2-9.2c0,0,0-0.1,0-0.1l-1.1-4.9l-25,5.3l1.1,5
		C107,414.3,111.3,416.9,115.6,415.9z"/>
	<path class="st0" d="M143.2,382.2l-0.5-8.7c-0.2-4.1-4.2-7.3-8.9-7.1l-5.4,0.2l1.4,23.6l5.4-0.2
		C139.8,389.8,143.4,386.3,143.2,382.2z"/>
	<path class="st0" d="M136.6,392.6c-0.5,2-1,4-1.7,6c-4.6,13.1-65.6,18.3-75,3.7c-0.8-1.7-1.3-3.5-1.5-5.3
		c-1.8-20.8,43.1-37.4,43.1-37.4l31.4-1.6C137.8,368.8,139.1,381,136.6,392.6z"/>
	<path class="st3" d="M136.6,392.6c-14.1,9-60.7,12.5-78.2,4.4c-1.8-20.8,43.1-37.4,43.1-37.4l31.4-1.6
		C137.8,368.8,139.1,381,136.6,392.6z"/>
	<path class="st4" d="M129.9,361.9c-10,2-20.2,2.3-30.3,0.9c-7.1-1-11.4-7-9.7-12.1l0,0c1.7-5.2,7.2-8,12.5-7.3
		c7.9,1.1,15.9,0.9,23.7-0.7c5.2-1,11,1.5,12.9,6.5l0,0C140.9,354.3,136.9,360.5,129.9,361.9z"/>
	<path class="st5" d="M129.5,349.3c-10,2-20.2,2.3-30.3,0.9c-7.1-1-11.4-7-9.7-12.1l0,0c1.7-5.2,7.2-8,12.5-7.3
		c7.9,1.1,15.9,0.9,23.7-0.7c5.3-1,10.9,1.5,12.9,6.6l0,0C140.5,341.7,136.6,347.9,129.5,349.3z"/>
</g>
<g id="b-arm">
	<path class="st6" d="M137.7,162c-2.2,4.3-4.8,8.2-7.9,11.9c-2.8,3.4-5.9,6.6-9.2,9.5c-6.6,5.8-14.2,10.4-22.4,13.5
		c-8.2,3.2-17.1,4.5-25.9,4c-4.3-0.3-8.5-1-12.6-2.1c-2-0.6-4-1.2-5.9-2c-1-0.4-1.9-0.7-2.9-1.2l-1.4-0.6l-0.7-0.3l-0.3-0.2
		l-0.2-0.1h-0.1l0,0l0,0c1.3-3.3-2.9,7.5,2.9-7.5s1.6-4.1,2.9-7.5h0.1h0.1h0.2l0.3,0.1l0.6,0.1l1.2,0.3c0.8,0.2,1.5,0.4,2.3,0.5
		c1.5,0.3,3.1,0.4,4.6,0.6c3,0.2,5.9,0.2,8.9-0.2c5.7-0.7,11.1-2.7,16-5.7c7.2-4.6,13.2-11,17.3-18.6c0.6-1.2,1.2-2.4,1.7-3.6
		c0.4-1.1,0.8-2.1,1.1-3.3c2.1-8.7,10.8-14.1,19.5-12c8.7,2.1,14.1,10.8,12,19.5c-0.3,1.2-0.7,2.4-1.3,3.5L137.7,162z"/>
</g>
<g id="b-hand">
	<path class="st7" d="M19.5,203c-3.2,3.7-5,4.2-8,4.7c-0.5,0.1-1,0.5-1.2,1c-0.8,1.4,0,3.6,0.9,4.8c1.5,1.9,3.8,3.1,6.2,3.2
		c7,0.7,18.6-3.5,23.9-12.8L19.5,203z"/>
	<path class="st7" d="M18.2,205.8l23.2-1.8l1.7-29.9c-5.5-5-23.4-6.4-31.5,2.7L18.2,205.8z"/>
	<path class="st7" d="M16.9,204.4c-4.2-2-9-2.2-13.4-0.8H3.5c-1.5,0.6-3.1-0.8-3.4-3.1c-0.4-1.8,0.3-3.6,1.7-4.8
		c5.1-3.4,11.2-4.9,17.3-4h0.1c2.7,0.4,4.6,3.6,4.2,7.2s-2.9,6.2-5.6,5.7C17.4,204.6,17.1,204.6,16.9,204.4z"/>
	<path class="st7" d="M19.2,196c-4.3-1.9-9.2-2-13.6-0.1H5.5c-1.6,0.7-3.1-0.8-3.5-3.2c-0.3-2,0.3-4,1.7-5.4
		c2.4-1.9,5.2-3.4,8.2-4.3c3-0.9,6.2-1.3,9.4-1h0.1c2.7,0.2,4.6,3.7,4.2,7.7s-3,6.9-5.7,6.4C19.7,196.1,19.5,196.1,19.2,196z"/>
	<path class="st7" d="M21.7,189.4c-4.5-1.8-9.5-1.7-13.9,0.3H7.7c-1.6,0.7-3.2-0.7-3.5-3.1c-0.3-2,0.3-4,1.8-5.4
		c2.5-2,5.3-3.6,8.4-4.6c3.1-1,6.3-1.5,9.6-1.3H24c2.8,0.2,4.7,3.6,4.3,7.6s-3.1,7-5.8,6.7C22.2,189.5,21.9,189.5,21.7,189.4z"/>
	<path class="st8" d="M1.7,196.3c2.2-2.2,5-3.8,8.1-4.6c3-0.8,6.3-0.8,9.3,0.1c-1.5,0.1-3.1,0.1-4.6,0.3c-1.5,0.2-3,0.5-4.4,0.8
		c-1.5,0.4-2.9,0.8-4.3,1.4C4.5,194.9,3.1,195.6,1.7,196.3z"/>
	<path class="st8" d="M4.1,187.1c2.3-2.3,5.1-4.1,8.2-5c3.1-1,6.4-1.1,9.6-0.3c-1.6,0.1-3.2,0.3-4.7,0.5c-1.5,0.3-3,0.6-4.5,1.1
		c-1.5,0.5-2.9,1-4.3,1.7C6.9,185.6,5.5,186.3,4.1,187.1z"/>
	<path class="st8" d="M6.7,180.7c1-1.1,2.2-2.1,3.4-2.9c1.3-0.8,2.6-1.5,4-2c1.4-0.6,2.9-1,4.4-1.1c1.5-0.2,3.1,0,4.5,0.4
		c-1.4,0.2-2.9,0.4-4.3,0.7c-1.4,0.3-2.8,0.8-4.1,1.3c-1.4,0.5-2.7,1.1-4,1.7C9.2,179.2,8,180,6.7,180.7z"/>
	<path class="st9" d="M38.5,201.7c-1.2-8.1-1-16.4,0.8-24.4c1.2-5.8,6.6-9.5,11.2-8.4l0,0c4.6,1.1,7.4,5.6,6.4,10.2c0,0,0,0.1,0,0.1
		c-1.5,6.7-1.7,13.7-0.5,20.5c0.8,4.8-2.2,9.4-7,10.5l0,0C44.6,211.3,39.3,207.5,38.5,201.7z"/>
</g>
<g id="body">
	<path class="st0" d="M204.9,264.8c-13.9,7.3-33.4,21.6-19.4,39c7,8.8,41.6,9.5,60.3,1.7c9.1-3.7,14.3-13.2,12.7-22.9
		c-1.4-7.9-8.1-16.2-12.1-20.5C235.5,250.4,217.5,258.2,204.9,264.8z"/>
	
		<ellipse transform="matrix(0.1714 -0.9852 0.9852 0.1714 -64.9217 250.1078)" class="st0" cx="116.2" cy="163.7" rx="27.9" ry="19.6"/>
	<path class="st3" d="M213.5,281.8c-0.4,0-27.3,2.2-27.7,2.2l0,0c-34.7-1.6-62.8-23-76.5-52c-10.5-22-12.1-47.2-4.6-70.4
		c2.2-6.8,5.4-15.2,8.5-22c50,18.7,101.6,20.5,156.2,1c3,7,5.7,14.3,7.9,21.6C295.8,224.4,275.3,283.8,213.5,281.8z"/>
	<path class="st10" d="M225,248.4c-9.4,28-24.8,42.9-71.1,32.1c-33-7.7-54.1-39.4-44.1-70.6c2.2-6.9,10.3-9.4,16.6-6.9
		c26.6,10.2,55.3,13.7,83.6,10.2C227.2,214.2,230.8,231.1,225,248.4z"/>
	<path class="st7" d="M176.7,229.1c1-7,11.4-5.2,10.2,1.7C185.9,237.9,175.5,236,176.7,229.1z"/>
	<path class="st11" d="M191.4,229.1c1-7.1,11.5-5.3,10.3,1.8C200.6,238,190.1,236.2,191.4,229.1z"/>
	<path class="st7" d="M206.2,228.5c1-7.1,11.6-5.3,10.4,1.8C215.6,237.4,205,235.6,206.2,228.5z"/>
	<path class="st12" d="M248.5,161.1c-14.5,6.3-34.7,10.1-57.5,9.6c-53.6-1.2-91.6-25.4-75.9-48.1c0.2-0.3,0.3-0.5,0.5-0.8l0.1-0.1
		c3.5-4.9,9.5-7.3,15.4-6.4c40.4,6.6,81.6,7.5,122.3,2.8c6-0.6,11.8,2.1,15.1,7.1l0.1,0.1c0.2,0.3,0.4,0.5,0.5,0.8
		C277.5,139.4,268.2,152.6,248.5,161.1z"/>
	<ellipse transform="matrix(0.9854 -0.17 0.17 0.9854 -26.4588 49.0911)" class="st0" cx="273.4" cy="179" rx="22.7" ry="35.6"/>
</g>
<g id="f-leg">
	<path class="st6" d="M168.8,381.8c-0.8-3.7-1.6-7.5-2.5-11.2s-1.7-7.5-2.6-11.2c-1.8-7.4-3.5-14.9-5.3-22.3l-1.4-5.6l-0.7-2.8
		l-0.3-1.4l-0.2-0.7l-0.2-1.1c-1.1-5.9-0.9-11.9,0.7-17.7c1.6-5.9,4.6-11.3,8.6-15.8c4.1-4.6,9.3-8.2,15-10.5
		c0.2-0.1,0.4-0.1,0.6-0.2l2.2-0.5l14.5-3.4l7.2-1.8c2.4-0.6,4.8-1.2,7.2-1.8c9.7-2.6,19.6,3.2,22.1,12.9
		c2.6,9.7-3.2,19.6-12.9,22.1l0,0c-1.2,0.3-2.4,0.5-3.6,0.6c-2.5,0.1-4.9,0.3-7.4,0.5l-7.4,0.5l-14.8,1.2l2.8-0.7
		c-1.5,0.3-2.9,0.9-4.1,1.8c-1.3,1-2.3,2.3-3,3.7c-0.7,1.5-1.1,3.2-1,5v0.3l0.1,0.7l0.2,1.4l0.4,2.8l0.8,5.7
		c1.1,7.6,2.2,15.1,3.4,22.7c0.6,3.8,1.1,7.6,1.8,11.3c0.6,3.8,1.2,7.5,1.9,11.3c0.9,6.1-3.2,11.8-9.4,12.8
		C175.6,391.2,170.1,387.5,168.8,381.8L168.8,381.8z"/>
	<path class="st2" d="M135.9,433.9l-10.1-1.1c-4.6-0.4-8.1-4.6-7.6-9.2c0,0,0-0.1,0-0.1l0.7-5.4l27.4,3.1l-0.7,5.4
		C144.9,431.2,140.6,434.5,135.9,433.9z"/>
	<path class="st2" d="M172.2,432.2l9.9-2.1c4.6-0.9,7.6-5.3,6.7-9.9c0,0,0-0.1,0-0.1l-1.2-5.3l-26.9,5.7l1.2,5.3
		C163,430.4,167.6,433.2,172.2,432.2z"/>
	<path class="st0" d="M201.9,395.9l-0.5-9.4c-0.3-4.4-4.5-7.9-9.6-7.6l-5.9,0.2l1.5,25.4l5.9-0.2
		C198.3,404.1,202.1,400.3,201.9,395.9z"/>
	<path class="st0" d="M194.7,407.1c-0.5,2.2-1.1,4.3-1.9,6.4c-4.9,14.1-70.6,19.7-80.8,4c-0.9-1.8-1.4-3.7-1.6-5.7
		c-1.9-22.4,46.4-40.3,46.4-40.3l33.8-1.7C196.1,381.5,197.5,394.6,194.7,407.1z"/>
	<path class="st3" d="M194.7,407.1c-15.2,9.7-65.3,13.5-84.2,4.7c-1.9-22.4,46.4-40.3,46.4-40.3l33.8-1.7
		C196.1,381.5,197.5,394.6,194.7,407.1z"/>
	<path class="st4" d="M187.5,374.1c-10.7,2.2-21.8,2.5-32.6,0.9c-7.7-1.1-12.3-7.5-10.5-13l0,0c1.8-5.5,7.8-8.6,13.5-7.8
		c8.5,1.2,17.1,1,25.5-0.7c5.7-1.1,11.8,1.6,13.9,7.1l0,0C199.4,365.9,195.1,372.5,187.5,374.1z"/>
	<path class="st5" d="M187.2,360.5c-10.8,2.2-21.8,2.5-32.6,0.9c-7.7-1.1-12.3-7.5-10.5-13l0,0c1.8-5.6,7.8-8.6,13.5-7.8
		c8.5,1.2,17.1,1,25.5-0.7c5.7-1.1,11.8,1.6,13.9,7.1l0,0C199,352.2,194.8,358.9,187.2,360.5z"/>
</g>
<g id="f-arm">
	<path class="st6" d="M286.1,165.2c9.4,4.6,17.4,11.6,23.3,20.3c3,4.5,5.1,9.5,6.5,14.7c1.3,5.2,1.7,10.6,1.2,16
		c-0.5,5.2-2,10.3-4.3,15c-2.2,4.4-5,8.5-8.4,12.1c-3.2,3.4-6.8,6.4-10.7,8.9c-3.7,2.4-7.6,4.4-11.7,6.1c-4.1,1.7-8.8-0.2-10.5-4.4
		c-1.5-3.6-0.2-7.7,3-9.8l0.3-0.2c2.9-1.8,5.5-3.9,8-6.1c2.3-2.1,4.4-4.5,6.1-7.2c3.1-4.5,4.6-9.9,4.2-15.4
		c-0.5-4.9-2.7-9.4-6.1-12.9c-3.7-3.6-8.3-6.3-13.3-7.6c-8.5-2.7-13.2-11.7-10.5-20.2c2.6-8.2,11.2-13,19.5-10.7
		c0.9,0.3,1.8,0.6,2.7,1L286.1,165.2z"/>
</g>
<g id="f-hand">
	<path class="st7" d="M243,253.8c-5.9-1.5-8.9-0.6-12.9,0.9c-0.7,0.2-1.5,0.1-2.1-0.2c-1.8-0.9-2.1-3.7-1.6-5.4c1-3,3.1-5.5,5.9-7
		c7.8-4.6,22.5-6.9,32.4-1.3L243,253.8z"/>
	<path class="st7" d="M281.2,268c-2.4,8.1-10.7,15.1-18.2,18.5l-0.6,0.2l-23.2-34.5l25.5-11.6L281.2,268z"/>
	<path class="st7" d="M238.4,254.4c-4.4,4.9-10.1,8.4-16.4,10.1h-0.1c-2.3,0.7-3.7,3.1-3.1,5.4c0,0.1,0,0.1,0.1,0.2
		c0.6,2.2,2.7,3.6,4.9,3.5c4.2-0.3,8.4-1.3,12.3-2.8c4-1.5,7.8-3.6,11.2-6.2l0.1-0.1c2.8-2.3,3.3-6.5,1-9.3c-2.1-3-6.2-3.6-9.1-1.5
		c0,0,0,0,0,0C239,253.8,238.7,254.1,238.4,254.4z"/>
	<path class="st7" d="M245.5,260.5c-4.3,5-10.1,8.5-16.5,10h-0.1c-2.4,0.6-3.7,3.2-2.8,5.9c0.7,2.3,2.8,3.9,5.2,3.9
		c4.3-0.2,8.5-1,12.6-2.5c4-1.5,7.8-3.5,11.2-6.2l0.1-0.1c2.8-2.2,3.1-6.6,0.6-9.8s-6.7-4.1-9.5-2C246,260,245.7,260.2,245.5,260.5z
		"/>
	<path class="st7" d="M251.4,267.6c-4.3,5-10.1,8.5-16.5,10h-0.1c-2.4,0.6-3.7,3.2-2.8,5.9c0.7,2.3,2.8,3.9,5.2,3.9
		c4.3-0.2,8.5-1,12.6-2.5c4-1.5,7.8-3.5,11.2-6.2l0.1-0.1c2.8-2.2,3.1-6.6,0.6-9.8s-6.7-4.1-9.5-2
		C251.9,267,251.6,267.3,251.4,267.6z"/>
	<path class="st7" d="M257.5,272.5c-4.3,5-10.1,8.5-16.5,10h-0.1c-2.4,0.6-3.7,3.2-2.8,5.9c0.7,2.3,2.8,3.9,5.2,3.9
		c8.6-0.4,16.9-3.4,23.7-8.6l0.1-0.1c2.8-2.2,3.1-6.6,0.6-9.8s-6.7-4.1-9.5-2C258,271.9,257.7,272.2,257.5,272.5z"/>
	<path class="st8" d="M223.5,273.2c2.1-0.4,4.2-0.8,6.3-1.4c2.1-0.5,4.1-1.1,6.1-1.9c2-0.7,3.9-1.6,5.9-2.5s3.8-2,5.7-3
		c-3.1,3.1-6.9,5.5-11,7c-2.1,0.7-4.2,1.3-6.4,1.6C227.9,273.4,225.7,273.4,223.5,273.2z"/>
	<path class="st8" d="M231.7,280.4c2.1-0.4,4.2-0.8,6.3-1.4c2.1-0.5,4.1-1.2,6.1-1.9c2-0.7,4-1.6,5.9-2.5c1.9-0.9,3.8-2,5.7-3
		c-3.1,3.1-6.9,5.5-11,7c-2.1,0.8-4.2,1.3-6.4,1.6C236.1,280.6,233.9,280.6,231.7,280.4z"/>
	<path class="st8" d="M238.2,287.3c2.1-0.4,4.2-0.8,6.3-1.4c2.1-0.5,4.1-1.1,6.1-1.9c2-0.7,3.9-1.6,5.8-2.5c1.9-0.9,3.8-2,5.7-3
		c-3.1,3.1-6.9,5.5-11,7c-2.1,0.8-4.2,1.3-6.4,1.6C242.6,287.5,240.4,287.5,238.2,287.3z"/>
	<path class="st9" d="M263.7,245.3c3,8,7.6,15.3,13.4,21.5c4.1,4.4,10.8,4.3,14.1,0.4l0,0c3.2-3.5,3.2-8.9,0-12.5
		c-4.5-4.9-8.1-10.6-10.5-16.8c-1.8-4.4-6.6-6.8-11.2-5.5l0,0C264.6,233.7,261.6,239.6,263.7,245.3z"/>
</g>
<g id="head">
	<path class="st13" d="M98.1,56.7c-0.2-7.2-2.7-12.7-6.6-13.6C86.1,42,80,49.9,77.9,60.8s0.5,20.8,5.9,21.9c4,0.8,8.3-3.2,11.1-9.8
		c7-2,16.3,1.4,16.3,1.4l1.2-6.1l1.2-6.1C113.6,62.1,103.8,61.5,98.1,56.7z"/>
	<path class="st14" d="M280.6,76.6c0,6.4-7.2,11.8-8.9,17.8s1.4,14.2-2,19.6s-12.2,6.4-16.8,10.8s-5.5,12.7-10.9,16
		c-5.2,3.1-13.6,0.4-19.5,2.5c-5.7,2-10,9.1-16.1,9.9c-5.9,0.8-12.4-4.6-18.6-4.9s-12.5,4.6-18.2,3.2c-5.8-1.4-9.9-8.6-15.1-10.9
		c-5.4-2.4-13-0.4-17.6-3.7s-5.7-11.4-9.5-15.6s-11.5-5.7-14.2-10.6s-0.2-12.3-1.6-17.9s-7.3-10.4-7.3-16.2s5.9-10.7,7.3-16.2
		s-1.2-12.9,1.6-17.9s10.3-6.4,14.2-10.6c3.9-4.3,4.8-12.2,9.5-15.5s12.2-1.3,17.6-3.7c5.2-2.3,9.3-9.6,15.1-10.9
		c5.7-1.3,12.1,3.5,18.2,3.2s12.7-5.7,18.6-4.9c6.1,0.9,10.5,8,16.1,9.9c5.9,2.1,14.3-0.6,19.5,2.5c5.4,3.2,6.5,11.7,10.9,16
		c4.4,4.3,13.5,5.5,16.8,10.8s0.2,13.5,2,19.6S280.6,70.2,280.6,76.6z"/>
	<path class="st1" d="M150.4,35.3c-1.1-0.8-2.5-0.9-3.6-0.2c-1.2,0.6-2.1,1.5-2.8,2.6c-0.8,1.1-1.4,2.3-2.2,3.6
		c-0.4,0.6-0.9,1.2-1.4,1.7c-0.6,0.6-1.2,1-1.9,1.4c-1.4,0.8-2.7,1.2-3.9,1.8c-1.1,0.4-2.1,1-3,1.8c-1.8,1.8-2.6,4.3-2.3,6.8L129,55
		c-0.9-1.2-1.3-2.8-1.2-4.3c0.1-1.6,0.7-3.2,1.7-4.4c0.5-0.7,1.2-1.2,1.9-1.6c0.7-0.4,1.4-0.7,2.1-0.9c1.3-0.3,2.6-0.7,3.9-1.2
		c1.1-0.5,2.1-1.3,2.9-2.3c0.8-1,1.6-2.2,2.5-3.3c0.9-1.2,2.2-2.1,3.6-2.6c0.7-0.2,1.5-0.3,2.2-0.2c0.7,0.1,1.4,0.4,1.9,1
		L150.4,35.3z"/>
	<path class="st1" d="M226.7,33.2c0.5-0.6,1.3-1,2.1-1.2c0.8-0.1,1.6-0.1,2.4,0.1c1.6,0.4,2.9,1.3,4,2.5c1.1,1.2,1.9,2.4,2.9,3.5
		c0.9,1,2,1.8,3.3,2.3c1.4,0.4,2.8,0.8,4.3,1c0.8,0.2,1.6,0.5,2.4,0.8c0.8,0.4,1.6,1,2.2,1.7c2.4,2.6,2.8,6.8,0.8,9.4l-0.2-0.1
		c0.5-2.7-0.5-5.5-2.5-7.3c-1.7-1.6-4.7-2.1-7.7-3.4c-0.8-0.4-1.5-0.8-2.1-1.3c-0.6-0.5-1.2-1.2-1.7-1.8c-1-1.3-1.7-2.6-2.5-3.8
		c-0.8-1.2-1.9-2.1-3.2-2.6c-1.3-0.6-2.9-0.4-4,0.4L226.7,33.2z"/>
	<path class="st1" d="M259.1,68.2c0.8,0,1.6,0.3,2.2,0.9c0.6,0.5,1.1,1.2,1.4,1.9c0.6,1.5,0.8,3.1,0.5,4.7c-0.3,1.6-0.7,3-0.9,4.4
		c-0.3,1.3-0.2,2.7,0.3,4c0.6,1.4,1.2,2.7,1.9,4c0.4,0.8,0.6,1.5,0.8,2.4c0.2,0.9,0.2,1.8,0.1,2.7c-0.5,3.6-3.5,6.5-6.8,6.5
		l-0.1-0.3c2.4-1.3,4-3.8,4.1-6.5c0.1-2.3-1.3-5-2.2-8.2c-0.2-0.8-0.3-1.7-0.3-2.5c0-0.8,0.2-1.6,0.4-2.4c0.4-1.6,1-2.9,1.3-4.3
		c0.4-1.4,0.4-2.8,0-4.2c-0.3-1.4-1.4-2.5-2.9-2.8L259.1,68.2z"/>
	<path class="st1" d="M139.5,115.4c-0.4,0.4-0.9,0.7-1.4,0.7c-0.5,0.1-1.1,0-1.6-0.2c-1-0.4-1.9-1-2.6-1.9c-1.3-1.7-2.3-3.5-3.9-4.1
		c-0.9-0.3-1.9-0.6-2.8-0.9c-0.5-0.2-1.1-0.4-1.6-0.7c-0.5-0.3-1-0.7-1.4-1.2c-1.5-1.8-1.7-4.4-0.4-6.4l0.2,0.1
		c-0.2,1.8,0.4,3.7,1.7,5c1.1,1.1,3,1.6,5,2.6c1,0.6,1.8,1.4,2.4,2.3c0.6,0.9,1,1.8,1.6,2.6c0.5,0.8,1.2,1.5,2,1.9
		c0.8,0.5,1.9,0.4,2.7-0.1L139.5,115.4z"/>
	<path class="st1" d="M218.3,130.3c0.8,0.6,1.9,0.7,2.8,0.3c0.9-0.4,1.7-1,2.2-1.8c0.6-0.8,1.1-1.7,1.8-2.6c0.7-0.9,1.6-1.7,2.6-2.2
		c2.1-0.9,4.1-1.3,5.4-2.3c1.4-1.3,2.1-3.2,1.7-5.1l0.2-0.1c1.4,2,1.1,4.7-0.6,6.5c-0.4,0.5-0.9,0.8-1.5,1.1
		c-0.5,0.2-1.1,0.4-1.6,0.6c-1.1,0.2-2.1,0.4-3,0.7c-0.9,0.3-1.7,0.9-2.3,1.6c-0.7,0.7-1.3,1.6-2,2.4c-0.7,0.8-1.7,1.5-2.8,1.7
		c-0.5,0.1-1.1,0.2-1.7,0.1c-0.5-0.1-1-0.4-1.4-0.8L218.3,130.3z"/>
	<path class="st1" d="M172.5,24.6c-0.1-1.7,0.5-3.4,1.7-4.6c0.7-0.6,1.5-1.1,2.4-1.4c0.9-0.2,1.8-0.3,2.7-0.2
		c1.7,0.1,3.3,0.6,4.7,0.9c1.3,0.3,2.7,0.2,4-0.2c1.4-0.4,2.8-1.1,4.3-1.6c0.8-0.3,1.6-0.5,2.4-0.7c0.9-0.2,1.8-0.2,2.7-0.1
		c1.8,0.2,3.4,1,4.7,2.2c1.2,1.2,2,2.6,2.5,4.2c-0.9-1.2-2-2.3-3.3-3.1c-1.2-0.8-2.6-1.2-4-1.1c-0.7,0-1.3,0.1-2,0.3
		c-0.7,0.2-1.4,0.5-2,0.8c-1.5,0.7-3,1.3-4.5,1.9c-0.9,0.3-1.8,0.4-2.7,0.4c-0.9,0-1.8-0.1-2.6-0.3c-1.6-0.4-3.1-1-4.5-1.3
		c-0.7-0.2-1.3-0.2-2-0.1c-0.7,0.1-1.3,0.3-1.9,0.6C173.8,21.9,172.9,23.2,172.5,24.6z"/>
	<path class="st1" d="M157.8,130.2c0.2,0.9,0.7,1.8,1.4,2.4c0.7,0.5,1.6,0.7,2.4,0.6c0.9-0.1,1.9-0.4,2.9-0.5c1.1-0.2,2.3,0,3.4,0.4
		c0.9,0.4,1.9,0.9,2.7,1.4c0.4,0.2,0.8,0.4,1.2,0.6c0.4,0.2,0.8,0.3,1.2,0.3c1.9,0.1,3.7-0.8,4.9-2.3c-0.4,1-1,1.9-1.8,2.5
		c-0.9,0.7-2,1.1-3.1,1.1c-0.6,0-1.1-0.1-1.7-0.2c-0.5-0.2-1-0.4-1.5-0.6c-0.9-0.5-1.8-1-2.6-1.3c-0.8-0.3-1.7-0.5-2.5-0.4
		c-1,0.1-2,0.2-3,0.3c-0.6,0-1.2-0.1-1.7-0.3c-0.5-0.2-1-0.6-1.4-1C158,132.3,157.7,131.3,157.8,130.2z"/>
	<path class="st15" d="M156.1,81.2c0,0-9-21.4-29.8-6.3C126.3,74.9,139.8,103.7,156.1,81.2z"/>
	<path class="st16" d="M155.3,81c0,0-7.5-19.4-26.7-5.5C128.6,75.5,139.2,98.9,155.3,81z"/>
	<ellipse transform="matrix(0.9863 -0.1649 0.1649 0.9863 -11.0271 24.8108)" class="st7" cx="143.9" cy="78.8" rx="7.4" ry="8.1"/>
	<path class="st17" d="M144.1,74.3c0.5,0.7,0.9,1.5,1.1,2.4c0.2,0.8,0.3,1.6,0.2,2.4c0,0.8-0.2,1.6-0.4,2.4
		c-0.3,0.9-0.7,1.6-1.2,2.3c-0.5-0.7-0.9-1.5-1.1-2.4c-0.2-0.8-0.3-1.6-0.2-2.4c0-0.8,0.2-1.6,0.4-2.4
		C143.1,75.8,143.6,75,144.1,74.3z"/>
	<path class="st14" d="M123.9,71.1c0.1,2.5,2.6,3.6,4.9,3.8c2.3,0.2,4.5-0.6,6.8-0.9c4-0.5,8.1,0.3,11.6,2.5
		c1.8,1.3,3.6,2.4,5.5,3.5c1.9,0.9,4.3,1.2,6,0s2.3-5,0.6-6.4l-2.5-1.9c-4.2-3.3-9.3-5.4-14.6-5.8l0,0c-6.2-0.7-10.3,0-15.6,3.5
		L123.9,71.1z"/>
	<path class="st15" d="M123.9,71.1c0.5,1.7,2,3.1,3.8,3.4c1.6,0.4,3.4-0.1,5.1-0.6c1.9-0.7,3.9-1,5.9-1.1c2,0,4.1,0.3,6,0.9
		c1.9,0.7,3.7,1.6,5.4,2.8c1.4,1.1,2.9,1.9,4.5,2.6c1.5,0.6,3.2,0.3,4.4-0.7c1.3-1.3,1.4-3.3,0.4-4.8c0.8,0.6,1.4,1.5,1.4,2.6
		c0.3,2.3-1.2,4.5-3.5,5c-1.1,0.3-2.2,0.3-3.3,0.1c-2-0.5-3.8-1.4-5.5-2.5c-1.5-1-3.1-1.8-4.8-2.4c-1.6-0.6-3.4-0.9-5.1-0.9
		c-1.8,0-3.6,0.2-5.3,0.6c-2,0.5-4.1,0.5-6.1-0.2c-1-0.4-1.8-1.1-2.4-1.9c-0.3-0.4-0.5-0.9-0.7-1.3C123.9,72,123.9,71.5,123.9,71.1z
		"/>
	<path class="st18" d="M126.5,69.3c1.8-2.2,4.2-3.9,6.9-4.7c2.7-0.9,5.7-1.2,8.5-0.7c2.8,0.5,5.5,1.4,8,2.7c1.2,0.7,2.4,1.5,3.6,2.3
		s2.1,1.8,3.2,2.7c-1.3-0.6-2.4-1.3-3.6-2s-2.5-1.2-3.7-1.7c-0.6-0.2-1.3-0.5-1.9-0.7l-0.9-0.4l-1-0.3l-1.9-0.5l-2-0.3
		c-2.6-0.4-5.3-0.3-7.9,0.3C131.2,66.6,128.7,67.7,126.5,69.3z"/>
	<path class="st15" d="M165.9,99.2c-1.4-0.9-2.5-1.7-3.8-2.4c-0.6-0.4-1.2-0.7-1.9-1c-0.6-0.3-1.3-0.6-2.1-1c0.8-0.2,1.6-0.2,2.4,0
		c0.8,0.2,1.6,0.5,2.3,0.9c0.7,0.4,1.3,0.9,1.9,1.6C165.3,97.7,165.7,98.4,165.9,99.2z"/>
	<path class="st15" d="M170.4,99.6c0.5-0.7,1.1-1.4,1.8-1.9c0.7-0.5,1.5-0.9,2.3-1.2c0.8-0.3,1.7-0.5,2.6-0.5c0.9,0,1.8,0.1,2.6,0.4
		c-0.9,0.2-1.6,0.4-2.4,0.6s-1.5,0.5-2.3,0.7C173.5,98.3,172,98.9,170.4,99.6z"/>
	<path class="st13" d="M293.6,112.7l9.2-26.2l-8-26.6c-0.3,15.1-20.5,17.1-33.2,17c-5.6-0.1-10.2,3.7-10.3,8.5l0,0
		c-0.1,4.8,4.3,8.8,9.9,8.9C273.9,94.6,293.9,97.6,293.6,112.7z"/>
	
		<ellipse transform="matrix(1.999600e-02 -0.9998 0.9998 1.999600e-02 208.1442 384.6051)" class="st19" cx="300.3" cy="86.1" rx="29.6" ry="16.6"/>
	
		<ellipse transform="matrix(2.233833e-02 -0.9998 0.9998 2.233833e-02 208.805 386.3338)" class="st20" cx="301.9" cy="86.4" rx="20.6" ry="11.5"/>
	<path class="st15" d="M189,84.8c0,0,17.4-24,41.9,1.4C230.9,86.2,205.5,118,189,84.8z"/>
	<path class="st16" d="M190,84.8c0,0,15-22,37.6,1.4C227.6,86.2,207.5,112.2,190,84.8z"/>
	<circle class="st7" cx="206" cy="85.6" r="10.3"/>
	<path class="st17" d="M206.9,79.8c0.7,1,1.1,2.1,1.3,3.3c0.3,2.1,0,4.2-1,6c-0.5,1-1.3,2-2.2,2.7c-0.7-1-1.1-2.1-1.3-3.3
		c-0.2-1-0.2-2.1,0-3.1c0.2-1,0.5-2,1-2.9C205.2,81.5,206,80.5,206.9,79.8z"/>
	<path class="st14" d="M235.2,82.1c-0.8,3.1-4.5,3.7-7.6,3.3s-6-2.1-9-3.2c-5.2-1.9-11-2.1-16.3-0.5c-2.8,0.8-5.4,2.2-8.3,2.7
		s-6.1,0.2-8.1-1.9s-1.8-6.9,0.7-8.2l3.9-1.7c6.7-3.1,13.9-3.6,21.3-2.7l0,0c8.6,1,14,3.2,20.2,9.2L235.2,82.1z"/>
	<path class="st15" d="M235.2,82.1c-0.3,1.3-1,2.5-2.2,3.2c-1.1,0.8-2.5,1.3-3.8,1.4c-2.8,0.3-5.5-0.8-7.9-1.8
		c-1.2-0.5-2.4-1-3.5-1.4c-1.1-0.4-2.3-0.8-3.5-1c-2.4-0.5-4.9-0.7-7.3-0.5c-1.2,0.1-2.4,0.2-3.6,0.5c-1.2,0.3-2.4,0.6-3.6,1
		c-2.4,0.7-5,1.7-7.9,1.6c-1.4,0-2.8-0.3-4.1-0.9c-1.3-0.6-2.5-1.6-3.2-2.8c-0.7-1.3-0.9-2.7-0.5-4.1c0.2-0.7,0.4-1.3,0.9-1.8
		c0.4-0.5,1-0.9,1.6-1.2c-1,0.7-1.7,1.9-1.7,3.1c-0.1,1.2,0.3,2.3,0.9,3.3c0.7,0.9,1.6,1.5,2.7,1.8c1.1,0.3,2.3,0.5,3.4,0.4
		c2.4-0.3,4.8-0.9,7.1-1.9c2.5-1,5.1-1.6,7.8-1.8c2.7-0.2,5.4,0.1,8.1,0.7c2.6,0.7,5.1,1.7,7.4,3c1.1,0.6,2.2,1.1,3.4,1.6
		c1.1,0.5,2.3,0.7,3.5,0.8c1.2,0,2.4-0.2,3.5-0.7C233.7,84.1,234.7,83.2,235.2,82.1z"/>
	<path class="st18" d="M232,79.1c-2.6-2.7-5.6-4.9-9-6.4c-3.3-1.5-6.9-2.5-10.5-2.8l-2.7-0.2c-0.9,0-1.8,0.1-2.8,0.1
		c-1.8,0.1-3.7,0.2-5.5,0.5c-0.9,0.1-1.8,0.4-2.7,0.5l-2.8,0.5c-1.8,0.5-3.6,1-5.5,1.4c1.7-0.9,3.4-1.7,5.1-2.5
		c1.8-0.6,3.6-1.3,5.5-1.7c0.9-0.2,1.9-0.4,2.8-0.6c0.5-0.1,1-0.2,1.4-0.2l1.4-0.1c1-0.1,1.9-0.2,2.9-0.1l2.9,0.2
		c0.5,0,1,0.1,1.4,0.2l1.4,0.3c0.5,0.1,1,0.2,1.4,0.3l1.4,0.4l1.4,0.4c0.5,0.2,0.9,0.4,1.4,0.6l1.3,0.6c0.4,0.2,0.9,0.5,1.3,0.7
		C227.2,72.9,230.1,75.7,232,79.1z"/>
	<path class="st15" d="M152,103.6c2.5,1.5,5.2,2.6,8,3.4c2.8,0.8,5.6,1.3,8.5,1.6c2.9,0.2,5.7,0.2,8.6,0.1c2.9-0.1,5.8-0.3,8.6-0.8
		l0.1,0.2c-2.6,1.4-5.6,2.3-8.6,2.6c-3,0.2-6,0.1-8.9-0.5c-2.9-0.5-5.8-1.2-8.6-2.2c-2.8-1-5.4-2.4-7.8-4.1L152,103.6z"/>
</g>
</svg>
