<?xml version="1.0" encoding="utf-8"?>
<!-- Generator: Adobe Illustrator 25.2.0, SVG Export Plug-In . SVG Version: 6.00 Build 0)  -->
<svg version="1.1" id="Layer_1" xmlns="http://www.w3.org/2000/svg" xmlns:xlink="http://www.w3.org/1999/xlink" x="0px" y="0px"
	 viewBox="0 0 282.5 437.9" style="enable-background:new 0 0 282.5 437.9;" xml:space="preserve">
<style type="text/css">
	.st0{fill:#7333A3;}
	.st1{fill:#612B89;}
	.st2{fill:#7356A4;}
	.st3{fill:#8463BE;}
	.st4{fill:#2E047A;}
	.st5{fill:#FAAF3B;}
	.st6{fill:#FAC26C;}
	.st7{fill:#F1F1F1;}
	.st8{fill:#A87DF1;}
	.st9{fill:#90BD4A;}
	.st10{fill:#EE8031;}
	.st11{fill:#612B88;}
	.st12{fill:none;stroke:#853BBC;stroke-width:5.61;stroke-linecap:round;stroke-miterlimit:10;}
	.st13{fill:#7333A2;}
	.st14{fill:#3B224D;}
	.st15{fill:#FFFFFF;}
	.st16{fill:#261234;}
	.st17{fill:#8F5CB5;}
	.st18{fill:#7EA540;}
	.st19{fill:#FAAA2D;}
</style>
<g id="r-arm">
	<path class="st0" d="M194.7,154.4c0,0.1,0.4-0.2,0.7-0.3l0.9-0.5l2-1.1c1.3-0.8,2.6-1.6,4-2.5c2.6-1.7,5.2-3.6,7.7-5.6
		c5-3.9,9.7-8.2,14-12.9c4.3-4.6,8-9.6,11.1-15.1c1.5-2.7,2.9-5.5,4-8.4c1.1-2.9,2-5.9,2.7-8.9l0.1-0.6c1.1-4.7,5.8-7.6,10.5-6.5
		c4,0.9,6.8,4.5,6.8,8.5c0,4.1-0.3,8.2-0.9,12.2c-0.6,4.1-1.5,8.1-2.7,12c-2.4,7.8-5.6,15.2-9.6,22.3c-4,7-8.5,13.6-13.6,19.7
		c-2.5,3.1-5.2,6.1-7.9,9c-1.4,1.4-2.8,2.9-4.3,4.3c-0.7,0.7-1.5,1.4-2.3,2.1l-1.2,1.1c-0.5,0.4-0.8,0.7-1.5,1.2
		c-8.3,5.8-19.7,3.7-25.5-4.6s-3.7-19.7,4.6-25.5C194.5,154.5,194.6,154.4,194.7,154.4L194.7,154.4z"/>
</g>
<g id="l-arm">
	<path class="st0" d="M45.6,177.5c-4.4,1.1-8.4,3-12,5.8c-3.1,2.5-5.3,5.9-6.2,9.8c-0.9,4.8-0.4,9.8,1.4,14.3
		c2.1,5.4,5.3,10.2,9.5,14.2l0.2,0.2c3.4,3.4,3.5,9,0,12.4c-2.9,2.9-7.4,3.4-10.9,1.3c-7.2-4.4-13.4-10.3-18.3-17.2
		c-2.6-3.7-4.7-7.8-6.2-12c-1.6-4.5-2.6-9.3-2.8-14.1C0.1,187,0.8,181.9,2.2,177c1.5-5,3.7-9.7,6.7-13.9c2.9-4.1,6.3-7.8,10.1-11
		c3.6-3,7.5-5.7,11.6-8l0.9-0.5c8.9-5,20.2-1.9,25.2,7s1.9,20.2-7,25.2l0,0C48.5,176.5,47.1,177.1,45.6,177.5z"/>
</g>
<g id="l-leg">
	<path class="st0" d="M98.5,277.1c-10.5,19.7-16.6,41.4-17.8,63.6l-27.2,1.7c-4.4-27-2.7-54.7,4.7-81L98.5,277.1z"/>
	<path class="st1" d="M51.4,305.2c0.8,2.1,2.1,3.9,3.7,5.5c1.5,1.4,3.3,2.5,5.2,3.2c2,0.6,4.1,0.7,6.1,0.4c2.2-0.4,4.3-1.1,6.2-2.3
		c-1.3,2.1-3.3,3.7-5.6,4.5c-5,1.8-10.5,0-13.5-4.3C51.9,310.1,51.2,307.6,51.4,305.2z"/>
</g>
<g id="r-leg">
	<path class="st0" d="M194,261.4c7.5,26.3,9.1,54,4.7,81l-27.2-1.7c-1.2-22.3-7.3-44-17.8-63.6L194,261.4z"/>
	<path class="st1" d="M200.8,305.2c0.2,2.5-0.5,4.9-2,6.9c-3,4.3-8.6,6.1-13.5,4.3c-2.3-0.8-4.3-2.3-5.6-4.5c1.9,1.2,4,2,6.2,2.3
		c2,0.3,4.1,0.2,6.1-0.4c2-0.7,3.7-1.7,5.2-3.2C198.7,309.1,200,307.2,200.8,305.2z"/>
</g>
<g id="r-shoe">
	<path class="st2" d="M220.3,437.8l10.9-1.5c5-0.6,8.6-5.1,8-10.2c0-0.1,0-0.1,0-0.2l-0.9-5.8l-29.6,4.2l0.9,5.8
		C210.5,435.1,215.3,438.6,220.3,437.8z"/>
	<path class="st2" d="M185.9,437.1l-10.8-2c-5-0.8-8.4-5.5-7.5-10.5c0,0,0-0.1,0-0.1l1.1-5.8l29.4,5.4l-1.1,5.8
		C195.9,434.8,191,438.1,185.9,437.1z"/>
	<path class="st3" d="M152.6,398.6l0.3-10.2c0.1-4.8,4.7-8.6,10.1-8.6l6.4,0.1l-0.8,27.6l-6.4-0.1
		C156.8,407.4,152.5,403.5,152.6,398.6z"/>
	<path class="st3" d="M160.7,410.6c0.6,2.3,1.3,4.6,2.2,6.9c5.8,15.2,77.1,19.2,87.7,1.9c0.9-2,1.4-4.1,1.5-6.2
		c1.4-24.3-51.5-42.3-51.5-42.3l-36.7-0.8C158.4,383.5,157.3,397.4,160.7,410.6z"/>
	<path class="st4" d="M160.7,410.6c16.8,10.1,71.2,12.6,91.5,2.5c1.4-24.3-51.5-42.3-51.5-42.3l-36.7-0.8
		C158.4,383.5,157.3,397.4,160.7,410.6z"/>
	<path class="st5" d="M167.5,374.5c11.7,2,23.7,2,35.4,0c8.3-1.4,13.1-8.5,11-14.5l0,0c-2.1-6-8.7-9.1-14.9-8.1
		c-9.1,1.6-18.5,1.6-27.6,0c-6.2-1-12.7,2.1-14.8,8.1l0,0C154.4,366,159.2,373.1,167.5,374.5z"/>
	<path class="st6" d="M167.5,359.8c11.7,2,23.7,2,35.4,0c8.3-1.4,13.1-8.5,11-14.5l0,0c-2.1-6-8.7-9.1-14.9-8.1
		c-9.1,1.6-18.5,1.6-27.6,0c-6.2-1-12.7,2.1-14.8,8.1l0,0C154.4,351.2,159.2,358.4,167.5,359.8z"/>
</g>
<g id="body">
	<ellipse transform="matrix(0.866 -0.5 0.5 0.866 -106.4716 118.2352)" class="st3" cx="167.4" cy="257.8" rx="41.4" ry="25.8"/>
	<ellipse transform="matrix(0.5 -0.866 0.866 0.5 -180.8602 202.3456)" class="st3" cx="84.8" cy="257.8" rx="25.8" ry="41.4"/>
	<ellipse transform="matrix(0.229 -0.9734 0.9734 0.229 -127.4976 165.5782)" class="st3" cx="40.8" cy="163.3" rx="28" ry="16.1"/>
	<ellipse transform="matrix(0.9734 -0.229 0.229 0.9734 -31.7688 52.7641)" class="st3" cx="211.4" cy="163.2" rx="16.1" ry="28"/>
	<path class="st4" d="M205.1,135.8c-52.7,18.1-105.3,18.1-158,0c-3,6.5-5.7,13.1-7.9,19.9C20.3,213,64.4,271.6,126.1,271.6l0,0
		c61.7,0,105.8-58.6,86.9-115.9C210.8,148.9,208.1,142.3,205.1,135.8z"/>
	<path class="st7" d="M168.4,199.6c-27.8,6.6-56.8,6.6-84.6,0c-6.8-1.6-13.7,2-16.2,8.4v0.1c-12.7,32.9,17,66.5,58.6,66.5l0,0
		c41.6,0,71.3-33.6,58.6-66.5v-0.1C182.2,201.6,175.2,198,168.4,199.6z"/>
	<path class="st8" d="M186.9,158.7c-15.3,6.6-36.6,10.9-60.8,10.9c-57,0-97.9-23.3-81.8-46.4c0.2-0.3,0.4-0.5,0.6-0.8l0.1-0.1
		c3.8-5,10-7.6,16.2-6.8c43.1,5.7,86.8,5.7,129.9,0c6.2-0.8,12.4,1.8,16.2,6.8l0.1,0.1c0.2,0.3,0.4,0.5,0.6,0.8
		C217.1,136.4,207.6,149.7,186.9,158.7z"/>
	<circle class="st9" cx="142.8" cy="218.4" r="5.1"/>
	<circle class="st10" cx="157.2" cy="216.8" r="5.1"/>
	<circle class="st9" cx="171.6" cy="214.4" r="5.1"/>
</g>
<g id="l-shoe">
	<path class="st2" d="M31.9,437.8L21,436.3c-5-0.6-8.6-5.1-8-10.2c0-0.1,0-0.1,0-0.2l0.9-5.8l29.6,4.2l-0.9,5.8
		C41.7,435.2,36.9,438.6,31.9,437.8z"/>
	<path class="st2" d="M66.3,437.1l10.8-2c5-0.8,8.4-5.5,7.5-10.5c0,0,0-0.1,0-0.1l-1.1-5.8L54.1,424l1.1,5.8
		C56.3,434.8,61.2,438.1,66.3,437.1z"/>
	<path class="st3" d="M99.6,398.6l-0.3-10.2c-0.1-4.8-4.7-8.6-10.1-8.6l-6.4,0.1l0.8,27.6l6.4-0.1C95.4,407.4,99.7,403.5,99.6,398.6
		z"/>
	<path class="st3" d="M91.5,410.6c-0.6,2.3-1.3,4.6-2.2,6.9c-5.8,15.2-77.2,19.2-87.7,1.9c-0.9-2-1.4-4.1-1.6-6.2
		c-1.4-24.3,51.5-42.3,51.5-42.3l36.7-0.8C93.8,383.5,94.8,397.4,91.5,410.6z"/>
	<path class="st4" d="M91.5,410.6c-16.8,10.1-71.2,12.6-91.5,2.5c-1.4-24.3,51.5-42.3,51.5-42.3l36.7-0.8
		C93.8,383.5,94.8,397.4,91.5,410.6z"/>
	<path class="st5" d="M84.7,374.5c-11.7,2-23.7,2-35.4,0c-8.3-1.4-13.1-8.5-11-14.5l0,0c2.1-6,8.7-9.1,14.8-8.1
		c9.1,1.6,18.5,1.6,27.6,0c6.2-1,12.7,2.1,14.8,8.1l0,0C97.8,366,93,373.1,84.7,374.5z"/>
	<path class="st6" d="M84.7,359.8c-11.7,2-23.7,2-35.4,0c-8.3-1.4-13.1-8.5-11-14.5l0,0c2.1-6,8.7-9.1,14.8-8.1
		c9.1,1.6,18.5,1.6,27.6,0c6.2-1,12.7,2.1,14.8,8.1l0,0C97.8,351.2,93,358.4,84.7,359.8z"/>
</g>
<g id="head">
	<path class="st11" d="M10.7,53.7L3.3,80.1l7.4,26.4c0-22,36.7-17.3,36.7-17.3V71C47.4,71,10.7,75.7,10.7,53.7z"/>
	<path class="st12" d="M8.2,52.4L8.2,52.4c-5.1,18.1-5.1,37.3,0,55.3l0,0"/>
	<path class="st11" d="M241.3,53.7l7.4,26.4l-7.4,26.4c0-22-36.7-17.3-36.7-17.3V71C204.6,71,241.3,75.7,241.3,53.7z"/>
	<path class="st12" d="M243.8,52.4L243.8,52.4c5.1,18.1,5.1,37.3,0,55.3l0,0"/>
	<path class="st13" d="M214.2,76c0,6.1-6.5,11.3-8.1,17s1.3,13.6-1.8,18.7s-11.2,6.4-15.5,10.7s-5.1,12.5-10.2,15.8
		c-4.9,3.2-12.9,0.9-18.6,3.1c-5.5,2.2-9.6,9.4-15.7,10.5c-5.8,1.1-12.3-4.1-18.4-4.1s-12.6,5.2-18.4,4.1c-6-1.1-10.2-8.3-15.7-10.5
		c-5.7-2.2-13.7,0.1-18.6-3.1c-5.1-3.3-6.1-11.6-10.2-15.8s-12.5-5.6-15.5-10.8S47.5,98.8,45.9,93s-8.1-10.9-8.1-17s6.5-11.3,8.1-17
		s-1.3-13.5,1.8-18.7s11.2-6.4,15.5-10.7s5.1-12.5,10.2-15.8c4.9-3.2,12.9-0.9,18.6-3.2c5.5-2.2,9.7-9.4,15.7-10.5
		c5.8-1.1,12.3,4.1,18.4,4.1s12.6-5.2,18.4-4.1c6,1.1,10.2,8.3,15.7,10.5c5.7,2.2,13.6-0.1,18.6,3.1c5.1,3.3,6.1,11.6,10.2,15.8
		s12.4,5.6,15.5,10.8s0.2,12.9,1.8,18.7S214.2,69.9,214.2,76z"/>
	<path class="st1" d="M87.7,33.7c-1.1-0.8-2.6-1-3.8-0.3c-1.2,0.6-2.3,1.5-3,2.6c-0.8,1.1-1.5,2.4-2.3,3.7c-0.5,0.7-1,1.3-1.6,1.8
		c-0.6,0.6-1.3,1-2,1.4c-2.9,1.4-5.7,2-7.3,3.5c-1.9,1.8-2.8,4.5-2.4,7.1L65,53.6c-1-1.3-1.4-2.9-1.3-4.5c0.1-1.7,0.8-3.3,1.9-4.6
		c0.6-0.7,1.2-1.2,2-1.6c0.7-0.4,1.5-0.7,2.3-0.9c1.4-0.3,2.8-0.7,4.1-1.1c2.4-0.8,3.8-3.4,5.8-5.7c1-1.2,2.3-2.1,3.8-2.6
		c0.7-0.2,1.5-0.3,2.3-0.2c0.8,0.1,1.5,0.5,2,1.1L87.7,33.7z"/>
	<path class="st1" d="M164.1,33.5c0.5-0.6,1.2-1,2-1.1c0.8-0.1,1.6-0.1,2.3,0.2c1.5,0.5,2.8,1.3,3.8,2.6c2,2.3,3.3,4.9,5.8,5.7
		c1.3,0.4,2.7,0.8,4.1,1.1c0.8,0.2,1.5,0.5,2.2,0.9c0.8,0.4,1.4,1,2,1.6c1.1,1.3,1.8,2.9,1.9,4.6c0.2,1.6-0.3,3.2-1.3,4.5l-0.2-0.1
		c0.4-2.6-0.5-5.2-2.4-7.1c-1.6-1.5-4.4-2.1-7.3-3.5c-0.7-0.4-1.4-0.8-2-1.4c-0.6-0.5-1.1-1.1-1.6-1.8c-0.9-1.3-1.5-2.5-2.3-3.7
		c-0.7-1.1-1.8-2-3-2.6c-1.2-0.6-2.7-0.5-3.8,0.3L164.1,33.5z"/>
	<path class="st1" d="M81.5,122.3c-0.4,0.4-0.9,0.7-1.5,0.8c-0.6,0.1-1.2,0-1.7-0.1c-1.1-0.3-2.1-1-2.8-1.9
		c-1.4-1.7-2.4-3.6-4.2-4.2c-1-0.3-2-0.6-3-0.8c-0.6-0.2-1.1-0.4-1.7-0.7c-0.6-0.3-1.1-0.7-1.5-1.2c-1.7-1.9-1.9-4.6-0.5-6.7
		l0.2,0.1c-0.3,1.9,0.4,3.8,1.8,5.2c1.2,1.1,3.2,1.6,5.3,2.6c1.1,0.5,2,1.3,2.6,2.3c0.6,0.9,1.1,1.9,1.7,2.7
		c0.5,0.8,1.3,1.5,2.2,1.9c0.9,0.5,2,0.4,2.8-0.2L81.5,122.3z"/>
	<path class="st1" d="M171.6,121.4c0.8,0.6,1.8,0.7,2.6,0.2c0.9-0.4,1.6-1,2.1-1.8c0.6-0.8,1-1.7,1.6-2.5c0.6-0.9,1.5-1.7,2.5-2.2
		c2-1,3.9-1.3,5-2.4c1.3-1.3,1.9-3.1,1.7-4.9l0.2-0.1c1.3,1.9,1.1,4.5-0.4,6.3c-0.8,0.9-1.8,1.5-3,1.7c-1,0.2-1.9,0.5-2.8,0.8
		c-1.7,0.6-2.6,2.3-4,3.9c-0.7,0.8-1.6,1.5-2.6,1.8c-0.5,0.2-1.1,0.2-1.6,0.1c-0.5-0.1-1-0.4-1.4-0.8L171.6,121.4z"/>
	<path class="st1" d="M110.5,23.4c-0.1-1.7,0.5-3.4,1.7-4.6c0.7-0.6,1.5-1.1,2.4-1.3c0.9-0.2,1.8-0.3,2.7-0.1c1.7,0.2,3.3,0.7,4.7,1
		c1.3,0.3,2.7,0.3,4,0c1.4-0.3,2.8-1,4.3-1.5c0.8-0.3,1.6-0.5,2.5-0.6c0.9-0.2,1.8-0.2,2.7,0c1.8,0.3,3.4,1.1,4.6,2.4
		c1.1,1.2,2,2.7,2.4,4.3c-0.9-1.3-2-2.3-3.3-3.2c-1.2-0.8-2.6-1.2-4-1.3c-0.7,0-1.3,0.1-2,0.2c-0.7,0.2-1.4,0.4-2.1,0.7
		c-1.5,0.7-3,1.3-4.6,1.7c-1.8,0.5-3.6,0.4-5.3-0.1c-1.6-0.5-3.1-1-4.4-1.4c-0.7-0.2-1.3-0.3-2-0.2c-0.7,0-1.3,0.3-1.9,0.6
		C111.8,20.8,110.9,22,110.5,23.4z"/>
	<path class="st1" d="M116.3,136.7c0.3,0.9,1,1.6,1.8,2.1c0.8,0.3,1.7,0.3,2.5,0c0.9-0.3,1.7-0.8,2.7-1.1c1.1-0.4,2.2-0.5,3.4-0.4
		c2.2,0.4,3.9,1.5,5.6,1.3c1.9-0.3,3.5-1.5,4.4-3.2c-0.2,1-0.6,2-1.3,2.8c-0.7,0.9-1.7,1.5-2.8,1.8c-0.6,0.1-1.1,0.2-1.7,0.1
		c-0.5,0-1.1-0.1-1.6-0.3c-1-0.3-1.9-0.6-2.8-0.7c-0.9-0.2-1.7-0.1-2.6,0.2c-1,0.3-1.9,0.6-2.9,0.9c-0.6,0.1-1.1,0.1-1.7,0.1
		c-0.6-0.1-1.1-0.4-1.6-0.7C116.8,138.8,116.3,137.7,116.3,136.7z"/>
	<path class="st14" d="M123.8,106.2c-1.5-0.7-2.8-1.3-4.1-1.9c-0.7-0.3-1.3-0.6-2-0.8s-1.4-0.5-2.2-0.8c0.8-0.3,1.6-0.4,2.4-0.3
		c0.8,0.1,1.6,0.3,2.4,0.6c0.7,0.3,1.4,0.8,2,1.3C122.9,104.8,123.4,105.4,123.8,106.2z"/>
	<path class="st14" d="M128.2,106.2c0.4-0.7,0.9-1.4,1.5-1.9c0.6-0.5,1.3-1,2-1.3c0.7-0.3,1.5-0.5,2.4-0.6c0.8-0.1,1.6,0,2.4,0.3
		c-0.8,0.3-1.5,0.5-2.2,0.8s-1.4,0.5-2,0.8C131,104.8,129.7,105.5,128.2,106.2z"/>
	<path class="st14" d="M109.4,112.3c2.6,1.1,5.4,1.9,8.2,2.2c2.8,0.4,5.6,0.6,8.4,0.5c2.8-0.2,5.6-0.5,8.3-1c2.8-0.4,5.5-1,8.2-1.8
		l0.1,0.2c-2.4,1.7-5.1,3-7.9,3.6c-2.9,0.6-5.8,0.8-8.7,0.7c-2.9-0.1-5.8-0.5-8.6-1.1c-2.8-0.6-5.5-1.6-8.1-3L109.4,112.3z"/>
	<path class="st14" d="M110.3,85c0,0-14.3-23.5-38.9-1.8C71.4,83.2,92.5,114.6,110.3,85z"/>
	<path class="st15" d="M109.3,85c0,0-12.3-21.5-34.9-1.6C74.4,83.4,91.1,109,109.3,85z"/>
	<circle class="st9" cx="94.4" cy="84.5" r="9.6"/>
	<path class="st16" d="M94.1,79.1c0.9,0.7,1.5,1.6,2,2.7c0.8,1.8,1,3.8,0.5,5.6c-0.3,1.1-0.8,2.1-1.5,2.9c-0.9-0.7-1.5-1.6-2-2.7
		c-0.4-0.9-0.7-1.8-0.7-2.8c-0.1-1,0-1.9,0.2-2.9C92.8,80.9,93.3,79.9,94.1,79.1z"/>
	<path class="st13" d="M67.7,79.1c0.5,2.9,3.9,3.7,6.8,3.6s5.7-1.5,8.6-2.3c5-1.4,10.3-1.1,15.1,0.7c2.5,1,4.9,2.4,7.5,3.1
		s5.6,0.6,7.7-1.1s2.2-6.3,0-7.7l-3.5-1.8c-6-3.4-12.6-4.4-19.5-4.1l0,0c-8.1,0.3-13.2,1.9-19.4,7L67.7,79.1z"/>
	<path class="st14" d="M67.7,79.1c0.4,1.1,1.2,2,2.2,2.6c1,0.5,2.1,0.8,3.2,0.9c1.1,0,2.2-0.1,3.2-0.5c1.1-0.3,2.2-0.7,3.2-1.2
		c2.2-1.1,4.6-1.9,7.1-2.3c2.5-0.4,5-0.4,7.5-0.1c2.5,0.4,4.9,1.2,7.2,2.2c2,1.1,4.1,1.9,6.4,2.3c1.1,0.2,2.1,0.1,3.2-0.1
		c1-0.2,1.9-0.7,2.6-1.5c0.7-0.8,1.1-1.9,1.1-2.9c0.1-1.2-0.4-2.3-1.3-3c0.6,0.3,1.1,0.7,1.4,1.2c0.3,0.5,0.6,1.1,0.7,1.8
		c0.2,1.3-0.1,2.7-0.8,3.8c-0.8,1.1-1.9,2-3.2,2.4c-1.3,0.4-2.6,0.6-3.9,0.5c-2.7-0.1-5-1.2-7.2-2c-1.1-0.4-2.2-0.9-3.2-1.2
		c-1.1-0.3-2.2-0.6-3.3-0.7c-2.2-0.4-4.5-0.4-6.8-0.2c-2.3,0.3-4.5,0.9-6.7,1.7c-2.3,0.8-4.8,1.5-7.4,1c-1.3-0.3-2.4-0.8-3.4-1.6
		C68.5,81.4,67.9,80.3,67.7,79.1z"/>
	<path class="st17" d="M70.9,76.5c2-3,4.8-5.4,8.1-6.9c0.4-0.2,0.8-0.4,1.2-0.6l1.3-0.4c0.4-0.2,0.9-0.3,1.3-0.4l1.3-0.3l1.3-0.3
		c0.4-0.1,0.9-0.1,1.4-0.2c0.9-0.1,1.8-0.2,2.7-0.2c3.6,0,7.2,0.6,10.7,1.7c1.7,0.6,3.3,1.3,5,2c1.6,0.9,3.1,1.8,4.6,2.7
		c-1.7-0.5-3.4-1.1-5-1.7l-2.5-0.7c-0.8-0.2-1.7-0.5-2.5-0.7c-1.7-0.4-3.4-0.7-5.1-0.8c-0.8-0.1-1.7-0.2-2.5-0.3h-2.5
		c-3.4,0.1-6.7,0.7-9.9,1.8C76.5,72.4,73.5,74.2,70.9,76.5z"/>
	<path class="st14" d="M141.2,85c0,0,14.4-23.5,38.9-1.8C180.1,83.2,159,114.6,141.2,85z"/>
	<path class="st15" d="M142.2,85c0,0,12.2-21.5,34.9-1.5C177.1,83.4,160.4,109,142.2,85z"/>
	<circle class="st9" cx="157.1" cy="84.5" r="9.6"/>
	<path class="st16" d="M157.5,79.1c0.8,0.9,1.3,1.9,1.6,3c0.3,0.9,0.3,1.9,0.3,2.8c-0.1,1-0.3,1.9-0.7,2.8c-0.5,1-1.2,1.9-2.1,2.7
		c-0.8-0.8-1.3-1.9-1.6-2.9c-0.3-0.9-0.4-1.9-0.3-2.8c0.1-1,0.3-1.9,0.7-2.8C155.9,80.8,156.6,79.8,157.5,79.1z"/>
	<path class="st13" d="M183.8,79.1c-0.5,2.9-3.8,3.7-6.8,3.6s-5.7-1.5-8.6-2.3c-5-1.4-10.3-1.1-15.1,0.7c-2.5,1-4.9,2.4-7.4,3.1
		s-5.6,0.6-7.7-1.1s-2.2-6.3,0.1-7.7l3.5-1.8c6-3.4,12.6-4.4,19.5-4.1l0,0c8.1,0.3,13.2,1.9,19.4,7L183.8,79.1z"/>
	<path class="st14" d="M183.8,79.1c-0.2,1.3-0.8,2.4-1.8,3.2c-1,0.8-2.2,1.4-3.4,1.6c-2.6,0.5-5.2-0.3-7.4-1
		c-2.2-0.8-4.4-1.4-6.7-1.7c-2.2-0.3-4.5-0.3-6.7,0.1c-1.1,0.2-2.2,0.4-3.3,0.7c-1.1,0.3-2.1,0.8-3.2,1.2c-2.2,0.8-4.5,1.9-7.2,2
		c-1.3,0.1-2.7-0.1-3.9-0.5c-1.3-0.4-2.4-1.3-3.2-2.4c-0.7-1.1-1-2.5-0.8-3.8c0.1-0.6,0.3-1.2,0.7-1.8c0.4-0.5,0.8-0.9,1.4-1.2
		c-0.9,0.7-1.4,1.8-1.3,3c0,1.1,0.4,2.1,1.2,3c0.7,0.8,1.6,1.3,2.6,1.5c1,0.2,2.1,0.3,3.2,0.1c2.2-0.5,4.4-1.2,6.4-2.3
		c2.3-1.1,4.7-1.8,7.1-2.2c2.5-0.4,5-0.3,7.5,0.1c2.4,0.5,4.8,1.2,7,2.3c1.1,0.5,2.2,0.9,3.3,1.2c1,0.4,2.1,0.5,3.2,0.5
		c1.1,0,2.2-0.4,3.2-0.9C182.6,81,183.4,80.1,183.8,79.1z"/>
	<path class="st17" d="M180.6,76.5c-2.6-2.3-5.6-4.1-8.9-5.2c-3.2-1.1-6.5-1.8-9.9-1.8h-2.5c-0.9,0-1.7,0.2-2.5,0.3
		c-1.7,0.2-3.4,0.5-5.1,0.8c-0.9,0.1-1.7,0.5-2.5,0.7l-2.5,0.7c-1.6,0.6-3.3,1.2-5,1.7c1.5-1,3-1.8,4.6-2.7c1.6-0.7,3.2-1.5,5-2
		c3.4-1.1,7-1.7,10.7-1.7c0.9,0,1.8,0.1,2.7,0.2c0.4,0.1,0.9,0.1,1.4,0.2l1.3,0.3l1.3,0.3c0.4,0.1,0.9,0.3,1.3,0.4l1.3,0.4
		c0.4,0.2,0.8,0.4,1.2,0.6C175.8,71.1,178.6,73.5,180.6,76.5z"/>
</g>
<g id="l-hand">
	<path class="st9" d="M57.5,249.6c5.2,2,6.7,3.8,9,7.1c0.4,0.6,1,0.9,1.7,1c1.8,0.3,3.6-1.6,4.2-3.2c0.9-2.8,0.7-5.9-0.6-8.5
		c-3.4-7.7-13.2-17.4-23.7-18.7L57.5,249.6z"/>
	<path class="st9" d="M60.9,249.9L48,227.3l-26.5,9.9c-2.6,7.4,2.1,27.6,14.4,33.5L60.9,249.9z"/>
	<path class="st9" d="M60.3,252c0.5,6.1,3,11.9,6.9,16.5l0.1,0.1c1.5,1.8,1,4.4-1.1,6c-1.8,1.3-4.2,1.4-6,0.1
		c-6.3-5-10.9-11.8-13.1-19.5V255c-0.9-3.2,1.3-6.6,4.9-7.7s7.3,0.6,8.2,3.7C60.2,251.3,60.2,251.7,60.3,252z"/>
	<path class="st9" d="M51,253c0.4,6.1,2.9,11.9,7,16.5l0.1,0.1c1.6,1.7,1,4.4-1.3,6c-1.9,1.4-4.5,1.5-6.5,0.3
		c-3.3-2.4-6.1-5.3-8.4-8.6c-2.3-3.3-4-6.9-5.1-10.7v-0.1c-0.9-3.2,1.5-6.7,5.4-7.9s7.8,0.4,8.7,3.5C50.9,252.3,51,252.6,51,253z"/>
	<path class="st9" d="M43.5,253.1c0.4,6.1,2.9,11.9,7,16.5l0.1,0.1c1.6,1.7,1,4.4-1.3,6c-1.9,1.4-4.5,1.5-6.5,0.2
		c-3.3-2.4-6.1-5.3-8.4-8.6c-2.3-3.3-4-6.9-5.1-10.7v-0.2c-0.9-3.2,1.5-6.7,5.4-7.9s7.8,0.4,8.7,3.5
		C43.5,252.4,43.5,252.8,43.5,253.1z"/>
	<path class="st18" d="M60.7,274.4c-1.8-0.9-3.5-2.1-5-3.5c-1.5-1.4-2.9-2.9-4.1-4.6c-2.4-3.3-4-7.2-4.5-11.3
		c0.9,1.9,1.7,3.6,2.7,5.4c1,1.7,2,3.4,3.1,5c1.1,1.6,2.4,3.2,3.7,4.7C57.8,271.5,59.2,273,60.7,274.4z"/>
	<path class="st18" d="M49.9,275.6c-1.8-0.9-3.5-2.1-5-3.5c-1.5-1.4-2.9-2.9-4.1-4.6c-2.4-3.3-4-7.2-4.5-11.3
		c0.9,1.9,1.7,3.6,2.7,5.4c1,1.7,2,3.4,3.1,5c1.1,1.6,2.4,3.2,3.7,4.7C47,272.8,48.4,274.2,49.9,275.6z"/>
	<path class="st18" d="M42,275.3c-1.7-0.9-3.2-1.9-4.6-3.1c-1.4-1.2-2.7-2.6-3.8-4.1c-1.2-1.5-2.1-3.1-2.9-4.8
		c-0.7-1.7-1.2-3.6-1.3-5.4c0.9,1.7,1.6,3.3,2.5,4.8s2,3,3,4.4s2.2,2.9,3.4,4.2S40.7,274,42,275.3z"/>
	<path class="st19" d="M47,232.2c-5.8,5.4-12.5,9.7-19.9,12.5c-5.2,2-10.8-0.8-12-5.4l0,0c-1.2-4.3,1-8.7,5.1-10.4
		c5.8-2.2,11-5.5,15.5-9.8c3.3-3,8.3-3,11.6-0.1l0,0C50.9,222.1,51,228.3,47,232.2z"/>
</g>
<g id="r-hand">
	<path class="st19" d="M263.3,90.5c-7,0.2-14.1-1-20.6-3.7c-4.4-1.8-9.8,0.3-12.4,5.5c-2.6,5.6-0.1,12.3,5.6,14.8
		c0.1,0,0.1,0.1,0.2,0.1c7.8,5.1,17.3,6.8,26.4,4.7c6.2-0.3,10.9-5.6,10.6-11.7c0-0.1,0-0.2,0-0.3C272.4,94.2,268,90.4,263.3,90.5z"
		/>
	<path class="st9" d="M280.5,71.7l-3,12.6c-2.6,10.8-14.5,17.1-26.7,14.2l0,0c-3.2-0.6-6.3-1.8-9.1-3.5c-6.9-4.7-10.2-13.1-8.3-21.2
		l3-12.6L280.5,71.7z"/>
	<path class="st18" d="M236,63l2.1-9c0.7-3,3.7-4.8,6.7-4.1l0.2,0c3,0.7,4.8,3.7,4.1,6.7l-2.1,9c-0.7,3-3.7,4.8-6.7,4.1l-0.2,0
		C237.1,69,235.2,66,236,63z"/>
	<path class="st18" d="M235.8,63.5l2.1-9c0.7-3,3.7-4.8,6.7-4.1l0.2,0c3,0.7,4.8,3.7,4.1,6.7l-2.1,9c-0.7,3-3.7,4.8-6.7,4.1l-0.2,0
		C237,69.5,235.1,66.5,235.8,63.5z"/>
	<path class="st9" d="M236.2,62.1l2.1-9c0.7-3,3.7-4.8,6.7-4.1l0.2,0c3,0.7,4.8,3.7,4.1,6.7l-2.1,9c-0.7,3-3.7,4.8-6.7,4.1l-0.2,0
		C237.3,68,235.5,65,236.2,62.1z"/>
	<path class="st9" d="M247.2,64.7l2.1-9c0.7-3,3.7-4.8,6.7-4.1l0.2,0c3,0.7,4.8,3.7,4.1,6.7l-2.1,9c-0.7,3-3.7,4.8-6.7,4.1l-0.2,0
		C248.4,70.7,246.5,67.7,247.2,64.7z"/>
	<path class="st9" d="M258.3,67.3l2.1-9c0.7-3,3.7-4.8,6.7-4.1l0.2,0c3,0.7,4.8,3.7,4.1,6.7l-2.1,9c-0.7,3-3.7,4.8-6.7,4.1l-0.2,0
		C259.4,73.3,257.6,70.3,258.3,67.3z"/>
	<path class="st9" d="M269.3,70l2.1-9c0.7-3,3.7-4.8,6.7-4.1l0.2,0c3,0.7,4.8,3.7,4.1,6.7l-2.1,9c-0.7,3-3.7,4.8-6.7,4.1l-0.2,0
		C270.5,75.9,268.6,73,269.3,70z"/>
	<path class="st18" d="M249.2,55.7c-0.3,2.2-0.7,4.4-1.2,6.6c-0.1,0.5-0.2,1.1-0.3,1.6l-0.2,0.8c-0.1,0.3-0.2,0.6-0.3,0.9
		c-0.4,1.1-1.2,2.1-2.3,2.8c-1,0.7-2.2,1-3.4,1c-0.6,0-1.2-0.2-1.8-0.3c-0.6-0.2-1.1-0.4-1.6-0.8c-1-0.7-1.7-1.7-2.1-2.8
		c-0.4-1.1-0.4-2.3,0-3.4c-0.3,2.2,0.6,4.4,2.5,5.5c0.9,0.5,1.9,0.8,2.9,0.8c1,0,2-0.3,2.9-0.9c0.9-0.6,1.5-1.4,1.9-2.3
		c0.2-0.5,0.3-1,0.5-1.5c0.1-0.5,0.3-1.1,0.4-1.6C247.9,60,248.5,57.8,249.2,55.7z"/>
	<path class="st18" d="M260.3,58.3c-0.5,3-1.1,5.9-1.7,8.8c-0.3,1.6-1.2,3-2.6,3.9c-2.9,1.8-6.6,1-8.5-1.9c0,0,0-0.1-0.1-0.1
		c-0.8-1.4-1-3.1-0.6-4.7l1.2-4.4c0.4-1.4,0.8-2.9,1.3-4.3c-0.2,1.5-0.5,3-0.8,4.4l-0.9,4.4c-0.3,1.4-0.1,2.8,0.6,4
		c1.5,2.4,4.7,3.2,7.2,1.7c1.2-0.7,2-1.9,2.4-3.3C258.6,64.1,259.4,61.2,260.3,58.3z"/>
	<path class="st18" d="M271.4,61c-0.5,3-1.1,5.9-1.7,8.8c-0.6,3.2-3.6,5.4-6.8,4.8c-0.2,0-0.3-0.1-0.5-0.1c-1.6-0.4-3-1.4-3.8-2.8
		c-0.8-1.4-1-3.2-0.5-4.7l1.2-4.3c0.4-1.4,0.8-2.9,1.3-4.3c-0.2,1.5-0.5,3-0.8,4.4l-0.9,4.4c-0.3,1.4-0.1,2.8,0.6,4
		c1.5,2.4,4.7,3.2,7.2,1.7c1.2-0.7,2-1.9,2.4-3.3C269.7,66.7,270.5,63.8,271.4,61z"/>
	<path class="st18" d="M280.2,72.6c-0.2,1.1-0.7,2.2-1.5,3c-0.9,0.8-1.9,1.4-3.1,1.6c-0.6,0.1-1.2,0.1-1.8,0
		c-0.6-0.1-1.2-0.3-1.7-0.5c-1.1-0.5-2-1.4-2.6-2.4c-0.6-1.1-0.9-2.3-0.7-3.5c0-0.3,0.1-0.6,0.2-0.9l0.2-0.8
		c0.1-0.5,0.3-1.1,0.5-1.6l0.9-3.2c0.3-1.1,0.6-2.1,1-3.2c-0.1,1.1-0.4,2.2-0.5,3.3l-0.6,3.3c-0.1,0.6-0.2,1.1-0.3,1.6
		c-0.1,0.5-0.2,1-0.3,1.6c-0.1,1,0.1,2,0.7,2.9c0.5,0.9,1.3,1.6,2.2,2.1c0.9,0.5,2,0.7,3,0.6C277.7,76.2,279.6,74.7,280.2,72.6z"/>
	<path class="st9" d="M232.3,62c-1.3,0.1-2.5,0.7-3.4,1.6c-2,2.2-2.2,5-2.3,7.6c-0.3,12.5,6,19,15.1,23.7l3.1-16.3
		c-2.4-2.3-4.5-4.8-6.3-7.6c3,0.4,6.1,0.2,9-0.6c0.9-0.3,1.7-0.7,2.4-1.3c0.7-0.6,1.1-1.5,1-2.5c-0.2-1.6-2.1-2.6-3.7-3.1
		C247.3,63.6,239.2,60.6,232.3,62z"/>
	<path class="st18" d="M262.8,85.8c-0.7-2.4-2-4.7-3.8-6.4c-1.7-1.8-3.8-3.1-6.2-4c-1.2-0.5-2.3-0.8-3.6-1.1
		c-1.2-0.3-2.4-0.5-3.7-0.6c-2.5-0.2-5-0.3-7.5-0.1V72c1.4,0,2.8-0.2,4.1-0.6c1.4-0.4,2.8-1,4.2-1.4c0.7-0.2,1.3-0.4,2-0.7
		c0.6-0.2,1.1-0.6,1.5-1.1c0.3-0.4,0.5-1,0.4-1.6c-0.2-0.6-0.6-1.1-1.1-1.4c-1.2-0.7-2.5-1.3-3.9-1.7c-1.4-0.4-2.8-0.8-4.3-1.1
		c-2.9-0.6-5.9-0.8-8.8-0.4c2.9-0.7,6-0.8,8.9-0.3c1.5,0.2,3,0.5,4.4,0.9c0.7,0.2,1.5,0.4,2.2,0.6c0.8,0.2,1.5,0.6,2.2,1
		c0.8,0.5,1.3,1.2,1.6,2.1c0.2,0.9,0,1.9-0.5,2.7c-1,1.5-2.9,2-4.2,2.4s-2.8,1-4.2,1.5c-1.5,0.5-3.1,0.8-4.7,0.7
		c-0.4,0-0.7-0.4-0.7-0.8c0,0,0,0,0,0c0-0.4,0.3-0.7,0.7-0.7c2.6-0.2,5.2-0.1,7.7,0.2c2.6,0.3,5.1,1,7.5,2.1
		c2.4,1.1,4.5,2.6,6.2,4.6C261.2,80.8,262.4,83.2,262.8,85.8z"/>
</g>
</svg>
