<?xml version="1.0" encoding="utf-8"?>
<!-- Generator: Adobe Illustrator 26.0.0, SVG Export Plug-In . SVG Version: 6.00 Build 0)  -->
<svg version="1.1" id="Layer_1" xmlns="http://www.w3.org/2000/svg" xmlns:xlink="http://www.w3.org/1999/xlink" x="0px" y="0px"
	 viewBox="0 0 700 1014.2" style="enable-background:new 0 0 700 1014.2;" xml:space="preserve">
<style type="text/css">
	.st0{fill:#7333A3;}
	.st1{fill:#612B89;}
	.st2{fill:#7356A4;}
	.st3{fill:#8463BE;}
	.st4{fill:#2E047A;}
	.st5{fill:#FAAF3B;}
	.st6{fill:#FAC26C;}
	.st7{fill:#90BD4A;}
	.st8{fill:#7EA540;}
	.st9{fill:#FAAA2D;}
	.st10{fill:#F1F1F1;}
	.st11{fill:#A87DF1;}
	.st12{fill:#EE8031;}
	.st13{fill:#612B88;}
	.st14{fill:none;stroke:#853BBC;stroke-width:1.5923;stroke-linecap:round;stroke-miterlimit:10;}
	.st15{fill:#7333A2;}
	.st16{fill:#3B224D;}
	.st17{fill:#FFFFFF;}
	.st18{fill:#261234;}
	.st19{fill:#8F5CB5;}
</style>
<g>
	<g transform="translate(-12 -1016)">
		<g>
			<g>
				<g>
					<g>
						<g>
							<g>
								<path class="st0" d="M298.4,1657.8c-24.2,45.4-38.2,95.9-41,147.3l-62.6,3.9c-10.1-62.5-6.2-126.7,10.8-187.6L298.4,1657.8z
									"/>
								<path class="st1" d="M190,1722.9c1.8,4.9,4.8,9,8.5,12.7c6.9,6.9,16.6,10,26,8.3c5.1-0.7,9.9-2.5,14.3-5.3
									c-3,4.9-7.6,8.6-12.9,10.4c-11.5,4.2-24.2,0-31.1-10C191.2,1734.2,189.5,1728.4,190,1722.9z"/>
								<path class="st0" d="M518.3,1621.4c17.3,60.9,20.9,125,10.8,187.6l-62.6-3.9c-2.8-51.6-16.8-101.9-41-147.3L518.3,1621.4z"
									/>
								<path class="st1" d="M533.9,1722.9c0.5,5.8-1.2,11.3-4.6,16c-6.9,10-19.8,14.1-31.1,10c-5.3-1.9-9.9-5.3-12.9-10.4
									c4.4,2.8,9.2,4.6,14.3,5.3c9.4,1.6,19.3-1.4,26-8.3C529.1,1731.9,532.1,1727.5,533.9,1722.9z"/>
								<path class="st2" d="M578.8,2029.9l25.1-3.5c11.5-1.4,19.8-12,18.4-23.6v-0.2l-2.1-13.4l-68.1,9.7l2.1,13.4
									C556.3,2023.7,567.3,2031.8,578.8,2029.9z"/>
								<path class="st2" d="M499.6,2028.3l-24.9-4.6c-11.5-1.9-19.3-13-17.3-24.5v-0.2l2.5-13.4l67.7,12.5l-2.5,13.4
									C522.6,2023.2,511.4,2030.6,499.6,2028.3z"/>
								<path class="st3" d="M423,1939.2l0.7-23.6c0.2-11.1,10.8-19.9,23.3-19.9l14.7,0.2l-1.8,63.9l-14.7-0.2
									C432.6,1959.5,422.7,1950.5,423,1939.2z"/>
								<path class="st3" d="M441.6,1966.9c1.4,5.3,3,10.7,5.1,16c13.4,35.2,177.7,44.5,201.9,4.4c2.1-4.6,3.2-9.5,3.5-14.4
									c3.2-56.3-118.8-98-118.8-98l-84.5-1.9C436.3,1904.2,433.8,1936.4,441.6,1966.9z"/>
								<path class="st4" d="M441.6,1966.9c38.7,23.4,163.9,29.2,210.6,5.8c3.2-56.3-118.8-98-118.8-98l-84.5-1.9
									C436.3,1904.2,433.8,1936.4,441.6,1966.9z"/>
								<path class="st5" d="M457.3,1883.3c26.9,4.6,54.6,4.6,81.5,0c19.1-3.2,30.2-19.7,25.3-33.6c-4.8-13.9-20-21.1-34.1-18.8
									c-20.9,3.7-42.6,3.7-63.5,0c-14.3-2.3-29.2,4.9-34.3,18.8C427.1,1863.7,438.2,1880.1,457.3,1883.3z"/>
								<path class="st6" d="M457.3,1849.3c26.9,4.6,54.6,4.6,81.5,0c19.1-3.2,30.2-19.7,25.3-33.6c-4.8-13.9-20-21.1-34.1-18.8
									c-20.9,3.7-42.6,3.7-63.5,0c-14.3-2.3-29.2,4.9-34.3,18.8C427.1,1829.4,438.2,1846.1,457.3,1849.3z"/>
								<path class="st0" d="M539.5,1344.9c13.6-0.2,27.2,1.4,40.3,5.1c13.4,3.7,26,9.5,37.5,17.1c10.8,7.4,20.7,16.4,29,26.6
									c7.8,9.5,14.3,19.9,19.6,31.3c9.7,20.8,15.7,43.3,17.5,66.2c2.1,22.2,0.2,44.7-5.8,66.5c-3,10.9-14.3,17.1-24.9,13.9
									c-9.2-2.5-15.4-11.6-14.7-21.1v-0.9c1.2-16.7-0.7-33.6-5.3-49.8c-4.4-15.5-11.3-30.3-20.7-43.5
									c-9.2-12.3-20.3-21.1-31.1-25.2c-10.8-3.9-22.8-4.6-34.1-1.6c-23,4.9-45.6-10-50.4-32.9c-4.8-22.9,9.9-45.9,32.7-50.7
									c2.5-0.5,5.1-0.9,7.6-0.9H539.5z"/>
								<path class="st7" d="M627.9,1639.7c-9.7,10.2-11.1,15.7-12.7,25.5c-0.5,1.6-1.4,3-2.8,3.9c-3.9,2.5-9.7,0.2-12.7-2.8
									c-5.1-5.3-7.8-12.5-7.6-19.9c-0.7-21.1,11.1-53.3,33.4-67.4L627.9,1639.7z"/>
								<path class="st7" d="M620.5,1643.9l5.1-64.8l70-6c13.8,13.9,24.6,64.6,3.2,91L620.5,1643.9z"/>
								<path class="st7" d="M624.2,1648.1c5.3,14.4,6,29.9,1.8,44.7v0.2c-1.6,5.6,2.3,11.1,8.7,12.3c5.3,1.2,10.8-1.4,13.6-6.3
									c8.7-17.8,12-38.2,8.7-57.9v-0.5c-1.4-8.1-9.9-13.7-19.1-12.3c-9.2,1.4-15.7,9-14.5,17.1
									C623.7,1646.5,623.7,1647.1,624.2,1648.1z"/>
								<path class="st7" d="M646,1640.4c5.5,14.4,6.2,30.1,1.6,44.7v0.2c-1.8,5.6,2.5,11.1,9.2,12.3c5.8,1.2,11.5-1.4,14.7-6.3
									c4.8-8.8,8.1-18.5,9.9-28.3c1.6-9.7,1.8-19.9,0.2-29.6v-0.5c-1.4-8.1-10.6-13.4-20.5-12c-9.9,1.4-17,9-15.9,17.1
									C645.6,1638.8,645.8,1639.7,646,1640.4z"/>
								<path class="st7" d="M662.8,1632.8c5.5,14.4,6.2,30.1,1.6,44.7v0.2c-1.6,5.6,2.5,11.1,9.2,12.3c5.8,1.2,11.5-1.4,14.7-6.3
									c4.8-8.8,8.1-18.5,9.9-28.3c1.6-9.7,1.8-19.9,0.2-29.6v-0.7c-1.4-8.1-10.6-13.4-20.5-12c-9.9,1.4-17,9-15.9,17.1
									C662.4,1631.2,662.6,1631.9,662.8,1632.8z"/>
								<path class="st8" d="M647,1699c1.8-4.9,3.5-9.5,4.6-14.4c2.8-9.5,4.4-19.2,5.1-29.2c0.2-4.9,0.2-10,0.2-15.1
									c3,9.7,3.5,20.1,1.6,30.3c-0.9,5.1-2.3,10-4.1,14.8C652.5,1690.4,650,1695.1,647,1699z"/>
								<path class="st8" d="M672.5,1690.4c1.6-4.9,3.5-9.5,4.6-14.4c1.4-4.6,2.5-9.5,3.2-14.4c0.9-4.9,1.4-9.7,1.6-14.8
									c0.2-4.9,0.2-10,0.2-15.1c3,9.7,3.5,20.1,1.6,30.3c-0.9,5.1-2.3,10-4.1,14.8C678,1681.9,675.5,1686.3,672.5,1690.4z"/>
								<path class="st8" d="M689.8,1681.2c1.6-4.4,3-8.6,4.4-13c1.4-4.4,2.3-8.6,3.2-13c0.9-4.4,1.6-8.8,2.1-13.2
									c0.5-4.4,0.2-9,0.5-13.7c1.6,4.4,2.5,9,2.5,13.7c0,4.6-0.5,9.3-1.6,13.9c-0.9,4.6-2.3,9-4.1,13.2
									C694.8,1673.5,692.5,1677.5,689.8,1681.2z"/>
								<path class="st9" d="M630.8,1586.5c19.3,2.8,39.1,1.6,58.2-3c13.6-3.5,20.7-17.1,16.6-28.3c-3.7-10.4-14.5-16.4-25.3-13.9
									c-14.7,3.7-30.2,4.6-45.4,2.5c-10.8-1.4-20.9,5.8-23.5,16.4C608.5,1571.7,617.3,1584.6,630.8,1586.5z"/>
								<path class="st0" d="M177.3,1429.5c-11.3-3-23-2.3-34.1,1.6c-11.1,4.2-21.9,13-31.1,25.2c-9.4,13.2-16.3,27.8-20.7,43.5
									c-4.6,16.2-6.4,32.9-5.3,49.8v0.9c0.9,11.1-7.4,21.1-18.4,22c-9.7,0.9-18.6-5.3-21.2-14.8c-5.8-21.5-7.8-44-5.8-66.5
									c1.8-22.9,7.8-45.4,17.5-66c5.3-11.1,11.7-21.5,19.6-31.3c8.3-10.2,18-19.2,29-26.6c11.5-7.6,24.2-13.4,37.3-17.1
									c13.1-3.7,26.7-5.3,40.3-5.1h2.8c23.5,0.2,42.1,19.7,41.9,43.3c-0.2,23.6-19.6,42.4-43,42.1
									C183.3,1430.4,180.3,1429.9,177.3,1429.5z"/>
								<path class="st3" d="M539.6,1565.2c16.4,28.6-7.3,73.2-52.8,99.7c-45.6,26.5-95.8,24.8-112.2-3.8
									c-16.4-28.6,7.3-73.2,52.8-99.7C472.9,1534.9,523.2,1536.6,539.6,1565.2z"/>
								<path class="st3" d="M296.6,1561.5c45.6,26.5,69.2,71.1,52.8,99.7c-16.4,28.6-66.6,30.3-112.2,3.8
									c-45.6-26.5-69.2-71.1-52.8-99.7C200.8,1536.7,251,1535,296.6,1561.5z"/>
								<path class="st3" d="M180.3,1331.1c19.9,4.7,29.5,36.8,21.3,71.7c-8.2,34.9-30.9,59.3-50.8,54.6
									c-19.9-4.7-29.5-36.8-21.3-71.7C137.7,1350.8,160.4,1326.4,180.3,1331.1z"/>
								<path class="st3" d="M594.4,1385.8c8.2,34.9-1.4,66.9-21.3,71.7c-19.9,4.7-42.7-19.7-50.8-54.6
									c-8.2-34.9,1.4-66.9,21.3-71.7C563.5,1326.5,586.3,1350.9,594.4,1385.8z"/>
								<path class="st4" d="M543.8,1330.6c-121.3,41.9-242.4,41.9-363.7,0c-6.9,15.1-13.1,30.3-18.2,46.1
									c-43.5,132.7,58,268.4,200,268.4c141.8,0,243.6-135.7,200-268.4C557,1360.9,550.7,1345.6,543.8,1330.6z"/>
								<path class="st10" d="M459.3,1478.3c-64,15.3-130.8,15.3-194.8,0c-15.4-3.7-31.3,4.6-37.3,19.5v0.2
									c-29.2,76.2,39.1,154,134.9,154c95.8,0,164.1-77.8,134.9-154l-0.2-0.2C491.1,1483,475,1474.6,459.3,1478.3z"/>
								<path class="st11" d="M501.9,1383.6c-35.2,15.3-84.3,25.2-140,25.2c-131.2,0-225.4-54-188.3-107.4c0.5-0.7,0.9-1.2,1.4-1.9
									l0.2-0.2c8.7-11.6,23-17.6,37.3-15.7c99.2,13.2,199.8,13.2,299,0c14.3-1.9,28.5,4.2,37.3,15.7l0.2,0.2
									c0.5,0.7,0.9,1.2,1.4,1.9C571.7,1332,549.6,1362.8,501.9,1383.6z"/>
								<path class="st7" d="M412.2,1521.9c0,6.5-5.3,11.8-11.7,11.8c-6.5,0-11.7-5.3-11.7-11.8c0-6.5,5.3-11.8,11.7-11.8
									C406.9,1510.1,412.2,1515.3,412.2,1521.9z"/>
								<path class="st12" d="M445.3,1518.2c0,6.5-5.3,11.8-11.7,11.8c-6.5,0-11.7-5.3-11.7-11.8c0-6.5,5.3-11.8,11.7-11.8
									C440,1506.4,445.3,1511.6,445.3,1518.2z"/>
								<path class="st7" d="M478.5,1512.6c0,6.5-5.3,11.8-11.7,11.8c-6.5,0-11.7-5.3-11.7-11.8c0-6.5,5.3-11.8,11.7-11.8
									C473.2,1500.8,478.5,1506.1,478.5,1512.6z"/>
								<path class="st2" d="M145.1,2029.9l-25.1-3.5c-11.5-1.4-19.8-12-18.4-23.6v-0.2l2.1-13.4l68.1,9.7l-1.8,13.4
									C167.7,2023.9,156.9,2031.8,145.1,2029.9z"/>
								<path class="st2" d="M224.3,2028.3l24.9-4.6c11.5-1.9,19.3-13,17.3-24.5v-0.2l-2.5-13.4l-67.7,12.5l2.5,13.4
									C201.3,2023.2,212.6,2030.6,224.3,2028.3z"/>
								<path class="st3" d="M301,1939.2l-0.7-23.6c-0.2-11.1-10.8-19.9-23.3-19.9l-14.7,0.2l1.8,63.9l14.7-0.2
									C291.3,1959.5,301.2,1950.5,301,1939.2z"/>
								<path class="st3" d="M282.3,1966.9c-1.4,5.3-3,10.7-5.1,16c-13.4,35.2-177.7,44.5-201.9,4.4c-2.1-4.6-3.2-9.5-3.5-14.4
									c-3.5-56.3,118.6-98,118.6-98l84.5-1.9C287.6,1904.2,289.9,1936.4,282.3,1966.9z"/>
								<path class="st4" d="M282.3,1966.9c-38.7,23.4-163.9,29.2-210.6,5.8c-3.2-56,118.8-97.7,118.8-97.7l84.5-1.9
									C287.6,1904.2,289.9,1936.4,282.3,1966.9z"/>
								<path class="st5" d="M266.7,1883.3c-26.9,4.6-54.6,4.6-81.5,0c-19.1-3.2-30.2-19.7-25.3-33.6c4.8-13.9,20-21.1,34.1-18.8
									c20.9,3.7,42.6,3.7,63.8,0c14.3-2.3,29.2,4.9,34.1,18.8C296.8,1863.7,285.8,1880.1,266.7,1883.3z"/>
								<path class="st6" d="M266.7,1849.3c-26.9,4.6-54.6,4.6-81.5,0c-19.1-3.2-30.2-19.7-25.3-33.6c4.8-13.9,20-21.1,34.1-18.8
									c20.9,3.7,42.6,3.7,63.8,0c14.3-2.3,29.2,4.9,34.1,18.8C296.8,1829.4,285.8,1846.1,266.7,1849.3z"/>
								<path class="st7" d="M96.1,1639.7c9.7,10.2,11.1,15.7,12.7,25.5c0.5,1.6,1.4,3,2.8,3.9c3.9,2.5,9.7,0.2,12.7-2.8
									c5.1-5.3,7.8-12.5,7.6-19.9c0.7-21.1-11.1-53.3-33.4-67.4L96.1,1639.7z"/>
								<path class="st7" d="M103.4,1643.9l-5.1-64.8l-70-5.8c-13.6,13.9-24.6,64.6-3.2,91L103.4,1643.9z"/>
								<path class="st7" d="M99.8,1648.1c-5.3,14.4-6,29.9-1.8,44.7v0.2c1.6,5.6-2.3,11.1-8.7,12.3c-5.3,1.2-10.8-1.4-13.6-6.3
									c-8.7-17.8-12-38.2-8.7-57.9v-0.5c1.2-8.1,9.9-13.7,19.1-12.3c9.2,1.4,15.7,9,14.5,17.1
									C100.2,1646.5,100,1647.1,99.8,1648.1z"/>
								<path class="st7" d="M77.9,1640.4c-5.5,14.4-6.2,30.1-1.6,44.7v0.2c1.8,5.6-2.5,11.1-9.2,12.3c-5.8,1.2-11.5-1.4-14.7-6.3
									c-4.8-8.8-8.1-18.5-9.9-28.3c-1.6-9.7-1.8-19.9-0.2-29.6v-0.5c1.4-8.1,10.6-13.4,20.5-12c9.9,1.4,17.3,9,15.9,17.1
									C78.4,1638.8,78.1,1639.7,77.9,1640.4z"/>
								<path class="st7" d="M61.1,1632.8c-5.5,14.4-6.2,30.1-1.6,44.7v0.2c1.6,5.6-2.5,11.1-9.2,12.3c-5.8,1.2-11.5-1.4-14.7-6.3
									c-4.8-8.8-8.1-18.5-9.9-28.3c-1.6-9.7-1.8-19.9-0.2-29.6v-0.7c1.4-8.1,10.6-13.4,20.5-12c9.9,1.4,17,9,15.9,17.1
									C61.5,1631.2,61.3,1631.9,61.1,1632.8z"/>
								<path class="st8" d="M77,1699c-3-4.2-5.5-8.6-7.4-13.4c-1.8-4.9-3.5-9.7-4.1-14.8c-1.8-10.2-1.4-20.6,1.6-30.3
									c0,5.1,0,10.2,0.2,15.1c0.7,10,2.3,19.7,5.1,29.2C73.5,1689.5,75.4,1694.4,77,1699z"/>
								<path class="st8" d="M51.4,1690.4c-3-4.2-5.5-8.6-7.4-13.4c-1.8-4.6-3.5-9.7-4.1-14.8c-1.8-10.2-1.4-20.6,1.6-30.3
									c0,5.1,0,10.2,0.2,15.1c0.2,4.9,0.9,9.7,1.6,14.8c0.9,4.9,1.8,9.7,3.2,14.4C48.2,1681,49.8,1685.6,51.4,1690.4z"/>
								<path class="st8" d="M34.2,1681.2c-2.8-3.7-5.1-7.6-6.9-12c-1.8-4.2-3.2-8.8-4.1-13.2c-0.9-4.6-1.6-9.3-1.6-13.9
									c0.2-4.6,0.9-9.3,2.5-13.7c0,4.6,0,9.3,0.5,13.7c0.5,4.4,1.4,8.8,2.1,13.2c0.7,4.4,1.8,8.8,3.2,13
									C31.2,1672.4,32.5,1676.8,34.2,1681.2z"/>
								<path class="st9" d="M93.1,1586.5c-19.3,2.8-39.1,1.6-58.2-3c-13.4-3.5-20.5-17.1-16.6-28.3c3.7-10.4,14.5-16.4,25.3-13.9
									c14.7,3.7,30.2,4.6,45.4,2.5c10.8-1.4,20.9,5.8,23.5,16.4C115.4,1571.7,106.7,1584.6,93.1,1586.5z"/>
								<path class="st13" d="M96.3,1140.5l-17,61.1l17,61.1c0-50.9,84.5-40.1,84.5-40.1v-42.1
									C180.8,1180.5,96.3,1191.4,96.3,1140.5z"/>
								<path class="st14" d="M90.6,1137.5c-11.7,41.9-11.7,86.4,0,128.1"/>
								<path class="st13" d="M627.2,1140.5l17,61.1l-17,61.1c0-50.9-84.5-40.1-84.5-40.1v-42.1
									C542.7,1180.5,627.2,1191.4,627.2,1140.5z"/>
								<path class="st14" d="M632.9,1137.5c11.7,41.9,11.7,86.4,0,128.1"/>
								<path class="st15" d="M564.8,1192.1c0,14.1-15,26.2-18.6,39.4c-3.7,13.2,3,31.5-4.1,43.3c-7.1,11.8-25.8,14.8-35.7,24.8
									c-9.9,10-11.7,28.9-23.7,36.6c-11.3,7.4-29.7,2.1-42.8,7.2c-12.7,5.1-22.1,21.8-36.1,24.3c-13.4,2.5-28.3-9.5-42.4-9.5
									c-14,0-29,12-42.4,9.5c-13.8-2.5-23.5-19.2-36.1-24.3c-13.1-5.1-31.5,0.2-42.8-7.2c-11.7-7.6-14-26.9-23.5-36.6
									c-9.4-9.7-28.5-13-35.7-25c-7.1-12,0.2-29.6-3.5-43.1c-3.7-13.4-18.6-25.2-18.6-39.4c0-14.1,15-26.2,18.6-39.4
									c3.7-13.2-3-31.3,4.1-43.3c7.1-12,25.8-14.8,35.7-24.8c9.9-10,11.7-28.9,23.5-36.6c11.3-7.4,29.7-2.1,42.8-7.4
									c12.7-5.1,22.3-21.8,36.1-24.3c13.4-2.5,28.3,9.5,42.4,9.5c14,0,29-12,42.4-9.5c13.8,2.5,23.5,19.2,36.1,24.3
									c13.1,5.1,31.5-0.2,42.8,7.2c11.7,7.6,14,26.9,23.5,36.6c9.4,9.7,28.8,13,35.7,25c6.9,12,0.5,29.9,4.1,43.3
									C550.3,1166.2,564.8,1178,564.8,1192.1z"/>
								<path class="st1" d="M273.3,1094.2c-2.5-1.9-6-2.3-8.7-0.7c-2.8,1.4-5.3,3.5-6.9,6c-1.8,2.5-3.2,5.6-5.3,8.6
									c-1.2,1.4-2.3,3-3.7,4.2c-1.4,1.4-3,2.3-4.6,3.2c-6.7,3.2-13.1,4.6-16.8,8.1c-4.4,4.2-6.4,10.4-5.5,16.4l-0.7,0.2
									c-2.3-3-3.2-6.7-3-10.4c0.2-3.9,1.8-7.6,4.4-10.7c1.4-1.6,2.8-2.8,4.6-3.7c1.6-0.9,3.5-1.6,5.3-2.1c3.2-0.7,6.2-1.6,9.4-2.5
									c5.5-1.9,8.7-7.9,13.4-13.2c2.3-2.8,5.3-4.9,8.7-6c1.6-0.5,3.5-0.7,5.3-0.5c1.8,0.2,3.5,1.2,4.6,2.5L273.3,1094.2z"/>
								<path class="st1" d="M449.4,1093.7c1.2-1.4,2.8-2.3,4.6-2.5c1.8-0.2,3.7-0.2,5.3,0.5c3.5,1.2,6.4,3.2,8.7,6
									c4.6,5.3,7.6,11.3,13.4,13.2c3,0.9,6.2,1.9,9.4,2.5c1.8,0.5,3.5,1.2,5.3,2.1c1.8,0.9,3.2,2.3,4.6,3.7
									c2.5,3,4.1,6.7,4.4,10.7c0.5,3.7-0.7,7.4-3,10.4l-0.7-0.2c0.9-6-1.2-12-5.5-16.4c-3.7-3.5-10.1-4.9-16.8-8.1
									c-1.6-0.9-3.2-1.9-4.6-3.2c-1.4-1.2-2.5-2.5-3.7-4.2c-2.1-3-3.5-5.8-5.3-8.6c-1.6-2.5-4.1-4.9-6.9-6
									c-2.8-1.4-6.2-1.2-8.7,0.7L449.4,1093.7z"/>
								<path class="st1" d="M259.3,1299.3c-0.9,0.9-2.1,1.6-3.5,1.9c-1.4,0.2-2.5,0-3.9-0.2c-2.5-0.7-4.8-2.3-6.4-4.4
									c-3.2-3.9-5.5-8.3-9.7-9.7c-2.3-0.7-4.6-1.4-6.9-1.9c-1.4-0.5-2.5-0.9-3.9-1.6c-6.2-3.5-8.5-11.1-5.1-17.4
									c0.2-0.2,0.2-0.7,0.5-0.9l0.5,0.2c-0.7,4.4,0.9,8.8,4.1,12c2.8,2.5,7.4,3.7,12.2,6c2.5,1.2,4.6,3,6,5.3
									c1.6,2.1,2.5,4.4,3.9,6.3c1.2,1.9,3,3.5,5.1,4.4c2.1,1.2,4.6,0.9,6.4-0.5L259.3,1299.3z"/>
								<path class="st1" d="M466.7,1297.2c1.8,1.4,4.1,1.6,6,0.5c2.1-0.9,3.7-2.3,4.8-4.2c1.4-1.9,2.3-3.9,3.7-5.8
									c1.4-2.1,3.5-3.9,5.8-5.1c4.6-2.3,9-3,11.5-5.6c3-3,4.4-7.2,3.9-11.3l0.5-0.2c3,4.4,2.5,10.4-0.9,14.6
									c-1.8,2.1-4.1,3.5-6.9,3.9c-2.3,0.5-4.4,1.2-6.4,1.9c-3.9,1.4-6,5.3-9.2,9c-1.6,1.9-3.7,3.5-6,4.2c-1.2,0.5-2.5,0.5-3.7,0.2
									c-1.2-0.2-2.3-0.9-3.2-1.9L466.7,1297.2z"/>
								<path class="st1" d="M326.1,1070.3c-0.2-3.9,1.2-7.9,3.9-10.7c1.6-1.4,3.5-2.5,5.5-3c2.1-0.5,4.1-0.7,6.2-0.2
									c3.9,0.5,7.6,1.6,10.8,2.3c3,0.7,6.2,0.7,9.2,0c3.2-0.7,6.4-2.3,9.9-3.5c1.8-0.7,3.7-1.2,5.8-1.4c2.1-0.5,4.1-0.5,6.2,0
									c4.1,0.7,7.8,2.5,10.6,5.6c2.8,2.8,4.6,6.3,5.5,10c-2.1-3-4.6-5.3-7.6-7.4c-2.8-1.9-6-2.8-9.2-3c-1.6,0-3,0.2-4.6,0.5
									c-1.6,0.5-3.2,0.9-4.6,1.6c-3.5,1.6-6.9,3-10.6,3.9c-4.1,1.2-8.3,0.9-12.2-0.2c-3.7-1.2-6.9-2.3-10.1-3.2
									c-1.6-0.5-3-0.7-4.6-0.5c-1.6,0-3,0.5-4.4,1.4C329,1064.1,327,1067.1,326.1,1070.3z"/>
								<path class="st1" d="M339.4,1332.7c0.7,2.1,2.3,3.7,4.1,4.9c1.8,0.7,3.9,0.7,5.8,0c2.1-0.7,4.1-1.9,6.4-2.5
									c2.5-0.9,5.1-1.2,7.8-0.9c5.1,0.9,9,3.5,12.9,3c4.4-0.7,8.1-3.5,10.1-7.4c-0.5,2.3-1.4,4.6-3,6.5c-1.6,2.1-3.9,3.5-6.4,4.2
									c-1.4,0.2-2.8,0.5-3.9,0.2c-1.2-0.2-2.5-0.2-3.7-0.7c-2.3-0.7-4.4-1.4-6.4-1.6c-2.1-0.5-3.9-0.2-6,0.5
									c-2.1,0.5-4.4,1.6-6.7,2.1c-1.4,0.2-2.5,0.2-3.9,0.2c-1.4-0.2-2.5-0.7-3.7-1.6C340.6,1337.5,339.4,1335.2,339.4,1332.7z"/>
								<path class="st16" d="M356.7,1262c-3.5-1.6-6.4-3-9.4-4.4c-1.6-0.7-3-1.4-4.6-1.9c-1.6-0.5-3.2-1.2-5.1-1.9
									c1.8-0.7,3.7-0.9,5.5-0.7s3.7,0.7,5.5,1.4c1.6,0.7,3.2,1.9,4.6,3S355.8,1260.2,356.7,1262z"/>
								<path class="st16" d="M366.8,1262c0.9-1.6,2.1-3.2,3.5-4.4s3-2.3,4.6-3c1.6-0.7,3.5-1.2,5.5-1.4c1.8-0.2,3.7,0,5.5,0.7
									c-1.8,0.7-3.5,1.2-5.1,1.9c-1.6,0.7-3.2,1.2-4.6,1.9C373.2,1258.8,370.3,1260.4,366.8,1262z"/>
								<path class="st16" d="M323.5,1276.2c6,2.5,12.2,4.4,18.6,5.1c6.4,0.9,12.9,1.4,19.3,1.2c6.4-0.5,12.9-1.2,19.1-2.3
									c6.4-0.9,12.7-2.3,18.9-4.2l0.2,0.5c-5.5,3.9-11.7,6.9-18.2,8.3c-6.7,1.4-13.4,1.9-20,1.6c-6.7-0.2-13.4-1.2-19.8-2.5
									c-6.4-1.4-12.7-3.7-18.6-6.9L323.5,1276.2z"/>
								<path class="st16" d="M325.6,1213c0,0-33.1-54.4-89.5-4.2C236,1208.8,284.6,1281.5,325.6,1213z"/>
								<path class="st17" d="M323.3,1213c0,0-28.1-49.8-80.3-3.5C243,1209.3,281.4,1268.5,323.3,1213z"/>
								<path class="st7" d="M311.1,1211.8c0,12.3-9.9,22.2-22.1,22.2c-12.2,0-22.1-10-22.1-22.2c0-12.3,9.9-22.2,22.1-22.2
									C301.2,1189.6,311.1,1199.5,311.1,1211.8z"/>
								<path class="st18" d="M288.3,1199.3c2.1,1.6,3.7,3.7,4.8,6.3c1.8,4.2,2.3,8.8,1.2,13c-0.7,2.5-2.1,4.9-3.7,6.7
									c-2.1-1.6-3.7-3.7-4.8-6.3c-1.8-4.2-2.3-8.8-0.9-13C285.3,1203.5,286.5,1201.1,288.3,1199.3z"/>
								<path class="st15" d="M227.5,1199.3c1.2,6.7,9,8.6,15.7,8.3s13.1-3.5,19.8-5.3c11.5-3.2,23.7-2.5,34.8,1.6
									c5.8,2.3,11.3,5.6,17,7.2c5.8,1.6,12.9,1.4,17.7-2.5c4.8-3.9,5.1-14.6-0.2-17.8l-8.1-4.2c-13.8-7.9-29-10.2-44.9-9.5
									c-18.6,0.7-30.4,4.4-44.7,16.2L227.5,1199.3z"/>
								<path class="st16" d="M227.5,1199.3c0.9,2.5,2.8,4.6,5.1,6c2.3,1.2,4.8,1.9,7.4,2.1c2.5,0,5.1-0.2,7.4-1.2
									c2.5-0.7,5.1-1.9,7.4-2.8c5.1-2.5,10.6-4.2,16.1-5.3c5.8-0.9,11.5-0.9,17.3-0.2c5.8,0.9,11.3,2.8,16.3,5.1
									c4.6,2.5,9.7,4.4,14.7,5.3c2.5,0.5,4.8,0.2,7.4-0.2c2.3-0.5,4.4-1.6,6-3.5c1.6-1.9,2.5-4.4,2.5-6.9c0.2-2.8-0.9-5.3-3-6.9
									c1.4,0.7,2.3,1.6,3.2,2.8c0.9,1.2,1.4,2.5,1.6,4.2c0.5,3-0.2,6.3-1.8,8.8c-1.8,2.5-4.4,4.6-7.4,5.6c-3,0.9-6,1.4-9,1.2
									c-6.2-0.2-11.5-2.8-16.6-4.6c-2.5-1.2-4.8-1.9-7.4-2.8c-2.5-0.7-5.1-1.4-7.6-1.6c-5.1-0.7-10.4-0.9-15.4-0.2
									c-5.3,0.7-10.4,2.1-15.4,3.9c-5.3,1.9-11.1,3.5-17,2.3c-3-0.7-5.5-1.9-7.8-3.7C229.4,1204.9,227.8,1202.1,227.5,1199.3z"/>
								<path class="st19" d="M234.9,1193.3c4.6-6.9,11.3-12.5,18.9-16c0.9-0.5,1.8-0.9,2.8-1.4l3-0.9c0.9-0.5,2.1-0.7,3-0.9l3-0.7
									l3-0.7c0.9-0.2,2.1-0.2,3.2-0.5c2.1-0.2,4.1-0.5,6.2-0.5c8.3,0,16.6,1.4,24.6,3.9c3.9,1.4,7.6,3,11.5,4.6
									c3.7,2.1,7.1,4.2,10.6,6.3c-3.9-1.2-7.8-2.5-11.5-3.9l-5.8-1.6c-1.8-0.5-3.7-1.2-5.8-1.6c-3.9-0.9-7.8-1.6-11.7-1.9
									c-1.8-0.2-3.9-0.5-5.8-0.7h-5.8c-7.8,0.2-15.4,1.6-22.8,4.2C247.8,1183.8,240.9,1187.9,234.9,1193.3z"/>
								<path class="st16" d="M396.7,1213c0,0,33.1-54.4,89.5-4.2C486.3,1208.8,437.7,1281.5,396.7,1213z"/>
								<path class="st17" d="M399,1213c0,0,28.3-49.8,80.3-3.5C479.4,1209.3,440.9,1268.5,399,1213z"/>
								<path class="st7" d="M455.4,1211.8c0,12.3-9.9,22.2-22.1,22.2c-12.2,0-22.1-10-22.1-22.2c0-12.3,9.9-22.2,22.1-22.2
									C445.5,1189.6,455.4,1199.5,455.4,1211.8z"/>
								<path class="st18" d="M434.3,1199.3c1.8,2.1,3,4.4,3.7,6.9c0.7,2.1,0.9,4.4,0.7,6.5c-0.2,2.3-0.7,4.4-1.6,6.5
									c-1.2,2.3-2.8,4.4-4.6,6c-1.8-1.9-3-4.4-3.7-6.7c-1.2-4.4-0.9-9,1.2-13C430.6,1203,432.2,1200.9,434.3,1199.3z"/>
								<path class="st15" d="M494.8,1199.3c-1.2,6.7-9,8.6-15.7,8.3s-13.1-3.5-19.8-5.3c-11.5-3.2-23.7-2.5-34.8,1.6
									c-5.8,2.3-11.3,5.6-17.3,7.2c-6,1.6-12.9,1.4-17.7-2.5c-4.8-3.9-5.1-14.6,0-17.8l8.1-4.2c13.8-7.9,29-10.2,44.9-9.5
									c18.6,0.7,30.4,4.4,44.7,16.2L494.8,1199.3z"/>
								<path class="st16" d="M494.8,1199.3c-0.2,3-1.8,5.6-4.1,7.4c-2.3,1.9-5.1,3.2-7.8,3.7c-6,1.2-11.7-0.7-17-2.3
									c-4.8-1.9-10.1-3.2-15.4-3.9c-5.1-0.7-10.4-0.7-15.4,0.2c-2.5,0.5-5.1,0.9-7.6,1.6c-2.5,0.7-5.1,1.6-7.4,2.8
									c-5.1,1.9-10.4,4.4-16.6,4.6c-3,0.2-6.2-0.2-9-1.2c-3-0.9-5.5-3-7.4-5.6c-1.6-2.5-2.3-5.8-1.8-8.8c0.2-1.4,0.7-2.8,1.6-4.2
									c0.9-1.2,1.8-2.1,3.2-2.8c-2.1,1.6-3.2,4.2-3,6.9c0,2.5,0.9,4.9,2.5,6.7c1.6,1.9,3.7,3,6,3.5c2.3,0.5,4.8,0.7,7.4,0.2
									c5.1-1.2,10.1-2.8,14.7-5.3c5.3-2.5,10.8-4.2,16.3-5.1c5.8-0.9,11.5-0.7,17.3,0.2c5.5,1.2,11.1,2.8,16.1,5.3
									c2.5,1.2,4.8,2.1,7.4,2.8c2.3,0.9,5.1,1.2,7.6,1.2c2.5-0.2,5.1-0.9,7.4-2.1C492,1203.7,493.9,1201.6,494.8,1199.3z"/>
								<path class="st19" d="M487.7,1193.3c-6-5.3-12.9-9.5-20.5-12c-7.4-2.5-15-4.2-22.8-4.2h-5.8c-1.8,0-3.9,0.5-5.8,0.7
									c-3.9,0.5-7.8,1.2-11.7,1.9c-2.1,0.2-3.9,1.2-5.8,1.6l-5.8,1.6c-3.7,1.4-7.6,2.8-11.5,3.9c3.5-2.3,6.9-4.2,10.6-6.3
									c3.7-1.6,7.6-3.5,11.5-4.6c7.8-2.5,16.3-3.9,24.6-3.9c2.1,0,4.1,0.2,6.2,0.5c0.9,0.2,2.1,0.2,3.2,0.5l3,0.7l3,0.7
									c0.9,0.2,2.1,0.7,3,0.9l3,0.9c0.9,0.5,1.8,0.9,2.8,1.4C476.4,1180.8,482.8,1186.3,487.7,1193.3z"/>
							</g>
						</g>
					</g>
				</g>
			</g>
		</g>
	</g>
</g>
</svg>
