<?xml version="1.0" encoding="utf-8"?>
<!-- Generator: Adobe Illustrator 26.0.0, SVG Export Plug-In . SVG Version: 6.00 Build 0)  -->
<svg version="1.1" id="Layer_1" xmlns="http://www.w3.org/2000/svg" xmlns:xlink="http://www.w3.org/1999/xlink" x="0px" y="0px"
	 viewBox="0 0 700 700" style="enable-background:new 0 0 700 700;" xml:space="preserve">
<style type="text/css">
	.st0{fill:#7333A3;}
	.st1{fill:#612B89;}
	.st2{fill:#7356A4;}
	.st3{fill:#8463BE;}
	.st4{fill:#2E047A;}
	.st5{fill:#FAAF3B;}
	.st6{fill:#FAC26C;}
	.st7{fill:#90BD4A;}
	.st8{fill:#7EA540;}
	.st9{fill:#FAAA2D;}
	.st10{fill:#F1F1F1;}
	.st11{fill:#A87DF1;}
	.st12{fill:#EE8031;}
	.st13{fill:#612B88;}
	.st14{fill:none;stroke:#853BBC;stroke-width:1.5923;stroke-linecap:round;stroke-miterlimit:10;}
	.st15{fill:#7333A2;}
	.st16{fill:#3B224D;}
	.st17{fill:#FFFFFF;}
	.st18{fill:#261234;}
	.st19{fill:#8F5CB5;}
</style>
<g>
	<g transform="translate(-12 -1016)">
		<g>
			<g>
				<g>
					<g>
						<g>
							<g>
								<path class="st0" d="M300.4,1646.2c-23.4,44-37.1,93-39.7,142.8l-60.7,3.8c-9.8-60.6-6-122.8,10.5-181.9L300.4,1646.2z"/>
								<path class="st1" d="M195.2,1709.3c1.8,4.7,4.7,8.8,8.3,12.4c6.7,6.7,16.1,9.7,25.2,8.1c4.9-0.7,9.6-2.5,13.8-5.2
									c-2.9,4.7-7.4,8.3-12.5,10.1c-11.2,4-23.4,0-30.1-9.7C196.4,1720.3,194.8,1714.7,195.2,1709.3z"/>
								<path class="st0" d="M513.6,1610.9c16.7,59.1,20.3,121.3,10.5,181.9l-60.7-3.8c-2.7-50.1-16.3-98.8-39.7-142.8L513.6,1610.9
									z"/>
								<path class="st1" d="M528.8,1709.3c0.4,5.6-1.1,11-4.5,15.5c-6.7,9.7-19.2,13.7-30.1,9.7c-5.1-1.8-9.6-5.2-12.5-10.1
									c4.2,2.7,8.9,4.5,13.8,5.2c9.2,1.6,18.8-1.3,25.2-8.1C524.1,1718.1,527,1713.8,528.8,1709.3z"/>
								<path class="st2" d="M572.3,2007.1l24.3-3.4c11.2-1.3,19.2-11.7,17.9-22.9v-0.2l-2-13l-66.1,9.4l2,13
									C550.4,2001,561.1,2008.9,572.3,2007.1z"/>
								<path class="st2" d="M495.5,2005.5l-24.1-4.5c-11.2-1.8-18.8-12.6-16.7-23.8v-0.2l2.5-13l65.6,12.1l-2.5,13
									C517.8,2000.5,506.9,2007.7,495.5,2005.5z"/>
								<path class="st3" d="M421.2,1919l0.7-22.9c0.2-10.8,10.5-19.3,22.5-19.3l14.3,0.2l-1.8,62l-14.3-0.2
									C430.5,1938.8,420.9,1930,421.2,1919z"/>
								<path class="st3" d="M439.2,1946c1.3,5.2,2.9,10.3,4.9,15.5c12.9,34.1,172.3,43.1,195.8,4.3c2-4.5,3.1-9.2,3.3-13.9
									c3.1-54.6-115.2-95-115.2-95l-81.9-1.8C434.1,1885.1,431.6,1916.3,439.2,1946z"/>
								<path class="st4" d="M439.2,1946c37.5,22.7,158.9,28.3,204.3,5.6c3.1-54.6-115.2-95-115.2-95l-81.9-1.8
									C434.1,1885.1,431.6,1916.3,439.2,1946z"/>
								<path class="st5" d="M454.4,1864.9c26.1,4.5,52.9,4.5,79,0c18.5-3.1,29.2-19.1,24.6-32.6c-4.7-13.5-19.4-20.4-33-18.2
									c-20.3,3.6-41.3,3.6-61.6,0c-13.8-2.2-28.4,4.7-33.3,18.2C425.2,1845.8,435.9,1861.8,454.4,1864.9z"/>
								<path class="st6" d="M454.4,1831.9c26.1,4.5,52.9,4.5,79,0c18.5-3.1,29.2-19.1,24.6-32.6c-4.7-13.5-19.4-20.4-33-18.2
									c-20.3,3.6-41.3,3.6-61.6,0c-13.8-2.2-28.4,4.7-33.3,18.2C425.2,1812.6,435.9,1828.8,454.4,1831.9z"/>
								<path class="st0" d="M534.1,1342.8c13.2-0.2,26.3,1.3,39.1,4.9c12.9,3.6,25.2,9.2,36.4,16.6c10.5,7.2,20.1,15.9,28.1,25.8
									c7.6,9.2,13.8,19.3,19,30.3c9.4,20.2,15.2,42,17,64.2c2,21.6,0.2,43.3-5.6,64.4c-2.9,10.6-13.8,16.6-24.1,13.5
									c-8.9-2.5-15-11.2-14.3-20.4v-0.9c1.1-16.2-0.7-32.6-5.1-48.3c-4.2-15-10.9-29.4-20.1-42.2c-8.9-11.9-19.6-20.4-30.1-24.5
									c-10.5-3.8-22.1-4.5-33-1.6c-22.3,4.7-44.2-9.7-48.9-31.9c-4.7-22.2,9.6-44.5,31.7-49.2c2.5-0.4,4.9-0.9,7.4-0.9H534.1z"/>
								<path class="st7" d="M619.8,1628.7c-9.4,9.9-10.7,15.3-12.3,24.7c-0.4,1.6-1.3,2.9-2.7,3.8c-3.8,2.5-9.4,0.2-12.3-2.7
									c-4.9-5.2-7.6-12.1-7.4-19.3c-0.7-20.4,10.7-51.6,32.4-65.3L619.8,1628.7z"/>
								<path class="st7" d="M612.7,1632.7l4.9-62.9l67.9-5.8c13.4,13.5,23.9,62.7,3.1,88.3L612.7,1632.7z"/>
								<path class="st7" d="M616.3,1636.8c5.1,13.9,5.8,29,1.8,43.3v0.2c-1.6,5.4,2.2,10.8,8.5,11.9c5.1,1.1,10.5-1.3,13.2-6.1
									c8.5-17.3,11.6-37.1,8.5-56.1v-0.4c-1.3-7.9-9.6-13.2-18.5-11.9c-8.9,1.3-15.2,8.8-14.1,16.6
									C615.8,1635.2,615.8,1635.9,616.3,1636.8z"/>
								<path class="st7" d="M637.5,1629.4c5.4,13.9,6,29.2,1.6,43.3v0.2c-1.8,5.4,2.5,10.8,8.9,11.9c5.6,1.1,11.2-1.3,14.3-6.1
									c4.7-8.5,7.8-18,9.6-27.4c1.6-9.4,1.8-19.3,0.2-28.7v-0.4c-1.3-7.9-10.3-13-19.9-11.7c-9.6,1.3-16.5,8.8-15.4,16.6
									C637,1627.8,637.2,1628.7,637.5,1629.4z"/>
								<path class="st7" d="M653.8,1621.9c5.4,13.9,6,29.2,1.6,43.3v0.2c-1.6,5.4,2.5,10.8,8.9,11.9c5.6,1.1,11.2-1.3,14.3-6.1
									c4.7-8.5,7.8-18,9.6-27.4c1.6-9.4,1.8-19.3,0.2-28.7v-0.7c-1.3-7.9-10.3-13-19.9-11.7c-9.6,1.3-16.5,8.8-15.4,16.6
									C653.3,1620.4,653.5,1621,653.8,1621.9z"/>
								<path class="st8" d="M638.4,1686.2c1.8-4.7,3.3-9.2,4.5-13.9c2.7-9.2,4.2-18.6,4.9-28.3c0.2-4.7,0.2-9.7,0.2-14.6
									c2.9,9.4,3.3,19.5,1.6,29.4c-0.9,4.9-2.2,9.7-4,14.4C643.7,1677.9,641.3,1682.3,638.4,1686.2z"/>
								<path class="st8" d="M663.1,1677.9c1.6-4.7,3.3-9.2,4.5-13.9c1.3-4.5,2.5-9.2,3.1-13.9c0.9-4.7,1.3-9.4,1.6-14.4
									c0.2-4.7,0.2-9.7,0.2-14.6c2.9,9.4,3.3,19.5,1.6,29.4c-0.9,4.9-2.2,9.7-4,14.4C668.5,1669.5,666,1673.8,663.1,1677.9z"/>
								<path class="st8" d="M679.9,1668.9c1.6-4.3,2.9-8.3,4.2-12.6c1.3-4.3,2.2-8.3,3.1-12.6c0.9-4.3,1.6-8.5,2-12.8
									c0.4-4.3,0.2-8.8,0.4-13.2c1.6,4.3,2.5,8.8,2.5,13.2c0,4.5-0.4,9-1.6,13.5c-0.9,4.5-2.2,8.8-4,12.8
									C684.8,1661.5,682.6,1665.3,679.9,1668.9z"/>
								<path class="st9" d="M622.7,1577c18.8,2.7,37.9,1.6,56.5-2.9c13.2-3.4,20.1-16.6,16.1-27.4c-3.6-10.1-14.1-15.9-24.6-13.5
									c-14.3,3.6-29.2,4.5-44,2.5c-10.5-1.3-20.3,5.6-22.8,15.9C601.1,1562.7,609.6,1575.2,622.7,1577z"/>
								<path class="st0" d="M183,1424.8c-10.9-2.9-22.3-2.2-33,1.6c-10.7,4-21.2,12.6-30.1,24.5c-9.2,12.8-15.8,26.9-20.1,42.2
									c-4.5,15.7-6.3,31.9-5.1,48.3v0.9c0.9,10.8-7.1,20.4-17.9,21.3c-9.4,0.9-18.1-5.2-20.5-14.4c-5.6-20.9-7.6-42.7-5.6-64.4
									c1.8-22.2,7.6-44,17-64c5.1-10.8,11.4-20.9,19-30.3c8-9.9,17.4-18.6,28.1-25.8c11.2-7.4,23.4-13,36.2-16.6
									c12.7-3.6,25.9-5.2,39.1-4.9h2.7c22.8,0.2,40.9,19.1,40.6,42c-0.2,22.9-19,41.1-41.7,40.9
									C188.8,1425.7,185.9,1425.2,183,1424.8z"/>
								<path class="st3" d="M534.2,1556.4c15.9,27.7-7,71-51.2,96.7s-92.9,24-108.8-3.7c-15.9-27.7,7-71,51.2-96.7
									S518.3,1528.7,534.2,1556.4z"/>
								<path class="st3" d="M298.6,1552.8c44.2,25.7,67.1,68.9,51.2,96.7c-15.9,27.7-64.6,29.4-108.8,3.7s-67.1-68.9-51.2-96.7
									C205.7,1528.7,254.4,1527.1,298.6,1552.8z"/>
								<path class="st3" d="M185.9,1329.4c19.3,4.6,28.6,35.7,20.7,69.5c-7.9,33.8-30,57.5-49.3,52.9
									c-19.3-4.6-28.6-35.7-20.7-69.5C144.5,1348.5,166.6,1324.8,185.9,1329.4z"/>
								<path class="st3" d="M587.4,1382.4c7.9,33.8-1.3,64.9-20.7,69.5c-19.3,4.6-41.4-19.1-49.3-52.9
									c-7.9-33.8,1.3-64.9,20.7-69.5C557.4,1324.9,579.5,1348.6,587.4,1382.4z"/>
								<path class="st4" d="M538.4,1328.9c-117.6,40.6-235.1,40.6-352.7,0c-6.7,14.6-12.7,29.4-17.6,44.7
									c-42.2,128.7,56.3,260.3,194,260.3c137.5,0,236.2-131.6,194-260.3C551.1,1358.3,545.1,1343.5,538.4,1328.9z"/>
								<path class="st10" d="M456.4,1472.2c-62.1,14.8-126.8,14.8-188.9,0c-15-3.6-30.4,4.5-36.2,18.9v0.2
									c-28.4,73.9,38,149.3,130.8,149.3c92.9,0,159.2-75.5,130.8-149.3l-0.2-0.2C487.2,1476.7,471.6,1468.6,456.4,1472.2z"/>
								<path class="st11" d="M497.7,1380.3c-34.2,14.8-81.7,24.5-135.7,24.5c-127.2,0-218.5-52.3-182.6-104.2
									c0.4-0.7,0.9-1.1,1.3-1.8l0.2-0.2c8.5-11.2,22.3-17.1,36.2-15.3c96.2,12.8,193.8,12.8,290,0c13.8-1.8,27.7,4,36.2,15.3
									l0.2,0.2c0.4,0.7,0.9,1.1,1.3,1.8C565.4,1330.2,543.9,1360.1,497.7,1380.3z"/>
								<path class="st7" d="M410.7,1514.4c0,6.3-5.1,11.5-11.4,11.5c-6.3,0-11.4-5.1-11.4-11.5c0-6.3,5.1-11.5,11.4-11.5
									C405.6,1502.9,410.7,1508.1,410.7,1514.4z"/>
								<path class="st12" d="M442.8,1510.8c0,6.3-5.1,11.5-11.4,11.5c-6.3,0-11.4-5.1-11.4-11.5c0-6.3,5.1-11.5,11.4-11.5
									C437.7,1499.3,442.8,1504.5,442.8,1510.8z"/>
								<path class="st7" d="M475,1505.4c0,6.3-5.1,11.5-11.4,11.5c-6.3,0-11.4-5.1-11.4-11.5c0-6.3,5.1-11.5,11.4-11.5
									C469.9,1493.9,475,1499.1,475,1505.4z"/>
								<path class="st2" d="M151.7,2007.1l-24.3-3.4c-11.2-1.3-19.2-11.7-17.9-22.9v-0.2l2-13l66.1,9.4l-1.8,13
									C173.6,2001.2,163.1,2008.9,151.7,2007.1z"/>
								<path class="st2" d="M228.5,2005.5l24.1-4.5c11.2-1.8,18.8-12.6,16.7-23.8v-0.2l-2.5-13l-65.6,12.1l2.5,13
									C206.2,2000.5,217.1,2007.7,228.5,2005.5z"/>
								<path class="st3" d="M302.8,1919l-0.7-22.9c-0.2-10.8-10.5-19.3-22.5-19.3l-14.3,0.2l1.8,62l14.3-0.2
									C293.5,1938.8,303.1,1930,302.8,1919z"/>
								<path class="st3" d="M284.8,1946c-1.3,5.2-2.9,10.3-4.9,15.5c-12.9,34.1-172.3,43.1-195.8,4.3c-2-4.5-3.1-9.2-3.3-13.9
									c-3.3-54.6,115-95,115-95l81.9-1.8C289.9,1885.1,292.1,1916.3,284.8,1946z"/>
								<path class="st4" d="M284.8,1946c-37.5,22.7-158.9,28.3-204.3,5.6c-3.1-54.3,115.2-94.8,115.2-94.8l81.9-1.8
									C289.9,1885.1,292.1,1916.3,284.8,1946z"/>
								<path class="st5" d="M269.6,1864.9c-26.1,4.5-52.9,4.5-79,0c-18.5-3.1-29.2-19.1-24.6-32.6c4.7-13.5,19.4-20.4,33-18.2
									c20.3,3.6,41.3,3.6,61.8,0c13.8-2.2,28.4,4.7,33,18.2C298.8,1845.8,288.1,1861.8,269.6,1864.9z"/>
								<path class="st6" d="M269.6,1831.9c-26.1,4.5-52.9,4.5-79,0c-18.5-3.1-29.2-19.1-24.6-32.6c4.7-13.5,19.4-20.4,33-18.2
									c20.3,3.6,41.3,3.6,61.8,0c13.8-2.2,28.4,4.7,33,18.2C298.8,1812.6,288.1,1828.8,269.6,1831.9z"/>
								<path class="st7" d="M104.2,1628.7c9.4,9.9,10.7,15.3,12.3,24.7c0.4,1.6,1.3,2.9,2.7,3.8c3.8,2.5,9.4,0.2,12.3-2.7
									c4.9-5.2,7.6-12.1,7.4-19.3c0.7-20.4-10.7-51.6-32.4-65.3L104.2,1628.7z"/>
								<path class="st7" d="M111.3,1632.7l-4.9-62.9l-67.9-5.6c-13.2,13.5-23.9,62.7-3.1,88.3L111.3,1632.7z"/>
								<path class="st7" d="M107.7,1636.8c-5.1,13.9-5.8,29-1.8,43.3v0.2c1.6,5.4-2.2,10.8-8.5,11.9c-5.1,1.1-10.5-1.3-13.2-6.1
									c-8.5-17.3-11.6-37.1-8.5-56.1v-0.4c1.1-7.9,9.6-13.2,18.5-11.9c8.9,1.3,15.2,8.8,14.1,16.6
									C108.2,1635.2,108,1635.9,107.7,1636.8z"/>
								<path class="st7" d="M86.5,1629.4c-5.4,13.9-6,29.2-1.6,43.3v0.2c1.8,5.4-2.5,10.8-8.9,11.9c-5.6,1.1-11.2-1.3-14.3-6.1
									c-4.7-8.5-7.8-18-9.6-27.4c-1.6-9.4-1.8-19.3-0.2-28.7v-0.4c1.3-7.9,10.3-13,19.9-11.7c9.6,1.3,16.7,8.8,15.4,16.6
									C87,1627.8,86.8,1628.7,86.5,1629.4z"/>
								<path class="st7" d="M70.2,1621.9c-5.4,13.9-6,29.2-1.6,43.3v0.2c1.6,5.4-2.5,10.8-8.9,11.9c-5.6,1.1-11.2-1.3-14.3-6.1
									c-4.7-8.5-7.8-18-9.6-27.4c-1.6-9.4-1.8-19.3-0.2-28.7v-0.7c1.3-7.9,10.3-13,19.9-11.7c9.6,1.3,16.5,8.8,15.4,16.6
									C70.7,1620.4,70.5,1621,70.2,1621.9z"/>
								<path class="st8" d="M85.6,1686.2c-2.9-4-5.4-8.3-7.1-13c-1.8-4.7-3.3-9.4-4-14.4c-1.8-9.9-1.3-20,1.6-29.4
									c0,4.9,0,9.9,0.2,14.6c0.7,9.7,2.2,19.1,4.9,28.3C82.3,1677,84.1,1681.7,85.6,1686.2z"/>
								<path class="st8" d="M60.9,1677.9c-2.9-4-5.4-8.3-7.1-13c-1.8-4.5-3.3-9.4-4-14.4c-1.8-9.9-1.3-20,1.6-29.4
									c0,4.9,0,9.9,0.2,14.6c0.2,4.7,0.9,9.4,1.6,14.4c0.9,4.7,1.8,9.4,3.1,13.9C57.7,1668.6,59.3,1673.1,60.9,1677.9z"/>
								<path class="st8" d="M44.1,1668.9c-2.7-3.6-4.9-7.4-6.7-11.7c-1.8-4-3.1-8.5-4-12.8c-0.9-4.5-1.6-9-1.6-13.5
									c0.2-4.5,0.9-9,2.5-13.2c0,4.5,0,9,0.4,13.2c0.4,4.3,1.3,8.5,2,12.8c0.7,4.3,1.8,8.5,3.1,12.6
									C41.2,1660.3,42.5,1664.6,44.1,1668.9z"/>
								<path class="st9" d="M101.3,1577c-18.8,2.7-38,1.6-56.5-2.9c-12.9-3.4-19.9-16.6-16.1-27.4c3.6-10.1,14.1-15.9,24.6-13.5
									c14.3,3.6,29.2,4.5,44,2.5c10.5-1.3,20.3,5.6,22.8,15.9C122.9,1562.7,114.4,1575.2,101.3,1577z"/>
								<path class="st13" d="M104.4,1144.5l-16.5,59.3l16.5,59.3c0-49.4,81.9-38.8,81.9-38.8v-40.9
									C186.3,1183.4,104.4,1193.9,104.4,1144.5z"/>
								<path class="st14" d="M98.8,1141.6c-11.4,40.6-11.4,83.8,0,124.2"/>
								<path class="st13" d="M619.2,1144.5l16.5,59.3l-16.5,59.3c0-49.4-81.9-38.8-81.9-38.8v-40.9
									C537.2,1183.4,619.2,1193.9,619.2,1144.5z"/>
								<path class="st14" d="M624.7,1141.6c11.4,40.6,11.4,83.8,0,124.2"/>
								<path class="st15" d="M558.7,1194.6c0,13.7-14.5,25.4-18.1,38.2c-3.6,12.8,2.9,30.5-4,42c-6.9,11.5-25,14.4-34.6,24
									c-9.6,9.7-11.4,28.1-23,35.5c-10.9,7.2-28.8,2-41.5,7c-12.3,4.9-21.4,21.1-35,23.6c-12.9,2.5-27.5-9.2-41.1-9.2
									c-13.6,0-28.1,11.7-41.1,9.2c-13.4-2.5-22.8-18.6-35-23.6c-12.7-4.9-30.6,0.2-41.5-7c-11.4-7.4-13.6-26-22.8-35.5
									c-9.2-9.4-27.7-12.6-34.6-24.3c-6.9-11.7,0.2-28.7-3.3-41.8c-3.6-13-18.1-24.5-18.1-38.2c0-13.7,14.5-25.4,18.1-38.2
									c3.6-12.8-2.9-30.3,4-42c6.9-11.7,25-14.4,34.6-24c9.6-9.7,11.4-28.1,22.8-35.5c10.9-7.2,28.8-2,41.5-7.2
									c12.3-4.9,21.7-21.1,35-23.6c12.9-2.5,27.5,9.2,41.1,9.2s28.1-11.7,41.1-9.2c13.4,2.5,22.8,18.6,35,23.6
									c12.7,4.9,30.6-0.2,41.5,7c11.4,7.4,13.6,26,22.8,35.5c9.2,9.4,27.9,12.6,34.6,24.3c6.7,11.7,0.4,29,4,42
									C544.6,1169.5,558.7,1180.9,558.7,1194.6z"/>
								<path class="st1" d="M276.1,1099.6c-2.5-1.8-5.8-2.2-8.5-0.7c-2.7,1.3-5.1,3.4-6.7,5.8c-1.8,2.5-3.1,5.4-5.1,8.3
									c-1.1,1.3-2.2,2.9-3.6,4c-1.3,1.3-2.9,2.2-4.5,3.1c-6.5,3.1-12.7,4.5-16.3,7.9c-4.2,4-6.3,10.1-5.4,15.9l-0.7,0.2
									c-2.2-2.9-3.1-6.5-2.9-10.1c0.2-3.8,1.8-7.4,4.2-10.3c1.3-1.6,2.7-2.7,4.5-3.6c1.6-0.9,3.3-1.6,5.1-2c3.1-0.7,6-1.6,9.2-2.5
									c5.4-1.8,8.5-7.6,12.9-12.8c2.2-2.7,5.1-4.7,8.5-5.8c1.6-0.4,3.3-0.7,5.1-0.4c1.8,0.2,3.3,1.1,4.5,2.5L276.1,1099.6z"/>
								<path class="st1" d="M446.8,1099.2c1.1-1.3,2.7-2.2,4.5-2.5c1.8-0.2,3.6-0.2,5.1,0.4c3.3,1.1,6.3,3.1,8.5,5.8
									c4.5,5.2,7.4,11,12.9,12.8c2.9,0.9,6,1.8,9.2,2.5c1.8,0.4,3.3,1.1,5.1,2c1.8,0.9,3.1,2.2,4.5,3.6c2.5,2.9,4,6.5,4.2,10.3
									c0.4,3.6-0.7,7.2-2.9,10.1l-0.7-0.2c0.9-5.8-1.1-11.7-5.4-15.9c-3.6-3.4-9.8-4.7-16.3-7.9c-1.6-0.9-3.1-1.8-4.5-3.1
									c-1.3-1.1-2.5-2.5-3.6-4c-2-2.9-3.3-5.6-5.1-8.3c-1.6-2.5-4-4.7-6.7-5.8c-2.7-1.3-6-1.1-8.5,0.7L446.8,1099.2z"/>
								<path class="st1" d="M262.4,1298.6c-0.9,0.9-2,1.6-3.3,1.8c-1.3,0.2-2.5,0-3.8-0.2c-2.5-0.7-4.7-2.2-6.3-4.3
									c-3.1-3.8-5.4-8.1-9.4-9.4c-2.2-0.7-4.5-1.3-6.7-1.8c-1.3-0.4-2.5-0.9-3.8-1.6c-6-3.4-8.3-10.8-4.9-16.8
									c0.2-0.2,0.2-0.7,0.4-0.9l0.4,0.2c-0.7,4.3,0.9,8.5,4,11.7c2.7,2.5,7.1,3.6,11.8,5.8c2.5,1.1,4.5,2.9,5.8,5.2
									c1.6,2,2.5,4.3,3.8,6.1c1.1,1.8,2.9,3.4,4.9,4.3c2,1.1,4.5,0.9,6.3-0.4L262.4,1298.6z"/>
								<path class="st1" d="M463.6,1296.6c1.8,1.3,4,1.6,5.8,0.4c2-0.9,3.6-2.2,4.7-4c1.3-1.8,2.2-3.8,3.6-5.6
									c1.3-2,3.3-3.8,5.6-4.9c4.5-2.2,8.7-2.9,11.2-5.4c2.9-2.9,4.2-7,3.8-11l0.4-0.2c2.9,4.3,2.5,10.1-0.9,14.1
									c-1.8,2-4,3.4-6.7,3.8c-2.2,0.4-4.2,1.1-6.3,1.8c-3.8,1.3-5.8,5.2-8.9,8.8c-1.6,1.8-3.6,3.4-5.8,4c-1.1,0.4-2.5,0.4-3.6,0.2
									c-1.1-0.2-2.2-0.9-3.1-1.8L463.6,1296.6z"/>
								<path class="st1" d="M327.2,1076.5c-0.2-3.8,1.1-7.6,3.8-10.3c1.6-1.3,3.3-2.5,5.4-2.9c2-0.4,4-0.7,6-0.2
									c3.8,0.4,7.4,1.6,10.5,2.2c2.9,0.7,6,0.7,8.9,0c3.1-0.7,6.3-2.2,9.6-3.4c1.8-0.7,3.6-1.1,5.6-1.3c2-0.4,4-0.4,6,0
									c4,0.7,7.6,2.5,10.3,5.4c2.7,2.7,4.5,6.1,5.4,9.7c-2-2.9-4.5-5.2-7.4-7.2c-2.7-1.8-5.8-2.7-8.9-2.9c-1.6,0-2.9,0.2-4.5,0.4
									c-1.6,0.4-3.1,0.9-4.5,1.6c-3.3,1.6-6.7,2.9-10.3,3.8c-4,1.1-8,0.9-11.8-0.2c-3.6-1.1-6.7-2.2-9.8-3.1
									c-1.6-0.4-2.9-0.7-4.5-0.4c-1.6,0-2.9,0.4-4.2,1.3C330.1,1070.4,328.1,1073.3,327.2,1076.5z"/>
								<path class="st1" d="M340.1,1330.9c0.7,2,2.2,3.6,4,4.7c1.8,0.7,3.8,0.7,5.6,0c2-0.7,4-1.8,6.3-2.5c2.5-0.9,4.9-1.1,7.6-0.9
									c4.9,0.9,8.7,3.4,12.5,2.9c4.2-0.7,7.8-3.4,9.8-7.2c-0.4,2.2-1.3,4.5-2.9,6.3c-1.6,2-3.8,3.4-6.3,4
									c-1.3,0.2-2.7,0.4-3.8,0.2c-1.1-0.2-2.5-0.2-3.6-0.7c-2.2-0.7-4.2-1.3-6.3-1.6c-2-0.4-3.8-0.2-5.8,0.4c-2,0.4-4.2,1.6-6.5,2
									c-1.3,0.2-2.5,0.2-3.8,0.2c-1.3-0.2-2.5-0.7-3.6-1.6C341.2,1335.6,340.1,1333.4,340.1,1330.9z"/>
								<path class="st16" d="M356.9,1262.4c-3.3-1.6-6.3-2.9-9.2-4.3c-1.6-0.7-2.9-1.3-4.5-1.8c-1.6-0.4-3.1-1.1-4.9-1.8
									c1.8-0.7,3.6-0.9,5.4-0.7c1.8,0.2,3.6,0.7,5.4,1.3c1.6,0.7,3.1,1.8,4.5,2.9S356,1260.6,356.9,1262.4z"/>
								<path class="st16" d="M366.7,1262.4c0.9-1.6,2-3.1,3.3-4.3c1.3-1.1,2.9-2.2,4.5-2.9c1.6-0.7,3.3-1.1,5.4-1.3
									c1.8-0.2,3.6,0,5.4,0.7c-1.8,0.7-3.3,1.1-4.9,1.8c-1.6,0.7-3.1,1.1-4.5,1.8C372.9,1259.3,370,1260.9,366.7,1262.4z"/>
								<path class="st16" d="M324.7,1276.1c5.8,2.5,11.8,4.3,18.1,4.9c6.3,0.9,12.5,1.3,18.8,1.1c6.3-0.4,12.5-1.1,18.5-2.2
									c6.3-0.9,12.3-2.2,18.3-4l0.2,0.4c-5.4,3.8-11.4,6.7-17.6,8.1c-6.5,1.3-12.9,1.8-19.4,1.6s-12.9-1.1-19.2-2.5
									c-6.3-1.3-12.3-3.6-18.1-6.7L324.7,1276.1z"/>
								<path class="st16" d="M326.7,1214.8c0,0-32.1-52.8-86.8-4C239.9,1210.8,287,1281.3,326.7,1214.8z"/>
								<path class="st17" d="M324.5,1214.8c0,0-27.2-48.3-77.9-3.4C246.6,1211.2,283.9,1268.7,324.5,1214.8z"/>
								<path class="st7" d="M312.7,1213.7c0,11.9-9.6,21.6-21.4,21.6c-11.8,0-21.4-9.7-21.4-21.6c0-11.9,9.6-21.6,21.4-21.6
									C303.1,1192.1,312.7,1201.8,312.7,1213.7z"/>
								<path class="st18" d="M290.6,1201.6c2,1.6,3.6,3.6,4.7,6.1c1.8,4,2.2,8.5,1.1,12.6c-0.7,2.5-2,4.7-3.6,6.5
									c-2-1.6-3.6-3.6-4.7-6.1c-1.8-4-2.2-8.5-0.9-12.6C287.7,1205.6,288.8,1203.4,290.6,1201.6z"/>
								<path class="st15" d="M231.6,1201.6c1.1,6.5,8.7,8.3,15.2,8.1c6.5-0.2,12.7-3.4,19.2-5.2c11.2-3.1,23-2.5,33.7,1.6
									c5.6,2.2,10.9,5.4,16.5,7c5.6,1.6,12.5,1.3,17.2-2.5s4.9-14.1-0.2-17.3l-7.8-4c-13.4-7.6-28.1-9.9-43.5-9.2
									c-18.1,0.7-29.5,4.3-43.3,15.7L231.6,1201.6z"/>
								<path class="st16" d="M231.6,1201.6c0.9,2.5,2.7,4.5,4.9,5.8c2.2,1.1,4.7,1.8,7.1,2c2.5,0,4.9-0.2,7.1-1.1
									c2.5-0.7,4.9-1.8,7.1-2.7c4.9-2.5,10.3-4,15.6-5.2c5.6-0.9,11.2-0.9,16.7-0.2c5.6,0.9,10.9,2.7,15.8,4.9
									c4.5,2.5,9.4,4.3,14.3,5.2c2.5,0.4,4.7,0.2,7.1-0.2c2.2-0.4,4.2-1.6,5.8-3.4c1.6-1.8,2.5-4.3,2.5-6.7
									c0.2-2.7-0.9-5.2-2.9-6.7c1.3,0.7,2.2,1.6,3.1,2.7c0.9,1.1,1.3,2.5,1.6,4c0.4,2.9-0.2,6.1-1.8,8.5c-1.8,2.5-4.2,4.5-7.1,5.4
									c-2.9,0.9-5.8,1.3-8.7,1.1c-6-0.2-11.2-2.7-16.1-4.5c-2.5-1.1-4.7-1.8-7.1-2.7c-2.5-0.7-4.9-1.3-7.4-1.6
									c-4.9-0.7-10-0.9-15-0.2c-5.1,0.7-10,2-15,3.8c-5.1,1.8-10.7,3.4-16.5,2.2c-2.9-0.7-5.4-1.8-7.6-3.6
									C233.4,1207,231.9,1204.3,231.6,1201.6z"/>
								<path class="st19" d="M238.8,1195.7c4.5-6.7,10.9-12.1,18.3-15.5c0.9-0.4,1.8-0.9,2.7-1.3l2.9-0.9c0.9-0.4,2-0.7,2.9-0.9
									l2.9-0.7l2.9-0.7c0.9-0.2,2-0.2,3.1-0.4c2-0.2,4-0.4,6-0.4c8,0,16.1,1.3,23.9,3.8c3.8,1.3,7.4,2.9,11.2,4.5
									c3.6,2,6.9,4,10.3,6.1c-3.8-1.1-7.6-2.5-11.2-3.8l-5.6-1.6c-1.8-0.4-3.6-1.1-5.6-1.6c-3.8-0.9-7.6-1.6-11.4-1.8
									c-1.8-0.2-3.8-0.4-5.6-0.7H281c-7.6,0.2-15,1.6-22.1,4C251.3,1186.5,244.6,1190.6,238.8,1195.7z"/>
								<path class="st16" d="M395.7,1214.8c0,0,32.1-52.8,86.8-4C482.5,1210.8,435.4,1281.3,395.7,1214.8z"/>
								<path class="st17" d="M397.9,1214.8c0,0,27.5-48.3,77.9-3.4C475.8,1211.2,438.6,1268.7,397.9,1214.8z"/>
								<path class="st7" d="M452.6,1213.7c0,11.9-9.6,21.6-21.4,21.6c-11.8,0-21.4-9.7-21.4-21.6c0-11.9,9.6-21.6,21.4-21.6
									C443,1192.1,452.6,1201.8,452.6,1213.7z"/>
								<path class="st18" d="M432.1,1201.6c1.8,2,2.9,4.3,3.6,6.7c0.7,2,0.9,4.3,0.7,6.3c-0.2,2.2-0.7,4.3-1.6,6.3
									c-1.1,2.2-2.7,4.3-4.5,5.8c-1.8-1.8-2.9-4.3-3.6-6.5c-1.1-4.3-0.9-8.8,1.1-12.6C428.5,1205.2,430.1,1203.1,432.1,1201.6z"/>
								<path class="st15" d="M490.8,1201.6c-1.1,6.5-8.7,8.3-15.2,8.1c-6.5-0.2-12.7-3.4-19.2-5.2c-11.2-3.1-23-2.5-33.7,1.6
									c-5.6,2.2-10.9,5.4-16.7,7c-5.8,1.6-12.5,1.3-17.2-2.5c-4.7-3.8-4.9-14.1,0-17.3l7.8-4c13.4-7.6,28.1-9.9,43.5-9.2
									c18.1,0.7,29.5,4.3,43.3,15.7L490.8,1201.6z"/>
								<path class="st16" d="M490.8,1201.6c-0.2,2.9-1.8,5.4-4,7.2c-2.2,1.8-4.9,3.1-7.6,3.6c-5.8,1.1-11.4-0.7-16.5-2.2
									c-4.7-1.8-9.8-3.1-15-3.8c-4.9-0.7-10-0.7-15,0.2c-2.5,0.4-4.9,0.9-7.4,1.6c-2.5,0.7-4.9,1.6-7.1,2.7
									c-4.9,1.8-10,4.3-16.1,4.5c-2.9,0.2-6-0.2-8.7-1.1c-2.9-0.9-5.4-2.9-7.1-5.4c-1.6-2.5-2.2-5.6-1.8-8.5
									c0.2-1.3,0.7-2.7,1.6-4c0.9-1.1,1.8-2,3.1-2.7c-2,1.6-3.1,4-2.9,6.7c0,2.5,0.9,4.7,2.5,6.5c1.6,1.8,3.6,2.9,5.8,3.4
									c2.2,0.4,4.7,0.7,7.1,0.2c4.9-1.1,9.8-2.7,14.3-5.2c5.1-2.5,10.5-4,15.8-4.9c5.6-0.9,11.2-0.7,16.7,0.2
									c5.4,1.1,10.7,2.7,15.6,5.2c2.5,1.1,4.7,2,7.1,2.7c2.2,0.9,4.9,1.1,7.4,1.1c2.5-0.2,4.9-0.9,7.1-2
									C488.1,1205.8,489.9,1203.8,490.8,1201.6z"/>
								<path class="st19" d="M483.9,1195.7c-5.8-5.2-12.5-9.2-19.9-11.7c-7.1-2.5-14.5-4-22.1-4h-5.6c-1.8,0-3.8,0.4-5.6,0.7
									c-3.8,0.4-7.6,1.1-11.4,1.8c-2,0.2-3.8,1.1-5.6,1.6l-5.6,1.6c-3.6,1.3-7.4,2.7-11.2,3.8c3.3-2.2,6.7-4,10.3-6.1
									c3.6-1.6,7.4-3.4,11.2-4.5c7.6-2.5,15.8-3.8,23.9-3.8c2,0,4,0.2,6,0.4c0.9,0.2,2,0.2,3.1,0.4l2.9,0.7l2.9,0.7
									c0.9,0.2,2,0.7,2.9,0.9l2.9,0.9c0.9,0.4,1.8,0.9,2.7,1.3C472.9,1183.6,479.2,1189,483.9,1195.7z"/>
							</g>
						</g>
					</g>
				</g>
			</g>
		</g>
	</g>
</g>
</svg>
