<?xml version="1.0" encoding="utf-8"?>
<!-- Generator: Adobe Illustrator 25.2.0, SVG Export Plug-In . SVG Version: 6.00 Build 0)  -->
<svg version="1.1" id="Layer_1" xmlns="http://www.w3.org/2000/svg" xmlns:xlink="http://www.w3.org/1999/xlink" x="0px" y="0px"
	 viewBox="0 0 223.7 422.9" style="enable-background:new 0 0 223.7 422.9;" xml:space="preserve">
<style type="text/css">
	.st0{fill:#612B89;}
	.st1{fill:#61498A;}
	.st2{fill:#8463BE;}
	.st3{fill:#7256A5;}
	.st4{fill:#240360;}
	.st5{fill:#E19D35;}
	.st6{fill:#FAAF3B;}
	.st7{fill:#90BD4A;}
	.st8{fill:#7EA540;}
	.st9{fill:#FAAA2D;}
	.st10{fill:#2E047A;}
	.st11{fill:#A87DF1;}
	.st12{fill:#F1F1F1;}
	.st13{fill:#EE8031;}
	.st14{fill:#7333A2;}
	.st15{fill:#853BBC;}
	.st16{fill:#472063;}
	.st17{fill:#3B224D;}
	.st18{clip-path:url(#SVGID_2_);}
	.st19{fill:#FFFFFF;}
	.st20{fill:#261234;}
	.st21{fill:#8F5CB5;}
	.st22{clip-path:url(#SVGID_4_);}
	.st23{fill:#7333A3;}
	.st24{fill:#7356A4;}
	.st25{fill:#FAC26C;}
</style>
<g id="b-leg">
	<path class="st0" d="M80.4,366c-1.1-5-2.3-10-3.4-15l-3.6-15c-1.2-5-2.4-10-3.7-15l-1.9-7.5c-0.3-1.3-0.6-2.1-1-4.5l-0.3-1.5
		l-0.2-1.5c-0.1-1-0.2-2.1-0.2-3.1c-0.2-8.5,2.3-16.8,7.1-23.8c2.4-3.6,5.4-6.7,8.8-9.4c1.7-1.3,3.5-2.5,5.4-3.6
		c0.9-0.5,1.9-1,2.9-1.5l2.5-1.1c9.4-4.2,18.8-8.4,28.1-12.9l13.4,37.7c-10,2.5-20,5.1-29.9,7.8l-0.8,0.2l-0.3,0
		c-0.2,0-0.4,0.1-0.6,0.1c-0.4,0.1-0.8,0.2-1.2,0.4c-0.8,0.3-1.5,0.8-2.2,1.4c-1.4,1.3-2.3,3-2.7,4.9c-0.1,1.1-0.3,1.4,0.2,4.6
		l1,7.6c0.7,5.1,1.4,10.2,2.2,15.3l2.2,15.3c0.8,5.1,1.6,10.1,2.4,15.2L80.4,366z"/>
	<path class="st1" d="M48.7,417.9l-10.1-1.1c-4.6-0.5-8-4.6-7.6-9.2c0,0,0-0.1,0-0.1l0.7-5.4l27.3,3.1l-0.7,5.4
		C57.7,415.2,53.4,418.5,48.7,417.9z"/>
	<path class="st1" d="M84.9,416.2l9.9-2.1c4.6-0.9,7.6-5.3,6.7-9.9c0,0,0-0.1,0-0.1l-1.2-5.3l-26.9,5.7l1.2,5.3
		C75.7,414.4,80.3,417.2,84.9,416.2z"/>
	<path class="st2" d="M114.6,379.9l-0.5-9.4c-0.3-4.4-4.5-7.9-9.6-7.6l-5.9,0.2l1.5,25.4l5.9-0.2C111,388.1,114.9,384.3,114.6,379.9
		z"/>
	<path class="st3" d="M107.5,391.1c-0.5,2.2-1.1,4.3-1.8,6.4c-5,14.1-70.6,19.7-80.8,4c-0.9-1.8-1.4-3.7-1.6-5.7
		c-1.9-22.4,46.4-40.3,46.4-40.3l33.8-1.7C108.8,365.5,110.2,378.6,107.5,391.1z"/>
	<path class="st4" d="M107.5,391.1c-15.2,9.7-65.3,13.5-84.2,4.7c-1.9-22.4,46.4-40.3,46.4-40.3l33.8-1.7
		C108.8,365.5,110.2,378.6,107.5,391.1z"/>
	<path class="st5" d="M100.3,358.1c-10.7,2.2-21.8,2.5-32.6,0.9c-7.7-1.1-12.3-7.5-10.5-13l0,0c1.8-5.5,7.8-8.6,13.5-7.8
		c8.5,1.2,17.1,1,25.5-0.7c5.7-1.1,11.8,1.6,13.9,7.1l0,0C112.1,349.9,107.9,356.5,100.3,358.1z"/>
	<path class="st6" d="M99.9,344.4c-10.7,2.2-21.8,2.5-32.6,0.9c-7.7-1.1-12.3-7.5-10.5-13l0,0c1.8-5.5,7.8-8.6,13.5-7.8
		c8.5,1.2,17.1,1,25.5-0.7c5.7-1.1,11.8,1.6,13.9,7l0,0C111.7,336.2,107.5,342.9,99.9,344.4z"/>
</g>
<g id="b-arm">
	<path class="st0" d="M88.4,188.3c-6.2-4.8-11.9-10.1-17.2-15.9c-5.3-5.8-9.9-12.2-13.8-19c-3.8-6.6-6.9-13.5-9.3-20.7
		c-1.2-3.5-2.2-7-3.1-10.5c-0.4-1.7-0.9-3.5-1.3-5.2l-0.6-2.6l-0.3-1.3l-0.1-0.7l-0.1-0.3V112v-0.1c4.3-1.4-9.5,3.1,9.5-3.2
		s5.3-1.7,9.6-3.1l0,0l0,0v0.1l0.1,0.1l0.1,0.3l0.3,0.5l0.5,1.1l1.1,2.1c0.7,1.4,1.5,2.8,2.2,4.2c1.5,2.7,3.1,5.4,4.8,7.9
		c3.2,4.9,6.8,9.6,10.9,13.8c3.9,4,8.3,7.6,12.9,10.6c4.7,3.1,9.7,5.8,14.9,8L88.4,188.3z"/>
</g>
<g id="b-hand">
	<g id="b-hand-2">
		<path class="st7" d="M51.4,95.8c-5.6-7.1-9.8-15.3-12.2-24.1v-0.1c-0.9-3.3-3.7-5.7-6.3-5.5c-2.3,0.2-3.7,2.4-3.3,5.2
			c0.8,5.7,2.2,11.3,4.1,16.6c2,5.6,4.6,11,7.7,16.2l0.1,0.2c2.5,4.2,7.1,6.1,10.1,4.1s3.4-7,0.8-11.3C52,96.7,51.7,96.2,51.4,95.8z
			"/>
		<path class="st7" d="M45.8,93.7C38,87.3,31.6,79.3,26.9,70.4l-0.1-0.1c-1.7-3.4-5.4-5.3-8.1-4.3c-2.5,0.9-3.4,3.8-2.4,6.8
			c2.1,6.1,4.9,11.9,8.3,17.3c3.5,5.6,7.5,10.9,12.1,15.8L37,106c3.8,4,9.1,4.7,11.8,1.7s2-8.8-1.8-12.8
			C46.7,94.4,46.3,94,45.8,93.7z"/>
		<path class="st7" d="M36.8,93.8C28.5,88,21.7,80.4,16.7,71.6l-0.1-0.1c-1.9-3.3-5.7-5-8.5-3.7C5.6,68.9,4.7,72,5.8,75
			c2.4,6,5.5,11.8,9.1,17.2c3.7,5.5,8.1,10.6,12.9,15.1l0.2,0.2c4,3.8,9.5,4,12.3,0.5s1.8-9.3-2.2-13.1
			C37.7,94.5,37.3,94.2,36.8,93.8z"/>
		<path class="st7" d="M32.4,100.7c-8.5-5.6-15.6-13-20.6-21.8l-0.1-0.1c-1.9-3.3-5.8-4.8-8.8-3.2c-2.6,1.4-3.6,4.7-2.4,7.8
			c2.4,6.1,5.5,11.9,9.2,17.3c3.8,5.5,8.3,10.5,13.3,14.9l0.2,0.2c4.1,3.6,9.8,3.5,12.7-0.3s2-9.9-2.1-13.5
			C33.3,101.3,32.9,101,32.4,100.7z"/>
		<path class="st7" d="M54,112.6L54,112.6c3.5-4.6,2.9-11.2-1.4-15.1l-10.1-9c-6.5-5.2-17.1-2.8-22,2.8l0,0
			c-6.2,7.2-4.5,19.6,4.3,25.3l0.7,0.5C35.2,123.2,47.8,121.1,54,112.6z"/>
		<path class="st7" d="M55.3,110.2c7.9-11,3.1-24.7-2.7-33.6c-0.5-0.9-1.2-1.7-2.2-2.1c-1.2-0.5-2.5-0.4-3.6,0.4
			c-0.4,0.3-0.8,0.8-0.9,1.3c-0.3,0.8-0.3,1.6-0.1,2.3c0.7,3.1,2.6,13.3-1.5,16.2L55.3,110.2z"/>
		<path class="st8" d="M22.3,92.6c-1.9-1.4-3.6-3-5.2-4.7c-1.6-1.7-3.1-3.6-4.4-5.6c-0.7-1-1.2-2-1.8-3c-0.5-0.9-1.1-1.8-1.9-2.4
			c-1.6-1.5-3.9-2-6.1-1.4c1-0.8,2.2-1.1,3.5-1.1c1.3,0.1,2.5,0.5,3.6,1.2c1.1,0.7,2,1.7,2.6,2.8c0.6,1,1.2,1.9,1.8,2.9
			c1.2,1.9,2.5,3.8,3.8,5.7S21,90.6,22.3,92.6z"/>
		<path class="st8" d="M46.7,89.1c-1.8,0.7-3.6,1.3-5.3,2c-1.7,0.7-3.3,1.6-4.8,2.7c-1.4,1.1-2.6,2.4-3.5,4
			c-0.9,1.6-1.4,3.5-1.4,5.3c-0.6-1.9-0.5-3.9,0.3-5.7c0.8-1.9,2-3.5,3.6-4.8c1.6-1.2,3.4-2.1,5.4-2.6
			C42.9,89.4,44.8,89.1,46.7,89.1z"/>
		<path class="st8" d="M28.4,87.5c-1.9-1.7-3.6-3.5-5.3-5.4c-1.7-1.9-3.2-3.9-4.7-6c-0.7-1-1.4-2.1-2.1-3.2l-0.9-1.6
			c-0.3-0.5-0.7-0.9-1.1-1.3c-1.6-1.8-4.1-2.6-6.5-2.1c1.1-0.7,2.5-0.9,3.8-0.6c1.3,0.3,2.5,0.9,3.6,1.8c0.5,0.5,1,0.9,1.3,1.5
			c0.4,0.6,0.7,1.1,1,1.6c0.6,1,1.3,2.1,2,3.1c1.4,2,2.9,4.1,4.3,6.1L28.4,87.5z"/>
		<path class="st8" d="M36.5,84.8c-1.6-1.6-3.2-3.3-4.5-5.1c-1.4-1.8-2.7-3.7-3.9-5.7c-0.6-1-1.1-2-1.6-3c-0.5-1-1.1-1.9-1.8-2.6
			c-0.7-0.8-1.6-1.4-2.6-1.8c-0.5-0.2-1-0.4-1.6-0.5c-0.6-0.1-1.1,0-1.7,0.1c1.1-0.5,2.3-0.6,3.5-0.3c1.2,0.3,2.3,0.9,3.2,1.7
			c0.9,0.8,1.7,1.8,2.2,2.8c0.5,1,1.1,2,1.6,3C31.6,77.2,34,81,36.5,84.8z"/>
	</g>
	<path class="st9" d="M57.6,99.7c-7.9,3.3-15,8.1-21,14.2c-4.3,4.3-3.9,11,0.1,14.1l0,0c3.7,3,9,2.8,12.5-0.5
		c4.7-4.7,10.2-8.5,16.4-11.1c4.4-1.9,6.6-6.8,5.1-11.4l0,0C69.2,100.2,63.1,97.3,57.6,99.7z"/>
</g>
<g id="body">
	
		<ellipse transform="matrix(8.385172e-02 -0.9965 0.9965 8.385172e-02 -136.5344 376.8038)" class="st3" cx="136.7" cy="262.7" rx="21.6" ry="40.4"/>
	<path class="st10" d="M210.2,135.8c-48.8,20-92.2,19.8-142.1,2.6c-2.6,6.8-4.9,13.7-6.8,20.7c-16,59.4,27,118.5,84.8,116.9l0,0
		c57.7-1.6,91.5-61.4,72.2-119.9C215.9,149.2,213.3,142.4,210.2,135.8z"/>
	
		<ellipse transform="matrix(0.9902 -0.1399 0.1399 0.9902 -35.899 23.8283)" class="st2" cx="151.6" cy="267.3" rx="40.4" ry="21.6"/>
	<path class="st11" d="M195.3,151.7c-12.6,8-30.9,14.5-52.2,17.3c-50.3,6.7-89.5-10.2-78.3-33.7c0.1-0.3,0.2-0.5,0.4-0.8
		c0,0,0-0.1,0-0.1c2.6-5,7.7-8.2,13.4-8.2c38.7,0.3,77.3-4.9,114.6-15.3c5.5-1.5,11.3,0.2,15.2,4.4c0,0,0,0,0.1,0.1
		c0.2,0.2,0.4,0.4,0.6,0.7C219,127.3,212.3,140.9,195.3,151.7z"/>
	
		<ellipse transform="matrix(0.9996 -2.809627e-02 2.809627e-02 0.9996 -5.0574 4.0952)" class="st2" cx="143.2" cy="182" rx="27.4" ry="33.6"/>
	<path class="st12" d="M51.7,193.3c0-4.4,3.9-7.1,7.1-5.1c7.5,4.7,20.1,8.3,33.2,8.6c16.8,0.3,19,41.7,9.4,61
		c-2.9,5.8-9,7.9-14.2,5.3C75.3,256.8,51.5,238.9,51.7,193.3z"/>
	
		<ellipse transform="matrix(0.9966 -8.280820e-02 8.280820e-02 0.9966 -17.0959 8.3144)" class="st7" cx="91.7" cy="210.3" rx="3.9" ry="4.2"/>
	
		<ellipse transform="matrix(0.9966 -8.280820e-02 8.280820e-02 0.9966 -16.9498 7.3688)" class="st13" cx="80.4" cy="208" rx="3.9" ry="4.2"/>
	
		<ellipse transform="matrix(0.9966 -8.280820e-02 8.280820e-02 0.9966 -16.8019 6.4637)" class="st7" cx="69.5" cy="205.8" rx="3.9" ry="4.2"/>
</g>
<g id="head">
	<path class="st14" d="M214.8,89.2c1.5-5.6,8.1-10.9,8-16.8s-7.1-10.9-8.9-16.4s1-13.3-2.4-18.3s-11.9-5.9-16.4-10.1
		s-5.7-12.1-11.1-15.2c-5.2-3-13.5-0.5-19.5-2.5c-5.8-2-10.3-8.9-16.6-9.8c-6.1-0.9-12.7,4.3-19.1,4.5S115.5,0,109.5,1.2
		c-6.2,1.3-10.4,8.4-16,10.7c-5.9,2.4-14.3,0.3-19.3,3.6c-4.7,3.1-5.8,10-9.1,14.4c-1,1.3-1.9,2.7-2.6,4.2
		c-3.7,7.7-12.9,30.4-8.3,56.8c-0.9,1-6.6,8.2,2.9,11.8c0.2,0.5,0.3,1,0.5,1.5c2,5.7,4.6,11.1,7.7,16.2c0.1,0.1,0.1,0.2,0.2,0.3
		c0.6,0.9,1.3,1.8,2,2.6c3.7,4.2,5.1,11.3,10.1,14.2c5.2,3,13.5,0.5,19.5,2.5c5.8,1.9,10.3,8.9,16.6,9.8c6,0.9,12.7-4.4,19.1-4.5
		s13.3,4.7,19.3,3.4c6.2-1.3,10.4-8.4,16.1-10.7c5.8-2.4,14.2-0.3,19.3-3.6c5.2-3.4,6-11.5,10.2-15.8s12.8-5.9,15.9-11
		S213.3,94.9,214.8,89.2z"/>
	<path class="st0" d="M172.8,32c0.5-0.6,1.2-1,1.9-1.1c0.8-0.1,1.5-0.1,2.3,0.1c1.5,0.4,2.9,1.2,3.9,2.4c2,2.2,3.5,4.7,5.9,5.4
		c1.3,0.4,2.7,0.7,4.1,1c0.8,0.2,1.5,0.4,2.3,0.8c0.8,0.4,1.5,0.9,2.1,1.5c1.2,1.2,1.9,2.8,2.1,4.5c0.2,1.6-0.2,3.2-1.1,4.5
		l-0.3-0.1c0.3-2.6-0.7-5.2-2.6-6.9c-1.6-1.4-4.4-1.9-7.4-3.2c-0.7-0.3-1.4-0.8-2.1-1.3c-0.6-0.5-1.1-1.1-1.6-1.7
		c-0.9-1.2-1.6-2.5-2.4-3.6c-0.8-1.1-1.9-2-3.1-2.5c-1.2-0.6-2.7-0.4-3.8,0.4L172.8,32z"/>
	<path class="st0" d="M182.6,117.8c0.8,0.5,1.8,0.6,2.6,0.1c0.8-0.4,1.5-1,2-1.8c0.5-0.8,1-1.7,1.6-2.5c0.6-0.9,1.4-1.7,2.4-2.2
		c2-1,3.9-1.4,5-2.5c1.3-1.3,1.9-3.1,1.5-4.8l0.2-0.1c1.4,1.9,1.2,4.5-0.3,6.2c-0.8,0.9-1.8,1.5-2.9,1.8c-0.9,0.2-1.9,0.5-2.8,0.8
		c-1.6,0.6-2.6,2.4-3.9,4c-0.7,0.8-1.6,1.5-2.6,1.8c-0.5,0.2-1,0.2-1.6,0.2c-0.5-0.1-1-0.3-1.4-0.7L182.6,117.8z"/>
	<path class="st0" d="M119,23.7c-0.2-1.7,0.5-3.4,1.7-4.6c0.7-0.6,1.5-1.1,2.3-1.3c0.9-0.2,1.8-0.3,2.7-0.2c1.7,0.1,3.2,0.6,4.7,0.9
		c1.3,0.3,2.7,0.2,4-0.1c1.4-0.4,2.7-1,4.3-1.6c0.8-0.3,1.6-0.5,2.4-0.7c0.9-0.2,1.8-0.2,2.7-0.1c1.8,0.2,3.4,1,4.7,2.2
		c1.2,1.1,2.1,2.6,2.6,4.1c-0.9-1.2-2.1-2.3-3.4-3.1c-1.2-0.7-2.6-1.1-4-1.1c-0.7,0-1.3,0.1-2,0.3c-0.7,0.2-1.4,0.5-2,0.8
		c-1.5,0.7-3,1.3-4.5,1.8c-1.7,0.5-3.6,0.5-5.3,0c-1.6-0.4-3.1-0.9-4.5-1.3c-0.7-0.2-1.3-0.2-2-0.2c-0.7,0.1-1.3,0.3-1.9,0.6
		C120.2,21,119.4,22.3,119,23.7z"/>
	<path class="st0" d="M85.3,121.4c0.8,0.4,1.8,0.6,2.8,0.4c0.8-0.3,1.5-0.8,1.9-1.6c0.4-0.8,0.8-1.7,1.3-2.6c0.5-1,1.3-1.9,2.3-2.5
		c1.9-1.1,3.9-1.5,5-2.7c1.2-1.5,1.7-3.4,1.2-5.2c0.5,0.9,0.8,1.9,0.8,3c0,1.1-0.3,2.2-1,3.1c-0.3,0.5-0.7,0.9-1.2,1.2
		c-0.4,0.3-0.9,0.6-1.4,0.8c-0.9,0.5-1.8,0.8-2.6,1.3c-0.7,0.4-1.4,1.1-1.8,1.8c-0.5,0.8-1,1.7-1.6,2.6c-0.3,0.5-0.8,0.9-1.2,1.2
		c-0.5,0.3-1.1,0.5-1.6,0.5C87.1,122.7,86.1,122.3,85.3,121.4z"/>
	
		<ellipse transform="matrix(0.9996 -2.809610e-02 2.809610e-02 0.9996 -2.1377 3.9063)" class="st15" cx="137.9" cy="78" rx="23.1" ry="29.6"/>
	
		<ellipse transform="matrix(0.9996 -2.809610e-02 2.809610e-02 0.9996 -2.1377 3.9063)" class="st16" cx="137.9" cy="78" rx="16.1" ry="20.6"/>
	<path class="st17" d="M57.4,80.1c0,0,5.1-26.1,26.4-12.5C83.8,67.6,75.6,102.9,57.4,80.1z"/>
	<g>
		<defs>
			<path id="SVGID_1_" d="M58.1,79.8c0,0,4.1-23.6,23.7-11.1C81.8,68.6,75.4,97.3,58.1,79.8z"/>
		</defs>
		<clipPath id="SVGID_2_">
			<use xlink:href="#SVGID_1_"  style="overflow:visible;"/>
		</clipPath>
		<g class="st18">
			<path class="st19" d="M58.1,79.8c0,0,4.1-23.6,23.7-11.1C81.8,68.6,75.4,97.3,58.1,79.8z"/>
			
				<ellipse transform="matrix(4.363469e-03 -1 1 4.363469e-03 -12.3831 139.9489)" class="st7" cx="64.1" cy="76.2" rx="9.4" ry="6.8"/>
			<path class="st20" d="M60.7,71.1c0.8,0.7,1.5,1.5,1.9,2.5c0.4,0.8,0.7,1.7,0.8,2.6c0.1,0.9,0.1,1.8,0,2.8c-0.2,1-0.5,2-1.1,2.9
				c-0.8-0.7-1.5-1.5-1.9-2.5c-0.4-0.8-0.7-1.7-0.8-2.6c-0.1-0.9-0.1-1.9,0-2.8C59.7,73,60.1,72,60.7,71.1z"/>
		</g>
	</g>
	<path class="st14" d="M88.8,71.3c-0.4,2.9-3.2,3.9-5.7,4.1s-4.7-1-7.1-1.5c-4.3-0.9-8.8-0.2-12.6,2c-2.1,1.2-3.9,3-6.2,3.7
		s-3.5,0-6.1-0.8c-2.2-0.7-2.1-5.5-0.2-7l2.9-2.1c4.7-3.5,10.3-5.5,16.2-5.7l0,0c6.7-0.4,11,0.7,16.2,5.1L88.8,71.3z"/>
	<path class="st17" d="M88.8,71.3c0,0.9-0.3,1.8-0.8,2.6c-0.5,0.8-1.2,1.5-2,2c-0.8,0.5-1.8,0.9-2.7,1c-1,0.1-1.9,0.1-2.9-0.1
		c-1.8-0.3-3.5-1-5-1.3c-1.6-0.4-3.1-0.5-4.7-0.4c-1.6,0.1-3.1,0.5-4.7,1c-1.6,0.5-3.1,1.2-4.5,2.1c-0.8,0.4-1.5,0.8-2.4,1.2
		c-0.9,0.4-1.8,0.7-2.7,0.8c-1.8,0-3.6-0.4-5.2-1.3c1.7,0.2,3.4,0.2,5-0.1c0.7-0.3,1.4-0.6,2.1-1.1c0.7-0.4,1.4-0.9,2.1-1.4
		c1.4-1.1,3-1.9,4.7-2.7c1.7-0.7,3.6-1.1,5.4-1.2c1.9-0.1,3.8,0.1,5.6,0.6c1.8,0.5,3.4,1.3,4.9,1.8c1.4,0.5,3,0.5,4.5,0
		C86.9,74.1,88.2,72.8,88.8,71.3z"/>
	<path class="st21" d="M86.1,69.1c-2.1-2-4.7-3.5-7.5-4.4c-2.7-0.9-5.6-1.1-8.4-0.8c-0.7,0.1-1.4,0.2-2.1,0.3L66,64.6
		c-0.7,0.1-1.4,0.3-2.1,0.6c-0.7,0.2-1.4,0.5-2.1,0.7l-4.1,1.8c-1.3,0.7-2.6,1.3-4,2c1.1-1,2.3-1.9,3.5-2.9s2.6-1.6,3.9-2.3
		c2.8-1.4,5.8-2.3,8.8-2.7c0.8-0.1,1.6-0.1,2.3-0.1h1.2c0.4,0,0.8,0.1,1.2,0.2c0.8,0.1,1.5,0.3,2.3,0.5c0.8,0.2,1.5,0.5,2.2,0.8
		C82.1,64.4,84.5,66.5,86.1,69.1z"/>
	<path class="st17" d="M55.5,99c0-0.5,0.1-1.1,0.3-1.6c0.2-0.5,0.6-0.9,1-1.3c0.4-0.4,0.9-0.7,1.4-0.8c0.6-0.2,1.1-0.1,1.7,0.1
		c-0.4,0.3-0.8,0.6-1.2,0.9c-0.3,0.3-0.7,0.6-1,0.9C57.1,97.8,56.4,98.5,55.5,99z"/>
	<g>
		<defs>
			<path id="SVGID_3_" d="M214.8,89.2c-1.5,5.7,1.7,13.2-1.3,18.4s-11.6,6.6-15.9,11s-5,12.4-10.2,15.8c-5.1,3.3-13.4,1.3-19.3,3.6
				c-5.6,2.3-9.8,9.4-16.1,10.7c-6,1.2-12.9-3.6-19.3-3.4s-13,5.4-19.1,4.5c-6.3-0.9-10.9-7.8-16.6-9.8c-6-2-14.3,0.5-19.5-2.5
				c-5-2.9-6.5-9.9-10.1-14.2c-0.7-0.8-1.4-1.7-2-2.6c-0.1-0.1-0.1-0.2-0.2-0.3c-3.1-5.1-5.7-10.5-7.7-16.2
				c-11.2-31.8,0.6-61,4.9-70c0.7-1.5,1.6-2.9,2.6-4.2c3.2-4.4,4.4-11.3,9.1-14.4c5-3.3,13.4-1.3,19.3-3.6c5.7-2.3,9.8-9.4,16-10.7
				c6-1.2,12.9,3.6,19.3,3.4s13-5.4,19.1-4.5c6.3,0.9,10.9,7.8,16.6,9.8c6,2,14.2-0.5,19.5,2.5c5.4,3.1,6.7,11.2,11.1,15.2
				s13.1,5.2,16.4,10.1s0.5,12.7,2.4,18.3s8.7,10.4,8.9,16.4S216.4,83.6,214.8,89.2z"/>
		</defs>
		<clipPath id="SVGID_4_">
			<use xlink:href="#SVGID_3_"  style="overflow:visible;"/>
		</clipPath>
		<g class="st22">
			<path class="st17" d="M54.8,107.3c1.3-0.1,2.6-0.2,3.8-0.4c1.2-0.2,2.5-0.4,3.7-0.8c1.2-0.4,2.3-0.8,3.5-1.1
				c1.3-0.2,2.7-0.3,4-0.2l0.1,0.3c-0.8,1.1-2,2-3.3,2.6c-1.3,0.5-2.6,0.7-4,0.6c-1.3,0.1-2.7,0.1-4-0.1c-1.3-0.1-2.6-0.4-3.9-0.8
				L54.8,107.3z"/>
		</g>
	</g>
</g>
<g id="f-leg">
	<path class="st23" d="M97.6,371c-1.1-5-2.3-10-3.4-15l-3.6-15c-1.2-5-2.4-10-3.7-15l-1.9-7.5c-0.3-1.3-0.6-2.1-1-4.5l-0.3-1.5
		l-0.2-1.5c-0.1-1-0.2-2.1-0.2-3.1c-0.2-8.5,2.3-16.8,7.1-23.8c2.4-3.5,5.4-6.7,8.8-9.4c1.7-1.3,3.5-2.5,5.4-3.6
		c0.9-0.5,1.9-1,2.9-1.5l2.5-1.1c9.4-4.2,18.8-8.4,28.1-12.9c10-4.7,22-0.5,26.8,9.6c4.7,10,0.5,22-9.6,26.8c-1.2,0.6-2.5,1-3.8,1.3
		c-10,2.5-20,5.1-29.9,7.8l-0.8,0.2l-0.3,0.1c-0.2,0-0.4,0.1-0.6,0.1c-0.4,0.1-0.8,0.2-1.2,0.4c-0.8,0.3-1.5,0.8-2.2,1.4
		c-1.4,1.3-2.4,3-2.7,4.9c-0.1,1.1-0.3,1.3,0.2,4.6l1,7.6c0.7,5.1,1.4,10.2,2.2,15.3l2.3,15.2c0.8,5.1,1.6,10.2,2.4,15.2
		c1.3,6.7-3.1,13.3-9.8,14.6C105.5,382.2,98.9,377.7,97.6,371L97.6,371z"/>
	<path class="st24" d="M65.9,422.9l-10.1-1.1c-4.7-0.4-8.1-4.6-7.6-9.2c0,0,0-0.1,0-0.1l0.7-5.4l27.4,3.1l-0.7,5.4
		C74.9,420.1,70.6,423.4,65.9,422.9z"/>
	<path class="st24" d="M102.2,421.2l9.9-2.1c4.6-0.9,7.6-5.3,6.7-9.9c0,0,0-0.1,0-0.1l-1.2-5.3l-26.9,5.7l1.2,5.3
		C93,419.4,97.6,422.2,102.2,421.2z"/>
	<path class="st2" d="M131.9,384.9l-0.5-9.4c-0.3-4.4-4.5-7.9-9.6-7.6l-5.9,0.2l1.5,25.4l5.9-0.2C128.2,393,132.1,389.3,131.9,384.9
		z"/>
	<path class="st2" d="M124.7,396.1c-0.5,2.2-1.1,4.3-1.8,6.4c-5,14.1-70.6,19.7-80.8,4c-0.9-1.8-1.4-3.7-1.6-5.7
		c-1.9-22.4,46.4-40.3,46.4-40.3l33.8-1.7C126,370.5,127.5,383.6,124.7,396.1z"/>
	<path class="st10" d="M124.7,396.1c-15.2,9.7-65.3,13.5-84.2,4.7c-1.9-22.4,46.4-40.3,46.4-40.3l33.8-1.7
		C126.1,370.5,127.5,383.6,124.7,396.1z"/>
	<path class="st6" d="M117.5,363c-10.7,2.2-21.8,2.5-32.6,0.9c-7.7-1.1-12.3-7.5-10.5-13l0,0c1.8-5.6,7.8-8.6,13.5-7.8
		c8.5,1.2,17.1,1,25.5-0.7c5.7-1.1,11.8,1.6,13.9,7.1l0,0C129.4,354.8,125.1,361.5,117.5,363z"/>
	<path class="st25" d="M117.1,349.4c-10.7,2.2-21.8,2.5-32.6,0.9c-7.7-1.1-12.3-7.5-10.5-13l0,0c1.8-5.5,7.8-8.6,13.5-7.8
		c8.5,1.2,17.1,1,25.5-0.7c5.7-1.1,11.8,1.6,13.9,7l0,0C129,341.2,124.7,347.9,117.1,349.4z"/>
</g>
<g id="f-arm">
	<path class="st23" d="M157.1,170.5c5.7,5,10.9,10.5,15.6,16.5c4.7,6,8.8,12.4,12.2,19.3c3.2,6.6,5.8,13.6,7.7,20.7
		c1,3.5,1.8,7,2.4,10.4c0.3,1.7,0.7,3.5,0.9,5.2l0.4,2.6l0.2,1.3l0.1,0.6v0.3v0.2v0.1c-3.5,0.8,7.8-1.8-7.8,1.9s-4.3,1-7.8,1.8v-0.1
		v-0.1l-0.1-0.1l-0.1-0.3l-0.2-0.6l-0.4-1.1l-0.8-2.3c-0.6-1.5-1.2-3-1.8-4.4c-1.2-2.9-2.5-5.8-3.9-8.5c-2.7-5.4-5.9-10.5-9.5-15.3
		c-3.5-4.6-7.6-8.8-12-12.5c-4.5-3.7-9.3-7.1-14.4-10c-7.7-4.5-10.2-14.4-5.7-22c4.5-7.7,14.4-10.2,22-5.7l0,0
		c0.9,0.5,1.8,1.1,2.5,1.8L157.1,170.5z"/>
</g>
<g id="f-hand">
	<path class="st7" d="M177.3,279.9c-3.5,5-3.6,8.1-3.7,12.5c-0.1,0.7-0.4,1.4-1,1.9c-1.5,1.3-4.2,0.7-5.6-0.4c-2.5-2-4.1-4.8-4.5-8
		c-1.6-9,1.4-23.5,10-30.9L177.3,279.9z"/>
	<path class="st7" d="M203.9,249.1c6.8,5,10.5,15.3,11.1,23.5v0.6l-40.4,9.8l-2-28L203.9,249.1z"/>
	<path class="st7" d="M176.2,284.4c3,5.8,4.3,12.4,3.7,18.9v0.1c-0.2,2.4,1.6,4.5,4,4.7c0.1,0,0.2,0,0.2,0c2.3,0.2,4.3-1.2,5-3.4
		c1.2-4.1,1.7-8.3,1.7-12.6c-0.1-4.3-0.7-8.5-2-12.6l-0.1-0.2c-1.2-3.5-4.9-5.3-8.4-4.2c-3.5,0.9-5.6,4.5-4.6,8c0,0,0,0.1,0,0.1
		C175.9,283.7,176,284.1,176.2,284.4z"/>
	<path class="st7" d="M184.5,280c3.2,5.8,4.4,12.4,3.6,19v0.1c-0.3,2.5,1.7,4.6,4.5,4.7c2.4,0.1,4.6-1.3,5.5-3.5
		c1.3-4.1,2-8.3,2-12.6c0-4.3-0.6-8.6-1.9-12.7l-0.1-0.2c-1.1-3.4-5.1-5.2-9-4s-6.2,4.8-5.1,8.2C184.1,279.3,184.3,279.7,184.5,280z
		"/>
	<path class="st7" d="M193.1,276.9c3.2,5.8,4.5,12.4,3.6,19v0.1c-0.3,2.5,1.7,4.6,4.5,4.7c2.4,0.1,4.6-1.3,5.5-3.5
		c2.7-8.2,2.7-17.1,0.1-25.3v-0.2c-1.1-3.4-5.1-5.2-9-4s-6.2,4.8-5.1,8.2C192.8,276.2,193,276.5,193.1,276.9z"/>
	<path class="st7" d="M199.8,272.8c3.2,5.8,4.5,12.4,3.6,19v0.1c-0.3,2.5,1.7,4.6,4.5,4.7c2.4,0.1,4.6-1.3,5.5-3.5
		c2.7-8.2,2.7-17.1,0.1-25.3v-0.2c-1.1-3.4-5.1-5.2-9-4s-6.2,4.8-5.1,8.2C199.6,272.1,199.7,272.5,199.8,272.8z"/>
	<path class="st8" d="M188.7,304.9c0.4-2.1,0.7-4.3,0.9-6.4c0.4-4.2,0.4-8.5,0-12.7c-0.2-2.1-0.5-4.2-0.9-6.4
		c1.8,4,2.8,8.3,2.7,12.7c0,2.2-0.3,4.4-0.7,6.5C190.3,300.9,189.6,302.9,188.7,304.9z"/>
	<path class="st8" d="M198.2,299.7c0.4-2.1,0.7-4.3,0.9-6.4c0.4-4.2,0.4-8.5,0-12.7c-0.2-2.1-0.5-4.2-0.9-6.4
		c1.9,4,2.8,8.3,2.8,12.7c0,2.2-0.2,4.4-0.7,6.5C199.9,295.7,199.2,297.8,198.2,299.7z"/>
	<path class="st8" d="M207,296c0.4-2.1,0.7-4.3,0.9-6.4c0.4-4.2,0.4-8.5,0-12.7c-0.2-2.1-0.5-4.2-0.9-6.4c1.8,4,2.8,8.3,2.7,12.7
		c0,2.2-0.2,4.4-0.7,6.5C208.6,292,208,294,207,296z"/>
	<path class="st9" d="M176.5,257.5c8.5-0.1,16.9-1.8,24.8-5.1c5.6-2.3,7.8-8.7,5.3-13.1l0,0c-2.2-4.2-7.3-6.1-11.7-4.3
		c-6.1,2.6-12.7,3.9-19.4,4c-4.8,0.1-8.7,3.8-9.1,8.6l0,0C165.9,252.6,170.4,257.6,176.5,257.5z"/>
</g>
</svg>
