<?xml version="1.0" encoding="utf-8"?>
<!-- Generator: Adobe Illustrator 25.2.0, SVG Export Plug-In . SVG Version: 6.00 Build 0)  -->
<svg version="1.1" id="Layer_1" xmlns="http://www.w3.org/2000/svg" xmlns:xlink="http://www.w3.org/1999/xlink" x="0px" y="0px"
	 viewBox="0 0 256.4 453.6" style="enable-background:new 0 0 256.4 453.6;" xml:space="preserve">
<style type="text/css">
	.st0{fill:#7333A3;}
	.st1{fill:#7356A4;}
	.st2{fill:#8463BE;}
	.st3{fill:#2E047A;}
	.st4{fill:#FAAF3B;}
	.st5{fill:#FAC26C;}
	.st6{fill:#612B89;}
	.st7{fill:#F1F1F1;}
	.st8{fill:#90BD4A;}
	.st9{fill:#EE8031;}
	.st10{fill:#A87DF1;}
	.st11{fill:#7EA540;}
	.st12{fill:#FAAA2D;}
	.st13{fill:#612B88;}
	.st14{fill:#7333A2;}
	.st15{fill:#3B224D;}
	.st16{fill:#FFFFFF;}
	.st17{fill:#261234;}
	.st18{fill:#8F5CB5;}
	.st19{fill:#853BBC;}
	.st20{fill:#472063;}
</style>
<g id="b-arm">
	<path class="st0" d="M56.9,173.7c-1.6,0.2-3.2,0.9-4.5,1.9c-2.1,1.5-3.9,3.2-5.5,5.1c-3.9,4.6-7.1,9.7-9.6,15.2
		c-2.8,5.9-5.1,11.9-7,18.2c-1,3.2-1.8,6.4-2.6,9.6c-0.4,1.6-0.8,3.3-1.1,4.9c-0.2,0.8-0.4,1.6-0.5,2.5l-0.2,1.2l-0.1,0.6l-0.1,0.3
		v0.1v0.1c-3.2-0.3,7.2,0.7-7.2-0.6s-4-0.4-7.2-0.7v-1.3v-1.4c0-0.9,0-1.8,0.1-2.7c0.1-1.8,0.1-3.6,0.3-5.4c0.2-3.6,0.5-7.3,1-11
		c0.9-7.4,2.3-14.8,4.4-22c2.1-7.7,5.2-15.1,9.2-22.1c2.3-3.9,5-7.5,8.1-10.7c3.7-3.9,8.2-7,13.1-9.1l3.2-1.4
		c7.6-3.2,16.3,0.4,19.4,7.9c3.2,7.6-0.4,16.3-7.9,19.4l0,0C60.4,173.2,58.7,173.6,56.9,173.7z"/>
</g>
<g id="l-leg">
	<path class="st0" d="M100.9,277.5c-6.8,14-11.1,29.2-12.7,44.7c-0.7,7.8-0.7,15.7,0,23.5c0.2,2,0.4,4,0.7,5.9s0.6,4,0.9,6
		s0.8,4,1.2,6l2,8.4l-26.8,3.7c1.1,4.8,0.3,1.3,0.6,2.4V378v-0.1l-0.1-0.2l-0.2-0.4l-0.3-0.8l-0.6-1.7l-1.2-3.4
		c-0.8-2.2-1.5-4.5-2.2-6.8s-1.3-4.6-2-7s-1.1-4.7-1.7-7.1c-4.2-19.3-4.7-39.3-1.4-58.8c1.6-9.7,4-19.3,7.2-28.7L100.9,277.5z"/>
	<path class="st1" d="M39.1,435l-10.1-1.3c-4.7-0.5-8-4.7-7.5-9.4c0,0,0-0.1,0-0.1l0.7-5.4l27.5,3.4l-0.7,5.4
		C48.2,432.4,43.8,435.7,39.1,435z"/>
	<path class="st1" d="M71,433.8l10-2c4.6-0.8,7.7-5.3,6.8-9.9c0,0,0-0.1,0-0.1l-1.1-5.4l-27.2,5.4l1.1,5.4
		C61.7,431.9,66.3,434.8,71,433.8z"/>
	<path class="st2" d="M101.3,397.6l-0.4-9.5c-0.2-4.5-4.5-8-9.5-7.8l-5.9,0.2l1.2,25.6l5.9-0.2C97.6,405.8,101.6,402.1,101.3,397.6z
		"/>
	<path class="st2" d="M94,408.9c-0.5,2.2-1.2,4.3-1.9,6.4c-5.2,14.2-71.3,18.9-81.4,3c-0.8-1.8-1.4-3.8-1.5-5.7
		c-1.6-22.5,47.2-40,47.2-40l34.1-1.2C95.7,383.1,96.9,396.3,94,408.9z"/>
	<path class="st3" d="M94,408.9c-15.4,9.6-65.9,12.7-84.8,3.6c-1.6-22.5,47.2-40,47.2-40l34.1-1.2C95.7,383.1,96.9,396.3,94,408.9z"
		/>
	<path class="st4" d="M87.2,375.5c-10.8,2-22,2.2-32.9,0.5c-7.7-1.2-12.2-7.7-10.4-13.3l0,0c1.9-5.6,7.9-8.6,13.7-7.7
		c8.5,1.3,17.2,1.2,25.7-0.4c5.7-1,11.8,1.8,13.9,7.3l0,0C99.2,367.4,94.9,374.1,87.2,375.5z"/>
	<path class="st5" d="M87,361.8c-10.8,2-22,2.2-32.9,0.5c-7.7-1.2-12.2-7.7-10.4-13.3l0,0c1.9-5.6,7.9-8.6,13.7-7.7
		c8.5,1.3,17.2,1.2,25.7-0.4c5.7-1,11.8,1.8,13.9,7.3l0,0C99,353.7,94.7,360.4,87,361.8z"/>
	<path class="st6" d="M70.1,315c0,1.6-0.7,3.2-1.9,4.4c-1.2,1.2-2.7,2-4.3,2.3c-1.6,0.3-3.3,0.2-4.9-0.3c-1.6-0.5-2.9-1.5-3.8-2.8
		c1.3,0.7,2.7,1.2,4.2,1.4c1.4,0.2,2.8,0.2,4.2-0.1c1.4-0.3,2.7-0.8,3.8-1.6C68.5,317.4,69.4,316.3,70.1,315z"/>
</g>
<g id="r-leg">
	<path class="st0" d="M183.7,267.2c7.5,26.3,9.1,54,4.7,81l-27.2-1.7c-1.2-22.3-7.3-44-17.8-63.6L183.7,267.2z"/>
	<path class="st1" d="M142.4,453.5l-10.6-1.5c-5.1-0.9-8.6-5.7-7.9-10.8l0.8-6.2l28.7,3.9l-0.8,6.2c-0.5,5.1-5,8.9-10.1,8.4
		C142.5,453.5,142.5,453.5,142.4,453.5z"/>
	<path class="st1" d="M175.8,452.1l10.5-2.3c5.1-1.3,8.2-6.3,7.1-11.4l-1.2-6.1l-28.4,6.2l1.2,6.1c0.8,5,5.5,8.4,10.5,7.6
		C175.6,452.2,175.7,452.2,175.8,452.1z"/>
	<path class="st2" d="M207.5,410.8l-0.4-10.8c-0.3-5.2-4.8-9.2-10-8.9l-6.2,0.2l1.2,29.3l6.2-0.2c5.1,0,9.3-4.3,9.2-9.4
		C207.5,410.9,207.5,410.9,207.5,410.8z"/>
	<path class="st2" d="M199.9,423.6c-0.5,2.5-1.2,4.9-2,7.4c-5.4,16.2-74.6,21.6-85.1,3.4c-0.9-2.1-1.4-4.3-1.6-6.6
		c-1.7-25.8,49.4-45.7,49.4-45.7l35.6-1.4C201.6,394.3,202.9,409.3,199.9,423.6z"/>
	<path class="st3" d="M199.9,423.6c-16.1,11-68.9,14.6-88.7,4.2c-1.7-25.8,49.4-45.7,49.4-45.7l35.6-1.4
		C201.6,394.3,202.9,409.3,199.9,423.6z"/>
	<path class="st4" d="M192.7,385.5c-11.3,2.3-23,2.5-34.4,0.6c-8-1.4-12.8-8.8-10.9-15.2l0,0c1.9-6.1,8-9.8,14.3-8.8
		c8.9,1.5,18,1.4,26.8-0.5c6.2-1.3,12.5,2.3,14.5,8.3l0,0C205.3,376.2,200.7,383.9,192.7,385.5z"/>
	<path class="st5" d="M192.5,369.8c-11.3,2.3-23,2.5-34.4,0.6c-8-1.4-12.8-8.8-10.8-15.2l0,0c1.9-6.1,8-9.9,14.3-8.8
		c8.9,1.5,18,1.4,26.8-0.5c6.2-1.3,12.5,2.3,14.5,8.3l0,0C205.1,360.6,200.5,368.2,192.5,369.8z"/>
	<path class="st6" d="M179.4,316.8c0.2,2.5-0.5,4.9-2,6.9c-3,4.3-8.6,6.1-13.5,4.3c-2.4-0.8-4.3-2.3-5.6-4.5c1.9,1.2,4,2,6.2,2.3
		c4.1,0.7,8.3-0.6,11.3-3.6C177.4,320.7,178.6,318.8,179.4,316.8z"/>
</g>
<g id="body">
	<path class="st2" d="M92.1,240.1c17.6,7.1,28.3,22.9,23.9,35.3s-22.2,16.2-39.5,8.9c-17-7.2-27.3-22.7-23.2-34.8
		S74.8,233.1,92.1,240.1z"/>
	
		<ellipse transform="matrix(0.1714 -0.9852 0.9852 0.1714 -115.9636 189.9061)" class="st2" cx="54.9" cy="163.9" rx="27.9" ry="19.6"/>
	<path class="st2" d="M151.7,238.8c-21.3,9.2-33.9,27.6-28.4,41.3s27.4,17.8,49,8.9c21.9-9,35.1-27.9,29.2-42
		S173.3,229.5,151.7,238.8z"/>
	<path class="st3" d="M125.7,278.2h-1.1l0,0c-32.7-1.3-62.1-20.5-76.5-49.9c-10.4-21-12.1-45.3-4.6-67.5c2.5-7.2,5.4-14.3,8.7-21.3
		c50,17.9,101.4,19.8,156,1.1c3,6.7,5.7,13.6,7.9,20.7C234.5,221.1,187.5,280.2,125.7,278.2z"/>
	<path class="st7" d="M172.6,244.4c-9.8,27.4-33.4,40.2-74.1,31.4c-34.4-7.4-56.4-38.6-45.9-69c2.3-6.7,10.7-9.2,17.3-6.8
		c27.9,10.1,57.7,13.5,87.1,10C174.9,210.9,178.6,227.4,172.6,244.4z"/>
	<path class="st8" d="M122.3,225.4c1-6.9,11.9-5.1,10.6,1.7C131.9,234,121.1,232.3,122.3,225.4z"/>
	<path class="st9" d="M137.5,225.5c1.1-6.9,12-5.1,10.7,1.7C147.2,234.1,136.3,232.4,137.5,225.5z"/>
	<path class="st8" d="M153,224.9c1.1-7,12.1-5.2,10.8,1.7C162.8,233.6,151.8,231.8,153,224.9z"/>
	<path class="st10" d="M187.2,161.3c-14.5,6.3-34.7,10.1-57.5,9.6c-53.6-1.2-91.6-25.4-75.9-48.1c0.2-0.3,0.3-0.5,0.5-0.8
		c0,0,0-0.1,0.1-0.1c3.5-4.9,9.5-7.3,15.4-6.4c40.4,6.6,81.6,7.5,122.3,2.7c6-0.6,11.8,2.1,15.1,7.1l0.1,0.1
		c0.2,0.3,0.4,0.5,0.5,0.8C216.2,139.7,206.9,152.8,187.2,161.3z"/>
	<ellipse transform="matrix(0.9854 -0.17 0.17 0.9854 -26.7679 38.5079)" class="st2" cx="211.4" cy="175.5" rx="20.2" ry="31.9"/>
</g>
<g id="r-arm">
	<path class="st0" d="M231.5,167.8c3.4,3.4,6.3,7.2,8.8,11.2c2.3,3.7,4.3,7.7,6,11.8c3.4,8.1,5.3,16.7,5.7,25.5
		c0.4,8.8-1.1,17.6-4.4,25.8c-1.6,4-3.6,7.7-6,11.3c-1.2,1.7-2.4,3.4-3.8,5c-0.6,0.8-1.3,1.6-2,2.3l-1,1.1l-0.5,0.6l-0.2,0.3
		l-0.1,0.1l-0.1,0.1l0,0l0,0c-2.8-2.3,6.2,5.1-6.2-5.1s-3.4-2.9-6.2-5.2l0,0l0,0v-0.1l0.1-0.1l0.2-0.2l0.3-0.5l0.6-1
		c0.4-0.7,0.8-1.4,1.2-2c0.8-1.4,1.4-2.8,2-4.1c1.2-2.7,2.1-5.6,2.6-8.5c1.1-5.6,1-11.4-0.4-16.9c-2.1-8.3-6.2-16-12.1-22.3
		c-0.9-1-1.9-1.9-2.9-2.8c-0.9-0.8-1.8-1.4-2.8-2.1c-7.5-4.9-9.6-14.9-4.7-22.4c4.7-7.3,14.3-9.5,21.8-5.1c1,0.6,2,1.4,2.9,2.3
		L231.5,167.8z"/>
</g>
<g id="r-hand">
	<path class="st8" d="M201,279.3c-5.8,1.8-7.8,4.2-10.6,7.6c-0.5,0.5-1.2,0.9-1.9,0.9c-2,0.1-3.7-2-4.2-3.7
		c-0.8-3.1-0.3-6.4,1.4-9.1c4.2-8,15.5-17.7,26.9-18.2L201,279.3z"/>
	<path class="st8" d="M240.9,271.3c2.2,8.1-1.1,18.5-5.7,25.3l-0.3,0.5L196.9,280l15.6-23.3L240.9,271.3z"/>
	<path class="st8" d="M197.3,282.2c-1.2,6.5-4.2,12.5-8.7,17.2l-0.1,0.1c-1.6,1.8-1.5,4.6,0.3,6.2c0.1,0,0.1,0.1,0.2,0.1
		c1.7,1.5,4.2,1.6,6,0.4c3.4-2.5,6.5-5.5,9-8.9c2.6-3.4,4.7-7.2,6.2-11.2l0.1-0.2c1.2-3.5-0.6-7.2-4.1-8.4c-3.3-1.4-7.2,0.2-8.6,3.5
		c0,0,0,0,0,0.1C197.5,281.5,197.4,281.9,197.3,282.2z"/>
	<path class="st8" d="M206.6,283.8c-1,6.5-4.1,12.5-8.8,17.2l-0.1,0.1c-1.8,1.8-1.5,4.7,0.7,6.5c1.8,1.6,4.4,1.8,6.5,0.6
		c7.2-4.8,12.6-11.8,15.6-19.9l0.1-0.2c1.2-3.3-0.8-7.2-4.6-8.7s-7.9,0-9.1,3.3C206.8,283.1,206.7,283.4,206.6,283.8z"/>
	<path class="st8" d="M215.3,286.7c-1,6.5-4.1,12.5-8.8,17.2l-0.1,0.1c-1.8,1.8-1.5,4.7,0.7,6.5c1.8,1.6,4.4,1.8,6.5,0.6
		c7.1-4.9,12.6-11.8,15.6-19.9l0.1-0.2c1.2-3.3-0.8-7.2-4.6-8.7s-7.9,0-9.1,3.3C215.5,286,215.4,286.3,215.3,286.7z"/>
	<path class="st8" d="M223.1,287.6c-1,6.5-4.1,12.5-8.8,17.2l-0.1,0.1c-1.8,1.8-1.5,4.7,0.7,6.5c1.8,1.6,4.4,1.8,6.5,0.6
		c7.1-4.8,12.6-11.8,15.6-19.9l0.1-0.2c1.2-3.3-0.9-7.2-4.6-8.7s-7.9,0-9.1,3.3C223.3,286.9,223.2,287.2,223.1,287.6z"/>
	<path class="st11" d="M194.6,306.1c1.6-1.5,3.2-2.9,4.6-4.5c1.5-1.5,2.9-3.1,4.2-4.8c1.3-1.7,2.5-3.4,3.7-5.2
		c1.1-1.8,2.2-3.7,3.2-5.6c-1,4.3-2.9,8.3-5.7,11.7c-1.4,1.7-2.9,3.3-4.6,4.7C198.4,303.9,196.6,305.1,194.6,306.1z"/>
	<path class="st11" d="M205.3,307.9c1.6-1.5,3.2-2.9,4.6-4.5c1.5-1.5,2.9-3.1,4.2-4.8c1.3-1.7,2.5-3.4,3.7-5.2
		c1.1-1.8,2.2-3.7,3.2-5.6c-1,4.3-2.9,8.3-5.7,11.7c-1.4,1.7-2.9,3.3-4.6,4.7C209.1,305.7,207.3,306.9,205.3,307.9z"/>
	<path class="st11" d="M214.6,310.3c1.6-1.5,3.2-2.9,4.6-4.5c1.5-1.5,2.9-3.1,4.2-4.8c1.3-1.7,2.5-3.4,3.7-5.2
		c1.1-1.8,2.2-3.7,3.2-5.6c-1,4.3-2.9,8.3-5.7,11.7c-1.4,1.7-2.9,3.3-4.6,4.7C218.4,308.2,216.5,309.4,214.6,310.3z"/>
	<path class="st12" d="M214.1,261.2c6.8,5.2,14.5,9,22.7,11.2c5.8,1.6,11.4-2.1,12.2-7.1l0,0c0.8-4.7-2-9.3-6.6-10.6
		c-6.4-1.7-12.4-4.7-17.7-8.8c-3.8-2.8-9.2-2.3-12.4,1.2l0,0C208.7,250.9,209.3,257.5,214.1,261.2z"/>
</g>
<g id="l-hand">
	<path class="st8" d="M31.6,263.4c3.7,3.9,4.2,5.9,4.8,9.7c0.1,0.6,0.5,1.2,1.1,1.5c1.5,1,3.7,0.1,4.8-1c1.9-2,3-4.8,2.9-7.6
		c0.2-8-4.2-20.2-12.7-25.5L31.6,263.4z"/>
	<path class="st8" d="M34.4,265l-1.9-24.6l-26.7-2.3c-5.2,5.3-9.4,24.5-1.2,34.5L34.4,265z"/>
	<path class="st8" d="M33,266.6c-2,5.4-2.3,11.4-0.7,16.9v0.1c0.5,2.1-0.8,4.1-2.9,4.6c-0.1,0-0.3,0.1-0.4,0.1
		c-2.1,0.4-4.2-0.5-5.2-2.4c-3.4-6.8-4.5-14.5-3.4-22v-0.1c0.5-3.1,3.7-5.1,7.3-4.6s6,3.4,5.5,6.5C33.2,265.9,33.2,266.2,33,266.6z"
		/>
	<path class="st8" d="M24.6,263.7c-2.1,5.4-2.4,11.4-0.6,16.9v0.1c0.6,2.1-0.9,4.2-3.5,4.6c-2.2,0.4-4.4-0.5-5.6-2.4
		c-1.8-3.4-3.1-7-3.8-10.8c-0.7-3.7-0.7-7.5-0.1-11.2v-0.1c0.5-3.1,4-5.1,7.9-4.6s6.5,3.4,6,6.5C24.8,263.1,24.8,263.4,24.6,263.7z"
		/>
	<path class="st8" d="M18.3,260.8c-2.1,5.4-2.4,11.4-0.6,16.9v0.1c0.7,2.1-0.9,4.2-3.6,4.6c-2.2,0.4-4.4-0.5-5.6-2.4
		c-1.8-3.4-3.1-7-3.7-10.8c-0.7-3.7-0.7-7.5-0.1-11.2v-0.1c0.5-3.1,4-5.1,7.9-4.6s6.5,3.4,6,6.5C18.4,260.2,18.4,260.5,18.3,260.8z"
		/>
	<path class="st11" d="M24.3,285.9c-2.3-3.1-3.8-6.8-4.4-10.6c-0.7-3.8-0.5-7.8,0.6-11.5c0,1.9,0,3.8,0.1,5.7
		c0.1,1.9,0.3,3.7,0.6,5.6c0.3,1.8,0.7,3.7,1.3,5.5C23,282.3,23.7,284.1,24.3,285.9z"/>
	<path class="st11" d="M14.6,282.6c-2.3-3.1-3.8-6.8-4.4-10.6c-0.7-3.8-0.5-7.8,0.6-11.5c0,1.9,0,3.8,0.1,5.7
		c0.2,3.7,0.9,7.4,1.9,11C13.3,279,14,280.8,14.6,282.6z"/>
	<path class="st11" d="M8,279.1c-1.1-1.4-1.9-2.9-2.6-4.5c-0.7-1.6-1.2-3.3-1.6-5c-0.4-1.7-0.6-3.5-0.6-5.3c0-1.8,0.4-3.5,1-5.2
		c0,1.8,0,3.5,0.2,5.1s0.5,3.4,0.8,5s0.8,3.3,1.2,5S7.4,277.5,8,279.1z"/>
	<path class="st12" d="M30.4,243.3c-7.4,1-15,0.6-22.2-1.3c-5.1-1.3-7.9-6.5-6.3-10.7l0,0c1.4-3.9,5.5-6.2,9.6-5.2
		c5.7,1.4,11.5,1.8,17.3,0.9c4.2-0.5,8,2.2,9,6.3l0,0C39,237.6,35.7,242.5,30.4,243.3z"/>
</g>
<g id="head">
	<path class="st13" d="M37,56.7c-0.2-7.2-2.7-12.7-6.6-13.6C25,42,18.9,49.9,16.8,60.8s0.5,20.8,5.9,21.9c4,0.8,8.3-3.2,11.1-9.8
		c7-2,16.3,1.4,16.3,1.4l1.2-6.1l1.2-6.1C52.5,62.1,42.7,61.5,37,56.7z"/>
	<path class="st14" d="M219.5,76.6c0,6.4-7.2,11.8-8.9,17.8s1.4,14.2-2,19.6s-12.2,6.4-16.8,10.8s-5.5,12.7-10.9,16
		c-5.2,3.1-13.6,0.4-19.5,2.5c-5.7,2-10,9.1-16.1,9.9c-5.9,0.8-12.4-4.6-18.6-4.9s-12.5,4.6-18.2,3.2c-5.8-1.4-9.9-8.6-15.1-10.9
		c-5.4-2.4-13-0.4-17.6-3.7s-5.7-11.4-9.5-15.6s-11.5-5.7-14.2-10.6s-0.2-12.3-1.6-17.9S43,82.4,43,76.6s5.9-10.7,7.3-16.2
		S49.2,47.5,52,42.6s10.3-6.4,14.2-10.6s4.8-12.2,9.5-15.6s12.2-1.3,17.6-3.7c5.3-2.3,9.3-9.6,15.1-10.9c5.6-1.3,12.1,3.5,18.2,3.3
		s12.7-5.7,18.6-4.9c6.1,0.9,10.4,8,16.1,9.9c5.9,2.1,14.3-0.6,19.5,2.5c5.4,3.2,6.5,11.7,10.9,16s13.5,5.5,16.8,10.8
		s0.2,13.5,2,19.6S219.5,70.2,219.5,76.6z"/>
	<path class="st6" d="M89.2,35.3c-1.1-0.8-2.5-0.9-3.7-0.2c-1.2,0.6-2.1,1.5-2.8,2.6c-0.7,1.1-1.4,2.3-2.2,3.6
		c-0.4,0.6-0.9,1.2-1.4,1.7c-0.6,0.6-1.2,1-1.9,1.4c-1.4,0.8-2.8,1.2-3.9,1.8c-1.1,0.4-2.1,1-3,1.8c-1.8,1.8-2.6,4.3-2.3,6.8
		l-0.2,0.1c-0.9-1.2-1.3-2.8-1.2-4.3c0.1-1.6,0.7-3.2,1.7-4.4c0.5-0.7,1.2-1.2,1.9-1.6c0.7-0.4,1.4-0.7,2.1-0.9
		c1.3-0.3,2.6-0.7,3.9-1.2c1.1-0.5,2.1-1.3,2.9-2.3c0.8-1,1.6-2.2,2.5-3.3c0.9-1.2,2.2-2.1,3.6-2.6C86,34,86.7,34,87.5,34
		c0.7,0.1,1.4,0.4,1.9,1L89.2,35.3z"/>
	<path class="st6" d="M165.6,33.2c0.5-0.6,1.3-1,2-1.2c0.8-0.1,1.6-0.1,2.4,0.1c1.6,0.4,2.9,1.3,4,2.5c1.1,1.2,1.9,2.4,2.9,3.5
		c0.9,1,2,1.8,3.3,2.3c1.4,0.4,2.8,0.8,4.3,1c0.8,0.2,1.6,0.5,2.4,0.8c0.8,0.4,1.6,1,2.2,1.7c2.4,2.6,2.8,6.8,0.8,9.4l-0.2-0.1
		c0.5-2.7-0.5-5.5-2.5-7.3c-1.7-1.6-4.7-2.1-7.7-3.4c-0.8-0.4-1.5-0.8-2.1-1.3c-0.6-0.5-1.2-1.2-1.7-1.8c-0.9-1.3-1.7-2.6-2.5-3.8
		c-0.8-1.2-1.9-2.1-3.2-2.6c-1.3-0.6-2.9-0.4-4,0.4L165.6,33.2z"/>
	<path class="st6" d="M198,68.2c0.8,0,1.6,0.3,2.2,0.9c0.6,0.5,1.1,1.2,1.4,1.9c0.6,1.5,0.8,3.1,0.6,4.7c-0.3,1.6-0.7,3-0.9,4.4
		c-0.3,1.3-0.2,2.7,0.3,4c0.4,1.3,1.2,2.6,1.9,4c0.4,0.8,0.6,1.5,0.8,2.4c0.2,0.9,0.2,1.8,0.1,2.7c-0.5,3.6-3.6,6.5-6.8,6.5
		l-0.1-0.3c2.4-1.3,4-3.8,4.2-6.5c0.1-2.3-1.3-5-2.2-8.2c-0.2-0.8-0.3-1.7-0.3-2.5c0-0.8,0.2-1.6,0.4-2.4c0.4-1.6,1-2.9,1.3-4.3
		c0.4-1.4,0.4-2.8,0-4.2c-0.3-1.4-1.4-2.5-2.8-2.8V68.2z"/>
	<path class="st6" d="M78.4,115.4c-0.4,0.4-0.9,0.7-1.4,0.7c-0.5,0.1-1.1,0-1.6-0.2c-1-0.4-1.9-1-2.6-1.9c-1.3-1.7-2.3-3.5-3.9-4.1
		c-0.9-0.3-1.9-0.6-2.8-0.9c-0.5-0.2-1.1-0.4-1.6-0.7c-0.5-0.3-1-0.7-1.4-1.2c-1.5-1.8-1.7-4.4-0.4-6.4l0.2,0.1
		c-0.2,1.8,0.4,3.7,1.7,5c1.1,1.1,3,1.6,5,2.6c1,0.6,1.8,1.4,2.4,2.3c0.6,0.9,1,1.8,1.6,2.6c0.5,0.8,1.2,1.5,2,1.9
		c0.8,0.5,1.9,0.5,2.7-0.1L78.4,115.4z"/>
	<path class="st6" d="M157.2,130.3c0.8,0.6,1.9,0.7,2.8,0.3c0.9-0.3,1.7-1,2.2-1.8c0.6-0.8,1.1-1.7,1.8-2.6c0.7-0.9,1.6-1.7,2.6-2.2
		c2.1-0.9,4.1-1.3,5.4-2.3c1.4-1.3,2.1-3.2,1.7-5.1l0.2-0.1c1.4,2,1.1,4.7-0.6,6.5c-0.4,0.4-0.9,0.8-1.5,1.1
		c-0.5,0.2-1.1,0.4-1.6,0.6c-1.1,0.2-2.1,0.4-3,0.7c-0.9,0.3-1.7,0.9-2.3,1.6c-0.7,0.7-1.2,1.6-2,2.4c-0.7,0.8-1.7,1.5-2.8,1.7
		c-0.5,0.1-1.1,0.2-1.7,0.1c-0.5-0.1-1-0.4-1.4-0.8L157.2,130.3z"/>
	<path class="st6" d="M111.4,24.6c-0.1-1.7,0.5-3.4,1.7-4.6c0.7-0.6,1.5-1.1,2.3-1.4c0.9-0.2,1.8-0.3,2.7-0.2
		c1.7,0.1,3.3,0.6,4.7,0.9c1.3,0.3,2.7,0.2,4-0.2c1.3-0.4,2.7-1.1,4.3-1.6c0.8-0.3,1.6-0.5,2.4-0.7c0.9-0.2,1.8-0.2,2.7-0.1
		c1.8,0.2,3.4,1,4.7,2.2c1.2,1.2,2,2.6,2.5,4.2c-0.9-1.2-2-2.3-3.3-3.1c-1.2-0.8-2.6-1.2-4-1.1c-0.7,0-1.3,0.1-2,0.3
		c-0.7,0.2-1.4,0.5-2,0.8c-1.5,0.7-3,1.3-4.5,1.9c-0.9,0.3-1.8,0.4-2.7,0.4c-0.9,0-1.8-0.1-2.7-0.3c-1.6-0.4-3.1-1-4.5-1.3
		c-0.7-0.2-1.3-0.2-2-0.1c-0.7,0.1-1.3,0.3-1.9,0.6C112.7,21.9,111.8,23.2,111.4,24.6z"/>
	<path class="st6" d="M96.7,130.2c0.2,0.9,0.7,1.8,1.4,2.4c0.7,0.5,1.6,0.7,2.4,0.6c0.9-0.1,1.8-0.4,2.9-0.5c1.1-0.2,2.3,0,3.3,0.4
		c0.9,0.4,1.8,0.9,2.7,1.4c0.4,0.2,0.8,0.5,1.2,0.6c0.4,0.2,0.8,0.3,1.2,0.3c1.9,0.1,3.7-0.8,4.9-2.3c-0.4,1-1,1.9-1.8,2.5
		c-0.9,0.7-2,1.1-3.1,1.1c-0.6,0-1.2-0.1-1.7-0.2c-0.5-0.2-1-0.4-1.5-0.6c-0.9-0.5-1.8-1-2.6-1.3c-0.8-0.3-1.7-0.5-2.5-0.4
		c-1,0.1-2,0.2-3,0.3c-0.6,0-1.1-0.1-1.7-0.3c-0.5-0.2-1-0.6-1.4-1C96.8,132.4,96.5,131.3,96.7,130.2z"/>
	<path class="st15" d="M95,81.2c0,0-9-21.4-29.8-6.3C65.2,74.9,78.7,103.7,95,81.2z"/>
	<path class="st16" d="M94.2,81c0,0-7.5-19.4-26.7-5.5C67.5,75.5,78.1,98.9,94.2,81z"/>
	<ellipse transform="matrix(0.9863 -0.1649 0.1649 0.9863 -11.8642 14.7364)" class="st8" cx="82.8" cy="78.8" rx="7.4" ry="8.1"/>
	<path class="st17" d="M83,74.3c0.5,0.7,0.9,1.5,1.1,2.4c0.2,0.8,0.3,1.6,0.2,2.4c0,0.8-0.2,1.6-0.4,2.4c-0.3,0.9-0.7,1.7-1.2,2.3
		c-0.5-0.7-0.9-1.5-1.1-2.4c-0.2-0.8-0.3-1.6-0.2-2.4c0-0.8,0.2-1.6,0.4-2.4C82,75.8,82.4,75,83,74.3z"/>
	<path class="st14" d="M62.8,71.1c0.1,2.5,2.6,3.6,4.9,3.8s4.5-0.6,6.8-0.9c4-0.5,8.1,0.3,11.6,2.5c1.8,1.3,3.6,2.4,5.5,3.5
		c1.9,0.9,4.3,1.2,6,0s2.3-5,0.6-6.4l-2.5-1.9c-4.2-3.3-9.3-5.3-14.6-5.8l0,0c-6.2-0.7-10.3,0-15.6,3.5L62.8,71.1z"/>
	<path class="st15" d="M62.8,71.1c0.5,1.7,2,3.1,3.8,3.4c1.6,0.4,3.3-0.1,5.1-0.6c1.9-0.7,3.9-1,5.8-1.1c2,0,4.1,0.3,6,0.9
		c1.9,0.7,3.7,1.6,5.3,2.8c1.4,1.1,2.9,2,4.6,2.6c1.5,0.6,3.2,0.3,4.4-0.7c1.3-1.3,1.4-3.3,0.4-4.8c0.8,0.6,1.4,1.5,1.4,2.6
		c0.1,1.1-0.2,2.1-0.7,3.1c-0.7,0.9-1.6,1.6-2.7,1.9c-1.1,0.3-2.2,0.3-3.3,0.1c-2-0.5-3.8-1.4-5.5-2.5c-1.5-1-3.1-1.8-4.8-2.4
		c-1.6-0.6-3.4-0.9-5.1-0.9c-1.8,0-3.6,0.2-5.3,0.6c-2,0.5-4.1,0.5-6.1-0.2c-1-0.4-1.8-1.1-2.4-1.9c-0.3-0.4-0.5-0.9-0.7-1.3
		C62.8,72,62.7,71.5,62.8,71.1z"/>
	<path class="st18" d="M65.4,69.3c1.8-2.2,4.2-3.9,6.9-4.7c2.7-0.9,5.7-1.2,8.5-0.7c2.8,0.5,5.5,1.4,8,2.7c1.2,0.7,2.4,1.5,3.5,2.3
		s2.2,1.8,3.2,2.7c-1.2-0.6-2.4-1.3-3.6-2s-2.5-1.2-3.7-1.7c-0.6-0.2-1.3-0.5-1.9-0.7l-0.9-0.4l-1-0.3L82.6,66l-2-0.3
		c-2.6-0.4-5.3-0.3-7.9,0.3C70.1,66.6,67.6,67.7,65.4,69.3z"/>
	<path class="st15" d="M104.8,99.2c-1.4-0.9-2.5-1.7-3.8-2.4c-0.6-0.4-1.2-0.7-1.9-1s-1.3-0.6-2.1-1c0.8-0.2,1.6-0.2,2.4,0
		c0.8,0.2,1.6,0.5,2.3,0.9c0.7,0.4,1.3,0.9,1.8,1.6C104.1,97.7,104.5,98.4,104.8,99.2z"/>
	<path class="st15" d="M109.3,99.6c0.5-0.7,1.1-1.4,1.8-1.9c0.7-0.5,1.5-0.9,2.3-1.2c0.8-0.3,1.7-0.4,2.6-0.4c0.9,0,1.8,0.1,2.6,0.4
		c-0.8,0.2-1.6,0.4-2.4,0.6s-1.5,0.5-2.3,0.7C112.4,98.3,110.9,98.9,109.3,99.6z"/>
	<path class="st13" d="M232.5,112.7l9.2-26.2l-8-26.6c-0.3,15.1-20.5,17.1-33.2,17c-5.6-0.1-10.2,3.7-10.3,8.5l0,0
		c-0.1,4.8,4.3,8.8,9.9,8.9C212.8,94.6,232.8,97.6,232.5,112.7z"/>
	
		<ellipse transform="matrix(2.233833e-02 -0.9998 0.9998 2.233833e-02 148.0904 324.2365)" class="st19" cx="239.8" cy="86.4" rx="29.6" ry="16.6"/>
	
		<ellipse transform="matrix(2.233833e-02 -0.9998 0.9998 2.233833e-02 149.0501 325.2384)" class="st20" cx="240.8" cy="86.4" rx="20.6" ry="11.5"/>
	<path class="st15" d="M127.8,84.8c0,0,17.4-24,41.9,1.4C169.8,86.2,144.4,118,127.8,84.8z"/>
	<path class="st16" d="M128.9,84.8c0,0,15-22,37.6,1.4C166.5,86.2,146.4,112.2,128.9,84.8z"/>
	<circle class="st8" cx="144.9" cy="85.6" r="10.3"/>
	<path class="st17" d="M145.8,79.8c0.7,1,1.1,2.1,1.3,3.3c0.2,1,0.2,2.1,0,3.1c-0.2,1-0.5,2-1,2.9c-0.6,1.1-1.3,2-2.3,2.7
		c-0.7-1-1.1-2.1-1.3-3.3c-0.3-2.1,0-4.2,1-6C144.1,81.5,144.8,80.5,145.8,79.8z"/>
	<path class="st14" d="M174.1,82.1c-0.8,3.1-4.5,3.7-7.6,3.3s-6-2.1-9-3.2c-5.2-1.9-11-2.1-16.3-0.5c-2.8,0.8-5.4,2.2-8.3,2.7
		s-6.1,0.2-8.1-1.9s-1.8-6.9,0.7-8.2l3.9-1.7c6.7-3.1,13.9-3.6,21.3-2.7l0,0c8.6,1,14,3.2,20.2,9.2L174.1,82.1z"/>
	<path class="st15" d="M174.1,82.1c-0.3,1.3-1.1,2.5-2.2,3.2c-1.2,0.8-2.5,1.3-3.9,1.4c-2.8,0.3-5.5-0.8-7.8-1.8
		c-1.2-0.5-2.4-1-3.5-1.4c-1.1-0.4-2.3-0.8-3.5-1c-2.4-0.5-4.8-0.7-7.2-0.5c-1.2,0.1-2.4,0.2-3.6,0.5c-1.2,0.3-2.4,0.6-3.6,1
		c-2.4,0.7-5,1.7-7.9,1.6c-1.4,0-2.8-0.3-4.1-0.9c-1.3-0.6-2.5-1.6-3.2-2.8c-0.7-1.3-0.9-2.7-0.5-4.1c0.2-0.7,0.5-1.3,0.9-1.8
		c0.4-0.5,1-0.9,1.6-1.2c-1,0.7-1.7,1.9-1.7,3.1c-0.1,1.2,0.3,2.3,0.9,3.3c0.7,0.9,1.7,1.5,2.7,1.8c1.1,0.3,2.3,0.5,3.4,0.4
		c2.4-0.3,4.8-0.9,7.1-1.9c2.5-1,5.2-1.6,7.8-1.8c2.7-0.2,5.4,0.1,8,0.7c2.6,0.7,5.1,1.7,7.4,3c1.1,0.6,2.2,1.1,3.4,1.6
		c1.1,0.5,2.3,0.7,3.5,0.8c1.2,0,2.4-0.2,3.5-0.7C172.6,84.1,173.5,83.2,174.1,82.1z"/>
	<path class="st18" d="M170.9,79.1c-2.6-2.7-5.6-4.9-9-6.4c-3.3-1.5-6.9-2.5-10.5-2.8l-2.7-0.2c-0.9,0-1.8,0.1-2.8,0.1
		c-1.8,0.1-3.7,0.2-5.5,0.5c-0.9,0.1-1.8,0.4-2.7,0.5l-2.8,0.5c-1.8,0.5-3.6,1-5.5,1.4c1.7-0.9,3.4-1.7,5.2-2.5
		c1.8-0.6,3.6-1.3,5.5-1.7c0.9-0.2,1.9-0.4,2.9-0.6c0.5-0.1,0.9-0.2,1.4-0.2l1.4-0.1c1-0.1,1.9-0.2,2.9-0.1l2.9,0.2
		c0.5,0,1,0.1,1.4,0.2l1.4,0.3c0.5,0.1,1,0.2,1.4,0.3l1.4,0.4l1.4,0.4c0.4,0.2,0.9,0.4,1.4,0.6l1.3,0.6c0.4,0.2,0.9,0.5,1.3,0.7
		C166.1,72.9,168.9,75.7,170.9,79.1z"/>
	<path class="st15" d="M90.9,103.6c2.5,1.5,5.2,2.6,8,3.4c2.8,0.8,5.6,1.3,8.5,1.6c2.9,0.2,5.7,0.2,8.6,0.1c2.9-0.1,5.8-0.3,8.6-0.8
		l0.1,0.2c-2.6,1.4-5.6,2.3-8.6,2.6c-3,0.2-6,0.1-8.9-0.5c-2.9-0.5-5.8-1.2-8.6-2.2c-2.8-1-5.4-2.4-7.8-4.1L90.9,103.6z"/>
</g>
</svg>
