<?xml version="1.0" encoding="utf-8"?>
<!-- Generator: Adobe Illustrator 25.2.0, SVG Export Plug-In . SVG Version: 6.00 Build 0)  -->
<svg version="1.1" id="Layer_1" xmlns="http://www.w3.org/2000/svg" xmlns:xlink="http://www.w3.org/1999/xlink" x="0px" y="0px"
	 viewBox="0 0 254.5 500.9" style="enable-background:new 0 0 254.5 500.9;" xml:space="preserve">
<style type="text/css">
	.st0{fill:#4E16FF;}
	.st1{fill:#E941CB;}
	.st2{fill:#081F8B;}
	.st3{fill:#3002EC;}
	.st4{fill:#639BAA;}
	.st5{fill:#88D7EC;}
	.st6{fill:#309FEC;}
	.st7{clip-path:url(#SVGID_2_);}
	.st8{fill:#20019B;}
	.st9{fill:#D41EC2;}
	.st10{fill:#1B1464;}
	.st11{fill:#FFFFFF;}
	.st12{fill:#C025A4;}
</style>
<g id="l-hand">
	<path class="st0" d="M38.9,91.8c-2,4.2-6.7,6-10.5,4.2s-5.2-6.7-3.2-10.8s8.3-9.5,12.1-7.6S40.9,87.6,38.9,91.8z"/>
	<path class="st1" d="M26.9,91.1c1.1,6.6,8.2,8.5,13.4,6.3s8.1-8.4,9.5-14.3s1.5-11.3-1.4-15.8c-2-3-5.3-5.4-8.8-4
		C39.7,63.3,23.3,69,26.9,91.1z"/>
	<path class="st1" d="M34.6,98.3c4.8,0.7,9.7,0,14-2.1c4.4-2.3,8-6.7,8.8-11.7c0.2-1.2,0.1-2.6-0.9-3.1s-2.4,0.6-3.4,1.5
		c-3.2,2.9-7.6,4-11.8,2.9L34.6,98.3z"/>
</g>
<g id="l-arm">
	<path class="st1" d="M91.3,169.8c-5.2,1.2-10.6,1.6-15.9,1.3c-5.3-0.3-10.6-1.4-15.6-3.3c-9.9-3.7-18.5-10.1-24.9-18.4
		c-6.4-8.3-10.2-18.2-10.9-28.7c-0.3-5.2,0.1-10.4,1.4-15.4c1.3-4.9,3.2-9.6,5.8-14c2.2-3.2,6.6-4,9.7-1.8c2.7,1.9,3.7,5.4,2.5,8.4
		l-0.1,0.1c-3.4,6.5-4.8,13.9-3.9,21.2c1,7.2,4,13.9,8.8,19.3c4.7,5.4,10.8,9.4,17.6,11.4c6.6,2,13.7,2,20.4,0
		c5.4-1.5,11,1.8,12.5,7.2c1.4,5.3-1.6,10.7-6.8,12.4L91.3,169.8L91.3,169.8z"/>
</g>
<g id="l-leg">
	<path class="st2" d="M65.8,439.6c-4.2,5.2-13.5,10.1-19.7,10.8s-12.5,0.6-18.3,3.2s-10.8,9.1-10,16.2c0.9,7.9,8.4,12.7,15.3,12.8
		c12.7,0.3,24.1-10.6,36.8-10.5c8,0,16.1,4.4,23.8,1.9c6.7-2.1,11.7-9.7,11.8-17.7s-4.8-15.7-11.4-18L65.8,439.6z"/>
	<path class="st1" d="M95.7,366.5l-18.5,0.8l-18.5,0.8c0,0,16.8,24.4,10.1,64.6l11.2-0.5l11.2-0.5C81.1,392.3,95.7,366.5,95.7,366.5
		z"/>
	<path class="st3" d="M95.5,434.6c3.3-1.9,4.9-5.5,3.6-8.5l0,0c-1.7-3.7-5.8-5.7-9.8-4.8c-6.5,1.4-13.1,1.7-19.7,0.7
		c-4-0.6-8.3,1.6-9.4,5.5c-0.9,3.1,1.1,6.7,4.7,8.3c-4.5,5-13.2,9.5-19.1,10.1c-6.2,0.6-12.5,0.6-18.3,3.2s-10.8,9.2-10,16.2
		c0.9,7.9,8.4,12.7,15.3,12.8c12.7,0.3,24.1-10.6,36.8-10.5c8,0,16.1,4.4,23.8,2c6.7-2.1,11.7-9.7,11.8-17.7
		C105.5,444.6,101.3,437.5,95.5,434.6z"/>
	<circle class="st4" cx="96.7" cy="463.3" r="14.4"/>
	<circle class="st5" cx="99" cy="465.4" r="14.4"/>
</g>
<g id="r-leg">
	<path class="st2" d="M151.5,455.6c-4.5,5.4-14.3,10.6-20.8,11.3s-13.2,0.6-19.3,3.4s-11.3,9.6-10.5,17.1
		c0.9,8.3,8.9,13.3,16.1,13.5c13.4,0.3,25.4-11.1,38.8-11.1c8.5,0,17,4.6,25.1,2c7-2.2,12.4-10.2,12.5-18.6s-5-16.5-12-19
		L151.5,455.6z"/>
	<path class="st1" d="M183.1,378.6l-19.5,0.9l-19.5,0.9c0,0,17.7,25.7,10.7,68l11.8-0.5l11.8-0.5
		C167.7,405.7,183.1,378.6,183.1,378.6z"/>
	<path class="st3" d="M182.8,450.3c3.6-2,5.2-5.8,4-9c-1.6-4-6.1-5.9-10.3-5c-6.8,1.5-13.7,1.8-20.6,0.9c-4.2-0.5-8.6,1.8-9.8,5.9
		c-1,3.2,1,6.9,4.6,8.6c-4.7,5.2-13.9,10-20.2,10.7c-6.5,0.7-13.2,0.6-19.3,3.4s-11.4,9.6-10.5,17.1c0.9,8.3,8.8,13.3,16.1,13.5
		c13.4,0.3,25.4-11.1,38.8-11.1c8.4,0,17,4.6,25.1,2c7-2.2,12.4-10.2,12.5-18.6C193.4,460.8,189,453.3,182.8,450.3z"/>
	<circle class="st4" cx="184.1" cy="480.5" r="15.2"/>
	<circle class="st5" cx="186.5" cy="482.7" r="15.2"/>
</g>
<g id="body">
	<path class="st5" d="M25.9,328.3c-4.3,11.3-13,18.4-19.5,16s-8.4-13.6-4.1-24.9s16.5-27.7,23-25.2S30.2,317,25.9,328.3z"/>
	<path class="st5" d="M251.3,321.4c4.8,11,3.6,22.3-2.8,25.1s-15.5-3.9-20.3-14.9s-7.6-31.3-1.2-34.1S246.4,310.3,251.3,321.4z"/>
	<path class="st5" d="M66.1,151.6c-4.5,6.2-4.6,14.8-1.8,21.9c2.2,5.5,6.7,10.6,12.6,11.4c5.2,0.7,10.4-2.3,13.4-6.6
		C101.5,161.6,82.3,128.9,66.1,151.6z"/>
	<path class="st3" d="M104.2,137.7c-7.5,0.5-15.6,1.4-21.4,6.3c-6.3,5.4-8.3,14.2-9.4,22.5c-4,29.2-3.4,60.6-18.8,85.8
		c-11.6,18.8-31.1,32.1-40.7,52c-6,12.3-7.7,26.8-3.4,39.8s14.8,24,27.9,27.8c13.3,3.8,28,0.2,41.3,4c11.3,3.3,20.6,11.6,32,14.6
		c22,5.8,43.9-9.6,66.6-10.2c15-0.4,31.1,5.7,44.5-1.1l0,0c6.3-2.4,11.7-6.9,15.2-12.7c6.6-11.2,8.4-25.5,6.2-38.5
		c-2.9-17.3-11.7-33-21.1-47.9s-19.5-29.4-25.5-46c-5.9-16.2-7.2-33.3-7.2-50.4c0-9.5,1-21-4.5-29.3
		C171.2,132,126.8,136.1,104.2,137.7z"/>
	<path class="st6" d="M160.3,135.2c-11.2-3.4-23-4.4-34.7-5.2c-9.6-0.6-19.5-1.1-28.8,1.2s-18.4,7.8-22.8,16.4
		c-4.5,8.9-3.6,19.5-1.3,29.2c3.3,14.5,9,28.4,15.9,41.6c4,7.6,8.6,15.4,15.8,20.1c9.3,6.1,21.6,6.1,32,2.3s19.3-10.9,27.4-18.5
		c9.1-8.6,17.7-18,23.1-29.3c5.1-10.5,8.6-26.5,3.5-37.8C185.5,144.8,170.5,138.3,160.3,135.2z"/>
	<path class="st5" d="M174.2,162.7c-4.5,6.2-4.6,14.9-1.8,22c2.2,5.5,6.7,10.6,12.6,11.4c5.2,0.7,10.5-2.3,13.4-6.6
		C209.8,172.7,190.6,139.9,174.2,162.7z"/>
	<path class="st5" d="M58.5,329c-4.3,11.3-13,18.4-19.5,16s-8.3-13.6-4.1-24.9s16.5-27.7,23-25.2S62.8,317.7,58.5,329z"/>
	<path class="st5" d="M131.2,343c-0.9,12-7.3,21.3-14.3,20.8S105.1,353,106,341s8.1-31.2,15-30.6S132.1,330.9,131.2,343z"/>
	<path class="st5" d="M103.2,206.6c0.3-9.1,6.1-16.4,13.1-16.2s12.4,7.8,12.1,16.9s-6.3,23.8-13.3,23.6S103,215.7,103.2,206.6z"/>
	<path class="st5" d="M210.8,332.8c3.1,11.6,0.2,22.5-6.5,24.4s-14.7-6.2-17.8-17.8s-2.7-32.1,4-33.9S207.7,321.1,210.8,332.8z"/>
	<path class="st5" d="M165.1,138.9c-1.5-1.9-3.2-3.6-5.1-5c-3.3-2.5-7-4.4-10.9-5.8c-5.5-2-11.2-3.2-17.1-3.6
		c-2.9-0.2-5.7-0.2-8.6,0c-6.8,0.3-13.5,2-19.7,4.9c-4.5,2.2-8,5.2-10.1,8.6c-1.2,1.9-1.9,4-2.1,6.2c-1.1,12.3,15.3,23.5,36.6,24.9
		s39.3-7.3,40.4-19.6C168.8,145.6,167.6,141.9,165.1,138.9z M154,142.7c-0.2,1.4-0.9,2.7-1.9,3.7c-1.5,1.4-3.2,2.4-5.1,3
		c-7.4,2.6-15.5,2.6-23.1,1.1c-4.4-0.9-8.9-2.3-12.5-5c-2-1.5-3.7-3.7-3.5-6.1c0.3-1.5,1.1-2.9,2.3-3.9c4.9-4.4,13.4-5,19.8-4.9
		c7.4,0.1,15.3,1.7,21.1,6.5C152.8,138.5,154.3,140.4,154,142.7z"/>
	<g>
		<defs>
			<path id="SVGID_1_" d="M154,142.7c-0.2,1.4-0.9,2.7-1.9,3.7c-1.5,1.4-3.2,2.4-5.1,3c-7.4,2.6-15.5,2.6-23.1,1.1
				c-4.4-0.9-8.9-2.3-12.5-5c-2-1.5-3.7-3.7-3.5-6.1c0.3-1.5,1.1-2.9,2.3-3.9c4.9-4.4,13.4-5,19.8-4.9c7.4,0.1,15.3,1.7,21.1,6.5
				C152.8,138.5,154.3,140.4,154,142.7z"/>
		</defs>
		<clipPath id="SVGID_2_">
			<use xlink:href="#SVGID_1_"  style="overflow:visible;"/>
		</clipPath>
		<g class="st7">
			<path class="st8" d="M155.6,142.1c-0.5,6.1-13.3,10.3-25.6,9.3s-24.2-6.6-23.7-12.7s13.1-10.2,25.4-9.3
				C145.7,130.4,156.1,136,155.6,142.1z"/>
			<path class="st1" d="M155.7,142.6c0,0.2,0,0.4,0,0.6c-0.5,6.1-12,10.3-25.6,9.3s-24.2-6.6-23.7-12.7c0-0.3,0.1-0.6,0.1-0.8
				c0.3-1,0.8-1.9,1.5-2.6c6-0.1,11.9,0.1,17.8,0.6c9.9,0.7,19.8,1.6,29.4,3.7C155.5,141.3,155.7,141.9,155.7,142.6z"/>
		</g>
	</g>
	<path class="st1" d="M177.8,102.3c0,0-18.6,0.8-25.5,15c-1.7,3.5-3.5,7-5.1,10.7c-0.5,1.2-1,2.3-1.4,3.5c-0.3,0.9-0.6,1.7-0.9,2.6
		l0,0c-0.2,0.7-0.4,1.4-0.6,2s-0.4,1.7-0.6,2.5c-0.6,2.8-0.9,5.6-1,8.4l-25.5-2.1c1.6-2.7,3-5.5,4.2-8.5l0.1-0.3
		c0.6-1.7,1.2-3.4,1.6-5.1l0,0c0.1-0.5,0.2-1,0.3-1.5c0.3-1.6,0.6-3.3,0.6-5c0.2-3.2-0.4-6.4-1.8-9.3c-0.3-0.6-0.7-1.3-1.1-1.8
		c-0.4-0.5-0.7-1-1.2-1.5c-0.5-0.5-0.9-1-1.5-1.4c-2.7-2.3-6.5-4.2-11.8-5.3h-0.1l0,0l15.8-8.3L124,96l1.1-0.6l2.7-1.4l10.1-5.3
		l9.9,3.4l2.2,0.7l21.8,7.5l0.4,0.1l5.5,1.9L177.8,102.3z"/>
	<path class="st9" d="M133.7,101.1c0,0-11.5,4-15.2,9.3c-2.7-2.3-6.5-4.2-11.8-5.3h-0.1c-2.5,0.1-4.9,0.1-7.4-0.1l24.5-9.2l0.3,0.2
		L133.7,101.1z"/>
</g>
<g id="head">
	<path class="st0" d="M72,50.3c-5.4,4.2-11.1,8.3-17.8,9.7c-2.3,0.5-4.8,0.8-6.4,2.4c-2.8,3-0.5,7.9,2.4,10.7
		c8.2,7.6,20.4,8.8,31.5,8c6.4-0.5,12.8-1.5,18.6-4.2c12-5.6,19.9-22.6,10.3-34.1C100.1,29.9,81.4,43,72,50.3z"/>
	<path class="st1" d="M210.5,90.8c-6.5,9.9-19.2,12.2-33.7,12.3c-14.3,0.1-30.4-2-43.9-1.2c-3.7,0.2-7.4,0.7-11,1.6
		c-2,0.5-4,1-6.1,1.3c-3.3,0.5-6.7,0.9-10.1,1c-2.5,0.1-4.9,0.1-7.4-0.1l0,0c-22-1.4-36.2-13.2-40-27.5c-1.7-6.7-1.2-13.8,1.6-20.2
		c1.2-2.8,2.7-5.5,4.5-7.9c0.7-1,1.5-2,2.4-3c0.3-0.4,0.7-0.7,1-1.1c0.5-0.6,1.1-1.2,1.7-1.7l0.1-0.1c0.7-0.7,1.5-1.4,2.3-2.1
		l0.3-0.3c6-5.1,13.8-9.6,23.8-13.1c1-0.4,2.1-0.7,3.1-1c26.1-8.3,65.5-10.8,91,2.7c8.6,4.5,15.6,10.9,20,19.5
		c3,6,4.7,12.7,4.9,19.4C215.5,78.9,213.8,85.8,210.5,90.8z"/>
	<path class="st0" d="M101.8,42.9c-4.1,2.3-8.6-2.4-6.7-7c6-14.3,20-34.8,51.5-35.8s42.6,13.1,46.5,23.2c1.6,4-1.7,8.3-5.6,7.2
		C173,26.5,139.6,21.3,101.8,42.9z"/>
	<path class="st0" d="M186,62.7c-5.4,4.2-11.1,8.3-17.8,9.7c-2.3,0.5-4.8,0.8-6.4,2.4c-2.8,3-0.6,7.9,2.4,10.7
		c8.2,7.6,20.4,8.8,31.5,8c6.4-0.5,12.8-1.5,18.6-4.2c12-5.7,19.9-22.6,10.3-34.1C214.1,42.3,195.4,55.3,186,62.7z"/>
	<path class="st10" d="M129.7,53.5c9.9-2,18.6,0,19.6,4.6S143,68,133.1,70s-26.7,1.6-27.6-2.9S119.8,55.5,129.7,53.5z"/>
	<path class="st11" d="M125.3,56.7c4-0.6,7.5,0.4,7.8,2.3s-2.8,3.8-6.8,4.4s-10.8,0.1-11-1.8S121.3,57.3,125.3,56.7z"/>
	<path class="st10" d="M74.8,47.8c-2.4-3-6-4-8-2.4s-1.8,5.4,0.6,8.4s7.9,6.5,10,4.8S77.2,50.8,74.8,47.8z"/>
	<path class="st11" d="M75.1,49.9c-0.9-1.3-2.3-2-3-1.5s-0.6,2,0.3,3.3s3,3.1,3.8,2.6S76.1,51.2,75.1,49.9z"/>
	<path class="st12" d="M73.8,70.3c1.6,1.1,3.2,2.1,4.9,3c1.6,0.8,3.4,1.5,5.1,2c1.8,0.5,3.6,0.9,5.4,1.1c1.8,0.3,3.7,0.3,5.7,0.6
		c-1.8,0.8-3.8,1.3-5.8,1.4c-2,0.1-4.1-0.1-6-0.7c-2-0.6-3.8-1.5-5.4-2.8C76,73.7,74.7,72.1,73.8,70.3z"/>
</g>
<g id="r-arm">
	<path class="st1" d="M192.7,165.2c7.5,0.1,14.9-1.7,21.4-5.3c6.8-3.7,12.7-8.9,17.1-15.2c4.4-6.2,6.9-13.5,7.2-21
		c0.1-7.5-2.5-14.7-7.4-20.4l-0.1-0.1c-2.5-3.1-2.1-7.6,1-10.2c2.9-2.4,7.2-2.2,9.9,0.6c3.8,4,6.8,8.5,9,13.5
		c2.2,5.1,3.5,10.6,3.7,16.1c0.2,5.5-0.4,10.9-1.9,16.2c-1.5,5.2-3.6,10.1-6.4,14.7c-5.5,9.2-13.2,16.9-22.2,22.5
		c-9.3,5.8-20,9.1-30.9,9.7h-0.1c-5.8,0.2-10.7-4.4-10.9-10.2c-0.2-5.8,4.3-10.6,10-10.9H192.7z"/>
</g>
<g id="r-hand">
	<path class="st1" d="M230.6,101.5c-5-3.6-6.5-11-6.4-17.7s1.3-12.5,5.6-16.4c2.8-2.7,7-4.4,10.4-2c1.9,1.4,3.1,3.8,4,6.2
		c2.6,7.2,4.7,19.3,2.5,26.6C244.4,105.3,235.5,105.1,230.6,101.5z"/>
	<path class="st1" d="M236.4,103.9c-5.3-0.4-10.3-2.5-14.4-5.9c-4.1-3.6-6.8-9.2-6.3-14.7c0.1-1.3,0.6-2.8,1.8-3
		c1.3-0.2,2.4,1.3,3.2,2.5c2.6,4,7.1,6.3,11.8,6.2L236.4,103.9z"/>
	<path class="st0" d="M234.6,87.4c1,4.5,5.1,7.5,9.2,6.6s6.6-5.2,5.7-9.7s-5.8-11.2-9.9-10.3S233.6,82.9,234.6,87.4z"/>
</g>
</svg>
