<?xml version="1.0" encoding="utf-8"?>
<!-- Generator: Adobe Illustrator 25.2.0, SVG Export Plug-In . SVG Version: 6.00 Build 0)  -->
<svg version="1.1" id="Layer_1" xmlns="http://www.w3.org/2000/svg" xmlns:xlink="http://www.w3.org/1999/xlink" x="0px" y="0px"
	 viewBox="0 0 296.1 464.6" style="enable-background:new 0 0 296.1 464.6;" xml:space="preserve">
<style type="text/css">
	.st0{fill:#E941CB;}
	.st1{fill:#4E16FF;}
	.st2{fill:none;}
	.st3{fill:#1B1464;}
	.st4{fill:#FFFFFF;}
	.st5{clip-path:url(#SVGID_2_);}
	.st6{fill:#C025A4;}
	.st7{fill:#88D7EC;}
	.st8{fill:#CF3AB5;}
	.st9{fill:#081F8B;}
	.st10{fill:#2502BA;}
	.st11{fill:#3002EC;}
	.st12{fill:#309FEC;}
	.st13{fill:#639BAA;}
</style>
<g id="b-arm">
	<path class="st0" d="M184.1,168.9c-3.7,5.5-8.7,10-14.4,13.2c-5.6,3-11.7,4.9-17.9,5.5c-5.7,0.6-11.5,0.4-17.2-0.4
		c-5.4-0.8-10.7-2-15.9-3.5c-10-3.1-19.7-7-29.1-11.8c-9.2-4.6-18.1-9.8-26.7-15.5c-3.3-2.2-4.2-6.7-2-10c2.1-3.2,6.4-4.2,9.7-2.2
		h0.1c8.3,4.9,16.9,9.3,25.8,13.1c8.7,3.8,17.6,6.9,26.8,9.2c4.4,1.1,8.9,1.8,13.4,2.2c4.2,0.4,8.4,0.3,12.6-0.4
		c3.6-0.5,7.1-1.8,10.3-3.7c2.9-1.8,5.3-4.3,7-7.2c3.1-5,9.6-6.5,14.5-3.4c4.9,3,6.5,9.4,3.6,14.4l-0.3,0.5L184.1,168.9z"/>
</g>
<g id="b-hand">
	<path class="st1" d="M56.6,145.6c4.6,0.2,8.2,3.8,8,7.9s-4,7.5-8.6,7.2s-12-3.9-11.8-8.1S52,145.4,56.6,145.6z"/>
	<path class="st0" d="M67.4,142.8c-4.4-3.5-11.9-3.8-18.5-2.8s-12.1,2.8-15.3,6.8c-2.2,2.7-3.2,6.3-0.2,8.7c1.7,1.4,4.2,2,6.8,2.4
		c7.6,1.1,19.8,1.2,26.7-1.6C73.4,153.5,71.7,146.4,67.4,142.8z"/>
	<path class="st0" d="M70.7,147.2c-3.2-10-13.3-16-23.7-14.1c-1.2,0.3-2.6,0.9-2.7,1.9s1.7,1.7,3,2.2c4.4,1.7,7.5,5.1,8,8.8
		L70.7,147.2z"/>
	<path class="st2" d="M56.7,153.3c1-0.3,2-0.2,3,0.2c1.2,0.7,1.9,2.1,1.6,3.4c-0.3,1.3-1.1,2.5-2.2,3.2c-1.5,1-3.3,1.4-5.1,1.4
		c-2.1,0-11.4-0.6-9.5-4.1c1-1.7,3.2-1.9,4.9-2.3C51.9,154.6,54.3,153.8,56.7,153.3z"/>
</g>
<g id="head">
	<path class="st0" d="M248.2,90.6c-14.7,20.1-58.7,8.5-81.3,10.8c-6.5,0.2-11.8,1.8-17.9,2.8c-6.1,0.9-12.2,1.3-18.3,0.9l0,0
		c-41-2-57.7-38.5-27.3-62.2C137.6,15.7,250.1,7.7,253,69.7C253.5,79,251.7,85.7,248.2,90.6z"/>
	<path class="st1" d="M133.3,36.4c-4.2,1.8-8-3.3-5.6-7.5c7.5-13.1,23.5-31.2,54-28.6s39.6,17.7,42.2,27.9c1,4.1-2.6,7.8-6.3,6.3
		C204,28.9,172.3,19.9,133.3,36.4z"/>
	<path class="st1" d="M175.3,61.7c-6.1,4.1-12.6,8.1-20.1,9.5c-2.6,0.5-5.4,0.8-7.2,2.4c-3.1,2.9-0.7,7.7,2.7,10.4
		c9.2,7.3,22.9,8.4,35.5,7.5c7.2-0.5,14.5-1.5,21.1-4.2c13.5-5.6,22.6-22.1,11.9-33.2C207.2,41.6,186,54.5,175.3,61.7z"/>
	<path class="st3" d="M120.7,54.1c7.2-2.4,13.8-1.3,14.8,2.3s-4,8.5-11.2,10.8s-19.7,3.3-20.7-0.4S113.5,56.5,120.7,54.1z"/>
	<path class="st4" d="M117.7,57c2.9-0.8,5.6-0.2,5.9,1.3s-1.8,3.3-4.7,4.1s-8,0.8-8.3-0.7S114.7,57.8,117.7,57z"/>
	<g>
		<defs>
			<path id="SVGID_1_" d="M248.2,90.6c-14.7,20.1-58.7,8.5-81.3,10.8c-6.5,0.2-11.8,1.8-17.9,2.8c-6.1,0.9-12.2,1.3-18.3,0.9l0,0
				c-41-2-57.7-38.5-27.3-62.2C137.6,15.7,250.1,7.7,253,69.7C253.5,79,251.7,85.7,248.2,90.6z"/>
		</defs>
		<clipPath id="SVGID_2_">
			<use xlink:href="#SVGID_1_"  style="overflow:visible;"/>
		</clipPath>
		<g class="st5">
			<path class="st6" d="M101.2,76.8c-1.3,1.2-2.8,2.2-4.5,2.9c-1.7,0.7-3.4,1.1-5.2,1.2c-1.8,0.1-3.6,0-5.4-0.5
				c-1.7-0.4-3.4-1.2-4.8-2.3c1.7,0.3,3.4,0.6,5.1,0.8c3.3,0.3,6.6,0.1,9.9-0.7C97.9,77.8,99.5,77.3,101.2,76.8z"/>
		</g>
	</g>
</g>
<g id="body">
	<path class="st7" d="M62.4,299.4c-4.4,9.3-2.8,18.6,3.5,20.8s15-3.6,19.4-13s8.5-27.2,1.7-27.4C78.8,279.6,66.8,290.1,62.4,299.4z"
		/>
	<path class="st0" d="M139,333.2l-69.3,8.5c-6.5,1.7-13.2-2.3-14.8-8.8c0,0,0,0,0,0l0,0c-1.6-6.5,2.3-13.2,8.9-14.8l67.2-17
		L139,333.2z"/>
	<path class="st8" d="M53.3,332.2c-2.3-7.9,4.6-15.6,14.1-15.6l0,0c9.5,0,16.4,7.7,14.1,15.6c-3.8,13.1-7,33.9-1.8,60.2H55.1
		C60.3,366.1,57.1,345.4,53.3,332.2z"/>
	<path class="st9" d="M50.4,406.9c-4.6,5.1-14.3,9.8-20.6,10.2s-12.9,0.1-18.9,2.6S-0.4,428.7,0.1,436c0.6,8.1,8.1,13.3,15.1,13.7
		c13,0.8,25.1-9.9,38.2-9.3c8.2,0.4,16.3,5.2,24.3,2.9c6.9-1.9,12.4-9.5,12.8-17.6s-4.2-16.3-10.9-18.9L50.4,406.9z"/>
	<path class="st10" d="M81,402.9c3.5-1.8,5.3-5.5,4.2-8.6c-1.4-3.9-5.7-6-9.8-5.2c-6.6,1.2-13.4,1.2-20,0.1
		c-4.1-0.7-8.4,1.4-9.7,5.3c-1.1,3.1,0.7,6.7,4.2,8.5c-4.8,4.9-13.9,9.2-20,9.6c-6.3,0.4-12.9,0.1-18.9,2.6s-11.4,9-10.9,16.2
		c0.6,8.1,8.1,13.3,15.1,13.7c13,0.8,25.1-9.9,38.2-9.3c8.2,0.4,16.3,5.2,24.3,2.9c6.9-1.9,12.4-9.5,12.8-17.6
		C90.9,413.6,86.9,406.1,81,402.9z"/>
	<path class="st0" d="M145.1,95l-3.6,10.1c0,0,15.4,0.1,21.2,9c3.1,7.6,4.1,18.3-5.2,30.3h34.9c0,0-9.2-10.1-4.5-29.8
		c4-12.6,25.2-11.9,25.2-11.9V95H145.1z"/>
	<path class="st7" d="M293.6,302.5c4.4,9.3,2.8,18.6-3.5,20.8s-15-3.6-19.4-13s-8.5-27.2-1.7-27.5
		C277.2,282.7,289.2,293.2,293.6,302.5z"/>
	<path class="st11" d="M287,309.6c0-0.3-0.1-0.5-0.2-0.8c-0.8-5.7-2.9-11.2-6.1-16.1c-2.8-4-6-7.7-9.6-11c-4.1-4.2-8.4-8.2-12.9-12
		l0,0l-0.9-0.9c-12.3-12.9-19.7-29.4-23.8-46.2s-8.1-41.2-9.1-58.5v-2c0-16.6-12.5-26.2-31-26.2h-36.1c-18.5,0-33.5,9.6-33.5,26.2v2
		c-1,17.3-2.5,41.6-6.6,58.5s-11.5,33.4-23.8,46.2c-7.7,8.1-17.3,14.7-23.4,23.9c-7.3,11.2-8.5,25.3-3.2,37.6
		c5.3,12.1,17,21.5,30.6,24.6c10.8,2.4,22-5.4,33.1-5.1c3.3,0.1,4.7,0.6,6.3,1.7c1,0.7,1.8,1.5,2.6,2.4l1.6,1.8
		c9.2,9.8,23.9,12.3,37.3,11s26.3-5.5,39.7-6.7c14.9-1.4,30.6,1,44.4-4.7C279.7,348.3,290.7,328,287,309.6z"/>
	<path class="st12" d="M119.1,175.5c6-21.5,4-45.8,56.5-46.1c31.6-0.2,48.9,9,51.8,27.4c3,19.4-27.3-5.3-44.4,13.8
		c-16.6,18.5-44,57.1-65.6,51.9C110,220.8,119.1,175.5,119.1,175.5z"/>
	<path class="st7" d="M171.3,151.5c-4.3,5.5-4.5,13.2-1.7,19.5c2.2,4.9,6.6,9.5,12.3,10.2c5.1,0.5,10.1-1.8,13.1-5.9
		C205.9,160.3,187.2,131.2,171.3,151.5z"/>
	<path class="st7" d="M110.9,188.1c0.8-8.3,5.4-14.9,10.3-14.6s8.2,7.2,7.5,15.6s-6,21.7-10.9,21.4S110.1,196.4,110.9,188.1z"/>
	<path class="st7" d="M197.4,139.1c-5.5,2.3-13.1,3.8-21.8,3.7c-20.4-0.1-35.2-8.3-29.4-16.4l0.2-0.3l0,0c3.7-4.2,11.6-2.2,13.8-1.9
		c15.6,2.1,15.4,1.9,28.8,0c7.6-1.1,12-1.8,15.7,2.1l0,0l0.2,0.3C208.2,131.3,204.8,136,197.4,139.1z"/>
	<path class="st7" d="M105,307.6c-3.7,8.2-11.1,13.4-16.7,11.6s-7.1-9.9-3.5-18.1s14-20.1,19.6-18.4S108.6,299.4,105,307.6z"/>
	<path class="st7" d="M243.1,314.2c3.9,8.7,11.8,14.2,17.6,12.3s7.5-10.5,3.7-19.2s-14.9-21.3-20.8-19.4S239.2,305.5,243.1,314.2z"
		/>
	<path class="st0" d="M151.9,358.4l-71.1-4c-6.7-0.3-12-6-11.7-12.7c0,0,0,0,0,0l0,0c0.3-6.7,6-11.9,12.7-11.6l60.4-3.4L151.9,358.4
		z"/>
	<path class="st0" d="M69.5,347.1c-2.3-7.9,4.6-15.6,14.1-15.6l0,0c9.5,0,16.4,7.7,14.1,15.6c-3.8,13.1-7,33.9-1.8,60.2H71.3
		C76.5,381,73.3,360.3,69.5,347.1z"/>
	<path class="st9" d="M66.6,421.8C62,427,52.3,431.6,46,432s-12.9,0.1-18.9,2.6s-11.4,9-10.9,16.2c0.6,8.1,8.1,13.3,15.1,13.7
		c13,0.8,25.1-9.9,38.2-9.3c8.2,0.4,16.3,5.2,24.3,2.9c6.9-1.9,12.4-9.5,12.8-17.6s-4.2-16.3-10.9-18.9L66.6,421.8z"/>
	<path class="st11" d="M97.2,417.8c3.5-1.8,5.3-5.5,4.2-8.6c-1.4-3.9-5.7-6-9.8-5.2c-6.6,1.2-13.4,1.3-20,0.1
		c-4.1-0.7-8.4,1.4-9.8,5.3c-1.1,3.1,0.7,6.7,4.2,8.5c-4.8,4.9-13.9,9.2-20,9.6c-6.3,0.4-12.9,0.1-18.9,2.6s-11.4,9-10.9,16.2
		c0.6,8.1,8.1,13.3,15.1,13.7c13,0.8,25.1-9.9,38.2-9.3c8.2,0.4,16.3,5.2,24.3,3c6.9-1.9,12.4-9.5,12.8-17.6
		C107.1,428.5,103.1,421,97.2,417.8z"/>
	<circle class="st13" cx="97.3" cy="447.3" r="14.8"/>
	<circle class="st7" cx="99.6" cy="449.5" r="14.8"/>
	<path class="st11" d="M104.8,327c10.3,1.5,18.3,8.4,24.9,15.5s8.6,13.8,17.6,18.4c13.4,6.9,36.2,5.6,47-4.2v-49.4l-85.6-1.5
		L104.8,327z"/>
	<path class="st7" d="M189.4,322.3c0,10.7-5.9,19.3-13.1,19.3s-13.1-8.7-13.1-19.3s5.9-28.1,13.1-28.1S189.4,311.6,189.4,322.3z"/>
</g>
<g id="f-arm">
	<path class="st0" d="M191.6,155.9c8.5,7.4,14.6,17.3,17.4,28.3c2.6,10.6,2.3,21.7-0.8,32.2c-3,10.3-8.8,19.7-16.6,27
		c-4,3.7-8.5,6.7-13.3,9c-4.8,2.3-10,3.8-15.3,4.6c-4,0.6-7.6-2.2-8.2-6.1c-0.6-3.8,2-7.4,5.7-8.1h0.1c7.6-1.5,14.5-5.3,19.8-10.9
		c5.3-5.6,9-12.5,10.7-20.1c1.7-7.4,1.5-15.1-0.7-22.3c-2.2-6.9-6.4-12.9-12.1-17.3c-4.5-3.7-5.2-10.4-1.4-14.9
		c3.5-4.3,9.8-5.1,14.3-1.9c0.2,0.1,0.4,0.3,0.5,0.4L191.6,155.9z"/>
</g>
<g id="f-hand">
	<path class="st0" d="M158.5,241.1c-5.9-1.5-12.6,2-17.7,6.3s-8.8,8.9-9.2,14.7c-0.3,3.9,1,8.2,5,9.2c2.3,0.6,4.9,0,7.3-0.9
		c7.3-2.6,17.8-8.6,22.1-15C170.2,249.3,164.4,242.6,158.5,241.1z"/>
	<path class="st0" d="M164,244.1c-3.7-3.8-8.4-6.4-13.6-7.4c-5.3-0.9-11.4,0.5-15.4,4.4c-0.9,0.9-1.8,2.2-1.2,3.3s2.5,1,3.9,0.9
		c4.7-0.5,9.3,1.5,12.2,5.2L164,244.1z"/>
	<path class="st1" d="M150.2,253.1c4.1-2.1,9-0.8,10.9,2.9c1.9,3.7,0.2,8.5-3.9,10.6s-12.3,2.6-14.3-1.1S146.1,255.2,150.2,253.1z"
		/>
</g>
</svg>
