<?xml version="1.0" encoding="utf-8"?>
<!-- Generator: Adobe Illustrator 25.2.0, SVG Export Plug-In . SVG Version: 6.00 Build 0)  -->
<svg version="1.1" id="Layer_1" xmlns="http://www.w3.org/2000/svg" xmlns:xlink="http://www.w3.org/1999/xlink" x="0px" y="0px"
	 viewBox="0 0 254.2 500.9" style="enable-background:new 0 0 254.2 500.9;" xml:space="preserve">
<style type="text/css">
	.st0{fill:#E941CB;}
	.st1{fill:#081F8B;}
	.st2{fill:#3002EC;}
	.st3{fill:#639BAA;}
	.st4{fill:#88D7EC;}
	.st5{fill:#309FEC;}
	.st6{fill:#20019B;}
	.st7{fill:#D41EC2;}
	.st8{fill:#4E16FF;}
	.st9{fill:#1B1464;}
	.st10{fill:#FFFFFF;}
	.st11{fill:#C025A4;}
</style>
<g id="l-arm">
	<path class="st0" d="M76.3,174.7c-6,1.6-11.9,5.8-16.4,11.4c-4.6,5.7-7.8,12.5-9.2,19.7c-1.4,7.4-1.2,15.1,0.7,22.4
		c1.7,7.3,5.3,14,10.5,19.5l0.1,0.1c2.6,2.6,2.6,6.7,0,9.3c-2.5,2.5-6.5,2.6-9.1,0.2c-7.3-6.8-12.7-15.4-15.6-25
		c-3-9.4-3.9-19.4-2.5-29.2c1.4-10,5.2-19.5,11-27.8c3-4.2,6.6-8,10.7-11.3c4.3-3.4,9.1-6.1,14.3-7.8h0.1c5-1.7,10.5,1,12.2,6.1
		c1.7,5-1,10.5-6.1,12.2l0,0C76.6,174.6,76.4,174.6,76.3,174.7z"/>
</g>
<g id="b-foot">
	<path class="st1" d="M65.8,439.6c-4.2,5.2-13.5,10.1-19.7,10.8s-12.5,0.6-18.3,3.2s-10.8,9.2-10,16.2c0.9,7.9,8.4,12.7,15.3,12.8
		c12.7,0.3,24.1-10.6,36.8-10.5c8,0,16.1,4.4,23.8,2c6.7-2.1,11.7-9.7,11.8-17.7s-4.8-15.7-11.4-18L65.8,439.6z"/>
	<path class="st0" d="M95.7,366.5l-18.5,0.8l-18.5,0.8c0,0,16.8,24.4,10.1,64.6l11.2-0.5l11.2-0.5C81.1,392.3,95.7,366.5,95.7,366.5
		z"/>
	<path class="st2" d="M95.5,434.6c3.3-1.9,4.9-5.5,3.6-8.5l0,0c-1.7-3.7-5.8-5.7-9.8-4.8c-6.5,1.4-13.1,1.7-19.7,0.7
		c-4-0.6-8.3,1.6-9.4,5.5c-0.9,3.1,1.1,6.7,4.7,8.3c-4.5,5-13.2,9.5-19.1,10.1c-6.2,0.6-12.5,0.6-18.3,3.2s-10.8,9.2-10,16.2
		c0.9,7.9,8.4,12.7,15.3,12.8c12.7,0.3,24.1-10.6,36.8-10.5c8,0,16.1,4.4,23.8,1.9c6.7-2.1,11.7-9.7,11.8-17.7
		C105.5,444.6,101.3,437.5,95.5,434.6z"/>
	<circle class="st3" cx="96.7" cy="463.3" r="14.4"/>
	<circle class="st4" cx="99" cy="465.4" r="14.4"/>
</g>
<g id="f-foot">
	<path class="st1" d="M151.5,455.5c-4.5,5.5-14.3,10.7-20.8,11.3s-13.2,0.6-19.3,3.4s-11.3,9.6-10.5,17.1
		c0.9,8.3,8.9,13.3,16.1,13.5c13.4,0.3,25.4-11.1,38.8-11.1c8.5,0,17,4.6,25.1,2c7-2.2,12.4-10.2,12.5-18.6s-5-16.5-12-19
		L151.5,455.5z"/>
	<path class="st0" d="M183.1,378.6l-19.5,0.9l-19.5,0.9c0,0,17.7,25.7,10.7,68l11.8-0.5l11.8-0.5
		C167.7,405.7,183.1,378.6,183.1,378.6z"/>
	<path class="st2" d="M182.8,450.2c3.6-2,5.2-5.8,4-9c-1.6-4-6.1-5.9-10.3-5c-6.8,1.5-13.7,1.8-20.6,0.9c-4.2-0.5-8.6,1.8-9.8,5.9
		c-1,3.2,1,6.9,4.6,8.6c-4.7,5.2-13.9,10-20.2,10.7c-6.5,0.7-13.2,0.6-19.3,3.4s-11.4,9.6-10.5,17.1c0.9,8.3,8.8,13.3,16.1,13.5
		c13.4,0.3,25.4-11.1,38.8-11.1c8.4,0,17,4.6,25.1,2c7-2.2,12.4-10.2,12.5-18.6C193.4,460.8,189,453.2,182.8,450.2z"/>
	<circle class="st3" cx="184.1" cy="480.5" r="15.2"/>
	<circle class="st4" cx="186.5" cy="482.7" r="15.2"/>
</g>
<g id="r-arm">
	<path class="st0" d="M193.1,165.8c10.7,3,20.4,9,27.9,17.2c7.5,8,12.6,18,14.7,28.8c1.9,10.7,0.8,21.7-3.1,31.8
		c-3.8,10-10.4,18.7-18.9,25.1c-3.1,2.5-7.7,2-10.2-1.2s-2-7.7,1.2-10.2l0.1-0.1c5.9-5.1,10.3-11.7,12.7-19.2
		c2.4-7.3,2.7-15.1,0.9-22.5c-1.9-7.3-5.8-13.8-11.3-19c-5.3-5.1-11.8-8.7-19-10.2c-5.7-1-9.5-6.6-8.5-12.3c1-5.7,6.6-9.5,12.3-8.5
		c0.1,0,0.3,0.1,0.4,0.1c0.2,0,0.4,0.1,0.6,0.1L193.1,165.8z"/>
</g>
<g id="body">
	<path class="st4" d="M25.9,328.3c-4.3,11.3-13,18.4-19.5,16s-8.4-13.6-4.1-24.9s16.5-27.7,23-25.2S30.2,317,25.9,328.3z"/>
	<path class="st4" d="M251.3,321.4c4.8,11,3.6,22.3-2.8,25.1s-15.5-3.9-20.3-15s-7.6-31.3-1.2-34.1S246.4,310.3,251.3,321.4z"/>
	<path class="st4" d="M66.1,151.6c-4.5,6.2-4.6,14.8-1.8,21.9c2.2,5.5,6.7,10.6,12.6,11.4c5.2,0.7,10.4-2.2,13.4-6.6
		C101.5,161.5,82.3,128.9,66.1,151.6z"/>
	<path class="st2" d="M104.2,137.6c-7.5,0.5-15.6,1.4-21.4,6.3c-6.3,5.4-8.3,14.2-9.4,22.5c-4,29.2-3.4,60.6-18.8,85.8
		c-11.6,18.8-31.1,32.1-40.7,52c-6,12.3-7.7,26.9-3.4,39.9s14.8,24,27.9,27.8c13.3,3.8,28,0.2,41.3,4c11.3,3.2,20.6,11.6,32,14.6
		c22,5.8,43.9-9.6,66.6-10.2c15-0.4,31.1,5.7,44.5-1.1l0,0c6.3-2.4,11.7-6.9,15.2-12.7c6.6-11.2,8.4-25.5,6.2-38.5
		c-2.9-17.3-11.7-33-21.1-47.9s-19.5-29.5-25.5-46c-5.9-16.2-7.2-33.3-7.2-50.4c0-9.5,1-21-4.5-29.3
		C171.2,132,126.8,136.1,104.2,137.6z"/>
	<path class="st5" d="M160.3,135.2c-11.2-3.4-23-4.4-34.7-5.2c-9.6-0.6-19.5-1.1-28.8,1.2s-18.4,7.8-22.8,16.4
		c-4.5,8.9-3.6,19.5-1.3,29.2c3.3,14.5,9,28.4,15.9,41.6c4,7.6,8.6,15.4,15.8,20.1c9.3,6.1,21.6,6.1,32,2.3s19.3-10.9,27.4-18.5
		c9.1-8.6,17.7-18,23.1-29.3c5.1-10.5,8.6-26.5,3.5-37.8C185.5,144.8,170.5,138.3,160.3,135.2z"/>
	<path class="st6" d="M154.1,143.1c-0.4,5.7-12.5,9.6-24,8.7s-22.6-6.2-22.1-11.9s12.3-9.6,23.8-8.7
		C144.8,132.1,154.5,137.4,154.1,143.1z"/>
	<path class="st0" d="M154.1,142.5c0,0.2,0,0.4,0,0.6c-0.5,5.7-11.2,9.6-24,8.7s-22.6-6.2-22.1-11.9c0-0.3,0.1-0.5,0.1-0.8
		c0.2-0.9,0.7-1.8,1.4-2.4c5.6-0.1,11.1,0.1,16.7,0.6c9.2,0.7,18.6,1.5,27.5,3.5C154,141.3,154.1,141.9,154.1,142.5z"/>
	<path class="st4" d="M165.1,139.3c-1.5-1.9-3.2-3.6-5.1-5c-3.3-2.5-7-4.4-10.9-5.8c-5.5-2-11.2-3.2-17.1-3.6
		c-2.9-0.2-5.7-0.2-8.6-0.1c-6.8,0.3-13.5,2-19.6,4.9c-4.5,2.2-8,5.2-10.1,8.6c-1.2,1.9-1.9,4-2.1,6.2
		c-1.1,12.3,15.3,23.5,36.6,24.9s39.3-7.3,40.4-19.6C168.8,146,167.6,142.3,165.1,139.3z M154.1,143.1c-0.1,0.6-0.2,1.1-0.4,1.6
		c-0.1,0.1-0.1,0.3-0.2,0.4c-0.2,0.4-0.5,0.7-0.8,1.1l-0.4,0.4l0,0c-0.2,0.2-0.4,0.4-0.6,0.6c-0.2,0.2-0.5,0.4-0.7,0.6
		c-0.2,0.2-0.5,0.4-0.8,0.5c-0.2,0.1-0.4,0.2-0.6,0.3c-0.1,0.1-0.2,0.1-0.3,0.2s-0.4,0.2-0.6,0.3c-0.4,0.2-0.9,0.4-1.4,0.6
		c-0.2,0.1-0.5,0.2-0.7,0.3c-0.6,0.2-1.3,0.4-1.9,0.6l-0.4,0.1l-0.8,0.2l0,0l-0.9,0.2l-1.3,0.2l-0.9,0.1c-3.3,0.4-6.7,0.5-10,0.3
		c-0.6,0-1.2-0.1-1.7-0.1l-1.1-0.1c-0.6-0.1-1.1-0.1-1.7-0.2l-1.1-0.2c-1.2-0.2-2.5-0.5-3.6-0.8l-0.5-0.1l-1.4-0.4
		c-0.8-0.3-1.6-0.6-2.4-0.9l-1.1-0.5c-1.4-0.6-2.7-1.4-3.9-2.2c-0.2-0.1-0.4-0.3-0.6-0.4s-0.4-0.3-0.5-0.4l-0.2-0.2l-0.2-0.2
		c-0.2-0.2-0.4-0.5-0.6-0.7c-0.1-0.2-0.3-0.3-0.4-0.5c-0.2-0.2-0.3-0.5-0.4-0.7l0,0c-0.5-0.9-0.7-1.9-0.7-2.9c0-0.1,0-0.3,0-0.4l0,0
		c0-0.1,0-0.2,0.1-0.3c0,0,0,0,0-0.1l0,0l0,0c0-0.1,0-0.2,0.1-0.3c0,0,0,0,0-0.1v-0.1c0-0.1,0.1-0.1,0.1-0.2l0,0c0,0,0-0.1,0-0.1
		c0,0,0-0.1,0-0.1c0,0,0,0,0-0.1c0-0.1,0-0.1,0.1-0.2c0-0.1,0.1-0.1,0.1-0.2l0,0l0.1-0.1c0-0.1,0-0.1,0.1-0.1l0.1-0.1l0.1-0.1
		c0,0,0-0.1,0.1-0.1l0.1-0.2l0,0c0.1-0.2,0.3-0.3,0.4-0.5c0.1-0.1,0.1-0.2,0.2-0.3l0.1-0.1l0.2-0.1c0.5-0.5,1.1-1,1.8-1.4l0.2-0.1
		l0.3-0.2l0.3-0.2l0.4-0.2l0.2-0.1l0.4-0.2l0,0l0.3-0.1c0,0,0.1,0,0.2-0.1c0,0,0,0,0.1,0l0.1-0.1l0.3-0.1l0.4-0.2l0.2-0.1l0.6-0.2
		l0.2-0.1l0,0l0.3-0.1l0,0l0.4-0.1l0.2-0.1l0.6-0.2l0.5-0.1l0,0h0.1h0.1c0.1,0,0.2,0,0.2-0.1l0.9-0.2h0.2l0.5-0.1h0.2l0.4-0.1h0.2
		h0.2h0.3h0.2h0.2h0.2h0.1h0.3h0.2l0,0l0.5-0.1h0.6l0.7-0.1h0.3c0.5-0.1,1.1-0.1,1.6-0.1h0.2c0.5,0,1.1,0,1.6-0.1h0.9
		c0.5,0,1,0,1.6,0h0.4c0.6,0,1.1,0,1.7,0.1l0.9,0.1l1.2,0.1l0.7,0.1h0.3h0l0.8,0.1l0,0l1,0.1h0.2l0.5,0.1l0.3,0.1l1.4,0.3l0.4,0.1
		l0.5,0.1l0.5,0.1l0.6,0.1l0.5,0.1l0.5,0.1l0.2,0.1c0.5,0.1,1,0.3,1.4,0.5l1,0.4l0.6,0.2l0.2,0.1l1.1,0.5l0,0l0,0
		c0.4,0.2,0.7,0.3,1,0.5l0.5,0.2h0.1l0.3,0.2l0.4,0.2l0.3,0.2l0.2,0.1l0.2,0.1l0,0l0.1,0.1l0.4,0.2l0.1,0.1l0,0h0.1l0.1,0.1l0.4,0.3
		l0.1,0.1l0,0l0.2,0.2l0.2,0.1l0.4,0.4l0.2,0.1l0.1,0.1l0,0l0.2,0.2c0.1,0.1,0.3,0.3,0.4,0.4l0.3,0.3l0.1,0.1
		c0.1,0.1,0.2,0.3,0.3,0.4l0,0v0.1l0.2,0.3c0.1,0.1,0.2,0.3,0.2,0.4l0.1,0.2l0.1,0.3c0,0,0,0.1,0,0.1l0.1,0.1c0,0.1,0.1,0.2,0.1,0.3
		c0.1,0.2,0.1,0.3,0.1,0.5l0.1,0.3c0,0.1,0,0.1,0,0.2c0,0.1,0,0.2,0,0.3c0,0.1,0,0.1,0,0.2C154.1,142.8,154.1,143,154.1,143.1z"/>
	<path class="st4" d="M174.2,162.7c-4.5,6.2-4.6,14.9-1.8,22c2.2,5.5,6.7,10.6,12.6,11.4c5.2,0.7,10.5-2.3,13.4-6.6
		C209.8,172.7,190.6,139.9,174.2,162.7z"/>
	<path class="st0" d="M177.8,102.8c0,0-18.6,0.8-25.5,15c-1.7,3.5-3.5,7-5.1,10.7c-0.5,1.1-1,2.3-1.4,3.5c-0.3,0.9-0.6,1.7-0.9,2.6
		l0,0c-0.2,0.7-0.4,1.4-0.6,2s-0.4,1.7-0.6,2.5c-0.6,2.8-0.9,5.6-1,8.4l-25.6-2.2c1.6-2.7,3-5.5,4.2-8.5c0-0.1,0.1-0.2,0.1-0.3
		c0.6-1.7,1.2-3.4,1.6-5.1c0.1-0.5,0.2-1,0.3-1.5c0.3-1.6,0.6-3.3,0.6-5c0.2-3.2-0.4-6.4-1.8-9.2c-0.3-0.6-0.7-1.3-1.1-1.8
		c-0.4-0.5-0.7-1-1.2-1.5c-0.5-0.5-1-1-1.5-1.5c-2.7-2.3-6.5-4.2-11.8-5.3h-0.1l15.8-8.3l1.6-0.8l1.1-0.6l2.7-1.4l10.1-5.3l9.9,3.4
		l2.2,0.7l21.8,7.5l0.4,0.1l5.5,1.9L177.8,102.8z"/>
	<path class="st7" d="M133.7,101.5c0,0-11.5,4-15.2,9.3c-2.7-2.3-6.5-4.2-11.8-5.3h-0.1l15.8-8.3l1.6-0.8L133.7,101.5z"/>
	<path class="st4" d="M58.5,328.9c-4.3,11.3-13,18.4-19.5,16s-8.3-13.6-4.1-24.9s16.5-27.7,23-25.2S62.8,317.7,58.5,328.9z"/>
	<path class="st4" d="M131.2,342.9c-0.9,12-7.3,21.3-14.3,20.8S105.1,353,106,341s8.1-31.2,15-30.6S132.1,330.9,131.2,342.9z"/>
	<path class="st4" d="M103.2,206.6c0.3-9.1,6.1-16.4,13.1-16.2s12.4,7.8,12.1,16.9s-6.3,23.8-13.3,23.6S103,215.7,103.2,206.6z"/>
	<path class="st4" d="M210.8,332.7c3.1,11.6,0.2,22.6-6.5,24.4s-14.7-6.2-17.8-17.8s-2.7-32.1,4-33.9S207.7,321.1,210.8,332.7z"/>
</g>
<g id="r-hand">
	<path class="st0" d="M201.5,262.7c-2,5.8,1.1,12.7,5,18.2s8.3,9.4,14,10.2c3.9,0.5,8.3-0.5,9.6-4.4c0.8-2.2,0.4-4.9-0.3-7.4
		c-2-7.4-7.3-18.4-13.4-23.2C210.6,251.7,203.5,256.9,201.5,262.7z"/>
	<path class="st0" d="M204.9,257.5c-4,3.4-7,8-8.3,13.1c-1.3,5.2-0.3,11.4,3.3,15.6c0.8,1,2.1,1.9,3.2,1.4s1.2-2.4,1.2-3.9
		c-0.1-4.7,2.2-9.2,6.1-11.8L204.9,257.5z"/>
	<path class="st8" d="M212.9,271.9c-1.8-4.2-0.2-9,3.7-10.7s8.4,0.4,10.3,4.7s1.7,12.5-2.2,14.1S214.7,276.1,212.9,271.9z"/>
</g>
<g id="l-hand">
	<path class="st0" d="M65.3,254c0.8,6.1-3.7,12.2-8.5,16.8s-10,7.5-15.8,7.2c-3.9-0.2-8-2.1-8.5-6.2c-0.3-2.3,0.7-4.8,1.8-7.1
		c3.5-6.9,10.9-16.6,17.8-20C58.7,241.4,64.6,247.9,65.3,254z"/>
	<path class="st0" d="M63.1,248.2c3.3,4.2,5.2,9.2,5.5,14.5c0.2,5.4-2,11.2-6.4,14.6c-1,0.8-2.5,1.5-3.4,0.7s-0.7-2.6-0.3-4
		c1.1-4.6-0.3-9.5-3.6-12.8L63.1,248.2z"/>
	<path class="st8" d="M52.3,260.7c2.7-3.8,2-8.8-1.4-11.2s-8.4-1.3-11,2.5s-4.2,11.9-0.7,14.3S49.7,264.4,52.3,260.7z"/>
</g>
<g id="head">
	<path class="st8" d="M69.8,50.3c-5.4,4.2-11.1,8.3-17.8,9.7c-2.3,0.5-4.8,0.8-6.4,2.4c-2.8,3-0.5,7.9,2.4,10.7
		c8.2,7.6,20.4,8.8,31.5,8c6.4-0.5,12.8-1.5,18.6-4.2c12-5.6,19.9-22.6,10.3-34.1C98,29.9,79.3,43,69.8,50.3z"/>
	<path class="st0" d="M208.3,90.8c-6.5,9.9-19.2,12.2-33.7,12.3c-14.3,0.1-30.4-2-43.8-1.2c-3.7,0.2-7.4,0.7-11,1.6
		c-2,0.5-4,1-6.1,1.3c-3.3,0.5-6.7,0.9-10.1,1c-2.5,0.1-4.9,0.1-7.4-0.1l0,0c-22-1.4-36.2-13.2-40-27.5c-1.7-6.7-1.2-13.8,1.6-20.2
		c1.2-2.8,2.7-5.5,4.5-7.9c0.7-1,1.5-2,2.4-3c0.3-0.4,0.7-0.7,1-1.1c0.5-0.6,1.1-1.2,1.7-1.7l0.1-0.1c0.7-0.7,1.5-1.4,2.3-2.1
		l0.3-0.3c6-5.1,13.8-9.6,23.8-13.1c1-0.4,2.1-0.7,3.1-1c26.1-8.3,65.5-10.8,91,2.7c8.6,4.6,15.7,10.9,20,19.6
		c3,6,4.7,12.6,4.9,19.4C213.4,78.9,211.6,85.8,208.3,90.8z"/>
	<path class="st8" d="M99.7,42.9c-4.1,2.3-8.6-2.4-6.7-7c6-14.3,20.1-34.8,51.5-35.9s42.6,13.1,46.5,23.2c1.6,4-1.7,8.3-5.6,7.2
		C170.9,26.5,137.5,21.3,99.7,42.9z"/>
	<path class="st8" d="M183.9,62.7c-5.4,4.2-11.1,8.3-17.8,9.7c-2.3,0.5-4.8,0.8-6.4,2.4c-2.8,3-0.6,7.9,2.4,10.7
		c8.2,7.6,20.4,8.8,31.5,8c6.4-0.5,12.8-1.5,18.6-4.2c12-5.7,19.9-22.6,10.3-34.1C212,42.3,193.3,55.3,183.9,62.7z"/>
	<path class="st9" d="M127.6,53.5c9.9-2,18.6,0,19.6,4.6S140.8,68,131,70s-26.7,1.6-27.7-2.9S117.7,55.5,127.6,53.5z"/>
	<path class="st10" d="M123.2,56.7c4-0.6,7.5,0.4,7.8,2.3s-2.8,3.8-6.8,4.4s-10.8,0.1-11-1.8S119.2,57.3,123.2,56.7z"/>
	<path class="st9" d="M72.7,47.8c-2.4-3-6-4-8.1-2.4s-1.8,5.4,0.6,8.4c2.4,3,7.9,6.5,10,4.8S75.1,50.8,72.7,47.8z"/>
	<path class="st10" d="M73,49.9c-0.9-1.3-2.3-2-3-1.5s-0.6,2,0.3,3.3s3,3.1,3.8,2.6S73.9,51.2,73,49.9z"/>
	<path class="st11" d="M71.6,70.3c1.6,1.1,3.2,2.1,4.9,3c1.6,0.8,3.4,1.5,5.1,2c1.8,0.5,3.5,0.9,5.4,1.1c1.9,0.3,3.8,0.3,5.8,0.6
		c-1.8,0.8-3.8,1.3-5.8,1.4c-2,0.1-4.1-0.1-6-0.7c-2-0.6-3.8-1.5-5.4-2.8C73.9,73.7,72.6,72.1,71.6,70.3z"/>
</g>
</svg>
