<?xml version="1.0" encoding="utf-8"?>
<!-- Generator: Adobe Illustrator 25.2.0, SVG Export Plug-In . SVG Version: 6.00 Build 0)  -->
<svg version="1.1" id="Layer_1" xmlns="http://www.w3.org/2000/svg" xmlns:xlink="http://www.w3.org/1999/xlink" x="0px" y="0px"
	 viewBox="0 0 298.4 495" style="enable-background:new 0 0 298.4 495;" xml:space="preserve">
<style type="text/css">
	.st0{fill:#E941CB;}
	.st1{fill:#4E16FF;}
	.st2{fill:#88D7EC;}
	.st3{fill:#3002EC;}
	.st4{fill:#309FEC;}
	.st5{fill:#081F8B;}
	.st6{fill:#639BAA;}
	.st7{clip-path:url(#SVGID_2_);}
	.st8{fill:#20019B;}
	.st9{fill:#D41EC2;}
	.st10{fill:#1B1464;}
	.st11{fill:#FFFFFF;}
	.st12{fill:#C025A4;}
</style>
<g id="l-arm">
	<path class="st0" d="M129.6,162.4c-3.9,9.8-10.2,18.5-18.5,25.1c-8.2,6.7-18.2,10.8-28.8,11.9c-10.5,0.9-21-1.5-30.1-6.8
		c-8.9-5.1-16.1-12.6-20.9-21.6c-1.6-3.5-0.1-7.7,3.4-9.3c3.1-1.5,6.8-0.4,8.8,2.4v0.1c3.9,6.3,9.5,11.5,16.2,14.8
		c6.4,3.2,13.6,4.5,20.7,3.5c7-1.2,13.5-4.4,18.7-9.2c5.3-4.7,9.2-10.8,11.4-17.5c1.8-5.4,7.5-8.3,12.9-6.5
		c5.3,1.7,8.2,7.3,6.6,12.6c-0.1,0.2-0.1,0.4-0.2,0.6L129.6,162.4z"/>
</g>
<g id="l-hand">
	<path class="st1" d="M34.1,163.4c2.4,3.9,1.5,8.9-2,11.1s-8.4,0.8-10.9-3.1s-3.5-12.1,0-14.3S31.7,159.5,34.1,163.4z"/>
	<path class="st0" d="M27.1,173.2c6.2,2.6,11.6-2.4,12.6-7.9s-2.7-11.3-7-15.7s-8.8-7.4-14.1-7.3c-3.6,0-7.4,1.5-8.1,5.2
		C10.5,147.5,6.5,164.4,27.1,173.2z"/>
	<path class="st0" d="M37.3,170.5c3.2-3.6,5.2-8.1,5.8-12.9c0.4-4.9-1.3-10.4-5.1-13.7c-0.9-0.8-2.2-1.4-3.1-0.9s-0.7,2.3-0.5,3.6
		c0.8,4.3-0.7,8.6-3.9,11.5L37.3,170.5z"/>
</g>
<g id="body">
	<path class="st2" d="M72.1,317.4c-3.7,9.2-11.2,15-16.8,13s-7.2-11.1-3.5-20.3s14.2-22.5,19.8-20.5S75.7,308.2,72.1,317.4z"/>
	<path class="st2" d="M295.4,317.3c4.8,10.5,3.6,21.1-2.8,23.7s-15.5-3.7-20.3-14.1s-7.5-29.6-1.2-32.3S290.6,306.8,295.4,317.3z"/>
	<path class="st2" d="M109.2,154.5c-4.4,6.2-4.6,14.8-1.8,21.9c2.2,5.5,6.7,10.6,12.6,11.4c5.2,0.7,10.5-2.3,13.4-6.6
		C144.6,164.5,125.5,131.9,109.2,154.5z"/>
	<path class="st3" d="M148.2,159.9c-7.5,0.5-15.6,1.3-21.4,5.5c-6.4,4.7-8.3,12.4-9.5,19.6c-4.1,25.5-3.6,52.8-19.1,74.7
		c-11.6,16.4-31.2,28.1-40.9,45.4c-6,10.7-7.7,23.4-3.5,34.7s14.7,20.9,27.8,24.1c13.3,3.3,28,0,41.3,3.4
		c11.3,2.8,20.6,10,31.9,12.6c21.9,5,43.9-8.5,66.6-9.1c15-0.4,31.1,4.8,44.5-1.1l0,0c6.1-1.9,11.5-5.8,15.2-11.1
		c6.6-9.8,8.5-22.2,6.3-33.5c-2.8-15.1-11.6-28.7-20.9-41.6s-19.4-25.6-25.3-39.9c-5.8-14.1-7.1-28.9-7-43.8
		c0-8.3,1.1-18.3-4.4-25.5C215.2,154.8,170.8,158.5,148.2,159.9z"/>
	<path class="st4" d="M203.4,138.1c-11.2-3.4-23-4.4-34.7-5.2c-9.6-0.6-19.5-1.1-28.9,1.2s-18.4,7.8-22.8,16.4
		c-4.5,8.9-3.6,19.5-1.3,29.2c3.3,14.5,9,28.4,15.9,41.6c4,7.6,8.6,15.4,15.8,20.1c9.3,6.1,21.6,6.1,32,2.3s19.3-10.9,27.4-18.5
		c9.1-8.6,17.7-18,23.1-29.3c5.1-10.5,8.6-26.5,3.5-37.8C228.6,147.7,213.6,141.2,203.4,138.1z"/>
	<path class="st2" d="M217.3,165.6c-4.5,6.2-4.6,14.9-1.8,22c2.2,5.5,6.7,10.6,12.6,11.4c5.2,0.7,10.5-2.3,13.4-6.6
		C252.9,175.6,233.7,142.8,217.3,165.6z"/>
	<path class="st2" d="M146.4,209.5c0.3-9.1,6.1-16.4,13.1-16.2s12.4,7.8,12.1,16.9s-6.3,23.8-13.3,23.6S146.1,218.6,146.4,209.5z"/>
	<path class="st0" d="M137,365.9l-71.1,3.1c-6.7,0.4-12.5-4.8-12.9-11.5l0,0c-0.4-6.7,4.8-12.5,11.5-12.9l59.8-9.3L137,365.9z"/>
	<path class="st0" d="M53.3,361.4c-2.3-7.9,4.6-15.6,14.1-15.6l0,0c9.5,0,16.4,7.7,14.1,15.6c-3.8,13.1-7,33.9-1.8,60.2H55.1
		C60.3,395.3,57.1,374.5,53.3,361.4z"/>
	<path class="st5" d="M50.4,436c-4.6,5.1-14.3,9.8-20.6,10.2s-12.9,0.1-18.9,2.6s-11.4,9-10.9,16.3c0.6,8.1,8.1,13.3,15.1,13.7
		c13,0.8,25.1-9.9,38.2-9.3c8.2,0.4,16.3,5.2,24.3,3c6.9-1.9,12.4-9.4,12.8-17.6s-4.2-16.3-10.9-18.9L50.4,436z"/>
	<path class="st3" d="M81,432c3.5-1.8,5.3-5.5,4.2-8.6c-1.4-3.9-5.7-6-9.8-5.2c-6.6,1.2-13.4,1.3-20,0.1c-4.1-0.7-8.4,1.4-9.7,5.3
		c-1.1,3.1,0.7,6.7,4.2,8.5c-4.8,4.9-13.9,9.2-20,9.6c-6.3,0.4-12.9,0.1-18.9,2.6s-11.5,9-11,16.3c0.6,8.1,8.1,13.3,15.1,13.7
		c13,0.8,25.1-9.9,38.2-9.3c8.2,0.4,16.3,5.2,24.3,3c6.9-1.9,12.4-9.5,12.8-17.6C90.9,442.7,86.9,435.2,81,432z"/>
	<circle class="st6" cx="81.1" cy="461.5" r="14.8"/>
	<circle class="st2" cx="83.4" cy="463.7" r="14.8"/>
	<path class="st3" d="M81.1,341.3c0,0,9.9,2.1,22.2,18.3c8.5,11.2,21.1,18.6,35,20.6c12.8,1.8,29.7,1.5,49.7-5.2v-67.9l-86-6.1
		L81.1,341.3z"/>
	<path class="st2" d="M157.2,331.3c-0.8,10.2-6.6,18.1-12.8,17.7s-10.6-9.1-9.8-19.3s7.2-26.5,13.5-26S158,321.1,157.2,331.3z"/>
	<path class="st2" d="M91.4,319.6c-3.3,8.2-10,13.5-15.1,11.7s-6.4-9.9-3.2-18.2s12.7-20.2,17.8-18.4S94.7,311.4,91.4,319.6z"/>
	<path class="st0" d="M215.5,382.1l-71.1,3.1c-6.7,0.4-12.5-4.8-12.9-11.5c0,0,0,0,0,0l0,0c-0.4-6.7,4.8-12.5,11.5-12.9c0,0,0,0,0,0
		l58.2-12.9L215.5,382.1z"/>
	<path class="st0" d="M131.8,377.6c-2.3-7.9,4.6-15.6,14.1-15.6l0,0c9.5,0,16.4,7.7,14.1,15.6c-3.8,13.1-7,33.9-1.8,60.2h-24.5
		C138.8,411.5,135.6,390.7,131.8,377.6z"/>
	<path class="st5" d="M128.9,452.2c-4.6,5.1-14.3,9.8-20.6,10.2s-12.9,0.1-18.8,2.6S78,474,78.5,481.3c0.6,8.1,8.1,13.3,15.1,13.7
		c13,0.8,25.1-9.9,38.2-9.3c8.2,0.3,16.3,5.2,24.3,2.9c6.9-1.9,12.4-9.5,12.8-17.6s-4.2-16.3-10.9-18.9L128.9,452.2z"/>
	<path class="st3" d="M159.5,448.2c3.5-1.8,5.3-5.5,4.2-8.6c-1.4-3.9-5.7-6-9.8-5.2c-6.6,1.2-13.4,1.3-20,0.1
		c-4.1-0.7-8.4,1.4-9.8,5.3c-1.1,3.1,0.7,6.7,4.2,8.5c-4.8,4.9-13.9,9.2-20,9.6c-6.3,0.4-12.9,0.1-18.8,2.6s-11.4,8.9-10.9,16.2
		c0.6,8.1,8.1,13.3,15.1,13.7c13,0.8,25.1-9.9,38.2-9.3c8.2,0.4,16.3,5.2,24.3,2.9c6.9-1.9,12.4-9.5,12.8-17.6
		C169.4,458.9,165.4,451.4,159.5,448.2z"/>
	<circle class="st6" cx="159.6" cy="477.7" r="14.8"/>
	<circle class="st2" cx="161.9" cy="479.9" r="14.8"/>
	<path class="st3" d="M174.2,353.1c7.7-0.4,14.3,5.5,19.1,11.6s10.3,15.7,17.3,19c5.6,2.6,23.4,3.4,29.6,2.6
		c17.2-2,28.9-13.1,38.3-24.3l-2.2-31.2l-99.3-7.6L174.2,353.1z"/>
	<path class="st2" d="M248.9,332.2c3.1,11,0.2,21.4-6.5,23.1s-14.7-5.9-17.8-16.9s-2.7-30.4,4-32.1S245.8,321.1,248.9,332.2z"/>
	<path class="st2" d="M208.3,139.4c-1.5-1.9-3.2-3.6-5.1-5c-3.3-2.5-7-4.4-10.9-5.8c-5.5-2-11.2-3.2-17.1-3.6
		c-2.9-0.2-5.7-0.2-8.6,0c-6.8,0.3-13.5,2-19.6,4.9c-4.5,2.2-8,5.2-10.1,8.6c-1.2,1.9-1.9,4-2.1,6.2c-1.1,12.3,15.3,23.5,36.6,24.9
		s39.3-7.3,40.4-19.6C211.9,146.1,210.7,142.4,208.3,139.4z M197.2,143.2c-0.2,1.4-0.9,2.7-1.9,3.7c-1.5,1.4-3.2,2.4-5.1,3
		c-7.4,2.6-15.5,2.6-23.1,1.1c-4.4-0.9-8.9-2.3-12.5-5c-2-1.5-3.7-3.7-3.5-6.1c0.3-1.5,1.1-2.9,2.3-3.9c4.9-4.4,13.4-5,19.8-4.9
		c7.4,0.1,15.3,1.7,21.1,6.5C195.9,139,197.4,140.9,197.2,143.2L197.2,143.2z"/>
	<g>
		<defs>
			<path id="SVGID_1_" d="M197.1,143.2c-0.2,1.4-0.9,2.7-1.9,3.7c-1.5,1.4-3.2,2.4-5.1,3c-7.4,2.6-15.5,2.6-23.1,1.1
				c-4.4-0.9-8.9-2.3-12.5-5c-2-1.5-3.7-3.7-3.5-6.1c0.3-1.5,1.1-2.9,2.3-3.9c4.9-4.4,13.4-5,19.8-4.9c7.4,0.1,15.3,1.7,21.1,6.5
				C195.9,139,197.4,140.9,197.1,143.2z"/>
		</defs>
		<clipPath id="SVGID_2_">
			<use xlink:href="#SVGID_1_"  style="overflow:visible;"/>
		</clipPath>
		<g class="st7">
			<path class="st8" d="M198.7,142.6c-0.5,6.1-13.3,10.3-25.6,9.3s-24.1-6.6-23.7-12.7s13.1-10.2,25.4-9.3
				C188.8,130.9,199.2,136.5,198.7,142.6z"/>
			<path class="st0" d="M198.8,143.1c0,0.2,0,0.4,0,0.6c-0.5,6.1-12,10.3-25.6,9.3s-24.2-6.6-23.7-12.7c0-0.3,0.1-0.6,0.1-0.8
				c0.3-1,0.8-1.9,1.5-2.6c6-0.1,11.9,0.1,17.8,0.6c9.9,0.7,19.8,1.6,29.4,3.7C198.6,141.8,198.8,142.4,198.8,143.1z"/>
		</g>
	</g>
	<path class="st0" d="M220.9,102.8c0,0-18.6,0.8-25.5,15c-1.7,3.5-3.5,7-5.1,10.7c-0.5,1.1-1,2.3-1.4,3.5c-0.3,0.9-0.6,1.7-0.9,2.6
		l0,0c-0.2,0.7-0.4,1.4-0.6,2s-0.4,1.7-0.6,2.5c-0.6,2.8-0.9,5.6-1,8.4l-25.6-2.2c1.6-2.7,3-5.5,4.1-8.5c0-0.1,0.1-0.2,0.1-0.3
		c0.6-1.7,1.2-3.4,1.6-5.1l0,0c0.1-0.5,0.2-1,0.4-1.5c0.3-1.6,0.6-3.3,0.6-5c0.2-3.2-0.4-6.4-1.8-9.2c-0.3-0.6-0.7-1.3-1.1-1.8
		c-0.4-0.5-0.7-1-1.2-1.5c-0.5-0.5-1-1-1.5-1.5c-2.7-2.3-6.5-4.2-11.8-5.3h-0.1l15.9-8.3l1.6-0.8l1.1-0.6l2.7-1.4l10.1-5.3l9.9,3.4
		l2.2,0.7l21.8,7.5l0.4,0.1l5.5,1.9L220.9,102.8z"/>
	<path class="st9" d="M176.8,101.6c0,0-11.5,4-15.2,9.3c-2.7-2.3-6.5-4.2-11.8-5.3h-0.1c-2.5,0.1-4.9,0.1-7.4-0.1l24.5-9.2l0.3,0.2
		L176.8,101.6z"/>
</g>
<g id="head">
	<path class="st1" d="M115.1,50.3c-5.4,4.2-11.1,8.3-17.7,9.7c-2.3,0.5-4.8,0.8-6.4,2.4c-2.8,3-0.6,7.9,2.4,10.7
		c8.2,7.6,20.4,8.8,31.5,8c6.4-0.5,12.8-1.5,18.6-4.2c12-5.6,19.9-22.6,10.3-34.1C143.2,29.9,124.5,43,115.1,50.3z"/>
	<path class="st0" d="M253.6,90.8c-6.5,9.9-19.2,12.2-33.7,12.3c-14.3,0.1-30.4-2-43.9-1.2c-3.7,0.2-7.4,0.7-11,1.6
		c-2,0.5-4,1-6.1,1.3c-3.3,0.5-6.7,0.9-10.1,1c-2.5,0.1-4.9,0.1-7.4-0.1l0,0c-22-1.4-36.2-13.2-40-27.5c-1.7-6.7-1.2-13.8,1.6-20.2
		c1.2-2.8,2.7-5.5,4.5-7.9c0.7-1,1.5-2,2.4-3c0.3-0.4,0.7-0.7,1-1.1c0.5-0.6,1.1-1.2,1.7-1.7l0.1-0.1c0.7-0.7,1.5-1.4,2.3-2.1
		l0.3-0.3c6-5.1,13.9-9.6,23.8-13.1c1-0.4,2.1-0.7,3.1-1c26.1-8.3,65.5-10.8,91,2.7c8.6,4.5,15.6,10.9,20,19.5
		c3,6,4.7,12.6,4.9,19.4C258.6,78.9,256.9,85.8,253.6,90.8z"/>
	<path class="st1" d="M144.9,42.9c-4.1,2.3-8.6-2.4-6.7-7c6-14.3,20.1-34.8,51.5-35.8s42.6,13.1,46.5,23.2c1.6,4-1.7,8.3-5.6,7.2
		C216.1,26.5,182.7,21.3,144.9,42.9z"/>
	<path class="st1" d="M229.1,62.7c-5.4,4.2-11.1,8.3-17.8,9.7c-2.3,0.5-4.8,0.8-6.4,2.4c-2.8,3-0.6,7.9,2.4,10.7
		c8.2,7.6,20.4,8.8,31.5,8c6.4-0.5,12.8-1.5,18.6-4.2c12-5.7,19.9-22.6,10.3-34.1C257.3,42.3,238.6,55.3,229.1,62.7z"/>
	<path class="st10" d="M172.8,53.5c9.9-2,18.6,0,19.6,4.6S186.1,68,176.2,70s-26.7,1.6-27.6-2.9S163,55.5,172.8,53.5z"/>
	<path class="st11" d="M168.4,56.7c4-0.6,7.5,0.4,7.8,2.3s-2.8,3.8-6.8,4.4s-10.8,0.1-11-1.8S164.4,57.3,168.4,56.7z"/>
	<path class="st10" d="M117.9,47.8c-2.4-3-6-4-8-2.4s-1.8,5.4,0.6,8.4s7.9,6.5,10,4.8S120.3,50.8,117.9,47.8z"/>
	<path class="st11" d="M118.3,49.9c-0.9-1.3-2.3-2-3-1.5s-0.6,2,0.3,3.3s3,3.1,3.8,2.6S119.2,51.2,118.3,49.9z"/>
	<path class="st12" d="M116.9,70.3c1.6,1.1,3.2,2.1,4.9,3c1.6,0.8,3.4,1.5,5.1,2c1.8,0.5,3.6,0.9,5.4,1.1c1.9,0.3,3.7,0.3,5.7,0.6
		c-1.8,0.8-3.8,1.3-5.8,1.4c-2,0.1-4.1-0.1-6-0.7c-2-0.6-3.8-1.5-5.4-2.8C119.1,73.7,117.8,72.1,116.9,70.3z"/>
</g>
<g id="r-arm">
	<path class="st0" d="M236.2,168.8c10.8,3,20.5,9,28,17.2c7.5,8,12.6,18,14.7,28.8c1.9,10.7,0.8,21.7-3.1,31.8
		c-3.8,10-10.4,18.7-18.9,25.1c-3.1,2.5-7.7,2-10.2-1.2s-2-7.7,1.2-10.2l0,0l0.1-0.1c5.9-5.1,10.3-11.8,12.7-19.2
		c2.4-7.3,2.7-15.1,0.9-22.5c-1.9-7.3-5.8-13.8-11.3-19c-5.3-5.1-11.9-8.7-19.1-10.2c-5.7-1.2-9.4-6.7-8.2-12.5s6.7-9.4,12.5-8.2
		l0.6,0.2L236.2,168.8z"/>
</g>
<g id="r-hand">
	<path class="st0" d="M240.7,267.7c-2,5.5,1.1,12,5,17.2s8.3,8.9,14,9.7c3.9,0.5,8.3-0.4,9.6-4.1c0.8-2.1,0.3-4.6-0.3-7
		c-2-7-7.3-17.4-13.4-21.9C249.8,257.2,242.7,262.2,240.7,267.7z"/>
	<path class="st0" d="M244.1,262.7c-3.8,3.2-7.1,7.4-8.4,12.4c-1.4,5.2-0.1,10.7,3.3,14.8c0.8,0.9,2.1,1.8,3.2,1.3s1.2-2.3,1.1-3.7
		c-0.1-4.6,2.2-8.8,6.1-11.2L244.1,262.7z"/>
	<path class="st1" d="M252.1,276.4c-1.8-3.6-0.4-8.1,3.3-9.9c0.1-0.1,0.3-0.1,0.4-0.2c4.1-1.5,8.6,0.5,10.3,4.4
		c1.8,4,1.7,11.8-2.2,13.4S253.9,280.4,252.1,276.4z"/>
</g>
</svg>
