<?xml version="1.0" encoding="utf-8"?>
<!-- Generator: Adobe Illustrator 25.2.0, SVG Export Plug-In . SVG Version: 6.00 Build 0)  -->
<svg version="1.1" id="Layer_1" xmlns="http://www.w3.org/2000/svg" xmlns:xlink="http://www.w3.org/1999/xlink" x="0px" y="0px"
	 viewBox="0 0 254.2 501.7" style="enable-background:new 0 0 254.2 501.7;" xml:space="preserve">
<style type="text/css">
	.st0{fill:#E941CB;}
	.st1{fill:#4E16FF;}
	.st2{fill:#081F8B;}
	.st3{fill:#CF3AB5;}
	.st4{fill:#2502BA;}
	.st5{fill:#3002EC;}
	.st6{fill:#639BAA;}
	.st7{fill:#88D7EC;}
	.st8{fill:#1B1464;}
	.st9{fill:#FFFFFF;}
	.st10{clip-path:url(#SVGID_2_);}
	.st11{fill:#C025A4;}
	.st12{fill:#309FEC;}
</style>
<g id="b-arm">
	<path class="st0" d="M118.7,181.9c-4.3-2.6-8.3-5-12.3-7.6s-8.1-5.1-12.1-7.7c-8-5.2-15.9-10.5-23.8-15.9
		c-7.8-5.4-15.7-10.9-23.3-16.4s-15.4-11.2-23-16.9c-3.2-2.4-3.9-6.9-1.5-10.1c2.3-3.1,6.6-3.8,9.8-1.7h0.1
		c7.8,5.2,15.7,10.3,23.6,15.4s15.9,10,24,14.9s16.1,9.6,24.3,14.3c4.1,2.3,8.2,4.6,12.2,6.9c4.1,2.2,8.2,4.5,12.2,6.6h0.1
		c5.1,2.8,7,9.2,4.2,14.4c-2.7,4.9-8.8,6.9-13.9,4.4L118.7,181.9z"/>
</g>
<g id="b-hand">
	<path class="st0" d="M31.9,116.8c-5.1,1.5-12.4-1.3-18.4-4.7S2.8,104.8,0.8,99.9c-1.3-3.3-1.3-7,2.2-8c2-0.6,4.6-0.2,7.1,0.5
		c7.5,1.9,19.2,6.7,25,12C40.6,109.4,37,115.3,31.9,116.8z"/>
	<path class="st0" d="M36.3,114.1c-2.6,3.5-6.5,5.9-10.8,6.7c-5.4,0.9-11-0.2-15.7-3.2c-1.1-0.7-2.3-1.8-2-2.8s2-0.9,3.5-0.9
		c4.6,0.2,8.6-1.7,10.1-4.8L36.3,114.1z"/>
	<path class="st1" d="M20.8,106.9c4.4,1.7,8.7,0.4,9.5-2.8s-2.2-7.2-6.6-8.8s-12.3-1.8-13.1,1.5S16.3,105.2,20.8,106.9z"/>
</g>
<g id="b-leg">
	<path class="st2" d="M105.3,453.7c-4.6,5.1-14.3,9.8-20.6,10.2s-12.9,0.1-18.8,2.6s-11.4,8.9-10.9,16.2c0.6,8.1,8.1,13.3,15.1,13.7
		c13,0.8,25.1-9.9,38.2-9.3c8.2,0.4,16.3,5.2,24.3,2.9c6.9-1.9,12.4-9.5,12.8-17.6s-4.2-16.3-10.9-18.9L105.3,453.7z"/>
	<path class="st3" d="M139,380.1l-19,0.1l-19,0.1c0,0,16.2,25.6,7.8,66.5l11.5-0.1l11.5-0.1C123,405.9,139,380.1,139,380.1z"/>
	<path class="st4" d="M135.9,449.7c3.5-1.8,5.3-5.5,4.2-8.6c-1.4-3.9-5.7-6-9.8-5.2c-6.6,1.2-13.4,1.2-20,0.1
		c-4.1-0.7-8.4,1.4-9.7,5.3c-1.1,3.1,0.7,6.7,4.2,8.5c-4.8,4.9-13.9,9.2-20,9.6c-6.3,0.4-12.9,0.1-18.8,2.6s-11.4,9-10.9,16.2
		c0.6,8.1,8.1,13.3,15.1,13.7c13,0.8,25.1-9.9,38.2-9.3c8.2,0.4,16.3,5.2,24.3,2.9c6.9-1.9,12.4-9.5,12.8-17.6
		C145.8,460.4,141.9,452.9,135.9,449.7z"/>
</g>
<g id="f-leg">
	<path class="st2" d="M120.8,458.9c-4.6,5.1-14.3,9.8-20.6,10.2s-12.9,0.1-18.8,2.6s-11.4,9-10.9,16.2c0.6,8.1,8.1,13.3,15.1,13.7
		c13,0.8,25.1-9.9,38.2-9.3c8.2,0.4,16.3,5.2,24.3,3c6.9-1.9,12.4-9.5,12.8-17.6s-4.2-16.3-10.9-18.9L120.8,458.9z"/>
	<path class="st0" d="M154.4,385.2l-19,0.1l-19,0.1c0,0,16.2,25.6,7.8,66.5l11.5,0l11.5-0.1C138.4,411,154.4,385.2,154.4,385.2z"/>
	<path class="st5" d="M151.4,454.9c3.5-1.8,5.3-5.5,4.2-8.6c-1.4-3.9-5.7-6-9.8-5.2c-6.6,1.2-13.4,1.3-20,0.1
		c-4.1-0.7-8.4,1.4-9.8,5.3c-1.1,3.1,0.7,6.7,4.2,8.5c-4.8,4.9-13.9,9.2-20,9.6c-6.3,0.4-12.9,0.1-18.8,2.6s-11.4,8.9-10.9,16.2
		c0.6,8.1,8.1,13.3,15.1,13.7c13,0.8,25.1-9.9,38.2-9.3c8.2,0.3,16.3,5.2,24.3,2.9c6.9-1.9,12.4-9.5,12.8-17.6
		C161.2,465.6,157.2,458,151.4,454.9z"/>
	<circle class="st6" cx="151.5" cy="484.3" r="14.8"/>
	<circle class="st7" cx="153.7" cy="486.6" r="14.8"/>
</g>
<g id="head">
	<path class="st0" d="M207.3,90.6c-14.7,20.1-58.7,8.5-81.3,10.8c-6.5,0.2-11.8,1.8-17.8,2.8c-6.1,0.9-12.2,1.3-18.3,0.9l0,0
		c-41-2-57.7-38.5-27.3-62.2C96.7,15.7,209.2,7.7,212.1,69.7C212.5,79,210.8,85.7,207.3,90.6z"/>
	<path class="st1" d="M92.3,36.4c-4.2,1.8-8-3.3-5.6-7.5c7.5-13.1,23.5-31.2,54-28.6s39.6,17.7,42.2,27.9c1,4.1-2.6,7.8-6.3,6.3
		C163,28.9,131.4,19.9,92.3,36.4z"/>
	<path class="st1" d="M134.4,61.7c-6.1,4.1-12.6,8.1-20.1,9.5c-2.6,0.5-5.4,0.8-7.2,2.4c-3.1,2.9-0.7,7.7,2.7,10.4
		c9.2,7.3,23,8.4,35.5,7.5c7.2-0.5,14.5-1.5,21-4.2c13.6-5.6,22.6-22.1,11.9-33.2C166.2,41.6,145,54.5,134.4,61.7z"/>
	<path class="st8" d="M79.7,54.1c7.2-2.4,13.8-1.3,14.8,2.3s-4,8.5-11.2,10.8s-19.7,3.3-20.7-0.4S72.6,56.5,79.7,54.1z"/>
	<path class="st9" d="M76.7,57c2.9-0.8,5.6-0.2,5.9,1.3s-1.8,3.3-4.7,4.1s-8,0.8-8.3-0.7S73.8,57.8,76.7,57z"/>
	<g>
		<defs>
			<path id="SVGID_1_" d="M207.3,90.6c-14.7,20.1-58.7,8.5-81.3,10.8c-6.5,0.2-11.8,1.8-17.8,2.8c-6.1,0.9-12.2,1.3-18.3,0.9l0,0
				c-41-2-57.7-38.5-27.3-62.2C96.7,15.7,209.2,7.7,212.1,69.7C212.5,79,210.8,85.7,207.3,90.6z"/>
		</defs>
		<clipPath id="SVGID_2_">
			<use xlink:href="#SVGID_1_"  style="overflow:visible;"/>
		</clipPath>
		<g class="st10">
			<path class="st11" d="M60.3,76.8C59,78,57.5,79,55.8,79.7c-1.7,0.7-3.5,1.1-5.3,1.2c-1.8,0.1-3.6,0-5.4-0.5
				c-1.7-0.4-3.4-1.2-4.8-2.3c1.7,0.3,3.4,0.6,5.1,0.8c3.3,0.3,6.6,0.1,9.9-0.7C57,77.8,58.6,77.3,60.3,76.8z"/>
		</g>
	</g>
</g>
<g id="body">
	<path class="st7" d="M251.9,329.5c4.1,11.2,2.6,22.5-3.3,25s-14.1-4.4-18.2-15.6s-7.9-32.8-1.6-33
		C236.4,305.5,247.8,318.2,251.9,329.5z"/>
	<path class="st7" d="M16.5,329.5c-4.1,11.2-2.6,22.5,3.3,25s14.1-4.4,18.2-15.6s8-32.8,1.6-33C31.9,305.5,20.6,318.2,16.5,329.5z"
		/>
	<path class="st5" d="M239.8,319.7c-6.1-10.4-15.7-17.8-23.4-26.9c-12.3-14.4-19.7-33-23.8-51.9s-8.1-46.2-9.1-65.6v-2.2
		c0-18.6-12.5-29.4-31-29.4h-36.1c-18.5,0-33.5,10.8-33.5,29.4v2.2c-1,19.4-2.5,46.7-6.7,65.6s-11.5,37.4-23.8,51.9
		c-7.7,9.1-17.3,16.5-23.4,26.9c-7.3,12.9-8.5,28.4-3.2,42.2c5.3,13.5,17,24.1,30.6,27.6c10.8,2.7,22-6,33.1-5.7
		c6.9,0.2,14.3,4,21.5,9.6c13.8,10.8,33.2,10.8,47,0c7.2-5.6,14.6-9.4,21.6-9.6c11.1-0.3,22.3,8.5,33.1,5.7
		c13.5-3.4,25.2-14,30.6-27.6C248.3,348.1,247.2,332.6,239.8,319.7z"/>
	<path class="st12" d="M78.2,188.1c6-24.1,4-51.4,56.5-51.7c31.6-0.2,48.9,10.1,51.8,30.8c3.1,21.7-27.3-6-44.4,15.5
		c-16.6,20.8-44,64-65.6,58.2C69.1,238.9,78.2,188.1,78.2,188.1z"/>
	<path class="st7" d="M72.7,345.3c-3.9,11.3-11.9,18.5-17.9,16s-7.7-13.6-3.7-25s15.1-27.8,21.1-25.3S76.6,334,72.7,345.3z"/>
	<path class="st7" d="M195.7,345.3c3.9,11.3,11.9,18.5,17.9,16s7.6-13.6,3.7-25s-15.1-27.8-21.1-25.3S191.8,334,195.7,345.3z"/>
	<path class="st7" d="M130.4,167.1c-4.3,6.1-4.5,14.5-1.7,21.4c2.2,5.4,6.6,10.4,12.3,11.1c5.1,0.7,10.2-2.2,13.1-6.4
		C165,176.8,146.3,145,130.4,167.1z"/>
	<path class="st7" d="M65.9,203.4c0.8-8.8,6.2-15.6,12.2-15.2s10.2,7.8,9.4,16.6s-6.9,22.8-12.9,22.4S65.2,212.1,65.9,203.4z"/>
	<path class="st0" d="M104.1,95l-3.6,10.1c0,0,15.4,0.1,21.2,9c3.1,7.6,4.2,18.3-5.2,30.3h34.9c0,0-9.2-10.1-4.5-29.8
		c4-12.6,25.2-11.9,25.2-11.9V95H104.1z"/>
	<path class="st7" d="M156.5,147.3c-5.5,2.6-13.1,4.2-21.8,4.2c-20.4-0.1-35.2-9.3-29.4-18.4l0.2-0.3l0,0c3.7-4.7,11.5-2.5,13.8-2.1
		c15.5,2.3,15.4,2.1,28.8,0c7.6-1.2,12-2.1,15.7,2.4l0,0l0.2,0.3C167.3,138.6,163.9,143.8,156.5,147.3z"/>
	<path class="st7" d="M148.4,350.9c0,12.5-5.9,22.6-13.1,22.6s-13.1-10.1-13.1-22.6s5.9-32.9,13.1-32.9S148.4,338.4,148.4,350.9z"/>
</g>
<g id="f-arm">
	<path class="st0" d="M148.9,171c5.2,2.2,10,5.3,14.1,9.2c3.9,3.7,7.2,8.1,9.7,12.8c4.7,9,7.4,19,7.7,29.1c0.4,10-1.3,19.9-5,29.1
		c-1.9,4.7-4.5,9.1-7.5,13.1c-3.1,4.1-6.9,7.6-11.1,10.5c-3.3,2.2-7.8,1.3-10-2c-2.1-3.1-1.4-7.4,1.5-9.7l0.1-0.1
		c5.7-4.6,9.9-10.7,12.1-17.7c2.3-7.1,3.1-14.7,2.3-22.2c-0.7-7.3-3-14.3-6.8-20.6c-3.7-5.9-8.8-10.2-14.5-12.1
		c-5.5-1.8-8.6-7.8-6.7-13.4c1.8-5.5,7.8-8.6,13.4-6.7l0,0c0.2,0.1,0.5,0.2,0.7,0.3L148.9,171z"/>
</g>
<g id="f-hand">
	<path class="st0" d="M142.3,271.1c-2.3,5.7,0.4,12.8,4,18.4s7.8,9.8,13.5,10.9c3.8,0.8,8.3,0,9.8-3.9c0.9-2.2,0.6-4.9,0.1-7.4
		c-1.6-7.5-6.4-18.8-12.2-23.8C151.9,260.6,144.6,265.5,142.3,271.1z"/>
	<path class="st0" d="M145.9,266.1c-4.2,3.2-7.4,7.6-9,12.6c-1.5,5.2-0.9,11.4,2.5,15.8c0.8,1,2,2,3.1,1.6s1.3-2.3,1.4-3.8
		c0.1-4.7,2.6-9.1,6.7-11.5L145.9,266.1z"/>
	<path class="st1" d="M153.2,280.9c-1.6-4.3,0.3-9,4.2-10.5s8.4,0.9,10,5.2s1,12.5-2.9,14S154.8,285.2,153.2,280.9z"/>
</g>
</svg>
