<?xml version="1.0" encoding="utf-8"?>
<!-- Generator: Adobe Illustrator 25.2.0, SVG Export Plug-In . SVG Version: 6.00 Build 0)  -->
<svg version="1.1" id="Layer_1" xmlns="http://www.w3.org/2000/svg" xmlns:xlink="http://www.w3.org/1999/xlink" x="0px" y="0px"
	 viewBox="0 0 287.1 501.5" style="enable-background:new 0 0 287.1 501.5;" xml:space="preserve">
<style type="text/css">
	.st0{fill:#081F8B;}
	.st1{fill:#E941CB;}
	.st2{fill:#3002EC;}
	.st3{fill:#639BAA;}
	.st4{fill:#88D7EC;}
	.st5{fill:#4E16FF;}
	.st6{fill:#309FEC;}
	.st7{clip-path:url(#SVGID_2_);}
	.st8{fill:#20019B;}
	.st9{fill:#D41EC2;}
	.st10{fill:#1B1464;}
	.st11{fill:#FFFFFF;}
	.st12{fill:#C025A4;}
</style>
<g id="l-leg">
	<path class="st0" d="M98.7,440.2c-4.3,5.2-13.5,10.1-19.7,10.8s-12.5,0.6-18.3,3.2s-10.8,9.1-10,16.2c0.9,7.9,8.4,12.7,15.3,12.8
		c12.7,0.3,24.1-10.6,36.8-10.5c8,0,16.1,4.4,23.8,1.9c6.7-2.1,11.7-9.7,11.8-17.7s-4.8-15.7-11.4-18L98.7,440.2z"/>
	<path class="st1" d="M128.6,367.1l-18.5,0.8l-18.5,0.8c0,0,16.8,24.4,10.1,64.6l11.2-0.5l11.2-0.5
		C114,392.9,128.6,367.1,128.6,367.1z"/>
	<path class="st2" d="M128.4,435.2c3.3-1.9,4.9-5.5,3.6-8.5l0,0c-1.7-3.7-5.8-5.7-9.8-4.8c-6.5,1.4-13.1,1.7-19.7,0.7
		c-4-0.6-8.3,1.6-9.4,5.5c-0.9,3.1,1.1,6.7,4.7,8.3c-4.5,5-13.2,9.5-19.1,10.1c-6.2,0.6-12.5,0.6-18.3,3.2s-10.8,9.2-10,16.2
		c0.9,7.9,8.4,12.7,15.3,12.8c12.7,0.3,24.1-10.6,36.8-10.5c8,0,16.1,4.4,23.8,2c6.7-2.1,11.7-9.7,11.9-17.7
		C138.4,445.2,134.3,438,128.4,435.2z"/>
	<circle class="st3" cx="129.6" cy="463.8" r="14.4"/>
	<circle class="st4" cx="131.9" cy="465.9" r="14.4"/>
</g>
<g id="r-leg">
	<path class="st0" d="M184.4,456.1c-4.5,5.5-14.3,10.6-20.8,11.3s-13.2,0.6-19.3,3.4s-11.4,9.6-10.5,17.1
		c0.9,8.3,8.9,13.3,16.1,13.5c13.4,0.3,25.4-11.1,38.8-11.1c8.5,0,17,4.6,25.1,2c7-2.2,12.4-10.2,12.5-18.6s-5-16.5-12-19
		L184.4,456.1z"/>
	<path class="st1" d="M216,379.1l-19.5,0.9l-19.5,0.9c0,0,17.7,25.7,10.7,68l11.8-0.5l11.8-0.5C200.6,406.2,216,379.1,216,379.1z"/>
	<path class="st2" d="M215.7,450.8c3.6-2,5.2-5.8,4-9c-1.6-4-6.1-5.9-10.3-5c-6.8,1.5-13.7,1.8-20.6,0.9c-4.2-0.5-8.6,1.8-9.8,5.9
		c-1,3.2,1,6.9,4.6,8.6c-4.7,5.2-13.9,10-20.2,10.7c-6.5,0.7-13.2,0.6-19.3,3.4s-11.4,9.6-10.5,17.1c0.9,8.3,8.9,13.3,16.1,13.5
		c13.4,0.3,25.4-11.1,38.8-11.1c8.5,0,17,4.6,25.1,2c7-2.2,12.4-10.2,12.5-18.6C226.3,461.4,221.9,453.8,215.7,450.8z"/>
	<circle class="st3" cx="217" cy="481" r="15.2"/>
	<circle class="st4" cx="219.4" cy="483.3" r="15.2"/>
</g>
<g id="l-arm">
	<path class="st1" d="M119.4,160c-3.9,9.8-10.2,18.4-18.5,25c-8.2,6.7-18.2,10.8-28.8,11.9c-10.5,0.9-21-1.5-30.1-6.8
		c-8.9-5.1-16.1-12.6-20.9-21.6c-1.7-3.5-0.2-7.7,3.3-9.4c3.2-1.5,7-0.5,8.9,2.4v0.1c3.9,6.4,9.5,11.5,16.2,14.8
		c6.4,3.2,13.6,4.5,20.7,3.5c7-1.2,13.5-4.4,18.7-9.2c5.3-4.7,9.2-10.8,11.4-17.5c1.7-5.4,7.4-8.4,12.8-6.7
		c5.4,1.7,8.4,7.4,6.7,12.8c-0.1,0.2-0.1,0.4-0.2,0.6L119.4,160z"/>
</g>
<g id="l-hand">
	<path class="st5" d="M23.9,161.1c2.4,3.9,1.5,8.9-2,11.1s-8.4,0.9-10.9-3.1s-3.5-12.1,0-14.3S21.5,157.1,23.9,161.1z"/>
	<path class="st1" d="M16.9,170.9c6.2,2.6,11.6-2.4,12.5-7.9s-2.7-11.3-7-15.7s-8.8-7.4-14.1-7.3c-3.6,0-7.4,1.5-8.1,5.3
		C0.3,145.2-3.7,162,16.9,170.9z"/>
	<path class="st1" d="M27.1,168.2c3.2-3.6,5.2-8.1,5.8-12.9c0.4-4.9-1.3-10.4-5.1-13.7c-0.9-0.8-2.2-1.4-3.1-0.8s-0.7,2.3-0.5,3.6
		c0.8,4.3-0.7,8.6-3.9,11.5L27.1,168.2z"/>
</g>
<g id="body">
	<path class="st4" d="M58.8,328.8c-4.3,11.3-13,18.4-19.5,16S31,331.2,35.2,320s16.5-27.7,23-25.2S63.1,317.6,58.8,328.8z"/>
	<path class="st4" d="M284.2,321.9c4.8,11.1,3.6,22.3-2.8,25.1s-15.5-3.9-20.3-14.9s-7.6-31.3-1.2-34.1
		C266.3,295.2,279.4,310.9,284.2,321.9z"/>
	<path class="st4" d="M99,152.2c-4.4,6.2-4.6,14.8-1.8,21.9c2.2,5.5,6.7,10.6,12.6,11.4c5.2,0.7,10.4-2.3,13.4-6.6
		C134.4,162.1,115.3,129.5,99,152.2z"/>
	<path class="st2" d="M137.1,138.2c-7.5,0.5-15.6,1.4-21.4,6.3c-6.3,5.4-8.3,14.2-9.4,22.5c-4,29.2-3.4,60.6-18.8,85.8
		c-11.5,18.8-31,32.1-40.7,52c-6,12.3-7.7,26.9-3.4,39.8s14.8,24,27.9,27.8c13.3,3.8,28,0.2,41.3,4c11.3,3.3,20.6,11.6,32,14.6
		c22,5.8,43.9-9.6,66.6-10.2c15-0.4,31.1,5.7,44.5-1.1l0,0c6.3-2.4,11.7-6.9,15.2-12.7c6.6-11.2,8.4-25.5,6.2-38.5
		c-2.9-17.3-11.7-33-21.1-47.9s-19.5-29.4-25.5-46c-5.9-16.2-7.2-33.3-7.2-50.4c0-9.5,1-21-4.5-29.3
		C204.1,132.5,159.7,136.6,137.1,138.2z"/>
	<path class="st6" d="M193.2,135.8c-11.2-3.4-23-4.4-34.7-5.2c-9.6-0.6-19.5-1.1-28.9,1.2s-18.4,7.8-22.8,16.4
		c-4.5,8.9-3.6,19.5-1.3,29.2c3.3,14.5,9,28.4,15.9,41.6c4,7.6,8.6,15.4,15.8,20.1c9.3,6.1,21.6,6.1,32,2.3s19.3-10.9,27.4-18.5
		c9.1-8.6,17.7-18,23.1-29.3c5.1-10.5,8.6-26.5,3.5-37.8C218.4,145.3,203.4,138.9,193.2,135.8z"/>
	<path class="st4" d="M207.1,163.3c-4.5,6.2-4.6,14.9-1.8,22c2.2,5.5,6.7,10.6,12.6,11.4c5.2,0.7,10.5-2.3,13.4-6.6
		C242.7,173.2,223.5,140.5,207.1,163.3z"/>
	<path class="st4" d="M91.4,329.5c-4.3,11.3-13,18.4-19.5,16s-8.3-13.6-4.1-24.9s16.5-27.7,23-25.2S95.7,318.2,91.4,329.5z"/>
	<path class="st4" d="M164.1,343.5c-0.9,12-7.3,21.3-14.3,20.8S138,353.6,139,341.6s8.1-31.2,15-30.6S165,331.5,164.1,343.5z"/>
	<path class="st4" d="M136.2,207.2c0.3-9.1,6.1-16.4,13.1-16.2s12.4,7.8,12.1,16.9s-6.3,23.8-13.3,23.6S135.9,216.3,136.2,207.2z"/>
	<path class="st4" d="M243.8,333.3c3.1,11.6,0.2,22.5-6.5,24.4s-14.7-6.2-17.8-17.8s-2.7-32.1,4-33.9S240.6,321.6,243.8,333.3z"/>
	<path class="st4" d="M198.1,139.9c-1.5-1.9-3.2-3.6-5.1-5c-3.3-2.5-7-4.4-10.9-5.8c-5.5-2-11.2-3.2-17.1-3.6
		c-2.9-0.2-5.7-0.2-8.6,0c-6.8,0.3-13.5,2-19.6,4.9c-4.5,2.2-8,5.2-10.1,8.6c-1.2,1.9-1.9,4-2.1,6.2c-1,12.3,15.3,23.5,36.6,24.9
		s39.3-7.3,40.4-19.6C201.7,146.6,200.5,142.9,198.1,139.9z M187,143.7c-0.2,1.4-0.9,2.7-1.9,3.7c-1.5,1.4-3.2,2.4-5.1,3
		c-7.4,2.6-15.5,2.6-23.1,1.1c-4.4-0.9-8.9-2.3-12.5-5c-2-1.5-3.7-3.7-3.5-6.1c0.3-1.5,1.1-2.9,2.3-3.9c4.9-4.4,13.4-5,19.8-4.9
		c7.4,0.1,15.3,1.7,21.1,6.5C185.8,139.4,187.2,141.4,187,143.7z"/>
	<g>
		<defs>
			<path id="SVGID_1_" d="M187,143.7c-0.2,1.4-0.9,2.7-1.9,3.7c-1.5,1.4-3.2,2.4-5.1,3c-7.4,2.6-15.5,2.6-23.1,1.1
				c-4.4-0.9-8.9-2.3-12.5-5c-2-1.5-3.7-3.7-3.5-6.1c0.3-1.5,1.1-2.9,2.3-3.9c4.9-4.4,13.4-5,19.8-4.9c7.4,0.1,15.3,1.7,21.1,6.5
				C185.8,139.4,187.2,141.4,187,143.7z"/>
		</defs>
		<clipPath id="SVGID_2_">
			<use xlink:href="#SVGID_1_"  style="overflow:visible;"/>
		</clipPath>
		<g class="st7">
			<path class="st8" d="M188.5,143.1c-0.5,6.1-13.3,10.2-25.6,9.3s-24.2-6.7-23.7-12.7s13.1-10.2,25.4-9.3
				C178.6,131.4,189,137,188.5,143.1z"/>
			<path class="st1" d="M188.6,143.6c0,0.2,0,0.4,0,0.6c-0.5,6.1-12,10.2-25.6,9.3s-24.2-6.7-23.7-12.8c0-0.3,0.1-0.6,0.1-0.8
				c0.3-1,0.8-1.9,1.5-2.6c6-0.1,11.9,0.1,17.8,0.6c9.9,0.7,19.8,1.6,29.4,3.7C188.4,142.3,188.6,142.9,188.6,143.6z"/>
		</g>
	</g>
	<path class="st1" d="M210.7,103.3c0,0-18.6,0.8-25.5,15c-1.7,3.5-3.5,7-5.1,10.7c-0.5,1.1-1,2.3-1.4,3.5c-0.3,0.9-0.6,1.7-0.9,2.6
		l0,0c-0.2,0.7-0.4,1.4-0.6,2s-0.4,1.7-0.6,2.5c-0.6,2.8-0.9,5.6-1,8.4l-25.6-2.2c1.6-2.7,3-5.5,4.1-8.5l0.1-0.3
		c0.6-1.6,1.2-3.3,1.6-5l0,0c0.1-0.5,0.2-1,0.4-1.5c0.3-1.6,0.6-3.3,0.6-5c0.2-3.2-0.4-6.4-1.8-9.2c-0.3-0.6-0.7-1.3-1.1-1.8
		c-0.4-0.5-0.7-1-1.2-1.5c-0.5-0.5-1-1-1.5-1.5c-2.7-2.3-6.5-4.2-11.8-5.3h-0.1l0,0l15.9-8.3l1.6-0.8l1.1-0.6l2.7-1.4l10.1-5.3
		l9.9,3.4l2.2,0.7l21.8,7.5l0.4,0.1l5.5,1.9L210.7,103.3z"/>
	<path class="st9" d="M166.6,102.1c0,0-11.5,4-15.2,9.3c-2.7-2.3-6.5-4.2-11.8-5.3h-0.1c-2.5,0.1-4.9,0.1-7.4-0.1l24.5-9.2l0.3,0.2
		L166.6,102.1z"/>
</g>
<g id="head">
	<path class="st5" d="M104.9,50.3c-5.4,4.2-11.1,8.3-17.7,9.7c-2.3,0.5-4.8,0.8-6.4,2.4c-2.8,3-0.6,7.9,2.4,10.7
		c8.2,7.6,20.4,8.8,31.5,8c6.4-0.5,12.8-1.5,18.6-4.2c12-5.6,19.9-22.6,10.3-34.1C133,29.9,114.3,43,104.9,50.3z"/>
	<path class="st1" d="M243.4,90.8c-6.5,9.9-19.2,12.2-33.7,12.3c-14.3,0.1-30.4-2-43.9-1.2c-3.7,0.2-7.4,0.7-11,1.6
		c-2,0.5-4,1-6.1,1.3c-3.3,0.5-6.7,0.9-10.1,1c-2.5,0.1-4.9,0.1-7.4-0.1l0,0c-22-1.4-36.2-13.2-40-27.5c-1.7-6.7-1.2-13.8,1.6-20.2
		c1.2-2.8,2.7-5.5,4.5-7.9c0.7-1,1.5-2,2.4-3c0.3-0.4,0.7-0.7,1-1.1c0.5-0.6,1.1-1.2,1.7-1.7l0.1-0.1c0.7-0.7,1.5-1.4,2.3-2.1
		l0.3-0.3c6-5.1,13.8-9.6,23.8-13.1c1-0.4,2.1-0.7,3.1-1c26.1-8.3,65.5-10.8,91,2.7c8.6,4.5,15.6,10.9,20,19.5c3,6,4.7,12.6,5,19.4
		C248.4,78.9,246.7,85.8,243.4,90.8z"/>
	<path class="st5" d="M134.7,42.9c-4.1,2.3-8.6-2.4-6.7-7c6-14.3,20.1-34.8,51.5-35.8s42.6,13.1,46.5,23.2c1.6,4-1.7,8.3-5.6,7.2
		C206,26.5,172.5,21.3,134.7,42.9z"/>
	<path class="st5" d="M219,62.7c-5.4,4.2-11.1,8.3-17.8,9.7c-2.3,0.5-4.8,0.8-6.4,2.4c-2.8,3-0.6,7.9,2.4,10.7
		c8.2,7.6,20.4,8.8,31.5,8c6.4-0.5,12.8-1.5,18.6-4.2c12-5.7,19.9-22.6,10.3-34.1C247.1,42.3,228.4,55.3,219,62.7z"/>
	<path class="st10" d="M162.6,53.5c9.9-2,18.6,0,19.6,4.6S175.9,68,166,70s-26.7,1.6-27.6-2.9S152.8,55.5,162.6,53.5z"/>
	<path class="st11" d="M158.3,56.7c4-0.6,7.5,0.4,7.8,2.3s-2.8,3.8-6.8,4.4s-10.8,0.1-11-1.8S154.2,57.3,158.3,56.7z"/>
	<path class="st10" d="M107.7,47.8c-2.4-3-6-4-8-2.4s-1.8,5.4,0.6,8.4s7.9,6.5,10,4.8S110.1,50.8,107.7,47.8z"/>
	<path class="st11" d="M108.1,49.9c-0.9-1.3-2.3-2-3-1.5s-0.6,2,0.3,3.3s3,3.1,3.8,2.6S109,51.2,108.1,49.9z"/>
	<path class="st12" d="M106.7,70.3c1.6,1.1,3.2,2.1,4.9,3c1.6,0.8,3.4,1.5,5.1,2c1.8,0.5,3.6,0.9,5.4,1.1c1.8,0.3,3.7,0.3,5.7,0.6
		c-1.8,0.8-3.8,1.3-5.8,1.4c-2,0.1-4.1-0.1-6-0.7c-2-0.6-3.8-1.5-5.4-2.8C108.9,73.7,107.6,72.1,106.7,70.3z"/>
</g>
<g id="r-arm">
	<path class="st1" d="M226,166.4c10.8,3,20.5,9,28,17.2c7.5,8,12.6,18,14.7,28.8c1.9,10.7,0.8,21.7-3.1,31.7
		c-3.8,10-10.4,18.7-18.9,25.1c-3.1,2.5-7.7,2-10.2-1.2s-2-7.7,1.2-10.2l0,0l0.1-0.1c5.9-5.1,10.3-11.7,12.7-19.2
		c2.4-7.3,2.7-15.1,0.9-22.5c-1.9-7.3-5.8-13.8-11.3-19c-5.3-5.1-11.8-8.7-19-10.2c-5.7-1.2-9.4-6.7-8.2-12.5s6.7-9.4,12.5-8.2
		l0.6,0.2L226,166.4z"/>
</g>
<g id="r-hand">
	<path class="st1" d="M234.4,263.3c-2,5.8,1.1,12.7,5,18.1s8.3,9.4,14,10.2c3.9,0.5,8.3-0.4,9.6-4.4c0.8-2.2,0.4-4.9-0.3-7.4
		c-2-7.4-7.3-18.4-13.4-23.2C243.5,252.3,236.4,257.5,234.4,263.3z"/>
	<path class="st1" d="M237.8,258c-4,3.4-7,8-8.3,13.1c-1.3,5.2-0.3,11.4,3.3,15.6c0.8,1,2.1,1.9,3.2,1.4s1.2-2.4,1.1-3.9
		c-0.1-4.7,2.2-9.2,6.1-11.9L237.8,258z"/>
	<path class="st5" d="M245.8,272.5c-1.8-4.2-0.2-9,3.7-10.7s8.4,0.4,10.3,4.7s1.7,12.5-2.2,14.1S247.7,276.7,245.8,272.5z"/>
</g>
</svg>
