<?xml version="1.0" encoding="utf-8"?>
<!-- Generator: Adobe Illustrator 25.2.0, SVG Export Plug-In . SVG Version: 6.00 Build 0)  -->
<svg version="1.1" id="Layer_1" xmlns="http://www.w3.org/2000/svg" xmlns:xlink="http://www.w3.org/1999/xlink" x="0px" y="0px"
	 viewBox="0 0 333.8 460.1" style="enable-background:new 0 0 333.8 460.1;" xml:space="preserve">
<style type="text/css">
	.st0{fill:#E941CB;}
	.st1{fill:#4E16FF;}
	.st2{fill:#1B1464;}
	.st3{fill:#FFFFFF;}
	.st4{fill:#C025A4;}
	.st5{fill:#88D7EC;}
	.st6{fill:#3002EC;}
	.st7{fill:#309FEC;}
	.st8{fill:#20019B;}
	.st9{clip-path:url(#SVGID_2_);}
	.st10{fill:#CF3AB5;}
	.st11{fill:#081F8B;}
	.st12{fill:#7452FF;}
</style>
<g id="r-arm">
	<path class="st0" d="M231.6,155.6c4.3,5.6,10,10,16.6,12.7c6.5,2.8,13.7,3.6,20.7,2.4c7-1.4,13.4-5,18.4-10.2
		c5.2-5.3,8.7-12,10.3-19.3v-0.1c1-3.7,4.8-6,8.5-5.1c3.4,0.9,5.6,4,5.2,7.5c-1.5,10.1-5.8,19.6-12.5,27.4
		c-6.8,8-15.9,13.8-26.1,16.5c-10.3,2.5-21.1,2-31.1-1.6c-10-3.4-18.9-9.4-25.8-17.4l-0.1-0.1c-3.6-4.4-2.9-10.8,1.5-14.4
		c4.2-3.4,10.3-3,14,1C231.3,155.2,231.5,155.4,231.6,155.6z"/>
</g>
<g id="l-arm">
	<path class="st0" d="M108,175.1c-7.2,1.5-14.3,3.8-21,6.9c-6.8,3.1-13.2,7.1-19,11.7c-6,4.8-11.5,10.2-16.5,16
		c-5.1,5.9-9.9,12.3-14.6,18.9l0,0c-2.3,3.3-6.9,4.1-10.2,1.8c-3.2-2.2-4-6.6-2-9.8c4.4-7.1,9-14.1,14.1-21
		c5.2-7,11.1-13.5,17.5-19.4c6.6-6.1,13.9-11.3,21.7-15.6c7.9-4.3,16.3-7.7,25-10.1c5.6-1.7,11.6,1.5,13.2,7.2s-1.5,11.6-7.2,13.2
		c-0.1,0-0.2,0.1-0.3,0.1c-0.2,0.1-0.4,0.1-0.7,0.2L108,175.1z"/>
</g>
<g id="head">
	<path class="st0" d="M246.2,75.2c-1,4.8-3.4,9.1-7,12.5c-5.6,5.4-13.9,8.9-22.9,10.8c-9.2,2.1-19.2,5.3-29.5,7.5
		c-7.3,1.7-14.7,2.6-22.2,2.7c-5.3,0-10.6-0.5-15.8-1.4c-12.5-2.1-24.8-6.2-35.9-8.8c-9.2-1.9-17.7-5.6-23.3-11.2
		c-3.3-3.2-5.6-7.4-6.6-12c-0.6-3.1-0.7-6.4-0.2-9.5c0.4-2.8,1.1-5.6,2-8.3c7.8-22.9,31.6-32.8,56.1-36.5c7.8-1.1,15.7-1.7,23.6-1.8
		c8.7,0.1,17.5,0.8,26.1,2.2c24,4,46.9,14.4,54,37.3c0.7,2.3,1.2,4.6,1.6,7C246.8,68.9,246.8,72.1,246.2,75.2z"/>
	<path class="st1" d="M190.8,21.3V21c0-4.9-2-9.7-5.6-13.1L185,7.7c-10.7-10.2-27.5-10.2-38.1,0l-0.2,0.2c-3.6,3.4-5.6,8.2-5.6,13.1
		l0,0l10.5,17.4c4.7,8,14.9,10.7,22.9,6c2.5-1.4,4.5-3.5,6-6L190.8,21.3z"/>
	<path class="st2" d="M206.3,55.2c8.5-2.7,16.4-1.7,17.7,2.2s-4.6,9.3-13.2,12s-23.4,4-24.6,0S197.8,58,206.3,55.2z"/>
	<path class="st3" d="M202.7,58.5c3.5-0.9,6.6-0.3,7.1,1.3s-2.1,3.6-5.6,4.5s-9.5,1.1-9.9-0.5S199.2,59.4,202.7,58.5z"/>
	<path class="st2" d="M125.5,55.2c-8.5-2.7-16.4-1.7-17.7,2.2s4.6,9.3,13.2,12s23.4,4,24.6,0S134,58,125.5,55.2z"/>
	<path class="st3" d="M129.1,58.5c-3.5-0.9-6.6-0.3-7,1.3s2.1,3.6,5.6,4.5c3.5,0.9,9.5,1.1,9.9-0.5S132.6,59.4,129.1,58.5z"/>
	<path class="st4" d="M180.9,82.1c-2,1.5-4.2,2.7-6.6,3.4c-2.4,0.8-4.9,1.2-7.5,1.2c-2.5,0-5-0.4-7.4-1.2c-2.4-0.8-4.6-1.9-6.6-3.4
		c2.4,0.6,4.7,1.2,7.1,1.6c2.3,0.4,4.7,0.6,7,0.6c2.3,0,4.7-0.2,7-0.6C176.1,83.2,178.4,82.7,180.9,82.1z"/>
	<path class="st1" d="M253.8,82.5c-2.3,1.8-5,3.1-7.8,3.8c-0.6,0.2-1.3,0.4-1.9,0.5c-1.6,0.4-3.2,0.7-4.9,0.8
		c-4.5,0.4-9.1-0.3-12.8-3.5c-1.8-1.6-3.4-4.7-2.2-6.9c0.7-1.3,2.1-1.6,3.2-2.2c3.5-1.5,6.2-4.7,8.8-7.9c1.6-2.1,3.4-4.1,5.4-6
		c1-0.9,2-1.8,3.1-2.6c3.9-2.7,8.2-3.8,11.9,0.3C262.6,65.9,259.8,77.8,253.8,82.5z"/>
	<path class="st1" d="M105.4,84.2c-4.5,3.9-10.3,4.1-15.8,3c-0.7-0.1-1.3-0.3-1.9-0.4c-1.6-0.4-3.1-0.9-4.6-1.5
		c-1.8-0.7-3.6-1.6-5.1-2.8c-6-4.7-8.9-16.6-2.8-23.4c3-3.4,6.4-3.3,9.7-1.6c1.3,0.7,2.5,1.4,3.6,2.4c2.6,2.2,4.9,4.7,7,7.5
		c2.6,3.2,5.3,6.4,8.8,7.9c1.2,0.5,2.5,0.9,3.2,2.2C108.9,79.6,107.3,82.6,105.4,84.2z"/>
</g>
<g id="body">
	<ellipse class="st5" cx="222.5" cy="164.4" rx="13.1" ry="21.4"/>
	<path class="st5" d="M299.4,298.7c4.6,9.9,3,19.8-3.7,22.1s-15.9-3.8-20.6-13.8s-9-28.9-1.8-29.2
		C282,277.6,294.8,288.8,299.4,298.7z"/>
	<ellipse class="st5" cx="112.2" cy="164.4" rx="13.1" ry="21.4"/>
	<path class="st5" d="M33.5,298.7c-4.6,9.9-3,19.8,3.7,22.1S53.1,317,57.8,307s9-28.9,1.8-29.2C51,277.6,38.1,288.8,33.5,298.7z"/>
	<path class="st6" d="M285.8,290.1c-6.9-9.1-17.7-15.7-26.4-23.7c-13.9-12.8-22.3-29.1-26.9-45.8c-4.7-16.7-7.7-33.8-9-51.1H110
		c-1.3,17.3-4.3,34.4-9,51.1c-4.7,16.7-13,33-26.9,45.8c-8.7,8-19.6,14.6-26.4,23.7c-8.2,10.7-9.6,25.2-3.6,37.3
		c6,12,19.2,21.3,34.5,24.3c12.2,2.4,24.9-5.3,37.4-5.1c7.8,0.2,16.2,3.5,24.3,8.5c15.7,9.6,37.3,9.6,53,0c8.1-5,16.5-8.3,24.3-8.5
		c12.5-0.3,25.2,7.5,37.4,5.1c15.3-3,28.5-12.4,34.5-24.3C295.5,315.3,294,300.8,285.8,290.1z"/>
	<path class="st7" d="M224.9,159.2c0-19.3-17-30.4-37.9-30.4h-7.4c-9.3-1.8-18.9-1.8-28.3,0h-5.1c-20.9,0-37.9,11.1-37.9,30.4v6.7
		c0,0.1,0,0.3,0,0.4s0,0.4,0,0.6s0,0.3,0,0.5c0.6,13.8,8.1,30.4,18.5,46.7c1.9,3.5,4.2,6.7,6.9,9.6l0,0c32.9,35.1,58.9,7.2,63.9,1.1
		c11.6-12.1,23.1-33.8,26.3-51.5c0.6-2.4,0.9-4.9,0.9-7.4L224.9,159.2z"/>
	<path class="st5" d="M152,202.5c-0.4-9.8,5.7-18,13.7-18.4s14.8,7.3,15.2,17s-5.4,26-13.4,26.3S152.4,212.3,152,202.5z"/>
	<ellipse class="st5" cx="167.1" cy="140.9" rx="37.4" ry="20.3"/>
	<ellipse class="st8" cx="167.1" cy="134.3" rx="24.9" ry="8.6"/>
	<path class="st0" d="M203.8,96.5c-6.2,2.1-11.9,5.3-17,9.5c-0.4,0.3-0.8,0.7-1.2,1c-3.8,4-6,9.1-6.3,14.6c-0.1,1.7,0,3.5,0.2,5.2
		c0.1,0.6,0.2,1.3,0.3,1.9c0.8,3.4,2.1,6.7,4,9.7h-33.5c1.9-3.2,3.3-6.6,4-10.3c0.1-0.4,0.2-0.9,0.2-1.3c0.3-1.7,0.3-3.5,0.2-5.2
		c-0.1-1.1-0.2-2.3-0.4-3.4c-0.8-4.1-2.8-7.9-5.7-11l-0.2-0.2c-5.2-4.7-11.2-7.9-18.2-10.5H203.8z"/>
	<g>
		<defs>
			<ellipse id="SVGID_1_" cx="167.1" cy="134.3" rx="24.9" ry="8.6"/>
		</defs>
		<clipPath id="SVGID_2_">
			<use xlink:href="#SVGID_1_"  style="overflow:visible;"/>
		</clipPath>
		<g class="st9">
			<path class="st0" d="M142.2,137.2c0,0,25.8-10,49.8,0v11h-49.8V137.2z"/>
		</g>
	</g>
	<path class="st5" d="M179.5,319.9c0,10.7-5.9,19.3-13.1,19.3s-13.1-8.7-13.1-19.3s5.9-28.1,13.1-28.1S179.5,309.2,179.5,319.9z"/>
	<path class="st5" d="M97,312.7c-4.4,10-13.5,16.3-20.2,14.1s-8.7-12-4.2-22s17.1-24.5,23.9-22.3S101.4,302.7,97,312.7z"/>
	<path class="st5" d="M235.9,312.7c4.4,10,13.5,16.3,20.2,14.1c6.8-2.2,8.6-12,4.2-22s-17.1-24.5-23.9-22.3S231.5,302.7,235.9,312.7
		z"/>
</g>
<g id="l-hand">
	<path class="st0" d="M36,233.8c0,6.4-5.3,12.1-10.9,16.2s-11.2,6.5-17.1,5.4c-4-0.7-8-3.2-8-7.5c0-2.4,1.3-4.9,2.8-7.1
		c4.4-6.6,13.3-15.7,20.8-18.4C30.7,219.9,36,227.4,36,233.8z"/>
	<path class="st0" d="M34.5,227.5c2.8,4.7,4.2,10.1,3.9,15.6c-0.5,5.6-3.5,11.3-8.4,14.3c-1.2,0.7-2.7,1.2-3.6,0.3s-0.4-2.8,0.1-4.2
		c1.7-4.6,0.9-9.8-2.1-13.7L34.5,227.5z"/>
	<path class="st1" d="M21.8,239c3.2-3.6,3.1-8.8-0.1-11.7s-8.4-2.4-11.6,1.2s-5.8,11.7-2.5,14.6S18.6,242.6,21.8,239z"/>
</g>
<g id="r-hand">
	<path class="st1" d="M313.4,138c-3.6,2.1-4.5,5.9-1.9,8.3s7.6,2.8,11.3,0.6s7.5-7.6,4.9-10.1S317,135.9,313.4,138z"/>
	<path class="st0" d="M298.5,142.4c0.3-4.6,5.7-9,11.3-12.1s11.1-5,16.7-4.4c3.8,0.4,7.5,2.1,7.2,5.2c-0.1,1.8-1.5,3.6-3,5.3
		c-4.6,5-13.5,11.8-20.9,14C302.8,152.3,298.2,147,298.5,142.4z"/>
	<path class="st0" d="M299.7,146.9c-2.3-3.3-3.7-7.2-2.9-11.3c1.1-4.7,4.4-8.7,8.8-10.7c1.1-0.5,2.7-0.9,3.5-0.3s0.2,2-0.4,3
		c-1.9,3.2-1.4,7.3,1.3,9.9L299.7,146.9z"/>
</g>
<g id="r-leg">
	<path class="st10" d="M200.9,334h28.5l3.2,11.4c1.4,4.9-1.5,10-6.3,11.4c-0.8,0.2-1.7,0.4-2.5,0.4h-17.2c-5.1,0-9.2-4.1-9.2-9.2
		c0-0.9,0.1-1.7,0.4-2.5L200.9,334z"/>
	<path class="st0" d="M201,339.7c-2.3-7.9,4.6-15.6,14.1-15.6l0,0c9.5,0,16.4,7.7,14.1,15.6c-3.8,13.1-7,33.9-1.8,60.2h-24.5
		C208.1,373.6,204.8,352.8,201,339.7z"/>
	<path class="st5" d="M197.7,418.8h-3.2c-1.8,0-3.3,5.6-3.3,12.5s1.5,12.5,3.3,12.5h3.2c1.8,0,3.3-5.6,3.3-12.5
		S199.5,418.8,197.7,418.8z"/>
	<path class="st5" d="M235.8,418.8h-3.2c-1.9,0-3.3,5.6-3.3,12.5s1.5,12.5,3.3,12.5h3.2c1.8,0,3.3-5.6,3.3-12.5
		S237.7,418.8,235.8,418.8z"/>
	<path class="st11" d="M192.1,433.7c2.9-6.7,11-15.5,9.8-22.6l13.6-0.4l13.6,0.4c-1.2,7.2,6.9,15.9,9.8,22.6s4.1,13.1-0.1,19.1
		c-2.4,3.4-6.4,5.4-10.6,6.4c-4.2,0.8-8.4,1.1-12.7,0.9c-4.2,0.2-8.5-0.1-12.7-0.9c-4.1-1-8.1-3-10.6-6.4
		C188,446.8,189.3,440.4,192.1,433.7z"/>
	<path class="st6" d="M238.9,428.9c-2.6-6.1-9.4-13.8-9.9-20.5c4.4-1.4,6.8-5.5,5.5-9c-1.4-3.8-5.6-5.9-9.6-5.2
		c-6.5,1.2-13.1,1.2-19.6,0c-4-0.7-8.2,1.3-9.6,5.2c-1.3,3.6,1.4,7.9,6.1,9.1c-0.5,6.7-7.3,14.3-9.8,20.3
		c-2.9,6.7-4.1,13.1,0.1,19.1c2.4,3.4,6.4,5.4,10.6,6.4c4.2,0.8,8.4,1.1,12.7,0.9c4.2,0.2,8.5-0.1,12.7-0.9c4.1-1,8.1-3,10.6-6.4
		C243,442,241.7,435.6,238.9,428.9z"/>
	<path class="st12" d="M232.1,433.5c-2.6-1-5.3-1.8-8-2.4c-2.6-0.6-5.3-0.8-8-0.8c-2.7,0-5.4,0.3-8,0.9c-1.4,0.2-2.6,0.7-4,1
		s-2.6,0.9-4.1,1.3c1.1-1,2.2-1.9,3.4-2.8c1.2-0.8,2.5-1.5,3.9-2c5.6-2.3,11.9-2.3,17.5-0.1C227.6,429.6,230.1,431.3,232.1,433.5z"
		/>
</g>
<g id="l-leg">
	<path class="st10" d="M132.1,334h-28.5l-3.2,11.4c-1.4,4.9,1.5,10,6.3,11.4c0.8,0.2,1.7,0.4,2.5,0.4h17.2c5.1,0,9.2-4.1,9.2-9.2
		c0-0.9-0.1-1.7-0.4-2.5L132.1,334z"/>
	<path class="st0" d="M131.9,339.7c2.3-7.9-4.6-15.6-14.1-15.6l0,0c-9.5,0-16.4,7.7-14.1,15.6c3.8,13.1,7,33.9,1.8,60.2h24.5
		C124.9,373.6,128.1,352.8,131.9,339.7z"/>
	<path class="st5" d="M138.5,418.8h-3.2c-1.8,0-3.3,5.6-3.3,12.5s1.5,12.5,3.3,12.5h3.2c1.9,0,3.3-5.6,3.3-12.5
		S140.4,418.8,138.5,418.8z"/>
	<path class="st5" d="M100.3,418.8h-3.2c-1.8,0-3.3,5.6-3.3,12.5s1.5,12.5,3.3,12.5h3.2c1.8,0,3.3-5.6,3.3-12.5
		S102.2,418.8,100.3,418.8z"/>
	<path class="st11" d="M140.8,433.7c-2.9-6.7-11-15.5-9.8-22.6l-13.6-0.4l-13.6,0.4c1.2,7.2-6.9,15.9-9.8,22.6s-4.1,13.1,0.1,19.1
		c2.4,3.4,6.4,5.4,10.6,6.4c4.2,0.8,8.4,1.1,12.7,0.9c4.2,0.2,8.5-0.1,12.7-0.9c4.1-1,8.1-3,10.6-6.4
		C144.9,446.8,143.7,440.4,140.8,433.7z"/>
	<path class="st6" d="M131,408.6c4.7-1.2,7.4-5.5,6.1-9.1c-1.4-3.8-5.6-5.9-9.6-5.2c-6.5,1.2-13.1,1.2-19.6,0c-4-0.8-8,1.4-9.6,5.2
		c-1.2,3.5,1.2,7.5,5.5,9c-0.4,6.7-7.2,14.4-9.8,20.5c-2.9,6.7-4.1,13.1,0.1,19.1c2.4,3.4,6.4,5.4,10.6,6.4
		c4.2,0.8,8.4,1.1,12.7,0.9c4.2,0.2,8.5-0.1,12.7-0.9c4.1-1,8.1-3,10.6-6.4c4.3-6,3-12.4,0.1-19.1
		C138.2,422.9,131.5,415.2,131,408.6z"/>
	<path class="st12" d="M100.8,433.5c2-2.2,4.5-3.9,7.3-4.9c7.1-2.8,15.1-2,21.5,2.2c1.2,0.8,2.3,1.8,3.4,2.8
		c-1.4-0.4-2.7-0.9-4.1-1.3s-2.7-0.8-4-1c-2.6-0.6-5.3-0.9-8-0.9c-2.7,0-5.4,0.2-8,0.8C106.1,431.6,103.4,432.4,100.8,433.5z"/>
</g>
</svg>
