<?xml version="1.0" encoding="utf-8"?>
<!-- Generator: Adobe Illustrator 26.0.0, SVG Export Plug-In . SVG Version: 6.00 Build 0)  -->
<svg version="1.1" id="Layer_1" xmlns="http://www.w3.org/2000/svg" xmlns:xlink="http://www.w3.org/1999/xlink" x="0px" y="0px"
	 viewBox="0 0 700 700" style="enable-background:new 0 0 700 700;" xml:space="preserve">
<style type="text/css">
	.st0{fill:#E941CB;}
	.st1{fill:#081F8B;}
	.st2{fill:#3002EC;}
	.st3{fill:#639BAA;}
	.st4{fill:#88D7EC;}
	.st5{fill:#4E16FF;}
	.st6{fill:#1B1464;}
	.st7{fill:#FFFFFF;}
	.st8{fill:#C025A4;}
	.st9{fill:#309FEC;}
	.st10{fill:#20019B;}
	.st11{clip-path:url(#SVGID_00000070110857846317388240000015894885802897583800_);}
</style>
<g>
	<g transform="translate(-21 -1106)">
		<g>
			<g>
				<g>
					<g>
						<g>
							<g>
								<path class="st0" d="M318.9,1858.3H251c0,0,28.8,45.9,13.3,118.7h41.3C290.1,1904.2,318.9,1858.3,318.9,1858.3z"/>
								<path class="st1" d="M257.8,1997c-8.4,10.3-26.4,20-38.6,21.4c-12.1,1.4-24.5,1.2-35.8,6.3c-11.4,5.1-21.1,18-19.6,32.1
									c1.8,15.6,16.4,25.1,29.9,25.3c24.9,0.6,47.2-21,72.2-20.8c15.7,0,31.5,8.7,46.6,3.8c13.1-4.2,22.9-19.2,23.1-35
									c0.2-15.8-9.4-31.1-22.3-35.6L257.8,1997z"/>
								<path class="st2" d="M316.1,1987.1c6.5-3.8,9.6-10.9,7-16.8c-3.3-7.3-11.4-11.3-19.2-9.5c-12.7,2.8-25.6,3.4-38.6,1.4
									c-7.8-1.2-16.2,3.2-18.4,10.9c-1.8,6.1,2.2,13.3,9.2,16.4c-8.8,9.9-25.8,18.8-37.4,20c-12.1,1.2-24.5,1.2-35.8,6.3
									c-11.4,5.1-21.1,18.2-19.6,32.1c1.8,15.6,16.4,25.1,29.9,25.3c25,0.6,47.2-21,72.2-20.8c15.7,0,31.5,8.7,46.6,4
									c13.1-4.2,22.9-19.2,23.1-35C335.7,2006.9,327.5,1992.6,316.1,1987.1z"/>
								<path class="st3" d="M347.1,2043.3c0,15.8-12.7,28.7-28.4,28.7c-15.7,0-28.4-12.8-28.4-28.7s12.7-28.7,28.4-28.7
									C334.4,2014.6,347.1,2027.4,347.1,2043.3z"/>
								<path class="st4" d="M351,2047.2c0,15.8-12.7,28.7-28.4,28.7c-15.7,0-28.4-12.8-28.4-28.7s12.7-28.7,28.4-28.7
									C338.3,2018.6,351,2031.4,351,2047.2z"/>
								<path class="st0" d="M509.3,1858.3h-68.1c0,0,29,45.9,13.5,118.7H496C480.5,1904.2,509.3,1858.3,509.3,1858.3z"/>
								<path class="st1" d="M501.5,1997c8.4,10.3,26.4,20,38.6,21.4c12.1,1.4,24.5,1.2,35.8,6.3c11.4,5.1,21.1,18,19.6,32.1
									c-1.8,15.6-16.4,25.1-29.9,25.3c-24.9,0.6-47.2-21-72.2-20.8c-15.7,0-31.5,8.7-46.8,3.8c-13.1-4.2-22.9-19.2-23.1-35
									c-0.2-15.8,9.4-31.1,22.3-35.6L501.5,1997z"/>
								<path class="st2" d="M576,2016c-11.2-5.3-23.7-5.1-35.8-6.3c-11.5-1.2-28.8-10.3-37.4-20c7-3.2,11.2-10.1,9.2-16.4
									c-2.2-7.7-10.6-12.1-18.4-10.9c-12.9,1.8-25.8,1.4-38.6-1.4c-7.8-1.8-15.9,2.2-19.2,9.5c-2.3,5.9,0.6,13.1,7,16.8
									c-11.5,5.7-19.6,19.8-19.4,34.4c0.2,15.8,10.2,30.7,23.3,35c15.1,4.9,30.9-3.8,46.6-4c24.9,0,47.2,21.4,72.2,20.8
									c13.5-0.2,28.2-9.7,29.9-25.3C597.2,2034,587.4,2021.3,576,2016z"/>
								<path class="st3" d="M470.2,2043.3c0,15.8-12.7,28.7-28.4,28.7c-15.7,0-28.4-12.8-28.4-28.7s12.7-28.7,28.4-28.7
									C457.4,2014.6,470.2,2027.4,470.2,2043.3z"/>
								<path class="st4" d="M464.3,2047.2c0,15.8-12.7,28.7-28.4,28.7c-15.7,0-28.4-12.8-28.4-28.7s12.7-28.7,28.4-28.7
									C451.6,2018.6,464.3,2031.4,464.3,2047.2z"/>
								<path class="st0" d="M265.8,1461.2c-13.9,2.8-26.6,10.1-36.2,20.8c-10.2,11.5-17.2,25.3-20.5,40.4
									c-3.7,15.4-3.5,31.5,0.6,46.7c3.9,15,12.3,28.5,24.1,38.6l0.2,0.2c5.9,5.3,6.5,14.4,1.2,20.4c-4.9,5.5-12.9,6.5-18.8,2.2
									c-8.6-6.3-16.2-14-22.5-23c-6.3-8.9-11.2-18.4-14.5-28.7c-6.7-20.4-8.2-41.9-4.7-63.1c3.5-21.6,12.3-41.7,25.8-58.8
									c7-8.7,15.5-16.4,24.7-22.6c9.6-6.3,20-10.9,30.9-13.9h0.4c11.2-3,22.5,3.8,25.4,15s-3.7,22.8-14.9,25.7
									C266.6,1461,266.2,1461,265.8,1461.2z"/>
								<path class="st0" d="M507.3,1420.2c21.3,6.5,40.5,19.2,54.8,36.6c28.8,33.6,36.8,80.3,21.3,121.9
									c-7.2,20.2-19.8,38-36.2,51.4c-6.1,5.1-15.1,4.4-20.2-1.8c-5.1-6.1-4.3-15.2,1.8-20.4l0.2-0.2c11.5-10.7,20-24.3,24.3-39.6
									c4.5-15,5.1-30.9,1.8-46.1c-3.5-14.8-11-28.5-21.5-39.6c-10-10.7-22.7-18.2-36.8-21.8c-11.2-2.6-18.4-13.9-15.9-25.1
									c2.5-11.3,13.7-18.6,24.9-16c0.4,0,0.8,0.2,1.4,0.4L507.3,1420.2z"/>
								<path class="st0" d="M536.1,1263.5c-2,9.5-6.7,18-13.7,24.7c-11,10.7-27.2,17.6-44.8,21.4c-18,4.2-37.6,10.5-57.7,14.8
									c-14.3,3.4-28.8,5.1-43.4,5.3c-10.4,0-20.7-1-30.9-2.8c-24.5-4.4-48.5-12.3-70.3-17.4c-17.8-3.8-34.4-10.9-45.6-22.2
									c-6.5-6.5-11-14.6-12.9-23.7c-1.2-6.1-1.2-12.5-0.2-18.8c0.8-5.5,2.2-11.1,3.9-16.4c15.1-45.3,61.8-64.9,109.8-72.2
									c15.3-2.4,30.7-3.6,46.2-3.8c17,0.2,34.1,1.6,51.1,4.4c47,7.9,91.8,28.5,105.7,73.8c1.4,4.6,2.3,9.1,3.1,13.9
									C537.5,1250.8,537.3,1257.2,536.1,1263.5z"/>
								<path class="st5" d="M427.1,1156.9v-0.8c0-9.7-3.9-19.2-11-25.9l-0.4-0.4c-20.9-20-53.6-20-74.6,0l-0.4,0.4
									c-6.8,6.7-10.8,16.2-10.8,25.9l20.5,34.4c9.4,15.8,29.7,20.8,45.2,11.3c4.5-2.8,8.4-6.5,11.2-11.3L427.1,1156.9z"/>
								<path class="st6" d="M458,1223.9c16.6-5.3,32.1-3.4,34.6,4.4c2.5,7.7-9,18.4-25.6,23.7c-16.6,5.3-45.8,7.9-48.3,0
									C416.1,1244.1,441.4,1229.3,458,1223.9z"/>
								<path class="st7" d="M451.2,1230.3c6.8-1.8,12.9-0.6,13.9,2.6s-4.1,7.1-11,8.9c-6.8,1.8-18.6,2.2-19.4-1
									C433.9,1237.6,444.3,1232,451.2,1230.3z"/>
								<path class="st6" d="M300.1,1223.9c-16.6-5.3-32.1-3.4-34.6,4.4c-2.5,7.7,9,18.4,25.8,23.7c16.8,5.3,45.8,7.9,48.3,0
									C342.2,1244.1,316.7,1229.3,300.1,1223.9z"/>
								<path class="st7" d="M306.9,1230.3c-6.8-1.8-12.9-0.6-13.9,2.6s4.1,7.1,11,8.9c6.8,1.8,18.6,2.2,19.4-1
									C324.2,1237.6,313.8,1232,306.9,1230.3z"/>
								<path class="st8" d="M408.3,1277c-3.9,3-8.2,5.3-12.9,6.7c-4.7,1.6-9.6,2.4-14.5,2.4c-4.9,0-9.8-0.8-14.7-2.4
									c-4.7-1.6-9-3.8-12.9-6.7c4.7,1.2,9.2,2.4,13.9,3.2c4.5,0.8,9.2,1.2,13.7,1.2c4.5,0,9.2-0.4,13.7-1.2
									C399.1,1279.3,403.6,1278.1,408.3,1277z"/>
								<path class="st5" d="M551,1277.7c-4.5,3.6-9.8,6.1-15.3,7.5c-1.2,0.4-2.5,0.8-3.7,1c-3.1,0.8-6.5,1.4-9.6,1.6
									c-8.8,0.8-17.8-0.6-25-6.9c-3.5-3.2-6.7-9.3-4.3-13.7c1.4-2.6,4.1-3.2,6.3-4.4c6.8-3,12.1-9.3,17.2-15.6
									c3.3-4.2,6.7-8.1,10.6-11.9c2-1.8,3.9-3.6,6.1-5.1c7.6-5.3,16-7.5,23.3,0.6C568.4,1244.9,562.7,1268.4,551,1277.7z"/>
								<path class="st5" d="M260.8,1281.1c-8.8,7.7-20.2,8.1-30.9,5.9c-1.4-0.2-2.5-0.6-3.7-0.8c-3.1-0.8-6.1-1.8-9-3
									c-3.5-1.4-6.8-3.4-10-5.7c-11.7-9.5-17.4-32.8-5.5-46.5c5.9-6.7,12.7-6.3,19-3.2c2.5,1.4,4.9,2.8,6.8,4.7
									c5.1,4.4,9.8,9.3,13.7,14.8c5.1,6.3,10.4,12.7,17.2,15.6c2.3,1,4.9,1.8,6.3,4.4C267.4,1272,264.3,1278.1,260.8,1281.1z"/>
								<path class="st4" d="M515.2,1439.8c0,23.5-11.4,42.5-25.4,42.5c-14.1,0-25.4-19-25.4-42.5c0-23.5,11.4-42.5,25.4-42.5
									C503.8,1397.3,515.2,1416.3,515.2,1439.8z"/>
								<path class="st4" d="M300.1,1439.8c0,23.5-11.4,42.5-25.4,42.5c-14.1,0-25.4-19-25.4-42.5c0-23.5,11.4-42.5,25.4-42.5
									C288.7,1397.3,300.1,1416.3,300.1,1439.8z"/>
								<path class="st4" d="M640.4,1749.5c9.2,23,5.9,45.9-7.2,51.2s-31.1-9.1-40.3-32.1c-9.2-23-17.6-67.1-3.5-67.5
									C606.2,1700.4,631.2,1726.3,640.4,1749.5z"/>
								<path class="st4" d="M119.8,1749.5c-9,23-5.9,45.9,7.2,51.2c13.1,5.3,31.1-8.9,40.3-32.1c9.2-23.2,17.6-67.1,3.5-67.5
									C154.1,1700.4,129,1726.3,119.8,1749.5z"/>
								<path class="st2" d="M613.8,1730.1c-13.3-21.2-34.6-36.4-51.7-55c-27.2-29.5-43.6-67.5-52.6-106.1
									c-9.2-38.8-15.1-78.4-17.6-118.3H269.6c-2.5,39.8-8.4,79.5-17.6,118.3c-9.2,38.8-25.4,76.6-52.6,106.1
									c-17.2,18.6-38.4,33.8-51.9,55c-16.2,25.9-18.8,58.2-7,86.3c11.7,27.7,37.6,49.3,67.5,56.4c23.9,5.5,48.7-12.3,73.2-11.7
									c15.3,0.4,31.7,8.1,47.6,19.6c31.1,22.4,72.6,22.4,103.7,0c15.9-11.5,32.3-19.2,47.6-19.6c24.5-0.6,49.3,17.4,73.2,11.7
									c29.9-6.9,55.8-28.7,67.5-56.4C632.6,1788.2,629.8,1756,613.8,1730.1z"/>
								<path class="st9" d="M495.6,1429.9c0-38.2-33.3-60.2-74.4-60.2h-14.5c-18.4-3.6-37.2-3.6-55.6,0H341
									c-41.1,0-74.4,22-74.4,60.2v13.3c0,0.2,0,0.6,0,0.8s0,0.8,0,1.2s0,0.6,0,1c1.2,27.3,16,60.3,36.4,92.4
									c3.7,6.9,8.2,13.3,13.5,19c64.6,69.6,115.7,14.2,125.4,2.4c22.9-23.9,45.4-66.9,51.7-101.9c1.2-4.7,1.8-9.7,1.8-14.6v-13.5
									H495.6z"/>
								<path class="st4" d="M351.9,1515.2c-0.8-19.4,11.2-35.6,26.8-36.4c15.7-0.8,29,14.4,29.7,33.6c0.8,19.2-10.6,51.4-26.2,52
									C366.6,1565.1,352.7,1534.6,351.9,1515.2z"/>
								<path class="st4" d="M454.5,1392.3c0,22.4-32.9,40.6-73.4,40.6s-73.4-18.2-73.4-40.6c0-22.4,32.9-40.6,73.4-40.6
									S454.5,1369.9,454.5,1392.3z"/>
								<path class="st10" d="M431,1380.4c0,9.3-21.9,16.8-48.9,16.8s-48.9-7.5-48.9-16.8s21.9-16.8,48.9-16.8
									S431,1371.2,431,1380.4z"/>
								<path class="st0" d="M453.3,1306.2c-12.1,4.2-23.3,10.7-33.3,18.8c-0.8,0.6-1.6,1.4-2.3,2c-5.5,5.7-9.4,13.1-11.2,20.8
									c-0.6,2.8-1,5.3-1.2,8.1c-0.2,3.4,0,6.9,0.4,10.3c0.2,1.2,0.4,2.6,0.6,3.8c1.6,6.7,4.1,13.3,7.8,19.2h-65.6
									c3.7-6.3,6.5-13.3,8-20.4c0.2-1,0.4-1.8,0.4-2.6c0.6-3.4,0.6-6.9,0.4-10.3c-0.2-2.2-0.4-4.6-0.8-6.7
									c-1.6-8.1-5.5-15.6-11.2-21.8c-0.2-0.2-0.2-0.2-0.4-0.4c-10.2-9.3-21.9-15.6-35.6-20.8H453.3z"/>
								<g>
									<defs>
										<ellipse id="SVGID_1_" cx="382.1" cy="1380.5" rx="48.9" ry="16.8"/>
									</defs>
									<clipPath id="SVGID_00000098221428699927938230000013002528046893343653_">
										<use xlink:href="#SVGID_1_"  style="overflow:visible;"/>
									</clipPath>
									<g style="clip-path:url(#SVGID_00000098221428699927938230000013002528046893343653_);">
										<path class="st0" d="M333.4,1385.4c0,0,50.7-19.8,97.9,0v21.8h-97.9V1385.4z"/>
									</g>
								</g>
								<path class="st4" d="M405.8,1798.3c0,24.7-11.5,44.7-25.6,44.7c-14.1,0-25.6-20-25.6-44.7c0-24.7,11.5-65.1,25.6-65.1
									C394.2,1733.2,405.8,1773.6,405.8,1798.3z"/>
								<path class="st4" d="M244.1,1781.7c-8.6,23.2-26.4,37.8-39.5,32.8c-13.1-4.9-17-27.9-8.2-51c8.8-23.1,33.5-56.8,46.8-51.6
									C256.4,1717,252.9,1758.6,244.1,1781.7z"/>
								<path class="st4" d="M516.1,1781.7c8.6,23.2,26.4,37.8,39.5,32.8c13.1-4.9,16.8-27.9,8.2-51c-8.6-23.1-33.5-56.8-46.8-51.6
									C503.8,1717,507.5,1758.6,516.1,1781.7z"/>
								<path class="st0" d="M523.6,1618.3c-3.9,11.9,2.2,26.1,10,37.2c7.8,11.1,16.8,19.4,28.4,21c7.8,1.2,16.8-1,19.4-8.9
									c1.6-4.6,0.8-10.1-0.6-15c-4.1-15.2-14.9-37.8-27.2-47.5C542,1595.7,527.5,1606.4,523.6,1618.3z"/>
								<path class="st0" d="M530.4,1607.6c-8.2,6.9-14.1,16.4-17,26.7c-2.5,10.7-0.6,23.3,6.7,32.1c1.8,2,4.3,4,6.5,3
									s2.3-4.9,2.3-7.9c-0.2-9.7,4.5-19,12.3-24.3L530.4,1607.6z"/>
								<path class="st5" d="M546.7,1637.1c-3.7-8.7-0.4-18.6,7.4-22c7.8-3.4,17.2,0.8,20.9,9.5c3.7,8.7,3.3,25.5-4.5,29.1
									C562.7,1657.3,550.4,1645.8,546.7,1637.1z"/>
								<path class="st0" d="M239.4,1618.3c3.9,11.9-2.2,26.1-10.2,37.2c-8,11.1-16.8,19.4-28.4,21.2c-7.8,1.2-16.8-1-19.6-8.9
									c-1.6-4.6-0.6-10.1,0.6-15c4.1-15.2,14.9-37.8,27.2-47.5C221,1595.7,235.3,1606.4,239.4,1618.3z"/>
								<path class="st0" d="M232.6,1607.6c8.2,6.9,14.1,16.4,16.8,26.7c2.5,10.7,0.6,23.3-6.7,32.1c-1.8,2-4.3,4-6.5,3
									c-2.2-1-2.3-4.9-2.3-7.9c0.2-9.7-4.5-19-12.3-24.3L232.6,1607.6z"/>
								<path class="st5" d="M216.1,1637.1c3.7-8.7,0.4-18.6-7.4-22c-7.8-3.4-17.2,0.8-20.9,9.5c-3.7,8.7-3.3,25.5,4.5,29.1
									C200.1,1657.3,212.6,1645.8,216.1,1637.1z"/>
							</g>
						</g>
					</g>
				</g>
			</g>
		</g>
	</g>
</g>
</svg>
