<?xml version="1.0" encoding="utf-8"?>
<!-- Generator: Adobe Illustrator 25.2.0, SVG Export Plug-In . SVG Version: 6.00 Build 0)  -->
<svg version="1.1" id="Layer_1" xmlns="http://www.w3.org/2000/svg" xmlns:xlink="http://www.w3.org/1999/xlink" x="0px" y="0px"
	 viewBox="0 0 265.1 501.7" style="enable-background:new 0 0 265.1 501.7;" xml:space="preserve">
<style type="text/css">
	.st0{fill:#081F8B;}
	.st1{fill:#CF3AB5;}
	.st2{fill:#2502BA;}
	.st3{fill:#E941CB;}
	.st4{fill:#3002EC;}
	.st5{fill:#639BAA;}
	.st6{fill:#88D7EC;}
	.st7{fill:#4E16FF;}
	.st8{fill:#309FEC;}
	.st9{fill:#1B1464;}
	.st10{fill:#FFFFFF;}
	.st11{clip-path:url(#SVGID_2_);}
	.st12{fill:#C025A4;}
</style>
<g id="b-leg">
	<path class="st0" d="M116.2,453.7c-4.6,5.1-14.3,9.8-20.6,10.2s-12.9,0.1-18.8,2.6s-11.4,9-10.9,16.2c0.6,8.1,8.1,13.3,15.1,13.7
		c13,0.8,25.1-9.9,38.2-9.3c8.2,0.4,16.3,5.2,24.3,2.9c6.9-1.9,12.4-9.5,12.8-17.6s-4.2-16.3-10.9-18.9L116.2,453.7z"/>
	<path class="st1" d="M149.8,380.1l-19,0.1l-19,0.1c0,0,16.2,25.6,7.8,66.5l11.5-0.1l11.5-0.1C133.9,405.9,149.8,380.1,149.8,380.1z
		"/>
	<path class="st2" d="M146.8,449.7c3.5-1.8,5.3-5.5,4.2-8.6c-1.4-3.9-5.7-6-9.8-5.2c-6.6,1.2-13.4,1.2-20,0.1
		c-4.1-0.7-8.4,1.4-9.8,5.3c-1.1,3.1,0.7,6.7,4.2,8.5c-4.8,4.9-13.9,9.2-20,9.6c-6.3,0.4-12.9,0.1-18.9,2.6s-11.4,9-10.9,16.2
		c0.5,8.1,8.1,13.3,15.1,13.7c13,0.8,25.1-9.9,38.2-9.3c8.2,0.4,16.3,5.2,24.3,2.9c6.9-1.9,12.4-9.5,12.8-17.6
		C156.7,460.4,152.7,452.9,146.8,449.7z"/>
</g>
<g id="f-leg">
	<path class="st0" d="M131.6,458.9c-4.6,5.1-14.3,9.8-20.6,10.2s-12.9,0.1-18.8,2.6s-11.4,9-10.9,16.2c0.6,8.1,8.1,13.3,15.1,13.7
		c13,0.8,25.1-9.9,38.2-9.3c8.2,0.4,16.3,5.2,24.3,3c6.9-1.9,12.4-9.5,12.8-17.6s-4.2-16.3-10.9-18.9L131.6,458.9z"/>
	<path class="st3" d="M165.2,385.2l-19,0.1l-19,0.1c0,0,16.2,25.6,7.8,66.5l11.5,0l11.5-0.1C149.2,411,165.2,385.2,165.2,385.2z"/>
	<path class="st4" d="M162.2,454.9c3.5-1.8,5.3-5.5,4.2-8.6c-1.4-3.9-5.7-6-9.8-5.2c-6.6,1.2-13.4,1.3-20,0.1
		c-4.1-0.7-8.4,1.4-9.8,5.3c-1.1,3.1,0.7,6.7,4.2,8.5c-4.8,4.9-13.9,9.2-20,9.6c-6.3,0.4-12.9,0.1-18.8,2.6s-11.4,8.9-10.9,16.2
		c0.6,8.1,8.1,13.3,15.1,13.7c13,0.8,25.1-9.9,38.2-9.3c8.2,0.3,16.3,5.2,24.3,2.9c6.9-1.9,12.4-9.5,12.8-17.6
		C172.1,465.6,168.1,458,162.2,454.9z"/>
	<circle class="st5" cx="162.4" cy="484.3" r="14.8"/>
	<circle class="st6" cx="164.6" cy="486.6" r="14.8"/>
</g>
<g id="b-arm">
	<path class="st3" d="M148.9,144.9c-1.5,6.4-4.5,12.4-8.7,17.5c-4.1,4.8-9.1,8.8-14.7,11.6c-5.2,2.6-10.6,4.6-16.2,5.8
		c-5.3,1.2-10.7,2-16.1,2.4c-10.4,0.7-20.9,0.6-31.4-0.5c-10.2-1-20.4-2.6-30.4-4.9c-3.9-0.9-6.4-4.7-5.5-8.6
		c0.8-3.7,4.4-6.2,8.2-5.6H34c9.5,1.6,19.1,2.6,28.8,3c9.5,0.5,18.9,0.1,28.4-1.1c4.5-0.6,8.9-1.5,13.3-2.8c4.1-1.1,8-2.8,11.6-4.9
		c3.2-1.8,6-4.3,8.2-7.2c2-2.7,3.4-5.9,3.9-9.3c1-5.7,6.5-9.6,12.2-8.6s9.6,6.5,8.6,12.2c0,0.2-0.1,0.4-0.1,0.5L148.9,144.9z"/>
</g>
<g id="l-hand">
	<path class="st7" d="M21.6,169c4.4-1.5,9,0.6,10.3,4.5c1.3,4-1.1,8.4-5.5,9.9s-12.6,0.7-13.9-3.3S17.3,170.5,21.6,169z"/>
	<path class="st3" d="M30.6,162.6c-5.4-1.7-12.5,0.8-18.3,4.1s-10.2,6.9-11.8,11.8c-1.1,3.3-0.7,7,2.9,8.2c2,0.7,4.7,0.3,7.2-0.2
		c7.5-1.6,18.9-6,24.3-11.1C40.1,170.4,36,164.3,30.6,162.6z"/>
	<path class="st3" d="M35.3,165.5c-2.9-3.6-7-6.1-11.5-7.2c-5.3-1.2-11-0.2-15.6,2.6c-1.1,0.7-2.2,1.8-1.8,2.7s2.2,1,3.6,1
		c4.7,0,8.9,2.1,10.6,5.3L35.3,165.5z"/>
</g>
<g id="body">
	<path class="st3" d="M115,95l-3.6,10.1c0,0,15.4,0.1,21.2,9c3.1,7.6,4.2,18.3-5.2,30.3h34.9c0,0-9.2-10.1-4.5-29.8
		c4-12.6,25.2-11.9,25.2-11.9V95H115z"/>
	<path class="st6" d="M262.8,329.5c4.1,11.2,2.6,22.5-3.3,25s-14.1-4.4-18.2-15.6s-8-32.8-1.6-33
		C247.3,305.5,258.7,318.2,262.8,329.5z"/>
	<path class="st6" d="M27.4,329.5c-4.1,11.2-2.6,22.5,3.3,25s14.1-4.4,18.2-15.6s8-32.8,1.6-33C42.8,305.5,31.5,318.2,27.4,329.5z"
		/>
	<path class="st4" d="M250.7,319.7c-6.1-10.4-15.7-17.8-23.4-26.9c-12.3-14.4-19.7-33-23.8-51.8s-8.1-46.2-9.1-65.6v-2.2
		c0-18.6-12.5-29.4-31-29.4h-36.1c-18.5,0-33.5,10.8-33.5,29.4v2.2C92.6,194.7,91.2,222,87,241s-11.5,37.4-23.8,51.9
		c-7.7,9.1-17.3,16.5-23.4,26.9c-7.3,12.9-8.5,28.4-3.2,42.2c5.3,13.5,17,24.1,30.6,27.6c10.8,2.7,22-6,33.1-5.7
		c6.9,0.2,14.3,4,21.6,9.6c13.8,10.9,33.2,10.9,47,0c7.2-5.6,14.6-9.4,21.6-9.6c11.1-0.3,22.3,8.5,33.1,5.7
		c13.5-3.4,25.2-14,30.6-27.6C259.3,348.1,258.1,332.6,250.7,319.7z"/>
	<path class="st8" d="M89.1,188.1c6-24.1,4-51.4,56.5-51.7c31.6-0.2,48.9,10.1,51.8,30.8c3,21.7-27.3-6-44.4,15.5
		c-16.6,20.8-44,64-65.6,58.2C80,238.9,89.1,188.1,89.1,188.1z"/>
	<path class="st6" d="M83.6,345.3c-3.9,11.3-11.9,18.5-17.9,16s-7.7-13.6-3.7-25S77,308.6,83,311.1S87.5,334,83.6,345.3z"/>
	<path class="st6" d="M206.6,345.3c3.9,11.3,11.9,18.5,17.9,16s7.6-13.6,3.7-25s-15.1-27.8-21.1-25.3S202.7,334,206.6,345.3z"/>
	<path class="st6" d="M141.2,167.1c-4.4,6.1-4.5,14.5-1.7,21.4c2.2,5.4,6.6,10.4,12.3,11.1c5.1,0.7,10.2-2.2,13.1-6.4
		C175.9,176.8,157.2,145,141.2,167.1z"/>
	<path class="st6" d="M76.8,203.4c0.8-8.8,6.2-15.6,12.2-15.2s10.2,7.9,9.4,16.6s-6.9,22.8-12.9,22.4S76,212.1,76.8,203.4z"/>
	<path class="st6" d="M167.4,147.3c-5.5,2.6-13.1,4.2-21.8,4.2c-20.4-0.1-35.2-9.3-29.4-18.4l0.2-0.3l0,0c3.7-4.7,11.5-2.5,13.8-2.1
		c15.6,2.3,15.4,2.1,28.8,0c7.6-1.2,12-2.1,15.7,2.4l0,0l0.2,0.3C178.2,138.6,174.8,143.8,167.4,147.3z"/>
	<path class="st6" d="M159.3,350.9c0,12.5-5.9,22.6-13.1,22.6s-13.1-10.1-13.1-22.6S139,318,146.2,318S159.3,338.4,159.3,350.9z"/>
</g>
<g id="f-arm">
	<path class="st3" d="M161.6,172.8c4.3,3.7,7.9,8.1,10.9,12.9c2.9,4.8,5.1,10,6.5,15.4c2.6,10.6,2.3,21.7-0.8,32.2
		c-3,10.3-8.8,19.7-16.6,27c-7.9,7.4-17.9,12.1-28.6,13.6c-4,0.6-7.6-2.2-8.2-6.2c-0.5-3.8,2-7.3,5.7-8.1h0.1
		c7.6-1.5,14.5-5.3,19.8-10.9c5.3-5.6,9-12.6,10.7-20.1c1.8-7.4,1.5-15.1-0.7-22.3c-2.2-6.9-6.4-12.9-12.1-17.3
		c-4.6-3.6-5.3-10.3-1.6-14.9c3.5-4.4,9.9-5.3,14.5-1.9l0.5,0.4L161.6,172.8z"/>
</g>
<g id="r-hand">
	<path class="st3" d="M128.4,258c-5.9-1.5-12.6,2-17.7,6.3s-8.8,8.9-9.2,14.7c-0.3,3.9,1,8.2,5,9.3c2.3,0.6,4.9,0,7.3-0.9
		c7.3-2.6,17.8-8.6,22.1-15C140.1,266.3,134.4,259.5,128.4,258z"/>
	<path class="st3" d="M133.9,261c-3.7-3.8-8.4-6.4-13.6-7.4c-5.3-0.9-11.4,0.5-15.4,4.4c-0.9,0.9-1.8,2.2-1.2,3.3s2.5,1,3.9,0.9
		c4.7-0.5,9.4,1.5,12.3,5.2L133.9,261z"/>
	<path class="st7" d="M120.1,270.1c4.1-2.1,9-0.8,10.9,2.9s0.2,8.5-3.9,10.6s-12.3,2.6-14.2-1.1S116,272.2,120.1,270.1z"/>
</g>
<g id="head">
	<path class="st3" d="M218.2,90.6c-14.7,20.1-58.7,8.5-81.3,10.8c-6.5,0.2-11.8,1.8-17.8,2.8c-6.1,0.9-12.2,1.3-18.3,0.9l0,0
		c-41-2-57.7-38.5-27.3-62.2C107.6,15.7,220.1,7.7,223,69.7C223.4,79,221.6,85.7,218.2,90.6z"/>
	<path class="st7" d="M103.2,36.4c-4.2,1.8-8-3.3-5.6-7.5c7.5-13.1,23.5-31.2,54-28.6s39.6,17.7,42.2,27.9c1,4.1-2.6,7.8-6.3,6.3
		C173.9,28.9,142.2,19.9,103.2,36.4z"/>
	<path class="st7" d="M145.3,61.7c-6.1,4.1-12.6,8.1-20.1,9.5c-2.6,0.5-5.4,0.8-7.2,2.4c-3.1,2.9-0.7,7.7,2.7,10.4
		c9.2,7.3,23,8.4,35.5,7.5c7.2-0.5,14.5-1.5,21-4.2c13.6-5.6,22.6-22.1,11.9-33.2C177.1,41.6,155.9,54.5,145.3,61.7z"/>
	<path class="st9" d="M90.6,54.1c7.2-2.4,13.8-1.3,14.8,2.3s-4,8.5-11.2,10.8s-19.7,3.3-20.7-0.4S83.4,56.5,90.6,54.1z"/>
	<path class="st10" d="M87.6,57c2.9-0.8,5.6-0.2,5.9,1.3s-1.8,3.3-4.7,4.1s-8,0.8-8.3-0.7S84.7,57.8,87.6,57z"/>
	<g>
		<defs>
			<path id="SVGID_1_" d="M218.2,90.6c-14.7,20.1-58.7,8.5-81.3,10.8c-6.5,0.2-11.8,1.8-17.8,2.8c-6.1,0.9-12.2,1.3-18.3,0.9l0,0
				c-41-2-57.7-38.5-27.3-62.2C107.6,15.7,220.1,7.7,223,69.7C223.4,79,221.6,85.7,218.2,90.6z"/>
		</defs>
		<clipPath id="SVGID_2_">
			<use xlink:href="#SVGID_1_"  style="overflow:visible;"/>
		</clipPath>
		<g class="st11">
			<path class="st12" d="M71.2,76.8c-1.3,1.2-2.8,2.2-4.5,2.9c-1.7,0.7-3.5,1.1-5.3,1.2c-1.8,0.1-3.6,0-5.4-0.5
				c-1.7-0.4-3.4-1.2-4.8-2.3c1.7,0.3,3.4,0.6,5.1,0.8c3.3,0.3,6.6,0.1,9.9-0.7C67.8,77.8,69.5,77.3,71.2,76.8z"/>
		</g>
	</g>
</g>
</svg>
