<?xml version="1.0" encoding="utf-8"?>
<!-- Generator: Adobe Illustrator 25.2.0, SVG Export Plug-In . SVG Version: 6.00 Build 0)  -->
<svg version="1.1" id="Layer_1" xmlns="http://www.w3.org/2000/svg" xmlns:xlink="http://www.w3.org/1999/xlink" x="0px" y="0px"
	 viewBox="0 0 240.1 501.7" style="enable-background:new 0 0 240.1 501.7;" xml:space="preserve">
<style type="text/css">
	.st0{fill:#081F8B;}
	.st1{fill:#CF3AB5;}
	.st2{fill:#2502BA;}
	.st3{fill:#E941CB;}
	.st4{fill:#3002EC;}
	.st5{fill:#639BAA;}
	.st6{fill:#88D7EC;}
	.st7{fill:#4E16FF;}
	.st8{fill:#1B1464;}
	.st9{fill:#FFFFFF;}
	.st10{clip-path:url(#SVGID_2_);}
	.st11{fill:#C025A4;}
	.st12{fill:#309FEC;}
</style>
<g id="b-foot">
	<path class="st0" d="M91.2,453.7c-4.6,5.1-14.2,9.8-20.6,10.3s-12.9,0.1-18.8,2.6s-11.4,9-10.9,16.2c0.6,8.1,8.1,13.3,15.1,13.7
		c13,0.8,25.1-9.9,38.2-9.3c8.2,0.4,16.3,5.2,24.3,2.9c6.9-1.9,12.4-9.5,12.8-17.6s-4.2-16.3-10.9-18.9L91.2,453.7z"/>
	<path class="st1" d="M124.8,380.1l-19,0.1l-19,0.1c0,0,16.2,25.6,7.8,66.5l11.5-0.1l11.5-0.1C108.8,405.9,124.8,380.1,124.8,380.1z
		"/>
	<path class="st2" d="M121.8,449.7c3.5-1.8,5.3-5.5,4.2-8.6c-1.4-3.9-5.7-6-9.8-5.2c-6.6,1.2-13.4,1.2-20,0.1
		c-4.1-0.7-8.4,1.4-9.8,5.3c-1.1,3.1,0.7,6.7,4.2,8.5c-4.8,4.9-13.9,9.2-20,9.6c-6.3,0.4-12.9,0.1-18.8,2.6s-11.4,9-10.9,16.2
		c0.5,8.1,8.1,13.3,15.1,13.7c13,0.8,25.1-9.9,38.2-9.3c8.2,0.4,16.3,5.2,24.3,2.9c6.9-1.9,12.4-9.5,12.8-17.6
		C131.7,460.4,127.7,452.9,121.8,449.7z"/>
</g>
<g id="f-foot">
	<path class="st0" d="M106.6,458.9c-4.6,5.1-14.3,9.8-20.6,10.2s-12.9,0.1-18.8,2.6s-11.4,9-10.9,16.2c0.6,8.1,8.1,13.3,15.1,13.7
		c13,0.8,25.1-9.9,38.2-9.3c8.2,0.4,16.3,5.2,24.3,3c6.9-1.9,12.4-9.5,12.8-17.6s-4.2-16.3-10.9-18.9L106.6,458.9z"/>
	<path class="st3" d="M140.2,385.2l-19,0.1l-19,0.1c0,0,16.2,25.6,7.8,66.5l11.5,0l11.5-0.1C124.2,411,140.2,385.2,140.2,385.2z"/>
	<path class="st4" d="M137.2,454.9c3.5-1.8,5.3-5.5,4.2-8.6c-1.4-3.9-5.7-6-9.8-5.2c-6.6,1.2-13.4,1.3-20,0.1
		c-4.1-0.7-8.4,1.4-9.7,5.3c-1.1,3.1,0.7,6.7,4.2,8.5c-4.8,4.9-13.9,9.2-20,9.6c-6.3,0.4-12.9,0.1-18.8,2.6s-11.4,8.9-10.9,16.2
		c0.6,8.1,8.1,13.3,15.1,13.7c13,0.8,25.1-9.9,38.2-9.3c8.2,0.4,16.3,5.2,24.3,3c6.9-1.9,12.4-9.5,12.8-17.6
		C147.1,465.6,143.1,458,137.2,454.9z"/>
	<circle class="st5" cx="137.4" cy="484.3" r="14.8"/>
	<circle class="st6" cx="139.6" cy="486.6" r="14.8"/>
</g>
<g id="head">
	<path class="st3" d="M193.2,90.6c-14.7,20.1-58.7,8.5-81.3,10.8c-6.5,0.2-11.8,1.8-17.8,2.8c-6.1,0.9-12.2,1.3-18.3,0.9l0,0
		c-41-2-57.7-38.5-27.3-62.2C82.6,15.7,195,7.7,198,69.7C198.4,79,196.6,85.7,193.2,90.6z"/>
	<path class="st7" d="M78.2,36.4c-4.2,1.8-8-3.3-5.6-7.5c7.5-13.1,23.4-31.2,54-28.6s39.6,17.7,42.2,27.9c1,4.1-2.6,7.8-6.3,6.3
		C148.9,28.9,117.2,19.9,78.2,36.4z"/>
	<path class="st7" d="M120.2,61.7c-6.1,4.1-12.6,8.1-20.1,9.5c-2.6,0.5-5.4,0.8-7.2,2.4c-3.1,2.9-0.7,7.7,2.7,10.4
		c9.2,7.3,23,8.4,35.5,7.5c7.2-0.5,14.5-1.5,21-4.2c13.5-5.6,22.6-22.1,11.9-33.2C152.1,41.6,130.9,54.5,120.2,61.7z"/>
	<path class="st8" d="M65.6,54.1c7.2-2.4,13.8-1.3,14.8,2.3s-4,8.5-11.2,10.8s-19.7,3.3-20.7-0.4S58.4,56.5,65.6,54.1z"/>
	<path class="st9" d="M62.6,57c2.9-0.8,5.6-0.2,5.9,1.3s-1.8,3.3-4.7,4.1s-8,0.8-8.3-0.7S59.7,57.8,62.6,57z"/>
	<g>
		<defs>
			<path id="SVGID_1_" d="M193.2,90.6c-14.7,20.1-58.7,8.5-81.3,10.8c-6.5,0.2-11.8,1.8-17.8,2.8c-6.1,0.9-12.2,1.3-18.3,0.9l0,0
				c-41-2-57.7-38.5-27.3-62.2C82.6,15.7,195,7.7,198,69.7C198.4,79,196.6,85.7,193.2,90.6z"/>
		</defs>
		<clipPath id="SVGID_2_">
			<use xlink:href="#SVGID_1_"  style="overflow:visible;"/>
		</clipPath>
		<g class="st10">
			<path class="st11" d="M46.2,76.8c-1.3,1.2-2.8,2.2-4.5,2.9c-1.7,0.7-3.4,1.1-5.2,1.2c-1.8,0.1-3.7,0-5.4-0.5
				c-1.7-0.4-3.4-1.2-4.8-2.3c1.7,0.3,3.4,0.6,5.1,0.8c3.3,0.3,6.6,0.1,9.9-0.7C42.8,77.8,44.5,77.3,46.2,76.8z"/>
		</g>
	</g>
</g>
<g id="body">
	<path class="st6" d="M237.8,329.5c4.1,11.2,2.6,22.5-3.3,25s-14.1-4.4-18.2-15.6s-8-32.8-1.6-33
		C222.3,305.5,233.7,318.2,237.8,329.5z"/>
	<path class="st6" d="M2.3,329.5c-4.1,11.2-2.6,22.5,3.3,25s14.1-4.4,18.2-15.6s8-32.8,1.6-33C17.8,305.5,6.4,318.2,2.3,329.5z"/>
	<path class="st4" d="M225.7,319.7c-6.1-10.4-15.7-17.8-23.4-26.9c-12.3-14.4-19.7-33-23.8-51.8s-8.1-46.2-9.1-65.6v-2.2
		c0-18.6-12.5-29.4-31-29.4h-36.1c-18.5,0-33.5,10.8-33.5,29.4v2.2c-1,19.3-2.5,46.6-6.7,65.6s-11.5,37.4-23.8,51.9
		c-7.7,9.1-17.3,16.5-23.4,26.9c-7.3,12.9-8.5,28.4-3.2,42.2c5.3,13.5,17,24.1,30.6,27.6c10.8,2.7,22-6,33.1-5.7
		c6.9,0.2,14.3,4,21.6,9.6c13.8,10.8,33.2,10.8,46.9,0c7.2-5.6,14.6-9.4,21.6-9.6c11.1-0.3,22.3,8.5,33.1,5.7
		c13.5-3.4,25.2-14,30.6-27.6C234.2,348.1,233,332.6,225.7,319.7z"/>
	<path class="st12" d="M64.1,188.1c6-24.1,4-51.4,56.4-51.7c31.6-0.2,48.9,10.1,51.8,30.8c3,21.7-27.3-6-44.4,15.5
		c-16.6,20.8-44,64-65.6,58.2C55,238.9,64.1,188.1,64.1,188.1z"/>
	<path class="st6" d="M58.5,345.3c-3.9,11.3-11.9,18.5-17.9,16s-7.7-13.6-3.8-25S52,308.6,58,311.1S62.5,334,58.5,345.3z"/>
	<path class="st6" d="M181.6,345.3c3.9,11.3,11.9,18.5,17.9,16s7.7-13.6,3.8-25s-15.1-27.8-21.1-25.3S177.7,334,181.6,345.3z"/>
	<path class="st6" d="M116.2,167.1c-4.3,6.1-4.5,14.5-1.7,21.4c2.2,5.4,6.6,10.4,12.3,11.1c5.1,0.7,10.2-2.2,13.1-6.4
		C150.9,176.8,132.1,145,116.2,167.1z"/>
	<path class="st6" d="M51.8,203.4c0.8-8.8,6.3-15.6,12.3-15.2s10.2,7.8,9.4,16.6s-6.9,22.8-12.9,22.4S51,212.1,51.8,203.4z"/>
	<path class="st3" d="M90,95l-3.6,10.1c0,0,15.4,0.1,21.2,9c3.1,7.6,4.2,18.3-5.2,30.3h34.9c0,0-9.2-10.1-4.5-29.8
		c4-12.6,25.2-11.9,25.2-11.9V95H90z"/>
	<path class="st6" d="M142.4,147.3c-5.5,2.6-13.1,4.2-21.8,4.2c-20.4-0.1-35.2-9.3-29.4-18.4l0.2-0.3l0,0c3.7-4.7,11.6-2.5,13.8-2.1
		c15.6,2.3,15.4,2.1,28.8,0c7.6-1.2,12-2.1,15.7,2.4l0,0l0.2,0.3C153.2,138.6,149.8,143.8,142.4,147.3z"/>
	<path class="st6" d="M134.3,350.9c0,12.5-5.9,22.6-13.1,22.6s-13.1-10.1-13.1-22.6S114,318,121.2,318S134.3,338.4,134.3,350.9z"/>
</g>
<g id="arm">
	<path class="st3" d="M138.6,175.4c3.5,8.3,6,17,7.5,25.9c1.5,8.8,1.8,17.8,1.1,26.8c-0.7,8.7-2.2,17.3-4.5,25.7
		c-2.2,8.3-5,16.3-7.8,24c-1.4,3.8-5.6,5.7-9.3,4.4c-3.6-1.3-5.6-5.2-4.5-8.9l0,0c2.3-7.8,4.3-15.5,5.8-23.1
		c1.5-7.5,2.3-15.2,2.4-22.9c0.1-7.5-0.7-15-2.4-22.2c-1.7-7.2-4.3-14.2-7.6-20.8v-0.1c-2.7-5.2-0.7-11.6,4.5-14.4
		c5.2-2.7,11.6-0.7,14.4,4.5c0.1,0.1,0.1,0.2,0.2,0.3C138.4,174.9,138.5,175.2,138.6,175.4z"/>
</g>
<g id="hand">
	<path class="st3" d="M117.5,277.1c-5,3.9-6.3,11.6-6.1,18.6s1.8,12.9,6.3,16.8c3,2.7,7.4,4.3,10.8,1.7c1.9-1.5,3.1-4,3.9-6.5
		c2.5-7.6,4.2-20.1,1.6-27.7C131.7,272.7,122.5,273.2,117.5,277.1z"/>
	<path class="st3" d="M123.4,274.4c-5.4,0.6-10.6,2.9-14.7,6.6c-4.1,3.8-6.8,9.7-6.1,15.4c0.2,1.3,0.7,2.9,2,3s2.4-1.4,3.2-2.7
		c2.6-4.1,7.1-6.7,12-6.7L123.4,274.4z"/>
	<path class="st7" d="M122.2,291.5c0.8-4.7,5-7.9,9.3-7.1s7.1,5.2,6.2,9.9s-5.7,11.8-9.9,11S121.3,296.2,122.2,291.5z"/>
</g>
</svg>
