<?xml version="1.0" encoding="utf-8"?>
<!-- Generator: Adobe Illustrator 25.2.0, SVG Export Plug-In . SVG Version: 6.00 Build 0)  -->
<svg version="1.1" id="Layer_1" xmlns="http://www.w3.org/2000/svg" xmlns:xlink="http://www.w3.org/1999/xlink" x="0px" y="0px"
	 viewBox="0 0 271.2 496" style="enable-background:new 0 0 271.2 496;" xml:space="preserve">
<style type="text/css">
	.st0{fill:#E941CB;}
	.st1{fill:#88D7EC;}
	.st2{fill:#081F8B;}
	.st3{fill:#3002EC;}
	.st4{fill:#7452FF;}
	.st5{fill:#4E16FF;}
	.st6{fill:#1B1464;}
	.st7{fill:#FFFFFF;}
	.st8{fill:#C025A4;}
	.st9{fill:#309FEC;}
	.st10{fill:#20019B;}
	.st11{clip-path:url(#SVGID_2_);}
</style>
<g id="l-leg">
	<path class="st0" d="M104.4,375.5H69.5c0,0,14.8,23.3,6.9,60.3h21.2C89.6,398.8,104.4,375.5,104.4,375.5z"/>
	<path class="st1" d="M107.7,454.8h-3.2c-1.8,0-3.3,5.6-3.3,12.5s1.5,12.5,3.3,12.5h3.2c1.8,0,3.3-5.6,3.3-12.5
		S109.5,454.8,107.7,454.8z"/>
	<path class="st1" d="M69.5,454.8h-3.2c-1.8,0-3.3,5.6-3.3,12.5s1.5,12.5,3.3,12.5h3.2c1.8,0,3.3-5.6,3.3-12.5
		S71.3,454.8,69.5,454.8z"/>
	<path class="st2" d="M109.9,469.6c-2.9-6.7-11-15.5-9.8-22.6l-13.6-0.4L73,447c1.2,7.2-6.9,15.9-9.8,22.6s-4.1,13.1,0.1,19.1
		c2.4,3.4,6.4,5.4,10.5,6.4c4.2,0.8,8.4,1.1,12.7,0.9c4.2,0.2,8.5-0.1,12.7-0.9c4.1-1,8.2-3,10.6-6.4
		C114.1,482.8,112.8,476.3,109.9,469.6z"/>
	<path class="st3" d="M100.1,444.5c4.7-1.2,7.4-5.5,6.1-9.1c-1.3-3.8-5.6-5.9-9.6-5.2c-6.5,1.2-13.1,1.2-19.6,0
		c-4-0.7-8.2,1.3-9.6,5.2c-1.2,3.5,1.2,7.5,5.5,9c-0.4,6.7-7.2,14.4-9.8,20.5c-2.9,6.7-4.1,13.1,0.1,19.1c2.4,3.4,6.4,5.4,10.6,6.4
		c4.2,0.8,8.4,1.1,12.7,0.9c4.2,0.2,8.5-0.1,12.7-0.9c4.1-1,8.2-3,10.6-6.4c4.3-6,3-12.4,0.1-19.1
		C107.4,458.8,100.6,451.2,100.1,444.5z"/>
	<path class="st4" d="M70,469.4c2-2.2,4.5-3.9,7.3-4.9c5.6-2.2,11.9-2.2,17.5,0.1c1.4,0.6,2.7,1.2,3.9,2c1.2,0.8,2.3,1.8,3.4,2.8
		c-1.4-0.4-2.7-0.9-4.1-1.3s-2.7-0.8-4-1c-2.6-0.6-5.3-0.9-8-0.9c-2.7,0-5.4,0.2-8,0.8C75.3,467.6,72.6,468.4,70,469.4z"/>
</g>
<g id="r-arm">
	<path class="st0" d="M189.5,156.3l3.6-1.9l0,0h0.1h0.1l0.2-0.1l0.4-0.1l0.9-0.3l1.8-0.5c1.2-0.3,2.3-0.8,3.4-1.2
		c0.6-0.2,1.1-0.4,1.7-0.6l1.6-0.7l1.7-0.7c0.6-0.2,1.1-0.5,1.6-0.8c4.2-2,8.2-4.6,11.9-7.6c7.2-6,12.8-14,16.8-23.1
		s6.7-19.3,8.7-29.8s3.6-21.3,5.5-32.3c0.8-3.8,4.6-6.1,8.4-5.3c3.4,0.8,5.7,3.9,5.4,7.4l0,0c-1.3,10.7-2.3,21.7-3.9,32.8
		s-3.9,22.5-8.2,33.7c-2.2,5.7-4.9,11.2-8.2,16.3c-3.4,5.3-7.4,10.1-12,14.3c-4.6,4.2-9.7,7.9-15.2,10.9c-0.7,0.4-1.4,0.8-2.1,1.1
		l-2.1,1l-2.1,1c-0.7,0.3-1.4,0.6-2.1,0.9c-1.4,0.6-2.8,1.2-4.3,1.7l-2.1,0.8l-1.1,0.4l-0.5,0.2l-0.3,0.1l-0.1,0.1H199l0,0l3.6-1.9
		c-4.3,3.6-10.8,3-14.4-1.4S185.2,159.8,189.5,156.3L189.5,156.3z"/>
</g>
<g id="l-arm">
	<path class="st0" d="M77.2,175.1c-7.1,1.4-13.6,5.1-18.5,10.5c-5.2,5.8-8.8,12.8-10.5,20.4c-1.9,7.8-1.8,15.9,0.3,23.6
		c2,7.6,6.3,14.4,12.3,19.5h0.1c3,2.6,3.4,7.2,0.7,10.3c-2.5,2.8-6.7,3.3-9.7,1.2c-4.4-3.3-8.3-7.2-11.5-11.6
		c-3.2-4.5-5.7-9.3-7.4-14.5c-3.4-10.3-4.2-21.2-2.4-31.9c1.8-10.9,6.3-21.1,13.2-29.7c3.6-4.4,7.9-8.3,12.6-11.4
		c4.9-3.2,10.2-5.6,15.8-7.1h0.2c5.6-1.8,11.6,1.3,13.4,6.9c1.8,5.6-1.3,11.6-6.9,13.4c-0.3,0.1-0.7,0.2-1,0.3L77.2,175.1z"/>
</g>
<g id="r-leg">
	<path class="st0" d="M201.7,375.5h-34.9c0,0,14.8,23.3,6.9,60.3h21.2C186.9,398.8,201.7,375.5,201.7,375.5z"/>
	<path class="st1" d="M205.4,454.8h-3.2c-1.8,0-3.3,5.6-3.3,12.5s1.5,12.5,3.3,12.5h3.2c1.9,0,3.3-5.6,3.3-12.5
		S207.2,454.8,205.4,454.8z"/>
	<path class="st1" d="M167.2,454.8h-3.2c-1.9,0-3.3,5.6-3.3,12.5s1.5,12.5,3.3,12.5h3.2c1.8,0,3.3-5.6,3.3-12.5
		S169,454.8,167.2,454.8z"/>
	<path class="st2" d="M207.6,469.6c-2.9-6.7-11-15.5-9.8-22.6l-13.6-0.4l-13.6,0.4c1.2,7.2-6.9,15.9-9.8,22.6s-4.1,13.1,0.1,19.1
		c2.4,3.4,6.4,5.4,10.6,6.4c4.2,0.8,8.4,1.1,12.7,0.9c4.2,0.2,8.5-0.1,12.7-0.9c4.1-1,8.1-3,10.6-6.4
		C211.8,482.8,210.5,476.3,207.6,469.6z"/>
	<path class="st3" d="M207.6,464.8c-2.6-6-9.3-13.7-9.8-20.3c4.7-1.2,7.4-5.5,6.1-9.1c-1.4-3.8-5.6-5.9-9.6-5.2
		c-6.5,1.2-13.1,1.2-19.6,0c-4-0.8-8,1.4-9.6,5.2c-1.2,3.5,1.2,7.5,5.5,9c-0.4,6.7-7.2,14.4-9.8,20.5c-2.9,6.7-4.1,13.2,0.1,19.2
		c2.4,3.4,6.4,5.4,10.6,6.4c4.2,0.8,8.4,1.1,12.7,0.9c4.2,0.2,8.5-0.1,12.7-0.9c4.1-1,8.1-3,10.6-6.4
		C211.8,478,210.5,471.5,207.6,464.8z"/>
	<path class="st4" d="M167.7,469.4c2-2.2,4.5-3.9,7.3-4.9c7.1-2.8,15.1-2,21.5,2.2c1.2,0.8,2.3,1.8,3.4,2.8
		c-1.4-0.4-2.7-0.9-4.1-1.3s-2.6-0.8-4-1c-2.6-0.6-5.3-0.9-8-0.9c-2.7,0-5.4,0.2-8,0.8C173,467.6,170.3,468.4,167.7,469.4z"/>
</g>
<g id="head">
	<path class="st0" d="M215.3,75.2c-1,4.8-3.4,9.1-7,12.5c-5.6,5.4-13.9,8.9-22.9,10.8c-9.2,2.1-19.2,5.3-29.5,7.5
		c-7.3,1.7-14.7,2.6-22.2,2.7c-5.3,0-10.6-0.5-15.8-1.4c-12.5-2.1-24.8-6.2-35.9-8.8c-9.1-1.9-17.6-5.6-23.3-11.2
		c-3.3-3.3-5.6-7.4-6.6-12c-0.6-3.1-0.6-6.3-0.1-9.5c0.4-2.8,1.1-5.6,2-8.3c7.7-22.9,31.6-32.8,56.1-36.5c7.8-1.1,15.7-1.8,23.6-1.8
		c8.7,0.1,17.4,0.8,26.1,2.2c24,4,46.9,14.4,54,37.3c0.7,2.3,1.2,4.6,1.6,7C216,68.9,215.9,72.1,215.3,75.2z"/>
	<path class="st5" d="M159.9,21.3V21c0-4.9-2-9.7-5.6-13.1l-0.2-0.2c-10.7-10.2-27.5-10.2-38.1,0l-0.2,0.2
		c-3.6,3.4-5.6,8.2-5.6,13.1l0,0l10.5,17.4c4.6,8,14.9,10.7,22.8,6c2.5-1.4,4.5-3.5,6-6L159.9,21.3z"/>
	<path class="st6" d="M175.4,55.2c8.5-2.7,16.4-1.7,17.7,2.2s-4.6,9.3-13.1,12s-23.4,4-24.6,0S166.9,58,175.4,55.2z"/>
	<path class="st7" d="M171.9,58.5c3.5-0.9,6.6-0.3,7.1,1.3s-2.1,3.6-5.6,4.5s-9.5,1.1-9.9-0.5S168.4,59.4,171.9,58.5z"/>
	<path class="st6" d="M94.7,55.2c-8.5-2.7-16.4-1.7-17.7,2.2s4.6,9.3,13.2,12s23.4,4,24.7,0S103.2,58,94.7,55.2z"/>
	<path class="st7" d="M98.2,58.5c-3.5-0.9-6.6-0.3-7.1,1.3s2.1,3.6,5.6,4.5s9.5,1.1,9.9-0.5S101.7,59.4,98.2,58.5z"/>
	<path class="st8" d="M150,82.1c-2,1.5-4.2,2.7-6.6,3.4c-4.8,1.6-10.1,1.6-14.9,0c-2.4-0.8-4.6-1.9-6.6-3.4c2.4,0.6,4.7,1.2,7.1,1.6
		c2.3,0.4,4.7,0.6,7,0.6c2.3,0,4.7-0.2,7-0.6C145.3,83.2,147.6,82.7,150,82.1z"/>
	<path class="st5" d="M222.9,82.5c-2.3,1.8-5,3.1-7.8,3.8c-0.6,0.2-1.3,0.4-1.9,0.5c-1.6,0.4-3.3,0.7-4.9,0.8
		c-4.5,0.4-9.1-0.3-12.8-3.5c-1.8-1.6-3.4-4.7-2.2-6.9c0.7-1.3,2.1-1.6,3.2-2.2c3.5-1.5,6.2-4.7,8.8-7.9c1.6-2.1,3.4-4.1,5.4-6
		c1-0.9,2-1.8,3.1-2.6c3.9-2.7,8.2-3.8,11.9,0.3C231.8,65.9,228.9,77.8,222.9,82.5z"/>
	<path class="st5" d="M74.6,84.2c-4.5,3.9-10.3,4.1-15.8,3c-0.7-0.1-1.3-0.3-1.9-0.4c-1.6-0.4-3.1-0.9-4.6-1.5
		c-1.8-0.7-3.5-1.7-5.1-2.9c-6-4.7-8.9-16.6-2.8-23.4c3-3.4,6.5-3.3,9.7-1.6c1.3,0.7,2.5,1.4,3.5,2.4c2.6,2.2,5,4.7,7,7.5
		c2.6,3.2,5.3,6.4,8.8,7.9c1.2,0.5,2.5,0.9,3.2,2.2C78,79.6,76.4,82.6,74.6,84.2z"/>
</g>
<g id="body">
	<ellipse class="st1" cx="191.6" cy="164.4" rx="13.1" ry="21.4"/>
	<ellipse class="st1" cx="81.3" cy="164.4" rx="13.1" ry="21.4"/>
	<ellipse class="st1" cx="191.6" cy="164.4" rx="13.1" ry="21.4"/>
	<ellipse class="st1" cx="81.3" cy="164.4" rx="13.1" ry="21.4"/>
	<path class="st1" d="M268.6,320.8c4.7,11.6,3,23.2-3.7,25.9s-15.9-4.5-20.6-16.2s-9-33.9-1.8-34.1
		C251.1,296.1,263.9,309.2,268.6,320.8z"/>
	<path class="st1" d="M2.6,320.8c-4.6,11.6-3,23.2,3.7,25.9s15.9-4.5,20.6-16.2s9-33.9,1.8-34.1C20.1,296.1,7.3,309.2,2.6,320.8z"/>
	<path class="st3" d="M255,310.7c-6.8-10.7-17.7-18.4-26.4-27.8c-14-15-22.3-34.1-27-53.6c-4.7-19.6-7.7-39.6-9-59.8H79.1
		c-1.3,20.1-4.3,40.2-9,59.8c-4.7,19.6-13,38.7-27,53.7c-8.7,9.4-19.6,17-26.4,27.8c-8.3,13.1-9.6,29.4-3.6,43.6
		c6,14,19.2,24.9,34.5,28.5c12.2,2.8,24.9-6.2,37.4-5.9c7.8,0.2,16.2,4.1,24.3,9.9c15.9,11.2,37.1,11.2,53,0
		c8.1-5.8,16.5-9.7,24.3-9.9c12.5-0.3,25.2,8.8,37.4,5.9c15.3-3.5,28.5-14.5,34.5-28.5C264.6,340.1,263.3,323.8,255,310.7z"/>
	<path class="st9" d="M194.1,159.2c0-19.3-17-30.4-37.9-30.4h-7.4c-9.3-1.8-18.9-1.8-28.2,0h-5.1c-20.9,0-37.9,11.1-37.9,30.4v6.7
		c0,0.1,0,0.3,0,0.4s0,0.4,0,0.6s0,0.3,0,0.5c0.6,13.8,8.1,30.4,18.5,46.7c1.9,3.5,4.2,6.7,6.9,9.6l0,0c32.9,35.1,58.9,7.2,63.9,1.1
		c11.6-12.1,23.1-33.8,26.3-51.5c0.6-2.4,0.9-4.9,0.9-7.4L194.1,159.2z"/>
	<path class="st1" d="M148.7,345.6c0,12.5-5.9,22.6-13.1,22.6s-13.1-10.1-13.1-22.6s5.9-32.9,13.1-32.9S148.7,333,148.7,345.6z"/>
	<path class="st1" d="M66.1,337.2c-4.4,11.7-13.5,19.1-20.2,16.6s-8.6-14.1-4.2-25.8s17.1-28.7,23.9-26.1S70.6,325.5,66.1,337.2z"/>
	<path class="st1" d="M205.1,337.2c4.4,11.7,13.5,19.1,20.2,16.6s8.7-14.1,4.2-25.8s-17.1-28.7-23.9-26.1S200.7,325.5,205.1,337.2z"
		/>
	<path class="st1" d="M121.2,202.5c-0.4-9.8,5.7-18,13.7-18.4s14.8,7.3,15.2,17s-5.4,26-13.4,26.3S121.6,212.3,121.2,202.5z"/>
	<ellipse class="st1" cx="136.3" cy="140.9" rx="37.4" ry="20.3"/>
	<ellipse class="st10" cx="136.3" cy="134.3" rx="24.9" ry="8.6"/>
	<path class="st0" d="M173,96.5c-6.2,2.1-11.9,5.3-17,9.5c-0.4,0.3-0.8,0.7-1.2,1c-2.8,2.9-4.8,6.6-5.7,10.5
		c-0.3,1.3-0.5,2.7-0.6,4.1c-0.1,1.7,0,3.5,0.2,5.2c0.1,0.6,0.2,1.3,0.3,1.9c0.8,3.4,2.1,6.7,4,9.7h-33.5c1.9-3.2,3.3-6.6,4-10.3
		c0.1-0.4,0.2-0.9,0.2-1.3c0.3-1.7,0.4-3.5,0.2-5.2c-0.1-1.1-0.2-2.3-0.4-3.4c-0.8-4.1-2.8-7.9-5.7-11l-0.2-0.2
		c-5.2-4.7-11.2-7.9-18.2-10.5L173,96.5z"/>
	<g>
		<defs>
			<ellipse id="SVGID_1_" cx="136.3" cy="134.3" rx="24.9" ry="8.6"/>
		</defs>
		<clipPath id="SVGID_2_">
			<use xlink:href="#SVGID_1_"  style="overflow:visible;"/>
		</clipPath>
		<g class="st11">
			<path class="st0" d="M111.4,137.2c0,0,25.8-10,49.8,0v11h-49.8V137.2z"/>
		</g>
	</g>
</g>
<g id="l-hand">
	<path class="st0" d="M63.7,254.6c2,6-1.1,13.2-5.2,18.8S49.9,283.2,44,284c-4,0.6-8.6-0.5-10-4.5c-0.8-2.3-0.3-5.1,0.3-7.6
		c2.1-7.7,7.6-19.1,13.9-24C54.3,243.2,61.6,248.6,63.7,254.6z"/>
	<path class="st0" d="M60.2,249.1c4.2,3.5,7.2,8.3,8.6,13.5c1.3,5.5,0.3,11.9-3.4,16.2c-0.9,1-2.2,2-3.3,1.5s-1.2-2.5-1.2-4
		c0.1-4.9-2.3-9.5-6.3-12.3L60.2,249.1z"/>
	<path class="st5" d="M51.8,264.1c1.9-4.4,0.2-9.3-3.8-11.1s-8.8,0.4-10.7,4.8s-1.7,12.9,2.3,14.7S50,268.5,51.8,264.1z"/>
</g>
<g id="r-hand">
	<path class="st0" d="M244.4,60.7c-0.9,6.4-0.2,13.3,4.8,16.2s14.9,2.1,18.2-4.8c1.7-3.6,1.6-7.7,1.6-11.7L244.4,60.7z"/>
	<path class="st0" d="M256.9,78.4c-5.6,0-10.5-1-14.6-4c-4.3-3-6.3-8.2-5.1-13.3c0.3-1.2,1-2.7,2.4-3c1.5-0.4,2.4,1,3.2,2
		c2.5,3.5,7.4,5.3,12.4,4.6L256.9,78.4z"/>
	<path class="st8" d="M244.9,67.7c1.2,0.6,2.6,0.9,4,0.8l15,0.6c1.4,0.2,2.8,0,4.1-0.5c2.6-1.2,3.6-4.9,2.7-7.8c-1-2.8-3.2-5-6-6
		c-2.7-0.9-5.5-1.3-8.3-1.3c-3.7-0.2-10-1.8-12.9,1.6C240.8,58.4,241.2,65.5,244.9,67.7z"/>
	<path class="st0" d="M244.9,66.2c1.2,0.6,2.6,0.9,4,0.8l15,0.6c1.4,0.2,2.8,0,4.1-0.5c2.6-1.2,3.6-4.9,2.7-7.8c-1-2.8-3.2-5-6-6
		c-2.7-0.9-5.5-1.3-8.3-1.3c-3.7-0.2-10-1.8-12.9,1.6C240.8,56.9,241.2,64,244.9,66.2z"/>
	<path class="st5" d="M265.3,53c0.2-2.8-3.1-5.3-7.4-5.7s-8,1.6-8.3,4.4s2.9,7.6,7.2,8S265.1,55.8,265.3,53z"/>
</g>
</svg>
