<?xml version="1.0" encoding="utf-8"?>
<!-- Generator: Adobe Illustrator 26.0.0, SVG Export Plug-In . SVG Version: 6.00 Build 0)  -->
<svg version="1.1" id="Layer_1" xmlns="http://www.w3.org/2000/svg" xmlns:xlink="http://www.w3.org/1999/xlink" x="0px" y="0px"
	 viewBox="0 0 700 1263.6" style="enable-background:new 0 0 700 1263.6;" xml:space="preserve">
<style type="text/css">
	.st0{fill:#E941CB;}
	.st1{fill:#081F8B;}
	.st2{fill:#3002EC;}
	.st3{fill:#639BAA;}
	.st4{fill:#88D7EC;}
	.st5{fill:#4E16FF;}
	.st6{fill:#1B1464;}
	.st7{fill:#FFFFFF;}
	.st8{fill:#C025A4;}
	.st9{fill:#309FEC;}
	.st10{fill:#20019B;}
	.st11{clip-path:url(#SVGID_00000137106602648001371750000016199637596101726376_);}
</style>
<g>
	<g transform="translate(-21 -1106)">
		<g>
			<g>
				<g>
					<g>
						<g>
							<g>
								<path class="st0" d="M290.9,2077.3h-88.7c0,0,37.6,60,17.4,155.1h53.9C253.3,2137.2,290.9,2077.3,290.9,2077.3z"/>
								<path class="st1" d="M211.2,2258.4c-11,13.4-34.5,26.1-50.4,27.9c-15.9,1.8-32,1.5-46.8,8.3c-14.8,6.7-27.6,23.5-25.6,41.9
									c2.3,20.4,21.5,32.8,39.1,33.1c32.5,0.8,61.6-27.4,94.3-27.1c20.5,0,41.2,11.4,60.8,4.9c17.1-5.4,29.9-25.1,30.2-45.7
									s-12.3-40.6-29.1-46.5L211.2,2258.4z"/>
								<path class="st2" d="M287.4,2245.5c8.4-4.9,12.5-14.2,9.2-22c-4.3-9.6-14.8-14.7-25.1-12.4c-16.6,3.6-33.5,4.4-50.4,1.8
									c-10.2-1.6-21.2,4.1-24,14.2c-2.3,8,2.8,17.3,12,21.4c-11.5,12.9-33.7,24.6-48.8,26.1c-15.9,1.5-32,1.5-46.8,8.3
									c-14.8,6.7-27.6,23.8-25.6,41.9c2.3,20.4,21.5,32.8,39.1,33.1c32.7,0.8,61.6-27.4,94.3-27.1c20.5,0,41.2,11.4,60.8,5.2
									c17.1-5.4,29.9-25.1,30.2-45.7C312.9,2271.4,302.2,2252.7,287.4,2245.5z"/>
								<path class="st3" d="M327.7,2318.9c0,20.7-16.6,37.5-37.1,37.5c-20.5,0-37.1-16.8-37.1-37.5s16.6-37.5,37.1-37.5
									C311.1,2281.4,327.7,2298.2,327.7,2318.9z"/>
								<path class="st4" d="M332.9,2324.1c0,20.7-16.6,37.5-37.1,37.5c-20.5,0-37.1-16.8-37.1-37.5c0-20.7,16.6-37.5,37.1-37.5
									C316.3,2286.6,332.9,2303.4,332.9,2324.1z"/>
								<path class="st0" d="M539.7,2077.3h-89c0,0,37.8,60,17.6,155.1h53.9C502.1,2137.2,539.7,2077.3,539.7,2077.3z"/>
								<path class="st1" d="M529.4,2258.4c11,13.4,34.5,26.1,50.4,27.9c15.9,1.8,32,1.5,46.8,8.3s27.6,23.5,25.6,41.9
									c-2.3,20.4-21.5,32.8-39.1,33.1c-32.5,0.8-61.6-27.4-94.3-27.1c-20.5,0-41.2,11.4-61.1,4.9c-17.1-5.4-29.9-25.1-30.2-45.7
									c-0.3-20.7,12.3-40.6,29.1-46.5L529.4,2258.4z"/>
								<path class="st2" d="M626.8,2283.3c-14.6-7-30.9-6.7-46.8-8.3c-15.1-1.5-37.6-13.4-48.8-26.1c9.2-4.1,14.6-13.2,12-21.5
									c-2.8-10.1-13.8-15.8-24-14.2c-16.9,2.3-33.7,1.8-50.4-1.8c-10.2-2.3-20.7,2.8-25.1,12.4c-3.1,7.8,0.8,17.1,9.2,22
									c-15.1,7.5-25.6,25.8-25.3,45c0.3,20.7,13.3,40.1,30.4,45.7c19.7,6.5,40.4-4.9,60.8-5.2c32.5,0,61.6,27.9,94.3,27.1
									c17.6-0.3,36.8-12.7,39.1-33.1C654.4,2306.8,641.7,2290.2,626.8,2283.3z"/>
								<path class="st3" d="M488.5,2318.9c0,20.7-16.6,37.5-37.1,37.5c-20.5,0-37.1-16.8-37.1-37.5s16.6-37.5,37.1-37.5
									C471.9,2281.4,488.5,2298.2,488.5,2318.9z"/>
								<path class="st4" d="M480.9,2324.1c0,20.7-16.6,37.5-37.1,37.5c-20.5,0-37.1-16.8-37.1-37.5c0-20.7,16.6-37.5,37.1-37.5
									C464.3,2286.6,480.9,2303.4,480.9,2324.1z"/>
								<path class="st0" d="M221.7,1558.5c-18.2,3.6-34.8,13.2-47.3,27.1c-13.3,15-22.5,33.1-26.8,52.7c-4.9,20.2-4.6,41.1,0.8,61
									c5.1,19.6,16.1,37.2,31.4,50.4l0.3,0.3c7.7,7,8.4,18.9,1.5,26.6c-6.4,7.2-16.9,8.5-24.5,2.8c-11.2-8.3-21.2-18.4-29.4-30
									c-8.2-11.6-14.6-24-18.9-37.5c-8.7-26.6-10.7-54.8-6.1-82.5c4.6-28.2,16.1-54.5,33.7-76.8c9.2-11.4,20.2-21.5,32.2-29.5
									c12.5-8.3,26.1-14.2,40.4-18.1h0.5c14.6-3.9,29.4,4.9,33.2,19.6c3.8,14.7-4.9,29.7-19.4,33.6
									C222.7,1558.3,222.2,1558.3,221.7,1558.5z"/>
								<path class="st0" d="M537.1,1505c27.9,8.5,52.9,25.1,71.6,47.8c37.6,43.9,48.1,104.9,27.9,159.2
									c-9.5,26.4-25.8,49.6-47.3,67.2c-7.9,6.7-19.7,5.7-26.3-2.3c-6.6-8-5.6-19.9,2.3-26.6l0.3-0.3c15.1-14,26.1-31.8,31.7-51.7
									c5.9-19.6,6.6-40.3,2.3-60.2c-4.6-19.4-14.3-37.2-28.1-51.7c-13-14-29.7-23.8-48.1-28.4c-14.6-3.4-24-18.1-20.7-32.8
									c3.3-14.7,17.9-24.3,32.5-20.9c0.5,0,1,0.3,1.8,0.5L537.1,1505z"/>
								<path class="st0" d="M574.7,1300.3c-2.6,12.4-8.7,23.5-17.9,32.3c-14.3,14-35.5,23-58.5,27.9c-23.5,5.4-49.1,13.7-75.4,19.4
									c-18.7,4.4-37.6,6.7-56.8,7c-13.5,0-27.1-1.3-40.4-3.6c-32-5.7-63.4-16-91.8-22.7c-23.3-4.9-45-14.2-59.6-28.9
									c-8.4-8.5-14.3-19.1-16.9-31c-1.5-8-1.5-16.3-0.3-24.6c1-7.2,2.8-14.5,5.1-21.5c19.7-59.2,80.8-84.8,143.4-94.3
									c19.9-3.1,40.1-4.7,60.3-4.9c22.2,0.3,44.5,2.1,66.7,5.7c61.4,10.3,119.9,37.2,138,96.4c1.8,5.9,3.1,11.9,4.1,18.1
									C576.5,1283.8,576.2,1292,574.7,1300.3z"/>
								<path class="st5" d="M432.3,1161v-1c0-12.7-5.1-25.1-14.3-33.9l-0.5-0.5c-27.4-26.1-70-26.1-97.4,0l-0.5,0.5
									c-8.9,8.8-14.1,21.2-14.1,33.9l26.8,45c12.3,20.7,38.9,27.1,59.1,14.7c5.9-3.6,11-8.5,14.6-14.7L432.3,1161z"/>
								<path class="st6" d="M472.7,1248.6c21.7-7,41.9-4.4,45.2,5.7c3.3,10.1-11.8,24-33.5,31c-21.7,7-59.8,10.3-63.1,0
									C418,1275,451,1255.6,472.7,1248.6z"/>
								<path class="st7" d="M463.7,1256.9c8.9-2.3,16.9-0.8,18.2,3.4s-5.4,9.3-14.3,11.6c-8.9,2.3-24.3,2.8-25.3-1.3
									C441.2,1266.4,454.8,1259.2,463.7,1256.9z"/>
								<path class="st6" d="M266.4,1248.6c-21.7-7-41.9-4.4-45.2,5.7c-3.3,10.1,11.8,24,33.7,31c22,7,59.8,10.3,63.1,0
									C321.3,1275,288.1,1255.6,266.4,1248.6z"/>
								<path class="st7" d="M275.3,1256.9c-8.9-2.3-16.9-0.8-18.2,3.4c-1.3,4.1,5.4,9.3,14.3,11.6c8.9,2.3,24.3,2.8,25.3-1.3
									C297.8,1266.4,284.3,1259.2,275.3,1256.9z"/>
								<path class="st8" d="M407.8,1317.9c-5.1,3.9-10.7,7-16.9,8.8c-6.1,2.1-12.5,3.1-18.9,3.1c-6.4,0-12.8-1-19.2-3.1
									c-6.1-2.1-11.8-4.9-16.9-8.8c6.1,1.6,12,3.1,18.2,4.1c5.9,1,12,1.6,17.9,1.6c5.9,0,12-0.5,17.9-1.6
									S401.6,1319.4,407.8,1317.9z"/>
								<path class="st5" d="M594.1,1318.9c-5.9,4.7-12.8,8-19.9,9.8c-1.5,0.5-3.3,1-4.9,1.3c-4.1,1-8.4,1.8-12.5,2.1
									c-11.5,1-23.3-0.8-32.7-9c-4.6-4.1-8.7-12.1-5.6-17.8c1.8-3.4,5.4-4.1,8.2-5.7c8.9-3.9,15.8-12.1,22.5-20.4
									c4.3-5.4,8.7-10.6,13.8-15.5c2.6-2.3,5.1-4.7,7.9-6.7c10-7,21-9.8,30.4,0.8C616.9,1276,609.5,1306.8,594.1,1318.9z"/>
								<path class="st5" d="M215,1323.3c-11.5,10.1-26.3,10.6-40.4,7.8c-1.8-0.3-3.3-0.8-4.9-1c-4.1-1-7.9-2.3-11.8-3.9
									c-4.6-1.8-8.9-4.4-13-7.5c-15.3-12.4-22.8-42.9-7.2-60.7c7.7-8.8,16.6-8.3,24.8-4.1c3.3,1.8,6.4,3.6,8.9,6.2
									c6.6,5.7,12.8,12.1,17.9,19.4c6.6,8.3,13.5,16.5,22.5,20.4c3.1,1.3,6.4,2.3,8.2,5.7C223.7,1311.4,219.6,1319.4,215,1323.3z"
									/>
								<path class="st4" d="M547.3,1530.6c0,30.7-14.9,55.6-33.2,55.6c-18.4,0-33.2-24.9-33.2-55.6c0-30.7,14.9-55.6,33.2-55.6
									C532.5,1475,547.3,1499.9,547.3,1530.6z"/>
								<path class="st4" d="M266.4,1530.6c0,30.7-14.9,55.6-33.2,55.6c-18.4,0-33.2-24.9-33.2-55.6c0-30.7,14.9-55.6,33.2-55.6
									C251.5,1475,266.4,1499.9,266.4,1530.6z"/>
								<path class="st4" d="M710.9,1935.1c12,30,7.7,60-9.5,66.9c-17.1,7-40.6-11.9-52.7-41.9c-12-30-23-87.6-4.6-88.1
									C666.2,1871,698.9,1904.9,710.9,1935.1z"/>
								<path class="st4" d="M30.9,1935.1c-11.8,30-7.7,60,9.5,66.9c17.1,7,40.6-11.6,52.7-41.9c12-30.2,23-87.6,4.6-88.1
									C75.7,1871,43,1904.9,30.9,1935.1z"/>
								<path class="st2" d="M676.2,1909.8c-17.4-27.7-45.2-47.6-67.5-71.9c-35.5-38.5-57-88.1-68.8-138.5
									c-12-50.7-19.7-102.4-23-154.6H226.5c-3.3,52-11,103.9-23,154.6c-12,50.7-33.2,100-68.8,138.5
									c-22.5,24.3-50.1,44.2-67.7,71.9c-21.2,33.9-24.5,76-9.2,112.7c15.3,36.2,49.1,64.4,88.2,73.7c31.2,7.2,63.7-16,95.6-15.2
									c19.9,0.5,41.4,10.6,62.1,25.6c40.6,29.2,94.8,29.2,135.5,0c20.7-15,42.2-25.1,62.1-25.6c32-0.8,64.4,22.7,95.6,15.2
									c39.1-9,72.9-37.5,88.2-73.7C700.7,1985.8,697.1,1943.6,676.2,1909.8z"/>
								<path class="st9" d="M521.8,1517.7c0-49.9-43.5-78.6-97.1-78.6h-18.9c-24-4.7-48.6-4.7-72.6,0h-13.3
									c-53.7,0-97.1,28.7-97.1,78.6v17.3c0,0.3,0,0.8,0,1c0,0.3,0,1,0,1.6c0,0.5,0,0.8,0,1.3c1.5,35.7,21,78.8,47.5,120.7
									c4.9,9,10.7,17.3,17.6,24.8c84.4,91,151.1,18.6,163.9,3.1c29.9-31.3,59.3-87.4,67.5-133.1c1.5-6.2,2.3-12.7,2.3-19.1v-17.6
									H521.8z"/>
								<path class="st4" d="M334.1,1629.1c-1-25.3,14.6-46.5,35-47.6c20.5-1,37.8,18.9,38.9,43.9c1,25.1-13.8,67.2-34.3,68
									S335.2,1654.4,334.1,1629.1z"/>
								<path class="st4" d="M468.1,1468.6c0,29.3-42.9,53-95.9,53s-95.9-23.7-95.9-53c0-29.3,42.9-53,95.9-53
									S468.1,1439.3,468.1,1468.6z"/>
								<path class="st10" d="M437.4,1453.1c0,12.1-28.6,22-63.9,22s-63.9-9.8-63.9-22s28.6-22,63.9-22S437.4,1440.9,437.4,1453.1z"
									/>
								<path class="st0" d="M466.6,1356.1c-15.9,5.4-30.4,14-43.5,24.6c-1,0.8-2,1.8-3.1,2.6c-7.2,7.5-12.3,17.1-14.6,27.1
									c-0.8,3.6-1.3,7-1.5,10.6c-0.3,4.4,0,9,0.5,13.4c0.3,1.6,0.5,3.4,0.8,4.9c2,8.8,5.4,17.3,10.2,25.1h-85.6
									c4.9-8.3,8.4-17.3,10.5-26.6c0.3-1.3,0.5-2.3,0.5-3.4c0.8-4.4,0.8-9,0.5-13.4c-0.3-2.8-0.5-5.9-1-8.8
									c-2-10.6-7.2-20.4-14.6-28.4c-0.3-0.3-0.3-0.3-0.5-0.5c-13.3-12.1-28.6-20.4-46.5-27.1H466.6z"/>
								<g>
									<defs>
										<ellipse id="SVGID_1_" cx="373.5" cy="1453.1" rx="63.9" ry="22"/>
									</defs>
									<clipPath id="SVGID_00000018235684783849142170000000765804020957823382_">
										<use xlink:href="#SVGID_1_"  style="overflow:visible;"/>
									</clipPath>
									<g style="clip-path:url(#SVGID_00000018235684783849142170000000765804020957823382_);">
										<path class="st0" d="M309.8,1459.5c0,0,66.2-25.8,127.8,0v28.4H309.8V1459.5z"/>
									</g>
								</g>
								<path class="st4" d="M404.4,1998.9c0,32.3-15.1,58.4-33.5,58.4s-33.5-26.1-33.5-58.4c0-32.3,15.1-85,33.5-85
									S404.4,1966.6,404.4,1998.9z"/>
								<path class="st4" d="M193.3,1977.2c-11.2,30.2-34.5,49.4-51.6,42.9c-17.1-6.5-22.2-36.4-10.7-66.7
									c11.5-30.2,43.7-74.2,61.1-67.5C209.4,1892.7,204.8,1947,193.3,1977.2z"/>
								<path class="st4" d="M548.6,1977.2c11.2,30.2,34.5,49.4,51.6,42.9c17.1-6.5,22-36.4,10.7-66.7
									c-11.2-30.2-43.7-74.2-61.1-67.5C532.5,1892.7,537.4,1947,548.6,1977.2z"/>
								<path class="st0" d="M558.3,1763.7c-5.1,15.5,2.8,34.1,13,48.6c10.2,14.5,22,25.3,37.1,27.4c10.2,1.6,22-1.3,25.3-11.6
									c2-5.9,1-13.2-0.8-19.6c-5.4-19.9-19.4-49.4-35.5-62C582.4,1734.3,563.4,1748.2,558.3,1763.7z"/>
								<path class="st0" d="M567.3,1749.8c-10.7,9-18.4,21.5-22.2,34.9c-3.3,14-0.8,30.5,8.7,41.9c2.3,2.6,5.6,5.2,8.4,3.9
									c2.8-1.3,3.1-6.5,3.1-10.3c-0.3-12.7,5.9-24.8,16.1-31.8L567.3,1749.8z"/>
								<path class="st5" d="M588.5,1788.3c-4.9-11.4-0.5-24.3,9.7-28.7c10.2-4.4,22.5,1,27.4,12.4c4.9,11.4,4.3,33.3-5.9,38
									C609.5,1814.6,593.3,1799.7,588.5,1788.3z"/>
								<path class="st0" d="M187.1,1763.7c5.1,15.5-2.8,34.1-13.3,48.6c-10.5,14.5-22,25.3-37.1,27.7c-10.2,1.6-22-1.3-25.6-11.6
									c-2-5.9-0.8-13.2,0.8-19.6c5.4-19.9,19.4-49.4,35.5-62C163.1,1734.3,181.8,1748.2,187.1,1763.7z"/>
								<path class="st0" d="M178.2,1749.8c10.7,9,18.4,21.5,22,34.9c3.3,14,0.8,30.5-8.7,41.9c-2.3,2.6-5.6,5.2-8.4,3.9
									c-2.8-1.3-3.1-6.5-3.1-10.3c0.3-12.7-5.9-24.8-16.1-31.8L178.2,1749.8z"/>
								<path class="st5" d="M156.7,1788.3c4.9-11.4,0.5-24.3-9.7-28.7c-10.2-4.4-22.5,1-27.4,12.4c-4.9,11.4-4.3,33.3,5.9,38
									C135.8,1814.6,152.1,1799.7,156.7,1788.3z"/>
							</g>
						</g>
					</g>
				</g>
			</g>
		</g>
	</g>
</g>
</svg>
