<?xml version="1.0" encoding="utf-8"?>
<!-- Generator: Adobe Illustrator 25.2.0, SVG Export Plug-In . SVG Version: 6.00 Build 0)  -->
<svg version="1.1" id="Layer_1" xmlns="http://www.w3.org/2000/svg" xmlns:xlink="http://www.w3.org/1999/xlink" x="0px" y="0px"
	 viewBox="0 0 302 542" style="enable-background:new 0 0 302 542;" xml:space="preserve">
<style type="text/css">
	.st0{fill:#BCFC30;}
	.st1{fill:#E1FF8F;}
	.st2{fill:#060B47;}
	.st3{fill:#2DB6E0;}
	.st4{fill:#FF4280;}
	.st5{fill:#E82169;}
	.st6{fill:#43DCFF;}
	.st7{fill:none;stroke:#060B47;stroke-width:4.13;stroke-linecap:round;stroke-miterlimit:10;}
	.st8{fill:#841263;}
	.st9{fill:none;stroke:#60024E;stroke-width:3;stroke-linecap:round;stroke-miterlimit:10;}
	.st10{fill:#FDFFFD;}
	.st11{clip-path:url(#SVGID_2_);}
	.st12{fill:#94B700;}
	.st13{fill:#140B2D;}
	.st14{fill:#F2D3DF;}
	.st15{fill:none;stroke:#FF4DA2;stroke-width:3;stroke-linecap:round;stroke-miterlimit:10;}
	.st16{fill:none;stroke:#060B47;stroke-width:4.14;stroke-linecap:round;stroke-miterlimit:10;}
</style>
<g id="rockets">
	<path class="st0" d="M244.4,248.5c-9.8,6.5-16.1,16.9-17.4,28.5c-1.9,17.4,2.2,27.7,2.2,27.7l8.8-15c0,0,3,26.3,9,43.4l12.2-28.5
		l5.2,13.8c0,0,7.5-15.3,7.5-38.3C271.9,260.5,263.5,243.7,244.4,248.5z"/>
	<path class="st1" d="M248.6,311.4c-2.4-11.8-3.6-22.4-3.6-22.5l-2.4-21l-9.1,15.5c0.1-1.8,0.2-3.6,0.4-5.6
		c1-9.1,5.8-17.4,13.2-22.8c1.1-0.2,2.3-0.4,3.5-0.4c2.8,0,6.8,0.6,10.1,6.3c2.7,4.6,4.1,11.4,4.1,19.1c0,5.5-0.5,10.9-1.4,16.3
		l-4-10.5L248.6,311.4z"/>
	<path class="st2" d="M223.2,248.5c0,0-4.7,5.8-19.4,5.8s-19.4-5.8-19.4-5.8l5.9-18.1h27L223.2,248.5z"/>
	<path class="st3" d="M223.5,236.6c0,0-8.7,6.8-19.8,6.8s-19.8-6.8-19.8-6.8s-13.7-87.3-8.6-115.8c2.3-13,18.6-38.6,28.3-38.6
		s26,25.6,28.4,38.6C237.2,149.2,223.5,236.6,223.5,236.6z"/>
	<path class="st2" d="M269.9,254.5c0,0-4.7,5.8-19.4,5.8s-19.4-5.8-19.4-5.8l5.9-18.1h27L269.9,254.5z"/>
	<path class="st3" d="M270.3,242.6c0,0-8.7,6.8-19.7,6.8s-19.8-6.8-19.8-6.8s-13.7-87.3-8.6-115.8c2.4-13,18.6-38.6,28.4-38.6
		s26,25.6,28.3,38.6C284,155.3,270.3,242.6,270.3,242.6z"/>
</g>
<g id="l-hand">
	<path class="st4" d="M7.7,192.4L7.7,192.4c-1-2.5-0.6-6.5,3.7-9.1c4.6-2.8,10.9-4.2,14.4-4.8c1.5-0.3,2.5-0.4,2.5-0.4
		c10.1,1.1,5.6,9.8,5.6,9.8s-11.6,0.8-14.8,1.2s-6.3,5.4-9,5.4C9.1,194.6,8.2,193.7,7.7,192.4z"/>
	<path class="st5" d="M7.7,192.4L7.7,192.4c-1-2.5-0.6-6.5,3.7-9.1c4.6-2.8,10.9-4.2,14.4-4.8c0.5,0.3,1,0.7,1.3,1.3
		c0,0-10.7,1.7-13.4,6.1C12.1,188.5,10.1,190.6,7.7,192.4z"/>
	<path class="st4" d="M57.9,172.1l-22.8-9.7c0,0-10.8,6.9-11,26.2c10.7-0.5,18.4,4.5,26.5,2.5C55.7,189.8,72.1,180.3,57.9,172.1z"/>
	<path class="st4" d="M7.8,183.6c-1.2-0.3-2.1-2.1-1.9-4.3c0.2-2.4,1.8-5.1,5.7-6.4c4.8-1.6,11-1.6,14.5-1.5c1.9,0.1,3,0.2,3,0.2
		c9.7,3.3,3.8,12.4,3.8,12.4s-9.9-2.3-13.1-2.5S10.5,184.2,7.8,183.6z"/>
	<path class="st5" d="M6.3,179.9L6,179.3c0.2-2.4,1.8-5.1,5.7-6.4c4.8-1.6,11-1.6,14.6-1.5l1.7,2.4c0,0-11.3,1.1-14.5,2.5
		S6.3,179.9,6.3,179.9z"/>
	<path class="st4" d="M33.2,163.7c0,0-10.1-2.4-17.6-0.9s-7.7,9.1-5.1,10.1s9.1-1.1,12.2-0.5s12.7,4.1,12.7,4.1
		S42.4,168.1,33.2,163.7z"/>
	<polygon class="st5" points="27.2,162.7 37.5,177.4 40.9,163.8 	"/>
	<path class="st4" d="M55.2,172.5c0,0-2.7-7.1-13-14s-13.3-9-16.2-6.2s0,7.9,4.7,11.7s0.5,11.2,9,16.8S59.2,179.7,55.2,172.5z"/>
</g>
<path id="l-arm" class="st6" d="M112.1,196.6c0,0,1.3,11,12.3,13.6s17.1-6.6,17.1-6.6s12.4-25.4,15.3-37.9s5.1-23.1,4.8-30.9
	c-0.2-5.5-1.4-14.3-15.1-17.6s-18.8,4.1-21.4,8.9c-3.8,6.8-6.6,17.2-9.6,29.7S112.1,196.6,112.1,196.6z"/>
<g id="l-forearm">
	<path class="st6" d="M52.4,192.4c0,0-5-4.1-3.2-11.9c2.1-9.7,7.6-12.3,7.6-12.3s18,1.1,31.3,2.7s28.5,7.5,28.5,7.5
		c5.8,3.2,10.1,8.6,11.8,15c3.4,12.6,0.9,17.3,0.9,17.3c-10.8,1.4-21.8,1-32.5-1.1C79.4,206.1,52.4,192.4,52.4,192.4z"/>
	<path class="st7" d="M50.3,192.8c0,0-5.8-10.7,4.8-25.8"/>
</g>
<path id="hips" class="st8" d="M251.4,309.9c-11.5,32.3-39.3,10.8-58.3,5.8c-13.1-3.4-24.1-6.9-32.2-9.7
	c-10.1-3.5-16.7-13-16.6-23.6l0.7-42.4l106.4,29.9C251.4,269.8,256.6,295.1,251.4,309.9z"/>
<g id="l-thigh">
	<path class="st8" d="M185,392.6c0,0-3.8,10.4-17.9,10.4s-17.9-10.4-17.9-10.4S133.2,327,146,273.8c2.5-10.2,13.7-15.8,26.8-12.1
		c16.1,4.6,22.2,36.1,22.2,36.1L185,392.6z"/>
	<path class="st9" d="M157.9,263.8c-8.7,31.1-8.4,90-0.1,129.9"/>
</g>
<g id="l-calf">
	<path class="st2" d="M191.5,483.2c4,5.4,4.9,19.6,5,28c0.1,3.6-2.6,6.8-6.2,7.3c-8.7,1.2-17.2,3.1-25.6,5.7
		c-5.4,1.6-13.9,4.4-19,4.7c-7.8,0.4-15.6-0.5-23.1-2.9c-0.6-3.4-0.6-6.9,0-10.3c1-5.6,11.7-5.3,21.6-9.6s15.8-15.1,15.8-15.1
		C167,484.5,182.5,471,191.5,483.2z"/>
	<path class="st6" d="M196.6,512.8c0,2.2-2.2,4.4-4.1,5.4c-3.4,1.7-10.1,3.4-23.3,6.8c-10.2,2.7-15.3,5.5-21.6,6
		c-17.1,1.3-24.8-4.8-24.8-4.8c-0.5-1.9-0.6-3.8-0.4-5.8c0.1,0.7,0.5,1.4,1.1,1.8c0,0,7.1,6,24.4,4.4c6.1-0.6,10.8-3.5,20.6-6
		c6.7-1.8,11.3-2.8,14.5-3.5c8-1.7,10.4-2.3,12.4-4.3c0.7-0.8,1.2-1.8,1.4-2.8C196.5,510.5,196.6,512.2,196.6,512.8z"/>
	<path class="st8" d="M196.4,492.2l-37.5-5.7l-10.1-96.1c0,0,32.8-7.5,35.4,1C198.7,438.7,196.4,492.2,196.4,492.2z"/>
	<path class="st9" d="M157.7,395.3c0,0,5.2,67.9,8.5,96.1"/>
	
		<ellipse transform="matrix(0.9931 -0.1172 0.1172 0.9931 -45.0532 21.0018)" class="st6" cx="156.1" cy="393.6" rx="11.8" ry="16.9"/>
	<path class="st6" d="M198.4,491.8c0,1.3-0.9,2.5-2.2,3c-12.5,4-26,3.6-38.3-1.1c-1.2-0.5-2-1.7-2-3.1l0.2-6.6c0-1.1,0.9-1.9,2-1.9
		c0.2,0,0.4,0.1,0.7,0.1c12,4.4,25.1,4.8,37.3,1.1c1-0.3,2.1,0.2,2.4,1.2c0.1,0.2,0.1,0.4,0.1,0.7L198.4,491.8z"/>
</g>
<g id="r-thigh">
	<path class="st8" d="M241.7,397.3c0,0-3.8,10.4-17.9,10.4s-18-10.4-18-10.4s-15.9-65.6-3.2-118.8c2.5-10.2,13.7-15.8,26.8-12.1
		c16.1,4.6,25.3,24.7,23.6,36.7C248.4,334.6,241.7,397.3,241.7,397.3z"/>
	<path class="st9" d="M214.6,268.5c-8.7,31.1-8.3,90-0.1,129.9"/>
</g>
<g id="r-calf">
	<path class="st2" d="M248.2,488.9c4,5.4,4.7,15.5,4.9,23.9c0.1,3.7,1.5,6.3-6,11.4c-4.9,3.3-13,11.1-24.4,11.9
		c-18.5,1.3-29.5-3.2-29.5-3.2c-1.1-3.7-1.4-7.6-0.8-11.5c1-5.6,7.3-1.9,14.9-9.5c8.8-8.8,11.4-22.9,11.4-22.9
		C225.6,482.5,239.2,476.6,248.2,488.9z"/>
	<path class="st6" d="M247,524.2c-4.9,3.3-13,11.1-24.4,11.9c-18.5,1.3-29.5-3.2-29.5-3.2c-0.4-1.4-0.7-2.9-0.9-4.4
		c9.9,2.7,20.3,3.7,30.5,2.9c11.4-0.8,19.2-8.4,24.1-11.7c4.4-3,5.8-5.4,6.2-7.6c0,0.2,0,0.5,0,0.7
		C253.1,516.5,254.6,519.2,247,524.2z"/>
	<path class="st8" d="M253.1,496.9l-37.5-5.7l-10.1-96.1c0,0,32.9-7.5,35.4,1C255.4,443.5,253.1,496.9,253.1,496.9z"/>
	<path class="st9" d="M214.4,400c0,0,5.2,67.9,8.5,96.2"/>
	
		<ellipse transform="matrix(0.9931 -0.1172 0.1172 0.9931 -45.2213 27.6755)" class="st6" cx="212.7" cy="398.4" rx="11.8" ry="16.9"/>
	<path class="st6" d="M255.1,496.6c0,1.3-0.9,2.5-2.1,2.9c-12.5,4-26,3.6-38.3-1.1c-1.2-0.5-2-1.7-2-3.1l0.2-6.6
		c0-1.1,0.9-1.9,2-1.9c0.2,0,0.4,0.1,0.7,0.1c12,4.4,25.1,4.8,37.3,1.1c1-0.3,2.1,0.2,2.4,1.2c0.1,0.2,0.1,0.4,0.1,0.6L255.1,496.6z
		"/>
</g>
<g id="torso">
	<path class="st4" d="M237.6,110.6c0,0-16.4-12.1-33.3-11.8s-50.8,6.8-57.7,10.5s-18.8,69,21,72.7s74.6-4.6,78.2-32.2
		S237.6,110.6,237.6,110.6z"/>
	<path class="st6" d="M213.9,185.6l-78.4-15.7l2-40.9c0,0,25.5,15.5,78.4,15.7C226.2,144.8,213.9,185.6,213.9,185.6z"/>
	<path class="st2" d="M233.7,105l41.3,12.4c0,0-13,58.3-52.6,64.6l-22.2-12.1C200.2,169.9,236.8,139,233.7,105z"/>
	<path class="st8" d="M270.5,184.7c-1,4.6-2,8.8-3,12.8c-6.4,26.5-10.7,39.7-17,56.3c-6.6,17.6-37,20.1-50.6,19.2
		c-13.4-0.9-47,0.3-54-18.7c-6.6-17.7-9.6-40.3-14.3-66.3l0,0c-0.7-3.9-1.4-8.1-2.1-12.7c-3-19.5-1.7-37.4,5-51.5
		c2.6-5.6,6.3-10.7,10.8-15c9.5,21-0.5,36.2,22.4,62.7c0,0,53.2-29,74.9-58.7c5.6,2.3,22.3,15.5,24,19.2
		C273.8,147.3,274.9,165.7,270.5,184.7z"/>
	<path class="st9" d="M142.9,115.3c-17.3,39.3,2.8,113.5,15,148.5"/>
	<path class="st9" d="M231,127.1c-27.7,34.5-31.1,107.1-31.1,143.4"/>
	
		<ellipse transform="matrix(0.2209 -0.9753 0.9753 0.2209 44.9592 372.1722)" class="st6" cx="255.4" cy="157.9" rx="33.2" ry="23.9"/>
	<path class="st2" d="M158.9,103.2c-13.6,3.2-33.9,9.5-33.9,9.5s-3.9,19.8,5.1,38.7c10.7,22.4,25.9,35.1,37.5,40.1V166
		C167.6,166,141,138.2,158.9,103.2z"/>
	<path class="st6" d="M251.4,269.8c0,0-10.4,10.7-53.2,8.6c-43-2.2-53.9-14-53.9-14l-1.4-17.9c0,0,11.9,11.8,54.7,13.9
		c43,2.2,53.9-8.6,53.9-8.6V269.8z"/>
</g>
<g id="r-hand">
	<path class="st4" d="M259.9,310c4.4,0.9,9.7-14.2,9.7-14.2l4.9,9.3c0,0-12.4,22.1,2.2,17.7c0.7,0.2,1.5,0.3,2.2,0.2
		c3.1-0.2,6.1-2.6,8.1-5.4c1.1-0.8,2.2-1.7,3.2-2.7c4.7-4.8,5.8-10.4,6-16c0.3-6.6-5.8-16.7-8.9-21.3l-0.5-0.8
		c-0.7-1-1.1-1.6-1.1-1.6l-19.5-5.7c0,0-0.4,2.5-1.1,6.1c-0.1,0.6-0.2,1.1-0.3,1.8c-1.3,6.6-3.1,15.4-4.7,19.4
		C257.2,303.4,255.5,309.1,259.9,310z"/>
	<path class="st5" d="M276.6,322.8c0.7,0.2,1.5,0.3,2.2,0.2c3.3-4.5,4.9-10.1,4.5-15.6C283.4,307.4,281.1,318.2,276.6,322.8z"/>
	<path class="st5" d="M286.9,317.6c1.1-0.8,2.2-1.7,3.2-2.7c1.1-3.6,2.1-8.6,0.5-11.5C290.3,308.4,289,313.2,286.9,317.6z"/>
</g>
<g id="head">
	<path class="st5" d="M152.6,21.8c0,0-4.8,7.4,0.4,12.8s13.1,1.9,13.1,1.9c0.1,0.6,0.3,1.2,0.5,1.8c0.6,1.5,1.9,2.6,3.5,2.8
		c6.8,1,10.2-15.3,10.2-15.3L154.8,6.2C154.8,6.2,149,15.9,152.6,21.8z"/>
	<path class="st4" d="M173.7,30.5c-2.4,2.2-4.9,4.2-7.5,6l0.5,1.8c0.6,1.5,1.9,2.6,3.5,2.8c6.8,1,10.2-15.3,10.2-15.3L154.8,6.2
		C156.2,17.3,177.6,27,173.7,30.5z"/>
	<path class="st4" d="M221.7,36.1c0,0-3.2,7.7-3.5,13.1c-1.4,23.9,15.4,55.8,15.4,55.8s-17.1,25.2-44.2,25.2s-30.1-20.9-30.1-20.9
		c-1.9-10.5-12.1-28.7-3.5-56.1c2.6-8.4,3.1-22.3,3.1-22.3c0-15.2,31.8-25.9,46.9-25.9S224.8,20,221.7,36.1z"/>
	<path class="st5" d="M174.2,52.6c-11.8-1.9-10.6-11.5-10.4-19.6c-0.5-1.4-1.3-2.7-2.2-3.9c0,0,8.4-2.1,13.6-0.8
		s17.8,10.2,17.8,10.2S185.3,54.4,174.2,52.6z"/>
	<path class="st5" d="M237.9,37.8c0,0,3.8,8-2.2,12.6s-13.3,0-13.3,0c-0.2,0.6-0.4,1.2-0.8,1.7c-0.8,1.4-2.3,2.3-3.9,2.3
		c-6.8,0-8-16.6-8-16.6l28.1-15.7C237.9,22.1,242.3,32.5,237.9,37.8z"/>
	<path class="st4" d="M215.8,43.5c2.1,2.5,4.3,4.8,6.6,7l-0.8,1.7c-0.8,1.4-2.3,2.3-3.9,2.3c-6.8,0-8-16.6-8-16.6l28.1-15.7
		C235,32.8,212.5,39.5,215.8,43.5z"/>
	<path class="st5" d="M166.5,21c3.8-1.2,7.9-1.6,11.9-1c4.3,0.6,8.4,2.3,11.9,4.9c0,0-1.4-7.5-6.4-8C176.1,16.1,166.5,21,166.5,21z"
		/>
	<path class="st10" d="M189,42.1c-1.3,4.2-7.3,9.7-14.2,9.3c-6-0.2-10.7-5.2-10.5-11.2c0-6.4,3.6-8.8,10.5-8.4S189,35,189,42.1z"/>
	<g>
		<defs>
			<path id="SVGID_1_" d="M189,42.1c-1.3,4.2-7.3,9.7-14.2,9.3c-6-0.2-10.7-5.2-10.5-11.2c0-6.4,3.6-8.8,10.5-8.4S189,35,189,42.1z"
				/>
		</defs>
		<clipPath id="SVGID_2_">
			<use xlink:href="#SVGID_1_"  style="overflow:visible;"/>
		</clipPath>
		<g class="st11">
			
				<ellipse transform="matrix(0.9922 -0.1246 0.1246 0.9922 -3.4093 22.0936)" class="st12" cx="174.9" cy="38.3" rx="8.4" ry="10.4"/>
			<ellipse transform="matrix(0.1075 -0.9942 0.9942 0.1075 117.98 208.0456)" class="st13" cx="174.9" cy="38.3" rx="3.2" ry="5"/>
		</g>
	</g>
	<path class="st14" d="M185.9,73.3l-2.9-0.8c-1-0.3-1.5-1.3-1.2-2.3l2.1-7.1c0.3-1,1.3-1.5,2.3-1.2l2.9,0.8c1,0.3,1.5,1.3,1.2,2.3
		l-2.1,7.1C187.9,73.1,186.9,73.6,185.9,73.3z"/>
	<path class="st5" d="M201.1,85.4c-3.2,13.4-9.4,22-18.1,23.9c-13.9,3-29.1-3.2-36.3-14.5c-6.1-9.2-9.2-20-8.9-31
		c0.2-10.7,10.7-11.3,23.8-7.6c23,6.4,24.3,25,42.5,9C205.5,71.9,203.4,75.7,201.1,85.4z"/>
	<path class="st15" d="M138.2,60.3c2.3-7.3,11.8-7.3,23.3-4.1c23,6.4,24.3,25,42.5,9"/>
</g>
<path id="r-arm" class="st6" d="M289.4,207.3c0,0-1.3,11-12.3,13.6s-17.1-6.6-17.1-6.6s-12.4-25.5-15.3-38s-5.1-23.1-4.8-30.9
	c0.2-5.5,1.4-14.3,15.1-17.6s18.8,4.1,21.4,8.9c3.8,6.8,6.6,17.3,9.6,29.8S289.4,207.3,289.4,207.3z"/>
<g id="r-foream">
	<path class="st6" d="M287.6,274.1c0,0-3,5.7-10.9,5.7c-9.9,0-13.7-4.8-13.7-4.8s-2.8-17.9-4.1-31.2s1.2-29.5,1.2-29.5
		c1.8-6.4,6.2-11.8,12.1-14.8c11.6-6,16.7-4.6,16.7-4.6c3.7,10.3,5.7,21.1,5.9,32C295.1,244.7,287.6,274.1,287.6,274.1z"/>
	<path class="st16" d="M288.4,276c0,0-9.2,8-26.3,0.9"/>
</g>
<path id="collar" class="st2" d="M234.8,103.2c13,5.1,28,9.1,40.3,14.2c-0.5,2.7-2.8,9.7-2.8,9.7s-13,0-30.3,11.6
	c-17.6,11.8-40.2,37.2-74.3,52.9V166C167.6,166,204.3,124.2,234.8,103.2z"/>
</svg>
