<?xml version="1.0" encoding="utf-8"?>
<!-- Generator: Adobe Illustrator 25.2.0, SVG Export Plug-In . SVG Version: 6.00 Build 0)  -->
<svg version="1.1" id="Layer_1" xmlns="http://www.w3.org/2000/svg" xmlns:xlink="http://www.w3.org/1999/xlink" x="0px" y="0px"
	 viewBox="0 0 262 571.4" style="enable-background:new 0 0 262 571.4;" xml:space="preserve">
<style type="text/css">
	.st0{fill:#FF4280;}
	.st1{fill:#E82169;}
	.st2{fill:#43DCFF;}
	.st3{fill:none;stroke:#060B47;stroke-width:4.13;stroke-linecap:round;stroke-miterlimit:10;}
	.st4{fill:#BCFC30;}
	.st5{fill:#E1FF8F;}
	.st6{fill:#060B47;}
	.st7{fill:#2DB6E0;}
	.st8{fill:#841263;}
	.st9{fill:none;stroke:#60024E;stroke-width:3;stroke-linecap:round;stroke-miterlimit:10;}
	.st10{fill:#FDFFFD;}
	.st11{clip-path:url(#SVGID_2_);}
	.st12{fill:#94B700;}
	.st13{fill:#140B2D;}
	.st14{fill:#F2D3DF;}
	.st15{fill:none;stroke:#FF4DA2;stroke-width:3;stroke-linecap:round;stroke-miterlimit:10;}
	.st16{fill:none;stroke:#060B47;stroke-width:4.14;stroke-linecap:round;stroke-miterlimit:10;}
</style>
<g id="l-hand">
	<path class="st0" d="M9.1,18.7L9.1,18.7c1.7-2.1,5.3-3.7,9.7-1.2c4.6,2.6,9,7.5,11.2,10.1c1,1.2,1.6,2,1.6,2c4,9.3-5.8,9.7-5.8,9.7
		s-6.4-9.8-8.3-12.3s-7.8-2.8-9.1-5.2C7.9,21,8.2,19.8,9.1,18.7z"/>
	<path class="st1" d="M9.1,18.7L9.1,18.7c1.7-2.1,5.3-3.7,9.7-1.2c4.6,2.6,9,7.5,11.2,10.1c0,0.6-0.2,1.2-0.5,1.7
		c0,0-6.8-8.4-12-8.7C14.6,20.6,11.7,19.9,9.1,18.7z"/>
	<path class="st0" d="M51.5,52.3l-2.8-24.6c0,0-11.3-6-28.2,3.3c5.7,9.1,5.2,18.2,10.9,24.3C35,59.1,51.3,68.8,51.5,52.3z"/>
	<path class="st0" d="M16.7,14.4c-0.3-1.2,0.8-2.9,2.8-3.7c2.2-1,5.4-0.9,8.4,1.8c3.7,3.4,6.8,8.7,8.5,11.9c0.8,1.6,1.3,2.7,1.3,2.7
		c1.9,10-9,9.4-9,9.4s-2.9-9.8-4.3-12.6S17.5,17.1,16.7,14.4z"/>
	<path class="st1" d="M19.2,11.3l0.3-0.6c2.2-1,5.4-0.9,8.4,1.8c3.7,3.4,6.8,8.7,8.5,11.9l-1.3,2.7c0,0-6.5-9.3-9.3-11.4
		S19.2,11.3,19.2,11.3z"/>
	<path class="st0" d="M46.6,26.7c0,0-2.9-9.9-7.9-15.7S27,8.8,27.4,11.5s5.4,7.4,6.4,10.4s2.7,13.1,2.7,13.1S47.2,36.9,46.6,26.7z"
		/>
	<polygon class="st1" points="44.5,21 36.7,37.2 50.3,33.5 	"/>
	<path class="st0" d="M49.8,50.2c0,0,4.9-5.8,5.7-18.2s1.2-16-2.5-17.1s-6.8,3.9-7.9,9.8s-9.6,6-10.2,16.1S45.5,57.2,49.8,50.2z"/>
</g>
<path id="l-arm" class="st2" d="M41.1,123.6c0,0-1.5-11,8.6-16.2s18.2,2.2,18.2,2.2s18.2,21.6,24.2,33s10.6,21.2,12.2,28.8
	c1.1,5.3,2.2,14.2-10.3,20.7s-19.2,0.6-22.9-3.4c-5.3-5.7-10.7-15.1-16.6-26.5S41.1,123.6,41.1,123.6z"/>
<g id="l-forearm">
	<path class="st2" d="M29.4,56.4c0,0,1.7-6.2,9.5-7.8c9.7-2,14.4,1.9,14.4,1.9s6.4,16.9,10.4,29.7s4.8,29.1,4.8,29.1
		c-0.5,6.6-3.7,12.8-8.8,17c-10.2,8.2-15.4,7.9-15.4,7.9c-5.7-9.3-9.9-19.5-12.3-30.1C28,86.6,29.4,56.4,29.4,56.4z"/>
	<path class="st3" d="M28.2,54.7c0,0,7.4-9.7,25.6-6.2"/>
</g>
<g id="rocket">
	<path class="st4" d="M204.8,276.7c9.7,6.5,16.1,16.9,17.4,28.6c1.9,17.4-2.2,27.7-2.2,27.7l-8.8-15c0,0-3,26.3-8.9,43.4l-12.2-28.5
		l-5.2,13.8c0,0-7.5-15.3-7.5-38.4C177.3,288.8,185.7,272,204.8,276.7z"/>
	<path class="st5" d="M200.6,339.7c2.4-11.8,3.6-22.4,3.6-22.5l2.4-21l9.1,15.5c-0.1-1.8-0.2-3.6-0.4-5.6c-1-9.1-5.8-17.4-13.2-22.8
		c-1.1-0.2-2.3-0.4-3.5-0.4c-2.8,0-6.8,0.6-10.1,6.3c-2.7,4.6-4.1,11.4-4.1,19.1c0,5.5,0.5,10.9,1.4,16.3l4-10.5L200.6,339.7z"/>
	<path class="st6" d="M171.8,283.5c0,0-4.7,5.8-19.4,5.8s-19.4-5.8-19.4-5.8l5.9-18.1h27L171.8,283.5z"/>
	<path class="st7" d="M172.1,271.5c0,0-8.7,6.8-19.7,6.8s-19.8-6.8-19.8-6.8s-13.7-87.3-8.6-115.8c2.4-13,18.6-38.6,28.4-38.6
		s26,25.6,28.3,38.6C185.9,184.2,172.1,271.5,172.1,271.5z"/>
	<path class="st6" d="M218.6,289.5c0,0-4.7,5.8-19.4,5.8s-19.4-5.8-19.4-5.8l5.9-18.1h27L218.6,289.5z"/>
	<path class="st7" d="M218.9,277.6c0,0-8.7,6.8-19.8,6.8s-19.7-6.8-19.7-6.8s-13.7-87.3-8.6-115.8c2.3-13,18.6-38.6,28.3-38.6
		s26,25.6,28.3,38.6C232.7,190.3,218.9,277.6,218.9,277.6z"/>
</g>
<path id="hips" class="st8" d="M200,344.9c-11.5,32.3-39.3,10.8-58.3,5.8c-13.1-3.4-24.1-6.9-32.2-9.7c-10.1-3.5-16.7-13-16.6-23.6
	l0.7-42.4L200,304.8C200,304.8,205.2,330.1,200,344.9z"/>
<g id="l-thigh">
	<path class="st8" d="M133.7,427.6c0,0-3.8,10.4-17.9,10.4s-18-10.4-18-10.4s-15.9-65.6-3.2-118.8c2.5-10.2,13.7-15.8,26.8-12.1
		c16.1,4.6,22.2,36.1,22.2,36.1L133.7,427.6z"/>
	<path class="st9" d="M106.6,298.8c-8.7,31.1-8.3,90.1-0.1,129.9"/>
</g>
<g id="l-calf">
	<path class="st6" d="M140.2,518.2c4,5.4,4.9,19.6,5,28c0.1,3.6-2.6,6.8-6.2,7.3c-8.7,1.2-17.2,3.1-25.6,5.7
		c-5.4,1.6-13.9,4.4-19,4.7c-7.8,0.4-15.6-0.5-23.1-2.9c-0.6-3.4-0.6-6.9,0-10.3c1-5.6,11.7-5.3,21.6-9.6s15.8-15.1,15.8-15.1
		C115.6,519.5,131.2,505.9,140.2,518.2z"/>
	<path class="st2" d="M145.2,547.8c0,2.2-2.2,4.4-4.1,5.4c-3.4,1.7-10.1,3.4-23.3,6.8c-10.2,2.7-15.3,5.5-21.6,6
		c-17.1,1.3-24.8-4.8-24.8-4.8c-0.5-1.9-0.6-3.8-0.4-5.8c0.1,0.7,0.5,1.4,1.1,1.8c0,0,7,6,24.4,4.4c6.1-0.6,10.8-3.5,20.6-6
		c6.7-1.7,11.3-2.8,14.5-3.5c8-1.7,10.4-2.3,12.4-4.3c0.7-0.8,1.2-1.8,1.4-2.8C145.1,545.5,145.2,547.2,145.2,547.8z"/>
	<path class="st8" d="M145.1,527.2l-37.5-5.7l-10.1-96.1c0,0,32.8-7.5,35.4,1C147.4,473.7,145.1,527.2,145.1,527.2z"/>
	<path class="st9" d="M106.3,430.3c0,0,5.2,67.9,8.5,96.2"/>
	
		<ellipse transform="matrix(0.9931 -0.1172 0.1172 0.9931 -49.5079 15.2241)" class="st2" cx="104.7" cy="428.6" rx="11.8" ry="16.9"/>
	<path class="st2" d="M147.1,526.8c0,1.4-0.9,2.6-2.2,3c-12.5,4-26,3.6-38.3-1.1c-1.2-0.5-2-1.7-2-3.1l0.2-6.6c0-1.1,0.9-1.9,2-1.9
		c0.2,0,0.4,0.1,0.7,0.1c12,4.4,25.1,4.8,37.3,1.1c1-0.3,2.1,0.2,2.4,1.2c0.1,0.2,0.1,0.4,0.1,0.7L147.1,526.8z"/>
</g>
<g id="r-thigh">
	<path class="st8" d="M190.4,432.3c0,0-3.8,10.4-18,10.4s-17.9-10.4-17.9-10.4s-15.9-65.6-3.2-118.8c2.5-10.2,13.7-15.8,26.8-12.1
		c16.1,4.6,25.3,24.7,23.6,36.7C197.1,369.6,190.4,432.3,190.4,432.3z"/>
	<path class="st9" d="M163.2,303.5c-8.7,31.1-8.4,90-0.1,129.9"/>
</g>
<g id="r-calf">
	<path class="st6" d="M196.8,523.9c4,5.4,4.7,15.5,4.9,23.9c0.1,3.6,1.6,6.3-6,11.4c-4.9,3.3-13,11.1-24.4,11.9
		c-18.5,1.3-29.5-3.2-29.5-3.2c-1.1-3.7-1.4-7.6-0.8-11.5c1-5.6,7.3-1.9,14.9-9.5c8.8-8.8,11.4-22.9,11.4-22.9
		C174.2,517.5,187.8,511.6,196.8,523.9z"/>
	<path class="st2" d="M195.7,559.2c-4.9,3.3-13,11.1-24.4,11.9c-18.5,1.3-29.5-3.2-29.5-3.2c-0.4-1.4-0.7-2.9-0.9-4.4
		c9.9,2.7,20.3,3.7,30.6,2.9c11.4-0.8,19.2-8.4,24.1-11.7c4.4-3,5.8-5.4,6.2-7.6c0,0.2,0,0.5,0,0.7
		C201.8,551.5,203.3,554.1,195.7,559.2z"/>
	<path class="st8" d="M201.8,531.9l-37.5-5.7l-10.1-96.1c0,0,32.8-7.5,35.4,1C204,478.5,201.8,531.9,201.8,531.9z"/>
	<path class="st9" d="M163,435c0,0,5.2,67.9,8.4,96.2"/>
	
		<ellipse transform="matrix(0.9931 -0.1172 0.1172 0.9931 -49.6758 21.899)" class="st2" cx="161.4" cy="433.4" rx="11.8" ry="16.9"/>
	<path class="st2" d="M203.8,531.5c0,1.4-0.9,2.6-2.2,3c-12.5,4-26,3.6-38.3-1.1c-1.2-0.5-2-1.7-2-3.1l0.2-6.6c0-1.1,0.9-1.9,2-1.9
		c0.2,0,0.4,0.1,0.6,0.1c12,4.4,25.1,4.8,37.3,1.1c1-0.3,2.1,0.2,2.4,1.2c0.1,0.2,0.1,0.4,0.1,0.6L203.8,531.5z"/>
</g>
<g id="torso">
	<path class="st6" d="M182.3,140l41.4,12.4c0,0-13.1,58.3-52.7,64.6l-22.2-12.1C148.8,204.9,185.4,174,182.3,140z"/>
	<path class="st0" d="M186.3,145.6c0,0-16.4-12.1-33.3-11.8s-50.8,6.8-57.7,10.5s-18.8,69,21,72.7s74.6-4.6,78.2-32.2
		S186.3,145.6,186.3,145.6z"/>
	<path class="st2" d="M162.6,220.6l-78.4-15.7l2-40.9c0,0,25.5,15.5,78.4,15.7C174.8,179.8,162.6,220.6,162.6,220.6z"/>
	<path class="st8" d="M219.2,219.7c-1,4.6-2,8.8-3,12.8c-6.4,26.5-10.7,39.7-17,56.4c-6.6,17.6-37,20.1-50.6,19.2
		c-13.4-0.9-47,0.3-54-18.7C88,271.6,84.9,249,80.3,223l0,0c-0.7-3.9-1.4-8.1-2.1-12.7c-3-19.5-1.7-37.4,5-51.5
		c2.6-5.6,6.3-10.7,10.8-15c9.5,21-0.5,36.2,22.4,62.7c0,0,53.2-29,74.9-58.7c5.6,2.3,22.3,15.5,24,19.2
		C222.4,182.3,223.5,200.6,219.2,219.7z"/>
	<path class="st9" d="M91.5,150.3c-17.3,39.3,2.8,113.5,15,148.5"/>
	<path class="st9" d="M179.7,162.1c-27.7,34.5-31.1,107.1-31.1,143.4"/>
	
		<ellipse transform="matrix(0.2209 -0.9753 0.9753 0.2209 -29.176 349.3636)" class="st2" cx="204.1" cy="192.9" rx="33.2" ry="23.9"/>
	<path class="st6" d="M107.6,138.2c-13.6,3.2-33.9,9.5-33.9,9.5s-3.9,19.8,5.1,38.7c10.7,22.4,25.9,35.1,37.5,40.1V201
		C116.3,201,89.6,173.1,107.6,138.2z"/>
	<path class="st2" d="M200,304.8c0,0-10.4,10.7-53.2,8.6c-43-2.1-53.9-14-53.9-14l-1.4-17.9c0,0,11.8,11.8,54.7,13.9
		c43,2.1,53.9-8.6,53.9-8.6L200,304.8z"/>
</g>
<g id="head">
	<path class="st1" d="M101.3,56.8c0,0-4.8,7.4,0.4,12.8s13.1,1.9,13.1,1.9c0.1,0.6,0.2,1.2,0.5,1.8c0.6,1.5,2,2.5,3.5,2.8
		c6.8,1,10.2-15.3,10.2-15.3l-25.6-19.4C103.5,41.2,97.6,50.9,101.3,56.8z"/>
	<path class="st0" d="M122.4,65.5c-2.4,2.2-4.9,4.2-7.5,6l0.5,1.8c0.6,1.5,2,2.5,3.5,2.8c6.8,1,10.2-15.3,10.2-15.3l-25.6-19.4
		C104.8,52.2,126.2,62,122.4,65.5z"/>
	<path class="st0" d="M170.4,71.1c0,0-3.2,7.7-3.5,13.1c-1.4,23.9,15.4,55.8,15.4,55.8s-17.1,25.2-44.2,25.2S108,144.3,108,144.3
		c-1.9-10.5-12.1-28.7-3.5-56.1c2.6-8.4,3-22.3,3-22.3c0-15.2,31.8-25.9,47-25.9S173.5,55,170.4,71.1z"/>
	<path class="st1" d="M122.8,87.6C111,85.7,112.2,76.1,112.4,68c-0.5-1.4-1.3-2.7-2.2-3.9c0,0,8.4-2.1,13.6-0.8
		c5.2,1.3,17.8,10.2,17.8,10.2S133.9,89.4,122.8,87.6z"/>
	<path class="st1" d="M186.6,72.8c0,0,3.8,8-2.2,12.6s-13.3,0-13.3,0c-0.2,0.6-0.4,1.2-0.8,1.7c-0.8,1.4-2.3,2.3-3.9,2.3
		c-6.8,0-8-16.6-8-16.6l28.1-15.7C186.5,57.1,191,67.5,186.6,72.8z"/>
	<path class="st0" d="M164.4,78.5c2.1,2.5,4.3,4.8,6.6,7l-0.8,1.7c-0.8,1.4-2.3,2.3-3.9,2.3c-6.8,0-8-16.6-8-16.6l28.1-15.7
		C183.7,67.8,161.1,74.5,164.4,78.5z"/>
	<path class="st1" d="M115.1,56c3.8-1.2,7.9-1.6,11.9-1c4.3,0.6,8.4,2.3,11.9,4.9c0,0-1.4-7.5-6.4-8C124.8,51.1,115.1,56,115.1,56z"
		/>
	<path class="st10" d="M137.7,77.1c-1.3,4.2-7.3,9.8-14.2,9.3c-6-0.2-10.7-5.2-10.5-11.2c0-6.4,3.6-8.8,10.5-8.4
		S137.7,70,137.7,77.1z"/>
	<g>
		<defs>
			<path id="SVGID_1_" d="M137.7,77.1c-1.3,4.2-7.3,9.8-14.2,9.3c-6-0.2-10.7-5.2-10.5-11.2c0-6.4,3.6-8.8,10.5-8.4
				S137.7,70,137.7,77.1z"/>
		</defs>
		<clipPath id="SVGID_2_">
			<use xlink:href="#SVGID_1_"  style="overflow:visible;"/>
		</clipPath>
		<g class="st11">
			
				<ellipse transform="matrix(0.9922 -0.1246 0.1246 0.9922 -8.172 15.9646)" class="st12" cx="123.5" cy="73.3" rx="8.4" ry="10.4"/>
			<ellipse transform="matrix(0.1075 -0.9942 0.9942 0.1075 37.3498 188.222)" class="st13" cx="123.5" cy="73.3" rx="3.2" ry="5"/>
		</g>
	</g>
	<path class="st14" d="M134.6,108.3l-2.9-0.8c-1-0.3-1.5-1.3-1.2-2.3l2.1-7.1c0.3-1,1.3-1.5,2.3-1.2l2.9,0.8c1,0.3,1.5,1.3,1.2,2.3
		l-2.1,7.1C136.6,108,135.6,108.6,134.6,108.3z"/>
	<path class="st1" d="M149.7,120.4c-3.2,13.4-9.4,22-18.1,23.9c-13.9,3-29.1-3.2-36.3-14.5c-6.1-9.2-9.2-20-8.9-31
		c0.2-10.8,10.7-11.3,23.9-7.6c23,6.4,24.3,25,42.5,9C154.1,106.9,152,110.7,149.7,120.4z"/>
	<path class="st15" d="M86.9,95.3c2.3-7.2,11.8-7.3,23.3-4.1c23,6.4,24.3,25,42.5,9"/>
</g>
<path id="collar" class="st6" d="M183.4,138.2c13,5.1,28,9.1,40.3,14.2c-0.5,2.7-2.8,9.6-2.8,9.6s-12.9,0-30.3,11.6
	c-17.6,11.8-40.2,37.2-74.3,52.9V201C116.3,201,152.9,159.2,183.4,138.2z"/>
<g id="r-hand">
	<path class="st0" d="M234.9,20.6c1-1.6,2.8-2.3,4.6-1.9c0.8,0.2,1.5,0.5,2.2,0.9c0.9-0.9,2.3-1.2,3.5-0.9c1.6,0.6,3.1,1.5,4.2,2.9
		c0.6,0.6,1.1,1.4,1.5,2.2c1.1,0.6,2.1,1.4,2.9,2.3c4.3,4.8,4.1,13,2.3,19.1c-2.5,8.5-16.3,22.7-16.3,22.7s-20.1,0.3-18.1-12.2
		c0.8-5.7,3.8-10.8,8.4-14.2c2.2-2.7,4-5.7,5.4-8.9C236.5,29.8,233,23.4,234.9,20.6z"/>
	<path class="st0" d="M221.5,55.3c0,0-2-8.2-2.1-12.4s-2.5-16,2.1-16.2s7,2.8,7.6,7.1s7.9,6.4,8,8.6S237,63.4,221.5,55.3z"/>
	<path class="st1" d="M246.2,24.1c1-0.9,2-1.8,3.1-2.6c0.6,0.6,1.1,1.4,1.5,2.2c-1.7,0.7-4.5,1.9-3.7,5.1c0.6,2.5,0.9,5.1,1.1,7.7
		c0,0.2-2.7,5.7-2.7,5.7s1.6-6.1,1.4-8.1C246.2,27.8,244.9,25.4,246.2,24.1z"/>
	<path class="st1" d="M241.6,19.5c-0.8,0.5-1.5,1.3-1.9,2.2c-0.6,1.5,0.6,4.8,1,7c0.3,1.7,1.1,3.4,0.4,5.5s-1.7,4.2-1.8,4.4
		c0.4-2.2,0.5-4.5,0.4-6.7c-0.3-3.2-2.2-9.5-1.3-11.4c0.3-0.7,0.7-1.3,1.1-1.9C240.2,18.9,240.9,19.1,241.6,19.5z"/>
</g>
<path id="r-arm" class="st2" d="M198.4,123.4c0,0,4.6-10.1,15.8-9.4s14.3,11.5,14.3,11.5s4.2,28,3.3,40.8s-2,23.6-4.6,30.9
	c-1.8,5.1-5.6,13.2-19.6,12.3s-16.7-9.5-17.8-14.9c-1.5-7.6-1.2-18.5-0.3-31.3S198.4,123.4,198.4,123.4z"/>
<g id="r-forearm">
	<path class="st2" d="M220.2,60.2c0,0,4.5-4.6,12.1-2.2c9.5,3,11.6,8.7,11.6,8.7s-2.6,17.9-5.4,31s-9.9,27.8-9.9,27.8
		c-3.7,5.6-9.4,9.4-16,10.5c-12.9,2.3-17.3-0.6-17.3-0.6c-0.4-10.9,0.9-21.8,3.9-32.3C204.2,86,220.2,60.2,220.2,60.2z"/>
	<path class="st16" d="M219.9,58.1c0,0,11.2-4.8,25.4,7"/>
</g>
</svg>
