<?xml version="1.0" encoding="utf-8"?>
<!-- Generator: Adobe Illustrator 25.2.0, SVG Export Plug-In . SVG Version: 6.00 Build 0)  -->
<svg version="1.1" id="Layer_1" xmlns="http://www.w3.org/2000/svg" xmlns:xlink="http://www.w3.org/1999/xlink" x="0px" y="0px"
	 viewBox="0 0 284 530" style="enable-background:new 0 0 284 530;" xml:space="preserve">
<style type="text/css">
	.st0{fill:#BCFC30;}
	.st1{fill:#E1FF8F;}
	.st2{fill:#060B47;}
	.st3{fill:#0292AA;}
	.st4{fill:#2DB6E0;}
	.st5{fill:#FF4280;}
	.st6{fill:#E82169;}
	.st7{fill:none;stroke:#060B47;stroke-width:4.13;stroke-linecap:round;stroke-miterlimit:10;}
	.st8{fill:#841263;}
	.st9{fill:none;stroke:#60024E;stroke-width:3;stroke-linecap:round;stroke-miterlimit:10;}
	.st10{fill:#43DCFF;}
	.st11{fill:#F2D3DF;}
	.st12{fill:#FDFFFD;}
	.st13{clip-path:url(#SVGID_2_);}
	.st14{fill:#94B700;}
	.st15{fill:#140B2D;}
	.st16{fill:none;stroke:#FF4DA2;stroke-width:3;stroke-linecap:round;stroke-miterlimit:10;}
	.st17{fill:none;stroke:#060B47;stroke-width:4.14;stroke-linecap:round;stroke-miterlimit:10;}
</style>
<g id="rockets">
	<path class="st0" d="M238.1,238.9c-9.7,6.5-16.1,16.9-17.4,28.6c-1.9,17.4,2.2,27.7,2.2,27.7l8.8-15c0,0,2.9,26.3,8.9,43.4
		l12.2-28.5l5.2,13.8c0,0,7.5-15.3,7.5-38.4C265.6,251,257.2,234.2,238.1,238.9z"/>
	<path class="st1" d="M242.3,301.9c-2.3-11.8-3.6-22.4-3.6-22.5l-2.4-21l-9.1,15.5c0.1-1.8,0.2-3.6,0.4-5.6
		c1-9.1,5.8-17.4,13.2-22.8c1.1-0.2,2.3-0.4,3.5-0.4c2.8,0,6.8,0.6,10.1,6.3c2.7,4.6,4.1,11.4,4.1,19.1c0,5.5-0.5,10.9-1.4,16.3
		l-4-10.5L242.3,301.9z"/>
	<path class="st2" d="M246.7,253.8c0,0-4.7,5.8-19.4,5.8s-19.4-5.8-19.4-5.8l5.9-18.1h27L246.7,253.8z"/>
	<path class="st3" d="M247,241.9c0,0-8.7,6.8-19.8,6.8s-19.7-6.8-19.7-6.8s-13.7-87.3-8.6-115.8c2.3-13,18.6-38.6,28.3-38.6
		s26,25.6,28.3,38.6C260.8,154.6,247,241.9,247,241.9z"/>
	<path class="st2" d="M269.1,255.2c0,0-4.7,5.8-19.4,5.8s-19.4-5.8-19.4-5.8l5.9-18.1h27L269.1,255.2z"/>
	<path class="st4" d="M269.4,243.2c0,0-8.7,6.8-19.8,6.8s-19.7-6.8-19.7-6.8s-13.7-87.3-8.6-115.8c2.3-13,18.6-38.6,28.3-38.6
		s26,25.6,28.4,38.6C283.1,155.9,269.4,243.2,269.4,243.2z"/>
</g>
<g id="b-hand">
	<path class="st5" d="M4.2,151.5L4.2,151.5c0-2.6,1.9-6.2,6.8-7.1c5.2-0.9,11.7,0.1,15.1,0.8c1.5,0.3,2.5,0.6,2.5,0.6
		c9,4.7,1.6,11.2,1.6,11.2s-11.1-3.6-14.2-4.3s-7.8,2.7-10.4,1.7C4.8,154.1,4.2,152.9,4.2,151.5z"/>
	<path class="st6" d="M4.2,151.5L4.2,151.5c0-2.6,1.9-6.2,6.8-7.1c5.2-0.9,11.7,0.1,15.1,0.8c0.4,0.5,0.6,1,0.7,1.6
		c0,0-10.6-2.3-14.8,0.8C9.8,149.5,7.1,150.8,4.2,151.5z"/>
	<path class="st5" d="M58.4,151.1l-17.6-17.4c0,0-12.6,2.4-19.9,20.3c10.2,3.5,15.5,10.9,23.7,12C49.8,166.8,68.6,164,58.4,151.1z"
		/>
	<path class="st5" d="M7.5,143.4c-1-0.7-1.2-2.8-0.2-4.7c1.1-2.1,3.6-4.1,7.6-3.9c5.1,0.3,10.8,2.5,14.1,4c1.7,0.8,2.8,1.3,2.8,1.3
		c7.7,6.6-1.1,12.9-1.1,12.9s-8.4-5.8-11.3-7.1S9.8,145,7.5,143.4z"/>
	<path class="st6" d="M7.5,139.4l-0.1-0.6c1.1-2.1,3.6-4.1,7.6-3.9c5.1,0.3,10.8,2.5,14.1,4l0.7,2.9c0,0-10.9-3.2-14.4-3
		S7.5,139.4,7.5,139.4z"/>
	<path class="st5" d="M38.5,134.2c0,0-8.5-5.9-16-7.4s-10.5,5.7-8.5,7.5s8.8,2.3,11.5,4.1s10.3,8.5,10.3,8.5S45.4,141.7,38.5,134.2z
		"/>
	<polygon class="st6" points="33.3,131.1 37.4,148.6 45.6,137.2 	"/>
	<path class="st5" d="M55.7,150.5c0,0,0.2-7.6-6.9-17.7S39.7,119.5,36,121s-2.9,7.3,0,12.6s-3.7,10.6,2.2,19S56.8,158.7,55.7,150.5z
		"/>
</g>
<path id="b-arm" class="st4" d="M109.3,171.4c0,0-5,9.9,2.8,18.1s18,3.8,18,3.8s24.3-14.5,33.6-23.3s16.9-16.5,21-23.2
	c2.8-4.7,6.7-12.7-3-22.9s-17.9-6.8-22.8-4.3c-6.9,3.6-15,10.8-24.4,19.6S109.3,171.4,109.3,171.4z"/>
<g id="b-forearm">
	<path class="st4" d="M50.2,167.4c0,0-4.5-4.7-1.8-12.2c3.2-9.4,9-11.3,9-11.3s17.8,3.2,30.8,6.3s27.5,10.7,27.5,10.7
		c5.4,3.8,9,9.7,10,16.3c1.9,12.9-1.1,17.3-1.1,17.3c-10.9,0.1-21.8-1.5-32.2-4.8C75.4,184.1,50.2,167.4,50.2,167.4z"/>
	<path class="st7" d="M48.1,167.6c0,0-4.5-11.3,7.7-25.1"/>
</g>
<g id="b-thigh">
	<path class="st8" d="M184.4,389.1c0,0-3.8,10.4-17.9,10.4s-18-10.4-18-10.4s-15.9-65.6-3.2-118.8c2.5-10.2,13.7-15.8,26.8-12.1
		c16.1,4.6,31.9,45.3,31.9,45.3L184.4,389.1z"/>
	<path class="st9" d="M148.2,266c-7.1,31.8-4.2,84.4,4.1,124.2"/>
</g>
<g id="b-calf">
	<path class="st2" d="M192.2,485.1c4.2,6.2,4.3,23.2,4.1,30.8c-0.1,2.1-1.8,3.8-3.9,3.9c-5,0.1-15,0.4-30.8,0.9
		c-39,1.3-50.4-2.8-50.4-2.8c-0.5-3.4-0.4-6.9,0.3-10.3c1.2-5.6,19.7-4,29.7-8s19.2-7.6,19.2-7.6C164.7,472,183.5,472.5,192.2,485.1
		z"/>
	<path class="st10" d="M196.2,517.4c0,1.3-1.1,2.3-2.4,2.4c-4.3,0.1-14.7,0.3-32.2,0.9c-39,1.2-50.4-2.8-50.4-2.8
		c-0.4-2.4-0.4-4.9-0.1-7.3c-0.2,3.3,0.9,3.4,0.9,3.4s10.8,3.6,49.8,2.3c23.9-0.8,33.8-1.2,33.8-1.2s0.8-0.1,0.9-0.8
		C196.3,515.5,196.3,516.6,196.2,517.4z"/>
	<path class="st8" d="M195.8,488.7l-37.5-5.7l-10.1-96.1c0,0,32.9-7.5,35.4,1C198.1,435.2,195.8,488.7,195.8,488.7z"/>
	<path class="st9" d="M153.6,391.8c0,0,5.2,67.9,8.5,96.1"/>
	<path class="st10" d="M157.4,388.8c0.8,4.8,0.9,14.4-3.9,18.2c-6.5,0.8-11.9-6.1-13-15.4s2.6-17.4,9-18.2
		C155,377.5,156.6,384,157.4,388.8z"/>
	<path class="st10" d="M197.8,488.3c0,1.3-0.9,2.5-2.2,3c-12.5,4-26,3.6-38.3-1.1c-1.2-0.5-2-1.7-2-3.1l0.2-6.6c0-1.1,0.9-1.9,2-1.9
		c0.2,0,0.4,0.1,0.7,0.1c12,4.4,25.1,4.8,37.3,1.1c1-0.3,2.1,0.2,2.4,1.2c0.1,0.2,0.1,0.4,0.1,0.7L197.8,488.3z"/>
</g>
<path id="hips" class="st8" d="M231.6,300.6c-5.3,24-26.1,20.3-42.2,20.3s-32.7-1.7-38.8-12.8c-4.9-8.9-9.8-40.4-9.8-40.4l88.9,3.6
	C229.8,271.3,234.6,287.5,231.6,300.6z"/>
<g id="f-thigh">
	<path class="st8" d="M207.7,393.2c0,0-3.8,10.4-17.9,10.4s-17.9-10.4-17.9-10.4s-16-65.6-3.2-118.8c2.5-10.2,13.7-15.8,26.8-12.1
		c16.1,4.6,31.9,45.3,31.9,45.3L207.7,393.2z"/>
	<path class="st9" d="M171.5,270.1c-7.1,31.8-4.2,84.4,4.1,124.2"/>
</g>
<g id="f-calf">
	<path class="st2" d="M215.5,489.2c4.2,6.2,4.3,23.2,4.1,30.8c-0.1,2.1-1.8,3.8-3.9,3.9c-5,0.1-15,0.4-30.8,0.9
		c-39,1.3-50.4-2.8-50.4-2.8c-0.5-3.4-0.4-6.9,0.3-10.3c1.2-5.6,19.7-4,29.7-8s19.2-7.6,19.2-7.6
		C188.1,476.1,206.9,476.7,215.5,489.2z"/>
	<path class="st10" d="M219.6,521.5c0,1.3-1.1,2.3-2.4,2.4c-4.3,0.1-14.7,0.3-32.2,0.9c-39,1.3-50.4-2.8-50.4-2.8
		c-0.4-2.4-0.4-4.9-0.1-7.3c-0.2,3.3,0.9,3.4,0.9,3.4s10.8,3.6,49.8,2.3c23.9-0.8,33.7-1.2,33.7-1.2s0.8-0.1,0.9-0.8
		C219.6,519.6,219.6,520.7,219.6,521.5z"/>
	<path class="st8" d="M219.1,492.8l-37.5-5.7L171.5,391c0,0,32.9-7.5,35.4,1C221.4,439.4,219.1,492.8,219.1,492.8z"/>
	<path class="st9" d="M177,395.9c0,0,5.2,67.9,8.5,96.2"/>
	<path class="st10" d="M180.8,392.9c0.9,4.8,0.9,14.4-3.9,18.2c-6.5,0.8-11.9-6.1-13-15.4s2.6-17.4,9-18.2
		C178.4,381.6,179.9,388.1,180.8,392.9z"/>
	<path class="st10" d="M221.1,492.4c0,1.3-0.9,2.5-2.2,3c-12.5,4-26,3.6-38.3-1.1c-1.2-0.5-2-1.7-2-3.1l0.2-6.6c0-1.1,0.9-1.9,2-1.9
		c0.2,0,0.4,0.1,0.7,0.1c12,4.4,25.1,4.8,37.3,1.1c1-0.3,2.1,0.2,2.4,1.2c0.1,0.2,0.1,0.4,0.1,0.7L221.1,492.4z"/>
</g>
<g id="torso">
	<path class="st5" d="M169.9,105.6c0,0-18,3.7-24.2,16.9s-15.4,26.4-8.5,56.5c0,0,68.3-59,81.1-63.2s10.1-0.5,3.9-10.3
		S169.9,105.6,169.9,105.6z"/>
	<path class="st2" d="M138.3,125.5c0,0,7.7-16.7,28.6-26.1s45.8-5.9,58.6,6.2s18.4,18.4,18.4,18.4s-6.4-9.4-20.6-6
		s-14.8-20.6-35.1-16.8c-30.4,5.7-38.3,17.8-42.5,28.4L138.3,125.5z"/>
	<path class="st8" d="M245.5,185.3c-0.9,4.6-11.4,52.4-16.7,69.1c-5.5,17.6-31.3,19-42.2,19.2c-11.2,0.2-39.2,0.3-45.1-18.7
		c-5.5-17.7-11.1-65.7-11.1-70.3c-0.1-16,6.7-39.2,6.7-39.2s-1.7,22.9,0,25.2c0,0,17.9-29.2,85-65c4.7,2.3,20.3,14.7,21.8,18.4
		C249.9,139.2,249.2,166.3,245.5,185.3z"/>
	<path class="st9" d="M200.5,120.7c-52,58.4-35.6,109.8-31.8,153.8"/>
	<path class="st10" d="M141.1,127.1c0,0-0.7,14.3,6.3,16.4s17.2,1.3,17.2,1.3L137.1,179C137.1,179,132.1,161.7,141.1,127.1z"/>
	<path class="st10" d="M245.2,156.6c0,14.9-12.1,27-27,27s-27-12.1-27-27c0-14.9,8.4-31.1,27-31.1S245.2,141.7,245.2,156.6z"/>
	<path class="st2" d="M137.1,166.7c0,0-2.2-12.9,8.5-37l-7.4-4.1c0,0-15,33.1-3.9,66.1L137.1,166.7z"/>
	<path class="st10" d="M229.8,271.3c0,0-8.7,11.3-44.3,11.3s-44.9-11.3-44.9-11.3v-17.9c0,0,8.7,11.3,44.3,11.3
		c35.8,0,44.9-11.3,44.9-11.3L229.8,271.3z"/>
</g>
<g id="head">
	<path class="st5" d="M222.1,105.6c0,0-17.1,25.2-44.1,25.2s-30.1-20.9-30.1-20.9c-1.9-10.5-24.7-27.3-6.1-51.4
		c1-1.3,5.1-5.6,5.6-7.2c2.3-7.8-0.6-18.6-1.6-21.8c-0.2-0.6-7.8-12.5,12.1-14.5c1.8-0.9,3.8-1.7,5.9-2.5
		c10.5-4.1,23.1-6.9,30.6-6.9c15.2,0,25.2,17.7,20.1,33.3c-1.5,4.6-10.3,10.7-10.6,16.1C202.4,78.9,222.1,105.6,222.1,105.6z"/>
	<path class="st6" d="M169.9,39.2c0,0-13.4,16.6-22.2,10.3c2.3-7.8-1-16.8-2-20.1c2.4-0.5,8.5-1.6,12.5-0.5
		C163.4,30.3,169.9,39.2,169.9,39.2z"/>
	<path class="st6" d="M216.2,25.1c0,0,3.8,8-2.2,12.6s-13.3,0-13.3,0c-0.2,0.6-0.4,1.2-0.8,1.7c-0.8,1.4-2.3,2.3-3.9,2.3
		c-6.8,0-8-16.6-8-16.6l28.1-15.7C216.2,9.4,220.7,19.8,216.2,25.1z"/>
	<path class="st5" d="M194.1,30.8c2.1,2.5,4.3,4.8,6.6,7l-0.8,1.6c-0.8,1.4-2.3,2.3-3.9,2.3c-6.8,0-8-16.6-8-16.6l28.1-15.7
		C213.4,20.1,190.8,26.8,194.1,30.8z"/>
	<path class="st11" d="M160.3,75.4l-2.8-1.1c-0.9-0.4-1.4-1.4-1-2.4l2.7-6.9c0.4-0.9,1.4-1.4,2.4-1l2.8,1.1c0.9,0.4,1.4,1.4,1,2.4
		l-2.7,6.9C162.2,75.3,161.2,75.8,160.3,75.4z"/>
	<path class="st6" d="M176.8,87.4c-4.2,13.1-16.1,23.9-25,22.6c-13.2-2-26.9-11.8-30.6-18.7c-2.7-5-6.8-12.9-5-25.4
		c1.5-10.6,9.4-11.4,22.2-6.6c14.3,5.3,22.6,20.9,40.7,6.6C180.4,72.5,179.6,78.6,176.8,87.4z"/>
	<path class="st12" d="M164.2,41.2c0,0-1.3-9.4-14-9.4c-7.4,0-4.7,17.9-0.2,18.6C157.8,51.5,164.2,41.2,164.2,41.2z"/>
	<g>
		<defs>
			<path id="SVGID_1_" d="M164.2,41.2c0,0-1.3-9.4-14-9.4c-7.4,0-4.7,17.9-0.2,18.6C157.8,51.5,164.2,41.2,164.2,41.2z"/>
		</defs>
		<clipPath id="SVGID_2_">
			<use xlink:href="#SVGID_1_"  style="overflow:visible;"/>
		</clipPath>
		<g class="st13">
			<ellipse class="st14" cx="150.9" cy="38.8" rx="4" ry="10.3"/>
			<ellipse class="st15" cx="150.9" cy="38.8" rx="2.4" ry="3.2"/>
		</g>
	</g>
	<path class="st6" d="M169.9,20.2c-3.1-4.7-12.1-5.2-12.1-5.2c1.8-0.9,3.8-1.7,5.9-2.5C167.3,13.3,169.8,16.5,169.9,20.2z"/>
	<path class="st16" d="M119.1,58.8c3.6-3.6,10.2-3,19.2,0.3c14.3,5.3,22.6,20.9,40.7,6.6"/>
</g>
<g id="f-hand">
	<path class="st5" d="M70.1,205.4c0.4,4.5,16.3,5.2,16.3,5.2L79,218c0,0-24.7-5.5-16.3,7.1c0,0.7,0.2,1.5,0.4,2.2
		c1.1,2.9,4.2,5.1,7.5,6.2c1.1,0.8,2.2,1.6,3.4,2.2c5.9,3.1,11.6,2.6,17,1.2c6.5-1.6,14.4-10.4,17.9-14.6l0.6-0.8
		c0.8-1,1.2-1.6,1.2-1.6l-0.1-20.3c0,0-2.6,0.3-6.2,0.7l-1.8,0.2c-6.6,0.7-15.7,1.4-19.9,1C75.7,200.9,69.7,200.9,70.1,205.4z"/>
	<path class="st6" d="M62.6,225.1c0,0.7,0.2,1.5,0.4,2.2c5.3,1.8,11,1.8,16.3-0.1C79.4,227.1,68.3,228.1,62.6,225.1z"/>
	<path class="st6" d="M70.6,233.4c1.1,0.9,2.2,1.6,3.4,2.3c3.8,0,8.9-0.4,11.1-2.8C80.4,234,75.4,234.2,70.6,233.4z"/>
</g>
<path id="f-arm" class="st10" d="M181.1,205.4c0,0-10.1,4.6-18.1-3.4s-3.2-18-3.2-18s15.3-23.8,24.4-32.9s17.1-16.4,23.8-20.2
	c4.8-2.7,12.9-6.3,22.9,3.7s6.3,18.1,3.6,22.9c-3.9,6.8-11.3,14.7-20.4,23.8S181.1,205.4,181.1,205.4z"/>
<g id="collar">
	<path class="st2" d="M212.7,105.6l12.8,15c0,0-58.3,18.3-91.1,71c-0.1-15.1,2.7-25,2.7-25S169.8,118.2,212.7,105.6z"/>
	<path class="st2" d="M212.7,105.6c0,0,11.9-5.5,18.6,0s24.2,20.6,23.6,29.2s-6.7,27.9-6.7,27.9s0.5-31.1-4.2-35s-10.2-10.1-18.4-7
		L212.7,105.6z"/>
</g>
<g id="f-forearm">
	<path class="st10" d="M112.4,221.6c0,0-6.3-1.2-8.6-8.8c-2.8-9.5,0.7-14.5,0.7-14.5s16.3-7.8,28.7-12.9s33-7.8,33-7.8
		s7.8,3.2,13.2,7.9c9.9,8.5,9.2,14.6,9.2,14.6c-8.8,6.5-18.6,11.5-29,14.9C142.7,220.4,112.4,221.6,112.4,221.6z"/>
	<path class="st17" d="M110.8,223c0,0-10.3-6.5-8.4-24.9"/>
</g>
</svg>
