<?xml version="1.0" encoding="utf-8"?>
<!-- Generator: Adobe Illustrator 25.2.0, SVG Export Plug-In . SVG Version: 6.00 Build 0)  -->
<svg version="1.1" id="Layer_1" xmlns="http://www.w3.org/2000/svg" xmlns:xlink="http://www.w3.org/1999/xlink" x="0px" y="0px"
	 viewBox="0 0 280 482" style="enable-background:new 0 0 280 482;" xml:space="preserve">
<style type="text/css">
	.st0{fill:#841263;}
	.st1{fill:none;stroke:#60024E;stroke-width:3;stroke-linecap:round;stroke-miterlimit:10;}
	.st2{fill:#060B47;}
	.st3{fill:#43DCFF;}
	.st4{fill:#2DB6E0;}
	.st5{fill:#BCFC30;}
	.st6{fill:#E1FF8F;}
	.st7{fill:#0292AA;}
	.st8{fill:#FF4280;}
	.st9{fill:#E82169;}
	.st10{fill:none;stroke:#060B47;stroke-width:4.13;stroke-linecap:round;stroke-miterlimit:10;}
	.st11{fill:#F2D3DF;}
	.st12{fill:#FDFFFD;}
	.st13{clip-path:url(#SVGID_2_);}
	.st14{fill:#94B700;}
	.st15{fill:#140B2D;}
	.st16{fill:none;stroke:#FF4DA2;stroke-width:3;stroke-linecap:round;stroke-miterlimit:10;}
	.st17{fill:none;stroke:#060B47;stroke-width:4.14;stroke-linecap:round;stroke-miterlimit:10;}
</style>
<g id="b-thigh">
	<path class="st0" d="M57.4,347.2c0,0-11-0.1-15.7-13.5s3.8-20.4,3.8-20.4s56.6-36.8,111-42.4c10.5-1.1,25.4,8.2,26.2,21.7
		c1,16.7-9.6,29.7-19.9,35.3C139.6,340.8,57.4,347.2,57.4,347.2z"/>
	<path class="st1" d="M161.6,272.2c-32.3,3.9-81,24-115.8,45l-4,9.4"/>
</g>
<g id="b-calf">
	<path class="st2" d="M85.8,430.1c4.2,6.2,4.3,23.2,4.1,30.8c-0.1,2.1-1.8,3.8-3.9,3.9c-5,0.1-15,0.4-30.8,0.9
		c-39,1.2-50.4-2.9-50.4-2.9c-0.5-3.4-0.4-6.9,0.3-10.3c1.2-5.6,19.7-4,29.7-8s19.2-7.6,19.2-7.6C58.3,417,77.1,417.6,85.8,430.1z"
		/>
	<path class="st3" d="M89.8,462.4c0,1.3-1.1,2.3-2.4,2.4c-4.3,0.1-14.7,0.3-32.2,0.9c-39,1.2-50.4-2.9-50.4-2.9
		c-0.4-2.4-0.4-4.9-0.1-7.3c-0.2,3.3,0.9,3.4,0.9,3.4s10.8,3.6,49.8,2.3c23.9-0.8,33.7-1.2,33.7-1.2s0.8-0.1,0.9-0.8
		C89.9,460.5,89.9,461.6,89.8,462.4z"/>
	<path class="st0" d="M89.4,433.7L51.9,428l-10.1-96.1c0,0,32.8-7.5,35.4,1C91.7,380.2,89.4,433.7,89.4,433.7z"/>
	<path class="st1" d="M47.2,336.8c0,0,5.2,67.9,8.5,96.2"/>
	<path class="st3" d="M51,333.8c0.8,4.8,0.9,14.4-3.9,18.2c-6.5,0.8-11.9-6.1-13-15.4s2.6-17.4,9-18.2C48.7,322.5,50.2,329,51,333.8
		z"/>
	<path class="st4" d="M91.4,433.3c0,1.3-0.9,2.5-2.2,2.9c-12.5,4-26,3.6-38.3-1.1c-1.2-0.5-2-1.7-2-3.1l0.2-6.6c0-1.1,0.9-1.9,2-1.9
		c0.2,0,0.4,0,0.6,0.1c12,4.4,25.1,4.8,37.3,1.1c1-0.3,2.1,0.2,2.4,1.2c0.1,0.2,0.1,0.4,0.1,0.7L91.4,433.3z"/>
</g>
<g id="rocket">
	<path class="st5" d="M206,246.4c9.8,6.5,16.1,16.9,17.4,28.6c1.9,17.4-2.2,27.7-2.2,27.7l-8.8-15c0,0-3,26.3-8.9,43.4l-12.2-28.5
		l-5.2,13.8c0,0-7.5-15.3-7.5-38.4C178.5,258.5,186.9,241.6,206,246.4z"/>
	<path class="st6" d="M201.9,309.3c2.4-11.8,3.5-22.4,3.6-22.5l2.4-21l9.1,15.5c-0.1-1.8-0.2-3.6-0.4-5.6c-1-9.1-5.8-17.4-13.2-22.8
		c-1.1-0.2-2.3-0.4-3.5-0.4c-2.8,0-6.8,0.6-10.1,6.3c-2.7,4.6-4.1,11.4-4.1,19.1c0,5.5,0.5,10.9,1.4,16.3l4-10.5L201.9,309.3z"/>
	<path class="st5" d="M218.8,251.6c-9.8,6.5-16.1,16.9-17.4,28.6c-1.9,17.4,2.2,27.7,2.2,27.7l8.8-15c0,0,3,26.3,8.9,43.4l12.2-28.5
		l5.2,13.8c0,0,7.5-15.3,7.5-38.4C246.3,263.6,237.9,246.8,218.8,251.6z"/>
	<path class="st6" d="M223,314.5c-2.4-11.8-3.6-22.4-3.6-22.5l-2.4-21l-9,15.5c0.1-1.8,0.2-3.6,0.4-5.6c1-9.1,5.8-17.4,13.2-22.8
		c1.1-0.2,2.3-0.4,3.5-0.4c2.8,0,6.8,0.6,10.1,6.3c2.7,4.6,4.1,11.4,4.1,19.1c0,5.5-0.5,10.9-1.4,16.3l-4-10.5L223,314.5z"/>
	<path class="st2" d="M220.6,261.1c0,0-4.7,5.9-19.4,5.9s-19.4-5.8-19.4-5.8l5.9-18.2h27L220.6,261.1z"/>
	<path class="st7" d="M221,249.2c0,0-8.7,6.8-19.8,6.8s-19.8-6.8-19.8-6.8s-13.7-87.3-8.6-115.8c2.4-13,18.6-38.6,28.4-38.6
		s26,25.6,28.3,38.6C234.7,161.9,221,249.2,221,249.2z"/>
	<path class="st2" d="M243,262.5c0,0-4.7,5.8-19.4,5.8s-19.4-5.8-19.4-5.8l5.9-18.1h27L243,262.5z"/>
	<path class="st4" d="M243.4,250.5c0,0-8.7,6.8-19.7,6.8s-19.8-6.8-19.8-6.8s-13.7-87.3-8.6-115.8c2.4-13,18.6-38.6,28.4-38.6
		s26,25.6,28.3,38.6C257.1,163.2,243.4,250.5,243.4,250.5z"/>
</g>
<g id="b-hand">
	<path class="st8" d="M11.7,28L11.7,28c0.7-2.5,3.5-5.5,8.5-4.9c5.3,0.6,11.2,3.4,14.3,5.1c1.4,0.7,2.2,1.2,2.2,1.2
		c7.3,7.1-1.6,11.2-1.6,11.2s-9.6-6.6-12.4-8.2s-8.3,0.4-10.4-1.3C11.5,30.5,11.3,29.3,11.7,28z"/>
	<path class="st9" d="M11.7,28L11.7,28c0.7-2.5,3.5-5.5,8.5-4.9c5.3,0.6,11.2,3.4,14.3,5.1c0.2,0.6,0.3,1.2,0.2,1.8
		c0,0-9.5-5.2-14.4-3.4C17.6,27.6,14.7,28.1,11.7,28z"/>
	<path class="st8" d="M63.8,42.7l-12-21.6c0,0-12.8-1.2-24.8,13.9c8.8,6.2,11.8,14.8,19.4,18.2C51.2,55.3,70,57.9,63.8,42.7z"/>
	<path class="st8" d="M17.2,21.1c-0.8-1-0.3-3,1.2-4.5c1.7-1.7,4.6-2.9,8.4-1.6c4.8,1.7,9.7,5.4,12.4,7.8c1.4,1.2,2.3,2,2.3,2
		c5.6,8.5-4.7,12.1-4.7,12.1s-6.5-7.9-8.8-10S18.9,23.2,17.2,21.1z"/>
	<path class="st9" d="M18.2,17.2l0.1-0.6c1.7-1.7,4.6-2.9,8.4-1.6c4.8,1.7,9.7,5.4,12.4,7.8l-0.2,3c0,0-9.6-6.1-12.9-6.9
		S18.2,17.2,18.2,17.2z"/>
	<path class="st8" d="M49.5,21c0,0-6.5-8.1-13.3-11.6s-11.7,2.5-10.2,4.8s7.8,4.7,9.9,7.1s7.5,11,7.5,11S53.9,30.1,49.5,21z"/>
	<polygon class="st9" points="45.3,16.5 44.4,34.4 55.4,25.8 	"/>
	<path class="st8" d="M61.4,41.4c0,0,2.3-7.3-1.7-19s-5-15.3-8.9-14.8s-4.8,6.2-3.5,12.1s-6.5,9.2-3.3,18.8S60.1,49.6,61.4,41.4z"/>
</g>
<path id="b-arm" class="st4" d="M81,111.1c0,0-5.2-9.8,2.4-18.2s17.9-4.2,17.9-4.2s24.5,14,34,22.7s17.2,16.2,21.4,22.8
	c2.9,4.6,6.9,12.6-2.6,23s-17.8,7.2-22.7,4.7c-6.9-3.5-15.2-10.5-24.7-19.1S81,111.1,81,111.1z"/>
<g id="b-forearm">
	<path class="st4" d="M45,54.9c0,0-0.8-6.4,5.8-10.9c8.2-5.6,14-3.7,14-3.7s12.4,13.1,20.9,23.4s15.7,25,15.7,25
		c2.1,6.3,1.5,13.2-1.7,19.1C93.5,119.3,88.6,121,88.6,121c-8.8-6.4-16.6-14.2-22.9-23.1C55.3,83.4,45,54.9,45,54.9z"/>
	<path class="st10" d="M43.2,53.8c0,0,3.1-11.8,21.2-15.6"/>
</g>
<path id="hips" class="st0" d="M205.6,307.9c-1.9,25.5-26.1,20.3-42.2,20.3s-32.7-1.7-38.8-12.8c-4.9-8.9-9.8-40.4-9.8-40.4
	l88.9,3.6C203.7,278.6,206.6,294.5,205.6,307.9z"/>
<g id="f-thigh">
	<path class="st0" d="M80.2,358.3c0,0-11-0.1-15.7-13.5s3.8-20.4,3.8-20.4s56.6-36.8,111-42.4c10.5-1.1,25.4,8.2,26.2,21.7
		c1,16.7-9.6,29.7-19.9,35.3C162.3,351.9,80.2,358.3,80.2,358.3z"/>
	<path class="st1" d="M184.3,283.3c-32.3,3.9-81,24-115.8,45l-4,9.4"/>
</g>
<g id="f-calf">
	<path class="st2" d="M108.5,441.2c4.2,6.2,4.3,23.2,4.1,30.8c-0.1,2.1-1.8,3.8-3.9,3.9c-5,0.1-15,0.4-30.8,0.9
		c-39,1.3-50.4-2.9-50.4-2.9c-0.5-3.4-0.4-6.9,0.3-10.3c1.2-5.6,19.7-4,29.7-8s19.2-7.6,19.2-7.6C81,428.1,99.9,428.6,108.5,441.2z"
		/>
	<path class="st3" d="M112.6,473.5c0,1.3-1.1,2.3-2.4,2.4c-4.3,0.1-14.7,0.3-32.2,0.9c-39,1.3-50.4-2.9-50.4-2.9
		c-0.4-2.4-0.4-4.9-0.1-7.3c-0.2,3.3,0.9,3.4,0.9,3.4s10.8,3.6,49.8,2.3c23.9-0.8,33.8-1.2,33.8-1.2s0.8-0.1,0.9-0.8
		C112.6,471.6,112.6,472.6,112.6,473.5z"/>
	<path class="st0" d="M112.1,444.8l-37.5-5.7L64.5,343c0,0,32.9-7.5,35.4,1C114.4,391.3,112.1,444.8,112.1,444.8z"/>
	<path class="st1" d="M70,347.9c0,0,5.2,67.9,8.5,96.2"/>
	<path class="st3" d="M73.8,344.9c0.8,4.8,0.9,14.4-3.9,18.2c-6.5,0.8-11.9-6.1-13-15.4s2.6-17.4,9-18.2
		C71.4,333.5,72.9,340.1,73.8,344.9z"/>
	<path class="st3" d="M114.1,444.4c0,1.4-0.9,2.6-2.2,3c-12.5,4-26,3.6-38.3-1.1c-1.2-0.5-2-1.7-2-3.1l0.2-6.6
		c0-1.1,0.9-1.9,1.9-1.9c0.2,0,0.5,0,0.7,0.1c12,4.4,25.1,4.8,37.3,1.1c1-0.3,2.1,0.2,2.4,1.2c0.1,0.2,0.1,0.4,0.1,0.7L114.1,444.4z
		"/>
</g>
<g id="torso">
	<path class="st8" d="M143.9,112.9c0,0-18,3.6-24.2,16.9s-15.4,26.4-8.6,56.5c0,0,68.3-59,81.1-63.1c12.8-4.1,10.1-0.5,3.9-10.3
		S143.9,112.9,143.9,112.9z"/>
	<path class="st2" d="M112.3,132.8c0,0,7.7-16.7,28.6-26.1s45.8-5.9,58.5,6.2s18.4,18.4,18.4,18.4s-6.4-9.4-20.6-5.9
		s-14.8-20.6-35.1-16.8c-30.4,5.7-38.3,17.8-42.5,28.4L112.3,132.8z"/>
	<path class="st0" d="M219.5,192.6c-0.9,4.6-11.5,52.4-16.7,69.1c-5.5,17.6-31.3,19-42.2,19.2c-11.2,0.2-39.1,0.3-45.1-18.7
		c-5.5-17.7-11.1-65.7-11.1-70.2c-0.1-16,6.7-39.2,6.7-39.2s-1.7,22.9,0,25.2c0,0,17.9-29.2,85-65c4.7,2.3,20.3,14.7,21.8,18.4
		C223.8,146.5,223.1,173.6,219.5,192.6z"/>
	<path class="st1" d="M174.4,128c-52,58.4-35.6,109.8-31.8,153.8"/>
	<path class="st3" d="M115,134.4c0,0-0.7,14.3,6.3,16.4s17.2,1.3,17.2,1.3l-27.5,34.3C111.1,186.3,106,169,115,134.4z"/>
	<path class="st3" d="M219.1,163.9c0,14.9-12.1,27-27,27s-27-12.1-27-27c0-14.9,8.4-31.1,27-31.1S219.1,149,219.1,163.9z"/>
	<path class="st2" d="M111.1,174c0,0-2.2-12.9,8.6-37l-7.4-4.1c0,0-15,33.1-3.9,66.1L111.1,174z"/>
	<path class="st3" d="M203.7,278.6c0,0-8.7,11.3-44.3,11.3s-44.9-11.3-44.9-11.3v-17.9c0,0,8.7,11.3,44.3,11.3
		c35.8,0,44.9-11.3,44.9-11.3V278.6z"/>
</g>
<g id="head">
	<path class="st8" d="M196.1,112.9c0,0-17.1,25.2-44.2,25.2s-30.1-20.9-30.1-20.9c-1.9-10.5-24.7-27.3-6.1-51.4
		c1-1.3,5.1-5.6,5.6-7.2c2.3-7.8-0.6-18.6-1.6-21.8c-0.2-0.6-7.8-12.5,12.1-14.4c1.8-0.9,3.8-1.7,5.9-2.5c10.5-4,23.1-6.9,30.6-6.9
		c15.2,0,25.2,17.7,20.1,33.3c-1.5,4.6-10.3,10.7-10.6,16.2C176.3,86.2,196.1,112.9,196.1,112.9z"/>
	<path class="st9" d="M143.9,46.5c0,0-13.4,16.6-22.2,10.3c2.3-7.8-1-16.8-2-20.1c2.4-0.5,8.5-1.6,12.5-0.5
		C137.3,37.6,143.9,46.5,143.9,46.5z"/>
	<path class="st9" d="M190.2,32.4c0,0,3.8,8-2.2,12.6s-13.3,0-13.3,0c-0.2,0.6-0.4,1.2-0.8,1.7c-0.8,1.4-2.3,2.3-3.9,2.3
		c-6.8,0-8-16.6-8-16.6l28.1-15.7C190.1,16.7,194.6,27.1,190.2,32.4z"/>
	<path class="st8" d="M168.1,38c2.1,2.5,4.3,4.8,6.6,7l-0.8,1.7c-0.8,1.4-2.3,2.3-3.9,2.3c-6.8,0-8-16.6-8-16.6l28.1-15.7
		C187.3,27.4,164.7,34.1,168.1,38z"/>
	<path class="st11" d="M134.2,82.7l-2.8-1.1c-0.9-0.4-1.4-1.4-1-2.4l2.7-6.9c0.4-0.9,1.4-1.4,2.4-1l2.8,1.1c0.9,0.4,1.4,1.4,1,2.4
		l-2.7,6.9C136.2,82.6,135.1,83.1,134.2,82.7z"/>
	<path class="st9" d="M150.7,94.7c-4.2,13.1-16.1,23.9-25,22.6c-13.2-2-26.9-11.8-30.6-18.8c-2.7-5-6.8-12.9-5-25.4
		c1.5-10.6,9.4-11.4,22.2-6.6c14.3,5.3,22.6,20.9,40.7,6.6C154.4,79.8,153.5,85.9,150.7,94.7z"/>
	<path class="st12" d="M138.1,48.5c0,0-1.3-9.4-14-9.5c-7.4,0-4.7,17.9-0.2,18.6C131.7,58.8,138.1,48.5,138.1,48.5z"/>
	<g>
		<defs>
			<path id="SVGID_1_" d="M138.1,48.5c0,0-1.3-9.4-14-9.5c-7.4,0-4.7,17.9-0.2,18.6C131.7,58.8,138.1,48.5,138.1,48.5z"/>
		</defs>
		<clipPath id="SVGID_2_">
			<use xlink:href="#SVGID_1_"  style="overflow:visible;"/>
		</clipPath>
		<g class="st13">
			<ellipse class="st14" cx="124.8" cy="46.1" rx="4" ry="10.3"/>
			<ellipse class="st15" cx="124.8" cy="46.1" rx="2.4" ry="3.2"/>
		</g>
	</g>
	<path class="st9" d="M143.9,27.5c-3.1-4.7-12.1-5.1-12.1-5.1c1.8-0.9,3.8-1.7,5.9-2.5C141.2,20.6,143.8,23.8,143.9,27.5z"/>
	<path class="st16" d="M93.1,66.1c3.6-3.6,10.2-3,19.2,0.3c14.3,5.3,22.6,20.9,40.7,6.6"/>
</g>
<g id="collar">
	<path class="st2" d="M186.7,112.9l12.8,15c0,0-58.3,18.3-91.1,71c-0.1-15.1,2.7-25,2.7-25S143.7,125.6,186.7,112.9z"/>
	<path class="st2" d="M186.7,112.9c0,0,11.9-5.5,18.6,0s24.2,20.6,23.6,29.2s-6.7,27.9-6.7,27.9s0.5-31.1-4.2-35s-10.2-10.1-18.4-7
		L186.7,112.9z"/>
</g>
<g id="f-hand">
	<path class="st8" d="M243.1,309.2c4.5-0.5,4.8-16.5,4.8-16.5l7.5,7.3c0,0-4.9,24.9,7.6,16.1c0.7,0,1.5-0.2,2.2-0.5
		c2.8-1.2,5-4.3,6-7.6c0.8-1.1,1.6-2.3,2.2-3.6c3-6,2.2-11.7,0.8-17.1c-1.8-6.4-10.8-14.1-15.1-17.5l-0.8-0.6l-1.6-1.2l-20.3,0.7
		c0,0,0.4,2.6,0.9,6.2c0.1,0.6,0.1,1.1,0.2,1.8c0.9,6.6,1.8,15.6,1.6,19.9C238.5,303.7,238.6,309.8,243.1,309.2z"/>
	<path class="st9" d="M263,316.2c0.7,0,1.5-0.2,2.2-0.5c1.7-5.3,1.5-11.1-0.6-16.3C264.6,299.4,265.8,310.4,263,316.2z"/>
	<path class="st9" d="M271.2,308.1c0.8-1.1,1.6-2.3,2.2-3.6c-0.1-3.8-0.7-8.9-3.1-11.1C271.5,298.2,271.8,303.2,271.2,308.1z"/>
</g>
<path id="f-arm" class="st3" d="M239.3,202.4c0,0,2.2,10.9-7.4,16.8s-18.3-1-18.3-1s-19.7-20.4-26.4-31.3s-12-20.4-14.2-27.9
	c-1.5-5.2-3.1-14,8.9-21.4s19.1-1.9,23.1,1.8c5.7,5.3,11.7,14.3,18.4,25.3S239.3,202.4,239.3,202.4z"/>
<g id="f-forearm">
	<path class="st3" d="M258.3,266.5c0,0-1,6.4-8.6,8.8c-9.4,3.1-14.5-0.3-14.5-0.3s-8.2-16.1-13.6-28.4s-8.1-28.4-8.1-28.4
		c-0.2-6.6,2.3-13.1,6.9-17.9c9.2-9.3,14.4-9.6,14.4-9.6c6.7,8.6,12,18.3,15.6,28.6C256.3,236.2,258.3,266.5,258.3,266.5z"/>
	<path class="st17" d="M259.7,268c0,0-6.3,10.4-24.7,9"/>
</g>
</svg>
