<?xml version="1.0" encoding="utf-8"?>
<!-- Generator: Adobe Illustrator 26.0.0, SVG Export Plug-In . SVG Version: 6.00 Build 0)  -->
<svg version="1.1" id="Layer_1" xmlns="http://www.w3.org/2000/svg" xmlns:xlink="http://www.w3.org/1999/xlink" x="0px" y="0px"
	 viewBox="0 0 651.1 1556.5" style="enable-background:new 0 0 651.1 1556.5;" xml:space="preserve">
<style type="text/css">
	.st0{fill:#060B47;}
	.st1{fill:#2DB6E0;}
	.st2{fill:#841263;}
	.st3{fill:none;stroke:#60024E;stroke-width:1.4678;stroke-linecap:round;stroke-miterlimit:10;}
	.st4{fill:#43DCFF;}
	.st5{fill:#FF4280;}
	.st6{fill:#F2D3DF;}
	.st7{fill:#E82169;}
	.st8{fill:none;stroke:#FF4DA2;stroke-width:1.4678;stroke-linecap:round;stroke-miterlimit:10;}
	.st9{fill:#FDFFFD;}
	.st10{clip-path:url(#SVGID_00000049917261108203758600000016688532798290951864_);}
	.st11{fill:#94B700;}
	.st12{fill:#140B2D;}
	.st13{fill:none;stroke:#060B47;stroke-width:2.0255;stroke-linecap:round;stroke-miterlimit:10;}
</style>
<g>
	<g transform="matrix(1 0 0 1 0 -405)">
		<g>
			<g>
				<g>
					<g>
						<g>
							<g>
								<path class="st0" d="M291.4,1150.8c0,0-13.6,17-56.3,17c-42.7,0-56.3-17-56.3-17l17.1-53.1h78.4L291.4,1150.8z"/>
								<path class="st1" d="M292.6,1115.6c0,0-25.3,19.9-57.2,19.9c-31.9,0-57.5-19.9-57.5-19.9s-39.8-255.9-25-339.5
									C159.7,738,207,663,235.1,663c28.2,0,75.5,75,82.1,113.2C332.4,859.7,292.6,1115.6,292.6,1115.6z"/>
								<path class="st0" d="M468.2,1150.8c0,0-13.6,17-56.3,17s-56.3-17-56.3-17l17.1-53.1h78.4L468.2,1150.8z"/>
								<path class="st1" d="M469.1,1115.6c0,0-25.3,19.9-57.2,19.9c-31.9,0-57.5-19.9-57.5-19.9s-39.8-255.9-25-339.5
									c7-38.1,54-113.2,82.4-113.2s75.5,75,82.1,113.2C508.8,859.7,469.1,1115.6,469.1,1115.6z"/>
								<path class="st2" d="M465.6,1306.4c0,0-58.6,23.5-142.2,23.5c-83.6,0-142.8-23.5-142.8-23.5l2.6-198.5h279.5L465.6,1306.4z"
									/>
								<path class="st2" d="M365.4,1555.3c0,0,11,30.5,52,30.5s52-30.5,52-30.5s46.4-192.3,9.3-348.3
									c-7.3-29.9-39.8-46.3-77.8-35.5c-46.7,13.5-61.5,105.8-61.5,105.8L365.4,1555.3z"/>
								<path class="st3" d="M416.5,1182.4c25.3,91.2,38.9,264.4,14.8,381.1"/>
								<path class="st2" d="M281.3,1555.3c0,0-11,30.5-52,30.5s-52.2-30.5-52.2-30.5s-46.1-192.3-9-348
									c7.3-29.9,39.8-46.3,77.8-35.5c46.7,13.5,61.5,105.8,61.5,105.8L281.3,1555.3z"/>
								<path class="st3" d="M230.5,1182.4c-25.3,91.2-38.9,264.4-14.8,381.1"/>
								<path class="st0" d="M350.4,1821.2c-11.6,15.8-14.2,57.5-14.5,82.1c-0.3,10.6,7.5,19.9,18,21.4c25.3,3.5,49.9,9.1,74.3,16.7
									c15.7,4.7,40.3,12.9,55.1,13.8c22.6,1.2,45.3-1.5,67-8.5c1.7-10,1.7-20.2,0-30.2c-2.9-16.4-34-15.5-62.7-28.1
									c-28.7-12.6-45.9-44-45.9-44C421.7,1825,376.5,1785.1,350.4,1821.2z"/>
								<path class="st4" d="M335.8,1907.7c0,6.4,6.4,12.9,11.9,15.8c9.9,5,29.3,10,67.9,19.9c29.6,7.9,44.4,16.1,62.7,17.6
									c49.6,3.8,72-14.1,72-14.1c1.5-5.6,1.7-11.1,1.2-17c-0.3,2.1-1.5,4.1-3.2,5.3c0,0-20.3,17.6-70.8,12.9
									c-17.7-1.8-31.3-10.3-59.8-17.6c-19.4-5.3-32.8-8.2-42.1-10.3c-23.2-5-30.2-6.7-36-12.6c-2-2.3-3.5-5.3-4.1-8.2
									C336.1,1901.2,335.8,1906.2,335.8,1907.7z"/>
								<path class="st2" d="M332.4,1847.3l108.8-16.4l29.3-281.7c0,0-95.5-22-102.7,2.9C326,1690.7,332.4,1847.3,332.4,1847.3z"/>
								<path class="st3" d="M431.6,1563.5c0,0-15.1,199-24.7,282"/>
								<path class="st4" d="M437,1509.5c18.8,2.2,31.4,26.1,28.3,53.3c-3.2,27.2-21,47.4-39.8,45.1c-18.8-2.2-31.4-26.1-28.3-53.3
									C400.4,1527.5,418.2,1507.3,437,1509.5z"/>
								<path class="st4" d="M326.6,1846.4c0,3.8,2.6,7.3,6.4,8.5c36.3,11.7,75.5,10.6,111.2-3.2c3.5-1.5,5.8-5,5.8-9.1l-0.6-19.3
									c0-3.2-2.6-5.6-5.8-5.6c-0.6,0-1.2,0.3-1.7,0.3c-34.8,12.9-72.9,14.1-108.3,3.2c-2.9-0.9-6.1,0.6-7,3.5
									c-0.3,0.6-0.3,1.2-0.3,1.8L326.6,1846.4z"/>
								<path class="st0" d="M300.1,1821.2c11.6,15.8,14.2,57.5,14.5,82.1c0.3,10.6-7.5,19.9-18,21.4c-25.3,3.5-49.9,9.1-74.3,16.7
									c-15.7,4.7-40.3,12.9-55.1,13.8c-22.6,1.2-45.3-1.5-67-8.5c-1.7-10-1.7-20.2,0-30.2c2.9-16.4,34-15.5,62.7-28.1
									c28.7-12.6,45.9-44,45.9-44C229,1825,274,1785.1,300.1,1821.2z"/>
								<path class="st4" d="M314.9,1907.7c0,6.4-6.4,12.9-11.9,15.8c-9.9,5-29.3,10-67.6,19.9c-29.6,7.9-44.4,16.1-62.7,17.6
									c-49.6,3.8-72-14.1-72-14.1c-1.5-5.6-1.7-11.1-1.2-17c0.3,2.1,1.5,4.1,3.2,5.3c0,0,20.3,17.6,70.8,12.9
									c17.7-1.8,31.3-10.3,59.8-17.6c19.4-5.3,32.8-8.2,42.1-10.3c23.2-5,30.2-6.7,36-12.6c2-2.3,3.5-5.3,4.1-8.2
									C314.7,1901.2,314.9,1906.2,314.9,1907.7z"/>
								<path class="st2" d="M314.4,1847.3l-108.8-16.4l-29.3-281.7c0,0,95.5-22,102.7,2.9C321,1690.7,314.4,1847.3,314.4,1847.3z"
									/>
								<path class="st3" d="M215.4,1563.5c0,0,15.1,199,24.7,282"/>
								<path class="st4" d="M249.7,1554.5c3.2,27.2-9.5,51-28.3,53.3s-36.6-18-39.8-45.1c-3.2-27.2,9.5-51,28.3-53.3
									S246.5,1527.3,249.7,1554.5z"/>
								<path class="st4" d="M320.2,1846.4c0,3.8-2.6,7.3-6.4,8.5c-36.3,11.7-75.5,10.6-111.2-3.2c-3.5-1.5-5.8-5-5.8-9.1l0.6-19.3
									c0-3.2,2.6-5.6,5.8-5.6c0.6,0,1.2,0.3,2,0.3c34.8,12.9,72.9,14.1,108.3,3.2c2.9-0.9,6.1,0.6,7,3.5c0.3,0.6,0.3,1.2,0.3,1.8
									L320.2,1846.4z"/>
								<path class="st5" d="M531.2,946.7c-46.1,203.4-124.5,252.4-207.8,252.4c-83.3,0-178.8-62.7-207.8-252.4
									C94.4,809.2,146,694.3,323.4,694.3C500.7,694.3,561.6,811.3,531.2,946.7z"/>
								<path class="st4" d="M205.2,807.8h228.1v119.9H205.2V807.8z"/>
								<path class="st2" d="M531.2,946.7c-3.2,13.5-6.1,26.1-8.7,37.8c-18.9,78.9-31.6,118.4-50.2,168.6
									c-19.4,52.8-109.1,66-149.2,66c-39.5,0-132.1-14.7-153-69.2c-19.4-50.4-34.8-91.5-48.8-166.5c-2-11.4-4.1-23.7-6.1-36.6
									c-8.7-56.6-5.2-109.3,14.5-151.8c7.8-17,18.6-32.8,31.9-46c28.2,59.8,84.5,155.1,163.1,173c0,0,112-66.8,175.9-158
									c7.3,9.1,13.6,19.1,18.9,29.6C540.7,836.5,543.9,889.9,531.2,946.7z"/>
								<path class="st3" d="M167.8,792.8c0,0,37.4,301.9,73.1,404.8"/>
								<path class="st3" d="M478.9,792.8c0,0-37.4,301.9-72.8,404.8"/>
								<path class="st4" d="M121.4,983.4c-4.6-10-65.9-139.8-54.9-183.5c5.2-21.4,67-45.7,85.6-51c10.2,6.2-0.3,62.1,5.8,76.2
									c12.5,28.7,13.4,61.3,2.9,90.9C142,970.5,121.4,983.4,121.4,983.4z"/>
								<path class="st4" d="M522.5,983.4c4.6-10,67.9-139.8,56.9-183.5c-5.2-21.4-65.9-45.7-84.5-51c-10.2,6.2,0.3,62.1-5.5,76.2
									c-12.5,28.7-13.4,61.3-2.9,90.9C505,970.5,522.5,983.4,522.5,983.4z"/>
								<path class="st4" d="M478.3,1198c0,0-30.2,21.1-154.4,21.1c-124.8,0-156.4-21.1-156.4-21.1v-52.5c0,0,30.2,21.1,154.4,21.1
									c124.8,0,156.4-21.1,156.4-21.1V1198z"/>
								<path class="st5" d="M412.5,495.3c0,0-4.6,37.8-5.5,53.6c-0.9,20.8,26.1,176.2,26.1,176.2s-31.1,61.3-109.7,61.3
									c-78.7,0-109.7-61.3-109.7-61.3s27-157.4,26.1-179.1c-0.6-15.2-5.2-51-5.2-51c0-44.3,44.7-90,88.8-90
									C367.5,405,412.5,450.7,412.5,495.3z"/>
								<path class="st6" d="M237.2,568.3l8.4-2.3c2.9-0.9,5.8,0.9,6.7,3.5l6.1,20.8c0.9,2.9-0.9,5.9-3.5,6.7l-8.4,2.3
									c-2.9,0.9-5.8-0.9-6.7-3.5l-6.4-20.8C232.5,572.1,234.3,569.2,237.2,568.3z"/>
								<path class="st6" d="M400.9,599.6l-8.4-2.3c-2.9-0.9-4.4-3.8-3.5-6.7l6.1-20.8c0.9-2.9,3.8-4.4,6.7-3.5l8.4,2.3
									c2.9,0.9,4.4,3.8,3.5,6.7l-6.1,20.8C406.7,598.8,403.8,600.5,400.9,599.6z"/>
								<path class="st7" d="M422.3,659.7c-12.5,37.2-57.8,65.1-99,65.1c-41.2,0-86.5-28.1-99-65.1c-9.3-27.8-4.1-49.2,0-68
									c33.7,0,36.6-31.7,99-31.1c58.9,0.6,65.6,31.1,99,31.1C426.7,611.4,431.9,631.9,422.3,659.7z"/>
								<path class="st7" d="M324.5,539.3c-34.2,0-64.4-52.5-64.4-52.5s40.1-12.6,64.4-12.6c24.4,0,64.4,12.6,64.4,12.6
									S358.8,539.3,324.5,539.3z"/>
								<path class="st7" d="M487.6,472.7c0,0,11,23.5-6.4,36.9c-17.4,13.5-38.6,0-38.6,0c-0.6,1.8-1.2,3.5-2.3,5
									c-2.3,4.1-6.7,6.7-11.3,6.7c-19.7,0-23.2-48.7-23.2-48.7l81.6-46C487.6,426.7,500.4,457.2,487.6,472.7z"/>
								<path class="st5" d="M423.5,489.1c6.1,7.3,12.5,14.1,19.2,20.5l-2.3,5c-2.3,4.1-6.7,6.7-11.3,6.7
									c-19.7,0-23.2-48.7-23.2-48.7l81.6-46C479.2,458.1,413.6,477.7,423.5,489.1z"/>
								<path class="st7" d="M159.4,472.7c0,0-11,23.5,6.4,36.9c17.4,13.5,38.6,0,38.6,0c0.6,1.8,1.2,3.5,2,5
									c2.3,4.1,6.7,6.7,11.3,6.7c19.7,0,23.2-48.7,23.2-48.7l-81.6-46C159.4,426.7,146.6,457.2,159.4,472.7z"/>
								<path class="st5" d="M223.5,489.1c-6.1,7.3-12.5,14.1-19.2,20.5l2,5c2.3,4.1,6.7,6.7,11.3,6.7c19.7,0,23.2-48.7,23.2-48.7
									l-81.6-46C167.8,458.1,233.1,477.7,223.5,489.1z"/>
								<path class="st7" d="M282.7,458.1c13.1-4.1,26.7-6.4,40.6-6.7c13.6,0.3,27.3,2.6,40.1,6.7c0,0-24.7-16.1-39.2-16.1
									C309.1,441.9,282.7,458.1,282.7,458.1z"/>
								<path class="st8" d="M224.4,591.7c33.7,0,36.6-31.7,99-31.1c58.9,0.6,65.6,31.1,99,31.1"/>
								<path class="st9" d="M367.5,509.4c-7.3,18.2-24.7,29.9-44.1,29.9c-24.4,0-40.9-18.8-44.1-29.9c0-18.8,19.7-27.6,44.1-27.6
									C347.7,481.8,367.5,488.5,367.5,509.4z"/>
								<g>
									<defs>
										<path id="SVGID_1_" d="M367.5,509.4c-7.3,18.2-24.7,29.9-44.1,29.9c-24.4,0-40.9-18.8-44.1-29.9
											c0-18.8,19.7-27.6,44.1-27.6S367.5,488.5,367.5,509.4z"/>
									</defs>
									<clipPath id="SVGID_00000115509377169159870870000006746649008057623985_">
										<use xlink:href="#SVGID_1_"  style="overflow:visible;"/>
									</clipPath>
									<g style="clip-path:url(#SVGID_00000115509377169159870870000006746649008057623985_);">
										<path class="st11" d="M353,500.9c0,16.7-13.4,30.2-29.9,30.2c-16.5,0-29.9-13.5-29.9-30.2c0-16.7,13.4-30.2,29.9-30.2
											C339.6,470.7,353,484.2,353,500.9z"/>
										<path class="st12" d="M340.8,500.9c0,5.2-7.9,9.4-17.7,9.4c-9.8,0-17.7-4.2-17.7-9.4c0-5.2,7.9-9.4,17.7-9.4
											C332.8,491.5,340.8,495.7,340.8,500.9z"/>
									</g>
								</g>
								<path class="st5" d="M105.4,1313.5c-12.8,2.6-28.2-41.6-28.2-41.6L63,1299.1c0,0,36,64.8-6.4,51.9c-2,0.6-4.4,0.9-6.4,0.6
									c-9-0.6-17.7-7.6-23.5-15.8c-3.2-2.3-6.4-5-9.3-7.9c-13.6-14.1-16.8-30.5-17.4-46.9c-0.9-19.3,16.8-49,25.8-62.4l1.5-2.3
									c2-2.9,3.5-4.7,3.5-4.7l56.6-16.7c0,0,1.2,7.3,3.2,17.9c0.3,1.8,0.6,3.2,0.9,5.3c3.8,19.3,9,45.1,13.6,56.9
									C112.9,1293.8,118.2,1310.8,105.4,1313.5z"/>
								<path class="st7" d="M56.6,1351c-2,0.6-4.4,0.9-6.4,0.6c-9.6-13.2-14.2-29.6-13.1-45.7C36.9,1305.5,43.6,1337.5,56.6,1351z"
									/>
								<path class="st7" d="M26.7,1335.7c-3.2-2.3-6.4-5-9.3-7.9c-3.2-10.6-6.1-25.2-1.5-33.7C16.9,1308.5,20.6,1322.5,26.7,1335.7
									z"/>
								<path class="st4" d="M15.4,1012.4c0,0,3.8,32.2,35.7,39.9c31.9,7.6,49.6-19.3,49.6-19.3s36-74.8,44.7-111.4
									c8.7-36.6,14.8-67.7,13.9-90.6c-0.6-15.8-4.1-41.9-43.8-51.6s-54.6,12-62.1,26.1c-11,19.9-19.4,50.7-28.2,87.4
									C16.6,929.4,15.4,1012.4,15.4,1012.4z"/>
								<path class="st4" d="M20.9,1208.2c0,0,8.7,16.7,31.6,16.7c28.7,0,39.8-14.1,39.8-14.1s8.1-52.5,11.9-91.5
									c3.8-39-3.5-86.5-3.5-86.5c-5.2-18.8-18-34.3-35.1-43.4C32,971.9,17.2,976,17.2,976c-10.7,30.2-16.5,61.9-17.1,93.8
									C-0.8,1122,20.9,1208.2,20.9,1208.2z"/>
								<path class="st13" d="M18.3,1213.8c0,0,26.7,23.5,76.3,2.6"/>
								<path class="st5" d="M545.7,1313.5c12.8,2.6,28.2-41.6,28.2-41.6l14.2,27.3c0,0-36,64.8,6.4,51.9c2,0.6,4.4,0.9,6.4,0.6
									c9-0.6,17.7-7.6,23.5-15.8c3.2-2.3,6.4-5,9.3-7.9c13.6-14.1,16.8-30.5,17.4-46.9c0.9-19.3-16.8-49-25.8-62.4l-1.7-2.3
									c-2-2.9-3.2-4.7-3.2-4.7l-56.6-16.7c0,0-1.2,7.3-3.2,17.9c-0.3,1.8-0.6,3.2-0.9,5.3c-3.8,19.3-9,45.1-13.6,56.9
									C537.8,1293.8,532.6,1310.8,545.7,1313.5z"/>
								<path class="st7" d="M594.2,1351c2,0.6,4.3,0.9,6.4,0.6c9.6-13.2,14.2-29.6,13.1-45.7C613.9,1305.5,607.2,1337.5,594.2,1351
									z"/>
								<path class="st7" d="M624,1335.7c3.2-2.3,6.4-5,9.3-7.9c3.2-10.6,6.1-25.2,1.4-33.7C633.9,1308.5,630.1,1322.5,624,1335.7z"
									/>
								<path class="st4" d="M631.3,1012.4c0,0-3.8,32.2-35.7,39.9c-31.9,7.6-49.6-19.3-49.6-19.3s-36-74.8-44.4-111.4
									c-8.4-36.6-14.8-67.7-13.9-90.6c0.6-15.8,4.1-41.9,43.8-51.6c39.8-9.7,54.6,12,62.1,26.1c11,19.9,19.2,50.7,27.9,87.4
									C630.1,929.4,631.3,1012.4,631.3,1012.4z"/>
								<path class="st4" d="M626.1,1208.2c0,0-8.7,16.7-31.6,16.7c-28.7,0-39.8-14.1-39.8-14.1s-8.1-52.5-11.9-91.5
									c-3.8-39,3.5-86.5,3.5-86.5c5.2-18.8,18-34.3,35.1-43.4c33.7-17.6,48.5-13.5,48.5-13.5c10.7,30.2,16.5,61.9,17.1,93.8
									C647.8,1122,626.1,1208.2,626.1,1208.2z"/>
								<path class="st13" d="M628.4,1213.8c0,0-26.7,23.5-76.3,2.6"/>
								<path class="st0" d="M200,712.2L67.1,756.5c0,0,90,164.5,256.3,209.6v-74.8C323.4,891.3,227.9,855,200,712.2z"/>
								<path class="st0" d="M446.7,712.2l132.9,44.3c0,0-90,164.5-256.3,209.6v-74.8C323.4,891.3,419.1,855,446.7,712.2z"/>
							</g>
						</g>
					</g>
				</g>
			</g>
		</g>
	</g>
</g>
</svg>
