<?xml version="1.0" encoding="utf-8"?>
<!-- Generator: Adobe Illustrator 25.2.0, SVG Export Plug-In . SVG Version: 6.00 Build 0)  -->
<svg version="1.1" id="Layer_1" xmlns="http://www.w3.org/2000/svg" xmlns:xlink="http://www.w3.org/1999/xlink" x="0px" y="0px"
	 viewBox="0 0 204 544" style="enable-background:new 0 0 204 544;" xml:space="preserve">
<style type="text/css">
	.st0{fill:#BCFC30;}
	.st1{fill:#E1FF8F;}
	.st2{fill:#060B47;}
	.st3{fill:#2DB6E0;}
	.st4{fill:#FF4280;}
	.st5{fill:#E82169;}
	.st6{fill:#43DCFF;}
	.st7{fill:none;stroke:#060B47;stroke-width:4.13;stroke-linecap:round;stroke-miterlimit:10;}
	.st8{fill:#841263;}
	.st9{fill:none;stroke:#60024E;stroke-width:3;stroke-linecap:round;stroke-miterlimit:10;}
	.st10{fill:none;stroke:#060B47;stroke-width:4.14;stroke-linecap:round;stroke-miterlimit:10;}
	.st11{fill:#FDFFFD;}
	.st12{clip-path:url(#SVGID_2_);}
	.st13{fill:#94B700;}
	.st14{fill:#140B2D;}
	.st15{fill:#F2D3DF;}
	.st16{fill:none;stroke:#FF4DA2;stroke-width:3;stroke-linecap:round;stroke-miterlimit:10;}
</style>
<g id="rockets">
	<path class="st0" d="M144.8,244c-9,7.5-14.1,18.6-14.1,30.4c0,17.5,5.3,27.2,5.3,27.2l7.1-15.9c0,0,5.9,25.8,13.7,42.1l9-29.6
		l6.8,13.1c0,0,5.8-16.1,3.2-39C173.5,253,163.3,237.1,144.8,244z"/>
	<path class="st1" d="M156,306.1c-3.6-11.5-6-21.8-6.1-22l-4.7-20.6l-7.2,16.4c-0.1-1.8-0.2-3.6-0.2-5.6c0-9.2,3.8-17.9,10.6-24.1
		c1.1-0.4,2.2-0.6,3.4-0.8c2.7-0.3,6.8-0.1,10.7,5.1c3.2,4.2,5.4,10.8,6.2,18.5c0.6,5.4,0.8,10.9,0.5,16.4l-5.1-10L156,306.1z"/>
	<path class="st2" d="M126.9,250c0,0-4.7,5.8-19.4,5.8S88.1,250,88.1,250l5.9-18.1h27L126.9,250z"/>
	<path class="st3" d="M127.3,238c0,0-8.7,6.8-19.8,6.8S87.8,238,87.8,238S74,150.7,79.2,122.2c2.3-13,18.6-38.6,28.3-38.6
		s26,25.6,28.4,38.6C141,150.7,127.3,238,127.3,238z"/>
	<path class="st2" d="M173.7,256c0,0-4.7,5.8-19.4,5.8s-19.4-5.8-19.4-5.8l5.9-18.1h27L173.7,256z"/>
	<path class="st3" d="M174.1,244c0,0-8.7,6.8-19.7,6.8s-19.7-6.8-19.7-6.8s-13.7-87.3-8.6-115.8c2.4-13,18.6-38.6,28.4-38.6
		s26,25.6,28.3,38.6C187.8,156.7,174.1,244,174.1,244z"/>
</g>
<g id="l-hand">
	<path class="st4" d="M51.9,307.7L51.9,307.7c-2.1,1.5-6.1,2.1-9.7-1.4c-3.8-3.8-6.7-9.6-8.1-12.8c-0.6-1.4-1-2.3-1-2.3
		c-1.4-10.1,8.2-7.8,8.2-7.8s3.6,11.1,4.8,14s6.8,4.8,7.4,7.5C53.5,306,53,307.1,51.9,307.7z"/>
	<path class="st5" d="M51.9,307.7L51.9,307.7c-2.1,1.5-6.1,2.1-9.7-1.4c-3.8-3.8-6.7-9.6-8.1-12.8c0.1-0.6,0.5-1.1,0.9-1.5
		c0,0,4.3,9.9,9.2,11.5C47,304.4,49.7,305.8,51.9,307.7z"/>
	<path class="st4" d="M20,264l-3.8,24.5c0,0,9.3,8.8,28.1,4.3c-3.1-10.3-0.1-18.9-4-26.3C37.7,261.8,24.5,248.2,20,264z"/>
	<path class="st4" d="M43.4,309.7c0,1.3-1.6,2.6-3.7,2.9c-2.4,0.4-5.4-0.5-7.6-3.9c-2.7-4.3-4.2-10.2-5-13.8c-0.4-1.8-0.5-3-0.5-3
		c0.8-10.1,11.2-6.7,11.2-6.7s0.2,10.2,0.8,13.3S43.4,307,43.4,309.7z"/>
	<path class="st5" d="M40.2,312.1l-0.5,0.5c-2.4,0.4-5.4-0.5-7.6-3.9c-2.7-4.3-4.2-10.2-5-13.8l1.9-2.2c0,0,3.8,10.7,5.9,13.4
		S40.2,312.1,40.2,312.1z"/>
	<path class="st4" d="M17.9,290c0,0,0.2,10.4,3.4,17.3s10.8,5.2,11,2.5s-3.3-8.5-3.4-11.7s0.9-13.3,0.9-13.3S20,280,17.9,290z"/>
	<polygon class="st5" points="18.3,296 30.2,282.5 16.1,282.5 	"/>
	<path class="st4" d="M21.1,266.5c0,0-6.3,4.3-10.4,16s-5.5,15.1-2.1,17.2s7.6-1.9,10.2-7.4s10.8-3.2,14.2-12.8
		S27.1,260.9,21.1,266.5z"/>
</g>
<path id="l-arm" class="st6" d="M15.8,198c0,0,1.3,11,12.3,13.6s17.1-6.6,17.1-6.6s12.4-25.4,15.3-37.9s5.1-23.1,4.8-30.9
	c-0.2-5.4-1.4-14.3-15.1-17.6s-18.8,4.1-21.4,8.9c-3.8,6.8-6.7,17.2-9.6,29.7S15.8,198,15.8,198z"/>
<g id="l-forearm">
	<path class="st6" d="M17.7,264.7c0,0,3,5.7,10.9,5.7c9.9,0,13.7-4.8,13.7-4.8s2.8-17.8,4.1-31.1S45.2,205,45.2,205
		c-1.8-6.4-6.2-11.7-12.1-14.8c-11.6-6-16.7-4.6-16.7-4.6c-3.7,10.3-5.7,21.1-5.9,32C10.2,235.4,17.7,264.7,17.7,264.7z"/>
	<path class="st7" d="M16.8,266.6c0,0,9.2,7.9,26.3,0.9"/>
</g>
<path id="hips" class="st8" d="M155.1,311.3c-11.5,32.3-39.3,10.8-58.3,5.8c-30.6-8-49.1-16-49.1-16l1-59.7l106.4,29.9
	C155.1,271.3,160.4,296.5,155.1,311.3z"/>
<g id="l-thigh">
	<path class="st8" d="M88.8,394c0,0-3.8,10.4-17.9,10.4S52.9,394,52.9,394S37,328.4,49.8,275.2c2.5-10.2,13.7-15.8,26.8-12.1
		c16.1,4.6,22.2,36.1,22.2,36.1L88.8,394z"/>
	<path class="st9" d="M61.7,265.2c-8.7,31.1-8.3,90-0.1,129.9"/>
</g>
<g id="l-calf">
	<path class="st2" d="M95.3,484.7c4,5.4,4.9,19.6,5,28c0.1,3.6-2.6,6.8-6.2,7.3c-8.7,1.2-17.2,3.1-25.6,5.7
		c-5.4,1.6-13.9,4.4-19,4.7c-7.8,0.4-15.6-0.5-23.1-2.9c-0.6-3.4-0.6-6.9,0-10.3c1-5.6,11.7-5.3,21.6-9.6s15.8-15.1,15.8-15.1
		C70.8,486,86.3,472.4,95.3,484.7z"/>
	<path class="st6" d="M100.3,514.2c0,2.2-2.2,4.4-4.1,5.4c-3.4,1.7-10.1,3.4-23.3,6.8c-10.2,2.7-15.3,5.5-21.6,6
		c-17.1,1.3-24.8-4.8-24.8-4.8c-0.5-1.9-0.6-3.8-0.4-5.8c0.1,0.7,0.5,1.4,1,1.8c0,0,7,6,24.4,4.4c6.1-0.6,10.8-3.5,20.6-6
		c6.7-1.8,11.3-2.8,14.5-3.5c8-1.7,10.4-2.3,12.4-4.3c0.7-0.8,1.2-1.8,1.4-2.8C100.3,512,100.3,513.7,100.3,514.2z"/>
	<path class="st8" d="M100.2,493.6L62.7,488l-10.1-96.2c0,0,32.8-7.5,35.4,1C102.5,440.2,100.2,493.6,100.2,493.6z"/>
	<path class="st9" d="M61.4,396.8c0,0,5.2,67.9,8.5,96.2"/>
	
		<ellipse transform="matrix(0.9931 -0.1172 0.1172 0.9931 -45.8867 9.7361)" class="st6" cx="59.8" cy="395.1" rx="11.8" ry="16.9"/>
	<path class="st6" d="M102.2,493.2c0,1.3-0.9,2.5-2.2,2.9c-12.5,4-26,3.6-38.3-1.1c-1.2-0.5-2-1.7-2-3.1l0.2-6.6
		c0-1.1,0.9-1.9,2-1.9c0.2,0,0.4,0.1,0.7,0.1c12,4.4,25.1,4.8,37.3,1.1c1-0.3,2.1,0.2,2.4,1.2c0.1,0.2,0.1,0.4,0.1,0.6L102.2,493.2z
		"/>
</g>
<g id="r-thigh">
	<path class="st8" d="M145.5,398.8c0,0-3.8,10.4-17.9,10.4s-18-10.4-18-10.4s-15.9-65.6-3.1-118.8c2.5-10.2,13.7-15.8,26.8-12.1
		c16.1,4.6,25.3,24.7,23.6,36.7C152.2,336.1,145.5,398.8,145.5,398.8z"/>
	<path class="st9" d="M118.4,270c-8.7,31.1-8.4,90-0.1,129.9"/>
</g>
<g id="torso">
	<path class="st4" d="M141.4,112.1c0,0-16.4-12.1-33.3-11.8s-50.8,6.8-57.7,10.5s-18.8,69,21,72.7s74.6-4.6,78.2-32.2
		S141.4,112.1,141.4,112.1z"/>
	<path class="st6" d="M117.7,187l-78.4-15.7l2-40.9c0,0,25.5,15.5,78.4,15.7C129.9,146.2,117.7,187,117.7,187z"/>
	<path class="st2" d="M137.5,106.4l41.4,12.4c0,0-13,58.3-52.6,64.5L104,171.3C104,171.3,140.6,140.5,137.5,106.4z"/>
	<path class="st8" d="M174.3,186.2c-1,4.6-2,8.8-3,12.8c-6.4,26.5-10.7,39.7-17,56.4c-6.6,17.6-37,20.1-50.6,19.2
		c-13.4-0.9-46.9,0.3-54-18.7c-6.6-17.7-9.6-40.3-14.3-66.2l0,0c-0.7-3.9-1.4-8.1-2.1-12.7c-3-19.5-1.7-37.4,5-51.5
		c2.6-5.6,6.3-10.7,10.8-15c9.5,21-0.5,36.2,22.3,62.7c0,0,53.3-29,74.9-58.6c5.6,2.3,22.3,15.5,24,19.2
		C177.6,148.8,178.7,167.1,174.3,186.2z"/>
	<path class="st9" d="M46.7,116.7c-17.3,39.3,2.8,113.5,15,148.5"/>
	<path class="st9" d="M134.8,128.5c-27.7,34.5-31.1,107.1-31.1,143.4"/>
	
		<ellipse transform="matrix(0.2209 -0.9753 0.9753 0.2209 -31.4156 279.4611)" class="st6" cx="159.2" cy="159.4" rx="33.2" ry="23.9"/>
	<path class="st2" d="M62.7,104.7c-13.6,3.2-33.9,9.5-33.9,9.5s-3.9,19.8,5.1,38.7C44.7,175.3,59.8,188,71.4,193v-25.5
		C71.4,167.5,44.8,139.6,62.7,104.7z"/>
	<path class="st6" d="M155.1,271.3c0,0-10.4,10.7-53.2,8.6c-43-2.2-53.9-14-53.9-14L46.6,248c0,0,11.8,11.8,54.7,13.9
		c43,2.2,53.9-8.6,53.9-8.6L155.1,271.3z"/>
</g>
<g id="r-calf">
	<g id="foot">
		<path class="st2" d="M152,490.3c4,5.4,4.7,15.5,4.9,23.9c0.1,3.7,1.6,6.3-6.1,11.4c-4.9,3.3-13,11.1-24.4,11.9
			c-18.5,1.3-29.5-3.2-29.5-3.2c-1.1-3.7-1.4-7.6-0.8-11.5c1-5.6,7.3-1.9,14.9-9.5c8.8-8.8,11.4-22.9,11.4-22.9
			C129.3,483.9,143,478.1,152,490.3z"/>
		<path class="st6" d="M150.8,525.7c-4.9,3.3-13,11.1-24.4,11.9c-18.5,1.3-29.5-3.2-29.5-3.2c-0.4-1.4-0.7-2.9-0.9-4.4
			c9.9,2.7,20.3,3.7,30.5,2.9c11.4-0.8,19.2-8.4,24.1-11.7c4.4-3,5.8-5.4,6.2-7.6c0,0.2,0,0.5,0,0.7
			C156.9,517.9,158.4,520.6,150.8,525.7z"/>
	</g>
	<path class="st8" d="M156.9,498.4l-37.5-5.7l-10.1-96.1c0,0,32.9-7.5,35.4,1C159.2,444.9,156.9,498.4,156.9,498.4z"/>
	<path class="st9" d="M118.1,401.5c0,0,5.2,67.9,8.5,96.2"/>
	
		<ellipse transform="matrix(0.9931 -0.1172 0.1172 0.9931 -46.0548 16.4099)" class="st6" cx="116.5" cy="399.8" rx="11.8" ry="16.9"/>
	<path class="st6" d="M158.9,498c0,1.3-0.9,2.5-2.2,2.9c-12.5,4-26,3.6-38.3-1.1c-1.2-0.5-2-1.7-2-3.1l0.2-6.6c0-1.1,0.9-1.9,2-1.9
		c0.2,0,0.4,0.1,0.7,0.1c12,4.4,25.1,4.8,37.3,1.1c1-0.3,2.1,0.2,2.4,1.2c0.1,0.2,0.1,0.4,0.1,0.7L158.9,498z"/>
</g>
<g id="r-hand">
	<path class="st4" d="M163.7,311.4c4.4,0.9,9.7-14.2,9.7-14.2l4.9,9.3c0,0-12.4,22.1,2.2,17.7c0.7,0.2,1.5,0.3,2.2,0.2
		c3.1-0.2,6.1-2.6,8.1-5.4c1.1-0.8,2.2-1.7,3.2-2.7c4.7-4.8,5.8-10.4,6-16c0.3-6.6-5.8-16.7-8.9-21.3l-0.6-0.8
		c-0.7-1-1.1-1.6-1.1-1.6l-19.5-5.7c0,0-0.4,2.5-1.1,6.1c-0.1,0.6-0.2,1.1-0.3,1.8c-1.3,6.6-3.1,15.4-4.7,19.4
		C161,304.8,159.2,310.5,163.7,311.4z"/>
	<path class="st5" d="M180.4,324.3c0.7,0.2,1.5,0.3,2.2,0.2c3.3-4.5,4.9-10.1,4.5-15.6C187.2,308.8,184.9,319.6,180.4,324.3z"/>
	<path class="st5" d="M190.7,319.1c1.1-0.8,2.2-1.7,3.2-2.7c1.1-3.6,2.1-8.6,0.5-11.5C194.1,309.8,192.8,314.6,190.7,319.1z"/>
</g>
<path id="r-arm" class="st6" d="M193.2,208.8c0,0-1.2,11-12.2,13.6s-17.1-6.6-17.1-6.6s-12.4-25.5-15.3-38s-5.1-23.1-4.8-30.9
	c0.2-5.4,1.4-14.3,15.1-17.6s18.8,4.1,21.4,8.9c3.8,6.8,6.6,17.3,9.6,29.8S193.2,208.8,193.2,208.8z"/>
<g id="r-forearm">
	<path class="st6" d="M191.4,275.5c0,0-3,5.7-10.9,5.7c-9.9,0-13.7-4.8-13.7-4.8s-2.8-17.9-4.1-31.2s1.2-29.5,1.2-29.5
		c1.9-6.4,6.2-11.7,12.2-14.8c11.6-6,16.7-4.6,16.7-4.6c3.7,10.3,5.7,21.1,5.9,32C198.9,246.2,191.4,275.5,191.4,275.5z"/>
	<path class="st10" d="M192.2,277.5c0,0-9.2,8-26.3,0.9"/>
</g>
<g id="head">
	<path class="st5" d="M56.4,23.3c0,0-4.8,7.3,0.4,12.8S70,37.9,70,37.9c0.1,0.6,0.3,1.2,0.5,1.8c0.6,1.5,1.9,2.6,3.5,2.8
		c6.8,1,10.2-15.3,10.2-15.3L58.6,7.7C58.6,7.7,52.8,17.4,56.4,23.3z"/>
	<path class="st4" d="M77.5,31.9c-2.4,2.2-4.9,4.2-7.5,6l0.5,1.8c0.6,1.5,1.9,2.6,3.5,2.8c6.8,1,10.2-15.3,10.2-15.3L58.6,7.7
		C60,18.7,81.3,28.5,77.5,31.9z"/>
	<path class="st4" d="M125.5,37.6c0,0-3.2,7.7-3.5,13.1c-1.4,23.9,15.4,55.7,15.4,55.7s-17.1,25.2-44.2,25.2s-30.1-20.9-30.1-20.9
		c-1.9-10.5-12.1-28.7-3.5-56.1c2.6-8.4,3-22.3,3-22.3c0-15.2,31.8-25.9,47-25.9S128.6,21.5,125.5,37.6z"/>
	<path class="st5" d="M77.9,54.1c-11.8-1.9-10.6-11.5-10.4-19.6c-0.5-1.4-1.3-2.7-2.2-3.9c0,0,8.4-2.1,13.6-0.8s17.8,10.2,17.8,10.2
		S89.1,55.9,77.9,54.1z"/>
	<path class="st5" d="M141.7,39.3c0,0,3.8,8-2.2,12.6s-13.3,0-13.3,0c-0.2,0.6-0.4,1.2-0.8,1.7c-0.8,1.4-2.3,2.3-3.9,2.3
		c-6.8,0-8-16.6-8-16.6l28.1-15.7C141.7,23.6,146.1,34,141.7,39.3z"/>
	<path class="st4" d="M119.6,44.9c2.1,2.5,4.3,4.8,6.6,7l-0.8,1.7c-0.8,1.4-2.3,2.3-3.9,2.3c-6.8,0-8-16.6-8-16.6l28.1-15.8
		C138.8,34.3,116.3,41,119.6,44.9z"/>
	<path class="st5" d="M70.3,22.5c3.8-1.2,7.9-1.6,11.9-1c4.3,0.6,8.4,2.3,11.9,4.9c0,0-1.4-7.5-6.4-8C79.9,17.6,70.3,22.5,70.3,22.5
		z"/>
	<path class="st11" d="M92.8,43.6c-1.3,4.2-7.3,9.7-14.2,9.3c-6-0.2-10.7-5.2-10.5-11.2c0-6.4,3.6-8.9,10.5-8.4
		C85.5,33.7,92.8,36.5,92.8,43.6z"/>
	<g>
		<defs>
			<path id="SVGID_1_" d="M92.8,43.6c-1.3,4.2-7.3,9.7-14.2,9.3c-6-0.2-10.7-5.2-10.5-11.2c0-6.4,3.6-8.9,10.5-8.4
				C85.5,33.7,92.8,36.5,92.8,43.6z"/>
		</defs>
		<clipPath id="SVGID_2_">
			<use xlink:href="#SVGID_1_"  style="overflow:visible;"/>
		</clipPath>
		<g class="st12">
			
				<ellipse transform="matrix(0.9922 -0.1246 0.1246 0.9922 -4.3416 10.1125)" class="st13" cx="78.6" cy="39.8" rx="8.4" ry="10.4"/>
			<ellipse transform="matrix(0.1075 -0.9942 0.9942 0.1075 30.6658 113.6794)" class="st14" cx="78.6" cy="39.8" rx="3.2" ry="5"/>
		</g>
	</g>
	<path class="st15" d="M89.7,74.8l-2.9-0.8c-1-0.3-1.5-1.3-1.2-2.3l2.1-7.1c0.3-1,1.3-1.5,2.3-1.2l2.9,0.8c1,0.3,1.5,1.3,1.2,2.3
		L92,73.5C91.7,74.5,90.7,75.1,89.7,74.8z"/>
	<path class="st5" d="M104.8,86.8c-3.2,13.4-9.4,22-18.1,23.9c-13.9,3-29.1-3.2-36.3-14.5c-6.1-9.2-9.2-20-8.9-31
		c0.2-10.7,10.7-11.3,23.8-7.6c23,6.4,24.3,25,42.5,9C109.3,73.4,107.2,77.1,104.8,86.8z"/>
	<path class="st16" d="M42,61.7c2.3-7.2,11.8-7.3,23.3-4.1c23,6.4,24.3,25,42.5,9"/>
</g>
<path id="front_collar" class="st2" d="M138.6,104.7c13,5.1,28,9.1,40.3,14.2c-0.5,2.7-2.8,9.6-2.8,9.6s-13,0-30.3,11.6
	c-17.6,11.8-40.2,37.2-74.3,52.9v-25.5C71.4,167.5,108,125.7,138.6,104.7z"/>
</svg>
