<?xml version="1.0" encoding="utf-8"?>
<!-- Generator: Adobe Illustrator 25.2.0, SVG Export Plug-In . SVG Version: 6.00 Build 0)  -->
<svg version="1.1" id="Layer_1" xmlns="http://www.w3.org/2000/svg" xmlns:xlink="http://www.w3.org/1999/xlink" x="0px" y="0px"
	 viewBox="0 0 359.2 474" style="enable-background:new 0 0 359.2 474;" xml:space="preserve">
<style type="text/css">
	.st0{fill:#060B47;}
	.st1{fill:#2DB6E0;}
	.st2{fill:#841263;}
	.st3{fill:none;stroke:#60024E;stroke-width:3;stroke-linecap:round;stroke-miterlimit:10;}
	.st4{fill:#43DCFF;}
	.st5{fill:#FF4280;}
	.st6{fill:#E82169;}
	.st7{fill:none;stroke:#060B47;stroke-width:4.14;stroke-linecap:round;stroke-miterlimit:10;}
	.st8{fill:#F2D3DF;}
	.st9{fill:none;stroke:#FF4DA2;stroke-width:3;stroke-linecap:round;stroke-miterlimit:10;}
	.st10{fill:#FDFFFD;}
	.st11{clip-path:url(#SVGID_2_);}
	.st12{fill:#94B700;}
	.st13{fill:#140B2D;}
</style>
<g id="rocket">
	<path class="st0" d="M225.1,261.9c0,0-4.7,5.8-19.4,5.8s-19.4-5.8-19.4-5.8l5.9-18.1h27L225.1,261.9z"/>
	<path class="st1" d="M225.5,249.9c0,0-8.7,6.8-19.8,6.8s-19.7-6.8-19.7-6.8s-13.7-87.3-8.6-115.8c2.3-13,18.6-38.6,28.3-38.6
		s26,25.6,28.4,38.6C239.2,162.6,225.5,249.9,225.5,249.9z"/>
	<path class="st0" d="M286,261.9c0,0-4.7,5.8-19.4,5.8s-19.4-5.8-19.4-5.8l5.9-18.1h27L286,261.9z"/>
	<path class="st1" d="M286.3,249.9c0,0-8.7,6.8-19.7,6.8s-19.8-6.8-19.8-6.8s-13.7-87.3-8.6-115.8c2.4-13,18.6-38.6,28.4-38.6
		s26,25.6,28.3,38.6C300,162.6,286.3,249.9,286.3,249.9z"/>
</g>
<path id="hips" class="st2" d="M285.1,315c0,0-20.1,8-49,8s-49.1-8-49.1-8l0.9-67.7h96.3L285.1,315z"/>
<g id="r-thigh">
	<path class="st2" d="M270.3,334.7c28.5,22.8,41.7,13.4,46.3,0.4s1.8-23.2-1.8-27.8c-10.6-13.7-22.6-29.6-55.3-37.5
		c-6.3-1.5-13,6.7-15.3,20.1c-2.8,16.5,1.5,26.4,1.5,26.4S264.1,329.7,270.3,334.7z"/>
	<path class="st3" d="M268.1,281c31.9,5.6,46.8,33.7,39.3,56.7"/>
</g>
<g id="r-calf">
	<path class="st0" d="M275.3,421.3c-4,5.4-4.7,15.5-4.9,23.9c-0.1,3.6-0.5,8.8,6,10.4c12.6,3.1,13,12.1,24.4,12.9
		c18.5,1.3,29.5-3.2,29.5-3.2c1.1-3.7,1.4-7.6,0.8-11.5c-1-5.6-7.3-1.9-14.9-9.5c-8.8-8.8-11.4-22.9-11.4-22.9
		C297.9,414.9,284.3,409,275.3,421.3z"/>
	<path class="st4" d="M276.4,456.6c8.2,1.2,13,11.1,24.4,11.9c18.5,1.3,29.5-3.2,29.5-3.2c0.4-1.4,0.7-2.9,0.9-4.4
		c-9.9,2.7-20.3,3.7-30.5,2.9c-11.5-0.8-18.4-10.2-24.1-11.7c-6.7-1.8-5.8-5.4-6.2-7.6c0,0.2,0,0.5,0,0.7
		C270.3,448.9,267.4,455.3,276.4,456.6z"/>
	<path class="st2" d="M270.3,431.3l37.5-5.7l11-99.1c0,0-33.7-4.5-36.3,4C268,377.8,270.3,431.3,270.3,431.3z"/>
	<path class="st3" d="M304.4,334.4c0,0-5.2,67.9-8.5,96.1"/>
	
		<ellipse transform="matrix(0.1172 -0.9931 0.9931 0.1172 -61.7657 596.0847)" class="st4" cx="304.4" cy="332.8" rx="16.9" ry="11.8"/>
	<path class="st4" d="M268.3,430.9c0,1.3,0.9,2.5,2.2,3c12.5,4,26,3.6,38.3-1.1c1.2-0.5,2-1.7,2-3.1l-0.2-6.6c0-1.1-0.9-1.9-2-1.9
		c-0.2,0-0.4,0.1-0.7,0.1c-12,4.4-25.1,4.8-37.3,1.1c-1-0.3-2.1,0.2-2.4,1.2c-0.1,0.2-0.1,0.4-0.1,0.6L268.3,430.9z"/>
</g>
<g id="l-thigh">
	<path class="st2" d="M202,334.7c-28.5,22.8-41.7,13.4-46.4,0.4s-1.8-23.2,1.8-27.8c10.6-13.7,22.6-29.6,55.3-37.5
		c6.3-1.5,13,6.7,15.3,20.1c2.8,16.5-1.5,26.4-1.5,26.4S208.2,329.7,202,334.7z"/>
	<path class="st3" d="M204.2,281c-31.9,5.6-46.9,33.7-39.3,56.7"/>
</g>
<g id="l-calf">
	<path class="st0" d="M197.1,421.3c4,5.4,4.7,15.5,4.9,23.9c0.1,3.6,0.5,8.8-6,10.4c-12.6,3.1-13,12.1-24.4,12.9
		c-18.5,1.3-29.5-3.2-29.5-3.2c-1.1-3.7-1.4-7.6-0.8-11.5c1-5.6,7.3-1.9,14.9-9.5c8.8-8.8,11.4-22.9,11.4-22.9
		C174.4,414.9,188.1,409,197.1,421.3z"/>
	<path class="st4" d="M195.9,456.6c-8.1,1.2-13,11.1-24.4,11.9c-18.5,1.3-29.5-3.2-29.5-3.2c-0.4-1.4-0.7-2.9-0.9-4.4
		c9.9,2.7,20.3,3.7,30.6,2.9c11.4-0.8,18.4-10.2,24.1-11.7c6.8-1.8,5.8-5.4,6.2-7.6c0,0.2,0,0.5,0,0.7
		C202,448.9,204.9,455.3,195.9,456.6z"/>
	<path class="st2" d="M202,431.3l-37.5-5.7l-11-99.1c0,0,33.7-4.5,36.3,4C204.3,377.8,202,431.3,202,431.3z"/>
	<path class="st3" d="M167.9,334.4c0,0,5.2,67.9,8.5,96.1"/>
	
		<ellipse transform="matrix(0.9927 -0.1203 0.1203 0.9927 -38.6353 22.6661)" class="st4" cx="168.4" cy="331.2" rx="11.7" ry="16.9"/>
	<path class="st4" d="M204,430.9c0,1.3-0.9,2.5-2.2,3c-12.5,4-26,3.6-38.3-1.1c-1.2-0.5-2-1.7-2-3.1l0.2-6.6c0-1.1,0.9-1.9,2-1.9
		c0.2,0,0.4,0.1,0.7,0.1c12,4.4,25.1,4.8,37.3,1.1c1-0.3,2.1,0.2,2.4,1.2c0.1,0.2,0.1,0.4,0.1,0.6L204,430.9z"/>
</g>
<g id="torso">
	<path class="st5" d="M307.7,192.2c-15.9,69.4-43,86.1-71.6,86.1s-61.6-21.5-71.6-86.1c-7.3-46.9,10.5-86.1,71.6-86.1
		S318.3,146.1,307.7,192.2z"/>
	<rect x="195.4" y="144.8" class="st4" width="78.6" height="40.9"/>
	<path class="st2" d="M307.7,192.2c-1.1,4.6-2.1,9-3,13c-6.5,26.9-10.9,40.4-17.3,57.5c-6.7,18-37.6,22.5-51.4,22.5
		c-13.6,0-45.5-5-52.6-23.6c-6.7-17.2-12-31.2-16.8-56.8l0,0c-0.7-3.9-1.4-8.1-2.1-12.5c-3-19.3-1.8-37.3,5-51.8
		c2.7-5.8,6.4-11.2,11-15.7c9.7,20.4,29.1,52.9,56.2,59c0,0,38.6-22.8,60.6-53.9c2.5,3.1,4.7,6.5,6.5,10.1
		C311,154.6,312.1,172.9,307.7,192.2z"/>
	<path class="st3" d="M182.6,139.7c0,0,12.9,103,25.1,138"/>
	<path class="st3" d="M289.8,139.7c0,0-12.9,103-25.1,138"/>
	<path class="st4" d="M166.6,204.7c-1.6-3.4-22.7-47.7-18.9-62.6c1.8-7.3,23.1-15.6,29.5-17.4c3.5,2.1-0.1,21.2,1.9,26
		c4.3,9.8,4.6,20.9,1,31C173.6,200.3,166.6,204.7,166.6,204.7z"/>
	<path class="st4" d="M304.7,204.7c1.6-3.4,23.4-47.7,19.6-62.6c-1.8-7.3-22.7-15.6-29.1-17.4c-3.5,2.1,0.1,21.2-2,26
		c-4.3,9.8-4.6,20.9-1,31C298.7,200.3,304.7,204.7,304.7,204.7z"/>
	<path class="st4" d="M289.5,278c0,0-10.4,7.2-53.2,7.2c-43,0-53.9-7.2-53.9-7.2v-17.9c0,0,10.4,7.2,53.2,7.2
		c43,0,53.9-7.2,53.9-7.2V278z"/>
</g>
<g id="l-hand">
	<path class="st5" d="M17.6,92.9c-1.7-0.7-3.6-0.3-4.9,1c-0.5,0.6-1,1.2-1.3,1.9c-0.5-0.1-0.9-0.1-1.4,0c-0.8,0.2-1.5,0.6-2,1.2
		c-1,1.4-1.7,3-1.9,4.8c-0.2,0.9-0.2,1.8,0,2.7c-0.6,1.1-0.9,2.3-1.1,3.6c-0.9,6.4,4,13.1,8.9,17.1c6.8,5.6,26.3,9.6,26.3,9.6
		s16.8-11.1,8.1-20.3c-3.8-4.2-9.2-6.8-14.9-7c-3.3-1-6.5-2.5-9.5-4.3C21.4,101.4,20.7,94.2,17.6,92.9z"/>
	<path class="st5" d="M48.2,114.2c0,0-3-7.9-5.2-11.4S36,88.1,32,90.6s-4.2,6.2-2.3,10.2s-2.9,9.7-1.7,11.6S39.9,129.5,48.2,114.2z"
		/>
	<path class="st6" d="M10.1,102.2c-1.3-0.2-2.8-0.3-4-0.4c-0.2,0.9-0.2,1.8,0,2.7c1.8-0.4,4.8-1,5.9,2.2c0.9,2.4,2.1,4.8,3.5,7
		c0.1,0.1,5.4,3.2,5.4,3.2s-4.8-4.2-5.7-5.9C12.2,105.3,12,102.5,10.1,102.2z"/>
	<path class="st6" d="M11.4,95.9c1,0,2,0.2,2.8,0.8c1.4,0.9,2.2,4.3,3.1,6.3c0.7,1.6,1,3.4,2.8,4.8s3.7,2.5,4,2.7
		c-1.6-1.6-2.9-3.4-4.1-5.4c-1.6-2.8-3.5-9.1-5.3-10.2c-0.6-0.4-1.3-0.7-2-0.9C12.2,94.5,11.7,95.2,11.4,95.9z"/>
</g>
<path id="l-arm" class="st4" d="M101,180.8c0,0-10.9-1.8-13-12.8s7.4-16.8,7.4-16.8s26-11.2,38.6-13.6s23.3-4.1,31.1-3.4
	c5.4,0.4,14.2,2,16.9,15.9s-5,18.6-9.9,21c-7,3.4-17.6,5.9-30.2,8.3S101,180.8,101,180.8z"/>
<g id="l-forearm">
	<path class="st4" d="M38.7,137.4c0,0-3.2-5.6,1.2-12.3c5.4-8.3,11.5-8.8,11.5-8.8s16.5,7.4,28.3,13.6s24.1,17.1,24.1,17.1
		c4.3,5,6.4,11.6,5.8,18.2c-1.3,13-8.6,15.5-8.6,15.5s-11.6-2.1-26.7-11.6S38.7,137.4,38.7,137.4z"/>
	<path class="st7" d="M36.7,137.1c0,0-1.6-12,13.6-22.5"/>
</g>
<path id="r-arm" class="st4" d="M355.4,206c0,0,1.2,11-8.9,16s-18.2-2.7-18.2-2.7s-17.7-22-23.4-33.6s-10.1-21.4-11.6-29
	c-1-5.4-1.9-14.3,10.8-20.5s19.2-0.2,22.8,3.9c5.2,5.8,10.3,15.3,16,26.9S355.4,206,355.4,206z"/>
<g id="r-forearm">
	<path class="st7" d="M297.1,249.7c-8.5,6.9-22.7-15.2-14.2-22.1"/>
	<path class="st4" d="M296.9,248.2c0,0-5.4-0.3-9.5-7.1c-5.1-8.5-3.9-13.6-3.9-13.6s10.5-9.3,18.7-15.6s20.4-10.4,20.4-10.4
		s7.6-1.9,16.2,4.6c10,7.6,11.7,12.5,11.7,12.5c-4.9,7-11.1,13-18.3,17.5C320.5,243.3,296.9,248.2,296.9,248.2z"/>
	
		<ellipse transform="matrix(0.8412 -0.5408 0.5408 0.8412 -83.2697 194.4113)" class="st0" cx="289.3" cy="239" rx="7.2" ry="12.9"/>
	<path class="st7" d="M297.1,249.7c9.2-5.9-5-28-14.2-22.1"/>
</g>
<g id="r-hand">
	<path class="st5" d="M250.3,243.5c1.5,4.3,17.1,1.1,17.1,1.1l-5.5,9c0,0-25.3,0.7-14.1,10.9c0.2,0.7,0.5,1.4,1,2
		c1.8,2.5,5.3,3.9,8.8,4.2c1.3,0.6,2.6,1,4,1.4c6.5,1.6,11.9-0.4,16.8-3c5.9-3.1,11.4-13.6,13.8-18.6c0.1-0.3,0.3-0.6,0.4-0.9
		c0.5-1.1,3.2-5.7,3.2-5.7s1.5-5.1-2.6-11.2c-2.4-3.5-7.3-3.6-7.3-3.6l-3.4,1.3l-1.7,0.6c-6.3,2.3-14.9,5.2-19,5.9
		C254.6,237.8,248.8,239.2,250.3,243.5z"/>
	<path class="st6" d="M247.8,264.4c0.2,0.7,0.5,1.4,1,2c5.6,0.5,11.1-1,15.8-4.1C264.6,262.3,254.1,265.9,247.8,264.4z"/>
	<path class="st6" d="M257.5,270.6c1.3,0.6,2.6,1,4,1.4c3.7-0.9,8.5-2.6,10.1-5.4C267.2,268.8,262.4,270.2,257.5,270.6z"/>
</g>
<g id="head">
	<path class="st5" d="M266.8,38.2c0,0-1.6,12.9-1.9,18.3c-0.3,7.1,9,60.1,9,60.1s-10.7,20.9-37.8,20.9s-37.8-20.9-37.8-20.9
		s9.3-53.7,9-61c-0.2-5.2-1.9-17.3-1.9-17.3c0-15.2,15.5-30.8,30.6-30.8S266.8,23,266.8,38.2z"/>
	<path class="st8" d="M206.4,63.2l2.9-0.8c1-0.3,2,0.3,2.3,1.2l2.1,7.1c0.3,1-0.3,2-1.2,2.3l-2.9,0.8c-1,0.3-2-0.3-2.3-1.2l-2.1-7.1
		C204.9,64.5,205.4,63.5,206.4,63.2z"/>
	<path class="st8" d="M263.2,73.2l-2.9-0.8c-1-0.3-1.5-1.3-1.2-2.3l2.1-7.1c0.3-1,1.3-1.5,2.3-1.2l2.9,0.8c1,0.3,1.5,1.3,1.2,2.3
		l-2.1,7.1C265.2,72.9,264.2,73.5,263.2,73.2z"/>
	<path class="st6" d="M270.3,94.4c-4.3,12.7-19.9,22.2-34.1,22.2s-29.8-9.6-34.1-22.2c-3.3-9.5-1.4-16.8,0-23.2
		c11.6,0,12.6-10.8,34.1-10.6c20.3,0.2,22.6,10.6,34.1,10.6C271.7,77.9,273.5,84.9,270.3,94.4z"/>
	<path class="st6" d="M236.5,53.2c-11.8,0-22.2-17.9-22.2-17.9S228,31,236.5,31s22.2,4.3,22.2,4.3S248.3,53.2,236.5,53.2z"/>
	<path class="st6" d="M292.7,30.5c0,0,3.8,8-2.2,12.6s-13.3,0-13.3,0c-0.2,0.6-0.4,1.2-0.8,1.7c-0.8,1.4-2.3,2.3-3.9,2.3
		c-6.8,0-8-16.6-8-16.6l28.1-15.7C292.6,14.8,297.1,25.2,292.7,30.5z"/>
	<path class="st5" d="M270.6,36.2c2.1,2.5,4.3,4.8,6.6,7l-0.8,1.7c-0.8,1.4-2.3,2.3-3.9,2.3c-6.8,0-8-16.6-8-16.6l28.1-15.7
		C289.8,25.5,267.2,32.2,270.6,36.2z"/>
	<path class="st6" d="M179.6,30.5c0,0-3.8,8,2.2,12.6s13.3,0,13.3,0c0.2,0.6,0.4,1.2,0.8,1.7c0.8,1.4,2.3,2.3,3.9,2.3
		c6.8,0,8-16.6,8-16.6l-28.1-15.7C179.6,14.8,175.2,25.2,179.6,30.5z"/>
	<path class="st5" d="M201.7,36.2c-2.1,2.5-4.3,4.8-6.6,7l0.8,1.7c0.8,1.4,2.3,2.3,3.9,2.3c6.8,0,8-16.6,8-16.6l-28.1-15.8
		C182.5,25.5,205.1,32.2,201.7,36.2z"/>
	<path class="st6" d="M222.1,25.6c4.5-1.4,9.2-2.2,14-2.3c4.7,0.1,9.4,0.9,13.9,2.3c0,0-8.5-5.5-13.5-5.5
		C231.2,20,222.1,25.6,222.1,25.6z"/>
	<path class="st9" d="M202.1,71.2c11.6,0,12.6-10.8,34.1-10.6c20.3,0.2,22.6,10.6,34.1,10.6"/>
	<path class="st10" d="M251.3,43.1c-2.5,6.2-8.5,10.2-15.2,10.2c-8.4,0-14-6.4-15.2-10.2c0-6.4,6.8-9.4,15.2-9.4
		S251.3,36,251.3,43.1z"/>
	<g>
		<defs>
			<path id="SVGID_1_" d="M251.3,43.1c-2.5,6.2-8.5,10.2-15.2,10.2c-8.4,0-14-6.4-15.2-10.2c0-6.4,6.8-9.4,15.2-9.4
				S251.3,36,251.3,43.1z"/>
		</defs>
		<clipPath id="SVGID_2_">
			<use xlink:href="#SVGID_1_"  style="overflow:visible;"/>
		</clipPath>
		<g class="st11">
			<circle class="st12" cx="236.1" cy="40.1" r="10.3"/>
			<ellipse class="st13" cx="236.1" cy="40.1" rx="6.1" ry="3.2"/>
		</g>
	</g>
</g>
<g id="collar">
	<path class="st0" d="M193.7,112.3l-45.9,15c0,0,31,56.1,88.3,71.6v-25.5C236.1,173.4,203.2,161,193.7,112.3z"/>
	<path class="st0" d="M278.6,112.3l45.9,15c0,0-31,56.1-88.4,71.6v-25.5C236.1,173.4,269.1,161,278.6,112.3z"/>
</g>
</svg>
