<?xml version="1.0" encoding="utf-8"?>
<!-- Generator: Adobe Illustrator 26.0.0, SVG Export Plug-In . SVG Version: 6.00 Build 0)  -->
<svg version="1.1" id="Layer_1" xmlns="http://www.w3.org/2000/svg" xmlns:xlink="http://www.w3.org/1999/xlink" x="0px" y="0px"
	 viewBox="0 0 700 700" style="enable-background:new 0 0 700 700;" xml:space="preserve">
<style type="text/css">
	.st0{fill:#060B47;}
	.st1{fill:#2DB6E0;}
	.st2{fill:#841263;}
	.st3{fill:none;stroke:#60024E;stroke-width:1.4678;stroke-linecap:round;stroke-miterlimit:10;}
	.st4{fill:#43DCFF;}
	.st5{fill:#FF4280;}
	.st6{fill:#F2D3DF;}
	.st7{fill:#E82169;}
	.st8{fill:none;stroke:#FF4DA2;stroke-width:1.4678;stroke-linecap:round;stroke-miterlimit:10;}
	.st9{fill:#FDFFFD;}
	.st10{clip-path:url(#SVGID_00000099642700647951163140000013219035354832185787_);}
	.st11{fill:#94B700;}
	.st12{fill:#140B2D;}
	.st13{fill:none;stroke:#060B47;stroke-width:2.0255;stroke-linecap:round;stroke-miterlimit:10;}
</style>
<g>
	<g transform="matrix(1 0 0 1 0 -405)">
		<g>
			<g>
				<g>
					<g>
						<g>
							<g>
								<path class="st0" d="M311.7,1151.7c0,0-13.6,17-56.3,17c-42.7,0-56.3-17-56.3-17l17.1-53.1h78.4L311.7,1151.7z"/>
								<path class="st1" d="M312.8,1116.5c0,0-25.3,19.9-57.2,19.9c-31.9,0-57.5-19.9-57.5-19.9s-39.8-255.9-25-339.5
									c6.7-38.1,54-113.2,82.1-113.2c28.2,0,75.5,75,82.1,113.2C352.6,860.6,312.8,1116.5,312.8,1116.5z"/>
								<path class="st0" d="M488.4,1151.7c0,0-13.6,17-56.3,17s-56.3-17-56.3-17l17.1-53.1h78.4L488.4,1151.7z"/>
								<path class="st1" d="M489.3,1116.5c0,0-25.3,19.9-57.2,19.9s-57.5-19.9-57.5-19.9s-39.8-255.9-25-339.5
									c7-38.1,54-113.2,82.4-113.2c28.4,0,75.5,75,82.1,113.2C529.1,860.6,489.3,1116.5,489.3,1116.5z"/>
								<path class="st2" d="M485.8,1307.4c0,0-58.6,23.5-142.2,23.5c-83.6,0-142.8-23.5-142.8-23.5l2.6-198.5h279.5L485.8,1307.4z"
									/>
								<path class="st2" d="M385.7,1556.2c0,0,11,30.5,52,30.5c40.9,0,52-30.5,52-30.5s46.4-192.3,9.3-348.3
									c-7.3-29.9-39.8-46.3-77.8-35.5c-46.7,13.5-61.5,105.8-61.5,105.8L385.7,1556.2z"/>
								<path class="st3" d="M436.8,1183.4c25.3,91.2,38.9,264.4,14.8,381.1"/>
								<path class="st2" d="M301.5,1556.2c0,0-11,30.5-52,30.5s-52.2-30.5-52.2-30.5s-46.1-192.3-9-348
									c7.3-29.9,39.8-46.3,77.8-35.5c46.7,13.5,61.5,105.8,61.5,105.8L301.5,1556.2z"/>
								<path class="st3" d="M250.7,1183.4c-25.3,91.2-38.9,264.4-14.8,381.1"/>
								<path class="st0" d="M370.6,1822.1c-11.6,15.8-14.2,57.5-14.5,82.1c-0.3,10.6,7.5,19.9,18,21.4c25.3,3.5,49.9,9.1,74.3,16.7
									c15.7,4.7,40.3,12.9,55.1,13.8c22.6,1.2,45.3-1.5,67-8.5c1.7-10,1.7-20.2,0-30.2c-2.9-16.4-34-15.5-62.7-28.1
									c-28.7-12.6-45.9-44-45.9-44C442,1825.9,396.7,1786.1,370.6,1822.1z"/>
								<path class="st4" d="M356.1,1908.6c0,6.4,6.4,12.9,11.9,15.8c9.9,5,29.3,10,67.9,19.9c29.6,7.9,44.4,16.1,62.7,17.6
									c49.6,3.8,72-14.1,72-14.1c1.5-5.6,1.7-11.1,1.2-17c-0.3,2.1-1.5,4.1-3.2,5.3c0,0-20.3,17.6-70.8,12.9
									c-17.7-1.8-31.3-10.3-59.8-17.6c-19.4-5.3-32.8-8.2-42.1-10.3c-23.2-5-30.2-6.7-36-12.6c-2-2.3-3.5-5.3-4.1-8.2
									C356.4,1902.2,356.1,1907.1,356.1,1908.6z"/>
								<path class="st2" d="M352.6,1848.2l108.8-16.4l29.3-281.7c0,0-95.5-22-102.7,2.9C346.2,1691.7,352.6,1848.2,352.6,1848.2z"
									/>
								<path class="st3" d="M451.9,1564.4c0,0-15.1,199-24.7,282"/>
								<path class="st4" d="M457.3,1510.5c18.8,2.2,31.4,26.1,28.3,53.3c-3.2,27.2-21,47.4-39.8,45.1
									c-18.8-2.2-31.4-26.1-28.3-53.3C420.7,1528.4,438.5,1508.2,457.3,1510.5z"/>
								<path class="st4" d="M346.8,1847.3c0,3.8,2.6,7.3,6.4,8.5c36.3,11.7,75.5,10.6,111.2-3.2c3.5-1.5,5.8-5,5.8-9.1l-0.6-19.3
									c0-3.2-2.6-5.6-5.8-5.6c-0.6,0-1.2,0.3-1.7,0.3c-34.8,12.9-72.9,14.1-108.3,3.2c-2.9-0.9-6.1,0.6-7,3.5
									c-0.3,0.6-0.3,1.2-0.3,1.8L346.8,1847.3z"/>
								<path class="st0" d="M320.4,1822.1c11.6,15.8,14.2,57.5,14.5,82.1c0.3,10.6-7.5,19.9-18,21.4c-25.3,3.5-49.9,9.1-74.3,16.7
									c-15.7,4.7-40.3,12.9-55.1,13.8c-22.6,1.2-45.3-1.5-67-8.5c-1.7-10-1.7-20.2,0-30.2c2.9-16.4,34-15.5,62.7-28.1
									c28.7-12.6,45.9-44,45.9-44C249.3,1825.9,294.3,1786.1,320.4,1822.1z"/>
								<path class="st4" d="M335.2,1908.6c0,6.4-6.4,12.9-11.9,15.8c-9.9,5-29.3,10-67.6,19.9c-29.6,7.9-44.4,16.1-62.7,17.6
									c-49.6,3.8-72-14.1-72-14.1c-1.5-5.6-1.7-11.1-1.2-17c0.3,2.1,1.5,4.1,3.2,5.3c0,0,20.3,17.6,70.8,12.9
									c17.7-1.8,31.3-10.3,59.8-17.6c19.4-5.3,32.8-8.2,42.1-10.3c23.2-5,30.2-6.7,36-12.6c2-2.3,3.5-5.3,4.1-8.2
									C334.9,1902.2,335.2,1907.1,335.2,1908.6z"/>
								<path class="st2" d="M334.6,1848.2l-108.8-16.4l-29.3-281.7c0,0,95.5-22,102.7,2.9C341.3,1691.7,334.6,1848.2,334.6,1848.2z
									"/>
								<path class="st3" d="M235.6,1564.4c0,0,15.1,199,24.7,282"/>
								<path class="st4" d="M270,1555.4c3.2,27.2-9.5,51-28.3,53.3s-36.6-18-39.8-45.1c-3.2-27.2,9.5-51,28.3-53.3
									S266.8,1528.2,270,1555.4z"/>
								<path class="st4" d="M340.4,1847.3c0,3.8-2.6,7.3-6.4,8.5c-36.3,11.7-75.5,10.6-111.2-3.2c-3.5-1.5-5.8-5-5.8-9.1l0.6-19.3
									c0-3.2,2.6-5.6,5.8-5.6c0.6,0,1.2,0.3,2,0.3c34.8,12.9,72.9,14.1,108.3,3.2c2.9-0.9,6.1,0.6,7,3.5c0.3,0.6,0.3,1.2,0.3,1.8
									L340.4,1847.3z"/>
								<path class="st5" d="M551.4,947.7c-46.1,203.4-124.5,252.4-207.8,252.4c-83.3,0-178.8-62.7-207.8-252.4
									c-21.2-137.5,30.5-252.4,207.8-252.4C521,695.3,581.9,812.2,551.4,947.7z"/>
								<path class="st4" d="M225.5,808.7h228.1v119.9H225.5V808.7z"/>
								<path class="st2" d="M551.4,947.7c-3.2,13.5-6.1,26.1-8.7,37.8c-18.9,78.9-31.6,118.4-50.2,168.6
									c-19.4,52.8-109.1,66-149.2,66c-39.5,0-132.1-14.7-153-69.2c-19.4-50.4-34.8-91.5-48.8-166.5c-2-11.4-4.1-23.7-6.1-36.6
									c-8.7-56.6-5.2-109.3,14.5-151.8c7.8-17,18.6-32.8,31.9-46c28.2,59.8,84.5,155.1,163.1,173c0,0,112-66.8,175.9-158
									c7.3,9.1,13.6,19.1,18.9,29.6C561,837.4,564.2,890.8,551.4,947.7z"/>
								<path class="st3" d="M188,793.8c0,0,37.4,301.9,73.1,404.8"/>
								<path class="st3" d="M499.2,793.8c0,0-37.4,301.9-72.8,404.8"/>
								<path class="st4" d="M141.6,984.3c-4.6-10-65.9-139.8-54.9-183.5c5.2-21.4,67-45.7,85.6-51c10.2,6.2-0.3,62.1,5.8,76.2
									c12.5,28.7,13.4,61.3,2.9,90.9C162.2,971.4,141.6,984.3,141.6,984.3z"/>
								<path class="st4" d="M542.7,984.3c4.6-10,67.9-139.8,56.9-183.5c-5.2-21.4-65.9-45.7-84.5-51c-10.2,6.2,0.3,62.1-5.5,76.2
									c-12.5,28.7-13.4,61.3-2.9,90.9C525.3,971.4,542.7,984.3,542.7,984.3z"/>
								<path class="st4" d="M498.6,1198.9c0,0-30.2,21.1-154.4,21.1c-124.8,0-156.4-21.1-156.4-21.1v-52.5
									c0,0,30.2,21.1,154.4,21.1c124.8,0,156.4-21.1,156.4-21.1V1198.9z"/>
								<path class="st5" d="M432.7,496.2c0,0-4.6,37.8-5.5,53.6c-0.9,20.8,26.1,176.2,26.1,176.2s-31.1,61.3-109.7,61.3
									c-78.7,0-109.7-61.3-109.7-61.3s27-157.4,26.1-179.1c-0.6-15.2-5.2-51-5.2-51c0-44.3,44.7-90,88.8-90
									C387.7,405.9,432.7,451.7,432.7,496.2z"/>
								<path class="st6" d="M257.4,569.2l8.4-2.3c2.9-0.9,5.8,0.9,6.7,3.5l6.1,20.8c0.9,2.9-0.9,5.9-3.5,6.7l-8.4,2.3
									c-2.9,0.9-5.8-0.9-6.7-3.5l-6.4-20.8C252.8,573,254.5,570.1,257.4,569.2z"/>
								<path class="st6" d="M421.1,600.6l-8.4-2.3c-2.9-0.9-4.4-3.8-3.5-6.7l6.1-20.8c0.9-2.9,3.8-4.4,6.7-3.5l8.4,2.3
									c2.9,0.9,4.4,3.8,3.5,6.7l-6.1,20.8C426.9,599.7,424,601.5,421.1,600.6z"/>
								<path class="st7" d="M442.6,660.7c-12.5,37.2-57.8,65.1-99,65.1c-41.2,0-86.5-28.1-99-65.1c-9.3-27.8-4.1-49.2,0-68
									c33.7,0,36.6-31.7,99-31.1c58.9,0.6,65.6,31.1,99,31.1C446.9,612.3,452.2,632.8,442.6,660.7z"/>
								<path class="st7" d="M344.8,540.2c-34.2,0-64.4-52.5-64.4-52.5s40.1-12.6,64.4-12.6c24.4,0,64.4,12.6,64.4,12.6
									S379,540.2,344.8,540.2z"/>
								<path class="st7" d="M507.9,473.7c0,0,11,23.5-6.4,36.9c-17.4,13.5-38.6,0-38.6,0c-0.6,1.8-1.2,3.5-2.3,5
									c-2.3,4.1-6.7,6.7-11.3,6.7c-19.7,0-23.2-48.7-23.2-48.7l81.6-46C507.9,427.6,520.7,458.1,507.9,473.7z"/>
								<path class="st5" d="M443.7,490.1c6.1,7.3,12.5,14.1,19.2,20.5l-2.3,5c-2.3,4.1-6.7,6.7-11.3,6.7
									c-19.7,0-23.2-48.7-23.2-48.7l81.6-46C499.5,459,433.9,478.6,443.7,490.1z"/>
								<path class="st7" d="M179.6,473.7c0,0-11,23.5,6.4,36.9s38.6,0,38.6,0c0.6,1.8,1.2,3.5,2,5c2.3,4.1,6.7,6.7,11.3,6.7
									c19.7,0,23.2-48.7,23.2-48.7l-81.6-46C179.6,427.6,166.9,458.1,179.6,473.7z"/>
								<path class="st5" d="M243.8,490.1c-6.1,7.3-12.5,14.1-19.2,20.5l2,5c2.3,4.1,6.7,6.7,11.3,6.7c19.7,0,23.2-48.7,23.2-48.7
									l-81.6-46C188,459,253.4,478.6,243.8,490.1z"/>
								<path class="st7" d="M303,459c13.1-4.1,26.7-6.4,40.6-6.7c13.6,0.3,27.3,2.6,40.1,6.7c0,0-24.7-16.1-39.2-16.1
									C329.4,442.9,303,459,303,459z"/>
								<path class="st8" d="M244.6,592.7c33.7,0,36.6-31.7,99-31.1c58.9,0.6,65.6,31.1,99,31.1"/>
								<path class="st9" d="M387.7,510.3c-7.3,18.2-24.7,29.9-44.1,29.9c-24.4,0-40.9-18.8-44.1-29.9c0-18.8,19.7-27.6,44.1-27.6
									C368,482.7,387.7,489.5,387.7,510.3z"/>
								<g>
									<defs>
										<path id="SVGID_1_" d="M387.7,510.3c-7.3,18.2-24.7,29.9-44.1,29.9c-24.4,0-40.9-18.8-44.1-29.9
											c0-18.8,19.7-27.6,44.1-27.6C368,482.7,387.7,489.5,387.7,510.3z"/>
									</defs>
									<clipPath id="SVGID_00000157280144333119915580000007294656440023718572_">
										<use xlink:href="#SVGID_1_"  style="overflow:visible;"/>
									</clipPath>
									<g style="clip-path:url(#SVGID_00000157280144333119915580000007294656440023718572_);">
										<path class="st11" d="M373.2,501.8c0,16.7-13.4,30.2-29.9,30.2s-29.9-13.5-29.9-30.2c0-16.7,13.4-30.2,29.9-30.2
											S373.2,485.1,373.2,501.8z"/>
										<path class="st12" d="M361,501.8c0,5.2-7.9,9.4-17.7,9.4s-17.7-4.2-17.7-9.4c0-5.2,7.9-9.4,17.7-9.4S361,496.6,361,501.8z
											"/>
									</g>
								</g>
								<path class="st5" d="M125.6,1314.4c-12.8,2.6-28.2-41.6-28.2-41.6L83.3,1300c0,0,36,64.8-6.4,51.9c-2,0.6-4.4,0.9-6.4,0.6
									c-9-0.6-17.7-7.6-23.5-15.8c-3.2-2.3-6.4-5-9.3-7.9c-13.6-14.1-16.8-30.5-17.4-46.9c-0.9-19.3,16.8-49,25.8-62.4l1.5-2.3
									c2-2.9,3.5-4.7,3.5-4.7l56.6-16.7c0,0,1.2,7.3,3.2,17.9c0.3,1.8,0.6,3.2,0.9,5.3c3.8,19.3,9,45.1,13.6,56.9
									C133.2,1294.8,138.4,1311.8,125.6,1314.4z"/>
								<path class="st7" d="M76.9,1351.9c-2,0.6-4.4,0.9-6.4,0.6c-9.6-13.2-14.2-29.6-13.1-45.7
									C57.1,1306.5,63.8,1338.4,76.9,1351.9z"/>
								<path class="st7" d="M47,1336.7c-3.2-2.3-6.4-5-9.3-7.9c-3.2-10.6-6.1-25.2-1.5-33.7C37.1,1309.4,40.9,1323.5,47,1336.7z"/>
								<path class="st4" d="M35.7,1013.3c0,0,3.8,32.2,35.7,39.9c31.9,7.6,49.6-19.3,49.6-19.3s36-74.8,44.7-111.4
									c8.7-36.6,14.8-67.7,13.9-90.6c-0.6-15.8-4.1-41.9-43.8-51.6c-39.8-9.7-54.6,12-62.1,26.1c-11,19.9-19.4,50.7-28.2,87.4
									C36.8,930.4,35.7,1013.3,35.7,1013.3z"/>
								<path class="st4" d="M41.2,1209.2c0,0,8.7,16.7,31.6,16.7c28.7,0,39.8-14.1,39.8-14.1s8.1-52.5,11.9-91.5
									c3.8-39-3.5-86.5-3.5-86.5c-5.2-18.8-18-34.3-35.1-43.4C52.2,972.9,37.4,977,37.4,977c-10.7,30.2-16.5,61.9-17.1,93.8
									C19.4,1123,41.2,1209.2,41.2,1209.2z"/>
								<path class="st13" d="M38.6,1214.7c0,0,26.7,23.5,76.3,2.6"/>
								<path class="st5" d="M565.9,1314.4c12.8,2.6,28.2-41.6,28.2-41.6l14.2,27.3c0,0-36,64.8,6.4,51.9c2,0.6,4.4,0.9,6.4,0.6
									c9-0.6,17.7-7.6,23.5-15.8c3.2-2.3,6.4-5,9.3-7.9c13.6-14.1,16.8-30.5,17.4-46.9c0.9-19.3-16.8-49-25.8-62.4l-1.7-2.3
									c-2-2.9-3.2-4.7-3.2-4.7l-56.6-16.7c0,0-1.2,7.3-3.2,17.9c-0.3,1.8-0.6,3.2-0.9,5.3c-3.8,19.3-9,45.1-13.6,56.9
									C558.1,1294.8,552.9,1311.8,565.9,1314.4z"/>
								<path class="st7" d="M614.4,1351.9c2,0.6,4.3,0.9,6.4,0.6c9.6-13.2,14.2-29.6,13.1-45.7
									C634.1,1306.5,627.5,1338.4,614.4,1351.9z"/>
								<path class="st7" d="M644.3,1336.7c3.2-2.3,6.4-5,9.3-7.9c3.2-10.6,6.1-25.2,1.4-33.7
									C654.2,1309.4,650.4,1323.5,644.3,1336.7z"/>
								<path class="st4" d="M651.6,1013.3c0,0-3.8,32.2-35.7,39.9c-31.9,7.6-49.6-19.3-49.6-19.3s-36-74.8-44.4-111.4
									c-8.4-36.6-14.8-67.7-13.9-90.6c0.6-15.8,4.1-41.9,43.8-51.6c39.8-9.7,54.6,12,62.1,26.1c11,19.9,19.2,50.7,27.9,87.4
									C650.4,930.4,651.6,1013.3,651.6,1013.3z"/>
								<path class="st4" d="M646.3,1209.2c0,0-8.7,16.7-31.6,16.7c-28.7,0-39.8-14.1-39.8-14.1s-8.1-52.5-11.9-91.5
									c-3.8-39,3.5-86.5,3.5-86.5c5.2-18.8,18-34.3,35.1-43.4c33.7-17.6,48.5-13.5,48.5-13.5c10.7,30.2,16.5,61.9,17.1,93.8
									C668.1,1123,646.3,1209.2,646.3,1209.2z"/>
								<path class="st13" d="M648.7,1214.7c0,0-26.7,23.5-76.3,2.6"/>
								<path class="st0" d="M220.3,713.2L87.3,757.4c0,0,90,164.5,256.3,209.6v-74.8C343.6,892.3,248.1,855.9,220.3,713.2z"/>
								<path class="st0" d="M467,713.2l132.9,44.3c0,0-90,164.5-256.3,209.6v-74.8C343.6,892.3,439.4,855.9,467,713.2z"/>
							</g>
						</g>
					</g>
				</g>
			</g>
		</g>
	</g>
</g>
</svg>
