<?xml version="1.0" encoding="utf-8"?>
<!-- Generator: Adobe Illustrator 25.2.0, SVG Export Plug-In . SVG Version: 6.00 Build 0)  -->
<svg version="1.1" id="Layer_1" xmlns="http://www.w3.org/2000/svg" xmlns:xlink="http://www.w3.org/1999/xlink" x="0px" y="0px"
	 viewBox="0 0 331.8 480" style="enable-background:new 0 0 331.8 480;" xml:space="preserve">
<style type="text/css">
	.st0{fill:#BCFC30;}
	.st1{fill:#E1FF8F;}
	.st2{fill:#060B47;}
	.st3{fill:#2DB6E0;}
	.st4{fill:#FF4280;}
	.st5{fill:#E82169;}
	.st6{fill:#43DCFF;}
	.st7{fill:none;stroke:#060B47;stroke-width:4.13;stroke-linecap:round;stroke-miterlimit:10;}
	.st8{fill:#841263;}
	.st9{fill:none;stroke:#60024E;stroke-width:2.88;stroke-linecap:round;stroke-miterlimit:10;}
	.st10{fill:none;stroke:#60024E;stroke-width:3;stroke-linecap:round;stroke-miterlimit:10;}
	.st11{fill:none;stroke:#060B47;stroke-width:4.14;stroke-linecap:round;stroke-miterlimit:10;}
	.st12{fill:#FDFFFD;}
	.st13{clip-path:url(#SVGID_2_);}
	.st14{fill:#94B700;}
	.st15{fill:#140B2D;}
	.st16{fill:#F2D3DF;}
	.st17{fill:none;stroke:#FF4DA2;stroke-width:3;stroke-linecap:round;stroke-miterlimit:10;}
</style>
<g id="rockets">
	<path class="st0" d="M289.2,243.9c9.8,6.5,16.1,17,17.4,28.6c1.9,17.4-2.2,27.7-2.2,27.7l-8.8-15c0,0-3,26.3-8.9,43.4L274.4,300
		l-5.2,13.8c0,0-7.5-15.3-7.5-38.4C261.7,256,270,239.1,289.2,243.9z"/>
	<path class="st1" d="M285,306.9c2.4-11.8,3.5-22.4,3.6-22.5l2.4-21l9.1,15.5c-0.1-1.8-0.2-3.6-0.4-5.6c-1-9.1-5.8-17.4-13.2-22.8
		c-1.1-0.2-2.3-0.4-3.5-0.4c-2.8,0-6.8,0.6-10.1,6.3c-2.7,4.6-4.1,11.4-4.1,19.1c0,5.5,0.5,10.9,1.4,16.3l4-10.5L285,306.9z"/>
	<path class="st2" d="M257.6,251.7c0,0-4.7,5.8-19.4,5.8s-19.4-5.8-19.4-5.8l5.9-18.1h27L257.6,251.7z"/>
	<path class="st3" d="M258,239.7c0,0-8.7,6.8-19.8,6.8s-19.7-6.8-19.7-6.8s-13.7-87.3-8.6-115.8c2.3-13,18.6-38.6,28.3-38.6
		s26,25.6,28.4,38.6C271.8,152.4,258,239.7,258,239.7z"/>
	<path class="st2" d="M304.4,257.7c0,0-4.7,5.8-19.4,5.8s-19.4-5.8-19.4-5.8l5.9-18.1h27L304.4,257.7z"/>
	<path class="st3" d="M304.8,245.7c0,0-8.7,6.8-19.8,6.8s-19.8-6.8-19.8-6.8s-13.7-87.3-8.6-115.8c2.4-13,18.6-38.6,28.4-38.6
		s26,25.6,28.3,38.6C318.5,158.4,304.8,245.7,304.8,245.7z"/>
</g>
<g id="l-hand">
	<path class="st4" d="M8.5,201.4L8.5,201.4c-1.9-1.9-3.1-5.7-0.2-9.8c3.1-4.4,8.3-8.2,11.2-10.2c1.3-0.9,2.1-1.4,2.1-1.4
		c9.7-3.1,9.1,6.7,9.1,6.7s-10.3,5.4-13,7.1s-3.6,7.5-6.1,8.6C10.4,202.7,9.2,202.3,8.5,201.4z"/>
	<path class="st5" d="M8.5,201.4L8.5,201.4c-1.9-1.9-3.1-5.7-0.2-9.8c3.1-4.4,8.3-8.2,11.2-10.2c0.6,0,1.2,0.3,1.7,0.6
		c0,0-9.1,5.9-9.8,11C11,196,10,198.9,8.5,201.4z"/>
	<path class="st4" d="M46.2,162.6l-24.8,0.3c0,0-7.1,10.6,0.5,28.4c9.6-4.8,18.6-3.3,25.2-8.4C51.3,179.7,62.5,164.3,46.2,162.6z"/>
	<path class="st4" d="M5.1,193.4c-1.3,0.2-2.8-1.1-3.4-3.2c-0.7-2.3-0.4-5.4,2.6-8.1c3.8-3.4,9.4-5.9,12.7-7.2c1.7-0.7,2.8-1,2.8-1
		c10.1-0.9,8.5,9.9,8.5,9.9s-10,1.9-13,3S7.8,192.9,5.1,193.4z"/>
	<path class="st5" d="M2.2,190.6l-0.5-0.4c-0.7-2.3-0.4-5.4,2.6-8.1c3.8-3.4,9.4-5.9,12.7-7.2l2.5,1.5c0,0-9.9,5.5-12.2,8.1
		S2.2,190.6,2.2,190.6z"/>
	<path class="st4" d="M20.3,164.9c0,0-10.2,1.9-16.5,6.2s-3.3,11.5-0.6,11.3s7.9-4.7,11-5.4s13.3-1.4,13.3-1.4
		S30.4,165.2,20.3,164.9z"/>
	<polygon class="st5" points="14.3,166.4 29.7,175.7 27.3,161.9 	"/>
	<path class="st4" d="M43.9,164c0,0-5.3-5.5-17.5-7.5s-15.8-2.8-17.3,0.8s3.2,7.2,9,8.8s5,10.1,15,11.8S50.5,169,43.9,164z"/>
</g>
<path id="l-arm" class="st6" d="M108.8,144.9c0,0-8.9,6.6-5.6,17.5s14.4,11.4,14.4,11.4s28.2-2.1,40.5-5.9s22.5-7.2,29.1-11.4
	c4.6-2.9,11.6-8.4,7.6-21.9s-13-14.1-18.4-14c-7.8,0.2-18.2,2.9-30.5,6.7S108.8,144.9,108.8,144.9z"/>
<g id="l-forearm">
	<path class="st6" d="M54.4,185.5c0,0-6.2-1.6-8-9.4c-2.2-9.7,1.7-14.4,1.7-14.4s16.8-6.7,29.5-10.8s29-5.3,29-5.3
		c6.6,0.4,12.8,3.5,17.1,8.6c8.4,10,8.1,15.3,8.1,15.3c-9.2,5.8-19.3,10.1-29.9,12.7C84.6,186.4,54.4,185.5,54.4,185.5z"/>
	<path class="st7" d="M52.7,186.7c0,0-9.8-7.3-6.6-25.5"/>
</g>
<path id="hips" class="st8" d="M285.8,313c-11.5,32.3-39.3,10.8-58.3,5.8c-4.3-1.1-8.3-2.2-12.1-3.3c-21.9-6.4-36.8-26.6-36.4-49.4
	l0.4-23L285.8,273C285.8,273,291.1,298.3,285.8,313z"/>
<g id="l-thigh">
	<path class="st8" d="M213.1,317.1c-2.5,0.8-5.1,1.7-7.9,2.6c-28.9,9.3-72.1,22.4-72.1,22.4s-18.7,7-25.9-8.8
		c-8-17.5,4.1-27.5,4.1-27.5s31.2-24,69.8-38.6c1.9-0.7,3.7-1.4,5.6-2c6.6-2.3,13.4-4.3,20.2-5.8c7-1.6,13.7,2.2,17.6,9.6
		c1.5,3,2.5,6.2,3,9.5C230,295,223.8,313.6,213.1,317.1z"/>
	<path class="st9" d="M206.5,263.6c-29.5,5.3-93.2,42.1-95.2,57.5"/>
</g>
<g id="r-thigh">
	<path class="st8" d="M190.4,354.9c0,0-18.7,7-25.9-8.7c-8-17.5,4.1-27.5,4.1-27.5s46.1-35.5,95.6-46.5c9.5-2.1,18.6,5.7,20.6,19.1
		c2.5,16.5-3.7,35.1-14.5,38.6C242.4,339.1,190.4,354.9,190.4,354.9z"/>
	<path class="st9" d="M263.9,276.3c-29.5,5.3-93.2,42.1-95.2,57.5"/>
</g>
<g id="l-calf">
	<path class="st2" d="M147.2,416.6c4,5.4,4.9,19.6,5,28c0.1,3.6-2.6,6.8-6.2,7.3c-8.7,1.2-17.2,3.1-25.6,5.7
		c-5.4,1.6-13.9,4.4-19,4.7c-7.8,0.4-15.7-0.5-23.1-2.9c-0.6-3.4-0.6-6.9,0-10.3c1-5.6,11.7-5.3,21.6-9.6s15.9-15.1,15.9-15.1
		C122.7,417.9,138.2,404.3,147.2,416.6z"/>
	<path class="st6" d="M152.3,446.1c0,2.2-2.2,4.4-4.1,5.4c-3.4,1.7-10.1,3.4-23.4,6.8c-10.2,2.7-15.2,5.5-21.6,6
		c-17.1,1.3-24.8-4.8-24.8-4.8c-0.5-1.9-0.6-3.8-0.4-5.8c0.1,0.7,0.5,1.4,1.1,1.8c0,0,7,6,24.4,4.4c6.1-0.6,10.8-3.5,20.6-6
		c6.7-1.7,11.3-2.8,14.5-3.5c8-1.7,10.4-2.3,12.4-4.3c0.7-0.8,1.2-1.8,1.4-2.8C152.2,443.9,152.3,445.6,152.3,446.1z"/>
	<g id="l-calf-2">
		<path class="st8" d="M152.1,425.5l-37.5-5.7l-10.1-96.1c0,0,32.9-7.5,35.5,1C154.4,372.1,152.1,425.5,152.1,425.5z"/>
		<path class="st10" d="M113.4,328.7c0,0,5.2,67.9,8.5,96.1"/>
		
			<ellipse transform="matrix(0.9931 -0.1172 0.1172 0.9931 -37.5506 15.3497)" class="st6" cx="111.8" cy="327" rx="11.8" ry="16.9"/>
		<path class="st6" d="M154.1,425.2c0,1.3-0.9,2.5-2.2,3c-12.5,4-26,3.6-38.3-1.1c-1.2-0.5-2-1.7-2-3.1l0.2-6.6c0-1.1,0.9-1.9,2-1.9
			c0.2,0,0.4,0.1,0.7,0.1c12,4.4,25.1,4.8,37.3,1.1c1-0.3,2.1,0.2,2.4,1.2c0.1,0.2,0.1,0.4,0.1,0.6L154.1,425.2z"/>
	</g>
</g>
<g id="r-calf">
	<path class="st2" d="M204.6,432.5c4,5.4,4.7,15.5,4.9,23.9c0.1,3.6,1.6,6.3-6,11.4c-4.9,3.3-13,11.1-24.4,11.9
		c-18.5,1.2-29.5-3.2-29.5-3.2c-1.1-3.7-1.4-7.6-0.8-11.5c1-5.6,7.3-1.9,14.9-9.5c8.8-8.8,11.4-22.9,11.4-22.9
		C181.9,426.1,195.6,420.3,204.6,432.5z"/>
	<path class="st6" d="M203.4,467.9c-4.9,3.3-13,11.1-24.4,11.9c-18.5,1.3-29.5-3.2-29.5-3.2c-0.4-1.4-0.7-2.9-0.9-4.4
		c9.9,2.7,20.3,3.7,30.6,2.9c11.4-0.8,19.2-8.4,24.1-11.7c4.4-3,5.8-5.4,6.2-7.6c0,0.2,0,0.5,0,0.7
		C209.5,460.1,211,462.8,203.4,467.9z"/>
	<g id="r-calf-2">
		<path class="st8" d="M210.5,440.6l-37.5-5.7l-10.1-96.1c0,0,32.8-7.5,35.4,1C212.8,387.1,210.5,440.6,210.5,440.6z"/>
		<path class="st10" d="M171.8,343.7c0,0,5.2,67.9,8.5,96.2"/>
		
			<ellipse transform="matrix(0.9931 -0.1172 0.1172 0.9931 -38.9096 22.2914)" class="st6" cx="170.1" cy="342" rx="11.8" ry="16.9"/>
		<path class="st6" d="M212.5,440.2c0,1.3-0.9,2.5-2.2,3c-12.5,4-26,3.6-38.3-1.1c-1.2-0.5-2-1.7-2-3.1l0.2-6.6c0-1.1,0.9-1.9,2-1.9
			c0.2,0,0.4,0.1,0.7,0.1c12,4.4,25.1,4.8,37.3,1.1c1-0.3,2.1,0.2,2.4,1.2c0.1,0.2,0.1,0.4,0.1,0.6L212.5,440.2z"/>
	</g>
</g>
<g id="torso">
	<path class="st4" d="M272.1,113.8c0,0-16.3-12.1-33.3-11.8s-50.8,6.8-57.7,10.5s-18.8,69,21,72.7s74.6-4.6,78.2-32.2
		S272.1,113.8,272.1,113.8z"/>
	<path class="st6" d="M248.4,188.7L170,173l2-40.9c0,0,25.5,15.5,78.4,15.7C260.6,147.9,248.4,188.7,248.4,188.7z"/>
	<path class="st2" d="M268.1,108.1l41.4,12.4c0,0-13,58.4-52.6,64.5L234.7,173C234.7,173,271.2,142.2,268.1,108.1z"/>
	<path class="st8" d="M305,187.9c-1.1,4.6-2,8.8-3,12.8c-6.4,26.5-10.7,39.7-17,56.3c-6.6,17.6-37,20.1-50.6,19.2
		c-13.4-0.9-46.9,0.3-54-18.7c-6.6-17.7-9.6-40.3-14.3-66.2l0,0c-0.7-3.9-1.4-8.1-2.1-12.7c-3-19.5-1.7-37.4,5-51.5
		c2.6-5.6,6.3-10.7,10.8-15c9.5,21-0.5,36.2,22.4,62.7c0,0,53.2-29,74.9-58.7c5.6,2.3,22.3,15.5,24,19.2
		C308.2,150.5,309.4,168.8,305,187.9z"/>
	<path class="st10" d="M177.4,118.4c-17.3,39.3,2.8,113.5,15,148.5"/>
	<path class="st10" d="M265.5,130.2c-27.7,34.5-31.1,107.1-31.1,143.4"/>
	
		<ellipse transform="matrix(0.2209 -0.9753 0.9753 0.2209 68.7357 408.2479)" class="st6" cx="289.9" cy="161.1" rx="33.2" ry="23.9"/>
	<path class="st2" d="M193.4,106.4c-13.6,3.2-33.9,9.5-33.9,9.5s-3.9,19.8,5.1,38.7c10.7,22.4,25.9,35.1,37.5,40.1v-25.5
		C202.1,169.2,175.5,141.3,193.4,106.4z"/>
	<path class="st6" d="M285.8,273c0,0-10.4,10.7-53.2,8.6c-43-2.2-53.9-14-53.9-14l-1.4-17.9c0,0,11.8,11.8,54.6,13.9
		c43,2.2,53.9-8.6,53.9-8.6V273z"/>
</g>
<g id="r-hand">
	<path class="st4" d="M203.4,210.8c-0.1,4.5,15.6,7.1,15.6,7.1l-8.3,6.4c0,0-23.9-8.4-17.1,5.1c-0.1,0.7,0,1.5,0.2,2.2
		c0.7,3,3.6,5.6,6.7,7c1,1,2.1,1.9,3.2,2.7c5.5,3.8,11.2,3.9,16.8,3.2c6.6-0.8,15.5-8.6,19.5-12.4c0.2-0.2,0.5-0.5,0.7-0.7l1.4-1.4
		l2.3-20.2c0,0-2.6,0-6.2,0c-0.6,0-1.2,0-1.8,0c-6.7-0.1-15.7-0.5-19.9-1.3C209.5,207.1,203.5,206.3,203.4,210.8z"/>
	<path class="st5" d="M193.6,229.5c-0.1,0.7,0,1.5,0.2,2.2c5,2.5,10.7,3.1,16.2,1.8C209.9,233.5,198.9,233.1,193.6,229.5z"/>
	<path class="st5" d="M200.5,238.7c1,1,2.1,1.9,3.2,2.7c3.7,0.5,8.9,0.6,11.4-1.4C210.1,240.5,205.2,240.1,200.5,238.7z"/>
</g>
<path id="r-arm" class="st6" d="M323.9,210.5c0,0,0,12.3-12.3,13.6c-6.5,0.8-12.9-1.7-17.1-6.6c0,0-12.4-25.5-15.3-38
	s-5.1-23.1-4.8-30.9c0.2-5.5,1.4-14.3,15.1-17.6s18.8,4.1,21.4,8.9c3.8,6.8,6.6,17.3,9.6,29.8S323.9,210.5,323.9,210.5z"/>
<g id="r-forearm">
	<path class="st6" d="M243.4,232c0,0-6.1-1.9-7.5-9.8c-1.7-9.8,2.4-14.3,2.4-14.3s17.1-5.8,30-9.4s29.3-3.9,29.3-3.9
		c6.6,0.7,12.6,4.1,16.7,9.4c7.9,10.4,3.9,17.6,3.9,17.6s-9.5,6-27,9.4S243.4,232,243.4,232z"/>
	<path class="st11" d="M241.8,233.2c0,0-9.4-7.7-5.4-25.8"/>
</g>
<g id="head">
	<path class="st5" d="M187.1,25c0,0-4.8,7.3,0.4,12.8s13.1,1.9,13.1,1.9c0.1,0.6,0.3,1.2,0.5,1.8c0.6,1.5,1.9,2.6,3.5,2.8
		c6.8,1,10.2-15.3,10.2-15.3L189.3,9.4C189.3,9.4,183.4,19.1,187.1,25z"/>
	<path class="st4" d="M208.2,33.6c-2.4,2.2-4.9,4.2-7.5,6l0.5,1.8c0.6,1.5,1.9,2.6,3.5,2.8c6.8,1,10.2-15.3,10.2-15.3L189.3,9.4
		C190.6,20.4,212,30.2,208.2,33.6z"/>
	<path class="st4" d="M256.2,39.3c0,0-3.2,7.7-3.4,13.1c-1.4,23.9,15.4,55.8,15.4,55.8s-17.1,25.2-44.2,25.2s-30.1-20.9-30.1-20.9
		c-1.9-10.5-12.1-28.7-3.5-56.1c2.6-8.4,3-22.3,3-22.3c0-15.2,31.8-25.9,47-25.9C255.5,8.1,259.3,23.2,256.2,39.3z"/>
	<path class="st5" d="M208.6,55.8c-11.9-1.9-10.6-11.5-10.4-19.6c-0.5-1.4-1.3-2.7-2.2-3.9c0,0,8.4-2.1,13.6-0.8
		s17.8,10.2,17.8,10.2S219.8,57.6,208.6,55.8z"/>
	<path class="st5" d="M272.4,41c0,0,3.8,8-2.2,12.6s-13.3,0-13.3,0c-0.2,0.6-0.4,1.2-0.8,1.7c-0.8,1.4-2.3,2.3-3.9,2.3
		c-6.8,0-8-16.6-8-16.6l28.1-15.7C272.3,25.3,276.8,35.7,272.4,41z"/>
	<path class="st4" d="M250.3,46.6c2.1,2.5,4.3,4.8,6.6,7l-0.8,1.7c-0.8,1.4-2.3,2.3-3.9,2.3c-6.8,0-8-16.6-8-16.6l28.1-15.7
		C269.5,36,246.9,42.7,250.3,46.6z"/>
	<path class="st5" d="M201,24.2c3.8-1.2,7.9-1.6,11.9-1c4.3,0.6,8.4,2.3,11.9,4.9c0,0-1.4-7.5-6.4-8C210.6,19.3,201,24.2,201,24.2z"
		/>
	<path class="st12" d="M223.5,45.3c-1.3,4.2-7.3,9.7-14.2,9.3c-6-0.2-10.7-5.2-10.5-11.2c0-6.4,3.6-8.8,10.5-8.4
		S223.5,38.2,223.5,45.3z"/>
	<g>
		<defs>
			<path id="SVGID_1_" d="M223.5,45.3c-1.3,4.2-7.3,9.7-14.2,9.3c-6-0.2-10.7-5.2-10.5-11.2c0-6.4,3.6-8.8,10.5-8.4
				S223.5,38.2,223.5,45.3z"/>
		</defs>
		<clipPath id="SVGID_2_">
			<use xlink:href="#SVGID_1_"  style="overflow:visible;"/>
		</clipPath>
		<g class="st13">
			
				<ellipse transform="matrix(0.9922 -0.1246 0.1246 0.9922 -3.5329 26.4135)" class="st14" cx="209.3" cy="41.4" rx="8.4" ry="10.4"/>
			
				<ellipse transform="matrix(0.1075 -0.9942 0.9942 0.1075 145.6099 245.1217)" class="st15" cx="209.3" cy="41.5" rx="3.2" ry="5"/>
		</g>
	</g>
	<path class="st16" d="M220.4,76.5l-2.9-0.8c-1-0.3-1.5-1.3-1.2-2.3l2.1-7.1c0.3-1,1.3-1.5,2.3-1.2l2.9,0.8c1,0.3,1.5,1.3,1.2,2.3
		l-2.1,7.1C222.4,76.2,221.4,76.8,220.4,76.5z"/>
	<path class="st5" d="M235.5,88.6c-3.2,13.4-9.4,22-18.1,23.9c-13.9,3-29.1-3.2-36.3-14.5c-6.1-9.2-9.2-20-8.9-31
		c0.2-10.7,10.7-11.3,23.9-7.6c23,6.4,24.3,25,42.5,9C240,75.1,237.9,78.8,235.5,88.6z"/>
	<path class="st17" d="M172.7,63.4c2.3-7.2,11.8-7.3,23.3-4.1c23,6.4,24.3,25,42.5,9"/>
</g>
<path id="collar" class="st2" d="M269.3,106.4c13,5,28,9.1,40.2,14.2c-0.5,2.7-2.8,9.6-2.8,9.6s-13,0-30.3,11.6
	c-17.5,11.8-40.2,37.2-74.3,52.9v-25.5C202.1,169.2,238.8,127.4,269.3,106.4z"/>
</svg>
