<?xml version="1.0" encoding="utf-8"?>
<!-- Generator: Adobe Illustrator 25.2.0, SVG Export Plug-In . SVG Version: 6.00 Build 0)  -->
<svg version="1.1" id="Layer_1" xmlns="http://www.w3.org/2000/svg" xmlns:xlink="http://www.w3.org/1999/xlink" x="0px" y="0px"
	 viewBox="0 0 288 531" style="enable-background:new 0 0 288 531;" xml:space="preserve">
<style type="text/css">
	.st0{fill:#BCFC30;}
	.st1{fill:#E1FF8F;}
	.st2{fill:#060B47;}
	.st3{fill:#0292AA;}
	.st4{fill:#2DB6E0;}
	.st5{fill:#841263;}
	.st6{fill:#FF4280;}
	.st7{fill:#E82169;}
	.st8{fill:none;stroke:#060B47;stroke-width:4.13;stroke-linecap:round;stroke-miterlimit:10;}
	.st9{fill:none;stroke:#60024E;stroke-width:3;stroke-linecap:round;stroke-miterlimit:10;}
	.st10{fill:#43DCFF;}
	.st11{fill:#F2D3DF;}
	.st12{fill:#FDFFFD;}
	.st13{clip-path:url(#SVGID_2_);}
	.st14{fill:#94B700;}
	.st15{fill:#140B2D;}
	.st16{fill:none;stroke:#FF4DA2;stroke-width:3;stroke-linecap:round;stroke-miterlimit:10;}
	.st17{fill:none;stroke:#060B47;stroke-width:4.14;stroke-linecap:round;stroke-miterlimit:10;}
</style>
<g id="rockets">
	<path class="st0" d="M244.1,248.5c-9.8,6.5-16.1,16.9-17.4,28.6c-1.9,17.4,2.2,27.7,2.2,27.7l8.8-15c0,0,3,26.3,8.9,43.4l12.2-28.5
		l5.2,13.8c0,0,7.5-15.3,7.5-38.4C271.5,260.6,263.2,243.7,244.1,248.5z"/>
	<path class="st1" d="M248.2,311.4c-2.4-11.8-3.6-22.4-3.6-22.5l-2.4-21l-9.1,15.5c0.1-1.8,0.2-3.6,0.4-5.6
		c1-9.1,5.8-17.4,13.2-22.8c1.1-0.2,2.3-0.4,3.4-0.4c2.8,0,6.8,0.6,10.1,6.3c2.7,4.6,4.1,11.4,4.1,19.1c0,5.5-0.5,10.9-1.4,16.3
		l-4-10.5L248.2,311.4z"/>
	<path class="st2" d="M248.9,253.2c0,0-4.7,5.8-19.4,5.8s-19.4-5.8-19.4-5.8l6-18.1h27L248.9,253.2z"/>
	<path class="st3" d="M249.2,241.3c0,0-8.7,6.8-19.8,6.8s-19.7-6.8-19.7-6.8S196,154,201.1,125.5c2.3-13,18.6-38.6,28.3-38.6
		s26,25.6,28.4,38.6C262.9,154,249.2,241.3,249.2,241.3z"/>
	<path class="st2" d="M271.2,254.6c0,0-4.7,5.8-19.4,5.8s-19.4-5.8-19.4-5.8l5.9-18.1h27L271.2,254.6z"/>
	<path class="st4" d="M271.6,242.6c0,0-8.7,6.8-19.8,6.8s-19.8-6.8-19.8-6.8s-13.7-87.3-8.6-115.8c2.3-13,18.6-38.6,28.3-38.6
		s26,25.6,28.4,38.6C285.3,155.3,271.6,242.6,271.6,242.6z"/>
</g>
<path id="hips" class="st5" d="M233.8,300c-5.3,24-26.1,20.3-42.2,20.3s-32.7-1.7-38.8-12.8c-4.9-8.9-9.8-40.4-9.8-40.4l88.9,3.6
	C231.9,270.7,236.7,286.9,233.8,300z"/>
<g id="b-hand">
	<path class="st6" d="M14,204.6L14,204.6c-2-1.8-3.4-5.5-0.7-9.8c2.9-4.5,7.9-8.6,10.7-10.7c1.2-0.9,2.1-1.5,2.1-1.5
		c9.5-3.6,9.4,6.3,9.4,6.3s-10,5.9-12.6,7.7s-3.2,7.6-5.7,8.9C16,205.9,14.8,205.5,14,204.6z"/>
	<path class="st7" d="M14,204.6L14,204.6c-2-1.8-3.4-5.5-0.7-9.8c2.9-4.5,7.9-8.6,10.7-10.7c0.6,0,1.2,0.2,1.7,0.6
		c0,0-8.8,6.3-9.3,11.5C16.2,199.2,15.4,202,14,204.6z"/>
	<path class="st6" d="M49.8,164l-24.7,1.5c0,0-6.6,11,1.8,28.4c9.4-5.2,18.5-4.2,24.8-9.6C55.7,180.9,66.2,165,49.8,164z"/>
	<path class="st6" d="M10.2,196.8c-1.2,0.3-2.8-1-3.6-3c-0.9-2.2-0.7-5.4,2.2-8.3c3.6-3.6,9.1-6.4,12.3-7.9c1.7-0.8,2.8-1.2,2.8-1.2
		c10-1.4,8.9,9.5,8.9,9.5s-9.9,2.4-12.8,3.6S12.9,196.1,10.2,196.8z"/>
	<path class="st7" d="M7.1,194.1l-0.5-0.4c-0.9-2.2-0.7-5.4,2.2-8.3c3.6-3.6,9.1-6.4,12.3-7.9l2.6,1.4c0,0-9.6,6-11.8,8.7
		S7.1,194.1,7.1,194.1z"/>
	<path class="st6" d="M24,167.6c0,0-10.1,2.4-16.2,7S5,186.2,7.7,185.9s7.6-5.1,10.7-5.9s13.2-2,13.2-2S34.2,167.5,24,167.6z"/>
	<polygon class="st7" points="18.1,169.3 33.9,178 30.9,164.3 	"/>
	<path class="st6" d="M47.6,165.6c0,0-5.6-5.2-17.9-6.7s-15.9-2.1-17.2,1.7s3.5,7,9.4,8.4s5.5,9.8,15.6,11.1S54.4,170.3,47.6,165.6z
		"/>
</g>
<path id="b-arm" class="st4" d="M107.9,148.2c0,0-8.9,6.6-5.6,17.5s14.3,11.4,14.3,11.4s28.2-2.1,40.5-5.8s22.5-7.2,29.1-11.4
	c4.6-2.9,11.7-8.4,7.6-21.9s-13-14.2-18.4-14c-7.8,0.2-18.3,2.9-30.6,6.6C132.5,134.3,107.9,148.2,107.9,148.2z"/>
<g id="b-forearm">
	<path class="st4" d="M54,185.9c0,0-6.2-1.9-7.6-9.7c-1.8-9.7,2.2-14.3,2.2-14.3s17-6.1,29.9-9.8s29.2-4.3,29.2-4.3
		c6.6,0.6,12.7,3.9,16.8,9.1c8,10.3,7.6,15.5,7.6,15.5c-9.4,5.5-19.7,9.5-30.3,11.7C84.3,187.9,54,185.9,54,185.9z"/>
	<path class="st8" d="M52.3,187.1c0,0-9.5-7.6-5.7-25.7"/>
</g>
<g id="b-thigh">
	<path class="st5" d="M186.5,388.5c0,0-3.8,10.4-17.9,10.4s-17.9-10.4-17.9-10.4s-15.9-65.6-3.2-118.8c2.5-10.2,13.7-15.8,26.8-12.1
		c16.1,4.6,31.9,45.4,31.9,45.4L186.5,388.5z"/>
	<path class="st9" d="M150.3,265.4c-7.1,31.8-4.2,84.4,4.1,124.2"/>
</g>
<g id="b-calf">
	<path class="st2" d="M194.3,484.5c4.2,6.2,4.3,23.2,4.1,30.8c-0.1,2.1-1.8,3.8-3.9,3.9c-5,0.1-15,0.4-30.8,0.9
		c-39,1.3-50.4-2.8-50.4-2.8c-0.5-3.4-0.4-6.9,0.3-10.3c1.2-5.6,19.7-4,29.7-8s19.2-7.6,19.2-7.6C166.9,471.4,185.7,472,194.3,484.5
		z"/>
	<path class="st10" d="M198.4,516.8c0,1.3-1.1,2.3-2.4,2.4c-4.3,0.1-14.7,0.3-32.2,0.9c-39,1.2-50.4-2.8-50.4-2.8
		c-0.4-2.4-0.4-4.9-0.1-7.3c-0.2,3.3,0.9,3.4,0.9,3.4s10.8,3.6,49.8,2.3c23.9-0.8,33.8-1.2,33.8-1.2s0.8-0.1,0.9-0.8
		C198.4,514.9,198.4,516,198.4,516.8z"/>
	<path class="st5" d="M197.9,488.1l-37.5-5.7l-10.1-96.1c0,0,32.8-7.5,35.4,1C200.2,434.6,197.9,488.1,197.9,488.1z"/>
	<path class="st9" d="M155.8,391.2c0,0,5.2,67.9,8.5,96.1"/>
	<path class="st10" d="M159.6,388.2c0.8,4.8,0.9,14.4-3.9,18.2c-6.5,0.8-11.9-6.1-13-15.4s2.6-17.4,9-18.2
		C157.2,376.9,158.7,383.4,159.6,388.2z"/>
	<path class="st4" d="M199.9,487.7c0,1.3-0.9,2.5-2.2,3c-12.5,4-26,3.6-38.3-1.1c-1.2-0.5-2-1.7-2-3.1l0.2-6.6c0-1.1,0.9-1.9,2-1.9
		c0.2,0,0.4,0.1,0.7,0.1c12,4.4,25.1,4.8,37.3,1.1c1-0.3,2.1,0.2,2.4,1.2c0.1,0.2,0.1,0.4,0.1,0.7L199.9,487.7z"/>
</g>
<g id="f-thigh">
	<path class="st5" d="M209.9,392.6c0,0-3.8,10.4-17.9,10.4s-18-10.4-18-10.4s-16-65.6-3.2-118.8c2.5-10.2,13.7-15.8,26.8-12.1
		c16.1,4.6,31.9,45.3,31.9,45.3L209.9,392.6z"/>
	<path class="st9" d="M173.6,269.5c-7.1,31.8-4.2,84.4,4.1,124.2"/>
</g>
<g id="f-calf">
	<path class="st2" d="M217.6,488.6c4.2,6.2,4.3,23.2,4.1,30.8c-0.1,2.1-1.8,3.8-3.9,3.9c-5,0.1-15,0.4-30.8,0.9
		c-39,1.3-50.4-2.8-50.4-2.8c-0.5-3.4-0.4-6.9,0.3-10.3c1.2-5.6,19.7-4,29.7-8s19.2-7.6,19.2-7.6C190.2,475.5,209,476.1,217.6,488.6
		z"/>
	<path class="st10" d="M221.7,521c0,1.3-1.1,2.3-2.4,2.4c-4.3,0.1-14.7,0.3-32.2,0.9c-39,1.3-50.4-2.8-50.4-2.8
		c-0.4-2.4-0.4-4.9-0.1-7.3c-0.2,3.3,0.9,3.4,0.9,3.4s10.8,3.6,49.8,2.3c23.9-0.8,33.8-1.2,33.8-1.2s0.8-0.1,0.9-0.8
		C221.8,519,221.7,520.1,221.7,521z"/>
	<path class="st5" d="M221.2,492.2l-37.5-5.7l-10.1-96.1c0,0,32.9-7.5,35.4,1C223.5,438.8,221.2,492.2,221.2,492.2z"/>
	<path class="st9" d="M179.1,395.3c0,0,5.2,67.9,8.5,96.2"/>
	<path class="st10" d="M182.9,392.3c0.9,4.8,0.9,14.4-3.9,18.2c-6.5,0.8-11.9-6.1-13-15.4s2.6-17.4,9-18.2
		C180.5,381,182.1,387.5,182.9,392.3z"/>
	<path class="st10" d="M223.2,491.8c0,1.4-0.9,2.6-2.2,3c-12.5,4-26,3.6-38.3-1.1c-1.2-0.5-2-1.7-2-3.1l0.2-6.7c0-1.1,0.9-1.9,2-1.9
		c0.2,0,0.4,0.1,0.7,0.1c12,4.4,25.1,4.8,37.3,1.1c1-0.3,2.1,0.2,2.4,1.2c0.1,0.2,0.1,0.4,0.1,0.7L223.2,491.8z"/>
</g>
<g id="torso">
	<path class="st6" d="M172.1,105c0,0-18,3.7-24.2,16.9s-15.4,26.4-8.5,56.5c0,0,68.3-59,81.1-63.1s10.1-0.5,3.9-10.3
		S172.1,105,172.1,105z"/>
	<path class="st2" d="M140.5,124.9c0,0,7.7-16.7,28.6-26.1s45.8-5.9,58.6,6.2s18.4,18.4,18.4,18.4s-6.4-9.4-20.6-6
		s-14.8-20.6-35.1-16.8c-30.4,5.7-38.3,17.9-42.5,28.4L140.5,124.9z"/>
	<path class="st5" d="M247.7,184.8c-0.9,4.6-11.4,52.4-16.7,69.1c-5.5,17.6-31.3,19-42.2,19.2c-11.2,0.2-39.2,0.3-45.1-18.7
		c-5.5-17.7-11.1-65.7-11.1-70.3c-0.1-16,6.7-39.2,6.7-39.2s-1.7,22.9,0,25.2c0,0,17.9-29.2,85-65c4.7,2.3,20.3,14.7,21.8,18.4
		C252,138.6,251.3,165.7,247.7,184.8z"/>
	<path class="st9" d="M202.6,120.1c-52,58.4-35.6,109.8-31.8,153.8"/>
	<path class="st10" d="M143.2,126.5c0,0-0.7,14.3,6.3,16.4s17.2,1.3,17.2,1.3l-27.5,34.3C139.3,178.5,134.2,161.1,143.2,126.5z"/>
	<path class="st10" d="M247.3,156.1c0,14.9-12.1,27-27,27s-27-12.1-27-27s8.4-31.1,27-31.1S247.3,141.1,247.3,156.1z"/>
	<path class="st2" d="M139.3,166.1c0,0-2.2-12.9,8.5-37l-7.4-4.1c0,0-15,33.1-3.9,66.1L139.3,166.1z"/>
	<path class="st10" d="M231.9,270.7c0,0-8.7,11.3-44.3,11.3s-44.9-11.3-44.9-11.3v-17.9c0,0,8.7,11.3,44.4,11.3s44.9-11.3,44.9-11.3
		L231.9,270.7z"/>
</g>
<g id="head">
	<path class="st6" d="M224.3,105c0,0-17.1,25.2-44.2,25.2S150,109.3,150,109.3c-1.9-10.5-24.7-27.3-6.1-51.4c1-1.3,5.1-5.6,5.6-7.2
		c2.3-7.8-0.6-18.6-1.6-21.8c-0.2-0.6-7.8-12.5,12.1-14.4c1.8-0.9,3.8-1.7,5.9-2.5c10.5-4,23.1-6.9,30.6-6.9
		c15.2,0,25.2,17.7,20.1,33.3c-1.5,4.6-10.3,10.7-10.6,16.2C204.5,78.3,224.3,105,224.3,105z"/>
	<path class="st7" d="M172.1,38.7c0,0-13.4,16.6-22.2,10.3c2.3-7.8-1-16.8-2-20.1c2.4-0.5,8.5-1.6,12.5-0.5
		C165.5,29.7,172.1,38.7,172.1,38.7z"/>
	<path class="st7" d="M218.4,24.5c0,0,3.8,8-2.2,12.6s-13.3,0-13.3,0c-0.2,0.6-0.4,1.2-0.8,1.7c-0.8,1.4-2.3,2.3-3.9,2.3
		c-6.8,0-8-16.6-8-16.6l28.1-15.7C218.4,8.8,222.8,19.2,218.4,24.5z"/>
	<path class="st6" d="M196.3,30.2c2.1,2.5,4.3,4.8,6.6,7l-0.8,1.7c-0.8,1.4-2.3,2.3-3.9,2.3c-6.8,0-8-16.6-8-16.6l28.1-15.8
		C215.5,19.5,193,26.2,196.3,30.2z"/>
	<path class="st11" d="M162.4,74.8l-2.8-1.1c-0.9-0.4-1.4-1.4-1-2.4l2.7-6.9c0.4-0.9,1.4-1.4,2.4-1l2.8,1.1c0.9,0.4,1.4,1.4,1,2.4
		l-2.7,6.9C164.4,74.7,163.3,75.2,162.4,74.8z"/>
	<path class="st7" d="M178.9,86.8c-4.2,13.1-16.1,23.9-25,22.6c-13.2-2-26.9-11.8-30.6-18.7c-2.7-5-6.8-12.9-5-25.4
		c1.5-10.6,9.4-11.4,22.2-6.6c14.3,5.3,22.5,20.9,40.7,6.6C182.6,72,181.7,78,178.9,86.8z"/>
	<path class="st12" d="M166.4,40.6c0,0-1.3-9.4-14-9.4c-7.4,0-4.7,17.9-0.2,18.6C159.9,50.9,166.4,40.6,166.4,40.6z"/>
	<g>
		<g>
			<defs>
				<path id="SVGID_1_" d="M166.4,40.6c0,0-1.3-9.4-14-9.4c-7.4,0-4.7,17.9-0.2,18.6C159.9,50.9,166.4,40.6,166.4,40.6z"/>
			</defs>
			<clipPath id="SVGID_2_">
				<use xlink:href="#SVGID_1_"  style="overflow:visible;"/>
			</clipPath>
			<g class="st13">
				<ellipse class="st14" cx="153" cy="38.2" rx="4" ry="10.3"/>
				<ellipse class="st15" cx="153" cy="38.2" rx="2.4" ry="3.2"/>
			</g>
		</g>
	</g>
	<path class="st7" d="M172.1,19.6c-3.1-4.7-12.1-5.1-12.1-5.1c1.8-0.9,3.8-1.7,5.9-2.5C169.4,12.8,172,15.9,172.1,19.6z"/>
	<path class="st16" d="M121.3,58.2c3.6-3.6,10.2-3,19.2,0.3c14.3,5.3,22.5,20.9,40.7,6.6"/>
</g>
<g id="f-hand">
	<path class="st6" d="M124.6,213c0,4.5,15.8,6.6,15.8,6.6l-8.1,6.7c0,0-24.2-7.7-16.9,5.7c-0.1,0.7,0,1.5,0.2,2.2
		c0.8,3,3.7,5.5,6.9,6.8c1,1,2.1,1.8,3.3,2.6c5.6,3.6,11.4,3.6,16.9,2.7c6.6-1,15.2-9.1,19.1-13l0.7-0.7c0.9-0.9,1.4-1.4,1.4-1.4
		l1.7-20.3c0,0-2.6,0.1-6.2,0.1h-1.8c-6.7,0.1-15.8,0-19.9-0.7C130.6,209.1,124.6,208.5,124.6,213z"/>
	<path class="st7" d="M115.4,232c-0.1,0.7,0,1.5,0.2,2.2c5.1,2.3,10.8,2.8,16.2,1.3C131.9,235.5,120.8,235.4,115.4,232z"/>
	<path class="st7" d="M122.6,241c1,1,2.1,1.8,3.3,2.6c3.8,0.4,8.9,0.3,11.3-1.8C132.3,242.5,127.3,242.2,122.6,241z"/>
</g>
<path id="f-arm" class="st10" d="M249.8,207.4c0,0-1.3,11-12.3,13.6s-17.1-6.6-17.1-6.6s-12.4-25.5-15.3-38s-5.1-23.1-4.8-30.9
	c0.2-5.5,1.4-14.3,15.1-17.6s18.8,4.1,21.4,8.9c3.8,6.8,6.6,17.3,9.6,29.8C249.4,179,249.8,207.4,249.8,207.4z"/>
<g id="f-forearm">
	<path class="st10" d="M165.3,233c0,0-6.2-1.8-7.8-9.6c-2-9.7,2-14.4,2-14.4s16.9-6.4,29.7-10.3s29.1-4.8,29.1-4.8
		c6.6,0.5,12.8,3.7,16.9,8.9c8.2,10.2,7.9,15.4,7.9,15.4c-9.3,5.7-19.5,9.8-30.2,12.2C195.6,234.4,165.3,233,165.3,233z"/>
	<path class="st17" d="M163.6,234.2c0,0-9.6-7.4-6.2-25.6"/>
</g>
<g id="collar">
	<path class="st2" d="M214.9,105l12.8,15c0,0-58.3,18.3-91.1,71c-0.1-15.1,2.7-25,2.7-25S171.9,117.7,214.9,105z"/>
	<path class="st2" d="M214.9,105c0,0,11.9-5.5,18.6,0s24.2,20.6,23.6,29.2s-6.7,27.9-6.7,27.9s0.5-31.1-4.2-35s-10.2-10.1-18.4-7
		L214.9,105z"/>
</g>
</svg>
