<?xml version="1.0" encoding="utf-8"?>
<!-- Generator: Adobe Illustrator 25.2.0, SVG Export Plug-In . SVG Version: 6.00 Build 0)  -->
<svg version="1.1" id="Layer_1" xmlns="http://www.w3.org/2000/svg" xmlns:xlink="http://www.w3.org/1999/xlink" x="0px" y="0px"
	 viewBox="0 0 309.5 535.1" style="enable-background:new 0 0 309.5 535.1;" xml:space="preserve">
<style type="text/css">
	.st0{fill:#060B47;}
	.st1{fill:#2DB6E0;}
	.st2{fill:#841263;}
	.st3{fill:none;stroke:#60024E;stroke-width:3;stroke-linecap:round;stroke-miterlimit:10;}
	.st4{fill:#43DCFF;}
	.st5{fill:#FF4280;}
	.st6{fill:#F2D3DF;}
	.st7{fill:#E82169;}
	.st8{fill:none;stroke:#FF4DA2;stroke-width:3;stroke-linecap:round;stroke-miterlimit:10;}
	.st9{fill:#FDFFFD;}
	.st10{clip-path:url(#SVGID_2_);}
	.st11{fill:#94B700;}
	.st12{fill:#140B2D;}
	.st13{fill:none;stroke:#060B47;stroke-width:4.14;stroke-linecap:round;stroke-miterlimit:10;}
</style>
<g id="rockets">
	<g id="rockets-2">
		<path class="st0" d="M176.6,258.6c0,0-4.7,5.8-19.4,5.8s-19.4-5.8-19.4-5.8l5.9-18.1h27L176.6,258.6z"/>
		<path class="st1" d="M176.9,246.6c0,0-8.7,6.8-19.8,6.8s-19.7-6.8-19.7-6.8s-13.7-87.3-8.6-115.8c2.3-13,18.6-38.6,28.3-38.6
			s26,25.6,28.4,38.6C190.6,159.3,176.9,246.6,176.9,246.6z"/>
		<path class="st0" d="M237.4,258.6c0,0-4.7,5.8-19.4,5.8s-19.4-5.8-19.4-5.8l5.9-18.1h27L237.4,258.6z"/>
		<path class="st1" d="M237.7,246.6c0,0-8.7,6.8-19.7,6.8s-19.8-6.8-19.8-6.8s-13.7-87.3-8.6-115.8c2.4-13,18.6-38.6,28.4-38.6
			s26,25.6,28.3,38.6C251.5,159.3,237.7,246.6,237.7,246.6z"/>
	</g>
	<path id="hips" class="st2" d="M236.5,311.7c0,0-20.2,8-49,8s-49.2-8-49.2-8l0.9-67.7h96.3L236.5,311.7z"/>
	<g id="r-thigh">
		<path class="st2" d="M202.1,396.6c0,0,3.8,10.4,18,10.4c14.2,0,17.9-10.4,17.9-10.4s15.9-65.6,3.1-118.8
			c-2.5-10.2-13.7-15.8-26.8-12.1c-16.1,4.6-21.2,36.1-21.2,36.1L202.1,396.6z"/>
		<path class="st3" d="M219.6,269.3c8.7,31.1,13.4,90.2,5.1,130"/>
	</g>
	<g id="r-calf">
		<path class="st0" d="M196.9,487.3c-4,5.4-4.9,19.6-5,28c-0.1,3.6,2.6,6.8,6.2,7.3c8.7,1.2,17.2,3.1,25.6,5.7
			c5.4,1.6,13.9,4.4,19,4.7c7.8,0.4,15.7-0.5,23.1-2.9c0.6-3.4,0.6-6.9,0-10.3c-1-5.6-11.7-5.3-21.6-9.6s-15.8-15.1-15.8-15.1
			C221.4,488.6,205.9,475,196.9,487.3z"/>
		<path class="st4" d="M191.8,516.8c0,2.2,2.2,4.4,4.1,5.4c3.4,1.7,10.1,3.4,23.4,6.8c10.2,2.7,15.3,5.5,21.6,6
			c17.1,1.3,24.8-4.8,24.8-4.8c0.5-1.9,0.6-3.8,0.4-5.8c-0.1,0.7-0.5,1.4-1.1,1.8c0,0-7,6-24.4,4.4c-6.1-0.6-10.8-3.5-20.6-6
			c-6.7-1.7-11.3-2.8-14.5-3.5c-8-1.7-10.4-2.3-12.4-4.3c-0.7-0.8-1.2-1.8-1.4-2.8C191.9,514.6,191.8,516.3,191.8,516.8z"/>
		<path class="st2" d="M190.7,496.2l37.5-5.7l10.1-96.1c0,0-32.9-7.5-35.4,1C188.4,442.8,190.7,496.2,190.7,496.2z"/>
		<path class="st3" d="M224.8,399.3c0,0-5.2,67.9-8.5,96.2"/>
		
			<ellipse transform="matrix(0.1172 -0.9931 0.9931 0.1172 -196.572 574.2985)" class="st4" cx="224.7" cy="397.7" rx="16.9" ry="11.8"/>
		<path class="st4" d="M188.7,495.8c0,1.4,0.9,2.6,2.2,3c12.5,4,26,3.6,38.3-1.1c1.2-0.5,2-1.7,2-3.1l-0.2-6.6c0-1.1-0.9-1.9-2-1.9
			c-0.2,0-0.4,0.1-0.7,0.1c-12,4.4-25.1,4.8-37.3,1.1c-1-0.3-2.1,0.2-2.4,1.2c-0.1,0.2-0.1,0.4-0.1,0.7L188.7,495.8z"/>
	</g>
	<g id="l-thigh">
		<path class="st2" d="M173.1,396.6c0,0-3.8,10.4-17.9,10.4s-18-10.4-18-10.4S121.2,331,134,277.8c2.5-10.2,13.7-15.8,26.8-12.1
			c16.1,4.6,21.2,36.1,21.2,36.1L173.1,396.6z"/>
		<path class="st3" d="M155.5,269.3c-8.7,31.1-13.4,90.2-5.1,130"/>
	</g>
	<g id="l-calf">
		<path class="st0" d="M179.5,487.3c4,5.4,4.9,19.6,5,28c0.1,3.6-2.6,6.8-6.2,7.3c-8.7,1.2-17.2,3.1-25.6,5.7
			c-5.4,1.6-13.9,4.4-19,4.7c-7.8,0.4-15.6-0.5-23.1-2.9c-0.6-3.4-0.6-6.9,0-10.3c1-5.6,11.7-5.3,21.6-9.6s15.8-15.1,15.8-15.1
			C155,488.6,170.5,475,179.5,487.3z"/>
		<path class="st4" d="M184.6,516.8c0,2.2-2.2,4.4-4.1,5.4c-3.4,1.7-10.1,3.4-23.3,6.8c-10.2,2.7-15.3,5.5-21.6,6
			c-17.1,1.3-24.8-4.8-24.8-4.8c-0.5-1.9-0.6-3.8-0.4-5.8c0.1,0.7,0.5,1.4,1.1,1.8c0,0,7,6,24.4,4.4c6.1-0.6,10.8-3.5,20.6-6
			c6.7-1.7,11.3-2.8,14.5-3.5c8-1.7,10.4-2.3,12.4-4.3c0.7-0.8,1.1-1.8,1.3-2.8C184.5,514.6,184.6,516.3,184.6,516.8z"/>
		<path class="st2" d="M184.5,496.2l-37.5-5.7l-10.1-96.1c0,0,32.8-7.5,35.4,1C186.7,442.8,184.5,496.2,184.5,496.2z"/>
		<path class="st3" d="M150.3,399.3c0,0,5.2,67.9,8.5,96.2"/>
		
			<ellipse transform="matrix(0.9931 -0.1172 0.1172 0.9931 -45.5662 20.3661)" class="st4" cx="150.4" cy="397.7" rx="11.8" ry="16.9"/>
		<path class="st4" d="M186.5,495.8c0,1.4-0.9,2.6-2.2,3c-12.5,4-26,3.6-38.3-1.1c-1.2-0.5-2-1.7-2-3.1l0.2-6.6c0-1.1,0.9-1.9,2-1.9
			c0.2,0,0.4,0.1,0.7,0.1c12,4.4,25.1,4.8,37.3,1.1c1-0.3,2.1,0.2,2.4,1.2c0.1,0.2,0.1,0.4,0.1,0.7L186.5,495.8z"/>
	</g>
	<g id="torso">
		<path class="st5" d="M259.1,188.9c-15.9,69.4-42.9,86.1-71.6,86.1s-61.6-21.4-71.6-86.1c-7.3-46.9,10.5-86.1,71.6-86.1
			S269.7,142.8,259.1,188.9z"/>
		<rect x="146.8" y="141.5" class="st4" width="78.6" height="40.9"/>
		<path class="st2" d="M259.1,188.9c-1.1,4.6-2.1,9-3,13c-6.5,26.9-10.9,40.4-17.3,57.5c-6.7,18-37.6,22.5-51.4,22.5
			c-13.6,0-45.5-5-52.6-23.6c-6.7-17.2-12-31.2-16.7-56.8l0,0c-0.7-3.9-1.4-8.1-2.1-12.5c-3-19.3-1.8-37.3,5-51.8
			c2.7-5.8,6.4-11.2,11-15.7c9.7,20.4,29.1,52.9,56.2,59c0,0,38.6-22.8,60.6-53.9c2.5,3.1,4.7,6.5,6.5,10.1
			C262.4,151.3,263.5,169.6,259.1,188.9z"/>
		<path class="st3" d="M134,136.4c0,0,12.9,103,25.1,138.1"/>
		<path class="st3" d="M241.2,136.4c0,0-12.9,103-25.1,138.1"/>
		<path class="st4" d="M118,201.5c-1.6-3.4-22.7-47.7-19-62.6c1.8-7.3,23.1-15.6,29.5-17.4c3.5,2.1-0.1,21.2,1.9,26.1
			c4.3,9.8,4.6,20.9,1,31C125,197.1,118,201.5,118,201.5z"/>
		<path class="st4" d="M256.1,201.5c1.6-3.4,23.4-47.7,19.6-62.6c-1.8-7.3-22.7-15.6-29.1-17.4c-3.5,2.1,0.1,21.2-1.9,26.1
			c-4.3,9.8-4.6,20.9-1,31C250.1,197.1,256.1,201.5,256.1,201.5z"/>
		<path class="st4" d="M241,274.7c0,0-10.4,7.2-53.2,7.2c-43,0-53.9-7.2-53.9-7.2v-17.9c0,0,10.4,7.2,53.2,7.2
			c43,0,53.9-7.2,53.9-7.2V274.7z"/>
	</g>
	<g id="head">
		<path class="st5" d="M218.2,34.9c0,0-1.6,12.9-1.9,18.3c-0.3,7.1,9.1,60.1,9.1,60.1s-10.7,20.9-37.8,20.9s-37.8-20.9-37.8-20.9
			s9.3-53.7,9-61c-0.2-5.2-1.9-17.3-1.9-17.3c0-15.2,15.5-30.8,30.6-30.8S218.2,19.8,218.2,34.9z"/>
		<path class="st6" d="M157.8,59.9l2.9-0.8c1-0.3,2,0.3,2.3,1.2l2.1,7.1c0.3,1-0.3,2-1.2,2.3l-2.9,0.8c-1,0.3-2-0.3-2.3-1.2
			l-2.1-7.1C156.3,61.2,156.8,60.2,157.8,59.9z"/>
		<path class="st6" d="M214.3,70.6l-2.9-0.8c-1-0.3-1.5-1.3-1.2-2.3l2.1-7.1c0.3-1,1.3-1.5,2.3-1.2l2.9,0.8c1,0.3,1.5,1.3,1.2,2.3
			l-2.1,7.1C216.2,70.3,215.2,70.8,214.3,70.6z"/>
		<path class="st7" d="M221.7,91.1c-4.3,12.7-19.9,22.2-34.1,22.2s-29.8-9.6-34.1-22.2c-3.3-9.5-1.4-16.8,0-23.2
			c11.6,0,12.6-10.8,34.1-10.6c20.3,0.2,22.6,10.6,34.1,10.6C223.1,74.6,224.9,81.6,221.7,91.1z"/>
		<path class="st7" d="M187.9,50c-11.8,0-22.2-18-22.2-18s13.8-4.3,22.2-4.3s22.2,4.3,22.2,4.3S199.7,50,187.9,50z"/>
		<path class="st7" d="M244.1,27.3c0,0,3.8,8-2.2,12.6s-13.3,0-13.3,0c-0.2,0.6-0.4,1.2-0.8,1.7c-0.8,1.4-2.3,2.3-3.9,2.3
			c-6.8,0-8-16.6-8-16.6l28.1-15.7C244.1,11.6,248.5,22,244.1,27.3z"/>
		<path class="st5" d="M222,32.9c2.1,2.5,4.3,4.8,6.6,7l-0.8,1.7c-0.8,1.4-2.3,2.3-3.9,2.3c-6.8,0-8-16.6-8-16.6l28.1-15.7
			C241.2,22.3,218.7,28.9,222,32.9z"/>
		<path class="st7" d="M131,27.3c0,0-3.8,8,2.2,12.6c6,4.6,13.3,0,13.3,0c0.2,0.6,0.4,1.2,0.8,1.7c0.8,1.4,2.3,2.3,3.9,2.3
			c6.8,0,8-16.6,8-16.6L131,11.6C131,11.6,126.6,22,131,27.3z"/>
		<path class="st5" d="M153.1,32.9c-2.1,2.5-4.3,4.8-6.6,7l0.8,1.7c0.8,1.4,2.3,2.3,3.9,2.3c6.8,0,8-16.6,8-16.6L131,11.6
			C133.9,22.3,156.5,28.9,153.1,32.9z"/>
		<path class="st7" d="M173.5,22.3c4.5-1.4,9.2-2.2,14-2.3c4.7,0.1,9.4,0.9,13.8,2.3c0,0-8.5-5.5-13.5-5.5
			C182.6,16.7,173.5,22.3,173.5,22.3z"/>
		<path class="st8" d="M153.5,67.9c11.6,0,12.6-10.8,34.1-10.6c20.3,0.2,22.6,10.6,34.1,10.6"/>
		<path class="st9" d="M202.7,39.8C200.2,46,194.2,50,187.5,50c-8.4,0-14-6.4-15.2-10.2c0-6.4,6.8-9.4,15.2-9.4
			S202.7,32.7,202.7,39.8z"/>
		<g>
			<defs>
				<path id="SVGID_1_" d="M202.7,39.8C200.2,46,194.2,50,187.5,50c-8.4,0-14-6.4-15.2-10.2c0-6.4,6.8-9.4,15.2-9.4
					S202.7,32.7,202.7,39.8z"/>
			</defs>
			<clipPath id="SVGID_2_">
				<use xlink:href="#SVGID_1_"  style="overflow:visible;"/>
			</clipPath>
			<g class="st10">
				<circle class="st11" cx="187.5" cy="36.8" r="10.3"/>
				<ellipse class="st12" cx="187.5" cy="36.8" rx="6.1" ry="3.2"/>
			</g>
		</g>
	</g>
	<g id="l-hand">
		<path class="st5" d="M14.2,132.6c-1.6-0.9-3.6-0.7-4.9,0.6c-0.6,0.5-1.1,1.1-1.5,1.8c-0.5-0.1-0.9-0.1-1.4-0.1
			c-0.8,0.1-1.5,0.5-2.1,1c-1.2,1.3-2,2.9-2.3,4.6c-0.2,0.9-0.3,1.8-0.2,2.7c-0.7,1-1.2,2.2-1.4,3.4c-1.4,6.3,2.8,13.4,7.3,17.8
			c6.3,6.2,25.3,11.9,25.3,11.9s17.7-9.6,9.9-19.5c-3.4-4.6-8.6-7.5-14.2-8.3c-3.2-1.3-6.2-3-9-5.1
			C17.3,141.4,17.2,134.2,14.2,132.6z"/>
		<path class="st5" d="M42.8,156.5c0,0-2.2-8.1-4.2-11.9s-5.6-15.2-9.8-13.1s-4.8,5.9-3.2,10s-3.7,9.4-2.8,11.4
			S33.2,171.1,42.8,156.5z"/>
		<path class="st7" d="M5.9,141.2c-1.2-0.3-2.7-0.6-4-0.7c-0.2,0.9-0.3,1.8-0.2,2.7c1.8-0.3,4.9-0.6,5.7,2.7c0.7,2.5,1.7,5,2.9,7.3
			c0.1,0.1,5.1,3.7,5.1,3.7s-4.4-4.6-5.2-6.4C7.7,144.5,7.8,141.7,5.9,141.2z"/>
		<path class="st7" d="M7.8,135c1,0.1,1.9,0.4,2.7,1c1.3,1,1.8,4.5,2.6,6.6c0.6,1.6,0.7,3.5,2.4,5s3.5,2.8,3.7,3
			c-1.4-1.8-2.6-3.7-3.6-5.7c-1.3-2.9-2.7-9.4-4.4-10.6c-0.6-0.4-1.2-0.8-1.9-1.1C8.6,133.7,8.1,134.3,7.8,135z"/>
	</g>
	<path id="l-arm" class="st4" d="M81.5,211.4c0,0,0.1,13.2,11.1,15.8s18.3-8.8,18.3-8.8s12.4-25.5,15.3-38c3-12.5,5.1-23.1,4.8-30.9
		c-0.2-5.5-1.4-14.3-15.1-17.6s-18.8,4.1-21.4,8.9c-3.8,6.8-6.7,17.3-9.6,29.8S81.5,211.4,81.5,211.4z"/>
	<g id="l-forearm">
		<path class="st4" d="M31.5,178.1c0,0-2.7-5.9,2.1-12.1c6.1-7.8,12.2-7.9,12.2-7.9s15.9,8.7,27.2,15.8s22.6,19,22.6,19
			c3.9,5.4,5.5,12.1,4.3,18.6c-2.3,12.9-7.4,15.6-7.4,15.6c-10.1-3.3-19.6-8.2-28.1-14.5C50.1,202,31.5,178.1,31.5,178.1z"/>
		<path class="st13" d="M29.5,177.6c0,0-0.7-12.1,15.3-21.4"/>
	</g>
	<g id="r-hand">
		<path class="st5" d="M264.1,314c4.4,0.9,9.7-14.2,9.7-14.2l4.9,9.3c0,0-12.4,22.1,2.2,17.7c0.7,0.2,1.5,0.3,2.2,0.2
			c3.1-0.2,6.1-2.6,8.1-5.4c1.1-0.8,2.2-1.7,3.2-2.7c4.7-4.8,5.8-10.4,6-16c0.3-6.6-5.8-16.7-8.9-21.3l-0.5-0.8
			c-0.7-1-1.1-1.6-1.1-1.6l-19.5-5.7c0,0-0.4,2.5-1.1,6.1c-0.1,0.6-0.2,1.1-0.3,1.8c-1.3,6.6-3.1,15.4-4.7,19.4
			C261.5,307.4,259.7,313.1,264.1,314z"/>
		<path class="st7" d="M280.9,326.9c0.7,0.2,1.5,0.3,2.2,0.2c3.3-4.5,4.9-10.1,4.5-15.6C287.6,311.4,285.3,322.2,280.9,326.9z"/>
		<path class="st7" d="M291.1,321.6c1.1-0.8,2.2-1.7,3.2-2.7c1.1-3.6,2.1-8.6,0.5-11.5C294.5,312.4,293.3,317.2,291.1,321.6z"/>
	</g>
	<path id="r-arm" class="st4" d="M293.7,211.4c0,0-1.3,11-12.3,13.6s-17.1-6.6-17.1-6.6s-12.4-25.5-15.3-38s-5.1-23.1-4.8-30.9
		c0.2-5.5,1.4-14.3,15.1-17.6s18.8,4.1,21.4,8.9c3.8,6.8,6.6,17.3,9.6,29.8S293.7,211.4,293.7,211.4z"/>
	<g id="r-forearm">
		<path class="st4" d="M291.8,278.1c0,0-3,5.7-10.9,5.7c-9.9,0-13.7-4.8-13.7-4.8s-2.8-17.9-4.1-31.2s1.2-29.5,1.2-29.5
			c1.8-6.4,6.2-11.7,12.1-14.8c11.6-6,16.7-4.6,16.7-4.6c3.7,10.3,5.7,21.1,5.9,32C299.3,248.8,291.8,278.1,291.8,278.1z"/>
		<path class="st13" d="M292.7,280.1c0,0-9.2,8-26.3,0.9"/>
	</g>
	<g id="collar">
		<path class="st0" d="M145.1,109l-45.8,15c0,0,31,56.1,88.3,71.6v-25.5C187.6,170.1,154.6,157.7,145.1,109z"/>
		<path class="st0" d="M230.1,109l45.9,15c0,0-31,56.1-88.3,71.6v-25.5C187.6,170.1,220.5,157.7,230.1,109z"/>
	</g>
</g>
</svg>
