<?xml version="1.0" encoding="utf-8"?>
<!-- Generator: Adobe Illustrator 25.2.0, SVG Export Plug-In . SVG Version: 6.00 Build 0)  -->
<svg version="1.1" id="Layer_1" xmlns="http://www.w3.org/2000/svg" xmlns:xlink="http://www.w3.org/1999/xlink" x="0px" y="0px"
	 viewBox="0 0 193.5 462" style="enable-background:new 0 0 193.5 462;" xml:space="preserve">
<style type="text/css">
	.st0{fill:#FFA400;}
	.st1{fill:#ED6100;}
	.st2{fill:#7D33A3;}
	.st3{fill:#A1B200;}
	.st4{fill:#E2E229;}
	.st5{fill:none;stroke:#A1B200;stroke-linecap:round;stroke-miterlimit:10;}
	.st6{fill:#430B60;}
	.st7{fill:#FBFF43;}
	.st8{fill:#DAE78D;}
	.st9{fill:#1C1128;}
	.st10{clip-path:url(#SVGID_2_);}
	.st11{fill:#953DBA;}
	.st12{fill:#AF4700;}
	.st13{fill:#FFFFFF;}
	.st14{fill:#77185E;}
	.st15{fill:#130E19;}
	.st16{fill:#933B00;}
	.st17{opacity:0.5;fill:#ED6100;enable-background:new    ;}
</style>
<path class="st0" d="M141,1.2c-2.2,0.2-4.5,0.4-6.9,0.7C136.3,1.6,138.6,1.3,141,1.2z"/>
<path class="st0" d="M144.8,1c-1.3,0-2.5,0.1-3.8,0.2l1.3-0.1C143.1,1,143.9,1,144.8,1z"/>
<path id="b-arm" class="st1" d="M89.9,153.1c0,0-8.7,4.1-6.5,10.5s11.6,4.3,11.6,4.3s57.8-12.8,72-23.1c7.2-5.2,3.9-18.1-6.1-17.9
	C139.1,127.4,89.9,153.1,89.9,153.1z"/>
<path id="b-forearm" class="st1" d="M30.4,176.4l3.1,9.1c0,0,42.1-5.8,61.5-17.6c3.4-2-0.9-14.9-4.8-15
	C73.1,152.8,30.4,176.4,30.4,176.4z"/>
<g id="b-hand">
	<path class="st1" d="M26.3,195.6c0,0-9.5,8.8-15.4,7.7c-4.5-0.8,0.3-5.9,5.1-7.9c3.8-1.6,7.4-7.7,7.4-7.7L26.3,195.6z"/>
	<path class="st1" d="M38.2,182c0,0-8.5,12.3-14,15.2s-9.4-8.9-8.4-15c0.4-2.5,3.3-6.1,6.9-7.8C28.1,172,35.1,173.2,38.2,182z"/>
	<path class="st1" d="M21.7,164.6c0,0,7.7,4.6,12,10s-7.6,6.6-7.6,6.6s-11.5-10.7-10.5-14.4C16.6,163.1,16.6,161.1,21.7,164.6z"/>
	<path class="st1" d="M20.2,186.8c0,0-12.6,6.7-18.6,3.8c-4.5-2.1,2-6.2,7.7-6.9c4.5-0.6,10-6.1,10-6.1L20.2,186.8z"/>
	<path class="st1" d="M21,194.6c0,0-12.6,6.7-18.6,3.8c-4.5-2.1,2-6.2,7.7-6.9c4.5-0.6,10-6.1,10-6.1L21,194.6z"/>
</g>
<path id="b-thigh" class="st2" d="M138.6,342.6c0,0-11.4,9.2-16.6,8.9c-8.6-0.5-6.6-16.1-6.6-16.1s9.8-55.4,27-89.8
	c4.3-8.6,15.5-18.2,25.4-14.6c8.9,3.2,13.6,13,10.4,22c0,0.1-0.1,0.3-0.1,0.4C169.4,276,138.6,342.6,138.6,342.6z"/>
<g id="b-calf">
	<path class="st3" d="M111,365.3c0,0,1.7-7.6,23.4-13.3c16.9-4.4,19-1.2,19-1.2s-4,32.5-13,35C124.6,390.1,111,365.3,111,365.3z"/>
	<path class="st2" d="M156.2,420.3l-7.8,2l-28.7-71.3c0,0,14-17.2,18.2-14.5C156,348.2,156.2,420.3,156.2,420.3z"/>
	<path class="st3" d="M153.4,350.9l3.8,19.3l10,58.8c0,0-16.1,12.7-30.5-3.9l-18.6-43.2l-7.1-16.5c3.3,6,16.8,4.3,29.5-1.2
		C152.6,358.9,153.4,350.9,153.4,350.9z"/>
	<path class="st3" d="M136.5,422.3c0,0-2.8,5.7-10.3,12.4c-7.5,6.8-25.3,3.8-25.2,9.7s-0.4,8.3,4,10.2s22.3,0.5,30.2-0.1
		s14,0.3,23.6,0.5s9.7-4.8,9.7-4.8s1.5-15.2-3.4-28.4S136.5,422.3,136.5,422.3z"/>
	<path class="st4" d="M153.4,350.9l3.8,19.3c-2.6,3.7-7.4,8.2-16.3,11.3c-11.4,4.1-18.9,2.1-22.8,0.4l-7.1-16.5
		c3.3,6,16.8,4.3,29.5-1.2C152.6,358.9,153.4,350.9,153.4,350.9z"/>
	<line class="st5" x1="149.5" y1="377.2" x2="162.5" y2="422.9"/>
	<path class="st5" d="M136.7,425c0,0,17.6,6.9,29.3-5.1"/>
	<path class="st6" d="M168.6,450.2c0,0-0.1,5-9.7,4.8s-15.8-1.1-23.6-0.5s-25.7,2-30.2,0.1s-3.9-4.3-4-10.2c0-0.3,0-0.5,0.1-0.8
		c0.3,2,1.2,3.3,3.8,4.4c4.4,1.9,22.3,0.5,30.2-0.1s13.9,0.3,23.6,0.5s9.7-4.8,9.7-4.8s0.1-1.4,0.2-3.8
		C168.9,443.3,168.9,446.8,168.6,450.2z"/>
</g>
<g id="torso">
	<path class="st3" d="M178.5,267.8c0.8-0.6,1.6-1.2,2.3-2c0.5-0.6,0.8-1.3,1-2c0.1-0.5,0-1.1-0.3-1.5c-0.4-0.6-0.8-1.1-1.4-1.5
		c-1.5-1.1-3.3-2-5.1-2.6c-2.1-0.7-4.2-1.2-6.3-1.6c-4.5-0.9-9.1-1.4-13.7-1.4c-2.3-0.1-4.6,0-6.9,0.2c-2.1,0.2-4.1,0.6-6.1,1.2
		c-1.8,0.7-3,1.6-3.3,2.4c-0.2,0.6-0.3,1.2-0.1,1.8c0.2,0.8,0.6,1.6,1.1,2.3c0.6,0.8,1.3,1.6,2.1,2.2c0.9,0.7,1.8,1.3,2.8,1.9
		c2,1.1,4.2,2,6.4,2.6c4.6,1.3,9.4,1.9,14.2,1.6c2.4-0.1,4.7-0.5,7-1C174.5,269.8,176.6,268.9,178.5,267.8z M181.5,272.7
		c-5.8,2.7-13.6,3-18.6,2.9c-6.8-0.1-14.2-1.2-20.4-4c-4-1.8-8.1-4.7-9.8-9c-2.2-5.6,1.3-11,6.2-13.7c5.2-2.9,11.3-3.6,17.2-3.9
		c6.3-0.3,12.6,0.5,18.6,2.4c6.3,2.2,14.8,7.7,14.3,15.3C188.5,267.8,185.5,270.9,181.5,272.7L181.5,272.7z"/>
	<path class="st6" d="M192.2,254.4c-1.7,14.7-17.3,18.9-31.1,19.4c-7.9,0.4-15.6-2.7-20.9-8.6c-7.6-8.4-6.9-25.4-7.6-41.5
		c-0.5-11.4,53-2.3,53-2.3S194.1,237.2,192.2,254.4z"/>
	<path class="st1" d="M172.3,117.7c0,0-23.5,24.9-32.2,21.8c-3.4-1.2-13.5-13.3-16.8-19.7c-8.5-16.6-5.6-53.5-5.6-53.5l34-6.8
		c0,0-7.4,21.5,4.4,41.9C160,108.1,165.6,113.7,172.3,117.7z"/>
	<path class="st6" d="M185,215.2l1.1,12.9l-52.6,2.2l-1.6-6.5c0,0-5.1-18.9-6.3-45.6c-0.4-13.4,2-26.8,7.2-39.2
		c0,0,19.9-34.9,34.5-33.6c13.8,1.2,23.4,22.8,24.6,49.5S185,215.2,185,215.2z"/>
	<path class="st7" d="M189.1,228.3c0,0-10,6-29.3,6.8s-27.5-3-27.5-3l-0.3-8.2c0,0,8.3,3.8,27.5,3s26.5-6.2,26.5-6.2L189.1,228.3z"
		/>
	<path class="st8" d="M142,123.4c-10.2,12.6-12.3,24.3-12.3,24.3s12.3-15.2,24.1-25.3c5.2-4.5,24.1-13,14.6-18.5
		S150.2,113.2,142,123.4z"/>
	<path class="st8" d="M182.3,136.5c0.5,11.5-7.7,21.1-18.3,21.6s-19.4-3.2-19.9-14.7s6.4-23,18.1-26.9S181.8,125,182.3,136.5z"/>
	<path class="st9" d="M180.1,144c0.4,9.9-6.7,18.3-15.9,18.7S147.5,160,147,150s5.5-19.9,15.7-23.3S179.7,134.1,180.1,144z"/>
	<path class="st8" d="M183.1,268c0.8-0.6,1.6-1.2,2.3-2c0.5-0.6,0.9-1.3,1-2c0.1-0.5,0-1.1-0.3-1.5c-0.4-0.6-0.8-1.1-1.4-1.5
		c-1.5-1.1-3.3-2-5.1-2.6c-2.1-0.7-4.2-1.2-6.3-1.6c-4.5-0.9-9.1-1.4-13.7-1.4c-2.3-0.1-4.6,0-6.9,0.2c-2.1,0.2-4.1,0.6-6.1,1.2
		c-1.8,0.7-3,1.6-3.3,2.4c-0.2,0.6-0.3,1.2-0.1,1.8c0.2,0.8,0.6,1.6,1.1,2.3c0.6,0.8,1.3,1.6,2.1,2.2c0.9,0.7,1.8,1.3,2.8,1.9
		c2,1.1,4.2,2,6.4,2.6c4.6,1.3,9.4,1.9,14.3,1.6c2.4-0.1,4.7-0.5,7.1-1.1C179.2,270,181.2,269.2,183.1,268z M186,272.9
		c-2.5,1.2-5.2,2.1-8,2.4c-2.6,0.4-5.2,0.6-7.8,0.6c-5.2,0.1-10.4-0.4-15.5-1.5c-2.6-0.6-5.2-1.4-7.7-2.5c-1.3-0.6-2.5-1.2-3.7-2
		c-1.3-0.8-2.4-1.7-3.5-2.8c-1.2-1.2-2.1-2.6-2.7-4.1c-0.7-1.8-1-3.7-0.6-5.6c0.2-1,0.5-1.9,1-2.8c0.5-0.8,1-1.6,1.6-2.3
		c1.2-1.2,2.5-2.3,4-3.1c1.3-0.7,2.7-1.3,4.1-1.8c1.4-0.4,2.7-0.8,4.1-1.1c2.7-0.5,5.4-0.9,8.1-1c5.4-0.4,10.8,0.1,16.1,1.3
		c2.8,0.7,5.5,1.7,8,3c2.8,1.4,5.2,3.4,7.2,5.8c1.1,1.4,2,3.1,2.4,4.9c0.5,2,0.3,4-0.5,5.9c-0.7,1.6-1.7,3-3.1,4.1
		C188.6,271.3,187.3,272.1,186,272.9z"/>
	<path class="st8" d="M180,147.6c0.2-1.2,0.2-2.4,0.2-3.5c-0.4-9.9-7.3-20.6-17.4-17.3s-16.1,13.4-15.7,23.3c0,0.9,0.1,1.7,0.3,2.6
		c-2-2.6-3.1-5.8-3.1-9.2c-0.5-11.5,6.4-23,18.1-26.9s19.6,8.5,20.1,19.9C182.5,140.3,181.7,144.1,180,147.6z"/>
</g>
<g id="f-arm">
	<g>
		<defs>
			<path id="SVGID_1_" d="M165.9,197.6c-0.3,21.4-55.8,29.8-80.9,31.6s-59.9,14.6-53.9-26.9c3.5-24.4,82.3-54.7,82.3-54.7l34.7-5.7
				c0.4-1.1,0.8-2.3,1.3-3.3c1.2-2.4,2.7-4.7,4.7-6.6c0.4-0.4,0.9-0.8,1.3-1.2s1-0.8,1.4-1.1c1.8-1.3,3.8-2.3,5.8-3
				c10.1-3.4,17,7.4,17.4,17.3c0,0.7,0,1.5,0,2.2c0,0.2,0,0.4,0,0.6s-0.1,0.4-0.1,0.7l0,0C180,147.5,166.2,176.2,165.9,197.6z"/>
		</defs>
		<clipPath id="SVGID_2_">
			<use xlink:href="#SVGID_1_"  style="overflow:visible;"/>
		</clipPath>
		<g class="st10">
			<path class="st0" d="M126,193.7c0,0-3.4,9,2.7,12.1c6,3.1,11.3-4.9,11.3-4.9s32.6-49.4,35.7-66.6c1.5-8.7-9.8-15.7-16.8-8.6
				C143.4,141,126,193.7,126,193.7z"/>
			<path class="st0" d="M68.4,198.7l0.8,9.6c0,0,42.3,4.5,63.9-2.2c3.8-1.2,2.7-14.7-1.1-15.7C115.5,186.1,68.4,198.7,68.4,198.7z"
				/>
		</g>
	</g>
</g>
<path id="f-thigh" class="st11" d="M147.3,348.9c0,0-11.4,9.2-16.6,8.9c-8.6-0.5-6.6-16.1-6.6-16.1s9.8-55.4,27-89.8
	c4.3-8.6,15.5-18.1,25.4-14.6c8.9,3.2,13.6,13,10.4,22c0,0.1-0.1,0.3-0.1,0.4C178.1,282.3,147.3,348.9,147.3,348.9z"/>
<g id="hips">
	<path class="st6" d="M138.9,258.9l-3.4-22.7c0,0,30.6,0.9,53.2-3.8c0,0,4.5,15.4,0,27.7c0,0-7.5-8-24.1-7.9
		C150.5,252.3,142.6,253.1,138.9,258.9z"/>
	<path class="st8" d="M193.2,260.3c-0.1-0.5-0.3-1-0.4-1.5c-1.3-3-3.4-5.6-6.2-7.4c-6-4.3-13.6-5.9-21-6.1
		c-5.6-0.3-11.3,0.3-16.7,1.7c-3.6,1-7.2,2.6-9.7,5.4c-3.3,3.7-3.5,9.3-0.4,13.2c1.4-1.8,3-3.6,4.6-5.4c-0.1-1.6,1.3-2.8,2.6-3.4
		c1.7-0.7,3.5-1.1,5.3-1.3c5.1-0.6,10.3-0.6,15.4,0c5.1,0.6,10.4,1.3,15.1,3.4c2,0.9,5.5,2.8,4.5,5.5c0.1,0.2,0.2,0.4,0.3,0.7
		c0.6,2,1.3,4,2,6c0.4-0.3,0.8-0.6,1.1-0.9C192.6,267.9,193.9,264.1,193.2,260.3z"/>
</g>
<g id="f-calf">
	<path class="st3" d="M119.6,371.6c0,0,1.7-7.6,23.5-13.3c16.8-4.4,19-1.2,19-1.2s-4,32.5-13,35
		C133.3,396.5,119.6,371.6,119.6,371.6z"/>
	<path class="st11" d="M164.9,426.7l-7.8,2l-28.7-71.2c0,0,14-17.2,18.2-14.5C164.6,354.5,164.9,426.7,164.9,426.7z"/>
	<path class="st8" d="M162.1,357.2l3.8,19.3l10,58.8c0,0-16.1,12.7-30.5-3.9l-18.6-43.2l-7.1-16.5c3.3,6,16.7,4.3,29.5-1.2
		C161.3,365.2,162.1,357.2,162.1,357.2z"/>
	<path class="st8" d="M145.2,428.6c0,0-2.8,5.7-10.3,12.4c-7.5,6.8-25.3,3.8-25.2,9.8s-0.4,8.3,4,10.2s22.3,0.5,30.2-0.1
		s13.9,0.3,23.6,0.5s9.7-4.8,9.7-4.8s1.5-15.2-3.4-28.4S145.2,428.6,145.2,428.6z"/>
	<path class="st7" d="M162.1,357.2l3.8,19.3c-2.6,3.7-7.4,8.2-16.3,11.3c-11.4,4.1-19,2.1-22.8,0.4l-7.1-16.5
		c3.3,6,16.7,4.3,29.5-1.2C161.3,365.2,162.1,357.2,162.1,357.2z"/>
	<line class="st5" x1="158.2" y1="383.6" x2="171.4" y2="430.3"/>
	<path class="st5" d="M144.7,429.8c0,0,17.3,10.4,29.1-1.6"/>
	<path class="st6" d="M177.2,456.6c0,0-0.1,5-9.7,4.8s-15.8-1.1-23.6-0.5s-25.7,2-30.2,0.1s-3.9-4.2-4-10.2c0-0.3,0-0.5,0.1-0.8
		c0.3,2,1.2,3.3,3.8,4.4c4.4,1.9,22.3,0.5,30.2-0.1s14,0.3,23.6,0.5s9.7-4.8,9.7-4.8s0.1-1.4,0.2-3.8
		C177.6,449.6,177.5,453.1,177.2,456.6z"/>
</g>
<g id="head">
	<path class="st0" d="M126.5,82.1c-0.4,7.4-2.1,18-4.8,19.6c-3.7,2.2-9.2,0.9-12.5-2.6c-2.7-2.8-5.2-5.8-7.6-6.1s-3,0.2-5.5,2.2
		c-2.8,2.2-5.7,4-8.7,0.7c-1.7-1.9-3.2-11.7-3.6-18c-0.9-13.2-0.4-26.5,1.7-39.5c2.2-12.8,1.5-17.7,5.8-23.3c2.8-4,9.7-6.8,12.1-7.3
		s5.5,0.6,8.5,2.2C120.8,15,129,40.3,126.5,82.1z"/>
	<path class="st0" d="M184.6,45c-9.9,12.2-29.2,21.5-44.3,27.4c-2.2,9-3.5,23.8-18.6,29.4c-6.1-0.6-5.6-23.8-5.3-44.1
		c0.2-10.7,0.3-20.6-0.6-25.9c-0.8-4.8-1.4-8.7-3.1-12.6s-4.5-7.3-9.4-11.3c1.6-0.5,7.8-1.4,9.1-1.7c3.3-0.6,6.6-1.2,9.9-1.8
		c6.6-1.2,15.8-3.6,22.4-4.2c11.7-1,21.9,0.6,32.4,6.4c5.4,2.8,9.7,7.4,12.1,13C193.1,29.1,190.5,37.6,184.6,45z"/>
	<path class="st12" d="M109.8,88.3c-0.9,1.8-4.7-2.5-7.3-2.5s-6.1,2.5-7.4,0.8c-1.2-1.5-1.6-3.4-1.2-5.3c0.4-3.5,5.9-2.5,8.5-2.1
		c3.2,0.5,5.8,0.9,8.4,1.3C111.6,82.3,110.5,86.9,109.8,88.3z"/>
	<path class="st13" d="M96.5,45.5c0.4,5.6,1.1,18.8-4,18.2c-5.4-0.8-9.9-6.8-10.6-16.2s2.8-16.2,7.8-17.7
		C94.8,29.3,96.1,39.9,96.5,45.5z"/>
	<ellipse class="st14" cx="88.4" cy="45.9" rx="4.9" ry="10.9"/>
	<path class="st15" d="M88.4,34.9c0.4,1.8,0.7,3.6,0.8,5.5c0.2,1.8,0.2,3.7,0.2,5.5s-0.1,3.7-0.2,5.5c-0.1,1.8-0.4,3.7-0.8,5.5
		c-0.4-1.8-0.7-3.6-0.8-5.5c-0.2-1.8-0.2-3.7-0.2-5.5s0.1-3.6,0.2-5.5C87.8,38.6,88,36.7,88.4,34.9z"/>
	<ellipse class="st15" cx="88.4" cy="45.9" rx="2.4" ry="5.4"/>
	<path class="st1" d="M84,32.3c0,0,2.6-1.1,3.9,0s5.8,3.4,8.9,26c1.5-8.2,1.2-16.6-1.1-24.6C92.7,22.6,84,32.3,84,32.3z"/>
	<path class="st16" d="M81,34.9c0.8-1.5,2-2.7,3.5-3.6c0.9-0.5,1.9-0.6,2.9-0.3c0.5,0.1,0.9,0.4,1.3,0.6c0.4,0.2,0.7,0.5,1,0.8
		c1.1,1.2,2,2.5,2.6,4c0.6,1.4,1.1,2.8,1.6,4.3c0.8,2.9,1.5,5.8,1.9,8.8c0.5,3,0.8,5.9,1.1,8.9c-0.5-2.9-1.1-5.9-1.8-8.8
		c-0.6-2.9-1.5-5.7-2.5-8.5c-0.5-1.4-1.1-2.7-1.8-4c-0.6-1.2-1.5-2.3-2.5-3.3c-0.3-0.2-0.5-0.4-0.8-0.6c-0.2-0.2-0.5-0.3-0.7-0.3
		c-0.5-0.1-1,0-1.4,0.2c-1.1,0.7-2.1,1.6-2.7,2.7v0.1c-0.3,0.5-0.9,0.6-1.4,0.3C80.8,35.9,80.7,35.3,81,34.9z"/>
	<path class="st0" d="M100.3,77.5c-2.4,0.7-4.6,2-6.4,3.6c-2.8,2.4-5.3,5-7.5,7.9c-5.2,6.7-9.8,13.9-13.6,21.5
		c-4.3,7.9-8.1,16.1-11.3,24.6c-1.5,4.2-2.8,8.6-3.7,13c-1,4.4-1.5,8.8-1.5,13.3v0.5c0.1,6.4-5,11.7-11.4,11.8s-11.7-5-11.8-11.4
		l0,0c0-1.1,0.1-2.2,0.4-3.2c0.7-2.5,1.2-5,1.6-7.4l0.3-1.8l0.3-1.8c0.2-1.2,0.4-2.5,0.5-3.7c0.7-4.9,1.2-9.8,1.6-14.8
		s0.6-10.1,1.1-15.2c0.4-5.1,1.2-10.2,2.3-15.2c2.4-10.4,5.8-20.6,10.4-30.2c2.6-5.4,5.6-10.5,9.1-15.3c2-2.7,4.2-5.2,6.5-7.6
		c2.6-2.7,5.5-5.1,8.7-7.2l6.6-4.6c10.9-7.5,25.9-4.8,33.5,6.1c7.5,10.9,4.8,25.9-6.1,33.5C106.9,75.6,103.7,76.9,100.3,77.5z"/>
	<path class="st0" d="M59.7,177.6c-3,3.2-12.9-2.1-17.2-2.7s-15.4,1.2-17.2-2.7c-1.6-3.5,6.9-9.4,8-13.1c1.7-5.7,22.8-2.4,22.7,3.6
		C56.1,166.5,62.3,174.8,59.7,177.6z"/>
	<path class="st1" d="M59,58c1.2-2.2,2.9-4,4.9-5.4c2.1-1.4,4.4-2.3,6.9-2.7c5-0.8,10.1,0.1,14.5,2.5l-0.5,0.9
		c-4.2-2.5-9.1-3.5-13.9-2.9c-2.4,0.3-4.8,1.1-6.9,2.4C61.9,54.1,60.2,55.9,59,58z"/>
	<path class="st1" d="M45.9,81.5c0.7-2,2-3.7,3.7-4.8c1.7-1.2,3.7-1.9,5.8-2.2c4.1-0.6,8.3,0.2,11.9,2.3c-1.9-0.6-3.9-1.1-5.9-1.3
		c-2-0.3-3.9-0.3-5.9,0c-1.9,0.3-3.8,0.9-5.5,1.9C48.3,78.3,46.9,79.8,45.9,81.5z"/>
	<path class="st1" d="M39.4,110.4c0.4-1.6,1.5-3,3-3.9c1.4-0.8,3.1-1.4,4.7-1.5c3.3-0.3,6.6,0.2,9.6,1.7c-3.1-0.7-6.3-0.9-9.4-0.7
		c-1.5,0.2-3.1,0.6-4.5,1.2C41.3,107.8,40.1,109,39.4,110.4z"/>
	<path class="st13" d="M112.4,48.6c0.4,5.6,1.1,18.8-4,18.2c-5.4-0.8-9.9-6.8-10.6-16.2s2.8-16.2,7.8-17.7
		C110.7,32.5,112,42.9,112.4,48.6z"/>
	
		<ellipse transform="matrix(0.9974 -7.149744e-02 7.149744e-02 0.9974 -3.3056 7.508)" class="st14" cx="103.2" cy="49.9" rx="4.9" ry="10.9"/>
	<path class="st15" d="M102.4,39c0.5,1.8,0.9,3.6,1.2,5.4c0.3,1.8,0.5,3.6,0.6,5.4s0.2,3.6,0.2,5.5c0,1.8-0.1,3.7-0.4,5.5
		c-0.5-1.8-0.9-3.6-1.2-5.4c-0.3-1.8-0.5-3.6-0.6-5.4s-0.2-3.6-0.2-5.5C102,42.7,102.2,40.8,102.4,39z"/>
	
		<ellipse transform="matrix(0.9974 -7.149744e-02 7.149744e-02 0.9974 -3.3056 7.508)" class="st15" cx="103.2" cy="49.9" rx="2.4" ry="5.4"/>
	<path class="st1" d="M99.9,35.4c0,0,2.6-1.1,3.9,0s5.8,3.4,8.9,26c1.5-8.2,1.2-16.6-1.1-24.6C108.6,25.7,99.9,35.4,99.9,35.4z"/>
	<path class="st16" d="M96.8,38c0.8-1.5,2-2.7,3.5-3.6c0.9-0.5,1.9-0.6,2.9-0.3c0.5,0.1,0.9,0.4,1.3,0.6c0.3,0.2,0.7,0.5,1,0.8
		c1.1,1.2,2,2.5,2.6,4c0.6,1.4,1.1,2.8,1.6,4.3c0.8,2.9,1.5,5.8,1.9,8.8c0.5,3,0.8,5.9,1.1,8.9c-0.5-2.9-1.1-5.9-1.8-8.8
		c-0.6-2.9-1.5-5.7-2.5-8.5c-0.5-1.4-1.1-2.7-1.8-4c-0.6-1.2-1.4-2.3-2.5-3.3c-0.3-0.2-0.5-0.4-0.8-0.6c-0.2-0.2-0.5-0.3-0.7-0.3
		c-0.5-0.1-1,0-1.4,0.2c-1.1,0.7-2,1.6-2.7,2.7v0.1c-0.3,0.5-0.9,0.6-1.4,0.3C96.7,39.1,96.6,38.5,96.8,38L96.8,38z"/>
	<path class="st17" d="M184.6,45c-9.9,12.2-29.2,21.5-44.3,27.4c1.2-5.1,3.5-10.5,3.6-24.7c0.1-10.1,0.6-16.8,0.1-21
		c3.3,0.9,5.6,0.1,10,11.9s23.4,10,29.8,6.5C184.3,44.9,184.6,44.9,184.6,45z"/>
	<path class="st1" d="M114.5,36c0,0,2.5-10.1-1.1-13.7s-6,0.6-6,0.6l-1.1,4.8C106.3,27.7,112.3,23.7,114.5,36z"/>
	<path class="st1" d="M86.5,31.7c0,0,0-7.5,3.1-10.3s4.2,0.3,4.2,0.3v3.6C93.9,25.3,90.2,22.5,86.5,31.7z"/>
</g>
<g id="f-hand">
	<path class="st0" d="M59.8,216.4c0,0-11.3,6.2-16.8,3.7c-4.1-1.9,1.8-5.6,6.9-6.4c4-0.6,9-5.7,9-5.7L59.8,216.4z"/>
	<path class="st0" d="M74.6,206c0,0-11.3,9.9-17.3,11.4s-7-10.9-4.5-16.6c1-2.3,4.7-5.2,8.6-5.9C67.1,193.9,73.7,196.7,74.6,206z"/>
	<path class="st0" d="M62.8,185.1c0,0,6.4,6.3,9.2,12.6s-9,4.6-9,4.6s-8.5-13.2-6.7-16.5S58.7,180.5,62.8,185.1z"/>
	<path class="st0" d="M56,206.3c0,0-13.8,3.4-19-0.8c-3.9-3.2,3.5-5.5,9.2-4.8c4.5,0.5,11.2-3.5,11.2-3.5L56,206.3z"/>
	<path class="st0" d="M54.7,214.1c0,0-13.8,3.4-19-0.8c-3.9-3.2,3.5-5.5,9.2-4.8c4.5,0.5,11.2-3.5,11.2-3.5L54.7,214.1z"/>
</g>
</svg>
