<?xml version="1.0" encoding="utf-8"?>
<!-- Generator: Adobe Illustrator 25.2.0, SVG Export Plug-In . SVG Version: 6.00 Build 0)  -->
<svg version="1.1" id="Layer_1" xmlns="http://www.w3.org/2000/svg" xmlns:xlink="http://www.w3.org/1999/xlink" x="0px" y="0px"
	 viewBox="0 0 226.8 401.9" style="enable-background:new 0 0 226.8 401.9;" xml:space="preserve">
<style type="text/css">
	.st0{fill:#ED6100;}
	.st1{fill:#A1B200;}
	.st2{fill:#7D33A3;}
	.st3{fill:#E2E229;}
	.st4{fill:none;stroke:#A1B200;stroke-linecap:round;stroke-miterlimit:10;}
	.st5{fill:#430B60;}
	.st6{fill:#953DBA;}
	.st7{fill:#DAE78D;}
	.st8{fill:#FBFF43;}
	.st9{fill:#1C1128;}
	.st10{fill:#FFA400;}
	.st11{fill:#AF4700;}
	.st12{fill:#FFFFFF;}
	.st13{fill:#77185E;}
	.st14{fill:#130E19;}
	.st15{fill:#933B00;}
	.st16{opacity:0.5;fill:#ED6100;enable-background:new    ;}
</style>
<path id="b-arm" class="st0" d="M101.3,92.6c0,0-7.5-6-12.3-1.2s1.1,12.3,1.1,12.3s36.7,46.5,52.1,54.7c7.8,4.2,17.9-4.4,13.4-13.3
	C145.8,125.7,101.3,92.6,101.3,92.6z"/>
<path id="b-forearm" class="st0" d="M90.9,34.6l-9.6,1.5c0,0-1.6,42.5,6.7,63.6c1.4,3.7,14.9,1.7,15.6-2.2
	C106.8,80.7,90.9,34.6,90.9,34.6z"/>
<g id="b-hand">
	<path class="st0" d="M95.5,22.6c0,0,2.6-12.7-1.4-17.2c-3-3.4-4.9,3.3-4.1,8.5c0.6,4-2.8,10.3-2.8,10.3L95.5,22.6z"/>
	<path class="st0" d="M90,39.8c0,0,6.1-13.7,5.8-19.9s-12.5-3.5-17.2,0.6c-1.9,1.7-3.6,6-3.1,9.9C76.2,36.3,80.9,41.7,90,39.8z"/>
	<path class="st0" d="M100.2,25.2c0,0-4.8,7.6-10.4,11.6S83.5,29,83.5,29s11-9.5,14.8-10S103.9,20.2,100.2,25.2z"/>
	<path class="st0" d="M84.8,21.9c0,0-0.8-14.2-6.4-17.9c-4.2-2.8-4.2,4.9-1.9,10.2c1.8,4.1-0.1,11.8-0.1,11.8L84.8,21.9z"/>
	<path class="st0" d="M91.9,18.5c0,0-0.8-14.2-6.4-17.9c-4.2-2.8-4.2,5-1.9,10.2c1.8,4.1-0.1,11.8-0.1,11.8L91.9,18.5z"/>
</g>
<g id="b-calf">
	<path class="st1" d="M21.5,297.8c0,0,3.1-7.2,25.5-8.9c17.4-1.3,18.9,2.2,18.9,2.2s-9.8,31.2-19.1,32.1
		C30.5,324.7,21.5,297.8,21.5,297.8z"/>
	<path class="st2" d="M56.2,360l-8,0.6l-16.3-79.5c0,0,17.6-10.2,21.2-6.8C68.8,289,56.2,360,56.2,360z"/>
	<path class="st1" d="M65.8,291.1l0.3,19.6l-0.7,59.6c0,0-18.1,9.6-29.3-9.3l-10.6-45.8l-4-17.5c2.2,6.5,15.7,7.2,29.2,4.1
		C63.6,298.9,65.8,291.1,65.8,291.1z"/>
	<path class="st1" d="M35.9,360.4c0,0-2.9,5.6-10.5,12.3S0,376,0,381.9s-0.5,8.3,3.9,10.3s22.3,0.9,30.2,0.4s13.9,0.5,23.6,0.9
		s9.8-4.6,9.8-4.6s1.8-15.2-3-28.5S35.9,360.4,35.9,360.4z"/>
	<path class="st3" d="M65.8,291.1l0.3,19.6c-3.2,3.1-8.8,6.7-18.1,8.2c-11.9,2-19-1.3-22.5-3.7l-4-17.5c2.2,6.5,15.7,7.2,29.2,4.1
		C63.6,298.9,65.8,291.1,65.8,291.1z"/>
	<line class="st4" x1="57.3" y1="316.4" x2="62" y2="364.7"/>
	<path class="st4" d="M35.8,359.5c0,0,15.2,13.3,28.9,3.6"/>
	<path class="st5" d="M67.5,388.8c0,0-0.2,5-9.8,4.6s-15.8-1.3-23.6-0.9s-25.8,1.6-30.2-0.4S0,387.9,0,381.9c0-0.3,0-0.5,0.1-0.8
		c0.3,2,1.2,3.3,3.8,4.4c4.4,2,22.3,0.9,30.2,0.4s13.9,0.5,23.6,0.9s9.8-4.6,9.8-4.6s0.2-1.4,0.3-3.8
		C67.9,381.9,67.8,385.4,67.5,388.8z"/>
</g>
<path id="b-thigh" class="st2" d="M47,292.3c0,0-12,0.7-15.1-11.2c-2.2-8.3,11.7-12.9,11.7-12.9s54.2-15,92.7-14.2
	c9.6,0.2,23,6.2,24.1,16.6c1,9.5-5.9,17.9-15.4,18.9c-0.1,0-0.2,0-0.4,0C120.3,291.5,47,292.3,47,292.3z"/>
<g id="f-calf">
	<path class="st1" d="M33.3,306.1c0,0,3.1-7.2,25.5-8.9c17.4-1.3,18.9,2.2,18.9,2.2s-9.8,31.2-19.1,32.1
		C42.3,333,33.3,306.1,33.3,306.1z"/>
	<path class="st6" d="M68,368.4l-8,0.6l-16.3-79.5c0,0,17.6-10.2,21.3-6.8C80.6,297.3,68,368.4,68,368.4z"/>
	<path class="st7" d="M77.6,299.5l0.3,19.6l-0.7,59.6c0,0-18.1,9.6-29.3-9.3l-10.6-45.8l-4-17.5c2.2,6.5,15.7,7.2,29.2,4.1
		C75.4,307.2,77.6,299.5,77.6,299.5z"/>
	<path class="st7" d="M47.6,368.7c0,0-2.9,5.6-10.5,12.3s-25.3,3.3-25.3,9.3s-0.5,8.3,3.9,10.3s22.3,0.9,30.2,0.4s13.9,0.5,23.6,0.9
		s9.8-4.6,9.8-4.6s1.8-15.2-2.9-28.5S47.6,368.7,47.6,368.7z"/>
	<path class="st8" d="M77.6,299.5l0.3,19.6c-3.2,3.1-8.8,6.7-18.1,8.2c-11.9,2-19-1.3-22.5-3.7l-4-17.5c2.2,6.5,15.7,7.2,29.2,4.1
		C75.4,307.2,77.6,299.5,77.6,299.5z"/>
	<line class="st4" x1="69.1" y1="324.8" x2="73.8" y2="373.1"/>
	<path class="st4" d="M47.6,367.8c0,0,15.2,13.3,28.9,3.6"/>
	<path class="st5" d="M79.3,397.2c0,0-0.2,5-9.8,4.6s-15.8-1.3-23.6-0.9s-25.8,1.6-30.2-0.4s-3.9-4.4-3.9-10.3c0-0.3,0-0.5,0.1-0.8
		c0.3,2,1.2,3.3,3.8,4.4c4.4,2,22.3,0.9,30.2,0.4s13.9,0.5,23.6,0.9s9.8-4.6,9.8-4.6s0.2-1.4,0.3-3.8
		C79.7,390.2,79.6,393.7,79.3,397.2z"/>
</g>
<g id="torso">
	<path class="st1" d="M164.6,285.5c0.8-0.6,1.6-1.2,2.3-2c0.5-0.6,0.9-1.3,1-2c0.1-0.5,0-1.1-0.3-1.5c-0.4-0.6-0.8-1.1-1.4-1.5
		c-1.5-1.1-3.3-2-5.1-2.6c-2.1-0.7-4.2-1.2-6.3-1.6c-4.5-0.9-9.1-1.4-13.7-1.4c-2.3-0.1-4.6,0-6.8,0.2c-2.1,0.2-4.1,0.6-6.1,1.2
		c-1.8,0.7-3,1.6-3.3,2.4c-0.2,0.6-0.3,1.2-0.1,1.8c0.2,0.8,0.6,1.6,1.1,2.3c0.6,0.8,1.3,1.6,2.1,2.2c0.9,0.7,1.8,1.3,2.8,1.9
		c2,1.1,4.2,2,6.4,2.6c4.6,1.3,9.4,1.9,14.2,1.6c2.4-0.1,4.7-0.5,7-1.1C160.6,287.5,162.6,286.6,164.6,285.5z M167.4,290.3
		c-2.5,1.2-5.2,2.1-8,2.4c-2.6,0.4-5.2,0.6-7.9,0.6c-5.2,0.1-10.4-0.4-15.5-1.5c-2.6-0.6-5.2-1.4-7.6-2.5c-1.3-0.6-2.5-1.2-3.7-2
		c-1.3-0.8-2.4-1.7-3.4-2.8c-1.2-1.2-2.1-2.6-2.7-4.1c-0.7-1.8-0.9-3.7-0.6-5.6c0.2-1,0.5-1.9,1-2.8c0.5-0.8,1-1.6,1.6-2.3
		c1.2-1.2,2.5-2.3,4-3.1c1.3-0.7,2.7-1.3,4.1-1.8c1.4-0.4,2.8-0.8,4.1-1.1c2.7-0.5,5.4-0.9,8.1-1c5.4-0.4,10.8,0.1,16.1,1.3
		c2.8,0.7,5.5,1.7,8,3c2.8,1.4,5.2,3.4,7.2,5.8c1.1,1.4,2,3.1,2.4,4.9c0.5,2,0.3,4-0.5,5.9c-0.7,1.6-1.7,3-3.1,4.1
		C170.1,288.8,168.8,289.6,167.4,290.3z"/>
	<path class="st5" d="M178.2,272.1c-1.7,14.7-17.3,18.9-31.1,19.4c-7.9,0.4-15.6-2.7-21-8.6c-7.6-8.4-6.9-25.5-7.6-41.5
		c-0.5-11.4,53-2.3,53-2.3S180.2,254.9,178.2,272.1z"/>
	<path class="st0" d="M158.3,135.4c0,0-23.5,24.9-32.2,21.8c-3.4-1.2-13.5-13.3-16.8-19.7c-8.5-16.5-5.6-53.5-5.6-53.5l34-6.8
		c0,0-7.4,21.5,4.4,41.9C146.1,125.8,151.6,131.4,158.3,135.4z"/>
	<path class="st5" d="M171.1,232.9l1.1,12.9l-52.5,2.2l-1.6-6.6c0,0-5.1-18.9-6.3-45.6c-0.4-13.4,2-26.8,7.2-39.2
		c0,0,19.9-34.9,34.5-33.6c13.8,1.2,23.5,22.8,24.6,49.5S171.1,232.9,171.1,232.9z"/>
	<path class="st8" d="M175.1,246c0,0-10,6-29.3,6.8s-27.5-3-27.5-3l-0.4-8.3c0,0,8.3,3.8,27.5,3s26.5-6.1,26.5-6.1L175.1,246z"/>
	<path class="st7" d="M168.2,284.3c1.1-0.4,2-0.9,2.9-1.6c0.7-0.4,1.2-1.1,1.5-1.8c0.1-0.5,0.1-1-0.2-1.5c-0.4-0.7-0.9-1.4-1.5-1.9
		c-1.6-1.5-3.5-2.7-5.5-3.7c-2.2-1.1-4.4-2-6.7-2.9c-4.7-1.8-9.6-3.2-14.6-4.2c-2.5-0.5-5-1-7.4-1.2c-2.3-0.3-4.7-0.3-7,0
		c-0.9,0.1-1.8,0.4-2.7,0.7c-0.5,0.2-1,0.5-1.4,1c-0.3,0.6-0.4,1.2-0.3,1.8c0.2,1,0.6,1.9,1.1,2.7c1.3,2,3,3.7,5,5
		c2.1,1.5,4.3,2.8,6.6,3.8c4.8,2.2,9.8,3.7,15,4.4c2.6,0.3,5.2,0.5,7.8,0.4C163.5,285.3,165.9,285,168.2,284.3z M170,289.6
		c-2.9,0.7-5.9,0.9-8.9,0.7c-2.8-0.1-5.6-0.5-8.4-1c-5.5-1-10.9-2.5-16.1-4.4c-2.7-1-5.2-2.3-7.7-3.8c-2.6-1.5-5-3.5-7-5.8
		c-1.1-1.3-2-2.9-2.5-4.5c-0.7-2-0.7-4.1,0-6.1c0.8-2,2.1-3.7,3.9-4.9c1.5-1,3.1-1.7,4.8-2.2c3-0.8,6.1-1.2,9.2-1.1
		c2.9,0,5.8,0.2,8.7,0.6c5.7,0.7,11.3,2.2,16.7,4.3c2.8,1.2,5.4,2.6,7.9,4.3c2.7,1.8,5,4.1,6.9,6.8c1.1,1.6,1.9,3.3,2.2,5.2
		c0.2,1.1,0.2,2.2,0,3.3c-0.2,1.1-0.6,2.2-1.2,3.1c-1,1.6-2.5,2.9-4.2,3.8C172.9,288.6,171.5,289.2,170,289.6L170,289.6z"/>
	<path class="st7" d="M128,141.1c-10.2,12.6-12.3,24.3-12.3,24.3s12.3-15.2,24.1-25.3c5.2-4.5,24.1-13,14.6-18.5
		S136.3,130.9,128,141.1z"/>
	<path class="st7" d="M168.4,154.2c0.5,11.5-7.7,21.1-18.3,21.6s-19.4-3.2-19.9-14.7s6.4-23,18.1-26.9S167.9,142.7,168.4,154.2z"/>
	<path class="st9" d="M166.1,161.7c0.4,9.9-6.7,18.3-15.9,18.7s-16.8-2.8-17.2-12.7s5.5-19.9,15.7-23.3S165.7,151.8,166.1,161.7z"/>
	<path class="st7" d="M178.2,272.4c-7.3-12-24.2-16.1-37.3-15.8c-4,0.1-13.4,0-16.7,2.3c-1.9,1.3-3.3,3.2-4,5.4
		c10-1.2,20.9-1.1,30.5,1.4c0.5,0.1,0.9,0.3,1.3,0.6c10.8,3,16.3,7.9,18.3,9.9c1.4,1.4,3.7,3.6,2.4,5.7c0.1,0.2,0.1,0.5,0.1,0.7
		c0.1,2.1-0.8,4.1-0.5,6.2c1.8-0.1,3.6-0.9,4.8-2.2c1.1-1.1,2-2.4,2.7-3.9c0.4-1.1,0.6-2.3,0.6-3.5
		C180.3,276.8,179.5,274.4,178.2,272.4z"/>
</g>
<path id="f-thigh" class="st6" d="M58.8,300.7c0,0-12,0.7-15.1-11.2c-2.2-8.3,11.7-12.9,11.7-12.9s54.2-15,92.7-14.2
	c9.6,0.2,23.1,6.2,24.1,16.6c1,9.4-5.9,17.9-15.3,18.9c-0.1,0-0.3,0-0.4,0C132.1,299.8,58.8,300.7,58.8,300.7z"/>
<path id="f-arm" class="st10" d="M169.9,219.4c0,0,4.9,8.3,11,5.5s3.3-11.9,3.3-11.9s-17.9-56.5-29.3-69.6
	c-5.8-6.7-18.3-2.3-17.3,7.7C140,172.7,169.9,219.4,169.9,219.4z"/>
<path id="f-forearm" class="st10" d="M198.3,276.6l8.8-3.9c0,0-9.5-41.4-22.9-59.7c-2.3-3.2-14.8,2.2-14.5,6.1
	C171,236.2,198.3,276.6,198.3,276.6z"/>
<g id="f-hand">
	<path class="st10" d="M217.8,279c0,0,9.6,8.7,9,14.7c-0.4,4.5-5.9,0.2-8.3-4.4c-1.9-3.6-8.3-6.6-8.3-6.6L217.8,279z"/>
	<path class="st10" d="M203.2,268.4c0,0,13,7.4,16.4,12.6s-8,10.2-14.2,9.7c-2.5-0.2-6.4-2.7-8.4-6.2
		C194.1,279.3,194.7,272.2,203.2,268.4z"/>
	<path class="st10" d="M187.3,286.2c0,0,3.9-8.1,8.9-12.8s7.2,7,7.2,7s-9.7,12.4-13.4,11.7S184.3,291.6,187.3,286.2z"/>
	<path class="st10" d="M209.6,285.9c0,0,7.8,12,5.4,18.2c-1.7,4.7-6.3-1.5-7.6-7.1c-1-4.4-7-9.5-7-9.5L209.6,285.9z"/>
	<path class="st10" d="M217.3,284.4c0,0,7.8,12,5.4,18.2c-1.7,4.7-6.3-1.5-7.6-7.1c-1-4.4-7-9.5-7-9.5L217.3,284.4z"/>
</g>
<path id="shoulder" class="st7" d="M166,165.2c0.2-1.2,0.2-2.4,0.2-3.5c-0.4-9.9-7.3-20.6-17.4-17.3s-16.1,13.4-15.7,23.3
	c0,0.9,0.1,1.7,0.3,2.6c-2-2.6-3.1-5.8-3.1-9.2c-0.5-11.5,6.4-23,18.1-26.9s19.6,8.5,20.1,19.9C168.5,158,167.7,161.8,166,165.2z"/>
<g id="head">
	<path class="st10" d="M112.5,99.8c-0.4,7.4-2.1,18-4.8,19.6c-3.7,2.2-9.2,0.9-12.5-2.6c-2.7-2.8-5.2-5.8-7.6-6.1s-3,0.2-5.5,2.2
		c-2.8,2.2-5.7,4-8.7,0.7c-1.7-1.9-3.2-11.7-3.6-18c-0.9-13.2-0.4-26.5,1.7-39.5c2.2-12.8,1.5-17.7,5.8-23.3c2.8-4,9.7-6.9,12.1-7.3
		s5.5,0.6,8.5,2.2C106.9,32.7,115,58,112.5,99.8z"/>
	<path class="st10" d="M170.6,62.7c-9.9,12.2-29.2,21.5-44.3,27.4c-2.2,9-3.5,23.8-18.6,29.4c-6.1-0.6-5.6-23.8-5.3-44.1
		c0.2-10.7,0.3-20.6-0.6-25.9c-0.8-4.8-1.4-8.7-3.1-12.5s-4.5-7.3-9.4-11.3c1.6-0.5,7.8-1.4,9.1-1.7c3.3-0.6,6.6-1.2,9.9-1.8
		c6.6-1.2,15.8-3.6,22.4-4.1c11.7-1,21.9,0.6,32.4,6.4c5.4,2.8,9.7,7.4,12.1,13C179.1,46.8,176.6,55.3,170.6,62.7z"/>
	<path class="st11" d="M95.8,106c-0.9,1.8-4.7-2.5-7.3-2.5s-6.1,2.5-7.4,0.8c-1.2-1.5-1.6-3.4-1.2-5.3c0.4-3.5,5.9-2.5,8.5-2.1
		c3.3,0.5,5.8,1,8.4,1.3C97.6,100,96.6,104.5,95.8,106z"/>
	<path class="st12" d="M82.6,63.2c0.4,5.6,1.1,18.8-4,18.2c-5.4-0.8-9.9-6.8-10.6-16.2s2.8-16.2,7.8-17.7
		C80.8,47,82.2,57.5,82.6,63.2z"/>
	<ellipse class="st13" cx="74.5" cy="63.6" rx="4.9" ry="10.9"/>
	<path class="st14" d="M74.5,52.6c0.4,1.8,0.7,3.6,0.8,5.5c0.2,1.8,0.2,3.7,0.2,5.5c0,1.8-0.1,3.6-0.2,5.5c-0.1,1.8-0.4,3.7-0.8,5.5
		c-0.4-1.8-0.7-3.6-0.8-5.5c-0.2-1.8-0.2-3.7-0.2-5.5c0-1.8,0.1-3.6,0.2-5.5C73.8,56.3,74.1,54.4,74.5,52.6z"/>
	<ellipse class="st14" cx="74.5" cy="63.6" rx="2.4" ry="5.4"/>
	<path class="st0" d="M70,50c0,0,2.6-1.1,3.9,0s5.8,3.4,8.9,26c1.5-8.2,1.2-16.6-1.1-24.5C78.7,40.3,70,50,70,50z"/>
	<path class="st15" d="M67,52.6c0.8-1.5,2-2.7,3.5-3.6c0.9-0.5,1.9-0.6,2.9-0.3c0.5,0.1,0.9,0.4,1.3,0.6c0.4,0.2,0.7,0.5,1,0.8
		c1.1,1.2,2,2.5,2.6,4c0.6,1.4,1.2,2.8,1.6,4.3c0.8,2.9,1.5,5.8,1.9,8.8c0.5,3,0.8,5.9,1.1,8.9c-0.5-2.9-1.1-5.9-1.8-8.8
		c-0.6-2.9-1.5-5.7-2.5-8.5c-0.5-1.4-1.1-2.7-1.8-4c-0.6-1.2-1.4-2.4-2.5-3.3c-0.3-0.2-0.5-0.4-0.8-0.6c-0.2-0.2-0.5-0.3-0.7-0.3
		c-0.5-0.1-1,0-1.4,0.2c-1.1,0.7-2,1.6-2.7,2.7v0.1c-0.3,0.5-0.9,0.6-1.4,0.3C66.9,53.6,66.7,53,67,52.6z"/>
	<path class="st10" d="M86.4,95.2c-2.4,0.7-4.6,2-6.4,3.7c-2.8,2.4-5.3,5-7.5,7.9c-5.2,6.7-9.8,13.9-13.6,21.5
		c-4.3,7.9-8.1,16.1-11.3,24.6c-1.5,4.3-2.8,8.6-3.7,13.1c-1,4.4-1.5,8.8-1.5,13.3v0.5c0.3,6.4-4.7,11.9-11.2,12.1
		C24.7,192,19.3,187,19,180.5c0-0.2,0-0.4,0-0.5c0-1.1,0.1-2.2,0.4-3.2c0.7-2.5,1.1-5,1.6-7.4l0.3-1.8l0.3-1.8
		c0.2-1.2,0.4-2.5,0.5-3.7c0.7-4.9,1.2-9.8,1.6-14.8s0.6-10.1,1.1-15.2c0.4-5.1,1.2-10.2,2.3-15.2c2.4-10.4,5.9-20.6,10.4-30.2
		c2.5-5.4,5.5-10.5,9-15.3c2-2.7,4.2-5.2,6.5-7.6c2.6-2.7,5.6-5.2,8.7-7.3l6.6-4.6c10.9-7.5,25.9-4.8,33.5,6.1
		c7.5,10.9,4.8,25.9-6.1,33.5C92.9,93.2,89.7,94.6,86.4,95.2z"/>
	<path class="st10" d="M45.8,195.3c-3,3.2-12.9-2.1-17.2-2.7s-15.3,1.2-17.2-2.7c-1.6-3.5,6.9-9.4,8-13c1.7-5.7,22.8-2.4,22.7,3.6
		C42.1,184.2,48.4,192.5,45.8,195.3z"/>
	<path class="st0" d="M45,75.7c1.2-2.2,2.9-4,4.9-5.4c2.1-1.4,4.4-2.3,6.9-2.7c5-0.8,10,0.1,14.5,2.5L70.7,71
		c-4.2-2.5-9.1-3.5-13.9-2.9c-2.4,0.3-4.7,1.1-6.8,2.4C47.9,71.8,46.2,73.6,45,75.7z"/>
	<path class="st0" d="M31.9,99.2c0.7-2,2-3.7,3.7-4.8c1.7-1.2,3.7-1.9,5.8-2.2c4.1-0.5,8.3,0.3,11.9,2.3c-1.9-0.6-3.9-1.1-5.8-1.3
		c-2-0.3-3.9-0.3-5.9,0c-1.9,0.3-3.8,0.9-5.5,1.9C34.4,96,32.9,97.5,31.9,99.2z"/>
	<path class="st0" d="M25.4,128.1c0.4-1.6,1.5-3,3-3.9c1.4-0.8,3.1-1.4,4.7-1.5c3.3-0.3,6.5,0.2,9.5,1.7c-3.1-0.7-6.3-0.9-9.4-0.7
		c-1.5,0.2-3.1,0.6-4.5,1.2C27.3,125.6,26.2,126.7,25.4,128.1z"/>
	<path class="st12" d="M98.5,66.3c0.4,5.6,1.1,18.8-4,18.2c-5.4-0.8-9.9-6.8-10.6-16.2s2.8-16.2,7.8-17.7
		C96.8,50.2,98.1,60.6,98.5,66.3z"/>
	
		<ellipse transform="matrix(0.9974 -7.149744e-02 7.149744e-02 0.9974 -4.6067 6.5547)" class="st13" cx="89.3" cy="67.6" rx="4.9" ry="10.9"/>
	<path class="st14" d="M88.5,56.7c0.5,1.8,0.9,3.6,1.2,5.4c0.3,1.8,0.5,3.6,0.6,5.4s0.2,3.7,0.2,5.5c0,1.8-0.1,3.7-0.4,5.5
		c-0.5-1.8-0.9-3.6-1.2-5.4c-0.3-1.8-0.5-3.6-0.6-5.4s-0.2-3.6-0.2-5.5C88.1,60.4,88.2,58.5,88.5,56.7z"/>
	
		<ellipse transform="matrix(0.9974 -7.149744e-02 7.149744e-02 0.9974 -4.6067 6.5547)" class="st14" cx="89.3" cy="67.6" rx="2.4" ry="5.4"/>
	<path class="st0" d="M85.9,53.1c0,0,2.6-1.1,3.9,0s5.8,3.4,8.9,26c1.5-8.2,1.1-16.5-1.1-24.5C94.6,43.4,85.9,53.1,85.9,53.1z"/>
	<path class="st15" d="M82.9,55.7c0.8-1.5,2-2.7,3.5-3.6c0.9-0.5,1.9-0.6,2.9-0.3c0.5,0.1,0.9,0.4,1.3,0.6c0.3,0.2,0.7,0.5,1,0.8
		c1.1,1.2,2,2.5,2.6,4c0.6,1.4,1.1,2.8,1.6,4.3c0.8,2.9,1.5,5.8,1.9,8.8c0.5,3,0.8,5.9,1.1,8.9c-0.5-2.9-1.1-5.8-1.8-8.8
		c-0.6-2.9-1.5-5.7-2.5-8.5c-0.5-1.4-1.1-2.7-1.8-4c-0.6-1.2-1.5-2.3-2.5-3.3c-0.3-0.2-0.5-0.4-0.8-0.6c-0.2-0.2-0.5-0.3-0.7-0.3
		c-0.5-0.1-1,0-1.4,0.2c-1.1,0.7-2,1.6-2.7,2.7v0.1c-0.3,0.5-0.9,0.6-1.4,0.3C82.8,56.8,82.6,56.1,82.9,55.7L82.9,55.7z"/>
	<path class="st16" d="M170.6,62.7c-9.9,12.2-29.2,21.5-44.3,27.4c1.3-5.1,3.5-10.5,3.6-24.7c0.1-10.1,0.6-16.8,0.1-21
		c3.3,0.9,5.6,0.1,10,11.9s23.4,10,29.8,6.5C170.3,62.6,170.6,62.5,170.6,62.7z"/>
	<path class="st0" d="M100.6,53.7c0,0,2.5-10.1-1.1-13.7s-6,0.6-6,0.6l-1.1,4.8C92.3,45.4,98.3,41.4,100.6,53.7z"/>
	<path class="st0" d="M72.6,49.4c0,0,0-7.5,3.1-10.3s4.2,0.3,4.2,0.3V43C79.9,43,76.3,40.2,72.6,49.4z"/>
</g>
</svg>
