<?xml version="1.0" encoding="utf-8"?>
<!-- Generator: Adobe Illustrator 25.2.0, SVG Export Plug-In . SVG Version: 6.00 Build 0)  -->
<svg version="1.1" id="Layer_1" xmlns="http://www.w3.org/2000/svg" xmlns:xlink="http://www.w3.org/1999/xlink" x="0px" y="0px"
	 viewBox="0 0 168.3 462" style="enable-background:new 0 0 168.3 462;" xml:space="preserve">
<style type="text/css">
	.st0{fill:#7D33A3;}
	.st1{fill:#A1B200;}
	.st2{fill:#E2E229;}
	.st3{fill:none;stroke:#A1B200;stroke-linecap:round;stroke-miterlimit:10;}
	.st4{fill:#430B60;}
	.st5{fill:#ED6100;}
	.st6{fill:#FBFF43;}
	.st7{fill:#DAE78D;}
	.st8{fill:#1C1128;}
	.st9{fill:#953DBA;}
	.st10{fill:#FFA400;}
	.st11{fill:#AF4700;}
	.st12{fill:#FFFFFF;}
	.st13{fill:#77185E;}
	.st14{fill:#130E19;}
	.st15{fill:#933B00;}
	.st16{opacity:0.5;fill:#ED6100;enable-background:new    ;}
</style>
<path id="b-thigh" class="st0" d="M113.4,342.6c0,0-11.4,9.2-16.6,8.9c-8.6-0.5-6.6-16.1-6.6-16.1s9.8-55.4,27-89.8
	c4.3-8.6,15.5-18.1,25.4-14.6c8.9,3.2,13.6,13,10.4,22c0,0.1-0.1,0.2-0.1,0.4C144.2,276,113.4,342.6,113.4,342.6z"/>
<g id="b-calf">
	<path class="st1" d="M85.7,365.3c0,0,1.7-7.6,23.5-13.3c16.9-4.4,19-1.2,19-1.2s-4,32.5-13,35C99.4,390.2,85.7,365.3,85.7,365.3z"
		/>
	<path class="st0" d="M131,420.4l-7.8,2l-28.7-71.3c0,0,14-17.2,18.2-14.5C130.7,348.2,131,420.4,131,420.4z"/>
	<path class="st1" d="M128.2,350.8l3.8,19.3l10,58.8c0,0-16.1,12.7-30.5-3.9l-18.6-43.2l-7.1-16.5c3.3,6,16.8,4.3,29.5-1.2
		C127.4,358.9,128.2,350.8,128.2,350.8z"/>
	<path class="st1" d="M111.3,422.3c0,0-2.8,5.7-10.3,12.5s-25.3,3.8-25.2,9.7s-0.4,8.3,4,10.2s22.3,0.5,30.2-0.1s13.9,0.3,23.6,0.5
		s9.7-4.8,9.7-4.8s1.5-15.2-3.4-28.4S111.3,422.3,111.3,422.3z"/>
	<path class="st2" d="M128.2,350.8l3.8,19.3c-2.6,3.7-7.4,8.2-16.3,11.3c-11.4,4.1-19,2.1-22.8,0.4l-7.1-16.5
		c3.3,6,16.8,4.3,29.5-1.2C127.4,358.9,128.2,350.8,128.2,350.8z"/>
	<line class="st3" x1="124.3" y1="377.2" x2="137.3" y2="423"/>
	<path class="st3" d="M111.5,425c0,0,17.6,6.9,29.3-5.1"/>
	<path class="st4" d="M143.3,450.3c0,0-0.1,5-9.7,4.8s-15.8-1.1-23.6-0.5s-25.8,2-30.2,0.1s-4-4.2-4-10.2c0-0.3,0-0.5,0.1-0.8
		c0.3,2,1.2,3.3,3.8,4.4c4.4,1.9,22.3,0.5,30.2-0.1s13.9,0.3,23.6,0.5s9.7-4.8,9.7-4.8s0.1-1.4,0.2-3.8
		C143.7,443.3,143.6,446.8,143.3,450.3z"/>
</g>
<path class="st1" d="M153.3,267.8c0.8-0.6,1.6-1.2,2.3-2c0.5-0.6,0.8-1.3,1-2c0.1-0.5,0-1.1-0.3-1.5c-0.4-0.6-0.8-1.1-1.4-1.5
	c-1.5-1.1-3.3-2-5.1-2.6c-2.1-0.7-4.2-1.2-6.3-1.6c-4.5-0.9-9.1-1.4-13.7-1.4c-2.3-0.1-4.6,0-6.9,0.2c-2.1,0.2-4.1,0.6-6.1,1.2
	c-1.8,0.7-3,1.6-3.3,2.4c-0.2,0.6-0.3,1.2-0.1,1.8c0.2,0.8,0.6,1.6,1.1,2.3c0.6,0.8,1.3,1.6,2.1,2.2c0.9,0.7,1.8,1.3,2.8,1.9
	c2,1.1,4.2,2,6.4,2.7c4.6,1.3,9.4,1.9,14.2,1.6c2.4-0.1,4.7-0.5,7.1-1C149.3,269.8,151.4,269,153.3,267.8z M156.2,272.8
	c-5.7,2.7-13.6,3-18.6,2.9c-6.8-0.1-14.2-1.2-20.4-4c-4-1.8-8.1-4.7-9.8-9c-2.2-5.6,1.3-11,6.2-13.8c5.2-2.9,11.3-3.6,17.2-3.9
	c6.3-0.3,12.6,0.5,18.6,2.4c6.3,2.2,14.8,7.7,14.3,15.3C163.3,267.8,160.3,270.9,156.2,272.8L156.2,272.8z"/>
<path id="hips" class="st4" d="M166.9,254.5c-1.7,14.7-17.3,18.9-31.1,19.4c-7.9,0.4-15.6-2.7-21-8.6c-7.6-8.4-6.9-25.5-7.6-41.5
	c-0.5-11.4,53-2.3,53-2.3S168.9,237.3,166.9,254.5z"/>
<path class="st5" d="M147,117.7c0,0-23.5,25-32.2,21.8c-3.4-1.2-13.5-13.3-16.8-19.7c-8.5-16.6-5.6-53.5-5.6-53.5l34-6.8
	c0,0-7.4,21.5,4.4,41.9C134.8,108.1,140.4,113.7,147,117.7z"/>
<path class="st4" d="M159.8,215.2l1.1,13l-52.6,2.2l-1.6-6.6c0,0-5.1-18.9-6.3-45.6c-0.4-13.4,2-26.8,7.2-39.2
	c0,0,19.9-34.9,34.5-33.6c13.8,1.2,23.4,22.8,24.6,49.5S159.8,215.2,159.8,215.2z"/>
<path class="st6" d="M163.8,228.3c0,0-10,6-29.3,6.8s-27.5-3-27.5-3l-0.4-8.3c0,0,8.3,3.8,27.5,3s26.5-6.1,26.5-6.1L163.8,228.3z"/>
<path class="st7" d="M116.8,123.4c-10.2,12.6-12.3,24.3-12.3,24.3s12.3-15.2,24.1-25.3c5.2-4.5,24.1-13,14.6-18.5
	S125,113.2,116.8,123.4z"/>
<path class="st7" d="M157.1,136.5c0.5,11.5-7.7,21.1-18.3,21.6s-19.4-3.2-19.9-14.7s6.4-23,18.1-26.9S156.6,125,157.1,136.5z"/>
<path class="st8" d="M154.9,144c0.4,9.9-6.7,18.3-15.9,18.7s-16.8-2.8-17.2-12.7s5.5-19.9,15.7-23.3
	C147.6,123.4,154.4,134.1,154.9,144z"/>
<path class="st7" d="M157.9,268c0.8-0.6,1.6-1.2,2.3-2c0.5-0.6,0.9-1.3,1-2c0.1-0.5,0-1.1-0.3-1.5c-0.4-0.6-0.8-1.1-1.4-1.5
	c-1.5-1.1-3.3-2-5.1-2.6c-2.1-0.7-4.2-1.2-6.3-1.6c-4.5-0.9-9-1.4-13.6-1.4c-2.3-0.1-4.6,0-6.8,0.2c-2.1,0.2-4.1,0.6-6.1,1.2
	c-1.8,0.7-3,1.6-3.3,2.4c-0.2,0.6-0.3,1.2-0.1,1.8c0.2,0.8,0.6,1.6,1.1,2.3c0.6,0.8,1.3,1.6,2.1,2.2c0.9,0.7,1.8,1.3,2.8,1.9
	c2,1.1,4.2,2,6.4,2.6c4.6,1.3,9.4,1.9,14.2,1.6c2.4-0.1,4.7-0.5,7.1-1C154,270,156,269.2,157.9,268z M160.8,272.8
	c-2.5,1.3-5.2,2.1-8,2.4c-2.6,0.4-5.2,0.6-7.8,0.6c-5.2,0.1-10.4-0.4-15.5-1.5c-2.6-0.6-5.2-1.4-7.6-2.5c-1.3-0.6-2.5-1.2-3.7-2
	c-1.3-0.8-2.4-1.7-3.4-2.8c-1.2-1.2-2.1-2.6-2.7-4.1c-0.7-1.8-1-3.7-0.6-5.6c0.2-1,0.5-1.9,1-2.8c0.5-0.8,1-1.6,1.6-2.3
	c1.2-1.2,2.5-2.3,4-3.1c1.3-0.7,2.7-1.3,4.1-1.8c1.3-0.4,2.7-0.8,4.1-1.1c2.7-0.6,5.4-0.9,8.1-1c5.4-0.4,10.8,0.1,16.1,1.3
	c2.8,0.7,5.5,1.7,8,3c2.8,1.4,5.2,3.4,7.2,5.8c1.2,1.4,2,3.1,2.4,4.9c0.4,2,0.2,4-0.6,5.8c-0.7,1.6-1.8,3-3.1,4.1
	C163.3,271.3,162.1,272.1,160.8,272.8L160.8,272.8z"/>
<path id="f-thigh" class="st9" d="M122.1,348.9c0,0-11.4,9.2-16.6,8.9c-8.6-0.5-6.6-16.1-6.6-16.1s9.8-55.4,27-89.8
	c4.3-8.6,15.5-18.2,25.4-14.6c8.9,3.2,13.6,13,10.4,22c0,0.1-0.1,0.2-0.1,0.4C152.8,282.3,122.1,348.9,122.1,348.9z"/>
<g id="f-calf">
	<path class="st1" d="M94.4,371.6c0,0,1.7-7.6,23.4-13.3c16.9-4.4,19-1.2,19-1.2s-4,32.5-13,35C108.1,396.5,94.4,371.6,94.4,371.6z"
		/>
	<path class="st9" d="M139.7,426.7l-7.8,2l-28.7-71.3c0,0,13.9-17.2,18.2-14.5C139.4,354.5,139.7,426.7,139.7,426.7z"/>
	<path class="st7" d="M136.8,357.2l3.8,19.3l10,58.8c0,0-16.1,12.7-30.5-3.9l-18.6-43.1l-7.1-16.5c3.3,6,16.8,4.3,29.5-1.2
		C136,365.2,136.8,357.2,136.8,357.2z"/>
	<path class="st7" d="M119.9,428.6c0,0-2.8,5.7-10.3,12.5s-25.3,3.8-25.2,9.7s-0.4,8.3,4,10.2s22.3,0.5,30.2-0.1s13.9,0.3,23.6,0.5
		s9.8-4.8,9.8-4.8s1.5-15.2-3.4-28.4S119.9,428.6,119.9,428.6z"/>
	<path class="st6" d="M136.8,357.2l3.8,19.3c-2.6,3.7-7.4,8.2-16.3,11.3c-11.4,4.1-18.9,2.1-22.8,0.4l-7.1-16.5
		c3.3,6,16.8,4.3,29.5-1.2C136,365.2,136.8,357.2,136.8,357.2z"/>
	<line class="st3" x1="133" y1="383.6" x2="146.2" y2="430.3"/>
	<path class="st3" d="M119.5,429.8c0,0,17.3,10.4,29.1-1.6"/>
	<path class="st4" d="M152,456.6c0,0-0.1,5-9.7,4.8s-15.8-1.1-23.6-0.5s-25.8,2-30.2,0.1s-3.9-4.3-4-10.2c0-0.3,0-0.5,0.1-0.8
		c0.3,2,1.2,3.3,3.8,4.4c4.4,1.9,22.3,0.5,30.2-0.1s13.9,0.3,23.6,0.5s9.7-4.8,9.7-4.8s0.1-1.4,0.2-3.8
		C152.4,449.6,152.3,453.1,152,456.6z"/>
</g>
<g id="hip">
	<path class="st4" d="M113.6,258.9l-3.5-22.8c0,0,30.6,0.9,53.2-3.8c0,0,4.5,15.4,0,27.7c0,0-7.5-8.1-24.1-7.9
		C125.3,252.4,117.4,253.2,113.6,258.9z"/>
	<path class="st7" d="M167.9,260.3c-0.1-0.5-0.3-1-0.4-1.5c-1.3-3-3.4-5.6-6.2-7.4c-6-4.3-13.6-5.9-21-6.2
		c-5.6-0.3-11.3,0.3-16.7,1.7c-3.6,1-7.2,2.6-9.7,5.4c-3.3,3.7-3.5,9.3-0.4,13.2c1.5-1.8,3-3.6,4.6-5.4c-0.1-1.6,1.3-2.8,2.6-3.4
		c1.7-0.7,3.5-1.1,5.3-1.3c5.1-0.6,10.3-0.6,15.4,0c5.1,0.6,10.3,1.4,15.1,3.4c2,0.9,5.5,2.8,4.5,5.5c0.1,0.2,0.2,0.4,0.3,0.7
		c0.6,2,1.3,4,2,6c0.4-0.3,0.8-0.6,1.1-0.9C167.4,267.9,168.7,264.1,167.9,260.3z"/>
</g>
<path id="f-arm" class="st10" d="M126.8,203.9c0,0,0.6,9.6,7.3,9.9s8.4-9.1,8.4-9.1s9.9-58.4,5.7-75.3c-2.1-8.6-15.3-10.4-18.9-1
	C121.5,148.7,126.8,203.9,126.8,203.9z"/>
<path id="f-forearm" class="st10" d="M125.9,267.8l9.6,0.5c0,0,10.5-41.2,6.9-63.6c-0.6-3.9-14.2-4.8-15.7-1.2
	C120.1,219.4,125.9,267.8,125.9,267.8z"/>
<g id="f-hand">
	<path class="st10" d="M142.2,278.8c0,0,4.6,12.1,1.3,17.2c-2.4,3.8-5.3-2.5-5.3-7.7c0-4.1-4.4-9.7-4.4-9.7L142.2,278.8z"/>
	<path class="st10" d="M134,262.7c0,0,8.2,12.5,8.8,18.7s-11.8,5.4-17,2.1c-2.1-1.3-4.5-5.3-4.6-9.3
		C121,268.4,124.7,262.3,134,262.7z"/>
	<path class="st10" d="M111.7,271.4c0,0,7.1-5.4,13.8-7.3s3.2,9.5,3.2,9.5s-14.2,6.6-17.3,4.3S106.6,274.8,111.7,271.4z"/>
	<path class="st10" d="M131.7,281.2c0,0,1.4,14.2-3.5,18.7c-3.7,3.4-5-4.2-3.5-9.7c1.1-4.4-1.9-11.6-1.9-11.6L131.7,281.2z"/>
	<path class="st10" d="M139.3,283.5c0,0,1.4,14.2-3.5,18.7c-3.7,3.4-5-4.2-3.5-9.7c1.1-4.4-1.9-11.6-1.9-11.6L139.3,283.5z"/>
</g>
<g id="head">
	<path class="st10" d="M101.2,82.2c-0.4,7.4-2.1,18-4.8,19.6c-3.7,2.2-9.2,0.9-12.5-2.6c-2.7-2.8-5.2-5.8-7.6-6.1s-3,0.2-5.5,2.2
		c-2.8,2.2-5.7,3.9-8.7,0.7c-1.7-1.8-3.2-11.7-3.6-18c-0.9-13.2-0.4-26.5,1.7-39.5c2.2-12.8,1.5-17.7,5.8-23.3
		c2.8-4,9.7-6.8,12.1-7.3s5.5,0.6,8.5,2.2C95.6,15,103.8,40.3,101.2,82.2z"/>
	<path class="st10" d="M159.3,45c-9.9,12.2-29.2,21.5-44.3,27.4c-2.2,9-3.5,23.8-18.6,29.4c-6.1-0.6-5.6-23.8-5.3-44.1
		c0.2-10.7,0.3-20.6-0.6-25.9c-0.8-4.8-1.4-8.7-3.2-12.6S83,12,78,8c1.6-0.5,7.8-1.4,9.1-1.7C90.4,5.6,93.7,5,97,4.4
		c6.6-1.2,15.8-3.6,22.4-4.2c11.7-1,21.9,0.6,32.4,6.4c5.4,2.8,9.7,7.4,12.1,13C167.9,29.2,165.3,37.7,159.3,45z"/>
	<path class="st11" d="M84.5,88.4c-0.9,1.8-4.7-2.5-7.3-2.5s-6.1,2.5-7.4,0.8c-1.2-1.5-1.6-3.4-1.2-5.3c0.4-3.5,5.9-2.5,8.5-2.1
		c3.2,0.5,5.8,1,8.4,1.3C86.4,82.3,85.3,86.8,84.5,88.4z"/>
	<path class="st12" d="M71.3,45.5c0.4,5.6,1.1,18.8-4,18.2c-5.4-0.8-9.9-6.8-10.6-16.2s2.9-16.2,7.9-17.7
		C69.6,29.4,70.9,39.8,71.3,45.5z"/>
	<ellipse class="st13" cx="63.2" cy="45.9" rx="4.9" ry="10.9"/>
	<path class="st14" d="M63.2,35c0.4,1.8,0.7,3.6,0.8,5.5c0.2,1.8,0.2,3.7,0.2,5.5s-0.1,3.6-0.2,5.5c-0.1,1.8-0.4,3.7-0.8,5.5
		c-0.4-1.8-0.7-3.6-0.8-5.5c-0.2-1.8-0.2-3.7-0.2-5.5s0.1-3.7,0.2-5.5C62.5,38.6,62.8,36.8,63.2,35z"/>
	<ellipse class="st14" cx="63.2" cy="45.9" rx="2.4" ry="5.4"/>
	<path class="st5" d="M58.8,32.3c0,0,2.6-1.1,3.9,0s5.8,3.4,8.9,26c1.5-8.1,1.2-16.5-1.1-24.5C67.4,22.6,58.8,32.3,58.8,32.3z"/>
	<path class="st15" d="M55.7,34.9c0.8-1.5,2-2.7,3.5-3.6c0.9-0.5,1.9-0.6,2.9-0.3c0.5,0.1,0.9,0.4,1.3,0.7c0.4,0.2,0.7,0.5,1,0.8
		c1.1,1.2,2,2.5,2.7,4c0.6,1.4,1.1,2.8,1.6,4.3c0.8,2.9,1.5,5.8,1.9,8.8c0.5,3,0.8,5.9,1.1,8.9c-0.5-2.9-1.1-5.8-1.8-8.8
		c-0.6-2.9-1.5-5.7-2.5-8.5c-0.5-1.4-1.1-2.7-1.8-4c-0.6-1.2-1.5-2.3-2.5-3.3c-0.3-0.2-0.5-0.4-0.8-0.6c-0.2-0.2-0.5-0.3-0.7-0.3
		c-0.5-0.1-1,0-1.4,0.2c-1.1,0.7-2,1.6-2.7,2.7V36c-0.3,0.5-0.9,0.6-1.4,0.3C55.6,36,55.5,35.4,55.7,34.9L55.7,34.9z"/>
	<path class="st10" d="M75.1,77.5c-2.4,0.7-4.6,2-6.4,3.7c-2.8,2.4-5.3,5-7.6,7.9c-5.2,6.7-9.8,13.9-13.6,21.5
		c-4.3,7.9-8.1,16.1-11.3,24.6c-1.5,4.2-2.8,8.6-3.7,13c-1,4.4-1.5,8.8-1.5,13.3v0.5c0.1,6.4-5,11.7-11.4,11.8s-11.7-5-11.8-11.4
		c0-1.1,0.1-2.2,0.4-3.2c0.7-2.5,1.1-5,1.6-7.4l0.3-1.8l0.3-1.9c0.2-1.2,0.4-2.4,0.5-3.7c0.7-4.9,1.2-9.9,1.6-14.8
		c0.4-5,0.6-10.1,1.1-15.2c0.4-5.1,1.2-10.2,2.3-15.2c2.4-10.4,5.8-20.6,10.4-30.2c2.5-5.4,5.6-10.5,9-15.3c2-2.7,4.2-5.2,6.5-7.6
		c2.7-2.7,5.6-5.1,8.7-7.2l6.6-4.6c10.9-7.6,25.9-4.8,33.5,6.1c7.6,10.9,4.8,25.9-6.1,33.5C81.7,75.5,78.5,76.9,75.1,77.5z"/>
	<path class="st10" d="M34.5,177.6c-3,3.2-12.9-2.1-17.2-2.7S2,176.1,0.2,172.1c-1.6-3.5,6.9-9.4,8.1-13c1.7-5.7,22.8-2.4,22.7,3.6
		C30.9,166.5,37.1,174.8,34.5,177.6z"/>
	<path class="st5" d="M33.7,58c1.2-2.2,2.9-4,4.9-5.4c2.1-1.4,4.4-2.3,6.9-2.7c5-0.8,10,0.1,14.5,2.5l-0.5,0.9
		c-4.2-2.5-9.1-3.5-14-2.9c-2.4,0.3-4.7,1.1-6.8,2.4C36.6,54.1,34.9,55.9,33.7,58z"/>
	<path class="st5" d="M20.7,81.5c0.7-2,2-3.6,3.8-4.8c1.7-1.2,3.7-1.9,5.8-2.2c4.1-0.6,8.3,0.2,11.9,2.3c-1.9-0.6-3.9-1.1-5.9-1.3
		c-2-0.3-3.9-0.3-5.9,0c-1.9,0.3-3.8,0.9-5.5,1.9C23.1,78.4,21.7,79.8,20.7,81.5z"/>
	<path class="st5" d="M14.2,110.4c0.4-1.6,1.5-3,2.9-3.9c1.5-0.8,3.1-1.4,4.7-1.5c3.3-0.3,6.6,0.2,9.6,1.6c-3.1-0.7-6.3-0.9-9.5-0.7
		c-1.5,0.2-3,0.6-4.4,1.2C16.1,107.9,14.9,109,14.2,110.4z"/>
	<path class="st12" d="M87.2,48.6c0.4,5.6,1.1,18.8-4,18.2C77.9,66,73.4,60,72.6,50.6s2.8-16.2,7.8-17.7
		C85.5,32.5,86.8,43,87.2,48.6z"/>
	
		<ellipse transform="matrix(0.9974 -7.149744e-02 7.149744e-02 0.9974 -3.3712 5.705)" class="st13" cx="78" cy="49.9" rx="4.9" ry="10.9"/>
	<path class="st14" d="M77.2,39c0.5,1.8,0.9,3.6,1.2,5.4c0.3,1.8,0.5,3.6,0.6,5.4s0.2,3.6,0.2,5.5c0,1.8-0.1,3.7-0.4,5.5
		c-0.5-1.8-0.9-3.6-1.2-5.4c-0.3-1.8-0.5-3.6-0.6-5.4s-0.2-3.6-0.2-5.5C76.8,42.7,76.9,40.9,77.2,39z"/>
	
		<ellipse transform="matrix(0.9974 -7.149744e-02 7.149744e-02 0.9974 -3.3712 5.705)" class="st14" cx="78" cy="49.9" rx="2.4" ry="5.4"/>
	<path class="st5" d="M74.7,35.5c0,0,2.6-1.1,3.9,0s5.8,3.4,8.9,26c1.5-8.2,1.2-16.6-1.1-24.5C83.4,25.7,74.7,35.5,74.7,35.5z"/>
	<path class="st15" d="M71.6,38c0.8-1.5,2-2.7,3.5-3.6c0.9-0.5,1.9-0.6,2.9-0.3c0.5,0.1,0.9,0.4,1.3,0.6c0.3,0.2,0.7,0.5,1,0.8
		c1.1,1.2,2,2.5,2.7,4c0.6,1.4,1.1,2.8,1.6,4.3c0.8,2.9,1.5,5.8,1.9,8.8c0.5,3,0.8,5.9,1.1,8.9c-0.5-2.9-1.1-5.9-1.8-8.8
		c-0.7-2.9-1.5-5.7-2.5-8.5c-0.5-1.4-1.1-2.7-1.8-4C80.9,39,80,37.8,79,36.9c-0.3-0.2-0.5-0.4-0.8-0.6c-0.2-0.2-0.5-0.3-0.7-0.3
		c-0.5-0.1-1,0-1.4,0.2c-1.1,0.7-2,1.6-2.7,2.7V39c-0.3,0.4-1,0.5-1.4,0.2C71.6,39,71.4,38.4,71.6,38L71.6,38z"/>
	<path class="st16" d="M159.3,45c-9.9,12.2-29.2,21.5-44.3,27.4c1.2-5.1,3.5-10.5,3.6-24.7c0.1-10.1,0.6-16.8,0.1-21
		c3.3,0.9,5.6,0.1,10,11.9s23.4,10,29.8,6.6C159.1,44.9,159.4,44.8,159.3,45z"/>
	<path class="st5" d="M89.3,36c0,0,2.5-10.1-1.1-13.7s-6,0.6-6,0.6l-1.2,4.8C81.1,27.7,87.1,23.7,89.3,36z"/>
	<path class="st5" d="M61.3,31.7c0,0,0-7.5,3.2-10.3s4.2,0.3,4.2,0.3v3.6C68.6,25.3,65,22.5,61.3,31.7z"/>
</g>
<path id="shoulder" class="st7" d="M154.7,147.6c0.2-1.2,0.2-2.4,0.2-3.5c-0.4-9.9-7.3-20.6-17.4-17.3
	c-10.1,3.3-16.1,13.3-15.7,23.3c0,0.9,0.1,1.7,0.3,2.6c-2-2.6-3.1-5.8-3.1-9.2c-0.5-11.5,6.4-23,18.1-26.9s19.6,8.5,20.1,19.9
	C157.3,140.3,156.5,144.2,154.7,147.6z"/>
</svg>
