<?xml version="1.0" encoding="utf-8"?>
<!-- Generator: Adobe Illustrator 25.2.0, SVG Export Plug-In . SVG Version: 6.00 Build 0)  -->
<svg version="1.1" id="Layer_1" xmlns="http://www.w3.org/2000/svg" xmlns:xlink="http://www.w3.org/1999/xlink" x="0px" y="0px"
	 viewBox="0 0 168.3 462" style="enable-background:new 0 0 168.3 462;" xml:space="preserve">
<style type="text/css">
	.st0{fill:#ED6100;}
	.st1{fill:#7D33A3;}
	.st2{fill:#A1B200;}
	.st3{fill:#E2E229;}
	.st4{fill:none;stroke:#A1B200;stroke-linecap:round;stroke-miterlimit:10;}
	.st5{fill:#430B60;}
	.st6{fill:#FBFF43;}
	.st7{fill:#DAE78D;}
	.st8{fill:#1C1128;}
	.st9{fill:#953DBA;}
	.st10{fill:#FFA400;}
	.st11{fill:#AF4700;}
	.st12{fill:#FFFFFF;}
	.st13{fill:#77185E;}
	.st14{fill:#130E19;}
	.st15{fill:#933B00;}
	.st16{opacity:0.5;fill:#ED6100;enable-background:new    ;}
</style>
<path id="b-arm" class="st0" d="M70.9,148.4c0,0-8.7,3.9-6.7,10.4c2.1,6.4,11.5,4.6,11.5,4.6s58.1-11.6,72.4-21.5
	c7.3-5,4.2-18-5.8-18C120.6,123.8,70.9,148.4,70.9,148.4z"/>
<path id="b-forearm" class="st0" d="M39.3,101.6l-7.9,5.6c0,0,17.5,38.8,34.2,54c2.9,2.6,14.1-5.1,13-8.9
	C74,135.8,39.3,101.6,39.3,101.6z"/>
<g id="b-hand">
	<path class="st0" d="M19.7,103.1c0,0-11.1-6.6-11.7-12.6c-0.5-4.5,5.7-1.3,9,2.7c2.5,3.2,9.5,4.9,9.5,4.9L19.7,103.1z"/>
	<path class="st0" d="M36.1,110.6c0,0-14.2-4.7-18.5-9.1s5.8-11.6,12-12.3c2.5-0.3,6.8,1.4,9.4,4.4C42.8,98.1,43.7,105.2,36.1,110.6
		z"/>
	<path class="st0" d="M48.1,90c0,0-2.2,8.7-6.2,14.3s-8.5-5.4-8.5-5.4s7-14,10.9-14.1S50.1,84.1,48.1,90z"/>
	<path class="st0" d="M26.4,94.7c0,0-10-10.2-8.9-16.8c0.8-5,6.5,0.2,8.8,5.4c1.8,4.1,8.7,7.9,8.7,7.9L26.4,94.7z"/>
	<path class="st0" d="M19.1,97.6c0,0-10-10.2-8.9-16.8c0.8-5,6.5,0.2,8.8,5.4c1.8,4.1,8.7,7.9,8.7,7.9L19.1,97.6z"/>
</g>
<path id="b-thigh" class="st1" d="M113.4,342.6c0,0-11.4,9.2-16.6,8.9c-8.6-0.5-6.6-16.1-6.6-16.1s9.8-55.4,27-89.8
	c4.3-8.6,15.5-18.2,25.4-14.6c8.9,3.2,13.6,13,10.4,22c0,0.1-0.1,0.3-0.1,0.4C144.2,276,113.4,342.6,113.4,342.6z"/>
<g id="b-calf">
	<path class="st2" d="M85.8,365.3c0,0,1.7-7.6,23.4-13.3c16.9-4.4,19-1.2,19-1.2s-4,32.5-13,35C99.4,390.2,85.8,365.3,85.8,365.3z"
		/>
	<path class="st1" d="M131,420.4l-7.8,2l-28.7-71.3c0,0,14-17.2,18.2-14.5C130.7,348.2,131,420.4,131,420.4z"/>
	<path class="st2" d="M128.2,350.8l3.8,19.3l10,58.8c0,0-16.1,12.7-30.5-3.9l-18.6-43.2l-7.1-16.5c3.3,6,16.8,4.3,29.5-1.2
		C127.4,358.9,128.2,350.8,128.2,350.8z"/>
	<path class="st2" d="M111.3,422.3c0,0-2.8,5.7-10.3,12.5s-25.3,3.8-25.2,9.7s-0.4,8.3,4,10.2s22.3,0.5,30.2-0.1s13.9,0.3,23.6,0.5
		s9.7-4.8,9.7-4.8s1.5-15.2-3.4-28.4S111.3,422.3,111.3,422.3z"/>
	<path class="st3" d="M128.2,350.8l3.8,19.3c-2.6,3.7-7.5,8.2-16.3,11.3c-11.4,4.1-18.9,2.1-22.8,0.4l-7.1-16.5
		c3.3,6,16.8,4.3,29.5-1.2C127.4,358.9,128.2,350.8,128.2,350.8z"/>
	<line class="st4" x1="124.3" y1="377.2" x2="137.3" y2="423"/>
	<path class="st4" d="M111.5,425c0,0,17.6,6.9,29.3-5.1"/>
	<path class="st5" d="M143.4,450.3c0,0-0.1,5-9.7,4.8s-15.8-1.1-23.6-0.5s-25.8,2-30.2,0.1s-3.9-4.3-4-10.2c0-0.3,0-0.5,0.1-0.8
		c0.3,2,1.2,3.3,3.8,4.4c4.4,1.9,22.3,0.5,30.2-0.1s13.9,0.3,23.6,0.5s9.7-4.8,9.7-4.8s0.1-1.4,0.2-3.8
		C143.7,443.3,143.7,446.8,143.4,450.3z"/>
</g>
<g id="torso">
	<path class="st2" d="M153.3,267.8c0.8-0.6,1.6-1.2,2.3-2c0.5-0.6,0.9-1.3,1.1-2c0.1-0.5,0-1.1-0.3-1.5c-0.4-0.6-0.8-1.1-1.4-1.5
		c-1.5-1.1-3.3-2-5.1-2.6c-2.1-0.7-4.2-1.2-6.3-1.6c-4.5-0.9-9.1-1.4-13.7-1.4c-2.3-0.1-4.6,0-6.9,0.2c-2.1,0.2-4.1,0.6-6.1,1.2
		c-1.8,0.7-3,1.6-3.3,2.4c-0.2,0.6-0.3,1.2-0.1,1.8c0.2,0.8,0.6,1.6,1.1,2.3c0.6,0.8,1.3,1.6,2.1,2.2c0.9,0.7,1.8,1.3,2.8,1.9
		c2,1.1,4.2,2,6.4,2.6c4.6,1.3,9.4,1.9,14.2,1.6c2.4-0.1,4.7-0.5,7-1C149.4,269.9,151.4,269,153.3,267.8z M156.3,272.8
		c-5.8,2.7-13.6,3-18.6,2.9c-6.8-0.1-14.2-1.2-20.4-4c-4-1.8-8.1-4.7-9.8-9c-2.2-5.6,1.3-11,6.2-13.8c5.2-2.9,11.3-3.6,17.2-3.9
		c6.3-0.3,12.6,0.5,18.6,2.4c6.3,2.2,14.8,7.7,14.3,15.3C163.3,267.8,160.3,270.9,156.3,272.8L156.3,272.8z"/>
	<path class="st5" d="M167,254.5c-1.7,14.7-17.3,18.9-31.1,19.4c-7.9,0.4-15.6-2.7-21-8.6c-7.6-8.4-6.9-25.5-7.6-41.5
		c-0.5-11.4,53-2.3,53-2.3S168.9,237.3,167,254.5z"/>
	<path class="st0" d="M147.1,117.7c0,0-23.5,25-32.2,21.8c-3.4-1.2-13.5-13.3-16.8-19.7c-8.5-16.6-5.6-53.5-5.6-53.5l34-6.8
		c0,0-7.4,21.5,4.4,41.9C134.8,108.2,140.4,113.8,147.1,117.7z"/>
	<path class="st5" d="M159.8,215.3l1.1,12.9l-52.6,2.2l-1.6-6.6c0,0-5.1-18.9-6.3-45.6c-0.4-13.4,2-26.8,7.2-39.2
		c0,0,19.9-34.9,34.5-33.6c13.8,1.2,23.4,22.8,24.6,49.5S159.8,215.3,159.8,215.3z"/>
	<path class="st6" d="M163.9,228.3c0,0-10,6-29.3,6.8s-27.5-3-27.5-3l-0.4-8.3c0,0,8.3,3.8,27.5,3s26.5-6.1,26.5-6.1L163.9,228.3z"
		/>
	<path class="st7" d="M116.8,123.4c-10.2,12.6-12.3,24.3-12.3,24.3s12.3-15.2,24.1-25.3c5.2-4.5,24.1-13,14.6-18.5
		S125,113.2,116.8,123.4z"/>
	<path class="st7" d="M157.1,136.5c0.5,11.5-7.7,21.1-18.3,21.6s-19.4-3.2-19.9-14.7s6.4-23,18.1-26.9S156.6,125,157.1,136.5z"/>
	<path class="st8" d="M154.9,144c0.4,9.9-6.7,18.3-15.9,18.7s-16.8-2.8-17.2-12.7s5.5-19.9,15.7-23.3
		C147.6,123.4,154.5,134.1,154.9,144z"/>
	<path class="st7" d="M157.9,268c0.8-0.6,1.6-1.2,2.3-2c0.5-0.6,0.9-1.3,1-2c0.1-0.5,0-1.1-0.3-1.5c-0.4-0.6-0.8-1.1-1.4-1.5
		c-1.5-1.1-3.3-2-5.1-2.6c-2.1-0.7-4.2-1.2-6.3-1.6c-4.5-0.9-9.1-1.4-13.7-1.4c-2.3-0.1-4.6,0-6.9,0.2c-2.1,0.2-4.1,0.6-6.1,1.2
		c-1.8,0.7-3,1.6-3.3,2.4c-0.2,0.6-0.3,1.2-0.1,1.8c0.2,0.8,0.6,1.6,1.1,2.3c0.6,0.8,1.3,1.6,2.1,2.2c0.9,0.7,1.8,1.3,2.8,1.9
		c2,1.1,4.2,2,6.4,2.6c4.6,1.3,9.5,1.9,14.3,1.6c2.4-0.1,4.7-0.5,7-1.1C153.9,270,156,269.2,157.9,268z M160.8,272.9
		c-2.5,1.2-5.2,2.1-8,2.4c-2.6,0.4-5.2,0.6-7.8,0.6c-5.2,0.1-10.4-0.4-15.5-1.5c-2.6-0.6-5.2-1.4-7.7-2.4c-1.3-0.6-2.5-1.2-3.7-2
		c-1.3-0.8-2.4-1.7-3.4-2.8c-1.2-1.2-2.1-2.6-2.7-4.1c-0.7-1.8-1-3.7-0.6-5.6c0.2-1,0.5-1.9,1-2.8c0.5-0.8,1-1.6,1.6-2.3
		c1.2-1.2,2.5-2.3,4-3.1c1.3-0.7,2.7-1.3,4.1-1.8c1.3-0.4,2.7-0.8,4.1-1.1c2.7-0.6,5.4-0.9,8.1-1c5.4-0.4,10.8,0.1,16.1,1.3
		c2.8,0.7,5.4,1.7,7.9,3c2.8,1.4,5.2,3.4,7.2,5.8c1.2,1.4,2,3.1,2.4,4.9c0.5,2,0.3,4-0.5,5.9c-0.7,1.6-1.8,3-3.1,4.1
		C163.3,271.3,162.1,272.2,160.8,272.9z"/>
	<path class="st7" d="M154.7,147.6c0.2-1.2,0.2-2.4,0.2-3.5c-0.4-9.9-7.3-20.6-17.4-17.3c-10.1,3.3-16.1,13.3-15.7,23.3
		c0,0.9,0.1,1.7,0.3,2.6c-2-2.6-3.1-5.8-3.1-9.2c-0.5-11.5,6.4-23,18.1-26.9s19.6,8.5,20.1,19.9
		C157.3,140.3,156.5,144.2,154.7,147.6z"/>
</g>
<path id="f-thigh" class="st9" d="M122.1,349c0,0-11.4,9.2-16.6,8.9c-8.6-0.5-6.6-16.1-6.6-16.1s9.8-55.4,27-89.8
	c4.3-8.6,15.5-18.1,25.4-14.6c8.9,3.2,13.6,13,10.4,22c0,0.1-0.1,0.3-0.1,0.4C152.9,282.3,122.1,349,122.1,349z"/>
<g id="f-calf">
	<path class="st2" d="M94.4,371.7c0,0,1.7-7.6,23.4-13.3c16.9-4.4,19-1.2,19-1.2s-4,32.5-13,35C108.1,396.5,94.4,371.7,94.4,371.7z"
		/>
	<path class="st9" d="M139.7,426.7l-7.8,2l-28.7-71.3c0,0,14-17.2,18.2-14.5C139.4,354.6,139.7,426.7,139.7,426.7z"/>
	<path class="st7" d="M136.9,357.2l3.8,19.3l10,58.8c0,0-16.1,12.7-30.5-3.9l-18.6-43.2l-7.1-16.5c3.3,6,16.8,4.3,29.5-1.2
		C136.1,365.2,136.9,357.2,136.9,357.2z"/>
	<path class="st7" d="M120,428.7c0,0-2.8,5.7-10.3,12.4s-25.3,3.8-25.2,9.7c0.1,6-0.4,8.3,4,10.2s22.3,0.5,30.2-0.1
		s13.9,0.3,23.6,0.5s9.7-4.8,9.7-4.8s1.5-15.2-3.4-28.4S120,428.7,120,428.7z"/>
	<path class="st6" d="M136.9,357.2l3.8,19.3c-2.6,3.7-7.4,8.2-16.3,11.3c-11.4,4.1-19,2.1-22.8,0.4l-7.1-16.5
		c3.3,6,16.8,4.3,29.5-1.2C136.1,365.2,136.9,357.2,136.9,357.2z"/>
	<line class="st4" x1="133" y1="383.6" x2="146.2" y2="430.3"/>
	<path class="st4" d="M119.5,429.8c0,0,17.3,10.4,29.1-1.6"/>
	<path class="st5" d="M152,456.6c0,0-0.1,5-9.7,4.8s-15.8-1.1-23.5-0.5s-25.8,2-30.2,0.1s-3.9-4.3-4-10.2c0-0.3,0-0.5,0.1-0.8
		c0.3,2,1.2,3.3,3.8,4.4c4.4,1.9,22.3,0.5,30.2-0.1s14,0.3,23.6,0.5s9.7-4.8,9.7-4.8s0.1-1.4,0.2-3.8
		C152.4,449.7,152.3,453.1,152,456.6z"/>
</g>
<g id="hips">
	<path class="st5" d="M113.7,258.9l-3.4-22.8c0,0,30.6,0.9,53.2-3.8c0,0,4.5,15.4,0,27.7c0,0-7.5-8.1-24-7.9
		C125.3,252.4,117.4,253.2,113.7,258.9z"/>
	<path class="st7" d="M168,260.4c-0.1-0.5-0.2-1-0.4-1.5c-1.3-3-3.4-5.6-6.2-7.4c-6-4.3-13.6-5.9-21-6.1c-5.6-0.3-11.3,0.3-16.7,1.7
		c-3.6,1-7.2,2.6-9.7,5.4c-3.3,3.7-3.5,9.3-0.4,13.2c1.5-1.8,3-3.6,4.6-5.4c-0.1-1.6,1.3-2.8,2.6-3.4c1.7-0.7,3.5-1.1,5.3-1.3
		c5.1-0.6,10.3-0.6,15.4,0c5.1,0.6,10.4,1.4,15.1,3.4c2,0.9,5.5,2.8,4.5,5.5c0.1,0.2,0.2,0.4,0.3,0.7c0.6,2,1.3,4,2,6
		c0.4-0.3,0.8-0.6,1.1-0.9C167.4,267.9,168.7,264.1,168,260.4z"/>
</g>
<path id="f-arm" class="st10" d="M82.5,179.5c0,0-6.3,7.2-1.7,12.2s12.3-0.6,12.3-0.6s47.9-34.9,56.8-49.9
	c4.5-7.6-3.7-18.1-12.8-13.9C117.3,136.4,82.5,179.5,82.5,179.5z"/>
<path id="f-forearm" class="st10" d="M37.2,224.6l6.6,7.1c0,0,36.3-22.1,49.3-40.6c2.3-3.2-6.8-13.3-10.4-11.8
	C66.9,186,37.2,224.6,37.2,224.6z"/>
<g id="f-hand">
	<path class="st10" d="M41.2,244c0,0-5.2,11.8-11.1,13.2c-4.4,1-2-5.6,1.6-9.3c2.9-2.9,3.7-10,3.7-10L41.2,244z"/>
	<path class="st10" d="M46.6,226.7c0,0-2.9,14.7-6.8,19.5s-12.2-4.4-13.7-10.4c-0.6-2.5,0.5-7,3.2-9.9
		C33.3,221.6,40.2,219.9,46.6,226.7z"/>
	<path class="st10" d="M24.6,217.3c0,0,8.9,1.1,15,4.4s-4.3,9.1-4.3,9.1s-14.8-5.2-15.4-9S18.5,216.1,24.6,217.3z"/>
	<path class="st10" d="M32,238.3c0,0-8.9,11.1-15.6,10.9c-5-0.2-0.6-6.5,4.3-9.4c3.9-2.3,6.8-9.6,6.8-9.6L32,238.3z"/>
	<path class="st10" d="M35.8,245.2c0,0-8.9,11.2-15.6,10.9c-5-0.2-0.6-6.5,4.3-9.4c3.9-2.3,6.8-9.6,6.8-9.6L35.8,245.2z"/>
</g>
<g id="head">
	<path class="st10" d="M101.3,82.2c-0.4,7.4-2.1,18-4.8,19.6c-3.7,2.2-9.2,0.9-12.5-2.6c-2.7-2.8-5.2-5.8-7.6-6.1s-3,0.2-5.5,2.2
		c-2.8,2.2-5.7,3.9-8.7,0.7c-1.7-1.8-3.2-11.7-3.6-18c-0.9-13.2-0.4-26.5,1.7-39.5c2.2-12.8,1.5-17.7,5.8-23.3
		c2.8-4,9.7-6.8,12.1-7.3s5.5,0.6,8.5,2.2C95.6,15,103.8,40.3,101.3,82.2z"/>
	<path class="st10" d="M159.4,45.1c-9.9,12.2-29.2,21.5-44.3,27.4c-2.2,9-3.5,23.8-18.6,29.4c-6.1-0.6-5.6-23.8-5.3-44.1
		c0.2-10.7,0.3-20.6-0.6-25.9c-0.8-4.8-1.4-8.7-3.2-12.6S83,12,78,8c1.6-0.5,7.8-1.4,9.1-1.7C90.4,5.6,93.7,5,97,4.4
		c6.6-1.2,15.8-3.6,22.4-4.2c11.7-1,21.9,0.6,32.4,6.4c5.4,2.8,9.7,7.4,12.1,13C167.9,29.2,165.3,37.7,159.4,45.1z"/>
	<path class="st11" d="M84.6,88.4c-0.9,1.8-4.7-2.5-7.3-2.5s-6.1,2.5-7.4,0.8c-1.2-1.5-1.6-3.4-1.2-5.3c0.4-3.5,5.9-2.5,8.5-2.1
		c3.2,0.5,5.8,0.9,8.4,1.3C86.4,82.3,85.3,86.9,84.6,88.4z"/>
	<path class="st12" d="M71.3,45.5c0.4,5.7,1.1,18.8-4,18.2c-5.4-0.8-9.9-6.8-10.6-16.2s2.8-16.2,7.8-17.7
		C69.6,29.4,70.9,39.8,71.3,45.5z"/>
	<ellipse class="st13" cx="63.2" cy="45.9" rx="4.9" ry="10.9"/>
	<path class="st14" d="M63.2,35c0.4,1.8,0.7,3.6,0.8,5.5c0.2,1.8,0.2,3.7,0.2,5.5s-0.1,3.6-0.2,5.5c-0.1,1.8-0.4,3.7-0.8,5.5
		c-0.4-1.8-0.7-3.6-0.8-5.5c-0.2-1.8-0.2-3.7-0.2-5.5s0.1-3.7,0.2-5.5C62.6,38.6,62.8,36.8,63.2,35z"/>
	<ellipse class="st14" cx="63.2" cy="45.9" rx="2.4" ry="5.4"/>
	<path class="st0" d="M58.8,32.3c0,0,2.6-1.1,3.9,0c1.3,1.1,5.8,3.4,8.9,26c1.5-8.2,1.2-16.6-1.1-24.6
		C67.5,22.6,58.8,32.3,58.8,32.3z"/>
	<path class="st15" d="M55.7,34.9c0.8-1.5,2-2.7,3.5-3.6c0.9-0.5,1.9-0.6,2.9-0.3c0.5,0.1,0.9,0.4,1.3,0.7c0.4,0.2,0.7,0.5,1,0.8
		c1.1,1.2,2,2.5,2.7,4c0.6,1.4,1.1,2.8,1.6,4.3c0.8,2.9,1.5,5.8,1.9,8.8c0.5,3,0.8,5.9,1.1,8.9c-0.5-2.9-1.1-5.9-1.8-8.8
		c-0.6-2.9-1.5-5.7-2.5-8.5c-0.5-1.4-1.1-2.7-1.8-4c-0.6-1.2-1.5-2.3-2.5-3.3c-0.3-0.2-0.5-0.4-0.8-0.6c-0.2-0.2-0.5-0.3-0.7-0.3
		c-0.5-0.1-1,0-1.4,0.2c-1.1,0.7-2,1.6-2.7,2.8L57.4,36c-0.3,0.5-0.9,0.6-1.4,0.3C55.6,36,55.5,35.4,55.7,34.9L55.7,34.9L55.7,34.9z
		"/>
	<path class="st10" d="M75.1,77.5c-2.4,0.7-4.6,2-6.4,3.6c-2.8,2.4-5.3,5-7.5,7.9c-5.2,6.7-9.8,13.9-13.6,21.5
		c-4.3,7.9-8.1,16.1-11.3,24.6c-1.5,4.2-2.8,8.6-3.7,13c-1,4.4-1.5,8.8-1.5,13.3v0.5c0.1,6.4-5,11.7-11.4,11.8s-11.7-5-11.8-11.4
		c0-1.1,0.1-2.2,0.4-3.2c0.7-2.5,1.2-5,1.6-7.4l0.3-1.8l0.3-1.9c0.2-1.2,0.4-2.4,0.5-3.7c0.7-4.9,1.2-9.8,1.6-14.8
		c0.4-5,0.6-10.1,1.1-15.2c0.4-5.1,1.2-10.2,2.3-15.2c2.4-10.4,5.8-20.6,10.4-30.2c2.5-5.4,5.6-10.5,9-15.3c2-2.7,4.2-5.2,6.5-7.6
		c2.6-2.7,5.5-5.1,8.7-7.2l6.6-4.6C68,26.4,83,29.2,90.6,40.1C98.1,51,95.4,66,84.5,73.6C81.7,75.5,78.4,76.8,75.1,77.5L75.1,77.5z"
		/>
	<path class="st10" d="M34.5,177.6c-3,3.2-12.9-2.1-17.2-2.7S2,176.1,0.2,172.1c-1.6-3.5,6.9-9.4,8-13c1.7-5.7,22.8-2.4,22.7,3.6
		C30.9,166.5,37.1,174.8,34.5,177.6z"/>
	<path class="st0" d="M33.8,58c1.2-2.2,2.9-4,4.9-5.4c2.1-1.4,4.4-2.3,6.9-2.7c5-0.8,10,0.1,14.5,2.5l-0.5,0.9
		c-4.2-2.5-9.1-3.5-13.9-2.9c-2.4,0.3-4.8,1.1-6.9,2.4C36.7,54.1,35,55.9,33.8,58z"/>
	<path class="st0" d="M20.7,81.6c0.7-2,2-3.7,3.7-4.8c1.7-1.2,3.7-1.9,5.8-2.2c4.1-0.6,8.3,0.2,11.9,2.3c-1.9-0.6-3.9-1.1-5.9-1.3
		c-2-0.3-3.9-0.3-5.9,0c-1.9,0.3-3.8,0.9-5.5,1.9C23.1,78.4,21.7,79.8,20.7,81.6z"/>
	<path class="st0" d="M14.2,110.4c0.4-1.6,1.5-3,3-3.9c1.4-0.8,3.1-1.4,4.7-1.6c3.3-0.3,6.6,0.2,9.6,1.7c-3.1-0.7-6.3-0.9-9.4-0.7
		c-1.5,0.2-3.1,0.6-4.5,1.2C16.1,107.9,14.9,109,14.2,110.4z"/>
	<path class="st12" d="M87.2,48.6c0.4,5.6,1.1,18.8-4,18.2C77.9,66,73.4,60,72.6,50.7s2.8-16.2,7.8-17.7
		C85.5,32.5,86.8,43,87.2,48.6z"/>
	
		<ellipse transform="matrix(0.9974 -7.149744e-02 7.149744e-02 0.9974 -3.3723 5.7065)" class="st13" cx="78" cy="50" rx="4.9" ry="10.9"/>
	<path class="st14" d="M77.2,39c0.5,1.8,0.9,3.6,1.2,5.4c0.3,1.8,0.5,3.6,0.6,5.4s0.2,3.6,0.2,5.5c0,1.8-0.1,3.7-0.4,5.5
		c-0.5-1.8-0.9-3.6-1.2-5.4c-0.3-1.8-0.5-3.6-0.6-5.4s-0.2-3.6-0.2-5.5C76.8,42.7,77,40.9,77.2,39z"/>
	
		<ellipse transform="matrix(0.9974 -7.149744e-02 7.149744e-02 0.9974 -3.3723 5.7065)" class="st14" cx="78" cy="50" rx="2.4" ry="5.4"/>
	<path class="st0" d="M74.7,35.5c0,0,2.6-1.1,3.9,0s5.8,3.4,8.9,26c1.5-8.1,1.1-16.5-1.1-24.5C83.4,25.8,74.7,35.5,74.7,35.5z"/>
	<path class="st15" d="M71.6,38c0.8-1.5,2-2.7,3.5-3.6C76,34,77,33.8,78,34.1c0.5,0.1,0.9,0.4,1.3,0.6c0.3,0.2,0.7,0.5,1,0.8
		c1.1,1.2,2,2.5,2.6,4c0.6,1.4,1.1,2.8,1.6,4.3c0.8,2.9,1.5,5.8,1.9,8.8c0.5,2.9,0.8,5.9,1.1,8.9c-0.5-2.9-1.1-5.9-1.8-8.8
		c-0.6-2.9-1.5-5.7-2.5-8.5c-0.5-1.4-1.1-2.7-1.8-4C80.9,39,80,37.9,79,37c-0.3-0.2-0.5-0.4-0.8-0.6c-0.2-0.1-0.5-0.3-0.7-0.3
		c-0.5-0.1-1,0-1.4,0.2C75,37,74,37.9,73.4,39v0.1c-0.3,0.4-1,0.5-1.4,0.2C71.6,39,71.4,38.5,71.6,38L71.6,38z"/>
	<path class="st16" d="M159.4,45.1c-9.9,12.2-29.2,21.5-44.3,27.4c1.2-5.1,3.5-10.5,3.6-24.7c0.1-10.1,0.6-16.8,0-21
		c3.3,0.9,5.6,0.1,10,11.9c4.4,11.8,23.4,10,29.8,6.5C159.1,44.9,159.4,44.8,159.4,45.1z"/>
	<path class="st0" d="M89.3,36c0,0,2.4-10.1-1.1-13.7s-6,0.6-6,0.6l-1.1,4.8C81.1,27.7,87.1,23.7,89.3,36z"/>
	<path class="st0" d="M61.3,31.8c0,0,0-7.5,3.1-10.3c3.2-2.8,4.2,0.3,4.2,0.3v3.6C68.7,25.4,65,22.5,61.3,31.8z"/>
</g>
</svg>
