<?xml version="1.0" encoding="utf-8"?>
<!-- Generator: Adobe Illustrator 25.2.0, SVG Export Plug-In . SVG Version: 6.00 Build 0)  -->
<svg version="1.1" id="Layer_1" xmlns="http://www.w3.org/2000/svg" xmlns:xlink="http://www.w3.org/1999/xlink" x="0px" y="0px"
	 viewBox="0 0 271.2 416.4" style="enable-background:new 0 0 271.2 416.4;" xml:space="preserve">
<style type="text/css">
	.st0{fill:#7D33A3;}
	.st1{fill:#A1B200;}
	.st2{fill:#DAE78D;}
	.st3{fill:#FBFF43;}
	.st4{fill:#430B60;}
	.st5{fill:none;stroke:#A1B200;stroke-linecap:round;stroke-miterlimit:10;}
	.st6{fill:#ED6100;}
	.st7{fill:#C7DB52;}
	.st8{fill:none;stroke:#953DBA;stroke-linecap:round;stroke-miterlimit:10;}
	.st9{fill:#FFA400;}
	.st10{fill:#953DBA;}
	.st11{clip-path:url(#SVGID_2_);}
	.st12{fill:#FFFFFF;}
	.st13{fill:#77185E;}
	.st14{fill:#130E19;}
	.st15{fill:#933B00;}
	.st16{clip-path:url(#SVGID_4_);}
	.st17{fill:#AF4700;}
</style>
<path id="l-thigh" class="st0" d="M113.8,297.1c0,0-12.6-3.3-15.6-7.5c-4.9-6.9,5.9-14.8,5.9-14.8s40-25.9,71.7-33.3
	c7.9-1.9,20.6,1,24.4,10.8c3.6,9,0.2,18.7-7.5,21.4C173.5,280.7,113.8,297.1,113.8,297.1z"/>
<g id="l-calf">
	<path class="st1" d="M86.7,303.3c0,0,3.2-7.1,25.7-8.3c17.4-0.9,18.8,2.7,18.8,2.7s-10.5,31-19.8,31.6
		C95.1,330.4,86.7,303.3,86.7,303.3z"/>
	<path class="st0" d="M120,366.4l-8,0.4L97.3,287c0,0,17.9-9.8,21.5-6.3C134.2,295.6,120,366.4,120,366.4z"/>
	<path class="st2" d="M131.2,297.7l-0.2,19.6l-0.9,60c0,0-19.4,8.9-30.2-10.4l-9.6-46l-3.7-17.6c2,6.5,15.6,7.6,29.1,4.8
		C128.8,305.4,131.2,297.7,131.2,297.7z"/>
	<path class="st2" d="M100.1,365.3c0,0-3.4,5.3-11.7,11.2s-19,3.1-19.6,9s-1.4,8.2,2.8,10.6s24.4,6.8,32.2,5.6s5.9-5.4,15.4-4.1
		s10.2-3.6,10.2-3.6c1.4-8.6,1.1-17.3-0.9-25.8C125.2,354.4,100.1,365.3,100.1,365.3z"/>
	<path class="st3" d="M131.2,297.7l-0.2,19.6c-3.3,3.1-8.9,6.5-18.3,7.8c-12,1.7-19-1.7-22.4-4.2l-3.7-17.6c2,6.5,15.6,7.6,29.1,4.8
		C128.8,305.4,131.2,297.7,131.2,297.7z"/>
	<path class="st4" d="M130.2,386.8c0,0-0.7,4.9-10.2,3.6s-7.6,2.9-15.4,4.1s-28-3.2-32.2-5.6c-2.3-1.4-3.1-2.7-3.3-4.6
		c-0.1,0.4-0.2,0.7-0.3,1.1c-0.6,5.9-1.4,8.2,2.8,10.6s24.4,6.8,32.2,5.6s5.9-5.4,15.4-4.1s10.2-3.6,10.2-3.6c0.4-2.5,0.7-5,0.8-7.5
		C130.3,386.7,130.2,386.8,130.2,386.8z"/>
	<path class="st5" d="M99.9,367c0,0,15.8,10.3,29.7,0.9"/>
	<path class="st4" d="M98.3,288c0.9,1.3,2.1,2.3,3.5,3.1c0.6,0.3,1.2,0.6,1.9,0.7c0.2,0,0.4,0,0.6-0.1c0.2-0.1,0.5-0.3,0.6-0.5
		c0.5-0.5,1-1.1,1.4-1.7c0.5-0.6,0.9-1.3,1.3-1.9c0.8-1.3,1.6-2.8,2.3-4.3c0.1,1.7-0.1,3.4-0.7,5c-0.3,0.8-0.7,1.6-1.1,2.4
		c-0.4,0.8-1,1.5-1.6,2.2c-0.4,0.4-0.9,0.7-1.4,0.9c-0.6,0.2-1.2,0.3-1.8,0.1c-0.5-0.1-1-0.3-1.4-0.6c-0.4-0.2-0.8-0.5-1.1-0.8
		C99.3,291.3,98.5,289.7,98.3,288z"/>
	<line class="st5" x1="121.8" y1="323.4" x2="125.2" y2="370.1"/>
</g>
<path id="l-arm" class="st6" d="M94.6,175.1c0,0-9.1,3.1-12-3s5.2-11.2,5.2-11.2s50.3-31.2,67.6-33.8c8.8-1.3,15.4,10.2,8.1,17.1
	C147.7,159.1,94.6,175.1,94.6,175.1z"/>
<path id="l-forearm" class="st6" d="M35.8,200.1l-4.1-8.7c0,0,34.2-25.3,56.2-30.4c3.8-0.9,9.8,11.3,7,14.1
	C82.8,187.1,35.8,200.1,35.8,200.1z"/>
<g id="l-hand">
	<path class="st6" d="M19.5,189.1c0,0-12.9,0.3-16.4,5.3c-2.6,3.7,4.4,4,9.2,2c3.8-1.5,10.7,0.4,10.7,0.4L19.5,189.1z"/>
	<path class="st6" d="M37.5,190.6c0,0-14.7-2.9-20.6-1.1s-0.5,12.9,4.5,16.6c2,1.5,6.6,2.1,10.4,0.7
		C37.2,204.8,41.4,199.1,37.5,190.6z"/>
	<path class="st6" d="M37.9,214.6c0,0,2.3-8.6,1.6-15.5s-10,0.6-10,0.6s-0.7,15.7,2.6,17.6S36.7,220.6,37.9,214.6z"/>
	<path class="st6" d="M21.2,199.8c0,0-13.7,4-16,10.3c-1.7,4.7,5.8,3,10.3-0.4C19.1,206.9,27,207,27,207L21.2,199.8z"/>
	<path class="st6" d="M16.3,193.6c0,0-13.7,4-16,10.3c-1.7,4.7,5.8,3,10.3-0.4c3.6-2.7,11.5-2.6,11.5-2.6L16.3,193.6z"/>
</g>
<g id="torso">
	<path class="st7" d="M249.1,255.2c0,0,2.8,5.7-7.2,13.8s-37.1,15.1-31.5,4.3s12.2-25.9,24.8-24.4S249.1,255.2,249.1,255.2z"/>
	<path class="st1" d="M264.7,132.2c-1.9,15.7-10.6,29.7-23.9,38.2c-4.6,3.1-10.2,4-15.6,2.7C225.3,173.1,249.9,127.9,264.7,132.2z"
		/>
	<path class="st4" d="M205.9,274c-5.1,1.6-11-0.5-14.9-1.7c-7.8-4.5-21.8-14.3-27.6-27.3c1.1-4.8,2.1-8.7,1.9-12.1
		c-1.1-19.1,71.9-18.7,73,0.4c0.2,3,2,7.5,3.6,12.2C236.3,263.4,204.8,266.9,205.9,274z"/>
	<path class="st4" d="M237.2,227.1c0,0-13.7,14.9-34.9,14.8s-36.8-15.2-36.8-15.2s-1.9-18.8-6.2-30.1c-5.6-14.6-5.6-39-5.6-39
		s-8.9-30.4-4-38.7c9.6-2.5,24.8-7.7,44.8-7.6s59.4,12,59.4,12l-13.2,34.7c0,0,0.2,26.7-1,38.9C238.7,208.9,237.2,227.1,237.2,227.1
		z"/>
	<path class="st2" d="M149.8,119c-3.1,0.9-13.7,4.2-9.7,15.5s13.7,23.2,13.7,23.2S146.7,134.8,149.8,119z"/>
	<path class="st8" d="M183.1,154c0,0-5.8,22.3,0,46.4c10.4,43.4,2.7,54.9,14.8,73"/>
	<path class="st9" d="M223.8,123.9c0.2,7.1-27.4,29.8-40.7,30.1c-13.9-8.6-6.5-24.9-6.7-32s8.9-9.8,22.2-10.1
		S223.6,116.9,223.8,123.9z"/>
	<path class="st2" d="M220.8,108.4c0,0-43.6,10.2-44.7,21c-0.7,8.8,1.8,17.5,7,24.7c0,0-14.2-5.1-18.2-14.7c-2.6-6.4-4.1-9.9,2-21
		c1.6-2.9,17.4-13.6,24.1-14.2C206.4,103,220.8,108.4,220.8,108.4z"/>
	<path class="st2" d="M164.1,241.9c0,0-8.9-4.8-8.4,5.2c0.5,11.5,35,31.4,38.7,26.3c-0.5,0.7-10.3-8.2-14.4-11.8
		c-5.6-4.9-12.1-10.8-16.4-17.7L164.1,241.9z"/>
	<path class="st2" d="M242,245.4c4.2-0.2,7.7,3,8.1,7.1c1.4,9.8-15.7-1-34.1,10.1c-7.9,4.8-12.1,15-13.3,13.4
		c-3.4-4.4,3.1-15.1,11.2-21.5C223.6,246.7,242,245.4,242,245.4z"/>
	<path class="st3" d="M238.4,233.3c0,0-10.1,13-35.6,12.8s-37.4-13.2-37.4-13.2l-0.5-8.4c0,0,11.6,13.1,37,13.2
		c25.6,0.1,35.9-12.9,35.9-12.9L238.4,233.3z"/>
	<path class="st6" d="M220.8,121.6c0,0-22,26.3-30.9,23.6c-3.5-1-9.9-14.7-13.6-20.9c-9.4-16-20-55.8-20-55.8l40.5-3.8
		c0,0-6.1,21.9,6.8,41.6C207.9,112.8,213.9,118,220.8,121.6z"/>
	<path class="st2" d="M208.9,112.8c0,0,11.3,7.8,4.9,16.5c-12.4,16.9-30.7,24.7-30.7,24.7s29.7-1.9,37.7-8.6s17.6-27.9,8.4-33.8
		c-6.4-4.1-19.3-3.8-23.2-2.1L208.9,112.8z"/>
	<path class="st2" d="M250,252.5c-0.4-4.1-3.9-7.3-8.1-7.1c0,0-18.4,1.3-28.1,9.1c-2.2,1.8-4.2,3.8-6,6c5.7-1,8.6-2.8,17.4-3
		C241.1,255.2,251.2,260.6,250,252.5z"/>
</g>
<path id="r-thigh" class="st10" d="M169.8,309.4c0,0-13.7-2.4-16.9-8.2c-4.6-8.4,1.9-12.7,1.9-12.7s40.4-25.7,72.3-33.1
	c8-1.8,15-5.7,19.6,9.4c2.8,9.2,1.6,22.4-11.8,26.4C215.2,297.2,169.8,309.4,169.8,309.4z"/>
<g id="r-arm">
	<path class="st9" d="M255.9,213.7c0,0,3.3,9,9.9,7.4s5.4-11.1,5.4-11.1s-7.2-58.8-16-73.8c-4.5-7.6-17.6-5.6-18.4,4.4
		C235.1,162.3,255.9,213.7,255.9,213.7z"/>
</g>
<g id="r-calf">
	<path class="st1" d="M141.3,316c0,0,3.3-7.1,25.8-8c17.4-0.7,18.8,2.9,18.8,2.9s-10.9,30.9-20.2,31.4
		C149.3,343.2,141.3,316,141.3,316z"/>
	<path class="st10" d="M173.7,379.5l-8.1,0.3l-13.4-81c0,0,17.9-8.5,21.4-5C188.8,308.9,173.7,379.5,173.7,379.5z"/>
	<path class="st2" d="M185.8,310.9l-0.4,19.6l-1.2,55.6c0,0-20,13-30.5-6.3l-9-46.2l-3.4-17.6c1.9,6.5,15.4,7.8,29.1,5.1
		C183.3,318.6,185.8,310.9,185.8,310.9z"/>
	<path class="st2" d="M153.6,379.8c0,0-1.9,5.6-7.8,12.7c-6.5,7.8-12.8,4.5-12.8,10.5s-0.5,8.3,3.9,10.3s26.6,4.3,34.2,2.3
		s14.6-10.3,14.6-10.3c0.5-8.7-0.7-17.4-3.5-25.5C177.6,366.5,153.6,379.8,153.6,379.8z"/>
	<path class="st3" d="M185.8,310.9l-0.4,19.6c-3.3,3-9,6.4-18.4,7.6c-12,1.5-19-2-22.3-4.5l-3.4-17.6c1.9,6.5,15.4,7.8,29.1,5.1
		C183.3,318.6,185.8,310.9,185.8,310.9z"/>
	<line class="st5" x1="176.4" y1="335.9" x2="179.2" y2="382.3"/>
	<path class="st5" d="M153.6,379.8c0,0,16.6,9.2,30.7,0"/>
	<path class="st4" d="M164.9,299.7c0.3,1.6,0.2,3.2-0.1,4.8c-0.1,0.9-0.5,1.8-1.1,2.5c-0.3,0.4-0.8,0.8-1.3,1
		c-0.5,0.2-1,0.3-1.5,0.3c-0.9,0-1.8-0.1-2.7-0.5c-0.8-0.3-1.6-0.7-2.2-1.3c-1.3-1-2.3-2.4-2.8-4c1.1,1,2.4,1.9,3.7,2.6
		c0.6,0.3,1.3,0.6,1.9,0.8c0.6,0.2,1.3,0.3,1.9,0.2c0.5,0,1-0.2,1.4-0.5c0.4-0.5,0.8-1,1-1.6C163.8,302.6,164.3,301.2,164.9,299.7z"
		/>
	<path class="st4" d="M185.8,405.4c0,0-7,8.3-14.6,10.3s-29.8-0.3-34.3-2.3S133,409,133,403c0-0.4,0-0.8,0.1-1.2
		c0.3,2.1,1.2,3.4,3.8,4.5c4.4,2,26.6,4.3,34.3,2.3s14.6-10.3,14.6-10.3s0-0.2,0-0.5C186,400.4,186,402.9,185.8,405.4z"/>
</g>
<path id="r-forearm" class="st9" d="M200.7,222.3l2.1,9.4c0,0,42.5-1,63.1-10.4c3.6-1.6,0.8-14.9-3.1-15.4
	C245.8,203.7,200.7,222.3,200.7,222.3z"/>
<g id="r-hand">
	<path class="st9" d="M194.4,240.9c0,0-10.4,7.6-16.2,5.9c-4.4-1.3,1-5.8,6-7.2c3.9-1.1,8.2-6.8,8.2-6.8L194.4,240.9z"/>
	<path class="st9" d="M207.8,228.7c0,0-9.9,11.3-15.7,13.5s-8.4-9.9-6.6-15.9c0.7-2.4,3.9-5.7,7.8-6.9
		C198.8,217.7,205.7,219.6,207.8,228.7z"/>
	<path class="st9" d="M193.4,209.5c0,0,7.1,5.4,10.8,11.3s-8.3,5.7-8.3,5.7s-10.2-12-8.8-15.5S188.8,205.5,193.4,209.5z"/>
	<path class="st9" d="M189.3,231.4c0,0-13.3,5.2-18.9,1.7c-4.3-2.7,2.8-5.9,8.4-6c4.5,0,10.7-4.9,10.7-4.9L189.3,231.4z"/>
	<path class="st9" d="M189.2,239.3c0,0-13.3,5.2-18.9,1.7c-4.3-2.7,2.7-5.9,8.4-6c4.5-0.1,10.7-4.9,10.7-4.9L189.2,239.3z"/>
</g>
<g id="head">
	<path class="st9" d="M244.6,90.8c-1.7,6.1-6.2,15.7-13.7,18.2c-11.4,3.8-21.2,1-31.6-2.6c-8.8-3-18.1-9.4-26.1-10.2
		c-8.5-1-17.1-0.9-25.6,0.3c-10.2,1.6-20.9,2.7-32-1.1c-6.4-2.2-12.2-12.3-13.8-18.7c-8.3-33.6,16.3-56.1,43.7-58.8
		c9.7-1,19.6-1.4,27.8-0.6s18.1,3.2,27.8,6.1C228.3,31.6,254.6,53.9,244.6,90.8z"/>
	<path class="st9" d="M227.6,77.6c0,16.2-32.6-8.1-54.5-10.2S133.6,50.2,133.6,34s55.2-41.5,85.8-31.9
		C261.1,15.2,227.6,61.4,227.6,77.6z"/>
	<path class="st6" d="M146.7,45.2c0,0-2.8-6.5-9.9-6.8s-17.5,9.9-14.5,22.3c0,0-0.9-8.8,9-16.1S146.7,45.2,146.7,45.2z"/>
	<g>
		<defs>
			<path id="SVGID_1_" d="M147,64c-3.2,7.4-11,11.1-17.5,8.2s-9-11.3-5.8-18.7S136.8,39,143.2,42S150.2,56.6,147,64z"/>
		</defs>
		<clipPath id="SVGID_2_">
			<use xlink:href="#SVGID_1_"  style="overflow:visible;"/>
		</clipPath>
		<g class="st11">
			<polygon class="st12" points="141.4,79.6 115.2,67.3 130.8,32.8 157,45.1 			"/>
			
				<ellipse transform="matrix(0.2589 -0.9659 0.9659 0.2589 50.0788 177.6465)" class="st13" cx="140.8" cy="56.2" rx="11" ry="10.5"/>
			<path class="st14" d="M140.2,45.7c0.6,1.8,1,3.6,1.2,5.5c0.2,1.8,0.3,3.6,0.3,5.5c0,1.8-0.1,3.7-0.3,5.5
				c-0.2,1.9-0.6,3.7-1.2,5.5c-0.6-1.8-1-3.6-1.2-5.5c-0.2-1.8-0.3-3.6-0.3-5.5c0-1.8,0.1-3.7,0.3-5.5
				C139.2,49.3,139.6,47.4,140.2,45.7z"/>
			
				<ellipse transform="matrix(0.258 -0.9662 0.9662 0.258 49.3483 177.3944)" class="st14" cx="140.2" cy="56.6" rx="5.4" ry="5.2"/>
		</g>
	</g>
	<path class="st15" d="M129.5,72.2c-2.8-1.1-5.1-3.3-6.5-6c-0.7-1.4-1.1-2.9-1.3-4.4c-0.2-1.5-0.2-3.1,0-4.6c0.5-3.1,1.8-6,3.8-8.4
		c1.9-2.4,4.2-4.5,6.8-6.1c1.3-0.8,2.7-1.4,4.2-1.9c1.5-0.5,3.2-0.6,4.7-0.3c0.4,0.1,0.8,0.1,1.2,0.3l1.1,0.4l1.1,0.6
		c0.4,0.2,0.7,0.5,1,0.8c1.1,1.1,2,2.4,2.6,3.9c1,2.9,1.4,5.9,1.1,8.9c-0.2,3-1,5.9-2.3,8.6c1-2.8,1.5-5.7,1.5-8.6
		c0.1-2.9-0.5-5.7-1.6-8.3c-1.1-2.5-3.2-4.6-5.9-4.8c-2.8-0.2-5.5,0.6-7.8,2.1c-4.7,3-8.8,7.6-9.9,13.1c-0.6,2.8-0.4,5.6,0.6,8.3
		C125,68.5,127,70.7,129.5,72.2z"/>
	<path class="st6" d="M193.5,54.5c0,0,2.8-6.7,9.9-7.3s17.5,9,14.5,21.5c0,0,0.9-8.9-9-15.7S193.5,54.5,193.5,54.5z"/>
	<g>
		<defs>
			<path id="SVGID_3_" d="M193.2,73.4c3.2,7.2,11.1,10.5,17.5,7.3s9-11.7,5.8-19S203.4,47.8,197,51.1S190,66.1,193.2,73.4z"/>
		</defs>
		<clipPath id="SVGID_4_">
			<use xlink:href="#SVGID_3_"  style="overflow:visible;"/>
		</clipPath>
		<g class="st16">
			<polygon class="st12" points="198.8,88.7 225,75.1 209.4,41.3 183.2,54.9 			"/>
			
				<ellipse transform="matrix(0.258 -0.9662 0.9662 0.258 90.1882 248.2512)" class="st13" cx="206.7" cy="65.4" rx="11" ry="10.5"/>
			<path class="st14" d="M206.7,54.5c0.6,1.8,1,3.6,1.2,5.5c0.2,1.8,0.3,3.6,0.3,5.5c0,1.8-0.1,3.7-0.3,5.5
				c-0.2,1.9-0.6,3.7-1.2,5.5c-0.6-1.8-1-3.6-1.2-5.5c-0.2-1.8-0.3-3.6-0.3-5.5c0-1.8,0.1-3.6,0.3-5.5
				C205.7,58.1,206.1,56.3,206.7,54.5z"/>
			
				<ellipse transform="matrix(0.2589 -0.9659 0.9659 0.2589 91.2144 248.4649)" class="st14" cx="207.5" cy="64.8" rx="5.5" ry="5.2"/>
		</g>
	</g>
	<path class="st15" d="M210.7,80.6c2.5-1.5,4.4-3.8,5.4-6.5c1-2.6,1.3-5.5,0.8-8.3c-1-5.5-5.1-10.1-10-12.8
		c-1.2-0.7-2.5-1.2-3.8-1.5c-1.3-0.4-2.7-0.4-4-0.2c-2.6,0.4-4.6,2.6-5.8,5.1c-1.1,2.6-1.6,5.5-1.6,8.3c0,2.9,0.5,5.8,1.5,8.6
		c-1.3-2.7-2.1-5.6-2.3-8.5c-0.3-3,0.1-6.1,1.1-8.9c0.6-1.5,1.4-2.8,2.5-4c1.1-1.2,2.6-2,4.2-2.3c1.6-0.4,3.2-0.4,4.8,0
		c1.5,0.3,3,0.9,4.4,1.7c2.7,1.5,5.1,3.5,7,5.9c1,1.2,1.8,2.6,2.4,4c0.6,1.4,1.1,2.9,1.3,4.5c0.2,1.5,0.2,3.1-0.1,4.6
		c-0.2,1.5-0.7,3-1.4,4.4c-0.7,1.4-1.6,2.6-2.7,3.7C213.3,79.2,212.1,80.1,210.7,80.6z"/>
	<path class="st6" d="M118.8,37.6c0,0,5.1-10.3,18.7-12.4s15.2,2.8,15.2,2.8l-2.6,5C150.2,32.9,138.8,26.9,118.8,37.6z"/>
	<path class="st6" d="M225.3,48.1c-3.9-7.6-10.6-13.3-18.7-16.1c-13.6-4.8-15.2-0.2-15.2-0.2l2.5,5.4
		C193.9,37.2,205.2,33.4,225.3,48.1z"/>
	<path class="st17" d="M189.5,94.7c-2.9,1.5-15.3-4.1-23.8-5s-22.3,2.5-24.2,0.3c-2.2-2.5-4.9-6-2.2-7.5c6.7-3.6,17.6-2.1,26.2-1.2
		s19.9,1.8,26.2,6.6C194.4,89.9,192,93.4,189.5,94.7z"/>
	<path class="st9" d="M182,92.6c-2.2,1.6-4.1,3.4-5.8,5.5c-2.3,2.8-4.5,5.8-6.5,8.9c-2.1,3.3-4.2,6.9-6.2,10.6s-4,7.6-5.9,11.5
		c-1,2-1.9,3.9-3,5.9s-2.1,4-3.2,6c-2.2,4-4.2,8.1-6,12.3c-1.7,4.2-3.2,8.5-4.2,12.9c-0.5,2.2-1,4.4-1.3,6.6
		c-0.3,2.2-0.5,4.4-0.5,6.6c0.1,6.5-5.1,11.8-11.5,11.9c-6.2,0.1-11.4-4.7-11.9-10.9c-0.1-1.4,0.1-2.7,0.5-4l0.1-0.4
		c0.8-2.5,1.3-4.7,1.8-7.1s0.9-4.7,1.3-7c0.7-4.7,1.2-9.5,1.6-14.3c0.3-4.8,0.5-9.8,0.7-14.7c0.2-5,0.8-9.9,1.8-14.8
		c1.9-10.1,4.7-20,8.3-29.7c2-5.3,4.5-10.4,7.3-15.3c3.3-5.8,7.5-11,12.3-15.5l1.4-1.3c9.4-8.6,24-8,32.7,1.5s8,24-1.5,32.7
		C183.7,91.3,182.9,91.9,182,92.6z"/>
	<path class="st9" d="M143.1,194.5c-2.9,3.2-12.9-2.1-17.2-2.7s-15.4,1.2-17.2-2.7c-1.6-3.5,6.9-9.4,8-13c1.7-5.7,22.8-2.4,22.7,3.6
		C139.4,183.4,145.7,191.7,143.1,194.5z"/>
	<path class="st6" d="M145.4,65.5c1.1-2.2,2.7-4.1,4.8-5.4c2.1-1.4,4.4-2.3,6.8-2.7c4.9-0.8,9.9,0,14.3,2.4c2.2,1.1,4.2,2.7,5.8,4.5
		c1.6,1.9,2.9,4.1,3.6,6.4c0.7,2.3,1.1,4.8,1.1,7.2c0,2.4-0.3,4.8-0.8,7.2c0.3-2.4,0.5-4.8,0.4-7.2c-0.1-2.4-0.5-4.7-1.3-7
		c-0.8-2.2-2-4.3-3.6-6.1c-1.6-1.7-3.5-3.2-5.6-4.3c-4.2-2.3-9-3.2-13.7-2.5C152.2,58.7,148,61.4,145.4,65.5z"/>
	<path class="st6" d="M132.3,89c0.8-1.9,2.1-3.5,3.8-4.7c1.7-1.1,3.7-1.9,5.7-2.2c8.4-1.1,16.7,2.5,21.5,9.5
		c1.1,1.7,1.9,3.7,2.2,5.7c0.3,2,0,4.1-0.9,6c0.7-1.9,0.8-3.9,0.4-5.9c-0.4-1.9-1.2-3.8-2.4-5.4c-4.8-6.5-12.7-10-20.7-9.2
		c-2,0.2-3.9,0.9-5.6,1.9C134.7,85.8,133.3,87.2,132.3,89z"/>
	<path class="st6" d="M125.8,117.8c0.5-1.6,1.6-2.9,3-3.7c1.4-0.8,3-1.3,4.7-1.5c6.6-0.7,13.2,1.5,18,6.1c1.2,1.2,2.1,2.5,2.8,4.1
		c0.6,1.5,0.7,3.2,0.1,4.8c0.4-1.6,0.2-3.2-0.6-4.6c-0.7-1.4-1.7-2.7-2.8-3.7c-4.8-4.2-11-6.3-17.4-5.9c-1.6,0.1-3.1,0.5-4.5,1.2
		C127.6,115.2,126.5,116.4,125.8,117.8z"/>
</g>
<g id="r-shoulder">
	<path class="st4" d="M225.3,173c0,0-0.7-32.4,6.4-43.2s22.4-6.5,22.4-6.5L225.3,173z"/>
	<path class="st2" d="M254.1,123.4c4.6,1.2,16.7,7.6,7,13.4c-14.3,8.6-35.8,36.2-35.8,36.2s5-13.3,11.9-27.6
		C242.4,134.3,247.9,124.5,254.1,123.4z"/>
</g>
</svg>
