<?xml version="1.0" encoding="utf-8"?>
<!-- Generator: Adobe Illustrator 25.2.0, SVG Export Plug-In . SVG Version: 6.00 Build 0)  -->
<svg version="1.1" id="Layer_1" xmlns="http://www.w3.org/2000/svg" xmlns:xlink="http://www.w3.org/1999/xlink" x="0px" y="0px"
	 viewBox="0 0 296.6 402.8" style="enable-background:new 0 0 296.6 402.8;" xml:space="preserve">
<style type="text/css">
	.st0{fill:#C7DB52;}
	.st1{fill:#953DBA;}
	.st2{fill:#A1B200;}
	.st3{fill:#DAE78D;}
	.st4{fill:#FBFF43;}
	.st5{fill:#430B60;}
	.st6{fill:none;stroke:#A1B200;stroke-linecap:round;stroke-miterlimit:10;}
	.st7{fill:#FFA400;}
	.st8{fill:none;stroke:#953DBA;stroke-miterlimit:10;}
	.st9{fill:#ED6100;}
	.st10{clip-path:url(#SVGID_2_);}
	.st11{fill:#FFFFFF;}
	.st12{fill:#77185E;}
	.st13{fill:#130E19;}
	.st14{fill:#933B00;}
	.st15{clip-path:url(#SVGID_4_);}
	.st16{fill:#AF4700;}
</style>
<g id="back-hips">
	<path class="st0" d="M258.5,251.7c0,0-14.2,19.9-39.1,25C219.4,276.7,231.8,240.1,258.5,251.7z"/>
	<path class="st0" d="M166.5,251.7c0,0,14.2,19.9,39.1,25C205.6,276.7,193.3,240.1,166.5,251.7z"/>
</g>
<path id="r-thigh" class="st1" d="M237.1,293.3c0,0,7.5,6.3,12.4,5c13.1-3.6,13.1-16.6,13.1-16.6s-1.2-17.9-10.3-32.7
	c-2.3-3.7-10.9-7-20.9-4.1c-9.3,2.7-13.9,17.7-12.5,21.7C222.3,276.6,237.1,293.3,237.1,293.3z"/>
<g id="r-calf">
	<path class="st2" d="M272.5,302.4c0,0-3.3-7.1-25.8-8c-17.4-0.7-18.8,2.9-18.8,2.9s10.9,30.9,20.2,31.4
		C264.4,329.6,272.5,302.4,272.5,302.4z"/>
	<path class="st1" d="M240.1,365.9l8,0.3l13.8-81.6c0,0-18.3-8-21.8-4.5C224.9,295.3,240.1,365.9,240.1,365.9z"/>
	<path class="st3" d="M227.9,297.4l0.4,19.6l1.2,55.6c0,0,20,13,30.5-6.3l9-46.2l3.4-17.6c-1.9,6.5-15.5,7.8-29.1,5.1
		C230.4,305.1,227.9,297.4,227.9,297.4z"/>
	<path class="st3" d="M260.1,366.2c0,0,2.9,5.6,10.5,12.3s18.6,5,18.6,11s0.5,8.3-3.9,10.3s-25,4.3-32.6,2.3c-7.6-2-5.3-6-14.9-5.6
		s-9.8-4.6-9.8-4.6c-0.5-8.7,0.7-17.4,3.5-25.5C236.2,352.9,260.1,366.2,260.1,366.2z"/>
	<path class="st4" d="M227.9,297.4l0.4,19.6c3.3,3,9,6.4,18.4,7.6c12,1.5,19-2,22.3-4.5l3.4-17.6c-1.9,6.5-15.5,7.8-29.1,5.1
		C230.4,305.1,227.9,297.4,227.9,297.4z"/>
	<path class="st5" d="M227.9,384.6c0,0,0.2,5,9.8,4.6c9.6-0.4,7.3,3.6,14.9,5.6c7.6,2,28.2-0.3,32.6-2.3c2.5-1.1,3.4-2.3,3.7-4.2
		c0.1,0.4,0.2,0.7,0.1,1.1c0,6,0.5,8.3-3.9,10.3s-25,4.3-32.6,2.3c-7.6-2-5.3-6-14.9-5.6s-9.8-4.6-9.8-4.6c-0.2-2.5-0.2-5.1,0-7.6
		C227.9,384.4,227.9,384.6,227.9,384.6z"/>
	<line class="st6" x1="237.2" y1="322.6" x2="234.4" y2="368.4"/>
	<path class="st6" d="M260.1,366.2c0,0-16.6,9.2-30.7,0"/>
	<path class="st5" d="M249.1,283.9c0.6,1.5,1.1,2.9,1.7,4.3c0.2,0.6,0.5,1.1,1,1.6c0.4,0.3,0.9,0.5,1.4,0.5c0.6,0,1.3-0.1,1.9-0.2
		c0.7-0.2,1.3-0.4,1.9-0.8c1.3-0.7,2.6-1.6,3.7-2.6c-0.5,1.6-1.5,3-2.8,4c-0.7,0.6-1.4,1-2.2,1.3c-0.8,0.3-1.8,0.5-2.7,0.5
		c-0.5,0-1-0.1-1.5-0.3c-0.5-0.2-0.9-0.6-1.3-1c-0.5-0.7-0.9-1.6-1-2.5C249,287.1,248.9,285.5,249.1,283.9z"/>
</g>
<path id="l-arm" class="st7" d="M92.7,150.2c0,0-9,3.3-7.4,9.9s11.1,5.4,11.1,5.4s58.8-7.6,73.8-16.5c7.6-4.5,5.5-17.6-4.5-18.4
	C144,129,92.7,150.2,92.7,150.2z"/>
<path id="l-forearm" class="st7" d="M31.4,168l2.3,9.4c0,0,42.5-2,62.8-12c3.5-1.7,0.4-14.9-3.5-15.3C76,148.3,31.4,168,31.4,168z"
	/>
<g id="l-hand">
	<path class="st7" d="M25.6,186.8c0,0-10.2,7.9-16.1,6.3c-4.4-1.2,0.9-5.8,5.8-7.4c3.9-1.2,8-7,8-7L25.6,186.8z"/>
	<path class="st7" d="M38.6,174.3c0,0-9.6,11.5-15.4,13.9s-8.6-9.7-7-15.7c0.7-2.4,3.8-5.8,7.6-7.1
		C29.4,163.4,36.4,165.3,38.6,174.3z"/>
	<path class="st7" d="M23.8,155.5c0,0,7.3,5.2,11,11s-8.2,5.9-8.2,5.9s-10.4-11.7-9.1-15.3S19.1,151.6,23.8,155.5z"/>
	<path class="st7" d="M20.3,177.5c0,0-13.1,5.5-18.9,2.1c-4.3-2.5,2.6-6,8.3-6.2c4.5-0.2,10.6-5.2,10.6-5.2L20.3,177.5z"/>
	<path class="st7" d="M20.3,185.3c0,0-13.1,5.5-18.9,2.1c-4.3-2.5,2.6-6,8.3-6.2c4.5-0.2,10.6-5.2,10.6-5.2L20.3,185.3z"/>
</g>
<g id="r-arm">
	<path class="st7" d="M268.7,210.5c0,0,3.3,9,9.9,7.4s5.4-11.1,5.4-11.1s-7.2-58.8-16-73.8c-4.5-7.6-17.6-5.6-18.4,4.4
		C247.9,159.1,268.7,210.5,268.7,210.5z"/>
</g>
<path id="l-thigh" class="st1" d="M188,293.3c0,0-7.6,6.3-12.4,5c-13.1-3.6-13.1-16.6-13.1-16.6s1.2-17.9,10.3-32.7
	c2.3-3.7,10.9-7,20.9-4.1c9.3,2.7,13.9,17.7,12.5,21.7C202.7,276.6,188,293.3,188,293.3z"/>
<g id="l-calf">
	<path class="st2" d="M152.5,302.4c0,0,3.3-7.1,25.8-8c17.4-0.7,18.8,2.9,18.8,2.9s-10.9,30.9-20.2,31.4
		C160.6,329.6,152.5,302.4,152.5,302.4z"/>
	<path class="st1" d="M185,365.9l-8.1,0.3l-13.8-81.6c0,0,18.3-8,21.8-4.5C200.1,295.3,185,365.9,185,365.9z"/>
	<path class="st3" d="M197.1,297.4l-0.4,19.6l-1.2,55.6c0,0-20,13-30.5-6.3l-9-46.2l-3.4-17.6c1.9,6.5,15.4,7.8,29.1,5.1
		C194.6,305.1,197.1,297.4,197.1,297.4z"/>
	<path class="st3" d="M164.9,366.2c0,0-2.9,5.6-10.5,12.3s-18.6,5-18.6,11s-0.5,8.3,3.9,10.3s25,4.3,32.6,2.3s5.3-6,14.9-5.6
		s9.8-4.6,9.8-4.6c0.5-8.7-0.7-17.4-3.5-25.5C188.8,352.9,164.9,366.2,164.9,366.2z"/>
	<path class="st4" d="M197.1,297.4l-0.4,19.6c-3.3,3-9,6.4-18.4,7.6c-12,1.5-19-2-22.3-4.5l-3.4-17.6c1.9,6.5,15.4,7.8,29.1,5.1
		C194.6,305.1,197.1,297.4,197.1,297.4z"/>
	<path class="st5" d="M197.1,384.6c0,0-0.2,5-9.8,4.6s-7.3,3.6-14.9,5.6s-28.2-0.3-32.6-2.3c-2.5-1.1-3.4-2.3-3.7-4.2
		c-0.1,0.4-0.2,0.7-0.2,1.1c0,6-0.5,8.3,3.9,10.3s25,4.3,32.6,2.3s5.3-6,14.9-5.6s9.8-4.6,9.8-4.6c0.2-2.5,0.2-5.1,0-7.6
		C197.1,384.4,197.1,384.6,197.1,384.6z"/>
	<line class="st6" x1="187.8" y1="322.6" x2="190.6" y2="368.4"/>
	<path class="st6" d="M164.9,366.2c0,0,16.6,9.2,30.7,0"/>
	<path class="st5" d="M175.9,283.9c0.2,1.6,0.2,3.2-0.1,4.8c-0.1,0.9-0.5,1.8-1.1,2.5c-0.3,0.4-0.8,0.8-1.3,1
		c-0.5,0.2-1,0.3-1.5,0.3c-0.9,0-1.8-0.1-2.7-0.5c-0.8-0.3-1.6-0.7-2.2-1.3c-1.3-1-2.3-2.4-2.8-4c1.1,1,2.4,1.9,3.7,2.6
		c0.6,0.3,1.3,0.6,1.9,0.8c0.6,0.2,1.3,0.3,1.9,0.2c0.5,0,1-0.2,1.4-0.5c0.4-0.5,0.8-1,1-1.6C174.7,286.8,175.3,285.4,175.9,283.9z"
		/>
</g>
<g id="torso">
	<path class="st5" d="M220.5,273.4c-5.1,1.4-10.5,1.4-15.6,0c-2.4-5.4-21.9-27.8-33.2-27.8c1.5-4.8,2.8-8.7,2.8-12.2
		c0-19.1,76.5-19.1,76.5,0c0,3,1.6,7.5,3,12.2C244.4,245.6,222.7,267.9,220.5,273.4z"/>
	<path class="st5" d="M250.1,227.2c0,0-15.3,15-37.5,15s-37.6-15-37.6-15s-2.7-18.3-4.6-30.1c-1.9-12.3-3.4-39-3.4-39l-16-34.9
		c0,0,40.7-11.7,61.7-11.7s61.6,11.7,61.6,11.7l-16,34.9c0,0-1.5,26.8-3.4,39C252.8,209,250.1,227.2,250.1,227.2z"/>
	<path class="st3" d="M150.9,123.2c0,0-11.7,2.2-5.1,12s21.1,22.9,21.1,22.9L150.9,123.2z"/>
	<path class="st3" d="M274.1,123.2c0,0,11.7,2.2,5.1,12s-21.1,22.9-21.1,22.9L274.1,123.2z"/>
	<line class="st8" x1="212.5" y1="154.4" x2="212.5" y2="274.4"/>
	<path class="st9" d="M241.3,129.2c1.4,9.4-28.8,25.1-28.8,25.1s-30.1-15.7-28.6-25.1c0.8-5.3,9-11,9.7-19.2
		c0.9-12.3-1.3-43.4-1.3-43.4h40.7c0,0-2.2,31.2-1.3,43.5C232.3,118.3,240.5,123.9,241.3,129.2z"/>
	<path class="st3" d="M192.4,113.6c0,0-5.4,3.9-2.2,14.3s22.3,30.2,22.3,30.2s-30.7-18-36.2-26.9c0,0-3.8-9.7,5.4-15.6
		S192.4,113.6,192.4,113.6z"/>
	<path class="st3" d="M232.6,113.6c0,0,5.4,3.9,2.2,14.3s-22.3,30.2-22.3,30.2s30.7-18,36.2-26.9c0,0,3.8-9.7-5.4-15.6
		S232.6,113.6,232.6,113.6z"/>
	<path class="st3" d="M166.5,251.7c0,0-5.4-7.4,4.3-9.8c20.5-5,39.1,29.8,36,34.1s-3.1-11.2-19.7-20
		C174.8,249.4,166.5,251.7,166.5,251.7z"/>
	<path class="st3" d="M258.5,251.7c0,0,5.4-7.4-4.3-9.8c-20.5-5-39.1,29.8-36,34.1s3.1-11.2,19.7-20
		C250.3,249.4,258.5,251.7,258.5,251.7z"/>
	<path class="st4" d="M250.9,233.4c0,0-11.4,13-38.1,13s-38.4-13-38.4-13V225c0,0,11.3,13,38,13c26.9,0,38.5-13,38.5-13L250.9,233.4
		z"/>
</g>
<path id="r-forearm" class="st7" d="M264.4,231.7l9.3,2.7c0,0,10.5-15.5,10.9-26c0.2-5.1-6.3-12.4-15.1-4.4
	C262.9,209.8,264.4,231.7,264.4,231.7z"/>
<g id="r-hand">
	<path class="st7" d="M275.1,244.4c0,0,1.4,12.8-3,17c-3.3,3.1-4.5-3.8-3.3-8.8c1-4-1.8-10.5-1.8-10.5L275.1,244.4z"/>
	<path class="st7" d="M267.5,226.1c-2.6,1.1-4,3.9-3.3,6.6c1.2,4.6,3.2,12,5.3,15.5c3.1,5.4,12.7-2.5,15.1-8.2c1-2.3,0.5-7-1.7-10.3
		c-1.7-2.6-4.4-4.5-7.5-5C272.7,224.5,270,225,267.5,226.1z"/>
	<path class="st7" d="M288.9,221.9c0,0-9-0.3-15.5,2.1s2.9,9.6,2.9,9.6s15.4-3,16.6-6.6S295.1,221.6,288.9,221.9z"/>
	<path class="st7" d="M283.9,235.1c0,0,10,10.1,9,16.8c-0.8,5-6.5-0.2-8.8-5.4c-1.8-4.1-8.8-7.9-8.8-7.9L283.9,235.1z"/>
	<path class="st7" d="M281.1,242.5c0,0,4.2,13.6,0.3,19c-3,4.1-5.7-3.2-5.4-8.9c0.3-4.5-4.2-11-4.2-11L281.1,242.5z"/>
</g>
<g id="head">
	<path class="st7" d="M295.1,80.6c-1.5,6.3-7,15.6-16,17.3c-12.6,2.5-25.2,0.2-37.3-2.3c-10.1-2.1-19.9-4.5-29.2-4.5
		c-9.4,0-19.3,2.6-29.6,4.8c-11.8,2.6-24.2,4.7-36.9,2.1c-7.4-1.6-14.1-11.1-15.9-17.3c-9.6-32.8,18.9-57.7,50.4-63.1
		c11.1-1.9,22.6-3.3,32-3.3s20.9,1.4,32,3.3C276.3,23,303.4,45.2,295.1,80.6z"/>
	<path class="st7" d="M258.3,34.7c0,16.2-20.4,29.4-45.6,29.4S167.1,51,167.1,34.7S194.1,0,212.7,0S258.3,18.5,258.3,34.7z"/>
	<path class="st9" d="M184.8,43.7c0,0-2.9-6.6-10.3-7.1s-18.3,9.5-15.1,21.9c0,0-0.9-8.9,9.3-15.9S184.8,43.7,184.8,43.7z"/>
	<g>
		<defs>
			<path id="SVGID_1_" d="M185.1,62.6c-3.4,7.3-11.5,10.8-18.2,7.7c-6.7-3.1-9.4-11.5-6-18.8s13.6-14.2,20.3-11
				C187.9,43.6,188.5,55.2,185.1,62.6z"/>
		</defs>
		<clipPath id="SVGID_2_">
			<use xlink:href="#SVGID_1_"  style="overflow:visible;"/>
		</clipPath>
		<g class="st10">
			
				<rect x="154.9" y="39.4" transform="matrix(0.4294 -0.9031 0.9031 0.4294 49.9439 188.0464)" class="st11" width="37.8" height="30.2"/>
			<circle class="st12" cx="178" cy="55" r="10.9"/>
			<path class="st13" d="M178,44c0.6,1.8,1,3.6,1.2,5.5c0.5,3.6,0.5,7.3,0,10.9c-0.2,1.9-0.6,3.7-1.2,5.5c-0.6-1.8-1-3.6-1.2-5.5
				c-0.2-1.8-0.3-3.6-0.3-5.5c0-1.8,0.1-3.7,0.3-5.5C177,47.6,177.4,45.8,178,44z"/>
			<circle class="st13" cx="178" cy="55" r="5.4"/>
		</g>
	</g>
	<path class="st14" d="M166.9,70.3c-2.9-1.1-5.3-3.2-6.6-6c-0.7-1.4-1.2-2.9-1.4-4.4c-0.2-1.6-0.2-3.1,0-4.7c0.5-3.1,1.9-6,3.9-8.4
		c2-2.4,4.4-4.4,7.2-5.9c2.8-1.7,6-2.4,9.2-2c1.6,0.2,3.2,1,4.4,2.1c1.2,1.1,2.1,2.4,2.8,3.9c0.6,1.4,1,2.9,1.2,4.5
		c0.2,1.5,0.2,3,0.1,4.6c-0.2,3-1,6-2.4,8.7c1-2.8,1.5-5.7,1.5-8.7c0.1-2.9-0.5-5.8-1.7-8.4c-0.6-1.3-1.4-2.4-2.5-3.2
		c-1-0.9-2.3-1.4-3.6-1.6c-2.8-0.2-5.6,0.4-8,1.9c-4.9,2.8-9.2,7.3-10.3,12.9c-0.6,2.8-0.3,5.8,0.8,8.4
		C162.4,66.6,164.4,68.9,166.9,70.3z"/>
	<path class="st9" d="M240.6,43.7c0,0,2.9-6.6,10.3-7.1c7.4-0.5,18.3,9.5,15.1,21.9c0,0,0.9-8.9-9.3-15.9
		C246.4,35.7,240.6,43.7,240.6,43.7z"/>
	<g>
		<defs>
			<path id="SVGID_3_" d="M240.3,62.6c3.4,7.3,11.5,10.8,18.2,7.7c6.7-3.1,9.4-11.5,6.1-18.8s-13.7-14.2-20.3-11
				C237.5,43.6,236.9,55.2,240.3,62.6z"/>
		</defs>
		<clipPath id="SVGID_4_">
			<use xlink:href="#SVGID_3_"  style="overflow:visible;"/>
		</clipPath>
		<g class="st15">
			
				<rect x="236.5" y="35.6" transform="matrix(0.9031 -0.4294 0.4294 0.9031 0.9748 113.3238)" class="st11" width="30.2" height="37.8"/>
			<circle class="st12" cx="254.4" cy="55" r="10.9"/>
			<path class="st13" d="M254.4,44c0.6,1.8,1,3.6,1.2,5.5c0.5,3.6,0.5,7.3,0,10.9c-0.2,1.9-0.6,3.7-1.2,5.5c-0.6-1.8-1-3.6-1.2-5.5
				c-0.2-1.8-0.3-3.6-0.3-5.5c0-1.8,0.1-3.7,0.3-5.5C253.4,47.6,253.8,45.8,254.4,44z"/>
			<circle class="st13" cx="254.4" cy="55" r="5.4"/>
		</g>
	</g>
	<path class="st14" d="M258.5,70.3c2.6-1.4,4.6-3.7,5.7-6.4c1.1-2.7,1.3-5.6,0.8-8.4c-1.1-5.6-5.5-10.1-10.3-12.9
		c-2.4-1.5-5.2-2.1-8-1.9c-1.3,0.2-2.6,0.7-3.6,1.6c-1.1,0.9-1.9,2-2.5,3.2c-1.2,2.6-1.7,5.5-1.7,8.4c0,3,0.5,5.9,1.5,8.7
		c-1.4-2.7-2.2-5.6-2.4-8.7c-0.1-1.5-0.1-3.1,0.1-4.6c0.2-1.5,0.6-3,1.2-4.5c0.6-1.5,1.5-2.8,2.8-3.9c1.2-1.1,2.8-1.9,4.4-2.1
		c3.2-0.4,6.4,0.3,9.2,2c2.7,1.5,5.2,3.5,7.2,5.9c2,2.4,3.4,5.3,3.9,8.4c0.2,1.6,0.2,3.1,0,4.7c-0.3,1.5-0.7,3-1.4,4.4
		C263.7,67.1,261.4,69.2,258.5,70.3z"/>
	<path class="st9" d="M151.1,39.7c0,0,5.9-10.8,21.6-14.3s17.5,1.3,17.5,1.3l-2.9,5.2C187.3,31.9,174.3,27,151.1,39.7z"/>
	<path class="st9" d="M273.9,39.7c0,0-5.9-10.8-21.6-14.3s-17.5,1.3-17.5,1.3l2.9,5.2C237.8,31.9,250.8,27,273.9,39.7z"/>
	<path class="st16" d="M238.7,89c-3.2,1.8-16.7-2.5-26-2.5c-9.4,0-24.3,4.8-26.4,2.8c-2.4-2.3-5.4-5.5-2.4-7.2
		c7.3-4.3,19.1-3.9,28.6-3.9s21.7-0.3,28.6,3.9C244,83.7,241.4,87.4,238.7,89z"/>
	<path class="st7" d="M235.5,50.9c-0.4,9.9-1.2,19.7-2.1,29.6c-0.4,4.9-1,9.9-1.5,14.8l-1.7,14.8c-0.6,4.9-1.5,9.9-2.5,14.8
		s-2.1,9.9-2.9,14.8c-0.8,4.9-1.2,9.8-1.4,14.8c-0.3,4.9-0.1,9.9,0.6,14.8c1.2,6.3-3,12.4-9.4,13.5c-6.3,1.2-12.4-3-13.5-9.4
		c0-0.2-0.1-0.4-0.1-0.6c-0.2-1.2-0.2-2.4,0-3.5c0.7-4.9,0.9-9.9,0.6-14.8c-0.2-5-0.7-9.9-1.4-14.8c-0.8-4.9-1.8-9.9-2.9-14.8
		s-1.9-9.9-2.5-14.8l-1.7-14.8c-0.5-4.9-1.1-9.9-1.5-14.8c-0.9-9.9-1.7-19.7-2.1-29.6c-0.6-12.7,9.3-23.4,22-24s23.4,9.3,24,22
		C235.5,49.6,235.5,50.2,235.5,50.9z"/>
	<path class="st7" d="M229.9,183.4c-2.4,3.6-13,0-17.4,0s-15,3.6-17.4,0c-2.1-3.2,5.4-10.4,5.9-14.2c0.8-5.9,22.1-5.9,23,0
		C224.5,173,232,180.2,229.9,183.4z"/>
	<path class="st9" d="M192.4,65.2c-0.1-2.5,0.5-4.9,1.6-7.2c1.2-2.2,2.8-4.2,4.7-5.7c8.2-6.3,19.7-6.3,27.9,0c2,1.6,3.6,3.5,4.7,5.7
		c1.1,2.2,1.7,4.7,1.6,7.2c-0.3-4.9-2.8-9.4-6.8-12.3c-8-5.8-18.9-5.8-26.9,0C195.2,55.8,192.7,60.3,192.4,65.2z"/>
	<path class="st9" d="M195,84.6c-0.1-2.1,0.5-4.1,1.6-5.8c1.1-1.7,2.6-3.2,4.3-4.3c7.2-4.5,16.3-4.5,23.5,0c1.7,1.1,3.2,2.6,4.4,4.3
		c1.1,1.7,1.7,3.8,1.6,5.8c-0.1-2-0.8-3.9-2-5.6c-1.2-1.6-2.6-3-4.4-4c-7-4-15.6-4-22.7,0c-1.7,1-3.2,2.4-4.4,4
		C195.8,80.7,195.1,82.6,195,84.6z"/>
	<path class="st9" d="M197.6,103.8c0-1.7,0.6-3.3,1.6-4.5c1.1-1.2,2.4-2.3,3.9-3c6-2.8,13-2.8,19.1,0c1.5,0.7,2.8,1.8,3.9,3
		c1.1,1.2,1.7,2.9,1.6,4.5c-0.2-1.6-0.9-3.1-2-4.2c-1.1-1.1-2.4-2-3.9-2.6c-5.9-2.4-12.5-2.4-18.4,0c-1.4,0.6-2.8,1.5-3.9,2.6
		C198.5,100.7,197.8,102.2,197.6,103.8z"/>
</g>
</svg>
