<?xml version="1.0" encoding="utf-8"?>
<!-- Generator: Adobe Illustrator 25.2.0, SVG Export Plug-In . SVG Version: 6.00 Build 0)  -->
<svg version="1.1" id="Layer_1" xmlns="http://www.w3.org/2000/svg" xmlns:xlink="http://www.w3.org/1999/xlink" x="0px" y="0px"
	 viewBox="0 0 242.8 469.6" style="enable-background:new 0 0 242.8 469.6;" xml:space="preserve">
<style type="text/css">
	.st0{fill:#A1B200;}
	.st1{fill:#953DBA;}
	.st2{fill:#DAE78D;}
	.st3{fill:#FBFF43;}
	.st4{fill:#430B60;}
	.st5{fill:none;stroke:#A1B200;stroke-linecap:round;stroke-miterlimit:10;}
	.st6{fill:#ED6100;}
	.st7{fill:none;stroke:#953DBA;stroke-linecap:round;stroke-miterlimit:10;}
	.st8{fill:#FFA400;}
	.st9{clip-path:url(#SVGID_2_);}
	.st10{fill:#FFFFFF;}
	.st11{fill:#77185E;}
	.st12{fill:#130E19;}
	.st13{fill:#933B00;}
	.st14{clip-path:url(#SVGID_4_);}
	.st15{fill:#AF4700;}
</style>
<g id="l-calf">
	<path class="st0" d="M80.1,370.5c0,0,2.5-7.4,24.7-10.8c17.2-2.6,19,0.8,19,0.8s-7.3,31.9-16.5,33.4
		C91.2,396.6,80.1,370.5,80.1,370.5z"/>
	<path class="st1" d="M119.5,429.9l-8,1.2l-21.3-73.9c0,0,15.6-15.7,19.6-12.5C126.6,358.1,119.5,429.9,119.5,429.9z"/>
	<path class="st2" d="M123.8,360.4l1.8,19.5l5.1,59.8c0,0-18.4,10.7-31-7.3l-14.1-44.9l-5.4-17.1c2.6,6.3,16.2,6,29.5,1.8
		C122.2,368.3,123.8,360.4,123.8,360.4z"/>
	<path class="st2" d="M99.6,430.8c0,0-2.9,5.6-10.5,12.3s-18.6,5-18.6,10.9s-0.5,8.3,3.9,10.3s25,4.3,32.6,2.4s5.3-6,14.9-5.6
		s9.8-4.6,9.8-4.6c0.5-8.7-0.6-17.4-3.5-25.5C123.6,417.5,99.6,430.8,99.6,430.8z"/>
	<path class="st3" d="M123.8,360.4l1.8,19.5c-3,3.4-8.2,7.4-17.4,9.6c-11.8,2.9-19.1,0.2-22.7-2l-5.4-17.1c2.6,6.3,16.2,6,29.5,1.8
		C122.2,368.3,123.8,360.4,123.8,360.4z"/>
	<path class="st4" d="M131.7,449.2c0,0-0.2,5-9.8,4.6s-7.3,3.6-14.9,5.6s-28.2-0.4-32.6-2.4c-2.5-1.1-3.4-2.3-3.7-4.2
		c-0.1,0.4-0.2,0.8-0.2,1.1c0,6-0.5,8.3,3.9,10.3s25,4.3,32.6,2.4c7.6-2,5.3-6,14.9-5.6s9.8-4.6,9.8-4.6c0.2-2.5,0.2-5,0-7.6
		L131.7,449.2z"/>
	<line class="st5" x1="117.2" y1="386.3" x2="125.4" y2="433.1"/>
	<path class="st5" d="M99.6,432.5c0,0,16.8,8.7,29.7-2"/>
</g>
<g id="l-thigh">
	<path class="st1" d="M110.2,348.5c0,0-10.6,10.1-15.8,10.2c-8.6,0.2-7.9-15.5-7.9-15.5s5.1-56,19.4-91.8c3.6-9,13.9-19.4,24-16.7
		c9.2,2.4,14.7,11.8,12.2,21c0,0.1-0.1,0.3-0.1,0.4C135.3,279.6,110.2,348.5,110.2,348.5z"/>
	<path class="st4" d="M90.1,354.1c1,1.2,2.3,2.1,3.8,2.8c0.6,0.3,1.3,0.5,1.9,0.5c0.2,0,0.4-0.1,0.6-0.2c0.2-0.1,0.4-0.3,0.6-0.5
		c0.4-0.6,0.8-1.2,1.2-1.8c0.4-0.7,0.8-1.4,1.1-2c0.7-1.4,1.3-2.9,1.9-4.5c0.3,1.7,0.3,3.4-0.2,5.1c-0.2,0.8-0.5,1.7-0.8,2.4
		c-0.4,0.8-0.8,1.6-1.4,2.3c-0.4,0.4-0.8,0.8-1.3,1.1c-0.6,0.3-1.2,0.4-1.8,0.3c-0.5-0.1-1-0.2-1.5-0.5c-0.4-0.2-0.8-0.4-1.2-0.7
		C91.5,357.4,90.4,355.8,90.1,354.1z"/>
</g>
<g id="r-calf">
	<path class="st0" d="M167.4,372.7c0,0,2-7.6,23.9-12.5c17-3.9,19-0.5,19-0.5s-5.1,32.3-14.1,34.5
		C180.3,398,167.4,372.7,167.4,372.7z"/>
	<path class="st1" d="M210.9,429.2L203,431l-26.4-72.2c0,0,14.5-16.7,18.6-13.9C212.9,357.1,210.9,429.2,210.9,429.2z"/>
	<path class="st2" d="M210.3,359.6l3.2,19.4l8.9,54.9c0,0-17.3,16.4-31.2-0.7L174,389.5l-6.6-16.7c3.1,6.1,16.6,4.8,29.5-0.2
		C209.2,367.7,210.3,359.6,210.3,359.6z"/>
	<path class="st2" d="M191.3,433.2c0,0-0.8,5.8-5.4,14c-4.9,8.8-11.7,6.8-10.6,12.6s1,8.3,5.7,9.4s27-0.6,34.1-4
		s12.5-12.8,12.5-12.8c-1.1-8.6-3.8-16.9-8.1-24.5C212.3,415.8,191.3,433.2,191.3,433.2z"/>
	<path class="st3" d="M210.3,359.6l3.2,19.4c-2.7,3.6-7.7,8-16.7,10.8c-11.5,3.7-19,1.5-22.8-0.4l-6.6-16.7
		c3.1,6.1,16.6,4.8,29.5-0.2C209.2,367.7,210.3,359.6,210.3,359.6z"/>
	<line class="st5" x1="205.6" y1="385.9" x2="216.8" y2="431.1"/>
	<path class="st5" d="M191.3,433.2c0,0,18,6,30.1-5.6"/>
	<path class="st4" d="M227.6,452.5c0,0-5.4,9.4-12.5,12.8s-29.4,5.1-34.1,4s-4.6-3.5-5.7-9.4c-0.1-0.4-0.1-0.8-0.1-1.2
		c0.7,2,1.8,3.1,4.5,3.8c4.7,1.2,27-0.6,34.1-4s12.5-12.8,12.5-12.8s0-0.2-0.1-0.5C226.9,447.5,227.3,450,227.6,452.5z"/>
</g>
<g id="r-thigh">
	<path class="st1" d="M195.3,345.7c0,0-5.8,13.4-10.6,15.6c-7.8,3.6-13.4-11.1-13.4-11.1s-17.2-53.5-18-92.1
		c-0.2-9.6,5.2-23.3,15.6-24.8c9.6-1.4,20.1,16.6,21.2,26.1C193.1,283.7,195.3,345.7,195.3,345.7z"/>
	<path class="st4" d="M185.7,350.6c0.5,1.5,0.8,3.1,0.8,4.7c0,0.9-0.2,1.9-0.6,2.7c-0.3,0.5-0.6,0.9-1.1,1.2
		c-0.4,0.3-0.9,0.5-1.4,0.6c-0.9,0.2-1.8,0.2-2.7,0c-0.9-0.1-1.7-0.4-2.4-0.9c-1.5-0.8-2.7-2-3.5-3.4c1.3,0.8,2.7,1.4,4.1,1.9
		c0.7,0.2,1.3,0.3,2,0.4c0.6,0.1,1.3,0,1.9-0.1c0.5-0.1,0.9-0.4,1.2-0.8c0.3-0.5,0.5-1.1,0.6-1.8
		C185.1,353.7,185.3,352.2,185.7,350.6z"/>
</g>
<path id="l-arm" class="st6" d="M89.6,203.4c0,0-3.3,9-9.9,7.4s-5.4-11.1-5.4-11.1s7.2-58.8,16-73.8c4.5-7.6,17.6-5.6,18.4,4.4
	C110.4,152,89.6,203.4,89.6,203.4z"/>
<path id="l-forearm" class="st6" d="M34.4,162.9l-5.6,7.9c0,0,29.3,30.8,50.1,39.7c3.6,1.5,11.6-9.4,9.3-12.6
	C78.5,183.8,34.4,162.9,34.4,162.9z"/>
<g id="l-hand">
	<path class="st6" d="M16.4,170.8c0,0-12.7-2.6-15.2-8c-2-4.1,5-3.1,9.4-0.4c3.5,2.2,10.6,1.5,10.6,1.5L16.4,170.8z"/>
	<path class="st6" d="M34.4,172.5c0,0-15,0.3-20.5-2.5s1.7-12.9,7.3-15.6c2.3-1.1,6.9-0.9,10.3,1.1
		C36.6,158.4,39.8,164.9,34.4,172.5z"/>
	<path class="st6" d="M39,149c0,0,0.8,8.9-1.1,15.6s-9.8-2.3-9.8-2.3s2-15.6,5.6-16.9S38.8,142.8,39,149z"/>
	<path class="st6" d="M20,160.7c0,0-12.8-6.3-14-12.9c-0.9-4.9,6.2-1.9,10.1,2.2c3.1,3.3,10.8,4.6,10.8,4.6L20,160.7z"/>
	<path class="st6" d="M14.1,165.8c0,0-12.8-6.3-14-12.9c-0.9-4.9,6.2-1.9,10.1,2.2c3.1,3.3,10.8,4.6,10.8,4.6L14.1,165.8z"/>
</g>
<g id="torso">
	<path class="st0" d="M209,132.2c-1.9,15.6-10.7,29.6-23.9,38.2c-4.6,3.1-10.2,4-15.6,2.7C169.6,173,194.2,127.9,209,132.2z"/>
	<path class="st4" d="M150.2,274c-5.1,1.6-11-0.5-14.9-1.7c-7.8-4.5-21.8-14.3-27.6-27.3c1.1-4.8,2.1-8.7,1.9-12.1
		c-1.1-19.1,71.8-18.7,73,0.4c0.2,3,2,7.5,3.6,12.2C180.6,263.3,149.1,266.9,150.2,274z"/>
	<path class="st4" d="M181.6,227.1c0,0-13.8,14.9-34.9,14.8s-36.8-15.2-36.8-15.2s-1.9-18.8-6.2-30.1c-5.6-14.6-5.6-39-5.6-39
		s-8.9-30.4-4-38.7c9.6-2.5,24.8-7.7,44.8-7.6s59.4,12,59.4,12l-13.2,34.7c0,0,0.1,26.7-1,38.9C183.1,208.9,181.6,227.1,181.6,227.1
		z"/>
	<path class="st2" d="M94.1,119c-3.1,0.9-13.7,4.2-9.7,15.5s13.7,23.2,13.7,23.2S91,134.8,94.1,119z"/>
	<path class="st7" d="M127.4,154c0,0-5.8,22.3,0,46.4c10.4,43.5,2.7,54.9,14.8,73"/>
	<path class="st8" d="M168.1,123.9c0.2,7.1-27.4,29.8-40.7,30.1c-13.9-8.6-6.5-24.9-6.6-32s8.9-9.8,22.2-10.1
		S167.9,116.9,168.1,123.9z"/>
	<path class="st2" d="M165.1,108.3c0,0-43.7,10.2-44.7,21c-0.7,8.8,1.8,17.5,7,24.7c0,0-14.1-5.1-18.2-14.7c-2.6-6.4-4.1-9.9,2-21
		c1.6-2.9,17.4-13.6,24.1-14.2C150.7,103,165.1,108.3,165.1,108.3z"/>
	<path class="st2" d="M108.4,241.9c0,0-9.4-0.5-9,9.5c0.5,11.5,35.6,27.1,39.3,22c-6.5-3.2-13.8-10.2-20.7-15.4
		c-4.7-3.5-9-9.5-10.3-13C108.1,243.3,108.4,241.9,108.4,241.9z"/>
	<path class="st2" d="M186.3,245.4c0,0,6.8-2.8,8.1,7.1c1.3,9.8-15.4,16-29.3,19.9c-8.9,2.5-16.8,5.3-18.1,3.6
		c-3.4-4.4,10.1-11.5,19.8-15.1C177.8,257,186.3,245.4,186.3,245.4z"/>
	<path class="st3" d="M182.7,233.3c0,0-10.1,13-35.6,12.8s-37.4-13.2-37.4-13.2l-0.5-8.4c0,0,11.6,13.1,37,13.2
		c25.6,0.1,36-12.8,36-12.8L182.7,233.3z"/>
	<path class="st6" d="M165.1,121.6c0,0-22,26.3-30.9,23.6c-3.5-1-9.9-14.7-13.6-20.9c-9.4-16-20-55.8-20-55.8l40.5-3.8
		c0,0-6.1,21.9,6.8,41.6C152.3,112.8,158.2,118,165.1,121.6z"/>
	<path class="st2" d="M153.2,112.8c0,0,11.3,7.8,4.9,16.5c-12.4,16.9-30.7,24.7-30.7,24.7s29.7-1.9,37.7-8.6s17.6-27.9,8.4-33.8
		c-6.4-4.1-19.3-3.8-23.2-2.1L153.2,112.8z"/>
</g>
<path id="r-arm" class="st8" d="M200.2,213.7c0,0,3.3,9,9.9,7.4s5.4-11.1,5.4-11.1s-7.2-58.8-16-73.8c-4.5-7.6-17.6-5.6-18.4,4.4
	C179.4,162.3,200.2,213.7,200.2,213.7z"/>
<path id="r-forearm" class="st8" d="M217.7,275.1l9.4-2.2c0,0-1.7-42.5-11.6-62.9c-1.7-3.5-14.9-0.6-15.4,3.4
	C198.2,230.4,217.7,275.1,217.7,275.1z"/>
<g id="r-hand">
	<path class="st8" d="M236.4,281c0,0,7.8,10.3,6.2,16.1c-1.2,4.4-5.8-0.9-7.3-5.9c-1.2-3.9-7-8.1-7-8.1L236.4,281z"/>
	<path class="st8" d="M224,267.9c0,0,11.5,9.7,13.8,15.4s-9.7,8.5-15.7,6.9c-2.4-0.7-5.8-3.8-7.1-7.6
		C213.1,277.1,214.9,270.2,224,267.9z"/>
	<path class="st8" d="M205.1,282.6c0,0,5.3-7.2,11.1-11s5.8,8.2,5.8,8.2s-11.8,10.4-15.4,9.1S201.1,287.3,205.1,282.6z"/>
	<path class="st8" d="M227,286.3c0,0,5.4,13.2,2,18.9c-2.6,4.3-6-2.6-6.1-8.3c-0.1-4.5-5.1-10.6-5.1-10.6L227,286.3z"/>
	<path class="st8" d="M234.9,286.3c0,0,5.4,13.2,2,18.9c-2.6,4.3-6-2.6-6.1-8.3c-0.1-4.5-5.1-10.6-5.1-10.6L234.9,286.3z"/>
</g>
<g id="shoulder">
	<path class="st4" d="M169.6,173c0,0-0.6-32.4,6.4-43.2s22.4-6.5,22.4-6.5L169.6,173z"/>
	<path class="st2" d="M198.4,123.3c4.6,1.2,16.7,7.6,7,13.4c-14.3,8.7-35.8,36.2-35.8,36.2s5.1-13.3,11.9-27.6
		C186.7,134.3,192.3,124.5,198.4,123.3z"/>
</g>
<g id="head">
	<path class="st8" d="M188.9,90.8c-1.6,6.1-6.2,15.7-13.7,18.2c-11.4,3.8-21.1,1-31.6-2.6c-8.8-3-18.1-9.4-26.1-10.2
		c-8.5-1-17.1-0.9-25.7,0.3c-10.3,1.6-20.9,2.7-32-1.1C53.4,93.3,47.6,83.2,46,76.8c-8.3-33.6,16.3-56.1,43.7-58.8
		c9.7-1,19.6-1.4,27.8-0.6s18.1,3.2,27.8,6.1C172.6,31.6,198.9,53.9,188.9,90.8z"/>
	<path class="st8" d="M171.9,77.6c0,16.2-32.6-8.1-54.5-10.3S77.9,50.2,77.9,34s55.2-41.5,85.8-31.9
		C205.5,15.2,171.9,61.3,171.9,77.6z"/>
	<path class="st6" d="M91,45.2c0,0-2.8-6.5-9.9-6.8s-17.5,9.9-14.5,22.3c0,0-0.9-8.8,9-16.1S91,45.2,91,45.2z"/>
	<g>
		<defs>
			<path id="SVGID_1_" d="M91.3,64c-3.2,7.4-11,11.1-17.5,8.2s-9-11.3-5.8-18.7S81.1,39,87.5,42S94.6,56.6,91.3,64z"/>
		</defs>
		<clipPath id="SVGID_2_">
			<use xlink:href="#SVGID_1_"  style="overflow:visible;"/>
		</clipPath>
		<g class="st9">
			<polygon class="st10" points="85.8,79.6 59.6,67.3 75.1,32.8 101.3,45.1 			"/>
			<ellipse transform="matrix(0.258 -0.9662 0.9662 0.258 8.0319 123.5995)" class="st11" cx="84.5" cy="56.6" rx="11" ry="10.5"/>
			<path class="st12" d="M84.5,45.7c0.6,1.8,1,3.6,1.2,5.5c0.4,3.6,0.4,7.3,0,10.9c-0.2,1.9-0.6,3.7-1.2,5.5c-0.6-1.8-1-3.6-1.2-5.5
				c-0.2-1.8-0.3-3.6-0.3-5.5c0-1.8,0.1-3.6,0.3-5.5C83.5,49.3,83.9,47.4,84.5,45.7z"/>
			<ellipse transform="matrix(0.258 -0.9662 0.9662 0.258 8.0319 123.5995)" class="st12" cx="84.5" cy="56.6" rx="5.4" ry="5.2"/>
		</g>
	</g>
	<path class="st13" d="M73.8,72.2c-2.8-1.1-5.1-3.3-6.5-6c-0.7-1.4-1.1-2.9-1.3-4.4c-0.2-1.5-0.2-3.1,0-4.6c0.5-3.1,1.7-6,3.7-8.4
		c1.9-2.4,4.2-4.5,6.8-6.1c1.3-0.8,2.8-1.4,4.2-1.9c1.5-0.5,3.2-0.6,4.8-0.4c0.4,0.1,0.8,0.1,1.2,0.3l1.2,0.4l1.1,0.6
		c0.3,0.2,0.7,0.5,0.9,0.8c1.1,1.1,2,2.5,2.6,3.9c1,2.9,1.4,5.9,1.1,8.9c-0.2,3-1,5.9-2.3,8.6c1-2.8,1.4-5.7,1.4-8.6
		c0.1-2.9-0.5-5.7-1.6-8.3c-1.2-2.5-3.2-4.6-5.9-4.8c-2.7-0.2-5.4,0.6-7.7,2.1c-4.7,3-8.8,7.6-9.8,13.1c-0.6,2.8-0.4,5.6,0.6,8.3
		C69.4,68.4,71.3,70.7,73.8,72.2z"/>
	<path class="st6" d="M137.8,54.5c0,0,2.8-6.7,9.9-7.3s17.5,9,14.5,21.5c0,0,0.9-8.9-9-15.7S137.8,54.5,137.8,54.5z"/>
	<g>
		<defs>
			<path id="SVGID_3_" d="M137.5,73.3c3.2,7.2,11.1,10.5,17.5,7.3s9-11.7,5.8-19s-13.1-13.8-19.5-10.5S134.3,66.1,137.5,73.3z"/>
		</defs>
		<clipPath id="SVGID_4_">
			<use xlink:href="#SVGID_3_"  style="overflow:visible;"/>
		</clipPath>
		<g class="st14">
			<polygon class="st10" points="143.1,88.7 169.3,75.1 153.7,41.3 127.5,55 			"/>
			<ellipse transform="matrix(0.258 -0.9662 0.9662 0.258 48.8878 194.4627)" class="st11" cx="151" cy="65.4" rx="11" ry="10.5"/>
			<path class="st12" d="M151,54.5c0.6,1.8,1,3.6,1.2,5.5c0.4,3.6,0.4,7.3,0,10.9c-0.2,1.9-0.6,3.7-1.2,5.5c-0.6-1.8-1-3.6-1.2-5.5
				c-0.2-1.8-0.3-3.6-0.3-5.5c0-1.8,0.1-3.7,0.3-5.5C150,58.1,150.4,56.3,151,54.5z"/>
			<ellipse transform="matrix(0.258 -0.9662 0.9662 0.258 48.8878 194.4627)" class="st12" cx="151" cy="65.4" rx="5.4" ry="5.2"/>
		</g>
	</g>
	<path class="st13" d="M155,80.6c2.5-1.5,4.4-3.8,5.4-6.5c1-2.6,1.3-5.5,0.8-8.3c-0.9-5.5-5.1-10.1-9.9-12.8
		c-1.2-0.7-2.5-1.2-3.8-1.5c-1.3-0.3-2.7-0.4-4-0.2c-2.6,0.4-4.6,2.6-5.8,5.1c-1.1,2.6-1.6,5.5-1.6,8.3c0,2.9,0.5,5.8,1.4,8.6
		c-1.3-2.7-2.1-5.6-2.3-8.5c-0.3-3,0.1-6.1,1.1-8.9c0.6-1.5,1.4-2.8,2.5-4c1.1-1.2,2.6-2,4.2-2.3c1.6-0.4,3.2-0.4,4.8,0
		c1.5,0.4,3,1,4.4,1.8c2.7,1.5,5.1,3.5,7,5.9c1,1.2,1.8,2.6,2.4,4c1.3,2.8,1.7,6,1.2,9.1c-0.2,1.5-0.7,3-1.4,4.3
		c-0.7,1.4-1.6,2.6-2.7,3.7C157.6,79.3,156.4,80.1,155,80.6z"/>
	<path class="st6" d="M63.1,37.6c0,0,5.1-10.3,18.7-12.5S97,27.9,97,27.9l-2.5,5C94.4,32.9,83.1,26.9,63.1,37.6z"/>
	<path class="st6" d="M169.6,48.1c-3.9-7.6-10.6-13.3-18.7-16.1c-13.6-4.8-15.2-0.2-15.2-0.2l2.6,5.5
		C138.2,37.2,149.6,33.4,169.6,48.1z"/>
	<path class="st15" d="M133.8,94.7c-3,1.5-15.3-4.1-23.8-5c-8.7-0.9-22.3,2.5-24.2,0.3c-2.2-2.5-5-6-2.2-7.5
		c6.7-3.6,17.5-2.1,26.2-1.2s19.9,1.8,26.2,6.6C138.7,89.9,136.4,93.4,133.8,94.7z"/>
	<path class="st8" d="M126.3,92.6c-2.1,1.6-4.1,3.4-5.8,5.5c-2.3,2.8-4.5,5.8-6.5,8.9c-2.1,3.3-4.2,6.9-6.2,10.6s-4,7.6-5.9,11.5
		c-1,2-1.9,4-3,5.9s-2.1,4-3.2,6c-2.2,4-4.3,8.1-6.1,12.3c-1.7,4.2-3.1,8.5-4.2,12.9c-0.5,2.2-1,4.4-1.3,6.6
		c-0.3,2.2-0.5,4.4-0.4,6.6c0.3,6.5-4.7,11.9-11.2,12.2c-6.5,0.3-11.9-4.7-12.2-11.2c-0.1-1.4,0.1-2.7,0.5-4l0.1-0.4
		c0.8-2.5,1.3-4.7,1.8-7.1s0.9-4.7,1.3-7c0.7-4.7,1.2-9.5,1.6-14.3s0.4-9.8,0.7-14.7c0.2-5,0.8-9.9,1.8-14.8
		c1.9-10.1,4.7-20,8.3-29.7c2-5.3,4.5-10.4,7.3-15.3c3.3-5.8,7.5-11,12.3-15.5l1.4-1.3c9.4-8.6,24-8,32.6,1.5c8.6,9.4,8,24-1.5,32.7
		C128,91.3,127.2,92,126.3,92.6z"/>
	<path class="st8" d="M87.4,194.5c-3,3.2-12.9-2-17.2-2.7S54.8,193,53,189c-1.6-3.5,6.9-9.4,8-13c1.7-5.7,22.8-2.4,22.7,3.6
		C83.7,183.4,90,191.7,87.4,194.5z"/>
	<path class="st6" d="M89.7,65.5c1.1-2.2,2.8-4.1,4.8-5.4c2-1.4,4.4-2.3,6.8-2.7c4.9-0.8,10,0,14.3,2.3c2.2,1.1,4.2,2.7,5.8,4.5
		c1.6,1.9,2.9,4.1,3.6,6.4c0.7,2.3,1.1,4.8,1.1,7.2c0,2.4-0.3,4.8-0.9,7.2c0.3-2.4,0.5-4.8,0.4-7.2c-0.1-2.4-0.5-4.7-1.3-7
		c-0.8-2.2-2-4.3-3.6-6.1c-1.6-1.7-3.5-3.2-5.6-4.3c-4.2-2.3-9-3.2-13.7-2.5C96.6,58.7,92.3,61.4,89.7,65.5z"/>
	<path class="st6" d="M76.6,89c0.8-1.9,2.1-3.5,3.8-4.7c1.7-1.1,3.7-1.9,5.7-2.2c8.4-1.2,16.7,2.5,21.5,9.5c1.1,1.7,1.9,3.7,2.2,5.7
		c0.3,2,0,4.1-0.9,6c0.7-1.9,0.8-3.9,0.4-5.9c-0.4-1.9-1.2-3.8-2.4-5.4c-4.8-6.5-12.7-10-20.7-9.2c-2,0.2-3.9,0.9-5.6,1.9
		C79,85.8,77.6,87.2,76.6,89z"/>
	<path class="st6" d="M70.1,117.8c0.5-1.6,1.6-2.9,3-3.7c1.4-0.8,3-1.3,4.7-1.5c6.6-0.7,13.2,1.5,18,6.1c1.2,1.2,2.1,2.6,2.8,4.1
		c0.6,1.5,0.7,3.2,0.1,4.8c0.4-1.6,0.2-3.2-0.6-4.6c-0.7-1.4-1.7-2.7-2.8-3.7c-4.8-4.2-11-6.3-17.4-5.9c-1.6,0.1-3.1,0.5-4.5,1.2
		C72,115.2,70.8,116.4,70.1,117.8z"/>
</g>
</svg>
