<?xml version="1.0" encoding="utf-8"?>
<!-- Generator: Adobe Illustrator 25.2.0, SVG Export Plug-In . SVG Version: 6.00 Build 0)  -->
<svg version="1.1" id="Layer_1" xmlns="http://www.w3.org/2000/svg" xmlns:xlink="http://www.w3.org/1999/xlink" x="0px" y="0px"
	 viewBox="0 0 231.5 467.5" style="enable-background:new 0 0 231.5 467.5;" xml:space="preserve">
<style type="text/css">
	.st0{fill:#FFA400;}
	.st1{fill:#A1B200;}
	.st2{fill:#953DBA;}
	.st3{fill:#DAE78D;}
	.st4{fill:#FBFF43;}
	.st5{fill:#430B60;}
	.st6{fill:none;stroke:#A1B200;stroke-linecap:round;stroke-miterlimit:10;}
	.st7{fill:none;stroke:#953DBA;stroke-miterlimit:10;}
	.st8{fill:#ED6100;}
	.st9{clip-path:url(#SVGID_2_);}
	.st10{fill:#FFFFFF;}
	.st11{fill:#77185E;}
	.st12{fill:#130E19;}
	.st13{fill:#933B00;}
	.st14{clip-path:url(#SVGID_4_);}
	.st15{fill:#AF4700;}
</style>
<path id="l-arm" class="st0" d="M42.6,210.5c0,0-3.3,9-9.9,7.4s-5.4-11.1-5.4-11.1s7.2-58.8,16-73.8c4.5-7.6,17.6-5.6,18.4,4.4
	C63.5,159.1,42.6,210.5,42.6,210.5z"/>
<path id="l-forearm" class="st0" d="M25.2,272l-9.4-2.2c0,0,1.7-42.5,11.6-62.9c1.7-3.5,14.9-0.5,15.4,3.4
	C44.6,227.2,25.2,272,25.2,272z"/>
<g id="l-arm-2">
	<path class="st0" d="M6.4,277.9c0,0-7.8,10.3-6.2,16.1c1.2,4.4,5.8-0.9,7.3-5.9c1.2-3.9,7-8.1,7-8.1L6.4,277.9z"/>
	<path class="st0" d="M18.8,264.8c0,0-11.5,9.6-13.8,15.4s9.7,8.5,15.7,6.9c2.4-0.7,5.8-3.8,7.1-7.6C29.7,273.9,27.9,267,18.8,264.8
		z"/>
	<path class="st0" d="M37.7,279.4c0,0-5.3-7.2-11.1-11s-5.8,8.2-5.8,8.2s11.8,10.4,15.3,9.1S41.7,284.2,37.7,279.4z"/>
	<path class="st0" d="M15.8,283.1c0,0-5.4,13.2-2,18.9c2.6,4.3,6-2.6,6.1-8.3c0.1-4.5,5.1-10.6,5.1-10.6L15.8,283.1z"/>
	<path class="st0" d="M7.9,283.1c0,0-5.4,13.2-2,18.9c2.6,4.3,6-2.6,6.1-8.3c0.1-4.5,5.1-10.6,5.1-10.6L7.9,283.1z"/>
</g>
<g id="r-arm">
	<path class="st0" d="M155.1,210.5c0,0,3.3,9,9.9,7.4s5.4-11.1,5.4-11.1s-7.2-58.8-16-73.8c-4.5-7.6-17.6-5.6-18.4,4.4
		C134.2,159.1,155.1,210.5,155.1,210.5z"/>
</g>
<g id="r-calf">
	<path class="st1" d="M148.3,367c0,0-3.3-7.1-25.8-8c-17.4-0.7-18.8,2.9-18.8,2.9s10.9,30.9,20.2,31.4
		C140.3,394.2,148.3,367,148.3,367z"/>
	<path class="st2" d="M115.9,430.5l8.1,0.3l12.8-75.8c0,0-17.3-13.8-20.9-10.3C100.7,359.9,115.9,430.5,115.9,430.5z"/>
	<path class="st3" d="M103.7,362l0.4,19.6l1.2,55.6c0,0,20,13,30.5-6.3l9-46.2l3.4-17.6c-1.9,6.5-15.4,7.8-29.1,5.1
		C106.3,369.7,103.7,362,103.7,362z"/>
	<path class="st3" d="M135.9,430.8c0,0,2.9,5.6,10.5,12.3s18.6,5,18.6,11s0.5,8.3-3.9,10.3s-25,4.3-32.6,2.3c-7.6-2-5.3-6-14.9-5.6
		s-9.8-4.6-9.8-4.6c-0.5-8.7,0.7-17.4,3.5-25.5C112,417.5,135.9,430.8,135.9,430.8z"/>
	<path class="st4" d="M103.7,362l0.4,19.6c3.3,3,9,6.4,18.4,7.6c12,1.5,19-2,22.3-4.5l3.4-17.6c-1.9,6.5-15.4,7.8-29.1,5.1
		C106.3,369.7,103.7,362,103.7,362z"/>
	<path class="st5" d="M103.7,449.2c0,0,0.2,5,9.8,4.6s7.3,3.6,14.9,5.6s28.2-0.3,32.6-2.3c2.5-1.1,3.4-2.3,3.7-4.2
		c0.1,0.4,0.2,0.8,0.2,1.1c0,6,0.5,8.3-3.9,10.3s-25,4.3-32.6,2.3c-7.6-2-5.3-6-14.9-5.6s-9.8-4.6-9.8-4.6c-0.2-2.5-0.2-5,0-7.6
		V449.2z"/>
	<line class="st6" x1="113.2" y1="386.9" x2="110.4" y2="433.4"/>
	<path class="st6" d="M135.9,430.8c0,0-16.6,9.2-30.7,0"/>
</g>
<g id="r-thigh">
	<path class="st2" d="M115.9,345.6c0,0,8.2,12.1,13.2,13.4c8.4,2.1,11.1-13.4,11.1-13.4s7.1-55.8,1-93.8
		c-1.6-9.5-9.4-21.9-19.9-21.5c-9.5,0.4-16.9,8.4-16.5,17.9c0,0.1,0,0.3,0,0.4C106.4,272.8,115.9,345.6,115.9,345.6z"/>
	<path class="st5" d="M126.3,348.6c0.6,1.5,1.1,2.9,1.7,4.3c0.2,0.6,0.5,1.1,0.9,1.6c0.4,0.3,0.9,0.5,1.4,0.5c0.6,0,1.3-0.1,1.9-0.3
		c0.7-0.2,1.3-0.4,1.9-0.7c1.3-0.7,2.6-1.6,3.7-2.6c-0.5,1.6-1.5,3-2.8,4c-0.7,0.5-1.4,1-2.2,1.3c-0.8,0.3-1.8,0.5-2.7,0.5
		c-0.5,0-1-0.1-1.5-0.4c-0.5-0.2-0.9-0.6-1.3-1c-0.5-0.7-0.9-1.6-1-2.5C126.1,351.8,126.1,350.2,126.3,348.6z"/>
</g>
<g id="l-calf">
	<path class="st1" d="M49.4,367c0,0,3.3-7.1,25.8-8c17.4-0.7,18.8,2.9,18.8,2.9s-10.9,30.9-20.2,31.5C57.4,394.2,49.4,367,49.4,367z
		"/>
	<path class="st2" d="M81.8,430.5l-8.1,0.3L61,355c0,0,17.3-13.8,20.9-10.3C97,359.9,81.8,430.5,81.8,430.5z"/>
	<path class="st3" d="M93.9,362l-0.4,19.6l-1.2,55.6c0,0-20,13-30.5-6.3l-9-46.2L49.4,367c1.9,6.5,15.4,7.8,29.1,5.1
		C91.4,369.7,93.9,362,93.9,362z"/>
	<path class="st3" d="M61.8,430.8c0,0-2.9,5.6-10.5,12.3s-18.6,5-18.6,11s-0.6,8.3,3.8,10.3s25,4.3,32.6,2.3s5.3-6,14.9-5.6
		s9.8-4.6,9.8-4.6c0.5-8.7-0.7-17.4-3.5-25.5C85.7,417.5,61.8,430.8,61.8,430.8z"/>
	<path class="st4" d="M93.9,362l-0.4,19.6c-3.3,3-9,6.4-18.4,7.6c-12,1.5-19-2-22.3-4.5L49.4,367c1.9,6.5,15.4,7.8,29.1,5.1
		C91.4,369.7,93.9,362,93.9,362z"/>
	<path class="st5" d="M93.9,449.2c0,0-0.2,5-9.8,4.6s-7.3,3.6-14.9,5.6s-28.2-0.3-32.6-2.3c-2.5-1.1-3.4-2.3-3.7-4.2
		c-0.1,0.4-0.2,0.8-0.2,1.1c0,6-0.5,8.3,3.9,10.3s25,4.3,32.6,2.3s5.3-6,14.9-5.6s9.8-4.6,9.8-4.6c0.2-2.5,0.2-5,0-7.6
		C93.9,448.9,93.9,449.1,93.9,449.2z"/>
	<line class="st6" x1="84.5" y1="386.9" x2="87.3" y2="433.4"/>
	<path class="st6" d="M61.8,430.8c0,0,16.6,9.2,30.7,0"/>
</g>
<g id="l-thigh">
	<path class="st2" d="M81.7,345.6c0,0-8.2,12.1-13.2,13.4c-8.3,2.1-11.1-13.4-11.1-13.4s-7.2-55.8-0.9-93.8
		c1.6-9.5,9.4-21.9,19.9-21.5c9.5,0.4,16.9,8.4,16.5,17.8c0,0.1,0,0.3,0,0.4C91.3,272.8,81.7,345.6,81.7,345.6z"/>
	<path class="st5" d="M71.4,348.6c0.3,1.6,0.2,3.2-0.1,4.8c-0.1,0.9-0.4,1.8-1,2.5c-0.3,0.4-0.8,0.8-1.3,1c-0.5,0.2-1,0.3-1.5,0.4
		c-0.9,0-1.8-0.1-2.7-0.5c-0.8-0.3-1.6-0.7-2.2-1.3c-1.3-1-2.3-2.4-2.8-4c1.1,1,2.4,1.9,3.7,2.6c0.6,0.3,1.3,0.6,1.9,0.7
		c0.6,0.2,1.3,0.3,1.9,0.3c0.5,0,1-0.2,1.4-0.5c0.4-0.5,0.8-1,1-1.6C70.2,351.5,70.7,350.1,71.4,348.6z"/>
</g>
<g id="torso">
	<path class="st5" d="M106.8,273.4c-5.1,1.4-10.5,1.4-15.6,0c-2.4-5.4-27.9-14.7-33.2-27.8c1.5-4.8,2.8-8.7,2.8-12.2
		c0-19.1,76.5-19.1,76.5,0c0,3,1.6,7.5,3,12.2C133.4,263.6,109,267.9,106.8,273.4z"/>
	<path class="st5" d="M136.4,227.2c0,0-15.3,15-37.5,15s-37.6-15-37.6-15s-2.7-18.3-4.6-30.1c-1.9-12.3-3.4-39-3.4-39l-16-34.9
		c0,0,40.7-11.7,61.7-11.7s61.6,11.7,61.6,11.7l-16,34.9c0,0-1.5,26.8-3.4,39C139.1,209,136.4,227.2,136.4,227.2z"/>
	<path class="st3" d="M37.2,123.2c0,0-11.7,2.2-5.1,12s21.1,22.9,21.1,22.9L37.2,123.2z"/>
	<path class="st3" d="M160.5,123.2c0,0,11.7,2.2,5.1,12s-21.1,22.9-21.1,22.9L160.5,123.2z"/>
	<line class="st7" x1="98.8" y1="154.4" x2="98.8" y2="274.4"/>
	<path class="st8" d="M127.6,129.2c1.4,9.4-28.8,25.1-28.8,25.1s-30.1-15.7-28.7-25.1c0.8-5.3,9-11,9.7-19.2
		c0.9-12.3-1.3-43.4-1.3-43.4h40.7c0,0-2.2,31.2-1.3,43.5C118.6,118.3,126.8,123.9,127.6,129.2z"/>
	<path class="st3" d="M78.8,113.6c0,0-5.4,3.9-2.2,14.3s22.3,30.2,22.3,30.2s-30.7-18-36.2-26.9c0,0-3.8-9.7,5.4-15.6
		S78.8,113.6,78.8,113.6z"/>
	<path class="st3" d="M118.9,113.6c0,0,5.4,3.9,2.2,14.3s-22.3,30.2-22.3,30.2s30.7-18,36.2-26.9c0,0,3.8-9.7-5.4-15.6
		S118.9,113.6,118.9,113.6z"/>
	<path class="st3" d="M58.1,245.6c0,0-7.9-2.9-8,7.1c-0.2,11.5,40.3,28.1,43.4,23.9s-10.8-10.1-17.8-15.3
		C69.5,256.3,63.6,251.1,58.1,245.6z"/>
	<path class="st3" d="M140.3,245.6c0,0,7.9-2.9,8,7.1c0.1,11.5-40.3,28.1-43.5,23.9s10.7-10.1,17.7-15.3
		C128.7,256.3,134.6,251.1,140.3,245.6z"/>
	<path class="st4" d="M137.3,233.4c0,0-11.4,13-38.1,13s-38.4-13-38.4-13V225c0,0,11.3,13,38,13c26.9,0,38.5-13,38.5-13L137.3,233.4
		z"/>
</g>
<path id="r-forearm" class="st0" d="M199.1,160.1l7.3,6.3c0,0-21,37-39.1,50.5c-3.1,2.4-13.5-6.4-12.1-10
	C161.4,191,199.1,160.1,199.1,160.1z"/>
<g id="r-hand">
	<path class="st0" d="M218.5,163.5c0,0,11.7-5.5,12.9-11.5c0.9-4.5-5.6-1.9-9.2,1.9c-2.8,2.9-9.9,4-9.9,4L218.5,163.5z"/>
	<path class="st0" d="M201.4,169.4c0,0,14.6-3.3,19.3-7.4s-4.7-12.1-10.8-13.3c-2.5-0.5-6.9,0.8-9.8,3.5
		C196,156.3,194.4,163.3,201.4,169.4z"/>
	<path class="st0" d="M191.4,147.7c0,0,1.4,8.9,4.8,14.9s8.9-4.6,8.9-4.6s-5.7-14.6-9.5-15.1S190,141.7,191.4,147.7z"/>
	<path class="st0" d="M212.6,154.5c0,0,10.9-9.2,10.5-15.9c-0.3-5-6.5-0.4-9.3,4.6c-2.2,3.9-9.4,7-9.4,7L212.6,154.5z"/>
	<path class="st0" d="M219.6,158.1c0,0,10.9-9.2,10.5-15.9c-0.3-5-6.5-0.4-9.3,4.6c-2.2,3.9-9.4,7-9.4,7L219.6,158.1z"/>
</g>
<g id="head">
	<path class="st0" d="M181.5,80.6c-1.5,6.3-7,15.6-15.9,17.3c-12.6,2.5-25.2,0.2-37.3-2.3c-10.1-2.1-19.9-4.5-29.2-4.5
		c-9.4,0-19.3,2.6-29.6,4.8c-11.8,2.6-24.2,4.7-36.9,2.1c-7.4-1.6-14.1-11.1-15.9-17.3C7,47.9,35.5,23,67,17.5
		c11.2-1.9,22.6-3.3,32-3.3s20.9,1.4,32,3.3C162.6,23,189.7,45.2,181.5,80.6z"/>
	<path class="st0" d="M144.7,34.7c0,16.2-20.4,29.4-45.6,29.4S53.4,51,53.4,34.7S80.4,0,99,0S144.7,18.5,144.7,34.7z"/>
	<path class="st8" d="M71.1,43.7c0,0-2.9-6.6-10.3-7.1s-18.3,9.5-15.1,21.9c0,0-0.9-8.9,9.3-15.9S71.1,43.7,71.1,43.7z"/>
	<g>
		<defs>
			<path id="SVGID_1_" d="M71.5,62.6c-3.4,7.3-11.5,10.8-18.2,7.7c-6.7-3.1-9.4-11.5-6-18.8s13.6-14.2,20.3-11S74.8,55.3,71.5,62.6z
				"/>
		</defs>
		<clipPath id="SVGID_2_">
			<use xlink:href="#SVGID_1_"  style="overflow:visible;"/>
		</clipPath>
		<g class="st9">
			
				<rect x="41.2" y="39.4" transform="matrix(0.4294 -0.9031 0.9031 0.4294 -14.9074 85.389)" class="st10" width="37.8" height="30.2"/>
			<circle class="st11" cx="64.3" cy="55" r="10.9"/>
			<path class="st12" d="M64.3,44c0.6,1.8,1,3.6,1.2,5.5c0.5,3.6,0.5,7.3,0,10.9c-0.2,1.9-0.6,3.7-1.2,5.5c-0.6-1.8-1-3.6-1.2-5.5
				c-0.5-3.6-0.5-7.3,0-10.9C63.3,47.6,63.7,45.8,64.3,44z"/>
			<circle class="st12" cx="64.3" cy="55" r="5.4"/>
		</g>
	</g>
	<path class="st13" d="M53.3,70.3c-2.9-1.1-5.3-3.2-6.7-6c-0.7-1.4-1.2-2.9-1.4-4.4c-0.2-1.6-0.2-3.1,0-4.7c0.5-3.1,1.9-6,3.9-8.4
		c2-2.4,4.4-4.4,7.2-5.9c2.8-1.7,6-2.4,9.2-2c1.6,0.2,3.2,1,4.4,2.1c1.2,1.1,2.1,2.4,2.8,3.9c0.6,1.5,1,3,1.2,4.5
		c0.2,1.5,0.2,3,0.1,4.6c-0.2,3-1,6-2.4,8.7c1-2.8,1.5-5.7,1.5-8.7c0.1-2.9-0.5-5.8-1.7-8.4c-0.6-1.3-1.4-2.4-2.5-3.3
		c-1-0.9-2.3-1.4-3.6-1.6c-2.8-0.2-5.6,0.5-8,1.9c-4.9,2.8-9.2,7.3-10.3,12.9c-0.6,2.8-0.3,5.7,0.7,8.4
		C48.6,66.6,50.7,68.9,53.3,70.3z"/>
	<path class="st8" d="M126.9,43.7c0,0,2.9-6.6,10.3-7.1s18.3,9.4,15.1,21.9c0,0,0.9-8.9-9.3-15.9S126.9,43.7,126.9,43.7z"/>
	<g>
		<defs>
			<path id="SVGID_3_" d="M126.6,62.6c3.4,7.3,11.5,10.8,18.2,7.7c6.7-3.1,9.4-11.5,6.1-18.8s-13.6-14.2-20.3-11
				C123.9,43.6,123.3,55.3,126.6,62.6z"/>
		</defs>
		<clipPath id="SVGID_4_">
			<use xlink:href="#SVGID_3_"  style="overflow:visible;"/>
		</clipPath>
		<g class="st14">
			
				<rect x="122.8" y="35.6" transform="matrix(0.9031 -0.4294 0.4294 0.9031 -10.0398 64.5181)" class="st10" width="30.2" height="37.8"/>
			<circle class="st11" cx="140.7" cy="55" r="10.9"/>
			<path class="st12" d="M140.7,44c0.6,1.8,1,3.6,1.2,5.5c0.5,3.6,0.5,7.3,0,10.9c-0.2,1.9-0.6,3.7-1.2,5.5c-0.6-1.8-1-3.6-1.2-5.5
				c-0.2-1.8-0.3-3.6-0.3-5.5c0-1.8,0.1-3.6,0.3-5.5C139.7,47.6,140.1,45.8,140.7,44z"/>
			<circle class="st12" cx="140.7" cy="55" r="5.4"/>
		</g>
	</g>
	<path class="st13" d="M144.8,70.3c2.6-1.4,4.6-3.7,5.7-6.5c1.1-2.7,1.3-5.6,0.8-8.4c-1.1-5.6-5.4-10.1-10.3-12.9
		c-2.4-1.4-5.2-2.1-8-1.9c-1.3,0.2-2.6,0.7-3.6,1.6c-1.1,0.9-1.9,2-2.5,3.2c-1.2,2.6-1.8,5.5-1.7,8.4c0,3,0.5,5.9,1.5,8.7
		c-1.4-2.7-2.2-5.6-2.4-8.7c-0.1-1.5-0.1-3.1,0.1-4.6c0.2-1.5,0.6-3.1,1.2-4.5c0.6-1.5,1.5-2.8,2.8-3.9c1.2-1.1,2.8-1.8,4.4-2.1
		c3.2-0.4,6.4,0.3,9.2,2c2.7,1.5,5.2,3.5,7.1,5.9c2,2.4,3.4,5.3,3.9,8.4c0.2,1.6,0.2,3.1,0,4.7c-0.3,1.5-0.7,3-1.4,4.4
		C150,67.1,147.7,69.2,144.8,70.3z"/>
	<path class="st8" d="M37.4,39.7c0,0,5.9-10.8,21.6-14.3s17.5,1.3,17.5,1.3l-2.9,5.2C73.6,31.8,60.6,27,37.4,39.7z"/>
	<path class="st8" d="M160.3,39.7c0,0-5.8-10.8-21.5-14.3s-17.5,1.3-17.5,1.3l2.9,5.2C124.1,31.8,137.1,27,160.3,39.7z"/>
	<path class="st15" d="M125,89c-3.2,1.8-16.7-2.5-26-2.5c-9.4,0-24.3,4.8-26.4,2.8c-2.4-2.3-5.4-5.5-2.4-7.2
		c7.3-4.3,19.1-3.9,28.6-3.9s21.7-0.3,28.6,3.9C130.3,83.7,127.8,87.4,125,89z"/>
	<path class="st0" d="M121.9,50.9c-0.4,9.9-1.2,19.7-2.1,29.6c-0.4,4.9-1,9.9-1.5,14.8l-1.7,14.8c-0.6,4.9-1.5,9.9-2.5,14.8
		s-2.1,9.9-2.9,14.8c-0.8,4.9-1.2,9.8-1.4,14.8c-0.3,4.9-0.1,9.9,0.6,14.8c1,6.4-3.4,12.3-9.7,13.3s-12.3-3.4-13.3-9.7
		c-0.2-1.2-0.2-2.4,0-3.5c0.7-4.9,0.9-9.9,0.6-14.8c-0.2-5-0.7-9.9-1.4-14.8c-0.8-4.9-1.8-9.9-2.9-14.8s-1.9-9.9-2.5-14.8l-1.7-14.8
		c-0.5-4.9-1-9.9-1.5-14.8c-0.9-9.9-1.7-19.7-2.1-29.6c-0.6-12.7,9.3-23.4,22-24c12.7-0.6,23.4,9.3,24,22l0,0
		C121.9,49.6,121.9,50.3,121.9,50.9z"/>
	<path class="st0" d="M116.2,183.4c-2.4,3.6-13,0-17.4,0s-15,3.6-17.4,0c-2.1-3.2,5.4-10.4,5.9-14.1c0.8-5.9,22.1-6,23,0
		C110.9,173,118.4,180.2,116.2,183.4z"/>
	<path class="st8" d="M78.8,65.2c-0.1-2.5,0.5-4.9,1.6-7.2c1.2-2.2,2.8-4.2,4.7-5.7c8.2-6.3,19.6-6.3,27.9,0c2,1.5,3.6,3.5,4.8,5.7
		c1.1,2.2,1.7,4.7,1.6,7.2c-0.3-4.9-2.8-9.4-6.8-12.3c-8-5.8-18.9-5.8-26.9,0C81.6,55.8,79.1,60.3,78.8,65.2z"/>
	<path class="st8" d="M81.3,84.6c-0.1-2.1,0.5-4.1,1.6-5.8c1.1-1.7,2.6-3.2,4.4-4.3c7.2-4.5,16.3-4.5,23.5,0
		c1.7,1.1,3.2,2.6,4.4,4.3c1.1,1.7,1.7,3.8,1.6,5.8c-0.1-2-0.8-3.9-2-5.6c-1.2-1.6-2.6-3-4.4-4c-7-4-15.6-4-22.7,0
		c-1.7,1-3.2,2.4-4.4,4C82.2,80.7,81.5,82.6,81.3,84.6z"/>
	<path class="st8" d="M83.9,103.8c0-1.7,0.6-3.3,1.6-4.5c1.1-1.2,2.4-2.3,3.9-3c6-2.8,13-2.8,19.1,0c1.5,0.7,2.8,1.8,3.9,3
		c1.1,1.2,1.7,2.9,1.6,4.5c-0.2-1.6-0.9-3.1-2-4.2c-1.1-1.1-2.4-2-3.9-2.6c-5.9-2.4-12.5-2.4-18.4,0c-1.4,0.6-2.8,1.5-3.9,2.6
		C84.8,100.7,84.1,102.2,83.9,103.8z"/>
</g>
</svg>
