<?xml version="1.0" encoding="utf-8"?>
<!-- Generator: Adobe Illustrator 25.2.0, SVG Export Plug-In . SVG Version: 6.00 Build 0)  -->
<svg version="1.1" id="Layer_1" xmlns="http://www.w3.org/2000/svg" xmlns:xlink="http://www.w3.org/1999/xlink" x="0px" y="0px"
	 viewBox="0 0 198.5 471.4" style="enable-background:new 0 0 198.5 471.4;" xml:space="preserve">
<style type="text/css">
	.st0{fill:#A1B200;}
	.st1{fill:#953DBA;}
	.st2{fill:#DAE78D;}
	.st3{fill:#FBFF43;}
	.st4{fill:none;stroke:#A1B200;stroke-linecap:round;stroke-miterlimit:10;}
	.st5{fill:#430B60;}
	.st6{fill:#ED6100;}
	.st7{fill:none;stroke:#953DBA;stroke-linecap:round;stroke-miterlimit:10;}
	.st8{fill:#FFA400;}
	.st9{clip-path:url(#SVGID_2_);}
	.st10{fill:#FFFFFF;}
	.st11{fill:#77185E;}
	.st12{fill:#130E19;}
	.st13{fill:#933B00;}
	.st14{clip-path:url(#SVGID_4_);}
	.st15{fill:#AF4700;}
</style>
<g id="r-calf">
	<path class="st0" d="M102.7,371c0,0,3.3-7.1,25.8-8c17.4-0.7,18.8,2.9,18.8,2.9s-10.9,30.9-20.2,31.4
		C110.7,398.2,102.7,371,102.7,371z"/>
	<path class="st1" d="M135.1,434.4l-8,0.3L114.3,359c0,0,17.3-13.8,20.8-10.3C150.3,363.9,135.1,434.4,135.1,434.4z"/>
	<path class="st2" d="M147.2,365.9l-0.4,19.6l-1.2,55.6c0,0-20,13-30.5-6.3l-9-46.2l-3.3-17.6c1.9,6.5,15.4,7.8,29.1,5.1
		C144.7,373.6,147.2,365.9,147.2,365.9z"/>
	<path class="st2" d="M115.1,434.8c0,0-1.9,5.6-7.8,12.7c-6.5,7.8-12.8,4.5-12.8,10.5s-0.5,8.3,3.9,10.3c4.4,2,26.6,4.3,34.3,2.3
		s14.6-10.3,14.6-10.3c0.5-8.7-0.6-17.4-3.5-25.5C139,421.4,115.1,434.8,115.1,434.8z"/>
	<path class="st3" d="M147.2,365.9l-0.4,19.6c-3.3,3-9,6.4-18.4,7.6c-12,1.5-19-2-22.3-4.5l-3.4-17.6c1.9,6.5,15.4,7.8,29.1,5.1
		C144.7,373.6,147.2,365.9,147.2,365.9z"/>
	<line class="st4" x1="137.8" y1="390.9" x2="140.6" y2="437.3"/>
	<path class="st4" d="M115.1,434.8c0,0,16.6,9.2,30.7,0"/>
	<path class="st5" d="M147.2,460.3c0,0-7,8.3-14.6,10.3s-29.8-0.3-34.3-2.3s-3.9-4.3-3.9-10.3c0-0.4,0-0.8,0.1-1.2
		c0.3,2.1,1.2,3.4,3.8,4.5c4.4,2,26.6,4.3,34.3,2.3s14.6-10.3,14.6-10.3s0-0.2,0-0.5C147.4,455.4,147.4,457.8,147.2,460.3z"/>
</g>
<path id="l-arm" class="st6" d="M45.2,203.4c0,0-3.3,9-9.8,7.4S30,199.8,30,199.8s7.2-58.8,16-73.8c4.5-7.6,17.6-5.6,18.4,4.4
	C66.1,152,45.2,203.4,45.2,203.4z"/>
<path id="l-forearm" class="st6" d="M27.7,264.9l-9.4-2.2c0,0,1.7-42.5,11.6-62.9c1.7-3.5,14.9-0.5,15.4,3.4
	C47.2,220.1,27.7,264.9,27.7,264.9z"/>
<g id="l-hand">
	<path class="st6" d="M9,270.8c0,0-7.8,10.3-6.2,16.1c1.2,4.4,5.8-0.9,7.3-5.9c1.2-3.9,7-8.1,7-8.1L9,270.8z"/>
	<path class="st6" d="M21.5,257.7c0,0-11.5,9.7-13.8,15.4s9.8,8.5,15.7,6.9c2.4-0.7,5.8-3.8,7.1-7.6
		C32.4,266.8,30.5,259.9,21.5,257.7z"/>
	<path class="st6" d="M40.4,272.4c0,0-5.3-7.3-11.1-11s-5.8,8.2-5.8,8.2s11.8,10.4,15.3,9.1S44.3,277.1,40.4,272.4z"/>
	<path class="st6" d="M18.4,276.1c0,0-5.4,13.2-2,18.9c2.6,4.3,6-2.6,6.1-8.3c0.1-4.5,5.1-10.6,5.1-10.6L18.4,276.1z"/>
	<path class="st6" d="M10.5,276.1c0,0-5.4,13.2-2,18.9c2.6,4.3,6-2.6,6.1-8.3c0.1-4.5,5.1-10.6,5.1-10.6L10.5,276.1z"/>
</g>
<g id="l-calf">
	<path class="st0" d="M35.7,370.5c0,0,2.5-7.4,24.7-10.8c17.2-2.6,19,0.8,19,0.8s-7.3,31.9-16.5,33.4
		C46.8,396.6,35.7,370.5,35.7,370.5z"/>
	<path class="st1" d="M75.1,429.9l-8,1.2l-21.3-73.9c0,0,15.6-15.7,19.6-12.5C82.2,358.1,75.1,429.9,75.1,429.9z"/>
	<path class="st2" d="M79.4,360.4l1.8,19.5l5.1,59.8c0,0-18.4,10.8-31-7.3l-14.2-44.8l-5.4-17.1c2.7,6.3,16.2,6,29.5,1.8
		C77.8,368.4,79.4,360.4,79.4,360.4z"/>
	<path class="st2" d="M55.2,430.8c0,0-2.9,5.6-10.5,12.3s-18.6,5-18.6,10.9s-0.5,8.3,3.9,10.3s25,4.3,32.6,2.4s5.3-6,14.9-5.6
		s9.8-4.6,9.8-4.6c0.6-8.7-0.6-17.3-3.5-25.5C79.2,417.5,55.2,430.8,55.2,430.8z"/>
	<path class="st3" d="M79.4,360.4l1.8,19.5c-3,3.4-8.2,7.4-17.4,9.6c-11.8,2.9-19.1,0.2-22.7-2l-5.4-17.1c2.7,6.3,16.2,6,29.5,1.8
		C77.8,368.4,79.4,360.4,79.4,360.4z"/>
	<path class="st5" d="M87.4,449.2c0,0-0.2,5-9.8,4.6s-7.3,3.6-14.9,5.6s-28.2-0.4-32.6-2.4c-2.5-1.1-3.4-2.3-3.7-4.2
		c-0.1,0.4-0.2,0.7-0.2,1.1c0,6-0.5,8.3,3.9,10.3s25,4.3,32.6,2.4s5.3-6,14.9-5.6s9.8-4.6,9.8-4.6c0.2-2.5,0.2-5,0-7.6
		C87.4,448.9,87.4,449.1,87.4,449.2z"/>
	<line class="st4" x1="72.9" y1="386.3" x2="81.1" y2="433.1"/>
	<path class="st4" d="M55.2,432.5c0,0,16.8,8.7,29.7-2"/>
</g>
<g id="l-thigh">
	<path class="st1" d="M65.9,348.5c0,0-10.6,10.1-15.8,10.2c-8.6,0.2-7.9-15.5-7.9-15.5s5.1-56,19.4-91.8c3.6-9,13.9-19.4,24-16.7
		c9.2,2.4,14.7,11.8,12.3,21c0,0.1-0.1,0.3-0.1,0.4C90.9,279.6,65.9,348.5,65.9,348.5z"/>
	<path class="st5" d="M45.7,354.1c1,1.2,2.3,2.1,3.8,2.7c0.6,0.3,1.3,0.5,1.9,0.5c0.2,0,0.4,0,0.6-0.2c0.2-0.1,0.4-0.3,0.6-0.5
		c0.4-0.6,0.8-1.2,1.2-1.8c0.4-0.7,0.7-1.4,1.1-2.1c0.7-1.4,1.3-2.9,1.9-4.5c0.3,1.7,0.3,3.4-0.2,5.1c-0.2,0.8-0.5,1.7-0.9,2.5
		c-0.4,0.8-0.8,1.6-1.4,2.3c-0.4,0.4-0.8,0.8-1.3,1c-0.6,0.3-1.2,0.4-1.8,0.3c-0.5-0.1-1-0.2-1.5-0.5c-0.4-0.2-0.8-0.4-1.2-0.7
		C47.1,357.3,46.1,355.8,45.7,354.1z"/>
</g>
<g id="r-thigh">
	<path class="st1" d="M135,349.5c0,0-8.2,12.1-13.2,13.4c-8.4,2.1-11.1-13.4-11.1-13.4s-7.1-55.8-0.9-93.8
		c1.6-9.5,9.4-21.9,19.9-21.5c9.6,0.4,16.7,20,16.1,29.6C144.2,288.1,135,349.5,135,349.5z"/>
	<path class="st5" d="M124.7,352.6c0.2,1.6,0.2,3.2-0.1,4.8c-0.1,0.9-0.5,1.8-1.1,2.5c-0.3,0.4-0.8,0.8-1.3,1
		c-0.5,0.2-1,0.3-1.5,0.3c-0.9,0-1.8-0.1-2.7-0.5c-0.8-0.3-1.6-0.7-2.2-1.3c-1.3-1-2.3-2.4-2.8-4c1.1,1,2.4,1.9,3.7,2.6
		c0.6,0.3,1.3,0.6,1.9,0.8c0.6,0.2,1.3,0.3,1.9,0.2c0.5,0,1-0.2,1.4-0.5c0.4-0.5,0.8-1,1-1.6C123.5,355.5,124,354.1,124.7,352.6z"/>
</g>
<g id="torso">
	<path class="st0" d="M164.7,132.2c-1.9,15.6-10.7,29.6-23.9,38.1c-4.6,3-10.2,4-15.5,2.7C125.2,173,149.8,127.9,164.7,132.2z"/>
	<path class="st5" d="M105.8,274c-5.1,1.7-11-0.5-14.9-1.7c-7.8-4.5-21.8-14.3-27.6-27.3c1.1-4.8,2.1-8.7,1.9-12.1
		c-1.1-19.1,71.8-18.7,73,0.4c0.2,3,2,7.5,3.6,12.2C136.3,263.4,104.7,266.9,105.8,274z"/>
	<path class="st5" d="M137.2,227.1c0,0-13.8,14.9-34.9,14.8s-36.8-15.2-36.8-15.2s-1.9-18.8-6.2-30.1c-5.6-14.6-5.6-39-5.6-39
		s-8.9-30.4-4-38.7c9.6-2.5,24.8-7.7,44.8-7.6s59.4,12,59.4,12l-13.2,34.7c0,0,0.2,26.7-1,38.9C138.7,208.9,137.2,227.1,137.2,227.1
		z"/>
	<path class="st2" d="M49.7,119c-3.1,0.9-13.7,4.2-9.7,15.5s13.7,23.2,13.7,23.2S46.7,134.8,49.7,119z"/>
	<path class="st7" d="M83.1,154c0,0-5.8,22.3,0,46.4c10.4,43.4,2.7,54.9,14.8,73"/>
	<path class="st8" d="M123.7,123.9c0.2,7.1-27.4,29.8-40.7,30.1c-13.9-8.6-6.5-24.9-6.7-32c-0.2-7.1,8.9-9.8,22.2-10.1
		S123.6,116.9,123.7,123.9z"/>
	<path class="st2" d="M120.7,108.3c0,0-43.7,10.2-44.7,21c-0.7,8.8,1.8,17.5,7,24.7c0,0-14.2-5.1-18.2-14.7c-2.7-6.4-4.1-9.9,2-21
		c1.6-2.9,17.4-13.6,24-14.2C106.3,103,120.7,108.3,120.7,108.3z"/>
	<path class="st2" d="M64.1,241.9c0,0-9.4-0.5-9,9.5c0.5,11.5,35.6,27.1,39.3,22c-6.5-3.2-13.8-10.2-20.7-15.4
		c-4.7-3.5-9-9.5-10.3-13L64.1,241.9z"/>
	<path class="st2" d="M141.9,245.4c0,0,6.8-2.8,8.1,7.1c1.3,9.8-15.4,16-29.3,19.9c-8.9,2.5-16.8,5.3-18.1,3.6
		c-3.4-4.4,10.1-11.5,19.8-15.1C133.4,257,141.9,245.4,141.9,245.4z"/>
	<path class="st3" d="M138.4,233.2c0,0-10.1,13-35.6,12.9s-37.4-13.2-37.4-13.2l-0.5-8.4c0,0,11.6,13.1,37,13.2
		c25.6,0.1,36-12.8,36-12.8L138.4,233.2z"/>
	<path class="st6" d="M120.7,121.6c0,0-22,26.3-30.9,23.6c-3.5-1-9.9-14.7-13.6-20.9c-9.4-16-20-55.8-20-55.8l40.5-3.8
		c0,0-6.1,21.9,6.8,41.6C107.9,112.7,113.8,118,120.7,121.6z"/>
	<path class="st2" d="M108.8,112.8c0,0,11.3,7.8,4.9,16.5C101.4,146.2,83.1,154,83.1,154s29.7-1.9,37.7-8.6s17.5-27.9,8.4-33.8
		c-6.4-4.1-19.3-3.8-23.2-2.1L108.8,112.8z"/>
</g>
<path id="r-arm" class="st8" d="M155.8,213.7c0,0,3.3,9,9.9,7.4s5.4-11.1,5.4-11.1s-7.2-58.8-16-73.8c-4.5-7.6-17.6-5.6-18.4,4.4
	C135,162.3,155.8,213.7,155.8,213.7z"/>
<path id="r-forearm" class="st8" d="M173.3,275.1l9.4-2.2c0,0-1.7-42.5-11.6-62.9c-1.7-3.5-14.9-0.6-15.4,3.4
	C153.9,230.4,173.3,275.1,173.3,275.1z"/>
<g id="r-hand">
	<path class="st8" d="M192.1,281c0,0,7.8,10.3,6.2,16.1c-1.2,4.4-5.8-0.9-7.3-5.9c-1.2-3.9-7-8.1-7-8.1L192.1,281z"/>
	<path class="st8" d="M179.6,267.9c0,0,11.5,9.7,13.8,15.4s-9.8,8.5-15.7,6.9c-2.4-0.7-5.8-3.8-7.1-7.6
		C168.7,277,170.6,270.1,179.6,267.9z"/>
	<path class="st8" d="M160.7,282.6c0,0,5.3-7.2,11.1-11s5.8,8.2,5.8,8.2s-11.8,10.4-15.4,9.1S156.7,287.4,160.7,282.6z"/>
	<path class="st8" d="M182.7,286.3c0,0,5.4,13.2,2,18.9c-2.6,4.3-6-2.6-6.1-8.3c-0.1-4.5-5.1-10.6-5.1-10.6L182.7,286.3z"/>
	<path class="st8" d="M190.6,286.3c0,0,5.4,13.2,2,18.9c-2.6,4.3-6-2.6-6.1-8.3c-0.1-4.5-5.1-10.6-5.1-10.6L190.6,286.3z"/>
</g>
<g id="r-shoulder">
	<path class="st5" d="M125.2,173c0,0-0.7-32.4,6.4-43.2c7-10.7,22.4-6.5,22.4-6.5L125.2,173z"/>
	<path class="st2" d="M154,123.4c4.6,1.2,16.7,7.6,7,13.4c-14.3,8.6-35.8,36.2-35.8,36.2s5-13.3,11.9-27.6
		C142.4,134.3,147.9,124.4,154,123.4z"/>
</g>
<g id="head">
	<path class="st8" d="M144.6,90.8c-1.7,6.1-6.2,15.7-13.7,18.2c-11.4,3.8-21.2,1-31.6-2.6c-8.8-3-18.1-9.4-26.1-10.2
		c-8.5-1-17.1-0.9-25.7,0.2c-10.2,1.6-20.9,2.7-32-1.1C9,93.3,3.2,83.1,1.6,76.8C-6.7,43.2,18,20.7,45.3,17.9
		c9.7-1,19.6-1.4,27.8-0.6s18.1,3.2,27.8,6.1C128.2,31.5,154.6,53.9,144.6,90.8z"/>
	<path class="st8" d="M127.6,77.6c0,16.3-32.6-8.1-54.5-10.2S33.6,50.2,33.6,34S88.7-7.5,119.4,2.1
		C161.1,15.2,127.6,61.3,127.6,77.6z"/>
	<path class="st6" d="M46.7,45.2c0,0-2.8-6.5-9.9-6.8s-17.5,9.9-14.5,22.2c0,0-0.9-8.8,9-16.1S46.7,45.2,46.7,45.2z"/>
	<g>
		<defs>
			<path id="SVGID_1_" d="M47,64c-3.2,7.4-11,11.1-17.5,8.1s-9-11.3-5.8-18.7S36.7,39,43.2,42S50.2,56.6,47,64z"/>
		</defs>
		<clipPath id="SVGID_2_">
			<use xlink:href="#SVGID_1_"  style="overflow:visible;"/>
		</clipPath>
		<g class="st9">
			<polygon class="st10" points="41.4,79.6 15.2,67.3 30.8,32.8 57,45.1 			"/>
			<ellipse transform="matrix(0.258 -0.9662 0.9662 0.258 -24.8876 80.7462)" class="st11" cx="40.1" cy="56.6" rx="11" ry="10.5"/>
			<path class="st12" d="M40.1,45.6c0.6,1.8,1,3.6,1.2,5.5c0.2,1.8,0.3,3.6,0.3,5.5c0,1.8-0.1,3.7-0.3,5.5c-0.2,1.9-0.6,3.7-1.2,5.5
				c-0.6-1.8-1-3.6-1.2-5.5c-0.2-1.8-0.3-3.6-0.3-5.5c0-1.8,0.1-3.7,0.3-5.5C39.1,49.2,39.5,47.4,40.1,45.6z"/>
			<ellipse transform="matrix(0.258 -0.9662 0.9662 0.258 -24.8876 80.7462)" class="st12" cx="40.1" cy="56.6" rx="5.4" ry="5.2"/>
		</g>
	</g>
	<path class="st13" d="M29.5,72.2c-2.8-1.1-5.1-3.3-6.5-6c-0.6-1.4-1.1-2.9-1.3-4.4c-0.2-1.5-0.2-3.1,0-4.6c0.5-3.1,1.8-6,3.7-8.4
		c1.9-2.4,4.2-4.5,6.8-6.1c1.3-0.8,2.8-1.4,4.3-1.9c1.5-0.5,3.2-0.6,4.7-0.3c0.4,0.1,0.8,0.1,1.2,0.3c0.4,0.2,0.8,0.3,1.2,0.4
		l1.1,0.6c0.3,0.2,0.7,0.5,0.9,0.8c1.1,1.1,2,2.4,2.6,3.9c1.1,2.9,1.4,6,1.1,9c-0.2,3-1,5.9-2.3,8.6c1-2.8,1.4-5.7,1.4-8.7
		c0.1-2.9-0.5-5.7-1.6-8.3c-1.2-2.5-3.2-4.6-5.9-4.8c-2.8-0.1-5.5,0.6-7.8,2.2c-4.7,3-8.8,7.6-9.9,13.1c-0.6,2.8-0.4,5.6,0.6,8.3
		C25,68.5,26.9,70.8,29.5,72.2z"/>
	<path class="st6" d="M93.5,54.5c0,0,2.8-6.7,9.9-7.3c7.1-0.7,17.5,9,14.5,21.5c0,0,0.9-8.9-9-15.7S93.5,54.5,93.5,54.5z"/>
	<g>
		<defs>
			<path id="SVGID_3_" d="M93.2,73.4c3.2,7.2,11.1,10.5,17.5,7.3s9-11.7,5.8-19s-13.1-13.8-19.5-10.5S89.9,66.1,93.2,73.4z"/>
		</defs>
		<clipPath id="SVGID_4_">
			<use xlink:href="#SVGID_3_"  style="overflow:visible;"/>
		</clipPath>
		<g class="st14">
			<polygon class="st10" points="98.7,88.7 124.9,75.1 109.3,41.3 83.1,54.9 			"/>
			
				<ellipse transform="matrix(0.258 -0.9662 0.9662 0.258 15.9636 151.5983)" class="st11" cx="106.7" cy="65.4" rx="11" ry="10.5"/>
			<path class="st12" d="M106.7,54.5c0.6,1.8,1,3.6,1.2,5.5c0.2,1.8,0.3,3.6,0.3,5.5c0,1.8-0.1,3.7-0.3,5.5
				c-0.2,1.9-0.6,3.7-1.2,5.5c-0.6-1.8-1-3.6-1.2-5.5c-0.2-1.8-0.3-3.6-0.3-5.5c0-1.8,0.1-3.7,0.3-5.5
				C105.7,58.1,106.1,56.2,106.7,54.5z"/>
			
				<ellipse transform="matrix(0.258 -0.9662 0.9662 0.258 15.9636 151.5983)" class="st12" cx="106.7" cy="65.4" rx="5.4" ry="5.2"/>
		</g>
	</g>
	<path class="st13" d="M110.6,80.6c2.5-1.5,4.4-3.8,5.4-6.5c1-2.6,1.3-5.5,0.8-8.3c-1-5.5-5.1-10.1-9.9-12.8
		c-1.2-0.7-2.5-1.2-3.8-1.5c-1.3-0.3-2.7-0.4-4-0.1c-2.6,0.4-4.6,2.6-5.8,5.1c-1.1,2.6-1.6,5.5-1.6,8.3c0,2.9,0.5,5.8,1.4,8.6
		c-1.3-2.7-2.1-5.6-2.3-8.5c-0.3-3,0.1-6.1,1.1-8.9c0.6-1.5,1.4-2.8,2.5-4c1.1-1.2,2.6-2,4.2-2.3c1.6-0.4,3.2-0.4,4.8,0
		c1.5,0.4,3,1,4.3,1.7c2.7,1.5,5.1,3.5,7,5.9c1,1.2,1.8,2.5,2.4,3.9c0.6,1.4,1,2.9,1.3,4.5c0.2,1.5,0.2,3.1,0,4.6
		c-0.2,1.5-0.7,3-1.4,4.4c-0.7,1.4-1.6,2.6-2.7,3.7C113.3,79.2,112,80.1,110.6,80.6z"/>
	<path class="st6" d="M18.7,37.6c0,0,5.1-10.3,18.7-12.4s15.2,2.8,15.2,2.8l-2.6,5C50.1,32.9,38.7,26.9,18.7,37.6z"/>
	<path class="st6" d="M125.2,48.1c-3.9-7.6-10.6-13.3-18.7-16.1c-13.6-4.8-15.2-0.2-15.2-0.2l2.5,5.4
		C93.9,37.2,105.2,33.4,125.2,48.1z"/>
	<path class="st15" d="M89.5,94.7c-2.9,1.5-15.3-4.1-23.8-5S43.4,92.2,41.5,90c-2.2-2.5-5-6-2.2-7.5c6.7-3.6,17.5-2.1,26.2-1.2
		s19.9,1.8,26.2,6.6C94.4,89.9,92,93.4,89.5,94.7z"/>
	<path class="st8" d="M81.9,92.6c-2.2,1.6-4.1,3.4-5.8,5.5c-2.3,2.8-4.5,5.8-6.4,8.9c-2.1,3.3-4.2,6.9-6.2,10.6
		c-2,3.7-4,7.6-5.8,11.5c-1,2-1.9,4-3,5.9s-2.1,4-3.2,6c-2.2,4-4.3,8.1-6.1,12.3c-1.7,4.2-3.2,8.5-4.2,12.9c-0.5,2.2-1,4.4-1.3,6.6
		c-0.3,2.2-0.5,4.4-0.4,6.6c0.3,6.5-4.8,11.9-11.2,12.2c-6.5,0.3-11.9-4.8-12.2-11.2c-0.1-1.3,0.1-2.7,0.5-4l0.1-0.4
		c0.8-2.5,1.3-4.7,1.8-7.1s0.9-4.7,1.3-7c0.7-4.7,1.3-9.4,1.6-14.3s0.5-9.8,0.7-14.7c0.2-5,0.8-9.9,1.8-14.8
		c1.9-10.1,4.7-20,8.3-29.6c2-5.3,4.5-10.4,7.3-15.3c3.3-5.8,7.5-11,12.3-15.6l1.4-1.3c9.4-8.6,24-8,32.7,1.5s8,24-1.5,32.7
		C83.7,91.3,82.8,92,81.9,92.6z"/>
	<path class="st8" d="M43,194.5c-3,3.2-12.9-2.1-17.2-2.7s-15.4,1.2-17.2-2.8c-1.6-3.5,6.9-9.4,8.1-13c1.7-5.7,22.8-2.4,22.7,3.6
		C39.4,183.4,45.6,191.7,43,194.5z"/>
	<path class="st6" d="M45.3,65.5c1.1-2.2,2.7-4.1,4.8-5.4c2-1.4,4.4-2.3,6.8-2.8c4.9-0.8,9.9,0,14.3,2.4c2.2,1.1,4.2,2.7,5.8,4.5
		c1.6,1.9,2.9,4.1,3.6,6.4c0.7,2.3,1.1,4.8,1.1,7.2c0,2.4-0.3,4.8-0.8,7.2c0.3-2.4,0.5-4.8,0.3-7.2c-0.1-2.4-0.5-4.7-1.3-7
		c-0.8-2.2-2-4.3-3.6-6.1c-1.6-1.7-3.5-3.2-5.6-4.3c-4.2-2.3-9-3.2-13.7-2.5C52.2,58.7,47.9,61.4,45.3,65.5z"/>
	<path class="st6" d="M32.3,89c0.8-1.9,2.1-3.5,3.8-4.7c1.7-1.1,3.7-1.9,5.7-2.2c8.4-1.2,16.7,2.5,21.5,9.5c1.1,1.7,1.9,3.7,2.2,5.7
		c0.3,2,0,4.1-0.9,6c0.7-1.9,0.9-4,0.4-5.9c-0.4-1.9-1.2-3.8-2.4-5.4c-4.8-6.5-12.7-10-20.7-9.2c-2,0.2-3.9,0.9-5.6,1.9
		C34.6,85.7,33.2,87.2,32.3,89z"/>
	<path class="st6" d="M25.7,117.8c0.5-1.6,1.6-2.9,3-3.7c1.4-0.8,3-1.3,4.7-1.5c6.6-0.7,13.2,1.5,18,6.1c1.2,1.2,2.1,2.5,2.8,4.1
		c0.6,1.5,0.7,3.2,0.1,4.8c0.4-1.6,0.2-3.2-0.6-4.6c-0.7-1.4-1.7-2.7-2.8-3.7c-4.8-4.2-11.1-6.3-17.4-5.9c-1.6,0.1-3.1,0.5-4.5,1.2
		C27.5,115.2,26.4,116.4,25.7,117.8z"/>
</g>
</svg>
