<?xml version="1.0" encoding="utf-8"?>
<!-- Generator: Adobe Illustrator 25.2.0, SVG Export Plug-In . SVG Version: 6.00 Build 0)  -->
<svg version="1.1" id="Layer_1" xmlns="http://www.w3.org/2000/svg" xmlns:xlink="http://www.w3.org/1999/xlink" x="0px" y="0px"
	 viewBox="0 0 292.9 471.4" style="enable-background:new 0 0 292.9 471.4;" xml:space="preserve">
<style type="text/css">
	.st0{fill:#A1B200;}
	.st1{fill:#953DBA;}
	.st2{fill:#DAE78D;}
	.st3{fill:#FBFF43;}
	.st4{fill:#430B60;}
	.st5{fill:none;stroke:#A1B200;stroke-linecap:round;stroke-miterlimit:10;}
	.st6{fill:#ED6100;}
	.st7{fill:#FFA400;}
	.st8{fill:none;stroke:#953DBA;stroke-linecap:round;stroke-miterlimit:10;}
	.st9{clip-path:url(#SVGID_2_);}
	.st10{fill:#FFFFFF;}
	.st11{fill:#77185E;}
	.st12{fill:#130E19;}
	.st13{fill:#933B00;}
	.st14{clip-path:url(#SVGID_4_);}
	.st15{fill:#AF4700;}
</style>
<g id="l-calf">
	<path class="st0" d="M68.6,370.5c0,0,2.5-7.4,24.7-10.8c17.2-2.6,19,0.8,19,0.8s-7.3,31.9-16.5,33.4
		C79.7,396.6,68.6,370.5,68.6,370.5z"/>
	<path class="st1" d="M108,429.9l-8,1.2l-21.2-73.9c0,0,15.6-15.7,19.6-12.5C115.1,358.1,108,429.9,108,429.9z"/>
	<path class="st2" d="M112.3,360.4l1.8,19.5l5.1,59.8c0,0-18.4,10.8-31-7.3L74,387.6l-5.4-17.1c2.7,6.3,16.2,6,29.5,1.8
		C110.7,368.4,112.3,360.4,112.3,360.4z"/>
	<path class="st2" d="M88.1,430.8c0,0-2.9,5.6-10.5,12.3S59,448.1,59,454s-0.6,8.3,3.9,10.3s25,4.3,32.6,2.4s5.3-6,14.9-5.6
		s9.8-4.6,9.8-4.6c0.6-8.7-0.6-17.4-3.5-25.5C112,417.5,88.1,430.8,88.1,430.8z"/>
	<path class="st3" d="M112.3,360.4l1.8,19.5c-3,3.4-8.2,7.4-17.4,9.6c-11.8,2.9-19.1,0.2-22.7-2l-5.4-17.1c2.7,6.3,16.2,6,29.5,1.8
		C110.7,368.4,112.3,360.4,112.3,360.4z"/>
	<path class="st4" d="M120.3,449.2c0,0-0.2,5-9.8,4.6s-7.3,3.6-14.9,5.6c-7.6,2-28.2-0.3-32.6-2.3c-2.5-1.1-3.4-2.3-3.7-4.2
		c-0.1,0.4-0.2,0.7-0.2,1.1c0,6-0.6,8.3,3.9,10.3s25,4.3,32.6,2.4s5.3-6,14.9-5.6s9.8-4.6,9.8-4.6c0.2-2.5,0.2-5,0-7.6
		C120.3,449.1,120.3,449.2,120.3,449.2z"/>
	<line class="st5" x1="105.8" y1="386.3" x2="114" y2="433.1"/>
	<path class="st5" d="M88.1,432.5c0,0,16.8,8.7,29.7-2"/>
</g>
<g id="l-thigh">
	<path class="st1" d="M98.8,348.5c0,0-10.6,10.1-15.8,10.2c-8.6,0.2-7.9-15.5-7.9-15.5s5.1-56,19.4-91.8c3.6-9,13.9-19.4,24.1-16.7
		c9.2,2.4,14.6,11.8,12.2,21c0,0.1-0.1,0.2-0.1,0.4C123.8,279.5,98.8,348.5,98.8,348.5z"/>
	<path class="st4" d="M78.6,354c1,1.2,2.3,2.1,3.8,2.8c0.6,0.3,1.3,0.5,1.9,0.5c0.2,0,0.4-0.1,0.6-0.2c0.2-0.1,0.4-0.3,0.6-0.5
		c0.4-0.6,0.8-1.2,1.2-1.8c0.4-0.7,0.8-1.4,1.1-2.1c0.7-1.4,1.3-2.9,1.9-4.5c0.3,1.7,0.3,3.4-0.2,5.1c-0.2,0.8-0.5,1.7-0.8,2.5
		c-0.4,0.8-0.8,1.6-1.4,2.3c-0.4,0.4-0.8,0.8-1.3,1.1c-0.6,0.3-1.2,0.4-1.8,0.3c-0.5-0.1-1-0.2-1.5-0.5c-0.4-0.2-0.8-0.4-1.2-0.7
		C80,357.3,79,355.8,78.6,354z"/>
</g>
<g id="r-calf">
	<path class="st0" d="M135.6,371c0,0,3.3-7.1,25.8-8c17.4-0.7,18.8,2.9,18.8,2.9s-10.9,30.9-20.2,31.4
		C143.6,398.2,135.6,371,135.6,371z"/>
	<path class="st1" d="M168,434.4l-8.1,0.3L147.1,359c0,0,17.3-13.8,20.9-10.3C183.1,363.9,168,434.4,168,434.4z"/>
	<path class="st2" d="M180.1,365.9l-0.4,19.6l-1.2,55.6c0,0-20,13-30.5-6.3l-9-46.2l-3.4-17.6c1.9,6.5,15.4,7.8,29.1,5.1
		C177.6,373.6,180.1,365.9,180.1,365.9z"/>
	<path class="st2" d="M147.9,434.8c0,0-1.9,5.6-7.8,12.7c-6.5,7.8-12.8,4.5-12.8,10.5c0,6-0.5,8.3,3.9,10.3s26.6,4.3,34.2,2.3
		s14.6-10.3,14.6-10.3c0.5-8.7-0.7-17.4-3.5-25.5C171.9,421.5,147.9,434.8,147.9,434.8z"/>
	<path class="st3" d="M180.1,365.9l-0.4,19.6c-3.3,3-9,6.4-18.4,7.6c-12,1.5-19-2-22.3-4.5l-3.4-17.6c1.9,6.5,15.4,7.8,29.1,5.1
		C177.6,373.6,180.1,365.9,180.1,365.9z"/>
	<line class="st5" x1="170.7" y1="390.9" x2="173.5" y2="437.3"/>
	<path class="st5" d="M147.9,434.8c0,0,16.6,9.2,30.7,0"/>
	<path class="st4" d="M180.1,460.3c0,0-7,8.3-14.6,10.3s-29.8-0.3-34.3-2.3s-3.9-4.3-3.9-10.3c0-0.4,0-0.8,0.1-1.2
		c0.3,2.1,1.2,3.4,3.8,4.5c4.4,2,26.6,4.3,34.3,2.3s14.6-10.3,14.6-10.3s0-0.2,0-0.5C180.3,455.4,180.3,457.8,180.1,460.3z"/>
</g>
<g id="r-thigh">
	<path class="st1" d="M167.9,349.5c0,0-8.2,12.1-13.2,13.4c-8.4,2.1-11.1-13.4-11.1-13.4s-7.1-55.8-1-93.8
		c1.6-9.5,9.4-21.9,19.9-21.5c9.6,0.4,16.7,20,16.1,29.6C177.1,288.1,167.9,349.5,167.9,349.5z"/>
	<path class="st4" d="M157.5,352.6c0.3,1.6,0.2,3.2-0.1,4.8c-0.1,0.9-0.5,1.8-1.1,2.5c-0.3,0.4-0.8,0.8-1.3,1
		c-0.5,0.2-1,0.3-1.5,0.3c-0.9,0-1.8-0.1-2.7-0.5c-0.8-0.3-1.6-0.7-2.2-1.3c-1.3-1-2.3-2.4-2.8-4c1.1,1,2.4,1.9,3.7,2.6
		c0.6,0.3,1.3,0.6,1.9,0.8c0.6,0.2,1.3,0.3,1.9,0.2c0.5,0,1-0.2,1.4-0.5c0.4-0.5,0.8-1,1-1.6C156.4,355.5,156.9,354.1,157.5,352.6z"
		/>
</g>
<path id="l-arm" class="st6" d="M21.4,101.4c0,0-9.4-1.9-11.5,4.6s6.7,10.4,6.7,10.4s54.1,24.2,71.5,24.4c8.8,0.1,13.9-12.2,5.7-18
	C76.2,110.2,21.4,101.4,21.4,101.4z"/>
<path id="l-forearm" class="st6" d="M20.7,41.6L11,41.8c0,0-6.8,44.3-1.4,66.3c1,3.8,14.2,1.2,15.4-2.5
	C30.4,89.3,20.7,41.6,20.7,41.6z"/>
<g id="l-hand">
	<path class="st6" d="M3.5,31.9c0,0-5.5-11.7-2.7-17c2.1-4,5.5,2.1,5.9,7.2c0.3,4.1,5.1,9.3,5.1,9.3L3.5,31.9z"/>
	<path class="st6" d="M13,47.3c0,0-9.2-11.8-10.3-17.9S14,23,19.5,25.9c2.2,1.2,4.9,5,5.3,8.9C25.5,40.6,22.3,47,13,47.3z"/>
	<path class="st6" d="M34.5,36.8c0,0-6.7,6-13.1,8.4s-4-9.2-4-9.2s13.7-7.7,16.9-5.7S39.4,33,34.5,36.8z"/>
	<path class="st6" d="M13.8,28.7c0,0-2.6-14,2-18.9c3.4-3.7,5.3,3.8,4.3,9.4c-0.8,4.4,2.8,11.4,2.8,11.4L13.8,28.7z"/>
	<path class="st6" d="M6.1,27c0,0-2.6-14,2-18.9c3.4-3.7,5.3,3.8,4.3,9.4C11.5,22,15.2,29,15.2,29L6.1,27z"/>
</g>
<path id="f-forearm" class="st7" d="M265.1,61l9,3.6c0,0-7.8,41.8-20.5,60.5c-2.2,3.3-14.9-1.6-14.7-5.5
	C239.4,102.5,265.1,61,265.1,61z"/>
<g id="r-hand">
	<path class="st7" d="M284.5,57.8c0,0,9.2-9,8.4-15c-0.6-4.5-5.9,0.1-8.1,4.8c-1.7,3.7-8,7-8,7L284.5,57.8z"/>
	<path class="st7" d="M270.3,69c0,0,12.7-7.9,15.9-13.3s-8.4-9.9-14.6-9.1c-2.5,0.3-6.3,3-8.1,6.5C260.8,58.4,261.7,65.5,270.3,69z"
		/>
	<path class="st7" d="M253.7,51.8c0,0,4.2,7.9,9.4,12.4s7-7.3,7-7.3s-10.2-12-13.9-11.2S250.4,46.5,253.7,51.8z"/>
	<path class="st7" d="M275.9,51.2c0,0,7.3-12.3,4.7-18.4c-1.9-4.6-6.3,1.8-7.3,7.4c-0.8,4.4-6.6,9.7-6.6,9.7L275.9,51.2z"/>
	<path class="st7" d="M283.7,52.4c0,0,7.3-12.3,4.7-18.4c-1.9-4.6-6.3,1.8-7.3,7.4c-0.8,4.4-6.6,9.7-6.6,9.7L283.7,52.4z"/>
</g>
<path class="st0" d="M187.7,124.6c1.6,15.7-3.9,31.2-15,42.4c-3.8,4-9.1,6.1-14.6,6C158.1,173,172.3,123.6,187.7,124.6z"/>
<path class="st4" d="M138.7,274c-5.1,1.7-11-0.5-14.9-1.7c-7.8-4.5-21.8-14.3-27.6-27.3c1.1-4.8,2.1-8.7,1.9-12.1
	c-1.1-19.1,71.9-18.7,73,0.4c0.2,3,2,7.5,3.6,12.2C169.2,263.4,137.6,266.8,138.7,274z"/>
<path class="st4" d="M170.1,227.1c0,0-13.8,14.9-34.9,14.8s-36.8-15.2-36.8-15.2s-1.8-18.8-6.2-30.1c-5.6-14.6-5.6-39-5.6-39
	s-8.9-30.4-4-38.6c9.6-2.5,24.8-7.7,44.8-7.6s59.4,12,59.4,12l-13.2,34.7c0,0,0.1,26.7-1,39C171.6,208.9,170.1,227.1,170.1,227.1z"
	/>
<path class="st2" d="M82.6,119c-3.1,0.9-13.7,4.2-9.7,15.5s13.7,23.2,13.7,23.2S79.5,134.8,82.6,119z"/>
<path class="st8" d="M115.9,154c0,0-5.8,22.3,0,46.4c10.4,43.4,2.7,54.9,14.8,73"/>
<path class="st7" d="M156.6,123.9c0.2,7.1-27.4,29.8-40.7,30.1c-13.9-8.6-6.5-24.9-6.7-32c-0.2-7.1,8.9-9.8,22.2-10.1
	S156.5,116.9,156.6,123.9z"/>
<path class="st2" d="M153.6,108.3c0,0-43.7,10.2-44.7,21c-0.7,8.8,1.8,17.5,7,24.7c0,0-14.1-5.1-18.2-14.7c-2.7-6.4-4.1-9.9,2-21
	c1.6-2.9,17.4-13.6,24-14.2C139.2,103,153.6,108.3,153.6,108.3z"/>
<path class="st2" d="M96.9,241.9c0,0-9.4-0.5-9,9.5c0.5,11.5,35.6,27.1,39.3,22c-6.5-3.2-13.8-10.2-20.7-15.4
	c-4.7-3.5-9-9.5-10.3-13L96.9,241.9z"/>
<path class="st2" d="M174.8,245.4c0,0,6.8-2.8,8.1,7.1c1.2,9.8-15.4,16-29.4,19.9c-8.9,2.5-16.8,5.3-18.1,3.6
	c-3.4-4.4,10.1-11.5,19.8-15.1C166.3,257,174.8,245.4,174.8,245.4z"/>
<path class="st3" d="M171.2,233.2c0,0-10.1,13-35.6,12.9s-37.4-13.2-37.4-13.2l-0.5-8.4c0,0,11.6,13.1,37,13.2
	c25.6,0.1,36-12.9,36-12.9L171.2,233.2z"/>
<path class="st6" d="M153.6,121.6c0,0-22,26.3-30.9,23.6c-3.5-1-10-14.7-13.6-20.9c-9.4-16-20-55.8-20-55.8l40.5-3.8
	c0,0-6.1,21.9,6.8,41.6C140.8,112.7,146.7,118,153.6,121.6z"/>
<path class="st2" d="M141.7,112.8c0,0,11.3,7.8,4.9,16.5c-12.4,16.9-30.7,24.7-30.7,24.7s29.7-1.9,37.7-8.6s17.6-27.9,8.4-33.8
	c-6.4-4.1-19.3-3.8-23.2-2.1L141.7,112.8z"/>
<path id="r-arm" class="st7" d="M247.6,129.9c0,0,8.9-3.5,7.2-10s-11.2-5.1-11.2-5.1s-58.6,8.9-73.4,18.1
	c-7.5,4.7-5.1,17.8,4.9,18.2C196.8,152.2,247.6,129.9,247.6,129.9z"/>
<g id="shoulder">
	<path class="st4" d="M158.1,173c0,0-0.6-32.4,6.4-43.2s19.1-7.1,19.1-7.1L158.1,173z"/>
	<path class="st2" d="M175.6,118.3c4.8,0.1,17.9,3.9,9.7,11.6c-12.1,11.5-27.2,43.1-27.2,43.1s2.1-14.1,5.7-29.5
		C166.6,131.5,169.8,120.7,175.6,118.3z"/>
</g>
<g id="head">
	<path class="st7" d="M177.4,90.8c-1.6,6.1-6.2,15.7-13.7,18.2c-11.4,3.8-21.1,1-31.6-2.6c-8.8-3-18.1-9.4-26.1-10.2
		c-8.5-1-17.1-0.9-25.7,0.3c-10.2,1.6-20.9,2.7-32-1.1c-6.4-2.2-12.2-12.4-13.8-18.7c-8.3-33.6,16.4-56.1,43.7-58.8
		c9.7-1,19.6-1.4,27.8-0.6s18.1,3.2,27.8,6.1C161.1,31.5,187.5,53.9,177.4,90.8z"/>
	<path class="st7" d="M160.5,77.5c0,16.2-32.6-8.1-54.5-10.2S66.4,50.2,66.4,34s55.2-41.5,85.8-31.9C194,15.1,160.5,61.3,160.5,77.5
		z"/>
	<path class="st6" d="M79.5,45.2c0,0-2.8-6.5-9.9-6.8s-17.5,9.9-14.5,22.2c0,0-0.9-8.8,9-16.1S79.5,45.2,79.5,45.2z"/>
	<g>
		<defs>
			<path id="SVGID_1_" d="M79.8,64c-3.2,7.4-11,11-17.5,8.1s-9-11.3-5.8-18.7S69.6,39,76.1,42S83.1,56.6,79.8,64z"/>
		</defs>
		<clipPath id="SVGID_2_">
			<use xlink:href="#SVGID_1_"  style="overflow:visible;"/>
		</clipPath>
		<g class="st9">
			<polygon class="st10" points="74.3,79.6 48.1,67.3 63.6,32.8 89.8,45.1 			"/>
			<ellipse transform="matrix(0.258 -0.9662 0.9662 0.258 -0.4794 112.5034)" class="st11" cx="73" cy="56.6" rx="11" ry="10.5"/>
			<path class="st12" d="M73,45.6c0.6,1.8,1,3.6,1.2,5.5c0.4,3.6,0.4,7.3,0,10.9c-0.2,1.9-0.6,3.7-1.2,5.5c-0.6-1.8-1-3.6-1.2-5.5
				c-0.2-1.8-0.3-3.6-0.3-5.5c0-1.8,0.1-3.7,0.3-5.5C72,49.2,72.4,47.4,73,45.6z"/>
			<ellipse transform="matrix(0.258 -0.9662 0.9662 0.258 -0.4794 112.5034)" class="st12" cx="73" cy="56.6" rx="5.4" ry="5.2"/>
		</g>
	</g>
	<path class="st13" d="M62.4,72.1c-2.8-1.1-5.1-3.3-6.4-6c-0.7-1.4-1.1-2.9-1.3-4.4c-0.2-1.5-0.2-3.1,0-4.6c0.5-3.1,1.8-5.9,3.7-8.4
		c1.9-2.4,4.2-4.5,6.8-6.1c1.3-0.8,2.8-1.4,4.2-1.9c1.5-0.5,3.2-0.6,4.7-0.3c0.4,0.1,0.8,0.1,1.2,0.3l1.2,0.4l1.1,0.6
		c0.3,0.2,0.6,0.5,0.9,0.8c1.1,1.1,2,2.4,2.6,3.9c1,2.9,1.4,5.9,1.1,8.9c-0.2,3-1,5.9-2.3,8.6c1-2.8,1.4-5.7,1.4-8.6
		c0.1-2.8-0.5-5.6-1.5-8.3c-1.2-2.5-3.2-4.6-5.9-4.8c-2.7-0.2-5.5,0.6-7.8,2.1c-4.7,3-8.8,7.6-9.9,13.1c-0.6,2.8-0.4,5.6,0.6,8.3
		C57.9,68.5,59.8,70.7,62.4,72.1z"/>
	<path class="st6" d="M126.3,54.5c0,0,2.8-6.7,9.9-7.3s17.5,9,14.5,21.5c0,0,0.9-8.9-9-15.7S126.3,54.5,126.3,54.5z"/>
	<g>
		<defs>
			<path id="SVGID_3_" d="M126,73.3c3.2,7.3,11.1,10.5,17.5,7.3s9-11.7,5.8-19s-13.1-13.8-19.5-10.5S122.8,66.1,126,73.3z"/>
		</defs>
		<clipPath id="SVGID_4_">
			<use xlink:href="#SVGID_3_"  style="overflow:visible;"/>
		</clipPath>
		<g class="st14">
			<polygon class="st10" points="131.6,88.7 157.8,75 142.2,41.3 116,54.9 			"/>
			
				<ellipse transform="matrix(0.2589 -0.9659 0.9659 0.2589 41.1622 183.7457)" class="st11" cx="140.3" cy="65" rx="11" ry="10.5"/>
			<path class="st12" d="M139.6,54.5c0.6,1.8,1,3.6,1.2,5.5c0.2,1.8,0.3,3.6,0.3,5.5c0,1.8-0.1,3.7-0.3,5.5
				c-0.2,1.9-0.6,3.7-1.2,5.5c-0.6-1.8-1-3.6-1.2-5.5c-0.4-3.6-0.4-7.3,0-10.9C138.6,58.1,139,56.2,139.6,54.5z"/>
			
				<ellipse transform="matrix(0.258 -0.9662 0.9662 0.258 40.3718 183.3554)" class="st12" cx="139.6" cy="65.4" rx="5.4" ry="5.2"/>
		</g>
	</g>
	<path class="st13" d="M143.5,80.6c2.5-1.5,4.4-3.8,5.4-6.5c1-2.6,1.3-5.5,0.8-8.3c-1-5.5-5.1-10.1-10-12.8
		c-1.2-0.7-2.5-1.2-3.9-1.5c-1.3-0.3-2.7-0.4-4-0.1c-2.6,0.4-4.6,2.6-5.8,5.1c-1.1,2.6-1.6,5.5-1.6,8.3c0,2.9,0.5,5.8,1.4,8.6
		c-1.3-2.7-2.1-5.6-2.3-8.5c-0.3-3,0.1-6.1,1.1-8.9c0.6-1.5,1.4-2.8,2.5-4c1.1-1.2,2.6-2,4.2-2.3c1.6-0.4,3.2-0.4,4.8,0
		c1.5,0.3,3,0.9,4.3,1.7c2.7,1.5,5.1,3.5,7,5.9c1,1.2,1.8,2.5,2.4,3.9c1.3,2.8,1.7,6,1.2,9.1c-0.2,1.5-0.7,3-1.4,4.4
		c-0.7,1.4-1.6,2.6-2.7,3.6C146.1,79.2,144.9,80,143.5,80.6z"/>
	<path class="st6" d="M51.6,37.6c0,0,5.1-10.4,18.7-12.5s15.2,2.8,15.2,2.8l-2.6,5C82.9,32.9,71.7,26.9,51.6,37.6z"/>
	<path class="st6" d="M158.1,48.1c-3.9-7.6-10.6-13.3-18.7-16.1c-13.6-4.8-15.2-0.2-15.2-0.2l2.5,5.4
		C126.7,37.2,138,33.4,158.1,48.1z"/>
	<path class="st15" d="M122.4,94.7c-3,1.5-15.3-4.1-23.8-5c-8.7-0.9-22.3,2.5-24.2,0.3c-2.2-2.5-5-6-2.2-7.5
		c6.7-3.6,17.6-2.1,26.2-1.2s19.9,1.8,26.3,6.6C127.2,89.9,124.9,93.4,122.4,94.7z"/>
	<path class="st7" d="M114.8,92.6c-2.2,1.6-4.1,3.4-5.8,5.5c-2.3,2.8-4.5,5.8-6.5,8.9c-2.1,3.3-4.2,6.9-6.2,10.6s-4,7.6-5.8,11.5
		c-1,2-1.9,4-3,5.9s-2.1,4-3.2,6c-2.2,4-4.3,8.1-6.1,12.3c-1.7,4.2-3.1,8.5-4.2,12.9c-0.5,2.2-1,4.4-1.3,6.6
		c-0.3,2.2-0.5,4.4-0.4,6.6c0.3,6.5-4.7,11.9-11.2,12.2c-6.5,0.3-11.9-4.7-12.2-11.2c-0.1-1.4,0.1-2.7,0.5-4l0.1-0.4
		c0.8-2.5,1.3-4.7,1.8-7.1s0.9-4.7,1.3-7c0.7-4.7,1.2-9.5,1.6-14.3s0.4-9.8,0.7-14.7c0.2-5,0.8-9.9,1.8-14.8
		c1.9-10.1,4.7-20,8.3-29.6c2-5.3,4.5-10.4,7.3-15.3c3.3-5.8,7.5-11,12.3-15.5l1.4-1.3c9.4-8.6,24-8,32.6,1.5s8,24-1.5,32.7l0,0
		C116.6,91.3,115.7,91.9,114.8,92.6z"/>
	<path class="st7" d="M75.9,194.5c-3,3.2-12.9-2.1-17.2-2.7s-15.3,1.2-17.2-2.8c-1.6-3.5,6.9-9.4,8-13.1c1.7-5.7,22.8-2.4,22.7,3.6
		C72.2,183.4,78.5,191.7,75.9,194.5z"/>
	<path class="st6" d="M78.2,65.5c1.1-2.2,2.7-4.1,4.7-5.4c2-1.4,4.4-2.3,6.8-2.8c4.9-0.8,9.9,0,14.3,2.4c2.2,1.1,4.2,2.7,5.8,4.5
		c1.6,1.9,2.9,4.1,3.6,6.4c0.7,2.3,1.1,4.8,1.1,7.2c0,2.4-0.3,4.8-0.8,7.2c0.3-2.4,0.4-4.8,0.3-7.2c-0.1-2.4-0.5-4.7-1.3-7
		c-0.8-2.2-2-4.3-3.5-6.1c-1.6-1.7-3.5-3.2-5.6-4.3c-4.2-2.3-9-3.2-13.7-2.5C85,58.7,80.8,61.4,78.2,65.5z"/>
	<path class="st6" d="M65.2,89c0.8-1.9,2.1-3.5,3.8-4.7c1.7-1.1,3.7-1.9,5.7-2.2c8.4-1.1,16.7,2.5,21.5,9.5c1.1,1.7,1.9,3.7,2.2,5.7
		c0.3,2,0,4.1-0.9,6c0.7-1.9,0.8-3.9,0.4-5.9c-0.4-1.9-1.2-3.8-2.4-5.4c-4.8-6.5-12.7-10-20.7-9.2c-2,0.2-3.9,0.9-5.6,1.9
		C67.5,85.8,66.1,87.2,65.2,89z"/>
	<path class="st6" d="M58.7,117.8c0.5-1.6,1.6-2.9,3-3.7c1.4-0.8,3-1.3,4.7-1.5c6.6-0.7,13.2,1.5,18,6.1c1.2,1.2,2.1,2.6,2.8,4.1
		c0.6,1.5,0.7,3.2,0.1,4.8c0.4-1.6,0.2-3.2-0.6-4.6c-0.7-1.4-1.7-2.7-2.8-3.7c-4.8-4.2-11.1-6.3-17.4-5.9c-1.6,0.1-3.1,0.5-4.5,1.2
		C60.4,115.2,59.3,116.4,58.7,117.8z"/>
</g>
</svg>
