<?xml version="1.0" encoding="utf-8"?>
<!-- Generator: Adobe Illustrator 25.2.0, SVG Export Plug-In . SVG Version: 6.00 Build 0)  -->
<svg version="1.1" id="Layer_1" xmlns="http://www.w3.org/2000/svg" xmlns:xlink="http://www.w3.org/1999/xlink" x="0px" y="0px"
	 viewBox="0 0 242.8 467.4" style="enable-background:new 0 0 242.8 467.4;" xml:space="preserve">
<style type="text/css">
	.st0{fill:#FFA400;}
	.st1{fill:#A1B200;}
	.st2{fill:#953DBA;}
	.st3{fill:#DAE78D;}
	.st4{fill:#FBFF43;}
	.st5{fill:#430B60;}
	.st6{fill:none;stroke:#A1B200;stroke-linecap:round;stroke-miterlimit:10;}
	.st7{fill:none;stroke:#953DBA;stroke-miterlimit:10;}
	.st8{fill:#ED6100;}
	.st9{clip-path:url(#SVGID_2_);}
	.st10{fill:#FFFFFF;}
	.st11{fill:#77185E;}
	.st12{fill:#130E19;}
	.st13{fill:#933B00;}
	.st14{clip-path:url(#SVGID_4_);}
	.st15{fill:#AF4700;}
</style>
<g id="l-arm">
	<path class="st0" d="M14.3,197.3c0,0-7.3,6.2-12.2,1.6c-5-4.6,0.7-12.3,0.7-12.3s35.2-47.7,50.2-56.4c7.7-4.5,18.1,3.8,13.8,12.9
		C57.6,162.7,14.3,197.3,14.3,197.3z"/>
</g>
<path id="r-arm" class="st0" d="M215.3,114.4c0,0,9.5-1.3,11.2,5.3s-7.3,9.9-7.3,9.9s-55.5,20.8-72.9,20c-8.8-0.4-13.1-13-4.6-18.3
	C160.1,119.8,215.3,114.4,215.3,114.4z"/>
<path id="r-forearm" class="st0" d="M220.4,57.8l9.6,1c0,0,3.7,42.4-3.5,63.8c-1.2,3.7-14.8,2.4-15.7-1.4
	C206.8,104.6,220.4,57.8,220.4,57.8z"/>
<g id="r-hand">
	<path class="st0" d="M238.2,49.5c0,0,6.5-11.2,4.1-16.8c-1.8-4.2-5.7,1.7-6.5,6.8c-0.7,4-5.9,8.9-5.9,8.9L238.2,49.5z"/>
	<path class="st0" d="M227.6,64.2c0,0,10.1-11,11.7-17s-10.8-7.2-16.5-4.8c-2.3,1-5.3,4.6-6,8.5C215.6,56.5,218.3,63.1,227.6,64.2z"
		/>
	<path class="st0" d="M206.9,51.9c0,0,6.2,6.5,12.4,9.5s4.7-8.9,4.7-8.9s-13-8.8-16.4-7S202.4,47.8,206.9,51.9z"/>
	<path class="st0" d="M228.3,45.5c0,0,3.7-13.8-0.4-19c-3.1-4-5.6,3.4-5,9c0.4,4.5-3.8,11.2-3.8,11.2L228.3,45.5z"/>
	<path class="st0" d="M236.1,44.5c0,0,3.7-13.8-0.4-19c-3.1-4-5.6,3.4-5,9c0.4,4.5-3.8,11.2-3.8,11.2L236.1,44.5z"/>
</g>
<g id="r-calf">
	<path class="st1" d="M152.6,367c0,0-3.3-7.1-25.8-8c-17.4-0.7-18.8,2.9-18.8,2.9s10.9,30.9,20.2,31.4
		C144.6,394.2,152.6,367,152.6,367z"/>
	<path class="st2" d="M120.2,430.5l8,0.3l12.8-75.8c0,0-17.3-13.8-20.8-10.3C105.1,359.9,120.2,430.5,120.2,430.5z"/>
	<path class="st3" d="M108.1,362l0.4,19.6l1.2,55.6c0,0,20,13,30.5-6.3l9-46.2l3.4-17.6c-1.9,6.5-15.4,7.8-29.1,5.1
		C110.6,369.6,108.1,362,108.1,362z"/>
	<path class="st3" d="M140.3,430.8c0,0,2.9,5.6,10.5,12.3s18.6,5,18.6,11s0.5,8.3-3.9,10.3s-25,4.3-32.6,2.3c-7.6-2-5.3-6-14.9-5.6
		s-9.8-4.6-9.8-4.6c-0.5-8.7,0.7-17.4,3.5-25.5C116.4,417.5,140.3,430.8,140.3,430.8z"/>
	<path class="st4" d="M108.1,362l0.4,19.6c3.3,3,9,6.4,18.4,7.6c12,1.5,19-2,22.3-4.5l3.4-17.6c-1.9,6.5-15.4,7.8-29.1,5.1
		C110.6,369.6,108.1,362,108.1,362z"/>
	<path class="st5" d="M108.1,449.1c0,0,0.2,5,9.8,4.6s7.3,3.6,14.9,5.6c7.6,2,28.3-0.3,32.6-2.3c2.5-1.1,3.4-2.3,3.7-4.2
		c0.1,0.4,0.2,0.7,0.2,1.1c0,6,0.5,8.3-3.9,10.3s-25,4.3-32.6,2.3c-7.6-2-5.3-6-14.9-5.6s-9.8-4.6-9.8-4.6c-0.2-2.5-0.2-5,0-7.6
		C108.1,449,108.1,449.1,108.1,449.1z"/>
	<line class="st6" x1="117.5" y1="386.9" x2="114.7" y2="433.4"/>
	<path class="st6" d="M140.3,430.8c0,0-16.6,9.2-30.7,0"/>
</g>
<g id="r-thigh">
	<path class="st2" d="M120.3,345.6c0,0,8.2,12.1,13.2,13.4c8.4,2.1,11.1-13.4,11.1-13.4s7.1-55.8,0.9-93.8
		c-1.6-9.5-9.4-22-19.9-21.5c-9.5,0.4-16.9,8.4-16.5,17.8c0,0.1,0,0.3,0,0.4C110.8,272.8,120.3,345.6,120.3,345.6z"/>
	<path class="st5" d="M130.7,348.6c0.6,1.5,1.1,2.9,1.7,4.3c0.2,0.6,0.6,1.1,1,1.6c0.4,0.3,0.9,0.5,1.4,0.5c0.6,0,1.3-0.1,1.9-0.2
		c0.7-0.2,1.3-0.4,1.9-0.8c1.3-0.7,2.6-1.6,3.7-2.6c-0.5,1.6-1.5,3-2.8,4c-0.7,0.6-1.4,1-2.2,1.3c-0.9,0.3-1.8,0.5-2.7,0.5
		c-0.5,0-1-0.1-1.5-0.3c-0.5-0.2-0.9-0.6-1.3-1c-0.6-0.7-0.9-1.6-1-2.5C130.5,351.8,130.5,350.2,130.7,348.6z"/>
</g>
<g id="l-calf">
	<path class="st1" d="M53.8,367c0,0,3.3-7.1,25.8-8c17.4-0.7,18.8,2.9,18.8,2.9s-10.9,30.9-20.2,31.4C61.8,394.2,53.8,367,53.8,367z
		"/>
	<path class="st2" d="M86.2,430.5l-8.1,0.3L65.3,355c0,0,17.3-13.8,20.9-10.3C101.3,359.9,86.2,430.5,86.2,430.5z"/>
	<path class="st3" d="M98.3,362l-0.4,19.6l-1.2,55.6c0,0-20,13-30.5-6.3l-9-46.2L53.7,367c1.9,6.5,15.4,7.8,29.1,5.1
		C95.8,369.6,98.3,362,98.3,362z"/>
	<path class="st3" d="M66.1,430.8c0,0-2.9,5.6-10.5,12.3s-18.6,5-18.6,11c0,6-0.5,8.3,3.9,10.3s25,4.3,32.6,2.3
		c7.6-2,5.3-6,14.9-5.6s9.8-4.6,9.8-4.6c0.5-8.7-0.7-17.4-3.5-25.5C90.1,417.5,66.1,430.8,66.1,430.8z"/>
	<path class="st4" d="M98.3,362l-0.4,19.6c-3.3,3-9,6.4-18.4,7.6c-12,1.5-19-2-22.3-4.5L53.8,367c1.9,6.5,15.4,7.8,29.1,5.1
		C95.8,369.6,98.3,362,98.3,362z"/>
	<path class="st5" d="M98.3,449.1c0,0-0.2,5-9.8,4.6s-7.3,3.6-14.9,5.6c-7.6,2-28.2-0.3-32.6-2.3c-2.5-1.1-3.4-2.3-3.7-4.2
		c-0.1,0.4-0.2,0.7-0.2,1.1c0,6-0.5,8.3,3.9,10.3s25,4.3,32.6,2.3s5.3-6,14.9-5.6s9.8-4.6,9.8-4.6c0.2-2.5,0.2-5,0-7.6
		C98.3,449,98.3,449.1,98.3,449.1z"/>
	<path class="st6" d="M66.1,430.8c0,0,16.6,9.2,30.7,0"/>
	<line class="st6" x1="88.9" y1="386.9" x2="91.7" y2="433.4"/>
</g>
<g id="l-thigh">
	<path class="st2" d="M86.1,345.6c0,0-8.2,12.1-13.2,13.4c-8.3,2.1-11.1-13.4-11.1-13.4s-7.1-55.8-1-93.8c1.6-9.5,9.4-22,19.9-21.5
		c9.5,0.4,16.9,8.4,16.5,17.9c0,0.1,0,0.3,0,0.4C95.6,272.8,86.1,345.6,86.1,345.6z"/>
	<path class="st5" d="M75.7,348.6c0.3,1.6,0.2,3.2-0.1,4.8c-0.1,0.9-0.5,1.8-1.1,2.5c-0.3,0.4-0.8,0.8-1.3,1c-0.5,0.2-1,0.3-1.5,0.3
		c-0.9,0-1.8-0.1-2.7-0.5c-0.8-0.3-1.6-0.7-2.2-1.3c-1.3-1-2.3-2.4-2.8-4c1.1,1,2.4,1.9,3.7,2.6c0.6,0.3,1.3,0.6,2,0.8
		c0.6,0.2,1.3,0.3,1.9,0.2c0.5,0,1-0.2,1.4-0.5c0.4-0.5,0.8-1,1-1.6C74.6,351.5,75.1,350.1,75.7,348.6z"/>
</g>
<g id="torso">
	<path class="st5" d="M111.2,273.4c-5.1,1.4-10.5,1.4-15.6,0c-2.4-5.4-27.9-14.7-33.2-27.8c1.4-4.8,2.8-8.7,2.8-12.2
		c0-19.1,76.5-19.1,76.5,0c0,3,1.6,7.5,3,12.2C137.7,263.6,113.4,267.9,111.2,273.4z"/>
	<path class="st5" d="M140.8,227.2c0,0-15.3,15-37.5,15s-37.6-15-37.6-15S62.9,209,61,197.1c-2-12.3-3.4-39-3.4-39l-16-34.9
		c0,0,40.7-11.7,61.7-11.7s55.9,10.1,55.9,10.1l-10.3,36.4c0,0-1.5,26.8-3.4,39C143.5,209,140.8,227.2,140.8,227.2z"/>
	<path class="st3" d="M41.6,123.2c0,0-11.7,2.2-5.1,12s21.1,22.9,21.1,22.9L41.6,123.2z"/>
	<path class="st3" d="M154.2,120.1c0,0,11.9-1.2,8.3,10c-3.6,11.2-13.7,28-13.7,28L154.2,120.1z"/>
	<line class="st7" x1="103.2" y1="154.4" x2="103.2" y2="274.4"/>
	<path class="st8" d="M132,129.2c1.4,9.5-28.8,25.1-28.8,25.1s-30.1-15.7-28.7-25.1c0.8-5.3,9-11,9.7-19.2c1-12.3-1.3-43.4-1.3-43.4
		h40.7c0,0-2.2,31.2-1.3,43.5C122.9,118.3,131.2,123.9,132,129.2z"/>
	<path class="st3" d="M83.1,113.6c0,0-5.4,3.9-2.2,14.3s22.3,30.2,22.3,30.2s-30.7-18-36.2-26.9c0,0-3.8-9.7,5.4-15.6
		S83.1,113.6,83.1,113.6z"/>
	<path class="st3" d="M123.3,113.6c0,0,5.4,3.9,2.2,14.3c-3.1,10.4-22.3,30.2-22.3,30.2s30.7-18,36.2-26.9c0,0,3.8-9.7-5.4-15.6
		S123.3,113.6,123.3,113.6z"/>
	<path class="st3" d="M62.4,245.6c0,0-7.9-2.9-8,7.1c-0.2,11.5,40.3,28.1,43.4,23.9s-10.8-10.1-17.8-15.4
		C73.9,256.3,68,251.1,62.4,245.6z"/>
	<path class="st3" d="M144.6,245.6c0,0,7.9-2.9,8,7.1c0.2,11.5-40.3,28.1-43.4,23.9s10.7-10.1,17.7-15.3
		C133.1,256.3,139,251.1,144.6,245.6z"/>
	<path class="st4" d="M141.6,233.4c0,0-11.4,13-38.1,13s-38.3-13-38.3-13V225c0,0,11.3,13,38,13c26.9,0,38.5-13,38.5-13L141.6,233.4
		z"/>
</g>
<g id="head">
	<path class="st0" d="M185.8,80.6c-1.5,6.3-7,15.6-16,17.3c-12.6,2.5-25.2,0.2-37.3-2.3c-10.1-2.1-19.9-4.5-29.2-4.5
		c-9.4,0-19.3,2.6-29.6,4.8c-11.8,2.6-24.2,4.7-36.9,2.1c-7.4-1.6-14.1-11.1-15.9-17.3C11.3,47.9,39.8,23,71.3,17.5
		c11.1-1.9,22.6-3.3,32-3.3s20.9,1.4,32,3.3C167,23,194.1,45.2,185.8,80.6z"/>
	<path class="st0" d="M149,34.7c0,16.2-20.4,29.4-45.6,29.4S57.8,51,57.8,34.7S84.8,0,103.4,0S149,18.5,149,34.7z"/>
	<path class="st8" d="M75.5,43.7c0,0-2.9-6.6-10.3-7.1S47,46.2,50.1,58.5c0,0-0.9-8.9,9.3-15.9S75.5,43.7,75.5,43.7z"/>
	<g>
		<defs>
			<path id="SVGID_1_" d="M75.8,62.6c-3.4,7.3-11.5,10.8-18.2,7.7s-9.4-11.5-6-18.8s13.7-14.2,20.3-11S79.2,55.2,75.8,62.6z"/>
		</defs>
		<clipPath id="SVGID_2_">
			<use xlink:href="#SVGID_1_"  style="overflow:visible;"/>
		</clipPath>
		<g class="st9">
			
				<rect x="45.6" y="39.4" transform="matrix(0.4294 -0.9031 0.9031 0.4294 -12.4141 89.3381)" class="st10" width="37.8" height="30.2"/>
			<circle class="st11" cx="68.7" cy="55" r="10.9"/>
			<path class="st12" d="M68.7,44c0.6,1.8,1,3.6,1.2,5.5c0.2,1.8,0.3,3.6,0.3,5.5c0,1.8-0.1,3.7-0.3,5.5c-0.2,1.9-0.6,3.7-1.2,5.5
				c-0.6-1.8-1-3.6-1.2-5.5c-0.5-3.6-0.5-7.3,0-10.9C67.7,47.6,68.1,45.8,68.7,44z"/>
			<circle class="st12" cx="68.7" cy="55" r="5.4"/>
		</g>
	</g>
	<path class="st13" d="M57.6,70.3c-2.9-1.1-5.3-3.2-6.6-6c-0.7-1.4-1.2-2.9-1.4-4.4c-0.2-1.6-0.2-3.1,0-4.7c0.5-3.1,1.9-6,3.9-8.4
		c2-2.4,4.4-4.4,7.2-5.9c2.8-1.7,6-2.4,9.2-2c1.6,0.2,3.2,1,4.4,2.1c1.2,1.1,2.1,2.4,2.8,3.9c0.6,1.4,1,3,1.2,4.5
		c0.2,1.5,0.2,3,0.1,4.6c-0.2,3-1,6-2.4,8.7c1-2.8,1.5-5.7,1.5-8.7c0.1-2.9-0.5-5.8-1.7-8.4c-0.6-1.3-1.4-2.4-2.5-3.2
		c-1-0.9-2.3-1.4-3.6-1.6c-2.8-0.2-5.6,0.4-8,1.9c-4.9,2.8-9.2,7.3-10.3,12.9c-0.6,2.8-0.3,5.7,0.8,8.4C53,66.6,55,68.9,57.6,70.3z"
		/>
	<path class="st8" d="M131.3,43.7c0,0,2.9-6.6,10.3-7.1s18.3,9.5,15.1,21.9c0,0,0.9-8.9-9.3-15.9S131.3,43.7,131.3,43.7z"/>
	<g>
		<defs>
			<path id="SVGID_3_" d="M131,62.6c3.4,7.3,11.5,10.8,18.2,7.7s9.4-11.5,6.1-18.8s-13.6-14.2-20.3-11S127.6,55.2,131,62.6z"/>
		</defs>
		<clipPath id="SVGID_4_">
			<use xlink:href="#SVGID_3_"  style="overflow:visible;"/>
		</clipPath>
		<g class="st14">
			
				<rect x="127.2" y="35.6" transform="matrix(0.9031 -0.4294 0.4294 0.9031 -9.6124 66.3892)" class="st10" width="30.2" height="37.8"/>
			<circle class="st11" cx="145.1" cy="55" r="10.9"/>
			<path class="st12" d="M145.1,44c0.6,1.8,1,3.6,1.2,5.5c0.4,3.6,0.4,7.3,0,10.9c-0.2,1.9-0.6,3.7-1.2,5.5c-0.6-1.8-1-3.6-1.2-5.5
				c-0.5-3.6-0.5-7.3,0-10.9C144.1,47.6,144.5,45.8,145.1,44z"/>
			<circle class="st12" cx="145.1" cy="55" r="5.4"/>
		</g>
	</g>
	<path class="st13" d="M149.2,70.3c2.6-1.4,4.6-3.7,5.7-6.4c1.1-2.7,1.3-5.6,0.7-8.4c-1.1-5.6-5.4-10.1-10.3-12.9
		c-2.4-1.5-5.2-2.1-8-1.9c-1.3,0.2-2.6,0.7-3.6,1.6c-1.1,0.9-1.9,2-2.5,3.2c-1.2,2.6-1.8,5.5-1.7,8.4c0,3,0.5,5.9,1.5,8.7
		c-1.4-2.7-2.2-5.6-2.4-8.7c-0.1-1.5-0.1-3.1,0.1-4.6c0.2-1.5,0.6-3.1,1.2-4.5c0.6-1.5,1.6-2.8,2.8-3.9c1.2-1.1,2.8-1.8,4.4-2.1
		c3.2-0.4,6.4,0.3,9.2,2c2.7,1.5,5.2,3.5,7.1,5.9c2,2.4,3.4,5.3,3.9,8.4c0.2,1.6,0.2,3.1,0,4.7c-0.2,1.5-0.7,3-1.4,4.4
		C154.4,67.1,152.1,69.2,149.2,70.3z"/>
	<path class="st8" d="M41.8,39.7c0,0,5.8-10.8,21.6-14.3s17.5,1.3,17.5,1.3l-2.9,5.2C77.9,31.9,64.9,27,41.8,39.7z"/>
	<path class="st8" d="M164.6,39.7c0,0-5.8-10.8-21.5-14.3s-17.5,1.3-17.5,1.3l2.9,5.2C128.5,31.9,141.5,27,164.6,39.7z"/>
	<path class="st15" d="M129.4,89c-3.2,1.8-16.7-2.5-26-2.5c-9.4,0-24.3,4.8-26.4,2.8c-2.4-2.3-5.4-5.5-2.4-7.2
		c7.3-4.3,19.1-3.9,28.6-3.9s21.7-0.3,28.6,3.9C134.7,83.7,132.1,87.4,129.4,89z"/>
	<path class="st0" d="M126.2,50.9c-0.4,9.9-1.2,19.7-2.1,29.6c-0.4,4.9-1,9.9-1.5,14.8l-1.7,14.8c-0.6,4.9-1.5,9.9-2.5,14.8
		c-1,4.9-2.1,9.9-2.9,14.8c-0.8,4.9-1.2,9.8-1.5,14.8c-0.3,4.9-0.1,9.9,0.6,14.8c0.8,6.4-3.7,12.2-10.1,13
		c-6.1,0.8-11.8-3.4-12.9-9.5c-0.2-1.2-0.2-2.4,0-3.5c0.7-4.9,0.9-9.9,0.6-14.8c-0.2-5-0.7-9.9-1.4-14.8c-0.7-4.9-1.8-9.9-2.9-14.8
		c-1-4.9-1.9-9.9-2.5-14.8l-1.7-14.8c-0.5-4.9-1.1-9.9-1.5-14.8c-0.9-9.9-1.7-19.7-2.1-29.6c-0.6-12.7,9.3-23.4,22-24
		c12.7-0.6,23.4,9.3,24,22C126.2,49.6,126.2,50.2,126.2,50.9z"/>
	<path class="st0" d="M120.6,183.4c-2.4,3.6-13,0-17.4,0s-15,3.6-17.4,0c-2.1-3.2,5.4-10.4,5.9-14.2c0.8-5.9,22.1-5.9,23,0
		C115.2,173,122.7,180.1,120.6,183.4z"/>
	<path class="st8" d="M83.1,65.2c-0.1-2.5,0.5-4.9,1.6-7.2c1.2-2.2,2.8-4.2,4.7-5.7c8.2-6.3,19.6-6.3,27.9,0c2,1.6,3.6,3.5,4.7,5.7
		c1.1,2.2,1.7,4.7,1.6,7.2c-0.3-4.9-2.8-9.4-6.8-12.3c-8-5.8-18.9-5.8-26.9,0C85.9,55.8,83.4,60.3,83.1,65.2z"/>
	<path class="st8" d="M85.7,84.6c-0.1-2.1,0.5-4.1,1.6-5.8c1.1-1.7,2.6-3.2,4.4-4.3c7.2-4.5,16.3-4.5,23.5,0
		c1.7,1.1,3.2,2.6,4.4,4.3c1.1,1.7,1.7,3.8,1.6,5.8c-0.1-2-0.8-3.9-2-5.6c-1.2-1.6-2.6-3-4.4-4c-7-4-15.6-4-22.7,0
		c-1.7,1-3.2,2.4-4.4,4C86.5,80.7,85.8,82.6,85.7,84.6z"/>
	<path class="st8" d="M88.3,103.8c0-1.7,0.6-3.3,1.6-4.5c1.1-1.2,2.4-2.3,3.9-3c6-2.8,13-2.8,19.1,0c1.5,0.7,2.8,1.8,3.9,3
		c1.1,1.2,1.7,2.9,1.6,4.5c-0.2-1.6-0.9-3.1-2-4.2c-1.1-1.1-2.4-2-3.9-2.6c-5.9-2.4-12.5-2.4-18.4,0c-1.4,0.6-2.8,1.5-3.9,2.6
		C89.2,100.7,88.5,102.2,88.3,103.8z"/>
</g>
<path id="l-forearm" class="st0" d="M59.2,229.7l-6.2,7.5c0,0-37.3-20.4-51.2-38.3c-2.4-3.1,6.1-13.6,9.8-12.3
	C27.7,192.5,59.2,229.7,59.2,229.7z"/>
<g id="l-hand">
	<path class="st0" d="M56.1,249.1c0,0,5.7,11.6,11.7,12.7c4.5,0.8,1.8-5.6-2-9.2c-3-2.8-4.1-9.8-4.1-9.8L56.1,249.1z"/>
	<path class="st0" d="M49.9,232.1c0,0,3.6,14.6,7.7,19.2s12-5,13.2-11c0.5-2.5-0.9-6.9-3.7-9.7C62.9,226.4,55.9,225,49.9,232.1z"/>
	<path class="st0" d="M71.5,221.7c0,0-8.8,1.5-14.8,5.1s4.8,8.9,4.8,8.9s14.5-5.9,14.9-9.7S77.5,220.3,71.5,221.7z"/>
	<path class="st0" d="M65.1,243.1c0,0,9.4,10.7,16.1,10.2c5-0.4,0.3-6.5-4.7-9.2c-4-2.1-7.2-9.3-7.2-9.3L65.1,243.1z"/>
	<path class="st0" d="M61.6,250.1c0,0,9.4,10.7,16.1,10.2c5-0.4,0.3-6.5-4.7-9.2c-4-2.1-7.2-9.3-7.2-9.3L61.6,250.1z"/>
</g>
</svg>
