<svg id="character_art" data-name="character art" xmlns="http://www.w3.org/2000/svg" xmlns:xlink="http://www.w3.org/1999/xlink" viewBox="0 0 1103 1000"><defs><style>.cls-1,.cls-15,.cls-22,.cls-24,.cls-8{fill:none;}.cls-2{fill:#d8c4f9;}.cls-3{fill:#ddcd00;}.cls-4{fill:#ddee64;}.cls-5{fill:#e9f49a;}.cls-6{fill:#b28c40;}.cls-7{fill:#960;}.cls-8{stroke:#446b00;stroke-width:2.3px;}.cls-15,.cls-16,.cls-22,.cls-24,.cls-8{stroke-miterlimit:10;}.cls-9{fill:#446b00;}.cls-10{fill:#e82169;}.cls-11{fill:#43dcff;}.cls-12{fill:#ff4280;}.cls-13{clip-path:url(#clip-path);}.cls-14{fill:#ffa400;}.cls-15,.cls-24{stroke:#ed6100;}.cls-15,.cls-22{stroke-width:3.69px;}.cls-16{fill:#9ae0e2;fill-opacity:0.2;stroke:#9ae0e2;stroke-width:5.8px;}.cls-17{fill:#0049ff;}.cls-18{fill:#e9fcff;}.cls-19{fill:#00b0ff;}.cls-20,.cls-21{fill:#fff;}.cls-21{opacity:0.7;}.cls-22{stroke:#e82169;}.cls-23{clip-path:url(#clip-path-2);}.cls-24{stroke-width:3.69px;}.cls-25{fill:#ed6100;}.cls-26{fill:#b23800;}</style><clipPath id="clip-path"><path class="cls-1" d="M475,349s37-14.81,47.81-31,20.2-20,23-14.85c3.76,7.08-5.27,18-3.48,20.83,3.93,6.29,17.05-8,20.46,6,1.63,6.67-22.52,19.44-11.93,29.61,9,8.69,13.9,15.76,5.72,20.56-7.84,4.59-20-6.32-40.87,4.92-.91.5-9.71,10.7-10.66,11.28C478.68,412.5,458.62,378.89,475,349Z"/></clipPath><clipPath id="clip-path-2"><path class="cls-1" d="M182.74,437.74s-20.29,34.33-37.93,42.5-22.89,16.89-18.18,20.41c6.41,4.79,18.55-2.46,21.1-.26,5.61,4.84-10.56,15.62,2.76,21.13,6.34,2.62,22.66-19.28,31.09-7.26,7.19,10.26,13.44,16.14,19.43,8.79,5.74-7-3.19-20.74,11.11-39.62.63-.83,12-8,12.77-8.81C244.88,451.08,214.73,426.12,182.74,437.74Z"/></clipPath></defs><g id="sky"><g id="clouds"><path class="cls-2" d="M815.8,680.18C752.6,700.93,685.14,720.24,622.63,736q-36-1.38-72.27-1.38-66.87,0-132.59,4.68c45.71-25.82,127.21-61,210.65-90.94H906.59l46.3-46.44V562.17c85.74-14.88,146.66-18,150-6.59C1109,576.8,915.5,647.45,815.8,680.18Z"/><path class="cls-2" d="M327.21,68.69C208.39,105.62,57.37,169.56,62,182.69,71.4,209.48,731.37,33.6,725,5.06,721.56-10.55,516.81,9.77,327.21,68.69Z"/><path class="cls-2" d="M773.58,263q-9.44,3-18.89,5.9H557.23l-43.64,44c-112,8-191.69-4-193.51-17.88-3.56-26.92,285.27-77,281.09-100-3.08-17-160.49,3.53-162.44-8.57-3.15-19.65,404.94-109.53,416-75.67,6.12,18.75-112.69,67-108.05,77.58,7.45,16.89,276.72-71.59,286.37-51.82C1039.75,150.26,943.22,208.14,773.58,263Z"/><path class="cls-2" d="M511,443.47V574.84c-23.42,11.66-46.14,22.55-66.89,32.07C216.54,711.37,4.51,755.39.07,742.77c-6.41-18.2,416.76-158.62,405.77-194.07-8.55-27.6-271.36,34.69-274.76,21.17C128,557.73,334.84,488.51,511,443.47Z"/></g><g id="stars"><ellipse class="cls-3" cx="164.8" cy="203.81" rx="5.74" ry="5.76"/><ellipse class="cls-3" cx="149.66" cy="582.98" rx="5.74" ry="5.76"/><ellipse class="cls-3" cx="695.88" cy="54.73" rx="9.19" ry="9.21"/><ellipse class="cls-3" cx="600.21" cy="136.44" rx="9.19" ry="9.21"/><ellipse class="cls-3" cx="586.77" cy="663.19" rx="9.19" ry="9.21"/><path class="cls-3" d="M967.12,302.68a9.22,9.22,0,0,1-9.2,9.21,9,9,0,0,1-5-1.52V295a9.21,9.21,0,0,1,14.23,7.72Z"/><ellipse class="cls-3" cx="104.07" cy="509.51" rx="9.19" ry="9.21"/><ellipse class="cls-3" cx="436.04" cy="20.09" rx="5.74" ry="5.76"/><ellipse class="cls-3" cx="997.19" cy="335.06" rx="5.74" ry="5.76"/></g></g><g id="land"><path id="land-2" data-name="land" class="cls-4" d="M981.07,823.92c3.06,7.76,74.52,9.61,75.81,21.33,1.15,10.39-145.12,26.86-145.12,46.32,0,23.89,110,28.66,112.32,51.76,1.7,17-164.73,52.85-395.43,56.67h-81C363.5,996.77,57,933.31,57,904.93c0-20.11,125.27-37.61,125.27-55.83,0-10.71-51.44-25.41-116.74-42.11a4.61,4.61,0,0,1-.07-8.92,1883.28,1883.28,0,0,1,1002.42,9.08C1021.61,812.66,979.73,820.53,981.07,823.92Z"/><g id="land-3" data-name="land"><g id="highlight"><path class="cls-5" d="M712.51,952.25c95.26,15.81,183.25,8,183.62-.37s-88.33-14.88-88-27.4c.26-9.4,50.52-13.39,50.15-17.26-.4-4.1-57.41-2.67-122.24,3.36-56.52,5.27-101.52,9.46-101.95,18C633.58,939.16,700.12,950.2,712.51,952.25Z"/><path class="cls-5" d="M221.5,923.76c67.6,3.88,140.65-2.21,140.64-6.88,0-8.77-258.44-19.39-259.19-10.8C102.57,910.42,167.7,920.67,221.5,923.76Z"/></g><g id="rock"><g id="rocks"><polygon class="cls-6" points="1014.7 803.97 673.48 793.95 697.9 756.17 785.5 733.44 862.78 656.2 882.34 648.35 907.45 648.35 924.31 631.48 965.13 615.08 991.27 628.67 1014.7 803.97"/><polygon class="cls-4" points="725.73 768.29 822.24 741.05 862.79 656.2 803.12 733.43 725.73 768.29"/><polygon class="cls-4" points="847.39 745.24 909.74 656.79 958.9 621.71 933.08 658.14 942.91 675.62 900.31 704.43 847.39 745.24"/></g><g id="shadingv"><polygon class="cls-7" points="965.13 615.08 982.41 650.63 971.37 659.15 958.9 762.69 1014.53 802.6 991.27 628.68 965.13 615.08"/><polygon class="cls-7" points="822.24 741.05 887.28 656.51 862.79 656.2 822.24 741.05"/></g></g><path id="water" class="cls-3" d="M1056.88,845.25c.57,5.21-36,12-72.52,19.86h0c-194.47,23.24-506.43,42.31-508.27,21.76-1.32-14.78,184.23-37.68,182.57-54C656.3,810,197.11,830,196.49,820.81c-.41-6.36,198.15-36.81,416.13-36,176,.69,336.78,11.54,454.76,22.39-46.07,5.52-87.62,13.36-86.31,16.72C984.13,831.68,1055.59,833.53,1056.88,845.25Z"/><path id="shadows" class="cls-6" d="M552.66,847.71c-1.7,21.38-109.83,31.77-160.39,24.91-24.6,22.89-177.88,29.32-182.6,8.73-1.36-6,10.94-9.08,7.72-16-4.5-9.6-18.43-2.92-20.46-9.42-1.13-3.68,37-26.58,74.93-26.58,21.8,0,73.85,8.57,103,20.41a4.82,4.82,0,0,0-.37-3.48c-4.49-9.61-18.43-2.9-20.46-9.42-1.13-3.69,37-26.56,74.94-26.56C460.29,810.33,554.25,828,552.66,847.71Z"/></g></g><g id="character"><g id="sign"><polygon class="cls-8" points="522.36 636.59 522.36 320.11 562.03 280.18 942.35 280.18 942.35 596.9 902.68 636.59 522.36 636.59"/><path class="cls-9" d="M600.24,319.8h16.47c7.93,0,13.29,4.16,13.29,10.83,0,3.3-1.37,6.55-4.79,8.15l0,.23a21.73,21.73,0,0,1,3.6-.23h1.53v23.77H600.24Zm20.46,34v-9.06H610.21v9.06ZM615.52,337a4.13,4.13,0,0,0,4.44-4.33,4,4,0,0,0-4.39-4.28h-5.3V337Z"/><path class="cls-9" d="M641.58,319.8h25.48v8.72H651.61v8.21h14.31v8.55H651.61v8.44h15.74v8.83H641.58Z"/><path class="cls-9" d="M704.45,347.39c-6.61-1.77-10.6-7.3-10.6-15.28V319.8h10V333c0,3.42,2,5.87,5.53,5.87,3.82,0,5.53-2.45,5.53-5.87V319.8H725v12.31c0,7.92-3.93,13.45-10.49,15.22v15.22H704.45Z"/><path class="cls-9" d="M732.33,341.17c0-13.11,8.95-22.29,21.78-22.29s21.83,9.18,21.83,22.29-9,22.29-21.83,22.29C741,363.46,732.33,354.29,732.33,341.17Zm33.35-.05c0-8-4.39-13.29-11.57-13.29s-11.52,5.31-11.52,13.29S747,354.4,754.11,354.4,765.68,349.21,765.68,341.12Z"/><path class="cls-9" d="M795.61,319.8v33.92h12.77V319.8h10v42.75H785.58V319.8Z"/><path class="cls-9" d="M842.2,346.48H840v16.07h-10V319.8h16.93c8.44,0,14.65,5.93,14.65,13.56a12.72,12.72,0,0,1-8.89,12.15l9.86,17H851.15Zm9.29-12.89c0-2.79-2.11-5.07-5.59-5.07H840v10.2h5.93C849.38,338.72,851.49,336.39,851.49,333.59Z"/><path class="cls-9" d="M569.63,409.57c0-13.11,9-22.29,21.78-22.29s21.83,9.18,21.83,22.29-9,22.29-21.83,22.29C578.3,431.86,569.63,422.69,569.63,409.57Zm33.35-.05c0-8-4.39-13.29-11.57-13.29s-11.52,5.31-11.52,13.29,4.39,13.28,11.52,13.28S603,417.61,603,409.52Z"/><path class="cls-9" d="M645,406.61h-.23L637.92,431h-9.69l-10-42.75H629l4.79,25.53H634l6.56-25.53h8.61l6.49,25.53h.23l4.79-25.53h10.66L661.46,431h-9.75Z"/><path class="cls-9" d="M704.51,431l-15.34-24.74h-.23V431h-9.63V388.2h10.26l15.16,24.74H705V388.2h9.58V431Z"/><path class="cls-9" d="M744,388.2h25.54v8.72H754v10h14.42v8.61H754V431H744Z"/><path class="cls-9" d="M778.41,388.2h10V431h-10Z"/><path class="cls-9" d="M798.91,431v-8.83h15.27v-8.56h-2.45c-7.69,0-13.11-4.27-13.11-12.65,0-8,5.64-12.71,13.51-12.71H823.7v8.72H813c-2.63,0-4.45,1.48-4.45,4s1.82,4,4.45,4h11.28V431Z"/><path class="cls-9" d="M835.32,388.2h10v16.93h13.73V388.2h10V431h-10v-17H845.36v17h-10Z"/><path class="cls-9" d="M879.36,426.22a5.62,5.62,0,1,1,5.64,5.59A5.6,5.6,0,0,1,879.36,426.22Z"/><path class="cls-9" d="M659.6,494l8,4.9c3.48,2.11,7,5.59,7,11.74,0,7.64-5.87,12.66-14.2,12.66-9.06,0-13.51-5.53-14.59-12.26l8.72-3.36c.52,2.56,2.11,6.67,6.1,6.67a3.49,3.49,0,0,0,3.82-3.54c0-1.53-.57-2.85-2.91-4.27l-7-4.28c-3.3-2-7.35-4.5-7.35-11.4,0-6.33,5-12.14,13.17-12.14,7.75,0,12.08,3.88,14,10.26l-8.6,3.19c-1.49-3.82-3.48-4.73-5.53-4.73a3,3,0,0,0-3.25,2.85C656.92,492.17,658.06,493.08,659.6,494Z"/><path class="cls-9" d="M707.2,498H707l-6.85,24.35h-9.69l-10-42.76h10.77L696,505.17h.23l6.55-25.54h8.61l6.5,25.54h.23l4.79-25.54H733.6l-9.92,42.76h-9.75Z"/><path class="cls-9" d="M741.53,479.63h10v42.76h-10Z"/><path class="cls-9" d="M812.6,522.39H802.51V494.05c0-4.27-2.11-6-5-6s-4.79,1.71-4.79,6v28.34H782.61V494.05c0-4.27-2.11-6-4.84-6s-4.9,1.71-4.9,6v28.34h-10V493.26c0-10.44,7.53-14.54,14.94-14.54a12.73,12.73,0,0,1,10,4.33,12.77,12.77,0,0,1,10-4.33c7.58,0,14.88,4.1,14.88,14.54Z"/><path class="cls-9" d="M592.54,575.17c0,9.69-6.45,16.53-16.71,16.53s-16.76-6.84-16.76-16.53V548h10v28.05a6.7,6.7,0,0,0,13.39,0V548h10Z"/><path class="cls-9" d="M634.74,576.36h-21v14.43h-10V548h31Zm-10-19.61h-11v11h11Z"/><path class="cls-9" d="M656.26,562.4l8,4.9c3.47,2.11,7,5.59,7,11.74,0,7.64-5.87,12.66-14.19,12.66-9.07,0-13.51-5.53-14.6-12.26l8.73-3.36c.51,2.56,2.11,6.67,6.1,6.67a3.49,3.49,0,0,0,3.81-3.54c0-1.53-.56-2.85-2.9-4.27l-7-4.28c-3.31-2-7.36-4.5-7.36-11.4,0-6.33,5-12.14,13.17-12.14,7.75,0,12.09,3.88,14,10.26l-8.61,3.19c-1.48-3.82-3.48-4.73-5.53-4.73a3,3,0,0,0-3.25,2.85C653.58,560.57,654.72,561.49,656.26,562.4Z"/><path class="cls-9" d="M688.25,556.75h-10V548h30v8.72h-10v34h-10Z"/><path class="cls-9" d="M728.49,574.71h-2.22v16.08h-10V548h16.93c8.44,0,14.65,5.93,14.65,13.57a12.7,12.7,0,0,1-8.89,12.14l9.86,17H737.44Zm9.3-12.88c0-2.8-2.11-5.08-5.59-5.08h-5.93V567h5.93C735.68,567,737.79,564.62,737.79,561.83Z"/><path class="cls-9" d="M771.27,591.7c-9.86,0-15.9-5.3-15.9-12.6,0-5.47,2.73-9.12,7.52-10.83a10.07,10.07,0,0,1-6.27-9.75c0-6.9,5.82-11.4,14.94-11.4,6.55,0,10.6,2.68,12.6,4.9L779,558.75a10.1,10.1,0,0,0-7.3-2.79c-3.93,0-5.53,1.76-5.53,4.1,0,2.74,2.45,4.68,7.07,4.68H779v8.38h-6.62c-4.39,0-6.84,1.82-6.84,4.67s2.17,5,6.16,5a9.9,9.9,0,0,0,7.35-2.62l5,6.55C782.62,588.68,778.74,591.7,771.27,591.7Z"/><path class="cls-9" d="M802.71,548h13.17l12.77,42.76H817.76l-2.17-8.27H802.48l-2.17,8.27H789.94Zm2,25.77h8.61l-4.16-16H809Z"/><path class="cls-9" d="M853.72,581.89l-7.53-16.47H846v25.37h-9.63V548h12.31l9.13,21H858l9.64-21h11.68v42.76h-9.57V565.42h-.23l-7.58,16.47Z"/><path class="cls-9" d="M890,586a5.71,5.71,0,0,1,5.7-5.65,5.65,5.65,0,1,1,0,11.29A5.7,5.7,0,0,1,890,586Zm.86-38h9.91v27.76h-9.91Z"/></g><g id="l-arm"><path class="cls-10" d="M443.47,370.54c19.67-6.8,51,52.91,25.41,64.11s-49.39-9.84-48.19-25.64S422.43,377.82,443.47,370.54Z"/><path class="cls-11" d="M405.66,392.49s46.66-26.66,72-40.92,45.25,12,33.13,31.57-36,40.49-57.57,51.61S371.41,435.12,405.66,392.49Z"/><path class="cls-12" d="M468.88,434.65s-33.14-9.28-39.32-34.31,13.91-29.8,13.91-29.8S398.23,386.26,394.38,402s.66,29.44,18.34,39.2S445.07,448.33,468.88,434.65Z"/></g><g id="l-hand"><g class="cls-13"><path class="cls-14" d="M475,349s37-14.81,47.81-31,20.2-20,23-14.85c3.76,7.08-5.27,18-3.48,20.83,3.93,6.29,17.05-8,20.46,6,1.63,6.67-22.52,19.44-11.93,29.61,9,8.69,13.9,15.76,5.72,20.56-7.84,4.59-20-6.32-40.87,4.92-.91.5-9.71,10.7-10.66,11.28C478.68,412.5,458.62,378.89,475,349Z"/><path class="cls-15" d="M489.53,337.55s-7.2,16.24-5.42,30.57,16.28,23.75,27.75,20.9,19.88-1.14,19.88-1.14"/></g></g><g id="_4b" data-name="4b"><path class="cls-16" d="M233.77,230.45c0,126.92,80.94,182.6,164.93,182.6S579,353.22,563.62,230.45C553.91,153,482.69,78.36,398.7,78.36S233.77,146.45,233.77,230.45Z"/><path class="cls-17" d="M415.71,183l-1,7.9s23,2.13,28.47,7.33S449,209.2,449,209.2s1.62-20.31-7-23.3S415.71,183,415.71,183Z"/><ellipse class="cls-18" cx="436.74" cy="222.11" rx="24.05" ry="33.07" transform="translate(-51.51 263.12) rotate(-31.76)"/><ellipse class="cls-14" cx="435.76" cy="224.61" rx="18.34" ry="25.08" transform="translate(-54.41 232.95) rotate(-28.24)"/><ellipse cx="435.76" cy="224.61" rx="10.45" ry="14.29" transform="translate(-54.41 232.95) rotate(-28.24)"/><path class="cls-11" d="M290.27,225.79c12.72-18.91,31.43-55.37,71.93-55.37s72.36,33.63,89.19,49c30.79,28.11,55.14,78,55.14,78S441.42,404.06,362.16,404.06,260.23,324.8,260.23,324.8,267,260.4,290.27,225.79Z"/><path class="cls-19" d="M348.07,277.75s-8.82-3.58-15.75,0-8.12,13.52-8.12,13.52Z"/><path class="cls-19" d="M517.56,298.66s-18.38,77.2-54.33,110.19c-31.18,28.63-113.66,8.69-126.88-7.86s0-123.24,0-123.24,3.16,54.41,48.87,17.23c10.49-8.53,22.87-15.93,61.68,2S517.56,298.66,517.56,298.66Z"/><path class="cls-17" d="M336.35,277.75A51.56,51.56,0,0,0,340,290.23a28.26,28.26,0,0,0,6.93,9.92,15.71,15.71,0,0,0,9.87,4c3.45-.08,6-1.53,8.55-4s5.08-5.77,8.06-9.35A55.15,55.15,0,0,1,385,279.9a38.71,38.71,0,0,1,8.43-4.25,38.28,38.28,0,0,1,4.74-1.34c.4-.1.81-.17,1.21-.25a8.09,8.09,0,0,1,1.28-.17c.91-.09,1.81-.12,2.71-.14a45.67,45.67,0,0,1,9.68,1.06c2.88.61,5.42,1.33,7.76,2,4.67,1.43,8.65,2.72,12.46,3.74a89,89,0,0,0,32.44,2.93c14.57-1.25,29.81-5.36,45.09-10.67h.05a20.42,20.42,0,0,1,13.45,38.57A198,198,0,0,1,496.47,319a140,140,0,0,1-30,2.66,106.76,106.76,0,0,1-30.77-5.17,114.39,114.39,0,0,1-14.1-5.74c-4.39-2.12-8.44-4.41-11.92-6.27-1.73-.94-3.31-1.77-4.65-2.39a32.82,32.82,0,0,0-3.24-1.35l-.59-.18c-.16,0-.54-.18-.8-.24a11.6,11.6,0,0,0-1.77-.38,13.44,13.44,0,0,0-4,.06,31.16,31.16,0,0,0-10.07,4c-3.74,2.06-7.72,4.75-12.62,7a28.8,28.8,0,0,1-8.1,2.32,20.84,20.84,0,0,1-8.48-.7c-1.32-.42-2.54-.82-3.75-1.34a23.59,23.59,0,0,1-3.47-1.86,22.73,22.73,0,0,1-5.63-5.19,31,31,0,0,1-5.62-13,43.12,43.12,0,0,1-.79-6.75A41.39,41.39,0,0,1,336.35,277.75Z"/><ellipse class="cls-18" cx="346.67" cy="228.01" rx="33.07" ry="24.05" transform="translate(5.51 464.18) rotate(-68.03)"/><ellipse class="cls-14" cx="348.07" cy="230.31" rx="25.08" ry="18.34" transform="translate(19.4 487.54) rotate(-71.54)"/><ellipse cx="348.07" cy="230.31" rx="14.29" ry="10.45" transform="translate(19.4 487.54) rotate(-71.54)"/><path class="cls-14" d="M432,216.44s-33.29-39.5-71.28-43.79-70.44,53.14-76.54,63.54c0,0,1.39-47.39,13-67.31s39.72-45,69.23-45C401.35,123.87,425.86,186.5,432,216.44Z"/><ellipse class="cls-19" cx="444.38" cy="230.45" rx="4.29" ry="6.01" transform="translate(-45.33 334.17) rotate(-39.37)"/><ellipse class="cls-19" cx="463.84" cy="245.39" rx="4.29" ry="6.01" transform="translate(-50.4 349.9) rotate(-39.37)"/><ellipse class="cls-19" cx="444.36" cy="251.78" rx="4.29" ry="6.01" transform="translate(-58.87 339) rotate(-39.37)"/><circle class="cls-20" cx="475.74" cy="182.11" r="11.68"/><circle class="cls-20" cx="488.72" cy="241.37" r="6.89"/><circle class="cls-20" cx="503.08" cy="210.52" r="7.95"/><path class="cls-20" d="M511,186.28a159.14,159.14,0,0,0,13-17c40.46,80.69,19.23,131.86,19.23,131.86C539.79,249.25,526.84,212.4,511,186.28Z"/><path class="cls-20" d="M421.18,97.5s61.41,5.12,95.63,58.87a126.69,126.69,0,0,1-13.4,18.54c-31.47-43.37-69.69-50.57-69.69-50.57C433.72,116.32,421.18,97.5,421.18,97.5Z"/><path class="cls-21" d="M269.06,231.38s-7.38,65.85,65.25,118.54c0,0-65.87-26.35-80.38-77.27S269.06,231.38,269.06,231.38Z"/><path class="cls-17" d="M365.78,182.93l-.21,8s-23-1.49-29.26,2.79a18.12,18.12,0,0,0-7.5,9.9s1.58-20.32,10.54-21.92S365.78,182.93,365.78,182.93Z"/></g><path id="l-thigh" class="cls-10" d="M345.81,660s-5.49,25.28,24.31,27c18.78,1.06,34-18.68,34-18.68,2.12-3.67,35.62-52.9,37.57-102.42,2.71-68.88-23.54-108.79-23.54-108.79S294,497.51,320.22,530.37C378.25,603,345.81,660,345.81,660Z"/><g id="l-calf"><path class="cls-10" d="M386.71,780.11s-3.87,33.47-9,39c-6.6,7.13-10.06,15.64-2.75,17.34s20.41.41,24.09-8.16S386.71,780.11,386.71,780.11Z"/><path class="cls-12" d="M384.08,797.87c.07,16.52,65.73-7,65.73-7s-21.74-34.49-30.47-61.75c-8.2-25.63-13.38-63.72-13.38-63.72s1.87-14.48-23.16-11.11c-18.71,2.52-35.36,20.14-35.36,20.14S383.9,756.83,384.08,797.87Z"/><path class="cls-12" d="M411.3,751c20.24-.73,21.14,12.16,38.86,39,5,7.49,14.42,16.77,25.52,21.4,28.6,11.93,67.6,13.83,64.91,29.21-1.75,9.95-14.36,10.67-30.25,9.06s-8.69-2.06-16-2.85c-.48,18-19.73,18.64-35.84,12.59-19.24-7.21-13.94-14-26.22-9.35s4.34,16.17-29.14,13.5c-18.51-1.47-24.67-24.12-21.31-85.33C383.18,753.11,411.3,751,411.3,751Z"/><path class="cls-11" d="M380.64,812.69s4.75-16.51,28-26.13c24.62-10.19,43,1.68,43,1.68L442,770.31s-15.31-12.2-38.13-2.42c-25.1,10.76-24.64,30.1-24.64,30.1Z"/></g><path id="tail" class="cls-10" d="M182.12,491.75s-15.52,96.58-22.87,135-97,71.63-88.47,134c3.31,24.37,11.2,27,11.2,27S87.9,756,103.44,744.46c23.25-17.31,66.95-26.33,102-61.72C244.7,643,243.77,618.05,317.27,558S205,400.36,182.12,491.75Z"/><g id="torso"><path class="cls-12" d="M329.12,558c59-5.86,113-78.75,148.84-148,0,0-59,74.69-141.54-9.17-49.45-50.24-82.63-70.77-82.63-70.77s-71.67,113.64-71.67,161.62,17.07,64.68,44.1,73.73S287.88,562.12,329.12,558Z"/><path class="cls-22" d="M441.91,446.56S413,501.13,373.23,533s-89,30.47-89,30.47"/><path class="cls-22" d="M330,423.13s-8.9,48.37,1.6,89.35-39.67,49.7-71.32,56.23"/><path class="cls-10" d="M253.65,308.5s-7.79-3.73-10.41,11.47c-3.25,18.81-7.79,14.56-1.66,28,3.61,8,31.19,10.84,58.76,53.5C322,435,377.16,467.16,403.51,467.29c0,0,13.82-38.62,18.37-53-36.47,0-80.7-5.24-120.43-61.77C270.77,308.88,253.65,308.5,253.65,308.5Z"/><path class="cls-10" d="M421.88,414.29c20.19.2,39.76-1.36,58.85-26.6l12.44-21.88a213.76,213.76,0,0,1,.31,25.07c-.61,14.7-9.94,28.45-18.72,41.38-8.27,12.18-43.15,34.5-71.25,35Z"/></g><path id="f-thigh" class="cls-12" d="M197.74,671.66s-11.57,23.15,16.9,32.14c17.93,5.66,37.57-9.71,37.57-9.71,3-3,47.58-42.46,61.7-90,19.63-66.07,15.37-89.75,8.21-116.73-21.2-79.94-155.31-33-117.18,52.36C242.86,624.66,197.74,671.66,197.74,671.66Z"/><g id="f-calf"><path class="cls-10" d="M228.81,799.64s-3.87,33.46-9,39c-6.61,7.14-10.07,15.64-2.76,17.35s20.42.41,24.09-8.17S228.81,799.64,228.81,799.64Z"/><path class="cls-12" d="M222.59,816.59c-1.27,16.48,66.08-1.67,66.08-1.67s-18.87-36.14-25.36-64c-6.1-26.21-8.64-71.64-8.64-71.64l-57.54,11.21S225.74,775.68,222.59,816.59Z"/><path class="cls-12" d="M251.25,771.71c20.21-1.22,21.44,11.64,39.81,38,5.14,7.36,14.82,16.41,26,20.76,28.88,11.23,67.92,12.16,65.6,27.6-1.5,10-14.08,11-30,9.8S344,866,336.6,865.4c0,18-19.27,19.12-35.53,13.48-19.4-6.74-14.28-13.61-26.44-8.71s4.74,16.06-28.79,14.22c-18.55-1-25-17.12-23.1-78.4C223.5,780.89,251.25,771.71,251.25,771.71Z"/><path class="cls-11" d="M221.36,832.69s5.1-15.19,28.11-25.38c24.35-10.79,43.06.62,43.06.62L282.4,790.25s-15.6-11.82-38.18-1.48c-24.82,11.37-23.88,30.69-23.88,30.69Z"/></g><g id="r-arm"><path class="cls-10" d="M208.8,409.87c-9.73,18.4,44.48,58.49,59.46,34.91s-2.17-50.31-18-51.53S219.21,390.2,208.8,409.87Z"/><path class="cls-11" d="M236.27,375.87s-33.48,42-51.44,64.89,4.9,46.53,26.13,37.55,45.51-29.39,59.79-49S283.62,348.55,236.27,375.87Z"/><path class="cls-12" d="M268.26,444.78s-4.11-34.16-27.89-44.09-31.57,9.18-31.57,9.18,22.45-42.29,38.62-43.69,29,5.15,35.92,24.12S285.42,423.34,268.26,444.78Z"/></g><g id="r-hand"><g class="cls-23"><path class="cls-14" d="M182.74,437.74s-20.29,34.33-37.93,42.5-22.89,16.89-18.18,20.41c6.41,4.79,18.55-2.46,21.1-.26,5.61,4.84-10.56,15.62,2.76,21.13,6.34,2.62,22.66-19.28,31.09-7.26,7.19,10.26,13.44,16.14,19.43,8.79,5.74-7-3.19-20.74,11.11-39.62.63-.83,12-8,12.77-8.81C244.88,451.08,214.73,426.12,182.74,437.74Z"/><path class="cls-24" d="M169.17,450.33s17.15-4.63,31-.68,21,19.72,16.41,30.61-4.17,19.47-4.17,19.47"/></g></g><g id="post"><rect class="cls-25" x="719.69" y="239.79" width="25.34" height="28.86"/><polygon class="cls-25" points="719.69 648.11 745.03 648.11 745.03 743.71 719.69 750.3 719.69 648.11"/><rect id="shadow" class="cls-26" x="719.69" y="648.11" width="25.34" height="11.52"/><polygon class="cls-25" points="732.26 200.95 746.18 214.86 746.18 228.83 732.46 242.54 718.54 228.62 718.53 214.68 732.26 200.95"/></g></g></svg>