<svg id="character_art" data-name="character art" xmlns="http://www.w3.org/2000/svg" xmlns:xlink="http://www.w3.org/1999/xlink" viewBox="0 0 1103 1000"><defs><style>.cls-1{fill:#ebf5a2;}.cls-2{fill:#8dc3d3;}.cls-3{fill:#9ae0e2;}.cls-4{fill:#b3e8e9;}.cls-5{fill:#67afc5;}.cls-6{fill:#02799e;}.cls-7{fill:#026684;}.cls-8{fill:#ff4280;}.cls-9{fill:#7333a3;}.cls-10{fill:#612b89;}.cls-11{fill:#7356a4;}.cls-12{fill:#8463be;}.cls-13{fill:#2e047a;}.cls-14{fill:#faaf3b;}.cls-15{fill:#fac26c;}.cls-16{fill:#f1f1f1;}.cls-17{fill:#a87df1;}.cls-18{fill:#612b88;}.cls-19,.cls-29{fill:none;stroke-miterlimit:10;}.cls-19{stroke:#853bbc;stroke-linecap:round;stroke-width:9.21px;}.cls-20{fill:#853bbc;}.cls-21{fill:#7333a2;}.cls-22{fill:#3b224d;}.cls-23{fill:#fff;}.cls-24{fill:#90bd4a;}.cls-25{fill:#261234;}.cls-26{fill:#8f5cb5;}.cls-27{fill:url(#radial-gradient);}.cls-28{fill:url(#radial-gradient-2);}.cls-29{stroke:#ed6100;stroke-width:2.3px;}.cls-30{fill:#ed6100;}.cls-31{fill:#5f9304;}</style><radialGradient id="radial-gradient" cx="487.72" cy="353.43" r="25.03" gradientUnits="userSpaceOnUse"><stop offset="0" stop-color="#e82169" stop-opacity="0.5"/><stop offset="1" stop-color="#e82169" stop-opacity="0"/></radialGradient><radialGradient id="radial-gradient-2" cx="603.41" cy="353.1" r="24.28" xlink:href="#radial-gradient"/></defs><g id="sky"><g id="clouds"><path class="cls-1" d="M618.28,345.08,248.77,411.25l-42.6,63.53,18.34,102.5C102.93,640.9,12.94,677,1.28,656.65-17.8,623.36,182.58,505.18,160.71,482.3c-19.66-20.58-76.49,23.22-93-.25C49.94,456.66,276.38,328,261,295.79c-10.07-21.06-98.08,21.7-117.79,2.62C76,233.32,631.82-40.24,670,5c13.25,15.7-63.45,61.3-50,73.09,15.61,13.59,180-71.32,192.06-59,7.42,7.58-52.4,56-44.63,68,13.86,21.32,215.23-70.86,230.08-51.64C1020.73,65.5,835.35,205.2,618.28,345.08Z"/><path class="cls-1" d="M914.1,418.06c15.88,16.72,149.19-36.26,153.35-24.69,13.18,36.78-279.65,258.36-473,342.4q-21.74-.56-43.6-.53-53.18,0-105.64,3c15.88-16.25,48.12-41.54,43.54-48.6-7.52-11.61-91.92,31.22-149.19,57.48q-25.35,2.82-50.52,6.39c15.16-26.53,87-86.64,182.17-157.47L857.3,526.88l42.61-63.55-25-139.75c121.45-73.82,216.36-121.74,227.53-104.45C1115.9,240,896.44,399.46,914.1,418.06Z"/></g><g id="stars"><circle class="cls-2" cx="459.62" cy="35.89" r="9.2"/><circle class="cls-2" cx="750.44" cy="692.13" r="5.75"/><circle class="cls-2" cx="102.88" cy="337.79" r="5.75"/><circle class="cls-2" cx="834.57" cy="276.49" r="9.2"/><circle class="cls-2" cx="982.73" cy="614.07" r="9.2"/><circle class="cls-2" cx="136.19" cy="411.98" r="9.2"/><path class="cls-2" d="M230.63,611.4a9.2,9.2,0,1,1-6.48-15.73,8.93,8.93,0,0,1,3.81.85Z"/><circle class="cls-2" cx="890.91" cy="297.37" r="5.75"/><circle class="cls-2" cx="822.05" cy="80.42" r="5.75"/></g></g><g id="land"><path id="land-2" data-name="land" class="cls-3" d="M841.67,865.28c-.37,28.71,170.12,29.93,172.17,68.53,2.23,41.73-170.79,66.19-399.22,66.19-110,0-377-10-376.09-27.68,1-18.41,72.37-21.73,71.82-32.74C309,913.19,63.81,896.82,63,871.14c-.39-12.73,50-19.56,50.23-36.57.19-11.75-23.63-18.9-79.1-27a1878.93,1878.93,0,0,1,1034.26.25v.09C923.83,823.6,841.9,844.59,841.67,865.28Z"/><g id="highlight"><path class="cls-4" d="M809.27,946.41c8.69,1.61,14,3.77,14,6.14,0,5-24.21,9.15-54.05,9.15s-54-4.11-54-9.15c0-3.4,10.9-6.34,27.08-7.93-24.3-2.6-40.44-7.17-40.44-12.39,0-8.07,38.65-14.6,86.33-14.6s86.33,6.53,86.33,14.6C874.43,939.06,846.7,944.8,809.27,946.41Z"/><ellipse class="cls-4" cx="833.71" cy="906.57" rx="27.02" ry="4.57"/><ellipse class="cls-4" cx="268.18" cy="826.49" rx="44.64" ry="7.56"/></g><g id="shadows"><path id="shadow" class="cls-5" d="M942,817.67S836,807.3,762,807.3c-50.22,0-163.17,9.91-172.18.44-7.48-7.87,28-21.38,60.68-21.41h.09A2268.26,2268.26,0,0,1,942,817.67Z"/><path id="shadow-2" data-name="shadow" class="cls-5" d="M162.18,817.21a.18.18,0,0,0,.1,0l-.1,0c-23.84,0-53.95,6.12-53.95-3.26,0-5,23.65-15.43,58-24Q163.7,803.33,162.18,817.21Z"/><ellipse id="shadow-3" data-name="shadow" class="cls-5" cx="417.84" cy="878.23" rx="86.33" ry="14.61"/><ellipse id="shadow-4" data-name="shadow" class="cls-5" cx="671.93" cy="878.23" rx="86.33" ry="14.61"/></g><g id="rocks"><g id="rock"><path class="cls-6" d="M338.93,793.9q-36.58,3.38-72.76,7.88-52.49,6.53-104,15.43c8-73,35.55-133.59,83.48-180.91l15.79-2.83,6.19-1.1,51.95,59.68Z"/><polygon class="cls-3" points="319.59 692.05 281.64 753.27 261.45 633.48 267.64 632.37 319.59 692.05"/><path class="cls-7" d="M338.93,793.9q-36.58,3.38-72.76,7.88l15.47-48.51,37.95-61.22Z"/></g><g id="rock-2" data-name="rock"><path class="cls-7" d="M809.18,798.66q-44.41-5-89.45-8.33l6.87-40.78,53.06-4.41Z"/><path class="cls-6" d="M726.6,749.55l-6.87,40.78q-34.38-2.51-69.11-4l15-53.1,23.64-25.29Z"/><polygon class="cls-3" points="689.24 707.93 726.61 749.55 779.66 745.13 689.24 707.93"/></g><g id="rock-3" data-name="rock"><path class="cls-6" d="M919.81,742.54l-1.29,71.17q-74.49-12.13-151-19.35v-8.1c0-78.18,37.42-145.52,100-219.48Z"/><polygon class="cls-3" points="959.94 690.51 907.63 581.68 867.56 566.78 919.81 742.54 959.94 690.51"/><path class="cls-7" d="M959.93,690.51,942,817.67q-11.73-2-23.52-4l1.29-71.17Z"/></g></g></g><g id="character"><g id="hearts"><path class="cls-8" d="M706.6,164.28c0,.17-.08.34-.13.5-3.27,11.65-22.33,12.62-22.33,12.62s-16.63-9.37-14.36-21.25c0-.17.07-.34.11-.51a10.1,10.1,0,0,1,19.51-.59,10.1,10.1,0,0,1,17.2,9.23Z"/><path class="cls-8" d="M381.3,167.87a4,4,0,0,1,.21.47c4.8,11.11-9.41,23.86-9.41,23.86s-18.82,3.18-24.54-7.48c-.07-.15-.16-.31-.23-.46a10.11,10.11,0,0,1,14.8-12.74,10.1,10.1,0,0,1,19.17-3.65Z"/><path class="cls-8" d="M608.62,92.47c0,.11,0,.22,0,.33,1.06,7.87-10.17,13.43-10.17,13.43s-12.46-1.31-14.19-9.07c0-.11,0-.22-.07-.33a6.64,6.64,0,0,1,11.61-5.44,6.63,6.63,0,0,1,12.77,1.08Z"/><path class="cls-8" d="M313.11,256.23c0,.11-.07.22-.1.32-2.54,7.53-15.07,7.52-15.07,7.52s-10.59-6.71-8.69-14.43c0-.1.05-.21.08-.32a6.63,6.63,0,0,1,12.81.28,6.63,6.63,0,0,1,11,6.63Z"/></g><g id="character-2" data-name="character"><g id="legs"><g id="l-leg"><path class="cls-9" d="M500.43,621A249.33,249.33,0,0,0,471.17,725.4l-44.72,2.83a307.3,307.3,0,0,1,5.77-125.55l14.51-2.6Z"/><path class="cls-10" d="M423.09,667a26.74,26.74,0,0,0,6.06,9,21.13,21.13,0,0,0,18.57,5.9,26.78,26.78,0,0,0,10.12-3.8,16.84,16.84,0,0,1-9.22,7.31,19.34,19.34,0,0,1-22.22-7.07A17,17,0,0,1,423.09,667Z"/></g><g id="r-leg"><path class="cls-9" d="M657.16,595.24a307.49,307.49,0,0,1,7.76,133l-44.7-2.83A249.25,249.25,0,0,0,590.94,621Z"/><path class="cls-10" d="M668.29,667A16.84,16.84,0,0,1,665,678.3a19.33,19.33,0,0,1-22.21,7.07,16.83,16.83,0,0,1-9.23-7.31,26.78,26.78,0,0,0,10.12,3.8,21.11,21.11,0,0,0,18.57-5.9A26.45,26.45,0,0,0,668.29,667Z"/></g><g id="r-shoe"><path class="cls-11" d="M700.32,884.67l17.89-2.51a15,15,0,0,0,13.06-17l-1.44-9.55-48.51,6.82,1.44,9.56A15.43,15.43,0,0,0,700.32,884.67Z"/><path class="cls-11" d="M643.86,883.48l-17.77-3.27a15,15,0,0,1-12.33-17.5l1.85-9.49,48.18,8.86-1.85,9.49A15.42,15.42,0,0,1,643.86,883.48Z"/><path class="cls-12" d="M589.22,820.39l.49-16.71c.24-7.89,7.68-14.18,16.64-14.06l10.45.15-1.34,45.28L605,834.9C596.05,834.77,589,828.28,589.22,820.39Z"/><path class="cls-12" d="M602.49,840a103,103,0,0,0,3.6,11.31c9.52,24.92,126.6,31.52,143.95,3a29.4,29.4,0,0,0,2.54-10.19c2.27-39.85-84.59-69.38-84.59-69.38l-60.26-1.27C598.72,795.62,597,818.39,602.49,840Z"/><path class="cls-13" d="M602.49,840c27.5,16.52,116.87,20.75,150.09,4.16,2.27-39.85-84.59-69.38-84.59-69.38l-60.26-1.27C598.72,795.62,597,818.39,602.49,840Z"/><path class="cls-14" d="M613.62,780.86a170.76,170.76,0,0,0,58.11,0c13.58-2.33,21.46-14,18-23.72h0c-3.46-9.79-14.23-14.94-24.35-13.25a133.43,133.43,0,0,1-45.37,0c-10.12-1.69-20.89,3.46-24.35,13.25h0C592.17,766.88,600,778.53,613.62,780.86Z"/><path class="cls-15" d="M613.62,756.61a171.27,171.27,0,0,0,58.11,0c13.58-2.34,21.46-14,18-23.73h0c-3.46-9.79-14.23-14.94-24.35-13.25a133.43,133.43,0,0,1-45.37,0c-10.12-1.69-20.89,3.46-24.35,13.25h0C592.17,742.62,600,754.27,613.62,756.61Z"/></g><g id="l-shoe"><path class="cls-11" d="M391.06,884.67l-17.89-2.51a15,15,0,0,1-13.06-17l1.45-9.55,48.51,6.82L408.62,872A15.43,15.43,0,0,1,391.06,884.67Z"/><path class="cls-11" d="M447.52,883.48l17.77-3.27a15,15,0,0,0,12.34-17.5l-1.85-9.49-48.18,8.86,1.85,9.49A15.41,15.41,0,0,0,447.52,883.48Z"/><path class="cls-12" d="M502.17,820.39l-.5-16.71c-.24-7.89-7.68-14.18-16.63-14.06l-10.46.15,1.35,45.28,10.45-.15C495.33,834.77,502.4,828.28,502.17,820.39Z"/><path class="cls-12" d="M488.89,840a100.94,100.94,0,0,1-3.6,11.31c-9.52,24.92-126.6,31.52-144,3a29.16,29.16,0,0,1-2.53-10.19c-2.28-39.85,84.58-69.38,84.58-69.38l60.26-1.27C492.66,795.62,494.42,818.39,488.89,840Z"/><path class="cls-13" d="M488.89,840c-27.5,16.52-116.87,20.75-150.08,4.16-2.28-39.85,84.58-69.38,84.58-69.38l60.26-1.27C492.66,795.62,494.42,818.39,488.89,840Z"/><path class="cls-14" d="M477.76,780.86a170.76,170.76,0,0,1-58.11,0c-13.58-2.33-21.45-14-18-23.72h0c3.46-9.79,14.24-14.94,24.36-13.25a133.37,133.37,0,0,0,45.36,0c10.12-1.69,20.89,3.46,24.36,13.25h0C499.22,766.88,491.34,778.53,477.76,780.86Z"/><path class="cls-15" d="M477.76,756.61a171.27,171.27,0,0,1-58.11,0c-13.58-2.34-21.45-14-18-23.73h0c3.46-9.79,14.24-14.94,24.36-13.25a133.37,133.37,0,0,0,45.36,0c10.12-1.69,20.89,3.46,24.36,13.25h0C499.22,742.62,491.34,754.27,477.76,756.61Z"/></g></g><g id="body"><path class="cls-12" d="M634.62,626c-32.46,18.73-68.28,17.52-80-2.74-7.06-12.21-3.72-28.55,7.13-43.72l112.39-20.14C681.73,579.57,665,608.4,634.62,626Z"/><path class="cls-12" d="M536.76,623.23c-11.71,20.26-47.52,21.47-80,2.74a100.36,100.36,0,0,1-27.31-22.79L533,584.66C541.1,598.29,543,612.38,536.76,623.23Z"/><path class="cls-13" d="M658.16,562.24a152.83,152.83,0,0,1-182.6,32.69Z"/><path class="cls-16" d="M638.74,565.71c-15.08,29.5-50.23,51.22-93,51.22-26.9,0-50.79-8.57-68.58-22.27Z"/><path class="cls-17" d="M520.46,362.34,405.81,382.87a29.91,29.91,0,0,1,5.7-14.62,15.56,15.56,0,0,1,.92-1.26c0-.05.07-.09.09-.14a28.61,28.61,0,0,1,26.57-11.13Q479.76,361.08,520.46,362.34Z"/></g><g id="head"><path class="cls-18" d="M356.29,254.3,344.2,297.61l12.09,43.31c0-36.09,60.2-28.34,60.2-28.34V282.65S356.29,290.39,356.29,254.3Z"/><path class="cls-19" d="M352.24,252.2h0a166,166,0,0,0,0,90.82h0"/><path class="cls-18" d="M746.84,297.61l-7.11,25.47L729.23,325c-14.88-17.52-54.7-12.39-54.7-12.39V282.64s60.21,7.75,60.21-28.35Z"/><path class="cls-20" d="M748,321.58l-9.56,1.73a161.25,161.25,0,0,0-4.1-69.84,4.61,4.61,0,1,1,8.86-2.53A170.81,170.81,0,0,1,748,321.58Z"/><path class="cls-21" d="M677,318.87c-1.31,4.69-.82,10.16-.59,15.54l-228.75,41a30.86,30.86,0,0,0-5.29-8.16c-6.94-7.13-20.44-9.24-25.4-17.63s-.28-21.22-2.92-30.72c-2.6-9.33-13.27-17.84-13.27-27.86s10.67-18.53,13.27-27.89S412,240.89,417,232.41s18.46-10.51,25.4-17.64c6.76-6.94,8.41-20.46,16.76-26,8.09-5.29,21.2-1.47,30.51-5.15,9-3.56,15.81-15.36,25.68-17.2,9.47-1.77,20.14,6.69,30.2,6.69s20.74-8.46,30.21-6.69c9.87,1.84,16.72,13.64,25.71,17.2,9.28,3.68,22.39-.14,30.48,5.15,8.34,5.49,10,19,16.76,26,6.94,7.13,20.44,9.25,25.4,17.64s.28,21.22,2.92,30.73c2.6,9.34,13.27,17.82,13.27,27.87S679.59,309.54,677,318.87Z"/><path class="cls-10" d="M482.59,221.48a5.86,5.86,0,0,0-6.27-.49,10.88,10.88,0,0,0-2.8,1.77,12.44,12.44,0,0,0-2.15,2.51c-1.31,1.87-2.39,4-3.83,6a19,19,0,0,1-2.55,3,14.75,14.75,0,0,1-3.34,2.28c-2.35,1.18-4.73,1.91-6.79,2.78a25.44,25.44,0,0,0-2.86,1.34,10.83,10.83,0,0,0-2.3,1.65,12.45,12.45,0,0,0-3.27,5,14.2,14.2,0,0,0-.69,6.6l-.42.18a10.65,10.65,0,0,1-2.07-7.4,13,13,0,0,1,3.11-7.55,12.24,12.24,0,0,1,3.33-2.68A17.46,17.46,0,0,1,453.4,235a60.09,60.09,0,0,0,6.71-1.82,11,11,0,0,0,2.69-1.5,15.42,15.42,0,0,0,2.32-2.26c1.48-1.69,2.8-3.71,4.44-5.59a14.58,14.58,0,0,1,2.84-2.57,12.62,12.62,0,0,1,3.44-1.63,8.43,8.43,0,0,1,3.8-.29,5.55,5.55,0,0,1,3.28,1.8Z"/><path class="cls-10" d="M608.11,221.16a5.58,5.58,0,0,1,3.28-1.8,8.42,8.42,0,0,1,3.8.29,12.62,12.62,0,0,1,3.44,1.63,14.58,14.58,0,0,1,2.84,2.57c1.64,1.88,3,3.9,4.44,5.59a15.42,15.42,0,0,0,2.32,2.26,11,11,0,0,0,2.69,1.5,60.69,60.69,0,0,0,6.71,1.82,17.46,17.46,0,0,1,3.71,1.45,12.24,12.24,0,0,1,3.33,2.68,13,13,0,0,1,3.11,7.55,10.65,10.65,0,0,1-2.07,7.4l-.42-.18a14.2,14.2,0,0,0-.69-6.6,12.45,12.45,0,0,0-3.27-5,10.83,10.83,0,0,0-2.3-1.65,25.44,25.44,0,0,0-2.86-1.34c-2.06-.87-4.44-1.6-6.79-2.78a15,15,0,0,1-3.34-2.28,19,19,0,0,1-2.55-3c-1.44-2.06-2.52-4.17-3.83-6a12.44,12.44,0,0,0-2.15-2.51,10.88,10.88,0,0,0-2.8-1.77,5.86,5.86,0,0,0-6.27.49Z"/><path class="cls-10" d="M472.57,367a4.13,4.13,0,0,1-2.4,1.32,6.08,6.08,0,0,1-2.78-.22,9.63,9.63,0,0,1-4.6-3.07c-2.36-2.77-4-5.85-6.92-6.85a46.46,46.46,0,0,0-4.91-1.33,12.66,12.66,0,0,1-2.71-1.06,8.85,8.85,0,0,1-2.44-2,9.54,9.54,0,0,1-2.28-5.53,7.85,7.85,0,0,1,1.51-5.42l.31.13a9.81,9.81,0,0,0,2.9,8.5,11.86,11.86,0,0,0,3.78,2.18c1.51.65,3.25,1.15,5,2a10.89,10.89,0,0,1,2.44,1.67,13.4,13.4,0,0,1,1.87,2.16c1.05,1.52,1.84,3.06,2.8,4.43a9.34,9.34,0,0,0,1.58,1.83,7.83,7.83,0,0,0,2.05,1.3,4.29,4.29,0,0,0,4.59-.36Z"/><path class="cls-10" d="M520.16,204.67a9.83,9.83,0,0,1,2.84-7.6,9.17,9.17,0,0,1,3.94-2.15,12.24,12.24,0,0,1,4.45-.22c2.82.33,5.35,1.17,7.72,1.65a13,13,0,0,0,6.6,0c2.23-.55,4.55-1.58,7.11-2.46a26.5,26.5,0,0,1,4.06-1.06,13.66,13.66,0,0,1,12,3.93,16.28,16.28,0,0,1,4,7,21.34,21.34,0,0,0-5.4-5.26,12.35,12.35,0,0,0-6.5-2.09,11.46,11.46,0,0,0-3.26.38,29.12,29.12,0,0,0-3.38,1.19,56.53,56.53,0,0,1-7.51,2.82,16.57,16.57,0,0,1-4.44.52,17.9,17.9,0,0,1-4.32-.71c-2.67-.74-5-1.75-7.3-2.33a10.53,10.53,0,0,0-3.29-.37,7.42,7.42,0,0,0-3.1,1C522.4,200,521,202.19,520.16,204.67Z"/><path class="cls-22" d="M541.9,340.46c-1.23-.55-2.34-1.1-3.44-1.65s-2.2-1-3.29-1.52-2.19-.93-3.33-1.36-2.3-.79-3.56-1.31a9,9,0,0,1,4-.45,11.74,11.74,0,0,1,3.86,1,12.75,12.75,0,0,1,3.35,2.14A9.4,9.4,0,0,1,541.9,340.46Z"/><path class="cls-22" d="M549.13,340.46a9.4,9.4,0,0,1,2.45-3.13,12.91,12.91,0,0,1,3.35-2.14,11.74,11.74,0,0,1,3.86-1,9,9,0,0,1,4,.45c-1.26.52-2.43.85-3.56,1.31s-2.24.87-3.33,1.36-2.18,1-3.29,1.52S550.36,339.91,549.13,340.46Z"/><path class="cls-22" d="M572.83,350.67a26.52,26.52,0,0,1-5.43,3.26l-20.76,3.72-1.1,0a75.18,75.18,0,0,1-14.12-1.81,52.12,52.12,0,0,1-13.22-5l.16-.28a51.2,51.2,0,0,0,13.38,3.66,71.74,71.74,0,0,0,13.8.78,126.41,126.41,0,0,0,13.61-1.66,105.44,105.44,0,0,0,13.52-2.94Z"/><path class="cls-22" d="M519.83,305.71s-23.57-38.59-63.89-3C455.94,302.69,490.6,354.26,519.83,305.71Z"/><path class="cls-23" d="M518.15,305.64s-20.11-35.3-57.25-2.53C460.9,303.11,488.24,345.1,518.15,305.64Z"/><circle class="cls-24" cx="493.75" cy="304.87" r="15.71"/><path class="cls-25" d="M493.11,296a12.17,12.17,0,0,1,3.37,4.37,13.2,13.2,0,0,1,1.2,4.54,13,13,0,0,1-.45,4.68,12,12,0,0,1-2.63,4.85,12.09,12.09,0,0,1-3.38-4.37,13.33,13.33,0,0,1-.73-9.22A12.32,12.32,0,0,1,493.11,296Z"/><path class="cls-21" d="M449.9,296c.84,4.79,6.33,6.14,11.19,5.92s9.36-2.43,14-3.75A39.25,39.25,0,0,1,500,299.34c4.12,1.61,8,3.93,12.23,5.13s9.26,1.06,12.61-1.83,3.66-10.28-.09-12.63L519,287c-9.82-5.52-20.74-7.2-32-6.77h0c-13.25.5-21.64,3.13-31.91,11.52Z"/><path class="cls-22" d="M449.9,296a7.73,7.73,0,0,0,3.64,4.19,11.9,11.9,0,0,0,5.22,1.46,13.17,13.17,0,0,0,2.67-.14,17.84,17.84,0,0,0,2.67-.63,49.27,49.27,0,0,0,5.29-2A45.33,45.33,0,0,1,481,295a39.77,39.77,0,0,1,12.37-.12,42.12,42.12,0,0,1,6.05,1.41,53.57,53.57,0,0,1,5.67,2.26c3.58,1.63,7,3.27,10.45,3.79a14.17,14.17,0,0,0,5.2-.17,9.17,9.17,0,0,0,2.39-.89,7.08,7.08,0,0,0,2-1.54,7.58,7.58,0,0,0,1.85-4.81,5.87,5.87,0,0,0-2.16-4.94,5.32,5.32,0,0,1,2.31,1.93,7.33,7.33,0,0,1,1.13,2.92,9.09,9.09,0,0,1-1.32,6.25,10.59,10.59,0,0,1-5.27,4,16.1,16.1,0,0,1-6.43.86,20.18,20.18,0,0,1-3.19-.41,30.49,30.49,0,0,1-3-.81c-2-.63-3.81-1.41-5.62-2.13s-3.53-1.42-5.3-1.93a36.49,36.49,0,0,0-5.39-1.19,40,40,0,0,0-11-.13,38.78,38.78,0,0,0-5.44,1.08c-1.79.5-3.61,1.13-5.49,1.75-3.73,1.22-7.89,2.48-12.19,1.67a13,13,0,0,1-5.66-2.65A7.72,7.72,0,0,1,449.9,296Z"/><path class="cls-26" d="M455.08,291.76a27.86,27.86,0,0,1,5.86-6.55,37,37,0,0,1,7.5-4.81,40.71,40.71,0,0,1,8.46-3,45.48,45.48,0,0,1,8.92-1.07,52.1,52.1,0,0,1,17.52,2.83A60.51,60.51,0,0,1,519,287a152.14,152.14,0,0,0-16.45-5,68.65,68.65,0,0,0-16.63-1.87,49.28,49.28,0,0,0-16.29,3,46.53,46.53,0,0,0-7.59,3.6A41.31,41.31,0,0,0,455.08,291.76Z"/><path class="cls-22" d="M570.47,305.71s23.57-38.59,63.88-3C634.35,302.69,599.69,354.26,570.47,305.71Z"/><path class="cls-23" d="M572.14,305.64s20.11-35.3,57.25-2.53C629.39,303.11,602.05,345.1,572.14,305.64Z"/><circle class="cls-24" cx="596.54" cy="304.87" r="15.71"/><path class="cls-25" d="M597.18,296a12.35,12.35,0,0,1,2.63,4.85,13.2,13.2,0,0,1,.45,4.68,12.69,12.69,0,0,1-1.19,4.54,12.17,12.17,0,0,1-3.37,4.37,12.19,12.19,0,0,1-2.64-4.85,12.94,12.94,0,0,1-.44-4.68,13.18,13.18,0,0,1,1.19-4.54A12.28,12.28,0,0,1,597.18,296Z"/><path class="cls-21" d="M640.4,296c-.84,4.79-6.34,6.14-11.2,5.92s-9.36-2.43-14-3.75a39.21,39.21,0,0,0-24.84,1.22c-4.13,1.61-8,3.93-12.24,5.13s-9.26,1.06-12.61-1.83-3.66-10.28.09-12.63l5.75-3c9.82-5.52,20.74-7.2,32-6.77h0c13.24.5,21.63,3.13,31.9,11.52Z"/><path class="cls-22" d="M640.4,296a7.79,7.79,0,0,1-2.91,5.23,13,13,0,0,1-5.66,2.65c-4.31.81-8.47-.45-12.2-1.67-1.88-.62-3.7-1.25-5.48-1.75a38.91,38.91,0,0,0-5.45-1.08,40,40,0,0,0-11,.13,36.77,36.77,0,0,0-5.39,1.19c-1.76.51-3.49,1.21-5.3,1.93s-3.65,1.5-5.62,2.13a29.08,29.08,0,0,1-3,.81,20.18,20.18,0,0,1-3.19.41,16.1,16.1,0,0,1-6.43-.86,10.59,10.59,0,0,1-5.27-4,9.08,9.08,0,0,1-1.31-6.25,7.32,7.32,0,0,1,1.12-2.92,5.37,5.37,0,0,1,2.31-1.93A5.87,5.87,0,0,0,563.4,295a7.6,7.6,0,0,0,1.85,4.81,7.08,7.08,0,0,0,2,1.54,9.31,9.31,0,0,0,2.39.89,14.17,14.17,0,0,0,5.2.17c3.48-.52,6.88-2.16,10.45-3.79a55.33,55.33,0,0,1,5.67-2.26A42,42,0,0,1,597,294.9a39.78,39.78,0,0,1,12.37.12,45.13,45.13,0,0,1,11.55,3.79,48.62,48.62,0,0,0,5.3,2,18,18,0,0,0,2.66.63,13.21,13.21,0,0,0,2.67.14,12,12,0,0,0,5.23-1.46A7.77,7.77,0,0,0,640.4,296Z"/><path class="cls-26" d="M635.21,291.76a40.91,40.91,0,0,0-6.94-5,46.14,46.14,0,0,0-7.59-3.6,49.22,49.22,0,0,0-16.28-3,68.68,68.68,0,0,0-16.64,1.87,152.14,152.14,0,0,0-16.45,5A60.51,60.51,0,0,1,587,279.17a52.1,52.1,0,0,1,17.52-2.83,45.48,45.48,0,0,1,8.92,1.07,40.8,40.8,0,0,1,8.47,3,36.92,36.92,0,0,1,7.49,4.81A27.64,27.64,0,0,1,635.21,291.76Z"/></g><g id="blush"><path class="cls-27" d="M512.71,353.42a24.75,24.75,0,0,1-2.44,10.74l-39.86,7.15a24.94,24.94,0,1,1,42.3-17.89Z"/><path class="cls-28" d="M626.07,343.42,578.37,352a24.91,24.91,0,0,1,47.7-8.56Z"/></g><g id="sign"><g id="sign-2" data-name="sign"><polygon class="cls-29" points="218.27 477.06 255.57 421.45 861.25 312.99 887.67 460.52 850.38 516.15 244.69 624.58 218.27 477.06"/></g><path class="cls-30" d="M316.43,476.62c-7.42-.63-12.75-5.79-14.27-14.34l-2.35-13.18,10.74-1.91,2.53,14.16c.65,3.66,3.25,5.9,7,5.23,4.09-.73,5.45-3.68,4.8-7.34l-2.53-14.16,10.81-1.93,2.34,13.19c1.52,8.48-1.64,15.15-8.32,18.29l2.9,16.3-10.8,1.93Z"/><path class="cls-30" d="M345.93,464.5c-2.5-14,5.33-25.57,19.06-28s25.13,5.67,27.63,19.7-5.39,25.59-19.13,28C359.46,486.71,348.43,478.54,345.93,464.5Zm35.69-6.42c-1.52-8.55-7.23-13.38-14.92-12s-11.32,7.87-9.8,16.41,7.23,13.39,14.86,12S383.16,466.75,381.62,458.08Z"/><path class="cls-30" d="M410.45,429.39l6.47,36.32,13.67-2.44L424.12,427,434.86,425,443,470.82l-35.16,6.26-8.15-45.77Z"/><path class="cls-30" d="M493.27,452.05l-11.2-16.21-.25,0,4.84,27.17-10.31,1.83-8.16-45.77,13.19-2.35,13.77,20.78.25,0,6.3-24.36,12.51-2.23,8.16,45.78-10.26,1.82-4.84-27.16-.24,0-5,19.09Z"/><path class="cls-30" d="M560.82,402.61,569,448.38l-10.75,1.92-2.48-14-11.91,2.12,2.49,14-10.74,1.91-8.15-45.78ZM542.18,429.1l11.9-2.12-2.34-13.12L539.84,416Z"/><path class="cls-30" d="M574,400.25l10.74-1.91L588,416.53a14,14,0,0,0,2.29-.22c6.29-1.12,8.83-5.92,7.73-12.15-.45-2.5-1-5.54-1.6-7.9l10.74-1.91c.56,2.42,1.09,5,1.48,7.23,1.52,8.54-.56,15.59-6.38,20l16,18-12.94,2.31L591.85,426l-.67.12a10,10,0,0,1-1.42.19l3.18,17.83L582.19,446Z"/><path class="cls-30" d="M642.42,436.31c-10.56,1.88-18-2.65-19.43-10.46-1-5.86,1.19-10.29,6-13a10.92,10.92,0,0,1-8.57-9.24c-1.32-7.39,4.05-13.32,13.81-15.06,7-1.25,11.87.85,14.43,2.85l-4.27,8.19A11,11,0,0,0,636,398c-4.21.75-5.58,3-5.14,5.45.53,2.93,3.52,4.54,8.47,3.66l6.22-1.11,1.6,9-7.08,1.26c-4.7.84-7,3.26-6.43,6.31s3.26,4.9,7.53,4.14a10.81,10.81,0,0,0,7.38-4.21l6.56,6.07C654,430.91,650.42,434.88,642.42,436.31Z"/><path class="cls-30" d="M711.81,385.35l6.49,36.43-10.8,1.93L701,387.27l-10.44,1.86,6.49,36.44-10.8,1.92-8.16-45.77,53.29-9.5L739.54,418l-10.8,1.92-6.49-36.43Z"/><path class="cls-30" d="M760.66,396.48l-20.35-25.84,12-2.15,11.84,16.6.24,0,5.38-19.66,12-2.13-10.27,31.43,3,17.09-10.8,1.92Z"/><path class="cls-30" d="M364.21,533.54l-.25,0L361.28,561,350.9,562.8l-18.83-43.87,11.53-2.06,10,26.43.24,0,2.15-28.6,9.22-1.64L377,539.13l.24,0,.26-28.25,11.41-2-2.46,47.67-10.44,1.86Z"/><path class="cls-30" d="M398.29,507.13,409,505.22l3.23,18.12L427,520.72l-3.23-18.12,10.74-1.92,8.16,45.78-10.75,1.91-3.25-18.25-14.71,2.62L417.18,551l-10.74,1.92Z"/><path class="cls-30" d="M447.67,498.33,475,493.47l1.66,9.34-16.54,2.95,1.57,8.79L477,511.82,478.6,521l-15.32,2.73,1.61,9,16.84-3,1.69,9.47-27.59,4.91Z"/><path class="cls-30" d="M487.15,491.3l27.29-4.86,1.66,9.34-16.54,3,1.57,8.78,15.32-2.72,1.63,9.15-15.32,2.73,1.61,9,16.84-3,1.69,9.46-27.59,4.92Z"/><path class="cls-30" d="M526.63,484.27l10.75-1.92,6.47,36.32,14.7-2.62,1.69,9.46L534.79,530Z"/><path class="cls-30" d="M577.65,491.05l9.55,3.71c4.12,1.6,8.51,4.66,9.68,11.25,1.46,8.18-3.87,14.67-12.78,16.26-9.71,1.73-15.52-3.35-18-10.34l8.7-5.26c1,2.64,3.53,6.73,7.8,6a3.8,3.8,0,0,0,3.42-4.51c-.29-1.65-1.15-2.94-3.93-4l-8.32-3.24c-3.92-1.51-8.73-3.42-10-10.81-1.21-6.77,3-13.95,11.78-15.51,8.3-1.48,13.68,1.85,16.91,8.32l-8.6,5.06c-2.32-3.8-4.63-4.4-6.83-4-1.89.34-3.27,1.78-2.93,3.67S575.83,490.37,577.65,491.05Z"/><path class="cls-30" d="M637.78,480.34l9.54,3.71c4.12,1.6,8.51,4.66,9.68,11.25,1.46,8.18-3.87,14.67-12.78,16.26-9.71,1.73-15.52-3.35-18-10.34L635,496c1,2.64,3.53,6.73,7.81,6a3.79,3.79,0,0,0,3.41-4.51c-.29-1.65-1.15-2.94-3.93-4l-8.32-3.24c-3.92-1.51-8.73-3.42-10-10.81-1.2-6.77,3-13.94,11.79-15.51,8.3-1.48,13.68,1.85,16.91,8.32L644,477.22c-2.32-3.8-4.63-4.4-6.82-4-1.9.34-3.28,1.78-2.94,3.67S636,479.66,637.78,480.34Z"/><path class="cls-30" d="M701,484.51l-22.46,4L681.29,504l-10.75,1.91-8.15-45.77,33.2-5.92Zm-14.48-19.09-11.72,2.09,2.09,11.78,11.72-2.09Z"/><path class="cls-30" d="M708.06,452,718.8,450,727,495.81l-10.75,1.92Z"/><path class="cls-30" d="M767,488.68l-21.14-23.57-.24.05,4.72,26.49L740,493.48l-8.15-45.77,11-2,21,23.6.24-.05-4.72-26.49L769.61,441l8.15,45.77Z"/></g><g id="fingers"><path class="cls-31" d="M242.66,566.28a8.9,8.9,0,0,0-8.13-7.32,8.89,8.89,0,0,0-3-17,8.88,8.88,0,0,0-3-17,8.91,8.91,0,0,0-5.21-16.9l-15.21,2.69a8.91,8.91,0,0,0,.9,17.66,8.89,8.89,0,0,0,3,17,8.89,8.89,0,0,0,3,17,8.91,8.91,0,0,0,5.21,16.9l15.21-2.69A8.92,8.92,0,0,0,242.66,566.28Z"/><rect class="cls-24" x="196.54" y="510.01" width="33.3" height="17.85" rx="8.93" transform="translate(513.44 992.83) rotate(169.98)"/><rect class="cls-24" x="199.54" y="526.99" width="33.3" height="17.85" rx="8.93" transform="translate(522.35 1026.02) rotate(169.98)"/><rect class="cls-24" x="202.54" y="543.97" width="33.3" height="17.85" rx="8.93" transform="translate(531.27 1059.2) rotate(169.98)"/><rect class="cls-24" x="205.54" y="560.96" width="33.3" height="17.85" rx="8.93" transform="translate(540.18 1092.39) rotate(169.98)"/><path class="cls-31" d="M903.52,409.39a8.91,8.91,0,0,0-8.13-7.32,8.89,8.89,0,0,0-3-17,8.89,8.89,0,0,0-3-17,8.91,8.91,0,0,0-5.2-16.9L869,353.9a8.91,8.91,0,0,0,.91,17.66,8.88,8.88,0,0,0,3,17,8.88,8.88,0,0,0,3,17,8.91,8.91,0,0,0,5.21,16.9l15.21-2.68A8.93,8.93,0,0,0,903.52,409.39Z"/><rect class="cls-24" x="865.18" y="351.84" width="33.3" height="17.85" rx="8.93" transform="translate(-49.25 158.61) rotate(-10)"/><rect class="cls-24" x="868.17" y="368.82" width="33.3" height="17.85" rx="8.93" transform="translate(-52.15 159.39) rotate(-10)"/><rect class="cls-24" x="871.17" y="385.81" width="33.3" height="17.85" rx="8.93" transform="translate(-55.06 160.16) rotate(-10)"/><rect class="cls-24" x="874.16" y="402.79" width="33.3" height="17.85" rx="8.93" transform="translate(-57.96 160.94) rotate(-10)"/></g></g></g></svg>