<svg id="character_art" data-name="character art" xmlns="http://www.w3.org/2000/svg" xmlns:xlink="http://www.w3.org/1999/xlink" viewBox="0 0 1103 1000"><defs><style>.cls-1,.cls-15,.cls-18,.cls-21,.cls-22,.cls-9{fill:none;}.cls-2{fill:#c7fce2;}.cls-3{fill:#e5badb;}.cls-4{fill:#bb48a0;}.cls-5{fill:#c35fac;}.cls-6{fill:#891b6a;}.cls-7{fill:#dda3cf;}.cls-8{fill:#520551;}.cls-9{stroke:#1b8b79;stroke-width:2.3px;}.cls-15,.cls-18,.cls-21,.cls-22,.cls-9{stroke-miterlimit:10;}.cls-10{fill:#1b8b79;}.cls-11{fill:#fd7922;}.cls-12{fill:#ddee64;}.cls-13{fill:#02799e;}.cls-14{clip-path:url(#clip-path);}.cls-15{stroke:#026684;stroke-width:7.25px;}.cls-16{fill:#c5d559;}.cls-17{fill:#9fac48;}.cls-18,.cls-21,.cls-22{stroke:#fd7922;}.cls-18{stroke-width:4.35px;}.cls-19{fill:#fff;}.cls-20{fill:#754c24;}.cls-21{stroke-width:3.98px;}.cls-22{stroke-width:2.9px;}.cls-23{clip-path:url(#clip-path-4);}.cls-24{clip-path:url(#clip-path-5);}.cls-25{fill:#662d91;}.cls-26{fill:#3b224d;}</style><clipPath id="clip-path"><path class="cls-1" d="M610,504.45c1.79,48,37.16,88.52,67.54,127.69a124.25,124.25,0,0,1,18,32c12.39,32,10.6,67.35-1,101.32-9,26.37-32,47.76-59,60.15-26,12-55.55,16.58-84.72,16.58-29.18-.2-58.76-4.59-84.73-16.58-27-12.59-50-33.77-58.95-60.15-10.8-31.38-13-63.75-3.6-93.72a127.87,127.87,0,0,1,20.78-39.57c30.38-39.37,65.75-79.73,67.54-127.69Z"/></clipPath><clipPath id="clip-path-4"><circle class="cls-1" cx="681.1" cy="366.76" r="38.17" transform="translate(-73.67 536.27) rotate(-40.96)"/></clipPath><clipPath id="clip-path-5"><circle class="cls-1" cx="420.51" cy="366.76" r="38.17" transform="matrix(0.66, -0.76, 0.76, 0.66, -132.11, 443.9)"/></clipPath></defs><g id="sky"><g id="clouds"><path class="cls-2" d="M275,110.83l-16.24,16.25v59.39c-113.5,1.2-217.66-1.86-218.58-14.76C39.06,155.82,195.16,129.89,275,110.83Z"/><path class="cls-2" d="M544,65.65c.43,4.12-13,9.17-34.15,14.83H305.37l-8.64,8.64c-40.22-1.86-116.56,2.21-117.64-7.63C177.6,68,319.59,43.23,318,29.25c-1.15-10-75.19-5.84-75.35-9.49-.32-6.6,240.78-28.63,242.29-15.84C486.1,13.76,344.66,36.11,346,49.83,347.67,65.88,542.37,50.27,544,65.65Z"/><path class="cls-2" d="M313.15,514.52C316.46,539.15-2.37,585.79,0,598.86c2.89,15.81,471.22-41.41,476.72-16.06,3.55,16.39-190.06,50.72-187,68.27,6.3,35.62,814.64-40.26,813.22-56.23-1.06-11.79-444,14.32-448.67-20.08-2.55-18.91,129.17-43.22,126.18-56.22-4.88-21.24-358.95,30-364.54,8C411,506.85,691.41,449,687,430.18,680.94,404,123.94,473,126.2,494.44,127.49,506.71,310.65,496,313.15,514.52Z"/><path class="cls-2" d="M941.84,274.16c3.91,40.28-743.3,93.55-745.44,81-1.17-6.87,223.4-32.85,362.7-56.88H796.52L842.83,252v-1.72C890.19,257.38,940.83,263.77,941.84,274.16Z"/><path class="cls-2" d="M1023.37,145.5c1.13,10.64-103.24,28.72-180.54,47.68v-22.8c13.37-2.92,21.16-5.06,21-6-.58-3.29-9.08-5.1-21-6.25V135.57C919.3,130.14,1021.69,129.84,1023.37,145.5Z"/></g><g id="stars"><circle class="cls-3" cx="204.55" cy="162.15" r="5.74"/><circle class="cls-3" cx="150.08" cy="599.11" r="5.74"/><path class="cls-3" d="M705.5,74.5a9.2,9.2,0,0,1-2.2,6h-14a9.19,9.19,0,1,1,16.18-6Z"/><ellipse class="cls-3" cx="996.33" cy="405.16" rx="9.19" ry="9.2"/><ellipse class="cls-3" cx="915.55" cy="686.84" rx="9.19" ry="9.2"/><ellipse class="cls-3" cx="288.29" cy="427.72" rx="9.19" ry="9.2"/><ellipse class="cls-3" cx="104.5" cy="525.78" rx="9.19" ry="9.2"/><circle class="cls-3" cx="473.31" cy="59.57" r="5.74"/><circle class="cls-3" cx="851.56" cy="323.48" r="5.74"/></g></g><g id="land"><path id="land-2" data-name="land" class="cls-4" d="M886,838.83c.33,13.89,151.91,62.31,153.52,83.78,1.91,25.15-223.25,77.39-488.39,77.39-183.81,0-463.46-60.15-463-97.67.25-20.71,78.81-23.91,79-43.34.11-12.16-52.17-25.89-131.53-51.73a1879.17,1879.17,0,0,1,1032.75.72v.45C949.34,825.54,885.81,828.78,886,838.83Z"/><path id="highlight" class="cls-5" d="M465.13,827.33c-1-5.88-189.4,24.09-188.31,34,.93,8.33,186.64-8.58,187.58.22C465.51,871.87,210,897,210.89,916.27c1.18,25.44,448.67,24.13,448.86,17.57.14-4.65-244.27-11.91-244.62-30.39-.28-15.21,128.91-36.15,128-47.69-.76-10.11-111.46-4-112.43-11.37C429.7,836.52,465.67,830.43,465.13,827.33Z"/><g id="rocks"><g id="rocks-2" data-name="rocks"><path class="cls-6" d="M882.16,691.13l-34,112.39q-5.73-.76-11.45-1.45-7-.9-14-1.73l5.87-147.72L846.84,625Z"/><polygon class="cls-7" points="846.85 625.04 854.98 673.53 882.15 691.14 846.85 625.04"/><path class="cls-8" d="M882.16,691.13l-34,112.39q-5.73-.76-11.45-1.45L855,673.54Z"/><path class="cls-6" d="M893.58,753.78l-35.29,51.09c-.78-.14-1.58-.23-2.36-.32-4.23-.58-8.47-1.15-12.72-1.66l11.52-43.22,26-36.46Z"/><polygon class="cls-7" points="880.75 723.21 877.14 761.21 893.58 753.79 880.75 723.21"/><path class="cls-8" d="M893.58,753.78l-35.29,51.09c-.78-.14-1.58-.23-2.36-.32l21.22-43.34Z"/><path class="cls-6" d="M828.57,733.92l-5.2,66.49L811,799l-10.53-1.17-14.3-52.31,13.68-34.85Z"/><polygon class="cls-7" points="799.8 710.64 810.49 753.79 828.56 733.91 799.8 710.64"/><path class="cls-8" d="M828.57,733.92l-5.2,66.49L811,799l-.46-45.18Z"/></g><g id="rocks-3" data-name="rocks"><path class="cls-8" d="M245.64,659.73,214.9,808.89c-3.26.46-6.55,1-9.82,1.48q-12.27,1.86-24.48,3.86L168.39,641.77l27.89-59Z"/><path class="cls-6" d="M222,675.41l-16.92,135q-12.27,1.86-24.48,3.86L168.39,641.77l27.89-59Z"/><polygon class="cls-7" points="222 675.42 196.27 582.74 245.64 659.73 222 675.42"/><path class="cls-6" d="M193.33,698,188,813q-5.46.87-10.88,1.8-8.17,1.3-16.28,2.76l-22-90.94L150.27,672Z"/><polygon class="cls-7" points="150.26 671.97 171.8 733.91 193.33 698.02 150.26 671.97"/><path class="cls-8" d="M193.33,698,188,813q-5.46.87-10.88,1.8l-5.31-80.91Z"/><path class="cls-8" d="M271.87,691v35.47L236.56,805.7c-.9.11-1.77.25-2.65.39q-10.75,1.49-21.45,3.13l18.83-90Z"/><polygon class="cls-7" points="271.88 691.01 271.88 726.5 252.17 740.36 231.3 719.21 271.88 691.01"/><path class="cls-6" d="M252.17,740.36l-18.26,65.73q-10.75,1.49-21.45,3.13l18.83-90Z"/></g></g><g id="shadows"><g id="shadow"><ellipse id="shadow-2" data-name="shadow" class="cls-6" cx="350.7" cy="882.23" rx="34.77" ry="7.35"/><ellipse id="shadow-3" data-name="shadow" class="cls-6" cx="504.6" cy="882.23" rx="34.77" ry="7.35"/><ellipse id="shadow-4" data-name="shadow" class="cls-6" cx="597.01" cy="882.23" rx="34.77" ry="7.35"/><ellipse id="shadow-5" data-name="shadow" class="cls-6" cx="750.12" cy="882.23" rx="34.77" ry="7.35"/></g><g id="shadow-6" data-name="shadow"><path id="shadow-7" data-name="shadow" class="cls-6" d="M649.58,820.83c.88-5.17,64.81,3.37,66.42-4.91,1-5.35-35.69-15.12-34.73-20.86,1.94-11.65,202.14,8.21,201.59,13.45-.4,3.87-102.58-2-104.12,9.21-.85,6.2,29.31,13.15,28.44,17.4C805.76,842.06,648.85,825.11,649.58,820.83Z"/><path id="shadow-8" data-name="shadow" class="cls-6" d="M396.75,804.16c-3-17.78-248.76,5.52-247.92,13.51C149.44,823.57,398.21,812.93,396.75,804.16Z"/></g></g></g><g id="character"><g id="sign"><g id="sign-2" data-name="sign"><polygon class="cls-9" points="270.13 286.6 270.13 131.61 310 91.74 831.49 91.74 831.49 246.98 791.89 286.6 270.13 286.6"/></g><path class="cls-10" d="M369.57,138.72H359.24v-9h31.1v9H380V174H369.57Z"/><path class="cls-10" d="M430.52,174H420.25V162.5H408.86V174H398.59V144.44c0-11.27,8.15-15.69,16-15.69s15.93,4.42,15.93,15.69Zm-21.66-20.42h11.39v-8.38c0-5.13-2.48-7-5.66-7s-5.73,1.89-5.73,7Z"/><path class="cls-10" d="M442.83,129.69h10.38v17.59a14.09,14.09,0,0,0,2.19.17c6.07,0,9.26-4.07,9.26-10.09,0-2.42-.06-5.37-.18-7.67h10.39c.11,2.36.17,4.9.17,7,0,8.27-3.12,14.52-9.32,17.71l12,19.53H465.19l-10-17.17h-.65a10.78,10.78,0,0,1-1.36-.06V174H442.83Z"/><path class="cls-10" d="M486.42,129.69h26.37v9h-16v8.5h14.81v8.85H496.8v8.73h16.29V174H486.42Z"/><path class="cls-10" d="M561.41,164.74l-7.79-17.05h-.24V174h-10V129.69h12.74l9.44,21.78h.24l10-21.78h12.1V174H578V147.69h-.24l-7.85,17.05Z"/><path class="cls-10" d="M615.11,174.89c-10.21,0-16.47-5.49-16.47-13,0-5.66,2.84-9.44,7.79-11.21a10.41,10.41,0,0,1-6.49-10.09c0-7.14,6-11.8,15.46-11.8,6.79,0,11,2.77,13,5.07l-5.37,7a10.4,10.4,0,0,0-7.55-2.9c-4.07,0-5.72,1.83-5.72,4.25,0,2.84,2.53,4.84,7.31,4.84h6v8.67h-6.84c-4.55,0-7.08,1.89-7.08,4.84s2.24,5.14,6.37,5.14a10.24,10.24,0,0,0,7.61-2.72l5.13,6.79C626.85,171.76,622.84,174.89,615.11,174.89Z"/><path class="cls-10" d="M664.37,138.72H654v-9h31.1v9H674.76V174H664.37Z"/><path class="cls-10" d="M691.3,151.82c0-13.57,9.26-23.07,22.54-23.07s22.6,9.5,22.6,23.07-9.33,23.07-22.6,23.07C700.27,174.89,691.3,165.39,691.3,151.82Zm34.51-.06c0-8.26-4.54-13.75-12-13.75s-11.92,5.49-11.92,13.75,4.54,13.75,11.92,13.75S725.81,160.14,725.81,151.76Z"/><path class="cls-10" d="M339,229.05c-6.84-1.83-11-7.55-11-15.81V200.49H338.4v13.69c0,3.54,2.07,6.08,5.73,6.08,3.95,0,5.72-2.54,5.72-6.08V200.49h10.44v12.75c0,8.2-4.07,13.92-10.85,15.75v15.76H339Z"/><path class="cls-10" d="M368.42,222.62c0-13.57,9.27-23.07,22.54-23.07s22.6,9.5,22.6,23.07-9.32,23.07-22.6,23.07C377.39,245.69,368.42,236.19,368.42,222.62Zm34.52-.06c0-8.26-4.54-13.75-12-13.75S379,214.3,379,222.56s4.55,13.75,11.92,13.75S402.94,230.94,402.94,222.56Z"/><path class="cls-10" d="M458.21,228.58c0,10-6.67,17.11-17.29,17.11s-17.35-7.08-17.35-17.11V200.49H434v29a6.94,6.94,0,0,0,13.87,0v-29h10.38Z"/><path class="cls-10" d="M483.41,228.23h-2.65v16.52H470.37V200.49h31.1v27.74h-6.61l9.62,16.52H493Zm7.67-18.71H480.76v10.27h10.32Z"/><path class="cls-10" d="M533.27,200.49h10.38V235.6h14.22v9.15h-24.6Z"/><path class="cls-10" d="M566.64,200.49H593v9H577V218h14.81v8.85H577v8.73h16.29v9.15H566.64Z"/><path class="cls-10" d="M636.83,200.49v44.26H626.45V231.23H614.94v13.52H604.56V200.49Zm-21.89,21.72h11.51V209.52H614.94Z"/><path class="cls-10" d="M649.36,244.75V200.49h15.46c13.22,0,22.78,8.62,22.78,22.13s-9.56,22.13-22.78,22.13Zm27.5-22.19c0-8.26-4.78-13-12-13h-5V235.6h5C672.08,235.6,676.86,230.82,676.86,222.56Z"/><path class="cls-10" d="M697.94,200.49h26.37v9h-16V218h14.81v8.85H708.32v8.73h16.29v9.15H697.94Z"/><path class="cls-10" d="M748.54,228.11h-2.3v16.64H735.85V200.49h17.53c8.73,0,15.16,6.14,15.16,14a13.14,13.14,0,0,1-9.2,12.56l10.21,17.65H757.8Zm9.62-13.34c0-2.89-2.18-5.25-5.78-5.25h-6.14v10.56h6.14C756,220.08,758.16,217.66,758.16,214.77Z"/></g><g id="character-2" data-name="character"><g id="b-legs"><path class="cls-11" d="M498.05,817.18c.8,15.19,1.6,31.18-7,44.77-3.2,5-7.6,10.39-5.2,15.58,2.4,5.6,11,7.6,18.38,7.4,7.6-.2,16.19-2.6,18.79-8.4,2-4.19.2-8.79-1.2-13.19a61.23,61.23,0,0,1,2.2-42.56Z"/><path class="cls-11" d="M603.56,817.18c-.8,15.19-1.6,31.18,7,44.77,3.19,5,7.59,10.39,5.19,15.58-2.4,5.6-11,7.6-18.38,7.4-7.6-.2-16.19-2.6-18.79-8.4-2-4.19-.2-8.79,1.2-13.19a61.23,61.23,0,0,0-2.2-42.56Z"/></g><path id="leg-4" class="cls-11" d="M704.28,718.67c20.18,3,38.56,18,47.56,38.36s8.39,45.77-1.6,65.55c-2.8,5.6-6.4,11-7.8,17.39s.4,14.18,5.8,16.78c5.8,2.8,13.19-1.8,19,1.4,6.4,3.6,6,14.79.8,20.18s-13,6.2-20,5.6c-9.79-.8-20.58-4.2-25.58-13.59-4-7.39-3.6-17-1.8-25.38,2-8.39,5.2-16.59,6.6-25.18,2.6-15.19-1.2-31.57-10-43.36s-22.39-19.19-36.17-19.19Z"/><path id="leg-1" class="cls-11" d="M397.13,718.67c-20.18,3-38.56,18-47.56,38.36s-8.39,45.77,1.6,65.55c2.8,5.6,6.4,11,7.8,17.39s-.4,14.18-5.8,16.78c-5.79,2.8-13.19-1.8-19,1.4-6.4,3.6-6,14.79-.8,20.18s13,6.2,20,5.6c9.79-.8,20.58-4.2,25.58-13.59,4-7.39,3.6-17,1.8-25.38-2-8.39-5.2-16.59-6.6-25.18-2.59-15.19,1.2-31.57,10-43.36s22.38-19.19,36.16-19.19Z"/><g id="body"><path class="cls-12" d="M452.69,739.65c5,22.38-5.2,43.56-22.78,47.56s-36-11-41-33.17c-5-22.38.4-64.75,18-68.55C424.51,681.3,447.69,717.27,452.69,739.65Z"/><path class="cls-12" d="M648.92,739.65c-5,22.38,5.2,43.56,22.78,47.56s36-11,41-33.17c5-22.38-.4-64.75-18-68.55C676.9,681.3,653.92,717.27,648.92,739.65Z"/><path class="cls-13" d="M610,504.45c1.79,48,37.16,88.52,67.54,127.69a124.25,124.25,0,0,1,18,32c12.39,32,10.6,67.35-1,101.32-9,26.37-32,47.76-59,60.15-26,12-55.55,16.58-84.72,16.58-29.18-.2-58.76-4.59-84.73-16.58-27-12.59-50-33.77-58.95-60.15-10.8-31.38-13-63.75-3.6-93.72a127.87,127.87,0,0,1,20.78-39.57c30.38-39.37,65.75-79.73,67.54-127.69Z"/><path class="cls-12" d="M516.63,756c0,22.78-14.58,41.36-32.57,41.36S451.49,778.82,451.49,756s14.59-62.95,32.57-62.95S516.63,733.05,516.63,756Z"/><path class="cls-12" d="M653.72,756c0,22.78-14.59,41.36-32.57,41.36S588.57,778.82,588.57,756s14.59-62.95,32.58-62.95C639.13,692.89,653.72,733.05,653.72,756Z"/><g class="cls-14"><path class="cls-15" d="M399.13,636.74h0a501.31,501.31,0,0,0,303.55,0h0"/></g><g class="cls-14"><path class="cls-15" d="M485.26,655.92c28-35.17,38-83.93,41.17-132.49"/></g><g class="cls-14"><path class="cls-15" d="M616.35,655.92c-28-35.17-38-83.93-41.16-132.49"/></g></g><path class="cls-11" d="M777.11,676.29c-3.19,5.65-8.39,7.7-13.07,6.6-.5-.43-1-.84-1.52-1.24a17.48,17.48,0,0,0-4.87-2.73,1.15,1.15,0,0,1-.17-.06c-7.86-2.49-15.93,3-19.33,10.07s-3.58,15.31-4.95,23.07a82,82,0,0,1-49.5,61.52c-16.62,6.58-35.82,7.55-53.77,3-15.61-3.84-27.33-19.07-26-33.91,1.19-15,15.34-24.2,31.4-20.24.44.1.71.09,1.15.19a69.87,69.87,0,0,0,24.75,1.13A61.65,61.65,0,0,0,706,693.34c4.94-9.18,7.79-19.61,12.26-29.19,4.64-9.45,11.56-18.51,21.8-21.59,7.8-2.27,16.16-.77,24,2.63a69.59,69.59,0,0,1,12.7,7.3C781,659.44,782.32,669.67,777.11,676.29Z"/><path class="cls-11" d="M324.5,676.29c3.19,5.65,8.39,7.7,13.07,6.6.5-.43,1-.84,1.52-1.24a17.48,17.48,0,0,1,4.87-2.73,1.15,1.15,0,0,0,.17-.06c7.86-2.49,15.93,3,19.33,10.07s3.58,15.31,5,23.07a82,82,0,0,0,49.5,61.52c16.63,6.58,35.82,7.55,53.77,3,15.61-3.84,27.33-19.07,26-33.91-1.19-15-15.34-24.2-31.39-20.24-.45.1-.72.09-1.16.19a69.87,69.87,0,0,1-24.75,1.13,61.67,61.67,0,0,1-44.77-30.38c-4.94-9.18-7.79-19.61-12.26-29.19-4.64-9.45-11.55-18.51-21.8-21.59-7.8-2.27-16.16-.77-24,2.63a69.92,69.92,0,0,0-12.7,7.3C320.59,659.44,319.29,669.67,324.5,676.29Z"/><g id="a4"><path class="cls-12" d="M550.8,533c-14,0-28.17-.4-42-1.2-10.19-.6-23.78-3.59-29.78-15.18a21.05,21.05,0,0,1,2.6-23c4.2-5.19,13-11.19,30.38-11.19h3.59c11.59.6,23.38,1,35,1,11.8,0,23.59-.4,35-1h3.59c9.59,0,22.58,2,30.38,11.19a20.7,20.7,0,0,1,2.59,23c-3.19,6.39-11,14.18-29.77,15.18C579,532.62,564.79,533,550.8,533Z"/><path class="cls-16" d="M594,495.25a694,694,0,0,1-86.53,0c-7.19-.4-11.59-2.59-10.19-4.79h0c1.6-2.2,8-3.4,14.39-3a636.46,636.46,0,0,0,78.13,0c6.4-.4,12.79.8,14.39,3h0C605.76,492.66,601.16,494.85,594,495.25Z"/><path class="cls-12" d="M604.36,491.46c0,1.79-4.2,3.59-10.39,3.79a694,694,0,0,1-86.53,0c-7.19-.4-11.59-2.59-10.19-4.79,1.4-1.8,6.39-3,12-3h2.2a636.46,636.46,0,0,0,78.13,0c6.4-.4,12.79.8,14.39,3A1.1,1.1,0,0,1,604.36,491.46Z"/><path class="cls-17" d="M604.36,491.46c0,1.79-4.2,3.59-10.39,3.79a694,694,0,0,1-86.53,0c-7.19-.4-11.59-2.59-10.19-4.79,1.4-1.8,6.39-3,12-3h2.2a636.46,636.46,0,0,0,78.13,0c6.4-.4,12.79.8,14.39,3A1.1,1.1,0,0,1,604.36,491.46Z"/><line class="cls-18" x1="550.8" y1="327.39" x2="550.8" y2="270.84"/><path class="cls-11" d="M681.1,328.59a38.16,38.16,0,0,0-32.72,18.5c-9.51,4.06-20.24-1.76-20.24-1.91a177,177,0,0,0-154.67,0c0,.15-10.73,6-20.24,1.92a38.16,38.16,0,1,0,.06,39.23c9.49-4.13,20.18,1.41,20.18,1.41,45.36,19.19,35.37,116.51,35.37,116.51h83.93s-10.19-97.32,35.37-116.51c0,0,10.69-5.54,20.19-1.41a38.17,38.17,0,1,0,32.77-57.74Z"/><circle class="cls-19" cx="681.1" cy="366.76" r="21.58"/><circle class="cls-20" cx="675.1" cy="361.57" r="13.99"/><circle class="cls-19" cx="550.81" cy="382.95" r="37.57"/><path class="cls-19" d="M588.37,383a37.57,37.57,0,1,1-37.56-37.56A37.42,37.42,0,0,1,588.37,383Z"/><circle class="cls-20" cx="550.8" cy="382.95" r="21.18"/><circle class="cls-11" cx="550.8" cy="270.84" r="6.79"/><path class="cls-12" d="M619.75,493.65H602.36a25,25,0,0,1-8.19,1.8,694,694,0,0,1-86.53,0c-3.6-.2-6.39-.8-8.19-1.8H482.06a20.37,20.37,0,0,0-2.6,23c6,11.59,19.39,14.58,29.78,15.18,13.79.8,28,1.2,42,1.2s28.18-.4,42-1.2c18.58-1,26.38-8.79,29.77-15.18A22.39,22.39,0,0,0,619.75,493.65Z"/><ellipse class="cls-21" cx="550.8" cy="308.01" rx="24.98" ry="3.6"/><ellipse class="cls-22" cx="550.8" cy="290.82" rx="16.39" ry="2.4"/><g class="cls-23"><circle class="cls-11" cx="683.54" cy="405.63" r="38.17" transform="translate(-99.96 539.4) rotate(-40.37)"/></g><path class="cls-11" d="M591.08,415.57a45.41,45.41,0,0,1-80.53,0c10-8.91,24.36-14.49,40.26-14.49S581.05,406.66,591.08,415.57Z"/><path class="cls-20" d="M530.71,438.32c-2.19-1.36-5-.27-4.38,2.23,2.85,10.43,13.41,18,24.47,17.79,11.06.17,21.63-7.36,24.48-17.79.65-2.5-2.19-3.59-4.38-2.23A38.62,38.62,0,0,1,530.71,438.32Z"/><circle class="cls-19" cx="420.52" cy="366.76" r="21.58"/><circle class="cls-20" cx="426.51" cy="361.57" r="13.99"/><g class="cls-24"><circle class="cls-11" cx="418.07" cy="405.63" r="38.17" transform="translate(-161.77 461.37) rotate(-49.63)"/></g></g></g><g id="post"><rect class="cls-25" x="750.12" y="298.1" width="14.2" height="408.08"/><rect class="cls-25" x="337.31" y="298.1" width="14.17" height="408.08" transform="translate(688.78 1004.28) rotate(-180)"/><g id="shadow-9" data-name="shadow"><rect class="cls-26" x="337.31" y="298.09" width="14.17" height="6.9"/><rect class="cls-26" x="750.14" y="298.09" width="14.17" height="6.9"/></g></g><g id="hands"><path class="cls-11" d="M777.11,676.29c-3.19,5.65-8.39,7.7-13.07,6.6a11.81,11.81,0,0,1-6.39-4,16.31,16.31,0,0,1-3.54-7.73c-1.3-8.59-.3-18.88,6-24a10.5,10.5,0,0,1,4-2c4.87-1.18,9.58,2.16,12.7,7.3C781,659.44,782.32,669.67,777.11,676.29Z"/><path class="cls-11" d="M324.5,676.29c3.19,5.65,8.39,7.7,13.07,6.6a11.81,11.81,0,0,0,6.39-4,16.21,16.21,0,0,0,3.54-7.73c1.3-8.59.3-18.88-6-24a10.43,10.43,0,0,0-4-2c-4.87-1.18-9.58,2.16-12.7,7.3C320.59,659.44,319.29,669.67,324.5,676.29Z"/></g></g></svg>