<?xml version="1.0" encoding="utf-8"?>
<!-- Generator: Adobe Illustrator 25.2.0, SVG Export Plug-In . SVG Version: 6.00 Build 0)  -->
<svg version="1.1" id="Layer_1" xmlns="http://www.w3.org/2000/svg" xmlns:xlink="http://www.w3.org/1999/xlink" x="0px" y="0px"
	 viewBox="0 0 298.4 403.1" style="enable-background:new 0 0 298.4 403.1;" xml:space="preserve">
<style type="text/css">
	.st0{fill:none;stroke:#2E3191;stroke-width:8.71;stroke-linecap:round;stroke-miterlimit:10;}
	.st1{fill:#D0A109;}
	.st2{fill:#04A65A;}
	.st3{fill:#FFC50B;}
	.st4{fill:#EC1E79;}
	.st5{fill:#D01A6B;}
	.st6{fill:#2E3191;}
	.st7{fill:#0071BC;}
	.st8{fill:#FF2081;}
	.st9{clip-path:url(#SVGID_2_);}
	.st10{fill:#BE1862;}
	.st11{fill:#4AA6C0;}
	.st12{opacity:0.5;fill:#68DFE7;enable-background:new    ;}
	.st13{opacity:0.5;fill:#FFFFFF;enable-background:new    ;}
	.st14{fill:#FFFFFF;}
	.st15{clip-path:url(#SVGID_4_);}
	.st16{fill:#328545;}
	.st17{fill:#FFF100;}
	.st18{fill:#006837;}
	.st19{fill:none;stroke:#2E3191;stroke-width:2.37;stroke-linecap:round;stroke-miterlimit:10;}
	.st20{fill:none;stroke:#2E3191;stroke-width:2.97;stroke-linecap:round;stroke-miterlimit:10;}
	.st21{fill:none;stroke:#2E3191;stroke-width:9.12;stroke-linecap:round;stroke-miterlimit:10;}
</style>
<path id="b-arm" class="st0" d="M125.3,156.5c-9,24-33.2,40.8-57.9,40.3"/>
<g id="b-hand">
	<path class="st1" d="M15.4,202.3c-1.1,0.5-2.3,0.8-3.5,0.9c-2.9,0.2-5.9-0.4-8.5-1.6c-0.8-0.3-1.6-0.9-2.2-1.5
		c-0.6-0.6-0.9-1.5-0.6-2.3c0.5-0.7,1.3-1.1,2.2-1.2c3.6-0.8,7.4-0.9,11-0.2C17.3,197,18.1,200.7,15.4,202.3z"/>
	<path class="st1" d="M21,207.7c-0.8,0.9-1.7,1.6-2.8,2.1c-2.7,1.3-5.6,1.9-8.6,1.7c-0.9,0-1.8-0.2-2.6-0.6c-0.8-0.3-1.4-1-1.4-1.9
		c0-0.8,0.8-1.4,1.6-2c3-2.1,6.4-3.7,10-4.5C20.7,202.1,22.8,205.2,21,207.7z"/>
	<path class="st1" d="M15,193.2c-1.1,0.5-2.3,0.8-3.5,0.9c-2.9,0.2-5.9-0.4-8.5-1.6c-0.8-0.3-1.6-0.8-2.3-1.5
		c-0.6-0.6-0.9-1.5-0.6-2.3c0.5-0.7,1.3-1.1,2.2-1.2c3.6-0.8,7.4-0.9,11-0.2C17,187.9,17.7,191.6,15,193.2z"/>
	<path class="st2" d="M66.2,179.9l-39.7-0.6c-8.8-0.1-16.1,6.9-16.3,15.8v0.1c-0.1,8.8,6.9,16.1,15.8,16.3l39.7,0.6v-0.1
		c2.4,0,4.4-7.1,4.5-16S68.6,179.9,66.2,179.9z"/>
	<path class="st3" d="M19.6,188.1c-1.3,0.4-2.7,0.4-4,0.1c-3.1-0.5-6-1.9-8.4-4c-0.8-0.6-1.4-1.4-1.8-2.3c-0.4-0.9-0.3-1.9,0.3-2.7
		c0.7-0.8,1.9-0.8,2.8-0.8c4,0,8,0.8,11.7,2.4C24,182.7,23.1,187.1,19.6,188.1z"/>
</g>
<g id="body">
	<path class="st4" d="M275.9,279.9c0.7,26-7.7,48.8-22.9,63.2c-23.1,28.5-105.9,29.5-133.3,2.2c-16.9-14.3-26.4-38.5-25.3-66.1
		c0.5-16.9,0.4-33.8-0.3-50.6c-0.2-4.6-0.4-9.1-0.7-13.7c-1.1-18.9-3-37.8-5.6-56.6h194.5c-5.5,40.1-7.7,80.6-6.6,121
		C275.7,279.4,275.8,279.7,275.9,279.9z"/>
	<path class="st5" d="M87.1,158.3c0,0,96.4,53.1,194.7,0H87.1z"/>
	<path class="st3" d="M120.6,214.9v13.7H94.1c-0.2-4.6-0.4-9.1-0.7-13.7H120.6z"/>
	<ellipse class="st3" cx="102.8" cy="242.7" rx="4.9" ry="5.2"/>
	<ellipse class="st3" cx="113" cy="242.7" rx="3.1" ry="3.3"/>
	<circle class="st6" cx="185.4" cy="342.4" r="60.7"/>
	<circle class="st7" cx="185.4" cy="342.4" r="44.5"/>
	<path class="st8" d="M249.7,313.3c-1.6-6.2-4-12.2-7-17.8c-13.6-21.8-30-31.1-57.3-31.1c-26.9,0-45.6,11.6-56.9,30.5
		c-3.2,5.8-5.7,12-7.4,18.4c-1.5,5.5-2.2,11.1-2.3,16.7c0,1.1,0,11.9,0.1,13l12.5-0.2h107.9l12.4,0.2c0.1-1.1,0.1-11.9,0.1-13
		C251.9,324.4,251.2,318.7,249.7,313.3z"/>
	<g>
		<defs>
			<path id="SVGID_1_" d="M249.7,313.3c-1.6-6.2-4-12.2-7-17.8c-13.6-21.8-30-31.1-57.3-31.1c-26.9,0-45.6,11.6-56.9,30.5
				c-3.2,5.8-5.7,12-7.4,18.4c-1.5,5.5-2.2,11.1-2.3,16.7c0,1.1,0,11.9,0.1,13l12.5-0.2h107.9l12.4,0.2c0.1-1.1,0.1-11.9,0.1-13
				C251.9,324.4,251.2,318.7,249.7,313.3z"/>
		</defs>
		<clipPath id="SVGID_2_">
			<use xlink:href="#SVGID_1_"  style="overflow:visible;"/>
		</clipPath>
		<g class="st9">
			<path class="st10" d="M239.4,342.8c0,33.7-24.1,9.1-53.8,9.1s-53.8,24.6-53.8-9.1s21.9-55.4,53.8-55.4S239.4,309.1,239.4,342.8z"
				/>
		</g>
	</g>
</g>
<g id="head">
	<path class="st11" d="M239.7,0v2.3l0,0c28,0,41.4,13.3,47.8,24.5c8.4,14.6,10.8,35,6.3,53.4c-5.2,21.1-10.6,41.4-16.4,61.8H92.9
		c-5.7-20.6-11.2-40.7-16.4-61.8c-1.5-6.2-2.3-12.6-2.2-19c0-12.7,3.1-25,8.5-34.5c6.3-11.2,19.7-24.5,47.8-24.5
		c3.9,0,7.8,0.3,11.7,0.7c5.2,0.6,10.5,1.1,15.8,1.5c8.8,0.7,17.9,1,27,1s18.2-0.3,27-1c5.3-0.4,10.6-0.8,15.8-1.5
		c3.9-0.4,7.8-0.7,11.8-0.7L239.7,0 M239.7,0c-4,0-8,0.3-12,0.7c-5.2,0.6-10.5,1.1-15.7,1.5c-8.9,0.7-17.9,1-26.9,1
		s-17.9-0.3-26.9-1c-5.2-0.4-10.5-0.8-15.7-1.5c-4-0.5-8-0.7-12-0.7c-21.2,0-39.5,7.4-49.9,25.6C75,35.7,72,48.4,72,61.3
		c0,6.6,0.8,13.1,2.4,19.4c5.6,22.5,11.2,43.6,16.9,63.5h187.8c5.6-19.9,11.3-41,16.9-63.5c4.6-18.7,2.4-39.9-6.4-55.1
		C279,7.4,260.7,0,239.7,0L239.7,0z"/>
	<path class="st12" d="M295.8,80.7c-5.6,22.5-11.2,43.6-16.9,63.5H91.2c-5.6-19.9-11.3-41-16.9-63.5c-1.6-6.4-2.4-12.9-2.4-19.4
		c0-12.9,2.9-25.6,8.8-35.7C93,4.1,116.5-2.3,142.4,0.7c5.2,0.6,10.5,1.1,15.7,1.5c8.9,0.7,17.9,1,26.9,1s17.9-0.3,26.9-1
		c5.2-0.4,10.5-0.8,15.7-1.5c26-3.1,49.5,3.2,61.7,24.9C298.2,40.9,300.4,62,295.8,80.7z"/>
	<path class="st13" d="M89.4,74.2c-2.9,0-5.3-2.1-5.7-5c-0.6-3.3-0.8-6.6-0.8-9.9c0-9.8,2.2-19.4,6.7-27.1
		c4.5-8.1,12-14.2,20.8-16.9c1-0.6,2.2-0.2,2.7,0.7s0.2,2.2-0.7,2.7c-4.2,3.2-7.7,7.2-10.3,11.7c-4.6,8-7,18.2-7,28.4
		c0,2.9,0.2,5.8,0.6,8.7c0.4,3.3-2,6.3-5.2,6.7C90,74.1,89.7,74.2,89.4,74.2L89.4,74.2z"/>
	<path class="st13" d="M87.1,87.3v0.4c0.4,2.5,2.2,4.2,4.3,4c0.7,0,1.3-0.1,2-0.3c2.4-0.4,3.9-3.1,3.6-5.9v-0.4
		c-0.4-2.9-2.7-4.9-5-4.2c-0.4,0.1-0.8,0.1-1.3,0.3C88.2,81.6,86.6,84.4,87.1,87.3z"/>
	<path class="st2" d="M263.4,99.6c-5.5,18.5-7.2,27.8-13.2,44.8H123v-0.1c-2.9-6.1-5.3-11.8-7.3-17.1c0,0,0-0.1,0-0.1
		c-0.7-1.9-1.4-3.8-2-5.7c-0.9-2.8,0,0,0,0c-22.5-69.5,33.9-74.5,33.9-74.5l3.9-0.4l35.4-3.1C240.2,36.9,274,64.3,263.4,99.6z"/>
	<path class="st14" d="M121.2,98.6c1.4,8.5,8.1,15.5,15,13.3s11.1-11.9,9.7-19.4C138.5,96.8,129.9,98.9,121.2,98.6z"/>
	<g>
		<defs>
			<path id="SVGID_3_" d="M121.2,98.6c1.4,8.5,8.1,15.5,15,13.3s11.1-11.9,9.7-19.4C138.5,96.8,129.9,98.9,121.2,98.6z"/>
		</defs>
		<clipPath id="SVGID_4_">
			<use xlink:href="#SVGID_3_"  style="overflow:visible;"/>
		</clipPath>
		<g class="st15">
			<path class="st8" d="M124.3,96.8c1,6,5.7,10.9,10.6,9.4s7.9-8.4,6.8-13.7C136.5,95.5,130.4,97,124.3,96.8z"/>
		</g>
	</g>
	<path class="st16" d="M119.8,97.8c2.5,0,5,0,7.6-0.3c5-0.6,9.9-2.1,14.5-4.3c2.4-1.2,4.8-2.5,7-4c-1.8,2.4-3.9,4.5-6.3,6.2
		c-2.2,1.6-4.7,2.8-7.3,3.6c-2.5,0.7-5.1,1.1-7.8,1C124.8,99.7,122.2,99,119.8,97.8z"/>
	<path class="st6" d="M146,82.1c-2-0.4-4-0.7-6-0.8c-1-0.1-2-0.2-3-0.1h-2.8c-1,0.1-1.9,0.2-2.9,0.6c-0.9,0.2-1.9,0.2-2.8-0.1
		c-1-0.3-2-0.7-2.9-1.3c-1.1-0.6-2.2-1.4-3.1-2.4l0,0c-0.2-0.1-0.2-0.6-0.1-0.8l0,0c0.7-1.2,1.7-2.3,2.9-3.1c0.9-0.7,2-1.2,3.2-1.4
		c1-0.2,2.1-0.2,3.2,0.1c1,0.5,2.1,0.9,3.2,1.3l3.1,1.3c1,0.6,1.9,1.1,3,1.7c2,1.2,3.8,2.7,5.4,4.3c0.1,0.2,0.2,0.5,0.1,0.7
		C146.4,82.1,146.2,82.2,146,82.1z"/>
	<path class="st16" d="M126.9,118.3c-0.7,2.9-2.7,5.2-5.3,6.6c-1.8,1-3.8,1.7-5.9,2.1c-0.7-1.9-1.4-3.8-2-5.7c-0.9-2.8,0,0,0,0
		c1.8-0.1,3.5-0.3,5.3-0.6C121.7,120.1,124.3,119.3,126.9,118.3z"/>
	<path class="st17" d="M277.5,162.1c-61.7,8.7-124.4,8.7-186.1,0c-6.6-1.2-11.6-6.8-11.8-13.6v-1c-0.2-5.5,4.1-10,9.6-10.2
		c0.7,0,1.5,0,2.2,0.2c61.7,8.7,124.4,8.7,186.1,0c6.6-1,11.8,3.5,11.8,10.1v1C289.4,155,284,161.1,277.5,162.1z"/>
	<path class="st18" d="M198.5,45.8c-0.1-3.6-1.5-7-3.1-10.3c-1.3-2.8-4.6-8-9.8-7.8h-1.1c-5.3-0.1-8.5,5.2-9.8,7.8
		c-1.5,3.4-3.1,6.7-3.1,10.3c-0.3,3.8,1.5,7.5,4.6,9.7c5.5,3.4,12.4,3.4,17.9,0C197.1,53.2,198.8,49.6,198.5,45.8z"/>
	<path class="st2" d="M138.3,56.7c0,0,13-0.7,33.8-3.5c21.5-3,37.8-10.2,52.3-6.3c33.2,8.9,16.9,39,16.9,39L138.3,56.7z"/>
	<path class="st6" d="M179.6,41.8l34.3-19.7c0.7-0.4,1.6-0.1,1.9,0.6c0,0.1,0.1,0.1,0.1,0.2c0.3,0.9,0.1,1.8-0.7,2.4l-33.7,21.2
		c-1,0.6-2.2,0.2-2.7-0.7c-0.1-0.1-0.1-0.3-0.2-0.4C178,44.2,178.4,42.7,179.6,41.8z"/>
	<ellipse class="st6" cx="214.5" cy="23.7" rx="4.6" ry="5.4"/>
	<ellipse transform="matrix(0.9652 -0.2615 0.2615 0.9652 -0.9402 54.1852)" class="st19" cx="203.1" cy="30.6" rx="3.6" ry="8"/>
	<ellipse transform="matrix(0.96 -0.2798 0.2798 0.96 -2.6969 55.2492)" class="st20" cx="192.1" cy="37.1" rx="3.6" ry="12.6"/>
</g>
<ellipse id="armhole" transform="matrix(9.948207e-03 -1 1 9.948207e-03 -6.6687 373.1419)" class="st1" cx="185.1" cy="189.9" rx="35.1" ry="17.6"/>
<path id="f-arm" class="st21" d="M184.2,191.8c0,0,25.7,57-38,63.4"/>
<g id="f-hand">
	<path class="st1" d="M93.3,260.1c-1.1,0.7-2.3,1.1-3.5,1.3c-3,0.5-6.1,0.2-9-0.8c-0.9-0.3-1.8-0.7-2.5-1.3
		c-0.7-0.5-1.1-1.4-0.9-2.3c0.4-0.8,1.2-1.3,2.1-1.4c3.7-1.2,7.5-1.7,11.4-1.4C94.7,254.4,95.9,258.2,93.3,260.1z"/>
	<path class="st1" d="M99.1,265.6c-0.8,1-1.8,1.7-2.9,2.2c-2.8,1.5-5.9,2.1-9,2c-1,0-1.9-0.2-2.8-0.6c-0.8-0.3-1.4-1.1-1.5-2
		c0-0.8,0.8-1.5,1.7-2.1c3.1-2.3,6.6-3.9,10.3-4.9C98.6,259.8,100.9,263,99.1,265.6z"/>
	<path class="st1" d="M95.1,251.5c-1.1,0.6-2.4,0.9-3.6,1c-3.1,0.3-6.2-0.3-9-1.5c-0.9-0.3-1.7-0.9-2.4-1.5
		c-0.7-0.6-0.9-1.5-0.7-2.4c0.5-0.8,1.3-1.2,2.2-1.3c3.8-0.9,7.7-1.1,11.5-0.4C97,245.9,97.8,249.8,95.1,251.5z"/>
	<path class="st2" d="M145.9,241c2.5,0,4.5,7.5,4.5,16.8c0,9.3-2,16.8-4.5,16.8v0.1h-41.5c-9.2,0-16.7-7.5-16.8-16.7v-0.1
		c0-9.3,7.5-16.8,16.8-16.9H145.9z"/>
	<path class="st3" d="M98.3,259.9c-1.2,0.8-2.6,1.2-4,1.3c-3.3,0.4-6.6-0.1-9.6-1.5c-1-0.4-1.8-1-2.5-1.8c-0.7-0.7-0.9-1.8-0.5-2.8
		c0.4-1,1.7-1.4,2.6-1.6c4-1.2,8.3-1.6,12.5-1.1C101.1,253.1,101.5,257.8,98.3,259.9z"/>
</g>
</svg>
