<?xml version="1.0" encoding="utf-8"?>
<!-- Generator: Adobe Illustrator 25.2.0, SVG Export Plug-In . SVG Version: 6.00 Build 0)  -->
<svg version="1.1" id="Layer_1" xmlns="http://www.w3.org/2000/svg" xmlns:xlink="http://www.w3.org/1999/xlink" x="0px" y="0px"
	 viewBox="0 0 330.2 402.7" style="enable-background:new 0 0 330.2 402.7;" xml:space="preserve">
<style type="text/css">
	.st0{fill:none;stroke:#2E3191;stroke-width:8.71;stroke-linecap:round;stroke-miterlimit:10;}
	.st1{fill:#D0A109;}
	.st2{fill:#04A65A;}
	.st3{fill:#FFC50B;}
	.st4{fill:#1B1464;}
	.st5{fill:#2E3191;}
	.st6{fill:#0071BC;}
	.st7{fill:#FF2081;}
	.st8{fill:#BE1862;}
	.st9{fill:#EC1E79;}
	.st10{fill:#D01A6B;}
	.st11{fill:none;stroke:#2E3191;stroke-width:2.59;stroke-linecap:round;stroke-miterlimit:10;}
	.st12{fill:none;stroke:#2E3191;stroke-width:3.26;stroke-linecap:round;stroke-miterlimit:10;}
	.st13{fill:#5EC2D2;}
	.st14{opacity:0.5;fill:#68DFE7;enable-background:new    ;}
	.st15{fill:#FFFFFF;}
	.st16{clip-path:url(#SVGID_2_);}
	.st17{clip-path:url(#SVGID_4_);}
	.st18{fill:#328545;}
	.st19{clip-path:url(#SVGID_6_);}
	.st20{clip-path:url(#SVGID_8_);}
	.st21{fill:#FFF100;}
	.st22{opacity:0.5;fill:#FFFFFF;enable-background:new    ;}
	.st23{fill:#006837;}
	.st24{fill:none;stroke:#2E3191;stroke-width:9.12;stroke-linecap:round;stroke-miterlimit:10;}
</style>
<path id="b-arm" class="st0" d="M115.9,178.4c-24.9,6-52.4-4.5-65.9-25.2"/>
<g id="b-hand">
	<path class="st1" d="M12,115.6c-1.1-0.6-2-1.3-2.8-2.3c-1.9-2.2-3.2-4.9-3.8-7.8c-0.2-0.9-0.3-1.8-0.1-2.7c0.1-0.9,0.7-1.6,1.5-1.9
		c0.9,0,1.7,0.3,2.2,1c2.8,2.4,5.1,5.4,6.7,8.7C17.5,114,14.9,116.8,12,115.6z"/>
	<path class="st1" d="M11,123.3c-1.2-0.1-2.3-0.4-3.4-1C5,121,2.7,119,1.1,116.5c-0.6-0.7-0.9-1.6-1.1-2.5c-0.2-0.8,0-1.7,0.7-2.3
		c0.6-0.5,1.7-0.2,2.6,0.1c3.5,1.2,6.7,3,9.6,5.3C15.4,119.7,14.1,123.3,11,123.3z"/>
	<path class="st1" d="M19.1,109.8c-1.1-0.6-2-1.3-2.8-2.3c-1.9-2.2-3.2-4.9-3.8-7.8c-0.2-0.9-0.3-1.8-0.1-2.7
		c0.1-0.9,0.7-1.6,1.5-1.9c0.9,0,1.7,0.3,2.2,1c2.8,2.4,5.1,5.4,6.7,8.7C24.5,108.2,22,111.1,19.1,109.8z"/>
	<path class="st2" d="M34.3,161.7c1.4,1.9,8.3-0.7,15.5-5.9s11.9-10.9,10.5-12.8l-23.1-32.2c-5.2-7.2-15.2-8.8-22.4-3.7l-0.1,0.1
		c-7.2,5.2-8.8,15.2-3.7,22.3l23.1,32.2L34.3,161.7z"/>
	<path class="st3" d="M26,110.5c-1.1-0.8-1.9-1.9-2.4-3.2c-1.4-2.8-2-6-1.8-9.1c0-1,0.3-2,0.8-2.8c0.4-0.9,1.3-1.4,2.3-1.4
		c1,0.1,1.7,1,2.3,1.8c2.4,3.2,4.1,6.9,5,10.9C32.9,110.8,28.9,112.7,26,110.5z"/>
</g>
<g id="body">
	<polygon class="st4" points="128.4,271.9 145.3,271.9 145.3,397.7 127.8,397.7 	"/>
	<ellipse class="st4" cx="128.5" cy="334.8" rx="39.2" ry="62.9"/>
	<ellipse class="st5" cx="145.3" cy="334.8" rx="39.2" ry="62.9"/>
	<ellipse class="st6" cx="145.3" cy="334.8" rx="28.6" ry="45.9"/>
	<path class="st7" d="M139.9,259.9c-32.3,0-53.6,27.3-53.6,79.1h99.8C186.2,295.7,172.1,259.9,139.9,259.9z"/>
	<path class="st8" d="M177.2,339h-67.4c0-31,15.7-56.1,35-56.1S177.2,308,177.2,339z"/>
	
		<ellipse transform="matrix(0.9756 -0.2197 0.2197 0.9756 -38.6753 28.5919)" class="st1" cx="109.2" cy="188.2" rx="13.8" ry="33.5"/>
	<path class="st9" d="M287.2,279c-1.1-40.4,1.1-80.9,6.6-121H99.2c5.5,40.1,7.7,80.6,6.6,121c-1.1,27.7,8.4,51.9,25.3,66.1
		c27.4,27.3,110.2,26.3,133.3-2.2c15.2-14.4,23.6-37.2,22.9-63.2C287.2,279.5,287.2,279.2,287.2,279z"/>
	<path class="st10" d="M98.6,158.1c0,0,76,53.1,153.6,0H98.6z"/>
	<rect x="184.1" y="214.6" class="st3" width="48.7" height="13.7"/>
	<circle class="st3" cx="191.3" cy="242.4" r="5.2"/>
	<circle class="st3" cx="208.4" cy="242.4" r="8.1"/>
	<circle class="st3" cx="225.3" cy="242.4" r="5.2"/>
	<polygon class="st4" points="252.8,276.9 269.8,276.9 269.8,402.7 252.2,402.6 	"/>
	<ellipse class="st4" cx="253" cy="339.8" rx="39.2" ry="62.9"/>
	<ellipse class="st5" cx="269.8" cy="339.8" rx="39.2" ry="62.9"/>
	<ellipse class="st6" cx="269.8" cy="339.8" rx="28.6" ry="45.9"/>
	<path class="st7" d="M264.3,264.8c-32.3,0-53.6,27.3-53.6,79.1h99.8C310.7,300.6,296.6,264.8,264.3,264.8z"/>
	<path class="st8" d="M301.7,343.9h-67.4c0-31,15.6-56.1,35-56.1S301.7,312.9,301.7,343.9z"/>
</g>
<g id="head">
	<path class="st5" d="M111.4,36.8L71.6,14.7c-0.9-0.5-1.9-0.2-2.4,0.7c-0.5,0.9-0.2,1.9,0.7,2.4l0,0l39.1,23.6
		c1.2,0.7,2.8,0.3,3.5-0.9c0,0,0,0,0,0C113.1,39.2,112.7,37.6,111.4,36.8L111.4,36.8z"/>
	<circle class="st5" cx="70.6" cy="16.2" r="5.4"/>
	<ellipse transform="matrix(0.3955 -0.9184 0.9184 0.3955 28.7366 91.5102)" class="st11" cx="83.9" cy="23.9" rx="8.1" ry="4.2"/>
	
		<ellipse transform="matrix(0.3955 -0.9184 0.9184 0.3955 29.8303 107.5675)" class="st12" cx="96.6" cy="31.1" rx="12.9" ry="4.2"/>
	<path class="st13" d="M301.5,29.9c-9.6-17.8-27-27.3-50.5-27.3c-3.2,0-6.4,0.2-9.5,0.5c-3.1,0.4-14.6,0.7-23.1,0.8
		c-4.6,0.1-8.6,0.2-10.3,0.3c-6.2,0.3-11.8,0.4-17.1,0.4c-2.6,0-5.1,0-7.5-0.1c-7.4-0.2-15.4-0.7-24.6-1.6
		c-4.4-0.5-8.7-1.1-13.2-1.7l-1.2-0.2c-4.4-0.7-8.8-1.1-13.2-1.1c-19.2,0-33,8.1-42.2,24.8c-5.5,9.5-8.5,22-8.5,35.3
		c0,6.5,0.7,13,2.3,19.4c4.6,19.8,9.7,39.9,15.6,61.3L99,143l84.2,2.3l108.1,2.3l0.6-2.2c4.7-16.9,9.6-36.1,15.6-60.5
		C312,66.2,309.7,45.2,301.5,29.9z M304.6,84.1c-5.2,21.5-10.3,41.6-15.5,60.4l-105.8-2.2l-82-2.2c-5.2-19.1-10.4-39.4-15.5-61.2
		c-1.5-6.1-2.2-12.4-2.2-18.7c0-12.4,2.7-24.5,8.1-33.8c11.4-20.4,28.5-26,52.4-22.3c4.9,0.7,9.6,1.4,14.5,1.9
		c8.3,0.8,16.6,1.4,24.8,1.6s16.6,0,24.8-0.3c4.9-0.2,28.7-0.5,33.7-1.1c24-2.4,45.6,4.2,56.9,25.2C306.8,46,309,66.2,304.6,84.1z"
		/>
	<path class="st14" d="M301.5,29.9c-9.6-17.8-27-27.3-50.5-27.3c-3.2,0-6.4,0.2-9.5,0.5c-3.1,0.4-14.6,0.7-23.1,0.8
		c-4.6,0.1-8.6,0.2-10.3,0.3c-6.2,0.3-11.8,0.4-17.1,0.4c-2.6,0-5.1,0-7.5-0.1c-7.4-0.2-15.4-0.7-24.6-1.6
		c-4.4-0.5-8.7-1.1-13.2-1.7l-1.2-0.2c-4.4-0.7-8.8-1.1-13.2-1.1c-19.2,0-33,8.1-42.2,24.8c-5.5,9.5-8.5,22-8.5,35.3
		c0,6.5,0.7,13,2.3,19.4c4.6,19.8,9.7,39.9,15.6,61.3L99,143l84.2,2.3l108.1,2.3l0.6-2.2c4.7-16.9,9.6-36.1,15.6-60.5
		C312,66.2,309.7,45.2,301.5,29.9z"/>
	<path class="st2" d="M270.7,103.3c-3.9,15.8-7.6,30.6-11.4,44.5l-77.8-1.7l-60.3-1.6c-3.8-14.1-7.7-29-11.4-45
		c-1.1-4.5-1.6-9.1-1.6-13.8c0-9.1,2-18,6-24.9c8.3-15,21-19.1,38.6-16.4c3.6,0.5,7.1,1,10.7,1.4c6.1,0.6,12.2,1,18.3,1.2
		s12.2,0,18.3-0.2c3.6-0.2,21.2-0.4,24.8-0.8c17.6-1.8,33.5,3.1,41.9,18.6C272.3,75.2,273.9,90.1,270.7,103.3z"/>
	<path class="st15" d="M151.3,95.2c-1.4,8-8.1,14.7-14.9,12.5s-11-11.2-9.6-18.3C134.4,93.4,142.8,95.5,151.3,95.2z"/>
	<g>
		<defs>
			<path id="SVGID_1_" d="M151.3,95.2c-1.4,8-8.1,14.7-14.9,12.5s-11-11.2-9.6-18.3C134.4,93.4,142.8,95.5,151.3,95.2z"/>
		</defs>
		<clipPath id="SVGID_2_">
			<use xlink:href="#SVGID_1_"  style="overflow:visible;"/>
		</clipPath>
		<g class="st16">
			<path class="st15" d="M148.3,93.4c-1,5.7-5.7,10.3-10.5,8.8s-7.8-7.9-6.8-12.9C136.3,92.3,142.3,93.7,148.3,93.4z"/>
		</g>
	</g>
	<g>
		<defs>
			<path id="SVGID_3_" d="M151.3,95.2c-1.4,8-8.1,14.7-14.9,12.5s-11-11.2-9.6-18.3C134.4,93.4,142.8,95.5,151.3,95.2z"/>
		</defs>
		<clipPath id="SVGID_4_">
			<use xlink:href="#SVGID_3_"  style="overflow:visible;"/>
		</clipPath>
		<g class="st17">
			<path class="st7" d="M148.3,93.4c-1,5.7-5.7,10.3-10.5,8.8s-7.8-7.9-6.8-12.9C136.3,92.3,142.3,93.7,148.3,93.4z"/>
		</g>
	</g>
	<path class="st18" d="M152.8,94.4c-2.4,1.1-5,1.8-7.6,1.8c-2.6,0.1-5.2-0.2-7.7-0.9c-2.6-0.8-5-1.9-7.3-3.4
		c-2.4-1.5-4.5-3.5-6.3-5.8c2.3,1.4,4.7,2.6,7,3.8c2.3,1.1,4.6,2,7.1,2.6c2.4,0.7,4.8,1.2,7.3,1.5C147.8,94.3,150.3,94.4,152.8,94.4
		z"/>
	<path class="st5" d="M126.6,78.8c1.6-1.6,3.4-2.9,5.4-4.1c0.9-0.5,1.9-1.1,2.9-1.6l3-1.2c1-0.4,2-0.8,3.1-1.2
		c1-0.4,2.1-0.4,3.1-0.1c1.1,0.3,2.2,0.7,3.1,1.3c1.1,0.7,2.1,1.7,2.8,2.9c0.2,0.2,0.1,0.6-0.1,0.8l0,0c-1.6,1.6-3.7,2.8-5.9,3.4
		c-0.9,0.2-1.8,0.3-2.7,0.1c-0.9-0.1-1.9-0.4-2.8-0.5h-2.8c-1,0-2,0-2.9,0.1c-2,0.1-4,0.4-6,0.8c-0.2,0-0.4-0.1-0.4-0.4c0,0,0,0,0,0
		C126.4,79,126.5,78.9,126.6,78.8z"/>
	<path class="st15" d="M188.4,98c2,8.5,11.2,15.5,20.6,13.3s15.2-11.9,13.3-19.4C211.5,96.3,200,98.4,188.4,98z"/>
	<g>
		<defs>
			<path id="SVGID_5_" d="M188.4,98c2,8.5,11.2,15.5,20.6,13.3s15.2-11.9,13.3-19.4C211.5,96.3,200,98.4,188.4,98z"/>
		</defs>
		<clipPath id="SVGID_6_">
			<use xlink:href="#SVGID_5_"  style="overflow:visible;"/>
		</clipPath>
		<g class="st19">
			<path class="st15" d="M192.6,96.2c1.4,6,7.8,10.9,14.6,9.4s10.8-8.4,9.4-13.7C208.9,95,200.8,96.5,192.6,96.2z"/>
		</g>
	</g>
	<g>
		<defs>
			<path id="SVGID_7_" d="M188.4,98c2,8.5,11.2,15.5,20.6,13.3s15.2-11.9,13.3-19.4C211.5,96.3,200,98.4,188.4,98z"/>
		</defs>
		<clipPath id="SVGID_8_">
			<use xlink:href="#SVGID_7_"  style="overflow:visible;"/>
		</clipPath>
		<g class="st20">
			<path class="st7" d="M192.6,96.2c1.4,6,7.8,10.9,14.6,9.4s10.8-8.4,9.4-13.7C208.9,95,200.8,96.5,192.6,96.2z"/>
		</g>
	</g>
	<path class="st18" d="M186.4,97.2c3.5,0,7,0,10.4-0.3c3.4-0.3,6.7-0.8,10.1-1.5c3.3-0.7,6.6-1.7,9.8-2.8c3.3-1.2,6.5-2.5,9.6-4
		c-2.6,2.5-5.5,4.6-8.7,6.2c-3.2,1.6-6.6,2.8-10.1,3.6c-3.5,0.7-7.1,1.1-10.6,1C193.3,99.2,189.8,98.4,186.4,97.2z"/>
	<path class="st5" d="M222.4,81.5c-2.7-0.4-5.5-0.7-8.2-0.8c-1.4-0.1-2.7-0.2-4.1-0.1h-3.9c-1.3,0-2.6,0.2-3.9,0.6
		c-1.3,0.2-2.5,0.2-3.8-0.1c-1.3-0.3-2.6-0.7-3.9-1.2c-1.5-0.6-2.9-1.4-4.2-2.4l0,0c-0.3-0.1-0.3-0.6-0.1-0.8l0,0
		c1.1-1.3,2.4-2.3,3.9-3.1c1.3-0.7,2.8-1.2,4.3-1.4c1.4-0.2,2.9-0.2,4.3,0.1c1.4,0.5,2.9,0.9,4.3,1.3l4.2,1.3
		c1.4,0.6,2.7,1.1,4.1,1.7c2.6,1.2,5.1,2.6,7.4,4.3c0.2,0.2,0.2,0.5,0.1,0.7C222.8,81.5,222.6,81.5,222.4,81.5z"/>
	<path class="st18" d="M158.4,114.2c1.6,1.2,3.3,2.2,5.2,2.9c1.5,0.6,3.1,1,4.7,1.2c1.6,0.1,3.2-0.1,4.8-0.4c1.9-0.5,3.7-1.2,5.4-2
		c-0.7,5.4-5.7,9.1-11,8.3c-2.2-0.3-4.3-1.4-5.8-3C159.8,119.2,158.6,116.8,158.4,114.2z"/>
	<path class="st21" d="M288.9,161.9c-61.7,8.7-124.4,8.7-186.1,0c-6.6-1.1-11.6-6.8-11.7-13.6v-1c-0.2-5.5,4.1-10,9.6-10.2
		c0.7,0,1.5,0,2.2,0.2c61.7,8.7,124.4,8.7,186.1,0c6.6-1,11.8,3.5,11.8,10.1v1C300.8,154.8,295.5,160.9,288.9,161.9z"/>
	<path class="st5" d="M255.7,41.6l41.1-19.7c0.9-0.4,2,0,2.4,0.8c0.4,0.9,0,2-0.8,2.4l-40.4,21.3c-1.3,0.7-2.8,0.2-3.5-1.1
		c0,0,0,0,0,0C253.8,43.9,254.4,42.3,255.7,41.6z"/>
	<circle class="st5" cx="297.6" cy="23.4" r="5.5"/>
	<ellipse transform="matrix(0.9401 -0.341 0.341 0.9401 6.6552 98.6524)" class="st11" cx="283.9" cy="30.4" rx="4.2" ry="8.1"/>
	<ellipse transform="matrix(0.9401 -0.341 0.341 0.9401 3.6743 94.5536)" class="st12" cx="270.8" cy="36.8" rx="4.2" ry="12.9"/>
	<path class="st22" d="M101.2,73.9c-2.9,0-5.3-2.2-5.7-5c-0.6-3.3-0.8-6.6-0.8-9.9c0-9.8,2.2-19.4,6.7-27.1c4.5-8.1,12-14.2,20.8-17
		c1-0.6,2.2-0.2,2.8,0.8s0.2,2.2-0.8,2.8c-4.2,3.2-7.7,7.2-10.3,11.7c-4.6,8-7,18.2-7,28.4c0,2.9,0.2,5.8,0.6,8.7
		c0.4,3.3-1.9,6.3-5.2,6.7C101.9,73.9,101.6,73.9,101.2,73.9L101.2,73.9z"/>
	<path class="st22" d="M99,87.1v0.4c0.4,2.5,2.2,4.2,4.3,4.1c0.7,0,1.3-0.1,2-0.3c2.4-0.4,3.9-3.1,3.6-5.9V85
		c-0.4-2.9-2.7-4.9-5-4.2c-0.4,0.1-0.8,0.1-1.3,0.3C100.1,81.3,98.4,84.1,99,87.1z"/>
	<path class="st23" d="M187.3,46.4c0.1-3.6-1.1-7.1-2.4-10.5c-1.1-2.9-4.1-8.2-9.3-8.4l-1.1-0.1c-5.3-0.5-8.8,4.6-10.3,7.2
		c-1.7,3.2-3.5,6.5-3.7,10.1c-0.5,3.8,1,7.5,4,9.9c5.3,3.7,12.2,4.1,17.9,1.1C185.5,53.6,187.3,50.1,187.3,46.4z"/>
</g>
<ellipse id="armhole" transform="matrix(8.663414e-02 -0.9962 0.9962 8.663414e-02 58.3261 443.0452)" class="st1" cx="270.8" cy="189.7" rx="35.1" ry="14.4"/>
<path id="f-arm" class="st24" d="M273.6,189.4c24.6,10.8,40.8,36.9,39,62.8"/>
<g id="f-hand">
	<path class="st1" d="M305.3,307.5c-0.6,1.1-0.9,2.4-1,3.6c-0.3,3.1,0.3,6.1,1.5,9c0.3,0.9,0.9,1.7,1.5,2.4c0.6,0.7,1.5,0.9,2.4,0.7
		c0.8-0.5,1.2-1.3,1.3-2.2c0.9-3.8,1.1-7.7,0.4-11.5C310.9,305.5,307,304.7,305.3,307.5z"/>
	<path class="st1" d="M299.7,301.5c-1,0.8-1.7,1.8-2.2,2.9c-1.5,2.8-2.1,5.8-2,9c0,1,0.2,1.9,0.6,2.8c0.3,0.8,1.1,1.4,2,1.5
		c0.8,0,1.5-0.8,2.1-1.7c2.3-3.1,3.9-6.6,4.9-10.4C305.6,301.9,302.4,299.6,299.7,301.5z"/>
	<path class="st1" d="M314.8,308c-0.6,1.1-0.9,2.4-1,3.6c-0.3,3.1,0.3,6.1,1.5,9c0.3,0.9,0.9,1.7,1.5,2.4c0.6,0.7,1.5,0.9,2.4,0.7
		c0.8-0.5,1.2-1.3,1.3-2.2c0.9-3.7,1.1-7.6,0.5-11.4C320.4,306.1,316.5,305.2,314.8,308z"/>
	<path class="st2" d="M329.6,254.6c0-2.5-7.5-4.5-16.8-4.5s-16.8,2-16.8,4.5h-0.1v41.5c0,9.3,7.5,16.8,16.8,16.8h0.1
		c9.3,0,16.8-7.5,16.8-16.8V254.6z"/>
	<path class="st3" d="M320.3,303.3c-0.4,1.4-0.4,2.8-0.1,4.2c0.5,3.3,1.9,6.3,4.1,8.8c0.6,0.9,1.4,1.5,2.4,2c0.9,0.5,2,0.4,2.8-0.3
		c0.8-0.7,0.8-2,0.8-2.9c0.1-4.2-0.8-8.4-2.4-12.3C326,298.8,321.4,299.6,320.3,303.3z"/>
</g>
</svg>
