<?xml version="1.0" encoding="utf-8"?>
<!-- Generator: Adobe Illustrator 25.2.0, SVG Export Plug-In . SVG Version: 6.00 Build 0)  -->
<svg version="1.1" id="Layer_1" xmlns="http://www.w3.org/2000/svg" xmlns:xlink="http://www.w3.org/1999/xlink" x="0px" y="0px"
	 viewBox="0 0 282.1 403.1" style="enable-background:new 0 0 282.1 403.1;" xml:space="preserve">
<style type="text/css">
	.st0{fill:none;stroke:#2E3191;stroke-width:8.71;stroke-linecap:round;stroke-miterlimit:10;}
	.st1{fill:#EC1E79;}
	.st2{fill:#D01A6B;}
	.st3{fill:#FFC50B;}
	.st4{fill:#2E3191;}
	.st5{fill:#0071BC;}
	.st6{fill:#FF2081;}
	.st7{clip-path:url(#SVGID_2_);}
	.st8{fill:#BE1862;}
	.st9{fill:#4AA6C0;}
	.st10{opacity:0.5;fill:#68DFE7;enable-background:new    ;}
	.st11{opacity:0.5;fill:#FFFFFF;enable-background:new    ;}
	.st12{fill:#04A65A;}
	.st13{fill:#FFFFFF;}
	.st14{clip-path:url(#SVGID_4_);}
	.st15{fill:#328545;}
	.st16{fill:#FFF100;}
	.st17{fill:#006837;}
	.st18{fill:none;stroke:#2E3191;stroke-width:2.37;stroke-linecap:round;stroke-miterlimit:10;}
	.st19{fill:none;stroke:#2E3191;stroke-width:2.97;stroke-linecap:round;stroke-miterlimit:10;}
	.st20{fill:#D0A109;}
	.st21{fill:none;stroke:#2E3191;stroke-width:9.12;stroke-linecap:round;stroke-miterlimit:10;}
</style>
<path id="b-arm" class="st0" d="M91.1,186.1c-25.7,0.4-50.1-15.8-58.8-39"/>
<g id="body">
	<path class="st1" d="M259.6,279.9c0.7,26-7.7,48.8-22.9,63.2c-23.1,28.5-105.9,29.5-133.3,2.2c-16.9-14.3-26.4-38.5-25.3-66.1
		c0.5-16.9,0.4-33.8-0.3-50.6c-0.2-4.6-0.4-9.1-0.7-13.7c-1.1-18.9-3-37.8-5.6-56.6H266c-5.5,40.1-7.7,80.6-6.6,121
		C259.4,279.4,259.5,279.7,259.6,279.9z"/>
	<path class="st2" d="M70.8,158.3c0,0,96.3,53.1,194.7,0H70.8z"/>
	<path class="st3" d="M104.3,214.9v13.7H77.8c-0.2-4.6-0.4-9.1-0.7-13.7H104.3z"/>
	<ellipse class="st3" cx="86.5" cy="242.7" rx="4.9" ry="5.2"/>
	<ellipse class="st3" cx="96.7" cy="242.7" rx="3.1" ry="3.3"/>
	<circle class="st4" cx="169.1" cy="342.4" r="60.7"/>
	<circle class="st5" cx="169.1" cy="342.4" r="44.5"/>
	<path class="st6" d="M233.4,313.3c-1.6-6.2-4-12.2-7-17.8c-13.6-21.8-30-31.1-57.3-31.1c-27,0-45.6,11.6-56.9,30.5
		c-3.2,5.8-5.7,12-7.3,18.4c-1.5,5.5-2.2,11.1-2.3,16.7c0,1.1,0,11.9,0.1,13l12.5-0.2h107.9l12.4,0.2c0.1-1.1,0.1-11.9,0.1-13
		C235.6,324.4,234.9,318.7,233.4,313.3z"/>
	<g>
		<defs>
			<path id="SVGID_1_" d="M233.4,313.3c-1.6-6.2-4-12.2-7-17.8c-13.6-21.8-30-31.1-57.3-31.1c-27,0-45.6,11.6-56.9,30.5
				c-3.2,5.8-5.7,12-7.3,18.4c-1.5,5.5-2.2,11.1-2.3,16.7c0,1.1,0,11.9,0.1,13l12.5-0.2h107.9l12.4,0.2c0.1-1.1,0.1-11.9,0.1-13
				C235.6,324.4,234.9,318.7,233.4,313.3z"/>
		</defs>
		<clipPath id="SVGID_2_">
			<use xlink:href="#SVGID_1_"  style="overflow:visible;"/>
		</clipPath>
		<g class="st7">
			<path class="st8" d="M223.1,342.8c0,33.7-24.1,9.1-53.8,9.1s-53.8,24.6-53.8-9.1s21.9-55.4,53.8-55.4S223.1,309.1,223.1,342.8z"
				/>
		</g>
	</g>
</g>
<g id="head">
	<path class="st9" d="M223.4,0v2.3l0,0c28,0,41.4,13.3,47.8,24.5c8.4,14.6,10.8,35,6.3,53.4c-5.2,21.1-10.6,41.4-16.4,61.8H76.5
		c-5.7-20.6-11.2-40.7-16.4-61.8c-1.5-6.2-2.3-12.6-2.2-19c0-12.7,3.1-25,8.5-34.5c6.3-11.2,19.7-24.5,47.8-24.5
		c3.9,0,7.8,0.3,11.8,0.7c5.2,0.6,10.5,1.1,15.8,1.5c8.8,0.7,17.9,1,27,1s18.2-0.3,27-1c5.3-0.4,10.6-0.8,15.8-1.5
		c3.9-0.4,7.8-0.7,11.8-0.7L223.4,0 M223.4,0c-4,0-8,0.3-12,0.7c-5.2,0.6-10.5,1.1-15.7,1.5c-9,0.7-17.9,1-26.9,1S150.9,3,142,2.3
		c-5.2-0.4-10.5-0.8-15.7-1.5c-4-0.5-8-0.7-12-0.7C93.2,0,74.8,7.4,64.5,25.6c-5.9,10.1-8.8,22.8-8.8,35.7c0,6.6,0.8,13.1,2.4,19.4
		c5.6,22.5,11.2,43.7,16.9,63.5h187.8c5.6-19.9,11.3-41,16.9-63.5c4.6-18.7,2.4-39.9-6.4-55.1C262.7,7.4,244.4,0,223.4,0L223.4,0z"
		/>
	<path class="st10" d="M279.5,80.7c-5.6,22.5-11.2,43.7-16.9,63.5H74.8c-5.6-19.9-11.3-41-16.9-63.5c-1.6-6.4-2.4-12.9-2.4-19.4
		c0-12.9,2.9-25.6,8.8-35.7C76.7,4.1,100.2-2.3,126,0.7c5.2,0.6,10.5,1.1,15.7,1.5c9,0.7,17.9,1,26.9,1s17.9-0.3,26.9-1
		c5.2-0.4,10.5-0.8,15.7-1.5c26-3.1,49.5,3.2,61.7,24.9C281.8,40.9,284.1,62,279.5,80.7z"/>
	<path class="st11" d="M73,74.2c-2.9,0-5.3-2.2-5.7-5c-0.6-3.3-0.8-6.6-0.8-9.9c0-9.8,2.2-19.4,6.7-27.1c4.5-8.1,12-14.2,20.9-17
		c1-0.6,2.2-0.2,2.7,0.7s0.2,2.2-0.7,2.7c-4.2,3.2-7.7,7.2-10.4,11.7c-4.6,8-7,18.2-7,28.4c0,2.9,0.2,5.8,0.6,8.7
		c0.4,3.3-2,6.3-5.2,6.7C73.6,74.1,73.3,74.2,73,74.2z"/>
	<path class="st11" d="M70.8,87.3v0.4c0.4,2.5,2.2,4.2,4.3,4c0.7,0,1.3-0.1,2-0.3c2.4-0.4,3.9-3.1,3.6-5.9v-0.4
		c-0.4-2.9-2.7-4.9-5-4.2c-0.4,0.1-0.8,0.1-1.3,0.3C71.9,81.6,70.2,84.4,70.8,87.3z"/>
	<path class="st12" d="M247.1,99.6c-5.5,18.5-7.2,27.8-13.2,44.8H106.7v-0.1c-2.9-6.1-5.3-11.8-7.3-17.1c0,0,0-0.1,0-0.1
		c-0.7-1.9-1.4-3.8-2-5.7c-0.9-2.8,0,0,0,0c-22.5-69.5,33.9-74.5,33.9-74.5l3.9-0.4l35.4-3.1C223.8,36.9,257.6,64.3,247.1,99.6z"/>
	<path class="st13" d="M104.9,98.6c1.4,8.5,8.2,15.5,15,13.3s11.1-11.9,9.7-19.4C122.1,96.8,113.6,98.9,104.9,98.6z"/>
	<g>
		<defs>
			<path id="SVGID_3_" d="M104.9,98.6c1.4,8.5,8.2,15.5,15,13.3s11.1-11.9,9.7-19.4C122.1,96.8,113.6,98.9,104.9,98.6z"/>
		</defs>
		<clipPath id="SVGID_4_">
			<use xlink:href="#SVGID_3_"  style="overflow:visible;"/>
		</clipPath>
		<g class="st14">
			<path class="st6" d="M108,96.8c1,6,5.7,10.9,10.6,9.4s7.9-8.4,6.8-13.7C120.2,95.5,114.1,97,108,96.8z"/>
		</g>
	</g>
	<path class="st15" d="M103.5,97.8c2.5,0,5,0,7.6-0.3c5-0.6,9.9-2.1,14.5-4.3c2.4-1.2,4.8-2.5,7-4c-1.8,2.4-3.9,4.5-6.3,6.2
		c-2.2,1.6-4.7,2.8-7.3,3.6c-2.5,0.7-5.1,1.1-7.8,1C108.4,99.7,105.9,99,103.5,97.8z"/>
	<path class="st4" d="M129.7,82.1c-2-0.4-4-0.7-6-0.8c-1-0.1-2-0.2-3-0.1h-2.9c-1,0.1-1.9,0.2-2.9,0.6c-0.9,0.2-1.9,0.2-2.8-0.1
		c-1-0.3-1.9-0.7-2.8-1.3c-1.1-0.6-2.2-1.4-3.1-2.4l0,0c-0.2-0.1-0.2-0.6-0.1-0.8l0,0c0.7-1.2,1.7-2.3,2.9-3.1
		c0.9-0.7,2-1.2,3.2-1.4c1-0.2,2.1-0.2,3.2,0.1c1,0.5,2.1,0.9,3.2,1.3l3.1,1.3c1,0.6,1.9,1.1,3,1.7c1.9,1.2,3.7,2.7,5.4,4.3
		c0.1,0.2,0.2,0.5,0.1,0.7C130,82.1,129.8,82.1,129.7,82.1z"/>
	<path class="st15" d="M110.5,118.3c-0.7,2.9-2.7,5.2-5.3,6.6c-1.8,1-3.8,1.7-5.9,2.1c-0.7-1.9-1.4-3.8-2-5.7c-0.9-2.8,0,0,0,0
		c1.8-0.1,3.5-0.3,5.3-0.6C105.3,120.1,108,119.3,110.5,118.3z"/>
	<path class="st16" d="M261.1,162.1c-61.7,8.7-124.4,8.7-186.1,0c-6.6-1.2-11.6-6.8-11.8-13.6v-1c-0.2-5.5,4.1-10,9.6-10.2
		c0.7,0,1.5,0,2.2,0.2c61.7,8.7,124.4,8.7,186.1,0c6.6-1,11.8,3.5,11.8,10.1v1C273,155,267.7,161.1,261.1,162.1z"/>
	<path class="st17" d="M182.2,45.8c-0.1-3.6-1.5-7-3.1-10.3c-1.3-2.8-4.6-8-9.8-7.8h-1.1c-5.3-0.1-8.5,5.2-9.8,7.8
		c-1.5,3.4-3.1,6.7-3.1,10.3c-0.3,3.8,1.5,7.5,4.6,9.7c5.5,3.4,12.4,3.4,17.9,0C180.8,53.2,182.5,49.6,182.2,45.8z"/>
	<path class="st12" d="M122,56.7c0,0,13-0.7,33.8-3.5c21.5-3,37.7-10.2,52.2-6.3c33.2,8.9,16.9,39,16.9,39L122,56.7z"/>
	<path class="st4" d="M163.2,41.8l34.3-19.7c0.7-0.3,1.6-0.1,1.9,0.7c0,0.1,0.1,0.1,0.1,0.2c0.3,0.9,0.1,1.8-0.7,2.4l-33.7,21.2
		c-1,0.6-2.2,0.2-2.7-0.7c-0.1-0.1-0.1-0.3-0.2-0.4C161.7,44.2,162.1,42.7,163.2,41.8z"/>
	<ellipse class="st4" cx="198.2" cy="23.7" rx="4.6" ry="5.4"/>
	<ellipse transform="matrix(0.9652 -0.2615 0.2615 0.9652 -1.5086 49.9142)" class="st18" cx="186.8" cy="30.6" rx="3.6" ry="8"/>
	<ellipse transform="matrix(0.96 -0.2798 0.2798 0.96 -3.3491 50.6803)" class="st19" cx="175.8" cy="37.1" rx="3.6" ry="12.6"/>
</g>
<ellipse id="armhole" transform="matrix(9.948207e-03 -1 1 9.948207e-03 -22.8378 356.8095)" class="st20" cx="168.8" cy="189.9" rx="35.1" ry="17.6"/>
<path id="f-arm" class="st21" d="M167.8,191.9c0,0,30.5,10.8,54.7,49.6"/>
<g id="f-hand">
	<path class="st20" d="M253.4,277.5c0.2,1.2,0.7,2.4,1.5,3.5c1.7,2.6,4,4.7,6.7,6.1c0.8,0.5,1.7,0.8,2.7,0.9
		c0.9,0.2,1.8-0.2,2.3-0.9c0.3-0.9,0.1-1.8-0.4-2.5c-1.6-3.5-3.9-6.7-6.7-9.3C256.6,272.5,253,274.2,253.4,277.5z"/>
	<path class="st20" d="M245.4,277c-0.2,1.2,0,2.5,0.4,3.7c0.8,3,2.4,5.7,4.6,7.9c0.6,0.7,1.4,1.3,2.3,1.7c0.8,0.4,1.8,0.3,2.5-0.2
		c0.6-0.6,0.6-1.7,0.4-2.7c-0.5-3.8-1.6-7.5-3.4-10.9C250,273.3,246.1,273.8,245.4,277z"/>
	<path class="st20" d="M258.5,270.3c0.4,1.2,0.9,2.4,1.8,3.3c1.9,2.4,4.4,4.3,7.2,5.5c0.9,0.4,1.8,0.7,2.8,0.7
		c0.9,0.1,1.7-0.3,2.2-1.1c0.2-0.9,0-1.8-0.6-2.5c-1.9-3.4-4.4-6.3-7.5-8.7C261.3,265.1,257.9,267.1,258.5,270.3z"/>
	<path class="st12" d="M231.6,225.9c-1.7-1.8-8.6,1.8-15.4,8.1s-11,12.9-9.3,14.7l-0.1,0.1l28.2,30.5c6.3,6.8,16.9,7.2,23.7,0.9
		l0.1-0.1c6.8-6.3,7.2-16.9,0.9-23.7L231.6,225.9L231.6,225.9z"/>
	<path class="st3" d="M250.2,273.6c0.3,1.4,0.9,2.7,1.8,3.8c1.9,2.7,4.6,4.7,7.6,6c0.9,0.5,2,0.7,3,0.7c1,0,2-0.6,2.4-1.5
		c0.4-1-0.1-2.1-0.6-3c-1.9-3.8-4.5-7.2-7.7-9.9C253.2,267,249.5,269.8,250.2,273.6z"/>
</g>
<g id="b-hand">
	<path class="st20" d="M16.3,96.9c-0.9-0.8-1.6-1.8-2.1-2.9c-1.3-2.7-1.8-5.6-1.7-8.5c0-0.9,0.2-1.8,0.6-2.7c0.3-0.8,1-1.4,1.9-1.5
		c0.8,0.2,1.5,0.8,1.9,1.6c2.1,3,3.5,6.4,4.2,10C21.9,96.7,18.7,98.8,16.3,96.9z"/>
	<path class="st12" d="M47.6,139.6l-14.1-37.1c-3.2-8.3-12.4-12.4-20.7-9.3h-0.1c-8.3,3.2-12.4,12.4-9.3,20.7L17.5,151l0.1-0.1l0,0
		c0.8,2.2,8.2,1.4,16.5-1.7S48.4,141.8,47.6,139.6z"/>
	<path class="st3" d="M23.7,101.6c-0.8-1.1-1.3-2.4-1.5-3.7c-0.7-3.1-0.4-6.3,0.6-9.2c0.3-1,0.8-1.8,1.5-2.6c0.6-0.7,1.7-1,2.6-0.7
		c1,0.3,1.4,1.5,1.7,2.3c1.5,3.8,2.1,7.8,2,11.8C30.4,103.7,25.9,104.5,23.7,101.6z"/>
	<path class="st3" d="M7.3,91.2c0.7-0.1,1.5,0.1,2.2,0.4c1.6,0.8,2.8,2.2,3.4,3.8c0.2,0.6,0.4,1.2,0.3,1.9c0,0.7-0.3,1.5-0.9,2
		c-0.5,0.4-1.1,0.5-1.6,0.2c-2.1-0.4-4-1.6-5.5-3.2C3.6,94.7,5.2,91.6,7.3,91.2z"/>
	<path class="st3" d="M2.4,98.8c0.7-0.2,1.5-0.1,2.2,0.2c1.7,0.6,3,1.9,3.7,3.5c0.3,0.6,0.5,1.2,0.5,1.8c0,0.7-0.2,1.4-0.6,2
		c-0.4,0.4-1,0.6-1.6,0.4c-2.1-0.2-4.2-1.1-5.8-2.5C-0.9,102.7,0.3,99.4,2.4,98.8z"/>
</g>
</svg>
