<?xml version="1.0" encoding="utf-8"?>
<!-- Generator: Adobe Illustrator 26.0.0, SVG Export Plug-In . SVG Version: 6.00 Build 0)  -->
<svg version="1.1" id="Layer_1" xmlns="http://www.w3.org/2000/svg" xmlns:xlink="http://www.w3.org/1999/xlink" x="0px" y="0px"
	 viewBox="0 0 700 700" style="enable-background:new 0 0 700 700;" xml:space="preserve">
<style type="text/css">
	.st0{fill:none;stroke:#2E3191;stroke-width:2.8034;stroke-linecap:round;stroke-miterlimit:10;}
	.st1{fill:#D0A109;}
	.st2{fill:#04A65A;}
	.st3{fill:#FFC50B;}
	.st4{fill:#EC1E79;}
	.st5{fill:#1B1464;}
	.st6{fill:#D01A6B;}
	.st7{fill:#FF2081;}
	.st8{fill:#BE1862;}
	.st9{fill:#4AA6C0;}
	.st10{fill:#68DFE7;fill-opacity:0.5;}
	.st11{fill:#FFFFFF;}
	.st12{clip-path:url(#SVGID_00000152968548594936867960000012967673960849324980_);}
	.st13{fill:#328545;}
	.st14{fill:#2E3191;}
	.st15{clip-path:url(#SVGID_00000038375234023832757030000010388605331490534535_);}
	.st16{fill:#006837;}
	.st17{fill:#FFFFFF;fill-opacity:0.5;}
	.st18{fill:#FFF100;}
	.st19{fill:none;stroke:#2E3191;stroke-width:0.7965;stroke-linecap:round;stroke-miterlimit:10.0029;}
	.st20{fill:none;stroke:#2E3191;stroke-width:1.0029;stroke-linecap:round;stroke-miterlimit:10.0069;}
	.st21{fill:none;stroke:#2E3191;stroke-width:0.7962;stroke-linecap:round;stroke-miterlimit:10;}
	.st22{fill:none;stroke:#2E3191;stroke-width:1.0022;stroke-linecap:round;stroke-miterlimit:10;}
</style>
<g>
	<g transform="translate(-8 -700)">
		<path class="st0" d="M585.4,1111.7c52.9,23.3,87.8,79.5,83.9,135.2"/>
		<path class="st1" d="M653.6,1365.9c-1.3,2.4-1.9,5.2-2.2,7.8c-0.6,6.7,0.6,13.4,3.2,19.4c0.6,1.9,1.9,3.7,3.2,5.2
			c1.3,1.5,3.2,1.9,5.2,1.5c1.7-1.1,2.6-2.8,2.8-4.7c1.9-8.2,2.4-16.6,0.9-24.8C665.7,1361.8,657.3,1359.8,653.6,1365.9z"/>
		<path class="st1" d="M641.6,1353c-2.2,1.7-3.7,3.9-4.7,6.2c-3,6-4.5,12.5-4.3,19.4c0,2.2,0.4,4.1,1.3,6c0.6,1.7,2.4,3,4.3,3.2
			c1.7,0,3.2-1.7,4.5-3.7c4.9-6.7,8.4-14.2,10.5-22.4C654.3,1353.8,647.4,1349.1,641.6,1353z"/>
		<path class="st1" d="M674.1,1367.2c-1.3,2.4-1.9,5.2-2.2,7.8c-0.6,6.7,0.6,13.4,3.2,19.4c0.6,1.9,1.9,3.7,3.2,5.2
			c1.3,1.5,3.2,1.9,5.2,1.5c1.7-1.1,2.6-2.8,2.8-4.7c1.9-8.2,2.4-16.6,0.9-24.8C686.1,1362.9,677.7,1361.1,674.1,1367.2z"/>
		<path class="st2" d="M705.9,1252.2c0-5.4-16.1-9.7-36.1-9.7s-36.1,4.3-36.1,9.7h-0.2v89.4c0,20,16.1,36.2,36.1,36.2h0.2
			c20,0,36.1-16.2,36.1-36.2V1252.2z"/>
		<path class="st3" d="M685.9,1356.8c-0.9,3-0.9,6-0.2,9c1.1,7.1,4.1,13.6,8.8,19c1.3,1.7,3,3.2,5.2,4.3c1.9,1.1,4.3,0.9,6-0.6
			c1.7-1.5,1.7-4.3,1.7-6.2c0-9-1.7-18.1-5.2-26.5C698.2,1347.1,688.3,1349.1,685.9,1356.8z"/>
		<path class="st0" d="M130.6,1090.2c-52.9,23.3-87.8,79.5-83.9,135.2"/>
		<path class="st1" d="M62.4,1344.6c1.3,2.4,1.9,5.2,2.2,7.8c0.6,6.7-0.6,13.1-3.2,19.4c-0.6,1.9-1.9,3.7-3.2,5.2
			c-1.3,1.5-3.2,1.9-5.2,1.5c-1.7-1.1-2.6-2.8-2.8-4.7c-1.9-8.2-2.4-16.6-0.9-24.8C50.3,1340.2,58.7,1338.5,62.4,1344.6z"/>
		<path class="st1" d="M74.4,1331.6c2.2,1.7,3.7,3.9,4.7,6.2c3.2,6,4.5,12.5,4.3,19.4c0,2.2-0.4,4.1-1.3,6c-0.6,1.9-2.4,3.2-4.3,3.4
			c-1.7,0-3.2-1.7-4.5-3.7c-4.9-6.7-8.4-14.2-10.5-22.2C61.7,1332.5,68.6,1327.5,74.4,1331.6z"/>
		<path class="st1" d="M41.9,1345.6c1.3,2.4,1.9,5.2,2.2,7.8c0.6,6.7-0.6,13.1-3.2,19.4c-0.6,1.9-1.9,3.7-3.2,5.2
			c-1.3,1.5-3.2,1.9-5.2,1.5c-1.7-1.1-2.6-2.8-2.8-4.7c-1.9-8.2-2.4-16.6-0.9-24.8C29.9,1341.5,38.3,1339.6,41.9,1345.6z"/>
		<path class="st2" d="M82.2,1230.6c0-5.4-16.1-9.7-36.1-9.7c-20,0-36.1,4.3-36.1,9.7v89.4c0,20,16.1,36.2,36.1,36.2h0.2
			c20,0,36.1-16.2,36.1-36.2v-89.4H82.2z"/>
		<path class="st3" d="M30.1,1335.5c0.9,3,0.9,6,0.2,9c-1.1,7.1-4.1,13.6-8.8,19c-1.3,1.9-3,3.2-5.2,4.3c-1.9,1.1-4.3,0.9-6-0.6
			c-1.7-1.5-1.7-4.3-1.7-6.2c-0.2-9,1.7-18.1,5.2-26.7C17.8,1325.8,27.7,1327.5,30.1,1335.5z"/>
		<path class="st1" d="M177.4,1105.6c9.2,40.7,3.1,76.8-13.6,80.6s-37.7-26.2-46.8-66.9s-3.1-76.8,13.6-80.6
			C147.3,1034.9,168.2,1064.9,177.4,1105.6z"/>
		<path class="st1" d="M585.4,1038.6c16.7,3.8,22.8,39.8,13.6,80.6c-9.2,40.7-30.1,70.7-46.8,66.9s-22.8-39.8-13.6-80.6
			C547.7,1064.8,568.7,1034.8,585.4,1038.6z"/>
		<path class="st4" d="M553.2,1304.5c-2.4-87,2.4-174.2,14.2-260.6H148.6c11.8,86.4,16.6,173.6,14.2,260.6
			c-2.4,59.7,18.1,111.8,54.4,142.4c59,58.8,237.1,56.6,286.8-4.7c32.7-31,50.8-80.1,49.3-136.1
			C553.2,1305.6,552.9,1304.9,553.2,1304.5z"/>
		<path class="st5" d="M138.1,1569.8h59.4c2.2,0,4.3-4.5,5.2-11.2c7.3-58.6,7.3-118,0-176.6c-0.9-6.7-3-11.2-5.2-11.2h-59.4
			c-2.2,0-4.3,4.5-5.2,11.2c-7.3,58.6-7.3,118,0,176.6C134,1565.5,136.2,1569.8,138.1,1569.8z"/>
		<path class="st6" d="M147.1,1044.1c0,0,207.4,114.4,418.9,0H147.1z"/>
		<path class="st3" d="M400,1165.8h104.8v29.5H400V1165.8z"/>
		<path class="st3" d="M426.9,1225.9c0,6.2-5,11.2-11.2,11.2s-11.2-5-11.2-11.2s5-11.2,11.2-11.2S426.9,1219.7,426.9,1225.9z"/>
		<path class="st3" d="M469.7,1225.9c0,9.6-7.8,17.4-17.4,17.4c-9.6,0-17.4-7.8-17.4-17.4s7.8-17.4,17.4-17.4
			C461.9,1208.4,469.7,1216.3,469.7,1225.9z"/>
		<path class="st3" d="M500,1225.9c0,6.2-5,11.2-11.2,11.2c-6.2,0-11.2-5-11.2-11.2s5-11.2,11.2-11.2
			C495,1214.7,500,1219.7,500,1225.9z"/>
		<path class="st7" d="M164.1,1272.6l-31.6,43.9c-2.2,3-3.4,6.7-3.7,10.6l-4.3,93l15.7,20.5l70.8,0.6
			C211.3,1441.3,214.7,1272.6,164.1,1272.6z"/>
		<path class="st8" d="M128.2,1440.6h12.9c1.5-78-2.4-112.6-8.6-119.3c-6.2-6.7-10.3,37.9-11.8,111.6c-0.2,4.1,3,7.5,7.1,7.7
			C128,1440.6,128.2,1440.6,128.2,1440.6z"/>
		<path class="st5" d="M577.9,1569.8h-59.4c-2.2,0-4.3-4.5-5.2-11.2c-7.3-58.6-7.3-118,0-176.6c0.9-6.7,3-11.2,5.2-11.2h59.2
			c2.2,0,4.3,4.5,5.2,11.2c7.3,58.6,7.3,118,0,176.6C582,1565.5,579.8,1569.8,577.9,1569.8z"/>
		<path class="st7" d="M551.9,1272.6l31.6,43.9c2.2,3,3.4,6.7,3.7,10.6l4.3,93l-15.7,20.5l-70.8,0.6
			C504.7,1441.3,501.3,1272.6,551.9,1272.6z"/>
		<path class="st8" d="M587.8,1440.6h-12.9c-1.5-78,2.4-112.6,8.6-119.3c6.2-6.7,10.3,37.9,11.8,111.6c0.2,4.1-3,7.5-7.1,7.7
			C588,1440.6,587.8,1440.6,587.8,1440.6z"/>
		<path class="st9" d="M475.5,703.2v5c60.2,0,89.1,28.6,102.9,52.8c18.1,31.4,23.2,75.4,13.6,115c-11.2,45.4-22.8,89.2-35.3,133.1
			h-397c-12.3-44.4-24.1-87.7-35.3-133.1c-3.2-13.4-4.9-27.1-4.7-40.9c0-27.4,6.7-53.8,18.3-74.3c13.6-24.1,42.4-52.8,102.9-52.8
			c8.4,0,16.8,0.6,25.4,1.5c11.2,1.3,22.6,2.4,34,3.2c18.9,1.5,38.5,2.2,58.1,2.2c19.6,0,39.2-0.6,58.1-2.2
			c11.4-0.9,22.8-1.7,34-3.2c8.4-0.9,16.8-1.5,25.4-1.5L475.5,703.2 M475.5,703.2c-8.6,0-17.2,0.6-25.8,1.5
			c-11.2,1.3-22.6,2.4-33.8,3.2c-19.1,1.5-38.5,2.2-57.9,2.2c-19.4,0-38.5-0.6-57.9-2.2c-11.2-0.9-22.6-1.7-33.8-3.2
			c-8.6-1.1-17.2-1.5-25.8-1.5c-45.2,0-84.6,15.9-106.9,55.1c-12.7,21.8-18.9,49.1-18.9,76.9c0,14.2,1.7,28.2,5.2,41.8
			c12,48.5,24.1,93.9,36.4,136.8h404.1c12-42.9,24.3-88.3,36.4-136.8c9.9-40.3,5.2-85.9-13.8-118.7
			C560,719.1,520.7,703.2,475.5,703.2z"/>
		<path class="st10" d="M596.2,877c-12,48.5-24.1,93.9-36.4,136.8H156c-12-42.9-24.3-88.3-36.4-136.8c-3.2-13.8-4.9-27.8-5.2-41.8
			c0-27.8,6.2-55.1,18.9-76.9c26.5-46.3,77-60.3,132.8-53.6c11.2,1.3,22.6,2.4,33.8,3.2c19.4,1.5,38.5,2.2,57.9,2.2
			c19.4,0,38.5-0.6,57.9-2.2c11.2-0.9,22.6-1.7,33.8-3.2c55.9-6.7,106.5,6.9,132.8,53.6C601.4,791.3,606.1,836.7,596.2,877z"/>
		<path class="st2" d="M539.8,917.7c-9.3,34.2-18.3,66.3-27.8,96.5H203.7c-9.3-30.2-18.7-62-27.8-96.5c-2.6-9.7-3.9-19.6-3.9-29.5
			c0-19.6,4.7-38.8,14.4-53.8c20-33,58.7-42.6,101.3-37.7c8.8,0.9,17.2,1.7,25.8,2.4c14.8,0.9,29.5,1.5,44.3,1.5
			c14.8,0,29.5-0.6,44.3-1.5c8.8-0.6,17.2-1.3,25.8-2.4c42.8-4.7,81.3,4.7,101.3,37.7C543.7,857.2,547.8,889.1,539.8,917.7z"/>
		<path class="st11" d="M311.7,915.5c-4.3,18.3-24.1,33.4-44.3,28.6c-20.2-4.7-32.7-25.6-28.4-41.8
			C262,911.9,286.8,916.4,311.7,915.5z"/>
		<path class="st11" d="M311.7,915.5c-4.3,18.3-24.1,33.4-44.3,28.6c-20.2-4.7-32.7-25.6-28.4-41.8
			C262,911.9,286.8,916.4,311.7,915.5z"/>
		<g>
			<defs>
				<path id="SVGID_1_" d="M311.7,915.6c-4.3,18.3-24.1,33.4-44.3,28.6c-20.2-4.7-32.7-25.6-28.4-41.8
					C262,911.9,286.8,916.4,311.7,915.6z"/>
			</defs>
			<clipPath id="SVGID_00000003070161055065902260000002330234667251558050_">
				<use xlink:href="#SVGID_1_"  style="overflow:visible;"/>
			</clipPath>
			<g style="clip-path:url(#SVGID_00000003070161055065902260000002330234667251558050_);">
				<path class="st7" d="M302.7,911.7c-3,12.9-16.8,23.5-31.2,20.2c-14.4-3.2-23.2-18.1-20.2-29.5
					C267.6,909.1,285.1,912.3,302.7,911.7z"/>
			</g>
		</g>
		<path class="st13" d="M316,913.8c-7.3,2.6-14.8,4.1-22.6,4.3c-7.7,0.4-15.3-0.4-22.8-2.2c-7.5-1.7-14.8-4.3-21.7-7.8
			c-6.9-3.2-13.1-7.8-18.7-13.4c6.9,3.2,13.8,6,20.9,8.6c6.9,2.4,14,4.5,21.1,6c7.1,1.5,14.4,2.6,21.7,3.2
			C301.2,913.6,308.5,914,316,913.8z"/>
		<path class="st14" d="M238.2,878.3c4.9-3.7,10.3-6.7,15.9-9.3c2.8-1.3,5.8-2.4,8.6-3.7l9-2.8c3-0.9,6-1.7,9.3-2.6
			c3-0.9,6.2-0.9,9.3-0.2c3.2,0.4,6.5,1.5,9.5,2.8c3.2,1.5,6.2,3.9,8.4,6.7c0.4,0.4,0.4,1.1,0,1.5l-0.2,0.2c-2.8,1.9-5.8,3.7-9,5.2
			c-2.8,1.1-5.6,1.9-8.4,2.8c-2.6,0.6-5.4,0.6-8.2,0.2c-2.8-0.2-5.8-0.9-8.4-1.3h-8.4c-3,0-5.8,0-8.8,0.2
			c-5.8,0.2-11.8,0.9-17.9,1.7c-0.6,0-1.3-0.2-1.3-0.9C237.7,878.7,237.9,878.5,238.2,878.3z"/>
		<path class="st11" d="M404.3,915.5c4.3,18.3,24.1,33.4,44.3,28.6c20.2-4.7,32.7-25.6,28.6-41.8C454,911.9,429.2,916.4,404.3,915.5
			z"/>
		<path class="st11" d="M404.3,915.5c4.3,18.3,24.1,33.4,44.3,28.6c20.2-4.7,32.7-25.6,28.6-41.8C454,911.9,429.2,916.4,404.3,915.5
			z"/>
		<g>
			<defs>
				<path id="SVGID_00000033350011690300027440000005835313779524769943_" d="M404.3,915.6c4.3,18.3,24.1,33.4,44.3,28.6
					c20.2-4.7,32.7-25.6,28.6-41.8C454,911.9,429.2,916.4,404.3,915.6z"/>
			</defs>
			<clipPath id="SVGID_00000131351274618518772220000001407950618826953094_">
				<use xlink:href="#SVGID_00000033350011690300027440000005835313779524769943_"  style="overflow:visible;"/>
			</clipPath>
			<g style="clip-path:url(#SVGID_00000131351274618518772220000001407950618826953094_);">
				<path class="st7" d="M413.3,911.7c3,12.9,16.8,23.5,31.2,20.2c14.4-3.2,23.2-18.1,20.2-29.5
					C448.4,909.1,430.9,912.3,413.3,911.7z"/>
			</g>
		</g>
		<path class="st13" d="M400,913.8c7.5,0,15.1,0,22.4-0.6c7.3-0.6,14.4-1.7,21.7-3.2c7.1-1.5,14.2-3.7,21.1-6
			c7.1-2.6,14-5.4,20.7-8.6c-5.6,5.4-11.8,9.7-18.7,13.1c-6.9,3.4-14.2,6-21.7,7.8c-7.5,1.5-15.3,2.4-22.8,2.2
			C414.8,917.9,407.3,916.4,400,913.8z"/>
		<path class="st14" d="M477.4,880c-5.8-0.9-11.8-1.5-17.9-1.7c-2.8-0.2-5.8-0.4-8.8-0.2h-8.4c-2.8,0-5.6,0.4-8.4,1.3
			c-2.8,0.4-5.4,0.4-8.2-0.2c-2.8-0.6-5.6-1.5-8.4-2.8c-3.2-1.3-6.2-3-9-5.2c-0.6-0.2-0.6-1.3-0.2-1.7c2.4-2.8,5.2-5,8.4-6.7
			c2.8-1.5,6-2.6,9.3-3c3-0.4,6.2-0.4,9.3,0.2c3,1.1,6.2,1.9,9.3,2.8l9,2.8c3,1.3,5.6,2.4,8.8,3.7c5.6,2.6,11,5.6,15.9,9.3
			c0.4,0.4,0.4,1.1,0.2,1.5C478.1,880,477.6,880,477.4,880z"/>
		<path class="st13" d="M328.7,957.5c4.3,2.4,9,4.1,13.8,5.4c4.1,1.1,8.2,1.7,12.3,1.7c4.1,0,8.2-0.6,12.3-1.5
			c4.7-1.3,9.5-3,13.8-5.2c-1.1,5.8-4.5,11-9.3,14.2c-5.2,3.4-11,5.4-17.2,5.4c-6,0-12-2.2-16.8-5.8
			C333,968.3,329.8,963.1,328.7,957.5z"/>
		<path class="st16" d="M385.5,801.8c-0.2-7.8-3.2-15.1-6.7-22.2c-2.6-6-9.9-17.2-21.1-16.8h-2.4c-11.4-0.2-18.3,11.2-21.1,16.8
			c-3.2,7.1-6.7,14.4-6.7,22.2c-0.6,8.2,3.2,16.2,9.9,20.7c11.8,7.3,26.7,7.3,38.5,0C382.5,817.6,386,809.8,385.5,801.8z"/>
		<path class="st17" d="M152.1,863c-6.2,0-11.4-4.5-12.3-10.8c-1.1-7.1-1.7-14.2-1.7-21.5c0-21.1,4.7-41.8,14.4-58.4
			c9.7-17.4,25.8-30.6,44.8-36.4c2.2-1.3,4.7-0.4,5.8,1.5c1.1,1.9,0.4,4.7-1.5,5.8c-9,6.9-16.6,15.5-22.4,25.2
			c-9.9,17.2-15.1,39.2-15.1,61.2c0,6.2,0.4,12.5,1.3,18.7c0.9,7.1-4.3,13.6-11.2,14.4C153.4,862.8,152.7,863,152.1,863z"/>
		<path class="st18" d="M556.8,1052.3c-132.8,18.7-267.7,18.7-400.4,0c-14.2-2.4-25-14.6-25.4-29.3v-2.2c-0.4-11.8,8.8-21.5,20.7-22
			c1.5,0,3.2,0,4.7,0.4c132.8,18.7,267.7,18.7,400.4,0c14.2-2.2,25.2,7.5,25.2,21.8v2.2C582.2,1037,570.8,1050.2,556.8,1052.3z"/>
		<path class="st17" d="M147.1,891.2v0.9c0.9,5.4,4.7,9,9.3,8.6c1.5,0,2.8-0.2,4.3-0.6c5.2-0.9,8.4-6.7,7.7-12.7v-0.9
			c-0.9-6.2-5.8-10.6-10.8-9c-0.9,0.2-1.7,0.2-2.8,0.6C149.5,878.9,146.1,885,147.1,891.2z"/>
		<path class="st14" d="M152.3,803.3l-86.9-45.9c-1.7-0.9-2.6-3-1.7-4.7c0,0,0-0.2,0.2-0.2c1.1-1.7,3.2-2.6,5.2-1.7l88.4,42.4
			c2.8,1.3,3.9,4.7,2.6,7.5c-1.3,2.8-4.7,4.1-7.5,2.8C152.5,803.3,152.5,803.3,152.3,803.3z"/>
		<path class="st14" d="M78.7,754.2c0,6.4-5.2,11.6-11.6,11.6c-6.4,0-11.6-5.2-11.6-11.6c0-6.4,5.2-11.6,11.6-11.6
			C73.5,742.6,78.7,747.8,78.7,754.2z"/>
		<path class="st19" d="M103,752.4c4.7,1.7,5.8,10.4,2.6,19.5c-3.3,9.1-9.7,15-14.4,13.3c-4.7-1.7-5.8-10.4-2.6-19.5
			C91.9,756.7,98.3,750.7,103,752.4z"/>
		<path class="st20" d="M134.8,756.5c4.7,1.7,4.3,14.8-1,29.2c-5.2,14.4-13.3,24.7-18,23c-4.7-1.7-4.3-14.8,1-29.2
			C122.1,765.1,130.1,754.8,134.8,756.5z"/>
		<path class="st14" d="M558.5,793.2l88.4-42.4c1.9-0.9,4.3,0,5.2,1.7c0.9,1.9,0,4.3-1.7,5.2l-86.9,45.7c-2.8,1.5-6,0.4-7.5-2.4l0,0
			C554.7,798.2,555.7,794.9,558.5,793.2z"/>
		<path class="st14" d="M660.7,754.2c0,6.5-5.3,11.8-11.8,11.8s-11.8-5.3-11.8-11.8c0-6.5,5.3-11.8,11.8-11.8
			S660.7,747.7,660.7,754.2z"/>
		<path class="st21" d="M627.9,766c3.3,9.1,2.1,17.8-2.6,19.5c-4.7,1.7-11.2-4.3-14.4-13.3c-3.3-9.1-2.1-17.8,2.6-19.5
			C618.2,751,624.7,757,627.9,766z"/>
		<path class="st22" d="M599.6,780c5.2,14.4,5.7,27.5,1,29.2c-4.7,1.7-12.7-8.6-18-23c-5.2-14.4-5.7-27.5-1-29.2
			C586.3,755.3,594.4,765.6,599.6,780z"/>
	</g>
</g>
</svg>
