<?xml version="1.0" encoding="utf-8"?>
<!-- Generator: Adobe Illustrator 25.2.0, SVG Export Plug-In . SVG Version: 6.00 Build 0)  -->
<svg version="1.1" id="Layer_1" xmlns="http://www.w3.org/2000/svg" xmlns:xlink="http://www.w3.org/1999/xlink" x="0px" y="0px"
	 viewBox="0 0 380.8 402.4" style="enable-background:new 0 0 380.8 402.4;" xml:space="preserve">
<style type="text/css">
	.st0{fill:none;stroke:#2E3191;stroke-width:9.12;stroke-linecap:round;stroke-miterlimit:10;}
	.st1{fill:#D0A109;}
	.st2{fill:#04A65A;}
	.st3{fill:#FFC50B;}
	.st4{fill:#EC1E79;}
	.st5{fill:#1B1464;}
	.st6{fill:#D01A6B;}
	.st7{fill:#FF2081;}
	.st8{fill:#BE1862;}
	.st9{fill:#4AA6C0;}
	.st10{opacity:0.5;fill:#68DFE7;enable-background:new    ;}
	.st11{fill:#FFFFFF;}
	.st12{clip-path:url(#SVGID_2_);}
	.st13{fill:#328545;}
	.st14{fill:#2E3191;}
	.st15{clip-path:url(#SVGID_4_);}
	.st16{fill:#006837;}
	.st17{opacity:0.5;fill:#FFFFFF;enable-background:new    ;}
	.st18{fill:#FFF100;}
	.st19{fill:none;stroke:#2E3191;stroke-width:2.59;stroke-linecap:round;stroke-miterlimit:10;}
	.st20{fill:none;stroke:#2E3191;stroke-width:3.26;stroke-linecap:round;stroke-miterlimit:10;}
</style>
<path id="r-arm" class="st0" d="M268,189.7c26.7,2.7,53.7-12.1,64.9-35.5"/>
<g id="r-hand">
	<path class="st1" d="M368.3,111.4c1.1-0.6,2.1-1.5,2.8-2.5c1.9-2.4,3.1-5.3,3.6-8.3c0.2-0.9,0.2-1.9,0-2.8
		c-0.1-0.9-0.8-1.6-1.6-1.9c-0.9,0-1.8,0.5-2.3,1.2c-2.8,2.7-5.1,5.8-6.6,9.4C362.5,110,365.4,112.8,368.3,111.4z"/>
	<path class="st1" d="M369.7,119.5c1.2-0.1,2.4-0.6,3.5-1.2c2.7-1.5,5-3.8,6.5-6.4c0.6-0.8,0.9-1.7,1.1-2.7c0.2-0.9-0.1-1.8-0.8-2.4
		c-0.7-0.4-1.8-0.1-2.7,0.3c-3.6,1.4-6.9,3.4-9.7,6C365,115.9,366.5,119.6,369.7,119.5z"/>
	<path class="st1" d="M360.6,105.7c1.1-0.6,2-1.5,2.8-2.5c1.9-2.4,3.1-5.3,3.6-8.3c0.2-0.9,0.2-1.9,0-2.8c-0.1-0.9-0.8-1.6-1.6-1.9
		c-0.9,0-1.7,0.5-2.3,1.2c-2.8,2.7-5.1,5.8-6.6,9.4C354.9,104.3,357.7,107.2,360.6,105.7z"/>
	<path class="st2" d="M319.1,142.5c-1.4,2.1,3.9,7.9,11.6,12.9s15.2,7.4,16.5,5.4l0.1,0.1L370,126c5-7.8,2.8-18.2-5-23.2l-0.1-0.1
		c-7.8-5-18.2-2.8-23.2,5L319.1,142.5z"/>
	<path class="st3" d="M353.5,106.8c1.1-0.9,1.9-2.1,2.4-3.4c1.4-3,1.8-6.3,1.4-9.6c-0.1-1-0.4-2-0.9-2.9c-0.5-0.9-1.5-1.4-2.5-1.3
		c-1.1,0.1-1.8,1.2-2.3,2c-2.3,3.5-3.9,7.5-4.7,11.6C346.2,107.4,350.5,109.2,353.5,106.8z"/>
</g>
<path id="l-arm" class="st0" d="M56.6,179.7c-24.6,10.8-40.8,36.9-39,62.8"/>
<g id="l-hand">
	<path class="st1" d="M24.9,297.8c0.6,1.1,0.9,2.4,1,3.6c0.3,3.1-0.3,6.1-1.5,9c-0.3,0.9-0.9,1.7-1.5,2.4c-0.6,0.7-1.5,0.9-2.4,0.7
		c-0.8-0.5-1.2-1.3-1.3-2.2c-0.9-3.8-1.1-7.7-0.4-11.5C19.3,295.8,23.2,295,24.9,297.8z"/>
	<path class="st1" d="M30.5,291.8c1,0.8,1.7,1.8,2.2,2.9c1.5,2.8,2.1,5.8,2,9c0,1-0.2,1.9-0.6,2.8c-0.3,0.9-1.1,1.5-2,1.6
		c-0.8,0-1.5-0.8-2.1-1.7c-2.3-3.1-3.9-6.6-4.9-10.3C24.6,292.2,27.8,289.9,30.5,291.8z"/>
	<path class="st1" d="M15.4,298.3c0.6,1.1,0.9,2.4,1,3.6c0.3,3.1-0.3,6.1-1.5,9c-0.3,0.9-0.9,1.7-1.5,2.4c-0.6,0.7-1.5,0.9-2.4,0.7
		c-0.8-0.5-1.2-1.3-1.3-2.2c-0.9-3.8-1.1-7.7-0.4-11.5C9.8,296.4,13.7,295.5,15.4,298.3z"/>
	<path class="st2" d="M34.1,244.9c0-2.5-7.5-4.5-16.8-4.5s-16.8,2-16.8,4.5v41.5c0,9.3,7.5,16.8,16.8,16.8h0.1
		c9.3,0,16.8-7.5,16.8-16.8v-41.5H34.1z"/>
	<path class="st3" d="M9.9,293.6c0.4,1.4,0.4,2.8,0.1,4.2c-0.5,3.3-1.9,6.3-4.1,8.8c-0.6,0.9-1.4,1.5-2.4,2c-0.9,0.5-2,0.4-2.8-0.3
		c-0.8-0.7-0.8-2-0.8-2.9c-0.1-4.2,0.8-8.4,2.4-12.4C4.2,289.1,8.8,289.9,9.9,293.6z"/>
</g>
<g id="body">
	<ellipse transform="matrix(0.9756 -0.2197 0.2197 0.9756 -40.1639 18.7759)" class="st1" cx="64.3" cy="190" rx="14.4" ry="35.1"/>
	
		<ellipse transform="matrix(0.2197 -0.9756 0.9756 0.2197 17.7373 402.0934)" class="st1" cx="260.2" cy="190" rx="35.1" ry="14.4"/>
	<path class="st4" d="M253,279.2c-1.1-40.4,1.1-80.9,6.6-121H65c5.5,40.1,7.7,80.6,6.6,121c-1.1,27.7,8.4,51.9,25.3,66.1
		c27.4,27.3,110.2,26.3,133.3-2.2c15.2-14.4,23.6-37.2,22.9-63.2C253,279.7,252.9,279.4,253,279.2z"/>
	<path class="st5" d="M60.1,402.4h27.6c1,0,2-2.1,2.4-5.2c3.4-27.2,3.4-54.8,0-82c-0.4-3.1-1.4-5.2-2.4-5.2H60.1c-1,0-2,2.1-2.4,5.2
		c-3.4,27.2-3.4,54.8,0,82C58.2,400.4,59.2,402.4,60.1,402.4z"/>
	<path class="st6" d="M64.3,158.3c0,0,96.4,53.1,194.7,0H64.3z"/>
	<rect x="181.8" y="214.8" class="st3" width="48.7" height="13.7"/>
	<circle class="st3" cx="189.1" cy="242.7" r="5.2"/>
	<circle class="st3" cx="206.1" cy="242.7" r="8.1"/>
	<circle class="st3" cx="223.1" cy="242.7" r="5.2"/>
	<path class="st7" d="M72.2,264.4l-14.7,20.4c-1,1.4-1.6,3.1-1.7,4.9l-2,43.2l7.3,9.5l32.9,0.3C94.1,342.7,95.7,264.4,72.2,264.4z"
		/>
	<path class="st8" d="M55.5,342.4h6c0.7-36.2-1.1-52.3-4-55.4s-4.8,17.6-5.5,51.8c-0.1,1.9,1.4,3.5,3.3,3.6
		C55.4,342.4,55.5,342.4,55.5,342.4z"/>
	<path class="st5" d="M264.5,402.4h-27.6c-1,0-2-2.1-2.4-5.2c-3.4-27.2-3.4-54.8,0-82c0.4-3.1,1.4-5.2,2.4-5.2h27.5
		c1,0,2,2.1,2.4,5.2c3.4,27.2,3.4,54.8,0,82C266.4,400.4,265.4,402.4,264.5,402.4z"/>
	<path class="st7" d="M252.4,264.4l14.7,20.4c1,1.4,1.6,3.1,1.7,4.9l2,43.2l-7.3,9.5l-32.9,0.3C230.5,342.7,228.9,264.4,252.4,264.4
		z"/>
	<path class="st8" d="M269.1,342.4h-6c-0.7-36.2,1.1-52.3,4-55.4s4.8,17.6,5.5,51.8c0.1,1.9-1.4,3.5-3.3,3.6
		C269.2,342.4,269.1,342.4,269.1,342.4z"/>
</g>
<g id="head">
	<path class="st9" d="M216.9,0v2.3l0,0c28,0,41.4,13.3,47.8,24.5c8.4,14.6,10.8,35,6.3,53.4c-5.2,21.1-10.6,41.4-16.4,61.8H70.1
		c-5.7-20.6-11.2-40.7-16.4-61.8c-1.5-6.2-2.3-12.6-2.2-19c0-12.7,3.1-25,8.5-34.5c6.3-11.2,19.7-24.5,47.8-24.5
		c3.9,0,7.8,0.3,11.8,0.7c5.2,0.6,10.5,1.1,15.8,1.5c8.8,0.7,17.9,1,27,1s18.2-0.3,27-1c5.3-0.4,10.6-0.8,15.8-1.5
		c3.9-0.4,7.8-0.7,11.8-0.7L216.9,0 M216.9,0c-4,0-8,0.3-12,0.7c-5.2,0.6-10.5,1.1-15.7,1.5c-8.9,0.7-17.9,1-26.9,1
		s-17.9-0.3-26.9-1c-5.2-0.4-10.5-0.8-15.7-1.5c-4-0.5-8-0.7-12-0.7C86.7,0,68.4,7.4,58,25.6c-5.9,10.1-8.8,22.8-8.8,35.7
		c0,6.6,0.8,13.1,2.4,19.4c5.6,22.5,11.2,43.6,16.9,63.5h187.8c5.6-19.9,11.3-41,16.9-63.5c4.6-18.7,2.4-39.9-6.4-55.1
		C256.2,7.4,237.9,0,216.9,0L216.9,0z"/>
	<path class="st10" d="M273,80.7c-5.6,22.5-11.2,43.6-16.9,63.5H68.4c-5.6-19.9-11.3-41-16.9-63.5c-1.5-6.4-2.3-12.9-2.4-19.4
		c0-12.9,2.9-25.6,8.8-35.7c12.3-21.5,35.8-28,61.7-24.9c5.2,0.6,10.5,1.1,15.7,1.5c9,0.7,17.9,1,26.9,1s17.9-0.3,26.9-1
		c5.2-0.4,10.5-0.8,15.7-1.5c26-3.1,49.5,3.2,61.7,24.9C275.4,40.9,277.6,62,273,80.7z"/>
	<path class="st2" d="M246.8,99.6c-4.3,15.9-8.5,30.8-12.9,44.8H90.6c-4.3-14-8.7-28.8-12.9-44.8c-1.2-4.5-1.8-9.1-1.8-13.7
		c0-9.1,2.2-18,6.7-25c9.3-15.3,27.3-19.8,47.1-17.5c4.1,0.4,8,0.8,12,1.1c6.9,0.4,13.7,0.7,20.6,0.7s13.7-0.3,20.6-0.7
		c4.1-0.3,8-0.6,12-1.1c19.9-2.2,37.8,2.2,47.1,17.5C248.6,71.5,250.5,86.3,246.8,99.6z"/>
	<path class="st11" d="M140.8,98.6c-2,8.5-11.2,15.5-20.6,13.3S105,100,107,92.5C117.7,96.9,129.2,99,140.8,98.6z"/>
	<path class="st11" d="M140.8,98.6c-2,8.5-11.2,15.5-20.6,13.3S105,100,107,92.5C117.7,96.9,129.2,99,140.8,98.6z"/>
	<g>
		<defs>
			<path id="SVGID_1_" d="M140.8,98.6c-2,8.5-11.2,15.5-20.6,13.3S105,100,107,92.5C117.7,96.9,129.2,99,140.8,98.6z"/>
		</defs>
		<clipPath id="SVGID_2_">
			<use xlink:href="#SVGID_1_"  style="overflow:visible;"/>
		</clipPath>
		<g class="st12">
			<path class="st7" d="M136.6,96.8c-1.4,6-7.8,10.9-14.5,9.4s-10.8-8.4-9.4-13.7C120.3,95.6,128.4,97.1,136.6,96.8z"/>
		</g>
	</g>
	<path class="st13" d="M142.8,97.8c-3.4,1.2-6.9,1.9-10.5,2c-3.6,0.2-7.1-0.2-10.6-1c-3.5-0.8-6.9-2-10.1-3.6
		c-3.2-1.5-6.1-3.6-8.7-6.2c3.2,1.5,6.4,2.8,9.7,4c3.2,1.1,6.5,2.1,9.8,2.8c3.3,0.7,6.7,1.2,10.1,1.5
		C135.9,97.7,139.3,97.9,142.8,97.8z"/>
	<path class="st14" d="M106.6,81.3c2.3-1.7,4.8-3.1,7.4-4.3c1.3-0.6,2.7-1.1,4-1.7l4.2-1.3c1.4-0.4,2.8-0.8,4.3-1.2
		c1.4-0.4,2.9-0.4,4.3-0.1c1.5,0.2,3,0.7,4.4,1.3c1.5,0.7,2.9,1.8,3.9,3.1c0.2,0.2,0.2,0.5,0,0.7c0,0-0.1,0.1-0.1,0.1l0,0
		c-1.3,0.9-2.7,1.7-4.2,2.4c-1.3,0.5-2.6,0.9-3.9,1.3c-1.2,0.3-2.5,0.3-3.8,0.1c-1.3-0.1-2.7-0.4-3.9-0.6h-3.9c-1.4,0-2.7,0-4.1,0.1
		c-2.7,0.1-5.5,0.4-8.3,0.8c-0.3,0-0.6-0.1-0.6-0.4C106.4,81.5,106.5,81.4,106.6,81.3z"/>
	<path class="st11" d="M183.8,98.6c2,8.5,11.2,15.5,20.6,13.3s15.2-11.9,13.3-19.4C206.9,96.9,195.4,99,183.8,98.6z"/>
	<path class="st11" d="M183.8,98.6c2,8.5,11.2,15.5,20.6,13.3s15.2-11.9,13.3-19.4C206.9,96.9,195.4,99,183.8,98.6z"/>
	<g>
		<defs>
			<path id="SVGID_3_" d="M183.8,98.6c2,8.5,11.2,15.5,20.6,13.3s15.2-11.9,13.3-19.4C206.9,96.9,195.4,99,183.8,98.6z"/>
		</defs>
		<clipPath id="SVGID_4_">
			<use xlink:href="#SVGID_3_"  style="overflow:visible;"/>
		</clipPath>
		<g class="st15">
			<path class="st7" d="M188,96.8c1.4,6,7.8,10.9,14.5,9.4s10.8-8.4,9.4-13.7C204.3,95.6,196.2,97.1,188,96.8z"/>
		</g>
	</g>
	<path class="st13" d="M181.8,97.8c3.5,0,7,0,10.4-0.3c3.4-0.3,6.7-0.8,10.1-1.5c3.3-0.7,6.6-1.7,9.8-2.8c3.3-1.2,6.5-2.5,9.6-4
		c-2.6,2.5-5.5,4.5-8.7,6.1c-3.2,1.6-6.6,2.8-10.1,3.6c-3.5,0.7-7.1,1.1-10.6,1C188.7,99.7,185.2,99,181.8,97.8z"/>
	<path class="st14" d="M217.8,82.1c-2.7-0.4-5.5-0.7-8.3-0.8c-1.3-0.1-2.7-0.2-4.1-0.1h-3.9c-1.3,0-2.6,0.2-3.9,0.6
		c-1.3,0.2-2.5,0.2-3.8-0.1c-1.3-0.3-2.6-0.7-3.9-1.3c-1.5-0.6-2.9-1.4-4.2-2.4l0,0c-0.3-0.1-0.3-0.6-0.1-0.8l0,0
		c1.1-1.3,2.4-2.3,3.9-3.1c1.3-0.7,2.8-1.2,4.3-1.4c1.4-0.2,2.9-0.2,4.3,0.1c1.4,0.5,2.9,0.9,4.3,1.3l4.2,1.3
		c1.4,0.6,2.6,1.1,4.1,1.7c2.6,1.2,5.1,2.6,7.4,4.3c0.2,0.2,0.2,0.5,0.1,0.7C218.1,82.1,217.9,82.1,217.8,82.1z"/>
	<path class="st13" d="M148.7,118.1c2,1.1,4.2,1.9,6.4,2.5c1.9,0.5,3.8,0.8,5.7,0.8c1.9,0,3.8-0.3,5.7-0.7c2.2-0.6,4.4-1.4,6.4-2.4
		c-0.5,2.7-2.1,5.1-4.3,6.6c-2.4,1.6-5.1,2.5-8,2.5c-2.8,0-5.6-1-7.8-2.7C150.7,123.1,149.2,120.7,148.7,118.1z"/>
	<path class="st16" d="M175.1,45.8c-0.1-3.6-1.5-7-3.1-10.3c-1.2-2.8-4.6-8-9.8-7.8h-1.1c-5.3-0.1-8.5,5.2-9.8,7.8
		c-1.5,3.3-3.1,6.7-3.1,10.3c-0.3,3.8,1.5,7.5,4.6,9.6c5.5,3.4,12.4,3.4,17.9,0C173.7,53.1,175.3,49.5,175.1,45.8z"/>
	<path class="st17" d="M66.6,74.2c-2.9,0-5.3-2.1-5.7-5c-0.5-3.3-0.8-6.6-0.8-10c0-9.8,2.2-19.4,6.7-27.1c4.5-8.1,12-14.2,20.8-16.9
		c1-0.6,2.2-0.2,2.7,0.7s0.2,2.2-0.7,2.7c-4.2,3.2-7.7,7.2-10.4,11.7c-4.6,8-7,18.2-7,28.4c0,2.9,0.2,5.8,0.6,8.7
		c0.4,3.3-2,6.3-5.2,6.7C67.2,74.1,66.9,74.2,66.6,74.2L66.6,74.2z"/>
	<path class="st18" d="M254.7,162.1c-61.7,8.7-124.4,8.7-186.1,0c-6.6-1.1-11.6-6.8-11.8-13.6v-1c-0.2-5.5,4.1-10,9.6-10.2
		c0.7,0,1.5,0,2.2,0.2c61.7,8.7,124.4,8.7,186.1,0c6.6-1,11.7,3.5,11.7,10.1v1C266.5,155,261.2,161.1,254.7,162.1z"/>
	<path class="st17" d="M64.3,87.3v0.4c0.4,2.5,2.2,4.2,4.3,4c0.7,0,1.3-0.1,2-0.3c2.4-0.4,3.9-3.1,3.6-5.9v-0.4
		c-0.4-2.9-2.7-4.9-5-4.2c-0.4,0.1-0.8,0.1-1.3,0.3C65.4,81.6,63.8,84.4,64.3,87.3z"/>
	<path class="st14" d="M66.7,46.5L26.3,25.2c-0.8-0.4-1.2-1.4-0.8-2.2c0,0,0-0.1,0.1-0.1c0.5-0.8,1.5-1.2,2.4-0.8l41.1,19.7
		c1.3,0.6,1.8,2.2,1.2,3.5c-0.6,1.3-2.2,1.9-3.5,1.3C66.8,46.5,66.8,46.5,66.7,46.5z"/>
	<circle class="st14" cx="27.1" cy="23.7" r="5.4"/>
	<ellipse transform="matrix(0.341 -0.9401 0.9401 0.341 -1.6108 58.6655)" class="st19" cx="41" cy="30.5" rx="8.1" ry="4.2"/>
	<ellipse transform="matrix(0.341 -0.9401 0.9401 0.341 1.0012 75.2317)" class="st20" cx="54.2" cy="36.9" rx="12.9" ry="4.2"/>
	<path class="st14" d="M255.5,41.8l41.1-19.7c0.9-0.4,2,0,2.4,0.8c0.4,0.9,0,2-0.8,2.4l-40.4,21.2c-1.3,0.7-2.8,0.2-3.5-1.1
		c0,0,0,0,0,0C253.7,44.1,254.2,42.6,255.5,41.8L255.5,41.8z"/>
	<circle class="st14" cx="297.5" cy="23.7" r="5.5"/>
	<ellipse transform="matrix(0.9401 -0.341 0.341 0.9401 6.5697 98.6093)" class="st19" cx="283.8" cy="30.6" rx="4.2" ry="8.1"/>
	<ellipse transform="matrix(0.9401 -0.341 0.341 0.9401 3.5859 94.5122)" class="st20" cx="270.6" cy="37.1" rx="4.2" ry="12.9"/>
</g>
</svg>
