<?xml version="1.0" encoding="utf-8"?>
<!-- Generator: Adobe Illustrator 25.2.0, SVG Export Plug-In . SVG Version: 6.00 Build 0)  -->
<svg version="1.1" id="Layer_1" xmlns="http://www.w3.org/2000/svg" xmlns:xlink="http://www.w3.org/1999/xlink" x="0px" y="0px"
	 viewBox="0 0 317.5 402.4" style="enable-background:new 0 0 317.5 402.4;" xml:space="preserve">
<style type="text/css">
	.st0{fill:none;stroke:#2E3191;stroke-width:9.12;stroke-linecap:round;stroke-miterlimit:10;}
	.st1{fill:#04A65A;}
	.st2{fill:#FFC50B;}
	.st3{fill:#D0A109;}
	.st4{fill:#EC1E79;}
	.st5{fill:#1B1464;}
	.st6{fill:#D01A6B;}
	.st7{fill:#FF2081;}
	.st8{fill:#BE1862;}
	.st9{fill:#4AA6C0;}
	.st10{opacity:0.5;fill:#68DFE7;enable-background:new    ;}
	.st11{fill:#FFFFFF;}
	.st12{clip-path:url(#SVGID_2_);}
	.st13{fill:#328545;}
	.st14{fill:#2E3191;}
	.st15{clip-path:url(#SVGID_4_);}
	.st16{fill:#006837;}
	.st17{opacity:0.5;fill:#FFFFFF;enable-background:new    ;}
	.st18{fill:#FFF100;}
	.st19{fill:none;stroke:#2E3191;stroke-width:2.59;stroke-linecap:round;stroke-miterlimit:10;}
	.st20{fill:none;stroke:#2E3191;stroke-width:3.26;stroke-linecap:round;stroke-miterlimit:10;}
</style>
<path id="l-arm" class="st0" d="M38.6,179.8c-34.8,15.1-38.3,40-22.6,71.4"/>
<path id="r-arm" class="st0" d="M237.8,189.5c26.3-5.4,48-58.9,51.6-84.5"/>
<g id="r-hand">
	<path class="st1" d="M304.7,46.2h-0.1c-9-2.2-18.1,3.3-20.3,12.2l-10,40.3c-0.6,2.4,6.2,6.2,15.2,8.4s16.8,2.1,17.4-0.3l0,0h0.1
		l10-40.3C319.2,57.6,313.7,48.5,304.7,46.2z"/>
	<path class="st2" d="M292.1,59.9c0.7-1.2,1.1-2.6,1.1-4c0.3-3.3-0.3-6.6-1.8-9.5c-0.4-1-1-1.8-1.8-2.5c-0.8-0.7-1.9-0.8-2.8-0.4
		c-1,0.5-1.3,1.7-1.5,2.6c-1.1,4.1-1.3,8.3-0.7,12.5C285.5,62.8,290.1,63.2,292.1,59.9z"/>
	<path class="st2" d="M297,39.6c-0.6,0.4-1.1,0.9-1.5,1.6c-0.8,1.6-0.9,3.4-0.3,5.1c0.2,0.6,0.5,1.2,0.9,1.7c0.5,0.6,1.2,0.9,1.9,1
		c0.6,0,1.2-0.3,1.5-0.8c1.4-1.6,2.3-3.7,2.4-5.8C302.1,40.2,299,38.6,297,39.6z"/>
	<path class="st2" d="M306.1,43c-0.7,0.3-1.2,0.8-1.6,1.5c-0.9,1.5-1.2,3.3-0.9,5c0.1,0.6,0.3,1.2,0.7,1.8c0.4,0.6,1,1,1.7,1.2
		c0.6,0.1,1.2-0.2,1.5-0.6c1.6-1.5,2.6-3.4,3-5.6C311,44.1,308.1,42.2,306.1,43z"/>
	<path class="st2" d="M312.6,46.9c-0.7,0.3-1.2,0.8-1.6,1.4c-0.9,1.5-1.2,3.3-0.9,5c0.1,0.6,0.3,1.2,0.7,1.8c0.4,0.6,1,1,1.8,1.2
		c0.6,0.1,1.2-0.2,1.5-0.6c1.6-1.5,2.6-3.4,3-5.6C317.6,48,314.6,46.1,312.6,46.9z"/>
</g>
<g id="body">
	<ellipse transform="matrix(0.9756 -0.2197 0.2197 0.9756 -40.6911 14.0151)" class="st3" cx="42.7" cy="190" rx="14.4" ry="35.1"/>
	
		<ellipse transform="matrix(0.2197 -0.9756 0.9756 0.2197 0.8287 380.9353)" class="st3" cx="238.5" cy="189.9" rx="35.1" ry="14.4"/>
	<path class="st4" d="M231.3,279.2c-1.1-40.4,1.1-80.9,6.6-121H43.3c5.5,40.1,7.7,80.6,6.6,121c-1.1,27.7,8.4,51.9,25.3,66.1
		c27.4,27.3,110.2,26.3,133.3-2.2c15.2-14.4,23.6-37.2,22.9-63.2C231.3,279.7,231.3,279.4,231.3,279.2z"/>
	<path class="st5" d="M38.5,402.4H66c1,0,2-2.1,2.4-5.2c3.4-27.2,3.4-54.8,0-82C68,312.1,67,310,66,310H38.5c-1,0-2,2.1-2.4,5.2
		c-3.4,27.2-3.4,54.8,0,82C36.5,400.4,37.5,402.4,38.5,402.4z"/>
	<path class="st6" d="M42.7,158.3c0,0,96.4,53.1,194.7,0H42.7z"/>
	<rect x="160.1" y="214.8" class="st2" width="48.7" height="13.7"/>
	<circle class="st2" cx="167.4" cy="242.7" r="5.2"/>
	<circle class="st2" cx="184.5" cy="242.7" r="8.1"/>
	<circle class="st2" cx="201.4" cy="242.7" r="5.2"/>
	<path class="st7" d="M50.5,264.4l-14.7,20.4c-1,1.4-1.6,3.1-1.7,4.9l-2,43.2l7.3,9.5l32.9,0.3C72.4,342.7,74,264.4,50.5,264.4z"/>
	<path class="st8" d="M33.8,342.4h6c0.7-36.2-1.1-52.3-4.1-55.4s-4.8,17.6-5.5,51.8c-0.1,1.9,1.4,3.5,3.3,3.6
		C33.7,342.4,33.8,342.4,33.8,342.4z"/>
	<path class="st5" d="M242.8,402.4h-27.6c-1,0-2-2.1-2.4-5.2c-3.4-27.2-3.4-54.8,0-82c0.4-3.1,1.4-5.2,2.4-5.2h27.6
		c1,0,2,2.1,2.4,5.2c3.4,27.2,3.4,54.8,0,82C244.7,400.4,243.8,402.4,242.8,402.4z"/>
	<path class="st7" d="M230.8,264.4l14.7,20.4c1,1.5,1.6,3.1,1.7,4.9l2,43.2l-7.3,9.5l-32.9,0.3C208.8,342.7,207.3,264.4,230.8,264.4
		z"/>
	<path class="st8" d="M247.4,342.4h-6c-0.7-36.2,1.1-52.3,4.1-55.4c2.8-2.9,4.8,17.6,5.4,51.8c0.1,1.9-1.4,3.5-3.3,3.6
		C247.5,342.4,247.4,342.4,247.4,342.4z"/>
</g>
<g id="head">
	<path class="st9" d="M195.2,0v2.3l0,0c28,0,41.4,13.3,47.8,24.5c8.4,14.6,10.8,35,6.3,53.4c-5.2,21.1-10.6,41.4-16.3,61.8H48.4
		c-5.7-20.6-11.2-40.7-16.4-61.8c-1.5-6.2-2.3-12.6-2.2-19c0-12.7,3.1-25,8.5-34.5C44.6,15.4,58,2.1,86.2,2.1
		c3.9,0,7.8,0.3,11.7,0.7c5.2,0.6,10.5,1.1,15.8,1.5c8.8,0.7,17.9,1,27,1s18.2-0.3,27-1c5.3-0.4,10.6-0.8,15.8-1.5
		c3.9-0.4,7.8-0.7,11.8-0.7L195.2,0 M195.2,0c-4,0-8,0.3-12,0.7c-5.2,0.6-10.5,1.1-15.7,1.5c-8.9,0.7-17.9,1-26.9,1
		s-17.9-0.3-26.8-1c-5.2-0.4-10.5-0.8-15.7-1.5c-4-0.5-8-0.7-12-0.7C65,0,46.7,7.4,36.4,25.6c-5.9,10.1-8.8,22.8-8.8,35.7
		c0,6.6,0.8,13.1,2.4,19.4c5.6,22.5,11.2,43.7,16.9,63.5h187.8c5.6-19.9,11.3-41,16.9-63.5c4.6-18.7,2.4-39.9-6.4-55.1
		C234.5,7.4,216.2,0,195.2,0L195.2,0z"/>
	<path class="st10" d="M251.3,80.7c-5.6,22.5-11.2,43.7-16.9,63.5H46.7c-5.6-19.9-11.3-41-16.9-63.5c-1.6-6.4-2.4-12.9-2.4-19.4
		c0-12.9,2.9-25.6,8.8-35.7C48.5,4.1,72-2.3,97.9,0.7c5.2,0.6,10.5,1.1,15.7,1.5c9,0.7,17.9,1,26.9,1s17.9-0.3,26.9-1
		c5.2-0.4,10.5-0.8,15.7-1.5c26-3.1,49.5,3.2,61.7,24.9C253.7,40.9,255.9,62,251.3,80.7z"/>
	<path class="st1" d="M225.2,99.6c-4.3,15.9-8.5,30.8-12.9,44.8H69c-4.3-14-8.7-28.8-12.9-44.8c-1.2-4.5-1.9-9.1-1.9-13.7
		c0-9.1,2.2-18,6.7-25c9.4-15.2,27.3-19.7,47.1-17.5c4.1,0.4,8,0.8,12,1.1c6.8,0.4,13.7,0.7,20.6,0.7s13.7-0.3,20.6-0.7
		c4.1-0.3,8-0.6,12-1.1c19.9-2.2,37.8,2.2,47.1,17.5C227,71.5,228.8,86.3,225.2,99.6z"/>
	<path class="st11" d="M119.2,98.6c-2,8.5-11.2,15.5-20.6,13.3S83.3,100,85.3,92.5C96,96.9,107.6,99,119.2,98.6z"/>
	<path class="st11" d="M119.2,98.6c-2,8.5-11.2,15.5-20.6,13.3S83.3,100,85.3,92.5C96,96.9,107.6,99,119.2,98.6z"/>
	<g>
		<defs>
			<path id="SVGID_1_" d="M119.2,98.6c-2,8.5-11.2,15.5-20.6,13.3S83.3,100,85.3,92.5C96,96.9,107.6,99,119.2,98.6z"/>
		</defs>
		<clipPath id="SVGID_2_">
			<use xlink:href="#SVGID_1_"  style="overflow:visible;"/>
		</clipPath>
		<g class="st12">
			<path class="st7" d="M115,96.8c-1.4,6-7.8,10.9-14.6,9.4S89.6,97.8,91,92.5C98.6,95.6,106.8,97.1,115,96.8z"/>
		</g>
	</g>
	<path class="st13" d="M121.1,97.8c-3.4,1.2-6.9,1.9-10.5,2c-3.6,0.2-7.1-0.2-10.6-1c-3.5-0.8-6.9-2-10.1-3.6
		c-3.2-1.6-6.1-3.6-8.7-6.2c3.2,1.5,6.4,2.8,9.7,4c3.2,1.1,6.5,2.1,9.8,2.8c3.3,0.7,6.7,1.2,10.1,1.5
		C114.2,97.7,117.7,97.9,121.1,97.8z"/>
	<path class="st14" d="M84.9,81.3c2.3-1.7,4.8-3.1,7.4-4.3c1.3-0.6,2.7-1.1,4.1-1.7l4.2-1.3c1.4-0.4,2.8-0.8,4.3-1.2
		c1.4-0.4,2.9-0.4,4.3-0.1c1.5,0.3,3,0.7,4.3,1.4c1.5,0.7,2.8,1.8,3.9,3.1c0.2,0.2,0.2,0.5,0,0.7c0,0-0.1,0.1-0.1,0.1l0,0
		c-1.3,0.9-2.7,1.7-4.2,2.4c-1.3,0.5-2.6,0.9-3.9,1.3c-1.2,0.3-2.5,0.3-3.8,0.1c-1.3-0.1-2.7-0.4-3.9-0.6h-3.9c-1.3,0-2.7,0-4,0.1
		c-2.7,0.1-5.4,0.4-8.2,0.8c-0.3,0-0.6-0.1-0.6-0.4C84.8,81.6,84.8,81.4,84.9,81.3z"/>
	<path class="st11" d="M162.1,98.6c1.9,8.5,11.2,15.5,20.6,13.3s15.2-11.9,13.3-19.4C185.2,96.9,173.7,99,162.1,98.6z"/>
	<path class="st11" d="M162.1,98.6c1.9,8.5,11.2,15.5,20.6,13.3s15.2-11.9,13.3-19.4C185.2,96.9,173.7,99,162.1,98.6z"/>
	<g>
		<defs>
			<path id="SVGID_3_" d="M162.1,98.6c1.9,8.5,11.2,15.5,20.6,13.3s15.2-11.9,13.3-19.4C185.2,96.9,173.7,99,162.1,98.6z"/>
		</defs>
		<clipPath id="SVGID_4_">
			<use xlink:href="#SVGID_3_"  style="overflow:visible;"/>
		</clipPath>
		<g class="st15">
			<path class="st7" d="M166.3,96.8c1.4,6,7.8,10.9,14.6,9.4s10.8-8.4,9.4-13.7C182.6,95.6,174.5,97.1,166.3,96.8z"/>
		</g>
	</g>
	<path class="st13" d="M160.1,97.8c3.5,0,7,0,10.4-0.3c3.4-0.3,6.7-0.8,10.1-1.5c3.3-0.7,6.6-1.7,9.8-2.8c3.3-1.2,6.5-2.5,9.6-4
		c-2.6,2.5-5.5,4.6-8.7,6.2c-3.2,1.6-6.6,2.8-10.1,3.6c-3.5,0.7-7.1,1.1-10.6,1C167,99.8,163.5,99,160.1,97.8z"/>
	<path class="st14" d="M196.1,82.1c-2.7-0.4-5.5-0.7-8.2-0.8c-1.4-0.1-2.7-0.2-4.1-0.1h-3.9c-1.3,0-2.6,0.2-3.9,0.6
		c-1.3,0.2-2.5,0.2-3.8-0.1c-1.3-0.3-2.6-0.7-3.9-1.3c-1.5-0.6-2.9-1.4-4.2-2.4l0,0c-0.3-0.1-0.3-0.6-0.1-0.8l0,0
		c1.1-1.3,2.4-2.3,3.9-3.1c1.3-0.7,2.8-1.2,4.3-1.4c1.4-0.2,2.9-0.2,4.3,0.1c1.4,0.5,2.9,0.9,4.3,1.3l4.2,1.3
		c1.4,0.6,2.7,1.1,4.1,1.7c2.6,1.2,5.1,2.7,7.4,4.3c0.2,0.2,0.2,0.5,0.1,0.7C196.4,82.1,196.3,82.1,196.1,82.1z"/>
	<path class="st13" d="M127,118.1c2,1.1,4.2,1.9,6.4,2.5c1.9,0.5,3.8,0.8,5.7,0.8c1.9,0,3.8-0.3,5.7-0.7c2.2-0.6,4.4-1.4,6.4-2.4
		c-0.5,2.7-2.1,5.1-4.3,6.6c-2.4,1.6-5.1,2.5-8,2.5c-2.8,0-5.6-1-7.8-2.7C129,123.1,127.5,120.7,127,118.1z"/>
	<path class="st16" d="M153.4,45.8c-0.1-3.6-1.5-7-3.1-10.3c-1.3-2.8-4.6-8-9.8-7.8h-1.1c-5.3-0.1-8.5,5.2-9.8,7.8
		c-1.5,3.3-3.1,6.7-3.1,10.3c-0.3,3.8,1.5,7.5,4.6,9.6c5.5,3.4,12.4,3.4,17.9,0C152,53.1,153.7,49.5,153.4,45.8z"/>
	<path class="st17" d="M44.9,74.2c-2.9,0-5.3-2.1-5.7-5c-0.6-3.3-0.8-6.6-0.8-9.9c0-9.8,2.2-19.4,6.7-27.1c4.5-8.1,12-14.2,20.8-17
		c1-0.6,2.2-0.2,2.7,0.7s0.2,2.2-0.7,2.7c-4.2,3.2-7.7,7.2-10.4,11.7c-4.6,8-7,18.2-7,28.4c0,2.9,0.1,5.8,0.5,8.7
		c0.4,3.3-2,6.3-5.2,6.7C45.5,74.1,45.2,74.2,44.9,74.2L44.9,74.2z"/>
	<path class="st18" d="M233,162.1c-61.7,8.7-124.4,8.7-186.1,0c-6.6-1.1-11.6-6.8-11.8-13.6v-1c-0.2-5.5,4.1-10,9.6-10.2
		c0.7,0,1.5,0,2.2,0.2c61.7,8.7,124.4,8.7,186.1,0c6.6-1,11.8,3.5,11.8,10.1v1C244.9,155,239.6,161.1,233,162.1z"/>
	<path class="st17" d="M42.7,87.3v0.4c0.4,2.5,2.2,4.2,4.3,4c0.7,0,1.3-0.1,2-0.3c2.4-0.4,3.9-3.1,3.6-5.9v-0.4
		c-0.4-2.9-2.7-4.9-5-4.2c-0.4,0.1-0.8,0.1-1.3,0.3C43.8,81.6,42.1,84.4,42.7,87.3z"/>
	<path class="st14" d="M45,46.5L4.6,25.2c-0.8-0.4-1.2-1.4-0.8-2.2c0,0,0-0.1,0.1-0.1C4.4,22,5.4,21.7,6.3,22l41.1,19.7
		c1.3,0.6,1.8,2.2,1.3,3.5c-0.6,1.3-2.2,1.9-3.5,1.3C45.1,46.5,45.1,46.5,45,46.5z"/>
	<circle class="st14" cx="5.4" cy="23.7" r="5.4"/>
	<ellipse transform="matrix(0.341 -0.9401 0.9401 0.341 -15.8822 38.2884)" class="st19" cx="19.4" cy="30.5" rx="8.1" ry="4.2"/>
	<ellipse transform="matrix(0.341 -0.9401 0.9401 0.341 -13.2812 54.8575)" class="st20" cx="32.5" cy="36.9" rx="12.9" ry="4.2"/>
	<path class="st14" d="M233.8,41.8l41.1-19.7c0.9-0.4,2,0,2.4,0.8c0.4,0.9,0,2-0.8,2.4l-40.4,21.2c-1.3,0.7-2.8,0.2-3.5-1.1
		c0,0,0,0,0,0C232,44.1,232.5,42.6,233.8,41.8z"/>
	<circle class="st14" cx="275.8" cy="23.7" r="5.5"/>
	<ellipse transform="matrix(0.9401 -0.341 0.341 0.9401 5.2688 91.2157)" class="st19" cx="262.1" cy="30.6" rx="4.2" ry="8.1"/>
	<ellipse transform="matrix(0.9401 -0.341 0.341 0.9401 2.2849 87.1187)" class="st20" cx="248.9" cy="37.1" rx="4.2" ry="12.9"/>
</g>
<g id="l-hand">
	<path class="st3" d="M26.2,301.2c1.1,0.7,2,1.6,2.7,2.6c1.8,2.5,2.9,5.4,3.3,8.5c0.2,0.9,0.1,1.9-0.1,2.8c-0.2,0.9-0.8,1.6-1.7,1.9
		c-0.9,0-1.7-0.5-2.2-1.3c-2.7-2.8-4.8-6-6.2-9.6C20.4,302.5,23.3,299.7,26.2,301.2z"/>
	<path class="st1" d="M46.7,285.9l-14.8-38.8h-0.1l0,0c-0.9-2.3-8.6-1.5-17.3,1.8s-14.9,7.9-14.1,10.2L15.2,298
		c3.3,8.6,13,13,21.7,9.7l0.1,0C45.6,304.3,50,294.6,46.7,285.9z"/>
	<path class="st2" d="M32.8,300.8c1.3,0.6,2.3,1.6,3.2,2.7c2.1,2.6,3.4,5.7,3.8,8.9c0.2,1,0.1,2.1-0.2,3.1c-0.3,1-1.1,1.7-2.1,1.9
		c-1.1,0.1-2-0.7-2.7-1.4c-3.1-2.8-5.7-6.2-7.5-10.1C25.7,302,29.4,299.2,32.8,300.8z"/>
	<path class="st2" d="M23.1,301.2c0.8,1,1.4,2.1,1.8,3.3c1,2.9,1.2,6,0.6,9.1c-0.1,0.9-0.4,1.9-0.9,2.7c-0.4,0.8-1.3,1.3-2.1,1.2
		c-0.8-0.3-1.5-1-1.8-1.9c-1.8-3.4-2.8-7.2-3.1-11C17.2,300.6,20.8,298.9,23.1,301.2z"/>
</g>
</svg>
