<?xml version="1.0" encoding="utf-8"?>
<!-- Generator: Adobe Illustrator 25.2.0, SVG Export Plug-In . SVG Version: 6.00 Build 0)  -->
<svg version="1.1" id="Layer_1" xmlns="http://www.w3.org/2000/svg" xmlns:xlink="http://www.w3.org/1999/xlink" x="0px" y="0px"
	 viewBox="0 0 226.5 403.1" style="enable-background:new 0 0 226.5 403.1;" xml:space="preserve">
<style type="text/css">
	.st0{fill:#EC1E79;}
	.st1{fill:#D01A6B;}
	.st2{fill:#FFC50B;}
	.st3{fill:#2E3191;}
	.st4{fill:#0071BC;}
	.st5{fill:#FF2081;}
	.st6{clip-path:url(#SVGID_2_);}
	.st7{fill:#BE1862;}
	.st8{fill:#4AA6C0;}
	.st9{opacity:0.5;fill:#68DFE7;enable-background:new    ;}
	.st10{opacity:0.5;fill:#FFFFFF;enable-background:new    ;}
	.st11{fill:#04A65A;}
	.st12{fill:#FFFFFF;}
	.st13{clip-path:url(#SVGID_4_);}
	.st14{fill:#328545;}
	.st15{fill:#FFF100;}
	.st16{fill:#006837;}
	.st17{fill:none;stroke:#2E3191;stroke-width:2.37;stroke-linecap:round;stroke-miterlimit:10;}
	.st18{fill:none;stroke:#2E3191;stroke-width:2.97;stroke-linecap:round;stroke-miterlimit:10;}
	.st19{fill:#D0A109;}
	.st20{fill:none;stroke:#2E3191;stroke-width:9.12;stroke-linecap:round;stroke-miterlimit:10;}
</style>
<g id="body">
	<path class="st0" d="M204,279.9c0.7,26-7.7,48.8-22.9,63.2c-23.1,28.5-105.8,29.5-133.2,2.2c-16.9-14.3-26.4-38.5-25.3-66.1
		c0.5-16.9,0.4-33.8-0.3-50.6c-0.2-4.6-0.4-9.1-0.7-13.7c-1.1-18.9-3-37.8-5.5-56.6h194.5c-5.5,40.1-7.7,80.6-6.6,121
		C203.9,279.4,203.9,279.7,204,279.9z"/>
	<path class="st1" d="M15.2,158.3c0,0,96.4,53.1,194.7,0H15.2z"/>
	<path class="st2" d="M48.7,214.9v13.7H22.2c-0.2-4.6-0.4-9.1-0.7-13.7H48.7z"/>
	<ellipse class="st2" cx="31" cy="242.7" rx="4.9" ry="5.2"/>
	<ellipse class="st2" cx="41.2" cy="242.7" rx="3.1" ry="3.3"/>
	<circle class="st3" cx="113.6" cy="342.4" r="60.7"/>
	<circle class="st4" cx="113.6" cy="342.4" r="44.5"/>
	<path class="st5" d="M177.9,313.3c-1.6-6.2-4-12.2-7-17.8c-13.6-21.8-30-31.1-57.3-31.1c-27,0-45.6,11.6-57,30.5
		c-3.2,5.8-5.7,12-7.3,18.4c-1.5,5.5-2.2,11.1-2.3,16.7c0,1.1,0,11.9,0.1,13l12.5-0.2h108L180,343c0.1-1.1,0.1-11.9,0.1-13
		C180.1,324.4,179.3,318.7,177.9,313.3z"/>
	<g>
		<defs>
			<path id="SVGID_1_" d="M177.9,313.3c-1.6-6.2-4-12.2-7-17.8c-13.6-21.8-30-31.1-57.3-31.1c-27,0-45.6,11.6-57,30.5
				c-3.2,5.8-5.7,12-7.3,18.4c-1.5,5.5-2.2,11.1-2.3,16.7c0,1.1,0,11.9,0.1,13l12.5-0.2h108L180,343c0.1-1.1,0.1-11.9,0.1-13
				C180.1,324.4,179.3,318.7,177.9,313.3z"/>
		</defs>
		<clipPath id="SVGID_2_">
			<use xlink:href="#SVGID_1_"  style="overflow:visible;"/>
		</clipPath>
		<g class="st6">
			<path class="st7" d="M167.5,342.8c0,33.7-24.1,9.1-53.8,9.1s-53.8,24.6-53.8-9.1s21.9-55.4,53.8-55.4S167.5,309.1,167.5,342.8z"
				/>
		</g>
	</g>
</g>
<g id="head">
	<path class="st8" d="M167.8,0v2.3l0,0c28,0,41.4,13.3,47.8,24.5c8.4,14.6,10.8,35,6.3,53.4c-5.2,21.1-10.6,41.4-16.4,61.8H21
		c-5.7-20.6-11.2-40.7-16.4-61.8c-1.5-6.2-2.3-12.6-2.2-19c0-12.7,3.1-25,8.5-34.5C17.2,15.4,30.6,2.1,58.7,2.1
		c3.9,0,7.8,0.3,11.7,0.7C75.7,3.4,81,4,86.3,4.4c8.8,0.7,17.9,1,27,1s18.2-0.3,27-1c5.3-0.4,10.6-0.8,15.8-1.5
		c3.9-0.4,7.8-0.7,11.8-0.7L167.8,0 M167.8,0c-4,0-8,0.3-12,0.7c-5.2,0.6-10.5,1.1-15.7,1.5c-8.9,0.7-17.9,1-26.8,1S95.4,3,86.5,2.2
		c-5.2-0.4-10.5-0.8-15.7-1.5c-4-0.5-8-0.7-12-0.7C37.6,0,19.3,7.4,9,25.6C3.1,35.7,0.1,48.4,0.1,61.3c0,6.6,0.8,13.1,2.4,19.4
		c5.6,22.5,11.2,43.7,16.9,63.5h187.8c5.6-19.9,11.3-41,16.9-63.5c4.6-18.7,2.4-39.9-6.4-55.1C207.1,7.4,188.8,0,167.8,0L167.8,0z"
		/>
	<path class="st9" d="M223.9,80.7c-5.6,22.5-11.2,43.6-16.9,63.5H19.3c-5.6-19.9-11.3-41-16.9-63.5C0.8,74.4,0,67.8,0,61.3
		c0-12.9,2.9-25.6,8.8-35.7C21.1,4.1,44.6-2.3,70.5,0.7C75.7,1.3,81,1.9,86.2,2.3c8.9,0.7,17.9,1,26.8,1s17.9-0.3,26.9-1
		c5.2-0.4,10.5-0.8,15.7-1.5c26-3.1,49.5,3.2,61.7,24.9C226.3,40.9,228.5,62,223.9,80.7z"/>
	<path class="st10" d="M17.5,74.2c-2.9,0-5.3-2.1-5.7-5c-0.6-3.3-0.8-6.6-0.8-9.9c0-9.8,2.2-19.4,6.7-27.1c4.5-8.1,12-14.2,20.8-17
		c1-0.6,2.2-0.2,2.7,0.7s0.2,2.2-0.7,2.7c-4.2,3.2-7.7,7.2-10.4,11.7c-4.6,8-7,18.2-7,28.4c0,2.9,0.2,5.8,0.5,8.7
		c0.4,3.3-2,6.3-5.2,6.7C18.1,74.1,17.8,74.2,17.5,74.2L17.5,74.2z"/>
	<path class="st10" d="M15.2,87.3v0.4c0.4,2.5,2.2,4.2,4.3,4c0.7,0,1.3-0.1,2-0.3c2.4-0.4,3.9-3.1,3.6-5.9v-0.4
		c-0.4-2.9-2.6-4.9-5-4.2c-0.4,0.1-0.8,0.1-1.3,0.3C16.4,81.6,14.7,84.4,15.2,87.3z"/>
	<path class="st11" d="M191.5,99.6c-5.5,18.5-7.2,27.8-13.2,44.8H51.1v-0.1c-2.9-6.1-5.3-11.8-7.3-17.1c0,0,0-0.1,0-0.1
		c-0.7-1.9-1.4-3.8-2-5.7c-0.9-2.8,0,0,0,0C19.3,51.9,75.8,46.9,75.8,46.9l3.8-0.4l35.4-3.1C168.3,36.9,202.1,64.3,191.5,99.6z"/>
	<path class="st12" d="M49.4,98.6c1.4,8.5,8.1,15.5,15,13.3s11.1-11.9,9.7-19.4C66.6,96.8,58,98.9,49.4,98.6z"/>
	<g>
		<defs>
			<path id="SVGID_3_" d="M49.4,98.6c1.4,8.5,8.1,15.5,15,13.3s11.1-11.9,9.7-19.4C66.6,96.8,58,98.9,49.4,98.6z"/>
		</defs>
		<clipPath id="SVGID_4_">
			<use xlink:href="#SVGID_3_"  style="overflow:visible;"/>
		</clipPath>
		<g class="st13">
			<path class="st5" d="M52.4,96.8c1,6,5.7,10.9,10.6,9.4s7.8-8.4,6.8-13.7C64.6,95.5,58.5,97,52.4,96.8z"/>
		</g>
	</g>
	<path class="st14" d="M47.9,97.8c2.5,0,5,0,7.5-0.3c5-0.6,9.9-2.1,14.5-4.3c2.4-1.2,4.8-2.5,7-4c-1.8,2.4-3.9,4.5-6.3,6.2
		c-2.2,1.6-4.7,2.8-7.3,3.6c-2.5,0.7-5.1,1.1-7.8,1C52.9,99.7,50.3,99,47.9,97.8z"/>
	<path class="st3" d="M74.2,82.1c-2-0.4-4-0.7-6-0.8c-1-0.1-2-0.2-3-0.1h-2.8c-1,0.1-1.9,0.2-2.9,0.6c-0.9,0.2-1.9,0.2-2.8-0.1
		c-1-0.3-2-0.7-2.9-1.3c-1.1-0.6-2.2-1.4-3.1-2.4l0,0c-0.2-0.1-0.2-0.6-0.1-0.8l0,0c0.7-1.2,1.7-2.3,2.9-3.1c0.9-0.7,2-1.2,3.2-1.4
		c1-0.2,2.1-0.2,3.2,0.1c1,0.5,2.1,0.9,3.1,1.3l3.1,1.3c1,0.6,1.9,1.1,3,1.7c2,1.2,3.8,2.7,5.4,4.3c0.1,0.2,0.2,0.5,0.1,0.7
		C74.5,82.1,74.3,82.1,74.2,82.1z"/>
	<path class="st14" d="M55,118.3c-0.7,2.9-2.7,5.2-5.3,6.6c-1.8,1-3.8,1.7-5.9,2.1c-0.7-1.9-1.4-3.8-2-5.7c-0.9-2.8,0,0,0,0
		c1.8-0.1,3.5-0.3,5.3-0.6C49.8,120.1,52.4,119.3,55,118.3z"/>
	<path class="st15" d="M205.6,162.1c-61.7,8.7-124.4,8.7-186.1,0c-6.6-1.2-11.6-6.8-11.8-13.6v-1c-0.2-5.5,4.1-10,9.6-10.2
		c0.7,0,1.5,0,2.2,0.2c61.7,8.7,124.4,8.7,186.1,0c6.6-1,11.8,3.5,11.8,10.1v1C217.5,155,212.1,161.1,205.6,162.1z"/>
	<path class="st16" d="M126.7,45.8c-0.1-3.6-1.5-7-3.1-10.3c-1.3-2.8-4.6-8-9.8-7.8h-1.1c-5.3-0.1-8.5,5.2-9.8,7.8
		c-1.5,3.4-3.1,6.7-3.1,10.3c-0.3,3.8,1.5,7.5,4.6,9.7c5.5,3.4,12.4,3.4,17.9,0C125.3,53.2,126.9,49.6,126.7,45.8z"/>
	<path class="st11" d="M66.4,56.7c0,0,13-0.7,33.8-3.5c21.5-3,37.8-10.2,52.3-6.3c33.2,8.9,16.9,39,16.9,39L66.4,56.7z"/>
	<path class="st3" d="M107.7,41.8L142,22.1c0.7-0.4,1.6-0.1,1.9,0.6c0,0.1,0.1,0.1,0.1,0.2c0.3,0.9,0.1,1.8-0.7,2.4l-33.8,21.2
		c-1,0.6-2.2,0.2-2.7-0.7c-0.1-0.1-0.1-0.3-0.2-0.4C106.1,44.2,106.5,42.7,107.7,41.8L107.7,41.8z"/>
	<ellipse class="st3" cx="142.6" cy="23.7" rx="4.6" ry="5.4"/>
	<ellipse transform="matrix(0.9652 -0.2615 0.2615 0.9652 -3.441 35.3878)" class="st17" cx="131.2" cy="30.6" rx="3.6" ry="8"/>
	<ellipse transform="matrix(0.96 -0.2798 0.2798 0.96 -5.5668 35.1353)" class="st18" cx="120.3" cy="37.1" rx="3.6" ry="12.6"/>
</g>
<ellipse id="armhole" transform="matrix(9.948207e-03 -1 1 9.948207e-03 -77.835 301.2569)" class="st19" cx="113.2" cy="189.9" rx="35.1" ry="17.6"/>
<line id="f-arm" class="st20" x1="112.6" y1="191.9" x2="112.6" y2="260.7"/>
<g id="f-hand">
	<path class="st19" d="M118.3,307.7c0.6,1.1,0.9,2.4,1,3.6c0.3,3.1-0.3,6.2-1.5,9c-0.3,0.9-0.9,1.7-1.5,2.4
		c-0.6,0.7-1.5,0.9-2.4,0.7c-0.8-0.5-1.2-1.3-1.2-2.2c-0.9-3.8-1.1-7.7-0.4-11.5C112.7,305.8,116.6,304.9,118.3,307.7z"/>
	<path class="st19" d="M123.9,301.7c1,0.8,1.7,1.8,2.2,2.9c1.4,2.8,2.1,5.8,2,9c0,1-0.2,1.9-0.6,2.8c-0.3,0.8-1.1,1.4-2,1.5
		c-0.8,0-1.5-0.8-2.1-1.7c-2.3-3.1-3.9-6.6-4.9-10.4C118,302.1,121.2,299.9,123.9,301.7z"/>
	<path class="st19" d="M108.8,308.3c0.6,1.1,0.9,2.4,1,3.6c0.3,3.1-0.3,6.2-1.5,9c-0.3,0.9-0.9,1.7-1.5,2.4
		c-0.6,0.7-1.5,0.9-2.4,0.7c-0.7-0.5-1.2-1.3-1.2-2.2c-0.9-3.8-1.1-7.7-0.4-11.5C103.2,306.3,107.1,305.5,108.8,308.3z"/>
	<path class="st11" d="M94,254.9c0-2.5,7.5-4.5,16.8-4.5s16.8,2,16.8,4.5h0.1v41.5c0,9.3-7.5,16.8-16.8,16.8h-0.1
		c-9.3,0-16.8-7.5-16.8-16.8V254.9z"/>
	<path class="st2" d="M103.3,303.5c0.4,1.4,0.4,2.8,0.1,4.2c-0.5,3.3-1.9,6.3-4,8.8c-0.6,0.9-1.4,1.5-2.4,2c-0.9,0.5-2,0.4-2.8-0.3
		c-0.8-0.7-0.8-2-0.8-2.9c-0.1-4.2,0.7-8.4,2.3-12.3C97.6,299,102.2,299.9,103.3,303.5z"/>
</g>
</svg>
