<?xml version="1.0" encoding="utf-8"?>
<!-- Generator: Adobe Illustrator 25.2.0, SVG Export Plug-In . SVG Version: 6.00 Build 0)  -->
<svg version="1.1" id="Layer_1" xmlns="http://www.w3.org/2000/svg" xmlns:xlink="http://www.w3.org/1999/xlink" x="0px" y="0px"
	 viewBox="0 0 321.5 402.7" style="enable-background:new 0 0 321.5 402.7;" xml:space="preserve">
<style type="text/css">
	.st0{fill:none;stroke:#2E3191;stroke-width:8.71;stroke-linecap:round;stroke-miterlimit:10;}
	.st1{fill:#D0A109;}
	.st2{fill:#04A65A;}
	.st3{fill:#FFC50B;}
	.st4{fill:#1B1464;}
	.st5{fill:#2E3191;}
	.st6{fill:#0071BC;}
	.st7{fill:#FF2081;}
	.st8{fill:#BE1862;}
	.st9{fill:#EC1E79;}
	.st10{fill:#D01A6B;}
	.st11{fill:none;stroke:#2E3191;stroke-width:2.59;stroke-linecap:round;stroke-miterlimit:10;}
	.st12{fill:none;stroke:#2E3191;stroke-width:3.26;stroke-linecap:round;stroke-miterlimit:10;}
	.st13{fill:#5EC2D2;}
	.st14{opacity:0.5;fill:#68DFE7;enable-background:new    ;}
	.st15{fill:#FFFFFF;}
	.st16{clip-path:url(#SVGID_2_);}
	.st17{clip-path:url(#SVGID_4_);}
	.st18{fill:#328545;}
	.st19{clip-path:url(#SVGID_6_);}
	.st20{clip-path:url(#SVGID_8_);}
	.st21{fill:#FFF100;}
	.st22{opacity:0.5;fill:#FFFFFF;enable-background:new    ;}
	.st23{fill:#006837;}
	.st24{fill:none;stroke:#2E3191;stroke-width:9.12;stroke-linecap:round;stroke-miterlimit:10;}
</style>
<path id="b-arm" class="st0" d="M126.9,178.4c-9.4,23.9-33.8,40.2-58.6,39.4"/>
<g id="b-hand">
	<path class="st1" d="M15.7,227.2c-1.1,0.6-2.3,0.9-3.5,1c-2.9,0.3-5.9-0.2-8.6-1.4c-0.9-0.3-1.6-0.8-2.3-1.4
		c-0.7-0.6-0.9-1.5-0.7-2.3c0.5-0.7,1.3-1.2,2.1-1.2c3.6-0.9,7.3-1.1,11-0.5C17.5,221.8,18.4,225.6,15.7,227.2z"/>
	<path class="st1" d="M21.5,232.5c-0.7,0.9-1.7,1.7-2.8,2.2c-2.6,1.4-5.6,2.1-8.5,1.9c-0.9,0-1.8-0.1-2.7-0.5
		c-0.8-0.3-1.4-1-1.5-1.9c0-0.8,0.8-1.5,1.6-2c3-2.2,6.3-3.8,9.8-4.8C21,226.9,23.2,229.9,21.5,232.5z"/>
	<path class="st1" d="M15.1,218.1c-1.1,0.6-2.3,0.9-3.5,1c-2.9,0.3-5.9-0.2-8.6-1.4c-0.9-0.3-1.6-0.8-2.3-1.4
		c-0.6-0.6-0.9-1.4-0.7-2.3c0.5-0.7,1.3-1.2,2.1-1.2c3.6-0.9,7.3-1.1,11-0.5C16.9,212.8,17.7,216.5,15.1,218.1z"/>
	<path class="st2" d="M66.2,235.6c2.4,0,4.2-7.2,4.2-16.1s-2-16-4.4-16l-39.7,0.3c-8.8,0.1-15.9,7.3-15.9,16.1v0.1
		c0.1,8.8,7.3,15.9,16.1,15.9l39.7-0.3V235.6z"/>
	<path class="st3" d="M19.6,212.9c-1.3,0.4-2.7,0.4-4,0.2c-3.1-0.5-6-1.8-8.4-3.8c-0.8-0.6-1.5-1.3-1.9-2.2
		c-0.5-0.9-0.4-1.9,0.2-2.7c0.7-0.8,1.9-0.8,2.8-0.8c4-0.1,8,0.7,11.8,2.2C23.8,207.4,23,211.8,19.6,212.9z"/>
</g>
<g id="body">
	<polygon class="st4" points="139.4,271.9 156.3,271.9 156.3,397.7 138.7,397.7 	"/>
	<ellipse class="st4" cx="139.5" cy="334.8" rx="39.2" ry="62.9"/>
	<ellipse class="st5" cx="156.3" cy="334.8" rx="39.2" ry="62.9"/>
	<ellipse class="st6" cx="156.3" cy="334.8" rx="28.6" ry="45.9"/>
	<path class="st7" d="M150.8,259.9c-32.3,0-53.6,27.3-53.6,79.1H197C197.2,295.7,183.1,259.9,150.8,259.9z"/>
	<path class="st8" d="M188.2,339h-67.4c0-31,15.6-56.1,35-56.1S188.2,308,188.2,339z"/>
	
		<ellipse transform="matrix(0.9756 -0.2197 0.2197 0.9756 -38.4068 31.0021)" class="st1" cx="120.2" cy="188.2" rx="13.8" ry="33.5"/>
	<path class="st9" d="M298.2,279c-1.1-40.4,1.1-80.9,6.6-121H110.2c5.5,40.1,7.7,80.6,6.6,121c-1.1,27.7,8.4,51.9,25.3,66.1
		c27.4,27.3,110.2,26.3,133.3-2.2c15.2-14.4,23.6-37.2,22.9-63.2C298.2,279.5,298.1,279.2,298.2,279z"/>
	<path class="st10" d="M109.5,158.1c0,0,76,53.1,153.6,0H109.5z"/>
	<rect x="195" y="214.6" class="st3" width="48.7" height="13.7"/>
	<circle class="st3" cx="202.3" cy="242.4" r="5.2"/>
	<circle class="st3" cx="219.4" cy="242.4" r="8.1"/>
	<circle class="st3" cx="236.3" cy="242.4" r="5.2"/>
	<polygon class="st4" points="263.8,276.9 280.8,276.9 280.8,402.7 263.2,402.6 	"/>
	<ellipse class="st4" cx="264" cy="339.8" rx="39.2" ry="62.9"/>
	<ellipse class="st5" cx="280.8" cy="339.8" rx="39.2" ry="62.9"/>
	<ellipse class="st6" cx="280.8" cy="339.8" rx="28.6" ry="45.9"/>
	<path class="st7" d="M275.3,264.8c-32.3,0-53.6,27.3-53.6,79.1h99.8C321.7,300.6,307.6,264.8,275.3,264.8z"/>
	<path class="st8" d="M312.7,343.9h-67.4c0-31,15.6-56.1,35-56.1S312.7,312.9,312.7,343.9z"/>
</g>
<g id="head">
	<path class="st5" d="M122.4,36.8L82.5,14.7c-0.9-0.5-1.9-0.2-2.4,0.7c-0.5,0.9-0.2,1.9,0.7,2.4l39.1,23.6c1.2,0.7,2.8,0.3,3.6-0.9
		C124.1,39.2,123.7,37.6,122.4,36.8L122.4,36.8z"/>
	<circle class="st5" cx="81.6" cy="16.2" r="5.4"/>
	<ellipse transform="matrix(0.3955 -0.9184 0.9184 0.3955 35.3796 101.5949)" class="st11" cx="94.9" cy="23.9" rx="8.1" ry="4.2"/>
	
		<ellipse transform="matrix(0.3955 -0.9184 0.9184 0.3955 36.4732 117.6521)" class="st12" cx="107.6" cy="31.1" rx="12.9" ry="4.2"/>
	<path class="st13" d="M312.5,29.9C302.8,12.1,285.4,2.6,262,2.6c-3.2,0-6.4,0.2-9.5,0.5c-3,0.4-14.6,0.7-23.1,0.8
		c-4.6,0.1-8.6,0.2-10.3,0.3c-6.2,0.3-11.8,0.4-17.1,0.4c-2.6,0-5.1,0-7.5-0.1c-7.4-0.2-15.4-0.7-24.6-1.6
		c-4.4-0.5-8.7-1.1-13.2-1.7l-1.2-0.2c-4.4-0.7-8.8-1.1-13.3-1.1c-19.2,0-33,8.1-42.2,24.8c-5.5,9.5-8.5,22-8.5,35.3
		c0,6.5,0.7,13,2.3,19.4c4.6,19.8,9.7,39.9,15.6,61.3l0.6,2.1l84.2,2.3l108.1,2.3l0.6-2.2c4.7-16.9,9.6-36.1,15.6-60.5
		C323,66.2,320.7,45.2,312.5,29.9z M315.6,84.1c-5.2,21.5-10.3,41.6-15.5,60.4l-105.8-2.2l-82-2.2c-5.2-19.1-10.5-39.4-15.5-61.2
		c-1.5-6.1-2.2-12.4-2.2-18.7c0-12.4,2.7-24.5,8.1-33.8c11.4-20.4,28.5-26,52.5-22.3c4.9,0.7,9.6,1.4,14.5,1.9
		c8.3,0.8,16.6,1.4,24.8,1.6s16.6,0,24.8-0.3c4.9-0.2,28.8-0.5,33.7-1.1c24-2.4,45.6,4.2,56.9,25.2C317.7,46,319.9,66.2,315.6,84.1
		L315.6,84.1z"/>
	<path class="st14" d="M312.5,29.9C302.8,12.1,285.4,2.6,262,2.6c-3.2,0-6.4,0.2-9.5,0.5c-3,0.4-14.6,0.7-23.1,0.8
		c-4.6,0.1-8.6,0.2-10.3,0.3c-6.2,0.3-11.8,0.4-17.1,0.4c-2.6,0-5.1,0-7.5-0.1c-7.4-0.2-15.4-0.7-24.6-1.6
		c-4.4-0.5-8.7-1.1-13.2-1.7l-1.2-0.2c-4.4-0.7-8.8-1.1-13.3-1.1c-19.2,0-33,8.1-42.2,24.8c-5.5,9.5-8.5,22-8.5,35.3
		c0,6.5,0.7,13,2.3,19.4c4.6,19.8,9.7,39.9,15.6,61.3l0.6,2.1l84.2,2.3l108.1,2.3l0.6-2.2c4.7-16.9,9.6-36.1,15.6-60.5
		C323,66.2,320.7,45.2,312.5,29.9z"/>
	<path class="st2" d="M281.7,103.3c-3.9,15.8-7.6,30.6-11.4,44.5l-77.8-1.7l-60.3-1.6c-3.9-14.1-7.7-29-11.4-45
		c-1.1-4.5-1.7-9.1-1.7-13.8c0-9.1,2-18,6-24.9c8.3-15,20.9-19.1,38.6-16.4c3.6,0.5,7.1,1,10.7,1.4c6.1,0.6,12.2,1,18.3,1.2
		s12.2,0,18.3-0.2c3.6-0.2,21.2-0.4,24.8-0.8c17.6-1.8,33.5,3.1,41.9,18.6C283.3,75.2,284.9,90.1,281.7,103.3z"/>
	<path class="st15" d="M162.3,95.2c-1.4,8-8.1,14.7-14.9,12.5s-11-11.2-9.6-18.3C145.3,93.4,153.8,95.5,162.3,95.2z"/>
	<g>
		<defs>
			<path id="SVGID_1_" d="M162.3,95.2c-1.4,8-8.1,14.7-14.9,12.5s-11-11.2-9.6-18.3C145.3,93.4,153.8,95.5,162.3,95.2z"/>
		</defs>
		<clipPath id="SVGID_2_">
			<use xlink:href="#SVGID_1_"  style="overflow:visible;"/>
		</clipPath>
		<g class="st16">
			<path class="st15" d="M159.3,93.4c-1,5.7-5.7,10.3-10.5,8.8s-7.8-7.9-6.8-12.9C147.3,92.2,153.3,93.7,159.3,93.4z"/>
		</g>
	</g>
	<g>
		<defs>
			<path id="SVGID_3_" d="M162.3,95.2c-1.4,8-8.1,14.7-14.9,12.5s-11-11.2-9.6-18.3C145.3,93.4,153.8,95.5,162.3,95.2z"/>
		</defs>
		<clipPath id="SVGID_4_">
			<use xlink:href="#SVGID_3_"  style="overflow:visible;"/>
		</clipPath>
		<g class="st17">
			<path class="st7" d="M159.3,93.4c-1,5.7-5.7,10.3-10.5,8.8s-7.8-7.9-6.8-12.9C147.3,92.2,153.3,93.7,159.3,93.4z"/>
		</g>
	</g>
	<path class="st18" d="M163.7,94.4c-2.4,1.1-5,1.8-7.6,1.8c-2.6,0.1-5.2-0.2-7.7-0.9c-2.6-0.8-5-1.9-7.3-3.4
		c-2.4-1.5-4.5-3.5-6.3-5.8c2.3,1.4,4.6,2.6,7,3.8c2.3,1.1,4.6,2,7.1,2.6c2.4,0.7,4.8,1.2,7.3,1.5C158.7,94.3,161.2,94.4,163.7,94.4
		z"/>
	<path class="st5" d="M137.6,78.8c1.6-1.6,3.4-2.9,5.4-4.1c0.9-0.5,1.9-1.1,2.9-1.6l3-1.2c1-0.4,2-0.8,3.1-1.2
		c1-0.4,2.1-0.4,3.1-0.1c1.1,0.3,2.2,0.7,3.1,1.3c1.1,0.7,2.1,1.7,2.8,2.9c0.2,0.2,0.1,0.6-0.1,0.8l0,0c-0.9,0.9-1.9,1.6-3,2.2
		c-0.9,0.5-1.9,0.9-2.8,1.2c-0.9,0.2-1.8,0.3-2.7,0.1c-0.9-0.1-1.9-0.4-2.8-0.5h-2.8c-1,0-2,0-2.9,0.1c-2,0.1-4,0.4-6,0.8
		c-0.2,0-0.4-0.1-0.4-0.4c0,0,0,0,0,0C137.4,79,137.5,78.9,137.6,78.8z"/>
	<path class="st15" d="M199.4,98c1.9,8.5,11.2,15.5,20.6,13.3s15.2-11.9,13.3-19.4C222.5,96.3,211,98.4,199.4,98z"/>
	<g>
		<defs>
			<path id="SVGID_5_" d="M199.4,98c1.9,8.5,11.2,15.5,20.6,13.3s15.2-11.9,13.3-19.4C222.5,96.3,211,98.4,199.4,98z"/>
		</defs>
		<clipPath id="SVGID_6_">
			<use xlink:href="#SVGID_5_"  style="overflow:visible;"/>
		</clipPath>
		<g class="st19">
			<path class="st15" d="M203.6,96.2c1.4,6,7.8,10.9,14.6,9.4s10.8-8.4,9.4-13.7C219.9,95,211.8,96.5,203.6,96.2z"/>
		</g>
	</g>
	<g>
		<defs>
			<path id="SVGID_7_" d="M199.4,98c1.9,8.5,11.2,15.5,20.6,13.3s15.2-11.9,13.3-19.4C222.5,96.3,211,98.4,199.4,98z"/>
		</defs>
		<clipPath id="SVGID_8_">
			<use xlink:href="#SVGID_7_"  style="overflow:visible;"/>
		</clipPath>
		<g class="st20">
			<path class="st7" d="M203.6,96.2c1.4,6,7.8,10.9,14.6,9.4s10.8-8.4,9.4-13.7C219.9,95,211.8,96.5,203.6,96.2z"/>
		</g>
	</g>
	<path class="st18" d="M197.4,97.2c3.5,0,7,0,10.4-0.3c3.4-0.3,6.7-0.8,10.1-1.5c3.3-0.7,6.6-1.7,9.8-2.8c3.3-1.2,6.5-2.5,9.6-4
		c-2.6,2.5-5.5,4.6-8.7,6.2c-3.2,1.6-6.6,2.8-10.1,3.6c-3.5,0.7-7.1,1.1-10.6,1C204.3,99.2,200.8,98.4,197.4,97.2z"/>
	<path class="st5" d="M233.4,81.5c-2.7-0.4-5.5-0.7-8.2-0.8c-1.4-0.1-2.7-0.2-4.1-0.1h-3.9c-1.3,0-2.6,0.2-3.9,0.6
		c-1.3,0.2-2.5,0.2-3.8-0.1c-1.3-0.3-2.6-0.7-3.9-1.2c-1.5-0.6-2.9-1.4-4.2-2.4l0,0c-0.3-0.1-0.3-0.6-0.1-0.8l0,0
		c1.1-1.3,2.4-2.3,3.9-3.1c1.3-0.7,2.8-1.2,4.3-1.4c1.4-0.2,2.9-0.2,4.3,0.1c1.4,0.5,2.9,0.9,4.3,1.3l4.2,1.3
		c1.4,0.6,2.7,1.1,4.1,1.7c2.6,1.2,5.1,2.6,7.4,4.3c0.2,0.2,0.2,0.5,0.1,0.7C233.7,81.5,233.5,81.5,233.4,81.5z"/>
	<path class="st18" d="M169.3,114.2c1.6,1.2,3.3,2.2,5.2,2.9c1.5,0.6,3.1,1,4.7,1.2c1.6,0.1,3.2-0.1,4.8-0.4c1.9-0.5,3.7-1.2,5.4-2
		c-0.7,5.4-5.7,9.1-11,8.3c-2.2-0.3-4.3-1.4-5.8-3C170.7,119.2,169.6,116.8,169.3,114.2z"/>
	<path class="st21" d="M299.9,161.9c-61.7,8.7-124.4,8.7-186.1,0c-6.6-1.2-11.5-6.8-11.7-13.6v-1c-0.2-5.5,4.1-10.1,9.6-10.2
		c0.7,0,1.5,0,2.2,0.2c61.7,8.7,124.4,8.7,186.1,0c6.6-1,11.8,3.5,11.8,10.1v1C311.8,154.8,306.4,160.9,299.9,161.9z"/>
	<path class="st5" d="M266.6,41.6l41.1-19.7c0.9-0.4,2,0,2.4,0.8c0.4,0.9,0,2-0.8,2.4l-40.4,21.3c-1.3,0.7-2.8,0.2-3.5-1.1
		c0,0,0,0,0,0C264.8,43.9,265.4,42.3,266.6,41.6L266.6,41.6z"/>
	<circle class="st5" cx="308.6" cy="23.4" r="5.5"/>
	<ellipse transform="matrix(0.9401 -0.341 0.341 0.9401 7.3151 102.3973)" class="st11" cx="294.9" cy="30.4" rx="4.2" ry="8.1"/>
	<ellipse transform="matrix(0.9401 -0.341 0.341 0.9401 4.3302 98.2957)" class="st12" cx="281.8" cy="36.8" rx="4.2" ry="12.9"/>
	<path class="st22" d="M112.2,73.9c-2.9,0-5.3-2.1-5.7-5c-0.6-3.3-0.8-6.6-0.8-9.9c0-9.8,2.2-19.4,6.7-27.1
		c4.5-8.1,12-14.2,20.8-16.9c1-0.5,2.2-0.2,2.7,0.8c0.5,1,0.2,2.2-0.8,2.7l0,0c-4.2,3.2-7.7,7.2-10.3,11.7c-4.6,8-7,18.2-7,28.4
		c0,2.9,0.2,5.8,0.6,8.7c0.4,3.3-1.9,6.3-5.2,6.7C112.8,74,112.5,74,112.2,73.9L112.2,73.9z"/>
	<path class="st22" d="M110,87.1v0.4c0.4,2.5,2.2,4.2,4.3,4.1c0.7,0,1.3-0.1,2-0.3c2.4-0.4,3.9-3.1,3.6-5.9V85
		c-0.4-2.9-2.7-4.9-5-4.2c-0.4,0.1-0.8,0.1-1.3,0.3C111.1,81.3,109.4,84.1,110,87.1z"/>
	<path class="st23" d="M198.3,46.4c0.1-3.6-1.1-7.1-2.4-10.5c-1.1-2.9-4.1-8.2-9.3-8.4l-1.1-0.1c-5.3-0.5-8.8,4.6-10.3,7.2
		c-1.8,3.2-3.5,6.5-3.7,10.1c-0.5,3.8,1,7.5,4,9.9c5.3,3.7,12.2,4.1,17.9,1.1C196.5,53.6,198.3,50.1,198.3,46.4z"/>
</g>
<ellipse id="armhole" transform="matrix(8.663414e-02 -0.9962 0.9962 8.663414e-02 68.3556 453.9672)" class="st1" cx="281.8" cy="189.7" rx="35.1" ry="14.4"/>
<g id="f-arm">
	<path class="st24" d="M283.5,190.4c2,12.1-2.4,53-36.7,55"/>
</g>
<g id="f-hand">
	<path class="st1" d="M205.2,237.1c-1.4,0.4-2.8,0.5-4.2,0.1c-3.3-0.5-6.3-1.9-8.8-4c-0.8-0.6-1.5-1.4-2-2.4c-0.5-0.9-0.4-2,0.3-2.8
		c0.7-0.8,2-0.9,2.9-0.9c4.2-0.1,8.4,0.7,12.3,2.4C209.7,231.4,208.8,236,205.2,237.1z"/>
	<path class="st2" d="M255.7,243.4c0-9.3-2.1-16.8-4.5-16.8l0,0l-41.5,0.1c-9.3,0-16.7,7.6-16.7,16.8v0.1c0,9.3,7.6,16.7,16.8,16.7
		l41.5-0.1v-0.1l0,0C253.8,260.1,255.7,252.6,255.7,243.4z"/>
	<path class="st3" d="M199.3,247.9c-1.1,0.7-2.3,1.1-3.5,1.3c-3,0.5-6.2,0.3-9.1-0.7c-0.9-0.3-1.8-0.7-2.5-1.3
		c-0.7-0.5-1.1-1.4-0.9-2.3c0.4-0.8,1.2-1.3,2.1-1.4c3.7-1.2,7.5-1.7,11.4-1.4C200.8,242.2,202,246,199.3,247.9z"/>
	<path class="st3" d="M204.4,256.6c-0.8,1-1.8,1.7-2.9,2.2c-2.8,1.4-5.8,2.1-8.9,2c-1,0-1.9-0.2-2.8-0.6c-0.8-0.3-1.4-1.1-1.6-2
		c0-0.8,0.8-1.5,1.7-2.1c3.1-2.3,6.6-3.9,10.3-4.9C204,250.8,206.2,254,204.4,256.6z"/>
	<path class="st3" d="M200,238.8c-1.1,0.6-2.4,0.9-3.6,1c-3.1,0.3-6.1-0.3-8.9-1.5c-0.9-0.3-1.7-0.9-2.4-1.5
		c-0.7-0.6-0.9-1.5-0.7-2.4c0.5-0.8,1.3-1.2,2.2-1.3c3.8-0.9,7.6-1.1,11.5-0.4C202,233.2,202.8,237.1,200,238.8z"/>
</g>
</svg>
