<?xml version="1.0" encoding="utf-8"?>
<!-- Generator: Adobe Illustrator 25.2.0, SVG Export Plug-In . SVG Version: 6.00 Build 0)  -->
<svg version="1.1" id="Layer_1" xmlns="http://www.w3.org/2000/svg" xmlns:xlink="http://www.w3.org/1999/xlink" x="0px" y="0px"
	 viewBox="0 0 288.2 537.2" style="enable-background:new 0 0 288.2 537.2;" xml:space="preserve">
<style type="text/css">
	.st0{fill:#5FB0AA;}
	.st1{fill:none;stroke:#4A8F91;stroke-width:4.07;stroke-miterlimit:10;}
	.st2{fill:#77185E;}
	.st3{fill:#541146;}
	.st4{fill:#C7DB52;}
	.st5{fill:#59104A;}
	.st6{fill:#DAE78D;}
	.st7{fill:none;stroke:#C7DB52;stroke-width:2;stroke-linecap:round;stroke-miterlimit:10;}
	.st8{opacity:0.2;fill:#9AE0E2;enable-background:new    ;}
	.st9{fill:none;stroke:#9AE0E2;stroke-width:3;stroke-miterlimit:10;}
	.st10{fill:#FFFFFF;}
	.st11{fill:none;stroke:#5FB0AA;stroke-width:8.51;stroke-linecap:round;stroke-miterlimit:10;}
	.st12{clip-path:url(#SVGID_2_);}
	.st13{fill:#E95BA6;}
	.st14{fill:#F7E731;}
	.st15{fill:#B34582;}
	.st16{clip-path:url(#SVGID_4_);}
	.st17{fill:#5F1B75;}
	.st18{fill:#470B35;}
</style>
<g id="b-arm">
	<path class="st0" d="M207.3,199.3l-79.2-6.5c-6.5-0.6-13.3-1.1-20-1.8s-13.4-1.3-20.2-2.1s-13.4-1.6-20.1-2.5
		c-3.3-0.5-6.7-0.9-10.1-1.4l-5-0.8l-5.2-0.8l2.4-26.9l4.7-0.1l4.9-0.1c3.2-0.1,6.5-0.2,9.8-0.4c6.5-0.3,13-0.7,19.5-1.1
		c6.5-0.4,13-0.9,19.5-1.5c3.2-0.3,6.5-0.6,9.7-0.9s6.6-0.6,9.9-0.8l79.4-6.5L207.3,199.3z"/>
	<line class="st1" x1="65.9" y1="156.7" x2="64.4" y2="185.1"/>
	<line class="st1" x1="136.8" y1="151.6" x2="137" y2="192.7"/>
	<line class="st1" x1="190.7" y1="146.8" x2="190.8" y2="197.5"/>
	<line class="st1" x1="154.8" y1="150" x2="154.9" y2="194.3"/>
	<line class="st1" x1="172.8" y1="148.4" x2="172.9" y2="195.9"/>
	<line class="st1" x1="118.9" y1="153.2" x2="119" y2="191.1"/>
	<line class="st1" x1="101.3" y1="154.7" x2="100.8" y2="189.5"/>
	<line class="st1" x1="83.6" y1="155.9" x2="82.6" y2="187.5"/>
</g>
<g id="b-hand">
	<path class="st2" d="M10.5,198.3c-2.1,0.4-4.2-0.6-5.2-2.5c-0.4-0.8-0.8-1.6-0.9-2.5c-0.5-0.1-1.1-0.2-1.5-0.4
		c-0.8-0.4-1.5-1.1-1.9-1.9c-0.8-1.8-1.1-3.9-0.8-5.9c0.1-1,0.3-2.1,0.8-3c-0.3-1.4-0.4-2.9-0.3-4.3c0.8-7.4,8.1-13.5,14.7-16.7
		c9.2-4.4,23.4-3.4,23.4-3.4s22.1,19.2,12.1,25s-18.7,3.7-18.7,3.7s-6.9,0.3-11.8,2.2C17.2,189.8,14.4,197.7,10.5,198.3z"/>
	<path class="st2" d="M45.8,155.2c0,0-8.8-4.1-13.6-5.1s-17.6-6.4-18.8-1.1s1.6,8.6,6.4,10.2s5.5,10.3,8,10.9S51.5,174.5,45.8,155.2
		z"/>
	<path class="st2" d="M54.2,155.2l2.7,25.9c0.4,3.6-2.2,6.8-5.8,7.2l0,0c-3.6,0.4-6.8-2.2-7.2-5.8l-2.7-25.9
		c-0.4-3.6,2.2-6.8,5.8-7.2l0,0C50.6,149,53.8,151.6,54.2,155.2z"/>
	<path class="st3" d="M4.7,185.8c-1.5-0.1-3.2-0.4-4.6-0.7c0.1-1,0.3-2.1,0.8-3c1.9,1,5.1,2.5,7.2-0.8c1.7-2.5,3.7-4.8,5.9-6.9
		c0.2-0.1,7-2.1,7-2.1s-6.5,3.4-8,5C7.9,183,6.9,186,4.7,185.8z"/>
	<path class="st3" d="M4.4,193.3c1.1,0.3,2.3,0.3,3.4-0.1c1.8-0.6,3.7-4.2,5.3-6.2c1.3-1.5,2-3.6,4.4-4.6s4.9-1.8,5.2-1.9
		c-2.2,1.4-4.2,3-6.1,4.9c-2.5,2.7-6.5,9.2-8.8,9.9c-0.8,0.2-1.6,0.4-2.5,0.5C4.9,195,4.6,194.2,4.4,193.3z"/>
</g>
<path id="b-thigh" class="st4" d="M212.1,407.5c0,0-4.2,12.5-16.7,12.6c-12.8,0.1-17.6-12.6-17.6-12.6s-12.3-52.1-9.7-88.4
	c1-14.9,9-31.8,25-31.8s23.6,19.9,24.6,26.9C220.9,339.5,212.1,407.5,212.1,407.5z"/>
<g id="b-calf">
	<path class="st5" d="M221.2,450.6c0.7-6.9-50.6-5.7-49.4,3s20.6,9.1,28,9C208.8,462.3,220.7,455.3,221.2,450.6z"/>
	<path class="st0" d="M139.4,526.2l3.1,5.5c0,0,24.8,0.3,40.1,0s33.3-0.4,33.3-0.4l-2.5-5.1c0,0-9.5-6.3-10.3-6.2
		S139.4,526.2,139.4,526.2z"/>
	<path class="st4" d="M207.3,514l-21.9-2.7l-7.6-103.9l34.2,0.7c0,0,4.4,15.6,4.3,30.5C216.1,458.4,207.3,514,207.3,514z"/>
	<path class="st2" d="M221.2,450.6v0.2l0,0l-0.8,7.4l-7.2,68c1,1.9-7.3,2.1-27.8,0.7c-18.9-1.2-46.1-0.7-46.1-0.7l-3.1-4.2
		c-1.5-2-1-4.9,1-6.3c0.1-0.1,0.2-0.2,0.3-0.2l40.1-16.7l-5-38l-0.9-7.1l0,0l0.1,0.1c1.1,0.6,7.8,3.6,27.3,2.2l1.9-0.2
		C208.1,455.1,214.8,453.4,221.2,450.6z"/>
	<path class="st0" d="M174.3,496.9c2.2-1.7,4.2-3.5,10.9-0.7c7.9,3.3,19.7,8.4,28,30c0,0-26.2-24.1-39.9-25
		C168.9,501,173.4,497.6,174.3,496.9z"/>
	<path class="st0" d="M221.2,450.6v0.2l0,0l-0.8,7.4c-7.3,3.6-15.3,5.6-23.4,6c-13.5,0.5-22-1.2-24.3-3.5l-0.9-7.1l0,0l0.1,0.1
		c1.1,0.6,7.8,3.6,27.3,2.2l1.9-0.2C208,455.1,214.8,453.4,221.2,450.6z"/>
</g>
<path id="f-thigh" class="st6" d="M236,412.7c0,0-4.2,12.5-16.7,12.6c-12.8,0.1-17.6-12.6-17.6-12.6s-12.3-52.1-9.7-88.4
	c1-14.9,9-31.8,25-31.8s23.6,19.9,24.5,26.9C244.8,344.8,236,412.7,236,412.7z"/>
<g id="f-calf">
	<path class="st5" d="M245.2,455.9c0.7-6.9-50.6-5.7-49.4,3s20.6,9.1,28,9C232.8,467.6,244.7,460.6,245.2,455.9z"/>
	<path class="st0" d="M163.3,531.5l3.1,5.5c0,0,24.8,0.3,40.1,0s33.3-0.4,33.3-0.4l-2.5-5.1c0,0-9.5-6.3-10.3-6.2
		S163.3,531.5,163.3,531.5z"/>
	<path class="st6" d="M231.2,519.2l-21.9-2.7l-7.6-103.9l34.2,0.7c0,0,4.4,15.6,4.3,30.5C240.1,463.7,231.2,519.2,231.2,519.2z"/>
	<path class="st2" d="M245.2,455.9v0.2l0,0l-0.8,7.4l-7.2,68c1,1.9-7.3,2.1-27.8,0.7c-19-1.2-46.1-0.7-46.1-0.7l-3.2-4.2
		c-1.5-2-1-4.9,1-6.3c0.1-0.1,0.2-0.2,0.3-0.2l40.1-16.7l-5-38l-0.9-7.1l0,0l0.1,0.1c1.1,0.6,7.8,3.6,27.3,2.2l1.9-0.2
		C232,460.4,238.8,458.7,245.2,455.9z"/>
	<path class="st0" d="M198.3,502.2c2.2-1.7,4.2-3.5,10.9-0.7c7.9,3.3,19.7,8.4,28,30c0,0-26.2-24.1-39.9-25
		C192.9,506.3,197.4,502.9,198.3,502.2z"/>
	<path class="st0" d="M245.2,455.9v0.2l0,0l-0.8,7.4c-7.3,3.6-15.3,5.6-23.4,6c-13.5,0.5-22-1.2-24.3-3.5l-0.9-7.1l0,0l0.1,0.1
		c1.1,0.6,7.8,3.6,27.3,2.2l1.9-0.2C232,460.4,238.8,458.7,245.2,455.9z"/>
</g>
<path id="hips" class="st6" d="M195.2,355.1c-9-1.1-19.4-5.3-25-12.1c-10.1-12.2-18.7-45.5-18.7-45.5h96.6c0,0,6.3,8.2-1.6,37.5
	C241.5,353.7,208.8,356.7,195.2,355.1z"/>
<g id="torso">
	<path class="st2" d="M199.1,272.5c-31.4,0-56.8,4.4-56.8,9.9h5.9c0-4.9,22.8-8.8,51-8.8s51,4,51,8.8h5.8
		C255.9,276.9,230.5,272.5,199.1,272.5z"/>
	<path class="st6" d="M248.1,296.6c-17.3,37-80.6,37-97.9,0c0-36-33.2-62.2-23.4-118.1c0.6-3.2,1.4-6.3,2.4-9.3l0,0
		c2.8-7.9,6.5-15.4,11.3-22.3v-0.1c11.9-17.7,29.9-38.9,54-49c41.4-17.2,76.8,20.2,80.9,46.1C285.9,210.4,248.1,260.6,248.1,296.6z"
		/>
	<path class="st7" d="M240.3,135.7c-31.2,0.8-74.9,54.5-75.2,108.2c-0.2,34.4-1.7,64.8-1.7,64.8"/>
	<path class="st2" d="M255.9,282.4v20.2c0,5.5-25.4,9.9-56.8,9.9s-56.8-4.5-56.8-9.9v-20.2c0,5.5,25.4,9.9,56.8,9.9
		S255.9,287.9,255.9,282.4z"/>
	<path class="st2" d="M131.9,180.8v12.4c0,0-4.8-11.3-2.7-24l0,0c2.8-7.9,6.5-15.4,11.3-22.3C139.8,148.1,128.1,170.9,131.9,180.8z"
		/>
	<path class="st2" d="M199.1,291.2c-28.2,0-51-4-51-8.8h-5.8c0,5.5,25.4,9.9,56.8,9.9s56.8-4.4,56.8-9.9h-5.8
		C250.1,287.3,227.3,291.2,199.1,291.2z"/>
	<path class="st8" d="M269.3,30.6c-10.1-13.2-45.8-29.1-62.5-29.1s-52.4,15.9-62.5,29.1c-16,20.9,7.7,74.6,7.7,97.5
		c3,11.6,27.4,14.4,49.9,12.3s51.5-17.5,55.5-28.7C257.3,87.5,285.3,51.6,269.3,30.6z"/>
	<path class="st9" d="M269.3,30.6c-10.1-13.2-45.8-29.1-62.5-29.1s-52.4,15.9-62.5,29.1c-16,20.9,7.7,74.6,7.7,97.5
		c3,11.6,27.4,14.4,49.9,12.3s51.5-17.5,55.5-28.7C257.3,87.5,285.3,51.6,269.3,30.6z"/>
	<path class="st10" d="M159.3,26.2c0,0-13.1,6.2-13.8,18.4s4.6,25,4.6,25l5.5-1.7c0,0-5.3-18.8-3.6-24.7c2-7,6.7-11.5,12-14.6
		L159.3,26.2z"/>
	<polygon class="st10" points="173.7,23.1 168.9,25.9 164,22.9 168.9,20.1 	"/>
	<path class="st11" d="M152.9,128.2c3.2,12.3,23.2,15.9,51.4,8.4c36-9.6,48.7-12.9,53-24.8"/>
	<path class="st2" d="M131.9,193.2c23.9-21,35.2-25.1,57.8-39.3c9.6-6.1,27.1-11.8,38.9-14.2c29.2-5.9,48.7,13.6,48.7,13.6
		s-2.6-14.8-7.4-25.7c-3.6-4.6-22.2-9-48.1-2.7c-12.8,3.1-33.8,11.4-46.1,19.9c-28.6,19.8-43.8,36-43.8,36L131.9,193.2z"/>
	<path class="st0" d="M131,221.7l-5.7-18.4c-0.3-1.2-0.3-2.4,0-3.5l5.7-18.4c0.5-1.5,1.4-1.5,1.8,0l5.7,18.4c0.3,1.2,0.3,2.4,0,3.5
		l-5.7,18.4C132.3,223.2,131.4,223.2,131,221.7z"/>
	<polygon class="st2" points="128.3,201.5 131.9,189.8 135.5,201.5 131.9,213.2 	"/>
	<ellipse class="st0" cx="148.9" cy="298.5" rx="7.8" ry="19.4"/>
	<polygon class="st2" points="148.9,311.4 145,298.5 148.9,285.7 152.9,298.5 	"/>
	<path class="st2" d="M259.5,178.5c0,20.2-13.4,33-30.7,39.9c-16.6-5.9-30.6-19.7-30.6-39.9s13.7-33.3,30.7-33.3
		S259.5,158.3,259.5,178.5z"/>
	<path class="st3" d="M253.2,187.8c0,15-10.6,24.4-24.3,29.6c-13.1-4.3-24.3-14.6-24.3-29.6s10.9-24.6,24.3-24.6
		S253.2,172.8,253.2,187.8z"/>
</g>
<g id="f-arm">
	<g>
		<g>
			<defs>
				<path id="SVGID_1_" d="M254.8,181.7c-4.4-14.3-20-21.7-32.8-17.8s-20.4,16.3-16.1,30.7l-4.3,24.9L111,237.8V303
					c0,0,138.4,9.5,170.6-37.1C306.1,230.7,254.8,181.7,254.8,181.7z"/>
			</defs>
			<clipPath id="SVGID_2_">
				<use xlink:href="#SVGID_1_"  style="overflow:visible;"/>
			</clipPath>
			<g class="st12">
				<path class="st0" d="M229.6,142.4c3.4,3.2,6.6,6.8,9.4,10.6c2.5,3.3,4.9,6.8,7,10.4c4.1,6.9,7.5,14.1,10.3,21.5
					c3,7.8,5,15.8,6.2,24.1c0.7,4.7,0.9,9.5,0.6,14.2c-0.3,5.9-1.6,11.7-4,17.1c-1.4,3.3-3.3,6.3-5.6,9.1c-2.4,2.9-5.2,5.4-8.4,7.4
					c-2.9,1.9-6,3.3-9.3,4.3c-1.5,0.5-3,0.8-4.5,1.1l-1.1,0.2c-0.2,0-0.2,0-0.4,0h-0.3l-1.2,0.1l-19.5,1.9l-39,3.8
					c-7.5,0.7-14.1-4.7-14.8-12.2c-0.6-6.4,3.3-12.3,9.3-14.2h0.1l37.2-12l18.6-6l1.2-0.4l0.3-0.1c0.1,0,0.2-0.1,0.2-0.1l0.1-0.1
					c0.1,0,0.2-0.1,0.2-0.2c0-0.1-0.2-0.2-0.7,0s-0.9,0.4-1.3,0.8c-0.3,0.2-0.5,0.5-0.8,0.7s-0.3-0.6-0.5-1.9
					c-0.3-1.7-0.7-3.4-1.3-5.1c-1.5-4.5-3.4-8.8-5.8-12.9c-2.5-4.4-5.3-8.5-8.6-12.4c-1.5-1.8-3.1-3.5-4.7-5.1
					c-1.3-1.2-2.7-2.3-4.2-3.3c-13.3-7.4-18-24.2-10.6-37.5s24.2-18,37.5-10.6c1.9,1.1,3.7,2.4,5.3,3.8L229.6,142.4z"/>
				<line class="st1" x1="180.3" y1="238" x2="186" y2="265.9"/>
				<line class="st1" x1="220.4" y1="223" x2="261.6" y2="224.7"/>
				<line class="st1" x1="202.3" y1="190" x2="243.3" y2="160.2"/>
				<line class="st1" x1="217.2" y1="212.7" x2="259.7" y2="200.2"/>
				<line class="st1" x1="210.7" y1="200.8" x2="253.1" y2="179.5"/>
				<line class="st1" x1="222.4" y1="224.5" x2="245.9" y2="254.4"/>
				<line class="st1" x1="214" y1="227.8" x2="221.1" y2="261.8"/>
				<line class="st1" x1="197.2" y1="232.9" x2="203.6" y2="263.8"/>
			</g>
		</g>
	</g>
</g>
<g id="head">
	<path class="st13" d="M244.4,108.6c-7.1,8.1-50.1,19.9-65.8,15.1c-13.4-4.1-19.1-14-16.4-24.1c3.6,1.7,8.4,4.6,13-1.4
		c-2.1,1.3-8,4.2-12.6-0.3c2.7-6,7.7-14.3,11-25.3c0.5-1.7,0.6-6,0.7-7.9c1.2-19.1,17.7-33.7,36.9-32.5
		c18.3,1.2,32.5,16.3,32.5,34.7c0,1,0,2-0.1,3c-0.6,7.4-4.1,15.5-3.1,21C241.5,98.3,244.5,98.5,244.4,108.6z"/>
	<path class="st14" d="M210.4,30c0,0,5.4-7.4,17.7-7.2c12.3,0.2,17.2,5.9,19.1,9.4c1.9,3.4,1,7.2-2.4,8.7s-8-4.3-14-6.5
		c-7.6-2.8-8.6-1-12.7-0.3C214.9,34.6,208.4,32.4,210.4,30z"/>
	<path class="st14" d="M195.4,44.4c0,0-9.9,3.3-15.3,8.2c-4.1,3.7-10,5.3-15.1,1.7s-7.7-19.8,18.6-20.9s28.9,0,28.9,0v9.1
		C206.7,42.4,201,43,195.4,44.4z"/>
	<path class="st14" d="M216.1,34.5c-1.7-3.8-6.5-9.6-21.9-9.7s-25.9,6.8-19.8,13.9s11.8-0.2,14.2-0.8s15.1-2.8,20.7,1
		S217.4,37.3,216.1,34.5z"/>
	<path class="st14" d="M211.1,35.5c0,0-11.8-0.5-16.8,12.4s-2,21.1,3.1,21.6S208,65.3,209,56.3s5.6-14.4,10.8-15.7
		C225.1,39.3,218.7,33.6,211.1,35.5z"/>
	<path class="st14" d="M214.2,32.7c0,0,8.5-6.7,32.6,5.9c22.3,11.7,13.8,24.7,10.4,26.9s-12-0.1-14.3-10.9S214.8,37,214.8,37
		L214.2,32.7z"/>
	<path class="st14" d="M216.6,35.3c0,0,11,0.4,18.2,6.8c6.3,5.4,9.4,13.6,8.3,21.8c-0.9,6.9-12,10.4-17.9,6.9s-5.8-9.9-4.7-15.6
		s-0.7-13.6-6.2-15S210.4,36.6,216.6,35.3z"/>
	<path class="st15" d="M208.5,82.1l6.7-4l-1.4-4.3l-7.7,1c0,0-2.4,1.1-1.5,4.3C205.7,82.4,208.5,82.1,208.5,82.1z"/>
	<path class="st15" d="M215.2,75.6c1,4.7,3.9,4.9,4.7,4.6s2.8-2,1.1-6.5s-3.8-4.7-4.6-4.5S214.3,70.9,215.2,75.6z"/>
	<path class="st15" d="M219.7,80.2l-4.4-2.2c-0.6-0.6-0.9-1.2-1.1-2c-0.3-0.7-0.3-1.5-0.2-2.3l2.4-4.3L219.7,80.2z"/>
	<path class="st10" d="M188.6,74.1c0,0-2.9-2-5.4-1.1c-3.9,1.4-8.2,6.6-7.1,19.6c0,0,3,2.8,7.5,0.3
		C188.5,90.3,190.7,77.8,188.6,74.1z"/>
	<g>
		<g>
			<defs>
				<path id="SVGID_3_" d="M188.6,74.1c0,0-2.9-2-5.4-1.1c-3.9,1.4-8.2,6.6-7.1,19.6c0,0,3,2.8,7.5,0.3
					C188.5,90.3,190.7,77.8,188.6,74.1z"/>
			</defs>
			<clipPath id="SVGID_4_">
				<use xlink:href="#SVGID_3_"  style="overflow:visible;"/>
			</clipPath>
			<g class="st16">
				
					<ellipse transform="matrix(4.152839e-02 -0.9991 0.9991 4.152839e-02 88.6932 259.2936)" class="st17" cx="179.5" cy="83.4" rx="8.7" ry="4.3"/>
				<ellipse transform="matrix(4.152839e-02 -0.9991 0.9991 4.152839e-02 88.6932 259.2936)" cx="179.5" cy="83.4" rx="4" ry="2"/>
				<path class="st18" d="M176.1,92.7c0,0-0.8-15.3,5.8-17.2c5.7-1.6,9.5,5.1,9.5,5.1l-0.5-9.1c0,0-8.5-3.1-13.7,4.9
					S176.1,92.7,176.1,92.7z"/>
			</g>
		</g>
	</g>
	<path class="st2" d="M173.8,97.8c0.4,0,0.9,0.2,1.2,0.4c0.4,0.2,0.7,0.5,1,0.9s0.5,0.8,0.5,1.2c0.1,0.5,0,0.9-0.3,1.3
		c-0.1-0.4-0.3-0.7-0.5-1.1c-0.2-0.3-0.4-0.6-0.6-0.9C174.8,99.1,174.3,98.6,173.8,97.8z"/>
	<path class="st2" d="M189.8,68.8c-0.7-1-1.5-1.8-2.4-2.7c-0.4-0.4-0.8-0.7-1.2-1s-0.8-0.6-1.3-0.9c-0.9-0.4-1.9-0.6-2.8-0.4
		c-0.5,0.1-0.9,0.3-1.4,0.5c-0.2,0.1-0.5,0.3-0.7,0.4c-0.2,0.2-0.2,0.2-0.4,0.3c0.2,1.9,0.6,3.7,1.2,5.5c0.2-0.2,0.3-0.3,0.5-0.4
		c0.3-0.2,0.6-0.5,1-0.6c0.7-0.3,1.4-0.4,2.1-0.2c0.4,0.1,0.8,0.3,1.1,0.5c0.4,0.2,0.8,0.4,1.1,0.7c0.8,0.5,1.5,1.2,2.2,1.9
		L189.8,68.8z"/>
</g>
<g id="f-hand">
	<path class="st2" d="M137,258c-3.2,1-10.3-3.5-13.7-1.5c-1.6,0.9-3.9,3.2-1.7,7.7c-1.1,1-1.6,2.5-1.3,4c0.8,3,2.8,5.5,5.4,7
		c0.6,1.3,1.4,2.5,2.4,3.5c5.2,5.3,14.7,5.6,21.8,4.1c9.9-2.2,20.5-11.7,20.5-11.7s5.5-28.7-5.9-27.2s-17,8.6-17,8.6
		S142,256.5,137,258z"/>
	<path class="st2" d="M168.1,244.6c0,0-9.2-3.1-14.1-3.6s-18.2-4.4-18.8,0.9s2.5,8.3,7.5,9.5s6.6,9.6,9.2,10
		S175.9,263.1,168.1,244.6z"/>
	<path class="st2" d="M168.8,269.8l-5.5-25.5c-0.8-3.5,1.5-7,5-7.8l0,0c3.5-0.8,7,1.5,7.8,5l5.5,25.5c0.8,3.5-1.5,7-5,7.8l0,0
		C173,275.5,169.5,273.3,168.8,269.8z"/>
	<path class="st3" d="M121.6,264.2c-0.4,0.4-0.7,0.8-0.9,1.3c3.6,1.5,11.7,4.9,15.1,5.4c4.2,0.7,11-3.8,11.6-4.1
		c-0.5,0.2-6.8,2.9-10.3,2.2C133.3,268.3,121.6,264.2,121.6,264.2z"/>
	<path class="st3" d="M125.7,275.2c0.6,1.3,1.4,2.5,2.4,3.5c3.5,0.8,8,1.6,10.5,1.5c3.9-0.4,7.6-1.5,11-3.3
		c-0.4,0.2-5.5,2.5-9.7,2.1C135.5,278.6,125.7,275.2,125.7,275.2z"/>
</g>
</svg>
