<?xml version="1.0" encoding="utf-8"?>
<!-- Generator: Adobe Illustrator 26.0.0, SVG Export Plug-In . SVG Version: 6.00 Build 0)  -->
<svg version="1.1" id="Layer_1" xmlns="http://www.w3.org/2000/svg" xmlns:xlink="http://www.w3.org/1999/xlink" x="0px" y="0px"
	 viewBox="0 0 700 1431.2" style="enable-background:new 0 0 700 1431.2;" xml:space="preserve">
<style type="text/css">
	.st0{fill:#5FB0AA;}
	.st1{fill:none;stroke:#4A8F91;stroke-width:1.522;stroke-miterlimit:10;}
	.st2{fill:#77185E;}
	.st3{fill:#541146;}
	.st4{fill:#DAE78D;}
	.st5{fill:#59104A;}
	.st6{fill:none;stroke:#C7DB52;stroke-width:0.7479;stroke-linecap:round;stroke-miterlimit:10;}
	.st7{fill:#9AE0E2;fill-opacity:0.2;}
	.st8{fill:none;stroke:#9AE0E2;stroke-width:1.1218;stroke-miterlimit:10;}
	.st9{fill:#FFFFFF;}
	.st10{fill:none;stroke:#5FB0AA;stroke-width:3.1823;stroke-linecap:round;stroke-miterlimit:10;}
	.st11{fill:#E95BA6;}
	.st12{clip-path:url(#SVGID_00000034065471272502529710000003745190330917373370_);}
	.st13{fill:#5F1B75;}
	.st14{fill:#470B35;}
	.st15{clip-path:url(#SVGID_00000147213375952852929530000017741045639569877917_);}
	.st16{fill:#F7E731;}
</style>
<g>
	<g transform="translate(-12 -181)">
		<g>
			<g>
				<g>
					<g>
						<g>
							<g>
								<path class="st0" d="M642.9,569.7c10,10.2,18.8,21.1,26.4,33.1c7,11,12.9,22.4,18,34.5c8.9,21.4,15.1,43.8,18.8,66.8
									c3.2,20.8,5.4,41.7,5.6,62.5c0.5,20.3,0,40.1-1.3,59.6c-0.3,4.8-0.8,9.6-1.1,14.7l-1.3,13.9c-0.8,9.3-1.9,18.4-3,27.8
									c-2.2,18.4-4.3,36.9-6.7,55.3c-2.4,18.4-5.1,36.9-8.1,55c-1.3,9.1-3,18.4-4.6,27.5c-1.6,9.1-3.2,18.2-5.1,27.8l-72.1-8
									c0-8.3,0.3-17.6,0.3-26.4s0-17.9-0.3-26.7c-0.3-17.9-0.8-35.8-1.3-53.7c-0.5-17.9-1.6-35.8-2.7-53.4
									c-0.5-8.8-1.1-17.9-1.9-26.7l-1.1-13.4c-0.3-4.3-0.8-8.5-1.1-12.8c-1.6-16.8-4-33.4-7-49.1c-3-15.2-6.7-30.2-11.8-44.9
									c-4.3-12.6-10-24.8-17.2-36.1c-4.8-8-11.8-15-19.6-20L642.9,569.7z"/>
								<path class="st1" d="M610,996l76.4,5.9"/>
								<path class="st1" d="M599.3,804.4l110.6-5.1"/>
								<path class="st1" d="M561.9,692l118.9-66"/>
								<path class="st1" d="M590.9,760.9L709,744.6"/>
								<path class="st1" d="M578.6,722.2l122.7-35.3"/>
								<path class="st1" d="M603.9,850.4l102.2,1.3"/>
								<path class="st1" d="M607.1,898.7l93.6,3.2"/>
								<path class="st1" d="M609.2,947.3l84.7,4.8"/>
								<path class="st2" d="M632.9,1136.4c0.8,9.1-15.1,24.8-11.8,35c1.3,4.5,6.2,12,19.4,8.8c0.8,1.3,1.6,2.4,3,3.2
									c1.9,1.6,4.3,2.4,6.7,2.4c8.3-0.5,15.9-4,21.5-10.1c3.8-0.8,7.5-2.1,10.8-4.3c16.9-10.4,23.1-35.3,23.1-54.8
									c-0.3-27.2-19.1-60.4-19.1-60.4s-72.4-30.7-74.8,0c-2.4,30.7,12.9,49.2,12.9,49.2S631.6,1122.6,632.9,1136.4z"/>
								<path class="st2" d="M615.2,1047.8c0,0-13.2,22.2-17.5,34.7c-4.3,12.6-22.1,44.9-8.3,49.7c13.7,4.8,23.4-1.9,29.1-14.2
									c5.6-12.3,29.1-11.8,31.5-18.4C652.3,1092.9,668.4,1037.9,615.2,1047.8z"/>
								<path class="st2" d="M681.9,1060.1h-70.2c-9.7,0-17.5-7.8-17.5-17.4s7.8-17.4,17.5-17.4h70.2c9.7,0,17.5,7.8,17.5,17.4
									S691.6,1060.1,681.9,1060.1z"/>
								<path class="st3" d="M640.4,1180.3c0.8,1.3,1.6,2.4,3,3.2c5.9-8.5,19.4-28.1,22.9-36.3c4.3-10.7-3.8-31-4.3-32.6
									c0.3,1.3,3.8,19.2,0,28.3C657.9,1151.9,640.4,1180.3,640.4,1180.3z"/>
								<path class="st3" d="M671.4,1175.7c3.8-0.8,7.5-2.1,10.8-4.3c4-8.8,8.9-20,10-26.4c1.3-10.2,0.3-20.6-2.4-30.4
									c0.3,1.3,3.5,15.8,0,26.4C685.9,1151.9,671.4,1175.7,671.4,1175.7z"/>
								<path class="st4" d="M412,1279.9c0,0,11.3,33.7,44.9,33.7c34.4,0.3,47.3-33.7,47.3-33.7s33.1-139.2,26.1-236.1
									c-2.7-39.8-24.2-84.9-67.3-84.9c-43,0-63.5,53.4-65.9,71.8C388.4,1098.5,412,1279.9,412,1279.9z"/>
								<path class="st5" d="M387.3,1395.3c-1.9-18.4,136.1-15.2,132.9,8c-3.2,23.2-55.4,24.3-75.3,24
									C420.6,1426.5,388.6,1407.8,387.3,1395.3z"/>
								<path class="st0" d="M576.7,1597.2l-8.3,14.7c0,0-35.8,0.8-76.7,0c-40.9-0.8-89.6-1.1-89.6-1.1l6.7-13.6
									c0,0,25.6-16.8,27.7-16.6C438.7,1580.9,576.7,1597.2,576.7,1597.2z"/>
								<path class="st4" d="M425,1564.3l58.9-7.2l20.4-277.5l-92,1.9c0,0-11.8,41.7-11.6,81.5C401,1416.1,425,1564.3,425,1564.3z"
									/>
								<path class="st2" d="M387.3,1395.3v0.5l2.2,19.8l19.4,181.6c-2.7,5.1,19.6,5.6,74.8,1.9c50.8-3.2,93.1-1.9,93.1-1.9
									l8.3-11.2c4-5.3,2.7-13.1-2.7-16.8c-0.3-0.3-0.5-0.5-0.8-0.5l-76.7-44.6l13.5-101.5l2.4-19l-0.3,0.3c-3,1.6-21,9.6-73.4,5.9
									l-5.1-0.5C422.8,1407.3,404.5,1402.8,387.3,1395.3z"/>
								<path class="st0" d="M513.5,1518.9c-5.9-4.5-11.3-9.4-29.6-1.9c-21.3,8.8-53,22.4-75.3,80.1c0,0,70.5-64.4,107.3-66.8
									C528,1529.9,515.9,1520.8,513.5,1518.9z"/>
								<path class="st0" d="M387.3,1395.3v0.5l2.2,19.8c19.6,9.6,41.2,15,63,16c36.3,1.3,59.2-3.2,65.4-9.3l2.4-19l-0.3,0.3
									c-3,1.6-21,9.6-73.4,5.9l-5.1-0.5C422.8,1407.3,404.5,1402.8,387.3,1395.3z"/>
								<path class="st4" d="M218.3,971.9h287v133.6h-287V971.9z"/>
								<path class="st0" d="M179.3,677c-8.1,5.1-14.8,12-19.6,20c-7.3,11.2-12.9,23.2-17.2,36.1c-5.1,14.7-8.9,29.6-11.8,44.9
									c-3.2,15.8-5.4,32.3-7,49.1c-0.5,4.3-0.8,8.5-1.1,12.8l-1.1,13.4c-0.8,8.8-1.1,17.6-1.9,26.7c-1.1,17.9-1.9,35.5-2.7,53.4
									c-0.8,17.9-1.1,35.8-1.3,53.7c0,9.1-0.3,17.9-0.3,26.7c0,8.8,0,17.9,0.3,26.5l-72.1,8c-1.9-9.6-3.5-18.7-5.1-27.8
									c-1.6-9.1-3.2-18.4-4.6-27.5c-3-18.4-5.6-36.6-8.1-55c-2.4-18.4-4.8-36.9-6.7-55.3c-1.1-9.3-2.2-18.4-3-27.8L14.7,841
									c-0.5-4.8-0.8-9.6-1.1-14.7c-1.3-19.5-1.9-39.3-1.3-59.6c0.5-20.8,2.4-41.9,5.6-62.5c3.5-23,10-45.4,18.8-66.8
									c5.1-12,11-23.5,18-34.5c7.5-12,16.4-23,26.4-33.1L179.3,677z"/>
								<path class="st1" d="M37.3,1001.8l76.4-5.9"/>
								<path class="st1" d="M13.9,799.4l110.6,5.1"/>
								<path class="st1" d="M42.7,626l119.2,66"/>
								<path class="st1" d="M14.7,744.6l118.1,16.3"/>
								<path class="st1" d="M22.2,686.9l122.9,35.3"/>
								<path class="st1" d="M17.6,851.7l102-1.3"/>
								<path class="st1" d="M23,901.9l93.6-3.2"/>
								<path class="st1" d="M29.8,952.1l84.7-4.8"/>
								<path class="st4" d="M311.7,1279.9c0,0-11.3,33.7-44.9,33.7c-34.4,0.3-47.3-33.7-47.3-33.7s-33.1-139.2-26.1-236.1
									c2.7-39.8,24.2-84.9,67.3-84.9s63.5,53.2,66.2,71.8C335.4,1098.5,311.7,1279.9,311.7,1279.9z"/>
								<path class="st5" d="M336.4,1395.3c1.9-18.4-136.1-15.2-132.9,8c3.2,23.2,55.4,24.3,75.3,24
									C303.1,1426.5,335.1,1407.8,336.4,1395.3z"/>
								<path class="st0" d="M147,1597.2l8.3,14.7c0,0,35.8,0.8,76.7,0c40.9-0.8,89.6-1.1,89.6-1.1l-6.7-13.6
									c0,0-25.6-16.8-27.7-16.6C285.1,1580.9,147,1597.2,147,1597.2z"/>
								<path class="st4" d="M298.8,1564.3l-58.9-7.2l-20.4-277.5l92,1.9c0,0,11.8,41.7,11.6,81.5
									C322.7,1416.1,298.8,1564.3,298.8,1564.3z"/>
								<path class="st2" d="M336.4,1395.3v0.5l-2.2,19.8l-19.4,181.6c2.7,5.1-19.6,5.6-74.8,1.9c-51.1-3.2-93.4-1.9-93.4-1.9
									l-8.1-11.2c-4-5.3-2.7-13.1,2.7-16.8c0.3-0.3,0.5-0.5,0.8-0.5l76.9-44.6l-13.5-101.5l-2.4-19l0.3,0.3c3,1.6,21,9.6,73.4,5.9
									l5.1-0.5C300.9,1407.3,319.2,1402.8,336.4,1395.3z"/>
								<path class="st0" d="M210,1518.9c5.9-4.5,11.3-9.4,29.6-1.9c21.3,8.8,53,22.4,75.3,80.1c0,0-70.5-64.4-107.3-66.8
									C195.7,1529.9,207.8,1520.8,210,1518.9z"/>
								<path class="st0" d="M336.4,1395.3v0.5l-2.2,19.8c-19.6,9.6-41.2,15-63,16c-36.3,1.3-59.2-3.2-65.4-9.3l-2.4-19l0.3,0.3
									c3,1.6,21,9.6,73.4,5.9l5.1-0.5C300.9,1407.3,319.2,1402.8,336.4,1395.3z"/>
								<path class="st2" d="M362,905.4c-89.9,0-162.5,11.8-162.5,26.4h16.7c0-13.1,65.4-23.5,145.8-23.5
									c80.4,0,145.8,10.7,145.8,23.5h16.7C524.5,917.2,451.6,905.4,362,905.4z"/>
								<path class="st4" d="M501.6,969.8c-49.5,98.8-230,98.8-279.2,0c0-96.2-141.8-256.4-141.8-407.9
									C130.4,512.5,246.3,435,362,435c115.7,0,231.6,77.5,281.4,126.9C643.4,716.3,501.6,873.6,501.6,969.8z"/>
								<path class="st6" d="M80.3,561.9c0,86,154.2,202.7,189.4,287.7c35.2,84.9,25.6,152.5,25.6,152.5"/>
								<path class="st6" d="M643.4,561.9c0,86-154.2,202.7-189.4,287.7c-35.2,84.9-25.6,152.5-25.6,152.5"/>
								<path class="st2" d="M524.5,931.8v54c0,14.7-72.9,26.4-162.5,26.4c-89.6,0-162.5-12-162.5-26.4v-54
									c0,14.7,72.9,26.4,162.5,26.4C451.6,958.3,524.5,946.5,524.5,931.8z"/>
								<path class="st2" d="M362,955.4c-80.7,0-145.8-10.7-145.8-23.5h-16.7c0,14.7,72.9,26.4,162.5,26.4
									c89.6,0,162.5-11.8,162.5-26.4h-16.7C507.8,944.9,442.4,955.4,362,955.4z"/>
								<path class="st2" d="M80.3,561.9c0,0-36.9-12.3-50.3,21.4c-13.5,33.7,34.4,137.3,108.7,177.9c0,0-14.5-30.4-28-63
									C93.2,654.6,82.8,608.7,80.3,561.9z"/>
								<path class="st2" d="M643.7,561.9c0,0,36.9-12.3,50.3,21.4c13.5,33.7-34.4,137.3-108.7,177.9c0,0,14.5-30.4,28-63
									C631,654.6,641.2,608.7,643.7,561.9z"/>
								<path class="st2" d="M596.6,505.8c0,0-24.8,60.1-106.8,105c-82.1,44.9-128.1,49.7-128.1,49.7s-46-4.8-128.1-49.7
									c-82.1-44.9-106.8-105-106.8-105L80.3,547c0,0,24.2,53.2,87.2,87.3s124.3,52.1,194.2,59c69.9-7.2,131.3-24.8,194.2-59
									c63-34.2,87.2-87.3,87.2-87.3L596.6,505.8z"/>
								<path class="st0" d="M355.8,777.7l-38.5-49.1c-2.2-2.7-2.2-6.7,0-9.3l38.2-49.4c2.7-3.5,7.5-4,10.8-1.3
									c0.5,0.5,1.1,0.8,1.3,1.3l38.2,49.1c2.2,2.7,2.2,6.7,0,9.3l-38.2,49.1c-2.7,3.5-7.5,4-10.8,1.3
									C356.6,778.8,356.1,778.3,355.8,777.7z"/>
								<path class="st2" d="M337.5,723.8l24.2-31.3l24.5,31.3L361.7,755L337.5,723.8z"/>
								<path class="st0" d="M414.2,986.9c0,28.6-23.4,51.8-52.2,51.8c-28.8,0-52.2-23.2-52.2-51.8c0-28.6,23.4-51.8,52.2-51.8
									C390.8,935.1,414.2,958.3,414.2,986.9z"/>
								<path class="st2" d="M362,1021.1l-26.9-34.2l26.9-34.2l26.4,34.2L362,1021.1z"/>
								<path class="st7" d="M530.1,259.3C503,224,406.9,181.6,362,181.6c-44.9,0-141,42.5-168.1,77.7
									c-43,55.8,20.7,151.2,20.7,212.6c8.1,31,80.4,68.4,141.2,68.4s143.1-38.5,153.9-68.4C509.4,406.7,572.9,315.1,530.1,259.3z"
									/>
								<path class="st8" d="M530.1,259.3C503,224,406.9,181.6,362,181.6c-44.9,0-141,42.5-168.1,77.7
									c-43,55.8,20.7,151.2,20.7,212.6c8.1,31,80.4,68.4,141.2,68.4s143.1-38.5,153.9-68.4C509.4,406.7,572.9,315.1,530.1,259.3z"
									/>
								<path class="st9" d="M234.2,247.5c0,0-35.2,16.6-37.1,49.1c-1.9,32.6,12.6,66.8,12.6,66.8l14.8-4.5c0,0-14.3-50.2-10-66
									c5.4-18.7,18-30.7,32.3-39L234.2,247.5z"/>
								<path class="st9" d="M273,239.3l-13.2,7.5l-13.2-8l13.2-7.5L273,239.3z"/>
								<path class="st10" d="M204.9,469.8c8.6,32.9,85.6,72.7,150.1,72.7s152.3-41.1,163.8-72.7"/>
								<path class="st2" d="M90.8,1136.4c-0.8,9.1,15.1,24.8,11.8,35c-1.3,4.5-6.2,12-19.4,8.8c-0.8,1.3-1.6,2.4-3,3.2
									c-1.9,1.6-4.3,2.4-6.7,2.4c-8.3-0.5-15.9-4-21.5-10.1c-3.8-0.8-7.5-2.1-10.8-4.3c-16.9-10.4-23.1-35.3-23.1-54.8
									c0.3-27.2,19.1-60.4,19.1-60.4s72.4-30.7,74.8,0c2.4,30.7-12.9,49.2-12.9,49.2S91.9,1122.6,90.8,1136.4z"/>
								<path class="st2" d="M108.6,1047.8c0,0,13.2,22.2,17.5,34.7c4.3,12.6,22.1,44.9,8.3,49.7c-13.7,4.8-23.4-1.9-29.1-14.2
									c-5.6-12.3-29.1-11.8-31.5-18.4C71.5,1092.9,55.3,1037.9,108.6,1047.8z"/>
								<path class="st2" d="M41.9,1025.3h70.2c9.7,0,17.5,7.8,17.5,17.4s-7.8,17.4-17.5,17.4H41.9c-9.7,0-17.5-7.8-17.5-17.4
									C24.1,1033.1,32.2,1025.3,41.9,1025.3z"/>
								<path class="st3" d="M83.3,1180.3c-0.8,1.3-1.6,2.4-3,3.2c-5.9-8.5-19.4-28.1-22.9-36.3c-4.3-10.7,3.5-31,4.3-32.6
									c-0.3,1.3-3.8,19.2,0,28.3C65.8,1151.9,83.3,1180.3,83.3,1180.3z"/>
								<path class="st3" d="M52.4,1175.7c-3.8-0.8-7.5-2.1-10.8-4.3c-4-8.8-8.9-20-10-26.4c-1.3-10.2-0.3-20.6,2.4-30.4
									c-0.3,1.3-3.5,15.8,0,26.4C37.8,1151.9,52.4,1175.7,52.4,1175.7z"/>
								<path class="st11" d="M462.6,473c-28,24.3-63.5,38.2-100.9,38.7c-37.1-0.5-72.9-14.4-100.9-38.7
									c-14.5-13.1-15.9-33.7-6.7-51c7-12.8,16.4-37.4,14.5-56.9c-0.5-4.8-0.5-9.9-0.3-15c3.2-51,47.6-90,99.3-86.8
									c49.2,3.2,87.4,43.5,87.4,92.7c0,2.7,0,5.3-0.3,8c-1.6,19.8,7.5,44.6,14.3,57.7C478.5,439,477.1,459.9,462.6,473z"/>
								<path class="st11" d="M275.6,405.9l-41.7-13.6l2.4-11.8l43.9,5.1L275.6,405.9z"/>
								<path class="st11" d="M228.4,369.4c2,0.4,2.2,7.6,0.3,15.9c-1.9,8.4-5,14.8-7.1,14.3c-2-0.4-2.2-7.6-0.3-15.9
									C223.2,375.3,226.3,368.9,228.4,369.4z"/>
								<path class="st11" d="M222.6,399.2l11.3-6.9c2.4-3.5,3.5-7.5,2.7-11.8l-7.3-11L222.6,399.2z"/>
								<path class="st11" d="M448.1,405.9l41.7-13.6l-2.4-11.8l-43.9,5.1L448.1,405.9z"/>
								<path class="st11" d="M502.3,383.5c1.9,8.4,1.7,15.5-0.3,15.9c-2,0.4-5.2-6-7.1-14.3c-1.9-8.4-1.7-15.5,0.3-15.9
									C497.3,368.7,500.5,375.1,502.3,383.5z"/>
								<path class="st11" d="M501.1,399.2l-11.3-6.9c-2.4-3.5-3.5-7.5-2.7-11.8l7.3-11L501.1,399.2z"/>
								<g>
									<defs>
										<path id="SVGID_1_" d="M288,386.7c0,0,23.7-19.2,42.8,1.1c11.3,11.7,16.1,28,13.5,44.1c0,0-24.5,11.7-47.1-10.2
											C282.1,407.3,288,386.7,288,386.7z"/>
									</defs>
									<clipPath id="SVGID_00000083069443359438167150000014829348333552254120_">
										<use xlink:href="#SVGID_1_"  style="overflow:visible;"/>
									</clipPath>
									<g style="clip-path:url(#SVGID_00000083069443359438167150000014829348333552254120_);">
										<path class="st9" d="M283.4,375.2h64.8v63.3h-64.8V375.2z"/>
										<path class="st13" d="M351.2,401.7c0,12.8-10.5,23.2-23.4,23.2c-12.9,0-23.4-10.4-23.4-23.2c0-12.8,10.5-23.2,23.4-23.2
											C340.8,378.4,351.2,388.8,351.2,401.7z"/>
										<path d="M338.6,401.7c0,5.9-4.8,10.7-10.8,10.7s-10.8-4.8-10.8-10.7c0-5.9,4.8-10.7,10.8-10.7S338.6,395.8,338.6,401.7z"
											/>
										<path class="st14" d="M348.3,431c0,0-3.2-33.1-20.4-43.5c-17.2-10.4-29.3-2.1-40.6,2.7c-11.8,4.8,18.3-23.8,18.3-23.8
											l47.6,15.2L348.3,431z"/>
									</g>
								</g>
								<g>
									<defs>
										<path id="SVGID_00000179627116918103322170000004368005742251783337_" d="M439.5,386.7c0,0-23.7-19.2-42.8,1.1
											c-11.3,11.7-16.1,28-13.5,44.1c0,0,24.5,11.7,47.1-10.2C445.1,407.3,439.5,386.7,439.5,386.7z"/>
									</defs>
									<clipPath id="SVGID_00000038383659122988496370000000195720653128630195_">
										<use xlink:href="#SVGID_00000179627116918103322170000004368005742251783337_"  style="overflow:visible;"/>
									</clipPath>
									<g style="clip-path:url(#SVGID_00000038383659122988496370000000195720653128630195_);">
										<path class="st9" d="M378.9,375.2h64.8v63.3h-64.8V375.2z"/>
										<path class="st13" d="M442.7,401.7c0,12.8-10.5,23.2-23.4,23.2c-12.9,0-23.4-10.4-23.4-23.2c0-12.8,10.5-23.2,23.4-23.2
											C432.2,378.4,442.7,388.8,442.7,401.7z"/>
										<path d="M430.1,401.7c0,5.9-4.8,10.7-10.8,10.7s-10.8-4.8-10.8-10.7c0-5.9,4.8-10.7,10.8-10.7S430.1,395.8,430.1,401.7z"
											/>
										<path class="st14" d="M378.9,431c0,0,3.2-33.1,20.4-43.5c17.2-10.4,29.3-2.1,40.6,2.7c11.8,4.8-18.3-23.8-18.3-23.8
											l-47.6,15.2L378.9,431z"/>
									</g>
								</g>
								<path class="st2" d="M395.9,455.1c0.3,2.4,1.1,4.8,2.2,6.9c0.8,2.1,1.9,4.3,3.2,6.4v0.3c1.3,5.3-1.6,10.7-6.5,12.8
									c-1.1,0.5-1.9,0.5-2.7,1.1c-1.6,0.5-3.5,1.1-5.4,1.6c-14.3,4-29.3,4-43.6,0c-1.9-0.5-3.5-1.1-5.4-1.6
									c-0.8-0.3-1.6-0.5-2.7-1.1c-5.1-2.1-7.8-7.5-6.5-12.8v-0.3c1.1-2.1,2.2-4.3,3.2-6.4c1.1-2.1,1.6-4.5,2.2-6.9
									c0.3,2.4,0,5.1-0.5,7.5c-0.5,2.4-1.3,4.8-2.2,7.2v-0.3c-0.3,2.9,1.1,5.9,3.5,7.7c1.3,0.8,2.7,1.3,4.3,1.6
									c1.6,0.3,3.5,0.8,5.1,1.1c6.7,1.3,13.7,2.1,20.7,2.1c7,0,14-0.8,20.7-2.1c1.6-0.3,3.5-0.8,5.1-1.1c1.6-0.3,3-0.8,4.3-1.6
									c2.4-1.6,3.8-4.8,3.5-7.7v0.3c-0.8-2.4-1.6-4.8-2.2-7.2C395.4,459.9,395.4,457.5,395.9,455.1z"/>
								<path class="st2" d="M339.1,454.5c-2.2,1.1-4,1.6-5.9,2.1c-1.1,0.3-1.9,0.8-2.7,1.1c-0.8,0.3-1.6,1.1-2.7,1.9
									c0-1.3,0.5-2.4,1.3-3.2c0.8-0.8,1.9-1.6,3-2.1c1.1-0.5,2.4-0.5,3.5-0.5C337,453.7,338.3,454,339.1,454.5z"/>
								<path class="st2" d="M390.5,454.5c1.1-0.5,2.2-0.8,3.5-0.8c1.1,0,2.4,0.3,3.5,0.5c1.1,0.5,2.2,1.1,3,2.1
									c0.8,0.8,1.3,2.1,1.3,3.2c-1.1-0.8-1.9-1.3-2.7-1.9c-0.8-0.5-1.6-0.8-2.7-1.1C394.6,456.1,392.7,455.6,390.5,454.5z"/>
								<path class="st2" d="M281,363.2c4.8-2.7,9.7-5.1,14.8-7.2c2.4-1.1,5.1-1.9,7.5-2.7c2.7-0.8,5.4-1.6,8.1-2.1
									c5.6-1.1,11.6-1.6,17.5-1.1c3,0.3,5.9,0.8,8.6,1.3c1.3,0.3,3,0.5,4.3,1.1c0.8,0.3,1.3,0.5,2.2,0.5c0.8,0-6.5,15-7.5,14.7
									s-2.2-0.8-3.2-1.1c-2.2-0.8-4.3-1.3-6.5-1.6c-4.3-0.8-8.9-1.1-13.2-0.5c-2.4,0.3-4.6,0.8-7,1.3c-2.4,0.5-4.8,1.1-7,1.9
									c-4.6,1.3-9.1,2.9-13.7,5.1L281,363.2z"/>
								<path class="st2" d="M444.6,369.1c-4.8,2.7-9.7,5.1-14.8,6.9c-2.4,1.1-5.1,1.9-7.5,2.7c-2.7,0.8-5.4,1.6-8.1,2.1
									c-5.6,1.1-11.6,1.3-17.5,0.8c-3-0.3-5.9-0.8-8.6-1.3c-1.3-0.3-2.7-0.8-4.3-1.1l-2.2-0.8c-0.8-0.3,6.7-15,7.5-14.7
									c0.8,0.3,2.2,0.8,3.2,1.1c2.2,0.8,4.3,1.3,6.5,1.6c4.3,0.8,8.9,1.1,13.2,0.8c2.2-0.3,4.6-0.5,7-1.1c2.4-0.5,4.8-1.1,7-1.9
									c4.6-1.3,9.1-2.9,13.7-4.8L444.6,369.1z"/>
								<path class="st16" d="M355.3,260.1c0,0,6.5-23.8,37.7-34.7c31.2-11,49-1.6,57,5.3c8.1,6.9,9.4,16.8,2.4,23.8
									c-7.3,6.9-24.2-3.2-41.4-2.9c-21.8,0.3-22.6,5.6-32,11.2C370.9,267.3,352.3,268.1,355.3,260.1z"/>
								<path class="st16" d="M317.6,296.1c0,0-26.9,8.8-41.2,21.6c-11,9.9-26.9,14.2-40.6,4.5c-13.7-9.6-20.7-52.9,50-55.8
									s77.7,0,77.7,0v24.3C348,290.5,332.7,292.4,317.6,296.1z"/>
								<path class="st16" d="M374.6,271.8c-3.5-10.7-14.3-27.5-55.4-32.9c-41.2-5.3-71.6,9.6-57.3,30.4
									c14.3,20.8,31.5,3.2,38.2,2.4c6.7-0.8,41.2-2.7,54.9,9.3C368.7,293.2,377.3,279.9,374.6,271.8z"/>
								<path class="st16" d="M359.8,272.4c0,0-31.7-1.3-45.2,33.1c-13.5,34.5-5.4,56.4,8.3,57.7c13.7,1.3,28.8-11.2,31.5-35.3
									c2.7-24,15.1-38.5,29.1-41.9S380.3,267.3,359.8,272.4z"/>
								<path class="st16" d="M365,265.7c0,0,16.4-23.8,88.5-10.7c66.4,12.3,54.9,52.1,47.9,60.4c-7,8.3-30.9,9.1-45.5-16.6
									c-14.5-25.6-86.1-22.4-86.1-22.4L365,265.7z"/>
								<path class="st16" d="M374.6,271.8c0,0,28.8-6.1,51.9,5.3c19.9,9.6,33.6,28.8,36.3,50.7c2.2,18.4-24.2,34.7-42,29.9
									c-17.8-4.8-21.8-21.6-22.9-37.1c-1.1-15.5-11-34.7-26.4-34.7C356.4,286,359.6,279.3,374.6,271.8z"/>
							</g>
						</g>
					</g>
				</g>
			</g>
		</g>
	</g>
</g>
</svg>
