<?xml version="1.0" encoding="utf-8"?>
<!-- Generator: Adobe Illustrator 25.2.0, SVG Export Plug-In . SVG Version: 6.00 Build 0)  -->
<svg version="1.1" id="Layer_1" xmlns="http://www.w3.org/2000/svg" xmlns:xlink="http://www.w3.org/1999/xlink" x="0px" y="0px"
	 viewBox="0 0 334.6 538.5" style="enable-background:new 0 0 334.6 538.5;" xml:space="preserve">
<style type="text/css">
	.st0{fill:#5FB0AA;}
	.st1{fill:none;stroke:#4A8F91;stroke-width:4.07;stroke-miterlimit:10;}
	.st2{fill:#DAE78D;}
	.st3{fill:#59104A;}
	.st4{fill:#77185E;}
	.st5{opacity:0.2;fill:#9AE0E2;enable-background:new    ;}
	.st6{fill:none;stroke:#9AE0E2;stroke-width:3;stroke-miterlimit:10;}
	.st7{fill:#FFFFFF;}
	.st8{fill:#541146;}
	.st9{fill:none;stroke:#C7DB52;stroke-width:2;stroke-linecap:round;stroke-miterlimit:10;}
	.st10{fill:none;stroke:#5FB0AA;stroke-width:8.51;stroke-linecap:round;stroke-miterlimit:10;}
	.st11{clip-path:url(#SVGID_2_);}
	.st12{fill:#B34582;}
	.st13{fill:#E95BA6;}
	.st14{clip-path:url(#SVGID_4_);}
	.st15{fill:#5F1B75;}
	.st16{fill:#470B35;}
	.st17{clip-path:url(#SVGID_6_);}
	.st18{fill:#F7E731;}
</style>
<g id="l-arm">
	<path class="st0" d="M160,165.9c-0.8,0.2-1.6,0.6-2.1,1.2c-1.2,1.2-2.1,2.6-2.9,4.1c-2,3.8-3.8,9.5-5.5,15.8
		c-3.4,12.7-6.3,28-12.8,43.5l-0.6,1.5l-0.7,1.6c-0.5,1.1-1,2.2-1.6,3.3c-3.4,6.7-8,12.7-13.5,17.8c-3.6,3.3-7.5,6.1-11.6,8.5
		c-4,2.3-8.1,4.2-12.4,5.7c-8,2.7-16.3,4.4-24.7,4.9c-4,0.3-8,0.3-12,0.2c-2-0.1-4-0.2-6-0.4c-1-0.1-2-0.2-3-0.3l-1.6-0.2l-1.8-0.2
		L50,246l0,0h0.8h1.1l2.2-0.1c1.5-0.1,3-0.3,4.5-0.4c3-0.4,5.9-0.9,8.9-1.6c5.5-1.2,10.8-3.2,15.7-5.8c4.1-2.2,7.7-5.2,10.6-8.9
		c0.6-0.8,1.2-1.7,1.7-2.6c0.5-0.9,0.9-1.8,1.3-2.7s0.7-1.9,1-2.9c0.1-0.5,0.3-1,0.4-1.5l0.5-1.9c1.3-5.9,2.2-11.8,2.6-17.8
		c0.6-6.4,1-13.2,1.7-20.7c0.6-8.5,2.1-16.8,4.3-25c1.5-5.1,3.5-10.1,6.1-14.8c3-5.5,6.9-10.4,11.4-14.7L160,165.9z"/>
	<line class="st1" x1="64.6" y1="245.1" x2="67.4" y2="273.4"/>
	<line class="st1" x1="100.3" y1="209.9" x2="140.2" y2="220"/>
	<line class="st1" x1="109.1" y1="149.4" x2="155.6" y2="169.4"/>
	<line class="st1" x1="102.1" y1="192.7" x2="145.9" y2="199.9"/>
	<line class="st1" x1="103.8" y1="173" x2="150.5" y2="182.1"/>
	<line class="st1" x1="97.3" y1="223.5" x2="130.4" y2="242"/>
	<line class="st1" x1="90.9" y1="232.9" x2="111.8" y2="260.8"/>
	<line class="st1" x1="79.6" y1="240.4" x2="89.5" y2="270.4"/>
</g>
<path id="hips" class="st2" d="M257.7,347.4c-11.2,16.2-40.1,4.6-53.4,3.3c-3.6-0.4-8.7-0.7-14.5-1.1C168,348.1,151,330,151,308.1
	v-10.7h106.7C257.7,297.4,268.2,332.2,257.7,347.4z"/>
<path id="l-thigh" class="st2" d="M193.8,408.8c0,0-4.2,12.5-16.8,12.6c-12.8,0.1-17.6-12.6-17.6-12.6s-12.3-52.1-9.7-88.4
	c1-14.9,9-31.8,25-31.8s23.6,19.9,24.6,26.9C202.6,340.8,193.8,408.8,193.8,408.8z"/>
<g id="l-calf">
	<path class="st3" d="M202.9,451.9c0.7-6.9-50.6-5.7-49.4,3s20.6,9.1,28,9C190.5,463.6,202.4,456.7,202.9,451.9z"/>
	<path class="st0" d="M132.6,527.6l3.1,5.5c0,0,13.3,0.3,28.5,0s33.3-0.4,33.3-0.4l-2.5-5.1c0,0-9.5-6.3-10.3-6.2
		S132.6,527.6,132.6,527.6z"/>
	<path class="st2" d="M189,515.3l-21.9-2.7l-7.7-103.8l34.2,0.7c0,0,4.4,15.6,4.3,30.5C197.9,459.8,189,515.3,189,515.3z"/>
	<path class="st4" d="M202.9,451.9v0.2l0,0l-0.8,7.4l-7.2,68c1,1.9-7.3,2.1-27.8,0.7c-19-1.2-34.6-0.7-34.6-0.7l-3.1-4.3
		c-1.5-2-1-4.9,1-6.3c0.1-0.1,0.2-0.2,0.3-0.2l28.6-16.7l-5-38l-0.9-7.1l0,0l0.1,0.1c1.1,0.6,7.8,3.6,27.3,2.2l1.9-0.2
		C189.8,456.4,196.6,454.7,202.9,451.9z"/>
	<path class="st0" d="M156,498.3c2.2-1.7,4.2-3.5,10.9-0.7c7.9,3.3,19.7,8.4,28,30c0,0-26.2-24.1-39.9-25
		C150.6,502.3,155.2,498.9,156,498.3z"/>
	<path class="st0" d="M202.9,451.9v0.2l0,0l-0.8,7.4c-7.3,3.6-15.3,5.6-23.4,6c-13.5,0.5-22-1.2-24.3-3.5l-0.9-7.1l0,0l0.1,0.1
		c1.1,0.6,7.8,3.6,27.3,2.2l1.9-0.2C189.8,456.4,196.6,454.7,202.9,451.9z"/>
</g>
<path id="r-thigh" class="st2" d="M252.9,412.7c0,0-4.2,12.6-16.7,12.6c-12.8,0.1-17.6-12.6-17.6-12.6s-12.3-52.1-9.7-88.4
	c1-14.9,9-31.8,25-31.8s23.7,19.9,24.6,26.9C261.7,344.7,252.9,412.7,252.9,412.7z"/>
<g id="r-calf">
	<path class="st3" d="M262.1,455.8c0.7-6.9-50.6-5.7-49.4,3s20.6,9.1,28,9C249.7,467.6,261.6,460.6,262.1,455.8z"/>
	<path class="st0" d="M197.5,532.7l2.5,4.3c0,0,8.3,1.8,23.6,1.4s30.1-1.9,30.1-1.9l0.5-5.1c0,0-9.5-6.3-10.3-6.2
		S197.5,532.7,197.5,532.7z"/>
	<path class="st2" d="M248.1,519.2l-21.9-2.7l-7.6-103.8l34.2,0.7c0,0,4.4,15.6,4.3,30.5C257,463.7,248.1,519.2,248.1,519.2z"/>
	<path class="st4" d="M262.1,455.8v0.2l0,0l-0.8,7.4l-7.2,68c1,1.9-7,0.6-14.5,1.8c-16.7,2.5-42.1-0.6-42.1-0.6l-2.5-7
		c-1.6-2.2,11.4-5.1,13.8-6.4l9.9-15.3l-5-38l-0.9-7.1l0,0l0.1,0.1c1.1,0.6,7.8,3.6,27.3,2.2l1.9-0.2
		C248.9,460.4,255.7,458.6,262.1,455.8z"/>
	<path class="st0" d="M215.2,502.2c2.2-1.7,3.8-1.6,11-0.7c14.3,1.8,28,10.4,28,30c0,0-9.4-22.1-37.8-24
		C211.9,507.2,214.3,502.9,215.2,502.2z"/>
	<path class="st0" d="M262.1,455.8v0.2l0,0l-0.8,7.4c-7.3,3.6-15.3,5.6-23.4,6c-13.5,0.5-22-1.2-24.3-3.5l-0.9-7.1l0,0l0.1,0.1
		c1.1,0.6,7.8,3.6,27.3,2.2l1.9-0.2C248.9,460.4,255.7,458.6,262.1,455.8z"/>
</g>
<g id="torso">
	<path class="st5" d="M266.3,30.6c-10.1-13.2-45.8-29.1-62.5-29.1s-52.4,15.9-62.5,29.1c-16,20.9,7.7,56.6,7.7,79.6
		c3,11.6,29.9,25.6,52.5,25.6s53.2-14.4,57.2-25.6C258.6,85.8,282.2,51.5,266.3,30.6z"/>
	<path class="st6" d="M266.3,30.6c-10.1-13.2-45.8-29.1-62.5-29.1s-52.4,15.9-62.5,29.1c-16,20.9,7.7,56.6,7.7,79.6
		c3,11.6,29.9,25.6,52.5,25.6s53.2-14.4,57.2-25.6C258.6,85.8,282.2,51.5,266.3,30.6z"/>
	<path class="st7" d="M156.3,26.2c0,0-13.1,6.2-13.8,18.4s4.6,25,4.6,25l5.5-1.7c0,0-5.3-18.8-3.6-24.7c2-7,6.7-11.5,12-14.6
		L156.3,26.2z"/>
	<polygon class="st7" points="170.7,23.1 165.8,25.9 160.9,22.8 165.8,20 	"/>
	<path class="st4" d="M204.3,274.9c-33-1.3-59.8,2-59.8,7.5l6.1,0.2c0-4.9,24-7.9,53.7-6.7s53.7,6.1,53.7,11l6.1,0.2
		C264.1,281.7,237.3,276.2,204.3,274.9z"/>
	<path class="st8" d="M100.8,162.2c7.2,19.6,24.8,37,37.5,38.7s20.5-13.7,17.4-34.4s-20.6-38.4-32.8-42.4
		C102.9,117.5,92.8,140.4,100.8,162.2z"/>
	<path class="st2" d="M256.9,296.6c-18.4,37-85.5,37-103.8,0c0-36-50.3-87.1-32.3-168.5c21.9-18.7,41.2-31.7,84.2-31.7
		s86.1,29,104.6,47.5C309.7,201.6,256.9,260.6,256.9,296.6z"/>
	<path class="st9" d="M120.8,128.1c-10.6,55,14.8,90.7,27.9,122.5s14.3,58,14.3,58"/>
	<path class="st9" d="M295.5,140c-41.1,30-73.7,74-85.1,108.5c-10.9,32.7-7.7,60.2-7.7,60.2"/>
	<path class="st10" d="M145.4,109.3c3.2,12.3,26.6,27.2,55.8,27.2c38.1,0,56.6-15.3,60.9-27.2"/>
	<path class="st4" d="M287.6,122.9c-16.8,5.2-37.5,20.7-80.7,47.2c-19.8,12.1-31.3,10.6-31.3,10.6s-11.8-6.2-25-20.2
		c-23.4-25.1-15.6-45.4-15.6-45.4L115.1,127c0,0-10.2,17.9,8.9,36.6s40.2,28,51.6,29.5c14.4,4.9,43.3-8.2,66.7-21
		s50.1-32.2,65.1-33.4C302.5,134.3,292,126,287.6,122.9z"/>
	<path class="st0" d="M173.6,220l-12.4-18.4c-0.7-1.1-0.7-2.5,0-3.5l12.4-18.4c0.6-1.1,2.1-1.5,3.2-0.8c0.3,0.2,0.6,0.5,0.8,0.8
		L190,198c0.7,1.1,0.7,2.5,0,3.5L177.6,220c-0.7,1.1-2.1,1.5-3.2,0.8C174.1,220.6,173.8,220.3,173.6,220z"/>
	<polygon class="st4" points="167.8,199.8 175.6,188.1 183.5,199.8 175.6,211.5 	"/>
	<path class="st4" d="M264.1,287.2v20.2c0,5.5-26.8,8.8-59.8,7.5s-59.8-6.9-59.8-12.4v-20.2c0,5.5,26.8,11,59.8,12.3
		S264.1,292.7,264.1,287.2z"/>
	<path class="st4" d="M204.3,293.6c-29.6-1.2-53.7-6.1-53.7-11l-6.1-0.2c0,5.5,26.8,11,59.8,12.3s59.8-2,59.8-7.5L258,287
		C258,291.8,234,294.8,204.3,293.6z"/>
	<ellipse class="st0" cx="175.6" cy="302.9" rx="14.7" ry="19.4"/>
	<polygon class="st4" points="175.6,315.7 168.2,302.9 175.6,290.1 183.1,302.9 	"/>
	<path class="st4" d="M319.3,184.5c-9.7,18.5-29.4,33.4-42.2,33.4s-18.5-16.3-12.7-36.4s25.5-35.4,38.1-37.8
		C323,140,330,164,319.3,184.5z"/>
	<path class="st8" d="M304.5,197c-8.1,11.7-17.9,21-26.7,19.2s-10.4-14.9-3.3-29.3s20-24.6,28.8-22.8
		C316.8,166.9,310.9,187.8,304.5,197z"/>
</g>
<g id="r-arm">
	<g>
		<g>
			<defs>
				<path id="SVGID_1_" d="M310.8,170.9c-0.3-0.9-0.6-1.7-1.1-2.5l0,0l0,0c-1.4-2.2-3.7-3.8-6.3-4.2c-8.9-1.8-21.8,8.4-28.8,22.8
					c-3,6.2-4.5,12.1-4.5,17l0,0l-16.6,153.9c50.8,93.1,81.2-17.8,81.2-40.5C334.6,223.5,310.8,170.9,310.8,170.9z"/>
			</defs>
			<clipPath id="SVGID_2_">
				<use xlink:href="#SVGID_1_"  style="overflow:visible;"/>
			</clipPath>
			<g class="st11">
				<path class="st0" d="M294.8,146.8c3.7,3.8,7,7.9,9.8,12.4c2.6,4.1,4.8,8.4,6.7,12.9c3.3,8,5.6,16.4,7,25
					c1.2,7.8,1.9,15.6,2.1,23.4c0.2,7.6,0,15-0.5,22.3c-0.1,1.8-0.3,3.6-0.4,5.5l-0.5,5.2c-0.3,3.5-0.7,6.9-1.1,10.4
					c-0.8,6.9-1.6,13.8-2.5,20.7s-1.9,13.8-3,20.6c-0.5,3.4-1.1,6.9-1.7,10.3c-0.6,3.5-1.2,6.8-1.9,10.4l-26.8-3
					c0-3.1,0.1-6.6,0.1-9.9s0-6.7-0.1-10c-0.1-6.7-0.3-13.4-0.5-20.1s-0.6-13.4-1-20c-0.2-3.3-0.4-6.7-0.7-10l-0.4-5
					c-0.1-1.6-0.3-3.2-0.4-4.7c-0.6-6.3-1.5-12.5-2.6-18.4c-1.1-5.7-2.5-11.3-4.4-16.8c-1.6-4.7-3.7-9.3-6.4-13.5
					c-1.8-3-4.4-5.6-7.3-7.5L294.8,146.8z"/>
				<line class="st1" x1="282.6" y1="306.4" x2="311" y2="308.6"/>
				<line class="st1" x1="278.6" y1="234.6" x2="319.7" y2="232.8"/>
				<line class="st1" x1="264.7" y1="192.5" x2="308.9" y2="167.9"/>
				<line class="st1" x1="275.5" y1="218.4" x2="319.4" y2="212.3"/>
				<line class="st1" x1="270.9" y1="203.9" x2="316.5" y2="190.7"/>
				<line class="st1" x1="280.3" y1="251.9" x2="318.3" y2="252.4"/>
				<line class="st1" x1="281.5" y1="270" x2="316.3" y2="271.2"/>
				<line class="st1" x1="282.3" y1="288.2" x2="313.8" y2="289.9"/>
			</g>
		</g>
	</g>
</g>
<g id="r-hand">
	<path class="st4" d="M291.1,359c0.3,3.4-5.6,9.3-4.4,13.1c0.5,1.7,2.3,4.5,7.2,3.3c0.3,0.5,0.6,0.9,1.1,1.2
		c0.7,0.6,1.6,0.9,2.5,0.9c3.1-0.2,5.9-1.5,8-3.8c1.4-0.3,2.8-0.8,4-1.6c6.3-3.9,8.6-13.2,8.6-20.5C318,341.4,311,329,311,329
		s-26.9-11.5-27.8,0s4.8,18.4,4.8,18.4S290.6,353.8,291.1,359z"/>
	<path class="st4" d="M284.5,325.7c0,0-4.9,8.3-6.5,13s-8.2,16.8-3.1,18.6s8.7-0.7,10.8-5.3s10.8-4.4,11.7-6.9
		S304.3,322,284.5,325.7z"/>
	<path class="st4" d="M309.3,330.4h-26.1c-3.6,0-6.5-2.9-6.5-6.5l0,0c0-3.6,2.9-6.5,6.5-6.5h26.1c3.6,0,6.5,2.9,6.5,6.5l0,0
		C315.8,327.5,312.9,330.4,309.3,330.4z"/>
	<path class="st8" d="M293.9,375.3c0.3,0.5,0.6,0.9,1.1,1.2c2.2-3.2,7.2-10.5,8.5-13.6c1.6-4-1.4-11.6-1.6-12.2
		c0.1,0.5,1.4,7.2,0,10.6C300.4,364.8,293.9,375.3,293.9,375.3z"/>
	<path class="st8" d="M305.4,373.6c1.4-0.3,2.8-0.8,4-1.6c1.5-3.3,3.3-7.5,3.7-9.9c0.5-3.8,0.1-7.7-0.9-11.4c0.1,0.5,1.3,5.9,0,9.9
		C310.8,364.8,305.4,373.6,305.4,373.6z"/>
</g>
<g id="l-hand">
	<path class="st4" d="M7.7,277.1c-2.1-0.1-3.9-1.6-4.4-3.6c-0.2-0.9-0.3-1.8-0.3-2.7c-0.5-0.2-1-0.5-1.4-0.8
		c-0.7-0.6-1.2-1.4-1.4-2.3c-0.3-2-0.1-4,0.6-5.9c0.3-1,0.8-1.9,1.5-2.7c0-1.4,0.2-2.9,0.7-4.2c2.5-7,11.1-11.2,18.2-12.7
		c10-2.1,23.6,2.2,23.6,2.2s16.9,23.9,5.9,27.2s-19-0.8-19-0.8s-6.8-1.3-12-0.6C16.2,270.5,11.6,277.5,7.7,277.1z"/>
	<path class="st4" d="M52.2,243.6c0,0-7.6-6-12-8.2s-15.6-10.4-18-5.6s-0.5,8.7,3.8,11.5s2.9,11.3,5.2,12.5S53.2,263.7,52.2,243.6z"
		/>
	<path class="st4" d="M60.9,246.8l-3.4,25.8c-0.5,3.6-3.7,6.1-7.3,5.6l0,0c-3.6-0.5-6.1-3.7-5.6-7.3l3.4-25.8
		c0.5-3.6,3.7-6.1,7.3-5.6l0,0C58.8,239.9,61.3,243.2,60.9,246.8z"/>
	<path class="st8" d="M5.1,263.6c-1.4-0.5-3-1.2-4.3-1.8c0.3-1,0.8-1.9,1.5-2.7c1.6,1.4,4.3,3.6,7.2,1c2.3-2,4.7-3.8,7.3-5.3
		c0.2-0.1,7.3-0.4,7.3-0.4s-7.1,1.7-9,3C8.9,261.6,7.2,264.3,5.1,263.6z"/>
	<path class="st8" d="M3,270.8c1,0.6,2.1,0.8,3.3,0.7c1.9-0.2,4.5-3.3,6.6-4.8c1.6-1.2,2.8-3,5.4-3.4c2.4-0.4,5.1-0.6,5.5-0.6
		c-2.4,0.9-4.8,2-7,3.3c-3.1,2-8.5,7.4-10.9,7.6c-0.8,0.1-1.7,0-2.5-0.1C3.1,272.6,3,271.7,3,270.8z"/>
</g>
<g id="head">
	<polygon class="st12" points="177.3,80.7 162.3,74.3 163.6,70 179.7,73.3 	"/>
	<ellipse transform="matrix(0.3007 -0.9537 0.9537 0.3007 43.6715 201.6357)" class="st12" cx="159.3" cy="71" rx="5.8" ry="1.4"/>
	<path class="st12" d="M157.9,76.5l4.4-2.2c1-1.2,1.5-2.7,1.4-4.3l-2.4-4.4L157.9,76.5z"/>
	<path class="st13" d="M236.4,112.4c-7.6,6-24.2,12.6-38.9,12.6s-24.1-7.7-30.3-12.9c-5.6-4.7-7.8-13.6-6.1-20.6
		c1.5-6.4,10.5-14,9.8-21.3c-0.2-1.8-0.2-3.7-0.1-5.6c1.2-19.1,17.7-33.7,36.9-32.5c18.3,1.2,32.5,16.3,32.5,34.7c0,1,0,2-0.1,3
		c-0.6,7.4-0.7,16.3,0.9,21.6C243.1,98.7,241,108.7,236.4,112.4z"/>
	<g>
		<g>
			<defs>
				<path id="SVGID_3_" d="M173.2,74.3c0,0,10.1-4.5,13.5,4.6s-1.6,17-1.6,17s-9.4,1.8-13.7-8.2C168.6,81.1,173.2,74.3,173.2,74.3z"
					/>
			</defs>
			<clipPath id="SVGID_4_">
				<use xlink:href="#SVGID_3_"  style="overflow:visible;"/>
			</clipPath>
			<g class="st14">
				<polygon class="st7" points="185.5,98.6 164.8,92.3 173.3,69.7 194,76 				"/>
				
					<ellipse transform="matrix(0.5308 -0.8475 0.8475 0.5308 15.4881 195.0586)" class="st15" cx="183.9" cy="83.5" rx="8.9" ry="7.7"/>
				<ellipse transform="matrix(0.5308 -0.8475 0.8475 0.5308 15.4881 195.0586)" cx="183.9" cy="83.5" rx="4.1" ry="3.5"/>
				<path class="st16" d="M186.5,95.9c0,0,3.4-12.1-0.7-17.4S174,74,171.7,77.3c-1.4-5.5,9.8-8.6,9.8-8.6l13.1,10.1L186.5,95.9z"/>
			</g>
		</g>
	</g>
	<g>
		<g>
			<defs>
				<path id="SVGID_5_" d="M220.6,77.5c0,0-9.4-6.5-15.8,1.7c-3.8,4.7-5.2,11-3.7,16.9c0,0,9.5,3.7,17.1-5.2
					C223.4,85,220.6,77.5,220.6,77.5z"/>
			</defs>
			<clipPath id="SVGID_6_">
				<use xlink:href="#SVGID_5_"  style="overflow:visible;"/>
			</clipPath>
			<g class="st17">
				
					<rect x="198.8" y="74" transform="matrix(0.9968 -7.985155e-02 7.985155e-02 0.9968 -6.182 17.1109)" class="st7" width="24.1" height="23.7"/>
				<circle class="st15" cx="213.7" cy="83.7" r="8.7"/>
				<circle cx="213.7" cy="83.7" r="4"/>
				<path class="st16" d="M199.6,95.8c0,0,0.2-12.4,6.2-16.8s12.8-1.6,16.8,1.8c5.1-4.8-9.1-10.3-9.1-10.3l-17.1,7.1L199.6,95.8z"/>
			</g>
		</g>
	</g>
	<path class="st4" d="M204.5,104.9c0.1,1.5,0.2,3,0.4,4.5c0.1,0.8,0.1,1.7-0.1,2.5c-0.3,0.8-0.9,1.5-1.7,2c-1.4,0.8-3,1.3-4.6,1.4
		c-1.6,0.2-3.1,0.2-4.7,0.1c-1.6-0.1-3.1-0.2-4.6-0.4c-1.6-0.2-3.1-0.5-4.6-1c-1.6-0.4-3.1-1.3-4.2-2.5c-0.6-0.7-1-1.5-1.2-2.4
		c-0.1-0.9,0-1.7,0.3-2.5v-0.1l0,0c0.5-0.7,1-1.5,1.4-2.3c0.5-0.8,0.8-1.6,1.1-2.5c0,0.9-0.2,1.8-0.5,2.7c-0.3,0.9-0.7,1.7-1.1,2.6
		l0.1-0.1c-0.4,1.3,0,2.6,1,3.5c1.1,0.9,2.3,1.5,3.7,1.8c1.4,0.4,2.9,0.6,4.3,0.8c1.5,0.2,3,0.4,4.5,0.4c1.5,0.1,2.9,0.1,4.4,0.1
		c1.4,0,2.8-0.3,4.1-0.9c0.6-0.3,1-0.7,1.3-1.3c0.3-0.6,0.4-1.3,0.4-2C204,107.9,204.2,106.3,204.5,104.9z"/>
	<path class="st4" d="M184,101.7c-0.9,0.3-1.6,0.4-2.3,0.7c-0.3,0.1-0.7,0.2-1,0.4c-0.3,0.1-0.6,0.4-1.1,0.6
		c0.1-0.5,0.3-0.9,0.6-1.2c0.3-0.3,0.7-0.6,1.2-0.7c0.4-0.1,0.9-0.2,1.3-0.1C183.2,101.3,183.7,101.5,184,101.7z"/>
	<path class="st4" d="M202.2,103.3c0.4-0.1,0.9,0,1.3,0.1c0.4,0.1,0.8,0.4,1.1,0.6c0.3,0.3,0.6,0.7,0.8,1.1s0.2,0.9,0,1.3
		c-0.2-0.3-0.5-0.7-0.7-1s-0.5-0.5-0.8-0.8C203.5,104.3,202.9,103.9,202.2,103.3z"/>
	<path class="st4" d="M171,69.5c1.2-1,2.5-1.9,3.8-2.7c0.6-0.4,1.3-0.7,2-1s1.4-0.6,2.1-0.9c1.5-0.4,3-0.6,4.5-0.4
		c0.8,0.1,1.5,0.3,2.2,0.5c0.4,0.1,0.7,0.2,1.1,0.4l0.6,0.2c0.2,0.1-1.7,5.7-1.9,5.5c-0.3-0.2-0.5-0.3-0.8-0.4
		c-0.5-0.2-1.1-0.5-1.7-0.6c-1.1-0.3-2.3-0.4-3.4-0.2c-0.6,0.1-1.2,0.3-1.8,0.5s-1.2,0.4-1.8,0.7c-1.2,0.5-2.4,1.1-3.5,1.9L171,69.5
		z"/>
	<path class="st4" d="M224.4,74.4c-2,0.6-4,1-6,1.3c-1,0.2-2,0.3-3,0.3c-1,0.1-2.1,0.1-3.1,0.1c-2.2-0.1-4.3-0.5-6.4-1.2
		c-1-0.4-2-0.8-3-1.2c-0.5-0.2-1-0.5-1.4-0.8c-0.2-0.1-0.5-0.3-0.7-0.4s3.7-4.9,4-4.7s0.7,0.5,1,0.7c0.7,0.4,1.4,0.8,2.2,1.2
		c1.5,0.7,3.1,1.2,4.7,1.4c0.9,0.1,1.7,0.2,2.6,0.2c0.9,0,1.8,0,2.7,0c1.8-0.1,3.6-0.3,5.4-0.6L224.4,74.4z"/>
	<path class="st18" d="M204.3,29.9c0,0,5.4-7.4,17.7-7.2s17.2,5.9,19.1,9.4s1,7.2-2.4,8.7s-8-4.3-14-6.5c-7.6-2.8-8.6-1-12.7-0.3
		C208.8,34.5,202.3,32.3,204.3,29.9z"/>
	<path class="st18" d="M189.3,44.4c0,0-9.9,3.3-15.3,8.1c-4.1,3.7-9.9,5.3-15.1,1.7s-7.7-19.8,18.6-20.9s28.9,0,28.9,0v9.1
		C200.6,42.3,194.9,43,189.3,44.4z"/>
	<path class="st18" d="M210,34.4c-1.7-3.8-6.5-9.6-21.9-9.7s-25.9,6.8-19.8,13.9s11.8-0.2,14.2-0.8s15.1-2.8,20.7,1
		S211.3,37.3,210,34.4z"/>
	<path class="st18" d="M205,35.5c0,0-11.8-0.5-16.8,12.4s-2,21.1,3.1,21.6S202,65.3,203,56.3s5.6-14.4,10.8-15.7
		S212.6,33.6,205,35.5z"/>
	<path class="st18" d="M208.1,32.7c0,0,8.5-6.7,32.6,5.9C263,50.2,254.5,63.3,251,65.4c-3.5,2.1-12-0.1-14.3-10.9S208.6,37,208.6,37
		L208.1,32.7z"/>
	<path class="st18" d="M210.5,35.3c0,0,10.9,0.4,18.2,6.8c6.3,5.4,9.4,13.6,8.3,21.8c-0.9,6.9-12,10.4-17.9,6.9s-5.8-9.9-4.7-15.6
		s-0.7-13.6-6.2-15S204.3,36.6,210.5,35.3z"/>
	<polygon class="st13" points="230.8,85.5 246.4,80.4 245.4,76 229.2,77.9 	"/>
	<ellipse transform="matrix(0.9763 -0.2163 0.2163 0.9763 -10.832 55.823)" class="st13" cx="249.6" cy="77.4" rx="1.4" ry="5.8"/>
	<path class="st13" d="M250.6,83l-4.2-2.6c-0.9-1.3-1.3-2.9-1-4.4l2.7-4.1L250.6,83z"/>
</g>
</svg>
