<?xml version="1.0" encoding="utf-8"?>
<!-- Generator: Adobe Illustrator 25.2.0, SVG Export Plug-In . SVG Version: 6.00 Build 0)  -->
<svg version="1.1" id="Layer_1" xmlns="http://www.w3.org/2000/svg" xmlns:xlink="http://www.w3.org/1999/xlink" x="0px" y="0px"
	 viewBox="0 0 350.8 537.2" style="enable-background:new 0 0 350.8 537.2;" xml:space="preserve">
<style type="text/css">
	.st0{fill:#5FB0AA;}
	.st1{fill:none;stroke:#4A8F91;stroke-width:4.07;stroke-miterlimit:10;}
	.st2{fill:#DAE78D;}
	.st3{fill:#59104A;}
	.st4{fill:#77185E;}
	.st5{opacity:0.2;fill:#9AE0E2;enable-background:new    ;}
	.st6{fill:none;stroke:#9AE0E2;stroke-width:3;stroke-miterlimit:10;}
	.st7{fill:#FFFFFF;}
	.st8{fill:none;stroke:#C7DB52;stroke-width:2;stroke-linecap:round;stroke-miterlimit:10;}
	.st9{fill:none;stroke:#5FB0AA;stroke-width:8.51;stroke-linecap:round;stroke-miterlimit:10;}
	.st10{fill:#541146;}
	.st11{fill:#E95BA6;}
	.st12{clip-path:url(#SVGID_2_);}
	.st13{fill:#5F1B75;}
	.st14{fill:#470B35;}
	.st15{clip-path:url(#SVGID_4_);}
	.st16{fill:#F7E731;}
</style>
<g id="r-arm">
	<path class="st0" d="M152.9,187c-0.3-0.1-0.7-0.2-1.4,0.5c-1.1,1.3-1.9,2.7-2.4,4.3c-1.7,4.2-3.1,10.5-4.4,17.4s-2.7,14.8-4.9,23
		c-2.3,8.8-5.6,17.2-10.1,25.1c-2.8,5-6.3,9.5-10.4,13.4c-2.5,2.3-5.2,4.3-8.2,5.9c-6.2,3.4-13.3,4.9-20.4,4.4
		c-3.1-0.2-6.1-0.8-9-1.6c-4.9-1.5-9.5-3.7-13.8-6.4c-3.7-2.4-7.2-5-10.6-7.9c-3.2-2.8-6.1-5.6-8.8-8.5s-5.3-5.9-7.7-8.9
		c-1.2-1.5-2.4-3.1-3.6-4.6l-1.8-2.4l-1.8-2.6l21.3-16.5c8.6,8.9,19.6,18.1,29.2,22.1c1.9,0.9,3.9,1.4,6,1.6c0.6,0.1,1.1,0,1.7-0.1
		c0.3-0.1,0.4-0.3,0.4-0.4s-0.2-0.2-0.2-0.4s0-0.4,0.2-0.7c0.7-1.3,1.3-2.7,1.8-4.2c1.7-5.1,2.7-10.3,3.1-15.6
		c0.6-5.9,0.7-12.4,0.8-19.6c0.1-3.6,0.2-7.5,0.5-11.6c0.3-4.5,0.8-9,1.7-13.4c1-5.5,2.7-10.8,5-15.9c2.8-6.2,6.7-11.7,11.5-16.5
		L152.9,187z"/>
	<line class="st1" x1="66" y1="232.8" x2="46.1" y2="253.1"/>
	<line class="st1" x1="95.8" y1="232.9" x2="134.9" y2="245.8"/>
	<line class="st1" x1="101.3" y1="174.2" x2="149.5" y2="189.8"/>
	<line class="st1" x1="97.6" y1="217.3" x2="141.5" y2="223.5"/>
	<line class="st1" x1="98.2" y1="198.3" x2="145.4" y2="203.8"/>
	<line class="st1" x1="92.3" y1="243.6" x2="120.3" y2="269.3"/>
	<line class="st1" x1="91" y1="245.6" x2="86.6" y2="280.1"/>
	<line class="st1" x1="79.8" y1="242.2" x2="62.2" y2="268.4"/>
</g>
<path id="l-thigh" class="st2" d="M202.1,412.7c0,0-4.2,12.5-16.7,12.6c-12.8,0.1-17.6-12.6-17.6-12.6s-12.3-52.1-9.7-88.4
	c1-14.9,9-31.8,25-31.8s23.6,19.9,24.6,26.9C210.9,344.8,202.1,412.7,202.1,412.7z"/>
<g id="l-calf">
	<path class="st3" d="M211.2,455.9c0.7-6.9-50.6-5.7-49.4,3s20.6,9.1,28,9C198.8,467.6,210.7,460.6,211.2,455.9z"/>
	<path class="st0" d="M140.9,531.5l3.1,5.5c0,0,13.3,0.3,28.5,0s33.3-0.4,33.3-0.4l-2.5-5.1c0,0-9.5-6.3-10.3-6.2
		S140.9,531.5,140.9,531.5z"/>
	<path class="st2" d="M197.3,519.2l-21.9-2.7l-7.6-103.9l34.2,0.7c0,0,4.4,15.6,4.3,30.5C206.2,463.7,197.3,519.2,197.3,519.2z"/>
	<path class="st4" d="M211.2,455.9v0.2l0,0l-0.8,7.4l-7.2,68c1,1.9-7.3,2.1-27.8,0.7c-18.9-1.2-34.6-0.7-34.6-0.7l-3.1-4.2
		c-1.5-2-1-4.9,1-6.3c0.1-0.1,0.2-0.2,0.3-0.2l28.6-16.7l-5-38l-0.9-7.1l0,0l0.1,0.1c1.1,0.6,7.8,3.6,27.3,2.2l1.9-0.2
		C198.1,460.4,204.9,458.7,211.2,455.9z"/>
	<path class="st0" d="M164.3,502.2c2.2-1.7,4.2-3.5,10.9-0.7c7.9,3.3,19.7,8.4,28,30c0,0-26.2-24.1-39.9-25
		C158.9,506.3,163.5,502.9,164.3,502.2z"/>
	<path class="st0" d="M211.2,455.9v0.2l0,0l-0.8,7.4c-7.3,3.6-15.3,5.6-23.4,6c-13.5,0.5-22-1.2-24.3-3.5l-0.9-7.1l0,0l0.1,0.1
		c1.1,0.6,7.8,3.6,27.3,2.2l1.9-0.2C198.1,460.4,204.9,458.7,211.2,455.9z"/>
</g>
<rect id="hips" x="167.4" y="297.5" class="st2" width="106.7" height="50"/>
<g id="r-arm-2">
	<path class="st0" d="M325.2,146.8c3.7,3.8,7,7.9,9.8,12.4c2.6,4.1,4.8,8.4,6.7,12.9c3.3,8,5.6,16.4,7,24.9c1.2,7.8,2,15.6,2.1,23.4
		c0.2,7.6,0,15-0.5,22.3c-0.1,1.8-0.3,3.6-0.4,5.5l-0.5,5.2c-0.3,3.5-0.7,6.9-1.1,10.4c-0.8,6.9-1.6,13.8-2.5,20.7s-1.9,13.8-3,20.6
		c-0.5,3.4-1.1,6.9-1.7,10.3s-1.2,6.8-1.9,10.4l-26.8-3c0-3.1,0.1-6.6,0.1-9.9s0-6.7-0.1-10c-0.1-6.7-0.3-13.4-0.5-20.1
		s-0.6-13.4-1-20c-0.2-3.3-0.4-6.6-0.7-10l-0.4-5c-0.1-1.6-0.3-3.2-0.4-4.8c-0.6-6.3-1.5-12.5-2.6-18.4c-1.1-5.7-2.5-11.3-4.4-16.8
		c-1.6-4.7-3.7-9.3-6.4-13.5c-1.8-3-4.4-5.6-7.3-7.5L325.2,146.8z"/>
	<line class="st1" x1="313" y1="306.4" x2="341.4" y2="308.6"/>
	<line class="st1" x1="308.9" y1="234.7" x2="350" y2="232.8"/>
	<line class="st1" x1="295" y1="192.6" x2="339.3" y2="167.9"/>
	<line class="st1" x1="305.9" y1="218.5" x2="349.8" y2="212.3"/>
	<line class="st1" x1="301.3" y1="203.9" x2="346.9" y2="190.8"/>
	<line class="st1" x1="310.7" y1="251.9" x2="348.7" y2="252.4"/>
	<line class="st1" x1="311.9" y1="270" x2="346.7" y2="271.2"/>
	<line class="st1" x1="312.6" y1="288.2" x2="344.2" y2="290"/>
</g>
<path id="r-thigh" class="st2" d="M239.3,412.7c0,0,4.2,12.5,16.7,12.6c12.8,0.1,17.6-12.6,17.6-12.6s12.3-52.1,9.7-88.4
	c-1-14.9-9-31.8-25-31.8s-23.6,20-24.5,26.9C230.6,344.8,239.3,412.7,239.3,412.7z"/>
<g id="r-calf">
	<path class="st3" d="M230.2,455.9c-0.7-6.9,50.6-5.7,49.5,3s-20.6,9.1-28,9C242.6,467.6,230.7,460.6,230.2,455.9z"/>
	<path class="st0" d="M300.6,531.5l-3.1,5.5c0,0-13.3,0.3-28.5,0s-33.3-0.4-33.3-0.4l2.5-5.1c0,0,9.5-6.3,10.3-6.2
		S300.6,531.5,300.6,531.5z"/>
	<path class="st2" d="M244.2,519.2l21.9-2.7l7.6-103.9l-34.2,0.7c0,0-4.4,15.6-4.3,30.5C235.3,463.7,244.2,519.2,244.2,519.2z"/>
	<path class="st4" d="M230.2,455.9v0.2l0,0l0.8,7.4l7.2,68c-1,1.9,7.3,2.1,27.8,0.7c19-1.2,34.6-0.7,34.6-0.7l3.1-4.2
		c1.5-2,1-4.9-1-6.3c-0.1-0.1-0.2-0.2-0.3-0.2L273.7,504l5-38l0.9-7.1l0,0l-0.1,0.1c-1.1,0.6-7.8,3.6-27.3,2.2l-1.9-0.2
		C243.3,460.4,236.6,458.7,230.2,455.9z"/>
	<path class="st0" d="M277.1,502.2c-2.2-1.7-4.2-3.5-11-0.7c-7.9,3.3-19.7,8.4-28,30c0,0,26.2-24.1,39.9-25
		C282.5,506.3,278,502.9,277.1,502.2z"/>
	<path class="st0" d="M230.2,455.9v0.2l0,0l0.8,7.4c7.3,3.6,15.3,5.6,23.4,6c13.5,0.5,22-1.2,24.3-3.5l0.9-7.1l0,0l-0.1,0.1
		c-1.1,0.6-7.8,3.6-27.3,2.2l-1.9-0.2C243.4,460.4,236.6,458.7,230.2,455.9z"/>
</g>
<g id="torso">
	<path class="st5" d="M158.2,30.6C168.3,17.4,204,1.5,220.7,1.5s52.4,15.9,62.5,29.1c16,20.9-7.7,56.6-7.7,79.6
		c-3,11.6-29.9,25.6-52.5,25.6s-53.2-14.4-57.2-25.6C165.9,85.8,142.2,51.6,158.2,30.6z"/>
	<path class="st6" d="M158.2,30.6C168.3,17.4,204,1.5,220.7,1.5s52.4,15.9,62.5,29.1c16,20.9-7.7,56.6-7.7,79.6
		c-3,11.6-29.9,25.6-52.5,25.6s-53.2-14.4-57.2-25.6C165.9,85.8,142.2,51.6,158.2,30.6z"/>
	<path class="st7" d="M268.2,26.2c0,0,13.1,6.2,13.8,18.4s-4.6,25-4.6,25l-5.5-1.7c0,0,5.3-18.8,3.6-24.7c-2-7-6.7-11.5-12-14.6
		L268.2,26.2z"/>
	<polygon class="st7" points="253.8,23.1 258.7,25.9 263.5,22.9 258.7,20.1 	"/>
	<path class="st4" d="M220.7,272.5c33.4,0,60.4,4.4,60.4,9.9H275c0-4.9-24.3-8.8-54.2-8.8s-54.2,4-54.2,8.8h-6.2
		C160.3,276.9,187.3,272.5,220.7,272.5z"/>
	<path class="st2" d="M168.8,296.6c18.4,37,85.5,37,103.8,0c0-36,52.7-96,52.7-152.7c-18.5-18.5-61.6-47.5-104.6-47.5
		s-86.1,29-104.6,47.5C116.1,201.7,168.8,260.6,168.8,296.6z"/>
	<path class="st8" d="M325.3,143.9c0,32.2-57.3,75.9-70.4,107.7c-13.1,31.9-9.5,57.1-9.5,57.1"/>
	<path class="st8" d="M116.1,143.9c0,32.2,57.3,75.9,70.4,107.7s9.5,57.1,9.5,57.1"/>
	<path class="st4" d="M160.3,282.4v20.2c0,5.5,27.1,9.9,60.4,9.9s60.4-4.5,60.4-9.9v-20.2c0,5.5-27.1,9.9-60.4,9.9
		S160.3,287.9,160.3,282.4z"/>
	<path class="st4" d="M220.7,291.2c30,0,54.2-4,54.2-8.8h6.2c0,5.5-27.1,9.9-60.4,9.9s-60.4-4.4-60.4-9.9h6.2
		C166.5,287.3,190.8,291.2,220.7,291.2z"/>
	<path class="st4" d="M325.3,143.9c0,0,13.7-4.6,18.7,8s-12.8,51.3-40.4,66.6c0,0,5.5-11.4,10.4-23.6
		C320.6,178.6,324.4,161.4,325.3,143.9z"/>
	<path class="st4" d="M116,143.9c0,0-13.7-4.6-18.7,8s12.8,51.3,40.4,66.6c0,0-5.4-11.4-10.4-23.6
		C120.7,178.6,116.9,161.4,116,143.9z"/>
	<path class="st9" d="M279.1,109.3c-3.2,12.3-31.8,27.2-55.8,27.2s-56.6-15.4-60.9-27.2"/>
	<path class="st4" d="M133.5,123c0,0,9.2,22.5,39.7,39.3s47.6,18.6,47.6,18.6s17.1-1.8,47.6-18.6S308,123,308,123l17.4,15.4
		c0,0-9,19.9-32.4,32.7s-46.2,19.5-72.2,22.1c-26-2.7-48.8-9.3-72.2-22.1s-32.4-32.7-32.4-32.7L133.5,123z"/>
	<path class="st0" d="M223,224.7l14.2-18.4c0.8-1,0.8-2.5,0-3.5L223,184.3c-1-1.3-2.8-1.5-4-0.5c-0.2,0.2-0.4,0.3-0.5,0.5
		l-14.2,18.4c-0.8,1-0.8,2.5,0,3.5l14.2,18.4c1,1.3,2.8,1.5,4,0.5C222.7,225.1,222.9,224.9,223,224.7z"/>
	<polygon class="st4" points="229.8,204.5 220.7,192.8 211.7,204.5 220.7,216.2 	"/>
	<circle class="st0" cx="220.7" cy="303" r="19.4"/>
	<polygon class="st4" points="220.7,315.8 230.6,303 220.7,290.2 210.8,303 	"/>
</g>
<g id="r-hand">
	<path class="st4" d="M321.5,359c0.3,3.4-5.6,9.3-4.4,13.1c0.5,1.7,2.3,4.5,7.2,3.3c0.3,0.5,0.6,0.9,1.1,1.2
		c0.7,0.6,1.6,0.9,2.5,0.9c3.1-0.2,5.9-1.5,8-3.8c1.4-0.3,2.8-0.8,4-1.6c6.3-3.9,8.6-13.2,8.6-20.5c-0.1-10.2-7.1-22.6-7.1-22.6
		s-26.9-11.5-27.8,0s4.8,18.4,4.8,18.4S321,353.8,321.5,359z"/>
	<path class="st4" d="M314.9,325.8c0,0-4.9,8.3-6.5,13s-8.2,16.8-3.1,18.6s8.7-0.7,10.8-5.3s10.8-4.4,11.7-6.9
		S334.7,322.1,314.9,325.8z"/>
	<path class="st4" d="M339.7,330.4h-26.1c-3.6,0-6.5-2.9-6.5-6.5l0,0c0-3.6,2.9-6.5,6.5-6.5h26.1c3.6,0,6.5,2.9,6.5,6.5l0,0
		C346.2,327.5,343.3,330.4,339.7,330.4z"/>
	<path class="st10" d="M324.3,375.4c0.3,0.5,0.6,0.9,1.1,1.2c2.2-3.2,7.2-10.5,8.5-13.6c1.6-4-1.4-11.6-1.6-12.2
		c0.1,0.5,1.4,7.2,0,10.6C330.8,364.8,324.3,375.4,324.3,375.4z"/>
	<path class="st10" d="M335.8,373.7c1.4-0.3,2.8-0.8,4-1.6c1.5-3.3,3.3-7.5,3.7-9.9c0.5-3.8,0.1-7.7-0.9-11.4c0.1,0.5,1.3,5.9,0,9.9
		C341.2,364.8,335.8,373.7,335.8,373.7z"/>
</g>
<g id="l-hand">
	<path class="st4" d="M10.9,195.9c-2.1-0.4-4.2,0.5-5.3,2.3c-0.5,0.8-0.8,1.6-1,2.5c-0.5,0-1.1,0.2-1.6,0.4c-0.8,0.4-1.5,1-2,1.8
		c-0.8,1.8-1.2,3.8-1,5.8c0.1,1,0.3,2,0.7,3c-0.4,1.4-0.5,2.8-0.4,4.3c0.5,7.4,7.6,13.8,14.1,17.1c9,4.7,23.3,4.2,23.3,4.2
		s22.6-18.4,12.9-24.6s-18.5-4.3-18.5-4.3s-6.9-0.6-11.7-2.6C17.3,204.6,14.7,196.6,10.9,195.9z"/>
	<path class="st4" d="M50.5,212.5c0,0-5.2-8.2-8.7-11.6S30.5,186,26.6,189.7s-3.3,8.1-0.1,12.1s-0.9,11.7,0.9,13.6
		S44.9,231.8,50.5,212.5z"/>
	<path class="st4" d="M29.2,231.6l21.3-15c2.9-2.1,7-1.4,9.1,1.6l0,0c2.1,2.9,1.4,7-1.6,9.1l-21.3,15c-2.9,2.1-7,1.4-9.1-1.6l0,0
		C25.6,237.7,26.3,233.7,29.2,231.6z"/>
	<path class="st10" d="M4.7,208.2c-1.6,0.1-3.1,0.3-4.6,0.5c0.1,1,0.3,2,0.7,3c1.9-0.9,5.1-2.3,7.2,1c1.7,2.5,3.5,4.9,5.6,7.1
		c0.2,0.1,6.9,2.3,6.9,2.3s-6.4-3.6-7.9-5.3C7.8,211.1,6.9,208.1,4.7,208.2z"/>
	<path class="st10" d="M4.6,200.7c1.1-0.3,2.3-0.2,3.4,0.2c1.8,0.7,3.5,4.4,5.1,6.4c1.2,1.6,1.9,3.6,4.3,4.7c2.4,1.1,4.8,1.9,5.1,2
		c-2.1-1.5-4.1-3.2-5.9-5.1c-2.5-2.8-6.2-9.4-8.5-10.2c-0.8-0.3-1.6-0.5-2.5-0.6C5.1,199,4.8,199.8,4.6,200.7z"/>
</g>
<g id="head">
	<path class="st11" d="M183.3,110.6c21.2,19.3,53.7,19.3,74.9,0c5.4-4.9,5.9-12.6,2.5-19.1c-2.6-4.8-6.1-14-5.4-21.3
		c0.2-1.8,0.2-3.7,0.1-5.6c-1.2-19.1-17.7-33.7-36.9-32.5C200.2,33.4,186,48.6,186,66.9c0,1,0,2,0.1,3c0.6,7.4-2.8,16.7-5.3,21.6
		C177.4,97.9,177.9,105.7,183.3,110.6z"/>
	<polygon class="st11" points="252.7,85.5 268.3,80.4 267.3,76 251.1,77.9 	"/>
	
		<ellipse transform="matrix(0.9763 -0.2163 0.2163 0.9763 -10.3135 60.5582)" class="st11" cx="271.5" cy="77.4" rx="1.4" ry="5.8"/>
	<path class="st11" d="M272.5,83l-4.2-2.6c-0.9-1.3-1.3-2.8-1-4.4l2.7-4.1L272.5,83z"/>
	<polygon class="st11" points="188.7,85.5 173.1,80.4 174.1,76 190.4,77.9 	"/>
	
		<ellipse transform="matrix(0.2163 -0.9763 0.9763 0.2163 57.6205 226.5465)" class="st11" cx="169.9" cy="77.4" rx="5.8" ry="1.4"/>
	<path class="st11" d="M168.9,83l4.2-2.6c0.9-1.3,1.3-2.8,1-4.4l-2.7-4.1L168.9,83z"/>
	<g>
		<g>
			<defs>
				<path id="SVGID_1_" d="M248.2,78.3c0,0-8.8-7.2-15.9,0.4c-4.2,4.4-6,10.5-5,16.5c0,0,9.1,4.4,17.5-3.8
					C250.3,86,248.2,78.3,248.2,78.3z"/>
			</defs>
			<clipPath id="SVGID_2_">
				<use xlink:href="#SVGID_1_"  style="overflow:visible;"/>
			</clipPath>
			<g class="st12">
				<rect x="225.8" y="74" class="st7" width="24.1" height="23.7"/>
				<circle class="st13" cx="233.3" cy="83.9" r="8.7"/>
				<circle cx="233.3" cy="83.9" r="4"/>
				<path class="st14" d="M225.8,94.9c0,0,1.2-12.4,7.6-16.3s10.9-0.8,15.1,1c4.4,1.8-6.8-8.9-6.8-8.9L224,76.4L225.8,94.9z"/>
			</g>
		</g>
	</g>
	<g>
		<g>
			<defs>
				<path id="SVGID_3_" d="M191.9,78.3c0,0,8.8-7.2,15.9,0.4c4.2,4.4,6,10.5,5,16.5c0,0-9.1,4.4-17.5-3.8
					C189.8,86,191.9,78.3,191.9,78.3z"/>
			</defs>
			<clipPath id="SVGID_4_">
				<use xlink:href="#SVGID_3_"  style="overflow:visible;"/>
			</clipPath>
			<g class="st15">
				<rect x="190.2" y="74" class="st7" width="24.1" height="23.7"/>
				<circle class="st13" cx="199.3" cy="83.9" r="8.7"/>
				<circle cx="199.3" cy="83.9" r="4"/>
				<path class="st14" d="M214.3,94.9c0,0-1.2-12.4-7.6-16.2s-10.9-0.8-15.1,1c-4.4,1.8,6.8-8.9,6.8-8.9l17.7,5.7L214.3,94.9z"/>
			</g>
		</g>
	</g>
	<path class="st4" d="M208.1,103.9c0.1,0.9,0,1.9-0.2,2.8s-0.5,1.8-0.8,2.7v-0.1c-0.1,1.1,0.4,2.2,1.3,2.9c0.5,0.3,1,0.5,1.6,0.6
		l1.9,0.4c5.1,1.1,10.4,1.1,15.4,0c0.6-0.1,1.3-0.3,1.9-0.4c0.6-0.1,1.1-0.3,1.6-0.6c0.9-0.6,1.4-1.8,1.3-2.9l0.1,0.1
		c-0.3-0.9-0.6-1.8-0.8-2.7c-0.2-0.9-0.3-1.8-0.2-2.8c0.2,0.9,0.4,1.8,0.8,2.6c0.3,0.8,0.7,1.6,1.2,2.4l0,0v0.1c0.5,2-0.5,4-2.4,4.8
		c-0.4,0.2-0.7,0.2-1,0.4c-0.6,0.2-1.3,0.4-2,0.6c-2.6,0.7-5.4,1.1-8.1,1.1c-2.7,0-5.5-0.4-8.1-1.1c-0.7-0.2-1.3-0.4-1.9-0.6
		c-0.3-0.1-0.6-0.2-1-0.4c-1.9-0.8-2.9-2.8-2.4-4.8v-0.1l0,0c0.4-0.8,0.8-1.6,1.2-2.4C207.6,105.6,207.9,104.8,208.1,103.9z"/>
	<path class="st4" d="M229.1,103.7c0.4-0.2,0.8-0.3,1.3-0.3c0.4,0,0.9,0.1,1.3,0.2c0.4,0.2,0.8,0.4,1.1,0.8c0.3,0.3,0.5,0.8,0.5,1.2
		c-0.4-0.3-0.7-0.5-1-0.7s-0.7-0.3-1-0.4C230.7,104.3,229.9,104.1,229.1,103.7z"/>
	<path class="st4" d="M210.1,103.7c-0.8,0.4-1.5,0.6-2.2,0.8c-0.3,0.1-0.7,0.3-1,0.4c-0.3,0.2-0.6,0.4-1,0.7c0-0.5,0.2-0.9,0.5-1.2
		c0.3-0.3,0.7-0.6,1.1-0.8c0.4-0.2,0.9-0.2,1.3-0.2C209.3,103.4,209.7,103.5,210.1,103.7z"/>
	<path class="st4" d="M250.8,69.6c-1.8-1-3.6-1.9-5.5-2.7c-0.9-0.4-1.9-0.7-2.8-1c-1-0.3-2-0.6-3-0.8c-2.1-0.4-4.3-0.6-6.5-0.4
		c-1.1,0.1-2.2,0.3-3.2,0.5c-0.5,0.1-1.1,0.3-1.6,0.4l-0.8,0.3c-0.3,0.1,2.4,5.6,2.8,5.5s0.8-0.3,1.2-0.4c0.8-0.3,1.6-0.5,2.4-0.6
		c1.6-0.3,3.3-0.4,4.9-0.2c0.9,0.1,1.7,0.3,2.6,0.5c0.9,0.2,1.8,0.4,2.6,0.7c1.7,0.5,3.4,1.1,5.1,1.9L250.8,69.6z"/>
	<path class="st4" d="M189.9,71.7c1.8,1,3.6,1.9,5.5,2.6c0.9,0.4,1.9,0.7,2.8,1c1,0.3,2,0.6,3,0.8c2.1,0.4,4.3,0.5,6.5,0.3
		c1.1-0.1,2.1-0.3,3.2-0.5c0.5-0.1,1.1-0.3,1.6-0.4l0.8-0.3c0.3-0.1-2.5-5.6-2.8-5.5s-0.8,0.3-1.2,0.4c-0.8,0.3-1.6,0.5-2.4,0.6
		c-1.6,0.3-3.3,0.4-4.9,0.3c-0.8-0.1-1.7-0.2-2.6-0.4s-1.8-0.4-2.6-0.7c-1.7-0.5-3.4-1.1-5.1-1.8L189.9,71.7z"/>
	<path class="st16" d="M223.2,30.9c0,0-2.4-8.9-14-13s-18.2-0.6-21.2,2s-3.5,6.3-0.9,8.9c2.7,2.6,9-1.2,15.4-1.1
		c8.1,0.1,8.4,2.1,11.9,4.2C217.3,33.6,224.2,33.9,223.2,30.9z"/>
	<path class="st16" d="M237.2,44.4c0,0,10,3.3,15.3,8.1c4.1,3.7,10,5.3,15.1,1.7s7.7-19.8-18.6-20.9s-28.9,0-28.9,0v9.1
		C225.8,42.4,231.6,43,237.2,44.4z"/>
	<path class="st16" d="M216,35.3c1.2-4,5.3-10.3,20.6-12.3s26.6,3.5,21.3,11.4c-5.2,7.9-11.7,1.2-14.2,0.9s-15.3-1-20.4,3.5
		S215,38.3,216,35.3z"/>
	<path class="st16" d="M221.4,35.5c0,0,11.8-0.5,16.8,12.4s2,21.1-3.1,21.6s-10.6-4.2-11.6-13.2s-5.6-14.4-10.8-15.7
		S213.8,33.6,221.4,35.5z"/>
	<path class="st16" d="M219.6,33c0,0-6.1-8.9-32.9-4c-24.7,4.6-20.4,19.6-17.8,22.6s11.5,3.4,16.9-6.2s32-8.4,32-8.4L219.6,33z"/>
	<path class="st16" d="M216,35.3c0,0-10.7-2.3-19.3,2c-7.4,3.6-12.5,10.8-13.5,19c-0.8,6.9,9,13,15.6,11.2s8.1-8.1,8.5-13.9
		s4.1-13,9.8-13S221.6,38.1,216,35.3z"/>
</g>
</svg>
