<?xml version="1.0" encoding="utf-8"?>
<!-- Generator: Adobe Illustrator 25.2.0, SVG Export Plug-In . SVG Version: 6.00 Build 0)  -->
<svg version="1.1" id="Layer_1" xmlns="http://www.w3.org/2000/svg" xmlns:xlink="http://www.w3.org/1999/xlink" x="0px" y="0px"
	 viewBox="0 0 247.5 538.4" style="enable-background:new 0 0 247.5 538.4;" xml:space="preserve">
<style type="text/css">
	.st0{fill:#5FB0AA;}
	.st1{fill:none;stroke:#4A8F91;stroke-width:4.07;stroke-miterlimit:10;}
	.st2{fill:#DAE78D;}
	.st3{fill:#59104A;}
	.st4{fill:#77185E;}
	.st5{opacity:0.2;fill:#9AE0E2;enable-background:new    ;}
	.st6{fill:none;stroke:#9AE0E2;stroke-width:3;stroke-miterlimit:10;}
	.st7{fill:#FFFFFF;}
	.st8{fill:#541146;}
	.st9{fill:none;stroke:#C7DB52;stroke-width:2;stroke-linecap:round;stroke-miterlimit:10;}
	.st10{fill:none;stroke:#5FB0AA;stroke-width:8.51;stroke-linecap:round;stroke-miterlimit:10;}
	.st11{clip-path:url(#SVGID_2_);}
	.st12{fill:#B34582;}
	.st13{fill:#E95BA6;}
	.st14{clip-path:url(#SVGID_4_);}
	.st15{fill:#5F1B75;}
	.st16{fill:#470B35;}
	.st17{clip-path:url(#SVGID_6_);}
	.st18{fill:#F7E731;}
</style>
<g id="l-arm">
	<path class="st0" d="M68.4,165.8c-3,1.8-5.6,4.3-7.6,7.3c-2.8,4.1-5.1,8.6-6.8,13.3c-2,5.4-3.7,11-4.9,16.6
		c-1.3,5.9-2.3,12-3.2,18.3c-0.2,1.6-0.4,3.1-0.6,4.7l-0.5,5c-0.4,3.3-0.7,6.6-1,10c-0.6,6.6-1.1,13.3-1.6,20s-0.8,13.4-1.1,20
		c-0.1,3.3-0.3,6.7-0.4,10s-0.2,6.7-0.2,9.9l-26.9,2.2c-0.6-3.6-1.1-7-1.6-10.5s-0.9-6.9-1.4-10.3c-0.8-7-1.6-13.9-2.4-20.8
		c-0.7-6.9-1.3-13.8-1.9-20.8c-0.3-3.5-0.5-7-0.8-10.4l-0.3-5.2c-0.1-1.8-0.2-3.6-0.2-5.5c-0.3-7.3-0.3-14.7,0.1-22.3
		c0.4-7.8,1.3-15.6,2.8-23.4c1.6-8.5,4.2-16.8,7.7-24.7c2-4.4,4.4-8.7,7.1-12.7c3-4.4,6.4-8.4,10.2-12.1L68.4,165.8z"/>
	<line class="st1" x1="12" y1="285.8" x2="40.4" y2="284.4"/>
	<line class="st1" x1="5.6" y1="209.8" x2="46.7" y2="212.9"/>
	<line class="st1" x1="18.3" y1="145.2" x2="61.8" y2="171.2"/>
	<line class="st1" x1="6.5" y1="189.2" x2="50.2" y2="196.7"/>
	<line class="st1" x1="10" y1="167.8" x2="55.2" y2="182.3"/>
	<line class="st1" x1="6.4" y1="229.4" x2="44.3" y2="230.1"/>
	<line class="st1" x1="7.8" y1="248.3" x2="42.6" y2="248.1"/>
	<line class="st1" x1="9.7" y1="267.1" x2="41.3" y2="266.2"/>
</g>
<path id="l-thigh" class="st2" d="M102.2,408.7c0,0-4.2,12.5-16.7,12.6c-12.8,0.1-17.6-12.6-17.6-12.6s-12.3-52.1-9.7-88.4
	c1-14.9,9-31.8,25-31.8s23.6,19.9,24.6,26.9C111,340.8,102.2,408.7,102.2,408.7z"/>
<g id="l-calf">
	<path class="st3" d="M111.4,451.9c0.7-6.9-50.6-5.7-49.4,3s20.6,9.1,28,9C99,463.6,110.9,456.6,111.4,451.9z"/>
	<path class="st0" d="M41.1,527.5l3.1,5.5c0,0,13.3,0.3,28.5,0s33.3-0.4,33.3-0.4l-2.5-5.1c0,0-9.5-6.3-10.3-6.2
		S41.1,527.5,41.1,527.5z"/>
	<path class="st2" d="M97.5,515.2l-21.9-2.7l-7.6-103.9l34.2,0.7c0,0,4.4,15.6,4.3,30.5C106.3,459.7,97.5,515.2,97.5,515.2z"/>
	<path class="st4" d="M111.4,451.9v0.2l0,0l-0.8,7.4l-7.2,68c1,1.9-7.3,2.1-27.8,0.7c-18.9-1.2-34.6-0.7-34.6-0.7l-3.1-4.2
		c-1.5-2-1-4.9,1-6.3c0.1-0.1,0.2-0.2,0.3-0.2L68,500l-5-38l-0.9-7.1l0,0c0,0,0.1,0.1,0.1,0.1c1.1,0.6,7.8,3.6,27.3,2.2l1.9-0.2
		C98.3,456.4,105,454.7,111.4,451.9z"/>
	<path class="st0" d="M64.5,498.2c2.2-1.7,4.2-3.5,10.9-0.7c7.9,3.3,19.7,8.4,28,30c0,0-26.2-24.1-39.9-25
		C59.1,502.3,63.6,498.9,64.5,498.2z"/>
	<path class="st0" d="M111.4,451.9v0.2l0,0l-0.8,7.4c-7.3,3.6-15.3,5.7-23.4,6c-13.5,0.5-22-1.2-24.3-3.5l-0.9-7.1l0,0
		c0,0,0.1,0.1,0.1,0.1c1.1,0.6,7.8,3.6,27.3,2.2l1.9-0.2C98.2,456.4,105,454.7,111.4,451.9z"/>
</g>
<path id="r-thigh" class="st2" d="M161.4,412.6c0,0-4.2,12.5-16.7,12.6c-12.8,0.1-17.6-12.6-17.6-12.6s-12.3-52.1-9.7-88.4
	c1.1-14.9,9-31.8,25-31.8s23.6,19.9,24.6,26.9C170.2,344.7,161.4,412.6,161.4,412.6z"/>
<g id="r-calf">
	<path class="st3" d="M170.5,455.8c0.7-6.9-50.6-5.7-49.4,3s20.6,9.1,28,9C158.1,467.5,170,460.5,170.5,455.8z"/>
	<path class="st0" d="M106,532.6l2.5,4.3c0,0,8.3,1.8,23.6,1.4s30.1-1.9,30.1-1.9l0.5-5.1c0,0-9.5-6.3-10.3-6.2S106,532.6,106,532.6
		z"/>
	<path class="st2" d="M156.6,519.2l-21.9-2.7l-7.6-103.9l34.2,0.7c0,0,4.4,15.6,4.3,30.5C165.5,463.6,156.6,519.2,156.6,519.2z"/>
	<path class="st4" d="M170.5,455.8v0.2l0,0l-0.8,7.4l-7.2,68c1,1.9-7,0.6-14.5,1.8c-16.7,2.5-42.1-0.6-42.1-0.6l-2.5-7
		c-1.6-2.2,11.4-5.1,13.8-6.4l9.9-15.3l-5-38l-0.9-7.1l0,0c0,0,0.1,0.1,0.1,0.1c1.1,0.6,7.8,3.6,27.3,2.2l1.9-0.2
		C157.4,460.3,164.2,458.6,170.5,455.8z"/>
	<path class="st0" d="M123.6,502.1c2.2-1.7,3.8-1.6,10.9-0.7c14.3,1.8,28,10.4,28,30c0,0-9.4-22.1-37.8-24
		C120.3,507.2,122.8,502.8,123.6,502.1z"/>
	<path class="st0" d="M170.5,455.8v0.2l0,0l-0.8,7.4c-7.3,3.6-15.3,5.6-23.4,6c-13.5,0.5-22-1.2-24.3-3.5l-0.9-7.1l0,0
		c0,0,0.1,0.1,0.1,0.1c1.1,0.6,7.8,3.6,27.3,2.2l1.9-0.2C157.4,460.3,164.2,458.6,170.5,455.8z"/>
</g>
<g id="torso">
	<path class="st5" d="M174.7,30.5c-10.1-13.2-45.8-29-62.5-29s-52.4,15.8-62.5,29c-16,20.9,7.7,56.6,7.7,79.6
		c3,11.6,29.9,25.6,52.5,25.6s53.2-14.4,57.2-25.6C167.1,85.8,190.7,51.5,174.7,30.5z"/>
	<path class="st6" d="M174.7,30.5c-10.1-13.2-45.8-29-62.5-29s-52.4,15.8-62.5,29c-16,20.9,7.7,56.6,7.7,79.6
		c3,11.6,29.9,25.6,52.5,25.6s53.2-14.4,57.2-25.6C167.1,85.8,190.7,51.5,174.7,30.5z"/>
	<path class="st7" d="M64.7,26.1c0,0-13.1,6.2-13.8,18.4s4.7,25,4.7,25l5.5-1.7c0,0-5.3-18.8-3.6-24.7c2-7,6.7-11.5,12-14.6
		L64.7,26.1z"/>
	<polygon class="st7" points="79.1,23 74.3,25.8 69.4,22.8 74.3,20 	"/>
	<path class="st4" d="M112.8,274.8c-33-1.3-59.8,2-59.8,7.5l6.1,0.2c0-4.9,24-7.9,53.7-6.7s53.7,6.1,53.7,11l6.1,0.2
		C172.6,281.7,145.8,276.1,112.8,274.8z"/>
	<path class="st8" d="M9.2,162.1c7.2,19.6,24.8,37,37.5,38.7s20.5-13.7,17.4-34.4C61,145.8,43.4,128,31.3,124
		C11.4,117.5,1.2,140.4,9.2,162.1z"/>
	<path id="hips" class="st2" d="M166.1,347.3c-11.2,16.2-40.1,4.6-53.4,3.3c-3.6-0.4-8.7-0.7-14.5-1.1
		c-21.9-1.4-38.9-19.6-38.9-41.5v-10.7h106.7C166.1,297.4,176.6,332.2,166.1,347.3z"/>
	<path class="st2" d="M165.4,296.5c-18.4,37-85.5,37-103.8,0c0-36-50.3-87.1-32.3-168.5c22-18.7,41.2-31.7,84.2-31.7
		s86.1,29,104.6,47.5C218.1,201.6,165.4,260.5,165.4,296.5z"/>
	<path class="st9" d="M29.3,128.1c-10.6,55,14.8,90.7,27.9,122.5s14.3,58,14.3,58"/>
	<path class="st9" d="M204,139.9c-41.1,30-73.7,74-85.1,108.5c-10.9,32.7-7.7,60.2-7.7,60.2"/>
	<path class="st10" d="M53.9,109.3c3.2,12.3,26.7,27.2,55.8,27.2c38.1,0,56.6-15.4,60.9-27.2"/>
	<path class="st4" d="M196.1,122.9c-16.8,5.2-37.5,20.7-80.7,47.2c-19.8,12.1-31.3,10.6-31.3,10.6s-11.8-6.2-25-20.2
		c-23.4-25.1-15.6-45.4-15.6-45.4l-20,11.9c0,0-10.2,17.9,8.9,36.6s40.2,28,51.7,29.5c14.4,4.9,43.3-8.2,66.7-21
		s50.1-32.2,65.1-33.4C211,134.2,200.5,126,196.1,122.9z"/>
	<path class="st0" d="M82.1,219.9l-12.4-18.4c-0.7-1.1-0.7-2.5,0-3.5l12.4-18.4c0.6-1.1,2.1-1.5,3.2-0.8c0.3,0.2,0.6,0.5,0.8,0.8
		L98.5,198c0.7,1.1,0.7,2.5,0,3.5l-12.4,18.4c-0.6,1.1-2.1,1.5-3.2,0.8C82.6,220.6,82.3,220.3,82.1,219.9z"/>
	<polygon class="st4" points="76.2,199.8 84.1,188.1 92,199.8 84.1,211.4 	"/>
	<path class="st4" d="M172.6,287.1v20.2c0,5.5-26.8,8.8-59.8,7.5S53,308,53,302.5v-20.2c0,5.5,26.8,11,59.8,12.3
		S172.6,292.6,172.6,287.1z"/>
	<path class="st4" d="M112.8,293.6c-29.6-1.2-53.7-6.1-53.7-11l-6.1-0.2c0,5.5,26.8,11,59.8,12.3s59.8-2,59.8-7.5l-6.1-0.2
		C166.5,291.8,142.4,294.8,112.8,293.6z"/>
	<ellipse class="st0" cx="84.1" cy="302.9" rx="14.7" ry="19.4"/>
	<polygon class="st4" points="84.1,315.7 76.6,302.9 84.1,290.1 91.6,302.9 	"/>
	<path class="st4" d="M227.7,184.5c-9.7,18.5-29.4,33.4-42.2,33.4s-18.5-16.3-12.7-36.4s25.5-35.4,38.1-37.8
		C231.4,139.9,238.5,163.9,227.7,184.5z"/>
	<path class="st8" d="M213,196.9c-8.1,11.7-17.9,21-26.7,19.3s-10.3-14.9-3.3-29.3s20-24.6,28.8-22.8
		C225.3,166.9,219.4,187.7,213,196.9z"/>
</g>
<g id="r-arm">
	<g>
		<defs>
			<path id="SVGID_1_" d="M219.3,170.8c-0.3-0.9-0.6-1.7-1.1-2.5l0,0l0,0c-1.4-2.2-3.7-3.8-6.3-4.2c-8.9-1.8-21.8,8.4-28.8,22.8
				c-3,6.2-4.5,12.1-4.4,17.1l0,0l-16.6,153.8c50.8,93.1,87.5-18.9,85.5-42.7C238.5,210.3,219.3,170.8,219.3,170.8z"/>
		</defs>
		<clipPath id="SVGID_2_">
			<use xlink:href="#SVGID_1_"  style="overflow:visible;"/>
		</clipPath>
		<g class="st11">
			<path class="st0" d="M203.2,146.7c3.7,3.8,7,7.9,9.8,12.4c2.6,4.1,4.8,8.4,6.7,12.9c3.3,8,5.6,16.4,7,25
				c1.2,7.8,1.9,15.6,2.1,23.4c0.2,7.6,0,15-0.5,22.3c-0.1,1.8-0.3,3.6-0.4,5.5l-0.5,5.2c-0.3,3.5-0.7,6.9-1.1,10.4
				c-0.8,6.9-1.6,13.8-2.5,20.7s-1.9,13.8-3,20.6c-0.5,3.4-1.1,6.9-1.7,10.3c-0.6,3.5-1.2,6.8-1.9,10.4l-26.8-3
				c0.1-3.1,0.1-6.6,0.1-9.9s0-6.7-0.1-10c-0.1-6.7-0.3-13.4-0.5-20.1c-0.2-6.7-0.6-13.4-1-20c-0.2-3.3-0.4-6.7-0.7-10l-0.4-5
				c-0.1-1.6-0.3-3.2-0.4-4.7c-0.6-6.3-1.5-12.5-2.6-18.4c-1.1-5.7-2.5-11.3-4.4-16.8c-1.6-4.7-3.7-9.3-6.4-13.5
				c-1.8-3-4.4-5.6-7.3-7.5L203.2,146.7z"/>
			<line class="st1" x1="191.1" y1="306.3" x2="219.5" y2="308.5"/>
			<line class="st1" x1="187" y1="234.6" x2="228.1" y2="232.7"/>
			<line class="st1" x1="173.1" y1="192.5" x2="217.4" y2="167.9"/>
			<line class="st1" x1="184" y1="218.4" x2="227.9" y2="212.2"/>
			<line class="st1" x1="179.4" y1="203.8" x2="225" y2="190.7"/>
			<line class="st1" x1="188.8" y1="251.9" x2="226.8" y2="252.4"/>
			<line class="st1" x1="190" y1="270" x2="224.7" y2="271.2"/>
			<line class="st1" x1="190.7" y1="288.1" x2="222.3" y2="289.9"/>
		</g>
	</g>
</g>
<g id="r-hand">
	<path class="st4" d="M199.5,358.9c0.3,3.4-5.6,9.3-4.4,13.1c0.5,1.7,2.3,4.5,7.2,3.3c0.3,0.5,0.6,0.9,1.1,1.2
		c0.7,0.6,1.6,0.9,2.5,0.9c3.1-0.2,5.9-1.5,8-3.8c1.4-0.3,2.8-0.8,4-1.6c6.3-3.9,8.6-13.2,8.6-20.5c-0.1-10.2-7.1-22.6-7.1-22.6
		s-26.9-11.5-27.8,0s4.8,18.4,4.8,18.4S199.1,353.7,199.5,358.9z"/>
	<path class="st4" d="M193,325.7c0,0-4.9,8.4-6.5,13s-8.2,16.8-3.1,18.6s8.7-0.7,10.8-5.3s10.8-4.4,11.7-6.9S212.8,322,193,325.7z"
		/>
	<path class="st4" d="M217.8,330.3h-26.1c-3.6,0-6.5-2.9-6.5-6.5v0c0-3.6,2.9-6.5,6.5-6.5h26.1c3.6,0,6.5,2.9,6.5,6.5v0
		C224.3,327.4,221.4,330.3,217.8,330.3z"/>
	<path class="st8" d="M202.3,375.3c0.3,0.5,0.6,0.9,1.1,1.2c2.2-3.2,7.2-10.5,8.5-13.6c1.6-4-1.4-11.6-1.6-12.2
		c0.1,0.5,1.4,7.2,0,10.6C208.8,364.7,202.3,375.3,202.3,375.3z"/>
	<path class="st8" d="M213.9,373.6c1.4-0.3,2.8-0.8,4-1.6c1.5-3.3,3.3-7.5,3.7-9.9c0.5-3.8,0.1-7.7-0.9-11.4c0.1,0.5,1.3,5.9,0,9.9
		C219.3,364.7,213.9,373.6,213.9,373.6z"/>
</g>
<g id="l-hand">
	<path class="st4" d="M50.3,343.7c0.1,2.1-1.2,4-3.2,4.8c-0.8,0.3-1.7,0.5-2.6,0.6c-0.1,0.5-0.4,1-0.7,1.5c-0.5,0.8-1.2,1.3-2.1,1.7
		c-1.9,0.5-4,0.5-5.9,0c-1-0.2-2-0.6-2.9-1.2c-1.4,0.2-2.9,0.1-4.3-0.3c-7.2-1.8-12.3-9.9-14.6-16.8c-3.1-9.7-0.3-23.7-0.3-23.7
		s22-19.3,26.4-8.6s1.2,19,1.2,19s-0.6,6.9,0.6,12C42.8,335.9,50.2,339.7,50.3,343.7z"/>
	<path class="st4" d="M12.3,302.9c0,0-5.2,8.2-6.9,12.8s-8.7,16.5-3.7,18.5s8.7-0.4,11-5s11-4.1,11.9-6.5S32.2,299.9,12.3,302.9z"/>
	<path class="st4" d="M13.4,294.6l26.1,0.8c3.6,0.1,6.4,3.1,6.3,6.7v0c-0.1,3.6-3.1,6.4-6.7,6.3L13,307.6c-3.6-0.1-6.4-3.1-6.3-6.7
		l0,0C6.8,297.3,9.8,294.5,13.4,294.6z"/>
	<path class="st8" d="M37.1,347.7c-0.4,1.5-0.8,3-1.3,4.5c-1-0.2-2-0.6-2.9-1.2c1.2-1.8,3.1-4.7,0.2-7.3c-2.2-2.1-4.2-4.3-6-6.7
		c-0.1-0.2-1.1-7.2-1.1-7.2s2.4,6.9,3.9,8.6C34.7,344.2,37.6,345.6,37.1,347.7z"/>
	<path class="st8" d="M44.5,349c0.4-1.1,0.6-2.2,0.3-3.3c-0.4-1.8-3.7-4.2-5.5-6.1c-1.4-1.5-3.2-2.5-3.9-5s-1.1-5.1-1.2-5.4
		c1.1,2.4,2.4,4.6,4,6.7c2.3,2.9,8.2,7.6,8.7,10c0.1,0.8,0.2,1.7,0.1,2.5C46.3,348.8,45.4,349,44.5,349z"/>
</g>
<g id="head">
	<polygon class="st12" points="85.8,80.7 70.7,74.2 72.1,69.9 88.1,73.3 	"/>
	
		<ellipse transform="matrix(0.3007 -0.9537 0.9537 0.3007 -20.2418 114.2781)" class="st12" cx="67.8" cy="70.9" rx="5.8" ry="1.4"/>
	<path class="st12" d="M66.3,76.4l4.4-2.2c1-1.2,1.5-2.7,1.4-4.3l-2.4-4.4L66.3,76.4z"/>
	<path class="st13" d="M144.8,112.4c-7.6,6.1-24.2,12.6-38.9,12.6s-24.1-7.7-30.3-12.9c-5.6-4.7-7.8-13.6-6.1-20.6
		c1.5-6.4,10.5-14,9.8-21.3c-0.2-1.8-0.2-3.7-0.1-5.6c1.3-19.1,17.9-33.6,37-32.3c18.2,1.2,32.3,16.3,32.4,34.5c0,1,0,2-0.1,3
		c-0.6,7.4-0.7,16.3,0.9,21.6C151.6,98.7,149.5,108.7,144.8,112.4z"/>
	<g>
		<defs>
			<path id="SVGID_3_" d="M81.6,74.2c0,0,10.1-4.5,13.5,4.6s-1.6,17-1.6,17s-9.4,1.8-13.6-8.2C77.1,81,81.6,74.2,81.6,74.2z"/>
		</defs>
		<clipPath id="SVGID_4_">
			<use xlink:href="#SVGID_3_"  style="overflow:visible;"/>
		</clipPath>
		<g class="st14">
			<polygon class="st7" points="94,98.5 73.3,92.2 81.8,69.7 102.5,76 			"/>
			
				<ellipse transform="matrix(0.5308 -0.8475 0.8475 0.5308 -27.3812 117.4714)" class="st15" cx="92.4" cy="83.5" rx="8.9" ry="7.7"/>
			<ellipse transform="matrix(0.5308 -0.8475 0.8475 0.5308 -27.3812 117.4714)" cx="92.4" cy="83.5" rx="4.1" ry="3.5"/>
			<path class="st16" d="M95,95.9c0,0,3.4-12.1-0.7-17.5s-11.8-4.5-14.2-1.1c-1.4-5.5,9.8-8.6,9.8-8.6l13.1,10.1L95,95.9z"/>
		</g>
	</g>
	<g>
		<defs>
			<path id="SVGID_5_" d="M129.1,77.4c0,0-9.4-6.5-15.8,1.7c-3.8,4.7-5.2,11-3.7,16.9c0,0,9.4,3.7,17.1-5.2
				C131.8,84.9,129.1,77.4,129.1,77.4z"/>
		</defs>
		<clipPath id="SVGID_6_">
			<use xlink:href="#SVGID_5_"  style="overflow:visible;"/>
		</clipPath>
		<g class="st17">
			
				<rect x="107.3" y="73.9" transform="matrix(0.9968 -7.985101e-02 7.985101e-02 0.9968 -6.466 9.8029)" class="st7" width="24.1" height="23.7"/>
			<circle class="st15" cx="122.1" cy="83.6" r="8.7"/>
			<circle cx="122.1" cy="83.6" r="4"/>
			<path class="st16" d="M108,95.7c0,0,0.2-12.4,6.2-16.8s12.8-1.6,16.8,1.8c5.1-4.8-9.1-10.3-9.1-10.3l-17.2,7.1L108,95.7z"/>
		</g>
	</g>
	<path class="st4" d="M113,104.8c0,1.5,0.2,3,0.4,4.5c0.2,0.8,0.1,1.7-0.1,2.5c-0.3,0.8-0.9,1.5-1.6,2c-1.4,0.8-3,1.3-4.6,1.4
		c-1.6,0.2-3.1,0.2-4.7,0.1c-1.5-0.1-3.1-0.2-4.6-0.4c-1.6-0.2-3.1-0.5-4.6-1c-1.6-0.4-3.1-1.3-4.2-2.5c-0.6-0.7-1-1.5-1.2-2.4
		c-0.1-0.9,0-1.7,0.3-2.5v-0.1l0,0c0.5-0.7,1-1.5,1.4-2.3c0.5-0.8,0.8-1.6,1.1-2.5c0,0.9-0.2,1.8-0.5,2.7c-0.3,0.9-0.7,1.7-1.1,2.6
		l0.1-0.1c-0.4,1.3,0,2.6,1,3.5c1.1,0.9,2.3,1.5,3.7,1.8c1.4,0.4,2.9,0.6,4.3,0.8c1.5,0.2,3,0.4,4.5,0.4c1.5,0.1,2.9,0.1,4.4,0.1
		c1.4,0,2.8-0.3,4.1-0.9c0.6-0.3,1-0.7,1.3-1.3c0.3-0.6,0.4-1.3,0.4-2C112.5,107.8,112.7,106.3,113,104.8z"/>
	<path class="st4" d="M92.5,101.7c-0.9,0.3-1.6,0.4-2.3,0.7c-0.3,0.1-0.7,0.2-1,0.4c-0.4,0.2-0.7,0.4-1.1,0.6
		c0.1-0.5,0.3-0.9,0.6-1.2c0.3-0.3,0.7-0.6,1.2-0.7c0.4-0.1,0.9-0.2,1.3-0.1C91.7,101.3,92.2,101.4,92.5,101.7z"/>
	<path class="st4" d="M110.7,103.3c0.4-0.1,0.9,0,1.3,0.1c0.4,0.1,0.8,0.4,1.1,0.6c0.3,0.3,0.6,0.7,0.8,1.1c0.2,0.4,0.2,0.9,0,1.3
		c-0.2-0.3-0.4-0.6-0.7-0.9c-0.2-0.3-0.5-0.5-0.8-0.8C111.9,104.3,111.3,103.9,110.7,103.3z"/>
	<path class="st4" d="M79.4,69.5c1.2-1,2.4-1.9,3.8-2.7c0.6-0.4,1.3-0.7,2-1c0.7-0.3,1.4-0.6,2.1-0.9c1.5-0.4,3-0.6,4.5-0.4
		c0.7,0.1,1.5,0.3,2.2,0.5c0.4,0.1,0.7,0.2,1.1,0.4l0.6,0.2c0.2,0.1-1.7,5.7-1.9,5.5c-0.3-0.2-0.5-0.3-0.8-0.4
		c-0.5-0.3-1.1-0.5-1.7-0.6c-1.1-0.3-2.3-0.4-3.4-0.2c-0.6,0.1-1.2,0.3-1.8,0.5c-0.6,0.2-1.2,0.4-1.8,0.7c-1.2,0.5-2.4,1.1-3.5,1.9
		L79.4,69.5z"/>
	<path class="st4" d="M132.9,74.3c-2,0.6-4,1-6,1.3c-1,0.2-2,0.3-3,0.3c-1,0.1-2.1,0.1-3.1,0.1c-2.2-0.1-4.3-0.5-6.4-1.2
		c-1-0.4-2-0.8-3-1.2c-0.5-0.2-1-0.5-1.4-0.8c-0.2-0.1-0.5-0.3-0.7-0.4s3.7-4.9,4-4.7s0.7,0.5,1,0.7c0.7,0.4,1.4,0.8,2.2,1.2
		c1.5,0.7,3.1,1.2,4.7,1.4c0.9,0.1,1.7,0.1,2.6,0.2c0.9,0,1.8,0,2.7,0c1.8-0.1,3.6-0.3,5.4-0.6L132.9,74.3z"/>
	<path class="st18" d="M112.8,29.9c0,0,5.4-7.4,17.7-7.2s17.2,5.9,19.1,9.4c1.9,3.4,1.1,7.2-2.4,8.6s-8-4.3-14-6.5
		c-7.6-2.8-8.6-1-12.7-0.3C117.3,34.5,110.8,32.3,112.8,29.9z"/>
	<path class="st18" d="M97.7,44.4c0,0-9.9,3.3-15.3,8.1c-4.1,3.7-10,5.3-15.1,1.7s-7.7-19.8,18.6-20.9s28.9,0,28.9,0v9.1
		C109.1,42.3,103.3,42.9,97.7,44.4z"/>
	<path class="st18" d="M118.5,34.4c-1.7-3.8-6.5-9.6-21.9-9.7s-25.9,6.8-19.8,13.9s11.8-0.2,14.2-0.8s15.1-2.8,20.7,1
		S119.8,37.2,118.5,34.4z"/>
	<path class="st18" d="M113.5,35.4c0,0-11.8-0.5-16.8,12.4s-2,21.1,3.1,21.6s10.6-4.2,11.6-13.2s5.6-14.4,10.8-15.7
		S121.1,33.5,113.5,35.4z"/>
	<path class="st18" d="M116.6,32.6c0,0,8.5-6.7,32.6,5.9c22.3,11.7,13.8,24.7,10.4,26.9s-12-0.1-14.3-11s-28.1-17.5-28.1-17.5
		L116.6,32.6z"/>
	<path class="st18" d="M119,35.2c0,0,10.9,0.4,18.2,6.8c6.3,5.4,9.4,13.6,8.3,21.8c-0.9,6.9-12,10.4-17.9,6.9s-5.8-9.9-4.7-15.6
		s-0.7-13.6-6.2-15S112.8,36.5,119,35.2z"/>
	<polygon class="st13" points="139.3,85.4 154.9,80.3 153.9,75.9 137.6,77.9 	"/>
	
		<ellipse transform="matrix(0.9763 -0.2163 0.2163 0.9763 -12.9763 36.0226)" class="st13" cx="158.1" cy="77.3" rx="1.4" ry="5.8"/>
	<path class="st13" d="M159.1,82.9l-4.2-2.6c-0.5-0.6-0.8-1.3-0.9-2.1c-0.2-0.8-0.2-1.5,0-2.3l2.7-4.1L159.1,82.9z"/>
</g>
</svg>
