<?xml version="1.0" encoding="utf-8"?>
<!-- Generator: Adobe Illustrator 25.2.0, SVG Export Plug-In . SVG Version: 6.00 Build 0)  -->
<svg version="1.1" id="Layer_1" xmlns="http://www.w3.org/2000/svg" xmlns:xlink="http://www.w3.org/1999/xlink" x="0px" y="0px"
	 viewBox="0 0 163.3 537.1" style="enable-background:new 0 0 163.3 537.1;" xml:space="preserve">
<style type="text/css">
	.st0{fill:#C7DB52;}
	.st1{fill:#59104A;}
	.st2{fill:#5FB0AA;}
	.st3{fill:#77185E;}
	.st4{fill:#DAE78D;}
	.st5{fill:none;stroke:#C7DB52;stroke-width:2;stroke-linecap:round;stroke-miterlimit:10;}
	.st6{opacity:0.2;fill:#9AE0E2;enable-background:new    ;}
	.st7{fill:none;stroke:#9AE0E2;stroke-width:3;stroke-miterlimit:10;}
	.st8{fill:#FFFFFF;}
	.st9{fill:none;stroke:#5FB0AA;stroke-width:8.51;stroke-linecap:round;stroke-miterlimit:10;}
	.st10{fill:#541146;}
	.st11{clip-path:url(#SVGID_2_);}
	.st12{fill:none;stroke:#4A8F91;stroke-width:4.07;stroke-miterlimit:10;}
	.st13{fill:#E95BA6;}
	.st14{fill:#F7E731;}
	.st15{fill:#B34582;}
	.st16{clip-path:url(#SVGID_4_);}
	.st17{fill:#5F1B75;}
	.st18{fill:#470B35;}
</style>
<path id="b-thigh" class="st0" d="M87.1,407.4c0,0-4.2,12.5-16.7,12.6c-12.8,0.1-17.6-12.6-17.6-12.6s-12.3-52.1-9.7-88.4
	c1-14.9,9-31.8,25-31.8s23.6,19.9,24.6,26.9C95.9,339.4,87.1,407.4,87.1,407.4z"/>
<g id="b-calf">
	<path class="st1" d="M96.3,450.5c0.7-6.9-50.6-5.7-49.4,3s20.6,9.1,28,9C83.9,462.2,95.7,455.3,96.3,450.5z"/>
	<path class="st2" d="M14.4,526.2l3.1,5.5c0,0,24.8,0.3,40,0s33.3-0.4,33.3-0.4l-2.5-5.1c0,0-9.5-6.3-10.3-6.2
		S14.4,526.2,14.4,526.2z"/>
	<path class="st0" d="M82.3,513.9l-21.9-2.7l-7.6-103.9L87,408c0,0,4.4,15.6,4.3,30.5C91.2,458.3,82.3,513.9,82.3,513.9z"/>
	<path class="st3" d="M96.3,450.5v0.2l0,0l-0.8,7.4l-7.2,68c1,1.9-7.3,2.1-27.8,0.7c-19-1.2-46.1-0.7-46.1-0.7l-3.1-4.2
		c-1.5-2-1-4.9,1-6.3c0.1-0.1,0.2-0.2,0.3-0.2l40.1-16.7l-5-38l-1-7.1l0,0c0,0,0.1,0.1,0.1,0.1c1.1,0.6,7.8,3.6,27.3,2.2l1.9-0.2
		C83.1,455,89.9,453.3,96.3,450.5z"/>
	<path class="st2" d="M49.3,496.9c2.2-1.7,4.2-3.5,11-0.7c7.9,3.3,19.7,8.4,28,30c0,0-26.2-24.1-39.9-25
		C44,500.9,48.5,497.5,49.3,496.9z"/>
	<path class="st2" d="M96.3,450.5v0.2l0,0l-0.8,7.4c-7.3,3.6-15.3,5.6-23.4,6c-13.5,0.5-22-1.2-24.3-3.5l-1-7.1l0,0
		c0,0,0.1,0.1,0.1,0.1c1.1,0.6,7.8,3.6,27.3,2.2l1.9-0.2C83.1,455,89.9,453.3,96.3,450.5z"/>
</g>
<path id="f-thigh" class="st4" d="M111,412.6c0,0-4.2,12.5-16.7,12.6c-12.8,0.1-17.6-12.6-17.6-12.6s-12.3-52.1-9.7-88.4
	c1-14.9,9-31.8,25-31.8s23.6,20,24.5,26.9C119.8,344.7,111,412.6,111,412.6z"/>
<g id="f-calf">
	<path class="st1" d="M120.2,455.8c0.7-6.9-50.6-5.7-49.4,3s20.6,9.1,28,9C107.8,467.5,119.7,460.5,120.2,455.8z"/>
	<path class="st2" d="M38.3,531.4l3.1,5.5c0,0,24.8,0.3,40,0s33.3-0.4,33.3-0.4l-2.5-5.1c0,0-9.5-6.3-10.3-6.2
		S38.3,531.4,38.3,531.4z"/>
	<path class="st4" d="M106.3,519.2l-21.9-2.7l-7.6-103.9l34.2,0.7c0,0,4.4,15.6,4.3,30.5C115.1,463.6,106.3,519.2,106.3,519.2z"/>
	<path class="st3" d="M120.2,455.8v0.2l0,0l-0.8,7.4l-7.2,68c1,1.9-7.3,2.1-27.8,0.7c-19-1.2-46.1-0.7-46.1-0.7l-3.1-4.2
		c-1.5-2-1-4.9,1-6.3c0.1-0.1,0.2-0.1,0.3-0.2l40.1-16.7l-5-38l-0.9-7.1l0,0c0,0,0.1,0.1,0.1,0.1c1.1,0.6,7.8,3.6,27.3,2.2l1.9-0.2
		C107,460.3,113.8,458.6,120.2,455.8z"/>
	<path class="st2" d="M73.3,502.1c2.2-1.7,4.2-3.5,10.9-0.7c7.9,3.3,19.7,8.4,28,30c0,0-26.2-24.1-39.9-25
		C67.9,506.2,72.4,502.8,73.3,502.1z"/>
	<path class="st2" d="M120.2,455.8v0.2l0,0l-0.8,7.4c-7.3,3.6-15.3,5.6-23.4,6c-13.5,0.5-22-1.2-24.3-3.5l-0.9-7.1l0,0
		c0,0,0.1,0.1,0.1,0.1c1.1,0.6,7.8,3.6,27.3,2.2l1.9-0.2C107,460.3,113.8,458.6,120.2,455.8z"/>
</g>
<path id="hips" class="st4" d="M70.2,355c-9-1.1-19.3-5.3-25-12.1c-10.1-12.2-18.7-45.5-18.7-45.5h96.6c0,0,6.3,8.2-1.6,37.5
	C116.5,353.6,83.9,356.6,70.2,355z"/>
<g id="torso">
	<path class="st3" d="M74.2,272.4c-31.4,0-56.8,4.4-56.8,9.9h5.8c0-4.9,22.8-8.8,51-8.8s51,4,51,8.8h5.8
		C131,276.8,105.5,272.4,74.2,272.4z"/>
	<path class="st4" d="M123.1,296.5c-17.3,37-80.6,37-97.9,0c0-36-33.2-62.2-23.4-118.1c0.6-3.2,1.4-6.3,2.4-9.3l0,0
		c2.8-7.9,6.5-15.4,11.3-22.3l0,0c11.9-17.7,29.9-38.9,54-49c41.4-17.2,76.8,20.2,80.9,46.1C161,210.3,123.1,260.5,123.1,296.5z"/>
	<path class="st5" d="M115.3,135.7c-31.2,0.8-74.8,54.5-75.2,108.2c-0.2,34.4-1.7,64.8-1.7,64.8"/>
	<path class="st3" d="M131,282.3v20.2c0,5.5-25.4,9.9-56.8,9.9s-56.8-4.5-56.8-9.9v-20.2c0,5.5,25.4,9.9,56.8,9.9
		S131,287.8,131,282.3z"/>
	<path class="st3" d="M6.9,180.7v12.4c0,0-4.8-11.3-2.7-24l0,0c2.8-7.9,6.5-15.4,11.3-22.3C14.9,148,3.1,170.8,6.9,180.7z"/>
	<path class="st3" d="M74.2,291.1c-28.2,0-51-4-51-8.8h-5.8c0,5.5,25.4,9.9,56.8,9.9s56.8-4.4,56.8-9.9h-5.8
		C125.1,287.2,102.3,291.1,74.2,291.1z"/>
	<path class="st6" d="M144.4,30.5c-10.1-13.2-45.8-29-62.5-29s-52.4,15.8-62.5,29c-16,20.9,7.7,74.6,7.7,97.6
		c3,11.6,27.4,14.4,49.9,12.3s51.5-17.5,55.5-28.7C132.3,87.4,160.3,51.5,144.4,30.5z"/>
	<path class="st7" d="M144.4,30.5c-10.1-13.2-45.8-29-62.5-29s-52.4,15.8-62.5,29c-16,20.9,7.7,74.6,7.7,97.6
		c3,11.6,27.4,14.4,49.9,12.3s51.5-17.5,55.5-28.7C132.3,87.4,160.3,51.5,144.4,30.5z"/>
	<path class="st8" d="M34.4,26.1c0,0-13.1,6.2-13.8,18.4s4.7,25,4.7,25l5.5-1.7c0,0-5.3-18.8-3.6-24.7c2-7,6.7-11.5,12-14.6
		L34.4,26.1z"/>
	<polygon class="st8" points="48.8,23 43.9,25.8 39,22.8 43.9,20 	"/>
	<path class="st9" d="M27.9,128.1c3.2,12.3,23.2,15.9,51.4,8.4c36-9.6,48.7-12.9,53-24.8"/>
	<path class="st3" d="M6.9,193.1c23.9-21,35.2-25.1,57.8-39.3c9.6-6.1,27.1-11.8,38.9-14.2c29.1-5.9,48.7,13.6,48.7,13.6
		s-2.6-14.9-7.4-25.7c-3.6-4.6-22.2-9-48.1-2.7C84,127.9,63,136.2,50.7,144.7c-28.6,19.8-43.8,36-43.8,36L6.9,193.1z"/>
	<path class="st2" d="M6,221.6l-5.7-18.4c-0.3-1.2-0.3-2.4,0-3.5L6,181.2c0.5-1.5,1.4-1.5,1.8,0l5.7,18.4c0.3,1.2,0.3,2.4,0,3.5
		l-5.7,18.4C7.4,223.1,6.5,223.1,6,221.6z"/>
	<polygon class="st3" points="3.3,201.4 6.9,189.7 10.5,201.4 6.9,213.1 	"/>
	<ellipse class="st2" cx="24" cy="298.5" rx="7.8" ry="19.4"/>
	<polygon class="st3" points="24,311.3 20,298.5 24,285.6 27.9,298.5 	"/>
	<path class="st3" d="M134.5,178.4c0,20.2-13.4,33-30.7,39.9c-16.6-5.8-30.7-19.7-30.7-39.9s13.7-33.3,30.7-33.3
		S134.5,158.2,134.5,178.4z"/>
	<path class="st10" d="M128.2,187.7c0,15-10.6,24.4-24.3,29.6c-13.1-4.3-24.3-14.6-24.3-29.6s10.9-24.6,24.3-24.6
		S128.2,172.7,128.2,187.7z"/>
</g>
<g id="f-arm">
	<g>
		<defs>
			<path id="SVGID_1_" d="M130.1,189.7c0-15-12.8-26.6-26.2-26.6s-24.3,9.7-24.3,24.6l4.4,19.7L47.8,341.5l57.8,58.6l57.8-42.3
				L130.1,189.7z"/>
		</defs>
		<clipPath id="SVGID_2_">
			<use xlink:href="#SVGID_1_"  style="overflow:visible;"/>
		</clipPath>
		<g class="st11">
			<path class="st2" d="M112.7,143.3c4.3,7.7,7.8,15.8,10.5,24.2c2.5,7.9,4.5,15.9,5.9,24c2.7,15.6,3.8,31.4,3.2,47.1
				c-0.1,1.9-0.2,3.9-0.3,5.9c-0.1,1.9-0.2,4-0.4,5.7c-0.4,3.6-0.7,7.2-1.1,10.9c-0.8,7.2-1.6,14.4-2.6,21.6s-2,14.4-3.1,21.5
				c-0.6,3.6-1.2,7.2-1.8,10.7c-0.6,3.6-1.2,7.1-2,10.9c-1.4,7.3-8.5,12.2-15.8,10.8c-6.5-1.2-11.1-6.9-11-13.5v-0.3
				c0.1-3.3,0.1-6.9,0.1-10.3s0-7-0.1-10.5c-0.1-7-0.3-14-0.6-21s-0.6-13.9-1.1-20.9c-0.2-3.5-0.5-6.9-0.7-10.4
				c-0.1-1.8-0.3-3.3-0.4-4.9s-0.3-3.2-0.5-4.8c-1.5-12.6-4.2-25-8.3-37c-1.9-5.7-4.3-11.2-7-16.6c-2.4-4.9-5.3-9.5-8.7-13.7
				c-9.6-11.6-7.9-28.8,3.7-38.4s28.8-7.9,38.4,3.7c0.1,0.1,0.2,0.3,0.3,0.4c0.9,1.2,1.8,2.4,2.5,3.7L112.7,143.3z"/>
			<line class="st12" x1="95" y1="305.6" x2="123.4" y2="307.8"/>
			<line class="st12" x1="90.5" y1="231.3" x2="131.6" y2="228.1"/>
			<line class="st12" x1="74.8" y1="183.7" x2="121.3" y2="163.6"/>
			<line class="st12" x1="86.8" y1="214.4" x2="130.5" y2="206.8"/>
			<line class="st12" x1="81.6" y1="198.3" x2="127.3" y2="185.4"/>
			<line class="st12" x1="92.7" y1="248.8" x2="130.7" y2="249.1"/>
			<line class="st12" x1="93.9" y1="267.6" x2="128.7" y2="268.8"/>
			<line class="st12" x1="94.7" y1="286.6" x2="126.3" y2="288.3"/>
		</g>
	</g>
</g>
<g id="head">
	<path class="st13" d="M119.4,108.6c-7.1,8.1-50.1,19.9-65.8,15.1c-13.4-4.1-19.1-14-16.4-24.1c3.6,1.7,8.4,4.6,13-1.4
		c-2.2,1.3-7.9,4.2-12.6-0.3c2.7-6,7.7-14.3,11-25.3c0.5-1.7,0.6-6,0.7-7.8c1.4-19.1,18.1-33.5,37.2-32c18,1.4,31.9,16.2,32.1,34.2
		c0,1,0,2-0.1,3c-0.6,7.4-4.1,15.5-3.1,21C116.6,98.2,119.5,98.4,119.4,108.6z"/>
	<path class="st14" d="M85.5,29.9c0,0,5.4-7.4,17.7-7.2s17.2,5.9,19.1,9.4c1.9,3.4,1.1,7.2-2.4,8.6s-8-4.3-14-6.5
		c-7.6-2.8-8.6-1-12.7-0.3C89.9,34.5,83.4,32.3,85.5,29.9z"/>
	<path class="st14" d="M70.4,44.4c0,0-10,3.3-15.3,8.1c-4.1,3.7-10,5.3-15.1,1.7s-7.7-19.8,18.6-20.9s28.9,0,28.9,0v9.1
		C81.7,42.3,76,43,70.4,44.4z"/>
	<path class="st14" d="M91.2,34.4c-1.7-3.8-6.5-9.6-21.9-9.7s-25.9,6.8-19.8,13.9s11.8-0.2,14.2-0.8c2.4-0.6,15.1-2.8,20.7,1
		S92.4,37.2,91.2,34.4z"/>
	<path class="st14" d="M86.1,35.4c0,0-11.8-0.5-16.8,12.4s-2,21.1,3.2,21.6s10.6-4.2,11.6-13.2s5.6-14.4,10.8-15.7
		S93.8,33.5,86.1,35.4z"/>
	<path class="st14" d="M89.2,32.6c0,0,8.5-6.7,32.6,5.9c22.3,11.7,13.8,24.7,10.4,26.9s-12-0.1-14.3-11S89.8,36.9,89.8,36.9
		L89.2,32.6z"/>
	<path class="st14" d="M91.6,35.2c0,0,10.9,0.4,18.2,6.8c6.3,5.4,9.4,13.6,8.3,21.8c-0.9,6.9-12,10.4-17.9,6.9s-5.8-9.9-4.7-15.6
		s-0.7-13.6-6.2-15S85.5,36.5,91.6,35.2z"/>
	<path class="st15" d="M83.6,82l6.7-4.1L89,73.6l-7.7,1c0,0-2.4,1.2-1.5,4.3C80.7,82.3,83.6,82,83.6,82z"/>
	<path class="st15" d="M90.3,75.5c1,4.7,3.9,4.9,4.7,4.6s2.8-2,1.1-6.5s-3.8-4.7-4.6-4.5S89.3,70.8,90.3,75.5z"/>
	<path class="st15" d="M94.7,80.1l-4.4-2.2c-0.6-0.6-0.9-1.2-1.1-2c-0.3-0.7-0.3-1.5-0.2-2.3l2.3-4.4L94.7,80.1z"/>
	<path class="st8" d="M63.7,74.1c0,0-2.9-2-5.4-1.1c-3.9,1.4-8.2,6.6-7.1,19.6c0,0,3,2.8,7.5,0.3C63.5,90.2,65.7,77.7,63.7,74.1z"/>
	<g>
		<defs>
			<path id="SVGID_3_" d="M63.7,74.1c0,0-2.9-2-5.4-1.1c-3.9,1.4-8.2,6.6-7.1,19.6c0,0,3,2.8,7.5,0.3C63.5,90.2,65.7,77.7,63.7,74.1
				z"/>
		</defs>
		<clipPath id="SVGID_4_">
			<use xlink:href="#SVGID_3_"  style="overflow:visible;"/>
		</clipPath>
		<g class="st16">
			
				<ellipse transform="matrix(4.152684e-02 -0.9991 0.9991 4.152684e-02 -31.0824 134.3395)" class="st17" cx="54.5" cy="83.4" rx="8.7" ry="4.3"/>
			<ellipse transform="matrix(4.152684e-02 -0.9991 0.9991 4.152684e-02 -31.0824 134.3395)" cx="54.5" cy="83.4" rx="4" ry="2"/>
			<path class="st18" d="M51.1,92.6c0,0-0.8-15.3,5.8-17.2c5.7-1.6,9.5,5.1,9.5,5.1l-0.5-9.1c0,0-8.5-3.1-13.7,4.9
				S51.1,92.6,51.1,92.6z"/>
		</g>
	</g>
	<path class="st3" d="M48.8,97.8c0.4,0,0.9,0.2,1.2,0.4c0.4,0.2,0.7,0.5,1,0.9c0.3,0.4,0.5,0.8,0.5,1.3c0.1,0.5,0,0.9-0.3,1.3
		c-0.1-0.4-0.3-0.7-0.5-1.1c-0.2-0.3-0.4-0.6-0.6-0.9C49.8,99.1,49.3,98.5,48.8,97.8z"/>
	<path class="st3" d="M64.9,68.7c-0.7-1-1.5-1.8-2.4-2.7c-0.4-0.4-0.8-0.7-1.2-1.1c-0.4-0.3-0.8-0.6-1.3-0.9
		c-0.9-0.4-1.9-0.6-2.8-0.4c-0.5,0.1-0.9,0.3-1.4,0.5c-0.2,0.1-0.5,0.3-0.7,0.4l-0.3,0.2c0.2,1.9,0.6,3.7,1.2,5.5
		c0.2-0.2,0.3-0.3,0.5-0.4c0.3-0.2,0.6-0.5,1-0.6c0.7-0.3,1.4-0.4,2.1-0.2c0.4,0.1,0.8,0.3,1.1,0.5c0.4,0.2,0.8,0.4,1.1,0.7
		c0.8,0.5,1.5,1.2,2.2,1.9L64.9,68.7z"/>
</g>
<g id="f-hand">
	<path class="st3" d="M103.4,358.9c0.3,3.4-5.6,9.3-4.4,13.1c0.5,1.7,2.3,4.5,7.2,3.3c0.3,0.5,0.6,0.9,1.1,1.2
		c0.7,0.6,1.6,0.9,2.5,0.9c3.1-0.2,5.9-1.5,8-3.8c1.4-0.3,2.8-0.8,4-1.6c6.3-3.9,8.6-13.2,8.6-20.5c-0.1-10.2-7.1-22.6-7.1-22.6
		s-26.9-11.5-27.8,0s4.8,18.4,4.8,18.4S103,353.7,103.4,358.9z"/>
	<path class="st3" d="M96.9,325.7c0,0-4.9,8.4-6.5,13s-8.2,16.8-3.1,18.6c5.1,1.8,8.7-0.7,10.8-5.3s10.8-4.4,11.7-6.9
		S116.6,322,96.9,325.7z"/>
	<path class="st3" d="M121.7,330.3H95.6c-3.6,0-6.5-2.9-6.5-6.5v0c0-3.6,2.9-6.5,6.5-6.5h26.1c3.6,0,6.5,2.9,6.5,6.5v0
		C128.2,327.4,125.3,330.3,121.7,330.3z"/>
	<path class="st10" d="M106.2,375.3c0.3,0.5,0.6,0.9,1.1,1.2c2.2-3.2,7.2-10.5,8.5-13.6c1.6-4-1.4-11.6-1.6-12.2
		c0.1,0.5,1.4,7.2,0,10.6C112.7,364.7,106.2,375.3,106.2,375.3z"/>
	<path class="st10" d="M117.8,373.6c1.4-0.3,2.8-0.8,4-1.6c1.5-3.3,3.3-7.5,3.7-9.9c0.5-3.8,0.1-7.7-0.9-11.4c0.1,0.5,1.3,5.9,0,9.9
		C123.2,364.7,117.8,373.6,117.8,373.6z"/>
</g>
</svg>
