<?xml version="1.0" encoding="utf-8"?>
<!-- Generator: Adobe Illustrator 25.2.0, SVG Export Plug-In . SVG Version: 6.00 Build 0)  -->
<svg version="1.1" id="Layer_1" xmlns="http://www.w3.org/2000/svg" xmlns:xlink="http://www.w3.org/1999/xlink" x="0px" y="0px"
	 viewBox="0 0 348.5 537.2" style="enable-background:new 0 0 348.5 537.2;" xml:space="preserve">
<style type="text/css">
	.st0{fill:#DAE78D;}
	.st1{fill:#59104A;}
	.st2{fill:#5FB0AA;}
	.st3{fill:#77185E;}
	.st4{fill:none;stroke:#4A8F91;stroke-width:4.07;stroke-miterlimit:10;}
	.st5{opacity:0.2;fill:#9AE0E2;enable-background:new    ;}
	.st6{fill:none;stroke:#9AE0E2;stroke-width:3;stroke-miterlimit:10;}
	.st7{fill:#FFFFFF;}
	.st8{fill:none;stroke:#C7DB52;stroke-width:2;stroke-linecap:round;stroke-miterlimit:10;}
	.st9{fill:none;stroke:#5FB0AA;stroke-width:8.51;stroke-linecap:round;stroke-miterlimit:10;}
	.st10{fill:#541146;}
	.st11{clip-path:url(#SVGID_2_);}
	.st12{fill:#E95BA6;}
	.st13{clip-path:url(#SVGID_4_);}
	.st14{fill:#5F1B75;}
	.st15{fill:#470B35;}
	.st16{clip-path:url(#SVGID_6_);}
	.st17{fill:#F7E731;}
</style>
<path id="r-thigh" class="st0" d="M205,412.7c0,0,4.2,12.5,16.7,12.6c12.8,0.1,17.6-12.6,17.6-12.6s12.3-52.1,9.7-88.4
	c-1-14.9-9-31.8-25-31.8s-23.6,19.9-24.6,26.9C196.2,344.7,205,412.7,205,412.7z"/>
<g id="r-calf">
	<path class="st1" d="M195.8,455.8c-0.7-6.9,50.6-5.7,49.4,3s-20.6,9.1-28,9C208.2,467.6,196.3,460.6,195.8,455.8z"/>
	<path class="st2" d="M266.2,531.5l-3.1,5.5c0,0-13.3,0.3-28.5,0s-33.3-0.4-33.3-0.4l2.5-5.1c0,0,9.5-6.3,10.3-6.2
		S266.2,531.5,266.2,531.5z"/>
	<path class="st0" d="M209.8,519.2l21.9-2.7l7.6-103.9l-34.2,0.7c0,0-4.4,15.6-4.3,30.5C200.9,463.7,209.8,519.2,209.8,519.2z"/>
	<path class="st3" d="M195.8,455.8v0.2l0,0l0.8,7.4l7.2,68c-1,1.9,7.3,2.1,27.8,0.7c19-1.2,34.6-0.7,34.6-0.7l3.1-4.2
		c1.5-2,1-4.9-1-6.3c-0.1-0.1-0.2-0.2-0.3-0.2l-28.6-16.7l5-38l0.9-7.1l0,0c0,0-0.1,0.1-0.1,0.1c-1.1,0.6-7.8,3.6-27.3,2.2l-1.9-0.2
		C209,460.3,202.2,458.6,195.8,455.8z"/>
	<path class="st2" d="M242.7,502.2c-2.2-1.7-4.2-3.5-11-0.7c-7.9,3.3-19.7,8.4-28,30c0,0,26.2-24.1,39.9-25
		C248.1,506.2,243.6,502.9,242.7,502.2z"/>
	<path class="st2" d="M195.8,455.8v0.2l0,0l0.8,7.4c7.3,3.6,15.3,5.6,23.4,6c13.5,0.5,22-1.2,24.3-3.5l0.9-7.1l0,0
		c0,0-0.1,0.1-0.1,0.1c-1.1,0.6-7.8,3.6-27.3,2.2l-1.9-0.2C209,460.4,202.2,458.6,195.8,455.8z"/>
</g>
<path id="hips" class="st0" d="M133,297.4h106.7l0,0V331c0,9.1-7.4,16.4-16.4,16.4h0h-73.9c-9.1,0-16.4-7.4-16.4-16.4l0,0V297.4
	L133,297.4z"/>
<path id="l-thigh" class="st0" d="M167.7,412.7c0,0-4.2,12.5-16.7,12.6c-12.8,0.1-17.6-12.6-17.6-12.6s-12.3-52.1-9.8-88.4
	c1.1-14.9,9-31.8,25-31.8s23.6,19.9,24.6,26.9C176.5,344.7,167.7,412.7,167.7,412.7z"/>
<g id="r-arm">
	<path class="st2" d="M280.9,141.1c5.3,2.1,10.3,4.7,15,7.9c4.3,2.9,8.3,6.2,11.9,9.8c6.5,6.5,12.2,13.7,17,21.6
		c4.4,7.1,8.3,14.5,11.7,22.1c1.6,3.7,3.2,7.4,4.6,11.1c0.7,1.9,1.4,3.7,2.1,5.5l2.1,5.9c1,2.8,1.8,5.6,2.3,8.5
		c0.6,3.1,0.8,6.3,0.7,9.5c-0.2,6.5-1.9,13-5,18.7c-2.7,5-6.3,9.5-10.6,13.3c-3.6,3.2-7.6,6-11.8,8.4c-7.4,4.2-15.3,7.5-23.5,9.8
		c-3.9,1.2-7.8,2.2-11.7,3c-2,0.4-3.9,0.8-5.9,1.2l-3,0.5l-3.2,0.5l-5.1-26.5l2.1-0.7l2.4-0.8c1.6-0.5,3.1-1.1,4.7-1.7
		c3.1-1.2,6.2-2.5,9.1-3.9c5.6-2.5,10.9-5.7,15.8-9.4c2-1.5,3.8-3.3,5.3-5.3c1.1-1.3,1.9-2.8,2.3-4.4c0.2-0.8,0.1-1.7-0.2-2.5
		c-0.2-0.5-0.4-0.9-0.6-1.4c-0.3-0.7-0.6-1.3-1-1.9l-2.3-4.1c-0.8-1.5-1.7-3-2.6-4.4c-1.7-2.9-3.5-5.7-5.3-8.5
		c-3.5-5.3-7.3-10.3-11.5-15.1c-3.6-4.2-7.7-7.8-12.2-11c-3.1-2.3-6.8-3.8-10.6-4.4L280.9,141.1z"/>
	<line class="st4" x1="284.2" y1="267" x2="293.5" y2="293.9"/>
	<line class="st4" x1="304.3" y1="232.4" x2="341.5" y2="214.7"/>
	<line class="st4" x1="272.8" y1="195.6" x2="304" y2="155.6"/>
	<line class="st4" x1="294.6" y1="217.3" x2="332.7" y2="194.7"/>
	<line class="st4" x1="283.9" y1="204.5" x2="320.9" y2="174.8"/>
	<line class="st4" x1="310.4" y1="243.2" x2="348.3" y2="241.2"/>
	<line class="st4" x1="309.4" y1="249.1" x2="335.9" y2="271.6"/>
	<line class="st4" x1="299.4" y1="258.7" x2="314.7" y2="286.3"/>
</g>
<g id="l-calf">
	<path class="st1" d="M176.8,455.8c0.7-6.9-50.6-5.7-49.4,3s20.6,9.1,28,9C164.5,467.6,176.3,460.6,176.8,455.8z"/>
	<path class="st2" d="M106.5,531.5l3.1,5.5c0,0,13.3,0.3,28.5,0s33.3-0.4,33.3-0.4l-2.5-5.1c0,0-9.5-6.3-10.3-6.2
		S106.5,531.5,106.5,531.5z"/>
	<path class="st0" d="M162.9,519.2l-21.9-2.6l-7.6-103.9l34.2,0.7c0,0,4.4,15.6,4.3,30.5C171.8,463.7,162.9,519.2,162.9,519.2z"/>
	<path class="st3" d="M176.8,455.8v0.2l0,0l-0.8,7.4l-7.2,68c1,1.9-7.3,2.1-27.8,0.7c-18.9-1.2-34.6-0.7-34.6-0.7l-3.1-4.2
		c-1.5-2-1-4.9,1-6.3c0.1-0.1,0.2-0.2,0.3-0.2l28.6-16.7l-5-38l-0.9-7.1l0,0c0,0,0.1,0.1,0.1,0.1c1.1,0.6,7.8,3.6,27.3,2.2l1.9-0.2
		C163.7,460.3,170.5,458.6,176.8,455.8z"/>
	<path class="st2" d="M129.9,502.2c2.2-1.7,4.2-3.5,10.9-0.7c7.9,3.3,19.7,8.4,28,30c0,0-26.2-24.1-39.9-25
		C124.5,506.2,129.1,502.9,129.9,502.2z"/>
	<path class="st2" d="M176.8,455.8v0.2l0,0l-0.8,7.4c-7.3,3.6-15.3,5.7-23.4,6c-13.5,0.5-22-1.2-24.3-3.5l-0.9-7.1l0,0
		c0,0,0.1,0.1,0.1,0.1c1.1,0.6,7.8,3.6,27.3,2.2l1.9-0.2C163.7,460.4,170.5,458.6,176.8,455.8z"/>
</g>
<g id="torso">
	<path class="st5" d="M248.9,30.6c-10.1-13.2-45.8-29.1-62.5-29.1s-52.4,15.9-62.5,29.1c-16,20.9,7.7,56.6,7.7,79.6
		c3.1,11.6,29.9,25.6,52.5,25.6s53.2-14.4,57.2-25.6C241.2,85.8,264.8,51.5,248.9,30.6z"/>
	<path class="st6" d="M248.9,30.6c-10.1-13.2-45.8-29.1-62.5-29.1s-52.4,15.9-62.5,29.1c-16,20.9,7.7,56.6,7.7,79.6
		c3.1,11.6,29.9,25.6,52.5,25.6s53.2-14.4,57.2-25.6C241.2,85.8,264.8,51.5,248.9,30.6z"/>
	<path class="st7" d="M138.9,26.2c0,0-13.1,6.2-13.8,18.4s4.6,25,4.6,25l5.5-1.7c0,0-5.3-18.8-3.6-24.7c2-7,6.7-11.5,12-14.6
		L138.9,26.2z"/>
	<polygon class="st7" points="153.3,23.1 148.4,25.9 143.5,22.8 148.4,20 	"/>
	<path class="st3" d="M186.3,272.4c-33.4,0-60.4,4.4-60.4,9.9h6.2c0-4.9,24.3-8.8,54.2-8.8s54.2,4,54.2,8.8h6.2
		C246.8,276.9,219.7,272.4,186.3,272.4z"/>
	<path class="st0" d="M238.3,296.6c-18.4,37-85.5,37-103.8,0c0-36-52.7-96-52.7-152.7c18.5-18.5,61.6-47.5,104.6-47.5
		s86.1,29,104.6,47.5C291,201.6,238.3,260.6,238.3,296.6z"/>
	<path class="st8" d="M81.7,143.9c0,32.2,57.3,75.9,70.4,107.7s9.5,57.1,9.5,57.1"/>
	<path class="st8" d="M291,143.9c0,32.2-57.3,75.9-70.4,107.7s-9.5,57.1-9.5,57.1"/>
	<path class="st3" d="M246.8,282.4v20.2c0,5.5-27.1,9.9-60.4,9.9s-60.4-4.5-60.4-9.9v-20.2c0,5.5,27.1,9.9,60.4,9.9
		S246.8,287.8,246.8,282.4z"/>
	<path class="st3" d="M186.3,291.2c-30,0-54.2-4-54.2-8.8h-6.2c0,5.5,27.1,9.9,60.4,9.9s60.4-4.4,60.4-9.9h-6.2
		C240.6,287.2,216.3,291.2,186.3,291.2z"/>
	<path class="st3" d="M81.7,143.9c0,0-13.7-4.6-18.7,8s12.8,51.3,40.4,66.6c0,0-5.4-11.4-10.4-23.6
		C86.5,178.6,82.6,161.4,81.7,143.9z"/>
	<path class="st3" d="M291.1,143.9c0,0,13.7-4.6,18.7,8s-12.8,51.3-40.4,66.6c0,0,5.5-11.4,10.4-23.6
		C286.3,178.6,290.2,161.4,291.1,143.9z"/>
	<path class="st9" d="M128,109.3c3.2,12.3,31.8,27.2,55.8,27.2s56.6-15.4,60.9-27.2"/>
	<path class="st3" d="M273.6,122.9c0,0-9.2,22.5-39.7,39.3s-47.6,18.6-47.6,18.6s-17.1-1.8-47.6-18.6s-39.7-39.3-39.7-39.3
		l-17.4,15.4c0,0,9,19.9,32.4,32.7s46.2,19.5,72.2,22.1c26-2.7,48.8-9.3,72.2-22.1s32.4-32.7,32.4-32.7L273.6,122.9z"/>
	<path class="st2" d="M184.1,224.7l-14.2-18.4c-0.8-1-0.8-2.5,0-3.5l14.2-18.4c1-1.3,2.8-1.5,4-0.5c0.2,0.2,0.4,0.3,0.5,0.5
		l14.2,18.4c0.8,1,0.8,2.5,0,3.5l-14.2,18.4c-1,1.3-2.8,1.5-4,0.5C184.4,225,184.2,224.9,184.1,224.7z"/>
	<polygon class="st3" points="177.3,204.5 186.3,192.8 195.4,204.5 186.3,216.2 	"/>
	<circle class="st2" cx="186.3" cy="302.9" r="19.4"/>
	<polygon class="st3" points="186.3,315.7 176.4,302.9 186.3,290.1 196.2,302.9 	"/>
</g>
<g id="l-arm">
	<path class="st2" d="M108.8,204.7c-10,2.7-20.4,3.4-30.7,1.9c-9.3-1.3-18.3-4.1-26.6-8.3c-8-3.9-15.4-9-22-14.9
		c-6.6-5.9-12.3-12.8-16.9-20.3c-2.3-3.8-4.3-7.8-6-12c-0.5-1.1-0.8-2-1.1-3l-1-2.9c-0.6-2-1.2-4-1.7-6c-2.1-8.2-3-16.6-2.8-25
		c0.2-8.4,1.7-16.8,4.5-24.7c1.4-3.9,3-7.8,5-11.4c1-1.8,2-3.6,3.2-5.4c0.6-0.9,1.2-1.8,1.8-2.7l1-1.3l0.6-0.7l0.8-1l21.3,16.5
		c0.1-0.2,0.1-0.1,0.1-0.1c0,0,0,0.1-0.1,0.1l-0.1,0.3l-0.3,0.7c-0.2,0.5-0.5,1.1-0.7,1.7c-0.5,1.2-0.9,2.4-1.3,3.6
		c-0.7,2.5-1.3,5-1.7,7.6c-0.7,5.1-0.6,10.2,0.3,15.3c0.9,5,2.5,9.9,4.7,14.5c0.5,1.2,1.2,2.3,1.8,3.5l1,1.7c0.3,0.6,0.7,1.2,1,1.6
		c1.2,1.9,2.6,3.8,4.1,5.5c6.2,7,14.2,12.1,23.1,14.7c4,1.2,8.2,1.7,12.3,1.6c3.2-0.1,6.3-0.9,9.2-2.4L108.8,204.7z"/>
	<line class="st4" x1="33.9" y1="94.5" x2="6.8" y2="85.8"/>
	<line class="st4" x1="50.7" y1="144.5" x2="20.3" y2="172.2"/>
	<line class="st4" x1="84.3" y1="156" x2="83" y2="206.7"/>
	<line class="st4" x1="61.4" y1="151.6" x2="37.2" y2="188.7"/>
	<line class="st4" x1="73.3" y1="155.6" x2="58.2" y2="200.6"/>
	<line class="st4" x1="42.2" y1="135" x2="8.1" y2="151.8"/>
	<line class="st4" x1="36" y1="122.3" x2="2.1" y2="130.1"/>
	<line class="st4" x1="33" y1="108.6" x2="1.4" y2="107.6"/>
</g>
<g id="l-hand">
	<path class="st3" d="M54.9,36.8c0.3-2.1-0.7-4.2-2.6-5.1c-0.8-0.4-1.7-0.7-2.6-0.9c-0.1-0.5-0.2-1.1-0.5-1.5
		c-0.4-0.8-1.1-1.5-1.9-1.9c-1.9-0.7-3.9-1-5.9-0.7c-1,0.1-2.1,0.4-3,0.8c-1.4-0.3-2.9-0.4-4.3-0.2c-7.4,0.9-13.4,8.4-16.4,15
		c-4.2,9.3-3,23.5-3,23.5s19.6,21.7,25.2,11.6s3.3-18.7,3.3-18.7s0.2-6.9,2-11.8C46.6,43.7,54.4,40.7,54.9,36.8z"/>
	<path class="st3" d="M40.5,77.3c0,0,7.9-5.7,11.2-9.3s14.2-12.1,10.3-15.8s-8.2-2.8-12.1,0.5s-11.7-0.3-13.5,1.6
		S20.9,72.7,40.5,77.3z"/>
	<path class="st3" d="M16.6,65.2l24,10.1c3.3,1.4,4.9,5.2,3.5,8.5l0,0c-1.4,3.3-5.2,4.9-8.5,3.5l-24-10.1C8.2,75.8,6.6,72,8,68.7
		l0,0C9.4,65.4,13.3,63.8,16.6,65.2z"/>
	<path class="st10" d="M42.3,31.3c-0.2-1.5-0.4-3.1-0.8-4.6c-1,0.1-2.1,0.4-3,0.8c1,1.9,2.6,5-0.6,7.2c-2.4,1.8-4.7,3.8-6.8,6
		c-0.1,0.2-2,7-2,7s3.2-6.6,4.9-8.1C39.6,34.6,42.6,33.5,42.3,31.3z"/>
	<path class="st10" d="M49.8,30.8c0.3,1.1,0.3,2.3,0,3.4c-0.6,1.8-4.2,3.7-6.2,5.4c-1.5,1.3-3.5,2.1-4.5,4.5s-1.7,4.9-1.8,5.2
		c1.4-2.2,3-4.3,4.8-6.2c2.6-2.6,9.1-6.6,9.8-9c0.2-0.8,0.4-1.6,0.4-2.5C51.5,31.3,50.7,31,49.8,30.8z"/>
</g>
<g id="chest">
	<g>
		<defs>
			<path id="SVGID_1_" d="M316.2,229.5H56.5v-93H128c0,0,33,21.5,58.5,21.5s58.2-21.5,58.2-21.5h71.5L316.2,229.5z"/>
		</defs>
		<clipPath id="SVGID_2_">
			<use xlink:href="#SVGID_1_"  style="overflow:visible;"/>
		</clipPath>
		<g class="st11">
			<path class="st0" d="M238.3,296.6c-18.4,37-85.5,37-103.8,0c0-36-52.7-96-52.7-152.7c18.5-18.5,61.6-47.5,104.6-47.5
				s86.1,29,104.6,47.5C291,201.6,238.3,260.6,238.3,296.6z"/>
			<path class="st8" d="M81.7,143.9c0,32.2,57.3,75.9,70.4,107.7s9.5,57.1,9.5,57.1"/>
			<path class="st8" d="M291,143.9c0,32.2-57.3,75.9-70.4,107.7s-9.5,57.1-9.5,57.1"/>
			<path class="st3" d="M81.7,143.9c0,0-13.7-4.6-18.7,8s12.8,51.3,40.4,66.6c0,0-5.4-11.4-10.4-23.6
				C86.5,178.6,82.6,161.4,81.7,143.9z"/>
			<path class="st3" d="M291.1,143.9c0,0,13.7-4.6,18.7,8s-12.8,51.3-40.4,66.6c0,0,5.5-11.4,10.4-23.6
				C286.3,178.6,290.2,161.4,291.1,143.9z"/>
			<path class="st3" d="M273.6,122.9c0,0-9.2,22.5-39.7,39.3s-47.6,18.6-47.6,18.6s-17.1-1.8-47.6-18.6s-39.7-39.3-39.7-39.3
				l-17.4,15.4c0,0,9,19.9,32.4,32.7s46.2,19.5,72.2,22.1c26-2.7,48.8-9.3,72.2-22.1s32.4-32.7,32.4-32.7L273.6,122.9z"/>
			<path class="st2" d="M184.1,224.7l-14.2-18.4c-0.8-1-0.8-2.5,0-3.5l14.2-18.4c1-1.3,2.8-1.5,4-0.5c0.2,0.2,0.4,0.3,0.5,0.5
				l14.2,18.4c0.8,1,0.8,2.5,0,3.5l-14.2,18.4c-1,1.3-2.8,1.5-4,0.5C184.4,225,184.2,224.9,184.1,224.7z"/>
			<polygon class="st3" points="177.3,204.5 186.3,192.8 195.4,204.5 186.3,216.2 			"/>
		</g>
	</g>
</g>
<g id="r-hand">
	<path class="st3" d="M239.4,289.9c-3.1,1.2-10.5-2.6-13.8-0.4c-1.5,1-3.6,3.5-1.1,7.8c-0.4,0.4-0.6,0.9-0.8,1.4
		c-0.3,0.9-0.4,1.8-0.2,2.7c1.1,2.9,3.2,5.2,6,6.5c0.7,1.3,1.6,2.4,2.7,3.3c5.6,4.9,15.1,4.4,22.1,2.3c9.7-3,19.5-13.4,19.5-13.4
		s3.2-29.1-8.1-26.6s-16.2,10-16.2,10S244.2,287.9,239.4,289.9z"/>
	<path class="st3" d="M269.3,273.9c0,0-9.4-2.3-14.3-2.4c-4.9-0.1-18.5-2.9-18.7,2.4s3.2,8.1,8.2,8.8s7.4,9.1,10,9.2
		S278.5,291.8,269.3,273.9z"/>
	<path class="st3" d="M272,299l-7.6-24.9c-1-3.4,0.9-7.1,4.3-8.1h0c3.4-1,7.1,0.9,8.1,4.3l7.6,24.9c1,3.4-0.9,7.1-4.3,8.1h0
		C276.7,304.4,273.1,302.5,272,299z"/>
	<path class="st10" d="M224.5,297.3c-0.4,0.4-0.6,0.9-0.8,1.4c3.7,1.2,12.1,3.9,15.5,4.2c4.3,0.4,10.7-4.7,11.2-5.1
		c-0.5,0.3-6.5,3.5-10.1,3.1C236.5,300.5,224.5,297.3,224.5,297.3z"/>
	<path class="st10" d="M229.5,307.9c0.7,1.3,1.6,2.4,2.7,3.3c3.6,0.5,8.1,1,10.6,0.6c3.8-0.7,7.4-2.1,10.6-4.2
		c-0.4,0.2-5.3,2.9-9.5,2.9C239.6,310.5,229.5,307.9,229.5,307.9z"/>
</g>
<g id="head">
	<path class="st12" d="M223.8,110.6c-21.2,19.3-53.7,19.3-74.9,0c-5.4-4.9-5.9-12.6-2.5-19.1c2.6-4.8,6.1-14,5.4-21.3
		c-0.2-1.8-0.2-3.7-0.1-5.6c1.2-19.1,17.7-33.7,36.9-32.5c18.3,1.2,32.5,16.3,32.5,34.7c0,1,0,2-0.1,3c-0.6,7.4,2.8,16.7,5.4,21.6
		C229.7,97.9,229.2,105.6,223.8,110.6z"/>
	<polygon class="st12" points="154.3,85.5 138.8,80.4 139.7,76 156,77.9 	"/>
	
		<ellipse transform="matrix(0.2163 -0.9763 0.9763 0.2163 30.7045 192.9238)" class="st12" cx="135.5" cy="77.3" rx="5.8" ry="1.4"/>
	<path class="st12" d="M134.5,83l4.2-2.6c0.5-0.6,0.9-1.3,1-2.1c0.2-0.7,0.2-1.5,0-2.3l-2.7-4.1L134.5,83z"/>
	<polygon class="st12" points="218.4,85.5 233.9,80.4 232.9,76 216.7,77.9 	"/>
	
		<ellipse transform="matrix(0.9763 -0.2163 0.2163 0.9763 -11.1169 53.1194)" class="st12" cx="237.2" cy="77.4" rx="1.4" ry="5.8"/>
	<path class="st12" d="M238.1,83l-4.2-2.6c-0.9-1.3-1.3-2.8-1-4.4l2.7-4.1L238.1,83z"/>
	<g>
		<defs>
			<path id="SVGID_3_" d="M158.8,78.3c0,0,8.8-7.2,15.9,0.4c4.2,4.4,6,10.5,5,16.5c0,0-9.1,4.4-17.5-3.8
				C156.7,86,158.8,78.3,158.8,78.3z"/>
		</defs>
		<clipPath id="SVGID_4_">
			<use xlink:href="#SVGID_3_"  style="overflow:visible;"/>
		</clipPath>
		<g class="st13">
			<rect x="157.2" y="73.9" class="st7" width="24.1" height="23.7"/>
			<circle class="st14" cx="173.7" cy="83.9" r="8.7"/>
			<circle cx="173.7" cy="83.9" r="4"/>
			<path class="st15" d="M181.3,94.8c0,0-1.2-12.4-7.6-16.3s-10.9-0.8-15.1,1s6.8-8.9,6.8-8.9l17.7,5.7L181.3,94.8z"/>
		</g>
	</g>
	<g>
		<defs>
			<path id="SVGID_5_" d="M215.2,78.3c0,0-8.8-7.2-15.9,0.4c-4.2,4.4-6,10.5-5,16.5c0,0,9.1,4.4,17.5-3.8
				C217.3,86,215.2,78.3,215.2,78.3z"/>
		</defs>
		<clipPath id="SVGID_6_">
			<use xlink:href="#SVGID_5_"  style="overflow:visible;"/>
		</clipPath>
		<g class="st16">
			<rect x="192.7" y="73.9" class="st7" width="24.1" height="23.7"/>
			<circle class="st14" cx="207.7" cy="83.9" r="8.7"/>
			<circle cx="207.7" cy="83.9" r="4"/>
			<path class="st15" d="M192.7,94.8c0,0,1.2-12.4,7.6-16.3s10.9-0.8,15.1,1s-6.8-8.9-6.8-8.9L191,76.4L192.7,94.8z"/>
		</g>
	</g>
	<path class="st3" d="M199,103.8c0.2,0.9,0.4,1.8,0.8,2.6c0.3,0.8,0.7,1.6,1.2,2.4l0,0v0.1c0.4,1.6-0.2,3.2-1.4,4.2
		c-0.3,0.3-0.6,0.5-1,0.6c-0.4,0.2-0.7,0.2-1,0.4c-0.6,0.2-1.3,0.4-2,0.6c-5.3,1.5-10.9,1.5-16.3,0c-0.6-0.2-1.3-0.4-2-0.6
		c-0.3-0.1-0.6-0.2-1-0.4c-1.9-0.8-2.9-2.8-2.4-4.8v-0.1l0,0c0.4-0.8,0.8-1.6,1.2-2.4c0.4-0.8,0.6-1.7,0.8-2.6
		c0.1,0.9,0,1.9-0.2,2.8c-0.2,0.9-0.5,1.8-0.8,2.7v-0.1c-0.1,1.1,0.4,2.2,1.3,2.9c0.5,0.3,1,0.5,1.6,0.6c0.6,0.1,1.3,0.3,1.9,0.4
		c2.5,0.5,5.1,0.8,7.7,0.8c2.6,0,5.2-0.3,7.7-0.8c0.6-0.1,1.3-0.3,1.9-0.4c0.6-0.1,1.1-0.3,1.6-0.6c0.9-0.6,1.4-1.8,1.3-2.9v0.1
		c-0.3-0.9-0.6-1.8-0.8-2.7C198.8,105.7,198.8,104.7,199,103.8z"/>
	<path class="st3" d="M177.9,103.7c-0.8,0.4-1.5,0.6-2.2,0.8c-0.3,0.1-0.7,0.3-1,0.4c-0.3,0.2-0.7,0.4-1,0.6c0-0.5,0.2-0.9,0.5-1.2
		c0.3-0.3,0.7-0.6,1.1-0.8c0.4-0.2,0.9-0.2,1.3-0.2C177.1,103.3,177.5,103.4,177.9,103.7z"/>
	<path class="st3" d="M197,103.7c0.4-0.2,0.8-0.3,1.3-0.3c0.4,0,0.9,0.1,1.3,0.2c0.4,0.2,0.8,0.4,1.1,0.8c0.3,0.3,0.5,0.8,0.5,1.2
		c-0.3-0.2-0.7-0.5-1-0.6c-0.3-0.2-0.7-0.3-1-0.4C198.5,104.2,197.8,104,197,103.7z"/>
	<path class="st3" d="M156.2,69.5c1.8-1,3.6-1.9,5.5-2.7c0.9-0.4,1.9-0.7,2.8-1c1-0.3,2-0.6,3-0.9c2.1-0.4,4.3-0.6,6.5-0.4
		c1.1,0.1,2.2,0.3,3.2,0.5c0.5,0.1,1.1,0.2,1.6,0.4c0.3,0.1,0.5,0.2,0.8,0.2s-2.4,5.6-2.8,5.5s-0.8-0.3-1.2-0.4
		c-0.8-0.3-1.6-0.5-2.4-0.6c-1.6-0.3-3.3-0.4-4.9-0.2c-0.9,0.1-1.7,0.3-2.6,0.5c-0.9,0.2-1.8,0.4-2.6,0.7c-1.7,0.5-3.4,1.1-5.1,1.9
		L156.2,69.5z"/>
	<path class="st3" d="M217.1,71.7c-1.8,1-3.6,1.9-5.5,2.6c-0.9,0.4-1.9,0.7-2.9,1c-1,0.3-2,0.6-3,0.8c-2.1,0.4-4.3,0.5-6.5,0.3
		c-1.1-0.1-2.2-0.3-3.2-0.5c-0.5-0.1-1.1-0.3-1.6-0.4l-0.8-0.3c-0.3-0.1,2.5-5.6,2.8-5.5s0.8,0.3,1.1,0.4c0.8,0.3,1.6,0.5,2.4,0.6
		c1.6,0.3,3.3,0.4,4.9,0.3c0.8-0.1,1.7-0.2,2.6-0.4s1.8-0.4,2.6-0.7c1.7-0.5,3.4-1.1,5.1-1.8L217.1,71.7z"/>
	<path class="st17" d="M183.9,30.9c0,0,2.4-8.9,14-13s18.2-0.6,21.2,2s3.5,6.3,0.9,8.9s-9-1.2-15.4-1.1c-8.1,0.1-8.4,2.1-11.9,4.2
		C189.7,33.6,182.8,33.8,183.9,30.9z"/>
	<path class="st17" d="M169.9,44.4c0,0-9.9,3.3-15.2,8.2c-4.1,3.7-10,5.3-15.1,1.7s-7.7-19.8,18.6-20.9s28.9,0,28.9,0v9.1
		C181.2,42.4,175.5,43,169.9,44.4z"/>
	<path class="st17" d="M191.1,35.3c-1.3-4-5.3-10.3-20.6-12.3s-26.6,3.6-21.3,11.4s11.7,1.2,14.2,0.9s15.3-1,20.4,3.5
		S192,38.3,191.1,35.3z"/>
	<path class="st17" d="M185.6,35.4c0,0-11.8-0.5-16.8,12.4s-2,21.1,3.1,21.6s10.6-4.2,11.6-13.2s5.7-14.4,10.8-15.7
		S193.2,33.6,185.6,35.4z"/>
	<path class="st17" d="M187.5,33c0,0,6.1-8.9,32.9-4c24.7,4.6,20.4,19.6,17.8,22.6s-11.5,3.4-16.9-6.2s-32-8.4-32-8.4L187.5,33z"/>
	<path class="st17" d="M191.1,35.3c0,0,10.7-2.3,19.3,2c7.4,3.6,12.5,10.8,13.5,19c0.8,6.9-9,13-15.6,11.2s-8.1-8.1-8.5-13.9
		s-4.1-13-9.8-13S185.5,38.1,191.1,35.3z"/>
</g>
</svg>
