<?xml version="1.0" encoding="utf-8"?>
<!-- Generator: Adobe Illustrator 25.2.0, SVG Export Plug-In . SVG Version: 6.00 Build 0)  -->
<svg version="1.1" id="Layer_1" xmlns="http://www.w3.org/2000/svg" xmlns:xlink="http://www.w3.org/1999/xlink" x="0px" y="0px"
	 viewBox="0 0 391.1 490.5" style="enable-background:new 0 0 391.1 490.5;" xml:space="preserve">
<style type="text/css">
	.st0{fill:#DAE78D;}
	.st1{fill:#59104A;}
	.st2{fill:#5FB0AA;}
	.st3{fill:#77185E;}
	.st4{fill:none;stroke:#4A8F91;stroke-width:4.07;stroke-miterlimit:10;}
	.st5{opacity:0.2;fill:#9AE0E2;enable-background:new    ;}
	.st6{fill:none;stroke:#9AE0E2;stroke-width:3;stroke-miterlimit:10;}
	.st7{fill:#FFFFFF;}
	.st8{fill:none;stroke:#C7DB52;stroke-width:2;stroke-linecap:round;stroke-miterlimit:10;}
	.st9{fill:none;stroke:#5FB0AA;stroke-width:8.51;stroke-linecap:round;stroke-miterlimit:10;}
	.st10{fill:#541146;}
	.st11{clip-path:url(#SVGID_2_);}
	.st12{fill:#E95BA6;}
	.st13{clip-path:url(#SVGID_4_);}
	.st14{fill:#5F1B75;}
	.st15{fill:#470B35;}
	.st16{clip-path:url(#SVGID_6_);}
	.st17{fill:#F7E731;}
</style>
<path id="r-thigh" class="st0" d="M307.4,365.5c6.4,2.3,22.6,9.6,32.3-0.3c10-10.2,4.9-31.5,4.9-31.5s-4.2-10.2-32.7-28.5
	c-11.6-7.5-30-7.4-40.9,4.3s-5.8,30.2-1.3,34.8C286,360.7,295,361.1,307.4,365.5z"/>
<g id="r-calf">
	<path class="st1" d="M298.5,407.8c-0.7-6.9,50.6-5.7,49.4,3s-20.6,9.1-28,9C310.9,419.5,299,412.6,298.5,407.8z"/>
	<path class="st2" d="M363,484.6l-2.5,4.4c0,0-8.3,1.8-23.5,1.4s-30.1-1.9-30.1-1.9l-0.5-5.1c0,0,9.5-6.3,10.3-6.2L363,484.6z"/>
	<path class="st0" d="M312.4,471.2l21.9-2.6l11.5-121.2l-37.3,11.6c0,0-5.1,22-5,36.9C303.6,415.6,312.4,471.2,312.4,471.2z"/>
	<path class="st3" d="M298.5,407.8v0.2l0,0l0.8,7.4l7.2,68c-1,1.9,7,0.6,14.5,1.8c16.7,2.5,42.1-0.6,42.1-0.6l2.5-7
		c1.6-2.2-11.5-5.1-13.8-6.4l-9.9-15.3l5-38l0.9-7.1l0,0c0,0-0.1,0.1-0.1,0.1c-1.1,0.6-7.8,3.6-27.3,2.2l-1.9-0.2
		C311.6,412.3,304.8,410.6,298.5,407.8z"/>
	<path class="st2" d="M345.4,454.2c-2.2-1.7-3.8-1.6-11-0.7c-14.3,1.8-28,10.4-28,30c0,0,9.4-22.1,37.8-24
		C348.7,459.2,346.3,454.8,345.4,454.2z"/>
	<path class="st2" d="M298.5,407.8v0.2l0,0l0.8,7.4c7.3,3.6,15.3,5.6,23.4,6c13.5,0.5,22-1.2,24.3-3.5l0.9-7.1l0,0
		c0,0-0.1,0.1-0.1,0.1c-1.1,0.6-7.8,3.6-27.3,2.2l-1.9-0.2C311.6,412.3,304.8,410.6,298.5,407.8z"/>
</g>
<path id="hips" class="st0" d="M207.7,297.4h106.7l0,0v34.8c0,8.4-6.8,15.2-15.2,15.2h0h-76.3c-8.4,0-15.2-6.8-15.2-15.2l0,0V297.4
	L207.7,297.4z"/>
<path id="l-thigh" class="st0" d="M214.7,365.5c-6.4,2.3-22.6,9.6-32.3-0.3c-10-10.2-4.9-31.5-4.9-31.5s4.2-10.2,32.7-28.5
	c11.6-7.5,30-7.4,40.9,4.3s5.8,30.2,1.3,34.8C236.1,360.7,227.1,361.1,214.7,365.5z"/>
<g id="r-arm">
	<path class="st2" d="M365.5,146.8c6.4,6.6,11.6,14.2,15.4,22.6c3.2,7.2,5.6,14.8,7.2,22.6c1.4,7,2.3,14.2,2.7,21.3
		c0.4,6.9,0.5,13.7,0.2,20.3c-0.1,3.3-0.3,6.6-0.5,9.9l-0.4,4.9c-0.2,1.9-0.4,3.9-0.7,5.9c-0.7,4.3-1.8,8.6-3.2,12.7
		c-1.8,4.8-4.3,9.3-7.5,13.3c-3.6,4.4-8.3,7.9-13.5,10.2c-4.7,2-9.8,3.1-14.9,3.1c-4.3,0-8.6-0.5-12.8-1.6c-1.9-0.5-3.8-1.1-5.7-1.7
		c-0.9-0.3-1.9-0.7-2.8-1.1l-1.4-0.6l-1.7-0.8l10.3-25H336l0,0h0.1l0.3,0.1l0.8,0.1c0.5,0.1,1.1,0.1,1.6,0.2
		c1.1,0.1,2.1,0.2,3.2,0.2c1.8,0,3.6-0.2,5.4-0.7c1-0.2,1.9-0.8,2.6-1.6c0.2-0.5,0.3-1,0.2-1.5c0-0.6,0.2-1.6,0.3-3.1
		c0.1-1.8,0-3.5-0.1-5.3c-0.1-1-0.2-2.1-0.4-3.2l-0.4-4.3c-0.3-2.8-0.6-5.6-1-8.4c-1.5-11-3.8-21.7-7.3-30.5c-1.5-4-3.5-7.9-6-11.4
		c-1.7-2.6-4-4.8-6.6-6.4L365.5,146.8z"/>
	<line class="st4" x1="345.9" y1="264" x2="345.6" y2="292.4"/>
	<line class="st4" x1="348.8" y1="227.8" x2="389.9" y2="224.5"/>
	<line class="st4" x1="334.9" y1="191.6" x2="378.4" y2="165.7"/>
	<line class="st4" x1="345.5" y1="213.7" x2="389.1" y2="205.9"/>
	<line class="st4" x1="340.8" y1="201.2" x2="385.9" y2="186.3"/>
	<line class="st4" x1="351.1" y1="242.9" x2="389.1" y2="242.5"/>
	<line class="st4" x1="352" y1="255.4" x2="386" y2="262.8"/>
	<line class="st4" x1="351" y1="261.2" x2="371.3" y2="285.5"/>
</g>
<g id="torso">
	<path class="st5" d="M323.6,30.6c-10.1-13.2-45.8-29.1-62.5-29.1s-52.4,15.9-62.5,29.1c-16,20.9,7.7,56.6,7.7,79.6
		c3.1,11.6,29.9,25.6,52.5,25.6s53.2-14.4,57.2-25.6C315.9,85.8,339.5,51.5,323.6,30.6z"/>
	<path class="st6" d="M323.6,30.6c-10.1-13.2-45.8-29.1-62.5-29.1s-52.4,15.9-62.5,29.1c-16,20.9,7.7,56.6,7.7,79.6
		c3.1,11.6,29.9,25.6,52.5,25.6s53.2-14.4,57.2-25.6C315.9,85.8,339.5,51.5,323.6,30.6z"/>
	<path class="st7" d="M213.6,26.2c0,0-13.1,6.2-13.8,18.4s4.6,25,4.6,25l5.5-1.7c0,0-5.3-18.8-3.6-24.8c2-7,6.7-11.5,12-14.6
		L213.6,26.2z"/>
	<polygon class="st7" points="228,23.1 223.1,25.9 218.2,22.8 223.1,20 	"/>
	<path class="st3" d="M261.1,272.4c-33.4,0-60.4,4.4-60.4,9.9h6.2c0-4.9,24.3-8.8,54.2-8.8s54.2,4,54.2,8.8h6.2
		C321.5,276.9,294.5,272.4,261.1,272.4z"/>
	<path class="st0" d="M313,296.6c-18.4,37-85.5,37-103.8,0c0-36-52.7-96-52.7-152.7c18.5-18.5,61.6-47.5,104.6-47.5
		s86.1,29,104.6,47.5C365.7,201.6,313,260.6,313,296.6z"/>
	<path class="st8" d="M156.5,143.9c0,32.2,57.3,75.9,70.4,107.7s9.5,57.1,9.5,57.1"/>
	<path class="st8" d="M365.7,143.9c0,32.2-57.3,75.9-70.4,107.7s-9.5,57.1-9.5,57.1"/>
	<path class="st3" d="M321.5,282.4v20.2c0,5.5-27.1,9.9-60.4,9.9s-60.4-4.5-60.4-9.9v-20.2c0,5.5,27.1,9.9,60.4,9.9
		S321.5,287.8,321.5,282.4z"/>
	<path class="st3" d="M261.1,291.2c-30,0-54.2-4-54.2-8.8h-6.2c0,5.5,27.1,9.9,60.4,9.9s60.4-4.4,60.4-9.9h-6.2
		C315.3,287.2,291,291.2,261.1,291.2z"/>
	<path class="st3" d="M156.5,143.9c0,0-13.7-4.6-18.7,8s12.8,51.3,40.4,66.6c0,0-5.4-11.4-10.4-23.6
		C161.2,178.6,157.4,161.4,156.5,143.9z"/>
	<path class="st3" d="M365.8,143.9c0,0,13.7-4.6,18.7,8s-12.8,51.3-40.4,66.6c0,0,5.5-11.4,10.4-23.6
		C361.1,178.6,364.9,161.4,365.8,143.9z"/>
	<path class="st9" d="M202.7,109.3c3.2,12.3,31.8,27.2,55.8,27.2s56.6-15.4,60.9-27.2"/>
	<path class="st3" d="M348.3,122.9c0,0-9.2,22.5-39.7,39.3s-47.6,18.6-47.6,18.6s-17.1-1.8-47.6-18.6s-39.7-39.3-39.7-39.3
		l-17.4,15.4c0,0,9,19.9,32.4,32.7s46.2,19.5,72.2,22.1c26-2.6,48.8-9.3,72.2-22.1s32.4-32.7,32.4-32.7L348.3,122.9z"/>
	<path class="st2" d="M258.8,224.7l-14.2-18.4c-0.8-1-0.8-2.5,0-3.5l14.2-18.4c1-1.3,2.8-1.5,4-0.5c0.2,0.2,0.4,0.3,0.5,0.5
		l14.2,18.4c0.8,1,0.8,2.5,0,3.5l-14.2,18.4c-1,1.3-2.8,1.5-4,0.5C259.1,225.1,258.9,224.9,258.8,224.7z"/>
	<polygon class="st3" points="252,204.5 261.1,192.8 270.1,204.5 261.1,216.2 	"/>
	<circle class="st2" cx="261.1" cy="302.9" r="19.4"/>
	<polygon class="st3" points="261.1,315.7 251.2,302.9 261.1,290.1 271,302.9 	"/>
</g>
<g id="l-arm">
	<path class="st2" d="M179.5,205.8c-11.2,0.8-22.3,3.2-32.8,7c-10.9,3.9-21.3,9.3-30.8,16l-3.6,2.6l-3.9,3c-2.6,2-5.2,4.1-7.8,6.1
		c-5.2,4.1-10.3,8.3-15.4,12.6c-5.1,4.3-10.2,8.6-15.2,12.9c-2.5,2.2-5,4.4-7.4,6.6c-2.4,2.2-5,4.5-7.2,6.6l-20.2-18
		c2.2-2.9,4.3-5.6,6.5-8.3s4.3-5.4,6.5-8.1c4.4-5.3,8.8-10.6,13.2-15.9c4.5-5.2,9-10.4,13.6-15.6c2.3-2.6,4.6-5.2,7-7.7l3.5-3.8
		l4-4.1c22.4-22.2,50.4-37.9,81-45.5L179.5,205.8z"/>
	<line class="st4" x1="46.3" y1="248" x2="66.9" y2="267.7"/>
	<line class="st4" x1="97.3" y1="191" x2="122.1" y2="223.9"/>
	<line class="st4" x1="151.4" y1="158.5" x2="165.7" y2="207.1"/>
	<line class="st4" x1="113.8" y1="178.2" x2="136.1" y2="216.4"/>
	<line class="st4" x1="131.9" y1="167.2" x2="150.7" y2="210.8"/>
	<line class="st4" x1="82.9" y1="205.4" x2="108.7" y2="233.3"/>
	<line class="st4" x1="70.4" y1="219.3" x2="94.5" y2="244.4"/>
	<line class="st4" x1="58.2" y1="233.6" x2="80.6" y2="255.9"/>
</g>
<g id="l-hand">
	<path class="st3" d="M22.2,296.4c-2.7,2-3.2,10.4-6.8,12c-1.6,0.7-4.9,1.3-7.3-3.1c-1.5,0.3-3-0.2-4-1.3c-1.9-2.4-2.8-5.4-2.5-8.5
		c-0.7-1.2-1.2-2.6-1.5-4c-1.3-7.3,4-15.2,9.5-20.1c7.6-6.8,21.5-9.8,21.5-9.8s26.5,12.3,18.6,20.6S32.9,291,32.9,291
		S26.4,293.3,22.2,296.4z"/>
	<path class="st3" d="M51.3,279.1c0,0-2.9,9.2-5.3,13.5s-7,17.3-11.8,14.7s-5.3-6.9-3.3-11.6s-3.9-11-2.7-13.3
		S40.8,261.9,51.3,279.1z"/>
	<path class="st3" d="M41,255l17.4,19.4c2.4,2.7,2.2,6.8-0.5,9.2l0,0c-2.7,2.4-6.8,2.2-9.2-0.5l-17.4-19.4c-2.4-2.7-2.2-6.8,0.5-9.2
		l0,0C34.4,252.1,38.5,252.4,41,255z"/>
	<path class="st10" d="M8.1,305.3c-0.5,0.1-1.1,0.1-1.6,0c0.9-3.8,2.9-12.4,4.5-15.5c1.9-3.8,9.5-6.7,10.1-7
		c-0.5,0.3-6.3,3.8-7.9,7.1S8.1,305.3,8.1,305.3z"/>
	<path class="st10" d="M1.7,295.5c-0.7-1.2-1.2-2.6-1.5-4c1.4-3.3,3.4-7.4,4.9-9.4c2.5-2.9,5.6-5.3,9.1-6.9c-0.4,0.2-5.3,3-7.4,6.6
		C4.7,285.6,1.7,295.5,1.7,295.5z"/>
</g>
<g id="chest">
	<g>
		<defs>
			<path id="SVGID_1_" d="M390.9,229.5H131.2v-93h71.5c0,0,33,21.5,58.5,21.5s58.2-21.5,58.2-21.5h71.5L390.9,229.5z"/>
		</defs>
		<clipPath id="SVGID_2_">
			<use xlink:href="#SVGID_1_"  style="overflow:visible;"/>
		</clipPath>
		<g class="st11">
			<path class="st0" d="M313,296.6c-18.4,37-85.5,37-103.8,0c0-36-52.7-96-52.7-152.7c18.5-18.5,61.6-47.5,104.6-47.5
				s86.1,29,104.6,47.5C365.7,201.6,313,260.6,313,296.6z"/>
			<path class="st8" d="M156.5,143.9c0,32.2,57.3,75.9,70.4,107.7s9.5,57.1,9.5,57.1"/>
			<path class="st8" d="M365.7,143.9c0,32.2-57.3,75.9-70.4,107.7s-9.5,57.1-9.5,57.1"/>
			<path class="st3" d="M156.5,143.9c0,0-13.7-4.6-18.7,8s12.8,51.3,40.4,66.6c0,0-5.4-11.4-10.4-23.6
				C161.2,178.6,157.4,161.4,156.5,143.9z"/>
			<path class="st3" d="M365.8,143.9c0,0,13.7-4.6,18.7,8s-12.8,51.3-40.4,66.6c0,0,5.5-11.4,10.4-23.6
				C361.1,178.6,364.9,161.4,365.8,143.9z"/>
			<path class="st3" d="M348.3,122.9c0,0-9.2,22.5-39.7,39.3s-47.6,18.6-47.6,18.6s-17.1-1.8-47.6-18.6s-39.7-39.3-39.7-39.3
				l-17.4,15.4c0,0,9,19.9,32.4,32.7s46.2,19.5,72.2,22.1c26-2.6,48.8-9.3,72.2-22.1s32.4-32.7,32.4-32.7L348.3,122.9z"/>
			<path class="st2" d="M258.8,224.7l-14.2-18.4c-0.8-1-0.8-2.5,0-3.5l14.2-18.4c1-1.3,2.8-1.5,4-0.5c0.2,0.2,0.4,0.3,0.5,0.5
				l14.2,18.4c0.8,1,0.8,2.5,0,3.5l-14.2,18.4c-1,1.3-2.8,1.5-4,0.5C259.1,225.1,258.9,224.9,258.8,224.7z"/>
			<polygon class="st3" points="252,204.5 261.1,192.8 270.1,204.5 261.1,216.2 			"/>
		</g>
	</g>
</g>
<g id="r-hand">
	<ellipse transform="matrix(0.2412 -0.9705 0.9705 0.2412 -18.8132 532.7354)" class="st3" cx="331.3" cy="278.4" rx="20" ry="14"/>
	<path class="st3" d="M306,262.1c-3.3-1-6.7-8.6-10.6-8.8c-1.8-0.1-5,0.5-5.7,5.5c-0.5,0.1-1,0.3-1.5,0.6c-0.8,0.5-1.4,1.2-1.8,2
		c-0.9,2.9-0.7,6.1,0.7,8.8c-0.2,1.4-0.2,2.9,0.1,4.3c1.4,7.3,9.2,12.8,16,15.4c9.5,3.6,31.4,2.3,31.4,2.3s12.6-21.7,2.2-26.7
		s-18.9-2.2-18.9-2.2S311,263.6,306,262.1z"/>
	<path class="st3" d="M339.3,268c0,0-6-7.6-9.8-10.8c-3.8-3.1-12.7-13.7-16.2-9.6c-3.5,4.1-2.5,8.3,1,12c3.5,3.7,0.2,11.7,2.2,13.4
		S335.6,287.8,339.3,268z"/>
	<path class="st10" d="M289.7,258.8c-0.5,0.1-1,0.3-1.5,0.6c2.1,3.2,7.1,10.5,9.6,12.9c3.1,2.9,11.3,2.9,11.9,2.9
		c-0.6-0.1-7.3-1.3-9.9-3.8S289.7,258.8,289.7,258.8z"/>
	<path class="st10" d="M287.1,270.2c-0.2,1.4-0.2,2.9,0.1,4.3c2.5,2.6,5.8,5.8,7.9,7c3.4,1.8,7.2,2.9,11,3.3c-0.5-0.1-6-1-9.2-3.6
		S287.1,270.2,287.1,270.2z"/>
</g>
<g id="l-calf">
	<path class="st1" d="M223.6,407.8c0.7-6.9-50.6-5.7-49.4,3s20.6,9.1,28,9C211.2,419.5,223.1,412.6,223.6,407.8z"/>
	<path class="st2" d="M159.1,484.6l2.5,4.4c0,0,8.3,1.8,23.6,1.4s30.1-1.9,30.1-1.9l0.5-5.1c0,0-9.5-6.3-10.3-6.2L159.1,484.6z"/>
	<path class="st0" d="M209.7,471.2l-21.9-2.6l-11.5-121.2l37.3,11.6c0,0,5.1,22,5.1,36.9C218.6,415.6,209.7,471.2,209.7,471.2z"/>
	<path class="st3" d="M223.6,407.8v0.2l0,0l-0.8,7.4l-7.2,68c1,1.9-7,0.6-14.5,1.8c-16.7,2.5-42.1-0.6-42.1-0.6l-2.5-7
		c-1.6-2.2,11.4-5.1,13.8-6.4l9.9-15.3l-5-38l-0.9-7.1l0,0c0,0,0.1,0.1,0.1,0.1c1.1,0.6,7.8,3.6,27.3,2.2l1.9-0.2
		C210.5,412.3,217.3,410.6,223.6,407.8z"/>
	<path class="st2" d="M176.7,454.2c2.2-1.7,3.8-1.6,10.9-0.7c14.3,1.8,28,10.4,28,30c0,0-9.4-22.1-37.8-24
		C173.5,459.2,175.9,454.8,176.7,454.2z"/>
	<path class="st2" d="M223.6,407.8v0.2l0,0l-0.8,7.4c-7.3,3.6-15.3,5.6-23.4,6c-13.5,0.5-22-1.2-24.3-3.5l-0.9-7.1l0,0
		c0,0,0.1,0.1,0.1,0.1c1.1,0.6,7.8,3.6,27.3,2.2l1.9-0.2C210.5,412.3,217.3,410.6,223.6,407.8z"/>
</g>
<g id="head">
	<path class="st12" d="M298.5,110.5c-21.2,19.3-53.7,19.3-74.9,0c-5.4-4.9-5.9-12.7-2.5-19.1c2.6-4.8,6.1-14,5.4-21.3
		c-0.2-1.8-0.2-3.7-0.1-5.6c1.2-19.1,17.7-33.7,36.9-32.5c18.3,1.2,32.5,16.3,32.5,34.7c0,1,0,2-0.1,3c-0.6,7.4,2.8,16.7,5.3,21.6
		C304.4,97.9,303.9,105.6,298.5,110.5z"/>
	<polygon class="st12" points="229,85.5 213.5,80.4 214.4,76 230.7,77.9 	"/>
	
		<ellipse transform="matrix(0.2163 -0.9763 0.9763 0.2163 89.2582 265.8498)" class="st12" cx="210.2" cy="77.3" rx="5.8" ry="1.4"/>
	<path class="st12" d="M209.3,83l4.2-2.6c0.9-1.3,1.3-2.9,1-4.4l-2.7-4.1L209.3,83z"/>
	<polygon class="st12" points="293.1,85.5 308.6,80.4 307.7,76 291.4,77.9 	"/>
	<ellipse transform="matrix(0.9763 -0.2163 0.2163 0.9763 -9.35 69.279)" class="st12" cx="311.9" cy="77.4" rx="1.4" ry="5.8"/>
	<path class="st12" d="M312.9,83l-4.2-2.6c-0.5-0.6-0.8-1.3-1-2.1c-0.2-0.8-0.2-1.5,0-2.3l2.7-4.1L312.9,83z"/>
	<g>
		<defs>
			<path id="SVGID_3_" d="M233.6,78.3c0,0,8.8-7.2,15.9,0.4c4.2,4.4,6,10.5,5,16.5c0,0-9.1,4.4-17.5-3.8
				C231.5,86,233.6,78.3,233.6,78.3z"/>
		</defs>
		<clipPath id="SVGID_4_">
			<use xlink:href="#SVGID_3_"  style="overflow:visible;"/>
		</clipPath>
		<g class="st13">
			<rect x="231.9" y="73.9" class="st7" width="24.1" height="23.7"/>
			<circle class="st14" cx="248.4" cy="83.9" r="8.7"/>
			<circle cx="248.4" cy="83.9" r="4"/>
			<path class="st15" d="M256,94.8c0,0-1.2-12.4-7.5-16.3s-10.9-0.8-15.1,1c-4.4,1.8,6.8-8.9,6.8-8.9l17.7,5.7L256,94.8z"/>
		</g>
	</g>
	<g>
		<defs>
			<path id="SVGID_5_" d="M289.9,78.3c0,0-8.8-7.2-15.9,0.4c-4.2,4.4-6,10.5-5,16.5c0,0,9.1,4.4,17.5-3.8
				C292,86,289.9,78.3,289.9,78.3z"/>
		</defs>
		<clipPath id="SVGID_6_">
			<use xlink:href="#SVGID_5_"  style="overflow:visible;"/>
		</clipPath>
		<g class="st16">
			<rect x="267.4" y="73.9" class="st7" width="24.1" height="23.7"/>
			<circle class="st14" cx="282.5" cy="83.9" r="8.7"/>
			<circle cx="282.5" cy="83.9" r="4"/>
			<path class="st15" d="M267.5,94.8c0,0,1.2-12.4,7.6-16.3s10.9-0.8,15.1,1c4.4,1.8-6.8-8.9-6.8-8.9l-17.7,5.7L267.5,94.8z"/>
		</g>
	</g>
	<path class="st3" d="M273.7,103.8c0.1,0.9,0.4,1.8,0.8,2.6c0.4,0.8,0.7,1.6,1.2,2.4l0,0v0.1c0.4,1.6-0.2,3.2-1.4,4.2
		c-0.3,0.3-0.6,0.5-1,0.6c-0.4,0.2-0.7,0.2-1,0.4c-0.7,0.2-1.3,0.4-2,0.6c-2.7,0.7-5.4,1.1-8.1,1.1c-2.7,0-5.5-0.4-8.1-1.1
		c-0.7-0.2-1.3-0.4-2-0.6c-0.3-0.1-0.6-0.2-1-0.4c-0.4-0.2-0.7-0.4-1-0.6c-1.2-1-1.8-2.7-1.4-4.2v-0.1l0,0c0.4-0.8,0.8-1.6,1.2-2.4
		c0.4-0.8,0.6-1.7,0.8-2.6c0.1,0.9,0,1.9-0.2,2.8c-0.2,0.9-0.5,1.8-0.8,2.7v-0.1c-0.1,1.1,0.4,2.2,1.3,2.9c0.5,0.3,1,0.5,1.6,0.6
		c0.6,0.2,1.3,0.3,1.9,0.4c5.1,1.1,10.4,1.1,15.4,0c0.6-0.1,1.3-0.3,1.9-0.4c0.6-0.1,1.1-0.3,1.6-0.6c0.9-0.6,1.4-1.8,1.3-2.9v0.1
		c-0.3-0.9-0.6-1.8-0.8-2.7C273.6,105.7,273.6,104.8,273.7,103.8z"/>
	<path class="st3" d="M252.7,103.7c-0.8,0.4-1.5,0.6-2.2,0.8c-0.3,0.1-0.7,0.3-1,0.4c-0.3,0.2-0.7,0.4-1,0.7c0-0.5,0.2-0.9,0.5-1.3
		c0.3-0.3,0.7-0.6,1.1-0.8c0.4-0.2,0.9-0.2,1.3-0.2C251.8,103.3,252.3,103.5,252.7,103.7z"/>
	<path class="st3" d="M271.7,103.7c0.4-0.2,0.8-0.3,1.3-0.3c0.4,0,0.9,0.1,1.3,0.2c0.4,0.2,0.8,0.4,1.1,0.8c0.3,0.3,0.5,0.8,0.5,1.3
		c-0.3-0.2-0.7-0.5-1-0.7c-0.3-0.2-0.7-0.3-1-0.4C273.2,104.2,272.5,104.1,271.7,103.7z"/>
	<path class="st3" d="M231,69.5c1.8-1,3.6-1.9,5.5-2.7c0.9-0.4,1.9-0.7,2.8-1.1c1-0.3,2-0.6,3-0.9c2.1-0.4,4.3-0.6,6.5-0.4
		c1.1,0.1,2.2,0.3,3.2,0.5c0.5,0.1,1.1,0.2,1.6,0.4l0.8,0.2c0.3,0.1-2.4,5.7-2.8,5.5s-0.8-0.3-1.2-0.4c-0.8-0.3-1.6-0.5-2.4-0.6
		c-1.6-0.3-3.3-0.4-4.9-0.2c-0.9,0.1-1.7,0.3-2.6,0.5c-0.9,0.2-1.8,0.4-2.6,0.7c-1.7,0.5-3.4,1.2-5.1,1.9L231,69.5z"/>
	<path class="st3" d="M291.9,71.7c-1.8,1-3.6,1.9-5.5,2.6c-0.9,0.4-1.9,0.7-2.8,1c-1,0.3-2,0.6-3,0.8c-2.1,0.4-4.3,0.5-6.5,0.3
		c-1.1-0.1-2.2-0.3-3.2-0.5c-0.5-0.1-1.1-0.3-1.6-0.4c-0.3-0.1-0.5-0.2-0.8-0.3s2.5-5.6,2.8-5.5s0.8,0.3,1.2,0.4
		c0.8,0.3,1.6,0.5,2.4,0.7c1.6,0.3,3.3,0.4,4.9,0.2c0.9-0.1,1.7-0.3,2.6-0.4c0.9-0.2,1.8-0.4,2.6-0.7c1.7-0.5,3.4-1.1,5.1-1.8
		L291.9,71.7z"/>
	<path class="st17" d="M258.6,30.9c0,0,2.4-8.9,14-13s18.2-0.5,21.2,2s3.5,6.3,0.9,8.9s-9-1.2-15.4-1.1c-8.1,0.1-8.4,2.1-12,4.2
		C264.4,33.6,257.5,33.8,258.6,30.9z"/>
	<path class="st17" d="M244.6,44.4c0,0-10,3.3-15.3,8.1c-4.1,3.7-10,5.3-15.1,1.7s-7.7-19.8,18.6-20.9s28.9,0,28.9,0v9.1
		C255.9,42.3,250.2,43,244.6,44.4z"/>
	<path class="st17" d="M265.8,35.3c-1.2-4-5.3-10.3-20.6-12.3s-26.6,3.6-21.3,11.4s11.7,1.2,14.2,0.9c2.5-0.3,15.3-1,20.4,3.5
		C263.6,43.3,266.8,38.3,265.8,35.3z"/>
	<path class="st17" d="M260.3,35.4c0,0-11.8-0.5-16.8,12.4s-2,21.1,3.1,21.6c5.1,0.5,10.6-4.2,11.6-13.2s5.6-14.4,10.8-15.7
		C274.3,39.3,267.9,33.6,260.3,35.4z"/>
	<path class="st17" d="M262.2,33c0,0,6.1-8.9,32.9-4c24.7,4.6,20.4,19.5,17.8,22.6c-2.6,3.1-11.5,3.5-16.9-6.2S264,37,264,37
		L262.2,33z"/>
	<path class="st17" d="M265.8,35.3c0,0,10.7-2.3,19.3,2c7.4,3.6,12.5,10.8,13.5,19c0.8,6.9-9,13-15.6,11.2s-8.1-8.1-8.5-13.9
		c-0.3-5.8-4.1-13-9.8-13S260.2,38.1,265.8,35.3z"/>
</g>
</svg>
