<?xml version="1.0" encoding="utf-8"?>
<!-- Generator: Adobe Illustrator 25.2.0, SVG Export Plug-In . SVG Version: 6.00 Build 0)  -->
<svg version="1.1" id="Layer_1" xmlns="http://www.w3.org/2000/svg" xmlns:xlink="http://www.w3.org/1999/xlink" x="0px" y="0px"
	 viewBox="0 0 259.4 554.2" style="enable-background:new 0 0 259.4 554.2;" xml:space="preserve">
<style type="text/css">
	.st0{fill:#5FB0AA;}
	.st1{fill:none;stroke:#4A8F91;stroke-width:4.07;stroke-miterlimit:10;}
	.st2{fill:#77185E;}
	.st3{fill:#541146;}
	.st4{fill:#DAE78D;}
	.st5{fill:#59104A;}
	.st6{opacity:0.2;fill:#9AE0E2;enable-background:new    ;}
	.st7{fill:none;stroke:#9AE0E2;stroke-width:3;stroke-miterlimit:10;}
	.st8{fill:#FFFFFF;}
	.st9{fill:none;stroke:#C7DB52;stroke-width:2;stroke-linecap:round;stroke-miterlimit:10;}
	.st10{fill:none;stroke:#5FB0AA;stroke-width:8.51;stroke-linecap:round;stroke-miterlimit:10;}
	.st11{fill:#B34582;}
	.st12{fill:#E95BA6;}
	.st13{clip-path:url(#SVGID_2_);}
	.st14{fill:#5F1B75;}
	.st15{fill:#470B35;}
	.st16{clip-path:url(#SVGID_4_);}
	.st17{fill:#F7E731;}
	.st18{clip-path:url(#SVGID_6_);}
</style>
<g id="l-arm">
	<path class="st0" d="M79.6,206.8c-10.4-0.6-20.5-3.4-29.7-8.2c-8.2-4.3-15.6-10-22-16.7c-6-6.2-11.1-13.2-15.3-20.8
		c-2-3.7-3.8-7.5-5.4-11.4c-1.5-3.9-2.9-7.8-3.9-11.9c-1.1-4-1.9-8.1-2.5-12.3l-0.2-1.5l-0.1-1.5c-0.1-1-0.2-2-0.2-2.9l-0.2-2.9
		L0,113.9c-0.1-7.5,0.3-15.1,1.3-22.5C2.3,84.2,3.7,77,5.5,70c0.9-3.5,1.9-6.9,3-10.4c0.6-1.7,1.1-3.4,1.7-5.1l0.9-2.6l1.1-2.8
		L38,57.5l-0.7,4.1c-0.2,1.5-0.4,3-0.6,4.5c-0.4,3-0.6,6-0.8,9c-0.4,6-0.4,11.9,0,17.9c0.3,5.7,1.1,11.4,2.3,17l0.5,2l0.5,2
		c0.2,0.7,0.4,1.3,0.6,2l0.3,1l0.3,0.9c0.7,2.3,1.6,4.6,2.7,6.8c3.9,8.7,10,16.3,17.6,22c3.2,2.4,6.8,4.2,10.6,5.4
		c2.8,0.9,5.7,1,8.6,0.5L79.6,206.8z"/>
	<line class="st1" x1="35.2" y1="71.9" x2="7.3" y2="66.6"/>
	<line class="st1" x1="45" y1="130.9" x2="7.7" y2="148.3"/>
	<line class="st1" x1="72.6" y1="152.9" x2="54.6" y2="200.3"/>
	<line class="st1" x1="53.2" y1="141.4" x2="18.1" y2="168.4"/>
	<line class="st1" x1="62.9" y1="149.1" x2="33.3" y2="186.3"/>
	<line class="st1" x1="39.3" y1="118.7" x2="2.1" y2="126.6"/>
	<line class="st1" x1="35.9" y1="104.1" x2="1.2" y2="105.7"/>
	<line class="st1" x1="34.7" y1="88.2" x2="3.1" y2="85.7"/>
</g>
<g id="l-hand">
	<path class="st2" d="M50.9,11.7c0.2-2.1-1-4.1-3-4.9c-0.8-0.4-1.7-0.6-2.6-0.7c-0.1-0.5-0.3-1-0.6-1.5c-0.5-0.8-1.2-1.4-2-1.7
		c-1.9-0.6-3.9-0.7-5.9-0.2c-1,0.2-2,0.5-2.9,1c-1.4-0.2-2.9-0.2-4.3,0.1c-7.3,1.5-12.7,9.4-15.2,16.2c-3.5,9.6-1.2,23.7-1.2,23.7
		s21.2,20.1,26.1,9.7s1.9-18.9,1.9-18.9s-0.3-6.9,1.1-12C43.1,19.1,50.7,15.6,50.9,11.7z"/>
	<path class="st2" d="M39.6,53.1c0,0,7.4-6.2,10.4-10.1S63.3,29.8,59,26.5s-8.4-2.2-12,1.4s-11.7,0.6-13.3,2.6S19.6,50.1,39.6,53.1z
		"/>
	<path class="st2" d="M14.8,42.9l24.7,8.3c3.4,1.1,5.3,4.8,4.1,8.3v0c-1.1,3.4-4.8,5.3-8.3,4.1l-24.7-8.3c-3.4-1.1-5.3-4.8-4.1-8.3
		l0,0C7.7,43.6,11.4,41.8,14.8,42.9z"/>
	<path class="st3" d="M37.9,7.1c-0.3-1.5-0.7-3.1-1.1-4.5c-1,0.2-2,0.5-2.9,1c1.1,1.8,2.9,4.8-0.1,7.3c-2.3,2-4.4,4.1-6.3,6.5
		c-0.1,0.2-1.4,7.1-1.4,7.1s2.7-6.8,4.2-8.5C35.4,10.6,38.3,9.3,37.9,7.1z"/>
	<path class="st3" d="M45.3,6.1c0.4,1.1,0.5,2.2,0.2,3.3c-0.4,1.8-3.9,4-5.7,5.8c-1.4,1.4-3.3,2.4-4.1,4.9s-1.3,5-1.3,5.3
		c1.2-2.3,2.6-4.5,4.3-6.5c2.4-2.8,8.5-7.3,9-9.7c0.2-0.8,0.2-1.7,0.2-2.5C47.1,6.4,46.2,6.2,45.3,6.1z"/>
</g>
<path id="hips" class="st4" d="M192.8,363.1c-11.2,16.2-40.1,4.6-53.4,3.3c-3.6-0.4-8.7-0.7-14.5-1.1c-21.9-1.4-38.9-19.6-38.9-41.5
	v-10.7h106.7C192.8,313.1,203.3,347.9,192.8,363.1z"/>
<path id="l-thigh" class="st4" d="M128.9,424.5c0,0-4.2,12.5-16.7,12.6c-12.8,0.1-17.6-12.6-17.6-12.6s-12.3-52.1-9.7-88.4
	c1-14.9,9-31.8,25-31.8s23.6,19.9,24.6,26.9C137.7,356.5,128.9,424.5,128.9,424.5z"/>
<g id="l-calf">
	<path class="st5" d="M138.1,467.6c0.7-6.9-50.6-5.7-49.4,3s20.6,9.1,28,9C125.6,479.4,137.5,472.4,138.1,467.6z"/>
	<path class="st0" d="M67.7,543.3l3.1,5.5c0,0,13.3,0.3,28.5,0s33.3-0.4,33.3-0.4l-2.5-5.1c0,0-9.5-6.3-10.3-6.2
		S67.7,543.3,67.7,543.3z"/>
	<path class="st4" d="M124.1,531l-21.9-2.7l-7.6-103.8l34.2,0.7c0,0,4.4,15.6,4.3,30.5C133,475.5,124.1,531,124.1,531z"/>
	<path class="st2" d="M138.1,467.6v0.2l0,0l-0.8,7.4l-7.2,68c1,1.9-7.3,2.1-27.8,0.7c-18.9-1.2-34.6-0.7-34.6-0.7l-3.1-4.2
		c-1.5-2-1-4.9,1-6.3c0.1-0.1,0.2-0.2,0.3-0.2l28.6-16.7l-5-38l-1-7.1l0,0c0,0,0.1,0.1,0.1,0.1c1.1,0.6,7.8,3.6,27.3,2.2l1.9-0.2
		C124.9,472.1,131.7,470.4,138.1,467.6z"/>
	<path class="st0" d="M91.1,514c2.2-1.7,4.2-3.4,11-0.7c7.9,3.3,19.7,8.4,28,30c0,0-26.2-24.1-39.9-25C85.8,518,90.3,514.6,91.1,514
		z"/>
	<path class="st0" d="M138.1,467.6v0.2l0,0l-0.8,7.4c-7.3,3.6-15.3,5.6-23.4,6c-13.5,0.5-22-1.2-24.3-3.5l-0.9-7.1l0,0
		c0,0,0.1,0.1,0.1,0.1c1.1,0.6,7.8,3.6,27.3,2.2l1.9-0.2C124.9,472.1,131.7,470.4,138.1,467.6z"/>
</g>
<path id="r-thigh" class="st4" d="M188,428.4c0,0-4.2,12.5-16.7,12.6c-12.8,0.1-17.6-12.6-17.6-12.6s-12.3-52.1-9.7-88.4
	c1-14.9,9-31.8,25-31.8s23.6,19.9,24.6,26.9C196.8,360.4,188,428.4,188,428.4z"/>
<g id="r-calf">
	<path class="st5" d="M197.2,471.5c0.7-6.9-50.6-5.7-49.4,3s20.6,9.1,28,9C184.8,483.3,196.7,476.3,197.2,471.5z"/>
	<path class="st0" d="M132.6,548.4l2.5,4.3c0,0,8.3,1.8,23.6,1.4s30.1-1.9,30.1-1.9l0.5-5.1c0,0-9.5-6.3-10.3-6.2
		S132.6,548.4,132.6,548.4z"/>
	<path class="st4" d="M183.3,534.9l-21.9-2.7l-7.6-103.8l34.2,0.7c0,0,4.4,15.6,4.3,30.5C192.1,479.4,183.3,534.9,183.3,534.9z"/>
	<path class="st2" d="M197.2,471.5v0.2l0,0l-0.8,7.4l-7.2,68c1,1.9-7,0.6-14.5,1.8c-16.7,2.5-42.1-0.6-42.1-0.6l-2.5-7
		c-1.6-2.2,11.4-5.1,13.8-6.4l9.9-15.3l-5-38l-0.9-7.1l0,0c0,0,0.1,0.1,0.1,0.1c1.1,0.6,7.8,3.6,27.3,2.2l1.9-0.2
		C184,476,190.8,474.3,197.2,471.5z"/>
	<path class="st0" d="M150.3,517.9c2.2-1.7,3.8-1.6,10.9-0.7c14.3,1.8,28,10.4,28,30c0,0-9.4-22.1-37.8-24
		C147,522.9,149.4,518.6,150.3,517.9z"/>
	<path class="st0" d="M197.2,471.5v0.2l0,0l-0.8,7.4c-7.3,3.6-15.3,5.6-23.4,6c-13.5,0.5-22-1.2-24.3-3.5l-0.9-7.1l0,0
		c0,0,0.1,0.1,0.1,0.1c1.1,0.6,7.8,3.6,27.3,2.2l1.9-0.2C184,476.1,190.8,474.3,197.2,471.5z"/>
</g>
<g id="torso">
	<path class="st6" d="M201.4,46.3c-10.1-13.2-45.8-29.1-62.5-29.1S86.4,33.1,76.3,46.3c-16,20.9,7.7,56.6,7.7,79.6
		c3.1,11.6,29.9,25.6,52.5,25.6s53.2-14.4,57.2-25.6C193.7,101.5,217.4,67.2,201.4,46.3z"/>
	<path class="st7" d="M201.4,46.3c-10.1-13.2-45.8-29.1-62.5-29.1S86.4,33.1,76.3,46.3c-16,20.9,7.7,56.6,7.7,79.6
		c3.1,11.6,29.9,25.6,52.5,25.6s53.2-14.4,57.2-25.6C193.7,101.5,217.4,67.2,201.4,46.3z"/>
	<path class="st8" d="M91.4,41.9c0,0-13.1,6.2-13.8,18.4s4.6,25,4.6,25l5.5-1.7c0,0-5.3-18.8-3.6-24.7c2-7,6.7-11.5,12-14.6
		L91.4,41.9z"/>
	<polygon class="st8" points="105.8,38.8 100.9,41.6 96,38.5 100.9,35.7 	"/>
	<path class="st2" d="M139.4,290.6c-33-1.3-59.8,2-59.8,7.5l6.1,0.2c0-4.9,24-7.9,53.7-6.7s53.7,6.1,53.7,11l6.1,0.2
		C199.2,297.4,172.5,291.9,139.4,290.6z"/>
	<path class="st3" d="M35.9,177.9c7.2,19.6,24.8,37,37.5,38.7s20.5-13.7,17.4-34.4s-20.6-38.4-32.8-42.4
		C38.1,133.2,27.9,156.1,35.9,177.9z"/>
	<path class="st4" d="M192.1,312.3c-18.4,37-85.5,37-103.8,0c0-36-50.3-87.1-32.3-168.5c21.9-18.7,41.2-31.7,84.2-31.7
		s86.1,29,104.6,47.5C244.8,217.3,192.1,276.3,192.1,312.3z"/>
	<path class="st9" d="M55.9,143.8c-10.6,55,14.8,90.7,27.9,122.5s14.3,58,14.3,58"/>
	<path class="st9" d="M230.6,155.7c-41.1,30-73.7,74-85.1,108.5c-10.9,32.7-7.7,60.2-7.7,60.2"/>
	<path class="st10" d="M80.5,125c3.2,12.3,26.6,27.2,55.8,27.2c38.1,0,56.6-15.4,60.9-27.2"/>
	<path class="st2" d="M222.7,138.6c-16.8,5.2-37.5,20.7-80.7,47.2c-19.8,12.1-31.3,10.6-31.3,10.6s-11.8-6.2-25-20.2
		c-23.4-25.1-15.7-45.4-15.7-45.4l-19.9,11.9c0,0-10.2,17.9,8.9,36.6s40.2,28,51.6,29.5c14.4,4.9,43.3-8.2,66.7-21
		s50.1-32.2,65.1-33.4C237.6,149.9,227.1,141.7,222.7,138.6z"/>
	<path class="st0" d="M108.8,235.7l-12.4-18.4c-0.7-1.1-0.7-2.5,0-3.5l12.4-18.4c0.6-1.1,2.1-1.5,3.2-0.8c0.3,0.2,0.6,0.5,0.8,0.8
		l12.4,18.4c0.7,1.1,0.7,2.5,0,3.5l-12.4,18.4c-0.6,1.1-2.1,1.5-3.2,0.8C109.3,236.3,109,236,108.8,235.7z"/>
	<polygon class="st2" points="102.9,215.5 110.8,203.8 118.6,215.5 110.8,227.2 	"/>
	<path class="st2" d="M199.2,302.9v20.2c0,5.5-26.8,8.8-59.8,7.5s-59.8-6.9-59.8-12.4v-20.2c0,5.5,26.8,11,59.8,12.3
		S199.2,308.4,199.2,302.9z"/>
	<path class="st2" d="M139.4,309.3c-29.6-1.2-53.7-6.1-53.7-11l-6.1-0.2c0,5.5,26.8,11,59.8,12.3s59.8-2,59.8-7.5l-6.1-0.2
		C193.1,307.5,169.1,310.5,139.4,309.3z"/>
	<ellipse class="st0" cx="110.8" cy="318.6" rx="14.7" ry="19.4"/>
	<polygon class="st2" points="110.8,331.4 103.3,318.6 110.8,305.8 118.2,318.6 	"/>
	<path class="st2" d="M254.4,200.2c-9.7,18.5-29.4,33.4-42.2,33.4s-18.5-16.3-12.7-36.4s25.5-35.4,38.1-37.8
		C258.1,155.7,265.2,179.7,254.4,200.2z"/>
	<path class="st3" d="M239.6,212.7c-8.1,11.7-17.9,21-26.7,19.3s-10.4-14.9-3.3-29.3s20-24.6,28.8-22.8
		C252,182.6,246,203.5,239.6,212.7z"/>
</g>
<g id="head">
	<polygon class="st11" points="112.5,96.4 97.4,90 98.8,85.7 114.8,89 	"/>
	
		<ellipse transform="matrix(0.3007 -0.9537 0.9537 0.3007 -16.6339 150.7173)" class="st11" cx="94.5" cy="86.7" rx="5.8" ry="1.4"/>
	<path class="st11" d="M93,92.2l4.4-2.2c1-1.2,1.5-2.7,1.4-4.3l-2.4-4.4L93,92.2z"/>
	<path class="st12" d="M171.5,128.1c-7.6,6.1-24.2,12.6-38.9,12.6s-24.1-7.7-30.3-12.9c-5.6-4.7-7.8-13.6-6.1-20.6
		c1.5-6.4,10.5-14,9.8-21.3c-0.2-1.8-0.2-3.7-0.1-5.6c1.2-19.1,17.7-33.7,36.9-32.5c18.3,1.2,32.6,16.4,32.5,34.7c0,1,0,2-0.1,3
		c-0.6,7.4-0.7,16.3,0.9,21.6C178.3,114.4,176.2,124.4,171.5,128.1z"/>
	<g>
		<defs>
			<path id="SVGID_1_" d="M108.3,90c0,0,10.1-4.5,13.5,4.6s-1.6,17-1.6,17s-9.4,1.8-13.7-8.2C103.7,96.8,108.3,90,108.3,90z"/>
		</defs>
		<clipPath id="SVGID_2_">
			<use xlink:href="#SVGID_1_"  style="overflow:visible;"/>
		</clipPath>
		<g class="st13">
			<polygon class="st8" points="120.6,114.3 100,108 108.4,85.4 129.1,91.7 			"/>
			
				<ellipse transform="matrix(0.5308 -0.8475 0.8475 0.5308 -28.219 147.4541)" class="st14" cx="119.1" cy="99.2" rx="8.9" ry="7.7"/>
			<ellipse transform="matrix(0.5308 -0.8475 0.8475 0.5308 -28.219 147.4541)" cx="119.1" cy="99.2" rx="4.1" ry="3.5"/>
			<path class="st15" d="M121.6,111.6c0,0,3.4-12.1-0.7-17.4s-11.8-4.5-14.2-1.1c-1.4-5.5,9.8-8.6,9.8-8.6l13.1,10.1L121.6,111.6z"
				/>
		</g>
	</g>
	<g>
		<defs>
			<path id="SVGID_3_" d="M155.8,93.2c0,0-9.4-6.5-15.8,1.7c-3.8,4.7-5.2,11-3.7,16.9c0,0,9.5,3.7,17.1-5.2
				C158.5,100.7,155.8,93.2,155.8,93.2z"/>
		</defs>
		<clipPath id="SVGID_4_">
			<use xlink:href="#SVGID_3_"  style="overflow:visible;"/>
		</clipPath>
		<g class="st16">
			
				<rect x="133.2" y="89.2" transform="matrix(0.9968 -7.974522e-02 7.974522e-02 0.9968 -7.6023 11.9069)" class="st8" width="24.2" height="23.8"/>
			<circle class="st14" cx="148.8" cy="99.4" r="8.7"/>
			<circle cx="148.8" cy="99.4" r="4"/>
			<path class="st15" d="M134.7,111.5c0,0,0.2-12.4,6.2-16.8s12.8-1.6,16.8,1.8c5.1-4.8-9.1-10.3-9.1-10.3l-17.1,7.1L134.7,111.5z"
				/>
		</g>
	</g>
	<path class="st2" d="M139.6,120.6c0.1,1.5,0.2,3,0.4,4.5c0.1,0.8,0.1,1.7-0.1,2.5c-0.3,0.8-0.9,1.5-1.7,2c-1.4,0.8-3,1.3-4.6,1.4
		c-1.6,0.2-3.1,0.2-4.7,0.1c-1.5-0.1-3.1-0.2-4.6-0.4c-1.6-0.2-3.1-0.5-4.6-1c-1.6-0.4-3.1-1.3-4.2-2.5c-0.6-0.7-1-1.5-1.2-2.4
		c-0.1-0.9,0-1.7,0.3-2.5v-0.1l0,0c0.5-0.7,1-1.5,1.4-2.3c0.4-0.8,0.8-1.6,1-2.5c0,0.9-0.2,1.8-0.5,2.7c-0.3,0.9-0.7,1.7-1.1,2.6
		l0.1-0.1c-0.4,1.3,0,2.6,1,3.5c1.1,0.9,2.3,1.5,3.7,1.8c1.4,0.4,2.9,0.6,4.3,0.8c1.5,0.2,3,0.4,4.5,0.4c1.5,0.1,2.9,0.1,4.4,0.1
		c1.4,0,2.8-0.3,4.1-0.9c0.6-0.3,1-0.7,1.3-1.3c0.3-0.6,0.4-1.3,0.4-2C139.1,123.6,139.3,122.1,139.6,120.6z"/>
	<path class="st2" d="M119.1,117.4c-0.9,0.3-1.6,0.4-2.3,0.7c-0.3,0.1-0.7,0.2-1,0.4c-0.3,0.1-0.6,0.4-1.1,0.6
		c0.1-0.5,0.3-0.9,0.6-1.2c0.3-0.3,0.7-0.6,1.2-0.7c0.4-0.1,0.9-0.2,1.3-0.1C118.4,117,118.8,117.2,119.1,117.4z"/>
	<path class="st2" d="M137.4,119c0.4-0.1,0.9,0,1.3,0.1c0.4,0.1,0.8,0.4,1.1,0.6c0.3,0.3,0.6,0.7,0.8,1.1c0.2,0.4,0.2,0.9,0,1.3
		c-0.2-0.3-0.5-0.7-0.7-1c-0.2-0.3-0.5-0.5-0.8-0.8C138.6,120.1,138,119.6,137.4,119z"/>
	<path class="st2" d="M106.1,85.2c1.2-1,2.5-1.9,3.8-2.7c0.7-0.4,1.3-0.7,1.9-1c0.7-0.3,1.4-0.6,2.1-0.9c1.5-0.4,3-0.6,4.5-0.4
		c0.8,0.1,1.5,0.3,2.2,0.5c0.4,0.1,0.7,0.2,1.1,0.4l0.6,0.2c0.2,0.1-1.7,5.7-1.9,5.5c-0.3-0.2-0.5-0.3-0.8-0.4
		c-0.5-0.2-1.1-0.5-1.7-0.6c-1.1-0.3-2.3-0.4-3.4-0.2c-0.6,0.1-1.2,0.3-1.8,0.5c-0.6,0.2-1.2,0.4-1.8,0.7c-1.2,0.5-2.4,1.1-3.5,1.9
		L106.1,85.2z"/>
	<path class="st2" d="M159.5,90.1c-2,0.6-3.9,1-5.9,1.3c-1,0.2-2,0.3-3,0.3c-1,0.1-2.1,0.1-3.1,0.1c-2.2-0.1-4.3-0.5-6.4-1.2
		c-1-0.4-2-0.8-3-1.2c-0.5-0.2-1-0.5-1.4-0.8c-0.2-0.1-0.5-0.3-0.7-0.4s3.7-4.9,4-4.7s0.7,0.5,1,0.7c0.7,0.4,1.4,0.8,2.2,1.2
		c1.5,0.7,3.1,1.2,4.7,1.4c0.8,0.1,1.7,0.1,2.6,0.2s1.8,0,2.7,0c1.8-0.1,3.6-0.3,5.4-0.6L159.5,90.1z"/>
	<path class="st17" d="M139.4,45.6c0,0,5.4-7.4,17.7-7.2s17.2,5.9,19.1,9.4s1.1,7.2-2.4,8.7s-8-4.3-14-6.5c-7.6-2.8-8.6-1-12.7-0.3
		C143.9,50.2,137.4,48,139.4,45.6z"/>
	<path class="st17" d="M124.4,60.1c0,0-10,3.3-15.3,8.1c-4.1,3.7-9.9,5.3-15.1,1.7S86.3,50.1,112.6,49s28.9,0,28.9,0v9.1
		C135.8,58,130,58.7,124.4,60.1z"/>
	<path class="st17" d="M145.1,50.1c-1.7-3.8-6.5-9.6-21.9-9.7s-25.9,6.8-19.8,13.9s11.8-0.2,14.2-0.8s15.1-2.8,20.7,1
		S146.4,53,145.1,50.1z"/>
	<path class="st17" d="M140.1,51.2c0,0-11.8-0.5-16.8,12.5s-2,21.1,3.1,21.6S137.2,81,138.1,72s5.6-14.4,10.8-15.7
		S147.7,49.3,140.1,51.2z"/>
	<path class="st17" d="M143.2,48.4c0,0,8.5-6.7,32.6,5.9c22.3,11.7,13.8,24.7,10.4,26.9s-12-0.1-14.3-11s-28.1-17.4-28.1-17.4
		L143.2,48.4z"/>
	<path class="st17" d="M145.6,51c0,0,11,0.4,18.2,6.8c6.3,5.4,9.4,13.6,8.3,21.8c-0.9,6.9-12,10.4-17.9,6.9s-5.8-9.9-4.7-15.6
		s-0.7-13.6-6.2-15S139.4,52.3,145.6,51z"/>
	<polygon class="st12" points="166,101.2 181.5,96.1 180.5,91.7 164.3,93.6 	"/>
	<ellipse transform="matrix(0.9763 -0.2163 0.2163 0.9763 -15.7529 42.159)" class="st12" cx="184.8" cy="93.1" rx="1.4" ry="5.8"/>
	<path class="st12" d="M185.7,98.6l-4.2-2.6c-0.9-1.3-1.3-2.9-1-4.4l2.7-4.1L185.7,98.6z"/>
</g>
<g id="r-arm">
	<g>
		<defs>
			<path id="SVGID_5_" d="M206.3,223.3c0.3,0.9,0.7,1.7,1.3,2.4l0,0l0,0c1.5,2.1,3.9,3.5,6.6,3.8c9,1.3,21.3-9.6,27.5-24.4
				c2.7-6.3,3.8-12.4,3.5-17.3l0,0L253,33.3c-56-90.1-76.2,27.5-78.2,59.8C169,188.7,206.3,223.3,206.3,223.3z"/>
		</defs>
		<clipPath id="SVGID_6_">
			<use xlink:href="#SVGID_5_"  style="overflow:visible;"/>
		</clipPath>
		<g class="st18">
			<path class="st0" d="M223.6,246.5c-3.9-3.6-7.4-7.5-10.5-11.8c-2.8-3.9-5.3-8.1-7.4-12.5c-3.7-7.8-6.5-16.1-8.4-24.5
				c-1.7-7.7-2.8-15.4-3.4-23.3c-0.6-7.6-0.8-15-0.7-22.3c0-1.8,0.1-3.6,0.1-5.5l0.2-5.2c0.1-3.5,0.3-7,0.5-10.4
				c0.4-7,0.8-13.9,1.4-20.8s1.1-13.8,1.8-20.8c0.4-3.5,0.7-6.9,1.1-10.4c0.4-3.5,0.8-6.9,1.3-10.5l27,1.5c0.1,3.1,0.3,6.6,0.5,9.9
				s0.4,6.7,0.6,10c0.5,6.7,1,13.3,1.6,20c0.6,6.7,1.3,13.3,2.1,19.9c0.4,3.3,0.8,6.6,1.2,9.9l0.6,4.9c0.2,1.6,0.4,3.1,0.7,4.7
				c1,6.2,2.2,12.4,3.6,18.2c1.4,5.6,3.2,11.1,5.3,16.5c1.8,4.6,4.2,9,7.1,13.1c2,2.9,4.7,5.3,7.7,7.1L223.6,246.5z"/>
			<line class="st1" x1="226.7" y1="86.4" x2="198.3" y2="85.8"/>
			<line class="st1" x1="234.9" y1="157.8" x2="193.9" y2="162"/>
			<line class="st1" x1="251.1" y1="199" x2="208.3" y2="226.2"/>
			<line class="st1" x1="238.8" y1="173.8" x2="195.4" y2="182.5"/>
			<line class="st1" x1="244.3" y1="188.1" x2="199.4" y2="203.8"/>
			<line class="st1" x1="232.1" y1="140.7" x2="194.2" y2="142.3"/>
			<line class="st1" x1="229.9" y1="122.7" x2="195.2" y2="123.4"/>
			<line class="st1" x1="228.2" y1="104.6" x2="196.5" y2="104.6"/>
		</g>
	</g>
</g>
<g id="r-hand">
	<path class="st3" d="M200.5,68.1c0,0-4.5-8.6-5.7-13.3s-7.2-17.2-2-18.7s8.6,1.2,10.5,5.9s10.6,5,11.3,7.5S220,72.9,200.5,68.1z"/>
	<path class="st2" d="M209,35.3c0.5-3.4-5.1-9.6-3.7-13.3c0.6-1.7,2.6-4.3,7.4-2.9c0.3-0.4,0.7-0.8,1.1-1.1c0.7-0.5,1.6-0.8,2.6-0.8
		c3,0.3,5.8,1.9,7.7,4.3c1.4,0.4,2.7,1,3.9,1.8c6,4.3,7.9,13.7,7.4,20.9c-0.6,10.2-8.4,22.1-8.4,22.1s-27.5,10-27.8-1.6
		s5.9-18.1,5.9-18.1S208.2,40.5,209,35.3z"/>
	<path class="st2" d="M224.8,77.8l-26-1.5c-3.6-0.2-6.3-3.3-6.1-6.9v0c0.2-3.6,3.3-6.3,6.9-6.1l26,1.5c3.6,0.2,6.3,3.3,6.1,6.9v0
		C231.5,75.3,228.4,78,224.8,77.8z"/>
	<path class="st3" d="M212.6,19.1c0.3-0.4,0.7-0.8,1.1-1.1c2,3.3,6.6,10.8,7.7,14.1c1.4,4.1-2,11.5-2.3,12.1
		c0.1-0.5,1.8-7.1,0.6-10.5C218.6,30,212.6,19.1,212.6,19.1z"/>
	<path class="st3" d="M224.1,21.4c1.4,0.4,2.7,1,3.9,1.8c1.3,3.3,2.9,7.6,3.1,10.1c0.2,3.8-0.3,7.7-1.6,11.3
		c0.1-0.4,1.6-5.9,0.6-9.9C229,30.6,224.1,21.4,224.1,21.4z"/>
</g>
</svg>
