<?xml version="1.0" encoding="utf-8"?>
<!-- Generator: Adobe Illustrator 25.2.0, SVG Export Plug-In . SVG Version: 6.00 Build 0)  -->
<svg version="1.1" id="Layer_1" xmlns="http://www.w3.org/2000/svg" xmlns:xlink="http://www.w3.org/1999/xlink" x="0px" y="0px"
	 viewBox="0 0 242.3 537.2" style="enable-background:new 0 0 242.3 537.2;" xml:space="preserve">
<style type="text/css">
	.st0{fill:#5FB0AA;}
	.st1{fill:none;stroke:#4A8F91;stroke-width:4.07;stroke-miterlimit:10;}
	.st2{fill:#77185E;}
	.st3{fill:#541146;}
	.st4{fill:#C7DB52;}
	.st5{fill:#59104A;}
	.st6{fill:#DAE78D;}
	.st7{fill:none;stroke:#C7DB52;stroke-width:2;stroke-linecap:round;stroke-miterlimit:10;}
	.st8{opacity:0.2;fill:#9AE0E2;enable-background:new    ;}
	.st9{fill:none;stroke:#9AE0E2;stroke-width:3;stroke-miterlimit:10;}
	.st10{fill:#FFFFFF;}
	.st11{fill:none;stroke:#5FB0AA;stroke-width:8.51;stroke-linecap:round;stroke-miterlimit:10;}
	.st12{clip-path:url(#SVGID_2_);}
	.st13{fill:#E95BA6;}
	.st14{fill:#F7E731;}
	.st15{fill:#B34582;}
	.st16{clip-path:url(#SVGID_4_);}
	.st17{fill:#5F1B75;}
	.st18{fill:#470B35;}
</style>
<g id="b-arm">
	<path class="st0" d="M186.8,175.6c-5.4,2.2-11.2,5-17.4,8s-12.5,6.3-19.2,9.5c-13.3,6.4-27.8,12.4-43.1,16.4l-2.9,0.7l-1.5,0.4
		L101,211c-2.5,0.5-5,0.9-7.5,1.2c-5.3,0.5-10.7,0.3-15.9-0.8c-5.3-1-10.3-2.9-15-5.5c-4.3-2.4-8.4-5.4-11.9-8.9
		c-6.2-6.2-11.3-13.4-15.1-21.3c-1.8-3.6-3.4-7.4-4.7-11.2c-0.7-1.9-1.3-3.8-1.9-5.7c-0.3-1-0.6-1.9-0.8-2.9l-0.4-1.5l-0.4-1.8
		l26-7.4l0,0v0.1l0.1,0.2l0.2,0.4l0.4,1l0.9,2c0.7,1.3,1.4,2.7,2.1,3.9c1.4,2.6,3,5,4.7,7.4c3,4.3,6.6,8,10.9,11
		c1.7,1.1,3.5,2,5.4,2.6c1.6,0.5,3.2,0.7,4.8,0.6c0.8,0,1.6-0.1,2.4-0.3c0.8-0.1,1.7-0.4,2.5-0.6c0.9-0.3,1.8-0.6,2.7-1l3.8-1.7
		c11-4.9,21.5-11.4,32.2-19c5.4-3.8,10.8-7.8,16.6-11.9s11.8-8.5,18.8-12.7L186.8,175.6z"/>
	<line class="st1" x1="59.5" y1="158.3" x2="34.4" y2="171.7"/>
	<line class="st1" x1="101.8" y1="168" x2="117.3" y2="206.1"/>
	<line class="st1" x1="146.1" y1="138.4" x2="172.3" y2="181.8"/>
	<line class="st1" x1="116.4" y1="159.4" x2="136.9" y2="198.7"/>
	<line class="st1" x1="130.9" y1="149.4" x2="155.2" y2="190.3"/>
	<line class="st1" x1="88.4" y1="174.1" x2="94.9" y2="211.5"/>
	<line class="st1" x1="79.3" y1="174.9" x2="66.8" y2="207.4"/>
	<line class="st1" x1="69.3" y1="169.6" x2="46.2" y2="191.2"/>
</g>
<g id="b-hand">
	<path class="st2" d="M0.5,119.8c-0.9-1.9-0.5-4.2,1-5.6c0.6-0.6,1.4-1.2,2.2-1.6c-0.1-0.5-0.1-1.1,0-1.6c0.2-0.9,0.7-1.7,1.4-2.3
		c1.6-1.2,3.4-2,5.4-2.3c1-0.2,2.1-0.2,3.1,0c1.3-0.7,2.6-1.2,4.1-1.4c7.3-1.2,15.2,4.3,19.9,9.8c6.6,7.7,9.4,21.7,9.4,21.7
		s-12.7,26.3-21,18.2s-8.4-17-8.4-17s-2.1-6.6-5.2-10.8C10.4,124.1,2.1,123.5,0.5,119.8z"/>
	<path class="st2" d="M51.3,142.6c0,0,1.6-9.6,1.4-14.5c-0.2-4.9,1.6-18.6-3.8-18.4s-7.8,3.8-8.2,8.9s-8.5,8-8.5,10.6
		C32.2,131.8,34.2,153.2,51.3,142.6z"/>
	<path class="st2" d="M53.5,150.7l-24.3,9.4c-3.4,1.3-7.1-0.4-8.4-3.7l0,0c-1.3-3.4,0.4-7.1,3.7-8.4l24.3-9.4
		c3.4-1.3,7.1,0.4,8.4,3.7l0,0C58.6,145.7,56.9,149.4,53.5,150.7z"/>
	<path class="st3" d="M11,111c-0.3-1.5-0.4-3.1-0.5-4.6c1-0.2,2.1-0.2,3.1,0c-0.4,2.1-1,5.5,2.6,6.8c2.8,1,5.6,2.3,8.2,3.9
		c0.1,0.1,3.8,6.2,3.8,6.2s-4.9-5.4-7-6.4C14.6,113.4,11.4,113.2,11,111z"/>
	<path class="st3" d="M3.7,112.7c0,1.1,0.4,2.3,1,3.2c1.1,1.5,5.1,2.4,7.4,3.4c1.8,0.8,4,1,5.6,3.1s3,4.2,3.2,4.5
		c-1.9-1.7-4-3.3-6.3-4.6c-3.2-1.8-10.6-3.8-11.9-5.9c-0.5-0.7-0.8-1.5-1.1-2.3C2.2,113.6,2.9,113.1,3.7,112.7z"/>
</g>
<path id="b-thigh" class="st4" d="M177.1,407.4c0,0-4.2,12.5-16.7,12.6c-12.8,0.1-17.6-12.6-17.6-12.6s-12.3-52.1-9.7-88.3
	c1.1-14.9,9-31.8,25-31.8s23.6,19.9,24.6,26.9C185.9,339.5,177.1,407.4,177.1,407.4z"/>
<g id="b-calf">
	<path class="st5" d="M186.2,450.6c0.7-6.9-50.6-5.7-49.4,3s20.6,9.1,28,9C173.9,462.3,185.7,455.3,186.2,450.6z"/>
	<path class="st0" d="M104.4,526.2l3.1,5.5c0,0,24.8,0.3,40.1,0s33.3-0.4,33.3-0.4l-2.6-5.1c0,0-9.5-6.3-10.3-6.2
		S104.4,526.2,104.4,526.2z"/>
	<path class="st4" d="M172.3,513.9l-21.9-2.7l-7.6-103.9l34.2,0.7c0,0,4.4,15.6,4.3,30.5C181.2,458.4,172.3,513.9,172.3,513.9z"/>
	<path class="st2" d="M186.2,450.6v0.2l0,0l-0.8,7.4l-7.2,68c1,1.9-7.3,2.1-27.8,0.7c-18.9-1.2-46.1-0.7-46.1-0.7l-3.1-4.2
		c-1.5-2-1-4.9,1-6.3c0.1-0.1,0.2-0.2,0.3-0.2l40.1-16.7l-5-38l-0.9-7.1l0,0c0,0,0.1,0.1,0.1,0.1c1.1,0.6,7.8,3.6,27.3,2.2l1.9-0.2
		C173.1,455.1,179.9,453.4,186.2,450.6z"/>
	<path class="st0" d="M139.3,496.9c2.2-1.7,4.2-3.5,10.9-0.7c7.9,3.3,19.7,8.4,28,30c0,0-26.2-24.1-39.9-25
		C133.9,500.9,138.5,497.6,139.3,496.9z"/>
	<path class="st0" d="M186.2,450.6v0.2l0,0l-0.8,7.4c-7.3,3.6-15.3,5.6-23.4,6c-13.5,0.5-22-1.2-24.3-3.5l-0.9-7.1l0,0
		c0,0,0.1,0.1,0.1,0.1c1.1,0.6,7.8,3.6,27.3,2.2l1.9-0.2C173.1,455.1,179.9,453.4,186.2,450.6z"/>
</g>
<path id="f-thigh" class="st6" d="M201,412.7c0,0-4.2,12.5-16.7,12.6c-12.8,0.1-17.6-12.6-17.6-12.6s-12.3-52.1-9.7-88.4
	c1.1-14.9,9-31.8,25-31.8s23.6,19.9,24.6,26.9C209.8,344.7,201,412.7,201,412.7z"/>
<g id="f-calf">
	<path class="st5" d="M210.2,455.9c0.7-6.9-50.6-5.7-49.4,3s20.6,9.1,28,9C197.8,467.6,209.7,460.6,210.2,455.9z"/>
	<path class="st0" d="M128.3,531.5l3.1,5.5c0,0,24.8,0.3,40.1,0s33.3-0.4,33.3-0.4l-2.5-5.1c0,0-9.5-6.3-10.3-6.2
		S128.3,531.5,128.3,531.5z"/>
	<path class="st6" d="M196.3,519.2l-21.9-2.7l-7.6-103.8l34.2,0.7c0,0,4.4,15.6,4.3,30.5C205.1,463.7,196.3,519.2,196.3,519.2z"/>
	<path class="st2" d="M210.2,455.9v0.2l0,0l-0.8,7.4l-7.2,68c1,1.9-7.3,2.1-27.8,0.7c-19-1.2-46.1-0.7-46.1-0.7l-3.1-4.2
		c-1.5-2-1-4.9,1-6.3c0.1-0.1,0.2-0.2,0.3-0.2l40.1-16.7l-5-38l-0.9-7.1l0,0c0,0,0.1,0.1,0.1,0.1c1.1,0.6,7.8,3.6,27.3,2.2l1.9-0.2
		C197.1,460.4,203.8,458.6,210.2,455.9z"/>
	<path class="st0" d="M163.3,502.2c2.2-1.7,4.2-3.5,10.9-0.7c7.9,3.3,19.7,8.4,28,30c0,0-26.2-24.1-39.9-25
		C157.9,506.2,162.4,502.9,163.3,502.2z"/>
	<path class="st0" d="M210.2,455.9v0.2l0,0l-0.8,7.4c-7.3,3.6-15.3,5.6-23.4,6c-13.5,0.5-22-1.2-24.3-3.5l-0.9-7.1l0,0
		c0,0,0.1,0.1,0.1,0.1c1.1,0.6,7.8,3.6,27.3,2.2l1.9-0.2C197,460.4,203.8,458.6,210.2,455.9z"/>
</g>
<path id="hips" class="st6" d="M160.2,355c-9-1.1-19.3-5.3-25-12.1c-10.1-12.2-18.7-45.5-18.7-45.5h96.7c0,0,6.3,8.2-1.6,37.5
	C206.5,353.6,173.9,356.6,160.2,355z"/>
<g id="torso">
	<path class="st2" d="M164.2,272.4c-31.4,0-56.8,4.4-56.8,9.9h5.8c0-4.9,22.8-8.8,51-8.8s51,4,51,8.8h5.8
		C221,276.9,195.5,272.4,164.2,272.4z"/>
	<path class="st6" d="M213.1,296.6c-17.3,37-80.6,37-97.9,0c0-36-33.2-62.2-23.4-118.1c0.6-3.2,1.4-6.3,2.4-9.3l0,0
		c2.8-7.9,6.5-15.4,11.3-22.3v-0.1c11.9-17.7,29.9-38.9,54-49c41.4-17.2,76.8,20.3,80.9,46.1C251,210.4,213.1,260.6,213.1,296.6z"/>
	<path class="st7" d="M205.3,135.7c-31.2,0.8-74.9,54.5-75.2,108.1c-0.2,34.4-1.7,64.8-1.7,64.8"/>
	<path class="st2" d="M221,282.4v20.2c0,5.5-25.4,9.9-56.8,9.9s-56.8-4.5-56.8-9.9v-20.2c0,5.5,25.4,9.9,56.8,9.9
		S221,287.9,221,282.4z"/>
	<path class="st2" d="M96.9,180.8v12.4c0,0-4.8-11.3-2.7-24l0,0c2.8-7.9,6.6-15.4,11.3-22.3C104.9,148.1,93.1,170.9,96.9,180.8z"/>
	<path class="st2" d="M164.2,291.2c-28.2,0-51-4-51-8.8h-5.8c0,5.5,25.4,9.9,56.8,9.9s56.8-4.4,56.8-9.9h-5.8
		C215.1,287.2,192.3,291.2,164.2,291.2z"/>
	<path class="st8" d="M234.4,30.6c-10.1-13.2-45.8-29.1-62.5-29.1s-52.4,15.9-62.5,29.1c-16,20.9,7.7,74.6,7.7,97.6
		c3,11.6,27.4,14.3,49.9,12.3s51.5-17.5,55.5-28.7C222.3,87.4,250.3,51.5,234.4,30.6z"/>
	<path class="st9" d="M234.4,30.6c-10.1-13.2-45.8-29.1-62.5-29.1s-52.4,15.9-62.5,29.1c-16,20.9,7.7,74.6,7.7,97.6
		c3,11.6,27.4,14.3,49.9,12.3s51.5-17.5,55.5-28.7C222.3,87.4,250.3,51.5,234.4,30.6z"/>
	<path class="st10" d="M124.3,26.2c0,0-13.1,6.2-13.8,18.4s4.6,25,4.6,25l5.5-1.7c0,0-5.3-18.8-3.6-24.7c2-7,6.7-11.5,12-14.6
		L124.3,26.2z"/>
	<polygon class="st10" points="138.8,23.1 133.9,25.9 129,22.8 133.9,20 	"/>
	<path class="st11" d="M117.9,128.1c3.2,12.3,23.2,15.9,51.4,8.4c36-9.6,48.7-12.9,53-24.8"/>
	<path class="st2" d="M96.9,193.2c23.9-21,35.2-25.1,57.8-39.3c9.6-6.1,27.1-11.8,38.9-14.2c29.2-5.9,48.7,13.6,48.7,13.6
		s-2.6-14.8-7.4-25.7c-3.6-4.6-22.2-9-48.1-2.7c-12.8,3.1-33.8,11.4-46.1,19.9c-28.6,19.8-43.8,36.1-43.8,36.1L96.9,193.2z"/>
	<path class="st0" d="M96,221.6l-5.7-18.4c-0.3-1.2-0.3-2.4,0-3.5l5.7-18.4c0.5-1.5,1.4-1.5,1.8,0l5.7,18.4c0.3,1.2,0.3,2.4,0,3.5
		l-5.7,18.4C97.4,223.1,96.5,223.1,96,221.6z"/>
	<polygon class="st2" points="93.3,201.4 96.9,189.7 100.5,201.4 96.9,213.1 	"/>
	<ellipse class="st0" cx="114" cy="298.5" rx="7.8" ry="19.4"/>
	<polygon class="st2" points="114,311.3 110,298.5 114,285.7 117.9,298.5 	"/>
	<path class="st2" d="M224.5,178.5c0,20.2-13.4,33-30.7,39.9c-16.6-5.8-30.7-19.7-30.7-39.9s13.7-33.3,30.7-33.3
		S224.5,158.3,224.5,178.5z"/>
	<path class="st3" d="M218.2,187.8c0,15-10.6,24.4-24.3,29.6c-13.1-4.3-24.3-14.6-24.3-29.6s10.9-24.6,24.3-24.6
		C207.3,163.1,218.2,172.8,218.2,187.8z"/>
</g>
<g id="f-arm">
	<g>
		<defs>
			<path id="SVGID_1_" d="M206.3,210.8c12.4-8.3,15-25.4,7.5-36.6s-21.6-14.8-34-6.5l-13.9,14.7L34.4,227.1l-16.5,80.6L85.2,332
				L206.3,210.8z"/>
		</defs>
		<clipPath id="SVGID_2_">
			<use xlink:href="#SVGID_1_"  style="overflow:visible;"/>
		</clipPath>
		<g class="st12">
			<path class="st0" d="M235.1,170.5c-4,7.9-8.8,15.3-14.3,22.2c-5.1,6.5-10.6,12.6-16.6,18.3c-11.4,10.9-23.9,20.6-37.4,28.9
				c-1.7,1-3.3,2-5,3s-3.4,2-5,2.8c-3.2,1.7-6.4,3.5-9.6,5.1c-6.4,3.4-12.9,6.7-19.4,9.9c-6.5,3.2-13,6.4-19.6,9.4
				c-3.3,1.5-6.6,3-9.9,4.5s-6.6,2.9-10.1,4.4c-6.9,2.9-14.8-0.3-17.7-7.2c-2.6-6-0.4-13,5.1-16.6l0.3-0.2c2.8-1.8,5.7-3.8,8.6-5.7
				s5.8-3.9,8.6-5.9c5.8-4,11.4-8,17.1-12.1c5.6-4.1,11.2-8.3,16.8-12.5c2.8-2.1,5.5-4.3,8.2-6.4c1.4-1.1,2.6-2.1,3.9-3.1
				s2.5-2.1,3.7-3.1c9.6-8.2,18.4-17.5,26.1-27.5c3.6-4.8,6.9-9.8,9.9-15c2.7-4.7,4.9-9.7,6.5-14.9c4.4-14.4,19.7-22.5,34.1-18.1
				c14.4,4.4,22.5,19.7,18,34.1c-0.4,1.4-1,2.8-1.6,4.1L235.1,170.5z"/>
			<line class="st1" x1="90.5" y1="246.2" x2="104.5" y2="271"/>
			<line class="st1" x1="149.7" y1="201.1" x2="175.2" y2="233.4"/>
			<line class="st1" x1="180.5" y1="161.5" x2="223" y2="189"/>
			<line class="st1" x1="161.7" y1="188.6" x2="192.3" y2="220.7"/>
			<line class="st1" x1="172.1" y1="175.3" x2="208.3" y2="206"/>
			<line class="st1" x1="136.4" y1="212.7" x2="157.3" y2="244.4"/>
			<line class="st1" x1="121.4" y1="224.2" x2="139.9" y2="253.7"/>
			<line class="st1" x1="106.1" y1="235.4" x2="122.3" y2="262.6"/>
		</g>
	</g>
</g>
<g id="f-hand">
	<path class="st2" d="M50.9,282.9c-2.7,2.1-10.8,0.6-13.3,3.6c-1.1,1.4-2.4,4.4,1.2,7.8c-0.2,0.5-0.4,1-0.4,1.6
		c-0.1,0.9,0.1,1.8,0.6,2.6c1.8,2.4,4.6,4.1,7.6,4.5c1,1,2.2,1.8,3.6,2.4c6.8,3,15.8-0.2,21.8-4.3c8.4-5.7,14.8-18.5,14.8-18.5
		s-5.4-28.8-15.5-23.1s-12.6,14.2-12.6,14.2S55,279.7,50.9,282.9z"/>
	<path class="st2" d="M74.9,259c0,0-9.7,0.5-14.4,1.9s-18.5,2.6-17.2,7.8s5.4,6.8,10.4,6s9.7,6.5,12.2,5.9
		C68.5,279.9,89,273.3,74.9,259z"/>
	<path class="st2" d="M84.8,282.2l-14.5-21.6c-2-3-1.2-7,1.8-9l0,0c3-2,7-1.2,9,1.8l14.5,21.6c2,3,1.2,7-1.8,9l0,0
		C90.9,286,86.8,285.2,84.8,282.2z"/>
	<path class="st3" d="M38.9,294.4c-0.2,0.5-0.4,1-0.4,1.6c3.9,0.1,12.7,0.2,16.1-0.5c4.2-0.9,8.9-7.6,9.2-8.1
		c-0.4,0.4-5.2,5.2-8.8,5.9C51.3,293.9,38.9,294.4,38.9,294.4z"/>
	<path class="st3" d="M46.8,303c1,1,2.2,1.8,3.6,2.4c3.6-0.6,8-1.4,10.3-2.5c3.5-1.7,6.5-4.2,9-7.1c-0.3,0.3-4.2,4.4-8.2,5.5
		C57.1,302.6,46.8,303,46.8,303z"/>
</g>
<g id="head">
	<path class="st13" d="M209.4,108.6c-7.1,8.1-50.1,19.9-65.9,15.1c-13.4-4.1-19.1-14-16.5-24.1c3.6,1.7,8.4,4.5,13-1.4
		c-2.2,1.3-8,4.2-12.6-0.3c2.7-6,7.7-14.2,11-25.3c0.5-1.8,0.6-6,0.7-7.8c1.4-19.1,18-33.5,37.1-32.2c18.1,1.3,32.1,16.3,32.2,34.4
		c0,1,0,2-0.1,3c-0.6,7.4-4.1,15.5-3.1,21C206.6,98.3,209.5,98.5,209.4,108.6z"/>
	<path class="st14" d="M175.5,29.9c0,0,5.4-7.5,17.7-7.2s17.2,5.9,19.1,9.4s1.1,7.2-2.4,8.7s-8-4.3-14-6.5c-7.6-2.8-8.6-1-12.7-0.3
		C179.9,34.5,173.4,32.3,175.5,29.9z"/>
	<path class="st14" d="M160.4,44.4c0,0-9.9,3.3-15.3,8.1c-4.1,3.7-10,5.3-15.1,1.7c-5.1-3.6-7.7-19.8,18.6-20.9
		c26.3-1.1,28.9,0,28.9,0v9.1C171.7,42.3,166,43,160.4,44.4z"/>
	<path class="st14" d="M181.2,34.4c-1.7-3.8-6.5-9.6-21.9-9.7s-25.9,6.8-19.8,13.9s11.8-0.2,14.2-0.8s15.1-2.8,20.7,1
		S182.4,37.3,181.2,34.4z"/>
	<path class="st14" d="M176.1,35.4c0,0-11.7-0.5-16.7,12.4s-2,21.1,3.1,21.6s10.6-4.2,11.6-13.2s5.6-14.4,10.8-15.7
		S183.8,33.6,176.1,35.4z"/>
	<path class="st14" d="M179.2,32.7c0,0,8.5-6.7,32.6,5.9c22.3,11.6,13.8,24.7,10.3,26.9s-12-0.1-14.3-10.9S179.8,37,179.8,37
		L179.2,32.7z"/>
	<path class="st14" d="M181.6,35.3c0,0,10.9,0.4,18.2,6.8c6.3,5.4,9.4,13.6,8.3,21.8c-0.9,6.9-12,10.4-17.9,6.9s-5.8-9.9-4.7-15.6
		s-0.7-13.6-6.2-15S175.5,36.6,181.6,35.3z"/>
	<path class="st15" d="M173.6,82l6.7-4l-1.4-4.3l-7.7,1c0,0-2.4,1.2-1.5,4.3C170.7,82.3,173.6,82,173.6,82z"/>
	<path class="st15" d="M180.3,75.5c1,4.7,3.9,4.9,4.7,4.6s2.8-2,1.1-6.5s-3.8-4.7-4.6-4.5S179.3,70.8,180.3,75.5z"/>
	<path class="st15" d="M184.7,80.2l-4.4-2.2c-0.5-0.6-0.9-1.2-1.1-2c-0.3-0.7-0.4-1.5-0.2-2.3l2.4-4.4L184.7,80.2z"/>
	<path class="st10" d="M153.7,74.1c0,0-2.9-2-5.4-1.1c-3.9,1.4-8.2,6.6-7.1,19.6c0,0,3,2.8,7.5,0.3
		C153.5,90.3,155.7,77.7,153.7,74.1z"/>
	<g>
		<defs>
			<path id="SVGID_3_" d="M153.7,74.1c0,0-2.9-2-5.4-1.1c-3.9,1.4-8.2,6.6-7.1,19.6c0,0,3,2.8,7.5,0.3
				C153.5,90.3,155.7,77.7,153.7,74.1z"/>
		</defs>
		<clipPath id="SVGID_4_">
			<use xlink:href="#SVGID_3_"  style="overflow:visible;"/>
		</clipPath>
		<g class="st16">
			
				<ellipse transform="matrix(4.152684e-02 -0.9991 0.9991 4.152684e-02 55.1233 224.3015)" class="st17" cx="144.5" cy="83.4" rx="8.7" ry="4.3"/>
			<ellipse transform="matrix(4.152684e-02 -0.9991 0.9991 4.152684e-02 55.1233 224.3015)" cx="144.5" cy="83.4" rx="4" ry="2"/>
			<path class="st18" d="M141.1,92.6c0,0-0.8-15.3,5.8-17.2c5.7-1.6,9.5,5.1,9.5,5.1l-0.5-9.1c0,0-8.5-3.1-13.7,4.9
				S141.1,92.6,141.1,92.6z"/>
		</g>
	</g>
	<path class="st2" d="M138.8,97.8c0.4,0,0.9,0.2,1.2,0.4c0.4,0.2,0.7,0.5,1,0.9c0.3,0.4,0.4,0.8,0.5,1.3c0.1,0.5,0,0.9-0.3,1.3
		c-0.1-0.4-0.3-0.7-0.5-1.1c-0.2-0.3-0.4-0.6-0.6-0.9C139.8,99.1,139.3,98.5,138.8,97.8z"/>
	<path class="st2" d="M154.9,68.7c-0.7-1-1.5-1.8-2.4-2.7c-0.4-0.4-0.8-0.7-1.2-1c-0.4-0.3-0.8-0.6-1.3-0.9
		c-0.9-0.4-1.9-0.6-2.8-0.4c-0.5,0.1-1,0.3-1.4,0.5c-0.2,0.1-0.5,0.3-0.7,0.4c-0.1,0.1-0.2,0.2-0.4,0.2c0.2,1.9,0.6,3.7,1.2,5.5
		c0.2-0.2,0.3-0.3,0.5-0.4c0.3-0.2,0.6-0.5,1-0.6c0.7-0.3,1.4-0.4,2.1-0.2c0.4,0.1,0.8,0.3,1.1,0.5c0.4,0.2,0.8,0.4,1.1,0.7
		c0.8,0.5,1.5,1.2,2.2,1.9L154.9,68.7z"/>
</g>
</svg>
