<?xml version="1.0" encoding="utf-8"?>
<!-- Generator: Adobe Illustrator 25.2.0, SVG Export Plug-In . SVG Version: 6.00 Build 0)  -->
<svg version="1.1" id="Layer_1" xmlns="http://www.w3.org/2000/svg" xmlns:xlink="http://www.w3.org/1999/xlink" x="0px" y="0px"
	 viewBox="0 0 391.5 492.1" style="enable-background:new 0 0 391.5 492.1;" xml:space="preserve">
<style type="text/css">
	.st0{fill:#C7DB52;}
	.st1{fill:#5FB0AA;}
	.st2{fill:none;stroke:#4A8F91;stroke-width:4.07;stroke-miterlimit:10;}
	.st3{fill:#77185E;}
	.st4{fill:#541146;}
	.st5{fill:#DAE78D;}
	.st6{fill:#59104A;}
	.st7{opacity:0.2;fill:#9AE0E2;enable-background:new    ;}
	.st8{fill:none;stroke:#9AE0E2;stroke-width:3;stroke-miterlimit:10;}
	.st9{fill:#FFFFFF;}
	.st10{fill:none;stroke:#C7DB52;stroke-width:2;stroke-linecap:round;stroke-miterlimit:10;}
	.st11{fill:none;stroke:#5FB0AA;stroke-width:8.51;stroke-linecap:round;stroke-miterlimit:10;}
	.st12{clip-path:url(#SVGID_2_);}
	.st13{fill:#B34582;}
	.st14{fill:#E95BA6;}
	.st15{clip-path:url(#SVGID_4_);}
	.st16{fill:#5F1B75;}
	.st17{fill:#470B35;}
	.st18{clip-path:url(#SVGID_6_);}
	.st19{fill:#F7E731;}
</style>
<path id="l-thigh" class="st0" d="M181,365.3c-7,1.4-21.6,3-27.4-8c-11-21,9.1-32.9,9.1-32.9c20.2-10.8,41.3-19.8,63.1-26.8
	c14.2-4.5,32.8-3.3,38.7,11.6s-5.7,32.2-11.8,35.5C230.6,357.1,198.6,362,181,365.3z"/>
<g id="l-hand">
	<path class="st1" d="M199.5,184.5c-12.9-1.5-26.4-2.7-40.2-4.2s-27.9-3.4-41.8-6.1l-2.6-0.5l-1.3-0.2l-1.4-0.3
		c-1.9-0.4-3.8-0.8-5.6-1.2c-3.7-0.9-7.4-1.9-11-3s-7.2-2.4-10.7-3.7s-7-2.8-10.4-4.4c-6.8-3.2-13.3-6.7-19.6-10.7
		c-3.1-2-6.2-4.1-9.2-6.3c-1.5-1.1-3-2.2-4.5-3.4l-2.2-1.8l-1.2-1l-1.3-1.2l17-21c0-0.1,0,0,0.1,0l0.2,0.1l0.4,0.2l0.9,0.5l1.9,1.1
		c1.3,0.7,2.6,1.4,4,2.1c2.7,1.4,5.5,2.6,8.3,3.8c5.6,2.3,11.3,4.3,17.2,5.9c2.9,0.8,5.8,1.5,8.8,2.1c2.9,0.6,5.9,1.1,8.8,1.5
		s5.9,0.7,8.8,0.9c1.5,0.1,2.9,0.1,4.4,0.2h1.1h1.2h2.4c12.9,0.2,25.7-0.2,38.8-1c13.1-0.8,26.5-1.9,40.6-2.6L199.5,184.5z"/>
	<line class="st2" x1="65.9" y1="122.6" x2="52" y2="147.4"/>
	<line class="st2" x1="130.4" y1="134.4" x2="127" y2="175.4"/>
	<line class="st2" x1="183.9" y1="131.6" x2="183.1" y2="182.3"/>
	<line class="st2" x1="148" y1="133.9" x2="145.9" y2="178.2"/>
	<line class="st2" x1="165.8" y1="132.9" x2="164.7" y2="180.4"/>
	<line class="st2" x1="113.4" y1="134.1" x2="107.7" y2="171.6"/>
	<line class="st2" x1="97.4" y1="132.2" x2="88" y2="165.7"/>
	<line class="st2" x1="81.5" y1="128.4" x2="69.4" y2="157.6"/>
</g>
<g id="l-hand-2">
	<path class="st3" d="M13.4,90.7c-2-0.7-4.2-0.1-5.5,1.5c-0.6,0.7-1,1.5-1.4,2.3c-0.5,0-1.1,0-1.6,0.2C4,95,3.2,95.5,2.6,96.2
		c-1.1,1.7-1.7,3.6-1.8,5.6c-0.1,1,0,2.1,0.2,3.1c-0.6,1.3-0.9,2.7-1,4.2c-0.5,7.4,5.6,14.8,11.5,19c8.3,5.9,22.4,7.5,22.4,7.5
		s25.1-15,16.4-22.5s-17.7-6.9-17.7-6.9s-6.8-1.6-11.2-4.3C18.5,100.2,17.1,92,13.4,90.7z"/>
	<path class="st3" d="M50.2,112.9c0,0-4-8.8-6.9-12.8s-9.1-16.3-13.4-13.2s-4.4,7.5-1.9,11.9s-2.6,11.4-1.1,13.5
		S41.9,131.2,50.2,112.9z"/>
	<path class="st3" d="M33.7,133.9l14.7-21.5c2-3,6.1-3.7,9.1-1.7l0,0c3,2,3.7,6.1,1.7,9.1l-14.7,21.5c-2,3-6.1,3.7-9.1,1.7l0,0
		C32.4,140.9,31.6,136.9,33.7,133.9z"/>
	<path class="st4" d="M5.5,102c-1.6-0.1-3.1-0.2-4.7-0.1c-0.1,1,0,2.1,0.2,3.1c2-0.6,5.4-1.5,7,2c1.3,2.7,2.8,5.3,4.5,7.8
		c0.1,0.1,6.5,3.3,6.5,3.3s-5.8-4.4-7-6.4C8.1,105.4,7.7,102.2,5.5,102z"/>
	<path class="st4" d="M6.5,94.6c1.1-0.1,2.3,0.1,3.3,0.7c1.6,0.9,2.8,4.8,4.1,7.1c1,1.7,1.4,3.9,3.6,5.3s4.5,2.6,4.8,2.8
		c-1.9-1.8-3.6-3.7-5.1-5.9c-2-3.1-4.7-10.2-6.9-11.3c-0.8-0.4-1.5-0.7-2.4-0.9C7.3,93,6.8,93.7,6.5,94.6z"/>
</g>
<path id="hips" class="st5" d="M315.7,347.4c-11.2,16.2-40.1,4.6-53.4,3.3c-3.2-0.3-7.8-0.7-13-1c-22.7-1.5-40.4-20.4-40.4-43.2v-9
	h106.7C315.7,297.5,326.2,332.2,315.7,347.4z"/>
<g id="b-calf">
	<path class="st6" d="M196.1,402.1c0.7-6.9-50.6-5.7-49.4,3s20.6,9.1,28,9C183.7,413.8,195.6,406.8,196.1,402.1z"/>
	<path class="st1" d="M125.7,477.7l3.1,5.5c0,0,13.3,0.3,28.5,0s33.3-0.5,33.3-0.5l-2.6-5.1c0,0-9.5-6.3-10.3-6.2
		S125.7,477.7,125.7,477.7z"/>
	<path class="st0" d="M182.1,465.5l-21.9-2.7L151,350.6l35.7,9c0,0,4.4,15.6,4.3,30.5C191,409.9,182.1,465.5,182.1,465.5z"/>
	<path class="st3" d="M196.1,402.1v0.2l0,0l-0.8,7.4l-7.2,68c1,1.9-7.3,2.1-27.8,0.7c-19-1.2-34.6-0.7-34.6-0.7l-3.1-4.2
		c-1.5-2-1-4.9,1-6.3c0.1-0.1,0.2-0.2,0.3-0.2l28.6-16.7l-5-38l-0.9-7.1l0,0l0.1,0.1c1.1,0.6,7.8,3.6,27.3,2.2l1.9-0.2
		C182.9,406.6,189.7,404.9,196.1,402.1z"/>
	<path class="st1" d="M149.2,448.4c2.2-1.7,4.2-3.5,11-0.7c7.9,3.3,19.7,8.4,28,30c0,0-26.2-24.1-39.9-25
		C143.8,452.5,148.3,449.1,149.2,448.4z"/>
	<path class="st1" d="M196.1,402.1v0.2l0,0l-0.8,7.4c-7.3,3.6-15.3,5.6-23.4,6c-13.5,0.5-22-1.2-24.3-3.5l-0.9-7.1l0,0l0.1,0.1
		c1.1,0.6,7.8,3.6,27.3,2.2l1.9-0.2C182.9,406.6,189.7,404.9,196.1,402.1z"/>
</g>
<path id="r-thigh" class="st5" d="M230.6,372.4c0,0-22.7,1.9-27.2-13.6c-4.6-16,10.9-25.6,10.9-25.6s36.5-24.4,72-32.1
	c14.6-3.2,25.2,3.6,28.8,19.1s-7.1,32.5-13.5,35.3C278.3,365.7,230.6,372.4,230.6,372.4z"/>
<g id="r-calf">
	<path class="st6" d="M247.9,409.4c0.7-6.9-50.6-5.7-49.4,3s20.6,9.1,28,9C235.5,421.2,247.5,414.2,247.9,409.4z"/>
	<path class="st1" d="M183.4,486.3l2.5,4.4c0,0,8.3,1.8,23.6,1.4s30.1-1.9,30.1-1.9l0.5-5.1c0,0-9.5-6.3-10.3-6.2L183.4,486.3z"/>
	<path class="st5" d="M234,472.8l-21.9-2.6l-8.6-111.4l35.2,8.2c0,0,4.4,15.6,4.3,30.5C242.8,417.3,234,472.8,234,472.8z"/>
	<path class="st3" d="M247.9,409.4v0.2l0,0l-0.8,7.4l-7.2,68c1,1.9-7,0.6-14.5,1.8c-16.7,2.5-42.1-0.6-42.1-0.6l-2.6-7
		c-1.6-2.2,11.4-5.1,13.8-6.4l9.9-15.3l-5-38l-0.9-7.1l0,0l0.1,0.1c1.1,0.6,7.8,3.6,27.3,2.2l1.9-0.2
		C234.8,414,241.6,412.2,247.9,409.4z"/>
	<path class="st1" d="M201,455.8c2.2-1.7,3.8-1.6,10.9-0.7c14.3,1.8,28,10.4,28,30c0,0-9.4-22.1-37.8-24
		C197.7,460.8,200.1,456.5,201,455.8z"/>
	<path class="st1" d="M247.9,409.4v0.2l0,0l-0.8,7.4c-7.3,3.6-15.3,5.7-23.4,6c-13.5,0.5-22-1.2-24.3-3.5l-0.9-7.1l0,0l0.1,0.1
		c1.1,0.6,7.8,3.6,27.3,2.2l1.9-0.2C234.8,414,241.6,412.3,247.9,409.4z"/>
</g>
<g id="torso">
	<path class="st7" d="M324.3,30.6c-10.1-13.2-45.8-29.1-62.5-29.1s-52.4,15.9-62.5,29.1c-16,20.9,7.7,56.6,7.7,79.6
		c3.1,11.6,29.9,25.6,52.5,25.6s53.2-14.4,57.2-25.6C316.6,85.8,340.3,51.5,324.3,30.6z"/>
	<path class="st8" d="M324.3,30.6c-10.1-13.2-45.8-29.1-62.5-29.1s-52.4,15.9-62.5,29.1c-16,20.9,7.7,56.6,7.7,79.6
		c3.1,11.6,29.9,25.6,52.5,25.6s53.2-14.4,57.2-25.6C316.6,85.8,340.3,51.5,324.3,30.6z"/>
	<path class="st9" d="M214.3,26.2c0,0-13.1,6.2-13.8,18.4s4.6,25,4.6,25l5.5-1.7c0,0-5.3-18.8-3.6-24.8c2-7,6.7-11.5,12-14.6
		L214.3,26.2z"/>
	<polygon class="st9" points="228.7,23.1 223.8,25.9 219,22.8 223.8,20 	"/>
	<path class="st3" d="M262.3,274.9c-33-1.3-59.8,2-59.8,7.5l6.1,0.2c0-4.9,24-7.9,53.7-6.7s53.7,6.1,53.7,11l6.1,0.2
		C322.2,281.7,295.4,276.2,262.3,274.9z"/>
	<path class="st4" d="M158.8,162.2c7.2,19.6,24.8,37,37.5,38.7s20.5-13.7,17.4-34.4s-20.6-38.4-32.8-42.4
		C161,117.5,150.8,140.4,158.8,162.2z"/>
	<path class="st5" d="M315,296.6c-18.4,37-85.5,37-103.8,0c0-36-50.3-87.1-32.3-168.5c21.9-18.7,41.2-31.7,84.2-31.7
		s86.1,29,104.6,47.5C367.7,201.6,315,260.6,315,296.6z"/>
	<path class="st10" d="M178.8,128.1c-10.6,55,14.8,90.7,27.9,122.5s14.3,58,14.3,58"/>
	<path class="st10" d="M353.6,140c-41.1,30-73.7,74-85.1,108.5c-10.9,32.7-7.7,60.2-7.7,60.2"/>
	<path class="st11" d="M203.5,109.3c3.2,12.3,26.6,27.2,55.8,27.2c38.1,0,56.6-15.4,60.9-27.2"/>
	<path class="st3" d="M345.6,122.9c-16.8,5.2-37.5,20.7-80.7,47.2c-19.8,12.1-31.3,10.6-31.3,10.6s-11.8-6.2-25-20.2
		C185.2,135.4,193,115,193,115l-19.9,12c0,0-10.2,17.9,8.9,36.6s40.2,28,51.6,29.5c14.4,4.9,43.3-8.2,66.7-21s50.1-32.2,65.1-33.4
		C360.6,134.2,350.1,126.1,345.6,122.9z"/>
	<path class="st1" d="M231.7,220l-12.4-18.4c-0.7-1.1-0.7-2.4,0-3.5l12.4-18.4c0.6-1.1,2.1-1.5,3.2-0.8c0.3,0.2,0.6,0.5,0.8,0.8
		l12.4,18.5c0.7,1.1,0.7,2.5,0,3.5L235.6,220c-0.7,1.1-2.1,1.4-3.2,0.8C232.1,220.6,231.9,220.3,231.7,220z"/>
	<polygon class="st3" points="225.8,199.8 233.7,188.1 241.5,199.8 233.7,211.5 	"/>
	<path class="st3" d="M322.2,287.2v20.2c0,5.5-26.8,8.9-59.8,7.5s-59.8-6.9-59.8-12.4v-20.2c0,5.5,26.8,11,59.8,12.3
		S322.2,292.7,322.2,287.2z"/>
	<path class="st3" d="M262.3,293.6c-29.6-1.2-53.7-6.1-53.7-11l-6.1-0.2c0,5.5,26.8,11,59.8,12.3s59.8-2,59.8-7.5L316,287
		C316,291.8,292,294.8,262.3,293.6z"/>
	<ellipse class="st1" cx="233.7" cy="302.9" rx="14.7" ry="19.4"/>
	<polygon class="st3" points="233.7,315.7 226.2,302.9 233.7,290.1 241.1,302.9 	"/>
	<path class="st3" d="M377.3,184.5c-9.7,18.5-29.4,33.4-42.2,33.4s-18.5-16.3-12.8-36.4s25.5-35.4,38.1-37.8
		C381,140,388.1,164,377.3,184.5z"/>
	<path class="st4" d="M362.5,197c-8.1,11.7-17.9,21-26.7,19.3s-10.3-14.9-3.3-29.3c7-14.4,20-24.6,28.8-22.8
		C374.9,166.9,368.9,187.8,362.5,197z"/>
</g>
<g id="r-arm">
	<g>
		<g>
			<g>
				<defs>
					<path id="SVGID_1_" d="M368.8,170.9c-0.3-0.9-0.6-1.7-1.1-2.5l0,0l0,0c-1.4-2.2-3.7-3.8-6.3-4.2c-8.9-1.8-21.8,8.4-28.8,22.8
						c-3,6.2-4.5,12.1-4.5,17l0,0l-82.2,17.1l-22.6,22.3c50.8,93.1,144.7,83.6,162.3,45.3C405.5,245.6,368.8,170.9,368.8,170.9z"/>
				</defs>
				<clipPath id="SVGID_2_">
					<use xlink:href="#SVGID_1_"  style="overflow:visible;"/>
				</clipPath>
				<g class="st12">
					<path class="st1" d="M352.8,146.8c4,4.1,7.5,8.6,10.5,13.5c2.7,4.4,5,9.1,6.9,14c3.3,8.7,5.5,17.7,6.7,26.8
						c1.1,8.3,1.6,16.7,1.6,25.1c0,4.1-0.1,8.1-0.3,12.1c-0.1,2-0.2,4-0.4,6l-0.5,6.7c-0.3,3.1-0.9,6.2-1.8,9.3
						c-1,3.5-2.5,6.8-4.4,9.8c-2,3.2-4.6,6.1-7.5,8.6c-2.7,2.3-5.8,4.2-9.1,5.6c-5.4,2.3-11.1,3.5-16.9,3.7
						c-4.7,0.2-9.5-0.1-14.2-0.8c-8.3-1.3-16.4-3.3-24.3-6.1c-3.8-1.3-7.5-2.7-11.2-4.3c-1.8-0.8-3.6-1.5-5.5-2.4l-2.7-1.2l-2.9-1.4
						l10.6-24.8l2.2,0.7l2.4,0.7c1.7,0.5,3.3,0.9,5,1.3c3.3,0.8,6.7,1.6,10,2.2c6.3,1.3,12.7,1.9,19.1,2c2.7,0,5.3-0.3,7.9-0.8
						c1.6-0.2,3.1-0.9,4.4-1.8c0.3-0.3,0.3-0.5,0.1-0.5s-0.4,0-0.5,0s-0.2-0.1-0.3-0.4l-0.2-1.6l-0.1-0.6l-0.1-1.2l-0.2-2.6
						c-0.2-1.7-0.3-3.4-0.5-5.1c-0.4-3.4-0.8-6.7-1.4-10c-1-6.3-2.4-12.6-4.3-18.7c-1.6-5.3-3.8-10.4-6.7-15.2
						c-1.9-3.4-4.7-6.3-7.9-8.5L352.8,146.8z"/>
					<line class="st2" x1="303.4" y1="251.9" x2="295.4" y2="279.1"/>
					<line class="st2" x1="336.8" y1="240.3" x2="377.9" y2="239.4"/>
					<line class="st2" x1="323.1" y1="193.3" x2="367.9" y2="169.7"/>
					<line class="st2" x1="334" y1="222.4" x2="378.1" y2="217.4"/>
					<line class="st2" x1="329.5" y1="206.1" x2="375.5" y2="194.2"/>
					<line class="st2" x1="338" y1="250.9" x2="371.9" y2="268.1"/>
					<line class="st2" x1="335.8" y1="253" x2="341.9" y2="287.2"/>
					<line class="st2" x1="321.2" y1="254.2" x2="316.6" y2="285.6"/>
				</g>
			</g>
		</g>
	</g>
</g>
<g id="r-hand_1_">
	<path class="st3" d="M253.9,241c-3.2-1.1-6.3-8.9-10.2-9.3c-1.8-0.2-5,0.3-5.9,5.3c-0.5,0.1-1.1,0.2-1.5,0.5
		c-0.8,0.4-1.5,1.1-1.9,1.9c-1.1,2.9-0.9,6,0.3,8.8c-0.3,1.4-0.3,2.9-0.1,4.3c1.1,7.3,8.6,13.2,15.3,16.1c9.4,4,23.5,2.5,23.5,2.5
		s21.3-20.1,11.1-25.5s-18.8-2.9-18.8-2.9S258.8,242.6,253.9,241z"/>
	<path class="st3" d="M287,248.3c0,0-5.7-7.9-9.3-11.1s-12.2-14.2-15.8-10.3s-2.8,8.2,0.5,12c3.4,3.8-0.3,11.7,1.6,13.5
		S282.5,267.9,287,248.3z"/>
	<path class="st3" d="M272.8,269.1l10.4-23.9c1.4-3.3,5.3-4.8,8.6-3.4l0,0c3.3,1.4,4.8,5.3,3.4,8.6l-10.4,23.9
		c-1.4,3.3-5.3,4.8-8.6,3.4l0,0C272.8,276.2,271.3,272.4,272.8,269.1z"/>
	<path class="st4" d="M237.8,237c-0.5,0.1-1.1,0.2-1.5,0.5c2,3.3,6.7,10.8,9.1,13.3c3,3,11.2,3.4,11.8,3.4c-0.5-0.1-7.2-1.6-9.7-4.2
		S237.8,237,237.8,237z"/>
	<path class="st4" d="M234.7,248.3c-0.3,1.4-0.3,2.9-0.1,4.3c2.4,2.7,5.5,6,7.6,7.3c3.3,2,7,3.2,10.8,3.7c-0.5-0.1-6-1.2-9.1-4
		S234.7,248.3,234.7,248.3z"/>
</g>
<g id="head">
	<polygon class="st13" points="235.4,80.7 220.3,74.3 221.7,70 237.7,73.3 	"/>
	<ellipse transform="matrix(0.3007 -0.9537 0.9537 0.3007 84.3637 256.9732)" class="st13" cx="217.4" cy="71" rx="5.8" ry="1.4"/>
	<path class="st13" d="M215.9,76.5l4.4-2.2c0.5-0.6,0.9-1.2,1.1-2c0.3-0.7,0.4-1.5,0.2-2.3l-2.4-4.4L215.9,76.5z"/>
	<path class="st14" d="M294.4,112.4c-7.6,6-24.2,12.6-38.9,12.6s-24.1-7.7-30.3-12.9c-5.6-4.7-7.8-13.6-6.1-20.6
		c1.5-6.4,10.5-14,9.8-21.3c-0.2-1.8-0.2-3.7-0.1-5.6c1.2-19.1,17.7-33.7,36.9-32.5c18.3,1.2,32.5,16.3,32.5,34.7c0,1,0,2-0.1,3
		c-0.6,7.4-0.7,16.3,0.9,21.6C301.2,98.7,299.1,108.7,294.4,112.4z"/>
	<g>
		<g>
			<g>
				<defs>
					<path id="SVGID_3_" d="M231.2,74.3c0,0,10.1-4.5,13.5,4.6s-1.6,17-1.6,17s-9.4,1.8-13.7-8.2C226.6,81.1,231.2,74.3,231.2,74.3z
						"/>
				</defs>
				<clipPath id="SVGID_4_">
					<use xlink:href="#SVGID_3_"  style="overflow:visible;"/>
				</clipPath>
				<g class="st15">
					<polygon class="st9" points="243.6,98.6 222.9,92.3 231.3,69.7 252,76 					"/>
					
						<ellipse transform="matrix(0.5308 -0.8475 0.8475 0.5308 42.8213 244.2615)" class="st16" cx="242" cy="83.5" rx="8.9" ry="7.7"/>
					<ellipse transform="matrix(0.5308 -0.8475 0.8475 0.5308 42.8209 244.2615)" cx="242" cy="83.5" rx="4.1" ry="3.5"/>
					<path class="st17" d="M244.6,95.9c0,0,3.4-12.1-0.7-17.5s-11.8-4.5-14.2-1.1c-1.4-5.5,9.8-8.6,9.8-8.6l13.1,10.1L244.6,95.9z"
						/>
				</g>
			</g>
		</g>
	</g>
	<g>
		<g>
			<g>
				<defs>
					<path id="SVGID_5_" d="M278.7,77.5c0,0-9.4-6.5-15.8,1.7c-3.8,4.7-5.2,11-3.7,16.9c0,0,9.5,3.7,17.1-5.2
						C281.4,85,278.7,77.5,278.7,77.5z"/>
				</defs>
				<clipPath id="SVGID_6_">
					<use xlink:href="#SVGID_5_"  style="overflow:visible;"/>
				</clipPath>
				<g class="st18">
					
						<rect x="256.8" y="74" transform="matrix(0.9968 -7.985209e-02 7.985209e-02 0.9968 -5.9968 21.7422)" class="st9" width="24.1" height="23.7"/>
					<circle class="st16" cx="271.7" cy="83.7" r="8.7"/>
					<circle cx="271.7" cy="83.7" r="4"/>
					<path class="st17" d="M257.6,95.8c0,0,0.2-12.4,6.2-16.8s12.8-1.6,16.8,1.8c5.1-4.8-9.1-10.3-9.1-10.3l-17.1,7.1L257.6,95.8z"
						/>
				</g>
			</g>
		</g>
	</g>
	<path class="st3" d="M262.5,104.9c0,1.5,0.2,3,0.4,4.5c0.2,0.8,0.1,1.7-0.1,2.5c-0.3,0.8-0.9,1.5-1.7,2c-1.4,0.8-3,1.3-4.6,1.5
		s-3.1,0.2-4.7,0.1c-1.5-0.1-3.1-0.2-4.6-0.4c-1.6-0.2-3.1-0.5-4.6-1c-1.6-0.4-3.1-1.3-4.2-2.5c-0.6-0.7-1-1.5-1.2-2.4
		c-0.1-0.9,0-1.7,0.3-2.5v-0.1l0,0c0.5-0.7,1-1.5,1.4-2.3s0.8-1.6,1-2.5c0,0.9-0.2,1.8-0.5,2.7c-0.3,0.9-0.7,1.7-1.1,2.6l0.1-0.1
		c-0.4,1.3,0,2.6,1,3.5c1.1,0.9,2.3,1.5,3.7,1.8c1.4,0.4,2.9,0.7,4.4,0.8c1.5,0.2,3,0.4,4.5,0.5s2.9,0.1,4.4,0.1
		c1.4,0,2.8-0.3,4-0.9c0.6-0.3,1-0.7,1.3-1.3c0.3-0.6,0.4-1.3,0.4-2C262.1,107.9,262.2,106.4,262.5,104.9z"/>
	<path class="st3" d="M242.1,101.7c-0.9,0.3-1.6,0.4-2.3,0.7c-0.3,0.1-0.7,0.2-1,0.4c-0.4,0.2-0.7,0.4-1.1,0.6
		c0.1-0.5,0.3-0.9,0.6-1.2c0.3-0.3,0.7-0.6,1.2-0.7c0.4-0.1,0.9-0.2,1.3-0.1C241.3,101.3,241.7,101.5,242.1,101.7z"/>
	<path class="st3" d="M260.3,103.3c0.4-0.1,0.9,0,1.3,0.1s0.8,0.4,1.1,0.6c0.3,0.3,0.6,0.7,0.8,1.1c0.2,0.4,0.2,0.9,0,1.3
		c-0.2-0.3-0.4-0.7-0.7-1c-0.2-0.3-0.5-0.5-0.8-0.8C261.5,104.4,260.9,103.9,260.3,103.3z"/>
	<path class="st3" d="M229,69.5c1.2-1,2.4-1.9,3.8-2.7c0.6-0.4,1.3-0.7,2-1s1.4-0.6,2.1-0.9c1.5-0.4,3-0.6,4.5-0.4
		c0.7,0.1,1.5,0.3,2.2,0.5c0.4,0.1,0.7,0.2,1.1,0.4c0.2,0.1,0.4,0.2,0.6,0.3s-1.7,5.6-1.9,5.5s-0.5-0.3-0.8-0.4
		c-0.5-0.3-1.1-0.5-1.7-0.6c-1.1-0.3-2.3-0.4-3.4-0.2c-0.6,0.1-1.2,0.3-1.8,0.5s-1.2,0.4-1.8,0.7c-1.2,0.5-2.4,1.2-3.5,1.9L229,69.5
		z"/>
	<path class="st3" d="M282.5,74.4c-2,0.6-4,1-6,1.3c-1,0.2-2,0.3-3,0.3c-1,0.1-2.1,0.1-3.1,0.1c-2.2-0.1-4.4-0.5-6.4-1.2
		c-1-0.4-2-0.8-3-1.2c-0.5-0.2-1-0.5-1.5-0.8l-0.7-0.4c-0.2-0.2,3.7-4.9,4-4.7s0.7,0.5,1,0.7c0.7,0.4,1.4,0.8,2.2,1.2
		c1.5,0.7,3.1,1.2,4.8,1.4c0.9,0.1,1.7,0.1,2.6,0.2c0.9,0,1.8,0,2.7,0c1.8-0.1,3.6-0.3,5.4-0.6L282.5,74.4z"/>
	<path class="st19" d="M262.4,29.9c0,0,5.4-7.4,17.7-7.2s17.2,5.9,19.1,9.4s1.1,7.2-2.4,8.6s-8-4.3-14-6.5c-7.6-2.8-8.6-1-12.7-0.3
		C266.8,34.5,260.3,32.3,262.4,29.9z"/>
	<path class="st19" d="M247.3,44.4c0,0-9.9,3.3-15.3,8.1c-4.1,3.7-10,5.3-15.1,1.7s-7.7-19.8,18.6-20.9s28.9,0,28.9,0v9.1
		C258.6,42.3,252.9,43,247.3,44.4z"/>
	<path class="st19" d="M268.1,34.4c-1.7-3.8-6.5-9.6-21.9-9.7s-25.9,6.8-19.8,13.9s11.8-0.2,14.2-0.8s15.1-2.8,20.7,1
		S269.3,37.3,268.1,34.4z"/>
	<path class="st19" d="M263,35.5c0,0-11.8-0.5-16.8,12.4s-2,21.1,3.1,21.6s10.6-4.2,11.6-13.2s5.6-14.4,10.8-15.7
		S270.7,33.6,263,35.5z"/>
	<path class="st19" d="M266.1,32.7c0,0,8.5-6.7,32.6,5.9c22.3,11.6,13.8,24.7,10.4,26.9s-12-0.1-14.3-10.9S266.7,37,266.7,37
		L266.1,32.7z"/>
	<path class="st19" d="M268.5,35.3c0,0,11,0.4,18.2,6.8c6.3,5.4,9.4,13.6,8.3,21.8c-0.9,6.9-12,10.4-17.9,6.9s-5.8-9.9-4.7-15.6
		s-0.7-13.6-6.2-15S262.4,36.6,268.5,35.3z"/>
	<polygon class="st14" points="288.9,85.5 304.4,80.4 303.5,75.9 287.2,77.9 	"/>
	<ellipse transform="matrix(0.9763 -0.2163 0.2163 0.9763 -9.4574 68.3888)" class="st14" cx="307.7" cy="77.4" rx="1.4" ry="5.8"/>
	<path class="st14" d="M308.7,83l-4.2-2.6c-0.9-1.3-1.3-2.8-1-4.4l2.7-4.1L308.7,83z"/>
</g>
</svg>
