<?xml version="1.0" encoding="utf-8"?>
<!-- Generator: Adobe Illustrator 25.2.0, SVG Export Plug-In . SVG Version: 6.00 Build 0)  -->
<svg version="1.1" id="Layer_1" xmlns="http://www.w3.org/2000/svg" xmlns:xlink="http://www.w3.org/1999/xlink" x="0px" y="0px"
	 viewBox="0 0 237 479.9" style="enable-background:new 0 0 237 479.9;" xml:space="preserve">
<style type="text/css">
	.st0{fill:#5FB0AA;}
	.st1{fill:none;stroke:#4A8F91;stroke-width:4.07;stroke-miterlimit:10;}
	.st2{fill:#77185E;}
	.st3{fill:#541146;}
	.st4{fill:#C7DB52;}
	.st5{fill:#59104A;}
	.st6{fill:#DAE78D;}
	.st7{fill:none;stroke:#C7DB52;stroke-width:2;stroke-linecap:round;stroke-miterlimit:10;}
	.st8{opacity:0.2;fill:#9AE0E2;enable-background:new    ;}
	.st9{fill:none;stroke:#9AE0E2;stroke-width:3;stroke-miterlimit:10;}
	.st10{fill:#FFFFFF;}
	.st11{fill:none;stroke:#5FB0AA;stroke-width:8.51;stroke-linecap:round;stroke-miterlimit:10;}
	.st12{clip-path:url(#SVGID_2_);}
	.st13{fill:#E95BA6;}
	.st14{fill:#F7E731;}
	.st15{fill:#B34582;}
	.st16{clip-path:url(#SVGID_4_);}
	.st17{fill:#5F1B75;}
	.st18{fill:#470B35;}
</style>
<g id="b-arm">
	<path class="st0" d="M131,191.7c-5.9-5.5-11.4-11.5-16.4-17.9c-4.7-6-9-12.2-13-18.7C93.9,142.7,87.6,131,80.9,120l-2.5-4.1
		l-2.6-4.2c-1.7-2.8-3.6-5.6-5.3-8.3c-3.6-5.5-7.2-11.1-11-16.5S52,75.9,48.2,70.5c-1.9-2.7-3.9-5.4-5.8-8s-4-5.4-5.9-7.8l19.8-18.4
		c2.7,2.5,5.1,4.8,7.6,7.2c2.5,2.4,4.9,4.8,7.4,7.2c4.9,4.8,9.7,9.7,14.5,14.7c4.8,5,9.5,10,14.2,15c2.3,2.6,4.7,5.1,7,7.7l3.5,3.9
		l3.5,4c9.2,10.7,17.7,21.6,25.9,30.9c3.9,4.5,8,8.7,12.4,12.7c4,3.6,8.3,6.9,12.8,9.9L131,191.7z"/>
	<line class="st1" x1="68.3" y1="48.8" x2="46.8" y2="67.3"/>
	<line class="st1" x1="119.6" y1="103.6" x2="85.9" y2="127.3"/>
	<line class="st1" x1="154.1" y1="141.7" x2="117.3" y2="176.6"/>
	<line class="st1" x1="131.4" y1="117.8" x2="95" y2="143.1"/>
	<line class="st1" x1="142.7" y1="130.8" x2="105.1" y2="159.7"/>
	<line class="st1" x1="107.1" y1="89.2" x2="76.8" y2="112.1"/>
	<line class="st1" x1="94.4" y1="75.4" x2="67.1" y2="97"/>
	<line class="st1" x1="81.5" y1="61.9" x2="57.1" y2="82.1"/>
</g>
<g id="b-hand">
	<path class="st2" d="M2.6,26.8c-1.4-1.6-1.6-3.9-0.5-5.7c0.5-0.8,1-1.5,1.7-2.1c-0.2-0.5-0.4-1-0.4-1.5c-0.1-0.9,0.1-1.8,0.6-2.6
		c1.2-1.6,2.8-2.9,4.7-3.7c0.9-0.5,2-0.7,3-0.8c1-1,2.2-1.8,3.6-2.4c6.8-3,15.8,0.2,21.8,4.2c8.4,5.7,14.8,18.5,14.8,18.5
		s-5.4,28.7-15.5,23.1S23.8,39.5,23.8,39.5s-3.8-5.8-7.9-9.1C13.2,28.4,5,29.9,2.6,26.8z"/>
	<path class="st2" d="M57.6,35.6c0,0-0.9-9.7-2.4-14.3S51.8,2.9,46.6,4.4S40,10.2,41,15.1s-6.1,10-5.4,12.5S43.8,50.2,57.6,35.6z"/>
	<path class="st2" d="M61.9,42.8l-21,15.4c-2.9,2.1-7,1.5-9.1-1.4h0c-2.1-2.9-1.5-7,1.4-9.1l21-15.4c2.9-2.1,7-1.5,9.1,1.4l0,0
		C65.4,36.6,64.8,40.7,61.9,42.8z"/>
	<path class="st3" d="M10.5,15.6c-0.6-1.3-1.2-3-1.7-4.3c0.9-0.5,2-0.7,3-0.8c0.1,2.1,0.4,5.6,4.3,5.9c3,0.3,6,0.8,8.9,1.6
		c0.2,0.1,5.3,5,5.3,5s-6.2-3.9-8.4-4.4C14.5,16.9,11.4,17.5,10.5,15.6z"/>
	<path class="st3" d="M3.8,19c0.3,1.1,0.9,2.1,1.8,2.8c1.4,1.2,5.5,1,8,1.4c2,0.3,4.1,0,6.2,1.5s4,3.3,4.2,3.5
		c-2.3-1.2-4.7-2.1-7.3-2.8c-3.6-0.8-11.2-0.9-13-2.6c-0.6-0.6-1.2-1.2-1.7-1.9C2.6,20.4,3.2,19.7,3.8,19z"/>
</g>
<path id="b-thigh" class="st4" d="M55.1,353.1c0,0-12.9-2.8-14.4-15.2C39.2,325.2,51.2,319,51.2,319s50.4-18.1,86.7-19.6
	c14.9-0.6,32.6,5.4,34.4,21.2s-17.1,25.7-23.9,27.4C123.7,354.2,55.1,353.1,55.1,353.1z"/>
<g id="b-calf">
	<path class="st5" d="M85.8,388.3c0.7-6.9-50.6-5.7-49.4,3s20.6,9.1,28,9C73.3,400,85.2,393.1,85.8,388.3z"/>
	<path class="st0" d="M3.9,464l3.1,5.5c0,0,24.8,0.3,40.1,0s33.3-0.5,33.3-0.5l-2.6-5.1c0,0-9.5-6.3-10.3-6.2S3.9,464,3.9,464z"/>
	<path class="st4" d="M71.8,451.7L49.9,449l-9.1-111.1l35.7,7.9c0,0,4.4,15.6,4.3,30.5C80.7,396.1,71.8,451.7,71.8,451.7z"/>
	<path class="st2" d="M85.8,388.3v0.2l0,0L85,396l-7.2,68c1,1.9-7.3,2.1-27.8,0.7c-19-1.2-46.1-0.7-46.1-0.7l-3.1-4.2
		c-1.5-2-1-4.9,1-6.3c0.1-0.1,0.2-0.2,0.3-0.2l40.1-16.7l-5-38l-0.9-7.1l0,0c0,0,0.1,0.1,0.1,0.1c1.1,0.6,7.8,3.6,27.3,2.2l1.9-0.2
		C72.6,392.8,79.4,391.1,85.8,388.3z"/>
	<path class="st0" d="M38.8,434.7c2.2-1.7,4.2-3.5,10.9-0.7c7.9,3.3,19.7,8.4,28,30c0,0-26.2-24.1-39.9-25
		C33.4,438.7,38,435.3,38.8,434.7z"/>
	<path class="st0" d="M85.8,388.3v0.2l0,0L85,396c-7.3,3.6-15.3,5.6-23.4,6c-13.5,0.5-22-1.2-24.3-3.5l-0.9-7.1l0,0
		c0,0,0.1,0.1,0.1,0.1c1.1,0.6,7.8,3.6,27.3,2.2l1.9-0.2C72.6,392.8,79.4,391.1,85.8,388.3z"/>
</g>
<path id="f-thigh" class="st6" d="M80.2,365c0,0-13.2-0.9-16.5-13c-3.4-12.4,7.7-20.2,7.7-20.2s47.2-25.2,82.9-32
	c14.6-2.8,33,0.6,37.1,16s-13.2,28-19.7,30.7C148.2,356.1,80.2,365,80.2,365z"/>
<g id="f-calf">
	<path class="st5" d="M107.4,398.5c0.7-6.9-50.6-5.7-49.4,3s20.6,9.1,28,9C95,410.2,106.9,403.3,107.4,398.5z"/>
	<path class="st0" d="M25.6,474.2l3.1,5.5c0,0,24.8,0.3,40,0s33.3-0.4,33.3-0.4l-2.5-5.1c0,0-9.5-6.3-10.3-6.2
		S25.6,474.2,25.6,474.2z"/>
	<path class="st6" d="M93.5,461.9l-21.9-2.6l-7.9-108.8l34.5,5.5c0,0,4.4,15.6,4.3,30.5C102.3,406.4,93.5,461.9,93.5,461.9z"/>
	<path class="st2" d="M107.4,398.5v0.2l0,0l-0.8,7.4l-7.2,68c1,1.9-7.3,2.1-27.8,0.7c-18.9-1.2-46.1-0.7-46.1-0.7l-3.1-4.2
		c-1.5-2-1-4.9,1-6.3c0.1-0.1,0.2-0.2,0.3-0.2L64,446.6l-5-38l-0.9-7.1l0,0c0,0,0.1,0.1,0.1,0.1c1.1,0.6,7.8,3.6,27.3,2.2l1.9-0.2
		C94.3,403,101.1,401.3,107.4,398.5z"/>
	<path class="st0" d="M60.5,444.9c2.2-1.7,4.2-3.5,10.9-0.7c7.9,3.3,19.7,8.4,28,30c0,0-26.2-24.1-39.9-25
		C55.1,448.9,59.6,445.5,60.5,444.9z"/>
	<path class="st0" d="M107.4,398.5v0.2l0,0l-0.8,7.4c-7.3,3.6-15.3,5.6-23.4,6c-13.5,0.5-22-1.2-24.3-3.5l-0.9-7.1l0,0
		c0,0,0.1,0.1,0.1,0.1c1.1,0.6,7.8,3.6,27.3,2.2l1.9-0.2C94.3,403,101.1,401.3,107.4,398.5z"/>
</g>
<path id="hips" class="st6" d="M138.6,355c-9-1.1-19.3-5.3-25-12.1c-10.1-12.2-18.7-45.5-18.7-45.5h96.6c0,0,6.3,8.2-1.5,37.5
	C184.9,353.6,152.3,356.6,138.6,355z"/>
<g id="torso">
	<path class="st2" d="M142.5,272.4c-31.4,0-56.8,4.4-56.8,9.9h5.8c0-4.9,22.8-8.8,51-8.8s51,4,51,8.8h5.8
		C199.4,276.9,173.9,272.4,142.5,272.4z"/>
	<path class="st6" d="M191.5,296.6c-17.3,37-80.6,37-97.9,0c0-36-33.2-62.2-23.4-118.1c0.6-3.2,1.4-6.3,2.4-9.3l0,0
		c2.8-7.9,6.5-15.4,11.3-22.3l0,0c11.9-17.7,29.9-38.9,54.1-49c41.4-17.2,76.8,20.2,80.9,46.1C229.3,210.4,191.5,260.6,191.5,296.6z
		"/>
	<path class="st7" d="M183.7,135.7c-31.2,0.8-74.9,54.5-75.2,108.2c-0.2,34.4-1.7,64.8-1.7,64.8"/>
	<path class="st2" d="M199.4,282.3v20.2c0,5.5-25.4,9.9-56.8,9.9s-56.8-4.4-56.8-9.9v-20.2c0,5.5,25.4,9.9,56.8,9.9
		S199.4,287.8,199.4,282.3z"/>
	<path class="st2" d="M75.3,180.8v12.4c0,0-4.8-11.3-2.7-24l0,0c2.8-7.9,6.5-15.4,11.3-22.3C83.3,148.1,71.5,170.9,75.3,180.8z"/>
	<path class="st2" d="M142.5,291.2c-28.2,0-51-4-51-8.8h-5.8c0,5.5,25.4,9.9,56.8,9.9s56.8-4.4,56.8-9.9h-5.8
		C193.5,287.2,170.8,291.2,142.5,291.2z"/>
	<path class="st8" d="M212.8,30.6c-10.1-13.2-45.8-29.1-62.5-29.1S97.8,17.3,87.7,30.6c-16,20.9,7.7,74.6,7.7,97.6
		c3,11.6,27.4,14.4,49.9,12.3s51.4-17.5,55.5-28.7C200.8,87.4,228.8,51.5,212.8,30.6z"/>
	<path class="st9" d="M212.8,30.6c-10.1-13.2-45.8-29.1-62.5-29.1S97.8,17.3,87.7,30.6c-16,20.9,7.7,74.6,7.7,97.6
		c3,11.6,27.4,14.4,49.9,12.3s51.4-17.5,55.5-28.7C200.8,87.4,228.8,51.5,212.8,30.6z"/>
	<path class="st10" d="M102.8,26.1c0,0-13.1,6.2-13.8,18.4s4.6,25,4.6,25l5.5-1.7c0,0-5.3-18.8-3.6-24.7c2-7,6.7-11.5,12-14.6
		L102.8,26.1z"/>
	<polygon class="st10" points="117.1,23.1 112.3,25.9 107.4,22.8 112.3,20 	"/>
	<path class="st11" d="M96.3,128.1c3.2,12.3,23.2,15.9,51.4,8.4c36-9.6,48.7-12.9,53-24.8"/>
	<path class="st2" d="M75.3,193.1c23.9-21,35.2-25.1,57.8-39.3c9.6-6.1,27.1-11.8,38.9-14.2c29.2-5.9,48.7,13.6,48.7,13.6
		s-2.6-14.8-7.4-25.7c-3.6-4.6-22.2-9-48.1-2.7c-12.8,3.1-33.8,11.4-46.1,19.9c-28.6,19.8-43.8,36-43.8,36L75.3,193.1z"/>
	<path class="st0" d="M74.4,221.6l-5.6-18.4c-0.3-1.2-0.3-2.4,0-3.5l5.7-18.4c0.5-1.5,1.4-1.5,1.8,0l5.7,18.4c0.3,1.2,0.3,2.4,0,3.5
		l-5.7,18.4C75.8,223.1,74.9,223.1,74.4,221.6z"/>
	<polygon class="st2" points="71.7,201.4 75.3,189.7 78.9,201.4 75.3,213.1 	"/>
	<ellipse transform="matrix(0.9884 -0.152 0.152 0.9884 -44.2863 17.4965)" class="st0" cx="92.3" cy="298.5" rx="7.8" ry="19.4"/>
	<polygon class="st2" points="94.3,311.1 88.4,299.1 90.4,285.8 96.3,297.9 	"/>
	<path class="st2" d="M202.9,178.5c0,20.2-13.4,33-30.7,39.9c-16.6-5.8-30.7-19.7-30.7-39.9s13.7-33.3,30.7-33.3
		S202.9,158.2,202.9,178.5z"/>
	<path class="st3" d="M196.6,187.7c0,15-10.6,24.4-24.3,29.6c-13.1-4.3-24.3-14.6-24.3-29.6s10.9-24.6,24.3-24.6
		S196.6,172.8,196.6,187.7z"/>
</g>
<g id="f-arm">
	<g>
		<defs>
			<path id="SVGID_1_" d="M211.3,185.9c0-15-25.7-22.8-39.1-22.8s-24.3,9.6-24.3,24.6l4.4,19.8L51.8,240.7l20.3,51.8
				c0,0,137.9,19.6,161.7-13.2C247.8,259.8,211.3,185.9,211.3,185.9z"/>
		</defs>
		<clipPath id="SVGID_2_">
			<use xlink:href="#SVGID_1_"  style="overflow:visible;"/>
		</clipPath>
		<g class="st12">
			<path class="st0" d="M170.5,140.8c6.4,6.1,12.3,12.7,17.6,19.7c5.2,6.8,9.9,14,14,21.5c8.5,15.1,14.5,31.5,17.6,48.5l0.5,3.3
				l0.4,3.3l0.2,1.5c0.1,0.7,0.1,1.5,0.2,2.3c0.1,1.7,0,3.3-0.3,4.9c-0.5,3.3-1.6,6.5-3.2,9.4c-0.7,1.3-1.5,2.5-2.5,3.7
				c-0.8,1-1.7,2-2.6,2.9c-1.5,1.5-3.2,2.8-5,4c-2.7,1.7-5.6,3.1-8.6,4.2c-4.6,1.6-9.3,2.7-14.1,3.4c-4.3,0.7-8.5,1-12.6,1.3
				c-8.1,0.5-16,0.4-23.7,0.1c-3.9-0.1-7.7-0.3-11.6-0.6l-5.8-0.5l-2.9-0.3l-3-0.3c-7.4-0.7-12.9-7.3-12.2-14.8
				c0.6-6.6,6-11.8,12.6-12.2h0.5l5.2-0.3l5.3-0.4c3.5-0.3,7.1-0.7,10.6-1.1c7-0.9,13.9-1.9,20.5-3.4c3.2-0.7,6.4-1.5,9.3-2.5
				c2.5-0.7,4.9-1.7,7.1-3c0.8-0.5,1.3-1,1.2-1.1s-0.3,0-0.8,0.4c-0.3,0.2-0.5,0.5-0.8,0.8c-0.4,0.4-0.7,0.9-1,1.3
				c-0.8,1.3-1.3,2.7-1.5,4.2c-0.1,0.7-0.2,1.4-0.2,2.2c0,0.3,0,0.6,0,0.9v0.4l-0.1-0.3l-0.6-2.1l-0.7-2.1
				c-4.2-11.7-10.2-22.6-17.9-32.3c-3.8-4.9-7.9-9.6-12.4-14c-4.3-4.2-9-8-13.9-11.4c-12.5-8.5-15.7-25.4-7.3-37.9
				c8.5-12.5,25.4-15.7,37.9-7.3c1.2,0.8,2.3,1.7,3.3,2.6L170.5,140.8z"/>
			<line class="st1" x1="144.1" y1="245.5" x2="144.9" y2="273.9"/>
			<line class="st1" x1="177.7" y1="232.2" x2="216.7" y2="219.1"/>
			<line class="st1" x1="147.7" y1="191.5" x2="185.2" y2="157.4"/>
			<line class="st1" x1="169.7" y1="217.4" x2="209.1" y2="197.1"/>
			<line class="st1" x1="159.5" y1="203.7" x2="198.4" y2="176.5"/>
			<line class="st1" x1="180.2" y1="238.3" x2="219" y2="251.1"/>
			<line class="st1" x1="179.9" y1="238.4" x2="188.7" y2="272.1"/>
			<line class="st1" x1="163" y1="242.8" x2="166.1" y2="274.2"/>
		</g>
	</g>
</g>
<g id="head">
	<path class="st13" d="M187.8,108.6c-7.1,8.1-50.1,19.9-65.8,15.1c-13.4-4.1-19.1-14-16.4-24.1c3.6,1.7,8.4,4.6,13-1.4
		c-2.2,1.3-7.9,4.2-12.6-0.3c2.7-6,7.7-14.3,11-25.3c0.5-1.7,0.6-6,0.7-7.8c1.2-19.1,17.7-33.7,36.9-32.5
		c18.3,1.2,32.5,16.3,32.5,34.7c0,1,0,2-0.1,3c-0.6,7.4-4.1,15.5-3.1,21C184.9,98.3,187.9,98.5,187.8,108.6z"/>
	<path class="st14" d="M153.8,29.9c0,0,5.4-7.4,17.7-7.2s17.2,5.9,19.1,9.4s1.1,7.2-2.4,8.6s-8-4.3-14-6.5c-7.6-2.8-8.6-1-12.7-0.3
		C158.3,34.5,151.8,32.3,153.8,29.9z"/>
	<path class="st14" d="M138.8,44.4c0,0-10,3.3-15.3,8.1c-4.1,3.7-10,5.3-15.1,1.7s-7.6-19.8,18.6-20.9s28.9,0,28.9,0v9.1
		C150.1,42.3,144.4,43,138.8,44.4z"/>
	<path class="st14" d="M159.5,34.4c-1.7-3.8-6.5-9.6-21.9-9.7s-25.9,6.8-19.8,13.9s11.8-0.2,14.2-0.8s15.1-2.8,20.7,1
		S160.8,37.3,159.5,34.4z"/>
	<path class="st14" d="M154.5,35.4c0,0-11.8-0.5-16.8,12.4s-2,21.1,3.2,21.6s10.6-4.2,11.6-13.2s5.6-14.4,10.8-15.7
		S162.1,33.6,154.5,35.4z"/>
	<path class="st14" d="M157.6,32.6c0,0,8.5-6.7,32.6,5.9c22.3,11.7,13.8,24.7,10.4,26.9s-12-0.1-14.3-10.9S158.1,37,158.1,37
		L157.6,32.6z"/>
	<path class="st14" d="M160,35.3c0,0,11,0.4,18.2,6.8c6.3,5.4,9.4,13.6,8.3,21.8c-0.9,6.9-11.9,10.4-17.9,6.9s-5.8-9.9-4.7-15.6
		s-0.7-13.6-6.2-15S153.8,36.6,160,35.3z"/>
	<path class="st15" d="M151.9,82l6.7-4.1l-1.4-4.3l-7.7,1c0,0-2.4,1.1-1.5,4.3C149.1,82.3,151.9,82,151.9,82z"/>
	<path class="st15" d="M158.7,75.5c1,4.7,3.9,4.9,4.7,4.6s2.8-2,1.1-6.5s-3.8-4.7-4.6-4.5S157.8,70.8,158.7,75.5z"/>
	<path class="st15" d="M163.1,80.2l-4.4-2.2c-1-1.2-1.5-2.7-1.4-4.3l2.4-4.4L163.1,80.2z"/>
	<path class="st10" d="M132,74.1c0,0-2.9-2-5.4-1.1c-3.9,1.4-8.2,6.5-7.1,19.6c0,0,3,2.8,7.5,0.3C131.9,90.3,134.1,77.7,132,74.1z"
		/>
	<g>
		<defs>
			<path id="SVGID_3_" d="M132,74.1c0,0-2.9-2-5.4-1.1c-3.9,1.4-8.2,6.5-7.1,19.6c0,0,3,2.8,7.5,0.3C131.9,90.3,134.1,77.7,132,74.1
				z"/>
		</defs>
		<clipPath id="SVGID_4_">
			<use xlink:href="#SVGID_3_"  style="overflow:visible;"/>
		</clipPath>
		<g class="st16">
			
				<ellipse transform="matrix(4.152684e-02 -0.9991 0.9991 4.152684e-02 34.4368 202.7035)" class="st17" cx="122.9" cy="83.4" rx="8.7" ry="4.3"/>
			<ellipse transform="matrix(4.152684e-02 -0.9991 0.9991 4.152684e-02 34.4368 202.7035)" cx="122.9" cy="83.4" rx="4" ry="2"/>
			<path class="st18" d="M119.5,92.6c0,0-0.8-15.3,5.8-17.1c5.7-1.6,9.5,5.1,9.5,5.1l-0.5-9.1c0,0-8.5-3.1-13.7,4.9
				S119.5,92.6,119.5,92.6z"/>
		</g>
	</g>
	<path class="st2" d="M117.2,97.8c0.4,0,0.9,0.2,1.2,0.4c0.4,0.2,0.7,0.5,1,0.9c0.3,0.4,0.5,0.8,0.5,1.2c0.1,0.5,0,0.9-0.3,1.3
		c-0.1-0.4-0.3-0.7-0.5-1.1c-0.2-0.3-0.4-0.6-0.6-0.9C118.2,99.1,117.8,98.5,117.2,97.8z"/>
	<path class="st2" d="M133.2,68.7c-0.7-1-1.5-1.8-2.4-2.7c-0.4-0.4-0.8-0.7-1.2-1.1c-0.4-0.3-0.9-0.6-1.3-0.9
		c-0.9-0.4-1.9-0.6-2.8-0.4c-0.5,0.1-1,0.3-1.4,0.5c-0.2,0.1-0.5,0.3-0.7,0.4l-0.3,0.2c0.2,1.9,0.6,3.7,1.2,5.5
		c0.2-0.2,0.3-0.3,0.5-0.4c0.3-0.2,0.7-0.5,1.1-0.6c0.7-0.3,1.4-0.4,2.1-0.2c0.4,0.1,0.8,0.3,1.1,0.5c0.4,0.2,0.8,0.4,1.1,0.7
		c0.8,0.5,1.5,1.2,2.2,1.9L133.2,68.7z"/>
</g>
<g id="f-hand">
	<path class="st2" d="M93,248c-3.4-0.1-8.6-6.7-12.4-6c-1.8,0.3-4.7,1.8-4.2,6.7c-0.5,0.2-0.9,0.5-1.3,0.9c-0.6,0.6-1.1,1.5-1.2,2.4
		c-0.2,3.1,0.8,6.1,2.8,8.4c0.1,1.4,0.5,2.8,1.1,4.1c3.1,6.7,12,10.2,19.3,11c10.1,1.2,23.3-4.3,23.3-4.3s14.7-25.3,3.4-27.6
		s-18.9,2.5-18.9,2.5S98.3,248.2,93,248z"/>
	<path class="st2" d="M126.8,245.5c0,0-7.7-5.9-12.1-8s-15.7-10.2-18.1-5.4s-0.4,8.7,3.9,11.4s3.1,11.3,5.4,12.5
		S128.1,265.6,126.8,245.5z"/>
	<path class="st2" d="M119.2,269.6l3.2-25.9c0.4-3.6,3.7-6.1,7.3-5.7h0c3.6,0.4,6.1,3.7,5.7,7.3l-3.2,25.9c-0.4,3.6-3.7,6.1-7.3,5.7
		h0C121.3,276.4,118.7,273.1,119.2,269.6z"/>
	<path class="st3" d="M76.5,248.7c-0.5,0.2-0.9,0.5-1.3,0.9c2.9,2.6,9.5,8.5,12.5,10.1c3.8,2.1,11.7,0.1,12.3-0.1
		c-0.6,0-7.4,0.5-10.5-1.3S76.5,248.7,76.5,248.7z"/>
	<path class="st3" d="M76.8,260.4c0.1,1.4,0.5,2.8,1.1,4.1c3,1.9,7,4.2,9.4,4.9c3.7,0.9,7.6,1.1,11.4,0.5c-0.5,0-6,0.5-9.9-1.2
		S76.8,260.4,76.8,260.4z"/>
</g>
</svg>
