<?xml version="1.0" encoding="utf-8"?>
<!-- Generator: Adobe Illustrator 25.2.0, SVG Export Plug-In . SVG Version: 6.00 Build 0)  -->
<svg version="1.1" id="Layer_1" xmlns="http://www.w3.org/2000/svg" xmlns:xlink="http://www.w3.org/1999/xlink" x="0px" y="0px"
	 viewBox="0 0 324.1 445.6" style="enable-background:new 0 0 324.1 445.6;" xml:space="preserve">
<style type="text/css">
	.st0{fill:#FD7922;}
	.st1{fill:#E46D1F;}
	.st2{fill:#DDEE64;}
	.st3{fill:#02799E;}
	.st4{clip-path:url(#SVGID_2_);}
	.st5{fill:none;stroke:#026684;stroke-width:5.1;stroke-miterlimit:10;}
	.st6{fill:#9FAC48;}
	.st7{fill:#FFFFFF;}
	.st8{fill:#754C24;}
	.st9{fill:none;stroke:#FD7922;stroke-width:3.06;stroke-miterlimit:10;}
	.st10{fill:none;stroke:#FD7922;stroke-width:2.8;stroke-miterlimit:10;}
	.st11{fill:none;stroke:#FD7922;stroke-width:2.04;stroke-miterlimit:10;}
</style>
<g id="b-legs">
	<path class="st0" d="M131.6,391.6c0.6,10.7,1.1,21.9-4.9,31.5c-2.2,3.5-5.3,7.3-3.7,11c1.7,3.9,7.7,5.3,12.9,5.2
		c5.3-0.1,11.4-1.8,13.2-5.9c1.4-3,0.1-6.2-0.8-9.3c-3.1-9.8-2.5-20.4,1.5-29.9L131.6,391.6z"/>
	<path class="st0" d="M205.8,393.6c-0.6,10.7-1.1,21.9,4.9,31.5c2.2,3.5,5.3,7.3,3.6,11c-1.7,3.9-7.7,5.3-12.9,5.2
		s-11.4-1.8-13.2-5.9c-1.4-3-0.1-6.2,0.9-9.3c3.1-9.8,2.5-20.4-1.6-29.9L205.8,393.6z"/>
</g>
<path id="leg-4" class="st0" d="M276.5,329.4c14.2,2.1,27.1,12.6,33.4,27c6.3,14.8,5.9,31.6-1.1,46c-2,3.9-4.5,7.7-5.5,12.2
	s0.3,10,4.1,11.8c4.1,2,9.3-1.3,13.3,1c4.5,2.5,4.2,10.4,0.6,14.2s-9.1,4.4-14,3.9c-6.9-0.6-14.5-3-18-9.5
	c-2.8-5.2-2.5-11.9-1.3-17.8c1.4-5.9,3.6-11.7,4.6-17.7c1.8-10.7-0.7-21.7-7-30.5c-6.2-8.3-15.7-13.5-25.4-13.5L276.5,329.4z"/>
<path id="leg-1" class="st1" d="M70.7,319.4c-14.2,2.1-27.1,12.6-33.4,27c-6.3,14.8-5.9,31.6,1.1,46.1c2,3.9,4.5,7.7,5.5,12.2
	s-0.3,10-4.1,11.8c-4.1,2-9.3-1.3-13.3,1c-4.5,2.5-4.2,10.4-0.6,14.2s9.1,4.4,14,3.9c6.9-0.6,14.5-3,18-9.5
	c2.8-5.2,2.5-11.9,1.3-17.8c-1.4-5.9-3.7-11.6-4.6-17.7c-1.8-10.7,0.7-21.6,7-30.5c6.2-8.3,15.7-13.5,25.4-13.5L70.7,319.4z"/>
<g id="body">
	<path class="st2" d="M104.7,334.9c6.3,14.8,2.1,30.8-9.6,35.8s-26.3-2.9-32.6-17.6s-8.1-44.8,3.6-49.7
		C77.7,298.3,98.4,320.1,104.7,334.9z"/>
	<path class="st2" d="M237.6,339.1c-3.5,15.7,3.6,30.6,16,33.4s25.3-7.7,28.8-23.3s-0.3-45.5-12.6-48.2
		C257.3,298.1,241.1,323.4,237.6,339.1z"/>
	<path class="st3" d="M210.2,173.9c1.3,33.7,26.1,62.2,47.5,89.7c5.3,6.8,9.6,14.4,12.6,22.5c8.7,22.5,7.4,47.3-0.7,71.2
		c-6.3,18.5-22.5,33.5-41.4,42.3c-18.2,8.4-39,11.6-59.5,11.6s-41.3-3.2-59.5-11.6c-19-8.9-35.1-23.7-41.4-42.3
		c-7.6-22-9.1-44.8-2.5-65.9c3.2-10.1,8.1-19.5,14.6-27.8c21.3-27.7,46.2-56,47.5-89.7H210.2z"/>
	<path class="st2" d="M116.2,350.6c0,16-10.2,29.1-22.9,29.1s-22.9-13.1-22.9-29.1s10.2-44.2,22.9-44.2S116.2,334.5,116.2,350.6z"/>
	<path class="st2" d="M233.2,356.3c0,17.5-11.2,31.8-25.1,31.8s-25.1-14.3-25.1-31.8s11.2-48.5,25.1-48.5S233.2,338.6,233.2,356.3z"
		/>
	<g>
		<defs>
			<path id="SVGID_1_" d="M210.2,173.9c1.3,33.7,26.1,62.2,47.5,89.7c5.3,6.8,9.6,14.4,12.6,22.5c8.7,22.5,7.4,47.3-0.7,71.2
				c-6.3,18.5-22.5,33.5-41.4,42.3c-18.2,8.4-39,11.6-59.5,11.6s-41.3-3.2-59.5-11.6c-19-8.9-35.1-23.7-41.4-42.3
				c-7.6-22-9.1-44.8-2.5-65.9c3.2-10.1,8.1-19.5,14.6-27.8c21.3-27.7,46.2-56,47.5-89.7H210.2z"/>
		</defs>
		<clipPath id="SVGID_2_">
			<use xlink:href="#SVGID_1_"  style="overflow:visible;"/>
		</clipPath>
		<g class="st4">
			<path class="st5" d="M62.1,266.8L62.1,266.8c69.4,22,143.9,22,213.3,0l0,0"/>
			<path class="st5" d="M101,277.5c23.2-21.5,35.3-54.2,42.7-87.6"/>
			<path class="st5" d="M199.8,280.3c-19.7-24.7-26.7-59-28.9-93.1"/>
		</g>
	</g>
</g>
<g id="head">
	<path class="st2" d="M170.4,194c-9.8,0-19.8-0.3-29.5-0.8c-7.2-0.4-16.7-2.5-20.9-10.7c-2.7-5.3-2-11.6,1.8-16.1
		c3-3.6,9.1-7.9,21.3-7.9h2.5c8.1,0.4,16.4,0.7,24.6,0.7c8.3,0,16.6-0.3,24.6-0.7h2.5c6.7,0,15.9,1.4,21.3,7.9
		c3.8,4.5,4.6,10.9,1.8,16.1c-2.2,4.5-7.7,10-20.9,10.7C190.2,193.7,180.3,194,170.4,194z"/>
	<path class="st6" d="M208.1,164.8c0,1.3-2.9,2.5-7.3,2.7c-20.2,1.3-40.6,1.3-60.8,0c-5.1-0.3-8.1-1.8-7.2-3.4
		c1-1.3,4.5-2.1,8.4-2.1h1.5c18.3,1.1,36.6,1.1,54.9,0c4.5-0.3,9,0.6,10.1,2.1C208,164.2,208.1,164.5,208.1,164.8z"/>
	<path class="st0" d="M264.6,46.5c-11-0.2-21.3,5.3-27.4,14.5c-6.6,1.4-13-2.4-13-2.5c-16-9.1-34.1-14.2-52.5-14.6
		c-17.7-0.3-35.1,3.9-50.7,12.1c0,0.1-5.3,3.7-9.8-0.3c-3.5-7.4-9.3-12-15.8-11.6C85.3,44.8,77.6,57.5,78,72.6s8.8,27,18.8,26.7
		c6.6-0.2,12.3-5.7,15.4-13.7c4.1-2,7.9,1.6,7.9,1.6c18.5,9.9,21.6,42.9,21.5,65.3c0,7.3-0.4,14.5-1.2,21.7l27.6,2.2l28.3,2.3
		c0,0-4.9-74.2,27-87.5l0,0c3.1-1.4,6.5-2,9.9-1.9c4,13.1,15.8,22.2,29.4,22.9c17.9,0.8,33.1-13.5,33.7-31.9S282.5,46.8,264.6,46.5z
		"/>
	<path class="st7" d="M92.9,56c5.7-0.3,10.6,6.4,10.8,15.1s-4.3,15.9-10,16.1s-10.5-6.5-10.7-15S87.2,56.4,92.9,56z"/>
	<path class="st8" d="M95.8,57.6c3.7-0.2,6.9,4.2,7,9.8s-2.8,10.3-6.5,10.5s-6.8-4.2-7-9.8S92.1,57.8,95.8,57.6z"/>
	<path class="st7" d="M260.7,60.8c10.3,0.1,18.5,8.4,18.5,18.7S270.7,98,260.5,98c-10.3-0.1-18.5-8.4-18.5-18.7c0-0.2,0-0.3,0-0.5
		C242.2,68.7,250.5,60.6,260.7,60.8z"/>
	<path class="st8" d="M255.5,62.7c6.6,0.1,12,5.5,11.9,12.1s-5.5,12-12.1,11.9c-6.6-0.1-12-5.5-11.9-12.1c0-0.1,0-0.2,0-0.2
		C243.5,67.9,248.9,62.6,255.5,62.7C255.5,62.7,255.5,62.7,255.5,62.7z"/>
	<path class="st7" d="M163.3,57c14.8,0.3,26.5,13.4,26,29.1s-13,27.9-27.7,27.2c-14.6-0.7-25.8-13.7-25.4-29.1S148.7,56.7,163.3,57z
		"/>
	<path class="st8" d="M163.3,57.2c8.3,0.2,14.9,7.5,14.6,16.3s-7.2,15.7-15.5,15.4s-14.6-7.6-14.4-16.3S155,57,163.3,57.2z"/>
	<path class="st8" d="M147.4,136.5c4.2-2.7,9.1-3.9,14-3.6c5.1,0.3,10,2.2,14,5.4c-4.4-2.1-9.1-3.4-14-3.8
		C156.6,134.4,151.9,135,147.4,136.5z"/>
	<line class="st9" x1="165.6" y1="44.5" x2="165.6" y2="4.8"/>
	<circle class="st0" cx="165.6" cy="4.8" r="4.8"/>
	<ellipse class="st10" cx="165.6" cy="30.9" rx="17.6" ry="2.5"/>
	<ellipse class="st11" cx="165.6" cy="18.8" rx="11.5" ry="1.7"/>
	<path class="st2" d="M218.9,166.3h-12.2c-1.8,0.7-3.8,1.2-5.8,1.3c-20.2,1.3-40.6,1.3-60.8,0c-2,0-3.9-0.4-5.8-1.3h-12.2
		c-3.9,4.5-4.6,10.9-1.8,16.1c4.2,8.1,13.6,10.2,20.9,10.7c9.7,0.6,19.6,0.8,29.5,0.8s19.8-0.3,29.5-0.8
		c13.1-0.7,18.5-6.2,20.9-10.7C223.4,177.1,222.6,170.8,218.9,166.3z"/>
</g>
<path id="leg-2" class="st0" d="M103.8,353.9c-3.6,9.8-15.7,15.9-26.7,13.7c-12.7-2.5-24.3-8.8-33.2-18.2
	c-13.2-14.6-18.1-35-12.8-54c1.5-5.3,3.8-10.6,3.8-16.1s-3.5-11.4-9.2-12.2c-6.3-0.8-12.4,4.8-18.6,3.7c-6.9-1.2-8.9-10.5-5.2-16.2
	s11.1-8.4,18-9.8c9.6-2,20.7-1.8,27.8,4.5c5.6,5.1,7.2,12.9,7.3,20.3s-1.4,14.9-1,22.2c1,13.3,8.1,25.4,19.2,32.8
	c4.9,3.2,10.3,5.5,16,6.8c0.3,0.1,0.5,0.2,0.8,0.2C101.4,333.9,107.6,344,103.8,353.9L103.8,353.9z"/>
<path id="leg-3_1_" class="st0" d="M191.9,356c1.9,11.1,13.5,19.9,25.6,19.7c13.9-0.2,27.4-4.6,38.6-12.8
	c16.8-12.9,25.9-33.5,24-54.6c-0.5-5.9-2-12-0.9-17.8s5.9-11.4,12.1-11.1c6.8,0.4,12.2,7.4,19,7.5c7.5,0,11.5-9.4,8.6-16.1
	s-10.2-11-17.2-13.8c-9.8-4-21.6-5.9-30.3-0.6c-6.9,4.3-10.1,12.2-11.7,20s-1.4,16-3.2,23.7c-3.6,13.9-13.5,25.3-26.6,31
	c-5.8,2.4-12,3.8-18.3,4c-0.3,0-0.5,0.1-0.9,0.1C198.3,335.4,189.8,344.9,191.9,356L191.9,356z"/>
</svg>
