<?xml version="1.0" encoding="utf-8"?>
<!-- Generator: Adobe Illustrator 25.2.0, SVG Export Plug-In . SVG Version: 6.00 Build 0)  -->
<svg version="1.1" id="Layer_1" xmlns="http://www.w3.org/2000/svg" xmlns:xlink="http://www.w3.org/1999/xlink" x="0px" y="0px"
	 viewBox="0 0 376.1 460.4" style="enable-background:new 0 0 376.1 460.4;" xml:space="preserve">
<style type="text/css">
	.st0{fill:#FD7922;}
	.st1{fill:#DDEE64;}
	.st2{fill:#02799E;}
	.st3{clip-path:url(#SVGID_2_);}
	.st4{fill:none;stroke:#026684;stroke-width:5.1;stroke-miterlimit:10;}
	.st5{clip-path:url(#SVGID_4_);}
	.st6{clip-path:url(#SVGID_6_);}
	.st7{fill:#C5D559;}
	.st8{fill:#9FAC48;}
	.st9{fill:none;stroke:#FD7922;stroke-width:3.06;stroke-miterlimit:10;}
	.st10{fill:#FFFFFF;}
	.st11{fill:#754C24;}
	.st12{fill:none;stroke:#FD7922;stroke-width:2.8;stroke-miterlimit:10;}
	.st13{fill:none;stroke:#FD7922;stroke-width:2.04;stroke-miterlimit:10;}
</style>
<g id="b-legs">
	<path class="st0" d="M151.1,388.6c0.6,10.7,1.1,21.9-4.9,31.5c-2.2,3.5-5.3,7.3-3.6,11c1.7,3.9,7.7,5.3,12.9,5.2s11.4-1.8,13.2-5.9
		c1.4-2.9,0.1-6.2-0.8-9.3c-3.1-9.8-2.5-20.4,1.6-29.9L151.1,388.6z"/>
	<path class="st0" d="M225.2,388.6c-0.6,10.7-1.1,21.9,4.9,31.5c2.2,3.5,5.3,7.3,3.6,11c-1.7,3.9-7.7,5.3-12.9,5.2
		c-5.3-0.1-11.4-1.8-13.2-5.9c-1.4-2.9-0.1-6.2,0.8-9.3c3.1-9.8,2.6-20.5-1.5-30L225.2,388.6z"/>
</g>
<path id="leg-4" class="st0" d="M288.9,352.6c13.8,3.9,29.9-0.5,41.5-11c11.8-10.9,18.3-26.4,17.8-42.5c-0.2-4.4-1-8.9,0-13.4
	s4.3-9,8.5-9.1c4.5-0.1,7.9,4.9,12.6,4.6c5.1-0.5,8.1-7.8,6.3-12.7s-6.5-7.7-11.2-9.3c-6.5-2.3-14.4-3.2-20.3,1.4
	c-4.7,3.6-7.2,9.9-8.4,15.8s-1.4,12.1-3,18c-2.7,10.5-9.5,19.5-18.9,24.9c-9,5-19.9,5.9-28.7,1.9L288.9,352.6z"/>
<path id="leg-1" class="st0" d="M87.2,352.6c-13.8,3.9-29.9-0.5-41.5-11c-11.8-10.9-18.3-26.4-17.8-42.5c0.2-4.4,1-8.9,0-13.4
	s-4.3-9-8.5-9.1c-4.5-0.1-7.9,4.9-12.6,4.5c-5.1-0.5-8.1-7.8-6.3-12.7s6.6-7.7,11.2-9.3c6.5-2.3,14.4-3.2,20.3,1.4
	c4.7,3.6,7.2,9.9,8.4,15.8s1.4,12.1,3,18c2.7,10.5,9.5,19.5,18.9,24.9c9,5,19.9,5.9,28.7,1.9L87.2,352.6z"/>
<g id="body">
	<path class="st1" d="M119.2,334.2c3.5,15.7-3.7,30.6-16,33.4s-25.3-7.7-28.8-23.3s0.3-45.5,12.6-48.2
		C99.4,293.2,115.7,318.4,119.2,334.2z"/>
	<path class="st1" d="M257.1,334.2c-3.5,15.7,3.6,30.6,16,33.4s25.3-7.7,28.8-23.3s-0.3-45.5-12.6-48.2
		C276.7,293.2,260.6,318.4,257.1,334.2z"/>
	<path class="st2" d="M229.7,168.9c1.3,33.7,26.1,62.2,47.5,89.7c5.3,6.8,9.6,14.4,12.6,22.5c8.7,22.5,7.4,47.3-0.7,71.2
		c-6.3,18.5-22.5,33.6-41.4,42.3c-18.2,8.4-39,11.6-59.5,11.6s-41.3-3.2-59.5-11.6c-19-8.8-35.1-23.7-41.4-42.3
		c-7.6-22-9.1-44.8-2.5-65.9c3.2-10.1,8.1-19.5,14.6-27.8c21.3-27.7,46.2-56,47.5-89.7H229.7z"/>
	<path class="st1" d="M164.1,345.7c0,16-10.2,29.1-22.9,29.1s-22.9-13-22.9-29.1s10.2-44.2,22.9-44.2S164.1,329.5,164.1,345.7z"/>
	<path class="st1" d="M260.4,345.7c0,16-10.2,29.1-22.9,29.1s-22.9-13-22.9-29.1s10.2-44.2,22.9-44.2S260.4,329.5,260.4,345.7z"/>
	<g>
		<defs>
			<path id="SVGID_1_" d="M229.7,168.9c1.3,33.7,26.1,62.2,47.5,89.7c5.3,6.8,9.6,14.4,12.6,22.5c8.7,22.5,7.4,47.3-0.7,71.2
				c-6.3,18.5-22.5,33.6-41.4,42.3c-18.2,8.4-39,11.6-59.5,11.6s-41.3-3.2-59.5-11.6c-19-8.8-35.1-23.7-41.4-42.3
				c-7.6-22-9.1-44.8-2.5-65.9c3.2-10.1,8.1-19.5,14.6-27.8c21.3-27.7,46.2-56,47.5-89.7H229.7z"/>
		</defs>
		<clipPath id="SVGID_2_">
			<use xlink:href="#SVGID_1_"  style="overflow:visible;"/>
		</clipPath>
		<g class="st3">
			<path class="st4" d="M81.6,261.9L81.6,261.9c69.4,22,143.9,22,213.3,0l0,0"/>
		</g>
	</g>
	<g>
		<defs>
			<path id="SVGID_3_" d="M229.7,168.9c1.3,33.7,26.1,62.2,47.5,89.7c5.3,6.8,9.6,14.4,12.6,22.5c8.7,22.5,7.4,47.3-0.7,71.2
				c-6.3,18.5-22.5,33.6-41.4,42.3c-18.2,8.4-39,11.6-59.5,11.6s-41.3-3.2-59.5-11.6c-19-8.8-35.1-23.7-41.4-42.3
				c-7.6-22-9.1-44.8-2.5-65.9c3.2-10.1,8.1-19.5,14.6-27.8c21.3-27.7,46.2-56,47.5-89.7H229.7z"/>
		</defs>
		<clipPath id="SVGID_4_">
			<use xlink:href="#SVGID_3_"  style="overflow:visible;"/>
		</clipPath>
		<g class="st5">
			<path class="st4" d="M142.1,275.3c19.7-24.7,26.7-59,28.9-93.1"/>
		</g>
	</g>
	<g>
		<defs>
			<path id="SVGID_5_" d="M229.7,168.9c1.3,33.7,26.1,62.2,47.5,89.7c5.3,6.8,9.6,14.4,12.6,22.5c8.7,22.5,7.4,47.3-0.7,71.2
				c-6.3,18.5-22.5,33.6-41.4,42.3c-18.2,8.4-39,11.6-59.5,11.6s-41.3-3.2-59.5-11.6c-19-8.8-35.1-23.7-41.4-42.3
				c-7.6-22-9.1-44.8-2.5-65.9c3.2-10.1,8.1-19.5,14.6-27.8c21.3-27.7,46.2-56,47.5-89.7H229.7z"/>
		</defs>
		<clipPath id="SVGID_6_">
			<use xlink:href="#SVGID_5_"  style="overflow:visible;"/>
		</clipPath>
		<g class="st6">
			<path class="st4" d="M234.2,275.3c-19.6-24.7-26.7-59-28.9-93.1"/>
		</g>
	</g>
</g>
<g id="head">
	<path class="st1" d="M188.1,189c-9.8,0-19.8-0.3-29.5-0.9c-7.2-0.4-16.7-2.5-20.9-10.7c-2.7-5.3-2-11.6,1.8-16.1
		c2.9-3.6,9.1-7.9,21.3-7.9h2.5c8.1,0.4,16.4,0.7,24.6,0.7s16.6-0.3,24.6-0.7h2.5c6.7,0,15.9,1.4,21.3,7.9
		c3.8,4.5,4.6,10.9,1.8,16.1c-2.2,4.5-7.7,10-20.9,10.7C207.9,188.7,198,189,188.1,189z"/>
	<path class="st7" d="M218.5,162.4c-20.2,1.3-40.6,1.3-60.8,0c-5-0.3-8.1-1.8-7.2-3.4l0,0c1.1-1.5,5.6-2.4,10.1-2.1
		c18.3,1.1,36.6,1.1,54.9,0c4.5-0.3,9,0.6,10.1,2.1l0,0C226.7,160.6,223.5,162.2,218.5,162.4z"/>
	<path class="st1" d="M225.8,159.8c0,1.3-2.9,2.5-7.3,2.7c-20.2,1.3-40.6,1.3-60.8,0c-5-0.3-8.1-1.8-7.2-3.4c1-1.3,4.5-2.1,8.4-2.1
		h1.5c18.3,1.1,36.6,1.1,54.9,0c4.5-0.3,9,0.6,10.1,2.1C225.7,159.2,225.8,159.5,225.8,159.8z"/>
	<path class="st8" d="M225.8,159.8c0,1.3-2.9,2.5-7.3,2.7c-20.2,1.3-40.6,1.3-60.8,0c-5-0.3-8.1-1.8-7.2-3.4c1-1.3,4.5-2.1,8.4-2.1
		h1.5c18.3,1.1,36.6,1.1,54.9,0c4.5-0.3,9,0.6,10.1,2.1C225.7,159.2,225.8,159.5,225.8,159.8z"/>
	<line class="st9" x1="188.1" y1="44.5" x2="188.1" y2="4.8"/>
	<path class="st0" d="M279.7,45.3c-9.4,0-18.2,4.9-23,13c-6.7,2.9-14.2-1.2-14.2-1.3c-34.3-16.7-74.4-16.7-108.7,0
		c0,0.1-7.5,4.2-14.2,1.3c-7.6-12.7-24.1-16.9-36.8-9.2s-16.9,24.1-9.2,36.8c7.6,12.7,24.1,16.9,36.8,9.2c3.8-2.3,7-5.4,9.2-9.2
		c6.7-2.9,14.2,1,14.2,1c31.9,13.5,24.9,81.9,24.9,81.9h59c0,0-7.2-68.4,24.9-81.9c0,0,7.5-3.9,14.2-1c7.6,12.7,24.1,16.9,36.8,9.3
		c12.7-7.6,16.9-24.1,9.3-36.8C297.8,50.3,289.1,45.3,279.7,45.3L279.7,45.3z"/>
	<circle class="st10" cx="279.7" cy="72.2" r="15.2"/>
	<circle class="st11" cx="275.5" cy="68.5" r="9.8"/>
	<circle class="st10" cx="188.1" cy="83.5" r="26.4"/>
	<circle class="st11" cx="188.1" cy="72.2" r="14.9"/>
	<path class="st11" d="M173.1,132.5c10.2-5.6,22.6-5.6,32.8,0c-5.3-1.7-10.8-2.6-16.4-2.7C184,129.9,178.4,130.8,173.1,132.5z"/>
	<circle class="st0" cx="188.1" cy="4.8" r="4.8"/>
	<path class="st1" d="M236.6,161.3h-12.2c-1.8,0.7-3.8,1.2-5.8,1.3c-20.2,1.3-40.6,1.3-60.8,0c-2,0-3.9-0.4-5.8-1.3h-12.2
		c-3.9,4.5-4.6,10.9-1.8,16.1c4.2,8.1,13.6,10.2,20.9,10.7c9.7,0.6,19.6,0.9,29.5,0.9s19.8-0.3,29.5-0.9
		c13.1-0.7,18.5-6.2,20.9-10.7C241.1,172.1,240.3,165.9,236.6,161.3z"/>
	<ellipse class="st12" cx="188.1" cy="30.9" rx="17.6" ry="2.5"/>
	<ellipse class="st13" cx="188.1" cy="18.8" rx="11.5" ry="1.7"/>
	<circle class="st10" cx="96.6" cy="72.2" r="15.2"/>
	<circle class="st11" cx="100.8" cy="68.5" r="9.8"/>
</g>
<path id="leg-2" class="st0" d="M149.7,333.2c-6-8.6-19.2-11.4-29.3-6.3c-11.6,5.7-21.2,14.8-27.4,26.1c-9,17.5-8.4,38.5,1.5,55.5
	c2.8,4.8,6.5,9.3,7.9,14.6s-0.4,11.9-5.8,14.2c-5.9,2.4-13.2-1.4-19,1.3c-6.3,3-5.9,12.5-0.8,17s12.9,5.2,19.9,4.8
	c9.8-0.6,20.5-3.6,25.7-11.5c4.1-6.3,3.7-14.3,1.8-21.5c-2-7.2-5.2-14-6.7-21.2c-2.5-13.1,1.3-26.6,10.1-36.6
	c3.9-4.4,8.6-8,13.8-10.7c0.3-0.1,0.4-0.3,0.7-0.4C152.6,353.1,155.9,341.8,149.7,333.2L149.7,333.2z"/>
<path id="leg-3" class="st0" d="M226.5,333.2c6-8.6,19.2-11.4,29.4-6.3c11.6,5.7,21.2,14.8,27.4,26.1c9,17.5,8.4,38.5-1.5,55.5
	c-2.8,4.8-6.5,9.3-7.9,14.6s0.4,11.9,5.8,14.2c5.9,2.4,13.2-1.4,19,1.3c6.3,3,5.9,12.5,0.8,17s-12.9,5.2-19.9,4.8
	c-9.8-0.6-20.5-3.6-25.7-11.5c-4.1-6.3-3.6-14.3-1.8-21.5s5.2-14,6.7-21.2c2.4-13.1-1.3-26.6-10.1-36.6c-3.9-4.3-8.6-8-13.8-10.7
	c-0.3-0.1-0.4-0.3-0.7-0.4C223.7,353.1,220.3,341.8,226.5,333.2L226.5,333.2z"/>
</svg>
