<?xml version="1.0" encoding="utf-8"?>
<!-- Generator: Adobe Illustrator 25.2.0, SVG Export Plug-In . SVG Version: 6.00 Build 0)  -->
<svg version="1.1" id="Layer_1" xmlns="http://www.w3.org/2000/svg" xmlns:xlink="http://www.w3.org/1999/xlink" x="0px" y="0px"
	 viewBox="0 0 301 482" style="enable-background:new 0 0 301 482;" xml:space="preserve">
<style type="text/css">
	.st0{fill:#FD7922;}
	.st1{fill:#E46D1F;}
	.st2{fill:#DDEE64;}
	.st3{fill:#02799E;}
	.st4{clip-path:url(#SVGID_2_);}
	.st5{fill:none;stroke:#026684;stroke-width:5.1;stroke-miterlimit:10;}
	.st6{fill:#9FAC48;}
	.st7{fill:#FFFFFF;}
	.st8{fill:#754C24;}
	.st9{fill:none;stroke:#FD7922;stroke-width:3.06;stroke-miterlimit:10;}
	.st10{fill:none;stroke:#FD7922;stroke-width:2.8;stroke-miterlimit:10;}
	.st11{fill:none;stroke:#FD7922;stroke-width:2.04;stroke-miterlimit:10;}
</style>
<g id="b-legs">
	<path class="st0" d="M108.5,391.6c0.6,10.7,1.1,21.9-4.9,31.5c-2.2,3.5-5.3,7.3-3.7,11c1.7,3.9,7.7,5.3,12.9,5.2s11.4-1.8,13.2-5.9
		c1.4-3,0.1-6.2-0.8-9.3c-3.1-9.8-2.5-20.4,1.6-29.9L108.5,391.6z"/>
	<path class="st0" d="M182.7,393.6c-0.6,10.7-1.1,21.9,4.9,31.5c2.2,3.5,5.3,7.3,3.6,11c-1.7,3.9-7.7,5.3-12.9,5.2
		s-11.4-1.8-13.2-5.9c-1.4-3-0.1-6.2,0.8-9.3c3.1-9.8,2.5-20.4-1.6-29.9L182.7,393.6z"/>
</g>
<path id="leg-4" class="st0" d="M253.4,329.4c14.2,2.1,27.1,12.6,33.4,27c6.3,14.8,5.9,31.6-1.1,46c-2,3.9-4.5,7.7-5.5,12.2
	s0.3,10,4.1,11.8c4.1,2,9.3-1.3,13.3,1c4.5,2.5,4.2,10.4,0.6,14.2s-9.1,4.4-14,3.9c-6.9-0.6-14.5-3-18-9.5
	c-2.8-5.2-2.5-11.9-1.3-17.8c1.4-5.9,3.7-11.7,4.6-17.7c1.8-10.7-0.7-21.7-7-30.5c-6.2-8.3-15.7-13.5-25.4-13.5L253.4,329.4z"/>
<path id="leg-1" class="st1" d="M47.6,319.4c-14.2,2.1-27.1,12.6-33.4,27c-6.3,14.8-5.9,31.6,1.1,46.1c2,3.9,4.5,7.7,5.5,12.2
	s-0.3,10-4.1,11.8c-4.1,2-9.3-1.3-13.3,1c-4.5,2.5-4.2,10.4-0.6,14.2s9.1,4.4,14,3.9c6.9-0.6,14.5-3,18-9.5
	c2.8-5.2,2.5-11.9,1.3-17.8s-3.7-11.6-4.6-17.7c-1.8-10.7,0.7-21.7,7-30.5c6.2-8.3,15.7-13.5,25.4-13.5L47.6,319.4z"/>
<g id="body">
	<path class="st2" d="M81.7,334.9c6.3,14.8,2,30.8-9.6,35.8s-26.3-2.9-32.6-17.6s-8.1-44.8,3.5-49.7
		C54.6,298.3,75.3,320.1,81.7,334.9z"/>
	<path class="st2" d="M214.5,339.1c-3.5,15.7,3.6,30.6,16,33.4s25.3-7.7,28.8-23.3s-0.3-45.5-12.6-48.2
		C234.2,298.1,218.1,323.4,214.5,339.1z"/>
	<path class="st3" d="M187.2,173.9c1.3,33.7,26.1,62.2,47.5,89.7c5.3,6.8,9.6,14.4,12.6,22.5c8.7,22.5,7.4,47.3-0.7,71.2
		c-6.3,18.5-22.5,33.5-41.4,42.3c-18.2,8.4-39,11.6-59.5,11.6s-41.3-3.2-59.5-11.6c-19-8.9-35.1-23.7-41.4-42.3
		c-7.6-22-9.1-44.8-2.5-65.9c3.2-10.1,8.1-19.5,14.6-27.8c21.3-27.7,46.2-56,47.5-89.7H187.2z"/>
	<path class="st2" d="M93.1,350.6c0,16-10.2,29.1-22.9,29.1s-22.9-13.1-22.9-29.1s10.2-44.2,22.9-44.2S93.1,334.5,93.1,350.6z"/>
	<path class="st2" d="M210.2,356.3c0,17.5-11.2,31.8-25.1,31.8S160,373.9,160,356.3s11.2-48.5,25.1-48.5S210.2,338.6,210.2,356.3z"
		/>
	<g>
		<defs>
			<path id="SVGID_1_" d="M187.2,173.9c1.3,33.7,26.1,62.2,47.5,89.7c5.3,6.8,9.6,14.4,12.6,22.5c8.7,22.5,7.4,47.3-0.7,71.2
				c-6.3,18.5-22.5,33.5-41.4,42.3c-18.2,8.4-39,11.6-59.5,11.6s-41.3-3.2-59.5-11.6c-19-8.9-35.1-23.7-41.4-42.3
				c-7.6-22-9.1-44.8-2.5-65.9c3.2-10.1,8.1-19.5,14.6-27.8c21.3-27.7,46.2-56,47.5-89.7H187.2z"/>
		</defs>
		<clipPath id="SVGID_2_">
			<use xlink:href="#SVGID_1_"  style="overflow:visible;"/>
		</clipPath>
		<g class="st4">
			<path class="st5" d="M39,266.8L39,266.8c69.4,22,143.9,22,213.3,0l0,0"/>
			<path class="st5" d="M77.9,277.5c23.2-21.5,35.3-54.2,42.7-87.6"/>
			<path class="st5" d="M176.8,280.3c-19.7-24.7-26.7-59-28.9-93.1"/>
		</g>
	</g>
</g>
<g id="head">
	<path class="st2" d="M147.3,194c-9.8,0-19.8-0.3-29.5-0.8c-7.2-0.4-16.7-2.5-20.9-10.7c-2.7-5.3-2-11.6,1.8-16.1
		c2.9-3.6,9.1-7.9,21.3-7.9h2.5c8.2,0.4,16.4,0.7,24.6,0.7c8.3,0,16.6-0.3,24.6-0.7h2.5c6.7,0,15.9,1.4,21.3,7.9
		c3.8,4.5,4.6,10.9,1.8,16.1c-2.2,4.5-7.7,10-20.9,10.7C167.1,193.7,157.2,194,147.3,194z"/>
	<path class="st6" d="M185,164.8c0,1.3-2.9,2.5-7.3,2.7c-20.2,1.3-40.5,1.3-60.8,0c-5.1-0.3-8.2-1.8-7.2-3.4c1-1.3,4.5-2.1,8.4-2.1
		h1.5c18.3,1.1,36.6,1.1,54.9,0c4.5-0.3,9,0.6,10.1,2.1C184.9,164.2,185,164.5,185,164.8z"/>
	<path class="st0" d="M241.5,46.5c-11-0.2-21.3,5.3-27.4,14.5c-6.6,1.4-13-2.4-12.9-2.5c-16-9.1-34.1-14.2-52.5-14.6
		C131,43.6,113.5,47.8,97.9,56c0,0.1-5.3,3.7-9.8-0.3c-3.5-7.4-9.3-12-15.8-11.6c-10,0.7-17.8,13.4-17.4,28.5s8.8,27,18.8,26.7
		C80.3,99,86,93.6,89.1,85.5c4-2,7.9,1.6,7.9,1.6c18.5,9.9,21.6,42.9,21.5,65.3c0,7.3-0.4,14.5-1.2,21.7l27.6,2.2l28.3,2.3
		c0,0-4.9-74.2,27-87.5l0,0c3.1-1.4,6.5-2,9.9-1.9c4,13.1,15.8,22.3,29.4,22.9c17.9,0.8,33.1-13.5,33.7-31.9S259.4,46.8,241.5,46.5z
		"/>
	<path class="st7" d="M69.8,56c5.7-0.3,10.6,6.4,10.8,15.1s-4.3,15.9-10,16.1s-10.5-6.5-10.7-15S64.1,56.4,69.8,56z"/>
	<path class="st8" d="M72.7,57.6c3.7-0.2,6.9,4.2,7,9.8S77,77.7,73.2,77.9s-6.8-4.2-7-9.8S69,57.8,72.7,57.6z"/>
	<path class="st7" d="M237.6,60.8c10.3,0.1,18.5,8.4,18.5,18.7C256,89.7,247.6,98,237.4,98c-10.3-0.1-18.5-8.4-18.5-18.7
		c0-0.2,0-0.3,0-0.5C219.1,68.7,227.5,60.6,237.6,60.8z"/>
	<path class="st8" d="M232.4,62.7c6.6,0.1,12,5.5,11.9,12.1c-0.1,6.6-5.5,12-12.1,11.9c-6.6-0.1-12-5.5-11.9-12.1c0-0.1,0-0.2,0-0.2
		C220.5,67.9,225.9,62.6,232.4,62.7C232.4,62.7,232.4,62.7,232.4,62.7z"/>
	<path class="st7" d="M140.2,57c14.8,0.3,26.5,13.4,26,29.1s-13,27.9-27.7,27.2c-14.6-0.7-25.8-13.7-25.4-29.1S125.6,56.7,140.2,57z
		"/>
	<path class="st8" d="M140.2,57.2c8.3,0.2,14.8,7.5,14.6,16.3s-7.2,15.7-15.5,15.4s-14.7-7.6-14.4-16.3S132,57,140.2,57.2z"/>
	<path class="st8" d="M124.3,136.5c4.2-2.7,9.1-3.9,14.1-3.6c5.1,0.3,10,2.2,14,5.4c-4.4-2.1-9.1-3.4-14-3.8
		C133.6,134.3,128.8,135,124.3,136.5z"/>
	<line class="st9" x1="142.6" y1="44.5" x2="142.6" y2="4.8"/>
	<circle class="st0" cx="142.6" cy="4.8" r="4.8"/>
	<ellipse class="st10" cx="142.6" cy="30.9" rx="17.6" ry="2.5"/>
	<ellipse class="st11" cx="142.6" cy="18.8" rx="11.5" ry="1.7"/>
	<path class="st2" d="M195.8,166.3h-12.2c-1.8,0.7-3.8,1.2-5.8,1.3c-20.2,1.3-40.5,1.3-60.8,0c-2,0-4-0.4-5.8-1.3H99.1
		c-3.9,4.5-4.6,10.9-1.8,16.1c4.2,8.1,13.6,10.2,20.9,10.7c9.7,0.6,19.7,0.8,29.5,0.8s19.8-0.3,29.5-0.8
		c13.1-0.7,18.5-6.2,20.9-10.7C200.4,177.1,199.5,170.8,195.8,166.3z"/>
</g>
<path id="leg-2_1_" class="st0" d="M78.6,338.1c-6-8.6-19.2-11.4-29.3-6.3c-11.6,5.7-21.2,14.8-27.4,26.2c-9,17.5-8.4,38.5,1.5,55.5
	c2.8,4.8,6.5,9.3,7.9,14.6s-0.4,11.9-5.8,14.2c-5.9,2.4-13.2-1.4-19,1.3c-6.3,2.9-5.8,12.5-0.8,16.9s12.9,5.2,19.9,4.8
	c9.8-0.6,20.5-3.6,25.7-11.5c4.1-6.3,3.7-14.3,1.8-21.5s-5.2-14-6.7-21.2c-2.4-13.1,1.3-26.6,10.1-36.6c3.9-4.4,8.6-8,13.8-10.7
	c0.3-0.1,0.4-0.3,0.7-0.4C81.6,358.1,85,346.7,78.6,338.1z"/>
<path id="leg-3" class="st0" d="M171.2,345.2c6.5-9.2,20.7-12.2,31.6-6.8c12.5,6.1,22.8,15.9,29.5,28.1c9.7,18.9,9.1,41.4-1.7,59.7
	c-3,5.1-6.9,10-8.4,15.7s0.4,12.8,6.2,15.2c6.3,2.6,14.2-1.5,20.4,1.4c6.8,3.2,6.3,13.4,0.9,18.3s-13.9,5.6-21.4,5.1
	c-10.6-0.6-22.1-3.9-27.6-12.4c-4.4-6.8-3.9-15.4-2-23.1s5.6-15.1,7.2-22.8c2.6-14.1-1.4-28.7-10.9-39.4c-4.2-4.7-9.2-8.6-14.8-11.5
	c-0.3-0.1-0.4-0.3-0.8-0.5C168.2,366.7,164.5,354.4,171.2,345.2L171.2,345.2z"/>
</svg>
