<?xml version="1.0" encoding="utf-8"?>
<!-- Generator: Adobe Illustrator 25.2.0, SVG Export Plug-In . SVG Version: 6.00 Build 0)  -->
<svg version="1.1" id="Layer_1" xmlns="http://www.w3.org/2000/svg" xmlns:xlink="http://www.w3.org/1999/xlink" x="0px" y="0px"
	 viewBox="0 0 275.1 462.1" style="enable-background:new 0 0 275.1 462.1;" xml:space="preserve">
<style type="text/css">
	.st0{fill:#E46D1F;}
	.st1{fill:#02799E;}
	.st2{clip-path:url(#SVGID_2_);}
	.st3{fill:none;stroke:#026684;stroke-width:5.1;stroke-miterlimit:10;}
	.st4{clip-path:url(#SVGID_4_);}
	.st5{clip-path:url(#SVGID_6_);}
	.st6{fill:#DDEE64;}
	.st7{fill:#FD7922;}
	.st8{fill:#9FAC48;}
	.st9{fill:#FFFFFF;}
	.st10{clip-path:url(#SVGID_8_);}
	.st11{fill:#754C24;}
	.st12{fill:none;stroke:#FD7922;stroke-width:3.06;stroke-miterlimit:10;}
	.st13{fill:none;stroke:#FD7922;stroke-width:2.8;stroke-miterlimit:10;}
	.st14{fill:none;stroke:#FD7922;stroke-width:2.04;stroke-miterlimit:10;}
	.st15{clip-path:url(#SVGID_10_);}
</style>
<g id="b-legs">
	<path id="b-leg" class="st0" d="M106.8,323.4c-5-9.4-16-14.1-24.4-10.5c-10,4.4-18.1,12.3-22.7,22.3c-7.5,16-7,37.6,1.3,55.8
		c2.3,5.2,5.4,10.2,6.5,15.8s-0.3,11.9-4.8,13.4c-4.9,1.6-11-3.3-15.7-1.4c-5.2,2-4.9,11.7-0.7,16.9s10.7,7,16.5,7.6
		c8.2,0.8,17-0.7,21.3-7.9c3.4-5.8,3-13.8,1.5-21.3s-4.3-14.8-5.6-22.2c-2.1-13.2,1.1-26.5,8.4-35.3c3.1-3.7,7-6.7,11.4-8.7
		c0.2-0.1,0.3-0.2,0.6-0.3C109.2,343.8,112,332.9,106.8,323.4L106.8,323.4z"/>
	<path class="st0" d="M165.6,323.4c-5.2,9.5-2.4,20.4,6.3,24.1c0.2,0.1,0.3,0.2,0.6,0.3c4.4,2,8.3,5,11.5,8.7
		c7.3,8.7,10.5,22.1,8.4,35.3c-1.3,7.4-4,14.7-5.6,22.2s-1.9,15.5,1.5,21.3c4.3,7.1,13.2,8.7,21.3,7.9c5.8-0.6,12.2-2.4,16.6-7.6
		s4.5-14.9-0.7-16.9c-4.8-1.9-10.8,3-15.7,1.4c-4.4-1.5-5.9-7.8-4.8-13.4s4.2-10.6,6.5-15.8c8.3-18.1,8.7-39.8,1.3-55.8
		c-4.6-10-12.7-17.9-22.8-22.3C181.6,309.3,170.6,314,165.6,323.4L165.6,323.4z"/>
</g>
<g id="body">
	<path class="st1" d="M176,168.2c1.3,33.7,26.1,62.2,47.4,89.7c5.3,6.8,9.6,14.4,12.6,22.5c8.7,22.5,7.4,47.3-0.7,71.2
		c-6.3,18.5-22.5,33.6-41.4,42.3c-18.2,8.4-39,11.6-59.5,11.6s-41.3-3.2-59.5-11.6c-19-8.9-35.1-23.7-41.4-42.3
		c-7.6-22-9.1-44.8-2.5-65.9c3.2-10.1,8.1-19.5,14.6-27.8c21.3-27.7,46.2-56,47.5-89.7H176z"/>
	<g>
		<defs>
			<path id="SVGID_1_" d="M176,168.2c1.3,33.7,26.1,62.2,47.4,89.7c5.3,6.8,9.6,14.4,12.6,22.5c8.7,22.5,7.4,47.3-0.7,71.2
				c-6.3,18.5-22.5,33.6-41.4,42.3c-18.2,8.4-39,11.6-59.5,11.6s-41.3-3.2-59.5-11.6c-19-8.9-35.1-23.7-41.4-42.3
				c-7.6-22-9.1-44.8-2.5-65.9c3.2-10.1,8.1-19.5,14.6-27.8c21.3-27.7,46.2-56,47.5-89.7H176z"/>
		</defs>
		<clipPath id="SVGID_2_">
			<use xlink:href="#SVGID_1_"  style="overflow:visible;"/>
		</clipPath>
		<g class="st2">
			<path class="st3" d="M27.9,261.1L27.9,261.1c69.4,22,143.9,22,213.3,0l0,0"/>
		</g>
	</g>
	<g>
		<defs>
			<path id="SVGID_3_" d="M176,168.2c1.3,33.7,26.1,62.2,47.4,89.7c5.3,6.8,9.6,14.4,12.6,22.5c8.7,22.5,7.4,47.3-0.7,71.2
				c-6.3,18.5-22.5,33.6-41.4,42.3c-18.2,8.4-39,11.6-59.5,11.6s-41.3-3.2-59.5-11.6c-19-8.9-35.1-23.7-41.4-42.3
				c-7.6-22-9.1-44.8-2.5-65.9c3.2-10.1,8.1-19.5,14.6-27.8c21.3-27.7,46.2-56,47.5-89.7H176z"/>
		</defs>
		<clipPath id="SVGID_4_">
			<use xlink:href="#SVGID_3_"  style="overflow:visible;"/>
		</clipPath>
		<g class="st4">
			<path class="st3" d="M88.4,274.6c19.7-24.7,26.7-59,28.9-93.1"/>
		</g>
	</g>
	<g>
		<defs>
			<path id="SVGID_5_" d="M176,168.2c1.3,33.7,26.1,62.2,47.4,89.7c5.3,6.8,9.6,14.4,12.6,22.5c8.7,22.5,7.4,47.3-0.7,71.2
				c-6.3,18.5-22.5,33.6-41.4,42.3c-18.2,8.4-39,11.6-59.5,11.6s-41.3-3.2-59.5-11.6c-19-8.9-35.1-23.7-41.4-42.3
				c-7.6-22-9.1-44.8-2.5-65.9c3.2-10.1,8.1-19.5,14.6-27.8c21.3-27.7,46.2-56,47.5-89.7H176z"/>
		</defs>
		<clipPath id="SVGID_6_">
			<use xlink:href="#SVGID_5_"  style="overflow:visible;"/>
		</clipPath>
		<g class="st5">
			<path class="st3" d="M180.5,274.6c-19.7-24.7-26.7-59-28.9-93.1"/>
		</g>
	</g>
	<path class="st6" d="M81.2,340.8c0,14.3-7.7,26-17.2,26s-17.2-11.7-17.2-26s7.7-39.5,17.2-39.5S81.2,326.4,81.2,340.8z"/>
	<path class="st6" d="M157.5,345.6c0,16-10.3,29.1-22.9,29.1s-22.9-13.1-22.9-29.1s10.3-44.3,22.9-44.3S157.5,329.4,157.5,345.6z"/>
	<path class="st6" d="M209.8,301.3c9.5,0,17.2,25.2,17.2,39.5s-7.7,26-17.2,26s-17.2-11.7-17.2-26S200.2,301.3,209.8,301.3z"/>
</g>
<path id="leg-3" class="st7" d="M202,331.3c-6,8.1-2.8,18.8,7.2,23.7c0.3,0.1,0.4,0.3,0.7,0.4c4.9,2.6,9.3,6,13,10.1
	c8.3,9.5,11.9,22.2,9.6,34.6c-1.5,6.8-4.5,13.3-6.4,20s-2.1,14.3,1.7,20.3c4.9,7.4,15,10.3,24.3,10.9c6.6,0.4,13.9-0.3,18.8-4.5
	s5.2-13.3-0.8-16c-5.4-2.5-12.3,1.1-17.9-1.2c-5-2.1-6.8-8.4-5.4-13.4s4.8-9.3,7.4-13.8c9.4-16.1,9.9-35.8,1.4-52.3
	c-5.9-10.7-14.9-19.3-25.9-24.7C220.1,320.5,207.7,323.2,202,331.3L202,331.3z"/>
<g id="leg-2">
	<path class="st7" d="M156.9,453c-5.6,10.5-44,12-49.1,0c-1.9-4.5,0.9-6.6,5.1-10.2c14.9-10.5,11.3-40.2,8.3-53.5
		c-3.2-8.5-2.8-16.4-5.6-25c-13.9-54,63.8-49.9,29.7,22.9c-3.2,16.7-9.7,42.9,6.7,55.6C155.9,446.4,158.8,448.4,156.9,453z"/>
</g>
<g id="head">
	<path class="st6" d="M134.6,188.3c-9.8,0-19.8-0.3-29.5-0.8c-7.2-0.4-16.7-2.5-20.9-10.7c-2.7-5.3-1.9-11.6,1.8-16.2
		c3-3.6,9.1-7.9,21.3-7.9h2.5c8.1,0.4,16.4,0.7,24.6,0.7s16.6-0.3,24.6-0.7h2.5c6.7,0,15.9,1.4,21.3,7.9c3.8,4.5,4.6,10.9,1.8,16.1
		c-2.2,4.5-7.7,10-20.9,10.7C154.4,188,144.4,188.3,134.6,188.3z"/>
	<path class="st8" d="M172.2,159.1c0,1.3-2.9,2.5-7.3,2.7c-20.2,1.3-40.6,1.3-60.8,0c-5-0.3-8.1-1.8-7.2-3.4c1-1.3,4.5-2.1,8.4-2.1
		h1.5c18.3,1.1,36.6,1.1,54.9,0c4.5-0.3,9,0.6,10.1,2.1C172.1,158.5,172.2,158.8,172.2,159.1z"/>
	<path class="st7" d="M214.9,63.2c-1.3-6.9-4.2-13.8-10.4-17.9c-1.9-1.3-4.2-1.9-6.6-1.6h-0.1c-3.5-0.2-7.6,1.5-11.2,4.8
		c-2.7,2.6-4.9,5.7-6.4,9.2l-0.8-0.2c-3.8-1-7.4-2.8-10.6-5.2c-4.2-3.1-14.4-8.3-36.9-8.6c-9-0.2-17.3,4.7-21.6,12.6l-0.2,0.3
		c-4.9,9.6-8.5,25.8-3.4,52.4c0.5,2.5,1,5.1,1.7,7.8c6.6,22.7,9.9,51.5,9.9,51.5l3.5,0.1h30.1c0,0-0.2-2.3-0.4-6.1c0,0,0-0.1,0-0.1
		c-0.1-1.6-0.1-3.5-0.2-5.6c0-1.1,0-2.2,0-3.4c-0.1-21,3.2-57.3,25.6-66.7c1-0.5,2-0.9,3.1-1.2c1.5,3.9,3.9,7.3,6.9,10.2
		c3.6,3.3,7.7,5,11.2,4.8h0.1c2.3,0.2,4.6-0.4,6.6-1.6c6.2-4.1,9.1-11,10.4-17.9C216.1,74.9,216,68.9,214.9,63.2z"/>
	<path class="st9" d="M111.4,111.4c-0.9,0-1.8-0.1-2.7-0.1c-2.2-0.2-4-1.9-4.4-4.2c-3.5-20-2.7-37,3.1-49.7c0.9-1.8,2.8-3,4.8-2.9
		C149.1,56.1,148.8,110.1,111.4,111.4z"/>
	<g>
		<defs>
			<path id="SVGID_7_" d="M111.4,111.4c-0.9,0-1.8-0.1-2.7-0.1c-2.2-0.2-4-1.9-4.4-4.2c-3.5-20-2.7-37,3.1-49.7
				c0.9-1.8,2.8-3,4.8-2.9C149.1,56.1,148.8,110.1,111.4,111.4z"/>
		</defs>
		<clipPath id="SVGID_8_">
			<use xlink:href="#SVGID_7_"  style="overflow:visible;"/>
		</clipPath>
		<g class="st10">
			<circle class="st11" cx="106.4" cy="71.6" r="14.9"/>
		</g>
	</g>
	<line class="st12" x1="132.3" y1="43.8" x2="132.3" y2="4.1"/>
	<circle class="st7" cx="132.3" cy="4.1" r="4.8"/>
	<ellipse class="st13" cx="132.3" cy="30.2" rx="17.6" ry="2.5"/>
	<ellipse class="st14" cx="132.3" cy="18.1" rx="11.5" ry="1.7"/>
	<path class="st9" d="M193.7,56.5c5.1,1.9,7.4,8.7,7.5,15.4c-0.1,6.7-2.4,13.5-7.5,15.4s-12.3-4.8-12.3-15.4S188.6,54.5,193.7,56.5z
		"/>
	<path class="st11" d="M190.5,57.4c3.4,1.1,4.9,6,4.5,11s-2.6,9.6-6.1,10.2s-7.2-4.4-6.7-11.1S187.2,56.3,190.5,57.4z"/>
	<g>
		<defs>
			<path id="SVGID_9_" d="M191,57.8c-3.1,1.3-7.7,0.8-11.6-0.3c-3.8-1-7.4-2.8-10.6-5.2c-4.2-3.1-14.4-8.3-36.9-8.6
				c-9-0.2-17.3,4.7-21.6,12.6l-0.2,0.3c-4.9,9.6-8.5,25.8-3.4,52.4c0.5,2.5,1,5.1,1.7,7.8c6.6,22.7,9.9,51.5,9.9,51.5l3.5,0.1h30.1
				c0,0-0.2-2.3-0.4-6.1c0,0,0-0.1,0-0.1c-0.1-1.6-0.1-3.5-0.2-5.6c0-1.1,0-2.2,0-3.4c-0.1-21,3.2-57.3,25.6-66.7
				c0,0,7.5-3.9,14.2-1L191,57.8z"/>
		</defs>
		<clipPath id="SVGID_10_">
			<use xlink:href="#SVGID_9_"  style="overflow:visible;"/>
		</clipPath>
		<g class="st15">
			<path class="st11" d="M127.8,132.1c-5.3-1.7-10.9-2.6-16.5-2.7c-0.7,0-1.3,0-1.9,0c-4.9,0.2-9.8,1.1-14.5,2.6
				c4.5-2.5,9.4-3.9,14.5-4.2c0.7,0,1.3-0.1,1.9-0.1C117.2,127.8,122.8,129.3,127.8,132.1z"/>
		</g>
	</g>
	<path class="st6" d="M183,160.6h-12.2c-1.8,0.7-3.8,1.2-5.8,1.3c-20.2,1.3-40.6,1.3-60.8,0c-2,0-3.9-0.4-5.8-1.3H86.3
		c-3.9,4.5-4.6,10.9-1.8,16.1c4.2,8.1,13.6,10.2,20.9,10.7c9.7,0.6,19.7,0.8,29.5,0.8s19.8-0.3,29.5-0.8c13-0.7,18.5-6.2,20.9-10.7
		C187.6,171.4,186.7,165.2,183,160.6z"/>
</g>
<path id="leg-1" class="st7" d="M71.8,331.3c-5.7-8.1-18.2-10.8-27.7-6c-11,5.4-20,14-25.9,24.7c-8.5,16.6-8,36.3,1.5,52.4
	c2.6,4.5,6.1,8.8,7.4,13.8s-0.4,11.3-5.4,13.4c-5.6,2.3-12.5-1.3-17.9,1.2c-6,2.8-5.6,11.8-0.8,16s12.2,4.9,18.8,4.5
	c9.3-0.5,19.4-3.4,24.3-10.9c3.8-6,3.5-13.5,1.7-20.3s-4.9-13.3-6.4-20c-2.3-12.4,1.2-25.2,9.6-34.6c3.7-4.1,8.1-7.5,13-10.1
	c0.3-0.1,0.4-0.3,0.7-0.4C74.7,350.1,77.8,339.4,71.8,331.3L71.8,331.3z"/>
</svg>
