<?xml version="1.0" encoding="utf-8"?>
<!-- Generator: Adobe Illustrator 25.2.0, SVG Export Plug-In . SVG Version: 6.00 Build 0)  -->
<svg version="1.1" id="Layer_1" xmlns="http://www.w3.org/2000/svg" xmlns:xlink="http://www.w3.org/1999/xlink" x="0px" y="0px"
	 viewBox="0 0 320.2 462.1" style="enable-background:new 0 0 320.2 462.1;" xml:space="preserve">
<style type="text/css">
	.st0{fill:#E46D1F;}
	.st1{fill:#02799E;}
	.st2{clip-path:url(#SVGID_2_);}
	.st3{fill:none;stroke:#026684;stroke-width:5.1;stroke-miterlimit:10;}
	.st4{clip-path:url(#SVGID_4_);}
	.st5{clip-path:url(#SVGID_6_);}
	.st6{fill:#DDEE64;}
	.st7{fill:#FD7922;}
	.st8{fill:#9FAC48;}
	.st9{fill:#FFFFFF;}
	.st10{clip-path:url(#SVGID_8_);}
	.st11{fill:#754C24;}
	.st12{fill:none;stroke:#FD7922;stroke-width:3.06;stroke-miterlimit:10;}
	.st13{fill:none;stroke:#FD7922;stroke-width:2.8;stroke-miterlimit:10;}
	.st14{fill:none;stroke:#FD7922;stroke-width:2.04;stroke-miterlimit:10;}
	.st15{clip-path:url(#SVGID_10_);}
</style>
<path id="b-leg1" class="st0" d="M125.3,291.5c4.1,9.9,0.7,21.3-7.4,25.5c-9.8,4.9-21,6.1-31.7,3.3c-17.1-4.5-33.5-18.6-42.2-36.5
	c-2.5-5.1-4.4-10.6-8-15.1s-9.4-7.3-13.4-4.9c-4.3,2.8-4.5,10.5-8.9,13c-4.9,2.8-12.1-3.6-13.4-10.2S1.7,253.9,5,249
	c4.6-6.8,11.4-12.6,19.7-11.4c6.6,1.1,12.6,6.5,17.3,12.4s8.7,12.8,13.5,18.5c8.8,10,21.1,16.1,32.5,16c4.8,0,9.6-1.1,14-3.2
	c0.2-0.1,0.4-0.1,0.6-0.2C111.1,276.6,121.3,281.4,125.3,291.5L125.3,291.5z"/>
<path id="b-leg2" class="st0" d="M211.4,324.1c-5.2,9.5-2.4,20.4,6.3,24.1c0.2,0.1,0.4,0.2,0.6,0.3c4.4,2.1,8.3,5,11.4,8.7
	c7.3,8.7,10.5,22.1,8.4,35.3c-1.3,7.4-4,14.7-5.6,22.2s-1.9,15.5,1.5,21.3c4.3,7.1,13.2,8.7,21.3,7.9c5.8-0.6,12.2-2.4,16.5-7.6
	s4.5-14.8-0.7-16.9c-4.8-1.9-10.8,3-15.7,1.4c-4.4-1.5-5.9-7.8-4.8-13.4s4.2-10.6,6.5-15.8c8.3-18.1,8.7-39.8,1.3-55.8
	c-4.6-9.9-12.7-17.9-22.7-22.3C227.4,310,216.5,314.7,211.4,324.1L211.4,324.1z"/>
<g id="body">
	<path class="st1" d="M221.8,168.9c1.3,33.7,26.1,62.2,47.4,89.7c5.3,6.8,9.6,14.4,12.6,22.5c8.7,22.5,7.4,47.3-0.7,71.2
		c-6.3,18.5-22.5,33.6-41.4,42.3c-18.3,8.4-39,11.6-59.5,11.6s-41.2-3.2-59.5-11.6c-19-8.8-35.1-23.7-41.4-42.3
		c-7.6-22-9.1-44.8-2.5-65.9c3.2-10.1,8.1-19.5,14.6-27.8c21.3-27.7,46.2-56,47.5-89.7H221.8z"/>
	<g>
		<defs>
			<path id="SVGID_1_" d="M221.8,168.9c1.3,33.7,26.1,62.2,47.4,89.7c5.3,6.8,9.6,14.4,12.6,22.5c8.7,22.5,7.4,47.3-0.7,71.2
				c-6.3,18.5-22.5,33.6-41.4,42.3c-18.3,8.4-39,11.6-59.5,11.6s-41.2-3.2-59.5-11.6c-19-8.8-35.1-23.7-41.4-42.3
				c-7.6-22-9.1-44.8-2.5-65.9c3.2-10.1,8.1-19.5,14.6-27.8c21.3-27.7,46.2-56,47.5-89.7H221.8z"/>
		</defs>
		<clipPath id="SVGID_2_">
			<use xlink:href="#SVGID_1_"  style="overflow:visible;"/>
		</clipPath>
		<g class="st2">
			<path class="st3" d="M73.7,261.9L73.7,261.9c69.4,22,143.9,22,213.3,0l0,0"/>
		</g>
	</g>
	<g>
		<defs>
			<path id="SVGID_3_" d="M221.8,168.9c1.3,33.7,26.1,62.2,47.4,89.7c5.3,6.8,9.6,14.4,12.6,22.5c8.7,22.5,7.4,47.3-0.7,71.2
				c-6.3,18.5-22.5,33.6-41.4,42.3c-18.3,8.4-39,11.6-59.5,11.6s-41.2-3.2-59.5-11.6c-19-8.8-35.1-23.7-41.4-42.3
				c-7.6-22-9.1-44.8-2.5-65.9c3.2-10.1,8.1-19.5,14.6-27.8c21.3-27.7,46.2-56,47.5-89.7H221.8z"/>
		</defs>
		<clipPath id="SVGID_4_">
			<use xlink:href="#SVGID_3_"  style="overflow:visible;"/>
		</clipPath>
		<g class="st4">
			<path class="st3" d="M134.2,275.3c19.7-24.7,26.7-59,28.9-93.1"/>
		</g>
	</g>
	<g>
		<defs>
			<path id="SVGID_5_" d="M221.8,168.9c1.3,33.7,26.1,62.2,47.4,89.7c5.3,6.8,9.6,14.4,12.6,22.5c8.7,22.5,7.4,47.3-0.7,71.2
				c-6.3,18.5-22.5,33.6-41.4,42.3c-18.3,8.4-39,11.6-59.5,11.6s-41.2-3.2-59.5-11.6c-19-8.8-35.1-23.7-41.4-42.3
				c-7.6-22-9.1-44.8-2.5-65.9c3.2-10.1,8.1-19.5,14.6-27.8c21.3-27.7,46.2-56,47.5-89.7H221.8z"/>
		</defs>
		<clipPath id="SVGID_6_">
			<use xlink:href="#SVGID_5_"  style="overflow:visible;"/>
		</clipPath>
		<g class="st5">
			<path class="st3" d="M226.3,275.3c-19.7-24.7-26.7-59-28.9-93.1"/>
		</g>
	</g>
	<path class="st6" d="M127,341.5c0,14.3-7.7,26-17.2,26s-17.2-11.7-17.2-26s7.7-39.5,17.2-39.5S127,327.1,127,341.5z"/>
	<path class="st6" d="M203.3,346.3c0,16-10.3,29.1-22.9,29.1s-22.9-13.1-22.9-29.1s10.3-44.3,22.9-44.3S203.3,330.1,203.3,346.3z"/>
	<path class="st6" d="M255.6,302c9.5,0,17.2,25.2,17.2,39.5s-7.7,26-17.2,26s-17.2-11.7-17.2-26S246,302,255.6,302z"/>
</g>
<path id="leg-3" class="st7" d="M247.8,332c-6,8.1-2.8,18.8,7.2,23.7c0.3,0.1,0.4,0.3,0.7,0.4c4.9,2.6,9.3,6,13,10.1
	c8.3,9.5,11.9,22.2,9.5,34.6c-1.5,6.8-4.5,13.3-6.4,20s-2.1,14.3,1.7,20.3c4.9,7.4,15,10.4,24.3,10.9c6.6,0.4,13.9-0.3,18.8-4.5
	s5.2-13.3-0.8-16c-5.4-2.5-12.3,1.1-17.9-1.2c-5-2.1-6.8-8.4-5.4-13.4s4.8-9.3,7.4-13.8c9.4-16.1,10-35.8,1.5-52.4
	c-5.9-10.7-14.9-19.3-25.9-24.7C265.9,321.2,253.5,323.9,247.8,332L247.8,332z"/>
<g id="leg-2">
	<path class="st7" d="M202.7,453.7c-5.6,10.5-44,12-49.1,0c-1.9-4.5,0.9-6.6,5.1-10.2c14.9-10.5,11.3-40.2,8.3-53.5
		c-3.2-8.5-2.8-16.4-5.6-25c-13.9-54,63.8-49.9,29.6,22.9c-3.2,16.7-9.7,42.9,6.7,55.6C201.7,447.1,204.6,449.1,202.7,453.7z"/>
</g>
<g id="head">
	<path class="st6" d="M180.4,189c-9.8,0-19.8-0.3-29.5-0.9c-7.2-0.4-16.7-2.5-20.9-10.7c-2.7-5.3-1.9-11.6,1.8-16.1
		c2.9-3.6,9.1-7.9,21.3-7.9h2.5c8.1,0.4,16.4,0.7,24.6,0.7s16.6-0.3,24.6-0.7h2.5c6.7,0,15.9,1.4,21.3,7.9
		c3.8,4.5,4.6,10.9,1.8,16.1c-2.2,4.5-7.7,10-20.9,10.7C200.2,188.7,190.2,189,180.4,189z"/>
	<path class="st8" d="M218,159.8c0,1.3-3,2.5-7.3,2.7c-20.2,1.3-40.6,1.3-60.8,0c-5-0.3-8.1-1.8-7.2-3.4c1-1.3,4.5-2.1,8.4-2.1h1.6
		c18.3,1.1,36.6,1.1,54.9,0c4.5-0.3,9,0.6,10.1,2.1C217.9,159.2,218,159.5,218,159.8z"/>
	<path class="st7" d="M260.7,63.9c-1.3-6.9-4.2-13.8-10.4-17.9c-1.9-1.3-4.2-1.9-6.6-1.6h-0.1c-3.5-0.2-7.6,1.5-11.2,4.8
		c-2.7,2.6-4.9,5.7-6.4,9.2l-0.8-0.2c-3.8-1-7.5-2.8-10.6-5.2c-4.2-3.1-14.4-8.3-37-8.6c-9-0.1-17.2,4.7-21.5,12.6l-0.1,0.3
		c-4.9,9.5-8.5,25.7-3.4,52.4c0.5,2.5,1,5.1,1.7,7.8c6.6,22.7,9.9,51.5,9.9,51.5l3.5,0.1h30.1c0,0-0.2-2.3-0.4-6.1
		c0-0.1,0-0.1,0-0.1c-0.1-1.6-0.1-3.5-0.2-5.6c0-1.1,0-2.2,0-3.4c-0.1-21,3.2-57.3,25.6-66.7c1-0.5,2-0.9,3.1-1.2
		c1.5,3.9,3.9,7.3,6.9,10.2c3.6,3.3,7.7,5,11.2,4.8h0.1c2.3,0.2,4.6-0.4,6.6-1.6c6.2-4.1,9.1-10.9,10.4-17.9
		C261.9,75.6,261.8,69.7,260.7,63.9z"/>
	<path class="st9" d="M157.2,112.1c-0.9,0-1.8,0-2.7-0.1c-2.2-0.2-4-1.9-4.4-4.2c-3.5-20-2.7-37,3.1-49.7c0.9-1.8,2.7-3,4.8-2.9
		C194.9,56.8,194.6,110.8,157.2,112.1z"/>
	<g>
		<defs>
			<path id="SVGID_7_" d="M157.2,112.1c-0.9,0-1.8,0-2.7-0.1c-2.2-0.2-4-1.9-4.4-4.2c-3.5-20-2.7-37,3.1-49.7c0.9-1.8,2.7-3,4.8-2.9
				C194.9,56.8,194.6,110.8,157.2,112.1z"/>
		</defs>
		<clipPath id="SVGID_8_">
			<use xlink:href="#SVGID_7_"  style="overflow:visible;"/>
		</clipPath>
		<g class="st10">
			<circle class="st11" cx="152.2" cy="72.3" r="14.9"/>
		</g>
	</g>
	<line class="st12" x1="178.1" y1="44.5" x2="178.1" y2="4.8"/>
	<circle class="st7" cx="178.1" cy="4.8" r="4.8"/>
	<ellipse class="st13" cx="178.1" cy="30.9" rx="17.6" ry="2.5"/>
	<ellipse class="st14" cx="178.1" cy="18.8" rx="11.5" ry="1.7"/>
	<path class="st9" d="M239.5,57.2c5.1,1.9,7.4,8.8,7.5,15.5c-0.1,6.7-2.4,13.5-7.5,15.4s-12.3-4.8-12.3-15.4S234.4,55.2,239.5,57.2z
		"/>
	<path class="st11" d="M236.3,58.1c3.4,1.1,4.9,5.9,4.5,11s-2.6,9.6-6.1,10.2s-7.2-4.4-6.7-11.1S233,57,236.3,58.1z"/>
	<g>
		<defs>
			<path id="SVGID_9_" d="M236.8,58.5c-3.1,1.3-7.7,0.8-11.6-0.3c-3.8-1-7.4-2.8-10.6-5.2c-4.2-3.1-14.4-8.3-37-8.6
				c-9-0.1-17.2,4.7-21.5,12.6l-0.1,0.3c-4.9,9.5-8.5,25.7-3.4,52.4c0.5,2.5,1,5.1,1.7,7.8c6.6,22.7,9.9,51.5,9.9,51.5l3.5,0.1h30.1
				c0,0-0.2-2.3-0.4-6.1c0-0.1,0-0.1,0-0.1c-0.1-1.6-0.1-3.5-0.2-5.6c0-1.1,0-2.2,0-3.4c-0.1-21,3.2-57.3,25.6-66.7
				c0,0,7.5-3.9,14.2-1L236.8,58.5z"/>
		</defs>
		<clipPath id="SVGID_10_">
			<use xlink:href="#SVGID_9_"  style="overflow:visible;"/>
		</clipPath>
		<g class="st15">
			<path class="st11" d="M173.6,132.8c-5.3-1.7-10.9-2.6-16.4-2.7c-0.6,0-1.3,0-1.9,0c-4.9,0.2-9.8,1.1-14.5,2.6
				c4.5-2.5,9.4-3.9,14.5-4.2c0.6,0,1.3-0.1,1.9-0.1C163,128.5,168.6,130,173.6,132.8z"/>
		</g>
	</g>
	<path class="st6" d="M228.8,161.3h-12.2c-1.8,0.7-3.8,1.2-5.8,1.3c-20.2,1.3-40.6,1.3-60.8,0c-2,0-4-0.4-5.8-1.3h-12.2
		c-3.9,4.5-4.6,10.9-1.8,16.1c4.2,8.1,13.6,10.2,20.9,10.7c9.7,0.6,19.7,0.9,29.5,0.9s19.8-0.3,29.5-0.9
		c13.1-0.7,18.5-6.2,20.9-10.7C233.4,172.1,232.5,165.9,228.8,161.3z"/>
</g>
<path id="leg-1" class="st7" d="M117.5,331c-5.7-8.1-18.2-10.7-27.7-6c-11,5.4-20,14-25.8,24.7c-8.5,16.6-7.9,36.3,1.5,52.4
	c2.7,4.5,6.1,8.8,7.4,13.8s-0.4,11.3-5.4,13.4c-5.6,2.3-12.5-1.3-17.9,1.2c-6,2.8-5.6,11.8-0.8,16s12.2,4.9,18.8,4.5
	c9.3-0.5,19.4-3.5,24.3-10.9c3.8-6,3.4-13.5,1.7-20.3s-4.9-13.3-6.4-20c-2.3-12.4,1.2-25.2,9.5-34.6c3.7-4.1,8.1-7.5,13-10.1
	c0.3-0.1,0.4-0.3,0.7-0.4C120.3,349.8,123.5,339.1,117.5,331L117.5,331z"/>
</svg>
