<?xml version="1.0" encoding="utf-8"?>
<!-- Generator: Adobe Illustrator 26.0.0, SVG Export Plug-In . SVG Version: 6.00 Build 0)  -->
<svg version="1.1" id="Layer_1" xmlns="http://www.w3.org/2000/svg" xmlns:xlink="http://www.w3.org/1999/xlink" x="0px" y="0px"
	 viewBox="0 0 700 700" style="enable-background:new 0 0 700 700;" xml:space="preserve">
<style type="text/css">
	.st0{fill:#FD7922;}
	.st1{fill:#DDEE64;}
	.st2{fill:#02799E;}
	.st3{clip-path:url(#SVGID_00000027593468614018252930000000305747836515784121_);}
	.st4{fill:none;stroke:#026684;stroke-width:1.5786;stroke-miterlimit:10;}
	.st5{clip-path:url(#SVGID_00000081621674371779274930000011924546531951348914_);}
	.st6{clip-path:url(#SVGID_00000029006686526528554380000016719126633042694027_);}
	.st7{fill:#C5D559;}
	.st8{fill:#9FAC48;}
	.st9{fill:none;stroke:#FD7922;stroke-width:0.9472;stroke-miterlimit:10;}
	.st10{fill:#FFFFFF;}
	.st11{fill:#754C24;}
	.st12{fill:none;stroke:#FD7922;stroke-width:0.8667;stroke-miterlimit:10;}
	.st13{fill:none;stroke:#FD7922;stroke-width:0.6314;stroke-miterlimit:10;}
</style>
<g>
	<g transform="translate(-2 -496)">
		<g>
			<g>
				<g>
					<g>
						<g>
							<g>
								<path class="st0" d="M269.9,1358.7c1.3,23.7,2.4,48.4-10.9,69.6c-4.9,7.7-11.8,16.1-8.2,24.3c3.8,8.6,17.1,11.7,28.7,11.5
									c11.8-0.2,25.4-4,29.4-13c3.1-6.6,0.2-13.7-1.8-20.6c-6.9-21.7-5.6-45.1,3.3-66.1L269.9,1358.7z"/>
								<path class="st0" d="M434.9,1358.7c-1.3,23.7-2.4,48.4,10.9,69.6c4.9,7.7,11.8,16.1,8,24.3c-3.8,8.6-17.1,11.7-28.7,11.5
									c-11.6-0.2-25.4-4-29.4-13c-3.1-6.6-0.2-13.7,1.8-20.6c6.9-21.7,5.6-45.1-3.3-66.1L434.9,1358.7z"/>
								<path class="st0" d="M592.5,1205.7c31.6,4.6,60.3,27.9,74.3,59.7c14,32.7,13.1,69.9-2.4,101.7c-4.5,8.6-10,17-12.2,27
									c-2.2,10,0.7,22.1,9.1,26.1c9.1,4.4,20.7-2.9,29.6,2.2c10,5.5,9.3,23,1.3,31.4c-8,8.4-20.3,9.7-31.2,8.6
									c-15.4-1.3-32.3-6.4-40.1-21c-6.2-11.5-5.6-26.3-2.9-39.3c2.7-13.1,8-25.9,10.2-39.1c4-23.7-1.6-47.8-15.6-67.4
									c-13.8-18.3-34.9-29.8-56.5-29.8L592.5,1205.7z"/>
								<path class="st0" d="M112.1,1205.7c-31.6,4.6-60.3,27.9-74.3,59.7c-14,32.7-13.1,69.9,2.4,101.7c4.5,8.6,10,17,12.2,27
									c2.2,10-0.7,22.1-9.1,26.1c-9.1,4.4-20.7-2.9-29.6,2.2c-10,5.5-9.3,23-1.3,31.4c8,8.4,20.3,9.7,31.2,8.6
									c15.4-1.3,32.3-6.4,40.1-21c6.2-11.5,5.6-26.3,2.9-39.3c-2.7-13.1-8.2-25.9-10.2-39.1c-4-23.7,1.6-47.8,15.6-67.4
									c13.8-18.3,34.9-29.8,56.5-29.8L112.1,1205.7z"/>
								<path class="st1" d="M198.9,1238.4c7.8,34.7-8.2,67.7-35.6,73.9c-27.4,6.2-56.3-17-64.1-51.5c-7.8-34.5,0.7-100.6,28-106.6
									C154.9,1147.8,191.1,1203.5,198.9,1238.4z"/>
								<path class="st1" d="M505.9,1238.4c-7.8,34.7,8,67.7,35.6,73.9c27.6,6.2,56.3-17,64.1-51.5c7.8-34.5-0.7-100.6-28-106.6
									C549.5,1147.8,513.7,1203.5,505.9,1238.4z"/>
								<path class="st2" d="M444.9,873c2.9,74.5,58.1,137.5,105.5,198.3c11.8,15,21.4,31.8,28,49.7c19.4,49.7,16.5,104.6-1.6,157.4
									c-14,40.9-50.1,74.3-92.2,93.5c-40.5,18.6-86.8,25.6-132.4,25.6c-45.6,0-91.9-7.1-132.4-25.6
									c-42.3-19.7-78.1-52.4-92.2-93.5c-16.9-48.6-20.3-99.1-5.6-145.7c7.1-22.3,18-43.1,32.5-61.5
									C202,1010,257.5,947.5,260.4,873H444.9z"/>
								<path class="st1" d="M298.9,1263.9c0,35.4-22.7,64.3-51,64.3c-28.3,0-50.8-29-50.8-64.3c0-35.4,22.7-97.9,51-97.9
									C276.4,1165.9,298.9,1228,298.9,1263.9z"/>
								<path class="st1" d="M513.2,1263.9c0,35.4-22.7,64.1-50.8,64.1c-28,0-51-28.7-51-64.1c0-35.4,22.7-97.7,51-97.7
									C490.7,1166.1,513.2,1228,513.2,1263.9z"/>
								<g>
									<defs>
										<path id="SVGID_1_" d="M444.9,873c2.9,74.5,58.1,137.5,105.5,198.3c11.8,15,21.4,31.8,28,49.7
											c19.4,49.8,16.5,104.6-1.6,157.4c-14,40.9-50.1,74.3-92.2,93.5c-40.5,18.6-86.8,25.7-132.4,25.7
											c-45.6,0-91.9-7.1-132.4-25.7c-42.3-19.7-78.1-52.4-92.2-93.5c-16.9-48.6-20.3-99.1-5.6-145.7c7.1-22.3,18-43.1,32.5-61.5
											C202,1010,257.5,947.5,260.4,873H444.9z"/>
									</defs>
									<clipPath id="SVGID_00000085243254781311243090000002339561704825524881_">
										<use xlink:href="#SVGID_1_"  style="overflow:visible;"/>
									</clipPath>
									<g style="clip-path:url(#SVGID_00000085243254781311243090000002339561704825524881_);">
										<path class="st4" d="M115.2,1078.4c154.5,48.9,320.3,48.9,474.8,0"/>
									</g>
								</g>
								<g>
									<defs>
										<path id="SVGID_00000035530619163306273170000001111398399425885852_" d="M444.9,873c2.9,74.5,58.1,137.5,105.5,198.3
											c11.8,15,21.4,31.8,28,49.7c19.4,49.8,16.5,104.6-1.6,157.4c-14,40.9-50.1,74.3-92.2,93.5
											c-40.5,18.6-86.8,25.7-132.4,25.7c-45.6,0-91.9-7.1-132.4-25.7c-42.3-19.7-78.1-52.4-92.2-93.5
											c-16.9-48.6-20.3-99.1-5.6-145.7c7.1-22.3,18-43.1,32.5-61.5C202,1010,257.5,947.5,260.4,873H444.9z"/>
									</defs>
									<clipPath id="SVGID_00000116931351642881228900000000227389333576040606_">
										<use xlink:href="#SVGID_00000035530619163306273170000001111398399425885852_"  style="overflow:visible;"/>
									</clipPath>
									<g style="clip-path:url(#SVGID_00000116931351642881228900000000227389333576040606_);">
										<path class="st4" d="M249.9,1108.2c43.8-54.6,59.4-130.4,64.3-205.8"/>
									</g>
								</g>
								<g>
									<defs>
										<path id="SVGID_00000160904684245107241160000017132717202283536261_" d="M444.9,873c2.9,74.5,58.1,137.5,105.5,198.3
											c11.8,15,21.4,31.8,28,49.7c19.4,49.8,16.5,104.6-1.6,157.4c-14,40.9-50.1,74.3-92.2,93.5
											c-40.5,18.6-86.8,25.7-132.4,25.7c-45.6,0-91.9-7.1-132.4-25.7c-42.3-19.7-78.1-52.4-92.2-93.5
											c-16.9-48.6-20.3-99.1-5.6-145.7c7.1-22.3,18-43.1,32.5-61.5C202,1010,257.5,947.5,260.4,873H444.9z"/>
									</defs>
									<clipPath id="SVGID_00000145751554187891786490000008162070555555066767_">
										<use xlink:href="#SVGID_00000160904684245107241160000017132717202283536261_"  style="overflow:visible;"/>
									</clipPath>
									<g style="clip-path:url(#SVGID_00000145751554187891786490000008162070555555066767_);">
										<path class="st4" d="M454.9,1108.2c-43.9-54.6-59.4-130.4-64.3-205.8"/>
									</g>
								</g>
								<path class="st1" d="M352.3,917.4c-21.8,0-44.1-0.7-65.7-1.8c-16-0.9-37.2-5.5-46.5-23.7c-6-11.7-4.2-25.6,4.2-35.8
									c6.5-8,20.3-17.5,47.4-17.5h5.6c18,0.9,36.5,1.5,54.8,1.5c18.3,0,36.9-0.7,54.8-1.5h5.6c14.9,0,35.4,3.1,47.6,17.5
									c8.5,9.9,10.2,24.1,4,35.6c-4.9,9.9-17.1,22.1-46.5,23.7C396.4,916.7,374.3,917.4,352.3,917.4z"/>
								<path class="st7" d="M420,858.6c-45,2.9-90.1,2.9-135.3,0c-11.4-0.7-18.3-4-16-7.5c2.4-3.5,12.5-5.3,22.5-4.6
									c40.7,2.4,81.5,2.4,122.2,0c10-0.7,20,1.3,22.5,4.6C438.2,854.6,431.1,857.9,420,858.6z"/>
								<path class="st1" d="M436.2,852.9c0,2.9-6.5,5.5-16.2,6c-45,2.9-90.1,2.9-135.3,0c-11.4-0.7-18.3-4-16-7.5
									c2.2-2.9,10-4.6,18.7-4.6h3.6c40.7,2.4,81.5,2.4,122.2,0c10-0.7,20,1.3,22.5,4.6C436,851.5,436.2,852.2,436.2,852.9z"/>
								<path class="st8" d="M436.2,852.9c0,2.9-6.5,5.5-16.2,6c-45,2.9-90.1,2.9-135.3,0c-11.4-0.7-18.3-4-16-7.5
									c2.2-2.9,10-4.6,18.7-4.6h3.6c40.7,2.4,81.5,2.4,122.2,0c10-0.7,20,1.3,22.5,4.6C436,851.5,436.2,852.2,436.2,852.9z"/>
								<path class="st9" d="M352.3,597.9v-87.8"/>
								<path class="st0" d="M556.2,599.7c-20.9,0-40.3,10.8-51.2,28.7c-14.9,6.2-31.6-2.7-31.6-2.9c-76.3-36.9-165.6-36.9-242,0
									c0,0.2-16.7,9.3-31.6,2.9c-16.9-28.1-53.6-37.1-81.9-20.3c-28.3,16.8-37.4,53.5-20.5,81.6c16.9,28.1,53.6,37.1,81.9,20.3
									c8.5-5.1,15.6-11.9,20.5-20.3c14.9-6.4,31.6,2.2,31.6,2.2c71,29.6,55.2,180.6,55.2,180.6H418c0,0-16-151.2,55.4-180.9
									c0,0,16.7-8.6,31.6-2.2c16.9,28.1,53.6,37.4,81.9,20.6c28.3-16.8,37.6-53.3,20.7-81.4C596.7,610.8,577.1,599.7,556.2,599.7z
									"/>
								<path class="st10" d="M561.9,625.9c18.4,3.2,30.7,20.6,27.4,38.9c-3.2,18.3-20.8,30.5-39.2,27.3
									c-18.4-3.2-30.7-20.6-27.4-38.9C526,634.9,543.5,622.7,561.9,625.9z"/>
								<path class="st11" d="M568.6,651c0,12-9.8,21.7-21.8,21.7S525,663,525,651c0-12,9.8-21.7,21.8-21.7S568.6,639,568.6,651z"/>
								<path class="st10" d="M411.1,684.2c0,32.2-26.3,58.4-58.8,58.4c-32.5,0-58.8-26.1-58.8-58.4c0-32.2,26.3-58.4,58.8-58.4
									C384.7,625.8,411.1,651.9,411.1,684.2z"/>
								<path class="st11" d="M385.5,659c0,18.2-14.8,32.9-33.2,32.9c-18.3,0-33.2-14.7-33.2-32.9c0-18.2,14.8-32.9,33.2-32.9
									C370.6,626,385.5,640.8,385.5,659z"/>
								<path class="st11" d="M318.9,792.5c22.7-12.4,50.3-12.4,73.2,0c-11.8-3.8-24-5.7-36.5-6
									C343.2,786.7,330.7,788.7,318.9,792.5z"/>
								<path class="st0" d="M363,510.2c0,5.9-4.8,10.6-10.7,10.6c-5.9,0-10.7-4.8-10.7-10.6c0-5.9,4.8-10.6,10.7-10.6
									C358.2,499.5,363,504.3,363,510.2z"/>
								<path class="st1" d="M460.2,856.2h-27.2c-4,1.5-8.5,2.7-12.9,2.9c-45,2.9-90.1,2.9-135.3,0c-4.5,0-8.9-0.9-12.9-2.9h-27.2
									c-8.7,9.9-10.2,24.1-4,35.6c9.3,17.9,30.3,22.6,46.5,23.7c21.6,1.3,43.8,1.8,65.7,1.8s44.1-0.7,65.7-1.8
									c29.2-1.5,41.2-13.7,46.5-23.7C470.3,880,468.5,866.3,460.2,856.2z"/>
								<path class="st12" d="M391.5,567.9c0,3.1-17.5,5.5-39.2,5.5c-21.6,0-39.2-2.5-39.2-5.5s17.5-5.5,39.2-5.5
									C373.9,562.3,391.5,564.8,391.5,567.9z"/>
								<path class="st13" d="M377.9,541.1c0,2.1-11.5,3.8-25.6,3.8c-14.1,0-25.6-1.7-25.6-3.8s11.5-3.8,25.6-3.8
									C366.4,537.4,377.9,539,377.9,541.1z"/>
								<path class="st10" d="M182.5,659c0,18.6-15.1,33.6-33.8,33.6c-18.7,0-33.8-15-33.8-33.6c0-18.6,15.1-33.6,33.8-33.6
									C167.3,625.3,182.5,640.4,182.5,659z"/>
								<path class="st11" d="M179.8,651c0,12-9.8,21.7-21.8,21.7s-21.8-9.7-21.8-21.7c0-12,9.8-21.7,21.8-21.7S179.8,639,179.8,651
									z"/>
								<path class="st0" d="M266.8,1236.2c-13.4-19-42.7-25.2-65.2-13.9c-25.8,12.6-47.2,32.7-61,57.7
									c-20,38.7-18.7,85.1,3.3,122.7c6.2,10.6,14.5,20.6,17.6,32.3c3.1,11.7-0.9,26.3-12.9,31.4c-13.1,5.3-29.4-3.1-42.3,2.9
									c-14,6.6-13.1,27.6-1.8,37.6c11.6,10,28.7,11.5,44.3,10.6c22-1.1,45.6-8.2,57.2-25.4c9.1-13.9,8.2-31.6,4-47.5
									c-4.2-15.9-11.6-31-14.9-46.9c-5.6-29,2.9-58.8,22.5-80.9c8.7-9.7,19.1-17.7,30.7-23.7c0.7-0.2,0.9-0.7,1.6-0.9
									C273.3,1280.2,280.8,1255,266.8,1236.2z"/>
								<path class="st0" d="M437.8,1236.2c13.4-19,42.7-25.2,65.2-13.9c25.8,12.6,47.2,32.7,61,57.7c20,38.7,18.7,85.1-3.3,122.7
									c-6.2,10.6-14.5,20.6-17.6,32.3c-3.1,11.7,0.9,26.3,12.9,31.4c13.1,5.3,29.4-3.1,42.3,2.9c14,6.6,13.1,27.6,2,37.6
									c-11.1,10-28.7,11.5-44.3,10.6c-21.8-1.1-45.6-8.2-57.2-25.4c-9.1-13.9-8.2-31.6-4-47.5c4.2-15.9,11.6-31,14.9-46.9
									c5.6-29-2.9-58.8-22.5-80.9c-8.7-9.5-19.1-17.7-30.7-23.7c-0.7-0.2-0.9-0.7-1.6-0.9C431.5,1280.2,424,1255,437.8,1236.2z"/>
							</g>
						</g>
					</g>
				</g>
			</g>
		</g>
	</g>
</g>
</svg>
