<?xml version="1.0" encoding="utf-8"?>
<!-- Generator: Adobe Illustrator 25.2.0, SVG Export Plug-In . SVG Version: 6.00 Build 0)  -->
<svg version="1.1" id="Layer_1" xmlns="http://www.w3.org/2000/svg" xmlns:xlink="http://www.w3.org/1999/xlink" x="0px" y="0px"
	 viewBox="0 0 272 382" style="enable-background:new 0 0 272 382;" xml:space="preserve">
<style type="text/css">
	.st0{fill:#16254F;}
	.st1{fill:#1E3484;}
	.st2{fill:none;stroke:#16254F;stroke-miterlimit:10;}
	.st3{fill:none;stroke:#D552C0;stroke-width:7;stroke-linecap:round;stroke-miterlimit:10;}
	.st4{fill:#2A3D9B;}
	.st5{fill:#438BFF;}
	.st6{fill:#D552C0;}
	.st7{fill:#BCFC30;}
	.st8{fill:#F8FFE1;}
	.st9{fill:#A8E00E;}
	.st10{clip-path:url(#SVGID_2_);}
	.st11{fill:#FFFFFF;}
	.st12{fill:#A114A5;}
	.st13{fill:#470B35;}
	.st14{clip-path:url(#SVGID_4_);}
	.st15{fill:#74B221;}
	.st16{fill:#B23BA4;}
</style>
<path id="l-arm" class="st0" d="M86,213.3l-29.2,4.9c0,0-10.7-0.3-12.7-11.5c-1.6-8.8,2.3-16,7.7-19.5c5.3-3.4,16.1-10.3,24.4-17.5
	c12.2-10.6,24.9-12.4,24.9-12.4s16.9,7.4,10,30.6C107.6,200.1,98.1,209.7,86,213.3z"/>
<g id="l-thigh">
	<path class="st1" d="M131.7,250.1c0,0-18.9-10-51.6,12.8s-21.9,53.9-5.1,64.2c1.4,0.8,9.8,0.2,11.4-0.1c6.3-1.4,16.1-3.1,29.4-5.4
		C143.6,316.8,144.8,245.1,131.7,250.1z"/>
	<path class="st2" d="M96.1,255.6c0,0,13.9-3.5,24.9,9.6c0,0-19.3,7.8-30.7,18.6c0,0-5.9-8.5-23.3-6.5
		C74.9,267.9,84.8,260.4,96.1,255.6z"/>
</g>
<g id="l-calf">
	<path class="st1" d="M59.2,301.6c0,0,8.5,34.1,9.1,51.1c0,0-0.4-5.8,11.8-2c8.9,2.8,12.7,8.3,12.7,8.3s15-11.8,19.4-49.1
		c2.3-19.7-15.2-23.1-30.6-20.7C67.9,291.4,59.2,301.6,59.2,301.6z"/>
	<path class="st0" d="M87.5,352.2l-13.7-0.6c-3.3-0.1-4.4,2.4-8.8,3c-5.6-1.5-12.3-0.9-13.7,3.2c-4,11.1,10.3,10,18.4,10.7
		s10.3,0.4,19.6,0.6c0,0,1.9-3.5,1-10.1C89.9,357.1,87.5,352.2,87.5,352.2z"/>
	<path class="st3" d="M67.7,350c3.8-1.6,7.9-1.9,11.9-1c11.6,2.9,13.3,10.1,13.3,10.1"/>
</g>
<g id="torso">
	<ellipse transform="matrix(0.9837 -0.18 0.18 0.9837 -32.5992 21.3495)" class="st0" cx="101.3" cy="190.3" rx="16.9" ry="32.7"/>
	<path class="st4" d="M199.8,331.5c0,0-18.7,11-52.2-3.1c-13-5.5-21.3-7.7-26.5-12.4c-12.8-11.7-7.5-15.4-32.9-58.2
		c0.8-5.5,1.2-11.1,1.2-16.7c0-66.6,3.7-82.2,3.7-82.2l19-8.7l80.4,2.6l30.4,14.1c0,0-11.8,57.4-14.2,76.8
		C235.4,314.2,199.8,331.5,199.8,331.5z"/>
	<path class="st2" d="M128.1,174.7c-6.9,60.1-8.2,104,19.5,153.7"/>
	<path class="st5" d="M208.9,255.5c0,0-22,3.5-61.9,1.8s-60.3-9.5-60.3-9.5l1-9.8c0,0,20,7.4,59.3,9.1s63.7-3.9,63.7-3.9
		L208.9,255.5z"/>
	<circle class="st6" cx="126.3" cy="251.6" r="13.6"/>
	
		<ellipse transform="matrix(0.2514 -0.9679 0.9679 0.2514 -32.3872 352.6874)" class="st0" cx="211.8" cy="197.3" rx="32.7" ry="16.9"/>
</g>
<path id="l-forearm" class="st0" d="M55.4,186.1c0,0-12.4,3.2-23.1,16.3c-6.6,8-9,13.6-9,13.6c1.7,0.9,3.1,2.1,4.4,3.5
	c1.6,1.7,2.7,4,3,6.3c0,0,12.3-0.2,33.6-8.8S66.8,180.8,55.4,186.1z"/>
<g id="l-hand">
	<path class="st7" d="M26.9,217.2c-4.3-1.5-8.3-3.5-12.1-5.9c-5.5-3.8-11.5-3-9.6,1s4.3,2.9,6.9,5.3s-5.2,0.6-6.9,5.6
		c-1.7,4.9-0.1,10,6.6,8.8s6.8-6.2,10.1-3.8s-4.8,7.9-0.5,10.4s7.9,6.1,9.3-15.4L26.9,217.2z"/>
	<path class="st3" d="M23.2,213c0,0,2.3,3.3,4.5,6.4c1.7,2.4,3.2,4.9,4.5,7.5"/>
</g>
<path id="r-arm" class="st0" d="M223.2,223.9l27.5,10.8c0,0,10.6,1.9,14.8-8.6c3.4-8.3,1.1-16.1-3.5-20.6
	c-4.5-4.4-13.6-13.4-20.2-22.2c-9.7-12.9-21.8-17.2-21.8-17.2s-18.1,3.7-16.1,27.9C204.7,206.5,212,217.8,223.2,223.9z"/>
<path id="r-forearm" class="st0" d="M261.6,231.4c0,0-8.7,9.4-25.3,12.7c-10.2,2-16.2,1.5-16.2,1.5c0-1.9-0.3-3.7-1-5.5
	c-0.7-2.3-2.2-4.3-4.2-5.7c0,0,6-10.8,23.6-25.4S271.7,223.9,261.6,231.4z"/>
<g id="r-hand">
	<path class="st7" d="M220.7,241.9c-0.7,4.4-0.9,9-0.5,13.4c0.8,6.6-2.8,11.6-5.4,8s-0.5-5.2-1.4-8.6s-3,4.3-8.2,3.5
		s-8.8-4.6-4.7-10s8.7-3.1,8.1-7.1s-9.2,0.5-9.4-4.5s-1.6-9.8,18-1L220.7,241.9z"/>
	<path class="st3" d="M222.6,247.1c0,0-1.9-3.6-3.5-7c-1.3-2.6-2.8-5.1-4.5-7.5"/>
</g>
<g id="r-calf">
	<path class="st4" d="M129.8,309.8c0,0,8.5,34.1,9.1,51.1c0,0-0.4-5.8,11.8-2c8.9,2.8,12.7,8.3,12.7,8.3s15-11.8,19.4-49.1
		c2.3-19.7-15.2-23.1-30.6-20.7C138.4,299.5,129.8,309.8,129.8,309.8z"/>
	<g id="foot">
		<path class="st0" d="M158,360.4l-13.7-0.6c-3.4-0.1-4.4,2.4-8.8,3c-5.6-1.5-12.3-0.9-13.7,3.2c-4,11.1,10.4,10,18.4,10.7
			s10.3,0.4,19.6,0.6c0,0,1.9-3.5,1-10.1C160.5,365.3,158,360.4,158,360.4z"/>
		<path class="st3" d="M138.3,358.1c3.8-1.5,7.9-1.9,11.9-0.9c11.6,2.9,13.3,10.1,13.3,10.1"/>
	</g>
</g>
<g id="r-thigh">
	<path class="st4" d="M202.2,258.3c0,0-27.9-5.6-51.6,12.8c-31.4,24.5-21.9,53.9-5.1,64.2c1.4,0.8,9.8,0.2,11.4-0.1
		c6.3-1.4,16.1-3.1,29.4-5.4C214.1,325,215.3,253.2,202.2,258.3z"/>
	<path class="st2" d="M172.3,263.8c10.1-0.6,19.9,3.6,26.4,11.4c0,0-17.5,7.3-28.8,18.1c0,0-14.9-9.9-32.2-7.8
		C147.3,275.7,159.2,268.2,172.3,263.8z"/>
</g>
<g id="head">
	<path class="st7" d="M243.3,62.4l-4,29c-1.2,8.5-7.6,15.2-16,16.8c-11.1,2.1-18.6,7.7-21.9,19.1c-5.2,17.6-8.6,35.3-8.6,35.3
		s-15.2,16-46.2,16s-39.3-9.5-39.3-9.5l-8.4-39.6c-1.4-5.5-12.7-15.7-17.4-19.3c-6.7-5.2-13.8-10.3-15-18.8l-4-28.9
		c-1.2-8.9,2-17.9,8.7-23.9c8.1-7.3,17.1-13.6,26.8-18.6c12.2-6.2,43.6-11.9,54.1-12.4c3.1-0.2,13.5-0.8,18.8,3.8
		c6.3,5.4-2.6,11.5-6.2,13.5c-11.3,6.3-46.3,15.5-45.9,33l14.3,7.2l51.9-7.2l0,0c7.8-21.7,11.8-26.7,0.5-33
		c-3.6-2-12.5-8.1-6.2-13.5C184.5,6.7,195,8,198,8.5c10.3,1.8,19.4,7,29.6,16.2C237.1,33.4,244.6,53.4,243.3,62.4z"/>
	<path class="st8" d="M100.6,43c0,3.5-5,6.3-11.2,6.3S78.1,46.5,78.1,43s5-14.9,11.2-14.9S100.6,39.5,100.6,43z"/>
	<path class="st8" d="M127.3,24c0,2.2-3.2,4.1-7.3,4.1s-7.3-1.8-7.3-4.1s3.3-9.7,7.3-9.7S127.3,21.7,127.3,24z"/>
	<path class="st8" d="M161.6,14.4c0,2.3-3.3,4.1-7.3,4.1s-7.3-1.8-7.3-4.1s3.2-9.7,7.3-9.7S161.6,12.1,161.6,14.4z"/>
	<path class="st8" d="M209.9,43c0,3.5,5,6.3,11.2,6.3s11.2-2.8,11.2-6.3s-5-14.9-11.2-14.9S209.9,39.5,209.9,43z"/>
	<path class="st8" d="M202.6,24c0,2.2,3.2,4.1,7.3,4.1s7.3-1.8,7.3-4.1s-3.3-9.7-7.3-9.7S202.6,21.7,202.6,24z"/>
	<path class="st8" d="M184.2,14.4c0,2.3,3.2,4.1,7.3,4.1s7.3-1.8,7.3-4.1s-3.3-9.7-7.3-9.7S184.2,12.1,184.2,14.4z"/>
	<path class="st9" d="M122,59.3c0,0-6.3-3.2-12.3-5.6c0,0,9-24.5,54.9-29C153.2,31.1,121.5,41.8,122,59.3z"/>
	<path class="st9" d="M196.1,53.7c-2.5,2.3-10.6,3.9-11.1,4c7.8-21.7,11.8-26.7,0.5-33C209.4,31.4,196.1,53.7,196.1,53.7z"/>
	<g>
		<defs>
			<path id="SVGID_1_" d="M83.4,82.2c0,0,15.1-8.8,24.1,4.4c5.3,7.7,6.7,17.5,3.7,26.3c0,0-14.9,4.5-25.7-9.9
				C78.3,93.4,83.4,82.2,83.4,82.2z"/>
		</defs>
		<clipPath id="SVGID_2_">
			<use xlink:href="#SVGID_1_"  style="overflow:visible;"/>
		</clipPath>
		<g class="st10">
			
				<rect x="79.2" y="77.6" transform="matrix(0.1547 -0.988 0.988 0.1547 -12.6536 177.4702)" class="st11" width="36.5" height="37.1"/>
			<circle class="st12" cx="104.7" cy="94.3" r="13.4"/>
			<circle cx="104.7" cy="94.3" r="6.1"/>
			<path class="st13" d="M113.6,112.7c0,0,1.1-19.1-7.6-26.5c-8.6-7.3-16.4-3.7-23.2-2C75.6,86,95.1,72.3,95.1,72.3l25.5,12.9
				L113.6,112.7z"/>
		</g>
	</g>
	<g>
		<defs>
			<path id="SVGID_3_" d="M185.6,88.6c0,0-13.5-11.1-24.5,0.7c-6.4,6.8-9.3,16.2-7.7,25.4c0,0,14,6.8,26.9-5.8
				C188.8,100.4,185.6,88.6,185.6,88.6z"/>
		</defs>
		<clipPath id="SVGID_4_">
			<use xlink:href="#SVGID_3_"  style="overflow:visible;"/>
		</clipPath>
		<g class="st14">
			<rect x="151" y="81.9" class="st11" width="37.1" height="36.5"/>
			<circle class="st12" cx="174.1" cy="97.2" r="13.4"/>
			<circle cx="174.1" cy="97.2" r="6.1"/>
			<path class="st13" d="M151,114c0,0,1.9-19,11.6-25c9.6-5.9,16.8-1.2,23.3,1.6c6.7,2.8-10.4-13.7-10.4-13.7l-27.2,8.8L151,114z"/>
		</g>
	</g>
	<path class="st13" d="M183.8,89.8c0.1,0.2,0.3,0.3,0.4,0.5l0,0h-0.1L184,90L183.8,89.8l-0.7-0.5c-0.4-0.3-0.9-0.6-1.3-0.9
		c-0.9-0.5-1.8-1-2.8-1.5c-1.9-0.9-3.9-1.4-6-1.5c-2.1-0.1-4.1,0.2-6,1c-1.9,0.9-3.7,2.1-5.2,3.6c-3.1,3.1-5.5,7-7,11.2
		c-0.7,2.1-1.2,4.3-1.4,6.5c-0.3,2.2-0.2,4.5,0.1,6.7l0,0l-0.1-0.1c8,3,16.9,1.4,23.4-4.2c0.8-0.6,1.5-1.4,2.2-2.1
		c0.4-0.3,0.7-0.7,1-1.1c0.3-0.4,0.6-0.8,0.9-1.2c1.1-1.6,2-3.4,2.5-5.3c0.5-1.9,0.8-3.8,0.8-5.8c0-1-0.1-2-0.2-2.9
		c-0.1-0.5-0.1-1-0.2-1.4c-0.1-0.2-0.1-0.5-0.2-0.7l-0.1-0.3v-0.2l0,0c0,0,0,0.1,0.1,0.2C183.6,89.5,183.7,89.6,183.8,89.8z
		 M187.3,87.4c0.1,0.2,0.2,0.4,0.2,0.6c0,0.1,0.1,0.2,0.1,0.2v0.1v0.2l0.1,0.4c0,0.3,0.1,0.6,0.1,0.9c0.1,0.6,0.1,1.2,0.1,1.7
		c0.1,1.1,0.1,2.3,0,3.4c-0.2,2.3-0.7,4.6-1.5,6.7c-0.8,2.2-2,4.2-3.4,5.9c-0.4,0.4-0.7,0.9-1.1,1.3c-0.4,0.4-0.8,0.8-1.2,1.2
		c-0.9,0.7-1.7,1.4-2.6,2.1c-3.6,2.6-7.8,4.2-12.2,4.7c-4.3,0.4-8.7-0.3-12.7-2.1h-0.1v-0.1l0,0c-0.5-2.2-0.7-4.5-0.6-6.9
		c0.1-2.3,0.4-4.6,1-6.9c1.2-4.5,3.4-8.8,6.5-12.3c1.6-1.9,3.5-3.4,5.6-4.6c1.1-0.6,2.3-1,3.5-1.3c1.2-0.3,2.5-0.5,3.7-0.5
		c2.5,0,5,0.4,7.3,1.3c1.2,0.4,2.3,0.9,3.4,1.5c0.5,0.3,1.1,0.6,1.6,0.9l0.8,0.5l0.4,0.3l0.2,0.1l0.1,0.1h0.1
		C187,87,187.2,87.2,187.3,87.4L187.3,87.4z"/>
	<path class="st13" d="M81.8,80.8c0.2-0.2,0.4-0.3,0.6-0.4h0.1l0.1-0.1l0.2-0.1l0.4-0.2l0.8-0.4c0.6-0.2,1.2-0.4,1.7-0.6
		c1.2-0.4,2.4-0.7,3.6-0.9c2.4-0.5,5-0.5,7.4-0.1c2.5,0.4,4.8,1.4,6.9,2.9c2,1.5,3.6,3.3,4.9,5.4c2.5,4,4,8.5,4.5,13.2
		c0.3,2.3,0.2,4.6-0.1,6.9c-0.3,2.3-0.8,4.5-1.7,6.7l0,0v0.1h-0.1c-4.2,1.2-8.6,1.2-12.8,0.1c-4.3-1.2-8.2-3.4-11.3-6.6
		c-0.8-0.8-1.5-1.6-2.2-2.4c-0.4-0.4-0.7-0.9-1-1.3c-0.4-0.4-0.7-0.9-1-1.4c-1.2-2-2-4.1-2.5-6.4c-0.5-2.3-0.6-4.6-0.4-6.9
		c0.1-1.1,0.2-2.3,0.5-3.4c0.1-0.6,0.2-1.1,0.4-1.7c0.1-0.3,0.2-0.6,0.2-0.8l0.2-0.4l0.1-0.2v-0.1c0-0.1,0.1-0.2,0.1-0.2
		C81.6,81.1,81.7,81,81.8,80.8z M85,83.7c0.1-0.1,0.2-0.2,0.3-0.3c0,0,0.1-0.2,0.1-0.1l0,0l-0.1,0.2l-0.1,0.3
		c-0.1,0.2-0.2,0.4-0.3,0.7c-0.2,0.4-0.3,0.9-0.5,1.4c-0.3,0.9-0.5,1.9-0.6,2.9c-0.3,1.9-0.4,3.9-0.1,5.9c0.2,2,0.8,3.8,1.7,5.6
		c0.2,0.5,0.4,0.9,0.7,1.3c0.2,0.4,0.5,0.9,0.8,1.3c0.6,0.8,1.2,1.7,1.9,2.4c2.7,3.1,6.1,5.5,10,6.9c4,1.4,8.3,1.7,12.4,0.9
		l-0.1,0.1l0,0c0.7-2.2,1-4.4,1.1-6.6c0.1-2.2,0-4.5-0.4-6.7c-0.8-4.4-2.6-8.5-5.2-12.1c-1.2-1.7-2.8-3.2-4.5-4.4
		c-1.7-1.1-3.7-1.8-5.8-1.9c-2.1-0.2-4.1,0-6.1,0.6c-1,0.3-2,0.6-3,1c-0.5,0.2-1,0.4-1.4,0.7L85,83.7l-0.3,0.2L84.6,84h-0.1l0,0
		C84.7,83.9,84.8,83.8,85,83.7z"/>
	<path class="st13" d="M72.8,78.2c2.4-3.8,6-6.8,10.1-8.5C90,66.6,95.1,68,95.1,68s-3.9-6-11.1-4.8S73.6,73.2,72.8,78.2z"/>
	<path class="st13" d="M194.8,80.4c-3-3.4-6.9-5.8-11.2-6.9c-7.5-2-12.4,0.2-12.4,0.2s2.9-6.6,10.3-6.4S193.3,75.5,194.8,80.4z"/>
	<path class="st15" d="M112.7,133.1c0,0,15.1,10.8,49.9,3.6c0,0-16.3,7.2-29.9,5.9C120.6,141.6,115.8,136.7,112.7,133.1z"/>
</g>
<g id="scarf">
	<path class="st6" d="M197.3,162.1c-15.1,22.5-44,52.3-70.1,52.3s-27.4-32.6-27.4-56.5c0-5.4,0.1-10.5,2-15.2
		c3.6,15.8,2.7,31.2,23.4,31.2c24.8,0,58.6-16.8,71.6-29.8C198.4,148.5,200,158.1,197.3,162.1z"/>
	<path class="st16" d="M101.4,144.5c0,0-4.8,43.9,30.5,43.9c38.2,0,65-44.3,65-44.3s-22.9,55.2-65.2,55.2
		C92.5,199.3,101.4,144.5,101.4,144.5z"/>
</g>
</svg>
