<?xml version="1.0" encoding="utf-8"?>
<!-- Generator: Adobe Illustrator 25.2.0, SVG Export Plug-In . SVG Version: 6.00 Build 0)  -->
<svg version="1.1" id="Layer_1" xmlns="http://www.w3.org/2000/svg" xmlns:xlink="http://www.w3.org/1999/xlink" x="0px" y="0px"
	 viewBox="0 0 237 392.8" style="enable-background:new 0 0 237 392.8;" xml:space="preserve">
<style type="text/css">
	.st0{fill:#16254F;}
	.st1{fill:#1E3484;}
	.st2{fill:none;stroke:#D552C0;stroke-width:7;stroke-linecap:round;stroke-miterlimit:10;}
	.st3{fill:none;stroke:#16254F;stroke-miterlimit:10;}
	.st4{fill:#BCFC30;}
	.st5{fill:#2A3D9B;}
	.st6{fill:#438BFF;}
	.st7{fill:#D552C0;}
	.st8{fill:#F8FFE1;}
	.st9{fill:#A8E00E;}
	.st10{clip-path:url(#SVGID_2_);}
	.st11{fill:#FFFFFF;}
	.st12{fill:#A114A5;}
	.st13{fill:#470B35;}
	.st14{clip-path:url(#SVGID_4_);}
	.st15{fill:#74B221;}
	.st16{fill:#B23BA4;}
</style>
<g id="l-calf">
	<path class="st0" d="M86.5,368.3l-13.7,0.3c-3.4,0.1-8.6,3.5-13,4.4c-7.6-1.2-17.7-6.1-19.5-2.2c-3.2,7,0.8,15.9,18.9,14.8
		s20.8-0.2,30.1-0.7c0,0,1.7-3.6,0.3-10.1C89.3,373.1,86.5,368.3,86.5,368.3z"/>
	<path class="st1" d="M44.9,328.7c0,0,19.8,24.7,21.4,38.7c0,0,4.9,0,14.4,0c2.7,0,8.5,8.2,8.5,8.2s15.5-18.9,10-56
		c-2.9-19.6-17.8-16-31.3-8.2C59.7,316.4,52,322.2,44.9,328.7z"/>
	<path class="st2" d="M66.3,367.4c3.2-0.5,6.4-0.7,9.7-0.8c7.8,0.3,15.3,5.8,15.3,5.8"/>
</g>
<g id="l-thigh">
	<path class="st1" d="M54.4,235.2c0,0-15.3,24.1-16.6,64s29.8,49.9,48.2,42.7c1.5-0.6,6.1-7.7,6.8-9.2c2.7-5.9,7.2-14.7,13.3-26.7
		C118.9,280.8,58.2,221.7,54.4,235.2z"/>
	<path class="st3" d="M47.4,253.9c0,0,9-1,18.8,5.5c0,0-18.1,29.3-19.3,60.5c-2.7-2.2-5-4.8-6.8-7.8C40,312.1,34.6,290.2,47.4,253.9
		z"/>
</g>
<path id="l-arm" class="st0" d="M73.2,211.8l-21,20.8c0,0-9,5.9-17-2c-6.4-6.3-7.4-14.4-4.9-20.3c2.4-5.8,7.2-17.7,9.8-28.4
	c3.8-15.7,13.2-24.5,13.2-24.5s18.1-3.7,25.9,19.2C83.3,188.6,81.1,201.8,73.2,211.8z"/>
<path id="l-forearm" class="st0" d="M32.6,207.1c0,0-8.3,9.8-9.5,26.6c-0.8,10.4,0.5,16.3,0.5,16.3c1.9-0.2,3.7-0.1,5.6,0.3
	c2.4,0.5,4.5,1.6,6.1,3.4c0,0,10-7.2,22.3-26.5S38.8,196.2,32.6,207.1z"/>
<g id="l-hand">
	<path class="st4" d="M27.2,249c-4.3,1.3-8.7,2-13.2,2.1c-6.7,0.1-11.1,4.2-7.2,6.3s5.2-0.1,8.7,0.4s-3.9,3.5-2.5,8.5
		s5.6,8.2,10.5,3.4s2-9,6-8.9s0.6,9.2,5.6,8.8s9.9,0.4-1.3-18L27.2,249z"/>
	<path class="st2" d="M21.8,247.8c0,0,3.8,1.4,7.4,2.6c2.7,1,5.4,2.2,8,3.5"/>
</g>
<g id="torso">
	<ellipse transform="matrix(0.9837 -0.18 0.18 0.9837 -32.3475 14.6944)" class="st0" cx="64.8" cy="185.6" rx="16.9" ry="32.7"/>
	<path class="st5" d="M163.2,326.8c-12.8,7.8-33,1.4-55.3-3.1c-10.4-2.1-20.9-10.4-28.4-18.6c-10.3-11.4-18.7-20.5-24.4-49.2
		c-1.2-6.5-2-13-2.3-19.6c-3.3-66.6,3.7-82.2,3.7-82.2l19-8.7l80.4,2.7l30.4,14.1c0,0-11.8,57.4-14.2,76.8
		C188.5,286.8,184.7,313.7,163.2,326.8z"/>
	<path class="st3" d="M91.6,170c-6.9,60.1-8.2,104,19.5,153.7"/>
	<path class="st6" d="M175.2,246.9c0,0-24.9,7.4-64.8,5.8s-60.3-9.5-60.3-9.5l1-9.8c0,0,20,7.4,59.3,9.1s62.7-6.1,62.7-6.1
		L175.2,246.9z"/>
	<circle class="st7" cx="89.8" cy="246.9" r="13.6"/>
	
		<ellipse transform="matrix(0.2496 -0.9684 0.9684 0.2496 -54.0863 313.8265)" class="st0" cx="175.4" cy="191.8" rx="32.7" ry="16.9"/>
</g>
<g id="head">
	<path class="st4" d="M206.8,57.7l-4,29c-1.2,8.5-7.6,15.2-16,16.8c-11.1,2.1-18.6,7.7-21.9,19.1c-5.2,17.6-8.6,35.3-8.6,35.3
		s-15.2,16-46.2,16s-39.3-9.5-39.3-9.5l-8.4-39.6C61,119.3,49.6,109,45,105.4c-6.7-5.2-13.8-10.3-15-18.8l-4-28.9
		c-1.3-8.9,2-17.8,8.6-23.9c8.1-7.3,17.1-13.6,26.8-18.6c12.3-6.2,43.7-11.9,54.1-12.4c3.1-0.2,13.5-0.8,18.8,3.8
		c6.3,5.4-2.6,11.5-6.2,13.5c-11.3,6.3-46.3,15.5-45.9,33l14.3,7.2l51.9-7.2l0,0c7.8-21.7,11.8-26.7,0.5-33
		c-3.6-2-12.5-8.1-6.2-13.5c5.3-4.5,15.7-3.3,18.8-2.7c10.3,1.8,19.4,7,29.6,16.2C200.6,28.6,208,48.7,206.8,57.7z"/>
	<path class="st8" d="M64,38.3c0,3.5-5,6.3-11.2,6.3s-11.2-2.8-11.2-6.3s5-14.9,11.2-14.9S64,34.8,64,38.3z"/>
	<path class="st8" d="M90.7,19.3c0,2.2-3.2,4.1-7.3,4.1s-7.3-1.8-7.3-4.1s3.3-9.7,7.3-9.7S90.7,17,90.7,19.3z"/>
	<path class="st8" d="M125,9.7c0,2.3-3.2,4.1-7.3,4.1s-7.3-1.8-7.3-4.1s3.3-9.7,7.3-9.7S125,7.4,125,9.7z"/>
	<path class="st8" d="M173.3,38.3c0,3.5,5,6.3,11.2,6.3s11.2-2.8,11.2-6.3s-5-14.9-11.2-14.9S173.3,34.8,173.3,38.3z"/>
	<path class="st8" d="M166.1,19.3c0,2.2,3.2,4.1,7.3,4.1s7.3-1.8,7.3-4.1s-3.3-9.7-7.3-9.7S166.1,17,166.1,19.3z"/>
	<path class="st8" d="M147.6,9.7c0,2.3,3.2,4.1,7.3,4.1s7.3-1.8,7.3-4.1S158.9,0,154.9,0S147.6,7.4,147.6,9.7z"/>
	<path class="st9" d="M85.4,54.6c0,0-6.3-3.2-12.3-5.6c0,0,9-24.5,54.9-29C116.7,26.3,85,37.1,85.4,54.6z"/>
	<path class="st9" d="M159.6,49c-2.5,2.3-10.6,3.9-11.1,4c7.8-21.7,11.8-26.7,0.5-33C172.8,26.7,159.6,49,159.6,49z"/>
	<g>
		<defs>
			<path id="SVGID_1_" d="M46.8,77.5c0,0,15.1-8.8,24.1,4.4c5.3,7.7,6.7,17.4,3.7,26.3c0,0-14.9,4.6-25.6-9.9
				C41.8,88.7,46.8,77.5,46.8,77.5z"/>
		</defs>
		<clipPath id="SVGID_2_">
			<use xlink:href="#SVGID_1_"  style="overflow:visible;"/>
		</clipPath>
		<g class="st10">
			
				<rect x="42.6" y="72.9" transform="matrix(0.1547 -0.988 0.988 0.1547 -38.8896 137.3607)" class="st11" width="36.5" height="37.1"/>
			<circle class="st12" cx="68.1" cy="89.6" r="13.3"/>
			<circle cx="68.1" cy="89.6" r="6.1"/>
			<path class="st13" d="M77,108c0,0,1.1-19.1-7.6-26.5c-8.6-7.3-16.4-3.7-23.2-2c-7.1,1.8,12.4-11.9,12.4-11.9L84,80.5L77,108z"/>
		</g>
	</g>
	<g>
		<defs>
			<path id="SVGID_3_" d="M149,83.9c0,0-13.5-11.1-24.5,0.7c-6.4,6.8-9.3,16.2-7.7,25.4c0,0,14,6.8,26.9-5.8
				C152.3,95.7,149,83.9,149,83.9z"/>
		</defs>
		<clipPath id="SVGID_4_">
			<use xlink:href="#SVGID_3_"  style="overflow:visible;"/>
		</clipPath>
		<g class="st14">
			<rect x="114.5" y="77.2" class="st11" width="37.1" height="36.5"/>
			<circle class="st12" cx="137.6" cy="92.5" r="13.4"/>
			<circle cx="137.6" cy="92.5" r="6.1"/>
			<path class="st13" d="M114.5,109.3c0,0,1.9-19,11.6-25c9.6-5.9,16.8-1.2,23.3,1.6c6.7,2.8-10.4-13.7-10.4-13.7L111.8,81
				L114.5,109.3z"/>
		</g>
	</g>
	<path class="st13" d="M147.2,85c0.1,0.2,0.3,0.3,0.4,0.5l0,0l-0.1-0.1l-0.1-0.1L147.2,85l-0.7-0.4c-0.4-0.3-0.9-0.6-1.3-0.9
		c-0.9-0.5-1.8-1-2.8-1.5c-1.9-0.9-3.9-1.4-6-1.5c-2.1-0.1-4.1,0.2-6,1c-1.9,0.9-3.7,2.1-5.2,3.6c-3.1,3.1-5.5,7-7,11.2
		c-0.7,2.1-1.2,4.3-1.4,6.5c-0.3,2.2-0.2,4.5,0.1,6.8l0,0l-0.1-0.1c4,1.4,8.2,1.8,12.4,1.1c4.1-0.8,7.8-2.6,11-5.3
		c0.8-0.6,1.5-1.4,2.2-2.1c0.4-0.3,0.7-0.7,1-1.1c0.3-0.4,0.6-0.8,0.9-1.2c1.1-1.6,2-3.4,2.5-5.3c0.5-1.9,0.8-3.8,0.8-5.8
		c0-1-0.1-2-0.2-2.9c-0.1-0.5-0.1-1-0.2-1.4c0-0.2-0.1-0.5-0.2-0.7l-0.1-0.3l-0.1-0.2l0,0c0,0,0,0.1,0,0.2
		C147,84.8,147.1,84.9,147.2,85z M150.8,82.7c0.1,0.2,0.2,0.4,0.2,0.6c0,0.1,0.1,0.2,0.1,0.2v0.1v0.2l0.1,0.4
		c0.1,0.3,0.1,0.6,0.1,0.9c0.1,0.6,0.1,1.2,0.1,1.7c0.1,1.1,0,2.3-0.1,3.4c-0.2,2.3-0.6,4.6-1.4,6.7c-0.8,2.2-2,4.2-3.4,5.9
		c-0.4,0.4-0.7,0.9-1.1,1.3c-0.4,0.4-0.8,0.8-1.2,1.2c-0.9,0.7-1.7,1.4-2.6,2.1c-3.6,2.6-7.8,4.2-12.2,4.7
		c-4.3,0.4-8.7-0.3-12.7-2.1h-0.1V110l0,0c-0.5-2.3-0.7-4.6-0.6-6.9c0.1-2.3,0.4-4.6,1-6.9c1.2-4.5,3.4-8.8,6.5-12.3
		c1.6-1.9,3.5-3.4,5.6-4.6c1.1-0.6,2.3-1,3.5-1.3c1.2-0.3,2.5-0.5,3.7-0.5c2.5,0,5,0.4,7.3,1.3c1.2,0.4,2.3,0.9,3.4,1.5
		c0.5,0.3,1.1,0.6,1.6,0.9l0.8,0.5l0.4,0.3l0.2,0.1l0.1,0.1l0,0C150.4,82.3,150.6,82.5,150.8,82.7z"/>
	<path class="st13" d="M45.2,76.1c0.2-0.2,0.4-0.3,0.6-0.5h0.1l0.1-0.1l0.2-0.1l0.4-0.2l0.9-0.4c0.6-0.2,1.2-0.4,1.7-0.6
		c1.2-0.4,2.4-0.7,3.6-0.9c2.4-0.5,5-0.5,7.4-0.1c1.2,0.2,2.4,0.5,3.6,1c1.1,0.5,2.2,1.1,3.3,1.8c2,1.5,3.6,3.3,4.9,5.4
		c2.5,4,4,8.5,4.5,13.2c0.3,2.3,0.2,4.6-0.1,6.9c-0.3,2.3-0.8,4.5-1.7,6.7l0,0v0.1h-0.1c-4.2,1.2-8.6,1.2-12.8,0.1
		c-4.3-1.2-8.2-3.4-11.3-6.6c-0.8-0.8-1.5-1.6-2.2-2.4c-0.4-0.4-0.7-0.9-1-1.3c-0.4-0.5-0.7-0.9-1-1.4c-1.2-2-2-4.1-2.5-6.4
		c-0.5-2.3-0.6-4.6-0.4-6.9c0.1-1.1,0.2-2.3,0.5-3.4c0.1-0.6,0.2-1.1,0.4-1.7c0.1-0.3,0.2-0.6,0.2-0.8l0.2-0.4l0.1-0.2v-0.1
		c0-0.1,0.1-0.2,0.1-0.2C45,76.4,45.1,76.3,45.2,76.1z M48.4,79c0.1-0.1,0.2-0.2,0.3-0.3c0,0,0.1-0.2,0.1-0.1l0,0l-0.1,0.2L48.6,79
		c-0.1,0.2-0.2,0.4-0.3,0.7c-0.2,0.4-0.3,0.9-0.5,1.4c-0.3,0.9-0.5,1.9-0.6,2.9c-0.3,1.9-0.4,3.9-0.1,5.9c0.2,2,0.8,3.9,1.7,5.6
		c0.2,0.4,0.4,0.9,0.7,1.3c0.2,0.4,0.5,0.9,0.8,1.3c0.6,0.8,1.2,1.7,1.9,2.4c2.7,3.1,6.1,5.5,10,6.9c4,1.4,8.3,1.7,12.4,0.9
		l-0.1,0.1l0,0c0.7-2.2,1.1-4.4,1.2-6.6c0.1-2.2,0-4.5-0.4-6.7c-0.8-4.3-2.6-8.4-5.2-12c-1.2-1.7-2.8-3.2-4.5-4.4
		c-1.7-1.1-3.7-1.8-5.8-1.9c-2.1-0.2-4.1,0-6.1,0.6c-1,0.3-2,0.6-3,1c-0.5,0.2-1,0.4-1.4,0.7L48.4,79l-0.3,0.3L48,79.3h-0.1l0,0
		C48.1,79.2,48.3,79.1,48.4,79z"/>
	<path class="st13" d="M36.2,73.5c2.4-3.8,6-6.8,10.1-8.5c7.1-3.1,12.2-1.7,12.2-1.7s-3.9-6.1-11.2-4.8S37,68.5,36.2,73.5z"/>
	<path class="st13" d="M158.2,75.7c-3-3.4-6.9-5.8-11.2-6.9c-7.5-2-12.4,0.2-12.4,0.2s2.9-6.6,10.3-6.4S156.7,70.8,158.2,75.7z"/>
	<path class="st15" d="M76.2,128.4c0,0,15.1,10.8,49.9,3.6c0,0-16.3,7.2-29.9,5.9C84,136.9,79.3,132,76.2,128.4z"/>
</g>
<g id="r-calf">
	<path class="st0" d="M147.7,370.4c0,0-8.4,0.2-13.7,0.4c-3.4,0.1-4.2,2.7-8.6,3.6c-5.7-1.1-12.3,0-13.5,4.1
		c-3.2,11.4,11,9.2,19.1,9.4s10.3-0.3,19.6-0.8c0,0,1.7-3.6,0.3-10.1C150.5,375.1,147.7,370.4,147.7,370.4z"/>
	<path class="st5" d="M114.5,325c0,0,17.3,30.9,14.1,47.3c0,0-1.2-3.4,11.7-2.8c13,0.6,8.5,10.1,8.5,10.1s18.9-15.5,20.7-53
		c1-19.8-14.4-19.1-29.1-14.1C131.4,315.8,122.7,320,114.5,325z"/>
	<path class="st2" d="M127.9,369.5c3.7-1.8,7.8-2.4,11.8-1.7c11.7,2.1,13.9,9.1,13.9,9.1"/>
</g>
<g id="r-thigh">
	<path class="st5" d="M125,256.4c0,0-13.6,4.1-15,43.9s29.9,49.9,48.2,42.7c1.5-0.6,6.1-7.7,6.8-9.2c2.7-5.9,7.2-14.7,13.4-26.7
		C191.2,281.9,148.4,245.9,125,256.4z"/>
	<path class="st3" d="M122,264.7c0,0,12.2-6.7,29.4,0.1c0,0-9.5,43.9-7.6,59.5c0,0-13.9,4.8-24.9-3.4
		C118.9,321,114.7,285.8,122,264.7z"/>
</g>
<path id="r-arm" class="st0" d="M166.2,218.3l20.1,21.6c0,0,8.7,6.3,17.1-1.3c6.6-6,8-14.1,5.8-20.1c-2.1-5.9-6.5-18-8.6-28.8
	c-3.2-15.9-12.1-25-12.1-25s-17.9-4.5-26.6,18.1C157.1,194.6,158.8,208,166.2,218.3z"/>
<path id="r-forearm" class="st0" d="M207,215.4c0,0,7.9,10.1,8.4,27c0.3,10.4-1.2,16.3-1.2,16.3c-1.8-0.3-3.7-0.3-5.6,0.1
	c-2.4,0.4-4.6,1.5-6.3,3.2c0,0-9.7-7.7-21.2-27.4S201.3,204.2,207,215.4z"/>
<g id="r-hand">
	<path class="st4" d="M210.7,257.4c4.3,1.4,8.7,2.3,13.2,2.6c6.6,0.3,11,4.6,7,6.6s-5.2-0.3-8.7,0s3.8,3.6,2.1,8.6s-6,8-10.6,3
		s-1.6-9-5.6-9.2s-1,9.2-6,8.5s-9.9,0,2-17.9L210.7,257.4z"/>
	<path class="st2" d="M216.2,256.4c0,0-3.9,1.3-7.5,2.4c-2.8,0.9-5.5,2-8.2,3.2"/>
</g>
<g id="scarf">
	<path class="st7" d="M160.7,157.4c-15.1,22.5-44,52.3-70.1,52.3s-27.5-32.6-27.5-56.5c0-5.4,0.1-10.5,2-15.2
		c3.6,15.8,2.7,31.2,23.4,31.2c24.8,0,58.6-16.8,71.6-29.8C161.9,143.8,163.4,153.4,160.7,157.4z"/>
	<path class="st16" d="M64.8,139.8c0,0-4.8,43.9,30.5,43.9c38.2,0,65-44.3,65-44.3s-22.9,55.2-65.2,55.2
		C55.9,194.6,64.8,139.8,64.8,139.8z"/>
</g>
</svg>
