<?xml version="1.0" encoding="utf-8"?>
<!-- Generator: Adobe Illustrator 25.2.0, SVG Export Plug-In . SVG Version: 6.00 Build 0)  -->
<svg version="1.1" id="Layer_1" xmlns="http://www.w3.org/2000/svg" xmlns:xlink="http://www.w3.org/1999/xlink" x="0px" y="0px"
	 viewBox="0 0 247.4 387.8" style="enable-background:new 0 0 247.4 387.8;" xml:space="preserve">
<style type="text/css">
	.st0{fill:#1E3484;}
	.st1{fill:#16254F;}
	.st2{fill:none;stroke:#D552C0;stroke-width:7;stroke-linecap:round;stroke-miterlimit:10;}
	.st3{fill:none;stroke:#16254F;stroke-miterlimit:10;}
	.st4{fill:#BCFC30;}
	.st5{fill:#2A3D9B;}
	.st6{fill:#438BFF;}
	.st7{fill:#D552C0;}
	.st8{fill:#F8FFE1;}
	.st9{fill:#A8E00E;}
	.st10{clip-path:url(#SVGID_2_);}
	.st11{fill:#FFFFFF;}
	.st12{fill:#A114A5;}
	.st13{fill:#470B35;}
	.st14{clip-path:url(#SVGID_4_);}
	.st15{fill:#74B221;}
	.st16{fill:#B23BA4;}
</style>
<g id="l-calf">
	<path class="st0" d="M59.9,328.7c0,0,19.8,24.7,21.4,38.7c0,0,4.9,0,14.4,0c2.6,0,8.5,8.2,8.5,8.2s15.5-18.9,10-56
		c-2.9-19.6-17.9-16-31.3-8.2C74.7,316.4,67,322.2,59.9,328.7z"/>
	<path class="st1" d="M101.5,368.3c0,0-8.4,0.2-13.7,0.3c-3.4,0.1-8.6,3.5-13,4.4c-7.7-1.2-17.7-6.1-19.5-2.2
		c-3.2,7,0.8,15.9,18.9,14.8s20.8-0.2,30.1-0.7c0,0,1.7-3.6,0.3-10.1C104.3,373.1,101.5,368.3,101.5,368.3z"/>
	<path class="st2" d="M81.3,367.4c3.2-0.5,6.4-0.7,9.7-0.8c7.8,0.3,15.3,5.8,15.3,5.8"/>
</g>
<g id="l-thigh">
	<path class="st0" d="M69.5,235.2c0,0-15.3,24.1-16.6,64s29.8,49.9,48.2,42.7c1.5-0.6,6.1-7.7,6.8-9.2c2.7-5.9,7.2-14.7,13.4-26.7
		C133.9,280.8,73.2,221.7,69.5,235.2z"/>
	<path class="st3" d="M62.4,253.8c0,0,9-1,18.7,5.5c0,0-18.1,29.3-19.3,60.5c-2.7-2.2-5-4.8-6.8-7.8C55,312.1,49.6,290.2,62.4,253.8
		z"/>
</g>
<path id="l-arm" class="st1" d="M88.2,211.7l-21,20.8c0,0-9,5.9-17-2c-6.4-6.3-7.4-14.4-4.9-20.4c2.4-5.8,7.2-17.7,9.8-28.4
	c3.8-15.7,13.2-24.5,13.2-24.5s18.1-3.7,25.9,19.2C98.3,188.5,96.1,201.8,88.2,211.7z"/>
<path id="l-forearm" class="st1" d="M66.5,204.2c0,0-11.5-5.7-28.1-2.9c-10.3,1.7-15.7,4.4-15.7,4.4c0.7,1.8,1,3.6,1,5.5
	c0.1,2.4-0.5,4.8-1.9,6.8c0,0,9.5,8,31.1,15.4S78.6,207.6,66.5,204.2z"/>
<g id="l-hand">
	<path class="st4" d="M24.6,209c-2.3-3.9-4-8-5.2-12.4c-1.6-6.4-6.7-9.8-7.9-5.5s1.4,5,1.7,8.6s-4.3-3-8.9-0.4s-6.6,7.4-0.8,11
		s9.2-0.2,10.1,3.7s-8.8,2.8-7.2,7.5s2,9.8,17.2-5.5L24.6,209z"/>
	<path class="st2" d="M24.5,203.4c0,0-0.5,4-0.8,7.8c-0.3,2.9-0.8,5.8-1.5,8.6"/>
</g>
<g id="torso">
	<ellipse transform="matrix(0.9837 -0.18 0.18 0.9837 -32.1017 17.3945)" class="st1" cx="79.8" cy="185.6" rx="16.9" ry="32.7"/>
	<path class="st5" d="M178.2,326.8c-12.8,7.8-33,1.4-55.3-3.1c-10.5-2.1-20.9-10.4-28.5-18.6c-10.3-11.4-18.7-20.5-24.4-49.2
		c-1.2-6.5-2-13-2.3-19.6c-3.2-66.6,3.7-82.2,3.7-82.2l19-8.7l80.4,2.6l30.4,14.1c0,0-11.8,57.4-14.1,76.8
		C203.6,286.8,199.7,313.7,178.2,326.8z"/>
	<path class="st3" d="M106.6,170c-6.9,60.1-8.2,104,19.5,153.7"/>
	<path class="st6" d="M190.3,246.9c0,0-24.9,7.4-64.7,5.8s-60.3-9.5-60.3-9.5l1-9.8c0,0,20,7.4,59.3,9.1s62.7-6.1,62.7-6.1
		L190.3,246.9z"/>
	<circle class="st7" cx="104.8" cy="246.9" r="13.6"/>
	
		<ellipse transform="matrix(0.2496 -0.9684 0.9684 0.2496 -42.8124 328.2974)" class="st1" cx="190.4" cy="191.8" rx="32.7" ry="16.9"/>
</g>
<g id="r-calf">
	<path class="st5" d="M129.5,325c0,0,17.3,30.9,14.1,47.3c0,0-1.2-3.4,11.7-2.8c13,0.6,10.6,7.4,10.6,7.4s16.8-12.8,18.6-50.3
		c1-19.8-14.4-19.1-29.1-14.1C146.4,315.8,137.7,319.9,129.5,325z"/>
	<path class="st1" d="M162.7,370.4l-13.7,0.4c-3.4,0.1-4.2,2.7-8.6,3.6c-5.7-1.1-12.3,0-13.5,4.1c-3.2,11.4,11,9.2,19.1,9.4
		s10.3-0.3,19.6-0.8c0,0,1.7-3.6,0.3-10.1C165.5,375.1,162.7,370.4,162.7,370.4z"/>
	<path class="st2" d="M142.9,369.5c3.7-1.8,7.8-2.4,11.8-1.7c11.7,2.1,13.9,9.2,13.9,9.2"/>
</g>
<g id="r-thigh">
	<path class="st5" d="M134.1,253.9c0,0-8,13.2-9,46.4c-1.2,39.8,29.9,49.9,48.2,42.7c1.5-0.6,6.1-7.7,6.8-9.2
		c2.7-5.9,7.2-14.7,13.4-26.7C206.2,281.9,174.2,256.4,134.1,253.9z"/>
	<path class="st3" d="M137,264.7c0,0,12.2-6.7,29.4,0.1c0,0-9.5,43.9-7.6,59.5c0,0-13.9,4.8-24.9-3.4
		C133.9,321,129.7,285.8,137,264.7z"/>
</g>
<path id="r-arm" class="st1" d="M181.3,218.3l20.2,21.6c0,0,8.7,6.3,17.1-1.3c6.6-6,7.9-14,5.7-20.1c-2.1-5.9-6.5-18-8.6-28.8
	c-3.2-15.9-12.1-25-12.1-25s-17.9-4.5-26.6,18.1C172.2,194.6,173.8,208,181.3,218.3z"/>
<path id="r-forearm" class="st1" d="M222,215.3c0,0,7.9,10.1,8.4,27c0.3,10.4-1.2,16.3-1.2,16.3c-1.8-0.3-3.7-0.3-5.6,0.1
	c-2.4,0.4-4.6,1.5-6.2,3.2c0,0-9.7-7.7-21.2-27.4S216.3,204.2,222,215.3z"/>
<g id="r-hand">
	<path class="st4" d="M225.7,257.4c4.3,1.4,8.7,2.3,13.2,2.6c6.6,0.3,11,4.6,7,6.6s-5.2-0.3-8.7,0s3.8,3.6,2.1,8.6s-6,8-10.6,3
		s-1.7-9.1-5.6-9.2s-1,9.2-6,8.5s-10,0,2-17.9L225.7,257.4z"/>
	<path class="st2" d="M231.2,256.4c0,0-3.8,1.3-7.5,2.4c-2.8,0.9-5.5,2-8.2,3.2"/>
</g>
<g id="head">
	<path class="st4" d="M221.8,57.7l-4,29c-1.2,8.5-7.6,15.2-16,16.8c-11.1,2.1-18.6,7.7-21.9,19.1c-5.2,17.6-8.6,35.3-8.6,35.3
		s-15.2,16-46.2,16s-39.3-9.5-39.3-9.5l-8.4-39.6c-1.4-5.5-12.7-15.7-17.4-19.3c-6.7-5.2-13.8-10.3-15-18.8l-4-28.9
		c-1.2-8.9,2-17.9,8.7-23.9c8.1-7.3,17.1-13.6,26.8-18.6c12.2-6.2,43.6-11.9,54.1-12.4c3.1-0.2,13.5-0.8,18.8,3.8
		c6.3,5.4-2.6,11.5-6.2,13.5c-11.3,6.3-46.3,15.5-45.9,33l14.3,7.2l51.9-7.2l0,0c7.8-21.7,11.8-26.7,0.5-33
		c-3.6-2-12.5-8.1-6.2-13.5c5.3-4.5,15.7-3.3,18.7-2.7c10.3,1.8,19.4,7,29.6,16.2C215.6,28.6,223,48.7,221.8,57.7z"/>
	<path class="st8" d="M79,38.3c0,3.5-5,6.3-11.2,6.3s-11.2-2.8-11.2-6.3s5-14.9,11.2-14.9S79,34.8,79,38.3z"/>
	<path class="st8" d="M105.7,19.3c0,2.2-3.2,4.1-7.3,4.1s-7.3-1.8-7.3-4.1s3.3-9.7,7.3-9.7S105.7,17,105.7,19.3z"/>
	<path class="st8" d="M140.1,9.7c0,2.3-3.3,4.1-7.3,4.1s-7.3-1.8-7.3-4.1s3.3-9.7,7.3-9.7S140.1,7.4,140.1,9.7z"/>
	<path class="st8" d="M188.3,38.3c0,3.5,5,6.3,11.2,6.3s11.2-2.8,11.2-6.3s-5-14.9-11.2-14.9S188.3,34.8,188.3,38.3z"/>
	<path class="st8" d="M181.1,19.3c0,2.2,3.2,4.1,7.3,4.1s7.3-1.8,7.3-4.1s-3.3-9.7-7.3-9.7S181.1,17,181.1,19.3z"/>
	<path class="st8" d="M162.7,9.7c0,2.3,3.2,4.1,7.3,4.1s7.3-1.8,7.3-4.1S173.9,0,169.9,0S162.7,7.4,162.7,9.7z"/>
	<path class="st9" d="M100.5,54.6c0,0-6.3-3.2-12.3-5.6c0,0,9-24.5,54.9-29C131.7,26.3,100,37.1,100.5,54.6z"/>
	<path class="st9" d="M174.6,49c-2.5,2.3-10.6,3.9-11.1,4c7.8-21.7,11.8-26.7,0.5-33C187.8,26.7,174.6,49,174.6,49z"/>
	<g>
		<defs>
			<path id="SVGID_1_" d="M61.8,77.5c0,0,15.1-8.8,24.1,4.4c5.3,7.7,6.7,17.4,3.7,26.3c0,0-14.9,4.5-25.7-9.9
				C56.8,88.7,61.8,77.5,61.8,77.5z"/>
		</defs>
		<clipPath id="SVGID_2_">
			<use xlink:href="#SVGID_1_"  style="overflow:visible;"/>
		</clipPath>
		<g class="st10">
			
				<rect x="57.6" y="72.9" transform="matrix(0.1547 -0.988 0.988 0.1547 -26.2016 152.1836)" class="st11" width="36.5" height="37.1"/>
			<circle class="st12" cx="83.1" cy="89.6" r="13.4"/>
			<circle cx="83.1" cy="89.6" r="6.1"/>
			<path class="st13" d="M92,108c0,0,1.1-19.1-7.6-26.5c-8.6-7.3-16.4-3.7-23.2-2c-7.1,1.8,12.4-11.9,12.4-11.9l25.5,12.9L92,108z"
				/>
		</g>
	</g>
	<g>
		<defs>
			<path id="SVGID_3_" d="M164,83.9c0,0-13.5-11.1-24.5,0.7c-6.4,6.8-9.3,16.2-7.7,25.3c0,0,14,6.8,26.9-5.8
				C167.3,95.7,164,83.9,164,83.9z"/>
		</defs>
		<clipPath id="SVGID_4_">
			<use xlink:href="#SVGID_3_"  style="overflow:visible;"/>
		</clipPath>
		<g class="st14">
			<rect x="129.5" y="77.2" class="st11" width="37.1" height="36.5"/>
			<circle class="st12" cx="152.6" cy="92.5" r="13.4"/>
			<circle cx="152.6" cy="92.5" r="6.1"/>
			<path class="st13" d="M129.5,109.3c0,0,1.9-19,11.6-25c9.6-5.9,16.8-1.1,23.3,1.6c6.7,2.8-10.4-13.7-10.4-13.7L126.8,81
				L129.5,109.3z"/>
		</g>
	</g>
	<path class="st13" d="M162.2,85c0.1,0.2,0.3,0.3,0.4,0.5l0,0h-0.1l-0.1-0.1l-0.3-0.2l-0.6-0.5c-0.4-0.3-0.9-0.6-1.3-0.9
		c-0.9-0.5-1.8-1-2.8-1.5c-1.9-0.9-3.9-1.4-6-1.5c-2.1-0.1-4.1,0.2-6,1c-1.9,0.9-3.7,2.1-5.2,3.6c-3.1,3.1-5.5,7-7,11.2
		c-0.7,2.1-1.2,4.3-1.4,6.5c-0.3,2.2-0.2,4.5,0.1,6.7l0,0l-0.1-0.1c8,3,16.9,1.4,23.4-4.2c0.8-0.6,1.5-1.4,2.2-2.1
		c0.4-0.3,0.7-0.7,1-1.1c0.3-0.4,0.6-0.8,0.9-1.2c1.1-1.6,2-3.4,2.5-5.3c0.5-1.9,0.8-3.8,0.8-5.8c0-1-0.1-2-0.2-2.9
		c-0.1-0.5-0.1-1-0.2-1.4c-0.1-0.2-0.1-0.5-0.2-0.7l-0.1-0.3v-0.2l0,0c0,0,0,0.1,0.1,0.2C162.1,84.9,162.1,85,162.2,85z M165.8,82.7
		c0.1,0.2,0.2,0.4,0.2,0.6c0,0.1,0.1,0.2,0.1,0.2v0.1v0.2l0.1,0.4c0,0.3,0.1,0.6,0.1,0.9c0.1,0.6,0.1,1.2,0.1,1.7
		c0.1,1.1,0.1,2.3,0,3.4c-0.2,2.3-0.7,4.6-1.5,6.7c-0.8,2.2-2,4.2-3.4,5.9c-0.4,0.4-0.7,0.9-1.1,1.3c-0.4,0.4-0.8,0.8-1.2,1.2
		c-0.9,0.7-1.7,1.4-2.6,2.1c-3.6,2.6-7.8,4.2-12.2,4.7c-4.3,0.4-8.7-0.3-12.7-2.1h-0.1v-0.1l0,0c-0.5-2.3-0.7-4.6-0.6-6.9
		c0.1-2.3,0.4-4.6,1-6.9c1.2-4.5,3.4-8.7,6.5-12.3c1.6-1.9,3.5-3.4,5.6-4.6c1.1-0.6,2.3-1,3.5-1.3c1.2-0.3,2.5-0.5,3.7-0.5
		c2.5,0,5,0.4,7.3,1.3c1.2,0.4,2.3,0.9,3.4,1.5c0.5,0.3,1.1,0.6,1.6,0.9l0.8,0.5l0.4,0.3l0.2,0.1l0.1,0.1h0.1
		C165.5,82.3,165.7,82.5,165.8,82.7L165.8,82.7z"/>
	<path class="st13" d="M60.2,76.1c0.2-0.2,0.4-0.3,0.6-0.4h0.1l0.1-0.1l0.2-0.1l0.4-0.2l0.8-0.4c0.6-0.2,1.2-0.4,1.7-0.6
		c1.2-0.4,2.4-0.7,3.6-0.9c2.4-0.5,5-0.5,7.4-0.1c2.5,0.4,4.8,1.4,6.9,2.9c2,1.5,3.6,3.3,4.9,5.4c2.5,4,4,8.5,4.5,13.2
		c0.3,2.3,0.2,4.6-0.1,6.9c-0.3,2.3-0.8,4.5-1.7,6.7l0,0v0.1h-0.1c-4.2,1.2-8.6,1.2-12.8,0.1c-4.3-1.2-8.2-3.4-11.3-6.6
		c-0.8-0.8-1.5-1.6-2.2-2.4c-0.4-0.4-0.7-0.9-1-1.3c-0.4-0.4-0.7-0.9-1-1.4c-1.2-2-2-4.1-2.5-6.4c-0.5-2.3-0.6-4.6-0.4-6.8
		c0.1-1.1,0.2-2.3,0.5-3.4c0.1-0.6,0.2-1.1,0.4-1.7c0.1-0.3,0.2-0.6,0.2-0.8l0.2-0.4l0.1-0.2v-0.1c0-0.1,0.1-0.2,0.1-0.2
		C60,76.4,60.1,76.3,60.2,76.1z M63.5,78.9c0.1-0.1,0.2-0.2,0.3-0.3c0,0,0.1-0.2,0.1-0.1l0,0l-0.1,0.2l-0.1,0.3
		c-0.1,0.2-0.2,0.4-0.3,0.7C63.1,80,63,80.5,62.8,81c-0.3,0.9-0.5,1.9-0.6,2.9c-0.3,1.9-0.4,3.9-0.1,5.9c0.2,2,0.8,3.8,1.7,5.6
		c0.2,0.5,0.4,0.9,0.7,1.3c0.2,0.4,0.5,0.9,0.8,1.3c0.6,0.8,1.2,1.7,1.9,2.4c2.7,3.1,6.1,5.5,10,6.9c4,1.4,8.3,1.7,12.4,0.9
		l-0.1,0.1l0,0c0.7-2.2,1-4.4,1.1-6.6c0.1-2.2,0-4.5-0.4-6.7c-0.8-4.4-2.6-8.5-5.2-12.1c-1.2-1.7-2.8-3.2-4.5-4.4
		c-1.7-1.1-3.7-1.8-5.8-1.9c-2.1-0.2-4.1,0-6.1,0.6c-1,0.3-2,0.6-3,1c-0.5,0.2-1,0.4-1.4,0.6L63.5,78.9l-0.3,0.2L63,79.2h-0.1l0,0
		C63.1,79.1,63.3,79,63.5,78.9z"/>
	<path class="st13" d="M51.2,73.5c2.4-3.8,6-6.8,10.1-8.5c7.1-3.1,12.3-1.7,12.3-1.7s-3.9-6.1-11.1-4.8S52,68.5,51.2,73.5z"/>
	<path class="st13" d="M173.2,75.7c-3-3.4-6.9-5.8-11.2-6.9c-7.5-2-12.4,0.2-12.4,0.2s2.9-6.6,10.3-6.4S171.7,70.8,173.2,75.7z"/>
	<path class="st15" d="M91.2,128.4c0,0,15.1,10.8,49.9,3.6c0,0-16.3,7.2-29.9,5.9C99,136.9,94.3,132,91.2,128.4z"/>
</g>
<g id="scarf">
	<path class="st7" d="M175.7,157.4c-15.1,22.5-44,52.3-70.1,52.3s-27.4-32.6-27.4-56.5c0-5.4,0.1-10.5,2-15.2
		c3.6,15.8,2.7,31.2,23.4,31.2c24.8,0,58.6-16.8,71.7-29.8C176.9,143.7,178.5,153.4,175.7,157.4z"/>
	<path class="st16" d="M79.8,139.8c0,0-4.8,43.9,30.5,43.9c38.2,0,65-44.3,65-44.3s-22.9,55.2-65.2,55.2
		C70.9,194.6,79.8,139.8,79.8,139.8z"/>
</g>
</svg>
