<?xml version="1.0" encoding="utf-8"?>
<!-- Generator: Adobe Illustrator 25.2.0, SVG Export Plug-In . SVG Version: 6.00 Build 0)  -->
<svg version="1.1" id="Layer_1" xmlns="http://www.w3.org/2000/svg" xmlns:xlink="http://www.w3.org/1999/xlink" x="0px" y="0px"
	 viewBox="0 0 219.7 379.7" style="enable-background:new 0 0 219.7 379.7;" xml:space="preserve">
<style type="text/css">
	.st0{fill:#16254F;}
	.st1{fill:#BCFC30;}
	.st2{fill:none;stroke:#D552C0;stroke-width:7;stroke-linecap:round;stroke-miterlimit:10;}
	.st3{fill:#1E3484;}
	.st4{fill:none;stroke:#16254F;stroke-miterlimit:10;}
	.st5{fill:#2A3D9B;}
	.st6{fill:#438BFF;}
	.st7{fill:#D552C0;}
	.st8{fill:#F2FFCF;}
	.st9{fill:#A8E00E;}
	.st10{clip-path:url(#SVGID_2_);}
	.st11{fill:#FFFFFF;}
	.st12{fill:#A114A5;}
	.st13{fill:#470B35;}
	.st14{fill:#B23BA4;}
</style>
<path id="b-arm" class="st0" d="M79.4,193.3l-28.3-8.7c0,0-9.5-5.1-6.3-16c2.5-8.6,9.2-13.3,15.6-14c6.2-0.6,19-2,29.6-4.8
	c15.6-4.1,27.8,0,27.8,0s11.8,14.2-4.7,31.9C104.7,191.1,91.9,195.5,79.4,193.3z"/>
<path id="b-forearm" class="st0" d="M64.2,155.3c0,0-12.5-2.7-28,4.2c-9.5,4.2-14.1,8.2-14.1,8.2c1.1,1.5,1.9,3.2,2.4,5.1
	c0.7,2.3,0.7,4.7-0.1,7c0,0,11.1,5.4,33.9,7.1S76.8,155.7,64.2,155.3z"/>
<g id="b-hand">
	<path class="st1" d="M24.9,170.4c-3.2-3.2-5.9-6.8-8.1-10.7c-3.2-5.8-9-7.8-9-3.4s2.6,4.5,3.8,7.9s-4.9-1.8-8.7,1.9
		s-4.6,8.8,1.9,10.9s8.9-2.5,10.7,1.1s-7.8,4.9-5,9.1s4.3,8.9,15.2-9.6L24.9,170.4z"/>
	<path class="st2" d="M23.3,165c0,0,0.5,4,1.2,7.8c0.4,2.9,0.6,5.8,0.7,8.7"/>
</g>
<g id="b0cafl">
	<path class="st3" d="M84,316.4c0,0,20.4,22.7,19.5,39.4c0,0,9.8,5.4,12.4,5.6s9.7,4.3,9.7,4.3s16.5-18,13.1-55.4
		c-1.8-19.7-16.9-17-30.8-9.9C99.4,304.9,91.4,310.2,84,316.4z"/>
	<path class="st0" d="M120.2,358c0,0-8.4,0.3-13.7,0.4c-3.4,0.1-8.6,3.6-12.9,4.5c-7.7-1.1-17.8-6-19.5-2c-3.2,7,1,15.9,19.1,14.7
		s20.8-0.4,30.1-0.9c0,0,1.6-3.6,0.2-10.1C123.1,362.8,120.2,358,120.2,358z"/>
	<path class="st2" d="M103.5,355.8c3.2,0.8,6.3,1.8,9.3,3c4.6,2.3,8.8,5.3,12.3,9"/>
</g>
<g id="b-thigh">
	<path class="st3" d="M94.2,224.5c0,0-15.3,24.1-16.6,64s29.8,49.9,48.2,42.7c1.5-0.6,6.1-7.7,6.8-9.2c2.7-5.9,7.2-14.7,13.4-26.7
		C158.7,270.1,98,211,94.2,224.5z"/>
	<path class="st4" d="M85,245.6c0,0,9-4.1,25.4,2.8c0,0-11.7,40.2-11.8,55.8c-5.3-0.6-10.6-1.5-15.8-2.7
		C82.8,301.4,75,266.7,85,245.6z"/>
</g>
<g id="torso">
	<path class="st5" d="M172.6,276.5c-2.3,15.2-25.6,37.6-48.4,37.6S76.9,289,70.9,274.3c-3.8-9.3-2.2-35.8-2.2-35.8
		s-8.9-33.2,3.4-61.7c9.6-22.2,13.3-23.9,13.3-23.9l77-17.1c0,0,4.4,9.5,6.5,34c1.2,13.8-7.8,56.9-7.8,56.9S175.2,259.5,172.6,276.5
		z"/>
	<path class="st6" d="M163.4,234.6c0,0-15.8,7.5-49.3,8.3s-47.4-6-47.4-6l-0.4-10.9c0,0,14.8,6.8,47.8,6s47.8-8.3,47.8-8.3
		L163.4,234.6z"/>
	<ellipse class="st7" cx="68.3" cy="234.6" rx="7.3" ry="13.6"/>
	<ellipse class="st0" cx="142.3" cy="184.6" rx="23" ry="32"/>
</g>
<g id="f-calf">
	<path class="st5" d="M95.9,320.3c0,0,20.4,22.7,19.5,39.4c0,0,9.8,5.4,12.4,5.6c2.6,0.2,9.7,4.3,9.7,4.3s16.5-18,13.1-55.4
		c-1.8-19.7-16.9-17-30.8-9.9C111.3,308.8,103.3,314.2,95.9,320.3z"/>
	<path class="st0" d="M132.1,362c0,0-8.4,0.3-13.7,0.4c-3.4,0.1-8.6,3.6-12.9,4.5c-7.7-1.1-17.8-6-19.5-2c-3.2,7,1,15.9,19.1,14.7
		s20.8-0.4,30.1-0.9c0,0,1.6-3.6,0.2-10.1C134.9,366.7,132.1,362,132.1,362z"/>
	<path class="st2" d="M115.4,359.8c3.2,0.8,6.3,1.8,9.3,3c4.6,2.3,8.8,5.3,12.3,9"/>
</g>
<g id="f-thigh">
	<path class="st5" d="M96.9,249.5c0,0-6.1,3.1-7.4,42.9s29.8,49.9,48.2,42.7c1.5-0.6,6.1-7.7,6.8-9.2c2.7-5.9,7.2-14.7,13.4-26.7
		C170.5,274,107,230.3,96.9,249.5z"/>
	<path class="st4" d="M96.9,249.5c0,0,9-4.1,25.4,2.8c0,0-11.7,40.2-11.9,55.8c-5.3-0.6-10.6-1.5-15.8-2.7
		C94.6,305.3,86.9,270.6,96.9,249.5z"/>
</g>
<g id="head">
	<path class="st8" d="M148.9,26.6c1.5,2.4-1.6,7-6.8,10.3s-10.7,4-12.2,1.7s-2.1-12.9,3.1-16.2C138.3,19,147.4,24.2,148.9,26.6z"/>
	<path class="st8" d="M167.9,14.8c1.2,1.9-0.7,5.2-4.1,7.3s-7.2,2.2-8.3,0.3s-2.2-9.9,1.2-12S166.7,12.8,167.9,14.8z"/>
	<path class="st9" d="M197.4,3.1c-1.9-2.5-9.5-4.4-15.1-2c-15.7,6.9-37.7,32-60.7,40.8C91.2,56.5,91.2,59.1,91.2,59.1l34.5,26.2
		c0,0,51.6-10.3,47.2-21.8c-10-26.4,10.1-37,18.6-52.5C193.5,7.5,199.9,6.4,197.4,3.1z"/>
	<path class="st1" d="M211.7,13.6c-4.8-4.1-15.3-11.2-19.6-13c-4.7-1.9-16.2,1-11.2,10.1c4.7,8.6,12.8,17-32.2,30.9
		c-8.9,2.8-20.4,2.1-39,7.5C103.1,51,89,56.4,86.3,62.7c-8.8,21-8.8,50.2-8.8,50.2s9-1,18.2-1.9c-7.1,2.4-13.6,4.4-17.2,5.3
		c2.4,16.4,5.5,26.1,8.2,45.2c2.7,19.6,40.3-14.6,76.3-23.4c0.6-12.5,2.7-24.9,6.4-36.9c2.4-8.2,5.8-16.1,9.9-23.6
		c4.2-3.2,8.2-6.6,11.9-10.2C203.9,55.4,234.1,33,211.7,13.6z"/>
	<path class="st8" d="M181.6,4.6c1.1,1.6-0.2,4.5-3,6.5s-5.9,2.4-7.1,0.8s-2.6-8.3,0.2-10.3S180.5,3,181.6,4.6z"/>
	<path class="st8" d="M183.8,33c0.8,2.7-3.4,6.3-9.4,8s-11.4,1-12.2-1.7s1.4-13,7.4-14.7S183,30.3,183.8,33z"/>
	<path class="st8" d="M201.7,16.3c1,2-1.1,5.1-4.8,6.8s-7.3,1.6-8.3-0.5s-1.3-10.1,2.3-11.9S200.7,14.3,201.7,16.3z"/>
	<path class="st8" d="M194.5,4.6c1.1,1.6-0.2,4.5-3,6.5s-5.9,2.4-7.1,0.8s-2.6-8.3,0.2-10.3S193.4,3,194.5,4.6z"/>
	<path class="st9" d="M179.4,77.7c-4.1,7.5-7.5,15.4-9.9,23.6c-7.8,3.7-16,6.6-24.4,8.6c-5.9,1.6-12.2,1.6-18.1-0.1
		c7.4-0.1,14.6-2,22.7-11.4C155.6,91.6,166.1,87.7,179.4,77.7z"/>
	<g>
		<defs>
			<path id="SVGID_1_" d="M107.6,73.8c0,0-9-7.2-17.2,0.7C78.9,85.6,85.6,101,85.6,101s7.1,3.4,14.9-5.4
				C107.6,87.6,107.6,73.8,107.6,73.8z"/>
		</defs>
		<clipPath id="SVGID_2_">
			<use xlink:href="#SVGID_1_"  style="overflow:visible;"/>
		</clipPath>
		<g class="st10">
			<rect x="80.4" y="67.2" class="st11" width="37.1" height="36.5"/>
			
				<ellipse transform="matrix(5.442741e-02 -0.9985 0.9985 5.442741e-02 0.1332 172.6651)" class="st12" cx="91.2" cy="86.3" rx="13.3" ry="6.5"/>
			<ellipse transform="matrix(5.442741e-02 -0.9985 0.9985 5.442741e-02 0.1332 172.6651)" cx="91.2" cy="86.3" rx="6.1" ry="3"/>
			<path class="st13" d="M80.4,99.3c0,0,1.9-19,11.6-25c9.6-5.9,15.1,4.4,21.5,7.1c6.7,2.8-8.7-19.2-8.7-19.2L77.7,71L80.4,99.3z"/>
		</g>
	</g>
	<path class="st13" d="M105.7,74.8c0.1,0.2,0.2,0.4,0.4,0.5l0.1,0.1h0.1l0,0l-0.1-0.1l-0.2-0.2c-0.2-0.1-0.3-0.2-0.5-0.4
		c-0.4-0.2-0.7-0.5-1.1-0.7c-0.8-0.4-1.6-0.7-2.4-1c-1.6-0.5-3.3-0.7-5-0.4c-3.4,0.5-6.2,3.2-8.5,6.2c-2.2,3.1-3.6,6.7-3.9,10.5
		c-0.3,3.9,0.1,7.8,1.4,11.5l-0.1-0.1l0,0c1.5,0.5,3.2,0.6,4.8,0.3c1.6-0.3,3.1-0.9,4.4-1.7c2.7-1.8,4.9-4.1,6.5-6.9
		c1.6-2.8,2.7-5.8,3.2-9c0.3-1.6,0.5-3.2,0.7-4.8c0.1-0.8,0.1-1.6,0.1-2.4V75v-1C105.5,74.3,105.6,74.5,105.7,74.8z M109.6,72.9
		c0.1,0.4,0.2,0.7,0.2,1.1v0.2v0.3l-0.1,0.7l-0.1,1.3c-0.1,0.9-0.2,1.7-0.4,2.6c-0.3,1.7-0.7,3.4-1.2,5.1c-1,3.4-2.5,6.6-4.5,9.5
		c-2,2.9-4.7,5.2-7.8,6.9c-3.1,1.7-6.8,2-10.1,0.7l0,0h-0.1v-0.1c-1.6-3.7-2.4-7.7-2.3-11.8c0-4.2,1.2-8.2,3.3-11.8
		c0.5-0.9,1.2-1.7,1.8-2.6c0.7-0.8,1.4-1.6,2.2-2.3c1.6-1.5,3.6-2.7,5.8-3.2c2.2-0.6,4.5-0.6,6.7-0.1c1.1,0.3,2.1,0.6,3.2,1.1
		c0.5,0.2,1,0.5,1.5,0.7c0.2,0.1,0.5,0.3,0.7,0.4l0.4,0.2l0.2,0.1h0.1l0.1,0.1l0.2,0.1C109.3,72.5,109.5,72.7,109.6,72.9z"/>
	<path class="st13" d="M113.1,70.9c-1.9-3.6-4.8-6.5-8.4-8.3c-6-3-10.4-1.4-10.4-1.4s3.4-6.1,9.6-5S112.6,65.9,113.1,70.9z"/>
</g>
<g id="scarf">
	<path class="st7" d="M167.4,135.8c0.3,1,0.3,2,0,3c-0.4,1.2-0.9,2.3-1.7,3.3c0,0-19.3-6.6-42.2,22.1s-41.9,36.3-52.2,31.7
		c-8.8-4-7.2-10-2-22.7l0.7-1.7l0,0c-4.4-4.9-1.1-12.5,1.1-16.4c3.3-5.8,12.3-13.2,12.3-13.2s2.3,12.5,3.1,17.6
		c9.2-2.8,12.8-9.3,31.1-16.6c15.6-6.1,31.7-10.9,48.1-14.4c5.1,0.8,1,4.3,1.7,7.2C167.3,135.7,167.3,135.8,167.4,135.8z"/>
	<path class="st14" d="M167.3,138.8c-12.9,1-36.7,5.9-52.5,18.8c-18.5,15.1-27.6,29.8-39.3,27.7c-8.9-1.6-7.5-8.8-6.3-12.2
		c0.2-0.6,0.4-1.1,0.7-1.7l0,0c0,0,4.5,4.2,13.7,1.9c6.7-1.7,26.3-24.9,58.7-32.9c8.2-2.1,16.6-3.8,25-4.9c0,0.1,0,0.2,0.1,0.3
		C167.7,136.8,167.6,137.9,167.3,138.8z"/>
</g>
<path id="f-arm" class="st0" d="M154.8,208.7l-20.2,21.6c0,0-8.7,6.3-17.1-1.3c-6.6-6-8-14-5.8-20.1c2.1-5.9,6.5-18,8.6-28.8
	c3.2-15.9,12.1-25,12.1-25s22.9-9,30.9,16.8C169.9,192.7,154.8,208.7,154.8,208.7z"/>
<path id="f-forearm" class="st0" d="M134.1,202.4c0,0-11-6.6-27.8-5.1c-10.4,0.9-16,3.1-16,3.1c0.5,1.8,0.7,3.7,0.6,5.5
	c-0.1,2.4-0.9,4.7-2.4,6.6c0,0,8.8,8.7,29.8,17.7S145.9,206.8,134.1,202.4z"/>
<g id="f-hand">
	<path class="st1" d="M92,203.9c-1.9-4.1-3.4-8.3-4.2-12.8c-1.1-6.5-5.9-10.3-7.4-6.1s1,5.1,1.1,8.7s-4.1-3.3-8.8-1
		s-7.2,6.9-1.7,10.9s9.2,0.6,9.8,4.5s-9,2.1-7.7,7c1.3,4.9,1.2,9.9,17.6-4.1L92,203.9z"/>
	<path class="st2" d="M92.3,198.3c0,0-0.8,4-1.4,7.7c-0.5,2.9-1.3,5.7-2.2,8.5"/>
</g>
</svg>
