<?xml version="1.0" encoding="utf-8"?>
<!-- Generator: Adobe Illustrator 25.2.0, SVG Export Plug-In . SVG Version: 6.00 Build 0)  -->
<svg version="1.1" id="Layer_1" xmlns="http://www.w3.org/2000/svg" xmlns:xlink="http://www.w3.org/1999/xlink" x="0px" y="0px"
	 viewBox="0 0 262 387.8" style="enable-background:new 0 0 262 387.8;" xml:space="preserve">
<style type="text/css">
	.st0{fill:#16254F;}
	.st1{fill:#BCFC30;}
	.st2{fill:none;stroke:#D552C0;stroke-width:7;stroke-linecap:round;stroke-miterlimit:10;}
	.st3{fill:#1E3484;}
	.st4{fill:none;stroke:#16254F;stroke-miterlimit:10;}
	.st5{fill:#2A3D9B;}
	.st6{fill:#438BFF;}
	.st7{fill:#D552C0;}
	.st8{fill:#F8FFE1;}
	.st9{fill:#A8E00E;}
	.st10{clip-path:url(#SVGID_2_);}
	.st11{fill:#FFFFFF;}
	.st12{fill:#A114A5;}
	.st13{fill:#470B35;}
	.st14{clip-path:url(#SVGID_4_);}
	.st15{fill:#74B221;}
	.st16{fill:#B23BA4;}
</style>
<path id="l-arm" class="st0" d="M80.6,149.1l-25.3-15.3c0,0-10.1-3.6-16.1,6c-4.7,7.6-3.8,15.7,0,20.9c3.7,5.1,11.1,15.5,16.2,25.3
	c7.4,14.4,18.5,20.7,18.5,20.7s18.4-0.6,20.6-24.8C95.8,169.4,90.6,157,80.6,149.1z"/>
<path id="l-forearm" class="st0" d="M42.2,163.1c0,0-10.3-7.5-15.5-23.6c-3.2-9.9-3.3-16-3.3-16c1.9-0.2,3.7-0.8,5.3-1.6
	c2.2-1,4-2.7,5.2-4.8c0,0,11.4,4.7,27.9,20.6S50.8,172.3,42.2,163.1z"/>
<g id="l-hand">
	<path class="st1" d="M27.1,123.7c-4.5-0.2-9,0.1-13.4,1.1c-6.5,1.5-11.8-1.5-8.5-4.5s5.1-1.1,8.4-2.4s-4.6-2.5-4.4-7.7
		s3.6-9.3,9.4-5.8s4.1,8.2,7.9,7.3s-1.6-9.1,3.4-9.8s9.6-2.7,3,17.8L27.1,123.7z"/>
	<path class="st2" d="M22.1,126.2c0,0,3.3-2.3,6.6-4.3c2.4-1.6,4.8-3.4,7-5.3"/>
</g>
<g id="l-calf">
	<path class="st0" d="M105.1,368.3c0,0-8.4,0.2-13.7,0.3c-3.4,0.1-8.6,3.5-13,4.4c-7.7-1.2-17.7-6.1-19.5-2.2
		c-3.2,7,0.8,15.9,18.9,14.8c18.1-1.1,20.8-0.2,30.1-0.7c0,0,1.7-3.6,0.3-10.1C107.8,373.1,105.1,368.3,105.1,368.3z"/>
	<path class="st3" d="M63.5,328.7c0,0,19.8,24.7,21.4,38.7c0,0,4.9,0,14.4,0c2.6,0,8.5,8.2,8.5,8.2s15.5-18.9,10-56
		c-2.9-19.6-17.9-16-31.3-8.2C78.2,316.4,70.5,322.2,63.5,328.7z"/>
	<path class="st2" d="M84.8,367.4c3.2-0.5,6.4-0.7,9.7-0.8c7.8,0.3,15.3,5.8,15.3,5.8"/>
</g>
<g id="l-thigh">
	<path id="v" class="st3" d="M73,235.3c0,0-15.3,24.1-16.6,63.9s29.8,49.9,48.2,42.7c1.5-0.6,6.1-7.7,6.8-9.2
		c2.7-5.9,7.2-14.7,13.4-26.7C137.5,280.8,76.8,221.7,73,235.3z"/>
	<path class="st4" d="M65.9,253.8c0,0,9-1,18.8,5.5c0,0-18.1,29.3-19.3,60.5c-2.7-2.2-5-4.8-6.8-7.8
		C58.5,312.1,53.2,290.2,65.9,253.8z"/>
</g>
<g id="r-calf">
	<path class="st0" d="M166.3,370.3c0,0-8.4,0.2-13.7,0.4c-3.4,0.1-4.2,2.7-8.6,3.6c-5.7-1.1-12.3,0-13.5,4.1
		c-3.2,11.4,11,9.2,19.1,9.4c8.1,0.1,10.3-0.3,19.6-0.8c0,0,1.7-3.6,0.3-10.1C169.1,375.1,166.3,370.3,166.3,370.3z"/>
	<path class="st5" d="M133.1,325c0,0,17.3,30.9,14.1,47.3c0,0-1.1-4.3,11.7-2.8c7.4,0.9,10.6,7.4,10.6,7.4s16.8-12.8,18.6-50.3
		c1-19.8-14.4-19.1-29.1-14.1C149.9,315.8,141.3,319.9,133.1,325z"/>
	<path class="st2" d="M146.4,369.5c3.7-1.8,7.8-2.4,11.8-1.7c11.7,2.1,13.9,9.1,13.9,9.1"/>
</g>
<g id="r-thigh">
	<path class="st5" d="M145.2,236.3c0,0-15.3,24.1-16.6,64c-1.3,39.8,29.9,49.9,48.2,42.7c1.5-0.6,6.1-7.7,6.8-9.2
		c2.7-5.9,7.2-14.7,13.4-26.7C209.7,281.9,149,222.8,145.2,236.3z"/>
	<path class="st4" d="M140.5,264.7c0,0,12.2-6.7,29.4,0.1c0,0-9.5,43.9-7.6,59.5c0,0-13.9,4.8-24.9-3.4
		C137.4,321,133.3,285.8,140.5,264.7z"/>
</g>
<g id="torso">
	<ellipse transform="matrix(0.9837 -0.18 0.18 0.9837 -31.5579 17.8982)" class="st0" cx="82.8" cy="182.8" rx="16.9" ry="35.5"/>
	<path id="torso-2" class="st5" d="M181.8,326.8c-12.8,7.8-33,1.4-55.3-3.1c-10.5-2.1-20.9-10.3-28.5-18.6
		c-10.3-11.4-18.7-20.5-24.4-49.2c-1.2-6.5-2-13-2.3-19.6c-3.3-66.6,5.8-88.5,5.8-88.5l16.9-2.4l80.4,2.7l30.4,14.1
		c0,0-11.8,57.4-14.1,76.8C207.1,286.8,203.3,313.7,181.8,326.8z"/>
	<path class="st4" d="M110.1,170c-6.9,60.1-8.2,104,19.5,153.7"/>
	<path class="st6" d="M193.8,246.9c0,0-24.9,7.4-64.7,5.8s-60.3-9.5-60.3-9.5l1-9.8c0,0,20,7.4,59.3,9.1s62.7-6.1,62.7-6.1
		L193.8,246.9z"/>
	<circle class="st7" cx="108.3" cy="246.9" r="13.6"/>
	
		<ellipse transform="matrix(0.2496 -0.9684 0.9684 0.2496 -40.1346 331.7529)" class="st0" cx="194" cy="191.8" rx="32.7" ry="16.9"/>
</g>
<path id="r-arm" class="st0" d="M189.6,165.1l20.1-21.6c0,0,8.7-6.3,17.1,1.3c6.6,6,8,14.1,5.7,20.1c-2.1,5.9-4.7,18.4-8.6,28.8
	c-7.4,19.7-28.7,28.1-28.7,28.1s-1.4,1.3-10.1-21.3C180.5,188.7,182.2,175.3,189.6,165.1z"/>
<path id="r-forearm" class="st0" d="M230.4,168c0,0,7.9-10.1,8.4-27c0.3-10.4-1.2-16.3-1.2-16.3c-1.8,0.3-3.7,0.3-5.6-0.1
	c-2.4-0.4-4.6-1.5-6.3-3.2c0,0-9.7,7.6-21.2,27.4S224.7,179.1,230.4,168z"/>
<g id="r-hand">
	<path class="st1" d="M234.1,125.9c4.3-1.4,8.7-2.3,13.2-2.7c6.6-0.3,11-4.6,7-6.6s-5.2,0.3-8.7,0s3.8-3.6,2.1-8.6s-6-8-10.6-3
		s-1.7,9.1-5.6,9.2s-1-9.2-6-8.5s-9.9,0,2,17.9L234.1,125.9z"/>
	<path class="st2" d="M239.6,127c0,0-3.8-1.3-7.5-2.4c-2.8-0.9-5.5-2-8.2-3.2"/>
</g>
<g id="head">
	<path class="st1" d="M225.3,57.6l-4,28.9c-1.2,8.5-7.6,15.2-16,16.8c-11.1,2.1-18.6,7.7-21.9,19.1c-5.2,17.6-8.6,35.3-8.6,35.3
		s-15.2,16-46.2,16s-39.3-9.5-39.3-9.5l-8.4-39.6c-1.4-5.5-12.7-15.7-17.4-19.3c-6.7-5.2-13.8-10.3-15-18.8l-4.1-28.9
		c-1.2-8.9,2-17.9,8.7-23.9c8.1-7.3,17.1-13.5,26.9-18.5c12.3-6.2,43.6-11.9,54.1-12.4c3.1-0.2,13.5-0.8,18.8,3.8
		c6.3,5.4-2.6,11.5-6.2,13.5c-11.3,6.3-46.3,15.5-45.9,33l14.3,7.2L167,53l0,0c7.8-21.7,11.8-26.7,0.5-33c-3.6-2-12.5-8.1-6.2-13.5
		C166.5,2,177,3.2,180,3.8c10.3,1.8,19.4,7,29.6,16.2C219.1,28.6,226.6,48.7,225.3,57.6z"/>
	<path class="st8" d="M82.6,38.3c0,3.5-5,6.3-11.2,6.3s-11.2-2.8-11.2-6.3s5-14.9,11.2-14.9S82.6,34.8,82.6,38.3z"/>
	<path class="st8" d="M109.3,19.3c0,2.2-3.2,4.1-7.3,4.1s-7.3-1.8-7.3-4.1S98,9.6,102,9.6S109.3,17,109.3,19.3z"/>
	<path class="st8" d="M143.6,9.7c0,2.3-3.3,4.1-7.3,4.1s-7.3-1.8-7.3-4.1s3.2-9.7,7.3-9.7S143.6,7.4,143.6,9.7z"/>
	<path class="st8" d="M191.9,38.3c0,3.5,5,6.3,11.2,6.3s11.2-2.8,11.2-6.3s-5-14.9-11.2-14.9S191.9,34.8,191.9,38.3z"/>
	<path class="st8" d="M184.6,19.3c0,2.2,3.2,4.1,7.3,4.1s7.3-1.8,7.3-4.1s-3.3-9.7-7.3-9.7S184.6,17,184.6,19.3z"/>
	<path class="st8" d="M166.2,9.7c0,2.3,3.2,4.1,7.3,4.1s7.3-1.8,7.3-4.1S177.5,0,173.5,0S166.2,7.4,166.2,9.7z"/>
	<path class="st9" d="M104,54.6c0,0-6.3-3.2-12.3-5.6c0,0,9-24.5,54.9-29C135.2,26.3,103.5,37.1,104,54.6z"/>
	<path class="st9" d="M178.1,49c-2.5,2.3-10.6,3.9-11.1,4c7.8-21.7,11.8-26.7,0.5-33C191.4,26.7,178.1,49,178.1,49z"/>
	<g>
		<defs>
			<path id="SVGID_1_" d="M65.4,77.5c0,0,15.1-8.8,24.1,4.4c5.3,7.7,6.7,17.4,3.7,26.3c0,0-14.9,4.5-25.7-9.9
				C60.3,88.7,65.4,77.5,65.4,77.5z"/>
		</defs>
		<clipPath id="SVGID_2_">
			<use xlink:href="#SVGID_1_"  style="overflow:visible;"/>
		</clipPath>
		<g class="st10">
			
				<rect x="61.2" y="72.9" transform="matrix(0.1547 -0.988 0.988 0.1547 -23.2053 155.6896)" class="st11" width="36.5" height="37.1"/>
			<circle class="st12" cx="86.7" cy="89.6" r="13.4"/>
			<circle cx="86.7" cy="89.6" r="6.1"/>
			<path class="st13" d="M95.6,108c0,0,1.1-19.1-7.6-26.5c-8.6-7.3-16.4-3.7-23.2-2c-7.1,1.7,12.4-11.9,12.4-11.9l25.5,12.9
				L95.6,108z"/>
		</g>
	</g>
	<g>
		<defs>
			<path id="SVGID_3_" d="M167.6,83.9c0,0-13.5-11.1-24.5,0.7c-6.4,6.8-9.3,16.2-7.7,25.4c0,0,14,6.8,26.9-5.8
				C170.8,95.7,167.6,83.9,167.6,83.9z"/>
		</defs>
		<clipPath id="SVGID_4_">
			<use xlink:href="#SVGID_3_"  style="overflow:visible;"/>
		</clipPath>
		<g class="st14">
			<rect x="133" y="77.2" class="st11" width="37.1" height="36.5"/>
			<circle class="st12" cx="156.1" cy="92.5" r="13.4"/>
			<circle cx="156.1" cy="92.5" r="6.1"/>
			<path class="st13" d="M133,109.3c0,0,1.9-19,11.6-25c9.6-5.9,16.8-1.2,23.3,1.6c6.7,2.8-10.4-13.7-10.4-13.7L130.3,81L133,109.3z
				"/>
		</g>
	</g>
	<path class="st13" d="M165.8,85c0.1,0.2,0.3,0.3,0.4,0.5l0,0l-0.1-0.1l-0.1-0.1L165.8,85l-0.8-0.4c-0.4-0.3-0.9-0.6-1.3-0.9
		c-0.9-0.5-1.8-1-2.8-1.5c-1.9-0.9-3.9-1.4-6-1.5c-2.1-0.1-4.1,0.2-6,1c-1.9,0.9-3.7,2.1-5.2,3.6c-3.1,3.1-5.5,7-7,11.2
		c-0.7,2.1-1.2,4.3-1.4,6.5c-0.3,2.2-0.2,4.5,0.1,6.8l0,0l-0.1-0.1c4,1.4,8.2,1.8,12.4,1.1c4.1-0.8,7.8-2.6,11-5.3
		c0.8-0.6,1.5-1.4,2.2-2.1c0.4-0.3,0.7-0.7,1-1.1c0.3-0.4,0.6-0.8,0.9-1.2c1.1-1.6,2-3.4,2.5-5.3c0.5-1.9,0.8-3.8,0.8-5.8
		c0-1-0.1-2-0.2-2.9c-0.1-0.5-0.1-1-0.2-1.4c-0.1-0.2-0.1-0.5-0.2-0.7l-0.1-0.3v-0.2l0,0c0,0.1,0,0.1,0.1,0.2
		C165.6,84.8,165.7,84.9,165.8,85z M169.3,82.7c0.1,0.2,0.2,0.4,0.2,0.6c0,0.1,0.1,0.2,0.1,0.2l0,0v0.2l0.1,0.4
		c0,0.3,0.1,0.6,0.1,0.9c0.1,0.6,0.1,1.2,0.1,1.7c0.1,1.1,0.1,2.3,0,3.4c-0.2,2.3-0.7,4.6-1.5,6.7c-0.8,2.2-2,4.2-3.4,5.9
		c-0.4,0.4-0.7,0.9-1.1,1.3c-0.4,0.4-0.8,0.8-1.2,1.2c-0.9,0.7-1.7,1.4-2.6,2.1c-3.6,2.6-7.8,4.2-12.2,4.7
		c-4.3,0.4-8.7-0.3-12.7-2.1h-0.1v-0.1l0,0c-0.5-2.3-0.7-4.6-0.6-6.9c0.1-2.3,0.4-4.6,1-6.9c1.2-4.5,3.4-8.8,6.5-12.3
		c1.6-1.9,3.5-3.4,5.6-4.6c1.1-0.6,2.3-1,3.5-1.3c1.2-0.3,2.5-0.5,3.7-0.5c2.5,0,5,0.4,7.3,1.3c1.2,0.4,2.3,0.9,3.4,1.5
		c0.5,0.3,1.1,0.6,1.6,0.9l0.8,0.5l0.4,0.3l0.2,0.1l0.1,0.1h0.1C169,82.3,169.2,82.5,169.3,82.7L169.3,82.7z"/>
	<path class="st13" d="M63.8,76.1c0.2-0.2,0.4-0.3,0.6-0.5h0.1l0.1-0.1l0.2-0.1l0.4-0.2l0.8-0.4c0.6-0.2,1.2-0.4,1.7-0.6
		c1.2-0.4,2.4-0.7,3.6-0.9c2.4-0.5,5-0.5,7.4-0.1c1.2,0.2,2.4,0.5,3.6,1c1.1,0.5,2.2,1.1,3.3,1.8c2,1.5,3.6,3.3,4.9,5.4
		c2.5,4,4,8.5,4.5,13.2c0.3,2.3,0.2,4.6-0.1,6.9c-0.3,2.3-0.8,4.5-1.7,6.7l0,0v0.1h-0.1c-4.2,1.2-8.6,1.2-12.8,0.1
		c-4.3-1.2-8.2-3.4-11.3-6.6c-0.8-0.8-1.5-1.6-2.2-2.4c-0.4-0.4-0.7-0.9-1-1.3c-0.4-0.5-0.7-0.9-1-1.4c-1.2-2-2-4.1-2.5-6.4
		c-0.5-2.3-0.6-4.6-0.4-6.9c0.1-1.1,0.2-2.3,0.5-3.4c0.1-0.6,0.2-1.1,0.4-1.7c0.1-0.3,0.2-0.6,0.2-0.8l0.2-0.4l0.1-0.2v-0.1
		c0-0.1,0.1-0.2,0.1-0.2C63.6,76.4,63.7,76.3,63.8,76.1z M67,79c0.1-0.1,0.2-0.2,0.3-0.3c0,0,0.1-0.2,0.1-0.1l0,0l-0.1,0.2L67.1,79
		c-0.1,0.2-0.2,0.4-0.3,0.7c-0.2,0.4-0.3,0.9-0.5,1.4c-0.3,0.9-0.5,1.9-0.6,2.9c-0.3,1.9-0.4,3.9-0.1,5.9c0.2,2,0.8,3.9,1.7,5.6
		c0.2,0.4,0.4,0.9,0.7,1.3c0.2,0.4,0.5,0.9,0.8,1.3c0.6,0.8,1.2,1.7,1.9,2.4c2.7,3.1,6.1,5.5,10,6.9c4,1.4,8.3,1.7,12.4,0.9
		l-0.1,0.1l0,0c0.7-2.2,1-4.4,1.1-6.6c0.1-2.2,0-4.5-0.4-6.7c-0.8-4.4-2.6-8.5-5.2-12.1c-1.2-1.7-2.8-3.2-4.5-4.4
		c-1.7-1.1-3.7-1.8-5.8-1.9c-2.1-0.2-4.1,0-6.1,0.6c-1,0.3-2,0.6-3,1c-0.5,0.2-1,0.4-1.4,0.7L67,79l-0.3,0.2l-0.2,0.1h-0.1l0,0
		C66.7,79.2,66.8,79.1,67,79z"/>
	<path class="st13" d="M54.8,73.5c2.4-3.8,6-6.8,10.1-8.5c7.1-3.1,12.3-1.7,12.3-1.7s-3.9-6.1-11.1-4.8S55.6,68.5,54.8,73.5z"/>
	<path class="st13" d="M176.8,75.7c-3-3.4-6.9-5.8-11.2-6.9c-7.5-2.1-12.4,0.2-12.4,0.2s2.9-6.6,10.3-6.4S175.3,70.8,176.8,75.7z"/>
	<path class="st15" d="M94.7,128.4c0,0,15.1,10.8,49.9,3.6c0,0-16.3,7.2-29.9,5.9C102.6,136.9,97.8,132,94.7,128.4z"/>
</g>
<g id="scarf">
	<path class="st7" d="M179.3,157.4c-15.1,22.5-44,52.3-70.1,52.3s-27.4-32.6-27.4-56.5c0-5.4,0.1-10.5,2-15.2
		c3.6,15.8,2.7,31.2,23.4,31.2c24.8,0,58.6-16.8,71.6-29.8C180.4,143.7,182,153.4,179.3,157.4z"/>
	<path class="st16" d="M83.4,139.8c0,0-4.8,43.9,30.5,43.9c38.2,0,65-44.3,65-44.3s-22.9,55.2-65.3,55.2
		C74.5,194.6,83.4,139.8,83.4,139.8z"/>
</g>
</svg>
