<?xml version="1.0" encoding="utf-8"?>
<!-- Generator: Adobe Illustrator 25.2.0, SVG Export Plug-In . SVG Version: 6.00 Build 0)  -->
<svg version="1.1" id="Layer_1" xmlns="http://www.w3.org/2000/svg" xmlns:xlink="http://www.w3.org/1999/xlink" x="0px" y="0px"
	 viewBox="0 0 212 390" style="enable-background:new 0 0 212 390;" xml:space="preserve">
<style type="text/css">
	.st0{fill:#16254F;}
	.st1{fill:#BCFC30;}
	.st2{fill:none;stroke:#D552C0;stroke-width:7;stroke-linecap:round;stroke-miterlimit:10;}
	.st3{fill:#1E3484;}
	.st4{fill:none;stroke:#16254F;stroke-miterlimit:10;}
	.st5{fill:#2A3D9B;}
	.st6{fill:#438BFF;}
	.st7{fill:#D552C0;}
	.st8{fill:#F2FFCF;}
	.st9{fill:#A8E00E;}
	.st10{clip-path:url(#SVGID_2_);}
	.st11{fill:#FFFFFF;}
	.st12{fill:#A114A5;}
	.st13{fill:#470B35;}
	.st14{fill:#B23BA4;}
</style>
<path id="b-arm" class="st0" d="M85.3,207.4l-28.2,9c0,0-10.7,1.2-14.3-9.5c-2.8-8.5,0-16.1,4.8-20.4c4.7-4.1,14.4-12.5,21.6-20.9
	c10.5-12.3,22.8-15.9,22.8-15.9s17.8,4.9,14.3,28.9C104.8,191.2,96.8,202.1,85.3,207.4z"/>
<path id="b-forearm" class="st0" d="M66.5,189.2c0,0-8.3-9.8-24.7-13.8c-10.1-2.5-16.2-2.2-16.2-2.2c-0.1,1.9-0.5,3.7-1.2,5.4
	c-0.8,2.3-2.4,4.2-4.4,5.5c0,0,5.5,11,22.5,26.4S76.3,197.1,66.5,189.2z"/>
<g id="b-hand">
	<path class="st1" d="M26.1,177c-0.5-4.5-0.5-9,0.1-13.4c1-6.6-2.3-11.7-5.1-8.2s-0.7,5.1-1.8,8.6s-2.8-4.4-8-3.8s-9,4.2-5.1,9.8
		s8.5,3.5,7.8,7.4s-9.2-0.9-9.5,4.1s-2,9.7,17.9,1.7L26.1,177z"/>
	<path class="st2" d="M28.2,171.8c0,0-2,3.5-3.8,6.9c-1.4,2.5-3,5-4.8,7.3"/>
</g>
<g id="b-calf">
	<path class="st0" d="M107.4,363c0,0-8.4,0.3-13.7,0.4c-3.4,0.1-8.6,3.6-12.9,4.5c-7.7-1.1-17.8-6-19.5-2c-3.2,7.1,1,15.9,19.1,14.7
		s20.8-0.4,30.1-0.9c0,0,1.6-3.6,0.2-10.1C110.2,367.8,107.4,363,107.4,363z"/>
	<path class="st3" d="M71.2,321.4c0,0,20.4,22.7,19.5,39.4c0,0,9.8,5.4,12.4,5.6s9.7,4.3,9.7,4.3s16.5-18,13.1-55.4
		c-1.8-19.7-16.9-17-30.8-9.9C82.6,311.7,71.2,321.4,71.2,321.4z"/>
	<path class="st2" d="M90.7,360.8c3.2,0.8,6.3,1.8,9.3,3c4.6,2.3,8.8,5.3,12.3,9"/>
</g>
<g id="b-thigh">
	<path class="st3" d="M81.4,229.5c0,0-15.3,24.1-16.6,64s29.8,49.9,48.2,42.7c1.5-0.6,6.1-7.7,6.8-9.2c2.7-5.9,7.2-14.7,13.4-26.7
		C145.8,275.1,85.1,216,81.4,229.5z"/>
	<path class="st4" d="M72.2,250.5c0,0,9-4.1,25.4,2.8c0,0-11.7,40.2-11.8,55.8c-5.3-0.6-10.6-1.5-15.8-2.7
		C69.9,306.4,62.1,271.7,72.2,250.5z"/>
</g>
<g id="torso">
	<path class="st5" d="M159.8,281.5c-2.3,15.2-25.6,37.6-48.4,37.6S64,294,58,279.3c-3.8-9.3-2.2-35.8-2.2-35.8s-8.9-33.2,3.4-61.7
		c9.6-22.2,13.3-23.8,13.3-23.8l77-17.1c0,0,4.4,9.5,6.5,34c1.2,13.8-7.8,56.9-7.8,56.9S162.3,264.5,159.8,281.5z"/>
	<path class="st6" d="M150.5,239.6c0,0-15.8,7.5-49.3,8.3s-47.4-6-47.4-6l-0.4-10.9c0,0,14.8,6.8,47.8,6s47.8-8.3,47.8-8.3
		L150.5,239.6z"/>
	<ellipse class="st7" cx="55.4" cy="239.6" rx="7.3" ry="13.6"/>
	<ellipse class="st0" cx="129.5" cy="189.6" rx="23" ry="32"/>
</g>
<g id="f-calf">
	<path class="st0" d="M119.2,367c0,0-8.4,0.3-13.7,0.4c-3.4,0.1-8.6,3.6-12.9,4.5c-7.7-1.1-17.8-6-19.5-2c-3.2,7.1,1,15.9,19.1,14.7
		s20.8-0.4,30.1-0.9c0,0,1.6-3.6,0.2-10.1C122,371.7,119.2,367,119.2,367z"/>
	<path class="st5" d="M83,325.3c0,0,20.4,22.7,19.5,39.4c0,0,9.8,5.4,12.4,5.6s9.7,4.3,9.7,4.3s16.5-18,13.1-55.4
		c-1.8-19.7-16.9-17-30.8-9.9C98.4,313.9,90.4,319.2,83,325.3z"/>
	<path class="st2" d="M102.5,364.8c3.2,0.8,6.3,1.8,9.3,3c4.6,2.3,8.8,5.3,12.3,9"/>
</g>
<g id="f-thigh">
	<path class="st5" d="M89.1,251.8c0,0-11.2,5.8-12.6,45.6s29.8,49.9,48.2,42.7c1.5-0.6,6.1-7.7,6.8-9.2c2.7-5.9,7.2-14.7,13.4-26.7
		C157.7,279,123.8,245.5,89.1,251.8z"/>
	<path class="st4" d="M84,254.5c0,0,9-4.1,25.4,2.8c0,0-11.7,40.2-11.9,55.8c-5.3-0.6-10.6-1.5-15.8-2.7
		C81.8,310.3,74,275.6,84,254.5z"/>
</g>
<g id="head">
	<path class="st8" d="M136.1,31.6c1.5,2.4-1.6,7-6.8,10.3s-10.7,4-12.2,1.7s-2.1-12.9,3.1-16.2S134.6,29.2,136.1,31.6z"/>
	<path class="st8" d="M155,19.8c1.2,1.9-0.7,5.2-4.1,7.3s-7.2,2.2-8.3,0.3s-2.2-10,1.2-12S153.8,17.8,155,19.8z"/>
	<path class="st9" d="M184.6,8.1c-1.9-2.5-9.5-4.4-15.1-2c-15.7,6.9-37.7,32-60.6,40.9C78.4,61.5,78.4,64.1,78.4,64.1l34.5,26.2
		c0,0,51.6-10.3,47.2-21.8c-10-26.4,10.1-37,18.6-52.5C180.6,12.5,187,11.4,184.6,8.1z"/>
	<path class="st1" d="M198.8,18.6c-4.8-4.1-15.3-11.2-19.6-13c-4.7-1.9-16.2,1-11.2,10.1c4.6,8.5,12.8,16.9-32.2,30.9
		c-8.9,2.8-20.4,2.1-39,7.5c-6.5,1.9-20.7,7.3-23.3,13.5c-8.8,21-8.8,50.2-8.8,50.2s9-1,18.2-1.9c-7.1,2.4-13.6,4.4-17.2,5.3
		c2.4,16.4,5.5,26.1,8.2,45.2c2.7,19.6,40.3-14.6,76.3-23.4c0.6-12.5,2.8-24.9,6.5-36.8c2.4-8.2,5.8-16.1,9.9-23.6
		c4.2-3.2,8.2-6.6,11.9-10.2C191,60.4,221.2,38,198.8,18.6z"/>
	<path class="st8" d="M168.8,9.6c1.1,1.6-0.2,4.4-3,6.4s-5.9,2.4-7.1,0.8s-2.6-8.3,0.2-10.3S167.6,8,168.8,9.6z"/>
	<path class="st8" d="M170.9,38c0.8,2.7-3.4,6.3-9.4,8s-11.4,1-12.2-1.7s1.4-13,7.4-14.7S170.1,35.3,170.9,38z"/>
	<path class="st8" d="M188.8,21.3c1,2-1.1,5.1-4.8,6.9s-7.3,1.5-8.3-0.5s-1.3-10.1,2.3-11.9S187.8,19.3,188.8,21.3z"/>
	<path class="st8" d="M181.6,9.6c1.1,1.6-0.2,4.4-3,6.4s-5.9,2.4-7.1,0.8s-2.6-8.3,0.2-10.3S180.5,8,181.6,9.6z"/>
	<path class="st9" d="M166.5,82.7c-4.1,7.5-7.5,15.4-9.9,23.6c-7.8,3.7-16,6.6-24.4,8.7c-5.9,1.6-12.2,1.6-18.1-0.1
		c7.4-0.1,14.6-2,22.7-11.4C142.8,96.6,153.2,92.7,166.5,82.7z"/>
	<g>
		<defs>
			<path id="SVGID_1_" d="M94.8,78.8c0,0-9-7.2-17.2,0.7C66,90.6,72.7,106,72.7,106s7.1,3.4,14.9-5.4C94.8,92.6,94.8,78.8,94.8,78.8
				z"/>
		</defs>
		<clipPath id="SVGID_2_">
			<use xlink:href="#SVGID_1_"  style="overflow:visible;"/>
		</clipPath>
		<g class="st10">
			<rect x="67.6" y="72.2" class="st11" width="37.1" height="36.5"/>
			
				<ellipse transform="matrix(5.442741e-02 -0.9985 0.9985 5.442741e-02 -17.0298 164.5309)" class="st12" cx="78.4" cy="91.3" rx="13.3" ry="6.5"/>
			<ellipse transform="matrix(5.442741e-02 -0.9985 0.9985 5.442741e-02 -17.0298 164.5309)" cx="78.4" cy="91.3" rx="6.1" ry="3"/>
			<path class="st13" d="M67.6,104.3c0,0,1.9-19,11.6-25c9.6-5.9,15.1,4.4,21.5,7.1c6.7,2.8-8.7-19.2-8.7-19.2L64.9,76L67.6,104.3z"
				/>
		</g>
	</g>
	<path class="st13" d="M92.8,79.8c0.1,0.2,0.2,0.4,0.4,0.5l0.1,0.1h0.1l0,0l-0.1-0.1L93,80.1l-0.5-0.4c-0.4-0.2-0.7-0.5-1.1-0.7
		c-0.8-0.4-1.6-0.7-2.4-1c-1.6-0.5-3.3-0.7-5-0.4c-3.4,0.5-6.2,3.2-8.5,6.2c-2.2,3.1-3.6,6.7-3.9,10.5c-0.3,3.9,0.1,7.8,1.4,11.5
		l-0.1-0.1l0,0c1.5,0.5,3.2,0.6,4.8,0.3c1.6-0.3,3.1-0.9,4.4-1.8c2.7-1.8,4.9-4.1,6.5-6.9c1.6-2.8,2.7-5.8,3.2-9
		c0.3-1.6,0.5-3.2,0.7-4.8c0.1-0.8,0.1-1.6,0.1-2.4v-1.2v-1C92.6,79.2,92.7,79.5,92.8,79.8z M96.7,77.9c0.1,0.4,0.2,0.7,0.2,1.1v0.2
		v0.3l-0.1,0.7l-0.1,1.3c-0.1,0.9-0.2,1.7-0.4,2.6c-0.3,1.7-0.7,3.4-1.2,5.1c-1,3.4-2.5,6.6-4.5,9.5c-2,2.9-4.7,5.3-7.8,6.9
		c-3.1,1.7-6.8,2-10.1,0.7l0,0h-0.1v-0.1c-1.6-3.7-2.4-7.7-2.3-11.8c0-4.2,1.2-8.2,3.3-11.8c0.5-0.9,1.2-1.7,1.8-2.6
		c0.7-0.8,1.4-1.6,2.2-2.3c1.6-1.5,3.6-2.7,5.8-3.2c2.2-0.6,4.5-0.6,6.7-0.1c1.1,0.2,2.1,0.6,3.2,1c0.5,0.2,1,0.5,1.5,0.7
		c0.2,0.1,0.5,0.3,0.7,0.4l0.4,0.2L96,77H96l0.1,0.1l0.2,0.1C96.4,77.4,96.6,77.7,96.7,77.9z"/>
	<path class="st13" d="M100.2,75.9c-1.9-3.6-4.8-6.5-8.4-8.3c-6-3-10.4-1.4-10.4-1.4s3.4-6.1,9.6-5S99.7,70.9,100.2,75.9z"/>
</g>
<g id="scarf">
	<path class="st7" d="M154.5,140.8c0.3,1,0.3,2,0,3c-0.4,1.2-0.9,2.3-1.7,3.3c0,0-19.3-6.6-42.2,22.1s-41.9,36.3-52.2,31.7
		c-8.8-4-7.2-10-2-22.7l0.7-1.7l0,0c-4.4-4.9-1.1-12.5,1.1-16.4c3.3-5.8,12.3-13.2,12.3-13.2s2.3,12.5,3.1,17.6
		c9.2-2.8,12.8-9.3,31.1-16.6c15.6-6.1,31.7-10.9,48.1-14.4c5.1,0.8,1,4.3,1.7,7.2C154.4,140.7,154.5,140.8,154.5,140.8z"/>
	<path class="st14" d="M154.5,143.8c-12.9,1-36.7,5.9-52.5,18.8c-18.5,15.1-27.6,29.8-39.3,27.7c-8.9-1.6-7.5-8.8-6.3-12.2
		c0.2-0.6,0.4-1.1,0.7-1.7l0,0c0,0,4.5,4.2,13.7,1.9c6.7-1.7,26.3-24.9,58.7-32.9c8.2-2.1,16.6-3.8,25-4.9c0,0.1,0,0.2,0.1,0.3
		C154.8,141.8,154.8,142.9,154.5,143.8z"/>
</g>
<path id="f-arm" class="st0" d="M164.4,179.5l15,25.5c0,0,3.6,10.1-6.1,16c-7.7,4.6-15.7,3.6-20.9-0.2c-5-3.7-15.4-11.3-25.1-16.4
	c-14.3-7.6-17.9-10-17.9-10s-6.8-36.4,20.1-36.8C151.3,157.3,164.4,179.5,164.4,179.5z"/>
<path id="f-forearm" class="st0" d="M152.6,197.5c0,0-9.4,8.7-12.8,25.2c-2.1,10.2-1.6,16.2-1.6,16.2c1.9,0,3.7,0.3,5.5,1
	c2.3,0.7,4.3,2.2,5.7,4.2c0,0,10.8-6,25.5-23.5S160.1,187.4,152.6,197.5z"/>
<g id="f-hand">
	<path class="st1" d="M142,238.4c-4.4,0.7-9,0.9-13.4,0.4c-6.6-0.8-11.6,2.8-8,5.4s5.2,0.5,8.6,1.5s-4.3,3-3.5,8.2s4.6,8.8,10,4.7
		s3.1-8.6,7.1-8.1s-0.5,9.2,4.5,9.4s9.8,1.6,1-18L142,238.4z"/>
	<path class="st2" d="M136.8,236.4c0,0,3.6,1.9,7,3.6c2.6,1.3,5.1,2.8,7.6,4.5"/>
</g>
</svg>
