<?xml version="1.0" encoding="utf-8"?>
<!-- Generator: Adobe Illustrator 25.2.0, SVG Export Plug-In . SVG Version: 6.00 Build 0)  -->
<svg version="1.1" id="Layer_1" xmlns="http://www.w3.org/2000/svg" xmlns:xlink="http://www.w3.org/1999/xlink" x="0px" y="0px"
	 viewBox="0 0 281 378" style="enable-background:new 0 0 281 378;" xml:space="preserve">
<style type="text/css">
	.st0{fill:#2A3D9B;}
	.st1{fill:#16254F;}
	.st2{fill:none;stroke:#16254F;stroke-miterlimit:10;}
	.st3{fill:#438BFF;}
	.st4{fill:#D552C0;}
	.st5{fill:#BCFC30;}
	.st6{fill:none;stroke:#D552C0;stroke-width:7;stroke-linecap:round;stroke-miterlimit:10;}
	.st7{fill:#F8FFE1;}
	.st8{fill:#A8E00E;}
	.st9{clip-path:url(#SVGID_2_);}
	.st10{fill:#FFFFFF;}
	.st11{fill:#A114A5;}
	.st12{fill:#470B35;}
	.st13{clip-path:url(#SVGID_4_);}
	.st14{fill:#74B221;}
	.st15{fill:#B23BA4;}
	.st16{fill:#1E3484;}
</style>
<g id="torso">
	<path class="st0" d="M220.3,165l-8.1,74.1l1.6,7.7l-7.4,54.5l-0.4,4.5l-1,11.6c0,0-2.5,0.9-6.5,2.1c-9.3,2.8-18.7,4.8-28.3,6.1
		c-9,1.2-18.2,1.2-27.2,0c-8.6-1.1-17.1-2.9-25.5-5.3c-5.7-1.6-9.3-2.9-9.3-2.9l-1.8-18.9l0,0l-7.2-51.7l1.7-7.7L92.7,165l21.5-16.8
		h84.6L220.3,165z"/>
	
		<ellipse transform="matrix(0.9898 -0.1428 0.1428 0.9898 -27.2274 15.9835)" class="st1" cx="97.7" cy="197.7" rx="13.8" ry="33.1"/>
	
		<ellipse transform="matrix(0.1428 -0.9898 0.9898 0.1428 -11.1348 382.4459)" class="st1" cx="215.2" cy="197.7" rx="33.1" ry="13.8"/>
	<line class="st2" x1="156.5" y1="172.7" x2="156.5" y2="326.5"/>
	<path class="st3" d="M215.2,243.5c0,0-18.8,6.7-58.7,6.7s-58.7-6.7-58.7-6.7l1.8-10.2c0,0,17.6,6.7,56.8,6.7s56.8-6.7,56.8-6.7
		L215.2,243.5z"/>
	<circle class="st4" cx="156.5" cy="246.9" r="13.6"/>
</g>
<path id="l-arm" class="st1" d="M102.5,230.4l-42.6-2.1c0,0-16.8,0.1-19.5-10.9c-2.1-8.7,1.2-16.1,6.5-19.9c5-3.7,14.5-12.4,23.2-19
	c13.7-10.5,24-14,24-14s12.1,18.1,14.6,28.8C111.7,205.8,102.5,230.4,102.5,230.4z"/>
<path id="l-forearm" class="st1" d="M54.5,227.7c0,0-12.6-2.2-24.4-14.3c-7.2-7.5-10.1-12.8-10.1-12.8c1.6-1,3-2.3,4.1-3.8
	c1.5-1.9,2.4-4.2,2.5-6.6c0,0,12.3-0.8,34.1,6S66.3,232.1,54.5,227.7z"/>
<g id="l-hand">
	<path class="st5" d="M27.3,194c-0.2-4.5,0.2-9,1.2-13.4c1.6-6.5-1.4-11.8-4.4-8.6s-1.1,5.1-2.5,8.3s-2.4-4.6-7.6-4.4
		s-9.3,3.5-5.9,9.3s8.2,4.1,7.2,8s-9.1-1.6-9.9,3.3s-2.8,9.6,17.8,3.1L27.3,194z"/>
	<path class="st6" d="M29.9,189c0,0-2.3,3.3-4.4,6.5c-1.6,2.4-3.4,4.8-5.4,7"/>
</g>
<path id="r-arm" class="st1" d="M210.5,230.4l11.6,12.2c0,0,8.7,6.3,17.1-1.3c6.6-6,8-14,5.8-20.1c-2.1-5.9-5.1-18.3-8.6-28.8
	c-5.5-16.4-12.1-25-12.1-25s-8.5,2.7-13.7,26.3C203.4,225.8,210.5,230.4,210.5,230.4z"/>
<path id="r-foarearm" class="st1" d="M234.6,246.1c0,0,12.2-3.8,22.4-17.3c6.2-8.3,8.4-14,8.4-14c-1.7-0.8-3.2-1.9-4.5-3.3
	c-1.7-1.7-2.9-3.8-3.3-6.2c0,0-12.3,0.7-33.1,10.2C203.6,225.1,223.4,251.9,234.6,246.1z"/>
<g id="l-thigh">
	<path class="st0" d="M144.4,312.9c-0.5,4.8-1,9.1-1.5,12.6l0,0c-11.5-1.1-16.2-3.4-24.8-4c-2-0.1-4.1-0.2-6.1-0.1
		c-14.6,0.5-28.6-9.6-35.2-24.4c-6.1-13.5-6-22.3,4-35.3c6.5-8.5,11.7-13.5,18.6-17.9c10.7,5,42.4,8.3,42.4,8.3
		C146.7,261.3,147.9,281.3,144.4,312.9z"/>
	<path class="st2" d="M101.8,250.1c0,0,20.8,1,29,13.3c-6.2,4.1-11.8,9.1-16.6,14.8c0,0-21.3-16.3-35.6-10.1
		C78.6,268.1,89.5,256.2,101.8,250.1z"/>
</g>
<g id="r-thigh">
	<path class="st0" d="M168.6,312.9c0.5,4.8,1.1,9.1,1.5,12.6l0,0c11.5-1.1,16.2-3.4,24.8-4c2-0.1,4.1-0.2,6.1-0.1
		c14.6,0.5,28.6-9.6,35.2-24.4c6.1-13.5,6-22.3-4-35.3c-6.5-8.5-11.7-13.5-18.6-17.9c-10.7,5-42.4,8.3-42.4,8.3
		C166.4,261.3,165.1,281.3,168.6,312.9z"/>
	<path class="st2" d="M211.2,250.1c0,0-20.8,1-29,13.3c6.2,4.1,11.8,9.1,16.6,14.8c0,0,21.3-16.3,35.6-10.1
		C234.4,268.1,223.5,256.2,211.2,250.1z"/>
</g>
<g id="head">
	<path class="st5" d="M246.9,60.4l-4,29c-1.2,8.5-7.6,15.2-16,16.8c-11.1,2.1-19.9,10.4-22.7,21.3l-5.4,21.6
		c0,0-11.4,27.5-42.3,27.5s-42.3-27.5-42.3-27.5l-5.4-21.6c-2.7-10.9-11.6-19.3-22.7-21.3c-8.4-1.6-14.8-8.3-16-16.8l-4-28.9
		c-1.2-8.9,2-17.9,8.7-23.9c8.1-7.3,17.1-13.6,26.8-18.6c12.3-6.2,21.6-9.6,32-11.4c3.1-0.5,13.5-1.8,18.8,2.8
		c6.3,5.4-2.6,11.5-6.2,13.5c-11.3,6.3-22.2,15.5-21.7,33l32.1,7.2l32.1-7.2c0.5-17.5-10.4-26.7-21.7-33c-3.6-2-12.5-8.1-6.2-13.5
		c5.3-4.5,15.7-3.3,18.8-2.8c10.3,1.8,19.7,5.1,32,11.4c9.7,5,18.7,11.2,26.8,18.6C245,42.5,248.2,51.5,246.9,60.4z"/>
	<path class="st7" d="M104.2,41c0,3.5-5,6.3-11.2,6.3S81.7,44.5,81.7,41s5-14.9,11.2-14.9S104.2,37.5,104.2,41z"/>
	<path class="st7" d="M116.7,22c0,2.2-3.3,4.1-7.3,4.1s-7.3-1.8-7.3-4.1s3.2-9.7,7.3-9.7S116.7,19.7,116.7,22z"/>
	<path class="st7" d="M141,12.4c0,2.3-3.3,4.1-7.3,4.1s-7.3-1.8-7.3-4.1s3.2-9.7,7.3-9.7S141,10.1,141,12.4z"/>
	<path class="st7" d="M208.8,41c0,3.5,5,6.3,11.2,6.3s11.2-2.8,11.2-6.3s-5-14.9-11.2-14.9S208.8,37.5,208.8,41z"/>
	<path class="st7" d="M196.4,22c0,2.2,3.2,4.1,7.3,4.1s7.3-1.8,7.3-4.1s-3.3-9.7-7.3-9.7S196.4,19.7,196.4,22z"/>
	<path class="st7" d="M172,12.4c0,2.3,3.2,4.1,7.3,4.1s7.3-1.8,7.3-4.1s-3.3-9.7-7.3-9.7S172,10.1,172,12.4z"/>
	<path class="st8" d="M124.4,55.7c0,0-5.1-1.6-11.2-4c0,0,9-22.3,32.9-29C134.8,29.1,124,38.2,124.4,55.7z"/>
	<path class="st8" d="M188.6,55.7c0,0,5.1-1.6,11.2-4c0,0-9-22.3-32.9-29C178.2,29.1,189.1,38.2,188.6,55.7z"/>
	<g>
		<defs>
			<path id="SVGID_1_" d="M102.2,86.2c0,0,13.6-11.1,24.5,0.7c6.4,6.8,9.3,16.2,7.7,25.4c0,0-14,6.8-26.9-5.8
				C98.9,98,102.2,86.2,102.2,86.2z"/>
		</defs>
		<clipPath id="SVGID_2_">
			<use xlink:href="#SVGID_1_"  style="overflow:visible;"/>
		</clipPath>
		<g class="st9">
			<rect x="99.6" y="79.5" class="st10" width="37.1" height="36.5"/>
			<circle class="st11" cx="125.1" cy="94.8" r="13.4"/>
			<circle cx="125.1" cy="94.8" r="6.1"/>
			<path class="st12" d="M136.7,111.6c0,0-1.9-19-11.6-25c-9.6-5.9-16.8-1.2-23.3,1.6c-6.7,2.8,10.4-13.7,10.4-13.7l27.2,8.8
				L136.7,111.6z"/>
		</g>
	</g>
	<g>
		<defs>
			<path id="SVGID_3_" d="M208.3,86.2c0,0-13.5-11.1-24.5,0.7c-6.4,6.8-9.3,16.2-7.7,25.4c0,0,14,6.8,26.9-5.8
				C211.6,98,208.3,86.2,208.3,86.2z"/>
		</defs>
		<clipPath id="SVGID_4_">
			<use xlink:href="#SVGID_3_"  style="overflow:visible;"/>
		</clipPath>
		<g class="st13">
			<rect x="173.8" y="79.5" class="st10" width="37.1" height="36.5"/>
			<circle class="st11" cx="196.9" cy="94.8" r="13.4"/>
			<circle cx="196.9" cy="94.8" r="6.1"/>
			<path class="st12" d="M173.8,111.6c0,0,1.9-19,11.6-25c9.6-5.9,16.8-1.2,23.3,1.6c6.7,2.8-10.4-13.7-10.4-13.7l-27.2,8.8
				L173.8,111.6z"/>
		</g>
	</g>
	<path class="st12" d="M206.5,87.3c0.1,0.2,0.3,0.3,0.4,0.5l0,0l-0.1-0.1l-0.1-0.1L206.5,87.3l-0.7-0.4c-0.4-0.3-0.9-0.6-1.3-0.9
		c-0.9-0.5-1.8-1-2.8-1.5c-1.9-0.9-3.9-1.4-6-1.5c-2.1-0.1-4.1,0.2-6,1c-1.9,0.9-3.7,2.1-5.2,3.6c-3.1,3.1-5.5,7-7,11.2
		c-0.7,2.1-1.2,4.3-1.4,6.5c-0.3,2.2-0.2,4.5,0.1,6.8l0,0l-0.1-0.1c4,1.4,8.2,1.8,12.4,1.1c4.1-0.8,7.8-2.6,11-5.3
		c0.8-0.6,1.5-1.4,2.2-2.1c0.4-0.3,0.7-0.7,1-1.1c0.3-0.4,0.6-0.8,0.9-1.2c1.1-1.6,2-3.4,2.5-5.3c0.5-1.9,0.8-3.8,0.8-5.8
		c0-1-0.1-2-0.2-2.9c-0.1-0.5-0.1-1-0.2-1.4c0-0.2-0.1-0.5-0.2-0.7l-0.1-0.3l-0.1-0.2l0,0c0,0,0,0.1,0,0.2
		C206.3,87.1,206.4,87.2,206.5,87.3z M210.1,85c0.1,0.2,0.2,0.4,0.2,0.6l0.1,0.2l0,0V86l0.1,0.4c0.1,0.3,0.1,0.6,0.1,0.9
		c0.1,0.6,0.1,1.2,0.1,1.7c0.1,1.1,0,2.3-0.1,3.4c-0.2,2.3-0.7,4.6-1.5,6.7c-0.8,2.2-2,4.2-3.4,5.9c-0.7,0.9-1.5,1.7-2.4,2.4
		c-0.9,0.7-1.7,1.4-2.6,2.1c-3.6,2.6-7.8,4.2-12.2,4.7c-4.3,0.5-8.7-0.2-12.6-2h-0.1v-0.1l0,0c-0.5-2.3-0.7-4.6-0.6-6.9
		c0.1-2.3,0.4-4.6,1-6.9c1.2-4.5,3.5-8.8,6.5-12.3c1.6-1.9,3.5-3.4,5.6-4.6c1.1-0.6,2.3-1,3.5-1.3c1.2-0.3,2.5-0.5,3.7-0.5
		c2.5,0,5,0.4,7.3,1.3c1.2,0.4,2.3,0.9,3.4,1.5c0.5,0.3,1.1,0.6,1.6,0.9l0.8,0.5l0.4,0.3l0.2,0.1l0.1,0.1l0,0
		C209.7,84.6,209.9,84.8,210.1,85z"/>
	<path class="st12" d="M100.4,85c0.1-0.2,0.3-0.4,0.5-0.5h0.1l0.1-0.1l0.2-0.1l0.4-0.3l0.8-0.5c0.5-0.3,1.1-0.6,1.6-0.9
		c1.1-0.6,2.2-1,3.4-1.5c2.3-0.9,4.8-1.3,7.3-1.3c1.3,0,2.5,0.2,3.7,0.5c1.2,0.3,2.4,0.8,3.5,1.3c2.2,1.2,4.1,2.7,5.6,4.6
		c3.1,3.6,5.3,7.8,6.5,12.3c0.6,2.2,0.9,4.5,1,6.9c0.1,2.3-0.1,4.6-0.6,6.9l0,0v0.1h-0.1c-4,1.8-8.3,2.5-12.7,2.1
		c-4.4-0.5-8.6-2.1-12.2-4.7c-0.9-0.6-1.7-1.4-2.6-2.1c-0.4-0.4-0.8-0.8-1.2-1.2c-0.4-0.4-0.8-0.8-1.2-1.2c-1.5-1.8-2.7-3.8-3.4-5.9
		c-0.8-2.2-1.3-4.4-1.5-6.7c-0.1-1.1-0.1-2.3,0-3.4c0-0.6,0.1-1.2,0.2-1.7c0-0.3,0-0.6,0.1-0.9l0.1-0.4v-0.2l0,0c0,0,0-0.2,0.1-0.2
		C100.2,85.4,100.3,85.2,100.4,85z M104,87.3c0.1-0.1,0.1-0.2,0.2-0.4c0,0,0-0.1,0-0.2l0,0V87l-0.1,0.3l-0.2,0.7
		c-0.1,0.5-0.2,1-0.2,1.4c-0.1,1-0.2,2-0.2,2.9c0,2,0.2,3.9,0.8,5.8c0.5,1.9,1.4,3.7,2.5,5.3c0.3,0.4,0.6,0.8,0.9,1.2
		c0.3,0.4,0.6,0.8,1,1.1c0.8,0.7,1.4,1.5,2.2,2.1c3.2,2.7,6.9,4.5,11,5.3c4.1,0.7,8.4,0.4,12.4-1.1l-0.1,0.1l0,0
		c0.3-2.2,0.4-4.5,0.1-6.8c-0.2-2.2-0.7-4.4-1.5-6.5c-1.5-4.2-3.9-8-7-11.2c-1.5-1.5-3.2-2.8-5.2-3.6c-1.9-0.8-3.9-1.1-6-1
		c-2.1,0.1-4.1,0.7-6,1.5c-1,0.4-1.9,0.9-2.8,1.5c-0.4,0.3-0.9,0.6-1.3,0.9L104,87.3l-0.2,0.3l-0.1,0.1l-0.1,0.1l0,0
		C103.7,87.7,103.9,87.5,104,87.3L104,87.3z"/>
	<path class="st12" d="M90.9,79.8c2.4-3.8,6-6.8,10.1-8.5c7.1-3.1,12.3-1.7,12.3-1.7s-3.9-6.1-11.2-4.8S91.7,74.8,90.9,79.8z"/>
	<path class="st12" d="M222.1,79.8c-2.4-3.8-6-6.8-10.1-8.5c-7.1-3.1-12.2-1.7-12.2-1.7s3.9-6.1,11.1-4.8S221.4,74.8,222.1,79.8z"/>
	<path class="st14" d="M127.2,125.6c0,0,22.8,8.3,57.7,1.1c0,0-11.6,4.9-29.5,6C143.1,133.5,130.3,129.2,127.2,125.6z"/>
</g>
<g id="scarf">
	<path class="st14" d="M111.7,142.5c0,0,10,23.4,44.3,23.4s44.9-22,44.9-22s-3.8,53.4-44.9,53.4S111.7,142.5,111.7,142.5z"/>
	<path class="st4" d="M203.4,155.9c0,23.9-21.2,56.5-47.3,56.5s-47.3-32.6-47.3-56.5c0-5.2,1-10.4,3-15.2
		c4.9,15.3,18.3,31.2,42.4,31.2c24.8,0,43.1-14.6,46.9-29.8C202.6,146.5,203.4,151.2,203.4,155.9z"/>
	<path class="st15" d="M111.7,142.5c0,0,6.4,43.9,44.6,43.9s44.6-44.3,44.6-44.3s-5.8,55.2-44.9,55.2S111.7,142.5,111.7,142.5z"/>
</g>
<g id="r-hand">
	<circle class="st4" cx="255.5" cy="214.6" r="11.1"/>
	<path class="st5" d="M250.7,211.2c0.3-3.1,4.1-4.7,4.9-11.3s5.5-10.5,7.2-6.4s-0.7,5.1-0.7,8.7s3.9-3.5,8.8-1.4s7.5,6.6,2.1,10.8
		s-9.2,0.9-9.6,4.9s5.9,2.1,8,6.6c1.2,2.5,1.8,8.4-17-2C252.1,219.8,249.9,219.5,250.7,211.2z"/>
</g>
<path id="shadow" class="st16" d="M210.1,298.4l-4,7.2l-7.6,13.7l-1.1,2c-10.2,0.2-14.7,2.9-27.2,4.1l0,0c-9,1.2-18.2,1.2-27.2,0
	l0,0c-11.5-1.1-16.2-3.4-24.8-4l-0.7-1.3l-11.1-21.8l0,0l0,0c0.4,0.5,10,11.8,38.1,14.5c3.7,0.4,7.7,0.5,12.1,0.5s8.4-0.2,12.1-0.5
	c20.3-1.9,32.3-8.1,37.8-11.7C207.7,300.3,208.9,299.4,210.1,298.4z"/>
<g id="r-calf">
	<path class="st0" d="M239.2,289.4c0,0-17.9,44.2-20.6,61.4c0,0-8.7,0.5-11.3,1s-9.4,5-9.4,5s-17.8-16.8-17.1-54.3
		c0.4-19.8,15.1-21.4,30.9-22.1C225.7,279.7,239.2,289.4,239.2,289.4z"/>
	<g id="foot">
		<path class="st1" d="M203.4,349.3c0,0,8.1,0.1,13.2,1.8c3.2,1.1,7.1,6,11,8.1c7.7,1.2,9.9,0.6,10.4,4.9c0.9,7.7-6.9,11-24.9,8.6
			c-9-1.2-8.5-7.9-17.2-11.1c0,0-0.5-4,2.8-9.7C199.5,350.3,203.4,349.3,203.4,349.3z"/>
		<path class="st6" d="M220.2,349.5c-3.3-0.2-6.5-0.2-9.8,0.1c-5.1,0.8-9.9,2.5-14.4,5"/>
	</g>
</g>
<g id="l-calf">
	<path class="st1" d="M109.4,346.6l-13,4.5c-3.2,1.1-7.1,6-11,8.1c-7.7,1.2-9.8,0.6-10.4,4.9c-0.9,7.7,6.9,11,24.9,8.6
		c9-1.2,8.5-7.9,17.2-11.1c0,0,0.5-4-2.8-9.7C113.5,350.3,109.4,346.6,109.4,346.6z"/>
	<path class="st0" d="M73.8,289.4c0,0,17.9,44.2,20.6,61.4c0,0,8.7,0.5,11.3,1s9.4,5,9.4,5s17.8-16.8,17-54.3
		c-0.3-19.8-15-21.4-30.8-22.1C87.3,279.7,73.8,289.4,73.8,289.4z"/>
	<path class="st6" d="M92.8,349.5c3.3-0.2,6.5-0.2,9.8,0.1c5.1,0.8,9.9,2.5,14.4,5"/>
</g>
</svg>
