<?xml version="1.0" encoding="utf-8"?>
<!-- Generator: Adobe Illustrator 25.2.0, SVG Export Plug-In . SVG Version: 6.00 Build 0)  -->
<svg version="1.1" id="Layer_1" xmlns="http://www.w3.org/2000/svg" xmlns:xlink="http://www.w3.org/1999/xlink" x="0px" y="0px"
	 viewBox="0 0 195.9 365" style="enable-background:new 0 0 195.9 365;" xml:space="preserve">
<style type="text/css">
	.st0{fill:#16254F;}
	.st1{fill:#1E3484;}
	.st2{fill:none;stroke:#D552C0;stroke-width:7;stroke-linecap:round;stroke-miterlimit:10;}
	.st3{fill:none;stroke:#16254F;stroke-miterlimit:10;}
	.st4{fill:#2A3D9B;}
	.st5{fill:#BCFC30;}
	.st6{fill:#438BFF;}
	.st7{fill:#D552C0;}
	.st8{fill:#F2FFCF;}
	.st9{fill:#A8E00E;}
	.st10{clip-path:url(#SVGID_2_);}
	.st11{fill:#FFFFFF;}
	.st12{fill:#A114A5;}
	.st13{fill:#470B35;}
	.st14{fill:#B23BA4;}
</style>
<g id="b-calf">
	<path class="st0" d="M53.2,342.5c0,0-9-3.2-14.3-3.5c-3.3-0.2-8.9,2.7-13.3,3.2c-7.6-1.9-17.1-7.7-19.2-3.9
		c-3.8,6.7-0.6,15.9,17.5,16.5s20.7,1.7,30,2c0,0,2-3.5,1.2-10C54.8,345.2,54.1,343.8,53.2,342.5z"/>
	<path class="st1" d="M23.2,297.1c0,0,8.5,21.8,12.9,39c0,0,9.2,6.3,11.8,6.8s9.2,5.2,9.2,5.2s18.2-16.3,18.5-53.8
		c0.2-19.8-15.2-18.5-29.7-12.9C33,286.4,23.2,297.1,23.2,297.1z"/>
	<path class="st2" d="M36.2,336.1c3.1,1.1,6.1,2.4,9,3.9c4.3,2.7,8.2,6.1,11.3,10.2"/>
</g>
<g id="b-thigh">
	<path class="st1" d="M107.3,229.7c0,0-28.6,0.6-62.5,21.5S19.8,303.7,36,315c1.3,0.9,9.8,0.8,11.4,0.5c6.4-1,16.2-2.1,29.7-3.7
		C105.1,308.6,120.7,225.3,107.3,229.7z"/>
	<path class="st3" d="M68.1,246.2c0,0,21.9-2.7,28.4,10.1c0,0-39.9,12.5-53,21c-3.1-3.3-7.6-5-12.1-4.7
		C31.4,272.6,44.9,249.5,68.1,246.2z"/>
</g>
<g id="torso">
	<path class="st4" d="M148.8,281.9c-2.3,15.2-25.6,37.6-48.4,37.6S53,294.3,47,279.6c-3.8-9.3-2.2-35.8-2.2-35.8s-8.9-33.2,3.4-61.7
		c9.6-22.2,13.3-23.9,13.3-23.9l77-17.1c0,0,4.4,9.5,6.5,34c1.2,13.8-7.8,56.9-7.8,56.9S151.3,264.8,148.8,281.9z"/>
	<ellipse class="st0" cx="118.5" cy="189.9" rx="23" ry="32"/>
</g>
<path id="b-arm" class="st0" d="M85.1,126.5l-24.7-16.3c0,0-9.9-4.1-16.3,5.3c-5,7.4-4.4,15.5-0.9,20.9c3.4,5.2,10.5,16,15.1,25.9
	c6.8,14.7,17.7,21.4,17.7,21.4s18.4,0.1,21.6-23.9C99.5,147.4,94.8,134.7,85.1,126.5z"/>
<path id="b-forearm" class="st0" d="M46.2,138.9c0,0-10-8-14.5-24.3c-2.8-10-2.7-16.1-2.7-16.1c1.9-0.1,3.7-0.6,5.4-1.4
	c2.2-0.9,4.1-2.5,5.4-4.6c0,0,11.2,5.2,27,21.7S54.4,148.4,46.2,138.9z"/>
<g id="b-hand">
	<path class="st5" d="M32.8,98.9c-4.5-0.4-9-0.2-13.4,0.5c-6.5,1.2-11.7-2-8.3-4.8s5.1-0.9,8.5-2.1s-4.5-2.7-4.1-7.9
		s3.9-9.1,9.6-5.4s3.7,8.4,7.6,7.6s-1.2-9.2,3.8-9.7s9.7-2.3,2.3,17.9L32.8,98.9z"/>
	<path class="st2" d="M27.7,101.1c0,0,3.4-2.1,6.7-4c2.5-1.5,4.9-3.2,7.2-5"/>
</g>
<g id="f-thigh">
	<path class="st4" d="M135.8,235.1c0,0-28.6,0.6-62.5,21.5s-25,52.5-8.9,63.8c1.3,0.9,9.8,0.8,11.4,0.5c6.4-1,16.2-2.1,29.7-3.7
		C133.5,314.1,149.1,230.8,135.8,235.1z"/>
	<path class="st3" d="M96.5,251.7c0,0,22-2.7,28.4,10.1c0,0-39.9,12.5-53,21c-3.1-3.3-7.6-5-12.1-4.7
		C59.8,278.1,73.4,255,96.5,251.7z"/>
</g>
<g id="f-calf">
	<path class="st4" d="M50.2,295.6c0,0,2.8,23.3,2.9,41c0,0,7.4,8.4,9.7,9.5s7.7,7.3,7.7,7.3s21.6-11.3,31.2-47.6
		c5-19.2-10.1-21.7-25.6-19.8C62.3,287.6,50.2,295.6,50.2,295.6z"/>
	<path class="st0" d="M68.3,348.1c0,0-8.2-6.3-13.2-8c-3.2-1-9.3,0.5-13.7-0.2c-6.9-3.7-14.7-11.7-17.7-8.6
		c-5.4,5.6-4.5,15.3,12.9,20.3s19.7,6.7,28.6,9.4c0,0,2.8-2.9,3.6-9.4C69,350.4,68.8,349.2,68.3,348.1z"/>
	<path class="st2" d="M53.2,336.6c2.7,1.8,5.3,3.8,7.8,6c3.5,3.7,6.4,8,8.5,12.7"/>
</g>
<g id="belt">
	<path class="st6" d="M139.5,239.9c0,0-15.8,7.5-49.3,8.3s-47.4-6-47.4-6l-0.4-10.9c0,0,14.8,6.8,47.8,6s47.8-8.3,47.8-8.3
		L139.5,239.9z"/>
	<ellipse class="st7" cx="44.4" cy="239.9" rx="7.3" ry="13.6"/>
</g>
<g id="head">
	<path class="st8" d="M125.1,31.9c1.5,2.4-1.6,7-6.8,10.3s-10.7,4-12.2,1.7s-2.1-12.9,3.1-16.2S123.6,29.5,125.1,31.9z"/>
	<path class="st8" d="M144,20.1c1.2,1.9-0.7,5.2-4.1,7.3s-7.2,2.2-8.3,0.3s-2.2-9.9,1.2-12S142.8,18.2,144,20.1z"/>
	<path class="st9" d="M173.6,8.5c-1.9-2.5-9.5-4.4-15.1-2c-15.7,6.9-37.7,32-60.7,40.8C67.3,61.8,67.3,64.4,67.3,64.4l34.5,26.2
		c0,0,51.6-10.3,47.2-21.8c-10-26.4,10.1-37,18.6-52.5C169.6,12.8,176,11.7,173.6,8.5z"/>
	<path class="st5" d="M187.8,19c-4.8-4.1-15.3-11.2-19.6-13C163.5,4.1,152,7,157,16c4.6,8.5,12.7,17-32.2,30.9
		c-8.9,2.8-20.4,2.1-39,7.5c-6.5,1.9-20.7,7.3-23.3,13.5c-8.8,21-8.8,50.2-8.8,50.2s9-1,18.2-1.9c-7.1,2.4-13.6,4.4-17.2,5.3
		c2.4,16.4,5.5,26.1,8.2,45.2c2.7,19.6,40.3-14.6,76.3-23.4c0.6-12.5,2.8-24.9,6.5-36.8c2.4-8.2,5.7-16.2,9.9-23.7
		c4.2-3.2,8.2-6.6,11.9-10.2C180,60.7,210.2,38.4,187.8,19z"/>
	<path class="st8" d="M157.8,9.9c1.1,1.6-0.2,4.5-3,6.5s-5.9,2.4-7.1,0.8s-2.6-8.3,0.2-10.3S156.6,8.4,157.8,9.9z"/>
	<path class="st8" d="M159.9,38.3c0.8,2.7-3.4,6.3-9.4,8s-11.4,1-12.2-1.7s1.4-13,7.4-14.7S159.1,35.7,159.9,38.3z"/>
	<path class="st8" d="M177.8,21.6c1,2-1.1,5.1-4.8,6.8s-7.3,1.5-8.3-0.5s-1.3-10.1,2.3-11.9S176.8,19.6,177.8,21.6z"/>
	<path class="st8" d="M170.6,9.9c1.1,1.6-0.2,4.5-3,6.5s-5.9,2.4-7.1,0.8s-2.6-8.3,0.2-10.3S169.5,8.4,170.6,9.9z"/>
	<path class="st9" d="M155.5,83c-4.1,7.5-7.5,15.4-9.9,23.6c-7.8,3.7-16,6.6-24.4,8.6c-5.9,1.6-12.2,1.6-18.1,0
		c7.4-0.1,14.6-2,22.7-11.4C131.8,96.9,142.2,93.1,155.5,83z"/>
	<g>
		<defs>
			<path id="SVGID_1_" d="M83.8,79.2c0,0-9-7.2-17.2,0.7c-11.6,11.1-4.9,26.5-4.9,26.5s7.1,3.4,14.9-5.4
				C83.8,92.9,83.8,79.2,83.8,79.2z"/>
		</defs>
		<clipPath id="SVGID_2_">
			<use xlink:href="#SVGID_1_"  style="overflow:visible;"/>
		</clipPath>
		<g class="st10">
			<rect x="56.6" y="72.5" class="st11" width="37.1" height="36.5"/>
			
				<ellipse transform="matrix(5.442741e-02 -0.9985 0.9985 5.442741e-02 -27.7649 153.8595)" class="st12" cx="67.4" cy="91.6" rx="13.3" ry="6.5"/>
			<ellipse transform="matrix(5.442741e-02 -0.9985 0.9985 5.442741e-02 -27.7649 153.8595)" cx="67.4" cy="91.6" rx="6.1" ry="3"/>
			<path class="st13" d="M56.6,104.6c0,0,1.9-19,11.6-25c9.6-5.9,15.1,4.4,21.5,7.1c6.7,2.8-8.7-19.2-8.7-19.2l-27.2,8.8L56.6,104.6
				z"/>
		</g>
	</g>
	<path class="st13" d="M81.8,80.1c0.1,0.2,0.2,0.4,0.4,0.5l0.1,0.1h0.1l0,0l-0.1-0.1L82,80.5c-0.2-0.1-0.3-0.3-0.5-0.4
		c-0.4-0.2-0.7-0.5-1.1-0.7c-0.8-0.4-1.6-0.7-2.4-1c-1.6-0.5-3.3-0.7-5-0.4c-3.4,0.5-6.2,3.2-8.5,6.2c-2.2,3.1-3.6,6.7-3.9,10.5
		c-0.3,3.9,0.1,7.8,1.4,11.5l-0.1-0.1l0,0c1.5,0.5,3.2,0.6,4.8,0.3c1.6-0.3,3.1-0.9,4.4-1.8c2.7-1.8,4.9-4.1,6.5-6.9
		c1.6-2.8,2.7-5.8,3.2-9c0.3-1.6,0.5-3.2,0.7-4.8c0.1-0.8,0.1-1.6,0.1-2.4v-1.2v-1C81.6,79.6,81.7,79.8,81.8,80.1z M85.7,78.2
		c0.1,0.4,0.2,0.7,0.2,1.1v0.2v0.3l-0.1,0.7l-0.1,1.3c-0.1,0.9-0.2,1.7-0.4,2.6c-0.3,1.7-0.7,3.4-1.2,5.1c-1,3.4-2.5,6.6-4.5,9.5
		c-2,2.9-4.7,5.2-7.8,6.9c-3.1,1.7-6.8,2-10.1,0.7l0,0h-0.1v-0.1c-1.6-3.7-2.4-7.7-2.3-11.8c0-4.2,1.2-8.2,3.3-11.8
		c0.5-0.9,1.2-1.7,1.8-2.5c0.7-0.8,1.4-1.6,2.2-2.3c1.6-1.5,3.6-2.7,5.8-3.2c2.2-0.6,4.5-0.6,6.7-0.1c1.1,0.2,2.1,0.6,3.2,1
		c0.5,0.2,1,0.5,1.5,0.7c0.2,0.1,0.5,0.3,0.7,0.4l0.4,0.2l0.2,0.1H85l0.1,0.1l0.2,0.1C85.4,77.8,85.6,78,85.7,78.2z"/>
	<path class="st13" d="M89.2,76.3c-1.9-3.6-4.8-6.5-8.4-8.3c-6-3-10.4-1.4-10.4-1.4s3.4-6.1,9.6-5S88.7,71.2,89.2,76.3z"/>
</g>
<g id="scarf">
	<path class="st7" d="M143.5,141.2c0.3,1,0.3,2,0,3c-0.4,1.2-0.9,2.3-1.7,3.3c0,0-19.3-6.6-42.2,22.1s-41.9,36.3-52.2,31.7
		c-8.8-4-7.2-10-2-22.7l0.7-1.7l0,0c-4.4-4.9-1.1-12.5,1.1-16.4c3.3-5.8,12.3-13.2,12.3-13.2s2.3,12.5,3.1,17.6
		c9.2-2.8,12.8-9.3,31.1-16.6c15.6-6.1,31.7-10.9,48.1-14.4c5.1,0.8,1,4.3,1.7,7.2C143.4,141,143.5,141.1,143.5,141.2z"/>
	<path class="st14" d="M143.5,144.2c-12.9,1-36.7,5.9-52.5,18.8c-18.5,15.1-27.6,29.8-39.3,27.7c-8.9-1.6-7.5-8.8-6.3-12.2
		c0.2-0.6,0.4-1.1,0.7-1.7l0,0c0,0,4.5,4.2,13.7,1.9c6.7-1.7,26.3-24.9,58.7-32.9c8.2-2.1,16.6-3.8,25-4.9c0,0.1,0,0.2,0.1,0.3
		C143.8,142.2,143.8,143.2,143.5,144.2z"/>
</g>
<path id="f-arm" class="st0" d="M151.6,193l0.7,29.6c0,0-1.8,10.6-13.2,11c-8.9,0.3-15.5-4.5-18.2-10.4c-2.6-5.7-7.9-17.4-13.9-26.6
	c-8.8-13.6-5.7-21.6-5.7-21.6s6.6-20.5,28.6-10.4C141.5,169.7,149.7,180.4,151.6,193z"/>
<path id="f-forearm" class="st0" d="M120.4,219.5c0,0,1.4,12.7,12.9,25.2c7,7.7,12.2,10.8,12.2,10.8c1.1-1.5,2.4-2.8,4-3.9
	c1.9-1.4,4.3-2.2,6.7-2.1c0,0,1.6-12.2-4-34.4S116.7,207.4,120.4,219.5z"/>
<g id="f-hand">
	<path class="st5" d="M147.2,252c-2,4-4.6,7.7-7.6,11.1c-4.5,4.9-4.6,11-0.3,9.6s3.5-3.9,6.2-6.1s-0.1,5.2,4.5,7.6s9.8,1.5,9.7-5.3
		s-5.1-7.6-2.4-10.5s7.1,5.9,10.2,1.9s7.1-7-13.9-11.4L147.2,252z"/>
	<path class="st2" d="M142.5,255.2c0,0,3.6-1.8,7-3.6c2.6-1.3,5.3-2.5,8.1-3.5"/>
</g>
</svg>
