<?xml version="1.0" encoding="utf-8"?>
<!-- Generator: Adobe Illustrator 25.2.0, SVG Export Plug-In . SVG Version: 6.00 Build 0)  -->
<svg version="1.1" id="Layer_1" xmlns="http://www.w3.org/2000/svg" xmlns:xlink="http://www.w3.org/1999/xlink" x="0px" y="0px"
	 viewBox="0 0 240 389.6" style="enable-background:new 0 0 240 389.6;" xml:space="preserve">
<style type="text/css">
	.st0{fill:#16254F;}
	.st1{fill:#BCFC30;}
	.st2{fill:none;stroke:#D552C0;stroke-width:7;stroke-linecap:round;stroke-miterlimit:10;}
	.st3{fill:#2A3D9B;}
	.st4{fill:none;stroke:#16254F;stroke-miterlimit:10;}
	.st5{fill:#438BFF;}
	.st6{fill:#D552C0;}
	.st7{fill:#F8FFE1;}
	.st8{fill:#A8E00E;}
	.st9{clip-path:url(#SVGID_2_);}
	.st10{fill:#FFFFFF;}
	.st11{fill:#A114A5;}
	.st12{fill:#470B35;}
	.st13{clip-path:url(#SVGID_4_);}
	.st14{fill:#74B221;}
	.st15{fill:#B23BA4;}
</style>
<path id="r-arm" class="st0" d="M172.8,160.5l15.3-7.1c0,0,10.4-2.6,15.4,7.6c3.9,8.1,2.2,16-2.1,20.8c-4.2,4.7-9.6,15.4-16.7,23.8
	c-11.2,13.2-19.7,20.1-19.7,20.1s-9.6-7.2-5.7-31.1C164.5,162.2,172.8,160.5,172.8,160.5z"/>
<path id="r-forearm" class="st0" d="M198.2,183.9c0,0,11-6.5,17.8-22c4.1-9.5,4.9-15.6,4.9-15.6c-1.8-0.4-3.6-1.1-5.1-2.1
	c-2.1-1.2-3.7-3.1-4.7-5.3c0,0-11.8,3.6-29.8,17.7S188.7,192.2,198.2,183.9z"/>
<path class="st1" d="M217.1,146.2c4.5,0.2,8.9,1.1,13.2,2.4c6.3,2.1,11.9-0.3,8.9-3.6s-5-1.6-8.1-3.2s4.8-2,5.1-7.2
	s-2.6-9.6-8.8-6.7s-4.9,7.8-8.6,6.4s2.5-8.9-2.4-10.1s-9.2-3.7-4.8,17.4L217.1,146.2z"/>
<path class="st2" d="M221.8,149.2c0,0-3.1-2.6-6.1-5c-2.3-1.9-4.4-3.9-6.4-6"/>
<g id="l-calf">
	<path class="st0" d="M57,369H43.3c-3.4,0-8.7,3.3-13.1,4.1c-7.7-1.3-17.6-6.5-19.5-2.6c-3.4,7,0.4,15.9,18.6,15.3s20.8,0.3,30.1,0
		c0,0,1.8-3.6,0.6-10.1C59.6,373.8,57,369,57,369z"/>
	<path class="st3" d="M40.2,318.6c0,0,8.6,34.4,1.1,49.4c0,0,8.1,3.3,10.4,4.6s7.2,7.8,7.2,7.8s22.3-10,33.9-45.7
		c6.1-18.8-8.8-22.2-24.4-21.3C58.9,314.2,49.5,315.9,40.2,318.6z"/>
	<path class="st2" d="M40.3,366.2c3.2,0.8,6.2,1.9,9.2,3.3c4.5,2.4,8.6,5.6,12,9.4"/>
</g>
<g id="torso">
	<path class="st3" d="M159,331.7c0,0-25.6-8-48.4-8s-48.4,8-48.4,8s-20.4-32.8-21.4-45.3c-1.1-13,14.1-50.1,14.1-50.1l-8.1-74.1
		l21.5-16.8h84.6l21.5,16.8l-8.1,74.1c0,0,15.2,37.1,14.1,50.1C179.3,298.9,159,331.7,159,331.7z"/>
	<path class="st0" d="M65.4,193c2.6,18.1-1.4,33.6-8.9,34.7S40.7,215,38.1,196.9s2.1-30.6,8.5-34.7C53.7,157.8,62.8,174.9,65.4,193z
		"/>
	<path class="st0" d="M155.6,193c-2.6,18.1,1.4,33.6,8.9,34.7c7.6-9.1,13.7-14.8,18.4-30.8c5.1-17.5-2.2-31-8.9-34.7
		S158.2,174.9,155.6,193z"/>
	<line class="st4" x1="110.5" y1="170" x2="110.5" y2="323.7"/>
	<g id="belt">
		<path class="st5" d="M169.2,240.8c0,0-18.8,6.7-58.7,6.7s-58.7-6.7-58.7-6.7l1.8-10.1c0,0,17.6,6.7,56.8,6.7s56.8-6.7,56.8-6.7
			L169.2,240.8z"/>
		<circle class="st6" cx="110.5" cy="244.2" r="13.6"/>
	</g>
</g>
<g id="l-thigh">
	<path class="st3" d="M51.9,244.2c0,0-12.4,16.3-13.8,56.1S68,350.2,86.4,343c1.5-0.6,6.1-7.7,6.8-9.2c2.7-5.9,7.2-14.7,13.4-26.7
		C119.3,281.9,76.8,246.9,51.9,244.2z"/>
	<path class="st4" d="M52.6,254.9c10.9,1.3,21.5,4.1,31.6,8.3c0,0-20,42.1-20.1,57.7c-7.6-0.2-14.9-2.9-20.7-7.8
		C43.4,313.2,42.6,276.1,52.6,254.9z"/>
</g>
<g id="r-calf">
	<path class="st0" d="M164,369h13.7c3.4,0,8.7,3.3,13.1,4.1c7.6-1.3,17.6-6.5,19.5-2.6c3.4,7-0.4,15.9-18.6,15.3s-20.8,0.3-30.1,0
		c0,0-1.8-3.6-0.6-10.1C161.4,373.8,164,369,164,369z"/>
	<path class="st3" d="M180.8,318.6c0,0-8.6,34.4-1.1,49.4c0,0-8.1,3.3-10.4,4.6s-7.2,7.8-7.2,7.8s-22.3-10-33.9-45.7
		c-6.1-18.8,8.9-22.2,24.4-21.3C162.1,314.2,171.5,315.9,180.8,318.6z"/>
	<path class="st2" d="M180.7,366.2c-3.2,0.8-6.2,1.9-9.2,3.3c-4.5,2.4-8.6,5.6-12,9.4"/>
</g>
<g id="r-thigh">
	<path class="st3" d="M169.2,240.8c0,0,12.3,19.7,13.7,59.5S153,350.2,134.6,343c-1.5-0.6-6.1-7.7-6.8-9.2
		c-2.7-5.9-7.2-14.7-13.4-26.7C101.7,281.9,141.3,253.9,169.2,240.8z"/>
	<path class="st4" d="M168.4,254.9c-10.9,1.3-21.5,4.1-31.6,8.3c0,0,20,42.1,20.1,57.7c7.6-0.2,14.9-2.9,20.7-7.8
		C177.6,313.2,178.4,276.1,168.4,254.9z"/>
</g>
<g id="head">
	<path class="st1" d="M200.9,57.6l-4,28.9c-1.2,8.5-7.6,15.2-16,16.8c-11.1,2.1-19.9,10.4-22.7,21.3l-5.4,21.6
		c0,0-11.4,27.5-42.3,27.5s-42.3-27.5-42.3-27.5l-5.4-21.6c-2.7-10.9-11.6-19.3-22.7-21.3c-8.4-1.6-14.8-8.3-16-16.8l-4.1-28.9
		c-1.2-8.9,2-17.9,8.7-23.9c8.1-7.3,17.1-13.5,26.8-18.5c12.3-6.2,21.6-9.6,32-11.4c3.1-0.5,13.5-1.8,18.8,2.8
		c6.3,5.4-2.6,11.5-6.2,13.5C88.8,26.3,78,35.5,78.4,53l32.1,7.2l32.1-7.2c0.5-17.5-10.4-26.7-21.7-33c-3.6-2-12.5-8.1-6.2-13.5
		c5.3-4.5,15.7-3.3,18.8-2.8c10.3,1.8,19.7,5.1,32,11.4c9.7,5,18.7,11.2,26.8,18.6C199,39.8,202.2,48.7,200.9,57.6z"/>
	<path class="st7" d="M58.2,38.3c0,3.5-5,6.3-11.2,6.3s-11.2-2.8-11.2-6.3s5-14.9,11.2-14.9S58.2,34.8,58.2,38.3z"/>
	<path class="st7" d="M70.7,19.3c0,2.2-3.3,4.1-7.3,4.1s-7.3-1.8-7.3-4.1s3.2-9.7,7.3-9.7S70.7,17,70.7,19.3z"/>
	<path class="st7" d="M95,9.7c0,2.3-3.3,4.1-7.3,4.1s-7.3-1.8-7.3-4.1S83.7,0,87.7,0C91.8,0,95,7.4,95,9.7z"/>
	<path class="st7" d="M162.8,38.3c0,3.5,5,6.3,11.2,6.3s11.2-2.8,11.2-6.3s-5-14.9-11.2-14.9S162.8,34.8,162.8,38.3z"/>
	<path class="st7" d="M150.4,19.3c0,2.2,3.2,4.1,7.3,4.1s7.3-1.8,7.3-4.1s-3.3-9.7-7.3-9.7S150.4,17,150.4,19.3z"/>
	<path class="st7" d="M126,9.7c0,2.3,3.2,4.1,7.3,4.1s7.3-1.8,7.3-4.1S137.3,0,133.3,0S126,7.4,126,9.7z"/>
	<path class="st8" d="M78.4,53c0,0-5.1-1.6-11.2-4c0,0,9-22.3,32.9-29C88.8,26.3,78,35.5,78.4,53z"/>
	<path class="st8" d="M142.6,53c0,0,5.1-1.6,11.2-4c0,0-9-22.3-32.9-29C132.2,26.3,143.1,35.5,142.6,53z"/>
	<g>
		<defs>
			<path id="SVGID_1_" d="M56.2,83.4c0,0,13.6-11.1,24.5,0.7c6.4,6.8,9.3,16.2,7.7,25.4c0,0-14,6.8-26.9-5.8
				C52.9,95.3,56.2,83.4,56.2,83.4z"/>
		</defs>
		<clipPath id="SVGID_2_">
			<use xlink:href="#SVGID_1_"  style="overflow:visible;"/>
		</clipPath>
		<g class="st9">
			<rect x="53.6" y="76.8" class="st10" width="37.1" height="36.5"/>
			<circle class="st11" cx="79.1" cy="92.1" r="13.4"/>
			<circle cx="79.1" cy="92.1" r="6.1"/>
			<path class="st12" d="M90.7,108.9c0,0-1.9-19-11.6-25c-9.6-5.9-16.8-1.2-23.3,1.6c-6.7,2.8,10.4-13.7,10.4-13.7l27.2,8.8
				L90.7,108.9z"/>
		</g>
	</g>
	<g>
		<defs>
			<path id="SVGID_3_" d="M162.3,83.4c0,0-13.5-11.1-24.5,0.7c-6.4,6.8-9.3,16.2-7.7,25.4c0,0,14,6.8,26.9-5.8
				C165.6,95.3,162.3,83.4,162.3,83.4z"/>
		</defs>
		<clipPath id="SVGID_4_">
			<use xlink:href="#SVGID_3_"  style="overflow:visible;"/>
		</clipPath>
		<g class="st13">
			<rect x="127.8" y="76.8" class="st10" width="37.1" height="36.5"/>
			<circle class="st11" cx="150.9" cy="92.1" r="13.4"/>
			<circle cx="150.9" cy="92.1" r="6.1"/>
			<path class="st12" d="M127.8,108.9c0,0,1.9-19,11.6-25c9.6-5.9,16.8-1.2,23.3,1.6c6.7,2.8-10.4-13.7-10.4-13.7l-27.2,8.8
				L127.8,108.9z"/>
		</g>
	</g>
	<path class="st12" d="M160.5,84.6c0.1,0.2,0.3,0.3,0.4,0.5l0,0h-0.1l-0.1-0.1l-0.3-0.2l-0.6-0.5c-0.4-0.3-0.9-0.6-1.3-0.9
		c-0.9-0.5-1.8-1-2.8-1.5c-1.9-0.9-3.9-1.4-6-1.5c-2.1-0.1-4.1,0.2-6,1c-1.9,0.9-3.7,2.1-5.2,3.6c-3.1,3.1-5.5,6.9-7,11.1
		c-0.7,2.1-1.2,4.3-1.4,6.6c-0.3,2.2-0.2,4.5,0.1,6.7l0,0l-0.1-0.1c4,1.4,8.2,1.8,12.4,1.1c4.1-0.8,7.8-2.6,11-5.3
		c0.8-0.6,1.5-1.4,2.2-2.1c0.4-0.4,0.7-0.7,1-1.1c0.3-0.4,0.6-0.8,0.9-1.2c1.1-1.6,2-3.4,2.5-5.3c0.5-1.9,0.8-3.8,0.8-5.8
		c0-1-0.1-2-0.2-2.9c-0.1-0.5-0.1-1-0.2-1.4c0-0.2-0.1-0.5-0.2-0.7l-0.1-0.3l-0.1-0.2l0,0c0,0,0,0.1,0,0.2
		C160.3,84.4,160.4,84.5,160.5,84.6z M164.1,82.3c0.1,0.2,0.2,0.4,0.2,0.6l0.1,0.2v0.1v0.2l0.1,0.4c0.1,0.3,0.1,0.6,0.1,0.9
		c0.1,0.6,0.1,1.2,0.1,1.7c0.1,1.1,0,2.3-0.1,3.4c-0.2,2.3-0.7,4.6-1.5,6.7c-0.8,2.2-2,4.2-3.4,5.9c-0.4,0.4-0.7,0.9-1.1,1.3
		c-0.4,0.4-0.8,0.8-1.2,1.2c-0.9,0.7-1.7,1.4-2.6,2.1c-3.6,2.6-7.8,4.2-12.2,4.7c-4.3,0.4-8.7-0.3-12.7-2.1h-0.1v-0.1l0,0
		c-0.5-2.2-0.7-4.5-0.6-6.9c0.1-2.3,0.4-4.6,1-6.9c1.2-4.5,3.4-8.8,6.5-12.3c1.6-1.9,3.5-3.4,5.6-4.6c1.1-0.6,2.3-1,3.5-1.3
		c1.2-0.3,2.5-0.5,3.7-0.5c2.5,0,5,0.4,7.3,1.3c1.2,0.4,2.3,0.9,3.4,1.5c0.5,0.3,1.1,0.6,1.6,0.9l0.8,0.5l0.4,0.3l0.2,0.1l0.1,0.1
		l0,0C163.8,81.9,163.9,82.1,164.1,82.3L164.1,82.3z"/>
	<path class="st12" d="M54.4,82.3c0.1-0.2,0.3-0.4,0.5-0.5h0.1l0.1-0.1l0.2-0.1l0.4-0.3l0.8-0.5c0.5-0.3,1.1-0.6,1.6-0.9
		c1.1-0.6,2.2-1,3.4-1.5c2.3-0.9,4.8-1.3,7.3-1.3c2.5,0,5,0.6,7.2,1.8c2.2,1.2,4.1,2.7,5.6,4.6c3.1,3.6,5.3,7.8,6.5,12.3
		c0.6,2.2,0.9,4.5,1,6.9c0.1,2.3-0.1,4.6-0.6,6.9l0,0v0.1h-0.1c-4,1.8-8.3,2.5-12.7,2.1c-4.4-0.5-8.6-2.1-12.2-4.7
		c-0.9-0.6-1.7-1.4-2.6-2.1c-0.4-0.4-0.8-0.7-1.2-1.2c-0.4-0.4-0.8-0.8-1.2-1.3c-1.5-1.7-2.6-3.7-3.4-5.9c-0.8-2.2-1.3-4.4-1.5-6.7
		c-0.1-1.1-0.1-2.3,0-3.4c0-0.6,0.1-1.2,0.2-1.7c0-0.3,0-0.6,0.1-0.9l0.1-0.4v-0.2v-0.1c0,0,0-0.2,0.1-0.2
		C54.2,82.7,54.3,82.5,54.4,82.3z M58,84.6c0.1-0.1,0.1-0.2,0.2-0.4c0,0,0-0.1,0-0.2l0,0v0.2l-0.1,0.3L58,85.3
		c-0.1,0.5-0.2,1-0.2,1.4c-0.1,1-0.2,2-0.2,2.9c0,2,0.2,3.9,0.8,5.8c0.5,1.9,1.4,3.7,2.5,5.3c0.3,0.4,0.6,0.8,0.9,1.2
		c0.3,0.4,0.6,0.8,1,1.1c0.8,0.7,1.4,1.4,2.2,2.1c6.4,5.6,15.4,7.2,23.4,4.2l-0.1,0.1l0,0c0.3-2.2,0.4-4.5,0.1-6.7
		c-0.2-2.2-0.7-4.4-1.5-6.6c-1.5-4.2-3.9-8-7-11.1c-1.5-1.5-3.2-2.8-5.2-3.6c-1.9-0.8-3.9-1.1-6-1c-2.1,0.1-4.1,0.7-6,1.5
		c-1,0.4-1.9,0.9-2.8,1.5c-0.4,0.3-0.9,0.6-1.3,0.9L58,84.6l-0.2,0.3L57.6,85h-0.1l0,0C57.7,84.9,57.9,84.8,58,84.6z"/>
	<path class="st12" d="M44.9,77.1c2.4-3.8,6-6.7,10.1-8.5c7.1-3.1,12.3-1.7,12.3-1.7s-3.9-6.1-11.2-4.8S45.7,72,44.9,77.1z"/>
	<path class="st12" d="M176.1,77.1c-2.4-3.8-6-6.7-10.1-8.5c-7.1-3.1-12.2-1.7-12.2-1.7s3.9-6.1,11.1-4.8S175.4,72,176.1,77.1z"/>
	<path class="st14" d="M81.2,122.9c0,0,22.8,8.3,57.7,1.1c0,0-11.6,4.9-29.5,6C97.1,130.8,84.3,126.5,81.2,122.9z"/>
</g>
<g id="scarf">
	<path class="st14" d="M65.7,139.8c0,0,10,23.4,44.3,23.4s44.9-22,44.9-22s-3.8,53.4-44.9,53.4S65.7,139.8,65.7,139.8z"/>
	<path class="st6" d="M157.4,153.2c0,23.9-21.2,56.5-47.3,56.5s-47.3-32.6-47.3-56.5c0-5.2,1-10.4,3-15.2
		c4.9,15.3,18.3,31.2,42.4,31.2c24.8,0,43.1-14.6,46.9-29.8C156.6,143.8,157.4,148.5,157.4,153.2z"/>
	<path class="st15" d="M65.7,139.8c0,0,6.4,43.9,44.6,43.9s44.6-44.3,44.6-44.3s-5.8,55.2-44.9,55.2S65.7,139.8,65.7,139.8z"/>
</g>
<path id="l-arm" class="st0" d="M51.1,224.1l-25.9,11.4c0,0-10.2,3.4-16-6.3c-4.6-7.7-3.4-15.8,0.5-20.9c3.8-5,10.3-16,16.7-24.9
	c10.1-14,19.3-20.4,19.3-20.4s7,5.1,5,29.3C48,224.9,51.1,224.1,51.1,224.1z"/>
<path id="l-forearm" class="st0" d="M6.1,226.5c0,0,6.7,10.9,22.3,17.3c9.6,4,15.7,4.6,15.7,4.6c0.3-1.8,1-3.6,2-5.2
	c1.2-2.1,3-3.8,5.2-4.8c0,0-3.8-11.7-18.2-29.5S-2.4,217.2,6.1,226.5z"/>
<g id="l-hand">
	<path class="st1" d="M44.2,244.6c-0.2,4.5-0.9,9-2.2,13.3c-2,6.3,0.5,11.9,3.8,8.9s1.5-5,3.1-8.2c1.6-3.2,2.1,4.8,7.3,5
		s9.6-2.8,6.5-8.9c-3-6.1-7.9-4.7-6.6-8.5s8.9,2.3,10.1-2.6s3.5-9.3-17.5-4.4L44.2,244.6z"/>
	<path class="st2" d="M41.3,249.5c0,0,2.5-3.1,4.8-6.2c1.8-2.3,3.8-4.5,5.8-6.5"/>
</g>
</svg>
