<?xml version="1.0" encoding="utf-8"?>
<!-- Generator: Adobe Illustrator 25.2.0, SVG Export Plug-In . SVG Version: 6.00 Build 0)  -->
<svg version="1.1" id="Layer_1" xmlns="http://www.w3.org/2000/svg" xmlns:xlink="http://www.w3.org/1999/xlink" x="0px" y="0px"
	 viewBox="0 0 163.5 384.2" style="enable-background:new 0 0 163.5 384.2;" xml:space="preserve">
<style type="text/css">
	.st0{fill:#1E3484;}
	.st1{fill:#16254F;}
	.st2{fill:none;stroke:#D552C0;stroke-width:7;stroke-linecap:round;stroke-miterlimit:10;}
	.st3{fill:none;stroke:#16254F;stroke-miterlimit:10;}
	.st4{fill:#2A3D9B;}
	.st5{fill:#438BFF;}
	.st6{fill:#D552C0;}
	.st7{fill:#F2FFCF;}
	.st8{fill:#A8E00E;}
	.st9{fill:#BCFC30;}
	.st10{clip-path:url(#SVGID_2_);}
	.st11{fill:#FFFFFF;}
	.st12{fill:#A114A5;}
	.st13{fill:#470B35;}
	.st14{fill:#B23BA4;}
</style>
<g id="b-calf">
	<path class="st0" d="M27.9,320.8c0,0,20.4,22.7,19.5,39.4c0,0,9.7,5.4,12.3,5.6s9.7,4.3,9.7,4.3s16.5-18,13.1-55.4
		c-1.8-19.7-16.9-17-30.8-9.9C43.3,309.4,35.3,314.7,27.9,320.8z"/>
	<g id="foot">
		<path class="st1" d="M64.1,362.5c0,0-8.4,0.3-13.7,0.4c-3.3,0.1-8.6,3.6-12.9,4.5c-7.7-1.1-17.8-6-19.5-2c-3.2,7,1,15.9,19,14.7
			s20.8-0.4,30.1-0.9c0,0,1.7-3.6,0.2-10.1C66.9,367.3,64.1,362.5,64.1,362.5z"/>
		<path class="st2" d="M47.4,360.3c3.2,0.8,6.3,1.8,9.3,3c4.6,2.3,8.8,5.3,12.3,9"/>
	</g>
</g>
<g id="b-thigh">
	<path class="st0" d="M38.1,229c0,0-15.3,24.1-16.6,64s29.8,49.9,48.2,42.7c1.5-0.6,6.1-7.7,6.8-9.2c2.7-5.9,7.2-14.7,13.4-26.7
		C102.5,274.5,41.8,215.5,38.1,229z"/>
	<path class="st3" d="M28.9,250c0,0,9-4.1,25.4,2.8c0,0-11.7,40.2-11.8,55.8c-5.3-0.6-10.6-1.5-15.8-2.7
		C26.6,305.8,18.8,271.2,28.9,250z"/>
</g>
<g id="torso">
	<path class="st4" d="M116.5,281c-2.3,15.2-25.6,37.6-48.4,37.6s-47.4-25.2-53.3-39.8c-3.7-9.3-2.2-35.8-2.2-35.8
		s-8.9-33.2,3.4-61.7c9.6-22.2,13.3-23.9,13.3-23.9l77-17.1c0,0,4.4,9.5,6.5,34c1.2,13.8-7.8,56.9-7.8,56.9S119,264,116.5,281z"/>
	<path class="st5" d="M107.2,239.1c0,0-15.8,7.5-49.3,8.3s-47.4-6-47.4-6l-0.4-10.8c0,0,14.8,6.8,47.8,5.9s47.8-8.3,47.8-8.3
		L107.2,239.1z"/>
	<ellipse class="st6" cx="12.1" cy="239.1" rx="7.3" ry="13.6"/>
	<ellipse class="st1" cx="86.2" cy="189" rx="23" ry="32"/>
</g>
<g id="f-calf">
	<path class="st4" d="M39.7,324.8c0,0,20.4,22.7,19.5,39.4c0,0,9.8,5.4,12.4,5.6s9.7,4.3,9.7,4.3s16.5-18,13.1-55.4
		c-1.8-19.7-16.9-17-30.8-9.9C55.1,313.3,47.1,318.7,39.7,324.8z"/>
	<path class="st1" d="M75.9,366.5c0,0-8.4,0.3-13.7,0.4c-3.4,0.1-8.6,3.6-12.9,4.5c-7.7-1.1-17.8-6-19.5-2c-3.2,7,0.9,15.9,19,14.7
		s20.8-0.4,30.1-0.9c0,0,1.7-3.6,0.2-10.1C78.7,371.2,75.9,366.5,75.9,366.5z"/>
	<path class="st2" d="M59.2,364.2c3.2,0.8,6.3,1.8,9.3,3c4.6,2.3,8.8,5.3,12.3,9"/>
</g>
<g id="f-thigh">
	<path class="st4" d="M42.3,249.3c0,0-7.7,7.8-9.1,47.6s29.8,49.9,48.2,42.7c1.5-0.6,6.1-7.7,6.8-9.2c2.7-5.9,7.2-14.7,13.4-26.7
		C114.4,278.5,75.8,247.5,42.3,249.3z"/>
	<path class="st3" d="M40.7,254c0,0,9-4.1,25.4,2.8c0,0-11.7,40.2-11.8,55.8c-5.3-0.6-10.6-1.5-15.8-2.7
		C38.5,309.8,30.7,275.1,40.7,254z"/>
</g>
<g id="head">
	<path class="st7" d="M92.8,31c1.5,2.4-1.6,7-6.8,10.3s-10.7,4-12.2,1.7s-2.1-12.8,3.1-16.1S91.3,28.7,92.8,31z"/>
	<path class="st7" d="M111.7,19.2c1.2,1.9-0.7,5.2-4.1,7.3s-7.2,2.2-8.3,0.3s-2.2-10,1.2-12S110.5,17.3,111.7,19.2z"/>
	<path class="st8" d="M141.3,7.6c-1.9-2.5-9.5-4.4-15.1-2c-15.6,6.9-37.7,32-60.6,40.8C35.1,61,35.1,63.6,35.1,63.6l34.5,26.2
		c0,0,51.6-10.3,47.2-21.8c-9.9-26.4,10.1-37,18.6-52.5C137.3,11.9,143.7,10.9,141.3,7.6z"/>
	<path class="st7" d="M125.5,9.1c1.1,1.6-0.2,4.4-3,6.4s-5.9,2.4-7.1,0.8S112.8,8,115.6,6S124.3,7.5,125.5,9.1z"/>
	<path class="st9" d="M135.2,72c-3.8,3.6-7.8,7.1-11.9,10.2c-4.1,7.5-7.5,15.4-9.9,23.6c-3.7,12-5.9,24.3-6.5,36.8
		c-36,8.8-73.6,43-76.3,23.4c-2.7-19.1-5.8-28.8-8.2-45.2c3.6-0.9,10-3,17.1-5.3c-9.3,0.9-18.2,1.9-18.2,1.9s0-29.3,8.9-50.2
		c2.6-6.2,16.8-11.6,23.3-13.5c18.6-5.4,30.1-4.7,39-7.5c44.9-14,36.8-22.3,32.2-30.9c-4.9-9.1,6.6-11.9,11.2-10.1
		c4.3,1.7,14.9,8.8,19.6,13C177.9,37.5,147.7,59.9,135.2,72z"/>
	<path class="st7" d="M127.6,37.5c0.8,2.7-3.4,6.3-9.4,8s-11.4,1-12.2-1.7s1.4-13,7.4-14.7S126.8,34.8,127.6,37.5z"/>
	<path class="st7" d="M145.5,20.8c1,2-1.1,5.1-4.7,6.8s-7.3,1.5-8.3-0.5s-1.3-10.1,2.3-11.9S144.5,18.7,145.5,20.8z"/>
	<path class="st7" d="M138.3,9.1c1.1,1.6-0.2,4.4-3,6.4s-5.9,2.4-7.1,0.8S125.7,8,128.5,6S137.2,7.5,138.3,9.1z"/>
	<path class="st8" d="M123.2,82.2c-4.1,7.5-7.5,15.4-9.9,23.6c-7.8,3.7-16,6.6-24.3,8.6c-5.9,1.6-12.2,1.6-18.1-0.1
		c7.4-0.1,14.6-2,22.7-11.4C99.5,96.1,109.9,92.2,123.2,82.2z"/>
	<g>
		<defs>
			<path id="SVGID_1_" d="M51.5,78.3c0,0-9-7.2-17.2,0.7c-11.6,11.1-4.9,26.5-4.9,26.5s7.1,3.4,14.9-5.4
				C51.5,92.1,51.5,78.3,51.5,78.3z"/>
		</defs>
		<clipPath id="SVGID_2_">
			<use xlink:href="#SVGID_1_"  style="overflow:visible;"/>
		</clipPath>
		<g class="st10">
			<rect x="24.3" y="71.6" class="st11" width="37.1" height="36.5"/>
			
				<ellipse transform="matrix(5.442741e-02 -0.9985 0.9985 5.442741e-02 -57.4466 120.8051)" class="st12" cx="35.1" cy="90.7" rx="13.3" ry="6.5"/>
			<ellipse transform="matrix(5.442741e-02 -0.9985 0.9985 5.442741e-02 -57.4466 120.8051)" cx="35.1" cy="90.7" rx="6.1" ry="3"/>
			<path class="st13" d="M24.3,103.8c0,0,1.9-19,11.6-25c9.6-5.9,15,4.4,21.5,7.1c6.7,2.8-8.7-19.2-8.7-19.2l-27.2,8.8L24.3,103.8z"
				/>
		</g>
	</g>
	<path class="st13" d="M49.5,79.2c0.1,0.2,0.2,0.4,0.3,0.5l0.1,0.1h0.1l0,0L50,79.8l-0.2-0.2l-0.5-0.4c-0.4-0.2-0.7-0.5-1.1-0.7
		c-0.8-0.4-1.6-0.7-2.4-1c-1.6-0.5-3.3-0.7-5-0.4c-3.3,0.5-6.2,3.2-8.5,6.2c-2.2,3.1-3.6,6.7-3.9,10.5c-0.3,3.9,0.1,7.8,1.4,11.5
		l-0.1-0.1l0,0c1.5,0.5,3.2,0.6,4.8,0.3c1.6-0.3,3.1-0.9,4.4-1.8c2.7-1.8,4.9-4.1,6.5-6.9c1.6-2.8,2.7-5.8,3.2-9
		c0.3-1.6,0.6-3.2,0.7-4.8c0.1-0.8,0.1-1.6,0.2-2.4v-1.2v-1C49.3,78.7,49.4,79,49.5,79.2z M53.4,77.4c0.1,0.4,0.2,0.7,0.2,1.1v0.2
		V79l-0.1,0.7L53.4,81c-0.1,0.9-0.2,1.7-0.4,2.6c-0.3,1.7-0.7,3.4-1.2,5.1c-1,3.4-2.5,6.6-4.5,9.5c-2,2.9-4.7,5.2-7.8,6.9
		c-3.1,1.7-6.8,2-10.1,0.7l0,0h-0.1v-0.1c-1.6-3.7-2.4-7.7-2.3-11.8c0-4.2,1.2-8.2,3.3-11.8c0.5-0.9,1.2-1.7,1.8-2.5
		c0.7-0.8,1.4-1.6,2.2-2.3c1.6-1.5,3.6-2.7,5.8-3.2c2.2-0.6,4.5-0.6,6.7-0.1c1.1,0.2,2.1,0.6,3.2,1c0.5,0.2,1,0.5,1.5,0.7
		c0.2,0.1,0.5,0.3,0.7,0.4l0.4,0.2l0.2,0.1l0,0l0.1,0.1l0.2,0.1C53.1,76.9,53.3,77.1,53.4,77.4z"/>
	<path class="st13" d="M56.9,75.4c-1.9-3.6-4.8-6.5-8.4-8.3c-6-3-10.4-1.4-10.4-1.4s3.4-6.1,9.7-5C53.9,61.9,56.4,70.4,56.9,75.4z"
		/>
</g>
<g id="scarf">
	<path class="st6" d="M111.2,140.3c0.3,1,0.3,2,0,3c-0.4,1.2-0.9,2.3-1.7,3.3c0,0-19.3-6.6-42.2,22.1s-42,36.3-52.2,31.7
		c-8.8-4-7.2-10-2-22.7c0.2-0.6,0.5-1.1,0.7-1.7l0,0c-4.4-4.9-1.1-12.5,1.1-16.4c3.3-5.8,12.3-13.2,12.3-13.2s2.3,12.5,3.1,17.6
		c9.2-2.8,12.8-9.3,31-16.6c15.6-6.1,31.7-10.9,48.1-14.4c5.1,0.8,1,4.3,1.7,7.2C111.1,140.2,111.2,140.2,111.2,140.3z"/>
	<path class="st14" d="M111.2,143.3c-12.9,1-36.7,5.9-52.5,18.8c-18.5,15.1-27.6,29.8-39.3,27.7c-8.9-1.6-7.5-8.8-6.3-12.2
		c0.2-0.6,0.4-1.1,0.7-1.7l0,0c0,0,4.5,4.2,13.7,1.9c6.7-1.7,26.3-24.9,58.7-32.9c8.2-2.1,16.6-3.8,25-4.9c0,0.1,0,0.2,0.1,0.3
		C111.5,141.3,111.5,142.4,111.2,143.3z"/>
</g>
<path id="f-arm" class="st1" d="M98.6,213.1l-20.2,21.6c0,0-8.7,6.3-17.1-1.3c-6.6-6-8-14-5.8-20.1c2.1-5.9,6.5-18,8.6-28.8
	c3.2-15.9,12.1-25,12.1-25s17.9-4.5,26.7,18.1C107.7,189.5,106,202.9,98.6,213.1z"/>
<path id="f-forearm" class="st1" d="M57.8,210.2c0,0-7.9,10.1-8.4,27c-0.3,10.4,1.2,16.3,1.2,16.3c1.8-0.3,3.7-0.3,5.6,0.1
	c2.4,0.4,4.6,1.5,6.3,3.2c0,0,9.7-7.6,21.2-27.4S63.6,199,57.8,210.2z"/>
<g id="f-hand">
	<path class="st9" d="M54.2,252.2c-4.3,1.4-8.7,2.3-13.2,2.7c-6.6,0.3-10.9,4.6-7,6.6s5.2-0.3,8.7,0s-3.8,3.6-2.1,8.6s6,8,10.6,3
		s1.7-9,5.6-9.2s1,9.2,6,8.5s10,0-2-17.9L54.2,252.2z"/>
	<path class="st2" d="M48.6,251.2c0,0,3.8,1.3,7.5,2.4c2.8,0.9,5.5,2,8.2,3.2"/>
</g>
</svg>
