<?xml version="1.0" encoding="utf-8"?>
<!-- Generator: Adobe Illustrator 26.0.0, SVG Export Plug-In . SVG Version: 6.00 Build 0)  -->
<svg version="1.1" id="Layer_1" xmlns="http://www.w3.org/2000/svg" xmlns:xlink="http://www.w3.org/1999/xlink" x="0px" y="0px"
	 viewBox="0 0 700 700" style="enable-background:new 0 0 700 700;" xml:space="preserve">
<style type="text/css">
	.st0{fill:#2A3D9B;}
	.st1{fill:#16254F;}
	.st2{fill:none;stroke:#16254F;stroke-width:0.3446;stroke-miterlimit:10.0037;}
	.st3{fill:#438BFF;}
	.st4{fill:#D552C0;}
	.st5{fill:#BCFC30;}
	.st6{fill:none;stroke:#D552C0;stroke-width:2.4121;stroke-linecap:round;stroke-miterlimit:10.0037;}
	.st7{fill:#F8FFE1;}
	.st8{fill:#A8E00E;}
	.st9{clip-path:url(#SVGID_00000053516710452132510010000013520501134467819166_);}
	.st10{fill:#FFFFFF;}
	.st11{fill:#A114A5;}
	.st12{fill:#470B35;}
	.st13{clip-path:url(#SVGID_00000072274872418411112410000005979153437144483225_);}
	.st14{fill:#74B221;}
	.st15{fill:#B23BA4;}
</style>
<g>
	<g transform="translate(-16 -338)">
		<g>
			<g>
				<g>
					<g>
						<g>
							<g>
								<path class="st0" d="M513.7,1334.1c0,0-76.2-23.8-144.1-23.8c-67.9,0-144.1,23.8-144.1,23.8s-51.5-128.9-52.7-173.6
									c-0.9-28,31.3-110.1,31.3-110.1l-24.1-220.6l64-50h251.9l64,50l-24.1,220.6c0,0,31.9,83.4,31,111.6
									C564.9,1206.4,513.7,1334.1,513.7,1334.1z"/>
								<path class="st1" d="M235.2,921.3c7.8,53.9-4.1,100.2-26.6,103.4c-22.5,3.2-47-37.8-54.8-91.7
									c-7.8-53.9,4.1-100.2,26.6-103.4S227.4,867.4,235.2,921.3z"/>
								<path class="st1" d="M558.3,829.3c22.5,3.2,34.4,49.5,26.6,103.4c-7.8,53.9-32.3,94.9-54.8,91.7
									c-22.5-3.2-34.4-49.5-26.6-103.4S535.8,826,558.3,829.3z"/>
								<path class="st2" d="M369.3,852.7v457.5"/>
								<path class="st3" d="M544.1,1063.5c0,0-56,19.9-174.8,19.9s-174.5-19.9-174.5-19.9l5.4-30.4c0,0,52.4,19.9,169.1,19.9
									s169.1-19.9,169.1-19.9L544.1,1063.5z"/>
								<path class="st4" d="M409.8,1073.6c0,22.4-18.1,40.5-40.5,40.5s-40.5-18.1-40.5-40.5s18.1-40.5,40.5-40.5
									S409.8,1051.2,409.8,1073.6z"/>
								<path class="st1" d="M208.5,1024.5l-34.5,36.3c0,0-25.9,18.8-50.9-3.9c-19.7-17.9-23.8-41.7-17-59.8
									c6.3-17.6,15.2-54.5,25.6-85.7c16.4-48.8,36.3-74.4,36.3-74.4s25.3,8,40.8,78.3C229.6,1010.8,208.5,1024.5,208.5,1024.5z"/>
								<path class="st1" d="M112.6,987.9c0,0-23.5,30.1-25,80.4c-0.9,31,3.6,48.5,3.6,48.5c5.4-0.9,11-0.9,16.7,0.3
									c7.1,1.2,13.7,4.5,18.8,9.5c0,0,28.9-22.6,63.1-81.6C224,986.1,129.8,954.2,112.6,987.9z"/>
								<path class="st5" d="M101.9,1112.9c-12.8,4.2-25.9,6.8-39.3,8c-19.7,0.9-32.8,13.7-20.8,19.6c11.9,6,15.5-0.9,25.9,0
									c10.4,0.9-11.3,10.7-6.3,25.6c5.1,14.9,17.9,23.8,31.6,8.9c13.7-14.9,5.1-26.8,16.7-27.4c11.6-0.6,3,27.4,17.9,25.3
									c14.9-2.1,29.8,0-6-53.3L101.9,1112.9z"/>
								<path class="st6" d="M85.2,1109.9c0,0,11.3,3.9,22.3,7.1c8.3,2.7,16.4,6,24.4,9.5"/>
								<path class="st1" d="M530.4,1024.5l34.5,36.3c0,0,25.9,18.8,50.9-3.9c19.7-17.9,23.8-41.7,17.3-59.8
									c-6.3-17.6-15.2-54.5-25.6-85.7c-16.4-48.8-36-74.4-36-74.4s-25.3,8-40.8,78.3C509.2,1010.8,530.4,1024.5,530.4,1024.5z"/>
								<path class="st1" d="M626.3,987.9c0,0,23.5,30.1,25,80.4c0.9,31-3.6,48.5-3.6,48.5c-5.4-0.9-11-0.9-16.7,0.3
									c-7.1,1.2-13.7,4.5-18.8,9.5c0,0-28.9-22.6-63.1-81.6C514.9,986.1,609,954.2,626.3,987.9z"/>
								<path class="st5" d="M637,1112.9c12.8,4.2,25.9,6.8,39.3,8c19.7,0.9,32.8,13.7,20.8,19.6c-11.9,6-15.5-0.9-25.9,0
									c-10.4,0.9,11.3,10.7,6.3,25.6c-5.1,14.9-17.9,23.8-31.6,8.9c-13.7-14.9-5.1-26.8-16.7-27.4c-11.6-0.6-3,27.4-17.9,25.3
									c-14.9-2.1-29.8,0,6-53.3L637,1112.9z"/>
								<path class="st6" d="M653.7,1109.9c0,0-11.3,3.9-22.3,7.1c-8.3,2.7-16.4,6-24.4,9.5"/>
								<path class="st0" d="M160.2,1295.1c0,0,25.6,102.4,3.3,147.1c0,0,24.1,9.8,31,13.7s21.4,23.2,21.4,23.2s66.4-29.8,101-136
									c18.2-56-26.5-66.1-72.7-63.4C202.8,1282,160.2,1295.1,160.2,1295.1z"/>
								<path class="st1" d="M212.3,1455.8c0,0-27.1-10.7-43.2-10.7c-10.1,0-25.9,9.8-39,12.2c-22.9-4.2-52.4-19.3-58.1-8
									c-10.1,20.8,1.2,47.3,55.4,45.6c54.2-1.8,61.9,0.9,89.6,0c0,0,5.4-10.7,1.8-30.1C217.7,1461.2,215.3,1457.9,212.3,1455.8z"
									/>
								<path class="st6" d="M160.5,1436.8c9.5,2.4,18.5,5.7,27.4,9.8c13.4,7.1,25.6,16.7,35.7,28"/>
								<path class="st0" d="M194.8,1063.5c0,0-36.6,58.6-40.8,177.1c-4.2,118.5,88.7,148.5,143.5,127.1
									c4.5-1.8,18.2-22.9,20.3-27.4c8-17.6,21.4-43.8,39.9-79.8C395.5,1185.8,263.9,1083.1,194.8,1063.5z"/>
								<path class="st2" d="M196.9,1105.7c32.5,3.9,64,12.2,94.1,24.7c0,0-59.6,125.3-59.9,171.8c-22.6-0.6-44.4-8.6-61.6-23.2
									C169.5,1279,167.1,1168.6,196.9,1105.7z"/>
								<path class="st0" d="M578.6,1295.1c0,0-25.6,102.4-3.3,147.1c0,0-24.1,9.8-31,13.7s-21.4,23.2-21.4,23.2s-66.4-29.8-101-136
									c-18.2-56,26.5-66.1,72.7-63.4C536,1282,578.6,1295.1,578.6,1295.1z"/>
								<path class="st1" d="M526.5,1455.8c0,0,27.1-10.7,43.2-10.7c10.1,0,25.9,9.8,39,12.2c22.9-4.2,52.4-19.3,58.1-8
									c10.1,20.8-1.2,47.3-55.4,45.6c-54.2-1.8-61.9,0.9-89.6,0c0,0-5.4-10.7-1.8-30.1C521.1,1461.2,523.5,1457.9,526.5,1455.8z"
									/>
								<path class="st6" d="M578.3,1436.8c-9.5,2.7-18.5,5.7-27.4,9.8c-13.4,7.1-25.6,16.7-35.7,28"/>
								<path class="st0" d="M544.1,1063.5c0,0,36.6,58.6,40.8,177.1c4.2,118.5-89,148.5-143.5,127.1c-4.5-1.8-18.2-22.9-20.2-27.4
									c-8-17.6-21.4-43.8-39.9-79.8C343.4,1185.8,475,1083.1,544.1,1063.5z"/>
								<path class="st2" d="M542,1105.7c-32.5,3.9-64,12.2-94.1,24.7c0,0,59.6,125.3,59.9,171.8c22.6-0.6,44.4-8.6,61.6-23.2
									C569.4,1279,571.8,1168.6,542,1105.7z"/>
								<path class="st5" d="M638.8,518.1l-11.9,86.3c-3.6,25.3-22.6,45.2-47.6,50c-33.1,6.3-59.3,31-67.6,63.4l-16.1,64.3
									c0,0-33.9,81.9-126,81.9c-92,0-126-81.9-126-81.9l-16.1-64.3c-8-32.4-34.5-57.5-67.6-63.4c-25-4.8-44.1-24.7-47.6-50
									l-11.9-86c-3.6-26.5,6-53.3,25.9-71.1c24.1-21.7,50.6-40.5,79.5-55.4c36.6-18.8,64.3-28.9,95.3-34.2
									c9.2-1.5,40.2-5.4,56,8.3c18.8,16.1-7.7,34.2-18.5,40.2c-33.7,18.8-66.1,46.1-64.6,98.2l95.6,21.4l95.6-21.4
									c1.5-52.1-31-79.5-64.6-98.2c-10.7-6-37.2-24.1-18.5-40.2c15.8-13.4,46.8-9.8,56-8.3c30.7,5.4,58.7,15.2,95.3,33.9
									c28.9,14.9,55.7,33.6,79.8,55.4C632.8,465.1,642.4,491.6,638.8,518.1z"/>
								<path class="st7" d="M213.5,460.7c0,10.4-14.9,18.8-33.4,18.8c-18.5,0-33.4-8.3-33.4-18.8c0-10.4,14.9-44.4,33.4-44.4
									C198.6,416.3,213.5,450.2,213.5,460.7z"/>
								<path class="st7" d="M250.8,404.1c0,6.8-9.8,12.2-21.7,12.2c-11.9,0-21.7-5.4-21.7-12.2c0-6.8,9.5-28.9,21.7-28.9
									S250.8,397.2,250.8,404.1z"/>
								<path class="st7" d="M323.1,375.5c0,6.5-9.8,12.2-21.7,12.2c-11.9,0-21.7-5.4-21.7-12.2c0-6.8,9.8-28.9,21.7-28.9
									C313.3,346.6,323.1,368.7,323.1,375.5z"/>
								<path class="st7" d="M525.3,460.7c0,10.4,14.9,18.8,33.4,18.8s33.4-8.3,33.4-18.8c0-10.4-14.9-44.4-33.4-44.4
									S525.3,450.2,525.3,460.7z"/>
								<path class="st7" d="M488.1,404.1c0,6.8,9.5,12.2,21.7,12.2s21.4-5.4,21.4-12.2c0-6.8-9.8-28.9-21.7-28.9
									C497.6,375.2,488.1,397.2,488.1,404.1z"/>
								<path class="st7" d="M415.7,375.5c0,6.5,9.5,12.2,21.7,12.2c12.2,0,21.7-5.4,21.7-12.2c0-6.8-9.8-28.9-22-28.9
									C425,346.6,415.7,368.7,415.7,375.5z"/>
								<path class="st8" d="M274,504.4c0,0-15.2-4.8-33.4-11.9c0,0,26.8-66.4,98-86.3C304.7,424.9,272.5,452.3,274,504.4z"/>
								<path class="st8" d="M464.9,504.4c0,0,15.2-4.8,33.4-11.9c0,0-26.8-66.4-98-86.3C434.2,424.9,466.4,452.3,464.9,504.4z"/>
								<g>
									<defs>
										<path id="SVGID_1_" d="M207.6,594.9c0,0,40.5-33,73,2.1c19.1,20.2,27.7,48.2,22.9,75.6c0,0-41.7,20.2-80.1-17.3
											C198,630.3,207.6,594.9,207.6,594.9z"/>
									</defs>
									<clipPath id="SVGID_00000042721578719204268730000008710139598708888763_">
										<use xlink:href="#SVGID_1_"  style="overflow:visible;"/>
									</clipPath>
									<g style="clip-path:url(#SVGID_00000042721578719204268730000008710139598708888763_);">
										<path class="st10" d="M199.8,575.3h110.5v108.7H199.8V575.3z"/>
										<path class="st11" d="M315.7,620.8c0,22-17.9,39.9-39.9,39.9c-22,0-39.9-17.9-39.9-39.9c0-22,17.9-39.9,39.9-39.9
											C297.8,580.9,315.7,598.8,315.7,620.8z"/>
										<path d="M293.9,620.8c0,10-8.1,18.2-18.2,18.2c-10,0-18.2-8.1-18.2-18.2s8.1-18.2,18.2-18.2
											C285.8,602.7,293.9,610.8,293.9,620.8z"/>
										<path class="st12" d="M310.3,670.8c0,0-5.7-56.6-34.5-74.4c-28.6-17.6-50-3.6-69.4,4.8c-20,8.3,31-40.8,31-40.8l81,26.2
											L310.3,670.8z"/>
									</g>
								</g>
								<g>
									<defs>
										<path id="SVGID_00000023265732143699690570000002655860599708902296_" d="M523.5,594.9c0,0-40.2-33-72.7,2.1
											c-19.1,20.2-27.7,48.2-22.9,75.6c0,0,41.7,20.2,80.1-17.3C533.4,630.3,523.5,594.9,523.5,594.9z"/>
									</defs>
									<clipPath id="SVGID_00000149345204743998395690000001990229771147291279_">
										<use xlink:href="#SVGID_00000023265732143699690570000002655860599708902296_"  style="overflow:visible;"/>
									</clipPath>
									<g style="clip-path:url(#SVGID_00000149345204743998395690000001990229771147291279_);">
										<path class="st10" d="M420.8,575.3h110.5v108.7H420.8V575.3z"/>
										<path class="st11" d="M529.5,620.8c0,22-17.9,39.9-39.9,39.9c-22,0-39.9-17.9-39.9-39.9c0-22,17.9-39.9,39.9-39.9
											C511.6,580.9,529.5,598.8,529.5,620.8z"/>
										<path d="M507.7,620.8c0,10-8.1,18.2-18.2,18.2c-10,0-18.2-8.1-18.2-18.2s8.1-18.2,18.2-18.2
											C499.6,602.7,507.7,610.8,507.7,620.8z"/>
										<path class="st12" d="M420.8,670.8c0,0,5.7-56.6,34.5-74.4c28.6-17.6,50-3.6,69.4,4.8c20,8.3-31-40.8-31-40.8l-81,26.2
											L420.8,670.8z"/>
									</g>
								</g>
								<path class="st12" d="M518.2,598.5c0.3,0.6,0.9,0.9,1.2,1.5l-0.3-0.3l-0.9-0.6l-1.8-1.5c-1.2-0.9-2.7-1.8-3.9-2.7
									c-2.7-1.5-5.4-3-8.3-4.2c-5.7-2.7-11.6-4.2-17.9-4.5c-6.3-0.3-12.2,0.6-17.9,3c-5.7,2.7-11,6.3-15.5,10.7
									c-9.2,9.2-16.4,20.8-20.8,33.3c-2.1,6.3-3.6,12.8-4.2,19.3c-0.9,6.5-0.6,13.4,0.3,19.9l-0.3-0.3c11.9,4.2,24.4,5.4,36.9,3.3
									c12.2-2.4,23.2-7.7,32.8-15.8c2.4-1.8,4.5-4.2,6.6-6.3c1.2-0.9,2.1-2.1,3-3.3c0.9-1.2,1.8-2.4,2.7-3.6
									c3.3-4.8,6-10.1,7.4-15.8c1.5-5.7,2.4-11.3,2.4-17.3c0-3-0.3-6-0.6-8.6c-0.3-1.5-0.3-3-0.6-4.2c-0.3-0.6-0.3-1.5-0.6-2.1
									l-0.3-0.9l-0.3-0.6c0,0,0,0.3,0.3,0.6C517.9,597.9,518.2,598.2,518.2,598.5z M528.9,591.6c0.3,0.6,0.6,1.2,0.6,1.8l0.3,0.6
									v0.6l0.3,1.2c0.3,0.9,0.3,1.8,0.3,2.7c0.3,1.8,0.3,3.6,0.3,5.1c0.3,3.3,0,6.8-0.3,10.1c-0.6,6.8-2.1,13.7-4.5,19.9
									c-2.4,6.5-6,12.5-10.1,17.6c-1.2,1.2-2.1,2.7-3.3,3.9c-1.2,1.2-2.4,2.4-3.6,3.6c-2.7,2.1-5.1,4.2-7.7,6.3
									c-10.7,7.7-23.2,12.5-36.3,14c-12.8,1.2-25.9-0.9-37.8-6.3h-0.3v-0.3c-1.5-6.5-2.1-13.4-1.8-20.2c0.3-6.8,1.2-13.7,3-20.5
									c3.6-13.7,10.4-26.2,19.4-36.9c4.8-5.7,10.4-10.1,16.7-13.7c6.6-3.6,14-5.4,21.4-5.4c7.4,0,14.9,1.2,21.7,3.9
									c3.6,1.2,6.8,2.7,10.1,4.5c1.5,0.9,3.3,1.8,4.8,2.7l2.4,1.5l1.2,0.9l0.6,0.3l0.3,0.3h0.3C528,590.4,528.6,591,528.9,591.6z"
									/>
								<path class="st12" d="M202.2,591.6c0.3-0.6,0.9-1.2,1.5-1.5l0.3-0.3l0.6-0.3l1.2-0.9l2.4-1.5c1.5-0.9,3.3-1.8,4.8-2.7
									c3.3-1.8,6.6-3,10.1-4.5c6.8-2.7,14.3-3.9,21.7-3.9c7.4,0,14.9,1.8,21.4,5.4c6.6,3.6,12.2,8,16.7,13.7
									c9.2,10.7,15.8,23.2,19.4,36.6c1.8,6.5,2.7,13.4,3,20.5c0.3,6.8-0.3,13.7-1.8,20.5v0.3h-0.3c-11.9,5.4-24.7,7.4-37.8,6.3
									c-13.1-1.5-25.6-6.3-36.3-14c-2.7-1.8-5.1-4.2-7.7-6.3c-1.2-1.2-2.4-2.1-3.6-3.6c-1.2-1.2-2.4-2.4-3.6-3.9
									c-4.5-5.4-8-11.3-10.1-17.6c-2.4-6.5-3.9-13.1-4.5-19.9c-0.3-3.3-0.3-6.8,0-10.1c0-1.8,0.3-3.6,0.6-5.1
									c0-0.9,0.3-1.8,0.3-2.7l0.3-1.2v-0.6c0-0.3,0-0.6,0.3-0.6C201.6,592.8,201.9,592.2,202.2,591.6z M212.9,598.5
									c0.3-0.3,0.3-0.6,0.6-1.2c0,0,0-0.3,0-0.6v0.6l-0.3,0.9l-0.6,2.1c-0.3,1.5-0.6,3-0.6,4.2c-0.3,3-0.6,6-0.6,8.6
									c0,6,0.6,11.6,2.4,17.3c1.5,5.7,4.2,11,7.4,15.8c0.9,1.2,1.8,2.4,2.7,3.6c0.9,1.2,1.8,2.4,3,3.3c2.4,2.1,4.2,4.5,6.6,6.3
									c9.5,8,20.5,13.4,32.8,15.8c12.2,2.1,25,1.2,36.9-3.3l-0.3,0.3c0.9-6.5,1.2-13.4,0.3-19.9c-0.6-6.5-2.1-13.1-4.5-19.3
									c-4.5-12.5-11.6-23.8-20.8-33.3c-4.5-4.5-9.5-8.3-15.5-10.7c-5.7-2.4-11.6-3.3-17.9-3c-6.3,0.3-12.2,2.1-17.9,4.5
									c-3,1.2-5.7,2.7-8.3,4.2c-1.2,0.9-2.7,1.8-3.9,2.7L212.9,598.5l-0.6,0.9l-0.6,0.3h-0.3C212,599.4,212.6,599.1,212.9,598.5z"
									/>
								<path class="st12" d="M173.9,576.2c7.1-11.3,17.9-20.2,30.1-25.3c21.1-9.2,36.6-5.1,36.6-5.1s-11.6-18.2-33.4-14.3
									C185.5,535.4,176.3,561,173.9,576.2z"/>
								<path class="st12" d="M564.9,576.2c-7.1-11.3-17.9-20.2-30.1-25.3c-21.1-9.2-36.3-5.1-36.3-5.1s11.6-18.2,33.1-14.3
									C553,535.4,562.5,561,564.9,576.2z"/>
								<path class="st14" d="M282,712.5c0,0,67.9,24.7,171.8,3.3c0,0-34.5,14.6-87.8,17.9C329.7,736,291.3,723.2,282,712.5z"/>
								<path class="st14" d="M235.9,762.8c0,0,29.8,69.7,131.9,69.7S501.5,767,501.5,767s-11.3,159-133.7,159
									S235.9,762.8,235.9,762.8z"/>
								<path class="st4" d="M508.9,802.7c0,71.1-63.1,168.2-140.9,168.2s-140.9-97-140.9-168.2c0-15.5,3-31,8.9-45.2
									c14.6,45.5,54.5,92.9,126.3,92.9c73.9,0,128.3-43.5,139.7-88.7C506.6,774.7,508.9,788.7,508.9,802.7z"/>
								<path class="st15" d="M235.9,762.8c0,0,19.1,130.7,132.8,130.7c113.8,0,132.8-131.9,132.8-131.9s-17.3,164.3-133.7,164.3
									C251.3,925.9,235.9,762.8,235.9,762.8z"/>
							</g>
						</g>
					</g>
				</g>
			</g>
		</g>
	</g>
</g>
</svg>
