<?xml version="1.0" encoding="utf-8"?>
<!-- Generator: Adobe Illustrator 25.2.0, SVG Export Plug-In . SVG Version: 6.00 Build 0)  -->
<svg version="1.1" id="Layer_1" xmlns="http://www.w3.org/2000/svg" xmlns:xlink="http://www.w3.org/1999/xlink" x="0px" y="0px"
	 viewBox="0 0 232.8 527" style="enable-background:new 0 0 232.8 527;" xml:space="preserve">
<style type="text/css">
	.st0{fill:#953DBA;}
	.st1{clip-path:url(#SVGID_2_);}
	.st2{fill:#44F5A0;}
	.st3{fill:#33D08C;}
	.st4{fill:#1B8B79;}
	.st5{fill:#652F99;}
	.st6{fill:#C1983D;}
	.st7{fill:#F7C517;}
	.st8{clip-path:url(#SVGID_4_);}
	.st9{clip-path:url(#SVGID_6_);}
	.st10{clip-path:url(#SVGID_8_);}
	.st11{fill:none;stroke:#33D08C;stroke-width:1.01;stroke-miterlimit:10;}
	.st12{clip-path:url(#SVGID_10_);}
	.st13{fill:#F5FAFF;}
	.st14{fill:#022538;}
	.st15{clip-path:url(#SVGID_12_);}
	.st16{fill:#E5B94C;}
	.st17{fill:#4D257C;}
	.st18{clip-path:url(#SVGID_14_);}
</style>
<path id="r-hand" class="st0" d="M196.1,19.8c0.5,3.1,0.8,12.2,0.8,12.2s0.8,4.2,3.6,5.6c3,1.6,7.3-1,7.3-1c3.7-4,8.2-7.3,13.1-9.7
	c7.5-3.3,13.5-4.4,11.7-9.3s-5.3-5.4-9.8-2.2c-1.8,1.2-3.4,2.2-4.9,3c0.6-0.9,1.3-1.8,2.1-2.7c5.4-6.2,10.4-9.8,6.7-13.4
	s-7.1-2.6-9.9,2.1s-5.4,7.7-6.8,10c0,0-4.9,6.5-5.2,5.9s0.3-4.2-0.3-8.8s-6.7-5.6-9.4-3.3S195.6,16.6,196.1,19.8z"/>
<g id="r-forearm">
	<defs>
		<path id="SVGID_1_" d="M170.5,77.9c5.9-15.5,17-31.9,22-46.9c1-3,6.5-5.1,11.3-3.6c0.8,0.3,1.6,0.7,2.3,1.1
			c3.4,2.2,5.3,6.1,4.5,8.5c-4.8,14.3-6.3,35.3-11,51.3c-1.5,4.8-3.2,9.6-5.3,14.2c-1.7,3.6-4.9,10.7-8.2,9.6
			c-3-1.2-5.7-3.3-7.6-5.9c-3-3.9-5.4-8.2-7.1-12.8C168.9,86.3,168.6,83,170.5,77.9z"/>
	</defs>
	<clipPath id="SVGID_2_">
		<use xlink:href="#SVGID_1_"  style="overflow:visible;"/>
	</clipPath>
	<g class="st1">
		<path class="st2" d="M170.5,77.9c5.9-15.5,17-31.9,22-46.9c1-3,6.5-5.1,11.3-3.6c0.8,0.3,1.6,0.7,2.3,1.1c3.4,2.2,5.3,6.1,4.5,8.5
			c-4.8,14.3-6.3,35.3-11,51.3c-1.5,4.8-3.2,9.6-5.3,14.2c-1.7,3.6-4.9,10.7-8.2,9.6c-3-1.2-5.7-3.3-7.6-5.9
			c-3-3.9-5.4-8.2-7.1-12.8C168.9,86.3,168.6,83,170.5,77.9z"/>
		<path class="st3" d="M176.7,79.2c3.1-6.8,6.1-13.6,9-20.4c2.7-6.3,5.2-12.7,7.6-19c1.6-4.1,3.1-8.2,4.6-12.4
			c0.2-0.6-0.8-0.9-1-0.3c-2.5,6.9-5.1,13.9-7.8,20.7c-2.5,6.4-5.2,12.7-8,19c-1.8,4-3.5,8-5.4,11.9c-0.3,0.6,0.6,1.1,0.9,0.5
			L176.7,79.2z"/>
		<path class="st3" d="M190.8,109.2c-3.7-3.6-6.6-7.8-8.7-12.5c-2.4-5.2-3.5-10.7-5.1-16.1c-0.9-3.1-2.1-6.1-3.6-8.9
			c-0.3-0.6-1.2-0.1-0.9,0.5c2.7,5.1,4,10.7,5.5,16.2c1.4,5.3,3.6,10.4,6.5,15c1.6,2.4,3.4,4.6,5.5,6.6
			C190.6,110.3,191.3,109.5,190.8,109.2L190.8,109.2z"/>
		<path class="st4" d="M173.5,97.6c-4-8.8-4.9-17-1.9-18.4c0.3,3.3,1,8.3,5,17.1c2.4,5.4,5.6,10.3,9.5,14.7
			C183.5,110.8,177.5,106.4,173.5,97.6z"/>
	</g>
</g>
<g id="r-calf">
	<g>
		<path class="st0" d="M108.2,497.8c0.3,4.6-4.6,15.6-5,21.6s7.3,8.6,12.3,7.3c1.8-0.5,2.7-2,3.2-3.9c0.5-2.5,0.6-5.1,0.2-7.7l0,0
			c3,1,5.4,2.4,11.4,6.1c5.3,3,11.2,4.7,17.2,5l0,0c2.1,0.1,4.1,0.1,6.2-0.2c3.5-0.4,3-4.9,2.6-6.9c-0.1-0.5-0.2-0.8-0.2-1
			c0,0,0,0,0-0.1c4.5,0.7,9.1,0.7,13.6,0l0.3-6.6c0-0.4,0-0.9-0.2-1.3c-1.7-5.3-16.3-5.3-23.4-8.6c-4.6-2.2-13.6-9.1-20.1-14.2
			c-4.3-3.4-7.4-6-7.4-6l-3.9-1.9l-2.1-1c-0.1,0.3-0.2,0.6-0.3,0.9c-2.6,8.2-9.5,10.1-12.3,15.5C97.2,500.5,108.2,497.8,108.2,497.8
			z"/>
		<path class="st5" d="M134.5,517.9c-0.1-0.6-0.3-1-0.3-1C134.2,517.2,134.3,517.6,134.5,517.9z"/>
		<path class="st5" d="M164.1,512.5c0,0-12.1-2.2-21.6-7.6c3.3,2,11.8,7.6,13.5,12.9c4.5,0.7,9.1,0.7,13.6,0L164.1,512.5z"/>
		<path class="st5" d="M116.4,497.1c0,0,1.7,12.6,2.4,17.7c3,1,5.4,2.4,11.5,6.1c5.3,3,11.2,4.7,17.2,5c-6.4-1.3-10.5-5.5-17.1-12.1
			C125.4,508.5,120.7,503,116.4,497.1z"/>
	</g>
	<ellipse class="st6" cx="117.5" cy="475.7" rx="9.2" ry="2.5"/>
	<path class="st7" d="M108,475.4c0,1.5,4.2,2.7,9.5,2.7s9.5-1.2,9.5-2.7s-4.2-2.7-9.5-2.7S108,473.9,108,475.4z M111.4,475.4
		c0-1,2.7-1.7,6.1-1.7s6,0.8,6,1.7s-2.7,1.8-6,1.8S111.4,476.4,111.4,475.4z"/>
	<path class="st0" d="M113,486.3c0,3.6,7.4,2.1,7.4,2.1l9.5-116.8c-3.1-0.9-6.3-1.4-9.5-1.6c-2.1,0-3.9,0.3-4.3,1.4
		c-15.4,38.6-3.1,70.6-3.1,114.1V486.3z"/>
	<path class="st7" d="M107,485.8v0.2l0,0C107,486,107,485.9,107,485.8z"/>
	<path class="st7" d="M108,475.3v10.1c0,0.1,0,0.2,0,0.2c0.3,1.1,2.9,2,6.3,2.3c1,0.1,2.1,0.2,3.1,0.2c5,0,9-1.1,9.5-2.5
		c0-0.1,0-0.2,0-0.2v-10.1c0,1.5-4.2,2.7-9.5,2.7c-1,0-2.1,0-3.1-0.1C110.7,477.5,108,476.5,108,475.3z"/>
	<path class="st7" d="M108,475.4c0,1.5,4.2,2.7,9.5,2.7s9.5-1.2,9.5-2.7h-3.4c0,1-2.7,1.8-6,1.8c-3.3,0-6.1-0.8-6.1-1.8H108z"/>
</g>
<g id="r-arm">
	<defs>
		<path id="SVGID_3_" d="M112.7,137.8l4.8,15.9l19.4,8.4l49.3-50.9c-4-4.3-7.2-9.3-9.5-14.7c-4-8.8-4.8-13.9-5-17.1
			c-0.5,0.2-0.8,0.6-1.1,1.1L112.7,137.8z"/>
	</defs>
	<clipPath id="SVGID_4_">
		<use xlink:href="#SVGID_3_"  style="overflow:visible;"/>
	</clipPath>
	<g class="st8">
		<path class="st0" d="M122,140.3c0.3-0.3,0.5-0.6,0.8-0.8c4.8-4.3,9.6-8.6,14.3-13l7-6.6l7-6.7c4.6-4.5,9.2-9,13.7-13.5
			s8.9-9.3,13-14.2c2.4-2.9,6.5-3.5,9.6-1.4c0.2,0.1,0.5,0.3,0.7,0.5c3.1,2.6,3.5,7.2,0.9,10.4c-0.3,0.3-0.5,0.6-0.9,0.9
			c-4.9,4.2-9.5,8.7-14,13.2s-8.9,9.3-13.3,13.9l-6.6,7.1l-6.5,7.1c-4.3,4.8-8.6,9.6-12.8,14.5c-3.1,3.6-8.5,4-12.2,0.9c0,0,0,0,0,0
			c-0.7-0.6-1.4-1.4-1.9-2.2C119.3,147,119.6,143,122,140.3z"/>
	</g>
</g>
<path id="l-arm" class="st0" d="M74.7,145.1c-0.2,0.3-0.5,0.6-0.8,0.9c-4.7,4.4-9.4,8.8-14,13.3L53,166l-6.8,6.8
	c-4.5,4.6-9,9.1-13.5,13.8S24,196.1,20,201.1c-2.3,2.9-6.5,3.6-9.6,1.6c-0.3-0.1-0.5-0.3-0.7-0.5c-3.2-2.5-3.7-7.2-1.1-10.3
	c0.3-0.3,0.5-0.6,0.8-0.9c4.8-4.3,9.3-8.9,13.8-13.5s8.7-9.4,13-14.2l6.4-7.2l6.3-7.3c4.2-4.9,8.4-9.8,12.5-14.7
	c3-3.7,8.5-4.2,12.1-1.2c0,0,0,0,0,0c0.8,0.6,1.4,1.4,1.9,2.2C77.3,138.3,77,142.2,74.7,145.1z"/>
<g id="r-thigh">
	<path class="st0" d="M102.2,269c10.4,53,14.5,107.9,14.5,107.9s1.4,9.8,6.7,9.4c6-0.4,8-9.7,8-9.7s19.6-52.7,0-112.4
		c-0.9-2.7-2-5.3-3.4-7.7c-0.6-1.1-1.4-2.1-2.2-3.1l-0.6-0.7c-4.3-5-8.6-5.7-8.6-5.7S99.4,254.3,102.2,269z"/>
	<path class="st5" d="M128.9,382.2c-0.1,1.6-0.9,3.1-2.1,4.2c-0.3,0.3-0.6,0.5-1,0.7c-0.5,0.3-1.1,0.4-1.6,0.3
		c-0.6-0.1-1.1-0.4-1.5-0.9c-0.3-0.3-0.5-0.7-0.7-1.1c-0.7-1.4-1.1-2.9-1.4-4.5c-0.3-1.5-0.2-3.1,0.1-4.6c0.5,1.5,0.9,2.9,1.4,4.2
		s1,2.7,1.7,3.9c0.2,0.4,0.4,0.8,0.8,1.1c0.1,0.1,0.8-0.2,1.4-0.5C127.1,384.4,128.1,383.4,128.9,382.2z"/>
</g>
<g id="l-calf">
	<g>
		<path class="st0" d="M95.9,494.9c-2.9-5.4-9.8-7.4-12.3-15.5c-0.1-0.3-0.2-0.6-0.3-0.9l-2.1,1l-3.9,1.9c0,0-3.2,2.6-7.4,6
			c-6.5,5.1-15.5,12-20.1,14.2c-7.1,3.4-21.6,3.4-23.4,8.6c-0.1,0.4-0.2,0.9-0.2,1.3l0.3,6.6c4.5,0.7,9.1,0.7,13.6,0c0,0,0,0,0,0.1
			c0,0.2-0.1,0.5-0.2,1c-0.4,2-1,6.5,2.6,6.9c2,0.2,4.1,0.3,6.2,0.2l0,0c6.1-0.3,12-2,17.2-5c6-3.6,8.4-5.1,11.4-6.1l0,0
			c-0.4,2.6-0.3,5.2,0.2,7.7c0.5,1.9,1.4,3.4,3.2,3.9c5,1.3,12.6-1.3,12.3-7.3s-5.3-16.9-5-21.6C87.8,497.8,98.8,500.5,95.9,494.9z"
			/>
		<path class="st5" d="M61.8,516.9c0,0-0.1,0.4-0.3,1C61.7,517.6,61.8,517.2,61.8,516.9z"/>
		<path class="st5" d="M26.4,517.8c4.5,0.7,9.1,0.7,13.6,0c1.7-5.3,10.2-10.9,13.5-12.9c-9.6,5.4-21.6,7.6-21.6,7.6L26.4,517.8z"/>
		<path class="st5" d="M65.6,513.8c-6.6,6.6-10.7,10.8-17.1,12.1c6.1-0.3,12-2,17.2-5c6-3.7,8.5-5.1,11.5-6.1
			c0.7-5.1,2.4-17.7,2.4-17.7C75.3,503,70.6,508.5,65.6,513.8z"/>
	</g>
	<ellipse class="st6" cx="78.5" cy="475.7" rx="9.2" ry="2.5"/>
	<path class="st7" d="M78.5,472.7c-5.2,0-9.5,1.2-9.5,2.7s4.2,2.7,9.5,2.7s9.5-1.2,9.5-2.7C88,473.9,83.8,472.7,78.5,472.7z
		 M78.5,477.1c-3.3,0-6-0.8-6-1.8s2.7-1.7,6-1.7s6.1,0.7,6.1,1.7C84.6,476.4,81.9,477.1,78.5,477.1z"/>
	<path class="st0" d="M83,485.5c0-43.5,12.4-75.5-3.1-114.1c-0.4-1.1-2.2-1.5-4.3-1.4c-3.2,0.2-6.4,0.8-9.5,1.6l9.5,116.8
		c0,0,7.4,1.5,7.4-2.1V485.5z"/>
	<path class="st7" d="M89,486.1L89,486.1v-0.2C89,485.9,89,486,89,486.1z"/>
	<path class="st7" d="M81.7,477.9c-1,0.1-2.1,0.2-3.1,0.1c-5.2,0-9.5-1.2-9.5-2.7v10.1c0,0.1,0,0.2,0,0.2c0.5,1.4,4.5,2.5,9.5,2.5
		c1,0,2.1,0,3.1-0.2c3.5-0.3,6-1.2,6.3-2.3c0-0.1,0-0.2,0-0.2v-10.1C88,476.5,85.3,477.5,81.7,477.9z"/>
	<path class="st7" d="M84.6,475.4c0,1-2.8,1.8-6.1,1.8c-3.3,0-6-0.8-6-1.8h-3.4c0,1.5,4.2,2.7,9.5,2.7s9.5-1.2,9.5-2.7H84.6z"/>
</g>
<g id="l-thigh">
	<path class="st0" d="M79.3,247c0,0-4.2,0.7-8.6,5.7l-0.6,0.7c-0.8,1-1.5,2-2.2,3.1c-1.4,2.4-2.6,5-3.4,7.7
		c-19.6,59.7,0,112.4,0,112.4s2,9.3,8,9.7c5.3,0.4,6.7-9.4,6.7-9.4S83.4,322,93.8,269C96.6,254.3,79.3,247,79.3,247z"/>
	<path class="st5" d="M70.1,385.1c0.5,0.3,1.3,0.6,1.4,0.5c0.4-0.3,0.6-0.7,0.8-1.1c0.7-1.2,1.2-2.6,1.7-3.9s0.9-2.8,1.4-4.2
		c0.3,1.5,0.3,3.1,0.1,4.6c-0.2,1.5-0.7,3-1.4,4.5c-0.2,0.4-0.4,0.8-0.7,1.1c-0.4,0.5-0.9,0.8-1.5,0.9c-0.6,0.1-1.1,0-1.6-0.3
		c-0.4-0.2-0.7-0.5-1-0.7c-1.2-1.1-2-2.6-2.1-4.2C67.9,383.4,68.9,384.4,70.1,385.1z"/>
</g>
<g id="hips">
	<defs>
		<path id="SVGID_5_" d="M73.4,250.2c0,0,1.3,4.4,3,10.1c0.9,3.1,1.9,6.6,2.9,9.9c1.1,3.9,2.2,7.6,2.9,10.3
			c1.4,5.1,6.6,21.8,16,21.8s14.6-16.7,16-21.8c0.7-2.6,1.8-6.3,2.9-10.1l0,0c1-3.6,2.1-7.4,3.1-10.7c1.6-5.4,2.8-9.6,2.8-9.6
			L73.4,250.2z"/>
	</defs>
	<clipPath id="SVGID_6_">
		<use xlink:href="#SVGID_5_"  style="overflow:visible;"/>
	</clipPath>
	<g class="st9">
		<rect x="72" y="247.2" class="st2" width="55" height="59"/>
		<path class="st3" d="M120.5,248.5c-2.3,3.4-3.4,7.4-4.3,11.4c-1,4.5-1.9,9-2.9,13.4c-1.8,8.2-4,16.4-8.2,23.7
			c-2.2,3.9-5,7.3-8.3,10.3c-0.5,0.4,0.2,1.1,0.7,0.7c5.9-5.2,9.9-12.2,12.6-19.5c3.1-8.4,4.6-17.3,6.5-26.1c1-4.6,2-9.5,4.7-13.5
			C121.7,248.5,120.8,248,120.5,248.5L120.5,248.5z"/>
		<path class="st3" d="M75.4,249c2.4,3.5,3.4,7.7,4.3,11.7c1,4.5,1.9,9,2.9,13.4c1.8,8.2,4.1,16.4,8.3,23.7c2.2,3.8,5,7.3,8.3,10.2
			c0.5,0.4,1.2-0.3,0.7-0.7C94,302.1,90,295,87.4,287.6c-3-8.4-4.5-17.3-6.4-26c-1-4.5-2-9.2-4.7-13.1C75.9,247.9,75,248.5,75.4,249
			L75.4,249z"/>
	</g>
</g>
<g id="torso">
	<ellipse class="st6" cx="98" cy="236.7" rx="30" ry="10.5"/>
	<path class="st4" d="M74.7,213.9c0-12.1,10.4-23.2,23.1-23.2s23.2,11.1,23.2,23.2c-2,5-6.5,10-23.1,10S77.6,220.6,74.7,213.9z"/>
	<path class="st0" d="M75.6,249.5l8.9,3.5l13.4,5.3l22.6-8.9c0,0-5.6-11.6-5.6-21.2c0-2.7,0.2-6.6,0.6-10.8
		c0.9-10.9,2.5-24.1,2.5-24.1S113.6,185,98,185s-19.9,8.4-19.9,8.4s3,25.3,3,34.9S75.6,249.5,75.6,249.5z"/>
	<g>
		<defs>
			<path id="SVGID_7_" d="M74.7,213.9c10,0,8.6-18.6,23.1-18.6s13.2,18.6,23.2,18.6c0-16.1,13.6-47.8,7.7-83.7
				c-14.4-5.7-46-5.7-61.7,0C61.5,166.8,74.7,198.4,74.7,213.9z"/>
		</defs>
		<clipPath id="SVGID_8_">
			<use xlink:href="#SVGID_7_"  style="overflow:visible;"/>
		</clipPath>
		<g class="st10">
			<rect x="60" y="123.2" class="st2" width="77" height="103"/>
			<path class="st3" d="M117.8,124.3c4.6,3.7,6.4,9.5,7,15.2c0.3,3.2,0.5,6.4,0.4,9.6c0,3.3-0.1,6.6-0.3,9.9
				c-0.8,13-4.1,25.6-5.3,38.6c-0.7,7.4-0.9,14.7-1,22.1c0,0.3,0.2,0.5,0.5,0.5s0.5-0.2,0.5-0.5c0.2-6.6,0.3-13.3,0.8-19.9
				s1.7-13.2,2.8-19.8s2.2-13,2.7-19.6c0.5-6.6,0.5-13.2,0-19.7c-0.5-6.3-2.3-13-7.4-17.1C118,123.2,117.3,124,117.8,124.3
				L117.8,124.3z"/>
			<path class="st3" d="M77.2,123.6c-4.5,3.6-6.4,9.2-7.2,14.7c-0.4,3.2-0.6,6.5-0.6,9.8c-0.1,3.3,0,6.6,0.2,9.9
				c0.4,6.6,1.2,13.1,2.4,19.6c1.1,6.6,2.3,13.1,3,19.7c0.7,7.4,0.9,14.9,1.1,22.3c0,0.6,1,0.6,1,0c-0.1-6.6-0.3-13.1-0.8-19.6
				s-1.6-12.9-2.7-19.3s-2.2-12.9-2.7-19.4c-0.5-6.5-0.6-13-0.2-19.4c0.4-6.4,2-13.3,7.2-17.5C78.4,123.9,77.7,123.2,77.2,123.6
				L77.2,123.6z"/>
			<rect x="78.5" y="160.7" class="st11" width="38" height="21"/>
		</g>
	</g>
	<path class="st3" d="M86.8,128.5c0,0,3.6-2.2,11.1-2.2s11.1,2.2,11.1,2.2l-1.3-11.3c0,0-2.4-0.7-9.8-0.7s-9.4,0.6-9.4,0.6
		L86.8,128.5z"/>
	<path class="st6" d="M97.8,150c0,0-13.9-3-15.6-18.9s25.6-11.4,28.7-7C114.4,129.1,117,139.2,97.8,150z"/>
	<polygon class="st5" points="116.6,130 98.3,127.9 80.1,129.7 97.7,150.9 	"/>
	<path class="st5" d="M87.7,142.9c0,0,2.8,7.3,10.1,7.3s10.1-7.3,10.1-7.3c-0.8-7.1-1.1-14.2-1-21.3c0-13.9,0.7-25.3,0.7-25.3H88.1
		c0,0,0.7,11.4,0.7,25.3C88.9,128.6,88.5,135.8,87.7,142.9z"/>
	<path class="st7" d="M78.2,132.8c0.5,2,1.3,3.9,2.4,5.6c1,1.6,2.2,3.1,3.5,4.5c1.2,1.4,2.6,2.7,4.1,3.8c2.9,2.3,6.4,3.8,10,4.4
		c0.1,0,0.1,0,0.2,0l0,0c0,0,0.1,0,0.1,0c0.2,0,0.3-0.2,0.3-0.3c0-0.3-0.1-0.5-0.3-0.6l0,0l0,0h-0.1c-1.4-0.8-2.7-1.8-3.9-2.9
		c-1.2-1.1-2.3-2.3-3.2-3.6c-1.2-1.7-2.3-3.5-3.1-5.5c-0.4-1-0.8-1.9-1.1-2.9c-1-2.8-1.2-5.6-0.4-7.4c0.2-0.7,0.7-1.3,1.4-1.6
		c0.2-0.1,0.4-0.2,0.7-0.2c0.1-1.8,0.1-3.8,0.1-5.9c0-1.5,0-3.1,0-4.5l-0.9,0.2c-2.5,0.5-4.9,1.7-6.8,3.5c-1.8,1.9-3,4.3-3.4,6.8
		C77.4,128.3,77.6,130.6,78.2,132.8z"/>
	<path class="st7" d="M97.5,150.6c0.1,0.2,0.2,0.3,0.4,0.3c0,0,0.1,0,0.1,0h0.1c3.5-0.6,6.7-2,9.5-4.2c1.4-1.1,2.7-2.3,3.9-3.6
		c1.2-1.3,2.3-2.8,3.3-4.3c1-1.7,1.8-3.5,2.3-5.4c0.6-2.1,0.7-4.3,0.4-6.4c-0.4-2.4-1.5-4.7-3.2-6.5c-1.8-1.7-4-2.8-6.4-3.3l-1-0.2
		c0,1.4,0,2.8,0,4.3c0,2,0,3.8,0.1,5.6c0.3,0,0.5,0.1,0.8,0.3c0.6,0.3,1.1,0.9,1.3,1.5c0.7,1.7,0.6,4.4-0.4,7
		c-0.3,1.1-0.7,2.1-1.2,3.1c-0.8,1.7-1.7,3.4-2.8,4.9c-0.9,1.2-1.9,2.4-3.1,3.4c-1.1,1.1-2.4,2-3.7,2.8h-0.1h-0.1
		C97.5,150,97.4,150.4,97.5,150.6z"/>
	<path class="st7" d="M68,251.8c5.3,5.1,22.6,9.9,30,12.9c7.1-2.9,25.3-8.4,30-12.9v-15.2c-4.7,5.8-21.3,9.4-30,12.9
		c-8.2-3.4-24.2-6.8-30-12.9V251.8z"/>
	<path class="st7" d="M75.3,127.9c0,0-10.8,9.7-8.1,42c0,0-15.7-32.1-7.4-43C67.5,125,75.3,127.9,75.3,127.9z"/>
	<path class="st7" d="M120.4,127.9c0,0,10.8,9.7,8.1,42c0,0,15.7-32.1,7.4-43C128.3,125,120.4,127.9,120.4,127.9z"/>
	<path class="st7" d="M68,236.6v15.2c2.3,1.9,4.9,3.4,7.6,4.6c7.3,3.3,17.2,6.3,22.4,8.3c7.1-2.9,25.3-8.4,30-12.9v-15.2
		c-4.7,5.8-21.3,9.4-30,12.9c-5.7-2.3-15.2-4.7-22.4-8C72.8,240.4,70.2,238.7,68,236.6z"/>
</g>
<g id="head">
	<path class="st0" d="M76.5,92.9c2.7,1.7,4.7,4.2,5.8,7.2c1,2.8,2.6,6.4,4.1,10.4c2.8,7.1,5.1,11.3,11.3,11.3s8.5-4.3,11.3-11.3
		c1.6-4,3.2-7.6,4.2-10.4c1.1-3,3.2-5.5,5.9-7.2c8.8-5.7,10-15.8,8.4-27.2c-2.7-19-12.3-32-29.7-32s-27.5,13.4-29.7,32
		C66.7,77.2,67.8,87.2,76.5,92.9z"/>
	<g>
		<defs>
			<path id="SVGID_9_" d="M104.8,79.8c-2,4.6-1.7,8.8,0.5,10.8c3.8,0.3,9.8-1.4,11.8-6s1.8-8-1.5-11.1
				C112.5,72.2,106.8,75.2,104.8,79.8z"/>
		</defs>
		<clipPath id="SVGID_10_">
			<use xlink:href="#SVGID_9_"  style="overflow:visible;"/>
		</clipPath>
		<g class="st12">
			<rect x="100" y="69.2" class="st13" width="21" height="24"/>
			<circle class="st4" cx="110.5" cy="83.7" r="7.5"/>
			<circle cx="110" cy="84.2" r="4"/>
			<path class="st14" d="M105,92.5c0,0-4.9-11.4,5.1-17c1.7-0.8,3.7-0.9,5.4-0.3c0,0,2.2,0.7,2.3,4.2c0.1,2.7-0.7,5.4-2.3,7.6
				l5.9-0.1l2.8-22.3l-17.5,0.9l-8.6,25.3L105,92.5z"/>
		</g>
	</g>
	<g>
		<defs>
			<path id="SVGID_11_" d="M90.8,79.8c2,4.6,1.7,8.8-0.5,10.8c-3.8,0.3-9.8-1.4-11.8-6s-2-7.7,1.5-11.1
				C83.2,72.2,88.8,75.2,90.8,79.8z"/>
		</defs>
		<clipPath id="SVGID_12_">
			<use xlink:href="#SVGID_11_"  style="overflow:visible;"/>
		</clipPath>
		<g class="st15">
			<rect x="73" y="71.2" class="st13" width="22" height="22"/>
			<circle class="st4" cx="85.5" cy="83.7" r="7.5"/>
			<circle cx="86" cy="84.2" r="4"/>
			<path class="st14" d="M90.7,92.5c0,0,4.9-11.4-5.1-17c-1.7-0.9-3.7-1-5.4-0.3c0,0-2.2,0.7-2.3,4.2c-0.1,2.7,0.7,5.4,2.3,7.6
				l-5.9-0.1l-2.8-22.4l17.5,0.9l8.6,25.3L90.7,92.5z"/>
		</g>
	</g>
	<path class="st16" d="M116.1,49.2c-0.6,0.8-1.5,2.1-2.4,3.6s-2,3.1-3.1,4.6c-1.2,1.7-2.6,3.3-4.1,4.8c-0.9,0.9-1.9,1.7-3,2.4
		c-0.7,0.4-1.5,0.8-2.3,1.1c-1.1,0.4-2.2,0.6-3.3,0.6c-1.1,0-2.3-0.2-3.3-0.6c-0.8-0.3-1.6-0.7-2.3-1.1c-1.1-0.7-2.1-1.5-3-2.4
		c-1.5-1.5-2.9-3.1-4.1-4.8C84,55.8,83,54.2,82,52.8s-1.9-2.8-2.4-3.6l-1.2-1.8c-0.5-0.6-0.3-1.5,0.3-2c0,0,0,0,0.1,0
		c0.2-0.2,0.5-0.2,0.8-0.2c1.3,0.1,2.6,0.5,3.8,1.3c0.9,0.6,1.7,1.3,2.5,2c1.5,1.4,2.9,2.8,4.2,4.2s2.7,2.7,4,3.9
		c0.6,0.6,1.3,1.1,2,1.5c1,0.8,2.4,0.8,3.4,0c0.7-0.4,1.4-1,2-1.5c1.4-1.2,2.7-2.5,4-3.9s2.7-2.8,4.2-4.2c0.8-0.7,1.7-1.4,2.6-2
		c1.1-0.8,2.4-1.2,3.8-1.3c0.8,0,1.4,0.6,1.5,1.4c0,0.3-0.1,0.6-0.2,0.8L116.1,49.2z"/>
	<path class="st16" d="M109,39.6c-0.4,0.5-1,1.2-1.6,2.1s-1.2,1.7-2,2.6c-0.8,1-1.6,1.9-2.5,2.7c-0.3,0.3-0.6,0.5-0.9,0.7l-0.5,0.3
		l-0.6,0.3c-1,0.5-2.1,0.8-3.2,0.9c-1.1,0-2.2-0.4-3.2-0.9L94.1,48l-0.5-0.3c-0.3-0.2-0.6-0.4-0.9-0.7c-0.9-0.8-1.8-1.7-2.6-2.7
		c-0.7-0.9-1.3-1.8-2-2.6s-1.1-1.5-1.6-2.1l-0.8-1c-0.3-0.4-0.2-1,0.2-1.3c0.2-0.1,0.4-0.2,0.6-0.2c0.8,0,1.5,0.3,2.2,0.7
		c0.6,0.3,1.1,0.7,1.6,1.1c0.9,0.8,1.8,1.5,2.6,2.3s1.6,1.5,2.5,2.1c0.7,0.6,1.4,1,2.3,1.1c0.8-0.2,1.6-0.6,2.3-1.1
		c0.8-0.6,1.6-1.4,2.5-2.1s1.7-1.5,2.6-2.3c0.5-0.4,1-0.8,1.6-1.1c0.7-0.4,1.4-0.6,2.2-0.7c0.5,0,1,0.3,1,0.8c0,0,0,0,0,0
		c0,0.2-0.1,0.4-0.2,0.6L109,39.6z"/>
	<path class="st17" d="M89.3,103.2c2.6,0.9,5.4,1.4,8.1,1.4c2.9-0.1,5.7-0.6,8.4-1.4H89.3z"/>
	<path class="st17" d="M123.3,74c-1.2-0.9-2.6-1.5-4-2.1c-1.3-0.5-2.7-0.8-4.1-0.9c-0.3,0-0.7,0-1.1,0s-0.7,0-1.1,0.1
		c-0.7,0-1.4,0.1-2.2,0.2c-0.7,0.1-1.4,0.3-2.2,0.4s-1.4,0.4-2.2,0.6l0,0c-0.3,0.1-0.5-0.1-0.6-0.4c0-0.2,0-0.4,0.2-0.5
		c0.7-0.4,1.3-0.8,2.1-1.2s1.5-0.6,2.3-0.9c1.6-0.5,3.3-0.7,4.9-0.6c1.7,0.1,3.4,0.6,4.8,1.5C121.8,71,122.8,72.4,123.3,74z"/>
	<path class="st17" d="M72.2,74c0.5-1.6,1.6-3,3.1-3.9c1.5-0.9,3.1-1.4,4.8-1.5c1.7-0.1,3.3,0.1,4.9,0.6c0.8,0.3,1.5,0.6,2.3,0.9
		s1.4,0.8,2.1,1.2c0.2,0.2,0.3,0.5,0.1,0.7c-0.1,0.2-0.3,0.3-0.5,0.2l0,0c-0.8-0.2-1.5-0.3-2.2-0.6s-1.5-0.3-2.2-0.4
		c-0.7-0.1-1.5-0.2-2.2-0.3c-0.4,0-0.7-0.1-1.1-0.1s-0.7,0-1,0c-1.4,0.1-2.8,0.4-4.1,0.9C74.8,72.4,73.5,73.1,72.2,74z"/>
</g>
<g id="l-forarm">
	<defs>
		<path id="SVGID_13_" d="M37.8,192.4c8.9,14,15.6,32.6,24.7,45.6c1.8,2.6,0.3,6.2-5,10.3c-5.5,4.3-9.2,2.7-10.7,0.6
			c-8.7-12.4-24.7-26-34.7-39.4c-3-4-5.8-8.3-8.2-12.7C2,193.3-1.8,186.5,1,184.5c2.8-1.7,6-2.6,9.3-2.6c4.9-0.1,9.8,0.5,14.5,1.9
			C32,186.1,34.9,187.8,37.8,192.4z"/>
	</defs>
	<clipPath id="SVGID_14_">
		<use xlink:href="#SVGID_13_"  style="overflow:visible;"/>
	</clipPath>
	<g class="st18">
		<path class="st2" d="M37.8,192.4c8.9,14,15.6,32.6,24.7,45.6c1.8,2.6,7.7,10.6-0.2,18c-5.9,5.6-13.9-5-15.4-7.1
			c-8.7-12.4-24.7-26-34.7-39.4c-3-4-5.8-8.3-8.2-12.7C2,193.3-1.8,186.5,1,184.5c2.8-1.7,6-2.6,9.3-2.6c4.9-0.1,9.8,0.5,14.5,1.9
			C32,186.1,34.9,187.8,37.8,192.4z"/>
		<path class="st3" d="M33,196.7c3.6,6.5,7.2,12.9,11,19.3c3.5,5.9,7.1,11.8,10.8,17.6c2.3,3.7,4.7,7.3,7.2,11
			c0.3,0.5,1.2,0,0.9-0.5c-4.1-6.2-8.1-12.4-12-18.6c-3.6-5.9-7.1-11.8-10.5-17.8c-2.2-3.8-4.3-7.6-6.4-11.4
			C33.6,195.6,32.7,196.1,33,196.7L33,196.7z"/>
		<path class="st3" d="M0.6,190.1c5.8-0.9,11.6-0.6,17.2,1c5,1.3,9.6,3.5,14.5,5.2c2.8,1,5.7,1.8,8.7,2.2c0.6,0.1,0.9-0.9,0.3-1
			c-5.3-0.8-10.2-2.8-15.1-4.7c-5.1-2.1-10.5-3.5-16-4.1c-3.3-0.3-6.6-0.1-9.8,0.4C-0.3,189.3,0,190.2,0.6,190.1L0.6,190.1z"/>
		<ellipse transform="matrix(0.7759 -0.6308 0.6308 0.7759 -142.1271 90.2565)" class="st4" cx="56" cy="245.2" rx="8.6" ry="3.3"/>
	</g>
</g>
<path id="l-hand" class="st0" d="M68,238.2c-3,1.1-11.8,3.1-11.8,3.1s-3.9,1.6-4.8,4.5c-1,3.3,2.4,7,2.4,7c4.7,2.9,8.7,6.6,12,11
	c4.7,6.7,6.9,12.4,11.4,9.7s4.3-6.3,0.3-10.1c-1.5-1.5-2.8-2.9-3.9-4.2c1,0.5,2,1,3,1.5c7.1,4.1,11.5,8.3,14.4,4s1.2-7.5-4-9.3
	s-8.6-3.9-11.1-4.7c0,0-7.3-3.6-6.8-4s4.2-0.5,8.6-2s4.2-7.7,1.5-9.9S71,237.1,68,238.2z"/>
</svg>
