<?xml version="1.0" encoding="utf-8"?>
<!-- Generator: Adobe Illustrator 25.2.0, SVG Export Plug-In . SVG Version: 6.00 Build 0)  -->
<svg version="1.1" id="Layer_1" xmlns="http://www.w3.org/2000/svg" xmlns:xlink="http://www.w3.org/1999/xlink" x="0px" y="0px"
	 viewBox="0 0 236.5 493" style="enable-background:new 0 0 236.5 493;" xml:space="preserve">
<style type="text/css">
	.st0{fill:#953DBA;}
	.st1{fill:#652F99;}
	.st2{fill:#C1983D;}
	.st3{fill:#F7C517;}
	.st4{clip-path:url(#SVGID_2_);}
	.st5{fill:#44F5A0;}
	.st6{fill:#33D08C;}
	.st7{fill:#1B8B79;}
	.st8{clip-path:url(#SVGID_4_);}
	.st9{clip-path:url(#SVGID_6_);}
	.st10{clip-path:url(#SVGID_8_);}
	.st11{clip-path:url(#SVGID_10_);}
	.st12{clip-path:url(#SVGID_12_);}
	.st13{fill:none;stroke:#33D08C;stroke-width:1.01;stroke-miterlimit:10;}
	.st14{clip-path:url(#SVGID_14_);}
	.st15{fill:#F5FAFF;}
	.st16{fill:#022538;}
	.st17{clip-path:url(#SVGID_16_);}
	.st18{fill:#E5B94C;}
	.st19{fill:#4D257C;}
</style>
<g id="l-calf">
	<g id="L_Calf_1_">
		<g id="L_Calf">
			<g>
				<path class="st0" d="M79.6,463.7c-0.3,4.6,4.6,15.6,5,21.6s-7.3,8.6-12.3,7.3c-1.8-0.5-2.7-2-3.2-3.9c-0.5-2.5-0.6-5.1-0.2-7.7
					l0,0c-3,1-5.4,2.4-11.4,6.1c-5.3,3-11.2,4.7-17.2,5l0,0c-2.1,0.1-4.1,0.1-6.2-0.2c-3.5-0.4-3-4.9-2.5-6.9c0.1-0.5,0.2-0.8,0.2-1
					c0,0,0,0,0-0.1c-4.5,0.7-9.1,0.7-13.6,0l-0.3-6.6c0-0.4,0-0.9,0.2-1.3c1.7-5.3,16.3-5.3,23.4-8.6c4.5-2.2,13.5-9.1,20-14.2
					c4.3-3.4,7.5-6,7.5-6l3.9-1.9l2.1-1c0.1,0.3,0.2,0.6,0.3,0.9c2.6,8.2,9.5,10.1,12.3,15.5C90.5,466.4,79.6,463.7,79.6,463.7z"/>
				<path class="st1" d="M53.2,483.6c0.1-0.6,0.3-1,0.3-1C53.5,482.9,53.4,483.3,53.2,483.6z"/>
				<path class="st1" d="M23.6,478.8c0,0,12.1-2.2,21.6-7.6c-3.3,2-11.8,7.6-13.5,12.9c-4.5,0.7-9.1,0.7-13.6,0L23.6,478.8z"/>
				<path class="st1" d="M71.3,463.4c0,0-1.7,12.6-2.4,17.7c-3,1-5.4,2.4-11.5,6.1c-5.3,3-11.2,4.7-17.2,5
					c6.4-1.3,10.5-5.5,17.1-12.1C62.3,474.8,67,469.2,71.3,463.4z"/>
				<path class="st1" d="M46.5,469.9c-0.3,0.2-0.7,0.4-1,0.6L46.5,469.9z"/>
			</g>
			<ellipse class="st2" cx="70.1" cy="441.1" rx="9.4" ry="2.5"/>
			<path class="st3" d="M70.1,438.4c-5.2,0-9.4,1.2-9.4,2.7s4.2,2.7,9.4,2.7s9.4-1.2,9.4-2.7S75.3,438.4,70.1,438.4z M70.1,442.8
				c-3.3,0-6-0.8-6-1.8s2.7-1.7,6-1.7s6.1,0.8,6.1,1.7S73.4,442.8,70.1,442.8z"/>
			<path class="st0" d="M74.1,452c0,3.6-7.4,2-7.4,2l-9.5-116.8c3.1-0.9,6.3-1.4,9.5-1.6c2.1,0,3.8,0.3,4.3,1.4
				c15.4,38.6,3,70.7,3.1,114.1V452z"/>
			<path class="st3" d="M83.1,450.6c0,0.1,0,0.2,0,0.2l0,0V450.6z"/>
			<path class="st3" d="M80.1,451.5v0.2l0,0C80.1,451.7,80.1,451.6,80.1,451.5z"/>
			<path class="st3" d="M79.5,441.1v10.1c0,0.1,0,0.2,0,0.2c-0.3,1.1-2.9,2-6.3,2.3c-1,0.1-2.1,0.2-3.1,0.1c-4.9,0-8.9-1.1-9.4-2.5
				c0-0.1,0-0.2,0-0.2V441c0,1.5,4.2,2.7,9.4,2.7c1,0,2.1,0,3.1-0.1C76.8,443.3,79.5,442.3,79.5,441.1z"/>
			<path class="st3" d="M76.1,441.1c0,1-2.7,1.8-6.1,1.8s-6-0.8-6-1.8h-3.4c0,1.5,4.2,2.7,9.4,2.7s9.4-1.2,9.4-2.7H76.1z"/>
		</g>
	</g>
</g>
<g id="r-calf">
	<g id="L_Calf_2_">
		<g id="L_Calf_3_">
			<g>
				<path class="st0" d="M92.2,460.7c2.8-5.4,9.7-7.3,12.3-15.5c0.1-0.3,0.2-0.6,0.3-0.9l2.1,1l3.9,1.9c0,0,3.2,2.6,7.5,6
					c6.5,5.1,15.5,12,20,14.2c7.1,3.3,21.7,3.3,23.4,8.6c0.2,0.4,0.2,0.9,0.2,1.3l-0.3,6.6c-4.5,0.7-9.1,0.7-13.6,0
					c0,0.1,0,0.1,0,0.1c0,0.2,0.1,0.5,0.2,1c0.5,2,1,6.5-2.5,6.9c-2.1,0.3-4.1,0.3-6.2,0.2l0,0c-6-0.3-11.9-2-17.2-5
					c-6-3.7-8.4-5.1-11.4-6.1l0,0c0.4,2.6,0.3,5.2-0.2,7.7c-0.5,1.9-1.4,3.4-3.2,3.9c-5,1.3-12.7-1.3-12.3-7.3s5.3-17,5-21.6
					C100.2,463.7,89.3,466.4,92.2,460.7z"/>
				<path class="st1" d="M126.3,482.6c0,0,0.2,0.4,0.3,1C126.4,483.3,126.3,482.9,126.3,482.6z"/>
				<path class="st1" d="M161.7,484.1c-4.5,0.7-9.1,0.7-13.6,0c-1.7-5.3-10.2-10.9-13.5-12.9c9.5,5.4,21.6,7.6,21.6,7.6L161.7,484.1
					z"/>
				<path class="st1" d="M122.5,480.1c6.6,6.6,10.7,10.8,17.1,12.1c-6-0.3-11.9-2-17.2-5c-6.1-3.7-8.5-5.1-11.5-6.1
					c-0.7-5.1-2.4-17.7-2.4-17.7C112.8,469.2,117.5,474.8,122.5,480.1z"/>
				<path class="st1" d="M134.3,470.5c-0.3-0.2-0.7-0.4-1-0.6L134.3,470.5z"/>
			</g>
			<ellipse class="st2" cx="109.7" cy="441.1" rx="9.4" ry="2.5"/>
			<path class="st3" d="M100.3,441.1c0,1.5,4.2,2.7,9.4,2.7s9.4-1.2,9.4-2.7s-4.2-2.7-9.4-2.7S100.3,439.6,100.3,441.1z M103.6,441
				c0-0.9,2.8-1.7,6.1-1.7s6,0.7,6,1.7s-2.7,1.8-6,1.8S103.6,441.9,103.6,441z"/>
			<path class="st0" d="M105.7,451.1c0.1-43.4-12.3-75.5,3.1-114.1c0.5-1.1,2.2-1.4,4.3-1.4c3.2,0.2,6.4,0.7,9.5,1.6L113.1,454
				c0,0-7.4,1.6-7.4-2V451.1z"/>
			<path class="st3" d="M96.7,450.8L96.7,450.8c0,0,0-0.1,0-0.2V450.8z"/>
			<path class="st3" d="M99.7,451.7L99.7,451.7v-0.2C99.7,451.6,99.7,451.7,99.7,451.7z"/>
			<path class="st3" d="M106.6,443.6c1,0.1,2.1,0.1,3.1,0.1c5.2,0,9.4-1.2,9.4-2.7v10.1c0,0,0,0.1,0,0.2c-0.5,1.4-4.5,2.5-9.4,2.5
				c-1,0.1-2.1,0-3.1-0.1c-3.4-0.3-6-1.2-6.3-2.3c0,0,0-0.1,0-0.2v-10.1C100.3,442.3,103,443.3,106.6,443.6z"/>
			<path class="st3" d="M100.4,441.1c0,1.5,4.2,2.7,9.4,2.7s9.4-1.2,9.4-2.7h-3.4c0,1-2.6,1.8-6,1.8s-6.1-0.8-6.1-1.8H100.4z"/>
		</g>
	</g>
</g>
<g id="l-Thigh">
	<g>
		<path class="st0" d="M85.5,235.2C75.1,288.2,70.9,343,70.9,343s-1.4,9.8-6.7,9.4c-6-0.4-8-9.7-8-9.7s-19.6-52.7,0-112.4
			c0.9-2.7,2-5.3,3.4-7.7c0.7-1.1,1.4-2.1,2.2-3.1c0.2-0.2,0.4-0.5,0.6-0.7c4.3-5,8.5-5.7,8.5-5.7S88.3,220.5,85.5,235.2z"/>
		<path class="st1" d="M58.8,348.4c0.8,1.2,1.8,2.2,3,3c0.5,0.3,1.3,0.6,1.4,0.5c0.4-0.3,0.6-0.7,0.8-1.1c0.6-1.2,1.2-2.6,1.6-3.9
			s0.9-2.8,1.4-4.2c0.3,1.5,0.3,3.1,0.1,4.6c-0.2,1.5-0.7,3-1.4,4.5c-0.2,0.4-0.4,0.8-0.7,1.1c-0.4,0.5-0.9,0.8-1.5,0.9
			s-1.1-0.1-1.6-0.3c-0.4-0.2-0.7-0.5-1-0.7C59.7,351.6,58.9,350,58.8,348.4z"/>
	</g>
</g>
<g id="r-thigh">
	<g>
		<path class="st0" d="M123.5,342.8c-0.3,1.3-0.8,2.6-1.3,3.8c-0.2,0.3-0.3,0.7-0.5,1c-1,1.9-2.6,3.9-4.8,4.6
			c-0.5,0.2-0.9,0.3-1.4,0.3c-4.5,0.3-6.1-6.6-6.5-8.8c0-0.1,0-0.1,0-0.2s0,0,0,0s0-0.2,0-0.3c0,0,0,0,0-0.1c0,0,0,0,0-0.1
			c0,0-0.1-1.8-0.4-5c-0.8-9.2-2.8-30.1-6.2-55.1c-2-14.5-4.5-30.4-7.6-46.2l-0.3-1.6c-2.9-14.7,14.5-22,14.5-22
			c0.2,0,0.5,0.1,0.7,0.2l0.3,0.1c0.7,0.2,1.3,0.5,1.9,0.9l0.1,0.1c0.3,0.2,0.7,0.4,1.1,0.6s0.8,0.5,1.2,0.8l0.6,0.5
			c0.4,0.3,0.8,0.7,1.3,1.2l0.5,0.5l0.1,0.1c0.2,0.2,0.4,0.5,0.7,0.7s0.4,0.4,0.6,0.7c0.8,1,1.5,2,2.2,3.1c1.4,2.4,2.6,5,3.4,7.7
			C143,290,123.5,342.8,123.5,342.8z"/>
		<path class="st1" d="M112.1,343.9c0.6,1.4,1,2.8,1.4,4.1c0.2,0.6,0.4,1.2,0.8,1.7c0.2,0.4,0.6,0.6,1,0.7c0.5,0.1,1.1,0,1.6-0.2
			c0.6-0.2,1.2-0.4,1.7-0.8c1.2-0.8,2.2-1.7,3.2-2.7c-0.4,1.5-1.1,2.9-2.3,3.9c-0.6,0.6-1.3,1-2,1.3c-0.8,0.4-1.7,0.5-2.6,0.4
			c-0.5-0.1-1-0.3-1.4-0.6c-0.4-0.3-0.7-0.7-0.9-1.1c-0.4-0.7-0.6-1.5-0.6-2.3C111.9,346.9,111.9,345.4,112.1,343.9z"/>
	</g>
</g>
<g id="l-hand">
	<path class="st0" d="M34.8,247.6c-1.5-2.8-4.6-11.3-4.6-11.3s-2.1-3.7-5.1-4.1c-3.4-0.5-6.6,3.3-6.6,3.3c-2.2,5-5.4,9.5-9.3,13.3
		c-6,5.6-11.4,8.5-8.1,12.6s6.8,3.4,10-1c1.3-1.7,2.5-3.2,3.6-4.4c-0.3,1.1-0.7,2.2-1.1,3.2c-3.1,7.6-6.7,12.5-2.1,14.8
		s7.6,0.2,8.7-5.2s2.7-9,3.2-11.6c0,0,2.6-7.7,3-7.3s1,4.1,3.1,8.2c2.1,4.1,8.2,3.2,10,0.2S36.3,250.5,34.8,247.6z"/>
</g>
<g id="l-forearm">
	<g>
		<g>
			<defs>
				<path id="SVGID_1_" d="M40.5,184.4c-0.7,16.6-5.9,35.7-5.9,51.5c0,3.1-4.5,7-9.5,7c-0.9,0-1.7-0.1-2.5-0.3c-3.9-1-7-4-7-6.6
					c0-15.1-5.3-35.5-5.9-52.1c-0.2-5,0-10.1,0.5-15.1c0.4-4,1.2-11.7,4.7-11.7c3.3,0.2,6.4,1.3,9.1,3.1c4.1,2.7,7.7,6.1,10.8,9.9
					C39.3,175.9,40.7,179,40.5,184.4z"/>
			</defs>
			<clipPath id="SVGID_2_">
				<use xlink:href="#SVGID_1_"  style="overflow:visible;"/>
			</clipPath>
			<g class="st4">
				<path class="st5" d="M40.5,184.4c-0.7,16.6-5.9,35.7-5.9,51.5c0,3.1-4.5,7-9.5,7c-0.9,0-1.7-0.1-2.5-0.3c-3.9-1-7-4-7-6.6
					c0-15.1-5.3-35.5-5.9-52.1c-0.2-5,0-10.1,0.5-15.1c0.4-4,1.2-11.7,4.7-11.7c3.3,0.2,6.4,1.3,9.1,3.1c4.1,2.7,7.7,6.1,10.8,9.9
					C39.3,175.9,40.7,179,40.5,184.4z"/>
				<path class="st6" d="M34.2,185.2c-0.8,7.4-1.5,14.7-2,22.1c-0.5,6.8-0.9,13.7-1.2,20.5c-0.2,4.4-0.3,8.8-0.4,13.1
					c0,0.3,0.2,0.5,0.5,0.5s0.5-0.2,0.5-0.5c0.2-7.4,0.4-14.8,0.8-22.2c0.4-6.9,0.9-13.7,1.5-20.5c0.4-4.4,0.8-8.7,1.3-13.1
					C35.3,184.6,34.3,184.6,34.2,185.2L34.2,185.2z"/>
				<path class="st6" d="M11.2,161.3c4.8,2.3,9,5.5,12.6,9.4c3.8,4.1,6.5,8.9,9.7,13.4c1.8,2.6,3.9,5.1,6.2,7.3
					c0.5,0.4,1.2-0.3,0.7-0.7c-4.2-3.9-7.1-8.7-10.3-13.4c-3-4.7-6.7-8.8-11-12.3c-2.3-1.8-4.8-3.3-7.4-4.6
					C11.1,160.1,10.6,161,11.2,161.3L11.2,161.3z"/>
				<path class="st7" d="M31.4,166.7c6.6,7,10,14.6,7.6,16.9c-1.3-3-3.6-7.6-10.2-14.6c-3.9-4.4-8.6-8-13.7-10.9
					C17.7,157.4,24.8,159.6,31.4,166.7z"/>
			</g>
		</g>
	</g>
</g>
<g id="r-hand">
	<path class="st0" d="M201,110.2c-0.9,3-4.5,11.3-4.5,11.3s-1.1,4.1,0.8,6.5c2.1,2.7,7,2.2,7,2.2c5.1-2,10.5-3.1,16-3.1
		c8.2,0.2,14.1,1.8,14.6-3.3s-2.5-7.2-7.9-6.3c-2.1,0.3-4,0.5-5.7,0.6c1-0.6,2-1.1,3.1-1.5c7.5-3.3,13.6-4.3,11.8-9.2
		s-5.3-5.4-9.8-2.3s-8.2,4.6-10.4,6.1c0,0-7.2,3.7-7.2,3.1s2.1-3.7,3.6-8s-3.6-8-7-7.1S202,107.2,201,110.2z"/>
</g>
<g id="r-forearm">
	<g>
		<g>
			<defs>
				<path id="SVGID_3_" d="M152.8,151.6c12.1-11.4,29.1-21.4,40.1-32.8c2.2-2.3,8.1-1.8,11.7,1.7c0.6,0.6,1.1,1.3,1.6,2
					c2.1,3.4,2.2,7.8,0.4,9.6c-10.6,10.9-20.9,29.1-32.1,41.5c-3.4,3.7-7,7.2-10.9,10.5c-3.1,2.5-9.1,7.5-11.6,5.1
					c-2.2-2.4-3.7-5.4-4.3-8.6c-1.1-4.8-1.3-9.7-0.8-14.6C147.8,158.4,148.9,155.3,152.8,151.6z"/>
			</defs>
			<clipPath id="SVGID_4_">
				<use xlink:href="#SVGID_3_"  style="overflow:visible;"/>
			</clipPath>
			<g class="st8">
				<path class="st5" d="M152.8,151.6c12.1-11.4,29.1-21.4,40.1-32.8c2.2-2.3,8.1-1.8,11.7,1.7c0.6,0.6,1.1,1.3,1.6,2
					c2.1,3.4,2.2,7.8,0.4,9.6c-10.6,10.9-20.9,29.1-32.1,41.5c-3.4,3.7-7,7.2-10.9,10.5c-3.1,2.5-9.1,7.5-11.6,5.1
					c-2.2-2.4-3.7-5.4-4.3-8.6c-1.1-4.8-1.3-9.7-0.8-14.6C147.8,158.4,148.9,155.3,152.8,151.6z"/>
				<path class="st6" d="M158,155.4c5.7-4.7,11.4-9.5,16.9-14.4c5.1-4.5,10.2-9.2,15.2-13.9c3.2-3,6.3-6.1,9.5-9.1
					c0.5-0.4-0.2-1.2-0.7-0.7c-5.3,5.2-10.6,10.3-16.1,15.3c-5,4.7-10.2,9.2-15.4,13.6c-3.3,2.9-6.7,5.7-10,8.5
					C156.8,155.1,157.6,155.8,158,155.4L158,155.4z"/>
				<path class="st6" d="M157.7,188.6c-1.9-5.2-2.7-10.7-2.4-16.2c0.2-5.4,1.6-10.6,2.4-16c0.5-3,0.7-6.1,0.6-9.2c0-0.6-1-0.6-1,0
					c0.2,5.5-0.9,10.8-1.9,16.2c-1.1,5.4-1.4,11-0.9,16.5c0.4,3.1,1.1,6.1,2.2,8.9C156.9,189.4,157.9,189.1,157.7,188.6L157.7,188.6
					z"/>
				<path class="st7" d="M147,170.6c0.2-9.7,3-17.4,6.3-17.4c-1.2,3-2.7,8-2.9,17.6c-0.2,5.9,0.6,11.7,2.2,17.4
					C150.4,186.8,146.8,180.3,147,170.6z"/>
			</g>
		</g>
	</g>
</g>
<g id="l-arm">
	<g>
		<g>
			<defs>
				<path id="SVGID_5_" d="M76.2,109.3l-9.6-13.5l-21-1.7L15.1,158c5.1,2.9,9.8,6.5,13.7,10.9c6.6,7,9,11.6,10.2,14.6
					c0.4-0.4,0.6-0.9,0.7-1.4L76.2,109.3z"/>
			</defs>
			<clipPath id="SVGID_6_">
				<use xlink:href="#SVGID_5_"  style="overflow:visible;"/>
			</clipPath>
			<g class="st9">
				<path class="st0" d="M66.6,109.8c-0.1,0.4-0.3,0.7-0.5,1.1c-3.2,5.6-6.3,11.2-9.4,16.9l-4.5,8.5l-4.5,8.5
					c-2.9,5.7-5.9,11.4-8.7,17.2s-5.5,11.6-7.8,17.6c-1.3,3.5-5.1,5.4-8.7,4.4c-0.3-0.1-0.6-0.2-0.8-0.3c-3.8-1.5-5.7-5.7-4.2-9.5
					c0.2-0.4,0.3-0.7,0.5-1.1c3.3-5.5,6.2-11.3,9.1-17s5.5-11.6,8.2-17.5l4-8.8l3.9-8.8c2.6-5.9,5.1-11.8,7.5-17.8
					c1.8-4.4,6.8-6.6,11.2-4.8S68.4,105.5,66.6,109.8L66.6,109.8z"/>
			</g>
		</g>
	</g>
</g>
<g id="r-arm">
	<g>
		<g>
			<defs>
				<path id="SVGID_7_" d="M103.6,109.3l9.6-13.5l21-1.7l19.1,59.2c-2.1,5.6-3,11.6-2.9,17.6c0,9.7,1,12.4,2.2,17.4
					C143.3,183.8,103.6,109.3,103.6,109.3z"/>
			</defs>
			<clipPath id="SVGID_8_">
				<use xlink:href="#SVGID_7_"  style="overflow:visible;"/>
			</clipPath>
			<g class="st10">
				<path class="st0" d="M113.2,109.8c0.1,0.4,0.3,0.7,0.5,1.1c3.2,5.6,6.3,11.2,9.4,16.9l4.5,8.5l4.5,8.5
					c2.9,5.7,5.9,11.4,8.7,17.2s5.5,11.6,7.8,17.6c1.3,3.5,5.1,5.4,8.7,4.4c0.3-0.1,0.6-0.2,0.8-0.3c3.8-1.5,5.7-5.7,4.2-9.5
					c-0.2-0.4-0.3-0.7-0.5-1.1c-3.3-5.5-6.2-11.3-9.1-17s-5.5-11.6-8.2-17.5l-4-8.8l-3.9-8.8c-2.6-5.9-5.1-11.8-7.5-17.8
					c-1.8-4.4-6.8-6.6-11.2-4.8S111.4,105.5,113.2,109.8L113.2,109.8z"/>
			</g>
		</g>
	</g>
</g>
<g id="hips">
	<g>
		<g>
			<defs>
				<path id="SVGID_9_" d="M114.3,217c0,0-1.3,4.4-3,10.1c-0.9,3.1-1.9,6.6-2.9,9.9c-1.1,3.9-2.2,7.6-2.9,10.3
					c-1.4,5.1-6.6,21.8-16,21.8s-14.6-16.7-16-21.8c-0.7-2.6-1.8-6.3-2.9-10.1l0,0c-1-3.6-2.1-7.4-3.1-10.7
					c-1.6-5.4-2.8-9.6-2.8-9.6L114.3,217z"/>
			</defs>
			<clipPath id="SVGID_10_">
				<use xlink:href="#SVGID_9_"  style="overflow:visible;"/>
			</clipPath>
			<g class="st11">
				<rect x="59.9" y="213" class="st5" width="55" height="59"/>
				<path class="st6" d="M66.4,215.2c2.4,3.5,3.4,7.6,4.4,11.7c1,4.5,1.9,8.9,2.9,13.4c1.8,8.2,4.1,16.4,8.3,23.7
					c2.2,3.8,5,7.3,8.3,10.2c0.5,0.4,1.2-0.3,0.7-0.7c-6-5.2-9.9-12.3-12.6-19.7c-3-8.4-4.5-17.3-6.4-26c-1-4.5-2-9.2-4.7-13.1
					C66.9,214.1,66,214.7,66.4,215.2L66.4,215.2z"/>
				<path class="st6" d="M111.5,214.7c-2.3,3.4-3.4,7.4-4.3,11.4c-1,4.4-1.9,8.9-2.9,13.4c-1.8,8.2-4,16.4-8.2,23.7
					c-2.2,3.9-5,7.3-8.3,10.3c-0.5,0.4,0.2,1.1,0.7,0.7c5.9-5.2,9.9-12.2,12.6-19.5c3.1-8.4,4.6-17.3,6.5-26.1c1-4.6,2-9.5,4.7-13.5
					C112.7,214.7,111.8,214.2,111.5,214.7z"/>
			</g>
		</g>
	</g>
</g>
<g id="torso">
	<g>
		<ellipse class="st2" cx="89.9" cy="202.5" rx="30" ry="10.5"/>
		<path class="st7" d="M113,180.1c0-12.1-10.4-23.2-23.2-23.2S66.7,168,66.7,180.1c2,5,6.5,10,23.1,10S110.2,186.9,113,180.1z"/>
		<path class="st0" d="M112.2,215.7l-8.9,3.5l-13.4,5.3l-22.6-8.9c0,0,5.6-11.6,5.6-21.2c0-2.7-0.2-6.6-0.6-10.8
			c-0.9-10.9-2.5-24.1-2.5-24.1s4.3-8.4,19.9-8.4s19.9,8.4,19.9,8.4s-3,25.3-3,34.9S112.2,215.7,112.2,215.7z"/>
		<g>
			<g>
				<defs>
					<path id="SVGID_11_" d="M113,180.1c-10,0-8.6-18.6-23.2-18.6s-13.1,18.6-23.1,18.6c0-16.1-13.5-47.8-7.7-83.7
						c14.4-5.7,46-5.8,61.7,0C126.2,133,113,164.6,113,180.1z"/>
				</defs>
				<clipPath id="SVGID_12_">
					<use xlink:href="#SVGID_11_"  style="overflow:visible;"/>
				</clipPath>
				<g class="st12">
					<rect x="49.9" y="89" class="st5" width="77" height="103"/>
					<path class="st6" d="M69.2,89.8c-4.5,3.6-6.5,9.2-7.2,14.7c-0.4,3.2-0.6,6.5-0.6,9.8s0,6.6,0.2,9.8c0.4,6.6,1.2,13.1,2.4,19.6
						c1.1,6.6,2.3,13.1,3,19.7c0.7,7.4,0.9,14.9,1.1,22.3c0,0.6,1,0.6,1,0c-0.1-6.6-0.3-13.1-0.8-19.6s-1.6-12.9-2.7-19.3
						s-2.2-12.9-2.7-19.4c-0.5-6.5-0.6-13-0.2-19.4c0.4-6.4,2-13.3,7.2-17.5C70.4,90.1,69.7,89.4,69.2,89.8z"/>
					<path class="st6" d="M109.9,90.6c4.6,3.7,6.4,9.5,7,15.2c0.3,3.2,0.5,6.4,0.4,9.6c0,3.3-0.1,6.6-0.3,9.8
						c-0.8,13-4.1,25.6-5.3,38.6c-0.7,7.4-0.9,14.7-1,22.1c0,0.3,0.2,0.5,0.5,0.5s0.5-0.2,0.5-0.5c0.2-6.6,0.3-13.3,0.8-19.9
						s1.7-13.2,2.8-19.8s2.2-13,2.7-19.6s0.5-13.2,0-19.7c-0.5-6.3-2.3-13-7.4-17.1C110.1,89.4,109.3,90.1,109.9,90.6L109.9,90.6z"
						/>
					<rect x="71.4" y="127.5" class="st13" width="38" height="21"/>
				</g>
			</g>
		</g>
		<path class="st6" d="M100.9,94.7c0,0-3.6-2.2-11.1-2.2s-11.1,2.2-11.1,2.2L80,83.4c0,0,2.4-0.7,9.8-0.7s9.4,0.6,9.4,0.6
			L100.9,94.7z"/>
		<path class="st2" d="M89.9,116.2c0,0,13.9-3,15.6-18.9s-25.6-11.4-28.7-7C73.3,95.3,70.7,105.4,89.9,116.2z"/>
		<polygon class="st1" points="71.1,96.2 89.4,94.1 107.6,95.9 90,117.1 		"/>
		<path class="st1" d="M100,108.6c0,0-2.8,7.3-10.1,7.3s-10.1-7.3-10.1-7.3c0.8-7.1,1.1-14.2,1-21.3c0-13.9-0.7-25.3-0.7-25.3h19.6
			c0,0-0.7,11.5-0.7,25.3C98.9,94.4,99.2,101.6,100,108.6z"/>
		<path class="st3" d="M109.5,98.6c-0.5,2-1.3,3.9-2.4,5.6c-1,1.6-2.2,3.1-3.5,4.5c-1.2,1.4-2.6,2.7-4.1,3.8
			c-2.9,2.3-6.3,3.8-10,4.4c-0.1,0-0.1,0-0.2,0l0,0h-0.1c-0.2,0-0.3-0.2-0.3-0.3c0-0.3,0.1-0.5,0.3-0.7l0,0l0,0h0.1
			c1.4-0.8,2.7-1.8,3.9-2.9c1.2-1.1,2.3-2.3,3.2-3.6c1.3-1.7,2.3-3.5,3.1-5.5c0.4-1,0.8-1.9,1.1-2.9c1-2.8,1.2-5.6,0.4-7.4
			c-0.2-0.7-0.7-1.3-1.4-1.6c-0.2-0.1-0.4-0.2-0.7-0.2c0-1.8-0.1-3.8-0.1-5.9c0-1.5,0-3.1,0-4.5l0.9,0.2c2.5,0.5,4.9,1.7,6.8,3.5
			c1.8,1.9,3,4.3,3.4,6.8C110.3,94.1,110.2,96.4,109.5,98.6z"/>
		<path class="st3" d="M90.2,116.8c-0.1,0.2-0.2,0.3-0.4,0.3h-0.1h-0.1c-3.5-0.6-6.7-2-9.5-4.2c-1.4-1.1-2.7-2.3-3.9-3.6
			c-1.2-1.3-2.3-2.8-3.3-4.3c-1-1.7-1.8-3.5-2.3-5.3c-0.6-2.1-0.7-4.3-0.4-6.4c0.4-2.4,1.5-4.7,3.2-6.5c1.8-1.7,4-2.8,6.4-3.3l1-0.2
			c0,1.4,0,2.8,0,4.3c0,2,0,3.8-0.1,5.6c-0.3,0-0.5,0.1-0.8,0.3c-0.6,0.3-1.1,0.9-1.3,1.5c-0.7,1.7-0.6,4.4,0.4,7
			c0.3,1.1,0.7,2.1,1.2,3.1c0.8,1.7,1.7,3.4,2.8,4.9c0.9,1.2,1.9,2.4,3.1,3.4c1.1,1.1,2.4,2,3.7,2.8h0.1H90
			C90.2,116.2,90.3,116.5,90.2,116.8L90.2,116.8z"/>
		<path class="st3" d="M119.9,218c-5.3,5.1-22.6,9.9-30,12.9c-7.1-2.9-25.3-8.4-30-12.9v-15.2c4.7,5.8,21.3,9.4,30,12.9
			c8.2-3.4,24.2-6.8,30-12.9V218z"/>
		<path class="st3" d="M112.4,94.1c0,0,10.8,9.7,8.1,42c0,0,15.7-32.1,7.4-43C120.2,91.2,112.4,94.1,112.4,94.1z"/>
		<path class="st3" d="M67.3,94.1c0,0-10.8,9.7-8.1,42c0,0-15.7-32.1-7.4-43C59.5,91.2,67.3,94.1,67.3,94.1z"/>
		<path class="st3" d="M119.9,202.8V218c-2.3,1.9-4.9,3.4-7.6,4.6c-7.3,3.3-17.2,6.3-22.4,8.3c-7.1-2.9-25.3-8.4-30-12.9v-15.2
			c4.7,5.8,21.3,9.4,30,12.9c5.7-2.3,15.2-4.7,22.4-8C115.1,206.6,117.7,204.9,119.9,202.8z"/>
	</g>
</g>
<g id="head">
	<g>
		<path class="st0" d="M111.2,59.1c-2.7,1.7-4.7,4.2-5.8,7.2c-1,2.8-2.6,6.4-4.1,10.4C98.5,83.8,96.1,88,89.9,88s-8.5-4.3-11.3-11.3
			c-1.6-4-3.2-7.6-4.2-10.4c-1.1-3-3.2-5.5-5.9-7.2c-8.8-5.7-10-15.8-8.4-27.2C62.9,13,72.5,0,89.9,0s27.5,13.4,29.7,32
			C121,43.3,119.9,53.4,111.2,59.1z"/>
		<g>
			<g>
				<defs>
					<path id="SVGID_13_" d="M82.9,46c2,4.6,1.7,8.8-0.5,10.8c-3.8,0.3-9.8-1.4-11.8-6s-1.8-8,1.5-11.1C75.2,38.4,80.9,41.4,82.9,46
						z"/>
				</defs>
				<clipPath id="SVGID_14_">
					<use xlink:href="#SVGID_13_"  style="overflow:visible;"/>
				</clipPath>
				<g class="st14">
					<rect x="66.9" y="36" class="st15" width="21" height="24"/>
					<circle class="st7" cx="77.4" cy="50.5" r="7.5"/>
					<circle cx="77.9" cy="50" r="4"/>
					<path class="st16" d="M82.7,58.7c0,0,4.9-11.4-5.1-17c-1.7-0.8-3.6-0.9-5.4-0.3c0,0-2.2,0.7-2.3,4.2c-0.1,2.7,0.7,5.4,2.3,7.6
						l-6-0.2l-2.8-22.3l17.5,0.9l8.6,25.3L82.7,58.7z"/>
				</g>
			</g>
		</g>
		<g>
			<g>
				<defs>
					<path id="SVGID_15_" d="M96.9,46c-2,4.6-1.7,8.8,0.5,10.8c3.8,0.3,9.8-1.4,11.8-6s2-7.7-1.5-11.1C104.5,38.4,98.9,41.4,96.9,46
						z"/>
				</defs>
				<clipPath id="SVGID_16_">
					<use xlink:href="#SVGID_15_"  style="overflow:visible;"/>
				</clipPath>
				<g class="st17">
					<rect x="91.9" y="37" class="st15" width="22" height="22"/>
					<circle class="st7" cx="102.4" cy="50.5" r="7.5"/>
					<circle cx="101.9" cy="50" r="4"/>
					<path class="st16" d="M97.1,58.7c0,0-4.9-11.4,5.1-17c1.7-0.9,3.7-1,5.4-0.3c0,0,2.2,0.7,2.3,4.2c0.1,2.7-0.7,5.4-2.3,7.6
						l5.9-0.1l2.8-22.3l-17.5,0.9L90.2,57L97.1,58.7z"/>
				</g>
			</g>
		</g>
		<path class="st18" d="M71.6,11.4c0.8-0.2,1.6-0.2,2.4-0.1c0.7,0.1,1.3,0.3,2,0.5c1.1,0.4,2.2,0.9,3.2,1.5c1.8,1.1,3.5,2.2,5.1,3.5
			c1.5,1.2,2.9,2.4,4.2,3.3c0.5,0.4,1,0.7,1.6,1c0.4,0.2,0.5,0.1-0.2,0s-0.6,0.2-0.2,0c0.6-0.3,1.1-0.6,1.6-1
			c1.3-0.9,2.7-2.1,4.2-3.3c1.6-1.3,3.3-2.4,5.1-3.5c1-0.6,2.1-1.1,3.2-1.5c0.7-0.2,1.3-0.4,2-0.5c0.8-0.1,1.6-0.1,2.3,0.1l0.4,0.1
			c1,0.3,1.6,1.5,1.3,2.5c-0.2,0.8-0.9,1.3-1.7,1.4c-0.6,0.1-1.1,0.3-1.6,0.7c-0.7,0.5-1.4,1-2,1.6c-1.3,1.2-2.7,2.6-4,4
			s-2.7,2.8-4.3,4.2c-0.8,0.7-1.7,1.4-2.6,1.9c-2.2,1.6-5.2,1.6-7.5,0c-0.9-0.6-1.8-1.2-2.6-1.9c-1.6-1.4-2.9-2.8-4.3-4.2
			s-2.7-2.8-4-4c-0.6-0.6-1.3-1.1-2-1.6c-0.5-0.3-1-0.6-1.6-0.6c-1.1-0.1-1.9-1.1-1.8-2.2c0.1-0.8,0.6-1.5,1.4-1.7L71.6,11.4z"/>
		<path class="st18" d="M78.8,3.4c0.8-0.2,1.7-0.1,2.5,0.1c0.3,0.1,0.7,0.2,1,0.3s0.6,0.3,0.9,0.4c1.1,0.5,2.1,1.2,3.1,1.9
			c1,0.6,1.8,1.3,2.6,1.7c0.2,0.1,0.4,0.2,0.5,0.3l0.2,0.1l0.2,0.1c0.3,0.1,0.3,0,0,0s-0.2,0.1,0.1,0L90,8.2l0.2-0.1
			c0.2-0.1,0.3-0.2,0.5-0.3c0.8-0.4,1.6-1.1,2.6-1.7c1-0.7,2.1-1.3,3.2-1.9c0.3-0.1,0.6-0.3,0.9-0.4c0.3-0.1,0.7-0.3,1-0.3
			c0.8-0.2,1.7-0.3,2.5-0.1h0.2c0.7,0.1,1.1,0.8,0.9,1.4c-0.1,0.5-0.6,0.9-1.1,0.9C100.2,6,99.4,6.4,98.8,7
			c-0.8,0.7-1.6,1.4-2.5,2.2c-0.8,0.8-1.7,1.6-2.7,2.3c-0.2,0.2-0.5,0.4-0.8,0.5c-0.3,0.2-0.5,0.4-0.8,0.5c-1.3,0.8-3,0.8-4.3,0
			c-0.3-0.1-0.6-0.3-0.8-0.5c-0.3-0.2-0.5-0.3-0.8-0.5c-1-0.7-1.8-1.5-2.7-2.3S81.8,7.6,81,7c-0.6-0.6-1.4-1-2.2-1.2
			c-0.7,0-1.2-0.6-1.2-1.2s0.4-1,0.9-1.2L78.8,3.4z"/>
		<path class="st19" d="M98.4,70c-2.6,0.9-5.4,1.4-8.1,1.4c-2.9-0.1-5.7-0.6-8.5-1.4H98.4z"/>
		<path class="st19" d="M64.4,40.2c0.5-1.6,1.6-3,3-3.9c1.5-0.9,3.1-1.4,4.8-1.5c1.7-0.1,3.3,0.1,4.9,0.6c0.8,0.3,1.5,0.6,2.3,0.9
			s1.4,0.8,2.1,1.2c0.2,0.2,0.3,0.5,0.1,0.7c-0.1,0.2-0.3,0.2-0.5,0.2l0,0c-0.8-0.2-1.5-0.3-2.2-0.6s-1.4-0.3-2.2-0.4
			c-0.7-0.1-1.4-0.2-2.2-0.2c-0.4,0-0.7-0.1-1.1-0.1s-0.7,0-1,0c-1.4,0.1-2.8,0.4-4.1,0.9C67,38.6,65.6,39.3,64.4,40.2z"/>
		<path class="st19" d="M115.5,40.2c-1.2-0.9-2.6-1.5-4-2.1c-1.3-0.5-2.7-0.8-4.1-0.9c-0.3,0-0.7,0-1.1,0s-0.7,0-1.1,0.1
			c-0.7,0-1.4,0.1-2.2,0.2c-0.7,0.1-1.4,0.3-2.2,0.4s-1.4,0.4-2.2,0.6h-0.1c-0.3,0-0.5-0.1-0.6-0.4c0-0.2,0-0.4,0.2-0.5
			c0.7-0.4,1.3-0.8,2.1-1.2s1.5-0.6,2.3-0.9c1.6-0.5,3.3-0.7,4.9-0.6c1.7,0.1,3.4,0.6,4.8,1.5C113.9,37.2,115,38.5,115.5,40.2z"/>
	</g>
</g>
</svg>
