<?xml version="1.0" encoding="utf-8"?>
<!-- Generator: Adobe Illustrator 25.2.0, SVG Export Plug-In . SVG Version: 6.00 Build 0)  -->
<svg version="1.1" id="Layer_1" xmlns="http://www.w3.org/2000/svg" xmlns:xlink="http://www.w3.org/1999/xlink" x="0px" y="0px"
	 viewBox="0 0 180 547.9" style="enable-background:new 0 0 180 547.9;" xml:space="preserve">
<style type="text/css">
	.st0{fill:#953DBA;}
	.st1{clip-path:url(#SVGID_2_);}
	.st2{fill:#44F5A0;}
	.st3{fill:#1B8B79;}
	.st4{fill:#33D08C;}
	.st5{clip-path:url(#SVGID_4_);}
	.st6{fill:#652F99;}
	.st7{fill:#C1983D;}
	.st8{fill:#F7C517;}
	.st9{clip-path:url(#SVGID_6_);}
	.st10{clip-path:url(#SVGID_8_);}
	.st11{fill:none;stroke:#33D08C;stroke-width:0.86;stroke-miterlimit:10;}
	.st12{fill:#4D257C;}
	.st13{clip-path:url(#SVGID_10_);}
	.st14{fill:#F5FAFF;}
	.st15{fill:#022538;}
	.st16{clip-path:url(#SVGID_12_);}
	.st17{fill:#E5B94C;}
	.st18{clip-path:url(#SVGID_14_);}
	.st19{clip-path:url(#SVGID_16_);}
</style>
<path id="l-hand" class="st0" d="M35.3,26.3c-1.3,2.9-4.1,11.5-4.1,11.5s-1.9,3.8-4.9,4.4c-3.4,0.7-6.7-3-6.7-3
	c-2.5-4.9-5.9-9.2-10-12.9c-6.3-5.2-11.8-7.9-8.7-12.1s6.6-3.7,10.1,0.5c1.4,1.7,2.7,3,3.8,4.2c-0.4-1.1-0.8-2.1-1.3-3.2
	C10,8.4,6.2,3.6,10.7,1.1s7.6-0.6,8.9,4.7s3.1,8.9,3.8,11.4c0,0,3,7.6,3.4,7.1s0.8-4.1,2.6-8.4s8-3.6,9.9-0.7S36.7,23.4,35.3,26.3z"
	/>
<g id="l-forearm">
	<defs>
		<path id="SVGID_1_" d="M44.2,89.2c-1.5-16.5-7.7-35.3-8.5-51.1c-0.2-3.2-4.9-6.7-9.9-6.5c-0.9,0.1-1.7,0.2-2.5,0.4
			c-3.8,1.2-6.8,4.4-6.6,7c0.8,15.1-3.5,35.7-3.3,52.4c0.1,5,0.5,10.1,1.3,15.1c0.6,3.9,1.8,11.6,5.3,11.5c3.3-0.3,6.4-1.6,9-3.6
			c3.9-2.9,7.4-6.4,10.2-10.4C43.5,97.7,44.7,94.6,44.2,89.2z"/>
	</defs>
	<clipPath id="SVGID_2_">
		<use xlink:href="#SVGID_1_"  style="overflow:visible;"/>
	</clipPath>
	<g class="st1">
		<path class="st2" d="M44.2,89.2c-1.5-16.5-7.7-35.3-8.5-51.1c-0.2-3.2-4.9-6.7-9.9-6.5c-0.9,0.1-1.7,0.2-2.5,0.4
			c-3.8,1.2-6.8,4.4-6.6,7c0.8,15.1-3.5,35.7-3.3,52.4c0.1,5,0.5,10.1,1.3,15.1c0.6,3.9,1.8,11.6,5.3,11.5c3.3-0.3,6.4-1.6,9-3.6
			c3.9-2.9,7.4-6.4,10.2-10.4C43.5,97.7,44.7,94.6,44.2,89.2z"/>
		<path class="st3" d="M36,107.4c6.3-7.4,9.3-15.1,6.8-17.2c-3.6,1-7.1,4.7-13.4,12s-8.9,12.5-9.3,14.6
			C22.7,117.3,29.7,114.7,36,107.4z"/>
		<path class="st4" d="M38.7,87.5c-1.1-7.2-2.2-14.4-3.1-21.6C34.7,59.3,34,52.7,33.4,46c-0.4-4.3-0.7-8.6-1-12.9c0-0.6-1-0.7-1,0
			c0.5,7.3,1.2,14.6,1.9,21.9c0.7,6.7,1.5,13.3,2.4,19.9c0.6,4.3,1.3,8.6,1.9,12.9C37.8,88.4,38.8,88.2,38.7,87.5L38.7,87.5z"/>
		<path class="st4" d="M16.9,114.3c0.7-2.6,2-5.1,3.6-7.3c1.8-2.4,3.6-4.8,5.6-7c1.9-2.2,3.7-4.3,5.7-6.3c1.8-1.9,3.7-3.6,5.8-5.1
			c1.8-1.4,4-2.1,6.2-2c0.6,0.1,0.6-0.9,0-1c-2-0.1-4,0.4-5.7,1.5c-2.2,1.3-4.2,3-6,4.8c-2.1,2.1-4.1,4.3-6,6.5s-4,4.7-5.9,7.1
			c-2,2.5-3.5,5.3-4.4,8.4C15.8,114.6,16.7,114.9,16.9,114.3L16.9,114.3z"/>
	</g>
</g>
<g id="l-arm">
	<defs>
		<path id="SVGID_3_" d="M83.6,162.4l-8.9,14l-20.9,2.7l-33.7-62.4c0.5-2.6,3-7.3,9.3-14.6s10.2-11.3,13.4-12
			c0.4,0.4,0.7,0.8,0.8,1.3L83.6,162.4z"/>
	</defs>
	<clipPath id="SVGID_4_">
		<use xlink:href="#SVGID_3_"  style="overflow:visible;"/>
	</clipPath>
	<g class="st5">
		<path class="st0" d="M74,162.3c-0.2-0.3-0.4-0.7-0.6-1c-3.5-5.4-6.9-10.9-10.2-16.4l-5-8.3l-4.9-8.3c-3.2-5.6-6.5-11.1-9.5-16.8
			s-6-11.3-8.7-17.2c-1.5-3.4-5.3-5.1-8.9-4c-0.3,0.1-0.6,0.2-0.8,0.3c-3.7,1.7-5.4,6-3.7,9.7c0.2,0.4,0.4,0.7,0.6,1.1
			c3.6,5.4,6.8,10.9,9.9,16.5s6.1,11.3,9.1,17l4.4,8.6l4.4,8.6c2.9,5.8,5.7,11.6,8.4,17.4c2,4.3,7.1,6.2,11.4,4.2c0,0,0,0,0,0
			c0.9-0.4,1.7-1,2.4-1.6C74.8,169.6,75.5,165.7,74,162.3z"/>
	</g>
</g>
<g id="l-calf">
	<g>
		<path class="st0" d="M87.8,512.2c-0.3,4.6,4.6,15.4,4.9,21.3s-7.2,8.5-12.1,7.2c-1.7-0.5-2.7-2-3.1-3.8c-0.5-2.5-0.6-5.1-0.2-7.6
			l0,0c-2.9,1-5.4,2.4-11.3,6c-5.2,3-11.1,4.7-17.1,5l0,0c-2,0.1-4.1,0.1-6.1-0.2c-3.5-0.4-3-4.8-2.5-6.8c0.1-0.5,0.2-0.8,0.2-1
			c0,0,0,0,0-0.1c-4.5,0.7-9,0.7-13.5,0l-0.3-6.6c0-0.4,0-0.9,0.2-1.3c1.7-5.2,16.1-5.2,23.1-8.5c4.5-2.2,13.5-9,19.9-14.1
			c4.2-3.4,7.4-6,7.4-6l3.8-1.8l2.1-1c0.1,0.3,0.2,0.6,0.3,0.9c2.5,8.1,9.4,10,12.2,15.4C98.6,514.9,87.8,512.2,87.8,512.2z"/>
		<path class="st6" d="M32.4,527c0,0,12-2.2,21.4-7.5c-3.3,2-11.6,7.5-13.4,12.8c-4.5,0.7-9,0.7-13.5,0L32.4,527z"/>
		<path class="st6" d="M79.6,511.7c0,0-1.6,12.5-2.3,17.5c-3,1-5.4,2.4-11.3,6c-5.2,3-11.1,4.7-17.1,5c6.3-1.3,10.4-5.4,16.9-12
			C70.7,523.1,75.3,517.5,79.6,511.7z"/>
	</g>
	<ellipse class="st7" cx="78.2" cy="490.4" rx="8.6" ry="2.5"/>
	<path class="st8" d="M78.4,487.6c-5.1,0-9.3,1.2-9.3,2.7s4.2,2.7,9.3,2.7s9.3-1.2,9.3-2.7S83.5,487.6,78.4,487.6z M78.4,492
		c-3.3,0-6-0.8-6-1.7s2.7-1.7,6-1.7s6,0.8,6,1.7S81.7,492,78.4,492L78.4,492z"/>
	<path class="st0" d="M82.9,501.1c0,3.5-7.4,2-7.4,2l-9.4-115.6c3.1-0.9,6.3-1.4,9.4-1.6c2.1,0,3.8,0.3,4.3,1.4
		c15.3,38.2,3,69.9,3,112.9L82.9,501.1z"/>
	<path class="st8" d="M88.9,500.6v0.2l0,0C88.9,500.8,88.9,500.7,88.9,500.6z"/>
	<path class="st8" d="M87.7,490.1v10c0,0.1,0,0.2,0,0.2c-0.3,1.1-2.8,2-6.2,2.3c-1,0.1-2,0.2-3.1,0.1c-4.9,0-8.8-1.1-9.3-2.5
		c0-0.1,0-0.2,0-0.2v-10c0,1.5,4.2,2.7,9.3,2.7c1,0,2,0,3.1-0.1C85,492.3,87.7,491.3,87.7,490.1z"/>
	<path class="st8" d="M84.3,490.3c0,1-2.7,1.7-6,1.7s-6-0.8-6-1.7h-3.3c0,1.5,4.2,2.7,9.3,2.7s9.3-1.2,9.3-2.7H84.3z"/>
</g>
<path id="l-thigh" class="st0" d="M93.2,302c-12.3,52-13.9,90.8-13.9,90.8s-1.3,9.7-6.6,9.4c-6.8-0.5-8.2-10.6-9.5-15.6
	c-2.3-8.2-4-16.5-5.1-24.9c-2.3-15.3-2.5-30.8-0.6-46.1c1.1-9.6,2.5-19.9,5.5-29.1c2.4-7.4,7.8-20.7,16.3-22.1
	c4.2,0.5,8.1,2.7,10.6,6.1C94.6,276.6,96.4,288.4,93.2,302z"/>
<g id="hips">
	<defs>
		<path id="SVGID_5_" d="M123.7,269c-0.1,4.8-0.6,9.6-1.4,14.3c-6.8,33.3-17.8,38.2-27.1,38.2s-11.6-8.6-17.2-23
			c-3.5-9.5-6-19.2-7.7-29.2L123.7,269z"/>
	</defs>
	<clipPath id="SVGID_6_">
		<use xlink:href="#SVGID_5_"  style="overflow:visible;"/>
	</clipPath>
	<g class="st9">
		<polygon class="st2" points="120.9,325.3 65.9,325.3 65.9,266.3 129.1,266.3 		"/>
		<path class="st4" d="M72.1,267.9c1,1.7,1.6,3.7,1.5,5.7c0.1,1,0.1,2,0.2,3c0.1,1,0.4,2.1,0.6,3.1c1.1,4.5,2.2,8.9,3.4,13.4
			c1.2,4.3,2.4,8.7,3.9,12.9c1.4,3.8,3.1,7.4,5.3,10.7c2.5,3.8,5.4,7.3,8.9,10.3c0.5,0.4,1.2-0.3,0.7-0.7
			c-6.1-5.4-10.7-12.2-13.6-19.8c-1.6-4.1-2.7-8.4-3.9-12.6c-1.2-4.4-2.4-8.8-3.5-13.2c-0.3-1.2-0.6-2.4-0.8-3.6s-0.2-2.3-0.3-3.5
			c0-2.1-0.6-4.2-1.7-6.1C72.7,266.8,71.8,267.4,72.1,267.9L72.1,267.9z"/>
		<path class="st4" d="M107.5,269.3c-0.6,0.9-1.1,2-1.5,3c-0.7,1.6-1.2,3.3-1.8,5c-1.4,4.4-2.7,8.9-3.7,13.4
			c-1.1,4.5-1.8,9-2.3,13.5c-0.4,4.3-0.8,8.8,0,13.1c0.6,2.9,2.2,5.4,4.5,7.2c0.5,0.4,1.2-0.3,0.7-0.7c-2-1.5-3.4-3.6-4-6
			c-1-3.8-0.6-8-0.3-11.9c0.9-9.2,2.8-18.2,5.6-26.9c0.6-2,1.3-3.9,2-5.8c0.4-1.2,0.9-2.3,1.6-3.4
			C108.7,269.3,107.8,268.8,107.5,269.3L107.5,269.3z"/>
	</g>
</g>
<g id="r-calf">
	<ellipse class="st7" cx="120.3" cy="497.8" rx="8.6" ry="2.5"/>
	<path class="st8" d="M119.8,494.9c-5.2,0-9.4,1.2-9.4,2.7s4.2,2.7,9.4,2.7s9.4-1.2,9.4-2.7S125,494.9,119.8,494.9z M119.8,499.4
		c-3.3,0-6-0.8-6-1.8s2.7-1.7,6-1.7s6,0.8,6,1.7S123.1,499.4,119.8,499.4z"/>
	<path class="st0" d="M123.9,508.6c0,3.6-7.4,2-7.4,2L107,393.8c3.1-0.9,6.3-1.4,9.5-1.6c2.1,0,3.9,0.3,4.3,1.4
		c15.4,38.6,3,70.7,3.1,114.1L123.9,508.6z"/>
	<g>
		<path class="st0" d="M134.5,545.3c-2.1,0.5-4.3,0.3-6.3-0.4c-2.4-1.4-4.6-3-6.6-4.8l-0.1-0.1c-3.2-1.2-6.3,1.3-7.3,2.2
			c-2.8,2.3-6,4-9.5,4.9c-2.2,0.6-4.5,0.9-6.9,0.9c-2,0-2.8-3.3-2.9-5.4h-0.1c-3.6,0.8-10.1,0.4-13.2,0.1l-1.7-0.1
			c-0.4-1.7-1.3-5.4-0.1-7.9c2.4-4.9,12.3-5.4,17.4-8.8c3.3-2.2,9.7-8.8,14.1-16.2c1.4-2.3,3.2-4.4,5.4-6l2.8-1.9
			c3.2,0,5.9,2.5,6.2,5.8c0.3,4.2,0.4,8.4,0.2,12.6c1.8,4.9,4.4,11.3,9.6,14.4S138.1,544.1,134.5,545.3z"/>
		<path class="st6" d="M106.6,525.2c-3.9,4.1-11.1,12-11.8,17.4c-3.6,0.8-10.1,0.4-13.2,0.1l5-5.3
			C86.7,537.4,99.2,532.7,106.6,525.2z"/>
		<path class="st6" d="M121.6,540.1l-0.1-0.1c-3.2-1.2-6.3,1.3-7.3,2.2c-2.8,2.3-6,4-9.5,4.9c2.3-1.5,4.4-3.2,6.3-5.1
			c6.6-6.6,8.5-17.1,8.5-17.1S122.2,534.9,121.6,540.1z"/>
	</g>
	<path class="st8" d="M129.2,497.6v10c0,0.1,0,0.2,0,0.2c-0.3,1.1-2.9,2-6.3,2.3c-1,0.1-2.1,0.2-3.1,0.1c-5,0-8.9-1.1-9.4-2.5
		c0-0.1,0-0.2,0-0.2v-10c0,1.5,4.2,2.7,9.4,2.7c1,0,2.1-0.1,3.1-0.2C126.5,499.8,129.2,498.8,129.2,497.6z"/>
	<path class="st8" d="M125.8,497.6c0,1-2.8,1.8-6.1,1.8s-6-0.8-6-1.8h-3.3c0,1.5,4.2,2.7,9.4,2.7s9.4-1.2,9.4-2.7H125.8z"/>
</g>
<path id="r-thigh" class="st0" d="M132.1,318.7c-12.5,52.5-11.5,80.4-11.5,80.4s-1.4,9.8-6.7,9.5c-6.8-0.5-8.2-10.8-9.6-15.7
	c-6.9-24.8-8.7-50.8-5.2-76.3c1.2-9.8,3.3-19.5,6.3-29c2.4-7.5,6.6-16.8,15.3-18.2c4,2.6,7.3,6,9.8,10
	C135.8,288,135.4,305,132.1,318.7z"/>
<g id="torso">
	<path class="st8" d="M91.2,132.1c3.4-0.4,6.8-0.5,10.2-0.3c3.3,0.6,6.3,2.1,8.7,4.5c0.9,0.9,3.7,4,3,6.1c-1,3-7.6,4.4-9.1,1.9
		c-3.5-5.9-18.1-1.8-19.2,0s-2-10-2-10C85.5,133.1,88.3,132.4,91.2,132.1z"/>
	<path class="st7" d="M126.5,255.5c0-5.7-13.4-10.3-29.8-10.3s-29.8,4.6-29.8,10.3s3.5,19.2,28.4,19.2
		C111.7,274.8,126.5,261.2,126.5,255.5z"/>
	<path class="st3" d="M120.3,232.8c0-12.1-20-26.1-32.8-26.1s-15.7,14.1-15.7,26.1c2,5,12,11.2,28.6,11.2S119.7,237.5,120.3,232.8z"
		/>
	<path class="st0" d="M117.6,268.4l-8.9,3.5l-24.9,5.3l-11-8.9c0,0,5.6-11.6,5.6-21.2c0-2.7-0.2-6.6-0.6-10.8
		c-0.9-10.9-2.5-24.1-2.5-24.1s4.3-8.4,19.9-8.4s19.9,8.4,19.9,8.4s-3,25.3-3,34.9C112.1,256.8,117.6,268.4,117.6,268.4z"/>
	<g>
		<defs>
			<path id="SVGID_7_" d="M120.3,232.8c-25.5,1.8-22-18.6-36.5-18.6s-7.7,14.4-11.9,18.6c-5.1-16.6-18.1-52.6-5.5-83.7
				c14.4-5.6,46-5.7,61.7,0C133.5,185.6,120.3,217.3,120.3,232.8z"/>
		</defs>
		<clipPath id="SVGID_8_">
			<use xlink:href="#SVGID_7_"  style="overflow:visible;"/>
		</clipPath>
		<g class="st10">
			<rect x="57.9" y="142.3" class="st2" width="77" height="103"/>
			<path class="st4" d="M76.5,142.5c-2.7,2.1-5.8,3.5-8.4,5.7c-1.2,0.9-2.1,2.1-2.6,3.5c-0.2,0.6-0.4,1.2-0.5,1.9
				c-1.2,4.9-1.9,9.9-2.2,15c-0.6,7.2-0.6,14.4-0.2,21.6c0.6,7.3,1.6,14.5,3,21.6c1.7,8.8,4.1,17.4,7.3,25.8
				c0.4,1.1,0.8,2.1,1.3,3.1c0.2,0.6,1.2,0.3,1-0.3c-3.4-8.3-6-16.9-7.8-25.6c-1.6-7.4-2.8-14.9-3.5-22.4
				c-0.6-6.8-0.7-13.7-0.3-20.5c0.2-5.6,0.9-11.2,2-16.7c0.3-1.6,0.6-3.4,1.6-4.7c1.1-1.3,2.4-2.4,3.8-3.2c1.4-1,3-1.8,4.4-2.8
				c0.6-0.4,1.2-0.8,1.8-1.3C77.7,142.8,77,142.1,76.5,142.5L76.5,142.5z"/>
			<path class="st4" d="M123.3,144.8c-1.9,2-3.5,4.1-4.9,6.5c-1.7,2.8-3.3,5.7-4.7,8.7c-2.6,5.2-4.7,10.6-6.2,16.2
				c-0.6,2.5-1,4.9-1.2,7.4c-0.4,3.3-0.7,6.7-0.8,10c-0.5,6.7-0.5,13.5-0.2,20.2c0.2,3.5,0.7,7,1,10.5c0.3,3.9,0.9,7.7,1.7,11.5
				c0.2,1,0.5,2,0.8,3.1c0.1,0.3,0.4,0.4,0.6,0.4c0.3-0.1,0.4-0.4,0.4-0.6c-1.1-3.8-1.8-7.7-2.2-11.7c-0.4-3.7-0.8-7.4-1.1-11.2
				c-0.4-6.4-0.5-12.9-0.1-19.3c0.2-6.2,0.8-12.4,1.8-18.6c0.5-2.2,1.1-4.4,1.9-6.5c1-2.9,2.2-5.8,3.4-8.6c1.4-3,2.8-6,4.5-8.9
				c1.4-2.5,3-4.9,4.8-7.1c0.4-0.4,0.8-0.9,1.2-1.3S123.8,144.3,123.3,144.8L123.3,144.8z"/>
			<polygon class="st11" points="97.4,199.5 69.4,196.6 69.4,175.8 97.4,175.8 			"/>
		</g>
	</g>
	<path class="st8" d="M119.7,146.8c0,0-12.2,10.4,4.7,42c0,0,31-23.6,10.8-43C127.6,143.8,119.7,146.8,119.7,146.8z"/>
	<path class="st8" d="M74.6,146.8c0,0-15.8,3.7-13.1,42c0,0-16-36.6-2.4-43.1C66.8,143.8,74.6,146.8,74.6,146.8z"/>
	<path class="st8" d="M126.9,255.5v15.2c-2.3,1.9-4.9,3.4-7.6,4.5c-7.3,3.3-29.8,8.3-37.5,8.3c-7.1-2.9-14.8-7.4-14.8-12.9v-15.2
		c0,6.2,6.1,9.4,14.8,12.9c9.8-0.4,30.3-4.7,37.5-8C122.1,259.2,124.7,257.5,126.9,255.5z"/>
	<path class="st6" d="M77,146.7l16.6-3.7c0,0,20,0.5,17.5,3.7c-18.1,23.5-27.5,21.9-27.5,21.9L77,146.7z"/>
	<path class="st8" d="M83.2,168.9c-0.7-0.7-1.3-1.4-1.9-2.1c-0.6-0.7-1.1-1.5-1.7-2.3c-1.1-1.6-2-3.3-2.7-5
		c-0.8-1.8-1.4-3.8-1.8-5.7c-0.4-2.1-0.5-4.3-0.3-6.4c0.2-2.4,1-4.7,2.3-6.8c1.3-2.1,3-4,5.1-5.4c1.9-1.3,4.1-2.4,6.4-3
		c2.2-0.6,4.5-1,6.8-0.9c2.7-0.1,4.9,2.1,5,4.8c0.1,2.7-2.1,4.9-4.8,5h-0.4c-2.6,0.1-5.2,0.9-7.4,2.4c-0.9,0.6-1.8,1.5-2.4,2.4
		c-0.6,1-1.1,2.1-1.3,3.3c-0.7,2.9-1,5.9-0.9,8.9c0.1,3.5,0.5,6.9,1,10.4l0,0c0,0.3-0.1,0.5-0.4,0.6c0,0,0,0,0,0
		C83.5,169,83.3,169,83.2,168.9z"/>
	<path class="st6" d="M104.4,151.6c0,0-2.4,7.2-9.8,7.2s-10.4-7.2-10.4-7.2c0.4-7,0.4-14.1,0-21.1c-0.6-13.7-1.9-25.1-1.9-25.1h19.6
		c0,0-0.2,11.3,0.5,25.1C102.6,137.5,103.3,144.6,104.4,151.6z"/>
	<path class="st8" d="M103.4,143.4c0.7,0.7,1,1.6,1,2.5c-0.1,1.6-1.9,4.1-2.9,5.4c-5,6.6-11.1,12.4-18,16.9l0,0
		c0.1,0.3,0.1,0.5,0.2,0.8c10,0.5,20.6-6.4,26.6-14c2-2.3,3.3-5,3.9-8c0.4-3.2-0.5-6.5-2.5-9.1C108.9,139.9,106.2,141.7,103.4,143.4
		z"/>
	<path class="st7" d="M124.8,186.6c0,0-2.4-13.4,0-24.6c1.9-8.7,6.5-11.3,10-11s8.1,9.2,3.4,19C134.6,177.4,124.8,186.6,124.8,186.6
		z"/>
</g>
<g id="head">
	<path class="st0" d="M121.6,83.6c-0.3,11.4-17,25.6-24.2,31.2c-2.2,1.7-8.1,14.3-9.3,18.3c-2.3,7.1-8.6,9.7-13.8,9.7
		s-7-2.3-9.4-9.3c-1.3-4-2.7-7.6-3.5-10.4c-0.8-2.9-2.5-5.4-4.9-7.2c-7.3-5.7-8.9-15.8-7-27.2c1.2-7.3,3.2-15,7-20.1
		c2.9-3.8,6.5-7,10.6-9.4l0,0c1.4-0.9,2.9-1.6,4.4-2.3c2.9-1.3,5.8-2.3,8.9-3c0.9-0.2,1.8-0.4,2.7-0.6c2.4-0.4,4.8-0.6,7.2-0.6
		c4.1-0.1,8.2,0.3,12.2,1.1c2.2,0.5,4.4,1.2,6.5,2.2C116.5,59.7,122,67.5,121.6,83.6z"/>
	<path class="st12" d="M81.3,126.3c-2.2,0.9-4.4,1.3-6.8,1.4c-2.4-0.1-4.8-0.6-7-1.4H81.3z"/>
	<path class="st12" d="M97.5,91.8c-1.5-0.8-3.1-1.5-4.7-2.1c-1.5-0.6-3.1-1-4.7-1.2c-1.6-0.2-3.2,0-4.7,0.4
		c-0.8,0.2-1.6,0.5-2.3,0.8c-0.8,0.3-1.5,0.7-2.3,1h-0.1c-0.3,0.1-0.5,0-0.6-0.3c0,0,0,0,0,0c-0.1-0.2,0-0.4,0.1-0.6
		c0.7-0.6,1.4-1.2,2.1-1.7c0.8-0.5,1.6-0.9,2.5-1.2c1.8-0.7,3.7-1,5.6-0.8c1.9,0.2,3.7,0.7,5.3,1.7C95.3,88.9,96.6,90.2,97.5,91.8z"
		/>
	<g>
		<defs>
			<path id="SVGID_9_" d="M65.8,100.3c0.7,4.8-0.6,8.6-3.1,9.9c-3.6-0.6-8.7-3.6-9.4-8.4s0.2-7.9,4.1-10
				C60.6,91.4,65.1,95.6,65.8,100.3z"/>
		</defs>
		<clipPath id="SVGID_10_">
			<use xlink:href="#SVGID_9_"  style="overflow:visible;"/>
		</clipPath>
		<g class="st13">
			
				<rect x="48.8" y="90.4" transform="matrix(0.2529 -0.9675 0.9675 0.2529 -52.2743 133.11)" class="st14" width="22.6" height="19.9"/>
			<circle class="st3" cx="60.4" cy="102.8" r="7.5"/>
			<circle cx="60.4" cy="102.8" r="3.5"/>
			<path class="st15" d="M62.6,112.3c0,0,7.3-9.3-0.6-17c-1.4-1.2-3.2-1.8-5-1.6c0,0-2.2,0.1-3.2,3.3c-0.7,2.5-0.6,5.2,0.3,7.6
				l-5.4-1.5l2.8-21.4l16,5l1.8,25.6L62.6,112.3z"/>
		</g>
	</g>
	<g>
		<defs>
			<path id="SVGID_11_" d="M79.8,99.8c-2,4.6-1.7,8.8,0.5,10.8c3.8,0.3,9.7-1.4,11.8-6c1.6-3.6,3.2-8,0.2-10.8
				C89.1,92.5,81.8,95.2,79.8,99.8z"/>
		</defs>
		<clipPath id="SVGID_12_">
			<use xlink:href="#SVGID_11_"  style="overflow:visible;"/>
		</clipPath>
		<g class="st16">
			<rect x="74.9" y="90.3" class="st14" width="22" height="22"/>
			<circle class="st3" cx="85.4" cy="103.8" r="7.5"/>
			<circle cx="84.9" cy="103.3" r="4"/>
			<path class="st15" d="M80,112.4c0,0-4.9-11.4,5.1-17c1.7-0.9,3.7-1,5.4-0.3c0,0,2.2,0.7,2.3,4.2c0.1,2.7-0.7,5.4-2.3,7.6l5.9-0.1
				l2.7-22.3l-17.5,0.9l-8.6,25.3L80,112.4z"/>
		</g>
	</g>
	<path class="st17" d="M103,65.8c-7.6,3.8-14.7,8.5-22.1,12.8c-1.6,0.9-3.2,1.8-4.8,2.6c-1.5,0.9-3.2,1.4-4.9,1.5
		c-2.9-0.2-4.7-3.2-5.5-5.7c-1.3-3.5-2-12.7,1.5-17.8l0,0c1.4-0.9,2.9-1.6,4.4-2.3C70,59.5,69,62.5,69,65.6c0,3.4,1.6,6.9,3.4,9.8
		c2.7-1.3,4.7-2.5,5.7-3c7.2-3.7,16-7.8,23.8-10.1c1.6-0.5,6-1.9,7.7,0.4C110.1,63.5,107.4,63.6,103,65.8z"/>
	<path class="st17" d="M109.1,56c-2.8,0.3-5.6,0.9-8.3,1.7c-3.8,1.1-7.4,2.5-10.9,4.3c-1.8,0.9-11,4.7-12,4.6
		c-0.8,0.3-1.8-2.6-1.2-5.1c0.2-1.1,0.5-2.1,0.9-3.2c0.6-1.7,1.6-3.2,2.9-4.4c0.9-0.2,1.8-0.4,2.7-0.6c-1.4,1.8-2.3,4-2.8,6.3
		c-0.2,0.8-0.1,1.6,0.1,2.3c0.4-0.1,1.7-0.7,2.1-0.9c1.7-0.9,3.5-1.9,5.4-2.7c3.8-1.8,7.7-3.1,11.8-4c0.9-0.2,1.9-0.4,2.8-0.5
		C104.8,54.3,107,55,109.1,56z"/>
	<path class="st12" d="M51.5,90.4c-0.1-1.3,0.4-2.6,1.3-3.6c1-1,2.3-1.6,3.7-1.7c1.3-0.1,2.6,0.2,3.8,0.7c0.6,0.3,1.1,0.6,1.6,0.9
		c0.5,0.3,1,0.7,1.5,1.1c0.2,0.2,0.2,0.4,0,0.6c-0.1,0.1-0.3,0.2-0.5,0.1l0,0c-0.6-0.2-1.1-0.3-1.7-0.5l-1.6-0.5
		c-1-0.3-2-0.4-3.1-0.3c-1,0.1-1.9,0.4-2.7,0.9C53,88.8,52.2,89.5,51.5,90.4z"/>
</g>
<path id="r-hand" class="st0" d="M144.9,30.3c1.4,2.9,4.4,11.4,4.4,11.4s2,3.7,5,4.3c3.4,0.6,6.6-3.1,6.6-3.1
	c2.4-4.9,5.6-9.4,9.6-13.1c6.2-5.4,11.6-8.2,8.4-12.4s-6.7-3.6-10,0.8c-1.3,1.7-2.6,3.1-3.7,4.3c0.3-1.1,0.7-2.2,1.2-3.2
	c3.3-7.5,7-12.4,2.4-14.8s-7.6-0.4-8.8,5s-2.9,9-3.5,11.5c0,0-2.8,7.6-3.2,7.2s-0.9-4.1-2.9-8.3s-8.1-3.4-10-0.4
	S143.5,27.4,144.9,30.3z"/>
<g id="r-forearm">
	<defs>
		<path id="SVGID_13_" d="M140.3,94.2c1-16.6,6.5-35.6,6.8-51.3c0.1-3.2,4.7-6.9,9.7-6.8c0.9,0,1.7,0.1,2.5,0.4
			c3.9,1.1,6.9,4.2,6.9,6.8c-0.3,15.1,4.7,35.6,4.9,52.2c0.1,5-0.2,10.1-0.8,15.1c-0.5,4-1.5,11.7-4.9,11.6
			c-3.3-0.2-6.4-1.4-9.1-3.3c-4.1-2.8-7.6-6.2-10.6-10.1C141.3,102.7,140,99.6,140.3,94.2z"/>
	</defs>
	<clipPath id="SVGID_14_">
		<use xlink:href="#SVGID_13_"  style="overflow:visible;"/>
	</clipPath>
	<g class="st18">
		<path class="st2" d="M140.3,94.2c1-16.6,6.5-35.6,6.8-51.3c0.1-3.2,4.7-6.9,9.7-6.8c0.9,0,1.7,0.1,2.5,0.4
			c3.9,1.1,6.9,4.2,6.9,6.8c-0.3,15.1,4.7,35.6,4.9,52.2c0.1,5-0.2,10.1-0.8,15.1c-0.5,4-1.5,11.7-4.9,11.6
			c-3.3-0.2-6.4-1.4-9.1-3.3c-4.1-2.8-7.6-6.2-10.6-10.1C141.3,102.7,140,99.6,140.3,94.2z"/>
		<path class="st3" d="M149.1,112.1c-6.5-7.2-9.8-14.8-7.3-17c1.2,3,3.5,7.7,10,14.8c3.9,4.4,8.4,8.2,13.5,11.1
			C162.6,121.6,155.6,119.3,149.1,112.1z"/>
		<path class="st4" d="M146.7,93.4c0.9-7.3,1.8-14.7,2.5-22.1c0.6-6.8,1.1-13.7,1.6-20.5c0.3-4.4,0.5-8.8,0.7-13.1c0-0.7-1-0.7-1,0
			c-0.3,7.4-0.7,14.8-1.2,22.2c-0.5,6.8-1.1,13.7-1.9,20.5c-0.5,4.4-1,8.7-1.5,13C145.6,94.1,146.6,94,146.7,93.4L146.7,93.4z"/>
		<path class="st4" d="M169.1,117.9c-4.7-2.4-8.9-5.7-12.4-9.7c-3.7-4.2-6.3-9-9.4-13.6c-1.8-2.7-3.8-5.1-6.1-7.4
			c-0.5-0.4-1.2,0.3-0.7,0.7c4.1,4,6.9,8.8,10,13.6c2.9,4.7,6.5,8.9,10.8,12.5c2.2,1.8,4.7,3.4,7.3,4.7
			C169.2,119,169.7,118.1,169.1,117.9L169.1,117.9z"/>
	</g>
</g>
<g id="r-arm">
	<defs>
		<path id="SVGID_15_" d="M130.7,180.7c-3.9,3.9-5.9,5.9-5.9,5.9c-1.5-8.1-1.5-16.5,0-24.6c2.8-14.4,17-66.9,17-66.9
			c2.5,5.5,5.9,10.5,10,14.8c3.9,4.4,8.4,8.2,13.5,11.1C166,127.4,142.1,168.8,130.7,180.7z"/>
	</defs>
	<clipPath id="SVGID_16_">
		<use xlink:href="#SVGID_15_"  style="overflow:visible;"/>
	</clipPath>
	<g class="st19">
		<path class="st0" d="M138.1,174.1c0.2-0.4,0.3-0.7,0.4-1.1c1.8-6.2,3.7-12.3,5.7-18.5l3-9.2l3.1-9.1c2.1-6.1,4.2-12.2,6.4-18.2
			s4.6-12,7.3-17.9c1.6-3.4,0.4-7.4-2.8-9.3c-0.2-0.2-0.5-0.3-0.8-0.4c-3.7-1.7-8.1-0.1-9.8,3.6c-0.2,0.4-0.3,0.8-0.4,1.1
			c-1.7,6.2-3.8,12.3-6,18.3s-4.6,12-6.9,18l-3.6,8.9l-3.7,8.9c-2.5,5.9-5,11.9-7.7,17.7c-2.2,4.2-0.5,9.4,3.8,11.6
			c4.2,2.2,9.4,0.5,11.6-3.8C137.9,174.7,138,174.4,138.1,174.1L138.1,174.1z"/>
	</g>
</g>
</svg>
