<?xml version="1.0" encoding="utf-8"?>
<!-- Generator: Adobe Illustrator 25.2.0, SVG Export Plug-In . SVG Version: 6.00 Build 0)  -->
<svg version="1.1" id="Layer_1" xmlns="http://www.w3.org/2000/svg" xmlns:xlink="http://www.w3.org/1999/xlink" x="0px" y="0px"
	 viewBox="0 0 136.4 497.9" style="enable-background:new 0 0 136.4 497.9;" xml:space="preserve">
<style type="text/css">
	.st0{fill:#953DBA;}
	.st1{clip-path:url(#SVGID_2_);}
	.st2{fill:#44F5A0;}
	.st3{fill:#33D08C;}
	.st4{fill:#1B8B79;}
	.st5{clip-path:url(#SVGID_4_);}
	.st6{fill:#652F99;}
	.st7{fill:#C1983D;}
	.st8{fill:#F7C517;}
	.st9{clip-path:url(#SVGID_6_);}
	.st10{clip-path:url(#SVGID_8_);}
	.st11{fill:none;stroke:#33D08C;stroke-width:1;stroke-miterlimit:10.0003;}
	.st12{clip-path:url(#SVGID_10_);}
	.st13{clip-path:url(#SVGID_12_);}
	.st14{fill:#4D257C;}
	.st15{clip-path:url(#SVGID_14_);}
	.st16{fill:#F5FAFF;}
	.st17{fill:#022538;}
	.st18{fill:#E5B94C;}
</style>
<g id="b-hand">
	<path class="st0" d="M10.5,235.7c2.9-1.2,10.8-5.6,10.8-5.6s4-1.4,6.6,0.2c2.9,1.8,2.9,6.8,2.9,6.8c-1.5,5.3-2,10.8-1.5,16.2
		c1,8.1,3.2,13.9-1.9,14.9s-7.4-1.8-7-7.3c0.1-2.1,0.1-4,0.1-5.7c-0.5,1-0.9,2.1-1.2,3.2c-2.5,7.8-3,13.9-8,12.6s-5.9-4.7-3.2-9.5
		s3.8-8.6,5.1-10.9c0,0,3-7.6,2.4-7.5s-3.4,2.5-7.7,4.3s-8.3-2.9-7.7-6.3S7.6,236.9,10.5,235.7z"/>
</g>
<g id="b-forearm">
	<g>
		<g>
			<defs>
				<path id="SVGID_1_" d="M47.1,183.8c-10.2,13.1-18.6,31-28.8,43.1c-2,2.4-1,8.2,2.8,11.5c0.7,0.5,1.4,1,2.1,1.4
					c3.6,1.8,8,1.4,9.6-0.5c9.8-11.6,27-23.6,38.2-35.9c3.4-3.8,7.8-8.4,9.4-11.9c2.1-4.4,2.1-15.8-13-17.5
					C61.5,173.3,50.4,179.6,47.1,183.8z"/>
			</defs>
			<clipPath id="SVGID_2_">
				<use xlink:href="#SVGID_1_"  style="overflow:visible;"/>
			</clipPath>
			<g class="st1">
				<path class="st2" d="M46.6,180.8c-11.4,14.7-20.8,34.8-32.3,48.3c-2.3,2.7-1.2,9.2,3.1,12.9c0.7,0.6,1.5,1.1,2.4,1.6
					c4,2,8.9,1.6,10.8-0.6c11-12.9,30.3-26.5,42.8-40.3c3.8-4.2,7.3-8.6,10.5-13.3c2.5-3.7,7.4-10.9,4.4-13.4
					c-2.6-2.2-5.4-8.5-9.2-9c-6.6-1-13.4-2.1-16.2-1.5C54.8,167.2,50.3,176.1,46.6,180.8z"/>
				<path class="st3" d="M56,179.7c-5.6,6.6-10.9,13.4-15.8,20.6c-4.8,7-9.5,14.1-14.4,21.1c-2.7,3.9-5.5,7.7-8.5,11.4
					c-0.4,0.5,0.3,1.2,0.7,0.7c5.2-6.5,10-13.4,14.7-20.3c4.8-7.1,9.6-14.3,14.7-21.2c3-4,6-7.8,9.3-11.6
					C57.1,180,56.4,179.3,56,179.7L56,179.7z"/>
				<path class="st3" d="M83.3,191.6c-2,2-4.3,3.8-6.7,5.3c-3.2,2.1-6.7,3.7-10.4,4.7c-1.7,0.4-3.5,0.6-5.3,0.4
					c-1.8-0.3-3.5-0.9-5-1.9c-3.2-2.1-5.5-5.4-6.3-9.1c-1-4.6,0.1-9.4,2.9-13.2c0.4-0.5-0.5-1-0.9-0.5c-2.6,3.5-3.8,8-3.3,12.3
					c0.5,4,2.5,7.6,5.5,10.2c1.5,1.3,3.2,2.2,5.1,2.9c1.8,0.5,3.6,0.6,5.4,0.3c4-0.7,7.8-2.1,11.2-4.3c3.1-1.7,5.9-3.9,8.5-6.4
					C84.4,191.8,83.7,191.1,83.3,191.6L83.3,191.6z"/>
				<path class="st4" d="M65.5,176.2c-9.6,1.1-11.5,6.9-11.3,9.6c0.1,4.8,2,11.2,9.5,11.9c6,0.6,11.4-3.5,14.2-7.2
					C81.7,185.4,75.1,175.1,65.5,176.2z"/>
			</g>
		</g>
	</g>
</g>
<g id="b-arm">
	<g>
		<g>
			<defs>
				<path id="SVGID_3_" d="M66.2,106.9l16-4.1l17.1,12.3l-21,74.4c-3.6,5.9-11.5,9.2-17,7.7c-6-1.7-7.8-9.1-7.1-13.1L66.2,106.9z"/>
			</defs>
			<clipPath id="SVGID_4_">
				<use xlink:href="#SVGID_3_"  style="overflow:visible;"/>
			</clipPath>
			<g class="st5">
				<path class="st0" d="M78.6,114.6c-0.2,0.4-0.3,0.7-0.4,1.1c-1.6,6.2-3.3,12.4-5.1,18.6l-2.7,9.3l-2.8,9.2
					c-1.9,6.1-3.8,12.3-5.8,18.4s-4.2,12.2-6.7,18.1c-1.5,3.4-0.1,7.4,3.1,9.3c0.2,0.1,0.5,0.3,0.8,0.4c3.7,1.6,8.1-0.2,9.6-3.9l0,0
					c0.2-0.4,0.3-0.8,0.4-1.1c1.5-6.3,3.4-12.4,5.4-18.5s4.2-12.2,6.3-18.2l3.3-9.1l3.4-9c2.3-6,4.6-12,7.1-18
					c1.8-4.4-0.3-9.5-4.7-11.3S80.3,110.2,78.6,114.6L78.6,114.6L78.6,114.6z"/>
			</g>
		</g>
	</g>
</g>
<g id="b-calf">
	<g>
		<g>
			<path class="st6" d="M110.9,490.9c-1.3,0.5-7.2-0.2-8.8-1c-2.6-1.3-9.9-4.2-9.9-4.2c-3.2-1.1-6.3,1.4-7.3,2.2
				c-2.8,2.3-6,3.9-9.5,4.9c-2.1,0.6-18,1.7-22.9,0.9c-2-0.3-1.6-3-1.7-5c0,0-4.7,0.4-7.7,0.3c-2.8-0.1-5.6-0.3-8.4-0.6
				c-0.4-1.7-1.3-5.4-0.1-7.9c2.4-4.9,28.4-5.4,33.5-8.8c3.3-2.2,9.7-8.8,14.1-16.2c1.4-2.3,3.2-4.4,5.4-6l2.8-1.9
				c3.2,0,5.9,2.5,6.2,5.8c0.5,4.6,8.9,25.3,14,28.3S114.5,489.6,110.9,490.9z"/>
			<path class="st6" d="M71.1,475.2c-6.3,7.7-19.9,4.8-20.4,13.4c-3.6,0.8-16.1-0.3-16.1-0.3S34.4,480.3,71.1,475.2z"/>
		</g>
		<ellipse class="st7" cx="90.9" cy="443.5" rx="9.5" ry="2.5"/>
		<path class="st8" d="M90.9,440.6c-5.2,0-9.4,1.3-9.4,2.8s4.2,2.8,9.4,2.8s9.4-1.2,9.4-2.8C100.3,441.8,96.1,440.6,90.9,440.6z
			 M90.9,445.2c-3.4,0-6-0.8-6-1.8s2.7-1.8,6-1.8s6.1,0.8,6.1,1.8C97,444.4,94.3,445.2,90.9,445.2z"/>
		<path class="st6" d="M94.4,454.3c0,3.6-7.4,2.1-7.4,2.1l-9.5-116.8c3.1-0.9,6.3-1.4,9.6-1.6c2.1-0.1,3.8,0.3,4.3,1.4
			c15.4,38.6,3,70.6,3.1,114.1C94.4,453.7,94.4,454,94.4,454.3z"/>
		<path class="st8" d="M100.4,443.2v10.1c0,0.1,0,0.2,0,0.2c-0.3,1.1-2.9,2-6.3,2.3c-1,0.1-2.1,0.2-3.1,0.1c-5,0-9-1.1-9.5-2.5
			c0-0.1,0-0.2,0-0.2v-10.1c0,1.5,4.3,2.7,9.5,2.7c1,0,2.1,0,3.1-0.1C97.7,445.5,100.4,444.5,100.4,443.2z"/>
		<path class="st8" d="M97,443.2c0,1-2.7,1.8-6.1,1.8s-6-0.8-6-1.8h-3.4c0,1.5,4.2,2.8,9.4,2.8s9.4-1.2,9.4-2.8H97z"/>
	</g>
</g>
<g id="b-thigh">
	<path class="st6" d="M102.8,264.4c-12.5,52.5-11.5,80.4-11.5,80.4s-1.4,9.8-6.7,9.5c-6.8-0.5-8.2-10.8-9.6-15.7
		c-6.9-24.8-8.7-50.8-5.2-76.3c1.2-9.8,3.3-19.5,6.3-29c2.4-7.4,6.6-16.8,15.3-18.2c3.9,2.6,7.3,6,9.8,10
		C106.5,233.7,106,250.7,102.8,264.4z"/>
</g>
<g id="hips">
	<g>
		<g>
			<defs>
				<path id="SVGID_5_" d="M124.6,217.4c0,0-0.5,13.4-1.1,20.1c-2.1,23.8-17.2,33.8-26.1,33.8s-13.9,1.6-19.5-15.4
					c-4.4-13.4-4-36.7-4-36.7L124.6,217.4z"/>
			</defs>
			<clipPath id="SVGID_6_">
				<use xlink:href="#SVGID_5_"  style="overflow:visible;"/>
			</clipPath>
			<g class="st9">
				<rect x="73.4" y="216" class="st2" width="52" height="59"/>
				<path class="st3" d="M90.3,217.1c-0.7,1.2-1.2,2.5-1.6,3.9c-0.7,2.2-1.2,4.4-1.7,6.6c-1.3,5.7-2.2,11.4-2.9,17.2
					c-0.5,4.5-0.7,9-0.6,13.5c0.2,3.7,0.7,7.6,2.8,10.8c2.9,4.2,8,5.2,12.8,4.8c0.6,0,0.6-1,0-1c-4.2,0.4-8.8-0.3-11.6-3.8
					c-2.2-2.8-2.8-6.6-3-10.1c-0.2-4.2-0.1-8.4,0.4-12.6c0.6-5.7,1.4-11.4,2.7-17c0.5-2.6,1.1-5.1,1.9-7.6c0.3-1.5,0.9-3,1.7-4.4
					C91.5,217.1,90.7,216.6,90.3,217.1L90.3,217.1z"/>
			</g>
		</g>
	</g>
</g>
<g id="f-calf">
	<g>
		<g>
			<path class="st0" d="M126.9,494.9c-1.3,0.5-7.2-0.2-8.8-1c-2.6-1.3-9.9-4.2-9.9-4.2c-3.2-1.1-6.3,1.4-7.3,2.2
				c-2.8,2.3-6,3.9-9.5,4.9c-2.1,0.6-18,1.7-23,0.9c-2-0.3-1.6-3-1.7-5c0,0-4.7,0.4-7.7,0.3c-2.8-0.1-5.6-0.3-8.4-0.6
				c-0.4-1.7-1.3-5.4-0.1-7.9c2.4-4.9,28.4-5.4,33.5-8.8c3.3-2.2,9.7-8.8,14.1-16.2c1.4-2.3,3.2-4.4,5.4-6l2.8-1.9
				c3.2,0,5.9,2.5,6.2,5.8c0.5,4.6,8.9,25.3,14,28.3C131.5,488.5,130.5,493.6,126.9,494.9z"/>
			<path class="st6" d="M87.1,479.2c-6.3,7.7-19.9,4.8-20.4,13.4c-6.3,1.3-16.1-0.3-16.1-0.3S50.5,484.3,87.1,479.2z"/>
		</g>
		<ellipse class="st7" cx="106.9" cy="447.5" rx="9.5" ry="2.5"/>
		<path class="st8" d="M106.9,444.5c-5.2,0-9.5,1.3-9.5,2.8s4.3,2.8,9.5,2.8s9.5-1.3,9.5-2.8S112.1,444.5,106.9,444.5z M106.9,449.2
			c-3.4,0-6.1-0.8-6.1-1.8s2.7-1.8,6.1-1.8s6.1,0.8,6.1,1.8S110.2,449.2,106.9,449.2z"/>
		<path class="st0" d="M110.4,458.3c0,3.6-7.4,2.1-7.4,2.1l-9.5-116.8c3.1-0.9,6.3-1.4,9.6-1.6c2.1-0.1,3.8,0.3,4.3,1.4
			c15.4,38.6,3,70.6,3.1,114.1C110.4,457.7,110.4,458,110.4,458.3z"/>
		<path class="st8" d="M119.4,456.8c0,0.1,0,0.2,0,0.2l0,0V456.8z"/>
		<path class="st8" d="M116.4,457.7v0.2l0,0C116.4,457.9,116.4,457.8,116.4,457.7z"/>
		<path class="st8" d="M116.4,447.2v10.1c0,0.1,0,0.2,0,0.2c-0.3,1.1-2.9,2-6.4,2.3c-1,0.1-2.1,0.2-3.1,0.1c-5,0-9.1-1.1-9.5-2.5
			c0-0.1,0-0.2,0-0.2v-10.1c0,1.5,4.3,2.7,9.6,2.7c1,0,2.1,0,3.1-0.1C113.7,449.5,116.4,448.5,116.4,447.2z"/>
		<path class="st8" d="M113,447.2c0,1-2.7,1.8-6.1,1.8s-6.1-0.8-6.1-1.8h-3.5c0,1.6,4.3,2.8,9.5,2.8s9.5-1.3,9.5-2.8H113z"/>
	</g>
</g>
<g id="f-thigh">
	<path class="st0" d="M118.8,268.4c-12.5,52.5-11.5,80.4-11.5,80.4s-1.4,9.8-6.7,9.5c-6.8-0.5-8.2-10.8-9.6-15.7
		c-2.3-8.2-4-16.6-5.2-25.1c-2.3-17-2.3-34.2-0.1-51.2c1.2-9.8,3.3-19.5,6.3-29c2.4-7.4,6.6-16.8,15.3-18.2c3.9,2.6,7.3,6,9.8,10
		C122.5,237.7,122,254.7,118.8,268.4z"/>
</g>
<g id="torso">
	<g>
		<path class="st8" d="M104.9,116.8c-1.5,9.3-7.3,17.3-15.6,21.7c-6-3.4-13.7-9.9-15.6-21.7s7-21.6,15.6-21.6
			S106.9,105.1,104.9,116.8z"/>
		<path class="st7" d="M126,205.2c0-2.2-9-3.1-24.6-0.9s-30.6,8-30.6,13.7s11.3-2.6,26.9-2.6S126,210.9,126,205.2z"/>
		<path class="st4" d="M75.8,182.1c0,0,8,16.3,41.2,15.8l-2.9-39.9H74L75.8,182.1z"/>
		<path class="st0" d="M118.9,218.1l-8.9,3.5l-32.2,5.3L74,218c0,0,5.6-11.6,5.6-21.2c0-2.7-0.2-6.6-0.6-10.8
			c-0.9-10.9-2.5-24.1-2.5-24.1s4.3-8.4,19.9-8.4s19.9,8.4,19.9,8.4s-3,25.3-3,34.9S118.9,218.1,118.9,218.1z"/>
		<g>
			<g>
				<defs>
					<path id="SVGID_7_" d="M117,198.2c-25.3-2.3-23.4-18.1-34.3-28.4c-10.6-10-4.3,3.3-6.9,12.7c-2.9-7.5-11.9-38,9.2-78.2
						c14.4-5.7,18.9-10.8,34.6-5.1C138.3,127.6,124.9,176.1,117,198.2z"/>
				</defs>
				<clipPath id="SVGID_8_">
					<use xlink:href="#SVGID_7_"  style="overflow:visible;"/>
				</clipPath>
				<g class="st10">
					<rect x="59.4" y="94" class="st2" width="77" height="110"/>
					<path class="st3" d="M116.7,93.4L116.7,93.4L116.7,93.4l-0.4,0.3c-0.2,0.2-0.4,0.3-0.7,0.5l-1.9,1.3c-1.8,1.2-3.6,2.6-5.3,4
						c-5,4.2-9.3,9.3-12.6,14.9c-4.8,8.3-7.6,17.6-8.2,27.2c-0.2,5.7,0,11.4,0.7,17.1c0.4,4.1,0.9,8.2,1.7,12.2
						c1.7,8.9,4.2,17.9,8.4,25.9c0.5,0.9,1,1.8,1.6,2.7c0.3,0.6,1.2,0.1,0.9-0.5c-2.3-3.9-4.2-8-5.7-12.3
						c-2.7-7.8-4.5-15.9-5.5-24.2c-0.7-5.6-1.1-11.2-1.2-16.8c0-5.4,0.7-10.9,2.1-16.1c1.2-4.3,2.8-8.5,4.8-12.5
						c3.1-6,7.3-11.4,12.4-15.9c1.7-1.5,3.6-3,5.4-4.3c1.2-0.8,2.4-1.6,3.6-2.4c0.2-0.1,0.4-0.3,0.6-0.4
						C118,93.7,117.2,93,116.7,93.4L116.7,93.4z"/>
					
						<rect x="65.9" y="136.6" transform="matrix(8.628383e-02 -0.9963 0.9963 8.628383e-02 -69.5823 203.8093)" class="st11" width="20.8" height="6.4"/>
				</g>
			</g>
		</g>
		<path class="st7" d="M81.2,118.5c0,0,8.2-8.2,16.9-15.5c6.9-5.8,14.9-10.5,14.1-14.1c-1.6-8.3-18.7,1.6-22.9,5.6
			C77.2,106.4,81.2,118.5,81.2,118.5z"/>
		<path class="st6" d="M105.6,101.1c0,0-5.2,4.1-11.1,8.3s-7.3,6.4-7.3,6.4s-2-12.4-3.6-26.2c-1.8-15.9-2.2-34.2-2.2-34.2l22.5-3.2
			c0,0-7,6.9-2.7,30.4C103.6,96.4,105.6,101.1,105.6,101.1z"/>
		<path class="st8" d="M126.4,205.2v15.1c-10.7,1.2-40.9,9.1-55.2,12c0,0-0.2-10.4,0-14.3C76.6,215.7,115.8,206.4,126.4,205.2z"/>
		<path class="st8" d="M81.4,118.6c0,0,7.5-8.8,14.2-18c5.2-7.3,9.3-15.6,13-15.1c8.4,1,5.5,8.5,1.8,12.9
			C99.3,111.4,81.4,118.6,81.4,118.6z"/>
		<path class="st8" d="M132.6,116.8c-1.5,9.3-7.3,17.3-15.6,21.7c-6-3.4-13.7-9.9-15.6-21.7s7-21.6,15.6-21.6
			S134.6,105.1,132.6,116.8z"/>
		<path class="st7" d="M128,121.3c-1.4,9.3-6.7,14.5-11,17.1c-6.1-3.7-10.1-10-11.1-17.1c-1.4-9.3,4.9-17.1,11.1-17.1
			S129.5,112,128,121.3z"/>
	</g>
</g>
<g id="f-hand">
	<path class="st0" d="M53.3,242.6c2.9-1.3,10.6-5.9,10.6-5.9s3.9-1.6,6.6-0.1c3,1.7,3.1,6.7,3.1,6.7c-1.3,5.3-1.7,10.8-1,16.3
		c1.3,8.1,3.6,13.8-1.4,14.9s-7.4-1.5-7.2-7c0.1-2.1,0-4-0.1-5.7c-0.4,1.1-0.8,2.1-1.1,3.2c-2.3,7.9-2.5,14-7.6,12.9
		s-6.1-4.5-3.6-9.4s3.5-8.7,4.7-11.1c0,0,2.8-7.7,2.2-7.6s-3.3,2.6-7.5,4.6s-8.4-2.6-7.9-6.1S50.4,243.9,53.3,242.6z"/>
</g>
<g id="f-arm">
	<path class="st0" d="M108.2,114.7c-0.1,0.4-0.1,0.8-0.2,1.2c-0.4,6.4-0.9,12.8-1.4,19.2l-0.9,9.6l-1,9.6
		c-0.7,6.4-1.4,12.8-2.2,19.2s-1.8,12.7-3.2,19c-0.8,3.6,1.3,7.3,4.8,8.5c0.3,0.1,0.6,0.2,0.8,0.2c4,0.8,7.9-1.7,8.7-5.6
		c0.1-0.4,0.1-0.8,0.2-1.2c0.3-6.4,1-12.8,1.8-19.2s1.8-12.7,2.8-19.1l1.5-9.5l1.6-9.5c1.1-6.3,2.3-12.7,3.5-19
		c1.3-4.6-1.4-9.3-6-10.6c-4.6-1.3-9.3,1.4-10.6,6C108.4,113.9,108.3,114.3,108.2,114.7z"/>
</g>
<g id="f-forearm">
	<g>
		<g>
			<defs>
				<path id="SVGID_9_" d="M88.1,189.5c-9.8,13.4-17.5,31.6-27.4,44c-2,2.5-0.8,8.3,3.2,11.4c0.7,0.5,1.4,1,2.2,1.3
					c3.7,1.6,8,1.2,9.6-0.9c9.4-11.9,26.2-24.5,37-37.2c3.3-3.9,7.5-8.7,9-12.2c2-4.5,1.6-15.9-13.5-17
					C102.2,178.5,91.3,185.1,88.1,189.5z"/>
			</defs>
			<clipPath id="SVGID_10_">
				<use xlink:href="#SVGID_9_"  style="overflow:visible;"/>
			</clipPath>
			<g class="st12">
				<path class="st2" d="M87.5,186.5c-10.9,15-19.7,35.4-30.7,49.3c-2.2,2.8-0.9,9.3,3.5,12.8c0.8,0.6,1.6,1.1,2.5,1.5
					c4.1,1.8,9,1.3,10.8-1c10.5-13.3,29.4-27.5,41.5-41.7c3.7-4.3,7-8.9,10.1-13.6c2.4-3.8,7.1-11.1,4-13.6
					c-2.7-2.1-5.7-8.3-9.5-8.7c-6.6-0.7-13.5-1.7-16.2-1C95.3,172.6,91.1,181.6,87.5,186.5z"/>
				<path class="st3" d="M96.9,185.1c-5.4,6.8-10.5,13.8-15.1,21.1c-4.6,7.2-9,14.5-13.7,21.6c-2.6,4-5.3,7.8-8.1,11.6
					c-0.4,0.5,0.5,1,0.9,0.5c5-6.7,9.5-13.8,14-20.8s9-14.5,13.9-21.5c2.8-4,5.8-8,8.9-11.8C98,185.3,97.3,184.6,96.9,185.1
					L96.9,185.1z"/>
				<path class="st3" d="M117.1,205.8c1.6-3.8,2.9-8,2-12.1c-0.7-3-2.6-5.5-5.2-7.1c-3.1-1.8-6.7-2.8-10.3-2.8
					c-4.3,0.2-8.5,1.5-12.1,3.8c-5.3,3.1-10,7.3-14.5,11.5c-0.5,0.4,0.2,1.1,0.7,0.7c3.9-3.7,8-7.1,12.4-10.1
					c3.5-2.3,7.4-4.3,11.7-4.8c3.5-0.4,7.1,0.3,10.2,1.8c2.6,1.1,4.7,3.2,5.8,5.9c1.5,4.2,0.1,8.8-1.6,12.7
					C116,205.9,116.8,206.4,117.1,205.8L117.1,205.8z"/>
			</g>
		</g>
	</g>
</g>
<g id="head">
	<g>
		<g>
			<defs>
				<path id="SVGID_11_" d="M121.8,32.7c-0.3,11.5-17,24.2-31.2,28.2c-2.7,0.8-11.9,17.9-13.2,21.9c-2.3,7.1-8.6,9.7-13.8,9.7
					s-7-2.3-9.4-9.3c-1.3-4-7.3-26.2-6-37.5c1.5-13.4,5.8-30,17.6-36.8c9.3-5.5,17.5-7.3,30.6-7.2c7.9,0.1,16.6,4.1,20.8,10.4
					C121.2,18.1,122,25.7,121.8,32.7z"/>
			</defs>
			<clipPath id="SVGID_12_">
				<use xlink:href="#SVGID_11_"  style="overflow:visible;"/>
			</clipPath>
			<g class="st13">
				<rect x="32.4" class="st0" width="95" height="96"/>
				<path class="st14" d="M59.7,76c-2.2,0.9-4.4,1.4-6.8,1.4c-2.4-0.1-4.8-0.6-7-1.4H59.7z"/>
				<path class="st14" d="M65,39.6c-0.9-0.7-1.8-1.3-2.7-1.8c-0.8-0.5-1.7-0.7-2.6-0.8c-1,0-1.9,0.1-2.8,0.5c-0.5,0.2-1,0.4-1.5,0.6
					s-1,0.5-1.5,0.7l0,0c-0.2,0.1-0.5,0-0.6-0.2s0-0.3,0.1-0.5c0.4-0.4,0.8-0.8,1.3-1.2s1-0.7,1.5-1c1.1-0.6,2.4-0.9,3.7-0.9
					c1.3,0.1,2.6,0.6,3.6,1.5c0.5,0.4,0.8,0.9,1.1,1.5C64.8,38.4,65,39,65,39.6z"/>
				<g>
					<g>
						<defs>
							<path id="SVGID_13_" d="M54.2,48.4c-1.1,4.6-0.9,8.8,0.2,10.8c2,0.3,4.6-0.2,6.6-4.5c1.4-3,2.2-9.2,0.3-12.6
								C59.8,40.7,55.2,43.7,54.2,48.4z"/>
						</defs>
						<clipPath id="SVGID_14_">
							<use xlink:href="#SVGID_13_"  style="overflow:visible;"/>
						</clipPath>
						<g class="st15">
							<rect x="51.4" y="39" class="st16" width="12" height="22"/>
							<ellipse class="st4" cx="57.4" cy="52.5" rx="3" ry="7.5"/>
							<ellipse cx="56.9" cy="52" rx="1.5" ry="4"/>
							<path class="st17" d="M54.3,61c0,0-3.8-9.9,1.6-15.5c0.7-0.8,2.9-2.6,4-1.8c0,0,1.8,1.4,1.8,5c-0.1,3-0.6,6.1-1.7,8.9l3-2.2
								L64.5,33l-9.3,0.9l-4.5,25.4L54.3,61z"/>
						</g>
					</g>
				</g>
				<path class="st18" d="M98.4,13.6l-0.2-0.1c-8.2-2.2-16.7-2.8-25.1-1.7c-4.7,0.6-9.3,1.8-13.7,3.6c-1.1,0.5-2.2,1-3.3,1.6
					c-2.5,2.9-5.1,5.8-7.7,8.6c0.1,0.6,0.4,1.2,0.7,1.7c0.6,1,1.8,1.4,2.9,1.2c0.8-0.3,1.6-0.8,2.3-1.4c6.4-4.7,13.8-7.9,21.6-9.5
					c4.3-0.9,8.7-1.5,13.1-1.8c3.1-0.2,6.1-0.2,9.3-0.2c0.5-0.1,0.9-0.6,0.9-1.1C99,14,98.8,13.7,98.4,13.6L98.4,13.6z"/>
				<path class="st18" d="M85.7,3.7c-4.5,0.2-8.9,0.6-13.4,1c0,0-8.1,2.1-9.4,3c0.4,0.7,0.9,1.3,1.5,1.9c0.9,0.8,2.1,0.6,3.2,0.4
					C74.9,8.8,81,7.4,89,6.5c1.8-0.2,14.4-1.1,14.4-1.4C103.4,4.7,92.8,3.4,85.7,3.7z"/>
			</g>
		</g>
	</g>
</g>
</svg>
