<?xml version="1.0" encoding="utf-8"?>
<!-- Generator: Adobe Illustrator 25.2.0, SVG Export Plug-In . SVG Version: 6.00 Build 0)  -->
<svg version="1.1" id="Layer_1" xmlns="http://www.w3.org/2000/svg" xmlns:xlink="http://www.w3.org/1999/xlink" x="0px" y="0px"
	 viewBox="0 0 219.5 497.6" style="enable-background:new 0 0 219.5 497.6;" xml:space="preserve">
<style type="text/css">
	.st0{fill:#953DBA;}
	.st1{clip-path:url(#SVGID_2_);}
	.st2{fill:#44F5A0;}
	.st3{fill:#33D08C;}
	.st4{fill:#1B8B79;}
	.st5{clip-path:url(#SVGID_4_);}
	.st6{fill:#652F99;}
	.st7{fill:#C1983D;}
	.st8{fill:#F7C517;}
	.st9{clip-path:url(#SVGID_6_);}
	.st10{clip-path:url(#SVGID_8_);}
	.st11{fill:none;stroke:#33D08C;stroke-width:1;stroke-miterlimit:10.0003;}
	.st12{clip-path:url(#SVGID_10_);}
	.st13{clip-path:url(#SVGID_12_);}
	.st14{fill:#4D257C;}
	.st15{clip-path:url(#SVGID_14_);}
	.st16{fill:#F5FAFF;}
	.st17{fill:#022538;}
	.st18{fill:#E5B94C;}
</style>
<path id="b-hand" class="st0" d="M28.1,130.7c2.8,1.6,11.1,5.1,11.1,5.1s3.6,2.3,3.9,5.3c0.4,3.4-3.6,6.4-3.6,6.4
	c-5.1,2-9.7,5-13.7,8.8c-5.8,5.8-9,11-12.9,7.6s-3.1-6.9,1.4-10c1.8-1.2,3.3-2.4,4.6-3.4c-1.1,0.3-2.2,0.6-3.3,1
	c-7.7,2.8-12.8,6.2-14.9,1.4s0.1-7.6,5.5-8.4s9.1-2.3,11.7-2.7c0,0,7.8-2.3,7.4-2.7s-4.1-1.2-8.1-3.4s-2.8-8.3,0.3-10
	S25.4,129.1,28.1,130.7z"/>
<g id="b-forearm">
	<g>
		<defs>
			<path id="SVGID_1_" d="M91.6,127.7c-16.6,0-35.9,4.4-51.7,3.7c-3.2-0.1-7.2,4.2-7.4,9.2c0,0.9,0,1.7,0.2,2.6
				c0.8,3.9,3.8,7.2,6.3,7.3c15.1,0.6,35.2,6.8,51.8,8.1c5.1,0.4,11.4,1,15.1,0.1c4.8-1.1,13.8-8,5.8-21
				C108.8,132.6,97,127.7,91.6,127.7z"/>
		</defs>
		<clipPath id="SVGID_2_">
			<use xlink:href="#SVGID_1_"  style="overflow:visible;"/>
		</clipPath>
		<g class="st1">
			<path class="st2" d="M93.7,125.5c-18.6,0-40.2,4.9-57.9,4.1c-3.5-0.1-8,4.8-8.3,10.4c0,1,0,1.9,0.2,2.9c0.9,4.4,4.2,8,7.1,8.1
				c17,0.7,39.5,7.6,58.1,9.1c5.6,0.4,11.3,0.5,16.9,0.1c4.5-0.3,13.2-0.8,13.3-4.7c0.1-3.4,3.3-9.5,1.4-12.8
				c-3.3-5.8-6.5-11.9-8.7-13.7C109.4,123.6,99.7,125.5,93.7,125.5z"/>
			<path class="st3" d="M100.2,132.2c-8.7-0.4-17.3-0.4-26,0.2c-8.5,0.5-17,1.2-25.5,1.6c-4.7,0.2-9.4,0.3-14.1,0.2
				c-0.3,0-0.5,0.2-0.5,0.5s0.2,0.5,0.5,0.5c8.4,0.1,16.7-0.3,25.1-0.9c8.6-0.6,17.1-1.2,25.7-1.4c4.9-0.1,9.9,0,14.8,0.2
				C100.8,133.2,100.8,132.2,100.2,132.2L100.2,132.2z"/>
			<path class="st3" d="M107.7,161c-2.7-0.3-5.4-1-8-2c-3.5-1.1-6.9-2.8-9.9-5c-1.4-1-2.7-2.3-3.7-3.8s-1.6-3.1-1.8-4.9
				c-0.5-3.9,0.6-7.9,3-11.1c3-3.8,7.6-6,12.4-6.1c0.6,0,0.7-1,0-1c-4.6,0.1-9,2-12.2,5.2c-2.9,3-4.4,7-4.4,11.1
				c-0.1,3.8,1.5,7.5,4.4,10c3,2.6,6.4,4.6,10.1,5.9c3.2,1.3,6.5,2.2,9.9,2.6C108.3,162.1,108.3,161.1,107.7,161L107.7,161z"/>
			<path class="st4" d="M108.9,137.5c-6.8-6.9-12.5-4.9-14.5-3.1c-3.7,3-7.6,8.4-3.6,14.8c3.3,5.1,9.8,6.8,14.5,6.8
				C111.6,156,115.7,144.4,108.9,137.5z"/>
		</g>
	</g>
</g>
<g id="b-arm">
	<g>
		<defs>
			<path id="SVGID_3_" d="M164,95.5l13.1,10.2l0.8,21.1l-71.6,29.1c-6.9,0.8-14.3-3.4-16.5-8.7c-2.4-5.8,2.4-11.7,6-13.7L164,95.5z"
				/>
		</defs>
		<clipPath id="SVGID_4_">
			<use xlink:href="#SVGID_3_"  style="overflow:visible;"/>
		</clipPath>
		<g class="st5">
			<path class="st0" d="M165.5,110c-0.4,0.1-0.8,0.2-1.1,0.4c-5.9,2.6-11.9,5-17.8,7.4l-9,3.6l-9,3.5c-6,2.3-12,4.6-18.1,6.7
				s-12.1,4.1-18.4,5.8c-3.6,0.9-5.9,4.4-5.4,8.1c0,0.3,0.1,0.6,0.2,0.9c1,3.9,5.1,6.3,9,5.2l0,0c0.4-0.1,0.8-0.2,1.1-0.4
				c5.9-2.7,11.9-4.9,17.9-7.1s12.2-4.1,18.3-6.2l9.2-3l9.2-2.9c6.1-1.9,12.3-3.7,18.5-5.4c4.6-1.3,7.3-6,6-10.6l0,0
				c-0.3-0.9-0.7-1.8-1.2-2.6C172.8,110.4,169.1,109,165.5,110z"/>
		</g>
	</g>
</g>
<g id="b-calf">
	<g>
		<path class="st6" d="M193.4,490.6c-1.3,0.5-7.2-0.2-8.8-1c-2.6-1.3-9.9-4.2-9.9-4.2c-3.2-1.1-6.3,1.4-7.3,2.2
			c-2.8,2.3-6,4-9.5,4.9c-2.1,0.6-18,1.7-22.9,0.9c-2-0.3-1.6-3-1.7-5c0,0-4.7,0.4-7.7,0.3c-2.8-0.1-5.6-0.3-8.4-0.6
			c-0.4-1.7-1.3-5.4-0.1-7.9c2.4-4.9,28.4-5.4,33.5-8.8c3.3-2.2,9.7-8.8,14.1-16.2c1.4-2.3,3.2-4.4,5.4-6l2.8-1.9
			c3.2,0,5.9,2.5,6.2,5.8c0.5,4.6,8.9,25.3,14,28.3S197,489.3,193.4,490.6z"/>
		<path class="st6" d="M153.6,474.9c-6.3,7.7-19.9,4.8-20.4,13.4c-3.6,0.8-16.1-0.3-16.1-0.3S117,480,153.6,474.9z"/>
	</g>
	<ellipse class="st7" cx="173" cy="443.5" rx="9.5" ry="2.5"/>
	<path class="st8" d="M173,440.3c-5.2,0-9.5,1.2-9.5,2.7s4.2,2.7,9.5,2.7c5.2,0,9.5-1.2,9.5-2.7S178.3,440.3,173,440.3z M173,444.8
		c-3.4,0-6.1-0.8-6.1-1.8s2.7-1.7,6.1-1.7c3.4,0,6,0.8,6,1.7S176.4,444.8,173,444.8z"/>
	<path class="st6" d="M177.5,454c0,3.6-7.4,2.1-7.4,2.1l-9.5-116.8c3.1-0.9,6.3-1.4,9.6-1.6c2.1-0.1,3.9,0.3,4.3,1.4
		c15.4,38.6,3,70.6,3.1,114.1v0.8H177.5z"/>
	<path class="st8" d="M182.5,442.9V453c0,0.1,0,0.2,0,0.2c-0.3,1.1-2.9,2-6.3,2.3c-1,0.1-2.1,0.2-3.1,0.1c-5,0-9-1.1-9.5-2.5
		c0-0.1,0-0.2,0-0.2v-10.1c0,1.5,4.3,2.7,9.5,2.7c1,0,2.1,0,3.1-0.1C179.8,445.2,182.5,444.2,182.5,442.9z"/>
	<path class="st8" d="M179.2,443c0,1-2.7,1.8-6,1.8s-6.1-0.8-6.1-1.8h-3.5c0,1.5,4.2,2.7,9.5,2.7c5.2,0,9.5-1.2,9.5-2.7H179.2z"/>
</g>
<path id="b-thigh" class="st6" d="M185.3,264.1c-12.5,52.5-11.5,80.4-11.5,80.4s-1.4,9.8-6.7,9.5c-6.9-0.5-8.2-10.8-9.6-15.7
	c-6.9-24.8-8.7-50.8-5.2-76.3c1.2-9.8,3.3-19.5,6.3-29c2.4-7.4,6.6-16.8,15.3-18.2c4,2.6,7.3,6,9.9,10
	C189,233.4,188.5,250.4,185.3,264.1z"/>
<g id="hips">
	<g>
		<defs>
			<path id="SVGID_5_" d="M207.1,217.1c0,0-0.5,13.4-1.1,20.1c-2.1,23.8-17.2,33.9-26.1,33.9s-13.9,1.6-19.5-15.5
				c-4.4-13.4-4-36.7-4-36.7L207.1,217.1z"/>
		</defs>
		<clipPath id="SVGID_6_">
			<use xlink:href="#SVGID_5_"  style="overflow:visible;"/>
		</clipPath>
		<g class="st9">
			<rect x="155.5" y="215" class="st2" width="52" height="59"/>
			<path class="st3" d="M172.8,216.8c-0.7,1.2-1.2,2.5-1.6,3.9c-0.7,2.2-1.2,4.4-1.7,6.6c-1.3,5.7-2.2,11.4-2.9,17.2
				c-0.5,4.5-0.8,9-0.6,13.5c0.1,3.7,0.7,7.6,2.8,10.8c2.9,4.2,8,5.2,12.8,4.8c0.6,0,0.6-1,0-1c-4.2,0.4-8.8-0.3-11.6-3.8
				c-2.2-2.8-2.8-6.6-3-10.1c-0.2-4.2-0.1-8.4,0.4-12.6c0.6-5.7,1.4-11.4,2.6-17c0.5-2.6,1.1-5.1,1.9-7.6c0.3-1.5,0.9-3,1.7-4.4
				C174,216.8,173.2,216.3,172.8,216.8L172.8,216.8z"/>
		</g>
	</g>
</g>
<g id="f-calf">
	<ellipse class="st7" cx="189.2" cy="447.5" rx="9.3" ry="2.5"/>
	<path class="st8" d="M189,444.3c-5.2,0-9.4,1.2-9.4,2.7s4.2,2.7,9.4,2.7s9.4-1.2,9.4-2.7S194.3,444.3,189,444.3z M189,448.8
		c-3.4,0-6-0.8-6-1.8s2.7-1.7,6-1.7s6.1,0.8,6.1,1.7S192.4,448.8,189,448.8z"/>
	<path class="st0" d="M193.5,458c0,3.6-7.4,2.1-7.4,2.1l-9.5-116.8c3.1-0.9,6.3-1.4,9.6-1.6c2.1-0.1,3.9,0.3,4.3,1.4
		c15.4,38.6,3,70.6,3.1,114.1v0.8H193.5z"/>
	<g>
		<path class="st0" d="M209.4,494.6c-1.3,0.5-7.2-0.2-8.9-1c-2.6-1.3-9.9-4.2-9.9-4.2c-3.2-1.1-6.3,1.4-7.3,2.2
			c-2.8,2.3-6,4-9.5,4.9c-2.1,0.6-18,1.7-22.9,0.9c-2-0.3-1.6-3-1.7-5c0,0-4.7,0.4-7.7,0.3c-2.8-0.1-5.6-0.3-8.4-0.6
			c-0.4-1.7-1.3-5.4-0.1-7.9c2.4-4.9,28.4-5.4,33.5-8.8c3.3-2.2,9.7-8.8,14.1-16.2c1.4-2.3,3.2-4.4,5.4-6l2.8-1.9
			c3.2,0,5.9,2.5,6.2,5.8c0.5,4.6,8.9,25.3,14,28.3S213,493.3,209.4,494.6z"/>
		<path class="st6" d="M169.6,478.9c-6.3,7.7-19.9,4.8-20.4,13.4c-3.6,0.8-16.1-0.3-16.1-0.3S133,484,169.6,478.9z"/>
	</g>
	<path class="st8" d="M198.5,446.9V457c0,0.1,0,0.2,0,0.2c-0.3,1.1-2.9,2-6.3,2.3c-1,0.1-2.1,0.2-3.1,0.1c-5,0-9-1.1-9.5-2.5
		c0-0.1,0-0.2,0-0.2v-10.1c0,1.5,4.3,2.7,9.5,2.7c1,0,2.1,0,3.1-0.1C195.8,449.2,198.5,448.2,198.5,446.9z"/>
	<path class="st8" d="M195.1,447c0,1-2.8,1.8-6.1,1.8c-3.4,0-6-0.8-6-1.8h-3.4c0,1.5,4.2,2.7,9.5,2.7c5.2,0,9.5-1.2,9.5-2.7H195.1z"
		/>
</g>
<path id="f-thigh" class="st0" d="M201.3,268.1c-12.5,52.5-11.5,80.4-11.5,80.4s-1.4,9.8-6.7,9.5c-6.9-0.5-8.2-10.8-9.6-15.7
	c-6.9-24.8-8.7-50.8-5.2-76.3c1.2-9.8,3.3-19.5,6.3-29c2.4-7.4,6.6-16.8,15.3-18.2c3.9,2.6,7.3,6,9.8,10
	C205,237.4,204.6,254.4,201.3,268.1z"/>
<g id="torso">
	<path class="st4" d="M158.3,182.1c0,0,8.1,16.3,41.2,15.8l-2.9-39.9h-40.1L158.3,182.1z"/>
	<path class="st8" d="M187.4,116.5c-1.5,9.3-7.3,17.3-15.6,21.7c-6-3.4-13.7-9.9-15.6-21.7s7-21.6,15.6-21.6
		S189.5,104.8,187.4,116.5z"/>
	<path class="st7" d="M208.5,204.9c0-2.2-9-3.1-24.6-0.9s-30.6,8-30.6,13.7s11.3-2.6,26.9-2.6S208.5,210.6,208.5,204.9z"/>
	<path class="st0" d="M201.4,217.8l-8.9,3.5l-32.2,5.3l-3.8-8.9c0,0,5.6-11.6,5.6-21.2c0-2.7-0.2-6.6-0.6-10.8
		c-0.9-10.9-2.5-24.1-2.5-24.1s4.3-8.4,19.9-8.4s19.9,8.4,19.9,8.4s-3,25.3-3,34.9S201.4,217.8,201.4,217.8z"/>
	<g>
		<g>
			<defs>
				<path id="SVGID_7_" d="M199.5,197.9c-25.3-2.3-23.4-18.1-34.3-28.4c-10.6-10-4.3,3.3-6.9,12.7c-2.9-7.5-11.9-38,9.2-78.2
					c14.4-5.7,18.9-10.8,34.6-5.1C220.9,127.3,207.4,175.8,199.5,197.9z"/>
			</defs>
			<clipPath id="SVGID_8_">
				<use xlink:href="#SVGID_7_"  style="overflow:visible;"/>
			</clipPath>
			<g class="st10">
				<rect x="142.5" y="93" class="st2" width="77" height="110"/>
				<path class="st3" d="M199.3,93.1C199.2,93.2,199.3,93,199.3,93.1l-0.2,0.1l-0.3,0.2c-0.2,0.2-0.4,0.3-0.7,0.5l-1.9,1.3
					c-1.8,1.2-3.6,2.6-5.3,4c-5,4.2-9.2,9.3-12.5,14.9c-4.8,8.3-7.6,17.7-8.2,27.3c-0.2,5.7,0,11.4,0.7,17.1
					c0.4,4.1,0.9,8.2,1.7,12.2c1.7,8.9,4.2,17.9,8.4,25.9c0.5,0.9,1,1.8,1.6,2.7c0.3,0.6,1.2,0.1,0.9-0.5c-2.3-3.9-4.2-8-5.7-12.3
					s-2.7-8.7-3.6-13.1c-0.8-3.7-1.4-7.4-1.8-11.1c-0.7-5.6-1.1-11.2-1.2-16.8c0-5.4,0.7-10.9,2.1-16.1c1.1-4.3,2.8-8.5,4.8-12.5
					c3.1-6,7.3-11.4,12.4-15.9c1.7-1.5,3.5-3,5.4-4.3c1.2-0.8,2.4-1.6,3.6-2.4c0.2-0.1,0.4-0.3,0.6-0.4
					C200.5,93.4,199.8,92.7,199.3,93.1z"/>
				
					<rect x="148.4" y="136.3" transform="matrix(8.628383e-02 -0.9963 0.9963 8.628383e-02 6.0981 285.7475)" class="st11" width="20.8" height="6.4"/>
			</g>
		</g>
	</g>
	<path class="st7" d="M163.7,118.2c0,0,8.2-8.2,16.9-15.5c6.9-5.8,14.8-10.5,14.1-14.1c-1.6-8.3-18.7,1.6-22.9,5.6
		C159.7,106.1,163.7,118.2,163.7,118.2z"/>
	<path class="st6" d="M188.1,100.8c0,0-5.2,4.1-11.1,8.3s-7.3,6.4-7.3,6.4s-2-12.4-3.6-26.2c-1.8-15.9-2.2-34.2-2.2-34.2l22.4-3.2
		c0,0-7.1,6.9-2.7,30.4C186.1,96.1,188.1,100.8,188.1,100.8z"/>
	<path class="st8" d="M208.5,204.9V220c-10.7,1.2-40.9,9.1-55.2,12c0,0-0.2-10.4,0-14.3C158.7,215.4,197.9,206.1,208.5,204.9z"/>
	<path class="st8" d="M163.9,118.3c0,0,7.5-8.8,14.2-18c5.2-7.3,9.4-15.6,13.1-15.1c8.4,1,5.5,8.5,1.8,12.9
		C181.9,111.1,163.9,118.3,163.9,118.3z"/>
	<path class="st8" d="M215.1,116.5c-1.5,9.3-7.3,17.3-15.6,21.7c-6-3.4-13.7-9.9-15.6-21.7s7-21.6,15.6-21.6
		S217.1,104.8,215.1,116.5z"/>
	<path class="st7" d="M210.5,121c-1.5,9.3-6.7,14.5-11.1,17.1c-6.1-3.7-10.1-10-11-17.1c-1.4-9.3,4.9-17.1,11-17.1
		S212,111.7,210.5,121z"/>
</g>
<path id="f-hand" class="st0" d="M114.5,194.7c3,0.9,11.9,2.6,11.9,2.6s4,1.4,5,4.4c1.1,3.2-2.1,7.1-2.1,7.1
	c-4.5,3.1-8.4,7-11.5,11.5c-4.4,6.9-6.4,12.7-11,10.2s-4.5-6.1-0.7-10.1c1.3-1.4,2.6-2.8,3.7-4.3c-1,0.5-2,1-3,1.6
	c-6.9,4.4-11.2,8.8-14.2,4.6s-1.5-7.4,3.6-9.4s8.4-4.2,10.9-5.1c0,0,7.1-3.9,6.7-4.2s-4.2-0.3-8.6-1.6s-4.5-7.5-1.9-9.8
	S111.5,193.7,114.5,194.7z"/>
<path id="f-arm" class="st0" d="M190.7,114.4c-0.1,0.4-0.1,0.8-0.1,1.2c-0.4,6.4-0.9,12.9-1.4,19.2l-0.9,9.6l-1,9.6
	c-0.7,6.4-1.4,12.8-2.2,19.2s-1.8,12.7-3.2,19c-0.8,3.6,1.3,7.3,4.8,8.5c0.3,0.1,0.6,0.2,0.8,0.2c4,0.9,7.9-1.7,8.7-5.6l0,0
	c0.1-0.4,0.1-0.8,0.2-1.2c0.3-6.4,1-12.8,1.8-19.2s1.8-12.7,2.8-19l1.5-9.5l1.6-9.5c1.1-6.3,2.3-12.7,3.5-19
	c0.9-4.7-2.1-9.2-6.8-10.2S191.7,109.7,190.7,114.4z"/>
<g id="f-forearm">
	<g>
		<defs>
			<path id="SVGID_9_" d="M175.9,178.2c-16.2,3.5-34.1,11.9-49.7,14.6c-3.1,0.5-6.1,5.7-5.2,10.6c0.2,0.8,0.4,1.7,0.8,2.5
				c1.6,3.7,5.2,6.2,7.8,5.8c14.9-2.6,35.9-0.9,52.4-3.1c5-0.7,11.3-1.5,14.8-3.1c4.4-2.1,11.8-10.8,1.2-21.7
				C193.7,179.4,181.1,177.1,175.9,178.2z"/>
		</defs>
		<clipPath id="SVGID_10_">
			<use xlink:href="#SVGID_9_"  style="overflow:visible;"/>
		</clipPath>
		<g class="st12">
			<path class="st2" d="M177.4,175.6c-18.2,4-38.2,13.4-55.7,16.4c-3.5,0.6-6.8,6.4-5.9,11.9c0.2,0.9,0.5,1.9,0.8,2.8
				c1.8,4.1,5.8,6.9,8.7,6.4c16.7-2.9,40.2-1,58.7-3.5c5.6-0.8,11.1-2,16.6-3.5c4.3-1.2,12.7-3.6,12-7.5c-0.6-3.4,1.3-10-1.3-12.8
				c-4.5-5-8.9-10.2-11.4-11.5C192.4,170.4,183.3,174.3,177.4,175.6z"/>
			<path class="st3" d="M185.2,180.8c-8.6,1.4-17.1,3.4-25.4,5.8c-8.2,2.3-16.3,4.8-24.5,7c-4.5,1.2-9.1,2.3-13.7,3.3
				c-0.6,0.1-0.4,1.1,0.3,1c8.2-1.6,16.3-3.9,24.4-6.3c8.2-2.4,16.4-4.8,24.8-6.8c4.8-1.1,9.6-2.1,14.5-2.9
				C186.1,181.7,185.8,180.8,185.2,180.8L185.2,180.8z"/>
			<path class="st3" d="M186.7,209.6c3.9-1.8,8.1-4.4,10-8.5c1.3-3.1,1.2-6.6-0.3-9.6c-1.5-3.4-3.9-6.4-6.9-8.6
				c-3.4-2.2-7.2-3.5-11.2-4.1c-5.7-0.8-11.4-1.1-17.1-0.9c-0.3,0-0.5,0.2-0.5,0.5s0.2,0.5,0.5,0.5c4.9-0.2,9.8,0,14.7,0.5
				c4,0.4,7.9,1.5,11.4,3.3c3.1,1.8,5.7,4.4,7.4,7.6c1.6,2.8,2.5,6,1.5,9.2c-1.4,4.6-6,7.4-10,9.3
				C185.7,209.1,186.2,209.9,186.7,209.6L186.7,209.6z"/>
		</g>
	</g>
</g>
<g id="head">
	<g>
		<defs>
			<path id="SVGID_11_" d="M204.3,32.4c-0.3,11.5-17,24.2-31.2,28.2c-2.7,0.8-11.9,17.9-13.2,21.9c-2.3,7.1-8.6,9.7-13.8,9.7
				s-7-2.3-9.4-9.3c-1.3-4-7.3-26.2-6-37.5c1.5-13.4,5.8-30,17.6-36.8c9.3-5.5,17.5-7.3,30.6-7.2c7.9,0.1,16.6,4.1,20.8,10.4
				C203.7,17.8,204.5,25.4,204.3,32.4z"/>
		</defs>
		<clipPath id="SVGID_12_">
			<use xlink:href="#SVGID_11_"  style="overflow:visible;"/>
		</clipPath>
		<g class="st13">
			<rect x="115.5" class="st0" width="95" height="96"/>
			<path class="st14" d="M142.2,76c-2.2,0.9-4.4,1.3-6.8,1.4c-2.4-0.1-4.8-0.6-7-1.4H142.2z"/>
			<path class="st14" d="M147.6,39.2c-0.9-0.7-1.8-1.3-2.7-1.8c-0.8-0.5-1.7-0.7-2.6-0.8c-1,0-1.9,0.1-2.8,0.5
				c-0.5,0.2-0.9,0.4-1.4,0.6s-1,0.5-1.5,0.7h-0.1c-0.2,0.1-0.5,0-0.6-0.3c-0.1-0.2,0-0.3,0.1-0.5c0.4-0.4,0.8-0.8,1.2-1.2
				c0.5-0.4,1-0.7,1.5-1c1.1-0.6,2.4-0.9,3.7-0.9c1.3,0.1,2.6,0.6,3.6,1.5c0.5,0.4,0.8,0.9,1.1,1.5
				C147.3,38.1,147.5,38.6,147.6,39.2z"/>
			<g>
				<g>
					<defs>
						<path id="SVGID_13_" d="M136.7,48.1c-1.1,4.6-0.9,8.8,0.2,10.8c2,0.3,4.6-0.2,6.6-4.5c1.4-3,2.2-9.2,0.3-12.6
							C142.3,40.4,137.8,43.4,136.7,48.1z"/>
					</defs>
					<clipPath id="SVGID_14_">
						<use xlink:href="#SVGID_13_"  style="overflow:visible;"/>
					</clipPath>
					<g class="st15">
						<rect x="134.5" y="39" class="st16" width="12" height="22"/>
						<ellipse class="st4" cx="139.5" cy="52.5" rx="3" ry="7.5"/>
						<ellipse cx="139" cy="52" rx="1.5" ry="4"/>
						<path class="st17" d="M136.8,60.7c0,0-3.8-9.9,1.6-15.5c0.7-0.8,2.9-2.6,4-1.8c0,0,1.8,1.4,1.8,5c-0.1,3-0.7,6.1-1.8,8.9
							l3.1-2.2l1.5-22.3l-9.3,0.9L133.2,59L136.8,60.7z"/>
					</g>
				</g>
			</g>
			<path class="st18" d="M181,13.3l-0.2-0.1c-8.2-2.2-16.7-2.8-25.1-1.7c-4.7,0.6-9.3,1.8-13.7,3.6c-1.1,0.5-2.2,1-3.4,1.6
				c-2.5,2.9-5.1,5.8-7.7,8.6c0.1,0.6,0.4,1.2,0.7,1.7c0.6,1,1.8,1.4,2.9,1.2c0.8-0.3,1.6-0.8,2.3-1.4c6.4-4.7,13.8-7.9,21.6-9.5
				c4.3-0.9,8.7-1.5,13-1.8c3.1-0.2,6.1-0.2,9.3-0.2c0.5-0.1,0.9-0.6,0.9-1.1C181.5,13.7,181.3,13.4,181,13.3L181,13.3z"/>
			<path class="st18" d="M168.2,3.4c-4.5,0.2-8.9,0.6-13.4,1c0,0-8.1,2.1-9.4,3c0.4,0.7,0.9,1.3,1.5,1.9c0.9,0.8,2.1,0.6,3.2,0.4
				c7.3-1.2,13.4-2.6,21.4-3.5c1.8-0.2,14.4-1.1,14.4-1.4C185.9,4.4,175.3,3.1,168.2,3.4z"/>
		</g>
	</g>
</g>
</svg>
