<?xml version="1.0" encoding="utf-8"?>
<!-- Generator: Adobe Illustrator 25.2.0, SVG Export Plug-In . SVG Version: 6.00 Build 0)  -->
<svg version="1.1" id="Layer_1" xmlns="http://www.w3.org/2000/svg" xmlns:xlink="http://www.w3.org/1999/xlink" x="0px" y="0px"
	 viewBox="0 0 235.7 467.3" style="enable-background:new 0 0 235.7 467.3;" xml:space="preserve">
<style type="text/css">
	.st0{fill:#652F99;}
	.st1{fill:#C1983D;}
	.st2{fill:#F7C517;}
	.st3{fill:#953DBA;}
	.st4{clip-path:url(#SVGID_2_);}
	.st5{fill:#44F5A0;}
	.st6{fill:#33D08C;}
	.st7{fill:#1B8B79;}
	.st8{clip-path:url(#SVGID_4_);}
	.st9{clip-path:url(#SVGID_6_);}
	.st10{clip-path:url(#SVGID_8_);}
	.st11{fill:none;stroke:#33D08C;stroke-miterlimit:10;}
	.st12{clip-path:url(#SVGID_10_);}
	.st13{clip-path:url(#SVGID_12_);}
	.st14{fill:#4D257C;}
	.st15{clip-path:url(#SVGID_14_);}
	.st16{fill:#F5FAFF;}
	.st17{fill:#022538;}
	.st18{fill:#E5B94C;}
</style>
<g id="b-calf">
	<g>
		<path class="st0" d="M77.4,453.2c-1.2,0.5-7.2,0.4-8.9-0.3c-2.7-1.1-10.2-3.5-10.2-3.5c-3.3-0.9-6.2,1.8-7.1,2.7
			c-2.6,2.5-5.7,4.4-9.1,5.6c-2,0.7-17.8,3-22.8,2.6c-2-0.2-1.8-2.8-2.1-4.9c0,0-4.6,0.7-7.7,0.9c-2.8,0.1-5.6,0.1-8.4,0
			c-0.6-1.6-1.7-5.3-0.7-7.9c2-5.1,27.9-7.5,32.7-11.3c3.1-2.5,9-9.5,12.9-17.2c1.2-2.4,2.9-4.6,4.9-6.4l2.6-2.1
			c3.2-0.2,6.1,2.1,6.6,5.3c0.8,4.5,10.7,24.5,16.1,27.2S80.9,451.7,77.4,453.2z"/>
		<path class="st0" d="M36.5,440.5c-5.7,8.2-19.5,6.2-19.3,14.9c-3.5,1.1-16.1,0.9-16.1,0.9S0.4,448.4,36.5,440.5z"/>
	</g>
	
		<ellipse transform="matrix(0.9983 -5.762758e-02 5.762758e-02 0.9983 -23.4128 3.759)" class="st1" cx="53.5" cy="407.8" rx="9.3" ry="2.9"/>
	<path class="st2" d="M53.2,404.6c-5.2,0.4-9.3,1.9-9.2,3.4s4.4,2.4,9.6,2s9.3-1.9,9.2-3.4S58.4,404.2,53.2,404.6z M53.5,409.1
		c-3.3,0.2-6.1-0.3-6.2-1.3s2.6-1.9,5.9-2.2s6.1,0.3,6.2,1.3S56.9,408.8,53.5,409.1z"/>
	<path class="st0" d="M58.4,417.9c0.3,3.5-7.3,2.6-7.3,2.6L33,306.7c0,0,5.3-3.8,9.4-4.2c2.1-0.2,3.9,0,4.4,1.1
		C65,340.8,55,373.8,58.3,417.1C58.3,417.4,58.4,417.6,58.4,417.9z"/>
	<path class="st2" d="M62.8,406.6l0.7,9.9c0,0.1,0,0.2,0,0.2c-0.3,1.1-2.7,2.2-6.1,2.8c-1,0.2-2,0.3-3.1,0.4c-4.9,0.4-9-0.4-9.5-1.8
		c0-0.1-0.1-0.2-0.1-0.2L44,408c0.1,1.5,4.4,2.4,9.6,2c1-0.1,2-0.2,3.1-0.4C60.3,409,62.9,407.8,62.8,406.6z"/>
	<path class="st2" d="M59.5,406.9c0.1,1-2.6,2-5.9,2.2s-6.1-0.3-6.2-1.3L44,408c0.1,1.5,4.4,2.4,9.6,2s9.3-1.9,9.2-3.4L59.5,406.9z"
		/>
</g>
<path id="b-thigh" class="st0" d="M123.3,301c-53.9,2.7-79,12.5-79,12.5s-10.2-1.6-11.3-6.8c-1.5-6.7,8-10.9,12.4-13.7
	c21.9-13.5,46.4-22.5,71.8-26.4c9.8-1.6,19.7-2.3,29.6-2.1c7.8,0.2,14.3,0.7,16.2,8.6c0.8,3.2,0.5,17.5-6.9,23.6
	C148.2,303.3,137.4,300.3,123.3,301z"/>
<path id="b-hand" class="st3" d="M94,23.2c-0.9,3.1-2.4,12-2.4,12s-1.4,4-4.3,5c-3.2,1.1-7.1-2-7.1-2c-3.1-4.5-7.1-8.3-11.6-11.4
	c-7-4.3-12.8-6.2-10.4-10.8s6-4.6,10-0.9c1.6,1.5,3.1,2.6,4.4,3.7c-0.5-1-1.1-2-1.7-3C66.5,9,62,4.8,66.1,1.6s7.4-1.6,9.5,3.4
	S80,13.4,81,15.9c0,0,4,7.1,4.3,6.6s0.2-4.2,1.4-8.7s7.4-4.7,9.8-2S94.9,20.1,94,23.2z"/>
<g id="b-forearm">
	<defs>
		<path id="SVGID_1_" d="M111.6,84.2c-3.8-16.2-12.5-33.9-15.5-49.4c-0.6-3.1-5.8-6-10.7-5c-0.8,0.2-1.7,0.4-2.4,0.8
			c-3.7,1.7-6.1,5.3-5.6,7.8c2.9,14.9,1.5,35.8,4,52.3c0.8,5,1.7,11.3,3.4,14.7c2.1,4.4,11,11.6,21.8,0.8
			C110.7,102.1,112.8,89.4,111.6,84.2z"/>
	</defs>
	<clipPath id="SVGID_2_">
		<use xlink:href="#SVGID_1_"  style="overflow:visible;"/>
	</clipPath>
	<g class="st4">
		<path class="st5" d="M114.2,85.7c-4.3-18.1-14-38-17.4-55.4c-0.7-3.5-6.5-6.7-12-5.6c-0.9,0.2-1.9,0.5-2.7,0.9
			c-4.1,1.9-6.8,5.9-6.3,8.8C79,51,77.5,74.5,80.3,93c0.9,5.6,2.1,11.1,3.8,16.5c1.3,4.3,3.8,12.6,7.7,11.9c3.4-0.7,10,1.1,12.8-1.6
			c4.9-4.5,10-9.1,11.3-11.6C119.6,100.6,115.6,91.6,114.2,85.7z"/>
		<path class="st6" d="M109.1,93.6c-1.6-8.6-3.6-17-6.2-25.3c-2.4-8.1-5-16.2-7.4-24.3c-1.3-4.5-2.5-9.1-3.5-13.7
			c-0.1-0.6-1.1-0.4-1,0.3c1.8,8.2,4.2,16.3,6.7,24.3s5.1,16.3,7.2,24.6c1.2,4.8,2.3,9.6,3.2,14.5C108.2,94.5,109.2,94.2,109.1,93.6
			L109.1,93.6z"/>
		<path class="st6" d="M82.8,107.5c-0.3-2.8-0.3-5.6,0.1-8.4c0.3-3.8,1.2-7.5,2.8-10.9c0.7-1.6,1.7-3.1,2.9-4.4
			c1.3-1.2,2.8-2.2,4.5-2.7c3.7-1.3,7.7-1,11.2,0.6c4.3,2.1,7.4,6,8.6,10.6c0.1,0.3,0.4,0.4,0.6,0.4c0.3-0.1,0.4-0.4,0.4-0.6
			c-1.1-4.3-3.9-8-7.6-10.4c-3.5-2.1-7.7-2.9-11.7-2c-1.9,0.4-3.8,1.2-5.4,2.3c-1.4,1.1-2.6,2.5-3.5,4.1c-1.9,3.5-3.1,7.3-3.6,11.3
			c-0.6,3.5-0.7,7-0.3,10.5C82,108.4,82.9,108.1,82.8,107.5L82.8,107.5z"/>
		<path class="st7" d="M106,103.3c5.2-8.2,1.9-13.3-0.3-14.8c-3.8-2.9-10-5.5-15.2-0.1c-4.2,4.3-4.4,11.1-3.3,15.6
			C88.6,110.1,100.8,111.5,106,103.3z"/>
	</g>
</g>
<g id="b-arm">
	<defs>
		<path id="SVGID_3_" d="M159.5,147.3l-6.9,15.1l-20.3,5.7l-44.8-63c-2.3-6.5,0-14.7,4.7-18c5.1-3.6,11.9-0.4,14.7,2.7L159.5,147.3z
			"/>
	</defs>
	<clipPath id="SVGID_4_">
		<use xlink:href="#SVGID_3_"  style="overflow:visible;"/>
	</clipPath>
	<g class="st8">
		<path class="st0" d="M145.8,152.1c-0.2-0.3-0.4-0.7-0.6-1c-3.8-5.2-7.6-10.4-11.3-15.6l-5.5-7.9l-5.5-7.9
			c-3.6-5.3-7.2-10.6-10.7-16s-6.8-10.9-9.9-16.6c-1.7-3.3-5.7-4.7-9.2-3.4c-0.3,0.1-0.5,0.2-0.8,0.4c-3.6,1.9-4.9,6.4-3,9.9
			c0,0,0,0,0,0.1c0.2,0.3,0.4,0.7,0.7,1c3.9,5.1,7.5,10.4,11,15.8s6.8,10.9,10.2,16.3l5,8.2l4.9,8.3c3.3,5.6,6.5,11.1,9.6,16.8
			c2.4,4.1,7.7,5.4,11.8,3C146.4,161.2,147.8,156.2,145.8,152.1L145.8,152.1z"/>
	</g>
</g>
<g id="hips">
	<defs>
		<path id="SVGID_5_" d="M178,261.4c0,0-0.5,13.5-1.1,20.1c-2.1,23.8-17.2,33.8-26.1,33.8s-13.9,1.6-19.5-15.4
			c-4.4-13.4-4-36.7-4-36.7L178,261.4z"/>
	</defs>
	<clipPath id="SVGID_6_">
		<use xlink:href="#SVGID_5_"  style="overflow:visible;"/>
	</clipPath>
	<g class="st9">
		<rect x="126.2" y="259.4" class="st5" width="52" height="59"/>
		<path class="st6" d="M143.7,261.2c-0.7,1.2-1.2,2.5-1.6,3.9c-0.7,2.2-1.2,4.4-1.7,6.6c-1.3,5.7-2.2,11.5-2.9,17.3
			c-0.5,4.5-0.7,9-0.6,13.5c0.2,3.7,0.7,7.6,2.8,10.8c2.9,4.2,8,5.2,12.8,4.8c0.6-0.1,0.6-1,0-1c-4.2,0.4-8.8-0.3-11.6-3.8
			c-2.2-2.8-2.8-6.6-3-10.1c-0.2-4.2-0.1-8.4,0.4-12.6c0.6-5.7,1.5-11.4,2.6-17c0.5-2.5,1.1-5.1,1.9-7.6c0.3-1.5,0.9-3,1.7-4.4
			C144.9,261.2,144.1,260.7,143.7,261.2L143.7,261.2z"/>
	</g>
</g>
<g id="torso">
	<path class="st2" d="M158.3,160.9c-1.5,9.3-7.3,17.3-15.6,21.6c-6-3.4-13.7-9.9-15.6-21.6s7-21.6,15.6-21.6
		S160.4,149.1,158.3,160.9z"/>
	<path class="st1" d="M179.4,249.3c0-2.2-9-3.1-24.6-0.9s-30.6,8-30.6,13.7s11.3-2.6,26.9-2.6S179.4,254.9,179.4,249.3z"/>
	<path class="st7" d="M129.2,226.5c0,0,8,16.3,41.2,15.8l-2.9-39.9h-40.1L129.2,226.5z"/>
	<path class="st3" d="M172.3,262.1l-8.9,3.5l-32.2,5.3l-3.8-8.9c0,0,5.6-11.6,5.6-21.2c0-2.7-0.2-6.6-0.6-10.8
		c-0.9-10.9-2.5-24.1-2.5-24.1s4.3-8.4,19.9-8.4s19.9,8.4,19.9,8.4s-3.1,25.3-3.1,34.9S172.3,262.1,172.3,262.1z"/>
	<g>
		<defs>
			<path id="SVGID_7_" d="M170.4,242.2c-25.3-2.2-23.4-18.1-34.3-28.4c-10.6-10-4.3,3.3-6.9,12.7c-2.9-7.5-11.9-38,9.2-78.2
				c14.4-5.6,18.9-10.9,34.6-5.1C191.8,171.6,178.3,220.1,170.4,242.2z"/>
		</defs>
		<clipPath id="SVGID_8_">
			<use xlink:href="#SVGID_7_"  style="overflow:visible;"/>
		</clipPath>
		<g class="st10">
			<rect x="113.2" y="137.4" class="st5" width="77" height="110"/>
			<path class="st6" d="M170.2,137.4C170.1,137.5,170.2,137.4,170.2,137.4l-0.1,0.1l-0.3,0.2l-0.7,0.5c-0.6,0.4-1.3,0.8-1.9,1.3
				c-1.8,1.2-3.6,2.6-5.3,4c-5,4.2-9.2,9.3-12.5,14.9c-4.8,8.3-7.6,17.7-8.2,27.2c-0.2,5.7,0,11.4,0.7,17.1
				c0.4,4.1,0.9,8.2,1.7,12.2c1.7,8.9,4.2,17.9,8.4,25.9c0.5,0.9,1,1.8,1.6,2.7c0.3,0.6,1.2,0,0.9-0.5c-2.3-3.9-4.2-8-5.7-12.3
				c-2.7-7.8-4.5-16-5.5-24.2c-0.7-5.6-1.2-11.1-1.3-16.7c0-5.4,0.7-10.9,2.1-16.1c1.2-4.3,2.8-8.5,4.8-12.5
				c3.1-6,7.3-11.4,12.4-15.9c1.7-1.5,3.6-3,5.4-4.3c1.2-0.8,2.4-1.6,3.6-2.4l0.6-0.4C171.4,137.7,170.7,137,170.2,137.4
				L170.2,137.4z"/>
			
				<rect x="119.3" y="180.7" transform="matrix(8.628637e-02 -0.9963 0.9963 8.628637e-02 -64.6974 297.2398)" class="st11" width="20.8" height="6.4"/>
		</g>
	</g>
	<path class="st1" d="M134.6,162.5c0,0,8.2-8.2,16.9-15.5c6.9-5.8,14.8-10.5,14.1-14.1c-1.6-8.3-18.7,1.6-22.9,5.6
		C130.6,150.5,134.6,162.5,134.6,162.5z"/>
	<path class="st0" d="M159,145.1c0,0-5.2,4.1-11.1,8.3s-7.3,6.4-7.3,6.4s-2-12.4-3.6-26.2c-1.8-15.9-2.2-34.2-2.2-34.2l22.4-3.2
		c0,0-7.1,6.9-2.7,30.4C157,140.4,159,145.1,159,145.1z"/>
	<path class="st2" d="M179.2,249.3v15.1c-10.7,1.2-40.9,9.2-55.2,12c0,0-0.2-10.5,0-14.3C129.4,259.8,168.7,250.4,179.2,249.3z"/>
	<path class="st2" d="M134.8,162.6c0,0,7.5-8.8,14.2-18c5.2-7.2,9.4-15.6,13.1-15.1c8.4,1,5.5,8.5,1.8,12.9
		C152.8,155.5,134.8,162.6,134.8,162.6z"/>
	<path class="st2" d="M186,160.9c-1.5,9.3-7.3,17.3-15.6,21.6c-6-3.4-13.7-9.9-15.6-21.6s7-21.6,15.6-21.6S188.1,149.1,186,160.9z"
		/>
	<path class="st1" d="M181.4,165.3c-1.4,9.3-6.7,14.5-11.1,17.1c-6.1-3.7-10.1-10-11.1-17.1c-1.4-9.3,4.9-17.1,11.1-17.1
		S182.9,156.1,181.4,165.3z"/>
</g>
<path id="f-hand" class="st3" d="M200.7,298.5c1.4-2.9,4.5-11.3,4.5-11.3s2.1-3.7,5.1-4.2c3.4-0.6,6.6,3.2,6.6,3.2
	c2.3,5,5.6,9.4,9.5,13.2c6.1,5.5,11.5,8.3,8.3,12.4s-6.7,3.5-10-0.9c-1.3-1.7-2.6-3.1-3.7-4.4c0.3,1.1,0.7,2.2,1.2,3.2
	c3.2,7.5,6.9,12.4,2.3,14.8s-7.6,0.3-8.7-5s-2.8-9-3.4-11.5c0,0-2.7-7.7-3.1-7.2s-1,4.1-2.9,8.3s-8.1,3.3-9.9,0.3
	S199.3,301.4,200.7,298.5z"/>
<path id="f-arm" class="st3" d="M162.3,164.8c0.2,0.3,0.4,0.7,0.6,1c3.8,5.2,7.5,10.5,11.1,15.8l5.4,8l5.3,8
	c3.5,5.4,7.1,10.8,10.4,16.2s6.6,11,9.6,16.8c1.7,3.3,5.6,4.8,9.1,3.5c0.3-0.1,0.5-0.2,0.8-0.3c3.6-1.9,5-6.3,3.2-9.9c0,0,0,0,0,0
	c-0.2-0.3-0.4-0.7-0.6-1c-3.9-5.2-7.4-10.6-10.8-16s-6.7-11-9.9-16.5l-4.8-8.4l-4.8-8.4c-3.2-5.6-6.3-11.3-9.3-16.9
	c-2.2-4.2-7.5-5.8-11.7-3.6C161.7,155.3,160.1,160.6,162.3,164.8L162.3,164.8z"/>
<g id="f-forearm">
	<defs>
		<path id="SVGID_9_" d="M194,235.4c1,16.6,6.4,35.6,6.7,51.4c0.1,3.1,4.6,6.9,9.6,6.8c0.9,0,1.7-0.1,2.5-0.4c3.9-1,6.9-4.2,6.9-6.8
			c-0.2-15.1,4.8-35.6,5.1-52.2c0.1-5.1,0.3-11.4-0.7-15.1c-1.3-4.7-8.8-13.3-21.3-4.6C198,217.9,193.7,230,194,235.4z"/>
	</defs>
	<clipPath id="SVGID_10_">
		<use xlink:href="#SVGID_9_"  style="overflow:visible;"/>
	</clipPath>
	<g class="st12">
		<path class="st5" d="M191.7,233.4c1.1,18.6,7.3,39.9,7.5,57.6c0.1,3.5,5.2,7.7,10.8,7.6c1,0,1.9-0.1,2.9-0.4
			c4.4-1.2,7.8-4.7,7.7-7.6c-0.3-17,5.3-39.9,5.7-58.5c0.1-5.7-0.2-11.3-0.8-16.9c-0.6-4.4-1.6-13.1-5.5-13c-3.4,0-9.7-2.8-12.9-0.7
			c-5.6,3.6-11.5,7.2-13.2,9.5C189,217.8,191.4,227.4,191.7,233.4z"/>
		<path class="st6" d="M198.1,226.5c0.1,8.7,0.6,17.4,1.7,26c1,8.4,2.2,16.8,3,25.2c0.5,4.7,0.9,9.4,1.1,14.1c0,0.6,1,0.6,1,0
			c-0.4-8.4-1.3-16.8-2.4-25.1s-2.2-16.9-2.9-25.5c-0.4-4.9-0.6-9.9-0.6-14.8c0-0.3-0.2-0.5-0.5-0.5S198,226.2,198.1,226.5
			L198.1,226.5z"/>
		<path class="st6" d="M226.8,229.6c-1.2-4.1-3.1-8.5-6.7-11.1c-2.7-1.8-6.1-2.4-9.3-1.5c-3.6,0.8-7,2.6-9.7,5.2
			c-2.8,3-4.9,6.6-6.1,10.5c-1.8,5.5-3,11.2-3.6,17c-0.1,0.6,0.9,0.9,1,0.3c0.6-5,1.6-9.9,2.9-14.7c1-3.9,2.8-7.6,5.2-10.9
			c2.3-2.8,5.4-4.9,8.8-6c2.9-1,6.2-1.3,9,0.1c4.2,2.1,6.2,7,7.4,11.2c0.1,0.3,0.4,0.4,0.6,0.4C226.8,230.1,227,229.8,226.8,229.6
			L226.8,229.6L226.8,229.6z"/>
	</g>
</g>
<g id="f-calf">
	
		<ellipse transform="matrix(0.9966 -8.285996e-02 8.285996e-02 0.9966 -34.1111 6.7844)" class="st1" cx="64.7" cy="414.4" rx="9.3" ry="2.9"/>
	<path class="st2" d="M64.5,411.5c-5.2,0.4-9.3,1.9-9.2,3.4s4.4,2.4,9.6,2s9.3-1.9,9.2-3.4S69.7,411.1,64.5,411.5z M64.8,415.9
		c-3.3,0.2-6.1-0.3-6.2-1.3s2.6-1.9,5.9-2.2s6.1,0.3,6.2,1.3S68.2,415.7,64.8,415.9L64.8,415.9z"/>
	<path class="st3" d="M69.7,424.8c0.3,3.5-7.3,2.6-7.3,2.6L44.2,313.5c0,0,5.3-3.8,9.4-4.2c2.1-0.2,3.9,0,4.4,1.1
		c18.3,37.3,8.3,70.2,11.6,113.6C69.6,424.2,69.7,424.5,69.7,424.8z"/>
	<g>
		<path class="st3" d="M88.7,460.1c-1.2,0.5-7.2,0.4-8.9-0.3c-2.7-1.1-10.2-3.5-10.2-3.5c-3.3-0.9-6.2,1.8-7.1,2.7
			c-2.6,2.5-5.7,4.4-9.1,5.6c-2,0.7-17.8,3-22.8,2.6c-2-0.2-1.8-2.8-2.1-4.9c0,0-4.6,0.7-7.7,0.9c-2.8,0.1-5.6,0.1-8.4,0
			c-0.6-1.6-1.7-5.3-0.7-7.9c2-5.1,27.9-7.5,32.7-11.3c3.1-2.5,9-9.5,12.9-17.2c1.2-2.4,2.9-4.6,4.9-6.4l2.6-2.1
			c3.2-0.2,6.1,2.1,6.6,5.3c0.8,4.5,10.7,24.5,16.1,27.2S92.2,458.5,88.7,460.1z"/>
		<path class="st0" d="M47.8,447.4c-5.7,8.2-19.5,6.2-19.3,14.9c-3.5,1.1-16.1,0.9-16.1,0.9S11.7,455.3,47.8,447.4z"/>
	</g>
	<path class="st2" d="M74.1,413.5l0.7,9.9c0,0.1,0,0.2,0,0.2c-0.3,1.1-2.7,2.2-6.1,2.8c-1,0.2-2,0.3-3.1,0.4c-4.9,0.4-9-0.4-9.5-1.8
		c0-0.1-0.1-0.2-0.1-0.2l-0.7-9.9c0.1,1.5,4.4,2.4,9.6,2c1-0.1,2.1-0.2,3.1-0.4C71.6,415.9,74.2,414.7,74.1,413.5z"/>
	<path class="st2" d="M70.7,413.7c0.1,1-2.6,2-5.9,2.2s-6.1-0.3-6.2-1.3l-3.3,0.2c0.1,1.5,4.4,2.4,9.6,2s9.3-1.9,9.2-3.4L70.7,413.7
		z"/>
</g>
<path id="f-thigh" class="st3" d="M134.6,308.9c-53.9,2.7-79.1,11.7-79.1,11.7s-10-1.9-11.2-7.1c-1.5-6.7,8-10.9,12.4-13.6
	c21.9-13.5,46.4-22.5,71.8-26.4c9.8-1.6,19.7-2.3,29.6-2.1c7.8,0.2,14.3,0.7,16.2,8.6c0.8,3.2,0.5,18.5-6.9,24.6
	C159.4,311.1,148.6,308.2,134.6,308.9z"/>
<g id="head">
	<defs>
		<path id="SVGID_11_" d="M175.2,76.8c-0.3,11.5-17,24.2-31.2,28.2c-2.7,0.8-11.9,17.9-13.2,21.9c-2.3,7.1-8.6,9.7-13.8,9.7
			s-7-2.3-9.4-9.3c-1.3-4-7.3-26.2-6-37.6c1.5-13.3,5.8-30,17.6-36.8c9.3-5.5,17.5-7.3,30.6-7.2c7.9,0.1,16.6,4.1,20.8,10.4
			C174.6,62.2,175.4,69.8,175.2,76.8z"/>
	</defs>
	<clipPath id="SVGID_12_">
		<use xlink:href="#SVGID_11_"  style="overflow:visible;"/>
	</clipPath>
	<g class="st13">
		<rect x="86.2" y="44.3" class="st3" width="95" height="96"/>
		<path class="st14" d="M113.1,120.3c-2.2,0.9-4.4,1.4-6.8,1.4c-2.4-0.1-4.8-0.6-7-1.4H113.1z"/>
		<path class="st14" d="M118.5,83.6c-0.9-0.7-1.8-1.2-2.7-1.8c-0.8-0.5-1.7-0.7-2.6-0.8c-1,0-1.9,0.1-2.8,0.5
			c-0.5,0.2-1,0.4-1.4,0.6s-1,0.5-1.5,0.7h-0.1c-0.2,0.1-0.5,0-0.6-0.2c-0.1-0.2,0-0.3,0.1-0.5c0.4-0.4,0.8-0.9,1.2-1.3
			c0.5-0.4,1-0.7,1.5-1c1.1-0.6,2.4-0.9,3.7-0.9c1.3,0.1,2.6,0.6,3.6,1.5c0.5,0.4,0.8,0.9,1.1,1.5C118.2,82.4,118.4,83,118.5,83.6z"
			/>
		<g>
			<defs>
				<path id="SVGID_13_" d="M107.6,92.4c-1.1,4.6-0.9,8.8,0.3,10.8c2,0.3,4.6-0.2,6.6-4.5c1.4-3,2.2-9.2,0.3-12.6
					C113.2,84.8,108.7,87.8,107.6,92.4z"/>
			</defs>
			<clipPath id="SVGID_14_">
				<use xlink:href="#SVGID_13_"  style="overflow:visible;"/>
			</clipPath>
			<g class="st15">
				<rect x="105.2" y="83.3" class="st16" width="12" height="22"/>
				<ellipse class="st7" cx="110.2" cy="96.8" rx="3" ry="7.5"/>
				<ellipse cx="110.7" cy="96.3" rx="1.5" ry="4"/>
				<path class="st17" d="M107.7,105c0,0-3.8-9.9,1.6-15.5c0.7-0.8,2.9-2.6,4-1.8c0,0,1.8,1.4,1.8,5c-0.1,3-0.7,6.1-1.7,8.9l3-2.2
					l1.5-22.3l-9.3,0.9l-4.6,25.3L107.7,105z"/>
			</g>
		</g>
		<path class="st18" d="M151.9,57.6l-0.2-0.1c-8.2-2.2-16.7-2.8-25.1-1.7c-4.7,0.6-9.3,1.8-13.7,3.6c-1.1,0.5-2.2,1-3.3,1.5
			c-2.5,2.9-5.1,5.8-7.7,8.6c0.1,0.6,0.4,1.2,0.7,1.7c0.6,1,1.8,1.4,2.9,1.2c0.9-0.3,1.6-0.8,2.3-1.4c6.4-4.7,13.8-7.9,21.6-9.5
			c4.3-0.9,8.7-1.5,13.1-1.8c3.1-0.2,6.1-0.2,9.3-0.2c0.5-0.1,0.9-0.6,0.9-1.1C152.5,58,152.2,57.7,151.9,57.6L151.9,57.6z"/>
		<path class="st18" d="M139.1,47.7c-4.5,0.2-8.9,0.6-13.4,1c0,0-8.1,2.1-9.4,2.9c0.4,0.7,0.9,1.3,1.5,1.9c0.9,0.8,2.1,0.6,3.2,0.4
			c7.3-1.2,13.4-2.6,21.4-3.5c1.8-0.2,14.4-1.1,14.4-1.4S146.2,47.4,139.1,47.7z"/>
	</g>
</g>
</svg>
