<?xml version="1.0" encoding="utf-8"?>
<!-- Generator: Adobe Illustrator 25.2.0, SVG Export Plug-In . SVG Version: 6.00 Build 0)  -->
<svg version="1.1" id="Layer_1" xmlns="http://www.w3.org/2000/svg" xmlns:xlink="http://www.w3.org/1999/xlink" x="0px" y="0px"
	 viewBox="0 0 195.2 435.4" style="enable-background:new 0 0 195.2 435.4;" xml:space="preserve">
<style type="text/css">
	.st0{fill:#953DBA;}
	.st1{clip-path:url(#SVGID_2_);}
	.st2{fill:#44F5A0;}
	.st3{fill:#1B8B79;}
	.st4{fill:#33D08C;}
	.st5{clip-path:url(#SVGID_4_);}
	.st6{fill:#652F99;}
	.st7{fill:#C1983D;}
	.st8{fill:#F7C517;}
	.st9{clip-path:url(#SVGID_6_);}
	.st10{clip-path:url(#SVGID_8_);}
	.st11{fill:none;stroke:#33D08C;stroke-width:0.86;stroke-miterlimit:10;}
	.st12{fill:#4D257C;}
	.st13{clip-path:url(#SVGID_10_);}
	.st14{fill:#F5FAFF;}
	.st15{fill:#022538;}
	.st16{clip-path:url(#SVGID_12_);}
	.st17{fill:#E5B94C;}
	.st18{clip-path:url(#SVGID_14_);}
	.st19{clip-path:url(#SVGID_16_);}
</style>
<path id="l-hand" class="st0" d="M36.7,235.2c-0.7-3.1-1.6-12.1-1.6-12.1s-1.1-4.1-3.9-5.3c-3.1-1.4-7.2,1.5-7.2,1.5
	c-3.5,4.2-7.7,7.8-12.5,10.5c-7.3,3.8-13.2,5.3-11.1,10s5.7,5,10,1.6c1.7-1.3,3.2-2.4,4.6-3.3c-0.6,1-1.2,1.9-1.9,2.8
	c-5,6.5-9.7,10.4-5.8,13.8s7.3,2.2,9.7-2.7s4.9-8,6.1-10.4c0,0,4.5-6.8,4.8-6.2s-0.1,4.2,0.8,8.8s7.1,5.2,9.6,2.7
	S37.3,238.3,36.7,235.2z"/>
<g id="l-forearm">
	<defs>
		<path id="SVGID_1_" d="M58.5,175.6c-5,15.8-14.9,32.9-19,48.2c-0.8,3-6.2,5.6-11,4.3c-0.8-0.2-1.6-0.6-2.4-1c-3.5-2-5.7-5.7-5-8.2
			c3.9-14.6,4-35.6,7.8-51.9c1.2-4.9,2.6-9.7,4.4-14.5c1.5-3.7,4.2-11,7.6-10.1c3.1,1,5.9,2.9,8,5.4c3.3,3.7,5.9,7.8,7.8,12.4
			C59.6,167.1,60.2,170.5,58.5,175.6z"/>
	</defs>
	<clipPath id="SVGID_2_">
		<use xlink:href="#SVGID_1_"  style="overflow:visible;"/>
	</clipPath>
	<g class="st1">
		<path class="st2" d="M58.5,175.6c-5,15.8-14.9,32.9-19,48.2c-0.8,3-6.2,5.6-11,4.3c-0.8-0.2-1.6-0.6-2.4-1c-3.5-2-5.7-5.7-5-8.2
			c3.9-14.6,4-35.6,7.8-51.9c1.2-4.9,2.6-9.7,4.4-14.5c1.5-3.7,4.2-11,7.6-10.1c3.1,1,5.9,2.9,8,5.4c3.3,3.7,5.9,7.8,7.8,12.4
			C59.6,167.1,60.2,170.5,58.5,175.6z"/>
		<path class="st3" d="M54.3,156.1c4.6,8.5,5.9,16.7,3,18.2c-3.3-1.8-6-6-10.6-14.6s-6.1-14.1-6-16.3
			C43.5,143.6,49.8,147.6,54.3,156.1z"/>
		<path class="st4" d="M51.9,175.7c-2.6,6.8-5.2,13.6-7.6,20.5c-2.2,6.3-4.3,12.6-6.3,19c-1.3,4.1-2.5,8.3-3.8,12.4
			c-0.1,0.3,0.1,0.6,0.4,0.6c0.3,0.1,0.6-0.1,0.6-0.4c2.1-7,4.2-14,6.5-20.9c2.1-6.4,4.3-12.7,6.6-19c1.5-4.1,3-8.1,4.6-12.1
			C53.1,175.2,52.1,175,51.9,175.7L51.9,175.7z"/>
		<path class="st4" d="M36.1,145.3c0.2,2.9,0.9,5.7,2.1,8.4c1.3,2.9,2.7,5.8,4.3,8.5c1.4,2.6,2.8,5.2,4.4,7.6
			c1.4,2.2,2.9,4.2,4.8,6.1c1.5,1.7,3.6,2.8,5.8,3.1c0.6,0.1,0.6-0.9,0-1c-1.9-0.3-3.7-1.3-5-2.7c-1.7-1.7-3.2-3.6-4.5-5.7
			c-1.5-2.3-2.9-4.8-4.2-7.2s-2.8-5.1-4.1-7.8c-1.5-2.9-2.4-6.1-2.6-9.3c0-0.3-0.2-0.5-0.5-0.5S36.1,145.1,36.1,145.3L36.1,145.3z"
			/>
	</g>
</g>
<g id="l-arm">
	<defs>
		<path id="SVGID_3_" d="M112.4,112.2l-5.8-15.5l-19.9-7.1l-46,53.9c-0.1,2.6,1.4,7.8,6,16.3s7.6,13.2,10.5,14.6
			c0.4-0.3,0.8-0.7,1-1.1L112.4,112.2z"/>
	</defs>
	<clipPath id="SVGID_4_">
		<use xlink:href="#SVGID_3_"  style="overflow:visible;"/>
	</clipPath>
	<g class="st5">
		<path class="st0" d="M103,110.3c-0.2,0.3-0.5,0.6-0.8,0.9c-4.6,4.6-9,9.2-13.4,13.9l-6.6,7.1l-6.5,7.1c-4.3,4.8-8.7,9.5-12.8,14.4
			s-8.3,9.8-12.1,15c-2.2,3-6.3,3.9-9.5,2.1c-0.3-0.1-0.5-0.3-0.7-0.5c-3.3-2.4-4-7-1.6-10.3c0.2-0.3,0.5-0.6,0.8-0.9
			c4.6-4.5,9-9.3,13.2-14.1s8.3-9.8,12.4-14.7l6.1-7.5l6.1-7.5c4-5,7.9-10.1,11.8-15.2c2.9-3.8,8.3-4.6,12.1-1.7
			C105.1,101.1,105.9,106.5,103,110.3C103,110.3,103,110.3,103,110.3z"/>
	</g>
</g>
<g id="l-calf">
	<g>
		<path class="st0" d="M56.3,426.7c-2.1,0.5-4.3,0.3-6.3-0.4c-2.4-1.4-4.6-3-6.6-4.8l-0.1-0.1c-3.2-1.1-6.3,1.4-7.3,2.2
			c-2.8,2.3-6,4-9.5,4.9c-2.2,0.6-4.5,0.9-6.9,0.9c-2,0-2.8-3.3-2.9-5.4h-0.1c-3.6,0.8-10.1,0.4-13.2,0.1L1.8,424
			c-0.4-1.7-1.3-5.4-0.1-7.9c2.4-4.9,12.3-5.4,17.4-8.8c3.3-2.2,9.7-8.8,14.1-16.2c1.4-2.3,3.2-4.4,5.4-6l2.8-1.9
			c3.2,0,5.9,2.5,6.2,5.8c0.3,4.2,0.4,8.4,0.2,12.6c1.8,4.9,4.4,11.4,9.6,14.4S59.9,425.5,56.3,426.7z"/>
		<path class="st6" d="M28.4,406.6c-3.9,4.1-11.1,12-11.8,17.4c-3.6,0.8-10.1,0.4-13.2,0.1l5-5.3C8.4,418.8,20.9,414.1,28.4,406.6z"
			/>
		<path class="st6" d="M43.3,421.5l-0.1-0.1c-3.2-1.1-6.3,1.4-7.3,2.2c-2.8,2.3-6,4-9.5,4.9c2.3-1.5,4.4-3.2,6.3-5.1
			c6.6-6.6,8.5-17.1,8.5-17.1S44,416.3,43.3,421.5z"/>
	</g>
	<ellipse class="st7" cx="41.1" cy="379.1" rx="9" ry="2.5"/>
	<path class="st8" d="M41.1,376.4c-5.2,0-9.5,1.2-9.5,2.7s4.2,2.7,9.5,2.7s9.5-1.2,9.5-2.7S46.3,376.4,41.1,376.4z M41.1,380.8
		c-3.4,0-6-0.8-6-1.8s2.7-1.7,6-1.7s6,0.8,6,1.7S44.5,380.8,41.1,380.8z"/>
	<path class="st0" d="M45.6,390c0,3.6-7.4,2-7.4,2l-9.5-116.8c3.1-0.9,6.3-1.4,9.5-1.6c2.1,0,3.8,0.3,4.3,1.4
		c15.4,38.6,3,70.7,3.1,114.1V390z"/>
	<path class="st8" d="M50.6,379v10c0,0.1,0,0.2,0,0.3c-0.3,1.1-2.9,2-6.3,2.3c-1,0.1-2.1,0.2-3.1,0.1c-5,0-9-1.1-9.5-2.5
		c0-0.1,0-0.2,0-0.3v-10c0,1.5,4.3,2.7,9.5,2.7c1,0,2.1,0,3.1-0.2C47.9,381.2,50.6,380.1,50.6,379z"/>
	<path class="st8" d="M47.2,379.1c0,1-2.7,1.8-6,1.8c-3.3,0-6.1-0.8-6.1-1.8h-3.4c0,1.5,4.2,2.7,9.5,2.7s9.5-1.2,9.5-2.7H47.2z"/>
</g>
<g id="l-thigh">
	<path class="st0" d="M116.6,244.1c-2.7,8.2-14.1,13.9-24.1,16.7c-12,3.2-23.7,7.4-34.9,12.8l0,0C45.7,279.4,41,283.8,41,283.8
		s-8.9-0.5-11.3-5.2c-3.1-6.1,2.5-11.5,4.8-14.7c3.8-5.2,8.1-10.1,12.7-14.6c9-8.8,19.6-15.8,31.1-20.8l1.8-0.8
		c6.1-2.7,12.8-6.1,19-8.6c5.4-2.1,12.5-5.8,15.6,3.9C114.7,223.1,118.5,238.3,116.6,244.1z"/>
	<path class="st6" d="M116.3,244.1c-2.7,8.2-14.1,13.9-24.1,16.7c-12,3.2-23.7,7.4-34.9,12.8c0.7-11.8,12.9-31.8,22.5-45.9
		c6.1-2.7,12.8-6.1,19-8.6c5.4-2.1,12.5-5.8,15.6,3.9C114.4,223.1,118.3,238.3,116.3,244.1z"/>
</g>
<g id="hips">
	<defs>
		<path id="SVGID_5_" d="M148.2,218.3c-0.1,4.8-0.6,9.6-1.4,14.3c-6.8,33.3-17.8,38.2-27.1,38.2s-11.6-8.6-17.2-23
			c-3.4-9.5-6-19.2-7.6-29.2L148.2,218.3z"/>
	</defs>
	<clipPath id="SVGID_6_">
		<use xlink:href="#SVGID_5_"  style="overflow:visible;"/>
	</clipPath>
	<g class="st9">
		<polygon class="st2" points="145.6,274.6 90.6,274.6 90.6,215.6 153.8,215.6 		"/>
		<path class="st4" d="M96.7,217.2c1,1.7,1.6,3.7,1.5,5.7c0,1,0.1,2,0.2,3c0.1,1,0.4,2.1,0.6,3.1c1.1,4.5,2.2,8.9,3.4,13.4
			c1.2,4.3,2.4,8.7,3.9,12.9c1.4,3.8,3.1,7.4,5.3,10.7c2.4,3.8,5.4,7.3,8.8,10.3c0.5,0.4,1.2-0.3,0.7-0.7
			c-6.1-5.4-10.7-12.2-13.6-19.8c-1.6-4.1-2.7-8.4-3.9-12.6c-1.2-4.4-2.4-8.8-3.5-13.2c-0.3-1.2-0.6-2.4-0.8-3.6
			c-0.1-1.2-0.2-2.3-0.3-3.5c0-2.1-0.6-4.2-1.7-6.1C97.2,216.2,96.3,216.7,96.7,217.2L96.7,217.2z"/>
		<path class="st4" d="M132,218.6c-0.6,0.9-1.1,2-1.4,3c-0.7,1.6-1.2,3.3-1.8,5c-1.4,4.4-2.7,8.9-3.7,13.4c-1.1,4.5-1.8,9-2.3,13.6
			c-0.4,4.3-0.8,8.8,0,13.1c0.6,2.9,2.2,5.4,4.5,7.2c0.5,0.4,1.2-0.3,0.7-0.7c-2-1.5-3.4-3.6-4-6c-1-3.8-0.6-8-0.3-11.9
			c0.9-9.2,2.8-18.2,5.7-26.9c0.6-2,1.3-3.9,2-5.8c0.4-1.2,0.9-2.3,1.6-3.4C133.2,218.5,132.4,218.1,132,218.6L132,218.6z"/>
	</g>
</g>
<g id="r-calf">
	<ellipse class="st7" cx="79.2" cy="384.4" rx="9.2" ry="2.5"/>
	<path class="st8" d="M79.1,381.5c-5.2,0-9.4,1.2-9.4,2.7s4.2,2.7,9.4,2.7c5.2,0,9.5-1.2,9.5-2.7S84.3,381.5,79.1,381.5z
		 M79.1,385.9c-3.4,0-6-0.8-6-1.8s2.7-1.7,6-1.7c3.3,0,6.1,0.8,6.1,1.7S82.5,385.9,79.1,385.9z"/>
	<g>
		<path class="st0" d="M94.2,431.9c-2.1,0.5-4.3,0.3-6.3-0.4c-2.4-1.4-4.6-3-6.6-4.8l-0.1-0.1c-3.2-1.1-6.3,1.4-7.3,2.2
			c-2.8,2.3-6,4-9.5,4.9c-2.2,0.6-4.5,0.9-6.9,0.9c-2,0-2.8-3.3-2.9-5.4h-0.1c-3.6,0.8-10.1,0.4-13.2,0.1l-1.7-0.2
			c-0.4-1.7-1.3-5.4-0.1-7.9c2.4-4.9,12.3-5.4,17.4-8.8c3.3-2.2,9.7-8.8,14.1-16.2c1.4-2.3,3.2-4.4,5.4-6l2.8-1.9
			c3.2,0,5.9,2.5,6.2,5.7c0.3,4.2,0.4,8.4,0.2,12.6c1.8,4.9,4.4,11.4,9.6,14.4S97.8,430.6,94.2,431.9z"/>
		<path class="st6" d="M66.3,411.8c-3.9,4.1-11.1,12-11.8,17.4c-3.6,0.8-10.1,0.4-13.2,0.1l5-5.3C46.4,424,58.9,419.2,66.3,411.8z"
			/>
		<path class="st6" d="M81.3,426.6l-0.1-0.1c-3.2-1.1-6.3,1.4-7.3,2.2c-2.8,2.3-6,4-9.5,4.9c2.3-1.5,4.4-3.2,6.3-5.1
			c6.6-6.6,8.5-17.1,8.5-17.1S81.9,421.5,81.3,426.6z"/>
	</g>
	<path class="st0" d="M83.6,395.1c0,3.6-7.4,2.1-7.4,2.1l-9.5-116.8c3.1-0.9,6.3-1.4,9.6-1.6c2.1,0,3.8,0.3,4.3,1.4
		c15.4,38.6,3,70.7,3.1,114.1V395.1z"/>
	<path class="st8" d="M88.6,384.1v10.1c0,0.1,0,0.2,0,0.2c-0.3,1.1-2.9,2-6.3,2.3c-1,0.1-2.1,0.2-3.1,0.2c-5,0-9-1.1-9.5-2.5
		c0-0.1,0-0.2,0-0.2v-10.1c0.2,1.5,4.3,2.7,9.5,2.7c1,0,2.1,0,3.1-0.1C85.9,386.3,88.6,385.3,88.6,384.1z"/>
	<path class="st8" d="M85.2,384.2c0,1-2.7,1.8-6.1,1.8c-3.4,0-6-0.8-6-1.8h-3.4c0,1.5,4.2,2.7,9.4,2.7c5.2,0,9.5-1.2,9.5-2.7H85.2z"
		/>
</g>
<path id="r-thigh" class="st0" d="M130.2,266c-38.1,10.5-51.4,23-51.4,23s-8.9-0.5-11.3-5.2c-3.1-6.1,2.4-11.5,4.8-14.7
	c3.8-5.2,8.1-10.1,12.7-14.6c9-8.8,19.6-15.8,31.1-20.8c6.5-2.8,14-6.7,20.8-9.3c5.4-2.1,10-9.1,15.5,3.9c2.1,4.9,3.8,15.2,1.9,21.1
	C151.6,257.5,140.2,263.2,130.2,266z"/>
<g id="torso">
	<path class="st8" d="M115.7,81.4c3.4-0.4,6.8-0.5,10.2-0.3c3.3,0.6,6.4,2.1,8.7,4.5c0.9,0.9,3.6,4,3,6.1c-1,3-7.6,4.4-9.1,1.9
		c-3.5-5.8-18.1-1.8-19.2,0s-2-10-2-10C110,82.5,112.8,81.8,115.7,81.4z"/>
	<path class="st7" d="M151.1,204.9c0-5.7-13.4-10.3-29.8-10.3s-29.8,4.6-29.8,10.3s3.5,19.2,28.4,19.2
		C136.2,224.1,151.1,210.6,151.1,204.9z"/>
	<path class="st3" d="M144.9,182.1c0-12.1-20-26.2-32.8-26.2S96.4,170,96.4,182.1c2,5,12,11.2,28.6,11.2S144.2,186.9,144.9,182.1z"
		/>
	<path class="st0" d="M142.2,217.7l-8.9,3.5l-24.9,5.3l-11-8.9c0,0,5.6-11.6,5.6-21.2c0-2.7-0.2-6.6-0.6-10.8
		c-0.9-10.9-2.5-24.1-2.5-24.1s4.3-8.4,19.9-8.4s19.9,8.4,19.9,8.4s-3.1,25.3-3.1,34.9S142.2,217.7,142.2,217.7z"/>
	<g>
		<defs>
			<path id="SVGID_7_" d="M144.9,182.1c-25.5,1.8-21.9-18.6-36.5-18.6s-7.7,14.4-11.9,18.6c-5.1-16.6-18.1-52.6-5.5-83.7
				c14.4-5.7,46-5.7,61.7,0C158.1,135,144.9,166.6,144.9,182.1z"/>
		</defs>
		<clipPath id="SVGID_8_">
			<use xlink:href="#SVGID_7_"  style="overflow:visible;"/>
		</clipPath>
		<g class="st10">
			<rect x="82.6" y="91.6" class="st2" width="77" height="103"/>
			<path class="st4" d="M101.1,91.8c-2.7,2.1-5.8,3.4-8.4,5.7c-1.2,0.9-2.1,2.1-2.6,3.5c-0.2,0.6-0.3,1.2-0.5,1.9
				c-1.2,4.9-1.9,9.9-2.2,15c-0.6,7.2-0.6,14.4-0.2,21.5c0.6,7.3,1.6,14.5,3,21.6c1.7,8.8,4.1,17.4,7.3,25.8
				c0.4,1.1,0.8,2.1,1.3,3.2c0.2,0.6,1.2,0.3,1-0.3c-3.4-8.3-6-16.9-7.8-25.6c-1.6-7.4-2.8-14.9-3.5-22.4
				c-0.6-6.8-0.7-13.7-0.2-20.5c0.2-5.6,0.9-11.2,2-16.7c0.3-1.6,0.6-3.4,1.6-4.7c1.1-1.3,2.4-2.4,3.8-3.2c1.4-1,3-1.8,4.4-2.8
				c0.6-0.4,1.2-0.8,1.8-1.3C102.2,92.1,101.5,91.4,101.1,91.8L101.1,91.8z"/>
			<path class="st4" d="M147.9,94.1c-1.9,2-3.5,4.1-4.9,6.5c-1.7,2.8-3.3,5.7-4.7,8.7c-2.6,5.2-4.7,10.6-6.2,16.2
				c-0.6,2.4-0.9,4.9-1.2,7.4c-0.4,3.3-0.6,6.7-0.9,10c-0.5,6.7-0.5,13.5-0.2,20.2c0.2,3.5,0.6,7,1,10.5c0.3,3.9,0.9,7.7,1.7,11.5
				c0.2,1,0.5,2,0.8,3.1c0.1,0.3,0.4,0.4,0.6,0.4c0.3-0.1,0.4-0.4,0.4-0.6l0,0c-1.1-3.8-1.8-7.7-2.2-11.7c-0.4-3.7-0.8-7.4-1.1-11.2
				c-0.4-6.4-0.5-12.9-0.1-19.3c0.2-6.2,0.8-12.4,1.9-18.6c0.5-2.2,1.1-4.4,1.9-6.5c1-2.9,2.2-5.8,3.5-8.6c1.4-3,2.8-6,4.5-8.9
				c1.4-2.5,3-4.9,4.9-7.1c0.4-0.4,0.8-0.9,1.2-1.3S148.4,93.6,147.9,94.1L147.9,94.1z"/>
			<polygon class="st11" points="122.1,148.7 94.1,145.9 94.1,125.1 122.1,125.1 			"/>
		</g>
	</g>
	<path class="st8" d="M144.3,96.1c0,0-12.2,10.4,4.7,42c0,0,31-23.6,10.8-43C152.1,93.2,144.3,96.1,144.3,96.1z"/>
	<path class="st8" d="M99.2,96.1c0,0-15.8,3.7-13.1,42c0,0-16-36.6-2.4-43.1C91.3,93.2,99.2,96.1,99.2,96.1z"/>
	<path class="st8" d="M151.6,204.8V220c-2.3,1.9-4.9,3.4-7.6,4.6c-7.3,3.3-29.8,8.3-37.5,8.3c-7.1-2.9-14.9-7.4-14.9-12.9v-15.2
		c0,6.2,6.1,9.4,14.9,12.9c9.8-0.4,30.4-4.7,37.5-8C146.8,208.5,149.4,206.9,151.6,204.8z"/>
	<path class="st6" d="M101.5,96.1l16.7-3.7c0,0,20,0.5,17.5,3.7c-18.1,23.5-27.5,22-27.5,22L101.5,96.1z"/>
	<path class="st8" d="M107.7,118.2c-0.7-0.7-1.3-1.4-1.9-2.1c-0.6-0.7-1.1-1.5-1.7-2.3c-2.2-3.3-3.7-6.9-4.5-10.8
		c-0.4-2.1-0.5-4.3-0.4-6.4c0.2-2.4,1-4.7,2.3-6.8c1.3-2.1,3-4,5.1-5.4c1.9-1.3,4.1-2.3,6.4-3c2.2-0.6,4.5-1,6.8-0.9
		c2.7-0.1,4.9,2.1,5,4.8s-2.1,4.9-4.8,5h-0.4c-2.6,0.1-5.2,0.9-7.4,2.4c-0.9,0.6-1.8,1.5-2.4,2.4c-0.6,1-1.1,2.1-1.3,3.3
		c-0.7,2.9-1,5.9-0.9,8.9c0.1,3.5,0.5,6.9,1,10.3v0.1c0,0.3-0.2,0.5-0.4,0.6C108,118.3,107.8,118.3,107.7,118.2z"/>
	<path class="st6" d="M128.9,100.8c0,0-2.5,7.2-9.8,7.2s-10.4-7.2-10.4-7.2c0.4-7,0.4-14.1,0-21.2c-0.6-13.8-1.9-25.1-1.9-25.1h19.6
		c0,0-0.2,11.3,0.5,25.1C127.1,86.7,127.8,93.8,128.9,100.8z"/>
	<path class="st8" d="M128,92.8c0.7,0.6,1,1.5,1,2.5c-0.1,1.6-1.9,4.1-2.9,5.4c-5,6.6-11.1,12.4-18,16.9l0,0l0.2,0.8
		c10.1,0.5,20.6-6.3,26.6-14c2-2.3,3.3-5,3.9-8c0.4-3.2-0.5-6.5-2.5-9.1C133.4,89.2,130.7,91,128,92.8z"/>
	<path class="st7" d="M149.3,135.9c0,0-2.4-13.4,0-24.6c1.9-8.7,6.5-11.3,10-11s8.1,9.2,3.4,19C159.2,126.8,149.3,135.9,149.3,135.9
		z"/>
</g>
<g id="head">
	<path class="st0" d="M146.1,33c-0.3,11.5-17,25.6-24.2,31.2c-2.2,1.7-8.1,14.3-9.3,18.3c-2.3,7.1-8.6,9.7-13.8,9.7s-7-2.3-9.4-9.3
		c-1.3-4-2.7-7.6-3.5-10.4c-0.8-2.9-2.5-5.4-4.9-7.2c-7.3-5.7-8.9-15.8-7-27.2c1.2-7.3,3.2-15,7-20.1c2.9-3.8,6.5-7,10.6-9.5l0,0
		c1.4-0.9,2.9-1.6,4.4-2.3C99,5,102,3.9,105,3.2c0.9-0.2,1.8-0.4,2.7-0.6c2.4-0.4,4.8-0.7,7.3-0.7c4.1-0.1,8.2,0.3,12.2,1.1
		c2.2,0.5,4.4,1.2,6.4,2.2C141.1,9,146.5,16.8,146.1,33z"/>
	<path class="st12" d="M105.9,75.6c-2.2,0.9-4.4,1.4-6.8,1.4c-2.4-0.1-4.8-0.6-7-1.4H105.9z"/>
	<path class="st12" d="M76,39.7c-0.1-1.3,0.4-2.6,1.3-3.6c1-1,2.3-1.6,3.7-1.7c1.3-0.1,2.6,0.2,3.8,0.7c0.6,0.3,1.1,0.5,1.7,0.9
		c0.5,0.3,1,0.7,1.4,1.1c0.2,0.2,0.2,0.5,0,0.6c-0.1,0.1-0.3,0.2-0.4,0.1l0,0c-0.6-0.2-1.1-0.3-1.7-0.5L84.3,37
		c-1-0.3-2-0.4-3.1-0.3c-1,0.1-1.9,0.4-2.7,0.9C77.6,38.2,76.7,38.9,76,39.7z"/>
	<path class="st12" d="M122,41.2c-1.5-0.8-3.1-1.5-4.7-2.1c-1.5-0.6-3.1-1-4.7-1.2c-1.6-0.2-3.2,0-4.7,0.4c-0.8,0.2-1.6,0.5-2.3,0.8
		c-0.8,0.3-1.5,0.7-2.3,1h-0.1c-0.3,0.1-0.5,0-0.6-0.3c-0.1-0.2,0-0.4,0.1-0.5c0.7-0.6,1.4-1.2,2.1-1.7c0.8-0.5,1.6-0.9,2.5-1.3
		c1.8-0.7,3.7-1,5.6-0.8c1.9,0.2,3.7,0.7,5.3,1.7C119.8,38.2,121.1,39.5,122,41.2z"/>
	<g>
		<defs>
			<path id="SVGID_9_" d="M90.4,49.7c0.7,4.8-0.6,8.6-3.1,9.9c-3.7-0.6-8.7-3.6-9.5-8.4s0.2-7.9,4.1-10
				C85.1,40.7,89.6,44.9,90.4,49.7z"/>
		</defs>
		<clipPath id="SVGID_10_">
			<use xlink:href="#SVGID_9_"  style="overflow:visible;"/>
		</clipPath>
		<g class="st13">
			
				<rect x="73.3" y="39.8" transform="matrix(0.2529 -0.9675 0.9675 0.2529 15.0788 119.0155)" class="st14" width="22.6" height="19.9"/>
			<circle class="st3" cx="84.1" cy="52.1" r="7.5"/>
			<circle cx="84.1" cy="52.1" r="3.5"/>
			<path class="st15" d="M87.1,61.5c0,0,7.3-9.3-0.6-17c-1.4-1.2-3.2-1.8-5-1.6c0,0-2.2,0.1-3.2,3.3c-0.7,2.5-0.6,5.2,0.3,7.6
				l-5.4-1.5L76.1,31l16,5l1.8,25.6L87.1,61.5z"/>
		</g>
	</g>
	<g>
		<defs>
			<path id="SVGID_11_" d="M104.3,49.1c-2,4.6-1.7,8.8,0.5,10.8c3.8,0.3,9.7-1.4,11.8-6c1.6-3.6,3.2-8,0.2-10.8
				C113.7,41.8,106.3,44.5,104.3,49.1z"/>
		</defs>
		<clipPath id="SVGID_12_">
			<use xlink:href="#SVGID_11_"  style="overflow:visible;"/>
		</clipPath>
		<g class="st16">
			<rect x="99.6" y="39.6" class="st14" width="22" height="22"/>
			<circle class="st3" cx="109.1" cy="53.1" r="7.5"/>
			<circle cx="109.6" cy="53.6" r="4"/>
			<path class="st15" d="M104.5,61.8c0,0-4.9-11.4,5.1-17c1.7-0.9,3.7-1,5.4-0.3c0,0,2.2,0.7,2.3,4.2c0.1,2.7-0.7,5.4-2.3,7.6
				l5.9-0.1l2.8-22.3l-17.5,0.9L97.7,60L104.5,61.8z"/>
		</g>
	</g>
	<path class="st17" d="M127.5,15.1c-7.6,3.9-14.7,8.5-22.1,12.9c-1.6,0.9-3.2,1.8-4.8,2.6c-1.5,0.9-3.2,1.4-4.9,1.5
		c-2.9-0.2-4.7-3.2-5.5-5.7c-1.3-3.5-2-12.7,1.5-17.8l0,0c1.4-0.9,2.9-1.6,4.4-2.3c-1.7,2.6-2.6,5.6-2.6,8.7c0,3.4,1.6,6.9,3.4,9.9
		c2.7-1.3,4.7-2.5,5.7-3c7.2-3.7,16-7.8,23.8-10.1c1.6-0.4,6-1.9,7.7,0.4C134.7,12.9,132,12.9,127.5,15.1z"/>
	<path class="st17" d="M133.6,5.3c-2.8,0.3-5.6,0.9-8.3,1.7c-3.8,1.1-7.4,2.6-10.9,4.3c-1.8,0.9-11,4.7-12,4.6
		c-0.8,0.3-1.8-2.6-1.2-5.1c0.2-1.1,0.5-2.1,0.9-3.2c0.6-1.7,1.6-3.2,2.9-4.5c0.9-0.2,1.8-0.4,2.7-0.6c-1.4,1.9-2.3,4-2.7,6.3
		c-0.2,0.8-0.1,1.6,0.1,2.3c0.4-0.1,1.7-0.7,2.1-0.9c1.7-0.9,3.5-1.9,5.4-2.7c3.8-1.8,7.7-3.1,11.8-4c0.9-0.2,1.9-0.4,2.8-0.5
		C129.4,3.6,131.6,4.3,133.6,5.3z"/>
</g>
<path id="r-hand" class="st0" d="M123.1,129c1.8,2.6,7.7,9.4,7.7,9.4s2.2,3.6,1.2,6.5c-1.1,3.2-6,4.2-6,4.2
	c-5.5-0.4-10.9,0.3-16.2,1.9c-7.7,2.7-12.9,6-14.9,1.2s0.2-7.6,5.6-8.4c2.1-0.3,4-0.7,5.6-1.1c-1.1-0.2-2.2-0.4-3.4-0.6
	c-8.2-0.8-14.2,0-14-5.2s3.4-6.8,8.7-5.2s9.2,1.9,11.7,2.7c0,0,8,1.4,7.8,0.8s-3.1-2.9-5.8-6.6s1.1-8.7,4.6-8.8
	S121.3,126.4,123.1,129z"/>
<g id="r-arm">
	<defs>
		<path id="SVGID_13_" d="M149.3,135.9c-0.4-3.2-3.2-21.3,2.5-31.1c4-6.9,8.7-4,8.7-4l33,62.2c-5.1,2.9-9.8,6.5-13.7,10.9
			c-6.6,7-9,11.6-10.2,14.6c-0.4-0.3-0.6-3.8-0.7-4.4C168.9,184.1,155.3,147.6,149.3,135.9z"/>
	</defs>
	<clipPath id="SVGID_14_">
		<use xlink:href="#SVGID_13_"  style="overflow:visible;"/>
	</clipPath>
	<g class="st18">
		<path class="st0" d="M142.1,115.8c0.1,0.4,0.3,0.7,0.5,1.1c3.2,5.6,6.3,11.2,9.4,16.9l4.5,8.5l4.5,8.5c2.9,5.7,5.9,11.4,8.7,17.2
			s5.5,11.6,7.8,17.6c1.3,3.5,5.1,5.4,8.7,4.4c0.3-0.1,0.6-0.2,0.8-0.3c3.8-1.5,5.7-5.7,4.2-9.5c-0.2-0.4-0.3-0.7-0.5-1.1
			c-3.3-5.5-6.2-11.3-9.1-17s-5.5-11.6-8.2-17.5l-4-8.8l-3.9-8.8c-2.6-5.9-5.1-11.8-7.5-17.8c-1.8-4.4-6.8-6.6-11.2-4.8
			S140.2,111.4,142.1,115.8L142.1,115.8z"/>
	</g>
</g>
<g id="r-forearm">
	<defs>
		<path id="SVGID_15_" d="M181.5,154c-14.9-7.2-34.2-11.7-48.1-19.2c-2.8-1.5-8.3,0.7-10.7,5.1c-0.4,0.8-0.7,1.6-0.9,2.4
			c-1,3.9,0.3,8.1,2.6,9.3c13.3,7.2,28.7,21.5,43.1,29.9c4.4,2.5,8.9,4.7,13.5,6.7c3.7,1.5,10.9,4.4,12.6,1.4c1.4-3,1.9-6.3,1.5-9.5
			c-0.4-4.9-1.6-9.7-3.6-14.2C188.4,159,186.4,156.3,181.5,154z"/>
	</defs>
	<clipPath id="SVGID_16_">
		<use xlink:href="#SVGID_15_"  style="overflow:visible;"/>
	</clipPath>
	<g class="st19">
		<path class="st2" d="M181.5,154c-14.9-7.2-34.2-11.7-48.1-19.2c-2.8-1.5-8.3,0.7-10.7,5.1c-0.4,0.8-0.7,1.6-0.9,2.4
			c-1,3.9,0.3,8.1,2.6,9.3c13.3,7.2,28.7,21.5,43.1,29.9c4.4,2.5,8.9,4.7,13.5,6.7c3.7,1.5,10.9,4.4,12.6,1.4c1.4-3,1.9-6.3,1.5-9.5
			c-0.4-4.9-1.6-9.7-3.6-14.2C188.4,159,186.4,156.3,181.5,154z"/>
		<path class="st4" d="M183.1,159c-7.3-3-14.7-5.9-22.1-8.9c-7.2-2.9-14.3-5.9-21.4-9.1c-4.1-1.9-8.2-3.9-12.3-5.9
			c-0.6-0.3-1.1,0.6-0.5,0.9c7.1,3.6,14.4,6.9,21.8,10.1c7.1,3,14.3,5.9,21.4,8.8c4.3,1.7,8.5,3.4,12.8,5.1
			C183.5,160.2,183.7,159.2,183.1,159L183.1,159z"/>
		<path class="st4" d="M189,190.7c0.2-3.6,0.6-7.2,0.4-10.8c-0.2-3.1-0.7-6.1-1.4-9.1c-0.9-4.6-2.7-9-5.4-12.8c-2-2.6-4.3-5-6.8-7.1
			c-0.5-0.4-1.2,0.3-0.7,0.7c4,3.4,7.6,7.3,9.7,12.2c0.9,2.1,1.6,4.3,2.1,6.5c0.7,2.8,1.3,5.7,1.5,8.6c0.1,3.9,0,7.9-0.4,11.8
			C188,191.3,189,191.3,189,190.7L189,190.7z"/>
	</g>
</g>
</svg>
