<?xml version="1.0" encoding="utf-8"?>
<!-- Generator: Adobe Illustrator 25.2.0, SVG Export Plug-In . SVG Version: 6.00 Build 0)  -->
<svg version="1.1" id="Layer_1" xmlns="http://www.w3.org/2000/svg" xmlns:xlink="http://www.w3.org/1999/xlink" x="0px" y="0px"
	 viewBox="0 0 247.2 493.2" style="enable-background:new 0 0 247.2 493.2;" xml:space="preserve">
<style type="text/css">
	.st0{fill:#953DBA;}
	.st1{clip-path:url(#SVGID_2_);}
	.st2{fill:#44F5A0;}
	.st3{fill:#1B8B79;}
	.st4{fill:#33D08C;}
	.st5{clip-path:url(#SVGID_4_);}
	.st6{fill:#652F99;}
	.st7{fill:#C1983D;}
	.st8{fill:#F7C517;}
	.st9{clip-path:url(#SVGID_6_);}
	.st10{clip-path:url(#SVGID_8_);}
	.st11{fill:none;stroke:#33D08C;stroke-width:0.86;stroke-miterlimit:10;}
	.st12{fill:#4D257C;}
	.st13{clip-path:url(#SVGID_10_);}
	.st14{fill:#F5FAFF;}
	.st15{fill:#022538;}
	.st16{clip-path:url(#SVGID_12_);}
	.st17{fill:#E5B94C;}
	.st18{clip-path:url(#SVGID_14_);}
	.st19{clip-path:url(#SVGID_16_);}
</style>
<path id="l-hand" class="st0" d="M31.3,144.7c2.4,2.1,9.9,7.1,9.9,7.1s3.1,2.9,2.9,5.9c-0.3,3.4-4.7,5.7-4.7,5.7
	c-5.4,1.1-10.5,3.1-15.1,6.1c-6.8,4.6-10.9,9.2-14.1,5.1s-1.8-7.4,3.2-9.6c2-0.9,3.7-1.7,5.1-2.5c-1.1,0.1-2.3,0.2-3.4,0.4
	c-8.1,1.3-13.7,3.7-14.9-1.4s1.5-7.4,7-7.3s9.4-0.6,12-0.5c0,0,8.1-0.8,7.8-1.3s-3.8-1.9-7.3-4.9s-1.3-8.7,2.1-9.7
	S28.8,142.6,31.3,144.7z"/>
<g id="l-forearm">
	<g>
		<defs>
			<path id="SVGID_1_" d="M94.2,153.4c-16.3-3.1-36.1-2.3-51.5-5.9c-3.1-0.7-7.8,2.9-8.9,7.7c-0.2,0.8-0.3,1.7-0.3,2.6
				c0.1,4,2.4,7.7,4.9,8.3c14.8,3.4,33.4,13.2,49.5,17.5c4.9,1.3,9.8,2.3,14.8,2.9c4,0.5,11.7,1.4,12.5-1.9c0.7-3,0.1-6.4-1-9.6
				c-1.7-4.6-4.1-8.9-7.2-12.7C102.2,156.4,99.5,154.4,94.2,153.4z"/>
		</defs>
		<clipPath id="SVGID_2_">
			<use xlink:href="#SVGID_1_"  style="overflow:visible;"/>
		</clipPath>
		<g class="st1">
			<path class="st2" d="M94.2,153.4c-16.3-3.1-36.1-2.3-51.5-5.9c-3.1-0.7-7.8,2.9-8.9,7.7c-0.2,0.8-0.3,1.7-0.3,2.6
				c0.1,4,2.4,7.7,4.9,8.3c14.8,3.4,33.4,13.2,49.5,17.5c4.9,1.3,9.8,2.3,14.8,2.9c4,0.5,11.7,1.4,12.5-1.9c0.7-3,0.1-6.4-1-9.6
				c-1.7-4.6-4.1-8.9-7.2-12.7C102.2,156.4,99.5,154.4,94.2,153.4z"/>
			<path class="st3" d="M109.4,166.3c-5.4-8-11.9-13.1-14.7-11.2c0,3.7,2.5,8.1,7.9,16.2s9.5,11.9,11.5,12.9
				C115.3,181.7,114.8,174.3,109.4,166.3z"/>
			<path class="st4" d="M91.1,158.2c-7.2-0.9-14.5-1.8-21.7-2.9c-6.6-1-13.2-2.2-19.7-3.4c-4.2-0.8-8.5-1.7-12.7-2.5
				c-0.6-0.1-0.9,0.8-0.3,1c7.2,1.5,14.4,2.9,21.6,4.2c6.6,1.2,13.2,2.2,19.9,3.1c4.3,0.6,8.6,1.1,12.8,1.7
				C91.7,159.4,91.7,158.4,91.1,158.2L91.1,158.2z"/>
			<path class="st4" d="M110.8,186.5c-2.3-1.4-4.3-3.2-5.9-5.3c-1.9-2.3-3.6-4.8-5.2-7.3c-1.6-2.4-3.1-4.8-4.5-7.2
				c-1.4-2.2-2.5-4.6-3.3-7.1c-0.7-2.1-1.1-4.5-0.3-6.6c0.2-0.6-0.7-0.9-1-0.3c-0.7,1.9-0.7,4-0.1,6c0.7,2.5,1.7,4.9,3.1,7.2
				c1.4,2.6,3,5.1,4.7,7.6s3.3,5.1,5.2,7.5c1.9,2.6,4.2,4.8,6.9,6.4c0.2,0.1,0.5,0.1,0.7-0.2C111.1,187,111,186.7,110.8,186.5
				L110.8,186.5z"/>
		</g>
	</g>
</g>
<g id="l-arm">
	<g>
		<defs>
			<path id="SVGID_3_" d="M150.1,105.2l-9.6-13.5l-21-1.7l-24.7,65c0,3.5,2.5,8.1,7.9,16.2c4.4,6.6,8.1,10.6,11.5,12.9
				C114.5,183.8,150.1,105.2,150.1,105.2z"/>
		</defs>
		<clipPath id="SVGID_4_">
			<use xlink:href="#SVGID_3_"  style="overflow:visible;"/>
		</clipPath>
		<g class="st5">
			<path class="st0" d="M140.5,105.8c-0.1,0.4-0.3,0.7-0.5,1.1c-3.2,5.6-6.3,11.2-9.4,16.9l-4.6,8.5l-4.5,8.5
				c-2.9,5.7-5.9,11.4-8.7,17.2s-5.5,11.6-7.8,17.6c-1.3,3.5-5.1,5.4-8.7,4.4c-0.3-0.1-0.6-0.2-0.8-0.3c-3.8-1.5-5.7-5.7-4.2-9.5
				c0.2-0.4,0.3-0.7,0.5-1.1c3.3-5.5,6.2-11.3,9.1-17s5.5-11.6,8.2-17.5l4-8.8l3.9-8.8c2.6-5.9,5.1-11.8,7.5-17.8
				c1.8-4.4,6.8-6.6,11.2-4.8S142.3,101.4,140.5,105.8L140.5,105.8z"/>
		</g>
	</g>
</g>
<g id="l-calf">
	<g>
		<path class="st0" d="M150.9,459.9c-0.3,4.6,4.6,15.4,4.9,21.3s-7.2,8.5-12.1,7.2c-1.7-0.5-2.6-2-3.1-3.8c-0.5-2.5-0.6-5.1-0.2-7.6
			l0,0c-2.9,1-5.4,2.4-11.3,6c-5.2,3-11.1,4.7-17.1,5l0,0c-2,0.1-4.1,0.1-6.1-0.2c-3.5-0.4-3-4.8-2.5-6.8c0.1-0.5,0.2-0.8,0.2-1
			c0,0,0,0,0-0.1c-4.5,0.7-9,0.7-13.5,0l-0.3-6.6c0-0.4,0-0.9,0.2-1.3c1.7-5.2,16.1-5.2,23.1-8.6c4.5-2.2,13.5-9,19.9-14.1
			c4.2-3.4,7.4-6,7.4-6l3.8-1.8l2.1-1c0.1,0.3,0.2,0.6,0.3,0.9c2.5,8.1,9.4,10,12.2,15.4C161.7,462.5,150.9,459.9,150.9,459.9z"/>
		<path class="st6" d="M95.6,474.7c0,0,12-2.2,21.4-7.5c-3.3,2-11.7,7.5-13.4,12.8c-4.5,0.7-9,0.7-13.5,0L95.6,474.7z"/>
		<path class="st6" d="M142.7,459.5c0,0-1.6,12.5-2.4,17.5c-3,1-5.4,2.4-11.3,6c-5.2,3-12.6,5-17.1,5c4.2-1.4,10.4-5.4,16.9-12
			C133.8,470.8,138.5,465.3,142.7,459.5z"/>
	</g>
	<ellipse class="st7" cx="141.6" cy="437.5" rx="9.3" ry="2.5"/>
	<path class="st8" d="M141.6,434.9c-5.2,0-9.5,1.2-9.5,2.7s4.2,2.7,9.5,2.7c5.2,0,9.5-1.2,9.5-2.7S146.8,434.9,141.6,434.9z
		 M141.6,439.4c-3.4,0-6.1-0.8-6.1-1.8s2.7-1.7,6.1-1.7c3.4,0,6.1,0.8,6.1,1.7C147.7,438.6,144.9,439.4,141.6,439.4L141.6,439.4z"/>
	<path class="st0" d="M146,448.4c0,3.5-7.4,2-7.4,2l-9.4-115.5c3.1-0.9,6.3-1.4,9.4-1.6c2.1,0,3.8,0.3,4.3,1.4
		c15.3,38.2,3,69.9,3,112.9L146,448.4z"/>
	<path class="st8" d="M151,437.5v10c0,0.1,0,0.2,0,0.3c-0.4,1.1-2.9,2-6.4,2.3c-1,0.1-2.1,0.2-3.1,0.1c-5,0-9-1.1-9.5-2.5
		c0-0.1,0-0.2,0-0.3v-10c0,1.5,4.2,2.7,9.5,2.7c1,0,2.1,0,3.1-0.1C148.3,439.7,151,438.7,151,437.5z"/>
	<path class="st8" d="M147.6,437.6c0,1-2.7,1.8-6.1,1.8s-6.1-0.8-6.1-1.8H132c0,1.5,4.2,2.7,9.5,2.7c5.2,0,9.5-1.2,9.5-2.7H147.6z"
		/>
</g>
<path id="l-thigh" class="st0" d="M156.3,249.3c-12.3,52-13.9,90.8-13.9,90.8s-1.4,9.7-6.6,9.4c-6.8-0.5-8.2-10.6-9.5-15.6
	c-2.3-8.2-4-16.5-5.1-24.9c-2.3-15.3-2.5-30.8-0.6-46.1c1.1-9.6,2.5-19.9,5.5-29.1c2.4-7.4,7.8-20.7,16.3-22.1
	c4.2,0.5,8,2.7,10.6,6.1C157.8,223.9,159.5,235.8,156.3,249.3z"/>
<g id="hips">
	<g>
		<defs>
			<path id="SVGID_5_" d="M186.9,216.7c-0.1,4.8-0.6,9.6-1.4,14.3c-6.8,33.3-17.8,38.2-27.1,38.2s-11.6-8.6-17.1-23
				c-3.5-9.5-6-19.2-7.7-29.1L186.9,216.7z"/>
		</defs>
		<clipPath id="SVGID_6_">
			<use xlink:href="#SVGID_5_"  style="overflow:visible;"/>
		</clipPath>
		<g class="st9">
			<polygon class="st2" points="184,272 128.9,272 128.9,213 192.1,213 			"/>
			<path class="st4" d="M135.3,215.2c1,1.7,1.6,3.7,1.5,5.7c0.1,1,0.1,2,0.2,3c0.1,1,0.4,2.1,0.6,3.1c1.1,4.5,2.2,8.9,3.4,13.4
				c1.2,4.3,2.4,8.7,3.9,12.9c1.4,3.8,3.1,7.4,5.3,10.7c2.4,3.8,5.4,7.3,8.8,10.3c0.5,0.4,1.2-0.3,0.7-0.7
				c-6.1-5.4-10.7-12.2-13.6-19.8c-1.6-4.1-2.7-8.4-3.9-12.6c-1.2-4.4-2.4-8.8-3.5-13.2c-0.3-1.2-0.6-2.4-0.8-3.6s-0.2-2.3-0.3-3.5
				c0-2.1-0.6-4.2-1.7-6.1C135.8,214.2,134.9,214.7,135.3,215.2L135.3,215.2z"/>
			<path class="st4" d="M170.6,216.6c-0.6,0.9-1.1,2-1.5,3c-0.7,1.6-1.2,3.3-1.8,5c-1.4,4.4-2.7,8.9-3.7,13.4
				c-1.1,4.5-1.8,9-2.3,13.6c-0.4,4.3-0.8,8.8,0,13.1c0.6,2.9,2.2,5.4,4.5,7.2c0.5,0.4,1.2-0.3,0.7-0.7c-2-1.5-3.4-3.6-4-6
				c-1-3.8-0.6-8-0.3-11.9c0.9-9.2,2.8-18.2,5.7-26.9c0.6-2,1.3-3.9,2-5.8c0.4-1.2,0.9-2.3,1.6-3.4
				C171.9,216.5,171,216.1,170.6,216.6L170.6,216.6z"/>
		</g>
	</g>
</g>
<g id="r-calf">
	<g>
		<path class="st0" d="M231.9,489.7c-2.1,0.5-4.3,0.4-6.3-0.3c-2.4-1.3-4.7-2.9-6.7-4.7l-0.1-0.1c-3.2-1.1-6.3,1.5-7.2,2.3
			c-2.7,2.3-5.9,4.1-9.4,5.1c-2.2,0.7-4.5,1-6.8,1c-2,0-2.8-3.2-3-5.3h-0.1c-3.6,0.9-10.1,0.6-13.1,0.4l-1.7-0.1
			c-0.5-1.7-1.5-5.4-0.3-7.9c2.3-5,12.2-5.7,17.2-9.2c3.3-2.3,9.5-9.1,13.7-16.5c1.3-2.4,3.1-4.5,5.2-6.1l2.8-1.9
			c3.2-0.1,6,2.4,6.3,5.6c0.4,4.2,0.6,8.4,0.5,12.6c1.9,4.9,4.7,11.2,9.9,14.2S235.5,488.4,231.9,489.7z"/>
		<path class="st6" d="M203.5,470.2c-3.8,4.1-10.8,12.2-11.4,17.6c-3.6,0.9-10.1,0.6-13.1,0.4l4.9-5.4
			C183.9,482.9,196.3,477.9,203.5,470.2z"/>
		<path class="st6" d="M218.8,484.8l-0.1-0.1c-3.2-1.1-6.3,1.5-7.2,2.3c-2.7,2.3-5.9,4.1-9.4,5.1c2.2-1.5,4.3-3.3,6.1-5.3
			c6.4-6.8,8.1-17.3,8.1-17.3S219.4,479.6,218.8,484.8z"/>
	</g>
	
		<ellipse transform="matrix(0.9998 -2.234787e-02 2.234787e-02 0.9998 -9.8333 4.9334)" class="st7" cx="215.8" cy="442.4" rx="8.9" ry="2.5"/>
	<path class="st8" d="M216,439.6c-5.2,0.1-9.4,1.4-9.3,2.9s4.3,2.6,9.5,2.5s9.4-1.4,9.3-2.9S221.1,439.5,216,439.6z M216.1,444.1
		c-3.3,0.1-6.1-0.6-6.1-1.6s2.7-1.8,6-1.9s6.1,0.6,6.1,1.6S219.4,444,216.1,444.1L216.1,444.1z"/>
	<path class="st0" d="M221.3,452.5c0.6,3.5-7,3.2-7,3.2l-27.8-113.9c2.9-1.4,6-2.4,9.2-3.1c2.1-0.4,3.8-0.3,4.5,0.7
		c21.3,35.7,14.1,69.3,21,112.2C221.2,452,221.3,452.3,221.3,452.5z"/>
	<path class="st8" d="M225.4,442.1l0.2,10c0,0.1,0,0.2,0,0.2c-0.3,1.1-2.8,2-6.2,2.5c-1,0.1-2.1,0.2-3.1,0.2
		c-4.9,0.1-8.9-0.9-9.4-2.2c0-0.1,0-0.2-0.1-0.2l-0.2-10c0,1.5,4.3,2.6,9.5,2.5c1,0,2.1-0.1,3.1-0.2
		C222.8,444.4,225.4,443.3,225.4,442.1z"/>
	<path class="st8" d="M222.1,442.2c0,1-2.7,1.8-6,1.9s-6.1-0.6-6.1-1.6l-3.4,0.1c0,1.5,4.3,2.6,9.5,2.5s9.4-1.4,9.3-2.9H222.1z"/>
</g>
<path id="r-thigh" class="st0" d="M199.6,263.8c-4.1,53.8,1.2,81.2,1.2,81.2s0.2,9.9-5.1,10.4c-6.8,0.6-9.8-9.3-12-14
	c-3.5-7.8-6.5-15.8-9-24c-5-16.4-7.7-33.4-8.1-50.5c-0.3-9.9,0.2-19.8,1.6-29.7c1.2-7.7,3.9-17.6,12.2-20.4
	c4.3,1.9,8.1,4.8,11.3,8.3C198.4,232.9,200.7,249.7,199.6,263.8z"/>
<g id="torso">
	<path class="st8" d="M154.3,79.4c3.4-0.4,6.8-0.5,10.2-0.3c3.3,0.6,6.3,2.1,8.7,4.5c0.9,0.9,3.7,4,3,6.1c-1,3-7.6,4.7-9.1,2.2
		c-3.5-5.9-18-2.2-19.2-0.3s-2-10-2-10C148.6,80.5,151.4,79.8,154.3,79.4z"/>
	<path class="st7" d="M189.7,202.9c0-5.7-13.4-10.3-29.8-10.3s-29.8,4.6-29.8,10.3s3.5,19.2,28.4,19.2
		C174.8,222.1,189.7,208.6,189.7,202.9z"/>
	<path class="st3" d="M183.5,180.1c0-12.1-20-26.2-32.8-26.2S135,168,135,180.1c2.1,5,12,11.2,28.6,11.2S182.9,184.9,183.5,180.1z"
		/>
	<path class="st0" d="M180.8,215.7l-8.9,3.5l-24.9,5.3l-11-8.9c0,0,5.6-11.6,5.6-21.2c0-2.7-0.2-6.6-0.6-10.8
		c-0.9-10.9-2.5-24.1-2.5-24.1s4.3-8.4,19.9-8.4s19.9,8.4,19.9,8.4s-3.1,25.3-3.1,34.9S180.8,215.7,180.8,215.7z"/>
	<g>
		<g>
			<defs>
				<path id="SVGID_7_" d="M183.5,180.1c-25.5,1.8-22-18.6-36.5-18.6s-7.7,14.4-12,18.6c-5.1-16.6-18.1-52.7-5.5-83.7
					c14.4-5.7,46.1-5.7,61.7,0C196.7,133,183.5,164.6,183.5,180.1z"/>
			</defs>
			<clipPath id="SVGID_8_">
				<use xlink:href="#SVGID_7_"  style="overflow:visible;"/>
			</clipPath>
			<g class="st10">
				<rect x="120.9" y="89" class="st2" width="77" height="103"/>
				<path class="st4" d="M139.6,89.8c-2.7,2.1-5.8,3.4-8.4,5.7c-1.2,0.9-2.1,2.1-2.6,3.5c-0.2,0.6-0.4,1.2-0.5,1.9
					c-1.2,4.9-1.9,9.9-2.2,15c-0.6,7.2-0.6,14.4-0.2,21.5c0.6,7.3,1.6,14.5,3,21.6c1.7,8.8,4.1,17.4,7.3,25.8
					c0.4,1.1,0.8,2.1,1.3,3.2c0.2,0.6,1.2,0.3,1-0.3c-3.4-8.3-6-16.9-7.8-25.6c-1.6-7.4-2.8-14.9-3.5-22.4
					c-0.6-6.8-0.7-13.7-0.2-20.5c0.2-5.6,0.9-11.2,2-16.7c0.4-1.6,0.6-3.4,1.6-4.7c1.1-1.3,2.4-2.4,3.8-3.2c1.4-1,3-1.8,4.4-2.8
					c0.6-0.4,1.2-0.8,1.8-1.3C140.8,90.1,140.1,89.4,139.6,89.8L139.6,89.8z"/>
				<path class="st4" d="M186.5,92.1c-1.9,2-3.5,4.1-4.9,6.5c-1.7,2.8-3.3,5.7-4.7,8.7c-2.6,5.2-4.7,10.6-6.2,16.2
					c-0.6,2.4-1,4.9-1.2,7.4c-0.4,3.3-0.6,6.7-0.9,10c-0.5,6.7-0.5,13.5-0.2,20.2c0.2,3.5,0.7,7,1,10.5c0.3,3.9,0.9,7.7,1.7,11.5
					c0.2,1,0.5,2,0.8,3.1c0.1,0.3,0.4,0.4,0.6,0.4c0.3-0.1,0.4-0.4,0.4-0.6l0,0c-1-3.8-1.8-7.7-2.2-11.7c-0.4-3.7-0.8-7.4-1.1-11.2
					c-0.4-6.4-0.5-12.9-0.1-19.3c0.2-6.2,0.8-12.4,1.9-18.6c0.5-2.2,1.1-4.4,1.9-6.5c1-2.9,2.2-5.8,3.4-8.6c1.4-3,2.8-6,4.5-8.9
					c1.4-2.5,3-4.9,4.8-7.1c0.4-0.4,0.8-0.9,1.2-1.3S187,91.6,186.5,92.1L186.5,92.1z"/>
				<polygon class="st11" points="160.4,147.1 132.4,144.2 132.4,123.5 160.4,123.5 				"/>
			</g>
		</g>
	</g>
	<path class="st8" d="M182.9,94.1c0,0-12.2,10.4,4.7,42c0,0,31-23.6,10.8-43C190.7,91.2,182.9,94.1,182.9,94.1z"/>
	<path class="st8" d="M137.8,94.1c0,0-15.8,3.7-13.1,42c0,0-16-36.6-2.4-43.1C129.9,91.2,137.8,94.1,137.8,94.1z"/>
	<path class="st8" d="M190,202.8V218c-2.3,1.9-4.9,3.4-7.6,4.6c-7.3,3.3-29.8,8.3-37.5,8.3c-7.2-2.9-14.9-7.4-14.9-12.9v-15.2
		c0,6.2,6.1,9.4,14.9,12.9c9.8-0.4,30.4-4.7,37.5-8C185.2,206.5,187.8,204.9,190,202.8z"/>
	<path class="st6" d="M140.1,94.1l16.6-3.7c0,0,20,0.5,17.5,3.7c-18.1,23.5-27.5,22-27.5,22L140.1,94.1z"/>
	<path class="st8" d="M146.3,116.2c-1.3-1.4-2.5-2.8-3.5-4.4c-1.1-1.6-2-3.3-2.7-5.1c-0.8-1.8-1.4-3.8-1.8-5.7
		c-0.4-2.1-0.5-4.3-0.4-6.4c0.2-2.4,1-4.7,2.3-6.8c1.3-2.1,3.1-4,5.1-5.4c1.9-1.3,4.1-2.4,6.4-3c2.2-0.6,4.5-1,6.8-0.9
		c2.7-0.1,4.9,2.1,5,4.8s-2.1,4.9-4.8,5h-0.4c-2.6,0.1-5.2,0.9-7.4,2.4c-0.9,0.6-1.8,1.5-2.4,2.4c-0.6,1-1.1,2.1-1.3,3.3
		c-0.7,2.9-1,5.9-0.9,8.9c0.1,3.5,0.5,6.9,1,10.3v0.1c0,0.3-0.2,0.5-0.4,0.6l0,0C146.6,116.3,146.5,116.3,146.3,116.2z"/>
	<path class="st6" d="M167.5,98.2c0,0-2.4,7.2-9.8,7.2s-10.4-7.2-10.4-7.2c0.5-7,0.5-14.1,0.1-21.2c-0.6-13.7-1.9-25.1-1.9-25.1
		h19.6c0,0-0.2,11.3,0.5,25.1C165.7,84.2,166.4,91.2,167.5,98.2z"/>
	<path class="st8" d="M166.5,91c0.6,0.6,1,1.4,1,2.2c-0.1,1.6-1.9,4.1-2.9,5.4c-4.9,6.6-11,12.4-17.9,16.9h-0.1
		c0.1,0.3,0.1,0.5,0.2,0.8c10.1,0.5,20.6-6.3,26.6-14c2-2.3,3.3-5,3.9-8c0.4-3.2-0.5-6.5-2.5-9.1C172.1,87.2,169.2,89.2,166.5,91z"
		/>
	<path class="st7" d="M187.9,133.9c0,0-2.4-13.4,0-24.6c1.9-8.7,6.5-11.3,10-11s8.1,9.2,3.4,19C197.8,124.8,187.9,133.9,187.9,133.9
		z"/>
</g>
<g id="head">
	<path class="st0" d="M184.8,31c-0.3,11.5-17,25.6-24.2,31.2c-2.2,1.7-8.1,14.3-9.4,18.3c-2.3,7.1-8.6,9.7-13.8,9.7s-7-2.3-9.4-9.3
		c-1.3-4-2.7-7.6-3.5-10.4c-0.8-2.9-2.5-5.4-4.9-7.2c-7.3-5.7-8.9-15.8-7-27.2c1.2-7.3,3.2-15,7-20.1c2.9-3.8,6.5-7,10.6-9.4l0,0
		c1.4-0.9,2.9-1.6,4.4-2.3c2.9-1.3,5.8-2.3,8.9-3c0.9-0.2,1.8-0.4,2.7-0.6c2.4-0.4,4.8-0.7,7.3-0.7c4.1-0.1,8.2,0.3,12.2,1.1
		c2.2,0.5,4.4,1.2,6.4,2.2C179.7,7,185.1,14.8,184.8,31z"/>
	<path class="st12" d="M114.6,37.7c-0.1-1.3,0.4-2.6,1.3-3.6c1-1,2.3-1.6,3.7-1.7c1.3-0.1,2.6,0.2,3.8,0.7c0.6,0.3,1.1,0.5,1.7,0.9
		c0.5,0.3,1,0.7,1.5,1.1c0.2,0.2,0.2,0.4,0.1,0.6l0,0c-0.1,0.1-0.3,0.2-0.5,0.2l0,0c-0.6-0.2-1.1-0.3-1.7-0.5l-1.6-0.4
		c-1-0.3-2-0.4-3.1-0.3c-1,0.1-1.9,0.4-2.7,0.9C116.2,36.2,115.3,36.9,114.6,37.7z"/>
	<path class="st12" d="M160.6,39.2c-1.5-0.8-3.1-1.5-4.7-2.1c-1.5-0.6-3.1-1-4.6-1.2c-1.6-0.2-3.2,0-4.7,0.4
		c-0.8,0.2-1.6,0.4-2.3,0.8c-0.8,0.3-1.5,0.7-2.3,1h-0.1c-0.3,0.1-0.5,0-0.6-0.3c-0.1-0.2,0-0.4,0.1-0.5c0.7-0.6,1.4-1.2,2.1-1.7
		c0.8-0.5,1.6-0.9,2.5-1.3c1.8-0.7,3.7-1,5.6-0.8c1.9,0.2,3.7,0.7,5.3,1.7C158.4,36.2,159.7,37.5,160.6,39.2z"/>
	<path class="st12" d="M144.5,74c-2.2,0.9-4.4,1.4-6.8,1.4c-2.4-0.1-4.8-0.6-7-1.4H144.5z"/>
	<g>
		<g>
			<defs>
				<path id="SVGID_9_" d="M129,47.7c0.7,4.8-0.6,8.6-3.1,9.9c-3.7-0.6-8.7-3.6-9.4-8.4s0.2-7.9,4.1-10
					C123.7,38.7,128.2,42.9,129,47.7z"/>
			</defs>
			<clipPath id="SVGID_10_">
				<use xlink:href="#SVGID_9_"  style="overflow:visible;"/>
			</clipPath>
			<g class="st13">
				
					<rect x="111.9" y="37.8" transform="matrix(0.2529 -0.9675 0.9675 0.2529 45.8481 154.8795)" class="st14" width="22.6" height="19.9"/>
				<circle class="st3" cx="123.4" cy="50.5" r="7.5"/>
				<circle cx="123.4" cy="50.5" r="3.5"/>
				<path class="st15" d="M125.8,58.9c0,0,7.3-9.3-0.6-17c-1.4-1.2-3.2-1.8-5-1.6c0,0-2.2,0.1-3.2,3.3c-0.7,2.5-0.6,5.2,0.3,7.6
					l-5.4-1.5l2.8-21.4l16,5l1.8,25.7L125.8,58.9z"/>
			</g>
		</g>
	</g>
	<g>
		<g>
			<defs>
				<path id="SVGID_11_" d="M142.9,47.1c-2,4.6-1.7,8.8,0.5,10.8c3.9,0.3,9.7-1.4,11.8-6c1.6-3.6,3.2-8,0.2-10.8
					C152.3,39.8,144.9,42.5,142.9,47.1z"/>
			</defs>
			<clipPath id="SVGID_12_">
				<use xlink:href="#SVGID_11_"  style="overflow:visible;"/>
			</clipPath>
			<g class="st16">
				<rect x="137.9" y="38" class="st14" width="22" height="22"/>
				<circle class="st3" cx="148.4" cy="51.5" r="7.5"/>
				<circle cx="147.9" cy="51" r="4"/>
				<path class="st15" d="M143.1,59.8c0,0-4.9-11.4,5.1-17c1.7-0.9,3.7-1,5.4-0.3c0,0,2.2,0.7,2.3,4.2c0.1,2.7-0.7,5.4-2.3,7.6
					l5.9-0.1l2.8-22.3l-17.5,0.9L136.3,58L143.1,59.8z"/>
			</g>
		</g>
	</g>
	<path class="st17" d="M166.1,13.1C158.5,17,151.4,21.6,144,26c-1.6,0.9-3.1,1.8-4.8,2.6c-1.5,0.9-3.2,1.4-4.9,1.5
		c-2.9-0.2-4.6-3.2-5.5-5.7c-1.3-3.5-2-12.7,1.5-17.8l0,0c1.4-0.9,2.9-1.6,4.4-2.3c-1.7,2.6-2.6,5.6-2.6,8.7c0,3.4,1.6,6.9,3.4,9.9
		c2.7-1.3,4.7-2.5,5.6-3c7.2-3.7,16-7.8,23.8-10.1c1.6-0.4,6-1.9,7.7,0.4C173.3,10.9,170.6,10.9,166.1,13.1z"/>
	<path class="st17" d="M172.2,3.3c-2.8,0.3-5.6,0.9-8.3,1.7c-3.8,1.1-7.4,2.6-10.9,4.3c-1.8,0.9-11,4.7-12,4.6
		c-0.8,0.3-1.8-2.6-1.2-5.1c0.2-1.1,0.5-2.1,0.9-3.2c0.6-1.7,1.6-3.2,2.9-4.4c0.9-0.2,1.8-0.4,2.7-0.6c-1.4,1.8-2.3,4-2.8,6.3
		c-0.2,0.8-0.1,1.6,0.1,2.3c0.4-0.1,1.7-0.7,2.1-0.9c1.7-0.9,3.5-1.9,5.4-2.7c3.8-1.8,7.8-3.1,11.9-4c0.9-0.2,1.9-0.4,2.8-0.5
		C168,1.6,170.2,2.3,172.2,3.3z"/>
</g>
<path id="r-hand" class="st0" d="M212.4,250.6c1.5-2.8,4.6-11.3,4.6-11.3s2.1-3.7,5.1-4.1c3.4-0.5,6.6,3.3,6.6,3.3
	c2.2,5,5.4,9.5,9.3,13.4c6,5.5,11.4,8.5,8.1,12.6s-6.8,3.4-10-1c-1.1-1.5-2.4-3-3.7-4.4c0.3,1.1,0.7,2.2,1.1,3.2
	c3.1,7.6,6.7,12.5,2.1,14.8s-7.6,0.2-8.7-5.2s-2.7-9-3.2-11.6c0,0-2.6-7.7-3-7.3s-1,4.1-3.1,8.2s-8.2,3.2-10,0.2
	S211,253.5,212.4,250.6z"/>
<g id="r-forearm">
	<g>
		<defs>
			<path id="SVGID_13_" d="M206.8,187.4c0.7,16.6,5.9,35.7,5.9,51.5c0,3.1,4.5,7,9.5,7c0.9,0,1.7-0.1,2.6-0.3c3.9-1,7-4,7-6.6
				c0-15.1,5.3-35.5,5.9-52.1c0.2-5,0-10.1-0.5-15.1c-0.4-4-1.2-11.7-4.7-11.7c-3.3,0.2-6.4,1.3-9.1,3.1c-4.1,2.7-7.7,6-10.8,9.9
				C207.9,178.9,206.5,182,206.8,187.4z"/>
		</defs>
		<clipPath id="SVGID_14_">
			<use xlink:href="#SVGID_13_"  style="overflow:visible;"/>
		</clipPath>
		<g class="st18">
			<path class="st2" d="M206.8,187.4c0.7,16.6,5.9,35.7,5.9,51.5c0,3.1,4.5,7,9.5,7c0.9,0,1.7-0.1,2.6-0.3c3.9-1,7-4,7-6.6
				c0-15.1,5.3-35.5,5.9-52.1c0.2-5,0-10.1-0.5-15.1c-0.4-4-1.2-11.7-4.7-11.7c-3.3,0.2-6.4,1.3-9.1,3.1c-4.1,2.7-7.7,6-10.8,9.9
				C207.9,178.9,206.5,182,206.8,187.4z"/>
			<path class="st3" d="M215.9,169.7c-6.6,7-10,14.6-7.6,16.8c1.3-3,3.6-7.6,10.2-14.6c4-4.3,8.6-8,13.7-10.9
				C229.6,160.4,222.5,162.6,215.9,169.7z"/>
			<path class="st4" d="M212.1,188.2c0.8,7.4,1.5,14.7,2.1,22.1c0.5,6.8,0.9,13.7,1.2,20.5c0.2,4.4,0.3,8.8,0.4,13.1
				c0,0.3,0.2,0.5,0.5,0.5s0.5-0.2,0.5-0.5c-0.2-7.4-0.4-14.8-0.8-22.2c-0.4-6.8-0.9-13.7-1.5-20.5c-0.4-4.4-0.8-8.7-1.3-13.1
				C213,187.6,212,187.6,212.1,188.2z"/>
			<path class="st4" d="M235.5,163.4c-4.7,2.3-9,5.5-12.5,9.3c-3.8,4.1-6.6,8.9-9.8,13.5c-1.8,2.7-3.9,5.2-6.3,7.4
				c-0.5,0.4,0.2,1.1,0.7,0.7c4.1-3.8,7-8.5,10.1-13.1c3-4.6,6.6-8.8,10.8-12.3c2.3-1.8,4.8-3.4,7.5-4.6
				C236.6,164,236.1,163.1,235.5,163.4L235.5,163.4z"/>
		</g>
	</g>
</g>
<g id="r-arm">
	<g>
		<defs>
			<path id="SVGID_15_" d="M187.9,133.9c-0.4-3.2-3.2-21.3,2.5-31.1c4-6.9,8.7-4,8.7-4l33,62.2c-5.1,2.9-9.8,6.5-13.7,10.9
				c-6.6,7-9,11.6-10.2,14.6C207.9,186.2,193.9,145.6,187.9,133.9z"/>
		</defs>
		<clipPath id="SVGID_16_">
			<use xlink:href="#SVGID_15_"  style="overflow:visible;"/>
		</clipPath>
		<g class="st19">
			<path class="st0" d="M180.7,113.8c0.1,0.4,0.3,0.7,0.5,1.1c3.2,5.6,6.3,11.2,9.4,16.9l4.5,8.5l4.5,8.5c2.9,5.7,5.9,11.4,8.7,17.2
				s5.5,11.6,7.8,17.6c1.3,3.5,5.1,5.4,8.7,4.4c0.3-0.1,0.6-0.2,0.8-0.3c3.8-1.5,5.7-5.7,4.2-9.5c-0.2-0.4-0.3-0.7-0.5-1.1
				c-3.3-5.5-6.2-11.3-9.1-17s-5.5-11.6-8.2-17.5l-4-8.8l-3.9-8.8c-2.6-5.9-5.1-11.8-7.5-17.8c-1.8-4.4-6.8-6.6-11.2-4.8
				S178.9,109.4,180.7,113.8L180.7,113.8z"/>
		</g>
	</g>
</g>
</svg>
