<?xml version="1.0" encoding="utf-8"?>
<!-- Generator: Adobe Illustrator 25.2.0, SVG Export Plug-In . SVG Version: 6.00 Build 0)  -->
<svg version="1.1" id="Layer_1" xmlns="http://www.w3.org/2000/svg" xmlns:xlink="http://www.w3.org/1999/xlink" x="0px" y="0px"
	 viewBox="0 0 289 453.6" style="enable-background:new 0 0 289 453.6;" xml:space="preserve">
<style type="text/css">
	.st0{fill:#953DBA;}
	.st1{fill:#652F99;}
	.st2{fill:#C1983D;}
	.st3{fill:#F7C517;}
	.st4{fill:#44F5A0;}
	.st5{fill:#1B8B79;}
	.st6{clip-path:url(#SVGID_2_);}
	.st7{fill:#33D08C;}
	.st8{clip-path:url(#SVGID_4_);}
	.st9{clip-path:url(#SVGID_6_);}
	.st10{clip-path:url(#SVGID_8_);}
	.st11{clip-path:url(#SVGID_10_);}
	.st12{fill:none;stroke:#33D08C;stroke-width:1.01;stroke-miterlimit:10;}
	.st13{clip-path:url(#SVGID_12_);}
	.st14{fill:#F5FAFF;}
	.st15{fill:#022538;}
	.st16{clip-path:url(#SVGID_14_);}
	.st17{fill:#E5B94C;}
	.st18{fill:#4D257C;}
	.st19{clip-path:url(#SVGID_16_);}
</style>
<path id="l-hand" class="st0" d="M34.8,69.8c1.6,2.7,7.1,9.9,7.1,9.9s2,3.7,0.8,6.6c-1.3,3.1-6.3,3.9-6.3,3.9
	C31,89.4,25.5,89.7,20.2,91c-7.9,2.2-13.2,5.2-15,0.3s0.7-7.5,6.1-8c2.1-0.2,4-0.5,5.7-0.8c-1.1-0.3-2.2-0.6-3.3-0.8
	C5.6,80.4-0.5,80.9,0,75.7s3.8-6.6,9-4.6s9.1,2.5,11.6,3.4c0,0,7.9,1.8,7.8,1.3s-3-3-5.4-6.9s1.6-8.6,5.1-8.5S33.1,67.1,34.8,69.8z"
	/>
<g id="l-calf">
	<g>
		<path class="st0" d="M168.5,389.1c-0.3,4.6,4.6,15.6,5,21.6s-7.3,8.6-12.3,7.3c-1.8-0.5-2.7-2-3.1-3.9c-0.5-2.5-0.6-5.1-0.2-7.7
			h-0.1c-3,1-5.4,2.4-11.4,6.1c-5.3,3-11.2,4.7-17.2,5l0,0c-2.1,0.1-4.1,0.1-6.2-0.2c-3.5-0.4-3-4.9-2.6-6.9c0.1-0.5,0.2-0.8,0.2-1
			c0,0,0,0,0-0.1c-4.5,0.7-9.1,0.7-13.6,0l-0.3-6.6c0-0.4,0-0.9,0.2-1.3c1.7-5.3,16.3-5.3,23.4-8.6c4.6-2.2,13.6-9.1,20.1-14.2
			c4.3-3.4,7.4-6,7.4-6l3.9-1.9l2.1-1c0.1,0.3,0.2,0.6,0.3,0.9c2.6,8.2,9.5,10.1,12.4,15.5C179.4,391.8,168.5,389.1,168.5,389.1z"/>
		<path class="st1" d="M112.6,404.3c0,0,12.1-2.2,21.6-7.6c-3.3,2-11.8,7.6-13.5,12.9c-4.5,0.7-9.1,0.7-13.6,0L112.6,404.3z"/>
		<path class="st1" d="M160.2,388.8c0,0-1.7,12.6-2.4,17.7c-3,1-5.4,2.4-11.4,6.1c-5.3,3-11.2,4.6-17.2,4.9
			c6.4-1.3,10.5-5.3,17.1-12C151.2,400.3,155.9,394.7,160.2,388.8z"/>
	</g>
	<ellipse class="st2" cx="158.9" cy="367.1" rx="9.5" ry="2.5"/>
	<path class="st3" d="M158.9,364.4c-5.2,0-9.5,1.2-9.5,2.7s4.2,2.7,9.5,2.7c5.2,0,9.5-1.2,9.5-2.7S164.1,364.4,158.9,364.4z
		 M158.9,368.9c-3.4,0-6-0.8-6-1.8s2.7-1.7,6-1.7c3.3,0,6.1,0.8,6.1,1.7S162.3,368.9,158.9,368.9L158.9,368.9z"/>
	<path class="st0" d="M163.4,378.1c0,3.6-7.4,2-7.4,2l-9.5-116.8c3.1-0.9,6.3-1.4,9.5-1.6c2.1,0,3.9,0.3,4.3,1.4
		c15.4,38.6,3,70.7,3.1,114.1L163.4,378.1z"/>
	<path class="st3" d="M168.4,367.1v10c0,0.1,0,0.2,0,0.3c-0.4,1.1-2.9,2-6.4,2.3c-1,0.1-2.1,0.2-3.1,0.1c-4.9,0-9-1.1-9.5-2.5
		c0-0.1,0-0.2,0-0.3v-10c0,1.5,4.2,2.7,9.5,2.7c1,0,2.1,0,3.1-0.2C165.7,369.3,168.4,368.3,168.4,367.1z"/>
	<path class="st3" d="M165,367.1c0,1-2.8,1.8-6.1,1.8c-3.4,0-6-0.8-6-1.8h-3.4c0,1.5,4.2,2.7,9.5,2.7c5.2,0,9.5-1.2,9.5-2.7H165z"/>
</g>
<g id="r-calf">
	<g>
		<path class="st0" d="M218.4,386.2c2.9-5.4,9.8-7.4,12.4-15.5c0.1-0.3,0.2-0.6,0.3-0.9l2.1,1l3.9,1.9c0,0,3.2,2.6,7.4,6
			c6.5,5.1,15.5,12,20.1,14.2c7.1,3.4,21.7,3.4,23.4,8.6c0.1,0.4,0.2,0.9,0.2,1.3l-0.3,6.6c-4.5,0.7-9.1,0.7-13.6,0c0,0,0,0,0,0.1
			c0,0.2,0.1,0.5,0.2,1c0.5,2,1,6.5-2.5,6.9c-2,0.2-4.1,0.3-6.2,0.2l0,0c-6.1-0.3-12-2-17.2-5c-6-3.6-8.4-5.1-11.4-6.1h-0.1
			c0.4,2.6,0.3,5.2-0.2,7.7c-0.5,1.9-1.4,3.4-3.1,3.9c-5,1.3-12.6-1.3-12.3-7.3s5.3-16.9,5-21.6
			C226.4,389.1,215.4,391.8,218.4,386.2z"/>
		<path class="st1" d="M287.7,409.6c-4.5,0.7-9.1,0.7-13.6,0c-1.7-5.3-10.2-10.9-13.5-12.9c9.6,5.4,21.6,7.6,21.6,7.6L287.7,409.6z"
			/>
		<path class="st1" d="M248.6,405.6c6.6,6.6,10.7,10.6,17.1,12c-6.1-0.3-12-1.9-17.2-4.9c-6-3.7-8.4-5.1-11.4-6.1
			c-0.7-5.1-2.4-17.7-2.4-17.7C238.9,394.7,243.6,400.3,248.6,405.6z"/>
	</g>
	<ellipse class="st2" cx="235.9" cy="367.1" rx="9.5" ry="2.5"/>
	<path class="st3" d="M226.4,367.1c0,1.5,4.2,2.7,9.5,2.7c5.2,0,9.5-1.2,9.5-2.7s-4.2-2.7-9.5-2.7
		C230.7,364.4,226.4,365.6,226.4,367.1z M235.9,368.9c-3.3,0-6.1-0.8-6.1-1.8s2.8-1.7,6.1-1.7c3.3,0,6,0.8,6,1.7
		S239.2,368.9,235.9,368.9L235.9,368.9z"/>
	<path class="st0" d="M231.4,377.2c0.1-43.5-12.3-75.6,3.1-114.1c0.4-1.1,2.2-1.5,4.3-1.4c3.2,0.2,6.4,0.8,9.5,1.6l-9.5,116.8
		c0,0-7.4,1.5-7.4-2L231.4,377.2z"/>
	<path class="st3" d="M232.7,369.6c1,0.1,2.1,0.2,3.1,0.2c5.2,0,9.5-1.2,9.5-2.7v10c0,0.1,0,0.2,0,0.3c-0.5,1.4-4.5,2.5-9.5,2.5
		c-1,0-2.1,0-3.1-0.1c-3.5-0.3-6-1.2-6.4-2.3c0-0.1,0-0.2,0-0.3v-10C226.4,368.3,229.1,369.3,232.7,369.6z"/>
	<path class="st3" d="M226.4,367.1c0,1.5,4.2,2.7,9.5,2.7c5.2,0,9.5-1.2,9.5-2.7H242c0,1-2.7,1.8-6,1.8c-3.4,0-6.1-0.8-6.1-1.8
		H226.4z"/>
</g>
<g id="l-thigh">
	<path class="st0" d="M191.8,254.5c-12.8,6.6-25.5,14.6-29.4,21.2c0,0-6.7-0.6-9.3-2.3c-6.7-4.2-7.6-10-6.5-13.7
		c3.6-12.1,3-15.9,6-22.7c2.7-5.9,6.1-9.5,13.7-16.1c3.4-3,9.3-4,15.5-2.1C181.8,218.9,196.9,251.8,191.8,254.5z"/>
	<path class="st1" d="M149.9,267.3c0.6,1.3,1.5,2.4,2.6,3.3c0.5,0.4,1.2,0.8,1.3,0.6c0.4-0.2,0.7-0.6,0.9-1c0.8-1.2,1.5-2.4,2.1-3.7
		s1.3-2.6,2-4c0.1,1.5-0.1,3.1-0.5,4.6c-0.4,1.5-1.1,2.9-1.9,4.2c-0.3,0.4-0.5,0.7-0.9,1c-0.9,0.9-2.2,0.9-3.2,0.2
		c-0.3-0.3-0.7-0.5-0.9-0.9C150.4,270.5,149.8,268.9,149.9,267.3z"/>
</g>
<g id="l-forearm">
	<path class="st4" d="M91.5,98.3c-14.4-8.1-33.4-13.8-46.8-22.1c-2.7-1.7-8.3,0.2-11,4.4c-0.4,0.7-0.8,1.5-1.1,2.3
		c-1.2,3.8-0.2,8.1,2,9.5c12.9,8,27.4,23.2,41.2,32.5c4.2,2.8,8.6,5.3,13.1,7.5c3.6,1.7,10.6,5.1,12.4,2.2c1.6-2.9,2.3-6.1,2.1-9.4
		c-0.1-4.9-1.1-9.8-2.7-14.4C98.1,103.8,96.2,101,91.5,98.3z"/>
	<path class="st5" d="M101.8,115.4c-2.5-9.3-7.1-16.2-10.3-15.4c1.9,2.7,4.5,7.1,7,16.4c1.6,5.7,2.3,11.5,2,17.4
		C102.4,132,104.3,124.7,101.8,115.4z"/>
	<g>
		<defs>
			<path id="SVGID_1_" d="M91.5,98.3c-14.4-8.1-33.4-13.8-46.8-22.1c-2.7-1.7-8.3,0.2-11,4.4c-0.4,0.7-0.8,1.5-1.1,2.3
				c-1.2,3.8-0.2,8.1,2,9.5c12.9,8,27.4,23.2,41.2,32.5c4.2,2.8,8.6,5.3,13.1,7.5c3.6,1.7,10.6,5.1,12.4,2.2
				c1.6-2.9,2.3-6.1,2.1-9.4c-0.1-4.9-1.1-9.8-2.7-14.4C98.1,103.8,96.2,101,91.5,98.3z"/>
		</defs>
		<clipPath id="SVGID_2_">
			<use xlink:href="#SVGID_1_"  style="overflow:visible;"/>
		</clipPath>
		<g class="st6">
			<path class="st7" d="M88,102.4c-6.7-3.2-13.4-6.5-20-9.9c-6.1-3.2-12.1-6.4-18-9.8c-3.8-2.2-7.6-4.3-11.4-6.6
				c-0.2-0.1-0.5-0.1-0.7,0.2c-0.1,0.2-0.1,0.5,0.2,0.7C44.5,80.7,51,84.4,57.5,88c6,3.3,12.1,6.5,18.2,9.5c3.9,2,7.8,3.9,11.8,5.8
				C88,103.6,88.5,102.7,88,102.4L88,102.4z"/>
			<path class="st7" d="M96.7,135.4c0.6-5.8,0-11.6-1.8-17.1c-1.5-5-4-9.5-6-14.3c-1.2-2.8-2.2-5.8-2.8-8.8c-0.1-0.6-1.1-0.4-1,0.3
				c1,5.1,3.2,9.9,5.4,14.6c2.4,5,4.1,10.2,5.1,15.7c0.5,3.2,0.5,6.5,0.1,9.8C95.6,136,96.6,136,96.7,135.4L96.7,135.4z"/>
		</g>
	</g>
</g>
<g id="r-thigh">
	<path class="st0" d="M204,254.5c12.8,6.6,25.5,14.6,29.4,21.2c0,0,6.7-0.6,9.3-2.3c6.7-4.2,7.6-10,6.5-13.7
		c-3.6-12.1-3-15.9-6.1-22.7c-2.7-5.9-6.1-9.5-13.7-16.1c-3.4-3-9.3-4-15.5-2.1C213.9,218.9,198.8,251.8,204,254.5z"/>
	<path class="st1" d="M245.8,267.3c0.1,1.6-0.5,3.2-1.5,4.4c-0.3,0.3-0.6,0.6-0.9,0.9c-0.5,0.4-1,0.5-1.6,0.5
		c-0.6,0-1.2-0.3-1.6-0.7c-0.3-0.3-0.6-0.6-0.9-1c-0.9-1.3-1.5-2.7-1.9-4.2c-0.4-1.5-0.6-3-0.5-4.6c0.7,1.4,1.3,2.7,2,4
		s1.4,2.5,2.1,3.7c0.2,0.4,0.5,0.8,0.9,1c0.1,0.1,0.8-0.3,1.3-0.6C244.4,269.7,245.2,268.6,245.8,267.3z"/>
</g>
<g id="l-arm">
	<defs>
		<path id="SVGID_3_" d="M174.2,124.1l6.4-15.3l-9.7-18.8L91.5,100c0.9,1.1,3.9,5.6,6.7,15.4c1.9,6,2.6,12.2,2.3,18.4
			C106.3,133.9,174.2,124.1,174.2,124.1z"/>
	</defs>
	<clipPath id="SVGID_4_">
		<use xlink:href="#SVGID_3_"  style="overflow:visible;"/>
	</clipPath>
	<g class="st8">
		<path class="st0" d="M168.6,116.3c-0.4,0.1-0.8,0.1-1.2,0.1c-6.4,0.2-12.9,0.6-19.3,0.9l-9.6,0.6l-9.6,0.7
			c-6.4,0.5-12.8,1-19.2,1.7s-12.8,1.5-19.1,2.7c-3.7,0.7-7.2-1.5-8.4-5c-0.1-0.3-0.2-0.6-0.2-0.8c-0.7-4,1.9-7.8,5.9-8.6
			c0,0,0,0,0,0c0.4-0.1,0.8-0.1,1.2-0.1c6.4-0.1,12.9-0.6,19.2-1.3s12.8-1.5,19.2-2.2l9.6-1.3l9.6-1.3c6.4-0.9,12.7-1.9,19.1-3
			c4.7-1,9.2,2.1,10.2,6.7c1,4.7-2.1,9.2-6.7,10.2C168.9,116.3,168.8,116.3,168.6,116.3L168.6,116.3z"/>
	</g>
</g>
<g id="r-arm">
	<defs>
		<path id="SVGID_5_" d="M211.6,109.3l9.6-13.5l21-1.7l30.5,63.9c-5.1,2.9-9.7,6.5-13.7,10.9c-6.6,7-9,11.6-10.2,14.6
			c-0.4-0.4-0.6-0.9-0.7-1.4L211.6,109.3z"/>
	</defs>
	<clipPath id="SVGID_6_">
		<use xlink:href="#SVGID_5_"  style="overflow:visible;"/>
	</clipPath>
	<g class="st9">
		<path class="st0" d="M221.2,109.8c0.1,0.4,0.3,0.7,0.5,1.1c3.2,5.6,6.3,11.2,9.4,16.9l4.5,8.5l4.5,8.5c2.9,5.7,5.9,11.4,8.7,17.2
			s5.5,11.6,7.8,17.6c1.3,3.5,5.1,5.4,8.7,4.4c0.3-0.1,0.6-0.2,0.8-0.3c3.8-1.5,5.7-5.7,4.2-9.5c-0.2-0.4-0.3-0.7-0.5-1.1
			c-3.3-5.5-6.2-11.3-9.1-17s-5.5-11.6-8.2-17.5l-4-8.8l-3.9-8.8c-2.6-5.9-5.1-11.8-7.5-17.8c-1.8-4.4-6.8-6.6-11.2-4.8
			S219.3,105.5,221.2,109.8L221.2,109.8z"/>
	</g>
</g>
<g id="hips">
	<defs>
		<path id="SVGID_7_" d="M222.3,216.5c0,0-1.3,4.4-3,10.1c-0.9,3.1-3.9,9.1-7,20.2c-2.2,7.8-5.4,21.8-14.8,21.8s-13-15.4-14.8-21.8
			c-3.7-13.2-6.2-17.5-7.2-20.8c-1.6-5.4-2.8-9.6-2.8-9.6H222.3z"/>
	</defs>
	<clipPath id="SVGID_8_">
		<use xlink:href="#SVGID_7_"  style="overflow:visible;"/>
	</clipPath>
	<g class="st10">
		<rect x="168.4" y="213.5" class="st4" width="55" height="59"/>
		<path class="st7" d="M174.4,215.2c2.5,3.6,3.4,7.8,4.4,11.9c1.1,4.4,2.6,8.8,4.1,13.1s2.8,8.5,4,12.8c1,3.7,2.2,7.3,3.8,10.8
			c1.8,4,4.4,7.5,7.6,10.4c0.5,0.4,1.2-0.3,0.7-0.7c-5.9-5.2-8.8-12.6-10.9-20c-1.2-4.2-2.5-8.4-3.9-12.6s-3-8.6-4.1-13
			c-1.2-4.6-2.1-9.3-4.8-13.3C174.9,214.1,174,214.7,174.4,215.2L174.4,215.2z"/>
		<path class="st7" d="M219.4,214.7c-2.4,3.5-3.4,7.6-4.4,11.6c-1.1,4.4-2.5,8.8-4,13.1s-2.9,8.5-4,12.8c-1,3.7-2.2,7.4-3.7,10.9
			c-1.7,4-4.3,7.6-7.5,10.5c-0.5,0.4,0.2,1.1,0.7,0.7c5.9-5.2,8.8-12.5,10.9-19.8c1.2-4.2,2.4-8.4,3.9-12.6c1.5-4.3,3-8.6,4.2-13.1
			c1.3-4.7,2.1-9.5,4.9-13.6C220.7,214.7,219.9,214.2,219.4,214.7L219.4,214.7z"/>
	</g>
</g>
<g id="torso">
	<ellipse class="st2" cx="197.4" cy="203" rx="30" ry="10.5"/>
	<path class="st5" d="M221,180.1c0-12.1-10.4-23.2-23.1-23.2s-23.1,11.1-23.1,23.2c2.1,5,6.5,10,23.1,10S218.1,186.9,221,180.1z"/>
	<path class="st0" d="M220.1,215.7l-8.9,3.5l-13.4,5.3l-22.6-8.9c0,0,5.6-11.6,5.6-21.2c0-2.7-0.2-6.6-0.6-10.8
		c-0.9-10.9-2.5-24.1-2.5-24.1s4.3-8.4,19.9-8.4s19.9,8.4,19.9,8.4s-3.1,25.3-3.1,34.9S220.1,215.7,220.1,215.7z"/>
	<g>
		<defs>
			<path id="SVGID_9_" d="M221,180.1c-10,0-8.6-18.6-23.1-18.6s-13.1,18.6-23.1,18.6c0-16.1-13.6-47.8-7.7-83.7
				c14.4-5.7,46.1-5.8,61.7,0C234.2,133,221,164.6,221,180.1z"/>
		</defs>
		<clipPath id="SVGID_10_">
			<use xlink:href="#SVGID_9_"  style="overflow:visible;"/>
		</clipPath>
		<g class="st11">
			<rect x="158.4" y="89.5" class="st4" width="77" height="103"/>
			<path class="st7" d="M177.2,89.8c-4.5,3.6-6.4,9.2-7.2,14.7c-0.4,3.2-0.6,6.5-0.6,9.8c0,3.3,0,6.6,0.2,9.8
				c0.4,6.6,1.2,13.1,2.4,19.6c1.1,6.6,2.3,13.1,3,19.7c0.7,7.4,0.9,14.9,1.1,22.3c0,0.6,1,0.6,1,0c-0.1-6.6-0.3-13.1-0.8-19.6
				s-1.6-12.9-2.7-19.3s-2.2-12.9-2.7-19.4c-0.5-6.5-0.6-13-0.2-19.4c0.4-6.4,2-13.3,7.2-17.5C178.4,90.1,177.7,89.4,177.2,89.8
				L177.2,89.8z"/>
			<path class="st7" d="M217.8,90.6c4.6,3.7,6.4,9.5,7,15.2c0.3,3.2,0.5,6.4,0.4,9.6c0,3.3-0.1,6.6-0.2,9.8
				c-0.8,13-4.1,25.6-5.4,38.6c-0.7,7.4-0.9,14.7-1,22.1c0,0.6,1,0.6,1,0c0.1-6.6,0.3-13.3,0.8-19.9s1.6-13.2,2.8-19.8
				s2.2-13,2.7-19.6c0.5-6.6,0.5-13.2,0-19.7c-0.5-6.3-2.3-13-7.4-17.1C218,89.4,217.3,90.1,217.8,90.6L217.8,90.6z"/>
			<rect x="178.9" y="127" class="st12" width="38" height="21"/>
		</g>
	</g>
	<path class="st7" d="M208.9,94.7c0,0-3.6-2.2-11.1-2.2s-11.1,2.2-11.1,2.2l1.3-11.3c0,0,2.4-0.7,9.8-0.7s9.4,0.6,9.4,0.6
		L208.9,94.7z"/>
	<path class="st2" d="M197.9,116.2c0,0,13.9-3,15.6-18.9s-25.6-11.4-28.7-7C181.3,95.3,178.7,105.4,197.9,116.2z"/>
	<polygon class="st1" points="179.1,96.2 197.4,94.1 215.6,95.9 198,117.1 	"/>
	<path class="st1" d="M208,109.2c0,0-2.8,7.3-10.1,7.3s-10.1-7.3-10.1-7.3c0.8-7.1,1.1-14.2,1-21.3c0-13.9-0.7-25.3-0.7-25.3h19.6
		c0,0-0.7,11.4-0.7,25.3C206.8,95,207.2,102.1,208,109.2z"/>
	<path class="st3" d="M217.5,99.1c-0.5,2-1.3,3.9-2.4,5.6c-1,1.6-2.2,3.1-3.5,4.5c-1.2,1.4-2.6,2.7-4.1,3.8c-2.9,2.3-6.4,3.8-10,4.4
		c-0.1,0-0.1,0-0.2,0l0,0c0,0-0.1,0-0.1,0c-0.2,0-0.3-0.2-0.3-0.3c0-0.3,0.1-0.5,0.3-0.7l0,0l0,0h0.1c1.4-0.8,2.7-1.8,3.9-2.9
		c1.2-1.1,2.3-2.3,3.2-3.6c1.3-1.7,2.3-3.6,3.1-5.5c0.4-1,0.8-1.9,1.1-2.9c1-2.8,1.2-5.6,0.4-7.4c-0.2-0.7-0.7-1.3-1.4-1.6
		c-0.2-0.1-0.4-0.2-0.7-0.2c0-1.8-0.1-3.8-0.1-5.9c0-1.5,0-3.1,0-4.5l0.9,0.2c2.5,0.5,4.9,1.7,6.8,3.5c1.8,1.9,3,4.3,3.4,6.8
		C218.3,94.6,218.1,96.9,217.5,99.1z"/>
	<path class="st3" d="M198.2,116.8c-0.1,0.2-0.2,0.3-0.4,0.3c0,0-0.1,0-0.1,0h-0.1c-3.5-0.6-6.7-2-9.5-4.2c-1.4-1.1-2.7-2.3-3.9-3.6
		c-1.2-1.3-2.3-2.8-3.3-4.3c-1-1.7-1.8-3.5-2.3-5.3c-0.6-2.1-0.7-4.3-0.4-6.4c0.4-2.4,1.5-4.7,3.2-6.5c1.8-1.7,4-2.8,6.4-3.3l1-0.2
		c0,1.4,0,2.8,0,4.3c0,2,0,3.8-0.1,5.6c-0.3,0-0.5,0.1-0.8,0.3c-0.6,0.3-1.1,0.9-1.3,1.5c-0.7,1.7-0.6,4.4,0.4,7
		c0.3,1.1,0.7,2.1,1.2,3.1c0.8,1.7,1.7,3.4,2.8,4.9c0.9,1.2,1.9,2.4,3.1,3.4c1.1,1.1,2.4,2,3.7,2.8h0.1h0.1
		C198.2,116.2,198.3,116.6,198.2,116.8C198.2,116.8,198.2,116.8,198.2,116.8z"/>
	<path class="st3" d="M227.4,218c-5.3,5.1-22.6,9.9-30,12.9c-7.1-2.9-25.3-8.4-30-12.9v-15.2c4.7,5.8,21.3,9.4,30,12.9
		c8.2-3.4,24.2-6.8,30-12.9V218z"/>
	<path class="st3" d="M220.4,94.1c0,0,10.8,9.7,8.1,42c0,0,15.7-32.1,7.4-43C228.2,91.2,220.4,94.1,220.4,94.1z"/>
	<path class="st3" d="M175.3,94.1c0,0-10.8,9.7-8.1,42c0,0-15.7-32.1-7.4-43C167.4,91.2,175.3,94.1,175.3,94.1z"/>
	<path class="st3" d="M227.4,202.8V218c-2.3,1.9-4.9,3.4-7.6,4.6c-7.3,3.3-17.2,6.3-22.4,8.3c-7.1-2.9-25.3-8.4-30-12.9v-15.2
		c4.7,5.8,21.3,9.4,30,12.9c5.7-2.3,15.2-4.7,22.4-8C222.6,206.6,225.2,204.9,227.4,202.8z"/>
</g>
<g id="head">
	<path class="st0" d="M219.2,59.1c-2.7,1.7-4.7,4.2-5.8,7.2c-1,2.8-2.6,6.4-4.1,10.4c-2.8,7.1-5.1,11.3-11.3,11.3
		s-8.5-4.3-11.3-11.3c-1.6-4-3.2-7.6-4.2-10.4c-1.1-3-3.2-5.6-5.9-7.2c-8.8-5.7-10-15.8-8.4-27.2C170.9,13,180.5,0,197.9,0
		s27.5,13.4,29.7,32C229,43.3,227.9,53.4,219.2,59.1z"/>
	<g>
		<defs>
			<path id="SVGID_11_" d="M190.9,46c2,4.6,1.7,8.8-0.5,10.8c-3.9,0.3-9.8-1.4-11.8-6s-1.9-8,1.5-11.1
				C183.2,38.4,188.9,41.4,190.9,46z"/>
		</defs>
		<clipPath id="SVGID_12_">
			<use xlink:href="#SVGID_11_"  style="overflow:visible;"/>
		</clipPath>
		<g class="st13">
			<rect x="174.4" y="35.5" class="st14" width="21" height="24"/>
			<circle class="st5" cx="185.9" cy="50" r="7.5"/>
			<circle cx="185.4" cy="50.5" r="4"/>
			<path class="st15" d="M190.7,58.7c0,0,4.9-11.4-5.1-17c-1.7-0.8-3.7-0.9-5.4-0.3c0,0-2.2,0.7-2.3,4.2c-0.1,2.7,0.7,5.4,2.3,7.6
				l-5.9-0.2l-2.8-22.3l17.5,0.9l8.6,25.4L190.7,58.7z"/>
		</g>
	</g>
	<g>
		<defs>
			<path id="SVGID_13_" d="M204.9,46c-2,4.6-1.7,8.8,0.5,10.8c3.8,0.3,9.8-1.4,11.8-6s2-7.7-1.5-11.1
				C212.5,38.4,206.9,41.4,204.9,46z"/>
		</defs>
		<clipPath id="SVGID_14_">
			<use xlink:href="#SVGID_13_"  style="overflow:visible;"/>
		</clipPath>
		<g class="st16">
			<rect x="200.4" y="36.5" class="st14" width="22" height="22"/>
			<circle class="st5" cx="209.9" cy="50" r="7.5"/>
			<circle cx="210.4" cy="50.5" r="4"/>
			<path class="st15" d="M205.1,58.7c0,0-4.9-11.4,5.1-17c1.7-0.9,3.7-1,5.4-0.3c0,0,2.2,0.7,2.3,4.2c0.1,2.7-0.7,5.4-2.3,7.6
				l5.9-0.1l2.8-22.3l-17.5,0.9l-8.6,25.4L205.1,58.7z"/>
		</g>
	</g>
	<path class="st17" d="M179.6,11.4c0.8-0.2,1.6-0.2,2.3-0.1c0.7,0.1,1.3,0.3,2,0.5c1.1,0.4,2.2,0.9,3.2,1.5c1.8,1.1,3.5,2.2,5.1,3.5
		c1.5,1.2,2.9,2.4,4.2,3.3c0.5,0.4,1,0.7,1.5,1c0.4,0.2,0.5,0.1-0.2,0s-0.6,0.2-0.2,0c0.6-0.3,1.1-0.6,1.6-1
		c1.3-0.9,2.7-2.1,4.2-3.3c1.6-1.3,3.3-2.5,5.1-3.5c1-0.6,2.1-1.1,3.2-1.5c0.7-0.2,1.3-0.4,2-0.5c0.8-0.1,1.6-0.1,2.3,0.1l0.4,0.1
		c1,0.3,1.6,1.5,1.3,2.5c-0.2,0.8-0.9,1.3-1.7,1.4c-0.6,0.1-1.1,0.3-1.6,0.7c-0.7,0.5-1.4,1-2,1.6c-1.4,1.2-2.7,2.6-4,4
		s-2.7,2.8-4.3,4.2c-0.8,0.7-1.7,1.4-2.6,1.9c-2.2,1.6-5.2,1.6-7.5,0c-0.9-0.6-1.8-1.2-2.6-1.9c-1.6-1.4-2.9-2.8-4.3-4.2
		s-2.6-2.8-4-4c-0.6-0.6-1.3-1.1-2-1.6c-0.5-0.3-1-0.6-1.6-0.6c-1.1-0.1-1.9-1.1-1.8-2.2c0.1-0.8,0.6-1.5,1.4-1.7L179.6,11.4z"/>
	<path class="st17" d="M186.7,3.4c0.8-0.2,1.7-0.1,2.5,0.1c0.3,0.1,0.7,0.2,1,0.3c0.3,0.1,0.6,0.3,0.9,0.4c1.1,0.6,2.1,1.2,3.1,1.9
		c1,0.6,1.8,1.3,2.6,1.7c0.2,0.1,0.4,0.2,0.5,0.3l0.2,0.1l0.2,0.1c0.3,0.1,0.3,0,0.1,0s-0.2,0.1,0,0l0.2-0.1l0.2-0.1
		c0.1-0.1,0.3-0.2,0.5-0.3c0.8-0.4,1.6-1.1,2.6-1.7c1-0.7,2-1.3,3.1-1.9c0.3-0.1,0.6-0.3,0.9-0.4c0.3-0.1,0.7-0.3,1-0.3
		c0.8-0.2,1.7-0.3,2.5-0.1l0.2,0c0.7,0.1,1.1,0.8,1,1.4c-0.1,0.5-0.5,0.9-1.1,1c-0.8,0.2-1.6,0.6-2.3,1.2c-0.8,0.7-1.6,1.4-2.5,2.2
		s-1.7,1.6-2.6,2.3c-0.2,0.2-0.5,0.4-0.8,0.5c-0.3,0.2-0.6,0.3-0.9,0.5c-1.3,0.8-3,0.8-4.3,0c-0.3-0.1-0.6-0.3-0.8-0.5
		c-0.3-0.2-0.5-0.3-0.8-0.5c-1-0.7-1.8-1.5-2.6-2.3S189.8,7.6,189,7c-0.6-0.6-1.4-1-2.2-1.2c-0.7,0-1.2-0.6-1.2-1.2
		c0-0.6,0.4-1,0.9-1.1L186.7,3.4z"/>
	<path class="st18" d="M206.4,69.5c-2.6,0.9-5.4,1.4-8.1,1.5c-2.9-0.1-5.7-0.6-8.4-1.4L206.4,69.5z"/>
	<path class="st18" d="M172.4,40.2c0.5-1.6,1.6-3,3-3.9c1.5-0.9,3.1-1.4,4.8-1.5c1.7-0.1,3.3,0.1,4.9,0.6c0.8,0.3,1.5,0.6,2.3,0.9
		s1.4,0.8,2.1,1.2c0.2,0.2,0.3,0.5,0.1,0.7c-0.1,0.2-0.3,0.2-0.5,0.2H189c-0.8-0.2-1.5-0.3-2.2-0.6s-1.5-0.3-2.2-0.4
		c-0.7-0.1-1.4-0.2-2.1-0.2c-0.4,0-0.7-0.1-1.1-0.1s-0.7,0-1.1,0c-1.4,0.1-2.8,0.4-4.1,0.9C174.9,38.6,173.6,39.3,172.4,40.2z"/>
	<path class="st18" d="M223.5,40.2c-1.2-0.9-2.6-1.5-4-2.1c-1.3-0.5-2.7-0.8-4.1-0.9c-0.4,0-0.7,0-1.1,0s-0.7,0-1.1,0.1
		c-0.7,0-1.4,0.1-2.1,0.2c-0.7,0.1-1.4,0.3-2.2,0.4s-1.5,0.4-2.2,0.6h-0.1c-0.3,0-0.5-0.1-0.6-0.4c0-0.2,0-0.4,0.2-0.5
		c0.7-0.4,1.4-0.8,2.1-1.2c0.7-0.3,1.5-0.6,2.3-0.9c1.6-0.5,3.3-0.7,4.9-0.6c1.7,0.1,3.4,0.6,4.8,1.5
		C221.9,37.2,223,38.5,223.5,40.2z"/>
</g>
<g id="r-forearm">
	<defs>
		<path id="SVGID_15_" d="M253.7,152c-12.4-5-23.9-6.2-35.5-11.6c-2.3-1.1-7,1.8-9.1,6.3c-0.4,0.8-0.6,1.6-0.8,2.4
			c-0.9,3.9,0,7.7,1.9,8.6c11.1,5.1,23.8,16.8,35.7,23c3.6,1.8,7.4,3.4,11.3,4.6c3.1,0.9,9.1,2.8,10.5-0.3c1.2-3,1.7-6.2,1.5-9.4
			c-0.2-4.5-1.1-8.9-2.7-13.1C264,156.4,257.7,153.6,253.7,152z"/>
	</defs>
	<clipPath id="SVGID_16_">
		<use xlink:href="#SVGID_15_"  style="overflow:visible;"/>
	</clipPath>
	<g class="st19">
		<path class="st4" d="M258.3,152.5c-12.4-5-28.6-6.7-40.2-12.1c-2.3-1.1-7,1.8-9.1,6.3c-0.4,0.8-0.6,1.6-0.8,2.4
			c-0.9,3.9,0,7.7,1.9,8.6c11.1,5.1,23.8,16.8,35.7,23c3.6,1.8,7.4,3.4,11.3,4.6c3.1,0.9,9.1,2.8,10.5-0.3c1.2-3,1.7-6.2,1.5-9.4
			c-0.2-4.5-1.1-8.9-2.7-13.1C264,156.4,262.3,154.1,258.3,152.5z"/>
		<path class="st7" d="M259.6,157.7c-11.2-3.5-22.4-6.7-33.4-10.8c-3.3-1.2-6.7-2.6-10-4c-0.5-0.2-1,0.6-0.4,0.8
			c10.9,4.5,22.1,8.4,33.4,11.8c3.4,1,6.8,2.1,10.2,3.1C259.9,158.7,260.1,157.8,259.6,157.7L259.6,157.7z"/>
		<path class="st7" d="M263.9,186.8c0.3-3.2,0.5-6.4,0.4-9.7c-0.1-3-0.5-6-1.1-9c-1-5.1-2.5-10.2-5.6-14.5c-1.6-2.2-3.7-4.1-6-5.5
			c-0.2-0.1-0.5-0.1-0.6,0.2c-0.1,0.2-0.1,0.5,0.2,0.6c4.1,2.6,7.3,6.5,8.9,11c0.9,2.4,1.7,4.9,2.2,7.5c0.6,2.9,1.1,5.9,1.2,8.9
			c0.1,3.5-0.1,7-0.4,10.4C263,187.3,263.8,187.3,263.9,186.8L263.9,186.8z"/>
		<path class="st5" d="M209.9,155.5c-1.4-0.6-2-4.7-0.2-8.5s5.3-6,6.6-5.4s1,4.2-0.8,8.1S211.3,156.1,209.9,155.5z"/>
	</g>
</g>
<path id="r-hand" class="st0" d="M207.9,132.9c1.5,2.8,6.5,10.3,6.5,10.3s1.8,3.8,0.4,6.6c-1.5,3-6.5,3.5-6.5,3.5
	c-5.4-1.1-10.9-1.1-16.3-0.1c-8,1.7-13.5,4.4-15-0.6s1.1-7.5,6.6-7.6c2.1,0,4-0.2,5.7-0.4c-1.1-0.4-2.2-0.7-3.3-1
	c-8-1.9-14.1-1.8-13.3-6.9s4.2-6.3,9.2-4.1s8.9,3,11.3,4.1c0,0,7.8,2.3,7.7,1.8s-2.8-3.2-4.9-7.3s2.1-8.5,5.6-8.2
	S206.4,130.1,207.9,132.9z"/>
</svg>
