<?xml version="1.0" encoding="utf-8"?>
<!-- Generator: Adobe Illustrator 25.2.0, SVG Export Plug-In . SVG Version: 6.00 Build 0)  -->
<svg version="1.1" id="Layer_1" xmlns="http://www.w3.org/2000/svg" xmlns:xlink="http://www.w3.org/1999/xlink" x="0px" y="0px"
	 viewBox="0 0 173.3 495.3" style="enable-background:new 0 0 173.3 495.3;" xml:space="preserve">
<style type="text/css">
	.st0{fill:#953DBA;}
	.st1{clip-path:url(#SVGID_2_);}
	.st2{fill:#44F5A0;}
	.st3{fill:#1B8B79;}
	.st4{fill:#33D08C;}
	.st5{clip-path:url(#SVGID_4_);}
	.st6{fill:#C1983D;}
	.st7{fill:#F7C517;}
	.st8{fill:#652F99;}
	.st9{clip-path:url(#SVGID_6_);}
	.st10{clip-path:url(#SVGID_8_);}
	.st11{fill:none;stroke:#33D08C;stroke-width:0.86;stroke-miterlimit:10;}
	.st12{clip-path:url(#SVGID_10_);}
	.st13{clip-path:url(#SVGID_12_);}
	.st14{fill:#4D257C;}
	.st15{clip-path:url(#SVGID_14_);}
	.st16{fill:#F5FAFF;}
	.st17{fill:#022538;}
	.st18{clip-path:url(#SVGID_16_);}
	.st19{fill:#E5B94C;}
</style>
<g id="l-hand">
	<path class="st0" d="M34.8,243.6c-1.5-2.8-4.6-11.3-4.6-11.3s-2.1-3.7-5.1-4.1c-3.4-0.5-6.6,3.3-6.6,3.3c-2.2,5-5.4,9.5-9.3,13.3
		c-6,5.6-11.4,8.5-8.1,12.6c3.3,4.1,6.8,3.4,10-1c1.3-1.7,2.5-3.2,3.6-4.4c-0.3,1.1-0.7,2.2-1.1,3.2c-3.1,7.6-6.7,12.5-2.1,14.8
		s7.6,0.2,8.7-5.2s2.7-9,3.2-11.6c0,0,2.6-7.7,3-7.3s1,4.1,3.1,8.2c2.1,4.1,8.2,3.2,10,0.2S36.3,246.5,34.8,243.6z"/>
</g>
<g id="l-forearm">
	<g>
		<g>
			<defs>
				<path id="SVGID_1_" d="M40.5,180.4c-0.7,16.6-5.9,35.6-5.9,51.5c0,3.1-4.5,7-9.5,7c-0.9,0-1.7-0.1-2.5-0.3c-3.9-1-7-4.1-7-6.6
					c0-15.1-5.3-35.5-5.9-52.1c-0.2-5,0-10.1,0.5-15.1c0.4-4,1.2-11.7,4.7-11.7c3.3,0.2,6.4,1.3,9.1,3.1c4.1,2.7,7.7,6,10.8,9.9
					C39.3,171.9,40.7,175,40.5,180.4z"/>
			</defs>
			<clipPath id="SVGID_2_">
				<use xlink:href="#SVGID_1_"  style="overflow:visible;"/>
			</clipPath>
			<g class="st1">
				<path class="st2" d="M40.5,180.4c-0.7,16.6-5.9,35.6-5.9,51.5c0,3.1-4.5,7-9.5,7c-0.9,0-1.7-0.1-2.5-0.3c-3.9-1-7-4.1-7-6.6
					c0-15.1-5.3-35.5-5.9-52.1c-0.2-5,0-10.1,0.5-15.1c0.4-4,1.2-11.7,4.7-11.7c3.3,0.2,6.4,1.3,9.1,3.1c4.1,2.7,7.7,6,10.8,9.9
					C39.3,171.9,40.7,175,40.5,180.4z"/>
				<path class="st3" d="M31.4,162.6c6.6,7,10,14.6,7.6,16.8c-3.6-0.9-7.4-4.3-14-11.3s-9.5-12-10-14.2
					C17.7,153.4,24.8,155.6,31.4,162.6z"/>
				<path class="st4" d="M34.1,182.2c-0.8,7.3-1.5,14.5-2,21.8c-0.5,6.7-0.9,13.3-1.1,20c-0.2,4.3-0.3,8.7-0.4,13
					c0,0.3,0.2,0.5,0.5,0.5s0.5-0.2,0.5-0.5c0.2-7.3,0.4-14.6,0.8-21.9c0.4-6.7,0.9-13.3,1.5-20c0.4-4.3,0.8-8.6,1.3-12.9
					C35.2,181.5,34.2,181.5,34.1,182.2L34.1,182.2z"/>
				<path class="st4" d="M11,157c0.9,2.7,2.3,5.1,4.1,7.3c2,2.4,4,4.8,6.2,7c2.1,2.2,4.1,4.3,6.3,6.3c1.9,1.8,4,3.4,6.3,4.8
					c2,1.3,4.3,1.8,6.6,1.6c0.6-0.1,0.4-1.1-0.3-1c-2,0.2-3.9-0.3-5.6-1.4c-2.2-1.3-4.2-2.8-6-4.5c-2.1-1.9-4-3.9-6-5.9
					s-4.1-4.2-5.9-6.5c-2.1-2.3-3.7-5-4.7-8c-0.1-0.3-0.4-0.4-0.6-0.4C11.1,156.4,10.9,156.7,11,157L11,157z"/>
			</g>
		</g>
	</g>
</g>
<g id="l-arm">
	<g>
		<g>
			<defs>
				<path id="SVGID_3_" d="M76.2,105.2l-9.6-13.5l-21-1.7l-30.5,64c0.6,2.6,3.4,7.1,10,14.2s10.7,10.8,14,11.3
					c0.4-0.4,0.6-0.9,0.7-1.4L76.2,105.2z"/>
			</defs>
			<clipPath id="SVGID_4_">
				<use xlink:href="#SVGID_3_"  style="overflow:visible;"/>
			</clipPath>
			<g class="st5">
				<path class="st0" d="M66.6,105.8c-0.1,0.4-0.3,0.7-0.5,1.1c-3.2,5.6-6.3,11.2-9.4,16.9l-4.5,8.5l-4.5,8.5
					c-2.9,5.7-5.9,11.4-8.7,17.2s-5.5,11.6-7.8,17.6c-1.3,3.5-5.1,5.4-8.7,4.4c-0.3-0.1-0.6-0.2-0.8-0.3c-3.8-1.5-5.7-5.7-4.2-9.5
					c0.2-0.4,0.3-0.7,0.5-1.1c3.3-5.5,6.2-11.3,9.1-17s5.5-11.6,8.2-17.5l4-8.8l3.9-8.8c2.6-5.9,5.1-11.8,7.5-17.8
					c1.8-4.4,6.8-6.6,11.2-4.8S68.4,101.4,66.6,105.8L66.6,105.8z"/>
			</g>
		</g>
	</g>
</g>
<g id="l-thigh">
	<path class="st0" d="M82.4,249.3c-12.3,52-14,90.8-14,90.8s-1.3,9.7-6.6,9.4c-6.8-0.5-8.1-10.6-9.5-15.6
		c-2.2-8.2-3.9-16.5-5.1-24.9c-2.3-15.3-2.5-30.8-0.6-46.1c1.1-9.6,2.5-19.9,5.5-29.1c2.4-7.4,7.8-20.7,16.4-22.1
		c4.2,0.5,8.1,2.7,10.6,6.1C83.8,223.9,85.6,235.8,82.4,249.3z"/>
</g>
<g id="l-calf">
	<g>
		<ellipse class="st6" cx="68.2" cy="437.6" rx="9.4" ry="2.5"/>
		<path class="st7" d="M68.1,434.9c-5.2,0-9.5,1.2-9.5,2.7s4.2,2.7,9.5,2.7c5.2,0,9.5-1.2,9.5-2.7S73.3,434.9,68.1,434.9z
			 M68.1,439.3c-3.4,0-6.1-0.8-6.1-1.7s2.7-1.7,6.1-1.7s6.1,0.8,6.1,1.7S71.5,439.3,68.1,439.3L68.1,439.3z"/>
		<path class="st0" d="M71.6,448.4c0,3.5-7.4,2-7.4,2l-9.4-115.5c3.1-0.9,6.3-1.4,9.5-1.6c2.1,0,3.8,0.3,4.3,1.4
			c15.3,38.2,3,69.9,3,112.9V448.4z"/>
		<path class="st0" d="M77,459.8c-0.3,4.6,4.6,15.4,4.9,21.4s-7.2,8.5-12.1,7.2c-1.7-0.5-2.7-2-3.1-3.8c-0.5-2.5-0.6-5.1-0.2-7.6
			l0,0c-2.9,1-5.4,2.4-11.3,6c-5.2,3-11.1,4.7-17.1,5l0,0c-2,0.1-4.1,0.1-6.1-0.2c-3.5-0.4-3-4.8-2.5-6.8c0.1-0.5,0.2-0.8,0.2-1
			c0,0,0,0,0-0.1c-4.5,0.7-9,0.7-13.5,0l-0.3-6.6c0-0.4,0-0.9,0.2-1.3c1.7-5.2,16.1-5.2,23.2-8.5c4.5-2.2,13.5-9,19.9-14.1
			c4.2-3.4,7.4-6,7.4-6l3.8-1.8l2.1-1c0.1,0.3,0.2,0.6,0.3,0.9c2.5,8.1,9.4,10,12.2,15.4C87.8,462.4,77,459.8,77,459.8z"/>
		<path class="st7" d="M77.6,437.5v10c0,0.1,0,0.2,0,0.3c-0.3,1.1-2.9,2-6.3,2.3c-1,0.1-2.1,0.2-3.1,0.1c-5,0-9-1.1-9.5-2.5
			c0-0.1,0-0.2,0-0.3v-10c0,1.5,4.3,2.7,9.5,2.7c1,0,2.1,0,3.1-0.1C74.9,439.7,77.6,438.7,77.6,437.5z"/>
		<path class="st7" d="M74.2,437.6c0,1-2.7,1.7-6.1,1.7s-6.1-0.8-6.1-1.7h-3.3c0,1.5,4.2,2.7,9.5,2.7c5.2,0,9.5-1.2,9.5-2.7H74.2z"
			/>
		<path class="st8" d="M21.6,474.4c0,0,12-2.2,21.4-7.5c-3.3,2-11.6,7.5-13.4,12.8c-4.5,0.7-9,0.7-13.5,0L21.6,474.4z"/>
		<path class="st8" d="M68.8,459.1c0,0-1.7,12.5-2.3,17.5c-3,1-5.4,2.4-11.3,6c-5.2,3-11.1,4.7-17.1,5c6.3-1.3,10.4-5.4,16.9-12
			C59.9,470.4,64.5,464.9,68.8,459.1z"/>
	</g>
</g>
<g id="hips">
	<g>
		<g>
			<defs>
				<path id="SVGID_5_" d="M112.9,216.5c-0.1,4.8-0.6,9.6-1.4,14.3c-6.8,33.3-17.8,38.2-27.1,38.2s-11.6-8.6-17.2-23
					c-3.5-9.5-6-19.2-7.7-29.2L112.9,216.5z"/>
			</defs>
			<clipPath id="SVGID_6_">
				<use xlink:href="#SVGID_5_"  style="overflow:visible;"/>
			</clipPath>
			<g class="st9">
				<polygon class="st2" points="109.6,272.9 54.6,272.9 54.6,213.9 117.8,213.9 				"/>
				<path class="st4" d="M61.3,215.2c1,1.7,1.6,3.7,1.5,5.7c0,1,0.1,2,0.2,3c0.1,1,0.3,2.1,0.6,3.1c1.1,4.5,2.2,8.9,3.5,13.4
					s2.4,8.7,3.9,12.9c1.4,3.8,3.1,7.4,5.3,10.7c2.4,3.8,5.4,7.3,8.8,10.3c0.5,0.4,1.2-0.3,0.7-0.7c-6.1-5.4-10.7-12.2-13.6-19.8
					c-1.6-4.1-2.7-8.4-3.9-12.6c-1.2-4.4-2.4-8.8-3.5-13.2c-0.3-1.2-0.6-2.4-0.8-3.6s-0.2-2.3-0.3-3.5c0-2.1-0.5-4.2-1.7-6.1
					C61.8,214.2,61,214.7,61.3,215.2L61.3,215.2z"/>
				<path class="st4" d="M96.7,216.6c-0.6,0.9-1.1,2-1.5,3c-0.7,1.6-1.2,3.3-1.8,5c-1.5,4.4-2.7,8.9-3.7,13.4
					c-1.1,4.5-1.8,9-2.3,13.6c-0.4,4.3-0.8,8.8,0,13.1c0.6,2.9,2.2,5.4,4.5,7.2c0.5,0.4,1.2-0.3,0.7-0.7c-2-1.5-3.4-3.6-4-6
					c-1-3.8-0.6-8-0.3-11.9c0.9-9.2,2.8-18.2,5.7-26.9c0.6-2,1.3-3.9,2-5.8c0.4-1.2,0.9-2.3,1.6-3.4C98,216.6,97.1,216.1,96.7,216.6
					L96.7,216.6z"/>
			</g>
		</g>
	</g>
</g>
<g id="r-calf">
	<g>
		<path class="st6" d="M109.1,442.9c5.2,0,9.5,1.1,9.5,2.5s-4.3,2.5-9.5,2.5s-9.4-1.1-9.4-2.5S103.8,442.9,109.1,442.9z"/>
		<path class="st7" d="M109.1,442.3c-5.2,0-9.5,1.2-9.5,2.7s4.2,2.7,9.5,2.7c5.2,0,9.5-1.2,9.5-2.7S114.3,442.3,109.1,442.3z
			 M109.1,446.7c-3.4,0-6-0.8-6-1.8s2.7-1.7,6-1.7s6,0.8,6,1.7S112.5,446.7,109.1,446.7z"/>
		<path class="st0" d="M113.6,455.9c0,3.6-7.4,2-7.4,2l-9.5-116.8c3.1-0.9,6.3-1.4,9.6-1.6c2.1,0,3.8,0.3,4.3,1.4
			c15.4,38.6,3,70.7,3.1,114.1L113.6,455.9L113.6,455.9z"/>
		<path class="st7" d="M122.6,454.5c0,0.1,0,0.2,0,0.2l0,0V454.5z"/>
		<path class="st7" d="M119.6,455.4v0.2l0,0C119.6,455.6,119.6,455.5,119.6,455.4z"/>
		<path class="st0" d="M123.7,492.7c-2.1,0.5-4.3,0.3-6.3-0.4c-2.4-1.4-4.6-3-6.6-4.8l-0.1-0.1c-3.2-1.1-6.3,1.4-7.3,2.2
			c-2.8,2.3-6,4-9.5,4.9c-2.2,0.6-4.5,0.9-6.9,0.9c-2,0-2.8-3.3-2.9-5.4H84c-3.6,0.8-10.1,0.4-13.2,0.1l-1.7-0.2
			c-0.4-1.7-1.3-5.4-0.1-7.9c2.4-4.9,12.3-5.4,17.4-8.8c3.3-2.2,9.7-8.8,14.1-16.2c1.4-2.3,3.2-4.4,5.4-6l2.8-1.9
			c3.2,0,5.9,2.5,6.2,5.8c0.3,4.2,0.4,8.4,0.2,12.6c1.8,4.9,4.4,11.4,9.6,14.4S127.3,491.4,123.7,492.7z"/>
		<path class="st7" d="M118.6,444.8v10.1c0,0.1,0,0.2,0,0.3c-0.3,1.1-2.9,2-6.3,2.3c-1,0.1-2.1,0.2-3.1,0.1c-5,0-9-1.1-9.5-2.5
			c0-0.1,0-0.2,0-0.3v-10.1c0,1.5,4.3,2.7,9.5,2.7c1,0,2.1,0,3.1-0.1C115.9,447,118.6,446,118.6,444.8z"/>
		<path class="st7" d="M115.2,444.9c0,1-2.7,1.8-6,1.8s-6-0.8-6-1.8h-3.4c0,1.5,4.2,2.7,9.5,2.7c5.2,0,9.5-1.2,9.5-2.7H115.2z"/>
		<path class="st8" d="M95.8,472.6c-3.9,4.1-11.1,12-11.8,17.4c-3.6,0.8-10.1,0.4-13.2,0.1l5-5.3C75.9,484.8,88.4,480,95.8,472.6z"
			/>
		<path class="st8" d="M110.8,487.4l-0.1-0.1c-3.2-1.1-6.3,1.4-7.3,2.2c-2.8,2.3-6,4-9.5,4.9c2.3-1.5,4.4-3.2,6.3-5.1
			c6.6-6.6,8.5-17.1,8.5-17.1S111.4,482.3,110.8,487.4z"/>
	</g>
</g>
<g id="r-thigh">
	<path class="st0" d="M121.4,266.1c-12.5,52.5-11.5,80.4-11.5,80.4s-1.4,9.8-6.7,9.4c-6.8-0.5-8.2-10.8-9.6-15.7
		c-2.3-8.3-4-16.7-5.2-25.1c-2.3-17-2.3-34.2-0.1-51.2c1.2-9.8,3.3-19.5,6.3-29c2.4-7.5,6.6-16.8,15.3-18.2c4,2.6,7.3,6,9.8,10
		C125.1,235.4,124.6,252.3,121.4,266.1z"/>
</g>
<g id="torso">
	<g>
		<path class="st7" d="M80.4,79.4c3.4-0.4,6.8-0.5,10.2-0.3c3.3,0.6,6.4,2.1,8.7,4.5c0.9,0.9,3.7,4,3,6.1c-1,3-7.6,4.4-9.1,1.9
			c-3.5-5.8-18.1-1.8-19.2,0s-2-10-2-10C74.7,80.5,77.5,79.8,80.4,79.4z"/>
		<path class="st6" d="M115.7,202.9c0-5.7-13.4-10.3-29.8-10.3S56,197.2,56,202.9s3.5,19.2,28.4,19.2
			C100.9,222.1,115.7,208.6,115.7,202.9z"/>
		<path class="st3" d="M109.6,180.1c0-12.1-20-26.2-32.8-26.2S61.1,168,61.1,180.1c2,5,12,11.2,28.6,11.2S108.9,184.9,109.6,180.1z"
			/>
		<path class="st0" d="M106.9,215.7l-8.9,3.5l-25,5.3l-11-8.9c0,0,5.6-11.6,5.6-21.2c0-2.7-0.2-6.6-0.6-10.8
			c-0.9-10.9-2.5-24.1-2.5-24.1s4.3-8.4,19.9-8.4s19.9,8.4,19.9,8.4s-3,25.3-3,34.9S106.9,215.7,106.9,215.7z"/>
		<g>
			<g>
				<defs>
					<path id="SVGID_7_" d="M109.6,180.1c-25.5,1.8-21.9-18.6-36.6-18.6s-7.7,14.4-12,18.6c-5-16.6-18-52.7-5.4-83.7
						c14.4-5.7,46.1-5.7,61.7,0C122.7,133,109.6,164.6,109.6,180.1z"/>
				</defs>
				<clipPath id="SVGID_8_">
					<use xlink:href="#SVGID_7_"  style="overflow:visible;"/>
				</clipPath>
				<g class="st10">
					<rect x="46.6" y="89.8" class="st2" width="77" height="103"/>
					<path class="st4" d="M65.7,89.8c-2.7,2.1-5.8,3.4-8.4,5.7c-1.2,0.9-2.1,2.1-2.6,3.5c-0.2,0.6-0.3,1.2-0.5,1.9
						c-1.2,4.9-1.9,9.9-2.2,15c-0.6,7.2-0.6,14.4-0.2,21.5c0.6,7.3,1.6,14.5,3,21.6c1.7,8.8,4.1,17.4,7.3,25.8
						c0.4,1.1,0.8,2.1,1.3,3.2c0.2,0.6,1.2,0.3,1-0.3c-3.4-8.3-6-16.9-7.8-25.6c-1.6-7.4-2.8-14.9-3.5-22.4
						c-0.6-6.8-0.7-13.7-0.2-20.5c0.2-5.6,0.9-11.2,2-16.7c0.3-1.6,0.6-3.4,1.6-4.7c1.1-1.3,2.4-2.4,3.8-3.2c1.5-1,3-1.8,4.4-2.8
						c0.6-0.4,1.2-0.8,1.8-1.3C66.9,90.1,66.2,89.4,65.7,89.8L65.7,89.8z"/>
					<path class="st4" d="M112.6,92.1c-1.9,2-3.5,4.1-4.9,6.5c-1.7,2.8-3.3,5.7-4.7,8.7c-2.6,5.2-4.7,10.6-6.2,16.2
						c-0.6,2.4-1,4.9-1.2,7.4c-0.4,3.3-0.7,6.7-0.9,10c-0.5,6.7-0.5,13.5-0.2,20.2c0.2,3.5,0.7,7,1,10.5c0.3,3.9,0.9,7.7,1.7,11.5
						c0.2,1,0.5,2,0.8,3.1c0.1,0.3,0.4,0.4,0.6,0.4c0.3-0.1,0.4-0.4,0.4-0.6l0,0c-1.1-3.8-1.8-7.7-2.2-11.7
						c-0.4-3.7-0.8-7.4-1.1-11.2c-0.4-6.4-0.5-12.9-0.1-19.3c0.2-6.2,0.8-12.4,1.8-18.6c0.5-2.2,1.1-4.4,1.9-6.5
						c1-2.9,2.2-5.8,3.4-8.6c1.4-3,2.8-6,4.5-8.9c1.4-2.5,3-4.9,4.8-7.1c0.4-0.4,0.8-0.9,1.2-1.3S113.1,91.6,112.6,92.1L112.6,92.1z
						"/>
					<polygon class="st11" points="87.1,147 59.1,144.1 59.1,123.3 87.1,123.3 					"/>
				</g>
			</g>
		</g>
		<path class="st7" d="M108.9,94.1c0,0-12.2,10.4,4.7,42c0,0,31-23.6,10.8-43C116.8,91.2,108.9,94.1,108.9,94.1z"/>
		<path class="st7" d="M63.8,94.1c0,0-15.8,3.7-13.1,42c0,0-16-36.6-2.4-43.1C56,91.2,63.8,94.1,63.8,94.1z"/>
		<path class="st7" d="M115.6,202.8V218c-2.3,1.9-4.9,3.4-7.6,4.6c-7.3,3.3-29.8,8.3-37.5,8.3c-7.1-2.9-14.9-7.4-14.9-12.9v-15.2
			c0,6.2,6.1,9.4,14.9,12.9c9.8-0.4,30.3-4.7,37.5-8C110.8,206.5,113.4,204.9,115.6,202.8z"/>
		<path class="st8" d="M66.2,94.1l16.7-3.7c0,0,20,0.5,17.5,3.7c-18.1,23.5-27.5,22-27.5,22L66.2,94.1z"/>
		<path class="st7" d="M72.4,116.2c-0.7-0.7-1.3-1.4-1.9-2.1s-1.1-1.5-1.7-2.3c-1.1-1.6-2-3.3-2.7-5.1c-0.8-1.9-1.4-3.8-1.8-5.7
			c-0.4-2.1-0.5-4.3-0.3-6.4c0.2-2.4,1-4.7,2.3-6.8c1.3-2.1,3-4,5.1-5.4c1.9-1.3,4.1-2.3,6.4-3c2.2-0.6,4.5-1,6.8-0.9
			c2.7-0.1,4.9,2.1,5,4.8s-2.1,4.9-4.8,5h-0.4c-2.6,0.1-5.2,0.9-7.4,2.4c-0.9,0.6-1.8,1.5-2.4,2.4c-0.6,1-1.1,2.1-1.3,3.3
			c-0.7,2.9-1,5.9-0.9,8.9c0.1,3.5,0.5,6.9,1,10.3v0.1c0,0.3-0.2,0.5-0.4,0.6l0,0C72.7,116.3,72.5,116.3,72.4,116.2z"/>
		<path class="st8" d="M93.6,99.1c0,0-2.4,7.2-9.8,7.2s-10.4-7.2-10.4-7.2c0.4-7,0.4-14.1,0-21.2c-0.6-13.7-1.9-25.1-1.9-25.1h19.6
			c0,0-0.1,11.4,0.5,25.1C91.8,85,92.5,92.1,93.6,99.1z"/>
		<path class="st7" d="M92.6,90.8c0.7,0.7,1,1.6,1,2.5c-0.1,1.6-1.9,4.1-2.9,5.4c-4.9,6.6-11,12.4-17.9,16.9h-0.1l0.2,0.8
			c10,0.5,20.6-6.3,26.6-14c2-2.3,3.3-5,3.9-8c0.4-3.2-0.5-6.5-2.5-9.1C98.1,87.2,95.4,89,92.6,90.8z"/>
		<path class="st6" d="M114,133.9c0,0-2.4-13.4,0-24.6c1.9-8.7,6.5-11.3,10-11s8.1,9.2,3.4,19C123.9,124.8,114,133.9,114,133.9z"/>
	</g>
</g>
<g id="r-hand">
	<path class="st0" d="M138.5,250.6c1.4-2.8,4.6-11.3,4.6-11.3s2.1-3.7,5.1-4.1c3.4-0.5,6.6,3.3,6.6,3.3c2.2,5,5.4,9.5,9.3,13.4
		c6,5.5,11.4,8.5,8.1,12.6s-6.8,3.4-10-1c-1.3-1.7-2.5-3.2-3.6-4.4c0.3,1.1,0.7,2.2,1.1,3.2c3.1,7.6,6.7,12.5,2,14.8
		s-7.6,0.2-8.7-5.2s-2.7-9-3.2-11.6c0,0-2.6-7.7-3-7.3s-1,4.1-3.1,8.2s-8.2,3.2-10,0.2S137.1,253.5,138.5,250.6z"/>
</g>
<g id="r-forearm">
	<g>
		<g>
			<defs>
				<path id="SVGID_9_" d="M132.8,187.4c0.7,16.6,5.9,35.7,5.9,51.5c0,3.1,4.5,7,9.5,7c0.9,0,1.7-0.1,2.6-0.3c3.9-1,7-4,7-6.6
					c0-15.1,5.3-35.5,5.9-52.1c0.2-5,0-10.1-0.5-15.1c-0.4-4-1.2-11.7-4.7-11.7c-3.3,0.2-6.4,1.3-9.1,3.1c-4.1,2.7-7.7,6-10.8,9.9
					C134,178.9,132.6,182,132.8,187.4z"/>
			</defs>
			<clipPath id="SVGID_10_">
				<use xlink:href="#SVGID_9_"  style="overflow:visible;"/>
			</clipPath>
			<g class="st12">
				<path class="st2" d="M132.8,187.4c0.7,16.6,5.9,35.7,5.9,51.5c0,3.1,4.5,7,9.5,7c0.9,0,1.7-0.1,2.6-0.3c3.9-1,7-4,7-6.6
					c0-15.1,5.3-35.5,5.9-52.1c0.2-5,0-10.1-0.5-15.1c-0.4-4-1.2-11.7-4.7-11.7c-3.3,0.2-6.4,1.3-9.1,3.1c-4.1,2.7-7.7,6-10.8,9.9
					C134,178.9,132.6,182,132.8,187.4z"/>
				<path class="st3" d="M141.9,169.7c-6.6,7-10,14.6-7.6,16.8c1.3-3,3.6-7.6,10.2-14.6c4-4.3,8.6-8,13.7-10.9
					C155.7,160.4,148.6,162.6,141.9,169.7z"/>
				<path class="st4" d="M138.2,188.2c0.8,7.4,1.5,14.7,2,22.1c0.5,6.8,0.9,13.7,1.2,20.5c0.2,4.4,0.3,8.8,0.4,13.1
					c0,0.3,0.2,0.5,0.5,0.5s0.5-0.2,0.5-0.5c-0.2-7.4-0.4-14.8-0.8-22.2c-0.4-6.8-0.9-13.7-1.5-20.5c-0.4-4.4-0.8-8.7-1.3-13.1
					C139.1,187.6,138.1,187.6,138.2,188.2L138.2,188.2z"/>
				<path class="st4" d="M161.6,163.4c-4.7,2.3-9,5.5-12.5,9.3c-3.8,4.1-6.6,8.9-9.8,13.5c-1.8,2.7-3.9,5.2-6.3,7.4
					c-0.5,0.4,0.2,1.1,0.7,0.7c4.1-3.8,7-8.5,10.1-13.1c3-4.6,6.6-8.8,10.8-12.3c2.3-1.8,4.8-3.4,7.5-4.6
					C162.7,164,162.2,163.1,161.6,163.4L161.6,163.4z"/>
			</g>
		</g>
	</g>
</g>
<g id="r-arm">
	<g>
		<g>
			<defs>
				<path id="SVGID_11_" d="M114,133.9c-0.4-3.2-3.2-21.3,2.5-31.1c4-6.9,8.7-4,8.7-4l33.1,62.2c-5.1,2.9-9.8,6.5-13.7,10.9
					c-6.6,7-9,11.6-10.2,14.6C134,186.2,120,145.6,114,133.9z"/>
			</defs>
			<clipPath id="SVGID_12_">
				<use xlink:href="#SVGID_11_"  style="overflow:visible;"/>
			</clipPath>
			<g class="st13">
				<path class="st0" d="M106.8,113.8c0.1,0.4,0.3,0.7,0.5,1.1c3.2,5.6,6.3,11.2,9.4,16.9l4.5,8.5l4.5,8.5
					c2.9,5.7,5.9,11.4,8.7,17.2s5.5,11.6,7.8,17.6c1.3,3.5,5.1,5.4,8.7,4.4c0.3-0.1,0.6-0.2,0.8-0.3c3.8-1.5,5.7-5.7,4.2-9.5
					c-0.2-0.4-0.3-0.7-0.5-1.1c-3.3-5.5-6.2-11.3-9.1-17s-5.5-11.6-8.2-17.5l-4-8.8l-3.9-8.8c-2.6-5.9-5.1-11.8-7.5-17.8
					c-1.8-4.4-6.8-6.6-11.2-4.8S104.9,109.4,106.8,113.8L106.8,113.8z"/>
			</g>
		</g>
	</g>
</g>
<g id="head">
	<g>
		<path class="st0" d="M110.8,31c-0.3,11.5-17,25.6-24.2,31.2c-2.2,1.7-8.1,14.3-9.3,18.3c-2.3,7.1-8.6,9.6-13.8,9.6s-7-2.3-9.4-9.3
			c-1.3-4-2.7-7.6-3.5-10.4c-0.8-2.9-2.5-5.4-4.9-7.2c-7.3-5.7-8.9-15.8-7-27.2c1.2-7.3,3.2-15,7-20.1c2.9-3.8,6.5-7,10.6-9.4l0,0
			c1.4-0.9,2.9-1.6,4.4-2.3c2.9-1.3,5.8-2.3,8.9-3c0.9-0.2,1.8-0.4,2.7-0.6c2.5-0.4,5-0.6,7.4-0.6c4.1-0.1,8.2,0.3,12.2,1.1
			c2.2,0.5,4.4,1.2,6.4,2.2C105.8,7,111.2,14.8,110.8,31z"/>
		<path class="st14" d="M40.7,37.7c-0.1-1.3,0.4-2.6,1.3-3.6c1-1,2.3-1.6,3.7-1.7c1.3-0.1,2.6,0.2,3.8,0.7c0.6,0.3,1.1,0.5,1.7,0.9
			c0.5,0.3,1,0.7,1.5,1.1c0.2,0.2,0.2,0.5,0,0.6l0,0c-0.1,0.1-0.3,0.2-0.5,0.2l0,0c-0.6-0.2-1.1-0.3-1.7-0.5L49,35
			c-1-0.3-2-0.4-3.1-0.3c-1,0.1-1.9,0.4-2.7,0.9C42.3,36.2,41.4,36.9,40.7,37.7z"/>
		<path class="st14" d="M86.7,39.2c-1.5-0.8-3.1-1.5-4.7-2.1c-1.5-0.6-3.1-1-4.7-1.2s-3.2,0-4.7,0.4c-0.8,0.2-1.6,0.5-2.3,0.8
			c-0.8,0.3-1.5,0.7-2.3,1h-0.1c-0.3,0.1-0.5,0-0.6-0.3c-0.1-0.2,0-0.4,0.1-0.5c0.7-0.6,1.4-1.2,2.1-1.7c0.8-0.5,1.6-0.9,2.5-1.2
			c1.8-0.7,3.7-1,5.6-0.8s3.7,0.7,5.3,1.7C84.5,36.2,85.8,37.6,86.7,39.2z"/>
		<g>
			<g>
				<defs>
					<path id="SVGID_13_" d="M55,47.7c0.7,4.8-0.6,8.6-3.1,9.9c-3.6-0.6-8.7-3.6-9.4-8.4s0.2-7.9,4.1-10
						C49.8,38.7,54.3,42.9,55,47.7z"/>
				</defs>
				<clipPath id="SVGID_14_">
					<use xlink:href="#SVGID_13_"  style="overflow:visible;"/>
				</clipPath>
				<g class="st15">
					
						<rect x="38" y="37.8" transform="matrix(0.2529 -0.9675 0.9675 0.2529 -9.3592 83.3429)" class="st16" width="22.6" height="19.9"/>
					<circle class="st3" cx="49.1" cy="50.3" r="7.5"/>
					<circle cx="49.1" cy="50.3" r="3.5"/>
					<path class="st17" d="M51.8,59.8c0,0,7.3-9.3-0.6-17c-1.4-1.2-3.2-1.8-5-1.6c0,0-2.2,0.1-3.2,3.4c-0.7,2.5-0.6,5.2,0.3,7.6
						l-5.4-1.5l2.8-21.4l16,5.1L58.5,60L51.8,59.8z"/>
				</g>
			</g>
		</g>
		<g>
			<g>
				<defs>
					<path id="SVGID_15_" d="M69,47.1c-2,4.6-1.7,8.9,0.5,10.9c3.8,0.3,9.7-1.4,11.8-6c1.6-3.6,3.2-8,0.2-10.8
						C78.3,39.8,71,42.5,69,47.1z"/>
				</defs>
				<clipPath id="SVGID_16_">
					<use xlink:href="#SVGID_15_"  style="overflow:visible;"/>
				</clipPath>
				<g class="st18">
					<rect x="64.6" y="37.8" class="st16" width="22" height="22"/>
					<circle class="st3" cx="74.1" cy="51.3" r="7.5"/>
					<circle cx="74.6" cy="50.8" r="4"/>
					<path class="st17" d="M69.2,59.8c0,0-4.9-11.4,5.1-17c1.7-0.9,3.7-1,5.4-0.3c0,0,2.2,0.7,2.3,4.2c0.1,2.7-0.7,5.4-2.3,7.6
						l5.9-0.1l2.8-22.3L71,32.7L62.4,58L69.2,59.8z"/>
				</g>
			</g>
		</g>
		<path class="st19" d="M92.2,13.1C84.6,17,77.5,21.7,70.1,26c-1.6,0.9-3.2,1.8-4.8,2.6c-1.5,0.9-3.2,1.4-4.9,1.5
			c-2.9-0.2-4.7-3.2-5.5-5.7c-1.3-3.5-2-12.7,1.5-17.8l0,0c1.4-0.9,2.9-1.6,4.4-2.3c-1.7,2.6-2.6,5.6-2.6,8.7c0,3.4,1.6,6.9,3.4,9.9
			c2.7-1.3,4.7-2.5,5.6-3c7.2-3.7,16-7.8,23.8-10.1c1.6-0.4,6-1.9,7.7,0.4C99.3,10.9,96.7,10.9,92.2,13.1z"/>
		<path class="st19" d="M98.3,3.3C95.5,3.6,92.7,4.2,90,5c-3.8,1.1-7.4,2.6-10.9,4.3c-1.8,0.9-11,4.7-12,4.6
			c-0.8,0.3-1.8-2.6-1.2-5.1c0.2-1.1,0.5-2.1,0.9-3.2c0.6-1.7,1.7-3.2,2.9-4.4c0.9-0.2,1.8-0.4,2.7-0.6c-1.4,1.8-2.3,4-2.8,6.3
			c-0.2,0.8-0.1,1.6,0.1,2.3c0.4-0.1,1.7-0.7,2.1-0.9c1.7-0.9,3.5-1.9,5.4-2.7C81,3.8,85,2.5,89,1.6c0.9-0.2,1.9-0.4,2.8-0.5
			C94.1,1.6,96.2,2.3,98.3,3.3z"/>
		<path class="st14" d="M70.6,73.8c-2.2,0.9-4.4,1.3-6.8,1.4c-2.4-0.1-4.8-0.6-7-1.4H70.6z"/>
	</g>
</g>
</svg>
