<?xml version="1.0" encoding="utf-8"?>
<!-- Generator: Adobe Illustrator 26.0.0, SVG Export Plug-In . SVG Version: 6.00 Build 0)  -->
<svg version="1.1" id="Layer_1" xmlns="http://www.w3.org/2000/svg" xmlns:xlink="http://www.w3.org/1999/xlink" x="0px" y="0px"
	 viewBox="0 0 700 700" style="enable-background:new 0 0 700 700;" xml:space="preserve">
<style type="text/css">
	.st0{fill:#953DBA;}
	.st1{fill:#652F99;}
	.st2{fill:#C1983D;}
	.st3{fill:#F7C517;}
	.st4{clip-path:url(#SVGID_00000169538052319958314910000015172043898339733402_);}
	.st5{fill:#44F5A0;}
	.st6{fill:#33D08C;}
	.st7{fill:#1B8B79;}
	.st8{clip-path:url(#SVGID_00000092417613483140246520000000783989518022730672_);}
	.st9{clip-path:url(#SVGID_00000153688402848193600110000012796687305038148022_);}
	.st10{clip-path:url(#SVGID_00000139259164931089227020000001649754824791398070_);}
	.st11{clip-path:url(#SVGID_00000154411503883774041800000008606811072733015486_);}
	.st12{fill:none;stroke:#33D08C;stroke-width:0.4473;stroke-miterlimit:10;}
	.st13{clip-path:url(#SVGID_00000171692335528752608080000010407806659825680516_);}
	.st14{fill:#F5FAFF;}
	.st15{fill:#022538;}
	.st16{clip-path:url(#SVGID_00000119109177645251239730000015779401726058924183_);}
	.st17{fill:#E5B94C;}
	.st18{fill:#4D257C;}
</style>
<g>
	<g transform="translate(-20 -21)">
		<g>
			<g>
				<g>
					<g>
						<g>
							<g>
								<path class="st0" d="M330,1823.1c-1.2,17.9,17.9,60.6,19.5,83.9c1.6,23.3-28.5,33.4-48,28.3c-7-1.9-10.5-7.8-12.5-15.1
									c-1.9-9.7-2.3-19.8-0.8-29.9c-11.7,3.9-21.1,9.3-44.5,23.7c-20.7,11.6-43.7,18.2-67.1,19.4c-8.2,0.4-16,0.4-24.2-0.8
									c-13.6-1.6-11.7-19-9.7-26.8c0.4-1.9,0.8-3.1,0.8-3.9c0,0,0,0,0-0.4c-17.5,2.7-35.5,2.7-53,0l-1.2-25.6c0-1.6,0-3.5,0.8-5
									c6.6-20.6,63.6-20.6,91.3-33.4c17.5-8.5,52.6-35.3,78-55.1c16.8-13.2,29.2-23.3,29.2-23.3l15.2-7.4l8.2-3.9
									c0.4,1.2,0.8,2.3,1.2,3.5c10.1,31.8,37,39.2,48,60.2C372.5,1833.6,330,1823.1,330,1823.1z"/>
								<path class="st1" d="M227.1,1900.4c0.4-2.3,1.2-3.9,1.2-3.9C228.2,1897.6,227.9,1899.2,227.1,1900.4z"/>
								<path class="st1" d="M111.7,1881.7c0,0,47.2-8.5,84.2-29.5c-12.9,7.8-46,29.5-52.6,50.1c-17.5,2.7-35.5,2.7-53,0
									L111.7,1881.7z"/>
								<path class="st1" d="M297.7,1821.9c0,0-6.6,48.9-9.4,68.7c-11.7,3.9-21.1,9.3-44.8,23.7c-20.7,11.6-43.7,18.2-67.1,19.4
									c25-5,40.9-21.4,66.7-47C262.6,1866.2,280.9,1844.4,297.7,1821.9z"/>
								<path class="st1" d="M201,1847.2c-1.2,0.8-2.7,1.6-3.9,2.3L201,1847.2z"/>
								<path class="st2" d="M329.6,1735.4c0,5.4-16.4,9.7-36.7,9.7c-20.2,0-36.7-4.3-36.7-9.7c0-5.4,16.4-9.7,36.7-9.7
									C313.2,1725.7,329.6,1730,329.6,1735.4z"/>
								<path class="st3" d="M293,1724.9c-20.3,0-36.7,4.7-36.7,10.5c0,5.8,16.4,10.5,36.7,10.5s36.7-4.7,36.7-10.5
									C329.6,1729.5,313.3,1724.9,293,1724.9z M293,1742c-12.9,0-23.4-3.1-23.4-7c0-3.9,10.5-6.6,23.4-6.6s23.8,3.1,23.8,6.6
									C316.8,1738.5,305.9,1742,293,1742z"/>
								<path class="st0" d="M308.6,1777.7c0,14-28.9,7.8-28.9,7.8l-37-453.4c12.1-3.5,24.6-5.4,37-6.2c8.2,0,14.8,1.2,16.8,5.4
									c60.1,149.9,11.7,274.5,12.1,443V1777.7z"/>
								<path class="st3" d="M329.6,1735.4v39.2c0,0.4,0,0.8,0,0.8c-1.2,4.3-11.3,7.8-24.6,8.9c-3.9,0.4-8.2,0.8-12.1,0.4
									c-19.1,0-34.7-4.3-36.7-9.7c0-0.4,0-0.8,0-0.8V1735c0,5.8,16.4,10.5,36.7,10.5c3.9,0,8.2,0,12.1-0.4
									C319.1,1743.9,329.6,1740,329.6,1735.4z"/>
								<path class="st3" d="M316.4,1735.4c0,3.9-10.5,7-23.8,7c-13.3,0-23.4-3.1-23.4-7h-13.3c0,5.8,16.4,10.5,36.7,10.5
									s36.7-4.7,36.7-10.5H316.4z"/>
								<path class="st0" d="M380.7,1811.8c11.3-21,38.2-28.7,48-60.2c0.4-1.2,0.8-2.3,1.2-3.5l8.2,3.9l15.2,7.4
									c0,0,12.5,10.1,28.9,23.3c25.3,19.8,60.4,46.6,78,55.1c27.7,13.2,84.6,13.2,91.3,33.4c0.4,1.6,0.8,3.5,0.8,5l-1.2,25.6
									c-17.5,2.7-35.5,2.7-53,0c0,0,0,0,0,0.4c0,0.8,0.4,1.9,0.8,3.9c1.6,7.8,3.9,25.2-10.1,26.8c-7.8,0.8-16,1.2-24.2,0.8
									c-23.8-1.2-46.8-7.8-67.1-19.4c-23.4-14-32.8-19.8-44.5-23.7c1.6,10.1,1.2,20.2-0.8,29.9c-1.9,7.4-5.5,13.2-12.5,15.1
									c-19.5,5-49.1-5-48-28.3c1.2-23.3,20.7-65.6,19.5-83.8C411.9,1823.1,369,1833.6,380.7,1811.8z"/>
								<path class="st1" d="M651.4,1902.3c-17.5,2.7-35.5,2.7-53,0c-6.6-20.6-39.8-42.3-52.6-50.1c37.4,21,84.2,29.5,84.2,29.5
									L651.4,1902.3z"/>
								<path class="st1" d="M498.5,1886.8c25.7,25.6,41.7,41.9,66.7,47c-23.8-1.2-46.8-7.8-67.5-19.4
									c-23.4-14.4-32.8-19.8-44.5-23.7c-2.7-19.8-9.4-68.7-9.4-68.7C461.1,1844.4,479,1866.2,498.5,1886.8z"/>
								<path class="st2" d="M485.6,1735.4c0,5.4-16.4,9.7-36.7,9.7c-20.2,0-36.7-4.3-36.7-9.7c0-5.4,16.4-9.7,36.7-9.7
									C469.2,1725.7,485.6,1730,485.6,1735.4z"/>
								<path class="st3" d="M412.3,1735.4c0,5.8,16.4,10.5,36.7,10.5c20.3,0,36.7-4.7,36.7-10.5c0-5.8-16.4-10.5-36.7-10.5
									C428.7,1724.9,412.3,1729.5,412.3,1735.4z M425.2,1735.4c0-3.9,10.9-6.6,23.8-6.6c12.9,0,23.4,3.1,23.4,6.6
									c0,3.5-10.5,7-23.4,7C435.7,1742,425.2,1738.9,425.2,1735.4z"/>
								<path class="st0" d="M433.4,1774.2c0.4-168.9-48-293.1,12.1-443c2-4.3,8.6-5.4,16.8-5.4c12.5,0.8,25,3.1,37,6.2l-37,453.4
									c0,0-28.9,6.2-28.9-7.8V1774.2z"/>
								<path class="st3" d="M436.5,1745.5c3.9,0.4,8.2,0.8,12.1,0.4c20.3,0,36.7-4.7,36.7-10.5v39.2c0,0.4,0,0.8,0,0.8
									c-1.9,5.4-17.5,9.7-36.7,9.7c-3.9,0-8.2,0-12.1-0.4c-13.3-1.2-23.4-4.7-24.6-8.9c0-0.4,0-0.8,0-0.8v-39.2
									C412.3,1740,422.4,1743.9,436.5,1745.5z"/>
								<path class="st3" d="M412.3,1735.4c0,5.8,16.4,10.5,36.7,10.5c20.3,0,36.7-4.7,36.7-10.5h-13.3c0,3.9-10.5,7-23.4,7
									c-12.9,0-23.8-3.1-23.8-7H412.3z"/>
								<path class="st1" d="M513.3,1896.5c0,0,0.4,1.6,1.2,3.9C514.1,1899.2,513.7,1897.6,513.3,1896.5z"/>
								<path class="st1" d="M544.5,1849.5c-1.2-0.8-2.7-1.6-3.9-2.3L544.5,1849.5z"/>
								<path class="st0" d="M501.2,1351.8c-1.2,5-3.1,10.1-5.1,14.8c-0.8,1.2-1.2,2.7-2,3.9c-3.9,7.4-10.1,15.1-18.7,17.9
									c-2,0.8-3.5,1.2-5.5,1.2c-17.5,1.2-23.8-25.6-25.3-34.2c0-0.4,0-0.4,0-0.8s0,0,0,0s0-0.8,0-1.2c0,0,0,0,0-0.4c0,0,0,0,0-0.4
									c0,0-0.4-7-1.6-19.4c-3.1-35.7-10.9-116.9-24.2-213.9c-7.8-56.3-17.5-118-29.6-179.4l-1.2-6.2
									c-11.3-57.1,56.5-85.4,56.5-85.4c0.8,0,2,0.4,2.7,0.8l1.2,0.4c2.7,0.8,5.1,1.9,7.4,3.5l0.4,0.4c1.2,0.8,2.7,1.6,4.3,2.3
									c1.6,0.8,3.1,1.9,4.7,3.1l2.3,1.9c1.6,1.2,3.1,2.7,5.1,4.7l2,1.9l0.4,0.4c0.8,0.8,1.6,1.9,2.7,2.7c1.2,0.8,1.6,1.6,2.3,2.7
									c3.1,3.9,5.8,7.8,8.6,12c5.5,9.3,10.1,19.4,13.3,29.9C577.3,1146.8,501.2,1351.8,501.2,1351.8z"/>
								<path class="st1" d="M456.8,1356.1c2.3,5.4,3.9,10.9,5.5,15.9c0.8,2.3,1.6,4.7,3.1,6.6c0.8,1.6,2.3,2.3,3.9,2.7
									c2,0.4,4.3,0,6.2-0.8c2.3-0.8,4.7-1.6,6.6-3.1c4.7-3.1,8.6-6.6,12.5-10.5c-1.6,5.8-4.3,11.3-9,15.1c-2.3,2.3-5.1,3.9-7.8,5
									c-3.1,1.6-6.6,1.9-10.1,1.6c-2-0.4-3.9-1.2-5.5-2.3c-1.6-1.2-2.7-2.7-3.5-4.3c-1.6-2.7-2.3-5.8-2.3-8.9
									C456,1367.7,456,1361.9,456.8,1356.1z"/>
								<path class="st0" d="M353,934.1c-40.6,205.8-56.9,418.5-56.9,418.5s-5.5,38-26.1,36.5c-23.4-1.6-31.2-37.7-31.2-37.7
									s-76.4-204.6,0-436.4c3.5-10.5,7.8-20.6,13.3-29.9c2.7-4.3,5.5-8.2,8.6-12c0.8-0.8,1.6-1.9,2.3-2.7
									c16.8-19.4,33.1-22.1,33.1-22.1S364,877,353,934.1z"/>
								<path class="st1" d="M252.8,1369.7c3.1,4.7,7,8.5,11.7,11.6c2,1.2,5.1,2.3,5.5,1.9c1.6-1.2,2.3-2.7,3.1-4.3
									c2.3-4.7,4.7-10.1,6.2-15.1c1.6-5,3.5-10.9,5.5-16.3c1.2,5.8,1.2,12,0.4,17.9c-0.8,5.8-2.7,11.6-5.5,17.5
									c-0.8,1.6-1.6,3.1-2.7,4.3c-2.7,3.9-8.2,4.7-12.1,2.3c-1.6-0.8-2.7-1.9-3.9-2.7C256.3,1382.1,253.2,1375.9,252.8,1369.7z"/>
								<path class="st0" d="M155.3,982.2c-5.8-10.9-17.9-43.9-17.9-43.9s-8.2-14.4-19.9-15.9c-13.3-1.9-25.7,12.8-25.7,12.8
									c-8.6,19.4-21.1,36.9-36.3,51.6c-23.4,21.7-44.5,33-31.6,48.9c12.9,15.9,26.5,13.2,39-3.9c5.1-6.6,9.7-12.4,14-17.1
									c-1.2,4.3-2.7,8.5-4.3,12.4c-12.1,29.5-26.1,48.5-8.2,57.5c17.9,8.9,29.6,0.8,33.9-20.2c4.3-21,10.5-34.9,12.5-45
									c0,0,10.1-29.9,11.7-28.3c1.6,1.6,3.9,15.9,12.1,31.8c8.2,15.9,32,12.4,39,0.8C180.7,1012.1,161.2,993.5,155.3,982.2z"/>
								<g>
									<defs>
										<path id="SVGID_1_" d="M177.6,736.9c-2.7,64.4-23,138.6-23,199.9c0,12-17.5,27.2-37,27.2c-3.5,0-6.6-0.4-9.7-1.2
											c-15.2-3.9-27.3-15.5-27.3-25.6c0-58.6-20.7-137.8-23-202.3c-0.8-19.4,0-39.2,2-58.6c1.6-15.5,4.7-45.4,18.3-45.4
											c12.9,0.8,25,5,35.5,12c16,10.5,30,23.7,42.1,38.4C172.9,703.9,178.3,715.9,177.6,736.9z"/>
									</defs>
									<clipPath id="SVGID_00000072239206220296320300000012826156434701666691_">
										<use xlink:href="#SVGID_1_"  style="overflow:visible;"/>
									</clipPath>
									<g style="clip-path:url(#SVGID_00000072239206220296320300000012826156434701666691_);">
										<path class="st5" d="M177.6,736.9c-2.7,64.4-23,138.6-23,199.9c0,12-17.5,27.2-37,27.2c-3.5,0-6.6-0.4-9.7-1.2
											c-15.2-3.9-27.3-15.5-27.3-25.6c0-58.6-20.7-137.8-23-202.3c-0.8-19.4,0-39.2,1.9-58.6c1.6-15.5,4.7-45.4,18.3-45.4
											c12.9,0.8,25,5,35.5,12c16,10.5,30,23.7,42.1,38.4C172.9,703.9,178.3,715.9,177.6,736.9z"/>
										<path class="st6" d="M153,740c-3.1,28.7-5.8,57.1-7.8,85.8c-1.9,26.4-3.5,53.2-4.7,79.6c-0.8,17.1-1.2,34.2-1.6,50.9
											c0,1.2,0.8,1.9,1.9,1.9c1.2,0,2-0.8,2-1.9c0.8-28.7,1.6-57.5,3.1-86.2c1.6-26.8,3.5-53.2,5.8-79.6
											c1.6-17.1,3.1-33.8,5.1-50.9C157.3,737.6,153.4,737.6,153,740z"/>
										<path class="st6" d="M63.3,647.2c18.7,8.9,35.1,21.4,49.1,36.5c14.8,15.9,25.3,34.6,37.8,52c7,10.1,15.2,19.8,24.2,28.3
											c2,1.6,4.7-1.2,2.7-2.7c-16.4-15.1-27.7-33.8-40.2-52c-11.7-18.2-26.1-34.2-42.9-47.8c-9-7-18.7-12.8-28.9-17.9
											C62.9,642.5,61,646,63.3,647.2z"/>
										<path class="st7" d="M142.1,668.2c25.7,27.2,39,56.7,29.6,65.6c-5.1-11.6-14-29.5-39.8-56.7
											C116.7,660,98.4,646,78.5,634.8C88.6,632.1,116.3,640.6,142.1,668.2z"/>
									</g>
								</g>
								<path class="st0" d="M584.7,982.2c5.8-10.9,17.9-43.9,17.9-43.9s8.2-14.4,19.9-15.9c13.3-1.9,25.7,12.8,25.7,12.8
									c8.6,19.4,21.1,36.9,36.3,51.6c23.4,21.7,44.5,33,31.6,48.9c-12.9,15.9-26.5,13.2-39-3.9c-5.1-6.6-9.7-12.4-14-17.1
									c1.2,4.3,2.7,8.5,4.3,12.4c12.1,29.5,26.1,48.5,8.2,57.5c-17.9,8.9-29.6,0.8-33.9-20.2c-4.3-21-10.5-34.9-12.5-45
									c0,0-10.1-29.9-11.7-28.3c-1.6,1.6-3.9,15.9-12.1,31.8c-8.2,15.9-32,12.4-39,0.8C559.3,1012.1,579.2,993.5,584.7,982.2z"/>
								<g>
									<defs>
										<path id="SVGID_00000034795424631389705640000007317038619955529102_" d="M562.4,736.9c2.7,64.4,23,138.6,23,199.9
											c0,12,17.5,27.2,37,27.2c3.5,0,6.6-0.4,10.1-1.2c15.2-3.9,27.3-15.5,27.3-25.6c0-58.6,20.7-137.8,23-202.3
											c0.8-19.4,0-39.2-2-58.6c-1.6-15.5-4.7-45.4-18.3-45.4c-12.9,0.8-25,5-35.5,12c-16,10.5-30,23.3-42.1,38.4
											C567.1,703.9,561.7,715.9,562.4,736.9z"/>
									</defs>
									<clipPath id="SVGID_00000084504192144019739100000009869713418844546948_">
										<use xlink:href="#SVGID_00000034795424631389705640000007317038619955529102_"  style="overflow:visible;"/>
									</clipPath>
									<g style="clip-path:url(#SVGID_00000084504192144019739100000009869713418844546948_);">
										<path class="st5" d="M562.4,736.9c2.7,64.4,23,138.6,23,199.9c0,12,17.5,27.2,37,27.2c3.5,0,6.6-0.4,10.1-1.2
											c15.2-3.9,27.3-15.5,27.3-25.6c0-58.6,20.7-137.8,23-202.3c0.8-19.4,0-39.2-1.9-58.6c-1.6-15.5-4.7-45.4-18.3-45.4
											c-12.9,0.8-25,5-35.5,12c-16,10.5-30,23.3-42.1,38.4C567.1,703.9,561.7,715.9,562.4,736.9z"/>
										<path class="st6" d="M583.5,740c3.1,28.7,5.8,57.1,8.2,85.8c2,26.4,3.5,53.2,4.7,79.6c0.8,17.1,1.2,34.2,1.6,50.9
											c0,1.2,0.8,1.9,1.9,1.9c1.2,0,2-0.8,2-1.9c-0.8-28.7-1.6-57.5-3.1-86.2c-1.6-26.8-3.5-53.2-5.8-79.6
											c-1.6-17.1-3.1-33.8-5.1-50.9C587,737.6,583.1,737.6,583.5,740z"/>
										<path class="st6" d="M674.8,643.7c-18.3,8.9-35.1,21.4-48.7,36.1c-14.8,15.9-25.7,34.6-38.2,52.4
											c-7,10.5-15.2,20.2-24.6,28.7c-1.9,1.6,0.8,4.3,2.7,2.7c16-14.8,27.3-33,39.4-50.9c11.7-17.9,25.7-34.2,42.1-47.8
											c9-7,18.7-13.2,29.2-17.9C679,646,677.1,642.5,674.8,643.7z"/>
										<path class="st7" d="M598.3,668.2c-25.7,27.2-39,56.7-29.6,65.6c5.1-11.6,14-29.5,39.8-56.7
											c15.2-17.1,33.5-31.1,53.4-42.3C651.7,632.1,624.1,640.6,598.3,668.2z"/>
									</g>
								</g>
								<g>
									<defs>
										<path id="SVGID_00000078737210774966788310000004340601259286451641_" d="M316.8,445.3l-37.4-52.4l-81.9-6.6L78.5,634.4
											c19.9,11.3,38.2,25.2,53.4,42.3c25.7,27.2,35.1,45,39.8,56.7c1.6-1.6,2.3-3.5,2.7-5.4L316.8,445.3z"/>
									</defs>
									<clipPath id="SVGID_00000177448626597180015040000011240231396862635921_">
										<use xlink:href="#SVGID_00000078737210774966788310000004340601259286451641_"  style="overflow:visible;"/>
									</clipPath>
									<g style="clip-path:url(#SVGID_00000177448626597180015040000011240231396862635921_);">
										<path class="st0" d="M279.3,447.3c-0.4,1.6-1.2,2.7-2,4.3c-12.5,21.7-24.6,43.5-36.7,65.6l-17.5,33l-17.5,33
											c-11.3,22.1-23,44.3-33.9,66.8c-10.9,22.5-21.4,45-30.4,68.3c-5.1,13.6-19.9,21-33.9,17.1c-1.2-0.4-2.3-0.8-3.1-1.2
											C89.4,728.3,82,712,87.9,697.3c0.8-1.6,1.2-2.7,1.9-4.3c12.9-21.4,24.2-43.9,35.5-66c11.3-22.1,21.4-45,32-67.9l15.6-34.2
											l15.2-34.2c10.1-22.9,19.9-45.8,29.2-69.1c7-17.1,26.5-25.6,43.7-18.6C278.2,410,286.4,430.6,279.3,447.3z"/>
									</g>
								</g>
								<g>
									<defs>
										<path id="SVGID_00000141450691706235045260000017572185799258034367_" d="M423.6,445.3l37.4-52.4l81.9-6.6l118.9,248.1
											c-19.9,11.3-38.2,25.2-53.4,42.3c-25.7,27.2-35.1,45-39.8,56.7c-1.6-1.6-2.3-3.5-2.7-5.4L423.6,445.3z"/>
									</defs>
									<clipPath id="SVGID_00000127008647978616780000000006579450503891352756_">
										<use xlink:href="#SVGID_00000141450691706235045260000017572185799258034367_"  style="overflow:visible;"/>
									</clipPath>
									<g style="clip-path:url(#SVGID_00000127008647978616780000000006579450503891352756_);">
										<path class="st0" d="M461.1,447.3c0.4,1.6,1.2,2.7,2,4.3c12.5,21.7,24.6,43.5,36.7,65.6l17.5,33l17.5,33
											c11.3,22.1,23,44.3,33.9,66.8c10.9,22.5,21.4,45,30.4,68.3c5.1,13.6,19.9,21,33.9,17.1c1.2-0.4,2.3-0.8,3.1-1.2
											c14.8-5.8,22.2-22.1,16.4-36.9c-0.8-1.6-1.2-2.7-2-4.3c-12.9-21.4-24.2-43.9-35.5-66c-11.3-22.1-21.4-45-32-67.9
											l-15.6-34.2l-15.2-34.2c-10.1-22.9-19.9-45.8-29.2-69.1c-7-17.1-26.5-25.6-43.7-18.6C462.2,410,454,430.6,461.1,447.3z"/>
									</g>
								</g>
								<path class="st2" d="M488,809.5c0,22.5-52.4,40.8-117,40.8S254,832,254,809.5c0-22.5,52.4-40.8,117-40.8S488,787,488,809.5z
									"/>
								<path class="st7" d="M460.3,720.2c0-47-40.6-90.1-90.5-90.1c-49.9,0-90.1,43.1-90.1,90.1c7.8,19.4,25.3,38.8,90.1,38.8
									C434.5,759,449.4,746.6,460.3,720.2z"/>
								<path class="st0" d="M457.2,858.4L422.4,872l-52.3,20.6L282.1,858c0,0,21.8-45,21.8-82.3c0-10.5-0.8-25.6-2.3-41.9
									c-3.5-42.3-9.7-93.6-9.7-93.6s16.8-32.6,77.6-32.6c60.8,0,77.6,32.6,77.6,32.6s-11.7,98.2-11.7,135.5
									S457.2,858.4,457.2,858.4z"/>
								<g>
									<defs>
										<path id="SVGID_00000123408999852361121130000011025621929740839310_" d="M460.3,720.2c-39,0-33.5-72.2-90.5-72.2
											s-51.1,72.2-90.1,72.2c0-62.5-52.6-185.6-30-324.9c56.2-22.1,179.4-22.5,240.6,0C511.8,537.3,460.3,660,460.3,720.2z"/>
									</defs>
									<clipPath id="SVGID_00000083798170003582478380000003488444995228830848_">
										<use xlink:href="#SVGID_00000123408999852361121130000011025621929740839310_"  style="overflow:visible;"/>
									</clipPath>
									<g style="clip-path:url(#SVGID_00000083798170003582478380000003488444995228830848_);">
										<path class="st5" d="M215,368.8h300.3v399.9H215V368.8z"/>
										<path class="st6" d="M289.5,369.6c-17.5,14-25.3,35.7-28.1,57.1c-1.6,12.4-2.3,25.2-2.3,38c0,12.8,0,25.6,0.8,38
											c1.6,25.6,4.7,50.9,9.4,76.1c4.3,25.6,9,50.9,11.7,76.5c2.7,28.7,3.5,57.8,4.3,86.6c0,2.3,3.9,2.3,3.9,0
											c-0.4-25.6-1.2-50.9-3.1-76.1c-1.9-25.2-6.2-50.1-10.5-74.9c-4.3-24.8-8.6-50.1-10.5-75.3c-1.9-25.2-2.3-50.5-0.8-75.3
											c1.6-24.8,7.8-51.6,28.1-67.9C294.2,370.8,291.4,368.1,289.5,369.6z"/>
										<path class="st6" d="M448.2,372.7c17.9,14.4,25,36.9,27.3,59c1.2,12.4,1.9,24.8,1.6,37.3c0,12.8-0.4,25.6-1.2,38
											c-3.1,50.5-16,99.4-20.7,149.9c-2.7,28.7-3.5,57.1-3.9,85.8c0,1.2,0.8,1.9,1.9,1.9s2-0.8,2-1.9
											c0.8-25.6,1.2-51.6,3.1-77.3c1.9-25.6,6.6-51.2,10.9-76.9c4.3-25.6,8.6-50.5,10.5-76.1c1.9-25.6,1.9-51.2,0-76.5
											c-2-24.5-9-50.5-28.9-66.4C449,368.1,445.8,370.8,448.2,372.7z"/>
										<path class="st12" d="M294.9,514.4h148.2v81.5H294.9V514.4z"/>
									</g>
								</g>
								<path class="st6" d="M413.1,388.6c0,0-14-8.5-43.3-8.5c-29.2,0-43.3,8.5-43.3,8.5l5.1-43.9c0,0,9.4-2.7,38.2-2.7
									c28.9,0,36.7,2.3,36.7,2.3L413.1,388.6z"/>
								<path class="st2" d="M370.2,472.1c0,0,54.2-11.6,60.8-73.4c6.6-61.7-99.8-44.3-111.9-27.2
									C305.5,391,295.3,430.2,370.2,472.1z"/>
								<path class="st1" d="M296.9,394.5l71.4-8.2l71,7l-68.6,82.3L296.9,394.5z"/>
								<path class="st1" d="M409.6,445.3c0,0-10.9,28.3-39.4,28.3c-28.5,0-39.4-28.3-39.4-28.3c3.1-27.6,4.3-55.1,3.9-82.7
									c0-54-2.7-98.2-2.7-98.2h76.4c0,0-2.7,44.3-2.7,98.6C405.3,390.2,406.5,417.8,409.6,445.3z"/>
								<path class="st3" d="M446.6,410c-2,7.8-5.1,15.1-9.4,21.7c-3.9,6.2-8.6,12-13.6,17.5c-4.7,5.4-10.1,10.5-16,14.8
									c-11.3,8.9-25,14.8-39,17.1c-0.4,0-0.4,0-0.8,0h-0.4c-0.8,0-1.2-0.8-1.2-1.2c0-1.2,0.4-1.9,1.2-2.7h0.4
									c5.5-3.1,10.5-7,15.2-11.3s9-9.3,12.9-14.4c5.1-6.6,9-14,12.1-21.4c1.6-3.9,3.1-7.4,4.3-11.3c3.9-10.9,4.7-21.7,1.6-28.7
									c-0.8-2.7-2.7-5-5.5-6.2c-0.8-0.4-1.6-0.8-2.7-0.8c0-7-0.4-14.8-0.4-22.9c0-5.8,0-11.6,0-17.5l3.5,0.8
									c9.7,1.9,19.1,6.6,26.5,13.6c7,7.4,11.7,16.7,13.3,26.4C449.7,392.5,449.4,401.5,446.6,410z"/>
								<path class="st3" d="M371.4,474.4c-0.4,0.8-0.8,1.2-1.6,1.2h-0.4H369c-13.6-2.3-26.1-7.8-37-16.3c-5.5-4.3-10.5-8.9-15.2-14
									c-4.7-5-9-10.9-12.9-16.7c-3.9-6.6-7-13.6-9-20.6c-2.3-8.2-2.7-16.7-1.6-24.8c1.6-9.3,5.8-18.2,12.5-25.2
									c7-6.6,15.6-10.9,25-12.8l3.9-0.8c0,5.4,0,10.9,0,16.7c0,7.8,0,14.8-0.4,21.7c-1.2,0-1.9,0.4-3.1,1.2
									c-2.3,1.2-4.3,3.5-5.1,5.8c-2.7,6.6-2.3,17.1,1.6,27.2c1.2,4.3,2.7,8.2,4.7,12c3.1,6.6,6.6,13.2,10.9,19
									c3.5,4.7,7.4,9.3,12.1,13.2c4.3,4.3,9.4,7.8,14.4,10.9h0.4h0.4C371.4,472.1,371.8,473.3,371.4,474.4z"/>
								<path class="st3" d="M457.9,386.3c0,0,42.1,37.7,31.6,163.1c0,0,61.2-124.6,28.9-166.9C488.4,375.1,457.9,386.3,457.9,386.3
									z"/>
								<path class="st3" d="M282.1,386.3c0,0-42.1,37.7-31.6,163.1c0,0-61.2-124.6-28.9-166.9C251.6,375.1,282.1,386.3,282.1,386.3
									z"/>
								<path class="st3" d="M488,808.3v59c-9,7.4-19.1,13.2-29.6,17.9c-28.5,12.8-67.1,24.5-87.4,32.2
									c-27.7-11.3-98.7-32.6-117-50.1v-59c18.3,22.5,83.1,36.5,117,50.1c22.2-8.9,59.3-18.2,87.4-31.1
									C469.2,823.1,479.4,816.5,488,808.3z"/>
								<path class="st0" d="M453.3,250.4c-10.5,6.6-18.3,16.3-22.6,28c-3.9,10.9-10.1,24.8-16,40.4c-10.9,27.6-20.3,43.9-44.5,43.9
									c-24.2,0-33.1-16.7-44.1-43.9c-6.2-15.5-12.5-29.5-16.4-40.4c-4.3-11.6-12.5-21.4-23-28c-34.3-22.1-39-61.3-32.8-105.6
									C264.9,71.5,302.3,21,370.2,21C438,21,477.4,73,486,145.2C491.5,189.1,487.2,228.3,453.3,250.4z"/>
								<g>
									<defs>
										<path id="SVGID_00000142172050952896877590000014793067930010259377_" d="M342.9,199.6c7.8,17.9,6.6,34.2-1.9,41.9
											c-14.8,1.2-38.2-5.4-46-23.3c-7.8-17.9-7-31.1,5.8-43.1C312.9,170.1,335.1,181.7,342.9,199.6z"/>
									</defs>
									<clipPath id="SVGID_00000056425133304970265100000006821478744387389058_">
										<use xlink:href="#SVGID_00000142172050952896877590000014793067930010259377_"  style="overflow:visible;"/>
									</clipPath>
									<g style="clip-path:url(#SVGID_00000056425133304970265100000006821478744387389058_);">
										<path class="st14" d="M277.4,159.2h81.9v93.2h-81.9V159.2z"/>
										<path class="st7" d="M351.5,215.5c0,16.1-13.1,29.1-29.2,29.1c-16.2,0-29.2-13-29.2-29.1c0-16.1,13.1-29.1,29.2-29.1
											C338.4,186.4,351.5,199.4,351.5,215.5z"/>
										<path d="M339.8,213.6c0,8.6-7,15.5-15.6,15.5c-8.6,0-15.6-7-15.6-15.5c0-8.6,7-15.5,15.6-15.5
											C332.8,198,339.8,205,339.8,213.6z"/>
										<path class="st15" d="M342.1,248.9c0,0,19.1-44.3-19.9-66c-6.6-3.1-14-3.5-21.1-1.2c0,0-8.6,2.7-9,16.3
											c-0.4,10.5,2.7,21,9,29.5l-23.4-0.8l-10.9-86.6l68.2,3.5l33.5,98.2L342.1,248.9z"/>
									</g>
								</g>
								<g>
									<defs>
										<path id="SVGID_00000020363708732838903840000001045741596397807248_" d="M397.5,199.6c-7.8,17.9-6.6,34.2,1.9,41.9
											c14.8,1.2,38.2-5.4,46-23.3c7.8-17.9,7.8-29.9-5.8-43.1C427.1,170.1,405.3,181.7,397.5,199.6z"/>
									</defs>
									<clipPath id="SVGID_00000148629877948567581020000015369042165313771947_">
										<use xlink:href="#SVGID_00000020363708732838903840000001045741596397807248_"  style="overflow:visible;"/>
									</clipPath>
									<g style="clip-path:url(#SVGID_00000148629877948567581020000015369042165313771947_);">
										<path class="st14" d="M378.8,163.1h85.8v85.4h-85.8V163.1z"/>
										<path class="st7" d="M445.1,215.5c0,16.1-13.1,29.1-29.2,29.1c-16.2,0-29.2-13-29.2-29.1c0-16.1,13.1-29.1,29.2-29.1
											C432,186.4,445.1,199.4,445.1,215.5z"/>
										<path d="M433.4,213.6c0,8.6-7,15.5-15.6,15.5c-8.6,0-15.6-7-15.6-15.5c0-8.6,7-15.5,15.6-15.5
											C426.4,198,433.4,205,433.4,213.6z"/>
										<path class="st15" d="M398.3,248.9c0,0-19.1-44.3,19.9-66c6.6-3.5,14.4-3.9,21.1-1.2c0,0,8.6,2.7,9,16.3
											c0.4,10.5-2.7,21-9,29.5l23-0.4l10.9-86.6l-68.2,3.5l-33.5,98.2L398.3,248.9z"/>
									</g>
								</g>
								<path class="st17" d="M298.8,65.3c3.1-0.8,6.2-0.8,9.4-0.4c2.7,0.4,5.1,1.2,7.8,1.9c4.3,1.6,8.6,3.5,12.5,5.8
									c7,4.3,13.6,8.5,19.9,13.6c5.8,4.7,11.3,9.3,16.4,12.8c1.9,1.6,3.9,2.7,6.2,3.9c1.6,0.8,2,0.4-0.8,0c-2.7-0.4-2.3,0.8-0.8,0
									c2.3-1.2,4.3-2.3,6.2-3.9c5.1-3.5,10.5-8.2,16.4-12.8c6.2-5,12.9-9.3,19.9-13.6c3.9-2.3,8.2-4.3,12.5-5.8
									c2.7-0.8,5.1-1.6,7.8-1.9c3.1-0.4,6.2-0.4,9,0.4l1.6,0.4c3.9,1.2,6.2,5.8,5.1,9.7c-0.8,3.1-3.5,5-6.6,5.4
									c-2.3,0.4-4.3,1.2-6.2,2.7c-2.7,1.9-5.5,3.9-7.8,6.2c-5.1,4.7-10.5,10.1-15.6,15.5c-5.1,5.4-10.5,10.9-16.8,16.3
									c-3.1,2.7-6.6,5.4-10.1,7.4c-8.6,6.2-20.3,6.2-29.2,0c-3.5-2.3-7-4.7-10.1-7.4c-6.2-5.4-11.3-10.9-16.8-16.3
									c-5.5-5.4-10.5-10.9-15.6-15.5c-2.3-2.3-5.1-4.3-7.8-6.2c-1.9-1.2-3.9-2.3-6.2-2.3c-4.3-0.4-7.4-4.3-7-8.5
									c0.4-3.1,2.3-5.8,5.5-6.6L298.8,65.3z"/>
								<path class="st17" d="M326.9,34.2c3.1-0.8,6.6-0.4,9.7,0.4c1.2,0.4,2.7,0.8,3.9,1.2c1.2,0.4,2.3,1.2,3.5,1.6
									c4.3,1.9,8.2,4.7,12.1,7.4c3.9,2.3,7,5,10.1,6.6c0.8,0.4,1.6,0.8,2,1.2l0.8,0.4l0.8,0.4c1.2,0.4,1.2,0,0,0
									c-1.2,0-0.8,0.4,0.4,0l0.4-0.4l0.8-0.4c0.8-0.4,1.2-0.8,2-1.2c3.1-1.6,6.2-4.3,10.1-6.6c3.9-2.7,8.2-5,12.5-7.4
									c1.2-0.4,2.3-1.2,3.5-1.6c1.2-0.4,2.7-1.2,3.9-1.2c3.1-0.8,6.6-1.2,9.7-0.4h0.8c2.7,0.4,4.3,3.1,3.5,5.4
									c-0.4,1.9-2.3,3.5-4.3,3.5c-2.7,1.2-5.8,2.7-8.2,5c-3.1,2.7-6.2,5.4-9.7,8.5c-3.1,3.1-6.6,6.2-10.5,8.9
									c-0.8,0.8-2,1.6-3.1,1.9c-1.2,0.8-2,1.6-3.1,1.9c-5.1,3.1-11.7,3.1-16.8,0c-1.2-0.4-2.3-1.2-3.1-1.9
									c-1.2-0.8-1.9-1.2-3.1-1.9c-3.9-2.7-7-5.8-10.5-8.9c-3.5-3.1-6.2-6.2-9.4-8.5c-2.3-2.3-5.5-3.9-8.6-4.7
									c-2.7,0-4.7-2.3-4.7-4.7c0-2.3,1.6-3.9,3.5-4.7H326.9z"/>
								<path class="st18" d="M403.3,291.2c-10.1,3.5-21.1,5.4-31.6,5.4c-11.3-0.4-22.2-2.3-33.1-5.4H403.3z"/>
								<path class="st18" d="M270.8,177.1c1.9-6.2,6.2-11.6,11.7-15.1c5.8-3.5,12.1-5.4,18.7-5.8c6.6-0.4,12.9,0.4,19.1,2.3
									c3.1,1.2,5.8,2.3,9,3.5c3.1,1.2,5.5,3.1,8.2,4.7c0.8,0.8,1.2,1.9,0.4,2.7c-0.4,0.8-1.2,0.8-1.9,0.8
									c-3.1-0.8-5.8-1.2-8.6-2.3c-2.7-1.2-5.5-1.2-8.6-1.6c-2.7-0.4-5.5-0.8-8.6-0.8c-1.6,0-2.7-0.4-4.3-0.4c-1.6,0-2.7,0-3.9,0
									c-5.5,0.4-10.9,1.6-16,3.5C280.9,170.9,275.4,173.6,270.8,177.1z"/>
								<path class="st18" d="M470,177.1c-4.7-3.5-10.1-5.8-15.6-8.2c-5.1-1.9-10.5-3.1-16-3.5c-1.2,0-2.7,0-4.3,0
									c-1.6,0-2.7,0-4.3,0.4c-2.7,0-5.5,0.4-8.6,0.8c-2.7,0.4-5.5,1.2-8.6,1.6c-3.1,0.4-5.5,1.6-8.6,2.3h-0.4
									c-1.2,0-1.9-0.4-2.3-1.6c0-0.8,0-1.6,0.8-1.9c2.7-1.6,5.1-3.1,8.2-4.7c3.1-1.6,5.8-2.3,9-3.5c6.2-1.9,12.9-2.7,19.1-2.3
									c6.6,0.4,13.3,2.3,18.7,5.8C463.8,165.4,468.1,170.5,470,177.1z"/>
							</g>
						</g>
					</g>
				</g>
			</g>
		</g>
	</g>
</g>
</svg>
