<?xml version="1.0" encoding="utf-8"?>
<!-- Generator: Adobe Illustrator 25.2.0, SVG Export Plug-In . SVG Version: 6.00 Build 0)  -->
<svg version="1.1" id="Layer_1" xmlns="http://www.w3.org/2000/svg" xmlns:xlink="http://www.w3.org/1999/xlink" x="0px" y="0px"
	 viewBox="0 0 209.2 497.3" style="enable-background:new 0 0 209.2 497.3;" xml:space="preserve">
<style type="text/css">
	.st0{fill:#953DBA;}
	.st1{clip-path:url(#SVGID_2_);}
	.st2{fill:#44F5A0;}
	.st3{fill:#33D08C;}
	.st4{fill:#1B8B79;}
	.st5{clip-path:url(#SVGID_4_);}
	.st6{fill:#652F99;}
	.st7{fill:#C1983D;}
	.st8{fill:#F7C517;}
	.st9{clip-path:url(#SVGID_6_);}
	.st10{clip-path:url(#SVGID_8_);}
	.st11{fill:none;stroke:#33D08C;stroke-miterlimit:10;}
	.st12{clip-path:url(#SVGID_10_);}
	.st13{clip-path:url(#SVGID_12_);}
	.st14{fill:#4D257C;}
	.st15{clip-path:url(#SVGID_14_);}
	.st16{fill:#F5FAFF;}
	.st17{fill:#022538;}
	.st18{fill:#E5B94C;}
</style>
<path id="b-hand" class="st0" d="M11.4,221.6c3.1-0.7,11.6-3.6,11.6-3.6s4.2-0.8,6.5,1.3c2.6,2.3,1.7,7.2,1.7,7.2
	c-2.4,4.9-3.8,10.2-4.2,15.7c-0.4,8.2,0.8,14.2-4.4,14.3s-6.9-3-5.6-8.4c0.5-2.1,0.8-4,1.1-5.6c-0.6,0.9-1.2,1.9-1.8,2.9
	c-3.8,7.2-5.3,13.2-10.1,11.1c-4.7-2.1-5-5.7-1.6-10s5.2-7.8,6.9-9.9c0,0,4.2-6.9,3.6-7s-3.8,1.8-8.3,2.9s-7.7-4.2-6.5-7.5
	S8.3,222.3,11.4,221.6z"/>
<g id="b-forearm">
	<defs>
		<path id="SVGID_1_" d="M56.4,176.7c-12.3,11.1-23.6,27.4-35.8,37.5c-2.4,2-2.4,8,0.8,11.8c0.6,0.7,1.2,1.2,1.9,1.8
			c3.3,2.4,7.6,2.8,9.6,1.1c11.6-9.7,30.7-18.6,43.8-28.9c4-3.1,9.1-7,11.3-10.1c2.8-4,4.8-15.2-9.8-19.4
			C72.4,168.9,60.4,173.1,56.4,176.7z"/>
	</defs>
	<clipPath id="SVGID_2_">
		<use xlink:href="#SVGID_1_"  style="overflow:visible;"/>
	</clipPath>
	<g class="st1">
		<path class="st2" d="M56.4,173.7c-13.8,12.5-26.5,30.7-40.1,42c-2.7,2.3-2.7,8.9,0.9,13.2c0.6,0.8,1.3,1.4,2.1,2
			c3.6,2.6,8.5,3.1,10.8,1.2c13-10.9,34.4-20.9,49.1-32.3c4.5-3.5,8.7-7.2,12.6-11.3c3.1-3.2,9.2-9.5,6.7-12.5
			c-2.2-2.6-3.9-9.3-7.6-10.4c-6.3-2.1-12.8-4.4-15.7-4.3C66.9,161.7,60.9,169.7,56.4,173.7z"/>
		<path class="st3" d="M65.8,174.3c-6.7,5.5-13.1,11.4-19.2,17.7c-5.9,6-11.7,12.2-17.7,18.2c-3.4,3.3-6.8,6.6-10.3,9.7
			c-0.5,0.4,0.2,1.1,0.7,0.7c6.3-5.6,12.2-11.6,18-17.6s11.8-12.4,18-18.2c3.6-3.4,7.3-6.7,11.1-9.8C67,174.7,66.3,174,65.8,174.3
			L65.8,174.3z"/>
		<path class="st3" d="M90.8,190.5c-2.3,1.6-4.9,3-7.5,4.1c-3.5,1.6-7.2,2.5-11,2.9c-1.8,0.2-3.5,0-5.2-0.4
			c-1.8-0.5-3.4-1.5-4.7-2.8c-2.8-2.6-4.5-6.2-4.7-10.1c-0.2-4.7,1.7-9.3,5.1-12.5c0.5-0.4-0.2-1.2-0.7-0.7c-3.2,3-5.2,7.2-5.4,11.6
			c-0.2,4,1.1,7.9,3.7,11c1.3,1.6,2.8,2.8,4.6,3.7c1.6,0.8,3.4,1.2,5.2,1.2c4,0,8-0.7,11.8-2.3c3.4-1.2,6.5-2.8,9.4-4.8
			C91.8,191.1,91.3,190.2,90.8,190.5L90.8,190.5z"/>
		<path class="st4" d="M75.8,172.4c-9.6-0.6-12.5,4.8-12.8,7.5c-0.7,4.7,0,11.4,7.3,13.4c5.8,1.6,11.8-1.5,15.3-4.7
			C90.2,184.3,85.5,172.9,75.8,172.4z"/>
	</g>
</g>
<g id="b-arm">
	<defs>
		<path id="SVGID_3_" d="M88.4,104.3l16.5-1.3l14.8,15.1l-33.4,69.7c-4.6,5.2-12.9,7.1-18.1,4.6c-5.7-2.7-6.2-10.3-4.7-14.2
			L88.4,104.3z"/>
	</defs>
	<clipPath id="SVGID_4_">
		<use xlink:href="#SVGID_3_"  style="overflow:visible;"/>
	</clipPath>
	<g class="st5">
		<path class="st0" d="M99.2,114c-0.2,0.3-0.4,0.7-0.6,1c-2.7,5.9-5.4,11.7-8.2,17.5l-4.2,8.7l-4.2,8.7c-2.9,5.7-5.8,11.5-8.9,17.1
			s-6.2,11.2-9.7,16.7c-2,3.1-1.4,7.3,1.5,9.6c0.2,0.2,0.5,0.4,0.7,0.5c3.4,2.2,8,1.2,10.2-2.2c0,0,0,0,0,0c0.2-0.3,0.4-0.7,0.6-1.1
			c2.6-5.9,5.5-11.6,8.5-17.3s6.2-11.3,9.4-16.9l4.8-8.4l4.9-8.3c3.3-5.5,6.6-11,10-16.5c2.5-4,1.3-9.4-2.7-11.9c0,0,0,0,0,0
			c-0.8-0.5-1.7-0.9-2.7-1.1C104.9,109.3,101.2,110.9,99.2,114z"/>
	</g>
</g>
<g id="b-calf">
	<g>
		<path class="st6" d="M129.7,490.2c-1.3,0.5-7.2-0.2-8.8-1c-2.6-1.3-9.9-4.2-9.9-4.2c-3.2-1.1-6.3,1.4-7.3,2.2
			c-2.8,2.3-6,3.9-9.5,4.9c-2.1,0.6-18,1.7-23,0.9c-2-0.3-1.6-3-1.7-5c0,0-4.7,0.4-7.7,0.3c-2.8-0.1-5.6-0.3-8.4-0.6
			c-0.4-1.7-1.3-5.4-0.1-7.9c2.4-4.9,28.4-5.4,33.5-8.8c3.3-2.2,9.7-8.8,14.1-16.2c1.4-2.3,3.2-4.4,5.4-6l2.8-1.9
			c3.2,0,5.9,2.5,6.2,5.8c0.5,4.6,8.9,25.3,14,28.3C134.4,483.9,133.3,489,129.7,490.2z"/>
		<path class="st6" d="M89.9,474.5c-6.3,7.7-19.9,4.8-20.4,13.4c-3.6,0.8-16.1-0.3-16.1-0.3S53.3,479.7,89.9,474.5z"/>
	</g>
	<ellipse class="st7" cx="108.9" cy="442.9" rx="8.8" ry="2.5"/>
	<path class="st8" d="M109.2,440c-5.2,0-9.4,1.2-9.4,2.7s4.2,2.7,9.4,2.7s9.4-1.2,9.4-2.7S114.4,440,109.2,440z M109.2,444.4
		c-3.3,0-6-0.8-6-1.8s2.7-1.7,6-1.7s6.1,0.8,6.1,1.7S112.6,444.4,109.2,444.4z"/>
	<path class="st6" d="M113.2,453.6c0,3.6-7.4,2.1-7.4,2.1l-9.5-116.8c3.1-0.9,6.3-1.4,9.6-1.6c2.1-0.1,3.8,0.3,4.3,1.4
		c15.4,38.6,3,70.6,3.1,114.1L113.2,453.6z"/>
	<path class="st7" d="M118.6,442.6v10.1c0,0.1,0,0.2,0,0.2c-0.3,1.1-2.9,2-6.3,2.3c-1,0.1-2.1,0.2-3.1,0.1c-5,0-8.9-1.1-9.4-2.5
		c0-0.1,0-0.2,0-0.2v-10.1c0,1.5,4.2,2.3,9.4,2.3C112,444.9,118.6,443.8,118.6,442.6z"/>
	<path class="st8" d="M115.3,442.6c0,1-2.7,1.8-6.1,1.8s-6-0.8-6-1.8h-3.4c0,1.5,4.2,2.7,9.4,2.7s9.4-1.2,9.4-2.7H115.3z"/>
</g>
<path id="b-thigh" class="st6" d="M121.6,263.8c-12.5,52.5-11.5,80.4-11.5,80.4s-1.4,9.8-6.7,9.5c-6.8-0.5-8.2-10.8-9.6-15.7
	c-2.3-8.2-4-16.6-5.2-25.1c-2.3-17-2.3-34.2-0.1-51.2c1.2-9.8,3.3-19.5,6.3-29c2.4-7.4,6.6-16.8,15.3-18.2c3.9,2.6,7.3,6,9.8,10
	C125.3,233.1,124.9,250.1,121.6,263.8z"/>
<g id="hips">
	<defs>
		<path id="SVGID_5_" d="M143.4,216.8c0,0-0.5,13.4-1.1,20.1c-2.1,23.8-17.2,33.8-26.1,33.8s-13.9,1.6-19.5-15.4
			c-4.4-13.4-4-36.7-4-36.7L143.4,216.8z"/>
	</defs>
	<clipPath id="SVGID_6_">
		<use xlink:href="#SVGID_5_"  style="overflow:visible;"/>
	</clipPath>
	<g class="st9">
		<rect x="92.2" y="215" class="st2" width="52" height="59"/>
		<path class="st3" d="M109.2,216.5c-0.7,1.2-1.2,2.5-1.6,3.9c-0.7,2.2-1.2,4.4-1.7,6.6c-1.3,5.7-2.2,11.4-2.9,17.2
			c-0.5,4.5-0.7,9-0.6,13.5c0.2,3.7,0.7,7.6,2.8,10.8c2.9,4.2,8,5.2,12.8,4.8c0.6,0,0.6-1,0-1c-4.2,0.4-8.8-0.3-11.6-3.8
			c-2.2-2.8-2.8-6.6-3-10.1c-0.2-4.2-0.1-8.4,0.4-12.6c0.6-5.7,1.5-11.4,2.7-17c0.5-2.6,1.1-5.1,1.9-7.6c0.3-1.5,0.9-3,1.7-4.4
			C110.4,216.4,109.5,216,109.2,216.5L109.2,216.5z"/>
	</g>
</g>
<g id="f-calf">
	<ellipse class="st7" cx="125.2" cy="446.7" rx="9.1" ry="2.5"/>
	<path class="st8" d="M125.4,444c-5.2,0-9.5,1.2-9.5,2.7s4.2,2.7,9.5,2.7c5.2,0,9.5-1.2,9.5-2.7S130.6,444,125.4,444z M125.4,448.4
		c-3.4,0-6.1-0.8-6.1-1.8s2.7-1.7,6.1-1.7c3.4,0,6,0.8,6,1.7S128.7,448.4,125.4,448.4z"/>
	<path class="st0" d="M129.2,457.6c0,3.6-7.4,2.1-7.4,2.1l-9.5-116.8c3.1-0.9,6.3-1.4,9.6-1.6c2.1-0.1,3.8,0.3,4.3,1.4
		c15.4,38.6,3,70.6,3.1,114.1L129.2,457.6z"/>
	<path class="st8" d="M138.2,456.1c0,0.1,0,0.2,0,0.2l0,0V456.1z"/>
	<path class="st8" d="M135.2,457.1v0.2l0,0C135.2,457.2,135.2,457.2,135.2,457.1z"/>
	<g>
		<path class="st0" d="M145.8,494.2c-1.3,0.5-7.2-0.2-8.9-1c-2.6-1.3-9.9-4.2-9.9-4.2c-3.2-1.1-6.3,1.4-7.3,2.2
			c-2.8,2.3-6,4-9.5,4.9c-2.1,0.6-18,1.7-23,0.9c-2-0.3-1.6-3-1.7-5c0,0-4.7,0.4-7.7,0.3c-2.8-0.1-5.6-0.3-8.4-0.6
			c-0.4-1.7-1.3-5.4-0.1-7.9c2.4-4.9,28.4-5.4,33.5-8.8c3.3-2.2,9.7-8.8,14.1-16.2c1.4-2.3,3.2-4.4,5.4-6l2.8-1.9
			c3.2,0,5.9,2.5,6.2,5.8c0.5,4.6,8.9,25.3,14,28.3S149.4,493,145.8,494.2z"/>
		<path class="st6" d="M105.9,478.7c-6.3,7.7-19.9,4.8-20.4,13.4c-3.6,0.8-16.1-0.3-16.1-0.3S69.3,483.8,105.9,478.7z"/>
	</g>
	<path class="st8" d="M134.8,446.6v10.1c0,0.1,0,0.2,0,0.2c-0.3,1.1-2.9,2-6.4,2.3c-1,0.1-2.1,0.2-3.1,0.1c-5,0-9-1.1-9.5-2.5
		c0-0.1,0-0.2,0-0.2v-10.1c0,1.5,4.2,2.7,9.5,2.7c1,0,2.1,0,3.1-0.1C132.1,448.8,134.8,447.8,134.8,446.6z"/>
	<path class="st8" d="M131.4,446.7c0,1-2.7,1.8-6,1.8c-3.3,0-6.1-0.8-6.1-1.8h-3.4c0,1.5,4.2,2.7,9.5,2.7c5.2,0,9.5-1.2,9.5-2.7
		H131.4z"/>
</g>
<path id="f-thigh" class="st0" d="M137.6,267.8c-12.5,52.5-11.5,80.4-11.5,80.4s-1.4,9.8-6.7,9.5c-6.8-0.5-8.2-10.8-9.6-15.7
	c-6.9-24.8-8.6-50.8-5.2-76.3c1.2-9.8,3.3-19.5,6.3-29c2.4-7.4,6.6-16.8,15.3-18.2c3.9,2.6,7.3,6,9.8,10
	C141.3,237.1,140.9,254.1,137.6,267.8z"/>
<g id="torso">
	<path class="st8" d="M123.8,116.2c-1.5,9.3-7.3,17.3-15.6,21.7c-6-3.4-13.7-9.9-15.6-21.7s7-21.6,15.6-21.6
		S125.8,104.5,123.8,116.2z"/>
	<path class="st7" d="M144.9,204.6c0-2.2-9-3.1-24.6-0.9s-30.6,8-30.6,13.7s11.3-2.6,26.9-2.6S144.9,210.3,144.9,204.6z"/>
	<path class="st4" d="M94.7,182.1c0,0,8,16.3,41.2,15.8L133,158H92.9L94.7,182.1z"/>
	<path class="st0" d="M137.7,217.4l-8.9,3.5l-32.2,5.3l-3.8-8.9c0,0,5.6-11.6,5.6-21.2c0-2.7-0.2-6.6-0.6-10.8
		c-0.9-10.9-2.5-24.1-2.5-24.1s4.3-8.4,19.9-8.4s19.9,8.4,19.9,8.4s-3,25.3-3,34.9S137.7,217.4,137.7,217.4z"/>
	<g>
		<defs>
			<path id="SVGID_7_" d="M135.8,197.6c-25.3-2.3-23.4-18.1-34.3-28.4c-10.6-10-4.3,3.3-6.9,12.7c-2.9-7.5-11.9-38,9.2-78.2
				c14.4-5.7,18.9-10.8,34.6-5.1C157.2,126.9,143.8,175.4,135.8,197.6z"/>
		</defs>
		<clipPath id="SVGID_8_">
			<use xlink:href="#SVGID_7_"  style="overflow:visible;"/>
		</clipPath>
		<g class="st10">
			<rect x="78.2" y="93" class="st2" width="77" height="110"/>
			<path class="st3" d="M135.6,92.8L135.6,92.8l-0.1,0.1l-0.3,0.2l-0.7,0.5l-1.9,1.3c-1.8,1.2-3.6,2.6-5.3,4
				c-5,4.2-9.2,9.3-12.5,14.9c-4.8,8.3-7.6,17.7-8.2,27.3c-0.2,5.7,0,11.4,0.7,17.1c0.4,4.1,0.9,8.2,1.7,12.2
				c1.7,8.9,4.2,17.9,8.4,25.9c0.5,0.9,1,1.8,1.6,2.7c0.3,0.6,1.2,0.1,0.9-0.5c-2.4-3.9-4.3-8-5.7-12.3c-1.5-4.3-2.7-8.7-3.7-13.1
				c-0.8-3.7-1.4-7.4-1.8-11.1c-0.7-5.6-1.1-11.2-1.2-16.8c0-10,2.3-19.8,6.9-28.6c3.1-6,7.3-11.4,12.4-15.9c1.7-1.5,3.6-3,5.5-4.3
				c1.2-0.8,2.4-1.6,3.6-2.4c0.2-0.1,0.4-0.3,0.6-0.4C136.8,93,136.1,92.3,135.6,92.8L135.6,92.8z"/>
			
				<rect x="84.8" y="136" transform="matrix(8.628637e-02 -0.9963 0.9963 8.628637e-02 -51.7646 221.9983)" class="st11" width="20.8" height="6.4"/>
		</g>
	</g>
	<path class="st7" d="M100.1,117.8c0,0,8.2-8.2,16.9-15.5c6.8-5.8,14.8-10.5,14.1-14.1c-1.6-8.3-18.7,1.6-22.9,5.6
		C96.1,105.8,100.1,117.8,100.1,117.8z"/>
	<path class="st6" d="M124.5,100.5c0,0-5.2,4.1-11.1,8.3s-7.3,6.4-7.3,6.4s-2-12.4-3.6-26.2c-1.8-15.9-2.2-34.2-2.2-34.2l22.4-3.2
		c0,0-7,6.9-2.7,30.4C122.5,95.8,124.5,100.5,124.5,100.5z"/>
	<path class="st8" d="M145.2,204.6v15.1c-10.7,1.2-40.9,9.1-55.2,12c0,0-0.2-10.4,0-14.3C95.4,215.1,134.6,205.7,145.2,204.6z"/>
	<path class="st8" d="M100.2,118c0,0,7.5-8.8,14.2-18c5.2-7.3,9.3-15.6,13-15.1c8.4,1,5.5,8.5,1.8,12.9
		C118.2,110.8,100.2,118,100.2,118z"/>
	<path class="st8" d="M151.4,116.2c-1.5,9.3-7.3,17.3-15.6,21.7c-6-3.4-13.7-9.9-15.6-21.7s7-21.6,15.6-21.6
		S153.5,104.5,151.4,116.2z"/>
	<path class="st7" d="M146.9,120.7c-1.4,9.3-6.7,14.5-11,17.1c-6.1-3.7-10.1-10-11.1-17.1c-1.4-9.3,5-17.1,11.1-17.1
		S148.3,111.4,146.9,120.7z"/>
</g>
<path id="f-arm_1_" class="st0" d="M127.1,118.2c0.1,0.4,0.2,0.8,0.4,1.1c2.5,5.9,4.9,11.9,7.3,17.9l3.5,9l3.4,9
	c2.2,6,4.4,12.1,6.5,18.1s4,12.2,5.6,18.5c0.9,3.6,4.4,6,8.1,5.5c0.3,0,0.6-0.1,0.9-0.1c3.9-1,6.3-5,5.3-8.9
	c-0.1-0.4-0.2-0.8-0.4-1.1c-2.6-5.9-4.8-11.9-6.9-18s-4-12.2-6-18.3l-2.9-9.2l-2.7-9.2c-1.8-6.2-3.6-12.4-5.2-18.6
	c-1.2-4.6-6-7.3-10.6-6.1C128.6,108.9,125.9,113.6,127.1,118.2L127.1,118.2z"/>
<g id="f-forearm">
	<defs>
		<path id="SVGID_9_" d="M148,203.9c5.3,13.3,15.5,27.1,19.9,40c0.9,2.6,6.2,4.1,10.9,2.4c0.8-0.3,1.6-0.7,2.3-1.1
			c3.4-2.2,5.4-5.7,4.7-7.9c-4.2-12.4-5-30.8-9.1-44.6c-1.3-4.2-2.8-9.5-4.7-12.2c-2.5-3.4-11.8-8-21.2,3.3
			C147.1,188.2,146.2,199.5,148,203.9z"/>
	</defs>
	<clipPath id="SVGID_10_">
		<use xlink:href="#SVGID_9_"  style="overflow:visible;"/>
	</clipPath>
	<g class="st12">
		<path class="st2" d="M145.3,203.1c5.9,14.9,17.4,30.3,22.3,44.8c1,2.9,7,4.6,12.2,2.7c0.9-0.3,1.8-0.8,2.6-1.3
			c3.8-2.4,6.1-6.4,5.3-8.8c-4.8-13.9-5.6-34.5-10.2-50c-1.4-4.7-3.2-9.2-5.3-13.6c-1.7-3.4-5-10.2-8.6-8.9
			c-3.2,1.2-9.8,0.9-12.3,3.7c-4.3,4.9-8.9,9.8-9.9,12.2C138.5,191.1,143.4,198.2,145.3,203.1z"/>
		<path class="st3" d="M149.4,195.2c4.6,14.1,11.9,27.1,18.1,40.5c1.7,3.7,3.3,7.4,4.8,11.2c0.2,0.6,1.1,0.3,0.9-0.2
			c-5.2-13.7-12.6-26.4-18.4-39.8c-1.7-3.9-3.2-7.9-4.5-12C150.1,194.3,149.2,194.6,149.4,195.2L149.4,195.2z"/>
		<path class="st3" d="M177.2,188.2c-2.4-3.2-5.5-6.2-9.6-7c-3.3-0.4-6.7,0.4-9.5,2.4c-3.1,2-5.6,4.7-7.4,7.9
			c-1.6,3.3-2.4,6.8-2.5,10.4c-0.1,4.9,0.3,9.8,1.2,14.7c0.1,0.6,1,0.3,0.9-0.2c-0.7-4.2-1.1-8.4-1.2-12.6c-0.1-3.5,0.5-7,1.7-10.2
			c1.3-3.1,3.5-5.9,6.2-7.9c2.5-2,5.6-3.6,8.9-3.6c4.4,0.1,8,3.3,10.5,6.7C176.8,189.1,177.6,188.6,177.2,188.2L177.2,188.2z"/>
		<ellipse transform="matrix(0.9289 -0.3704 0.3704 0.9289 -77.0277 82.8503)" class="st4" cx="177.2" cy="242" rx="7.4" ry="3.1"/>
	</g>
</g>
<path id="f-hand" class="st0" d="M172.4,256.7c0.4-3.2,0.6-12.2,0.6-12.2s0.7-4.2,3.4-5.6c3-1.6,7.3,0.9,7.3,0.9
	c3.8,3.9,8.3,7.1,13.3,9.4c7.5,3.2,13.6,4.2,11.9,9.1s-5.2,5.5-9.8,2.4c-1.8-1.2-3.4-2.1-4.9-3c0.7,0.9,1.4,1.8,2.1,2.7
	c5.5,6.1,10.5,9.5,6.9,13.3s-7.1,2.8-9.9-2s-5.6-7.6-6.9-9.9c0,0-5.1-6.4-5.3-5.8c-0.3,0.5,0.4,4.2-0.1,8.8s-6.6,5.7-9.3,3.5
	S172,259.8,172.4,256.7z"/>
<g>
	<defs>
		<path id="SVGID_11_" d="M140.7,32.1c-0.3,11.5-17,24.2-31.2,28.2c-2.7,0.8-11.9,17.9-13.2,21.9c-2.3,7.1-8.6,9.7-13.8,9.7
			s-7-2.3-9.4-9.3c-1.3-4-7.3-26.2-6-37.5c1.5-13.4,5.9-30,17.6-36.8C94,2.7,102.2,1,115.3,1.1c7.9,0.1,16.7,4.1,20.8,10.4
			C140.1,17.5,140.8,25.1,140.7,32.1z"/>
	</defs>
	<clipPath id="SVGID_12_">
		<use xlink:href="#SVGID_11_"  style="overflow:visible;"/>
	</clipPath>
	<g class="st13">
		<rect x="51.2" class="st0" width="95" height="96"/>
		<path class="st14" d="M78.5,76c-2.2,0.9-4.4,1.4-6.8,1.4c-2.4-0.1-4.8-0.6-7-1.4H78.5z"/>
		<path class="st14" d="M83.9,38.9c-0.9-0.7-1.8-1.3-2.7-1.8c-0.8-0.5-1.7-0.7-2.6-0.8c-1,0-1.9,0.1-2.8,0.5c-0.5,0.2-1,0.4-1.4,0.6
			s-1,0.5-1.5,0.7l0,0c-0.2,0.1-0.5,0-0.6-0.2c-0.1-0.2,0-0.3,0.1-0.5c0.4-0.4,0.8-0.9,1.2-1.2c0.5-0.4,1-0.7,1.5-1
			c1.1-0.6,2.4-0.9,3.7-0.9c1.3,0.1,2.6,0.6,3.6,1.5c0.5,0.4,0.8,0.9,1.1,1.5C83.7,37.7,83.9,38.3,83.9,38.9z"/>
		<g>
			<defs>
				<path id="SVGID_13_" d="M73.1,47.7c-1.1,4.6-0.9,8.8,0.2,10.8c2,0.3,4.6-0.2,6.6-4.5c1.4-3,2.2-9.2,0.3-12.6
					C78.6,40.1,74.1,43.1,73.1,47.7z"/>
			</defs>
			<clipPath id="SVGID_14_">
				<use xlink:href="#SVGID_13_"  style="overflow:visible;"/>
			</clipPath>
			<g class="st15">
				<rect x="70.2" y="39" class="st16" width="12" height="22"/>
				<ellipse class="st4" cx="76.2" cy="51.5" rx="3" ry="7.5"/>
				<ellipse cx="75.7" cy="52" rx="1.5" ry="4"/>
				<path class="st17" d="M73.2,60.4c0,0-3.8-9.9,1.6-15.5c0.7-0.8,2.9-2.6,4-1.8c0,0,1.8,1.4,1.8,5c-0.1,3-0.7,6.1-1.7,8.9l3.1-2.2
					l1.5-22.3l-9.3,0.9l-4.5,25.3L73.2,60.4z"/>
			</g>
		</g>
		<path class="st18" d="M117.3,12.9l-0.2-0.1c-8.2-2.2-16.7-2.8-25.1-1.7c-4.7,0.6-9.3,1.8-13.7,3.6c-1.1,0.5-2.2,1-3.3,1.6
			c-2.5,2.9-5.1,5.8-7.7,8.6c0.1,0.6,0.4,1.2,0.7,1.7c0.6,1,1.8,1.4,2.9,1.2c0.8-0.3,1.6-0.8,2.3-1.4c6.4-4.7,13.8-7.9,21.6-9.5
			c4.3-0.9,8.7-1.5,13.1-1.8c3.1-0.2,6.1-0.2,9.3-0.2c0.4,0,0.8-0.3,0.9-0.7C118.1,13.6,117.8,13.1,117.3,12.9z"/>
		<path class="st18" d="M104.5,3.1c-4.5,0.2-8.9,0.6-13.4,1c0,0-8.1,2.1-9.4,3c0.4,0.7,0.9,1.3,1.5,1.9c0.9,0.8,2.1,0.6,3.2,0.4
			c7.3-1.2,13.4-2.6,21.4-3.5c1.8-0.2,14.4-1,14.4-1.4C122.2,4.1,111.7,2.7,104.5,3.1z"/>
	</g>
</g>
</svg>
